<svg xmlns="http://www.w3.org/2000/svg" width="256" height="256" fill="none"><path stroke="#D5D5D5" d="M236.697 172.288c0 17.17-12.058 32.809-31.759 44.184-19.688 11.367-46.921 18.413-77.028 18.413s-57.339-7.046-77.027-18.413c-19.702-11.375-31.76-27.014-31.76-44.184s12.058-32.808 31.76-44.183c19.688-11.367 46.92-18.414 77.027-18.414s57.34 7.047 77.028 18.414c19.701 11.375 31.759 27.014 31.759 44.183Z"/><path fill="#455A64" d="M40.029 175.223c0 1.591 1.194 3.569 2.662 4.418l57.933 33.456a5.89 5.89 0 0 0 5.324 0l102.023-58.901c1.468-.845 2.662-2.832 2.662-4.418s-1.194-3.569-2.662-4.418l-57.938-33.455a5.87 5.87 0 0 0-5.319 0l-102.023 58.9c-1.468.85-2.662 2.828-2.662 4.418"/><path fill="#000" fill-opacity=".8" d="M210.633 149.777c0 1.596-1.194 3.569-2.662 4.418l-102.023 58.906a5.5 5.5 0 0 1-2.657.632v-5.763a5.4 5.4 0 0 0 2.657-.637l102.023-58.901c1.289-.741 1.449-1.888.472-2.733 1.246.963 2.19 2.667 2.19 4.078" opacity=".5"/><path fill="#000" fill-opacity=".8" d="m42.69 173.878 57.934 33.455a5.88 5.88 0 0 0 5.324 0l102.023-58.9c1.468-.85 1.468-2.224 0-3.073l-57.938-33.455a5.87 5.87 0 0 0-5.319 0l-102.023 58.9c-1.468.85-1.468 2.224 0 3.073" opacity=".3"/><path fill="#000" fill-opacity=".8" d="M103.291 207.975v5.758a5.43 5.43 0 0 1-2.667-.632l-57.933-33.46c-1.468-.845-2.662-2.832-2.662-4.418 0-1.492 1.052-3.304 2.393-4.248-1.194.854-1.1 2.109.269 2.902l57.933 33.46a5.5 5.5 0 0 0 2.667.638" opacity=".6"/><path fill="#455A64" d="M37.537 170.9c-1.383-.798-1.308-2.138-1.308-3.837V87.04a5.89 5.89 0 0 1 2.662-4.612l102.018-58.9c1.473-.85 2.832-.232 4.206.561 1.373.793 2.237 1.487 2.237 3.181v80.023a5.89 5.89 0 0 1-2.657 4.612L42.691 170.806c-1.468.849-3.776.892-5.154.094"/><path fill="#000" fill-opacity=".8" d="M147.376 27.265c0-1.69-1.194-2.36-2.662-1.534L42.691 84.637a5.4 5.4 0 0 0-1.888 1.987l-3.8-2.21a5.47 5.47 0 0 1 1.888-1.987l102.019-58.9c1.467-.85 2.832-.236 4.205.561 1.374.798 2.261 1.487 2.261 3.177" opacity=".3"/><path fill="#000" fill-opacity=".8" d="M40.029 89.243v80.023c0 1.699 1.194 2.388 2.662 1.539l102.023-58.901a5.88 5.88 0 0 0 2.657-4.612V27.27c0-1.7-1.189-2.384-2.657-1.54L42.691 84.633a5.89 5.89 0 0 0-2.662 4.611" opacity=".5"/><path fill="#000" fill-opacity=".8" d="M42.38 170.951c-1.473.689-3.56.674-4.843-.067-1.378-.793-1.303-2.138-1.303-3.837V87.034c.03-.926.298-1.829.779-2.62l3.8 2.2c-.48.79-.75 1.69-.784 2.614v80.042c0 1.572 1.029 2.28 2.35 1.681" opacity=".6"/><path fill="#455A64" d="m44.121 87.705 98.365-56.777c.878-.505 1.595-.094 1.595.944v69.856a3.53 3.53 0 0 1-1.595 2.766l-98.365 56.753c-.878.51-1.595.095-1.595-.92V90.471a3.54 3.54 0 0 1 1.595-2.766"/><path fill="#263238" d="m50.054 170.952 94.697-54.663a2.95 2.95 0 0 1 2.663 0l1.576.869c.736.42.736 1.109 0 1.534l-94.711 54.662a2.95 2.95 0 0 1-2.663 0l-1.562-.854c-.732-.425-.732-1.114 0-1.548M57.483 175.379l94.698-54.672a2.7 2.7 0 0 1 2.43-.132l24.648 14.231c.609.349.505.977-.231 1.416l-94.584 54.587a2.746 2.746 0 0 1-2.436.132l-24.751-14.16c-.61-.349-.529-.977.226-1.402" opacity=".3"/><path fill="#455A64" d="m139.54 143.67 2.965-1.714c.122-.071.137-.184 0-.25l-2.832-1.638a.47.47 0 0 0-.43 0l-2.964 1.709c-.127.075-.137.184-.028.25l2.832 1.638a.468.468 0 0 0 .457.005m-4.332-5.924-2.96 1.713c-.123.071-.137.184-.024.246l2.832 1.638a.48.48 0 0 0 .43 0l2.964-1.714c.128-.07.137-.184.029-.245l-2.833-1.638a.46.46 0 0 0-.438 0m-9.568 5.532-5.017 2.893c-.128.076-.137.184-.029.25l2.832 1.638a.47.47 0 0 0 .435 0l5.017-2.898c.123-.071.137-.184.024-.25l-2.832-1.638a.48.48 0 0 0-.43.005m5.235-3.007-2.965 1.714c-.127.07-.136.184-.023.245l2.832 1.638a.47.47 0 0 0 .429 0l2.964-1.714c.128-.07.137-.184.029-.245l-2.832-1.638a.47.47 0 0 0-.434 0m-11.631 6.717-2.964 1.708c-.127.076-.137.184-.028.251l2.832 1.637a.47.47 0 0 0 .434 0l2.964-1.713c.123-.071.137-.184.024-.245l-2.832-1.638a.47.47 0 0 0-.43-.024zm-4.332 2.501-2.96 1.685c-.127.076-.137.184-.028.251l2.832 1.637a.47.47 0 0 0 .434 0l2.964-1.713c.123-.071.137-.184.024-.245l-2.832-1.638a.47.47 0 0 0-.434 0zm11.115 6.684 2.969-1.713c.123-.076.137-.185 0-.251l-2.832-1.637a.47.47 0 0 0-.43 0l-2.926 1.703c-.127.071-.142.185-.028.251l2.832 1.637a.47.47 0 0 0 .415-.014zm-4.333 2.501 2.964-1.713c.128-.075.142-.184.029-.25l-2.832-1.638a.47.47 0 0 0-.43 0l-2.973 1.718c-.123.071-.137.184-.024.25l2.832 1.638a.47.47 0 0 0 .434-.028zm-4.333 2.502 2.964-1.713c.128-.071.137-.184.029-.25l-2.832-1.638a.47.47 0 0 0-.43 0l-2.969 1.713c-.122.076-.137.184-.023.25l2.832 1.638a.48.48 0 0 0 .429-.024zm-4.333 2.502 2.964-1.714c.128-.07.137-.184.029-.25l-2.832-1.638a.48.48 0 0 0-.435 0l-2.964 1.709c-.122.075-.137.184 0 .25l2.832 1.638a.47.47 0 0 0 .406-.019zm22.184-17.464 2.969-1.714c.123-.07.137-.184.024-.25l-2.832-1.638a.47.47 0 0 0-.43 0l-2.964 1.709c-.127.075-.137.184-.028.25l2.832 1.638a.47.47 0 0 0 .42-.038zm-4.852 7.429 6.608-3.819c.123-.07.137-.184.024-.245l-6.887-3.979a.47.47 0 0 0-.434 0l-3.417 1.978c-.128.071-.137.184-.029.245l3.649 2.105c.113.066.099.18-.028.25l-2.733 1.582c-.128.07-.137.184-.029.25l2.832 1.638a.48.48 0 0 0 .444-.005m-19.786-1.676-2.964 1.714c-.128.071-.137.184-.029.245l2.832 1.638a.47.47 0 0 0 .43 0l2.969-1.713c.122-.071.137-.184 0-.246l-2.832-1.638a.48.48 0 0 0-.401 0zm-4.333 2.502-2.964 1.713c-.128.071-.142.184-.029.246l2.832 1.638a.48.48 0 0 0 .43 0l2.964-1.714c.128-.071.142-.184.028-.245l-2.832-1.638a.47.47 0 0 0-.424 0zm-23.978 26.71a.47.47 0 0 0 .434 0l2.965-1.732c.122-.071.137-.184 0-.245l-2.832-1.638a.47.47 0 0 0-.43 0l-2.964 1.713c-.127.071-.137.184-.028.246zm-10.686-6.697-2.964 1.713c-.127.071-.137.184-.028.25l2.832 1.638a.5.5 0 0 0 .434 0l2.964-1.713c.123-.076.137-.184 0-.25l-2.832-1.638a.48.48 0 0 0-.406 0m5.494 5.017a.47.47 0 0 0 .43 0l2.969-1.713c.122-.071.137-.184 0-.246l-2.832-1.638a.48.48 0 0 0-.43 0l-2.964 1.709c-.127.076-.142.184-.028.25zm11.956 2.691 2.964-1.714c.128-.071.137-.184.028-.25l-2.832-1.638a.47.47 0 0 0-.429 0l-2.969 1.709c-.123.075-.137.184-.023.25l2.831 1.638a.47.47 0 0 0 .43.005m-4.762 2.515a.47.47 0 0 0 .43 0l2.963-1.713c.128-.071.137-.184.029-.246l-2.832-1.637a.47.47 0 0 0-.435 0l-2.964 1.708c-.123.076-.137.184 0 .25zm-8.355-12.744-2.964 1.714c-.127.07-.137.184-.024.25l2.832 1.638a.5.5 0 0 0 .435 0l2.964-1.714c.127-.075.137-.184.023-.25l-2.832-1.638a.46.46 0 0 0-.219-.043.46.46 0 0 0-.215.062zm21.67-12.508-2.97 1.714c-.122.07-.136.184 0 .245l2.833 1.638a.47.47 0 0 0 .43 0l2.963-1.709c.128-.075.137-.184.029-.25l-2.832-1.638a.467.467 0 0 0-.453.019zM80.243 169.46l-2.964 1.713c-.127.071-.137.184 0 .25l2.832 1.638a.47.47 0 0 0 .43 0l2.964-1.709c.127-.075.136-.184.023-.25l-2.832-1.638a.48.48 0 0 0-.453.015zm21.67-12.508-2.97 1.727c-.122.071-.136.184-.023.246l2.832 1.637a.47.47 0 0 0 .43 0l2.964-1.708c.127-.076.141-.189.028-.25l-2.832-1.638a.47.47 0 0 0-.429.005zm-8.671 5.031-2.964 1.714c-.123.07-.137.184-.024.245l2.832 1.638a.47.47 0 0 0 .43 0l2.964-1.709c.127-.075.137-.184.028-.25l-2.832-1.638a.47.47 0 0 0-.434 0m-4.333 2.502-2.964 1.713c-.128.071-.137.184-.024.246l2.832 1.637a.47.47 0 0 0 .43 0l2.964-1.708c.127-.076.137-.184.028-.25l-2.832-1.638a.48.48 0 0 0-.434-.01zm-4.333 2.501-2.964 1.714c-.127.071-.137.184-.024.25l2.832 1.638a.47.47 0 0 0 .43 0l2.964-1.709c.128-.075.137-.184 0-.25l-2.832-1.638a.479.479 0 0 0-.406-.014zm19.786 1.681 2.964-1.714c.128-.07.137-.184.029-.25l-2.832-1.633a.47.47 0 0 0-.434 0l-2.965 1.709c-.127.075-.136.184-.023.25l2.832 1.638a.467.467 0 0 0 .429-.01zm40.427-36.443-2.964 1.713c-.127.071-.137.184-.028.25l2.832 1.633a.47.47 0 0 0 .434 0l2.964-1.708c.123-.076.137-.184.024-.251l-2.832-1.637a.47.47 0 0 0-.43-.01zm-5.249 3.03-2.964 1.713c-.122.076-.137.184-.023.25l2.832 1.638a.47.47 0 0 0 .429 0l2.964-1.713c.128-.071.137-.184.029-.246l-2.832-1.637a.47.47 0 0 0-.435-.015zm9.582-5.532-2.964 1.713c-.128.071-.137.184-.028.246l2.832 1.638a.48.48 0 0 0 .434 0l2.964-1.709c.123-.076.137-.184.024-.25l-2.832-1.638a.47.47 0 0 0-.43-.009zm-23.954 22.241 2.969-1.709c.123-.076.137-.184.024-.25l-2.832-1.638a.48.48 0 0 0-.43 0l-2.964 1.713c-.128.071-.142.184-.028.246l2.832 1.638a.47.47 0 0 0 .429 0m28.717-24.766a.48.48 0 0 0-.43 0l-2.964 1.746c-.128.071-.137.184-.028.246l2.832 1.637a.47.47 0 0 0 .434 0l2.964-1.708c.127-.076.137-.184.024-.25zm-45.19 38.959 2.964-1.714c.128-.07.137-.184.029-.25l-2.832-1.638a.48.48 0 0 0-.434 0l-2.965 1.709c-.122.075-.137.184 0 .25l2.832 1.638a.48.48 0 0 0 .406.005m53.143-30.68 2.964-1.714c.127-.07.137-.184 0-.25l-2.832-1.638a.47.47 0 0 0-.43 0l-2.964 1.714c-.127.07-.137.184-.028.25l2.832 1.638a.5.5 0 0 0 .458 0m-8.388.16 2.964-1.713c.128-.071.137-.184.029-.246l-2.832-1.637a.47.47 0 0 0-.434 0l-2.965 1.708c-.122.076-.136.184-.023.25l2.832 1.638a.47.47 0 0 0 .429 0m4.489-6.098a.47.47 0 0 0-.429 0l-2.969 1.709c-.123.075-.137.184-.024.25l2.832 1.638a.47.47 0 0 0 .43 0l2.964-1.714c.127-.071.137-.184.028-.245zm.911-.529 6.891 3.979a.47.47 0 0 0 .43 0l2.964-1.713c.127-.076.137-.184.024-.25l-6.887-3.97a.47.47 0 0 0-.43 0l-2.968 1.709c-.123.071-.137.179-.024.245m-10.011 5.546-2.964 1.714c-.128.07-.137.184-.024.245l2.832 1.638a.47.47 0 0 0 .43 0l2.964-1.713c.127-.071.137-.185.028-.246l-2.832-1.638a.48.48 0 0 0-.434 0m-32.611 18.828-2.968 1.714c-.123.071-.137.184-.024.25l2.832 1.633a.47.47 0 0 0 .429 0l2.965-1.709c.127-.075.136-.184.028-.25l-2.832-1.638a.47.47 0 0 0-.43 0m40.843-15.392a.5.5 0 0 0 .434 0l2.964-1.713c.123-.071.137-.184 0-.25l-2.832-1.638a.47.47 0 0 0-.43 0l-2.964 1.713c-.127.071-.137.185-.028.251zm-36.51 12.891-2.945 1.713c-.123.071-.137.184 0 .25l2.832 1.633a.47.47 0 0 0 .43 0l2.964-1.708c.127-.076.141-.184.028-.25l-2.832-1.638a.46.46 0 0 0-.477 0m-33.984 27.796a.47.47 0 0 0 .435 0l2.964-1.714c.123-.07.137-.184.023-.245l-2.832-1.638a.47.47 0 0 0-.43 0l-2.963 1.714c-.128.07-.137.184-.029.245zm-5.036-5.277-2.964 1.709c-.127.075-.137.184-.028.25l2.832 1.638a.47.47 0 0 0 .43 0l2.968-1.714c.123-.071.137-.184.024-.245l-2.832-1.638a.47.47 0 0 0-.411 0zm9.823 2.742 2.964-1.713c.127-.071.136-.184.023-.246l-2.832-1.637a.47.47 0 0 0-.43 0l-2.963 1.708c-.128.076-.137.184-.029.25l2.832 1.638a.47.47 0 0 0 .434 0m4.332-2.501 2.965-1.714c.127-.071.136-.184 0-.245l-2.832-1.638a.47.47 0 0 0-.43 0l-2.964 1.709c-.128.075-.137.184-.024.25l2.832 1.638a.47.47 0 0 0 .453.018zm4.333-2.502 2.965-1.713c.127-.071.136-.184 0-.246l-2.832-1.638a.48.48 0 0 0-.43 0l-2.964 1.709c-.128.076-.137.184-.024.25l2.832 1.638a.47.47 0 0 0 .453.019zm-14.16-.26-2.964 1.709c-.127.076-.137.184-.028.25l2.832 1.638a.47.47 0 0 0 .434 0l2.964-1.713c.123-.071.137-.184.024-.25l-2.832-1.634a.48.48 0 0 0-.406.019zm4.333-2.501-2.964 1.708c-.127.076-.137.185-.028.251l2.832 1.637a.47.47 0 0 0 .434 0l2.964-1.713c.123-.071.137-.184 0-.25l-2.832-1.638a.47.47 0 0 0-.368.024zm17.332-10.011-2.94 1.727c-.128.071-.137.184 0 .25l2.832 1.638a.47.47 0 0 0 .429 0l2.964-1.713c.128-.076.137-.184.029-.25l-2.832-1.638a.5.5 0 0 0-.458.005zm-4.333 2.501-2.964 1.714c-.127.07-.137.184 0 .25l2.832 1.638a.47.47 0 0 0 .43 0l2.964-1.714c.127-.075.137-.184.023-.25l-2.832-1.638a.5.5 0 0 0-.429.019zm8.666-5.003-2.964 1.713c-.123.071-.137.185-.024.251l2.832 1.637a.47.47 0 0 0 .43 0l2.964-1.708c.127-.076.137-.184.028-.25l-2.832-1.638a.465.465 0 0 0-.41.014zm-17.332 10.006-2.964 1.714c-.127.075-.137.184-.023.25l2.831 1.638a.47.47 0 0 0 .43 0l2.964-1.714c.128-.07.137-.184 0-.25l-2.832-1.638a.5.5 0 0 0-.193-.031.5.5 0 0 0-.19.05zm4.333-2.501-2.964 1.713c-.127.076-.137.184-.023.25l2.832 1.638a.47.47 0 0 0 .429 0l2.992-1.685c.128-.071.137-.184.024-.25l-2.832-1.638a.47.47 0 0 0-.434 0zm-5.532 16.298 2.965-1.713c.127-.071.141-.184.028-.25l-2.832-1.638a.47.47 0 0 0-.43 0l-2.964 1.708c-.127.076-.141.184-.028.25l2.832 1.638a.47.47 0 0 0 .453.024zm-22.85-1.081-2.831-1.638a.47.47 0 0 0-.43 0l-2.945 1.747c-.127.071-.137.184-.028.25l2.832 1.638a.5.5 0 0 0 .434 0l2.964-1.714c.128-.085.142-.198.028-.264zm5.665 1.416-2.832-1.638a.47.47 0 0 0-.43 0L68.325 181c-.123.071-.137.184 0 .246l2.832 1.637a.47.47 0 0 0 .43 0l4.56-2.633c.112-.048.127-.161.013-.222zm-9.884-4.654-2.832-1.638a.47.47 0 0 0-.43 0l-3.648 2.11c-.127.071-.137.184-.028.246l2.832 1.638a.48.48 0 0 0 .434 0l3.649-2.106c.132-.051.146-.16.033-.226zm2.8-1.614a.47.47 0 0 0 .429 0l2.964-1.713c.127-.071.137-.184.028-.251l-2.832-1.637a.5.5 0 0 0-.434 0l-2.96 1.76c-.122.076-.136.184 0 .25zm12.271 7.948-2.832-1.637a.47.47 0 0 0-.43 0l-5.701 3.304c-.128.075-.137.184-.028.25l2.832 1.638a.48.48 0 0 0 .434 0l5.702-3.304c.136-.052.15-.161.037-.227zm2.002 3.526-2.833-1.638a.48.48 0 0 0-.434 0l-3.648 2.106c-.123.07-.137.184-.024.25l2.832 1.638a.47.47 0 0 0 .43 0l3.648-2.11c.142-.047.151-.161.043-.222zm17.935-30.076a.48.48 0 0 0 .43 0l2.964-1.713c.128-.071.137-.184.028-.25l-2.832-1.638a.5.5 0 0 0-.434 0l-2.964 1.713c-.123.076-.137.185-.023.251zm-8.666 5.004a.47.47 0 0 0 .43 0l2.964-1.714c.128-.07.137-.184.028-.25l-2.832-1.638a.48.48 0 0 0-.434 0l-2.964 1.709c-.127.075-.137.184 0 .25zm-19.22 11.096a.47.47 0 0 0 .43 0l2.964-1.713c.128-.071.137-.184.029-.25l-2.832-1.638a.5.5 0 0 0-.434 0l-2.965 1.713c-.122.071-.137.184 0 .251zm23.554-13.598a.47.47 0 0 0 .429 0l2.964-1.713c.128-.071.137-.184.028-.25l-2.832-1.638a.47.47 0 0 0-.434 0l-2.964 1.708c-.123.076-.137.184-.023.251zm-8.666 5.003a.47.47 0 0 0 .43 0l2.963-1.713c.128-.071.137-.184.024-.25l-2.832-1.638a.47.47 0 0 0-.43 0l-2.964 1.709c-.127.075-.137.184 0 .25zm-2.832 22.746a.47.47 0 0 0-.43 0l-4.56 2.634c-.127.071-.136.184-.028.245l2.832 1.638a.47.47 0 0 0 .434 0l4.56-2.634c.127-.071.137-.184 0-.245zm-3.403-19.154a.47.47 0 0 0 .429 0l2.964-1.713c.128-.076.142-.184.028-.25l-2.831-1.638a.47.47 0 0 0-.43 0l-2.964 1.713c-.128.071-.142.184-.028.25zm-4.334 2.502a.47.47 0 0 0 .43 0l2.964-1.714c.128-.075.142-.184.028-.25l-2.831-1.638a.47.47 0 0 0-.43 0l-2.969 1.714c-.123.071-.137.184-.024.25zm88.052-29.675a.47.47 0 0 0-.429 0l-7.298 4.21c-.127.076-.136.184-.028.251l2.832 1.637a.47.47 0 0 0 .434 0l7.321-4.215c.123-.07.137-.184.024-.245zm-9.577 5.527a.47.47 0 0 0-.429 0l-2.969 1.709c-.123.075-.137.184-.024.25l2.832 1.638a.47.47 0 0 0 .43 0l2.964-1.713c.127-.071.137-.185.028-.251zm-58.49 32.601 2.969-1.713c.123-.071.137-.184 0-.25l-2.832-1.638a.47.47 0 0 0-.43 0l-2.964 1.713c-.127.076-.137.184-.028.25l2.832 1.638a.47.47 0 0 0 .453 0m49.824-27.598a.48.48 0 0 0-.434 0l-2.964 1.709c-.128.076-.137.184 0 .25l2.832 1.638a.47.47 0 0 0 .429 0l2.965-1.713c.127-.071.136-.184.028-.25zm22.576-13.031a.47.47 0 0 0-.429 0l-2.96 1.722c-.127.076-.137.184-.024.251l2.832 1.637a.47.47 0 0 0 .435 0l2.964-1.713c.127-.071.137-.184.023-.245zm7.17-.864-6.887-3.979a.47.47 0 0 0-.429 0l-2.969 1.713c-.123.071-.137.184-.024.246l6.891 3.979a.48.48 0 0 0 .43 0l2.964-1.714c.128-.071.137-.184.024-.245m-45.959 23.246a.47.47 0 0 0-.429 0l-3.654 2.11c-.122.07-.137.184 0 .245l2.832 1.638a.47.47 0 0 0 .43 0l3.648-2.105c.128-.076.142-.184.029-.25zm10.946-6.32a.47.47 0 0 0-.43 0l-4.559 2.633c-.128.076-.137.185-.029.251l2.832 1.637a.48.48 0 0 0 .43 0l4.564-2.633c.128-.076.137-.184.024-.25zm-20.981 12.116a.47.47 0 0 0-.429 0l-24.407 14.089c-.123.071-.137.184 0 .25l2.832 1.638a.47.47 0 0 0 .43 0l24.402-14.089c.127-.071.137-.184.028-.245zm-25.77 14.877a.48.48 0 0 0-.435 0l-3.649 2.11c-.127.071-.137.184-.023.246l2.832 1.638a.47.47 0 0 0 .43 0l3.648-2.106c.127-.075.137-.184.028-.25zm30.788-17.775a.47.47 0 0 0-.43 0l-3.653 2.105c-.123.076-.137.184 0 .25l2.832 1.638a.47.47 0 0 0 .429 0l3.649-2.105c.127-.076.137-.184.028-.25zm-35.81 20.673a.48.48 0 0 0-.43 0l-3.63 2.129c-.128.076-.137.184-.024.25l2.832 1.638a.47.47 0 0 0 .43 0l3.648-2.105c.128-.075.137-.184.024-.25zm45.844-26.465a.47.47 0 0 0-.429 0l-3.644 2.12c-.123.071-.137.184 0 .25l2.832 1.638a.47.47 0 0 0 .43 0l3.648-2.105c.128-.071.142-.184.029-.251zm15.51-8.968a.48.48 0 0 0-.434 0l-2.964 1.709c-.123.076-.137.184-.024.25l2.832 1.638a.47.47 0 0 0 .43 0l2.964-1.713c.127-.071.137-.184.028-.25zm9.705-6.773 2.964-1.708c.127-.076.137-.184.028-.251l-2.832-1.637a.47.47 0 0 0-.434 0l-2.964 1.713c-.123.071-.137.184-.024.245l2.832 1.638a.47.47 0 0 0 .449.01zm-17.681.855 2.964-1.714c.122-.071.137-.184 0-.25l-2.832-1.638a.47.47 0 0 0-.43 0l-2.964 1.714c-.127.075-.137.184-.028.25l2.832 1.638a.5.5 0 0 0 .476.009zm-11.513 16 8.666-5.003c.128-.071.137-.184.029-.25l-2.832-1.638a.47.47 0 0 0-.434 0l-8.666 5.003c-.123.071-.137.184-.024.246l2.832 1.638a.47.47 0 0 0 .448.014zm24.45-14.33a.47.47 0 0 0 .43 0l2.964-1.708c.127-.076.137-.184.028-.25l-2.832-1.638a.47.47 0 0 0-.434 0l-2.988 1.713c-.123.071-.137.184-.023.246zm-3.62-2.36 2.964-1.713c.123-.071.137-.184.024-.25l-2.832-1.638a.47.47 0 0 0-.43 0l-2.964 1.713c-.128.076-.137.185-.028.251l2.832 1.637a.47.47 0 0 0 .434.01zm-25.144 19.201 2.965-1.708c.127-.076.136-.184.028-.25l-2.832-1.638a.47.47 0 0 0-.434 0l-2.965 1.713c-.122.071-.136.184-.023.246l2.832 1.637a.47.47 0 0 0 .429 0m19.182-11.328a.47.47 0 0 0 .435 0l2.964-1.713c.123-.071.137-.184.023-.245l-2.832-1.638a.47.47 0 0 0-.429 0l-2.964 1.713c-.128.071-.137.184-.029.246zm-40.846 23.822 2.964-1.713c.122-.076.137-.184.023-.25l-2.832-1.638a.47.47 0 0 0-.429 0l-2.964 1.713c-.128.071-.137.184-.029.25l2.832 1.638a.5.5 0 0 0 .435.019zm4.333-2.501 2.964-1.714c.127-.075.137-.184 0-.25l-2.832-1.638a.47.47 0 0 0-.43 0l-2.964 1.714c-.127.07-.137.184-.028.25l2.832 1.638a.5.5 0 0 0 .226.065.5.5 0 0 0 .232-.046zm-8.657 5.022 2.964-1.714c.123-.07.137-.184.024-.25l-2.832-1.638a.47.47 0 0 0-.43 0l-2.964 1.714c-.127.071-.137.184-.028.25l2.832 1.638a.51.51 0 0 0 .434 0m17.322-10.011 2.965-1.709c.127-.076.137-.184.023-.25l-2.832-1.638a.47.47 0 0 0-.429 0l-2.964 1.713c-.128.071-.137.184-.024.25l2.832 1.638a.48.48 0 0 0 .429-.004m-4.332 2.501 2.964-1.708c.127-.076.137-.185 0-.251l-2.832-1.637a.47.47 0 0 0-.43 0l-2.945 1.708c-.128.071-.137.184-.024.25l2.832 1.638a.47.47 0 0 0 .435 0m8.665-5.003 2.965-1.709c.127-.075.136-.184.028-.25l-2.832-1.638a.48.48 0 0 0-.434 0l-2.974 1.728c-.127.071-.137.184 0 .245l2.832 1.643a.47.47 0 0 0 .415-.019m23.657-34.805a.47.47 0 0 0 .43 0l2.964-1.709c.127-.075.137-.184.028-.25l-.755-.434a.47.47 0 0 0-.43 0l-2.969 1.708c-.122.076-.136.184-.023.25zm-21.537 13.641a.47.47 0 0 0 .429 0l2.964-1.714c.128-.075.137-.184.029-.25l-2.832-1.638a.51.51 0 0 0-.435 0l-2.964 1.714c-.127.07-.137.184 0 .25zm8.656-4.985a.47.47 0 0 0 .43 0l2.964-1.708c.127-.076.137-.185.028-.251l-2.832-1.637a.47.47 0 0 0-.434 0l-2.969 1.708c-.123.071-.137.184-.024.25zm-13.957 8.024a.47.47 0 0 0 .43 0l2.964-1.713c.127-.071.137-.184 0-.25l-2.832-1.638a.47.47 0 0 0-.434 0l-2.941 1.713c-.127.076-.137.184-.024.25zm9.624-5.555a.47.47 0 0 0 .43 0l2.964-1.714c.127-.075.137-.184.028-.25l-2.832-1.638a.48.48 0 0 0-.434 0l-2.964 1.714c-.123.071-.137.184 0 .25zm-18.294 10.558a.47.47 0 0 0 .434 0l2.978-1.699c.128-.071.137-.184.024-.245l-2.856-1.643a.47.47 0 0 0-.429 0l-2.965 1.709c-.127.075-.136.184 0 .25zm4.337-2.501a.47.47 0 0 0 .43 0l2.964-1.714c.127-.07.137-.184 0-.245l-2.832-1.638a.47.47 0 0 0-.43 0l-2.945 1.723c-.127.075-.137.184-.024.25zm22.496-14.189a.47.47 0 0 0 .429 0l2.964-1.708c.128-.076.137-.184.029-.25l-.755-.435a.49.49 0 0 0-.435 0l-2.964 1.714c-.123.071-.137.184-.023.245zm12.999-7.509a.47.47 0 0 0 .429 0l2.964-1.709c.128-.075.142-.184.029-.25l-.756-.434a.47.47 0 0 0-.429 0l-2.969 1.709c-.123.075-.137.184-.024.25zm5.956 3.441a.47.47 0 0 0 .434 0l2.974-1.709c.128-.075.137-.184 0-.25l-2.832-1.638a.47.47 0 0 0-.429 0l-2.965 1.714c-.127.07-.136.184-.023.245zm8.256 9.506 2.964-1.709c.127-.075.141-.184.028-.25l-2.832-1.638a.47.47 0 0 0-.43 0l-2.968 1.714c-.123.07-.137.184 0 .245l2.832 1.638q.095.048.201.053.106.003.205-.039zm-22.878-7.911a.47.47 0 0 0 .429 0l2.964-1.708c.128-.076.137-.185.029-.251l-.756-.434a.47.47 0 0 0-.434 0l-2.964 1.714c-.123.07-.137.184-.024.245zm-35.499 21.712a.47.47 0 0 0 .434 0l2.964-1.713c.127-.071.137-.184.024-.246l-2.832-1.637a.48.48 0 0 0-.43 0l-2.964 1.708c-.128.076-.137.184-.028.25z"/><path fill="#000" fill-opacity=".8" d="m139.54 143.67 2.965-1.714c.122-.071.137-.184 0-.25l-2.832-1.638a.47.47 0 0 0-.43 0l-2.964 1.709c-.127.075-.137.184-.028.25l2.832 1.638a.468.468 0 0 0 .457.005m-4.332-5.924-2.96 1.713c-.123.071-.137.184-.024.246l2.832 1.638a.48.48 0 0 0 .43 0l2.964-1.714c.128-.07.137-.184.029-.245l-2.833-1.638a.46.46 0 0 0-.438 0m-9.568 5.532-5.017 2.893c-.128.076-.137.184-.029.25l2.832 1.638a.47.47 0 0 0 .435 0l5.017-2.898c.123-.071.137-.184.024-.25l-2.832-1.638a.48.48 0 0 0-.43.005m5.235-3.007-2.965 1.714c-.127.07-.136.184-.023.245l2.832 1.638a.47.47 0 0 0 .429 0l2.964-1.714c.128-.07.137-.184.029-.245l-2.832-1.638a.47.47 0 0 0-.434 0m-11.631 6.717-2.964 1.708c-.127.076-.137.184-.028.251l2.832 1.637a.47.47 0 0 0 .434 0l2.964-1.713c.123-.071.137-.184.024-.245l-2.832-1.638a.47.47 0 0 0-.43-.024zm-4.332 2.501-2.96 1.685c-.127.076-.137.184-.028.251l2.832 1.637a.47.47 0 0 0 .434 0l2.964-1.713c.123-.071.137-.184.024-.245l-2.832-1.638a.47.47 0 0 0-.434 0zm11.115 6.684 2.969-1.713c.123-.076.137-.185 0-.251l-2.832-1.637a.47.47 0 0 0-.43 0l-2.926 1.703c-.127.071-.142.185-.028.251l2.832 1.637a.47.47 0 0 0 .415-.014zm-4.333 2.501 2.964-1.713c.128-.075.142-.184.029-.25l-2.832-1.638a.47.47 0 0 0-.43 0l-2.973 1.718c-.123.071-.137.184-.024.25l2.832 1.638a.47.47 0 0 0 .434-.028zm-4.333 2.502 2.964-1.713c.128-.071.137-.184.029-.25l-2.832-1.638a.47.47 0 0 0-.43 0l-2.969 1.713c-.122.076-.137.184-.023.25l2.832 1.638a.48.48 0 0 0 .429-.024zm-4.333 2.502 2.964-1.714c.128-.07.137-.184.029-.25l-2.832-1.638a.48.48 0 0 0-.435 0l-2.964 1.709c-.122.075-.137.184 0 .25l2.832 1.638a.47.47 0 0 0 .406-.019zm22.184-17.464 2.969-1.714c.123-.07.137-.184.024-.25l-2.832-1.638a.47.47 0 0 0-.43 0l-2.964 1.709c-.127.075-.137.184-.028.25l2.832 1.638a.47.47 0 0 0 .42-.038zm-4.852 7.429 6.608-3.819c.123-.07.137-.184.024-.245l-6.887-3.979a.47.47 0 0 0-.434 0l-3.417 1.978c-.128.071-.137.184-.029.245l3.649 2.105c.113.066.099.18-.028.25l-2.733 1.582c-.128.07-.137.184-.029.25l2.832 1.638a.48.48 0 0 0 .444-.005m-19.786-1.676-2.964 1.714c-.128.071-.137.184-.029.245l2.832 1.638a.47.47 0 0 0 .43 0l2.969-1.713c.122-.071.137-.184 0-.246l-2.832-1.638a.48.48 0 0 0-.401 0zm-4.333 2.502-2.964 1.713c-.128.071-.142.184-.029.246l2.832 1.638a.48.48 0 0 0 .43 0l2.964-1.714c.128-.071.142-.184.028-.245l-2.832-1.638a.47.47 0 0 0-.424 0zm-23.978 26.71a.47.47 0 0 0 .434 0l2.965-1.732c.122-.071.137-.184 0-.245l-2.832-1.638a.47.47 0 0 0-.43 0l-2.964 1.713c-.127.071-.137.184-.028.246zm-10.686-6.697-2.964 1.713c-.127.071-.137.184-.028.25l2.832 1.638a.5.5 0 0 0 .434 0l2.964-1.713c.123-.076.137-.184 0-.25l-2.832-1.638a.48.48 0 0 0-.406 0m5.494 5.017a.47.47 0 0 0 .43 0l2.969-1.713c.122-.071.137-.184 0-.246l-2.832-1.638a.48.48 0 0 0-.43 0l-2.964 1.709c-.127.076-.142.184-.028.25zm11.956 2.691 2.964-1.714c.128-.071.137-.184.028-.25l-2.832-1.638a.47.47 0 0 0-.429 0l-2.969 1.709c-.123.075-.137.184-.023.25l2.831 1.638a.47.47 0 0 0 .43.005m-4.762 2.515a.47.47 0 0 0 .43 0l2.963-1.713c.128-.071.137-.184.029-.246l-2.832-1.637a.47.47 0 0 0-.435 0l-2.964 1.708c-.123.076-.137.184 0 .25zm-8.355-12.744-2.964 1.714c-.127.07-.137.184-.024.25l2.832 1.638a.5.5 0 0 0 .435 0l2.964-1.714c.127-.075.137-.184.023-.25l-2.832-1.638a.46.46 0 0 0-.219-.043.46.46 0 0 0-.215.062zm21.67-12.508-2.97 1.714c-.122.07-.136.184 0 .245l2.833 1.638a.47.47 0 0 0 .43 0l2.963-1.709c.128-.075.137-.184.029-.25l-2.832-1.638a.467.467 0 0 0-.453.019zM80.243 169.46l-2.964 1.713c-.127.071-.137.184 0 .25l2.832 1.638a.47.47 0 0 0 .43 0l2.964-1.709c.127-.075.136-.184.023-.25l-2.832-1.638a.48.48 0 0 0-.453.015zm21.67-12.508-2.97 1.727c-.122.071-.136.184-.023.246l2.832 1.637a.47.47 0 0 0 .43 0l2.964-1.708c.127-.076.141-.189.028-.25l-2.832-1.638a.47.47 0 0 0-.429.005zm-8.671 5.031-2.964 1.714c-.123.07-.137.184-.024.245l2.832 1.638a.47.47 0 0 0 .43 0l2.964-1.709c.127-.075.137-.184.028-.25l-2.832-1.638a.47.47 0 0 0-.434 0m-4.333 2.502-2.964 1.713c-.128.071-.137.184-.024.246l2.832 1.637a.47.47 0 0 0 .43 0l2.964-1.708c.127-.076.137-.184.028-.25l-2.832-1.638a.48.48 0 0 0-.434-.01zm-4.333 2.501-2.964 1.714c-.127.071-.137.184-.024.25l2.832 1.638a.47.47 0 0 0 .43 0l2.964-1.709c.128-.075.137-.184 0-.25l-2.832-1.638a.479.479 0 0 0-.406-.014zm19.786 1.681 2.964-1.714c.128-.07.137-.184.029-.25l-2.832-1.633a.47.47 0 0 0-.434 0l-2.965 1.709c-.127.075-.136.184-.023.25l2.832 1.638a.467.467 0 0 0 .429-.01zm40.427-36.443-2.964 1.713c-.127.071-.137.184-.028.25l2.832 1.633a.47.47 0 0 0 .434 0l2.964-1.708c.123-.076.137-.184.024-.251l-2.832-1.637a.47.47 0 0 0-.43-.01zm-5.249 3.03-2.964 1.713c-.122.076-.137.184-.023.25l2.832 1.638a.47.47 0 0 0 .429 0l2.964-1.713c.128-.071.137-.184.029-.246l-2.832-1.637a.47.47 0 0 0-.435-.015zm9.582-5.532-2.964 1.713c-.128.071-.137.184-.028.246l2.832 1.638a.48.48 0 0 0 .434 0l2.964-1.709c.123-.076.137-.184.024-.25l-2.832-1.638a.47.47 0 0 0-.43-.009zm-23.954 22.241 2.969-1.709c.123-.076.137-.184.024-.25l-2.832-1.638a.48.48 0 0 0-.43 0l-2.964 1.713c-.128.071-.142.184-.028.246l2.832 1.638a.47.47 0 0 0 .429 0m28.717-24.766a.48.48 0 0 0-.43 0l-2.964 1.746c-.128.071-.137.184-.028.246l2.832 1.637a.47.47 0 0 0 .434 0l2.964-1.708c.127-.076.137-.184.024-.25zm-45.19 38.959 2.964-1.714c.128-.07.137-.184.029-.25l-2.832-1.638a.48.48 0 0 0-.434 0l-2.965 1.709c-.122.075-.137.184 0 .25l2.832 1.638a.48.48 0 0 0 .406.005m53.143-30.68 2.964-1.714c.127-.07.137-.184 0-.25l-2.832-1.638a.47.47 0 0 0-.43 0l-2.964 1.714c-.127.07-.137.184-.028.25l2.832 1.638a.5.5 0 0 0 .458 0m-8.388.16 2.964-1.713c.128-.071.137-.184.029-.246l-2.832-1.637a.47.47 0 0 0-.434 0l-2.965 1.708c-.122.076-.136.184-.023.25l2.832 1.638a.47.47 0 0 0 .429 0m4.489-6.098a.47.47 0 0 0-.429 0l-2.969 1.709c-.123.075-.137.184-.024.25l2.832 1.638a.47.47 0 0 0 .43 0l2.964-1.714c.127-.071.137-.184.028-.245zm.911-.529 6.891 3.979a.47.47 0 0 0 .43 0l2.964-1.713c.127-.076.137-.184.024-.25l-6.887-3.97a.47.47 0 0 0-.43 0l-2.968 1.709c-.123.071-.137.179-.024.245m-10.011 5.546-2.964 1.714c-.128.07-.137.184-.024.245l2.832 1.638a.47.47 0 0 0 .43 0l2.964-1.713c.127-.071.137-.185.028-.246l-2.832-1.638a.48.48 0 0 0-.434 0m-32.611 18.828-2.968 1.714c-.123.071-.137.184-.024.25l2.832 1.633a.47.47 0 0 0 .429 0l2.965-1.709c.127-.075.136-.184.028-.25l-2.832-1.638a.47.47 0 0 0-.43 0m40.843-15.392a.5.5 0 0 0 .434 0l2.964-1.713c.123-.071.137-.184 0-.25l-2.832-1.638a.47.47 0 0 0-.43 0l-2.964 1.713c-.127.071-.137.185-.028.251zm-36.51 12.891-2.945 1.713c-.123.071-.137.184 0 .25l2.832 1.633a.47.47 0 0 0 .43 0l2.964-1.708c.127-.076.141-.184.028-.25l-2.832-1.638a.46.46 0 0 0-.477 0m-33.984 27.796a.47.47 0 0 0 .435 0l2.964-1.714c.123-.07.137-.184.023-.245l-2.832-1.638a.47.47 0 0 0-.43 0l-2.963 1.714c-.128.07-.137.184-.029.245zm-5.036-5.277-2.964 1.709c-.127.075-.137.184-.028.25l2.832 1.638a.47.47 0 0 0 .43 0l2.968-1.714c.123-.071.137-.184.024-.245l-2.832-1.638a.47.47 0 0 0-.411 0zm9.823 2.742 2.964-1.713c.127-.071.136-.184.023-.246l-2.832-1.637a.47.47 0 0 0-.43 0l-2.963 1.708c-.128.076-.137.184-.029.25l2.832 1.638a.47.47 0 0 0 .434 0m4.332-2.501 2.965-1.714c.127-.071.136-.184 0-.245l-2.832-1.638a.47.47 0 0 0-.43 0l-2.964 1.709c-.128.075-.137.184-.024.25l2.832 1.638a.47.47 0 0 0 .453.018zm4.333-2.502 2.965-1.713c.127-.071.136-.184 0-.246l-2.832-1.638a.48.48 0 0 0-.43 0l-2.964 1.709c-.128.076-.137.184-.024.25l2.832 1.638a.47.47 0 0 0 .453.019zm-14.16-.26-2.964 1.709c-.127.076-.137.184-.028.25l2.832 1.638a.47.47 0 0 0 .434 0l2.964-1.713c.123-.071.137-.184.024-.25l-2.832-1.634a.48.48 0 0 0-.406.019zm4.333-2.501-2.964 1.708c-.127.076-.137.185-.028.251l2.832 1.637a.47.47 0 0 0 .434 0l2.964-1.713c.123-.071.137-.184 0-.25l-2.832-1.638a.47.47 0 0 0-.368.024zm17.332-10.011-2.94 1.727c-.128.071-.137.184 0 .25l2.832 1.638a.47.47 0 0 0 .429 0l2.964-1.713c.128-.076.137-.184.029-.25l-2.832-1.638a.5.5 0 0 0-.458.005zm-4.333 2.501-2.964 1.714c-.127.07-.137.184 0 .25l2.832 1.638a.47.47 0 0 0 .43 0l2.964-1.714c.127-.075.137-.184.023-.25l-2.832-1.638a.5.5 0 0 0-.429.019zm8.666-5.003-2.964 1.713c-.123.071-.137.185-.024.251l2.832 1.637a.47.47 0 0 0 .43 0l2.964-1.708c.127-.076.137-.184.028-.25l-2.832-1.638a.465.465 0 0 0-.41.014zm-17.332 10.006-2.964 1.714c-.127.075-.137.184-.023.25l2.831 1.638a.47.47 0 0 0 .43 0l2.964-1.714c.128-.07.137-.184 0-.25l-2.832-1.638a.5.5 0 0 0-.193-.031.5.5 0 0 0-.19.05zm4.333-2.501-2.964 1.713c-.127.076-.137.184-.023.25l2.832 1.638a.47.47 0 0 0 .429 0l2.992-1.685c.128-.071.137-.184.024-.25l-2.832-1.638a.47.47 0 0 0-.434 0zm-5.532 16.298 2.965-1.713c.127-.071.141-.184.028-.25l-2.832-1.638a.47.47 0 0 0-.43 0l-2.964 1.708c-.127.076-.141.184-.028.25l2.832 1.638a.47.47 0 0 0 .453.024zm-22.85-1.081-2.831-1.638a.47.47 0 0 0-.43 0l-2.945 1.747c-.127.071-.137.184-.028.25l2.832 1.638a.5.5 0 0 0 .434 0l2.964-1.714c.128-.085.142-.198.028-.264zm5.665 1.416-2.832-1.638a.47.47 0 0 0-.43 0L68.325 181c-.123.071-.137.184 0 .246l2.832 1.637a.47.47 0 0 0 .43 0l4.56-2.633c.112-.048.127-.161.013-.222zm-9.884-4.654-2.832-1.638a.47.47 0 0 0-.43 0l-3.648 2.11c-.127.071-.137.184-.028.246l2.832 1.638a.48.48 0 0 0 .434 0l3.649-2.106c.132-.051.146-.16.033-.226zm2.8-1.614a.47.47 0 0 0 .429 0l2.964-1.713c.127-.071.137-.184.028-.251l-2.832-1.637a.5.5 0 0 0-.434 0l-2.96 1.76c-.122.076-.136.184 0 .25zm12.271 7.948-2.832-1.637a.47.47 0 0 0-.43 0l-5.701 3.304c-.128.075-.137.184-.028.25l2.832 1.638a.48.48 0 0 0 .434 0l5.702-3.304c.136-.052.15-.161.037-.227zm2.002 3.526-2.833-1.638a.48.48 0 0 0-.434 0l-3.648 2.106c-.123.07-.137.184-.024.25l2.832 1.638a.47.47 0 0 0 .43 0l3.648-2.11c.142-.047.151-.161.043-.222zm17.935-30.076a.48.48 0 0 0 .43 0l2.964-1.713c.128-.071.137-.184.028-.25l-2.832-1.638a.5.5 0 0 0-.434 0l-2.964 1.713c-.123.076-.137.185-.023.251zm-8.666 5.004a.47.47 0 0 0 .43 0l2.964-1.714c.128-.07.137-.184.028-.25l-2.832-1.638a.48.48 0 0 0-.434 0l-2.964 1.709c-.127.075-.137.184 0 .25zm-19.22 11.096a.47.47 0 0 0 .43 0l2.964-1.713c.128-.071.137-.184.029-.25l-2.832-1.638a.5.5 0 0 0-.434 0l-2.965 1.713c-.122.071-.137.184 0 .251zm23.554-13.598a.47.47 0 0 0 .429 0l2.964-1.713c.128-.071.137-.184.028-.25l-2.832-1.638a.47.47 0 0 0-.434 0l-2.964 1.708c-.123.076-.137.184-.023.251zm-8.666 5.003a.47.47 0 0 0 .43 0l2.963-1.713c.128-.071.137-.184.024-.25l-2.832-1.638a.47.47 0 0 0-.43 0l-2.964 1.709c-.127.075-.137.184 0 .25zm-2.832 22.746a.47.47 0 0 0-.43 0l-4.56 2.634c-.127.071-.136.184-.028.245l2.832 1.638a.47.47 0 0 0 .434 0l4.56-2.634c.127-.071.137-.184 0-.245zm-3.403-19.154a.47.47 0 0 0 .429 0l2.964-1.713c.128-.076.142-.184.028-.25l-2.831-1.638a.47.47 0 0 0-.43 0l-2.964 1.713c-.128.071-.142.184-.028.25zm-4.334 2.502a.47.47 0 0 0 .43 0l2.964-1.714c.128-.075.142-.184.028-.25l-2.831-1.638a.47.47 0 0 0-.43 0l-2.969 1.714c-.123.071-.137.184-.024.25zm88.052-29.675a.47.47 0 0 0-.429 0l-7.298 4.21c-.127.076-.136.184-.028.251l2.832 1.637a.47.47 0 0 0 .434 0l7.321-4.215c.123-.07.137-.184.024-.245zm-9.577 5.527a.47.47 0 0 0-.429 0l-2.969 1.709c-.123.075-.137.184-.024.25l2.832 1.638a.47.47 0 0 0 .43 0l2.964-1.713c.127-.071.137-.185.028-.251zm-58.49 32.601 2.969-1.713c.123-.071.137-.184 0-.25l-2.832-1.638a.47.47 0 0 0-.43 0l-2.964 1.713c-.127.076-.137.184-.028.25l2.832 1.638a.47.47 0 0 0 .453 0m49.824-27.598a.48.48 0 0 0-.434 0l-2.964 1.709c-.128.076-.137.184 0 .25l2.832 1.638a.47.47 0 0 0 .429 0l2.965-1.713c.127-.071.136-.184.028-.25zm22.576-13.031a.47.47 0 0 0-.429 0l-2.96 1.722c-.127.076-.137.184-.024.251l2.832 1.637a.47.47 0 0 0 .435 0l2.964-1.713c.127-.071.137-.184.023-.245zm7.17-.864-6.887-3.979a.47.47 0 0 0-.429 0l-2.969 1.713c-.123.071-.137.184-.024.246l6.891 3.979a.48.48 0 0 0 .43 0l2.964-1.714c.128-.071.137-.184.024-.245m-45.959 23.246a.47.47 0 0 0-.429 0l-3.654 2.11c-.122.07-.137.184 0 .245l2.832 1.638a.47.47 0 0 0 .43 0l3.648-2.105c.128-.076.142-.184.029-.25zm10.946-6.32a.47.47 0 0 0-.43 0l-4.559 2.633c-.128.076-.137.185-.029.251l2.832 1.637a.48.48 0 0 0 .43 0l4.564-2.633c.128-.076.137-.184.024-.25zm-20.981 12.116a.47.47 0 0 0-.429 0l-24.407 14.089c-.123.071-.137.184 0 .25l2.832 1.638a.47.47 0 0 0 .43 0l24.402-14.089c.127-.071.137-.184.028-.245zm-25.77 14.877a.48.48 0 0 0-.435 0l-3.649 2.11c-.127.071-.137.184-.023.246l2.832 1.638a.47.47 0 0 0 .43 0l3.648-2.106c.127-.075.137-.184.028-.25zm30.788-17.775a.47.47 0 0 0-.43 0l-3.653 2.105c-.123.076-.137.184 0 .25l2.832 1.638a.47.47 0 0 0 .429 0l3.649-2.105c.127-.076.137-.184.028-.25zm-35.81 20.673a.48.48 0 0 0-.43 0l-3.63 2.129c-.128.076-.137.184-.024.25l2.832 1.638a.47.47 0 0 0 .43 0l3.648-2.105c.128-.075.137-.184.024-.25zm45.844-26.465a.47.47 0 0 0-.429 0l-3.644 2.12c-.123.071-.137.184 0 .25l2.832 1.638a.47.47 0 0 0 .43 0l3.648-2.105c.128-.071.142-.184.029-.251zm15.51-8.968a.48.48 0 0 0-.434 0l-2.964 1.709c-.123.076-.137.184-.024.25l2.832 1.638a.47.47 0 0 0 .43 0l2.964-1.713c.127-.071.137-.184.028-.25zm9.705-6.773 2.964-1.708c.127-.076.137-.184.028-.251l-2.832-1.637a.47.47 0 0 0-.434 0l-2.964 1.713c-.123.071-.137.184-.024.245l2.832 1.638a.47.47 0 0 0 .449.01zm-17.681.855 2.964-1.714c.122-.071.137-.184 0-.25l-2.832-1.638a.47.47 0 0 0-.43 0l-2.964 1.714c-.127.075-.137.184-.028.25l2.832 1.638a.5.5 0 0 0 .476.009zm-11.513 16 8.666-5.003c.128-.071.137-.184.029-.25l-2.832-1.638a.47.47 0 0 0-.434 0l-8.666 5.003c-.123.071-.137.184-.024.246l2.832 1.638a.47.47 0 0 0 .448.014zm24.45-14.33a.47.47 0 0 0 .43 0l2.964-1.708c.127-.076.137-.184.028-.25l-2.832-1.638a.47.47 0 0 0-.434 0l-2.988 1.713c-.123.071-.137.184-.023.246zm-3.62-2.36 2.964-1.713c.123-.071.137-.184.024-.25l-2.832-1.638a.47.47 0 0 0-.43 0l-2.964 1.713c-.128.076-.137.185-.028.251l2.832 1.637a.47.47 0 0 0 .434.01zm-25.144 19.201 2.965-1.708c.127-.076.136-.184.028-.25l-2.832-1.638a.47.47 0 0 0-.434 0l-2.965 1.713c-.122.071-.136.184-.023.246l2.832 1.637a.47.47 0 0 0 .429 0m19.182-11.328a.47.47 0 0 0 .435 0l2.964-1.713c.123-.071.137-.184.023-.245l-2.832-1.638a.47.47 0 0 0-.429 0l-2.964 1.713c-.128.071-.137.184-.029.246zm-40.846 23.822 2.964-1.713c.122-.076.137-.184.023-.25l-2.832-1.638a.47.47 0 0 0-.429 0l-2.964 1.713c-.128.071-.137.184-.029.25l2.832 1.638a.5.5 0 0 0 .435.019zm4.333-2.501 2.964-1.714c.127-.075.137-.184 0-.25l-2.832-1.638a.47.47 0 0 0-.43 0l-2.964 1.714c-.127.07-.137.184-.028.25l2.832 1.638a.5.5 0 0 0 .226.065.5.5 0 0 0 .232-.046zm-8.657 5.022 2.964-1.714c.123-.07.137-.184.024-.25l-2.832-1.638a.47.47 0 0 0-.43 0l-2.964 1.714c-.127.071-.137.184-.028.25l2.832 1.638a.51.51 0 0 0 .434 0m17.322-10.011 2.965-1.709c.127-.076.137-.184.023-.25l-2.832-1.638a.47.47 0 0 0-.429 0l-2.964 1.713c-.128.071-.137.184-.024.25l2.832 1.638a.48.48 0 0 0 .429-.004m-4.332 2.501 2.964-1.708c.127-.076.137-.185 0-.251l-2.832-1.637a.47.47 0 0 0-.43 0l-2.945 1.708c-.128.071-.137.184-.024.25l2.832 1.638a.47.47 0 0 0 .435 0m8.665-5.003 2.965-1.709c.127-.075.136-.184.028-.25l-2.832-1.638a.48.48 0 0 0-.434 0l-2.974 1.728c-.127.071-.137.184 0 .245l2.832 1.643a.47.47 0 0 0 .415-.019m23.657-34.805a.47.47 0 0 0 .43 0l2.964-1.709c.127-.075.137-.184.028-.25l-.755-.434a.47.47 0 0 0-.43 0l-2.969 1.708c-.122.076-.136.184-.023.25zm-21.537 13.641a.47.47 0 0 0 .429 0l2.964-1.714c.128-.075.137-.184.029-.25l-2.832-1.638a.51.51 0 0 0-.435 0l-2.964 1.714c-.127.07-.137.184 0 .25zm8.656-4.985a.47.47 0 0 0 .43 0l2.964-1.708c.127-.076.137-.185.028-.251l-2.832-1.637a.47.47 0 0 0-.434 0l-2.969 1.708c-.123.071-.137.184-.024.25zm-13.957 8.024a.47.47 0 0 0 .43 0l2.964-1.713c.127-.071.137-.184 0-.25l-2.832-1.638a.47.47 0 0 0-.434 0l-2.941 1.713c-.127.076-.137.184-.024.25zm9.624-5.555a.47.47 0 0 0 .43 0l2.964-1.714c.127-.075.137-.184.028-.25l-2.832-1.638a.48.48 0 0 0-.434 0l-2.964 1.714c-.123.071-.137.184 0 .25zm-18.294 10.558a.47.47 0 0 0 .434 0l2.978-1.699c.128-.071.137-.184.024-.245l-2.856-1.643a.47.47 0 0 0-.429 0l-2.965 1.709c-.127.075-.136.184 0 .25zm4.337-2.501a.47.47 0 0 0 .43 0l2.964-1.714c.127-.07.137-.184 0-.245l-2.832-1.638a.47.47 0 0 0-.43 0l-2.945 1.723c-.127.075-.137.184-.024.25zm22.496-14.189a.47.47 0 0 0 .429 0l2.964-1.708c.128-.076.137-.184.029-.25l-.755-.435a.49.49 0 0 0-.435 0l-2.964 1.714c-.123.071-.137.184-.023.245zm12.999-7.509a.47.47 0 0 0 .429 0l2.964-1.709c.128-.075.142-.184.029-.25l-.756-.434a.47.47 0 0 0-.429 0l-2.969 1.709c-.123.075-.137.184-.024.25zm5.956 3.441a.47.47 0 0 0 .434 0l2.974-1.709c.128-.075.137-.184 0-.25l-2.832-1.638a.47.47 0 0 0-.429 0l-2.965 1.714c-.127.07-.136.184-.023.245zm8.256 9.506 2.964-1.709c.127-.075.141-.184.028-.25l-2.832-1.638a.47.47 0 0 0-.43 0l-2.968 1.714c-.123.07-.137.184 0 .245l2.832 1.638q.095.048.201.053.106.003.205-.039zm-22.878-7.911a.47.47 0 0 0 .429 0l2.964-1.708c.128-.076.137-.185.029-.251l-.756-.434a.47.47 0 0 0-.434 0l-2.964 1.714c-.123.07-.137.184-.024.245zm-35.499 21.712a.47.47 0 0 0 .434 0l2.964-1.713c.127-.071.137-.184.024-.246l-2.832-1.637a.48.48 0 0 0-.43 0l-2.964 1.708c-.128.076-.137.184-.028.25z" opacity=".1"/><path fill="#000" fill-opacity=".8" d="m120.335 173.915.609.35 16.147 9.322 28.716-16.582.6-.34-16.756-9.671z" opacity=".4"/><path fill="#455A64" d="m120.944 174.264 16.147 9.322 28.716-16.581-16.156-9.317z"/><path fill="#000" fill-opacity=".8" d="m120.944 174.264 16.147 9.322 28.716-16.581-16.156-9.317z" opacity=".45"/><path fill="#455A64" d="M37.532 170.895q.391.221.821.349a3.7 3.7 0 0 1-.821-.344 2 2 0 0 1-.25-.166 3 3 0 0 0 .25.161M42.19 171.144l.043-.033-.028.029z"/><path fill="#F7921E" d="M132.736 117.737v4.261l-73.868 42.648-2.291 1.306a3.97 3.97 0 0 1-1.737-3.139v-71.82a.77.77 0 0 1 .106-.362.8.8 0 0 1 .266-.28l16.833-9.718c.206-.119 1.407.385 1.604.504l.128.073q.168.106.293.262c.097.1.17.22.216.352l1.525 4.404 54.836-32.641a.82.82 0 0 1 .719 0l1.017.59c.109.067.199.16.262.27.067.113.105.24.11.372v62.918z"/><path fill="#000" d="M132.736 117.737v4.261l-73.868 42.648-2.291 1.306a3.97 3.97 0 0 1-1.737-3.139v-71.82a.77.77 0 0 1 .106-.362.8.8 0 0 1 .266-.28l16.833-9.718c.206-.119 1.407.385 1.604.504l.128.073q.168.106.293.262c.097.1.17.22.216.352l1.525 4.404 54.836-32.641a.82.82 0 0 1 .719 0l1.017.59c.109.067.199.16.262.27.067.113.105.24.11.372v62.918z" opacity=".5"/><path fill="#F7921E" d="m132.736 121.997-76.14 43.954V91.565l17.493-10.08q.146.152.215.353l1.526 4.403.288.834 56.504-32.628c.067.113.105.24.11.371z"/><path fill="#000" d="m132.736 121.997-76.14 43.954V91.565l17.493-10.08q.146.152.215.353l1.526 4.403.288.834 56.504-32.628c.067.113.105.24.11.371z" opacity=".35"/><path fill="#F7921E" d="m74.089 81.474-17.494 10.08-1.631-.916a.8.8 0 0 1 .266-.28l16.838-9.718a.79.79 0 0 1 .728 0l1 .577q.167.105.292.257"/><path fill="#000" d="m74.089 81.474-17.494 10.08-1.631-.916a.8.8 0 0 1 .266-.28l16.838-9.718a.79.79 0 0 1 .728 0l1 .577q.167.105.292.257" opacity=".2"/><path fill="#F7921E" d="M132.622 54.435 76.123 87.062l-.288-.834 54.812-32.645a.85.85 0 0 1 .719 0l1.018.59a.74.74 0 0 1 .238.262"/><path fill="#000" d="M132.622 54.435 76.123 87.062l-.288-.834 54.812-32.645a.85.85 0 0 1 .719 0l1.018.59a.74.74 0 0 1 .238.262" opacity=".2"/><path fill="#FAFAFA" d="M78.318 146.452a1.87 1.87 0 0 1-.82-1.484V71.37a1.93 1.93 0 0 1 .875-1.517L125.24 42.82a1.643 1.643 0 0 1 2.314.595c.144.262.214.559.202.858v73.598a1.93 1.93 0 0 1-.875 1.516L80.013 146.42a1.88 1.88 0 0 1-1.695.032"/><path fill="#F0F0F0" d="m80.013 146.422 46.867-27.033a1.93 1.93 0 0 0 .876-1.517V44.274c0-.559-.39-.783-.876-.508L80.013 70.799a1.94 1.94 0 0 0-.875 1.516v73.603c0 .559.394.783.875.504"/><path fill="#E0E0E0" d="m84.778 73.725 36.22-20.916c.426-.248.774-.046.774.458v.307a1.72 1.72 0 0 1-.774 1.338l-36.22 20.911c-.426.248-.774.05-.77-.458v-.307a1.7 1.7 0 0 1 .77-1.333M84.778 78.94l36.22-20.916c.426-.243.774-.046.774.458v.307a1.7 1.7 0 0 1-.774 1.333l-36.22 20.907c-.426.247-.774.046-.77-.458v-.307a1.7 1.7 0 0 1 .77-1.324M84.778 84.152l36.22-20.912c.426-.247.774-.046.774.459v.306a1.73 1.73 0 0 1-.774 1.338l-36.22 20.912c-.426.247-.774.046-.77-.458v-.307a1.71 1.71 0 0 1 .77-1.338M84.778 89.371l36.22-20.916c.426-.243.774-.046.774.458v.312a1.72 1.72 0 0 1-.774 1.333l-36.22 20.916c-.426.243-.774.046-.77-.458v-.312a1.7 1.7 0 0 1 .77-1.333M84.778 94.586l36.22-20.911c.426-.248.774-.05.774.458v.307a1.73 1.73 0 0 1-.774 1.338l-36.22 20.911c-.426.248-.774.046-.77-.458v-.311a1.71 1.71 0 0 1 .77-1.334M84.778 99.842l36.22-20.916c.426-.243.774-.046.774.458v.307a1.71 1.71 0 0 1-.774 1.333l-36.22 20.916c-.426.248-.774.046-.77-.458v-.307a1.7 1.7 0 0 1 .77-1.333M84.778 105.056l36.22-20.911c.426-.248.774-.046.774.458v.307a1.72 1.72 0 0 1-.774 1.338l-36.22 20.897c-.426.248-.774.051-.77-.458v-.307a1.71 1.71 0 0 1 .77-1.324M84.778 110.274l36.22-20.917c.426-.242.774-.045.774.459v.311a1.71 1.71 0 0 1-.774 1.334l-36.22 20.916c-.426.247-.774.045-.77-.459v-.307a1.71 1.71 0 0 1 .77-1.337M84.778 115.49l36.22-20.912c.426-.247.774-.046.774.458v.307a1.73 1.73 0 0 1-.774 1.338l-36.22 20.912c-.426.247-.774.046-.77-.458v-.307a1.7 1.7 0 0 1 .77-1.338M84.778 120.707l36.22-20.916c.426-.247.774-.046.774.458v.307a1.713 1.713 0 0 1-.774 1.338l-36.22 20.916c-.426.243-.774.046-.77-.458v-.316a1.7 1.7 0 0 1 .77-1.329M84.778 125.944l36.22-20.912c.426-.247.774-.05.774.458v.307a1.73 1.73 0 0 1-.774 1.338l-36.22 20.912c-.426.247-.774.046-.77-.458v-.307a1.7 1.7 0 0 1 .77-1.338M84.778 131.162l36.22-20.916c.426-.247.774-.046.774.458v.307a1.713 1.713 0 0 1-.774 1.338l-36.22 20.916c-.426.243-.774.046-.77-.458v-.307a1.69 1.69 0 0 1 .77-1.338M84.778 136.377l36.22-20.916c.426-.243.774-.046.774.458v.307a1.704 1.704 0 0 1-.774 1.333l-36.22 20.917c-.426.247-.774.045-.77-.459v-.307a1.7 1.7 0 0 1 .77-1.333M79.898 146.479a1.63 1.63 0 0 1-2.214-.684 1.63 1.63 0 0 1-.186-.828V71.369c.012-.304.1-.6.256-.861l1.64.948a1.75 1.75 0 0 0-.256.857v73.603c0 .513.334.742.76.563"/><path fill="#FAFAFA" d="M84.897 150.25a1.87 1.87 0 0 1-.82-1.484V75.168a1.94 1.94 0 0 1 .875-1.517l46.867-27.033a1.65 1.65 0 0 1 1.698-.033 1.65 1.65 0 0 1 .822 1.486v73.598a1.94 1.94 0 0 1-.875 1.516l-46.872 27.033a1.88 1.88 0 0 1-1.695.032"/><path fill="#F0F0F0" d="m86.592 150.219 46.873-27.033a1.95 1.95 0 0 0 .875-1.516V48.071c0-.559-.394-.783-.875-.504L86.592 74.6a1.94 1.94 0 0 0-.875 1.517v73.598c0 .559.394.783.875.504"/><path fill="#E0E0E0" d="m91.357 77.524 36.22-20.916c.426-.248.774-.046.774.458v.307a1.72 1.72 0 0 1-.774 1.338l-36.22 20.916c-.426.243-.77.046-.77-.459v-.306a1.7 1.7 0 0 1 .77-1.338M91.357 82.736l36.22-20.916c.426-.242.774-.045.774.459v.306a1.71 1.71 0 0 1-.774 1.334l-36.22 20.916c-.426.247-.77.046-.77-.458v-.307a1.7 1.7 0 0 1 .77-1.334M91.357 87.955l36.22-20.902c.426-.248.774-.046.774.458v.307a1.72 1.72 0 0 1-.774 1.338l-36.22 20.911c-.426.248-.77.05-.77-.458v-.307a1.7 1.7 0 0 1 .77-1.347M91.357 93.17l36.22-20.916c.426-.243.774-.046.774.458v.298a1.7 1.7 0 0 1-.774 1.333L91.357 95.26c-.426.248-.77.046-.77-.458v-.307a1.7 1.7 0 0 1 .77-1.324M91.357 98.384l36.22-20.911c.426-.248.774-.046.774.458v.307a1.73 1.73 0 0 1-.774 1.338l-36.22 20.911c-.426.248-.77.046-.77-.458v-.307a1.71 1.71 0 0 1 .77-1.338M91.357 103.639l36.22-20.911c.426-.248.774-.05.774.458v.307a1.7 1.7 0 0 1-.774 1.333l-36.22 20.916c-.426.247-.77.046-.77-.458v-.307a1.7 1.7 0 0 1 .77-1.338M91.357 108.858l36.22-20.916c.426-.248.774-.046.774.458v.307a1.72 1.72 0 0 1-.774 1.338l-36.22 20.902c-.426.243-.77.046-.77-.458v-.307a1.7 1.7 0 0 1 .77-1.324M91.357 114.072l36.22-20.902c.426-.243.774-.046.774.458v.307a1.7 1.7 0 0 1-.774 1.333l-36.22 20.917c-.426.247-.77.045-.77-.459v-.307a1.7 1.7 0 0 1 .77-1.347M91.357 119.285l36.22-20.912c.426-.247.774-.046.774.458v.293a1.72 1.72 0 0 1-.774 1.338l-36.22 20.912c-.426.247-.77.05-.77-.458v-.307a1.7 1.7 0 0 1 .77-1.324M91.357 124.504l36.22-20.916c.426-.243.774-.046.774.458v.312a1.71 1.71 0 0 1-.774 1.333l-36.22 20.925c-.426.248-.77.046-.77-.458v-.307a1.7 1.7 0 0 1 .77-1.347M91.357 129.742l36.22-20.912c.426-.247.774-.046.774.458v.307a1.73 1.73 0 0 1-.774 1.338l-36.22 20.912c-.426.247-.77.046-.77-.458v-.307a1.7 1.7 0 0 1 .77-1.338M91.357 134.961l36.22-20.916c.426-.247.774-.046.774.458v.307a1.713 1.713 0 0 1-.774 1.338l-36.22 20.916c-.426.243-.77.046-.77-.458v-.312a1.7 1.7 0 0 1 .77-1.333M91.357 140.175l36.22-20.889c.426-.247.774-.05.774.458v.307a1.73 1.73 0 0 1-.774 1.338l-36.22 20.912c-.426.247-.77.045-.77-.459v-.307a1.7 1.7 0 0 1 .77-1.36M86.478 150.278a1.633 1.633 0 0 1-2.4-1.512V75.168c.011-.304.1-.6.255-.861l1.645.948c-.16.258-.25.553-.261.857v73.603c0 .513.334.728.76.563"/><path fill="#F7921E" d="m148.282 63.197-12.206 52.884-1.127 4.861a5.6 5.6 0 0 1-2.332 3.157l-72.43 41.791a3.7 3.7 0 0 1-1.713.458 3.5 3.5 0 0 1-1.879-.394l.376-1.612c0-.051 0-.101.037-.156l.407-1.769 1.755-7.67 11.221-48.599a.7.7 0 0 1 .069-.179q.044-.083.096-.16v-.028q.118-.158.284-.266l61.855-35.71 13.535-7.817a.82.82 0 0 1 .747 0l.998.577a.63.63 0 0 1 .307.632"/><path fill="#000" d="m148.282 63.197-12.206 52.884-1.127 4.861a5.6 5.6 0 0 1-2.332 3.157l-72.43 41.791a3.7 3.7 0 0 1-1.713.458 3.5 3.5 0 0 1-1.879-.394l.376-1.612c0-.051 0-.101.037-.156l.407-1.769 1.755-7.67 11.221-48.599a.7.7 0 0 1 .069-.179q.044-.083.096-.16v-.028q.118-.158.284-.266l61.855-35.71 13.535-7.817a.82.82 0 0 1 .747 0l.998.577a.63.63 0 0 1 .307.632" opacity=".3"/><path fill="#F7921E" d="M148.296 63.086c0-.146-.119-.197-.284-.096l-75.399 43.527q-.167.103-.284.262l-1.736-1.004q.118-.159.284-.266l75.389-43.527a.83.83 0 0 1 .747 0l.999.577a.64.64 0 0 1 .284.527"/><path fill="#000" d="M148.296 63.086c0-.146-.119-.197-.284-.096l-75.399 43.527q-.167.103-.284.262l-1.736-1.004q.118-.159.284-.266l75.389-43.527a.83.83 0 0 1 .747 0l.999.577a.64.64 0 0 1 .284.527" opacity=".2"/><path fill="#F7921E" d="M72.33 106.783q-.072.1-.129.21-.031.076-.055.156l-10.73 46.474-2.246 9.796-.284 1.223-.394 1.7a3.5 3.5 0 0 1-1.878-.394l.376-1.613c0-.05 0-.101.036-.156l.408-1.768 1.736-7.666 11.221-48.599a.7.7 0 0 1 .07-.179 2 2 0 0 1 .095-.16v-.028z"/><path fill="#000" d="M72.33 106.783q-.072.1-.129.21-.031.076-.055.156l-10.73 46.474-2.246 9.796-.284 1.223-.394 1.7a3.5 3.5 0 0 1-1.878-.394l.376-1.613c0-.05 0-.101.036-.156l.408-1.768 1.736-7.666 11.221-48.599a.7.7 0 0 1 .07-.179 2 2 0 0 1 .095-.16v-.028z" opacity=".5"/><path fill="#F7921E" d="M59.253 161.467a.485.485 0 0 1 .229.527l-.614 2.653-.307 1.324a.46.46 0 0 1-.495.376 3.3 3.3 0 0 1-1.47-.394 3.97 3.97 0 0 1-1.737-3.139v-3.047a.487.487 0 0 1 .724-.421l.774.458a.49.49 0 0 1 .238.417v1.516a.483.483 0 0 0 .765.407.48.48 0 0 0 .188-.297l.129-.563a.482.482 0 0 1 .71-.307z"/><path fill="#000" d="M59.253 161.467a.485.485 0 0 1 .229.527l-.614 2.653-.307 1.324a.46.46 0 0 1-.495.376 3.3 3.3 0 0 1-1.47-.394 3.97 3.97 0 0 1-1.737-3.139v-3.047a.487.487 0 0 1 .724-.421l.774.458a.49.49 0 0 1 .238.417v1.516a.483.483 0 0 0 .765.407.48.48 0 0 0 .188-.297l.129-.563a.482.482 0 0 1 .71-.307z" opacity=".5"/><path fill="#FAFAFA" d="M91.481 154.049a1.87 1.87 0 0 1-.82-1.484V78.967a1.92 1.92 0 0 1 .875-1.512L138.4 50.422a1.642 1.642 0 0 1 2.516 1.452v73.594a1.93 1.93 0 0 1-.875 1.516l-46.863 27.033a1.88 1.88 0 0 1-1.696.032"/><path fill="#F0F0F0" d="m93.177 154.02 46.863-27.033a1.93 1.93 0 0 0 .875-1.516V51.868c0-.559-.389-.784-.875-.509L93.177 78.392a1.93 1.93 0 0 0-.875 1.517v73.603c0 .559.39.783.875.508"/><path fill="#E0E0E0" d="M93.076 154.078a1.84 1.84 0 0 1-1.581-.028 1.87 1.87 0 0 1-.82-1.48V78.968c.012-.306.1-.604.256-.866l1.64.948c-.158.26-.246.557-.256.861v73.608c-.014.508.303.742.76.559M99.957 74.485l32.911-18.987v7.588l-32.911 19zM97.108 86.873l10.629-6.144c.243-.142.459-.042.459.22a.92.92 0 0 1-.459.728l-10.63 6.144c-.242.142-.458.041-.458-.22a.92.92 0 0 1 .459-.728M97.108 88.775l10.629-6.144c.243-.142.459-.041.459.22a.95.95 0 0 1-.459.728l-10.63 6.145c-.242.137-.458.04-.458-.225a.92.92 0 0 1 .459-.724M97.108 90.673l10.629-6.144c.243-.137.459-.041.459.225a.95.95 0 0 1-.459.728l-10.63 6.144c-.242.138-.458.042-.458-.224a.95.95 0 0 1 .459-.729M97.108 92.576l10.629-6.144c.243-.138.459-.042.459.22a.92.92 0 0 1-.459.728l-10.63 6.144c-.242.142-.458.042-.458-.22a.95.95 0 0 1 .459-.728M125.675 80.832l10.644-6.144c.243-.142.435-.042.435.22a.94.94 0 0 1-.435.728l-10.644 6.144c-.242.142-.458.041-.458-.22a.92.92 0 0 1 .458-.728M125.675 82.727l10.644-6.144c.243-.138.435-.037.435.225a.94.94 0 0 1-.435.728l-10.644 6.144c-.242.138-.458.041-.458-.224a.94.94 0 0 1 .458-.729M125.675 84.627l10.644-6.121c.243-.138.435-.041.435.224a.91.91 0 0 1-.435.724l-10.644 6.144c-.242.142-.458.042-.458-.22a.951.951 0 0 1 .458-.751M125.675 86.531l10.644-6.144c.243-.142.435-.041.435.22a.91.91 0 0 1-.435.728l-10.644 6.145c-.242.141-.458.04-.458-.22a.92.92 0 0 1 .458-.729M97.108 145.779l40.26-23.244c.243-.142.458-.041.458.22a.9.9 0 0 1-.458.729l-40.26 23.248c-.243.137-.459.037-.459-.225a.95.95 0 0 1 .459-.728M97.108 147.695l40.26-23.249c.243-.137.458-.036.458.225a.93.93 0 0 1-.458.728l-40.26 23.212c-.243.142-.459.041-.459-.22a.92.92 0 0 1 .459-.696M122.995 71.923l13.15-7.62c.238-.137.435-.036.435.225a.96.96 0 0 1-.435.729l-13.15 7.62c-.243.137-.435.04-.435-.225a.94.94 0 0 1 .435-.729M122.995 73.824l13.15-7.602c.238-.137.435-.04.435.225a.96.96 0 0 1-.435.729l-13.15 7.596c-.243.142-.435.041-.435-.22a.94.94 0 0 1 .435-.728M122.995 75.726l13.15-7.6c.238-.143.435-.042.435.219a.91.91 0 0 1-.435.728l-13.15 7.602c-.243.142-.435.041-.435-.22a.91.91 0 0 1 .435-.729M122.995 77.629l13.15-7.602c.238-.142.435-.04.435.22a.952.952 0 0 1-.435.728l-13.15 7.602c-.243.138-.435.041-.435-.224a.91.91 0 0 1 .435-.724"/><path fill="#F7921E" d="m96.668 107.08 41.14-23.752v.949l-41.14 23.752z"/><path fill="#000" d="m96.668 107.08 41.14-23.752v.949l-41.14 23.752z" opacity=".2"/><path fill="#F7921E" d="m96.668 131.782 41.14-23.753v.949l-41.14 23.752z"/><path fill="#000" d="m96.668 131.782 41.14-23.753v.949l-41.14 23.752z" opacity=".2"/><path fill="#F7921E" d="m96.668 109.931 14.808-8.554v1.901l-14.808 8.55zM114.771 99.48l6.579-3.802v1.901l-6.579 3.799zM122.995 94.727l6.584-3.803v1.901l-6.584 3.803zM131.224 89.976l6.584-3.798v1.897l-6.584 3.802z"/><path fill="#E6E6E6" d="m96.668 115.629 41.14-23.752v3.798l-41.14 23.753zM96.668 123.231l41.14-23.752v3.798l-41.14 23.752z"/><path fill="#455A64" d="M98.313 113.083a.307.307 0 0 1-.151-.568l11.518-6.649a.32.32 0 0 1 .231-.029q.057.016.106.052a.306.306 0 0 1-.034.504l-11.52 6.649a.3.3 0 0 1-.15.041M116.415 101.815a.21.21 0 0 1-.178-.101.2.2 0 0 1-.026-.075.19.19 0 0 1 .103-.2l4.935-2.85a.2.2 0 0 1 .275.074.2.2 0 0 1 .024.153.2.2 0 0 1-.097.122l-4.935 2.85a.2.2 0 0 1-.101.027M116.415 103.177a.2.2 0 0 1-.102-.028.2.2 0 0 1-.076-.073.2.2 0 0 1-.026-.076.2.2 0 0 1 .104-.203l4.934-2.85a.203.203 0 0 1 .275.073.2.2 0 0 1 .029.075.2.2 0 0 1-.004.081.2.2 0 0 1-.036.072.2.2 0 0 1-.062.052l-4.935 2.85a.2.2 0 0 1-.101.027M124.645 97.777a.2.2 0 0 1-.179-.1.202.202 0 0 1 .073-.275l4.939-2.86a.2.2 0 0 1 .275.074.2.2 0 0 1 .02.152.2.2 0 0 1-.093.123l-4.935 2.859a.2.2 0 0 1-.1.027M132.869 93.027a.19.19 0 0 1-.174-.1.202.202 0 0 1 .073-.275l4.939-2.85a.2.2 0 0 1 .232.005.2.2 0 0 1 .055.061.2.2 0 0 1 .018.16.2.2 0 0 1-.039.071.2.2 0 0 1-.064.05l-4.939 2.855a.2.2 0 0 1-.101.023M98.313 116.886a.305.305 0 0 1-.275-.421.3.3 0 0 1 .123-.148l8.248-4.751a.305.305 0 0 1 .445.342.308.308 0 0 1-.143.185l-8.247 4.751a.3.3 0 0 1-.151.042M116.415 105.62a.21.21 0 0 1-.178-.1.207.207 0 0 1 .077-.28l4.935-2.85a.201.201 0 0 1 .275.074.2.2 0 0 1 .028.075.195.195 0 0 1-.04.152.2.2 0 0 1-.061.052l-4.935 2.85a.2.2 0 0 1-.101.027M116.415 106.975a.21.21 0 0 1-.178-.101.2.2 0 0 1-.026-.075.19.19 0 0 1 .103-.2l4.935-2.85a.2.2 0 0 1 .275.074.2.2 0 0 1 .024.153.2.2 0 0 1-.036.071.2.2 0 0 1-.061.051l-4.935 2.849a.2.2 0 0 1-.101.028M124.644 101.583a.2.2 0 0 1-.178-.101.207.207 0 0 1 .073-.279l4.939-2.85a.202.202 0 0 1 .296.228.2.2 0 0 1-.094.125l-4.935 2.85a.2.2 0 0 1-.101.027M132.869 96.835a.2.2 0 0 1-.174-.1.2.2 0 0 1-.021-.155.2.2 0 0 1 .094-.125l4.939-2.85a.2.2 0 0 1 .275.073.2.2 0 0 1 .021.155.2.2 0 0 1-.094.125l-4.939 2.85a.2.2 0 0 1-.101.027M98.313 120.686a.31.31 0 0 1-.275-.421.3.3 0 0 1 .123-.148l13.164-7.601a.3.3 0 0 1 .232-.028.302.302 0 0 1 .071.555l-13.164 7.62a.3.3 0 0 1-.151.023M116.415 109.419a.2.2 0 0 1-.102-.028.2.2 0 0 1-.076-.073.2.2 0 0 1-.026-.075.2.2 0 0 1 .042-.15.2.2 0 0 1 .061-.05l4.935-2.85a.204.204 0 0 1 .275.073.2.2 0 0 1 .024.154.2.2 0 0 1-.097.121l-4.935 2.85a.2.2 0 0 1-.101.028M116.415 110.778a.2.2 0 0 1-.102-.027.197.197 0 0 1-.102-.149.2.2 0 0 1 .005-.081.2.2 0 0 1 .099-.123l4.934-2.85a.205.205 0 0 1 .278.076.2.2 0 0 1 .019.154.2.2 0 0 1-.095.123l-4.935 2.85a.2.2 0 0 1-.101.027M124.645 105.381a.2.2 0 0 1-.179-.101.203.203 0 0 1 .073-.275l4.939-2.849a.19.19 0 0 1 .154-.025q.04.011.071.036a.2.2 0 0 1 .05.062.2.2 0 0 1 .02.152.2.2 0 0 1-.093.123l-4.935 2.85a.2.2 0 0 1-.1.027M132.869 100.631a.2.2 0 0 1-.194-.15.204.204 0 0 1 .093-.226l4.94-2.85a.2.2 0 0 1 .157-.029.204.204 0 0 1 .109.326.2.2 0 0 1-.065.051l-4.939 2.85a.2.2 0 0 1-.101.028M98.313 124.488a.31.31 0 0 1-.275-.421.3.3 0 0 1 .123-.148l6.585-3.803a.303.303 0 0 1 .414.113.304.304 0 0 1-.112.414l-6.584 3.803a.3.3 0 0 1-.151.042M116.415 113.22a.2.2 0 0 1-.102-.028.2.2 0 0 1-.076-.073.2.2 0 0 1-.026-.076.2.2 0 0 1 .104-.203l4.934-2.85a.2.2 0 0 1 .153-.02.2.2 0 0 1 .122.093.2.2 0 0 1 .029.075.2.2 0 0 1-.004.081.2.2 0 0 1-.036.072.2.2 0 0 1-.062.052l-4.935 2.85a.2.2 0 0 1-.101.027M116.415 114.576a.21.21 0 0 1-.178-.101.2.2 0 0 1-.026-.075.19.19 0 0 1 .103-.2l4.935-2.85a.2.2 0 0 1 .158-.028.2.2 0 0 1 .147.254.2.2 0 0 1-.039.072.2.2 0 0 1-.064.051l-4.935 2.85a.2.2 0 0 1-.101.027M124.644 109.206a.2.2 0 0 1-.103-.026.2.2 0 0 1-.075-.074.2.2 0 0 1-.021-.155.2.2 0 0 1 .094-.125l4.939-2.85a.204.204 0 0 1 .202.353l-4.935 2.85a.2.2 0 0 1-.101.027M132.869 104.433a.2.2 0 0 1-.174-.101.2.2 0 0 1-.021-.155.2.2 0 0 1 .094-.124l4.939-2.85a.2.2 0 0 1 .153-.02.2.2 0 0 1 .122.093.2.2 0 0 1 .021.155.2.2 0 0 1-.094.125l-4.939 2.849a.2.2 0 0 1-.101.028M98.313 128.285a.305.305 0 0 1-.151-.568l11.518-6.648a.3.3 0 0 1 .114-.047.306.306 0 0 1 .344.385.3.3 0 0 1-.059.108.3.3 0 0 1-.096.076l-11.52 6.653a.3.3 0 0 1-.15.041M116.415 117.017a.21.21 0 0 1-.178-.101.2.2 0 0 1-.026-.075.2.2 0 0 1 .042-.15.2.2 0 0 1 .061-.05l4.935-2.855a.21.21 0 0 1 .153-.022q.04.01.071.036a.2.2 0 0 1 .051.06.2.2 0 0 1 .024.153.2.2 0 0 1-.036.071.2.2 0 0 1-.061.051l-4.935 2.859a.2.2 0 0 1-.101.023M116.415 118.369a.2.2 0 0 1-.103-.029.2.2 0 0 1-.075-.076.2.2 0 0 1-.026-.075.2.2 0 0 1 .005-.08.195.195 0 0 1 .098-.12l4.935-2.827a.2.2 0 0 1 .153-.02.2.2 0 0 1 .122.093.196.196 0 0 1-.012.225.2.2 0 0 1-.061.05l-4.935 2.859a.2.2 0 0 1-.101 0M124.645 112.982a.2.2 0 0 1-.179-.1.2.2 0 0 1 .073-.275l4.939-2.855a.2.2 0 0 1 .075-.026.197.197 0 0 1 .2.104.2.2 0 0 1 .02.153.2.2 0 0 1-.093.122l-4.935 2.85a.2.2 0 0 1-.1.027M132.869 108.231a.2.2 0 0 1-.194-.15.2.2 0 0 1 .009-.128.2.2 0 0 1 .084-.098l4.94-2.85a.2.2 0 0 1 .074-.026.2.2 0 0 1 .149.039.207.207 0 0 1 .072.213.2.2 0 0 1-.094.122l-4.939 2.85a.2.2 0 0 1-.101.028M124.645 118.681a.2.2 0 0 1-.104-.025.2.2 0 0 1-.095-.228.2.2 0 0 1 .093-.122l4.939-2.85a.206.206 0 0 1 .232.005.2.2 0 0 1 .055.061.2.2 0 0 1 .026.078.2.2 0 0 1-.047.154.2.2 0 0 1-.064.05l-4.935 2.85a.2.2 0 0 1-.1.027M132.869 113.93a.2.2 0 0 1-.122-.042.2.2 0 0 1-.072-.108.204.204 0 0 1 .093-.226l4.94-2.85a.2.2 0 0 1 .157-.029.2.2 0 0 1 .075.034.21.21 0 0 1 .08.139.2.2 0 0 1-.046.154.2.2 0 0 1-.065.05l-4.934 2.85a.2.2 0 0 1-.106.028M124.645 120.583a.2.2 0 0 1-.179-.101.203.203 0 0 1 .073-.275l4.939-2.854a.2.2 0 0 1 .155-.02.2.2 0 0 1 .123.096.2.2 0 0 1 .019.154.2.2 0 0 1-.095.123l-4.935 2.85a.2.2 0 0 1-.1.027M132.869 115.832a.2.2 0 0 1-.185-.278.2.2 0 0 1 .084-.097l4.94-2.85a.19.19 0 0 1 .223.013.2.2 0 0 1 .052.06.2.2 0 0 1 .02.153.2.2 0 0 1-.094.122l-4.934 2.85a.2.2 0 0 1-.106.027"/><path fill="#F7921E" d="m137.808 114.682-26.332 15.198v5.699l26.332-15.198z"/><path fill="#FAFAFA" d="M116.411 128.378a.04.04 0 0 1 .027-.011q.016 0 .028.011a.1.1 0 0 1 0 .068v.459a.3.3 0 0 1 0 .096.1.1 0 0 1-.021.037.1.1 0 0 1-.034.027l-.495.289v2.222a.16.16 0 0 1 0 .091.2.2 0 0 1-.05.069l-.371.211a.04.04 0 0 1-.028.012l-.015-.003a.03.03 0 0 1-.012-.009.1.1 0 0 1 0-.069v-2.222l-.5.289a.04.04 0 0 1-.025.008.04.04 0 0 1-.025-.008.1.1 0 0 1-.023-.069v-.458a.24.24 0 0 1 .023-.096.16.16 0 0 1 .05-.069zM116.645 129.367q.008-.253.068-.499a2.1 2.1 0 0 1 .44-.866q.157-.184.367-.303a.8.8 0 0 1 .366-.119.4.4 0 0 1 .271.096.6.6 0 0 1 .174.271q.065.205.068.421v.77a2.2 2.2 0 0 1-.068.495 2.4 2.4 0 0 1-.174.458 2 2 0 0 1-.271.408 1.5 1.5 0 0 1-.366.302.8.8 0 0 1-.367.119.4.4 0 0 1-.27-.096.6.6 0 0 1-.17-.275 1.4 1.4 0 0 1-.068-.417v-.375c0-.133-.005-.257 0-.39m1.232.037v-.7290000000000001a1 1 0 0 0-.027-.183.3.3 0 0 0-.069-.119.15.15 0 0 0-.11-.041.3.3 0 0 0-.151.045.5.5 0 0 0-.151.129.813.813 0 0 0-.175.366 1.2 1.2 0 0 0-.032.216v.728c0 .109.033.214.097.303.059.064.146.059.261 0a.62.62 0 0 0 .261-.289q.084-.201.096-.417zM120.14 126.223a.1.1 0 0 1 .028-.008.05.05 0 0 1 .027.008.1.1 0 0 1 .023.069v.458a.215.215 0 0 1-.078.165l-.495.284v2.222a.3.3 0 0 1-.022.096.13.13 0 0 1-.055.064l-.367.211h-.055a.1.1 0 0 1 0-.068v-2.223l-.495.284a.05.05 0 0 1-.055 0 .1.1 0 0 1 0-.068v-.459a.3.3 0 0 1 0-.096.16.16 0 0 1 .055-.064zM121.313 125.546a.07.07 0 0 1 .087 0 .2.2 0 0 1 .042.073l.614 2.373v.06a.2.2 0 0 1 0 .078.14.14 0 0 1-.046.05l-.353.206q-.055.035-.083 0a.1.1 0 0 1-.027-.055l-.078-.311-.747.43-.082.404a.3.3 0 0 1-.028.091.2.2 0 0 1-.082.083l-.353.206a.03.03 0 0 1-.021.007.03.03 0 0 1-.02-.007.08.08 0 0 1 0-.055.2.2 0 0 1 0-.073l.614-3.084a.4.4 0 0 1 .041-.119.2.2 0 0 1 .082-.096zm-.458 2.158.458-.262-.229-.916zM123.673 126.525l.011-.009.014-.003q.008 0 .014.003l.012.009a.1.1 0 0 1 .022.069v.458a.3.3 0 0 1-.022.097.13.13 0 0 1-.051.064l-1.306.779-.011.009-.014.003-.014-.003-.011-.009a.078.078 0 0 1-.023-.069v-2.795a.2.2 0 0 1 .023-.096.2.2 0 0 1 .05-.069l.371-.211a.04.04 0 0 1 .026-.01.04.04 0 0 1 .025.01.1.1 0 0 1 .008.035.1.1 0 0 1-.008.034v2.222zM129.575 120.716a.46.46 0 0 1 .243 0 .35.35 0 0 1 .174.092.609.609 0 0 1 .151.362.2.2 0 0 1 0 .096.106.106 0 0 1-.055.064l-.197.115h-.073a.2.2 0 0 1-.042-.051.24.24 0 0 0-.128-.114.36.36 0 0 0-.256.069.655.655 0 0 0-.252.238.7.7 0 0 0-.078.156.5.5 0 0 0-.028.165.27.27 0 0 0 .028.142.1.1 0 0 0 .044.036.538.538 0 0 0 .235.014l.261-.06q.142-.036.289-.032a.3.3 0 0 1 .192.074q.078.074.106.178.036.148.032.298a1.5 1.5 0 0 1-.165.678 1.6 1.6 0 0 1-.197.307 1.6 1.6 0 0 1-.261.261v.294a.2.2 0 0 1-.023.096.15.15 0 0 1-.051.064l-.229.133a.047.047 0 0 1-.055 0 .1.1 0 0 1-.023-.069v-.293a.6.6 0 0 1-.238.032.35.35 0 0 1-.192-.064.4.4 0 0 1-.133-.161.7.7 0 0 1-.055-.27.2.2 0 0 1 0-.096.2.2 0 0 1 .055-.064l.197-.115c.032 0 .055-.023.073 0 .019.023.032.023.041.051q.021.045.051.087a.13.13 0 0 0 .073.055q.06.014.119 0a.6.6 0 0 0 .179-.078q.088-.047.165-.11a.8.8 0 0 0 .137-.147.7.7 0 0 0 .097-.169.5.5 0 0 0 .029-.259.2.2 0 0 0-.034-.062.2.2 0 0 0-.056-.029.694.694 0 0 0-.26.029l-.275.055a.7.7 0 0 1-.243 0 .28.28 0 0 1-.174-.073.4.4 0 0 1-.105-.184 1.2 1.2 0 0 1-.032-.316 1.3 1.3 0 0 1 .041-.339 1.7 1.7 0 0 1 .119-.325q.07-.159.179-.293.1-.134.224-.243v-.293a.3.3 0 0 1 .023-.097.13.13 0 0 1 .055-.064l.229-.133a.04.04 0 0 1 .025-.008q.014 0 .025.008.014.014.02.032a.1.1 0 0 1 .003.037zM131.531 119.589a.5.5 0 0 1 .243 0 .4.4 0 0 1 .174.091.4.4 0 0 1 .105.17.5.5 0 0 1 .042.197.2.2 0 0 1 0 .096.2.2 0 0 1-.055.064l-.197.115c-.033 0-.055.023-.074 0a.1.1 0 0 1-.041-.051.218.218 0 0 0-.128-.114c-.06 0-.142 0-.257.064a.7.7 0 0 0-.137.105.7.7 0 0 0-.115.138.56.56 0 0 0-.105.316.3.3 0 0 0 .027.147.142.142 0 0 0 .101.05.7.7 0 0 0 .179 0l.261-.06a.9.9 0 0 1 .284-.032c.07.001.138.025.192.069a.37.37 0 0 1 .11.183q.033.147.032.298a1.2 1.2 0 0 1-.045.339 1.65 1.65 0 0 1-.578.903v.275a.2.2 0 0 1-.023.096.14.14 0 0 1-.055.069l-.224.128h-.055a.1.1 0 0 1 0-.073v-.294a.6.6 0 0 1-.238.037.4.4 0 0 1-.193-.064.4.4 0 0 1-.133-.165.6.6 0 0 1-.059-.266.16.16 0 0 1 .023-.096.1.1 0 0 1 .021-.038.1.1 0 0 1 .034-.026l.197-.115a.1.1 0 0 1 .073 0q.015.009.026.024a.1.1 0 0 1 .015.031.3.3 0 0 0 .051.087.2.2 0 0 0 .073.055q.06.014.119 0a.5.5 0 0 0 .179-.073q.087-.05.165-.115a.9.9 0 0 0 .233-.311.5.5 0 0 0 .031-.259.2.2 0 0 0-.035-.062.2.2 0 0 0-.056-.031.2.2 0 0 0-.063-.006 1.3 1.3 0 0 0-.197.033l-.275.059a.8.8 0 0 1-.243 0 .32.32 0 0 1-.179-.073.4.4 0 0 1-.101-.188 1.2 1.2 0 0 1-.032-.316 1.4 1.4 0 0 1 .019-.339 1.64 1.64 0 0 1 .522-.862v-.293a.3.3 0 0 1 0-.096.106.106 0 0 1 .055-.064l.224-.133h.055a.1.1 0 0 1 .023.069zM133.487 118.462a.5.5 0 0 1 .243 0 .36.36 0 0 1 .174.092.5.5 0 0 1 .106.165.7.7 0 0 1 .041.202.2.2 0 0 1-.073.16l-.197.11c-.032.023-.06.023-.074 0a.1.1 0 0 1-.045-.05.2.2 0 0 0-.053-.071.2.2 0 0 0-.076-.044.35.35 0 0 0-.252.069.77.77 0 0 0-.334.394.5.5 0 0 0-.028.165.3.3 0 0 0 .032.142.12.12 0 0 0 .101.05.7.7 0 0 0 .179 0l.261-.064a1 1 0 0 1 .284-.032.312.312 0 0 1 .298.256q.036.147.032.298 0 .172-.041.339-.043.174-.124.335-.077.165-.192.307a2 2 0 0 1-.262.261v.293a.2.2 0 0 1-.023.096.1.1 0 0 1-.021.038.1.1 0 0 1-.033.027l-.23.132a.03.03 0 0 1-.025.01.04.04 0 0 1-.025-.01.1.1 0 0 1-.023-.068v-.294a.6.6 0 0 1-.238.033.4.4 0 0 1-.193-.06.4.4 0 0 1-.137-.165.7.7 0 0 1-.055-.27.2.2 0 0 1 .023-.096.15.15 0 0 1 .055-.065l.197-.114h.073a.1.1 0 0 1 .041.055 1 1 0 0 0 .046.082.14.14 0 0 0 .078.055q.06.018.119 0a.7.7 0 0 0 .179-.073l.165-.115q.075-.066.137-.146a1 1 0 0 0 .097-.165.5.5 0 0 0 .036-.188.2.2 0 0 0-.041-.137.16.16 0 0 0-.119-.033 1 1 0 0 0-.197.033l-.275.055a.8.8 0 0 1-.247.022.3.3 0 0 1-.175-.077.4.4 0 0 1-.1-.184 1.2 1.2 0 0 1-.037-.316 1.2 1.2 0 0 1 .046-.339 1.65 1.65 0 0 1 .522-.861v-.33a.24.24 0 0 1 .023-.096.2.2 0 0 1 .05-.065l.23-.132a.04.04 0 0 1 .027-.01q.016 0 .027.01a.1.1 0 0 1 .023.068zM135.444 117.331a.46.46 0 0 1 .238 0 .3.3 0 0 1 .174.091.4.4 0 0 1 .11.165q.035.096.041.197a.2.2 0 0 1-.023.097.113.113 0 0 1-.055.064l-.197.114q-.05.029-.068 0a.1.1 0 0 1-.046-.05.21.21 0 0 0-.129-.115.33.33 0 0 0-.252.064q-.075.048-.142.106a1 1 0 0 0-.114.137.7.7 0 0 0-.078.156.5.5 0 0 0-.028.16.25.25 0 0 0 .033.147.12.12 0 0 0 .1.05.5.5 0 0 0 .174 0l.266-.059a.8.8 0 0 1 .284-.032c.07.002.138.026.193.069a.36.36 0 0 1 .105.183q.036.146.032.298a1.5 1.5 0 0 1-.165.678 1.542 1.542 0 0 1-.453.563v.298a.3.3 0 0 1-.023.096.3.3 0 0 1-.055.065l-.229.132a.04.04 0 0 1-.051 0 .1.1 0 0 1-.02-.031.1.1 0 0 1-.003-.037v-.298a.6.6 0 0 1-.238.037.4.4 0 0 1-.197-.065.4.4 0 0 1-.133-.16.8.8 0 0 1-.055-.27.16.16 0 0 1 .023-.097.1.1 0 0 1 .021-.037.1.1 0 0 1 .034-.027l.197-.114a.07.07 0 0 1 .069 0s.032 0 .046.05q.016.047.045.087a.14.14 0 0 0 .078.055q.06.015.119 0a.5.5 0 0 0 .179-.073 1 1 0 0 0 .161-.115 1 1 0 0 0 .142-.142 1 1 0 0 0 .091-.169.4.4 0 0 0 .037-.188.2.2 0 0 0-.037-.133.18.18 0 0 0-.119-.037 2 2 0 0 0-.202.032 3 3 0 0 1-.27.06.8.8 0 0 1-.247 0 .3.3 0 0 1-.174-.073.35.35 0 0 1-.101-.188 1.403 1.403 0 0 1 .004-.651q.045-.167.12-.325.074-.155.178-.293.103-.133.229-.243v-.293a.2.2 0 0 1 .023-.097.12.12 0 0 1 .051-.064l.229-.133a.04.04 0 0 1 .027-.01q.016 0 .028.01a.1.1 0 0 1 .023.069z"/><path fill="#455A64" d="M98.312 137.682a.2.2 0 0 1-.1-.026.204.204 0 0 1-.093-.227.2.2 0 0 1 .093-.122l9.873-5.7a.2.2 0 0 1 .154-.022.2.2 0 0 1 .07.035.2.2 0 0 1 .051.06.2.2 0 0 1 .02.153.2.2 0 0 1-.093.122l-9.874 5.704a.2.2 0 0 1-.1.023M98.312 139.585a.2.2 0 0 1-.194-.149.2.2 0 0 1 .093-.226l9.874-5.718a.19.19 0 0 1 .154-.025q.04.011.071.036a.2.2 0 0 1 .05.062.203.203 0 0 1-.073.275l-9.874 5.7a.2.2 0 0 1-.1.045M98.313 141.486a.2.2 0 0 1-.174-.101.206.206 0 0 1 .073-.279l9.874-5.7a.2.2 0 0 1 .152-.02.2.2 0 0 1 .143.248.2.2 0 0 1-.094.125l-9.874 5.699a.2.2 0 0 1-.1.028"/><path fill="#F7921E" d="M119.762 83.19 97.439 96.056a1.84 1.84 0 0 0-.771 1.462v5.534c0 .558.349.821.771.579l22.323-12.835a1.85 1.85 0 0 0 .771-1.473V83.77c0-.569-.338-.832-.771-.58"/><path fill="#FFA8A7" d="M174.874 195.873s1.416 4.352 2.535 6.386a31.2 31.2 0 0 0 3.997 5.796c.354.397 1.162 1.133 1.454 1.454a.63.63 0 0 1 .203.498.64.64 0 0 1-.255.474c-.698.69-3.71.907-5.423-.33s-3.413-3.615-4.442-4.621c-.509-.5-.995-.977-1.349-1.331a1.35 1.35 0 0 1-.359-1.298q.043-.197.108-.472c.213-.977-1.142-4.951-1.142-4.951z"/><path fill="#455A64" d="M141.074 153.559c-.585 3.304-.764 5.149.392 8.467s3.852 8.595 8.496 11.191c3.842 2.153 9.223 4.753 10.384 5.258.883.392 1.029 1.95 1.699 4.338.746 2.639 1.388 3.833 3.814 8.27 2.686 4.923 3.922 7.353 3.922 7.353 1.261-.972 4.319-1.94 5.499-2.015 0 0-5.508-20.565-6.523-23.383s-8.354-6.957-11.507-8.774c-3.153-1.818-4.914-2.95-8.496-5.386z"/><path fill="#000" d="M157.221 164.264c-3.153-1.817-4.913-2.95-8.496-5.385l-5.149-3.578-2.898.915a12.6 12.6 0 0 0 .783 5.811c1.157 3.304 3.852 8.595 8.496 11.191 3.842 2.152 9.223 4.753 10.384 5.258.883.392 1.029 1.949 1.699 4.338.222.783.435 1.439.689 2.091-.689-2.096-.656-5.801-1.047-6.981-.392-1.18-4.078-3.257-4.078-3.257l-2.469-2.662 7.679-4.357c-2.081-1.378-4.229-2.6-5.593-3.384" opacity=".15"/><path fill="#263238" d="M171.089 205.143c-.012.353.039.707.151 1.043.169.377 1.416.84 1.987 1.099.571.26.981.572 1.524 1.676a7.14 7.14 0 0 0 3.2 3.007 9 9 0 0 0 5.343.443c2.224-.443 2.36-1.76 2.36-1.76s.095-1.242-.472-1.416c-.566-.175-14.093-4.092-14.093-4.092"/><path fill="#F7921E" d="M170.985 200.635a.33.33 0 0 0-.156.179.9.9 0 0 0 .066.354c.129.576.178 1.167.146 1.756a5 5 0 0 0 .048 2.219c1.066 1.302 2.468 1.184 3.389 2.412s2.284 3.45 5.22 3.974 5.13-.472 5.664-1.293c.533-.822 0-1.615-1.888-2.592-2.011-1.033-4.692-4.177-4.692-4.182q-.551-.676-1.015-1.416a2.7 2.7 0 0 1-.406-.915 3.5 3.5 0 0 1-.056-1.034c0-.208.052-.448-.099-.59a.62.62 0 0 0-.524-.071 9 9 0 0 0-1.997.552c-.585.246-1.161.538-1.34 1.199-.081.288-.066.59-.118.883a.52.52 0 0 1-.274.42c-.231.085-.472-.146-.543-.373a1.9 1.9 0 0 0-.278-.67c-.274-.288-.765-.161-.944-.51l-.076-.344a.24.24 0 0 0-.127.042"/><path fill="#000" d="M170.985 200.635a.33.33 0 0 0-.156.179.9.9 0 0 0 .066.354c.129.576.178 1.167.146 1.756a5 5 0 0 0 .048 2.219c1.066 1.302 2.468 1.184 3.389 2.412s2.284 3.45 5.22 3.974 5.13-.472 5.664-1.293c.533-.822 0-1.615-1.888-2.592-2.011-1.033-4.692-4.177-4.692-4.182q-.551-.676-1.015-1.416a2.7 2.7 0 0 1-.406-.915 3.5 3.5 0 0 1-.056-1.034c0-.208.052-.448-.099-.59a.62.62 0 0 0-.524-.071 9 9 0 0 0-1.997.552c-.585.246-1.161.538-1.34 1.199-.081.288-.066.59-.118.883a.52.52 0 0 1-.274.42c-.231.085-.472-.146-.543-.373a1.9 1.9 0 0 0-.278-.67c-.274-.288-.765-.161-.944-.51l-.076-.344a.24.24 0 0 0-.127.042" opacity=".5"/><path fill="#FAFAFA" d="M177.791 210.868a3.72 3.72 0 0 1 2.1-3.215c2.181-1.17 3.536-.472 4.22 0 .812.567 1.987 1.747 1.303 2.639s-1.931 1.416-4.177 1.506a5.36 5.36 0 0 1-3.446-.93M174.638 204.096a.248.248 0 0 0 .198-.108c.246-.354 1.822-1.69 3.38-1.289.075-.179-.057-.359-.382-.543-1.629-.118-3.125 1.138-3.418 1.567a.2.2 0 0 0-.038.088.2.2 0 0 0 0 .096.229.229 0 0 0 .109.151.24.24 0 0 0 .151.038M179.127 203.85a.77.77 0 0 0-.449-.534 4.62 4.62 0 0 0-3.219 1.582.2.2 0 0 0-.038.087.2.2 0 0 0 0 .096.232.232 0 0 0 .109.152.3.3 0 0 0 .151.037.24.24 0 0 0 .198-.108c.236-.345 1.737-1.61 3.248-1.312M181.605 206.309a1.38 1.38 0 0 0-.703-.637 4.565 4.565 0 0 0-3.356 1.572.2.2 0 0 0-.037.087.2.2 0 0 0 0 .095q.01.048.038.088a.3.3 0 0 0 .069.065.3.3 0 0 0 .156.042.26.26 0 0 0 .198-.108c.255-.373 1.997-1.841 3.635-1.204M176.724 206.446a.24.24 0 0 0 .198-.108c.241-.35 1.789-1.657 3.328-1.298a.88.88 0 0 0-.529-.548 4.63 4.63 0 0 0-3.219 1.577.239.239 0 0 0-.039.183.24.24 0 0 0 .11.152.26.26 0 0 0 .151.042"/><path fill="#FFA8A7" d="M164.042 201.631s.76 5.192 2.289 7.155c1.373 1.747 2.36 3.975 3.998 5.797.354.396 1.161 1.132 1.449 1.449a.632.632 0 0 1-.048.972c-.698.694-3.709.911-5.423-.326-1.713-1.236-3.417-3.62-4.441-4.621-.515-.5-.996-.981-1.35-1.335a1.37 1.37 0 0 1-.364-1.294q.05-.197.109-.472c.217-.981-1.142-4.956-1.142-4.956z"/><path fill="#263238" d="M160.025 211.736c-.009.356.044.71.156 1.048.17.373 1.416.84 1.987 1.1s.982.566 1.524 1.671a7.08 7.08 0 0 0 3.2 3.006 9.04 9.04 0 0 0 5.344.449c2.223-.449 2.36-1.765 2.36-1.765s.094-1.242-.472-1.416c-.567-.175-14.099-4.093-14.099-4.093"/><path fill="#F7921E" d="M159.926 207.235a.3.3 0 0 0-.156.179c-.028.095.043.251.062.35.132.575.183 1.166.151 1.756a5.1 5.1 0 0 0 .042 2.218c1.072 1.303 2.473 1.189 3.394 2.412.92 1.222 2.284 3.45 5.22 3.974s5.131-.448 5.664-1.288c.534-.841 0-1.619-1.888-2.592-2.006-1.033-4.687-4.182-4.687-4.182q-.551-.676-1.015-1.416a2.7 2.7 0 0 1-.406-.915 3.5 3.5 0 0 1-.056-1.034c0-.203.052-.444-.099-.585a.6.6 0 0 0-.524-.076 9.2 9.2 0 0 0-1.997.552c-.585.251-1.161.543-1.34 1.199-.08.288-.066.59-.118.883a.52.52 0 0 1-.274.42c-.231.085-.472-.142-.543-.373a1.9 1.9 0 0 0-.278-.67c-.274-.288-.765-.161-.944-.51l-.081-.344a.26.26 0 0 0-.127.042"/><path fill="#000" d="M159.926 207.235a.3.3 0 0 0-.156.179c-.028.095.043.251.062.35.132.575.183 1.166.151 1.756a5.1 5.1 0 0 0 .042 2.218c1.072 1.303 2.473 1.189 3.394 2.412.92 1.222 2.284 3.45 5.22 3.974s5.131-.448 5.664-1.288c.534-.841 0-1.619-1.888-2.592-2.006-1.033-4.687-4.182-4.687-4.182q-.551-.676-1.015-1.416a2.7 2.7 0 0 1-.406-.915 3.5 3.5 0 0 1-.056-1.034c0-.203.052-.444-.099-.585a.6.6 0 0 0-.524-.076 9.2 9.2 0 0 0-1.997.552c-.585.251-1.161.543-1.34 1.199-.08.288-.066.59-.118.883a.52.52 0 0 1-.274.42c-.231.085-.472-.142-.543-.373a1.9 1.9 0 0 0-.278-.67c-.274-.288-.765-.161-.944-.51l-.081-.344a.26.26 0 0 0-.127.042" opacity=".5"/><path fill="#FAFAFA" d="M166.732 217.463a3.715 3.715 0 0 1 2.1-3.214c2.181-1.17 3.536-.472 4.22 0 .812.562 1.982 1.747 1.303 2.634-.732.944-1.931 1.416-4.177 1.506a5.35 5.35 0 0 1-3.446-.926M163.579 210.689a.24.24 0 0 0 .198-.104c.246-.354 1.822-1.689 3.38-1.288.075-.179-.057-.364-.382-.548-1.629-.113-3.125 1.143-3.418 1.567a.24.24 0 0 0-.039.088.3.3 0 0 0 0 .096.24.24 0 0 0 .11.152.25.25 0 0 0 .151.037M168.068 210.445a.77.77 0 0 0-.472-.529 4.59 4.59 0 0 0-3.214 1.577.23.23 0 0 0 0 .27.24.24 0 0 0 .07.065.266.266 0 0 0 .35-.071c.255-.34 1.756-1.605 3.266-1.312M170.546 212.903a1.43 1.43 0 0 0-.703-.637 4.5 4.5 0 0 0-1.846.431 4.5 4.5 0 0 0-1.51 1.145.23.23 0 0 0 0 .268.2.2 0 0 0 .071.063.26.26 0 0 0 .263.011.24.24 0 0 0 .086-.078c.269-.372 2.001-1.836 3.639-1.203M165.665 213.04a.24.24 0 0 0 .112-.031.23.23 0 0 0 .086-.078c.241-.349 1.789-1.656 3.304-1.298a.87.87 0 0 0-.528-.547 4.63 4.63 0 0 0-3.219 1.581.23.23 0 0 0 0 .271.2.2 0 0 0 .071.064.25.25 0 0 0 .174.038"/><path fill="#455A64" d="M129.52 159.95c-.383 3.256-1.143 5.588 0 8.906 1.142 3.318 4.993 5.872 9.633 8.463 3.838 2.152 9.275 5.003 10.356 5.617 1.416.812 1.482 2.081 1.85 4.224.472 2.832 1.114 5.376 3.474 9.964 2.431 4.749 3.899 7.812 3.899 7.812s3.021-1.69 5.796-2.124c0 0-4.81-21.523-5.825-24.341-1.014-2.818-11.837-11.8-11.837-11.8s1.062-4.508 1.845-7.788z"/><path fill="#000" d="m146.88 166.665.76-3.214-3.776-4.305-14.34.803c-.307 2.601-.845 4.611-.472 7.004 2.643 1.888 6.419 4.206 9.058 4.796 2.874.637 7.103.642 7.103.642l3.961 2.393 4.488-2.105c-3.228-3.054-6.782-6.014-6.782-6.014" opacity=".15"/><path fill="#FFA8A7" d="M179.146 134.329a.7.7 0 0 1 .141-.312 1.42 1.42 0 0 0-.028-1.416 1.8 1.8 0 0 1-.208-.34c-.094-.259 0-.547 0-.826-.089-1.236-2.322-.694-3.035-.448-.203.071-1.208.392-1.656.557a6.8 6.8 0 0 0-.251-2.025c-.321-1.284-1.628-1.761-1.689-.982a15 15 0 0 1-.435 2.624 8 8 0 0 1-.599 1.841 9.8 9.8 0 0 1-1.855 2.634c-1.416 1.326-7.859 5.942-7.859 5.942-1.803-1.161-9.091-5.366-11.701-6.801-2.832-1.562-6.65-.637-6.65-.637l5.414 8.911s9.199 3.989 11.762 5.381c2.105 1.137 3.158.415 5.569-1.737 1.922-1.817 4.451-4.437 7.18-6.853 1.09-.944 1.859-1.459 2.648-1.497.292 0 .58-.033.873-.061.642-.071 1.416-.236 1.723-.878.103-.217.16-.472.245-.689.137-.345.354-.656.472-1.001.097-.234.13-.49.094-.741-.014-.217-.184-.425-.155-.646"/><path fill="#37474F" d="M142.929 133.995c3.068-.6 4.758-.435 7.316.792s8.907 4.919 8.907 4.919-.382 5.565-2.709 7.193l-10.856-4.451z"/><path fill="#F28F8F" d="M174.936 131.918c-.741.179-.973.642-1.02 1.68-.028.619-.288 1.742-.986 2.148.324-.012.637-.122.896-.316.336-.302.425-.335.59-.137.123.133.275.235.444.297a.795.795 0 0 0-.137.944c.283.557 1.728.666 2.95.137 0 0-1.959.472-2.36-.175-.401-.646.666-1.331 1.416-1.486 0 0-1.888.311-2.124-.312s.553-1.034 1.666-1.237c0 0-1.552.175-1.779-.363a.946.946 0 0 1 .444-1.18"/><path fill="#F7921E" d="M149.957 140.682c-.42-3.049-2.308-6.499-7.028-6.688l-6.4.656c-1.275.293-5.305.836-6.868 1.383l-.245 12.546s-.373 9.53-.26 14.632c4.361 2.766 14.996 3.304 20.957-1.204.156-4.215.26-18.309-.156-21.325"/><path fill="#fff" d="M149.957 140.682c-.42-3.049-2.308-6.499-7.028-6.688l-6.4.656c-1.275.293-5.305.836-6.868 1.383l-.245 12.546s-.373 9.53-.26 14.632c4.361 2.766 14.996 3.304 20.957-1.204.156-4.215.26-18.309-.156-21.325" opacity=".7"/><path fill="#263238" d="M149.594 120.864a6.14 6.14 0 0 0-6.005-5.863 6.14 6.14 0 0 0-6.239 5.613l-2.832-1.931a2.17 2.17 0 0 0-1.779.694c-.751.817-.236 3.276.807 5.664 0 0 1.081 4.385 1.482 5.098.266.438.69.759 1.184.896l-.141-2.681 11.125-.996-1.105-.774a6.13 6.13 0 0 0 3.503-5.72"/><path fill="#FFA8A7" d="M135.863 125.167c-.349.227-.878-.438-1.331-.882s-1.888-1.024-2.568.5c-.679 1.525.746 3.535 1.888 3.852 1.959.547 2.209-.708 2.209-.708l.081 7.009c2.662 3.507 9.076 2.794 6.608-.406l-.071-2.129c.869.109 1.747.125 2.619.047 1.416-.269 2.28-1.416 2.663-2.978.613-2.506.811-4.517.061-9.374-.817-5.324-7.038-5.192-10.327-2.955-3.29 2.238-1.832 8.024-1.832 8.024"/><path fill="#263238" d="M149.283 115.1a2.33 2.33 0 0 0-1.511-.146 1.83 1.83 0 0 0-1.123-1.813 2.12 2.12 0 0 0-2.299.349 1.08 1.08 0 0 0-.911-1.198 2.93 2.93 0 0 0-1.638.302c-.778.311-1.543.656-2.331.944-1.393.472-2.875.788-4.13 1.567a2.6 2.6 0 0 0-.779.689 2.17 2.17 0 0 0-.331 1.392 2.7 2.7 0 0 0 .076.472 1.2 1.2 0 0 0-.799-.372 1.2 1.2 0 0 0-.471.071 1.178 1.178 0 0 0-.675.641l2.129 1.053c-.047.424-.09.854-.127 1.279-.095 1.128-.288 2.44 0 3.554a.8.8 0 0 0 .141.373q.172.165.298.368l.377.684c.17.307.439.656.831.609.222-.023.335-.335.382-.514.529-1.987.515-4.102 1.18-6.051a.34.34 0 0 1 .085-.151.3.3 0 0 1 .131-.047.3.3 0 0 1 .138.014c1.02.16 2.035.325 3.054.443 2.318.279 4.8.293 6.82-.873.784-.472 2.106-1.416 2.228-2.36a1.318 1.318 0 0 0-.745-1.279"/><path fill="#F28F8F" d="M142.665 132.413s-3.205-.538-4.338-1.095a3.66 3.66 0 0 1-1.591-1.472c.193.646.514 1.246.944 1.765.845 1.015 5.018 1.647 5.018 1.647z"/><path fill="#263238" d="M141.881 124.417a.688.688 0 0 1-1.171.483.69.69 0 0 1-.16-.742.69.69 0 0 1 .618-.439.71.71 0 0 1 .713.698M140.994 122.279l-1.393.708a.82.82 0 0 1 .359-1.076.77.77 0 0 1 .595-.035.78.78 0 0 1 .439.403"/><path fill="#F28F8F" d="m142.061 128.773 1.845.642a.93.93 0 0 1-.47.585.95.95 0 0 1-.747.057 1.02 1.02 0 0 1-.628-1.284"/><path fill="#263238" d="m147.451 122.661-1.392-.637a.73.73 0 0 1 .419-.397.74.74 0 0 1 .577.024.786.786 0 0 1 .396 1.01M147.135 124.143a.69.69 0 0 1-.818.672.689.689 0 1 1 .375-1.317.695.695 0 0 1 .443.645"/><path fill="#F28F8F" d="m143.986 124.289.184 3.866 2.275-.571z"/><path fill="#FFA8A7" d="M131.271 135.74c-2.927.505-3.984 1.18-4.871 4.248-.944 3.304-3.621 12.584-4.248 15.897-.383 2.035-.944 3.304.76 4.664 2.209 1.713 8.684 6.461 12.588 8.496 3.903 2.034 10.072 2.081 10.072 2.081l-3.648-2.119-.817-2.039-12.022-10.016 4.593-13.518s1.713-6.372-2.407-7.694"/><path fill="#37474F" d="M132.338 135.4c-1.789.199-4.003.472-5.079 1.992s-3.776 11.569-3.776 11.569.637 1.69 4.111 2.487 3.875.161 3.875.161l2.955-8.945s1.057-5.739-2.086-7.264"/><path fill="#EBEBEB" d="M136.968 165.075v.415a1.18 1.18 0 0 0 .59 1.02l11.21 6.457a1.178 1.178 0 0 0 1.175 0l20.579-11.88c.179-.104.327-.253.431-.431.103-.179.158-.382.159-.589v-.288l-21.754 12.56z"/><path fill="#FAFAFA" d="m171.117 159.779-12.201-7.043a.7.7 0 0 0-.704 0l-21.164 12.22a.16.16 0 0 0-.056.059.16.16 0 0 0 0 .157.15.15 0 0 0 .056.058l12.314 7.108z"/><path fill="#E0E0E0" d="m149.249 171.306-6.58-3.799 19.244-11.107 6.613 3.776zM146.016 160.747l.123.071 3.224 1.859 5.734-3.313.123-.066-3.351-1.931z"/><path fill="#E6E6E6" d="m146.139 160.817 3.223 1.86 5.735-3.313-3.228-1.86z"/><path fill="#EBEBEB" d="M149.362 172.339v.784c.206 0 .408-.054.586-.156l20.579-11.88a1.19 1.19 0 0 0 .59-1.02v-.288z"/><path fill="#E0E0E0" d="M149.362 172.339v.784c.206 0 .408-.054.586-.156l20.579-11.88a1.19 1.19 0 0 0 .59-1.02v-.288z" opacity=".5" style="mix-blend-mode:multiply"/><path fill="#EBEBEB" d="M149.712 172.515a1.42 1.42 0 0 0 1.204-.095l20.484-11.828a1.37 1.37 0 0 0 .675-.972l2.247-13.377a2 2 0 0 0 0-.226 1.385 1.385 0 0 0-.411-.992l-21.287 12.272a1.05 1.05 0 0 0-.5.723z"/><path fill="#FAFAFA" d="m149.362 172.339.142.08q.09.054.189.095l2.426-14.477a1.04 1.04 0 0 1 .5-.722l21.287-12.272a1.5 1.5 0 0 0-.283-.217l-21.334 12.315a1.05 1.05 0 0 0-.501.722z"/><path fill="#F7921E" d="M161.233 160.166c.147-.897 1.072-2.086 2.063-2.657s1.671-.307 1.52.585-1.072 2.086-2.063 2.657-1.671.312-1.52-.585"/><path fill="#FFA8A7" d="M137.308 163.814c1.119.784 2.327.321 3.814.501 1.486.179 2.751.543 3.946.51 1.194-.034 1.774.207.944 1.161-.831.953-3.229.406-3.876.698-.646.293-.944 1.478-.198 2.36.746.883-4.087-.906-4.72-1.888-.632-.982-.755-3.219.09-3.342"/></svg>