<svg xmlns="http://www.w3.org/2000/svg" width="256" height="256" fill="none"><path stroke="#D5D5D5" d="M235.064 175.914c0 16.894-11.865 32.284-31.255 43.479-19.376 11.186-46.178 18.122-75.809 18.122s-56.433-6.936-75.81-18.122c-19.389-11.195-31.254-26.585-31.254-43.479 0-16.895 11.865-32.285 31.255-43.48 19.376-11.186 46.178-18.122 75.809-18.122s56.433 6.936 75.809 18.122c19.39 11.195 31.255 26.585 31.255 43.48Z"/><path fill="#F7921E" d="M18.968 184.71a1.31 1.31 0 0 1 .716-1.054l71.17-44.739V73.443l8.826-10.92a13.13 13.13 0 0 0 2.527-7.086V18.542c0-2.203-1.516-3.045-3.37-1.883L19.684 65.84a1.31 1.31 0 0 0-.716 1.053z"/><path fill="#000" d="M97.32 28.379c0-2.204-1.562-3.122-3.487-2.056l-72.46 40.1c-.731.367-1.56.491-2.367.355a1 1 0 0 0 0 .114v117.703a1.36 1.36 0 0 1 .7-.939l71.17-44.739V73.442l6.466-8.004z" opacity=".3"/><path fill="#F7921E" d="M19.617 185.649a3.8 3.8 0 0 0 3.37-.029l72.459-40.101c1.93-1.066 3.488-3.716 3.488-5.898V29.757c0-2.2-1.558-3.122-3.488-2.056L22.987 67.802a3.79 3.79 0 0 1-3.37.034 1.13 1.13 0 0 1-.649-.927V184.71a1.12 1.12 0 0 0 .649.939"/><path fill="#fff" d="M19.617 185.649a3.8 3.8 0 0 0 3.37-.029l72.459-40.101c1.93-1.066 3.488-3.716 3.488-5.898V29.757c0-2.2-1.558-3.122-3.488-2.056L22.987 67.802a3.79 3.79 0 0 1-3.37.034 1.13 1.13 0 0 1-.649-.927V184.71a1.12 1.12 0 0 0 .649.939" opacity=".3"/><path fill="#fff" d="M21.251 68.21a3.3 3.3 0 0 1-1.622-.375 1.13 1.13 0 0 1-.661-.927V184.71a1.12 1.12 0 0 0 .649.939c.5.263 1.058.393 1.622.38z" opacity=".3"/><path fill="#F7921E" d="M30.94 66.867a.2.2 0 0 0-.197.202v110.294c0 .056.022.109.061.149a.21.21 0 0 0 .298 0 .2.2 0 0 0 .062-.149V67.069a.198.198 0 0 0-.223-.202m-6.474 3.74a.2.2 0 0 0-.198.199v110.298a.198.198 0 0 0 .396 0V70.806a.2.2 0 0 0-.19-.198zm3.24-1.87a.2.2 0 0 0-.203.198v110.298a.201.201 0 0 0 .342.14.2.2 0 0 0 .058-.14V68.935a.2.2 0 0 0-.19-.198z"/><path fill="#F0F0F0" d="m37.656 73.204-1.664-.961 74.788-43.18 1.668.96z"/><path fill="#FAFAFA" d="M112.448 30.023v114.865l-74.822 43.197.03-114.881z"/><path fill="#EBEBEB" d="M112.048 30.71v113.95l-74.022 42.734.03-113.962zm.421-.687L37.656 73.204l-.03 114.881 74.822-43.197V30.023z"/><path fill="#E0E0E0" d="m37.656 73.203-.03 114.881-1.618-.935-.017-114.907 1.635.94z"/><path fill="#F0F0F0" d="M133.386 155.132v1.93l-74.793 43.172-.843-.476a33.34 33.34 0 0 1-16.614-28.794v-89.13l74.788-43.18 1.685.96v88.165a31.6 31.6 0 0 0 4.226 15.789 31.6 31.6 0 0 0 11.551 11.564"/><path fill="#E0E0E0" d="M117.592 127.779V39.615l-74.788 43.18v88.169a31.6 31.6 0 0 0 15.789 27.353l74.793-43.18a31.59 31.59 0 0 1-15.794-27.358m-74.434 43.185V83.006l74.064-42.755v87.528a32.04 32.04 0 0 0 15.435 27.349l-74.064 42.76a31.31 31.31 0 0 1-15.435-26.924"/><path fill="#FAFAFA" d="m132.657 155.127-74.064 42.759a31.31 31.31 0 0 1-15.435-26.923V83.005l74.064-42.755v87.528a32.04 32.04 0 0 0 15.435 27.349"/><path fill="#F7921E" d="M96.627 81.671c.202-.077.418-.107.633-.087a.9.9 0 0 1 .455.176.9.9 0 0 1 .279.371c.062.141.1.293.11.447a.46.46 0 0 1-.197.389l-.514.303c-.085.052-.146.065-.19.047a.3.3 0 0 1-.113-.109.52.52 0 0 0-.335-.239 1 1 0 0 0-.653.208 2.2 2.2 0 0 0-.666.61q-.124.175-.2.377a1.1 1.1 0 0 0-.074.384.52.52 0 0 0 .08.33.32.32 0 0 0 .261.097q.236-.01.462-.078.284-.077.688-.197.365-.117.746-.134a.85.85 0 0 1 .499.125c.137.097.236.24.28.404a2.4 2.4 0 0 1 .086.684c-.002.27-.039.54-.111.8a4 4 0 0 1-.32.802q-.216.406-.512.755a4.5 4.5 0 0 1-.683.656v.684a.5.5 0 0 1-.06.223.4.4 0 0 1-.139.163l-.594.353a.115.115 0 0 1-.14 0 .19.19 0 0 1-.058-.156v-.683c-.199.078-.41.122-.622.131a1 1 0 0 1-.508-.107.86.86 0 0 1-.354-.344 1.4 1.4 0 0 1-.146-.612.4.4 0 0 1 .054-.223.4.4 0 0 1 .144-.161l.514-.306a.25.25 0 0 1 .191-.052q.038.016.067.045.028.03.042.07.052.101.126.187c.052.06.122.1.198.114a.7.7 0 0 0 .312-.018q.247-.073.468-.212.227-.133.435-.297.2-.162.36-.364.147-.19.25-.41c.063-.14.095-.292.095-.446a.37.37 0 0 0-.102-.301.43.43 0 0 0-.314-.056 3 3 0 0 0-.518.116c-.206.06-.435.125-.711.19q-.321.09-.653.096a.7.7 0 0 1-.458-.14.73.73 0 0 1-.265-.408 2.4 2.4 0 0 1-.09-.726q.002-.403.112-.79.111-.406.304-.778.196-.385.466-.719.27-.335.597-.61v-.683a.5.5 0 0 1 .058-.224.37.37 0 0 1 .14-.163l.594-.353a.12.12 0 0 1 .14 0 .18.18 0 0 1 .058.157zM102.763 78.368c.202-.077.418-.107.633-.087a.9.9 0 0 1 .455.177.9.9 0 0 1 .279.37c.062.141.1.293.111.447a.46.46 0 0 1-.198.389l-.514.304q-.126.075-.189.047a.3.3 0 0 1-.114-.11.52.52 0 0 0-.335-.239 1 1 0 0 0-.653.208q-.196.116-.363.27a2.3 2.3 0 0 0-.303.34 1.7 1.7 0 0 0-.2.377 1 1 0 0 0-.074.385.52.52 0 0 0 .08.33.33.33 0 0 0 .261.096q.236-.009.462-.078.283-.076.688-.197.365-.117.746-.134a.85.85 0 0 1 .499.125c.137.097.236.24.281.405q.091.335.085.683c-.002.27-.039.54-.111.8a4 4 0 0 1-.32.802q-.216.406-.512.755a4.5 4.5 0 0 1-.683.657v.683a.5.5 0 0 1-.059.224.4.4 0 0 1-.14.163l-.594.353a.116.116 0 0 1-.139 0 .2.2 0 0 1-.048-.071.2.2 0 0 1-.011-.086v-.683a1.9 1.9 0 0 1-.622.132 1 1 0 0 1-.508-.108.85.85 0 0 1-.354-.344 1.35 1.35 0 0 1-.146-.612.4.4 0 0 1 .054-.223.4.4 0 0 1 .144-.161l.514-.306a.25.25 0 0 1 .191-.051.2.2 0 0 1 .109.113 1 1 0 0 0 .126.188c.052.06.122.1.198.114q.157.025.312-.018.248-.073.468-.212.228-.132.435-.297.2-.162.359-.364.149-.19.25-.409a1.1 1.1 0 0 0 .096-.447.36.36 0 0 0-.102-.301.43.43 0 0 0-.314-.056 3 3 0 0 0-.518.116 13 13 0 0 1-.711.19 2.6 2.6 0 0 1-.653.096.7.7 0 0 1-.458-.14.73.73 0 0 1-.265-.407 2.4 2.4 0 0 1-.089-.726q0-.404.111-.791.112-.406.304-.777a4.34 4.34 0 0 1 1.063-1.33v-.683a.5.5 0 0 1 .058-.223.37.37 0 0 1 .14-.163l.594-.353a.12.12 0 0 1 .139 0 .18.18 0 0 1 .059.156zM108.899 74.591c.202-.078.418-.107.633-.087a.9.9 0 0 1 .455.176.9.9 0 0 1 .279.371c.062.141.1.293.111.447a.46.46 0 0 1-.198.389l-.514.303c-.085.052-.146.065-.189.047a.3.3 0 0 1-.114-.11.52.52 0 0 0-.335-.238 1 1 0 0 0-.653.208q-.196.115-.363.27a2.3 2.3 0 0 0-.303.34 1.7 1.7 0 0 0-.2.377 1 1 0 0 0-.074.384.52.52 0 0 0 .08.33.33.33 0 0 0 .261.097q.236-.01.462-.078.283-.077.688-.197.365-.117.746-.134a.85.85 0 0 1 .499.125.73.73 0 0 1 .281.404q.091.336.085.684c-.002.27-.039.54-.111.8a4 4 0 0 1-.32.802q-.216.406-.512.755a4.6 4.6 0 0 1-.683.656v.684a.5.5 0 0 1-.059.223.4.4 0 0 1-.14.163l-.594.353a.114.114 0 0 1-.139 0 .2.2 0 0 1-.048-.07.2.2 0 0 1-.011-.086v-.684a1.9 1.9 0 0 1-.622.132 1.03 1.03 0 0 1-.508-.107.85.85 0 0 1-.354-.344 1.35 1.35 0 0 1-.146-.612.4.4 0 0 1 .054-.224.4.4 0 0 1 .144-.16l.514-.306a.25.25 0 0 1 .191-.052.2.2 0 0 1 .109.114 1 1 0 0 0 .126.188c.052.06.122.1.198.114q.157.024.312-.018a1.8 1.8 0 0 0 .468-.212 4 4 0 0 0 .435-.297q.2-.162.359-.364.149-.19.25-.41a1.1 1.1 0 0 0 .096-.446.36.36 0 0 0-.102-.302.43.43 0 0 0-.314-.056 3 3 0 0 0-.518.117 13 13 0 0 1-.711.19 2.6 2.6 0 0 1-.653.096.7.7 0 0 1-.458-.14.73.73 0 0 1-.265-.408 2.4 2.4 0 0 1-.089-.726c0-.267.038-.533.111-.79q.112-.405.304-.778a4.341 4.341 0 0 1 1.063-1.33v-.682a.5.5 0 0 1 .058-.224.38.38 0 0 1 .14-.163l.594-.353a.114.114 0 0 1 .139 0 .18.18 0 0 1 .059.157z"/><path fill="#E0E0E0" d="M42.8 170.963V82.795l-1.685-.961v89.129a33.35 33.35 0 0 0 16.623 28.798l.843.476v-1.921A31.59 31.59 0 0 1 42.8 170.963"/><path fill="#000" d="M58.593 198.313v1.921l74.797-43.176v-1.925z" opacity=".15"/><path fill="#E0E0E0" d="m94.288 62.893 17.849-10.309c.421-.252.796-.071.796.422a1.7 1.7 0 0 1-.796 1.322l-17.85 10.309c-.442.253-.8.072-.8-.421a1.69 1.69 0 0 1 .8-1.323M94.288 69.801l17.849-10.308c.421-.253.796-.072.796.42a1.7 1.7 0 0 1-.796 1.324L94.287 71.54c-.442.253-.8.072-.8-.421a1.69 1.69 0 0 1 .8-1.319M100.969 62.49l11.168-6.45c.421-.253.796-.072.796.42a1.7 1.7 0 0 1-.796 1.323l-11.168 6.45c-.421.253-.8.072-.8-.421a1.69 1.69 0 0 1 .8-1.323M51.388 125.922l58.338-33.68c.443-.253.796-.076.796.42a1.68 1.68 0 0 1-.796 1.323l-58.338 33.702c-.421.253-.796.072-.796-.421a1.71 1.71 0 0 1 .796-1.344M51.388 129.394l58.338-33.701c.443-.253.796-.076.796.42a1.68 1.68 0 0 1-.796 1.324l-58.338 33.668c-.421.253-.796.071-.796-.421a1.71 1.71 0 0 1 .796-1.29M51.388 132.832l31.267-18.064c.421-.253.796-.072.796.421a1.71 1.71 0 0 1-.796 1.323l-31.267 18.064c-.421.253-.796.072-.796-.421a1.7 1.7 0 0 1 .796-1.323M51.388 141.028l58.338-33.681c.443-.253.796-.076.796.421a1.68 1.68 0 0 1-.796 1.323l-58.338 33.702c-.421.253-.796.071-.796-.421a1.71 1.71 0 0 1 .796-1.344M51.388 144.5l58.338-33.702c.443-.253.796-.076.796.421a1.68 1.68 0 0 1-.796 1.323L51.388 146.21c-.421.253-.796.072-.796-.421a1.7 1.7 0 0 1 .796-1.289M51.388 147.938l31.267-18.065c.421-.252.796-.071.796.422a1.71 1.71 0 0 1-.796 1.322l-31.267 18.065c-.421.252-.796.071-.796-.422a1.71 1.71 0 0 1 .796-1.322"/><path fill="#F7921E" d="m51.802 107.242 31.564-18.244c.64-.384 1.21-.115 1.21.64a2.56 2.56 0 0 1-1.21 2.01l-31.564 18.244c-.64.384-1.21.108-1.21-.64a2.6 2.6 0 0 1 1.21-2.01M51.802 112.906l31.564-18.244c.64-.384 1.21-.115 1.21.64a2.56 2.56 0 0 1-1.21 2.01l-31.564 18.244c-.64.384-1.21.108-1.21-.64a2.6 2.6 0 0 1 1.21-2.01"/><path fill="#F7921E" d="M103.315 132.69v-1.803c-3.985 2.305-7.233 8.506-7.233 13.822l1.352-.779c0-4.327 2.642-9.365 5.881-11.24m5.216 4.832c0-3.833-2.338-5.603-5.216-3.943-2.877 1.66-5.21 6.13-5.21 9.963 0 3.834 2.337 5.603 5.21 3.943s5.216-6.129 5.216-9.963m-9.765 5.637c0-3.332 2.034-7.225 4.537-8.67.177-.101.349-.181.518-.257l-5.022 9.601c-.008-.223-.033-.447-.033-.674m.193 1.639 5.658-10.806c1.462-.253 2.612.628 3.042 2.338l-5.628 10.751c-1.454.265-2.617-.598-3.059-2.292zm8.847-7.499c0 .198.025.421.025.623 0 3.337-2.038 7.225-4.541 8.67a5 5 0 0 1-.476.24zm-4.491-8.202c-4.726 2.73-8.577 10.081-8.577 16.387s3.85 9.218 8.577 6.484 8.582-10.073 8.582-16.392-3.863-9.209-8.582-6.479m0 21.969c-4.356 2.528-7.898-.164-7.898-5.973s3.542-12.58 7.898-15.095 7.904.165 7.904 5.974-3.543 12.579-7.904 15.094m5.898-13.931c0 4.326-2.641 9.369-5.898 11.239v1.803c3.99-2.304 7.238-8.501 7.238-13.822z" opacity=".2"/><path fill="#E0E0E0" d="M88.781 162.411 56.61 180.998a.59.59 0 0 1-.52.057.58.58 0 0 1-.352-.386v-.055a.97.97 0 0 1 .421-1.07l32.173-18.591a.57.57 0 0 1 .843.337v.055a.95.95 0 0 1-.393 1.066M81.043 171.246l-22.53 13.059a.65.65 0 0 1-.94-.303v-.03a.84.84 0 0 1 .355-1.049l22.534-13.059a.62.62 0 0 1 .532-.061.64.64 0 0 1 .386.373v.029a.844.844 0 0 1-.337 1.041M118.014 150.043l-22.53 13.059a.65.65 0 0 1-.54.067.65.65 0 0 1-.4-.37v-.03a.84.84 0 0 1 .355-1.049l22.529-13.059a.64.64 0 0 1 .77.083.6.6 0 0 1 .153.229v.029a.843.843 0 0 1-.337 1.041"/><path fill="#455A64" d="M75.558 160.432a6.75 6.75 0 0 1-1.808 2.503.6.6 0 0 1-.26.168c-.157.03-.207-.101-.228-.278a3.6 3.6 0 0 1 .055-.876q.102-.864.244-1.723.236-1.382.505-2.76.247-.58.468-1.179a31 31 0 0 0 1.074-3.535c.282-1.179.544-2.464.329-3.682-.021-.117-.177-.21-.236-.08-.506 1.121-.682 2.478-.935 3.712l-.885 4.297-.059.286a26 26 0 0 1-1.525 3.097 7.4 7.4 0 0 1-.632 1.015c-.324.388-.746.265-.94-.228a1.4 1.4 0 0 1-.084-.328c.303-.307.554-.659.746-1.045q.355-.648.603-1.344a10 10 0 0 0 .391-1.525c.055-.341.181-.863-.025-1.15s-.501-.029-.661.24a10 10 0 0 0-.653 1.39 8.6 8.6 0 0 0-.657 3.248c-.034.026-.064.055-.102.081a.58.58 0 0 1-.647.076.58.58 0 0 1-.317-.569c0-.165-.198-.232-.266-.089-.227.506-.244 1.138-.518 1.605-.126.211-.358.472-.564.32a.46.46 0 0 1-.165-.37c.026-.076.055-.148.076-.224.055-.16-.16-.273-.236-.164a.6.6 0 0 0-.114.329q-.195.564-.42 1.103a3.7 3.7 0 0 1 0-1.158c.024-.152-.233-.253-.262-.089a11 11 0 0 1-.421 1.509q-.134.373-.3.733c-.099.277-.24.537-.42.771-.085.084-.207.164-.312.101-.106-.064-.123-.325-.127-.489 0-.274 0-.552.021-.843q.062-.813.257-1.605c.042-.181-.215-.299-.27-.118q-.367 1.26-.905 2.456a14 14 0 0 1-.556 1.121c-.093.169-.337.544-.54.535.043-.076.08-.152.123-.223a19 19 0 0 0 1.167-2.667c.335-.924.555-1.886.653-2.865a.8.8 0 0 0-.236-.724 4.4 4.4 0 0 0 .033-1.5c-.164-.88-.817-1.205-1.457-1.002-.767.24-1.373 1.011-1.904 1.739a18.4 18.4 0 0 0-2.49 4.773q-.465 1.338-.746 2.726c-.177.876-.421 1.938-.118 2.802.717 2.055 2.71.164 3.514-.843a14 14 0 0 0 1.264-1.955.58.58 0 0 0 .636-.21 4.2 4.2 0 0 0 .644-1.087c.224-.464.421-.94.615-1.428v.543c-.036.306 0 .616.106.906a.46.46 0 0 0 .45.244c.451-.042.717-.762.915-1.213q.228-.523.391-1.07.044.282.13.556a.13.13 0 0 0 .107.1.13.13 0 0 0 .076-.012.13.13 0 0 0 .054-.054q.257-.552.468-1.125a.6.6 0 0 0 .58.295c.62-.152.73-1.032.928-1.723.083.159.21.29.366.379a.85.85 0 0 0 .893-.063c.058.273.194.523.392.72a.636.636 0 0 0 .88.055c.336-.352.612-.756.818-1.197q.392-.683.754-1.398l.27-.561c-.156.78-.3 1.563-.422 2.351q-.076.499-.135 1.003a4 4 0 0 0-.05.842c.05.464.345.721.695.578.224-.118.425-.275.594-.464q.34-.325.623-.699c.39-.52.712-1.086.96-1.685.077-.139-.189-.261-.26-.089m-.586-7.423c.143-.695.278-1.39.421-2.081q.137-.676.354-1.331a8.4 8.4 0 0 1-.236 2.245 48 48 0 0 1-.648 2.528 35 35 0 0 1-.455 1.382c.19-.91.379-1.833.564-2.751zm-12.71 13.725a8.8 8.8 0 0 1-1.52 1.833 4.5 4.5 0 0 1-.877.607c-.303.16-.636.278-.922.025-.552-.485-.489-1.487-.375-2.241q.18-1.17.497-2.309a19.6 19.6 0 0 1 1.727-4.267 17 17 0 0 1 1.222-1.909c.48-.64 1.049-1.348 1.752-1.491 1.003-.202 1.066.982.868 2.165a1.36 1.36 0 0 0-.788.502 5.9 5.9 0 0 0-1.078 2.485 8 8 0 0 0-.152.876c-.25.169-.541.267-.842.287-.443 0-.38-.737-.333-1.133q.078-.653.32-1.264c.042-.101-.13-.249-.177-.143-.194.45-.326.925-.392 1.411-.096.405-.044.831.148 1.201.227.303.602.231.893.147q.174-.057.341-.135a6.7 6.7 0 0 0 .063 1.563c.032.272.107.536.224.784-.186.337-.392.674-.599.998zm2.305-7.229a9.3 9.3 0 0 1-.46 1.576 4.4 4.4 0 0 1-1.15 1.685 8.3 8.3 0 0 1 .531-1.862c.142-.372.343-.719.594-1.028a1.3 1.3 0 0 1 .422-.345zm-1.534 5.898c-.034-.122-.055-.265-.076-.362a5 5 0 0 1-.08-.624 6.6 6.6 0 0 1 0-1.221q.204-.137.384-.304a5.34 5.34 0 0 0 1.344-2.359c.088-.282.176-.598.248-.922v.088q.014.15 0 .299a12.5 12.5 0 0 1-.543 2.418 18 18 0 0 1-1.277 2.996zm7.663-5.813a10 10 0 0 1 .716-2.456c.145-.39.339-.76.578-1.1.02-.029.143-.16.18-.126.039.033.026.13.026.156q.015.15 0 .303a8 8 0 0 1-.114.682 8.7 8.7 0 0 1-.935 2.574 5 5 0 0 1-.518.788q.004-.413.067-.821m13.574-4.066-.131-.029a28 28 0 0 0 .025-1.967 39 39 0 0 0-.24-3.72c0-.127-.03-.253-.05-.379q.096-.569.16-1.142c.076-.746.126-1.685-.422-2.128-.071-.059-.185-.054-.202.076a9 9 0 0 0 .13 2.579c0 .143.039.29.056.421a18 18 0 0 1-.38 1.807q-.293 1.144-.733 2.241-.216.546-.463 1.07c-.14.381-.397.708-.733.935a.95.95 0 0 1-.088-.471c0-.156-.203-.262-.245-.085q-.013.063-.033.123.049-.633.143-1.264c.02-.139-.202-.257-.24-.11a7.6 7.6 0 0 1-.48 1.39 6 6 0 0 1-.363.679c-.076.126-.24.421-.38.387-.315-.042-.08-1.264 0-1.516 0-.076.039-.148.06-.224.16-.366.307-.745.421-1.133.055-.152-.151-.291-.219-.152q-.181.376-.312.771a17 17 0 0 1-1.318 2.528c-.308.48-.712 1.226-1.222 1.306-.295.042-.392-.219-.4-.556a9.7 9.7 0 0 0 1.34-1.858c.273-.497 1.613-3.239.375-3.122-.54.051-.877.755-1.113 1.315-.295.695-.52 1.417-.674 2.157-.071.354-.135.716-.172 1.078a3 3 0 0 0 0 .32q-.585.625-1.285 1.117c-.101.067.05.265.139.206a8.4 8.4 0 0 0 1.175-.965q.025.142.088.27c.304.573.919.291 1.264-.067a9.4 9.4 0 0 0 1.323-2.001c.072-.135.143-.27.21-.422-.058.422-.084.995.22 1.155.303.16.67-.346.842-.67q.195-.348.346-.716c0 .147-.021.295-.025.421-.005.126.105.223.185.168a.8.8 0 0 0 .185-.185q.046.165.135.312.026.036.066.055.041.018.086.012c.712-.21 1.095-1.293 1.411-2.06.34-.821.622-1.666.843-2.527.058-.241.117-.485.168-.729.05.526.093 1.053.118 1.58q.12 1.796.03 3.593a2.83 2.83 0 0 0-1.652.573 7.4 7.4 0 0 0-1.828 1.634 3.4 3.4 0 0 0-.712 2.271c.05.779.421 1.449 1.023 1.63 1.264.388 2.343-1.263 2.827-2.59.349-1.032.552-2.106.603-3.194a1 1 0 0 1 .139 0c.151.131.151-.143-.021-.185zm-7.516.287q.166-.886.468-1.736c.156-.59.444-1.138.842-1.601.08-.075.295-.24.392-.177.097.064.13.312.105.498q-.075.476-.248.926a9.5 9.5 0 0 1-.78 1.601 10 10 0 0 1-.897 1.264c.025-.308.084-.598.118-.763zm6.968-7.419c-.1-.6-.128-1.209-.084-1.815.257.471.168 1.238.084 1.828zm-.076 8.914c-.265 1.471-.864 3.151-1.993 3.792a.98.98 0 0 1-.859.145.98.98 0 0 1-.636-.596 2.76 2.76 0 0 1 .164-2.262 5.7 5.7 0 0 1 1.808-1.875 3.2 3.2 0 0 1 1.71-.741 16 16 0 0 1-.194 1.55z"/><path fill="#F7921E" d="m93.973 200.117 61.327-35.301 30.666 17.653-61.331 35.296z"/><path fill="#fff" d="m93.973 200.117 61.327-35.301 30.666 17.653-61.331 35.296z" opacity=".7"/><path fill="#F7921E" d="m155.319 166.676-58.117 33.441 27.437 15.793 58.099-33.427zm-30.68 48.304-25.818-14.863 56.498-32.511 25.805 14.877z"/><path fill="#F7921E" d="M128.533 198.031c-2.742-1.577-4.248-3.739-4.248-6.08 0-2.553 1.846-5.078 5.065-6.933 6.306-3.63 16.203-3.838 22.061-.472 2.747 1.576 4.248 3.738 4.248 6.079 0 2.554-1.846 5.083-5.065 6.934-3.304 1.888-7.594 2.865-11.771 2.865-3.8-.005-7.5-.784-10.29-2.393m1.081-12.541c-3.04 1.756-4.786 4.111-4.786 6.461 0 2.139 1.416 4.13 3.984 5.608 5.706 3.304 15.354 3.077 21.509-.472 3.044-1.756 4.79-4.107 4.79-6.462 0-2.138-1.416-4.13-3.983-5.607-2.714-1.563-6.32-2.337-10.016-2.337-4.078.01-8.269.954-11.498 2.809"/><path fill="#F7921E" d="M129.529 196.317c-2.105-1.213-3.266-2.761-3.266-4.366 0-1.827 1.487-3.729 4.073-5.221 2.88-1.656 6.807-2.605 10.776-2.605 3.597 0 6.896.76 9.298 2.143 2.106 1.213 3.262 2.761 3.262 4.366 0 1.827-1.482 3.729-4.069 5.22-2.879 1.657-6.806 2.606-10.775 2.606-3.597 0-6.901-.76-9.299-2.143" opacity=".5"/><path fill="#F7921E" d="M126.117 210.705a3.3 3.3 0 0 0-2.96 0l-1.746 1.005-16.817-9.619 2.029-1.161c.34-.203.533-.449.529-.699s-.189-.472-.534-.689l-2.02-1.166 18.46-10.7-.363.783a7.3 7.3 0 0 0-.68 3.016c0 2.998 3.011 6.07 5.994 7.784a25.64 25.64 0 0 0 11.734 3.096q1.826.001 3.635-.231l1.35-.17-16.86 9.761z" opacity=".5"/><path fill="#fff" d="M117.97 204.313a1.88 1.88 0 0 1-1.086-1.581c0-.665.472-1.312 1.275-1.779 1.505-.869 3.88-.916 5.286-.104a1.89 1.89 0 0 1 1.086 1.581c0 .666-.472 1.312-1.27 1.775a5.75 5.75 0 0 1-2.832.684 5.05 5.05 0 0 1-2.459-.576" opacity=".4"/><path fill="#F7921E" d="M157.207 194.095c.455-1.173.695-2.418.708-3.676 0-2.493-1.968-4.886-5.853-7.123-3.105-1.789-7.877-2.992-11.87-2.992a29 29 0 0 0-3.639.231l-1.365.179 16.827-9.671 1.747 1.01a3.35 3.35 0 0 0 2.954 0l1.747-1.01 16.803 9.553-2.03 1.171c-.339.198-.528.439-.528.689a.89.89 0 0 0 .528.694l2.025 1.166-18.408 10.577z" opacity=".5"/><path fill="#fff" d="M156.565 182.186a1.9 1.9 0 0 1-1.085-1.581c0-.666.472-1.312 1.269-1.775 1.511-.873 3.88-.92 5.287-.108a1.88 1.88 0 0 1 1.085 1.581c0 .665-.472 1.312-1.269 1.779a5.8 5.8 0 0 1-2.832.685 5.06 5.06 0 0 1-2.455-.581" opacity=".4"/><path fill="#F7921E" d="M93.973 200.117v7.434l30.662 17.648v-7.434z"/><path fill="#fff" d="M93.973 200.117v7.434l30.662 17.648v-7.434z" opacity=".2"/><g fill="#000" opacity=".1"><path d="m124.635 219.422-9.681-5.371 9.685 5.824zM93.973 203.648l3.229 2.044-3.229-1.671zM93.973 205.418l16.138 9.563-16.138-9.016zM124.639 221.194l-16.138-8.997 16.138 9.582z"/></g><path fill="#F7921E" d="m124.635 225.199 61.331-35.301v-7.429l-61.331 35.296z"/><path fill="#000" d="m124.635 225.199 61.331-35.301v-7.429l-61.331 35.296z" opacity=".2"/><path fill="#000" d="m124.635 219.422 3.233-1.656-3.229 2.109zM124.639 221.192l16.228-9.044-16.228 9.629zM185.966 185.967l-11.299 6.721 11.294-6.287zM185.966 187.836l-6.457 3.922 6.453-3.507z" opacity=".3"/><path fill="#FAFAFA" d="m119.296 184.311 31.728 18.266 9.681-5.57-31.728-18.271z"/><path fill="#E0E0E0" d="M160.705 197.006v8.085l-9.681 5.57v-8.086zM151.024 210.661l-.566-.326.566-.325zM119.296 184.311v1.231l1.072-.618z"/><path fill="#000" d="M150.458 210.331v-7.424l.566-.331v7.429z" opacity=".3"/><path fill="#000" d="m150.458 202.907-30.662-17.653.572-.33 30.656 17.653z" opacity=".2" style="mix-blend-mode:multiply"/><path fill="#455A64" d="m120.339 183.711 31.733 18.266.807-.467-31.733-18.262zM127.117 179.806l31.737 18.267.808-.463-31.733-18.266z"/><path fill="#263238" d="M152.072 201.977v8.085l.807-.467v-8.085zM158.854 198.074v8.085l.808-.467v-8.081z"/><path fill="#F7921E" d="m93.544 191.149 61.327-35.301 30.666 17.652-61.332 35.297z"/><path fill="#fff" d="m93.544 191.149 61.327-35.301 30.666 17.652-61.332 35.297z" opacity=".7"/><path fill="#F7921E" d="m154.89 157.707-58.117 33.441 27.437 15.793 58.098-33.427zm-30.68 48.305-25.819-14.864 56.499-32.511 25.804 14.877z"/><path fill="#F7921E" d="M128.104 189.062c-2.743-1.577-4.248-3.738-4.248-6.079 0-2.554 1.845-5.079 5.064-6.934 6.306-3.63 16.204-3.837 22.062-.472 2.747 1.576 4.248 3.738 4.248 6.079 0 2.554-1.846 5.084-5.065 6.934-3.304 1.888-7.594 2.865-11.772 2.865-3.799-.005-7.5-.784-10.289-2.393m1.081-12.541c-3.04 1.756-4.786 4.111-4.786 6.462 0 2.138 1.416 4.13 3.983 5.607 5.707 3.304 15.354 3.077 21.509-.472 3.045-1.756 4.791-4.106 4.791-6.462 0-2.138-1.416-4.13-3.984-5.607-2.714-1.562-6.32-2.336-10.015-2.336-4.079.009-8.27.953-11.498 2.808"/><path fill="#F7921E" d="M129.1 187.348c-2.105-1.213-3.267-2.761-3.267-4.366 0-1.827 1.487-3.729 4.074-5.22 2.879-1.657 6.806-2.606 10.776-2.606 3.596 0 6.896.76 9.298 2.143 2.105 1.213 3.262 2.761 3.262 4.366 0 1.827-1.483 3.729-4.069 5.22-2.879 1.657-6.806 2.606-10.776 2.606-3.597 0-6.901-.76-9.298-2.143" opacity=".5"/><path fill="#F7921E" d="M125.687 201.736a3.3 3.3 0 0 0-2.959 0l-1.747 1.005-16.817-9.619 2.03-1.161c.34-.203.533-.449.528-.699-.004-.25-.188-.472-.533-.689l-2.02-1.166 18.46-10.7-.364.784a7.26 7.26 0 0 0-.679 3.016c0 2.997 3.011 6.07 5.994 7.783a25.64 25.64 0 0 0 11.734 3.096 28 28 0 0 0 3.634-.231l1.35-.17-16.86 9.761z" opacity=".5"/><path fill="#fff" d="M117.54 195.345a1.9 1.9 0 0 1-1.085-1.581c0-.666.472-1.313 1.274-1.78 1.506-.868 3.88-.916 5.287-.104a1.9 1.9 0 0 1 1.085 1.581c0 .666-.472 1.313-1.269 1.775a5.77 5.77 0 0 1-2.832.685 5.06 5.06 0 0 1-2.46-.576" opacity=".4"/><path fill="#F7921E" d="M156.778 185.127c.454-1.174.694-2.419.708-3.677 0-2.492-1.968-4.885-5.853-7.123-3.106-1.789-7.878-2.992-11.871-2.992a29 29 0 0 0-3.639.231l-1.364.179 16.827-9.671 1.746 1.01a3.35 3.35 0 0 0 2.955 0l1.746-1.01 16.804 9.553-2.03 1.171c-.34.198-.529.439-.529.689a.89.89 0 0 0 .529.694l2.025 1.166-18.408 10.577z" opacity=".5"/><path fill="#fff" d="M156.136 173.217a1.88 1.88 0 0 1-1.086-1.581c0-.665.472-1.312 1.27-1.775 1.51-.873 3.88-.92 5.286-.108a1.88 1.88 0 0 1 1.086 1.581c0 .666-.472 1.312-1.27 1.779a5.8 5.8 0 0 1-2.832.685 5.04 5.04 0 0 1-2.454-.581" opacity=".4"/><path fill="#F7921E" d="M93.544 191.148v7.434l30.661 17.649v-7.434z"/><path fill="#fff" d="M93.544 191.148v7.434l30.661 17.649v-7.434z" opacity=".2"/><g fill="#000" opacity=".1"><path d="m124.205 210.453-9.681-5.371 9.686 5.825zM93.544 194.68l3.228 2.043-3.228-1.67zM93.544 196.449l16.138 9.563-16.138-9.015zM124.21 212.225l-16.138-8.996 16.138 9.581z"/></g><path fill="#F7921E" d="m124.205 216.23 61.332-35.301V173.5l-61.332 35.296z"/><path fill="#000" d="m124.205 216.23 61.332-35.301V173.5l-61.332 35.296z" opacity=".2"/><path fill="#000" d="m124.205 210.454 3.233-1.657-3.228 2.11zM124.21 212.223l16.227-9.043-16.227 9.628zM185.537 176.998l-11.3 6.721 11.295-6.287zM185.537 178.867l-6.457 3.923 6.452-3.507z" opacity=".3"/><path fill="#FAFAFA" d="m118.867 175.342 31.728 18.266 9.68-5.569-31.728-18.271z"/><path fill="#E0E0E0" d="M160.275 188.037v8.085l-9.681 5.57v-8.085zM150.594 201.692l-.566-.325.566-.326zM118.867 175.342v1.232l1.071-.619z"/><path fill="#000" d="M150.028 201.362v-7.424l.566-.331v7.43z" opacity=".3"/><path fill="#000" d="m150.028 193.938-30.661-17.653.571-.33 30.656 17.653z" opacity=".2" style="mix-blend-mode:multiply"/><path fill="#455A64" d="m119.91 174.742 31.732 18.266.808-.467-31.733-18.262zM126.688 170.838l31.737 18.266.807-.463-31.732-18.266z"/><path fill="#263238" d="M151.642 193.008v8.086l.807-.468v-8.085zM158.425 189.105v8.086l.807-.468v-8.08z"/><path fill="#F7921E" d="M99.043 212.177a9.14 9.14 0 0 0-3.403-3.149c-5.56-3.209-14.58-3.209-20.14 0a9.14 9.14 0 0 0-3.403 3.149h-.77v2.907c.104 2.025 1.487 4.031 4.163 5.574 5.56 3.21 14.58 3.21 20.14 0 2.677-1.543 4.07-3.549 4.173-5.574v-2.907z"/><path fill="#000" d="M99.043 212.177a9.14 9.14 0 0 0-3.403-3.149c-5.56-3.209-14.58-3.209-20.14 0a9.14 9.14 0 0 0-3.403 3.149h-.77v2.907c.104 2.025 1.487 4.031 4.163 5.574 5.56 3.21 14.58 3.21 20.14 0 2.677-1.543 4.07-3.549 4.173-5.574v-2.907z" opacity=".25"/><path fill="#000" d="M85.572 206.621c-3.648 0-7.292.802-10.072 2.407a9.14 9.14 0 0 0-3.403 3.149h-.77v2.907c.104 2.025 1.487 4.031 4.163 5.574 2.78 1.605 6.424 2.408 10.073 2.408z" opacity=".1"/><path fill="#000" d="M77.789 207.971q-1.19.44-2.29 1.071a9.15 9.15 0 0 0-3.402 3.148h-.77v2.908c.104 2.025 1.487 4.031 4.163 5.574.732.42 1.498.779 2.29 1.072z" opacity=".1"/><path fill="#F7921E" d="M93.346 207.971q1.191.44 2.294 1.071a9.15 9.15 0 0 1 3.403 3.148h.77v2.908c-.105 2.025-1.497 4.031-4.173 5.574q-1.103.631-2.294 1.072z" opacity=".5"/><path fill="#F7921E" d="M75.5 206.361c-5.565 3.21-5.565 8.421 0 11.63 4.866 2.809 12.375 3.163 17.907 1.053l.217-.085a16 16 0 0 0 2.016-.944c4.64-2.681 5.409-6.745 2.313-9.884a10.8 10.8 0 0 0-2.308-1.746c-5.565-3.233-14.585-3.233-20.145-.024"/><path fill="#000" d="M75.5 206.361c-5.565 3.21-5.565 8.421 0 11.63 4.866 2.809 12.375 3.163 17.907 1.053l.217-.085a16 16 0 0 0 2.016-.944c4.64-2.681 5.409-6.745 2.313-9.884a10.8 10.8 0 0 0-2.308-1.746c-5.565-3.233-14.585-3.233-20.145-.024" opacity=".2"/><path fill="#F5F5F5" d="M97.953 208.107a6.25 6.25 0 0 1 1.486 5.056c-.472 2.832-4.45 5.192-5.815 5.777a16 16 0 0 0 2.016-.944c4.639-2.686 5.399-6.75 2.313-9.889M73.192 216.246a6.22 6.22 0 0 1-1.487-5.074c.472-2.832 4.446-5.192 5.81-5.777q-1.04.4-2.01.944c-4.645 2.699-5.414 6.768-2.313 9.907" opacity=".5"/><path fill="#F7921E" d="M94.937 217.572c5.192-2.988 5.192-7.826 0-10.813s-13.556-2.983-18.725 0c-5.168 2.983-5.192 7.825 0 10.813s13.551 2.983 18.725 0"/><path fill="#fff" d="M94.937 217.572c5.192-2.988 5.192-7.826 0-10.813s-13.556-2.983-18.725 0c-5.168 2.983-5.192 7.825 0 10.813s13.551 2.983 18.725 0" opacity=".4"/><path fill="#fff" d="M98.208 214.446c1.066-1.968.717-4.135-1.039-5.975a9 9 0 0 0-1.123-.982q-.513-.385-1.072-.703a9 9 0 0 0-.651-.354c.548.906.35 1.888-2.77 2.058-6.104.354 1.633 6.187 1.633 6.187s3.936-1.902 5.022-.231" opacity=".2"/><path fill="#fff" d="M97.584 212.832c.916-.099 1.37-1.043 1.01-2.1-.358-1.058-1.382-1.836-2.298-1.732-.916.103-1.374 1.043-1.015 2.105s1.388 1.831 2.303 1.727" opacity=".5"/><path fill="#F7921E" d="M87.932 217.693c-.302-2.265-10.21-8.538-10.21-8.538s-2.194-.883-1.467-2.417q-.546.315-1.057.685a9 9 0 0 0-.642.509c-2.95 2.554-2.955 5.91 0 8.463.198.175.415.345.642.51a11.665 11.665 0 0 0 2.034 1.19q.432.203.892.387c.307.122.609.231.944.335.965.311 1.953.548 2.955.708l.665.094c2.184.284 4.397.248 6.57-.108 0 0-1.61-.326-1.326-1.818"/><path fill="#fff" d="M87.932 217.693c-.302-2.265-10.21-8.538-10.21-8.538s-2.194-.883-1.467-2.417q-.546.315-1.057.685a9 9 0 0 0-.642.509c-2.95 2.554-2.955 5.91 0 8.463.198.175.415.345.642.51a11.665 11.665 0 0 0 2.034 1.19q.432.203.892.387c.307.122.609.231.944.335.965.311 1.953.548 2.955.708l.665.094c2.184.284 4.397.248 6.57-.108 0 0-1.61-.326-1.326-1.818" opacity=".3"/><path fill="#F7921E" d="M78.596 208.136c-3.696 2.133-3.847 5.536-.472 7.774.146.099.297.189.472.283 3.852 2.223 10.096 2.223 13.948 0 3.851-2.223 3.851-5.829 0-8.057-.156-.09-.317-.175-.472-.26-3.885-1.959-9.78-1.874-13.476.26"/><path fill="#000" d="M78.596 208.136c-3.696 2.133-3.847 5.536-.472 7.774.146.099.297.189.472.283 3.852 2.223 10.096 2.223 13.948 0 3.851-2.223 3.851-5.829 0-8.057-.156-.09-.317-.175-.472-.26-3.885-1.959-9.78-1.874-13.476.26" opacity=".2"/><path fill="#F7921E" d="M78.907 208.316c-3.681 2.124-3.681 5.574 0 7.698s9.653 2.124 13.334 0c3.682-2.124 3.682-5.574 0-7.698s-9.652-2.124-13.334 0"/><path fill="#000" d="M78.907 208.316c-3.681 2.124-3.681 5.574 0 7.698s9.653 2.124 13.334 0c3.682-2.124 3.682-5.574 0-7.698s-9.652-2.124-13.334 0" opacity=".5"/><path fill="#F7921E" d="M78.908 209.858c3.681-2.128 9.652-2.128 13.334 0 1.505.869 2.393 1.959 2.666 3.087-.273 1.133-1.16 2.223-2.666 3.092-3.682 2.124-9.653 2.124-13.335 0-1.505-.869-2.392-1.959-2.666-3.092.255-1.152 1.16-2.242 2.666-3.087"/><path fill="#000" d="M78.908 209.858c3.681-2.128 9.652-2.128 13.334 0 1.505.869 2.393 1.959 2.666 3.087-.273 1.133-1.16 2.223-2.666 3.092-3.682 2.124-9.653 2.124-13.335 0-1.505-.869-2.392-1.959-2.666-3.092.255-1.152 1.16-2.242 2.666-3.087" opacity=".35"/><path fill="#F7921E" d="M91.51 213.805v-1.128c0-.472-.316-.907-1.006-1.308a.1.1 0 0 0-.023 0 4.85 4.85 0 0 0-3.738-.34c-.496.128-.968.288-1.416.435q-.736.279-1.497.472-.35.079-.708.066a1.6 1.6 0 0 1-.59-.156l.048-.033q.07-.051.146-.09a3 3 0 0 1 .396-.198 2.72 2.72 0 0 1 2.096-.047l1.208-1.218v-1.123a5.75 5.75 0 0 0-3.304-.118q-.541.14-1.052.363l-1.208-.698-1.445.835v1.119l.496.283a1.2 1.2 0 0 0-.213.656v1.114c0 .472.33.906 1.03 1.312a4.2 4.2 0 0 0 1.991.571h.401a8 8 0 0 0 2.139-.472l.415-.146-1.218 1.222v1.119a5.925 5.925 0 0 0 4.663-.203l1.195.689 1.444-.831v-1.118l-.472-.288c.148-.219.226-.477.222-.741m-3.04-.099q-.162.096-.335.17c-.751.322-1.6.334-2.36.033 1.128-.397 2.072-.746 2.88-.317z"/><path fill="#F7921E" d="M86.743 211.01c-.496.127-.968.288-1.416.434q-.736.28-1.497.472-.35.08-.708.066a1.55 1.55 0 0 1-.689-.203c-.472-.269-.528-.661.147-1.104.042-.033.094-.062.146-.095q.192-.108.396-.193a2.72 2.72 0 0 1 2.096-.047l1.208-1.223a5.75 5.75 0 0 0-3.304-.118q-.541.14-1.052.364l-1.208-.699-1.445.835 1.194.69c-1.213.944-1.236 1.888.128 2.662.605.356 1.29.554 1.992.576h.4a8.1 8.1 0 0 0 2.139-.472c1.383-.472 2.506-1.011 3.436-.472.628.358.472.816-.231 1.208q-.162.096-.335.17a3.12 3.12 0 0 1-2.403 0l-1.27 1.269a5.94 5.94 0 0 0 4.664-.203l1.194.69 1.444-.831-1.194-.689c1.2-.944 1.336-1.94-.066-2.761a.1.1 0 0 0-.023 0 4.84 4.84 0 0 0-3.743-.326"/><path fill="#fff" d="M86.743 211.01c-.496.127-.968.288-1.416.434q-.736.28-1.497.472-.35.08-.708.066a1.55 1.55 0 0 1-.689-.203c-.472-.269-.528-.661.147-1.104.042-.033.094-.062.146-.095q.192-.108.396-.193a2.72 2.72 0 0 1 2.096-.047l1.208-1.223a5.75 5.75 0 0 0-3.304-.118q-.541.14-1.052.364l-1.208-.699-1.445.835 1.194.69c-1.213.944-1.236 1.888.128 2.662.605.356 1.29.554 1.992.576h.4a8.1 8.1 0 0 0 2.139-.472c1.383-.472 2.506-1.011 3.436-.472.628.358.472.816-.231 1.208q-.162.096-.335.17a3.12 3.12 0 0 1-2.403 0l-1.27 1.269a5.94 5.94 0 0 0 4.664-.203l1.194.69 1.444-.831-1.194-.689c1.2-.944 1.336-1.94-.066-2.761a.1.1 0 0 0-.023 0 4.84 4.84 0 0 0-3.743-.326" opacity=".3"/><path fill="#F5F5F5" d="m79.422 209.496 1.458-.661 1.195.524-1.209-.699zM82.957 209.042a6.7 6.7 0 0 1 3.101.104l-.835 1.184 1.208-1.217a5.73 5.73 0 0 0-3.474-.071M90.48 211.351a.1.1 0 0 1 .024 0c1.416.821 1.265 1.831.067 2.761 1.062-1.161.868-1.968-.284-2.634a5.46 5.46 0 0 0-3.544-.472 4.85 4.85 0 0 1 3.738.345M90.57 214.131l.916.703-1.166.817 1.445-.831zM88.135 213.875a3.1 3.1 0 0 1-2.299.198l-1.373 1.091 1.27-1.27a3.12 3.12 0 0 0 2.402-.019M83.835 211.911a1.88 1.88 0 0 1-1.727-.165c-.416-.359-.147-.741.472-1.076-.675.444-.61.835-.147 1.104.211.121.447.19.69.203q.36.015.712-.066M80.607 210.193c-.104.09-.973.902-.586 1.709.388.807 1.68 1.416 2.705 1.529a4.16 4.16 0 0 1-1.992-.576c-1.364-.783-1.34-1.741-.127-2.662" opacity=".45"/><path fill="#F7921E" d="M99.704 208.254a9.24 9.24 0 0 0-3.403-3.144c-5.565-3.209-14.58-3.209-20.145 0a9.2 9.2 0 0 0-3.399 3.144h-.77v2.912c.1 2.025 1.488 4.031 4.16 5.574 5.564 3.21 14.58 3.21 20.144 0 2.672-1.543 4.069-3.549 4.173-5.574v-2.912z"/><path fill="#000" d="M99.704 208.254a9.24 9.24 0 0 0-3.403-3.144c-5.565-3.209-14.58-3.209-20.145 0a9.2 9.2 0 0 0-3.399 3.144h-.77v2.912c.1 2.025 1.488 4.031 4.16 5.574 5.564 3.21 14.58 3.21 20.144 0 2.672-1.543 4.069-3.549 4.173-5.574v-2.912z" opacity=".25"/><path fill="#000" d="M86.228 202.703c-3.644 0-7.288.803-10.072 2.407a9.2 9.2 0 0 0-3.399 3.144h-.77v2.912c.1 2.025 1.488 4.031 4.16 5.574 2.784 1.605 6.428 2.408 10.072 2.408z" opacity=".1"/><path fill="#000" d="M78.45 204.035q-1.191.447-2.294 1.076a9.2 9.2 0 0 0-3.399 3.144h-.77v2.912c.1 2.025 1.488 4.031 4.16 5.574q1.102.629 2.293 1.072z" opacity=".1"/><path fill="#F7921E" d="M94.007 204.035q1.19.447 2.293 1.076a9.24 9.24 0 0 1 3.404 3.144h.769v2.912c-.104 2.025-1.501 4.031-4.172 5.574q-1.104.629-2.294 1.072z" opacity=".5"/><path fill="#F7921E" d="M76.156 202.444c-5.56 3.21-5.56 8.416 0 11.63 4.866 2.809 12.38 3.158 17.907 1.053l.222-.085a16 16 0 0 0 2.015-.968c4.635-2.681 5.41-6.745 2.309-9.883a10.9 10.9 0 0 0-2.309-1.747c-5.564-3.209-14.58-3.214-20.144 0"/><path fill="#000" d="M76.156 202.444c-5.56 3.21-5.56 8.416 0 11.63 4.866 2.809 12.38 3.158 17.907 1.053l.222-.085a16 16 0 0 0 2.015-.968c4.635-2.681 5.41-6.745 2.309-9.883a10.9 10.9 0 0 0-2.309-1.747c-5.564-3.209-14.58-3.214-20.144 0" opacity=".2"/><path fill="#F5F5F5" d="M98.609 204.195a6.22 6.22 0 0 1 1.486 5.07c-.472 2.832-4.45 5.192-5.815 5.777a16 16 0 0 0 2.016-.968c4.639-2.681 5.414-6.745 2.313-9.879M73.848 212.323a6.21 6.21 0 0 1-1.492-5.069c.496-2.832 4.45-5.192 5.815-5.777q-1.043.41-2.016.967c-4.635 2.695-5.409 6.74-2.308 9.879" opacity=".5"/><path fill="#F7921E" d="M95.597 213.636c5.169-2.983 5.169-7.821 0-10.809s-13.556-2.983-18.724 0-5.192 7.826 0 10.809 13.551 3.002 18.724 0"/><path fill="#fff" d="M95.597 213.636c5.169-2.983 5.169-7.821 0-10.809s-13.556-2.983-18.724 0-5.192 7.826 0 10.809 13.551 3.002 18.724 0" opacity=".4"/><path fill="#fff" d="M98.873 210.529c1.062-1.968.717-4.135-1.043-5.975a9 9 0 0 0-1.119-.982 11 11 0 0 0-1.071-.708 12 12 0 0 0-.652-.354c.548.906.345 1.888-2.77 2.058-6.103.358 1.628 6.188 1.628 6.188s3.936-1.898 5.027-.227" opacity=".2"/><path fill="#fff" d="M98.24 208.916c.916-.099 1.374-1.043 1.015-2.1-.358-1.058-1.387-1.836-2.303-1.732-.916.103-1.369 1.043-1.015 2.1s1.388 1.836 2.303 1.732" opacity=".5"/><path fill="#F7921E" d="M88.588 213.777c-.293-2.265-10.205-8.538-10.205-8.538s-2.194-.883-1.468-2.417a11 11 0 0 0-1.704 1.194c-2.945 2.554-2.95 5.905 0 8.463a10.166 10.166 0 0 0 1.624 1.147q.505.298 1.048.553c.288.136.59.264.892.382s.614.231.944.335c.965.316 1.953.554 2.955.713l.665.094q1.472.192 2.955.184c1.211 0 2.42-.097 3.615-.292 0 0-1.614-.326-1.321-1.818"/><path fill="#fff" d="M88.588 213.777c-.293-2.265-10.205-8.538-10.205-8.538s-2.194-.883-1.468-2.417a11 11 0 0 0-1.704 1.194c-2.945 2.554-2.95 5.905 0 8.463a10.166 10.166 0 0 0 1.624 1.147q.505.298 1.048.553c.288.136.59.264.892.382s.614.231.944.335c.965.316 1.953.554 2.955.713l.665.094q1.472.192 2.955.184c1.211 0 2.42-.097 3.615-.292 0 0-1.614-.326-1.321-1.818" opacity=".3"/><path fill="#F7921E" d="M79.252 204.218c-3.691 2.133-3.842 5.536-.472 7.774.141.094.293.189.472.278 3.851 2.228 10.096 2.228 13.948 0 3.851-2.228 3.851-5.829 0-8.052-.156-.09-.322-.179-.472-.26-3.885-1.959-9.78-1.874-13.476.26"/><path fill="#000" d="M79.252 204.218c-3.691 2.133-3.842 5.536-.472 7.774.141.094.293.189.472.278 3.851 2.228 10.096 2.228 13.948 0 3.851-2.228 3.851-5.829 0-8.052-.156-.09-.322-.179-.472-.26-3.885-1.959-9.78-1.874-13.476.26" opacity=".2"/><path fill="#F7921E" d="M79.568 204.398c-3.681 2.124-3.681 5.569 0 7.698s9.653 2.124 13.334 0c3.682-2.124 3.682-5.574 0-7.698s-9.652-2.129-13.334 0"/><path fill="#000" d="M79.568 204.398c-3.681 2.124-3.681 5.569 0 7.698s9.653 2.124 13.334 0c3.682-2.124 3.682-5.574 0-7.698s-9.652-2.129-13.334 0" opacity=".5"/><path fill="#F7921E" d="M79.568 205.913c3.682-2.124 9.652-2.124 13.334 0 1.506.874 2.393 1.964 2.667 3.092-.274 1.133-1.161 2.223-2.667 3.092-3.682 2.124-9.652 2.124-13.334 0-1.506-.869-2.398-1.959-2.671-3.092.273-1.128 1.165-2.218 2.671-3.092"/><path fill="#000" d="M79.568 205.913c3.682-2.124 9.652-2.124 13.334 0 1.506.874 2.393 1.964 2.667 3.092-.274 1.133-1.161 2.223-2.667 3.092-3.682 2.124-9.652 2.124-13.334 0-1.506-.869-2.398-1.959-2.671-3.092.273-1.128 1.165-2.218 2.671-3.092" opacity=".35"/><path fill="#F7921E" d="M92.17 209.887v-1.128c0-.472-.32-.906-1.005-1.312h-.023a4.8 4.8 0 0 0-1.835-.548 4.8 4.8 0 0 0-1.904.208c-.495.127-.967.288-1.416.434q-.734.28-1.496.472a2.6 2.6 0 0 1-.713.071 1.6 1.6 0 0 1-.59-.156l.048-.033.15-.094a3 3 0 0 1 .392-.194 2.72 2.72 0 0 1 2.096-.047l1.208-1.223v-1.118a5.73 5.73 0 0 0-3.304-.118 7 7 0 0 0-1.047.363l-1.209-.698-1.444.835v1.119l.495.283a1.17 1.17 0 0 0-.212.651v1.119c0 .472.33.906 1.029 1.307.605.357 1.29.555 1.992.576q.198.01.396 0a7.7 7.7 0 0 0 2.143-.472l.416-.141-1.218 1.222v1.119a5.94 5.94 0 0 0 4.663-.203l1.194.689 1.44-.836v-1.137l-.496-.283c.156-.212.243-.465.25-.727m-3.044-.099a3 3 0 0 1-.33.17c-.752.322-1.6.334-2.36.033 1.128-.397 2.072-.746 2.874-.317q-.089.061-.184.114"/><path fill="#F7921E" d="M87.403 207.093c-.495.128-.967.288-1.416.434q-.734.28-1.496.472a2.6 2.6 0 0 1-.713.071 1.5 1.5 0 0 1-.684-.208c-.472-.264-.533-.66.142-1.099l.15-.095q.19-.11.392-.193a2.72 2.72 0 0 1 2.096-.047l1.208-1.223a5.75 5.75 0 0 0-3.304-.118 7 7 0 0 0-1.047.364l-1.209-.699-1.444.835 1.194.69c-1.213.92-1.237 1.888.127 2.662.607.353 1.291.551 1.992.575q.199.012.397 0a7.7 7.7 0 0 0 2.143-.472c1.383-.472 2.501-1.005 3.436-.472.623.359.472.812-.236 1.209a3 3 0 0 1-.33.17 3.13 3.13 0 0 1-2.408 0l-1.265 1.274a5.95 5.95 0 0 0 4.664-.203l1.194.689 1.44-.835-1.195-.689c1.204-.944 1.34-1.94-.061-2.762h-.024a4.84 4.84 0 0 0-3.743-.33"/><path fill="#fff" d="M87.403 207.093c-.495.128-.967.288-1.416.434q-.734.28-1.496.472a2.6 2.6 0 0 1-.713.071 1.5 1.5 0 0 1-.684-.208c-.472-.264-.533-.66.142-1.099l.15-.095q.19-.11.392-.193a2.72 2.72 0 0 1 2.096-.047l1.208-1.223a5.75 5.75 0 0 0-3.304-.118 7 7 0 0 0-1.047.364l-1.209-.699-1.444.835 1.194.69c-1.213.92-1.237 1.888.127 2.662.607.353 1.291.551 1.992.575q.199.012.397 0a7.7 7.7 0 0 0 2.143-.472c1.383-.472 2.501-1.005 3.436-.472.623.359.472.812-.236 1.209a3 3 0 0 1-.33.17 3.13 3.13 0 0 1-2.408 0l-1.265 1.274a5.95 5.95 0 0 0 4.664-.203l1.194.689 1.44-.835-1.195-.689c1.204-.944 1.34-1.94-.061-2.762h-.024a4.84 4.84 0 0 0-3.743-.33" opacity=".3"/><path fill="#F5F5F5" d="m80.083 205.578 1.458-.661 1.194.524-1.208-.699zM83.618 205.14a6.7 6.7 0 0 1 3.101.104l-.84 1.189 1.213-1.222a5.72 5.72 0 0 0-3.474-.071M91.127 207.434h.024c1.416.821 1.265 1.836.061 2.761 1.067-1.156.874-1.963-.283-2.633a5.44 5.44 0 0 0-3.54-.472 4.826 4.826 0 0 1 3.738.344M91.226 210.209l.916.703-1.161.822 1.44-.836zM88.796 209.959a3.12 3.12 0 0 1-2.304.198l-1.368 1.091 1.264-1.275a3.124 3.124 0 0 0 2.407-.014M84.52 207.971a1.89 1.89 0 0 1-1.728-.16c-.416-.359-.151-.746.472-1.077-.675.439-.604.836-.142 1.1.208.123.443.195.685.208.24.009.48-.014.712-.071M81.267 206.277c-.103.09-.972.897-.59 1.709.383.812 1.68 1.416 2.71 1.529a4.24 4.24 0 0 1-1.992-.576c-1.364-.788-1.34-1.741-.128-2.662" opacity=".45"/><path fill="#F7921E" d="M97.009 205.364a9.2 9.2 0 0 0-3.404-3.148c-5.564-3.21-14.58-3.21-20.145 0a9.16 9.16 0 0 0-3.398 3.148h-.77v2.908c.105 2.024 1.487 4.03 4.159 5.574 5.565 3.209 14.585 3.209 20.145 0 2.676-1.544 4.069-3.55 4.172-5.574v-2.908z"/><path fill="#000" d="M97.009 205.364a9.2 9.2 0 0 0-3.404-3.148c-5.564-3.21-14.58-3.21-20.145 0a9.16 9.16 0 0 0-3.398 3.148h-.77v2.908c.105 2.024 1.487 4.03 4.159 5.574 5.565 3.209 14.585 3.209 20.145 0 2.676-1.544 4.069-3.55 4.172-5.574v-2.908z" opacity=".25"/><path fill="#000" d="M83.533 199.809c-3.644 0-7.288.802-10.073 2.407a9.16 9.16 0 0 0-3.398 3.148h-.77v2.908c.105 2.024 1.487 4.03 4.159 5.574 2.785 1.605 6.429 2.407 10.073 2.407z" opacity=".1"/><path fill="#000" d="M75.754 201.145q-1.191.44-2.294 1.071a9.16 9.16 0 0 0-3.398 3.148h-.77v2.908c.105 2.025 1.487 4.031 4.159 5.574q1.102.631 2.294 1.071z" opacity=".1"/><path fill="#F7921E" d="M91.312 201.145c.793.292 1.56.651 2.293 1.071a9.2 9.2 0 0 1 3.404 3.148h.769v2.908c-.104 2.025-1.496 4.031-4.173 5.574q-1.101.631-2.294 1.071z" opacity=".5"/><path fill="#F7921E" d="M73.46 199.55c-5.56 3.209-5.56 8.42 0 11.63 4.871 2.808 12.381 3.162 17.908 1.052l.217-.085a16 16 0 0 0 2.016-.967c4.64-2.681 5.409-6.745 2.308-9.884a11 11 0 0 0-2.308-1.746c-5.556-3.21-14.576-3.21-20.14 0"/><path fill="#000" d="M73.46 199.55c-5.56 3.209-5.56 8.42 0 11.63 4.871 2.808 12.381 3.162 17.908 1.052l.217-.085a16 16 0 0 0 2.016-.967c4.64-2.681 5.409-6.745 2.308-9.884a11 11 0 0 0-2.308-1.746c-5.556-3.21-14.576-3.21-20.14 0" opacity=".2"/><path fill="#F5F5F5" d="M95.913 201.297a6.22 6.22 0 0 1 1.492 5.074c-.472 2.832-4.451 5.192-5.815 5.777a16 16 0 0 0 2.015-.967c4.64-2.681 5.41-6.745 2.308-9.884M71.152 209.433a6.23 6.23 0 0 1-1.491-5.074c.472-2.832 4.45-5.192 5.815-5.777a15.5 15.5 0 0 0-2.011.968c-4.64 2.676-5.41 6.745-2.313 9.883" opacity=".5"/><path fill="#F7921E" d="M83.538 212.996c7.312 0 13.24-3.421 13.24-7.641s-5.928-7.642-13.24-7.642-13.24 3.421-13.24 7.642c0 4.22 5.928 7.641 13.24 7.641"/><path fill="#fff" d="M83.538 212.996c7.312 0 13.24-3.421 13.24-7.641s-5.928-7.642-13.24-7.642-13.24 3.421-13.24 7.642c0 4.22 5.928 7.641 13.24 7.641" opacity=".4"/><path fill="#fff" d="M96.178 207.636c1.062-1.969.717-4.135-1.039-5.976a9.3 9.3 0 0 0-1.123-.982q-.514-.385-1.072-.703a9 9 0 0 0-.65-.354c.547.906.349 1.888-2.772 2.058-6.102.354 1.629 6.188 1.629 6.188s3.936-1.902 5.027-.231" opacity=".2"/><path fill="#fff" d="M95.55 206.022c.916-.1 1.369-1.043 1.01-2.101-.359-1.057-1.388-1.836-2.303-1.732-.916.104-1.369 1.043-1.01 2.105.358 1.062 1.387 1.831 2.303 1.728" opacity=".5"/><path fill="#F7921E" d="M85.898 210.883c-.302-2.266-10.21-8.539-10.21-8.539s-2.195-.882-1.468-2.416q-.546.314-1.057.684a8 8 0 0 0-.642.51c-2.95 2.553-2.955 5.909 0 8.463.198.175.415.344.642.51q.475.346.982.642c.335.193.689.377 1.048.547.358.17.59.264.892.387s.613.231.944.335c.965.311 1.953.548 2.955.708l.665.095c2.184.284 4.397.247 6.57-.109 0 0-1.605-.326-1.321-1.817"/><path fill="#fff" d="M85.898 210.883c-.302-2.266-10.21-8.539-10.21-8.539s-2.195-.882-1.468-2.416q-.546.314-1.057.684a8 8 0 0 0-.642.51c-2.95 2.553-2.955 5.909 0 8.463.198.175.415.344.642.51q.475.346.982.642c.335.193.689.377 1.048.547.358.17.59.264.892.387s.613.231.944.335c.965.311 1.953.548 2.955.708l.665.095c2.184.284 4.397.247 6.57-.109 0 0-1.605-.326-1.321-1.817" opacity=".3"/><path fill="#F7921E" d="M76.562 201.325c-3.696 2.134-3.847 5.537-.472 7.774.146.099.297.189.472.283 3.851 2.223 10.096 2.223 13.947 0 3.852-2.223 3.852-5.829 0-8.057-.156-.089-.32-.174-.472-.259-3.884-1.959-9.766-1.874-13.475.259"/><path fill="#000" d="M76.562 201.325c-3.696 2.134-3.847 5.537-.472 7.774.146.099.297.189.472.283 3.851 2.223 10.096 2.223 13.947 0 3.852-2.223 3.852-5.829 0-8.057-.156-.089-.32-.174-.472-.259-3.884-1.959-9.766-1.874-13.475.259" opacity=".2"/><path fill="#F7921E" d="M83.538 210.793c5.208 0 9.43-2.437 9.43-5.443s-4.222-5.442-9.43-5.442c-5.209 0-9.431 2.437-9.431 5.442s4.222 5.443 9.43 5.443"/><path fill="#000" d="M83.538 210.793c5.208 0 9.43-2.437 9.43-5.443s-4.222-5.442-9.43-5.442c-5.209 0-9.431 2.437-9.431 5.442s4.222 5.443 9.43 5.443" opacity=".5"/><path fill="#F7921E" d="M76.873 203.024c3.682-2.128 9.652-2.128 13.334 0 1.506.869 2.393 1.959 2.667 3.087-.274 1.133-1.161 2.223-2.667 3.092-3.682 2.124-9.652 2.124-13.334 0-1.506-.869-2.393-1.959-2.672-3.092.279-1.128 1.166-2.218 2.672-3.087"/><path fill="#000" d="M76.873 203.024c3.682-2.128 9.652-2.128 13.334 0 1.506.869 2.393 1.959 2.667 3.087-.274 1.133-1.161 2.223-2.667 3.092-3.682 2.124-9.652 2.124-13.334 0-1.506-.869-2.393-1.959-2.672-3.092.279-1.128 1.166-2.218 2.672-3.087" opacity=".35"/><path fill="#F7921E" d="M89.476 206.993v-1.128c0-.472-.317-.906-1.006-1.308a.1.1 0 0 0-.023 0 4.85 4.85 0 0 0-3.739-.339c-.472.127-.944.288-1.416.434q-.735.279-1.496.472a2.8 2.8 0 0 1-.713.066 1.6 1.6 0 0 1-.59-.156l.047-.033q.075-.049.151-.09a3 3 0 0 1 .392-.198 2.73 2.73 0 0 1 2.1-.047l1.209-1.218v-1.142a5.77 5.77 0 0 0-3.304-.118 7 7 0 0 0-1.048.363l-1.184-.717-1.445.835v1.119l.496.283a1.2 1.2 0 0 0-.213.656v1.114c0 .472.33.906 1.03 1.312a4.2 4.2 0 0 0 1.991.572h.397a8.2 8.2 0 0 0 2.142-.472l.416-.147-1.218 1.223v1.118a5.94 5.94 0 0 0 4.663-.203l1.195.69 1.44-.831v-1.119l-.473-.288c.131-.211.2-.455.198-.703m-3.04-.099a3.097 3.097 0 0 1-2.695.203c1.128-.397 2.072-.746 2.874-.316z"/><path fill="#F7921E" d="M84.708 204.194c-.472.127-.944.288-1.416.434q-.735.28-1.496.472a2.8 2.8 0 0 1-.713.066 1.54 1.54 0 0 1-.684-.203c-.472-.269-.534-.66.141-1.104q.075-.05.151-.09a3 3 0 0 1 .392-.198 2.737 2.737 0 0 1 2.1-.047l1.209-1.223a5.77 5.77 0 0 0-3.304-.118 7 7 0 0 0-1.048.364l-1.184-.713-1.445.835 1.194.69c-1.213.944-1.236 1.888.128 2.666.606.353 1.29.55 1.992.571h.396a8 8 0 0 0 2.143-.472c1.383-.472 2.506-1.01 3.436-.472.628.364.472.817-.231 1.209a3 3 0 0 1-.335.17 3.12 3.12 0 0 1-2.403 0l-1.27 1.269a5.94 5.94 0 0 0 4.664-.203l1.194.69 1.44-.831-1.19-.689c1.2-.944 1.336-1.94-.066-2.761a.1.1 0 0 0-.023 0 4.8 4.8 0 0 0-1.855-.539 4.8 4.8 0 0 0-1.917.227"/><path fill="#fff" d="M84.708 204.194c-.472.127-.944.288-1.416.434q-.735.28-1.496.472a2.8 2.8 0 0 1-.713.066 1.54 1.54 0 0 1-.684-.203c-.472-.269-.534-.66.141-1.104q.075-.05.151-.09a3 3 0 0 1 .392-.198 2.737 2.737 0 0 1 2.1-.047l1.209-1.223a5.77 5.77 0 0 0-3.304-.118 7 7 0 0 0-1.048.364l-1.184-.713-1.445.835 1.194.69c-1.213.944-1.236 1.888.128 2.666.606.353 1.29.55 1.992.571h.396a8 8 0 0 0 2.143-.472c1.383-.472 2.506-1.01 3.436-.472.628.364.472.817-.231 1.209a3 3 0 0 1-.335.17 3.12 3.12 0 0 1-2.403 0l-1.27 1.269a5.94 5.94 0 0 0 4.664-.203l1.194.69 1.44-.831-1.19-.689c1.2-.944 1.336-1.94-.066-2.761a.1.1 0 0 0-.023 0 4.8 4.8 0 0 0-1.855-.539 4.8 4.8 0 0 0-1.917.227" opacity=".3"/><path fill="#F5F5F5" d="m77.388 202.683 1.458-.661 1.194.524-1.208-.698zM80.923 202.231a6.7 6.7 0 0 1 3.1.104l-.835 1.19 1.209-1.218a5.77 5.77 0 0 0-3.474-.076M88.447 204.538a.1.1 0 0 1 .023 0c1.416.821 1.265 1.831.066 2.761 1.062-1.161.869-1.968-.288-2.633a5.45 5.45 0 0 0-3.54-.472 4.85 4.85 0 0 1 3.739.344M88.536 207.318l.911.704-1.161.816 1.44-.831zM86.1 207.064a3.1 3.1 0 0 1-2.298.199l-1.374 1.09 1.27-1.27a3.1 3.1 0 0 0 2.403-.019M81.8 205.101a1.9 1.9 0 0 1-1.727-.165c-.415-.359-.146-.746.472-1.077-.675.444-.604.836-.141 1.105.209.12.443.189.684.203q.361.013.713-.066M78.572 203.383c-.104.089-.972.901-.59 1.708.383.808 1.68 1.416 2.71 1.53a4.2 4.2 0 0 1-1.992-.571c-1.364-.789-1.34-1.747-.128-2.667" opacity=".45"/><path fill="#F7921E" d="M98.179 201.663a9.15 9.15 0 0 0-3.398-3.148c-5.565-3.21-14.58-3.21-20.145 0a9.2 9.2 0 0 0-3.403 3.148h-.77v2.907c.104 2.025 1.487 4.031 4.163 5.575 5.565 3.209 14.58 3.209 20.145 0 2.672-1.544 4.069-3.55 4.168-5.575v-2.907z"/><path fill="#000" d="M98.179 201.663a9.15 9.15 0 0 0-3.398-3.148c-5.565-3.21-14.58-3.21-20.145 0a9.2 9.2 0 0 0-3.403 3.148h-.77v2.907c.104 2.025 1.487 4.031 4.163 5.575 5.565 3.209 14.58 3.209 20.145 0 2.672-1.544 4.069-3.55 4.168-5.575v-2.907z" opacity=".25"/><path fill="#000" d="M84.708 196.107c-3.644 0-7.292.803-10.072 2.408a9.2 9.2 0 0 0-3.403 3.148h-.77v2.907c.104 2.025 1.487 4.031 4.163 5.575 2.78 1.604 6.429 2.407 10.073 2.407z" opacity=".1"/><path fill="#000" d="M76.93 197.439q-1.191.446-2.294 1.077a9.2 9.2 0 0 0-3.403 3.148h-.77v2.907c.104 2.025 1.487 4.031 4.163 5.575q1.104.628 2.294 1.071z" opacity=".1"/><path fill="#F7921E" d="M92.487 197.439q1.19.446 2.294 1.077a9.15 9.15 0 0 1 3.398 3.148h.77v2.907c-.1 2.025-1.497 4.031-4.168 5.575q-1.104.628-2.294 1.071z" opacity=".5"/><path fill="#F7921E" d="M74.636 195.849c-5.56 3.209-5.56 8.415 0 11.63 4.866 2.832 12.38 3.157 17.907 1.052l.222-.085a16 16 0 0 0 2.016-.967c4.635-2.681 5.409-6.745 2.308-9.884a10.8 10.8 0 0 0-2.308-1.746c-5.542-3.21-14.58-3.21-20.145 0"/><path fill="#000" d="M74.636 195.849c-5.56 3.209-5.56 8.415 0 11.63 4.866 2.832 12.38 3.157 17.907 1.052l.222-.085a16 16 0 0 0 2.016-.967c4.635-2.681 5.409-6.745 2.308-9.884a10.8 10.8 0 0 0-2.308-1.746c-5.542-3.21-14.58-3.21-20.145 0" opacity=".2"/><path fill="#F5F5F5" d="M97.089 197.586a6.22 6.22 0 0 1 1.491 5.074c-.472 2.832-4.45 5.192-5.815 5.777a16 16 0 0 0 2.016-.967c4.635-2.672 5.409-6.736 2.308-9.884M72.328 205.732a6.23 6.23 0 0 1-1.497-5.074c.472-2.832 4.451-5.192 5.815-5.777a16 16 0 0 0-2.015.967c-4.635 2.681-5.404 6.745-2.303 9.884" opacity=".5"/><path fill="#F7921E" d="M94.073 207.058c5.192-2.987 5.192-7.825 0-10.813s-13.552-2.983-18.725 0-5.168 7.826 0 10.813 13.556 2.983 18.725 0"/><path fill="#fff" d="M94.073 207.058c5.192-2.987 5.192-7.825 0-10.813s-13.552-2.983-18.725 0-5.168 7.826 0 10.813 13.556 2.983 18.725 0" opacity=".4"/><path fill="#fff" d="M97.353 203.934c1.062-1.968.713-4.134-1.043-5.975a9 9 0 0 0-1.119-.982q-.517-.381-1.071-.708a9 9 0 0 0-.656-.349c.552.901.349 1.888-2.766 2.053-6.103.359 1.628 6.193 1.628 6.193s3.937-1.902 5.027-.232" opacity=".2"/><path fill="#fff" d="M96.72 202.305c.916-.099 1.37-1.043 1.015-2.101-.354-1.057-1.387-1.836-2.303-1.732s-1.369 1.043-1.015 2.101c.354 1.057 1.388 1.85 2.304 1.732" opacity=".5"/><path fill="#F7921E" d="M87.068 207.182c-.297-2.266-10.205-8.539-10.205-8.539s-2.195-.882-1.468-2.416q-.55.308-1.057.684a9 9 0 0 0-.646.51c-2.95 2.553-2.95 5.904 0 8.463a11.334 11.334 0 0 0 1.628 1.151 13.6 13.6 0 0 0 1.94.93c.302.118.613.231.944.335.964.316 1.952.554 2.955.713l.665.094c2.184.284 4.397.248 6.57-.108 0 0-1.61-.326-1.326-1.817"/><path fill="#fff" d="M87.068 207.182c-.297-2.266-10.205-8.539-10.205-8.539s-2.195-.882-1.468-2.416q-.55.308-1.057.684a9 9 0 0 0-.646.51c-2.95 2.553-2.95 5.904 0 8.463a11.334 11.334 0 0 0 1.628 1.151 13.6 13.6 0 0 0 1.94.93c.302.118.613.231.944.335.964.316 1.952.554 2.955.713l.665.094c2.184.284 4.397.248 6.57-.108 0 0-1.61-.326-1.326-1.817" opacity=".3"/><path fill="#F7921E" d="M77.732 197.624c-3.696 2.134-3.842 5.537-.472 7.774.141.094.292.189.472.278 3.851 2.228 10.091 2.228 13.947 0 3.857-2.227 3.852-5.829 0-8.052-.155-.09-.32-.179-.472-.259-3.884-1.959-9.78-1.874-13.475.259"/><path fill="#000" d="M77.732 197.624c-3.696 2.134-3.842 5.537-.472 7.774.141.094.292.189.472.278 3.851 2.228 10.091 2.228 13.947 0 3.857-2.227 3.852-5.829 0-8.052-.155-.09-.32-.179-.472-.259-3.884-1.959-9.78-1.874-13.475.259" opacity=".2"/><path fill="#F7921E" d="M84.713 207.091c5.208 0 9.43-2.436 9.43-5.442 0-3.005-4.222-5.442-9.43-5.442-5.209 0-9.43 2.437-9.43 5.442s4.221 5.442 9.43 5.442"/><path fill="#000" d="M84.713 207.091c5.208 0 9.43-2.436 9.43-5.442 0-3.005-4.222-5.442-9.43-5.442-5.209 0-9.43 2.437-9.43 5.442s4.221 5.442 9.43 5.442" opacity=".5"/><path fill="#F7921E" d="M78.048 199.323c3.682-2.129 9.648-2.129 13.33 0 1.505.869 2.397 1.959 2.671 3.087-.274 1.133-1.166 2.223-2.672 3.092-3.681 2.124-9.647 2.124-13.329 0-1.505-.869-2.398-1.959-2.671-3.092.273-1.128 1.166-2.218 2.671-3.087"/><path fill="#000" d="M78.048 199.323c3.682-2.129 9.648-2.129 13.33 0 1.505.869 2.397 1.959 2.671 3.087-.274 1.133-1.166 2.223-2.672 3.092-3.681 2.124-9.647 2.124-13.329 0-1.505-.869-2.398-1.959-2.671-3.092.273-1.128 1.166-2.218 2.671-3.087" opacity=".35"/><path fill="#F7921E" d="M90.655 203.292v-1.128c0-.472-.32-.906-1.005-1.307h-.024a4.84 4.84 0 0 0-3.743-.34c-.495.127-.944.288-1.415.434q-.737.281-1.502.472a2.6 2.6 0 0 1-.712.071 1.6 1.6 0 0 1-.59-.156l.047-.033.146-.094q.192-.111.397-.194a2.72 2.72 0 0 1 2.096-.047l1.208-1.222v-1.119a5.75 5.75 0 0 0-3.304-.118q-.54.14-1.053.363l-1.208-.698-1.43.826v1.118l.472.284a1.2 1.2 0 0 0-.213.651v1.119c0 .472.33.906 1.025 1.307.605.356 1.29.554 1.991.576q.2.01.397 0a7.8 7.8 0 0 0 2.138-.472l.42-.146-1.19 1.227v1.118a5.94 5.94 0 0 0 4.664-.203l1.19.69 1.444-.836v-1.118l-.496-.284c.156-.216.243-.474.25-.741m-3.044-.099a3.075 3.075 0 0 1-2.695.203c1.128-.396 2.072-.746 2.874-.316z"/><path fill="#F7921E" d="M85.879 200.497c-.496.128-.944.288-1.416.435q-.736.28-1.501.472a2.6 2.6 0 0 1-.713.07 1.5 1.5 0 0 1-.684-.207c-.472-.265-.534-.661.141-1.1l.147-.094q.191-.111.396-.194a2.72 2.72 0 0 1 2.096-.047l1.208-1.223a5.75 5.75 0 0 0-3.304-.118 7 7 0 0 0-1.052.364l-1.209-.699-1.425.845 1.194.689c-1.213.921-1.242 1.888.123 2.662.605.356 1.29.554 1.992.576q.198.01.396 0a7.7 7.7 0 0 0 2.138-.472c1.388-.472 2.506-1.005 3.441-.472.623.359.472.812-.236 1.208q-.162.099-.335.17a3.1 3.1 0 0 1-2.403 0l-1.265 1.275a5.94 5.94 0 0 0 4.664-.203l1.19.689 1.444-.835-1.195-.675c1.2-.944 1.34-1.94-.061-2.757h-.024a4.843 4.843 0 0 0-3.748-.359"/><path fill="#fff" d="M85.879 200.497c-.496.128-.944.288-1.416.435q-.736.28-1.501.472a2.6 2.6 0 0 1-.713.07 1.5 1.5 0 0 1-.684-.207c-.472-.265-.534-.661.141-1.1l.147-.094q.191-.111.396-.194a2.72 2.72 0 0 1 2.096-.047l1.208-1.223a5.75 5.75 0 0 0-3.304-.118 7 7 0 0 0-1.052.364l-1.209-.699-1.425.845 1.194.689c-1.213.921-1.242 1.888.123 2.662.605.356 1.29.554 1.992.576q.198.01.396 0a7.7 7.7 0 0 0 2.138-.472c1.388-.472 2.506-1.005 3.441-.472.623.359.472.812-.236 1.208q-.162.099-.335.17a3.1 3.1 0 0 1-2.403 0l-1.265 1.275a5.94 5.94 0 0 0 4.664-.203l1.19.689 1.444-.835-1.195-.675c1.2-.944 1.34-1.94-.061-2.757h-.024a4.843 4.843 0 0 0-3.748-.359" opacity=".3"/><path fill="#F5F5F5" d="m78.563 198.982 1.453-.661 1.2.524-1.214-.699zM82.098 198.53a6.7 6.7 0 0 1 3.1.104l-.84 1.19 1.21-1.223a5.72 5.72 0 0 0-3.47-.071M89.622 200.837h.023c1.416.817 1.26 1.832.062 2.757 1.062-1.157.873-1.964-.284-2.634a5.45 5.45 0 0 0-3.544-.472 4.85 4.85 0 0 1 3.743.349M89.707 203.613l.915.704-1.166.821 1.445-.836zM87.271 203.363a3.1 3.1 0 0 1-2.299.199l-1.368 1.09 1.264-1.275a3.095 3.095 0 0 0 2.403-.014M82.976 201.395a1.89 1.89 0 0 1-1.728-.161c-.415-.358-.15-.745.472-1.076-.675.439-.609.836-.141 1.1.208.124.442.195.684.208q.362.013.713-.071M79.747 199.682c-.103.089-.972.896-.59 1.708.383.812 1.68 1.416 2.71 1.53a4.2 4.2 0 0 1-1.992-.576c-1.369-.789-1.34-1.742-.128-2.662" opacity=".45"/><path fill="#F7921E" d="M97.009 198.058a9.24 9.24 0 0 0-3.404-3.143c-5.564-3.215-14.58-3.215-20.145 0a9.2 9.2 0 0 0-3.398 3.143h-.77v2.912c.105 2.021 1.487 4.027 4.159 5.575 5.565 3.209 14.585 3.209 20.145 0 2.676-1.548 4.069-3.554 4.172-5.575v-2.912z"/><path fill="#000" d="M97.009 198.058a9.24 9.24 0 0 0-3.404-3.143c-5.564-3.215-14.58-3.215-20.145 0a9.2 9.2 0 0 0-3.398 3.143h-.77v2.912c.105 2.021 1.487 4.027 4.159 5.575 5.565 3.209 14.585 3.209 20.145 0 2.676-1.548 4.069-3.554 4.172-5.575v-2.912z" opacity=".25"/><path fill="#000" d="M83.533 192.506c-3.644 0-7.288.807-10.073 2.412a9.2 9.2 0 0 0-3.398 3.143h-.77v2.913c.105 2.02 1.487 4.026 4.159 5.574 2.785 1.605 6.429 2.407 10.073 2.407z" opacity=".1"/><path fill="#000" d="M75.754 193.842q-1.19.445-2.294 1.076a9.2 9.2 0 0 0-3.398 3.143h-.77v2.913c.105 2.02 1.487 4.026 4.159 5.574q1.104.628 2.294 1.071z" opacity=".1"/><path fill="#F7921E" d="M91.312 193.842q1.19.445 2.293 1.076a9.25 9.25 0 0 1 3.404 3.143h.769v2.913c-.104 2.02-1.496 4.026-4.173 5.574a15.7 15.7 0 0 1-2.294 1.071z" opacity=".5"/><path fill="#F7921E" d="M73.46 192.252c-5.56 3.21-5.56 8.416 0 11.625 4.871 2.832 12.381 3.163 17.908 1.058l.217-.085q1.044-.413 2.016-.973c4.64-2.676 5.409-6.74 2.308-9.879a11 11 0 0 0-2.308-1.741c-5.556-3.219-14.576-3.219-20.14-.005"/><path fill="#000" d="M73.46 192.252c-5.56 3.21-5.56 8.416 0 11.625 4.871 2.832 12.381 3.163 17.908 1.058l.217-.085q1.044-.413 2.016-.973c4.64-2.676 5.409-6.74 2.308-9.879a11 11 0 0 0-2.308-1.741c-5.556-3.219-14.576-3.219-20.14-.005" opacity=".2"/><path fill="#F5F5F5" d="M95.913 193.998a6.22 6.22 0 0 1 1.492 5.074c-.472 2.832-4.451 5.192-5.815 5.777a15 15 0 0 0 2.015-.972c4.64-2.676 5.41-6.74 2.308-9.879M71.152 202.132a6.22 6.22 0 0 1-1.491-5.07c.472-2.832 4.45-5.192 5.815-5.777a15 15 0 0 0-2.011.968c-4.64 2.676-5.41 6.749-2.313 9.879" opacity=".5"/><path fill="#F7921E" d="M92.902 203.458c5.192-2.983 5.192-7.821 0-10.809s-13.556-2.983-18.724 0-5.192 7.826 0 10.809 13.551 2.988 18.724 0"/><path fill="#fff" d="M92.902 203.458c5.192-2.983 5.192-7.821 0-10.809s-13.556-2.983-18.724 0-5.192 7.826 0 10.809 13.551 2.988 18.724 0" opacity=".4"/><path fill="#fff" d="M96.178 200.338c1.062-1.969.717-4.135-1.039-5.976a9 9 0 0 0-1.123-.982q-.514-.385-1.072-.708-.315-.183-.65-.354c.547.907.349 1.888-2.772 2.058-6.102.359 1.629 6.188 1.629 6.188s3.936-1.897 5.027-.226" opacity=".2"/><path fill="#fff" d="M95.55 198.723c.916-.104 1.369-1.043 1.01-2.105s-1.388-1.832-2.303-1.732c-.916.099-1.369 1.047-1.01 2.105.358 1.057 1.387 1.836 2.303 1.732" opacity=".5"/><path fill="#F7921E" d="M85.898 203.584c-.302-2.266-10.21-8.538-10.21-8.538s-2.195-.883-1.468-2.417q-.548.312-1.057.684a8 8 0 0 0-.642.51c-2.95 2.554-2.955 5.905 0 8.463a10.36 10.36 0 0 0 1.624 1.147c.335.198.689.382 1.048.552.358.17.59.265.892.383s.613.231.944.335c.964.315 1.952.553 2.955.712l.665.095c2.184.279 4.397.241 6.57-.113 0 0-1.605-.321-1.321-1.813"/><path fill="#fff" d="M85.898 203.584c-.302-2.266-10.21-8.538-10.21-8.538s-2.195-.883-1.468-2.417q-.548.312-1.057.684a8 8 0 0 0-.642.51c-2.95 2.554-2.955 5.905 0 8.463a10.36 10.36 0 0 0 1.624 1.147c.335.198.689.382 1.048.552.358.17.59.265.892.383s.613.231.944.335c.964.315 1.952.553 2.955.712l.665.095c2.184.279 4.397.241 6.57-.113 0 0-1.605-.321-1.321-1.813" opacity=".3"/><path fill="#F7921E" d="M76.562 194.026c-3.696 2.134-3.847 5.537-.472 7.774.146.095.297.189.472.279 3.851 2.223 10.096 2.223 13.947 0 3.852-2.223 3.852-5.829 0-8.053a17 17 0 0 0-.472-.259c-3.884-1.959-9.766-1.874-13.475.259"/><path fill="#000" d="M76.562 194.026c-3.696 2.134-3.847 5.537-.472 7.774.146.095.297.189.472.279 3.851 2.223 10.096 2.223 13.947 0 3.852-2.223 3.852-5.829 0-8.053a17 17 0 0 0-.472-.259c-3.884-1.959-9.766-1.874-13.475.259" opacity=".2"/><path fill="#F7921E" d="M76.873 194.206c-3.682 2.124-3.682 5.57 0 7.698s9.652 2.124 13.334 0 3.682-5.574 0-7.698-9.652-2.129-13.334 0"/><path fill="#000" d="M76.873 194.206c-3.682 2.124-3.682 5.57 0 7.698s9.652 2.124 13.334 0 3.682-5.574 0-7.698-9.652-2.129-13.334 0" opacity=".5"/><path fill="#F7921E" d="M76.873 195.722c3.682-2.124 9.652-2.124 13.334 0 1.506.868 2.393 1.959 2.667 3.092-.274 1.128-1.161 2.218-2.667 3.091-3.682 2.124-9.652 2.124-13.334 0-1.506-.873-2.393-1.963-2.672-3.091.279-1.133 1.166-2.224 2.672-3.092"/><path fill="#000" d="M76.873 195.722c3.682-2.124 9.652-2.124 13.334 0 1.506.868 2.393 1.959 2.667 3.092-.274 1.128-1.161 2.218-2.667 3.091-3.682 2.124-9.652 2.124-13.334 0-1.506-.873-2.393-1.963-2.672-3.091.279-1.133 1.166-2.224 2.672-3.092" opacity=".35"/><path fill="#F7921E" d="M89.476 199.696v-1.129c0-.472-.317-.906-1.006-1.312h-.023a4.85 4.85 0 0 0-3.739-.34c-.472.123-.944.288-1.416.435q-.736.276-1.496.472a2.8 2.8 0 0 1-.713.071 1.6 1.6 0 0 1-.59-.156l.047-.033.151-.095a3 3 0 0 1 .392-.193 2.73 2.73 0 0 1 2.1-.047l1.209-1.223v-1.119a5.77 5.77 0 0 0-3.304-.118q-.54.138-1.048.364l-1.184-.722-1.445.83v1.119l.496.288a1.2 1.2 0 0 0-.213.651v1.119c0 .472.33.906 1.03 1.307.605.354 1.29.552 1.991.576h.397a7.7 7.7 0 0 0 2.142-.472l.416-.141-1.218 1.217v1.124a5.97 5.97 0 0 0 4.663-.203l1.195.689 1.401-.821v-1.119l-.471-.283c.15-.217.231-.473.236-.736m-3.04-.1q-.163.096-.335.17c-.752.32-1.6.332-2.36.033 1.128-.396 2.072-.745 2.874-.321a2 2 0 0 1-.18.118"/><path fill="#F7921E" d="M84.708 196.901c-.472.123-.944.288-1.416.435q-.736.275-1.496.472a2.8 2.8 0 0 1-.713.07 1.5 1.5 0 0 1-.684-.207c-.472-.269-.534-.661.141-1.105l.151-.089q.19-.111.392-.194a2.73 2.73 0 0 1 2.1-.047l1.209-1.223a5.77 5.77 0 0 0-3.304-.118q-.54.138-1.048.364l-1.184-.708-1.445.83 1.194.694c-1.213.921-1.236 1.888.128 2.662.606.354 1.29.552 1.992.576h.396a7.7 7.7 0 0 0 2.143-.472c1.383-.472 2.506-1.005 3.436-.472.628.359.472.812-.231 1.209q-.162.094-.335.169a3.1 3.1 0 0 1-2.403 0l-1.27 1.27a5.93 5.93 0 0 0 4.664-.198l1.194.689 1.44-.835-1.19-.69c1.2-.944 1.336-1.939-.066-2.761h-.023a4.84 4.84 0 0 0-3.772-.321"/><path fill="#fff" d="M84.708 196.901c-.472.123-.944.288-1.416.435q-.736.275-1.496.472a2.8 2.8 0 0 1-.713.07 1.5 1.5 0 0 1-.684-.207c-.472-.269-.534-.661.141-1.105l.151-.089q.19-.111.392-.194a2.73 2.73 0 0 1 2.1-.047l1.209-1.223a5.77 5.77 0 0 0-3.304-.118q-.54.138-1.048.364l-1.184-.708-1.445.83 1.194.694c-1.213.921-1.236 1.888.128 2.662.606.354 1.29.552 1.992.576h.396a7.7 7.7 0 0 0 2.143-.472c1.383-.472 2.506-1.005 3.436-.472.628.359.472.812-.231 1.209q-.162.094-.335.169a3.1 3.1 0 0 1-2.403 0l-1.27 1.27a5.93 5.93 0 0 0 4.664-.198l1.194.689 1.44-.835-1.19-.69c1.2-.944 1.336-1.939-.066-2.761h-.023a4.84 4.84 0 0 0-3.772-.321" opacity=".3"/><path fill="#F5F5F5" d="m77.388 195.381 1.458-.656 1.194.524-1.208-.698zM80.923 194.929a6.8 6.8 0 0 1 3.1.108l-.835 1.185 1.209-1.218a5.77 5.77 0 0 0-3.474-.075M88.447 197.241h.023c1.416.821 1.265 1.831.066 2.761 1.062-1.156.869-1.964-.288-2.634a5.45 5.45 0 0 0-3.54-.472 4.83 4.83 0 0 1 3.739.345M88.536 200.016l.911.703-1.161.821 1.44-.835zM86.1 199.766a3.1 3.1 0 0 1-2.298.198l-1.374 1.085 1.27-1.269a3.1 3.1 0 0 0 2.403-.014M81.8 197.798a1.89 1.89 0 0 1-1.727-.16c-.415-.359-.146-.746.472-1.081-.675.443-.604.835-.141 1.104.208.123.443.195.684.208a2.8 2.8 0 0 0 .713-.071M78.572 196.084c-.104.09-.972.897-.59 1.709.383.811 1.68 1.416 2.71 1.529a4.25 4.25 0 0 1-1.992-.576c-1.364-.788-1.34-1.742-.128-2.662" opacity=".45"/><path fill="#F7921E" d="M99.704 193.966a9.25 9.25 0 0 0-3.403-3.149c-5.565-3.209-14.58-3.209-20.145 0a9.2 9.2 0 0 0-3.399 3.149h-.77v2.907c.1 2.025 1.488 4.031 4.16 5.574 5.564 3.215 14.58 3.215 20.144 0 2.672-1.543 4.069-3.549 4.173-5.574v-2.907z"/><path fill="#000" d="M99.704 193.966a9.25 9.25 0 0 0-3.403-3.149c-5.565-3.209-14.58-3.209-20.145 0a9.2 9.2 0 0 0-3.399 3.149h-.77v2.907c.1 2.025 1.488 4.031 4.16 5.574 5.564 3.215 14.58 3.215 20.144 0 2.672-1.543 4.069-3.549 4.173-5.574v-2.907z" opacity=".25"/><path fill="#000" d="M86.228 188.41c-3.644 0-7.288.803-10.072 2.407a9.2 9.2 0 0 0-3.399 3.149h-.77v2.907c.1 2.025 1.488 4.031 4.16 5.574 2.784 1.605 6.428 2.408 10.072 2.408z" opacity=".1"/><path fill="#000" d="M78.45 189.746q-1.191.443-2.294 1.072a9.2 9.2 0 0 0-3.399 3.148h-.77v2.907c.1 2.025 1.488 4.031 4.16 5.575q1.102.63 2.293 1.076z" opacity=".1"/><path fill="#F7921E" d="M94.007 189.746q1.19.443 2.293 1.072a9.25 9.25 0 0 1 3.404 3.148h.769v2.907c-.104 2.025-1.501 4.031-4.172 5.575q-1.104.63-2.294 1.076z" opacity=".5"/><path fill="#F7921E" d="M76.156 188.146c-5.56 3.214-5.56 8.42 0 11.63 4.866 2.832 12.38 3.162 17.907 1.052l.222-.084a15 15 0 0 0 2.015-.968c4.635-2.676 5.41-6.745 2.309-9.884a11 11 0 0 0-2.29-1.746c-5.583-3.205-14.599-3.205-20.163 0"/><path fill="#000" d="M76.156 188.146c-5.56 3.214-5.56 8.42 0 11.63 4.866 2.832 12.38 3.162 17.907 1.052l.222-.084a15 15 0 0 0 2.015-.968c4.635-2.676 5.41-6.745 2.309-9.884a11 11 0 0 0-2.29-1.746c-5.583-3.205-14.599-3.205-20.163 0" opacity=".2"/><path fill="#F5F5F5" d="M98.609 189.896a6.24 6.24 0 0 1 1.486 5.074c-.472 2.832-4.45 5.192-5.815 5.778a15 15 0 0 0 2.016-.968c4.639-2.667 5.414-6.745 2.313-9.884M73.848 198.058a6.21 6.21 0 0 1-1.492-5.074c.496-2.832 4.45-5.192 5.815-5.777q-1.042.413-2.016.968c-4.635 2.657-5.409 6.721-2.308 9.883" opacity=".5"/><path fill="#F7921E" d="M95.597 199.36c5.169-2.983 5.169-7.825 0-10.808s-13.556-2.988-18.724 0-5.192 7.825 0 10.808 13.551 2.983 18.724 0"/><path fill="#fff" d="M95.597 199.36c5.169-2.983 5.169-7.825 0-10.808s-13.556-2.988-18.724 0-5.192 7.825 0 10.808 13.551 2.983 18.724 0" opacity=".4"/><path fill="#fff" d="M98.873 196.24c1.062-1.968.717-4.139-1.043-5.976a8.6 8.6 0 0 0-1.119-.981 11 11 0 0 0-1.071-.708 12 12 0 0 0-.652-.354c.548.906.345 1.888-2.77 2.058-6.103.354 1.628 6.188 1.628 6.188s3.936-1.898 5.027-.227" opacity=".2"/><path fill="#fff" d="M98.24 194.626c.916-.104 1.374-1.048 1.015-2.105-.358-1.057-1.387-1.836-2.303-1.732-.916.103-1.369 1.043-1.015 2.105s1.388 1.831 2.303 1.732" opacity=".5"/><path fill="#F7921E" d="M88.588 199.473c-.293-2.256-10.205-8.529-10.205-8.529s-2.194-.883-1.468-2.417q-.547.315-1.057.685a9 9 0 0 0-.647.51c-2.945 2.553-2.95 5.909 0 8.462.199.175.416.345.642.515q.475.344.982.637c.335.198.684.378 1.048.548a14.74 14.74 0 0 0 1.836.722c.965.312 1.953.548 2.955.708q.33.057.665.099 1.472.184 2.955.184a22.5 22.5 0 0 0 3.615-.297s-1.614-.326-1.321-1.827"/><path fill="#fff" d="M88.588 199.473c-.293-2.256-10.205-8.529-10.205-8.529s-2.194-.883-1.468-2.417q-.547.315-1.057.685a9 9 0 0 0-.647.51c-2.945 2.553-2.95 5.909 0 8.462.199.175.416.345.642.515q.475.344.982.637c.335.198.684.378 1.048.548a14.74 14.74 0 0 0 1.836.722c.965.312 1.953.548 2.955.708q.33.057.665.099 1.472.184 2.955.184a22.5 22.5 0 0 0 3.615-.297s-1.614-.326-1.321-1.827" opacity=".3"/><path fill="#F7921E" d="M79.252 189.929c-3.691 2.134-3.842 5.537-.472 7.774.141.095.293.189.472.279 3.851 2.223 10.096 2.223 13.948 0 3.851-2.223 3.851-5.829 0-8.053-.156-.094-.322-.179-.472-.264-3.885-1.959-9.78-1.869-13.476.264"/><path fill="#000" d="M79.252 189.929c-3.691 2.134-3.842 5.537-.472 7.774.141.095.293.189.472.279 3.851 2.223 10.096 2.223 13.948 0 3.851-2.223 3.851-5.829 0-8.053-.156-.094-.322-.179-.472-.264-3.885-1.959-9.78-1.869-13.476.264" opacity=".2"/><path fill="#F7921E" d="M86.233 199.398c5.208 0 9.43-2.437 9.43-5.442s-4.222-5.442-9.43-5.442c-5.209 0-9.43 2.436-9.43 5.442 0 3.005 4.222 5.442 9.43 5.442"/><path fill="#000" d="M86.233 199.398c5.208 0 9.43-2.437 9.43-5.442s-4.222-5.442-9.43-5.442c-5.209 0-9.43 2.436-9.43 5.442 0 3.005 4.222 5.442 9.43 5.442" opacity=".5"/><path fill="#F7921E" d="M79.568 191.624c3.682-2.124 9.652-2.124 13.334 0 1.506.869 2.393 1.959 2.667 3.092-.274 1.128-1.161 2.218-2.667 3.087-3.682 2.128-9.652 2.128-13.334 0-1.506-.869-2.398-1.959-2.671-3.087.273-1.133 1.165-2.223 2.671-3.092"/><path fill="#000" d="M79.568 191.624c3.682-2.124 9.652-2.124 13.334 0 1.506.869 2.393 1.959 2.667 3.092-.274 1.128-1.161 2.218-2.667 3.087-3.682 2.128-9.652 2.128-13.334 0-1.506-.869-2.398-1.959-2.671-3.087.273-1.133 1.165-2.223 2.671-3.092" opacity=".35"/><path fill="#F7921E" d="M92.17 195.595v-1.124c0-.472-.32-.911-1.005-1.312h-.023a4.83 4.83 0 0 0-3.739-.344c-.495.122-.967.283-1.416.429q-.734.279-1.496.472a2.6 2.6 0 0 1-.713.066 1.4 1.4 0 0 1-.59-.156l.048-.033.15-.089q.19-.11.392-.199a2.75 2.75 0 0 1 2.096-.047l1.208-1.217v-1.119a5.74 5.74 0 0 0-3.304-.123 7 7 0 0 0-1.047.364l-1.209-.694-1.444.83v1.096l.495.287a1.15 1.15 0 0 0-.212.652v1.114c0 .472.33.911 1.029 1.312a4.2 4.2 0 0 0 1.992.571h.396a8 8 0 0 0 2.143-.472l.416-.142-1.218 1.218v1.124a5.92 5.92 0 0 0 4.663-.203l1.194.689 1.44-.831v-1.119l-.496-.288c.154-.207.24-.455.25-.712m-3.044-.095a3.116 3.116 0 0 1-2.69.203c1.128-.401 2.072-.75 2.874-.321q-.089.064-.184.118"/><path fill="#F7921E" d="M87.403 192.799c-.495.123-.967.283-1.416.429q-.734.28-1.496.472a2.6 2.6 0 0 1-.713.067 1.6 1.6 0 0 1-.684-.203c-.472-.269-.533-.661.142-1.105l.15-.09q.19-.11.392-.198a2.72 2.72 0 0 1 2.096-.047l1.208-1.218a5.74 5.74 0 0 0-3.304-.122 7 7 0 0 0-1.047.363l-1.209-.694-1.444.831 1.194.689c-1.213.92-1.237 1.888.127 2.667a4.2 4.2 0 0 0 1.988.585h.396a8 8 0 0 0 2.143-.472c1.383-.472 2.502-1.01 3.436-.472.623.363.472.817-.236 1.213a3.091 3.091 0 0 1-2.738.165l-1.264 1.27a5.924 5.924 0 0 0 4.663-.203l1.194.689 1.44-.831-1.195-.689c1.204-.944 1.341-1.94-.06-2.761h-.024a4.83 4.83 0 0 0-3.738-.335"/><path fill="#fff" d="M87.403 192.799c-.495.123-.967.283-1.416.429q-.734.28-1.496.472a2.6 2.6 0 0 1-.713.067 1.6 1.6 0 0 1-.684-.203c-.472-.269-.533-.661.142-1.105l.15-.09q.19-.11.392-.198a2.72 2.72 0 0 1 2.096-.047l1.208-1.218a5.74 5.74 0 0 0-3.304-.122 7 7 0 0 0-1.047.363l-1.209-.694-1.444.831 1.194.689c-1.213.92-1.237 1.888.127 2.667a4.2 4.2 0 0 0 1.988.585h.396a8 8 0 0 0 2.143-.472c1.383-.472 2.502-1.01 3.436-.472.623.363.472.817-.236 1.213a3.091 3.091 0 0 1-2.738.165l-1.264 1.27a5.924 5.924 0 0 0 4.663-.203l1.194.689 1.44-.831-1.195-.689c1.204-.944 1.341-1.94-.06-2.761h-.024a4.83 4.83 0 0 0-3.738-.335" opacity=".3"/><path fill="#F5F5F5" d="m80.083 191.284 1.458-.661 1.194.524-1.208-.694zM83.618 190.831a6.7 6.7 0 0 1 3.101.104l-.84 1.189 1.213-1.217a5.77 5.77 0 0 0-3.474-.076M91.127 193.145h.024c1.416.821 1.265 1.831.061 2.761 1.067-1.161.874-1.968-.283-2.634a5.46 5.46 0 0 0-3.54-.472 4.826 4.826 0 0 1 3.738.345M91.226 195.92l.916.703-1.161.817 1.44-.831zM88.796 195.664a3.1 3.1 0 0 1-2.304.203l-1.368 1.086 1.283-1.256a3.1 3.1 0 0 0 2.389-.033M84.52 193.7a1.88 1.88 0 0 1-1.728-.165c-.416-.359-.151-.741.472-1.076-.675.444-.604.835-.142 1.104.21.12.444.19.685.203q.361.017.712-.066M81.267 191.982c-.103.09-.972.902-.59 1.709.383.807 1.68 1.416 2.71 1.529a4.2 4.2 0 0 1-1.992-.571c-1.364-.788-1.34-1.746-.128-2.667" opacity=".45"/><path fill="#F7921E" d="M96.466 189.175a9.14 9.14 0 0 0-3.403-3.149c-5.56-3.209-14.58-3.209-20.14 0a9.2 9.2 0 0 0-3.404 3.149h-.769v2.907c.104 2.025 1.487 4.031 4.163 5.574 5.56 3.21 14.58 3.21 20.14 0 2.677-1.543 4.074-3.549 4.173-5.574v-2.907z"/><path fill="#000" d="M96.466 189.175a9.14 9.14 0 0 0-3.403-3.149c-5.56-3.209-14.58-3.209-20.14 0a9.2 9.2 0 0 0-3.404 3.149h-.769v2.907c.104 2.025 1.487 4.031 4.163 5.574 5.56 3.21 14.58 3.21 20.14 0 2.677-1.543 4.074-3.549 4.173-5.574v-2.907z" opacity=".25"/><path fill="#000" d="M82.995 183.619c-3.644 0-7.292.803-10.073 2.407a9.2 9.2 0 0 0-3.403 3.149h-.769v2.907c.104 2.025 1.487 4.031 4.163 5.574 2.78 1.605 6.429 2.408 10.073 2.408z" opacity=".1"/><path fill="#000" d="M75.216 184.951q-1.19.446-2.293 1.076a9.2 9.2 0 0 0-3.404 3.149h-.769v2.907c.104 2.025 1.487 4.031 4.163 5.574q1.104.629 2.294 1.072z" opacity=".1"/><path fill="#F7921E" d="M90.773 184.951q1.19.445 2.29 1.076a9.14 9.14 0 0 1 3.403 3.149h.77v2.907c-.1 2.025-1.497 4.031-4.173 5.574q-1.102.63-2.29 1.072z" opacity=".5"/><path fill="#F7921E" d="M72.922 183.36c-5.56 3.21-5.56 8.416 0 11.63 4.867 2.809 12.38 3.158 17.908 1.053l.222-.085a15.5 15.5 0 0 0 2.01-.968c4.64-2.681 5.41-6.744 2.313-9.883a10.8 10.8 0 0 0-2.312-1.747c-5.56-3.209-14.58-3.209-20.14 0"/><path fill="#000" d="M72.922 183.36c-5.56 3.21-5.56 8.416 0 11.63 4.867 2.809 12.38 3.158 17.908 1.053l.222-.085a15.5 15.5 0 0 0 2.01-.968c4.64-2.681 5.41-6.744 2.313-9.883a10.8 10.8 0 0 0-2.312-1.747c-5.56-3.209-14.58-3.209-20.14 0" opacity=".2"/><path fill="#F5F5F5" d="M95.376 185.107a6.23 6.23 0 0 1 1.491 5.074c-.472 2.832-4.45 5.192-5.815 5.778a15.6 15.6 0 0 0 2.01-.968c4.64-2.681 5.41-6.745 2.314-9.884M70.614 193.244a6.24 6.24 0 0 1-1.491-5.074c.472-2.832 4.45-5.192 5.815-5.777q-1.042.412-2.016.967c-4.64 2.676-5.395 6.745-2.308 9.884" opacity=".5"/><path fill="#F7921E" d="M83 196.808c7.312 0 13.24-3.423 13.24-7.646s-5.928-7.646-13.24-7.646-13.24 3.423-13.24 7.646 5.928 7.646 13.24 7.646"/><path fill="#fff" d="M83 196.808c7.312 0 13.24-3.423 13.24-7.646s-5.928-7.646-13.24-7.646-13.24 3.423-13.24 7.646 5.928 7.646 13.24 7.646" opacity=".4"/><path fill="#fff" d="M70.36 191.45c-1.063-1.968-.718-4.135 1.038-5.975a9 9 0 0 1 1.123-.982 11 11 0 0 1 1.723-1.057c-.547.901-.345 1.888 2.77 2.053 6.104.358-1.628 6.192-1.628 6.192s-3.936-1.906-5.027-.231" opacity=".2"/><path fill="#fff" d="M70.992 189.832c-.916-.099-1.374-1.043-1.015-2.1s1.388-1.836 2.303-1.732c.916.103 1.37 1.043 1.01 2.1-.358 1.057-1.383 1.836-2.298 1.732" opacity=".5"/><path fill="#F7921E" d="M80.644 194.693c.298-2.265 10.205-8.538 10.205-8.538s2.195-.883 1.468-2.417a11 11 0 0 1 1.704 1.194c2.945 2.554 2.95 5.905 0 8.463a9 9 0 0 1-.642.51q-.475.346-.982.642a13.6 13.6 0 0 1-1.94.93 15 15 0 0 1-.944.335c-.964.316-1.952.554-2.955.713l-.665.094a22.6 22.6 0 0 1-6.57-.108s1.605-.34 1.321-1.818"/><path fill="#fff" d="M80.644 194.693c.298-2.265 10.205-8.538 10.205-8.538s2.195-.883 1.468-2.417a11 11 0 0 1 1.704 1.194c2.945 2.554 2.95 5.905 0 8.463a9 9 0 0 1-.642.51q-.475.346-.982.642a13.6 13.6 0 0 1-1.94.93 15 15 0 0 1-.944.335c-.964.316-1.952.554-2.955.713l-.665.094a22.6 22.6 0 0 1-6.57-.108s1.605-.34 1.321-1.818" opacity=".3"/><path fill="#F7921E" d="M89.98 185.136c3.692 2.133 3.843 5.536.472 7.774a4 4 0 0 1-.471.278c-3.852 2.228-10.097 2.228-13.948 0s-3.852-5.829 0-8.052c.156-.09.32-.175.472-.26 3.88-1.959 9.78-1.874 13.476.26"/><path fill="#000" d="M89.98 185.136c3.692 2.133 3.843 5.536.472 7.774a4 4 0 0 1-.471.278c-3.852 2.228-10.097 2.228-13.948 0s-3.852-5.829 0-8.052c.156-.09.32-.175.472-.26 3.88-1.959 9.78-1.874 13.476.26" opacity=".2"/><path fill="#F7921E" d="M83 194.603c5.208 0 9.43-2.436 9.43-5.442s-4.222-5.442-9.43-5.442c-5.209 0-9.43 2.436-9.43 5.442s4.221 5.442 9.43 5.442"/><path fill="#000" d="M83 194.603c5.208 0 9.43-2.436 9.43-5.442s-4.222-5.442-9.43-5.442c-5.209 0-9.43 2.436-9.43 5.442s4.221 5.442 9.43 5.442" opacity=".5"/><path fill="#F7921E" d="M89.664 186.835c-3.681-2.129-9.652-2.129-13.334 0-1.506.868-2.393 1.959-2.667 3.087.274 1.133 1.161 2.223 2.667 3.091 3.682 2.124 9.653 2.124 13.334 0 1.506-.868 2.398-1.958 2.672-3.091-.265-1.128-1.166-2.219-2.672-3.087"/><path fill="#000" d="M89.664 186.835c-3.681-2.129-9.652-2.129-13.334 0-1.506.868-2.393 1.959-2.667 3.087.274 1.133 1.161 2.223 2.667 3.091 3.682 2.124 9.653 2.124 13.334 0 1.506-.868 2.398-1.958 2.672-3.091-.265-1.128-1.166-2.219-2.672-3.087" opacity=".35"/><path fill="#F7921E" d="M88.937 190.804v-1.128c0-.472-.32-.906-1.005-1.308a4.84 4.84 0 0 0-3.743-.339c-.472.127-.944.288-1.392.434q-.736.28-1.501.472a2.6 2.6 0 0 1-.713.071 1.6 1.6 0 0 1-.59-.156l.047-.033.147-.095q.191-.11.396-.193a2.72 2.72 0 0 1 2.096-.047l1.208-1.223v-1.118a5.73 5.73 0 0 0-3.304-.118q-.541.14-1.052.363l-1.209-.698-1.44.835v1.119l.473.283a1.2 1.2 0 0 0-.213.651v1.119c0 .472.33.906 1.024 1.307.606.356 1.29.554 1.992.576q.198.01.397 0a7.8 7.8 0 0 0 2.138-.472l.42-.146-1.218 1.222v1.119a5.92 5.92 0 0 0 4.659-.203l1.194.689 1.444-.831v-1.123l-.472-.283c.145-.222.221-.481.217-.746m-3.044-.099q-.161.098-.335.17c-.752.322-1.6.334-2.36.033 1.133-.397 2.077-.746 2.88-.316z"/><path fill="#F7921E" d="M84.165 188.009c-.472.128-.944.288-1.392.434q-.737.281-1.5.472a2.6 2.6 0 0 1-.714.071 1.47 1.47 0 0 1-.684-.208c-.472-.264-.533-.66.142-1.099l.146-.095q.191-.11.396-.193a2.72 2.72 0 0 1 2.096-.047l1.208-1.223a5.75 5.75 0 0 0-3.304-.118 7 7 0 0 0-1.052.364l-1.209-.699-1.44.835 1.195.69c-1.208.92-1.237 1.888.127 2.662.606.356 1.29.554 1.992.575q.199.012.397 0a7.7 7.7 0 0 0 2.138-.472c1.388-.472 2.506-1.005 3.44-.472.624.359.473.812-.235 1.209q-.161.098-.335.17a3.12 3.12 0 0 1-2.403 0l-1.265 1.274a5.92 5.92 0 0 0 4.659-.203l1.194.689 1.444-.835-1.194-.689c1.2-.944 1.34-1.94-.061-2.757a4.84 4.84 0 0 0-3.786-.335"/><path fill="#fff" d="M84.165 188.009c-.472.128-.944.288-1.392.434q-.737.281-1.5.472a2.6 2.6 0 0 1-.714.071 1.47 1.47 0 0 1-.684-.208c-.472-.264-.533-.66.142-1.099l.146-.095q.191-.11.396-.193a2.72 2.72 0 0 1 2.096-.047l1.208-1.223a5.75 5.75 0 0 0-3.304-.118 7 7 0 0 0-1.052.364l-1.209-.699-1.44.835 1.195.69c-1.208.92-1.237 1.888.127 2.662.606.356 1.29.554 1.992.575q.199.012.397 0a7.7 7.7 0 0 0 2.138-.472c1.388-.472 2.506-1.005 3.44-.472.624.359.473.812-.235 1.209q-.161.098-.335.17a3.12 3.12 0 0 1-2.403 0l-1.265 1.274a5.92 5.92 0 0 0 4.659-.203l1.194.689 1.444-.835-1.194-.689c1.2-.944 1.34-1.94-.061-2.757a4.84 4.84 0 0 0-3.786-.335" opacity=".3"/><path fill="#F5F5F5" d="m76.85 186.494 1.453-.661 1.194.524-1.208-.699zM80.385 186.042a6.7 6.7 0 0 1 3.1.104l-.853 1.189 1.208-1.222a5.7 5.7 0 0 0-3.455-.071M87.908 188.35c1.416.816 1.26 1.831.062 2.756 1.062-1.156.873-1.963-.283-2.633a5.45 5.45 0 0 0-3.545-.472 4.83 4.83 0 0 1 3.766.349M87.993 191.125l.916.703-1.166.822 1.445-.836zM85.558 190.875a3.1 3.1 0 0 1-2.299.198l-1.369 1.091 1.265-1.275a3.112 3.112 0 0 0 2.403-.014M81.263 188.907a1.888 1.888 0 0 1-1.728-.161c-.42-.359-.151-.746.472-1.076-.675.439-.609.835-.142 1.1.208.124.443.195.685.207q.362.014.713-.07M78.03 187.203c-.1.09-.968.897-.586 1.709s1.68 1.416 2.71 1.529a4.2 4.2 0 0 1-1.992-.576c-1.37-.774-1.34-1.751-.133-2.662" opacity=".45"/><path fill="#fff" d="m70.416 187.726.359-2.728.358 2.728 4.716.208-4.716.208-.358 2.723-.359-2.723-4.72-.208z"/><path fill="#000" d="m190.961 196.187-2.733-1.041.903-1.849 1.678 1.577z"/><path fill="#263238" d="M193.815 191.26s.101 1.784.124 2.346-2.383 2.305-2.978 2.582l-.152-1.291a10 10 0 0 0-1.383 2.121c-.461.797-1.06 2.305-2.333 3.337-1.885 1.526-4.822 2.305-7.814 2.384s-4.702-.65-5.532-1.3-1.115-1.415-.899-2.172c.217-.756 20.967-8.007 20.967-8.007"/><path fill="#37474F" d="m185.83 185.136-.032-1.032c-.553 0-.627 1.479-1.434 2.789a26.8 26.8 0 0 1-4.236 5.361c-3.048 2.766-5.763 4.472-7.118 5.712-1.844 1.655 1.351 4.32 6.233 4.066 2.42-.124 6.73-1.323 7.947-2.766s1.969-3.656 2.946-4.688c.978-1.033 3.057-2.075 3.665-3.338.337-.692.166-2.305-.023-3.688-.175-1.263-.207-3.2-.922-3.043l-.055.646c-.291.553-.968 1.461-2.928 1.779-.954.18-3.867.254-4.043-1.798"/><path fill="#000" d="M188.324 187c-.922-.083-1.931-.396-2.305-1.24v-.028a2.36 2.36 0 0 1-.64 1.987c-.876 1.015-6.427 8.192-6.427 8.192s5.163-5.914 6.15-7.03c1.466-1.646 1.927-1.844 3.259-1.876zM187.098 188.905a.299.299 0 0 0 .523.145.3.3 0 0 0 .072-.209.3.3 0 0 0-.585-.051.3.3 0 0 0-.01.115M185.65 190.489a.3.3 0 0 0 .068.157.293.293 0 0 0 .315.09.3.3 0 0 0 .141-.096.296.296 0 0 0-.372-.444.3.3 0 0 0-.089.074.303.303 0 0 0-.063.219M184.199 192.075a.3.3 0 0 0 .332.263.3.3 0 0 0 .11-.035.3.3 0 0 0 .089-.074.3.3 0 0 0 .053-.103.305.305 0 0 0-.024-.226.3.3 0 0 0-.178-.142.3.3 0 0 0-.115-.01.296.296 0 0 0-.267.327M182.751 193.661a.3.3 0 0 0 .112.2c.062.05.141.072.22.063a.3.3 0 0 0 .111-.034.3.3 0 0 0 .142-.178.3.3 0 0 0 .01-.115.3.3 0 0 0-.328-.248.3.3 0 0 0-.267.312M181.303 195.247a.303.303 0 0 0 .328.263.297.297 0 0 0 .267-.328.3.3 0 0 0-.327-.263.3.3 0 0 0-.112.034.301.301 0 0 0-.146.177.3.3 0 0 0-.01.117" opacity=".15"/><path fill="#263238" d="M187.403 188.993a.13.13 0 0 0 .061-.025.124.124 0 0 0 .044-.12.1.1 0 0 0-.032-.058c-.06-.06-1.489-1.452-3.365-1.355a.124.124 0 0 0-.111.129.1.1 0 0 0 .013.045.1.1 0 0 0 .029.037q.018.015.041.023.023.007.046.005c1.771-.092 3.172 1.273 3.186 1.286a.12.12 0 0 0 .088.033M185.955 190.571a.12.12 0 0 0 .074-.037.12.12 0 0 0 .035-.085.12.12 0 0 0-.035-.085c-.06-.06-1.489-1.452-3.37-1.351a.12.12 0 0 0-.106.083.121.121 0 0 0 .035.127q.036.03.084.03c1.771-.092 3.177 1.268 3.191 1.281a.11.11 0 0 0 .092.037M184.507 192.163a.1.1 0 0 0 .041-.011.1.1 0 0 0 .033-.026.1.1 0 0 0 .026-.039.13.13 0 0 0 0-.093.1.1 0 0 0-.026-.039c-.06-.055-1.489-1.447-3.37-1.351a.13.13 0 0 0-.081.043.13.13 0 0 0-.03.087q.005.047.04.08a.12.12 0 0 0 .085.03c1.77-.092 3.176 1.273 3.19 1.282a.1.1 0 0 0 .041.03.1.1 0 0 0 .051.007M183.064 193.751a.1.1 0 0 0 .041-.011.1.1 0 0 0 .033-.026.1.1 0 0 0 .026-.038.12.12 0 0 0 0-.09.1.1 0 0 0-.026-.038c-.06-.06-1.489-1.452-3.37-1.356a.1.1 0 0 0-.045.013.12.12 0 0 0-.06.07.1.1 0 0 0-.006.046.113.113 0 0 0 .039.082.12.12 0 0 0 .086.029c1.77-.092 3.172 1.272 3.185 1.286a.1.1 0 0 0 .045.027.2.2 0 0 0 .052.006M181.608 195.359a.122.122 0 0 0 .112-.122.12.12 0 0 0-.034-.085 4.92 4.92 0 0 0-3.37-1.351.124.124 0 0 0-.115.129.12.12 0 0 0 .041.082.13.13 0 0 0 .088.029c1.77-.093 3.172 1.267 3.185 1.281a.1.1 0 0 0 .043.028.14.14 0 0 0 .05.009M213.339 204.805c.415 2.333.963 3.85 1.964 5.127s2.789 1.424 4.121 1.143c1.867-.392 3.688-1.692 4.426-4.366.429-1.609.134-3.453-.489-5.592z"/><path fill="#37474F" d="M218.534 186.879c.659-.028 1.231 3.107 1.987 6.219.807 3.338 2.07 5.108 2.679 7.353.843 3.107.793 4.56-.093 6.611-.885 2.052-5.476 4.55-7.74 2.033-1.844-2.051-2.208-4.527-2.443-7.708a81 81 0 0 0-.816-8.081c-.41-2.361-.848-4.643-.309-4.975.083.346.18.784.267 1.121.065.258.286 1.535.655 1.502q-.01-.452-.101-.894a1.07 1.07 0 0 1 .092-.788c.177-.209.419-.353.687-.411a19 19 0 0 1 1.917-.534q.484-.106.978-.157c.571-.093 1.15-.137 1.729-.134a.564.564 0 0 1 .391.277 1 1 0 0 1 .079.359q.04.331.161.641c.032.092.111.198.203.166s.092-.129.083-.207c-.042-.383-.125-.655-.194-1.097-.032-.203-.101-.461-.124-.687s-.06-.406-.088-.609"/><path fill="#000" d="M220.867 201.523a.23.23 0 0 1-.01.133.24.24 0 0 1-.083.105.23.23 0 0 1-.359-.228.23.23 0 0 1 .175-.185.2.2 0 0 1 .091-.003q.046.007.084.033a.23.23 0 0 1 .102.145M220.406 199.359a.22.22 0 0 1-.011.133.23.23 0 0 1-.338.111.24.24 0 0 1-.087-.101.23.23 0 0 1 .043-.252.23.23 0 0 1 .207-.069q.045.007.084.033a.23.23 0 0 1 .102.145M219.945 197.318q.014.067-.01.133a.231.231 0 0 1-.442-.123.22.22 0 0 1 .06-.119.23.23 0 0 1 .116-.066.23.23 0 0 1 .24.092q.026.038.036.083M219.484 195.308a.23.23 0 0 1-.01.133.233.233 0 0 1-.339.111.23.23 0 0 1-.044-.353.23.23 0 0 1 .207-.069q.045.007.084.033a.23.23 0 0 1 .102.145M214.349 196.247a.24.24 0 0 1-.093.239.234.234 0 0 1-.256.006.234.234 0 0 1-.104-.234.233.233 0 0 1 .266-.188q.045.008.085.032a.233.233 0 0 1 .102.145M214.8 198.275q.01.045.003.09a.23.23 0 0 1-.312.172.232.232 0 0 1-.147-.21.231.231 0 0 1 .392-.17.23.23 0 0 1 .064.118M215.252 200.316a.23.23 0 0 1-.01.133.24.24 0 0 1-.083.105.23.23 0 0 1-.359-.228.22.22 0 0 1 .059-.119.23.23 0 0 1 .207-.069q.046.007.084.033a.23.23 0 0 1 .102.145M215.732 202.48q.009.046.001.092a.24.24 0 0 1-.099.151.23.23 0 0 1-.176.037.2.2 0 0 1-.086-.034.24.24 0 0 1-.101-.149.235.235 0 0 1 .359-.246.24.24 0 0 1 .102.149M217.787 203.283l-3.582-15.065.844-.12z" opacity=".15"/><path fill="#263238" d="M220.682 201.689h-.036c-1.554-.153-4.122.308-5.072.922a.1.1 0 0 1-.042.016.114.114 0 0 1-.119-.053.121.121 0 0 1 .037-.162c1.01-.654 3.6-1.124 5.228-.959a.117.117 0 0 1 .115.116c0 .03-.012.06-.034.081a.11.11 0 0 1-.081.034zM220.203 199.509a.2.2 0 0 1-.06 0c-1.222-.411-3.965.225-5.071.922a.12.12 0 0 1-.161-.037.11.11 0 0 1-.016-.089.11.11 0 0 1 .053-.073c1.134-.737 3.964-1.383 5.255-.954q.04.009.066.04a.114.114 0 0 1 0 .146.1.1 0 0 1-.066.04zM219.752 197.483a.1.1 0 0 1-.065 0c-1.222-.411-3.965.226-5.071.922a.12.12 0 0 1-.083.005.12.12 0 0 1-.066-.05.121.121 0 0 1 .02-.154c1.138-.733 3.969-1.383 5.255-.954a.1.1 0 0 1 .041.021q.018.016.029.036a.1.1 0 0 1 .012.045.1.1 0 0 1-.008.046.123.123 0 0 1-.064.083M219.304 195.469h-.064c-1.222-.41-3.965.226-5.071.922a.119.119 0 0 1-.162-.032.119.119 0 0 1 0-.129.1.1 0 0 1 .033-.033c1.138-.737 3.969-1.383 5.255-.958a.11.11 0 0 1 .07.06.1.1 0 0 1 .012.045.1.1 0 0 1-.008.047.1.1 0 0 1-.022.047.1.1 0 0 1-.043.031M214.975 110.072c1.531 19.413 2.471 45.847 2.471 45.847.139 1.475 1.558 7.768 2.268 15.038.752 7.671 1.36 22.041 1.36 22.041s-5.366 2.886-9.713 1.438c0 0-4.661-24.203-6.888-33.243-2.111-8.556-5.412-24.775-5.412-24.775l-2.245 16.066s.295 5.533.134 9.405c-.194 4.504-3.066 26.144-3.066 26.144s-5.836 3.42-10.359-.051c0 0-.783-29.846-.922-35.262-.249-10.627.991-31.22 1.383-44.935z"/><path fill="#000" d="M207.083 132.422q.608 6.975 1.36 13.945.364 3.477.76 6.962l.397 3.48.203 1.738c.064.581.184 1.153.272 1.729.765 4.61 1.945 12.973 2.766 17.569a496 496 0 0 0 2.674 13.752 655 655 0 0 0-1.992-13.858c-.719-4.61-1.844-12.982-2.637-17.583-.092-.576-.212-1.148-.281-1.724l-.212-1.738-.438-3.471a441 441 0 0 0-.922-6.939 599 599 0 0 0-1.95-13.862M185.586 131.102c-.488 4.338-.747 8.703-.922 13.065-.175 4.361-.359 8.759-.193 13.097s.216 11.677.382 16.043.36 8.722.618 13.079q.106-6.552.042-13.093c-.028-4.361-.106-11.673-.199-16.034l-.078-3.268-.023-.821v-2.443l.083-6.542.106-6.542c.041-2.18.111-4.361.184-6.541M199.061 136.423l-1.894-10.631s-5.27-.769-7.971-3.194c0 0 1.742 3.227 6.712 4.462l1.909 9.396-1.001 16.029z"/><path fill="#F28F8F" d="M176.149 76.882c.037-.922.461-1.65 1.577-2.398a8 8 0 0 0 2.259-1.977c.613-.821 1.655-2.352 2.282-2.863s-.125-1.24-1.227-1.111c-1.101.129-3.595 1.383-4.195 2.71-.599 1.328-.995 4.145-.696 5.639"/><path fill="#FFA8A7" d="M190.487 72.496c-2.536.194-5.569.194-8.197 5.044-2.711 5.01-4.965 8.962-4.965 8.962a48 48 0 0 1-1.065-7.04c-.217-3.476-.125-4.997.977-6.993a58 58 0 0 0 4.228-6.819c-1.945.1-3.878.367-5.777.798a1.18 1.18 0 0 0-.733.507c-.097.194-.092.429-.184.627-.153.27-.396.475-.687.58-.581.277-1.259.522-1.535 1.103-.152.322-.152.705-.281 1.037-.222.558-.752.922-1.167 1.3a3.6 3.6 0 0 0-.853 1.844c-.885 3.578-1.124 7.215-1.124 12.76 0 3.85.23 9.12 1.549 12.033s3.969 6.205 7.86 2.305 10.677-14.71 10.677-14.71z"/><path fill="#F28F8F" d="M177.666 71.81a6.5 6.5 0 0 0-1.807 1.06 2.23 2.23 0 0 1 .023 1.956c-.461 1.18-1.346 1.636-1.125 2.766a1.93 1.93 0 0 1 1.032-1.77c1.282-.784 2.029-3.33 1.877-4.011"/><path fill="#F0F0F0" d="M190.219 72.334c-2.411.258-4.882.392-7.26 3.651s-5.722 10.142-5.722 10.142l.088.388s1.959 2.489 2.356 7.403a10.22 10.22 0 0 1-2.656 7.838c-.355.22-.742.385-1.148.488 0 0 .969.71 2.375-.281s12.235-16.527 12.235-16.527z"/><path fill="#E0E0E0" d="m177.173 85.812.152.691s1.277 4.472-.35 7.865c-1.628 3.393-3.974 3.739-5.196 3.633-1.341-.116-1.784-1.752-1.784-1.752l-.249-1.148a.99.99 0 0 0-.299 1.148 31 31 0 0 0 1.844 4.149c.742 1.342 3.227 3.278 5.366 2.098s3.471-4.08 3.471-7.934-.885-6.312-1.484-7.132c-.6-.82-1.665-2.573-1.665-2.573z"/><path fill="#E6E6E6" d="M215.45 74.362s3.398 2.813 1.793 9.723a101 101 0 0 0-2.153 13.692c-.249 3.642.162 15.923.162 15.923-5.509 6.583-28.546 4.901-31.404-1.092 0 0-.328-23.3 1.756-31.552 1.18-4.674 2.84-7.376 4.61-8.722l7.837-1.844 7.114-.088z"/><path fill="#455A64" d="M212.278 34.964a2.47 2.47 0 0 0-.806-3.403 2.48 2.48 0 0 0-1.869-.3 2.48 2.48 0 0 0-1.534 1.107l-1.304 2.12a1.22 1.22 0 0 0 .087 1.24 3.87 3.87 0 0 0 2.978 1.845 1.24 1.24 0 0 0 1.144-.461l1.304-2.12z"/><path fill="#37474F" d="M209.83 37.564a1.24 1.24 0 0 0 1.144-.461l1.304-2.121a2.46 2.46 0 0 0 .106-2.402c.222.664-.405 1.669-1.129 2.845-.724 1.175-1.614 1.738-3.393.742-1.295-.724-1.139-1.517-.954-1.895l-.143.235a1.22 1.22 0 0 0 .087 1.24 3.87 3.87 0 0 0 2.978 1.817"/><path fill="#F7921E" d="M212.145 45.11a7.68 7.68 0 0 0-13.079-8.054c-.595.968-.553 2.305.272 3.85 1.646 3.047 5.785 5.596 9.248 5.693 1.728.05 2.959-.52 3.559-1.489"/><path fill="#F7921E" d="M211.872 41.261c-1.645-3.043-5.785-5.597-9.247-5.693-1.729-.051-2.965.525-3.559 1.489l-28.744 46.658c-.595.968-.549 2.305.272 3.85 1.646 3.047 5.786 5.596 9.248 5.698 1.728.046 2.964-.526 3.559-1.49l28.743-46.663c.595-.963.549-2.323-.272-3.849"/><path fill="#fff" d="M211.872 41.261c-1.645-3.043-5.785-5.597-9.247-5.693-1.729-.051-2.965.525-3.559 1.489l-28.744 46.658c-.595.968-.549 2.305.272 3.85 1.646 3.047 5.786 5.596 9.248 5.698 1.728.046 2.964-.526 3.559-1.49l28.743-46.663c.595-.963.549-2.323-.272-3.849" opacity=".2"/><path fill="#F7921E" d="M178.219 96.185c-3.559-.101-7.814-2.725-9.506-5.855-.843-1.567-.889-2.964-.276-3.955l2.208-3.591c.613-.992 1.881-1.582 3.66-1.531 3.559.101 7.814 2.725 9.506 5.855.844 1.567.89 2.964.277 3.96l-2.208 3.587c-.613.99-1.881 1.585-3.661 1.53"/><path fill="#fff" d="M178.219 96.185c-3.559-.101-7.814-2.725-9.506-5.855-.843-1.567-.889-2.964-.276-3.955l2.208-3.591c.613-.992 1.881-1.582 3.66-1.531 3.559.101 7.814 2.725 9.506 5.855.844 1.567.89 2.964.277 3.96l-2.208 3.587c-.613.99-1.881 1.585-3.661 1.53" opacity=".35"/><path fill="#F7921E" d="M172.092 84.845c3.559.101 7.815 2.72 9.506 5.855.849 1.562.89 2.96.277 3.955s-1.876 1.581-3.656 1.53c-3.559-.1-7.814-2.724-9.506-5.854-.843-1.568-.889-2.965-.276-3.956.613-.99 1.876-1.58 3.655-1.53"/><path fill="#000" d="M172.092 84.845c3.559.101 7.815 2.72 9.506 5.855.849 1.562.89 2.96.277 3.955s-1.876 1.581-3.656 1.53c-3.559-.1-7.814-2.724-9.506-5.854-.843-1.568-.889-2.965-.276-3.956.613-.99 1.876-1.58 3.655-1.53" opacity=".15"/><path fill="#F7921E" d="M142.901 129.834c.53-.858 1.628-1.383 3.172-1.324 3.08.088 6.768 2.356 8.234 5.072.733 1.355.769 2.567.239 3.425l-1.765 1.733a3.43 3.43 0 0 1-2.619.849c-2.84-.079-6.233-2.172-7.583-4.67a3.44 3.44 0 0 1-.42-2.72z"/><path fill="#000" d="M142.901 129.834c.53-.858 1.628-1.383 3.172-1.324 3.08.088 6.768 2.356 8.234 5.072.733 1.355.769 2.567.239 3.425l-1.765 1.733a3.43 3.43 0 0 1-2.619.849c-2.84-.079-6.233-2.172-7.583-4.67a3.44 3.44 0 0 1-.42-2.72z" opacity=".15"/><path fill="#F7921E" d="M146.073 128.512c3.079.088 6.767 2.356 8.233 5.071.733 1.356.77 2.568.24 3.425l25.923-42.08c.53-.862.493-2.075-.24-3.43-1.466-2.716-5.15-4.984-8.234-5.071-1.539-.046-2.641.46-3.171 1.323l-25.923 42.085c.516-.862 1.627-1.369 3.172-1.323"/><path fill="#F7921E" d="M152.555 138.892c.493-.765.461-1.844-.203-3.089-1.314-2.429-4.633-4.453-7.409-4.522-1.383-.032-2.355.41-2.826 1.18v.023c-1.65 2.702-4.896 10.862-4.508 14.928l.073.046c.014.222.079.438.189.631a3.56 3.56 0 0 0 2.767 1.674c.213.008.425-.03.622-.111 3.789-1.475 9.653-8.095 11.295-10.76"/><path fill="#fff" d="M180.229 91.496a8 8 0 0 0-.987-1.406L153.32 132.2q.57.648.986 1.406c.047.087.083.175.125.263l25.927-42.086c-.06-.11-.06-.198-.129-.286m4.204-2.692a4 4 0 0 0-.101-.429l25.567-41.49c3.356-5.445 3.343-7.736 2.126-9.99.723 2.226-2.352 7.182-2.766 7.837l-25.771 41.827q.171.27.323.54l-2.213 3.59c.292.53.502 1.1.622 1.692zm-45.054 60.655 1.346-.604s.977.101 3.891-2.549 4.67-5.533 7.736-10.502a7.5 7.5 0 0 0-1.204-1.6c-.032.065-3.448 6.685-7.731 11.364a24.8 24.8 0 0 1-4.264 3.771q.11.063.226.12" opacity=".2"/><path fill="#455A64" d="m138.688 147.601-1.074 1.743c-.461.761-1.222 2.909-.618 3.282s2.185-1.268 2.655-2.028l1.075-1.738s-.023-.461-.826-.922-1.212-.337-1.212-.337"/><path fill="#263238" d="M137.775 152.483a.8.8 0 0 0-.362-.528.8.8 0 0 0-.634-.086c-.037.36.032.646.217.761.184.115.465.042.779-.147"/><path fill="#FFA8A7" d="M181.451 65.65c.659 0 1.876.71 2.83 1.333.955.622 1.845.668 1.531 1.383a1.39 1.39 0 0 1-1.268.58 5.5 5.5 0 0 1-1.553-.29c1.129.973 1.383 1.36 1.046 1.701-.461.494-1.3.434-1.982.097.382.392.816.595.618.968-.199.374-.895.489-1.706.341a4.7 4.7 0 0 1-1.48-.52c-.862.23-1.821.562-1.821.562a20.8 20.8 0 0 1 3.785-6.155"/><path fill="#F28F8F" d="M182.055 70.427c-.461-.263-.922-.595-1.383-.867a2.1 2.1 0 0 0-1.517-.166c-.53.065-1.06.166-1.59.267a27 27 0 0 1-1.6.254 41 41 0 0 1 1.572-.406c.53-.129 1.056-.23 1.595-.308q.41-.06.825-.047c.285.016.56.112.793.277.47.323.876.673 1.305.996M182.991 68.638c-.41-.263-.821-.526-1.24-.77-.212-.116-.424-.25-.632-.337a1.9 1.9 0 0 0-.687-.064c-.461 0-.963.087-1.443.147-.479.06-.968.125-1.457.166.461-.124.95-.226 1.434-.318a12 12 0 0 1 1.462-.189c.255-.019.512.012.756.092q.338.16.645.374.613.408 1.162.899"/><path fill="#37474F" d="M207.009 49.633s1.535 0 2.66 1.88c.567.923 1.042 2.68 0 7.838-.399 2-1.096 3.929-2.07 5.721a2.49 2.49 0 0 1-1.383 1.25l-.148-3.887-.027-2.71s-1.886-2.26-2.199-4.191c-.401-2.48.06-3.536.06-3.536z"/><path fill="#37474F" d="M207.549 49.73c-.521-2.157-3.453-4.577-8.806-4.522-4.384.05-6.846 1.715-8.201 4.361s-.143 5.883-.143 5.883l13.674-1.78z"/><path fill="#FFA8A7" d="M209.683 63.32c-1.471.88-2.964-.424-2.964-.424l.212 8.017s-.06 1.553-2.434 3.065c-3.366 2.144-4.841 2.702-6.206 4.85-1.346-3.374-2.729-5.228-.663-7.98l-.111-1.844c-.801.103-1.61.129-2.416.078-1.798-.166-3.006-1.507-3.66-3.402-.964-2.803-1.568-7.344-.802-12.267a4.15 4.15 0 0 1 1.318-2.48c3.338-2.956 7.409-1.204 10.46-.236a5.63 5.63 0 0 0 3.744-.253c-.964 1.212-1.383 2.351-1.084 7.865.214.367.495.689.83.95.687.525 1.125-.973 1.637-1.577a2.24 2.24 0 0 1 3.536.576 3.69 3.69 0 0 1-1.397 5.062"/><path fill="#37474F" d="m199.448 55.143 2.02.728a1.122 1.122 0 0 0-.669-1.406 1.046 1.046 0 0 0-1.351.677M191.994 55.722l2.038-.733a1.04 1.04 0 0 0-.936-.733 1.05 1.05 0 0 0-.415.06 1.137 1.137 0 0 0-.687 1.406"/><path fill="#263238" d="M200.712 57.214a.878.878 0 0 1-1.021.891.876.876 0 1 1 .458-1.683.87.87 0 0 1 .563.792M194.202 57.306a.87.87 0 0 1-.511.823.878.878 0 0 1-1.215-.588.87.87 0 0 1 .328-.912.9.9 0 0 1 .476-.172.8.8 0 0 1 .869.495.8.8 0 0 1 .053.354"/><path fill="#F28F8F" d="m197.392 55.48-.364 5.597-3.006-.894a13.06 13.06 0 0 1 3.37-4.703"/><path fill="#37474F" d="M205.1 57.861c-.133 3.818-1.443 4.099-2.793 4.334-1.794.318-2.688-.641-5.897-.6-1.945.023-2.549.609-3.651 1.08-.811.345-1.48.253-1.802-.462a12.7 12.7 0 0 1-.664-4.112 30.5 30.5 0 0 0 .235 6.247c.286 1.788.959 3.314 1.959 4.149 1.383 1.143 4.255 1.581 7.837.747 3.582-.835 4.915-2.342 5.334-3.615 1.346-4.149.775-6.067 1.236-6.85.461-.784-1.794-.918-1.794-.918"/><path fill="#FFA8A7" d="M196.862 62.735c1.844-.06 2.434.263 2.536 1.517.147 1.793.069 2.397-.618 2.499-.807.124-1.383.18-1.434-.332a2.05 2.05 0 0 1 .102-1.148c.281-.35.179-.397-.623-.369s-.793.17-.548.415c.175.18.166.793.17 1.148s-.083.54-1.24.46c-1.01-.082-.848-.894-.848-2.438 0-1.056.429-1.682 2.503-1.752"/><path fill="#B16668" d="m198.6 62.994-2.978.461a1.473 1.473 0 0 0 1.678 1.31 1.58 1.58 0 0 0 1.3-1.77"/><path fill="#F28F8F" d="M198.213 63.45q.184-.01.364.027a1.56 1.56 0 0 1-1.277 1.273c-.16.027-.324.027-.484 0a1.38 1.38 0 0 1 1.397-1.3"/><path fill="#F7921E" d="M196.839 78.554s-1.328-2.5-1.332-3.481l1.586-1.655.516 4.09z"/><path fill="#000" d="M196.839 78.554s-1.328-2.5-1.332-3.481l1.586-1.655.516 4.09z" opacity=".2"/><path fill="#F7921E" d="m199.015 77.661 2.711-1.862 2.277 1.516-4.167 2.153z"/><path fill="#000" d="m199.015 77.661 2.711-1.862 2.277 1.516-4.167 2.153z" opacity=".2"/><path fill="#F7921E" d="M200.928 102.843c-.258-8.76-2.213-19.883-2.061-22.013l-1.489-.139c-1.018 2.559-3.291 16.758-3.185 22.806-.065 2.112 1.996 5.994 3.416 6.058s3.356-5.431 3.319-6.712"/><path fill="#fff" d="M200.928 102.843c-.258-8.76-2.213-19.883-2.061-22.013l-1.489-.139c-1.018 2.559-3.291 16.758-3.185 22.806-.065 2.112 1.996 5.994 3.416 6.058s3.356-5.431 3.319-6.712" opacity=".1"/><path fill="#000" d="M197.263 81.03c.047-.134.074-.222.116-.323l1.489.138a6 6 0 0 0 0 .655 2.62 2.62 0 0 1-1.605-.47" opacity=".5"/><path fill="#F7921E" d="M199.052 77.455a6.3 6.3 0 0 0-1.406-.05 3.3 3.3 0 0 0-.807 1.147c.022.744.206 1.474.539 2.14a1.8 1.8 0 0 0 1.489.138 3.1 3.1 0 0 0 1.065-1.439 2.83 2.83 0 0 0-.88-1.936"/><path fill="#fff" d="M199.052 77.455a6.3 6.3 0 0 0-1.406-.05 3.3 3.3 0 0 0-.807 1.147c.022.744.206 1.474.539 2.14a1.8 1.8 0 0 0 1.489.138 3.1 3.1 0 0 0 1.065-1.439 2.83 2.83 0 0 0-.88-1.936" opacity=".1"/><path fill="#F5F5F5" d="M199.024 77.45c.046 0 .111.111.157.12 1.033-.571 1.194-.76 1.471-.686.52.142 1.774 2.305 2.088 2.996.313.692.258.692 1.208.046a17.2 17.2 0 0 0 4.287-4.232 12.7 12.7 0 0 0 1.683-3.462s-1.107-1.494-1.434-2.065c-.632-1.107-.982-1.55-1.613-1.448v.724c-.102.973-1.102 1.909-2.444 3.093-1.341 1.185-3.522 2.305-4.034 2.83-.54.637-.999 1.337-1.369 2.085M194.128 78.333c.157.392 1.383-2.715 1.996-2.66.295.023.978.853 1.54 1.733h.424a9.4 9.4 0 0 1-.668-2.35c-.138-1.052.244-4.191.244-4.191l-.092-1.213-.544.023a4.7 4.7 0 0 0-.53.724c-.59.996-2.135 3.301-2.305 4.481a10.3 10.3 0 0 0-.065 3.453"/><path fill="#F28F8F" d="M203.404 95.66a11.6 11.6 0 0 1-1.798-2.549c-.622-1.176-.848-1.969-1.309-2.932l-.461-.922a.6.6 0 0 0-.143-.212.46.46 0 0 0-.539.023 1.89 1.89 0 0 0-.844 1.613c.022.636.123 1.266.3 1.877.087.405.484 1.904.484 1.904z"/><path fill="#FFA8A7" d="M222.711 79.757c-1.517-3.578-3.421-4.117-8.473-5.57-2.739 4.68-.696 13.77-.696 13.77l2.305 10.752s-7.888-.245-9.28-.886c-1.393-.64-5.33-3.854-6.63-4.799-1.775-1.281-2.521-.972-3.301-.747-2.549.752-3.093 1.052-3.595 1.48a1.18 1.18 0 0 0-.365 1.084c-.682.18-1.719.304-1.696 1.456q-.022.467.087.922a.75.75 0 0 0-.414.319c-.485.746.82 2.918 1.525 3.393.498.336 1.13.299 1.941.073.687-.193.263-.862.263-.862l.987-.078c2.328 1.212 2.849 3.983 5.739 4.25a29 29 0 0 1 3.508.388c6.312 1.194 12.512 4.863 17.947 4.582 5.307-.277 4.772-3.052 4.408-6.274-.3-2.877-2.522-19.169-4.26-23.254"/><path fill="#F28F8F" d="m215.639 97.625.23 1.07c2.471.28 5.288 1.645 6.04 2.872-.729-1.996-1.914-3.389-6.27-3.942"/><path fill="#F0F0F0" d="M214.127 73.832c1.844.549 5.103 1.097 6.523 2.513s2.37 2.245 3.486 6.915c1.115 4.67 2.48 15.784 3.075 17.758.594 1.973 1.078 3.291 0 4.494-1.333-3.563-5.104-6.606-11.337-6.818-1.028 0-.788-1.277-1.152-2.462-.364-1.184-1.72-8.173-2.305-10.497s-1.439-9.437 1.71-11.903"/><path fill="#E0E0E0" d="m215.123 98.177-.148.461a14.6 14.6 0 0 1 5.744 3.172c2.439 2.333 2.992 4.246 3.117 5.468.124 1.221 0 1.95-.922 1.987l-.844.032s.175.461 1.77.332c1.383-.111 2.72-.498 3.375-1.923a4.32 4.32 0 0 0 .17-3.688c-.461-1.281-1.682-3.545-5.472-5.112-3.112-1.282-6.79-.729-6.79-.729"/><path fill="#F28F8F" d="m192.699 94.858 3.006-1.055-3.001.594a1.2 1.2 0 0 0-.005.461M191.09 97.213l3.499-.973-3.558.54q.005.22.059.433M191.777 98.717c.142.165.327.287.535.35.205.07.42.11.636.12l-.05-.028c.119.176.249.346.373.512l.065-.106a.73.73 0 0 0-.549.217.9.9 0 0 0-.244.507 1.15 1.15 0 0 1 .308-.438.7.7 0 0 1 .462-.152h.138l-.079-.115a14 14 0 0 0-.378-.512v-.028h-.032a3 3 0 0 1-.613-.083 1.36 1.36 0 0 1-.572-.244"/><path fill="#F28F8F" d="M192.782 99.045a11 11 0 0 0 1.305-.088s.06.249.535.622q.37.254.77.461l-.987.079a1.6 1.6 0 0 0-1.208-.461z"/></svg>