<svg xmlns="http://www.w3.org/2000/svg" width="256" height="256" fill="none"><path stroke="#D5D5D5" d="M234.861 172.457c0 16.041-11.76 30.669-31.007 41.316-19.231 10.637-45.831 17.232-75.24 17.232-29.41 0-56.01-6.595-75.24-17.232-19.248-10.647-31.008-25.275-31.008-41.316 0-16.04 11.76-30.668 31.008-41.315 19.23-10.637 45.83-17.232 75.24-17.232s56.009 6.595 75.24 17.232c19.247 10.647 31.007 25.275 31.007 41.315Z"/><path fill="#F7921E" d="m86.928 173.005 62.544-36.108a5.7 5.7 0 0 0 2.576-4.463V110.47a5.71 5.71 0 0 0-2.576-4.463l-43.2-24.944a5.7 5.7 0 0 0-5.157 0l-62.539 36.108A5.71 5.71 0 0 0 36 121.634v21.964a5.71 5.71 0 0 0 2.576 4.468l43.2 24.939a5.7 5.7 0 0 0 5.152 0"/><path fill="#263238" d="M84.352 171.519v-21.964a5.7 5.7 0 0 0-2.576-4.463l-43.2-24.944c-1.426-.821-2.576-.154-2.576 1.488V143.6a5.7 5.7 0 0 0 2.576 4.467l43.2 24.94c1.422.82 2.576.158 2.576-1.488"/><path fill="#F7921E" d="m150.854 107.278-67.692 39.083a4.8 4.8 0 0 0-1.387-1.268l-43.195-24.94c-1.29-.746-2.352-.281-2.545 1.032a5.7 5.7 0 0 1 2.545-4.007l62.535-36.117a5.7 5.7 0 0 1 5.156 0l43.196 24.953a4.6 4.6 0 0 1 1.387 1.264"/><path fill="#455A64" d="m150.854 107.278-67.692 39.083a4.8 4.8 0 0 0-1.387-1.268l-43.195-24.94c-1.29-.746-2.352-.281-2.545 1.032a5.7 5.7 0 0 1 2.545-4.007l62.535-36.117a5.7 5.7 0 0 1 5.156 0l43.196 24.953a4.6 4.6 0 0 1 1.387 1.264"/><path fill="#37474F" d="M152.043 110.47v21.942a5.65 5.65 0 0 1-2.576 4.463l-62.535 36.113a5.74 5.74 0 0 1-4.766.184c1.233.509 2.194-.184 2.194-1.676v-21.942a5.54 5.54 0 0 0-1.189-3.195l67.683-39.084a5.55 5.55 0 0 1 1.189 3.195"/><path fill="#F7921E" d="M138.694 117.851v5.811a4.58 4.58 0 0 1-2.059 3.576l-35.107 20.283c-1.137.663-2.063.128-2.063-1.184v-5.811a5.1 5.1 0 0 0-.974-3.01l39.255-22.666c.622.877.953 1.926.948 3.001"/><path fill="#000" d="M138.694 117.851v5.811a4.58 4.58 0 0 1-2.059 3.576l-35.107 20.283c-1.137.663-2.063.128-2.063-1.184v-5.811a5.1 5.1 0 0 0-.974-3.01l39.255-22.666c.622.877.953 1.926.948 3.001" opacity=".15"/><path fill="#F7921E" d="m137.729 114.852-39.255 22.662a5.1 5.1 0 0 0-1.602-1.457l-29.209-16.865c-1.137-.653-1.137-1.724 0-2.378l35.107-20.292a4.59 4.59 0 0 1 4.126 0l29.226 16.856a5.1 5.1 0 0 1 1.607 1.474"/><path fill="#FAFAFA" d="M98.794 114.889c-2.835 1.637-2.835 4.292 0 5.929s7.434 1.637 10.269 0 2.839-4.287 0-5.929c-2.839-1.641-7.434-1.636-10.269 0"/><path fill="#263238" d="M93.813 159.78a3.91 3.91 0 0 1 1.755-3.072l48.014-27.722c.979-.561 1.756-.105 1.756 1.027v9.255l-51.525 29.767z"/><path fill="#000" d="M95.494 162.479v-2.791l48.356-27.915v2.791z"/><path fill="#263238" d="M50.504 115.868 98.86 87.949l2.365 1.374-48.347 27.915z"/><path fill="#37474F" d="m51.627 116.527-6.951-30.72L93.032 57.89l6.947 30.723z"/><path fill="#263238" d="m44.676 85.809-1.12-.659 6.948 30.719 1.123.659z"/><path fill="#455A64" d="m43.557 85.152 1.119.658 48.356-27.92-1.12-.658z"/><path fill="#E0E0E0" d="m53.027 115.719-8.395-37.152L88.916 53l8.395 37.152z"/><path fill="#FAFAFA" d="m54.26 116.438-8.4-37.152L90.15 53.719l8.395 37.152z"/><path fill="#E0E0E0" d="m45.861 79.286-1.229-.72 8.68 38.421.949-.548z"/><path fill="#EBEBEB" d="m44.632 78.567 1.23.72L90.148 53.72 88.916 53z"/><path fill="#263238" d="M90.965 138.484v-.557a.71.71 0 0 0-.439-.593l-1.162-.671a2.28 2.28 0 0 0-2.063 0l-4.389 2.532a.719.719 0 0 0-.439.597v.566a.73.73 0 0 0 .44.584l1.162.671a2.28 2.28 0 0 0 2.063 0l4.388-2.532a.73.73 0 0 0 .44-.588z"/><path fill="#37474F" d="m84.093 141.056-1.163-.672c-.566-.329-.566-.877 0-1.189l4.388-2.532a2.28 2.28 0 0 1 2.063 0l1.163.671c.566.325.566.878 0 1.19l-4.389 2.532a2.3 2.3 0 0 1-2.062 0"/><path fill="#FAFAFA" d="M85.186 140.584a1.8 1.8 0 0 1-.878-.211.74.74 0 0 1-.373-.439.5.5 0 0 1 .061-.395.1.1 0 0 1 .024-.027.1.1 0 0 1 .033-.017.1.1 0 0 1 .036-.003.1.1 0 0 1 .035.012.101.101 0 0 1 .035.132.3.3 0 0 0-.044.25c.05.141.155.256.29.32a1.71 1.71 0 0 0 1.562 0 .41.41 0 0 0 .3-.397.41.41 0 0 0-.3-.397 1.72 1.72 0 0 0-1.145-.149.1.1 0 0 1-.071-.016.1.1 0 0 1-.044-.059.101.101 0 0 1 .075-.114 1.92 1.92 0 0 1 1.281.176.595.595 0 0 1 0 1.119c-.269.145-.571.219-.877.215"/><path fill="#FAFAFA" d="M85.225 139.931h-.044l-1.084-.627a.1.1 0 0 1-.026-.025.1.1 0 0 1-.017-.068.1.1 0 0 1 .013-.034.1.1 0 0 1 .023-.028.1.1 0 0 1 .033-.017.1.1 0 0 1 .036-.002.1.1 0 0 1 .035.012l1.08.623a.09.09 0 0 1 .048.096.1.1 0 0 1-.014.035.1.1 0 0 1-.037.029q-.021.009-.046.006"/><path fill="#263238" d="m78.326 139.821 9.655-5.582a.328.328 0 0 0 0-.619l-5.59-3.226a1.18 1.18 0 0 0-1.063 0l-9.654 5.587a.325.325 0 0 0 0 .614l5.586 3.226a1.18 1.18 0 0 0 1.066 0"/><path fill="#F7921E" d="M82.368 131.193a1.16 1.16 0 0 0-1.062 0l-9.47 5.49 5.428 3.137a1.17 1.17 0 0 0 1.062 0l9.475-5.494z"/><g fill="#000" opacity=".4"><path d="M75.004 136.941a1.72 1.72 0 0 1 1.685-.066c.505.29.483.694-.057 1.005l-.465.268.623.36-.412.237-2.252-1.317zm.983 1.106.378-.219c.368-.211.333-.439-.101-.707a1.12 1.12 0 0 0-1.172-.026l-.377.215zM76.26 136.195l.934-.536a1.54 1.54 0 0 1 1.461-.105.413.413 0 0 1 .088.733q.218-.038.439-.022l1.102.083-.25.334-1.058-.119a1.23 1.23 0 0 0-.843.088l-.127.075.917.531-.417.237zm.596-.136.974.566.474-.277c.264-.149.233-.368-.07-.544a.88.88 0 0 0-.926 0zM78.844 134.721l2.251 1.316-.412.237-2.251-1.316zM79.643 134.261l2.742.263h.097l-.676-.391c-.303-.175-.878-.439-1.036-.526l.294-.171 2.252 1.316-.285.167-2.796-.268-.15-.022.747.439.974.562-.272.158c-.171-.101-.628-.408-.93-.58l-1.286-.767zM83.29 132.158l.228.132c-.15.083-.58.272-.79.395l2.072 1.198-.417.241-2.072-1.198c-.215.123-.54.369-.689.439l-.228-.132z"/></g><path fill="#E0E0E0" d="M96.442 161.312a34.1 34.1 0 0 1 12.182 4.928 31.4 31.4 0 0 1 10.168 10.739 31.76 31.76 0 0 0 11.638 11.634l7.592 4.388v-1.949l-7.592-4.388c-4.827-2.791-8.377-7.1-11.168-11.932-2.502-4.327-6.434-7.741-10.638-10.44a34.4 34.4 0 0 0-10.887-4.665l-1.277.737z"/><path fill="#000" d="M96.442 161.314a34.1 34.1 0 0 1 12.182 4.928 31.4 31.4 0 0 1 10.168 10.739 31.75 31.75 0 0 0 11.638 11.633l7.592 4.389v-1.949l-7.592-4.388c-4.827-2.791-8.377-7.1-11.168-11.932-2.502-4.327-6.434-7.741-10.638-10.44a34.4 34.4 0 0 0-10.887-4.665l-1.277.737z" opacity=".05"/><path fill="#EBEBEB" d="m182.196 165.529-44.174 25.537v1.93l44.174-25.549z"/><path fill="#FAFAFA" d="m138.023 191.053-7.592-4.389c-4.828-2.791-8.378-7.1-11.169-11.932-2.501-4.327-6.433-7.741-10.637-10.44a34.4 34.4 0 0 0-10.888-4.665l44.161-25.545a34.6 34.6 0 0 1 10.9 4.669c4.209 2.699 8.018 6.28 10.533 10.612 2.791 4.827 6.459 8.969 11.291 11.761l7.592 4.388z"/><path fill="#E0E0E0" d="M106.079 159.549a.404.404 0 0 1-.399-.301.405.405 0 0 1 .193-.462l25.892-14.987a.41.41 0 0 1 .548.155.41.41 0 0 1-.14.552l-25.892 14.986a.4.4 0 0 1-.202.057M110.274 161.571a.415.415 0 0 1-.379-.569.4.4 0 0 1 .173-.199l25.892-14.987a.4.4 0 0 1 .311-.04.408.408 0 0 1 .217.646.4.4 0 0 1-.12.105l-25.892 14.987a.4.4 0 0 1-.202.057M114.088 164.006a.39.39 0 0 1-.356-.202.411.411 0 0 1 .028-.456.4.4 0 0 1 .122-.106l25.891-14.986a.412.412 0 0 1 .413.711l-25.892 14.986a.4.4 0 0 1-.206.053M117.783 167.01a.41.41 0 0 1-.396-.304.41.41 0 0 1 .194-.46l25.892-14.986a.411.411 0 0 1 .562.149.437.437 0 0 1-.154.562l-25.892 14.986a.45.45 0 0 1-.206.053M121 170.492a.39.39 0 0 1-.356-.202.4.4 0 0 1-.042-.312.4.4 0 0 1 .192-.249l25.891-14.987a.412.412 0 0 1 .413.711l-25.892 14.987a.43.43 0 0 1-.206.052M123.58 174.479a.402.402 0 0 1-.399-.302.406.406 0 0 1 .193-.462l25.892-14.986a.405.405 0 0 1 .548.155.41.41 0 0 1-.14.551l-25.892 14.991a.43.43 0 0 1-.202.053M126.323 178.375a.4.4 0 0 1-.4-.301.41.41 0 0 1 .194-.462l25.892-14.987a.41.41 0 0 1 .59.459.4.4 0 0 1-.182.248l-25.892 14.986a.4.4 0 0 1-.202.057M136.539 141.902a.4.4 0 0 1-.355-.202.411.411 0 0 1 .149-.562l6.627-3.839a.407.407 0 0 1 .599.462.4.4 0 0 1-.191.248l-6.627 3.84a.43.43 0 0 1-.202.053M140.73 143.937a.4.4 0 0 1-.4-.301.405.405 0 0 1 .194-.462l6.631-3.84a.4.4 0 0 1 .313-.048.416.416 0 0 1 .254.191.42.42 0 0 1 .039.315.412.412 0 0 1-.198.248l-6.627 3.845a.43.43 0 0 1-.206.052M144.54 146.378a.416.416 0 0 1-.408-.357.4.4 0 0 1 .201-.407l6.627-3.839a.406.406 0 0 1 .612.297.41.41 0 0 1-.2.409l-6.63 3.84a.37.37 0 0 1-.202.057M148.243 149.362a.41.41 0 0 1-.355-.206.4.4 0 0 1 .149-.557l6.627-3.84a.4.4 0 0 1 .31-.042.405.405 0 0 1 .291.499.4.4 0 0 1-.189.249l-6.631 3.84a.37.37 0 0 1-.202.057M151.456 152.874a.415.415 0 0 1-.398-.516.4.4 0 0 1 .191-.247l6.627-3.84a.4.4 0 0 1 .31-.043.4.4 0 0 1 .144.07.42.42 0 0 1 .148.43.42.42 0 0 1-.19.249l-6.63 3.84a.37.37 0 0 1-.202.057M154.022 156.85a.41.41 0 0 1-.396-.304.41.41 0 0 1 .194-.46l6.627-3.844a.407.407 0 0 1 .559.151.41.41 0 0 1-.151.56l-6.626 3.84a.4.4 0 0 1-.207.057M156.779 160.746a.44.44 0 0 1-.356-.206.41.41 0 0 1 .149-.557l6.631-3.845a.41.41 0 0 1 .56.152.41.41 0 0 1-.152.559l-6.626 3.84a.4.4 0 0 1-.206.057"/><path fill="#F7921E" d="M163.804 162.475a5.8 5.8 0 0 1 2.089-.409q.432-.003.856.079.325.061.627.198c.084.044.119.092.114.149a.2.2 0 0 1-.114.149l-.662.382a.7.7 0 0 1-.303.101 1.4 1.4 0 0 1-.307 0 2.8 2.8 0 0 0-.843 0 2.9 2.9 0 0 0-1.031.395 2.2 2.2 0 0 0-.417.298 1 1 0 0 0-.237.312.4.4 0 0 0 0 .29c.045.105.126.19.228.241a1.1 1.1 0 0 0 .439.145q.292.01.575-.062a6 6 0 0 0 .777-.237c.298-.105.662-.237 1.084-.395q.611-.231 1.246-.386a5 5 0 0 1 1.04-.14q.446-.013.878.101.422.113.798.333c.217.116.405.279.549.479a.9.9 0 0 1 .167.57 1.24 1.24 0 0 1-.233.628 2.7 2.7 0 0 1-.641.64l.641.373a.154.154 0 0 1 0 .294l-.764.439a.5.5 0 0 1-.254.062.5.5 0 0 1-.255-.062l-.645-.373q-.496.211-1.022.334a6.3 6.3 0 0 1-1.031.158 4.8 4.8 0 0 1-.975-.044 2.9 2.9 0 0 1-.847-.272q-.12-.06-.114-.145a.198.198 0 0 1 .114-.149l.663-.382a.8.8 0 0 1 .316-.092q.155-.022.312 0 .202.035.408.048.235.017.469-.022.284-.048.558-.14a4.3 4.3 0 0 0 1.167-.654q.192-.144.32-.347a.53.53 0 0 0 .079-.329.44.44 0 0 0-.241-.281.95.95 0 0 0-.474-.118 2.3 2.3 0 0 0-.628.101 9 9 0 0 0-.847.28q-.48.183-1.132.404a10 10 0 0 1-1.097.321 5 5 0 0 1-.97.118 3.26 3.26 0 0 1-1.724-.47 1.5 1.5 0 0 1-.54-.474 1 1 0 0 1-.167-.548c.005-.21.069-.413.184-.588.142-.22.318-.416.523-.579l-.641-.373a.154.154 0 0 1 0-.294l.763-.439a.5.5 0 0 1 .255-.057.5.5 0 0 1 .255.057z"/><path fill="#455A64" d="m144.148 176.083 4.665 2.691.667-.387-4.665-2.69zM149.328 173.094l4.665 2.69.667-.386-4.665-2.695zM153.672 170.586l4.665 2.695.434-.251-4.665-2.694zM146.808 174.549l4.665 2.694.334-.193-4.665-2.695zM150.459 172.437l4.665 2.695.334-.193-4.665-2.695zM152.816 171.082l4.665 2.69.333-.193-4.665-2.694zM145.338 175.396l4.665 2.694 1.189-.689-4.665-2.69zM147.716 174.019l4.665 2.695 1.194-.689-4.665-2.695zM151.289 171.958l4.664 2.694.817-.469-4.665-2.695zM133.099 182.458l4.665 2.695.671-.386-4.664-2.695zM138.277 179.472l4.665 2.695.671-.387-4.665-2.694zM142.622 176.96l4.664 2.695.672-.386-4.665-2.695zM135.758 180.927l4.665 2.691.334-.194-4.665-2.69zM139.383 178.83l4.665 2.694.338-.193-4.665-2.694zM141.766 177.457l4.665 2.694.337-.193-4.664-2.694zM134.288 181.777l4.665 2.694.882-.509-4.665-2.694zM136.67 180.402l4.665 2.69.97-.558-4.665-2.694zM140.282 178.313l4.665 2.695.917-.527-4.665-2.69zM154.773 169.947l4.665 2.69.671-.386-4.665-2.694zM155.998 169.244l4.664 2.694.334-.193-4.665-2.694zM158.267 167.935l4.664 2.69.334-.193-4.665-2.69zM156.972 168.68l4.665 2.69.956-.553-4.665-2.69z"/><path fill="#F7921E" d="M152.727 216.966a8.5 8.5 0 0 0-3.14-2.904c-5.13-2.96-13.441-2.96-18.566 0a8.47 8.47 0 0 0-3.14 2.904h-.708v2.683c.092 1.862 1.37 3.714 3.837 5.13 5.131 2.96 13.442 2.96 18.567 0 2.467-1.421 3.75-3.273 3.847-5.13v-2.683z"/><path fill="#000" d="M152.727 216.964a8.5 8.5 0 0 0-3.14-2.904c-5.13-2.96-13.441-2.96-18.566 0a8.47 8.47 0 0 0-3.14 2.904h-.708v2.683c.092 1.862 1.37 3.714 3.837 5.13 5.131 2.96 13.442 2.96 18.567 0 2.467-1.421 3.75-3.273 3.847-5.13v-2.683z" opacity=".25"/><path fill="#000" d="M140.306 211.846c-3.365 0-6.725.738-9.285 2.216a8.47 8.47 0 0 0-3.14 2.904h-.708v2.683c.092 1.862 1.37 3.714 3.837 5.13 2.565 1.483 5.921 2.221 9.286 2.221z" opacity=".1"/><path fill="#000" d="M133.129 213.076q-1.095.406-2.108.985a8.5 8.5 0 0 0-3.14 2.904h-.708v2.683c.092 1.862 1.37 3.714 3.837 5.13q1.014.582 2.109.99z" opacity=".1"/><path fill="#F7921E" d="M147.474 213.076c.73.27 1.437.6 2.113.985a8.5 8.5 0 0 1 3.14 2.904h.708v2.683c-.097 1.862-1.38 3.714-3.848 5.13-.676.387-1.383.719-2.113.99z"/><path fill="#F7921E" d="M149.587 211.605c-5.13-2.96-13.441-2.96-18.566 0s-5.13 7.762 0 10.722 13.441 2.96 18.566 0c5.126-2.96 5.131-7.762 0-10.722"/><path fill="#000" d="M149.587 211.605c-5.13-2.96-13.441-2.96-18.566 0s-5.13 7.762 0 10.722 13.441 2.96 18.566 0c5.126-2.96 5.131-7.762 0-10.722" opacity=".2"/><path fill="#F7921E" d="M146.35 213.568a14.79 14.79 0 0 0-12.092 0c-1.719.877-2.668 2.088-2.668 3.396 0 1.309.949 2.519 2.668 3.402a14.84 14.84 0 0 0 12.092 0c1.719-.883 2.663-2.088 2.663-3.402 0-1.313-.944-2.519-2.663-3.396"/><path fill="#000" d="M146.35 213.568a14.79 14.79 0 0 0-12.092 0c-1.719.877-2.668 2.088-2.668 3.396 0 1.309.949 2.519 2.668 3.402a14.84 14.84 0 0 0 12.092 0c1.719-.883 2.663-2.088 2.663-3.402 0-1.313-.944-2.519-2.663-3.396" opacity=".4"/><path fill="#F7921E" d="M149.305 212.103c-2.396-1.385-5.592-2.144-9.004-2.144s-6.603.759-8.998 2.144c-2.294 1.324-3.561 3.053-3.561 4.864s1.267 3.54 3.561 4.869c2.395 1.38 5.592 2.139 8.998 2.139 3.407 0 6.608-.759 9.004-2.139 2.293-1.329 3.56-3.079 3.56-4.869 0-1.791-1.267-3.54-3.56-4.864m-2.955 8.265a14.84 14.84 0 0 1-12.092 0c-1.719-.882-2.668-2.088-2.668-3.401s.949-2.519 2.668-3.396a14.79 14.79 0 0 1 12.092 0c1.718.877 2.662 2.088 2.662 3.396s-.944 2.519-2.662 3.401"/><path fill="#000" d="M140.302 221.204c4.561 0 8.259-1.898 8.259-4.238s-3.698-4.237-8.259-4.237c-4.562 0-8.26 1.897-8.26 4.237s3.698 4.238 8.26 4.238" opacity=".2"/><path fill="#F7921E" d="M140.302 221.204c4.561 0 8.259-1.898 8.259-4.238s-3.698-4.237-8.259-4.237c-4.562 0-8.26 1.897-8.26 4.237s3.698 4.238 8.26 4.238"/><path fill="#000" d="M140.302 221.204c4.561 0 8.259-1.898 8.259-4.238s-3.698-4.237-8.259-4.237c-4.562 0-8.26 1.897-8.26 4.237s3.698 4.238 8.26 4.238" opacity=".6"/><path fill="#F7921E" d="M146.145 215.092c-3.227-1.657-8.455-1.657-11.682 0-1.334.683-2.113 1.539-2.344 2.432.231.893 1.026 1.755 2.344 2.437 3.227 1.657 8.455 1.657 11.682 0 1.334-.682 2.113-1.539 2.344-2.437-.231-.887-1.01-1.749-2.344-2.432"/><path fill="#000" d="M146.145 215.092c-3.227-1.657-8.455-1.657-11.682 0-1.334.683-2.113 1.539-2.344 2.432.231.893 1.026 1.755 2.344 2.437 3.227 1.657 8.455 1.657 11.682 0 1.334-.682 2.113-1.539 2.344-2.437-.231-.887-1.01-1.749-2.344-2.432" opacity=".5"/><path fill="#F7921E" d="M141.086 214.029v1.216l-.416.431-.764.806v-1.262z"/><path fill="#000" d="M141.086 214.029v1.216l-.416.431-.764.806v-1.262z" opacity=".3"/><path fill="#F7921E" d="M139.907 215.221v.713a6.5 6.5 0 0 1-1.175.333 1.14 1.14 0 0 1-.513 0 1 1 0 0 1-.241-.097c-.293-.175-.339-.431.215-.749.251-.164.536-.268.833-.303a1.94 1.94 0 0 1 .881.103"/><path fill="#000" d="M139.907 215.221v.713a6.5 6.5 0 0 1-1.175.333 1.14 1.14 0 0 1-.513 0 1 1 0 0 1-.241-.097c-.293-.175-.339-.431.215-.749.251-.164.536-.268.833-.303a1.94 1.94 0 0 1 .881.103" opacity=".45"/><path fill="#F7921E" d="M145.39 218.66v1.026l-1.323.77-.98-.57a5 5 0 0 1-3.797.175v-1.027l.606-.6-.606.17a3.9 3.9 0 0 1-2.955-.339c-.595-.344-.867-.718-.867-1.103v-1.026l.108-.446-.364-.211v-1.026l.985.564a1.55 1.55 0 0 0-.729 1.124c0 .374.288.739.867 1.072 1.288.744 2.566.513 3.735.123 1.088-.354 1.878-.769 2.509-.41.385.226.267.513-.169.754a2.2 2.2 0 0 1-1.868.108l-1.252 1.241q.339.128.693.2a5.17 5.17 0 0 0 3.078-.369l.98.564z"/><path fill="#000" d="M135.469 216.124c0 .374.287.738.867 1.072 1.287.744 2.565.513 3.735.123 1.087-.354 1.877-.77 2.508-.41.385.225.267.513-.169.754a2.18 2.18 0 0 1-1.867.107l-1.252 1.242q.339.128.692.2a5.17 5.17 0 0 0 3.079-.369l.979.564 1.324-.764v1.026l-1.298.785-.98-.57a5 5 0 0 1-3.796.174v-1.026l.605-.6-.605.169a3.88 3.88 0 0 1-2.955-.338c-.595-.344-.867-.718-.867-1.103v-1.026l.107-.446" opacity=".35"/><path fill="#000" d="M135.217 214.436v1.026l.359.21c.153-.274.365-.511.621-.693z" opacity=".45"/><path fill="#F7921E" d="M145.17 217.975c.004.176-.029.351-.098.513l-.667-.38a1.29 1.29 0 0 0 .754-1.026c.006.292.011.862.011.893"/><path fill="#000" d="M145.17 217.975c.005.176-.029.351-.097.513l-.667-.38a1.3 1.3 0 0 0 .754-1.026c.005.292.01.862.01.893" opacity=".3"/><path fill="#F7921E" d="m145.17 218.53-.759-.436a1.3 1.3 0 0 0 .759-1.165 1 1 0 0 0 0-.102c-.031-.36-.298-.708-.847-1.027a3.44 3.44 0 0 0-1.759-.461h-.626a7 7 0 0 0-.857.179c-.133.036-.267.072-.4.118l-.554.18-.21.072a6.6 6.6 0 0 1-1.175.333 1.2 1.2 0 0 1-.513 0 1 1 0 0 1-.236-.097c-.298-.17-.344-.431.21-.749a1.932 1.932 0 0 1 1.703-.18l1.18-1.19a5.06 5.06 0 0 0-3.555.2l-.98-.564-1.334.769.98.564a1.5 1.5 0 0 0-.728 1.129c0 .38.287.744.867 1.077 1.292.744 2.565.514 3.734.124 1.088-.354 1.878-.77 2.504-.411.39.226.272.513-.164.749a2.16 2.16 0 0 1-1.868.113l-1.251 1.242q.34.126.692.205a5 5 0 0 0 1.206.087 5.7 5.7 0 0 0 1.893-.462l.985.565 1.318-.765z"/><path fill="#F7921E" d="M143.082 218.859v1.047l.985.564v-1.046z"/><path fill="#000" d="M143.082 218.859v1.047l.985.564v-1.046z" opacity=".45"/><path fill="#F5F5F5" d="m135.212 214.436 1.339-.77.98.564-.975-.41zM138.203 215.399a1.93 1.93 0 0 1 1.703-.179l1.18-1.191-1.18 1.067a1.78 1.78 0 0 0-1.703.303M139.291 219.027q.339.126.692.205a5 5 0 0 0 1.206.087 4.2 4.2 0 0 1-1.698-.344l1.051-1.19zM143.082 218.858l.985.441 1.319-.641-1.319.765zM131.405 212.278c3.478-2.114 8.896-2.319 8.896-2.319-3.406 0-6.603.759-8.998 2.144-2.294 1.324-3.561 3.053-3.561 4.864 0 0 .128-2.54 3.663-4.689M139.291 224.521c3.688.164 7.474-.564 10.296-2.195 2.934-1.693 4.191-3.992 3.766-6.203 0 0 .548 3.591-3.987 6.069s-10.075 2.329-10.075 2.329"/><path fill="#F7921E" d="M153.506 213.273a8.46 8.46 0 0 0-3.134-2.899c-5.13-2.96-13.441-2.96-18.572 0a8.5 8.5 0 0 0-3.15 2.899h-.708v2.683c.093 1.868 1.37 3.714 3.833 5.13 5.13 2.961 13.446 2.961 18.571 0 2.468-1.426 3.75-3.273 3.848-5.13v-2.683z"/><path fill="#000" d="M153.506 213.271a8.46 8.46 0 0 0-3.134-2.899c-5.13-2.96-13.441-2.96-18.572 0a8.5 8.5 0 0 0-3.15 2.899h-.708v2.683c.093 1.868 1.37 3.714 3.833 5.13 5.13 2.961 13.446 2.961 18.571 0 2.468-1.426 3.75-3.273 3.848-5.13v-2.683z" opacity=".25"/><path fill="#000" d="M141.086 208.141c-3.36 0-6.721.738-9.286 2.221a8.5 8.5 0 0 0-3.15 2.909h-.708v2.683c.093 1.867 1.37 3.714 3.833 5.13 2.565 1.478 5.925 2.217 9.285 2.217z" opacity=".1"/><path fill="#000" d="M133.914 209.387q-1.097.41-2.114.99a8.5 8.5 0 0 0-3.15 2.893h-.708v2.683c.093 1.868 1.37 3.715 3.833 5.131q1.018.577 2.113.99z" opacity=".1"/><path fill="#F7921E" d="M148.258 209.387q1.098.409 2.114.99a8.5 8.5 0 0 1 3.135 2.898h.713v2.684c-.098 1.867-1.38 3.714-3.848 5.13a15 15 0 0 1-2.114.99z"/><path fill="#F7921E" d="M150.372 207.915c-5.13-2.96-13.441-2.96-18.572 0s-5.13 7.762 0 10.723c5.131 2.96 13.447 2.96 18.572 0s5.13-7.757 0-10.723"/><path fill="#000" d="M150.372 207.915c-5.13-2.96-13.441-2.96-18.572 0s-5.13 7.762 0 10.723c5.131 2.96 13.447 2.96 18.572 0s5.13-7.757 0-10.723" opacity=".2"/><path fill="#F7921E" d="M147.12 209.879a14.77 14.77 0 0 0-12.092 0c-1.719.882-2.668 2.088-2.668 3.401s.949 2.514 2.668 3.396a14.79 14.79 0 0 0 12.092 0c1.718-.882 2.662-2.088 2.662-3.396s-.928-2.519-2.662-3.401"/><path fill="#000" d="M147.12 209.879a14.77 14.77 0 0 0-12.092 0c-1.719.882-2.668 2.088-2.668 3.401s.949 2.514 2.668 3.396a14.79 14.79 0 0 0 12.092 0c1.718-.882 2.662-2.088 2.662-3.396s-.928-2.519-2.662-3.401" opacity=".4"/><path fill="#F7921E" d="M150.085 208.412c-2.391-1.38-5.587-2.144-8.999-2.144-3.411 0-6.602.764-8.998 2.144-2.293 1.329-3.561 3.078-3.561 4.869s1.268 3.54 3.561 4.863c2.396 1.38 5.592 2.145 8.998 2.145 3.407 0 6.608-.765 8.999-2.145 2.298-1.323 3.56-3.052 3.56-4.863s-1.262-3.54-3.56-4.869m-2.966 8.265a14.79 14.79 0 0 1-12.092 0c-1.718-.883-2.667-2.088-2.667-3.396 0-1.309.949-2.519 2.667-3.402a14.79 14.79 0 0 1 12.092 0c1.719.883 2.663 2.088 2.663 3.402 0 1.313-.929 2.513-2.663 3.396"/><path fill="#000" d="M141.086 217.514c4.562 0 8.26-1.897 8.26-4.237 0-2.341-3.698-4.238-8.26-4.238s-8.259 1.897-8.259 4.238c0 2.34 3.698 4.237 8.259 4.237" opacity=".2"/><path fill="#F7921E" d="M141.086 217.514c4.562 0 8.26-1.897 8.26-4.237 0-2.341-3.698-4.238-8.26-4.238s-8.259 1.897-8.259 4.238c0 2.34 3.698 4.237 8.259 4.237"/><path fill="#000" d="M141.086 217.514c4.562 0 8.26-1.897 8.26-4.237 0-2.341-3.698-4.238-8.26-4.238s-8.259 1.897-8.259 4.238c0 2.34 3.698 4.237 8.259 4.237" opacity=".6"/><path fill="#F7921E" d="M146.93 211.405c-3.227-1.657-8.455-1.657-11.682 0-1.334.682-2.113 1.539-2.344 2.437.231.887 1.026 1.749 2.344 2.432 3.227 1.657 8.455 1.657 11.682 0 1.334-.683 2.114-1.54 2.344-2.432-.23-.893-1.01-1.755-2.344-2.437"/><path fill="#000" d="M146.93 211.405c-3.227-1.657-8.455-1.657-11.682 0-1.334.682-2.113 1.539-2.344 2.437.231.887 1.026 1.749 2.344 2.432 3.227 1.657 8.455 1.657 11.682 0 1.334-.683 2.114-1.54 2.344-2.432-.23-.893-1.01-1.755-2.344-2.437" opacity=".5"/><path fill="#F7921E" d="M141.871 210.346v1.21l-.416.437-.764.8v-1.262z"/><path fill="#000" d="M141.871 210.346v1.21l-.416.437-.764.8v-1.262z" opacity=".3"/><path fill="#F7921E" d="M140.691 211.531v.713q-.571.222-1.175.333a1.2 1.2 0 0 1-.513 0 1.4 1.4 0 0 1-.241-.097c-.292-.175-.338-.436.216-.754a1.946 1.946 0 0 1 1.713-.195"/><path fill="#000" d="M140.691 211.531v.713q-.571.222-1.175.333a1.2 1.2 0 0 1-.513 0 1.4 1.4 0 0 1-.241-.097c-.292-.175-.338-.436.216-.754a1.946 1.946 0 0 1 1.713-.195" opacity=".45"/><path fill="#F7921E" d="M146.175 214.97v1.026l-1.329.764-.98-.564a4.97 4.97 0 0 1-3.791.169v-1.026l.6-.595-.6.164a3.86 3.86 0 0 1-2.955-.338c-.595-.339-.867-.719-.867-1.103v-1.026l.108-.447-.364-.21v-1.026l.979.569a1.5 1.5 0 0 0-.723 1.124c0 .374.287.739.867 1.077 1.288.744 2.565.513 3.735.123 1.088-.359 1.878-.774 2.503-.41.39.22.272.513-.164.749a2.17 2.17 0 0 1-1.867.108l-1.252 1.226q.338.131.693.205a5.12 5.12 0 0 0 3.078-.375l.98.565z"/><path fill="#000" d="M136.253 212.44c0 .375.288.739.867 1.078 1.288.743 2.566.513 3.735.123 1.088-.359 1.878-.775 2.504-.411.39.221.272.513-.164.749a2.159 2.159 0 0 1-1.868.108l-1.252 1.236q.338.131.693.206a5.14 5.14 0 0 0 3.078-.375l.98.564 1.329-.764v1.026l-1.329.765-.98-.565a4.97 4.97 0 0 1-3.791.169v-1.026l.6-.595-.6.164a3.86 3.86 0 0 1-2.955-.338c-.595-.339-.867-.718-.867-1.103v-1.026l.108-.446" opacity=".35"/><path fill="#000" d="M135.997 210.748v1.026l.364.21c.154-.273.366-.509.621-.692z" opacity=".45"/><path fill="#F7921E" d="M145.955 214.299c.003.176-.03.35-.098.513l-.667-.38a1.3 1.3 0 0 0 .755-1.026c.005.282.01.857.01.893"/><path fill="#000" d="M145.955 214.297c.003.176-.03.35-.098.513l-.667-.38a1.3 1.3 0 0 0 .755-1.026c.005.282.01.857.01.893" opacity=".3"/><path fill="#F7921E" d="m145.95 214.845-.755-.441a1.3 1.3 0 0 0 .755-1.262c-.031-.364-.298-.713-.847-1.026a3.5 3.5 0 0 0-1.76-.462h-.626a8 8 0 0 0-.856.18l-.4.118-.555.18-.21.071q-.57.225-1.175.334a1.3 1.3 0 0 1-.513 0 1 1 0 0 1-.236-.103c-.297-.169-.343-.426.211-.749a1.93 1.93 0 0 1 1.703-.179l1.18-1.185a5.02 5.02 0 0 0-3.555.195l-.98-.565-1.339.77.985.564a1.5 1.5 0 0 0-.729 1.129c0 .374.288.738.867 1.077 1.293.744 2.565.513 3.735.118 1.088-.354 1.878-.77 2.504-.41.39.225.272.513-.165.754a2.17 2.17 0 0 1-1.867.108l-1.247 1.262a4.5 4.5 0 0 0 1.899.292 5.5 5.5 0 0 0 1.893-.462l.98.57 1.323-.765z"/><path fill="#F7921E" d="M143.867 215.17v1.046l.98.565v-1.047z"/><path fill="#000" d="M143.867 215.17v1.046l.98.565v-1.047z" opacity=".45"/><path fill="#F5F5F5" d="m135.997 210.746 1.339-.769.979.564-.974-.405zM138.988 211.732a1.93 1.93 0 0 1 1.703-.18l1.18-1.185-1.18 1.062a1.8 1.8 0 0 0-1.703.303M140.075 215.324a4.5 4.5 0 0 0 1.898.292 4.3 4.3 0 0 1-1.703-.339l1.057-1.195zM143.867 215.17l.98.441 1.323-.636-1.323.759zM132.19 208.586c3.479-2.108 8.896-2.318 8.896-2.318-3.406 0-6.602.764-8.998 2.144-2.293 1.329-3.561 3.078-3.561 4.869 0-.011.123-2.545 3.663-4.695M140.075 220.838c3.689.164 7.475-.57 10.297-2.201 2.934-1.693 4.191-3.992 3.765-6.198 0 0 .549 3.592-3.986 6.064s-10.076 2.335-10.076 2.335"/><path fill="#F7921E" d="M125.554 209.356a8.5 8.5 0 0 0-3.14-2.903c-5.13-2.961-13.441-2.961-18.566 0a8.47 8.47 0 0 0-3.14 2.903H100v2.683c.092 1.863 1.37 3.715 3.837 5.131 5.131 2.96 13.442 2.96 18.567 0 2.467-1.421 3.75-3.273 3.847-5.131v-2.683z"/><path fill="#000" d="M125.554 209.356a8.5 8.5 0 0 0-3.14-2.903c-5.13-2.961-13.441-2.961-18.566 0a8.47 8.47 0 0 0-3.14 2.903H100v2.683c.092 1.863 1.37 3.715 3.837 5.131 5.131 2.96 13.442 2.96 18.567 0 2.467-1.421 3.75-3.273 3.847-5.131v-2.683z" opacity=".25"/><path fill="#000" d="M113.133 204.236c-3.365 0-6.725.739-9.285 2.217a8.47 8.47 0 0 0-3.14 2.903H100v2.683c.092 1.863 1.37 3.715 3.837 5.131 2.566 1.482 5.921 2.221 9.286 2.221z" opacity=".1"/><path fill="#000" d="M105.956 205.467c-.728.27-1.434.599-2.108.985a8.47 8.47 0 0 0-3.14 2.904H100v2.683c.092 1.862 1.37 3.714 3.837 5.13q1.014.581 2.109.99z" opacity=".1"/><path fill="#F7921E" d="M120.301 205.467q1.097.405 2.113.985a8.47 8.47 0 0 1 3.14 2.904h.708v2.683c-.097 1.862-1.38 3.714-3.848 5.13a14.3 14.3 0 0 1-2.113.99z"/><path fill="#F7921E" d="M122.414 203.996c-5.13-2.961-13.441-2.961-18.566 0s-5.13 7.762 0 10.722 13.441 2.96 18.566 0 5.13-7.762 0-10.722"/><path fill="#000" d="M122.414 203.996c-5.13-2.961-13.441-2.961-18.566 0s-5.13 7.762 0 10.722 13.441 2.96 18.566 0 5.13-7.762 0-10.722" opacity=".2"/><path fill="#F7921E" d="M119.177 205.959a14.79 14.79 0 0 0-12.092 0c-1.719.877-2.668 2.088-2.668 3.396s.949 2.519 2.668 3.401a14.83 14.83 0 0 0 12.092 0c1.718-.882 2.662-2.088 2.662-3.401s-.944-2.519-2.662-3.396"/><path fill="#000" d="M119.177 205.959a14.79 14.79 0 0 0-12.092 0c-1.719.877-2.668 2.088-2.668 3.396s.949 2.519 2.668 3.401a14.83 14.83 0 0 0 12.092 0c1.718-.882 2.662-2.088 2.662-3.401s-.944-2.519-2.662-3.396" opacity=".4"/><path fill="#F7921E" d="M122.132 204.494c-2.396-1.385-5.592-2.144-9.004-2.144s-6.602.759-8.998 2.144c-2.293 1.324-3.561 3.053-3.561 4.864s1.268 3.539 3.561 4.868c2.396 1.38 5.592 2.139 8.998 2.139 3.407 0 6.608-.759 9.004-2.139 2.293-1.329 3.56-3.078 3.56-4.868s-1.267-3.54-3.56-4.864m-2.955 8.265a14.84 14.84 0 0 1-12.092 0c-1.719-.883-2.668-2.088-2.668-3.401 0-1.314.949-2.519 2.668-3.397a14.78 14.78 0 0 1 12.092 0c1.718.878 2.662 2.088 2.662 3.397s-.944 2.518-2.662 3.401"/><path fill="#000" d="M113.128 213.594c4.562 0 8.26-1.897 8.26-4.237 0-2.341-3.698-4.238-8.26-4.238s-8.259 1.897-8.259 4.238c0 2.34 3.698 4.237 8.259 4.237" opacity=".2"/><path fill="#F7921E" d="M113.128 213.594c4.562 0 8.26-1.897 8.26-4.237 0-2.341-3.698-4.238-8.26-4.238s-8.259 1.897-8.259 4.238c0 2.34 3.698 4.237 8.259 4.237"/><path fill="#000" d="M113.128 213.594c4.562 0 8.26-1.897 8.26-4.237 0-2.341-3.698-4.238-8.26-4.238s-8.259 1.897-8.259 4.238c0 2.34 3.698 4.237 8.259 4.237" opacity=".6"/><path fill="#F7921E" d="M118.972 207.483c-3.227-1.657-8.455-1.657-11.682 0-1.334.682-2.113 1.539-2.344 2.432.231.892 1.026 1.754 2.344 2.437 3.227 1.657 8.455 1.657 11.682 0 1.334-.683 2.114-1.539 2.344-2.437-.23-.888-1.01-1.75-2.344-2.432"/><path fill="#000" d="M118.972 207.483c-3.227-1.657-8.455-1.657-11.682 0-1.334.682-2.113 1.539-2.344 2.432.231.892 1.026 1.754 2.344 2.437 3.227 1.657 8.455 1.657 11.682 0 1.334-.683 2.114-1.539 2.344-2.437-.23-.888-1.01-1.75-2.344-2.432" opacity=".5"/><path fill="#F7921E" d="M113.913 206.42v1.216l-.416.431-.764.805v-1.262z"/><path fill="#000" d="M113.913 206.42v1.216l-.416.431-.764.805v-1.262z" opacity=".3"/><path fill="#F7921E" d="M112.734 207.611v.713q-.573.222-1.175.334a1.2 1.2 0 0 1-.513 0 1 1 0 0 1-.241-.098c-.293-.174-.339-.431.215-.749a1.94 1.94 0 0 1 1.714-.2"/><path fill="#000" d="M112.734 207.611v.713q-.573.222-1.175.334a1.2 1.2 0 0 1-.513 0 1 1 0 0 1-.241-.098c-.293-.174-.339-.431.215-.749a1.94 1.94 0 0 1 1.714-.2" opacity=".45"/><path fill="#F7921E" d="M118.217 211.051v1.026l-1.323.769-.98-.569a5 5 0 0 1-3.796.174v-1.026l.605-.6-.605.169a3.88 3.88 0 0 1-2.955-.338c-.596-.344-.867-.719-.867-1.103v-1.027l.107-.446-.364-.21v-1.026l.985.564a1.54 1.54 0 0 0-.728 1.124c0 .374.287.738.867 1.072 1.287.744 2.565.513 3.734.123 1.088-.354 1.878-.77 2.509-.41.385.225.267.513-.169.754a2.18 2.18 0 0 1-1.868.107l-1.251 1.242q.338.128.692.2a5.17 5.17 0 0 0 3.078-.369l.98.564z"/><path fill="#000" d="M108.296 208.514c0 .375.287.739.867 1.072 1.288.744 2.565.513 3.735.124 1.087-.354 1.877-.77 2.508-.411.385.226.267.513-.169.754a2.2 2.2 0 0 1-1.867.108l-1.252 1.242q.338.126.693.2a5.16 5.16 0 0 0 3.078-.37l.98.565 1.323-.765v1.026l-1.298.785-.98-.569a5 5 0 0 1-3.796.174v-1.026l.605-.6-.605.169a3.88 3.88 0 0 1-2.955-.338c-.595-.344-.867-.719-.867-1.103v-1.027l.108-.446" opacity=".35"/><path fill="#000" d="M108.044 206.826v1.026l.359.211c.153-.275.365-.511.621-.693z" opacity=".45"/><path fill="#F7921E" d="M117.997 210.365c.004.176-.029.351-.098.513l-.667-.379a1.3 1.3 0 0 0 .755-1.026c.005.292.01.862.01.892"/><path fill="#000" d="M117.997 210.365c.004.176-.029.351-.098.513l-.667-.379a1.3 1.3 0 0 0 .755-1.026c.005.292.01.862.01.892" opacity=".3"/><path fill="#F7921E" d="m117.997 210.92-.76-.436a1.29 1.29 0 0 0 .76-1.164 1 1 0 0 0 0-.103c-.031-.359-.298-.708-.847-1.026a3.44 3.44 0 0 0-1.76-.462h-.625q-.435.061-.857.18a6 6 0 0 0-.4.118l-.554.179-.211.072q-.571.222-1.175.334a1.2 1.2 0 0 1-.513 0 1 1 0 0 1-.236-.098c-.297-.169-.343-.431.211-.749a1.93 1.93 0 0 1 1.703-.179l1.18-1.191a5.07 5.07 0 0 0-3.555.201l-.98-.565-1.334.77.98.564a1.5 1.5 0 0 0-.729 1.129c0 .379.288.744.867 1.077 1.293.744 2.565.513 3.735.123 1.088-.354 1.878-.769 2.504-.41.39.226.272.513-.164.749a2.18 2.18 0 0 1-1.868.113l-1.252 1.241q.34.127.693.205c.397.08.802.109 1.206.088a5.7 5.7 0 0 0 1.893-.462l.985.564 1.318-.764z"/><path fill="#F7921E" d="M115.909 211.25v1.047l.985.564v-1.047z"/><path fill="#000" d="M115.909 211.25v1.047l.985.564v-1.047z" opacity=".45"/><path fill="#F5F5F5" d="m108.039 206.826 1.339-.769.98.564-.975-.41zM111.03 207.79a1.93 1.93 0 0 1 1.703-.18l1.18-1.19-1.18 1.067a1.78 1.78 0 0 0-1.703.303M112.117 211.417q.339.126.693.206c.396.079.801.108 1.205.087a4.2 4.2 0 0 1-1.698-.344l1.052-1.19zM115.909 211.249l.985.441 1.318-.641-1.318.764zM104.232 204.668c3.479-2.113 8.896-2.318 8.896-2.318-3.406 0-6.602.759-8.998 2.144-2.293 1.324-3.561 3.053-3.561 4.864 0 0 .129-2.54 3.663-4.69M112.117 216.912c3.689.164 7.475-.564 10.297-2.196 2.934-1.693 4.191-3.991 3.765-6.202 0 0 .549 3.591-3.986 6.069s-10.076 2.329-10.076 2.329"/><path fill="#F7921E" d="M126.334 205.664a8.45 8.45 0 0 0-3.135-2.899c-5.13-2.96-13.441-2.96-18.572 0a8.5 8.5 0 0 0-3.149 2.899h-.708v2.683c.092 1.867 1.369 3.714 3.832 5.13 5.13 2.96 13.446 2.96 18.571 0 2.468-1.426 3.751-3.273 3.848-5.13v-2.683z"/><path fill="#000" d="M126.334 205.664a8.45 8.45 0 0 0-3.135-2.899c-5.13-2.96-13.441-2.96-18.572 0a8.5 8.5 0 0 0-3.149 2.899h-.708v2.683c.092 1.867 1.369 3.714 3.832 5.13 5.13 2.96 13.446 2.96 18.571 0 2.468-1.426 3.751-3.273 3.848-5.13v-2.683z" opacity=".25"/><path fill="#000" d="M113.913 200.531c-3.36 0-6.72.739-9.286 2.222a8.5 8.5 0 0 0-3.149 2.909h-.708v2.683c.092 1.867 1.369 3.714 3.832 5.13 2.565 1.477 5.925 2.216 9.286 2.216z" opacity=".1"/><path fill="#000" d="M106.741 201.777q-1.097.41-2.114.99a8.5 8.5 0 0 0-3.149 2.894h-.708v2.683c.092 1.867 1.369 3.714 3.832 5.13q1.018.577 2.113.99z" opacity=".1"/><path fill="#F7921E" d="M121.085 201.777q1.098.409 2.114.99a8.5 8.5 0 0 1 3.135 2.899h.713v2.683c-.098 1.868-1.38 3.714-3.848 5.13q-1.017.58-2.114.991z"/><path fill="#F7921E" d="M123.199 200.306c-5.13-2.96-13.441-2.96-18.572 0s-5.13 7.762 0 10.722c5.131 2.96 13.447 2.96 18.572 0s5.13-7.757 0-10.722"/><path fill="#000" d="M123.199 200.306c-5.13-2.96-13.441-2.96-18.572 0s-5.13 7.762 0 10.722c5.131 2.96 13.447 2.96 18.572 0s5.13-7.757 0-10.722" opacity=".2"/><path fill="#F7921E" d="M119.946 202.269a14.78 14.78 0 0 0-12.092 0c-1.718.883-2.667 2.088-2.667 3.402 0 1.313.949 2.513 2.667 3.396a14.79 14.79 0 0 0 12.092 0c1.719-.883 2.663-2.088 2.663-3.396 0-1.309-.929-2.519-2.663-3.402"/><path fill="#000" d="M119.946 202.269a14.78 14.78 0 0 0-12.092 0c-1.718.883-2.667 2.088-2.667 3.402 0 1.313.949 2.513 2.667 3.396a14.79 14.79 0 0 0 12.092 0c1.719-.883 2.663-2.088 2.663-3.396 0-1.309-.929-2.519-2.663-3.402" opacity=".4"/><path fill="#F7921E" d="M122.912 200.803c-2.391-1.38-5.587-2.145-8.999-2.145-3.411 0-6.602.765-8.998 2.145-2.293 1.328-3.561 3.078-3.561 4.868s1.268 3.54 3.561 4.864c2.396 1.38 5.592 2.144 8.998 2.144 3.407 0 6.608-.764 8.999-2.144 2.298-1.324 3.56-3.053 3.56-4.864s-1.262-3.54-3.56-4.868m-2.965 8.264a14.78 14.78 0 0 1-12.092 0c-1.719-.882-2.668-2.088-2.668-3.396s.949-2.519 2.668-3.401a14.79 14.79 0 0 1 12.092 0c1.718.882 2.662 2.088 2.662 3.401 0 1.314-.928 2.514-2.662 3.396"/><path fill="#000" d="M113.914 209.905c4.561 0 8.259-1.897 8.259-4.238 0-2.34-3.698-4.237-8.259-4.237-4.562 0-8.26 1.897-8.26 4.237 0 2.341 3.698 4.238 8.26 4.238" opacity=".2"/><path fill="#F7921E" d="M113.914 209.905c4.561 0 8.259-1.897 8.259-4.238 0-2.34-3.698-4.237-8.259-4.237-4.562 0-8.26 1.897-8.26 4.237 0 2.341 3.698 4.238 8.26 4.238"/><path fill="#000" d="M113.914 209.905c4.561 0 8.259-1.897 8.259-4.238 0-2.34-3.698-4.237-8.259-4.237-4.562 0-8.26 1.897-8.26 4.237 0 2.341 3.698 4.238 8.26 4.238" opacity=".6"/><path fill="#F7921E" d="M119.757 203.796c-3.227-1.658-8.455-1.658-11.682 0-1.333.682-2.113 1.539-2.344 2.436.231.888 1.026 1.75 2.344 2.432 3.227 1.657 8.455 1.657 11.682 0 1.334-.682 2.114-1.539 2.345-2.432-.231-.892-1.011-1.754-2.345-2.436"/><path fill="#000" d="M119.757 203.796c-3.227-1.658-8.455-1.658-11.682 0-1.333.682-2.113 1.539-2.344 2.436.231.888 1.026 1.75 2.344 2.432 3.227 1.657 8.455 1.657 11.682 0 1.334-.682 2.114-1.539 2.345-2.432-.231-.892-1.011-1.754-2.345-2.436" opacity=".5"/><path fill="#F7921E" d="M114.698 202.736v1.211l-.416.436-.764.8v-1.262z"/><path fill="#000" d="M114.698 202.736v1.211l-.416.436-.764.8v-1.262z" opacity=".3"/><path fill="#F7921E" d="M113.518 203.921v.714a6.6 6.6 0 0 1-1.174.333q-.257.053-.514 0a1.5 1.5 0 0 1-.241-.097c-.292-.175-.338-.437.216-.755a1.96 1.96 0 0 1 1.713-.195"/><path fill="#000" d="M113.518 203.921v.714a6.6 6.6 0 0 1-1.174.333q-.257.053-.514 0a1.5 1.5 0 0 1-.241-.097c-.292-.175-.338-.437.216-.755a1.96 1.96 0 0 1 1.713-.195" opacity=".45"/><path fill="#F7921E" d="M119.002 207.36v1.026l-1.329.765-.979-.564a4.98 4.98 0 0 1-3.792.169v-1.026l.601-.595-.601.164a3.87 3.87 0 0 1-2.955-.339c-.595-.338-.867-.718-.867-1.103v-1.026l.108-.446-.364-.211v-1.026l.98.57a1.5 1.5 0 0 0-.724 1.123c0 .375.288.739.867 1.078 1.288.744 2.565.513 3.735.123 1.088-.359 1.878-.775 2.504-.411.39.221.272.513-.165.749a2.159 2.159 0 0 1-1.867.108l-1.252 1.226q.338.132.693.206a5.14 5.14 0 0 0 3.078-.375l.98.564z"/><path fill="#000" d="M109.081 204.831c0 .374.287.739.867 1.077 1.287.744 2.565.513 3.734.123 1.088-.359 1.878-.774 2.504-.41.39.221.272.513-.164.749a2.18 2.18 0 0 1-1.868.108l-1.251 1.236q.338.131.692.205a5.13 5.13 0 0 0 3.078-.374l.98.564 1.329-.764v1.026l-1.329.764-.98-.564a4.97 4.97 0 0 1-3.791.169v-1.026l.6-.595-.6.164a3.86 3.86 0 0 1-2.955-.338c-.595-.339-.867-.719-.867-1.103v-1.027l.108-.446" opacity=".35"/><path fill="#000" d="M108.824 203.139v1.026l.364.21a2.2 2.2 0 0 1 .621-.693z" opacity=".45"/><path fill="#F7921E" d="M118.782 206.69c.003.175-.03.35-.097.513l-.667-.38a1.312 1.312 0 0 0 .754-1.026c.005.282.01.857.01.893"/><path fill="#000" d="M118.782 206.69c.003.175-.03.35-.097.513l-.667-.38a1.312 1.312 0 0 0 .754-1.026c.005.282.01.857.01.893" opacity=".3"/><path fill="#F7921E" d="m118.777 207.236-.754-.441a1.3 1.3 0 0 0 .754-1.16 1 1 0 0 0 0-.102c-.031-.364-.298-.713-.847-1.026a3.5 3.5 0 0 0-1.76-.462h-.625a8 8 0 0 0-.857.18l-.4.118-.554.179-.211.072q-.57.226-1.175.333a1.2 1.2 0 0 1-.513 0 1 1 0 0 1-.236-.102c-.297-.169-.343-.426.211-.749a1.93 1.93 0 0 1 1.703-.18l1.18-1.185a5.03 5.03 0 0 0-3.555.195l-.98-.564-1.339.769.985.565a1.5 1.5 0 0 0-.729 1.128c0 .375.288.739.867 1.078 1.293.744 2.565.513 3.735.118 1.088-.354 1.878-.77 2.504-.411.39.226.272.513-.164.754a2.159 2.159 0 0 1-1.868.108l-1.246 1.262a4.5 4.5 0 0 0 1.898.293 5.5 5.5 0 0 0 1.893-.462l.98.569 1.323-.764z"/><path fill="#F7921E" d="M116.694 207.561v1.046l.98.564v-1.046z"/><path fill="#000" d="M116.694 207.561v1.046l.98.564v-1.046z" opacity=".45"/><path fill="#F5F5F5" d="m108.824 203.137 1.339-.77.98.565-.975-.406zM111.815 204.122a1.93 1.93 0 0 1 1.703-.179l1.18-1.185-1.18 1.062a1.803 1.803 0 0 0-1.703.302M112.902 207.714a4.5 4.5 0 0 0 1.899.293 4.3 4.3 0 0 1-1.704-.339l1.057-1.195zM116.694 207.56l.98.441 1.323-.636-1.323.76zM105.017 200.977c3.479-2.108 8.896-2.319 8.896-2.319-3.406 0-6.602.765-8.998 2.145-2.293 1.328-3.561 3.078-3.561 4.868 0-.01.124-2.544 3.663-4.694M112.902 213.228c3.689.164 7.475-.569 10.297-2.201 2.934-1.693 4.191-3.991 3.765-6.197 0 0 .549 3.591-3.986 6.064s-10.076 2.334-10.076 2.334"/><path fill="#F7921E" d="M122.554 201.27a8.5 8.5 0 0 0-3.14-2.903c-5.13-2.961-13.441-2.961-18.566 0a8.5 8.5 0 0 0-3.14 2.903H97v2.683c.092 1.863 1.37 3.715 3.837 5.131 5.131 2.96 13.442 2.96 18.567 0 2.467-1.421 3.75-3.273 3.847-5.131v-2.683z"/><path fill="#000" d="M122.554 201.27a8.5 8.5 0 0 0-3.14-2.903c-5.13-2.961-13.441-2.961-18.566 0a8.5 8.5 0 0 0-3.14 2.903H97v2.683c.092 1.863 1.37 3.715 3.837 5.131 5.131 2.96 13.442 2.96 18.567 0 2.467-1.421 3.75-3.273 3.847-5.131v-2.683z" opacity=".25"/><path fill="#000" d="M110.133 196.15c-3.365 0-6.725.739-9.285 2.217a8.5 8.5 0 0 0-3.14 2.903H97v2.683c.092 1.863 1.37 3.715 3.837 5.131 2.566 1.482 5.921 2.221 9.286 2.221z" opacity=".1"/><path fill="#000" d="M102.956 197.381c-.728.27-1.434.599-2.108.985a8.5 8.5 0 0 0-3.14 2.904H97v2.683c.092 1.862 1.37 3.714 3.837 5.13q1.014.581 2.109.99z" opacity=".1"/><path fill="#F7921E" d="M117.301 197.381q1.097.405 2.113.985a8.47 8.47 0 0 1 3.14 2.904h.708v2.683c-.097 1.862-1.38 3.714-3.848 5.13a14.3 14.3 0 0 1-2.113.99z"/><path fill="#F7921E" d="M119.414 195.91c-5.13-2.961-13.441-2.961-18.566 0s-5.13 7.762 0 10.722 13.441 2.96 18.566 0 5.13-7.762 0-10.722"/><path fill="#000" d="M119.414 195.91c-5.13-2.961-13.441-2.961-18.566 0s-5.13 7.762 0 10.722 13.441 2.96 18.566 0 5.13-7.762 0-10.722" opacity=".2"/><path fill="#F7921E" d="M116.177 197.873a14.79 14.79 0 0 0-12.092 0c-1.719.877-2.668 2.088-2.668 3.396s.949 2.519 2.668 3.401a14.83 14.83 0 0 0 12.092 0c1.718-.882 2.662-2.088 2.662-3.401s-.944-2.519-2.662-3.396"/><path fill="#000" d="M116.177 197.873a14.79 14.79 0 0 0-12.092 0c-1.719.877-2.668 2.088-2.668 3.396s.949 2.519 2.668 3.401a14.83 14.83 0 0 0 12.092 0c1.718-.882 2.662-2.088 2.662-3.401s-.944-2.519-2.662-3.396" opacity=".4"/><path fill="#F7921E" d="M119.132 196.408c-2.396-1.385-5.592-2.144-9.004-2.144s-6.602.759-8.998 2.144c-2.293 1.324-3.56 3.053-3.56 4.864s1.267 3.539 3.56 4.868c2.396 1.38 5.592 2.14 8.998 2.14 3.407 0 6.608-.76 9.004-2.14 2.293-1.329 3.56-3.078 3.56-4.868s-1.267-3.54-3.56-4.864m-2.955 8.265a14.84 14.84 0 0 1-12.092 0c-1.719-.882-2.668-2.088-2.668-3.401 0-1.314.949-2.519 2.668-3.397a14.78 14.78 0 0 1 12.092 0c1.718.878 2.662 2.088 2.662 3.397s-.944 2.519-2.662 3.401"/><path fill="#000" d="M110.128 205.508c4.562 0 8.26-1.897 8.26-4.237 0-2.341-3.698-4.238-8.26-4.238s-8.259 1.897-8.259 4.238c0 2.34 3.698 4.237 8.259 4.237" opacity=".2"/><path fill="#F7921E" d="M110.128 205.508c4.562 0 8.26-1.897 8.26-4.237 0-2.341-3.698-4.238-8.26-4.238s-8.259 1.897-8.259 4.238c0 2.34 3.698 4.237 8.259 4.237"/><path fill="#000" d="M110.128 205.508c4.562 0 8.26-1.897 8.26-4.237 0-2.341-3.698-4.238-8.26-4.238s-8.259 1.897-8.259 4.238c0 2.34 3.698 4.237 8.259 4.237" opacity=".6"/><path fill="#F7921E" d="M115.972 199.397c-3.227-1.657-8.455-1.657-11.682 0-1.334.682-2.113 1.539-2.344 2.432.231.893 1.026 1.754 2.344 2.437 3.227 1.657 8.455 1.657 11.682 0 1.334-.683 2.114-1.539 2.344-2.437-.23-.888-1.01-1.75-2.344-2.432"/><path fill="#000" d="M115.972 199.397c-3.227-1.657-8.455-1.657-11.682 0-1.334.682-2.113 1.539-2.344 2.432.231.893 1.026 1.754 2.344 2.437 3.227 1.657 8.455 1.657 11.682 0 1.334-.683 2.114-1.539 2.344-2.437-.23-.888-1.01-1.75-2.344-2.432" opacity=".5"/><path fill="#F7921E" d="M110.913 198.334v1.216l-.416.431-.764.805v-1.262z"/><path fill="#000" d="M110.913 198.334v1.216l-.416.431-.764.805v-1.262z" opacity=".3"/><path fill="#F7921E" d="M109.734 199.525v.713q-.573.222-1.175.334a1.2 1.2 0 0 1-.513 0 1 1 0 0 1-.241-.098c-.293-.174-.339-.43.215-.749a1.94 1.94 0 0 1 1.714-.2"/><path fill="#000" d="M109.734 199.525v.713q-.573.222-1.175.334a1.2 1.2 0 0 1-.513 0 1 1 0 0 1-.241-.098c-.293-.174-.339-.43.215-.749a1.94 1.94 0 0 1 1.714-.2" opacity=".45"/><path fill="#F7921E" d="M115.217 202.965v1.026l-1.323.769-.98-.569a5 5 0 0 1-3.796.174v-1.026l.605-.6-.605.169a3.88 3.88 0 0 1-2.955-.338c-.596-.344-.867-.719-.867-1.103v-1.026l.107-.447-.364-.21v-1.026l.985.564a1.53 1.53 0 0 0-.728 1.124c0 .374.287.738.867 1.072 1.287.744 2.565.513 3.734.123 1.088-.354 1.878-.77 2.509-.41.385.225.267.513-.169.754a2.18 2.18 0 0 1-1.868.107l-1.251 1.242q.338.128.692.2a5.17 5.17 0 0 0 3.078-.369l.98.564z"/><path fill="#000" d="M105.296 200.428c0 .375.287.739.867 1.072 1.288.744 2.565.514 3.735.124 1.087-.354 1.877-.77 2.508-.411.385.226.267.513-.169.754a2.2 2.2 0 0 1-1.867.108l-1.252 1.242q.338.126.693.2a5.16 5.16 0 0 0 3.078-.37l.98.565 1.323-.765v1.026l-1.298.785-.98-.569a5 5 0 0 1-3.796.174v-1.026l.605-.6-.605.169a3.88 3.88 0 0 1-2.955-.338c-.595-.344-.867-.719-.867-1.103v-1.026l.108-.447" opacity=".35"/><path fill="#000" d="M105.044 198.74v1.026l.359.211c.153-.275.365-.511.621-.693z" opacity=".45"/><path fill="#F7921E" d="M114.997 202.279c.004.176-.029.351-.098.513l-.667-.379a1.3 1.3 0 0 0 .755-1.026c.005.292.01.862.01.892"/><path fill="#000" d="M114.997 202.279c.004.176-.029.351-.098.513l-.667-.379a1.3 1.3 0 0 0 .755-1.026c.005.292.01.862.01.892" opacity=".3"/><path fill="#F7921E" d="m114.997 202.834-.76-.436a1.29 1.29 0 0 0 .76-1.164 1 1 0 0 0 0-.103c-.031-.359-.298-.708-.847-1.026a3.44 3.44 0 0 0-1.76-.462h-.625q-.435.061-.857.18a6 6 0 0 0-.4.118l-.554.18-.211.071q-.571.222-1.175.334a1.2 1.2 0 0 1-.513 0 1 1 0 0 1-.236-.098c-.297-.169-.343-.431.211-.749a1.93 1.93 0 0 1 1.703-.179l1.18-1.19a5.06 5.06 0 0 0-3.555.2l-.98-.565-1.334.77.98.564a1.5 1.5 0 0 0-.729 1.129c0 .379.288.744.867 1.077 1.293.744 2.565.513 3.735.123 1.088-.354 1.878-.769 2.504-.41.39.226.272.513-.164.749a2.18 2.18 0 0 1-1.868.113l-1.252 1.241q.34.126.693.206a5 5 0 0 0 1.206.087 5.7 5.7 0 0 0 1.893-.462l.985.564 1.318-.764z"/><path fill="#F7921E" d="M112.909 203.164v1.047l.985.564v-1.047z"/><path fill="#000" d="M112.909 203.164v1.047l.985.564v-1.047z" opacity=".45"/><path fill="#F5F5F5" d="m105.039 198.74 1.339-.769.98.564-.975-.41zM108.03 199.704a1.93 1.93 0 0 1 1.703-.18l1.18-1.19-1.18 1.067a1.79 1.79 0 0 0-1.703.303M109.117 203.331q.339.127.693.206c.396.079.801.108 1.205.087a4.2 4.2 0 0 1-1.698-.344l1.052-1.19zM112.909 203.163l.985.441 1.318-.641-1.318.764zM101.232 196.583c3.479-2.114 8.896-2.319 8.896-2.319-3.406 0-6.602.759-8.998 2.144-2.293 1.324-3.56 3.053-3.56 4.864 0 0 .128-2.54 3.662-4.689M109.117 208.826c3.689.164 7.475-.564 10.297-2.196 2.934-1.693 4.191-3.991 3.765-6.202 0 0 .549 3.591-3.986 6.069s-10.076 2.329-10.076 2.329"/><path fill="#F7921E" d="M123.334 197.578a8.45 8.45 0 0 0-3.135-2.899c-5.13-2.96-13.441-2.96-18.572 0a8.5 8.5 0 0 0-3.15 2.899h-.708v2.683c.093 1.867 1.37 3.714 3.833 5.13 5.13 2.96 13.446 2.96 18.571 0 2.468-1.426 3.751-3.273 3.848-5.13v-2.683z"/><path fill="#000" d="M123.334 197.578a8.45 8.45 0 0 0-3.135-2.899c-5.13-2.96-13.441-2.96-18.572 0a8.5 8.5 0 0 0-3.15 2.899h-.708v2.683c.093 1.867 1.37 3.714 3.833 5.13 5.13 2.96 13.446 2.96 18.571 0 2.468-1.426 3.751-3.273 3.848-5.13v-2.683z" opacity=".25"/><path fill="#000" d="M110.913 192.445c-3.36 0-6.72.739-9.286 2.222a8.5 8.5 0 0 0-3.15 2.909h-.708v2.683c.093 1.867 1.37 3.714 3.833 5.13 2.565 1.477 5.925 2.216 9.286 2.216z" opacity=".1"/><path fill="#000" d="M103.741 193.691q-1.097.41-2.114.991a8.5 8.5 0 0 0-3.15 2.893h-.708v2.683c.093 1.868 1.37 3.714 3.833 5.13q1.018.578 2.113.991z" opacity=".1"/><path fill="#F7921E" d="M118.085 193.691q1.098.409 2.114.991a8.5 8.5 0 0 1 3.135 2.898h.713v2.683c-.098 1.868-1.38 3.715-3.848 5.131a15 15 0 0 1-2.114.99z"/><path fill="#F7921E" d="M120.199 192.22c-5.13-2.96-13.441-2.96-18.572 0s-5.13 7.762 0 10.722c5.131 2.96 13.447 2.96 18.572 0s5.13-7.757 0-10.722"/><path fill="#000" d="M120.199 192.22c-5.13-2.96-13.441-2.96-18.572 0s-5.13 7.762 0 10.722c5.131 2.96 13.447 2.96 18.572 0s5.13-7.757 0-10.722" opacity=".2"/><path fill="#F7921E" d="M116.946 194.183a14.78 14.78 0 0 0-12.092 0c-1.718.883-2.667 2.088-2.667 3.402 0 1.313.949 2.513 2.667 3.396a14.79 14.79 0 0 0 12.092 0c1.719-.883 2.663-2.088 2.663-3.396 0-1.309-.929-2.519-2.663-3.402"/><path fill="#000" d="M116.946 194.183a14.78 14.78 0 0 0-12.092 0c-1.718.883-2.667 2.088-2.667 3.402 0 1.313.949 2.513 2.667 3.396a14.79 14.79 0 0 0 12.092 0c1.719-.883 2.663-2.088 2.663-3.396 0-1.309-.929-2.519-2.663-3.402" opacity=".4"/><path fill="#F7921E" d="M119.912 192.717c-2.391-1.38-5.587-2.145-8.999-2.145-3.411 0-6.602.765-8.998 2.145-2.293 1.328-3.56 3.078-3.56 4.868s1.267 3.54 3.56 4.864c2.396 1.38 5.592 2.144 8.998 2.144 3.407 0 6.608-.764 8.999-2.144 2.298-1.324 3.56-3.053 3.56-4.864s-1.262-3.54-3.56-4.868m-2.965 8.265a14.8 14.8 0 0 1-12.092 0c-1.719-.883-2.668-2.088-2.668-3.397s.949-2.519 2.668-3.401a14.79 14.79 0 0 1 12.092 0c1.718.882 2.662 2.088 2.662 3.401 0 1.314-.928 2.514-2.662 3.397"/><path fill="#000" d="M110.914 201.819c4.561 0 8.259-1.897 8.259-4.238 0-2.34-3.698-4.237-8.259-4.237-4.562 0-8.26 1.897-8.26 4.237 0 2.341 3.698 4.238 8.26 4.238" opacity=".2"/><path fill="#F7921E" d="M110.914 201.819c4.561 0 8.259-1.897 8.259-4.238 0-2.34-3.698-4.237-8.259-4.237-4.562 0-8.26 1.897-8.26 4.237 0 2.341 3.698 4.238 8.26 4.238"/><path fill="#000" d="M110.914 201.819c4.561 0 8.259-1.897 8.259-4.238 0-2.34-3.698-4.237-8.259-4.237-4.562 0-8.26 1.897-8.26 4.237 0 2.341 3.698 4.238 8.26 4.238" opacity=".6"/><path fill="#F7921E" d="M116.757 195.71c-3.227-1.657-8.455-1.657-11.682 0-1.333.682-2.113 1.539-2.344 2.436.231.888 1.026 1.75 2.344 2.432 3.227 1.657 8.455 1.657 11.682 0 1.334-.682 2.114-1.539 2.345-2.432-.231-.892-1.011-1.754-2.345-2.436"/><path fill="#000" d="M116.757 195.71c-3.227-1.657-8.455-1.657-11.682 0-1.333.682-2.113 1.539-2.344 2.436.231.888 1.026 1.75 2.344 2.432 3.227 1.657 8.455 1.657 11.682 0 1.334-.682 2.114-1.539 2.345-2.432-.231-.892-1.011-1.754-2.345-2.436" opacity=".5"/><path fill="#F7921E" d="M111.698 194.65v1.211l-.416.436-.764.801v-1.263z"/><path fill="#000" d="M111.698 194.65v1.211l-.416.436-.764.801v-1.263z" opacity=".3"/><path fill="#F7921E" d="M110.518 195.835v.714a6.6 6.6 0 0 1-1.174.333q-.257.052-.514 0a1.4 1.4 0 0 1-.241-.097c-.292-.175-.338-.436.216-.755a1.96 1.96 0 0 1 1.713-.195"/><path fill="#000" d="M110.518 195.835v.714a6.6 6.6 0 0 1-1.174.333q-.257.052-.514 0a1.4 1.4 0 0 1-.241-.097c-.292-.175-.338-.436.216-.755a1.96 1.96 0 0 1 1.713-.195" opacity=".45"/><path fill="#F7921E" d="M116.002 199.274v1.026l-1.329.765-.979-.564a4.98 4.98 0 0 1-3.792.169v-1.026l.601-.595-.601.164a3.87 3.87 0 0 1-2.955-.339c-.595-.338-.867-.718-.867-1.103v-1.026l.108-.446-.364-.21v-1.027l.98.57a1.5 1.5 0 0 0-.724 1.123c0 .375.288.739.867 1.078 1.288.744 2.565.513 3.735.123 1.088-.359 1.878-.775 2.504-.41.39.22.272.513-.165.749a2.2 2.2 0 0 1-.921.266 2.2 2.2 0 0 1-.946-.159l-1.252 1.226q.338.132.693.206a5.14 5.14 0 0 0 3.078-.375l.98.564z"/><path fill="#000" d="M106.081 196.745c0 .374.287.739.867 1.077 1.287.744 2.565.513 3.734.123 1.088-.359 1.878-.774 2.504-.41.39.221.272.513-.164.749a2.18 2.18 0 0 1-1.868.108l-1.251 1.236q.338.131.692.205a5.13 5.13 0 0 0 3.078-.374l.98.564 1.329-.764v1.026l-1.329.764-.98-.564a4.97 4.97 0 0 1-3.791.169v-1.026l.6-.595-.6.164a3.86 3.86 0 0 1-2.955-.338c-.595-.339-.867-.719-.867-1.103v-1.026l.108-.447" opacity=".35"/><path fill="#000" d="M105.824 195.053v1.026l.364.21c.154-.273.366-.509.621-.692z" opacity=".45"/><path fill="#F7921E" d="M115.782 198.604c.003.175-.03.35-.097.513l-.667-.38a1.312 1.312 0 0 0 .754-1.026c.005.282.01.857.01.893"/><path fill="#000" d="M115.782 198.604c.003.175-.03.35-.097.513l-.667-.38a1.312 1.312 0 0 0 .754-1.026c.005.282.01.857.01.893" opacity=".3"/><path fill="#F7921E" d="m115.777 199.15-.754-.441a1.3 1.3 0 0 0 .754-1.262c-.031-.364-.298-.713-.847-1.026a3.5 3.5 0 0 0-1.76-.462h-.625a8 8 0 0 0-.857.18l-.4.118-.554.179-.211.072q-.57.226-1.175.334a1.3 1.3 0 0 1-.513 0 1 1 0 0 1-.236-.103c-.297-.169-.343-.426.211-.749a1.93 1.93 0 0 1 1.703-.18l1.18-1.185a5.03 5.03 0 0 0-3.555.195l-.98-.564-1.339.769.985.565a1.5 1.5 0 0 0-.729 1.128c0 .375.288.739.867 1.078 1.293.744 2.565.513 3.735.118 1.088-.354 1.878-.77 2.504-.411.39.226.272.513-.164.754a2.159 2.159 0 0 1-1.868.108l-1.246 1.262a4.5 4.5 0 0 0 1.898.293 5.5 5.5 0 0 0 1.893-.462l.98.569 1.323-.764z"/><path fill="#F7921E" d="M113.694 199.475v1.046l.98.564v-1.046z"/><path fill="#000" d="M113.694 199.475v1.046l.98.564v-1.046z" opacity=".45"/><path fill="#F5F5F5" d="m105.824 195.051 1.339-.77.98.565-.975-.406zM108.815 196.037a1.92 1.92 0 0 1 1.703-.18l1.18-1.185-1.18 1.062a1.8 1.8 0 0 0-1.703.303M109.902 199.628a4.5 4.5 0 0 0 1.899.293 4.3 4.3 0 0 1-1.704-.339l1.057-1.195zM113.694 199.474l.98.441 1.323-.636-1.323.76zM102.017 192.891c3.479-2.108 8.896-2.319 8.896-2.319-3.406 0-6.602.765-8.998 2.145-2.293 1.328-3.56 3.078-3.56 4.868 0-.01.123-2.544 3.662-4.694M109.902 205.142c3.689.165 7.475-.569 10.297-2.201 2.934-1.693 4.191-3.991 3.765-6.197 0 0 .549 3.591-3.986 6.064s-10.076 2.334-10.076 2.334"/><path fill="#F7921E" d="M152.727 208.27a8.5 8.5 0 0 0-3.14-2.903c-5.13-2.961-13.441-2.961-18.566 0a8.47 8.47 0 0 0-3.14 2.903h-.708v2.683c.092 1.863 1.37 3.715 3.837 5.131 5.131 2.96 13.442 2.96 18.567 0 2.467-1.421 3.75-3.273 3.847-5.131v-2.683z"/><path fill="#000" d="M152.727 208.268a8.5 8.5 0 0 0-3.14-2.903c-5.13-2.961-13.441-2.961-18.566 0a8.47 8.47 0 0 0-3.14 2.903h-.708v2.683c.092 1.863 1.37 3.715 3.837 5.131 5.131 2.96 13.442 2.96 18.567 0 2.467-1.421 3.75-3.273 3.847-5.131v-2.683z" opacity=".25"/><path fill="#000" d="M140.306 203.15c-3.365 0-6.725.739-9.285 2.217a8.47 8.47 0 0 0-3.14 2.903h-.708v2.683c.092 1.863 1.37 3.715 3.837 5.131 2.565 1.482 5.921 2.221 9.286 2.221z" opacity=".1"/><path fill="#000" d="M133.129 204.381q-1.095.405-2.108.985a8.47 8.47 0 0 0-3.14 2.904h-.708v2.683c.092 1.862 1.37 3.714 3.837 5.13q1.014.581 2.109.99z" opacity=".1"/><path fill="#F7921E" d="M147.474 204.381c.73.27 1.437.599 2.113.985a8.47 8.47 0 0 1 3.14 2.904h.708v2.683c-.097 1.862-1.38 3.714-3.848 5.13a14.3 14.3 0 0 1-2.113.99z"/><path fill="#F7921E" d="M149.587 202.91c-5.13-2.961-13.441-2.961-18.566 0s-5.13 7.762 0 10.722 13.441 2.96 18.566 0c5.126-2.96 5.131-7.762 0-10.722"/><path fill="#000" d="M149.587 202.91c-5.13-2.961-13.441-2.961-18.566 0s-5.13 7.762 0 10.722 13.441 2.96 18.566 0c5.126-2.96 5.131-7.762 0-10.722" opacity=".2"/><path fill="#F7921E" d="M146.35 204.873a14.79 14.79 0 0 0-12.092 0c-1.719.877-2.668 2.088-2.668 3.396s.949 2.519 2.668 3.401a14.84 14.84 0 0 0 12.092 0c1.719-.882 2.663-2.088 2.663-3.401s-.944-2.519-2.663-3.396"/><path fill="#000" d="M146.35 204.873a14.79 14.79 0 0 0-12.092 0c-1.719.877-2.668 2.088-2.668 3.396s.949 2.519 2.668 3.401a14.84 14.84 0 0 0 12.092 0c1.719-.882 2.663-2.088 2.663-3.401s-.944-2.519-2.663-3.396" opacity=".4"/><path fill="#F7921E" d="M149.305 203.408c-2.396-1.385-5.592-2.144-9.004-2.144s-6.603.759-8.998 2.144c-2.294 1.324-3.561 3.053-3.561 4.864s1.267 3.539 3.561 4.868c2.395 1.38 5.592 2.14 8.998 2.14 3.407 0 6.608-.76 9.004-2.14 2.293-1.329 3.56-3.078 3.56-4.868s-1.267-3.54-3.56-4.864m-2.955 8.265a14.84 14.84 0 0 1-12.092 0c-1.719-.882-2.668-2.088-2.668-3.401 0-1.314.949-2.519 2.668-3.397a14.78 14.78 0 0 1 12.092 0c1.718.878 2.662 2.088 2.662 3.397s-.944 2.519-2.662 3.401"/><path fill="#000" d="M140.302 212.508c4.561 0 8.259-1.897 8.259-4.237 0-2.341-3.698-4.238-8.259-4.238-4.562 0-8.26 1.897-8.26 4.238 0 2.34 3.698 4.237 8.26 4.237" opacity=".2"/><path fill="#F7921E" d="M140.302 212.508c4.561 0 8.259-1.897 8.259-4.237 0-2.341-3.698-4.238-8.259-4.238-4.562 0-8.26 1.897-8.26 4.238 0 2.34 3.698 4.237 8.26 4.237"/><path fill="#000" d="M140.302 212.508c4.561 0 8.259-1.897 8.259-4.237 0-2.341-3.698-4.238-8.259-4.238-4.562 0-8.26 1.897-8.26 4.238 0 2.34 3.698 4.237 8.26 4.237" opacity=".6"/><path fill="#F7921E" d="M146.145 206.397c-3.227-1.657-8.455-1.657-11.682 0-1.334.682-2.113 1.539-2.344 2.432.231.893 1.026 1.754 2.344 2.437 3.227 1.657 8.455 1.657 11.682 0 1.334-.683 2.113-1.539 2.344-2.437-.231-.888-1.01-1.75-2.344-2.432"/><path fill="#000" d="M146.145 206.397c-3.227-1.657-8.455-1.657-11.682 0-1.334.682-2.113 1.539-2.344 2.432.231.893 1.026 1.754 2.344 2.437 3.227 1.657 8.455 1.657 11.682 0 1.334-.683 2.113-1.539 2.344-2.437-.231-.888-1.01-1.75-2.344-2.432" opacity=".5"/><path fill="#F7921E" d="M141.086 205.334v1.216l-.416.431-.764.805v-1.262z"/><path fill="#000" d="M141.086 205.334v1.216l-.416.431-.764.805v-1.262z" opacity=".3"/><path fill="#F7921E" d="M139.907 206.525v.713q-.572.222-1.175.334a1.2 1.2 0 0 1-.513 0 1 1 0 0 1-.241-.098c-.293-.174-.339-.43.215-.749a1.94 1.94 0 0 1 1.714-.2"/><path fill="#000" d="M139.907 206.525v.713q-.572.222-1.175.334a1.2 1.2 0 0 1-.513 0 1 1 0 0 1-.241-.098c-.293-.174-.339-.43.215-.749a1.94 1.94 0 0 1 1.714-.2" opacity=".45"/><path fill="#F7921E" d="M145.39 209.965v1.026l-1.323.769-.98-.569a5 5 0 0 1-3.797.174v-1.026l.606-.6-.606.169a3.87 3.87 0 0 1-2.955-.338c-.595-.344-.867-.719-.867-1.103v-1.026l.108-.447-.364-.21v-1.026l.985.564a1.53 1.53 0 0 0-.729 1.124c0 .374.288.738.867 1.072 1.288.744 2.566.513 3.735.123 1.088-.354 1.878-.77 2.509-.41.385.225.267.513-.169.754a2.18 2.18 0 0 1-1.868.107l-1.252 1.242q.339.128.693.2a5.17 5.17 0 0 0 3.078-.369l.98.564z"/><path fill="#000" d="M135.469 207.428c0 .375.287.739.867 1.072 1.287.744 2.565.514 3.735.124 1.087-.354 1.877-.77 2.508-.411.385.226.267.513-.169.754a2.2 2.2 0 0 1-1.867.108l-1.252 1.242q.339.126.692.2a5.16 5.16 0 0 0 3.079-.37l.979.565 1.324-.765v1.026l-1.298.785-.98-.569a5 5 0 0 1-3.796.174v-1.026l.605-.6-.605.169a3.88 3.88 0 0 1-2.955-.338c-.595-.344-.867-.719-.867-1.103v-1.026l.107-.447" opacity=".35"/><path fill="#000" d="M135.217 205.74v1.026l.359.211c.153-.275.365-.511.621-.693z" opacity=".45"/><path fill="#F7921E" d="M145.17 209.279c.004.176-.029.351-.098.513l-.667-.379a1.3 1.3 0 0 0 .754-1.026c.006.292.011.862.011.892"/><path fill="#000" d="M145.17 209.279c.005.176-.029.351-.097.513l-.667-.379a1.3 1.3 0 0 0 .754-1.026c.005.292.01.862.01.892" opacity=".3"/><path fill="#F7921E" d="m145.17 209.834-.759-.436a1.29 1.29 0 0 0 .759-1.164 1 1 0 0 0 0-.103c-.031-.359-.298-.708-.847-1.026a3.44 3.44 0 0 0-1.759-.462h-.626a7 7 0 0 0-.857.18c-.133.036-.267.072-.4.118l-.554.18-.21.071q-.572.222-1.175.334a1.2 1.2 0 0 1-.513 0 1 1 0 0 1-.236-.098c-.298-.169-.344-.431.21-.749a1.93 1.93 0 0 1 1.703-.179l1.18-1.19a5.06 5.06 0 0 0-3.555.2l-.98-.565-1.334.77.98.564a1.49 1.49 0 0 0-.728 1.129c0 .379.287.744.867 1.077 1.292.744 2.565.513 3.734.123 1.088-.354 1.878-.769 2.504-.41.39.226.272.513-.164.749a2.18 2.18 0 0 1-1.868.113l-1.251 1.241q.34.126.692.206a5 5 0 0 0 1.206.087 5.7 5.7 0 0 0 1.893-.462l.985.564 1.318-.764z"/><path fill="#F7921E" d="M143.082 210.164v1.047l.985.564v-1.047z"/><path fill="#000" d="M143.082 210.164v1.047l.985.564v-1.047z" opacity=".45"/><path fill="#F5F5F5" d="m135.212 205.74 1.339-.769.98.564-.975-.41zM138.203 206.704a1.93 1.93 0 0 1 1.703-.18l1.18-1.19-1.18 1.067a1.78 1.78 0 0 0-1.703.303M139.291 210.331q.339.127.692.206a5 5 0 0 0 1.206.087 4.2 4.2 0 0 1-1.698-.344l1.051-1.19zM143.082 210.163l.985.441 1.319-.641-1.319.764zM131.405 203.583c3.478-2.114 8.896-2.319 8.896-2.319-3.406 0-6.603.759-8.998 2.144-2.294 1.324-3.561 3.053-3.561 4.864 0 0 .128-2.54 3.663-4.689M139.291 215.826c3.688.164 7.474-.564 10.296-2.196 2.934-1.693 4.191-3.991 3.766-6.202 0 0 .548 3.591-3.987 6.069s-10.075 2.329-10.075 2.329"/><path fill="#F7921E" d="M153.506 204.578a8.45 8.45 0 0 0-3.134-2.899c-5.13-2.96-13.441-2.96-18.572 0a8.5 8.5 0 0 0-3.15 2.899h-.708v2.683c.093 1.867 1.37 3.714 3.833 5.13 5.13 2.96 13.446 2.96 18.571 0 2.468-1.426 3.75-3.273 3.848-5.13v-2.683z"/><path fill="#000" d="M153.506 204.576a8.45 8.45 0 0 0-3.134-2.899c-5.13-2.96-13.441-2.96-18.572 0a8.5 8.5 0 0 0-3.15 2.899h-.708v2.683c.093 1.867 1.37 3.714 3.833 5.13 5.13 2.96 13.446 2.96 18.571 0 2.468-1.426 3.75-3.273 3.848-5.13v-2.683z" opacity=".25"/><path fill="#000" d="M141.086 199.445c-3.36 0-6.721.739-9.286 2.222a8.5 8.5 0 0 0-3.15 2.909h-.708v2.683c.093 1.867 1.37 3.714 3.833 5.13 2.565 1.477 5.925 2.216 9.285 2.216z" opacity=".1"/><path fill="#000" d="M133.914 200.691q-1.097.41-2.114.991a8.5 8.5 0 0 0-3.15 2.893h-.708v2.683c.093 1.868 1.37 3.714 3.833 5.13q1.018.578 2.113.991z" opacity=".1"/><path fill="#F7921E" d="M148.258 200.691q1.098.409 2.114.991a8.5 8.5 0 0 1 3.135 2.898h.713v2.683c-.098 1.868-1.38 3.715-3.848 5.131a15 15 0 0 1-2.114.99z"/><path fill="#F7921E" d="M150.372 199.22c-5.13-2.96-13.441-2.96-18.572 0s-5.13 7.762 0 10.722c5.131 2.96 13.447 2.96 18.572 0s5.13-7.757 0-10.722"/><path fill="#000" d="M150.372 199.22c-5.13-2.96-13.441-2.96-18.572 0s-5.13 7.762 0 10.722c5.131 2.96 13.447 2.96 18.572 0s5.13-7.757 0-10.722" opacity=".2"/><path fill="#F7921E" d="M147.12 201.183a14.79 14.79 0 0 0-12.092 0c-1.719.883-2.668 2.088-2.668 3.402 0 1.313.949 2.513 2.668 3.396a14.79 14.79 0 0 0 12.092 0c1.718-.883 2.662-2.088 2.662-3.396 0-1.309-.928-2.519-2.662-3.402"/><path fill="#000" d="M147.12 201.183a14.79 14.79 0 0 0-12.092 0c-1.719.883-2.668 2.088-2.668 3.402 0 1.313.949 2.513 2.668 3.396a14.79 14.79 0 0 0 12.092 0c1.718-.883 2.662-2.088 2.662-3.396 0-1.309-.928-2.519-2.662-3.402" opacity=".4"/><path fill="#F7921E" d="M150.085 199.717c-2.391-1.38-5.587-2.145-8.999-2.145-3.411 0-6.602.765-8.998 2.145-2.293 1.328-3.561 3.078-3.561 4.868s1.268 3.54 3.561 4.864c2.396 1.38 5.592 2.144 8.998 2.144 3.407 0 6.608-.764 8.999-2.144 2.298-1.324 3.56-3.053 3.56-4.864s-1.262-3.54-3.56-4.868m-2.966 8.265a14.78 14.78 0 0 1-12.092 0c-1.718-.883-2.667-2.088-2.667-3.397s.949-2.519 2.667-3.401a14.79 14.79 0 0 1 12.092 0c1.719.882 2.663 2.088 2.663 3.401 0 1.314-.929 2.514-2.663 3.397"/><path fill="#000" d="M141.086 208.819c4.562 0 8.26-1.897 8.26-4.238 0-2.34-3.698-4.237-8.26-4.237s-8.259 1.897-8.259 4.237c0 2.341 3.698 4.238 8.259 4.238" opacity=".2"/><path fill="#F7921E" d="M141.086 208.819c4.562 0 8.26-1.897 8.26-4.238 0-2.34-3.698-4.237-8.26-4.237s-8.259 1.897-8.259 4.237c0 2.341 3.698 4.238 8.259 4.238"/><path fill="#000" d="M141.086 208.819c4.562 0 8.26-1.897 8.26-4.238 0-2.34-3.698-4.237-8.26-4.237s-8.259 1.897-8.259 4.237c0 2.341 3.698 4.238 8.259 4.238" opacity=".6"/><path fill="#F7921E" d="M146.93 202.71c-3.227-1.657-8.455-1.657-11.682 0-1.334.682-2.113 1.539-2.344 2.436.231.888 1.026 1.75 2.344 2.432 3.227 1.657 8.455 1.657 11.682 0 1.334-.682 2.114-1.539 2.344-2.432-.23-.892-1.01-1.754-2.344-2.436"/><path fill="#000" d="M146.93 202.71c-3.227-1.657-8.455-1.657-11.682 0-1.334.682-2.113 1.539-2.344 2.436.231.888 1.026 1.75 2.344 2.432 3.227 1.657 8.455 1.657 11.682 0 1.334-.682 2.114-1.539 2.344-2.432-.23-.892-1.01-1.754-2.344-2.436" opacity=".5"/><path fill="#F7921E" d="M141.871 201.65v1.211l-.416.436-.764.801v-1.263z"/><path fill="#000" d="M141.871 201.65v1.211l-.416.436-.764.801v-1.263z" opacity=".3"/><path fill="#F7921E" d="M140.691 202.835v.714q-.571.221-1.175.333a1.3 1.3 0 0 1-.513 0 1.4 1.4 0 0 1-.241-.097c-.292-.175-.338-.436.216-.755a1.96 1.96 0 0 1 1.713-.195"/><path fill="#000" d="M140.691 202.835v.714q-.571.221-1.175.333a1.3 1.3 0 0 1-.513 0 1.4 1.4 0 0 1-.241-.097c-.292-.175-.338-.436.216-.755a1.96 1.96 0 0 1 1.713-.195" opacity=".45"/><path fill="#F7921E" d="M146.175 206.274v1.026l-1.329.765-.98-.564a4.97 4.97 0 0 1-3.791.169v-1.026l.6-.595-.6.164a3.87 3.87 0 0 1-2.955-.339c-.595-.338-.867-.718-.867-1.103v-1.026l.108-.446-.364-.21v-1.027l.979.57a1.5 1.5 0 0 0-.723 1.123c0 .375.287.739.867 1.078 1.288.744 2.565.513 3.735.123 1.088-.359 1.878-.775 2.503-.41.39.22.272.513-.164.749a2.171 2.171 0 0 1-1.867.107l-1.252 1.226q.338.132.693.206a5.14 5.14 0 0 0 3.078-.375l.98.564z"/><path fill="#000" d="M136.253 203.745c0 .374.288.739.867 1.077 1.288.744 2.566.513 3.735.123 1.088-.359 1.878-.774 2.504-.41.39.221.272.513-.164.749a2.159 2.159 0 0 1-1.868.108l-1.252 1.236q.338.131.693.205a5.13 5.13 0 0 0 3.078-.374l.98.564 1.329-.764v1.026l-1.329.764-.98-.564a4.97 4.97 0 0 1-3.791.169v-1.026l.6-.595-.6.164a3.86 3.86 0 0 1-2.955-.338c-.595-.339-.867-.719-.867-1.103v-1.026l.108-.447" opacity=".35"/><path fill="#000" d="M135.997 202.053v1.026l.364.21c.154-.273.366-.509.621-.692z" opacity=".45"/><path fill="#F7921E" d="M145.955 205.604c.003.175-.03.35-.098.513l-.667-.38a1.32 1.32 0 0 0 .755-1.026c.005.282.01.857.01.893"/><path fill="#000" d="M145.955 205.602c.003.176-.03.35-.098.513l-.667-.38a1.31 1.31 0 0 0 .755-1.026c.005.282.01.857.01.893" opacity=".3"/><path fill="#F7921E" d="m145.95 206.15-.755-.441a1.3 1.3 0 0 0 .755-1.262c-.031-.364-.298-.713-.847-1.026a3.5 3.5 0 0 0-1.76-.462h-.626a8 8 0 0 0-.856.18l-.4.118-.555.179-.21.072q-.57.226-1.175.334a1.3 1.3 0 0 1-.513 0 1 1 0 0 1-.236-.103c-.297-.169-.343-.426.211-.749a1.93 1.93 0 0 1 1.703-.18l1.18-1.185a5.03 5.03 0 0 0-3.555.195l-.98-.564-1.339.769.985.565a1.5 1.5 0 0 0-.729 1.128c0 .375.288.739.867 1.078 1.293.744 2.565.513 3.735.118 1.088-.354 1.878-.77 2.504-.411.39.226.272.513-.165.754a2.159 2.159 0 0 1-1.867.108l-1.247 1.262a4.5 4.5 0 0 0 1.899.293 5.5 5.5 0 0 0 1.893-.462l.98.569 1.323-.764z"/><path fill="#F7921E" d="M143.867 206.475v1.046l.98.564v-1.046z"/><path fill="#000" d="M143.867 206.475v1.046l.98.564v-1.046z" opacity=".45"/><path fill="#F5F5F5" d="m135.997 202.051 1.339-.77.979.565-.974-.406zM138.988 203.037a1.92 1.92 0 0 1 1.703-.18l1.18-1.185-1.18 1.062a1.8 1.8 0 0 0-1.703.303M140.075 206.628a4.5 4.5 0 0 0 1.898.293 4.3 4.3 0 0 1-1.703-.339l1.057-1.195zM143.867 206.474l.98.441 1.323-.636-1.323.76zM132.19 199.891c3.479-2.108 8.896-2.319 8.896-2.319-3.406 0-6.602.765-8.998 2.145-2.293 1.328-3.561 3.078-3.561 4.868 0-.01.123-2.544 3.663-4.694M140.075 212.142c3.689.165 7.475-.569 10.297-2.201 2.934-1.693 4.191-3.991 3.765-6.197 0 0 .549 3.591-3.986 6.064s-10.076 2.334-10.076 2.334"/><path fill="#F7921E" d="M93 193.828 44.399 165.77l-24.298 14.029 48.596 28.059z"/><path fill="#000" d="m22.657 179.799 46.04 26.579 21.727-12.549-46.04-26.585zm1.277 0L44.4 167.984l44.763 25.865-20.465 11.81z" opacity=".4"/><path fill="#000" d="M57.456 194.077a19.15 19.15 0 0 1-9.311-2.276c-2.55-1.469-4.01-3.482-4.01-5.509 0-1.863 1.196-3.58 3.374-4.837 4.655-2.68 12.487-2.514 17.48.372 2.55 1.469 4.014 3.482 4.014 5.51 0 1.862-1.195 3.579-3.373 4.836s-5.152 1.904-8.174 1.904m-1.815-14.086c-2.928 0-5.784.61-7.936 1.852-2.033 1.174-3.155 2.757-3.155 4.459 0 1.867 1.38 3.74 3.797 5.132 4.873 2.819 12.518 2.985 17.07.372 2.034-1.174 3.156-2.757 3.156-4.459 0-1.868-1.38-3.74-3.797-5.132a18.63 18.63 0 0 0-9.135-2.224" opacity=".4"/><path fill="#000" d="M57.455 192.509a17.6 17.6 0 0 1-8.54-2.069c-2.07-1.185-3.228-2.695-3.228-4.138 0-1.278.92-2.509 2.586-3.472a15.03 15.03 0 0 1 7.366-1.701 17.6 17.6 0 0 1 8.541 2.069c2.07 1.184 3.228 2.695 3.228 4.138 0 1.278-.92 2.509-2.586 3.471a15.05 15.05 0 0 1-7.367 1.702" opacity=".2"/><path fill="#000" d="m66.167 203.046-13.362-7.759 1.071.134a22 22 0 0 0 2.881.186 20.3 20.3 0 0 0 9.312-2.447c2.364-1.365 4.749-3.807 4.749-6.207a5.7 5.7 0 0 0-.517-2.395l-.285-.626 14.63 8.494-1.604.926c-.274.16-.424.352-.424.548s.15.393.424.554l1.609.926-13.326 7.64-1.454-.786a2.6 2.6 0 0 0-2.343 0z" opacity=".2"/><path fill="#F7921E" d="M72.018 197.619a4.56 4.56 0 0 1-2.23-.558 1.73 1.73 0 0 1-1.003-1.413 1.49 1.49 0 0 1 .859-1.257 4.66 4.66 0 0 1 4.19.083 1.738 1.738 0 0 1 1.035 1.417 1.5 1.5 0 0 1-.864 1.258 4 4 0 0 1-1.987.47"/><path fill="#000" d="m43.178 189.659-14.598-8.412 1.603-.926a.69.69 0 0 0 .42-.553c0-.197-.15-.388-.42-.543l-1.603-.932 13.3-7.578 1.386.802a2.62 2.62 0 0 0 2.338 0l1.386-.802 13.357 7.687-1.08-.14a23 23 0 0 0-2.887-.186c-3.28.029-6.506.845-9.405 2.38-3.104 1.779-4.656 3.683-4.656 5.69a8.3 8.3 0 0 0 .57 2.892z" opacity=".2"/><path fill="#F7921E" d="M41.435 180.036a4.56 4.56 0 0 1-2.23-.564 1.73 1.73 0 0 1-1.009-1.412 1.5 1.5 0 0 1 .864-1.257 4.655 4.655 0 0 1 4.19.088 1.74 1.74 0 0 1 1.004 1.412 1.5 1.5 0 0 1-.848 1.273 4 4 0 0 1-1.971.46M93 193.828v5.908l-24.303 14.029v-5.908z"/><path fill="#000" d="M93 193.828v5.908l-24.303 14.029v-5.908z" opacity=".1"/><g fill="#000" opacity=".1"><path d="m68.697 209.172 7.671-4.268-7.671 4.63zM92.995 196.633l-2.556 1.624 2.556-1.324zM92.995 198.039l-12.783 7.599 12.783-7.164zM68.697 210.579l12.788-7.149-12.788 7.614z"/></g><path fill="#F7921E" d="m68.697 213.765-48.601-28.059.005-5.907 48.596 28.059z"/><path fill="#000" d="m68.697 213.765-48.601-28.059.005-5.907 48.596 28.059z" opacity=".2"/><path fill="#000" d="m68.696 209.171-2.56-1.314 2.56 1.676zM68.697 210.578l-12.86-7.185 12.86 7.651zM20.096 182.578l8.954 5.344-8.95-4.992zM20.096 184.061l5.116 3.119-5.111-2.788z" opacity=".3" style="mix-blend-mode:multiply"/><path fill="#455A64" d="m72.484 181-25.147 14.52-7.221-4.164 25.14-14.526z"/><path fill="#37474F" d="M40.116 191.355v6.425l7.221 4.17v-6.43z"/><path fill="#263238" d="m47.337 201.95.45-.264-.45-.258zM72.484 181v.983l-.849-.492z"/><path fill="#000" d="M47.787 201.686v-5.903l-.45-.263v5.907z" opacity=".3"/><path fill="#000" d="m47.787 195.783 24.298-14.034-.45-.259-24.298 14.03z" opacity=".2"/><path fill="#FAFAFA" d="M66.483 177.539 41.33 192.06l-.388-.228 25.147-14.516z"/><path fill="#E0E0E0" d="M41.332 192.06v6.425l-.394-.228.006-6.425z"/><path fill="#FAFAFA" d="m71.666 180.517-25.152 14.521-.388-.222 25.147-14.521z"/><path fill="#E0E0E0" d="M46.515 195.037v6.425l-.393-.228.005-6.42z"/><path fill="#F7921E" d="M91.904 185.059 43.304 157l-24.299 14.029 48.596 28.059z"/><path fill="#000" d="m21.56 171.03 46.04 26.579 21.728-12.55-46.04-26.584zm1.278 0 20.465-11.816 44.763 25.866L67.6 196.89z" opacity=".4"/><path fill="#000" d="M56.36 185.308a19.14 19.14 0 0 1-9.311-2.277c-2.55-1.469-4.01-3.481-4.01-5.509 0-1.862 1.195-3.58 3.373-4.837 4.656-2.679 12.488-2.514 17.48.373 2.55 1.469 4.014 3.481 4.014 5.509 0 1.862-1.195 3.58-3.372 4.837-2.178 1.257-5.153 1.904-8.174 1.904m-1.816-14.087c-2.927 0-5.783.611-7.935 1.852-2.033 1.175-3.156 2.758-3.156 4.459 0 1.868 1.382 3.741 3.797 5.132 4.874 2.819 12.52 2.985 17.072.373 2.033-1.175 3.155-2.758 3.155-4.46 0-1.867-1.381-3.74-3.797-5.131a18.6 18.6 0 0 0-9.136-2.225" opacity=".4"/><path fill="#000" d="M56.36 183.738a17.6 17.6 0 0 1-8.541-2.069c-2.07-1.185-3.228-2.696-3.228-4.139 0-1.278.92-2.509 2.586-3.471a15.05 15.05 0 0 1 7.367-1.702 17.6 17.6 0 0 1 8.54 2.069c2.07 1.185 3.228 2.695 3.228 4.139 0 1.277-.92 2.509-2.586 3.471a15.07 15.07 0 0 1-7.367 1.702" opacity=".2"/><path fill="#000" d="m65.072 194.277-13.363-7.76 1.071.134a22 22 0 0 0 2.882.187 20.34 20.34 0 0 0 9.311-2.447c2.364-1.366 4.75-3.808 4.75-6.208a5.7 5.7 0 0 0-.518-2.395l-.285-.626 14.63 8.494-1.604.926c-.274.161-.424.352-.424.549 0 .196.15.393.424.553l1.609.926-13.326 7.641-1.454-.787a2.62 2.62 0 0 0-2.343 0z" opacity=".2"/><path fill="#F7921E" d="M70.922 188.85a4.56 4.56 0 0 1-2.23-.559 1.73 1.73 0 0 1-1.003-1.412 1.49 1.49 0 0 1 .859-1.257 4.66 4.66 0 0 1 4.19.082 1.75 1.75 0 0 1 1.034 1.418 1.5 1.5 0 0 1-.863 1.257 4 4 0 0 1-1.987.471"/><path fill="#000" d="m42.082 180.889-14.598-8.411 1.603-.926a.7.7 0 0 0 .42-.554c0-.196-.15-.388-.42-.543l-1.603-.931 13.3-7.579 1.386.802a2.62 2.62 0 0 0 2.338 0l1.387-.802 13.357 7.687-1.082-.139a23 23 0 0 0-2.886-.186c-3.28.029-6.505.845-9.405 2.379-3.103 1.78-4.655 3.683-4.655 5.691.016.99.209 1.969.569 2.891z" opacity=".2"/><path fill="#F7921E" d="M40.339 171.267a4.6 4.6 0 0 1-2.23-.564 1.73 1.73 0 0 1-1.008-1.413 1.49 1.49 0 0 1 .864-1.257 4.66 4.66 0 0 1 4.19.088 1.74 1.74 0 0 1 1.003 1.413 1.49 1.49 0 0 1-.848 1.272 4.03 4.03 0 0 1-1.971.461M91.904 185.059v5.907L67.6 204.996v-5.908z"/><path fill="#000" d="M91.904 185.059v5.907l-24.303 14.03v-5.908z" opacity=".1"/><g fill="#000" opacity=".1"><path d="m67.6 200.403 7.672-4.268-7.671 4.63zM91.899 187.863l-2.556 1.625 2.556-1.325zM91.898 189.27l-12.782 7.599 12.782-7.165zM67.6 201.809l12.788-7.149-12.787 7.615z"/></g><path fill="#F7921E" d="M67.601 204.996 19 176.937l.005-5.908 48.596 28.059z"/><path fill="#000" d="M67.601 204.996 19 176.937l.005-5.908 48.596 28.059z" opacity=".2"/><path fill="#000" d="m67.6 200.402-2.56-1.314 2.56 1.676zM67.601 201.808l-12.86-7.185 12.86 7.651zM19 173.809l8.955 5.343-8.95-4.992zM19 175.291l5.116 3.119-5.11-2.788z" opacity=".3" style="mix-blend-mode:multiply"/><path fill="#455A64" d="m71.388 172.23-25.146 14.521-7.222-4.164 25.141-14.526z"/><path fill="#37474F" d="M39.02 182.586v6.425l7.222 4.169v-6.43z"/><path fill="#263238" d="m46.241 193.181.45-.264-.45-.259zM71.387 172.23v.983l-.848-.491z"/><path fill="#000" d="M46.691 192.916v-5.902l-.45-.264v5.908z" opacity=".3"/><path fill="#000" d="m46.692 187.014 24.298-14.035-.45-.258-24.298 14.029z" opacity=".2"/><path fill="#FAFAFA" d="M65.387 168.769 40.235 183.29l-.388-.227 25.146-14.516z"/><path fill="#E0E0E0" d="M40.235 183.29v6.425l-.393-.228.005-6.425z"/><path fill="#FAFAFA" d="M70.57 171.748 45.42 186.269l-.388-.223 25.146-14.521z"/><path fill="#E0E0E0" d="M45.419 186.267v6.425l-.394-.227.006-6.42z"/><path fill="#FFA8A7" d="M196.773 49.706c-4.878-.412-7.174.909-9.331 5.468-1.865 3.943-6.803 16.805-7.181 18.955-.345 1.924 3.073 11.8 3.073 11.8l7.081-1.327-2.688-8.529 6.756-15.344z"/><path fill="#F7921E" d="M197.669 49.705c-3.676-.61-6.397-1.38-8.833 1.613s-7.924 19.167-8.628 21.045-.345 3.252 1.069 7.134c0 0 4.572-2.256 7.426-.816l-.823-2.8 7.301-15.451z"/><path fill="#000" d="M197.669 49.705c-3.676-.61-6.397-1.38-8.833 1.613s-7.924 19.167-8.628 21.045-.345 3.252 1.069 7.134c0 0 4.572-2.256 7.426-.816l-.823-2.8 7.301-15.451z" opacity=".15"/><path fill="#37474F" d="M222.291 176.32q.636 2.706.996 5.462c.265 2.064.424 3.591 1.028 7.122.551 3.218.963 5.674-1.327 8.09-1.991 2.13-5.528 2.946-6.69.531-1.327-2.768-1.148-7.254-.969-10.048s.133-3.611.159-5.841c0-1.991.12-2.761.226-4.453 2.164-.113 4.433-.69 6.577-.863"/><path fill="#FFA8A7" d="M222.292 176.322c-.033-2.654 0-6.119.239-10.751.278-5.396.318-9.604.298-15.318 0-4.327-.245-8.15-1.778-16.446 1.626-16.651 2.216-33.847.252-40.192-1.692-5.428-3.411-7.24-4.931-9.895-.79-1.374-2.23-3.418-2.23-5.263a34 34 0 0 1-12.059 2.343c-7.719.073-10.42-1.991-10.42-1.991s-3.477 40.344-2.754 53.512c.431 7.791 1.055 19.326 1.288 24.994.179 4.373.663 10.061.663 12.47a20 20 0 0 1-1.228 6.146 44 44 0 0 1-2.528 6.232 6.1 6.1 0 0 1-.936 1.473 18 18 0 0 1-1.725 1.679c-1.248 1.075-1.872 1.606-1.766 2.602s.85 1.393 1.693 1.645c1.991.598 4.267.352 6.271 0 2.005-.351 4.241-1.327 5.097-3.205a8 8 0 0 0 .478-1.765c.277-1.99.789-3.939 1.527-5.808.298-.786.672-1.541 1.114-2.256a5.7 5.7 0 0 0 1.268-2.535c.08-.79-.531-1.912-1.327-3.106-.664-1.042-.498-1.759-.259-5.031.524-7.088 1.991-12.185 3.179-20.786a39.9 39.9 0 0 0-.252-12.451c.823-5.641 2.25-11.554 3.086-15.443 1.327 8.143 2.23 11.116 2.966 17.255 1.016 8.482 5.847 26.401 6.584 30.974s1.241 7.678 1.599 11.415c.306 3.239.545 9.756.956 12.723.664 4.745 5.542 3.318 6.332-.896.524-2.788-.657-8.688-.697-12.325"/><path fill="#263238" d="m198.526 186.715-.737-.113c-.046-2.309.086-4.426-.491-5.521l1.055-2.841z"/><path fill="#263238" d="M200.337 176.197c-.166 1.586-1.061 3.212-1.128 6.338a27 27 0 0 0 .08 3.982l-.763.206-.173-8.475z"/><path fill="#263238" d="M182.875 188.865s.04.923.439 1.228c.398.305 1.234 1.214 5.309.975 4.075-.238 5.502-1.247 6.895-2.515 1.394-1.267 1.759-4.606 1.991-6.179.405-3.046 1.673-4.645 2.854-6.178a2.73 2.73 0 0 0 .12-1.587s-2.356.392-3.816 4.122-3.611 7.486-6.903 8.521a56 56 0 0 1-6.889 1.613"/><path fill="#37474F" d="M200.092 172.292c-.584-1.022-1.115-1.327-1.673-2.196a4.3 4.3 0 0 0-1.327 2.15c-.252.816-.903 4.812-1.885 7.997-.737 2.389-1.991 3.65-3.683 4.301a6.8 6.8 0 0 1-3.359.378c-2.11-.292-1.619-1.818-1.619-1.818-.491.663-2.509 2.323-3.703 3.537-.664.664-.359 1.732.152 2.403.591.504 1.991 1.526 7.029.789 4.493-.663 5.541-2.727 5.973-3.663.447-1.371.759-2.783.929-4.214a13.4 13.4 0 0 1 1.579-4.467c.1-.173.199-.338.292-.478.306-.444.664-.936 1.062-1.42.319-.385.564-.558.664-.923a3.4 3.4 0 0 0-.431-2.376"/><path fill="#455A64" d="M190.362 160.042c-.053-.949-.1-1.878-.14-2.761-.232-5.667-.856-17.202-1.287-24.993-.723-13.168 2.754-53.512 2.754-53.512s2.701 2.097 10.42 1.99a34 34 0 0 0 12.032-2.342c0 1.845 1.44 3.889 2.23 5.263 1.52 2.654 3.239 4.466 4.931 9.895 1.991 6.332 1.374 23.541-.252 40.192 1.533 8.296 1.845 12.431 1.865 16.758 0 5.714-.06 8.628-.338 14.03-2.735 2.051-8.476.81-8.476.81-.736-4.54-5.568-22.459-6.596-30.987-.737-6.159-1.613-9.132-2.967-17.256l-3.086 15.444c.736 4.111.821 8.313.252 12.45-.883 6.259-1.885 10.659-2.568 15.318-1.222 1.261-6.949 1.599-8.774-.299"/><path fill="#37474F" d="m191.497 77.52-.073 4.486s2.954 2.263 8.383 2.655 13.041-1.779 15.151-3.371a7.45 7.45 0 0 1-.571-4.34 27 27 0 0 1-13.446 3.006c-7.599-.392-9.444-2.436-9.444-2.436M204.538 117.109l-3.179-18.716s-4.951-1.26-7.579-5.309a9.81 9.81 0 0 0 5.754 6.79l3.551 17.52-1.361 13.426z"/><path fill="#F7921E" d="M190.568 70.126c.119 2.237 1.122 8.628 1.122 8.628 9.138 6.185 22.452-.319 22.452-.319l2.488-15.164s-5.462-5.602-.988-12.61l-7.248-.465-7.639-.338-3.982-.153c-2.787 2.05-7.712 7.666-8.627 9.955-.916 2.29-1.633 5.688 2.422 10.466"/><path fill="#263238" d="M199.534 69.754c.79 1.029 4.46 2.29 7.473.95a6.83 6.83 0 0 0 4.201-5.522 5.977 5.977 0 0 1-3.789 6.544c-4.673 1.89-7.646-.943-7.885-1.972" opacity=".1"/><path fill="#263238" d="M216.119 32.077v-.432c-.192-8.435-7.3-12.563-14.395-12.563a13.1 13.1 0 0 0-11.229 6.272c-4.115 1.062-3.06 6.756 1.055 7.778v4.294c.033 4.287-2.787 5.84-2.787 5.84s4.367 5.569 16.366 4.978c11.694-.564 11.037-10.977 10.99-16.167"/><path fill="#263238" d="m212.775 19.469-.664 3.617a1.816 1.816 0 0 0 2.203-1.414 1.926 1.926 0 0 0-1.539-2.203"/><path fill="#263238" d="m216.119 22.488-3.723.405a1.804 1.804 0 0 0 1.991 1.666 1.93 1.93 0 0 0 1.732-2.07"/><path fill="#FFA8A7" d="M208.388 50.663V40.117s1.36 1.328 3.318-.106c1.779-1.327 2.522-4.108 1.274-5.548-.883-1.029-3.617-1.587-4.692.617 0 0-3.172-.16-7.3-3.093s-5.124-5.535-7.659-5.827c-1.195.91-2.35 3.59-2.23 10.659.093 5.23 2.436 7.725 3.63 8.627.976.737 2.223.837 4.327.492v4.957l-2.283 9.51z"/><path fill="#263238" d="M208.314 34.587v2.9a2.05 2.05 0 0 1-1.901-1.243 2.1 2.1 0 0 1-.163-.781v-2.8zM200.576 35.031a.96.96 0 0 0 .237.703.97.97 0 0 0 .666.326.97.97 0 0 0 .92-.561.966.966 0 0 0-.161-1.056.957.957 0 0 0-1.662.601zM192.26 32.325l1.991-1.36a1.17 1.17 0 0 0-1.646-.319 1.23 1.23 0 0 0-.345 1.679"/><path fill="#F28F8F" d="m201.419 40.162-2.721 1.029a1.44 1.44 0 0 0 .746.817 1.42 1.42 0 0 0 1.106.039 1.485 1.485 0 0 0 .869-1.885"/><path fill="#263238" d="M193.275 34.414a.96.96 0 0 0 .539.922 1 1 0 0 0 .364.093.974.974 0 0 0 .953-1.298.958.958 0 0 0-1.856.282"/><path fill="#F28F8F" d="m198.187 33.93-.14 5.13-2.754-.836zM199.069 45.928c2.224-.286 6.796-1.573 7.513-3.319a4.6 4.6 0 0 1-1.606 2.264c-1.367 1.148-5.907 2.442-5.907 2.442z"/><path fill="#263238" d="M205.109 19.416c-4.593-1.05-6.425.278-11.064-.213-1.911-.199-3.65-.292-4.924.352-1.454.73-2.303 2.33-2.111 4.4.332 3.484 4.095 4.38 4.095 4.38s3.186-7.18 7.42-7.121c4.234.06 6.584-1.798 6.584-1.798"/><path fill="#E0E0E0" d="m148.007 92.296 38.42 22.226v-10.878L148 81.418z"/><path fill="#F0F0F0" d="m213.067 99.145-26.64 15.377v-10.877l26.64-15.377z"/><path fill="#FAFAFA" d="m148 81.418 26.64-15.377 38.426 22.226-26.639 15.378z"/><path fill="#F7921E" d="M200.815 85.44q.368-.145.757-.219.349-.065.703-.066.305 0 .604.053.227.045.438.14c.06 0 .086.066.08.106q-.01.06-.08.1l-.465.271a.6.6 0 0 1-.212.073 1.3 1.3 0 0 1-.219 0 2.2 2.2 0 0 0-.584 0 2 2 0 0 0-.723.273q-.16.088-.292.212a.7.7 0 0 0-.166.219.23.23 0 0 0 0 .199.32.32 0 0 0 .159.172.9.9 0 0 0 .319.1q.205.006.404-.04.227-.058.545-.166l.756-.278q.43-.164.876-.272.36-.085.73-.1a2.1 2.1 0 0 1 .624.073q.297.08.564.232c.152.083.284.198.385.339a.66.66 0 0 1 .113.398.9.9 0 0 1-.159.438 2 2 0 0 1-.452.451l.452.259q.03.016.049.044a.14.14 0 0 1 .024.062.12.12 0 0 1-.073.1l-.538.312a.33.33 0 0 1-.179.04.36.36 0 0 1-.179-.04l-.452-.26a4.5 4.5 0 0 1-.716.233q-.357.084-.724.113-.333.017-.663-.033a1.8 1.8 0 0 1-.591-.193q-.093-.04-.08-.1c0-.039 0-.072.08-.105l.458-.266a.7.7 0 0 1 .212-.08.9.9 0 0 1 .219 0l.286.034q.165.02.332 0a2.412 2.412 0 0 0 .856-.319 2 2 0 0 0 .351-.239.8.8 0 0 0 .226-.245.32.32 0 0 0 .053-.226c0-.073-.066-.14-.166-.2a.6.6 0 0 0-.332-.085q-.224.007-.438.073a6 6 0 0 0-.597.199c-.226.08-.491.179-.796.278a6 6 0 0 1-.764.226q-.328.075-.663.086-.314 0-.617-.08a2.4 2.4 0 0 1-.591-.252 1.05 1.05 0 0 1-.378-.331.66.66 0 0 1-.12-.385.8.8 0 0 1 .133-.412q.15-.231.365-.405l-.451-.265a.12.12 0 0 1-.073-.1.13.13 0 0 1 .023-.062.14.14 0 0 1 .05-.044l.537-.305a.37.37 0 0 1 .359 0z"/><path fill="#000" d="m168.03 96.533 18.397 10.626 11.043-6.378-11.043 7.035zM151.704 86.156s-.611 3.438-.306 5.183c0 0 4.819-.119 12.949 2.124z" opacity=".1"/><path fill="#FAFAFA" d="m151.697 86.156 12.649 7.307-13.99-4.041z"/><path fill="#000" d="m168.03 98.107 13.864 12.75s.385-1.753 3.046-2.987z" opacity=".1"/><path fill="#FAFAFA" d="m168.03 98.107 13.021 10.964 3.889-1.194z"/><path fill="#000" d="M208.626 93.727c-.073-.113-.119-.172-.119-.172l-8.761 5.057 9.862-.83a6 6 0 0 0-.982-4.055" opacity=".1"/><path fill="#FAFAFA" d="m199.746 98.612 8.761-5.057 2.92 1.54z"/><path fill="#455A64" d="M154.776 83.056a.35.35 0 0 1-.299-.166.344.344 0 0 1 .126-.465l15.835-9.165a.343.343 0 0 1 .465.126.34.34 0 0 1-.126.465l-15.816 9.158a.3.3 0 0 1-.185.047M158.453 85.174a.335.335 0 0 1-.329-.423.4.4 0 0 1 .057-.12.4.4 0 0 1 .099-.088l15.835-9.165a.35.35 0 0 1 .431.145.34.34 0 0 1 .041.239.35.35 0 0 1-.126.207l-15.836 9.205a.4.4 0 0 1-.172 0M162.136 87.31a.36.36 0 0 1-.298-.172.346.346 0 0 1 .126-.465l15.835-9.165a.345.345 0 0 1 .508.252.335.335 0 0 1-.169.339l-15.836 9.165a.4.4 0 0 1-.166.047M165.813 89.436a.33.33 0 0 1-.292-.173.33.33 0 0 1-.034-.258.4.4 0 0 1 .059-.12.4.4 0 0 1 .101-.086l15.862-9.165a.33.33 0 0 1 .258-.034.33.33 0 0 1 .206.16.3.3 0 0 1 .044.125.35.35 0 0 1-.064.252.4.4 0 0 1-.099.087l-15.835 9.166a.32.32 0 0 1-.206.046M169.496 91.56a.34.34 0 0 1-.298-.173.346.346 0 0 1 .126-.465l15.835-9.158a.345.345 0 0 1 .465.12.349.349 0 0 1 .034.259.34.34 0 0 1-.161.205l-15.835 9.165a.3.3 0 0 1-.166.047M173.173 93.683a.34.34 0 0 1-.322-.252.34.34 0 0 1 .156-.378l15.802-9.165a.34.34 0 0 1 .378.025.358.358 0 0 1 .131.224.34.34 0 0 1-.065.248.3.3 0 0 1-.099.087l-15.808 9.165a.3.3 0 0 1-.173.046M176.864 95.792a.35.35 0 0 1-.299-.166.344.344 0 0 1 .126-.464l15.835-9.166a.341.341 0 0 1 .498.385.34.34 0 0 1-.159.206l-15.842 9.205a.3.3 0 0 1-.159 0M173.259 72.411a.32.32 0 0 1-.292-.173.32.32 0 0 1-.036-.254.33.33 0 0 1 .155-.203l3.597-2.104a.34.34 0 0 1 .259-.034.34.34 0 0 1 .206.16q.034.058.043.124a.34.34 0 0 1-.069.249.3.3 0 0 1-.1.085l-3.591 2.104a.3.3 0 0 1-.172.046M176.936 74.554a.35.35 0 0 1-.292-.166.33.33 0 0 1-.034-.259.346.346 0 0 1 .16-.206l3.597-2.104a.34.34 0 0 1 .378.026.3.3 0 0 1 .087.1.346.346 0 0 1-.126.465l-3.598 2.097a.3.3 0 0 1-.172.046M180.62 76.66a.335.335 0 0 1-.329-.423.4.4 0 0 1 .057-.12.4.4 0 0 1 .099-.087l3.597-2.104a.35.35 0 0 1 .378.026.34.34 0 0 1-.039.565l-3.591 2.097a.3.3 0 0 1-.172.046M184.302 78.79a.36.36 0 0 1-.298-.173.33.33 0 0 1-.034-.258.4.4 0 0 1 .059-.12.4.4 0 0 1 .101-.086l3.597-2.104a.34.34 0 0 1 .465.126.34.34 0 0 1-.127.465l-3.597 2.103a.4.4 0 0 1-.166.047M187.98 80.91a.327.327 0 0 1-.292-.173.343.343 0 0 1 .119-.463l3.597-2.098a.34.34 0 0 1 .266-.05.339.339 0 0 1 .073.634l-3.597 2.104a.3.3 0 0 1-.166.047M191.663 83.035a.35.35 0 0 1-.36-.125.34.34 0 0 1-.066-.254.34.34 0 0 1 .133-.226.4.4 0 0 1 .12-.059l3.598-2.097a.33.33 0 0 1 .266-.05.33.33 0 0 1 .218.16.34.34 0 0 1-.146.474l-3.597 2.104a.3.3 0 0 1-.166.073M195.34 85.173a.33.33 0 0 1-.293-.173.34.34 0 0 1-.033-.253.34.34 0 0 1 .153-.205l3.597-2.104a.34.34 0 0 1 .259-.034.35.35 0 0 1 .206.16.34.34 0 0 1 .033.256.3.3 0 0 1-.059.117.4.4 0 0 1-.1.085l-3.591 2.104a.3.3 0 0 1-.172.047M188.79 93.94l2.926 1.686.418-.24-2.92-1.685zM192.035 92.07l2.926 1.686.419-.24-2.921-1.692zM194.763 90.495l2.92 1.686.272-.153-2.92-1.692zM190.462 92.98l2.92 1.693.212-.126-2.926-1.686zM192.745 91.659l2.926 1.685.206-.12-2.92-1.685zM194.225 90.81l2.92 1.685.213-.119-2.921-1.692zM189.539 93.508l2.92 1.685.75-.424-2.927-1.693zM191.033 92.647l2.92 1.693.743-.432-2.92-1.685zM193.27 91.36l2.92 1.686.511-.292-2.92-1.686zM181.867 97.934l2.926 1.693.419-.246-2.921-1.686zM185.112 96.065l2.927 1.686.418-.24-2.927-1.685zM187.834 94.49l2.927 1.693.418-.245-2.92-1.686zM183.533 96.971l2.927 1.692.206-.12-2.92-1.691zM185.809 95.665l2.92 1.686.213-.126-2.927-1.686zM187.303 94.803l2.92 1.686.212-.12-2.927-1.685zM182.618 97.512l2.92 1.686.551-.319-2.92-1.686zM184.104 96.649l2.927 1.685.604-.351-2.92-1.686zM186.374 95.342l2.92 1.685.577-.325-2.927-1.692zM195.453 90.1l2.92 1.685.425-.246-2.927-1.686zM196.216 89.655l2.927 1.685.205-.12-2.92-1.685zM197.636 88.828l2.927 1.693.205-.12-2.92-1.692zM196.827 89.304l2.926 1.686.598-.345-2.92-1.686z"/><path fill="#FFA8A7" d="M215.641 50.658c2.171.418 5.058.936 6.637 3.63 2.031 3.452 11.322 22.293 11.17 23.767-.272 2.654-10.772 14.322-14.123 18.742-2.217 2.927-3.664 4.831-10.466 7.114-3.412 1.142-4.5.179-4.5.179l7.499-4.32c.392-.299 1.328-1.327.312-1.261-.856.046-1.699.212-2.555.2a3.6 3.6 0 0 1-2.077-.485.66.66 0 0 1-.299-.385.58.58 0 0 1 .133-.418c.196-.16.421-.28.664-.352q.382-.174.783-.299c.537-.172 1.088-.305 1.612-.504.837-.319 1.6-.551 2.211-.81a3.7 3.7 0 0 0 1.931-1.745c1.201-1.898 1.991-3.451 2.402-4.181 1.208-2.164 5.595-9.85 6.849-12.152l-8.209-13.5c-2.675-3.404-2.615-12.63.026-13.22"/><path fill="#F7921E" d="M214.692 50.599c1.328-.345 4.646-1.102 6.312 1.102 1.666 2.203 9.086 17.215 9.895 19 .81 1.786 3.763 6.239 2.841 8.09-.923 1.852-3.445 4.454-3.445 4.454a13.38 13.38 0 0 0-7.725-3.65l1.055-2.204-8.933-14.315s-3.053-6.862 0-12.477"/><path fill="#000" d="M214.692 50.599c1.328-.345 4.646-1.102 6.312 1.102 1.666 2.203 9.086 17.215 9.895 19 .81 1.786 3.763 6.239 2.841 8.09-.923 1.852-3.445 4.454-3.445 4.454a13.38 13.38 0 0 0-7.725-3.65l1.055-2.204-8.933-14.315s-3.053-6.862 0-12.477" opacity=".15"/></svg>