<svg width="256" height="256" viewBox="0 0 256 256" fill="none" xmlns="http://www.w3.org/2000/svg">
<path d="M127.917 106.854C157.293 106.851 186.642 113.322 209.011 126.248C231.382 139.175 242.454 156.034 242.453 172.787C242.453 189.54 231.38 206.394 209.011 219.31C186.645 232.223 157.297 238.695 127.921 238.695C98.545 238.695 69.1948 232.224 46.8262 219.31C24.4549 206.394 13.3828 189.54 13.3828 172.787C13.383 156.034 24.4549 139.174 46.8262 126.247C69.1924 113.333 98.5411 106.856 127.917 106.854Z" stroke="#D5D5D5"/>
<path d="M190.605 97.2711L193.446 91.9277L191.164 85.3327V81.2891L198.154 85.3327V89.3667L195.15 94.5753C195.102 94.6552 195.032 94.719 194.948 94.7582L190.605 97.2711Z" fill="#F7921E"/>
<path opacity="0.2" d="M190.605 97.2711L193.446 91.9277L191.164 85.3327V81.2891L198.154 85.3327V89.3667L195.15 94.5753C195.102 94.6552 195.032 94.719 194.948 94.7582L190.605 97.2711Z" fill="black"/>
<path d="M173.898 46.476C173.936 45.748 174.146 45.0393 174.511 44.4082C174.875 43.7772 175.385 43.2419 175.997 42.8463L177.701 41.8835C178.353 41.5559 179.071 41.3853 179.8 41.3853C180.529 41.3853 181.248 41.5559 181.899 41.8835L208.086 57.0279C208.689 57.4221 209.193 57.9506 209.557 58.5721C209.921 59.1935 210.136 59.8909 210.185 60.6094V92.1306C210.146 92.858 209.935 93.5658 209.57 94.1965C209.205 94.8272 208.697 95.3629 208.086 95.7602L206.382 96.723C205.731 97.0506 205.012 97.2213 204.283 97.2213C203.555 97.2213 202.836 97.0506 202.185 96.723L193.76 91.8514L190.757 97.0503C190.715 97.1259 190.652 97.1876 190.576 97.2278C190.499 97.2681 190.413 97.2852 190.327 97.277C190.241 97.2688 190.159 97.2357 190.092 97.1818C190.025 97.1278 189.975 97.0554 189.948 96.9733L186.78 87.8174L175.997 81.569C175.385 81.1734 174.875 80.6381 174.511 80.0071C174.146 79.376 173.936 78.6673 173.898 77.9393V46.476Z" fill="#F7921E"/>
<path opacity="0.2" d="M210.181 92.1594C210.142 92.8869 209.931 93.5947 209.566 94.2254C209.202 94.8561 208.693 95.3918 208.083 95.7891L206.378 96.7518C205.785 97.0511 205.135 97.2204 204.471 97.2487C203.806 97.2769 203.144 97.1633 202.527 96.9155C203.49 97.291 204.27 96.7326 204.27 95.5388V64.0465C204.243 63.3155 204.031 62.6033 203.654 61.9766L209.556 58.5684C209.933 59.1951 210.145 59.9073 210.172 60.6383L210.181 92.1594Z" fill="black"/>
<path opacity="0.3" d="M173.965 45.8786C174.206 44.9833 175.024 44.704 175.987 45.2625L202.184 60.4165C202.807 60.7966 203.318 61.3347 203.666 61.9762L209.558 58.5776C209.214 57.934 208.706 57.3927 208.085 57.0083L181.898 41.8543C181.247 41.5266 180.528 41.356 179.799 41.356C179.07 41.356 178.352 41.5266 177.7 41.8543L175.987 42.817C175.459 43.1627 175.007 43.6126 174.66 44.1391C174.312 44.6655 174.076 45.2575 173.965 45.8786Z" fill="white"/>
<path d="M185.76 81.3179H185.462C185.1 81.2667 184.757 81.1263 184.463 80.9096C184.168 80.6928 183.933 80.4063 183.777 80.0759L180.244 72.6337C180.121 72.3726 180.051 72.0899 180.038 71.8018C180.024 71.5136 180.068 71.2257 180.166 70.9543C180.263 70.683 180.414 70.4336 180.608 70.2204C180.802 70.0072 181.037 69.8343 181.298 69.7117C181.559 69.589 181.842 69.519 182.13 69.5056C182.418 69.4922 182.706 69.5357 182.977 69.6336C183.248 69.7315 183.498 69.8819 183.711 70.0762C183.924 70.2704 184.097 70.5048 184.22 70.7659L186.309 75.1369L196.399 63.3814C196.782 62.9397 197.325 62.6682 197.908 62.6267C198.491 62.5851 199.067 62.777 199.509 63.16C199.95 63.543 200.222 64.0858 200.263 64.669C200.305 65.2522 200.113 65.828 199.73 66.2698L187.426 80.6054C187.214 80.8344 186.956 81.0162 186.669 81.1389C186.382 81.2617 186.072 81.3226 185.76 81.3179Z" fill="#FAFAFA"/>
<path d="M216.667 163.28L214.859 162.299L216.529 161.896C216.682 162.09 216.776 162.323 216.8 162.568C216.825 162.813 216.779 163.06 216.667 163.28Z" fill="#F7921E"/>
<path opacity="0.5" d="M216.667 163.28L214.859 162.299L216.529 161.896C216.682 162.09 216.776 162.323 216.8 162.568C216.825 162.813 216.779 163.06 216.667 163.28Z" fill="black"/>
<path d="M168.067 187.753C168.646 188.045 169.285 188.197 169.934 188.197C170.582 188.197 171.221 188.045 171.8 187.753L213.678 163.571L150.984 127.96L149.518 127.112L107.641 150.702C106.62 151.299 106.62 152.269 107.641 152.857L168.067 187.753Z" fill="#F7921E"/>
<path d="M183.791 142.658L198.397 151.064L207.85 145.61L218.85 151.963V159.302C218.85 160.262 217.773 161.631 217.379 161.406C216.655 161.58 215.952 161.83 215.28 162.152C214.181 162.776 213.161 163.531 212.242 164.399L178.684 145.61L183.791 142.658Z" fill="#F7921E"/>
<path opacity="0.15" d="M183.791 142.658L198.397 151.064L207.85 145.61L218.85 151.963V159.302C218.85 160.262 217.773 161.631 217.379 161.406C216.655 161.58 215.952 161.83 215.28 162.152C214.181 162.776 213.161 163.531 212.242 164.399L178.684 145.61L183.791 142.658Z" fill="black"/>
<path d="M212.816 152.847V160.814C212.859 160.784 212.903 160.757 212.949 160.732C213.488 160.396 214.103 160.202 214.737 160.17C215.149 160.128 215.563 160.227 215.911 160.451V151.054L212.816 152.847Z" fill="#37474F"/>
<path d="M210.772 163.546C210.804 163.052 210.981 162.579 211.283 162.187C211.436 161.977 211.607 161.781 211.793 161.6L211.972 161.431L212.202 161.237L212.391 161.094C212.529 160.992 212.672 160.9 212.805 160.813V152.882L210.762 154.067V154.026L210.772 163.546Z" fill="#E0E0E0"/>
<path opacity="0.4" d="M218.852 159.302C218.852 160.262 217.774 161.63 217.381 161.406L215.91 160.451V154.394L217.386 151.84L218.188 151.554L218.852 151.942V159.302Z" fill="black"/>
<path d="M169.918 177.605V186.696C170.352 186.705 170.781 186.603 171.164 186.4L175.76 183.749L210.774 163.546V154.026L169.918 177.605Z" fill="#EBEBEB"/>
<path d="M108.688 143.455V150.319C108.712 150.75 108.837 151.169 109.052 151.544C109.268 151.918 109.568 152.237 109.928 152.474L164.104 183.749L168.7 186.4C169.081 186.604 169.509 186.706 169.941 186.696V178.632L108.688 143.455Z" fill="#F5F5F5"/>
<path d="M150.984 116.153L213.678 152.351V153.189C213.678 153.659 214.332 153.827 215.139 153.362C215.945 152.898 216.604 152.341 216.604 151.508L216.681 150.712L152.802 113.839L152.542 113.686C152.478 113.806 152.441 113.938 152.435 114.074V114.462C152.435 114.927 151.791 115.673 150.984 116.153Z" fill="#F7921E"/>
<path opacity="0.1" d="M150.984 116.153L213.678 152.351V153.189C213.678 153.659 214.332 153.827 215.139 153.362C215.945 152.898 216.604 152.341 216.604 151.508L216.681 150.712L152.802 113.839L152.542 113.686C152.478 113.806 152.441 113.938 152.435 114.074V114.462C152.435 114.927 151.791 115.673 150.984 116.153Z" fill="black"/>
<path d="M171.8 176.528L212.748 152.883C213.259 152.607 213.744 152.372 213.948 152.494L213.678 152.346L150.984 116.153L150.254 115.729C149.85 115.494 148.962 115.627 148.277 116.02L107.641 139.482C106.62 140.079 106.62 141.05 107.641 141.637L168.067 176.533C168.646 176.825 169.286 176.976 169.934 176.975C170.583 176.974 171.222 176.821 171.8 176.528Z" fill="#F7921E"/>
<path d="M152.555 113.681L152.815 113.834L216.694 150.707C216.725 150.64 216.772 150.582 216.831 150.538L217.046 150.416L217.506 150.15L218.072 149.818C218.183 149.744 218.315 149.711 218.447 149.723C218.579 149.735 218.703 149.792 218.798 149.885C218.826 149.899 218.851 149.92 218.869 149.946C218.945 150.026 219.01 150.115 219.063 150.212C219.133 150.325 219.188 150.447 219.227 150.574C219.28 150.709 219.324 150.847 219.359 150.988C219.395 151.146 219.421 151.304 219.451 151.499C219.469 151.595 219.48 151.692 219.487 151.79C219.487 151.871 219.487 151.943 219.487 152.03C219.487 152.208 219.487 152.392 219.487 152.586V150.794C219.487 149.803 218.65 148.516 217.623 147.924L157.222 113.007C156.201 112.41 154.7 112.312 153.898 112.772L153.137 113.216H153.106C153.055 113.252 152.928 113.324 152.785 113.4C152.683 113.471 152.604 113.568 152.555 113.681Z" fill="#F7921E"/>
<path d="M171.8 187.748L174.328 186.282L212.243 164.393C212.273 163.899 212.451 163.426 212.753 163.035C213.203 162.443 213.768 161.948 214.413 161.579C214.952 161.243 215.567 161.05 216.201 161.018C216.626 161.011 217.042 161.148 217.38 161.406C217.868 160.434 218.106 159.357 218.075 158.27H219.51C219.51 160.252 218.856 162.238 218.054 162.698L217.329 163.122C216.921 163.362 216.599 163.372 216.599 163.152V162.764C216.599 162.335 215.945 162.356 215.133 162.82C214.321 163.285 213.673 164.015 213.673 164.444V164.833C213.673 165.052 213.116 165.547 212.432 165.946L175.768 187.14L171.8 189.428C171.227 189.728 170.588 189.879 169.941 189.867V188.207C170.59 188.216 171.23 188.057 171.8 187.748Z" fill="#F7921E"/>
<path opacity="0.3" d="M171.8 187.748L174.328 186.282L212.243 164.393C212.273 163.899 212.451 163.426 212.753 163.035C213.203 162.443 213.768 161.948 214.413 161.579C214.952 161.243 215.567 161.05 216.201 161.018C216.626 161.011 217.042 161.148 217.38 161.406C217.868 160.434 218.106 159.357 218.075 158.27H219.51C219.51 160.252 218.856 162.238 218.054 162.698L217.329 163.122C216.921 163.362 216.599 163.372 216.599 163.152V162.764C216.599 162.335 215.945 162.356 215.133 162.82C214.321 163.285 213.673 164.015 213.673 164.444V164.833C213.673 165.052 213.116 165.547 212.432 165.946L175.768 187.14L171.8 189.428C171.227 189.728 170.588 189.879 169.941 189.867V188.207C170.59 188.216 171.23 188.057 171.8 187.748Z" fill="black"/>
<path d="M171.785 176.533L174.313 175.067L203.423 158.26L212.723 152.888C213.382 152.5 213.923 152.377 213.959 152.566V152.99C213.959 153.46 214.612 153.46 215.419 152.99C216.226 152.52 216.553 151.968 216.568 151.524V151.065C216.56 150.964 216.575 150.863 216.612 150.769C216.649 150.675 216.708 150.591 216.783 150.523C216.852 150.479 216.924 150.438 216.997 150.401L217.457 150.135L218.024 149.803C218.134 149.729 218.266 149.695 218.398 149.707C218.53 149.72 218.654 149.777 218.749 149.87C218.777 149.884 218.802 149.905 218.821 149.931C218.872 149.982 218.915 150.041 218.948 150.104C218.975 150.132 218.997 150.163 219.015 150.196C219.084 150.31 219.139 150.432 219.178 150.559C219.231 150.694 219.276 150.832 219.311 150.973C219.347 151.131 219.372 151.289 219.403 151.483C219.42 151.58 219.432 151.677 219.438 151.774C219.438 151.856 219.438 151.928 219.438 152.014C219.438 152.193 219.438 152.377 219.438 152.571V158.276H218.003V152.566C218.003 152.418 218.003 152.265 218.003 152.122L217.968 151.764C217.97 151.752 217.97 151.74 217.968 151.728C217.84 152.867 216.747 153.889 215.797 154.43C215.269 154.758 214.666 154.944 214.045 154.971C213.575 154.977 213.119 154.809 212.764 154.502L212.631 154.573L212.381 154.721L175.768 175.905L171.8 178.198H171.775C171.208 178.488 170.578 178.633 169.941 178.622V176.962C170.582 176.976 171.216 176.828 171.785 176.533Z" fill="#F7921E"/>
<path opacity="0.3" d="M171.785 176.533L174.313 175.067L203.423 158.26L212.723 152.888C213.382 152.5 213.923 152.377 213.959 152.566V152.99C213.959 153.46 214.612 153.46 215.419 152.99C216.226 152.52 216.553 151.968 216.568 151.524V151.065C216.56 150.964 216.575 150.863 216.612 150.769C216.649 150.675 216.708 150.591 216.783 150.523C216.852 150.479 216.924 150.438 216.997 150.401L217.457 150.135L218.024 149.803C218.134 149.729 218.266 149.695 218.398 149.707C218.53 149.72 218.654 149.777 218.749 149.87C218.777 149.884 218.802 149.905 218.821 149.931C218.872 149.982 218.915 150.041 218.948 150.104C218.975 150.132 218.997 150.163 219.015 150.196C219.084 150.31 219.139 150.432 219.178 150.559C219.231 150.694 219.276 150.832 219.311 150.973C219.347 151.131 219.372 151.289 219.403 151.483C219.42 151.58 219.432 151.677 219.438 151.774C219.438 151.856 219.438 151.928 219.438 152.014C219.438 152.193 219.438 152.377 219.438 152.571V158.276H218.003V152.566C218.003 152.418 218.003 152.265 218.003 152.122L217.968 151.764C217.97 151.752 217.97 151.74 217.968 151.728C217.84 152.867 216.747 153.889 215.797 154.43C215.269 154.758 214.666 154.944 214.045 154.971C213.575 154.977 213.119 154.809 212.764 154.502L212.631 154.573L212.381 154.721L175.768 175.905L171.8 178.198H171.775C171.208 178.488 170.578 178.633 169.941 178.622V176.962C170.582 176.976 171.216 176.828 171.785 176.533Z" fill="black"/>
<path d="M106.875 140.534V142.224C106.893 142.45 106.97 142.668 107.099 142.855C107.228 143.041 107.405 143.19 107.61 143.286H107.641L164.104 175.905L168.067 178.198C168.641 178.495 169.28 178.646 169.926 178.637V176.977C169.277 176.992 168.635 176.839 168.062 176.533L165.539 175.077L107.641 141.637C107.424 141.542 107.237 141.388 107.102 141.194C106.967 140.999 106.888 140.77 106.875 140.534Z" fill="#F7921E"/>
<path opacity="0.2" d="M106.875 140.534V142.224C106.893 142.45 106.97 142.668 107.099 142.855C107.228 143.041 107.405 143.19 107.61 143.286H107.641L164.104 175.905L168.067 178.198C168.641 178.495 169.28 178.646 169.926 178.637V176.977C169.277 176.992 168.635 176.839 168.062 176.533L165.539 175.077L107.641 141.637C107.424 141.542 107.237 141.388 107.102 141.194C106.967 140.999 106.888 140.77 106.875 140.534Z" fill="black"/>
<path d="M106.875 151.759V153.434C106.89 153.662 106.967 153.882 107.096 154.071C107.225 154.259 107.403 154.41 107.61 154.506H107.641L164.104 187.14L168.067 189.428C168.64 189.728 169.279 189.879 169.926 189.867V188.207C169.277 188.222 168.635 188.069 168.062 187.763L165.539 186.308L107.641 152.857C107.425 152.762 107.238 152.61 107.103 152.416C106.968 152.222 106.889 151.995 106.875 151.759Z" fill="#F7921E"/>
<path opacity="0.2" d="M106.875 151.759V153.434C106.89 153.662 106.967 153.882 107.096 154.071C107.225 154.259 107.403 154.41 107.61 154.506H107.641L164.104 187.14L168.067 189.428C168.64 189.728 169.279 189.879 169.926 189.867V188.207C169.277 188.222 168.635 188.069 168.062 187.763L165.539 186.308L107.641 152.857C107.425 152.762 107.238 152.61 107.103 152.416C106.968 152.222 106.889 151.995 106.875 151.759Z" fill="black"/>
<path d="M216.68 144.895L167.714 172.785L102.59 135.417L151.556 107.517L216.68 144.895Z" fill="#F7921E"/>
<path opacity="0.2" d="M216.68 144.895L167.714 172.785L102.59 135.417L151.556 107.517L216.68 144.895Z" fill="white"/>
<path d="M167.264 171.078L214.856 143.838C213.861 141.019 213.937 137.709 215.061 133.976L167.734 160.987C167.734 160.987 166.989 163.367 167.264 171.078Z" fill="#F5F5F5"/>
<path d="M169.652 157.902C168.59 158.589 167.707 159.517 167.072 160.611C166.438 161.704 166.07 162.932 166 164.194V171.543C166 173.862 167.634 174.796 169.657 173.642L216.677 146.713V144.895L170.152 171.4C168.942 172.095 167.961 171.528 167.966 170.139L167.997 163.331C168.041 162.574 168.263 161.837 168.644 161.182C169.026 160.526 169.556 159.969 170.193 159.557L216.667 133.041V130.999L169.652 157.902Z" fill="#F7921E"/>
<path opacity="0.4" d="M169.652 157.902C168.59 158.589 167.707 159.517 167.072 160.611C166.438 161.704 166.07 162.932 166 164.194V171.543C166 173.862 167.634 174.796 169.657 173.642L216.677 146.713V144.895L170.152 171.4C168.942 172.095 167.961 171.528 167.966 170.139L167.997 163.331C168.041 162.574 168.263 161.837 168.644 161.182C169.026 160.526 169.556 159.969 170.193 159.557L216.667 133.041V130.999L169.652 157.902Z" fill="white"/>
<path d="M216.677 130.963L151.532 93.6104L104.547 120.534C103.485 121.22 102.6 122.148 101.964 123.242C101.329 124.335 100.961 125.563 100.891 126.826V134.175C100.891 135.329 101.299 136.141 101.963 136.524L167.082 173.898C166.419 173.515 166.015 172.702 166.01 171.548V164.194C166.08 162.932 166.448 161.703 167.084 160.61C167.719 159.516 168.604 158.589 169.667 157.902L216.677 130.963Z" fill="#F7921E"/>
<path opacity="0.85" d="M216.677 130.963L151.532 93.6104L104.547 120.534C103.485 121.22 102.6 122.148 101.964 123.242C101.329 124.335 100.961 125.563 100.891 126.826V134.175C100.891 135.329 101.299 136.141 101.963 136.524L167.082 173.898C166.419 173.515 166.015 172.702 166.01 171.548V164.194C166.08 162.932 166.448 161.703 167.084 160.61C167.719 159.516 168.604 158.589 169.667 157.902L216.677 130.963Z" fill="white"/>
<path d="M167.066 160.614C166.409 161.695 166.04 162.926 165.993 164.189V171.543C165.993 172.697 166.402 173.509 167.066 173.893L101.951 136.525C101.287 136.142 100.879 135.33 100.879 134.175V126.826C100.923 125.562 101.293 124.331 101.951 123.251L167.066 160.614Z" fill="#F7921E"/>
<path opacity="0.6" d="M167.066 160.614C166.409 161.695 166.04 162.926 165.993 164.189V171.543C165.993 172.697 166.402 173.509 167.066 173.893L101.951 136.525C101.287 136.142 100.879 135.33 100.879 134.175V126.826C100.923 125.562 101.293 124.331 101.951 123.251L167.066 160.614Z" fill="white"/>
<path d="M110.535 128.119C109.35 133.261 109.366 137.704 110.535 141.479L113.564 143.225C112.394 139.451 112.379 135.008 113.564 129.865L110.535 128.119Z" fill="white"/>
<path d="M153.787 153.091C152.602 158.234 152.623 162.677 153.787 166.451L156.811 168.198C155.646 164.424 155.631 159.981 156.811 154.838L153.787 153.091Z" fill="white"/>
<path d="M137.256 36.9578L61.9199 80.3912C61.508 80.6573 61.1649 81.0171 60.9188 81.4413C60.6727 81.8654 60.5305 82.3418 60.5039 82.8315V216.44C60.5309 216.929 60.6733 217.404 60.9194 217.826C61.1656 218.249 61.5085 218.607 61.9199 218.871L62.2078 219.036C62.6467 219.259 63.1318 219.375 63.6238 219.375C64.1158 219.375 64.6009 219.259 65.0398 219.036L140.366 175.542C140.777 175.274 141.119 174.914 141.365 174.49C141.611 174.067 141.754 173.591 141.782 173.101V39.5727C141.755 39.0837 141.613 38.6081 141.367 38.1848C141.121 37.7615 140.778 37.4025 140.366 37.1371L140.083 36.9767C139.647 36.7508 139.163 36.6313 138.672 36.628C138.18 36.6247 137.695 36.7377 137.256 36.9578Z" fill="#F7921E"/>
<path opacity="0.45" d="M137.256 36.9578L61.9199 80.3912C61.508 80.6573 61.1649 81.0171 60.9188 81.4413C60.6727 81.8654 60.5305 82.3418 60.5039 82.8315V216.44C60.5309 216.929 60.6733 217.404 60.9194 217.826C61.1656 218.249 61.5085 218.607 61.9199 218.871L62.2078 219.036C62.6467 219.259 63.1318 219.375 63.6238 219.375C64.1158 219.375 64.6009 219.259 65.0398 219.036L140.366 175.542C140.777 175.274 141.119 174.914 141.365 174.49C141.611 174.067 141.754 173.591 141.782 173.101V39.5727C141.755 39.0837 141.613 38.6081 141.367 38.1848C141.121 37.7615 140.778 37.4025 140.366 37.1371L140.083 36.9767C139.647 36.7508 139.163 36.6313 138.672 36.628C138.18 36.6247 137.695 36.7377 137.256 36.9578Z" fill="black"/>
<path d="M141.776 173.201C141.776 174.437 140.903 175.23 139.827 175.849L65.5814 218.711C64.5099 219.329 63.6367 218.829 63.6367 217.587V85.2198C63.636 84.5397 63.8145 83.8715 64.1542 83.2823C64.494 82.6932 64.983 82.2039 65.5719 81.8639L139.827 38.978C140.025 38.8648 140.249 38.8056 140.477 38.8062C140.705 38.8067 140.929 38.8672 141.126 38.9813C141.323 39.0955 141.487 39.2595 141.601 39.4569C141.716 39.6542 141.776 39.8781 141.776 40.1061V173.201Z" fill="#F7921E"/>
<path opacity="0.3" d="M141.776 173.201C141.776 174.437 140.903 175.23 139.827 175.849L65.5814 218.711C64.5099 219.329 63.6367 218.829 63.6367 217.587V85.2198C63.636 84.5397 63.8145 83.8715 64.1542 83.2823C64.494 82.6932 64.983 82.2039 65.5719 81.8639L139.827 38.978C140.025 38.8648 140.249 38.8056 140.477 38.8062C140.705 38.8067 140.929 38.8672 141.126 38.9813C141.323 39.0955 141.487 39.2595 141.601 39.4569C141.716 39.6542 141.776 39.8781 141.776 40.1061V173.201Z" fill="black"/>
<path d="M141.776 39.5725V40.1247C141.775 39.8965 141.714 39.6724 141.6 39.4751C141.485 39.2777 141.321 39.1139 141.123 39.0002C140.925 38.8864 140.7 38.8266 140.472 38.8269C140.244 38.8271 140.02 38.8873 139.822 39.0014L65.5717 81.8637C64.9809 82.1997 64.4917 82.6889 64.1557 83.2797C64.1539 83.2938 64.1539 83.3081 64.1557 83.3222L60.9414 81.4672C61.1706 81.0315 61.5068 80.6611 61.9184 80.3911L137.235 36.9671C137.674 36.7426 138.159 36.6255 138.651 36.6255C139.144 36.6255 139.629 36.7426 140.067 36.9671L140.355 37.1275C140.769 37.3936 141.113 37.7539 141.36 38.179C141.607 38.604 141.75 39.0816 141.776 39.5725Z" fill="#F7921E"/>
<path opacity="0.2" d="M141.776 39.5725V40.1247C141.775 39.8965 141.714 39.6724 141.6 39.4751C141.485 39.2777 141.321 39.1139 141.123 39.0002C140.925 38.8864 140.7 38.8266 140.472 38.8269C140.244 38.8271 140.02 38.8873 139.822 39.0014L65.5717 81.8637C64.9809 82.1997 64.4917 82.6889 64.1557 83.2797C64.1539 83.2938 64.1539 83.3081 64.1557 83.3222L60.9414 81.4672C61.1706 81.0315 61.5068 80.6611 61.9184 80.3911L137.235 36.9671C137.674 36.7426 138.159 36.6255 138.651 36.6255C139.144 36.6255 139.629 36.7426 140.067 36.9671L140.355 37.1275C140.769 37.3936 141.113 37.7539 141.36 38.179C141.607 38.604 141.75 39.0816 141.776 39.5725Z" fill="black"/>
<path opacity="0.25" d="M139.942 167.484C139.942 168.763 139.045 169.575 137.936 170.212L67.7638 210.738C66.6593 211.376 65.7578 210.861 65.7578 209.577V92.4032C65.7571 91.7019 65.9412 91.0128 66.2918 90.4054C66.6423 89.798 67.1468 89.2937 67.7544 88.9435L137.912 48.4081C138.116 48.2904 138.347 48.2285 138.583 48.2285C138.818 48.2285 139.049 48.2905 139.253 48.4082C139.457 48.5258 139.626 48.6951 139.744 48.8989C139.861 49.1027 139.923 49.3339 139.923 49.5692V167.484H139.942Z" fill="black"/>
<path d="M67.5526 90.4591L137.47 50.0936C137.656 50.0006 137.861 49.9521 138.069 49.9521C138.277 49.9521 138.483 50.0006 138.669 50.0936L139.344 50.4854C139.518 50.5982 139.663 50.7507 139.767 50.9303C139.872 51.11 139.932 51.3117 139.943 51.5191V169.264C139.933 169.476 139.872 169.682 139.765 169.866C139.659 170.049 139.509 170.204 139.33 170.317L69.4264 210.668C69.2403 210.761 69.0351 210.81 68.827 210.81C68.6189 210.81 68.4136 210.761 68.2275 210.668L67.5526 210.276C67.3784 210.162 67.2334 210.009 67.1293 209.828C67.0252 209.648 66.9648 209.446 66.9531 209.238V91.4928C66.9656 91.2857 67.0263 91.0843 67.1303 90.9049C67.2344 90.7254 67.379 90.5727 67.5526 90.4591Z" fill="#F5F5F5"/>
<path d="M69.284 210.729C69.2122 210.757 69.1379 210.777 69.0622 210.79H68.9442C68.8234 210.804 68.7015 210.804 68.5807 210.79C68.505 210.777 68.4307 210.757 68.3589 210.729L68.2267 210.668L67.5565 210.281C67.3815 210.167 67.2359 210.014 67.1317 209.834C67.0275 209.653 66.9676 209.45 66.957 209.242V91.4923C66.9607 91.2835 67.021 91.0795 67.1317 90.9023L69.0197 91.9785C68.9145 92.1581 68.8546 92.3606 68.845 92.5685V210.318C68.8262 210.649 69.0008 210.809 69.284 210.729Z" fill="#E0E0E0"/>
<path d="M139.33 50.4854L138.655 50.0936C138.469 50.0006 138.263 49.9521 138.055 49.9521C137.847 49.9521 137.642 50.0006 137.456 50.0936L67.5526 90.4591C67.3784 90.5732 67.2334 90.7266 67.1293 90.907C67.0252 91.0873 66.9648 91.2896 66.9531 91.4975V111.161L68.8411 112.251L139.943 71.1968V51.5191C139.93 51.3105 139.868 51.1079 139.761 50.9281C139.655 50.7484 139.507 50.5966 139.33 50.4854Z" fill="#F7921E"/>
<path opacity="0.4" d="M139.33 50.4854L138.655 50.0936C138.469 50.0006 138.263 49.9521 138.055 49.9521C137.847 49.9521 137.642 50.0006 137.456 50.0936L67.5526 90.4591C67.3784 90.5732 67.2334 90.7266 67.1293 90.907C67.0252 91.0873 66.9648 91.2896 66.9531 91.4975V111.161L68.8411 112.251L139.943 71.1968V51.5191C139.93 51.3105 139.868 51.1079 139.761 50.9281C139.655 50.7484 139.507 50.5966 139.33 50.4854Z" fill="white"/>
<path d="M139.919 51.3397C139.844 51.0942 139.617 51.0187 139.343 51.1745L69.4261 91.5399C69.2464 91.6582 69.1001 91.8208 69.0013 92.0119L67.1133 90.931C67.2113 90.7468 67.3583 90.5933 67.5381 90.4873L137.474 50.0936C137.658 49.9984 137.862 49.9487 138.069 49.9487C138.276 49.9487 138.48 49.9984 138.664 50.0936L139.343 50.4806C139.641 50.6799 139.848 50.9886 139.919 51.3397Z" fill="#F7921E"/>
<path opacity="0.6" d="M139.919 51.3397C139.844 51.0942 139.617 51.0187 139.343 51.1745L69.4261 91.5399C69.2464 91.6582 69.1001 91.8208 69.0013 92.0119L67.1133 90.931C67.2113 90.7468 67.3583 90.5933 67.5381 90.4873L137.474 50.0936C137.658 49.9984 137.862 49.9487 138.069 49.9487C138.276 49.9487 138.48 49.9984 138.664 50.0936L139.343 50.4806C139.641 50.6799 139.848 50.9886 139.919 51.3397Z" fill="white"/>
<path d="M66.957 91.493V111.166L68.845 112.247V92.5786C68.8546 92.3707 68.9145 92.1682 69.0197 91.9886L67.1317 90.9077C67.0225 91.0838 66.9622 91.2859 66.957 91.493Z" fill="#F7921E"/>
<path d="M73.3254 127.137C73.2758 127.136 73.2273 127.123 73.1838 127.099C73.1419 127.074 73.1073 127.038 73.0833 126.995C73.0594 126.952 73.0468 126.903 73.0469 126.854V117.494C73.0468 117.445 73.0594 117.397 73.0833 117.354C73.1073 117.311 73.1419 117.275 73.1838 117.249L81.2314 112.604C81.2744 112.579 81.3233 112.566 81.373 112.566C81.4227 112.566 81.4716 112.58 81.5146 112.604C81.5577 112.629 81.5934 112.665 81.6183 112.708C81.6431 112.751 81.6562 112.8 81.6562 112.85V122.21C81.6568 122.259 81.644 122.307 81.619 122.35C81.5941 122.392 81.5579 122.427 81.5146 122.45L73.4906 127.099C73.4405 127.128 73.383 127.142 73.3254 127.137ZM73.6086 117.659V126.363L81.0898 122.044V113.336L73.6086 117.659Z" fill="#455A64"/>
<path d="M86.6016 111.005V111.652C86.6016 112.001 86.8517 112.124 87.1538 111.968L114.412 96.2125C114.57 96.1089 114.703 95.9695 114.798 95.8055C114.893 95.6416 114.948 95.4577 114.959 95.2685V94.6171C114.959 94.2679 114.714 94.1451 114.412 94.3009L87.1538 110.052C86.9938 110.156 86.8605 110.297 86.7647 110.463C86.6688 110.628 86.6129 110.814 86.6016 111.005Z" fill="#E0E0E0"/>
<path d="M86.6016 115.092V115.739C86.6016 116.088 86.8517 116.211 87.1538 116.055L135.35 88.2071C135.51 88.1046 135.643 87.9655 135.739 87.8015C135.835 87.6374 135.891 87.4529 135.902 87.2631V86.6118C135.902 86.2625 135.657 86.1398 135.35 86.2955L87.1538 114.148C86.9945 114.252 86.8616 114.391 86.7657 114.555C86.6699 114.719 86.6136 114.903 86.6016 115.092Z" fill="#E0E0E0"/>
<path d="M86.6016 118.957V119.604C86.6016 119.953 86.8517 120.076 87.1538 119.92L135.35 92.0724C135.51 91.9698 135.643 91.8308 135.739 91.6667C135.835 91.5026 135.891 91.3181 135.902 91.1284V90.477C135.902 90.1277 135.657 90.005 135.35 90.1608L87.1538 118.009C86.9947 118.113 86.862 118.254 86.7662 118.418C86.6703 118.583 86.614 118.767 86.6016 118.957Z" fill="#E0E0E0"/>
<path d="M77.2519 122.762L75.3828 120.959L76.0059 119.633L77.0726 120.657L81.684 110.896L82.4911 111.67L77.2519 122.762Z" fill="#F7921E"/>
<path d="M73.3254 144.389C73.2758 144.388 73.2273 144.375 73.1838 144.351C73.1419 144.326 73.1073 144.29 73.0833 144.247C73.0594 144.204 73.0468 144.155 73.0469 144.106V134.746C73.0468 134.697 73.0594 134.649 73.0833 134.606C73.1073 134.563 73.1419 134.527 73.1838 134.501L81.2314 129.856C81.2744 129.831 81.3233 129.818 81.373 129.818C81.4227 129.818 81.4716 129.831 81.5146 129.856C81.5577 129.881 81.5934 129.917 81.6183 129.96C81.6431 130.003 81.6562 130.052 81.6562 130.102V139.457C81.6572 139.507 81.6445 139.556 81.6196 139.599C81.5946 139.643 81.5583 139.678 81.5146 139.702L73.4906 144.351C73.4405 144.38 73.383 144.393 73.3254 144.389ZM73.6086 134.911V143.615L81.0898 139.296V130.588L73.6086 134.911Z" fill="#455A64"/>
<path d="M86.6016 128.256V128.903C86.6016 129.252 86.8517 129.375 87.1538 129.219L114.412 113.483C114.57 113.379 114.703 113.24 114.798 113.076C114.893 112.912 114.948 112.728 114.959 112.539V111.883C114.959 111.533 114.714 111.411 114.412 111.567L87.1538 127.303C86.9933 127.407 86.8596 127.548 86.7637 127.714C86.6677 127.879 86.6122 128.065 86.6016 128.256Z" fill="#E0E0E0"/>
<path d="M86.6016 132.33V132.976C86.6016 133.325 86.8517 133.448 87.1538 133.292L135.35 105.444C135.51 105.342 135.643 105.203 135.739 105.039C135.835 104.875 135.891 104.69 135.902 104.5V103.849C135.902 103.5 135.657 103.377 135.35 103.533L87.1538 131.381C86.9939 131.485 86.8606 131.625 86.7647 131.789C86.6688 131.954 86.6129 132.139 86.6016 132.33Z" fill="#E0E0E0"/>
<path d="M86.6016 136.21V136.856C86.6016 137.206 86.8517 137.328 87.1538 137.172L135.35 109.324C135.51 109.222 135.643 109.083 135.739 108.919C135.835 108.755 135.891 108.57 135.902 108.38V107.734C135.902 107.385 135.657 107.262 135.35 107.418L87.1538 135.266C86.995 135.37 86.8625 135.509 86.7667 135.673C86.6709 135.836 86.6144 136.02 86.6016 136.21Z" fill="#E0E0E0"/>
<path d="M77.2519 140.014L75.3828 138.211L76.0059 136.884L77.0726 137.908L81.684 128.147L82.4911 128.922L77.2519 140.014Z" fill="#F7921E"/>
<path d="M73.3254 162.075C73.2758 162.073 73.2273 162.06 73.1838 162.037C73.1419 162.011 73.1073 161.975 73.0833 161.932C73.0594 161.889 73.0468 161.841 73.0469 161.792V152.432C73.0468 152.383 73.0594 152.334 73.0833 152.291C73.1073 152.248 73.1419 152.212 73.1838 152.186L81.2314 147.542C81.2744 147.517 81.3233 147.504 81.373 147.504C81.4227 147.504 81.4716 147.517 81.5146 147.542C81.5577 147.567 81.5934 147.603 81.6183 147.646C81.6431 147.689 81.6562 147.738 81.6562 147.787V157.142C81.6572 157.192 81.6445 157.242 81.6196 157.285C81.5946 157.328 81.5583 157.364 81.5146 157.388L73.4906 162.037C73.4405 162.066 73.383 162.079 73.3254 162.075ZM73.6086 152.597V161.301L81.0898 156.982V148.273L73.6086 152.597Z" fill="#455A64"/>
<path d="M86.6016 145.942V146.589C86.6016 146.938 86.8517 147.061 87.1538 146.905L114.412 131.169C114.57 131.065 114.703 130.926 114.798 130.762C114.893 130.598 114.948 130.414 114.959 130.225V129.573C114.959 129.224 114.714 129.101 114.412 129.257L87.1538 144.989C86.9933 145.093 86.8596 145.234 86.7637 145.399C86.6677 145.565 86.6122 145.751 86.6016 145.942Z" fill="#E0E0E0"/>
<path d="M86.6016 150.02V150.667C86.6016 151.016 86.8517 151.139 87.1538 150.983L135.35 123.135C135.51 123.033 135.643 122.894 135.739 122.73C135.835 122.566 135.891 122.381 135.902 122.191V121.54C135.902 121.191 135.657 121.068 135.35 121.224L87.1538 149.076C86.9945 149.18 86.8616 149.319 86.7657 149.483C86.6699 149.647 86.6136 149.831 86.6016 150.02Z" fill="#E0E0E0"/>
<path d="M86.6016 153.895V154.542C86.6016 154.891 86.8517 155.014 87.1538 154.858L135.35 127.01C135.51 126.907 135.643 126.768 135.739 126.604C135.835 126.44 135.891 126.256 135.902 126.066V125.429C135.902 125.079 135.657 124.957 135.35 125.112L87.1538 152.96C86.9962 153.063 86.8645 153.201 86.7687 153.363C86.673 153.525 86.6158 153.707 86.6016 153.895Z" fill="#E0E0E0"/>
<path d="M77.2519 157.7L75.3828 155.897L76.0059 154.57L77.0726 155.594L81.684 145.833L82.4911 146.608L77.2519 157.7Z" fill="#F7921E"/>
<path d="M73.3254 179.756C73.2758 179.755 73.2273 179.742 73.1838 179.718C73.1419 179.692 73.1073 179.656 73.0833 179.613C73.0594 179.57 73.0468 179.522 73.0469 179.473V170.118C73.0468 170.069 73.0594 170.02 73.0833 169.977C73.1073 169.934 73.1419 169.898 73.1838 169.872L81.2314 165.228C81.2744 165.203 81.3233 165.19 81.373 165.19C81.4227 165.19 81.4716 165.203 81.5146 165.228C81.5577 165.253 81.5934 165.289 81.6183 165.332C81.6431 165.375 81.6562 165.424 81.6562 165.473V174.828C81.6572 174.878 81.6445 174.928 81.6196 174.971C81.5946 175.014 81.5583 175.05 81.5146 175.074L73.4906 179.723C73.44 179.75 73.3825 179.762 73.3254 179.756ZM73.6086 170.278V178.982L81.0898 174.663V165.959L73.6086 170.278Z" fill="#455A64"/>
<path d="M86.6016 163.628V164.274C86.6016 164.624 86.8517 164.746 87.1538 164.591L114.412 148.854C114.57 148.75 114.703 148.611 114.798 148.447C114.893 148.283 114.948 148.099 114.959 147.91V147.259C114.959 146.909 114.714 146.787 114.412 146.943L87.1538 162.674C86.9938 162.779 86.8605 162.92 86.7647 163.086C86.6688 163.251 86.6129 163.437 86.6016 163.628Z" fill="#E0E0E0"/>
<path d="M86.6016 167.701V168.348C86.6016 168.697 86.8517 168.82 87.1538 168.664L135.35 140.816C135.51 140.713 135.643 140.574 135.739 140.41C135.835 140.246 135.891 140.062 135.902 139.872V139.221C135.902 138.871 135.657 138.749 135.35 138.904L87.1538 166.752C86.9939 166.856 86.8606 166.996 86.7647 167.161C86.6688 167.326 86.6129 167.511 86.6016 167.701Z" fill="#E0E0E0"/>
<path d="M86.6016 171.581V172.228C86.6016 172.577 86.8517 172.7 87.1538 172.544L135.35 144.696C135.51 144.594 135.643 144.454 135.739 144.29C135.835 144.126 135.891 143.942 135.902 143.752V143.105C135.902 142.756 135.657 142.633 135.35 142.789L87.1538 170.637C86.995 170.741 86.8625 170.88 86.7667 171.044C86.6709 171.208 86.6144 171.392 86.6016 171.581Z" fill="#E0E0E0"/>
<path d="M73.3254 197.446C73.2758 197.445 73.2273 197.432 73.1838 197.409C73.1419 197.383 73.1073 197.347 73.0833 197.304C73.0594 197.261 73.0468 197.212 73.0469 197.163V187.803C73.0468 187.754 73.0594 187.706 73.0833 187.663C73.1073 187.62 73.1419 187.584 73.1838 187.558L81.2314 182.913C81.2744 182.889 81.3233 182.875 81.373 182.875C81.4227 182.875 81.4716 182.889 81.5146 182.913C81.5577 182.938 81.5934 182.974 81.6183 183.017C81.6431 183.06 81.6562 183.109 81.6562 183.159V192.5C81.6572 192.55 81.6445 192.599 81.6196 192.642C81.5946 192.685 81.5583 192.721 81.5146 192.745L73.4906 197.394C73.4421 197.428 73.3844 197.446 73.3254 197.446ZM73.6086 187.969V196.672L81.0898 192.353V183.645L73.6086 187.969Z" fill="#455A64"/>
<path d="M86.6016 181.314V181.96C86.6016 182.31 86.8517 182.432 87.1538 182.277L114.412 166.54C114.57 166.436 114.703 166.297 114.798 166.133C114.893 165.969 114.948 165.785 114.959 165.596V164.945C114.959 164.595 114.714 164.473 114.412 164.629L87.1538 180.36C86.9938 180.465 86.8605 180.606 86.7647 180.772C86.6688 180.937 86.6129 181.123 86.6016 181.314Z" fill="#E0E0E0"/>
<path d="M86.6016 185.387V186.034C86.6016 186.383 86.8517 186.506 87.1538 186.35L135.35 158.502C135.51 158.399 135.643 158.26 135.739 158.096C135.835 157.932 135.891 157.748 135.902 157.558V156.907C135.902 156.557 135.657 156.435 135.35 156.59L87.1538 184.438C86.9939 184.542 86.8606 184.682 86.7647 184.847C86.6688 185.012 86.6129 185.197 86.6016 185.387Z" fill="#E0E0E0"/>
<path d="M86.6016 189.267V189.913C86.6016 190.263 86.8517 190.385 87.1538 190.23L135.35 162.382C135.51 162.279 135.643 162.14 135.739 161.976C135.835 161.812 135.891 161.627 135.902 161.438V160.791C135.902 160.442 135.657 160.319 135.35 160.475L87.1538 188.323C86.995 188.427 86.8625 188.566 86.7667 188.73C86.6709 188.894 86.6144 189.077 86.6016 189.267Z" fill="#E0E0E0"/>
<path d="M74.1029 98.2937L98.5808 84.1337C98.9348 83.9307 99.218 84.0959 99.218 84.5018V84.6906C99.2055 84.9117 99.1414 85.1268 99.0307 85.3187C98.9201 85.5105 98.766 85.6737 98.5808 85.7951L74.1029 99.9551C73.7489 100.158 73.4609 99.9929 73.4609 99.5869V99.3982C73.4739 99.1766 73.5388 98.9613 73.6503 98.7694C73.7618 98.5776 73.9168 98.4146 74.1029 98.2937Z" fill="#FAFAFA"/>
<path d="M74.1029 101.64L88.6688 93.2288C89.0228 93.0258 89.306 93.191 89.306 93.6017V93.7857C89.2943 94.0077 89.2305 94.2237 89.1198 94.4164C89.0091 94.6091 88.8546 94.773 88.6688 94.8949L74.1029 103.292C73.7489 103.499 73.4609 103.334 73.4609 102.924V102.735C73.4754 102.515 73.5409 102.301 73.6523 102.111C73.7638 101.921 73.918 101.76 74.1029 101.64Z" fill="#FAFAFA"/>
<path d="M123.078 69.8037L133.967 63.5119C134.142 63.4081 134.283 63.5119 134.283 63.696V64.1161C134.278 64.2259 134.246 64.3327 134.191 64.4279C134.136 64.5231 134.059 64.6039 133.967 64.6636L123.078 70.9553C122.903 71.0592 122.762 70.9553 122.762 70.776V70.3606C122.767 70.2494 122.798 70.1409 122.853 70.0441C122.908 69.9472 122.985 69.8648 123.078 69.8037Z" fill="#F7921E"/>
<path d="M123.078 74.8208L133.967 68.529C134.142 68.4252 134.283 68.529 134.283 68.7131V69.1237C134.278 69.2341 134.246 69.3417 134.191 69.4377C134.136 69.5336 134.059 69.6152 133.967 69.676L123.078 75.9677C122.903 76.0716 122.762 75.9677 122.762 75.7836V75.373C122.767 75.2626 122.799 75.155 122.854 75.0591C122.909 74.9631 122.986 74.8815 123.078 74.8208Z" fill="#F7921E"/>
<path d="M125.324 71.0026L133.966 66.0041C134.141 65.9003 134.283 66.0041 134.283 66.1882V66.5988C134.277 66.7092 134.245 66.8168 134.191 66.9127C134.136 67.0087 134.059 67.0903 133.966 67.1511L125.324 72.1401C125.149 72.2439 125.008 72.1401 125.008 71.956V71.5454C125.015 71.4366 125.047 71.3309 125.102 71.2367C125.157 71.1425 125.233 71.0623 125.324 71.0026Z" fill="#F7921E"/>
<path opacity="0.25" d="M123.753 55.1487V61.1573C123.713 61.9765 123.478 62.7743 123.067 63.4844C122.657 64.1945 122.083 64.7964 121.393 65.2401L109.777 71.9519C109.201 72.287 108.871 72.9478 108.526 73.6464C108.292 74.1739 107.991 74.6689 107.629 75.119C106.723 76.1433 104.755 77.21 103.381 77.6537C102.92 77.8032 102.446 77.9106 101.965 77.9746C101.791 78.0077 101.597 78.0313 101.394 78.0549C100.125 78.2248 98.5624 78.4419 97.6184 78.9753L84.0012 86.8341C83.6452 87.0569 83.2362 87.1807 82.8165 87.1928C82.537 87.1946 82.2619 87.123 82.0188 86.9851C81.7284 86.791 81.4952 86.5228 81.3433 86.2083C81.1914 85.8937 81.1264 85.5443 81.155 85.1962V79.1829C81.1947 78.3643 81.4297 77.567 81.8402 76.8576C82.2508 76.1481 82.825 75.5472 83.515 75.1049L88.0887 72.4617L88.1501 72.4381C88.2585 72.3906 88.3807 72.3857 88.4926 72.4241C88.6045 72.4626 88.6979 72.5417 88.7542 72.6457C88.8131 72.7463 88.8326 72.8652 88.8091 72.9793C88.7856 73.0935 88.7206 73.1949 88.6268 73.2641C88.613 73.282 88.5952 73.2966 88.5749 73.3065L84.0012 75.9497C83.4584 76.3065 83.0055 76.784 82.678 77.3449C82.3505 77.9058 82.1571 78.5349 82.1132 79.1829V85.1962C82.063 85.3726 82.0733 85.5607 82.1424 85.7306C82.2115 85.9004 82.3355 86.0423 82.4946 86.1335C82.6537 86.2247 82.8387 86.2601 83.0202 86.2339C83.2017 86.2078 83.3693 86.1216 83.4961 85.9892L97.1133 78.1257C98.2036 77.4979 99.8934 77.2666 101.243 77.0873L101.81 77.0117C102.231 76.9497 102.646 76.8534 103.051 76.7238C104.288 76.3321 106.119 75.3078 106.879 74.4724C107.183 74.0859 107.437 73.6624 107.634 73.2121C108.031 72.4145 108.437 71.5885 109.267 71.1117L120.921 64.3952C121.464 64.0374 121.917 63.559 122.244 62.9973C122.572 62.4357 122.765 61.8059 122.809 61.1573V55.1487C122.891 54.9632 122.9 54.7539 122.836 54.5617C122.772 54.3694 122.639 54.2078 122.462 54.1083C122.286 54.0088 122.079 53.9786 121.881 54.0234C121.683 54.0683 121.509 54.1851 121.393 54.351L117.428 56.6402C117.304 56.3442 117.146 56.0639 116.956 55.8048L120.921 53.5109C121.198 53.2927 121.534 53.1626 121.885 53.1373C122.236 53.1121 122.587 53.1929 122.892 53.3693C123.198 53.5457 123.443 53.8096 123.596 54.1269C123.749 54.4441 123.804 54.8 123.753 55.1487Z" fill="black"/>
<path d="M115.282 55.2574C115.479 55.1651 115.696 55.1274 115.912 55.1481C116.128 55.1689 116.334 55.2474 116.509 55.3754C117.014 55.7019 117.434 56.1433 117.735 56.6635C118.036 57.1836 118.21 57.7677 118.242 58.3679C118.264 58.5841 118.229 58.8024 118.138 59C118.048 59.1976 117.906 59.3673 117.727 59.4913L90.1246 75.4449L87.6797 71.1969L115.282 55.2574Z" fill="#37474F"/>
<path d="M88.9049 73.3255L117.735 56.678C117.446 56.1457 117.023 55.6982 116.507 55.38C116.451 55.347 116.399 55.3281 116.342 55.2998L87.9609 71.6924L88.9049 73.3255Z" fill="#455A64"/>
<path d="M88.9072 71.3199C87.9632 70.7676 87.1797 71.2113 87.1797 72.3158C87.2121 72.9159 87.3854 73.5 87.6856 74.0207C87.9857 74.5414 88.4042 74.9841 88.9072 75.313C89.8512 75.8605 90.6347 75.4168 90.6347 74.3124C90.603 73.7127 90.43 73.129 90.1298 72.609C89.8296 72.0889 89.4107 71.6472 88.9072 71.3199Z" fill="#263238"/>
<path d="M124.26 55.5784V61.587C124.221 62.4058 123.986 63.2034 123.576 63.913C123.165 64.6225 122.59 65.2233 121.9 65.6651L110.265 72.3816C109.689 72.712 109.363 73.3775 109.019 74.0761C108.784 74.6016 108.482 75.0949 108.122 75.544C107.216 76.5683 105.248 77.6397 103.874 78.0834C103.413 78.2329 102.939 78.3404 102.458 78.4043L101.887 78.4846C100.617 78.6545 99.0549 78.8669 98.1109 79.405L84.4937 87.2449C84.1363 87.4638 83.728 87.5859 83.309 87.5989C83.0299 87.6024 82.7548 87.5324 82.5113 87.3959C82.2202 87.2015 81.9865 86.9325 81.8346 86.6171C81.6827 86.3016 81.6181 85.9512 81.6476 85.6023V79.6127C81.6873 78.7934 81.9222 77.9954 82.3327 77.2852C82.7432 76.5751 83.3175 75.9732 84.0076 75.5299L88.5813 72.8914H88.6426C88.6968 72.8604 88.7567 72.8404 88.8186 72.8325C88.8806 72.8246 88.9435 72.829 89.0038 72.8455C89.064 72.8619 89.1205 72.8901 89.1699 72.9283C89.2192 72.9665 89.2606 73.0141 89.2916 73.0684C89.3226 73.1226 89.3426 73.1824 89.3505 73.2444C89.3584 73.3064 89.354 73.3693 89.3375 73.4295C89.3211 73.4898 89.2929 73.5462 89.2547 73.5956C89.2164 73.645 89.1688 73.6864 89.1146 73.7174C89.1008 73.7354 89.0831 73.7499 89.0627 73.7599L84.4937 76.3889C83.9509 76.7467 83.498 77.2251 83.1705 77.7867C82.843 78.3484 82.6497 78.9781 82.6057 79.6268V85.6354C82.5538 85.8121 82.5628 86.0012 82.6313 86.1723C82.6997 86.3433 82.8238 86.4863 82.9833 86.5784C83.1429 86.6704 83.3288 86.7062 83.5112 86.6798C83.6935 86.6534 83.8617 86.5665 83.9887 86.4331L97.6059 78.5695C98.6962 77.9418 100.386 77.7105 101.736 77.5311C101.939 77.5311 102.128 77.4745 102.302 77.4509C102.724 77.3911 103.139 77.2948 103.544 77.163C104.776 76.7759 106.612 75.7753 107.367 74.9163C107.672 74.5297 107.927 74.1063 108.127 73.656C108.519 72.8536 108.929 72.0323 109.76 71.5509L121.395 64.8202C121.937 64.4634 122.39 63.9859 122.718 63.425C123.045 62.8641 123.239 62.235 123.283 61.587V55.5784C123.335 55.4017 123.326 55.2126 123.257 55.0415C123.189 54.8705 123.065 54.7275 122.905 54.6354C122.745 54.5434 122.56 54.5077 122.377 54.534C122.195 54.5604 122.027 54.6473 121.9 54.7807L117.94 57.0699C117.807 56.7708 117.639 56.4887 117.439 56.2298L121.395 53.9359C121.672 53.7197 122.008 53.5915 122.359 53.5676C122.71 53.5437 123.06 53.6252 123.365 53.8017C123.669 53.9783 123.914 54.2417 124.067 54.5583C124.221 54.8749 124.276 55.2301 124.227 55.5784H124.26Z" fill="#455A64"/>
</svg>
