<svg xmlns="http://www.w3.org/2000/svg" width="256" height="256" fill="none"><path stroke="#D5D5D5" d="M46.56 204.522C24.086 192.754 13 177.407 13 162.19s11.084-30.568 33.56-42.341c22.464-11.767 51.94-17.663 81.442-17.663 29.503 0 58.977 5.896 81.439 17.663 22.473 11.773 33.558 27.122 33.559 42.337.001 15.214-11.083 30.563-33.559 42.336-22.465 11.767-51.939 17.664-81.441 17.664s-58.976-5.897-81.44-17.664Z" style="stroke:#d5d5d5;stroke:color(display-p3 .8353 .8353 .8353);stroke-opacity:1"/><path fill="#263238" d="M62.63 173.049v4.255c.045.255.133.501.26.727l3.825 6.615a9.86 9.86 0 0 0 3.072 3.072l32.481 18.765a4.32 4.32 0 0 0 3.881 0l29.44-17.004a1.36 1.36 0 0 0 .804-1.121v-3.497a1.37 1.37 0 0 0-.804-1.116l-32.496-18.78a9.9 9.9 0 0 1-3.072-3.072l-3.82-6.62a2.23 2.23 0 0 0-1.365-1.05 2.24 2.24 0 0 0-1.707.23l-29.42 17.014a2.24 2.24 0 0 0-1.08 1.582" style="fill:#263238;fill:color(display-p3 .149 .1961 .2196);fill-opacity:1"/><path fill="#37474F" d="m104.183 165.595 31.396 18.16c.221.098.412.253.553.45.142.196.228.426.251.667v3.491a1.36 1.36 0 0 1-.804 1.122l-29.44 17.003a4.06 4.06 0 0 1-1.956.461z" style="fill:#37474f;fill:color(display-p3 .2157 .2784 .3098);fill-opacity:1"/><path fill="#455A64" d="M62.63 173.807c.046.255.134.501.26.727l.425.737 3.4 5.878a9.86 9.86 0 0 0 3.072 3.072l32.481 18.76a4.3 4.3 0 0 0 3.881 0l28.35-16.384 1.09-.63a1.181 1.181 0 0 0 0-2.237l-32.496-18.765a9.9 9.9 0 0 1-3.072-3.072l-3.82-6.62a2.23 2.23 0 0 0-1.365-1.05 2.23 2.23 0 0 0-1.707.23l-29.42 17.014a2.25 2.25 0 0 0-1.08 1.577c-.041.253-.041.51 0 .763" style="fill:#455a64;fill:color(display-p3 .2706 .3529 .3922);fill-opacity:1"/><path fill="#F7921E" d="m96.652 162.656-2.207-3.651a1.534 1.534 0 0 0-2.048-.512L67.72 172.742a1.47 1.47 0 0 0-.694.915 1.46 1.46 0 0 0 .182 1.133l2.206 3.651a1.534 1.534 0 0 0 2.048.512l24.679-14.249a1.454 1.454 0 0 0 .512-2.048" style="fill:#f7921e;fill:color(display-p3 .9686 .5725 .1176);fill-opacity:1"/><path fill="#fff" d="m96.652 162.656-2.207-3.651a1.534 1.534 0 0 0-2.048-.512L67.72 172.742a1.47 1.47 0 0 0-.694.915 1.46 1.46 0 0 0 .182 1.133l2.206 3.651a1.534 1.534 0 0 0 2.048.512l24.679-14.249a1.454 1.454 0 0 0 .512-2.048" opacity=".75" style="fill:#fff;fill-opacity:1"/><path fill="#F7921E" d="m81.932 182.665-3.072 1.781a1.33 1.33 0 0 1-1.229 0l-1.654-.952a.394.394 0 0 1-.236-.343v-.886a.42.42 0 0 1 .236-.343l3.072-1.782a1.38 1.38 0 0 1 1.229 0l1.649.953a.41.41 0 0 1 .24.338v.891a.42.42 0 0 1-.235.343" style="fill:#f7921e;fill:color(display-p3 .9686 .5725 .1176);fill-opacity:1"/><path fill="#000" d="m81.932 182.665-3.072 1.781a1.33 1.33 0 0 1-1.229 0l-1.654-.952a.394.394 0 0 1-.236-.343v-.886a.42.42 0 0 1 .236-.343l3.072-1.782a1.38 1.38 0 0 1 1.229 0l1.649.953a.41.41 0 0 1 .24.338v.891a.42.42 0 0 1-.235.343" opacity=".2" style="fill:#000;fill-opacity:1"/><path fill="#F7921E" d="m79.054 180.14-3.072 1.782a.38.38 0 0 0 0 .712l1.654.952a1.37 1.37 0 0 0 1.229 0l3.072-1.787a.372.372 0 0 0 0-.706l-1.649-.953a1.38 1.38 0 0 0-1.234 0" style="fill:#f7921e;fill:color(display-p3 .9686 .5725 .1176);fill-opacity:1"/><path fill="#000" d="M82.172 181.543v.779a.41.41 0 0 1-.24.343l-3.072 1.782c-.188.104-.4.155-.615.148v-.84c.214.006.425-.044.615-.143l3.072-1.787a.5.5 0 0 0 .24-.282" opacity=".1" style="fill:#000;fill-opacity:1"/><path fill="#F7921E" d="m89.125 178.512-3.072 1.782a1.37 1.37 0 0 1-1.228 0l-1.65-.952a.42.42 0 0 1-.24-.343v-.876a.41.41 0 0 1 .24-.338l3.073-1.781a1.33 1.33 0 0 1 1.229 0l1.648.952a.4.4 0 0 1 .24.338v.891a.4.4 0 0 1-.24.327" style="fill:#f7921e;fill:color(display-p3 .9686 .5725 .1176);fill-opacity:1"/><path fill="#000" d="m89.125 178.512-3.072 1.782a1.37 1.37 0 0 1-1.228 0l-1.65-.952a.42.42 0 0 1-.24-.343v-.876a.41.41 0 0 1 .24-.338l3.073-1.781a1.33 1.33 0 0 1 1.229 0l1.648.952a.4.4 0 0 1 .24.338v.891a.4.4 0 0 1-.24.327" opacity=".2" style="fill:#000;fill-opacity:1"/><path fill="#F7921E" d="m86.248 175.988-3.072 1.782a.372.372 0 0 0 0 .706l1.649.958a1.37 1.37 0 0 0 1.228 0l3.072-1.787a.369.369 0 0 0 0-.707l-1.648-.952a1.34 1.34 0 0 0-1.23 0" style="fill:#f7921e;fill:color(display-p3 .9686 .5725 .1176);fill-opacity:1"/><path fill="#000" d="M89.366 177.386v.778a.42.42 0 0 1-.24.348l-3.073 1.782c-.188.101-.4.152-.614.148v-.865c.214.006.426-.045.614-.148l3.072-1.782a.5.5 0 0 0 .241-.261" opacity=".1" style="fill:#000;fill-opacity:1"/><path fill="#F7921E" d="m96.34 174.355-3.073 1.787a1.37 1.37 0 0 1-1.228 0l-1.649-.952a.41.41 0 0 1-.24-.343v-.891a.4.4 0 0 1 .24-.338l3.072-1.787a1.37 1.37 0 0 1 1.229 0l1.648.957a.415.415 0 0 1 .24.338v.901a.41.41 0 0 1-.24.328" style="fill:#f7921e;fill:color(display-p3 .9686 .5725 .1176);fill-opacity:1"/><path fill="#000" d="m96.34 174.355-3.073 1.787a1.37 1.37 0 0 1-1.228 0l-1.649-.952a.41.41 0 0 1-.24-.343v-.891a.4.4 0 0 1 .24-.338l3.072-1.787a1.37 1.37 0 0 1 1.229 0l1.648.957a.415.415 0 0 1 .24.338v.901a.41.41 0 0 1-.24.328" opacity=".2" style="fill:#000;fill-opacity:1"/><path fill="#F7921E" d="m93.447 171.831-3.072 1.787a.367.367 0 0 0 0 .706l1.648.953a1.34 1.34 0 0 0 1.23 0l3.071-1.782a.373.373 0 0 0 0-.707l-1.648-.957a1.37 1.37 0 0 0-1.23 0" style="fill:#f7921e;fill:color(display-p3 .9686 .5725 .1176);fill-opacity:1"/><path fill="#000" d="M96.565 173.233v.794a.42.42 0 0 1-.24.348l-3.073 1.782c-.189.101-.4.15-.614.143v-.86c.214.007.426-.044.614-.148l3.072-1.782a.5.5 0 0 0 .24-.277" opacity=".1" style="fill:#000;fill-opacity:1"/><path fill="#F7921E" d="m103.507 170.203-3.072 1.776a1.35 1.35 0 0 1-1.223 0l-1.654-.957a.4.4 0 0 1-.24-.338v-.891a.42.42 0 0 1 .24-.338l3.072-1.787a1.36 1.36 0 0 1 1.224 0l1.653.953a.4.4 0 0 1 .236.337v.891a.4.4 0 0 1-.236.354" style="fill:#f7921e;fill:color(display-p3 .9686 .5725 .1176);fill-opacity:1"/><path fill="#000" d="m103.507 170.203-3.072 1.776a1.35 1.35 0 0 1-1.223 0l-1.654-.957a.4.4 0 0 1-.24-.338v-.891a.42.42 0 0 1 .24-.338l3.072-1.787a1.36 1.36 0 0 1 1.224 0l1.653.953a.4.4 0 0 1 .236.337v.891a.4.4 0 0 1-.236.354" opacity=".2" style="fill:#000;fill-opacity:1"/><path fill="#F7921E" d="m100.645 167.679-3.072 1.786a.375.375 0 0 0 0 .707l1.654.952a1.36 1.36 0 0 0 1.224 0l3.072-1.781a.38.38 0 0 0 .249-.356.37.37 0 0 0-.069-.217.37.37 0 0 0-.18-.139l-1.654-.952a1.36 1.36 0 0 0-1.224 0" style="fill:#f7921e;fill:color(display-p3 .9686 .5725 .1176);fill-opacity:1"/><path fill="#000" d="M103.758 169.082v.778a.4.4 0 0 1-.24.343l-3.083 1.776c-.189.1-.4.15-.614.144v-.86c.214.003.426-.048.614-.149l3.072-1.782c.111-.051.2-.14.251-.25" opacity=".1" style="fill:#000;fill-opacity:1"/><path fill="#E0E0E0" d="m89.14 186.827-3.071 1.782a1.37 1.37 0 0 1-1.23 0l-3.102-1.792a.39.39 0 0 1-.24-.343v-.886a.41.41 0 0 1 .24-.343l3.072-1.782a1.37 1.37 0 0 1 1.229 0l3.103 1.792a.42.42 0 0 1 .24.338v.891a.42.42 0 0 1-.24.343" style="fill:#e0e0e0;fill:color(display-p3 .8784 .8784 .8784);fill-opacity:1"/><path fill="#FAFAFA" d="m84.81 183.463-3.073 1.782c-.343.2-.343.512 0 .712l3.103 1.792a1.37 1.37 0 0 0 1.229 0l3.072-1.787a.374.374 0 0 0 0-.707l-3.103-1.792a1.37 1.37 0 0 0-1.229 0" style="fill:#fafafa;fill:color(display-p3 .9804 .9804 .9804);fill-opacity:1"/><path fill="#EBEBEB" d="M89.381 185.706v.778a.41.41 0 0 1-.24.343l-3.072 1.782c-.188.105-.4.156-.615.149v-.866a1.24 1.24 0 0 0 .615-.143l3.072-1.787a.5.5 0 0 0 .24-.256" style="fill:#ebebeb;fill:color(display-p3 .9216 .9216 .9216);fill-opacity:1"/><path fill="#FAFAFA" d="M89.381 185.706v-.107a.35.35 0 0 0-.128-.262.34.34 0 0 1 .128.369" style="fill:#fafafa;fill:color(display-p3 .9804 .9804 .9804);fill-opacity:1"/><path fill="#E0E0E0" d="m96.34 182.655-3.073 1.781a1.37 1.37 0 0 1-1.228 0l-3.103-1.792a.41.41 0 0 1-.24-.343v-.885a.41.41 0 0 1 .24-.343l3.072-1.782a1.36 1.36 0 0 1 1.224 0l3.108 1.792a.4.4 0 0 1 .235.338v.891a.41.41 0 0 1-.236.343" style="fill:#e0e0e0;fill:color(display-p3 .8784 .8784 .8784);fill-opacity:1"/><path fill="#FAFAFA" d="m91.998 179.291-3.072 1.782a.377.377 0 0 0-.18.572.37.37 0 0 0 .18.139l3.102 1.792a1.37 1.37 0 0 0 1.23 0l3.071-1.787a.373.373 0 0 0 0-.706l-3.107-1.792a1.36 1.36 0 0 0-1.224 0" style="fill:#fafafa;fill:color(display-p3 .9804 .9804 .9804);fill-opacity:1"/><path fill="#EBEBEB" d="M96.565 181.528v.783a.41.41 0 0 1-.24.343l-3.073 1.782c-.189.101-.4.152-.614.148v-.865a1.25 1.25 0 0 0 .614-.143l3.072-1.787a.5.5 0 0 0 .24-.261" style="fill:#ebebeb;fill:color(display-p3 .9216 .9216 .9216);fill-opacity:1"/><path fill="#FAFAFA" d="M96.565 181.528v-.102a.35.35 0 0 0-.128-.261.32.32 0 0 1 .128.363" style="fill:#fafafa;fill:color(display-p3 .9804 .9804 .9804);fill-opacity:1"/><path fill="#E0E0E0" d="m103.507 178.477-3.072 1.786a1.36 1.36 0 0 1-1.228 0l-3.103-1.792a.4.4 0 0 1-.24-.343v-.89a.41.41 0 0 1 .24-.338l3.072-1.782a1.34 1.34 0 0 1 1.229 0l3.102 1.792a.4.4 0 0 1 .167.136.4.4 0 0 1 .074.202v.875a.4.4 0 0 1-.07.211.4.4 0 0 1-.171.143" style="fill:#e0e0e0;fill:color(display-p3 .8784 .8784 .8784);fill-opacity:1"/><path fill="#FAFAFA" d="m99.181 175.118-3.072 1.782a.367.367 0 0 0 0 .706l3.103 1.792a1.33 1.33 0 0 0 1.229 0l3.072-1.782a.373.373 0 0 0 0-.706l-3.103-1.792a1.34 1.34 0 0 0-1.229 0" style="fill:#fafafa;fill:color(display-p3 .9804 .9804 .9804);fill-opacity:1"/><path fill="#EBEBEB" d="M103.753 177.355v.768a.426.426 0 0 1-.24.349l-3.072 1.781a1.2 1.2 0 0 1-.615.149v-.865a1.2 1.2 0 0 0 .615-.149l3.072-1.782a.5.5 0 0 0 .24-.251" style="fill:#ebebeb;fill:color(display-p3 .9216 .9216 .9216);fill-opacity:1"/><path fill="#FAFAFA" d="M103.753 177.355v-.102a.36.36 0 0 0-.128-.266.335.335 0 0 1 .128.368" style="fill:#fafafa;fill:color(display-p3 .9804 .9804 .9804);fill-opacity:1"/><path fill="#E0E0E0" d="m95.602 190.555-3.072 1.786a1.37 1.37 0 0 1-1.229 0l-3.108-1.792a.4.4 0 0 1-.235-.343v-.89a.41.41 0 0 1 .236-.338l3.072-1.787a1.37 1.37 0 0 1 1.228 0l3.103 1.792a.42.42 0 0 1 .24.338v.896a.41.41 0 0 1-.235.338" style="fill:#e0e0e0;fill:color(display-p3 .8784 .8784 .8784);fill-opacity:1"/><path fill="#FAFAFA" d="m91.27 187.191-3.071 1.786a.373.373 0 0 0 0 .707l3.108 1.792a1.37 1.37 0 0 0 1.228 0l3.072-1.782a.377.377 0 0 0 0-.711l-3.102-1.792a1.37 1.37 0 0 0-1.234 0" style="fill:#fafafa;fill:color(display-p3 .9804 .9804 .9804);fill-opacity:1"/><path fill="#EBEBEB" d="M95.828 189.433v.778a.41.41 0 0 1-.241.343l-3.072 1.787c-.19.1-.4.15-.615.144v-.861c.215.004.426-.047.615-.148l3.072-1.782a.55.55 0 0 0 .24-.261" style="fill:#ebebeb;fill:color(display-p3 .9216 .9216 .9216);fill-opacity:1"/><path fill="#FAFAFA" d="M95.828 189.433v-.102a.38.38 0 0 0-.129-.267.34.34 0 0 1 .129.369" style="fill:#fafafa;fill:color(display-p3 .9804 .9804 .9804);fill-opacity:1"/><path fill="#E0E0E0" d="m102.786 186.382-3.072 1.782a1.34 1.34 0 0 1-1.23 0l-3.102-1.792a.408.408 0 0 1-.24-.338v-.891a.4.4 0 0 1 .24-.338l3.072-1.787a1.37 1.37 0 0 1 1.229 0l3.103 1.792a.42.42 0 0 1 .24.338v.891a.39.39 0 0 1-.24.343" style="fill:#e0e0e0;fill:color(display-p3 .8784 .8784 .8784);fill-opacity:1"/><path fill="#FAFAFA" d="m98.454 183.018-3.072 1.787a.373.373 0 0 0 0 .706l3.103 1.792a1.37 1.37 0 0 0 1.229 0l3.072-1.781c.343-.2.343-.512 0-.712l-3.103-1.792a1.37 1.37 0 0 0-1.229 0" style="fill:#fafafa;fill:color(display-p3 .9804 .9804 .9804);fill-opacity:1"/><path fill="#EBEBEB" d="M103.026 185.261v.778a.4.4 0 0 1-.24.343l-3.072 1.787c-.19.099-.401.149-.615.143v-.865c.214.005.425-.044.615-.143l3.072-1.782a.5.5 0 0 0 .24-.261" style="fill:#ebebeb;fill:color(display-p3 .9216 .9216 .9216);fill-opacity:1"/><path fill="#FAFAFA" d="M103.026 185.261v-.103a.36.36 0 0 0-.128-.266.33.33 0 0 1 .128.369" style="fill:#fafafa;fill:color(display-p3 .9804 .9804 .9804);fill-opacity:1"/><path fill="#E0E0E0" d="m109.974 182.219-3.072 1.782a1.36 1.36 0 0 1-1.229 0l-3.108-1.792a.39.39 0 0 1-.235-.343v-.886a.43.43 0 0 1 .235-.343l3.072-1.782a1.37 1.37 0 0 1 1.229 0l3.103 1.792a.418.418 0 0 1 .241.338v.891a.42.42 0 0 1-.236.343" style="fill:#e0e0e0;fill:color(display-p3 .8784 .8784 .8784);fill-opacity:1"/><path fill="#FAFAFA" d="m105.643 178.845-3.072 1.782a.38.38 0 0 0-.249.356.38.38 0 0 0 .249.356l3.107 1.792a1.37 1.37 0 0 0 1.229 0l3.072-1.787a.38.38 0 0 0 .252-.353.37.37 0 0 0-.252-.354l-3.103-1.792a1.37 1.37 0 0 0-1.233 0" style="fill:#fafafa;fill:color(display-p3 .9804 .9804 .9804);fill-opacity:1"/><path fill="#EBEBEB" d="M110.215 181.088v.778a.4.4 0 0 1-.073.205.4.4 0 0 1-.168.138l-3.072 1.782c-.187.104-.4.156-.614.148v-.865a1.24 1.24 0 0 0 .614-.143l3.072-1.787a.5.5 0 0 0 .241-.256" style="fill:#ebebeb;fill:color(display-p3 .9216 .9216 .9216);fill-opacity:1"/><path fill="#FAFAFA" d="M110.215 181.088v-.108a.4.4 0 0 0-.037-.144.4.4 0 0 0-.091-.117.34.34 0 0 1 .128.369" style="fill:#fafafa;fill:color(display-p3 .9804 .9804 .9804);fill-opacity:1"/><path fill="#E0E0E0" d="m102.064 194.287-3.072 1.782a1.36 1.36 0 0 1-1.224 0l-3.108-1.792a.42.42 0 0 1-.24-.343v-.886a.42.42 0 0 1 .24-.343l3.072-1.782a1.36 1.36 0 0 1 1.224 0l3.108 1.792a.41.41 0 0 1 .24.338v.891a.42.42 0 0 1-.24.343" style="fill:#e0e0e0;fill:color(display-p3 .8784 .8784 .8784);fill-opacity:1"/><path fill="#FAFAFA" d="m97.732 190.923-3.072 1.782a.38.38 0 0 0 0 .712l3.108 1.792a1.37 1.37 0 0 0 1.224 0l3.072-1.787a.375.375 0 0 0 0-.707l-3.108-1.792a1.36 1.36 0 0 0-1.224 0" style="fill:#fafafa;fill:color(display-p3 .9804 .9804 .9804);fill-opacity:1"/><path fill="#EBEBEB" d="M102.304 193.161v.783a.42.42 0 0 1-.24.343l-3.072 1.782c-.188.104-.4.155-.615.148v-.865c.214.005.425-.044.615-.143l3.072-1.787a.5.5 0 0 0 .24-.261" style="fill:#ebebeb;fill:color(display-p3 .9216 .9216 .9216);fill-opacity:1"/><path fill="#FAFAFA" d="M102.304 193.161v-.103a.35.35 0 0 0-.128-.261.33.33 0 0 1 .128.364" style="fill:#fafafa;fill:color(display-p3 .9804 .9804 .9804);fill-opacity:1"/><path fill="#E0E0E0" d="m109.247 190.109-3.072 1.787a1.37 1.37 0 0 1-1.229 0l-3.102-1.792a.42.42 0 0 1-.241-.343v-.886a.4.4 0 0 1 .241-.338l3.072-1.781a1.32 1.32 0 0 1 1.228 0l3.103 1.792a.4.4 0 0 1 .241.337v.891a.4.4 0 0 1-.075.2.4.4 0 0 1-.166.133" style="fill:#e0e0e0;fill:color(display-p3 .8784 .8784 .8784);fill-opacity:1"/><path fill="#FAFAFA" d="m104.916 186.75-3.072 1.782a.37.37 0 0 0-.183.57.4.4 0 0 0 .183.137l3.102 1.792a1.34 1.34 0 0 0 1.229 0l3.072-1.782a.37.37 0 0 0 .263-.354.37.37 0 0 0-.263-.353l-3.103-1.792a1.34 1.34 0 0 0-1.228 0" style="fill:#fafafa;fill:color(display-p3 .9804 .9804 .9804);fill-opacity:1"/><path fill="#EBEBEB" d="M109.488 188.988v.778a.42.42 0 0 1-.241.348l-3.072 1.782a1.2 1.2 0 0 1-.609.148v-.865a1.2 1.2 0 0 0 .609-.148l3.072-1.782a.52.52 0 0 0 .241-.261" style="fill:#ebebeb;fill:color(display-p3 .9216 .9216 .9216);fill-opacity:1"/><path fill="#FAFAFA" d="M109.488 188.988v-.113a.37.37 0 0 0-.128-.266.34.34 0 0 1 .128.379" style="fill:#fafafa;fill:color(display-p3 .9804 .9804 .9804);fill-opacity:1"/><path fill="#E0E0E0" d="m116.436 185.936-3.072 1.787a1.36 1.36 0 0 1-1.224 0l-3.108-1.792a.42.42 0 0 1-.241-.343v-.891a.42.42 0 0 1 .241-.338l3.072-1.786a1.36 1.36 0 0 1 1.224 0l3.108 1.792a.42.42 0 0 1 .24.337v.896a.4.4 0 0 1-.24.338" style="fill:#e0e0e0;fill:color(display-p3 .8784 .8784 .8784);fill-opacity:1"/><path fill="#FAFAFA" d="m112.104 182.573-3.072 1.786a.375.375 0 0 0 0 .707l3.108 1.792a1.36 1.36 0 0 0 1.224 0l3.072-1.782a.379.379 0 0 0 0-.711l-3.108-1.792a1.36 1.36 0 0 0-1.224 0" style="fill:#fafafa;fill:color(display-p3 .9804 .9804 .9804);fill-opacity:1"/><path fill="#EBEBEB" d="M116.676 184.815v.778a.41.41 0 0 1-.24.343l-3.072 1.787a1.24 1.24 0 0 1-.615.143v-.86c.214.004.426-.047.615-.148l3.072-1.782a.5.5 0 0 0 .24-.261" style="fill:#ebebeb;fill:color(display-p3 .9216 .9216 .9216);fill-opacity:1"/><path fill="#FAFAFA" d="M116.676 184.815v-.102a.37.37 0 0 0-.128-.267.34.34 0 0 1 .128.369" style="fill:#fafafa;fill:color(display-p3 .9804 .9804 .9804);fill-opacity:1"/><path fill="#E0E0E0" d="m108.525 198.015-3.072 1.786a1.36 1.36 0 0 1-1.224 0l-3.107-1.797a.4.4 0 0 1-.241-.338v-.891a.408.408 0 0 1 .241-.337l3.072-1.787a1.35 1.35 0 0 1 1.223 0l3.108 1.792a.43.43 0 0 1 .241.338v.89a.42.42 0 0 1-.241.344" style="fill:#e0e0e0;fill:color(display-p3 .8784 .8784 .8784);fill-opacity:1"/><path fill="#FAFAFA" d="m104.194 194.651-3.072 1.787a.37.37 0 0 0-.183.57.37.37 0 0 0 .183.136l3.107 1.792a1.36 1.36 0 0 0 1.224 0l3.072-1.782a.4.4 0 0 0 .181-.138.38.38 0 0 0 0-.435.4.4 0 0 0-.181-.138l-3.108-1.792a1.35 1.35 0 0 0-1.223 0" style="fill:#fafafa;fill:color(display-p3 .9804 .9804 .9804);fill-opacity:1"/><path fill="#EBEBEB" d="M108.766 196.893v.778a.4.4 0 0 1-.073.205.4.4 0 0 1-.168.138l-3.072 1.787c-.189.1-.401.15-.614.144v-.861c.214.004.425-.047.614-.148l3.072-1.782a.57.57 0 0 0 .241-.261" style="fill:#ebebeb;fill:color(display-p3 .9216 .9216 .9216);fill-opacity:1"/><path fill="#FAFAFA" d="M108.766 196.893v-.102a.38.38 0 0 0-.128-.267.34.34 0 0 1 .128.369" style="fill:#fafafa;fill:color(display-p3 .9804 .9804 .9804);fill-opacity:1"/><path fill="#E0E0E0" d="m115.708 193.842-3.072 1.781a1.32 1.32 0 0 1-1.228 0l-3.103-1.792a.4.4 0 0 1-.241-.337v-.891a.41.41 0 0 1 .241-.343l3.072-1.782a1.37 1.37 0 0 1 1.229 0l3.102 1.792a.4.4 0 0 1 .167.136.4.4 0 0 1 .074.202v.875a.4.4 0 0 1-.07.213.4.4 0 0 1-.171.146" style="fill:#e0e0e0;fill:color(display-p3 .8784 .8784 .8784);fill-opacity:1"/><path fill="#FAFAFA" d="m111.377 190.478-3.072 1.782a.378.378 0 0 0 0 .711l3.103 1.792a1.36 1.36 0 0 0 1.228 0l3.072-1.787a.37.37 0 0 0 .183-.57.37.37 0 0 0-.183-.136l-3.102-1.792a1.37 1.37 0 0 0-1.229 0" style="fill:#fafafa;fill:color(display-p3 .9804 .9804 .9804);fill-opacity:1"/><path fill="#EBEBEB" d="M115.949 192.72v.763a.41.41 0 0 1-.241.343l-3.072 1.782a1.17 1.17 0 0 1-.609.148v-.865a1.24 1.24 0 0 0 .609-.143l3.072-1.787a.5.5 0 0 0 .241-.241" style="fill:#ebebeb;fill:color(display-p3 .9216 .9216 .9216);fill-opacity:1"/><path fill="#FAFAFA" d="M115.949 192.72v-.107a.35.35 0 0 0-.128-.261.335.335 0 0 1 .128.368" style="fill:#fafafa;fill:color(display-p3 .9804 .9804 .9804);fill-opacity:1"/><path fill="#F28F8F" d="m122.897 189.669-3.072 1.782a1.37 1.37 0 0 1-1.224 0l-3.108-1.792a.414.414 0 0 1-.24-.343v-.886a.42.42 0 0 1 .24-.343l3.072-1.782a1.36 1.36 0 0 1 1.224 0l3.108 1.792a.427.427 0 0 1 .241.338v.891a.43.43 0 0 1-.241.343" style="fill:#f28f8f;fill:color(display-p3 .949 .5608 .5608);fill-opacity:1"/><path fill="#FFA8A7" d="m118.565 186.315-3.072 1.782a.38.38 0 0 0-.248.356.38.38 0 0 0 .248.356l3.108 1.792a1.36 1.36 0 0 0 1.224 0l3.072-1.787a.375.375 0 0 0 0-.707l-3.108-1.792a1.36 1.36 0 0 0-1.224 0" style="fill:#ffa8a7;fill:color(display-p3 1 .6588 .6549);fill-opacity:1"/><path fill="#000" d="M123.138 188.542v.784a.42.42 0 0 1-.241.343l-3.072 1.782c-.188.104-.4.155-.614.148v-.865c.213.005.425-.044.614-.144l3.072-1.786a.55.55 0 0 0 .241-.262" opacity=".1" style="fill:#000;fill-opacity:1"/><path fill="#F7921E" d="m110.701 174.304-3.097 1.771a1.37 1.37 0 0 1-1.229 0l-3.103-1.792a.414.414 0 0 1-.241-.343v-.891a.42.42 0 0 1 .241-.338l3.072-1.786a1.36 1.36 0 0 1 1.224 0l3.108 1.792a.41.41 0 0 1 .235.338v.896a.4.4 0 0 1-.21.353" style="fill:#f7921e;fill:color(display-p3 .9686 .5725 .1176);fill-opacity:1"/><path fill="#000" d="m110.701 174.304-3.097 1.771a1.37 1.37 0 0 1-1.229 0l-3.103-1.792a.414.414 0 0 1-.241-.343v-.891a.42.42 0 0 1 .241-.338l3.072-1.786a1.36 1.36 0 0 1 1.224 0l3.108 1.792a.41.41 0 0 1 .235.338v.896a.4.4 0 0 1-.21.353" opacity=".3" style="fill:#000;fill-opacity:1"/><path fill="#F7921E" d="m106.37 170.955-3.072 1.787a.37.37 0 0 0-.183.57.37.37 0 0 0 .183.136l3.102 1.792a1.37 1.37 0 0 0 1.229 0l3.072-1.781a.38.38 0 0 0 .249-.356.38.38 0 0 0-.249-.356l-3.097-1.792a1.35 1.35 0 0 0-1.234 0" style="fill:#f7921e;fill:color(display-p3 .9686 .5725 .1176);fill-opacity:1"/><path fill="#000" d="m106.37 170.955-3.072 1.787a.37.37 0 0 0-.183.57.37.37 0 0 0 .183.136l3.102 1.792a1.37 1.37 0 0 0 1.229 0l3.072-1.781a.38.38 0 0 0 .249-.356.38.38 0 0 0-.249-.356l-3.097-1.792a1.35 1.35 0 0 0-1.234 0" opacity=".2" style="fill:#000;fill-opacity:1"/><path fill="#000" d="M110.937 173.183v.778a.4.4 0 0 1-.241.343l-3.092 1.771c-.19.1-.401.149-.615.144v-.86c.214.003.426-.048.615-.149l3.072-1.782a.52.52 0 0 0 .261-.245" opacity=".1" style="fill:#000;fill-opacity:1"/><path fill="#F7921E" d="m117.157 178.036-3.072 1.782a1.36 1.36 0 0 1-1.228 0l-3.103-1.792a.41.41 0 0 1-.241-.343v-.886a.4.4 0 0 1 .073-.205.4.4 0 0 1 .168-.138l3.072-1.782a1.37 1.37 0 0 1 1.229 0l3.102 1.792a.4.4 0 0 1 .241.338v.891a.4.4 0 0 1-.241.343" style="fill:#f7921e;fill:color(display-p3 .9686 .5725 .1176);fill-opacity:1"/><path fill="#000" d="m117.157 178.036-3.072 1.782a1.36 1.36 0 0 1-1.228 0l-3.103-1.792a.41.41 0 0 1-.241-.343v-.886a.4.4 0 0 1 .073-.205.4.4 0 0 1 .168-.138l3.072-1.782a1.37 1.37 0 0 1 1.229 0l3.102 1.792a.4.4 0 0 1 .241.338v.891a.4.4 0 0 1-.241.343" opacity=".3" style="fill:#000;fill-opacity:1"/><path fill="#F7921E" d="m112.826 174.672-3.072 1.782a.38.38 0 0 0-.249.356.383.383 0 0 0 .249.356l3.103 1.792a1.36 1.36 0 0 0 1.228 0l3.072-1.787a.38.38 0 0 0 .191-.133.37.37 0 0 0 0-.441.38.38 0 0 0-.191-.133l-3.102-1.792a1.37 1.37 0 0 0-1.229 0" style="fill:#f7921e;fill:color(display-p3 .9686 .5725 .1176);fill-opacity:1"/><path fill="#000" d="m112.826 174.672-3.072 1.782a.38.38 0 0 0-.249.356.383.383 0 0 0 .249.356l3.103 1.792a1.36 1.36 0 0 0 1.228 0l3.072-1.787a.38.38 0 0 0 .191-.133.37.37 0 0 0 0-.441.38.38 0 0 0-.191-.133l-3.102-1.792a1.37 1.37 0 0 0-1.229 0" opacity=".2" style="fill:#000;fill-opacity:1"/><path fill="#000" d="M117.398 176.91v.783a.41.41 0 0 1-.241.343l-3.072 1.782c-.187.103-.4.154-.614.148v-.865c.214.005.425-.044.614-.143l3.072-1.787a.5.5 0 0 0 .241-.261" opacity=".1" style="fill:#000;fill-opacity:1"/><path fill="#F7921E" d="m123.619 181.764-3.072 1.781a1.33 1.33 0 0 1-1.229 0l-3.103-1.792a.4.4 0 0 1-.167-.135.4.4 0 0 1-.073-.203v-.89a.4.4 0 0 1 .073-.203.4.4 0 0 1 .167-.135l3.072-1.787a1.37 1.37 0 0 1 1.229 0l3.103 1.792a.42.42 0 0 1 .241.338v.891a.4.4 0 0 1-.241.343" style="fill:#f7921e;fill:color(display-p3 .9686 .5725 .1176);fill-opacity:1"/><path fill="#000" d="m123.619 181.764-3.072 1.781a1.33 1.33 0 0 1-1.229 0l-3.103-1.792a.4.4 0 0 1-.167-.135.4.4 0 0 1-.073-.203v-.89a.4.4 0 0 1 .073-.203.4.4 0 0 1 .167-.135l3.072-1.787a1.37 1.37 0 0 1 1.229 0l3.103 1.792a.42.42 0 0 1 .241.338v.891a.4.4 0 0 1-.241.343" opacity=".3" style="fill:#000;fill-opacity:1"/><path fill="#F7921E" d="m119.287 178.4-3.072 1.787a.373.373 0 0 0 0 .706l3.103 1.792a1.37 1.37 0 0 0 1.229 0l3.072-1.782c.343-.199.343-.512 0-.711l-3.103-1.792a1.36 1.36 0 0 0-1.229 0" style="fill:#f7921e;fill:color(display-p3 .9686 .5725 .1176);fill-opacity:1"/><path fill="#000" d="m119.287 178.4-3.072 1.787a.373.373 0 0 0 0 .706l3.103 1.792a1.37 1.37 0 0 0 1.229 0l3.072-1.782c.343-.199.343-.512 0-.711l-3.103-1.792a1.36 1.36 0 0 0-1.229 0" opacity=".2" style="fill:#000;fill-opacity:1"/><path fill="#000" d="M123.86 180.642v.778a.41.41 0 0 1-.241.343l-3.072 1.787c-.187.1-.397.15-.609.144v-.866c.212.006.422-.044.609-.143l3.072-1.782a.5.5 0 0 0 .241-.261" opacity=".1" style="fill:#000;fill-opacity:1"/><path fill="#F7921E" d="m130.08 185.491-3.072 1.787a1.36 1.36 0 0 1-1.228 0l-3.103-1.792a.42.42 0 0 1-.241-.343v-.876a.4.4 0 0 1 .241-.338l3.072-1.781a1.33 1.33 0 0 1 1.229 0l3.102 1.792a.4.4 0 0 1 .241.338v.89a.4.4 0 0 1-.077.194.4.4 0 0 1-.164.129" style="fill:#f7921e;fill:color(display-p3 .9686 .5725 .1176);fill-opacity:1"/><path fill="#000" d="m130.08 185.491-3.072 1.787a1.36 1.36 0 0 1-1.228 0l-3.103-1.792a.42.42 0 0 1-.241-.343v-.876a.4.4 0 0 1 .241-.338l3.072-1.781a1.33 1.33 0 0 1 1.229 0l3.102 1.792a.4.4 0 0 1 .241.338v.89a.4.4 0 0 1-.077.194.4.4 0 0 1-.164.129" opacity=".3" style="fill:#000;fill-opacity:1"/><path fill="#F7921E" d="m125.749 182.132-3.072 1.782a.38.38 0 0 0-.252.353.37.37 0 0 0 .252.353l3.103 1.792a1.32 1.32 0 0 0 1.228 0l3.072-1.781a.373.373 0 0 0 0-.707l-3.102-1.792a1.34 1.34 0 0 0-1.229 0" style="fill:#f7921e;fill:color(display-p3 .9686 .5725 .1176);fill-opacity:1"/><path fill="#000" d="m125.749 182.132-3.072 1.782a.38.38 0 0 0-.252.353.37.37 0 0 0 .252.353l3.103 1.792a1.32 1.32 0 0 0 1.228 0l3.072-1.781a.373.373 0 0 0 0-.707l-3.102-1.792a1.34 1.34 0 0 0-1.229 0" opacity=".2" style="fill:#000;fill-opacity:1"/><path fill="#000" d="M130.321 184.37v.778a.42.42 0 0 1-.241.348l-3.072 1.782a1.2 1.2 0 0 1-.609.148v-.865c.213.006.423-.045.609-.148l3.072-1.782a.52.52 0 0 0 .241-.261" opacity=".1" style="fill:#000;fill-opacity:1"/><path fill="#F7921E" d="M126.918 117.815v4.762l-82.544 47.657-2.56 1.459a4.43 4.43 0 0 1-1.94-3.507V87.93a.86.86 0 0 1 .117-.405.9.9 0 0 1 .297-.312l18.81-10.86c.231-.133 1.573.43 1.793.563l.143.082q.189.119.328.292c.107.113.19.247.24.394l1.706 4.92 61.276-36.474a.92.92 0 0 1 .804 0l1.136.66a.8.8 0 0 1 .292.302.86.86 0 0 1 .123.415v70.308z" style="fill:#f7921e;fill:color(display-p3 .9686 .5725 .1176);fill-opacity:1"/><path fill="#000" d="M126.918 117.815v4.762l-82.544 47.657-2.56 1.459a4.43 4.43 0 0 1-1.94-3.507V87.93a.86.86 0 0 1 .117-.405.9.9 0 0 1 .297-.312l18.81-10.86c.231-.133 1.573.43 1.793.563l.143.082q.189.119.328.292c.107.113.19.247.24.394l1.706 4.92 61.276-36.474a.92.92 0 0 1 .804 0l1.136.66a.8.8 0 0 1 .292.302.86.86 0 0 1 .123.415v70.308z" opacity=".5" style="fill:#000;fill-opacity:1"/><path fill="#F7921E" d="m126.918 122.577-85.084 49.116V88.57l19.548-11.264c.108.113.19.247.241.394l1.705 4.92.323.932 63.139-36.46a.86.86 0 0 1 .123.416z" style="fill:#f7921e;fill:color(display-p3 .9686 .5725 .1176);fill-opacity:1"/><path fill="#000" d="m126.918 122.577-85.084 49.116V88.57l19.548-11.264c.108.113.19.247.241.394l1.705 4.92.323.932 63.139-36.46a.86.86 0 0 1 .123.416z" opacity=".35" style="fill:#000;fill-opacity:1"/><path fill="#F7921E" d="M61.382 77.29 41.834 88.554l-1.823-1.024a.9.9 0 0 1 .297-.312l18.816-10.86a.88.88 0 0 1 .814 0l1.117.646q.188.115.327.286" style="fill:#f7921e;fill:color(display-p3 .9686 .5725 .1176);fill-opacity:1"/><path fill="#000" d="M61.382 77.29 41.834 88.554l-1.823-1.024a.9.9 0 0 1 .297-.312l18.816-10.86a.88.88 0 0 1 .814 0l1.117.646q.188.115.327.286" opacity=".2" style="fill:#000;fill-opacity:1"/><path fill="#F7921E" d="m126.79 47.077-63.134 36.46-.323-.932 61.251-36.48a.94.94 0 0 1 .804 0l1.136.66a.8.8 0 0 1 .266.292" style="fill:#f7921e;fill:color(display-p3 .9686 .5725 .1176);fill-opacity:1"/><path fill="#000" d="m126.79 47.077-63.134 36.46-.323-.932 61.251-36.48a.94.94 0 0 1 .804 0l1.136.66a.8.8 0 0 1 .266.292" opacity=".2" style="fill:#000;fill-opacity:1"/><path fill="#FAFAFA" d="M66.108 149.902a2.09 2.09 0 0 1-.916-1.659V66.001a2.15 2.15 0 0 1 .978-1.695l52.372-30.208a1.836 1.836 0 0 1 2.585.665c.161.293.239.624.226.958v82.243a2.16 2.16 0 0 1-.978 1.694l-52.372 30.208a2.09 2.09 0 0 1-1.895.036" style="fill:#fafafa;fill:color(display-p3 .9804 .9804 .9804);fill-opacity:1"/><path fill="#F0F0F0" d="m68.003 149.867 52.372-30.208a2.17 2.17 0 0 0 .978-1.695V35.721c0-.624-.435-.875-.978-.568L68.003 65.36a2.17 2.17 0 0 0-.978 1.695v82.247c0 .625.44.876.978.564" style="fill:#f0f0f0;fill:color(display-p3 .9412 .9412 .9412);fill-opacity:1"/><path fill="#E0E0E0" d="m73.327 68.632 40.474-23.373c.476-.276.865-.05.865.513v.343a1.901 1.901 0 0 1-.865 1.495L73.327 70.977c-.476.277-.865.057-.86-.512v-.343a1.9 1.9 0 0 1 .86-1.49M73.327 74.46l40.474-23.374c.476-.271.865-.05.865.512v.343a1.9 1.9 0 0 1-.865 1.49L73.327 76.794c-.476.276-.865.051-.86-.512v-.343a1.9 1.9 0 0 1 .86-1.48M73.327 80.285l40.474-23.367c.476-.277.865-.051.865.512v.343a1.92 1.92 0 0 1-.865 1.495L73.327 82.635c-.476.277-.865.052-.86-.511v-.343a1.91 1.91 0 0 1 .86-1.496M73.327 86.117l40.474-23.372c.476-.272.865-.052.865.512v.348a1.9 1.9 0 0 1-.865 1.49L73.327 88.468c-.476.27-.865.05-.86-.513v-.348a1.9 1.9 0 0 1 .86-1.49M73.327 91.944l40.474-23.368c.476-.277.865-.056.865.512v.343a1.92 1.92 0 0 1-.865 1.495L73.327 94.294c-.476.276-.865.05-.86-.512v-.349a1.91 1.91 0 0 1 .86-1.49M73.327 97.817l40.474-23.373c.476-.272.865-.051.865.512v.343a1.9 1.9 0 0 1-.865 1.49l-40.474 23.373c-.476.276-.865.051-.86-.512v-.344a1.9 1.9 0 0 1 .86-1.49M73.327 103.643l40.474-23.368c.476-.276.865-.051.865.512v.343a1.9 1.9 0 0 1-.865 1.495l-40.474 23.353c-.476.276-.865.056-.86-.512v-.343a1.91 1.91 0 0 1 .86-1.48M73.327 109.475l40.474-23.373c.476-.271.865-.051.865.512v.348a1.9 1.9 0 0 1-.865 1.49l-40.474 23.373c-.476.276-.865.051-.86-.512v-.343a1.9 1.9 0 0 1 .86-1.495M73.327 115.301l40.474-23.368c.476-.276.865-.05.865.512v.343a1.92 1.92 0 0 1-.865 1.495l-40.474 23.368c-.476.277-.865.051-.86-.512v-.343a1.91 1.91 0 0 1 .86-1.495M73.327 121.133l40.474-23.373c.476-.276.865-.051.865.512v.343a1.9 1.9 0 0 1-.865 1.495l-40.474 23.373c-.476.271-.865.051-.86-.512v-.353a1.9 1.9 0 0 1 .86-1.485M73.327 126.985l40.474-23.368c.476-.276.865-.056.865.512v.343a1.92 1.92 0 0 1-.865 1.495l-40.474 23.368c-.476.277-.865.051-.86-.512v-.343a1.9 1.9 0 0 1 .86-1.495M73.327 132.817l40.474-23.373c.476-.276.865-.051.865.512v.343c-.016.3-.103.591-.254.851-.15.26-.359.481-.611.644l-40.474 23.373c-.476.271-.865.051-.86-.512v-.343a1.89 1.89 0 0 1 .86-1.495M73.327 138.643l40.474-23.373c.476-.271.865-.051.865.512v.344a1.893 1.893 0 0 1-.865 1.489l-40.474 23.373c-.476.277-.865.051-.86-.512v-.343a1.9 1.9 0 0 1 .86-1.49M67.875 149.933a1.824 1.824 0 0 1-2.475-.765 1.8 1.8 0 0 1-.208-.925V66.001c.014-.34.113-.67.286-.963l1.833 1.06a1.96 1.96 0 0 0-.286.957v82.248c0 .573.373.829.85.63" style="fill:#e0e0e0;fill:color(display-p3 .8784 .8784 .8784);fill-opacity:1"/><path fill="#FAFAFA" d="M73.46 154.147a2.1 2.1 0 0 1-.916-1.659V70.245a2.17 2.17 0 0 1 .978-1.694l52.372-30.208a1.84 1.84 0 0 1 2.588.665c.162.292.241.624.228.958v82.242a2.17 2.17 0 0 1-.977 1.695l-52.378 30.208a2.1 2.1 0 0 1-1.895.036" style="fill:#fafafa;fill:color(display-p3 .9804 .9804 .9804);fill-opacity:1"/><path fill="#F0F0F0" d="m75.355 154.111 52.377-30.208a2.17 2.17 0 0 0 .978-1.695V39.966c0-.625-.44-.876-.978-.564L75.355 69.61a2.17 2.17 0 0 0-.978 1.695v82.243c0 .624.44.875.978.563" style="fill:#f0f0f0;fill:color(display-p3 .9412 .9412 .9412);fill-opacity:1"/><path fill="#E0E0E0" d="m80.68 72.877 40.473-23.373c.476-.276.866-.051.866.512v.343a1.92 1.92 0 0 1-.866 1.495L80.68 75.227c-.476.271-.86.051-.86-.512v-.343a1.9 1.9 0 0 1 .86-1.495M80.68 78.703l40.473-23.373c.476-.27.866-.05.866.513v.343a1.903 1.903 0 0 1-.866 1.49L80.68 81.048c-.476.277-.86.052-.86-.512v-.343a1.9 1.9 0 0 1 .86-1.49M80.68 84.535l40.473-23.357c.476-.276.866-.051.866.512v.343a1.92 1.92 0 0 1-.866 1.495L80.68 86.896c-.476.276-.86.056-.86-.512v-.343a1.9 1.9 0 0 1 .86-1.506M80.68 90.362l40.473-23.373c.476-.272.866-.052.866.512v.332a1.903 1.903 0 0 1-.866 1.49L80.68 92.697c-.476.277-.86.052-.86-.512v-.343a1.9 1.9 0 0 1 .86-1.48M80.68 96.188l40.473-23.367c.476-.277.866-.052.866.512v.343a1.93 1.93 0 0 1-.866 1.495L80.68 98.538c-.476.277-.86.052-.86-.512v-.343a1.9 1.9 0 0 1 .86-1.495M80.68 102.061l40.473-23.368c.476-.276.866-.056.866.512v.343a1.902 1.902 0 0 1-.866 1.49L80.68 104.411c-.476.276-.86.051-.86-.512v-.343a1.9 1.9 0 0 1 .86-1.495M80.68 107.893l40.473-23.373c.476-.277.866-.051.866.512v.343a1.92 1.92 0 0 1-.866 1.495L80.68 110.227c-.476.272-.86.052-.86-.512v-.343a1.9 1.9 0 0 1 .86-1.479M80.68 113.719l40.473-23.357c.476-.272.866-.051.866.512v.343a1.91 1.91 0 0 1-.866 1.49L80.68 116.08c-.476.276-.86.051-.86-.512v-.343a1.9 1.9 0 0 1 .86-1.506M80.68 119.546l40.473-23.368c.476-.276.866-.051.866.512v.328a1.92 1.92 0 0 1-.866 1.495L80.68 121.88c-.476.277-.86.057-.86-.512v-.343a1.91 1.91 0 0 1 .86-1.479M80.68 125.378l40.473-23.373c.476-.272.866-.051.866.512v.348a1.905 1.905 0 0 1-.866 1.49L80.68 127.738c-.476.276-.86.051-.86-.512v-.343a1.9 1.9 0 0 1 .86-1.505M80.68 131.23l40.473-23.368c.476-.276.866-.051.866.512v.343a1.93 1.93 0 0 1-.866 1.495L80.68 133.58c-.476.276-.86.051-.86-.512v-.343a1.9 1.9 0 0 1 .86-1.495M80.68 137.061l40.473-23.373c.476-.276.866-.051.866.512v.343a1.92 1.92 0 0 1-.866 1.495L80.68 139.411c-.476.271-.86.051-.86-.512v-.348a1.9 1.9 0 0 1 .86-1.49M80.68 142.888l40.473-23.342c.476-.277.866-.057.866.512v.343c-.018.299-.105.59-.255.85s-.36.48-.611.645L80.68 145.263c-.476.277-.86.052-.86-.512v-.343a1.9 1.9 0 0 1 .86-1.52M75.227 154.177a1.825 1.825 0 0 1-2.475-.764 1.83 1.83 0 0 1-.208-.925V70.245c.014-.34.113-.67.287-.962l1.838 1.06a1.96 1.96 0 0 0-.292.957v82.248c0 .573.374.814.85.629" style="fill:#e0e0e0;fill:color(display-p3 .8784 .8784 .8784);fill-opacity:1"/><path fill="#F7921E" d="m144.291 56.867-13.64 59.095-1.26 5.432a6.28 6.28 0 0 1-2.606 3.528l-80.937 46.699a4.2 4.2 0 0 1-1.915.512 3.9 3.9 0 0 1-2.099-.44l.42-1.802c0-.057 0-.113.041-.174l.456-1.977 1.96-8.571 12.54-54.308a.8.8 0 0 1 .076-.199q.05-.093.108-.179v-.031q.132-.177.317-.297l69.12-39.905 15.125-8.735a.92.92 0 0 1 .834 0l1.117.645a.7.7 0 0 1 .343.707" style="fill:#f7921e;fill:color(display-p3 .9686 .5725 .1176);fill-opacity:1"/><path fill="#000" d="m144.291 56.867-13.64 59.095-1.26 5.432a6.28 6.28 0 0 1-2.606 3.528l-80.937 46.699a4.2 4.2 0 0 1-1.915.512 3.9 3.9 0 0 1-2.099-.44l.42-1.802c0-.057 0-.113.041-.174l.456-1.977 1.96-8.571 12.54-54.308a.8.8 0 0 1 .076-.199q.05-.093.108-.179v-.031q.132-.177.317-.297l69.12-39.905 15.125-8.735a.92.92 0 0 1 .834 0l1.117.645a.7.7 0 0 1 .343.707" opacity=".3" style="fill:#000;fill-opacity:1"/><path fill="#F7921E" d="M144.306 56.744c0-.164-.133-.22-.318-.108l-84.254 48.64a1.1 1.1 0 0 0-.318.292l-1.94-1.121q.132-.177.317-.297l84.245-48.64a.92.92 0 0 1 .834 0l1.116.645a.71.71 0 0 1 .318.589" style="fill:#f7921e;fill:color(display-p3 .9686 .5725 .1176);fill-opacity:1"/><path fill="#000" d="M144.306 56.744c0-.164-.133-.22-.318-.108l-84.254 48.64a1.1 1.1 0 0 0-.318.292l-1.94-1.121q.132-.177.317-.297l84.245-48.64a.92.92 0 0 1 .834 0l1.116.645a.71.71 0 0 1 .318.589" opacity=".2" style="fill:#000;fill-opacity:1"/><path fill="#F7921E" d="M59.416 105.573a2 2 0 0 0-.143.236 2 2 0 0 0-.062.174l-11.99 51.932-2.51 10.947-.317 1.367-.44 1.899a3.9 3.9 0 0 1-2.1-.44l.42-1.802c0-.057 0-.113.041-.174l.456-1.977 1.94-8.565 12.54-54.308a.8.8 0 0 1 .076-.2q.05-.092.108-.179v-.031z" style="fill:#f7921e;fill:color(display-p3 .9686 .5725 .1176);fill-opacity:1"/><path fill="#000" d="M59.416 105.573a2 2 0 0 0-.143.236 2 2 0 0 0-.062.174l-11.99 51.932-2.51 10.947-.317 1.367-.44 1.899a3.9 3.9 0 0 1-2.1-.44l.42-1.802c0-.057 0-.113.041-.174l.456-1.977 1.94-8.565 12.54-54.308a.8.8 0 0 1 .076-.2q.05-.092.108-.179v-.031z" opacity=".5" style="fill:#000;fill-opacity:1"/><path fill="#F7921E" d="M44.804 166.681a.54.54 0 0 1 .256.588l-.686 2.965-.343 1.48a.514.514 0 0 1-.553.419 3.65 3.65 0 0 1-1.644-.44 4.43 4.43 0 0 1-1.94-3.507v-3.405a.54.54 0 0 1 .27-.467.54.54 0 0 1 .539-.004l.865.512a.55.55 0 0 1 .266.466v1.695a.537.537 0 0 0 1.065.123l.144-.63a.54.54 0 0 1 .555-.415q.128.008.238.072z" style="fill:#f7921e;fill:color(display-p3 .9686 .5725 .1176);fill-opacity:1"/><path fill="#000" d="M44.804 166.681a.54.54 0 0 1 .256.588l-.686 2.965-.343 1.48a.514.514 0 0 1-.553.419 3.65 3.65 0 0 1-1.644-.44 4.43 4.43 0 0 1-1.94-3.507v-3.405a.54.54 0 0 1 .27-.467.54.54 0 0 1 .539-.004l.865.512a.55.55 0 0 1 .266.466v1.695a.537.537 0 0 0 1.065.123l.144-.63a.54.54 0 0 1 .555-.415q.128.008.238.072z" opacity=".5" style="fill:#000;fill-opacity:1"/><path fill="#FAFAFA" d="M80.818 158.391a2.09 2.09 0 0 1-.916-1.659V74.49a2.15 2.15 0 0 1 .977-1.69l52.368-30.208a1.83 1.83 0 0 1 1.896-.038 1.84 1.84 0 0 1 .915 1.661v82.238a2.16 2.16 0 0 1-.978 1.694l-52.368 30.208a2.1 2.1 0 0 1-1.894.036" style="fill:#fafafa;fill:color(display-p3 .9804 .9804 .9804);fill-opacity:1"/><path fill="#F0F0F0" d="m82.712 158.36 52.368-30.208a2.15 2.15 0 0 0 .978-1.694V44.21c0-.625-.435-.876-.978-.568L82.712 73.85a2.16 2.16 0 0 0-.978 1.694v82.248c0 .625.436.876.978.568" style="fill:#f0f0f0;fill:color(display-p3 .9412 .9412 .9412);fill-opacity:1"/><path fill="#E0E0E0" d="M82.6 158.422a2.05 2.05 0 0 1-1.767-.031 2.09 2.09 0 0 1-.916-1.654V74.49c.013-.342.112-.674.287-.968l1.833 1.06c-.178.29-.276.622-.287.962v82.253c-.016.568.338.83.85.625M90.29 69.482l36.777-21.217v8.479L90.29 77.977zM87.105 83.327l11.879-6.866c.271-.159.512-.046.512.246a1.02 1.02 0 0 1-.512.814l-11.879 6.866c-.271.158-.512.046-.512-.246a1.02 1.02 0 0 1 .512-.814M87.105 85.452l11.879-6.866c.271-.159.512-.046.512.246a1.06 1.06 0 0 1-.512.814l-11.879 6.866c-.271.153-.512.046-.512-.251a1.02 1.02 0 0 1 .512-.81M87.105 87.571l11.879-6.865c.271-.154.512-.047.512.25a1.06 1.06 0 0 1-.512.814l-11.879 6.866c-.271.154-.512.046-.512-.25a1.06 1.06 0 0 1 .512-.815M87.105 89.696l11.879-6.866c.271-.153.512-.046.512.246a1.02 1.02 0 0 1-.512.814l-11.879 6.866c-.271.159-.512.046-.512-.246a1.06 1.06 0 0 1 .512-.814M119.029 76.574l11.893-6.866c.272-.159.487-.046.487.246a1.049 1.049 0 0 1-.487.814l-11.893 6.866c-.272.158-.512.046-.512-.246a1.02 1.02 0 0 1 .512-.814M119.029 78.693l11.893-6.865c.272-.154.487-.041.487.25a1.05 1.05 0 0 1-.487.814l-11.893 6.866c-.272.154-.512.047-.512-.25a1.05 1.05 0 0 1 .512-.815M119.029 80.818l11.893-6.84c.272-.154.487-.046.487.25a1.02 1.02 0 0 1-.487.81l-11.893 6.866c-.272.158-.512.046-.512-.246a1.05 1.05 0 0 1 .512-.84M119.029 82.943l11.893-6.866c.272-.159.487-.046.487.246a1.03 1.03 0 0 1-.487.814l-11.893 6.866c-.272.159-.512.046-.512-.246a1.02 1.02 0 0 1 .512-.814M87.105 149.149l44.99-25.973c.271-.159.512-.046.512.245a1.02 1.02 0 0 1-.512.814l-44.99 25.979c-.271.154-.512.041-.512-.251a1.05 1.05 0 0 1 .512-.814M87.105 151.29l44.99-25.979c.271-.154.512-.041.512.251a1.06 1.06 0 0 1-.512.814l-44.99 25.938c-.271.159-.512.046-.512-.246a1.03 1.03 0 0 1 .512-.778M116.033 66.62l14.695-8.514c.266-.154.486-.041.486.25a1.06 1.06 0 0 1-.486.815l-14.695 8.514c-.271.154-.486.046-.486-.25a1.05 1.05 0 0 1 .486-.815M116.033 68.745l14.695-8.494c.266-.154.486-.046.486.25a1.06 1.06 0 0 1-.486.815l-14.695 8.489c-.271.158-.486.046-.486-.246a1.05 1.05 0 0 1 .486-.814M116.033 70.87l14.695-8.494c.266-.159.486-.046.486.246a1.01 1.01 0 0 1-.486.814l-14.695 8.494c-.271.158-.486.046-.486-.246a1.03 1.03 0 0 1 .486-.814M116.033 72.995l14.695-8.494c.266-.159.486-.046.486.246a1.06 1.06 0 0 1-.486.814l-14.695 8.494c-.271.153-.486.046-.486-.251a1.03 1.03 0 0 1 .486-.81" style="fill:#e0e0e0;fill:color(display-p3 .8784 .8784 .8784);fill-opacity:1"/><path fill="#455A64" d="M87.244 102.353a.1.1 0 0 1-.062.024.1.1 0 0 1-.061-.024.212.212 0 0 1-.051-.164v-6.487a.5.5 0 0 1 .05-.22.35.35 0 0 1 .124-.154l.855-.512a.087.087 0 0 1 .123 0 .2.2 0 0 1 .056.16v6.481a.5.5 0 0 1-.056.22.3.3 0 0 1-.123.154zM92.154 99.521a.15.15 0 0 1-.18 0 .23.23 0 0 1-.087-.087l-1.495-2.56v3.39a.5.5 0 0 1-.05.22.32.32 0 0 1-.124.153l-.855.512a.1.1 0 0 1-.061.024.1.1 0 0 1-.062-.024.21.21 0 0 1-.05-.163v-6.529q0-.115.05-.22a.4.4 0 0 1 .123-.153l.681-.39a.16.16 0 0 1 .18 0 .5.5 0 0 1 .087.093l1.49 2.56v-3.395a.6.6 0 0 1 .05-.22.35.35 0 0 1 .129-.153l.85-.512a.1.1 0 0 1 .128 0 .24.24 0 0 1 .05.158v6.533a.6.6 0 0 1-.05.22.3.3 0 0 1-.128.149zM95.303 97.704q-.257.147-.343-.205l-1.332-5.504a.4.4 0 0 1 0-.082.435.435 0 0 1 .04-.215.25.25 0 0 1 .104-.123l.819-.476c.087-.051.148-.056.19 0a.24.24 0 0 1 .066.123l.906 3.896.906-4.94a.9.9 0 0 1 .067-.205.5.5 0 0 1 .19-.195l.819-.47a.08.08 0 0 1 .102 0 .2.2 0 0 1 .04.132.1.1 0 0 1 0 .041 1 1 0 0 1 0 .098l-1.325 7.04a.86.86 0 0 1-.348.604zM98.16 91.647a5.7 5.7 0 0 1 .158-1.152c.09-.377.223-.743.394-1.09q.259-.51.63-.943a3.2 3.2 0 0 1 .85-.706c.253-.165.544-.26.845-.277a.97.97 0 0 1 .63.22c.183.166.317.378.389.615.097.313.151.639.159.967v1.787q-.024.581-.159 1.147-.136.573-.4 1.1a4.2 4.2 0 0 1-.629.943 3.3 3.3 0 0 1-.845.701 1.8 1.8 0 0 1-.85.282.94.94 0 0 1-.63-.22 1.44 1.44 0 0 1-.394-.64c-.1-.313-.154-.64-.159-.968v-.875c-.005-.292 0-.6.01-.891m2.856.087v-1.69a1.6 1.6 0 0 0-.066-.42.66.66 0 0 0-.154-.276.38.38 0 0 0-.251-.102.7.7 0 0 0-.353.112q-.2.12-.353.297-.15.178-.251.39a2.697 2.697 0 0 0-.225.968v1.6840000000000002c-.007.254.073.502.225.706.133.143.333.138.604 0 .267-.155.477-.392.599-.676.14-.314.221-.65.241-.993zM103.162 93.163a.093.093 0 0 1-.123 0 .2.2 0 0 1-.051-.164v-6.487q0-.117.051-.22a.35.35 0 0 1 .123-.154l.855-.512a.09.09 0 0 1 .061-.025.1.1 0 0 1 .062.025.2.2 0 0 1 .056.159v6.482a.5.5 0 0 1-.056.22.32.32 0 0 1-.123.153zM106.152 87.08v1.69q.006.205.056.404a.6.6 0 0 0 .143.287.35.35 0 0 0 .251.112.65.65 0 0 0 .369-.117q.21-.114.369-.292c.17-.193.297-.42.373-.666q.048-.168.072-.307.025-.136.072-.266a.33.33 0 0 1 .153-.149l.85-.512a.08.08 0 0 1 .103 0 .2.2 0 0 1 .034.06q.01.033.007.068a4 4 0 0 1-.159 1.06 5.2 5.2 0 0 1-.43 1.024 5 5 0 0 1-.645.901c-.23.26-.5.48-.799.656-.25.16-.538.253-.835.266a.94.94 0 0 1-.629-.225 1.4 1.4 0 0 1-.405-.635 3.5 3.5 0 0 1-.159-.958v-1.787q.018-.576.159-1.136c.092-.38.226-.75.4-1.101.171-.341.382-.661.629-.952a3.2 3.2 0 0 1 .84-.697c.24-.153.515-.244.799-.266.225-.015.45.039.645.154.192.133.341.32.43.537.111.275.165.57.159.865a.4.4 0 0 1-.041.185.3.3 0 0 1-.103.123l-.85.512c-.076.04-.128.05-.153 0a.5.5 0 0 1-.072-.185 1 1 0 0 0-.072-.215.45.45 0 0 0-.143-.179.37.37 0 0 0-.23-.056.8.8 0 0 0-.369.128q-.213.121-.369.312-.155.181-.251.4a2 2 0 0 0-.143.45 3 3 0 0 0-.056.507M112.946 85.907a.107.107 0 0 1 .128 0 .23.23 0 0 1 .051.159v1.065a.54.54 0 0 1-.051.22.3.3 0 0 1-.128.154l-3.072 1.782a.093.093 0 0 1-.123 0 .2.2 0 0 1-.042-.077q-.013-.043-.009-.087v-6.477c0-.076.018-.152.051-.22a.35.35 0 0 1 .123-.154l3.036-1.751a.093.093 0 0 1 .123 0q.03.034.045.076.015.043.011.088v1.065a.5.5 0 0 1-.056.22.28.28 0 0 1-.123.148l-2.007 1.163v1.08l1.864-1.075q.077-.039.123 0a.2.2 0 0 1 .056.159v1.065a.5.5 0 0 1-.056.22.3.3 0 0 1-.123.153l-1.864 1.076v1.126z" style="fill:#455a64;fill:color(display-p3 .2706 .3529 .3922);fill-opacity:1"/><path fill="#F7921E" d="m86.614 105.906 45.972-26.542v1.06l-45.972 26.542z" style="fill:#f7921e;fill:color(display-p3 .9686 .5725 .1176);fill-opacity:1"/><path fill="#000" d="m86.614 105.906 45.972-26.542v1.06l-45.972 26.542z" opacity=".2" style="fill:#000;fill-opacity:1"/><path fill="#F7921E" d="m86.614 133.508 45.972-26.542v1.06l-45.972 26.542z" style="fill:#f7921e;fill:color(display-p3 .9686 .5725 .1176);fill-opacity:1"/><path fill="#000" d="m86.614 133.508 45.972-26.542v1.06l-45.972 26.542z" opacity=".2" style="fill:#000;fill-opacity:1"/><path fill="#F7921E" d="m86.614 109.091 16.548-9.56v2.126l-16.548 9.553zM106.843 97.412l7.352-4.25v2.125l-7.352 4.245zM116.033 92.103l7.358-4.25v2.125l-7.358 4.25zM125.229 86.793l7.357-4.244v2.12l-7.357 4.25z" style="fill:#f7921e;fill:color(display-p3 .9686 .5725 .1176);fill-opacity:1"/><path fill="#E6E6E6" d="m86.614 115.46 45.972-26.542v4.244l-45.972 26.543zM86.614 123.954l45.972-26.542v4.245l-45.972 26.542z" style="fill:#e6e6e6;fill:color(display-p3 .902 .902 .902);fill-opacity:1"/><path fill="#455A64" d="M88.452 112.613a.34.34 0 0 1-.32-.254.34.34 0 0 1 .151-.38l12.872-7.43a.34.34 0 0 1 .376.026.33.33 0 0 1 .129.225.33.33 0 0 1-.068.251.3.3 0 0 1-.099.087l-12.872 7.429a.33.33 0 0 1-.169.046M108.681 100.023a.246.246 0 0 1-.2-.112.2.2 0 0 1-.029-.084.2.2 0 0 1 .007-.089.225.225 0 0 1 .109-.135l5.515-3.184a.224.224 0 0 1 .307.082.22.22 0 0 1 .027.172.2.2 0 0 1-.04.079.2.2 0 0 1-.069.056l-5.514 3.185a.23.23 0 0 1-.113.03M108.681 101.544a.24.24 0 0 1-.2-.113.2.2 0 0 1-.029-.085.2.2 0 0 1 .007-.089.2.2 0 0 1 .041-.08.2.2 0 0 1 .068-.058l5.515-3.185a.224.224 0 0 1 .307.082.2.2 0 0 1 .032.084.23.23 0 0 1-.045.17.2.2 0 0 1-.069.059l-5.514 3.184a.24.24 0 0 1-.113.031M117.877 95.513a.224.224 0 0 1-.2-.113.226.226 0 0 1 .082-.307l5.519-3.195a.23.23 0 0 1 .171-.025.21.21 0 0 1 .136.107.226.226 0 0 1-.081.307l-5.515 3.195a.24.24 0 0 1-.112.03M127.067 90.203a.2.2 0 0 1-.113-.029.23.23 0 0 1-.104-.254.23.23 0 0 1 .104-.137l5.52-3.184a.22.22 0 0 1 .176-.033.226.226 0 0 1 .165.285.23.23 0 0 1-.116.137l-5.519 3.19a.2.2 0 0 1-.113.025M88.452 116.863a.34.34 0 0 1-.32-.255.34.34 0 0 1 .151-.38l9.216-5.309a.344.344 0 0 1 .46.123.33.33 0 0 1-.022.378.3.3 0 0 1-.1.088l-9.216 5.309a.33.33 0 0 1-.169.046M108.681 104.273a.24.24 0 0 1-.2-.113.231.231 0 0 1 .087-.312l5.515-3.185a.225.225 0 0 1 .307.082.2.2 0 0 1 .032.084.23.23 0 0 1-.045.171.2.2 0 0 1-.069.058l-5.514 3.184a.24.24 0 0 1-.113.031M108.681 105.788a.23.23 0 0 1-.114-.031.24.24 0 0 1-.086-.081.2.2 0 0 1-.029-.084.217.217 0 0 1 .116-.223l5.515-3.185a.2.2 0 0 1 .083-.03.2.2 0 0 1 .088.005.23.23 0 0 1 .136.107.223.223 0 0 1 .027.172.3.3 0 0 1-.04.079.2.2 0 0 1-.069.056l-5.514 3.185a.24.24 0 0 1-.113.03M117.877 99.762a.225.225 0 0 1-.223-.285.23.23 0 0 1 .105-.14l5.519-3.184a.226.226 0 0 1 .307.082.23.23 0 0 1-.082.312l-5.514 3.185a.23.23 0 0 1-.112.03M127.067 94.458a.23.23 0 0 1-.195-.113.231.231 0 0 1 .082-.312l5.52-3.185a.224.224 0 0 1 .307.082.23.23 0 0 1-.082.312l-5.519 3.185a.2.2 0 0 1-.113.03M88.452 121.107a.34.34 0 0 1-.32-.254.35.35 0 0 1 .151-.381l14.71-8.494a.344.344 0 0 1 .466.128.33.33 0 0 1 .031.257.35.35 0 0 1-.159.204l-14.71 8.515a.34.34 0 0 1-.169.025M108.681 108.517a.23.23 0 0 1-.114-.031.24.24 0 0 1-.086-.081.2.2 0 0 1-.029-.084.217.217 0 0 1 .116-.223l5.515-3.185a.225.225 0 0 1 .307.082.223.223 0 0 1 .027.172.3.3 0 0 1-.04.079.2.2 0 0 1-.069.056l-5.514 3.185a.24.24 0 0 1-.113.03M108.681 110.038a.24.24 0 0 1-.2-.113.2.2 0 0 1-.029-.085.2.2 0 0 1 .007-.089.2.2 0 0 1 .041-.08.2.2 0 0 1 .068-.058l5.515-3.185a.227.227 0 0 1 .331.257.23.23 0 0 1-.106.138l-5.514 3.184a.24.24 0 0 1-.113.031M117.877 104.007a.225.225 0 0 1-.118-.42l5.519-3.185a.222.222 0 0 1 .172-.027.2.2 0 0 1 .079.041.2.2 0 0 1 .056.068.226.226 0 0 1-.081.307l-5.515 3.185a.23.23 0 0 1-.112.031M127.067 98.697a.227.227 0 0 1-.217-.167.23.23 0 0 1 .104-.253l5.52-3.184a.22.22 0 0 1 .176-.032.23.23 0 0 1 .173.193q.004.046-.008.091a.23.23 0 0 1-.116.137l-5.519 3.184a.2.2 0 0 1-.113.031M88.452 125.357a.35.35 0 0 1-.32-.255.34.34 0 0 1 .151-.38l7.358-4.25a.34.34 0 0 1 .496.383.34.34 0 0 1-.159.206l-7.357 4.25a.33.33 0 0 1-.169.046M108.681 112.767a.24.24 0 0 1-.2-.113.2.2 0 0 1-.029-.085.2.2 0 0 1 .007-.089.2.2 0 0 1 .041-.08.2.2 0 0 1 .068-.058l5.515-3.184a.225.225 0 0 1 .307.081.222.222 0 0 1-.082.313l-5.514 3.184a.23.23 0 0 1-.113.031M108.681 114.283a.25.25 0 0 1-.114-.031.25.25 0 0 1-.086-.082.2.2 0 0 1-.029-.084.2.2 0 0 1 .007-.088.2.2 0 0 1 .041-.079.2.2 0 0 1 .068-.056l5.515-3.185a.2.2 0 0 1 .084-.034.232.232 0 0 1 .175.04.24.24 0 0 1 .09.155.23.23 0 0 1-.124.228l-5.514 3.185a.25.25 0 0 1-.113.031M117.877 108.282a.22.22 0 0 1-.2-.113.23.23 0 0 1 .082-.312l5.519-3.185a.226.226 0 0 1 .33.255.23.23 0 0 1-.105.139l-5.514 3.185a.23.23 0 0 1-.112.031M127.067 102.947a.2.2 0 0 1-.112-.031.225.225 0 0 1-.105-.255.23.23 0 0 1 .104-.139l5.52-3.185a.224.224 0 0 1 .307.082.23.23 0 0 1-.082.313l-5.519 3.184a.2.2 0 0 1-.113.031M88.452 129.601a.34.34 0 0 1-.32-.254.34.34 0 0 1 .151-.38l12.872-7.43a.34.34 0 0 1 .389.01.33.33 0 0 1 .134.232.342.342 0 0 1-.185.342l-12.872 7.434a.33.33 0 0 1-.169.046M108.681 117.011a.23.23 0 0 1-.114-.031.24.24 0 0 1-.086-.081.2.2 0 0 1-.029-.084.217.217 0 0 1 .048-.167.2.2 0 0 1 .068-.057l5.515-3.189a.218.218 0 0 1 .307.082.218.218 0 0 1-.013.251.2.2 0 0 1-.069.056l-5.514 3.195a.25.25 0 0 1-.113.025M108.681 118.522a.239.239 0 0 1-.229-.202.2.2 0 0 1 .007-.088.2.2 0 0 1 .041-.079.2.2 0 0 1 .068-.056l5.515-3.159a.225.225 0 0 1 .307.082.217.217 0 0 1-.013.251.2.2 0 0 1-.069.056l-5.514 3.195a.24.24 0 0 1-.113 0M117.877 112.501a.225.225 0 0 1-.118-.42l5.519-3.19a.223.223 0 0 1 .307.087.226.226 0 0 1-.081.307l-5.515 3.185a.23.23 0 0 1-.112.031M127.067 107.191a.22.22 0 0 1-.217-.167.23.23 0 0 1 .104-.253l5.52-3.184a.218.218 0 0 1 .307.082.22.22 0 0 1 .022.17.22.22 0 0 1-.104.137l-5.519 3.184a.2.2 0 0 1-.113.031M117.877 118.87a.225.225 0 0 1-.118-.42l5.519-3.184a.23.23 0 0 1 .176-.033q.046.01.083.039a.2.2 0 0 1 .061.068.2.2 0 0 1 .029.087.22.22 0 0 1-.052.171.2.2 0 0 1-.071.057l-5.515 3.184a.23.23 0 0 1-.112.031M127.067 113.56a.23.23 0 0 1-.137-.046.23.23 0 0 1-.08-.12.225.225 0 0 1 .104-.253l5.52-3.185a.2.2 0 0 1 .084-.034.232.232 0 0 1 .175.04.3.3 0 0 1 .061.068.3.3 0 0 1 .029.087.228.228 0 0 1-.124.228l-5.514 3.185a.23.23 0 0 1-.118.03M117.877 120.995a.225.225 0 0 1-.118-.42l5.519-3.19a.24.24 0 0 1 .173-.022.23.23 0 0 1 .159.279.23.23 0 0 1-.106.138l-5.515 3.184a.23.23 0 0 1-.112.031M127.067 115.685a.23.23 0 0 1-.137-.046.23.23 0 0 1-.08-.121.23.23 0 0 1 .104-.253l5.52-3.184a.2.2 0 0 1 .083-.03.219.219 0 0 1 .224.112.22.22 0 0 1 .022.17.22.22 0 0 1-.104.137l-5.514 3.185a.23.23 0 0 1-.118.03" style="fill:#455a64;fill:color(display-p3 .2706 .3529 .3922);fill-opacity:1"/><path fill="#F7921E" d="m132.586 114.4-29.424 16.983v6.37l29.424-16.983z" style="fill:#f7921e;fill:color(display-p3 .9686 .5725 .1176);fill-opacity:1"/><path fill="#FAFAFA" d="M108.676 129.704a.04.04 0 0 1 .031-.012q.017 0 .03.012a.1.1 0 0 1 0 .076v.512a.3.3 0 0 1 0 .108.1.1 0 0 1-.023.042.2.2 0 0 1-.038.03l-.553.322v2.483a.2.2 0 0 1 0 .103.2.2 0 0 1-.056.077l-.415.235-.014.01a.03.03 0 0 1-.017.004.04.04 0 0 1-.017-.004.03.03 0 0 1-.013-.01.1.1 0 0 1 0-.077v-2.483l-.559.323a.05.05 0 0 1-.028.009.05.05 0 0 1-.028-.009.1.1 0 0 1-.025-.077v-.512a.3.3 0 0 1 .025-.108.2.2 0 0 1 .056-.076zM108.937 130.81q.01-.283.077-.558a2.4 2.4 0 0 1 .491-.968q.176-.204.41-.338a.87.87 0 0 1 .41-.133.45.45 0 0 1 .302.108c.091.08.159.185.194.302q.074.23.077.471v.86a2.5 2.5 0 0 1-.271 1.065 2.3 2.3 0 0 1-.302.456 1.8 1.8 0 0 1-.41.338.9.9 0 0 1-.41.133.45.45 0 0 1-.302-.108.66.66 0 0 1-.189-.307 1.5 1.5 0 0 1-.077-.466v-.42c0-.148-.005-.287 0-.435m1.377.041v-.8140000000000001a1 1 0 0 0-.03-.205.4.4 0 0 0-.077-.133.16.16 0 0 0-.123-.046.3.3 0 0 0-.169.051.6.6 0 0 0-.169.143 1 1 0 0 0-.123.19 1 1 0 0 0-.072.22 1.3 1.3 0 0 0-.035.241v.8140000000000001a.58.58 0 0 0 .107.338c.067.071.164.066.292 0a.7.7 0 0 0 .292-.323c.062-.148.098-.306.107-.466zM112.844 127.298a.056.056 0 0 1 .061 0 .1.1 0 0 1 .026.076v.512a.3.3 0 0 1-.026.108.3.3 0 0 1-.061.077l-.553.317v2.483a.3.3 0 0 1-.026.108.15.15 0 0 1-.061.072l-.41.235h-.061a.1.1 0 0 1 0-.077v-2.483l-.553.318a.06.06 0 0 1-.062 0 .1.1 0 0 1 0-.077v-.512a.3.3 0 0 1 0-.108.2.2 0 0 1 .062-.071zM114.154 126.54a.1.1 0 0 1 .049-.016q.027 0 .049.016a.2.2 0 0 1 .046.082l.686 2.652a.4.4 0 0 1 0 .067.2.2 0 0 1 0 .087.14.14 0 0 1-.051.056l-.395.23q-.061.039-.092 0a.12.12 0 0 1-.031-.061l-.087-.348-.834.481-.092.451a.3.3 0 0 1-.031.102.23.23 0 0 1-.092.092l-.394.231a.04.04 0 0 1-.023.008.04.04 0 0 1-.024-.008.1.1 0 0 1 0-.062.3.3 0 0 1 0-.082l.687-3.446a.4.4 0 0 1 .046-.133.23.23 0 0 1 .092-.107zm-.512 2.411.512-.291-.256-1.024zM116.791 127.635l.013-.01.015-.003q.009 0 .016.003l.012.01a.1.1 0 0 1 .026.077v.512a.3.3 0 0 1-.026.108.14.14 0 0 1-.056.071l-1.459.871-.013.01-.015.003-.016-.003-.012-.01a.09.09 0 0 1-.026-.077v-3.123a.2.2 0 0 1 .026-.108.2.2 0 0 1 .056-.077l.415-.235a.04.04 0 0 1 .028-.011q.016 0 .028.011a.09.09 0 0 1 0 .077v2.483zM123.386 121.143a.5.5 0 0 1 .271 0q.113.023.195.102a.693.693 0 0 1 .169.405.24.24 0 0 1 0 .107.1.1 0 0 1-.024.042.1.1 0 0 1-.038.03l-.22.128h-.082a.2.2 0 0 1-.046-.056.28.28 0 0 0-.143-.128.4.4 0 0 0-.287.077.76.76 0 0 0-.282.266.8.8 0 0 0-.087.174.6.6 0 0 0-.031.184.3.3 0 0 0 .031.159.14.14 0 0 0 .113.056.6.6 0 0 0 .2 0l.291-.066q.16-.042.323-.036c.079.001.155.03.215.082a.4.4 0 0 1 .118.2q.039.163.036.332-.001.196-.047.384-.047.195-.138.374a1.8 1.8 0 0 1-.22.343 1.7 1.7 0 0 1-.292.292v.328a.2.2 0 0 1-.025.107.17.17 0 0 1-.057.072l-.256.148a.05.05 0 0 1-.03.011.05.05 0 0 1-.031-.011.1.1 0 0 1-.026-.076v-.328a.7.7 0 0 1-.266.036.4.4 0 0 1-.215-.072.43.43 0 0 1-.148-.179.7.7 0 0 1-.062-.302.2.2 0 0 1 0-.108.2.2 0 0 1 .062-.071l.22-.128c.036 0 .061-.026.082 0 .02.025.035.025.046.056a.5.5 0 0 0 .056.097q.03.046.082.062.066.015.133 0a.7.7 0 0 0 .2-.087q.098-.053.184-.123a.9.9 0 0 0 .261-.354.56.56 0 0 0 .033-.288.2.2 0 0 0-.038-.07.2.2 0 0 0-.063-.032.2.2 0 0 0-.07-.004.8.8 0 0 0-.22.036l-.307.061a.7.7 0 0 1-.272 0 .3.3 0 0 1-.194-.082.44.44 0 0 1-.118-.204 1.4 1.4 0 0 1-.036-.354q0-.192.046-.378.049-.19.133-.364.078-.177.2-.328.111-.147.251-.271v-.328a.3.3 0 0 1 .025-.107.15.15 0 0 1 .062-.072l.256-.148a.04.04 0 0 1 .028-.01q.016 0 .028.01.016.014.022.035a.1.1 0 0 1 .004.041zM125.572 119.884a.6.6 0 0 1 .271 0 .5.5 0 0 1 .195.102.5.5 0 0 1 .118.19q.046.105.046.22a.2.2 0 0 1 0 .107.2.2 0 0 1-.062.072l-.22.128c-.036 0-.061.026-.082 0a.14.14 0 0 1-.046-.056.24.24 0 0 0-.143-.128c-.067 0-.159 0-.287.071a.84.84 0 0 0-.282.272.6.6 0 0 0-.117.353.33.33 0 0 0 .03.164q.021.025.051.04t.062.016a.7.7 0 0 0 .2 0l.291-.066a.9.9 0 0 1 .318-.036.36.36 0 0 1 .215.076q.091.085.123.205.036.164.036.333 0 .193-.052.379a1.82 1.82 0 0 1-.645 1.009v.307a.25.25 0 0 1-.025.107.16.16 0 0 1-.062.077l-.251.143h-.061a.13.13 0 0 1 0-.081v-.328a.7.7 0 0 1-.266.041.418.418 0 0 1-.364-.256.7.7 0 0 1-.066-.297.2.2 0 0 1 .025-.108.1.1 0 0 1 .024-.042.1.1 0 0 1 .038-.029l.22-.128a.1.1 0 0 1 .082 0 .1.1 0 0 1 .029.026q.012.015.017.035a.4.4 0 0 0 .056.097q.034.042.082.062.067.015.133 0a.6.6 0 0 0 .2-.082q.098-.056.184-.128a.9.9 0 0 0 .261-.348.56.56 0 0 0 .034-.289.2.2 0 0 0-.039-.07.2.2 0 0 0-.062-.034q-.035-.01-.071-.007a2 2 0 0 0-.22.036l-.307.067a.9.9 0 0 1-.272 0 .36.36 0 0 1-.199-.082.45.45 0 0 1-.113-.21 1.3 1.3 0 0 1-.036-.353 1.5 1.5 0 0 1 .021-.379 1.8 1.8 0 0 1 .128-.364q.083-.173.199-.327.113-.15.256-.272v-.327a.3.3 0 0 1 0-.108.1.1 0 0 1 .024-.042.1.1 0 0 1 .038-.03l.251-.148h.061a.1.1 0 0 1 .026.077zM127.758 118.624a.5.5 0 0 1 .272 0q.111.025.194.103a.5.5 0 0 1 .118.184.8.8 0 0 1 .046.225.24.24 0 0 1-.021.099.24.24 0 0 1-.061.081l-.22.122c-.036.026-.067.026-.082 0a.1.1 0 0 1-.051-.056.251.251 0 0 0-.144-.128.4.4 0 0 0-.281.077.8.8 0 0 0-.159.118q-.07.069-.128.148a1 1 0 0 0-.087.174.6.6 0 0 0-.031.185q-.003.084.036.158a.13.13 0 0 0 .113.057.7.7 0 0 0 .2 0l.291-.072q.157-.042.318-.036a.37.37 0 0 1 .215.082.36.36 0 0 1 .118.205q.04.164.035.333 0 .191-.046.379a1.7 1.7 0 0 1-.138.373 1.6 1.6 0 0 1-.215.343 2 2 0 0 1-.292.292v.328a.3.3 0 0 1-.025.107.1.1 0 0 1-.024.042.1.1 0 0 1-.038.03l-.256.149a.041.041 0 0 1-.056 0 .1.1 0 0 1-.026-.077v-.328a.6.6 0 0 1-.266.036.43.43 0 0 1-.215-.067.45.45 0 0 1-.154-.184.8.8 0 0 1-.061-.302.2.2 0 0 1 .026-.108.16.16 0 0 1 .061-.071l.22-.128h.082a.13.13 0 0 1 .046.061 1 1 0 0 0 .051.092.16.16 0 0 0 .087.062q.067.02.134 0a.7.7 0 0 0 .199-.082l.185-.128a1.3 1.3 0 0 0 .153-.164q.061-.088.108-.184a.6.6 0 0 0 .041-.21.21.21 0 0 0-.046-.154.2.2 0 0 0-.063-.031.2.2 0 0 0-.071-.005 1 1 0 0 0-.22.036l-.307.062a1 1 0 0 1-.276.025.32.32 0 0 1-.195-.087.44.44 0 0 1-.113-.205 1.4 1.4 0 0 1-.041-.353q0-.192.052-.379a1.84 1.84 0 0 1 .583-.962v-.369a.3.3 0 0 1 .026-.108.2.2 0 0 1 .056-.071l.256-.149a.06.06 0 0 1 .031-.01q.017 0 .031.01a.1.1 0 0 1 .025.077zM129.944 117.359a.5.5 0 0 1 .267 0 .35.35 0 0 1 .194.103.46.46 0 0 1 .123.184.8.8 0 0 1 .046.22.2.2 0 0 1-.025.108.12.12 0 0 1-.062.071l-.22.128q-.056.031-.077 0a.13.13 0 0 1-.051-.056.24.24 0 0 0-.143-.128.354.354 0 0 0-.282.072 1 1 0 0 0-.159.118.9.9 0 0 0-.215.327.6.6 0 0 0-.03.179.28.28 0 0 0 .035.164q.02.028.05.043a.2.2 0 0 0 .063.014.6.6 0 0 0 .195 0l.297-.067a1 1 0 0 1 .317-.036.37.37 0 0 1 .215.077c.059.055.1.126.118.205q.04.164.036.333a1.7 1.7 0 0 1-.046.384 1.957 1.957 0 0 1-.354.716 1.7 1.7 0 0 1-.292.287v.333a.3.3 0 0 1-.025.107.3.3 0 0 1-.062.072l-.256.149a.05.05 0 0 1-.028.009.05.05 0 0 1-.028-.009.1.1 0 0 1-.022-.036.1.1 0 0 1-.004-.041v-.333a.65.65 0 0 1-.266.041.45.45 0 0 1-.22-.072.46.46 0 0 1-.148-.179.8.8 0 0 1-.062-.302.17.17 0 0 1 .026-.108.1.1 0 0 1 .023-.042.1.1 0 0 1 .038-.029l.22-.128a.1.1 0 0 1 .039-.011q.02 0 .038.011s.036 0 .051.056a.3.3 0 0 0 .052.097.15.15 0 0 0 .087.062q.066.015.133 0a.6.6 0 0 0 .199-.082q.097-.054.18-.128a1 1 0 0 0 .158-.159 1 1 0 0 0 .103-.189.5.5 0 0 0 .041-.21.23.23 0 0 0-.041-.149.2.2 0 0 0-.133-.041 2 2 0 0 0-.226.036q-.149.042-.302.067a1 1 0 0 1-.276 0 .33.33 0 0 1-.195-.082.4.4 0 0 1-.112-.21 1.3 1.3 0 0 1-.041-.353q0-.19.046-.374.05-.188.133-.364.083-.173.199-.327.114-.149.256-.272v-.327a.2.2 0 0 1 .026-.108.14.14 0 0 1 .056-.072l.256-.148a.05.05 0 0 1 .031-.012q.017 0 .031.012a.1.1 0 0 1 .025.077z" style="fill:#fafafa;fill:color(display-p3 .9804 .9804 .9804);fill-opacity:1"/><path fill="#455A64" d="M88.452 140.102a.2.2 0 0 1-.113-.028.2.2 0 0 1-.082-.084.226.226 0 0 1 .082-.307l11.034-6.37a.218.218 0 0 1 .171-.024.21.21 0 0 1 .136.106.226.226 0 0 1-.082.307l-11.033 6.375a.2.2 0 0 1-.113.025M88.452 142.228a.227.227 0 0 1-.207-.311.23.23 0 0 1 .094-.109l11.034-6.39a.2.2 0 0 1 .083-.032.22.22 0 0 1 .168.045.2.2 0 0 1 .056.069.224.224 0 0 1-.082.307l-11.034 6.369a.2.2 0 0 1-.112.052M88.452 144.352a.22.22 0 0 1-.195-.112.23.23 0 0 1 .082-.313l11.034-6.369a.226.226 0 0 1 .307.082.23.23 0 0 1-.082.312l-11.033 6.369a.2.2 0 0 1-.113.031M180.395 180.21c-.062 1.05-.18 2.002.251 3.149.619 1.648 1.873 2.386 2.616 3.026a12.7 12.7 0 0 1 2.171 2.524 10.8 10.8 0 0 0 2.268 2.719c.701.583 2.647.599 3.584.189s1.239-.773 1.152-2.273-4.639-1.915-4.639-1.915z" style="fill:#455a64;fill:color(display-p3 .2706 .3529 .3922);fill-opacity:1"/><path fill="#F7921E" d="M191.751 185.09c.389.138.512.875.589 2.345.066 1.106.568 2.724-.948 3.451-1.223.588-3.2.256-4.055-.774-1.07-1.285-1.792-2.421-3.307-3.983-1.316-1.357-2.668-1.797-3.297-4.546-.4-1.772-.128-2.514 1.059-3.072 1.629-.733 4.255 1.505 5.55 1.838 1.117.312 4.02 4.602 4.409 4.741" style="fill:#f7921e;fill:color(display-p3 .9686 .5725 .1176);fill-opacity:1"/><path fill="#000" d="M191.751 185.09c.389.138.512.875.589 2.345.066 1.106.568 2.724-.948 3.451-1.223.588-3.2.256-4.055-.774-1.07-1.285-1.792-2.421-3.307-3.983-1.316-1.357-2.668-1.797-3.297-4.546-.4-1.772-.128-2.514 1.059-3.072 1.629-.733 4.255 1.505 5.55 1.838 1.117.312 4.02 4.602 4.409 4.741" opacity=".4" style="fill:#000;fill-opacity:1"/><path fill="#FAFAFA" d="M187.342 180.374a1.5 1.5 0 0 1-.22-.072 4.24 4.24 0 0 0-3.512 2.407c-.21.486.476.85.87.466a4.51 4.51 0 0 1 3.508-2.391 1.9 1.9 0 0 0-.646-.41" style="fill:#fafafa;fill:color(display-p3 .9804 .9804 .9804);fill-opacity:1"/><path fill="#FAFAFA" d="M188.423 181.188a4.21 4.21 0 0 0-3.262 2.381c-.21.486.476.85.871.466a4.33 4.33 0 0 1 2.918-2.274 16 16 0 0 0-.527-.573" style="fill:#fafafa;fill:color(display-p3 .9804 .9804 .9804);fill-opacity:1"/><path fill="#455A64" d="M160.196 203.322c-.225 1.249.236 1.884 1.859 2.78s4.147 1.162 6.784.338 3.876-2.007 4.971-2.304 3.82-.374 4.9-.717 1.055-.896 1.024-2.201z" style="fill:#455a64;fill:color(display-p3 .2706 .3529 .3922);fill-opacity:1"/><path fill="#F7921E" d="M178.536 194.93q.504 1.44.855 2.924c.246 1.08.599 2.898.236 3.722-.364.824-1.844 1.387-4.153 1.413-1.49 0-3.799 1.08-5.376 2.002s-3.41.993-5.156.824c-2.048-.199-4.208-1.351-4.556-2.191-.349-.84-.446-1.48 4.347-3.635.046 0 5.57-2.187 7.859-4.818z" style="fill:#f7921e;fill:color(display-p3 .9686 .5725 .1176);fill-opacity:1"/><path fill="#000" d="M178.536 194.93q.504 1.44.855 2.924c.246 1.08.599 2.898.236 3.722-.364.824-1.844 1.387-4.153 1.413-1.49 0-3.799 1.08-5.376 2.002s-3.41.993-5.156.824c-2.048-.199-4.208-1.351-4.556-2.191-.349-.84-.446-1.48 4.347-3.635.046 0 5.57-2.187 7.859-4.818z" opacity=".4" style="fill:#000;fill-opacity:1"/><path fill="#FAFAFA" d="M169.448 205.324s-.512-4.147-3.896-5.263c-3.072-1.024-5.694 1.3-5.356 3.261.225 1.311 3.999 4.245 9.252 2.002M166.386 199.262a3.94 3.94 0 0 1 2.325.978c.993.799 1.024 1.346 1.024 1.346a.512.512 0 0 0 .87-.44s-.266-2.089-3.031-2.463a1.13 1.13 0 0 0-1.188.579M168.301 198.299c.864-.008 1.7.306 2.345.881.988.799 1.024 1.444 1.024 1.444a.51.51 0 0 0 .828-.123.5.5 0 0 0 .048-.318s-.272-2.089-3.037-2.462a1.123 1.123 0 0 0-1.208.578M170.19 197.168a3.47 3.47 0 0 1 2.402.717c1.024.732 1.106 1.372 1.106 1.372a.51.51 0 0 0 .612.059.515.515 0 0 0 .227-.571s-.414-2.048-3.195-2.253a1.13 1.13 0 0 0-1.152.676" style="fill:#fafafa;fill:color(display-p3 .9804 .9804 .9804);fill-opacity:1"/><path fill="#FFA8A7" d="m191.7 182.719.056 2.816s-1.843 1.475-4.547.215c-.082-.174-.368-2.933-.368-2.933zM178.5 192.984s0 1.337.041 2.1c.041.762-.855 1.92-3.195 1.884-1.638 0-2.795-.446-2.754-1.797l-.041-1.946z" style="fill:#ffa8a7;fill:color(display-p3 1 .6588 .6549);fill-opacity:1"/><path fill="#455A64" d="M194.259 158.757c-.271-5.939-1.536-8.519-1.536-8.519s.308-7.347 1.117-16.354c1.228-13.706.143-15.738-2.678-21.836 0 0-22.728-2.478-23.24 7.106-.635 11.93-.742 34.698-.338 38.912.405 4.214.681 5.832 1.874 14.336.942 6.723 3.103 20.839 3.103 20.839 3.072 1.592 5.949-.241 5.949-.241s1.434-22.303 1.142-27.136c-.363-5.924-.727-7.429-.727-7.429s2.304-19.251 2.662-22.349c0 0 .482 5.525.886 9.728.405 4.204.441 7.598 1.5 16.287.835 6.814 2.816 21.504 2.816 21.504a5.638 5.638 0 0 0 5.013-.471s2.673-19.574 2.457-24.377" style="fill:#455a64;fill:color(display-p3 .2706 .3529 .3922);fill-opacity:1"/><path fill="#FAFAFA" d="M181.531 183.61s.062-3.292 4.496-3.84l.261.143a3.85 3.85 0 0 0-2.222-1.643c-1.485-.374-2.647.035-3.4 1.049s.082 3.666.865 4.291" style="fill:#fafafa;fill:color(display-p3 .9804 .9804 .9804);fill-opacity:1"/><path fill="#37474F" d="m181.577 136.05.287-3.937a32.2 32.2 0 0 0 7.025-3.528 9.48 9.48 0 0 1-5.632 4.296l-.707 3.861-.087 9.011z" style="fill:#37474f;fill:color(display-p3 .2157 .2784 .3098);fill-opacity:1"/><path fill="#FFA8A7" d="m212.948 160.375-7.005 20.429a.654.654 0 0 1-1.244 0l-6.907-20.593z" style="fill:#ffa8a7;fill:color(display-p3 1 .6588 .6549);fill-opacity:1"/><path fill="#263238" d="M204.715 180.799a.65.65 0 0 0 .622.449.65.65 0 0 0 .622-.449l1.367-3.989a3.63 3.63 0 0 1-3.784-.209l-.302-.21z" style="fill:#263238;fill:color(display-p3 .149 .1961 .2196);fill-opacity:1"/><path fill="#F7921E" d="M198.059 69.117v4.408l-.246 86.682c1.602 1.833 3.978 2.759 6.385 3.005 3.665.379 7.424-.819 8.765-2.836l.246-86.63v-4.609c-.19 2.985-15.289 2.975-15.15-.02" style="fill:#f7921e;fill:color(display-p3 .9686 .5725 .1176);fill-opacity:1"/><path fill="#000" d="M198.059 69.117v4.408l-.246 86.682c1.602 1.833 3.978 2.759 6.385 3.005 3.665.379 7.424-.819 8.765-2.836l.246-86.63v-4.609c-.19 2.985-15.289 2.975-15.15-.02" opacity=".25" style="fill:#000;fill-opacity:1"/><path fill="#EBEBEB" d="M198.007 76.725v4.464c-.046 1.296 2.709 2.13 5.894 2.422 4.224.4 9.216-.748 9.256-2.458v-4.469c-.061 1.715-5.038 2.862-9.262 2.462-3.046-.281-5.719-1.075-5.867-2.283a.4.4 0 0 1-.021-.138" style="fill:#ebebeb;fill:color(display-p3 .9216 .9216 .9216);fill-opacity:1"/><path fill="#F7921E" d="M198.018 77.841c-.108 3 15.037 2.965 15.145-.04v-4.466c-.108 3-15.253 3.042-15.145.036z" style="fill:#f7921e;fill:color(display-p3 .9686 .5725 .1176);fill-opacity:1"/><path fill="#EBEBEB" d="M198.059 69.117v4.408c-.128 2.95 14.489 3.036 15.15.22a1 1 0 0 0 0-.169v-4.439c-.19 2.985-15.289 2.975-15.15-.02" style="fill:#ebebeb;fill:color(display-p3 .9216 .9216 .9216);fill-opacity:1"/><path fill="#F28F8F" d="M213.265 50.219v-.21c0-2.15-3.389-3.897-7.572-3.897-4.184 0-7.573 1.746-7.573 3.897v2.048l-.061 17.06c-.057 1.28 2.667 2.124 5.821 2.432 4.229.41 9.216-.702 9.318-2.412l.067-18.78z" style="fill:#f28f8f;fill:color(display-p3 .949 .5608 .5608);fill-opacity:1"/><path fill="#fff" d="M205.692 53.926c4.183 0 7.573-1.745 7.573-3.897s-3.39-3.896-7.573-3.896-7.572 1.744-7.572 3.896 3.39 3.896 7.572 3.896" opacity=".2" style="fill:#fff;fill-opacity:1"/><path fill="#000" d="m213.183 73.745.082-23.552c-.102 1.843-3.241 3.584-6.656 3.707l-.241 109.353-.409 17.525 7.004-20.428z" opacity=".1" style="fill:#000;fill-opacity:1"/><path fill="#FFA8A7" d="M188.295 84.051c2.877-.414 5.821.85 8.289 4.322s11.151 11.776 12.094 14.484c.691 1.961.962 7.399-3.072 5.668-3.928-1.669-17.408-15.176-17.408-15.176z" style="fill:#ffa8a7;fill:color(display-p3 1 .6588 .6549);fill-opacity:1"/><path fill="#E0E0E0" d="M188.157 83.8a7.68 7.68 0 0 1 5.196.984c1.214.824 3.584 3.584 6.344 6.656a62 62 0 0 1 4.07 4.997 8.7 8.7 0 0 1-5.263 7.224l-10.752-9.052z" style="fill:#e0e0e0;fill:color(display-p3 .8784 .8784 .8784);fill-opacity:1"/><path fill="#FFA8A7" d="m206.036 99.827 7.075-6.35V86.74s1.393.47 1.946 2.636 1.244 4.7.968 6.549c-.277 1.848-6.119 12.155-8.377 12.867-2.693.855-1.612-8.966-1.612-8.966M176.887 80.529l.978 8.668 8.059-1.833-1.044-11.566z" style="fill:#ffa8a7;fill:color(display-p3 1 .6588 .6549);fill-opacity:1"/><path fill="#F0F0F0" d="M194.28 88.337c-.445-2.422-3.63-4.972-6.615-4.485-.696.112-1.372.225-2.048.343-.358 1.454-4.352 2.365-8.192 1.47-1.147.301-4.936 1.023-5.893 1.325-2.744.912-3.876 3.615-4.301 12.56 0 0 .22 20.254.113 24.289 6.768 2.857 13.88 2.934 17.828 2.166 8.192-1.603 9.277-4.972 9.277-4.972l-1.224-9.267s2.053-17.94 1.055-23.43" style="fill:#f0f0f0;fill:color(display-p3 .9412 .9412 .9412);fill-opacity:1"/><path fill="#E0E0E0" d="M177.21 83.386c1.665.48 3.422.55 5.12.205 2.657-.594 3.19-1.024 3.19-1.024l-.057-.62s.43-.025 1.024.773c.594.8.85 1.163.85 1.163s-.158 1.94-3.287 2.887a9.65 9.65 0 0 1-7.782-.85l-1.224.262s1.06-2.443 1.383-2.94a.8.8 0 0 1 .762-.424z" style="fill:#e0e0e0;fill:color(display-p3 .8784 .8784 .8784);fill-opacity:1"/><path fill="#F28F8F" d="M171.122 69.92s-2.048 3.103-1.807 3.405 1.736.579 1.736.579z" style="fill:#f28f8f;fill:color(display-p3 .949 .5608 .5608);fill-opacity:1"/><path fill="#263238" d="M172.08 71.912a2.439 2.439 0 0 1-1.741-4.153 2.437 2.437 0 1 1 1.741 4.153m0-4.327a1.895 1.895 0 1 0 .04 3.79 1.895 1.895 0 0 0-.04-3.79" style="fill:#263238;fill:color(display-p3 .149 .1961 .2196);fill-opacity:1"/><path fill="#FFA8A7" d="M176.795 61.344c-4.132.876-5.325 2.693-5.714 9.257-.409 6.866.292 9.022 1.193 9.948.61.62 3.989.733 5.699.267 2.135-.594 6.958-2.304 9.216-5.755 2.657-4.06 3.353-9.564.512-11.822-3.978-3.18-9.221-2.248-10.906-1.895" style="fill:#ffa8a7;fill:color(display-p3 1 .6588 .6549);fill-opacity:1"/><path fill="#F28F8F" d="m176.944 81.005-.195-1.265a8.2 8.2 0 0 1-4.239.988c.788.364 2.846.477 4.434.277" style="fill:#f28f8f;fill:color(display-p3 .949 .5608 .5608);fill-opacity:1"/><path fill="#263238" d="m169.873 68.968 7.352.952-.297.517-7.055-.916z" style="fill:#263238;fill:color(display-p3 .149 .1961 .2196);fill-opacity:1"/><path fill="#263238" d="M170.375 64.002c.311.05.63.03.932-.062a1.47 1.47 0 0 0 .512 1.725 2.09 2.09 0 0 0 1.853.247c-.225.384-.298.839-.205 1.274a2.08 2.08 0 0 0 2.14 1.536c.046.963.057 1.9 1.086 2.34 0 0 .65-2.56 2.79-2.217s2.442 3.072 1.086 4.731c-1.357 1.66-2.601 1.024-2.622 1.024.055.419.169.827.338 1.214a5 5 0 0 0 1.807 1.991 9.73 9.73 0 0 0 5.167 1.388c.67-1.936 1.771-3.405 2.938-5.12.922-1.331 2.089-2.847 2.56-4.398a8.7 8.7 0 0 0 .052-5.171c-.512-1.536-1.106-2.704-2.781-3.119-.378-2.047-2.432-3.138-4.295-4.096a6.95 6.95 0 0 0-6.057-.05c-.686-.728-1.229-1.603-2.186-2.049a2 2 0 0 0-2.345.42 2.98 2.98 0 0 0-.374 1.971 4.6 4.6 0 0 0-2.355.205 2.45 2.45 0 0 0-1.536 1.715 1.686 1.686 0 0 0 1.054 1.91 1.47 1.47 0 0 0-.512 1.67 1.254 1.254 0 0 0 .953.922" style="fill:#263238;fill:color(display-p3 .149 .1961 .2196);fill-opacity:1"/><path fill="#263238" d="m176.642 72.537.076-2.868a1.43 1.43 0 0 0-1.348.85 1.443 1.443 0 0 0 .269 1.57 1.44 1.44 0 0 0 1.003.448M149.823 101.669l17.167 9.216.282.441v.358a.511.511 0 0 1-.282.44l-12.8 7.368a1 1 0 0 1-.937 0l-16.86-9.728v-.363z" style="fill:#263238;fill:color(display-p3 .149 .1961 .2196);fill-opacity:1"/><path fill="#455A64" d="M153.725 119.262a1 1 0 0 0 .465-.118l12.8-7.368a.51.51 0 0 0 .282-.445.511.511 0 0 0-.282-.44l-16.547-9.57-14.05 8.08 16.86 9.728a1 1 0 0 0 .472.133" style="fill:#455a64;fill:color(display-p3 .2706 .3529 .3922);fill-opacity:1"/><path fill="#F0F0F0" d="m150.443 100.271 16.384 9.483.133.189v1.388a.23.23 0 0 1-.043.109.23.23 0 0 1-.09.075l-12.8 7.368a.68.68 0 0 1-.64 0l-16.4-9.483v-1.387z" style="fill:#f0f0f0;fill:color(display-p3 .9412 .9412 .9412);fill-opacity:1"/><path fill="#EBEBEB" d="m136.987 108.013.159.092 2.109 1.219.395.225 13.752 7.946a.7.7 0 0 0 .64 0l12.8-7.368a.199.199 0 0 0 .129-.186.2.2 0 0 0-.129-.187l-.174-.098-16.225-9.385-13.312 7.645-.041.025z" style="fill:#ebebeb;fill:color(display-p3 .9216 .9216 .9216);fill-opacity:1"/><path fill="#E0E0E0" d="M153.724 117.592v1.393a.6.6 0 0 0 .318-.082l12.8-7.368a.228.228 0 0 0 .133-.184v-1.393a.23.23 0 0 1-.133.19l-12.8 7.368a.65.65 0 0 1-.318.076" style="fill:#e0e0e0;fill:color(display-p3 .8784 .8784 .8784);fill-opacity:1"/><path fill="#FAFAFA" d="m136.987 107.823 2.33 1.347.368.215 13.717 7.926a.71.71 0 0 0 .64 0l10.911-6.282.409-.231a4 4 0 0 0 1.306-1.142l.031-.051a.3.3 0 0 0 .04-.092.288.288 0 0 0-.225-.328 6 6 0 0 1-1.218-.512l-14.848-8.581z" style="fill:#fafafa;fill:color(display-p3 .9804 .9804 .9804);fill-opacity:1"/><path fill="#E0E0E0" d="m142.338 108.54 9.098-5.253a.43.43 0 0 1 .404 0 .12.12 0 0 1 .08.115.12.12 0 0 1-.08.116l-9.077 5.273a.46.46 0 0 1-.405 0c-.107-.082-.107-.184-.02-.251M143.229 109.047l9.103-5.253a.43.43 0 0 1 .404 0 .12.12 0 0 1 .058.045.12.12 0 0 1 .022.07q0 .039-.022.07a.1.1 0 0 1-.058.045l-9.077 5.274a.48.48 0 0 1-.405 0c-.138-.082-.138-.184-.025-.251M144.125 109.554l9.098-5.273a.43.43 0 0 1 .404 0c.113.066.113.169 0 .235l-9.103 5.253a.43.43 0 0 1-.405 0c-.107-.046-.107-.148.006-.215M150.473 113.246l9.099-5.253a.44.44 0 0 1 .409 0c.113.066.113.169 0 .235l-9.078 5.269a.44.44 0 0 1-.409 0c-.133-.082-.133-.19-.021-.251M156.785 109.304a1.357 1.357 0 0 1-.834.187.9.9 0 0 1-.321-.094q-.025-.01-.022-.027.002-.018.024-.031l.23-.132a.2.2 0 0 1 .057-.018.2.2 0 0 1 .066.004.694.694 0 0 0 .365.009.6.6 0 0 0 .151-.061.35.35 0 0 0 .126-.112.14.14 0 0 0 .01-.131q-.027-.066-.131-.126a.6.6 0 0 0-.2-.067.7.7 0 0 0-.424.08.3.3 0 0 0-.097.075.2.2 0 0 0-.037.067l-.015.053q-.004.024-.034.04l-.227.131a.1.1 0 0 1-.054.014.1.1 0 0 1-.055-.014l-.757-.535q-.03-.02-.027-.041t.029-.037l.928-.533a.1.1 0 0 1 .059-.014q.035 0 .06.014l.165.095q.024.014.025.034 0 .02-.025.034l-.713.41.362.254a.4.4 0 0 1 .062-.101.7.7 0 0 1 .178-.133q.119-.069.264-.107a1.3 1.3 0 0 1 .609-.021 1 1 0 0 1 .282.105q.18.103.229.228a.28.28 0 0 1-.027.254.76.76 0 0 1-.281.247m2.793 1.353a.1.1 0 0 1-.059.014.1.1 0 0 1-.059-.014l-.316-.182-.782.45a.13.13 0 0 1-.119 0l-.168-.097-.029-.022a.06.06 0 0 1-.017-.036l-.282-.998q-.01-.042.05-.077l.269-.154a.1.1 0 0 1 .059-.014.1.1 0 0 1 .059.014l1.002.575.219-.126a.1.1 0 0 1 .062-.015.1.1 0 0 1 .059.014l.173.099q.025.015.025.034t-.025.034l-.222.128.316.181q.025.015.025.034t-.025.034zm-1.214-.057.506-.291-.713-.409zm3.815 1.552a.1.1 0 0 1-.059.014.1.1 0 0 1-.059-.014l-.316-.182-.782.45a.13.13 0 0 1-.119 0l-.168-.097-.029-.022a.07.07 0 0 1-.017-.036l-.282-.998q-.01-.043.05-.077l.269-.154a.1.1 0 0 1 .059-.015.1.1 0 0 1 .059.015l1.002.575.22-.126a.1.1 0 0 1 .061-.015.1.1 0 0 1 .059.014l.173.099q.025.014.025.034t-.025.034l-.222.128.316.181q.025.015.025.034t-.025.034zm-1.214-.057.506-.291-.713-.41z" style="fill:#e0e0e0;fill:color(display-p3 .8784 .8784 .8784);fill-opacity:1"/><path fill="#E0E0E0" d="M154.78 108.667a.1.1 0 0 1-.059.014.1.1 0 0 1-.059-.014l-.126-.073a.2.2 0 0 1-.042-.035q-.02-.025-.012-.067l.002-.446q.035-.168.044-.276a.4.4 0 0 0-.019-.178.24.24 0 0 0-.104-.114.5.5 0 0 0-.242-.068.47.47 0 0 0-.259.07q-.086.05-.108.105a.12.12 0 0 0 0 .107.3.3 0 0 0 .086.101q.027.021.017.041a.07.07 0 0 1-.032.033l-.219.126a.1.1 0 0 1-.052.013.1.1 0 0 1-.05-.011.5.5 0 0 1-.16-.144.28.28 0 0 1-.057-.171.33.33 0 0 1 .072-.186.7.7 0 0 1 .214-.177q.205-.118.408-.155.204-.038.389-.008a.9.9 0 0 1 .336.113.5.5 0 0 1 .17.149.4.4 0 0 1 .06.181 1 1 0 0 1-.02.222l.005.405.703-.404a.1.1 0 0 1 .059-.014.1.1 0 0 1 .059.014l.176.101q.024.014.024.034.003.018-.024.034zm3.114 1.2a.12.12 0 0 1-.118 0l-1.278-.735-.087.382a.05.05 0 0 1-.032.032.2.2 0 0 1-.066.007l-.237-.017a.1.1 0 0 1-.059-.02q-.02-.017-.013-.038l.126-.563a.04.04 0 0 1 .015-.025.1.1 0 0 1 .03-.02l.217-.125a.1.1 0 0 1 .059-.014.1.1 0 0 1 .059.014l1.609.925q.024.013.025.034 0 .02-.025.034zm2.73 1.449a1.42 1.42 0 0 1-.898.176 1.1 1.1 0 0 1-.393-.129.6.6 0 0 1-.212-.204 1 1 0 0 1-.052-.101.4.4 0 0 1-.024-.079l-.168-.616a.1.1 0 0 1 0-.034q0-.022.034-.042l.23-.132a.1.1 0 0 1 .054-.012q.03 0 .052.013l.015.014a.02.02 0 0 1 .005.012l.133.473a.633.633 0 0 1 .094-.068q.126-.07.283-.106a1.4 1.4 0 0 1 .635-.01 1 1 0 0 1 .281.105.5.5 0 0 1 .222.221.29.29 0 0 1-.012.262q-.067.135-.279.257m-.286-.162a.33.33 0 0 0 .125-.114.15.15 0 0 0 .015-.134q-.024-.067-.131-.129a.6.6 0 0 0-.222-.074.75.75 0 0 0-.431.081.35.35 0 0 0-.129.117.15.15 0 0 0-.012.131q.024.069.128.128a.6.6 0 0 0 .225.075.7.7 0 0 0 .229-.007.7.7 0 0 0 .203-.074" style="fill:#e0e0e0;fill:color(display-p3 .8784 .8784 .8784);fill-opacity:1"/><path fill="#E0E0E0" d="M153.528 107.736a.1.1 0 0 1-.052.013.1.1 0 0 1-.054-.014l-.017-.013-.005-.011-.139-.497a.4.4 0 0 1-.093.065 1.1 1.1 0 0 1-.279.107 1.6 1.6 0 0 1-.311.037 1.5 1.5 0 0 1-.306-.032 1 1 0 0 1-.269-.103.6.6 0 0 1-.175-.149.32.32 0 0 1-.072-.183.32.32 0 0 1 .072-.197.8.8 0 0 1 .242-.199 1.37 1.37 0 0 1 .994-.151q.15.035.269.103a.6.6 0 0 1 .163.134.5.5 0 0 1 .081.146q.025.07.047.14l.168.596q.003.012.002.035 0 .02-.037.041zm-.543-.652a.3.3 0 0 0 .123-.114.14.14 0 0 0 .008-.129q-.027-.066-.124-.122a.648.648 0 0 0-.436-.066.6.6 0 0 0-.2.069.3.3 0 0 0-.124.116.14.14 0 0 0-.007.129q.027.064.126.121a.6.6 0 0 0 .21.072q.113.014.224-.004a.6.6 0 0 0 .2-.072m3.472 1.99a1.4 1.4 0 0 1-.427.165q-.217.043-.407.022a.9.9 0 0 1-.321-.094q-.024-.01-.022-.027t.025-.031l.229-.132a.2.2 0 0 1 .057-.018.14.14 0 0 1 .067.004.656.656 0 0 0 .515-.053.33.33 0 0 0 .126-.112.14.14 0 0 0 .01-.13q-.027-.067-.131-.126a.5.5 0 0 0-.2-.067.7.7 0 0 0-.424.079.3.3 0 0 0-.096.076.2.2 0 0 0-.037.066l-.015.054q-.005.023-.035.04l-.227.13a.1.1 0 0 1-.054.015.1.1 0 0 1-.054-.015l-.758-.534q-.03-.02-.027-.041t.03-.037l.928-.534a.1.1 0 0 1 .059-.014.1.1 0 0 1 .059.014l.165.096q.025.013.025.034 0 .02-.025.034l-.713.409.363.254a.3.3 0 0 1 .062-.1.6.6 0 0 1 .177-.134q.119-.068.264-.106a1.3 1.3 0 0 1 .61-.021.9.9 0 0 1 .281.105q.18.103.23.228a.28.28 0 0 1-.028.254.75.75 0 0 1-.281.247m2.794 1.353a.13.13 0 0 1-.06.014.1.1 0 0 1-.059-.014l-.316-.182-.782.45a.126.126 0 0 1-.118 0l-.168-.097a.1.1 0 0 1-.03-.023.1.1 0 0 1-.017-.035l-.281-.998q-.01-.043.049-.077l.269-.155a.1.1 0 0 1 .059-.014.1.1 0 0 1 .059.014l1.002.576.22-.126a.1.1 0 0 1 .062-.016.1.1 0 0 1 .059.015l.173.099q.024.014.024.034t-.024.034l-.222.128.315.181q.025.015.025.034t-.025.034zm-1.214-.057.505-.291-.713-.41zM153.504 108.815a.1.1 0 0 1-.059.014.1.1 0 0 1-.059-.014l-.481-.276-.474.272a.1.1 0 0 1-.059.014.1.1 0 0 1-.059-.014l-.131-.075q-.028-.016-.025-.034 0-.02.025-.034l.474-.273-.469-.269q-.025-.014-.025-.034t.025-.034l.143-.082a.1.1 0 0 1 .059-.014.1.1 0 0 1 .059.014l.469.269.474-.272a.1.1 0 0 1 .059-.014.1.1 0 0 1 .059.014l.131.075q.025.014.025.034t-.025.034l-.474.272.481.277q.025.014.025.034.003.018-.025.034zM152.048 112.011a.1.1 0 0 1-.052.013.1.1 0 0 1-.054-.014l-.017-.013-.005-.012-.138-.496a.4.4 0 0 1-.094.065 1.1 1.1 0 0 1-.279.107 1.6 1.6 0 0 1-.311.037 1.5 1.5 0 0 1-.306-.032 1 1 0 0 1-.269-.103.6.6 0 0 1-.175-.149.33.33 0 0 1-.072-.183.32.32 0 0 1 .072-.197.8.8 0 0 1 .242-.199 1.38 1.38 0 0 1 .994-.151q.151.035.269.103a.504.504 0 0 1 .245.28q.024.07.046.14l.168.596q.003.012.003.035 0 .02-.037.041zm-.543-.652a.3.3 0 0 0 .124-.114.14.14 0 0 0 .007-.129.27.27 0 0 0-.123-.122.648.648 0 0 0-.437-.066.6.6 0 0 0-.2.069.3.3 0 0 0-.123.116.14.14 0 0 0-.008.129q.027.064.126.121a.6.6 0 0 0 .21.072q.114.015.224-.004a.6.6 0 0 0 .2-.072m3.374 2.015a.13.13 0 0 1-.062.016.14.14 0 0 1-.057-.016l-1.278-.735-.086.382a.06.06 0 0 1-.032.032.2.2 0 0 1-.067.008l-.237-.017a.13.13 0 0 1-.059-.02q-.02-.017-.012-.039l.125-.563a.04.04 0 0 1 .015-.025l.03-.02.217-.125a.1.1 0 0 1 .059-.014.1.1 0 0 1 .059.014l1.609.925q.025.014.025.034t-.025.034zm2.892 1.327a.1.1 0 0 1-.059.015.1.1 0 0 1-.06-.015l-.315-.181-.783.45a.12.12 0 0 1-.118 0l-.168-.097a.1.1 0 0 1-.029-.023.1.1 0 0 1-.018-.035l-.281-.998q-.01-.043.049-.077l.269-.155a.1.1 0 0 1 .059-.014q.035 0 .06.014l1.002.576.219-.126a.1.1 0 0 1 .062-.016.1.1 0 0 1 .059.015l.173.099q.024.014.025.034 0 .02-.025.034l-.222.127.316.182q.024.014.024.034t-.024.034zm-1.214-.056.506-.291-.713-.41z" style="fill:#e0e0e0;fill:color(display-p3 .8784 .8784 .8784);fill-opacity:1"/><path fill="#E0E0E0" d="M150.758 111.021a1.55 1.55 0 0 1-.659.206q-.15.007-.271-.015a.7.7 0 0 1-.205-.066q-.022-.013-.02-.029.003-.018.025-.031l.222-.128a.2.2 0 0 1 .052-.018.2.2 0 0 1 .069.006.5.5 0 0 0 .178.02.74.74 0 0 0 .33-.108q.148-.085.166-.175.016-.092-.114-.167a.44.44 0 0 0-.269-.061.7.7 0 0 0-.286.096l-.254.147a.14.14 0 0 1-.06.017.1.1 0 0 1-.061-.016l-.104-.06a.1.1 0 0 1-.032-.029.1.1 0 0 1-.007-.033l.009-.502-.705.406a.13.13 0 0 1-.119 0l-.163-.094q-.027-.016-.029-.034 0-.02.027-.036l1.059-.608a.127.127 0 0 1 .123 0l.148.085a.1.1 0 0 1 .03.028.1.1 0 0 1 .007.03l.012.498.032-.016a1.4 1.4 0 0 1 .336-.113 1 1 0 0 1 .343-.013.9.9 0 0 1 .333.115q.168.097.2.217.032.118-.057.243a.9.9 0 0 1-.286.238m2.591 1.503a1.4 1.4 0 0 1-.427.166q-.216.043-.407.021a.9.9 0 0 1-.321-.093q-.024-.012-.022-.027.003-.019.025-.031l.229-.132a.13.13 0 0 1 .057-.019.2.2 0 0 1 .067.005.7.7 0 0 0 .365.008.6.6 0 0 0 .15-.061.33.33 0 0 0 .126-.112.14.14 0 0 0 .01-.13q-.027-.067-.131-.127a.5.5 0 0 0-.199-.066.7.7 0 0 0-.22.007.6.6 0 0 0-.205.072.4.4 0 0 0-.096.075.2.2 0 0 0-.037.067l-.015.054q-.005.022-.035.04l-.227.13a.1.1 0 0 1-.054.014.1.1 0 0 1-.054-.014l-.758-.535q-.028-.02-.027-.041.003-.02.03-.037l.928-.533a.1.1 0 0 1 .059-.014.1.1 0 0 1 .059.014l.165.095q.025.015.025.034t-.025.034l-.713.41.363.254a.4.4 0 0 1 .062-.101.7.7 0 0 1 .177-.133q.119-.068.264-.106a1.3 1.3 0 0 1 .61-.022q.15.03.281.105.18.103.23.229a.28.28 0 0 1-.027.253.75.75 0 0 1-.282.247m2.631 1.475a1.4 1.4 0 0 1-.898.176 1.1 1.1 0 0 1-.393-.129.6.6 0 0 1-.212-.204 1 1 0 0 1-.052-.101.4.4 0 0 1-.024-.079l-.168-.616a.1.1 0 0 1 0-.034q0-.023.034-.042l.23-.132a.1.1 0 0 1 .054-.012q.03 0 .052.013.01.006.015.014a.02.02 0 0 1 .005.012l.133.473a.2.2 0 0 1 .042-.035l.052-.033q.126-.07.283-.106a1.4 1.4 0 0 1 .635-.01 1 1 0 0 1 .281.105.5.5 0 0 1 .222.221.3.3 0 0 1-.012.263q-.067.134-.279.256m-.286-.161a.34.34 0 0 0 .126-.115.15.15 0 0 0 .014-.134q-.024-.067-.13-.129a.6.6 0 0 0-.223-.073.72.72 0 0 0-.431.08.35.35 0 0 0-.129.117.15.15 0 0 0-.012.132q.024.068.128.127a.6.6 0 0 0 .225.075.73.73 0 0 0 .432-.08" style="fill:#e0e0e0;fill:color(display-p3 .8784 .8784 .8784);fill-opacity:1"/><path fill="#E0E0E0" d="M148.966 110.373a.11.11 0 0 1-.123-.014l-.005-.012-.139-.496a.4.4 0 0 1-.093.065 1.1 1.1 0 0 1-.279.107 1.47 1.47 0 0 1-.617.005 1 1 0 0 1-.269-.103.6.6 0 0 1-.175-.149.32.32 0 0 1-.072-.183.3.3 0 0 1 .072-.197.8.8 0 0 1 .242-.199 1.37 1.37 0 0 1 .994-.152q.15.036.269.104a.6.6 0 0 1 .163.133.5.5 0 0 1 .081.146l.047.141.168.595q.003.014.002.036 0 .02-.037.041zm-.543-.653a.3.3 0 0 0 .123-.113.14.14 0 0 0 .008-.129q-.027-.066-.124-.122a.674.674 0 0 0-.636.003.3.3 0 0 0-.124.116.14.14 0 0 0-.007.129q.027.064.126.121a.6.6 0 0 0 .21.072q.113.014.224-.004a.6.6 0 0 0 .2-.073m3.524 1.958a1.6 1.6 0 0 1-.331.144 1.4 1.4 0 0 1-.328.061 1.2 1.2 0 0 1-.301-.02.9.9 0 0 1-.259-.097q-.143-.083-.178-.182a.24.24 0 0 1 .022-.2 1 1 0 0 1-.288-.001.8.8 0 0 1-.257-.091q-.142-.082-.178-.184-.034-.106.042-.22a.8.8 0 0 1 .279-.231q.2-.115.4-.159.197-.046.378-.024a.8.8 0 0 1 .32.102.37.37 0 0 1 .158.147q.04.08.01.165a1 1 0 0 1 .348-.013.8.8 0 0 1 .318.103q.156.09.195.206.04.114-.047.243a.9.9 0 0 1-.303.251m-.257-.148a.4.4 0 0 0 .141-.118q.045-.065.027-.126-.015-.062-.099-.11a.44.44 0 0 0-.192-.057.6.6 0 0 0-.217.017.7.7 0 0 0-.207.079.4.4 0 0 0-.141.121.15.15 0 0 0-.03.125q.015.059.101.109.085.048.19.058a.75.75 0 0 0 .427-.098m-.792-.455a.35.35 0 0 0 .116-.104.14.14 0 0 0 .03-.107q-.01-.054-.082-.095a.4.4 0 0 0-.162-.049.627.627 0 0 0-.373.084.4.4 0 0 0-.126.106.13.13 0 0 0-.022.11q.014.05.086.092a.4.4 0 0 0 .161.049.63.63 0 0 0 .372-.086m3.791 1.988a.1.1 0 0 1-.06.014.1.1 0 0 1-.059-.014l-.316-.181-.782.449a.12.12 0 0 1-.118 0l-.168-.096a.2.2 0 0 1-.03-.023.1.1 0 0 1-.017-.035l-.281-.999q-.01-.043.049-.076l.269-.155a.1.1 0 0 1 .059-.014.1.1 0 0 1 .059.014l1.002.576.22-.126a.1.1 0 0 1 .062-.016.1.1 0 0 1 .059.014l.173.1q.024.013.024.034 0 .02-.024.034l-.223.127.316.182q.025.014.025.034t-.025.034zm-1.214-.056.505-.291-.713-.41zM148.973 111.437a.1.1 0 0 1-.059.014.1.1 0 0 1-.059-.014l-.482-.277-.473.273a.1.1 0 0 1-.06.014.1.1 0 0 1-.059-.014l-.131-.076q-.027-.015-.024-.034 0-.02.024-.034l.474-.272-.469-.269q-.024-.015-.024-.034t.024-.034l.144-.083a.1.1 0 0 1 .059-.014.1.1 0 0 1 .059.014l.469.27.474-.273a.1.1 0 0 1 .059-.014.1.1 0 0 1 .059.014l.131.076q.024.013.025.034 0 .02-.025.034l-.474.272.481.277q.025.013.025.034.002.018-.025.034z" style="fill:#e0e0e0;fill:color(display-p3 .8784 .8784 .8784);fill-opacity:1"/><path fill="#000" d="M139.399 107.665a.2.2 0 0 1 .089.067.2.2 0 0 1 .034.107.186.186 0 0 1-.123.174.7.7 0 0 1-.599 0c-.169-.097-.169-.256 0-.348a.65.65 0 0 1 .599 0" opacity=".1" style="fill:#000;fill-opacity:1"/><path fill="#F7921E" d="M137.054 107.476a2 2 0 0 0 0 .297l.21-.118v-.179a.83.83 0 0 1 .307-.748.45.45 0 0 1 .215-.056c.13.006.257.045.369.112.449.308.771.768.906 1.296a.7.7 0 0 0 .225 0 2.52 2.52 0 0 0-1.024-1.459.79.79 0 0 0-.809-.057 1.018 1.018 0 0 0-.399.912" style="fill:#f7921e;fill:color(display-p3 .9686 .5725 .1176);fill-opacity:1"/><path fill="#263238" d="M137.095 107.89a.2.2 0 0 1 0 .051l.041-.025z" style="fill:#263238;fill:color(display-p3 .149 .1961 .2196);fill-opacity:1"/><path fill="#000" d="M141.227 106.615a.2.2 0 0 1 .089.068.183.183 0 0 1-.089.28.648.648 0 0 1-.599 0c-.169-.092-.169-.25 0-.348a.69.69 0 0 1 .599 0" opacity=".1" style="fill:#000;fill-opacity:1"/><path fill="#F7921E" d="M138.866 106.426q-.01.15 0 .302l.21-.123v-.179a.83.83 0 0 1 .307-.743.44.44 0 0 1 .215-.056.8.8 0 0 1 .369.113c.447.309.769.769.906 1.295a.6.6 0 0 0 .221 0 2.56 2.56 0 0 0-1.024-1.464.8.8 0 0 0-.809-.057 1.02 1.02 0 0 0-.395.912" style="fill:#f7921e;fill:color(display-p3 .9686 .5725 .1176);fill-opacity:1"/><path fill="#000" d="M143.024 105.571a.184.184 0 0 1 0 .348.66.66 0 0 1-.604 0 .184.184 0 0 1 0-.348.66.66 0 0 1 .604 0" opacity=".1" style="fill:#000;fill-opacity:1"/><path fill="#F7921E" d="M140.674 105.381q.001.153.025.302l.21-.122a1 1 0 0 1 0-.18.83.83 0 0 1 .302-.742.46.46 0 0 1 .22-.056.74.74 0 0 1 .369.112c.448.309.77.769.906 1.296a.7.7 0 0 0 .22-.026 2.5 2.5 0 0 0-1.024-1.464.78.78 0 0 0-.803-.057 1.02 1.02 0 0 0-.425.937" style="fill:#f7921e;fill:color(display-p3 .9686 .5725 .1176);fill-opacity:1"/><path fill="#000" d="M144.811 104.526a.2.2 0 0 1 .089.068.183.183 0 0 1-.089.28.66.66 0 0 1-.599 0c-.169-.097-.169-.251 0-.348a.65.65 0 0 1 .599 0" opacity=".1" style="fill:#000;fill-opacity:1"/><path fill="#F7921E" d="M142.486 104.337a2 2 0 0 0 0 .302l.21-.123v-.179a.82.82 0 0 1 .307-.742.4.4 0 0 1 .215-.057.73.73 0 0 1 .369.113c.451.306.773.767.906 1.295a.7.7 0 0 0 .225-.025 2.52 2.52 0 0 0-1.024-1.465.8.8 0 0 0-.809-.056 1.03 1.03 0 0 0-.399.937" style="fill:#f7921e;fill:color(display-p3 .9686 .5725 .1176);fill-opacity:1"/><path fill="#000" d="M146.644 103.482a.186.186 0 0 1 .089.281.2.2 0 0 1-.089.067.66.66 0 0 1-.599 0c-.169-.097-.169-.251 0-.348a.65.65 0 0 1 .599 0" opacity=".1" style="fill:#000;fill-opacity:1"/><path fill="#F7921E" d="M144.299 103.293q-.012.15 0 .302l.21-.123v-.179a.83.83 0 0 1 .307-.748.43.43 0 0 1 .215-.056.74.74 0 0 1 .368.118c.448.308.77.768.907 1.295a.6.6 0 0 0 .22-.031 2.53 2.53 0 0 0-1.024-1.459.79.79 0 0 0-.809-.056 1.02 1.02 0 0 0-.394.937" style="fill:#f7921e;fill:color(display-p3 .9686 .5725 .1176);fill-opacity:1"/><path fill="#000" d="M148.456 102.437a.184.184 0 0 1 .09.281.2.2 0 0 1-.09.068.7.7 0 0 1-.604 0 .184.184 0 0 1 0-.349.66.66 0 0 1 .604 0" opacity=".1" style="fill:#000;fill-opacity:1"/><path fill="#F7921E" d="M146.106 102.232q.001.15.026.297l.21-.117a1 1 0 0 1 0-.18.83.83 0 0 1 .302-.747.45.45 0 0 1 .22-.056c.13.006.257.045.368.112.446.311.768.77.907 1.296a.6.6 0 0 0 .22-.026 2.5 2.5 0 0 0-1.024-1.459.78.78 0 0 0-.804-.057 1.03 1.03 0 0 0-.425.937" style="fill:#f7921e;fill:color(display-p3 .9686 .5725 .1176);fill-opacity:1"/><path fill="#000" d="M150.263 101.388a.18.18 0 0 1 .124.174.2.2 0 0 1-.034.107.2.2 0 0 1-.09.067.65.65 0 0 1-.599 0c-.169-.092-.169-.251 0-.348a.68.68 0 0 1 .599 0" opacity=".1" style="fill:#000;fill-opacity:1"/><path fill="#F7921E" d="M147.918 101.208a2 2 0 0 0 0 .302l.21-.122v-.18a.819.819 0 0 1 .308-.742.45.45 0 0 1 .215-.056c.13.006.257.045.368.112.45.307.773.768.906 1.296a.7.7 0 0 0 .226 0 2.57 2.57 0 0 0-1.024-1.465.82.82 0 0 0-.809-.056 1.025 1.025 0 0 0-.4.911" style="fill:#f7921e;fill:color(display-p3 .9686 .5725 .1176);fill-opacity:1"/><g fill="#000" opacity=".3"><path d="M137.054 107.475a2 2 0 0 0 0 .297l.21-.118v-.179a.83.83 0 0 1 .307-.747.45.45 0 0 1 .215-.057c.13.007.257.045.369.113.449.308.771.768.906 1.295a.7.7 0 0 0 .225 0 2.52 2.52 0 0 0-1.024-1.459.79.79 0 0 0-.809-.056 1.02 1.02 0 0 0-.399.911M138.866 106.426q-.01.15 0 .302l.21-.123v-.179a.83.83 0 0 1 .307-.743.44.44 0 0 1 .215-.056.8.8 0 0 1 .369.113c.447.309.769.769.906 1.295a.6.6 0 0 0 .221 0 2.56 2.56 0 0 0-1.024-1.464.8.8 0 0 0-.809-.057 1.02 1.02 0 0 0-.395.912M140.674 105.381q.001.153.025.302l.21-.122a1 1 0 0 1 0-.18.83.83 0 0 1 .302-.742.46.46 0 0 1 .22-.056.74.74 0 0 1 .369.112c.448.309.77.769.906 1.296a.7.7 0 0 0 .22-.026 2.5 2.5 0 0 0-1.024-1.464.78.78 0 0 0-.803-.057 1.02 1.02 0 0 0-.425.937M142.486 104.337q-.01.15 0 .302l.21-.123v-.179a.8.8 0 0 1 .056-.412.8.8 0 0 1 .251-.331.4.4 0 0 1 .215-.056.73.73 0 0 1 .369.113c.451.305.773.766.906 1.295a.7.7 0 0 0 .225-.026 2.52 2.52 0 0 0-1.024-1.464.79.79 0 0 0-.809-.056 1.02 1.02 0 0 0-.399.937M144.299 103.292a2 2 0 0 0 0 .302l.21-.123v-.179a.83.83 0 0 1 .307-.747.44.44 0 0 1 .215-.057.75.75 0 0 1 .368.118c.448.309.77.769.907 1.295a.6.6 0 0 0 .22-.03 2.53 2.53 0 0 0-1.024-1.459.79.79 0 0 0-.809-.057 1.03 1.03 0 0 0-.394.937M146.106 102.232q.001.15.026.297l.21-.117a1 1 0 0 1 0-.18.83.83 0 0 1 .302-.747.45.45 0 0 1 .22-.056c.13.006.257.045.368.112.446.311.768.77.907 1.296a.6.6 0 0 0 .22-.026 2.5 2.5 0 0 0-1.024-1.459.78.78 0 0 0-.804-.057 1.03 1.03 0 0 0-.425.937M147.918 101.208a2 2 0 0 0 0 .302l.21-.122v-.18a.819.819 0 0 1 .308-.742.45.45 0 0 1 .215-.056c.13.006.257.045.368.112.45.307.773.768.906 1.296a.7.7 0 0 0 .226 0 2.57 2.57 0 0 0-1.024-1.465.82.82 0 0 0-.809-.056 1.025 1.025 0 0 0-.4.911" style="fill:#000;fill-opacity:1"/></g><path fill="#FFA8A7" d="M152.818 118.412c3.185-.313 14.802-1.188 15.683-3.364 1.085-2.678 5.683-17.208 5.683-17.208s1.536-9.77-3.2-10.174c-2.048.404-3.871 1.475-4.644 5.12-.399 1.89-2.524 9.498-4.234 17.92 0 0-12.37 3.825-13.276 3.507-.906-.317-.953-1.172-1.674-2.212-.722-1.039-1.239-2.37-1.808-2.002-.568.369-.215 2.048 0 2.883.1.533-.012 1.084-.312 1.536 0 0-.538-.2-1.024-.343-.271-.072-4.526-2.56-4.526-2.56s-.405 2.703.906 4.024c1.644 1.905 3.983 2.611 6.144 2.924 2.432.374 3.098.261 6.282-.051" style="fill:#ffa8a7;fill:color(display-p3 1 .6588 .6549);fill-opacity:1"/><path fill="#E0E0E0" d="M171.573 86.99c-2.765.584-4.649 1.306-5.596 4.936s-3.047 11.976-3.047 11.976 4.296 3.461 8.796 3.363l2.786-9.472s2.293-8.622-2.939-10.803" style="fill:#e0e0e0;fill:color(display-p3 .8784 .8784 .8784);fill-opacity:1"/></svg>