<svg width="256" height="256" viewBox="0 0 256 256" fill="none" xmlns="http://www.w3.org/2000/svg">
<path d="M128.002 108.714C156.917 108.714 185.806 114.99 208.036 127.516L209.09 128.117C231.459 141.045 242.531 157.897 242.532 174.647C242.533 191.136 231.804 207.725 210.13 220.57L209.09 221.179C186.721 234.104 157.373 240.576 127.999 240.573C99.083 240.57 70.1935 234.294 47.9636 221.779L46.9099 221.179C24.5387 208.263 13.4666 191.409 13.4666 174.656C13.4668 158.165 24.1957 141.571 45.8699 128.726L46.9109 128.117C69.2794 115.192 98.6272 108.714 128.002 108.714Z" stroke="#D5D5D5"/>
<path d="M168.457 38.2913L163.707 35.5249L51.0591 102.578V202.993C51.0591 204.608 51.6239 205.738 52.5075 206.267L55.5273 208.019C56.447 208.548 57.6999 208.476 59.1121 207.664L163.352 147.477C164.828 146.514 166.056 145.217 166.937 143.691C167.817 142.165 168.326 140.452 168.421 138.693L168.457 38.2913Z" fill="#E6E6E6"/>
<path opacity="0.15" d="M51.0591 116.113V203.015C51.0591 204.63 51.6239 205.76 52.5075 206.289L55.5273 208.041C55.9317 208.261 56.385 208.376 56.8454 208.374L54.0427 204.753V117.8L51.0591 116.113Z" fill="black"/>
<path d="M56.889 207.78C57.5874 207.747 58.2655 207.535 58.8588 207.165L163.099 146.978C164.487 146.068 165.643 144.846 166.472 143.408C167.301 141.97 167.78 140.357 167.871 138.7V39.3052L54.6658 104.67V204.746C54.6658 206.68 55.4986 207.78 56.889 207.78Z" fill="#FAFAFA"/>
<path d="M167.284 40.3192V138.7C167.188 140.254 166.733 141.764 165.955 143.112C165.178 144.46 164.098 145.61 162.801 146.471L58.5615 206.68C58.0584 206.998 57.4827 207.182 56.8886 207.216C55.4403 207.216 55.252 205.507 55.252 204.768V105.004L167.284 40.3192ZM168.457 38.2915L54.0933 104.33V204.746C54.0933 207.035 55.2375 208.367 56.9031 208.367C57.7069 208.329 58.4863 208.079 59.1626 207.643L163.402 147.456C164.878 146.493 166.106 145.196 166.987 143.67C167.868 142.143 168.376 140.431 168.472 138.671V38.2915H168.457Z" fill="#E0E0E0"/>
<path d="M163.996 28.7467C163.077 28.1818 161.824 28.2398 160.375 29.0653L56.1284 89.2526C54.6526 90.2138 53.4244 91.5096 52.5436 93.0347C51.6628 94.5598 51.1542 96.2712 51.0591 98.0298V102.578L54.0789 104.33L168.457 38.2915V33.7436C168.457 32.1359 167.892 31.0062 167.009 30.4775C166.125 29.9489 164.822 29.2536 163.996 28.7467Z" fill="#F7921E"/>
<path d="M54.0933 99.7823C54.1906 98.0242 54.7002 96.3137 55.5808 94.7889C56.4614 93.2642 57.6884 91.968 59.1626 91.0051L163.402 30.8178C166.198 29.2029 168.472 30.5137 168.472 33.7146V38.2625L54.0933 104.33V99.7823Z" fill="#F7921E"/>
<path opacity="0.3" d="M54.0933 99.7823C54.1906 98.0242 54.7002 96.3137 55.5808 94.7889C56.4614 93.2642 57.6884 91.968 59.1626 91.0051L163.402 30.8178C166.198 29.2029 168.472 30.5137 168.472 33.7146V38.2625L54.0933 104.33V99.7823Z" fill="white"/>
<path d="M167.067 30.5063C166.14 29.9342 164.894 29.9922 163.446 30.8177L59.1626 91.005C57.6522 91.9347 56.4055 93.2363 55.5417 94.7853L52.5073 93.0472C53.3718 91.4949 54.6181 90.1888 56.1283 89.2525L160.368 29.058C161.816 28.2396 163.076 28.1817 163.989 28.7466C164.901 29.3114 166.161 29.9777 166.987 30.4701C167.002 30.4846 167.023 30.4918 167.067 30.5063Z" fill="#F7921E"/>
<path opacity="0.45" d="M167.067 30.5063C166.14 29.9342 164.894 29.9922 163.446 30.8177L59.1626 91.005C57.6522 91.9347 56.4055 93.2363 55.5417 94.7853L52.5073 93.0472C53.3718 91.4949 54.6181 90.1888 56.1283 89.2525L160.368 29.058C161.816 28.2396 163.076 28.1817 163.989 28.7466C164.901 29.3114 166.161 29.9777 166.987 30.4701C167.002 30.4846 167.023 30.4918 167.067 30.5063Z" fill="white"/>
<path d="M150.758 41.6153C150.239 41.9484 149.805 42.3995 149.493 42.9318C149.181 43.4642 148.999 44.0627 148.962 44.6787C148.962 45.8084 149.752 46.2646 150.729 45.707C151.245 45.3703 151.675 44.917 151.983 44.3835C152.291 43.8501 152.469 43.2516 152.503 42.6364C152.532 41.5067 151.736 41.0505 150.758 41.6153Z" fill="#FAFAFA"/>
<path d="M156.928 38.0526C156.413 38.3881 155.985 38.8404 155.678 39.3727C155.371 39.905 155.194 40.5023 155.161 41.1159C155.161 42.2457 155.95 42.7019 156.928 42.137C157.444 41.8019 157.873 41.3499 158.182 40.8176C158.49 40.2853 158.668 39.6879 158.702 39.0737C158.724 37.944 157.928 37.4877 156.928 38.0526Z" fill="#FAFAFA"/>
<path d="M163.142 34.482C162.627 34.8183 162.2 35.2708 161.893 35.8029C161.586 36.335 161.408 36.9319 161.375 37.5453C161.375 38.675 162.164 39.1385 163.142 38.5736C163.657 38.237 164.087 37.7836 164.395 37.2501C164.703 36.7167 164.882 36.1182 164.916 35.5031C164.894 34.3806 164.119 33.9171 163.142 34.482Z" fill="#FAFAFA"/>
<path d="M54.0789 104.33V117.8L168.457 51.7831V38.2915L54.0789 104.33Z" fill="#EBEBEB"/>
<path d="M58.6776 105.033L70.3878 98.3052V105.018L58.6704 111.782L58.6776 105.033Z" fill="#E0E0E0"/>
<path d="M73.2844 96.6027V99.2533L79.1286 95.8786V93.228L73.2844 96.6027Z" fill="#E0E0E0"/>
<path d="M73.2844 100.702V103.352L79.1286 99.9777V97.3271L73.2844 100.702Z" fill="#E0E0E0"/>
<path d="M82.0471 91.5412V94.1918L87.8913 90.817V88.1665L82.0471 91.5412Z" fill="#E0E0E0"/>
<path d="M82.0471 95.6399V98.2904L87.8913 94.9157V92.2651L82.0471 95.6399Z" fill="#E0E0E0"/>
<path d="M90.8169 86.4787V89.1293L96.6611 85.7545V83.104L90.8169 86.4787Z" fill="#E0E0E0"/>
<path d="M90.8169 90.5776V93.2281L96.6611 89.8534V87.2029L90.8169 90.5776Z" fill="#E0E0E0"/>
<path d="M117.112 71.2998V73.9503L122.956 70.5756V67.925L117.112 71.2998Z" fill="#E0E0E0"/>
<path d="M117.112 75.3986V78.0492L122.956 74.6745V72.0239L117.112 75.3986Z" fill="#E0E0E0"/>
<path d="M125.875 66.238V68.8885L131.719 65.5138V62.8633L125.875 66.238Z" fill="#E0E0E0"/>
<path d="M125.875 70.3366V72.9872L131.719 69.6124V66.9619L125.875 70.3366Z" fill="#E0E0E0"/>
<path d="M134.637 61.1757L134.645 63.8263L140.489 60.4516V57.801L134.637 61.1757Z" fill="#E0E0E0"/>
<path d="M134.637 65.2746L134.645 67.9251L140.489 64.5504V61.8999L134.637 65.2746Z" fill="#E0E0E0"/>
<path d="M99.5798 81.4168L114.187 72.98V79.7294L99.5798 88.1662V81.4168Z" fill="#E0E0E0"/>
<path d="M143.407 56.1137L155.125 49.386V56.0992L143.407 62.8631V56.1137Z" fill="#E0E0E0"/>
<path d="M158.022 47.677V50.3347L163.866 46.96V44.3022L158.022 47.677Z" fill="#E0E0E0"/>
<path d="M158.022 51.7758V54.4336L163.866 51.0589V48.4011L158.022 51.7758Z" fill="#E0E0E0"/>
<path d="M54.0789 104.33L51.0591 102.614V116.113L54.0789 117.8V104.33Z" fill="#E0E0E0"/>
<path d="M71.822 117.003L84.9298 109.435V115.475L71.822 123.057V117.003Z" fill="#F7921E"/>
<path d="M71.822 165.451L84.9298 157.884V163.923L71.822 171.506V165.451Z" fill="#F7921E"/>
<path d="M71.822 171.505L84.9298 163.945V169.985L71.822 177.56V171.505Z" fill="#F7921E"/>
<path opacity="0.8" d="M71.822 171.505L84.9298 163.945V169.985L71.822 177.56V171.505Z" fill="white"/>
<path d="M150.498 120.023L163.598 112.456V118.503L150.498 126.078V120.023Z" fill="#F7921E"/>
<path opacity="0.3" d="M150.498 120.023L163.598 112.456V118.503L150.498 126.078V120.023Z" fill="white"/>
<path d="M150.498 126.077L163.598 118.517V124.556L150.498 132.131V126.077Z" fill="#F7921E"/>
<path opacity="0.4" d="M150.498 126.077L163.598 118.517V124.556L150.498 132.131V126.077Z" fill="white"/>
<path d="M150.498 132.139L163.598 124.571V130.618L150.498 138.193V132.139Z" fill="#F7921E"/>
<path opacity="0.5" d="M150.498 132.139L163.598 124.571V130.618L150.498 138.193V132.139Z" fill="white"/>
<path d="M150.498 138.193L163.598 130.632V136.672L150.498 144.247V138.193Z" fill="#F7921E"/>
<path opacity="0.3" d="M150.498 138.193L163.598 130.632V136.672L150.498 144.247V138.193Z" fill="white"/>
<path d="M137.579 73.3385L150.68 65.7708V96.0563L137.579 103.631V73.3385Z" fill="#F7921E"/>
<path d="M111.04 130.596L124.14 123.035V165.429L111.04 173.004V130.596Z" fill="#F7921E"/>
<path d="M84.9294 145.768L98.03 138.2V144.24L84.9294 151.822V145.768Z" fill="#F7921E"/>
<path opacity="0.3" d="M84.9294 145.768L98.03 138.2V144.24L84.9294 151.822V145.768Z" fill="black"/>
<path d="M111.167 100.34L124.268 92.772V98.8189L111.167 106.394V100.34Z" fill="#F7921E"/>
<path opacity="0.6" d="M111.167 100.34L124.268 92.772V98.8189L111.167 106.394V100.34Z" fill="white"/>
<path d="M58.5546 118.242L58.3953 118.329V203.877L163.946 142.951V57.3809L58.5546 118.242ZM71.5103 195.556L59.0398 202.754V197.461L71.5103 190.262V195.556ZM71.5103 189.509L59.0398 196.707V191.406L71.5103 184.23V189.509ZM71.5103 183.455L59.0398 190.653V185.345L71.5103 178.147V183.455ZM71.5103 177.393L59.0398 184.592V179.276L71.5103 172.085V177.393ZM71.5103 171.339L59.0398 178.538V173.222L71.5103 166.024V171.339ZM71.5103 165.278L59.0398 172.476V167.161L71.5103 159.969V165.278ZM71.5103 159.223L59.0398 166.422V161.106L71.5103 153.908V159.223ZM71.5103 153.169L59.0398 160.331V155.045L71.5103 147.854V153.169ZM71.5103 147.108L59.0398 154.306V148.991L71.5103 141.792V147.108ZM71.5103 141.046L59.0398 148.245V142.951L71.5103 135.709V141.046ZM71.5103 134.992L59.0398 142.227V136.911L71.5103 129.713V134.992ZM71.5103 128.931L59.0398 136.129V130.814L71.5103 123.622V128.931ZM71.5103 122.876L59.0398 130.068V124.759L71.5103 117.561V122.876ZM71.5103 116.808L59.0398 124.006V118.705L71.5103 111.507V116.808ZM84.6254 187.981L72.1548 195.179V189.886L84.6254 182.687V187.981ZM84.6254 181.949L72.1548 189.147V183.831L84.6254 176.633V181.949ZM84.6254 175.887L72.1548 183.085V177.77L84.6254 170.572V175.887ZM84.6254 169.833L72.1548 177.031V171.716L84.6254 164.517V169.833ZM84.6254 163.771L72.1548 170.97V165.654L84.6254 158.456V163.771ZM84.6254 157.71L72.1548 164.908V159.607L84.6254 152.409V157.71ZM84.6254 151.648L72.1548 158.883V153.575L84.6254 146.376V151.648ZM84.6254 145.594L72.1548 152.793V147.484L84.6254 140.286V145.594ZM84.6254 139.533L72.1548 146.731V141.416L84.6254 134.217V139.533ZM84.6254 133.479L72.1548 140.677V135.361L84.6254 128.163V133.479ZM84.6254 127.417L72.1548 134.616V129.3L84.6254 122.102V127.417ZM84.6254 121.363L72.1548 128.561V123.246L84.6254 116.047V121.363ZM84.6254 115.301L72.1548 122.5V117.184L84.6254 109.986V115.301ZM84.6254 109.247L72.1548 116.446V111.13L84.6254 103.932V109.247ZM97.7259 180.406L85.2337 187.604V182.311L97.697 175.119L97.7259 180.406ZM97.7259 174.374L85.2337 181.572V176.264L97.697 169.065L97.7259 174.374ZM97.7259 168.312L85.2337 175.539V170.224L97.697 163.025L97.7259 168.312ZM97.7259 162.258L85.2337 169.456V164.141L97.697 156.942L97.7259 162.258ZM97.7259 156.196L85.2337 163.395V158.079L97.7259 150.917V156.196ZM97.7259 150.142L85.2337 157.341V152.025L97.697 144.827L97.7259 150.142ZM97.7259 144.081L85.2337 151.279V145.964L97.697 138.765L97.7259 144.081ZM97.7259 138.026L85.2337 145.225V139.909L97.697 132.711L97.7259 138.026ZM97.7259 131.965L85.2337 139.163V133.848L97.697 126.649L97.7259 131.965ZM97.7259 125.911L85.2337 133.102V127.794L97.697 120.595L97.7259 125.911ZM97.7259 119.842L85.2337 127.019V121.732L97.697 114.534L97.7259 119.842ZM97.7259 113.788L85.2337 120.986V115.678L97.697 108.48L97.7259 113.788ZM97.7259 107.726L85.2337 114.925V109.638L97.7259 102.396V107.726ZM97.7259 101.672L85.2337 108.871V103.555L97.697 96.3567L97.7259 101.672ZM110.841 172.838L98.3777 180.08V174.743L110.841 167.573V172.838ZM110.841 166.806L98.3777 174.004V168.689L110.841 161.49V166.806ZM110.841 160.744L98.3777 167.935V162.627L110.841 155.429V160.744ZM110.841 154.683L98.3777 161.881V156.573L110.841 149.375V154.683ZM110.841 148.621L98.3777 155.82V150.511L110.841 143.313V148.621ZM110.841 142.567L98.3777 149.766V144.45L110.841 137.259V142.567ZM110.841 136.506L98.3777 143.675V138.389L110.841 131.19V136.506ZM110.841 130.451L98.3777 137.65V132.334L110.841 125.136V130.451ZM110.841 124.39L98.3777 131.588V126.295L110.841 119.053V124.39ZM110.841 118.336L98.3777 125.57V120.255L110.841 113.056V118.336ZM110.841 112.274L98.3777 119.473V114.157L110.841 106.959V112.274ZM110.841 106.22L98.3777 113.419V108.103L110.841 100.905V106.22ZM110.841 100.159L98.3777 107.357V102.042L110.841 94.8431V100.159ZM110.841 94.1044L98.3777 101.303V95.9873L110.841 88.7889V94.1044ZM123.956 165.27L111.493 172.469V167.175L123.956 159.977V165.27ZM123.956 159.231L111.493 166.429V161.114L123.956 153.915V159.231ZM123.956 153.169L111.493 160.375V155.059L123.956 147.861V153.169ZM123.956 147.115L111.493 154.313V148.998L123.956 141.8V147.115ZM123.956 141.054L111.493 148.252V142.951L123.956 135.753V141.054ZM123.956 134.999L111.493 142.227V136.911L123.956 129.713V134.999ZM123.956 128.938L111.493 136.136V130.828L123.956 123.63V128.938ZM123.956 122.876L111.493 130.075V124.767L123.956 117.604V122.876ZM123.956 116.815L111.493 124.013V118.712L123.956 111.507V116.815ZM123.956 110.761L111.493 117.959V112.651L123.956 105.452V110.761ZM123.956 104.699L111.493 111.898V106.589L123.956 99.391V104.699ZM123.956 98.6451L111.493 105.844V100.528L123.956 93.3296V98.6451ZM123.956 92.5837L111.493 99.7821V94.4738L123.956 87.2754V92.5837ZM123.956 86.5294L111.493 93.7062V88.4196L123.956 81.2139V86.5294ZM137.071 157.703L124.601 164.901V159.607L137.071 152.409V157.703ZM137.071 151.656L124.601 158.883V153.575L137.071 146.376V151.656ZM137.071 145.601L124.601 152.8V147.484L137.071 140.293V145.601ZM137.071 139.54L124.601 146.738V141.423L137.071 134.261V139.54ZM137.071 133.486L124.601 140.684V135.369L137.071 128.17V133.486ZM137.071 127.424L124.601 134.623V129.307L137.071 122.109V127.424ZM137.071 121.37L124.601 128.569V123.253L137.071 116.055V121.37ZM137.071 115.309L124.601 122.507V117.192L137.071 109.993V115.309ZM137.071 109.254L124.601 116.453V111.137L137.071 103.939V109.254ZM137.071 103.193L124.601 110.362V105.076L137.071 97.8775V103.193ZM137.071 97.1388L124.601 104.337V99.0217L137.071 91.8233V97.1388ZM137.071 91.0773L124.601 98.2685V92.982L137.071 85.7401V91.0773ZM137.071 85.0086L124.601 92.2143V86.906L137.071 79.7076V85.0086ZM137.071 78.9544L124.601 86.1529V80.8518L137.071 73.6534V78.9544ZM150.186 150.128L137.716 157.326V152.032L150.186 144.834V150.128ZM150.186 144.088L137.716 151.286V145.971L150.186 138.772V144.088ZM150.186 138.034L137.716 145.232V139.917L150.186 132.718V138.034ZM150.186 131.972L137.716 139.171V133.855L150.186 126.657V131.972ZM150.186 125.911L137.716 133.109V127.801L150.186 120.603V125.911ZM150.186 119.849L137.716 127.019V121.711L150.186 114.512V119.849ZM150.186 113.795L137.716 120.994V115.685L150.186 108.487V113.795ZM150.186 107.734L137.716 114.932V109.638L150.186 102.396V107.734ZM150.186 101.679L137.716 108.914V103.599L150.186 96.4001V101.679ZM150.186 95.618L137.716 102.816V97.5009L150.186 90.3025V95.618ZM150.186 89.5638L137.716 96.7622V91.4467L150.186 84.2483V89.5638ZM150.186 83.5023L137.716 90.7008V85.3852L150.186 78.1868V83.5023ZM150.186 77.4481L137.716 84.6465V79.331L150.186 72.1326V77.4481ZM150.186 71.3867L137.716 78.5851V73.2768L150.186 66.0784V71.3867ZM163.301 142.553L150.831 149.751V144.457L163.301 137.259V142.553ZM163.301 136.513L150.831 143.711V138.396L163.301 131.197V136.513ZM163.301 130.459L150.831 137.657V132.342L163.301 125.143V130.459ZM163.301 124.397L150.831 131.596V126.295L163.301 119.053V124.397ZM163.301 118.343L150.831 125.57V120.255L163.301 113.056V118.343ZM163.301 112.282L150.831 119.48V114.164L163.301 106.966V112.282ZM163.301 106.227L150.831 113.426V108.11L163.301 100.948V106.227ZM163.301 100.166L150.831 107.364V102.049L163.301 94.8504V100.166ZM163.301 94.1117L150.831 101.303V95.9946L163.301 88.7962V94.1117ZM163.301 88.043L150.831 95.2414V89.9331L163.301 82.7347V88.043ZM163.301 81.9888L150.831 89.1872V83.8789L163.301 76.6805V81.9888ZM163.301 75.9273L150.831 83.1258V77.8175L163.301 70.619V75.9273ZM163.301 69.8731L150.831 77.0498V71.7343L163.301 64.5358V69.8731ZM163.301 63.8117L150.831 71.0101V65.7018L163.301 58.5034V63.8117Z" fill="#E0E0E0"/>
<path d="M188.005 46.6094L183.254 43.843L70.6064 110.896V211.312C70.6064 212.927 71.1713 214.056 72.0548 214.585L75.0747 216.337C75.9944 216.866 77.2472 216.794 78.6594 215.983L182.899 155.795C184.375 154.833 185.603 153.535 186.484 152.009C187.365 150.483 187.873 148.771 187.968 147.011L188.005 46.6094Z" fill="#E6E6E6"/>
<path opacity="0.15" d="M70.6064 124.431V211.334C70.6064 212.948 71.1713 214.078 72.0548 214.607L75.0747 216.359C75.479 216.579 75.9324 216.694 76.3927 216.693L73.5901 213.072V126.118L70.6064 124.431Z" fill="black"/>
<path d="M76.4364 216.098C77.1347 216.065 77.8128 215.853 78.4062 215.483L182.646 155.296C184.034 154.387 185.19 153.164 186.019 151.726C186.848 150.288 187.327 148.675 187.418 147.018V47.6233L74.2131 112.989V213.064C74.2131 214.998 75.046 216.098 76.4364 216.098Z" fill="#FAFAFA"/>
<path d="M186.831 48.6373V147.018C186.735 148.572 186.28 150.082 185.503 151.43C184.725 152.778 183.645 153.928 182.349 154.789L78.1089 214.998C77.6058 215.316 77.0301 215.5 76.436 215.534C74.9876 215.534 74.7993 213.825 74.7993 213.086V113.322L186.831 48.6373ZM188.004 46.6096L73.6406 112.648V213.064C73.6406 215.353 74.7848 216.685 76.4505 216.685C77.2543 216.647 78.0337 216.397 78.7099 215.961L182.95 155.774C184.426 154.811 185.654 153.514 186.534 151.988C187.415 150.461 187.924 148.749 188.019 146.989V46.6096H188.004Z" fill="#E0E0E0"/>
<path d="M183.544 37.0648C182.624 36.4999 181.371 36.5579 179.923 37.3835L75.6758 97.5708C74.2 98.5319 72.9718 99.8277 72.091 101.353C71.2101 102.878 70.7015 104.589 70.6064 106.348V110.896L73.6263 112.648L188.005 46.6096V42.0617C188.005 40.454 187.44 39.3243 186.556 38.7956C185.673 38.267 184.369 37.5717 183.544 37.0648Z" fill="#F7921E"/>
<path d="M73.6406 108.1C73.738 106.342 74.2476 104.632 75.1282 103.107C76.0088 101.582 77.2358 100.286 78.7099 99.3232L182.95 39.136C185.745 37.521 188.019 38.8318 188.019 42.0327V46.5806L73.6406 112.648V108.1Z" fill="#F7921E"/>
<path opacity="0.3" d="M73.6406 108.1C73.738 106.342 74.2476 104.632 75.1282 103.107C76.0088 101.582 77.2358 100.286 78.7099 99.3232L182.95 39.136C185.745 37.521 188.019 38.8318 188.019 42.0327V46.5806L73.6406 112.648V108.1Z" fill="white"/>
<path d="M186.614 38.8244C185.687 38.2523 184.441 38.3103 182.993 39.1359L78.71 99.3231C77.1996 100.253 75.9529 101.554 75.089 103.103L72.0547 101.365C72.9192 99.813 74.1655 98.5069 75.6756 97.5706L179.915 37.3761C181.364 36.5577 182.624 36.4998 183.536 37.0647C184.449 37.6295 185.709 38.2958 186.534 38.7882C186.549 38.8027 186.571 38.81 186.614 38.8244Z" fill="#F7921E"/>
<path opacity="0.45" d="M186.614 38.8244C185.687 38.2523 184.441 38.3103 182.993 39.1359L78.71 99.3231C77.1996 100.253 75.9529 101.554 75.089 103.103L72.0547 101.365C72.9192 99.813 74.1655 98.5069 75.6756 97.5706L179.915 37.3761C181.364 36.5577 182.624 36.4998 183.536 37.0647C184.449 37.6295 185.709 38.2958 186.534 38.7882C186.549 38.8027 186.571 38.81 186.614 38.8244Z" fill="white"/>
<path d="M170.306 49.9335C169.786 50.2665 169.353 50.7176 169.041 51.2499C168.728 51.7823 168.546 52.3808 168.51 52.9968C168.51 54.1265 169.299 54.5827 170.277 54.0251C170.793 53.6885 171.222 53.2351 171.53 52.7016C171.838 52.1682 172.017 51.5697 172.051 50.9546C172.08 49.8248 171.283 49.3686 170.306 49.9335Z" fill="#FAFAFA"/>
<path d="M176.476 46.3707C175.961 46.7062 175.532 47.1585 175.225 47.6908C174.918 48.2231 174.741 48.8204 174.708 49.434C174.708 50.5638 175.498 51.02 176.476 50.4551C176.991 50.12 177.421 49.668 177.729 49.1357C178.037 48.6035 178.216 48.006 178.25 47.3918C178.272 46.2621 177.475 45.8058 176.476 46.3707Z" fill="#FAFAFA"/>
<path d="M182.689 42.8001C182.175 43.1364 181.747 43.5889 181.44 44.121C181.133 44.6531 180.956 45.25 180.922 45.8634C180.922 46.9931 181.711 47.4566 182.689 46.8917C183.205 46.5551 183.634 46.1017 183.943 45.5683C184.251 45.0348 184.429 44.4363 184.463 43.8212C184.441 42.6987 183.667 42.2352 182.689 42.8001Z" fill="#FAFAFA"/>
<path d="M73.6262 112.648V126.118L188.005 60.1013V46.6096L73.6262 112.648Z" fill="#EBEBEB"/>
<path d="M78.225 113.351L89.9351 106.623V113.337L78.2178 120.1L78.225 113.351Z" fill="#E0E0E0"/>
<path d="M92.8318 104.921V107.571L98.676 104.197V101.546L92.8318 104.921Z" fill="#E0E0E0"/>
<path d="M92.8318 109.02V111.671L98.676 108.296V105.645L92.8318 109.02Z" fill="#E0E0E0"/>
<path d="M101.594 99.8593V102.51L107.439 99.1352V96.4846L101.594 99.8593Z" fill="#E0E0E0"/>
<path d="M101.594 103.958V106.608L107.439 103.234V100.583L101.594 103.958Z" fill="#E0E0E0"/>
<path d="M110.364 94.7968V97.4474L116.208 94.0727V91.4221L110.364 94.7968Z" fill="#E0E0E0"/>
<path d="M110.364 98.8957V101.546L116.208 98.1715V95.521L110.364 98.8957Z" fill="#E0E0E0"/>
<path d="M136.66 79.6179V82.2684L142.504 78.8937V76.2432L136.66 79.6179Z" fill="#E0E0E0"/>
<path d="M136.66 83.7168V86.3673L142.504 82.9926V80.342L136.66 83.7168Z" fill="#E0E0E0"/>
<path d="M145.422 74.5561V77.2066L151.266 73.8319V71.1814L145.422 74.5561Z" fill="#E0E0E0"/>
<path d="M145.422 78.6547V81.3053L151.266 77.9306V75.28L145.422 78.6547Z" fill="#E0E0E0"/>
<path d="M154.185 69.4939L154.192 72.1444L160.036 68.7697V66.1191L154.185 69.4939Z" fill="#E0E0E0"/>
<path d="M154.185 73.5927L154.192 76.2433L160.036 72.8685V70.218L154.185 73.5927Z" fill="#E0E0E0"/>
<path d="M119.127 89.7349L133.734 81.2981V88.0475L119.127 96.4843V89.7349Z" fill="#E0E0E0"/>
<path d="M162.955 64.4318L174.672 57.7041V64.4173L162.955 71.1813V64.4318Z" fill="#E0E0E0"/>
<path d="M177.569 55.9951V58.6529L183.413 55.2781V52.6204L177.569 55.9951Z" fill="#E0E0E0"/>
<path d="M177.569 60.094V62.7517L183.413 59.377V56.7192L177.569 60.094Z" fill="#E0E0E0"/>
<path d="M73.6263 112.648L70.6064 110.932V124.431L73.6263 126.118V112.648Z" fill="#E0E0E0"/>
<path d="M91.3694 125.321L104.477 117.753V123.793L91.3694 131.375V125.321Z" fill="#F7921E"/>
<path d="M91.3694 173.769L104.477 166.202V172.241L91.3694 179.824V173.769Z" fill="#F7921E"/>
<path d="M91.3694 179.823L104.477 172.263V178.303L91.3694 185.878V179.823Z" fill="#F7921E"/>
<path opacity="0.8" d="M91.3694 179.823L104.477 172.263V178.303L91.3694 185.878V179.823Z" fill="white"/>
<path d="M170.045 128.341L183.145 120.774V126.821L170.045 134.396V128.341Z" fill="#F7921E"/>
<path opacity="0.3" d="M170.045 128.341L183.145 120.774V126.821L170.045 134.396V128.341Z" fill="white"/>
<path d="M170.045 134.395L183.145 126.835V132.874L170.045 140.449V134.395Z" fill="#F7921E"/>
<path opacity="0.4" d="M170.045 134.395L183.145 126.835V132.874L170.045 140.449V134.395Z" fill="white"/>
<path d="M170.045 140.457L183.145 132.889V138.936L170.045 146.511V140.457Z" fill="#F7921E"/>
<path opacity="0.5" d="M170.045 140.457L183.145 132.889V138.936L170.045 146.511V140.457Z" fill="white"/>
<path d="M170.045 146.511L183.145 138.95V144.99L170.045 152.565V146.511Z" fill="#F7921E"/>
<path opacity="0.3" d="M170.045 146.511L183.145 138.95V144.99L170.045 152.565V146.511Z" fill="white"/>
<path d="M157.126 81.6566L170.227 74.0889V104.374L157.126 111.949V81.6566Z" fill="#F7921E"/>
<path d="M130.587 138.914L143.687 131.354V173.748L130.587 181.323V138.914Z" fill="#F7921E"/>
<path d="M104.477 154.086L117.577 146.518V152.558L104.477 160.14V154.086Z" fill="#F7921E"/>
<path opacity="0.3" d="M104.477 154.086L117.577 146.518V152.558L104.477 160.14V154.086Z" fill="black"/>
<path d="M130.714 108.658L143.815 101.09V107.137L130.714 114.712V108.658Z" fill="#F7921E"/>
<path opacity="0.6" d="M130.714 108.658L143.815 101.09V107.137L130.714 114.712V108.658Z" fill="white"/>
<path d="M78.1019 126.56L77.9426 126.647V212.195L183.493 151.269V65.699L78.1019 126.56ZM91.0577 203.874L78.5872 211.073V205.779L91.0577 198.58V203.874ZM91.0577 197.827L78.5872 205.026V199.725L91.0577 192.548V197.827ZM91.0577 191.773L78.5872 198.971V193.663L91.0577 186.465V191.773ZM91.0577 185.711L78.5872 192.91V187.594L91.0577 180.403V185.711ZM91.0577 179.657L78.5872 186.856V181.54L91.0577 174.342V179.657ZM91.0577 173.596L78.5872 180.794V175.479L91.0577 168.288V173.596ZM91.0577 167.542L78.5872 174.74V169.424L91.0577 162.226V167.542ZM91.0577 161.487L78.5872 168.65V163.363L91.0577 156.172V161.487ZM91.0577 155.426L78.5872 162.624V157.309L91.0577 150.11V155.426ZM91.0577 149.364L78.5872 156.563V151.269L91.0577 144.027V149.364ZM91.0577 143.31L78.5872 150.545V145.229L91.0577 138.031V143.31ZM91.0577 137.249L78.5872 144.447V139.132L91.0577 131.94V137.249ZM91.0577 131.195L78.5872 138.386V133.077L91.0577 125.879V131.195ZM91.0577 125.126L78.5872 132.324V127.023L91.0577 119.825V125.126ZM104.173 196.299L91.7022 203.498V198.204L104.173 191.005V196.299ZM104.173 190.267L91.7022 197.465V192.15L104.173 184.951V190.267ZM104.173 184.205L91.7022 191.404V186.088L104.173 178.89V184.205ZM104.173 178.151L91.7022 185.349V180.034L104.173 172.835V178.151ZM104.173 172.089L91.7022 179.288V173.972L104.173 166.774V172.089ZM104.173 166.028L91.7022 173.226V167.925L104.173 160.727V166.028ZM104.173 159.967L91.7022 167.201V161.893L104.173 154.694V159.967ZM104.173 153.912L91.7022 161.111V155.803L104.173 148.604V153.912ZM104.173 147.851L91.7022 155.049V149.734L104.173 142.535V147.851ZM104.173 141.797L91.7022 148.995V143.68L104.173 136.481V141.797ZM104.173 135.735L91.7022 142.934V137.618L104.173 130.42V135.735ZM104.173 129.681L91.7022 136.879V131.564L104.173 124.365V129.681ZM104.173 123.62L91.7022 130.818V125.502L104.173 118.304V123.62ZM104.173 117.565L91.7022 124.764V119.448L104.173 112.25V117.565ZM117.273 188.724L104.781 195.923V190.629L117.244 183.438L117.273 188.724ZM117.273 182.692L104.781 189.89V184.582L117.244 177.383L117.273 182.692ZM117.273 176.63L104.781 183.858V178.542L117.244 171.344L117.273 176.63ZM117.273 170.576L104.781 177.774V172.459L117.244 165.26L117.273 170.576ZM117.273 164.514L104.781 171.713V166.397L117.273 159.235V164.514ZM117.273 158.46L104.781 165.659V160.343L117.244 153.145L117.273 158.46ZM117.273 152.399L104.781 159.597V154.282L117.244 147.083L117.273 152.399ZM117.273 146.345L104.781 153.543V148.227L117.244 141.029L117.273 146.345ZM117.273 140.283L104.781 147.482V142.166L117.244 134.968L117.273 140.283ZM117.273 134.229L104.781 141.42V136.112L117.244 128.913L117.273 134.229ZM117.273 128.16L104.781 135.337V130.05L117.244 122.852L117.273 128.16ZM117.273 122.106L104.781 129.304V123.996L117.244 116.798L117.273 122.106ZM117.273 116.045L104.781 123.243V117.956L117.273 110.715V116.045ZM117.273 109.99L104.781 117.189V111.873L117.244 104.675L117.273 109.99ZM130.388 181.156L117.925 188.398V183.061L130.388 175.891V181.156ZM130.388 175.124L117.925 182.322V177.007L130.388 169.808V175.124ZM130.388 169.062L117.925 176.254V170.945L130.388 163.747V169.062ZM130.388 163.001L117.925 170.199V164.891L130.388 157.693V163.001ZM130.388 156.939L117.925 164.138V158.83L130.388 151.631V156.939ZM130.388 150.885L117.925 158.084V152.768L130.388 145.577V150.885ZM130.388 144.824L117.925 151.993V146.707L130.388 139.508V144.824ZM130.388 138.77L117.925 145.968V140.652L130.388 133.454V138.77ZM130.388 132.708L117.925 139.907V134.613L130.388 127.371V132.708ZM130.388 126.654L117.925 133.889V128.573L130.388 121.375V126.654ZM130.388 120.592L117.925 127.791V122.475L130.388 115.277V120.592ZM130.388 114.538L117.925 121.737V116.421L130.388 109.223V114.538ZM130.388 108.477L117.925 115.675V110.36L130.388 103.161V108.477ZM130.388 102.423L117.925 109.621V104.305L130.388 97.107V102.423ZM143.503 173.589L131.04 180.787V175.493L143.503 168.295V173.589ZM143.503 167.549L131.04 174.747V169.432L143.503 162.233V167.549ZM143.503 161.487L131.04 168.693V163.378L143.503 156.179V161.487ZM143.503 155.433L131.04 162.632V157.316L143.503 150.118V155.433ZM143.503 149.372L131.04 156.57V151.269L143.503 144.071V149.372ZM143.503 143.317L131.04 150.545V145.229L143.503 138.031V143.317ZM143.503 137.256L131.04 144.454V139.146L143.503 131.948V137.256ZM143.503 131.195L131.04 138.393V133.085L143.503 125.922V131.195ZM143.503 125.133L131.04 132.332V127.03L143.503 119.825V125.133ZM143.503 119.079L131.04 126.277V120.969L143.503 113.771V119.079ZM143.503 113.017L131.04 120.216V114.908L143.503 107.709V113.017ZM143.503 106.963L131.04 114.162V108.846L143.503 101.648V106.963ZM143.503 100.902L131.04 108.1V102.792L143.503 95.5935V100.902ZM143.503 94.8476L131.04 102.024V96.7377L143.503 89.532V94.8476ZM156.618 166.021L144.148 173.219V167.925L156.618 160.727V166.021ZM156.618 159.974L144.148 167.201V161.893L156.618 154.694V159.974ZM156.618 153.92L144.148 161.118V155.803L156.618 148.611V153.92ZM156.618 147.858L144.148 155.057V149.741L156.618 142.579V147.858ZM156.618 141.804L144.148 149.002V143.687L156.618 136.488V141.804ZM156.618 135.742L144.148 142.941V137.625L156.618 130.427V135.742ZM156.618 129.688L144.148 136.887V131.571L156.618 124.373V129.688ZM156.618 123.627L144.148 130.825V125.51L156.618 118.311V123.627ZM156.618 117.573L144.148 124.771V119.455L156.618 112.257V117.573ZM156.618 111.511L144.148 118.681V113.394L156.618 106.196V111.511ZM156.618 105.457L144.148 112.655V107.34L156.618 100.141V105.457ZM156.618 99.3955L144.148 106.587V101.3L156.618 94.0582V99.3955ZM156.618 93.3268L144.148 100.532V95.2241L156.618 88.0257V93.3268ZM156.618 87.2726L144.148 94.471V89.1699L156.618 81.9715V87.2726ZM169.734 158.446L157.263 165.644V160.35L169.734 153.152V158.446ZM169.734 152.406L157.263 159.604V154.289L169.734 147.091V152.406ZM169.734 146.352L157.263 153.55V148.235L169.734 141.036V146.352ZM169.734 140.29L157.263 147.489V142.173L169.734 134.975V140.29ZM169.734 134.229L157.263 141.427V136.119L169.734 128.921V134.229ZM169.734 128.167L157.263 135.337V130.029L169.734 122.83V128.167ZM169.734 122.113L157.263 129.312V124.003L169.734 116.805V122.113ZM169.734 116.052L157.263 123.25V117.956L169.734 110.715V116.052ZM169.734 109.998L157.263 117.232V111.917L169.734 104.718V109.998ZM169.734 103.936L157.263 111.135V105.819L169.734 98.6206V103.936ZM169.734 97.8819L157.263 105.08V99.7648L169.734 92.5664V97.8819ZM169.734 91.8205L157.263 99.0189V93.7034L169.734 86.5049V91.8205ZM169.734 85.7662L157.263 92.9647V87.6491L169.734 80.4507V85.7662ZM169.734 79.7048L157.263 86.9032V81.5949L169.734 74.3965V79.7048ZM182.849 150.871L170.378 158.069V152.775L182.849 145.577V150.871ZM182.849 144.831L170.378 152.029V146.714L182.849 139.515V144.831ZM182.849 138.777L170.378 145.975V140.66L182.849 133.461V138.777ZM182.849 132.715L170.378 139.914V134.613L182.849 127.371V132.715ZM182.849 126.661L170.378 133.889V128.573L182.849 121.375V126.661ZM182.849 120.6L170.378 127.798V122.483L182.849 115.284V120.6ZM182.849 114.545L170.378 121.744V116.428L182.849 109.266V114.545ZM182.849 108.484L170.378 115.682V110.367L182.849 103.168V108.484ZM182.849 102.43L170.378 109.621V104.313L182.849 97.1143V102.43ZM182.849 96.3611L170.378 103.56V98.2513L182.849 91.0528V96.3611ZM182.849 90.3069L170.378 97.5053V92.197L182.849 84.9986V90.3069ZM182.849 84.2455L170.378 91.4439V86.1356L182.849 78.9371V84.2455ZM182.849 78.1912L170.378 85.3679V80.0524L182.849 72.854V78.1912ZM182.849 72.1298L170.378 79.3282V74.0199L182.849 66.8215V72.1298Z" fill="#E0E0E0"/>
<path d="M203.034 110.985V170.169C203.007 170.61 202.877 171.038 202.654 171.42C202.432 171.801 202.123 172.125 201.752 172.366L159.031 197.052C158.902 197.146 158.751 197.203 158.593 197.22C158.435 197.236 158.275 197.21 158.131 197.144L155.75 195.771C155.621 195.678 155.517 195.554 155.45 195.409C155.384 195.265 155.355 195.106 155.369 194.947V123.465C155.391 123.023 155.519 122.593 155.742 122.21C155.965 121.828 156.277 121.505 156.651 121.268L188.692 102.73L203.034 110.985Z" fill="#F0F0F0"/>
<path d="M160.114 124.762L155.674 122.291C155.472 122.65 155.357 123.053 155.338 123.465V194.886C155.325 195.045 155.353 195.204 155.42 195.349C155.487 195.493 155.59 195.618 155.72 195.71L158.1 197.083C158.245 197.149 158.404 197.175 158.562 197.159C158.72 197.143 158.871 197.085 159 196.992L160.114 196.351V124.762Z" fill="#E0E0E0"/>
<path d="M203.034 110.984V170.168C203.007 170.609 202.877 171.038 202.654 171.42C202.432 171.801 202.123 172.125 201.752 172.366L159.031 197.052C158.329 197.464 157.765 197.052 157.765 196.32V124.854C157.789 124.412 157.916 123.981 158.135 123.597C158.355 123.213 158.662 122.886 159.031 122.641L183.977 108.238L191.133 104.103L203.034 110.984Z" fill="#FAFAFA"/>
<path d="M158.436 197.464C158.27 197.464 158.108 197.422 157.963 197.342C157.787 197.225 157.646 197.063 157.554 196.872C157.463 196.681 157.425 196.47 157.444 196.259V124.854C157.462 124.361 157.599 123.881 157.844 123.453C158.088 123.025 158.433 122.663 158.848 122.397L191.133 103.768L203.339 110.817V170.169C203.319 170.662 203.179 171.144 202.932 171.572C202.685 172 202.337 172.361 201.92 172.625L159.199 197.312C158.962 197.428 158.699 197.48 158.436 197.464ZM191.102 104.393L159.092 122.87C158.766 123.087 158.495 123.376 158.299 123.715C158.104 124.054 157.988 124.433 157.963 124.823V196.229C157.963 196.503 158.039 196.717 158.192 196.793C158.29 196.832 158.397 196.844 158.502 196.828C158.606 196.812 158.705 196.768 158.787 196.702L201.508 172.015C201.833 171.801 202.104 171.515 202.3 171.179C202.496 170.842 202.611 170.465 202.637 170.077V111.152L191.102 104.393Z" fill="#E0E0E0"/>
<path d="M196.778 111.458C197.236 111.458 197.556 111.824 197.556 112.465V145.604C197.536 146.094 197.397 146.572 197.153 146.996C196.908 147.421 196.565 147.781 196.153 148.045L164.615 166.248C164.428 166.369 164.212 166.438 163.99 166.446C163.517 166.446 163.196 166.08 163.196 165.439V132.284C163.221 131.796 163.363 131.321 163.61 130.898C163.857 130.476 164.202 130.119 164.615 129.858L185.976 117.546L196.183 111.641C196.372 111.526 196.588 111.463 196.809 111.458M196.809 110.863C196.48 110.87 196.158 110.965 195.878 111.137L185.671 117.027L164.31 129.34C163.81 129.657 163.393 130.091 163.096 130.603C162.798 131.116 162.629 131.692 162.601 132.284V165.439C162.589 165.63 162.615 165.821 162.677 166.002C162.74 166.183 162.838 166.349 162.966 166.491C163.094 166.633 163.249 166.749 163.423 166.83C163.596 166.911 163.783 166.957 163.974 166.965C164.296 166.956 164.611 166.867 164.89 166.705L196.427 148.488C196.923 148.167 197.335 147.732 197.629 147.22C197.924 146.708 198.092 146.133 198.121 145.543V112.465C198.144 112.269 198.127 112.071 198.07 111.882C198.013 111.693 197.918 111.518 197.791 111.368C197.663 111.218 197.506 111.095 197.329 111.008C197.153 110.921 196.96 110.872 196.763 110.863H196.809Z" fill="#E0E0E0"/>
<path d="M167.346 158.711C167.279 158.716 167.211 158.699 167.156 158.66C167.1 158.621 167.059 158.565 167.041 158.499C167.023 158.434 167.029 158.365 167.056 158.303C167.084 158.241 167.133 158.191 167.193 158.161L193.238 143.117C193.271 143.098 193.308 143.086 193.345 143.081C193.383 143.076 193.422 143.078 193.459 143.088C193.495 143.098 193.53 143.115 193.56 143.139C193.591 143.162 193.616 143.191 193.635 143.224C193.656 143.257 193.67 143.293 193.677 143.331C193.683 143.37 193.681 143.409 193.671 143.446C193.66 143.484 193.643 143.519 193.618 143.549C193.593 143.579 193.563 143.604 193.528 143.621L167.483 158.665L167.346 158.711Z" fill="#E0E0E0"/>
<path d="M167.346 155.689C167.279 155.695 167.211 155.677 167.156 155.639C167.1 155.6 167.059 155.543 167.041 155.478C167.023 155.413 167.029 155.343 167.056 155.281C167.084 155.22 167.133 155.17 167.193 155.14L193.238 140.096C193.271 140.077 193.308 140.064 193.345 140.059C193.383 140.054 193.422 140.057 193.459 140.067C193.495 140.077 193.53 140.094 193.56 140.117C193.591 140.14 193.616 140.17 193.635 140.203C193.656 140.235 193.67 140.272 193.677 140.31C193.683 140.348 193.681 140.388 193.671 140.425C193.66 140.462 193.643 140.497 193.618 140.527C193.593 140.558 193.563 140.582 193.528 140.599L167.483 155.643C167.443 155.672 167.395 155.688 167.346 155.689Z" fill="#E0E0E0"/>
<path d="M167.346 152.653C167.294 152.655 167.243 152.644 167.198 152.62C167.152 152.596 167.114 152.56 167.087 152.516C167.051 152.446 167.042 152.365 167.062 152.289C167.081 152.214 167.128 152.148 167.193 152.104L193.238 137.075C193.305 137.037 193.384 137.026 193.459 137.046C193.533 137.066 193.596 137.115 193.635 137.182C193.673 137.249 193.684 137.328 193.664 137.402C193.644 137.477 193.595 137.54 193.528 137.579L167.483 152.623L167.346 152.653Z" fill="#E0E0E0"/>
<path d="M167.346 149.632C167.293 149.635 167.24 149.621 167.194 149.594C167.148 149.567 167.11 149.527 167.087 149.479C167.068 149.446 167.055 149.41 167.05 149.372C167.045 149.334 167.048 149.296 167.058 149.259C167.068 149.222 167.085 149.187 167.108 149.157C167.131 149.127 167.16 149.102 167.194 149.083L193.238 134.039C193.271 134.02 193.308 134.007 193.346 134.002C193.383 133.997 193.422 134 193.459 134.01C193.496 134.02 193.53 134.037 193.56 134.06C193.591 134.083 193.616 134.112 193.635 134.146C193.657 134.179 193.671 134.217 193.677 134.256C193.684 134.296 193.682 134.336 193.672 134.375C193.662 134.414 193.644 134.45 193.619 134.481C193.594 134.513 193.563 134.539 193.528 134.557L167.483 149.586C167.443 149.615 167.396 149.631 167.346 149.632Z" fill="#E0E0E0"/>
<path d="M167.346 146.611C167.279 146.617 167.211 146.599 167.156 146.56C167.1 146.522 167.059 146.465 167.041 146.4C167.023 146.335 167.029 146.265 167.056 146.203C167.084 146.141 167.133 146.091 167.193 146.062L193.238 131.018C193.271 130.999 193.308 130.986 193.345 130.981C193.383 130.976 193.422 130.979 193.459 130.989C193.495 130.999 193.53 131.016 193.56 131.039C193.591 131.062 193.616 131.091 193.635 131.125C193.656 131.158 193.671 131.196 193.677 131.235C193.683 131.275 193.681 131.315 193.671 131.354C193.661 131.393 193.643 131.429 193.619 131.46C193.594 131.492 193.563 131.518 193.528 131.536L167.483 146.565C167.443 146.594 167.395 146.61 167.346 146.611Z" fill="#E0E0E0"/>
<path d="M167.346 143.59C167.279 143.596 167.211 143.578 167.156 143.539C167.1 143.501 167.059 143.444 167.041 143.379C167.023 143.313 167.029 143.244 167.056 143.182C167.084 143.12 167.133 143.07 167.193 143.041L193.238 127.997C193.271 127.978 193.308 127.965 193.345 127.96C193.383 127.955 193.422 127.958 193.459 127.968C193.495 127.978 193.53 127.995 193.56 128.018C193.591 128.041 193.616 128.07 193.635 128.104C193.656 128.136 193.67 128.173 193.677 128.211C193.683 128.249 193.681 128.288 193.671 128.326C193.66 128.363 193.643 128.398 193.618 128.428C193.593 128.458 193.563 128.483 193.528 128.5L167.483 143.544L167.346 143.59Z" fill="#E0E0E0"/>
<path d="M167.346 140.554C167.294 140.556 167.243 140.544 167.198 140.52C167.152 140.496 167.114 140.46 167.087 140.416C167.051 140.347 167.042 140.266 167.062 140.19C167.081 140.114 167.128 140.048 167.193 140.004L193.238 124.976C193.305 124.937 193.384 124.927 193.459 124.947C193.533 124.967 193.596 125.016 193.635 125.083C193.673 125.149 193.684 125.229 193.664 125.303C193.644 125.377 193.595 125.441 193.528 125.479L167.483 140.523L167.346 140.554Z" fill="#E0E0E0"/>
<path d="M167.346 137.533C167.293 137.535 167.24 137.522 167.194 137.495C167.148 137.468 167.11 137.428 167.087 137.38C167.068 137.347 167.055 137.311 167.05 137.273C167.045 137.235 167.048 137.197 167.058 137.16C167.068 137.123 167.085 137.088 167.108 137.058C167.131 137.028 167.16 137.003 167.194 136.984L193.238 121.94C193.272 121.921 193.31 121.91 193.348 121.906C193.386 121.902 193.425 121.906 193.462 121.917C193.499 121.928 193.534 121.947 193.563 121.972C193.593 121.997 193.617 122.027 193.635 122.062C193.656 122.094 193.671 122.131 193.677 122.169C193.683 122.207 193.681 122.247 193.671 122.284C193.661 122.322 193.643 122.357 193.618 122.387C193.594 122.417 193.563 122.441 193.528 122.458L167.483 137.487L167.346 137.533Z" fill="#E0E0E0"/>
<path d="M167.346 134.512C167.279 134.518 167.211 134.5 167.156 134.461C167.1 134.422 167.059 134.366 167.041 134.3C167.023 134.235 167.029 134.166 167.056 134.104C167.084 134.042 167.133 133.992 167.193 133.962L193.238 118.918C193.271 118.899 193.308 118.887 193.345 118.882C193.383 118.877 193.422 118.879 193.459 118.889C193.495 118.899 193.53 118.916 193.56 118.94C193.591 118.963 193.616 118.992 193.635 119.025C193.656 119.059 193.671 119.097 193.677 119.136C193.683 119.175 193.681 119.216 193.671 119.254C193.661 119.293 193.643 119.329 193.619 119.361C193.594 119.392 193.563 119.418 193.528 119.437L167.483 134.466C167.443 134.495 167.395 134.511 167.346 134.512Z" fill="#E0E0E0"/>
<path d="M191.133 116.401V104.103L203.064 110.984L192.384 117.087C191.682 117.53 191.133 117.21 191.133 116.401Z" fill="#E0E0E0"/>
<path d="M175.631 166.095C175.099 166.444 174.656 166.913 174.338 167.464C174.02 168.015 173.836 168.633 173.8 169.269V181.032C173.8 182.207 174.639 182.68 175.646 182.085L204.879 165.118V149.174L175.631 166.095Z" fill="#F7921E"/>
<path opacity="0.5" d="M175.631 166.095C175.099 166.444 174.656 166.913 174.338 167.464C174.02 168.015 173.836 168.633 173.8 169.269V181.032C173.8 182.207 174.639 182.68 175.646 182.085L204.879 165.118V149.174L175.631 166.095Z" fill="white"/>
<path d="M178.317 177.521L200.189 164.867C200.432 164.693 200.632 164.464 200.771 164.199C200.91 163.934 200.985 163.64 200.99 163.341V155.903C200.99 155.312 200.632 155.045 200.189 155.298L178.317 167.953C178.074 168.128 177.875 168.358 177.737 168.625C177.599 168.891 177.526 169.186 177.523 169.486V176.896C177.558 177.507 177.909 177.774 178.317 177.521Z" fill="#E0E0E0"/>
<path d="M204.941 149.174L203.033 148.061V150.273L204.941 149.174Z" fill="#F7921E"/>
<path opacity="0.3" d="M204.941 149.174L203.033 148.061V150.273L204.941 149.174Z" fill="black"/>
</svg>
