<svg width="256" height="256" viewBox="0 0 256 256" fill="none" xmlns="http://www.w3.org/2000/svg">
<path d="M128 136.25C157.861 136.25 184.871 141.543 204.396 150.082C214.16 154.352 222.03 159.424 227.452 165.029C232.872 170.633 235.824 176.745 235.824 183.12C235.824 189.495 232.872 195.608 227.452 201.211C222.03 206.817 214.16 211.888 204.396 216.157C184.871 224.696 157.861 229.99 128 229.99C98.1394 229.99 71.1294 224.696 51.6035 216.157C41.8399 211.888 33.9699 206.817 28.5479 201.211C23.1282 195.608 20.1758 189.495 20.1758 183.12C20.1758 176.745 23.1282 170.633 28.5479 165.029C33.9699 159.424 41.8398 154.352 51.6035 150.082C71.1294 141.543 98.1395 136.25 128 136.25Z" stroke="#D5D5D5"/>
<path d="M155.863 39.3188V131.403L62.3169 185.407L64.4263 189.727L155.863 136.942L159.95 137.321V39.7134L155.863 39.3188Z" fill="#F0F0F0"/>
<path d="M137.061 90.0096L137.825 88.9422L132.994 86.15H132.959C132.603 85.9452 132.183 85.8835 131.784 85.9775C131.384 86.0714 131.036 86.314 130.809 86.6558L117.485 107.168L103.68 95.2147L104.252 94.3548L99.4665 91.5929C99.1085 91.3776 98.6809 91.3101 98.274 91.4045C97.8671 91.4989 97.5129 91.7478 97.2863 92.0987L62.3223 144.56V182.129L67.1177 184.896L153.466 132.288V105.787L137.061 90.0096Z" fill="#F0F0F0"/>
<path d="M67.1177 184.896V147.332L102.077 94.8555C102.203 94.6641 102.369 94.5019 102.564 94.3797C102.758 94.2576 102.976 94.1783 103.204 94.1472C103.431 94.1161 103.662 94.1338 103.882 94.1993C104.102 94.2647 104.306 94.3763 104.479 94.5267L122.28 109.94L135.604 89.4278C135.734 89.2281 135.907 89.0595 136.109 88.9342C136.312 88.8089 136.54 88.7299 136.777 88.7029C137.014 88.6758 137.253 88.7013 137.479 88.7777C137.705 88.854 137.911 88.9793 138.083 89.1445L158.256 108.559V130.695C158.256 131.177 158.129 131.651 157.889 132.069C157.648 132.487 157.302 132.835 156.885 133.077L67.1177 184.896Z" fill="#FAFAFA"/>
<path d="M122.28 109.94L129.478 116.172L123.181 108.559L122.28 109.94Z" fill="#F0F0F0"/>
<path d="M163.041 37.8165C163.036 37.7633 163.026 37.7108 163.011 37.6597C162.94 37.2846 162.794 36.9278 162.582 36.6105C162.37 36.2932 162.096 36.0221 161.777 35.8133L159.536 34.5184C159.139 34.3163 158.701 34.2109 158.256 34.2109C157.811 34.2109 157.372 34.3163 156.976 34.5184L58.8066 91.1984C58.4291 91.4373 58.1164 91.7657 57.8961 92.1544C57.6688 92.5364 57.5417 92.9697 57.5269 93.414V190.162C57.551 190.606 57.6795 191.038 57.9018 191.423C58.1242 191.808 58.4342 192.135 58.8066 192.378L61.0425 193.673C61.3904 193.848 61.7706 193.95 62.1594 193.972C62.5483 193.995 62.9377 193.938 63.3036 193.804L63.3947 193.769C63.467 193.744 63.5366 193.712 63.6021 193.673L92.0053 177.273L161.777 136.993C162.148 136.749 162.458 136.422 162.68 136.037C162.902 135.652 163.031 135.221 163.056 134.777V38.0239C163.077 37.9531 163.046 37.8822 163.041 37.8165ZM159.95 133.077C159.926 133.522 159.797 133.954 159.574 134.339C159.351 134.724 159.039 135.051 158.666 135.293L91.2465 174.02L65.9998 188.806C65.2966 189.211 64.72 188.882 64.72 188.068V97.567C64.735 97.1236 64.864 96.6916 65.0943 96.3125C65.304 95.9177 65.617 95.5872 65.9998 95.3564L158.666 41.843C159.379 41.4282 159.95 41.757 159.95 42.5765V133.077Z" fill="white"/>
<path d="M63.6021 193.672C63.5366 193.712 63.467 193.744 63.3947 193.769L63.3036 193.804C62.9377 193.938 62.5483 193.995 62.1594 193.972C61.7706 193.95 61.3904 193.848 61.0425 193.672L58.8066 192.377C58.4342 192.135 58.1242 191.808 57.9018 191.423C57.6795 191.038 57.551 190.606 57.5269 190.162V93.4138C57.5417 92.9696 57.6688 92.5363 57.8961 92.1543L62.6915 94.9213C63.4705 95.3715 64.2748 95.8318 65.0943 96.3123C64.864 96.6915 64.735 97.1235 64.72 97.5668V188.068C64.72 188.882 65.2966 189.211 65.9998 188.806L63.6021 193.672Z" fill="#F0F0F0"/>
<path d="M163.041 37.8164C163.036 37.7633 163.026 37.7107 163.011 37.6596C162.859 37.1234 162.363 36.9464 161.776 37.2853L63.6017 93.9754C63.2262 94.214 62.9134 94.5393 62.6898 94.924C62.4662 95.3087 62.3383 95.7415 62.3169 96.1859V192.934C62.3169 193.627 62.7367 193.971 63.2982 193.804L63.3893 193.769C63.4616 193.744 63.5312 193.712 63.5967 193.673L161.771 137.018C162.143 136.774 162.452 136.447 162.674 136.062C162.897 135.677 163.026 135.246 163.051 134.802V38.0238C163.076 37.953 163.046 37.8822 163.041 37.8164ZM159.95 133.077C159.926 133.522 159.797 133.954 159.573 134.339C159.35 134.724 159.039 135.051 158.665 135.293L65.9994 188.806C65.2963 189.211 64.7197 188.882 64.7197 188.068V97.5669C64.7347 97.1235 64.8636 96.6915 65.094 96.3124C65.3037 95.9176 65.6166 95.5872 65.9994 95.3564L158.665 41.843C159.379 41.4282 159.95 41.757 159.95 42.5764V133.077Z" fill="#FAFAFA"/>
<path d="M145.913 66.6293L148.336 62.5117L144.188 60.0938C142.969 59.3957 141.29 59.4969 139.438 60.5693C135.725 62.7141 132.71 67.9293 132.71 72.2037C132.71 74.3182 133.449 75.8104 134.633 76.5236H134.668L138.664 78.8455L140.981 74.9201C143.453 72.7414 145.178 69.8413 145.913 66.6293Z" fill="#F0F0F0"/>
<path d="M148.256 73.443C150.882 68.8945 150.883 63.9786 148.258 62.463C145.633 60.9474 141.376 63.4061 138.75 67.9546C136.123 72.5031 136.123 77.4191 138.748 78.9346C141.373 80.4502 145.63 77.9916 148.256 73.443Z" fill="#FAFAFA"/>
<path d="M167.498 45.895V137.979L73.9517 191.983L76.061 196.303L167.498 143.518L171.585 143.898V46.2896L167.498 45.895Z" fill="#EBEBEB"/>
<path d="M148.695 96.5857L149.459 95.5184L144.628 92.7261H144.593C144.237 92.5214 143.817 92.4597 143.418 92.5536C143.018 92.6476 142.67 92.8902 142.443 93.232L129.119 113.744L115.314 101.791L115.886 100.931L111.101 98.169C110.743 97.9538 110.315 97.8862 109.908 97.9806C109.501 98.075 109.147 98.324 108.921 98.6749L73.9565 151.136V188.705L78.752 191.472L165.1 138.864V112.363L148.695 96.5857Z" fill="#EBEBEB"/>
<path d="M78.752 191.472V153.908L113.711 101.432C113.838 101.24 114.004 101.078 114.198 100.956C114.392 100.834 114.61 100.754 114.838 100.723C115.065 100.692 115.297 100.71 115.517 100.775C115.737 100.841 115.94 100.953 116.114 101.103L133.914 116.516L147.238 96.004C147.368 95.8042 147.541 95.6357 147.744 95.5104C147.946 95.3851 148.174 95.3061 148.411 95.279C148.648 95.252 148.888 95.2775 149.113 95.3539C149.339 95.4302 149.545 95.5555 149.717 95.7207L169.89 115.135V137.271C169.89 137.753 169.763 138.227 169.523 138.645C169.282 139.063 168.936 139.411 168.519 139.653L78.752 191.472Z" fill="#F5F5F5"/>
<path d="M133.915 116.516L141.113 122.748L134.815 115.135L133.915 116.516Z" fill="#EBEBEB"/>
<path d="M174.675 44.3926C174.671 44.3395 174.661 44.2869 174.645 44.2358C174.574 43.8608 174.429 43.5039 174.216 43.1867C174.004 42.8694 173.73 42.5982 173.411 42.3895L171.17 41.0945C170.774 40.8925 170.335 40.7871 169.89 40.7871C169.445 40.7871 169.007 40.8925 168.61 41.0945L70.4409 97.7745C70.0634 98.0135 69.7507 98.3419 69.5304 98.7306C69.3031 99.1126 69.176 99.5459 69.1611 99.9901V196.738C69.1853 197.182 69.3137 197.614 69.5361 197.999C69.7585 198.384 70.0685 198.711 70.4409 198.954L72.6768 200.249C73.0247 200.424 73.4048 200.526 73.7937 200.548C74.1826 200.571 74.572 200.514 74.9379 200.38L75.0289 200.345C75.1013 200.32 75.1708 200.288 75.2363 200.249L103.64 183.849L173.411 143.569C173.782 143.325 174.092 142.998 174.314 142.613C174.536 142.228 174.665 141.797 174.691 141.353V44.6C174.711 44.5292 174.681 44.4584 174.675 44.3926ZM171.585 139.653C171.56 140.098 171.431 140.53 171.208 140.915C170.985 141.3 170.674 141.627 170.3 141.869L102.881 180.597L77.634 195.382C76.9309 195.787 76.3543 195.458 76.3543 194.644V104.143C76.3693 103.7 76.4982 103.268 76.7286 102.889C76.9383 102.494 77.2512 102.163 77.634 101.933L170.3 48.4192C171.013 48.0044 171.585 48.3332 171.585 49.1527V139.653Z" fill="#FAFAFA"/>
<path d="M75.2363 200.249C75.1708 200.288 75.1013 200.321 75.0289 200.345L74.9379 200.381C74.572 200.514 74.1826 200.571 73.7937 200.549C73.4048 200.526 73.0247 200.424 72.6768 200.249L70.4409 198.954C70.0685 198.711 69.7585 198.384 69.5361 197.999C69.3137 197.614 69.1853 197.182 69.1611 196.739V99.9905C69.176 99.5462 69.3031 99.1129 69.5304 98.731L74.3258 101.498C75.1048 101.948 75.9091 102.408 76.7286 102.889C76.4982 103.268 76.3693 103.7 76.3543 104.144V194.644C76.3543 195.459 76.9309 195.788 77.634 195.383L75.2363 200.249Z" fill="#F0F0F0"/>
<path d="M174.676 44.3926C174.671 44.3394 174.661 44.2869 174.645 44.2358C174.494 43.6996 173.998 43.5225 173.411 43.8615L75.2365 100.552C74.8609 100.79 74.5482 101.115 74.3246 101.5C74.101 101.885 73.9731 102.318 73.9517 102.762V199.51C73.9517 200.203 74.3715 200.547 74.933 200.38L75.0241 200.345C75.0964 200.32 75.1659 200.288 75.2314 200.249L173.406 143.594C173.778 143.35 174.087 143.023 174.309 142.638C174.531 142.254 174.66 141.822 174.686 141.378V44.6C174.711 44.5292 174.681 44.4584 174.676 44.3926ZM171.585 139.653C171.561 140.098 171.432 140.53 171.208 140.915C170.985 141.3 170.674 141.627 170.3 141.869L77.6342 195.382C76.9311 195.787 76.3544 195.458 76.3544 194.644V104.143C76.3695 103.7 76.4984 103.268 76.7288 102.889C76.9384 102.494 77.2514 102.163 77.6342 101.933L170.3 48.4191C171.013 48.0043 171.585 48.3331 171.585 49.1526V139.653Z" fill="#F5F5F5"/>
<path d="M157.547 73.206L159.97 69.0884L155.822 66.6704C154.603 65.9724 152.924 66.0735 151.072 67.1459C147.36 69.2907 144.345 74.506 144.345 78.7804C144.345 80.8948 145.083 82.3871 146.267 83.1003H146.302H146.328L150.324 85.4221L152.641 81.4968C155.103 79.3145 156.819 76.4148 157.547 73.206Z" fill="#EBEBEB"/>
<path d="M159.894 80.0202C162.52 75.4717 162.521 70.5558 159.896 69.0402C157.271 67.5246 153.014 69.9833 150.388 74.5318C147.762 79.0803 147.761 83.9962 150.386 85.5118C153.011 87.0274 157.268 84.5687 159.894 80.0202Z" fill="#F5F5F5"/>
<path d="M179.132 52.4707V144.555L85.5859 198.559L87.7004 202.879L179.132 150.094L183.219 150.473V52.8653L179.132 52.4707Z" fill="#E0E0E0"/>
<path d="M160.329 103.161L161.093 102.094L156.262 99.3018H156.227C155.872 99.097 155.451 99.0354 155.052 99.1293C154.653 99.2233 154.304 99.4658 154.077 99.8077L140.753 120.32L126.949 108.367L127.52 107.507L122.735 104.745C122.377 104.529 121.949 104.462 121.543 104.556C121.136 104.651 120.781 104.9 120.555 105.251L85.5908 157.712V195.281L90.3862 198.048L176.734 145.44V118.939L160.329 103.161Z" fill="#E6E6E6"/>
<path d="M90.3862 198.048V160.484L125.345 108.007C125.472 107.816 125.638 107.654 125.832 107.532C126.027 107.409 126.245 107.33 126.472 107.299C126.7 107.268 126.931 107.286 127.151 107.351C127.371 107.417 127.575 107.528 127.748 107.679L145.549 123.092L158.873 102.58C159.003 102.38 159.175 102.211 159.378 102.086C159.581 101.961 159.809 101.882 160.045 101.855C160.282 101.828 160.522 101.853 160.748 101.93C160.973 102.006 161.18 102.131 161.351 102.296L181.524 121.711V143.847C181.524 144.329 181.398 144.803 181.157 145.221C180.917 145.639 180.571 145.987 180.154 146.229L90.3862 198.048Z" fill="#EBEBEB"/>
<path d="M145.549 123.092L152.747 129.324L146.449 121.711L145.549 123.092Z" fill="#E6E6E6"/>
<path d="M186.31 50.9683C186.305 50.9152 186.295 50.8626 186.279 50.8115C186.209 50.4365 186.063 50.0796 185.851 49.7623C185.639 49.4451 185.365 49.1739 185.045 48.9652L182.804 47.6702C182.408 47.4681 181.969 47.3628 181.524 47.3628C181.08 47.3628 180.641 47.4681 180.245 47.6702L82.0752 104.35C81.6977 104.589 81.3849 104.918 81.1647 105.306C80.9373 105.688 80.8103 106.122 80.7954 106.566V203.314C80.8195 203.758 80.948 204.19 81.1704 204.575C81.3927 204.96 81.7027 205.287 82.0752 205.529L84.311 206.824C84.659 207 85.0391 207.102 85.428 207.124C85.8169 207.147 86.2063 207.09 86.5722 206.956L86.6632 206.921C86.7356 206.896 86.8051 206.864 86.8706 206.824L115.274 190.425L185.045 150.144C185.417 149.901 185.726 149.574 185.948 149.189C186.171 148.804 186.3 148.372 186.325 147.929V51.1757C186.345 51.1049 186.315 51.0341 186.31 50.9683ZM183.219 146.229C183.195 146.674 183.066 147.106 182.842 147.491C182.619 147.876 182.308 148.203 181.934 148.445L114.515 187.172L89.2683 201.958C88.5652 202.363 87.9885 202.034 87.9885 201.22V110.719C88.0036 110.275 88.1325 109.843 88.3629 109.464C88.5726 109.07 88.8855 108.739 89.2683 108.508L181.934 54.9949C182.647 54.5801 183.219 54.9089 183.219 55.7283V146.229Z" fill="#F0F0F0"/>
<path d="M86.8706 206.825C86.8051 206.864 86.7356 206.896 86.6632 206.921L86.5722 206.956C86.2063 207.09 85.8169 207.147 85.428 207.125C85.0391 207.102 84.659 207 84.311 206.825L82.0752 205.53C81.7027 205.287 81.3927 204.96 81.1704 204.575C80.948 204.19 80.8195 203.758 80.7954 203.314V106.566C80.8103 106.122 80.9373 105.689 81.1647 105.307L85.9601 108.074C86.7391 108.524 87.5434 108.984 88.3629 109.465C88.1325 109.844 88.0036 110.276 87.9885 110.719V201.22C87.9885 202.034 88.5652 202.363 89.2683 201.959L86.8706 206.825Z" fill="#E0E0E0"/>
<path d="M186.31 50.9683C186.305 50.9151 186.295 50.8626 186.28 50.8115C186.128 50.2753 185.632 50.0982 185.045 50.4371L86.8708 107.127C86.4952 107.366 86.1824 107.691 85.9588 108.076C85.7352 108.461 85.6073 108.893 85.5859 109.338V206.086C85.5859 206.779 86.0058 207.123 86.5673 206.956L86.6583 206.92C86.7307 206.896 86.8002 206.864 86.8657 206.824L185.04 150.17C185.412 149.926 185.721 149.599 185.943 149.214C186.166 148.829 186.295 148.398 186.32 147.954V51.1757C186.345 51.1049 186.315 51.034 186.31 50.9683ZM183.219 146.229C183.195 146.674 183.066 147.106 182.843 147.491C182.619 147.876 182.308 148.203 181.934 148.445L89.2685 201.958C88.5654 202.363 87.9887 202.034 87.9887 201.22V110.719C88.0038 110.275 88.1327 109.843 88.363 109.464C88.5727 109.069 88.8857 108.739 89.2685 108.508L181.934 54.9948C182.648 54.58 183.219 54.9088 183.219 55.7283V146.229Z" fill="#EBEBEB"/>
<path d="M169.182 79.7816L171.605 75.6641L167.457 73.2461C166.238 72.5481 164.559 72.6492 162.707 73.7216C158.994 75.8664 155.979 81.0817 155.979 85.3561C155.979 87.4705 156.718 88.9627 157.902 89.676H157.937H157.962L161.959 91.9978L164.275 88.0725C166.738 85.8902 168.454 82.9905 169.182 79.7816Z" fill="#E6E6E6"/>
<path d="M171.528 86.5964C174.154 82.0479 174.155 77.1319 171.53 75.6164C168.905 74.1008 164.648 76.5594 162.022 81.1079C159.395 85.6565 159.395 90.5724 162.02 92.088C164.645 93.6036 168.902 91.1449 171.528 86.5964Z" fill="#EBEBEB"/>
<path d="M191.272 59.5527V151.637L97.7261 205.641L99.8405 209.961L191.272 157.176L195.359 157.555V59.9473L191.272 59.5527Z" fill="#263238"/>
<path d="M172.47 110.243L173.234 109.176L168.403 106.384H168.368C168.012 106.179 167.592 106.117 167.193 106.211C166.793 106.305 166.445 106.548 166.218 106.89L152.894 127.402L139.089 115.449L139.661 114.589L134.876 111.827C134.518 111.612 134.09 111.544 133.683 111.638C133.276 111.733 132.922 111.982 132.695 112.333L97.7314 164.794V202.363L102.527 205.13L188.875 152.522V126.021L172.47 110.243Z" fill="#F7921E"/>
<path opacity="0.15" d="M172.47 110.243L173.234 109.176L168.403 106.384H168.368C168.012 106.179 167.592 106.117 167.193 106.211C166.793 106.305 166.445 106.548 166.218 106.89L152.894 127.402L139.089 115.449L139.661 114.589L134.876 111.827C134.518 111.612 134.09 111.544 133.683 111.638C133.276 111.733 132.922 111.982 132.695 112.333L97.7314 164.794V202.363L102.527 205.13L188.875 152.522V126.021L172.47 110.243Z" fill="black"/>
<path d="M102.526 205.13V167.566L137.485 115.089C137.612 114.898 137.778 114.736 137.972 114.614C138.167 114.491 138.385 114.412 138.612 114.381C138.84 114.35 139.071 114.368 139.291 114.433C139.511 114.499 139.715 114.61 139.888 114.761L157.689 130.174L171.013 109.662C171.143 109.462 171.315 109.293 171.518 109.168C171.721 109.043 171.949 108.964 172.185 108.937C172.422 108.91 172.662 108.935 172.888 109.012C173.114 109.088 173.32 109.213 173.491 109.378L193.665 128.793V150.929C193.664 151.411 193.538 151.885 193.297 152.303C193.057 152.721 192.711 153.069 192.294 153.311L102.526 205.13Z" fill="#F7921E"/>
<path opacity="0.15" d="M157.689 130.174L164.887 136.406L158.589 128.793L157.689 130.174Z" fill="black"/>
<path d="M198.45 58.0504C198.446 57.9972 198.435 57.9447 198.42 57.8935C198.349 57.5185 198.203 57.1617 197.991 56.8444C197.779 56.5271 197.505 56.256 197.186 56.0472L194.945 54.7522C194.549 54.5502 194.11 54.4448 193.665 54.4448C193.22 54.4448 192.782 54.5502 192.385 54.7522L94.2158 111.432C93.8383 111.671 93.5256 112 93.3053 112.388C93.078 112.77 92.9509 113.204 92.936 113.648V210.396C92.9602 210.84 93.0886 211.272 93.311 211.657C93.5334 212.042 93.8434 212.369 94.2158 212.611L96.4517 213.906C96.7996 214.082 97.1797 214.184 97.5686 214.206C97.9575 214.229 98.3469 214.172 98.7128 214.038L98.8038 214.003C98.8762 213.978 98.9457 213.946 99.0112 213.906L127.414 197.507L197.186 157.226C197.557 156.983 197.867 156.656 198.089 156.271C198.311 155.886 198.44 155.454 198.466 155.011V58.2578C198.486 58.1869 198.455 58.1161 198.45 58.0504ZM195.36 153.311C195.335 153.756 195.206 154.188 194.983 154.573C194.76 154.958 194.448 155.285 194.075 155.527L126.656 194.254L101.409 209.04C100.706 209.445 100.129 209.116 100.129 208.302V117.801C100.144 117.357 100.273 116.925 100.503 116.546C100.713 116.152 101.026 115.821 101.409 115.59L194.075 62.0769C194.788 61.6621 195.36 61.9909 195.36 62.8104V153.311Z" fill="#455A64"/>
<path d="M99.0112 213.907C98.9457 213.946 98.8762 213.978 98.8038 214.003L98.7128 214.038C98.3469 214.172 97.9575 214.229 97.5686 214.207C97.1797 214.184 96.7996 214.082 96.4517 213.907L94.2158 212.612C93.8434 212.369 93.5334 212.042 93.311 211.657C93.0886 211.272 92.9602 210.84 92.936 210.396V113.648C92.9509 113.204 93.078 112.771 93.3053 112.389L98.1007 115.156C98.8797 115.606 99.684 116.066 100.503 116.547C100.273 116.926 100.144 117.358 100.129 117.801V208.302C100.129 209.116 100.706 209.445 101.409 209.041L99.0112 213.907Z" fill="#263238"/>
<path d="M198.45 58.0503C198.445 57.9971 198.435 57.9446 198.42 57.8935C198.268 57.3573 197.772 57.1803 197.185 57.5192L99.0109 114.209C98.6353 114.448 98.3226 114.773 98.099 115.158C97.8754 115.543 97.7475 115.975 97.7261 116.42V213.168C97.7261 213.861 98.1459 214.205 98.7074 214.038L98.7985 214.003C98.8708 213.978 98.9404 213.946 99.0059 213.906L197.18 157.252C197.552 157.008 197.861 156.681 198.084 156.296C198.306 155.911 198.435 155.48 198.46 155.036V58.2577C198.485 58.1869 198.455 58.1161 198.45 58.0503ZM195.359 153.311C195.335 153.756 195.206 154.188 194.983 154.573C194.759 154.958 194.448 155.285 194.074 155.527L101.409 209.04C100.706 209.445 100.129 209.116 100.129 208.302V117.801C100.144 117.357 100.273 116.925 100.503 116.546C100.713 116.152 101.026 115.821 101.409 115.59L194.074 62.0768C194.788 61.662 195.359 61.9909 195.359 62.8103V153.311Z" fill="#37474F"/>
<path d="M181.322 86.8637L183.745 82.7461L179.597 80.3282C178.378 79.6301 176.699 79.7313 174.847 80.8037C171.134 82.9484 168.12 88.1637 168.12 92.4381C168.12 94.5525 168.858 96.0448 170.042 96.758H170.077H170.103L174.099 99.0799L176.415 95.1545C178.878 92.9722 180.594 90.0725 181.322 86.8637Z" fill="#F7921E"/>
<path opacity="0.15" d="M181.322 86.8637L183.745 82.7461L179.597 80.3282C178.378 79.6301 176.699 79.7313 174.847 80.8037C171.134 82.9484 168.12 88.1637 168.12 92.4381C168.12 94.5525 168.858 96.0448 170.042 96.758H170.077H170.103L174.099 99.0799L176.415 95.1545C178.878 92.9722 180.594 90.0725 181.322 86.8637Z" fill="black"/>
<path d="M183.665 93.6764C186.291 89.1279 186.292 84.212 183.667 82.6964C181.042 81.1808 176.785 83.6395 174.159 88.188C171.533 92.7365 171.532 97.6525 174.157 99.168C176.782 100.684 181.039 98.225 183.665 93.6764Z" fill="#F7921E"/>
</svg>
