<svg xmlns="http://www.w3.org/2000/svg" width="256" height="256" fill="none"><path stroke="#D5D5D5" d="M242.135 161.992c0 17.964-12.617 34.323-33.221 46.219-20.591 11.888-49.071 19.257-80.555 19.257s-59.965-7.369-80.556-19.257c-20.604-11.896-33.22-28.255-33.22-46.219s12.616-34.324 33.22-46.219c20.591-11.888 49.071-19.257 80.556-19.257s59.964 7.369 80.555 19.257c20.604 11.895 33.221 28.254 33.221 46.219Z"/><path fill="#37474F" d="M77.573 93.247v-5.189l15.529-8.956.021 5.183z"/><path fill="#455A64" d="m75.64 86.95 1.933 1.11v5.189l-1.933-1.11z"/><path fill="#263238" d="m75.64 86.949 15.534-8.957 1.927 1.11-15.528 8.958z"/><path fill="#F7921E" d="m80.693 87.676-2.07 1.192v2.385l2.07-1.192zM84.836 85.281l-2.074 1.193v2.39l2.074-1.193z"/><path fill="#FAFAFA" d="m82.762 86.477-2.07 1.197v2.385l2.07-1.192z"/><path fill="#F7921E" d="m87.929 83.492-2.07 1.193v2.39l2.07-1.193zM92.072 81.106l-2.074 1.192v2.385l2.074-1.193z"/><path fill="#FAFAFA" d="m89.998 82.3-2.07 1.193v2.39l2.07-1.197z"/><path fill="#37474F" d="M95.584 102.015a.87.87 0 0 1-.294-.577c-.043-.305-.103-.61-.169-.92a.62.62 0 0 1 .006-.425l.092-.049c.088-.055.099-.256 0-.485l-.582-1.677c-.087-.25-.25-.435-.365-.413-.114.021-.294-.158-.414-.398s-.294-.577-.452-.855a.78.78 0 0 1-.12-.615.64.64 0 0 0-.152-.572l-1.013-1.361c-.13-.169-.272-.245-.354-.196l-.18.098a.5.5 0 0 1-.277-.163 12 12 0 0 0-.615-.572.88.88 0 0 1-.31-.572.66.66 0 0 0-.316-.5l-1.176-.67a.24.24 0 0 0-.234-.033l-.578.332a3 3 0 0 0-.43-.082.6.6 0 0 1-.414-.375.4.4 0 0 0-.392-.294l-.974.196h-.066c-.103.065-5.014 2.88-5.03 2.89a.28.28 0 0 0-.11.306l-1.246.713a.25.25 0 0 0-.082.087l-.588 1.008a.54.54 0 0 0 .049.544.78.78 0 0 1 .093.604 9 9 0 0 0-.17.73l-.413.234a.34.34 0 0 0-.109.294V99.8a.67.67 0 0 0 .234.544.9.9 0 0 1 .283.577q.064.46.17.926c.043.15.032.31-.034.452l-.087.049c-.087.049-.092.256 0 .479l.572 1.683c.087.25.245.435.354.419s.283.158.397.397.3.588.463.877a.76.76 0 0 1 .125.604c-.06.104 0 .354.164.545l1.013 1.361c.13.169.272.25.348.207l.152-.087a.54.54 0 0 1 .294.174c.207.207.414.403.632.588a.88.88 0 0 1 .31.544.64.64 0 0 0 .316.474l1.17.67a.25.25 0 0 0 .245.033l.545-.294c.164.043.332.07.49.098a.54.54 0 0 1 .409.348.38.38 0 0 0 .386.267l1.013-.196a.2.2 0 0 0 .07-.027l5.032-2.886a.28.28 0 0 0 .109-.305l1.241-.708a.3.3 0 0 0 .087-.092l.583-1.008a.54.54 0 0 0-.038-.544.76.76 0 0 1-.093-.599q.103-.363.169-.735l.403-.234a.33.33 0 0 0 .109-.294v-1.552a.7.7 0 0 0-.25-.539"/><path fill="#455A64" d="M90.771 107.013v-1.551a.69.69 0 0 0-.234-.545.84.84 0 0 1-.289-.577q-.072-.456-.169-.92c-.065-.31 0-.468.093-.49s.136-.245.05-.496l-.589-1.677c-.087-.25-.25-.435-.365-.413-.114.021-.294-.158-.408-.398s-.294-.577-.452-.855a.78.78 0 0 1-.125-.615c.07-.114 0-.37-.153-.572l-1.012-1.36c-.153-.202-.327-.273-.392-.159-.066.115-.25.066-.42-.103a11 11 0 0 0-.615-.572.9.9 0 0 1-.31-.572.66.66 0 0 0-.316-.5l-1.17-.67c-.175-.104-.316-.038-.316.136a.217.217 0 0 1-.2.232.2.2 0 0 1-.11-.02 4 4 0 0 0-.616-.13.59.59 0 0 1-.42-.376.39.39 0 0 0-.391-.294l-1.013.196c-.153.027-.223.207-.153.397a.41.41 0 0 1-.125.474q-.241.147-.452.338a.273.273 0 0 1-.408-.077c-.115-.152-.278-.152-.365 0l-.588 1.008a.55.55 0 0 0 .049.544.78.78 0 0 1 .093.605 9 9 0 0 0-.17.73c-.048.255-.157.315-.288.244-.13-.07-.234.055-.234.283v1.552a.67.67 0 0 0 .234.544.9.9 0 0 1 .283.578c.044.305.098.615.17.925.07.311 0 .474-.093.496-.093.021-.131.239-.044.484l.599 1.672c.087.25.245.435.354.419s.283.158.397.398c.115.239.3.588.463.876a.77.77 0 0 1 .125.605c-.06.103 0 .353.164.544l1.013 1.361c.152.202.32.278.386.174.065-.103.24-.049.408.12.17.169.414.403.632.588a.88.88 0 0 1 .31.545.64.64 0 0 0 .316.473l1.17.67c.175.104.317.049.317-.109s.141-.245.31-.196q.31.091.632.142a.55.55 0 0 1 .408.348.378.378 0 0 0 .387.267l1.012-.196c.153-.027.223-.196.163-.376a.4.4 0 0 1 .126-.457q.249-.15.463-.348a.268.268 0 0 1 .397.059.196.196 0 0 0 .354 0l.582-.996a.54.54 0 0 0-.043-.544.76.76 0 0 1-.087-.599q.1-.364.163-.735c.038-.207.158-.322.283-.245.126.076.229-.055.229-.284"/><path fill="#263238" d="m88.125 91.381-4.443 2.554a.17.17 0 0 0-.076.163.223.223 0 0 1-.31.218l-.197-.055a3 3 0 0 0-.419-.081.5.5 0 0 1-.256-.137l5.031-2.89q.11.102.256.135z"/><path fill="#000" d="m90.548 92.591-5.031 2.891a.7.7 0 0 1-.125-.354.54.54 0 0 0-.093-.277l5.036-2.886c.055.08.087.175.093.272.01.126.051.248.12.354"/><path fill="#263238" d="m91.631 93.558-4.83 2.782a.1.1 0 0 0-.037.038.115.115 0 0 1-.142.054.47.47 0 0 1-.278-.158 12 12 0 0 0-.615-.571.9.9 0 0 1-.185-.218l5.031-2.891q.08.121.19.218c.207.174.414.37.616.571.063.083.15.144.25.175M94.452 97.49l-5.037 2.891a.2.2 0 0 0-.06-.041q-.034-.012-.07-.008c-.115 0-.294-.158-.414-.398s-.294-.577-.452-.86a.74.74 0 0 1-.12-.61.27.27 0 0 0 0-.153l5.031-2.885c.017.047.017.1 0 .147a.78.78 0 0 0 .12.615c.163.278.31.544.452.855.141.31.3.42.414.397a.17.17 0 0 1 .136.05"/><path fill="#000" d="m89.415 100.382 5.037-2.89a.17.17 0 0 0-.136-.05.1.1 0 0 1-.06 0l-5.037 2.886a.14.14 0 0 0 .066 0 .156.156 0 0 1 .13.054M93.33 95.573a.22.22 0 0 0 0-.147L88.3 98.31a.27.27 0 0 1 0 .153.33.33 0 0 0 0 .212l5.036-2.89a.37.37 0 0 1-.006-.213"/><path fill="#263238" d="m95.737 102.202-5.042 2.892a.4.4 0 0 0-.147-.191.87.87 0 0 1-.289-.577q-.072-.456-.168-.92a.55.55 0 0 1 .038-.458l.049-.027.049-.027 4.9-2.804a.63.63 0 0 0-.033.446c.066.311.126.616.169.92a.9.9 0 0 0 .294.583.45.45 0 0 1 .18.163"/><path fill="#000" d="M95.584 102.019a.5.5 0 0 1-.174-.218l-5.036 2.891a.5.5 0 0 0 .174.212.4.4 0 0 1 .147.191l5.042-2.891a.44.44 0 0 0-.153-.185"/><path fill="#263238" d="m95.312 106.197-5.036 2.891a.5.5 0 0 0-.087-.207.7.7 0 0 1-.104-.283.8.8 0 0 1 0-.316q.109-.361.169-.735c.038-.201.158-.315.283-.245q.031.021.068.021a.12.12 0 0 0 .068-.021l4.617-2.646a9 9 0 0 1-.169.735.76.76 0 0 0 .093.599q.07.093.098.207"/><path fill="#000" d="M90.189 108.878a.46.46 0 0 1 .087.206l5.036-2.891a.6.6 0 0 0-.087-.207.7.7 0 0 1-.103-.256l-5.031 2.886a.7.7 0 0 0 .098.262"/><path fill="#263238" d="M80.562 94.573a3 3 0 0 0-.452.337.277.277 0 0 1-.414-.076.21.21 0 0 0-.266-.098l1.22-.697v.07a.4.4 0 0 1-.088.464"/><path fill="#000" d="m93.243 108.634-.076.044-4.9 2.81h-.033a.3.3 0 0 0 .081-.344.386.386 0 0 1 .126-.457q.249-.15.462-.348a.3.3 0 0 1 .1-.054.3.3 0 0 1 .113-.007q.056.01.105.04a.3.3 0 0 1 .08.081.22.22 0 0 0 .234.103l.044-.027 3.784-2.178a.26.26 0 0 1-.12.337"/><path fill="#263238" d="m85.838 111.034-.517.294a.14.14 0 0 0 .07-.141c0-.164.142-.245.31-.196zM82.353 108.842l-.125.071a.11.11 0 0 1 .125-.071M78.722 97.715c-.033.207-.158.316-.289.245a.12.12 0 0 0-.103 0h.032l.06-.033z"/><path fill="#000" d="m87.439 91.146-5.031 2.89a.55.55 0 0 1-.163-.239.45.45 0 0 0-.186-.24l5.037-2.885a.44.44 0 0 1 .174.228.66.66 0 0 0 .169.246"/><path fill="#37474F" d="M93.788 104.522c0 2.521-.844 4.301-2.178 5.063l-.904.512c1.317-.773 2.145-2.542 2.145-5.042 0-4.611-2.815-9.964-6.294-11.978-1.503-.86-2.88-.953-3.959-.414l.774-.446c1.089-.638 2.542-.578 4.121.326 3.48 2.015 6.294 7.372 6.294 11.979"/><path fill="#000" d="M92.851 105.056c0 2.499-.828 4.268-2.14 5.047l-.61.343c1.313-.773 2.146-2.543 2.146-5.042 0-4.606-2.82-9.964-6.3-11.978-1.552-.894-2.978-.964-4.078-.354l.73-.414c1.088-.545 2.455-.447 3.958.414 3.48 2.02 6.294 7.377 6.294 11.984"/><path fill="#37474F" d="m90.336 91.965-5.037 2.886a.7.7 0 0 0-.223-.224l-1.17-.67a.25.25 0 0 0-.224-.037l4.443-2.538.376-.212.13-.076.071-.044a.28.28 0 0 1 .24.027l1.17.675q.136.082.224.213M93.352 95.429l-5.031 2.885a.96.96 0 0 0-.18-.419l-1.013-1.361c-.114-.153-.245-.229-.326-.207l4.83-2.766.174-.098c.087-.049.228 0 .353.196l1.019 1.361c.093.119.153.26.174.409M95.258 100.006h-.028l-.076.044-4.9 2.82a.54.54 0 0 0 0-.468l-.588-1.683a.8.8 0 0 0-.229-.359l5.037-2.891a.9.9 0 0 1 .228.365l.566 1.715c.071.201.066.403-.01.457M95.813 102.572v1.552a.33.33 0 0 1-.109.294l-.403.234-4.617 2.646a.35.35 0 0 0 .098-.283v-1.552a.8.8 0 0 0-.087-.365l5.042-2.891q.076.174.076.365M95.268 106.522l-.588 1.013a.24.24 0 0 1-.087.092l-.277.158-.104.055-.86.501-3.784 2.177a.2.2 0 0 0 .076-.081l.583-1.018a.5.5 0 0 0 .043-.333l5.037-2.891c.023.11.01.225-.039.327"/><path fill="#F7921E" d="M87.929 104.599c0 2.516-1.54 3.675-3.436 2.586-1.894-1.088-3.44-4.018-3.44-6.533s1.54-3.675 3.44-2.587c1.9 1.09 3.436 4.019 3.436 6.534m-.594-.343c0-2.08-1.274-4.497-2.842-5.401s-2.847.054-2.847 2.14c0 2.085 1.274 4.497 2.847 5.401 1.574.904 2.843-.054 2.843-2.14"/><path fill="#F7921E" d="M87.335 104.258a3.1 3.1 0 0 1-.5 1.851c-.512.692-1.367.844-2.342.289-1.573-.904-2.847-3.321-2.847-5.401 0-1.46.62-2.363 1.535-2.467.461-.037.922.078 1.312.327 1.568.898 2.842 3.321 2.842 5.401"/><path fill="#000" d="M87.335 104.258a3.1 3.1 0 0 1-.5 1.851c-.512.692-1.367.844-2.342.289-1.573-.904-2.847-3.321-2.847-5.401 0-1.46.62-2.363 1.535-2.467.461-.037.922.078 1.312.327 1.568.898 2.842 3.321 2.842 5.401" opacity=".4"/><path fill="#263238" d="M87.335 104.258a3.1 3.1 0 0 1-.5 1.851 2.15 2.15 0 0 1-1.318-.326c-1.568-.899-2.842-3.322-2.842-5.402a3.05 3.05 0 0 1 .506-1.85c.461-.038.922.077 1.312.326 1.568.898 2.842 3.321 2.842 5.401"/><path fill="#F7921E" d="m84.107 101.32-.409 1.421-1.023-3.375c-.002-.243.066-.481.196-.686z"/><path fill="#000" d="m84.107 101.32-.409 1.421-1.023-3.375c-.002-.243.066-.481.196-.686z" opacity=".2"/><path fill="#F7921E" d="m83.595 102.27 1.062 1.633-.72.855a2.2 2.2 0 0 1-.544-.801z"/><path fill="#000" d="m83.595 102.27 1.062 1.633-.72.855a2.2 2.2 0 0 1-.544-.801z" opacity=".2"/><path fill="#F7921E" d="M87.161 105.461c-.063.205-.157.4-.278.577l-2.558-2.33.892-.349.066.294.256-.109z"/><path fill="#000" d="M87.161 105.461c-.063.205-.157.4-.278.577l-2.558-2.33.892-.349.066.294.256-.109z" opacity=".2"/><path fill="#F7921E" d="m87.227 103.169-1.688.376-.153-.251-.169.066-.277-1.291.207.115v-.332h1.71q.245.64.37 1.317"/><path fill="#000" d="m87.227 103.169-1.688.376-.153-.251-.169.066-.277-1.291.207.115v-.332h1.71q.245.64.37 1.317" opacity=".2"/><path fill="#F7921E" d="m85.13 101.852-.256-.082.066.3-1.09-.637.932-2.374q.455.335.822.767z"/><path fill="#000" d="m85.13 101.852-.256-.082.066.3-1.09-.637.932-2.374q.455.335.822.767z" opacity=".2"/><path fill="#F7921E" d="M85.566 103.242c0 .79-.48 1.149-1.09.806a2.54 2.54 0 0 1-1.088-2.042c0-.789.479-1.149 1.089-.806a2.54 2.54 0 0 1 1.089 2.042"/><path fill="#37474F" d="M110.029 110.313a.87.87 0 0 1-.288-.582q-.073-.456-.169-.92a.58.58 0 0 1 .033-.447l.092-.054c.087-.055.093-.256 0-.485l-.588-1.677c-.087-.25-.25-.435-.365-.414s-.294-.157-.408-.397-.294-.577-.452-.855a.76.76 0 0 1-.12-.615.6.6 0 0 0-.009-.305.63.63 0 0 0-.149-.267l-1.012-1.361c-.126-.169-.273-.245-.354-.196l-.175.098a.55.55 0 0 1-.283-.163 5 5 0 0 0-.615-.545.9.9 0 0 1-.31-.572.67.67 0 0 0-.316-.5l-1.171-.67a.23.23 0 0 0-.234 0l-.577.327a4 4 0 0 0-.43-.082.58.58 0 0 1-.419-.376.39.39 0 0 0-.392-.294l-1.013.196a.2.2 0 0 0-.065 0c-.104.066-5.015 2.88-5.037 2.891a.28.28 0 0 0-.103.305l-1.253.713a.5.5 0 0 0-.081.088l-.583 1.012a.55.55 0 0 0 .044.545.76.76 0 0 1 .098.604q-.105.36-.17.73l-.413.239c-.065.033-.109.142-.109.289v1.552a.69.69 0 0 0 .229.544.9.9 0 0 1 .283.577q.073.46.169.926a.62.62 0 0 1-.033.452 1 1 0 0 1-.087.049c-.082.049-.093.256 0 .484l.583 1.677c.087.251.245.436.353.42.11-.017.284.158.403.397s.3.588.458.877a.8.8 0 0 1 .13.604c-.065.104 0 .354.158.545l1.019 1.361c.125.169.272.25.348.207l.152-.087a.54.54 0 0 1 .289.174q.311.31.637.588a.88.88 0 0 1 .31.544.63.63 0 0 0 .31.474l1.177.67a.3.3 0 0 0 .115.049.25.25 0 0 0 .124-.011l.545-.3q.244.065.495.098a.54.54 0 0 1 .409.349.373.373 0 0 0 .386.267l1.013-.196a.2.2 0 0 0 .071 0l5.031-2.886a.261.261 0 0 0 .103-.3l1.242-.713a.24.24 0 0 0 .087-.092l.588-1.008a.54.54 0 0 0-.038-.544.74.74 0 0 1-.093-.599q.102-.363.163-.735s.371-.218.409-.234a.335.335 0 0 0 .109-.294v-1.552a.667.667 0 0 0-.251-.594"/><path fill="#455A64" d="M105.227 115.304v-1.552a.67.67 0 0 0-.234-.544.92.92 0 0 1-.289-.583c-.043-.305-.103-.61-.169-.92-.065-.31 0-.468.098-.49s.131-.245.044-.495l-.583-1.677c-.087-.251-.25-.436-.364-.414-.115.022-.294-.158-.414-.398-.12-.239-.294-.577-.452-.855a.77.77 0 0 1-.12-.615.64.64 0 0 0-.152-.572l-1.019-1.361c-.147-.201-.326-.272-.392-.158-.065.115-.25.066-.413-.103a5 5 0 0 0-.621-.545.9.9 0 0 1-.305-.571.67.67 0 0 0-.316-.501l-1.176-.67c-.174-.103-.316-.038-.316.136a.218.218 0 0 1-.305.218 4 4 0 0 0-.62-.136.58.58 0 0 1-.414-.376.4.4 0 0 0-.145-.214.4.4 0 0 0-.247-.08l-1.018.196c-.153.027-.218.207-.153.398a.41.41 0 0 1-.12.473 3 3 0 0 0-.451.338.28.28 0 0 1-.225.057.283.283 0 0 1-.19-.133c-.114-.153-.277-.153-.364 0l-.583 1.012a.55.55 0 0 0 .044.545.76.76 0 0 1 .098.604q-.103.36-.169.73c-.038.201-.163.316-.288.245-.126-.071-.234.054-.234.283v1.552a.69.69 0 0 0 .228.544.9.9 0 0 1 .283.577c.05.305.104.616.17.926.064.31 0 .474-.094.496-.092.021-.125.239-.038.49l.583 1.677c.087.25.245.435.354.419s.283.158.403.397.3.588.457.877a.8.8 0 0 1 .13.604c-.065.104 0 .354.159.545l1.018 1.361c.147.201.321.278.381.174.06-.103.245-.049.408.12.164.169.42.403.638.588a.88.88 0 0 1 .31.544.63.63 0 0 0 .31.474l1.176.67c.175.103.316.049.316-.109s.136-.245.31-.196q.31.093.632.142a.54.54 0 0 1 .408.348.38.38 0 0 0 .381.267l1.019-.196c.152 0 .223-.196.158-.376a.393.393 0 0 1 .13-.457 2.6 2.6 0 0 0 .458-.349.3.3 0 0 1 .101-.053.3.3 0 0 1 .114-.007.272.272 0 0 1 .188.12.19.19 0 0 0 .176.112.2.2 0 0 0 .105-.03.2.2 0 0 0 .072-.082l.583-1.007a.54.54 0 0 0-.038-.545.772.772 0 0 1-.093-.599 9 9 0 0 0 .169-.735c.049-.255.158-.321.283-.245s.229-.076.229-.31"/><path fill="#263238" d="m102.57 99.655-4.438 2.553a.18.18 0 0 0-.07.163.224.224 0 0 1-.31.218l-.197-.054a3 3 0 0 0-.419-.082.45.45 0 0 1-.256-.136l5.031-2.891q.11.102.256.136z"/><path fill="#000" d="m104.998 100.884-5.036 2.891a.7.7 0 0 1-.125-.354.54.54 0 0 0-.088-.277l5.037-2.886a.54.54 0 0 1 .087.272.7.7 0 0 0 .125.354"/><path fill="#263238" d="m106.082 101.835-4.835 2.782a.1.1 0 0 0-.044.038.12.12 0 0 1-.057.054.12.12 0 0 1-.079.006.5.5 0 0 1-.278-.163 6 6 0 0 0-.62-.545 1 1 0 0 1-.185-.217l5.036-2.892q.08.12.185.218c.213.18.414.37.615.545a.55.55 0 0 0 .262.174M108.897 105.782l-5.031 2.892a.2.2 0 0 0-.063-.041q-.035-.012-.073-.008c-.115 0-.294-.158-.414-.398a23 23 0 0 0-.452-.86.77.77 0 0 1-.12-.61.27.27 0 0 0 0-.153l5.031-2.885a.22.22 0 0 1 0 .147.78.78 0 0 0 .125.615c.158.278.311.544.452.855s.294.419.409.397a.2.2 0 0 1 .074.008.2.2 0 0 1 .062.041"/><path fill="#000" d="m103.839 108.672 5.031-2.891a.15.15 0 0 0-.063-.041.15.15 0 0 0-.074-.008.1.1 0 0 1-.059 0l-5.037 2.886a.2.2 0 0 0 .065 0 .15.15 0 0 1 .075.011.2.2 0 0 1 .062.043M107.775 103.866a.22.22 0 0 0 0-.147l-5.025 2.907a.3.3 0 0 1 0 .153.37.37 0 0 0 0 .212l5.031-2.891a.36.36 0 0 1-.006-.234"/><path fill="#263238" d="m110.182 110.498-5.037 2.891a.43.43 0 0 0-.152-.191.9.9 0 0 1-.289-.571 11 11 0 0 0-.168-.926.53.53 0 0 1 .043-.457l.055-.033.043-.027 4.9-2.821a.6.6 0 0 0-.038.447c.071.31.126.615.175.92a.87.87 0 0 0 .288.583c.078.04.141.105.18.185"/><path fill="#000" d="M110.029 110.314a.6.6 0 0 1-.174-.212l-5.031 2.885a.5.5 0 0 0 .169.213.42.42 0 0 1 .152.19l5.037-2.891a.4.4 0 0 0-.153-.185"/><path fill="#263238" d="m109.757 114.486-5.031 2.891a.55.55 0 0 0-.087-.207.54.54 0 0 1-.104-.283.7.7 0 0 1 0-.315q.105-.364.169-.735c.033-.202.158-.316.283-.246a.12.12 0 0 0 .136 0l4.612-2.646a7 7 0 0 1-.163.735.72.72 0 0 0 .092.599c.048.06.08.132.093.207"/><path fill="#000" d="M104.639 117.171a.5.5 0 0 1 .087.206l5.031-2.891a.5.5 0 0 0-.082-.207.54.54 0 0 1-.103-.256l-5.031 2.886a.7.7 0 0 0 .098.262"/><path fill="#263238" d="M95.013 102.865a3 3 0 0 0-.452.337.28.28 0 0 1-.225.057.27.27 0 0 1-.19-.133.22.22 0 0 0-.266-.098l1.247-.708a.3.3 0 0 1 0 .071.41.41 0 0 1-.114.474"/><path fill="#000" d="m107.688 116.93-.076.043-4.9 2.815h-.033a.29.29 0 0 0 .076-.343.4.4 0 0 1-.011-.25.4.4 0 0 1 .142-.207q.246-.15.457-.349a.274.274 0 0 1 .403.06q.034.061.097.089a.2.2 0 0 0 .132.015l.049-.027 3.778-2.178a.24.24 0 0 1 .013.19.24.24 0 0 1-.127.142"/><path fill="#263238" d="m100.289 119.331-.545.294a.14.14 0 0 0 .058-.059q.02-.04.013-.082c0-.164.147-.245.316-.196zM96.799 117.135l-.12.071a.103.103 0 0 1 .12-.071M93.172 106.004c-.038.207-.163.316-.288.245a.1.1 0 0 0-.055-.011.1.1 0 0 0-.054.011h.038l.054-.033z"/><path fill="#000" d="m101.889 99.44-5.03 2.892a.55.55 0 0 1-.164-.239.55.55 0 0 0-.174-.235l5.036-2.885a.46.46 0 0 1 .169.228q.052.14.163.24"/><path fill="#37474F" d="M108.238 112.811c0 2.521-.844 4.301-2.178 5.064l-.904.511c1.312-.773 2.145-2.542 2.145-5.042 0-4.611-2.82-9.964-6.299-11.978-1.498-.86-2.875-.953-3.959-.414l.774-.446c1.089-.637 2.548-.578 4.121.326 3.48 2.015 6.3 7.373 6.3 11.979"/><path fill="#000" d="M107.301 113.345c0 2.499-.833 4.268-2.145 5.047l-.604.343c1.312-.773 2.14-2.543 2.14-5.042 0-4.606-2.821-9.964-6.295-11.978-1.557-.893-2.978-.964-4.078-.354l.724-.414c1.09-.545 2.461-.447 3.959.414 3.479 1.998 6.299 7.377 6.299 11.984"/><path fill="#37474F" d="m104.786 100.254-5.037 2.886a.7.7 0 0 0-.223-.223l-1.176-.67a.25.25 0 0 0-.218-.038l4.438-2.553.376-.213.136-.076.07-.044a.26.26 0 0 1 .235.033l1.17.67a.7.7 0 0 1 .229.228M107.797 103.717l-5.047 2.907a.9.9 0 0 0-.175-.419l-1.012-1.361c-.115-.147-.245-.229-.332-.207l4.834-2.782.175-.098c.081-.049.228.027.354.196l1.018 1.361c.097.115.16.254.185.403M109.703 108.299l-.071.044-4.9 2.82a.56.56 0 0 0 0-.468l-.583-1.677a.9.9 0 0 0-.229-.365l5.031-2.891a.8.8 0 0 1 .229.365l.588 1.682c.022.234.016.452-.065.49M110.263 110.861v1.552a.3.3 0 0 1-.017.16.34.34 0 0 1-.091.134l-.409.234-4.612 2.646a.36.36 0 0 0 .093-.283v-1.552a.9.9 0 0 0-.082-.365l5.037-2.891q.079.174.081.365M109.713 114.792l-.582 1.013a.24.24 0 0 1-.093.093l-.277.158-.098.059-.866.496-3.779 2.178a.23.23 0 0 0 .076-.082l.583-1.007a.54.54 0 0 0 .049-.332l5.031-2.891a.47.47 0 0 1-.044.315"/><path fill="#F7921E" d="M102.379 112.892c0 2.516-1.54 3.675-3.44 2.586-1.901-1.089-3.442-4.018-3.442-6.533s1.541-3.676 3.441-2.587c1.901 1.089 3.441 4.019 3.441 6.534m-.593-.343c0-2.08-1.274-4.497-2.848-5.401s-2.847.054-2.847 2.14c0 2.085 1.274 4.503 2.847 5.401 1.574.898 2.848-.055 2.848-2.14"/><path fill="#F7921E" d="M101.786 112.556c.033.653-.143 1.3-.501 1.846-.512.692-1.372.85-2.347.289-1.573-.904-2.847-3.322-2.847-5.401 0-1.46.626-2.363 1.535-2.467.461-.037.922.078 1.312.327 1.574.898 2.848 3.321 2.848 5.406"/><path fill="#000" d="M101.786 112.556c.033.653-.143 1.3-.501 1.846-.512.692-1.372.85-2.347.289-1.573-.904-2.847-3.322-2.847-5.401 0-1.46.626-2.363 1.535-2.467.461-.037.922.078 1.312.327 1.574.898 2.848 3.321 2.848 5.406" opacity=".4"/><path fill="#263238" d="M101.786 112.556c.033.653-.143 1.3-.501 1.846a2.13 2.13 0 0 1-1.318-.326c-1.573-.899-2.847-3.322-2.847-5.402a3.06 3.06 0 0 1 .506-1.851c.461-.037.922.078 1.312.327 1.574.898 2.848 3.321 2.848 5.406"/><path fill="#F7921E" d="m98.552 109.613-.403 1.427-1.03-3.381c.002-.243.07-.48.197-.686z"/><path fill="#000" d="m98.552 109.613-.403 1.427-1.03-3.381c.002-.243.07-.48.197-.686z" opacity=".2"/><path fill="#F7921E" d="m98.045 110.559 1.062 1.633-.724.855a2.24 2.24 0 0 1-.544-.801z"/><path fill="#000" d="m98.045 110.559 1.062 1.633-.724.855a2.24 2.24 0 0 1-.544-.801z" opacity=".2"/><path fill="#F7921E" d="M101.606 113.754a2.1 2.1 0 0 1-.277.583l-2.554-2.336.887-.349.066.294.261-.109z"/><path fill="#000" d="M101.606 113.754a2.1 2.1 0 0 1-.277.583l-2.554-2.336.887-.349.066.294.261-.109z" opacity=".2"/><path fill="#F7921E" d="m101.661 111.462-1.688.376-.158-.251-.169.066-.272-1.291.201.115v-.332h1.704q.253.64.382 1.317"/><path fill="#000" d="m101.661 111.462-1.688.376-.158-.251-.169.066-.272-1.291.201.115v-.332h1.704q.253.64.382 1.317" opacity=".2"/><path fill="#F7921E" d="m99.58 110.145-.255-.082.065.3-1.089-.638.97-2.373q.455.338.827.767z"/><path fill="#000" d="m99.58 110.145-.255-.082.065.3-1.089-.638.97-2.373q.455.338.827.767z" opacity=".2"/><path fill="#F7921E" d="M100.027 111.527c0 .79-.484 1.149-1.089.811a2.57 2.57 0 0 1-1.089-2.047c0-.789.485-1.149 1.09-.806a2.56 2.56 0 0 1 1.088 2.042"/><path fill="#37474F" d="M110.432 107.43v8.379l6.801 3.915v-8.38z"/><path fill="#263238" d="m117.233 119.719-6.801-3.914-.8.473 7.595 4.367z"/><path fill="#455A64" d="M109.637 117.211v-.926l7.59 4.361.006.937z"/><path fill="#263238" d="M130.965 103.422v8.379l-13.732 7.917v-8.379z"/><path fill="#000" d="m117.233 119.721 13.731-7.916.795.473-14.526 8.369z"/><path fill="#263238" d="M131.759 113.212v-.931l-14.526 8.369-.006.936z"/><path fill="#37474F" d="M117.636 111.586v12.098l11.303 6.518v-12.099z"/><path fill="#263238" d="m128.939 130.204 3.229-1.862v-10.237l-1.612.932-1.617-.932zM117.227 123.45l.006-12.098.806.468v12.098z"/><path fill="#E0E0E0" d="M122.884 118.331v-1.862l.806.468v1.862z"/><path fill="#455A64" d="M129.974 118.156v14.32l12.414 7.16v-14.32z"/><path fill="#37474F" d="m129.974 118.159 37.269-21.491 12.425 7.16-37.28 21.49z"/><path fill="#263238" d="M179.668 103.828v14.325l-37.28 21.485v-14.319z"/><path fill="#F7921E" d="m81.412 89.337 60.976 35.163 3.506-28.259-64.477-37.307z"/><path fill="#000" d="m81.412 89.337 60.976 35.163 3.506-28.259-64.477-37.307z" opacity=".2"/><path fill="#000" d="M85.114 87.198v-21.85l56.805 32.87-2.515 20.293z" opacity=".2"/><path fill="#000" d="M141.919 98.22 86.535 66.172v20.244l53.059 30.599z" opacity=".2"/><path fill="#F7921E" d="m185.233 73.538-39.344 22.705-64.472-37.308 39.344-22.705zm-39.339 18.436 31.95-18.436-57.088-33.033-31.95 18.436z"/><path fill="#fff" d="m185.233 73.538-39.344 22.705-64.472-37.308 39.344-22.705zm-39.339 18.436 31.95-18.436-57.088-33.033-31.95 18.436z" opacity=".1"/><path fill="#F7921E" d="m142.388 124.501 39.077-20.522 3.768-30.436-39.339 22.7z"/><path fill="#000" d="m142.388 124.501 39.077-20.522 3.768-30.436-39.339 22.7z" opacity=".4"/><path fill="#37474F" d="M81.417 89.34v1.862l60.971 35.168.005-1.862z"/><path fill="#263238" d="M181.732 101.855v1.863l-39.344 22.65.005-1.862z"/><path fill="#37474F" d="m81.602 87.81-2.396-1.525v4.182a2.13 2.13 0 0 0 1.09 1.851l1.322.762z"/><path fill="#455A64" d="m81.602 88.112-1.95-1.09h-.043a.805.805 0 0 1 0-1.398l1.803-1.046v1.666l1.736 1.007z"/><path fill="#263238" d="M83.143 87.254v4.938l-1.541.888v-4.944z"/><path fill="#F7921E" d="m143.792 83.695-4.818 38.838 3.419 1.971 4.323-34.88z"/><path fill="#000" d="m143.792 83.695-4.818 38.838 3.419 1.971 4.323-34.88z" opacity=".2"/><path fill="#F7921E" d="m181.732 101.802 2.602-20.962-26.445 15.262-11.173-6.474-4.323 34.879z"/><path fill="#000" d="m181.732 101.802 2.602-20.962-26.445 15.262-11.173-6.474-4.323 34.879z" opacity=".45"/><path fill="#F7921E" d="m126.364 89.203-2.516 20.325 3.577 2.064 2.516-20.314z"/><path fill="#000" d="m126.364 89.203-2.516 20.325 3.577 2.064 2.516-20.314z" opacity=".2"/><path fill="#F7921E" d="m127.425 111.592 1.498-.741 2.314-18.817-1.296-.757z"/><path fill="#000" d="m127.425 111.592 1.498-.741 2.314-18.817-1.296-.757z" opacity=".65"/><path fill="#F7921E" d="m110.77 80.168-2.521 20.325 3.577 2.064 2.521-20.32z"/><path fill="#000" d="m110.77 80.168-2.521 20.325 3.577 2.064 2.521-20.32z" opacity=".2"/><path fill="#F7921E" d="m111.826 102.558 1.503-.74 2.314-18.812-1.296-.768z"/><path fill="#000" d="m111.826 102.558 1.503-.74 2.314-18.812-1.296-.768z" opacity=".65"/><path fill="#F7921E" d="m96.069 71.664-2.521 20.32 3.583 2.064 2.515-20.315z"/><path fill="#000" d="m96.069 71.664-2.521 20.32 3.583 2.064 2.515-20.315z" opacity=".2"/><path fill="#F7921E" d="m97.13 94.049 1.498-.74 2.314-18.812-1.296-.763z"/><path fill="#000" d="m97.13 94.049 1.498-.74 2.314-18.812-1.296-.763z" opacity=".65"/><path fill="#F7921E" d="M148.257 131.102V92.793l21.387 12.354 4.231 18.888v21.861z"/><path fill="#fff" d="m150.31 129.976.011-34.128 15.332 8.864 3.126 14.347v21.588z" opacity=".15"/><path fill="#37474F" d="M167.303 119.202v3.501l-15.507-8.962V98.414l12.534 7.247z"/><path fill="#263238" d="M156.511 118.379a.41.41 0 0 1 .207.349v.718c0 .545-.784.496-1.753-.065l-1.421-.822c-.969-.545-1.753-1.438-1.748-1.96V116a.202.202 0 0 1 .305-.175z"/><path fill="#F7921E" d="M230.277 128.703v12.224a5.04 5.04 0 0 1-2.526 4.356l-2.178 1.268-4.737 2.723-14.2-13.661v-16.558a2.8 2.8 0 0 1 1.394-2.417l2.063-1.187a2.79 2.79 0 0 1 2.603-.104l13.204 6.354a7.78 7.78 0 0 1 4.377 7.002"/><path fill="#fff" d="M206.957 117.726a2.77 2.77 0 0 1 1.051-1.089l2.069-1.187a2.78 2.78 0 0 1 2.603-.098l13.198 6.349a7.76 7.76 0 0 1 3.174 2.815l-8.946 5.167a7.8 7.8 0 0 0-2.085-2.723l-11.064-9.229z" opacity=".1"/><path fill="#F7921E" d="M206.62 119.055c0-.464.116-.921.337-1.328l11.064 9.228a7.77 7.77 0 0 1 2.793 5.99v16.399l-14.194-13.661z"/><path fill="#000" d="M206.62 119.055c0-.464.116-.921.337-1.328l11.064 9.228a7.77 7.77 0 0 1 2.793 5.99v16.399l-14.194-13.661z" opacity=".2"/><path fill="#EBEBEB" d="M227.74 128.332a1.69 1.69 0 0 1 .697 1.552 5.29 5.29 0 0 1-2.396 4.148 1.68 1.68 0 0 1-1.693.169l-.659-.381a1.685 1.685 0 0 1-.702-1.552 5.29 5.29 0 0 1 2.395-4.149 1.69 1.69 0 0 1 1.694-.168z"/><path fill="#E0E0E0" d="M226.041 134.034a1.46 1.46 0 0 1-1.695.169 1.454 1.454 0 0 1-.7-1.552c.045-.832.285-1.64.702-2.361a5.3 5.3 0 0 1 1.693-1.788 1.45 1.45 0 0 1 1.695-.17 1.46 1.46 0 0 1 .701 1.553 5.29 5.29 0 0 1-2.396 4.149"/><path fill="#FAFAFA" d="M225.971 133.588a1.14 1.14 0 0 1-1.37.188 1.136 1.136 0 0 1-.531-1.277 4.86 4.86 0 0 1 2.048-3.544 1.132 1.132 0 0 1 1.9 1.089 4.84 4.84 0 0 1-2.047 3.544"/><path fill="#F7921E" d="m174.038 128.282 1.002-1.829a5.4 5.4 0 0 1 2.036-2.075l14.473-8.352 13.067-7.552a2.22 2.22 0 0 1 2.238 0l1.089.637 9.517 12.213a15.95 15.95 0 0 1 3.354 9.801c0 3.642-1.372 6.256-4.628 8.134s-7.993 2.755-12.708 1.862a3.56 3.56 0 0 0-2.641-3.436l-23.276-6.196a3 3 0 0 1-.768-.31l-2.297-1.329a1.165 1.165 0 0 1-.458-1.568"/><path fill="#fff" d="m174.038 128.282 1.002-1.829a5.4 5.4 0 0 1 2.036-2.075l14.473-8.352 13.067-7.552a2.22 2.22 0 0 1 2.238 0l1.089.637 9.517 12.213a15.95 15.95 0 0 1 3.354 9.801c0 3.642-1.372 6.256-4.628 8.134s-7.993 2.755-12.708 1.862a3.56 3.56 0 0 0-2.641-3.436l-23.276-6.196a3 3 0 0 1-.768-.31l-2.297-1.329a1.165 1.165 0 0 1-.458-1.568" opacity=".2"/><path fill="#F7921E" d="m207.97 109.113-1.089-.632a2.21 2.21 0 0 0-2.238 0l-13.067 7.552-14.472 8.352a5.46 5.46 0 0 0-2.037 2.08l-1.002 1.819a1.18 1.18 0 0 0 .441 1.579l2.293 1.317q.363.209.767.316l23.277 6.191a3.56 3.56 0 0 1 2.641 3.436v18.212l-3.267 1.895-1.46.839-28.383-16.395v-12.626c.041-1.276.301-2.536.767-3.724l1.465-3.381c.331-.7.77-1.343 1.301-1.906.472-.537 1.023-1 1.634-1.372l13.726-7.955 13.285-7.666a3.3 3.3 0 0 1 1.677-.43h.382a1 1 0 0 1 .185 0c.125 0 .25.043.375.07.126.028.245.071.36.115q.153.053.299.125h.055q.145.075.283.158.293.188.544.43a.4.4 0 0 1 .066.065q.071.063.13.136l.12.147z"/><path fill="#000" d="m207.97 109.113-1.089-.632a2.21 2.21 0 0 0-2.238 0l-13.067 7.552-14.472 8.352a5.46 5.46 0 0 0-2.037 2.08l-1.002 1.819a1.18 1.18 0 0 0 .441 1.579l2.293 1.317q.363.209.767.316l23.277 6.191a3.56 3.56 0 0 1 2.641 3.436v18.212l-3.267 1.895-1.46.839-28.383-16.395v-12.626c.041-1.276.301-2.536.767-3.724l1.465-3.381c.331-.7.77-1.343 1.301-1.906.472-.537 1.023-1 1.634-1.372l13.726-7.955 13.285-7.666a3.3 3.3 0 0 1 1.677-.43h.382a1 1 0 0 1 .185 0c.125 0 .25.043.375.07.126.028.245.071.36.115q.153.053.299.125h.055q.145.075.283.158.293.188.544.43a.4.4 0 0 1 .066.065q.071.063.13.136l.12.147z" opacity=".05"/><path fill="#000" d="M170.341 145.673c.164-4.204.196-8.423.185-12.627-.043-2.178 1.089-4.611 1.939-6.615a7.6 7.6 0 0 1 1.41-2.396 7.2 7.2 0 0 0-1.585 2.32l-1.165 2.553a10.5 10.5 0 0 0-.969 4.138c0 4.204 0 8.423.185 12.627" opacity=".1"/><path fill="#F7921E" d="M220.814 131.125v18.218l-17.336 9.991v-18.212c4.732.909 9.469 0 12.725-1.884s4.611-4.492 4.611-8.113"/><path fill="#fff" d="M220.814 131.125v18.218l-17.336 9.991v-18.212c4.732.909 9.469 0 12.725-1.884s4.611-4.492 4.611-8.113" opacity=".2"/><path fill="#fff" d="M212.985 136.102c.065-4.459-.997-6.321-5.712-9.681-4.829-3.408-11.303-7.873-15.724-10.394 2.673 1.759 4.639 3.18 7.078 4.841 4.176 2.853 6.332 4.149 9.354 6.664 3.267 2.723 4.78 4.165 5.015 8.57z" opacity=".2"/><path fill="#F7921E" d="M177.044 131.512c-.659-.299-1.41-.822-2.053-1.154l-.506-.294a1.364 1.364 0 0 1-.686-1.699c.147-.343.403-.74.544-1.056l.545-1.029a6.1 6.1 0 0 1 2.624-2.39l6.076-3.496c5.837-3.348 14.456-8.287 20.299-11.564 1.802-1.166 2.482-.676 4.04.272l-.224-.125a9 9 0 0 0-.441-.256l-.441-.256a2.22 2.22 0 0 0-2.237 0l-13.068 7.552-14.472 8.352a5.4 5.4 0 0 0-2.037 2.074l-1.001 1.83a1.16 1.16 0 0 0 .441 1.568l2.352 1.339c.24.138.499.243.767.311l23.277 6.196a3.555 3.555 0 0 1 2.641 3.397v.039a3.55 3.55 0 0 0-2.668-3.393l-4.525-1.154c-5.096-1.35-14.211-3.632-19.247-5.064"/><path fill="#000" d="M177.044 131.512c-.659-.299-1.41-.822-2.053-1.154l-.506-.294a1.364 1.364 0 0 1-.686-1.699c.147-.343.403-.74.544-1.056l.545-1.029a6.1 6.1 0 0 1 2.624-2.39l6.076-3.496c5.837-3.348 14.456-8.287 20.299-11.564 1.802-1.166 2.482-.676 4.04.272l-.224-.125a9 9 0 0 0-.441-.256l-.441-.256a2.22 2.22 0 0 0-2.237 0l-13.068 7.552-14.472 8.352a5.4 5.4 0 0 0-2.037 2.074l-1.001 1.83a1.16 1.16 0 0 0 .441 1.568l2.352 1.339c.24.138.499.243.767.311l23.277 6.196a3.555 3.555 0 0 1 2.641 3.397v.039a3.55 3.55 0 0 0-2.668-3.393l-4.525-1.154c-5.096-1.35-14.211-3.632-19.247-5.064" opacity=".2"/><path fill="#37474F" d="m143.526 135.66 33.12 19.122v-1.824l-33.12-19.122z"/><path fill="#455A64" d="m148.257 131.105-4.731 2.734 33.12 19.122 4.732-2.733z"/><path fill="#000" d="m176.94 154.954 8.832-5.091v-5.461l-8.832 5.086z"/><path fill="#37474F" d="M194.663 159.213a.87.87 0 0 1-.289-.578 19 19 0 0 0-.168-.92.61.61 0 0 1 .016-.452 1 1 0 0 1 .093-.049c.087-.054.092-.255 0-.484l-.583-1.677c-.087-.251-.251-.436-.365-.414s-.294-.158-.414-.392a27 27 0 0 0-.452-.86.76.76 0 0 1-.119-.61.644.644 0 0 0-.153-.572l-1.013-1.356c-.125-.174-.272-.25-.353-.201l-.175.098a.5.5 0 0 1-.283-.163 10 10 0 0 0-.615-.572.87.87 0 0 1-.31-.545.66.66 0 0 0-.311-.5l-1.17-.67a.25.25 0 0 0-.117-.045.24.24 0 0 0-.123.018l-.572.326a3 3 0 0 0-.43-.081.62.62 0 0 1-.419-.376.395.395 0 0 0-.392-.294l-.98.163h-.065c-.104.066-5.004 2.881-5.026 2.891a.3.3 0 0 0-.101.133.3.3 0 0 0-.008.167l-1.241.713a.3.3 0 0 0-.087.087l-.583 1.008a.54.54 0 0 0 .044.544.77.77 0 0 1 .098.604q-.104.358-.169.725l-.414.239a.32.32 0 0 0-.109.289v1.552a.69.69 0 0 0 .229.544.87.87 0 0 1 .288.572q.066.463.164.931a.6.6 0 0 1-.028.446l-.087.055c-.087.049-.098.25 0 .479l.561 1.715c.087.25.251.436.354.414s.283.158.403.397.294.594.457.877a.8.8 0 0 1 .131.604c-.065.104 0 .354.158.545l1.013 1.355c.13.175.272.256.348.213l.153-.087c.112.021.214.08.288.168q.303.312.637.588a.88.88 0 0 1 .31.545.618.618 0 0 0 .311.474l1.17.669a.25.25 0 0 0 .245.033l.545-.294q.242.064.49.098a.55.55 0 0 1 .408.348.378.378 0 0 0 .387.267l1.013-.196a.14.14 0 0 0 .065-.027l5.026-2.886a.27.27 0 0 0 .104-.131.27.27 0 0 0 .004-.168l1.236-.708a.3.3 0 0 0 .093-.093l.583-1.007a.543.543 0 0 0-.039-.544.76.76 0 0 1-.092-.594q.1-.363.163-.735l.37-.207c.066-.032.109-.141.109-.288v-1.552a.676.676 0 0 0-.212-.566"/><path fill="#455A64" d="M189.866 164.197v-1.552a.71.71 0 0 0-.234-.544.86.86 0 0 1-.289-.578 20 20 0 0 0-.168-.92c-.066-.31 0-.468.092-.49.093-.022.136-.245.049-.49l-.588-1.682c-.087-.251-.25-.43-.365-.409s-.288-.158-.408-.397-.294-.577-.452-.855a.78.78 0 0 1-.12-.615.653.653 0 0 0-.152-.572l-1.013-1.356c-.152-.201-.327-.272-.397-.158s-.251.06-.414-.103a12 12 0 0 0-.615-.572.9.9 0 0 1-.311-.571.66.66 0 0 0-.316-.501l-1.17-.67c-.174-.098-.311-.038-.311.136a.2.2 0 0 1-.022.11.22.22 0 0 1-.177.124.2.2 0 0 1-.111-.016 4 4 0 0 0-.615-.136.59.59 0 0 1-.419-.376.382.382 0 0 0-.392-.289l-1.013.191c-.153.033-.218.207-.153.398a.4.4 0 0 1 .019.256.4.4 0 0 1-.138.217q-.244.146-.452.338a.29.29 0 0 1-.225.057.277.277 0 0 1-.189-.133c-.114-.153-.278-.153-.365 0l-.583 1.007a.54.54 0 0 0 .044.544.76.76 0 0 1 .098.605q-.103.358-.169.724c-.038.207-.163.321-.288.245-.126-.076-.234.054-.234.283v1.552a.69.69 0 0 0 .228.544.87.87 0 0 1 .289.572q.065.462.163.931c.055.245 0 .468-.092.49-.093.022-.126.24-.039.49l.583 1.672c.087.25.251.435.354.413.103-.021.283.158.403.398.12.239.294.593.457.876a.8.8 0 0 1 .131.605c-.065.103 0 .354.158.544l1.013 1.356c.152.207.321.283.386.174s.24-.049.403.12q.303.312.637.588a.88.88 0 0 1 .31.545.62.62 0 0 0 .311.473l1.17.67c.175.103.316.049.316-.109s.142-.245.311-.196q.311.093.631.142a.54.54 0 0 1 .409.348.373.373 0 0 0 .386.267l1.013-.196a.265.265 0 0 0 .189-.264.3.3 0 0 0-.031-.112.4.4 0 0 1-.012-.248.4.4 0 0 1 .142-.204q.242-.157.458-.348a.259.259 0 0 1 .397.06.2.2 0 0 0 .177.111.19.19 0 0 0 .177-.111l.594-1.002a.55.55 0 0 0-.044-.545.77.77 0 0 1-.092-.598q.106-.363.168-.736c.033-.206.158-.321.283-.245.126.077.229-.049.229-.277"/><path fill="#263238" d="m187.215 148.549-4.432 2.548a.2.2 0 0 0-.071.164.23.23 0 0 1-.022.109.23.23 0 0 1-.073.086.222.222 0 0 1-.216.022l-.196-.054a4 4 0 0 0-.419-.082.46.46 0 0 1-.256-.136l5.026-2.886c.071.068.16.115.256.136z"/><path fill="#000" d="m189.637 149.794-5.025 2.886a.7.7 0 0 1-.125-.354.55.55 0 0 0-.093-.278l5.031-2.88a.54.54 0 0 1 .087.272.8.8 0 0 0 .125.354"/><path fill="#263238" d="m190.721 150.725-4.824 2.777a.065.065 0 0 0-.038.038.12.12 0 0 1-.061.053.13.13 0 0 1-.081.002.5.5 0 0 1-.277-.158 10 10 0 0 0-.616-.572.9.9 0 0 1-.185-.218l5.026-2.885q.08.117.185.212c.212.18.414.37.615.572a.5.5 0 0 0 .256.179M193.536 154.69l-5.031 2.88a.2.2 0 0 0-.06-.038.2.2 0 0 0-.071-.011c-.114 0-.294-.152-.414-.392a22 22 0 0 0-.452-.86.76.76 0 0 1-.119-.61.3.3 0 0 0 0-.152l5.025-2.886a.22.22 0 0 1 0 .153.78.78 0 0 0 .12.615c.163.272.31.544.452.855.141.31.299.413.414.397a.2.2 0 0 1 .073.009.2.2 0 0 1 .063.04"/><path fill="#000" d="m188.505 157.571 5.031-2.881a.2.2 0 0 0-.063-.039.2.2 0 0 0-.073-.01.12.12 0 0 1-.066 0l-5.025 2.886a.14.14 0 0 0 .065 0 .2.2 0 0 1 .07.008.2.2 0 0 1 .061.036M192.414 152.774a.22.22 0 0 0 0-.153l-5.025 2.886a.26.26 0 0 1 0 .152.34.34 0 0 0 0 .213l5.025-2.886a.37.37 0 0 1 0-.212"/><path fill="#263238" d="m194.815 159.392-5.031 2.886a.43.43 0 0 0-.147-.185.88.88 0 0 1-.288-.577q-.072-.456-.169-.921a.54.54 0 0 1 .038-.457l.049-.033.049-.027 4.906-2.82a.6.6 0 0 0-.033.452c.066.305.12.615.169.92a.9.9 0 0 0 .289.577.44.44 0 0 1 .168.185"/><path fill="#000" d="M194.663 159.208a.6.6 0 0 1-.174-.212l-5.026 2.886a.5.5 0 0 0 .174.212.43.43 0 0 1 .147.185l5.031-2.885a.44.44 0 0 0-.152-.186"/><path fill="#263238" d="m194.391 163.381-5.026 2.891a.5.5 0 0 0-.087-.207.7.7 0 0 1-.103-.283.8.8 0 0 1 0-.316q.107-.362.168-.735c.039-.201.158-.316.284-.245q.03.02.068.02a.13.13 0 0 0 .068-.02l4.606-2.646a7 7 0 0 1-.163.735.72.72 0 0 0 .092.593.45.45 0 0 1 .093.213"/><path fill="#000" d="M189.278 166.065a.5.5 0 0 1 .087.207l5.026-2.891a.46.46 0 0 0-.082-.207.54.54 0 0 1-.103-.256l-5.026 2.886a.7.7 0 0 0 .098.261"/><path fill="#263238" d="M179.663 151.772q-.24.15-.452.337a.272.272 0 0 1-.409-.076.22.22 0 0 0-.267-.098l1.215-.697v.071a.41.41 0 0 1-.087.463"/><path fill="#000" d="m192.327 165.82-.071.043-4.9 2.804h-.038a.29.29 0 0 0 .082-.343.4.4 0 0 1 .125-.457q.248-.15.463-.343a.25.25 0 0 1 .098-.056.26.26 0 0 1 .22.03q.049.031.079.08.036.061.1.09a.22.22 0 0 0 .134.014h.044l3.779-2.178a.27.27 0 0 1-.002.178.26.26 0 0 1-.113.138"/><path fill="#263238" d="m184.933 168.214-.517.294a.14.14 0 0 0 .056-.061.14.14 0 0 0 .015-.081c0-.163.141-.245.31-.196zM181.449 166.03l-.12.065a.103.103 0 0 1 .12-.065M177.828 154.906c-.033.207-.164.316-.289.245a.1.1 0 0 0-.051-.011.1.1 0 0 0-.052.011h.032l.06-.038z"/><path fill="#000" d="m186.534 148.351-5.026 2.886a.55.55 0 0 1-.163-.24.44.44 0 0 0-.174-.228l5.031-2.886a.5.5 0 0 1 .174.229c.03.092.085.175.158.239"/><path fill="#37474F" d="M192.872 161.712c0 2.515-.844 4.29-2.178 5.053l-.904.517c1.312-.779 2.145-2.543 2.145-5.042 0-4.601-2.815-9.948-6.289-11.94-1.502-.866-2.874-.959-3.958-.42l.773-.441c1.089-.637 2.543-.577 4.122.327 3.474 1.993 6.289 7.339 6.289 11.946"/><path fill="#000" d="M191.941 162.239c0 2.499-.833 4.263-2.146 5.041l-.604.343c1.312-.773 2.14-2.537 2.14-5.031 0-4.6-2.815-9.953-6.289-11.945-1.552-.893-2.973-.959-4.073-.349l.724-.414c1.089-.544 2.462-.446 3.959.414 3.474 1.993 6.289 7.34 6.289 11.941"/><path fill="#37474F" d="m189.425 149.168-5.031 2.88a.7.7 0 0 0-.218-.223l-1.176-.67a.25.25 0 0 0-.104-.043.25.25 0 0 0-.113.005l4.432-2.57.375-.212.131-.077.071-.043a.27.27 0 0 1 .239.027l1.165.675q.145.098.229.251M192.436 152.623l-5.026 2.886a.9.9 0 0 0-.174-.419l-1.012-1.356c-.115-.153-.246-.229-.327-.213l4.824-2.776.174-.098c.082-.049.223 0 .354.196l1.013 1.361a.85.85 0 0 1 .174.419M194.342 157.198h-.033l-.071.044-4.9 2.82a.54.54 0 0 0 0-.463l-.588-1.682a.8.8 0 0 0-.229-.365l5.031-2.88c.103.099.18.223.223.359l.572 1.683c.076.228.071.424-.005.484M194.897 159.758v1.552a.336.336 0 0 1-.109.294l-.408.228-4.606 2.646a.4.4 0 0 0 .076-.131q.024-.075.016-.152v-1.551a.8.8 0 0 0-.081-.36l5.031-2.886a.9.9 0 0 1 .081.36M194.347 163.71l-.582 1.012a.24.24 0 0 1-.093.093l-.272.158-.104.054-.86.496-3.778 2.178a.3.3 0 0 0 .076-.088l.588-1.012a.5.5 0 0 0 .043-.327l5.026-2.891c.025.11.01.226-.044.327"/><path fill="#F7921E" d="M187.024 161.788c0 2.51-1.541 3.67-3.436 2.581s-3.435-4.013-3.435-6.534 1.535-3.669 3.435-2.58 3.436 4.018 3.436 6.533m-.594-.343c0-2.08-1.274-4.497-2.842-5.395-1.568-.899-2.842.054-2.842 2.134s1.274 4.497 2.842 5.396c1.568.898 2.842-.055 2.842-2.135"/><path fill="#F7921E" d="M186.43 161.448a3.1 3.1 0 0 1-.5 1.846c-.512.691-1.367.849-2.342.288-1.573-.898-2.842-3.316-2.842-5.396 0-1.453.621-2.357 1.53-2.461.461-.036.922.079 1.312.327 1.568.899 2.842 3.316 2.842 5.396"/><path fill="#000" d="M186.43 161.448a3.1 3.1 0 0 1-.5 1.846c-.512.691-1.367.849-2.342.288-1.573-.898-2.842-3.316-2.842-5.396 0-1.453.621-2.357 1.53-2.461.461-.036.922.079 1.312.327 1.568.899 2.842 3.316 2.842 5.396" opacity=".4"/><path fill="#263238" d="M186.43 161.448a3.1 3.1 0 0 1-.5 1.846 2.15 2.15 0 0 1-1.318-.327c-1.568-.898-2.842-3.316-2.842-5.396a3.1 3.1 0 0 1 .506-1.846c.461-.036.922.079 1.312.327 1.568.899 2.842 3.316 2.842 5.396"/><path fill="#F7921E" d="m183.202 158.516-.403 1.421-1.029-3.376c.004-.242.072-.478.196-.686z"/><path fill="#000" d="m183.202 158.516-.403 1.421-1.029-3.376c.004-.242.072-.478.196-.686z" opacity=".2"/><path fill="#F7921E" d="m182.695 159.438 1.062 1.633-.724.849a2.2 2.2 0 0 1-.545-.795z"/><path fill="#000" d="m182.695 159.438 1.062 1.633-.724.849a2.2 2.2 0 0 1-.545-.795z" opacity=".2"/><path fill="#F7921E" d="M186.251 162.645a2 2 0 0 1-.278.583l-2.553-2.33.893-.371.065.294.256-.109z"/><path fill="#000" d="M186.251 162.645a2 2 0 0 1-.278.583l-2.553-2.33.893-.371.065.294.256-.109z" opacity=".2"/><path fill="#F7921E" d="m186.321 160.361-1.687.375-.153-.25-.169.065-.272-1.29.202.114v-.332h1.698q.256.64.381 1.318"/><path fill="#000" d="m186.321 160.361-1.687.375-.153-.25-.169.065-.272-1.29.202.114v-.332h1.698q.256.64.381 1.318" opacity=".2"/><path fill="#F7921E" d="m184.231 159.042-.256-.082.065.299-1.089-.637.926-2.368q.458.334.822.768z"/><path fill="#000" d="m184.231 159.042-.256-.082.065.299-1.089-.637.926-2.368q.458.334.822.768z" opacity=".2"/><path fill="#F7921E" d="M184.661 160.437c0 .784-.479 1.148-1.089.805a2.55 2.55 0 0 1-1.089-2.041c0-.784.485-1.149 1.089-.806a2.55 2.55 0 0 1 1.089 2.042"/><path fill="#F7921E" d="M203.478 141.122v18.213l-3.267 1.895-2.352 1.355-1.154.67a5.4 5.4 0 0 1-2.679.719h-.316c-.147 0-.299-.028-.446-.049l-.164-.028h-.076a5 5 0 0 1-.479-.119v-.496c0-3.675-1.726-7.949-4.41-10.889v-.033a12 12 0 0 0-2.766-2.265 6.7 6.7 0 0 0-3.338-.991c-2.848 0-4.813 2.336-5.025 5.886l-.627-.365a2.5 2.5 0 0 1-.631-.517 2.4 2.4 0 0 1-.354-.545c0-.038-.038-.081-.06-.12s0-.049-.027-.07-.049-.126-.066-.196a1 1 0 0 1 0-.104 2.3 2.3 0 0 1-.076-.61v-7.513a5.8 5.8 0 0 1 .191-1.503c.027-.098.049-.191.081-.283.033-.093.06-.185.098-.278s.071-.18.109-.267a5.7 5.7 0 0 1 1.133-1.693 1.7 1.7 0 0 1 .196-.196c.844-.795 3.931-3.681 4.748-4.454a5.8 5.8 0 0 1 5.477-1.394l14.63 3.855a2.56 2.56 0 0 1 1.65 2.385"/><path fill="#fff" d="M176.886 140.698a5.81 5.81 0 0 1 6.533-1.024l6.18 2.973a7.8 7.8 0 0 1 3.18 2.821l10.155-5.875a2.53 2.53 0 0 0-1.209-.888l-14.63-3.855a5.81 5.81 0 0 0-5.478 1.394c-.8.773-3.887 3.659-4.731 4.454" opacity=".1"/><path fill="#F7921E" d="M175.067 144.921v7.514q0 .31.082.61a1 1 0 0 0 0 .109q.028.098.071.191a.2.2 0 0 0 0 .065q.025.064.06.125.14.296.353.545l.115.119q.234.231.517.398l.626.365c.213-3.55 2.178-5.886 5.02-5.886a6.7 6.7 0 0 1 3.343.991 11.8 11.8 0 0 1 2.766 2.265v.032c2.685 2.946 4.416 7.22 4.416 10.89v.496q.237.072.474.119c.158.033.158 0 .239.033q.38.058.763.06v-14.325a7.77 7.77 0 0 0-4.4-7.002l-6.18-2.973a5.8 5.8 0 0 0-6.533 1.023l-.196.196a5.7 5.7 0 0 0-1.242 1.961c-.032.087-.065.185-.098.277q-.05.14-.081.283c-.104.5-.143 1.01-.115 1.519"/><path fill="#000" d="M175.067 144.923v7.514q0 .31.082.61a1 1 0 0 0 0 .109q.028.097.071.19a.2.2 0 0 0 0 .065q.025.065.06.126.14.295.353.544l.115.12q.234.23.517.397l.626.365c.213-3.55 2.178-5.886 5.02-5.886a6.7 6.7 0 0 1 3.343.991 11.8 11.8 0 0 1 2.766 2.265v.033c2.685 2.946 4.416 7.22 4.416 10.89v.495q.237.072.474.12c.158.033.158 0 .239.033q.38.057.763.059v-14.325a7.78 7.78 0 0 0-4.4-7.002l-6.18-2.973c-2.036-1.159-4.742-.544-6.533 1.024l-.196.196a5.7 5.7 0 0 0-1.242 1.96c-.032.087-.065.185-.098.278q-.05.139-.081.283a5.9 5.9 0 0 0-.115 1.519" opacity=".2"/><path fill="#EBEBEB" d="M200.5 144.066a1.69 1.69 0 0 1 .702 1.552 5.283 5.283 0 0 1-2.396 4.149 1.68 1.68 0 0 1-1.693.169l-.664-.381a1.7 1.7 0 0 1-.703-1.552 5.29 5.29 0 0 1 2.396-4.149 1.68 1.68 0 0 1 1.694-.169z"/><path fill="#E0E0E0" d="M198.806 149.768a1.458 1.458 0 0 1-2.295-.494 1.45 1.45 0 0 1-.1-.889 5.29 5.29 0 0 1 2.395-4.149 1.458 1.458 0 0 1 2.396 1.383 5.283 5.283 0 0 1-2.396 4.149"/><path fill="#FAFAFA" d="M198.73 149.323a1.131 1.131 0 0 1-1.9-1.089 4.845 4.845 0 0 1 2.047-3.545 1.134 1.134 0 0 1 1.853.36c.096.231.112.487.048.729a4.86 4.86 0 0 1-2.048 3.545"/><path fill="#F7921E" d="M194.619 151.66a47.5 47.5 0 0 1-.62 7.585c-.213-2.178-.283-4.171-.686-6.218a16.68 16.68 0 0 0-5.761-9.882 14.85 14.85 0 0 0-7.889-3.136c-.844-.049-1.775 0-.953-.61a4.9 4.9 0 0 1 2.314-.964 8.6 8.6 0 0 1 2.581.152c1.317.285 2.582.772 3.751 1.443a16.5 16.5 0 0 1 5.363 4.465c1.503 2.025 1.873 4.683 1.9 7.165"/><path fill="#000" d="M194.619 151.66a47.5 47.5 0 0 1-.62 7.585c-.213-2.178-.283-4.171-.686-6.218a16.68 16.68 0 0 0-5.761-9.882 14.85 14.85 0 0 0-7.889-3.136c-.844-.049-1.775 0-.953-.61a4.9 4.9 0 0 1 2.314-.964 8.6 8.6 0 0 1 2.581.152c1.317.285 2.582.772 3.751 1.443a16.5 16.5 0 0 1 5.363 4.465c1.503 2.025 1.873 4.683 1.9 7.165" opacity=".1"/><path fill="#E0E0E0" d="m198.322 160.398 31.966-18.458a3.1 3.1 0 0 0 1.137-1.137 3.1 3.1 0 0 0 .415-1.553v5.445a3.108 3.108 0 0 1-1.552 2.695l-31.966 18.458a11.8 11.8 0 0 1-5.886 1.579v-5.445a11.8 11.8 0 0 0 5.886-1.584"/><path fill="#000" d="m198.322 160.398 31.966-18.458a3.1 3.1 0 0 0 1.137-1.137 3.1 3.1 0 0 0 .415-1.553v5.445a3.108 3.108 0 0 1-1.552 2.695l-31.966 18.458a11.8 11.8 0 0 1-5.886 1.579v-5.445a11.8 11.8 0 0 0 5.886-1.584" opacity=".1"/><path fill="#F5F5F5" d="M192.436 161.007v.97a11.8 11.8 0 0 0 5.886-1.579l31.966-18.458a3.1 3.1 0 0 0 1.137-1.137 3.1 3.1 0 0 0 .415-1.553h-.969a2.14 2.14 0 0 1-1.089 1.851l-31.966 18.458a10.8 10.8 0 0 1-5.38 1.448"/><path fill="#37474F" d="M205.253 140.776a32.5 32.5 0 0 0 6.893-3.087c.343-.201.621-.043.621.354v.506a1.4 1.4 0 0 1-.621 1.089 32.8 32.8 0 0 1-6.893 3.088.55.55 0 0 1-.488-.094.54.54 0 0 1-.209-.451v-.506a1.03 1.03 0 0 1 .697-.899M220.264 132.583v.501a1.73 1.73 0 0 1-.544 1.187 59 59 0 0 1-5.167 3.871c-.332.218-.605.071-.605-.327v-.506a1.5 1.5 0 0 1 .605-1.116 59 59 0 0 0 5.167-3.872c.294-.25.544-.141.544.262M205.253 147.682a32.6 32.6 0 0 0 6.893-3.093c.343-.196.621-.044.621.354v.506a1.4 1.4 0 0 1-.621 1.089 32.5 32.5 0 0 1-6.893 3.098.51.51 0 0 1-.697-.544v-.506a1.02 1.02 0 0 1 .697-.904M220.264 139.488v.506a1.74 1.74 0 0 1-.544 1.187 59 59 0 0 1-5.167 3.866c-.332.223-.605.071-.605-.326v-.529a1.51 1.51 0 0 1 .605-1.116 59 59 0 0 0 5.167-3.866c.294-.234.544-.119.544.278M205.253 144.311a32.5 32.5 0 0 0 6.893-3.087c.343-.201.621-.043.621.354v.501a1.4 1.4 0 0 1-.621 1.089 32.8 32.8 0 0 1-6.893 3.087.542.542 0 0 1-.697-.544v-.507a1.03 1.03 0 0 1 .697-.893M220.264 136.119v.506a1.74 1.74 0 0 1-.544 1.187 59 59 0 0 1-5.167 3.872c-.332.217-.605.07-.605-.333v-.501a1.49 1.49 0 0 1 .605-1.116 59 59 0 0 0 5.167-3.871c.294-.256.544-.142.544.256"/><path fill="#E0E0E0" d="m173.739 125.803.354.202a.4.4 0 0 1 .192.24.4.4 0 0 1-.04.304l-.387.703a.38.38 0 0 1-.544.152l-.354-.201a.395.395 0 0 1-.152-.545l.386-.702a.4.4 0 0 1 .097-.126.366.366 0 0 1 .299-.083.4.4 0 0 1 .149.056"/><path fill="#FAFAFA" d="m173.679 125.75.348.196a.4.4 0 0 1 .153.545l-.387.702a.37.37 0 0 1-.239.197.38.38 0 0 1-.305-.05l-.354-.196a.4.4 0 0 1-.153-.544l.387-.703a.38.38 0 0 1 .242-.197.4.4 0 0 1 .159-.008.4.4 0 0 1 .149.058"/><path fill="#F7921E" d="m204.023 106.626-4.226-18.888-30.18 17.424 4.258 18.888a7 7 0 0 1 1.633-1.373l27.044-15.632c.452-.25.955-.393 1.471-.419"/><path fill="#fff" d="m204.023 106.626-4.226-18.888-30.18 17.424 4.258 18.888a7 7 0 0 1 1.633-1.373l27.044-15.632c.452-.25.955-.393 1.471-.419" opacity=".15"/><path fill="#455A64" d="m202.247 105.791-27.109 15.616-3.686-15.403 27.098-15.648z"/><path fill="#F7921E" d="m184.454 97.41 1.274-.734 3.991 17.287-1.274.762z"/><path fill="#fff" d="m184.454 97.41 1.274-.734 3.991 17.287-1.274.762z" opacity=".15"/><path fill="#F7921E" d="m199.825 87.725-30.181 17.424-21.387-12.355 30.175-17.423z"/><path fill="#fff" d="m199.825 87.725-30.181 17.424-21.387-12.355 30.175-17.423z" opacity=".3"/><path fill="#F7921E" d="m143.792 83.695 2.924 5.93 11.173 6.474v-4.171z"/><path fill="#000" d="m143.792 83.695 2.924 5.93 11.173 6.474v-4.171z" opacity=".2"/><path fill="#F7921E" d="m183.131 60.992-39.339 22.705 14.097 8.233 39.338-22.705z"/><path fill="#F7921E" d="M197.227 69.223v4.176l-39.338 22.7v-4.172z"/><path fill="#000" d="M197.227 69.223v4.176l-39.338 22.7v-4.172z" opacity=".3"/><path fill="#455A64" d="M169.633 68.782s.425-4.764-4.856-5.445c1.502-4.394-2.946-8.374-6.627-6.822-.163-2.178-2.178-2.93-3.038-1.465-.327-5.172-3.67-7.416-7.47-6.446.283-3.066-2.39-4.231-3.893-3.365-.463-4.264-4.748-7.008-7.977-4.607-1.557-2.03-4.65-2.94-6.441-1.464-1.633-4.356-7.96-5.086-11.728-3.115-4.089 2.14-3.953 4.269-3.953 4.269a5.32 5.32 0 0 0-5.265.583c-2.69 1.894-2.222 3.735-2.222 3.735s-1.807-2.505-5.608-.79c-3.49 1.58-3.37 3.991-3.37 3.991s-3.006-.463-4.508 1.737a5.04 5.04 0 0 0-.605 4.438s-4.519.5-3.267 4.9l54.165 31.373.822-6.583z"/><path fill="#37474F" d="m100.572 65.746 42.398 24.54.822-6.583 14.701-8.493a8.83 8.83 0 0 0-6.871-.932c-1.399.425-2.755 1.307-3.3 2.663a5.383 5.383 0 0 0-8.652-1.116 5.38 5.38 0 0 0-1.42 3.016 6.54 6.54 0 0 0-5.282-5.03c.904-1.76-.708-4.22-2.684-4.1a6.576 6.576 0 0 0-5.549-5.94 6.57 6.57 0 0 0-7.078 3.995c-.609-1.856-3.392-2.51-4.769-1.121-1.786-2.042-4.356-3.528-7.078-3.512a6.74 6.74 0 0 0-5.238 2.613M151.034 65.179c.441-2.973 4.862-4.356 6.915-2.178.131-2.782 2.69-5.135 5.417-5.347a4.85 4.85 0 0 0-5.216-1.143c-.163-2.178-2.178-2.93-3.038-1.465a9.8 9.8 0 0 0-.67-3.065c-1.687.843-2.929 2.444-2.668 4.3a4.9 4.9 0 0 0-5.989.97c-1.775-2.875-6.294-3.517-8.804-1.258-1.247-1.922-2.597-3.773-4.9-4.415a6.65 6.65 0 0 0-4.993.598q-.195.125-.419.175a1.24 1.24 0 0 1-.659-.196 6.09 6.09 0 0 0-7.138 1.492 6.35 6.35 0 0 1 7.993 3.114 4.41 4.41 0 0 1 4.198 0c1.633.92 2.401 2.864 2.341 4.688a9.365 9.365 0 0 1 9.256 6.36 7.22 7.22 0 0 1 8.374-2.63M96.472 59.2a4.14 4.14 0 0 1 3.969-.8 3.82 3.82 0 0 1 2.831-3.63 3.8 3.8 0 0 1 1.634-.072c-.055-1.264-.087-2.592.479-3.725.566-1.132 1.944-1.97 3.12-1.492a4.716 4.716 0 0 0-7.182 2.903 3.136 3.136 0 0 0-4.002-.071 5.14 5.14 0 0 0-3.811-3.218c-.115 0-.234-.027-.349-.038q-.255.25-.457.544a5.04 5.04 0 0 0-.604 4.438s-4.52.5-3.267 4.9l6.294 3.648a4.17 4.17 0 0 1 1.345-3.387M121.545 46.542a5.18 5.18 0 0 1 6.871-1.813 2.98 2.98 0 0 1 1.595-2.786 2.97 2.97 0 0 1 3.197.287 3.98 3.98 0 0 1 2.052-2.151c-1.633-1.633-4.317-2.227-5.929-.898-.887-2.385-3.169-3.676-5.668-4.04.393.653.527 1.43.376 2.178a2.68 2.68 0 0 1-2.783 2.069 1.93 1.93 0 0 1 1.315 1.555 1.93 1.93 0 0 1-.808 1.87c-1.122.789-2.695.212-4.013.587-1.318.376-2.145 1.574-2.804 2.723a5.32 5.32 0 0 1 6.599.419"/><path fill="#E0E0E0" d="M153.844 144.102v6.797c0 .679.448 1.064 1.02 1.353s-.481-7.828-.481-7.828z"/><path fill="#EBEBEB" d="M154.383 144.423v6.519c0 1.266.732 1.868 1.825 1.232l.842-.481a4.37 4.37 0 0 0 1.984-3.433v-6.537z"/><path fill="#FAFAFA" d="m159.034 141.745-.544-.327-4.651 2.686.544.323z"/><path fill="#F7921E" d="M151.495 158.211a.37.37 0 0 1-.328-.183.4.4 0 0 1-.047-.291.4.4 0 0 1 .172-.239l4.309-2.681a1.54 1.54 0 0 0 .722-1.31v-6.778a.385.385 0 0 1 .771 0v6.778a2.3 2.3 0 0 1-.288 1.122 2.3 2.3 0 0 1-.8.838l-4.285 2.686a.4.4 0 0 1-.226.058"/><path fill="#000" d="M151.495 158.211a.37.37 0 0 1-.328-.183.4.4 0 0 1-.047-.291.4.4 0 0 1 .172-.239l4.309-2.681a1.54 1.54 0 0 0 .722-1.31v-6.778a.385.385 0 0 1 .771 0v6.778a2.3 2.3 0 0 1-.288 1.122 2.3 2.3 0 0 1-.8.838l-4.285 2.686a.4.4 0 0 1-.226.058" opacity=".5"/><path fill="#F7921E" d="m30.442 153.642 7.828-3.61s-.78-5.118-5.223-3.905c-4.444 1.214-2.605 7.515-2.605 7.515"/><path fill="#000" d="m30.442 153.642 7.828-3.61s-.78-5.118-5.223-3.905c-4.444 1.214-2.605 7.515-2.605 7.515" opacity=".5"/><path fill="#F7921E" d="m95.617 191.313 7.818-3.611s-.612-7.356-5.777-5.599c-5.166 1.757-2.041 9.21-2.041 9.21"/><path fill="#000" d="m95.617 191.313 7.818-3.611s-.612-7.356-5.777-5.599c-5.166 1.757-2.041 9.21-2.041 9.21" opacity=".5"/><path fill="#263238" d="m34.737 152.757-1.671-3.331 4-2.32c1.276-.732 2.97-.646 4.815.428 3.957 2.282 7.158 8.184 7.158 13.147 0 2.61-.876 4.454-2.282 5.296l-.057.034-4.107 2.368-1.762-3.548c-3.36-2.561-5.955-7.635-6.095-12.074"/><path fill="#37474F" d="M30.572 154.816c0 4.294 2.407 9.263 5.575 12.011q.733.633 1.57 1.122c3.957 2.287 7.163.096 7.158-4.881 0-3.765-1.83-8.045-4.429-10.9-.785-.877-1.699-1.63-2.71-2.234-3.962-2.286-7.164-.101-7.164 4.882"/><path fill="#455A64" d="M37.73 152.936c-2.512-1.445-4.553.058-4.553 3.37s2.04 7.187 4.554 8.641c2.513 1.454 4.554-.062 4.554-3.37 0-3.307-2.036-7.192-4.554-8.641"/><path fill="#455A64" d="M30.572 154.814c0 4.294 2.407 9.262 5.575 12.011a20.34 20.34 0 0 1-4.54-8.785c-.606-2.889-.375-6.991 2.09-8.035s5.714 1.155 6.74 2.156c-.786-.877-1.7-1.63-2.71-2.233-3.953-2.282-7.155-.097-7.155 4.886"/><path fill="#E0E0E0" d="M37.73 155.824c-1.304-.751-2.363.034-2.363 1.757 0 1.724 1.06 3.731 2.364 4.482 1.305.751 2.364-.029 2.364-1.752s-1.06-3.731-2.364-4.487"/><path fill="#F5F5F5" d="M36.98 155.798a2 2 0 0 0-.52-.212c-.66.178-1.093.895-1.093 1.998a5.98 5.98 0 0 0 1.329 3.567q.135.103.284.188c1.155.674 2.099-.024 2.099-1.555s-.944-3.317-2.1-3.986"/><path fill="#263238" d="m99.916 190.346-1.68-3.341 4-2.316c1.271-.731 2.97-.649 4.814.424 3.957 2.282 7.159 8.184 7.159 13.152 0 2.61-.876 4.449-2.282 5.296l-.058.029-4.106 2.373-1.777-3.514c-3.346-2.571-5.94-7.64-6.07-12.103"/><path fill="#37474F" d="M95.742 192.42c0 4.294 2.383 9.263 5.575 12.012q.735.637 1.574 1.131c3.952 2.282 7.163.096 7.158-4.887 0-3.759-1.829-8.044-4.429-10.894v-.024a11.5 11.5 0 0 0-2.71-2.229c-3.962-2.272-7.168-.072-7.168 4.891"/><path fill="#455A64" d="M102.9 190.544c-2.513-1.444-4.554.063-4.554 3.37s2.041 7.193 4.554 8.666 4.555-.063 4.555-3.37-2.037-7.212-4.555-8.666"/><path fill="#E0E0E0" d="M102.9 193.44c-1.304-.756-2.363.029-2.363 1.752s1.059 3.731 2.363 4.487 2.364-.033 2.364-1.757-1.059-3.721-2.364-4.482"/><path fill="#F5F5F5" d="M102.135 193.406a2 2 0 0 0-.52-.207c-.66.174-1.093.891-1.093 1.993a5.98 5.98 0 0 0 1.329 3.568q.135.105.284.192c1.155.669 2.099-.029 2.099-1.56s-.929-3.312-2.099-3.986"/><path fill="#455A64" d="M95.742 192.422c0 4.294 2.383 9.263 5.575 12.012a20.3 20.3 0 0 1-4.54-8.791c-.607-2.889-.376-6.99 2.084-8.03s5.72 1.15 6.74 2.152a11.5 11.5 0 0 0-2.71-2.229c-3.943-2.277-7.15-.077-7.15 4.886"/><path fill="#F7921E" d="M126.057 205.637a1.78 1.78 0 0 1-1.748 1.915 1.77 1.77 0 0 1-.924-.245l-8.011-4.626-2.648-1.531a.7.7 0 0 0 .034-.251q.05-.191.038-.39c0-5.483-3.851-12.141-8.617-14.885s-8.579-.534-8.579 4.949v.737l-48.045-27.744q.042-.194.033-.39c0-5.484-3.851-12.142-8.579-14.881-4.727-2.739-8.583-.534-8.583 4.949v.424l-6.74-3.881V96.109l74.754 43.155 12.772 9.406 5.845 28.163 7.476 10.982.886 10.947z"/><path fill="#000" d="M126.057 205.637a1.78 1.78 0 0 1-1.748 1.915 1.77 1.77 0 0 1-.924-.245l-8.011-4.626-2.648-1.531a.7.7 0 0 0 .034-.251q.05-.191.038-.39c0-5.483-3.851-12.141-8.617-14.885s-8.579-.534-8.579 4.949v.737l-48.045-27.744q.042-.194.033-.39c0-5.484-3.851-12.142-8.579-14.881-4.727-2.739-8.583-.534-8.583 4.949v.424l-6.74-3.881V96.109l74.754 43.155 12.772 9.406 5.845 28.163 7.476 10.982.886 10.947z" opacity=".15"/><path fill="#37474F" d="M78.57 155.527a.487.487 0 0 0 .481-.491v-18.074a3.86 3.86 0 0 0-1.913-3.316l-47.91-27.633a.4.4 0 0 0-.235-.072.49.49 0 0 0-.49.492v18.063a3.85 3.85 0 0 0 1.922 3.327l47.91 27.633a.4.4 0 0 0 .235.071"/><path fill="#455A64" d="M104.21 149.557v17.331c0 .64-.448.9-.997.577l-14.399-8.309a2.2 2.2 0 0 1-1.001-1.728v-18.241c0-.64.447-.896 1.001-.578l8.666 4.997c.553.323 1.415.886 1.925 1.262l3.88 2.854a2.56 2.56 0 0 1 .925 1.835M108.836 170.73a3.68 3.68 0 0 1-1.665-2.888V152.49c0-1.06.394-1.628.881-1.262l.876.66a3.97 3.97 0 0 1 1.324 2.113l3.552 18.429c.14.727-.264 1.016-.905.645z"/><path fill="#000" d="M94.23 188.756a.96.96 0 0 1-.481-.139l-6.769-3.91a2.02 2.02 0 0 1-.924-1.583v-46.842a.7.7 0 0 1 .74-.792c.14.01.272.061.381.147l10.317 5.955c.481.269 1.199.746 1.632 1.059l5.816 4.241c.253.204.461.459.609.748.147.29.232.608.248.932v35.433a.73.73 0 0 1-.318.678.76.76 0 0 1-.78-.067c-1.358-.78-4.001-1.926-6.398-.963-2.32.934-3.067 3.144-3.307 4.381a.9.9 0 0 1-.482.679.7.7 0 0 1-.284.043m-7.5-52.874a.24.24 0 0 0-.12.029.41.41 0 0 0-.15.371v46.842a1.65 1.65 0 0 0 .737 1.275l6.754 3.885a.47.47 0 0 0 .414.058.51.51 0 0 0 .255-.399c.255-1.315 1.054-3.669 3.548-4.665 2.494-.997 5.296.192 6.74 1.006.164.091.308.12.395.067a.392.392 0 0 0 .13-.346v-35.433a1.935 1.935 0 0 0-.703-1.372l-5.816-4.236a23 23 0 0 0-1.598-1.04l-10.317-5.955a.56.56 0 0 0-.27-.087" opacity=".15"/><path fill="#E0E0E0" d="M106.574 167.266v6.797c0 .679.447 1.064 1.02 1.353s-.481-7.828-.481-7.828z"/><path fill="#EBEBEB" d="M107.113 167.592v6.518c0 1.266.732 1.868 1.829 1.232l.843-.481a4.37 4.37 0 0 0 1.978-3.432v-6.519z"/><path fill="#FAFAFA" d="m111.763 164.909-.544-.327-4.645 2.686.539.323z"/><path fill="#F7921E" d="M110.497 177.35a1.45 1.45 0 0 1-1.444-1.449v-6.008c0-.102.04-.2.113-.272a.38.38 0 0 1 .544 0c.073.072.113.17.113.272v6.013a.68.68 0 0 0 .338.582.68.68 0 0 0 .673.005l3.057-1.767a.4.4 0 0 1 .293-.038.38.38 0 0 1 .234.18.386.386 0 0 1-.142.528l-3.057 1.762a1.45 1.45 0 0 1-.722.192"/><path fill="#000" d="M110.497 177.35a1.45 1.45 0 0 1-1.444-1.449v-6.008c0-.102.04-.2.113-.272a.38.38 0 0 1 .544 0c.073.072.113.17.113.272v6.013a.68.68 0 0 0 .338.582.68.68 0 0 0 .673.005l3.057-1.767a.4.4 0 0 1 .293-.038.38.38 0 0 1 .234.18.386.386 0 0 1-.142.528l-3.057 1.762a1.45 1.45 0 0 1-.722.192" opacity=".5"/><path fill="#F7921E" d="M163.068 183.054s-5.339 7.385-16.98 14.341c-9.667 5.777-20.219 7.13-20.219 7.13l-1.377-16.71 37.185-21.471z"/><path fill="#000" d="M163.068 183.054s-5.339 7.385-16.98 14.341c-9.667 5.777-20.219 7.13-20.219 7.13l-1.377-16.71 37.185-21.471z" opacity=".3"/><path fill="#F7921E" d="M161.696 166.343s-5.344 7.385-16.985 14.342c-9.662 5.777-20.219 7.13-20.219 7.13l-7.433-10.981 37.18-21.467z"/><path fill="#37474F" d="M163.756 180.595c-.067-.068-.13-.058-.197.062 0 0-5.339 7.376-16.984 14.337-9.663 5.777-20.196 7.13-20.196 7.13-4.52.414-10.052-4.333-10.052-4.333l.761-.559s5.247 3.977 7.914 3.977c2.297 0 10.514-1.045 21.664-7.342s16.19-13.961 16.19-13.961a1.17 1.17 0 0 1 .9.689"/><path fill="#455A64" d="M163.535 180.651s-5.339 7.385-16.985 14.341c-9.662 5.777-20.195 7.13-20.195 7.13-4.521.409-10.052-4.333-10.052-4.333v6.374s5.531 4.766 10.052 4.357c0 0 10.533-1.353 20.195-7.13 11.646-6.956 16.985-14.341 16.985-14.341.919-1.598.539-7.342 0-6.398"/><path fill="#fff" d="M129.436 191.154a2.717 2.717 0 0 1 3.37 2.513 3.691 3.691 0 0 1-2.72 3.938 2.714 2.714 0 0 1-3.37-2.513 3.774 3.774 0 0 1 2.72-3.938M159.019 174.227c-1.011 1.006-1.656 3.167-1.444 4.814.212 1.646 1.155 2.181 2.113 1.17s1.603-3.178 1.445-4.814c-.159-1.637-1.103-2.176-2.114-1.17"/><path fill="#37474F" d="M135.637 188.974a43.4 43.4 0 0 0 9.195-4.121c.457-.265.823-.058.823.481v.679a1.87 1.87 0 0 1-.823 1.444 43.7 43.7 0 0 1-9.195 4.117.684.684 0 0 1-.925-.698v-.674a1.36 1.36 0 0 1 .925-1.228M155.654 178.053v.669a2.32 2.32 0 0 1-.736 1.584 78 78 0 0 1-6.894 5.161c-.443.294-.804.091-.804-.438v-.674a1.988 1.988 0 0 1 .804-1.488 79 79 0 0 0 6.894-5.156c.409-.361.736-.192.736.342M135.637 193.716a43.4 43.4 0 0 0 9.195-4.121c.457-.265.823-.058.823.482v.674a1.85 1.85 0 0 1-.823 1.444 44 44 0 0 1-9.195 4.121.69.69 0 0 1-.867-.366.7.7 0 0 1-.058-.337v-.674a1.36 1.36 0 0 1 .925-1.223M155.654 182.771v.674a2.32 2.32 0 0 1-.736 1.579 78 78 0 0 1-6.894 5.161c-.443.294-.804.091-.804-.438v-.674a1.988 1.988 0 0 1 .804-1.488 79 79 0 0 0 6.894-5.156c.409-.342.736-.192.736.342"/><path fill="#000" d="M137.023 170.064a124.5 124.5 0 0 1-15.328 6.98.73.73 0 0 0-.48.473.72.72 0 0 0 .114.663l.029.039a1.53 1.53 0 0 0 1.478.611c2.263-.481 8.367-2.079 15.954-6.157a.9.9 0 0 0 .28-.233.87.87 0 0 0 .166-.693.85.85 0 0 0-.143-.335l-.688-1.021a1.077 1.077 0 0 0-1.382-.327M152.9 159.054a92 92 0 0 1-12.646 9.147.9.9 0 0 0-.274.245.88.88 0 0 0-.158.702.9.9 0 0 0 .143.338l.698 1.031a1.034 1.034 0 0 0 1.367.303c6.884-4.145 10.562-7.794 12.247-9.778a1.36 1.36 0 0 0 .068-1.545l-.188-.284a.82.82 0 0 0-.591-.374.82.82 0 0 0-.666.215" opacity=".15"/><path fill="#455A64" d="M154.248 155.363s-6.143 6.181-16.272 12.074a122 122 0 0 1-20.917 9.392l-5.816-28.167 23.238-13.413 10.688-6.167 3.259-1.887z"/><path fill="#F7921E" d="m148.433 127.195-3.259 1.887-10.688 6.167-23.238 13.413 5.811 28.167a122 122 0 0 0 20.913-9.392c10.109-5.893 16.272-12.074 16.272-12.074zm-13.282 40.526a124 124 0 0 1-16.166 7.221.96.96 0 0 1-.827-.055.97.97 0 0 1-.478-.676l-3.572-17.813a1.69 1.69 0 0 1 .756-1.695l15.078-8.708a.8.8 0 0 1 .786-.082.82.82 0 0 1 .485.626l4.669 19.507c.068.32.034.654-.098.954a1.57 1.57 0 0 1-.633.721m2.989-1.661a.797.797 0 0 1-1.252-.539l-4.64-19.502a1.64 1.64 0 0 1 .731-1.695l2.855-1.637 11.636-6.74.515-.298a.78.78 0 0 1 1.223.549l3.553 17.673a2.23 2.23 0 0 1-.616 1.887 93.5 93.5 0 0 1-14.005 10.292z"/><path fill="#000" d="m148.433 127.195-3.259 1.887-10.688 6.167-23.238 13.413 5.811 28.167a122 122 0 0 0 20.913-9.392c10.109-5.893 16.272-12.074 16.272-12.074zm-13.282 40.526a124 124 0 0 1-16.166 7.221.96.96 0 0 1-.827-.055.97.97 0 0 1-.478-.676l-3.572-17.813a1.69 1.69 0 0 1 .756-1.695l15.078-8.708a.8.8 0 0 1 .786-.082.82.82 0 0 1 .485.626l4.669 19.507c.068.32.034.654-.098.954a1.57 1.57 0 0 1-.633.721m2.989-1.661a.797.797 0 0 1-1.252-.539l-4.64-19.502a1.64 1.64 0 0 1 .731-1.695l2.855-1.637 11.636-6.74.515-.298a.78.78 0 0 1 1.223.549l3.553 17.673a2.23 2.23 0 0 1-.616 1.887 93.5 93.5 0 0 1-14.005 10.292z" opacity=".3"/><path fill="#455A64" d="m114.334 153.215 33.536-19.377a1.32 1.32 0 0 0 .592-1.314l-.592-3.028a.597.597 0 0 0-.963-.424l-33.536 19.391a1.32 1.32 0 0 0-.592 1.315l.607 3.023a.6.6 0 0 0 .66.524.6.6 0 0 0 .288-.11"/><path fill="#37474F" d="M135.887 166.053a1.57 1.57 0 0 1-.736 1.656 123.6 123.6 0 0 1-16.166 7.236.96.96 0 0 1-.827-.055.97.97 0 0 1-.478-.677l-.236-1.174c3.259-2.374 11.179-8.025 17.254-11.554l.072-.044zM152.433 155.419a1.6 1.6 0 0 1-.279.332 93 93 0 0 1-14.019 10.297.8.8 0 0 1-1.092-.167.8.8 0 0 1-.155-.372l-1.097-4.621a105 105 0 0 1 14.741-6.716z"/><path fill="#fff" d="m150.089 151.599-4.063-2.344a3.69 3.69 0 0 1-1.666-2.889v-8.622l3.119-1.8.516-.299.043-.024 2.956 15.338c.139.722-.265 1.011-.905.64M141.399 139.457v5.974c0 .636-.443.896-1.001.573l-5.166-2.98.602-.337z" opacity=".1"/><path fill="#F7921E" d="M135.656 117.803h-.005l-74.75-43.155L23.718 96.11l74.754 43.154 12.777 9.393 37.185-21.467z"/></svg>