<svg xmlns="http://www.w3.org/2000/svg" width="256" height="256" fill="none"><path stroke="#D5D5D5" d="M46.91 213.433c-22.369-12.927-33.44-29.787-33.44-46.541s11.071-33.607 33.44-46.521c22.366-12.907 51.714-19.384 81.088-19.389s58.721 6.464 81.087 19.389c22.369 12.928 33.44 29.788 33.44 46.542s-11.071 33.607-33.44 46.52c-22.366 12.912-51.713 19.389-81.088 19.393-29.374.003-58.72-6.467-81.087-19.393Z"/><path fill="#F7921E" d="m54.986 39.45-.487-1.525c-.266-1.247 4.763 1.663 5.025 2.91l-1.629 4.36a.7.7 0 0 1-.27.316c-.358.22-1.663.96-1.78 1.026a.703.703 0 0 1-1.034-.382l-2.099-7.195c-.116-.607 1.027-.208 2.274.49"/><path fill="#fff" d="m54.986 39.45-.487-1.525c-.266-1.247 4.763 1.663 5.025 2.91l-1.629 4.36a.7.7 0 0 1-.27.316c-.358.22-1.663.96-1.78 1.026a.703.703 0 0 1-1.034-.382l-2.099-7.195c-.116-.607 1.027-.208 2.274.49" opacity=".2"/><path fill="#F7921E" d="m48.161 10.157 19.12 11.023a1.43 1.43 0 0 1 .648 1.118v22.64a1.4 1.4 0 0 1-.653 1.113l-1.18.67a1.44 1.44 0 0 1-1.297 0l-19.12-11.023a1.43 1.43 0 0 1-.648-1.118V11.932a1.41 1.41 0 0 1 .653-1.114l1.18-.67a1.45 1.45 0 0 1 1.297.01"/><path fill="#fff" d="m48.161 10.157 19.12 11.023a1.43 1.43 0 0 1 .648 1.118v22.64a1.4 1.4 0 0 1-.653 1.113l-1.18.67a1.44 1.44 0 0 1-1.297 0l-19.12-11.023a1.43 1.43 0 0 1-.648-1.118V11.932a1.41 1.41 0 0 1 .653-1.114l1.18-.67a1.45 1.45 0 0 1 1.297.01" opacity=".2"/><path fill="#F7921E" d="m45.68 11.56 19.119 11.022a1.43 1.43 0 0 1 .648 1.118v22.644c0 .416-.29.578-.648.37l-7.32-4.219-1.342 3.74a.703.703 0 0 1-1.31-.066l-1.786-6.234-7.361-4.223a1.43 1.43 0 0 1-.649-1.118v-22.66c0-.412.291-.582.649-.375"/><path fill="#fff" d="m45.68 11.56 19.119 11.022a1.43 1.43 0 0 1 .648 1.118v22.644c0 .416-.29.578-.648.37l-7.32-4.219-1.342 3.74a.703.703 0 0 1-1.31-.066l-1.786-6.234-7.361-4.223a1.43 1.43 0 0 1-.649-1.118v-22.66c0-.412.291-.582.649-.375" opacity=".4"/><path fill="#fff" d="M45.044 11.813c.05-.325.316-.441.636-.254l19.119 11.023c.191.119.348.284.457.482l2.469-1.426a1.3 1.3 0 0 0-.445-.457L48.161 10.158a1.43 1.43 0 0 0-1.293 0l-1.18.67a1.41 1.41 0 0 0-.644.985" opacity=".7"/><path fill="#fff" d="M58.477 35.902q-.79.615-2.29.05v1.966l-1.596-.922v-1.892a13 13 0 0 1-1.883-1.542 11.2 11.2 0 0 1-1.475-1.745l.864-2.079q.64.931 1.447 1.721c.482.493 1.027.92 1.62 1.272q1.514.875 1.514-.133a1.6 1.6 0 0 0-.416-1.039 14 14 0 0 0-1.388-1.338 24 24 0 0 1-1.75-1.663 7.2 7.2 0 0 1-1.21-1.804 5.36 5.36 0 0 1-.503-2.348q0-1.521.832-2.136.831-.615 2.373.037v-1.953l1.596.922v1.912q.774.54 1.455 1.193a11 11 0 0 1 1.247 1.409l-.81 2.132a9.4 9.4 0 0 0-2.574-2.444q-.786-.448-1.143-.349c-.237.067-.357.27-.357.599.013.369.161.72.416.989q.639.7 1.367 1.305a22 22 0 0 1 1.758 1.663c.49.535.898 1.14 1.21 1.795.348.73.523 1.531.51 2.34q-.024 1.476-.814 2.082"/><path fill="#263238" d="M100.171 127.474a9.65 9.65 0 0 1-.754 3.981 4.94 4.94 0 0 1-1.938 2.261l-.065.039-4.852 2.796-1.969-3.92-.135-.261a16 16 0 0 1-2.94-2.992 10 10 0 0 1-.618-.85 21.6 21.6 0 0 1-2.796-5.714 17.4 17.4 0 0 1-.845-4.751l-.035-.066-.496-.984-1.059-2.025-.435-.871 4.325-2.505.291-.169.122-.07a4.35 4.35 0 0 1 2.178-.566 7.15 7.15 0 0 1 3.532 1.071c4.695 2.731 8.489 9.704 8.489 15.596"/><path fill="#37474F" d="M78.316 120.536c0 5.082 2.822 10.966 6.598 14.22a12.4 12.4 0 0 0 1.856 1.328c4.682 2.709 8.48.118 8.475-5.779 0-4.451-2.178-9.525-5.226-12.901l-.026-.026a13.6 13.6 0 0 0-3.206-2.639c-4.7-2.683-8.47-.096-8.47 5.797"/><path fill="#455A64" d="M86.765 118.314c-2.974-1.72-5.391.07-5.391 4.003s2.417 8.51 5.391 10.23 5.397-.074 5.397-4.002-2.418-8.51-5.397-10.231"/><path fill="#455A64" d="M78.316 120.535c0 5.083 2.822 10.967 6.598 14.22a24 24 0 0 1-5.374-10.4c-.719-3.398-.436-8.276 2.47-9.508 2.904-1.233 6.768 1.363 7.983 2.548a13.7 13.7 0 0 0-3.206-2.64c-4.7-2.7-8.47-.113-8.47 5.78"/><path fill="#E0E0E0" d="M86.765 121.738c-1.546-.893-2.796.035-2.796 2.078s1.25 4.416 2.796 5.309 2.8-.04 2.8-2.078-1.232-4.416-2.8-5.309"/><path fill="#F5F5F5" d="M85.873 121.699a2.3 2.3 0 0 0-.615-.248c-.775.209-1.306 1.059-1.306 2.365a7.05 7.05 0 0 0 1.59 4.238q.158.124.33.226c1.377.793 2.487-.03 2.487-1.846s-1.11-3.938-2.486-4.735"/><path fill="#455A64" d="M80.855 108.566v2.056l60.499 34.929v-2.055z"/><path fill="#F7921E" d="m99.526 121.408-3.305-1.912v11.232c0 .606.435.85.945.545l2.613-1.503-.248-.148z"/><path fill="#fff" d="m99.526 121.408-3.305-1.912v11.232c0 .606.435.85.945.545l2.613-1.503-.248-.148z" opacity=".7"/><path fill="#37474F" d="M99.526 121.408v6.163l15.135 8.737v-6.163z"/><path fill="#263238" d="m114.661 136.305-15.135-8.737-.88.523 16.015 9.233z"/><path fill="#455A64" d="M98.65 129.121v-1.023l16.011 9.229v1.036z"/><path fill="#37474F" d="M114.661 128.088v12.33l12.456 7.19v-12.33zM127.117 135.277v12.33l12.456 7.191v-12.326z"/><path fill="#263238" d="m139.573 154.799 3.559-2.056v-10.274l-1.777 1.028-1.782-1.024zM126.668 147.347v-12.326l.889.514v12.326z"/><path fill="#E0E0E0" d="M132.896 142.726v-2.056l.889.514.004 2.056zM120.44 135.54v-2.056l.889.51.004 2.06z"/><path fill="#000" d="M113.751 127.562v8.223l-.867.519v1.032l1.777 1.028v-10.275z" opacity=".2"/><path fill="#F7921E" d="m77.297 106.516 64.057 36.981.005-4.094-64.062-36.981z"/><path fill="#fff" d="m77.297 106.518 64.057 36.981.005-4.094-64.062-36.981z" opacity=".6"/><path fill="#F7921E" d="m141.355 143.498 1.777-1.028v-4.107l-1.777 1.028z"/><path fill="#fff" d="m141.354 143.496 1.777-1.028v-4.107l-1.777 1.028z" opacity=".5"/><path fill="#000" d="m141.354 143.496 1.777-1.028v-4.107l-1.777 1.028z" opacity=".1"/><path fill="#F7921E" d="m121.782 76.72-44.485 25.701 64.057 36.968 44.485-25.683z"/><path fill="#fff" d="m121.782 76.72-44.485 25.701 64.057 36.968 44.485-25.683z" opacity=".8"/><path fill="#455A64" d="m82.632 52.065 56.941 32.874L180.5 61.31l-56.941-32.873z"/><path fill="#37474F" d="M139.573 136.304V84.938l-56.94-32.873v51.366z"/><path fill="#263238" d="m139.573 136.304 40.927-23.627V61.31l-40.927 23.628z"/><path fill="#FAFAFA" d="m225.175 104.695 3.275-1.903a.76.76 0 0 1 .767-.074c.192.113.579.348.771.435a.75.75 0 0 1 .322.701v7.866a2.37 2.37 0 0 1-1.08 1.864l-3.271 1.925a.77.77 0 0 1-.762.078c-.196-.113-.584-.352-.78-.461a.76.76 0 0 1-.317-.701v-7.866a2.36 2.36 0 0 1 1.075-1.864"/><path fill="#E0E0E0" d="M224.095 106.558v7.866a.76.76 0 0 0 .318.701c.192.105.484.292.758.436a.78.78 0 0 1-.292-.684v-7.857c.012-.374.12-.738.314-1.058l-.78-.462c-.195.32-.305.684-.318 1.058"/><path fill="#F0F0F0" d="m229.23 113.605-3.271 1.904c-.597.344-1.076.065-1.076-.619v-7.87a2.37 2.37 0 0 1 1.076-1.864l3.275-1.903c.597-.344 1.08-.065 1.08.623v7.865a2.367 2.367 0 0 1-1.084 1.864"/><path fill="#263238" d="M224.984 120.146a.279.279 0 0 1-.269-.239.3.3 0 0 1 .007-.106.265.265 0 0 1 .127-.164l2.282-1.307a.27.27 0 0 0 .135-.235v-8.628a.28.28 0 0 1 .067-.216.3.3 0 0 1 .092-.068.26.26 0 0 1 .226 0 .27.27 0 0 1 .16.284v8.615a.832.832 0 0 1-.41.71l-2.282 1.306a.25.25 0 0 1-.135.048"/><path fill="#F7921E" d="m157.077 164.742 9.255-4.277s-.723-8.711-6.834-6.625-2.421 10.902-2.421 10.902"/><path fill="#000" d="m157.077 164.742 9.255-4.277s-.723-8.711-6.834-6.625-2.421 10.902-2.421 10.902" opacity=".5"/><path fill="#263238" d="m162.168 163.654-1.973-3.954 4.739-2.744c1.511-.871 3.514-.767 5.718.505 4.682 2.705 8.475 9.673 8.475 15.57 0 3.084-1.04 5.266-2.704 6.254l-.07.04-4.856 2.804-2.104-4.172c-4.002-3.04-7.073-9.041-7.225-14.303"/><path fill="#37474F" d="M157.225 166.091c0 5.082 2.822 10.966 6.602 14.22q.87.752 1.86 1.337c4.682 2.7 8.48.113 8.475-5.784 0-4.451-2.177-9.525-5.226-12.9l-.026-.026a13.5 13.5 0 0 0-3.206-2.64c-4.686-2.687-8.479-.1-8.479 5.793"/><path fill="#455A64" d="M165.7 163.868c-2.979-1.742-5.392.07-5.392 4.003s2.413 8.51 5.392 10.23 5.392-.074 5.392-4.002-2.413-8.51-5.392-10.231"/><path fill="#E0E0E0" d="M165.7 167.293c-1.546-.871-2.796.035-2.796 2.078s1.25 4.416 2.796 5.309 2.8-.039 2.8-2.078-1.254-4.416-2.8-5.309"/><path fill="#F5F5F5" d="M164.807 167.252a2.4 2.4 0 0 0-.614-.248c-.775.209-1.307 1.058-1.307 2.365.05 1.54.6 3.021 1.568 4.22q.162.123.335.227c1.377.792 2.487-.031 2.487-1.847s-1.093-3.924-2.469-4.717"/><path fill="#455A64" d="M157.225 166.09c0 5.082 2.822 10.966 6.602 14.22a24 24 0 0 1-5.374-10.401c-.719-3.397-.436-8.275 2.469-9.507 2.905-1.233 6.768 1.363 7.983 2.547a13.5 13.5 0 0 0-3.205-2.639c-4.682-2.7-8.475-.113-8.475 5.78"/><path fill="#F7921E" d="m189.95 183.713-8.384-4.843-1.102-.636-2.112-1.228-1.002-.584a.7.7 0 0 0 .044-.296 1.7 1.7 0 0 0 .039-.466c0-6.485-4.551-14.373-10.196-17.613a12.4 12.4 0 0 0-1.65-.801 10 10 0 0 0-.719-.249c-4.46-1.35-7.783 1.359-7.783 6.908v.841l-13.937-8.053v-63.53l17.321 10.016 15.122 11.137 6.855 33.339 5.318 7.814.283.414 3.249 4.764 1.054 12.966.261 2.835.113 1.167.262 2.805.122 1.307a2.1 2.1 0 0 1-.974 1.954 2.1 2.1 0 0 1-2.184.032"/><path fill="#000" d="m189.95 183.711-8.384-4.843-1.101-.636-2.113-1.228-1.002-.584a.7.7 0 0 0 .044-.296q.053-.23.039-.466c0-6.485-4.551-14.373-10.195-17.613a12.5 12.5 0 0 0-1.651-.801 9 9 0 0 0-.719-.248c-4.46-1.351-7.783 1.358-7.783 6.907v.841l-13.937-8.053v-63.53l17.321 10.016 15.122 11.137 6.855 33.339 5.318 7.814.283.414 3.249 4.764 1.054 12.966.261 2.835.114 1.167.261 2.805.122 1.307a2.1 2.1 0 0 1-.974 1.954 2.09 2.09 0 0 1-2.184.032" opacity=".15"/><path fill="#455A64" d="M167.251 115.344v20.553c0 .757-.527 1.062-1.181.683l-17.046-9.829a2.63 2.63 0 0 1-1.185-2.052v-21.632c0-.754.527-1.059 1.185-.684l10.248 5.919a29 29 0 0 1 2.282 1.493l4.595 3.376a3.02 3.02 0 0 1 1.102 2.173M172.73 140.404a4.35 4.35 0 0 1-1.973-3.415v-18.175c0-1.258.466-1.929 1.041-1.498l1.04.78a4.76 4.76 0 0 1 1.568 2.504l4.199 21.82c.17.871-.309 1.198-1.063.758z"/><path fill="#000" d="m168.117 112.187-6.885-5.017a25 25 0 0 0-1.93-1.255l-12.216-7.042a.9.9 0 0 0-.924-.07.91.91 0 0 0-.405.836v55.417a2.4 2.4 0 0 0 1.102 1.907l8.018 4.626c.168.105.36.162.558.165a.8.8 0 0 0 .348-.074.87.87 0 0 0 .362-.313c.097-.148.162-.314.191-.488.288-1.463 1.176-4.085 3.92-5.187a7.06 7.06 0 0 1 4.477-.131c.773.205 1.523.486 2.239.841.314.152.601.305.871.435a.91.91 0 0 0 .923.087.7.7 0 0 0 .223-.222c.108-.178.161-.384.152-.592v-41.928a2.73 2.73 0 0 0-1.024-1.995m.327 44.371a.48.48 0 0 1-.309-.065l-.074-.035a12.8 12.8 0 0 0-3.737-1.463 7.3 7.3 0 0 0-4.233.27c-2.64 1.063-3.672 3.406-4.073 5a6 6 0 0 0-.121.518.63.63 0 0 1-.301.475.53.53 0 0 1-.488-.074l-8.022-4.621a1.955 1.955 0 0 1-.871-1.511V99.631a.5.5 0 0 1 .174-.436.3.3 0 0 1 .148-.035.66.66 0 0 1 .322.105l12.217 7.055c.54.309 1.385.871 1.886 1.224l6.89 5.022a2.28 2.28 0 0 1 .827 1.624v41.937a.48.48 0 0 1-.148.436.2.2 0 0 1-.074.022z" opacity=".15"/><path fill="#F7921E" d="M236.931 155s-6.32 8.737-20.104 16.986c-11.442 6.837-23.911 8.436-23.911 8.436l-1.629-19.782 44.015-25.417z"/><path fill="#000" d="M236.93 154.998s-6.319 8.737-20.104 16.986c-11.441 6.837-23.91 8.436-23.91 8.436l-1.629-19.782 44.015-25.417z" opacity=".3"/><path fill="#F7921E" d="M235.302 135.215s-6.319 8.741-20.104 16.985c-11.441 6.838-23.91 8.436-23.91 8.436l-8.824-12.983 44.023-25.413z"/><path fill="#37474F" d="M237.719 152.086c-.078-.083-.148-.07-.231.069 0 0-6.319 8.737-20.108 16.986-11.455 6.82-23.915 8.432-23.915 8.432-5.348.488-11.899-5.161-11.899-5.161l.902-.658s6.211 4.704 9.368 4.704c2.722 0 12.452-1.237 25.653-8.711 13.201-7.473 19.163-16.511 19.163-16.511a1.39 1.39 0 0 1 1.067.85"/><path fill="#455A64" d="M237.484 152.157s-6.324 8.737-20.108 16.985c-11.437 6.838-23.911 8.437-23.911 8.437-5.348.487-11.899-5.153-11.899-5.153v7.544s6.533 5.662 11.899 5.156c0 0 12.474-1.602 23.911-8.436 13.784-8.24 20.108-16.985 20.108-16.985 1.106-1.869.636-8.667 0-7.548"/><path fill="#fff" d="M197.115 164.591c1.968-.466 3.749.871 3.976 2.974a4.386 4.386 0 0 1-3.227 4.661 3.2 3.2 0 0 1-2.694-.542 3.2 3.2 0 0 1-1.278-2.433c-.188-2.108 1.254-4.177 3.223-4.66M232.14 144.543c-1.198 1.194-1.964 3.75-1.716 5.714s1.372 2.583 2.504 1.381c1.133-1.202 1.899-3.759 1.716-5.714s-1.311-2.574-2.504-1.381"/><path fill="#37474F" d="M204.458 162.024a51.4 51.4 0 0 0 10.888-4.878c.545-.318.98-.07.98.558v.797a2.172 2.172 0 0 1-.98 1.72 51.5 51.5 0 0 1-10.888 4.878.81.81 0 0 1-.776-.112.82.82 0 0 1-.322-.716v-.797a1.6 1.6 0 0 1 1.098-1.45M228.137 149.072v.797a2.77 2.77 0 0 1-.871 1.877 92 92 0 0 1-8.157 6.097c-.523.344-.954.109-.954-.518v-.788a2.36 2.36 0 0 1 .954-1.742 93 93 0 0 0 8.157-6.098c.497-.431.871-.252.871.375M204.458 167.591a51.5 51.5 0 0 0 10.888-4.874c.544-.318.98-.074.98.558v.797a2.21 2.21 0 0 1-.98 1.72 51.7 51.7 0 0 1-10.888 4.874.82.82 0 0 1-.779-.11.81.81 0 0 1-.319-.718v-.797a1.615 1.615 0 0 1 1.098-1.45M228.137 154.662v.797a2.77 2.77 0 0 1-.871 1.873 92 92 0 0 1-8.157 6.097c-.523.349-.954.114-.954-.518v-.797a2.36 2.36 0 0 1 .954-1.742 95 95 0 0 0 8.157-6.097c.497-.423.871-.244.871.387"/><path fill="#000" d="M206.095 139.621a147 147 0 0 1-18.144 8.275.87.87 0 0 0-.56.56.9.9 0 0 0-.032.406.9.9 0 0 0 .157.376l.03.043a1.82 1.82 0 0 0 1.742.727c2.674-.583 9.904-2.465 18.889-7.295a1 1 0 0 0 .518-.661 1 1 0 0 0-.161-.824l-.814-1.211a1.274 1.274 0 0 0-1.625-.396M224.893 126.587a109 109 0 0 1-14.974 10.827 1.1 1.1 0 0 0-.324.291 1.067 1.067 0 0 0-.011 1.233l.823 1.22a1.23 1.23 0 0 0 1.62.361c8.145-4.908 12.5-9.229 14.495-11.58a1.61 1.61 0 0 0 .083-1.83l-.223-.331a.97.97 0 0 0-1.123-.408 1 1 0 0 0-.366.217" opacity=".15"/><path fill="#455A64" d="M226.487 122.216s-7.273 7.313-19.259 14.29-24.76 11.119-24.76 11.119l-6.881-33.349 27.508-15.875 12.652-7.3 3.859-2.238z"/><path fill="#F7921E" d="m219.606 88.856-3.859 2.234-12.652 7.312-27.508 15.875 6.881 33.349.47-.157.096-.031.479-.165.201-.057h.087l.326-.117.51-.179.505-.183.331-.122.436-.161 1.472-.557.331-.127c1.18-.457 2.517-.988 3.967-1.594l1.429-.605.231-.1.261-.109c.301-.14.614-.27.928-.41l.27-.117.627-.283.719-.323a94 94 0 0 0 1.589-.736q.804-.378 1.62-.77c.41-.201.819-.401 1.229-.61l.993-.497.104-.052 1.015-.527.083-.044.893-.47.714-.383q.87-.466 1.694-.941l1.128-.644 1.028-.662c.292-.17.579-.349.871-.523.109-.065.222-.131.327-.2.326-.196.657-.401.975-.601l.118-.075.466-.296c.204-.13.4-.261.605-.387l.579-.384.575-.374q.362-.234.71-.475c.475-.322.937-.636 1.39-.954l.091-.065.523-.361c.688-.488 1.35-.967 1.977-1.429l.47-.353.436-.339.435-.34c.297-.222.58-.436.871-.658l.035-.026.353-.274.806-.645.509-.405c.105-.087.205-.174.305-.253.1-.078.201-.169.296-.243l.292-.24v-.022l.662-.531c.815-.688 1.498-1.307 2.038-1.786q.103-.105.218-.196l.044-.043.226-.209c.64-.588.989-.937 1.037-.985zm-14.83 46.601a.1.1 0 0 1 0 .026 2 2 0 0 1-.039.2v.057c-.022.052-.04.109-.061.161a1 1 0 0 1-.031.07 1.795 1.795 0 0 1-.549.732 1 1 0 0 1-.2.126c-1.62.871-3.24 1.716-4.821 2.487l-.832.409q-.998.475-1.973.923l-.906.436-1.55.688q-.386.176-.758.331l-.736.318c-.976.436-1.908.801-2.788 1.159-.466.191-.923.37-1.359.544l-.64.248c-1.049.405-1.973.754-2.752 1.037a1.13 1.13 0 0 1-1.403-.475 1.4 1.4 0 0 1-.143-.392l-4.234-21.088a2.012 2.012 0 0 1 .897-2.004l17.857-10.309a.963.963 0 0 1 1.494.649l4.229 17.657 1.28 5.348.022.087v.065a.2.2 0 0 1 0 .074.3.3 0 0 1 0 .075 1 1 0 0 1 0 .156q.006.103-.004.205m15.731-9.791-.314.266c-1.04.841-2.225 1.742-3.527 2.731-.436.331-.902.662-1.377 1.001l-.509.371a75 75 0 0 1-2.178 1.502l-.74.497c-.248.17-.505.335-.762.501s-.519.344-.78.509a93 93 0 0 1-2.909 1.808.95.95 0 0 1-.917.097.94.94 0 0 1-.56-.733l-.03-.131-1.285-5.331-4.19-17.613a1.95 1.95 0 0 1 .871-2.007l3.384-1.947 13.776-7.97.614-.349.052-.026a.92.92 0 0 1 .882-.043.92.92 0 0 1 .508.723l4.211 20.905a2.64 2.64 0 0 1-.405 1.842 3 3 0 0 1-.152.214 2 2 0 0 1-.166.169l-.222.201q-.15.142-.309.279l-.941.818a63 63 0 0 1-1.097.932l-.823.68-.101.078z"/><path fill="#000" d="m219.606 88.856-3.859 2.234-12.652 7.312-27.508 15.875 6.881 33.349.47-.157.096-.031.479-.165.201-.057h.087l.326-.117.51-.179.505-.183.331-.122.436-.161 1.472-.557.331-.127c1.18-.457 2.517-.988 3.967-1.594l1.429-.605.231-.1.261-.109c.301-.14.614-.27.928-.41l.27-.117.627-.283.719-.323a94 94 0 0 0 1.589-.736q.804-.378 1.62-.77c.41-.201.819-.401 1.229-.61l.993-.497.104-.052 1.015-.527.083-.044.893-.47.714-.383q.87-.466 1.694-.941l1.128-.644 1.028-.662c.292-.17.579-.349.871-.523.109-.065.222-.131.327-.2.326-.196.657-.401.975-.601l.118-.075.466-.296c.204-.13.4-.261.605-.387l.579-.384.575-.374q.362-.234.71-.475c.475-.322.937-.636 1.39-.954l.091-.065.523-.361c.688-.488 1.35-.967 1.977-1.429l.47-.353.436-.339.435-.34c.297-.222.58-.436.871-.658l.035-.026.353-.274.806-.645.509-.405c.105-.087.205-.174.305-.253.1-.078.201-.169.296-.243l.292-.24v-.022l.662-.531c.815-.688 1.498-1.307 2.038-1.786q.103-.105.218-.196l.044-.043.226-.209c.64-.588.989-.937 1.037-.985zm-14.83 46.601a.1.1 0 0 1 0 .026 2 2 0 0 1-.039.2v.057c-.022.052-.04.109-.061.161a1 1 0 0 1-.031.07 1.795 1.795 0 0 1-.549.732 1 1 0 0 1-.2.126c-1.62.871-3.24 1.716-4.821 2.487l-.832.409q-.998.475-1.973.923l-.906.436-1.55.688q-.386.176-.758.331l-.736.318c-.976.436-1.908.801-2.788 1.159-.466.191-.923.37-1.359.544l-.64.248c-1.049.405-1.973.754-2.752 1.037a1.13 1.13 0 0 1-1.403-.475 1.4 1.4 0 0 1-.143-.392l-4.234-21.088a2.012 2.012 0 0 1 .897-2.004l17.857-10.309a.963.963 0 0 1 1.494.649l4.229 17.657 1.28 5.348.022.087v.065a.2.2 0 0 1 0 .074.3.3 0 0 1 0 .075 1 1 0 0 1 0 .156q.006.103-.004.205m15.731-9.791-.314.266c-1.04.841-2.225 1.742-3.527 2.731-.436.331-.902.662-1.377 1.001l-.509.371a75 75 0 0 1-2.178 1.502l-.74.497c-.248.17-.505.335-.762.501s-.519.344-.78.509a93 93 0 0 1-2.909 1.808.95.95 0 0 1-.917.097.94.94 0 0 1-.56-.733l-.03-.131-1.285-5.331-4.19-17.613a1.95 1.95 0 0 1 .871-2.007l3.384-1.947 13.776-7.97.614-.349.052-.026a.92.92 0 0 1 .882-.043.92.92 0 0 1 .508.723l4.211 20.905a2.64 2.64 0 0 1-.405 1.842 3 3 0 0 1-.152.214 2 2 0 0 1-.166.169l-.222.201q-.15.142-.309.279l-.941.818a63 63 0 0 1-1.097.932l-.823.68-.101.078z" opacity=".3"/><path fill="#455A64" d="m179.232 119.674 39.716-22.94a1.57 1.57 0 0 0 .705-1.559l-.723-3.584a.7.7 0 0 0-.414-.575.71.71 0 0 0-.705.07L178.1 114.025a1.57 1.57 0 0 0-.587.676 1.57 1.57 0 0 0-.119.887l.719 3.581a.7.7 0 0 0 .414.574.7.7 0 0 0 .705-.069"/><path fill="#37474F" d="M204.749 134.864a1.85 1.85 0 0 1-.871 1.964 146.4 146.4 0 0 1-19.119 8.562 1.135 1.135 0 0 1-1.546-.871l-.279-1.389c3.859-2.805 13.231-9.499 20.426-13.654a1 1 0 0 1 .087-.052zM224.339 122.284a1.8 1.8 0 0 1-.331.396 110.3 110.3 0 0 1-16.593 12.195.937.937 0 0 1-1.293-.196.95.95 0 0 1-.184-.44l-1.306-5.474a125 125 0 0 1 17.451-7.949z"/><path fill="#fff" d="m221.569 117.759-4.812-2.77a4.35 4.35 0 0 1-1.973-3.419v-10.213l3.689-2.134.61-.353a.2.2 0 0 1 .056-.03l3.484 18.157c.179.858-.3 1.198-1.054.762M211.278 103.381v7.073c0 .758-.527 1.063-1.184.684l-6.12-3.533.728-.435z" opacity=".1"/><path fill="#F7921E" d="m219.605 88.86-44.019 25.414-15.13-11.119-17.321-10 44.019-25.409 17.321 10z"/><path fill="#FAFAFA" d="m171.083 135.48 3.279-1.903a.75.75 0 0 1 .762-.074l.776.462a.755.755 0 0 1 .318.696v7.866a2.38 2.38 0 0 1-1.076 1.864l-3.28 1.903a.75.75 0 0 1-.762.079c-.191-.113-.583-.353-.775-.462a.76.76 0 0 1-.318-.701v-7.866a2.37 2.37 0 0 1 1.076-1.864"/><path fill="#E0E0E0" d="M169.994 137.346v7.87a.75.75 0 0 0 .318.696c.187.105.484.292.754.436a.78.78 0 0 1-.292-.684v-7.857c.014-.367.121-.725.309-1.041l-.784-.461a2.2 2.2 0 0 0-.305 1.041"/><path fill="#F0F0F0" d="m175.129 144.389-3.279 1.903c-.593.344-1.076.065-1.076-.619v-7.865a2.39 2.39 0 0 1 1.076-1.869l3.279-1.903c.593-.34 1.076-.065 1.076.623v7.866a2.38 2.38 0 0 1-1.076 1.864"/><path fill="#37474F" d="M178.052 145.7a2.45 2.45 0 0 1 1.101 1.916c0 .706-.492.993-1.101.64a2.43 2.43 0 0 1-1.102-1.916c0-.706.492-.993 1.102-.64"/><path fill="#263238" d="M174.176 149.394a.84.84 0 0 1-.708-.411.8.8 0 0 1-.107-.408v-7.979a.28.28 0 0 1 .067-.216.27.27 0 0 1 .206-.093.27.27 0 0 1 .262.194.3.3 0 0 1 .01.115v7.988a.26.26 0 0 0 .135.235.26.26 0 0 0 .27 0l3.606-2.082a.27.27 0 0 1 .396.308.28.28 0 0 1-.126.167l-3.619 2.077a.8.8 0 0 1-.392.105"/><path fill="#000" d="m60.008 177.638 2.182-.777-.685-1.468-1.354 1.211z"/><path fill="#263238" d="M57.84 173.717s-.113 1.426-.135 1.839c-.021.414 1.84 1.846 2.303 2.082l.142-1.034a7.8 7.8 0 0 1 1.056 1.69 8.1 8.1 0 0 0 1.789 2.659c1.461 1.233 3.771 1.882 6.13 2.003s3.722-.428 4.4-.927a1.55 1.55 0 0 0 .748-1.689c-.164-.592-16.432-6.623-16.432-6.623"/><path fill="#37474F" d="m64.235 169.055.043-.813c.435 0 .463 1.169 1.084 2.21a21 21 0 0 0 3.258 4.277c2.36 2.21 4.47 3.608 5.524 4.606 1.426 1.333-1.14 3.365-4.99 3.087-1.91-.136-5.297-1.148-6.23-2.289-.934-1.14-1.498-2.901-2.246-3.735-.749-.834-2.381-1.683-2.852-2.681-.256-.549-.1-1.818.079-2.894.178-1.077.214-2.51.777-2.374v.506c.22.442.713 1.162 2.281 1.426.841.164 3.108.271 3.272-1.326"/><path fill="#000" d="M62.247 170.481a2.146 2.146 0 0 0 1.853-.934 1.84 1.84 0 0 0 .47 1.568c.713.813 4.934 6.545 4.934 6.545s-3.971-4.734-4.734-5.625c-1.133-1.319-1.49-1.483-2.545-1.533zM63.18 171.979a.25.25 0 0 1-.09.156.25.25 0 0 1-.174.05.234.234 0 0 1-.2-.263.234.234 0 1 1 .463.057M64.3 173.246a.24.24 0 0 1-.264.207.239.239 0 0 1-.035-.464.24.24 0 0 1 .25.082.24.24 0 0 1 .048.175M65.419 174.516a.24.24 0 0 1-.089.158.236.236 0 0 1-.375-.123.24.24 0 0 1 .082-.249.2.2 0 0 1 .083-.039.2.2 0 0 1 .092-.004.234.234 0 0 1 .207.257M66.53 175.79a.23.23 0 0 1-.09.154.23.23 0 0 1-.297-.011.235.235 0 1 1 .388-.143M67.65 177.06a.235.235 0 1 1-.466-.067.235.235 0 0 1 .466.067" opacity=".15"/><path fill="#263238" d="M62.938 172.043a.07.07 0 0 1-.057 0 .1.1 0 0 1-.026-.065q.001-.036.026-.064a3.87 3.87 0 0 1 2.687-1.005q.039 0 .066.027a.1.1 0 0 1 .027.066.09.09 0 0 1-.093.092 3.7 3.7 0 0 0-2.537.956.1.1 0 0 1-.048.008.1.1 0 0 1-.045-.015M64.057 173.333a.1.1 0 0 1-.057 0 .096.096 0 0 1-.03-.068.1.1 0 0 1 .03-.068 3.91 3.91 0 0 1 2.68-1.005.1.1 0 0 1 .062.034.1.1 0 0 1 .024.066.1.1 0 0 1-.01.037.09.09 0 0 1-.097.048 3.8 3.8 0 0 0-2.538.956.1.1 0 0 1-.064 0M65.176 174.58a.1.1 0 0 1-.032.008.1.1 0 0 1-.032-.008.09.09 0 0 1-.029-.064.09.09 0 0 1 .03-.064 3.83 3.83 0 0 1 2.68-1.006.1.1 0 0 1 .065.028.09.09 0 0 1 0 .131.1.1 0 0 1-.065.027 3.75 3.75 0 0 0-2.538.955.06.06 0 0 1-.04.008.07.07 0 0 1-.039-.015M66.288 175.857h-.057a.1.1 0 0 1-.026-.067q.001-.04.026-.068a3.87 3.87 0 0 1 2.702-1.034.1.1 0 0 1 .085.1.09.09 0 0 1-.032.063.088.088 0 0 1-.068.022 3.8 3.8 0 0 0-2.537.956.1.1 0 0 1-.043.025.1.1 0 0 1-.05.003M67.408 177.124a.14.14 0 0 1-.057 0 .1.1 0 0 1-.03-.068q0-.018.008-.037a.1.1 0 0 1 .022-.03 3.85 3.85 0 0 1 2.68-1.006.1.1 0 0 1 .062.034.1.1 0 0 1 .024.066.1.1 0 0 1-.107.086 3.8 3.8 0 0 0-2.538.955.1.1 0 0 1-.064 0M47.775 183.314a8.65 8.65 0 0 1-1.027 4.192 3.27 3.27 0 0 1-3.115 1.304 4.49 4.49 0 0 1-3.907-2.958 8.3 8.3 0 0 1-.17-4.399z"/><path fill="#37474F" d="M41.915 169.867c-.52.043-.656 2.538-.934 5.04-.3 2.688-1.112 4.192-1.369 5.996-.35 2.509-.164 3.635.713 5.147.877 1.511 4.74 2.994 6.266.805 1.24-1.782 1.276-3.749 1.14-6.252-.135-2.502-.256-4.405-.17-6.373s.2-3.707-.25-3.907c-.035.271-.064.628-.1.899-.035.271-.07 1.226-.363 1.233a4 4 0 0 1 0-.713.85.85 0 0 0-.143-.606 1 1 0 0 0-.584-.249 13 13 0 0 0-1.554-.221 7 7 0 0 0-.785 0 9 9 0 0 0-1.368.071.44.44 0 0 0-.278.257 1 1 0 0 0 0 .285q0 .26-.064.513c0 .078-.072.171-.143.15s-.086-.086-.086-.15c0-.299 0-.52.043-.877v-.549c0-.164.014-.342.029-.499"/><path fill="#000" d="M41.53 181.507a.185.185 0 0 0 .164.2.185.185 0 1 0 0-.364.19.19 0 0 0-.164.164M41.694 179.747a.2.2 0 0 0 .02.107.186.186 0 0 0 .182.099.185.185 0 0 0 .16-.132.185.185 0 0 0-.163-.238.17.17 0 0 0-.135.04.18.18 0 0 0-.064.124M41.844 178.137a.185.185 0 1 0 .363.036.185.185 0 0 0-.164-.2.18.18 0 0 0-.133.042.18.18 0 0 0-.066.122M41.993 176.526a.188.188 0 0 0 .096.184.186.186 0 1 0-.03-.307.2.2 0 0 0-.066.123M46.121 176.739a.18.18 0 0 0 .04.135.2.2 0 0 0 .055.045.2.2 0 0 0 .069.019.184.184 0 0 0 .036-.363.2.2 0 0 0-.134.041.2.2 0 0 0-.066.123M45.978 178.365a.185.185 0 0 0 .04.135.2.2 0 0 0 .055.045.188.188 0 0 0 .202-.022.2.2 0 0 0 .067-.123.185.185 0 0 0-.164-.199.173.173 0 0 0-.135.039.2.2 0 0 0-.045.056.2.2 0 0 0-.02.069M45.821 180.006a.18.18 0 0 0 .172.192.178.178 0 1 0 0-.356.185.185 0 0 0-.172.164M45.665 181.738a.185.185 0 0 0 .163.2.19.19 0 0 0 .184-.096.18.18 0 0 0-.02-.206.2.2 0 0 0-.09-.06.184.184 0 0 0-.238.162M44.132 182.572l1.304-12.098-.67-.007z" opacity=".15"/><path fill="#263238" d="M41.708 181.615a8.2 8.2 0 0 1 4.105.218.09.09 0 0 0 .087-.054.086.086 0 0 0-.043-.121 8.27 8.27 0 0 0-4.192-.221.093.093 0 0 0-.071.107.08.08 0 0 0 .04.063.083.083 0 0 0 .074.008M41.844 179.883h.05c.92-.442 3.13-.221 4.049.214q.036.015.072.004a.1.1 0 0 0 .056-.047.093.093 0 0 0-.043-.121c-.97-.456-3.25-.713-4.213-.221a.09.09 0 0 0-.043.128.086.086 0 0 0 .071.043M42.022 178.251h.043c.92-.442 3.129-.221 4.056.221a.1.1 0 0 0 .069.003.1.1 0 0 0 .052-.046.1.1 0 0 0 .004-.073.1.1 0 0 0-.047-.056c-.962-.456-3.243-.677-4.213-.213a.084.084 0 0 0-.053.086.1.1 0 0 0 .01.035q.013.02.034.031.022.012.045.012M42.172 176.633h.042c.92-.442 3.13-.221 4.057.214q.016.01.034.011a.09.09 0 0 0 .087-.054.09.09 0 0 0-.043-.121c-.962-.456-3.244-.713-4.213-.214a.1.1 0 0 0-.042.034.1.1 0 0 0-.015.052.09.09 0 0 0 .057.085zM43.476 109.4c-1.27 15.249-1.733 36.229-1.733 36.229-.114 1.155-1.233 4.178-1.39 11.143-.135 6.059.328 17.344.328 17.344s3.686 1.989 7.13.87c0 0 3.663-18.728 4.99-25.928 1.425-8.02 2.744-18.656 2.744-18.656l.763 14.564s-.25 4.349-.129 7.386c.136 3.564 1.569 18.585 1.569 18.585s4.598 2.716 8.177 0c0 0 1.304-23.19 1.425-27.446.229-8.341 0-24.616-.228-35.395z"/><path fill="#000" d="M51.111 126.604q-.42 5.481-.941 10.964c-.171 1.825-.35 3.657-.542 5.475l-.278 2.737-.142 1.369c-.05.456-.136.912-.2 1.362-.563 3.628-1.426 10.208-2.039 13.822a430 430 0 0 1-1.982 10.829q.657-5.468 1.426-10.907c.528-3.629 1.34-10.209 1.918-13.83.064-.456.157-.905.206-1.362l.15-1.361.314-2.731c.214-1.825.428-3.642.656-5.46q.741-5.454 1.454-10.907M64.891 124.805c.37 3.414.563 6.843.713 10.265s.257 6.865.114 10.294c-.142 3.429-.214 9.168-.356 12.597a448 448 0 0 1-.528 10.273 412 412 0 0 1 0-10.287c.036-3.422.121-9.168.207-12.59l.071-2.573v-2.56l-.043-5.139-.07-5.14c-.008-1.711-.058-3.422-.108-5.14M55.51 130.401l1.532-8.348s4.163-.584 6.302-2.481c0 0-1.383 2.51-5.31 3.479l-1.52 7.379-.242 14.535z"/><path fill="#FFA8A7" d="M87.304 93.93c-.912.77-1.846 1.96-3.393 3.329s-3.885 3.757-6.16 5.218c-2.273 1.462-3.4 2.068-6.415-.82a80.6 80.6 0 0 1-7.614-8.882l-.37-11.086c2.473.642 3.92 1.897 5.51 4.15 3.008 4.234 5.033 6.972 6.78 9.417 0 0 6.686-4.278 7.549-4.955a3.62 3.62 0 0 0 1.319-2.003q.25-1.003.62-1.968c.25-.712.35-.94.635-1.796s.47-2.288.556-2.61c.085-.32.713-.349 1.197.5.238.532.331 1.117.271 1.696 0 .52-.135 1.155 0 1.234.136.078.884-.328 1.611-.535s1.376-.556 2.203-.35a.97.97 0 0 1 .713 1.255c-.09.207-.233.386-.413.52a1.02 1.02 0 0 1 .798.207 1.12 1.12 0 0 1 .078 1.426.656.656 0 0 1 .656.542c.107.478.079.963-.399 1.176 0 0 .406.079.442.307a1.18 1.18 0 0 1-.335 1.09c-.43.214-.897.345-1.376.386 0 0-.064.178-.513.434q-.72.513-1.512.906a9.7 9.7 0 0 0-2.438 1.212"/><path fill="#F28F8F" d="M90.662 90.33q.322-.071.613-.228c.186-.071.385-.121.585-.178.406-.1.813-.2 1.219-.314q-.629.063-1.248.178a3.3 3.3 0 0 0-.62.164 2.3 2.3 0 0 1-.563.193 1.3 1.3 0 0 1-.57-.121 1.3 1.3 0 0 1-.507-.278.8.8 0 0 1-.128-.257.35.35 0 0 1 .043-.264c.09-.116.215-.2.356-.242q.214.06.435.064c.248-.022.49-.09.713-.2l.628-.3c.413-.213.827-.42 1.226-.655-.435.164-.856.342-1.283.52a4.5 4.5 0 0 1-1.27.457 1.9 1.9 0 0 1-.641-.121 3 3 0 0 1-.599-.307.54.54 0 0 1-.3-.52.5.5 0 0 1 .157-.321l.157-.036c.257-.05.528-.071.792-.121.27-.054.532-.145.777-.271a7 7 0 0 0 1.333-.92 7 7 0 0 1-.677.428c-.236.128-.47.264-.713.37q-.36.164-.749.236c-.257.043-.527.057-.798.107l-.385.085c-.129 0-.171 0-.243-.12a.71.71 0 0 1 .129-.67 2.5 2.5 0 0 1 1.261-.885q.056-.172.157-.32.109-.15.236-.286a2 2 0 0 0-.264.264 1.1 1.1 0 0 0-.193.307 2.33 2.33 0 0 0-1.354.862 1.2 1.2 0 0 0-.193.385.62.62 0 0 0 .043.45c.036.075.093.14.164.185h.036a2.96 2.96 0 0 1-1.24 3.72 3.5 3.5 0 0 0 1.34-.969c.305-.342.525-.753.641-1.197l.157.214a.6.6 0 0 0 0 .106 1 1 0 0 0 .121.314c.154.166.348.289.563.357q.19.083.392.128a.34.34 0 0 0-.05.171.5.5 0 0 0 .086.264q.16.216.364.392l.22.15q.121.066.257.092.26.033.52 0l-.484-.15a1 1 0 0 1-.207-.1 1 1 0 0 1-.192-.149q-.195-.15-.364-.328a.42.42 0 0 1-.114-.35z"/><path fill="#F0F0F0" d="M61.869 80.656c3.158.314 4.42.963 6.808 4.363s4.049 5.874 4.861 6.858c.942 1.134 2.645 3.037 2.645 3.037l-.541.328a9.66 9.66 0 0 0-4.92 5.781c-.356.293-.89 0-2.359-1.632-1.682-1.896-7.692-8.918-7.692-8.918z"/><path fill="#E0E0E0" d="M76.554 94.68c-.235 0-.527-.229-.756-.486a.713.713 0 0 0-.97-.128c-1.026.677-3.093 2.239-3.963 4.135-1.183 2.559-.812 2.816-.812 2.816s1.04 2.053 2.723 2.68 2.046 0 2.046 0a3.4 3.4 0 0 1-.998-.256s-.727-5.454 2.73-8.762"/><path fill="#E6E6E6" d="M42.856 83.13s-2.63 2.14-1.426 7.529a77 77 0 0 1 1.654 10.6c.192 2.852-.136 12.326-.136 12.326 4.278 5.104 22.1 3.821 24.31-.813 0 0 .278-18.663-1.326-25.058-.913-3.621-2.716-6.01-4.092-7.036l-5.532-.534-5.51-.072z"/><path fill="#37474F" d="M48.702 64.297a2.69 2.69 0 0 0-1.997 1.547c-.399.713-.712 2.139.286 6.045a15.7 15.7 0 0 0 1.803 4.349c.238.439.636.769 1.112.92v-3.009l-.071-2.096a8.7 8.7 0 0 0 1.554-3.322c.178-.91.12-1.85-.171-2.73z"/><path fill="#37474F" d="M48.26 64.388c.32-1.682 2.509-3.664 6.65-3.806 3.394-.114 5.355 1.083 6.495 3.087 1.14 2.003.321 4.54.321 4.54l-10.615-.89z"/><path fill="#E0E0E0" d="M49.386 64.908a2.33 2.33 0 0 1-1.297 1.875 2.66 2.66 0 0 0-1.348 2.21 2.6 2.6 0 0 1 1.426-1.654c.47-.25.908-.556 1.305-.912 0 0-.1.784-1.426 1.789a2.8 2.8 0 0 0-.984 2.623 2.45 2.45 0 0 1 .898-1.903c.977-.834 2.175-1.212 2.139-2.46a2.14 2.14 0 0 0-.713-1.568"/><path fill="#FFA8A7" d="M47.112 74.954c1.169.634 2.281-.428 2.281-.428l.121 6.202s.1 1.205 1.99 2.289c2.672 1.54 3.835 1.917 4.99 3.564.92-2.652 1.96-4.149.27-6.21v-1.425a9.6 9.6 0 0 0 1.875 0c1.383-.192 2.267-1.269 2.71-2.759.795-3.115.86-6.372.192-9.517a3.2 3.2 0 0 0-1.112-1.868c-2.688-2.138-5.775-.67-8.099.186-.945.313-1.97.29-2.901-.064.784.905 1.162 1.767 1.112 6.045-.151.29-.357.55-.606.763-.513.427-.906-.713-1.319-1.162a1.74 1.74 0 0 0-2.716.57 2.85 2.85 0 0 0 1.212 3.814"/><path fill="#37474F" d="m54.74 68.295-1.533.627a.877.877 0 0 1 .463-1.112.81.81 0 0 1 1.07.485M60.528 68.48l-1.604-.499a.806.806 0 0 1 1.02-.57.89.89 0 0 1 .584 1.07"/><path fill="#263238" d="M53.835 69.963a.714.714 0 1 0 1.356.445.714.714 0 0 0-1.357-.445M58.875 69.778a.713.713 0 1 0 .663-.713.612.612 0 0 0-.663.713"/><path fill="#F28F8F" d="m56.344 68.473.47 4.341 2.296-.798a10.2 10.2 0 0 0-2.766-3.543"/><path fill="#37474F" d="M50.462 70.598c.243 2.944 1.262 3.115 2.317 3.25 1.426.179 2.06-.59 4.541-.676a5.65 5.65 0 0 1 2.852.713c.641.242 1.155.142 1.376-.428.299-1.04.424-2.121.37-3.201a24 24 0 0 1 .043 4.833 5.23 5.23 0 0 1-1.376 3.272c-1.026.934-3.236 1.376-6.03.856s-3.886-1.64-4.278-2.61c-1.19-3.143-.813-4.662-1.198-5.253s1.383-.756 1.383-.756"/><path fill="#FFA8A7" d="M57.107 73.727c-1.426 0-2.004.3-2.004 1.604s0 1.86.563 1.918c.564.057 1.091.085 1.098-.314a1.54 1.54 0 0 0-.12-.884c-.229-.257-.15-.3.47-.307s.62.1.442.3c-.108.286-.14.596-.093.898 0 .3.078.414.97.3.89-.115.627-.713.57-1.918-.05-.806-.292-1.618-1.897-1.597"/><path fill="#B16668" d="m55.83 74.127 2.339.4a1.163 1.163 0 0 1-1.348 1.004 1.233 1.233 0 0 1-.99-1.404"/><path fill="#F28F8F" d="M56.101 74.49q-.142-.015-.285 0a1.21 1.21 0 0 0 .984 1.027 1 1 0 0 0 .385 0 1.1 1.1 0 0 0-1.084-1.026"/><path fill="#F7921E" d="M57.263 86.396s1.027-1.94 1.034-2.702l-1.226-1.276-.406 3.165z"/><path fill="#000" d="M57.263 86.396s1.027-1.94 1.034-2.702l-1.226-1.276-.406 3.165z" opacity=".2"/><path fill="#F7921E" d="m55.574 85.698-2.096-1.44-1.761 1.169 3.222 1.668z"/><path fill="#000" d="m55.574 85.698-2.096-1.44-1.761 1.169 3.222 1.668z" opacity=".2"/><path fill="#F7921E" d="M54.96 105.215c.207-6.78.842-15.413.714-17.066l1.154-.1a63 63 0 0 1 3.829 17.002c.043 1.54-1.426 4.891-2.495 4.926s-3.23-3.764-3.201-4.762"/><path fill="#fff" d="M54.96 105.215c.207-6.78.842-15.413.714-17.066l1.154-.1a63 63 0 0 1 3.829 17.002c.043 1.54-1.426 4.891-2.495 4.926s-3.23-3.764-3.201-4.762" opacity=".1"/><path fill="#000" d="M56.942 88.284q-.054-.118-.1-.235l-1.154.1v.52c.449.014.89-.122 1.254-.385" opacity=".5"/><path fill="#F7921E" d="M55.552 85.54a5 5 0 0 1 1.084-.035c.27.249.483.553.627.89a4 4 0 0 1-.42 1.655 1.43 1.43 0 0 1-1.155.1 2.4 2.4 0 0 1-.82-1.113 2.14 2.14 0 0 1 .684-1.497"/><path fill="#fff" d="M55.552 85.54a5 5 0 0 1 1.084-.035c.27.249.483.553.627.89a4 4 0 0 1-.42 1.655 1.43 1.43 0 0 1-1.155.1 2.4 2.4 0 0 1-.82-1.113 2.14 2.14 0 0 1 .684-1.497" opacity=".1"/><path fill="#455A64" d="M43.875 82.74c1.383 2.75 1.818 6.6 1.298 10.265a9.5 9.5 0 0 1-2.51 5.468s.392 4.049.357 5.168-.214 11.043-.214 11.043 4.527 3.97 14.97 3.379l1.662-5.155 3.158 4.207a11 11 0 0 0 4.99-1.925s.085-14.379-.171-18.157c-.257-3.779-1.968-12.612-5.582-16.354l-3.522-.335a25 25 0 0 1 1.12 7.613 36.7 36.7 0 0 1-.842 7.586s-4.605-4.898-6.359-7.493-5.125-6.566-5.125-6.566z"/><path fill="#37474F" d="M58.625 95.541a7.4 7.4 0 0 1-.584.998 5.8 5.8 0 0 0-.614.948.9.9 0 0 0-.05.506v.578l.065 1.155c.078 1.532.128 3.065.178 4.605s.078 3.065.093 4.605v1.148q-.016.267.05.527.106.254.256.485.658.95 1.426 1.811a14 14 0 0 1-1.59-1.682 3 3 0 0 1-.314-.521 2.1 2.1 0 0 1-.1-.606l-.078-1.155c-.093-1.532-.15-3.065-.192-4.605s-.079-3.065-.079-4.605v-1.725a2 2 0 0 1 0-.307.9.9 0 0 1 .093-.306q.32-.495.713-.934.388-.44.727-.92"/><path fill="#F7921E" d="M51.952 95.093a1.696 1.696 0 1 1-1.697-1.697 1.69 1.69 0 0 1 1.697 1.697"/><path fill="#FAFAFA" d="M50.256 96.967a1.875 1.875 0 1 1 0-3.75 1.875 1.875 0 0 1 0 3.75m0-3.394a1.518 1.518 0 1 0 1.518 1.519 1.525 1.525 0 0 0-1.519-1.519"/><path fill="#F5F5F5" d="M55.574 85.541c-.036 0-.086.086-.129.086-.791-.442-.92-.585-1.133-.528-.407.107-1.376 1.775-1.618 2.317s-.2.535-.934 0a13.2 13.2 0 0 1-3.322-3.28 9.9 9.9 0 0 1-1.298-2.68s.863-1.155 1.112-1.597c.492-.855.713-1.212 1.22-1.126v.513c.07.749.869 1.533 1.91 2.453s2.723 1.803 3.115 2.195a7.8 7.8 0 0 1 1.077 1.647M59.374 86.225c-.122.3-1.063-2.103-1.54-2.06-.229 0-.756.655-1.198 1.34h-.32a7.3 7.3 0 0 0 .512-1.818q.057-1.66-.085-3.315v-.927h.977q.373.44.641.949c.477 1.013.813 2.088.998 3.193.153.872.158 1.764.014 2.638"/><path fill="#FFA8A7" d="m51.34 120.329-.058-.042c-.763-.485-1.483-1.055-2.224-1.576a5.3 5.3 0 0 0-.905-.485c-.3-.121-.62-.171-.934-.27-.314-.1-.656-.286-.998-.414a2.14 2.14 0 0 1-.991-.649 6 6 0 0 1-.713-1.083 7 7 0 0 1-.4-.948c-1.653-.079-3.072.934-4.277 3.058q.28.493.506.87c1.262 2.046 1.127 4.056 3.13 6.18a6.2 6.2 0 0 0 4.07-2.324c.294-.412.534-.86.714-1.333 0 0-.2-.335-.214-.399a.2.2 0 0 1 .178-.221c.272.012.536.098.763.25.263.174.555.302.862.377.265.036.534.036.799 0a1.9 1.9 0 0 0 1.005-.306c.278-.257-.078-.535-.314-.685"/><path fill="#FFA8A7" d="M33.653 109.037c1.46 2.36 4.619 6.238 6.252 8.883 1.632 2.645 4.277-3.058 4.277-3.058-1.34-3.829-2.46-7.892-2.46-7.892s-2.93-1.79-5.631-1.034a2.946 2.946 0 0 0-2.438 3.101"/><path fill="#F0F0F0" d="M33.232 100.44c.649-2.51 2.965-10.251 3.728-12.49 1.012-2.973 2.139-3.757 5.896-4.82 3.08 3.216 1.803 11.25 1.803 11.25s-2.68 8.441-2.815 9.011c-.136.57 0 1.012-.57 1.476-1.327-.635-7.721-1.062-8.784.256-.99-1.24.3-2.987.742-4.683"/><path fill="#E0E0E0" d="M41.273 104.896c.35.192.079.52.257 1.169.178.648.677.934.363 1.183a11.4 11.4 0 0 0-6.879.449c-1.604.592-1.362 1.369-1.362 1.369-.499.192-.926-.549-.983-1.426a14.3 14.3 0 0 1-.179-2.459c.321-1.255 5.204-1.59 8.783-.285"/><path fill="#F28F8F" d="M43.54 124.97a6.2 6.2 0 0 0 4.007-2.324c.292-.39.532-.817.712-1.269a5.7 5.7 0 0 1-1.468 1.739 3.23 3.23 0 0 1-3.008.941 3.73 3.73 0 0 1-1.818-1.518 8 8 0 0 0 1.575 2.431"/><path fill="#263238" d="M61.241 65.173h-.05a15.3 15.3 0 0 0-9.602 2.025q-.148.076-.285.163l-.079.05a9.4 9.4 0 0 0-3.115 2.852 2.02 2.02 0 0 0-1.583.093c-.05-.172-.306-1.59-.328-1.733-.406-2.851.371-6.637 5.226-8.255 4.334-1.426 8.333-.128 9.267 2.545.207.577.4 1.654.55 2.26"/><path fill="#37474F" d="M51.111 66.775a9.1 9.1 0 0 1 3.344-3.457c1.59-1.005 4.99-1.305 6.494-1.426 2.66-.157 3.337.364 3.4.713 0 .093.086.52.108.62a.4.4 0 0 1-.036.257c-.357.634-2.424 1.839-2.424 1.839-3.393-.67-7.507.178-10.779 2.017z"/><path fill="#263238" d="M51.225 67.405a17.54 17.54 0 0 1 10.78-2.018s2.067-1.205 2.423-1.84c.185-.348-.071-1.19-3.365-.997-1.525.092-4.905.392-6.494 1.425a9.1 9.1 0 0 0-3.344 3.43"/><path fill="#F7921E" d="M127.605 181.117a10.77 10.77 0 0 0-3.964-3.662c-6.484-3.745-16.987-3.745-23.47 0a10.7 10.7 0 0 0-3.96 3.662h-.896v3.393c.121 2.354 1.732 4.691 4.845 6.495 6.483 3.739 16.992 3.739 23.47 0 3.118-1.804 4.74-4.141 4.861-6.495v-3.393z"/><path fill="#000" d="M127.605 181.117a10.77 10.77 0 0 0-3.964-3.662c-6.484-3.745-16.987-3.745-23.47 0a10.7 10.7 0 0 0-3.96 3.662h-.896v3.393c.121 2.354 1.732 4.691 4.845 6.495 6.483 3.739 16.992 3.739 23.47 0 3.118-1.804 4.74-4.141 4.861-6.495v-3.393z" opacity=".25"/><path fill="#000" d="M111.906 174.65c-4.246 0-8.491.941-11.735 2.81a10.7 10.7 0 0 0-3.96 3.663h-.896v3.393c.121 2.353 1.732 4.69 4.845 6.494 3.244 1.87 7.489 2.804 11.735 2.804z" opacity=".1"/><path fill="#000" d="M102.843 176.207q-1.386.519-2.672 1.254a10.7 10.7 0 0 0-3.96 3.662h-.896v3.393c.121 2.354 1.732 4.691 4.845 6.494q1.286.732 2.672 1.249z" opacity=".1"/><path fill="#F7921E" d="M120.968 176.207c.923.345 1.817.765 2.673 1.254a10.77 10.77 0 0 1 3.964 3.662h.897v3.393c-.121 2.354-1.744 4.691-4.861 6.494a18 18 0 0 1-2.673 1.249z" opacity=".5"/><path fill="#F7921E" d="M100.171 174.353c-6.478 3.739-6.478 9.805 0 13.544 5.675 3.299 14.424 3.684 20.863 1.232l.253-.099q1.215-.481 2.348-1.133c5.406-3.118 6.302-7.853 2.689-11.51a12.7 12.7 0 0 0-2.689-2.029c-6.472-3.75-16.981-3.75-23.464-.005"/><path fill="#000" d="M100.171 174.353c-6.478 3.739-6.478 9.805 0 13.544 5.675 3.299 14.424 3.684 20.863 1.232l.253-.099q1.215-.481 2.348-1.133c5.406-3.118 6.302-7.853 2.689-11.51a12.7 12.7 0 0 0-2.689-2.029c-6.472-3.75-16.981-3.75-23.464-.005" opacity=".2"/><path fill="#F5F5F5" d="M126.33 176.389a7.24 7.24 0 0 1 1.737 5.911c-.55 3.3-5.185 6.049-6.775 6.731q1.216-.48 2.349-1.133c5.405-3.118 6.301-7.852 2.689-11.509M97.482 185.863a7.24 7.24 0 0 1-1.738-5.906c.55-3.299 5.186-6.049 6.775-6.73q-1.213.475-2.343 1.127c-5.405 3.118-6.302 7.863-2.694 11.509" opacity=".5"/><path fill="#F7921E" d="M122.821 187.408c6.049-3.475 6.049-9.111 0-12.592s-15.793-3.476-21.814 0-6.05 9.117 0 12.592c6.049 3.476 15.787 3.481 21.814 0"/><path fill="#fff" d="M122.821 187.408c6.049-3.475 6.049-9.111 0-12.592s-15.793-3.476-21.814 0-6.05 9.117 0 12.592c6.049 3.476 15.787 3.481 21.814 0" opacity=".4"/><path fill="#fff" d="M126.638 183.773c1.237-2.294.835-4.818-1.21-6.962q-.607-.627-1.309-1.144-.6-.448-1.248-.825-.369-.214-.759-.412c.638 1.055.407 2.199-3.228 2.397-7.11.418 1.897 7.209 1.897 7.209s4.586-2.21 5.857-.263" opacity=".2"/><path fill="#fff" d="M125.906 181.893c1.067-.121 1.595-1.215 1.177-2.453s-1.617-2.133-2.684-2.018c-1.066.116-1.594 1.221-1.176 2.453s1.616 2.139 2.683 2.018" opacity=".5"/><path fill="#F7921E" d="M114.661 187.556c-.352-2.639-11.895-9.948-11.895-9.948s-2.557-1.028-1.71-2.815a13 13 0 0 0-1.98 1.391c-3.436 2.975-3.442 6.879 0 9.86.232.203.485.401.748.594q.551.404 1.144.742a15 15 0 0 0 2.26 1.089c.352.137.715.269 1.1.39a22.5 22.5 0 0 0 3.442.831l.776.11c2.544.325 5.123.28 7.654-.132 0 0-1.869-.374-1.539-2.112"/><path fill="#fff" d="M114.661 187.556c-.352-2.639-11.895-9.948-11.895-9.948s-2.557-1.028-1.71-2.815a13 13 0 0 0-1.98 1.391c-3.436 2.975-3.442 6.879 0 9.86.232.203.485.401.748.594q.551.404 1.144.742a15 15 0 0 0 2.26 1.089c.352.137.715.269 1.1.39a22.5 22.5 0 0 0 3.442.831l.776.11c2.544.325 5.123.28 7.654-.132 0 0-1.869-.374-1.539-2.112" opacity=".3"/><path fill="#F7921E" d="M103.784 176.421c-4.306 2.485-4.482 6.45-.55 9.057.17.11.346.22.55.324 4.487 2.59 11.762 2.59 16.249 0s4.487-6.791 0-9.381a18 18 0 0 0-.55-.303c-4.525-2.282-11.377-2.183-15.699.303"/><path fill="#000" d="M103.784 176.421c-4.306 2.485-4.482 6.45-.55 9.057.17.11.346.22.55.324 4.487 2.59 11.762 2.59 16.249 0s4.487-6.791 0-9.381a18 18 0 0 0-.55-.303c-4.525-2.282-11.377-2.183-15.699.303" opacity=".2"/><path fill="#F7921E" d="M104.147 176.629c-4.29 2.475-4.29 6.489 0 8.969 4.289 2.48 11.245 2.475 15.534 0s4.29-6.494 0-8.969c-4.289-2.474-11.245-2.48-15.534 0"/><path fill="#000" d="M104.147 176.629c-4.29 2.475-4.29 6.489 0 8.969 4.289 2.48 11.245 2.475 15.534 0s4.29-6.494 0-8.969c-4.289-2.474-11.245-2.48-15.534 0" opacity=".5"/><path fill="#F7921E" d="M104.147 178.395c4.289-2.475 11.245-2.475 15.534 0 1.755 1.012 2.788 2.282 3.107 3.602-.319 1.314-1.352 2.584-3.107 3.602-4.289 2.474-11.245 2.474-15.534 0-1.755-1.018-2.788-2.288-3.113-3.602.325-1.32 1.358-2.59 3.113-3.602"/><path fill="#000" d="M104.147 178.395c4.289-2.475 11.245-2.475 15.534 0 1.755 1.012 2.788 2.282 3.107 3.602-.319 1.314-1.352 2.584-3.107 3.602-4.289 2.474-11.245 2.474-15.534 0-1.755-1.018-2.788-2.288-3.113-3.602.325-1.32 1.358-2.59 3.113-3.602" opacity=".35"/><path fill="#F7921E" d="M118.829 183.025v-1.314c0-.55-.369-1.056-1.171-1.529h-.028a5.63 5.63 0 0 0-4.355-.396c-.55.143-1.1.336-1.65.506q-.857.321-1.743.55a3.3 3.3 0 0 1-.83.083 1.9 1.9 0 0 1-.688-.182l.055-.038.176-.11q.22-.13.457-.226a3.2 3.2 0 0 1 2.447-.055l1.407-1.424v-1.303a6.7 6.7 0 0 0-3.849-.138 7.7 7.7 0 0 0-1.221.424l-1.38-.842-1.683.968v1.303l.578.336a1.4 1.4 0 0 0-.248.759v1.303c0 .55.385 1.056 1.199 1.523a4.95 4.95 0 0 0 2.321.671h.462a9 9 0 0 0 2.496-.55l.484-.165-1.419 1.419v1.309a6.94 6.94 0 0 0 5.433-.237l1.392.803 1.633-.957v-1.303l-.55-.33c.174-.252.27-.551.275-.858m-3.541-.115a4 4 0 0 1-.391.198 3.63 3.63 0 0 1-2.749.038c1.314-.462 2.414-.869 3.349-.374q-.1.075-.209.138"/><path fill="#F7921E" d="M113.275 179.77c-.55.143-1.1.335-1.65.506q-.857.322-1.743.55a3.2 3.2 0 0 1-.83.082 1.75 1.75 0 0 1-.798-.242c-.55-.313-.621-.77.165-1.287l.176-.104q.22-.13.457-.226a3.2 3.2 0 0 1 2.447-.055l1.407-1.424a6.7 6.7 0 0 0-3.849-.137 7.7 7.7 0 0 0-1.221.423l-1.38-.825-1.683.968 1.392.808c-1.414 1.073-1.441 2.2.148 3.102a4.95 4.95 0 0 0 2.321.671h.462a9 9 0 0 0 2.496-.55c1.611-.55 2.92-1.171 4.003-.55.732.418.55.946-.269 1.408a4 4 0 0 1-.39.198 3.62 3.62 0 0 1-2.799 0l-1.48 1.479a6.93 6.93 0 0 0 5.433-.231l1.392.803 1.677-.974-1.386-.802c1.397-1.1 1.556-2.26-.077-3.217h-.027a5.627 5.627 0 0 0-4.394-.374"/><path fill="#fff" d="M113.275 179.77c-.55.143-1.1.335-1.65.506q-.857.322-1.743.55a3.2 3.2 0 0 1-.83.082 1.75 1.75 0 0 1-.798-.242c-.55-.313-.621-.77.165-1.287l.176-.104q.22-.13.457-.226a3.2 3.2 0 0 1 2.447-.055l1.407-1.424a6.7 6.7 0 0 0-3.849-.137 7.7 7.7 0 0 0-1.221.423l-1.38-.825-1.683.968 1.392.808c-1.414 1.073-1.441 2.2.148 3.102a4.95 4.95 0 0 0 2.321.671h.462a9 9 0 0 0 2.496-.55c1.611-.55 2.92-1.171 4.003-.55.732.418.55.946-.269 1.408a4 4 0 0 1-.39.198 3.62 3.62 0 0 1-2.799 0l-1.48 1.479a6.93 6.93 0 0 0 5.433-.231l1.392.803 1.677-.974-1.386-.802c1.397-1.1 1.556-2.26-.077-3.217h-.027a5.627 5.627 0 0 0-4.394-.374" opacity=".3"/><path fill="#F5F5F5" d="m104.746 177.999 1.699-.764 1.391.61-1.407-.814zM108.865 177.471a7.9 7.9 0 0 1 3.613.126l-.974 1.381 1.408-1.419a6.7 6.7 0 0 0-4.047-.088M117.63 180.165h.028c1.649.957 1.473 2.134.077 3.217 1.237-1.347 1.011-2.288-.336-3.068a6.34 6.34 0 0 0-4.124-.55 5.63 5.63 0 0 1 4.355.401M117.735 183.398l1.061.82-1.353.957 1.677-.974zM114.897 183.107a3.6 3.6 0 0 1-2.678.231l-1.6 1.265 1.479-1.479a3.62 3.62 0 0 0 2.799-.017M109.888 180.815a2.202 2.202 0 0 1-2.013-.187c-.484-.418-.171-.868.55-1.259-.787.517-.704.973-.165 1.287.242.144.516.227.797.242.279.009.559-.019.831-.083M106.126 178.818c-.121.105-1.133 1.045-.687 1.991s1.957 1.65 3.156 1.782a4.95 4.95 0 0 1-2.32-.671c-1.59-.919-1.562-2.029-.149-3.102" opacity=".45"/><path fill="#F7921E" d="M130.746 176.349a10.8 10.8 0 0 0-3.965-3.668c-6.484-3.739-16.987-3.739-23.47 0a10.7 10.7 0 0 0-3.96 3.668h-.896v3.388c.116 2.359 1.733 4.696 4.845 6.494 6.483 3.745 16.986 3.745 23.47 0 3.112-1.798 4.74-4.135 4.861-6.494v-3.388z"/><path fill="#000" d="M130.746 176.349a10.8 10.8 0 0 0-3.965-3.668c-6.484-3.739-16.987-3.739-23.47 0a10.7 10.7 0 0 0-3.96 3.668h-.896v3.388c.116 2.359 1.733 4.696 4.845 6.494 6.483 3.745 16.986 3.745 23.47 0 3.112-1.798 4.74-4.135 4.861-6.494v-3.388z" opacity=".25"/><path fill="#000" d="M115.046 169.877c-4.245 0-8.491.935-11.735 2.804a10.7 10.7 0 0 0-3.96 3.668h-.896v3.388c.116 2.359 1.733 4.696 4.845 6.494 3.244 1.87 7.49 2.805 11.735 2.805z" opacity=".1"/><path fill="#000" d="M105.983 171.434c-.922.343-1.816.761-2.672 1.248a10.7 10.7 0 0 0-3.96 3.668h-.896v3.387c.116 2.359 1.733 4.696 4.845 6.494q1.286.735 2.672 1.254z" opacity=".1"/><path fill="#F7921E" d="M124.108 171.434c.923.343 1.817.761 2.673 1.248a10.77 10.77 0 0 1 3.964 3.668h.897v3.387c-.121 2.359-1.749 4.696-4.861 6.494-.856.489-1.75.909-2.673 1.254z" opacity=".5"/><path fill="#F7921E" d="M103.311 169.57c-6.478 3.745-6.478 9.81 0 13.549 5.669 3.3 14.424 3.685 20.863 1.227l.259-.099a18 18 0 0 0 2.348-1.128c5.4-3.117 6.302-7.858 2.689-11.514a12.9 12.9 0 0 0-2.667-2.035c-6.506-3.734-17.009-3.734-23.492 0"/><path fill="#000" d="M103.311 169.57c-6.478 3.745-6.478 9.81 0 13.549 5.669 3.3 14.424 3.685 20.863 1.227l.259-.099a18 18 0 0 0 2.348-1.128c5.4-3.117 6.302-7.858 2.689-11.514a12.9 12.9 0 0 0-2.667-2.035c-6.506-3.734-17.009-3.734-23.492 0" opacity=".2"/><path fill="#F5F5F5" d="M129.47 171.609a7.27 7.27 0 0 1 1.732 5.912c-.55 3.299-5.186 6.049-6.775 6.731a18 18 0 0 0 2.348-1.128c5.406-3.107 6.307-7.858 2.695-11.515M100.622 181.117a7.24 7.24 0 0 1-1.738-5.912c.578-3.299 5.186-6.049 6.775-6.73q-1.214.48-2.348 1.127c-5.4 3.096-6.302 7.83-2.689 11.515" opacity=".5"/><path fill="#F7921E" d="M125.961 182.635c6.022-3.475 6.022-9.117 0-12.593-6.021-3.475-15.793-3.481-21.814 0s-6.05 9.118 0 12.593 15.787 3.475 21.814 0"/><path fill="#fff" d="M125.961 182.635c6.022-3.475 6.022-9.117 0-12.593-6.021-3.475-15.793-3.481-21.814 0s-6.05 9.118 0 12.593 15.787 3.475 21.814 0" opacity=".4"/><path fill="#fff" d="M129.778 179.001c1.237-2.293.836-4.823-1.216-6.962a10 10 0 0 0-1.303-1.144q-.6-.448-1.248-.824a15 15 0 0 0-.759-.413c.638 1.056.401 2.2-3.228 2.398-7.11.412 1.897 7.209 1.897 7.209s4.586-2.211 5.857-.264" opacity=".2"/><path fill="#fff" d="M129.041 177.12c1.067-.121 1.6-1.221 1.182-2.452-.418-1.232-1.617-2.139-2.683-2.019-1.067.121-1.595 1.216-1.183 2.453.413 1.237 1.617 2.134 2.684 2.018" opacity=".5"/><path fill="#F7921E" d="M117.795 182.768c-.341-2.629-11.889-9.937-11.889-9.937s-2.557-1.028-1.71-2.815q-.636.366-1.232.797c-.269.192-.516.39-.753.594-3.431 2.975-3.437 6.885 0 9.86.231.203.484.401.748.599a13 13 0 0 0 1.144.742c.39.231.797.44 1.221.638a16.782 16.782 0 0 0 2.139.842c1.124.363 2.275.639 3.442.824q.385.066.775.116a28 28 0 0 0 3.443.214 26 26 0 0 0 4.212-.346s-1.881-.379-1.54-2.128"/><path fill="#fff" d="M117.795 182.768c-.341-2.629-11.889-9.937-11.889-9.937s-2.557-1.028-1.71-2.815q-.636.366-1.232.797c-.269.192-.516.39-.753.594-3.431 2.975-3.437 6.885 0 9.86.231.203.484.401.748.599a13 13 0 0 0 1.144.742c.39.231.797.44 1.221.638a16.782 16.782 0 0 0 2.139.842c1.124.363 2.275.639 3.442.824q.385.066.775.116a28 28 0 0 0 3.443.214 26 26 0 0 0 4.212-.346s-1.881-.379-1.54-2.128" opacity=".3"/><path fill="#F7921E" d="M106.918 171.648c-4.3 2.486-4.476 6.451-.55 9.057.165.11.341.22.55.325 4.487 2.59 11.763 2.59 16.25 0s4.487-6.792 0-9.382c-.182-.11-.374-.209-.55-.308-4.526-2.282-11.394-2.177-15.7.308"/><path fill="#000" d="M106.918 171.648c-4.3 2.486-4.476 6.451-.55 9.057.165.11.341.22.55.325 4.487 2.59 11.763 2.59 16.25 0s4.487-6.792 0-9.382c-.182-.11-.374-.209-.55-.308-4.526-2.282-11.394-2.177-15.7.308" opacity=".2"/><path fill="#F7921E" d="M115.051 182.681c6.068 0 10.987-2.839 10.987-6.341 0-3.501-4.919-6.34-10.987-6.34s-10.987 2.839-10.987 6.34 4.919 6.341 10.987 6.341"/><path fill="#000" d="M115.051 182.681c6.068 0 10.987-2.839 10.987-6.341 0-3.501-4.919-6.34-10.987-6.34s-10.987 2.839-10.987 6.34 4.919 6.341 10.987 6.341" opacity=".5"/><path fill="#F7921E" d="M107.287 173.623c4.289-2.474 11.245-2.474 15.534 0 1.754 1.012 2.788 2.283 3.107 3.602-.319 1.315-1.353 2.585-3.107 3.597-4.289 2.48-11.245 2.48-15.534 0-1.755-1.012-2.794-2.282-3.113-3.597.319-1.319 1.358-2.59 3.113-3.602"/><path fill="#000" d="M107.287 173.623c4.289-2.474 11.245-2.474 15.534 0 1.754 1.012 2.788 2.283 3.107 3.602-.319 1.315-1.353 2.585-3.107 3.597-4.289 2.48-11.245 2.48-15.534 0-1.755-1.012-2.794-2.282-3.113-3.597.319-1.319 1.358-2.59 3.113-3.602" opacity=".35"/><path fill="#F7921E" d="M121.969 178.247v-1.308c0-.55-.374-1.062-1.171-1.529h-.028a5.628 5.628 0 0 0-4.355-.402c-.578.143-1.127.33-1.65.501q-.856.325-1.743.55a3 3 0 0 1-.83.077 1.7 1.7 0 0 1-.688-.182l.055-.038.176-.105q.222-.128.457-.231a3.2 3.2 0 0 1 2.441-.055l1.408-1.418v-1.304a6.7 6.7 0 0 0-3.849-.143 8 8 0 0 0-1.221.424l-1.408-.809-1.683.968v1.276l.578.335a1.34 1.34 0 0 0-.248.759v1.298c0 .55.385 1.061 1.199 1.529.706.411 1.504.64 2.321.665h.462a9.4 9.4 0 0 0 2.496-.55l.484-.165-1.419 1.419v1.309a6.894 6.894 0 0 0 5.433-.237l1.392.803 1.677-.968v-1.303l-.578-.335c.179-.241.281-.531.292-.831m-3.547-.11a3.634 3.634 0 0 1-3.134.237c1.314-.468 2.414-.875 3.348-.374q-.103.074-.214.137"/><path fill="#F7921E" d="M116.415 174.993c-.578.143-1.127.33-1.65.5q-.856.325-1.743.55a3 3 0 0 1-.83.077 1.8 1.8 0 0 1-.798-.236c-.55-.314-.621-.77.165-1.287l.176-.105q.222-.127.457-.231a3.18 3.18 0 0 1 2.441-.055l1.408-1.418a6.7 6.7 0 0 0-3.849-.143 8 8 0 0 0-1.221.423l-1.408-.808-1.683.968 1.392.802c-1.414 1.073-1.441 2.2.148 3.107a4.9 4.9 0 0 0 2.315.682h.462a9.4 9.4 0 0 0 2.497-.55c1.611-.55 2.914-1.176 4.003-.55.726.424.55.952-.275 1.414q-.187.106-.385.192a3.61 3.61 0 0 1-2.804 0l-1.474 1.479a6.89 6.89 0 0 0 5.433-.236l1.391.803 1.677-.968-1.391-.803c1.402-1.1 1.562-2.26-.071-3.217h-.028a5.63 5.63 0 0 0-4.355-.39"/><path fill="#fff" d="M116.415 174.993c-.578.143-1.127.33-1.65.5q-.856.325-1.743.55a3 3 0 0 1-.83.077 1.8 1.8 0 0 1-.798-.236c-.55-.314-.621-.77.165-1.287l.176-.105q.222-.127.457-.231a3.18 3.18 0 0 1 2.441-.055l1.408-1.418a6.7 6.7 0 0 0-3.849-.143 8 8 0 0 0-1.221.423l-1.408-.808-1.683.968 1.392.802c-1.414 1.073-1.441 2.2.148 3.107a4.9 4.9 0 0 0 2.315.682h.462a9.4 9.4 0 0 0 2.497-.55c1.611-.55 2.914-1.176 4.003-.55.726.424.55.952-.275 1.414q-.187.106-.385.192a3.61 3.61 0 0 1-2.804 0l-1.474 1.479a6.89 6.89 0 0 0 5.433-.236l1.391.803 1.677-.968-1.391-.803c1.402-1.1 1.562-2.26-.071-3.217h-.028a5.63 5.63 0 0 0-4.355-.39" opacity=".3"/><path fill="#F5F5F5" d="m107.886 173.228 1.699-.77 1.391.61-1.407-.808zM112.005 172.699a7.85 7.85 0 0 1 3.612.121l-.978 1.386 1.413-1.419a6.73 6.73 0 0 0-4.047-.088M120.754 175.394h.027c1.65.956 1.474 2.133.072 3.216 1.242-1.352 1.017-2.293-.33-3.068a6.35 6.35 0 0 0-4.125-.55 5.63 5.63 0 0 1 4.356.402M120.869 178.627l1.067.819-1.353.952 1.677-.968zM118.037 178.33a3.6 3.6 0 0 1-2.683.237l-1.595 1.264 1.496-1.462a3.62 3.62 0 0 0 2.782-.039M113.055 176.042a2.206 2.206 0 0 1-2.013-.193c-.484-.417-.176-.863.55-1.253-.786.517-.704.973-.165 1.286.244.14.517.221.798.237a3 3 0 0 0 .83-.077M109.266 174.041c-.121.104-1.133 1.05-.687 1.991.445.94 1.958 1.649 3.156 1.781a4.9 4.9 0 0 1-2.32-.665c-1.589-.918-1.562-2.035-.149-3.107" opacity=".45"/><path fill="#F7921E" d="M126.973 170.767a10.65 10.65 0 0 0-3.965-3.668c-6.478-3.739-16.986-3.739-23.464 0a10.74 10.74 0 0 0-3.965 3.668h-.896v3.388c.12 2.359 1.732 4.696 4.85 6.494 6.478 3.739 16.986 3.739 23.464 0 3.118-1.798 4.746-4.135 4.861-6.494v-3.388z"/><path fill="#000" d="M126.973 170.767a10.65 10.65 0 0 0-3.965-3.668c-6.478-3.739-16.986-3.739-23.464 0a10.74 10.74 0 0 0-3.965 3.668h-.896v3.388c.12 2.359 1.732 4.696 4.85 6.494 6.478 3.739 16.986 3.739 23.464 0 3.118-1.798 4.746-4.135 4.861-6.494v-3.388z" opacity=".25"/><path fill="#000" d="M111.279 164.295c-4.245 0-8.496.935-11.735 2.804a10.74 10.74 0 0 0-3.965 3.668h-.896v3.388c.12 2.359 1.732 4.696 4.85 6.494 3.239 1.87 7.49 2.804 11.735 2.804z" opacity=".1"/><path fill="#000" d="M102.217 165.846q-1.387.519-2.673 1.253a10.74 10.74 0 0 0-3.965 3.668h-.896v3.388c.12 2.359 1.732 4.696 4.85 6.494.856.487 1.75.905 2.673 1.248z" opacity=".1"/><path fill="#F7921E" d="M120.341 165.846c.922.344 1.814.763 2.667 1.253a10.65 10.65 0 0 1 3.965 3.668h.896v3.388c-.115 2.359-1.743 4.696-4.861 6.494-.853.488-1.745.906-2.667 1.248z" opacity=".5"/><path fill="#F7921E" d="M99.544 163.992c-6.478 3.739-6.478 9.805 0 13.55 5.669 3.271 14.424 3.678 20.863 1.226l.259-.099a18 18 0 0 0 2.342-1.127c5.406-3.124 6.302-7.859 2.695-11.515a12.6 12.6 0 0 0-2.695-2.035c-6.478-3.739-16.986-3.739-23.464 0"/><path fill="#000" d="M99.544 163.992c-6.478 3.739-6.478 9.805 0 13.55 5.669 3.271 14.424 3.678 20.863 1.226l.259-.099a18 18 0 0 0 2.342-1.127c5.406-3.124 6.302-7.859 2.695-11.515a12.6 12.6 0 0 0-2.695-2.035c-6.478-3.739-16.986-3.739-23.464 0" opacity=".2"/><path fill="#F5F5F5" d="M125.703 166.027a7.25 7.25 0 0 1 1.738 5.912c-.55 3.299-5.186 6.049-6.775 6.731q1.212-.48 2.342-1.128c5.406-3.123 6.302-7.858 2.695-11.515M96.855 175.507a7.25 7.25 0 0 1-1.738-5.911c.55-3.299 5.186-6.049 6.775-6.731q-1.214.48-2.348 1.128c-5.406 3.117-6.285 7.858-2.69 11.514" opacity=".5"/><path fill="#F7921E" d="M111.284 179.659c8.519 0 15.425-3.989 15.425-8.909s-6.906-8.908-15.425-8.908c-8.518 0-15.424 3.988-15.424 8.908s6.906 8.909 15.424 8.909"/><path fill="#fff" d="M111.284 179.659c8.519 0 15.425-3.989 15.425-8.909s-6.906-8.908-15.425-8.908c-8.518 0-15.424 3.988-15.424 8.908s6.906 8.909 15.424 8.909" opacity=".4"/><path fill="#fff" d="M96.558 173.417c-1.237-2.293-.836-4.817 1.21-6.961q.608-.625 1.309-1.144a13 13 0 0 1 2.007-1.232c-.638 1.05-.402 2.2 3.228 2.392 7.11.418-1.898 7.215-1.898 7.215s-4.586-2.222-5.856-.27" opacity=".2"/><path fill="#fff" d="M97.295 171.531c-1.067-.116-1.6-1.216-1.183-2.447s1.617-2.139 2.684-2.018c1.067.12 1.595 1.215 1.177 2.447s-1.611 2.139-2.678 2.018" opacity=".5"/><path fill="#F7921E" d="M108.54 177.195c.347-2.64 11.889-9.948 11.889-9.948s2.557-1.028 1.711-2.815q.638.363 1.231.797c.27.192.517.39.754.594 3.431 2.975 3.437 6.879 0 9.86-.231.203-.484.401-.748.594q-.553.403-1.144.747-.585.34-1.221.638a17.39 17.39 0 0 1-2.139.836 22 22 0 0 1-3.442.83l-.776.11a26.3 26.3 0 0 1-7.654-.126s1.869-.396 1.539-2.117"/><path fill="#fff" d="M108.54 177.195c.347-2.64 11.889-9.948 11.889-9.948s2.557-1.028 1.711-2.815q.638.363 1.231.797c.27.192.517.39.754.594 3.431 2.975 3.437 6.879 0 9.86-.231.203-.484.401-.748.594q-.553.403-1.144.747-.585.34-1.221.638a17.39 17.39 0 0 1-2.139.836 22 22 0 0 1-3.442.83l-.776.11a26.3 26.3 0 0 1-7.654-.126s1.869-.396 1.539-2.117" opacity=".3"/><path fill="#F7921E" d="M119.417 166.059c4.301 2.486 4.477 6.451.55 9.057-.165.11-.341.22-.55.325-4.487 2.595-11.762 2.595-16.249 0s-4.487-6.792 0-9.382c.181-.104.374-.203.55-.302 4.52-2.282 11.394-2.183 15.699.302"/><path fill="#000" d="M119.417 166.059c4.301 2.486 4.477 6.451.55 9.057-.165.11-.341.22-.55.325-4.487 2.595-11.762 2.595-16.249 0s-4.487-6.792 0-9.382c.181-.104.374-.203.55-.302 4.52-2.282 11.394-2.183 15.699.302" opacity=".2"/><path fill="#F7921E" d="M111.284 177.091c6.068 0 10.987-2.839 10.987-6.34s-4.919-6.341-10.987-6.341-10.987 2.839-10.987 6.341c0 3.501 4.919 6.34 10.987 6.34"/><path fill="#000" d="M111.284 177.091c6.068 0 10.987-2.839 10.987-6.34s-4.919-6.341-10.987-6.341-10.987 2.839-10.987 6.341c0 3.501 4.919 6.34 10.987 6.34" opacity=".5"/><path fill="#F7921E" d="M119.049 168.04c-4.289-2.48-11.246-2.48-15.535 0-1.754 1.012-2.788 2.282-3.107 3.596.319 1.32 1.353 2.59 3.107 3.602 4.289 2.474 11.246 2.474 15.535 0 1.754-1.012 2.793-2.282 3.112-3.602-.308-1.314-1.358-2.584-3.112-3.596"/><path fill="#000" d="M119.049 168.04c-4.289-2.48-11.246-2.48-15.535 0-1.754 1.012-2.788 2.282-3.107 3.596.319 1.32 1.353 2.59 3.107 3.602 4.289 2.474 11.246 2.474 15.535 0 1.754-1.012 2.793-2.282 3.112-3.602-.308-1.314-1.358-2.584-3.112-3.596" opacity=".35"/><path fill="#F7921E" d="M118.202 172.664v-1.314c0-.55-.374-1.056-1.171-1.523a5.63 5.63 0 0 0-4.361-.396c-.55.148-1.1.335-1.622.506a16 16 0 0 1-1.749.549 3 3 0 0 1-.83.083 1.9 1.9 0 0 1-.687-.182l.055-.038.17-.11q.223-.13.462-.225a3.16 3.16 0 0 1 2.442-.055l1.407-1.425v-1.303a6.7 6.7 0 0 0-3.849-.137q-.63.163-1.226.423l-1.408-.814-1.677.973v1.304l.55.33c-.154.223-.24.487-.248.759v1.303c0 .55.385 1.056 1.193 1.523a4.9 4.9 0 0 0 2.321.671q.231.012.462 0a9.1 9.1 0 0 0 2.491-.55l.489-.17-1.418 1.424v1.303a6.9 6.9 0 0 0 5.427-.236l1.391.802 1.683-.967v-1.309l-.55-.33a1.55 1.55 0 0 0 .253-.869m-3.547-.115a3.609 3.609 0 0 1-3.14.236c1.32-.462 2.42-.869 3.355-.368z"/><path fill="#F7921E" d="M112.643 169.409c-.55.149-1.1.336-1.623.506a16 16 0 0 1-1.748.55 3 3 0 0 1-.831.082 1.7 1.7 0 0 1-.797-.242c-.55-.307-.621-.769.165-1.281l.17-.11q.224-.129.462-.225a3.2 3.2 0 0 1 1.216-.272c.419-.01.836.064 1.226.217l1.408-1.424a6.7 6.7 0 0 0-3.85-.138 8 8 0 0 0-1.226.424l-1.408-.814-1.677.973 1.391.803c-1.407 1.072-1.44 2.199.149 3.101a4.87 4.87 0 0 0 2.32.671q.231.012.462 0a8.9 8.9 0 0 0 2.491-.55c1.617-.55 2.92-1.171 4.009-.55.726.418.55.946-.275 1.408a3 3 0 0 1-.39.198 3.62 3.62 0 0 1-2.799 0l-1.474 1.485a6.904 6.904 0 0 0 5.428-.237l1.391.803 1.683-.973-1.392-.803c1.397-1.1 1.562-2.26-.071-3.211a5.636 5.636 0 0 0-4.41-.391"/><path fill="#fff" d="M112.643 169.409c-.55.149-1.1.336-1.623.506a16 16 0 0 1-1.748.55 3 3 0 0 1-.831.082 1.7 1.7 0 0 1-.797-.242c-.55-.307-.621-.769.165-1.281l.17-.11q.224-.129.462-.225a3.2 3.2 0 0 1 1.216-.272c.419-.01.836.064 1.226.217l1.408-1.424a6.7 6.7 0 0 0-3.85-.138 8 8 0 0 0-1.226.424l-1.408-.814-1.677.973 1.391.803c-1.407 1.072-1.44 2.199.149 3.101a4.87 4.87 0 0 0 2.32.671q.231.012.462 0a8.9 8.9 0 0 0 2.491-.55c1.617-.55 2.92-1.171 4.009-.55.726.418.55.946-.275 1.408a3 3 0 0 1-.39.198 3.62 3.62 0 0 1-2.799 0l-1.474 1.485a6.904 6.904 0 0 0 5.428-.237l1.391.803 1.683-.973-1.392-.803c1.397-1.1 1.562-2.26-.071-3.211a5.636 5.636 0 0 0-4.41-.391" opacity=".3"/><path fill="#F5F5F5" d="m104.119 167.643 1.694-.77 1.391.611-1.408-.814zM108.238 167.115a7.85 7.85 0 0 1 3.613.121l-.995 1.386 1.407-1.424a6.66 6.66 0 0 0-4.025-.083M117.003 169.805c1.65.951 1.469 2.133.072 3.211 1.237-1.347 1.017-2.288-.33-3.068a6.34 6.34 0 0 0-4.13-.55 5.65 5.65 0 0 1 4.388.407M117.102 173.039l1.067.819-1.358.957 1.682-.973zM114.265 172.746a3.6 3.6 0 0 1-2.678.231l-1.595 1.27 1.474-1.484a3.62 3.62 0 0 0 2.799-.017M109.261 170.454a2.206 2.206 0 0 1-2.013-.187c-.489-.417-.176-.868.55-1.253-.786.511-.709.973-.165 1.281.242.144.516.228.798.242q.42.016.83-.083M105.494 168.469c-.116.104-1.127 1.045-.682 1.99.446.946 1.958 1.65 3.157 1.782a4.87 4.87 0 0 1-2.321-.671c-1.595-.902-1.562-2.04-.154-3.101" opacity=".45"/><path fill="#fff" d="m96.624 169.079.418-3.179.418 3.179 5.493.242-5.493.242-.418 3.173-.418-3.173-5.499-.242z"/><path fill="#F7921E" d="M99.976 196.84a10.64 10.64 0 0 0-3.965-3.668c-6.478-3.74-16.987-3.74-23.465 0a10.64 10.64 0 0 0-3.964 3.668h-.897v3.387c.121 2.359 1.733 4.696 4.85 6.494 6.478 3.74 16.987 3.74 23.465 0 3.118-1.798 4.74-4.135 4.861-6.494v-3.387z"/><path fill="#000" d="M99.976 196.84a10.64 10.64 0 0 0-3.965-3.668c-6.478-3.74-16.987-3.74-23.465 0a10.64 10.64 0 0 0-3.964 3.668h-.897v3.387c.121 2.359 1.733 4.696 4.85 6.494 6.478 3.74 16.987 3.74 23.465 0 3.118-1.798 4.74-4.135 4.861-6.494v-3.387z" opacity=".25"/><path fill="#000" d="M84.281 190.367c-4.25 0-8.496.935-11.735 2.805a10.64 10.64 0 0 0-3.964 3.668h-.897v3.387c.121 2.359 1.733 4.696 4.85 6.494 3.24 1.87 7.485 2.805 11.735 2.805z" opacity=".1"/><path fill="#000" d="M75.214 191.939q-1.387.514-2.668 1.249a10.64 10.64 0 0 0-3.964 3.668h-.897v3.387c.121 2.359 1.733 4.696 4.85 6.494.853.49 1.745.907 2.668 1.249z" opacity=".1"/><path fill="#F7921E" d="M93.338 191.939c.924.342 1.818.759 2.673 1.249a10.64 10.64 0 0 1 3.965 3.668h.896v3.387c-.121 2.359-1.743 4.696-4.861 6.494-.855.49-1.749.907-2.673 1.249z" opacity=".5"/><path fill="#F7921E" d="M72.547 190.065c-6.484 3.739-6.484 9.81 0 13.549 5.67 3.272 14.418 3.685 20.863 1.227l.253-.099a19 19 0 0 0 2.348-1.1c5.405-3.124 6.302-7.858 2.694-11.515-.8-.796-1.705-1.48-2.689-2.035-6.483-3.767-16.992-3.767-23.47-.027"/><path fill="#000" d="M72.547 190.065c-6.484 3.739-6.484 9.81 0 13.549 5.67 3.272 14.418 3.685 20.863 1.227l.253-.099a19 19 0 0 0 2.348-1.1c5.405-3.124 6.302-7.858 2.694-11.515-.8-.796-1.705-1.48-2.689-2.035-6.483-3.767-16.992-3.767-23.47-.027" opacity=".2"/><path fill="#F5F5F5" d="M98.705 192.1a7.27 7.27 0 0 1 1.733 5.889c-.55 3.299-5.186 6.049-6.775 6.731a18.5 18.5 0 0 0 2.348-1.1c5.405-3.129 6.291-7.864 2.694-11.52M69.858 201.58a7.25 7.25 0 0 1-1.733-5.912c.55-3.299 5.18-6.049 6.77-6.73a18 18 0 0 0-2.343 1.099c-5.41 3.146-6.307 7.886-2.694 11.543" opacity=".5"/><path fill="#F7921E" d="M95.192 203.125c6.048-3.481 6.048-9.118 0-12.598-6.05-3.481-15.794-3.476-21.815 0s-6.049 9.117 0 12.598 15.788 3.475 21.815 0"/><path fill="#fff" d="M95.192 203.125c6.048-3.481 6.048-9.118 0-12.598-6.05-3.481-15.794-3.476-21.815 0s-6.049 9.117 0 12.598 15.788 3.475 21.815 0" opacity=".4"/><path fill="#fff" d="M99.002 199.484c1.243-2.293.836-4.817-1.21-6.962a10.5 10.5 0 0 0-1.308-1.144 12 12 0 0 0-1.248-.819 11 11 0 0 0-.76-.413c.639 1.056.408 2.2-3.227 2.398-7.11.412 1.903 7.209 1.903 7.209s4.586-2.216 5.85-.269" opacity=".2"/><path fill="#fff" d="M98.276 197.603c1.067-.116 1.595-1.215 1.177-2.447s-1.611-2.139-2.678-2.018-1.6 1.215-1.182 2.452c.418 1.238 1.617 2.134 2.683 2.013" opacity=".5"/><path fill="#F7921E" d="M87.03 203.269c-.351-2.639-11.894-9.948-11.894-9.948s-2.556-1.028-1.71-2.815q-.636.366-1.231.797c-.264.193-.517.391-.748.594-3.437 2.975-3.443 6.885 0 9.86.23.203.484.401.748.594.352.258.736.506 1.143.748s.803.44 1.227.637q.502.238 1.039.451c.357.143.71.27 1.1.391 1.124.362 2.275.638 3.442.825l.775.11c2.544.331 5.123.288 7.655-.127 0 0-1.875-.379-1.545-2.117"/><path fill="#fff" d="M87.03 203.269c-.351-2.639-11.894-9.948-11.894-9.948s-2.556-1.028-1.71-2.815q-.636.366-1.231.797c-.264.193-.517.391-.748.594-3.437 2.975-3.443 6.885 0 9.86.23.203.484.401.748.594.352.258.736.506 1.143.748s.803.44 1.227.637q.502.238 1.039.451c.357.143.71.27 1.1.391 1.124.362 2.275.638 3.442.825l.775.11c2.544.331 5.123.288 7.655-.127 0 0-1.875-.379-1.545-2.117" opacity=".3"/><path fill="#F7921E" d="M76.154 192.132c-4.306 2.485-4.482 6.45-.55 9.057.17.115.347.22.55.33 4.487 2.59 11.762 2.59 16.25 0s4.487-6.792 0-9.387c-.182-.105-.369-.204-.55-.303-4.526-2.282-11.394-2.183-15.7.303"/><path fill="#000" d="M76.154 192.132c-4.306 2.485-4.482 6.45-.55 9.057.17.115.347.22.55.33 4.487 2.59 11.762 2.59 16.25 0s4.487-6.792 0-9.387c-.182-.105-.369-.204-.55-.303-4.526-2.282-11.394-2.183-15.7.303" opacity=".2"/><path fill="#F7921E" d="M76.517 192.342c-4.29 2.475-4.29 6.495 0 8.969 4.289 2.475 11.245 2.475 15.534 0s4.29-6.494 0-8.969c-4.289-2.474-11.245-2.474-15.534 0"/><path fill="#000" d="M76.517 192.342c-4.29 2.475-4.29 6.495 0 8.969 4.289 2.475 11.245 2.475 15.534 0s4.29-6.494 0-8.969c-4.289-2.474-11.245-2.474-15.534 0" opacity=".5"/><path fill="#F7921E" d="M76.517 194.139c4.29-2.48 11.245-2.48 15.535 0 1.754 1.012 2.788 2.282 3.106 3.597-.318 1.319-1.352 2.59-3.106 3.602-4.29 2.474-11.246 2.474-15.535 0-1.754-1.012-2.788-2.283-3.107-3.602.297-1.342 1.353-2.612 3.107-3.597"/><path fill="#000" d="M76.517 194.139c4.29-2.48 11.245-2.48 15.535 0 1.754 1.012 2.788 2.282 3.106 3.597-.318 1.319-1.352 2.59-3.106 3.602-4.29 2.474-11.246 2.474-15.535 0-1.754-1.012-2.788-2.283-3.107-3.602.297-1.342 1.353-2.612 3.107-3.597" opacity=".35"/><path fill="#F7921E" d="M91.2 198.736v-1.314c0-.55-.37-1.056-1.172-1.524a.1.1 0 0 0-.028 0 5.65 5.65 0 0 0-4.355-.395c-.577.148-1.127.335-1.65.505a16 16 0 0 1-1.743.55q-.407.093-.824.077a1.8 1.8 0 0 1-.688-.181l.055-.039q.081-.059.17-.104a4 4 0 0 1 .463-.231 3.16 3.16 0 0 1 2.441-.055l1.408-1.419v-1.309a6.7 6.7 0 0 0-3.85-.137q-.63.163-1.226.423l-1.407-.813-1.683.973v1.303l.577.33c-.154.226-.24.491-.247.764v1.298c0 .55.385 1.056 1.199 1.529.706.411 1.503.64 2.32.665h.468a9.4 9.4 0 0 0 2.49-.55l.484-.17-1.418 1.424v1.303a6.89 6.89 0 0 0 5.433-.236l1.391.803 1.683-.968v-1.303l-.55-.336c.173-.254.263-.556.258-.863m-3.542-.116a3.603 3.603 0 0 1-3.14.237c1.314-.462 2.414-.869 3.354-.368z"/><path fill="#F7921E" d="M85.645 195.481c-.577.149-1.127.335-1.65.506q-.855.325-1.743.55a3.2 3.2 0 0 1-.824.077 1.8 1.8 0 0 1-.803-.237c-.55-.313-.616-.769.17-1.286.05-.039.11-.072.17-.11q.225-.126.463-.226a3.16 3.16 0 0 1 2.441-.055l1.408-1.424a6.7 6.7 0 0 0-3.85-.138q-.63.163-1.226.424l-1.407-.814-1.683.973 1.391.803c-1.413 1.1-1.44 2.2.149 3.102a4.87 4.87 0 0 0 2.32.671h.468a9.5 9.5 0 0 0 2.49-.55c1.612-.55 2.92-1.177 4.004-.55.731.418.55.951-.27 1.407a3 3 0 0 1-.39.198 3.62 3.62 0 0 1-2.799 0l-1.48 1.48a6.914 6.914 0 0 0 5.433-.237l1.392.803 1.683-.968-1.391-.803c1.396-1.099 1.556-2.26-.078-3.217a.1.1 0 0 0-.027 0 5.65 5.65 0 0 0-4.36-.379"/><path fill="#fff" d="M85.645 195.481c-.577.149-1.127.335-1.65.506q-.855.325-1.743.55a3.2 3.2 0 0 1-.824.077 1.8 1.8 0 0 1-.803-.237c-.55-.313-.616-.769.17-1.286.05-.039.11-.072.17-.11q.225-.126.463-.226a3.16 3.16 0 0 1 2.441-.055l1.408-1.424a6.7 6.7 0 0 0-3.85-.138q-.63.163-1.226.424l-1.407-.814-1.683.973 1.391.803c-1.413 1.1-1.44 2.2.149 3.102a4.87 4.87 0 0 0 2.32.671h.468a9.5 9.5 0 0 0 2.49-.55c1.612-.55 2.92-1.177 4.004-.55.731.418.55.951-.27 1.407a3 3 0 0 1-.39.198 3.62 3.62 0 0 1-2.799 0l-1.48 1.48a6.914 6.914 0 0 0 5.433-.237l1.392.803 1.683-.968-1.391-.803c1.396-1.099 1.556-2.26-.078-3.217a.1.1 0 0 0-.027 0 5.65 5.65 0 0 0-4.36-.379" opacity=".3"/><path fill="#F5F5F5" d="m77.116 193.716 1.7-.77 1.39.61-1.407-.814zM81.235 193.188a7.84 7.84 0 0 1 3.613.121l-.973 1.38 1.407-1.418a6.67 6.67 0 0 0-4.047-.083M90 195.876a.1.1 0 0 1 .028 0c1.65.957 1.474 2.134.077 3.217 1.237-1.353 1.012-2.293-.33-3.068a6.36 6.36 0 0 0-4.13-.55 5.65 5.65 0 0 1 4.356.401M90.105 199.117l1.067.82-1.358.951 1.682-.968zM87.268 198.818a3.6 3.6 0 0 1-2.678.231l-1.6 1.271 1.479-1.48a3.6 3.6 0 0 0 2.799-.022M82.258 196.532a2.21 2.21 0 0 1-2.013-.192c-.484-.418-.17-.864.55-1.254-.786.517-.71.973-.17 1.287.245.14.52.221.802.236q.421.016.83-.077M78.497 194.529c-.121.105-1.133 1.051-.682 1.991s1.957 1.65 3.15 1.782a4.87 4.87 0 0 1-2.32-.671c-1.59-.913-1.562-2.029-.148-3.102" opacity=".45"/><path fill="#F7921E" d="M100.746 192.272a10.8 10.8 0 0 0-3.965-3.663c-6.484-3.739-16.987-3.739-23.47 0a10.7 10.7 0 0 0-3.96 3.663h-.896v3.392c.116 2.359 1.733 4.697 4.845 6.495 6.483 3.739 16.986 3.739 23.47 0 3.112-1.798 4.74-4.136 4.861-6.495v-3.392z"/><path fill="#000" d="M100.746 192.272a10.8 10.8 0 0 0-3.965-3.663c-6.484-3.739-16.987-3.739-23.47 0a10.7 10.7 0 0 0-3.96 3.663h-.896v3.392c.116 2.359 1.733 4.697 4.845 6.495 6.483 3.739 16.986 3.739 23.47 0 3.112-1.798 4.74-4.136 4.861-6.495v-3.392z" opacity=".25"/><path fill="#000" d="M85.046 185.805c-4.245 0-8.49.935-11.735 2.804a10.7 10.7 0 0 0-3.96 3.663h-.896v3.392c.116 2.359 1.733 4.697 4.845 6.495 3.244 1.869 7.49 2.804 11.735 2.804z" opacity=".1"/><path fill="#000" d="M75.984 187.355q-1.388.52-2.673 1.254a10.7 10.7 0 0 0-3.96 3.663h-.896v3.392c.116 2.36 1.733 4.697 4.845 6.495.856.487 1.75.904 2.672 1.248z" opacity=".1"/><path fill="#F7921E" d="M94.108 187.355a18.4 18.4 0 0 1 2.673 1.254 10.77 10.77 0 0 1 3.964 3.663h.897v3.392c-.121 2.36-1.749 4.697-4.861 6.495-.856.487-1.75.904-2.673 1.248z" opacity=".5"/><path fill="#F7921E" d="M73.311 185.502c-6.478 3.739-6.478 9.805 0 13.549 5.67 3.272 14.424 3.679 20.863 1.227l.259-.099q1.214-.48 2.348-1.128c5.4-3.123 6.302-7.858 2.689-11.515a12.7 12.7 0 0 0-2.69-2.034c-6.483-3.739-16.986-3.745-23.469 0"/><path fill="#000" d="M73.311 185.502c-6.478 3.739-6.478 9.805 0 13.549 5.67 3.272 14.424 3.679 20.863 1.227l.259-.099q1.214-.48 2.348-1.128c5.4-3.123 6.302-7.858 2.689-11.515a12.7 12.7 0 0 0-2.69-2.034c-6.483-3.739-16.986-3.745-23.469 0" opacity=".2"/><path fill="#F5F5F5" d="M99.47 187.543a7.26 7.26 0 0 1 1.732 5.906c-.55 3.299-5.186 6.049-6.775 6.731a18.4 18.4 0 0 0 2.348-1.128c5.406-3.123 6.307-7.858 2.695-11.509M70.622 197.012a7.25 7.25 0 0 1-1.738-5.906c.578-3.3 5.186-6.049 6.775-6.731q-1.216.478-2.348 1.127c-5.4 3.14-6.302 7.853-2.69 11.51" opacity=".5"/><path fill="#F7921E" d="M95.961 198.539c6.022-3.475 6.022-9.112 0-12.593-6.021-3.48-15.793-3.475-21.814 0s-6.05 9.118 0 12.593c6.049 3.476 15.787 3.498 21.814 0"/><path fill="#fff" d="M95.961 198.539c6.022-3.475 6.022-9.112 0-12.593-6.021-3.48-15.793-3.475-21.814 0s-6.05 9.118 0 12.593c6.049 3.476 15.787 3.498 21.814 0" opacity=".4"/><path fill="#fff" d="M99.778 194.921c1.237-2.293.836-4.817-1.216-6.962a10.4 10.4 0 0 0-1.303-1.144 13 13 0 0 0-1.248-.824 15 15 0 0 0-.759-.413c.638 1.056.401 2.2-3.228 2.398-7.11.418 1.897 7.209 1.897 7.209s4.586-2.211 5.857-.264" opacity=".2"/><path fill="#fff" d="M99.04 193.04c1.068-.115 1.601-1.215 1.183-2.447s-1.617-2.139-2.683-2.018c-1.067.121-1.595 1.216-1.183 2.447.413 1.232 1.617 2.139 2.684 2.018" opacity=".5"/><path fill="#F7921E" d="M87.795 198.705c-.34-2.64-11.889-9.948-11.889-9.948s-2.557-1.028-1.71-2.816q-.639.364-1.231.798c-.27.192-.517.39-.754.594-3.431 2.975-3.437 6.879 0 9.859a12.082 12.082 0 0 0 1.892 1.337q.588.346 1.22.643c.336.16.688.308 1.04.445.352.138.715.27 1.1.391 1.123.367 2.274.645 3.442.83l.775.11q1.715.224 3.443.215c1.41 0 2.82-.114 4.212-.341 0 0-1.88-.38-1.54-2.117"/><path fill="#fff" d="M87.795 198.705c-.34-2.64-11.889-9.948-11.889-9.948s-2.557-1.028-1.71-2.816q-.639.364-1.231.798c-.27.192-.517.39-.754.594-3.431 2.975-3.437 6.879 0 9.859a12.082 12.082 0 0 0 1.892 1.337q.588.346 1.22.643c.336.16.688.308 1.04.445.352.138.715.27 1.1.391 1.123.367 2.274.645 3.442.83l.775.11q1.715.224 3.443.215c1.41 0 2.82-.114 4.212-.341 0 0-1.88-.38-1.54-2.117" opacity=".3"/><path fill="#F7921E" d="M76.918 187.569c-4.3 2.486-4.476 6.451-.55 9.057.165.11.341.22.55.325 4.487 2.595 11.762 2.595 16.25 0s4.487-6.792 0-9.382a19 19 0 0 0-.55-.302c-4.526-2.282-11.394-2.183-15.7.302"/><path fill="#000" d="M76.918 187.569c-4.3 2.486-4.476 6.451-.55 9.057.165.11.341.22.55.325 4.487 2.595 11.762 2.595 16.25 0s4.487-6.792 0-9.382a19 19 0 0 0-.55-.302c-4.526-2.282-11.394-2.183-15.7.302" opacity=".2"/><path fill="#F7921E" d="M77.287 187.778c-4.29 2.474-4.29 6.489 0 8.969 4.289 2.48 11.245 2.474 15.534 0s4.29-6.495 0-8.969c-4.289-2.475-11.245-2.48-15.534 0"/><path fill="#000" d="M77.287 187.778c-4.29 2.474-4.29 6.489 0 8.969 4.289 2.48 11.245 2.474 15.534 0s4.29-6.495 0-8.969c-4.289-2.475-11.245-2.48-15.534 0" opacity=".5"/><path fill="#F7921E" d="M77.287 189.543c4.289-2.474 11.245-2.474 15.534 0 1.754 1.018 2.788 2.288 3.107 3.602-.319 1.32-1.353 2.59-3.107 3.602-4.289 2.475-11.245 2.475-15.534 0-1.755-1.012-2.794-2.282-3.113-3.602.319-1.314 1.358-2.584 3.112-3.602"/><path fill="#000" d="M77.287 189.543c4.289-2.474 11.245-2.474 15.534 0 1.754 1.018 2.788 2.288 3.107 3.602-.319 1.32-1.353 2.59-3.107 3.602-4.289 2.475-11.245 2.475-15.534 0-1.755-1.012-2.794-2.282-3.113-3.602.319-1.314 1.358-2.584 3.112-3.602" opacity=".35"/><path fill="#F7921E" d="M91.969 194.173v-1.314c0-.55-.374-1.056-1.171-1.529h-.028a5.63 5.63 0 0 0-4.355-.395c-.578.148-1.128.335-1.65.505q-.856.326-1.743.55a3 3 0 0 1-.83.083 1.9 1.9 0 0 1-.688-.182l.055-.038.176-.11q.221-.13.457-.226a3.18 3.18 0 0 1 2.441-.055l1.408-1.424v-1.303a6.7 6.7 0 0 0-3.85-.138q-.627.163-1.22.424l-1.408-.814-1.683.973v1.304l.578.33a1.36 1.36 0 0 0-.248.758v1.304c0 .55.385 1.056 1.2 1.523a4.87 4.87 0 0 0 2.32.671q.23.012.462 0a9 9 0 0 0 2.496-.55l.484-.165-1.419 1.424v1.303a6.9 6.9 0 0 0 5.433-.236l1.392.803 1.677-.973v-1.326l-.578-.33c.181-.246.283-.541.292-.847m-3.547-.115a3 3 0 0 1-.385.198 3.6 3.6 0 0 1-2.75.038c1.315-.461 2.415-.868 3.35-.368q-.105.072-.215.132"/><path fill="#F7921E" d="M86.415 190.919c-.578.148-1.128.335-1.65.506q-.856.325-1.743.55a3 3 0 0 1-.83.082 1.74 1.74 0 0 1-.798-.242c-.55-.308-.621-.77.165-1.281l.176-.11a3.5 3.5 0 0 1 .457-.225 3.17 3.17 0 0 1 2.441-.055l1.408-1.425a6.7 6.7 0 0 0-3.85-.137q-.627.163-1.22.423l-1.408-.814-1.683.974 1.392.803c-1.414 1.072-1.441 2.199.148 3.101a4.95 4.95 0 0 0 2.32.671q.231.012.463 0a9 9 0 0 0 2.496-.55c1.611-.55 2.915-1.171 4.003-.55.726.418.55.946-.275 1.408a3 3 0 0 1-.384.198 3.63 3.63 0 0 1-2.805 0l-1.474 1.485a6.94 6.94 0 0 0 5.433-.237l1.392.803 1.677-.973-1.392-.803c1.403-1.1 1.562-2.26-.07-3.217h-.028a5.63 5.63 0 0 0-4.361-.385"/><path fill="#fff" d="M86.415 190.919c-.578.148-1.128.335-1.65.506q-.856.325-1.743.55a3 3 0 0 1-.83.082 1.74 1.74 0 0 1-.798-.242c-.55-.308-.621-.77.165-1.281l.176-.11a3.5 3.5 0 0 1 .457-.225 3.17 3.17 0 0 1 2.441-.055l1.408-1.425a6.7 6.7 0 0 0-3.85-.137q-.627.163-1.22.423l-1.408-.814-1.683.974 1.392.803c-1.414 1.072-1.441 2.199.148 3.101a4.95 4.95 0 0 0 2.32.671q.231.012.463 0a9 9 0 0 0 2.496-.55c1.611-.55 2.915-1.171 4.003-.55.726.418.55.946-.275 1.408a3 3 0 0 1-.384.198 3.63 3.63 0 0 1-2.805 0l-1.474 1.485a6.94 6.94 0 0 0 5.433-.237l1.392.803 1.677-.973-1.392-.803c1.403-1.1 1.562-2.26-.07-3.217h-.028a5.63 5.63 0 0 0-4.361-.385" opacity=".3"/><path fill="#F5F5F5" d="m77.886 189.153 1.7-.77 1.39.611-1.407-.814zM82.005 188.642a7.84 7.84 0 0 1 3.613.12l-.98 1.386 1.414-1.424a6.67 6.67 0 0 0-4.047-.082M90.754 191.315h.027c1.65.957 1.474 2.14.072 3.217 1.242-1.347 1.017-2.287-.33-3.068a6.34 6.34 0 0 0-4.125-.55 5.63 5.63 0 0 1 4.356.401M90.87 194.549l1.066.819-1.353.957 1.677-.973zM88.037 194.256a3.63 3.63 0 0 1-2.683.231l-1.595 1.27 1.474-1.485a3.63 3.63 0 0 0 2.804-.016M83.055 191.941a2.2 2.2 0 0 1-2.013-.187c-.484-.418-.176-.869.55-1.254-.786.511-.704.973-.165 1.281.243.144.516.227.798.242q.42.017.83-.082M79.266 189.967c-.12.104-1.133 1.045-.687 1.99s1.958 1.65 3.156 1.782a4.94 4.94 0 0 1-2.32-.671c-1.59-.918-1.562-2.029-.149-3.101" opacity=".45"/><path fill="#F7921E" d="M97.606 188.906a10.73 10.73 0 0 0-3.965-3.668c-6.484-3.739-16.987-3.739-23.47 0a10.67 10.67 0 0 0-3.96 3.668h-.896v3.387c.121 2.359 1.733 4.696 4.845 6.495 6.483 3.739 16.992 3.739 23.47 0 3.118-1.799 4.74-4.136 4.861-6.495v-3.387z"/><path fill="#000" d="M97.606 188.906a10.73 10.73 0 0 0-3.965-3.668c-6.484-3.739-16.987-3.739-23.47 0a10.67 10.67 0 0 0-3.96 3.668h-.896v3.387c.121 2.359 1.733 4.696 4.845 6.495 6.483 3.739 16.992 3.739 23.47 0 3.118-1.799 4.74-4.136 4.861-6.495v-3.387z" opacity=".25"/><path fill="#000" d="M81.906 182.434c-4.245 0-8.49.934-11.735 2.804a10.67 10.67 0 0 0-3.96 3.668h-.896v3.387c.121 2.359 1.733 4.696 4.845 6.495 3.245 1.869 7.49 2.804 11.735 2.804z" opacity=".1"/><path fill="#000" d="M72.844 183.99c-.924.342-1.818.759-2.673 1.249a10.67 10.67 0 0 0-3.96 3.667h-.896v3.388c.121 2.359 1.733 4.696 4.845 6.494.855.49 1.749.907 2.673 1.248z" opacity=".1"/><path fill="#F7921E" d="M90.968 183.99c.924.342 1.818.759 2.673 1.249a10.7 10.7 0 0 1 3.965 3.667h.896v3.388c-.121 2.359-1.743 4.696-4.861 6.494-.855.49-1.749.907-2.673 1.248z" opacity=".5"/><path fill="#F7921E" d="M70.17 182.131c-6.477 3.739-6.477 9.81 0 13.549 5.676 3.272 14.425 3.685 20.864 1.227l.253-.099a18.6 18.6 0 0 0 2.348-1.128c5.406-3.123 6.302-7.858 2.69-11.515a12.7 12.7 0 0 0-2.69-2.034c-6.472-3.74-16.98-3.74-23.464 0"/><path fill="#000" d="M70.17 182.131c-6.477 3.739-6.477 9.81 0 13.549 5.676 3.272 14.425 3.685 20.864 1.227l.253-.099a18.6 18.6 0 0 0 2.348-1.128c5.406-3.123 6.302-7.858 2.69-11.515a12.7 12.7 0 0 0-2.69-2.034c-6.472-3.74-16.98-3.74-23.464 0" opacity=".2"/><path fill="#F5F5F5" d="M96.33 184.166a7.25 7.25 0 0 1 1.737 5.911c-.55 3.3-5.185 6.049-6.774 6.731q1.213-.481 2.348-1.127c5.405-3.123 6.301-7.858 2.689-11.515M67.482 193.646a7.25 7.25 0 0 1-1.738-5.911c.55-3.3 5.186-6.049 6.775-6.731q-1.212.48-2.343 1.127c-5.405 3.118-6.302 7.858-2.694 11.515" opacity=".5"/><path fill="#F7921E" d="M81.911 197.798c8.52 0 15.425-3.986 15.425-8.903s-6.906-8.903-15.425-8.903-15.424 3.986-15.424 8.903 6.906 8.903 15.424 8.903"/><path fill="#fff" d="M81.911 197.798c8.52 0 15.425-3.986 15.425-8.903s-6.906-8.903-15.425-8.903-15.424 3.986-15.424 8.903 6.906 8.903 15.424 8.903" opacity=".4"/><path fill="#fff" d="M96.638 191.55c1.237-2.293.835-4.817-1.21-6.962a11 11 0 0 0-1.309-1.143 12 12 0 0 0-1.248-.82 11 11 0 0 0-.76-.412c.639 1.056.408 2.2-3.227 2.397-7.11.413 1.897 7.21 1.897 7.21s4.586-2.216 5.856-.27" opacity=".2"/><path fill="#fff" d="M95.906 189.669c1.067-.115 1.595-1.215 1.177-2.447s-1.617-2.139-2.683-2.018c-1.067.121-1.595 1.215-1.177 2.453s1.617 2.133 2.683 2.012" opacity=".5"/><path fill="#F7921E" d="M84.66 195.334c-.351-2.64-11.894-9.948-11.894-9.948s-2.557-1.029-1.71-2.816q-.636.367-1.232.798a9 9 0 0 0-.747.594c-3.437 2.975-3.443 6.884 0 9.859.23.204.484.402.747.594q.553.404 1.144.748a17.645 17.645 0 0 0 2.26 1.089c.352.143.715.269 1.1.39a23 23 0 0 0 3.442.825l.776.11a26.4 26.4 0 0 0 7.654-.126s-1.87-.38-1.54-2.117"/><path fill="#fff" d="M84.66 195.334c-.351-2.64-11.894-9.948-11.894-9.948s-2.557-1.029-1.71-2.816q-.636.367-1.232.798a9 9 0 0 0-.747.594c-3.437 2.975-3.443 6.884 0 9.859.23.204.484.402.747.594q.553.404 1.144.748a17.645 17.645 0 0 0 2.26 1.089c.352.143.715.269 1.1.39a23 23 0 0 0 3.442.825l.776.11a26.4 26.4 0 0 0 7.654-.126s-1.87-.38-1.54-2.117" opacity=".3"/><path fill="#F7921E" d="M73.784 184.198c-4.306 2.486-4.482 6.45-.55 9.057.17.115.346.22.55.33 4.487 2.59 11.762 2.59 16.25 0s4.487-6.791 0-9.387c-.182-.104-.375-.203-.55-.302-4.526-2.282-11.378-2.183-15.7.302"/><path fill="#000" d="M73.784 184.198c-4.306 2.486-4.482 6.45-.55 9.057.17.115.346.22.55.33 4.487 2.59 11.762 2.59 16.25 0s4.487-6.791 0-9.387c-.182-.104-.375-.203-.55-.302-4.526-2.282-11.378-2.183-15.7.302" opacity=".2"/><path fill="#F7921E" d="M81.911 195.23c6.068 0 10.987-2.839 10.987-6.341 0-3.501-4.919-6.34-10.987-6.34s-10.987 2.839-10.987 6.34 4.92 6.341 10.987 6.341"/><path fill="#000" d="M81.911 195.23c6.068 0 10.987-2.839 10.987-6.341 0-3.501-4.919-6.34-10.987-6.34s-10.987 2.839-10.987 6.34 4.92 6.341 10.987 6.341" opacity=".5"/><path fill="#F7921E" d="M74.147 186.178c4.289-2.48 11.245-2.48 15.534 0 1.755 1.012 2.788 2.282 3.107 3.597-.319 1.32-1.352 2.59-3.107 3.602-4.289 2.474-11.245 2.474-15.534 0-1.755-1.012-2.788-2.282-3.113-3.602.325-1.315 1.358-2.585 3.113-3.597"/><path fill="#000" d="M74.147 186.178c4.289-2.48 11.245-2.48 15.534 0 1.755 1.012 2.788 2.282 3.107 3.597-.319 1.32-1.352 2.59-3.107 3.602-4.289 2.474-11.245 2.474-15.534 0-1.755-1.012-2.788-2.282-3.113-3.602.325-1.315 1.358-2.585 3.113-3.597" opacity=".35"/><path fill="#F7921E" d="M88.83 190.801v-1.314c0-.55-.37-1.056-1.172-1.523a.1.1 0 0 0-.028 0 5.65 5.65 0 0 0-4.355-.396c-.55.148-1.1.335-1.65.506q-.856.325-1.743.55a3.2 3.2 0 0 1-.83.077 1.9 1.9 0 0 1-.687-.182l.055-.038q.084-.057.175-.105.221-.131.457-.231a3.2 3.2 0 0 1 2.447-.055l1.408-1.418v-1.331a6.7 6.7 0 0 0-3.85-.138 8 8 0 0 0-1.22.424l-1.38-.836-1.683.973v1.304l.577.33c-.155.225-.24.491-.247.764v1.298c0 .55.385 1.055 1.198 1.528a4.9 4.9 0 0 0 2.321.666h.462a9.4 9.4 0 0 0 2.497-.55l.483-.171-1.418 1.425v1.303a6.9 6.9 0 0 0 5.433-.237l1.39.803 1.678-.968v-1.303l-.55-.335a1.54 1.54 0 0 0 .231-.82m-3.542-.115q-.19.111-.39.198a3.6 3.6 0 0 1-2.75.038c1.314-.462 2.414-.868 3.349-.368z"/><path fill="#F7921E" d="M83.275 187.541c-.55.148-1.1.335-1.65.505q-.856.326-1.743.55a3.2 3.2 0 0 1-.83.077 1.8 1.8 0 0 1-.797-.236c-.55-.314-.622-.77.165-1.287q.084-.057.175-.104.221-.132.457-.231a3.18 3.18 0 0 1 2.447-.055l1.408-1.425a6.7 6.7 0 0 0-3.85-.137 8.4 8.4 0 0 0-1.22.423l-1.38-.83-1.683.973 1.39.803c-1.412 1.1-1.44 2.2.15 3.107.706.412 1.503.64 2.32.666h.462a9.5 9.5 0 0 0 2.496-.55c1.612-.55 2.92-1.177 4.004-.55.731.423.55.951-.27 1.407q-.189.111-.39.198a3.62 3.62 0 0 1-2.8 0l-1.478 1.48a6.915 6.915 0 0 0 5.433-.237l1.39.803 1.678-.968-1.386-.803c1.397-1.099 1.557-2.26-.077-3.217a.1.1 0 0 0-.027 0 5.64 5.64 0 0 0-4.394-.362"/><path fill="#fff" d="M83.275 187.542c-.55.149-1.1.336-1.65.506q-.856.326-1.743.55a3.2 3.2 0 0 1-.83.077 1.8 1.8 0 0 1-.797-.236c-.55-.314-.622-.77.165-1.287q.084-.057.175-.104.221-.132.457-.231a3.169 3.169 0 0 1 2.447-.055l1.408-1.425a6.7 6.7 0 0 0-3.85-.137 8 8 0 0 0-1.22.423l-1.38-.83-1.683.973 1.39.803c-1.412 1.1-1.44 2.2.15 3.107a4.9 4.9 0 0 0 2.32.665h.462a9.5 9.5 0 0 0 2.496-.549c1.612-.55 2.92-1.177 4.004-.55.731.423.55.951-.27 1.407q-.189.111-.39.198a3.62 3.62 0 0 1-2.8 0l-1.478 1.48a6.915 6.915 0 0 0 5.433-.237l1.39.803 1.678-.968-1.386-.803c1.397-1.099 1.557-2.26-.077-3.217a.1.1 0 0 0-.027 0 5.66 5.66 0 0 0-4.394-.363" opacity=".3"/><path fill="#F5F5F5" d="m74.746 185.782 1.7-.77 1.39.61-1.407-.813zM78.865 185.254a7.84 7.84 0 0 1 3.613.121l-.974 1.386 1.408-1.419a6.7 6.7 0 0 0-4.047-.088M87.63 187.943a.04.04 0 0 1 .028 0c1.65.956 1.474 2.133.077 3.216 1.237-1.352 1.012-2.293-.336-3.068a6.35 6.35 0 0 0-4.124-.55 5.65 5.65 0 0 1 4.355.402M87.735 191.182l1.06.819-1.352.951 1.677-.968zM84.897 190.885a3.62 3.62 0 0 1-2.678.231l-1.6 1.27 1.48-1.479a3.62 3.62 0 0 0 2.798-.022M79.888 188.599a2.2 2.2 0 0 1-2.013-.193c-.484-.418-.17-.869.55-1.254-.787.517-.704.974-.165 1.287.244.14.517.221.797.237q.421.015.83-.077M76.126 186.596c-.12.104-1.132 1.05-.687 1.99.445.941 1.958 1.65 3.156 1.782a4.9 4.9 0 0 1-2.32-.665c-1.59-.919-1.562-2.035-.149-3.107" opacity=".45"/><path fill="#F7921E" d="M98.97 184.595a10.7 10.7 0 0 0-3.96-3.667c-6.483-3.74-16.986-3.74-23.47 0a10.7 10.7 0 0 0-3.965 3.667h-.896v3.388c.121 2.359 1.732 4.696 4.85 6.494 6.484 3.739 16.987 3.739 23.47 0 3.113-1.798 4.74-4.135 4.856-6.494v-3.388z"/><path fill="#000" d="M98.97 184.595a10.7 10.7 0 0 0-3.96-3.667c-6.483-3.74-16.986-3.74-23.47 0a10.7 10.7 0 0 0-3.965 3.667h-.896v3.388c.121 2.359 1.732 4.696 4.85 6.494 6.484 3.739 16.987 3.739 23.47 0 3.113-1.798 4.74-4.135 4.856-6.494v-3.388z" opacity=".25"/><path fill="#000" d="M83.275 178.123c-4.245 0-8.496.935-11.735 2.805a10.7 10.7 0 0 0-3.965 3.667h-.896v3.388c.121 2.359 1.732 4.696 4.85 6.494 3.24 1.87 7.49 2.805 11.735 2.805z" opacity=".1"/><path fill="#000" d="M74.213 179.674c-.923.345-1.817.765-2.673 1.254a10.7 10.7 0 0 0-3.965 3.667h-.896v3.388c.121 2.359 1.732 4.696 4.85 6.494.856.487 1.75.905 2.673 1.248z" opacity=".1"/><path fill="#F7921E" d="M92.338 179.674c.923.345 1.817.765 2.672 1.254a10.7 10.7 0 0 1 3.96 3.667h.896v3.388c-.116 2.359-1.743 4.696-4.856 6.494-.856.487-1.75.905-2.672 1.248z" opacity=".5"/><path fill="#F7921E" d="M71.54 177.82c-6.477 3.739-6.477 9.805 0 13.55 5.67 3.299 14.424 3.679 20.864 1.226l.258-.099q1.214-.481 2.348-1.127c5.4-3.124 6.302-7.858 2.69-11.515a12.7 12.7 0 0 0-2.69-2.035c-6.456-3.739-16.986-3.739-23.47 0"/><path fill="#000" d="M71.54 177.82c-6.477 3.739-6.477 9.805 0 13.55 5.67 3.299 14.424 3.679 20.864 1.226l.258-.099q1.214-.481 2.348-1.127c5.4-3.124 6.302-7.858 2.69-11.515a12.7 12.7 0 0 0-2.69-2.035c-6.456-3.739-16.986-3.739-23.47 0" opacity=".2"/><path fill="#F5F5F5" d="M97.7 179.844a7.24 7.24 0 0 1 1.737 5.911c-.55 3.3-5.186 6.049-6.775 6.731q1.214-.481 2.348-1.127c5.4-3.113 6.302-7.847 2.69-11.515M68.851 189.336a7.28 7.28 0 0 1-1.743-5.912c.55-3.299 5.186-6.049 6.775-6.731q-1.214.482-2.348 1.128c-5.4 3.123-6.297 7.858-2.684 11.515" opacity=".5"/><path fill="#F7921E" d="M94.185 190.881c6.049-3.481 6.049-9.118 0-12.599s-15.787-3.475-21.814 0-6.022 9.118 0 12.599c6.021 3.481 15.793 3.475 21.814 0"/><path fill="#fff" d="M94.185 190.881c6.049-3.481 6.049-9.118 0-12.599s-15.787-3.475-21.814 0-6.022 9.118 0 12.599c6.021 3.481 15.793 3.475 21.814 0" opacity=".4"/><path fill="#fff" d="M98.007 187.24c1.237-2.293.83-4.817-1.215-6.962a11 11 0 0 0-1.303-1.144 15 15 0 0 0-1.249-.825q-.37-.215-.764-.407c.643 1.051.407 2.2-3.222 2.392-7.11.418 1.897 7.215 1.897 7.215s4.586-2.216 5.856-.269" opacity=".2"/><path fill="#fff" d="M97.27 185.343c1.067-.115 1.595-1.215 1.183-2.447-.413-1.232-1.617-2.139-2.684-2.018s-1.595 1.215-1.182 2.447c.412 1.232 1.617 2.156 2.683 2.018" opacity=".5"/><path fill="#F7921E" d="M86.025 191.023c-.347-2.64-11.89-9.948-11.89-9.948s-2.556-1.028-1.71-2.815q-.64.36-1.231.797c-.27.193-.517.391-.754.594-3.436 2.975-3.436 6.879 0 9.86a13.598 13.598 0 0 0 1.897 1.342q.587.339 1.221.637a17.384 17.384 0 0 0 2.14.836 22.4 22.4 0 0 0 3.442.831l.775.11a26.4 26.4 0 0 0 7.655-.127s-1.875-.379-1.545-2.117"/><path fill="#fff" d="M86.025 191.023c-.347-2.64-11.89-9.948-11.89-9.948s-2.556-1.028-1.71-2.815q-.64.36-1.231.797c-.27.193-.517.391-.754.594-3.436 2.975-3.436 6.879 0 9.86a13.598 13.598 0 0 0 1.897 1.342q.587.339 1.221.637a17.384 17.384 0 0 0 2.14.836 22.4 22.4 0 0 0 3.442.831l.775.11a26.4 26.4 0 0 0 7.655-.127s-1.875-.379-1.545-2.117" opacity=".3"/><path fill="#F7921E" d="M75.148 179.888c-4.306 2.485-4.477 6.45-.55 9.056.165.11.34.22.55.325 4.487 2.595 11.757 2.595 16.25 0 4.492-2.596 4.486-6.791 0-9.381a19 19 0 0 0-.55-.303c-4.526-2.282-11.395-2.183-15.7.303"/><path fill="#000" d="M75.148 179.888c-4.306 2.485-4.477 6.45-.55 9.056.165.11.34.22.55.325 4.487 2.595 11.757 2.595 16.25 0 4.492-2.596 4.486-6.791 0-9.381a19 19 0 0 0-.55-.303c-4.526-2.282-11.395-2.183-15.7.303" opacity=".2"/><path fill="#F7921E" d="M83.28 190.919c6.069 0 10.988-2.839 10.988-6.34s-4.92-6.341-10.987-6.341-10.987 2.839-10.987 6.341c0 3.501 4.919 6.34 10.987 6.34"/><path fill="#000" d="M83.28 190.919c6.069 0 10.988-2.839 10.988-6.34s-4.92-6.341-10.987-6.341-10.987 2.839-10.987 6.341c0 3.501 4.919 6.34 10.987 6.34" opacity=".5"/><path fill="#F7921E" d="M75.516 181.868c4.29-2.48 11.24-2.48 15.53 0 1.753 1.012 2.793 2.282 3.112 3.596-.32 1.32-1.359 2.59-3.113 3.602-4.289 2.475-11.24 2.475-15.529 0-1.754-1.012-2.794-2.282-3.112-3.602.319-1.314 1.358-2.584 3.112-3.596"/><path fill="#000" d="M75.516 181.868c4.29-2.48 11.24-2.48 15.53 0 1.753 1.012 2.793 2.282 3.112 3.596-.32 1.32-1.359 2.59-3.113 3.602-4.289 2.475-11.24 2.475-15.529 0-1.754-1.012-2.794-2.282-3.112-3.602.319-1.314 1.358-2.584 3.112-3.596" opacity=".35"/><path fill="#F7921E" d="M90.204 186.492v-1.314c0-.55-.374-1.056-1.171-1.523h-.028a5.63 5.63 0 0 0-4.36-.396c-.578.148-1.1.335-1.65.506q-.859.326-1.749.55a3 3 0 0 1-.83.082 1.9 1.9 0 0 1-.688-.181l.055-.039.17-.11q.224-.129.463-.225a3.17 3.17 0 0 1 2.441-.055l1.408-1.425v-1.303a6.7 6.7 0 0 0-3.85-.137q-.63.163-1.226.423l-1.407-.814-1.666.963v1.303l.55.33c-.155.224-.24.487-.248.759v1.303c0 .55.385 1.056 1.193 1.523a4.9 4.9 0 0 0 2.32.671q.232.012.463 0a9.1 9.1 0 0 0 2.49-.55l.49-.17-1.386 1.429v1.304a6.914 6.914 0 0 0 5.433-.237l1.386.803 1.683-.973v-1.304l-.578-.329c.182-.252.284-.553.292-.864m-3.547-.115a3.613 3.613 0 0 1-1.761.491c-.472.006-.94-.08-1.379-.255 1.314-.462 2.414-.869 3.349-.368z"/><path fill="#F7921E" d="M84.639 183.237c-.577.149-1.1.336-1.65.506q-.858.327-1.748.55a3 3 0 0 1-.83.083 1.74 1.74 0 0 1-.798-.242c-.55-.308-.621-.77.165-1.282l.17-.11q.223-.129.462-.225a3.17 3.17 0 0 1 2.442-.055l1.407-1.424a6.7 6.7 0 0 0-3.849-.138q-.63.164-1.226.424l-1.408-.814-1.66.984 1.39.803c-1.412 1.072-1.445 2.2.144 3.101a4.87 4.87 0 0 0 2.32.671q.231.013.462 0a9 9 0 0 0 2.491-.55c1.617-.55 2.92-1.171 4.009-.55.726.418.55.946-.275 1.408a3 3 0 0 1-.39.198 3.62 3.62 0 0 1-2.8 0l-1.473 1.485a6.9 6.9 0 0 0 5.433-.237l1.386.803 1.682-.973-1.39-.786c1.396-1.1 1.56-2.26-.072-3.212h-.028a5.64 5.64 0 0 0-4.366-.418"/><path fill="#fff" d="M84.639 183.235c-.577.149-1.1.336-1.65.506q-.858.327-1.748.55a3 3 0 0 1-.83.083 1.74 1.74 0 0 1-.798-.242c-.55-.308-.621-.77.165-1.282l.17-.11q.223-.129.462-.225a3.17 3.17 0 0 1 2.442-.055l1.407-1.424a6.7 6.7 0 0 0-3.849-.138q-.63.164-1.226.424l-1.408-.814-1.66.984 1.39.803c-1.412 1.072-1.445 2.2.144 3.101a4.87 4.87 0 0 0 2.32.671q.231.013.462 0a9 9 0 0 0 2.491-.55c1.617-.549 2.92-1.171 4.009-.549.726.417.55.945-.275 1.407a3 3 0 0 1-.39.198 3.62 3.62 0 0 1-2.8 0l-1.473 1.485a6.9 6.9 0 0 0 5.433-.236l1.386.802 1.682-.973-1.39-.786c1.396-1.1 1.56-2.26-.072-3.212h-.028a5.64 5.64 0 0 0-4.366-.418" opacity=".3"/><path fill="#F5F5F5" d="m76.116 181.471 1.693-.769 1.397.61-1.413-.814zM80.234 180.944a7.84 7.84 0 0 1 3.613.121l-.979 1.386 1.408-1.424a6.66 6.66 0 0 0-4.042-.083M89 183.633h.027c1.65.951 1.468 2.134.072 3.212 1.237-1.348 1.017-2.288-.33-3.069a6.36 6.36 0 0 0-4.13-.55 5.65 5.65 0 0 1 4.36.407M89.099 186.867l1.066.82-1.358.956 1.683-.973zM86.261 186.574a3.6 3.6 0 0 1-2.678.231l-1.594 1.27 1.473-1.484a3.62 3.62 0 0 0 2.8-.017M81.257 184.283a2.2 2.2 0 0 1-2.012-.187c-.484-.418-.176-.869.55-1.254-.787.511-.71.973-.166 1.281.242.145.516.228.798.242q.422.016.83-.082M77.496 182.285c-.121.105-1.133 1.045-.688 1.991s1.958 1.649 3.157 1.781a4.9 4.9 0 0 1-2.32-.67c-1.595-.919-1.562-2.03-.15-3.102" opacity=".45"/><path fill="#F7921E" d="m102.419 206.546 46.555-26.796 23.273 13.396-46.552 26.796z"/><path fill="#fff" d="m102.419 206.546 46.555-26.796 23.273 13.396-46.552 26.796z" opacity=".7"/><path fill="#F7921E" d="m148.971 181.162-44.105 25.382 20.825 11.99 44.104-25.386zm-23.276 36.682-19.603-11.3 42.879-24.679 19.602 11.283z"/><path fill="#F7921E" d="M128.655 204.962c-2.086-1.198-3.233-2.837-3.233-4.615 0-1.94 1.403-3.858 3.844-5.265 4.779-2.755 12.29-2.912 16.748-.341 2.083 1.198 3.23 2.84 3.23 4.616 0 1.939-1.4 3.857-3.844 5.264-2.506 1.444-5.763 2.174-8.938 2.174-2.878-.01-5.691-.614-7.807-1.833m.819-9.518c-2.311 1.328-3.636 3.117-3.636 4.903 0 1.621 1.076 3.134 3.025 4.257 4.332 2.495 11.658 2.335 16.328-.342 2.312-1.331 3.636-3.117 3.636-4.905 0-1.622-1.072-3.134-3.021-4.258-2.048-1.184-4.797-1.771-7.603-1.771-3.096-.011-6.278.706-8.729 2.116"/><path fill="#F7921E" d="M129.409 203.659c-1.598-.918-2.479-2.096-2.479-3.315 0-1.386 1.127-2.83 3.073-3.96 2.185-1.259 5.169-1.98 8.193-1.98 2.731 0 5.234.577 7.057 1.625 1.597.922 2.475 2.1 2.475 3.315 0 1.39-1.123 2.83-3.09 3.964-2.185 1.256-5.165 1.976-8.193 1.976-2.711 0-5.216-.577-7.036-1.625" opacity=".5"/><path fill="#F7921E" d="M126.818 214.583a2.5 2.5 0 0 0-2.247 0l-1.328.764-12.771-7.299 1.54-.884a.69.69 0 0 0 .406-.529c0-.188-.147-.372-.406-.522l-1.54-.901 14.014-8.108-.273.594a5.4 5.4 0 0 0-.519 2.29c0 2.271 2.284 4.602 4.551 5.906a19.45 19.45 0 0 0 8.903 2.339 22 22 0 0 0 2.759-.178l1.024-.129-12.796 7.408z" opacity=".5"/><path fill="#fff" d="M120.635 209.731a1.42 1.42 0 0 1-.823-1.202c0-.505.342-.996.963-1.365 1.147-.662 2.946-.683 4.015-.082a1.42 1.42 0 0 1 .822 1.202c0 .505-.341.996-.962 1.348a4.4 4.4 0 0 1-2.137.519 3.84 3.84 0 0 1-1.878-.42" opacity=".4"/><path fill="#F7921E" d="M150.415 201.97a7.9 7.9 0 0 0 .536-2.789c0-1.891-1.492-3.711-4.438-5.404-2.359-1.366-5.982-2.274-9.013-2.274q-1.387.001-2.762.178l-1.024.133 12.795-7.343 1.325.768a2.53 2.53 0 0 0 2.243 0l1.328-.768 12.74 7.237-1.536.888c-.259.15-.403.341-.403.522a.678.678 0 0 0 .403.526l1.536.884-13.997 8.033z" opacity=".5"/><path fill="#fff" d="M149.93 192.922a1.43 1.43 0 0 1-.823-1.202c0-.505.341-.997.966-1.348 1.144-.659 2.946-.683 4.011-.082a1.43 1.43 0 0 1 .827 1.201c0 .506-.342.997-.967 1.349a4.4 4.4 0 0 1-2.137.519 3.84 3.84 0 0 1-1.877-.437" opacity=".4"/><path fill="#F7921E" d="M102.419 206.545v5.64l23.276 13.399v-5.643z"/><path fill="#fff" d="M102.418 206.543v5.64l23.276 13.399v-5.643z" opacity=".2"/><g fill="#000" opacity=".1"><path d="m125.695 221.199-7.351-4.076 7.351 4.421zM102.419 209.223l2.451 1.553-2.451-1.267zM102.419 210.566l12.249 7.258-12.249-6.841zM125.694 222.542l-12.249-6.831 12.249 7.275z"/></g><path fill="#F7921E" d="m125.695 225.587 46.552-26.795v-5.644l-46.552 26.796z"/><path fill="#000" d="m125.695 225.585 46.551-26.795v-5.644l-46.551 26.796z" opacity=".2"/><path fill="#000" d="m125.695 221.196 2.454-1.257-2.454 1.602zM125.695 222.543l12.317-6.865-12.317 7.309zM172.246 195.803l-8.575 5.1 8.575-4.769zM172.25 197.217l-4.902 2.98 4.899-2.663z" opacity=".3"/><path fill="#FAFAFA" d="m121.639 194.546 24.088 13.867 7.347-4.23-24.085-13.871z"/><path fill="#E0E0E0" d="M153.074 204.184v6.138l-7.347 4.23v-6.139zM145.727 214.549l-.43-.249.43-.249zM121.639 194.545v.935l.812-.467z"/><path fill="#000" d="M145.297 214.302v-5.637l.431-.249v5.64z" opacity=".3"/><path fill="#000" d="m145.297 208.66-23.276-13.399.43-.249 23.276 13.399z" opacity=".2" style="mix-blend-mode:multiply"/><path fill="#455A64" d="m122.431 194.088 24.092 13.867.611-.355-24.089-13.864zM127.579 191.127l24.092 13.864.611-.352-24.088-13.864z"/><path fill="#263238" d="M146.523 207.955v6.138l.611-.352V207.6zM151.671 204.992v6.138l.611-.355v-6.134z"/><path fill="#F7921E" d="m95.734 200.889 46.556-26.795 23.276 13.399-46.556 26.796z"/><path fill="#fff" d="m95.734 200.889 46.556-26.795 23.276 13.399-46.556 26.796z" opacity=".7"/><path fill="#F7921E" d="m142.29 175.51-44.108 25.379 20.825 11.989 44.107-25.385zm-23.283 36.662-19.596-11.283 42.879-24.679 19.599 11.283z"/><path fill="#F7921E" d="M121.97 199.31c-2.082-1.198-3.23-2.841-3.23-4.616 0-1.939 1.4-3.857 3.841-5.264 4.78-2.755 12.29-2.912 16.749-.341 2.082 1.198 3.233 2.837 3.233 4.615 0 1.939-1.403 3.858-3.844 5.264-2.51 1.445-5.766 2.175-8.938 2.175-2.881-.01-5.694-.614-7.811-1.833m.823-9.522c-2.311 1.332-3.636 3.121-3.636 4.906 0 1.622 1.072 3.134 3.021 4.257 4.333 2.493 11.659 2.335 16.329-.341 2.311-1.328 3.636-3.117 3.636-4.902 0-1.622-1.072-3.134-3.022-4.258-2.048-1.184-4.779-1.771-7.602-1.771-3.097-.014-6.278.7-8.726 2.109"/><path fill="#F7921E" d="M122.725 198.004c-1.598-.919-2.479-2.097-2.479-3.312 0-1.389 1.127-2.833 3.09-3.963 2.185-1.257 5.168-1.977 8.193-1.977 2.731 0 5.237.577 7.057 1.625 1.597.918 2.478 2.096 2.478 3.315 0 1.386-1.127 2.83-3.09 3.96-2.184 1.26-5.168 1.98-8.193 1.98-2.728 0-5.237-.567-7.056-1.628" opacity=".5"/><path fill="#F7921E" d="M120.134 208.926a2.5 2.5 0 0 0-2.243 0l-1.328.765-12.765-7.303 1.536-.884c.263-.15.407-.341.407-.526a.66.66 0 0 0-.407-.522l-1.536-.888 14.014-8.111-.273.597a5.4 5.4 0 0 0-.519 2.288c0 2.273 2.287 4.605 4.551 5.909a19.5 19.5 0 0 0 8.903 2.335q1.385 0 2.759-.174l1.024-.133-12.799 7.412z" opacity=".5"/><path fill="#fff" d="M113.951 204.074a1.43 1.43 0 0 1-.823-1.199c0-.505.341-.996.966-1.365 1.144-.659 2.946-.683 4.011-.079a1.43 1.43 0 0 1 .827 1.199c0 .505-.342.996-.967 1.365a4.4 4.4 0 0 1-2.137.519 3.83 3.83 0 0 1-1.877-.44" opacity=".4"/><path fill="#F7921E" d="M143.723 196.337c.347-.89.53-1.835.54-2.789 0-1.891-1.495-3.711-4.438-5.408-2.359-1.365-5.981-2.27-9.013-2.27a22 22 0 0 0-2.762.174l-1.024.133 12.795-7.34 1.328.765a2.52 2.52 0 0 0 2.24 0l1.328-.768 12.744 7.234-1.54.891a.665.665 0 0 0-.42.502.687.687 0 0 0 .403.526l1.537.884-13.997 8.033z" opacity=".5"/><path fill="#fff" d="M143.246 187.282a1.43 1.43 0 0 1-.827-1.201c0-.506.342-.997.967-1.349 1.143-.662 2.946-.683 4.014-.082a1.43 1.43 0 0 1 .823 1.199c0 .505-.341.996-.966 1.365a4.4 4.4 0 0 1-2.137.519 3.8 3.8 0 0 1-1.874-.451" opacity=".4"/><path fill="#F7921E" d="M95.734 200.889v5.643l23.276 13.396v-5.64z"/><path fill="#fff" d="M95.734 200.887v5.643l23.276 13.396v-5.64z" opacity=".2"/><g fill="#000" opacity=".1"><path d="m119.011 215.549-7.351-4.076 7.354 4.417zM95.734 203.572l2.452 1.554-2.448-1.267zM95.734 204.916l12.249 7.258-12.249-6.841zM119.014 216.89l-12.253-6.828 12.253 7.272z"/></g><path fill="#F7921E" d="m119.01 219.93 46.556-26.793v-5.643L119.01 214.29z"/><path fill="#000" d="m119.01 219.93 46.556-26.793v-5.643L119.01 214.29z" opacity=".2"/><path fill="#000" d="m119.01 215.545 2.455-1.256-2.451 1.598zM119.014 216.887l12.317-6.862-12.317 7.306zM165.566 190.15l-8.576 5.101 8.576-4.769zM165.565 191.566l-4.902 2.981 4.902-2.663z" opacity=".3"/><path fill="#FAFAFA" d="m114.958 188.888 24.085 13.867 7.35-4.226-24.085-13.871z"/><path fill="#E0E0E0" d="M146.393 198.529v6.135l-7.35 4.23v-6.138zM139.043 208.893l-.43-.249.43-.246zM114.958 188.889v.938l.813-.471z"/><path fill="#000" d="M138.613 208.647v-5.64l.43-.249v5.64z" opacity=".3"/><path fill="#000" d="m138.613 203.006-23.273-13.399.43-.25 23.273 13.4z" opacity=".2" style="mix-blend-mode:multiply"/><path fill="#455A64" d="m115.747 188.436 24.091 13.863.612-.351-24.089-13.864zM120.895 185.477l24.092 13.863.611-.351-24.089-13.864z"/><path fill="#263238" d="M139.838 202.299v6.138l.611-.352v-6.138zM144.987 199.34v6.135l.614-.352-.003-6.135z"/></svg>