<svg xmlns="http://www.w3.org/2000/svg" width="256" height="256" fill="none"><path stroke="#D5D5D5" d="M49.86 218.139c-21.554-12.444-32.218-28.68-32.218-44.816s10.664-32.378 32.219-44.833c21.551-12.442 49.832-18.679 78.139-18.679 28.308-.001 56.588 6.234 78.14 18.679 21.555 12.446 32.219 28.682 32.219 44.817s-10.664 32.377-32.219 44.832c-21.552 12.454-49.832 18.689-78.14 18.686-28.307-.003-56.588-6.244-78.14-18.686Z"/><path fill="#263238" d="m204.082 199.148-1.553-.793 1.553-.416z"/><path fill="#263238" d="M188.491 201.834s18.621-8.137 18.833-6.877c.05.247.05.503 0 .75l.052-.066-.378 2.337a5.46 5.46 0 0 1-2.898 1.17v-1.203q-.875.346-1.666.854c-1.194.774-1.978 2.143-3.257 3.729-.944 1.156-2.577 1.68-5.008 1.992-2.61.335-4.904-.203-5.541-.916-.505-.557-.212-1.605-.137-1.77"/><path fill="#FFBDA7" d="M189.006 201.409c.184-.184.855-.906 1.756-1.69a34 34 0 0 1 2.705-2.251q.713-.487 1.34-1.081.495-.515.944-1.076a20.5 20.5 0 0 0 2.289-3.776c.349-.627.62-1.295.807-1.987q.224-1.098.251-2.219c.07-3.36 0-3.894.028-6.452l7.816.373c-.278 1.416-.694 3.342-.854 4.951-.241 2.445-.312 2.988.599 5.442.269.722.68 1.416.704 2.19.042 1.256-.944 2.323-2.054 2.922-.915.472-1.963.699-2.832 1.227a9.3 9.3 0 0 0-2.36 2.242c-.632.793-1.147 1.732-2.024 2.285a8.1 8.1 0 0 1-3.031 1.005c-1.34.22-2.702.269-4.054.146-1.921-.184-3.342-.906-2.03-2.251"/><path fill="#37474F" d="M196.284 197.68a3.44 3.44 0 0 0-2.865-.302c-1.378 1.067-2.525 2.016-3.332 2.677-.977.807-1.836 1.543-1.813 2.482.033 1.473 5.712 1.997 8.907.642a3.94 3.94 0 0 0 2.27-1.94s-.439-2.067-3.167-3.559m10.856-5.135c-.472-.944-.646-1.44-.646-1.44-1.114.59-3.073 3.338-2.233 6.136a4.2 4.2 0 0 0 2.832-1.864 2.66 2.66 0 0 0 .066-2.832z"/><path fill="#263238" d="M220.866 195.114c-.543.83.071 4.021-.099 6.277-.151 2.049-.774 5.617-.184 7.656.698 2.422 2.157 5.239 5.031 3.049 1.78-1.359 2.832-3.143 3.12-6.093.213-2.049-.547-4.909-1.199-7.439-.76-2.964-1.043-4.541-1.043-4.541z"/><path fill="#FFBDA7" d="M226.983 180.094c.099 4.791-.528 8.142-.623 11.21a21.5 21.5 0 0 0 .349 4.149c.359 1.963.987 4.72 1.246 5.97.364 1.785.647 2.908 0 4.881a2.7 2.7 0 0 1-.207.444c-.892 1.619-3.092 2.832-3.776 2.6a1.2 1.2 0 0 1-1.232.402c-.076 0-.151-.038-.231-.062l-.232-.099a2.37 2.37 0 0 1-1.123-1.529 4 4 0 0 1-.104-.439c-.472-2.473-.052-4.059 0-5.027.08-1.109.043-2.53 0-4.328s-.373-7.448-.944-10.158c-.425-1.888-.944-4.248-1.51-6.796z"/><path fill="#37474F" d="M228.333 203.741c-1.699-.793-6.669-1-7.514 1.416-.066 2.275-.113 3.823 1.284 5.834 1.855 2.676 4.408-.066 5.404-1.817s1.029-4.201.826-5.433"/><path fill="#455A64" d="M221.81 117.417c2.332 4.39 4.059 7.977 4.121 20.943.061 12.966-.024 16.595 0 18.158.023 1.562.901 4.37 1.595 12.078s-.618 23.024-.618 23.024-.411 1.128-3.356 1.35c-2.719.208-3.828-.944-3.828-.944s-3.658-20.99-4.626-25.639c-.967-4.649-3.776-19.942-3.776-19.942l-1.945 12.343s.775 4.248-.146 11.002c-.92 6.755-2.733 19.484-2.733 19.484a7.6 7.6 0 0 1-4.134 1.19 7.1 7.1 0 0 1-3.644-1.01s-1.808-26.527-1.69-34.173.311-26.734 2.874-38.029z"/><path fill="#37474F" d="M201.216 128.259c1.11 3.176 5.277 5.446 7.118 5.914l2.001 12.102-.944 12.522 1.945-12.343-2.223-14.745s-5.098-.439-7.897-3.45m17.521-1.303c.288 1.246.543 2.501.817 3.776s.542 2.506.83 3.776a24.6 24.6 0 0 0-.203-3.875 39 39 0 0 0-.646-3.824 33 33 0 0 0-1.058-3.738 18 18 0 0 0-1.609-3.54 92 92 0 0 1 1.005 3.72c.312 1.241.595 2.454.864 3.705m2.209-2.36c.406.755.793 1.515 1.18 2.28l1.147 2.336a10.4 10.4 0 0 0-.557-2.577 17 17 0 0 0-1.048-2.422 18 18 0 0 0-1.392-2.227 13.6 13.6 0 0 0-1.723-1.987c.368.797.779 1.562 1.185 2.322s.816 1.515 1.208 2.275m-2.402 34.928c-.68-3.974-1.152-7.991-1.615-12.008-.462-4.017-.896-8.047-1.416-12.064.189 4.045.425 8.09.77 12.125.344 4.036.774 8.072 1.444 12.084s1.454 7.962 2.233 11.941a499 499 0 0 0 2.459 11.895 453 453 0 0 0-1.832-12.008 651 651 0 0 0-2.043-11.975zm-18.229-13.726.802-10.544a160 160 0 0 0-1.416 10.487c-.363 3.517-.712 7.019-.774 10.583.071 3.554.293 7.08.534 10.587.24 3.507.542 7.032.911 10.544q-.08-5.295-.274-10.577l-.194-5.287c-.066-1.756-.151-3.521-.16-5.267s.123-3.498.226-5.254.246-3.521.345-5.281z"/><path fill="#FFBDA7" d="M205.974 93.776c-4.531.613-6.235 3.016-8.363 6.806-1.822 3.252-3.918 6.938-3.918 6.938-.647-.524-5.938-4.871-7.198-6.546-1.331-1.77-.854-2.606-.859-3.833s-.434-2.166-.189-4.078c.118-.911-.868-.718-1.26-.184-.798 1.076-.703 3.025-1.223 2.936a4.7 4.7 0 0 1-1.416-1.525c-.967-1.487-1.165-2.832-1.958-4.427-.307-.604-.718-1.275-1.487-1.251a2 2 0 0 0-.236.033.29.29 0 0 0-.208.236 3 3 0 0 0 0 .623c0 .146.09.576.09.576s-.694.113-.798.406c-.141.463-.131.959.028 1.416-.287.203-.736.722-.278 1.817-.26.109-.817.854-.359 2.36a19 19 0 0 0 1.761 3.903c1.133 1.813 2.218 2.483 3.747 4.376 1.53 1.893 4.366 6.06 6.911 8.968 2.959 3.37 4.148 4.248 7.018 2.671 1.482-.821 9.44-11.719 9.44-11.719z"/><path fill="#F0997A" d="M182.176 96.527c-.755.992-.708 2.983.788 4.48-1.751-.765-2.393-3.404-.788-4.48"/><path fill="#263238" d="M205.719 93.629c-3.676.755-5.036 1.93-6.272 3.653s-5.905 10.12-5.905 10.12l-5.447-4.72s.132 1.539-1.416 3.304-2.511 1.416-2.511 1.416 3.545 5.418 5.895 7.731c2.351 2.313 3.871 2.167 5.872.836s9.553-11.602 9.553-11.602z"/><path fill="#FAFAFA" d="M199.456 120.533c.265-2.105.472-3.701.529-4.588 0-2.181-.043-5.579-.043-5.579-3.879-3.559-2.062-7.198-.618-9.398 2.412-3.658 4.64-5.484 6.651-7.193a47 47 0 0 1 6.985-.864 19.5 19.5 0 0 1 5.23.505c1.482.274 5.149 1.185 5.149 1.185 1.086.6 2.035 1.808 1.997 5.154-.028 2.908-.349 4.22-1.322 6.839-1.364 3.682-1.562 5.414-2.029 7.274-.604 2.417-.203 4.196.873 6.457.524 1.09.052 2.218-3.054 3.719-2.081 1.01-9.832 2.422-16.26.449-2.535-.774-4.229-2.79-4.088-3.96"/><path fill="#263238" d="M221.395 82.914c-1.464 3.13-3.116 4.272-4.48 7.109-3.46-.147-7.722-5.636-11.71-7.968-2.332-1.36-3.847-3.068-3.186-5.867 1.09-4.592 4.885-7.014 11.403-5.579 2.639.58 5.561 2.714 6.07 5.697 3.219 1.142 2.88 4.517 1.903 6.608"/><path fill="#FFBDA7" d="M205.507 75.579c-.694.316-1.808 1.94-2.091 8.27-.222 5.125 1.553 6.966 2.544 7.42a8.5 8.5 0 0 0 3.403.504v1.855c-1.416 1.128-2.11 4.078-1.076 6.443 4.432-1.147 7.458-3.545 8.675-5.768v-5.952s1.242 1.01 2.898-.236c1.369-1.033 1.638-3.138.708-4.248a2.3 2.3 0 0 0-.894-.586 2.323 2.323 0 0 0-2.801 1.02s-2.016 1.341-1.832-1.888c.203-3.639-1.217-7.315-3.714-6.574-4.503 1.35-4.399-.935-5.82-.26"/><path fill="#F0997A" d="M209.364 91.773c1.661-.094 4.998-.972 5.838-2.775 0 0-.193 1.572-1.274 2.36-1.652 1.194-4.569 1.487-4.569 1.487zM208.821 81.154l-.6 4.678-2.062-.958z"/><path fill="#B16668" d="m210.794 86.572-2.516.836a1.3 1.3 0 0 0 .639.795 1.3 1.3 0 0 0 1.018.087 1.386 1.386 0 0 0 .859-1.718"/><path fill="#F28F8F" d="M209.934 88.295q-.078.024-.16.037a1.205 1.205 0 0 1 1.071-1.293 1.36 1.36 0 0 1-.911 1.256"/><path fill="#263238" d="M205.021 81.99c-.156.363.099.504.472.65s.67.25.826-.113a.694.694 0 1 0-1.279-.538z"/><path fill="#263238" d="M206.277 81.744q-.239-.15-.51-.222a1.5 1.5 0 0 0-.533-.066c-.191.01-.38.052-.557.123 0 0-.029.047 0 .047q.235-.015.472 0 .305.018.594.113.354.103.666.297c.066.043.198.123.212.137s.038-.037.029-.056a1.2 1.2 0 0 0-.373-.373M206.281 79.738l-1.6.547a.883.883 0 0 1 .543-1.1.82.82 0 0 1 1.057.553M211.954 82.334c.109.387-.16.472-.533.59s-.694.16-.802-.227a.68.68 0 0 1 .041-.551.692.692 0 0 1 1.294.188"/><path fill="#263238" d="M210.746 81.938q.257-.114.534-.151c.178-.034.36-.034.538 0q.282.055.533.198s.024.047 0 .042c-.146-.023-.273-.056-.472-.08a2.4 2.4 0 0 0-.604.033 2.5 2.5 0 0 0-.698.208l-.227.108s-.033-.042-.024-.061c.119-.127.262-.228.42-.297M210.912 79.8l1.51.76a.886.886 0 0 0-.406-1.176.826.826 0 0 0-1.104.415"/><path fill="#37474F" d="M216.953 92.84s-4.045 7.887-5.484 11.724-1.048 7.014-1.091 14.16c-.033 5.485 0 13.764 0 13.764s11.947.16 15.444-4.248c-.661-2.776-2.992-8.312-3.559-10.092-.566-1.779-.472-4.248.902-8.156 1.373-3.908 2.308-6.919 2.459-9.912.151-2.992-1.081-4.918-1.798-5.48zM209.359 92.756v.873s-7.43 6.905-7.906 13.919c-.477 7.014-.902 22.855-.902 22.855a10.6 10.6 0 0 1-2.648-2.214c.312-3.186 1.388-15.774 1.09-17.219-.297-1.444-3.743-4.72-.599-9.407a38 38 0 0 1 7.325-7.934z"/><path fill="#263238" d="m212.351 113.779-1.241 2.19 1.378-2.128c.472-.699.906-1.416 1.359-2.124l.336-.529.169-.269.123-.198.043-.099c.064-.224.083-.458.056-.69a6 6 0 0 0-.085-.641 22 22 0 0 0-.561-2.266 13 13 0 0 0 1.675-.448 4.5 4.5 0 0 0 1.733-.978c.128-.136.229-.297.297-.472a1.2 1.2 0 0 0 .047-.254v-.246l.061-.944.128-1.888c.151-2.544.297-5.088.382-7.637-.283 2.535-.51 5.079-.731 7.623l-.147 1.888-.075.944v.236a1 1 0 0 1-.038.179 1 1 0 0 1-.217.326 4.4 4.4 0 0 1-1.581.873q-.886.317-1.808.501l-.222.033.066.203q.387 1.185.633 2.407c.037.203.075.406.094.604.034.184.034.373 0 .557v.052l-.042.066-.553.944a88 88 0 0 0-1.279 2.185m-13.551-5.73c0 .208.052.397.085.595.066.387.146.769.227 1.152a71 71 0 0 0 1.156 4.54c-.307-1.529-.614-3.058-.892-4.592a30 30 0 0 1-.184-1.147 8 8 0 0 1-.057-.567 1.1 1.1 0 0 1 .062-.509 7.5 7.5 0 0 1 1.213-1.912l.075-.09-.047-.108q-.357-.813-.581-1.671a6 6 0 0 1-.155-.855 2.3 2.3 0 0 1 .042-.844c.089-.261.23-.5.415-.704.18-.231.369-.472.567-.689.387-.472.788-.901 1.194-1.345.807-.892 1.619-1.775 2.45-2.643.83-.869 1.652-1.747 2.539-2.558-.472.358-.944.764-1.378 1.165-.434.402-.892.812-1.322 1.232-.864.84-1.718 1.69-2.549 2.563-.41.444-.821.883-1.217 1.341-.199.226-.397.472-.586.698-.22.242-.389.526-.495.836-.08.316-.099.644-.057.967q.05.466.175.916.228.834.58 1.624a7.4 7.4 0 0 0-1.184 1.944 1.7 1.7 0 0 0-.076.321 2.4 2.4 0 0 0 0 .34M223.486 94.53c3.568.627 4.984 2.803 6.556 7.438 2.143 6.33 4.026 12.569 4.427 15.736l-8.416-2.298-4.502-9.063s-1.69-7.282 1.935-11.814"/><path fill="#F7921E" d="m206.418 130.166 18.214-2.799 2.771-23.349-18.214 2.803z"/><path fill="#000" d="m206.418 130.166 18.214-2.799 2.771-23.349-18.214 2.803z" opacity=".2"/><path fill="#FAFAFA" d="m207.093 129.147 17.45-2.69 2.582-21.773-17.45 2.685z"/><path fill="#F7921E" d="m209.335 122.549 1.737-14.703 16.327-3.832-2.771 23.359-17.261 4.054a.439.439 0 0 1-.543-.285.43.43 0 0 1-.009-.224l.882-7.448a.83.83 0 0 1 .6-.68z"/><path fill="#FFBDA7" d="M234.351 117.706c0 2.398-.354 2.794-2.978 4.139s-9.256 3.418-14.505 3.923c-3.422.33-5.192.17-6.509-.354a5.489 5.489 0 0 1-3.426-6.018c-.572-1.652.297-1.888 1.01-2.053l-.132 1.08s1.534 1.044 2.95 1.062.099-1.633-.152-2.633c-.25-1.001-.202-1.577.614-2.049.472 0 .614.633 2.039 2.053 1.086 1.077 1.931 3.045 3.606 2.832 1.317-.174 9.129-3.776 9.129-3.776l.354-2.992z"/><path fill="#263238" d="M234.469 117.706c.104 1.496-.161 2.275-.85 2.921-.689.647-3.526 1.978-5.272 2.587s-6.315 1.845-7.188 2.006c.906-1.416.684-4.215-.085-5.471-.77-1.255-1.789-.944-1.789-.944l6.721-3.025.472-4.092zM108.138 181.403l1.478-.797-1.501-.364z"/><path fill="#263238" d="M123.19 183.644s-18.082-7.42-18.261-6.207c-.036.242-.024.489.037.727l-.051-.062.41 2.238c.82.622 1.805.991 2.832 1.062v-1.162a9 9 0 0 1 1.6.779c1.166.718 1.95 2.016 3.215 3.517.944 1.09 2.515 1.557 4.856 1.803 2.521.264 4.72-.298 5.31-1.001.435-.557.142-1.539.052-1.694"/><path fill="#FFA8A7" d="M122.685 183.247c-.179-.174-.84-.854-1.727-1.59a34 34 0 0 0-2.648-2.105 10 10 0 0 1-1.312-1.01 15 15 0 0 1-.921-1.015 19 19 0 0 1-2.072-3.172 5.07 5.07 0 0 1-.637-2.738c-.01-2.666.147-5.33.472-7.976l-8.571.141c.297 1.35.472 3.663.66 5.192.284 2.36.364 2.865-.472 5.249-.24.703-.618 1.378-.627 2.124 0 1.203.967 2.209 2.043 2.761.888.472 1.888.628 2.762 1.119a8.8 8.8 0 0 1 2.298 2.105c.628.746 1.138 1.638 2.001 2.152a7.8 7.8 0 0 0 2.932.897c1.293.183 2.605.202 3.903.057 1.86-.199 3.21-.926 1.916-2.191"/><path fill="#37474F" d="M121.614 181.969c-.788-.618-1.912-1.51-3.262-2.506a3.34 3.34 0 0 0-2.747.354c-2.591 1.496-2.969 3.493-2.969 3.493a3.8 3.8 0 0 0 2.228 1.817c3.101 1.232 8.548.604 8.553-.812 0-.901-.84-1.59-1.803-2.346m-15.987-8.25s-.16.472-.594 1.416a2.56 2.56 0 0 0 .127 2.723 4.08 4.08 0 0 0 2.747 1.732c.741-2.728-1.199-5.333-2.28-5.871"/><path fill="#263238" d="M91.816 176.929c.5.812-.15 3.861-.037 6.037.108 1.973.632 5.418.028 7.367-.722 2.313-2.18 4.994-4.9 2.832-1.684-1.34-2.652-3.077-2.879-5.918-.16-1.978.628-4.72 1.303-7.132.793-2.832 1.095-4.347 1.095-4.347z"/><path fill="#FFA8A7" d="M86.237 162.361c-.193 4.607.34 7.84.373 10.79a21 21 0 0 1-.42 3.984c-.387 1.888-1.043 4.498-1.322 5.721-.387 1.703-.68 2.775-.09 4.687q.077.225.194.434c.822 1.576 2.913 2.766 3.583 2.572a1.164 1.164 0 0 0 1.18.416l.222-.057a1.3 1.3 0 0 0 .221-.09 2.27 2.27 0 0 0 1.114-1.449q.069-.205.109-.415c.472-2.36.132-3.908.09-4.838-.052-1.067 0-2.431.103-4.163.104-1.732.506-7.156 1.105-9.747.448-1.813 1-4.083 1.586-6.504z"/><path fill="#37474F" d="M84.463 185.075c1.647-.727 6.428-.831 7.193 1.496 0 2.195.033 3.677-1.35 5.589-1.841 2.534-4.248-.156-5.164-1.86s-.906-4.045-.68-5.225"/><path fill="#455A64" d="M92.473 102.191c-2.332 4.178-4.21 7.699-4.815 18.729-.689 12.452-.585 17.195-.646 18.696s-1.025 4.248-1.85 11.659c-.827 7.41.047 25.341.047 25.341s.58 1.209 3.412 1.482c2.61.255 4.14-.66 4.14-.66s4.148-23.558 5.192-28.009c1.043-4.451 4.012-19.102 4.012-19.102l1.619 11.909s-.826 4.083-.076 10.582c.751 6.5 2.138 18.932 2.138 18.932a9.15 9.15 0 0 0 3.861 1.416 6.56 6.56 0 0 0 4.225-.911s2.529-25.762 2.581-33.12c.052-7.359-.514-25.729-2.751-36.642z"/><path fill="#37474F" d="m104.4 116.2-2.435 14.16 1.619 11.909-.638-12.06 2.148-11.649c1.779-.415 5.834-2.511 6.967-5.546-2.757 2.861-7.661 3.186-7.661 3.186m-8.236-8.335c.32-1.185.66-2.36 1.043-3.554a17 17 0 0 0-1.624 3.37 33 33 0 0 0-1.095 3.563 37 37 0 0 0-.703 3.663 24.6 24.6 0 0 0-.274 3.724c.307-1.208.595-2.407.878-3.611.283-1.203.562-2.398.859-3.592s.58-2.383.897-3.573zm-1.775-.902c.406-.727.812-1.449 1.185-2.213a13 13 0 0 0-1.695 1.888q-.77 1.007-1.388 2.114-.615 1.112-1.052 2.303a10 10 0 0 0-.59 2.469l1.147-2.218c.392-.727.774-1.454 1.18-2.172.406-.717.793-1.458 1.194-2.18zm-1.827 47.252a448 448 0 0 0-2.001 11.512 450 450 0 0 0 2.605-11.389c.827-3.809 1.61-7.609 2.389-11.441s1.227-7.713 1.633-11.588.717-7.76.982-11.644c-.562 3.856-1.076 7.717-1.591 11.573s-1.057 7.703-1.798 11.512-1.53 7.628-2.238 11.456zM112.858 135c.066 1.685.151 3.384.114 5.055-.038 1.671-.166 3.375-.26 5.065l-.335 5.064a419 419 0 0 0-.472 10.167q.637-5.055 1.09-10.12c.302-3.384.585-6.754.727-10.166 0-3.432-.255-6.807-.533-10.196a155 155 0 0 0-1.171-10.115l.562 10.158c.075 1.694.17 3.384.236 5.079z"/><path fill="#FFA8A7" d="M123.232 88.55s.128 1.1-1.529 3.258c-1.534 1.996-.849 4.72.883 5.083s3.719-.944 6.174-2.166c2.548-1.256 7.047-3.824 9.298-5.192 1.378-.845 2.945-.878 4.456-1.28a10 10 0 0 0 4.035-2.312c.454-.387.85-.837 1.176-1.336a2.84 2.84 0 0 0 .472-1.496.98.98 0 0 1 .358-.92c.286-.312.441-.72.434-1.143a10 10 0 0 1-.103-1.534c.052-.373-.076-.977-.6-.906a.9.9 0 0 0-.325.141c-1.067.647-2.039 1.416-3.097 2.1a5.2 5.2 0 0 1-1.605.846c-.778.118.029-.864.199-1.133q.279-.38.472-.812a3 3 0 0 0 .132-1.539.4.4 0 0 0-.062-.174.335.335 0 0 0-.387-.094.95.95 0 0 0-.335.254c-.472.472-.944.996-1.463 1.444-.519.449-1.189.911-1.751 1.416-.812.718-1.487 1.577-2.289 2.299-.803.722-1.813 1.09-2.861 1.543-2.978 1.26-8.609 2.724-11.682 3.654"/><path fill="#F7921E" d="M107 78.565c2.464.325 4.65 1.047 8.024 3.662 5.098 3.97 8.185 6.136 8.185 6.136l7.599-2.147c-.33 2.756.472 5.192 2.422 6.348a60.5 60.5 0 0 1-6.892 3.663c-4.097 1.935-5.003 1.619-7.901-.265-2.997-1.954-11.092-6.778-11.092-6.778z"/><path fill="#000" d="M107 78.565c2.464.325 4.65 1.047 8.024 3.662 5.098 3.97 8.185 6.136 8.185 6.136l7.599-2.147c-.33 2.756.472 5.192 2.422 6.348a60.5 60.5 0 0 1-6.892 3.663c-4.097 1.935-5.003 1.619-7.901-.265-2.997-1.954-11.092-6.778-11.092-6.778z" opacity=".15"/><path fill="#000" d="M123.195 88.387c-2.459.967-3.37 2.36-3.37 2.36s.071-1.86 2.431-3.016z" opacity=".1"/><path fill="#263238" d="M93.865 61.369c-1.633 1.666-1.803 4.323-1.166 6.532a12.8 12.8 0 0 0 1.487 2.922 27 27 0 0 0 3.304 4.404 3.66 3.66 0 0 0 1.746 1.151c1.164.325 2.361.516 3.568.571.472 0 .992.16 1.331-.212.277-.404.473-.857.576-1.336a17.2 17.2 0 0 1 2.2-4.352c.783-1.123 1.826-2.685 3.063-3.304.51-.25 1.086-.58 1.175-1.142a1.415 1.415 0 0 0 .883 1.496.89.89 0 0 1-.118-1.156c.212-.373.552-.66.75-1.034a1.67 1.67 0 0 0-.042-1.623.946.946 0 0 1 .378 1.307 1.57 1.57 0 0 0 .797-1.345c0-1.303-1.345-1.714-1.921-2.705a9 9 0 0 1-.472-1.496 10 10 0 0 0-.472-1.152 6.3 6.3 0 0 0-1.557-1.968c-2.478-2.09-6.08-1.959-9.02-1.08a8.43 8.43 0 0 0-3.842 2.222 4.64 4.64 0 0 0-1.36 2.285 4.9 4.9 0 0 0-1.288 1.015"/><path fill="#FAFAFA" d="M89.83 107.733c-.85-1.053.405-.944.892-7.788.127-1.765-1.35-6.523-1.35-6.523s1.515-2.979.472-11.493l7.132-3.56 8-.353 3.233 1.19c1.072.943 3.035 2.477 4.593 4.776 2.242 3.304 2.581 6.929.16 9.567-.038.524.302 8.529.944 10.483.609 1.817.472 3.073-.472 3.88-3.625 4.121-14.891 5.305-23.605-.179"/><path fill="#FFA8A7" d="M96.022 72.918a2.54 2.54 0 0 1-2.275-.864c-1.194-1.316-1.308-2.657-.75-3.549.472-.736 1.585-1.203 2.36-.708s.873.944 1.194 1.562 1.142.128.863-2.28c1.648-.773 1.379-3.53 2.266-4.653 1.416-1.76 3.682-1.308 4.427-.892a2.99 2.99 0 0 1 3.12-.203c1.109.59 1.846 1.836 2.238 6.136.401 4.361-.354 7.269-1.36 8.198-.694.633-1.982 1.067-3.516.977v1.648s4.437 4.62-1.218 4.205a8.89 8.89 0 0 1-6.405-3.63l-.038-6.608s-.08.52-.906.661"/><path fill="#B16668" d="M105.302 72.14a1.26 1.26 0 0 1-1.463.946 1.26 1.26 0 0 1-1.011-1.418z"/><path fill="#F28F8F" d="M102.819 72.06a1.25 1.25 0 0 0 1 1.071c.147.028.298.028.444 0a1.28 1.28 0 0 0-1.444-1.071"/><path fill="#263238" d="M103.182 67.83a.74.74 0 0 1-.349.438.74.74 0 0 1-.557.062.75.75 0 0 1-.554-.633.75.75 0 0 1 .382-.75.748.748 0 0 1 1.081.442.75.75 0 0 1-.003.44M108.568 65.035l-1.515-.812a.81.81 0 0 1 .488-.432.82.82 0 0 1 .649.06.9.9 0 0 1 .378 1.184M107.35 67.637a.72.72 0 0 0 .37.441.72.72 0 0 0 .574.031.74.74 0 0 0 .508-.654.75.75 0 0 0-.411-.72.744.744 0 0 0-1.052.47.75.75 0 0 0 .011.432M102.205 64.403l-1.619.878a.895.895 0 0 1 .336-1.242.966.966 0 0 1 1.283.364"/><path fill="#37474F" d="M110.446 65.438h-.321a9.7 9.7 0 0 0-3.205.245c-1 .345-1.34.699-1.888.727s-1.01-.292-2.124-.547c-1.141-.161-2.3-.144-3.436.052l-.34.056a.51.51 0 0 0-.344.567c.059.24.187.459.368.628q.09.114.132.254.197.901.538 1.756c.121.232.281.44.472.619q.111.097.236.174l.132.08q.193.102.402.16h.278q.168.032.34.039h.33c1.416-.062 1.954-.737 2.257-1.416.302-.68.151-1.633.802-1.662h.123c.472.085.472.944.826 1.572.124.27.293.518.5.732l.113.103.062.048.066.042a.3.3 0 0 0 .061.038l.061.038.052.028h.033q.275.136.576.194h.052q.343.06.689.037a1.93 1.93 0 0 0 1.888-1.321q.218-.887.283-1.794a.55.55 0 0 1 .104-.236c.155-.19.244-.425.255-.67a.55.55 0 0 0-.373-.543m-6.608 2.832a1.9 1.9 0 0 1-.425.944 1.96 1.96 0 0 1-1.5.6 1.79 1.79 0 0 1-1.52-.614l-.052-.066-.047-.066-.043-.062-.033-.052-.024-.047v-.037l-.033-.067q-.048-.1-.089-.193l-.043-.118c0-.066-.047-.132-.061-.189v-.071c-.137-.472-.33-1.378-.1-1.6.232-.222.85-.472 1.889-.41h.113c.161 0 .321.033.472.06l.189.034c.17.038.33.08.472.127l.146.052.161.066h.033l.056.029q.191.078.331.231c.236.293.198.901.127 1.425zm6.103-.472a1.96 1.96 0 0 1-.892 1.548 1.8 1.8 0 0 1-.769.203 1.79 1.79 0 0 1-1.614-.632l-.029-.043-.038-.047-.047-.076a1 1 0 0 1-.047-.085l-.024-.042v-.061a3 3 0 0 1-.127-.345 2.22 2.22 0 0 1-.061-1.416c.179-.297.944-.647 1.671-.77.169-.028.33-.046.472-.056h.561q.121.007.241.028h.231l.118.038a.9.9 0 0 1 .269.147c.241.184.175 1.113.104 1.585z"/><path fill="#F28F8F" d="m107.232 69.945-2.393 1.033-.373-2.874c.085-.472.166-.86.557-.897z"/><path fill="#37474F" d="m99.067 66.027-3.691 1.77q.31.206.57.472l3.215-1.463z"/><path fill="#F28F8F" d="M104.608 76.624c-2.209-.08-5.193-.868-5.971-2.294.443 1.539 2.001 2.36 3.242 2.686.886.251 1.796.41 2.714.472z"/><path fill="#F7921E" d="m104.99 78.016 3.233.896c2.997 2.36 6.532 6.476 6.665 9.676a16.8 16.8 0 0 1-.576 5.362s-.34 6.608.33 10.068 2.242 11.8 2.242 11.8a10.1 10.1 0 0 1-4.271 2.421c-.685-4.417-2.275-21.089-2.087-24.959.189-3.87.335-10.257-5.536-15.264"/><path fill="#000" d="m104.99 78.016 3.233.896c2.997 2.36 6.532 6.476 6.665 9.676a16.8 16.8 0 0 1-.576 5.362s-.34 6.608.33 10.068 2.242 11.8 2.242 11.8a10.1 10.1 0 0 1-4.271 2.421c-.685-4.417-2.275-21.089-2.087-24.959.189-3.87.335-10.257-5.536-15.264" opacity=".3"/><path fill="#000" d="M111.187 95.366c.274-1.024.571-2.044.873-3.054s.59-2.034.869-3.049a13 13 0 0 0 .321-1.53c.09-.471-.25-.896-.581-1.283a14.2 14.2 0 0 0-2.393-2.016l-.08-.056v-.094a5 5 0 0 0 .028-1.68 4.4 4.4 0 0 0-.547-1.596 5 5 0 0 0-1.166-1.242 8 8 0 0 0-1.477-.91 7.2 7.2 0 0 1 1.543.816 4.7 4.7 0 0 1 1.26 1.232c.32.505.538 1.068.642 1.657a5.1 5.1 0 0 1 0 1.788l-.061-.15c.901.58 1.73 1.266 2.468 2.043.184.204.342.43.472.67q.054.096.09.199.046.104.062.217.032.219 0 .439a11.5 11.5 0 0 1-.35 1.567c-.278 1.024-.628 2.03-.944 3.03s-.679 2.001-1.029 3.002" opacity=".2"/><path fill="#F7921E" d="M96.99 78.37s.944 1.981 2.638 6.05 3.304 7.774 3.195 11.507c-.108 3.734-1.958 23.129-1.958 23.129s-6.792 0-9.728-.944l.472-7.604-1.803 7.183a8.6 8.6 0 0 1-2.592-1.416c.605-8.208 3.38-11.8 2.86-16.604-.471-4.428-3.36-8.393-.698-18.65z"/><path fill="#000" d="M96.99 78.37s.944 1.981 2.638 6.05 3.304 7.774 3.195 11.507c-.108 3.734-1.958 23.129-1.958 23.129s-6.792 0-9.728-.944l.472-7.604-1.803 7.183a8.6 8.6 0 0 1-2.592-1.416c.605-8.208 3.38-11.8 2.86-16.604-.471-4.428-3.36-8.393-.698-18.65z" opacity=".3"/><path fill="#000" d="M102.092 97.028a8.7 8.7 0 0 0-1.416-2.615c-.585-.807-1.227-1.567-1.888-2.317-.321-.378-.656-.75-.991-1.124l-.477-.557c-.085-.099-.17-.184-.255-.292a1 1 0 0 1-.066-.09 1 1 0 0 1-.061-.146 1.2 1.2 0 0 1 0-.25 4.5 4.5 0 0 1 .557-1.478q.366-.67.797-1.298v.25l-1.524-1.59-.746-.798-.184-.198-.095-.1a.47.47 0 0 1-.16-.504c0-.095.024-.19.038-.284.141-.72.33-1.432.566-2.128.231-.694.472-1.388.732-2.068-.19.708-.387 1.416-.557 2.115a20 20 0 0 0-.472 2.124 1.4 1.4 0 0 0 0 .472c-.024-.038 0 0 .052.047l.094.095.198.193.77.784 1.538 1.571.109.109-.09.137c-.269.41-.524.84-.755 1.274a4.3 4.3 0 0 0-.524 1.308 1 1 0 0 0 0 .15l.047.062q.108.146.232.278l.495.567q.495.563.977 1.142a29 29 0 0 1 1.799 2.421q.418.635.75 1.317c.239.446.411.925.51 1.421" opacity=".2"/><path fill="#B16668" d="m151.775 173.784.769-6.792-8.17.515s.122 3.672.236 5.753c.07 1.232-1.676 3.517-1.676 3.517s3.837 1.949 5.891 1.269c2.053-.679 3.148-3.11 3.12-3.643-.029-.534-.17-.619-.17-.619"/><path fill="#263238" d="M133.664 184.349c-.123 0-.321 1.255.316 1.803.736.632 2.917 1.685 5.815 1.378s4.489-1.142 5.664-2.053 2.832-2.2 4.135-2.455c1.222-.236 2.553-.745 2.95-1.099.396-.354.363-1.964.363-1.964z"/><path fill="#455A64" d="M151.831 173.758a.47.47 0 0 1 .434.382c.08.444.156 1.732.34 2.464.278 1.283.352 2.602.222 3.908-.175.821-2.167 1.359-3.441 1.803a16.1 16.1 0 0 0-4.149 2.422c-1.378 1.052-4.248 2.124-6.136 2.076-2.237-.052-4.72-.793-5.3-1.798-.694-1.241-1.19-2.681 2.142-4.102.633-.264 2.856-1.482 3.616-1.921 2.048-1.194 3.493-2.294 4.465-4.451a1.2 1.2 0 0 1 .472-.656 1.1 1.1 0 0 1 .642-.047c.552.085 2.747.415 3.247.656.501.241 1.072.472 1.053 1.005a1.8 1.8 0 0 1-.137.553c-.038.113-.076.259.028.33s.222 0 .312-.08a8.4 8.4 0 0 0 .906-1.015q.238-.282.533-.5.296-.157.572-.345c.212-.184.165-.429.179-.684"/><path fill="#37474F" d="M145.237 184.736a22 22 0 0 1 1.827-1.265s-3.932 2.209-5.489 1.147c-1.001-.684-.51-1.482-.472-1.741.037-.26-3.526-2.143-4.508-2.275-.278.141-.51.254-.656.316-3.332 1.416-2.832 2.86-2.143 4.101.562 1.006 2.36 1.813 5.258 1.865 1.883.028 4.805-1.095 6.183-2.148"/><path fill="#37474F" d="M141.381 182.126c-2.072.756-1.199 1.138-.623 1.228.576.089 4.073-1.794 6.211-3.366 2.233-1.638 3.654-3.445 4.48-4.045.311-.226.642-.5.944-.76-.048-.439-.085-.835-.123-1.043a.47.47 0 0 0-.434-.382c0 .255.033.495-.175.684q-.276.188-.571.345a3 3 0 0 0-.533.5 8.5 8.5 0 0 1-.907 1.015c-1.826 2.162-6.197 5.069-8.269 5.824"/><path fill="#263238" d="M140.909 183.065a.22.22 0 0 0 .128-.042.2.2 0 0 0 .076-.13.2.2 0 0 0-.043-.144c-.571-.694-3.304-2.36-4.819-2.232a.195.195 0 0 0-.175.135.2.2 0 0 0-.01.077.2.2 0 0 0 .073.137.2.2 0 0 0 .149.042c1.416-.122 4.012 1.534 4.461 2.082a.22.22 0 0 0 .16.075M142.721 182.036a.22.22 0 0 0 .128-.042.2.2 0 0 0 .076-.13.2.2 0 0 0-.007-.076.2.2 0 0 0-.036-.068c-.571-.694-3.304-2.36-4.819-2.233a.2.2 0 0 0-.073.022.2.2 0 0 0-.059.048.2.2 0 0 0-.035.067.2.2 0 0 0 .014.148.2.2 0 0 0 .048.059q.03.024.067.036t.076.007c1.416-.118 4.012 1.534 4.465 2.087a.22.22 0 0 0 .155.075M144.52 181.06a.18.18 0 0 0 .128-.043.185.185 0 0 0 .075-.13.194.194 0 0 0-.042-.144c-.572-.693-3.304-2.36-4.815-2.232a.2.2 0 0 0-.076.019.194.194 0 0 0-.1.116q-.012.038-.008.077.003.041.023.076a.2.2 0 0 0 .05.061.2.2 0 0 0 .07.036q.04.012.079.007c1.416-.123 4.007 1.534 4.46 2.081a.19.19 0 0 0 .156.076M146.219 179.921a.21.21 0 0 0 .179-.1.2.2 0 0 0 .025-.072.198.198 0 0 0-.043-.144c-.571-.694-3.304-2.36-4.819-2.233a.2.2 0 0 0-.075.021.2.2 0 0 0-.1.115.2.2 0 0 0-.009.077.207.207 0 0 0 .221.179c1.416-.123 4.012 1.534 4.461 2.081q.03.036.072.055t.088.021M147.866 178.817a.195.195 0 0 0 .179-.094.196.196 0 0 0-.014-.217c-.783-.987-3.648-2.393-5.163-2.256a.2.2 0 0 0-.076.019.2.2 0 0 0-.062.047.2.2 0 0 0-.046.146.19.19 0 0 0 .144.169.2.2 0 0 0 .077.006c1.364-.118 4.107 1.231 4.801 2.105a.195.195 0 0 0 .16.075"/><path fill="#B16668" d="m165.533 177.09-1.482-6.391 7.614-.892.132 6.136s.727 2.218.241 3.002c-.487.783-5.556 1.491-6.009.944s-.496-2.799-.496-2.799"/><path fill="#263238" d="M165.835 190.914c.18 1.968.553 3.247 1.36 4.333.807 1.085 2.27 1.307 3.738.821s3.337-1.586 3.715-3.332a9.9 9.9 0 0 0-.123-4.72z"/><path fill="#455A64" d="M171.797 175.947c.609 0 .396 2.672.817 5.296.472 2.832 1.416 3.908 1.821 6.212.472 2.638.331 3.846-.656 5.565-.986 1.718-4.592 3.667-6.452 1.529-1.52-1.742-1.633-3.828-1.572-6.514a61 61 0 0 0-.047-6.806c-.17-1.992-.698-3.776-.174-4.045.047.288.099.656.151.944s.127 1.298.472 1.274a3.4 3.4 0 0 0 0-.755.9.9 0 0 1 .151-.661c.296-.22.633-.38.991-.472.595-.165 1.661-.368 2.265-.472.302-.056.609-.099.911-.127.258-.029.519-.019.774.028a.48.48 0 0 1 .34.236q.044.148.038.302.009.278.09.543c.023.076.089.165.174.137s.095-.104.095-.17c0-.321-.057-.552-.085-.944 0-.175-.047-.406-.057-.581-.009-.174-.033-.349-.047-.519"/><path fill="#37474F" d="M174.256 186.709c.071.378.5 2.898-.255 3.431-.755.534-1.322-1.378-1.322-1.378s-1.959-.349-4.758 1.053c.161.401-.24 1.812-1.024 1.6-.783-.213-1.161-3.111-1.166-3.148-.052 2.572.104 4.587 1.577 6.282 1.86 2.138 5.466.189 6.452-1.529.987-1.718 1.109-2.927.656-5.565a3.4 3.4 0 0 0-.16-.746"/><path fill="#37474F" d="M172.481 188.956c.038.944 1.081.533 1.086-.836.004-1.369-.897-4.526-.944-6.877-.109-3.224-.208-5.31-.817-5.296a1 1 0 0 0 0 .099l.118 1.346c0 .193.042.368.047.575.071 1.969 0 5.792.246 7.576q.235 1.698.264 3.413M168.271 189.758a28 28 0 0 1-.67-3.333c-.26-1.77-1.209-5.314-1.676-7.221a4.3 4.3 0 0 1-.241-1.081c-.047-.264-.094-.6-.141-.883v-.056c-.373.203-.279 1.732-.099 2.525.179.793.406 1.647.627 2.785.586 2.251.572 5.602.944 6.896.373 1.293 1.478 1.298 1.256.368"/><path fill="#263238" d="M167.884 189.9a.3.3 0 0 0 .085-.028 8.1 8.1 0 0 1 4.677-.907.25.25 0 0 0 .269-.174.192.192 0 0 0-.025-.158.2.2 0 0 0-.061-.055.2.2 0 0 0-.079-.023 8.54 8.54 0 0 0-5.003.972.2.2 0 0 0-.112.103.2.2 0 0 0-.006.152.2.2 0 0 0 .04.066.196.196 0 0 0 .215.052M167.322 187.85a.3.3 0 0 0 .076-.023 10.06 10.06 0 0 1 5.234-1.015.249.249 0 0 0 .269-.179.193.193 0 0 0-.179-.232 10.44 10.44 0 0 0-5.546 1.072.22.22 0 0 0-.109.123.22.22 0 0 0 .01.165.21.21 0 0 0 .245.089M172.434 184.834a.23.23 0 0 0 .114-.052.23.23 0 0 0 .08-.184.2.2 0 0 0-.025-.077.18.18 0 0 0-.131-.088c-2.752-.571-5.414.944-5.527 1.024a.2.2 0 0 0-.066.05.2.2 0 0 0-.041.072.2.2 0 0 0-.008.083.2.2 0 0 0 .025.078.23.23 0 0 0 .142.088c.057.011.116 0 .165-.031.028 0 2.615-1.496 5.192-.944a.2.2 0 0 0 .08-.019M172.226 182.975a.25.25 0 0 0 .184-.155.2.2 0 0 0 .013-.081.2.2 0 0 0-.023-.078.2.2 0 0 0-.055-.061.2.2 0 0 0-.076-.031 7.9 7.9 0 0 0-5.664 1.02.2.2 0 0 0-.097.212.2.2 0 0 0 .031.076.23.23 0 0 0 .311.042 7.5 7.5 0 0 1 5.254-.944.23.23 0 0 0 .122 0M171.985 180.865a.24.24 0 0 0 .184-.151.186.186 0 0 0-.011-.156.2.2 0 0 0-.052-.061.2.2 0 0 0-.073-.033c-2.832-.68-5.565 1.005-5.664 1.081a.2.2 0 0 0-.065.052.2.2 0 0 0-.038.075.2.2 0 0 0 .027.161.23.23 0 0 0 .144.084.23.23 0 0 0 .163-.037c.028 0 2.662-1.647 5.296-1.015q.044.007.089 0"/><path fill="#37474F" d="M170.522 109.419c2.644 16.694 1.048 37.948 1.048 37.948.523 3.278.782 6.593.774 9.912-.066 6.259-.141 15.104-.141 15.104s-4.121 3.215-8.256 1.01c0 0-2.902-11.625-4.13-20.725-.981-7.274-2.756-18.087-2.756-18.087l-2.875 11.526s.307 4.484.232 7.632c-.085 3.658-2.077 17.682-2.077 17.682s-4.621 2.647-8.142-.095c0 0-1.359-20.404-1.534-24.799-.335-8.623-.123-26.625.826-37.543z"/><path fill="#263238" d="m157.061 134.609-1.888-12.706s-4.069-.543-6.178-2.473c0 0 1.383 2.577 5.229 3.526l1.888 11.696-1.888 11.483zM172.33 173.039c-.859 1.147-5.456 2.45-8.406 1.298l-.524-2.44c2.228.812 7.08-.033 8.935-1.51zM152.364 171.821c-1 1.02-5.413 1.487-8.217-.066l-.156-2.478c2.124 1.114 6.651 1.204 8.704 0z"/><path fill="#B16668" d="M147.083 78.219c-3.13 1.27-4.022 4.106-4.956 11.644s-1.166 9.54-1.166 9.54-6.084 4.563-11.838 6.196l1.284 5.967s5.456-1.336 8.411-2.285c4.871-1.567 7.306-2.638 8.817-4.248 1.51-1.609 3.422-17.313 3.422-17.313z"/><path fill="#F7921E" d="M147.111 77.832c-2.218.892-3.719 2.662-4.248 6.009-.528 3.346-2.157 15.495-2.157 15.495-3.054 2.134-8.576 4.966-8.576 4.966a12.8 12.8 0 0 1 1.095 3.979c.193 2.133-.099 3.016-.099 3.016s6.952-1.803 10.596-3.46 4.494-2.615 4.933-3.535c.439-.921 1.987-10.526 2.317-12.437.331-1.912.515-4.432.515-4.432z"/><path fill="#000" d="M147.111 77.832c-2.218.892-3.719 2.662-4.248 6.009-.528 3.346-2.157 15.495-2.157 15.495-3.054 2.134-8.576 4.966-8.576 4.966a12.8 12.8 0 0 1 1.095 3.979c.193 2.133-.099 3.016-.099 3.016s6.952-1.803 10.596-3.46 4.494-2.615 4.933-3.535c.439-.921 1.987-10.526 2.317-12.437.331-1.912.515-4.432.515-4.432z" opacity=".2"/><path fill="#B16668" d="M129.647 105.641c-.174-.028 1.61-.349-.524-.042-2.133.307-2.756-.099-4.13-.127a.39.39 0 0 0-.288.07q-.145.195-.264.406a5 5 0 0 1-.401.449c-.175.184-2.403 2.959-2.36 2.978l1.048.547s3.389 3.739 5.527 2.36c.472-.311 1.062-.151 1.562-.372a2.9 2.9 0 0 0 1.156-.902c.378-.58.251-1.34.104-2.02l-.387-1.86c-.122-.58-.189-1.218-.84-1.416z"/><path fill="#F5F5F5" d="M161.465 76.346c1.623.306 3.587.703 3.587.703 4.125 1.756 4.791 2.02 5.664 2.36a64.5 64.5 0 0 1-.595 14.306c-.25 1.662-1.416 4.838-1.383 8.317.07 3.194.424 6.375 1.057 9.506 0 0-3.912 4.248-15.373 3.549-8.996-.533-10.558-3.86-10.558-3.86s.325-11.956.472-18.588c.165-8.703 1.723-13.305 3.639-14.854l5.721-1.232z"/><path fill="#263238" d="M164.712 59.948a3.26 3.26 0 0 0-1.751-1.581c-.373-1.846-2.785-4.003-7.34-4.126a4.6 4.6 0 0 1-1.576-.203c-.548-.207-1.024-.566-1.558-.807a4 4 0 0 0-1.628-.358 2.9 2.9 0 0 0-1.326.273c-.42.19-.755.525-.944.944a2.9 2.9 0 0 0-.137 1.27 1.8 1.8 0 0 0-1.128.1 2.07 2.07 0 0 0-1.138.834 1.65 1.65 0 0 0-.113 1.317 2.8 2.8 0 0 0 .727 1.129 1.415 1.415 0 0 0-.803 1.708 1.795 1.795 0 0 0 1.553 1.199c-.089 0 .052.514.071.557a1 1 0 0 0 .472.434q.73.293 1.496.472l2.115.661 5.244 1.638 4.394 1.373-.061 2.304v3.304a2.14 2.14 0 0 0 1.208-1.02 18.2 18.2 0 0 0 1.699-4.654c1.1-4.323.973-5.952.524-6.768"/><path fill="#B16668" d="M164.344 69.987c-1.69.878-2.511-.472-2.511-.472l-.071 6.82c-1.765 2.497-4.989 1.728-7.49 4.847h-.779a6.82 6.82 0 0 1-.208-5.088l-.033-1.553q-.747 0-1.487-.103c-1.524-.199-2.832-1.218-3.304-3.248-.599-2.45-.708-7.783 0-10.214.236-.783.472-1.685 1.199-2.067 1.799-.944 7.349-1.36 8.831.821-.17 1.345.26 2.832 1.501 3.229.095 2.123.42 3.138 1.265 3.469.685.269.987-.789 1.416-1.289a1.89 1.89 0 0 1 2.445-.086c.233.184.419.42.543.69a3.12 3.12 0 0 1-.356 3.477 3.1 3.1 0 0 1-.961.767"/><path fill="#9A4A4D" d="M153.257 74.541c1.987-.066 3.748-.359 4.909-.887 1.161-.529 2.157-2.138 2.454-3.724.038 1.265-.472 3.53-2.214 4.512s-3.828 1.086-5.126 1.152z"/><path fill="#263238" d="m155.376 62.034 1.539.981a.945.945 0 0 0-.293-1.288.88.88 0 0 0-1.01.04.9.9 0 0 0-.236.266M149.514 62.799l1.689-.727a.87.87 0 0 0-.482-.504.88.88 0 0 0-.698.004.947.947 0 0 0-.509 1.227M156.551 64.676a.746.746 0 1 1-1.492-.01.746.746 0 0 1 1.492.01M150.996 64.611a.746.746 0 1 1-.736-.75.674.674 0 0 1 .736.75"/><path fill="#9A4A4D" d="m153.691 63.106-.472 4.748-2.521-.855a11.1 11.1 0 0 1 2.993-3.893M155.753 68.33l-2.506.906a1.3 1.3 0 0 0 .662.783 1.32 1.32 0 0 0 1.023.067 1.41 1.41 0 0 0 .821-1.756"/><path fill="#F28F8F" d="M155.499 68.794q.159-.033.321-.038a1.37 1.37 0 0 1-.888 1.326c-.136.049-.28.073-.424.071a1.224 1.224 0 0 1 .991-1.36"/><path fill="#263238" d="M152.572 82.216s-1.279-2.157-1.322-3.035l1.365-1.548.594 3.592zM154.384 81.203l2.36-1.775 2.101 1.27-3.654 2.09z"/><path fill="#37474F" d="M155.847 103.197c.274-4.72-1.416-17.497-1.416-19.168l-1.25-.033c-.708 2.053-2.148 15.364-2.025 18.597.056 1.553 1.841 4.248 2.383 4.295.543.047 2.238-2.69 2.308-3.691"/><path fill="#263238" d="M153.077 84.295c.024-.095.057-.218.085-.293l1.251.033c0 .137 0 .316.024.52a2.28 2.28 0 0 1-1.36-.26"/><path fill="#37474F" d="M154.385 81.203a5.2 5.2 0 0 0-1.176 0c-.28.281-.497.62-.637.991.07.639.267 1.257.581 1.817a1.48 1.48 0 0 0 1.279.095c.351-.382.611-.839.76-1.336a2.36 2.36 0 0 0-.807-1.567"/><path fill="#E0E0E0" d="M154.182 81.179h.203c.424-.487.91-.917 1.444-1.28.34-.17 1.732 2.261 1.992 2.898.259.638.212.628 1.085.071a16.8 16.8 0 0 0 3.97-3.672c1.388-1.756 1.501-2.874 1.501-2.874a20 20 0 0 1-1.378-1.865c-.534-1.01-.623-1.416-1.195-1.33v.943c-.113.869-1.01 1.157-2.246 2.186-1.237 1.028-3.229 1.987-3.705 2.426a17.4 17.4 0 0 0-1.671 2.496M150.113 81.179c.132.358 1.317-2.398 1.888-2.328.269.029.944 1.53 1.416 2.337h.071a10 10 0 0 1-.359-2.573c-.006-.84.044-1.681.151-2.515l-.033-1.553h-.51c-.146.142-2.289 2.483-2.487 3.54a9.5 9.5 0 0 0-.137 3.091"/><path fill="#F7921E" d="M168.021 119.6c2.794-1.01 3.667-1.888 3.667-1.888l-1.836-15.307a83 83 0 0 1 1.288-10.748c.992-4.72.378-12.38.378-12.38l-7.467-3.304c.184 1.02-.576 2.53-.986 3.393a38.4 38.4 0 0 0-2.36 5.75 67 67 0 0 0-1.525 6.135 86.5 86.5 0 0 0-1.529 12.612c-.208 3.989-.189 7.991 0 11.979.061 1.416.212 2.965 1.255 3.913a4 4 0 0 0 2.53.878 15.8 15.8 0 0 0 6.585-1.033M142.854 116.12l2.501 1.341a2.67 2.67 0 0 0 2.691-.028c.849-.529.944-2.205.991-3.205.198-3.856.118-5.938.207-9.242.208-7.821.803-15.637 1.223-23.44a23.3 23.3 0 0 1 .849-5.333l-4.205 1.619s-3.21 3.96-3.347 12.305l.166 10.025z"/><path fill="#B16668" d="M179.844 98.736c.515 3.417.614 3.998.43 6.292-.132 1.713-.307 2.006-.897 5.126s-2.128 8.821-2.091 9.652q.113 1.18.029 2.36a10 10 0 0 1-.614 2.747c-.227.614-.368 1.274-.633 1.888q-.362.605-.835 1.128c-.307.416-.406.944-.788 1.312-.661.652-1.364.756-1.997 1.062-.273.411-.722 1.279-1.029 1.662-.774.986-.981-.6-.944-1.142a8 8 0 0 1 .293-1.709q.573-2.099.911-4.248c.038-.255.326-1.312-.095-1.303a.5.5 0 0 0-.339.208c-.284.33-.472.736-.718 1.095a6.5 6.5 0 0 1-.665.774 2.2 2.2 0 0 1-.671.547c-.269.118-1.265.213-1.312-.254a.45.45 0 0 1 .047-.218c.199-.472.439-.944.638-1.416q.32-.72.557-1.472a11.9 11.9 0 0 1 1.708-4.177c1.648-2.36 1.784-16.086 1.784-16.086l-2.411-9.44a19.6 19.6 0 0 1-1.416-7.934c.094-3.28 2.832-5.122 2.832-5.122 3.506 1.34 4.337 1.803 5.3 4.994s2.582 11.366 2.926 13.674"/><path fill="#F7921E" d="M180.326 101.168c-.113-.817-.689-5.065-2.049-11.272-1.293-5.9-1.661-6.849-2.893-8.194-.967-1.057-2.251-1.704-3.866-2.43 0 0-2.52 1.699-3.115 6.678-.443 3.696 1.331 8.322 1.331 8.322l2.582 8.647-.226 9.638c1.656-.609 5.376.543 6.268 2.166 0 0 1.184-4.3 1.784-7.339.407-2.048.469-4.149.184-6.216"/><path fill="#000" d="M180.326 101.168c-.113-.817-.689-5.065-2.049-11.272-1.293-5.9-1.661-6.849-2.893-8.194-.967-1.057-2.251-1.704-3.866-2.43 0 0-2.52 1.699-3.115 6.678-.443 3.696 1.331 8.322 1.331 8.322l2.582 8.647-.226 9.638c1.656-.609 5.376.543 6.268 2.166 0 0 1.184-4.3 1.784-7.339.407-2.048.469-4.149.184-6.216" opacity=".2"/><path fill="#F7921E" d="m172.113 111.543-.203 2.667s1.124-.175 3.583.472c1.944.514 2.577 1.298 2.577 1.298l.661-2.658s-2.035-2.109-6.618-1.779"/><path fill="#000" d="m172.113 111.543-.203 2.667s1.124-.175 3.583.472c1.944.514 2.577 1.298 2.577 1.298l.661-2.658s-2.035-2.109-6.618-1.779" opacity=".3"/><path fill="#F7921E" d="m133.664 103.41-2.672 1.284a6.76 6.76 0 0 1 1.454 3.134c.274 1.175.414 2.376.415 3.583l2.79-.694a14.2 14.2 0 0 0-.51-4.031c-.604-2.285-1.477-3.276-1.477-3.276"/><path fill="#000" d="m133.664 103.41-2.672 1.284a6.76 6.76 0 0 1 1.454 3.134c.274 1.175.414 2.376.415 3.583l2.79-.694a14.2 14.2 0 0 0-.51-4.031c-.604-2.285-1.477-3.276-1.477-3.276" opacity=".3"/><path fill="#FFBDA7" d="M129.544 111.618a10.86 10.86 0 0 1-4.753-2.936.88.88 0 0 1-.303-.727.95.95 0 0 1 .274-.425l.878-.944a6 6 0 0 0 .977-1.255c.168-.285.234-.617.189-.944-.076-.326-.184-.472-.519-.505a1.6 1.6 0 0 0-.722.434c-.944.774-1.667.878-2.95 1.647s-2.927 1.383-3.956 1.317c-3.124-.585-17.11-5.069-17.11-5.069s-6.608-12.05-7.82-14.519c-1.214-2.469-2.163-4.72-4.249-6.098-3.011 1.024-5.744 5.63-3.743 10.167 2.002 4.536 7.802 13.9 8.87 15.717 1.066 1.817 2.01 2.747 4.677 3.351 2.52.576 14.108 1.714 17.327 2.157l-.043.104c2.129.265 2.658.553 2.997.704 1.459.642 3.597.396 5.353.174.365-.029.724-.11 1.067-.24.321-.137.604-.35.944-.472q.837-.234 1.694-.373a2.9 2.9 0 0 0 1.449-.831c.052-.061.359-.378.364-.472a1.23 1.23 0 0 1-.892.038"/><path fill="#F7921E" d="M89.371 81.08c-2.704 1.157-5.871 5.084-4.328 9.53s8.17 15.146 9.303 17.03c1.133 1.883 1.855 2.765 3.578 3.247s10.138 1.321 10.138 1.321a13.4 13.4 0 0 0 1.322-4.46c.359-2.752-.519-3.446-.519-3.446l-7.08-2.275s-7.812-14.938-8.893-16.902c-1.08-1.963-2.142-3.478-3.52-4.045"/><path fill="#000" d="M89.371 81.08c-2.704 1.157-5.871 5.084-4.328 9.53s8.17 15.146 9.303 17.03c1.133 1.883 1.855 2.765 3.578 3.247s10.138 1.321 10.138 1.321a13.4 13.4 0 0 0 1.322-4.46c.359-2.752-.519-3.446-.519-3.446l-7.08-2.275s-7.812-14.938-8.893-16.902c-1.08-1.963-2.142-3.478-3.52-4.045" opacity=".15"/><path fill="#B16668" d="M125.513 113.841c-.388.077-.79.033-1.152-.128-.472-.396-.986-.547-1.345-1.062a4 4 0 0 0-.42-.561 2.56 2.56 0 0 0-.977-.548c-.335-.123-.638-.307-.987-.42-.17-.057-.443-.061-.524.142a2.4 2.4 0 0 0-.528-.472c-.217-.132-.737-.302-.883 0a.8.8 0 0 0-.047.278c-.024.567-.052 1.138-.076 1.709q-.02.214.024.425a1.23 1.23 0 0 0 .675.717q.263.147.557.212c.241.048.472.029.727.076.495.099.915.472 1.416.51.311 0 .618-.109.944-.118q.386.017.769.075c.345.029 1.525-.656 1.827-.835M121.217 106.851c-.231.104-.472.203-.693.321a20 20 0 0 0-1.652 1.147 3.4 3.4 0 0 1-1.176.538c-.288.061-.944.137-1.047-.26a.5.5 0 0 1 .084-.368c.241-.444.501-.883.779-1.307.232-.43.542-.811.916-1.124a8.7 8.7 0 0 1 1.515-.826q.339-.161.703-.25a3.8 3.8 0 0 1 1.36.047c.67.104 1.619.208 2.289.316-.128.1-.472.336-.538.388l-.845.472a15 15 0 0 1-1.695.906"/><path fill="#263238" d="M38.575 205.738c-.151 2.086-.472 3.469-1.251 4.682s-2.148 1.506-3.578 1.204a5.39 5.39 0 0 1-3.922-3.276c-.505-1.378-.283-3.04.066-4.975z"/><path fill="#37474F" d="M32.82 190.432c-.584.037-.797 2.832-1.17 5.664-.405 3.002-1.35 4.672-1.68 6.697-.472 2.809-.278 4.078.69 5.796.967 1.719 4.771 3.545 6.527 1.129 1.416-1.973 1.525-4.182 1.416-7a72 72 0 0 1-.028-7.17c.146-2.11.32-4.153-.184-4.394-.043.307-.09.703-.133 1.005-.042.302-.108 1.378-.439 1.383a5 5 0 0 1 0-.798.94.94 0 0 0-.15-.679 1.07 1.07 0 0 0-.642-.302 16 16 0 0 0-1.733-.293 9 9 0 0 0-.873-.047 4.8 4.8 0 0 0-1.071 0 .5.5 0 0 0-.321.278 1 1 0 0 0-.038.326q-.002.293-.08.576c-.024.085-.08.184-.166.16-.084-.023-.094-.099-.09-.17 0-.339.048-.585.072-.981 0-.184.042-.435.047-.619s.033-.382.047-.561"/><path fill="#000" d="M32.1 203.519a.204.204 0 0 0 .178.222.215.215 0 0 0 .161-.033.207.207 0 0 0 .076-.226.21.21 0 0 0-.108-.124.2.2 0 0 0-.081-.019.2.2 0 0 0-.08.006.2.2 0 0 0-.123.098.2.2 0 0 0-.024.076M32.326 201.56a.21.21 0 0 0 .103.203q.036.02.076.024a.214.214 0 0 0 .227-.179.208.208 0 0 0-.26-.222.2.2 0 0 0-.123.097.2.2 0 0 0-.023.077M32.533 199.743a.2.2 0 0 0 .044.149c.034.043.082.07.136.077a.2.2 0 0 0 .203-.102.2.2 0 0 0 .023-.077.2.2 0 0 0-.042-.151.2.2 0 0 0-.137-.075.207.207 0 0 0-.227.179M32.74 197.917a.208.208 0 0 0 .332.186.2.2 0 0 0 .075-.139.2.2 0 0 0-.18-.226.2.2 0 0 0-.08.006.2.2 0 0 0-.07.036.203.203 0 0 0-.076.137M36.904 198.327a.208.208 0 0 0 .331.186.199.199 0 0 0 .075-.138.21.21 0 0 0-.103-.203.2.2 0 0 0-.156-.018.2.2 0 0 0-.071.036.209.209 0 0 0-.076.137M36.692 200.14a.2.2 0 0 0 .103.202q.036.02.076.024a.206.206 0 0 0 .186-.331.2.2 0 0 0-.062-.052.2.2 0 0 0-.077-.022.2.2 0 0 0-.08.006.202.202 0 0 0-.147.173M36.48 201.971a.21.21 0 0 0 .178.227.2.2 0 0 0 .204-.103.2.2 0 0 0 .023-.077.2.2 0 0 0-.042-.151.2.2 0 0 0-.286-.03.2.2 0 0 0-.078.134M36.258 203.917a.2.2 0 0 0 .102.203q.036.02.077.023a.2.2 0 0 0 .08-.006.201.201 0 0 0 .147-.173.204.204 0 0 0-.18-.227.209.209 0 0 0-.227.18M34.53 204.813l1.76-13.56-.755-.028z" opacity=".15"/><path fill="#263238" d="M32.292 203.628h.034a7.4 7.4 0 0 1 4.092.391.1.1 0 0 0 .038.012.1.1 0 0 0 .04-.005.1.1 0 0 0 .035-.021.1.1 0 0 0 .024-.033.1.1 0 0 0-.015-.113.1.1 0 0 0-.032-.024 7.5 7.5 0 0 0-4.225-.41.1.1 0 0 0-.065.044.105.105 0 0 0 .016.134.1.1 0 0 0 .058.025M32.514 201.688h.057c1.034-.472 3.044-.118 4.069.397q.017.009.038.012.02.002.04-.004a.1.1 0 0 0 .034-.019.11.11 0 0 0 .031-.111.1.1 0 0 0-.05-.062c-1.066-.538-3.157-.902-4.247-.401a.1.1 0 0 0-.056.057.1.1 0 0 0 .004.08.108.108 0 0 0 .08.051M32.727 199.852a.1.1 0 0 0 .052 0c1.038-.472 3.049-.118 4.068.401a.107.107 0 0 0 .142-.047.103.103 0 0 0-.047-.137c-1.062-.542-3.153-.901-4.248-.406a.1.1 0 0 0-.054.058.1.1 0 0 0 .002.079.105.105 0 0 0 .085.052M32.934 198.044a.1.1 0 0 0 .052 0c1.039-.472 3.05-.118 4.069.401a.1.1 0 0 0 .08.005.1.1 0 0 0 .062-.052.1.1 0 0 0 .006-.081.1.1 0 0 0-.02-.036.1.1 0 0 0-.034-.025c-1.066-.538-3.153-.901-4.248-.401a.104.104 0 0 0-.052.137.13.13 0 0 0 .085.052"/><path fill="#000" d="m51.47 197.383 2.487-.849-.75-1.69-1.558 1.359z"/><path fill="#263238" d="M49.067 192.871s-.146 1.595-.184 2.1c-.037.506 2.063 2.134 2.587 2.412l.18-1.18c.469.599.862 1.254 1.17 1.95.392.731.878 2.105 1.987 3.068 1.647 1.416 4.248 2.209 6.938 2.388s4.248-.429 5.018-.991 1.043-1.232.873-1.916c-.17-.685-18.569-7.831-18.569-7.831"/><path fill="#37474F" d="m56.416 187.631.062-.943c.472 0 .514 1.345 1.198 2.548a24 24 0 0 0 3.63 4.947c2.643 2.563 5.027 4.196 6.207 5.352 1.576 1.544-1.35 3.828-5.725 3.451-2.172-.189-6-1.416-7.047-2.719-1.048-1.303-1.648-3.342-2.488-4.305s-2.68-1.958-3.186-3.105c-.278-.633-.075-2.082.142-3.304.198-1.129.283-2.861.915-2.7l.029.58c.245.505.826 1.341 2.572 1.695.869.179 3.479.335 3.691-1.497"/><path fill="#000" d="M54.132 189.218c.835-.042 1.746-.292 2.12-1.038v-.024a2.12 2.12 0 0 0 .509 1.803c.755.944 5.504 7.552 5.504 7.552s-4.442-5.475-5.296-6.504c-1.26-1.524-1.666-1.713-2.86-1.789zM55.17 190.968a.27.27 0 0 1-.094.2.27.27 0 0 1-.213.062.3.3 0 0 1-.106-.039.28.28 0 0 1-.121-.185.3.3 0 0 1 .006-.113.27.27 0 0 1 .094-.2.3.3 0 0 1 .1-.053.25.25 0 0 1 .113-.008.3.3 0 0 1 .106.039.26.26 0 0 1 .121.184.3.3 0 0 1-.006.113M56.42 192.438a.27.27 0 0 1-.198.224.27.27 0 1 1 .199-.224M57.672 193.905a.27.27 0 0 1-.199.224.271.271 0 0 1-.299-.398.27.27 0 0 1 .116-.106.275.275 0 0 1 .332.081.26.26 0 0 1 .05.199M58.918 195.373a.275.275 0 0 1-.302.231.276.276 0 0 1-.231-.307.27.27 0 0 1 .306-.226.27.27 0 0 1 .227.302M60.164 196.845a.27.27 0 0 1-.095.2.27.27 0 0 1-.212.062.27.27 0 0 1-.222-.337.27.27 0 0 1 .095-.2.268.268 0 0 1 .319-.022.271.271 0 0 1 .116.297" opacity=".15"/><path fill="#263238" d="M54.892 191.035a.1.1 0 0 1-.066-.033.108.108 0 0 1 0-.151 4.4 4.4 0 0 1 3.068-1.104q.021 0 .04.01a.1.1 0 0 1 .034.025.1.1 0 0 1 .02.036.11.11 0 0 1-.07.136.1.1 0 0 1-.043.005 4.28 4.28 0 0 0-2.903 1.048.1.1 0 0 1-.08.028M56.143 192.503a.13.13 0 0 1-.066-.038.1.1 0 0 1-.033-.075.1.1 0 0 1 .033-.076 4.4 4.4 0 0 1 3.068-1.104q.021 0 .04.01a.1.1 0 0 1 .034.027.1.1 0 0 1 .02.081.1.1 0 0 1-.011.039.1.1 0 0 1-.026.031.1.1 0 0 1-.076.024 4.3 4.3 0 0 0-2.903 1.052.14.14 0 0 1-.08.029M57.393 193.975a.12.12 0 0 1-.07-.033.1.1 0 0 1-.032-.077q.001-.045.032-.078a4.4 4.4 0 0 1 3.063-1.105.108.108 0 1 1 0 .217 4.25 4.25 0 0 0-2.898 1.048.12.12 0 0 1-.095.028M58.64 195.444a.13.13 0 0 1-.066-.033.1.1 0 0 1-.033-.076.1.1 0 0 1 .033-.075 4.42 4.42 0 0 1 3.068-1.109.1.1 0 0 1 .076.031.11.11 0 0 1 0 .154.1.1 0 0 1-.076.032c-1.586-.142-2.89 1.038-2.903 1.047a.1.1 0 0 1-.1.029M59.89 196.912a.1.1 0 0 1-.037-.008.1.1 0 0 1-.029-.025.1.1 0 0 1-.032-.075.1.1 0 0 1 .032-.076 4.4 4.4 0 0 1 3.063-1.104.1.1 0 0 1 .071.036.106.106 0 0 1 .024.077.1.1 0 0 1-.012.041.107.107 0 0 1-.064.053.1.1 0 0 1-.042.005 4.25 4.25 0 0 0-2.898 1.048.1.1 0 0 1-.076.028"/><path fill="#455A64" d="M33.298 127.277c-1.185 16.851-1.7 35.622-1.7 35.622a91 91 0 0 0-.547 10.228c-.057 6.136.33 21.132.33 21.132s3.895 2.761 8.1.68c0 0 3.115-16.591 4.517-25.488 1.123-7.109 2.643-16.247 2.643-16.247l1.284 8.496a55 55 0 0 0-.472 9.912c.24 3.578 1.534 17.181 1.534 17.181s5.06 4.14 9.015.17c0 0 1.888-22.755 2.134-27.06.5-8.444.203-23.722 0-34.456z"/><path fill="#263238" d="m46.641 153.204 2.186-14.609s4.106-.472 6.268-2.308c0 0-1.445 2.497-5.33 3.356l-2.057 13.249.217 8.817z"/><path fill="#E0E0E0" d="M57.403 94.129c2.983.944 5.07 2.36 6.433 6.358 1.416 4.125 4.111 11.469 5.05 14.5-.585 1.642-4.818 3.153-6.522 2.36s-5.91-12.744-5.91-12.744z"/><path fill="#F0F0F0" d="M43.064 92.186c-1.648.283-3.644.646-3.644.646-4.21 1.704-4.89 1.959-5.778 2.308a35 35 0 0 0-.915 14.16 99 99 0 0 1 .66 10.493c0 4.649-.368 10.356-.368 10.356s5.07 3.304 16.686 2.832c9.119-.378 10.525-3.696 10.525-3.696s.274-13.556.274-20.254c0-8.821-1.888-13.518-3.776-15.127l-5.796-1.364z"/><path fill="#263238" d="M39.68 74.782a2.92 2.92 0 0 1 2.232-1.968c.472-1.95 3.304-4.248 7.255-3.738s5.857 1.7 7.08 4.087c1.222 2.389.188 4.05.188 4.05l-11.507-.736a10.5 10.5 0 0 1-.142 1.638c-.273 1.746-1.968 3.776-1.968 3.776v2.454l-.127 3.535a2.26 2.26 0 0 1-1.246-1.128c-.383-.84-.765-2.133-1.317-5.13-.553-2.998-.982-5.495-.449-6.84"/><path fill="#C8856A" d="M39.736 85.13c1.25.91 2.487-.355 2.487-.355l-.127 6.854s0 1.798 2.171 3.153c3.05 1.925 4.376 2.935 5.617 4.87 1.203-3.053 3.011-5.13 1.133-7.613l.028-1.614q.852.004 1.7-.085c1.623-.156 2.709-1.374 3.303-3.087.944-2.756 1.076-7.656-.085-12.71-2.034-1.742-7.297-1.827-11.224.348 0 3.215-.977 4.584-1.038 5.75a3.1 3.1 0 0 1-.75.858c-.62.473-1.02-.873-1.483-1.415-.462-.543-2.044-1.341-2.945.311-.902 1.652.132 3.95 1.213 4.734"/><path fill="#263238" d="m48.888 77.807-1.709.944a1.025 1.025 0 0 1 .406-1.35.946.946 0 0 1 1.303.406M55.501 78.238l-1.84-.657a.943.943 0 0 1 1.217-.608 1.02 1.02 0 0 1 .623 1.264M47.94 79.742a.788.788 0 1 0 1.575.038.788.788 0 0 0-1.576-.038M53.514 79.677a.793.793 0 1 0 .812-.764.717.717 0 0 0-.812.764"/><path fill="#AF6152" d="m50.885 77.93.349 5.06 2.71-.817z"/><path fill="#9A4A4D" d="M56.374 79.63v-.005h.005z"/><path fill="#263238" d="M43.668 80.22c.132 3.445 1.316 3.695 2.539 3.907 1.619.279 2.426-.59 5.329-.566 1.755 0 2.303.543 3.304.944.74.307 1.505.274 1.628-.44.22-1.475.302-2.968.245-4.46a32.5 32.5 0 0 1 0 6.26c-.254 1.618-.698 3.129-1.6 3.879-1.25 1.043-3.865 1.18-7.08.434-3.214-.745-4.46-1.826-4.837-2.96-1.237-3.723-.723-5.48-1.143-6.182-.42-.704 1.614-.817 1.614-.817"/><path fill="#C8856A" d="M51.13 84.577c-1.657-.047-2.2.25-2.29 1.383-.127 1.619-.051 2.166.567 2.256.732.109 1.27.156 1.298-.302.07-.35.035-.713-.099-1.043-.255-.312-.165-.354.562-.335s.717.15.5.373c-.217.221-.132.736-.132 1.057s.075.472 1.123.392c.911-.08.76-.812.755-2.205-.018-.939-.41-1.505-2.284-1.576"/><path fill="#9A4A4D" d="m50.049 84.996 2.2.326a1.1 1.1 0 0 1-1.237.972 1.166 1.166 0 0 1-.963-1.298"/><path fill="#F28F8F" d="M50.333 85.337q-.135-.015-.27 0a1.15 1.15 0 0 0 .944.944q.18.032.36 0a1.015 1.015 0 0 0-1.034-.944"/><path fill="#F7921E" d="M51.701 99.04s1.35-2.243 1.416-3.163l-1.416-1.62-.637 3.744z"/><path fill="#000" d="M51.701 99.04s1.35-2.243 1.416-3.163l-1.416-1.62-.637 3.744z" opacity=".15"/><path fill="#F7921E" d="m49.813 97.985-2.45-1.874-2.199 1.313 3.8 2.213z"/><path fill="#000" d="m49.813 97.985-2.45-1.874-2.199 1.313 3.8 2.213z" opacity=".15"/><path fill="#F7921E" d="M48.704 122.364c-.373-5.267 1.175-19.559 1.138-21.428l1.302-.057c.779 2.28 2.52 17.119 2.45 20.725-.033 1.742-1.846 4.753-2.412 4.843s-2.412-2.959-2.478-4.083"/><path fill="#000" d="M51.234 101.21a4 4 0 0 0-.1-.325l-1.302.056v.586c.49.05.981-.061 1.402-.317" opacity=".15"/><path fill="#F7921E" d="M49.814 97.986c.409-.047.822-.047 1.231 0 .29.296.514.65.657 1.038a4.4 4.4 0 0 1-.567 1.841 1.55 1.55 0 0 1-1.303.057 2.7 2.7 0 0 1-.868-1.298c.06-.635.365-1.222.85-1.638"/><path fill="#FAFAFA" d="M50.03 97.962h-.217a7.7 7.7 0 0 0-1.496-1.345c-.354-.184-1.822 2.36-2.1 3.007-.279.646-.227.656-1.128.07a17.6 17.6 0 0 1-4.12-3.865c-1.417-1.841-1.55-3.007-1.55-3.007a20 20 0 0 0 1.455-1.94c.566-1.048.67-1.557 1.265-1.473v.756c.113.906 1.043 1.534 2.331 2.615 1.289 1.08 3.352 2.095 3.847 2.558a18 18 0 0 1 1.714 2.624M54.274 97.991c-.137.373-1.355-2.51-1.935-2.445-.279.028-.992 1.595-1.501 2.431h-.095c.246-.873.379-1.774.397-2.681q.014-1.32-.142-2.629l.033-2.01c.194 0 .345.122.944.811.6.69 1.978 2.176 2.18 3.28a9.6 9.6 0 0 1 .119 3.243"/><path fill="#B16668" d="M47.16 121.052c-.16-.212-.655.231-1.713.472-1.345.302-1.888.255-3.304.628a7 7 0 0 1-1.987.368l5.192 1.067a5.7 5.7 0 0 0 1.468-.902 1.22 1.22 0 0 0 .345-1.633"/><path fill="#F7921E" d="M70.005 106.892c.369-.156.628 0 .576.33l-2.43 17.389-24.417 10.384 2.492-17.417a1.33 1.33 0 0 1 .75-.897l13.948-5.919.991-1.765a.6.6 0 0 1 .302-.26L68 106.278a.6.6 0 0 1 .798.246l.288.779z"/><path fill="#000" d="M70.005 106.892c.369-.156.628 0 .576.33l-2.43 17.389-24.417 10.384 2.492-17.417a1.33 1.33 0 0 1 .75-.897l13.948-5.919.991-1.765a.6.6 0 0 1 .302-.26L68 106.278a.6.6 0 0 1 .798.246l.288.779z" opacity=".15"/><path fill="#F0F0F0" d="m68.15 123.785-23.59 10.011 2.464-16.44 24.355-10.336z"/><path fill="#F7921E" d="m43.734 134.977 4.083-16.469a1.53 1.53 0 0 1 .816-.892l23.024-9.77c.369-.156.6 0 .515.326l-4.022 16.439z"/><path fill="#B16668" d="M70.76 113.934c1.053 1.274 1.062 2.279.675 3.955s-1.477 3.672-2.09 4.215c-.614.543-1.761 1.307-3.05 1.048-1.288-.26-1.326-1.888-1.888-2.596-.944-1.105.317-1.917 1.52-2.082 2.832-.392 4.182-1.817 4.182-1.817zM49.049 123.61a20 20 0 0 1-3.682-.033l-5.192-1.067c-2.327.269-8.935-4.371-8.935-4.371s1.539-4.432 3.7-10.705c1.766-4.578 1.233-8.968-1.217-11.979-3.705 1.459-5.036 1.916-6.433 6.24-1.1 3.412-3.233 12.744-4.14 16.317-.524 2.039-.727 3.842 1.497 5.112a63.7 63.7 0 0 0 11.464 4.569c2.36.665 3.644 1.317 6.136 1.685 1.33.226 2.678.325 4.026.297.477.009.953-.042 1.416-.151a8.8 8.8 0 0 0 2.002-1.274c.192-.118.354-.28.472-.472.141-.288.08-.652.264-.916s.44-.321.614-.524c.306-.359.274-.92.514-1.322.24-.401.633-.75.41-1.189-.372-.713-1.255-.354-2.916-.217"/><path fill="#E0E0E0" d="M33.94 95.022c-1.992.68-4.645 1.982-5.338 3.001-.694 1.02-2.304 3.932-3.824 8.997-1.345 4.493-2.426 8.203-2.832 11.096-.42 3.035.232 4.027 2.275 5.31 2.044 1.284 11.8 4.475 11.8 4.475s-.06-3.776 2.535-6.112l-6.5-3.776s2.205-6.556 3.135-8.846 2.87-10.02-1.251-14.145"/><path fill="#fff" d="M173.117 18.645a19.78 19.78 0 0 0-5.66 13.473l.078 2.27a19.89 19.89 0 0 0 39.642-.403v-2.28a19.892 19.892 0 0 0-24.128-18.59 19.9 19.9 0 0 0-9.971 5.53z"/><path fill="#455A64" d="M171.937 17.435a21.622 21.622 0 0 0-2.083 27.79l-2.663 6.162a1.26 1.26 0 0 0 .276 1.39 1.26 1.26 0 0 0 1.395.25l6.112-2.76a21.618 21.618 0 0 0 29.476-30.973 21.62 21.62 0 0 0-21.937-7.795 21.6 21.6 0 0 0-10.576 5.936m29.353.982a19.84 19.84 0 0 1 5.896 13.365v2.28a19.887 19.887 0 0 1-19.671 18.472 19.89 19.89 0 0 1-19.98-18.138l-.069-2.28a19.89 19.89 0 0 1 12.42-17.957 19.89 19.89 0 0 1 21.414 4.258z"/><path fill="#455A64" d="M198.048 39.289a7.86 7.86 0 0 0-2.182-4.668 6.03 6.03 0 0 0-4.274-1.838h-8.501c-3.252 0-6.014 2.762-6.466 6.486l-.363 2.948h22.159zM187.337 31.31a6.032 6.032 0 0 1-5.929-7.205 6.031 6.031 0 0 1 10.935-2.182 6.04 6.04 0 0 1 1.017 3.353 6.006 6.006 0 0 1-6.023 6.034"/><path fill="#F7921E" d="M213.519 47.144c.986-6.075-3.139-11.8-9.214-12.786s-11.799 3.14-12.785 9.215 3.139 11.799 9.214 12.785 11.799-3.14 12.785-9.214"/><path fill="#fff" d="M208.297 44.122h-4.569v-4.589a1.24 1.24 0 0 0-2.477 0v4.55h-4.54a1.235 1.235 0 0 0-1.243.734 1.24 1.24 0 0 0 .297 1.413 1.24 1.24 0 0 0 .946.32h4.54v4.55a1.24 1.24 0 0 0 2.477 0v-4.511h4.549a1.238 1.238 0 0 0 0-2.467z"/></svg>