<svg xmlns="http://www.w3.org/2000/svg" width="256" height="256" fill="none"><path stroke="#D5D5D5" d="M242.135 161.994c0 17.964-12.617 34.323-33.221 46.219-20.591 11.888-49.071 19.257-80.555 19.257s-59.964-7.369-80.556-19.257c-20.604-11.896-33.22-28.255-33.22-46.219s12.616-34.324 33.22-46.219c20.592-11.889 49.071-19.257 80.556-19.257s59.964 7.368 80.555 19.257c20.604 11.895 33.221 28.254 33.221 46.219Z"/><path fill="#F7921E" d="M162.438 16.899c0-1.376-.487-2.35-1.268-2.83l-4.629-2.683c-.81-.515-1.947-.475-3.209.255L30.46 82.387a6 6 0 0 0-.475.311l-.148.108c-.107.079-.215.158-.322.249l-.159.141q-.152.126-.288.26a2 2 0 0 0-.159.159 5 5 0 0 0-.277.289l-.142.164-.271.322q-.058.084-.125.159c-.09.124-.18.243-.266.373l-.096.136c-.096.147-.192.289-.277.442a.6.6 0 0 0-.062.096q-.162.27-.306.566l-.164.34q-.035.084-.08.163l-.13.317-.085.204-.101.294c0 .074-.057.153-.08.233l-.084.277-.068.26c0 .085-.04.164-.063.25-.022.084-.04.192-.056.288-.017.096 0 .153-.04.226s0 .221-.04.334v.181a5 5 0 0 0 0 .504l.125 88.099c0 1.324.453 2.263 1.177 2.756q.12.079.25.141l4.561 2.66.068.04h.034c.798.424 1.879.345 3.067-.345l122.866-70.746c2.445-1.409 4.421-4.834 4.415-7.635zm-7.273 86.593v.085l-.243-82.388 3.169-1.823-3.124 1.806zM35.09 92.738v-.079 18.836l.04 14.488v29.549l.146 7.098.057 12.451h-.056v3.328z"/><path fill="#455A64" d="m154.916 20.718.249 85.919-119.832 69.184-.243-85.92z"/><path fill="#fff" d="m154.916 20.712.249 85.919-119.832 69.184-.243-85.92z" opacity=".3"/><path fill="#fff" d="M154.927 23.212v4.177L123.193 46.97l.646 4.392 31.099-20.375v2.417l-30.771 20.2.243 1.652 30.562-17.636v4.726l-12.824 7.392 3.514 9.055 9.344-6.848v5.66L138.701 69.61l7.29 21.982 9.095-5.252v7.086l-7.143 4.126 3.679 11.081-6.984 4.03-3.356-11.268-34.117 19.701.606 12.853-3.707 2.139-.442-12.949-26.6 15.366-.527 13.51-3.707 2.139.696-13.583-22.282 12.864-.605 13.555-7.001 4.041.922-13.736-9.242 5.337v-7.086l9.769-5.659.798-11.886-10.567 7.816v-6.112l26.753-19.599.702-9.622-27.529 18.417v-2.898l8.331-5.581-.045-13.713-8.325 4.805v-4.726l19.01-10.974 3.82-12.598L35.118 99.17v-2.224L79.015 66.35l.6-2.145 4.997-2.886-1.63 6.225 15.632-9.621.736-5.094 2.638-1.523-.668 4.925 16.362-10.063-.442-3.69 4.885-2.83.515 3.452zM139.25 51.414l-24.393 14.081.617 6.441L96.763 82.74l-1.296 12.842 47.292-34.643zm-92.615 66.92 44.19-29.594 1.229-10.08-45.634 26.346zm30.698 12.932 26.091-15.043-.679-20.08-24.755 18.229-.657 16.917m62.183-35.9-2.881-9.677-30.211 19.061.453 9.463zm-65.652 37.892.843-16.509-22.61 16.639-.566 12.763zm32.022-39.465.362 7.658 29.538-18.643-2.7-9.056-27.166 20.007M81.685 72.61l-2.264 8.62 39.726-22.934-.979-8.206zm-16.447 45.135 24.24-17.76.997-8.15-24.693 16.549-.566 9.361m-4.398-36.516L57.01 94.15l16.98-9.808 4.3-15.298-17.448 12.185m51.503-10.187-.323-3.9-14.477 8.36-.442 4.34z"/><path fill="#F7921E" d="m113.759 48.573.544 5.518-3.238 1.874-.118-1.432-29.29 18.071-2.252 8.62 18.553-10.708-.465 4.997-.435 4.347-2.23 22.09-6.17 4.533-10.668 7.861-.441 11.523-3.322 1.913.503-11.036.238-6.152L89.451 99.98l2.604-21.326L72.33 90.047 74 84.348l3.791-13.623 5.184-3.18 15.638-9.633 2.711-1.67z"/><path fill="#fff" d="m113.759 48.568.543 5.519-3.237 1.873-.119-1.432-29.289 18.071-2.252 8.62 18.552-10.708-.464 4.997-.436 4.347-2.23 22.09-6.169 4.533-10.668 7.861-.442 11.524-3.322 1.913.504-11.037.237-6.152 14.484-10.612 2.603-21.325L72.33 90.042 74 84.344l3.792-13.623 5.184-3.18 15.638-9.633 2.711-1.67z" opacity=".3"/><path fill="#F7921E" d="m75.975 123.094 3.91 3.379-7.799 4.505zM114.626 46.257c1.521.913 1.74 3.67.534 6.55l-3.619 8.617-3.655-4.173c-1.221-1.394-1.016-4.413.49-7.177a9.3 9.3 0 0 1 3.122-3.484c1.125-.69 2.266-.86 3.128-.333m-1.644 6.155c.482-1.146.46-2.323-.11-2.725a1.19 1.19 0 0 0-1.36.085c-.531.35-.969.837-1.272 1.417-.643 1.153-.731 2.423-.183 3.004.199.19.455.3.723.309.268.008.53-.085.739-.263a3.97 3.97 0 0 0 1.463-1.827"/><path fill="#000" d="m75.975 123.083 3.91 3.379-7.798 4.505zM114.627 46.259c1.521.913 1.74 3.67.534 6.55l-3.619 8.617-3.655-4.173c-1.221-1.394-1.016-4.413.49-7.177a9.3 9.3 0 0 1 3.121-3.484c1.126-.69 2.266-.86 3.129-.333m-1.645 6.155c.483-1.146.461-2.323-.11-2.725a1.18 1.18 0 0 0-1.359.085c-.532.35-.97.837-1.272 1.417-.644 1.153-.731 2.423-.183 3.004.199.19.455.3.723.309.268.008.53-.085.739-.263a3.96 3.96 0 0 0 1.462-1.827" opacity=".3"/><path fill="#F7921E" d="m30.947 180.87-.198-88.104c0-2.83 1.963-6.225 4.408-7.64l122.844-70.78c1.211-.696 2.314-.77 3.118-.317l-4.629-2.683c-.81-.515-1.947-.475-3.21.255L30.409 82.347A9.73 9.73 0 0 0 26 89.987l.22 88.144c0 1.324.454 2.264 1.178 2.756q.12.08.249.142l4.562 2.66c-.776-.464-1.257-1.438-1.262-2.819"/><path fill="#fff" d="M156.49 11.359c-.81-.515-1.947-.476-3.209.255L30.409 82.36a9.3 9.3 0 0 0-3.396 3.769l4.732 2.728a9.27 9.27 0 0 1 3.396-3.758L158 14.336c1.211-.696 2.315-.77 3.118-.317z" opacity=".3"/><path fill="#000" d="m26 90.032.22 88.105c0 1.324.454 2.263 1.178 2.756q.12.079.249.141l4.562 2.66c-.781-.469-1.262-1.443-1.268-2.83l-.192-88.092a8.6 8.6 0 0 1 1.035-3.883l-4.731-2.728A8.7 8.7 0 0 0 26 90.032" opacity=".2"/><path fill="#F7921E" d="m158.091 19.366-3.124 1.806.209 82.32a5.51 5.51 0 0 1-2.23 3.848l-117.67 67.741v3.328l120.795-69.546a5.48 5.48 0 0 0 2.224-3.843z"/><path fill="#000" d="m158.091 19.366-3.124 1.806.209 82.32a5.51 5.51 0 0 1-2.23 3.848l-117.67 67.741v3.328l120.795-69.546a5.48 5.48 0 0 0 2.224-3.843z" opacity=".3"/><path fill="#F7921E" d="M162.438 16.892c0-1.375-.487-2.349-1.268-2.83-.804-.453-1.907-.379-3.118.317L35.186 85.125c-2.445 1.415-4.42 4.834-4.41 7.64l.221 88.105c0 1.381.487 2.354 1.268 2.83l.068.039h.034c.798.425 1.88.346 3.068-.345L158.3 112.648c2.445-1.409 4.42-4.833 4.414-7.635zm-6.367 91.964L35.304 178.397l-.215-85.648a5.5 5.5 0 0 1 2.225-3.849L158.09 19.36l.215 85.653a5.484 5.484 0 0 1-2.235 3.843M69.937 190.241v-9.414l70.664-16.251v9.457a1.5 1.5 0 0 1-.324.766l-27.519 38.583c-.679.949-1.402.787-1.617-.356l-3.494-18.181a2.89 2.89 0 0 0-2.502-2.157l-34.323-2.156c-.583-.086-.885-.184-.885-.291"/><path fill="#000" d="M69.937 190.241v-9.414l70.664-16.251v9.457a1.5 1.5 0 0 1-.324.766l-27.519 38.583c-.679.949-1.402.787-1.617-.356l-3.494-18.181a2.89 2.89 0 0 0-2.502-2.157l-34.323-2.156c-.583-.086-.885-.184-.885-.291" opacity=".15"/><path fill="#000" d="M111.216 186.487v26.775a1 1 0 0 1-.086-.28l-3.483-18.138a2.6 2.6 0 0 0-.561-1.078v-13.35z" opacity=".2"/><path fill="#F7921E" d="m111.13 203.525-3.483-18.105a2.89 2.89 0 0 0-2.502-2.211l-34.324-2.157c-1.164-.075-1.186-.355-.053-.625l68.668-16.358c1.132-.27 1.499.28.83 1.218l-27.519 38.583c-.679.949-1.402.798-1.617-.345"/><path fill="#fff" d="M107.086 184.258a2.84 2.84 0 0 0-1.919-1.079l-34.324-2.157c-1.165-.075-1.186-.355-.054-.625l68.647-16.326c.604-.151.981 0 1.079.205z" opacity=".15"/><path fill="#F7921E" d="M213.169 68.529q-.117.101-.247.184l4.951-2.796s12.215-9.871 12.215-18.96v-2.07c0-9.088-5.981-19.905-13.361-24.178-.252-.142-.525-.279-.756-.405a12.585 12.585 0 0 0-2.198-.878 9 9 0 0 0-.704-.189 5 5 0 0 0-.688-.126 6 6 0 0 0-.673-.079c-.221 0-.436-.031-.652-.031a6.83 6.83 0 0 0-3.847 1.124l-4.631 2.665c2.355-1.167 5.424-.92 8.793 1.02 5.288 3.054 9.861 9.46 12.032 16.205a26.2 26.2 0 0 1 1.34 7.962v2.071c0 6.991-7.926 15.112-11.574 18.48m-8.473-33.15c0 4.262 2.986 9.46 6.675 11.563 3.285 1.882 5.998.746 6.571-2.518h-.032c-.131-.052-.263-.1-.389-.157a4 4 0 0 1-.394-.19c-.137-.063-.263-.136-.4-.215-3.679-2.102-6.685-7.317-6.685-11.564v-.662q.02-.349.084-.694c-3.08-1.13-5.43.636-5.43 4.437"/><path fill="#000" d="M210.152 30.942q-.063.344-.084.694v.662c0 4.252 2.985 9.461 6.686 11.563.136.08.263.153.399.216q.192.105.394.19c.127.057.258.104.389.157h.032c-.573 3.264-3.285 4.4-6.57 2.517-3.68-2.134-6.675-7.316-6.675-11.563-.027-3.8 2.323-5.566 5.429-4.436" opacity=".3"/><path fill="#F7921E" d="M198.01 34.607c0 7.526 9.167 26.942 12.321 33.386a1.796 1.796 0 0 0 2.838.526c3.648-3.364 11.563-11.485 11.563-18.48v-2.066c0-9.083-5.986-19.905-13.366-24.178C203.987 19.52 198 23.443 198 32.53zm6.681.772c0-4.262 2.996-5.986 6.686-3.858 3.69 2.129 6.68 7.317 6.68 11.564s-2.99 5.992-6.68 3.863-6.686-7.306-6.686-11.569"/><path fill="#F7921E" d="M198.01 34.607c0 7.526 9.167 26.942 12.321 33.386a1.796 1.796 0 0 0 2.838.526c3.648-3.364 11.563-11.485 11.563-18.48v-2.066c0-9.083-5.986-19.905-13.366-24.178C203.987 19.52 198 23.443 198 32.53zm6.681.772c0-4.262 2.996-5.986 6.686-3.858 3.69 2.129 6.68 7.317 6.68 11.564s-2.99 5.992-6.68 3.863-6.686-7.306-6.686-11.569"/><path fill="#fff" d="M198.01 34.605c0 7.526 9.167 26.942 12.321 33.386a1.797 1.797 0 0 0 2.838.526c3.648-3.364 11.563-11.485 11.563-18.48V47.97c0-9.083-5.986-19.905-13.366-24.178C203.987 19.52 198 23.44 198 32.528zm6.681.772c0-4.263 2.996-5.987 6.686-3.858s6.68 7.317 6.68 11.564-2.991 5.992-6.68 3.863c-3.69-2.129-6.686-7.306-6.686-11.569" opacity=".4"/><path fill="#263238" d="M196.482 197.611c0 .75.136 1.04-.777 1.715-.914.674-2.905.984-4.413.576a4.06 4.06 0 0 1-2.441-1.471 20 20 0 0 1-1.406-2.136c-.262-.338-1.489-.984-2.675-1.509s-3.64-1.658-4.497-3.687a4.8 4.8 0 0 1-.267-3.471z"/><path fill="#455A64" d="M188.504 187.333c2.418 1.578 4.451 5.542 7.758 4.338.164 1.939.68 4.033.22 5.94-1.405 1.743-4.497 2.075-6.273.825-.894-.764-1.405-1.659-2.262-2.465a8.8 8.8 0 0 0-2.375-1.447 25 25 0 0 1-2.877-1.593c-5.341-3.94-2.689-11.159 5.809-5.598"/><path fill="#263238" d="M179.969 208.942c0 .811-.052 1.406-.549 1.762-.496.356-4.216.937-5.186 1.068s-1.129-.534-1.822-.305-2.3 1.406-4.713 1.94-4.399 1.106-7.749 0-3.686-2.403-3.64-3.537c.047-1.134 23.659-.928 23.659-.928"/><path fill="#455A64" d="M179.5 201.349c.539 2.342 1.11 5.8.469 7.571-.675.67-2.942 1.063-4.915 1.33a15.2 15.2 0 0 0-5.228 1.626c-3.832 1.602-10.574 2.183-13.258-1.406-2.684-4.82 11.272-3.635 12.986-9.21.637-2.047 7.412.656 9.946.089"/><path fill="#37474F" d="M197.55 171.727c-1.874-19.808-.904-35.633-2.684-51.58 0 0-27.387-.693-28.071 8.756 0 0-.38 33.679-.16 37.844.099 4.216 2.155 32.732 2.155 35.702 6.911 3.43 11.192.839 11.192.839-.042-3.837 2.957-20.969 1.331-30.325l1.106-15.876s4.74 28.441 5.542 36.11c2.037 3.026 7.828 2.319 8.798.492 0 0 1.447-16.135.791-21.962"/><path fill="#263238" d="m182.419 157.087 1.227-15.296s5.224-.965 8.269-4.755c-.829 3.031-4.118 5.664-6.203 6.404l-2.085 12.982.867 12.002z"/><path fill="#263238" d="M186.115 154.082a95 95 0 0 0 1.124 10.869c.717 3.996 2.736 25.012 3.209 29.983a8 8 0 0 1-.468-.169c-.506-5.331-2.478-25.818-3.181-29.744a95 95 0 0 1-1.129-10.892c-.248-3.958-.469-7.697-.74-9.636l.468-.061c.234 1.939.469 5.687.717 9.65M172.299 203.79c-.599-8.967-2.033-31.552-1.916-40.627.141-10.831.502-27.691 1.382-34.69l.445.056c-.876 6.976-1.241 23.817-1.377 34.639-.117 9.107 1.331 31.857 1.925 40.734z"/><path fill="#263238" d="M171.33 139.608c-2.446-2.465-2.108-7.632-1.874-10.85 0-.272.033-.53.047-.769h-.445c0 .234-.033.469-.052.759-.229 3.434-.604 9.028 2.342 11.511z"/><path fill="#C8856A" d="m177.396 86.587 1.462 6.69 9.145-1.19-1.57-7.247z"/><path fill="#AF6152" d="M172.745 74.237c-.637.937-2.619 3.833-2.661 4.357l1.874.937z"/><path fill="#C8856A" d="M177.312 67.032c-2.862-.08-4.544 2.08-4.891 8.18 0 .244-.332.642-.529 1.565-.829 3.968.098 7.608.829 8.535 1.752 1.195 3.617 1.542 6.245 1.106 2.005-.328 7.102-1.35 9.501-4.277 2.811-3.448 3.982-8.405 1.607-10.738-3.35-3.284-11.183-4.324-12.762-4.37"/><path fill="#AF6152" d="M172.721 85.313c.408.515 2.746 1.508 4.685 1.353l-.215-.988c-1.5.075-3.002-.048-4.47-.365"/><path fill="#263238" d="M177.682 77.854a.514.514 0 0 0 .937.08 6.7 6.7 0 0 1 .937-1.251 2.55 2.55 0 0 1 1.663-.717c2.343 0 2.015 3.106.961 4.263-1.734 1.874-2.844.468-2.844.468s-1.11 3.069.984 4.648c0 0 3.49 1.19 6.09.159 1.818-2.296 3.036-3.748 4.216-5.692 2.811-4.605 2.811-10.1.675-11.173 0-1.556-1.031-3.814-4.31-4.905-3.125-1.04-5.153-.754-7.318-.469s-4.787 1.504-6.952-.032a4.181 4.181 0 0 0 .637 3.748 1.38 1.38 0 0 0-.993 2.571 1.08 1.08 0 0 0-.393 1.316 1.3 1.3 0 0 0 1.204.75c.462-.005.922-.07 1.368-.192.777 1.734 2.843 2.202 4.038 2.029-1.256 1.766-1.274 3.588-.9 4.399"/><path fill="#37474F" d="M190.556 88.699c3.425-.22 5.814 1.1 7.964 5.823 2.052 4.47 4.933 10.925 6.011 14.176.525 1.588 1.457 3.008-1.471 5.87a47.2 47.2 0 0 1-9.009 6.676l-3.111-6.353 4.057-4.839-1.606-3.982z"/><path fill="#263238" d="M195.011 110.053a8.34 8.34 0 0 0 3.355 2.558c-1.312.342-3.551-.937-4.01-1.781z"/><path fill="#455A64" d="M193.194 89.589c2.412 1.293 4.216 6.385 3.916 10.105-.155 2-1.302 12.621-1.663 19.02-.094 1.71.098 3.809.468 7.247.277 2.544-.426 3.181-.426 3.181s-3.101 3.664-11.88 4.343c-11.211.867-16.833-3.378-16.833-3.378-.768-.566.173-5.054.042-16.968-.122-11.108.384-14.012 1.996-17.694.534-1.092 1.902-3.355 3.72-3.865 1.443-.403 5.79-1.635 7.111-1.874 2.179.52 9.004-1.19 9.004-1.19 2.418-.056 3.055.272 4.545 1.073"/><path fill="#37474F" d="M175.869 90.888c.806-1.092 1.176-2.441 1.79-2.708 0 0 3.083 1.134 5.996.468s3.186-1.485 3.186-1.485l-.145-.665c.321.107.593.325.768.614q.527.78 1.19 1.447s0 2.3-4.877 3.036c-5.467.792-7.908-.707-7.908-.707"/><path fill="#AF6152" d="M144.729 86.015c-.548-1.902-.908-2.75-1.368-3.363-.459-.614-1.873-3.04-2.515-3.842-.408-.506-1.218.136-.998 1.171.173.802 1.031 2.343 1.358 3.064s.413 2.91.413 2.91z"/><path fill="#C8856A" d="M146.299 94.294c-.647-1.078-.862-5.402-1.068-6.723-.286-1.8-.904-2.061-1.499-2.385-1.94-1.058-2.432-1.204-2.98-1.25a.99.99 0 0 0-.852.421c-.506-.295-1.19-.834-1.874-.14-.185.17-.343.368-.469.585a.65.65 0 0 0-.431-.056c-.726.154-1.237 2.197-1.105 2.895.093.469.468.839 1.096 1.18.515.296.66-.346.66-.346l.628.534c.651 2.085-.792 4.132.745 5.992a16 16 0 0 1 1.954 2.183c3.227 5.847 6.685 11.365 7.87 12.883l4.825-7.322s-6.858-7.374-7.5-8.452"/><path fill="#AF6152" d="m139.9 84.356 2.384 1.152-2.122-1.405a.9.9 0 0 0-.262.253M137.557 84.798l2.614 1.499-2.408-1.775a1.4 1.4 0 0 0-.206.276M138.405 89.013a6 6 0 0 1-.169-.736 1.17 1.17 0 0 1 .038-.67s-.52-.412-.759-.656a3 3 0 0 1-.276-.36c-.095-.141-.155-.301-.178-.469-.015.18.022.36.107.52q.105.217.263.398l-.089.403a.65.65 0 0 0-.319-.098.83.83 0 0 0-.445.15 1 1 0 0 1 .44-.075c.14.018.269.085.366.187.239.239.376.562.379.9z"/><path fill="#37474F" d="M172.538 91.581c-5.462.68-6.628 2.46-7.776 3.467-3.711 3.251-10.091 8.343-10.091 8.343l-5.004-5.153s-1.03-.07-2.736 1.452c-1.705 1.523-2.145 4.282-2.145 4.282s3.279 5.861 3.968 6.934c3.096 4.905 5.584 4.104 7.06 3.378 4.731-2.343 13.202-7.791 14.523-8.658 2.558-1.672 4.338-9.88 2.201-14.045"/></svg>