<svg xmlns="http://www.w3.org/2000/svg" width="256" height="256" fill="none"><path fill="#F7921E" d="m140.066 202.999 36.774-23.551 16.197 5.207z"/><path fill="#F7921E" d="m140.066 203 31.784-26.507-7.059-8.155z"/><path fill="#F7921E" d="M171.85 176.491v6.155l-31.784 20.352z"/><path fill="#000" d="M171.85 176.491v6.155l-31.784 20.352z" opacity=".3"/><path fill="#F7921E" d="m91.711 202.243 27.125-17.37 11.954 3.834z"/><path fill="#F7921E" d="m91.711 202.244 23.447-19.552-5.207-6.016zM115.158 182.692v4.538l-23.447 15.014z"/><path fill="#000" d="M115.158 182.692v4.538l-23.447 15.014z" opacity=".3"/><path fill="#E6E6E6" d="M176.475 174.788a.65.65 0 0 1-.607-.414.65.65 0 0 1 .163-.716 26.4 26.4 0 0 0 3.391-3.79.66.66 0 0 1 1.087.047.65.65 0 0 1-.035.726 28.4 28.4 0 0 1-3.556 3.973.66.66 0 0 1-.443.174m5.755-7.572a.7.7 0 0 1-.296-.069.654.654 0 0 1-.278-.87 27 27 0 0 0 1.861-4.729.65.65 0 0 1 .304-.394.65.65 0 0 1 .887.253c.084.152.106.33.06.497a27.4 27.4 0 0 1-1.956 4.964.64.64 0 0 1-.582.348m2.764-9.102h-.078a.644.644 0 0 1-.565-.722q.194-1.637.191-3.286c0-.6 0-1.208-.052-1.8a.643.643 0 0 1 .609-.695.646.646 0 0 1 .687.608 30.145 30.145 0 0 1-.14 5.364.66.66 0 0 1-.652.531m-.452-9.511a.655.655 0 0 1-.634-.513 31.5 31.5 0 0 0-1.47-4.895.654.654 0 0 1 .873-.831c.159.07.282.201.345.362a33 33 0 0 1 1.53 5.094.655.655 0 0 1-.505.765.4.4 0 0 1-.139.018m-3.329-8.929a.66.66 0 0 1-.574-.339 36 36 0 0 0-2.765-4.346.65.65 0 0 1 .614-1.037.65.65 0 0 1 .43.254 38 38 0 0 1 2.868 4.46.65.65 0 0 1-.26.869.67.67 0 0 1-.313.139m-5.608-7.711a.62.62 0 0 1-.469-.209 44 44 0 0 0-3.73-3.529.68.68 0 0 1-.226-.454.65.65 0 0 1 .161-.481.66.66 0 0 1 .935-.065 44 44 0 0 1 3.833 3.643.64.64 0 0 1 .12.704.65.65 0 0 1-.598.391zm-7.233-6.199a.65.65 0 0 1-.365-.121 66 66 0 0 0-4.06-2.547l-.322-.183a.654.654 0 0 1 .411-1.212.65.65 0 0 1 .241.082l.322.182c1.434.818 2.834 1.739 4.147 2.608a.653.653 0 0 1-.374 1.191m-8.181-4.946a.6.6 0 0 1-.321-.087l-4.521-2.608a.652.652 0 1 1 .661-1.122l4.512 2.608a.65.65 0 0 1 .304.736.654.654 0 0 1-.635.481zm-8.276-4.79a.66.66 0 0 1-.322-.087l-4.512-2.609a.65.65 0 0 1-.296-.385.65.65 0 0 1 .053-.484.66.66 0 0 1 .869-.243l4.512 2.608a.65.65 0 0 1 .304.736.65.65 0 0 1-.634.481zm-8.276-4.791a.65.65 0 0 1-.322-.095l-4.512-2.608a.664.664 0 0 1-.244-.87.65.65 0 0 1 .87-.235l4.512 2.609a.65.65 0 0 1 .296.385.65.65 0 0 1-.053.484.664.664 0 0 1-.547.304zm-8.268-4.799a.65.65 0 0 1-.331-.087l-1.573-.869a.648.648 0 0 1-.321-.65.65.65 0 0 1 .25-.432.66.66 0 0 1 .723-.048l1.573.869a.657.657 0 0 1 .244.87.65.65 0 0 1-.565.321zM120.678 182.769a.65.65 0 0 1-.606-.429.65.65 0 0 1 .189-.718l3.243-2.678a.65.65 0 0 1 .481-.161.66.66 0 0 1 .546.956.65.65 0 0 1-.158.205l-3.243 2.678a.63.63 0 0 1-.452.147m6.599-5.442a.64.64 0 0 1-.504-.235.65.65 0 0 1-.145-.478.65.65 0 0 1 .232-.443l4.025-3.321a.65.65 0 0 1 1.048.571.65.65 0 0 1-.222.437l-4.017 3.321a.67.67 0 0 1-.417.148m7.25-6.225a.67.67 0 0 1-.469-.2.65.65 0 0 1 0-.921 51 51 0 0 0 3.477-3.764.668.668 0 0 1 .922-.079.66.66 0 0 1 .078.922 55 55 0 0 1-3.608 3.86.64.64 0 0 1-.4.182m6.208-7.25a.65.65 0 0 1-.621-.524.64.64 0 0 1 .09-.467 42 42 0 0 0 2.687-4.347.65.65 0 0 1 1.232.09.65.65 0 0 1-.085.518 44 44 0 0 1-2.764 4.512.66.66 0 0 1-.539.218m4.546-8.39a.7.7 0 0 1-.234 0 .65.65 0 0 1-.374-.869 35 35 0 0 0 1.513-4.886.66.66 0 0 1 .278-.437.64.64 0 0 1 .509-.097.65.65 0 0 1 .482.821 35 35 0 0 1-1.565 5.068.65.65 0 0 1-.609.4m2.209-9.267h-.061a.65.65 0 0 1-.444-.228.65.65 0 0 1-.147-.476c.069-.87.104-1.669.104-2.495s0-1.739-.113-2.608a.64.64 0 0 1 .591-.705.663.663 0 0 1 .704.592c.079.869.122 1.808.122 2.712s0 1.739-.113 2.608a.653.653 0 0 1-.643.6m-.731-9.494a.66.66 0 0 1-.634-.495 28 28 0 0 0-1.652-4.816.7.7 0 0 1-.062-.251.67.67 0 0 1 .177-.473.66.66 0 0 1 .715-.16.64.64 0 0 1 .361.353 31 31 0 0 1 1.739 5.034.665.665 0 0 1-.478.791zm-3.747-8.754a.66.66 0 0 1-.556-.296 32 32 0 0 0-3.069-4.086.654.654 0 0 1 .057-.926.654.654 0 0 1 .926.057 34 34 0 0 1 3.19 4.242.646.646 0 0 1-.213.914.65.65 0 0 1-.335.086zm-6.207-7.233a.65.65 0 0 1-.435-.166 39 39 0 0 0-4.051-3.138.64.64 0 0 1-.273-.419.643.643 0 0 1 .104-.489.65.65 0 0 1 .674-.27.7.7 0 0 1 .234.1 41.5 41.5 0 0 1 4.182 3.243.65.65 0 0 1 .181.702.7.7 0 0 1-.129.219.63.63 0 0 1-.487.218m-7.824-5.495a.67.67 0 0 1-.339-.095l-4.469-2.687a.64.64 0 0 1-.342-.393c-.027-.085-.036-.176-.027-.265a.67.67 0 0 1 .258-.453.655.655 0 0 1 .755-.019c.365.209 3.268 1.956 4.494 2.704a.64.64 0 0 1 .266.316.654.654 0 0 1-.596.892"/><path fill="#F7921E" d="m147.295 64.312-14.806-8.594-.16-.086c-7.366-4.15-17.458-3.548-28.642 2.922-10.46 6.028-20.012 16.083-27.206 27.733-8.312 13.407-13.505 28.938-13.505 42.848 0 12.976 4.542 22.098 11.884 26.358l15.04 8.594c7.427 4.739 17.899 4.31 29.538-2.394 22.48-12.841 40.736-44.504 40.736-70.544 0-13.505-4.96-22.823-12.879-26.837"/><path fill="#000" d="m89.58 164.013-14.732-8.422c-7.366-4.26-11.884-13.382-11.884-26.359 0-13.922 5.23-29.465 13.504-42.847l15.74 9.073c-8.324 13.419-13.505 28.912-13.505 42.81-.062 12.387 4.1 21.264 10.877 25.745" opacity=".1"/><path fill="#fff" d="M147.038 64.138c-7.268-3.523-16.954-2.627-27.586 3.5-10.632 6.125-20.061 16.143-27.268 27.794l-15.74-9.072c7.195-11.651 16.747-21.706 27.207-27.734 11.172-6.458 21.276-7.072 28.642-2.922l.16.086z" opacity=".4"/><path fill="#fff" d="M135.664 103.537V94.87c0-9.822-6.003-14.413-13.419-10.141-7.366 4.285-13.406 15.764-13.406 25.634v7.735a30.7 30.7 0 0 1-4.518 15.113 8.4 8.4 0 0 0-1.093 3.953c0 2.456 1.51 3.683 3.376 2.554l31.331-18.084a8.09 8.09 0 0 0 3.376-6.458 3.17 3.17 0 0 0-.982-2.615c-2.848-1.24-4.665-4.371-4.665-9.024M128.716 129.674c0 4.739-2.885 10.239-6.445 12.277s-6.434-.135-6.434-4.911z"/></svg>