<svg xmlns="http://www.w3.org/2000/svg" width="256" height="256" fill="none"><path stroke="#D5D5D5" d="M46.91 224.526c-22.371-12.916-33.443-29.769-33.443-46.523 0-16.753 11.072-33.612 33.443-46.54 22.369-12.925 51.717-19.402 81.092-19.402 29.374 0 58.721 6.477 81.088 19.402 22.369 12.928 33.441 29.781 33.442 46.532s-11.071 33.603-33.442 46.531c-22.369 12.925-51.717 19.397-81.092 19.394-29.374-.003-58.721-6.48-81.088-19.394l-.25.433z"/><path fill="#37474F" d="M133.177 158.38V27.18c0-2.587-.114-4.682-2.856-6.333s-4.669-.6-6.907.693L66.057 54.655C63.818 55.95 62 59.094 62 61.681v131.2c0 2.587 1.26 5.421 2.856 6.333s4.669.6 6.911-.693l57.353-33.115a7.62 7.62 0 0 0 4.057-7.026"/><path fill="#263238" d="M129.528 159.693 70.55 193.745V61.944l-7.362-4.262A8.3 8.3 0 0 0 62 61.679V192.88c0 2.587.302 4.821 2.856 6.332s4.669.601 6.911-.693l57.353-33.115a7.7 7.7 0 0 0 3.511-3.918l-.227-.13z"/><path fill="#455A64" d="m129.016 25.965-57.53 33.212a6.3 6.3 0 0 0-2.847 4.925V194.19c0 2.776 1.974 3.914 4.376 2.52l55.992-32.334a7.14 7.14 0 0 0 3.225-5.59V27.838c.009-2.05-1.444-2.885-3.216-1.873"/><path fill="#263238" d="M129.436 34.423v121.089a6.8 6.8 0 0 1-3.066 5.312l-51.856 29.94c-1.68.983-3.061.189-3.061-1.768V66.963a6.85 6.85 0 0 1 2.15-4.62l.29-.26q.295-.231.62-.42l14.589-8.398.949-.55c.525-.303.953-.059.953.55s.454.84 1.016.508l16.999-9.81a2.2 2.2 0 0 0 1.016-1.68 2.15 2.15 0 0 1 .84-1.59.5.5 0 0 1 .097-.06l14.277-8.234.302-.18c2.142-1.265 3.885-.257 3.885 2.204"/><path fill="#000" d="M125.253 32.365v120.27a6.81 6.81 0 0 1-3.065 5.312l-50.735 29.294V66.963a6.85 6.85 0 0 1 2.15-4.62l.29-.26a5 5 0 0 1 .62-.42l14.589-8.398.949-.55c.525-.303.953-.06.953.55 0 .609.454.84 1.016.508l16.999-9.81a2.2 2.2 0 0 0 1.016-1.68 2.15 2.15 0 0 1 .84-1.59.5.5 0 0 1 .097-.06z"/><path fill="#263238" d="m94.598 48.563 7.794-4.497c.466-.269.84-.08.84.42a1.8 1.8 0 0 1-.84 1.398l-7.794 4.502c-.462.268-.84.08-.84-.42a1.81 1.81 0 0 1 .84-1.403M106.399 41.386c.525-.303.949-.06.949.546a2.1 2.1 0 0 1-.949 1.646c-.525.302-.949.054-.949-.55a2.1 2.1 0 0 1 .949-1.642"/><path fill="#455A64" d="M67.32 78.343a3.41 3.41 0 0 0-1.499-2.709.99.99 0 0 0-1.024-.088c-.19.114-.928.53-1.126.647a1.16 1.16 0 0 0-.462 1.062v11.338a3.43 3.43 0 0 0 1.5 2.713 1.02 1.02 0 0 0 .99.105c.206-.11.962-.546 1.16-.664a1.17 1.17 0 0 0 .461-1.066z"/><path fill="#37474F" d="M66.208 78.985v11.338c0 1.016-.672 1.457-1.5.978a3.43 3.43 0 0 1-1.498-2.712V77.25c0-1.02.671-1.457 1.499-.979a3.43 3.43 0 0 1 1.499 2.713"/><path fill="#455A64" d="M67.32 98.15a3.42 3.42 0 0 0-1.499-2.708.98.98 0 0 0-1.024-.084c-.19.113-.928.525-1.126.642a1.16 1.16 0 0 0-.462 1.063v11.317a3.43 3.43 0 0 0 1.5 2.712 1.01 1.01 0 0 0 .99.105c.206-.109.962-.545 1.16-.663a1.17 1.17 0 0 0 .461-1.067z"/><path fill="#37474F" d="M66.208 98.793v11.337c0 1.017-.672 1.458-1.5.979a3.43 3.43 0 0 1-1.498-2.713V97.063c0-1.017.671-1.458 1.499-.979a3.43 3.43 0 0 1 1.499 2.709"/><path fill="#F7921E" d="M135.678 34.63c-.729-.418-1.732-.358-2.842.278l-.316.186-14.857 8.561-.102.065a2.23 2.23 0 0 0-.863 1.648 2.28 2.28 0 0 1-1.054 1.746L97.968 57.328h-.041a.68.68 0 0 0-.288-.603l-1.003-.571a.7.7 0 0 0-.701.074l-.99.566-15.176 8.757q-.34.211-.65.464l-.302.274a7.1 7.1 0 0 0-2.233 4.8v115.254c0 1.013.357 1.723.928 2.057l1.026.595c.576.334 1.37.283 2.247-.228l53.922-31.13a7.05 7.05 0 0 0 3.185-5.521V37.828c0-1.281-.464-2.177-1.179-2.6z"/><path fill="#000" d="M81.091 188.329v.265l-.301.171c-.878.511-1.672.558-2.248.228l-1.026-.594c-.575-.335-.928-1.045-.928-2.057V71.069a6.64 6.64 0 0 1 1.096-3.417l1.216.701a6.4 6.4 0 0 0-1.068 3.292v115.286a2.5 2.5 0 0 0 .437 1.537 1.36 1.36 0 0 0 1.095.511 2.7 2.7 0 0 0 1.314-.409zM118.318 44.932a1.86 1.86 0 0 0-.372 1.031 2.27 2.27 0 0 1-.394 1.184l-1.221-.706a2 2 0 0 0 .366-1.068c.021-.412.159-.81.4-1.146z" opacity=".3"/><path fill="#FAFAFA" d="M79.29 189.032a1.348 1.348 0 0 1-1.096-.511 2.45 2.45 0 0 1-.436-1.536V71.712a6.96 6.96 0 0 1 2.164-4.643l.097-.088q.096-.091.2-.176.29-.232.613-.418l15.163-8.761.99-.567a.7.7 0 0 1 .329-.106c.288 0 .32.334.32.464a.814.814 0 0 0 .785.928c.217-.008.428-.072.613-.185l17.67-10.214a2.472 2.472 0 0 0 1.17-1.945 2 2 0 0 1 .794-1.468.4.4 0 0 1 .084-.051l14.834-8.566.315-.186a3.5 3.5 0 0 1 1.681-.515c1.24 0 2.01 1.017 2.01 2.65v114.289a6.78 6.78 0 0 1-3.073 5.325L80.6 188.623a2.66 2.66 0 0 1-1.31.409"/><path fill="#F7921E" d="M135.636 35.404c1.114 0 1.782.905 1.782 2.423v114.288a6.65 6.65 0 0 1-2.938 5.145l-53.918 31.107c-.36.226-.773.356-1.198.376-.817 0-1.304-.683-1.304-1.82V71.66a6.68 6.68 0 0 1 2.084-4.471l.102-.098.177-.158q.284-.221.594-.404l15.154-8.751.99-.572a.43.43 0 0 1 .218-.074c.088 0 .092.228.092.25a1.03 1.03 0 0 0 1.022 1.138 1.44 1.44 0 0 0 .724-.213l17.671-10.214a2.73 2.73 0 0 0 1.286-2.14 1.8 1.8 0 0 1 .696-1.287l.065-.037 14.843-8.547.316-.181a3.2 3.2 0 0 1 1.542-.497m0-.465a3.65 3.65 0 0 0-1.797.548l-.316.186-14.857 8.561a.6.6 0 0 0-.102.065 2.23 2.23 0 0 0-.887 1.653 2.27 2.27 0 0 1-1.054 1.75l-17.633 10.2a1 1 0 0 1-.497.159c-.334 0-.562-.25-.562-.687s-.223-.706-.543-.706a.9.9 0 0 0-.464.135l-.99.57L80.79 66.14a5.6 5.6 0 0 0-.65.465l-.302.269A7.13 7.13 0 0 0 77.6 71.66v115.272c0 1.439.72 2.275 1.76 2.275a2.9 2.9 0 0 0 1.425-.441l53.922-31.13a7.06 7.06 0 0 0 3.185-5.521V37.827c0-1.82-.929-2.878-2.238-2.878z"/><path fill="#455A64" d="m133.778 46.408-.594-.028c-.042 0-.069-.06-.069-.13a3.4 3.4 0 0 0 0-.497.3.3 0 0 1 .037-.204l.585-.831a.2.2 0 0 0 0-.181l-.293-.632c-.028-.056-.079-.074-.111-.042l-.655.692a.1.1 0 0 1-.13 0 1 1 0 0 0-.283-.172.13.13 0 0 1-.06-.144l.148-.928c0-.065 0-.116-.06-.111l-.692.083a.17.17 0 0 0-.107.116l-.283.98a.3.3 0 0 1-.102.144 2.7 2.7 0 0 0-.441.288c-.037.032-.093 0-.126-.038l-.32-.492c-.032-.05-.084-.055-.116 0l-.683.84a.23.23 0 0 0-.023.186l.205.641a.3.3 0 0 1 0 .204q-.165.295-.293.609a.22.22 0 0 1-.111.12l-.655.181a.18.18 0 0 0-.102.135l-.237 1.059c0 .06 0 .116.051.116l.594.032c.042 0 .07.06.07.13q-.006.248.023.492a.4.4 0 0 1-.037.205l-.59.83a.21.21 0 0 0 0 .186l.293.627c.028.06.079.08.111.042l.65-.687a.1.1 0 0 1 .065-.027q.038 0 .065.027.131.106.288.167a.13.13 0 0 1 .052.065q.016.041.004.084l-.144.928c0 .07 0 .116.056.111l.692-.083a.15.15 0 0 0 .068-.044.16.16 0 0 0 .038-.072l.288-.975a.27.27 0 0 1 .102-.144 3 3 0 0 0 .465-.293c.037-.027.088 0 .12.038l.325.492c.033.05.084.06.116.023l.683-.84a.24.24 0 0 0 0-.19l-.269-.66a.3.3 0 0 1 0-.204 5 5 0 0 0 .292-.609.2.2 0 0 1 .116-.12l.655-.181a.18.18 0 0 0 .097-.135l.242-1.059c.032-.065-.01-.116-.01-.12m-1.652.817c-.219.966-.906 1.81-1.537 1.885-.632.074-.971-.65-.752-1.616s.905-1.81 1.536-1.885c.632-.074.966.687.753 1.616"/><path fill="#F0F0F0" d="M81.389 85.073a.49.49 0 0 1-.423-.242.465.465 0 0 1 .177-.664l52.724-30.443a.49.49 0 0 1 .664.181.463.463 0 0 1-.177.664L81.63 85.008a.47.47 0 0 1-.241.065"/><path fill="#E0E0E0" d="M84.295 77.005a.54.54 0 0 1-.237-.056l-1.722-.929a.67.67 0 0 1-.311-.404 1 1 0 0 1 .125-.761l1.723-2.939a.493.493 0 0 1 .668-.172.465.465 0 0 1 .172.664l-1.69 2.879 1.504.826a.49.49 0 0 1 .195.66.46.46 0 0 1-.427.231"/><path fill="#F0F0F0" d="M128.699 68.972 86.798 93.19c-1.57.929-2.846-.055-2.846-2.154 0-2.094 1.276-4.527 2.846-5.437l41.901-24.189c1.57-.928 2.846.056 2.846 2.15 0 2.075-1.276 4.508-2.846 5.413"/><path fill="#E0E0E0" d="m129.451 66.322-.58-.25c.113-.368.172-.75.176-1.133 0-1.342-.817-1.96-1.824-1.393-1.008.566-1.802 2.159-1.802 3.5s.818 1.96 1.825 1.393a3.5 3.5 0 0 0 1.198-1.3l.58.251a.23.23 0 0 0 .223-.028.73.73 0 0 0 .297-.366c.102-.307.056-.6-.093-.674m-2.228 1.105c-.594.344-1.077 0-1.077-.812a2.56 2.56 0 0 1 1.077-2.057c.594-.344 1.077 0 1.077.813a2.58 2.58 0 0 1-1.077 2.056"/><path fill="#000" d="m129.451 66.322-.58-.25c.113-.368.172-.75.176-1.133 0-1.342-.817-1.96-1.824-1.393-1.008.566-1.802 2.159-1.802 3.5s.818 1.96 1.825 1.393a3.5 3.5 0 0 0 1.198-1.3l.58.251a.23.23 0 0 0 .223-.028.73.73 0 0 0 .297-.366c.102-.307.056-.6-.093-.674m-2.228 1.105c-.594.344-1.077 0-1.077-.812a2.56 2.56 0 0 1 1.077-2.057c.594-.344 1.077 0 1.077.813a2.58 2.58 0 0 1-1.077 2.056" opacity=".1"/><path fill="#F0F0F0" d="M81.389 100.885a.487.487 0 0 1-.246-.928l52.724-30.439a.488.488 0 1 1 .487.845L81.63 100.82a.46.46 0 0 1-.241.065"/><path fill="#FAFAFA" d="M94.63 104.705a14.5 14.5 0 0 1-2.052 6.965c-.2.352-.418.696-.64 1.035-.224.339-.465.659-.706.97-.242.311-.465.548-.669.808a17 17 0 0 1-.334.362 12.2 12.2 0 0 1-2.702 2.178c-.47.274-.967.501-1.481.678q-.25.083-.493.139a4.27 4.27 0 0 1-2.535-.079c-1.587-.585-2.595-2.284-2.6-4.838 0-4.531 3.18-10.042 7.109-12.308 3.927-2.266 7.103-.46 7.103 4.09"/><path fill="#263238" d="M92.736 111.372q-.075.144-.158.283a9 9 0 0 1-.343.571l-.297.464a17 17 0 0 1-.706.975l-.065.084-.38-2.113a5 5 0 0 1 1.95-.264"/><path fill="#37474F" d="m92.234 112.224-.297.464a18 18 0 0 1-.706.975l-.065.084q-.294.375-.608.724l-.325.362a12.3 12.3 0 0 1-2.707 2.177q-.707.414-1.48.678-.25.084-.493.14a4.6 4.6 0 0 1-1.857.097 3.3 3.3 0 0 1-.678-.172 3.5 3.5 0 0 1-.775-.422c.013-.465.189-.91.497-1.258.928-.739 3.25-3.209 5.408-3.756.85-.223 1.7-.465 2.656-.683a1.429 1.429 0 0 1 1.43.59M84.564 104.795c-1.17 1.476-.334 2.962.084 4.364.464 1.593.682 2.192 1.22 2.391-.347-4.095.697-1.476 2.963-2.609a6.3 6.3 0 0 0 2.159-2.205 5 5 0 0 1 .283-.622 1.17 1.17 0 0 0 .535-.787 1.16 1.16 0 0 0-.233-.922.662.662 0 0 0 .406-1.091.66.66 0 0 0-.406-.223c.525-.603.367-1.509-.07-1.755a.79.79 0 0 0-.826.074 4.3 4.3 0 0 1-1.04.465c-.929.255-1.727.306-2.656.529-1.207.302-2.488.998-2.419 2.391"/><path fill="#C8856A" d="M84.588 110.668c.534.255.984-.465.984-.465l.27 3.519s.398.929 3.064.669c.64-.065 1.731-.845.334-1.76l-.056-1.072a5 5 0 0 0 1.045-.381 2.18 2.18 0 0 0 .993-1.629c.274-1.393.144-3.306-.366-5.711-.832.863-2.638-.464-4.133 1.179.409.803-.18 2.28-.715 2.586.172.692.084 1.026-.116 1.101-.353.13-.594-.353-.803-.544-.209-.19-.868-.348-1.17.525a1.72 1.72 0 0 0 .669 1.983"/><path fill="#AF6152" d="M89.207 111.547c-.631.149-1.857.097-2.321-.279a3.5 3.5 0 0 1-.78-.928c.079.494.322.948.692 1.286.97.761 2.433.464 2.433.464z"/><path fill="#37474F" d="m87.907 106.236-.617.608a.53.53 0 0 1 .102-.631.33.33 0 0 1 .264-.119q.076.003.142.041a.3.3 0 0 1 .11.101M90.711 105.465l-.747-.042a.466.466 0 0 1 .464-.413q.075.014.139.057a.36.36 0 0 1 .155.248.4.4 0 0 1-.01.15M87.647 107.315a.25.25 0 0 0 .325.26.47.47 0 0 0 .288-.437.26.26 0 0 0-.097-.216.24.24 0 0 0-.11-.05.25.25 0 0 0-.122.006.44.44 0 0 0-.284.437M90.024 106.498a.25.25 0 0 0 .094.217q.049.039.11.051a.25.25 0 0 0 .121-.008.465.465 0 0 0 .288-.436.256.256 0 0 0-.33-.26.44.44 0 0 0-.283.436"/><path fill="#AF6152" d="m88.84 106.559.465 2.056 1.012-.719a3.43 3.43 0 0 0-1.477-1.337M88.483 109.322l1.105.061a.53.53 0 0 1-.557.501.563.563 0 0 1-.548-.562"/><path fill="#F28F8F" d="M89.03 109.902a.53.53 0 0 0 .275-.06.67.67 0 0 0-.6-.381.6.6 0 0 0-.204.037.59.59 0 0 0 .53.404"/><path fill="#263238" d="M83.696 117.922a3.3 3.3 0 0 1-.678-.172 3.5 3.5 0 0 1-.775-.418 3.4 3.4 0 0 1-.464-.417q.457-.457.975-.841c.45.537.772 1.169.942 1.848"/><path fill="#F7921E" d="M90.698 100.025c2.182 0 3.538 1.792 3.538 4.68a14 14 0 0 1-2.002 6.755c-.19.339-.403.683-.622 1.008s-.464.645-.691.928c-.228.284-.437.548-.655.79-.107.12-.214.241-.32.353a12 12 0 0 1-2.619 2.107 7.8 7.8 0 0 1-1.393.646 6 6 0 0 1-.464.13c-.363.09-.736.137-1.11.139a3.4 3.4 0 0 1-1.193-.204c-1.49-.553-2.345-2.182-2.345-4.471 0-4.402 3.097-9.75 6.909-11.965a6.1 6.1 0 0 1 2.976-.928m0-.395a6.47 6.47 0 0 0-3.171.97c-3.928 2.266-7.108 7.777-7.108 12.308 0 2.554 1.012 4.253 2.6 4.838.426.157.878.236 1.332.232a5 5 0 0 0 1.203-.153q.242-.055.492-.139a8.3 8.3 0 0 0 1.48-.678c1-.594 1.91-1.327 2.703-2.177q.168-.172.334-.363.344-.39.669-.807c.246-.312.464-.637.706-.971s.464-.682.64-1.035a14.5 14.5 0 0 0 2.052-6.964c0-3.213-1.601-5.075-3.932-5.075z"/><path fill="#E0E0E0" d="M124.611 87.348 98.07 102.475c-1.135.646-2.057 0-2.057-1.504a4.8 4.8 0 0 1 .562-2.177 4.9 4.9 0 0 1 1.495-1.695l26.541-15.126c1.135-.647 2.057.037 2.057 1.503a4.8 4.8 0 0 1-.562 2.178 4.9 4.9 0 0 1-1.495 1.694M105.266 104.154l-8.589 4.959c-.367.213-.664 0-.664-.502a1.6 1.6 0 0 1 .664-1.267l8.589-4.959c.367-.213.664 0 .664.502a1.6 1.6 0 0 1-.664 1.267"/><path fill="#F0F0F0" d="M81.389 125.188a.487.487 0 0 1-.246-.928l52.724-30.42a.46.46 0 0 1 .542.028q.076.06.122.148a.494.494 0 0 1-.177.669L81.63 125.123a.5.5 0 0 1-.241.065"/><path fill="#FAFAFA" d="M94.63 129.366a14.5 14.5 0 0 1-2.052 6.964 16.6 16.6 0 0 1-1.346 2.011c-.242.316-.465.548-.669.808l-.334.362a12.3 12.3 0 0 1-2.702 2.177 8.2 8.2 0 0 1-1.481.674q-.25.083-.493.139a4.3 4.3 0 0 1-2.535-.074c-1.587-.59-2.595-2.289-2.6-4.843 0-4.531 3.18-10.038 7.109-12.303 3.927-2.266 7.103-.446 7.103 4.085"/><path fill="#37474F" d="M83.59 131.633a6.4 6.4 0 0 0 .027 2.498c.175.82.242 1.66.2 2.498 0 .162-.037.357.093.464a.32.32 0 0 0 .408-.037 1 1 0 0 0 .228-.385c.051.599.102 1.202.148 1.801 0 .208.06.411.172.585a.85.85 0 0 0 .929.158 2.55 2.55 0 0 0 1.55-1.699c.212-.773.23-1.586.056-2.368a9.8 9.8 0 0 0-1.1-3.055 9 9 0 0 1-.817-1.569 1.8 1.8 0 0 0-.279-.623c-.074-.092-.144-.065-.246 0a3 3 0 0 0-.278.144q-.262.172-.465.409-.216.241-.362.529a2.7 2.7 0 0 0-.237.595.4.4 0 0 0-.028.055"/><path fill="#455A64" d="M92.578 136.317c-.2.353-.418.701-.64 1.036-.224.334-.465.659-.706.975l-.678-2.108a2.95 2.95 0 0 1 2.024.097"/><path fill="#F7921E" d="M91.895 137.064a22 22 0 0 1-.705.975c-.242.316-.465.548-.669.808l-.334.362a12.1 12.1 0 0 1-2.702 2.177q-.708.412-1.481.678l-.493.14a8.2 8.2 0 0 0-.761-3.353l1.713-.928h.037c.896-.618 1.5-.506 3.148-1.212.028 0-.2-.13-.172-.144l1.078-.325q.698.367 1.341.822"/><path fill="#455A64" d="M86.422 136.03c-.135-.501-.757-.863-1.342-1.736s-1.346-2.823-.148-3.738c-.219-1.17.72-2.609 2-3.185 1.686-.757 3.654-.654 4.797.79a2.63 2.63 0 0 1-.047 3.324z"/><path fill="#FFA8A7" d="M91.501 134.178a2.3 2.3 0 0 1-.497.985 2.85 2.85 0 0 1-1.355.766v1.578s.803.929.863 1.639l-.334.362a7.7 7.7 0 0 1-3.714-1.211v-.07l-.038-.761-.083-1.858v-.52a.46.46 0 0 1-.084.195.8.8 0 0 1-.278.228.76.76 0 0 1-.673.037h-.052a.3.3 0 0 1-.07-.037l-.055-.033-.046-.032-.047-.037a1.34 1.34 0 0 1-.399-1.551c.163-.39.608-.738.928-.608s.381.343.53.585c.148.241.83-.492.357-1.727a2.24 2.24 0 0 0 .683-1.983c.246-.896 1.913-1.007 2.205-.668.242-.567.214-.929.687-.762s1.263.465 1.542 2.415a8.1 8.1 0 0 1-.07 3.068"/><path fill="#B16668" d="m88.567 133.992.994.028a.654.654 0 0 1-.65.576c-.274-.019-.39-.274-.344-.604"/><path fill="#F28F8F" d="M89.208 134.535a.42.42 0 0 0-.203-.32.42.42 0 0 0-.378-.033l-.046.023a.374.374 0 0 0 .348.39.5.5 0 0 0 .279-.06M89.491 131.377l.228 1.941.928-.632z"/><path fill="#263238" d="M90.498 131.471a.254.254 0 0 0 .195.274q.06.015.121 0a.425.425 0 0 0 .32-.404.26.26 0 0 0-.085-.217.255.255 0 0 0-.226-.057.44.44 0 0 0-.325.404M88.196 132.252a.26.26 0 0 0 .088.216.26.26 0 0 0 .227.058.43.43 0 0 0 .325-.404.26.26 0 0 0-.315-.274.44.44 0 0 0-.325.404"/><path fill="#F28F8F" d="M89.672 135.928c-.66.12-1.337.088-1.983-.093a1.95 1.95 0 0 1-.928-.771s-.07.627.868 1.068a5.3 5.3 0 0 0 2.043.237z"/><path fill="#263238" d="m91.102 130.515-.71.042a.58.58 0 0 1 .464-.418c.209-.009.306.158.246.376M88.743 131.142l-.775.515a.55.55 0 0 1 .264-.58c.223-.144.45-.112.511.065"/><path fill="#455A64" d="M90.071 128.584c.14.771-.761 2.559-1.964 3.371-1.202.813-1.982.655-1.982.655s-.14-2.466 1.058-3.394c1.198-.929 2.888-.632 2.888-.632M86.046 142.35q-.25.083-.493.139a4.3 4.3 0 0 1-2.534-.074 2.7 2.7 0 0 1-.785-.623c.868-2.061 1.332-2.451 2.516-2.938.803.589 1.161 2.59 1.296 3.496"/><path fill="#F7921E" d="M90.698 124.686c2.182 0 3.538 1.793 3.538 4.68a14 14 0 0 1-2.002 6.76c-.19.339-.403.678-.622 1.008s-.464.645-.691.928c-.228.284-.437.548-.655.79-.102.116-.214.237-.32.348a11.7 11.7 0 0 1-2.619 2.108 7.4 7.4 0 0 1-1.393.645 5 5 0 0 1-.464.13c-.363.092-.736.14-1.11.144a3.3 3.3 0 0 1-1.193-.209c-1.49-.548-2.345-2.177-2.345-4.471 0-4.397 3.097-9.75 6.909-11.965a6.14 6.14 0 0 1 2.976-.928m0-.39a6.4 6.4 0 0 0-3.171.97c-3.928 2.266-7.108 7.772-7.108 12.304 0 2.553 1.012 4.253 2.6 4.842.427.154.878.231 1.332.228.406-.003.81-.055 1.203-.153q.242-.057.492-.14.774-.263 1.48-.673c1-.594 1.91-1.327 2.703-2.177l.334-.363q.344-.39.669-.807c.246-.316.464-.641.706-.975a7.7 7.7 0 0 0 .64-1.036 14.5 14.5 0 0 0 2.052-6.964c0-3.213-1.601-5.07-3.932-5.07z"/><path fill="#E0E0E0" d="M124.611 111.697 98.07 126.838c-1.135.64-2.057-.045-2.057-1.504.012-.76.204-1.506.561-2.179a4.9 4.9 0 0 1 1.496-1.695l26.541-15.134c1.135-.647 2.057.038 2.057 1.505a4.8 4.8 0 0 1-.563 2.174 4.9 4.9 0 0 1-1.494 1.692M105.266 128.512l-8.589 4.959c-.367.209-.664 0-.664-.506a1.6 1.6 0 0 1 .664-1.268l8.589-4.958c.367-.209.664 0 .664.501a1.59 1.59 0 0 1-.664 1.272"/><path fill="#F0F0F0" d="M81.389 149.484a.468.468 0 0 1-.246-.906l52.724-30.438a.48.48 0 0 1 .368-.049.47.47 0 0 1 .295.225.5.5 0 0 1 .05.369.5.5 0 0 1-.226.295L81.63 149.419a.5.5 0 0 1-.242.065"/><path fill="#FAFAFA" d="M94.63 153.63a14.5 14.5 0 0 1-2.052 6.964 17 17 0 0 1-1.346 2.011c-.242.315-.465.547-.669.803q-.167.19-.334.362a12.3 12.3 0 0 1-2.702 2.177q-.707.416-1.481.678-.25.084-.493.139a4.23 4.23 0 0 1-2.535-.078c-1.587-.585-2.595-2.285-2.6-4.838 0-4.532 3.18-10.038 7.109-12.304 3.927-2.266 7.103-.446 7.103 4.086"/><path fill="#F7921E" d="M91.343 162.053c-.102.149-.2.302-.306.464-.107.163-.256.362-.38.544l-.674-2.094c1.393-.428 1.662-.246 2.061-.075-.134.27-.464.822-.668 1.124z"/><path fill="#455A64" d="M91.065 162.503c-.13.181-.256.358-.39.539 0 0 0 .023-.023.037-.223.297-.465.58-.683.859l-.334.385-.256.279c-.562.503-1.173.947-1.824 1.328-.47.274-.967.503-1.481.682q-.25.078-.492.135-.335.082-.678.121c-.41.051-.824.042-1.23-.028a1 1 0 0 0 0-.13c-.135-2.842.844-3.575.858-3.58s.404-.195.636-.297c.465-.214 3.775-.822 3.775-.822l1.073-1.068a3.57 3.57 0 0 1 1.513.859s-.241.33-.464.701"/><path fill="#263238" d="M86.37 161.394c-.784.864-2.716.673-2.91-.603 0-.423.301-.827.222-1.245s-.52-.668-.729-1.04a1.05 1.05 0 0 1 .06-1.1c.228-.316.637-.52.702-.901s-.265-.863-.06-1.291a1.99 1.99 0 0 1 1.248-1.151c.585-1.597 1.946-3.036 3.715-3.227 1.959-.297 4.141 1.31 3.83 3.403-.088.585-.58 1.152-.339 1.755.311.525 1.003 1.003.464 1.663-.19.241-.51.371-.645.645q-.115.422-.102.859c-.093.432-.302.989-.715 1.142s-.929 0-1.286.13c-.358.13-.284.464-1.272.515-.52.038-.855-.213-1.393-.069q-.423.215-.79.515"/><path fill="#B16668" d="m86.306 161.727-.256-2.103a.876.876 0 0 1-1.105.116 1.316 1.316 0 0 1-.464-1.746.92.92 0 0 1 .725-.507.92.92 0 0 1 .82.331c.54-.033.707-.896.252-1.588 0 0-.214-1.486.761-2.131.743-.488 1.254-.279 2.09-.265.608-.218.668-1.096 1.448-.97a2.76 2.76 0 0 1 .669 2.321q.052.447.195.873c.31 1.393-.214 2.99-.794 3.459a3.4 3.4 0 0 1-1.454.734l.065.585c.028.292.098.283.344.218l.367-.093s.497.761-1.245 1.56c-2.595 1.188-3.602.33-3.602.33l.599-.279a.8.8 0 0 0 .584-.845"/><path fill="#9A4A4D" d="M88.418 158.291h.961a.656.656 0 0 1-.594.548c-.264.018-.432-.237-.367-.548"/><path fill="#F28F8F" d="M88.493 158.506a.42.42 0 0 1 .347.008.42.42 0 0 1 .224.266.47.47 0 0 1-.279.084.384.384 0 0 1-.367-.325.2.2 0 0 1 .075-.033"/><path fill="#263238" d="m90.703 154.361-.72-.107a.46.46 0 0 1 .464-.371.35.35 0 0 1 .24.179.36.36 0 0 1 .016.299M87.578 155.669l.654-.603a.319.319 0 0 0-.26-.13.32.32 0 0 0-.26.13.51.51 0 0 0-.134.603M90.205 155.59a.26.26 0 0 0 .09.216.26.26 0 0 0 .226.058.44.44 0 0 0 .325-.404.26.26 0 0 0-.195-.272.26.26 0 0 0-.12-.002.439.439 0 0 0-.325.404M87.917 156.572a.25.25 0 0 0 .085.216.25.25 0 0 0 .226.058.44.44 0 0 0 .325-.404.255.255 0 0 0-.316-.274.425.425 0 0 0-.32.404"/><path fill="#9A4A4D" d="M89.207 160.239c-1.216.246-2.4.195-2.706-.301 0 0 .032.636.543.784.734.104 1.48.09 2.21-.042z"/><path fill="#455A64" d="M85.377 157.475a.9.9 0 0 1 .38.102l.79-.645.042-.033.074.051a.3.3 0 0 1 .06.093q.091.37.26.711a.6.6 0 0 0 .228.195l.107.037h.065a1 1 0 0 0 .185 0h.13a1 1 0 0 0 .158-.051l.065-.024.088-.037a1.82 1.82 0 0 0 1.036-1.1c.14-.376.06-.785.362-.929h.056c.223-.051.232.353.39.571a.7.7 0 0 0 .241.209l.056.028h.153a.9.9 0 0 0 .265-.023h.032q.166-.043.32-.116c.211-.092.4-.228.553-.399.15-.169.26-.369.32-.585q.094-.437.121-.882a.5.5 0 0 1 .046-.135.8.8 0 0 0 .117-.358c0-.13-.103-.209-.186-.181l-.149.051c-.158.061-.33.126-.501.2a4.8 4.8 0 0 0-.98.539 8 8 0 0 1-.877.71 5 5 0 0 1-.99.153 6.5 6.5 0 0 0-1.587.692l-.163.093-.18.158zm4.578-2.099a2.24 2.24 0 0 1 .766-.682q.118-.07.223-.121h.055l.08-.032h.185a.2.2 0 0 1 .051 0h.176a.3.3 0 0 1 .126 0c.111.046.088.487.06.719a1.56 1.56 0 0 1-.264.734q-.062.086-.14.158a1.3 1.3 0 0 1-.357.246c-.38.181-.613.13-.748 0l-.023-.033a.7.7 0 0 1-.06-.134.93.93 0 0 1-.13-.855m-2.972 1.198a1.93 1.93 0 0 1 .882-.557l.052-.023.222-.065h.089a2 2 0 0 1 .223-.037h.18q.085 0 .158.042c.107.083.098.371.065.631a1.3 1.3 0 0 1-.195.529 1.52 1.52 0 0 1-.687.571c-.357.158-.57.116-.71 0h-.023v-.051l-.042-.074a.1.1 0 0 0-.023-.046l-.028-.075v-.028c-.177-.283-.26-.668-.163-.817"/><path fill="#9A4A4D" d="m90.48 156.798-1.018.687-.32-1.189c.037-.213.084-.394.265-.464h.055z"/><path fill="#F7921E" d="M84.876 166.873a4.2 4.2 0 0 1-1.23-.028 3.5 3.5 0 0 1-.623-.171 3.3 3.3 0 0 1-.882-.465c.864-2.321 1.008-2.516 2.359-3.055 1.1 1.036.58 3.051.376 3.719"/><path fill="#F7921E" d="M90.697 148.95c2.183 0 3.538 1.792 3.538 4.68a14 14 0 0 1-2 6.76c-.191.339-.405.678-.623 1.008s-.464.645-.692.928-.436.543-.654.785c-.107.12-.214.241-.32.353a11.7 11.7 0 0 1-2.596 2.154c-.44.262-.908.479-1.393.645a5 5 0 0 1-.464.13 4.7 4.7 0 0 1-1.11.144 3.3 3.3 0 0 1-1.193-.209c-1.49-.548-2.345-2.182-2.345-4.471 0-4.397 3.097-9.75 6.909-11.964a6.13 6.13 0 0 1 2.976-.929m0-.39a6.4 6.4 0 0 0-3.171.97c-3.928 2.266-7.108 7.772-7.108 12.304 0 2.553 1.012 4.253 2.6 4.838.426.157.878.235 1.332.232.406-.003.81-.055 1.203-.153q.242-.057.492-.14a8 8 0 0 0 1.48-.678 12.3 12.3 0 0 0 2.67-2.186q.167-.173.335-.362c.227-.256.464-.525.668-.804.205-.278.465-.64.706-.975.242-.334.464-.682.64-1.035a14.5 14.5 0 0 0 2.053-6.964c0-3.213-1.602-5.07-3.933-5.07z"/><path fill="#E0E0E0" d="M124.611 136.065 98.07 151.191c-1.135.647-2.057-.037-2.057-1.503a4.8 4.8 0 0 1 .562-2.177 4.9 4.9 0 0 1 1.495-1.695l26.541-15.127c1.135-.646 2.057 0 2.057 1.504a4.8 4.8 0 0 1-.562 2.177 4.9 4.9 0 0 1-1.495 1.695M105.266 152.867l-8.589 4.959c-.367.213-.664-.001-.664-.502a1.59 1.59 0 0 1 .664-1.267l8.589-4.959c.367-.214.664 0 .664.501a1.58 1.58 0 0 1-.664 1.268"/><path fill="#F0F0F0" d="M81.389 173.784a.488.488 0 0 1-.246-.929l52.724-30.438a.488.488 0 1 1 .487.845L81.63 173.719a.5.5 0 0 1-.241.065"/><path fill="#E0E0E0" d="M108.619 164.903a2.09 2.09 0 0 1-.868 1.662c-.464.278-.873 0-.873-.66a2.09 2.09 0 0 1 .873-1.662c.492-.274.868.019.868.66M113.373 162.158a2.1 2.1 0 0 1-.868 1.663c-.464.278-.873 0-.873-.66a2.08 2.08 0 0 1 .873-1.662c.478-.278.868.019.868.659M102.124 168.654c0 .641.39.929.872.655a2.1 2.1 0 0 0 .869-1.662c0-.641-.39-.929-.869-.66a2.1 2.1 0 0 0-.872 1.667"/><path fill="#FFBDA7" d="M219.313 188.688c-.482-6.652.264-11.747-.29-22.136-.052-2.659-.146-5.516-.327-8.046-.601-8.527-1.913-11.441-2.037-13.084 0 0 .129-14.733-.425-33.385-.265-8.776-2.805-11.436-4.837-16.07h-24.163c-2.695 11.493-3.463 36.557-3.385 48.403.042 6.039.519 30.113.342 32.866-.145 2.639-.217 4.749-1.249 5.858-2.167 2.322-5.619 5.391-8.953 7.232.394 1.036 5.817 1.498 7.434.71 2.592-1.26 6.713-4.474 7.621-5.08 4.406-2.935 3.24-6.823 3.24-6.823v-.279c.041-1.468 4.173-18.507 4.779-23.494.622-5.138-.43-12.245-.43-12.245l3.364-15.858s1.364 12.26 3.111 19.632a1454 1454 0 0 1 5.334 23.623c1.524 8.507 3.157 14.443 3.546 18.699.119 1.037 1.876 11.115 2.353 13.401s5.454 2.348 5.775-1.587c.203-2.638-.715-11.083-.803-12.337"/><path fill="#263238" d="M170.588 193.295c.301.342.166 1.981.996 2.629.948.746 3.691 1.907 7.19 1.244 3.499-.664 5.35-1.882 6.698-3.162 1.347-1.281 3.229-3.085 4.805-3.531 1.462-.42 3.033-1.192 3.479-1.685.445-.492-.171-2.897-.171-2.897z"/><path fill="#37474F" d="M192.289 178.832a.56.56 0 0 1 .359.125c.101.083.17.198.196.326.14.565.249 1.726.518 2.649.454 1.631.663 3.32.622 5.013-.135 1.073-2.509 1.949-4.023 2.633a19.7 19.7 0 0 0-4.821 3.494c-1.581 1.483-4.992 3.075-7.288 3.24-3.505.249-5.827-.591-6.6-1.835-.953-1.555-.767-2.83 3.157-4.961.747-.404 3.339-2.167 4.22-2.804a21 21 0 0 0 2.628-2.229q.621-.623 1.167-1.312c.383-.412.702-.878.949-1.384.036-.109.062-.239.098-.353q.142-.479.207-.974c.047-.348.063-.845.368-1.068.306-.223 2.256-.114 2.774-.026s1.959.358 2.343.907c.258.447.399.952.41 1.467 0 .239.031.482.046.721 0 .104-.026.29.114.238s.259-.414.306-.518c.099-.275.156-.565.259-.835q.174-.476.457-.897.258-.385.601-.699c.207-.187.549-.343.923-.617z"/><path fill="#FAFAFA" d="M173.792 189.869c5.101.068 7.315 3.505 7.641 5.469a12 12 0 0 1-3.566.975c-3.505.249-5.972-.581-6.739-1.825-.908-1.451-.861-3.027 2.664-4.619"/><path fill="#F0F0F0" d="M181.854 189.829a.25.25 0 0 0 .132-.048.25.25 0 0 0 .101-.251.25.25 0 0 0-.062-.126c-.757-.84-3.303-2.229-5.138-1.918a.274.274 0 0 0-.172.103.265.265 0 0 0 .055.367.26.26 0 0 0 .195.048c1.716-.28 4.09 1.094 4.692 1.763a.25.25 0 0 0 .197.062M183.968 188.407a.27.27 0 0 0 .156-.067.26.26 0 0 0 .071-.179.26.26 0 0 0-.071-.179c-.757-.84-3.302-2.229-5.137-1.918a.3.3 0 0 0-.092.035.25.25 0 0 0-.111.255.25.25 0 0 0 .099.165.3.3 0 0 0 .089.041.3.3 0 0 0 .098.002c1.71-.285 4.09 1.094 4.665 1.762a.24.24 0 0 0 .233.083M185.913 186.812a.22.22 0 0 0 .155-.067.25.25 0 0 0 .073-.176.245.245 0 0 0-.073-.177c-.757-.845-3.307-2.229-5.132-1.923a.254.254 0 0 0-.207.29.246.246 0 0 0 .285.213c1.711-.285 4.09 1.094 4.665 1.757q.043.052.105.074a.24.24 0 0 0 .129.009M187.82 185.22a.28.28 0 0 0 .15-.062.25.25 0 0 0 0-.358c-1.036-1.198-3.727-2.229-5.557-1.923a.25.25 0 0 0-.207.29.242.242 0 0 0 .285.207c1.648-.274 4.183.7 5.106 1.763a.25.25 0 0 0 .101.069q.06.021.122.014"/><path fill="#263238" d="M212.766 204.375c.129 2.276.487 3.784 1.296 5.122.808 1.337 2.332 1.757 3.877 1.363s3.52-1.436 3.966-3.4c.446-1.965.7-3.313.347-5.423z"/><path fill="#37474F" d="M219.256 187.875c.638.052.824 3.11 1.192 6.174.394 3.282 1.374 4.666 1.726 7.33.4 3.074-.108 4.448-1.187 6.309s-4.888 3.686-6.77 1.037c-1.555-2.172-1.524-4.577-1.643-7.646-.145-3.707-.062-5.003-.41-7.393-.482-3.328-.824-5.028-.269-5.282l.305 2.219c.068.171.208.352.265.072a1.8 1.8 0 0 0 0-.57c-.093-.85.337-.918.565-.985.518-.14 3.084-.27 3.561-.301s2.162-.103 2.38.171c.145.275.218.581.212.892.057.461.166.798.177.653.031-.332-.032-1.192-.042-1.4s-.041-.471-.041-.673-.006-.41-.021-.607"/><path fill="#FAFAFA" d="M222.351 203.161a7.66 7.66 0 0 1-1.193 4.665c-1.078 1.861-5.183 3.691-7.076 1.037-.938-1.322-1.187-2.888-1.316-4.489 1.125-2.058 7.807-2.95 9.585-1.213"/><path fill="#F0F0F0" d="M214.154 201.025a.2.2 0 0 0 .078 0c.026 0 2.971-1.228 5.837-.565a.236.236 0 0 0 .28-.176.2.2 0 0 0 .005-.093.24.24 0 0 0-.181-.192 11.1 11.1 0 0 0-6.143.601.24.24 0 0 0-.114.317.24.24 0 0 0 .238.108M219.925 198.148a.238.238 0 0 0 .208-.21.24.24 0 0 0-.034-.153.24.24 0 0 0-.123-.098c-2.851-.964-6.018.487-6.137.55a.2.2 0 0 0-.072.057.3.3 0 0 0-.044.08q-.014.046-.009.091a.2.2 0 0 0 .026.088.244.244 0 0 0 .321.098c.026 0 3.111-1.415 5.765-.518a.3.3 0 0 0 .099.015M219.826 195.987a.24.24 0 0 0 .197-.155.24.24 0 0 0-.007-.18.23.23 0 0 0-.133-.121c-3.141-1.125-6.143.461-6.257.518a.233.233 0 0 0-.077.322.24.24 0 0 0 .146.109.24.24 0 0 0 .18-.026s2.929-1.555 5.848-.493a.2.2 0 0 0 .103.026"/><path fill="#EBEBEB" d="M219.671 193.854a.234.234 0 0 0 .208-.203.23.23 0 0 0-.033-.15.23.23 0 0 0-.118-.098c-2.94-1.104-6.174.519-6.294.591a.24.24 0 0 0-.111.142.2.2 0 0 0-.007.092.25.25 0 0 0 .09.158.24.24 0 0 0 .174.048.3.3 0 0 0 .088-.03c.031 0 3.167-1.587 5.894-.56a.25.25 0 0 0 .109.01"/><path fill="#37474F" d="M212.045 96.025c2.856 5.215 4.982 9.482 5.272 24.992s-.114 21.327-.052 23.199 1.151 5.215 2.105 14.427-.171 20.217-.171 20.217-.664 1.483-4.183 1.799c-3.251.29-4.863-.928-4.863-.928s-4.458-17.947-5.702-23.494c-1.245-5.546-4.464-25.266-4.464-25.266l-2.099 12.54c.56 4.479.413 9.019-.436 13.452-1.612 7.983-3.67 14.837-3.67 14.837a16.6 16.6 0 0 1-4.764.586 10.7 10.7 0 0 1-5.049-1.509s-.26-19.989-.26-29.15.97-31.591 1.81-45.536z"/><path fill="#263238" d="m200.002 130.949-2.903-17.626s-6.122-.435-9.528-3.997c1.379 3.784 6.408 6.434 8.616 6.962l2.592 14.448-.876 12.742zM206.156 98.606a21.8 21.8 0 0 1 1.99 4.204 40 40 0 0 1 1.322 4.458q.537 2.262.84 4.567c.224 1.534.326 3.084.306 4.634a194 194 0 0 1-1.037-4.499 218 218 0 0 0-1.037-4.479 254 254 0 0 0-1.099-4.453 89 89 0 0 0-1.285-4.432M208.183 99.164a16.4 16.4 0 0 1 2.074 2.354c.629.84 1.198 1.724 1.705 2.643a21 21 0 0 1 1.291 2.878c.368.989.607 2.023.71 3.074l-1.41-2.774c-.477-.907-.948-1.814-1.446-2.711s-.995-1.794-1.488-2.701a60 60 0 0 1-1.436-2.763M204.818 117.699c.669 4.801 1.265 9.611 1.872 14.417.606 4.805.897 11.063 1.778 15.806s1.814 9.518 2.659 14.287a608 608 0 0 1 2.385 14.339 612 612 0 0 1-3.136-14.194c-.996-4.743-1.934-9.481-2.867-14.256-.933-4.774-1.104-11.073-1.555-15.899a439 439 0 0 1-1.136-14.5M188.723 118.098l-.794 12.633c-.114 2.105-.248 4.204-.347 6.309s-.218 4.215-.187 6.293c.032 2.079-.15 17.507-.492 26.195-.301-6.972-.337-21.928-.482-26.179 0-4.272.378-8.466.752-12.68.373-4.215.896-8.398 1.55-12.571"/><path fill="#FFBDA7" d="M192.009 69.434c-3.878.425-6.257 1.337-9.954 8.232-2.405 4.479-5.096 10.052-5.096 10.052s-13.105.46-15.437.373c-2.649-.094-3.593-1.975-4.723-2.774s-3.276-2.41-4.111-3.188c-.689-.643-1.208.182-1.037.949.259 1.218 1.358 2.073 1.742 2.69s.306 1.291-.425 1.037-3.297-1.39-4.178-1.762c-.882-.374-1.649-1.307-2.701-1.182-1.052.124-1.374.518-.824 1.067a25.6 25.6 0 0 0 4.287 3.06c.643.958.84 4.592 2.436 5.51a18.5 18.5 0 0 0 4.039 1.482c1.461.379 3.929-.42 5.946-.394 1.264 0 6.91.949 12.799 1.706 5.676.726 6.962.902 9.362-2.94a96 96 0 0 0 6.314-12.617z"/><path fill="#F0997A" d="M159.547 90.585c-1.187-.938-3.992-1.228-6.071.327l-.456-.425s3.556-2.623 6.527.098"/><path fill="#F0997A" d="M152.574 93.825a9.2 9.2 0 0 1-2.877-1.742 1.25 1.25 0 0 1-.155-1.177 1.24 1.24 0 0 1-.425-.995c0-.56.363-.674.637-.918-.575-.69-1.213-1.451-.554-2.073.658-.623 1.835-1.12 2.504-.98.435.088 1.244.954 1.83 1.44q.256.192.456.442c.124.326-.399.663-.825.637.685.405 1.582.607 1.436 1.151a1.09 1.09 0 0 1-1.15.684c.29.15.601.208.648.457.046.248-.41 1.073-1.556.787-.865.083-1.265 1.136.031 2.287"/><path fill="#B16668" d="M153.165 88.455c.249.13.518.223.772.342.283.093.529.275.7.519a.73.73 0 0 1-.316.808c-.25.167-.552.237-.85.197l.036-.109q.18.109.353.234.086.06.166.13.049.034.082.085a.3.3 0 0 1 .042.111.54.54 0 0 1-.156.405q-.146.158-.336.259.174-.117.3-.285a.51.51 0 0 0 .114-.363c0-.124-.16-.176-.269-.26l-.358-.212-.233-.145.274.031c.266.03.533-.039.752-.192a.61.61 0 0 0 .285-.642 1.43 1.43 0 0 0-.622-.519 8 8 0 0 1-.736-.394"/><path fill="#B16668" d="M153.398 90.244c-.352-.125-.689-.28-1.036-.415a3 3 0 0 0-.519-.166 1.03 1.03 0 0 0-.518.062 4.6 4.6 0 0 0-.954.519l-.456.316a1.25 1.25 0 0 0-.389.383c.198-.318.465-.588.783-.787a4 4 0 0 1 .969-.581c.186-.068.385-.088.581-.057q.271.064.518.192c.368.176.69.363 1.021.534M153.719 88.738a34 34 0 0 1-1.259-.586 1.33 1.33 0 0 0-1.276.109 14 14 0 0 0-1.218.648c-.373.238-.829.518-.85 1a.86.86 0 0 1 .249-.643q.247-.253.544-.445.589-.381 1.218-.69a2.5 2.5 0 0 1 .674-.218c.245-.031.493.02.705.146.405.217.814.445 1.213.679"/><path fill="#B16668" d="M151.781 88.044a1.6 1.6 0 0 1-.43-.321 1.2 1.2 0 0 1-.286-.436c.08.152.194.283.332.384q.196.16.436.243z"/><path fill="#263238" d="M215.834 104.562c-1.037-4.775-2.364-10.125-2.504-11.172-.814-6.076.265-9.155.659-11.814.865-5.79-.793-10.638-2.141-11.778a37.5 37.5 0 0 0-6.361-1.353c-3.411-.44-8.113.067-9.383.243q-2.067.27-4.095.747a18.9 18.9 0 0 0-3.976 5.117c-1.468 2.623-2.302 4.815-2.561 10.435-.332 7.154-.773 14.582-.773 19.575 5.926 3.639 23.484 4.458 31.135 0"/><path fill="#455A64" d="m174.793 85.51.57-.518a.7.7 0 0 1 .612-.088l7.055 1.638a2.4 2.4 0 0 1 1.504 1.296l5.184 13.188a.63.63 0 0 1-.057.69l-.591.554a.66.66 0 0 1-.617.099l-7.056-1.638a2.4 2.4 0 0 1-.893-.484 2.4 2.4 0 0 1-.61-.812L174.71 86.24a.58.58 0 0 1 .083-.73"/><path fill="#455A64" d="M183.16 87.412c.342.243.614.572.788.954l5.184 13.188a.65.65 0 0 1 .074.341.65.65 0 0 1-.116.328l.56-.518a.61.61 0 0 0 .062-.69l-5.184-13.193a2.36 2.36 0 0 0-.726-.902z"/><path fill="#263238" d="m189.116 101.555-5.184-13.189a2.38 2.38 0 0 0-1.503-1.296l-7.056-1.643c-.606-.135-.912.218-.684.793l5.184 13.194a2.38 2.38 0 0 0 1.503 1.296l7.056 1.638c.606.14.912-.218.684-.793"/><path fill="#455A64" d="m184.051 91.17-.964-2.467a.44.44 0 0 0-.28-.244l-1.219-.28c-.114-.026-.171.042-.129.145l.969 2.473a.43.43 0 0 0 .28.239l1.218.28c.109.026.166-.037.125-.145"/><path fill="#263238" d="M183.045 89.304a1.11 1.11 0 0 0-.715-.601c-.29-.068-.446.093-.342.358a1.13 1.13 0 0 0 .715.596c.296.067.446-.094.342-.353M183.517 90.55a1.101 1.101 0 0 0-.715-.596c-.29-.068-.441.087-.337.352a1.09 1.09 0 0 0 .71.596c.296.067.43-.088.342-.353"/><path fill="#FFBDA7" d="m206.368 94.837 2.25-13.997s.114-8.33 3.24-11.063c3.629.996 4.666 3.11 5.609 5.371 1.203 2.913 1.104 5.702.047 13.115-.897 6.31-2.006 10.301-2.924 12.608-1.135 2.851-3.629 3.11-8.004 2.867-4.375-.244-7.092-.622-13.141-1.431-2.914-.389-4.438-1.037-6.843-1.783a9 9 0 0 1-2.592-1.172 5.34 5.34 0 0 1-1.799-1.866 1.6 1.6 0 0 0-.254-.405 2.6 2.6 0 0 0-.363-.306 3 3 0 0 1-.674-.59 5 5 0 0 1-.42-.856 4 4 0 0 0-.186-.399 3 3 0 0 0-.285-.358 3.3 3.3 0 0 1-.726-.933.62.62 0 0 1 .062-.601s-.404-.316-.518-.43a3.3 3.3 0 0 1-.519-.519.35.35 0 0 1-.093-.264.4.4 0 0 1 .098-.14c.654-.627 1.556-.368 2.287-.078 1.944.747 3.006 1.618 5.028 2.151 1.104.29 1.379.348 1.768.229.518-.332-1.478-2.204-1.633-3.77-.078-.777.627-1.73 1.249-.839 1.296 1.866 2.421 2.348 3.396 3.416.974 1.068 1.881 1.71 3.939 2.4 2.198.726 12.001-.357 12.001-.357"/><path fill="#F0997A" d="M206.368 94.835c2.25-.565 5.034.218 5.034.218a9.07 9.07 0 0 0-4.915-.949zM179.406 93.16q.602.495 1.25.928c.43.3.865.58 1.29.871.213.14.42.295.648.435s.451.26.685.379c.466.238.933.456 1.42.648l-.674-.394q-.34-.187-.674-.384c-.223-.13-.446-.264-.658-.404s-.42-.296-.638-.44a35 35 0 0 0-1.316-.835zM180.272 94.893q.379.48.845.876c.306.259.628.518.949.736.322.218.658.456 1.001.663q.5.318 1.036.57c-.331-.228-.648-.466-.974-.694l-.97-.695-.948-.679a48 48 0 0 1-.939-.777"/><path fill="#37474F" d="M189.033 64.1a62 62 0 0 0 1.7-7.932l-.715-.217c-3.193-1.721-3.033-5.9-2.265-8.062 1.736-4.852 6.977-6.671 10.222-6.848 6.159-.321 9.166 1.234 9.798 4.443.835-.073 1.98.596 2.675 1.555 1.509 2.074 2.203 9.98.928 16.345 0 0-.57.633-2.592 1.068-1.001.215-2.02.336-3.043.363 0 0-11.975 2.13-16.708-.715"/><path fill="#FFBDA7" d="M207.265 61.425a2.84 2.84 0 0 0 2.618-1.187c1.426-1.695 1.498-3.37.757-4.458-.606-.887-2.037-1.416-2.996-.763-.959.654-1.037 1.245-1.41 2.007-.374.762-1.892.757-2.411-2.24-.451-2.794-.98-5.355-2.405-6.568-2.126-1.814-4.401-1.415-5.184-.264-.892-1.28-2.188-1.758-3.562-.954-1.373.803-2.358 2.944-2.633 8.294-.28 5.454 1.125 8.813 2.41 9.658 1.006.653 2.043.928 4.117.938l-.073 2.893s-3.333 7.397-3.142 12.058c0 0 1.696-2.955 6.74-7.387l5.51-4.811.296-8.02a1.74 1.74 0 0 0 1.368.804"/><path fill="#263238" d="m191.107 52.675 2.074-.59a1.036 1.036 0 0 0-1.281-.758 1.13 1.13 0 0 0-.793 1.348M198.447 52.404l2.178.726a1.113 1.113 0 0 0-.299-1.225 1.1 1.1 0 0 0-.386-.222 1.206 1.206 0 0 0-1.493.72"/><path fill="#37474F" d="M200.49 48.65c.389.674.544 1.84.663 2.966.099.907.192 3.037.804 4.307a3.3 3.3 0 0 0 2.53 1.98 4.3 4.3 0 0 0 2.135-.217c.415-.192 1.597-1.037 1.452-2.245a2.45 2.45 0 0 1-1.649.799 2.38 2.38 0 0 1-2.011-1.115c-.798-1.182-.741-2.768-.985-4.147-.311-1.716-.607-3.665-2.157-4.515-1.835-1.006-4.624-.41-5.018 1.462a2.833 2.833 0 0 1 4.236.725"/><path fill="#B16668" d="m199.241 59.9-2.955.96a1.567 1.567 0 0 0 1.468 1.077c.217.001.432-.042.631-.129a1.47 1.47 0 0 0 .829-.774 1.47 1.47 0 0 0 .027-1.134"/><path fill="#F0997A" d="M197.53 61.907a1.629 1.629 0 0 1 1.638-1.452 2 2 0 0 1 .15 0 1.37 1.37 0 0 1-.933 1.348 1.8 1.8 0 0 1-.855.104M196.503 53.582l-.399 5.36-2.944-1zM196.565 65.89a19 19 0 0 0 5.759-1.296c.669-.296 1.556-1.524 2.281-2.893 0 0-.487 2.685-1.928 3.629-2.193 1.426-6.148 1.763-6.148 1.763z"/><path fill="#263238" d="M191.786 54.719c-.135.44.171.575.601.71.431.135.804.207.944-.233a.827.827 0 0 0-.519-1.037.833.833 0 0 0-1.026.56"/><path fill="#263238" d="M193.212 54.317a2.1 2.1 0 0 0-.612-.202 1.8 1.8 0 0 0-.627 0 2 2 0 0 0-.633.207s-.026.052 0 .052q.281-.054.565-.077.356-.009.705.062c.281.053.554.145.809.274l.259.13c.026 0 .042-.046.031-.067a1.4 1.4 0 0 0-.497-.379M199.992 54.8c.114.45-.202.57-.633.679-.43.109-.819.171-.933-.28a.82.82 0 0 1 .571-1.037.834.834 0 0 1 .995.638"/><path fill="#263238" d="M198.588 54.312q.298-.13.622-.166c.207-.038.42-.038.627 0 .219.046.429.127.622.239v.052c-.171-.031-.321-.073-.565-.099a2.7 2.7 0 0 0-.71 0 3 3 0 0 0-.814.228l-.249.15s-.042-.046 0-.067q.2-.214.467-.337"/><path fill="#F7921E" d="m49.68 98.557-22.755-13.16a1.92 1.92 0 0 0-1.814-.201 1 1 0 0 0-.177.103l-4.95 2.9h.034c-.623.356-1.018 1.18-1.018 2.358v25.314c0 2.14 1.299 4.629 2.907 5.556l22.756 13.16a1.82 1.82 0 0 0 2.003.086.1.1 0 0 0-.04.029l4.915-2.861c.64-.343 1.047-1.179 1.047-2.375v-25.354c0-2.14-1.276-4.628-2.907-5.555"/><path fill="#F7921E" d="M51.775 100.954a5.8 5.8 0 0 0-2.094-2.397l-22.756-13.16a1.92 1.92 0 0 0-1.814-.201 1 1 0 0 0-.177.103l-4.95 2.9a1.86 1.86 0 0 1 1.923.144l22.756 13.16a5.9 5.9 0 0 1 2.146 2.506z"/><path fill="#F7921E" d="M47.57 132.359c0 1.144-.367 1.939-.944 2.289l4.915-2.861c.64-.344 1.047-1.179 1.047-2.375V104.11a7.16 7.16 0 0 0-.813-3.159l-4.966 3.056c.477.947.736 1.989.76 3.049z"/><path fill="#000" d="M51.775 100.954a5.8 5.8 0 0 0-2.094-2.397l-22.756-13.16a1.92 1.92 0 0 0-1.814-.201 1 1 0 0 0-.177.103l-4.95 2.9a1.86 1.86 0 0 1 1.923.144l22.756 13.16a5.9 5.9 0 0 1 2.146 2.506z" opacity=".3"/><path fill="#000" d="M47.57 132.359c0 1.144-.367 1.939-.944 2.289l4.915-2.861c.64-.344 1.047-1.179 1.047-2.375V104.11a7.16 7.16 0 0 0-.813-3.159l-4.966 3.056c.477.947.736 1.989.76 3.049z" opacity=".6"/><path fill="#F7921E" d="M40.898 114.309c0 3.278-1.299 4.394-3.244 3.267a4.6 4.6 0 0 1-2.175-2.861c-.572.704-1.459.749-2.706.028-2.049-1.184-3.662-4.005-3.662-6.746 0-2.74 1.596-3.685 3.662-2.494a6.3 6.3 0 0 1 2.437 2.615v-1.082l2.157 1.247v5.928a1.72 1.72 0 0 0 .762 1.608c.726.424 1.172-.292 1.172-2.414 0-3.714-2.38-7.651-5.899-9.682s-5.893-.618-5.893 3.204a12.01 12.01 0 0 0 5.83 10.031 6.8 6.8 0 0 0 3.125.995l.509 1.975a8.1 8.1 0 0 1-3.634-1.196c-4.577-2.65-7.604-7.982-7.604-12.812s3.055-6.58 7.667-3.914c4.458 2.57 7.496 7.714 7.496 12.303m-5.653-2.753a4.2 4.2 0 0 0-1.986-3.633c-1.144-.67-1.962-.2-1.962 1.356a4.23 4.23 0 0 0 1.962 3.656c1.145.647 1.986.229 1.986-1.379"/><path fill="#fff" d="M40.898 114.311c0 3.278-1.3 4.394-3.245 3.267a4.581 4.581 0 0 1-2.174-2.861c-.572.704-1.46.749-2.706.028-2.049-1.184-3.663-4.005-3.663-6.746 0-2.74 1.597-3.685 3.663-2.494a6.3 6.3 0 0 1 2.437 2.614v-1.081l2.157 1.247v5.928a1.71 1.71 0 0 0 .761 1.608c.727.424 1.173-.292 1.173-2.414 0-3.714-2.38-7.651-5.899-9.682s-5.894-.618-5.894 3.204a12.02 12.02 0 0 0 5.831 10.031 6.8 6.8 0 0 0 3.124.995l.51 1.974a8.1 8.1 0 0 1-3.634-1.195c-4.577-2.65-7.604-7.982-7.604-12.812s3.055-6.58 7.667-3.914c4.457 2.57 7.496 7.714 7.496 12.303m-5.654-2.753a4.2 4.2 0 0 0-1.985-3.633c-1.144-.67-1.963-.2-1.963 1.356a4.22 4.22 0 0 0 1.963 3.656c1.144.647 1.985.229 1.985-1.379" opacity=".9"/><path fill="#F7921E" d="m49.68 143.632-22.755-13.16a1.89 1.89 0 0 0-1.814-.195 1 1 0 0 0-.177.103l-4.95 2.901h.034c-.623.355-1.018 1.179-1.018 2.352v25.302c0 2.146 1.299 4.629 2.907 5.556l22.756 13.161a1.81 1.81 0 0 0 2.003.085l-.04.035 4.915-2.89c.64-.337 1.047-1.144 1.047-2.374v-25.326c0-2.14-1.276-4.623-2.907-5.55"/><path fill="#F7921E" d="M51.775 146.03a5.76 5.76 0 0 0-2.094-2.398l-22.756-13.16a1.89 1.89 0 0 0-1.814-.195 1 1 0 0 0-.177.103l-4.95 2.901a1.85 1.85 0 0 1 1.923.137l22.756 13.161a5.9 5.9 0 0 1 2.146 2.512z"/><path fill="#F7921E" d="M47.57 177.433c0 1.144-.367 1.94-.944 2.317l4.915-2.889c.64-.338 1.047-1.144 1.047-2.375v-25.302a7.14 7.14 0 0 0-.813-3.153l-4.966 3.056c.476.945.736 1.985.76 3.044z"/><path fill="#000" d="M51.775 146.03a5.76 5.76 0 0 0-2.094-2.398l-22.756-13.16a1.89 1.89 0 0 0-1.814-.195 1 1 0 0 0-.177.103l-4.95 2.901a1.85 1.85 0 0 1 1.923.137l22.756 13.161a5.9 5.9 0 0 1 2.146 2.512z" opacity=".3"/><path fill="#000" d="M47.57 177.433c0 1.144-.367 1.94-.944 2.317l4.915-2.889c.64-.338 1.047-1.144 1.047-2.375v-25.302a7.14 7.14 0 0 0-.813-3.153l-4.966 3.056c.476.945.736 1.985.76 3.044z" opacity=".6"/><path fill="#F7921E" d="m30.741 154.946-5.487-8.915v12.079zM35.84 157.514l5.475 9.481v-12.061zM26.084 145.623l5.636 9.155q.036.03.063.069a.2.2 0 0 1 0 .068l1.676 2.724 1.42-.669a.37.37 0 0 1 .257-.121l5.722-2.683z"/><path fill="#F7921E" d="m35.01 157.905-1.533.721a.44.44 0 0 1-.19.04.46.46 0 0 1-.394-.218l-1.677-2.723-5.504 3.181 14.814 8.549z"/><g fill="#fff" opacity=".9"><path d="m30.742 154.946-5.488-8.915v12.079zM35.84 157.512l5.475 9.481v-12.061zM26.084 145.623l5.636 9.155q.036.03.063.069a.2.2 0 0 1 0 .068l1.676 2.724 1.42-.669a.37.37 0 0 1 .257-.121l5.722-2.683z"/><path d="m35.01 157.901-1.533.721a.44.44 0 0 1-.189.04.46.46 0 0 1-.395-.218l-1.676-2.723-5.505 3.181 14.814 8.549z"/></g><path fill="#F7921E" d="m49.68 53.501-22.755-13.16a1.9 1.9 0 0 0-1.814-.195 1 1 0 0 0-.177.103l-4.95 2.901h.034C19.396 43.5 19 44.33 19 45.502v25.302c0 2.14 1.299 4.63 2.907 5.556l22.756 13.16a1.81 1.81 0 0 0 2.003.087l-.04.028 4.915-2.86c.64-.338 1.047-1.145 1.047-2.375V59.034c0-2.14-1.276-4.629-2.907-5.533"/><path fill="#F7921E" d="M51.775 55.882a5.77 5.77 0 0 0-2.094-2.404L26.925 40.341a1.9 1.9 0 0 0-1.814-.195 1 1 0 0 0-.177.103l-4.95 2.901a1.85 1.85 0 0 1 1.923.138l22.756 13.16a5.9 5.9 0 0 1 2.146 2.512z"/><path fill="#F7921E" d="M47.57 87.262c0 1.144-.367 1.94-.944 2.289l4.915-2.861c.64-.338 1.047-1.145 1.047-2.375v-25.28a7.1 7.1 0 0 0-.813-3.152l-4.966 3.055c.476.946.736 1.986.76 3.044z"/><path fill="#000" d="M51.775 55.882a5.77 5.77 0 0 0-2.094-2.404L26.925 40.341a1.9 1.9 0 0 0-1.814-.195 1 1 0 0 0-.177.103l-4.95 2.901a1.85 1.85 0 0 1 1.923.138l22.756 13.16a5.9 5.9 0 0 1 2.146 2.512z" opacity=".3"/><path fill="#000" d="M47.57 87.262c0 1.144-.367 1.94-.944 2.289l4.915-2.861c.64-.338 1.047-1.145 1.047-2.375v-25.28a7.1 7.1 0 0 0-.813-3.152l-4.966 3.055c.476.946.736 1.986.76 3.044z" opacity=".6"/><path fill="#F7921E" d="M40.125 76.389c-.875-1.442-1.756-2.861-2.632-4.314a2.24 2.24 0 0 0-1.379-1.145 16 16 0 0 1-1.282-.309.8.8 0 0 1-.371-.32 36.2 36.2 0 0 1-3.394-7.782.43.43 0 0 1 .046-.35c.27-.268.572-.514.847-.754s.418-.796.218-1.517c-.424-1.527-.83-3.055-1.254-4.577a2.51 2.51 0 0 0-1.636-1.9 4.63 4.63 0 0 0-2.804.103c-.349.132-.532.446-.538.99.15 1.047.246 2.083.447 3.147q2.117 11.512 10.185 21.171a1.63 1.63 0 0 0 1.276.733 3.85 3.85 0 0 0 2.42-.933c.51-.458.458-1.27-.149-2.243M40.057 68.59a12.2 12.2 0 0 0-1.334-4.716 14 14 0 0 0-2.145-3.152c-.224-.252-.412-.332-.527-.143-.114.188 0 .457.218.703l.223.258a12.06 12.06 0 0 1 2.86 6.483q-.003.264.052.52c.072.197.188.375.338.521.12.086.257 0 .355 0-.035-.234-.029-.354-.04-.475M34.872 63.894a4.84 4.84 0 0 1 1.242 2.86q.057.244.177.464c.35.286.521.189.521-.172a6.3 6.3 0 0 0-1.608-3.667c-.217-.224-.395-.292-.498-.103a.57.57 0 0 0 .166.618"/><g fill="#fff" opacity=".9"><path d="M40.125 76.389c-.875-1.442-1.756-2.861-2.632-4.314a2.24 2.24 0 0 0-1.379-1.145 16 16 0 0 1-1.282-.309.8.8 0 0 1-.371-.32 36.2 36.2 0 0 1-3.394-7.782.43.43 0 0 1 .046-.35c.27-.268.572-.514.847-.754s.418-.796.218-1.517c-.424-1.527-.83-3.055-1.254-4.577a2.51 2.51 0 0 0-1.636-1.9 4.63 4.63 0 0 0-2.804.103c-.349.132-.532.446-.538.99.15 1.047.246 2.083.447 3.147q2.117 11.512 10.185 21.171a1.63 1.63 0 0 0 1.276.733 3.85 3.85 0 0 0 2.42-.933c.51-.458.458-1.27-.149-2.243M40.057 68.591a12.2 12.2 0 0 0-1.334-4.714 14 14 0 0 0-2.145-3.153c-.224-.252-.412-.332-.527-.143-.114.188 0 .457.218.703l.223.258a12.06 12.06 0 0 1 2.86 6.483q-.003.264.052.52c.072.197.188.375.338.521.12.086.257 0 .355 0-.035-.234-.029-.355-.04-.475M34.873 63.894a4.83 4.83 0 0 1 1.241 2.86q.057.244.178.464c.349.286.52.189.52-.172a6.3 6.3 0 0 0-1.608-3.667c-.217-.224-.394-.292-.497-.103a.57.57 0 0 0 .166.618"/></g></svg>