<svg xmlns="http://www.w3.org/2000/svg" width="257" height="256" fill="none"><path stroke="#D5D5D5" d="M47.06 222.837c-22.474-11.768-33.56-27.116-33.56-42.333s11.084-30.568 33.56-42.341C69.524 126.397 99 120.5 128.502 120.5c29.503 0 58.977 5.897 81.439 17.663 22.473 11.773 33.558 27.122 33.559 42.337s-11.083 30.564-33.559 42.337C187.476 234.603 158.002 240.5 128.5 240.5s-58.976-5.897-81.44-17.663Z" style="stroke:#d5d5d5;stroke:color(display-p3 .8353 .8353 .8353);stroke-opacity:1"/><path fill="#F7921E" d="M77.101 189.809 59.49 179.63a.21.21 0 0 1-.108-.184.21.21 0 0 1 .108-.19l14.105-8.146a.24.24 0 0 1 .215 0l17.633 10.179a.22.22 0 0 1 .108.189q0 .059-.028.109a.2.2 0 0 1-.08.081l-14.105 8.141a.2.2 0 0 1-.108.03.2.2 0 0 1-.107-.03zm-3.42-18.258-13.68 7.895 17.197 9.927 13.67-7.895z" opacity=".3" style="fill:#f7921e;fill:color(display-p3 .9686 .5725 .1176);fill-opacity:1"/><path fill="#F7921E" d="M77.209 187.587v-54.902l10.583-6.108-.005 54.901z" style="fill:#f7921e;fill:color(display-p3 .9686 .5725 .1176);fill-opacity:1"/><path fill="#000" d="M77.209 187.587v-54.902l10.583-6.108-.005 54.901z" opacity=".2" style="fill:#000;fill-opacity:1"/><path fill="#F7921E" d="m77.21 187.587-14.106-8.141v-54.902l14.105 8.141zM63.104 124.544l10.577-6.108 14.111 8.141-10.583 6.108z" style="fill:#f7921e;fill:color(display-p3 .9686 .5725 .1176);fill-opacity:1"/><path fill="#fff" d="m63.104 124.544 10.577-6.108 14.111 8.141-10.583 6.108z" opacity=".25" style="fill:#fff;fill-opacity:1"/><path fill="#fff" d="m63.104 124.544 14.249 7.854 4.608-2.56 5.81-3.236-5.703 3.415-4.66 2.77c.108 1.587.139 48.348.119 49.936a43 43 0 0 1-.313 4.864 42 42 0 0 1-.307-4.864c0-1.536 0-48.246.108-49.782z" opacity=".3" style="fill:#fff;fill-opacity:1"/><path fill="#F7921E" d="m103.546 205.082-17.628-10.184a.22.22 0 0 1-.112-.184.232.232 0 0 1 .113-.19l14.1-8.156a.2.2 0 0 1 .11-.03q.06 0 .11.03l17.618 10.194a.21.21 0 0 1 .113.184.23.23 0 0 1-.033.109.23.23 0 0 1-.08.081l-14.101 8.146a.3.3 0 0 1-.112.025.3.3 0 0 1-.098-.025m-3.415-18.263-13.67 7.895 17.193 9.927 13.691-7.895z" opacity=".3" style="fill:#f7921e;fill:color(display-p3 .9686 .5725 .1176);fill-opacity:1"/><path fill="#F7921E" d="m103.654 202.854.005-33.208 10.578-6.108-.005 33.208z" style="fill:#f7921e;fill:color(display-p3 .9686 .5725 .1176);fill-opacity:1"/><path fill="#fff" d="m103.654 202.854.005-33.208 10.578-6.108-.005 33.208z" opacity=".1" style="fill:#fff;fill-opacity:1"/><path fill="#F7921E" d="m103.654 202.854-14.1-8.14-.005-33.214 14.111 8.146z" style="fill:#f7921e;fill:color(display-p3 .9686 .5725 .1176);fill-opacity:1"/><path fill="#fff" d="m103.654 202.854-14.1-8.14-.005-33.214 14.111 8.146z" opacity=".3" style="fill:#fff;fill-opacity:1"/><path fill="#F7921E" d="m89.549 161.5 10.578-6.108 14.11 8.146-10.577 6.108z" style="fill:#f7921e;fill:color(display-p3 .9686 .5725 .1176);fill-opacity:1"/><path fill="#fff" d="m89.549 161.5 10.578-6.108 14.11 8.146-10.577 6.108z" opacity=".55" style="fill:#fff;fill-opacity:1"/><path fill="#fff" d="M103.47 169.902 89.549 161.5l14.249 7.859q2.314-1.305 4.608-2.56l5.811-3.235-5.709 3.415c-1.561.931-3.118 1.868-4.69 2.79.051 1.649.103 9.595.118 11.264s.026 10.112 0 11.776-.036 3.359-.092 5.043a166 166 0 0 1-.22 5.038 127 127 0 0 1-.215-5.038 274 274 0 0 1-.092-5.043c-.011-1.679 0-10.112 0-11.776.056-1.643.107-9.513.153-11.131" opacity=".3" style="fill:#fff;fill-opacity:1"/><path fill="#F7921E" d="m129.991 220.349-17.628-10.178a.22.22 0 0 1-.108-.19.22.22 0 0 1 .108-.189l14.105-8.141a.21.21 0 0 1 .216 0l17.633 10.179a.21.21 0 0 1 .107.189.209.209 0 0 1-.107.184l-14.106 8.146a.2.2 0 0 1-.107.026.2.2 0 0 1-.113-.026m-3.43-18.263-13.671 7.895 17.198 9.928 13.671-7.89z" opacity=".3" style="fill:#f7921e;fill:color(display-p3 .9686 .5725 .1176);fill-opacity:1"/><path fill="#F7921E" d="M130.104 218.122v-15.391l10.577-6.108v15.396z" style="fill:#f7921e;fill:color(display-p3 .9686 .5725 .1176);fill-opacity:1"/><path fill="#000" d="M130.104 218.122v-15.391l10.577-6.108v15.396z" opacity=".45" style="fill:#000;fill-opacity:1"/><path fill="#F7921E" d="m130.104 218.122-14.106-8.14-.005-15.391 14.111 8.141z" style="fill:#f7921e;fill:color(display-p3 .9686 .5725 .1176);fill-opacity:1"/><path fill="#000" d="m130.104 218.122-14.106-8.14-.005-15.391 14.111 8.141z" opacity=".3" style="fill:#000;fill-opacity:1"/><path fill="#F7921E" d="m115.993 194.591 10.583-6.109 14.106 8.141-10.578 6.108z" style="fill:#f7921e;fill:color(display-p3 .9686 .5725 .1176);fill-opacity:1"/><path fill="#000" d="m115.993 194.591 10.583-6.109 14.106 8.141-10.578 6.108z" opacity=".15" style="fill:#000;fill-opacity:1"/><path fill="#fff" d="m115.993 194.591 14.249 7.854 4.608-2.56 5.832-3.277-5.709 3.415-4.675 2.791c.108.967.139 11.33.113 12.288a16 16 0 0 1-.307 2.995 16 16 0 0 1-.312-2.995c0-.922 0-11.229.102-12.15z" opacity=".3" style="fill:#fff;fill-opacity:1"/><path fill="#F7921E" d="m50.657 174.541-17.633-10.189a.23.23 0 0 1-.108-.189.21.21 0 0 1 .108-.185l14.105-8.146a.24.24 0 0 1 .215 0l17.634 10.179a.22.22 0 0 1 .107.189q0 .059-.028.109a.2.2 0 0 1-.08.081l-14.105 8.151a.2.2 0 0 1-.087.051.2.2 0 0 1-.128-.051m-3.42-18.258-13.67 7.89 17.218 9.907 13.67-7.89z" opacity=".3" style="fill:#f7921e;fill:color(display-p3 .9686 .5725 .1176);fill-opacity:1"/><path fill="#F7921E" d="M50.765 172.319V92.8l10.578-6.108v79.519z" style="fill:#f7921e;fill:color(display-p3 .9686 .5725 .1176);fill-opacity:1"/><path fill="#fff" d="M50.765 172.319V92.8l10.578-6.108v79.519z" opacity=".3" style="fill:#fff;fill-opacity:1"/><path fill="#F7921E" d="m50.765 172.319-14.106-8.146V84.659L50.765 92.8z" style="fill:#f7921e;fill:color(display-p3 .9686 .5725 .1176);fill-opacity:1"/><path fill="#fff" d="m50.765 172.319-14.106-8.146V84.659L50.765 92.8z" opacity=".55" style="fill:#fff;fill-opacity:1"/><path fill="#F7921E" d="m36.66 84.659 10.577-6.108 14.106 8.14L50.765 92.8z" style="fill:#f7921e;fill:color(display-p3 .9686 .5725 .1176);fill-opacity:1"/><path fill="#fff" d="m36.66 84.659 10.577-6.108 14.106 8.14L50.765 92.8z" opacity=".75" style="fill:#fff;fill-opacity:1"/><path fill="#fff" d="M50.58 93.061 36.653 84.66l14.254 7.854c1.536-.87 3.072-1.725 4.608-2.585l5.812-3.236-5.694 3.42a344 344 0 0 1-4.685 2.796c.046 1.863.103 3.732.118 5.596s0 60.518 0 62.418-.04 3.804-.097 5.703c-.056 1.9-.108 3.799-.215 5.699q-.16-2.847-.22-5.699a235 235 0 0 1-.093-5.703c-.01-1.9 0-60.519 0-62.418.036-1.818.087-3.63.139-5.443" opacity=".3" style="fill:#fff;fill-opacity:1"/><path fill="#9A4A4D" d="M219.099 84.476c3.104-.69 7.135.904 9.514 5.851 2.26 4.758 8.254 17.245 8.397 20.587.142 3.342-13.951 14.272-13.559 14.069.131 0-3.151-6.672-3.151-6.672l7.766-7.742-4.674-9.11z" style="fill:#9a4a4d;fill:color(display-p3 .6039 .2902 .302);fill-opacity:1"/><path fill="#E0E0E0" d="M217.469 83.726c2.604-.32 7.778.155 9.681 3.235a105 105 0 0 1 8.17 16.877s-2.807 3.627-9.3 4.091l-3.021-5.733z" style="fill:#e0e0e0;fill:color(display-p3 .8784 .8784 .8784);fill-opacity:1"/><path fill="#263238" d="M222.583 196.603c.416.167.499.964.535 2.522 0 1.189.226 3.258-1.189 3.651a4.32 4.32 0 0 1-4.282-1.023c-1.082-1.415-1.807-2.652-3.354-4.389-1.343-1.51-2.794-2.925-3.306-5.007-.452-1.879 0-2.675 1.273-3.187 1.772-.713 4.472 1.796 5.827 2.2 1.19.345 4.092 5.043 4.496 5.233" style="fill:#263238;fill:color(display-p3 .149 .1961 .2196);fill-opacity:1"/><path fill="#9A4A4D" d="M222.667 195.128v1.927a4.76 4.76 0 0 1-4.865 0c-.083-.19-.44-2.759-.44-2.759z" style="fill:#9a4a4d;fill:color(display-p3 .6039 .2902 .302);fill-opacity:1"/><path fill="#263238" d="M206.776 207.307s.512 1.689.774 3.152c.214 1.189.499 3.128.071 3.984s-2.022 1.391-4.484 1.32a14.4 14.4 0 0 0-5.827 1.891 15.2 15.2 0 0 1-7.291.987c-2.188-.309-4.424-1.629-4.757-2.545s.155-1.843 5.364-3.925c0 0 7.231-2.176 9.788-4.876z" style="fill:#263238;fill:color(display-p3 .149 .1961 .2196);fill-opacity:1"/><path fill="#9A4A4D" d="M206.812 205.238v2.236c0 .82-.999 2.009-3.484 1.867-1.749-.107-2.962-.607-2.867-2.046v-2.081z" style="fill:#9a4a4d;fill:color(display-p3 .6039 .2902 .302);fill-opacity:1"/><path fill="#455A64" d="M224.449 169.654a52 52 0 0 0-2.045-10.062s.88-8.622 1.391-16.805c.559-8.848.428-19.968.654-22.18 0 0-27.413-6.327-28.162 3.889-.833 11.488.059 36.797.226 40.008.237 4.495.249 9.181 1.01 16.484.762 7.302 2.938 24.226 2.938 24.226a6.74 6.74 0 0 0 6.351 0s2.474-20.409 2.379-25.594a43.8 43.8 0 0 0-1.713-11.358l3.413-28.484s.333 12.666.571 17.174.856 7.243 1.974 15.615c.964 7.267 3.973 22.657 3.973 22.657 3.223 1.831 5.209-.119 5.209-.119s2.569-19.16 1.831-25.451" style="fill:#455a64;fill:color(display-p3 .2706 .3529 .3922);fill-opacity:1"/><path fill="#37474F" d="M220.81 133.832a23 23 0 0 1-7.599 6.386s-1.856 15.675-1.844 15.366l-.475-15.782a54.4 54.4 0 0 0 9.918-5.97" style="fill:#37474f;fill:color(display-p3 .2157 .2784 .3098);fill-opacity:1"/><path fill="#9A4A4D" d="m205.421 80.218 1.475 9.336 9.252-.5-1.332-10.846z" style="fill:#9a4a4d;fill:color(display-p3 .6039 .2902 .302);fill-opacity:1"/><path fill="#F0F0F0" d="M223.522 89.126c-.773-2.545-3.247-5.851-6.47-5.328l-1.486.25c-.381 1.57-5.114 2.913-9.241 1.938-1.189.333-2.379.666-3.413 1.011-2.962.975-5.697 3.461-6.149 13.082 0 0-.821 22.312-.678 28.342a32 32 0 0 0 18.161 2.319c8.872-1.737 10.335-5.531 10.335-5.531s.321-17.494.214-24.499c.052-3.9-.375-7.79-1.273-11.584" style="fill:#f0f0f0;fill:color(display-p3 .9412 .9412 .9412);fill-opacity:1"/><path fill="#9A4A4D" d="M199.189 68.765s-2.2 3.342-1.95 3.675c.249.333 1.867.618 1.867.618z" style="fill:#9a4a4d;fill:color(display-p3 .6039 .2902 .302);fill-opacity:1"/><path fill="#263238" d="M211.89 64.055a6.657 6.657 0 0 1-7.952 6.546 6.66 6.66 0 0 1-5.239-5.23 6.66 6.66 0 0 1 2.83-6.84 6.661 6.661 0 0 1 10.361 5.524" style="fill:#263238;fill:color(display-p3 .149 .1961 .2196);fill-opacity:1"/><path fill="#9A4A4D" d="M205.314 59.5c-4.46.94-5.756 2.902-6.173 10.002-.44 7.41.322 9.74 1.297 10.704.654.678 4.305.797 6.149.297 2.307-.642 7.516-2.485 9.954-6.22 2.866-4.376 3.568-10.323.547-12.76-4.317-3.414-9.954-2.403-11.774-2.023" style="fill:#9a4a4d;fill:color(display-p3 .6039 .2902 .302);fill-opacity:1"/><path fill="#F7921E" d="m220.561 60.535 1.867-1.094a1.55 1.55 0 0 0-1.512-.747 1.55 1.55 0 0 0-1.295 1.08c-.535-2.676-2.711-3.913-5.209-4.496-3.865-.88-7.481 1.415-11.31.559-.619-.143-1.261-.286-1.855-.488a1.06 1.06 0 0 0-.762 0 .86.86 0 0 0-.356.857 2.3 2.3 0 0 0 1.118 1.807c-.072 0-.44.06-.547.072h-.631a11 11 0 0 1-1.26-.084 2.7 2.7 0 0 0-.869 0 1.61 1.61 0 0 0-.987 1.582c.07.667.307 1.305.69 1.856q.21.348.464.666l.143.154c.356.35.756.654 1.189.904q.895.587 1.867 1.035.944.346 1.808.856a2.49 2.49 0 0 1 .939 2.272v1.736a1.511 1.511 0 0 0 1.13 2.521v-1.558s.702-2.735 3.009-2.378 2.64 3.306 1.189 5.102-2.83 1.118-2.83 1.118.071 3.913 1.808 6.125a11.3 11.3 0 0 0 6.148.25c2.224-.476 4.841-3.652 6.173-6.601 2.581-5.78 2.937-10.99-.119-13.106" style="fill:#f7921e;fill:color(display-p3 .9686 .5725 .1176);fill-opacity:1"/><path fill="#000" d="m220.561 60.535 1.867-1.094a1.55 1.55 0 0 0-1.512-.747 1.55 1.55 0 0 0-1.295 1.08c-.535-2.676-2.711-3.913-5.209-4.496-3.865-.88-7.481 1.415-11.31.559-.619-.143-1.261-.286-1.855-.488a1.06 1.06 0 0 0-.762 0 .86.86 0 0 0-.356.857 2.3 2.3 0 0 0 1.118 1.807c-.072 0-.44.06-.547.072h-.631a11 11 0 0 1-1.26-.084 2.7 2.7 0 0 0-.869 0 1.61 1.61 0 0 0-.987 1.582c.07.667.307 1.305.69 1.856q.21.348.464.666l.143.154c.356.35.756.654 1.189.904q.895.587 1.867 1.035.944.346 1.808.856a2.49 2.49 0 0 1 .939 2.272v1.736a1.511 1.511 0 0 0 1.13 2.521v-1.558s.702-2.735 3.009-2.378 2.64 3.306 1.189 5.102-2.83 1.118-2.83 1.118.071 3.913 1.808 6.125a11.3 11.3 0 0 0 6.148.25c2.224-.476 4.841-3.652 6.173-6.601 2.581-5.78 2.937-10.99-.119-13.106" opacity=".8" style="fill:#000;fill-opacity:1"/><path fill="#9A4A4D" d="M167.03 102.934c1.368.642 17.364 13.082 19.933 11.69 2.569-1.391 16.293-16.126 16.293-16.126a10.37 10.37 0 0 0-.107-11.537 10.7 10.7 0 0 0-6.446 3.925c-2.259 3.259-11.964 14.878-11.964 14.878a1895 1895 0 0 1-6.886-3.711c-1.879-1.022-3.77-2.057-5.614-3.163a6.8 6.8 0 0 1-1.439-.94c-.904-.927-.701-3.127-.654-4.317 0-.559 0-1.118.119-1.676.119-.56.262-2.38-.975-1.856a1.7 1.7 0 0 0-.607.488 3 3 0 0 0-.452.832c-.249.714-.19 1.51-.428 2.236a.53.53 0 0 1-.154.286.52.52 0 0 1-.393.107c-1.784-.096-3.425-2.64-4.222-3.996a3.63 3.63 0 0 0-1.332-1.582 2.38 2.38 0 0 0-2.807 1.01 5.66 5.66 0 0 0-.975 3.937 7.78 7.78 0 0 0 2.224 5.007 24 24 0 0 0 6.886 4.508" style="fill:#9a4a4d;fill:color(display-p3 .6039 .2902 .302);fill-opacity:1"/><path fill="#E0E0E0" d="M204.481 86.498a10.5 10.5 0 0 0-7.778 3.472c-3.509 3.794-8.896 11.275-8.896 11.275a9.96 9.96 0 0 0 6.362 7.73s8.397-7.575 10.181-11.013 2.188-9.074.131-11.464" style="fill:#e0e0e0;fill:color(display-p3 .8784 .8784 .8784);fill-opacity:1"/><path fill="#37474F" d="M188.722 211.528v17.525c0 .85-.604 1.342-1.336 1.772l-1.843 1.07a1.78 1.78 0 0 1-1.439.282 4 4 0 0 1-.983-.405.1.1 0 0 1-.041 0l-.097-.056-20.071-11.597a2 2 0 0 1-.998-1.731v-17.372a1.28 1.28 0 0 1 .574-.993l3.148-1.812a1.24 1.24 0 0 1 1.137 0l21.376 12.328c.169.105.308.251.404.425.103.171.161.365.169.564" style="fill:#37474f;fill:color(display-p3 .2157 .2784 .3098);fill-opacity:1"/><path fill="#263238" d="M188.722 211.528v17.525c0 .85-.604 1.342-1.336 1.772l-1.843 1.07a1.78 1.78 0 0 1-1.439.282 4 4 0 0 1-.983-.405c.732.343 1.311-.041 1.311-.911v-16.517a1.8 1.8 0 0 0-.251-.85l4.372-2.53c.103.171.161.365.169.564" style="fill:#263238;fill:color(display-p3 .149 .1961 .2196);fill-opacity:1"/><path fill="#455A64" d="M184.416 214.344a1.9 1.9 0 0 0-.254-.851 1.9 1.9 0 0 0-.611-.644l-20.183-11.633c-.799-.461-1.449-.082-1.449.84v16.384a2 2 0 0 0 .998 1.725l20.071 11.582c.798.46 1.449.087 1.449-.835z" style="fill:#455a64;fill:color(display-p3 .2706 .3529 .3922);fill-opacity:1"/><path fill="#F7921E" d="m164.618 198.799 21.406 12.473a2.004 2.004 0 0 1 .994 1.73v18.038l-.323.189v-18.237a1.69 1.69 0 0 0-.834-1.449l-21.571-12.57z" style="fill:#f7921e;fill:color(display-p3 .9686 .5725 .1176);fill-opacity:1"/><path fill="#F7921E" d="M172.221 201.037v2.739l-1.06.609v-3.584c0-.189.128-.261.287-.169z" style="fill:#f7921e;fill:color(display-p3 .9686 .5725 .1176);fill-opacity:1"/><path fill="#000" d="M172.221 201.037v2.739l-1.06.609v-3.584c0-.189.128-.261.287-.169z" opacity=".3" style="fill:#000;fill-opacity:1"/><path fill="#F7921E" d="M179.68 203.715v4.393l-1.024.588-.681-.394v-3.584a.65.65 0 0 0-.291-.512l-5.161-2.99-1.076-.619c-.158-.093-.286 0-.286.168v3.584l-.686-.394v-4.377a.2.2 0 0 1 0-.062.64.64 0 0 1 .286-.445l.43-.251a.65.65 0 0 1 .584 0l7.608 4.393a.64.64 0 0 1 .297.502" style="fill:#f7921e;fill:color(display-p3 .9686 .5725 .1176);fill-opacity:1"/><path fill="#000" d="M178.667 204.288v4.393l-.681-.394v-3.584a.66.66 0 0 0-.292-.512l-5.171-2.975-1.076-.619c-.158-.093-.286-.001-.286.168v3.584l-.686-.394v-4.377a.2.2 0 0 1 0-.062c.025-.138.143-.189.286-.107l7.614 4.367a.65.65 0 0 1 .292.512" opacity=".2" style="fill:#000;fill-opacity:1"/></svg>