<svg width="256" height="256" viewBox="0 0 256 256" fill="none" xmlns="http://www.w3.org/2000/svg">
<path d="M46.5595 218.407C24.0863 206.639 13.0007 191.291 13 176.074C12.9993 160.857 24.0837 145.507 46.5595 133.734C69.0237 121.967 98.4995 116.07 128.002 116.07C157.505 116.07 186.979 121.967 209.441 133.734C231.914 145.507 242.999 160.855 243 176.07C243.001 191.285 231.917 206.634 209.441 218.407C186.976 230.174 157.502 236.07 128 236.07C98.4981 236.07 69.0237 230.174 46.5595 218.407Z" stroke="#D5D5D5" style="stroke:#D5D5D5;stroke:color(display-p3 0.8353 0.8353 0.8353);stroke-opacity:1;"/>
<path d="M141.045 173.854L127.672 181.503C125.751 182.606 123.574 183.187 121.359 183.187C119.144 183.187 116.967 182.606 115.046 181.503L105.123 175.784C104.545 175.452 104.064 174.973 103.73 174.396C103.396 173.819 103.219 173.164 103.219 172.497V165.729L101.171 166.921V172.779C101.17 173.558 101.375 174.324 101.766 175C102.156 175.675 102.717 176.235 103.393 176.624L115.169 183.413C117.06 184.5 119.203 185.072 121.384 185.072C123.566 185.072 125.709 184.5 127.6 183.413L141.071 175.733C141.988 175.211 142.718 174.414 143.159 173.455C143.6 172.497 143.729 171.424 143.528 170.388C143.396 171.113 143.104 171.8 142.675 172.399C142.246 172.998 141.689 173.495 141.045 173.854Z" fill="#F7921E" style="fill:#F7921E;fill:color(display-p3 0.9686 0.5725 0.1176);fill-opacity:1;"/>
<path opacity="0.1" d="M141.045 173.854L127.672 181.503C125.751 182.606 123.574 183.187 121.359 183.187C119.144 183.187 116.967 182.606 115.046 181.503L105.123 175.784C104.545 175.452 104.064 174.973 103.73 174.396C103.396 173.819 103.219 173.164 103.219 172.497V165.729L101.171 166.921V172.779C101.17 173.558 101.375 174.324 101.766 175C102.156 175.675 102.717 176.235 103.393 176.624L115.169 183.413C117.06 184.5 119.203 185.072 121.384 185.072C123.566 185.072 125.709 184.5 127.6 183.413L141.071 175.733C141.988 175.211 142.718 174.414 143.159 173.455C143.6 172.497 143.729 171.424 143.528 170.388C143.396 171.113 143.104 171.8 142.675 172.399C142.246 172.998 141.689 173.495 141.045 173.854Z" fill="black" style="fill:black;fill-opacity:1;"/>
<path d="M105.123 175.759L115.046 181.478C116.967 182.581 119.144 183.161 121.359 183.161C123.574 183.161 125.751 182.581 127.672 181.478L141.045 173.854C141.684 173.492 142.236 172.994 142.661 172.395C143.086 171.796 143.373 171.111 143.503 170.388C143.375 169.684 143.097 169.016 142.689 168.429C142.281 167.842 141.752 167.349 141.137 166.983L130.165 160.404C129.508 160.009 128.964 159.45 128.586 158.783C128.208 158.115 128.01 157.361 128.01 156.594V151.362L103.208 165.698V172.466C103.209 173.135 103.387 173.792 103.723 174.37C104.059 174.948 104.542 175.427 105.123 175.759Z" fill="#F7921E" style="fill:#F7921E;fill:color(display-p3 0.9686 0.5725 0.1176);fill-opacity:1;"/>
<path opacity="0.4" d="M105.123 175.758C104.545 175.426 104.064 174.947 103.73 174.37C103.396 173.793 103.219 173.138 103.219 172.471V165.703L101.171 166.896V172.778C101.17 173.558 101.375 174.324 101.766 174.999C102.156 175.674 102.717 176.235 103.393 176.624L107.571 179.035V177.151L105.123 175.758Z" fill="black" style="fill:black;fill-opacity:1;"/>
<path opacity="0.3" d="M105.123 175.759L107.54 177.151L133.432 162.354L130.165 160.399C129.508 160.004 128.964 159.445 128.586 158.778C128.208 158.11 128.01 157.356 128.01 156.589V151.362L103.208 165.698V172.466C103.209 173.135 103.387 173.792 103.723 174.37C104.059 174.948 104.542 175.427 105.123 175.759Z" fill="black" style="fill:black;fill-opacity:1;"/>
<path d="M60.1134 190.14L59.9239 105.323C59.9924 104.009 60.371 102.73 61.0287 101.591C61.6863 100.452 62.6043 99.485 63.7076 98.7689L169.134 38.056C170.158 37.4569 171.12 37.3955 171.806 37.7795L167.838 35.4806C167.142 35.0403 166.164 35.0761 165.078 35.7008L59.6526 96.4189C58.551 97.1368 57.6343 98.1044 56.9769 99.2431C56.3194 100.382 55.9398 101.66 55.8689 102.972L56.0635 187.785C56.0635 188.922 56.4475 189.736 57.0875 190.151C57.1545 190.197 57.2246 190.238 57.2974 190.274L61.2142 192.552C60.5332 192.158 60.1185 191.323 60.1134 190.14Z" fill="#F7921E" style="fill:#F7921E;fill:color(display-p3 0.9686 0.5725 0.1176);fill-opacity:1;"/>
<path opacity="0.3" d="M167.838 35.4806C167.142 35.0403 166.164 35.0761 165.078 35.7008L59.6526 96.4189C58.4141 97.2101 57.4184 98.3282 56.7751 99.6496L60.8302 101.995C61.4789 100.672 62.4821 99.5551 63.7281 98.7689L169.134 38.056C170.158 37.4569 171.12 37.3955 171.806 37.7795L167.838 35.4806Z" fill="white" style="fill:white;fill-opacity:1;"/>
<path opacity="0.2" d="M55.8689 102.972L56.0635 187.785C56.0635 188.922 56.4475 189.736 57.0875 190.151C57.1545 190.196 57.2246 190.237 57.2974 190.273L61.2142 192.552C60.5435 192.152 60.1287 191.318 60.1236 190.135L59.9342 105.317C59.9658 104.154 60.2692 103.014 60.8199 101.989L56.7751 99.6494C56.2196 100.672 55.9093 101.809 55.8689 102.972Z" fill="black" style="fill:black;fill-opacity:1;"/>
<path d="M172.943 40.222C172.943 39.0392 172.523 38.2047 171.852 37.8053H171.827C171.141 37.4213 170.193 37.4828 169.154 38.0818L63.7076 98.7692C62.6043 99.4853 61.6863 100.452 61.0287 101.592C60.371 102.731 59.9925 104.009 59.924 105.323L60.1134 190.141C60.1134 191.323 60.5332 192.158 61.204 192.557C61.2207 192.572 61.2397 192.584 61.2603 192.593H61.291C61.9719 192.952 62.8987 192.885 63.9227 192.291L169.349 131.599C170.45 130.881 171.367 129.913 172.024 128.774C172.682 127.636 173.061 126.358 173.132 125.045L172.943 40.222ZM167.475 128.353L63.8561 188.021L63.6667 105.313C63.7393 104.66 63.9471 104.03 64.2768 103.462C64.6065 102.894 65.0508 102.402 65.5815 102.015L169.2 42.3468L169.384 125.055C169.314 125.708 169.107 126.338 168.778 126.906C168.449 127.474 168.005 127.966 167.475 128.353Z" fill="#F7921E" style="fill:#F7921E;fill:color(display-p3 0.9686 0.5725 0.1176);fill-opacity:1;"/>
<path d="M169.2 42.3467L166.517 43.8827L166.696 123.755C166.626 124.407 166.419 125.037 166.09 125.605C165.761 126.173 165.317 126.666 164.787 127.052L63.8458 185.164V188.021L167.475 128.352C168.005 127.966 168.449 127.474 168.778 126.906C169.107 126.338 169.314 125.708 169.384 125.055L169.2 42.3467Z" fill="#F7921E" style="fill:#F7921E;fill:color(display-p3 0.9686 0.5725 0.1176);fill-opacity:1;"/>
<path opacity="0.3" d="M169.2 42.3467L166.517 43.8827L166.696 123.755C166.626 124.407 166.419 125.037 166.09 125.605C165.761 126.173 165.317 126.666 164.787 127.052L63.8458 185.164V188.021L167.475 128.352C168.005 127.966 168.449 127.474 168.778 126.906C169.107 126.338 169.314 125.708 169.384 125.055L169.2 42.3467Z" fill="black" style="fill:black;fill-opacity:1;"/>
<path d="M166.696 123.744L166.517 43.8721L65.5815 102.015C65.0508 102.401 64.6064 102.894 64.2768 103.462C63.9471 104.029 63.7393 104.66 63.6666 105.312L63.8458 185.184L164.807 127.041C165.334 126.653 165.774 126.16 166.099 125.592C166.425 125.024 166.628 124.395 166.696 123.744Z" fill="#455A64" style="fill:#455A64;fill:color(display-p3 0.2706 0.3529 0.3922);fill-opacity:1;"/>
<path d="M76.0878 194.426L75.9086 114.262C75.9746 113.02 76.3337 111.811 76.9566 110.734C77.5796 109.657 78.4486 108.743 79.4926 108.067L179.143 50.6816C180.131 50.1133 181.022 50.057 181.672 50.4205L177.919 48.2445C177.264 47.8298 176.343 47.8605 175.313 48.4544L75.6526 105.845C74.6077 106.52 73.738 107.434 73.115 108.511C72.492 109.588 72.1333 110.797 72.0686 112.04L72.2478 192.204C72.2478 193.274 72.6113 194.042 73.2001 194.441L73.3998 194.559L77.1016 196.714C76.482 196.335 76.0929 195.542 76.0878 194.426Z" fill="#F7921E" style="fill:#F7921E;fill:color(display-p3 0.9686 0.5725 0.1176);fill-opacity:1;"/>
<path opacity="0.4" d="M177.904 48.2445C177.249 47.8298 176.327 47.8605 175.298 48.4544L75.6526 105.845C74.4717 106.594 73.5231 107.658 72.9134 108.917L76.7483 111.133C77.3554 109.875 78.3024 108.811 79.4824 108.061L179.143 50.6816C180.131 50.1133 181.022 50.057 181.672 50.4205L177.904 48.2445Z" fill="white" style="fill:white;fill-opacity:1;"/>
<path opacity="0.3" d="M72.0789 112.04L72.2581 192.204C72.2581 193.274 72.6216 194.042 73.2104 194.441L73.4101 194.559L77.1118 196.714C76.4769 196.335 76.0878 195.542 76.0878 194.426L75.9086 114.262C75.937 113.161 76.2247 112.082 76.7483 111.113L72.9134 108.896C72.3937 109.864 72.1078 110.941 72.0789 112.04Z" fill="white" style="fill:white;fill-opacity:1;"/>
<path d="M75.9188 118.906L76.0878 194.426C76.0878 195.542 76.482 196.336 77.1118 196.714L77.1681 196.745C77.8183 197.088 78.7041 197.022 79.6564 196.464L179.333 139.094C180.375 138.416 181.244 137.502 181.866 136.425C182.489 135.349 182.849 134.141 182.917 132.899L182.727 57.2559L75.9188 118.906Z" fill="#F7921E" style="fill:#F7921E;fill:color(display-p3 0.9686 0.5725 0.1176);fill-opacity:1;"/>
<path opacity="0.5" d="M75.9188 118.906L76.0878 194.426C76.0878 195.542 76.482 196.336 77.1118 196.714L77.1681 196.745C77.8183 197.088 78.7041 197.022 79.6564 196.464L179.333 139.094C180.375 138.416 181.244 137.502 181.866 136.425C182.489 135.349 182.849 134.141 182.917 132.899L182.727 57.2559L75.9188 118.906Z" fill="white" style="fill:white;fill-opacity:1;"/>
<path d="M178.631 62.2786C179.553 61.7666 180.311 62.1762 180.311 63.2361C180.28 63.8169 180.112 64.3822 179.82 64.8852C179.528 65.3882 179.12 65.8145 178.631 66.1289L93.1988 115.486C92.2772 115.998 91.5246 115.593 91.5195 114.528C91.5515 113.949 91.7193 113.385 92.0093 112.883C92.2992 112.38 92.7032 111.953 93.1886 111.635L178.631 62.2786Z" fill="#F7921E" style="fill:#F7921E;fill:color(display-p3 0.9686 0.5725 0.1176);fill-opacity:1;"/>
<g opacity="0.8">
<path d="M178.631 62.2786C179.553 61.7666 180.311 62.1762 180.311 63.2361C180.28 63.8169 180.112 64.3822 179.82 64.8852C179.528 65.3882 179.12 65.8145 178.631 66.1289L93.1988 115.486C92.2772 115.998 91.5246 115.593 91.5195 114.528C91.5515 113.949 91.7193 113.385 92.0093 112.883C92.2992 112.38 92.7032 111.953 93.1886 111.635L178.631 62.2786Z" fill="white" style="fill:white;fill-opacity:1;"/>
</g>
<path d="M80.6446 119.771C80.6617 119.761 80.6811 119.756 80.7009 119.756C80.7207 119.756 80.7401 119.761 80.7572 119.771C80.8238 119.802 80.8289 119.925 80.7572 120.037L80.2145 121.03L82.0372 119.976C82.1294 119.925 82.2062 119.976 82.2062 120.073C82.2041 120.132 82.1876 120.189 82.1582 120.24C82.1287 120.291 82.0872 120.334 82.0372 120.365L80.2196 121.42L80.7624 121.783C80.8238 121.824 80.8187 121.952 80.7624 122.065C80.7358 122.112 80.6968 122.151 80.6497 122.177C80.632 122.191 80.6104 122.198 80.5883 122.198C80.5661 122.198 80.5446 122.191 80.5268 122.177L79.723 121.63C79.7074 121.62 79.695 121.605 79.6872 121.589C79.6847 121.568 79.6847 121.548 79.6872 121.527C79.6847 121.503 79.6847 121.479 79.6872 121.455L79.7179 121.374L80.5166 119.904C80.5469 119.849 80.591 119.803 80.6446 119.771Z" fill="#F7921E" style="fill:#F7921E;fill:color(display-p3 0.9686 0.5725 0.1176);fill-opacity:1;"/>
<path d="M85.2424 117.114C85.261 117.103 85.2822 117.097 85.3038 117.097C85.3254 117.097 85.3465 117.103 85.3652 117.114L86.1691 117.656C86.1834 117.666 86.1942 117.681 86.1998 117.697C86.2045 117.719 86.2045 117.742 86.1998 117.764C86.2019 117.788 86.2019 117.812 86.1998 117.836L86.1691 117.912L85.3652 119.382C85.3384 119.439 85.2957 119.487 85.2424 119.52C85.2247 119.528 85.2055 119.533 85.186 119.533C85.1666 119.533 85.1473 119.528 85.1297 119.52C85.0631 119.484 85.058 119.366 85.1297 119.249L85.6417 118.255L83.8241 119.31C83.732 119.361 83.6552 119.31 83.6552 119.213C83.6579 119.155 83.6741 119.098 83.7026 119.048C83.731 118.997 83.7709 118.954 83.819 118.921L85.6417 117.871L85.099 117.503C85.0376 117.462 85.0427 117.339 85.099 117.226C85.1363 117.177 85.1857 117.138 85.2424 117.114Z" fill="#F7921E" style="fill:#F7921E;fill:color(display-p3 0.9686 0.5725 0.1176);fill-opacity:1;"/>
<path d="M88.6062 115.173C88.7709 115.064 88.9679 115.015 89.1643 115.035C89.1723 114.982 89.1916 114.931 89.2207 114.886C89.2498 114.841 89.2882 114.803 89.3332 114.774C89.4254 114.728 89.4971 114.774 89.4971 114.881V115.311C89.4924 115.367 89.4753 115.422 89.447 115.471C89.4186 115.519 89.3798 115.561 89.3332 115.593L88.9697 115.823C88.8827 115.874 88.8059 115.823 88.8059 115.736C88.8054 115.686 88.8162 115.635 88.8374 115.589C88.8587 115.543 88.8899 115.503 88.9287 115.47C88.8218 115.474 88.7177 115.506 88.6267 115.562C88.4212 115.695 88.2503 115.874 88.1283 116.086C88.0063 116.298 87.9367 116.536 87.9252 116.781C87.9252 117.226 88.2427 117.41 88.6318 117.185C88.9198 117 89.1378 116.725 89.2513 116.402C89.2774 116.325 89.33 116.259 89.3998 116.217C89.4267 116.211 89.4548 116.211 89.4817 116.217C89.5636 116.217 89.5943 116.32 89.5483 116.443C89.3787 116.918 89.0563 117.323 88.6318 117.595C88.0583 117.928 87.6078 117.661 87.6078 117.001C87.6178 116.639 87.7135 116.285 87.887 115.967C88.0606 115.649 88.3071 115.377 88.6062 115.173Z" fill="#F7921E" style="fill:#F7921E;fill:color(display-p3 0.9686 0.5725 0.1176);fill-opacity:1;"/>
<g opacity="0.7">
<path d="M80.6446 119.771C80.6617 119.761 80.6811 119.756 80.7009 119.756C80.7207 119.756 80.7401 119.761 80.7572 119.771C80.8238 119.802 80.8289 119.925 80.7572 120.037L80.2145 121.03L82.0372 119.976C82.1294 119.925 82.2062 119.976 82.2062 120.073C82.2041 120.132 82.1876 120.189 82.1582 120.24C82.1287 120.291 82.0872 120.334 82.0372 120.365L80.2196 121.42L80.7624 121.783C80.8238 121.824 80.8187 121.952 80.7624 122.065C80.7358 122.112 80.6968 122.151 80.6497 122.177C80.632 122.191 80.6104 122.198 80.5883 122.198C80.5661 122.198 80.5446 122.191 80.5268 122.177L79.723 121.63C79.7074 121.62 79.695 121.605 79.6872 121.589C79.6847 121.568 79.6847 121.548 79.6872 121.527C79.6847 121.503 79.6847 121.479 79.6872 121.455L79.7179 121.374L80.5166 119.904C80.5469 119.849 80.591 119.803 80.6446 119.771Z" fill="white" style="fill:white;fill-opacity:1;"/>
<path d="M85.2424 117.114C85.261 117.103 85.2822 117.097 85.3038 117.097C85.3254 117.097 85.3465 117.103 85.3652 117.114L86.1691 117.656C86.1834 117.666 86.1942 117.681 86.1998 117.697C86.2045 117.719 86.2045 117.742 86.1998 117.764C86.2019 117.788 86.2019 117.812 86.1998 117.836L86.1691 117.912L85.3652 119.382C85.3384 119.439 85.2957 119.487 85.2424 119.52C85.2247 119.528 85.2055 119.533 85.186 119.533C85.1666 119.533 85.1473 119.528 85.1297 119.52C85.0631 119.484 85.058 119.366 85.1297 119.249L85.6417 118.255L83.8241 119.31C83.732 119.361 83.6552 119.31 83.6552 119.213C83.6579 119.155 83.6741 119.098 83.7026 119.048C83.731 118.997 83.7709 118.954 83.819 118.921L85.6417 117.871L85.099 117.503C85.0376 117.462 85.0427 117.339 85.099 117.226C85.1363 117.177 85.1857 117.138 85.2424 117.114Z" fill="white" style="fill:white;fill-opacity:1;"/>
<path d="M88.6062 115.173C88.7709 115.064 88.9679 115.015 89.1643 115.035C89.1723 114.982 89.1916 114.931 89.2207 114.886C89.2498 114.841 89.2882 114.803 89.3332 114.774C89.4254 114.728 89.4971 114.774 89.4971 114.881V115.311C89.4924 115.367 89.4753 115.422 89.447 115.471C89.4186 115.519 89.3798 115.561 89.3332 115.593L88.9697 115.823C88.8827 115.874 88.8059 115.823 88.8059 115.736C88.8054 115.686 88.8162 115.635 88.8374 115.589C88.8587 115.543 88.8899 115.503 88.9287 115.47C88.8218 115.474 88.7177 115.506 88.6267 115.562C88.4212 115.695 88.2503 115.874 88.1283 116.086C88.0063 116.298 87.9367 116.536 87.9252 116.781C87.9252 117.226 88.2427 117.41 88.6318 117.185C88.9198 117 89.1378 116.725 89.2513 116.402C89.2774 116.325 89.33 116.259 89.3998 116.217C89.4267 116.211 89.4548 116.211 89.4817 116.217C89.5636 116.217 89.5943 116.32 89.5483 116.443C89.3787 116.918 89.0563 117.323 88.6318 117.595C88.0583 117.928 87.6078 117.661 87.6078 117.001C87.6178 116.639 87.7135 116.285 87.887 115.967C88.0606 115.649 88.3071 115.377 88.6062 115.173Z" fill="white" style="fill:white;fill-opacity:1;"/>
</g>
<g opacity="0.5">
<path d="M82.1448 165.042C81.8596 165.045 81.5788 164.973 81.3307 164.832C81.0222 164.622 80.7755 164.333 80.6162 163.995C80.4568 163.658 80.3906 163.284 80.4244 162.912L80.3271 131.762C80.3787 130.803 80.656 129.869 81.1364 129.037C81.6169 128.206 82.2869 127.499 83.0919 126.975L120.468 105.399C120.76 105.157 121.119 105.009 121.497 104.976C121.875 104.943 122.254 105.026 122.583 105.214C122.913 105.402 123.177 105.686 123.341 106.029C123.504 106.371 123.56 106.755 123.499 107.13L123.586 138.28C123.535 139.239 123.258 140.173 122.778 141.005C122.297 141.837 121.627 142.544 120.821 143.067L83.4452 164.643C83.0543 164.888 82.6058 165.025 82.1448 165.042ZM121.799 105.507C121.423 105.522 121.058 105.635 120.739 105.834L83.3633 127.41C82.6309 127.886 82.0213 128.528 81.5844 129.285C81.1475 130.041 80.8957 130.89 80.8494 131.762L80.9415 162.912C80.908 163.194 80.9506 163.48 81.065 163.741C81.1793 164.001 81.3612 164.226 81.5918 164.392C81.8544 164.508 82.1431 164.552 82.4283 164.52C82.7135 164.487 82.985 164.379 83.2148 164.207L120.591 142.632C121.321 142.155 121.929 141.513 122.366 140.758C122.803 140.003 123.056 139.156 123.105 138.285L123.013 107.13C123.046 106.848 123.003 106.562 122.888 106.302C122.774 106.041 122.593 105.817 122.362 105.65C122.191 105.552 121.996 105.502 121.799 105.507Z" fill="white" style="fill:white;fill-opacity:1;"/>
</g>
<path d="M154.286 143.804C154.164 143.804 154.044 143.775 153.937 143.717C153.813 143.633 153.713 143.518 153.648 143.383C153.582 143.248 153.553 143.099 153.564 142.949L153.41 89.783C153.426 89.4437 153.523 89.113 153.693 88.819C153.863 88.5249 154.101 88.2761 154.388 88.0934L175.38 75.9693C175.5 75.8754 175.646 75.8195 175.798 75.8086C175.95 75.7977 176.102 75.8324 176.234 75.9082C176.367 75.984 176.473 76.0974 176.541 76.2342C176.609 76.3709 176.634 76.5246 176.614 76.6758L176.767 129.821C176.753 130.16 176.657 130.491 176.487 130.785C176.318 131.079 176.08 131.328 175.795 131.511L154.803 143.635C154.649 143.737 154.47 143.795 154.286 143.804ZM175.513 76.1843L175.636 76.4045L154.644 88.5286C154.434 88.6668 154.258 88.8521 154.132 89.0698C154.006 89.2876 153.932 89.5318 153.917 89.783L154.071 142.949C154.063 143.01 154.07 143.073 154.091 143.131C154.113 143.188 154.148 143.24 154.193 143.282C154.253 143.3 154.316 143.304 154.377 143.293C154.439 143.282 154.497 143.258 154.547 143.22L175.539 131.096C175.747 130.957 175.921 130.771 176.046 130.553C176.171 130.336 176.245 130.092 176.261 129.842L176.112 76.6758C176.112 76.512 176.066 76.3891 175.984 76.343C175.925 76.3238 175.861 76.3193 175.8 76.33C175.738 76.3407 175.68 76.3663 175.631 76.4045L175.513 76.1843Z" fill="white" style="fill:white;fill-opacity:1;"/>
<path d="M101.642 157.009C102.42 156.563 103.05 156.922 103.055 157.818L103.101 174.401C103.075 174.888 102.935 175.363 102.691 175.785C102.447 176.208 102.107 176.567 101.698 176.833L81.7966 188.323C81.0184 188.773 80.3886 188.41 80.3835 187.519L80.3374 170.93C80.3632 170.443 80.5037 169.968 80.7475 169.546C80.9913 169.123 81.3314 168.764 81.7403 168.498L101.642 157.009Z" fill="#F7921E" style="fill:#F7921E;fill:color(display-p3 0.9686 0.5725 0.1176);fill-opacity:1;"/>
<g opacity="0.2">
<path d="M101.642 157.009C102.42 156.563 103.05 156.922 103.055 157.818L103.101 174.401C103.075 174.888 102.935 175.363 102.691 175.785C102.447 176.208 102.107 176.567 101.698 176.833L81.7966 188.323C81.0184 188.773 80.3886 188.41 80.3835 187.519L80.3374 170.93C80.3632 170.443 80.5037 169.968 80.7475 169.546C80.9913 169.123 81.3314 168.764 81.7403 168.498L101.642 157.009Z" fill="white" style="fill:white;fill-opacity:1;"/>
</g>
<path d="M101.79 158.099C101.806 158.087 101.826 158.08 101.847 158.08C101.867 158.08 101.887 158.087 101.903 158.099C101.949 158.14 101.934 158.253 101.872 158.34L91.9547 172.522L101.923 175.226C101.985 175.226 102 175.338 101.923 175.436C101.902 175.491 101.862 175.538 101.811 175.569C101.784 175.579 101.755 175.579 101.729 175.569L91.6936 172.845L81.7301 187.166C81.7081 187.198 81.6803 187.225 81.6482 187.247C81.6317 187.259 81.612 187.265 81.5918 187.265C81.5717 187.265 81.552 187.259 81.5355 187.247C81.5139 187.209 81.5052 187.164 81.5108 187.12C81.5163 187.075 81.5357 187.034 81.5662 187.002L91.4837 172.83L81.515 170.126C81.4536 170.126 81.4382 170.014 81.4843 169.916C81.5094 169.863 81.5482 169.817 81.597 169.783C81.6252 169.774 81.6557 169.774 81.684 169.783L91.7192 172.507L101.703 158.222C101.722 158.175 101.752 158.133 101.79 158.099Z" fill="white" style="fill:white;fill-opacity:1;"/>
<path d="M126.059 143.256C126.837 142.811 127.472 143.169 127.472 144.065L127.518 160.649C127.494 161.136 127.355 161.611 127.111 162.034C126.867 162.457 126.526 162.816 126.115 163.081L106.219 174.57C105.441 175.021 104.806 174.657 104.806 173.766L104.755 157.177C104.781 156.69 104.923 156.215 105.168 155.793C105.412 155.37 105.753 155.011 106.163 154.745L126.059 143.256Z" fill="#F7921E" style="fill:#F7921E;fill:color(display-p3 0.9686 0.5725 0.1176);fill-opacity:1;"/>
<g opacity="0.2">
<path d="M126.059 143.256C126.837 142.811 127.472 143.169 127.472 144.065L127.518 160.649C127.494 161.136 127.355 161.611 127.111 162.034C126.867 162.457 126.526 162.816 126.115 163.081L106.219 174.57C105.441 175.021 104.806 174.657 104.806 173.766L104.755 157.177C104.781 156.69 104.923 156.215 105.168 155.793C105.412 155.37 105.753 155.011 106.163 154.745L126.059 143.256Z" fill="white" style="fill:white;fill-opacity:1;"/>
</g>
<path d="M126.207 144.347C126.254 144.347 126.295 144.321 126.32 144.347C126.342 144.385 126.351 144.43 126.346 144.474C126.342 144.518 126.324 144.559 126.295 144.593L116.377 158.775L126.341 161.478C126.402 161.478 126.417 161.591 126.371 161.688C126.346 161.742 126.307 161.788 126.259 161.821C126.23 161.831 126.2 161.831 126.172 161.821L116.136 159.098L106.152 173.382C106.129 173.415 106.099 173.443 106.065 173.464C106.049 173.475 106.029 173.481 106.009 173.481C105.989 173.481 105.969 173.475 105.953 173.464C105.907 173.418 105.922 173.306 105.983 173.219L115.901 159.036L105.927 156.348C105.861 156.348 105.85 156.235 105.896 156.138C105.918 156.082 105.958 156.036 106.009 156.005C106.036 155.996 106.065 155.996 106.091 156.005L116.126 158.729L126.115 144.444C126.139 144.405 126.17 144.372 126.207 144.347Z" fill="white" style="fill:white;fill-opacity:1;"/>
<path d="M150.174 129.381C150.952 128.93 151.582 129.289 151.582 130.185L151.633 146.774C151.608 147.261 151.467 147.735 151.223 148.157C150.978 148.579 150.636 148.937 150.225 149.201L130.329 160.69C129.551 161.14 128.921 160.777 128.916 159.886L128.87 143.297C128.894 142.81 129.033 142.335 129.277 141.912C129.521 141.489 129.862 141.13 130.273 140.865L150.174 129.381Z" fill="#F7921E" style="fill:#F7921E;fill:color(display-p3 0.9686 0.5725 0.1176);fill-opacity:1;"/>
<g opacity="0.2">
<path d="M150.174 129.381C150.952 128.93 151.582 129.289 151.582 130.185L151.633 146.774C151.608 147.261 151.467 147.735 151.223 148.157C150.978 148.579 150.636 148.937 150.225 149.201L130.329 160.69C129.551 161.14 128.921 160.777 128.916 159.886L128.87 143.297C128.894 142.81 129.033 142.335 129.277 141.912C129.521 141.489 129.862 141.13 130.273 140.865L150.174 129.381Z" fill="white" style="fill:white;fill-opacity:1;"/>
</g>
<path d="M150.323 130.472C150.339 130.459 150.359 130.453 150.379 130.453C150.399 130.453 150.419 130.459 150.435 130.472C150.481 130.518 150.466 130.625 150.405 130.712L140.487 144.9L150.471 147.603C150.538 147.603 150.548 147.711 150.502 147.813C150.479 147.867 150.439 147.912 150.389 147.941C150.363 147.951 150.334 147.951 150.307 147.941L140.231 145.238L130.263 159.518C130.242 159.551 130.214 159.579 130.181 159.6C130.164 159.612 130.145 159.619 130.124 159.619C130.104 159.619 130.084 159.612 130.068 159.6C130.022 159.553 130.032 159.446 130.068 159.354L140.011 145.182L130.048 142.478C129.986 142.478 129.971 142.366 130.017 142.268C130.042 142.215 130.081 142.169 130.129 142.135C130.158 142.126 130.188 142.126 130.216 142.135L140.252 144.859L150.236 130.574C150.254 130.533 150.285 130.497 150.323 130.472Z" fill="white" style="fill:white;fill-opacity:1;"/>
<path d="M148.239 92.4456C149.539 91.6981 150.594 92.2972 150.599 93.7922C150.555 94.605 150.32 95.3958 149.912 96.1004C149.505 96.8051 148.937 97.4036 148.254 97.8472L128.675 109.147C127.38 109.9 126.325 109.301 126.32 107.806C126.363 106.993 126.597 106.202 127.004 105.498C127.41 104.793 127.978 104.194 128.66 103.751L148.239 92.4456Z" fill="#F7921E" style="fill:#F7921E;fill:color(display-p3 0.9686 0.5725 0.1176);fill-opacity:1;"/>
<g opacity="0.2">
<path d="M148.239 92.4456C149.539 91.6981 150.594 92.2972 150.599 93.7922C150.555 94.605 150.32 95.3958 149.912 96.1004C149.505 96.8051 148.937 97.4036 148.254 97.8472L128.675 109.147C127.38 109.9 126.325 109.301 126.32 107.806C126.363 106.993 126.597 106.202 127.004 105.498C127.41 104.793 127.978 104.194 128.66 103.751L148.239 92.4456Z" fill="white" style="fill:white;fill-opacity:1;"/>
</g>
<path d="M148.239 100.038C149.539 99.2909 150.594 99.8899 150.599 101.385C150.555 102.198 150.32 102.989 149.913 103.694C149.505 104.398 148.937 104.997 148.254 105.44L128.675 116.745C127.38 117.492 126.325 116.893 126.32 115.398C126.363 114.586 126.597 113.795 127.004 113.09C127.41 112.386 127.978 111.787 128.66 111.343L148.239 100.038Z" fill="#F7921E" style="fill:#F7921E;fill:color(display-p3 0.9686 0.5725 0.1176);fill-opacity:1;"/>
<g opacity="0.2">
<path d="M148.239 100.038C149.539 99.2909 150.594 99.8899 150.599 101.385C150.555 102.198 150.32 102.989 149.913 103.694C149.505 104.398 148.937 104.997 148.254 105.44L128.675 116.745C127.38 117.492 126.325 116.893 126.32 115.398C126.363 114.586 126.597 113.795 127.004 113.09C127.41 112.386 127.978 111.787 128.66 111.343L148.239 100.038Z" fill="white" style="fill:white;fill-opacity:1;"/>
</g>
<path d="M148.239 107.616C149.539 106.869 150.594 107.473 150.599 108.963C150.555 109.776 150.32 110.567 149.913 111.271C149.505 111.976 148.937 112.574 148.254 113.018L128.675 124.323C127.38 125.07 126.325 124.471 126.32 122.976C126.363 122.164 126.597 121.373 127.004 120.668C127.41 119.963 127.978 119.365 128.66 118.921L148.239 107.616Z" fill="#F7921E" style="fill:#F7921E;fill:color(display-p3 0.9686 0.5725 0.1176);fill-opacity:1;"/>
<g opacity="0.2">
<path d="M148.239 107.616C149.539 106.869 150.594 107.473 150.599 108.963C150.555 109.776 150.32 110.567 149.913 111.271C149.505 111.976 148.937 112.574 148.254 113.018L128.675 124.323C127.38 125.07 126.325 124.471 126.32 122.976C126.363 122.164 126.597 121.373 127.004 120.668C127.41 119.963 127.978 119.365 128.66 118.921L148.239 107.616Z" fill="white" style="fill:white;fill-opacity:1;"/>
</g>
<path d="M182.727 52.7345C182.727 51.6132 182.333 50.8248 181.703 50.4459C181.053 50.0824 180.167 50.1387 179.174 50.707L79.4824 108.066C78.4384 108.743 77.5693 109.657 76.9464 110.734C76.3235 111.81 75.9643 113.019 75.8984 114.262V118.905L182.727 57.2555V52.7345Z" fill="#F7921E" style="fill:#F7921E;fill:color(display-p3 0.9686 0.5725 0.1176);fill-opacity:1;"/>
<path opacity="0.3" d="M182.727 52.7345C182.727 51.6132 182.333 50.8248 181.703 50.4459C181.053 50.0824 180.167 50.1387 179.174 50.707L79.4824 108.066C78.4384 108.743 77.5693 109.657 76.9464 110.734C76.3235 111.81 75.9643 113.019 75.8984 114.262V118.905L182.727 57.2555V52.7345Z" fill="black" style="fill:black;fill-opacity:1;"/>
<g opacity="0.5">
<path d="M80.6497 111.313C81.1925 111 81.6328 111.251 81.6328 111.871C81.616 112.209 81.5191 112.539 81.3499 112.833C81.1808 113.126 80.9443 113.376 80.66 113.56C80.1173 113.873 79.6769 113.622 79.6769 113.002C79.6953 112.664 79.793 112.335 79.9619 112.041C80.1309 111.748 80.3665 111.498 80.6497 111.313Z" fill="white" style="fill:white;fill-opacity:1;"/>
<path d="M83.3223 109.772C83.8651 109.459 84.3054 109.71 84.3054 110.33C84.287 110.668 84.1894 110.997 84.0204 111.29C83.8514 111.584 83.6158 111.834 83.3326 112.019C82.7899 112.332 82.3495 112.081 82.3495 111.461C82.3679 111.123 82.4656 110.794 82.6345 110.5C82.8035 110.207 83.0391 109.957 83.3223 109.772Z" fill="white" style="fill:white;fill-opacity:1;"/>
<path d="M85.995 108.231C86.5377 107.918 86.9781 108.169 86.9781 108.789C86.9597 109.127 86.862 109.456 86.6931 109.749C86.5241 110.043 86.2885 110.293 86.0053 110.478C85.4625 110.791 85.0222 110.54 85.0222 109.915C85.0402 109.577 85.1377 109.249 85.3067 108.956C85.4758 108.663 85.7116 108.415 85.995 108.231Z" fill="white" style="fill:white;fill-opacity:1;"/>
</g>
<path d="M80.6497 111.313C81.1925 111 81.6328 111.251 81.6328 111.871C81.616 112.209 81.5191 112.539 81.3499 112.833C81.1808 113.126 80.9443 113.376 80.66 113.56C80.1173 113.873 79.6769 113.622 79.6769 113.002C79.6953 112.664 79.793 112.335 79.9619 112.041C80.1309 111.748 80.3665 111.498 80.6497 111.313Z" fill="#F7921E" style="fill:#F7921E;fill:color(display-p3 0.9686 0.5725 0.1176);fill-opacity:1;"/>
<path d="M83.3223 109.772C83.8651 109.459 84.3054 109.71 84.3054 110.33C84.287 110.668 84.1894 110.997 84.0204 111.29C83.8514 111.584 83.6158 111.834 83.3326 112.019C82.7899 112.332 82.3495 112.081 82.3495 111.461C82.3679 111.123 82.4656 110.794 82.6345 110.5C82.8035 110.207 83.0391 109.957 83.3223 109.772Z" fill="#F7921E" style="fill:#F7921E;fill:color(display-p3 0.9686 0.5725 0.1176);fill-opacity:1;"/>
<path d="M85.995 108.231C86.5377 107.918 86.9781 108.169 86.9781 108.789C86.9597 109.127 86.862 109.456 86.6931 109.749C86.5241 110.043 86.2885 110.293 86.0053 110.478C85.4625 110.791 85.0222 110.54 85.0222 109.915C85.0402 109.577 85.1377 109.249 85.3067 108.956C85.4758 108.663 85.7116 108.415 85.995 108.231Z" fill="#F7921E" style="fill:#F7921E;fill:color(display-p3 0.9686 0.5725 0.1176);fill-opacity:1;"/>
<path d="M193.07 90.9152L193.059 95.6665L193.904 103.116L195.143 110.371L199.388 110.868L197.652 103.116L194.36 90.2905L193.07 90.9152Z" fill="#FFA8A7" style="fill:#FFA8A7;fill:color(display-p3 1.0000 0.6588 0.6549);fill-opacity:1;"/>
<path d="M194.754 109.48C197.683 108.389 199.597 109.925 199.597 109.925L200.079 122.352L194.851 119.362L194.754 109.48Z" fill="#F7921E" style="fill:#F7921E;fill:color(display-p3 0.9686 0.5725 0.1176);fill-opacity:1;"/>
<path d="M194.754 109.48C197.683 108.389 199.597 109.925 199.597 109.925L200.079 122.352L194.851 119.362L194.754 109.48Z" fill="#F7921E" style="fill:#F7921E;fill:color(display-p3 0.9686 0.5725 0.1176);fill-opacity:1;"/>
<path opacity="0.3" d="M194.754 109.48C197.683 108.389 199.597 109.925 199.597 109.925L200.079 122.352L194.851 119.362L194.754 109.48Z" fill="black" style="fill:black;fill-opacity:1;"/>
<path opacity="0.3" d="M194.754 109.48C197.683 108.389 199.597 109.925 199.597 109.925L200.079 122.352L194.851 119.362L194.754 109.48Z" fill="white" style="fill:white;fill-opacity:1;"/>
<path d="M192.148 73.7578C192.629 73.4762 193.018 73.7015 193.023 74.2698L193.177 128.685C193.161 128.987 193.073 129.28 192.922 129.542C192.771 129.804 192.56 130.026 192.307 130.19L170.803 142.601C170.321 142.878 169.932 142.653 169.927 142.089L169.773 87.6791C169.785 87.3721 169.87 87.0724 170.022 86.8051C170.173 86.5379 170.387 86.3108 170.644 86.1431L192.148 73.7578Z" fill="#F7921E" style="fill:#F7921E;fill:color(display-p3 0.9686 0.5725 0.1176);fill-opacity:1;"/>
<g opacity="0.2">
<path d="M192.148 73.7578C192.629 73.4762 193.018 73.7015 193.023 74.2698L193.177 128.685C193.161 128.987 193.073 129.28 192.922 129.542C192.771 129.804 192.56 130.026 192.307 130.19L170.803 142.601C170.321 142.878 169.932 142.653 169.927 142.089L169.773 87.6791C169.785 87.3721 169.87 87.0724 170.022 86.8051C170.173 86.5379 170.387 86.3108 170.644 86.1431L192.148 73.7578Z" fill="black" style="fill:black;fill-opacity:1;"/>
</g>
<g opacity="0.1">
<path d="M192.148 73.7578C192.629 73.4762 193.018 73.7015 193.023 74.2698L193.177 128.685C193.161 128.987 193.073 129.28 192.922 129.542C192.771 129.804 192.56 130.026 192.307 130.19L170.803 142.601C170.321 142.878 169.932 142.653 169.927 142.089L169.773 87.6791C169.785 87.3721 169.87 87.0724 170.022 86.8051C170.173 86.5379 170.387 86.3108 170.644 86.1431L192.148 73.7578Z" fill="white" style="fill:white;fill-opacity:1;"/>
</g>
<path d="M191.851 75.6318C192.056 75.5959 192.102 75.7188 192.051 75.8724L181.703 108.031L192.184 128.173C192.204 128.242 192.205 128.316 192.186 128.386C192.167 128.455 192.129 128.518 192.076 128.567C191.907 128.69 191.825 128.68 191.789 128.614L181.468 108.774L171.289 140.446C171.257 140.553 171.188 140.646 171.094 140.707C170.89 140.743 170.844 140.62 170.895 140.466L181.242 108.318L170.762 88.1758C170.741 88.1065 170.741 88.033 170.759 87.9634C170.778 87.8938 170.816 87.8308 170.869 87.7815C171.043 87.6586 171.12 87.6638 171.156 87.7354L181.478 107.575L191.656 75.9031C191.686 75.7919 191.755 75.6954 191.851 75.6318Z" fill="white" style="fill:white;fill-opacity:1;"/>
<path d="M179.435 116.51L174.827 114.974L171.791 103.5C171.715 103.158 171.746 102.801 171.878 102.476L172.195 101.677C172.365 101.256 172.445 100.805 172.431 100.351L172.369 98.595C172.369 98.4592 172.315 98.3289 172.219 98.2329C172.123 98.1369 171.993 98.083 171.857 98.083C171.733 98.0817 171.613 98.1257 171.518 98.2067C171.424 98.2878 171.363 98.4003 171.345 98.5233L171.074 100.059L170.429 100.802L169.845 98.7178V96.0708L168.534 97.9754C168.18 98.4876 168.039 99.1172 168.14 99.7316L168.688 103.065L170.168 115.962C170.275 116.895 170.636 117.781 171.211 118.524C171.785 119.267 172.553 119.838 173.429 120.176L178.278 122.05L179.435 116.51Z" fill="#FFA8A7" style="fill:#FFA8A7;fill:color(display-p3 1.0000 0.6588 0.6549);fill-opacity:1;"/>
<path d="M189.322 186.321C189.157 186.701 188.886 187.026 188.542 187.256C188.198 187.487 187.795 187.614 187.381 187.622C186.555 187.624 185.733 187.519 184.934 187.309C183.116 186.982 181.35 187.309 179.542 187.263C178.946 187.268 178.352 187.203 177.771 187.069C177.178 186.94 176.641 186.628 176.235 186.178C176.008 185.905 175.858 185.576 175.8 185.226C175.761 185.49 175.78 185.759 175.855 186.015C175.931 186.272 176.06 186.509 176.235 186.71C176.641 187.16 177.178 187.472 177.771 187.601C178.352 187.735 178.946 187.8 179.542 187.796C181.36 187.837 183.126 187.514 184.934 187.842C185.733 188.052 186.555 188.157 187.381 188.154C187.795 188.146 188.198 188.019 188.542 187.789C188.886 187.558 189.157 187.234 189.322 186.854C189.4 186.581 189.421 186.295 189.383 186.014C189.373 186.118 189.352 186.221 189.322 186.321Z" fill="#455A64" style="fill:#455A64;fill:color(display-p3 0.2706 0.3529 0.3922);fill-opacity:1;"/>
<path d="M189.276 184.811L188.938 183.157C188.899 182.862 188.805 182.577 188.661 182.317C188.587 182.187 188.48 182.08 188.35 182.006C188.221 181.932 188.073 181.894 187.924 181.897C186.925 181.764 185.523 181.385 184.698 181.974C183.387 182.869 181.825 183.321 180.239 183.264C179.42 183.166 178.595 183.133 177.771 183.167C177.359 183.189 176.961 183.327 176.624 183.564C176.286 183.801 176.022 184.128 175.861 184.509C175.791 184.741 175.777 184.987 175.82 185.225C175.878 185.576 176.028 185.904 176.255 186.178C176.662 186.628 177.199 186.939 177.791 187.069C178.372 187.202 178.967 187.268 179.563 187.263C181.381 187.304 183.147 186.982 184.954 187.309C185.753 187.519 186.576 187.624 187.402 187.622C187.816 187.614 188.219 187.487 188.563 187.256C188.907 187.026 189.177 186.701 189.342 186.321C189.372 186.221 189.393 186.118 189.404 186.014C189.422 185.609 189.379 185.203 189.276 184.811Z" fill="#37474F" style="fill:#37474F;fill:color(display-p3 0.2157 0.2784 0.3098);fill-opacity:1;"/>
<path d="M184.453 180.238L184.386 182.394C184.379 182.614 184.457 182.828 184.604 182.992C184.75 183.156 184.955 183.257 185.174 183.274C185.897 183.334 186.623 183.334 187.345 183.274C187.638 183.248 187.911 183.117 188.115 182.905C188.319 182.694 188.44 182.416 188.456 182.122L188.543 180.53L184.453 180.238Z" fill="#FFA8A7" style="fill:#FFA8A7;fill:color(display-p3 1.0000 0.6588 0.6549);fill-opacity:1;"/>
<path d="M198.517 179.092C198.511 179.41 198.411 179.72 198.23 179.983C197.975 180.297 197.608 180.502 197.206 180.556C196.732 180.64 196.243 180.589 195.797 180.408C195.35 180.227 194.964 179.923 194.682 179.532C194.411 179.143 194.257 178.677 194.001 178.278C193.611 177.74 193.132 177.274 192.583 176.9C192.036 176.528 191.554 176.065 191.16 175.533C190.973 175.274 190.85 174.974 190.803 174.658C190.756 174.341 190.785 174.018 190.888 173.716C190.836 173.786 190.792 173.862 190.755 173.941C190.633 174.26 190.592 174.605 190.636 174.944C190.681 175.283 190.81 175.605 191.011 175.882C191.413 176.429 191.905 176.905 192.465 177.29C193.024 177.676 193.513 178.156 193.909 178.708C194.17 179.123 194.324 179.599 194.6 180.003C194.883 180.404 195.274 180.717 195.726 180.906C196.179 181.096 196.676 181.153 197.16 181.073C197.562 181.009 197.927 180.8 198.184 180.484C198.414 180.114 198.52 179.68 198.486 179.245C198.5 179.195 198.51 179.144 198.517 179.092Z" fill="#455A64" style="fill:#455A64;fill:color(display-p3 0.2706 0.3529 0.3922);fill-opacity:1;"/>
<path d="M197.867 176.414C197.212 175.267 195.86 174.433 194.821 173.619C194.249 173.125 193.546 172.807 192.798 172.702C192.425 172.658 192.047 172.726 191.712 172.897C191.377 173.069 191.101 173.336 190.919 173.665C190.917 173.685 190.917 173.706 190.919 173.726C190.816 174.029 190.787 174.352 190.834 174.668C190.881 174.984 191.003 175.284 191.19 175.544C191.585 176.076 192.066 176.538 192.614 176.911C193.162 177.285 193.642 177.751 194.032 178.288C194.288 178.687 194.442 179.153 194.713 179.542C194.995 179.933 195.381 180.237 195.828 180.418C196.274 180.599 196.763 180.651 197.237 180.566C197.639 180.513 198.005 180.307 198.261 179.993C198.442 179.73 198.541 179.421 198.548 179.102C198.548 179 198.548 178.897 198.548 178.795C198.522 177.957 198.288 177.139 197.867 176.414Z" fill="#37474F" style="fill:#37474F;fill:color(display-p3 0.2157 0.2784 0.3098);fill-opacity:1;"/>
<path d="M195.015 175.39V177.345C195.499 177.576 196.032 177.684 196.568 177.661C197.103 177.638 197.625 177.484 198.087 177.212L198.271 175.451L195.015 175.39Z" fill="#FFA8A7" style="fill:#FFA8A7;fill:color(display-p3 1.0000 0.6588 0.6549);fill-opacity:1;"/>
<path d="M198.768 139.873C199.357 141.639 198.635 150.005 198.292 158.033C199.567 161.069 199.224 169.681 198.486 175.8C198.486 175.8 197.217 176.583 194.902 175.8L192.015 158.904L191.61 149.36C191.61 149.36 190.888 157.828 190.074 163.261C190.858 167.418 190.663 168.202 188.728 180.996C188.056 181.334 187.314 181.509 186.562 181.509C185.81 181.509 185.068 181.334 184.396 180.996C183.306 163.02 183.705 146.636 183.915 140.748L198.768 139.873Z" fill="#455A64" style="fill:#455A64;fill:color(display-p3 0.2706 0.3529 0.3922);fill-opacity:1;"/>
<path opacity="0.3" d="M191.871 155.181L191.544 147.399C193.556 147.399 195.425 145.894 196.843 144.47C195.891 146.017 194.493 147.239 192.834 147.977L191.871 155.181Z" fill="black" style="fill:black;fill-opacity:1;"/>
<path d="M183.603 141.234C192.578 144.992 198.394 141.598 199.183 139.826C198.768 133.626 200.237 126.366 200.125 123.283C200.012 120.201 199.613 116.725 194.851 117.421L189.767 117.933L187.207 118.558L184.135 124.983L183.603 141.234Z" fill="#F7921E" style="fill:#F7921E;fill:color(display-p3 0.9686 0.5725 0.1176);fill-opacity:1;"/>
<path opacity="0.2" d="M183.603 141.234C192.578 144.992 198.394 141.598 199.183 139.826C198.768 133.626 200.237 126.366 200.125 123.283C200.012 120.201 199.613 116.725 194.851 117.421L189.767 117.933L187.207 118.558L184.135 124.983L183.603 141.234Z" fill="black" style="fill:black;fill-opacity:1;"/>
<path opacity="0.3" d="M183.603 141.234C192.578 144.992 198.394 141.598 199.183 139.826C198.768 133.626 200.237 126.366 200.125 123.283C200.012 120.201 199.613 116.725 194.851 117.421L189.767 117.933L187.207 118.558L184.135 124.983L183.603 141.234Z" fill="white" style="fill:white;fill-opacity:1;"/>
<path d="M194.851 114.974C195.031 114.986 195.211 114.963 195.382 114.905C195.552 114.847 195.71 114.755 195.845 114.636C195.949 114.523 196.024 114.387 196.065 114.24C196.106 114.092 196.111 113.936 196.08 113.786C196.231 113.757 196.372 113.691 196.492 113.595C196.611 113.498 196.706 113.374 196.766 113.233C196.812 113.076 196.821 112.91 196.794 112.749C196.766 112.588 196.702 112.435 196.607 112.301C196.828 112.248 197.035 112.147 197.212 112.004C197.389 111.862 197.532 111.682 197.631 111.477C197.732 111.27 197.789 111.044 197.797 110.814C197.804 110.583 197.764 110.354 197.678 110.141C197.919 110.078 198.14 109.954 198.319 109.781C198.499 109.608 198.63 109.391 198.702 109.152C198.779 108.906 198.794 108.644 198.744 108.391C198.694 108.138 198.581 107.901 198.415 107.703C198.614 107.424 198.736 107.097 198.768 106.755C198.801 106.414 198.742 106.07 198.599 105.758C198.441 105.442 198.205 105.173 197.913 104.975C197.62 104.778 197.282 104.66 196.93 104.631C196.976 104.3 196.941 103.963 196.826 103.649C196.712 103.335 196.523 103.053 196.275 102.829C196.023 102.617 195.721 102.472 195.397 102.409C195.074 102.345 194.74 102.365 194.426 102.466C194.312 102.188 194.129 101.943 193.895 101.755C193.66 101.567 193.382 101.442 193.086 101.391C192.789 101.34 192.485 101.364 192.201 101.463C191.917 101.561 191.663 101.73 191.462 101.954C191.315 101.788 191.129 101.661 190.921 101.584C190.712 101.507 190.489 101.483 190.269 101.513C190.044 101.535 189.828 101.612 189.639 101.736C189.45 101.86 189.293 102.028 189.183 102.225C188.9 102.098 188.589 102.046 188.28 102.073C187.971 102.1 187.674 102.206 187.417 102.38C187.16 102.555 186.953 102.792 186.814 103.07C186.675 103.347 186.609 103.656 186.623 103.966C186.398 104.035 186.2 104.176 186.062 104.367C185.923 104.558 185.851 104.79 185.855 105.026C185.874 105.269 185.97 105.5 186.129 105.684C186.289 105.868 186.503 105.997 186.741 106.05C187.191 108.482 187.995 110.834 189.127 113.033C189.639 114.016 190.248 115.01 191.226 115.517C192.204 116.023 193.945 115.757 194.851 114.974Z" fill="#455A64" style="fill:#455A64;fill:color(display-p3 0.2706 0.3529 0.3922);fill-opacity:1;"/>
<path d="M194.851 114.974C195.031 114.986 195.211 114.963 195.382 114.905C195.552 114.847 195.71 114.755 195.845 114.636C195.949 114.523 196.024 114.387 196.065 114.24C196.106 114.092 196.111 113.936 196.08 113.786C196.231 113.757 196.372 113.691 196.492 113.595C196.611 113.498 196.706 113.374 196.766 113.233C196.812 113.076 196.821 112.91 196.794 112.749C196.766 112.588 196.702 112.435 196.607 112.301C196.828 112.248 197.035 112.147 197.212 112.004C197.389 111.862 197.532 111.682 197.631 111.477C197.732 111.27 197.789 111.044 197.797 110.814C197.804 110.583 197.764 110.354 197.678 110.141C197.919 110.078 198.14 109.954 198.319 109.781C198.499 109.608 198.63 109.391 198.702 109.152C198.779 108.906 198.794 108.644 198.744 108.391C198.694 108.138 198.581 107.901 198.415 107.703C198.614 107.424 198.736 107.097 198.768 106.755C198.801 106.414 198.742 106.07 198.599 105.758C198.441 105.442 198.205 105.173 197.913 104.975C197.62 104.778 197.282 104.66 196.93 104.631C196.976 104.3 196.941 103.963 196.826 103.649C196.712 103.335 196.523 103.053 196.275 102.829C196.023 102.617 195.721 102.472 195.397 102.409C195.074 102.345 194.74 102.365 194.426 102.466C194.312 102.188 194.129 101.943 193.895 101.755C193.66 101.567 193.382 101.442 193.086 101.391C192.789 101.34 192.485 101.364 192.201 101.463C191.917 101.561 191.663 101.73 191.462 101.954C191.315 101.788 191.129 101.661 190.921 101.584C190.712 101.507 190.489 101.483 190.269 101.513C190.044 101.535 189.828 101.612 189.639 101.736C189.45 101.86 189.293 102.028 189.183 102.225C188.9 102.098 188.589 102.046 188.28 102.073C187.971 102.1 187.674 102.206 187.417 102.38C187.16 102.555 186.953 102.792 186.814 103.07C186.675 103.347 186.609 103.656 186.623 103.966C186.398 104.035 186.2 104.176 186.062 104.367C185.923 104.558 185.851 104.79 185.855 105.026C185.874 105.269 185.97 105.5 186.129 105.684C186.289 105.868 186.503 105.997 186.741 106.05C187.191 108.482 187.995 110.834 189.127 113.033C189.639 114.016 190.248 115.01 191.226 115.517C192.204 116.023 193.945 115.757 194.851 114.974Z" fill="#F7921E" style="fill:#F7921E;fill:color(display-p3 0.9686 0.5725 0.1176);fill-opacity:1;"/>
<path opacity="0.7" d="M194.851 114.974C195.031 114.986 195.211 114.963 195.382 114.905C195.552 114.847 195.71 114.755 195.845 114.636C195.949 114.523 196.024 114.387 196.065 114.24C196.106 114.092 196.111 113.936 196.08 113.786C196.231 113.757 196.372 113.691 196.492 113.595C196.611 113.498 196.706 113.374 196.766 113.233C196.812 113.076 196.821 112.91 196.794 112.749C196.766 112.588 196.702 112.435 196.607 112.301C196.828 112.248 197.035 112.147 197.212 112.004C197.389 111.862 197.532 111.682 197.631 111.477C197.732 111.27 197.789 111.044 197.797 110.814C197.804 110.583 197.764 110.354 197.678 110.141C197.919 110.078 198.14 109.954 198.319 109.781C198.499 109.608 198.63 109.391 198.702 109.152C198.779 108.906 198.794 108.644 198.744 108.391C198.694 108.138 198.581 107.901 198.415 107.703C198.614 107.424 198.736 107.097 198.768 106.755C198.801 106.414 198.742 106.07 198.599 105.758C198.441 105.442 198.205 105.173 197.913 104.975C197.62 104.778 197.282 104.66 196.93 104.631C196.976 104.3 196.941 103.963 196.826 103.649C196.712 103.335 196.523 103.053 196.275 102.829C196.023 102.617 195.721 102.472 195.397 102.409C195.074 102.345 194.74 102.365 194.426 102.466C194.312 102.188 194.129 101.943 193.895 101.755C193.66 101.567 193.382 101.442 193.086 101.391C192.789 101.34 192.485 101.364 192.201 101.463C191.917 101.561 191.663 101.73 191.462 101.954C191.315 101.788 191.129 101.661 190.921 101.584C190.712 101.507 190.489 101.483 190.269 101.513C190.044 101.535 189.828 101.612 189.639 101.736C189.45 101.86 189.293 102.028 189.183 102.225C188.9 102.098 188.589 102.046 188.28 102.073C187.971 102.1 187.674 102.206 187.417 102.38C187.16 102.555 186.953 102.792 186.814 103.07C186.675 103.347 186.609 103.656 186.623 103.966C186.398 104.035 186.2 104.176 186.062 104.367C185.923 104.558 185.851 104.79 185.855 105.026C185.874 105.269 185.97 105.5 186.129 105.684C186.289 105.868 186.503 105.997 186.741 106.05C187.191 108.482 187.995 110.834 189.127 113.033C189.639 114.016 190.248 115.01 191.226 115.517C192.204 116.023 193.945 115.757 194.851 114.974Z" fill="black" style="fill:black;fill-opacity:1;"/>
<path d="M186.383 109.245L185.333 111.072L186.485 111.497L186.383 109.245Z" fill="#F28F8F" style="fill:#F28F8F;fill:color(display-p3 0.9490 0.5608 0.5608);fill-opacity:1;"/>
<path d="M186.746 106.055C186.048 108.589 185.945 111.251 186.444 113.832C186.501 114.277 186.668 114.702 186.931 115.066C187.278 115.439 187.758 115.659 188.267 115.68C188.771 115.699 189.276 115.651 189.767 115.537V117.918C191.574 118.343 193.433 118.512 194.851 117.406V114.974C193.833 115.3 192.749 115.368 191.697 115.173C190.448 114.498 190.197 112.214 190.371 111.615C190.483 111.761 190.635 111.871 190.809 111.932C190.983 111.993 191.17 112.002 191.349 111.958C191.52 111.91 191.68 111.828 191.819 111.717C191.958 111.606 192.073 111.469 192.158 111.313C192.327 110.995 192.429 110.647 192.46 110.289C192.551 109.862 192.486 109.417 192.276 109.035C192.117 108.82 191.897 108.66 191.644 108.575C191.391 108.49 191.119 108.484 190.863 108.558C190.35 108.72 189.922 109.077 189.67 109.552C189.591 109.699 189.52 109.851 189.46 110.007C189.439 110.069 189.398 110.122 189.343 110.156C189.288 110.191 189.223 110.206 189.159 110.198C189.094 110.19 189.035 110.16 188.99 110.113C188.945 110.066 188.917 110.005 188.912 109.941C188.85 109.255 188.974 108.565 189.27 107.944C189.064 107.923 188.864 107.857 188.687 107.748C188.51 107.64 188.359 107.494 188.246 107.319C188.127 107.157 188.047 106.97 188.012 106.772C187.978 106.574 187.99 106.37 188.047 106.178C187.609 106.21 187.17 106.168 186.746 106.055Z" fill="#FFA8A7" style="fill:#FFA8A7;fill:color(display-p3 1.0000 0.6588 0.6549);fill-opacity:1;"/>
<path d="M193.069 90.9098L192.235 88.9181L191.815 87.0288C191.794 86.9114 191.815 86.7903 191.874 86.6865C191.933 86.5828 192.026 86.5028 192.138 86.4605C192.259 86.4276 192.387 86.4401 192.5 86.4958C192.612 86.5515 192.7 86.6464 192.747 86.7626L193.1 87.7866V84.8887L194.309 87.0544C194.489 87.379 194.569 87.7495 194.539 88.1194L194.36 90.28L193.069 90.9098Z" fill="#FFA8A7" style="fill:#FFA8A7;fill:color(display-p3 1.0000 0.6588 0.6549);fill-opacity:1;"/>
<path d="M187.202 118.558C184.34 117.611 179.245 116.075 179.245 116.075C176.962 118.379 177.157 122.101 177.157 122.101L184.094 124.989C190.714 127.067 191.682 120.022 187.202 118.558Z" fill="#F7921E" style="fill:#F7921E;fill:color(display-p3 0.9686 0.5725 0.1176);fill-opacity:1;"/>
<path opacity="0.3" d="M187.202 118.558C184.34 117.611 179.245 116.075 179.245 116.075C176.962 118.379 177.157 122.101 177.157 122.101L184.094 124.989C190.714 127.067 191.682 120.022 187.202 118.558Z" fill="black" style="fill:black;fill-opacity:1;"/>
<path opacity="0.3" d="M187.202 118.558C184.34 117.611 179.245 116.075 179.245 116.075C176.962 118.379 177.157 122.101 177.157 122.101L184.094 124.989C190.714 127.067 191.682 120.022 187.202 118.558Z" fill="white" style="fill:white;fill-opacity:1;"/>
</svg>
