<svg xmlns="http://www.w3.org/2000/svg" width="263" height="256" fill="none"><path stroke="#D5D5D5" d="M47.06 222.837c-22.474-11.768-33.56-27.116-33.56-42.333s11.084-30.568 33.56-42.341C69.524 126.397 99 120.5 128.502 120.5c29.503 0 58.977 5.897 81.439 17.663 22.473 11.773 33.558 27.122 33.559 42.337s-11.083 30.564-33.559 42.337C187.476 234.603 158.002 240.5 128.5 240.5s-58.976-5.897-81.44-17.663Z" style="stroke:#d5d5d5;stroke:color(display-p3 .8353 .8353 .8353);stroke-opacity:1"/><mask id="a" width="263" height="256" x="0" y="0" maskUnits="userSpaceOnUse" style="mask-type:luminance"><path fill="#fff" d="M262.609 0H.5v256h262.109z" style="fill:#fff;fill-opacity:1"/></mask><g mask="url(#a)"><path fill="#37474F" d="M132.651 183.574 122.605 36.256c-.245-3.578-2.229-4.526-3.997-5.403s-4.61-1.372-6.944 0l-59.748 34.47c-2.334 1.349-4.082 4.545-3.903 7.138l10.04 147.314c.18 2.592 2.037 4.082 3.805 4.959s4.804 1.815 7.138.472l59.752-34.513c2.333-1.335 4.149-3.512 3.903-7.119" style="fill:#37474f;fill:color(display-p3 .2157 .2784 .3098);fill-opacity:1"/><path fill="#263238" d="m128.795 184.975-61.44 35.469L57.29 72.527l-8.269-4.101a7.6 7.6 0 0 0-1.008 4.035l10.04 147.314c.18 2.593 2.037 4.082 3.805 4.959s4.804 1.815 7.138.472l59.752-34.513a7.47 7.47 0 0 0 3.526-4.007l-.255-.127z" style="fill:#263238;fill:color(display-p3 .149 .1961 .2196);fill-opacity:1"/><path fill="#455A64" d="M118.037 35.148 58.12 69.745c-1.636.943-2.866 3.192-2.743 5.002l9.965 146.188c.189 2.781 2.4 3.874 4.908 2.427l58.323-33.674c1.849-1.069 3.249-3.615 3.107-5.656L121.653 36.949c-.155-2.06-1.782-2.866-3.616-1.801" style="fill:#455a64;fill:color(display-p3 .2706 .3529 .3922);fill-opacity:1"/><path fill="#000" d="m119.055 43.61 9.354 137.183c.131 1.957-1.194 4.385-2.952 5.393l-54.015 31.18c-1.763 1.022-3.3.259-3.432-1.702L58.582 77.538a6.34 6.34 0 0 1 2.008-4.676c.099-.095.193-.184.297-.27q.306-.245.646-.442l15.194-8.774.99-.57c.546-.316 1.023-.085 1.065.528s.547.83 1.131.471L97.62 53.58a2.04 2.04 0 0 0 .985-1.706 2.02 2.02 0 0 1 .81-1.617l.105-.061 14.864-8.58.316-.184c2.233-1.263 4.186-.297 4.355 2.178" style="fill:#000;fill-opacity:1"/><path fill="#263238" d="m126.136 179.378-9.353-137.183a3.8 3.8 0 0 0-.307-1.301 3.9 3.9 0 0 0-1.767.561l-.316.184-14.864 8.57-.104.062a2.01 2.01 0 0 0-.81 1.617 2.05 2.05 0 0 1-.986 1.706L79.923 63.82c-.585.34-1.094.113-1.132-.471-.037-.585-.518-.844-1.065-.528l-.99.57-15.194 8.773q-.34.198-.646.444-.15.127-.297.268a6.34 6.34 0 0 0-2.008 4.677l9.428 138.125q.02.354.118.694a3.5 3.5 0 0 0 1.042-.406l54.02-31.189c1.745-1.023 3.069-3.451 2.937-5.398" style="fill:#263238;fill:color(display-p3 .149 .1961 .2196);fill-opacity:1"/><path fill="#263238" d="m82.36 58.568 8.118-4.686c.471-.278.905-.099.943.406a1.7 1.7 0 0 1-.816 1.414l-8.118 4.686c-.471.278-.905.094-.942-.41a1.69 1.69 0 0 1 .815-1.41M94.617 51.106c.547-.316 1.023-.076 1.06.528a1.97 1.97 0 0 1-.91 1.668c-.546.316-1.022.08-1.064-.527a1.96 1.96 0 0 1 .914-1.67" style="fill:#263238;fill:color(display-p3 .149 .1961 .2196);fill-opacity:1"/><path fill="#455A64" d="M54.905 89.04a3.6 3.6 0 0 0-1.806-2.682 1.15 1.15 0 0 0-1.117-.066c-.198.118-.971.552-1.174.674a1.09 1.09 0 0 0-.429 1.075l.778 11.343a3.57 3.57 0 0 0 1.824 2.682 1.18 1.18 0 0 0 1.075.085c.217-.113 1.004-.571 1.212-.688a1.11 1.11 0 0 0 .429-1.08z" style="fill:#455a64;fill:color(display-p3 .2706 .3529 .3922);fill-opacity:1"/><path fill="#37474F" d="m53.74 89.71.774 11.342c.07 1.014-.622 1.485-1.532 1.014a3.57 3.57 0 0 1-1.806-2.683l-.778-11.342c-.066-1.018.627-1.475 1.556-1.014a3.58 3.58 0 0 1 1.787 2.683" style="fill:#37474f;fill:color(display-p3 .2157 .2784 .3098);fill-opacity:1"/><path fill="#455A64" d="M56.282 108.892a3.58 3.58 0 0 0-1.806-2.682 1.15 1.15 0 0 0-1.117-.062c-.198.118-.943.547-1.174.67a1.08 1.08 0 0 0-.424 1.075l.75 11.347a3.6 3.6 0 0 0 1.805 2.682 1.18 1.18 0 0 0 1.08.081 52 52 0 0 0 1.206-.689 1.09 1.09 0 0 0 .43-1.079z" style="fill:#455a64;fill:color(display-p3 .2706 .3529 .3922);fill-opacity:1"/><path fill="#37474F" d="m55.093 109.561.778 11.361c.066 1.024-.627 1.476-1.556 1.019a3.6 3.6 0 0 1-1.805-2.682l-.773-11.347c-.071-1.019.622-1.476 1.55-1.014a3.58 3.58 0 0 1 1.806 2.663" style="fill:#37474f;fill:color(display-p3 .2157 .2784 .3098);fill-opacity:1"/><path fill="#FAFAFA" d="M68.764 77.552v-.08l-.028-.396-.646.372c-.033 0-.056 0-.056-.051v-.147a.2.2 0 0 1 0-.075.4.4 0 0 1 0-.08l.584-1.815a1 1 0 0 1 .033-.07.1.1 0 0 1 .043-.038l.09-.052h.06c.015 0 0 .042 0 .09l.095 1.385.141-.085h.061q.01.045 0 .09v.094a.2.2 0 0 1 0 .1.14.14 0 0 1-.056.06l-.142.08.029.397a.2.2 0 0 1 0 .099.13.13 0 0 1-.057.066l-.108.06c-.014-.004-.033-.004-.043-.004m-.033-.839-.066-.985-.4 1.254zM69.51 76.859a1.3 1.3 0 0 1-.25-.802 2.3 2.3 0 0 1 .126-1.023c.092-.264.274-.488.514-.631a.7.7 0 0 1 .26-.1.3.3 0 0 1 .212 0 .04.04 0 0 1 0 .034.2.2 0 0 1 0 .047l-.047.207a.07.07 0 0 1 0 .047h-.029a.4.4 0 0 0-.334.062.78.78 0 0 0-.35.433c-.084.242-.115.5-.089.755-.007.216.056.43.18.608a.27.27 0 0 0 .362 0 .7.7 0 0 0 .16-.113 1 1 0 0 0 .123-.137l-.047-.646-.269.156h-.056a.15.15 0 0 1-.024-.085v-.094a.2.2 0 0 1 0-.1.16.16 0 0 1 .052-.06l.42-.222h.07a.16.16 0 0 1 .024.099l.066.919a.5.5 0 0 1 0 .085.2.2 0 0 1 0 .061 1.3 1.3 0 0 1-.495.495.43.43 0 0 1-.58.005M74.935 73.578a.9.9 0 0 1-.34.773c-.202.118-.39-.033-.41-.34a.9.9 0 0 1 .335-.773c.208-.117.392.033.415.34" style="fill:#fafafa;fill:color(display-p3 .9804 .9804 .9804);fill-opacity:1"/><path fill="#FAFAFA" d="M74.459 72.334a2.03 2.03 0 0 0-.816 1.277c-.028.113 0 .217.057.25.08.042.18-.047.217-.193.065-.363.27-.687.57-.9a.44.44 0 0 1 .65.192c.053.095.161.067.227-.056a.35.35 0 0 0 0-.297.62.62 0 0 0-.905-.273" style="fill:#fafafa;fill:color(display-p3 .9804 .9804 .9804);fill-opacity:1"/><path fill="#FAFAFA" d="M74.398 71.447a3.2 3.2 0 0 0-1.259 1.858.25.25 0 0 0 .047.278c.071.037.17-.047.208-.184.151-.611.52-1.146 1.037-1.504a.8.8 0 0 1 1.15.26c.052.084.156.056.217-.067a.33.33 0 0 0 0-.31.985.985 0 0 0-1.4-.33M85.721 66.022a.12.12 0 0 1 0-.066.3.3 0 0 1 .024-.08l.471-.943.038-.066a.2.2 0 0 1 .042-.043l.194-.113a.05.05 0 0 1 .051 0 .1.1 0 0 1 .024.061l.16 2.357a.2.2 0 0 1 0 .08.12.12 0 0 1-.047.057l-.198.118a.04.04 0 0 1-.052 0s0-.028-.023-.057l-.123-1.81-.325.608a.07.07 0 0 1-.047.047.038.038 0 0 1-.047 0zM86.975 65.295a.1.1 0 0 1 0-.066.16.16 0 0 1 .024-.08l.471-.943.043-.066a.1.1 0 0 1 .042-.047l.193-.109h.047a.08.08 0 0 1 .024.057l.165 2.357a.2.2 0 0 1 0 .08.12.12 0 0 1-.047.057l-.203.113a.04.04 0 0 1-.023.008.04.04 0 0 1-.024-.008.08.08 0 0 1-.023-.057l-.123-1.81-.325.608s-.028.043-.047.047a.04.04 0 0 1-.048 0zM88.611 64.249a.04.04 0 0 1 .047 0 .09.09 0 0 1 .028.061v.358a.2.2 0 0 1 0 .08.12.12 0 0 1-.047.057l-.23.132a.04.04 0 0 1-.048 0 .08.08 0 0 1 0-.061l-.028-.358a.2.2 0 0 1 0-.08.1.1 0 0 1 .042-.057zm.09 1.282a.04.04 0 0 1 .047 0 .08.08 0 0 1 0 .061l.023.359a.12.12 0 0 1-.042.136l-.231.132a.037.037 0 0 1-.052 0 .1.1 0 0 1-.023-.056V65.8a.3.3 0 0 1 0-.08.12.12 0 0 1 .047-.057zM90.058 65.323a.04.04 0 0 1-.047 0 .1.1 0 0 1-.028-.056l-.028-.472-.769.444a.04.04 0 0 1-.047 0 .08.08 0 0 1 0-.057v-.264a.2.2 0 0 1 0-.099c0-.028 0-.066.033-.104l.66-1.838a.27.27 0 0 1 .094-.146l.189-.109a.037.037 0 0 1 .052 0 .07.07 0 0 1 .023.057l.1 1.466.211-.123a.04.04 0 0 1 .052 0 .07.07 0 0 1 .024.057v.26a.3.3 0 0 1 0 .084.13.13 0 0 1-.047.052l-.212.127.028.443a.13.13 0 0 1 0 .08.095.095 0 0 1-.047.057zm-.136-.942-.052-.783-.368 1.028zM90.883 62.283a.3.3 0 0 1 0-.08.12.12 0 0 1 .047-.057l.943-.537a.04.04 0 0 1 .052 0 .07.07 0 0 1 0 .057v.259a.2.2 0 0 1 0 .08.12.12 0 0 1-.047.056l-.693.401v.472a.6.6 0 0 1 .127-.123l.109-.07a.7.7 0 0 1 .259-.095.37.37 0 0 1 .217.047c.069.046.123.112.155.189q.065.16.071.335.033.214 0 .428a1.3 1.3 0 0 1-.118.354 1 1 0 0 1-.198.278 1 1 0 0 1-.245.193.9.9 0 0 1-.297.114.36.36 0 0 1-.217-.043.4.4 0 0 1-.136-.16.8.8 0 0 1-.062-.25.16.16 0 0 1 0-.08.12.12 0 0 1 .047-.057l.203-.113a.04.04 0 0 1 .047 0 .07.07 0 0 1 .028.047q.015.064.057.114.034.033.08.042a.2.2 0 0 0 .1 0 1 1 0 0 0 .108-.052.54.54 0 0 0 .221-.245.8.8 0 0 0 .066-.363.27.27 0 0 0-.108-.222.22.22 0 0 0-.236 0 1 1 0 0 0-.113.085l-.07.08a.4.4 0 0 1-.048.066.15.15 0 0 1-.056.052l-.227.132a.04.04 0 0 1-.047 0 .07.07 0 0 1 0-.056zM61.665 81.946l-.052-.764.688-.396.052.764zM62.697 81.352l-.104-1.528.689-.396.103 1.528zM63.73 80.758l-.16-2.296.687-.396.16 2.296zM64.763 80.159l-.213-3.055.689-.396.207 3.055zM114.511 48.843a.2.2 0 0 0-.114-.068.2.2 0 0 0-.132.02l-2.569 1.476a.9.9 0 0 0-.259.759l.099 1.386c0 .16.051.315.146.443q.046.06.113.09a.19.19 0 0 0 .156 0l2.569-1.48a.89.89 0 0 0 .217-.788l-.08-1.414a.8.8 0 0 0-.146-.424m-2.791 3.813a.35.35 0 0 1-.056-.202l-.099-1.415a.68.68 0 0 1 .197-.575l2.57-1.48a.1.1 0 0 1 .042-.009q.022 0 .042.009a.07.07 0 0 1 .034.028c.04.06.059.131.056.203l.099 1.386a.7.7 0 0 1-.198.58l-2.57 1.475a.1.1 0 0 1-.026.02.08.08 0 0 1-.091-.02" style="fill:#fafafa;fill:color(display-p3 .9804 .9804 .9804);fill-opacity:1"/><path fill="#FAFAFA" d="m112.266 50.446.114 1.65-.406.23a.06.06 0 0 1-.052-.001.1.1 0 0 1-.021-.016.1.1 0 0 1-.011-.025l-.085-1.22a.53.53 0 0 1 .146-.43zM112.456 50.342l.481-.279.113 1.641-.481.278zM113.125 49.955l.481-.278.113 1.65-.48.274zM114.266 49.404l.08 1.183a.57.57 0 0 1-.297.537l-.165.094-.09-1.645.383-.221a.07.07 0 0 1 .054.008q.026.015.035.044M114.737 49.24c.07-.043.146.155.165.438v.259c.024.287 0 .556-.095.603l-.127.09-.085-1.315zM107.538 53.595l2.447-2.188-.584 3.145-.467-1.292z" style="fill:#fafafa;fill:color(display-p3 .9804 .9804 .9804);fill-opacity:1"/><path fill="#fff" d="M79.56 106.535a1 1 0 0 1 0-.231 2 2 0 0 1 .052-.17l2.05-6.468a4.1 4.1 0 0 1-1.919.618 2.6 2.6 0 0 1-1.598-.434A3.4 3.4 0 0 1 77 98.398a6.9 6.9 0 0 1-.552-2.432 10.5 10.5 0 0 1 .189-2.89c.184-.913.481-1.8.886-2.64a9.7 9.7 0 0 1 1.457-2.197 7.6 7.6 0 0 1 1.885-1.555 4.46 4.46 0 0 1 1.943-.646 2.58 2.58 0 0 1 1.63.415c.522.368.926.879 1.165 1.47.333.78.521 1.614.556 2.461a9 9 0 0 1 0 1.523q-.07.728-.221 1.443c-.099.47-.217.942-.344 1.371s-.255.877-.391 1.287l-2.923 9.184c-.043.136-.1.287-.165.471a.83.83 0 0 1-.363.401l-1.631.942a.29.29 0 0 1-.363 0 .592.592 0 0 1-.198-.471m-.627-12.012c.066 1.004.344 1.64.825 1.91.48.268 1.075.207 1.763-.194a4.28 4.28 0 0 0 1.654-1.791 5 5 0 0 0 .514-2.673q-.1-1.484-.83-1.914-.726-.43-1.762.165a4.24 4.24 0 0 0-1.65 1.806 5.03 5.03 0 0 0-.514 2.691M87.296 89.573a.68.68 0 0 1-.137-.471c.005-.208.059-.411.156-.594l3.63-6.878c.09-.165.18-.325.278-.472a.94.94 0 0 1 .325-.344L92.963 80a.29.29 0 0 1 .358 0 .6.6 0 0 1 .179.429l1.188 17.395c.012.205-.025.41-.109.599a.85.85 0 0 1-.33.41l-1.47.853a.29.29 0 0 1-.358 0 .56.56 0 0 1-.184-.424l-.905-13.294-2.357 4.478a.68.68 0 0 1-.345.354.33.33 0 0 1-.353-.09zM95.579 84.789a.69.69 0 0 1-.137-.472c.005-.207.058-.41.156-.594l3.63-6.873c.09-.165.179-.325.278-.472a.94.94 0 0 1 .325-.34l1.414-.82a.3.3 0 0 1 .363 0 .59.59 0 0 1 .179.425l1.165 17.376c.012.204-.025.408-.109.594a.84.84 0 0 1-.33.415l-1.471.849a.285.285 0 0 1-.363 0 .6.6 0 0 1-.179-.43l-.904-13.288-2.358 4.473a.7.7 0 0 1-.344.354.32.32 0 0 1-.354-.09zM72.78 124.576a.06.06 0 0 1 .038-.013q.021 0 .038.013a.1.1 0 0 1 .033.085v.198a.2.2 0 0 1-.023.118.14.14 0 0 1-.067.085l-1.485.857a.06.06 0 0 1-.037.013.06.06 0 0 1-.038-.013.106.106 0 0 1-.033-.084l-.24-3.522a.2.2 0 0 1 .023-.118.14.14 0 0 1 .066-.085l1.457-.843a.05.05 0 0 1 .035-.013q.02 0 .036.013a.1.1 0 0 1 .027.038q.01.023.01.046v.199q.015.058 0 .117a.16.16 0 0 1-.066.085l-1.207.698.08 1.15 1.123-.65a.06.06 0 0 1 .037-.013q.021 0 .038.013a.14.14 0 0 1 .038.084v.199a.3.3 0 0 1 0 .117.16.16 0 0 1-.07.085l-1.123.65.08 1.194zM73.507 122.035c0-.056.042-.113.066-.175q.039-.093.094-.179.058-.087.128-.165.081-.077.179-.137a.55.55 0 0 1 .382-.089.41.41 0 0 1 .254.218q.041-.127.09-.246.044-.117.113-.221a1 1 0 0 1 .155-.199q.094-.09.208-.155c.25-.142.438-.137.566 0 .154.239.234.517.23.801l.104 1.509a.4.4 0 0 1-.023.122.2.2 0 0 1-.066.086l-.137.075a.06.06 0 0 1-.075 0 .14.14 0 0 1-.038-.09l-.1-1.452a.94.94 0 0 0-.15-.556c-.08-.089-.193-.095-.34 0a.73.73 0 0 0-.296.372c-.077.21-.105.434-.08.656l.098 1.494q.015.058 0 .118a.16.16 0 0 1-.07.084l-.137.081a.06.06 0 0 1-.035.012.06.06 0 0 1-.036-.012.1.1 0 0 1-.027-.038.1.1 0 0 1-.01-.047l-.1-1.456a1 1 0 0 0-.15-.552q-.127-.141-.34 0a.73.73 0 0 0-.301.373c-.075.209-.1.433-.076.654l.1 1.494a.23.23 0 0 1 0 .123.14.14 0 0 1-.067.081l-.137.08a.1.1 0 0 1-.035.01.1.1 0 0 1-.035-.01.124.124 0 0 1-.038-.09l-.174-2.536a.4.4 0 0 1 0-.122.17.17 0 0 1 .052-.085l.136-.08a.06.06 0 0 1 .038-.013q.02 0 .038.013.016.017.025.041a.1.1 0 0 1 .008.048zM76.416 121.22a2.4 2.4 0 0 1 .193-.991 2 2 0 0 1 .24-.4q.136-.175.326-.288a.7.7 0 0 1 .363-.108.43.43 0 0 1 .283.122.8.8 0 0 1 .198.34q.086.262.099.538v.146a.3.3 0 0 1 0 .122.17.17 0 0 1-.071.08l-1.263.731v.033a.66.66 0 0 0 .193.472.32.32 0 0 0 .377 0 .9.9 0 0 0 .297-.26q.09-.133.15-.283a1 1 0 0 1 .048-.089.3.3 0 0 1 .066-.057l.108-.062a.1.1 0 0 1 .038-.01q.02 0 .038.01a.1.1 0 0 1 .03.041.1.1 0 0 1 .003.05 1 1 0 0 1-.047.249q-.046.162-.132.307a1.67 1.67 0 0 1-.566.575.63.63 0 0 1-.34.094.47.47 0 0 1-.273-.113.8.8 0 0 1-.203-.293 1.6 1.6 0 0 1-.113-.447 3 3 0 0 1-.042-.509m.325-.175 1.037-.594a.58.58 0 0 0-.174-.471.335.335 0 0 0-.392 0 .7.7 0 0 0-.198.165 1.2 1.2 0 0 0-.245.537 1.5 1.5 0 0 0 0 .326zM79.442 118.278a.06.06 0 0 1 .038-.013q.02 0 .037.013a.14.14 0 0 1 .038.089v.171a.2.2 0 0 1 0 .121.16.16 0 0 1-.066.086l-.212.122a.85.85 0 0 0-.382.873l.109 1.588a.3.3 0 0 1 0 .123.2.2 0 0 1-.071.085l-.137.075a.06.06 0 0 1-.035.012.06.06 0 0 1-.035-.012.121.121 0 0 1-.038-.089l-.17-2.537a.3.3 0 0 1 0-.123.2.2 0 0 1 .066-.084l.137-.076a.06.06 0 0 1 .075 0 .15.15 0 0 1 .038.09v.165a1.2 1.2 0 0 1 .16-.34.8.8 0 0 1 .264-.23zM79.81 119.352a3 3 0 0 1 .042-.584q.045-.264.151-.509a1.8 1.8 0 0 1 .24-.405q.134-.166.317-.274a.52.52 0 0 1 .372-.094.43.43 0 0 1 .221.136v-.169a.3.3 0 0 1 0-.123.17.17 0 0 1 .071-.08l.137-.08a.1.1 0 0 1 .035-.01q.02 0 .036.01a.122.122 0 0 1 .038.09l.178 2.649c.03.348-.022.699-.155 1.023-.12.302-.342.553-.627.711a1 1 0 0 1-.382.142.55.55 0 0 1-.273-.047.5.5 0 0 1-.17-.175.7.7 0 0 1-.07-.24.2.2 0 0 1 0-.123.18.18 0 0 1 .065-.08l.109-.065a.07.07 0 0 1 .07 0s.043.037.062.084l.042.071q.031.047.085.066a.3.3 0 0 0 .146 0 .7.7 0 0 0 .222-.085q.122-.072.226-.17a.94.94 0 0 0 .278-.509 1.5 1.5 0 0 0 0-.358v-.339a1.7 1.7 0 0 1-.193.377c-.09.133-.212.243-.354.32a.6.6 0 0 1-.325.094.44.44 0 0 1-.278-.103.75.75 0 0 1-.203-.307 1.7 1.7 0 0 1-.113-.471 2 2 0 0 1 0-.174 1.4 1.4 0 0 0 0-.199m1.414-.824a.72.72 0 0 0-.198-.509.32.32 0 0 0-.391 0 .85.85 0 0 0-.363.447c-.088.227-.127.47-.113.712v.307a.85.85 0 0 0 .198.527.3.3 0 0 0 .396 0 .86.86 0 0 0 .363-.429 1.5 1.5 0 0 0 .118-.683v-.198a2 2 0 0 0-.02-.174zM82.006 117.99q.001-.261.052-.519a2.6 2.6 0 0 1 .146-.471 1.8 1.8 0 0 1 .24-.405q.136-.172.326-.283a.67.67 0 0 1 .382-.103.4.4 0 0 1 .283.122.8.8 0 0 1 .198.335q.085.264.099.542v.146a.2.2 0 0 1-.024.117.14.14 0 0 1-.066.086l-1.263.73v.034a.64.64 0 0 0 .193.471.33.33 0 0 0 .377 0 .94.94 0 0 0 .297-.26q.09-.133.151-.282a.5.5 0 0 1 .047-.09.2.2 0 0 1 .066-.057l.109-.06a.06.06 0 0 1 .037-.013q.021 0 .038.013a.1.1 0 0 1 .03.039.1.1 0 0 1 .003.05 1 1 0 0 1-.047.249q-.051.161-.132.307a2 2 0 0 1-.231.307 1.4 1.4 0 0 1-.34.264.63.63 0 0 1-.334.099.48.48 0 0 1-.274-.113.9.9 0 0 1-.202-.293 1.5 1.5 0 0 1-.113-.448 3.4 3.4 0 0 1-.048-.514m.33-.174 1.038-.599a.59.59 0 0 0-.175-.471.33.33 0 0 0-.391 0 .8.8 0 0 0-.198.169q-.09.112-.151.241a1.2 1.2 0 0 0-.094.293 1.3 1.3 0 0 0 0 .324zM85.953 117.316a.3.3 0 0 1-.024.119.2.2 0 0 1-.066.084l-.137.081a.06.06 0 0 1-.037.012.06.06 0 0 1-.038-.012.13.13 0 0 1-.033-.085l-.099-1.415a.82.82 0 0 0-.18-.552c-.098-.084-.23-.08-.39 0a.9.9 0 0 0-.363.425 1.5 1.5 0 0 0-.1.707l.08 1.415q.016.06 0 .122a.14.14 0 0 1-.065.08l-.137.08a.06.06 0 0 1-.035.012.06.06 0 0 1-.036-.012.1.1 0 0 1-.028-.039.1.1 0 0 1-.01-.046l-.16-2.555a.4.4 0 0 1 0-.118.2.2 0 0 1 .066-.085l.137-.08a.06.06 0 0 1 .038-.013q.02 0 .037.013a.14.14 0 0 1 .038.085v.17q.07-.199.189-.372c.092-.135.215-.247.358-.326a.65.65 0 0 1 .325-.103.43.43 0 0 1 .269.094c.085.08.15.181.188.292q.08.229.095.472zM86.66 115.784q.015.175.089.335.044.107.137.179a.26.26 0 0 0 .17.052.35.35 0 0 0 .183-.057.8.8 0 0 0 .293-.273c.087-.134.146-.283.174-.439a.5.5 0 0 1 .047-.146.17.17 0 0 1 .066-.071l.109-.061a.05.05 0 0 1 .037-.014q.022 0 .038.014a.1.1 0 0 1 .033.089q.003.162-.038.316a1.7 1.7 0 0 1-.136.382 2 2 0 0 1-.24.377q-.151.178-.35.298a.7.7 0 0 1-.367.108.44.44 0 0 1-.283-.114.8.8 0 0 1-.198-.301 2 2 0 0 1-.1-.472 2 2 0 0 1 0-.212 1.2 1.2 0 0 1 0-.221 2.6 2.6 0 0 1 .18-1.009q.093-.227.245-.419c.095-.124.214-.229.349-.307a.7.7 0 0 1 .363-.109c.096 0 .191.026.273.076a.47.47 0 0 1 .175.198q.065.12.08.255.015.058 0 .117a.2.2 0 0 1-.066.085l-.113.066a.1.1 0 0 1-.036.008.1.1 0 0 1-.035-.008.3.3 0 0 1-.061-.089c-.057-.123-.127-.199-.217-.213a.43.43 0 0 0-.306.076.7.7 0 0 0-.18.151 1 1 0 0 0-.15.24q-.075.15-.104.316-.045.2-.038.405a2.4 2.4 0 0 0-.024.392M89.102 116.59a.6.6 0 0 1-.029.108.18.18 0 0 1-.07.085l-.151.085a.04.04 0 0 1-.03.012.04.04 0 0 1-.031-.012.1.1 0 0 1-.033-.08v-.038l.273-1.343-.891-1.975v-.034a.3.3 0 0 1 0-.108.17.17 0 0 1 .061-.075l.151-.085h.07a.2.2 0 0 1 .043.061l.693 1.528.448-2.183a.6.6 0 0 1 .033-.108.17.17 0 0 1 .066-.085l.151-.085a.06.06 0 0 1 .033-.011q.018 0 .033.011.03.031.033.075a.1.1 0 0 1 0 .042zM91.459 111.829v.471c0 .151.023.293.037.472 0 .229.084.45.236.622.127.123.302.118.523 0a1.1 1.1 0 0 0 .292-.236q.113-.129.189-.282.072-.147.104-.306.032-.155.047-.312 0-.06.033-.108a.13.13 0 0 1 .056-.067l.165-.099a.062.062 0 0 1 .061 0 .1.1 0 0 1 .023.033.1.1 0 0 1 .006.038q.01.217-.033.429-.046.262-.155.505a2 2 0 0 1-.297.471 1.5 1.5 0 0 1-.472.396.87.87 0 0 1-.434.137.56.56 0 0 1-.344-.122.84.84 0 0 1-.24-.345 2 2 0 0 1-.123-.547 21 21 0 0 1-.066-.971 2.84 2.84 0 0 1 .217-1.221q.118-.268.302-.494.178-.215.42-.359a.9.9 0 0 1 .47-.146.58.58 0 0 1 .34.132c.093.08.165.182.207.297q.075.17.09.354a.2.2 0 0 1 0 .098.14.14 0 0 1-.052.071l-.17.095a.1.1 0 0 1-.03.009.1.1 0 0 1-.03-.009.1.1 0 0 1-.044-.067 1.2 1.2 0 0 0-.084-.235.4.4 0 0 0-.137-.165.34.34 0 0 0-.212-.052.65.65 0 0 0-.302.104 1.13 1.13 0 0 0-.471.57 2 2 0 0 0-.123.839M93.594 112.315q-.016-.21.033-.415a1.7 1.7 0 0 1 .142-.373q.097-.176.231-.325.131-.15.283-.278l.509-.425v-.07c0-.184-.062-.302-.151-.345a.32.32 0 0 0-.316.038.63.63 0 0 0-.24.226 1.5 1.5 0 0 0-.128.293.24.24 0 0 1-.042.085.2.2 0 0 1-.071.057l-.108.066a.1.1 0 0 1-.038.013.1.1 0 0 1-.037-.013.1.1 0 0 1-.029-.039.1.1 0 0 1-.005-.047 1 1 0 0 1 .048-.282q.05-.163.136-.312.092-.158.217-.292.115-.13.264-.221a.8.8 0 0 1 .31-.104.37.37 0 0 1 .26.066c.08.064.142.15.18.245q.08.21.09.434l.112 1.659a.23.23 0 0 1 0 .123.2.2 0 0 1-.066.085l-.136.075a.1.1 0 0 1-.035.01.1.1 0 0 1-.036-.01.13.13 0 0 1-.038-.089v-.222a1 1 0 0 1-.09.24 1.4 1.4 0 0 1-.334.415 1.3 1.3 0 0 1-.179.137.7.7 0 0 1-.27.09.4.4 0 0 1-.21-.042.4.4 0 0 1-.147-.171.7.7 0 0 1-.11-.282m.698-.09a.9.9 0 0 0 .236-.202q.108-.125.178-.274.075-.156.105-.326a1.3 1.3 0 0 0 0-.353v-.132l-.43.354a1.6 1.6 0 0 0-.353.386.6.6 0 0 0-.118.387.4.4 0 0 0 .029.113.3.3 0 0 0 .066.08.15.15 0 0 0 .107 0 .4.4 0 0 0 .18-.033M96.111 111.447a.22.22 0 0 1-.023.123.2.2 0 0 1-.066.085l-.137.08a.1.1 0 0 1-.035.011.06.06 0 0 1-.036-.011.2.2 0 0 1-.028-.041.1.1 0 0 1-.01-.049l-.245-3.573q0-.062.024-.118a.16.16 0 0 1 .066-.085l.137-.08a.06.06 0 0 1 .037-.013q.022 0 .038.013.016.017.025.039t.008.046zM96.998 110.938a.2.2 0 0 1-.023.118.14.14 0 0 1-.066.085l-.137.08a.06.06 0 0 1-.071 0 .1.1 0 0 1-.027-.039.1.1 0 0 1-.01-.046l-.246-3.573a.3.3 0 0 1 .024-.123.2.2 0 0 1 .066-.085l.137-.08a.06.06 0 0 1 .037-.013q.021 0 .038.013.016.018.026.042a.1.1 0 0 1 .007.048zM98.445 108.798a.06.06 0 0 1-.036.013.06.06 0 0 1-.035-.013s-.033-.043-.038-.085v-.174a.3.3 0 0 1 0-.118.16.16 0 0 1 .071-.085l2.112-1.221a.07.07 0 0 1 .038-.013.1.1 0 0 1 .038.013q.016.018.025.041a.1.1 0 0 1 .007.049v.174a.2.2 0 0 1-.023.118.14.14 0 0 1-.066.084zM103.857 104.673c0 .16.028.311.038.471.009.161 0 .297.028.472q.016.314-.024.627a2.4 2.4 0 0 1-.137.575q-.096.257-.268.471-.168.222-.411.359a.75.75 0 0 1-.424.127.48.48 0 0 1-.311-.151 1 1 0 0 1-.203-.377 2.5 2.5 0 0 1-.099-.556c0-.165-.028-.316-.038-.472-.008-.155 0-.302-.028-.471a3.4 3.4 0 0 1 .024-.623q.033-.295.137-.575.097-.257.268-.471c.109-.148.25-.27.411-.358a.75.75 0 0 1 .424-.128c.12.011.231.066.311.156a.9.9 0 0 1 .203.377q.082.268.099.547m-1.466 1.801a1.1 1.1 0 0 0 .207.674c.113.108.264.104.471 0a1 1 0 0 0 .421-.5c.095-.273.13-.565.103-.853 0-.165 0-.316-.029-.472-.028-.155 0-.297-.032-.471a1.1 1.1 0 0 0-.208-.674q-.17-.165-.471 0a.94.94 0 0 0-.42.504 2 2 0 0 0-.103.854c0 .165 0 .32.028.471s.019.302.033.467M106.19 103.324c0 .161 0 .316.034.472.033.155.023.297.028.471q.033.314 0 .627-.033.297-.136.575-.1.256-.27.472a1.5 1.5 0 0 1-.409.353.75.75 0 0 1-.425.128.47.47 0 0 1-.311-.151.96.96 0 0 1-.202-.377 2.5 2.5 0 0 1-.105-.557c0-.16-.023-.315-.032-.471s0-.297-.028-.471a4 4 0 0 1 0-.627q.037-.296.141-.576.099-.255.268-.471c.11-.146.248-.267.406-.358a.72.72 0 0 1 .429-.123.47.47 0 0 1 .311.151q.14.168.203.377.08.273.098.556m-1.465 1.806c-.008.241.065.478.207.674.109.104.259.104.471 0a.94.94 0 0 0 .42-.471c.096-.274.131-.565.104-.854 0-.165 0-.32-.029-.471-.028-.151 0-.297-.032-.471a1.1 1.1 0 0 0-.213-.675c-.109-.108-.259-.108-.471 0a.95.95 0 0 0-.415.5 2.1 2.1 0 0 0-.109.853q0 .25.029.472c.009.127.023.278.038.443M107.002 102.646a.06.06 0 0 1 .035-.013q.02 0 .035.013a.1.1 0 0 1 .029.038q.01.021.009.047l.023.367q.015.059 0 .118a.2.2 0 0 1-.065.085l-.25.141a.05.05 0 0 1-.071 0 .1.1 0 0 1-.028-.041.1.1 0 0 1-.009-.048l-.024-.363a.2.2 0 0 1 .024-.123.18.18 0 0 1 .065-.085zm.131 1.909a.06.06 0 0 1 .072 0s.032.042.037.085l.024.363a.22.22 0 0 1-.024.122.15.15 0 0 1-.066.085l-.245.142a.07.07 0 0 1-.038.013.1.1 0 0 1-.038-.013.1.1 0 0 1-.025-.039.1.1 0 0 1-.007-.046l-.029-.368a.3.3 0 0 1 0-.118.2.2 0 0 1 .067-.085zM108.987 104.169a.06.06 0 0 1-.036.012.05.05 0 0 1-.035-.012.1.1 0 0 1-.031-.038.1.1 0 0 1-.007-.047l-.052-.75-1.16.66a.06.06 0 0 1-.038.013.06.06 0 0 1-.037-.013.1.1 0 0 1-.026-.039.1.1 0 0 1-.007-.046v-.198a1 1 0 0 1 0-.094 1 1 0 0 1 .033-.118l1.009-2.927a1 1 0 0 1 .057-.132.17.17 0 0 1 .08-.08l.145-.085a.06.06 0 0 1 .036-.013q.02 0 .035.013a.1.1 0 0 1 .028.04q.01.024.01.049l.155 2.277.316-.184a.06.06 0 0 1 .036-.012q.019 0 .035.012a.1.1 0 0 1 .029.038q.01.023.009.047v.198a.2.2 0 0 1-.024.118.14.14 0 0 1-.066.085l-.315.184.051.749a.23.23 0 0 1-.023.123.2.2 0 0 1-.066.085zm-.194-1.33-.104-1.537-.693 1.994zM110.207 102.434a.39.39 0 0 0 .235.287.47.47 0 0 0 .387-.071.9.9 0 0 0 .227-.179 1.2 1.2 0 0 0 .282-.575 1.4 1.4 0 0 0 0-.372.9.9 0 0 0-.066-.321.4.4 0 0 0-.141-.174.3.3 0 0 0-.198-.038.54.54 0 0 0-.231.08.974.974 0 0 0-.349.354l-.09.151a.25.25 0 0 1-.094.103l-.188.109a.05.05 0 0 1-.029.011.04.04 0 0 1-.028-.011.1.1 0 0 1-.022-.03.1.1 0 0 1-.006-.036v-1.886a.2.2 0 0 1 0-.123.2.2 0 0 1 .065-.08l1.302-.754a.06.06 0 0 1 .035-.012.06.06 0 0 1 .036.012.2.2 0 0 1 .028.041.1.1 0 0 1 .009.049v.193a.3.3 0 0 1-.023.122.15.15 0 0 1-.066.08l-1.07.623v.976q.075-.098.164-.184.121-.118.269-.198a.85.85 0 0 1 .368-.123.52.52 0 0 1 .315.08.7.7 0 0 1 .227.288 1.4 1.4 0 0 1 .113.471q.021.294-.038.58-.052.272-.174.519a2 2 0 0 1-.278.429 1.5 1.5 0 0 1-.358.292.9.9 0 0 1-.358.127.55.55 0 0 1-.308-.042.56.56 0 0 1-.225-.217.84.84 0 0 1-.113-.377.3.3 0 0 1 0-.094.14.14 0 0 1 .056-.071l.17-.099a.1.1 0 0 1 .028-.007q.016 0 .028.007a.1.1 0 0 1 .072.024.1.1 0 0 1 .037.066" style="fill:#fff;fill-opacity:1"/><path fill="#455A64" d="M98.028 137.354c1.243-4.819-.03-9.312-2.84-10.036s-6.097 2.595-7.338 7.413c-1.242 4.818.03 9.312 2.84 10.037 2.81.724 6.097-2.595 7.338-7.414" style="fill:#455a64;fill:color(display-p3 .2706 .3529 .3922);fill-opacity:1"/><path fill="#fff" d="M90.879 140.105a1.74 1.74 0 0 0-.665 1.528c.038.602.406.904.816.669a1.75 1.75 0 0 0 .665-1.528c-.057-.603-.406-.905-.816-.669m2.202-1.268a1.75 1.75 0 0 0-.67 1.522c.043.608.41.91.815.67.23-.178.41-.411.528-.677.117-.265.165-.556.142-.845-.042-.609-.41-.906-.815-.67m2.197-1.273c-.23.179-.41.413-.527.679a1.76 1.76 0 0 0-.138.849c.042.603.405.904.815.669a1.74 1.74 0 0 0 .665-1.528c-.038-.603-.406-.905-.815-.669m-4.616-.613a1.75 1.75 0 0 0-.665 1.523c.043.608.406.91.816.674a1.75 1.75 0 0 0 .665-1.527c-.038-.604-.406-.901-.816-.67m2.202-1.273a1.75 1.75 0 0 0-.665 1.528c.042.608.405.905.816.669a1.74 1.74 0 0 0 .664-1.523c-.042-.603-.405-.904-.815-.669zm2.201-1.268a1.75 1.75 0 0 0-.67 1.527c.043.604.41.906.821.67a1.765 1.765 0 0 0 .664-1.541c-.042-.59-.405-.887-.815-.651zm-4.615-.608a1.76 1.76 0 0 0-.67 1.523c.043.608.41.905.82.669a1.75 1.75 0 0 0 .666-1.522c-.043-.604-.406-.906-.816-.665zm2.197-1.273a1.75 1.75 0 0 0-.665 1.528c.043.603.406.904.816.669a1.75 1.75 0 0 0 .669-1.527c-.043-.599-.415-.901-.82-.665zm2.357.943a1.73 1.73 0 0 0 .665-1.523c-.043-.608-.406-.904-.816-.669a1.73 1.73 0 0 0-.665 1.523c.038.594.4.891.811.655z" style="fill:#fff;fill-opacity:1"/><path fill="#455A64" d="M81.785 143.221c.307 4.53-1.918 9.631-4.978 11.394-3.06 1.764-5.784-.471-6.09-5.001s1.918-9.632 4.973-11.395 5.784.476 6.095 5.002" style="fill:#455a64;fill:color(display-p3 .2706 .3529 .3922);fill-opacity:1"/><path fill="#fff" d="m74.917 146.639 1.975 1.626a1.7 1.7 0 0 1-.471.429c-.717.415-1.358-.108-1.415-1.174zM77.354 142.792l.216 3.23q.015.22 0 .443l-2.828-2.32c0-1.023.471-2.131 1.174-2.526a.8.8 0 0 1 .943.032 1.6 1.6 0 0 1 .495 1.141" style="fill:#fff;fill-opacity:1"/><path fill="#fff" d="M78.188 145.531a.47.47 0 0 0-.179.411q.03.43-.033.857l.34.274c.09-.449.121-.907.094-1.363-.014-.165-.109-.24-.222-.179m-.801 5.092-.618.353-.07-1.042c.382-.292.702-.657.942-1.075l-.316-.264a2.56 2.56 0 0 1-.862.877c-.943.551-1.801-.146-1.886-1.555 0-.165-.108-.246-.217-.179a.46.46 0 0 0-.179.405c.109 1.636 1.051 2.494 2.14 2.017l.071 1.047-.622.358a.48.48 0 0 0-.18.411c0 .159.109.24.222.179l1.636-.944a.47.47 0 0 0 .175-.405c-.029-.151-.128-.231-.236-.183M79.08 148.487l-5.384-4.418c-.085-.07-.212 0-.283.161a.39.39 0 0 0 .028.415l5.384 4.421a.12.12 0 0 0 .073.024.12.12 0 0 0 .073-.024q.095-.064.137-.169a.39.39 0 0 0-.029-.41" style="fill:#fff;fill-opacity:1"/><path fill="#455A64" d="M115.162 123.954c.306 4.526-1.919 9.626-4.979 11.394s-5.784-.471-6.09-5.006 1.918-9.627 4.973-11.39 5.784.472 6.096 5.002" style="fill:#455a64;fill:color(display-p3 .2706 .3529 .3922);fill-opacity:1"/><path fill="#fff" d="m108.609 123.92-1.626 2.829a.55.55 0 0 1-.184.189l-.698.401a.86.86 0 0 0-.325.739l.174 2.499c0 .297.194.444.396.325l.698-.4a.24.24 0 0 1 .193-.033l1.886.82c.254.08.546-.354.518-.769l-.443-6.472c-.052-.41-.377-.486-.589-.128m1.886.821c-.109-.084-.264 0-.349.208a.47.47 0 0 0 .037.513 1.55 1.55 0 0 1 .472 1.108 3.3 3.3 0 0 1-.273 1.523.46.46 0 0 0-.062.264c.006.092.039.18.094.254a.16.16 0 0 0 .184 0 .46.46 0 0 0 .165-.211 4.6 4.6 0 0 0 .392-2.127 2.14 2.14 0 0 0-.66-1.532m.811-1.886c-.109-.085-.264 0-.354.203a.46.46 0 0 0 .038.518 3.11 3.11 0 0 1 .942 2.235 6.76 6.76 0 0 1-.561 3.083.47.47 0 0 0 .038.519.15.15 0 0 0 .09.031.15.15 0 0 0 .089-.031.43.43 0 0 0 .17-.208 8 8 0 0 0 .67-3.686c-.085-1.184-.481-2.131-1.118-2.645zm.806-1.862c-.109-.085-.264 0-.354.203a.5.5 0 0 0 .038.523c.801.646 1.301 1.839 1.414 3.357a10.2 10.2 0 0 1-.844 4.634.47.47 0 0 0 .033.518.16.16 0 0 0 .092.03.16.16 0 0 0 .092-.03.47.47 0 0 0 .17-.207 11.4 11.4 0 0 0 .943-5.237c-.113-1.693-.674-3.041-1.58-3.772z" style="fill:#fff;fill-opacity:1"/><path fill="#F7921E" d="M102.651 172.029c1.848-7.041.016-13.623-4.09-14.701-4.108-1.079-8.936 3.755-10.784 10.796s-.018 13.623 4.09 14.702c4.106 1.077 8.935-3.756 10.784-10.797" style="fill:#f7921e;fill:color(display-p3 .9686 .5725 .1176);fill-opacity:1"/><path fill="#FAFAFA" d="M90.37 176.078c.41.199 1.013-.348 1.414-.711l.184-.17a3.7 3.7 0 0 0 1.325-1.942 3.4 3.4 0 0 0-.076-1.358c-.033-.179-.065-.353-.08-.509a.399.399 0 0 1 .085-.354c1.164-1.329 2.358-2.036 3.677-2.164.118 0 .203.034.23.35v.127c-.006.458.089.912.28 1.329.113.152.262.275.434.356.171.083.36.122.55.115h.17a1.6 1.6 0 0 0 1.414-.348 3.16 3.16 0 0 0 .854-2.074 3.34 3.34 0 0 0-.82-2.561 1.7 1.7 0 0 0-.495-.344 2.8 2.8 0 0 0-1.377-.159 7 7 0 0 0-1.075.169 8.9 8.9 0 0 0-3.606 1.923q-.81.684-1.495 1.49l-.23.278-.128.16a7.8 7.8 0 0 0-1.443 2.39 5.55 5.55 0 0 0-.245 3.39.99.99 0 0 0 .453.617" style="fill:#fafafa;fill:color(display-p3 .9804 .9804 .9804);fill-opacity:1"/><g fill="#fff" opacity=".15"><path d="m122.751 129.408-55.156 79.957.433 6.298q.02.354.118.694a3.5 3.5 0 0 0 1.042-.406l30.464-17.589 25.3-36.69zM121.002 104.041l-1.207-17.744-55.151 79.981 1.207 17.744zM63.084 143.447l55.156-79.981-1.457-21.27a3.8 3.8 0 0 0-.307-1.302 3.9 3.9 0 0 0-1.768.561l-.315.184-8.061 4.653-45.384 65.81z" style="fill:#fff;fill-opacity:1"/></g><path fill="#B16668" d="m181.533 189.632.877-7.774-10.305-1.536s.287 3.875.372 7.288c.071 2.956-.292 4.077-1.339 5.723s-3.625 3.728-6.463 4.794-5.543 2.513-4.813 4.139 4.927 2.452 6.765 2.103c1.839-.35 5.954-2.424 8.062-3.913 2.106-1.49 5.539-2.141 6.335-2.461s1.014-1.438 1.023-3.3a41 41 0 0 0-.514-5.063" style="fill:#b16668;fill:color(display-p3 .6941 .4 .4078);fill-opacity:1"/><path fill="#455A64" d="M169.262 113.041c-.472 5.28.504 20.436.659 31.519.076 5.228.33 14.783.472 17.112.396 6.567 1.555 21.591 1.555 21.591s5.455 2.296 10.429.472c.995-8.207 4.129-19.838 2.083-26.871l4.851-41.014z" style="fill:#455a64;fill:color(display-p3 .2706 .3529 .3922);fill-opacity:1"/><path fill="#37474F" d="M180.487 156.5c-.189-2.097 1.202-23.745 1.211-23.943h-.443c-.037.806-1.414 21.879-1.211 24.005a18 18 0 0 0 .339 1.98c.73 3.364.985 6.814.755 10.249-.232 4.384-.642 11.068-.915 15.5l.471-.08c.273-4.431.674-11.046.905-15.397a37 37 0 0 0-.763-10.371 19 19 0 0 1-.349-1.943" style="fill:#37474f;fill:color(display-p3 .2157 .2784 .3098);fill-opacity:1"/><path fill="#37474F" d="m184.461 156.84 2.988-24.193c-7.118-1.122-12.035-4.789-13.284-7.765a10.48 10.48 0 0 0 6.157 7.959s1.385 13.623 2.084 18.408c.697 4.785 1.145 9.302 2.356 17.089.491-4.276.613-8.349-.301-11.498" style="fill:#37474f;fill:color(display-p3 .2157 .2784 .3098);fill-opacity:1"/><path fill="#263238" d="M158.109 202.686c-.147 0-.378 1.607.423 2.291.944.792 3.664 2.097 7.28 1.654s5.581-1.527 7.033-2.706c1.452-1.178 3.489-2.828 5.124-3.196 1.523-.32 3.998-1.145 4.488-1.608.491-.461.425-2.503.425-2.503z" style="fill:#263238;fill:color(display-p3 .149 .1961 .2196);fill-opacity:1"/><path fill="#37474F" d="M181.556 189.43a1.14 1.14 0 0 1 .59.707c.109.566.109 1.287.344 2.215.33 1.287.542 3.922.335 4.969s-3.503 1.928-5.092 2.513a20 20 0 0 0-5.138 3.149c-1.707 1.367-5.285 2.729-7.642 2.753-3.601.033-5.926-.943-6.643-2.202-.616-1.103-.042-2.692.888-3.465 1.286-1.075 2.865-1.739 4.388-2.465 2.357-1.127 5.006-2.527 6.515-4.714a5.6 5.6 0 0 0 1-3.154c-.02-.177.004-.357.07-.523a1.058 1.058 0 0 1 .83-.425c1.763-.245 3.3.528 4.95 1.15.396.112.746.346.999.67.434.697-.137 1.607 0 2.414a.5.5 0 0 0 .052.155c.113.165.377.133.552.033.641-.358.834-1.15 1.216-1.772.305-.491.74-.888 1.259-1.146q.215-.1.443-.169z" style="fill:#37474f;fill:color(display-p3 .2157 .2784 .3098);fill-opacity:1"/><path fill="#FAFAFA" d="M161.767 198.471c5.209.372 6.675 4.568 6.887 6.519a12.6 12.6 0 0 1-3.701.745c-3.601.034-6.071-.942-6.788-2.201-.835-1.485-.094-3.705 3.602-5.063" style="fill:#fafafa;fill:color(display-p3 .9804 .9804 .9804);fill-opacity:1"/><path fill="#F0F0F0" d="M168.951 199.235a.25.25 0 0 0 .223-.13.3.3 0 0 0 .03-.093.3.3 0 0 0-.009-.096.2.2 0 0 0-.047-.086c-.721-.873-2.706-2.391-4.6-2.197a.3.3 0 0 0-.095.028.2.2 0 0 0-.075.062.3.3 0 0 0-.047.086q-.014.048-.009.097c.007.067.04.128.092.17a.25.25 0 0 0 .186.057c1.767-.179 3.582 1.319 4.153 2.012a.26.26 0 0 0 .198.09M171.186 197.967a.253.253 0 0 0 .197-.411c-.721-.872-2.706-2.39-4.6-2.192a.26.26 0 0 0-.22.059.25.25 0 0 0 .272.413c1.768-.179 3.582 1.32 4.153 2.013q.032.052.085.083a.25.25 0 0 0 .113.035M173.269 196.51a.25.25 0 0 0 .16-.057.24.24 0 0 0 .093-.166.3.3 0 0 0-.009-.097.3.3 0 0 0-.046-.085c-.721-.872-2.715-2.39-4.601-2.197a.26.26 0 0 0-.169.09.26.26 0 0 0-.057.184.26.26 0 0 0 .278.226c1.768-.18 3.582 1.32 4.153 2.013q.038.041.09.066a.3.3 0 0 0 .108.023M175.202 194.762a.26.26 0 0 0 .156-.057.24.24 0 0 0 .097-.165.3.3 0 0 0-.008-.098.3.3 0 0 0-.047-.086c-.99-1.24-3.139-2.419-5.03-2.22a.25.25 0 0 0-.171.089.25.25 0 0 0-.06.184.26.26 0 0 0 .283.222c1.702-.175 3.701.943 4.577 2.032a.28.28 0 0 0 .203.099" style="fill:#f0f0f0;fill:color(display-p3 .9412 .9412 .9412);fill-opacity:1"/><path fill="#37474F" d="M171.779 181.09c1.971 1.452 7.637 2.866 10.956.661l-.646 4.119c-1.999 1.264-7.83 1.679-10.078-.976z" style="fill:#37474f;fill:color(display-p3 .2157 .2784 .3098);fill-opacity:1"/><path fill="#B16668" d="m202.214 194.021.203-9.137-10.24.383 1.51 9.239s.594 3.771.721 4.658a74 74 0 0 1 .542 7.816c.042 3.446.217 6.643 1.159 8.226s1.975 1.834 3.522 1.316c1.546-.519 3.427-2.253 4.022-4.988.594-2.734-.232-6.784-.571-7.708s-.816-6.43-.868-9.805" style="fill:#b16668;fill:color(display-p3 .6941 .4 .4078);fill-opacity:1"/><path fill="#455A64" d="m200.832 115.365-20.247-.099c.661 5.091 5.356 39.66 6.402 45.501s5.657 28.756 5.657 28.756 1.089 1.712 4.54 1.504c3.87-.235 5.369-1.805 5.369-1.805s.75-12.304.826-19.541a46.8 46.8 0 0 0-1.726-13.501s.509-13.171.5-21.978c-.01-8.806-.071-11.643-1.321-18.837" style="fill:#455a64;fill:color(display-p3 .2706 .3529 .3922);fill-opacity:1"/><path fill="#263238" d="M194.125 211.275c.103 2.418.471 4.021 1.296 5.454.825 1.434 2.456 1.886 4.106 1.513 1.65-.372 3.771-1.461 4.276-3.535s.796-3.498.472-5.742z" style="fill:#263238;fill:color(display-p3 .149 .1961 .2196);fill-opacity:1"/><path fill="#37474F" d="M202.214 194.021c.674.066.448 3.262.787 6.515.368 3.483.853 4.874 1.183 7.731.383 3.268-.183 4.714-1.357 6.666s-5.266 3.818-7.227.943c-1.593-2.329-1.626-4.879-1.414-8.132.129-2.73.018-5.465-.33-8.174-.246-2.631-.749-4.818-.155-5.082 0 0 .39 2.007.541 2.422.071.185.326.642.439-.037.033-.203-.024-.67 0-.867.057-.566.401-.651.627-.773a6.46 6.46 0 0 1 2.894-.58c1.32 0 2.465 0 3.202.377.437.231.419.655.471 1.065.052.471.056.797.174.698.222-.175.085-2.424.165-2.772" style="fill:#37474f;fill:color(display-p3 .2157 .2784 .3098);fill-opacity:1"/><path fill="#FAFAFA" d="M204.345 210.158a8.1 8.1 0 0 1-1.339 4.931c-1.179 1.951-5.591 3.819-7.543.966-.975-1.414-1.216-3.088-1.329-4.78 1.216-2.16 8.349-2.998 10.211-1.117" style="fill:#fafafa;fill:color(display-p3 .9804 .9804 .9804);fill-opacity:1"/><path fill="#F0F0F0" d="M195.657 207.754a.2.2 0 0 0 .085-.024c.023 0 3.178-1.249 6.218-.495a.257.257 0 0 0 .306-.184.254.254 0 0 0-.183-.302c-3.215-.796-6.431.472-6.553.529a.26.26 0 0 0-.13.139.25.25 0 0 0 .109.304.26.26 0 0 0 .148.033M201.847 204.802a.25.25 0 0 0 .135-.074.25.25 0 0 0 .038-.291.24.24 0 0 0-.113-.106c-3.021-1.075-6.415.41-6.543.471a.25.25 0 0 0-.123.146.25.25 0 0 0 .015.189c.03.059.082.103.144.124a.26.26 0 0 0 .191-.011c.033 0 3.337-1.452 6.129-.471.038.02.083.028.127.023M201.77 202.511a.252.252 0 0 0 .152-.434.2.2 0 0 0-.085-.051c-3.3-1.245-6.544.382-6.666.471a.3.3 0 0 0-.073.064.25.25 0 0 0-.045.184.26.26 0 0 0 .096.165.2.2 0 0 0 .088.042.3.3 0 0 0 .097.007.3.3 0 0 0 .092-.033c.028 0 3.144-1.57 6.236-.415a.3.3 0 0 0 .108 0" style="fill:#f0f0f0;fill:color(display-p3 .9412 .9412 .9412);fill-opacity:1"/><path fill="#EBEBEB" d="M201.639 200.253a.255.255 0 0 0 .209-.351.247.247 0 0 0-.138-.13c-3.111-1.221-6.6.444-6.713.519a.253.253 0 0 0-.097.341.26.26 0 0 0 .151.12.25.25 0 0 0 .191-.023c.033 0 3.394-1.626 6.285-.495a.3.3 0 0 0 .112.019" style="fill:#ebebeb;fill:color(display-p3 .9216 .9216 .9216);fill-opacity:1"/><path fill="#37474F" d="M192.018 186.766c2.092 1.197 7.788 1.909 10.757-.688l-.136 4.172c-1.796 1.494-7.43 2.621-9.943.259z" style="fill:#37474f;fill:color(display-p3 .2157 .2784 .3098);fill-opacity:1"/><path fill="#37474F" d="M201.337 161.936a90 90 0 0 0-.401-2.885c-.424-2.889-.829-5.614-1.376-16.5-.202-4.101-.222-7.264-.236-10.059-.033-5.657-.052-9.764-1.532-17.141h-.472c1.415 6.944 1.5 10.979 1.533 16.132-2.702-.114-4.243-2.711-4.842-8.156-.631-5.76-1.273-9.702-1.277-9.74l-.439.071c0 .038.641 3.97 1.273 9.722.618 5.656 2.357 8.438 5.289 8.546v.57c0 2.796.034 5.964.236 10.079.547 10.923.943 13.671 1.381 16.556.128.864.259 1.754.396 2.876a164.3 164.3 0 0 1 .886 25.895h.443c.4-8.664.111-17.347-.862-25.966" style="fill:#37474f;fill:color(display-p3 .2157 .2784 .3098);fill-opacity:1"/><path fill="#B16668" d="M168.527 69.444c-.518-.293-.844-3.72-.367-6.185.475-2.466-.675-3.027-1.212-2.244a4 4 0 0 0-.651 1.447 6.8 6.8 0 0 0-3.144 1.787c-1.329 1.414-2.899 3.106-2.324 6.722.108.702.222 3.498-.147 4.582-1.819 5.38-8.556 11.281-9.899 18.428-1.259 6.6 3.861 7.071 8.259 4.964 5.059-2.442 14.614-11.432 14.614-11.432l3.852-14.388c-2.706.048-4.715.57-8.194 4.135-.58.599-3.017 2.8-3.017 2.8.882-2.103 1.358-3.45 2.409-5.077" style="fill:#b16668;fill:color(display-p3 .6941 .4 .4078);fill-opacity:1"/><path fill="#9A4A4D" d="M163.393 89.644a30.5 30.5 0 0 1-2.484 4.79 9.3 9.3 0 0 0 3.234-4.003z" style="fill:#9a4a4d;fill:color(display-p3 .6039 .2902 .302);fill-opacity:1"/><path fill="#455A64" d="M178.068 73.102c-2.932-.194-5.298.33-7.542 2.62-2.06 2.113-4.243 4.338-4.243 4.338-1.315 4.073-1.886 6.42-2.881 9.589.562 1.767 1.099 3.672 2.39 4.93l11.611-9.9z" style="fill:#455a64;fill:color(display-p3 .2706 .3529 .3922);fill-opacity:1"/><path fill="#9A4A4D" d="M167.089 73.418c.787-1.32-.471-2.55-.471-2.55l1.886-1.358v-.066l-7.807-.137a9 9 0 0 0 .118 1.674q.112.84.108 1.687l1.028.58a.75.75 0 0 0 .73 0l3.244-1.791c1.169.41 1.164 1.96 1.164 1.96" style="fill:#9a4a4d;fill:color(display-p3 .6039 .2902 .302);fill-opacity:1"/><path fill="#37474F" d="M160.465 62.717 174 55.867a.76.76 0 0 1 .763 0c.179.108.892.523 1.089.627a.73.73 0 0 1 .363.617l.642 7.072a1.722 1.722 0 0 1-.892 1.575l-13.52 6.825a.79.79 0 0 1-.721.043 25 25 0 0 1-1.179-.679.75.75 0 0 1-.229-.257.76.76 0 0 1-.087-.332c-.165-1.773-.471-5.294-.645-7.071a1.737 1.737 0 0 1 .881-1.57" style="fill:#37474f;fill:color(display-p3 .2157 .2784 .3098);fill-opacity:1"/><path fill="#263238" d="M161.762 72.645h-.037a31 31 0 0 1-1.18-.68.8.8 0 0 1-.228-.259.8.8 0 0 1-.087-.334c-.166-1.773-.472-5.294-.646-7.071-.018-.445.14-.878.438-1.207l1.132.64a1.7 1.7 0 0 0-.443 1.217c.165 1.773.471 5.294.646 7.072a.712.712 0 0 0 .405.622" style="fill:#263238;fill:color(display-p3 .149 .1961 .2196);fill-opacity:1"/><path fill="#455A64" d="M175.838 56.475a.82.82 0 0 0-.712.047l-13.52 6.845a1.6 1.6 0 0 0-.471.358l-1.132-.646q.2-.227.472-.363l13.52-6.85a.8.8 0 0 1 .768 0c.17.09.83.472 1.075.609" style="fill:#455a64;fill:color(display-p3 .2706 .3529 .3922);fill-opacity:1"/><path fill="#F7921E" d="M175.316 64.673a.97.97 0 0 1-.448.782l-12.766 6.482.028.316-.721-7.519a.942.942 0 0 1 .443-.783l13.058-6.642-.287.146z" style="fill:#f7921e;fill:color(display-p3 .9686 .5725 .1176);fill-opacity:1"/><path fill="#fff" d="M175.316 64.673a.97.97 0 0 1-.448.782l-12.766 6.482.028.316-.721-7.519a.942.942 0 0 1 .443-.783l13.058-6.642-.287.146z" opacity=".75" style="fill:#fff;fill-opacity:1"/><path fill="#263238" d="M175.636 64.824a.94.94 0 0 1-.443.782l-13.063 6.638-.033-.311 12.771-6.487a1 1 0 0 0 .321-.336 1 1 0 0 0 .126-.447l-.707-7.208.288-.146z" style="fill:#263238;fill:color(display-p3 .149 .1961 .2196);fill-opacity:1"/><path fill="#000" d="M175.877 60.581a.54.54 0 0 0-.25.472.203.203 0 0 0 .213.204.2.2 0 0 0 .102-.035.52.52 0 0 0 .25-.471.2.2 0 0 0-.024-.108.2.2 0 0 0-.291-.062" opacity=".35" style="fill:#000;fill-opacity:1"/><path fill="#B16668" d="M168.739 69.4c.401-.348.518-1.413 1.188-2.384.777-1.127 2.644-.892 2.088 0-.556.89-.731 1.72-1.089 4.007s-1.263 2.673-2.243 3.945l-.157-5.473z" style="fill:#b16668;fill:color(display-p3 .6941 .4 .4078);fill-opacity:1"/><path fill="#F7921E" d="M169.032 87.612c.367-6.553 3.338-10.508 5.355-12.177s5.888-5.091 13.671-1.72c4.663 2.017 11.013 5.468 11.013 5.468s2.555 7.496 2.729 12.865c.175 5.37-1.49 9.136-1.329 13.398.16 4.262.509 8.57 1.339 14.831-5.158 6.972-27.343 6.633-32.919-3.965.061-8.434-.208-22.567.141-28.7" style="fill:#f7921e;fill:color(display-p3 .9686 .5725 .1176);fill-opacity:1"/><path fill="#fff" d="M169.032 87.612c.367-6.553 3.338-10.508 5.355-12.177s5.888-5.091 13.671-1.72c4.663 2.017 11.013 5.468 11.013 5.468s2.555 7.496 2.729 12.865c.175 5.37-1.49 9.136-1.329 13.398.16 4.262.509 8.57 1.339 14.831-5.158 6.972-27.343 6.633-32.919-3.965.061-8.434-.208-22.567.141-28.7" opacity=".35" style="fill:#fff;fill-opacity:1"/><path fill="#263238" d="M190.971 71.895c.383-2.517 2.829-5.186 3.918-7.387 1.047-2.131 1.664-3.772 1.504-5.761-.094-1.174-.863-2.753-1.739-3.074.942-4.384-2.386-6.35-4.13-6.736a19 19 0 0 1-2.424-.613c-.942-.377-1.178-1.136-1.951-1.768-1.334-1.094-3.55-1.08-4.361.622-.895-1.112-2.079-1.065-3.441-.688a2.354 2.354 0 0 0-1.749 2.673c-1.848-.99-3.503.33-3.654 1.414-.108.797.071 1.466-.438 2.188-.571.81-1.678.815-2.022.174-.17 1.132.287 1.985 1.508 1.886a2.58 2.58 0 0 0-.283 2.159 2.359 2.359 0 0 0 2.145 1.58c.062.604.258 1.187.576 1.706.379.537.882.975 1.465 1.277 1.886.849 3.923 1.099 5.926 1.476l2.357.448c.142.028.858.056.943.179z" style="fill:#263238;fill:color(display-p3 .149 .1961 .2196);fill-opacity:1"/><path fill="#B16668" d="M194.032 68.596c-1.745 1.084-2.962-.034-2.962-.034l.099 8.84c-2.012 3.102-6.6 3.512-9.022 2.946-3.117-.73-2.456-3.116-1.037-4.389l-.086-1.447q-1.32.044-2.634-.085c-1.976-.236-3.923-2.277-4.437-3.918-.688-2.201-.83-5.765-.395-8.443.122-.683.145-1.38.07-2.07-.221-1.828.089-2.898.532-4.445 2.136-1.782 7.808-2.296 12.527.472-.472 2.79-.038 4.799 1.998 5.822-.08.754-.137 2.65 1.094 2.593.891-.043.943-1.155 1.825-2.155.881-1 3.016-1.3 3.87.132 1.188 1.999.471 4.997-1.442 6.18" style="fill:#b16668;fill:color(display-p3 .6941 .4 .4078);fill-opacity:1"/><path fill="#9A4A4D" d="M181.92 57.79a.47.47 0 0 0-.287.174.9.9 0 0 0-.151.274 1.4 1.4 0 0 0-.052.344q.004.117.029.23c0 .074.023.145.066.204a.07.07 0 0 0 .051 0c.1-.029.071-.16.08-.231s0-.118 0-.175q.004-.144.043-.283a.7.7 0 0 1 .283-.349c.08-.028.038-.202-.062-.188M178.003 57.375a.85.85 0 0 0-.33-.25c-.08 0-.062.08-.028.118l.033.029a.4.4 0 0 1 .07.056.822.822 0 0 1 .227.4q.028.151 0 .303a1 1 0 0 1-.029.141q-.027.074-.043.15c0 .057.072.152.133.105a.55.55 0 0 0 .169-.34.9.9 0 0 0-.032-.391.9.9 0 0 0-.17-.32M181.024 74.516c3.112-.425 5.479-.806 7.073-3.098a13.6 13.6 0 0 0 1.564-3.606s-.024 2.645-1.008 4.535c-.759 1.457-2.697 2.697-7.586 3.206z" style="fill:#9a4a4d;fill:color(display-p3 .6039 .2902 .302);fill-opacity:1"/><path fill="#263238" d="M182.095 61.807a.945.945 0 0 0 1.176.86.942.942 0 1 0-1.176-.86M175.344 58.483l1.886-.995a1.125 1.125 0 0 1-.472 1.485 1.044 1.044 0 0 1-1.414-.49M182.306 58.445l1.792 1.212a1.03 1.03 0 0 1-1.084.481 1 1 0 0 1-.386-.16 1.133 1.133 0 0 1-.322-1.533M175.193 61.307a.95.95 0 0 0 .627.84.943.943 0 1 0-.627-.84" style="fill:#263238;fill:color(display-p3 .149 .1961 .2196);fill-opacity:1"/><path fill="#9A4A4D" d="m176.117 65.352 3.082 1.296.826-6.01c-1.146-.382-2.551 2.399-3.908 4.714M180.737 67.435c-.674 0-1.683.726-1.513 1.67.052.291.433.32.787.14a6.8 6.8 0 0 1 1.655-.433c.58-.09.504-.674.08-1.047a1.63 1.63 0 0 0-1.009-.33" style="fill:#9a4a4d;fill:color(display-p3 .6039 .2902 .302);fill-opacity:1"/><path fill="#F28F8F" d="M181.525 67.614a1.886 1.886 0 0 0-1.617 1.683.5.5 0 0 0 .117-.052 6.8 6.8 0 0 1 1.655-.433c.58-.09.504-.674.08-1.047a1 1 0 0 0-.235-.15" style="fill:#f28f8f;fill:color(display-p3 .949 .5608 .5608);fill-opacity:1"/><path fill="#455A64" d="M196.586 77.915c2.829 1.032 4.583 2.602 9.089 7.887s9.725 11.63 9.725 11.63-.471 3.851-3.073 4.511c-1.353.344-3.173.279-7.85-2.696-3.841-2.442-5.986-3.847-5.986-3.847s-5.808-9.598-1.905-17.485" style="fill:#455a64;fill:color(display-p3 .2706 .3529 .3922);fill-opacity:1"/><path fill="#9A4A4D" d="M202.752 74.002c-.051-.707.995-2.46 1.179-3.535s-.203-3.15.202-4.455c.406-1.306.128-1.768-.282-1.632a3.53 3.53 0 0 0-1.796 2.174c-.203 1.07.697 7.448.697 7.448" style="fill:#9a4a4d;fill:color(display-p3 .6039 .2902 .302);fill-opacity:1"/><path fill="#B16668" d="M196.59 77.18c-.376-.943-.942-2.075-1.136-2.706-.382-1.184-.033-2.546.241-3.772.132-.584.184-1.042.301-1.617a9 9 0 0 0 .236-1.885 5.3 5.3 0 0 0-.65-2.452c-.113-.226-1.537-.217-1.952-.386-.731-.302-.83-.872-.221-.981.934-.155 1.886-.18 2.827-.07.628.164 1.953 2.743 1.953 2.743s-.562-2.084-.802-2.63c-.241-.547-1.584-.764-2.305-1.033-1.151-.438-1.415-1.485-.943-1.504 1.238.029 2.466.23 3.649.599 1.033.344 1.362.547 1.848 1.645q.495 1.15.83 2.357s0-3.328-.123-3.978c0 0-.971-.41-1.415-.613-.612-.297-1.343-.797-1.357-1.528 0 0-.184-.745.98-.377s3.145.943 3.494 1.207c.348.264.579 1.075.692 2.602.123 1.603.637 4.964.472 7.321-.099 1.316-.698 2.065-.367 4.559.513 3.87 7.703 8.316 11.2 15.043 1.335 2.564 1.816 4.587 1.415 7.434-.505 3.748-2.631 5.026-4.602 4.021a18.12 18.12 0 0 1-7.872-8.64c-2.918-7.17-4.714-11.876-6.393-15.36" style="fill:#b16668;fill:color(display-p3 .6941 .4 .4078);fill-opacity:1"/><path fill="#9A4A4D" d="M196.591 77.18c-.359-.873-.783-1.712-1.118-2.598a5.34 5.34 0 0 1-.047-2.805l.293-1.382c.084-.47.151-.942.245-1.39a6.45 6.45 0 0 0 .103-2.782 6 6 0 0 0-.471-1.31c0-.047-.061-.123-.076-.141a.34.34 0 0 0-.132-.062 4 4 0 0 0-.339-.066c-.231-.033-.472-.056-.698-.08a4 4 0 0 1-.712-.122 1.25 1.25 0 0 1-.598-.43.42.42 0 0 1-.076-.386.47.47 0 0 1 .297-.264q.355-.087.717-.113.705-.073 1.414-.076.36-.002.717.052a.65.65 0 0 1 .353.146q.144.116.264.255a14 14 0 0 1 1.518 2.4l-.146.056a57 57 0 0 0-.57-1.952c-.052-.16-.104-.32-.161-.471a.8.8 0 0 0-.24-.391 2.9 2.9 0 0 0-.891-.41l-.976-.293a2.5 2.5 0 0 1-.943-.471 1.38 1.38 0 0 1-.537-.943.36.36 0 0 1 .142-.306.4.4 0 0 1 .169-.048h.646q1.025.09 2.027.321c.676.132 1.33.36 1.942.674.3.192.543.46.702.778q.246.458.429.943.38.953.651 1.942h-.156l-.023-1.99c0-.66-.023-1.329-.089-1.975l.042.052c-.561-.245-1.127-.471-1.673-.768a2.9 2.9 0 0 1-.741-.57 1.34 1.34 0 0 1-.372-.863.47.47 0 0 1 .16-.472.7.7 0 0 1 .472-.075q.45.083.881.236l1.72.556q.43.14.854.302.215.082.42.188c.134.087.242.21.311.354a5.5 5.5 0 0 1 .4 1.772c.179 2.395.59 4.785.528 7.199.029-2.414-.409-4.794-.617-7.19a5.7 5.7 0 0 0-.401-1.734.8.8 0 0 0-.273-.311 3 3 0 0 0-.406-.18 20 20 0 0 0-.848-.296l-1.721-.547a6 6 0 0 0-.863-.231.6.6 0 0 0-.391.061.3.3 0 0 0-.107.15.3.3 0 0 0-.001.185c.018.293.14.57.344.782q.314.327.711.542c.528.283 1.104.51 1.665.755a.1.1 0 0 1 .028.02q.012.014.014.032c.071.674.075 1.334.095 1.998l.037 1.99a.08.08 0 0 1-.08.08.08.08 0 0 1-.048-.015.1.1 0 0 1-.028-.042 19 19 0 0 0-.65-1.918c-.264-.613-.509-1.292-1.07-1.631a7.2 7.2 0 0 0-1.886-.642 14.4 14.4 0 0 0-1.999-.306h-.499c-.165 0-.246 0-.255.165.05.312.22.592.472.782.471.434 1.192.524 1.838.745.339.101.659.261.943.472a.95.95 0 0 1 .292.471c.056.165.109.325.161.472.203.655.386 1.305.561 1.965q.003.015.002.031a.1.1 0 0 1-.01.029.1.1 0 0 1-.021.022.1.1 0 0 1-.028.013.09.09 0 0 1-.09-.038 14 14 0 0 0-1.485-2.357c-.16-.17-.311-.344-.532-.358a5 5 0 0 0-.693-.052q-.709 0-1.415.07a4.4 4.4 0 0 0-.678.1.34.34 0 0 0-.222.184.3.3 0 0 0-.003.144.3.3 0 0 0 .064.129c.137.176.322.308.533.382q.337.088.683.118c.231.028.472.047.703.084q.178.025.354.071.102.025.183.09.056.083.095.174c.211.425.369.875.471 1.339.167.94.127 1.905-.117 2.828l-.256 1.415-.31 1.376a5.3 5.3 0 0 0 0 2.782c.353.853.777 1.701 1.122 2.578" style="fill:#9a4a4d;fill:color(display-p3 .6039 .2902 .302);fill-opacity:1"/><path fill="#fff" d="m162.822 49.437-2.013 2.437-1.569-2.423a12.217 12.217 0 0 0-10.933-17.458 12.213 12.213 0 1 0 2.258 24.199c2.071-.415 4-1.36 5.596-2.744l4.776 2.277 1.927-3.102 3.956 2.829z" style="fill:#fff;fill-opacity:1"/><path fill="#F7921E" d="m152.352 38.297-4.243 8.109a.7.7 0 0 1-.631.381h-1.108a.7.7 0 0 1-.559-.27.698.698 0 0 1-.129-.606l2.088-8.326a1.004 1.004 0 0 1 .98-.759h2.692a1 1 0 0 1 .871.478 1.02 1.02 0 0 1 .039.993m-4.417 11.314a1.888 1.888 0 0 1-2.253 1.85 1.888 1.888 0 0 1-1.375-2.572 1.883 1.883 0 0 1 2.468-1.018 1.88 1.88 0 0 1 1.16 1.759z" style="fill:#f7921e;fill:color(display-p3 .9686 .5725 .1176);fill-opacity:1"/><path fill="#455A64" d="m168.089 56.81-5.144-3.706-1.886 3.05-4.837-2.314a12.6 12.6 0 0 1-5.581 2.678 12.49 12.49 0 0 1-14.555-15.176 12.494 12.494 0 0 1 24.286-.036c.662 2.724.39 5.59-.774 8.14l1.225 1.886 1.999-2.451zm-11.965-3.772 4.676 2.245 1.956-3.15 2.768 1.994-2.754-4.148-2.017 2.442-1.919-2.956.08-.17a11.745 11.745 0 0 0-4.153-14.85 11.89 11.89 0 0 0-18.211 12.196 11.7 11.7 0 0 0 5.059 7.505 11.93 11.93 0 0 0 14.354-.943z" style="fill:#455a64;fill:color(display-p3 .2706 .3529 .3922);fill-opacity:1"/></g></svg>