<svg xmlns="http://www.w3.org/2000/svg" width="256" height="256" fill="none"><path stroke="#D5D5D5" d="M46.56 207.601C24.086 195.833 13 180.486 13 165.269s11.084-30.568 33.56-42.341c22.464-11.767 51.94-17.663 81.442-17.663 29.503 0 58.977 5.896 81.439 17.663 22.473 11.773 33.558 27.122 33.559 42.337s-11.083 30.563-33.559 42.336c-22.465 11.767-51.939 17.664-81.441 17.664s-58.976-5.897-81.44-17.664Z" style="stroke:#d5d5d5;stroke:color(display-p3 .8353 .8353 .8353);stroke-opacity:1"/><path fill="#F7921E" d="M124.121 138.409v4.761l-82.544 47.657-2.56 1.459a4.42 4.42 0 0 1-1.94-3.507v-80.256a.86.86 0 0 1 .117-.404.9.9 0 0 1 .297-.313L56.3 96.947c.231-.133 1.573.43 1.793.563l.143.082q.189.118.328.292c.107.113.19.247.24.394l1.705 4.92 61.277-36.474a.92.92 0 0 1 .803 0l1.137.66a.8.8 0 0 1 .292.302.86.86 0 0 1 .123.415v70.308z" style="fill:#f7921e;fill:color(display-p3 .9686 .5725 .1176);fill-opacity:1"/><path fill="#000" d="M124.121 138.409v4.761l-82.544 47.657-2.56 1.459a4.42 4.42 0 0 1-1.94-3.507v-80.256a.86.86 0 0 1 .117-.404.9.9 0 0 1 .297-.313L56.3 96.947c.231-.133 1.573.43 1.793.563l.143.082q.189.118.328.292c.107.113.19.247.24.394l1.705 4.92 61.277-36.474a.92.92 0 0 1 .803 0l1.137.66a.8.8 0 0 1 .292.302.86.86 0 0 1 .123.415v70.308z" opacity=".5" style="fill:#000;fill-opacity:1"/><path fill="#F7921E" d="m124.121 143.171-85.084 49.116v-83.123L58.585 97.9c.108.112.19.247.24.394l1.706 4.92.322.932 63.14-36.46a.86.86 0 0 1 .123.415z" style="fill:#f7921e;fill:color(display-p3 .9686 .5725 .1176);fill-opacity:1"/><path fill="#000" d="m124.121 143.171-85.084 49.116v-83.123L58.585 97.9c.108.112.19.247.24.394l1.706 4.92.322.932 63.14-36.46a.86.86 0 0 1 .123.415z" opacity=".35" style="fill:#000;fill-opacity:1"/><path fill="#F7921E" d="m58.585 97.884-19.548 11.264-1.823-1.024a.9.9 0 0 1 .297-.312l18.816-10.86a.88.88 0 0 1 .814 0l1.117.645q.188.117.327.287" style="fill:#f7921e;fill:color(display-p3 .9686 .5725 .1176);fill-opacity:1"/><path fill="#000" d="m58.585 97.884-19.548 11.264-1.823-1.024a.9.9 0 0 1 .297-.312l18.816-10.86a.88.88 0 0 1 .814 0l1.117.645q.188.117.327.287" opacity=".2" style="fill:#000;fill-opacity:1"/><path fill="#F7921E" d="m123.993 67.67-63.134 36.46-.323-.932 61.25-36.48a.94.94 0 0 1 .804 0l1.137.66a.8.8 0 0 1 .266.293" style="fill:#f7921e;fill:color(display-p3 .9686 .5725 .1176);fill-opacity:1"/><path fill="#000" d="m123.993 67.67-63.134 36.46-.323-.932 61.25-36.48a.94.94 0 0 1 .804 0l1.137.66a.8.8 0 0 1 .266.293" opacity=".2" style="fill:#000;fill-opacity:1"/><path fill="#FAFAFA" d="M63.311 170.496a2.1 2.1 0 0 1-.916-1.659V86.595a2.16 2.16 0 0 1 .977-1.695l52.373-30.208a1.83 1.83 0 0 1 2.585.665c.161.293.239.624.226.958v82.242a2.16 2.16 0 0 1-.978 1.695L65.205 170.46a2.1 2.1 0 0 1-1.894.036" style="fill:#fafafa;fill:color(display-p3 .9804 .9804 .9804);fill-opacity:1"/><path fill="#F0F0F0" d="m65.206 170.46 52.372-30.208a2.15 2.15 0 0 0 .978-1.694V56.315c0-.625-.435-.875-.978-.568L65.206 85.955a2.17 2.17 0 0 0-.978 1.694v82.248c0 .625.44.876.978.563" style="fill:#f0f0f0;fill:color(display-p3 .9412 .9412 .9412);fill-opacity:1"/><path fill="#E0E0E0" d="m70.53 89.226 40.474-23.373c.476-.276.865-.05.865.512v.343a1.902 1.902 0 0 1-.865 1.495L70.53 91.571c-.476.276-.865.056-.86-.512v-.343a1.9 1.9 0 0 1 .86-1.49M70.53 95.053l40.474-23.373c.476-.271.865-.051.865.512v.343a1.9 1.9 0 0 1-.865 1.49L70.53 97.388c-.476.276-.865.05-.86-.512v-.343a1.9 1.9 0 0 1 .86-1.48M70.53 100.879l40.474-23.368c.476-.276.865-.05.865.513v.343a1.917 1.917 0 0 1-.865 1.495L70.53 103.229c-.476.277-.865.051-.86-.512v-.343a1.91 1.91 0 0 1 .86-1.495M70.53 106.711l40.474-23.373c.476-.271.865-.05.865.512v.349a1.9 1.9 0 0 1-.865 1.49L70.53 109.06c-.476.272-.865.051-.86-.512v-.348a1.91 1.91 0 0 1 .86-1.49M70.53 112.537l40.474-23.367c.476-.277.865-.057.865.512v.343a1.917 1.917 0 0 1-.865 1.495L70.53 114.887c-.476.277-.865.052-.86-.512v-.348a1.91 1.91 0 0 1 .86-1.49M70.53 118.41l40.474-23.372c.476-.272.865-.052.865.512v.343a1.899 1.899 0 0 1-.865 1.49L70.53 120.755c-.476.277-.865.052-.86-.512v-.343a1.9 1.9 0 0 1 .86-1.49M70.53 124.237l40.474-23.368c.476-.277.865-.051.865.512v.343a1.902 1.902 0 0 1-.865 1.495L70.53 126.571c-.476.277-.865.057-.86-.512v-.343a1.91 1.91 0 0 1 .86-1.479M70.53 130.069l40.474-23.373c.476-.272.865-.051.865.512v.348a1.902 1.902 0 0 1-.865 1.49L70.53 132.419c-.476.276-.865.051-.86-.512v-.343a1.9 1.9 0 0 1 .86-1.495M70.53 135.895l40.474-23.368c.476-.276.865-.051.865.512v.343a1.911 1.911 0 0 1-.865 1.495L70.53 138.245c-.476.276-.865.051-.86-.512v-.343a1.9 1.9 0 0 1 .86-1.495M70.53 141.727l40.474-23.373c.476-.277.865-.051.865.512v.343a1.902 1.902 0 0 1-.865 1.495L70.53 144.077c-.476.271-.865.051-.86-.512v-.354a1.9 1.9 0 0 1 .86-1.484M70.53 147.579l40.474-23.368c.476-.276.865-.056.865.512v.343a1.9 1.9 0 0 1-.865 1.495L70.53 149.929c-.476.276-.865.051-.86-.512v-.343a1.91 1.91 0 0 1 .86-1.495M70.53 153.411l40.474-23.373c.476-.277.865-.051.865.512v.343a1.902 1.902 0 0 1-.865 1.495L70.53 155.761c-.476.271-.865.051-.86-.512v-.343a1.89 1.89 0 0 1 .86-1.495M70.53 159.237l40.474-23.373c.476-.271.865-.051.865.512v.343a1.893 1.893 0 0 1-.865 1.49L70.53 161.582c-.476.276-.865.051-.86-.512v-.343a1.91 1.91 0 0 1 .86-1.49M65.078 170.527a1.83 1.83 0 0 1-1.831-.068 1.83 1.83 0 0 1-.852-1.622V86.594c.014-.34.112-.67.286-.962l1.833 1.06a1.96 1.96 0 0 0-.286.957v82.248c0 .573.373.829.85.63" style="fill:#e0e0e0;fill:color(display-p3 .8784 .8784 .8784);fill-opacity:1"/><path fill="#FAFAFA" d="M70.663 174.74a2.1 2.1 0 0 1-.916-1.658V90.839a2.17 2.17 0 0 1 .978-1.695l52.372-30.208a1.838 1.838 0 0 1 2.816 1.623v82.243a2.17 2.17 0 0 1-.978 1.695l-52.377 30.208a2.1 2.1 0 0 1-1.895.035" style="fill:#fafafa;fill:color(display-p3 .9804 .9804 .9804);fill-opacity:1"/><path fill="#F0F0F0" d="m72.558 174.705 52.377-30.208a2.18 2.18 0 0 0 .978-1.695V60.559c0-.624-.44-.875-.978-.563L72.558 90.204a2.17 2.17 0 0 0-.978 1.695v82.242c0 .625.44.876.978.564" style="fill:#f0f0f0;fill:color(display-p3 .9412 .9412 .9412);fill-opacity:1"/><path fill="#E0E0E0" d="m77.883 93.47 40.473-23.372c.476-.277.865-.051.865.512v.343a1.9 1.9 0 0 1-.865 1.495L77.883 95.821c-.477.271-.86.051-.86-.512v-.343a1.9 1.9 0 0 1 .86-1.495M77.883 99.297l40.473-23.373c.476-.271.865-.05.865.512v.343a1.89 1.89 0 0 1-.865 1.49l-40.473 23.373c-.477.277-.86.051-.86-.512v-.343a1.9 1.9 0 0 1 .86-1.49M77.883 105.129l40.473-23.357c.476-.277.865-.052.865.512v.343a1.9 1.9 0 0 1-.865 1.495L77.883 107.49c-.477.276-.86.056-.86-.512v-.344a1.89 1.89 0 0 1 .86-1.505M77.883 110.955l40.473-23.373c.476-.27.865-.05.865.513v.332a1.89 1.89 0 0 1-.865 1.49L77.883 113.29c-.477.276-.86.051-.86-.512v-.343a1.9 1.9 0 0 1 .86-1.48M77.883 116.782l40.473-23.368c.476-.276.865-.05.865.512v.343a1.917 1.917 0 0 1-.865 1.495l-40.473 23.368c-.477.277-.86.051-.86-.512v-.343a1.91 1.91 0 0 1 .86-1.495M77.883 122.655l40.473-23.368c.476-.277.865-.056.865.512v.343a1.902 1.902 0 0 1-.865 1.49l-40.473 23.373c-.477.276-.86.051-.86-.512v-.343a1.9 1.9 0 0 1 .86-1.495M77.883 128.486l40.473-23.372c.476-.277.865-.052.865.512v.343a1.91 1.91 0 0 1-.865 1.495l-40.473 23.357c-.477.271-.86.051-.86-.512v-.343a1.9 1.9 0 0 1 .86-1.48M77.883 134.313l40.473-23.357c.476-.272.865-.052.865.512v.343a1.896 1.896 0 0 1-.865 1.49l-40.473 23.372c-.477.277-.86.052-.86-.512v-.343a1.9 1.9 0 0 1 .86-1.505M77.883 140.139l40.473-23.367c.476-.277.865-.051.865.512v.327a1.9 1.9 0 0 1-.865 1.495l-40.473 23.368c-.477.277-.86.056-.86-.512v-.343a1.9 1.9 0 0 1 .86-1.48M77.883 145.971l40.473-23.372c.476-.272.865-.052.865.512v.348a1.896 1.896 0 0 1-.865 1.49l-40.473 23.383c-.477.276-.86.051-.86-.512v-.343a1.9 1.9 0 0 1 .86-1.506M77.883 151.824l40.473-23.368c.476-.277.865-.051.865.512v.343a1.911 1.911 0 0 1-.865 1.495l-40.473 23.368c-.477.276-.86.051-.86-.512v-.343a1.91 1.91 0 0 1 .86-1.495M77.883 157.655l40.473-23.373c.476-.276.865-.051.865.512v.343a1.9 1.9 0 0 1-.865 1.495l-40.473 23.373c-.477.271-.86.051-.86-.512v-.348a1.9 1.9 0 0 1 .86-1.49M77.883 163.481l40.473-23.342c.476-.276.865-.056.865.512v.343a1.9 1.9 0 0 1-.865 1.495l-40.473 23.368c-.477.277-.86.051-.86-.512v-.343a1.9 1.9 0 0 1 .86-1.521M72.43 174.771a1.825 1.825 0 0 1-2.475-.764 1.83 1.83 0 0 1-.208-.925V90.839c.014-.34.113-.67.287-.963l1.838 1.06a1.96 1.96 0 0 0-.292.958v82.247c0 .574.374.815.85.63" style="fill:#e0e0e0;fill:color(display-p3 .8784 .8784 .8784);fill-opacity:1"/><path fill="#F7921E" d="m141.493 77.46-13.639 59.095-1.26 5.433a6.27 6.27 0 0 1-2.606 3.527l-80.937 46.7a4.2 4.2 0 0 1-1.915.512 3.9 3.9 0 0 1-2.099-.44l.42-1.803c0-.056 0-.112.04-.174l.457-1.976 1.96-8.571 12.54-54.308a.8.8 0 0 1 .076-.199q.05-.093.108-.18v-.03q.132-.177.317-.297l69.12-39.906L139.2 76.11a.92.92 0 0 1 .834 0l1.116.645a.69.69 0 0 1 .343.706" style="fill:#f7921e;fill:color(display-p3 .9686 .5725 .1176);fill-opacity:1"/><path fill="#000" d="m141.493 77.46-13.639 59.095-1.26 5.433a6.27 6.27 0 0 1-2.606 3.527l-80.937 46.7a4.2 4.2 0 0 1-1.915.512 3.9 3.9 0 0 1-2.099-.44l.42-1.803c0-.056 0-.112.04-.174l.457-1.976 1.96-8.571 12.54-54.308a.8.8 0 0 1 .076-.199q.05-.093.108-.18v-.03q.132-.177.317-.297l69.12-39.906L139.2 76.11a.92.92 0 0 1 .834 0l1.116.645a.69.69 0 0 1 .343.706" opacity=".3" style="fill:#000;fill-opacity:1"/><path fill="#F7921E" d="M141.509 77.338c0-.164-.133-.22-.318-.108l-84.254 48.64a1.1 1.1 0 0 0-.318.292l-1.94-1.121q.132-.177.317-.297l84.245-48.64a.92.92 0 0 1 .834 0l1.116.645a.7.7 0 0 1 .233.255.7.7 0 0 1 .085.334" style="fill:#f7921e;fill:color(display-p3 .9686 .5725 .1176);fill-opacity:1"/><path fill="#000" d="M141.509 77.338c0-.164-.133-.22-.318-.108l-84.254 48.64a1.1 1.1 0 0 0-.318.292l-1.94-1.121q.132-.177.317-.297l84.245-48.64a.92.92 0 0 1 .834 0l1.116.645a.7.7 0 0 1 .233.255.7.7 0 0 1 .085.334" opacity=".2" style="fill:#000;fill-opacity:1"/><path fill="#F7921E" d="M56.62 126.167a2 2 0 0 0-.144.236 2 2 0 0 0-.062.174l-11.99 51.932-2.51 10.946-.317 1.368-.44 1.899a3.9 3.9 0 0 1-2.1-.44l.42-1.803c0-.056 0-.112.041-.174l.456-1.976 1.94-8.566 12.54-54.308a.8.8 0 0 1 .076-.199q.05-.093.108-.179v-.031z" style="fill:#f7921e;fill:color(display-p3 .9686 .5725 .1176);fill-opacity:1"/><path fill="#000" d="M56.62 126.167a2 2 0 0 0-.144.236 2 2 0 0 0-.062.174l-11.99 51.932-2.51 10.946-.317 1.368-.44 1.899a3.9 3.9 0 0 1-2.1-.44l.42-1.803c0-.056 0-.112.041-.174l.456-1.976 1.94-8.566 12.54-54.308a.8.8 0 0 1 .076-.199q.05-.093.108-.179v-.031z" opacity=".5" style="fill:#000;fill-opacity:1"/><path fill="#F7921E" d="M42.007 187.274a.54.54 0 0 1 .256.589l-.686 2.965-.343 1.479a.51.51 0 0 1-.553.42 3.65 3.65 0 0 1-1.644-.44 4.43 4.43 0 0 1-1.94-3.507v-3.405a.544.544 0 0 1 .809-.471l.865.512a.54.54 0 0 1 .266.466v1.694a.538.538 0 0 0 1.065.123l.144-.629a.534.534 0 0 1 .555-.415.54.54 0 0 1 .238.071z" style="fill:#f7921e;fill:color(display-p3 .9686 .5725 .1176);fill-opacity:1"/><path fill="#000" d="M42.007 187.274a.54.54 0 0 1 .256.589l-.686 2.965-.343 1.479a.51.51 0 0 1-.553.42 3.65 3.65 0 0 1-1.644-.44 4.43 4.43 0 0 1-1.94-3.507v-3.405a.544.544 0 0 1 .809-.471l.865.512a.54.54 0 0 1 .266.466v1.694a.538.538 0 0 0 1.065.123l.144-.629a.534.534 0 0 1 .555-.415.54.54 0 0 1 .238.071z" opacity=".5" style="fill:#000;fill-opacity:1"/><path fill="#FAFAFA" d="M78.02 178.985a2.1 2.1 0 0 1-.916-1.659V95.084a2.14 2.14 0 0 1 .978-1.69l52.367-30.208a1.836 1.836 0 0 1 2.585.665c.161.293.24.624.226.958v82.237a2.15 2.15 0 0 1-.978 1.695l-52.367 30.208a2.11 2.11 0 0 1-1.895.036" style="fill:#fafafa;fill:color(display-p3 .9804 .9804 .9804);fill-opacity:1"/><path fill="#E0E0E0" d="M79.802 179.016a2.051 2.051 0 0 1-1.766-.031 2.09 2.09 0 0 1-.917-1.654V95.083c.014-.341.112-.674.287-.967l1.833 1.06c-.177.29-.276.622-.287.962v82.253c-.015.568.338.829.85.625M87.492 90.076 124.27 68.86v8.479L87.492 98.57zM84.308 103.92l11.878-6.865c.272-.16.512-.047.512.245a1.02 1.02 0 0 1-.512.814l-11.878 6.866c-.272.159-.512.046-.512-.245a1.02 1.02 0 0 1 .512-.815M84.308 106.045l11.878-6.865c.272-.16.512-.047.512.245a1.06 1.06 0 0 1-.512.814l-11.878 6.866c-.272.154-.512.046-.512-.251a1.03 1.03 0 0 1 .512-.809M84.308 108.165l11.878-6.866c.272-.153.512-.046.512.251a1.06 1.06 0 0 1-.512.814l-11.878 6.866c-.272.154-.512.046-.512-.251a1.06 1.06 0 0 1 .512-.814M84.308 110.29l11.878-6.866c.272-.154.512-.046.512.246a1.03 1.03 0 0 1-.512.814l-11.878 6.866c-.272.158-.512.046-.512-.246a1.06 1.06 0 0 1 .512-.814M84.308 169.743l44.989-25.974c.272-.158.512-.046.512.246a1.03 1.03 0 0 1-.512.814l-44.99 25.979c-.27.154-.511.041-.511-.251a1.06 1.06 0 0 1 .512-.814M84.308 171.884l44.989-25.979c.272-.154.512-.041.512.251a1.04 1.04 0 0 1-.512.814l-44.99 25.938c-.27.158-.511.046-.511-.246a1.02 1.02 0 0 1 .512-.778M113.236 87.214 127.93 78.7c.267-.154.487-.041.487.25a1.06 1.06 0 0 1-.487.814l-14.694 8.515c-.271.154-.486.046-.486-.25a1.047 1.047 0 0 1 .486-.814M113.236 89.339l14.694-8.494c.267-.154.487-.046.487.25a1.06 1.06 0 0 1-.487.815l-14.694 8.489c-.271.158-.486.046-.486-.246a1.046 1.046 0 0 1 .486-.814M113.236 91.464l14.694-8.494c.267-.16.487-.046.487.245a1.03 1.03 0 0 1-.487.814l-14.694 8.495c-.271.158-.486.046-.486-.246a1.01 1.01 0 0 1 .486-.814M113.236 93.589l14.694-8.494c.267-.16.487-.046.487.245a1.05 1.05 0 0 1-.487.814l-14.694 8.495c-.271.153-.486.046-.486-.251a1.02 1.02 0 0 1 .486-.81" style="fill:#e0e0e0;fill:color(display-p3 .8784 .8784 .8784);fill-opacity:1"/><path fill="#F7921E" d="m83.816 126.5 45.973-26.542v1.06L83.816 127.56z" style="fill:#f7921e;fill:color(display-p3 .9686 .5725 .1176);fill-opacity:1"/><path fill="#000" d="m83.816 126.5 45.973-26.542v1.06L83.816 127.56z" opacity=".2" style="fill:#000;fill-opacity:1"/><path fill="#F7921E" d="m83.816 154.102 45.973-26.542v1.059l-45.973 26.542z" style="fill:#f7921e;fill:color(display-p3 .9686 .5725 .1176);fill-opacity:1"/><path fill="#000" d="m83.816 154.102 45.973-26.542v1.059l-45.973 26.542z" opacity=".2" style="fill:#000;fill-opacity:1"/><path fill="#F7921E" d="m83.816 129.685 16.548-9.56v2.125l-16.548 9.554zM104.045 118.006l7.353-4.25v2.125l-7.353 4.245zM113.236 112.696l7.357-4.249v2.125l-7.357 4.249zM122.431 107.387l7.358-4.244v2.119l-7.358 4.25z" style="fill:#f7921e;fill:color(display-p3 .9686 .5725 .1176);fill-opacity:1"/><path fill="#E6E6E6" d="m83.816 136.054 45.973-26.542v4.244l-45.973 26.542zM83.816 144.548l45.973-26.542v4.244l-45.973 26.542z" style="fill:#e6e6e6;fill:color(display-p3 .902 .902 .902);fill-opacity:1"/><path fill="#455A64" d="M85.655 133.207a.34.34 0 0 1-.321-.254.35.35 0 0 1 .151-.381l12.872-7.429a.35.35 0 0 1 .258-.033.35.35 0 0 1 .206.159.33.33 0 0 1 .033.257.34.34 0 0 1-.159.206l-12.871 7.429a.34.34 0 0 1-.17.046M105.884 120.617a.24.24 0 0 1-.115-.031.222.222 0 0 1-.067-.333.2.2 0 0 1 .069-.056l5.514-3.184a.226.226 0 0 1 .307.081.22.22 0 0 1 .027.172.2.2 0 0 1-.04.079.2.2 0 0 1-.069.057l-5.514 3.184a.23.23 0 0 1-.112.031M105.884 122.138a.26.26 0 0 1-.115-.031.25.25 0 0 1-.085-.082.23.23 0 0 1-.023-.175.23.23 0 0 1 .11-.137l5.514-3.185a.226.226 0 0 1 .307.082.227.227 0 0 1 .028.174.2.2 0 0 1-.041.081.2.2 0 0 1-.069.057l-5.514 3.185a.23.23 0 0 1-.112.031M115.079 116.106a.2.2 0 0 1-.115-.029.23.23 0 0 1-.085-.083.23.23 0 0 1-.022-.171.23.23 0 0 1 .104-.137l5.52-3.194a.2.2 0 0 1 .083-.03.2.2 0 0 1 .088.005.2.2 0 0 1 .079.039.23.23 0 0 1-.025.375l-5.514 3.195a.24.24 0 0 1-.113.03M124.27 110.797a.22.22 0 0 1-.195-.113.22.22 0 0 1-.022-.17.22.22 0 0 1 .104-.137l5.519-3.185a.22.22 0 0 1 .176-.032q.046.01.083.039a.2.2 0 0 1 .061.068.22.22 0 0 1-.022.258.2.2 0 0 1-.072.056l-5.52 3.19a.2.2 0 0 1-.112.026M85.655 137.457a.35.35 0 0 1-.203-.074.35.35 0 0 1-.105-.396.35.35 0 0 1 .139-.165l9.215-5.309a.343.343 0 0 1 .505.248.34.34 0 0 1-.166.34l-9.217 5.31a.34.34 0 0 1-.168.046M105.884 124.867a.241.241 0 0 1-.2-.113.23.23 0 0 1 .087-.312l5.514-3.185a.226.226 0 0 1 .307.082.227.227 0 0 1 .028.174.3.3 0 0 1-.04.081.2.2 0 0 1-.069.057l-5.515 3.185a.23.23 0 0 1-.112.031M105.884 126.382a.24.24 0 0 1-.115-.031.222.222 0 0 1-.067-.333.2.2 0 0 1 .069-.056l5.514-3.184a.216.216 0 0 1 .307.082.2.2 0 0 1 .027.171.2.2 0 0 1-.04.079.2.2 0 0 1-.069.057l-5.514 3.184a.23.23 0 0 1-.112.031M115.079 120.356a.228.228 0 0 1-.118-.425l5.52-3.185a.225.225 0 0 1 .33.255.23.23 0 0 1-.105.14l-5.514 3.184a.24.24 0 0 1-.113.031M124.269 115.051a.22.22 0 0 1-.194-.112.233.233 0 0 1 .082-.313l5.519-3.184a.23.23 0 0 1 .171-.023.227.227 0 0 1 .159.278.23.23 0 0 1-.105.139l-5.519 3.185a.2.2 0 0 1-.113.03M85.655 141.701a.34.34 0 0 1-.321-.255.34.34 0 0 1 .151-.38l14.71-8.494a.344.344 0 0 1 .508.253.35.35 0 0 1-.07.25.3.3 0 0 1-.1.086l-14.71 8.514a.34.34 0 0 1-.168.026M105.884 129.111a.24.24 0 0 1-.115-.031.222.222 0 0 1-.067-.333.2.2 0 0 1 .069-.056l5.514-3.184a.23.23 0 0 1 .171-.023.23.23 0 0 1 .136.105.2.2 0 0 1 .027.171.2.2 0 0 1-.04.079.2.2 0 0 1-.069.057l-5.514 3.184a.2.2 0 0 1-.112.031M105.884 130.632a.26.26 0 0 1-.115-.031.25.25 0 0 1-.085-.082.23.23 0 0 1-.023-.175.23.23 0 0 1 .11-.137l5.514-3.185a.227.227 0 1 1 .225.394l-5.514 3.185a.23.23 0 0 1-.112.031M115.079 124.601q-.061 0-.115-.029a.24.24 0 0 1-.085-.084.226.226 0 0 1 .082-.307l5.52-3.185a.2.2 0 0 1 .083-.031.2.2 0 0 1 .088.004.2.2 0 0 1 .08.04.2.2 0 0 1 .056.069c.03.052.038.113.022.171a.22.22 0 0 1-.104.136l-5.514 3.185a.25.25 0 0 1-.113.031M124.27 119.291a.225.225 0 0 1-.113-.42l5.519-3.185a.232.232 0 0 1 .176-.032q.046.01.083.039a.2.2 0 0 1 .061.068.2.2 0 0 1 .029.087.22.22 0 0 1-.052.171.2.2 0 0 1-.071.057l-5.52 3.184a.2.2 0 0 1-.112.031M85.655 145.951a.35.35 0 0 1-.321-.255.34.34 0 0 1 .151-.38l7.358-4.25a.34.34 0 0 1 .258-.033.337.337 0 0 1 .239.416.34.34 0 0 1-.16.206l-7.357 4.249a.35.35 0 0 1-.168.047M105.884 133.361a.24.24 0 0 1-.115-.031.25.25 0 0 1-.085-.082.23.23 0 0 1-.023-.174.2.2 0 0 1 .041-.08.2.2 0 0 1 .069-.058l5.514-3.185a.227.227 0 0 1 .307.082.227.227 0 0 1 .028.174.22.22 0 0 1-.11.139l-5.514 3.184a.23.23 0 0 1-.112.031M105.884 134.876a.235.235 0 0 1-.2-.112.223.223 0 0 1-.023-.173.224.224 0 0 1 .11-.135l5.514-3.184a.22.22 0 0 1 .176-.032.225.225 0 0 1 .049.421l-5.514 3.185a.23.23 0 0 1-.112.03M115.079 128.876q-.061 0-.115-.029a.228.228 0 0 1-.003-.396l5.52-3.185a.225.225 0 0 1 .33.255.23.23 0 0 1-.105.139l-5.514 3.185a.25.25 0 0 1-.113.031M124.269 123.541a.23.23 0 0 1-.194-.113.23.23 0 0 1 .082-.312l5.519-3.185a.23.23 0 0 1 .171-.023.227.227 0 0 1 .159.278.23.23 0 0 1-.105.139l-5.519 3.185a.2.2 0 0 1-.113.031M85.655 150.195a.34.34 0 0 1-.321-.254.35.35 0 0 1 .151-.381l12.872-7.429a.34.34 0 0 1 .264-.048q.07.016.125.058a.33.33 0 0 1 .135.232.34.34 0 0 1-.186.342l-12.871 7.434a.34.34 0 0 1-.17.046M105.884 137.605a.24.24 0 0 1-.115-.031.222.222 0 0 1-.067-.333.2.2 0 0 1 .069-.056l5.514-3.19a.23.23 0 0 1 .171-.024.2.2 0 0 1 .079.039.2.2 0 0 1 .057.067.22.22 0 0 1 .027.172.2.2 0 0 1-.04.079.2.2 0 0 1-.069.057l-5.514 3.194a.23.23 0 0 1-.112.026M105.884 139.116a.236.236 0 0 1-.229-.202.22.22 0 0 1 .116-.223l5.514-3.159a.226.226 0 0 1 .307.081.22.22 0 0 1 .027.172.2.2 0 0 1-.04.079.2.2 0 0 1-.069.057l-5.514 3.195a.24.24 0 0 1-.112 0M115.079 133.094a.226.226 0 0 1-.2-.112.226.226 0 0 1 .082-.307l5.52-3.19a.22.22 0 0 1 .307.087.22.22 0 0 1 .022.17.22.22 0 0 1-.104.137l-5.514 3.185a.24.24 0 0 1-.113.03M124.27 127.785a.225.225 0 0 1-.113-.42l5.519-3.185a.23.23 0 0 1 .171-.024.215.215 0 0 1 .136.106.227.227 0 0 1-.081.308l-5.52 3.184a.2.2 0 0 1-.112.031M115.079 139.464a.2.2 0 0 1-.115-.029.24.24 0 0 1-.085-.084.225.225 0 0 1 .082-.307l5.52-3.185a.2.2 0 0 1 .085-.034.232.232 0 0 1 .174.04.24.24 0 0 1 .09.155.3.3 0 0 1-.008.092.23.23 0 0 1-.116.136l-5.514 3.185a.24.24 0 0 1-.113.031M124.27 134.154a.225.225 0 0 1-.113-.42l5.519-3.184a.2.2 0 0 1 .085-.035.23.23 0 0 1 .174.041.2.2 0 0 1 .061.068.2.2 0 0 1 .029.087.216.216 0 0 1-.052.171.2.2 0 0 1-.071.057l-5.515 3.184a.23.23 0 0 1-.117.031M115.079 141.589a.2.2 0 0 1-.115-.029.24.24 0 0 1-.085-.084.225.225 0 0 1 .082-.307l5.52-3.19a.225.225 0 0 1 .309.085.225.225 0 0 1-.084.309l-5.514 3.185a.24.24 0 0 1-.113.031M124.27 136.279a.225.225 0 0 1-.113-.42l5.519-3.184a.216.216 0 0 1 .307.082.224.224 0 0 1-.081.307l-5.515 3.184a.23.23 0 0 1-.117.031" style="fill:#455a64;fill:color(display-p3 .2706 .3529 .3922);fill-opacity:1"/><path fill="#F7921E" d="m129.789 134.994-29.425 16.983v6.369l29.425-16.983z" style="fill:#f7921e;fill:color(display-p3 .9686 .5725 .1176);fill-opacity:1"/><path fill="#FAFAFA" d="M105.878 150.297a.049.049 0 0 1 .062 0 .1.1 0 0 1 0 .077v.512a.3.3 0 0 1 0 .108.1.1 0 0 1-.024.042.1.1 0 0 1-.038.029l-.552.323v2.483a.2.2 0 0 1 0 .103.2.2 0 0 1-.057.076l-.415.236a.03.03 0 0 1-.013.01q-.008.004-.017.004l-.017-.004-.014-.01a.1.1 0 0 1 0-.077v-2.483l-.558.322a.04.04 0 0 1-.028.01.04.04 0 0 1-.028-.01.1.1 0 0 1-.026-.076v-.512a.3.3 0 0 1 .026-.108.2.2 0 0 1 .056-.077zM106.139 151.404q.01-.284.077-.558a2.4 2.4 0 0 1 .492-.968q.175-.205.409-.338a.9.9 0 0 1 .41-.133.44.44 0 0 1 .302.107.67.67 0 0 1 .195.302q.072.23.076.472v.86a2.6 2.6 0 0 1-.076.553 2.7 2.7 0 0 1-.195.512 2.3 2.3 0 0 1-.302.455 1.7 1.7 0 0 1-.41.338.87.87 0 0 1-.409.133.44.44 0 0 1-.302-.107.65.65 0 0 1-.19-.307 1.6 1.6 0 0 1-.077-.466v-.42c0-.149-.005-.287 0-.435m1.378.041v-.8140000000000001a1 1 0 0 0-.031-.205.4.4 0 0 0-.077-.133.16.16 0 0 0-.123-.046.3.3 0 0 0-.169.051.6.6 0 0 0-.169.143.9.9 0 0 0-.194.41 1.2 1.2 0 0 0-.036.24v.8140000000000001a.57.57 0 0 0 .108.338c.066.072.163.067.291 0a.68.68 0 0 0 .292-.322c.062-.148.099-.306.108-.466zM110.046 147.891a.1.1 0 0 1 .031-.009q.017 0 .031.009a.1.1 0 0 1 .025.077v.512a.3.3 0 0 1-.025.108.3.3 0 0 1-.062.077l-.553.317v2.483a.3.3 0 0 1-.025.108.14.14 0 0 1-.062.071l-.409.236h-.062a.1.1 0 0 1 0-.077v-2.483l-.553.317a.056.056 0 0 1-.061 0 .1.1 0 0 1 0-.076v-.512a.25.25 0 0 1 0-.108.2.2 0 0 1 .061-.072zM111.357 147.134a.08.08 0 0 1 .048-.016q.028 0 .049.016a.2.2 0 0 1 .046.082l.686 2.652a.4.4 0 0 1 0 .066.2.2 0 0 1 0 .087.13.13 0 0 1-.051.057l-.394.23q-.062.039-.092 0a.1.1 0 0 1-.031-.061l-.087-.349-.835.482-.092.45a.3.3 0 0 1-.031.103.23.23 0 0 1-.092.092l-.394.23a.03.03 0 0 1-.023.009.03.03 0 0 1-.023-.009.08.08 0 0 1 0-.061.3.3 0 0 1 0-.082l.686-3.446a.4.4 0 0 1 .046-.133.23.23 0 0 1 .092-.107zm-.512 2.411.512-.292-.256-1.024zM113.994 148.229a.03.03 0 0 1 .012-.01q.007-.004.016-.004.008 0 .015.004.008.004.013.01a.11.11 0 0 1 .026.077v.512a.3.3 0 0 1-.026.107.14.14 0 0 1-.056.072l-1.46.87a.02.02 0 0 1-.012.01.03.03 0 0 1-.016.004.03.03 0 0 1-.015-.004.03.03 0 0 1-.013-.01.1.1 0 0 1-.022-.035.1.1 0 0 1-.003-.041v-3.124a.2.2 0 0 1 .025-.107.2.2 0 0 1 .056-.077l.415-.235a.04.04 0 0 1 .057 0 .1.1 0 0 1 0 .076v2.484zM120.588 141.737a.5.5 0 0 1 .272 0c.073.014.141.05.194.102a.5.5 0 0 1 .118.185q.043.106.051.22a.24.24 0 0 1 0 .107.1.1 0 0 1-.024.042.1.1 0 0 1-.037.03l-.221.128h-.081a.2.2 0 0 1-.047-.056.26.26 0 0 0-.143-.128.4.4 0 0 0-.287.076 1 1 0 0 0-.153.113.7.7 0 0 0-.128.154.8.8 0 0 0-.087.174.6.6 0 0 0-.031.184.3.3 0 0 0 .031.159.14.14 0 0 0 .112.056.6.6 0 0 0 .2 0l.292-.066q.159-.042.322-.036a.33.33 0 0 1 .215.082.4.4 0 0 1 .118.199q.04.164.036.333a1.66 1.66 0 0 1-.184.758 1.9 1.9 0 0 1-.512.635v.327a.2.2 0 0 1-.026.108.2.2 0 0 1-.056.072l-.256.148a.05.05 0 0 1-.031.01.05.05 0 0 1-.031-.01.1.1 0 0 1-.025-.077v-.327a.7.7 0 0 1-.266.035.37.37 0 0 1-.215-.071.43.43 0 0 1-.149-.179.8.8 0 0 1-.061-.303.2.2 0 0 1 0-.107.2.2 0 0 1 .061-.072l.22-.128c.036 0 .062-.025.082 0s.036.026.046.057a1 1 0 0 0 .057.097c.018.03.048.052.081.061q.067.016.134 0a.6.6 0 0 0 .199-.087q.098-.052.185-.123a.95.95 0 0 0 .261-.353.56.56 0 0 0 .033-.289.2.2 0 0 0-.038-.069.17.17 0 0 0-.134-.036.8.8 0 0 0-.22.036l-.307.061a.7.7 0 0 1-.271 0 .3.3 0 0 1-.195-.082.44.44 0 0 1-.118-.205 1.4 1.4 0 0 1-.035-.353 1.5 1.5 0 0 1 .046-.379 2 2 0 0 1 .133-.363q.078-.178.199-.328.113-.149.251-.271v-.328a.3.3 0 0 1 .026-.107.14.14 0 0 1 .061-.072l.256-.149a.05.05 0 0 1 .029-.009q.015 0 .028.009.016.015.022.036a.1.1 0 0 1 .003.041zM122.774 140.477a.6.6 0 0 1 .272 0 .5.5 0 0 1 .194.103.5.5 0 0 1 .118.189q.046.106.046.22.015.055 0 .108a.2.2 0 0 1-.061.072l-.22.128c-.036 0-.062.025-.082 0a.12.12 0 0 1-.046-.057.261.261 0 0 0-.144-.128c-.066 0-.159 0-.287.072a1 1 0 0 0-.153.118.7.7 0 0 0-.128.153.6.6 0 0 0-.087.174.5.5 0 0 0-.031.18.33.33 0 0 0 .031.163.156.156 0 0 0 .112.057 1 1 0 0 0 .2 0l.292-.067a1 1 0 0 1 .317-.036.36.36 0 0 1 .215.077.4.4 0 0 1 .123.205q.038.164.036.333.001.192-.051.379c-.063.264-.183.51-.353.722a1.8 1.8 0 0 1-.292.286v.308a.25.25 0 0 1-.026.107.16.16 0 0 1-.061.077l-.251.143h-.061a.13.13 0 0 1 0-.082v-.327a.7.7 0 0 1-.267.041.416.416 0 0 1-.363-.256.7.7 0 0 1-.067-.297.2.2 0 0 1 .026-.108.1.1 0 0 1 .023-.042.2.2 0 0 1 .038-.03l.22-.128a.12.12 0 0 1 .082 0 .1.1 0 0 1 .03.026.1.1 0 0 1 .016.036.4.4 0 0 0 .057.097.2.2 0 0 0 .082.062q.066.015.133 0a.6.6 0 0 0 .199-.082q.098-.057.185-.128a1 1 0 0 0 .261-.349.6.6 0 0 0 .041-.209.19.19 0 0 0-.046-.149.2.2 0 0 0-.063-.034q-.034-.011-.07-.007a2 2 0 0 0-.221.036l-.307.067a.9.9 0 0 1-.271 0 .36.36 0 0 1-.2-.082.46.46 0 0 1-.112-.21 1.3 1.3 0 0 1-.036-.354 1.6 1.6 0 0 1 .02-.378 1.85 1.85 0 0 1 .584-.963v-.328a.3.3 0 0 1 0-.107.12.12 0 0 1 .061-.072l.251-.148h.062a.1.1 0 0 1 .025.076zM124.961 139.218a.5.5 0 0 1 .271 0 .4.4 0 0 1 .195.103.5.5 0 0 1 .117.184.8.8 0 0 1 .046.225.237.237 0 0 1-.081.179l-.221.123c-.035.026-.066.026-.082 0a.1.1 0 0 1-.051-.056.247.247 0 0 0-.143-.128.4.4 0 0 0-.282.077.86.86 0 0 0-.373.44.6.6 0 0 0-.031.184.3.3 0 0 0 .036.159.13.13 0 0 0 .112.056.7.7 0 0 0 .2 0l.292-.071q.156-.042.317-.036a.349.349 0 0 1 .333.287q.04.163.036.332a1.7 1.7 0 0 1-.184.753q-.087.185-.215.343a2 2 0 0 1-.292.292v.328a.3.3 0 0 1-.026.107.1.1 0 0 1-.023.042.2.2 0 0 1-.038.03l-.256.148a.04.04 0 0 1-.028.011.04.04 0 0 1-.029-.011.1.1 0 0 1-.025-.077v-.327a.6.6 0 0 1-.266.036.44.44 0 0 1-.216-.067.46.46 0 0 1-.153-.184.9.9 0 0 1-.062-.302.2.2 0 0 1 .026-.108.2.2 0 0 1 .061-.072l.221-.128h.082a.14.14 0 0 1 .046.062 1 1 0 0 0 .051.092q.032.046.087.062c.043.013.09.013.133 0a.7.7 0 0 0 .2-.082l.184-.128q.085-.075.154-.164.06-.088.107-.185a.6.6 0 0 0 .041-.209.2.2 0 0 0-.046-.154.17.17 0 0 0-.133-.036 1 1 0 0 0-.22.036l-.307.061a.9.9 0 0 1-.277.026.33.33 0 0 1-.195-.087.44.44 0 0 1-.112-.205 1.4 1.4 0 0 1-.041-.353 1.4 1.4 0 0 1 .051-.379 1.84 1.84 0 0 1 .584-.963v-.368a.3.3 0 0 1 .025-.108.2.2 0 0 1 .057-.071l.256-.149a.05.05 0 0 1 .03-.01.05.05 0 0 1 .031.01.1.1 0 0 1 .026.077zM127.147 137.953a.5.5 0 0 1 .266 0 .37.37 0 0 1 .195.102.5.5 0 0 1 .123.185.8.8 0 0 1 .046.22.2.2 0 0 1-.026.107.12.12 0 0 1-.061.072l-.22.128q-.057.031-.077 0a.13.13 0 0 1-.051-.056.238.238 0 0 0-.144-.128.35.35 0 0 0-.281.072q-.085.052-.159.117a1 1 0 0 0-.128.154.8.8 0 0 0-.087.174.6.6 0 0 0-.031.179.28.28 0 0 0 .036.164.13.13 0 0 0 .113.056q.097.018.194 0l.297-.066a.9.9 0 0 1 .318-.036.37.37 0 0 1 .215.077.4.4 0 0 1 .117.205q.04.163.036.332 0 .196-.046.384-.047.195-.138.374-.09.182-.215.343a1.8 1.8 0 0 1-.292.287v.333a.3.3 0 0 1-.026.107.3.3 0 0 1-.061.072l-.256.148a.04.04 0 0 1-.028.01.04.04 0 0 1-.028-.01.08.08 0 0 1-.026-.076v-.333a.7.7 0 0 1-.266.041.45.45 0 0 1-.22-.072.5.5 0 0 1-.149-.179.9.9 0 0 1-.061-.302.17.17 0 0 1 .025-.108.1.1 0 0 1 .024-.042.1.1 0 0 1 .038-.029l.22-.128a.1.1 0 0 1 .038-.011q.021 0 .039.011s.036 0 .051.056a.4.4 0 0 0 .051.097.16.16 0 0 0 .087.062q.067.015.133 0a.6.6 0 0 0 .2-.082q.096-.054.179-.128a1 1 0 0 0 .159-.159 1 1 0 0 0 .102-.19.46.46 0 0 0 .041-.209.23.23 0 0 0-.041-.149.2.2 0 0 0-.133-.041 2 2 0 0 0-.225.036q-.15.041-.302.067a1 1 0 0 1-.277 0 .33.33 0 0 1-.194-.082.4.4 0 0 1-.113-.21 1.561 1.561 0 0 1 .005-.727q.05-.188.133-.364a2 2 0 0 1 .2-.328q.115-.148.256-.271v-.328a.2.2 0 0 1 .026-.107q.016-.046.056-.072l.256-.148a.04.04 0 0 1 .031-.012q.017 0 .03.012a.1.1 0 0 1 .026.077z" style="fill:#fafafa;fill:color(display-p3 .9804 .9804 .9804);fill-opacity:1"/><path fill="#455A64" d="M85.655 160.696a.21.21 0 0 1-.195-.112.227.227 0 0 1 .082-.308l11.034-6.369a.22.22 0 0 1 .17-.025.2.2 0 0 1 .08.04.2.2 0 0 1 .057.067.224.224 0 0 1-.082.307l-11.034 6.375a.2.2 0 0 1-.112.025M85.655 162.821a.223.223 0 0 1-.207-.311.23.23 0 0 1 .094-.109l11.034-6.389a.2.2 0 0 1 .083-.032.215.215 0 0 1 .224.114.224.224 0 0 1-.082.307l-11.034 6.369a.2.2 0 0 1-.112.051M85.654 164.946a.23.23 0 0 1-.112-.03.23.23 0 0 1 0-.395l11.033-6.369a.226.226 0 0 1 .308.082.23.23 0 0 1-.082.312l-11.034 6.369a.2.2 0 0 1-.113.031" style="fill:#455a64;fill:color(display-p3 .2706 .3529 .3922);fill-opacity:1"/><path fill="#AD6615" d="M204.565 181.401V178.1a.18.18 0 0 1 .034-.118.144.144 0 0 1 .101-.034h.754c.266-.02.532.055.749.211a.888.888 0 0 1 .241.686c.005.185-.037.369-.123.533a.85.85 0 0 1-.343.326v.004a.42.42 0 0 1 .178.199q.1.206.169.423l.322.999a.2.2 0 0 1 0 .072q-.001.081-.199.08h-.085a.4.4 0 0 1-.127 0 .114.114 0 0 1-.063-.059l-.305-.995a.84.84 0 0 0-.207-.393.46.46 0 0 0-.334-.106h-.322v1.473q.001.108-.194.11h-.068c-.114-.022-.178-.06-.178-.11m.965-1.849a.38.38 0 0 0 .313-.187.76.76 0 0 0 .127-.423.66.66 0 0 0-.123-.444.42.42 0 0 0-.347-.148h-.482v1.218zM208.636 161.738q-1.574 1.6-4.566 2.048v2.941h-3.177v-2.835a16.5 16.5 0 0 1-3.757-.673 10.8 10.8 0 0 1-2.937-1.328l1.718-3.863c.895.575 1.866 1.02 2.886 1.324 1.045.326 2.133.495 3.228.499 2.014 0 3.017-.499 3.017-1.506a1.245 1.245 0 0 0-.846-1.176 15.7 15.7 0 0 0-2.763-.808 26.6 26.6 0 0 1-3.495-.965 5.94 5.94 0 0 1-2.408-1.654 4.47 4.47 0 0 1-1.007-3.072 5.311 5.311 0 0 1 1.642-3.905q1.638-1.625 4.735-1.998v-2.911h3.152v2.861c.981.082 1.951.26 2.898.529a10.6 10.6 0 0 1 2.475 1.032l-1.616 3.888a10.8 10.8 0 0 0-5.132-1.43 4.3 4.3 0 0 0-2.277.466 1.382 1.382 0 0 0-.715 1.201 1.19 1.19 0 0 0 .846 1.113c.883.341 1.795.599 2.725.77q1.788.359 3.508.965a6 6 0 0 1 2.407 1.642 4.37 4.37 0 0 1 1.02 3.054 5.241 5.241 0 0 1-1.561 3.791M207.921 181.41v-1.506l-.847-1.777a.2.2 0 0 1-.038-.093q0-.084.216-.085h.089a.5.5 0 0 1 .131 0q.046.019.068.064l.639 1.43.647-1.435a.1.1 0 0 1 .026-.038.1.1 0 0 1 .042-.021.6.6 0 0 1 .135 0h.068q.076.002.148.025a.1.1 0 0 1 .032.023.06.06 0 0 1 .015.037.2.2 0 0 1-.03.093l-.867 1.79v1.493c0 .076-.068.114-.195.114h-.072q-.207-.021-.207-.114M195.162 181.281a.1.1 0 0 1-.043-.043.14.14 0 0 1 0-.071.6.6 0 0 1 .03-.191q.036-.102.085-.101a.04.04 0 0 1 .033 0c.203.152.453.23.707.22a.59.59 0 0 0 .423-.157.532.532 0 0 0 .165-.423.5.5 0 0 0-.131-.372 1.6 1.6 0 0 0-.394-.267 4 4 0 0 1-.456-.258.9.9 0 0 1-.284-.305.84.84 0 0 1-.114-.461.94.94 0 0 1 .292-.732c.208-.183.48-.279.757-.266.217-.008.431.047.618.156a.064.064 0 0 1 .038.059.6.6 0 0 1-.047.187c-.033.084-.067.122-.097.122l-.063-.025a1.1 1.1 0 0 0-.474-.097.62.62 0 0 0-.423.139.485.485 0 0 0-.17.423.5.5 0 0 0 .14.368q.205.185.457.301.219.11.423.245a.88.88 0 0 1 .372.766.95.95 0 0 1-.296.745c-.21.183-.483.278-.761.266a1.33 1.33 0 0 1-.787-.228M197.226 181.416a.4.4 0 0 1 0-.068l.918-3.325c0-.064.089-.098.204-.098h.16q.185.001.203.098l.923 3.325a.3.3 0 0 1 0 .068.07.07 0 0 1-.015.038.1.1 0 0 1-.032.025.4.4 0 0 1-.139 0h-.089q-.16.001-.182-.08l-.22-.846h-1.049l-.212.846c0 .055-.076.08-.182.08h-.08c-.144.043-.208-.008-.208-.063m1.646-1.214-.359-1.392c0-.043-.03-.148-.055-.309h-.026a.6.6 0 0 0-.021.114l-.042.195-.36 1.392zM201.877 181.431a.3.3 0 0 1 0-.068l.918-3.325c0-.064.089-.098.203-.098h.161q.183.001.203.098l.922 3.325a.2.2 0 0 1 0 .068.1.1 0 0 1-.014.038.1.1 0 0 1-.032.026.5.5 0 0 1-.14 0h-.089q-.16 0-.182-.081l-.22-.846h-1.049l-.212.846c0 .055-.076.081-.182.081h-.08c-.144.042-.207-.009-.207-.064m1.646-1.214-.36-1.392c0-.043-.03-.148-.055-.309h-.025a.5.5 0 0 0-.022.114l-.042.195-.36 1.392zM200.075 181.467a.18.18 0 0 1-.034-.119v-3.313q0-.109.195-.11h.068q.195.001.194.11v3.068h1.058a.09.09 0 0 1 .076.034.2.2 0 0 1 .025.118v.081a.2.2 0 0 1-.025.118.1.1 0 0 1-.034.026.1.1 0 0 1-.042.008h-1.379a.14.14 0 0 1-.102-.021M199.22 101.524l4.278 15.964 1.705-2.653 1.54-2.411 2.509 1.324 2.759 1.46-4.278-15.964z" style="fill:#ad6615;fill:color(display-p3 .6784 .4 .0824);fill-opacity:1"/><path fill="#fff" d="m199.22 101.524 4.278 15.964 1.705-2.653 1.54-2.411 2.509 1.324 2.759 1.46-4.278-15.964z" opacity=".25" style="fill:#fff;fill-opacity:1"/><path fill="#AD6615" d="m203.9 113.6-3.275-12.228.415-.11 3.025 11.289 1.904-2.949 3.08 1.612-3.025-11.289.415-.11 3.279 12.232-3.601-1.883z" style="fill:#ad6615;fill:color(display-p3 .6784 .4 .0824);fill-opacity:1"/><path fill="#000" d="m203.9 113.6-3.275-12.228.415-.11 3.025 11.289 1.904-2.949 3.08 1.612-3.025-11.289.415-.11 3.279 12.232-3.601-1.883z" opacity=".2" style="fill:#000;fill-opacity:1"/><path fill="#AD6615" d="m202.436 113.532 3.182-11.885-3.428-.918-2.97.795z" opacity=".5" style="fill:#ad6615;fill:color(display-p3 .6784 .4 .0824);fill-opacity:1"/><path fill="#AD6615" d="m204.941 101.524-4.274 15.964-1.709-2.653-1.54-2.411-2.509 1.324-2.759 1.46 4.278-15.964z" style="fill:#ad6615;fill:color(display-p3 .6784 .4 .0824);fill-opacity:1"/><path fill="#fff" d="m204.941 101.524-4.274 15.964-1.709-2.653-1.54-2.411-2.509 1.324-2.759 1.46 4.278-15.964z" opacity=".5" style="fill:#fff;fill-opacity:1"/><path fill="#AD6615" d="m200.261 113.6-2.217-3.436-3.601 1.883 3.279-12.232.415.11-3.025 11.289 3.08-1.612 1.904 2.949 3.025-11.289.415.11z" style="fill:#ad6615;fill:color(display-p3 .6784 .4 .0824);fill-opacity:1"/><path fill="#AD6615" d="m207.733 99.244-5.653 1.514-5.652-1.514-1.426 5.322a1.79 1.79 0 0 0 1.578.33.5.5 0 0 1 .131-.021.53.53 0 0 1 .504.385 1.81 1.81 0 0 0 1.128 1.231 1.81 1.81 0 0 0 1.656-.215.52.52 0 0 1 .719.127 1.82 1.82 0 0 0 2.962 0 .53.53 0 0 1 .423-.22.5.5 0 0 1 .296.093 1.814 1.814 0 0 0 2.37-.262c.197-.215.339-.473.414-.754a.525.525 0 0 1 .504-.385.5.5 0 0 1 .131.021q.23.058.469.06a1.8 1.8 0 0 0 .902-.246z" opacity=".5" style="fill:#ad6615;fill:color(display-p3 .6784 .4 .0824);fill-opacity:1"/><path fill="#AD6615" d="M203.155 85.755a1.167 1.167 0 0 0 1.621.284 1.17 1.17 0 0 1 1.794.656 1.163 1.163 0 0 0 1.421.82 1.17 1.17 0 0 1 1.464 1.228c-.014.152.002.307.047.453s.119.284.218.401a1.16 1.16 0 0 0 .793.415 1.173 1.173 0 0 1 .952 1.654 1.164 1.164 0 0 0 .563 1.544 1.16 1.16 0 0 1 .651.854 1.175 1.175 0 0 1-.321 1.025 1.17 1.17 0 0 0 0 1.646 1.18 1.18 0 0 1 .321 1.025 1.164 1.164 0 0 1-.651.854 1.166 1.166 0 0 0-.563 1.544 1.16 1.16 0 0 1-.05 1.071 1.16 1.16 0 0 1-.902.579 1.18 1.18 0 0 0-1.01.816 1.2 1.2 0 0 0-.048.453 1.167 1.167 0 0 1-1.464 1.228 1.164 1.164 0 0 0-1.421.82 1.166 1.166 0 0 1-1.794.652 1.17 1.17 0 0 0-1.621.288 1.166 1.166 0 0 1-1.904 0 1.17 1.17 0 0 0-1.62-.288 1.167 1.167 0 0 1-1.794-.652 1.166 1.166 0 0 0-1.422-.82 1.166 1.166 0 0 1-1.379-.68 1.2 1.2 0 0 1-.085-.548 1.16 1.16 0 0 0-.266-.853 1.17 1.17 0 0 0-.792-.416 1.16 1.16 0 0 1-.902-.579 1.18 1.18 0 0 1-.05-1.071 1.16 1.16 0 0 0-.562-1.544 1.167 1.167 0 0 1-.331-1.879 1.165 1.165 0 0 0 0-1.646 1.18 1.18 0 0 1-.321-1.025 1.166 1.166 0 0 1 .652-.854 1.168 1.168 0 0 0 .562-1.544 1.16 1.16 0 0 1 .05-1.072 1.17 1.17 0 0 1 .902-.582 1.163 1.163 0 0 0 1.058-1.27 1.166 1.166 0 0 1 .91-1.239c.183-.04.373-.036.554.012a1.163 1.163 0 0 0 1.422-.82 1.16 1.16 0 0 1 .727-.791 1.17 1.17 0 0 1 1.067.135 1.167 1.167 0 0 0 1.62-.284 1.17 1.17 0 0 1 1.489-.363c.165.086.308.21.415.363" style="fill:#ad6615;fill:color(display-p3 .6784 .4 .0824);fill-opacity:1"/><path fill="#fff" d="M203.155 85.755a1.167 1.167 0 0 0 1.621.284 1.17 1.17 0 0 1 1.794.656 1.163 1.163 0 0 0 1.421.82 1.17 1.17 0 0 1 1.464 1.228c-.014.152.002.307.047.453s.119.284.218.401a1.16 1.16 0 0 0 .793.415 1.173 1.173 0 0 1 .952 1.654 1.164 1.164 0 0 0 .563 1.544 1.16 1.16 0 0 1 .651.854 1.175 1.175 0 0 1-.321 1.025 1.17 1.17 0 0 0 0 1.646 1.18 1.18 0 0 1 .321 1.025 1.164 1.164 0 0 1-.651.854 1.166 1.166 0 0 0-.563 1.544 1.16 1.16 0 0 1-.05 1.071 1.16 1.16 0 0 1-.902.579 1.18 1.18 0 0 0-1.01.816 1.2 1.2 0 0 0-.048.453 1.167 1.167 0 0 1-1.464 1.228 1.164 1.164 0 0 0-1.421.82 1.166 1.166 0 0 1-1.794.652 1.17 1.17 0 0 0-1.621.288 1.166 1.166 0 0 1-1.904 0 1.17 1.17 0 0 0-1.62-.288 1.167 1.167 0 0 1-1.794-.652 1.166 1.166 0 0 0-1.422-.82 1.166 1.166 0 0 1-1.379-.68 1.2 1.2 0 0 1-.085-.548 1.16 1.16 0 0 0-.266-.853 1.17 1.17 0 0 0-.792-.416 1.16 1.16 0 0 1-.902-.579 1.18 1.18 0 0 1-.05-1.071 1.16 1.16 0 0 0-.562-1.544 1.167 1.167 0 0 1-.331-1.879 1.165 1.165 0 0 0 0-1.646 1.18 1.18 0 0 1-.321-1.025 1.166 1.166 0 0 1 .652-.854 1.168 1.168 0 0 0 .562-1.544 1.16 1.16 0 0 1 .05-1.072 1.17 1.17 0 0 1 .902-.582 1.163 1.163 0 0 0 1.058-1.27 1.166 1.166 0 0 1 .91-1.239c.183-.04.373-.036.554.012a1.163 1.163 0 0 0 1.422-.82 1.16 1.16 0 0 1 .727-.791 1.17 1.17 0 0 1 1.067.135 1.167 1.167 0 0 0 1.62-.284 1.17 1.17 0 0 1 1.489-.363c.165.086.308.21.415.363" opacity=".7" style="fill:#fff;fill-opacity:1"/><path fill="#AD6615" d="M202.203 103.543a7.66 7.66 0 0 0 7.658-7.659 7.658 7.658 0 1 0-15.316 0 7.66 7.66 0 0 0 7.658 7.659" style="fill:#ad6615;fill:color(display-p3 .6784 .4 .0824);fill-opacity:1"/><path fill="#AD6615" d="M202.203 103.543a7.66 7.66 0 0 0 7.658-7.659 7.658 7.658 0 1 0-15.316 0 7.66 7.66 0 0 0 7.658 7.659" style="fill:#ad6615;fill:color(display-p3 .6784 .4 .0824);fill-opacity:1"/><path fill="#FAFAFA" d="m201.827 91.276-1.27 2.586-2.851.423a.424.424 0 0 0-.233.715l2.065 2.014-.5 2.835a.422.422 0 0 0 .614.444l2.539-1.341 2.538 1.341a.425.425 0 0 0 .614-.444l-.491-2.844 2.065-2.014a.43.43 0 0 0 .111-.2.43.43 0 0 0-.137-.418.4.4 0 0 0-.207-.097l-2.852-.423-1.269-2.585a.43.43 0 0 0-.371-.21.42.42 0 0 0-.365.218" style="fill:#fafafa;fill:color(display-p3 .9804 .9804 .9804);fill-opacity:1"/><path fill="#AD6615" d="M195.814 127.779c-.482-.254-.812-.423-.994-.542-.491-.249-.732-.821-.732-1.713a2.3 2.3 0 0 1 .321-1.359 1.233 1.233 0 0 1 1.896 0c.245.409.359.883.326 1.359.016.404-.056.807-.212 1.18a1 1 0 0 1-.254.349 1 1 0 0 1-.372.218l.986.449a.1.1 0 0 1 .042.033q.015.023.017.051a.6.6 0 0 1-.089.203q-.084.135-.161.136a7 7 0 0 1-.774-.364m.144-1.185a2.87 2.87 0 0 0 0-2.141.65.65 0 0 0-.597-.351q-.801 0-.803 1.422c0 .947.27 1.426.803 1.426a.65.65 0 0 0 .597-.356M197.524 127.064a.96.96 0 0 1-.301-.753v-2.475c0-.072.068-.11.195-.11h.072q.19.001.19.11v2.479a.58.58 0 0 0 .191.444c.134.12.31.182.49.174a.7.7 0 0 0 .487-.174.58.58 0 0 0 .19-.444v-2.479q0-.109.191-.11h.072q.195.001.194.11v2.462a.97.97 0 0 1-.296.753 1.45 1.45 0 0 1-1.692 0zM199.906 127.22v-.063l.922-3.326c0-.068.085-.097.203-.097h.161c.122 0 .19.029.203.097l.918 3.326a.1.1 0 0 1 0 .063.07.07 0 0 1-.015.041.1.1 0 0 1-.036.023.3.3 0 0 1-.139.025h-.085q-.164 0-.182-.084l-.22-.847h-1.092l-.211.847c0 .055-.076.084-.182.084h-.085c-.097.004-.16-.025-.16-.089m1.645-1.214-.359-1.388c0-.046-.03-.148-.059-.313h-.026a1 1 0 0 0 0 .119l-.042.194-.36 1.388zM202.846 127.267a.2.2 0 0 1-.034-.118v-3.313q0-.109.195-.11h.068q.195.001.194.11v3.067h1.058a.1.1 0 0 1 .042.008.1.1 0 0 1 .034.026q.03.055.026.118v.081a.2.2 0 0 1-.026.118.085.085 0 0 1-.076.034h-1.379a.14.14 0 0 1-.102-.021M204.911 127.22v-3.384q0-.109.195-.11h.076q.185.001.186.11v3.384q0 .115-.186.115h-.076c-.144-.021-.195-.06-.195-.115M206.735 127.221v-3.089h-.732q-.097 0-.098-.152v-.081q.001-.152.098-.152h1.921a.09.09 0 0 1 .08.038.2.2 0 0 1 0 .114v.081a.2.2 0 0 1 0 .118.1.1 0 0 1-.036.028q-.021.009-.044.006h-.72v3.089q.001.114-.194.114h-.068c-.144-.021-.207-.059-.207-.114M209.113 127.22v-1.506l-.847-1.777a.2.2 0 0 1-.038-.093q0-.084.216-.085h.089a.5.5 0 0 1 .131 0q.046.019.068.064l.639 1.43.647-1.435a.1.1 0 0 1 .026-.038.1.1 0 0 1 .042-.021.6.6 0 0 1 .135 0h.068a.5.5 0 0 1 .148.026.07.07 0 0 1 .046.059.2.2 0 0 1-.029.093l-.868 1.79v1.493q-.002.114-.194.114h-.072q-.207-.021-.207-.114M193.415 72.824a.14.14 0 0 1-.042-.042.15.15 0 0 1 0-.072.6.6 0 0 1 .034-.19c0-.068.05-.102.084-.102a.04.04 0 0 1 .03 0c.201.152.45.23.702.22a.6.6 0 0 0 .423-.157.53.53 0 0 0 .165-.423.509.509 0 0 0-.135-.372 1.5 1.5 0 0 0-.389-.267 4 4 0 0 1-.462-.258 1 1 0 0 1-.283-.305.85.85 0 0 1-.114-.46.94.94 0 0 1 .292-.716c.21-.183.483-.279.761-.266.217-.007.431.048.618.156q.017.008.026.024.01.017.008.035a.5.5 0 0 1-.047.187q-.05.124-.093.122a.2.2 0 0 1-.067-.025 1.04 1.04 0 0 0-.47-.097.63.63 0 0 0-.423.14.573.573 0 0 0-.026.774q.205.183.453.3.22.107.423.245c.109.08.2.183.267.3a.9.9 0 0 1 .106.466.972.972 0 0 1-.292.745 1.1 1.1 0 0 1-.762.266 1.34 1.34 0 0 1-.787-.228M196.059 72.794a.95.95 0 0 1-.296-.748v-2.463q0-.114.191-.114h.072q.195 0 .194.114v2.475a.57.57 0 0 0 .191.449c.135.118.311.18.49.173a.68.68 0 0 0 .483-.178.58.58 0 0 0 .19-.423v-2.475q0-.114.195-.114h.072q.19 0 .19.114v2.463a.97.97 0 0 1-.292.749 1.44 1.44 0 0 1-1.692 0zM198.746 72.934v-3.3a.18.18 0 0 1 .034-.119.13.13 0 0 1 .106-.034h.846c.232-.003.459.071.643.212a.94.94 0 0 1 .279.783c.015.23-.041.458-.16.656a.8.8 0 0 1-.36.313 1 1 0 0 1-.364.076h-.55v1.413q0 .109-.19.11h-.072c-.161.021-.212-.038-.212-.11m.99-1.798a.42.42 0 0 0 .305-.148.73.73 0 0 0 .14-.512.65.65 0 0 0-.14-.474.48.48 0 0 0-.339-.136h-.482v1.27zM201.196 72.934v-3.3a.18.18 0 0 1 .034-.119.1.1 0 0 1 .047-.028.1.1 0 0 1 .054-.005h.847c.232-.005.459.07.643.211a.94.94 0 0 1 .283.783c.013.23-.043.458-.161.656a.84.84 0 0 1-.359.313 1 1 0 0 1-.364.076h-.559v1.413q.001.109-.194.11h-.072c-.136.021-.199-.038-.199-.11m.99-1.798a.43.43 0 0 0 .305-.148.74.74 0 0 0 .135-.512.65.65 0 0 0-.14-.474.46.46 0 0 0-.338-.135h-.495v1.269zM203.845 72.612a2.35 2.35 0 0 1-.326-1.366q0-1.794 1.269-1.794 1.27 0 1.27 1.794c.033.478-.08.955-.326 1.366a1.218 1.218 0 0 1-1.896 0zm1.752-1.366q0-1.41-.8-1.41a.66.66 0 0 0-.605.343c-.154.334-.222.7-.199 1.067q0 1.434.804 1.434c.537 0 .8-.461.8-1.434M206.705 72.934v-3.3a.18.18 0 0 1 .034-.119.1.1 0 0 1 .047-.028.1.1 0 0 1 .054-.006h.754c.265-.022.53.053.744.212q.136.135.2.315a.85.85 0 0 1 .046.37 1.1 1.1 0 0 1-.123.53.84.84 0 0 1-.343.33.42.42 0 0 1 .178.194q.099.206.169.423l.322.999a.4.4 0 0 1 0 .072q-.001.081-.199.08h-.059a.4.4 0 0 1-.123 0 .13.13 0 0 1-.064-.06l-.304-.994a.9.9 0 0 0-.208-.393.46.46 0 0 0-.334-.106h-.321v1.464q0 .109-.195.11h-.068c-.144.038-.207-.021-.207-.093m.965-1.849a.38.38 0 0 0 .313-.186.77.77 0 0 0 .127-.423.67.67 0 0 0-.123-.445.42.42 0 0 0-.347-.148h-.482v1.219zM209.849 72.934v-3.068h-.732q-.096 0-.097-.152v-.08q0-.153.097-.153h1.908a.09.09 0 0 1 .08.034.3.3 0 0 1 .022.119v.08a.24.24 0 0 1-.022.114.1.1 0 0 1-.035.03.1.1 0 0 1-.045.008h-.719v3.068q0 .109-.195.11h-.072c-.127.021-.19-.038-.19-.11M215.057 55.586a.38.38 0 0 0 0-.452l-1.802-2.281a1.82 1.82 0 0 1-.22-1.849v-.03a1.82 1.82 0 0 1 1.46-1.138l2.885-.326a.37.37 0 0 0 .33-.308c.158-.884.238-1.78.237-2.679a15.7 15.7 0 0 0-.224-2.69.37.37 0 0 0-.33-.31l-2.882-.334a1.84 1.84 0 0 1-1.451-1.13l-.021-.059a1.79 1.79 0 0 1 .233-1.836l1.806-2.268a.38.38 0 0 0 0-.453 15.1 15.1 0 0 0-3.786-3.808.38.38 0 0 0-.449 0l-2.272 1.794a1.87 1.87 0 0 1-1.853.229h-.03a1.84 1.84 0 0 1-1.121-1.477l-.326-2.881a.38.38 0 0 0-.309-.334 15.8 15.8 0 0 0-5.369 0 .38.38 0 0 0-.21.113.4.4 0 0 0-.099.216l-.343 2.886a1.82 1.82 0 0 1-1.138 1.464h-.034a1.85 1.85 0 0 1-1.853-.237l-2.264-1.802a.39.39 0 0 0-.452 0 15.3 15.3 0 0 0-3.808 3.808.38.38 0 0 0 0 .452l1.819 2.243a1.8 1.8 0 0 1 .216 1.84.1.1 0 0 1 0 .051 1.8 1.8 0 0 1-1.485 1.126l-2.899.326a.375.375 0 0 0-.321.313c-.31 1.77-.31 3.581 0 5.352a.36.36 0 0 0 .33.309l2.89.368a1.85 1.85 0 0 1 1.464 1.15v.035a1.8 1.8 0 0 1-.225 1.84l-1.802 2.272a.38.38 0 0 0-.021.453 15.4 15.4 0 0 0 3.808 3.808.375.375 0 0 0 .448 0l2.272-1.798a1.84 1.84 0 0 1 1.854-.212h.038a1.83 1.83 0 0 1 1.134 1.464l.321 2.886a.385.385 0 0 0 .309.334c.885.16 1.783.239 2.683.237a16 16 0 0 0 2.691-.224.4.4 0 0 0 .309-.33l.338-2.886a1.82 1.82 0 0 1 1.134-1.46h.038a1.84 1.84 0 0 1 1.853.229l2.264 1.81a.37.37 0 0 0 .448 0 15.3 15.3 0 0 0 3.787-3.816m-12.854-.089a9.02 9.02 0 0 1-8.334-5.578 9.022 9.022 0 0 1 15.854-8.432 9.022 9.022 0 0 1-7.52 14.01" style="fill:#ad6615;fill:color(display-p3 .6784 .4 .0824);fill-opacity:1"/><path fill="#fff" d="M215.057 55.586a.38.38 0 0 0 0-.452l-1.802-2.281a1.82 1.82 0 0 1-.22-1.849v-.03a1.82 1.82 0 0 1 1.46-1.138l2.885-.326a.37.37 0 0 0 .33-.308c.158-.884.238-1.78.237-2.679a15.7 15.7 0 0 0-.224-2.69.37.37 0 0 0-.33-.31l-2.882-.334a1.84 1.84 0 0 1-1.451-1.13l-.021-.059a1.79 1.79 0 0 1 .233-1.836l1.806-2.268a.38.38 0 0 0 0-.453 15.1 15.1 0 0 0-3.786-3.808.38.38 0 0 0-.449 0l-2.272 1.794a1.87 1.87 0 0 1-1.853.229h-.03a1.84 1.84 0 0 1-1.121-1.477l-.326-2.881a.38.38 0 0 0-.309-.334 15.8 15.8 0 0 0-5.369 0 .38.38 0 0 0-.21.113.4.4 0 0 0-.099.216l-.343 2.886a1.82 1.82 0 0 1-1.138 1.464h-.034a1.85 1.85 0 0 1-1.853-.237l-2.264-1.802a.39.39 0 0 0-.452 0 15.3 15.3 0 0 0-3.808 3.808.38.38 0 0 0 0 .452l1.819 2.243a1.8 1.8 0 0 1 .216 1.84.1.1 0 0 1 0 .051 1.8 1.8 0 0 1-1.485 1.126l-2.899.326a.375.375 0 0 0-.321.313c-.31 1.77-.31 3.581 0 5.352a.36.36 0 0 0 .33.309l2.89.368a1.85 1.85 0 0 1 1.464 1.15v.035a1.8 1.8 0 0 1-.225 1.84l-1.802 2.272a.38.38 0 0 0-.021.453 15.4 15.4 0 0 0 3.808 3.808.375.375 0 0 0 .448 0l2.272-1.798a1.84 1.84 0 0 1 1.854-.212h.038a1.83 1.83 0 0 1 1.134 1.464l.321 2.886a.385.385 0 0 0 .309.334c.885.16 1.783.239 2.683.237a16 16 0 0 0 2.691-.224.4.4 0 0 0 .309-.33l.338-2.886a1.82 1.82 0 0 1 1.134-1.46h.038a1.84 1.84 0 0 1 1.853.229l2.264 1.81a.37.37 0 0 0 .448 0 15.3 15.3 0 0 0 3.787-3.816m-12.854-.089a9.02 9.02 0 0 1-8.334-5.578 9.022 9.022 0 0 1 15.854-8.432 9.022 9.022 0 0 1-7.52 14.01" opacity=".55" style="fill:#fff;fill-opacity:1"/><path fill="#AD6615" d="M198.797 42.144q.315-.272.66-.504a4.7 4.7 0 0 1 1.693-.698q.52-.105 1.053-.101c.477-.006.952.067 1.405.215.399.127.769.333 1.087.605.299.259.537.58.698.94.171.4.255.833.246 1.27.009.397-.057.793-.195 1.167-.12.304-.284.59-.486.846q-.292.357-.66.635l-.66.5a6 6 0 0 0-.538.46.9.9 0 0 0-.271.512l-.203 1.295h-1.498l-.152-1.447c-.039-.25.003-.507.119-.732a2.3 2.3 0 0 1 .461-.575q.305-.273.643-.504a6 6 0 0 0 .664-.533 3 3 0 0 0 .521-.648 1.7 1.7 0 0 0 .207-.846 1.3 1.3 0 0 0-.119-.57 1.2 1.2 0 0 0-.334-.424 1.5 1.5 0 0 0-.507-.283 2.1 2.1 0 0 0-.644-.098 2.8 2.8 0 0 0-.846.114 3.2 3.2 0 0 0-.596.246q-.24.14-.424.25a.6.6 0 0 1-.304.11.48.48 0 0 1-.461-.267zm1.693 9.478a1.35 1.35 0 0 1 .38-.944c.122-.12.266-.216.423-.283.169-.072.35-.108.534-.106.181-.002.362.034.528.105q.238.104.424.284c.123.12.221.264.287.423a1.35 1.35 0 0 1 0 1.05q-.1.242-.287.423c-.122.12-.266.214-.424.279a1.4 1.4 0 0 1-.528.101 1.4 1.4 0 0 1-.534-.101 1.3 1.3 0 0 1-.423-.28 1.35 1.35 0 0 1-.38-.952M162.18 59.19c7.024 0 12.718-5.695 12.718-12.72 0-7.024-5.694-12.718-12.718-12.718-7.025 0-12.719 5.694-12.719 12.719s5.694 12.718 12.719 12.718" style="fill:#ad6615;fill:color(display-p3 .6784 .4 .0824);fill-opacity:1"/><path fill="#fff" d="M162.18 59.19c7.024 0 12.718-5.695 12.718-12.72 0-7.024-5.694-12.718-12.718-12.718-7.025 0-12.719 5.694-12.719 12.719s5.694 12.718 12.719 12.718" opacity=".55" style="fill:#fff;fill-opacity:1"/><path fill="#37474F" d="M154.674 46.902a6.12 6.12 0 0 0 1.582 4.003 7.94 7.94 0 0 0 11.847 0 6.13 6.13 0 0 0 1.578-4.007z" style="fill:#37474f;fill:color(display-p3 .2157 .2784 .3098);fill-opacity:1"/><path fill="#AD6615" d="M156.256 50.905a7.95 7.95 0 0 0 5.923 2.652 7.94 7.94 0 0 0 5.924-2.652 9.42 9.42 0 0 0-11.847 0" style="fill:#ad6615;fill:color(display-p3 .6784 .4 .0824);fill-opacity:1"/><path fill="#37474F" d="M158.409 42.79a1.313 1.313 0 0 1-2.598.256 1.32 1.32 0 0 1 .558-1.347 1.312 1.312 0 0 1 2.04 1.09M168.513 42.934a1.305 1.305 0 0 1-1.57 1.282 1.31 1.31 0 0 1-.469-2.378 1.31 1.31 0 0 1 2.039 1.096" style="fill:#37474f;fill:color(display-p3 .2157 .2784 .3098);fill-opacity:1"/><path fill="#AD6615" d="M148.708 72.822a.1.1 0 0 1-.043-.042.15.15 0 0 1 0-.072q0-.098.03-.19.036-.102.085-.102a.05.05 0 0 1 .034 0c.203.153.452.23.706.22a.58.58 0 0 0 .423-.156.53.53 0 0 0 .165-.424.5.5 0 0 0-.131-.372 1.6 1.6 0 0 0-.393-.266 4 4 0 0 1-.457-.259.9.9 0 0 1-.284-.304.85.85 0 0 1-.114-.461.93.93 0 0 1 .292-.732c.208-.184.48-.28.757-.267.217-.007.431.047.618.157a.064.064 0 0 1 .038.06.6.6 0 0 1-.046.185c-.034.085-.068.123-.098.123l-.063-.026a1.1 1.1 0 0 0-.474-.097.62.62 0 0 0-.423.14.49.49 0 0 0-.17.423.5.5 0 0 0 .14.368q.205.185.457.3.219.111.423.246a.88.88 0 0 1 .373.766.95.95 0 0 1-.297.744c-.21.183-.483.279-.761.267a1.32 1.32 0 0 1-.787-.229M150.772 72.958a.4.4 0 0 1 0-.068l.919-3.326c0-.063.088-.097.203-.097h.16q.184.001.204.097l.922 3.326a.2.2 0 0 1 0 .067.1.1 0 0 1-.014.039.1.1 0 0 1-.033.025.4.4 0 0 1-.139 0h-.089q-.16.001-.182-.08l-.22-.847h-1.049l-.212.847c0 .055-.076.08-.182.08h-.08c-.144.042-.208-.008-.208-.064m1.646-1.215-.359-1.392c0-.042-.03-.148-.055-.309h-.026a.6.6 0 0 0-.021.114l-.042.195-.36 1.392zM154.069 72.932v-3.067h-.732q-.095 0-.093-.153v-.08q-.002-.153.093-.152h1.925a.08.08 0 0 1 .076.034.2.2 0 0 1 0 .118v.08a.2.2 0 0 1 0 .115.09.09 0 0 1-.076.038h-.724v3.067q0 .109-.19.11h-.072c-.144.021-.207-.038-.207-.11M155.884 72.932v-3.351q0-.114.19-.114h.076q.19 0 .191.114v3.351q0 .109-.191.11h-.076c-.127.021-.19-.038-.19-.11M156.992 72.822a.1.1 0 0 1-.042-.043.15.15 0 0 1 0-.071.6.6 0 0 1 .034-.19q.033-.103.084-.102a.04.04 0 0 1 .03 0c.201.153.449.232.702.224a.6.6 0 0 0 .423-.157.53.53 0 0 0 .165-.423.5.5 0 0 0-.135-.372 1.6 1.6 0 0 0-.389-.267 4 4 0 0 1-.461-.258 1 1 0 0 1-.284-.304.85.85 0 0 1-.114-.462.93.93 0 0 1 .292-.732c.209-.182.48-.278.757-.266.218-.007.433.047.622.156q.017.009.026.025.01.016.008.035a.6.6 0 0 1-.047.186q-.049.125-.093.123a.2.2 0 0 1-.067-.026 1.06 1.06 0 0 0-.47-.097.63.63 0 0 0-.423.14.57.57 0 0 0-.025.774q.203.184.452.3.221.108.423.246.165.121.267.3a.9.9 0 0 1 .106.465.96.96 0 0 1-.292.745 1.1 1.1 0 0 1-.762.267 1.34 1.34 0 0 1-.787-.216M159.391 72.932v-3.3a.2.2 0 0 1 .03-.119.14.14 0 0 1 .106-.033h1.32q.096 0 .097.152v.08q-.001.153-.097.153h-.999v1.159h.914q.096 0 .097.152v.08q0 .153-.097.153h-.914v1.523q.001.109-.194.11h-.072c-.127.021-.191-.038-.191-.11M161.109 72.958a.4.4 0 0 1 0-.068l.919-3.326c0-.063.088-.097.203-.097h.16q.185.001.203.097l.923 3.326a.3.3 0 0 1 0 .067.07.07 0 0 1-.015.039.1.1 0 0 1-.032.025.4.4 0 0 1-.139 0h-.089q-.16.001-.182-.08l-.216-.847h-1.066l-.216.847c0 .055-.072.08-.182.08h-.08c-.114.042-.191-.008-.191-.064m1.646-1.215-.359-1.392c0-.042-.03-.148-.055-.309h-.026a1 1 0 0 0 0 .114l-.038.195-.364 1.392zM164.181 72.64a2.32 2.32 0 0 1-.322-1.367 2.3 2.3 0 0 1 .326-1.362 1.15 1.15 0 0 1 .999-.423q.14-.014.279 0 .12.021.233.072a.2.2 0 0 1 .067.05q.012.045 0 .09a.6.6 0 0 1-.038.194q-.043.115-.118.072a.95.95 0 0 0-.423-.106.71.71 0 0 0-.648.339 2.16 2.16 0 0 0-.207 1.07c-.026.369.046.738.207 1.07a.7.7 0 0 0 .644.343.9.9 0 0 0 .473-.127h.047q.068 0 .106.09a.4.4 0 0 1 .038.168.2.2 0 0 1-.026.093.3.3 0 0 1-.097.077 1.466 1.466 0 0 1-.541.106 1.16 1.16 0 0 1-.999-.45M166.868 72.932v-3.067h-.732q-.094 0-.093-.153v-.08q-.001-.153.093-.152h1.912q.023-.003.043.006a.1.1 0 0 1 .033.027q.03.056.026.119v.08a.2.2 0 0 1-.026.115.1.1 0 0 1-.032.03.1.1 0 0 1-.044.008h-.723v3.067q0 .109-.191.11h-.072c-.131.021-.194-.038-.194-.11M168.683 72.932v-3.351q0-.114.19-.114h.076q.19 0 .191.114v3.351q0 .109-.191.11h-.076c-.127.021-.19-.038-.19-.11M170.147 72.61a2.35 2.35 0 0 1-.322-1.366q0-1.794 1.27-1.794 1.269 0 1.269 1.794c.033.478-.08.955-.326 1.367a1.217 1.217 0 0 1-1.895 0zm1.751-1.366q0-1.41-.799-1.409a.65.65 0 0 0-.601.343c-.158.332-.227.7-.203 1.066q-.001 1.435.804 1.435c.537 0 .799-.462.799-1.435M172.986 72.932v-3.35q-.001-.115.194-.115h.123a.24.24 0 0 1 .119.026.15.15 0 0 1 .076.076l1.18 2.272q.079.153.131.317h.026a1.6 1.6 0 0 1-.042-.334V69.59q.002-.114.194-.114h.059q.197 0 .195.114v3.35q.002.11-.195.11h-.105c-.093 0-.157-.025-.182-.075l-1.21-2.344a2 2 0 0 1-.132-.322h-.025q.042.165.042.334v2.285q.001.109-.194.11h-.06c-.148.026-.194-.034-.194-.106M154.009 128.029v-3.3a.14.14 0 0 1 .005-.061.2.2 0 0 1 .029-.054.1.1 0 0 1 .047-.03.1.1 0 0 1 .055-.008h.753c.266-.021.531.056.744.216a.85.85 0 0 1 .246.685c.006.185-.038.368-.127.529a.77.77 0 0 1-.343.326v.004a.43.43 0 0 1 .178.199q.102.206.173.423l.322 1.003a.3.3 0 0 1 0 .068q0 .083-.195.084h-.089a.26.26 0 0 1-.122-.025c-.038 0-.06-.034-.064-.059l-.304-.995a1 1 0 0 0-.208-.393.5.5 0 0 0-.338-.102h-.318v1.49q.001.114-.194.114h-.072q-.178-.021-.178-.114m.965-1.849a.38.38 0 0 0 .313-.182.77.77 0 0 0 .127-.423.7.7 0 0 0-.123-.449.42.42 0 0 0-.347-.148h-.482v1.219zM156.645 128.075a.2.2 0 0 1-.029-.118v-3.25a.16.16 0 0 1 .029-.114.14.14 0 0 1 .106-.038h1.464q.096 0 .097.152v.081q0 .152-.097.152h-1.147v1.159h1.024q.097 0 .098.153v.084q-.001.153-.098.153h-1.024v1.239h1.143q.02 0 .04.008a.1.1 0 0 1 .032.026.22.22 0 0 1 .025.119v.08a.23.23 0 0 1-.025.119.1.1 0 0 1-.032.025.1.1 0 0 1-.04.008h-1.456a.15.15 0 0 1-.11-.038M159.353 128.028l-.702-3.334v-.059c0-.068.068-.097.203-.097h.068q.181-.001.199.08l.465 2.454c0 .102.042.245.068.423v.127l.101-.58.474-2.399c0-.055.072-.084.182-.084h.102q.164 0 .182.084l.478 2.442q.039.19.084.571l.098-.563.452-2.45c0-.055.076-.08.203-.08h.055q.203-.002.203.097v.06l-.719 3.308c0 .055-.072.085-.182.085h-.203c-.114 0-.173-.03-.186-.085l-.423-2.115-.081-.635-.084.635-.423 2.115c0 .055-.072.085-.182.085h-.203c-.157.008-.216-.021-.229-.085M162.332 128.029v-.064l.927-3.321c.021-.068.088-.098.203-.098h.165c.118 0 .19.03.203.098l.918 3.325a.2.2 0 0 1 0 .064.07.07 0 0 1-.015.04.07.07 0 0 1-.036.023.3.3 0 0 1-.139.026h-.085q-.164-.001-.182-.085l-.22-.846h-1.079l-.216.846c0 .055-.072.085-.182.085h-.08q-.183 0-.182-.093m1.642-1.215-.36-1.388-.055-.313h-.025a1 1 0 0 0 0 .119l-.038.194-.364 1.388zM165.217 128.029v-3.3a.17.17 0 0 1 .034-.115.14.14 0 0 1 .106-.038h.749a1.1 1.1 0 0 1 .749.216.846.846 0 0 1 .241.685c.007.185-.035.367-.123.529a.8.8 0 0 1-.342.326v.004a.42.42 0 0 1 .177.199q.102.206.174.423l.317 1.003a.2.2 0 0 1 0 .068q-.001.083-.199.084h-.084a.3.3 0 0 1-.166-.047.1.1 0 0 1-.025-.037l-.304-.995a.94.94 0 0 0-.203-.393.5.5 0 0 0-.339-.102h-.321v1.49q0 .114-.191.114h-.072c-.11-.021-.178-.059-.178-.114m.965-1.849a.37.37 0 0 0 .18-.051.36.36 0 0 0 .133-.131.74.74 0 0 0 .131-.423.67.67 0 0 0-.127-.449.42.42 0 0 0-.346-.148h-.483v1.219zM167.862 128.075a.18.18 0 0 1-.034-.118v-3.25a.17.17 0 0 1 .034-.114.1.1 0 0 1 .049-.031q.028-.01.057-.007h.846q1.269 0 1.269 1.777t-1.269 1.777h-.846a.13.13 0 0 1-.056-.006.14.14 0 0 1-.05-.028m.948-.351a.67.67 0 0 0 .597-.334 2.66 2.66 0 0 0 0-2.116.68.68 0 0 0-.597-.338h-.516v2.784zM161.951 114.891l12.639-7.308v-8.978l.266-.152v-3.728l-12.905 7.451z" style="fill:#ad6615;fill:color(display-p3 .6784 .4 .0824);fill-opacity:1"/><path fill="#fff" d="m161.951 114.891 12.639-7.308v-8.978l.266-.152v-3.728l-12.905 7.451z" opacity=".45" style="fill:#fff;fill-opacity:1"/><path fill="#000" d="m161.951 105.904 4.836-2.797 7.803-4.501v.537l-12.639 7.294z" opacity=".15" style="fill:#000;fill-opacity:1"/><path fill="#AD6615" d="m161.951 114.891-12.571-7.253v-8.995l-.334-.19v-3.728l12.905 7.451z" style="fill:#ad6615;fill:color(display-p3 .6784 .4 .0824);fill-opacity:1"/><path fill="#fff" d="m161.951 114.891-12.571-7.253v-8.995l-.334-.19v-3.728l12.905 7.451z" opacity=".3" style="fill:#fff;fill-opacity:1"/><path fill="#000" d="m149.381 98.643 12.57 7.261v.533l-12.57-7.252z" opacity=".1" style="fill:#000;fill-opacity:1"/><path fill="#AD6615" d="m149.046 94.725 12.905-7.45 12.905 7.45-12.905 7.451z" style="fill:#ad6615;fill:color(display-p3 .6784 .4 .0824);fill-opacity:1"/><path fill="#fff" d="m149.046 94.725 12.905-7.45 12.905 7.45-12.905 7.451z" opacity=".6" style="fill:#fff;fill-opacity:1"/><path fill="#EBEBEB" d="M156.709 111.866V99.151l-2.099-1.21v12.715z" style="fill:#ebebeb;fill:color(display-p3 .9216 .9216 .9216);fill-opacity:1"/><path fill="#AD6615" d="M156.709 111.866V99.151l-2.099-1.21v12.715z" style="fill:#ad6615;fill:color(display-p3 .6784 .4 .0824);fill-opacity:1"/><path fill="#000" d="M156.709 111.866V99.151l-2.099-1.21v12.715z" opacity=".4" style="fill:#000;fill-opacity:1"/><path fill="#AD6615" d="M167.189 111.866V99.151l2.099-1.21v12.715z" style="fill:#ad6615;fill:color(display-p3 .6784 .4 .0824);fill-opacity:1"/><path fill="#000" d="M167.189 111.866V99.151l2.099-1.21v12.715z" opacity=".15" style="fill:#000;fill-opacity:1"/><path fill="#AD6615" d="m154.61 97.94 12.909-7.45 2.095 1.21-12.905 7.45z" style="fill:#ad6615;fill:color(display-p3 .6784 .4 .0824);fill-opacity:1"/><path fill="#000" d="m161.778 96.223-2.095-1.21 2.095-1.21 2.098 1.21z" opacity=".25" style="fill:#000;fill-opacity:1"/><path fill="#AD6615" d="m167.189 99.15-12.905-7.45 2.099-1.21 12.905 7.45z" style="fill:#ad6615;fill:color(display-p3 .6784 .4 .0824);fill-opacity:1"/><path fill="#AD6615" d="M167.989 91.218c-.203.88-1.485 3.43-5.551 3.71l-.423-.364s4.726-1.184 3.698-5.327z" style="fill:#ad6615;fill:color(display-p3 .6784 .4 .0824);fill-opacity:1"/><path fill="#000" d="M167.989 91.218c-.203.88-1.485 3.43-5.551 3.71l-.423-.364s4.726-1.184 3.698-5.327z" opacity=".4" style="fill:#000;fill-opacity:1"/><path fill="#AD6615" d="M161.972 95.415s0-2.505.952-3.982a6.53 6.53 0 0 1 2.797-2.191 5.9 5.9 0 0 1 2.268 1.976 7.7 7.7 0 0 0-3.271.846c-1.595.846-2.28 2.881-2.28 2.881z" style="fill:#ad6615;fill:color(display-p3 .6784 .4 .0824);fill-opacity:1"/><path fill="#000" d="M161.972 95.415s0-2.505.952-3.982a6.53 6.53 0 0 1 2.797-2.191 5.9 5.9 0 0 1 2.268 1.976 7.7 7.7 0 0 0-3.271.846c-1.595.846-2.28 2.881-2.28 2.881z" opacity=".15" style="fill:#000;fill-opacity:1"/><path fill="#AD6615" d="m164.76 92.034-1.65-.867q.41-.522.931-.935l2.175 1.244c-.504.133-.992.32-1.456.558M168.293 95.826a12.3 12.3 0 0 1-6.321-.423l.271-.483a9.7 9.7 0 0 0 3.144 0c1.299-.308 2.411-2.162 2.411-2.162z" style="fill:#ad6615;fill:color(display-p3 .6784 .4 .0824);fill-opacity:1"/><path fill="#000" d="M168.293 95.826a12.3 12.3 0 0 1-6.321-.423l.271-.483a9.7 9.7 0 0 0 3.144 0c1.299-.308 2.411-2.162 2.411-2.162z" opacity=".4" style="fill:#000;fill-opacity:1"/><path fill="#AD6615" d="M161.972 95.415s.034-.69.999-1.586c1.269-1.177 3.744-1.177 4.827-1.058a2.2 2.2 0 0 1 .847 1.37c.131.67-.339 1.693-.339 1.693a4.05 4.05 0 0 0-2.894-1.455 3.96 3.96 0 0 0-2.835.846z" style="fill:#ad6615;fill:color(display-p3 .6784 .4 .0824);fill-opacity:1"/><path fill="#000" d="M161.972 95.415s.034-.69.999-1.586c1.269-1.177 3.744-1.177 4.827-1.058a2.2 2.2 0 0 1 .847 1.37c.131.67-.339 1.693-.339 1.693a4.05 4.05 0 0 0-2.894-1.455 3.96 3.96 0 0 0-2.835.846z" opacity=".15" style="fill:#000;fill-opacity:1"/><path fill="#AD6615" d="M165.725 92.783q.617-.065 1.236-.059a2.39 2.39 0 0 1 .571 2.395 4.2 4.2 0 0 0-1.269-.605 2.8 2.8 0 0 0-.538-1.73M165.624 99.067a4.3 4.3 0 0 1-2.45-1.27 5.3 5.3 0 0 1-1.202-2.378l.466-.482c.351.819.989 1.48 1.794 1.862 1.07.47 3.059.465 3.059.465z" style="fill:#ad6615;fill:color(display-p3 .6784 .4 .0824);fill-opacity:1"/><path fill="#000" d="M165.624 99.067a4.3 4.3 0 0 1-2.45-1.27 5.3 5.3 0 0 1-1.202-2.378l.466-.482c.351.819.989 1.48 1.794 1.862 1.07.47 3.059.465 3.059.465z" opacity=".4" style="fill:#000;fill-opacity:1"/><path fill="#AD6615" d="m161.972 95.415.466-.482s1.785-.364 2.746 0c.96.364 2.09 1.866 2.115 2.327a2.82 2.82 0 0 1-1.667 1.806 3.35 3.35 0 0 0-1.147-2.61 5.03 5.03 0 0 0-2.513-1.04" style="fill:#ad6615;fill:color(display-p3 .6784 .4 .0824);fill-opacity:1"/><path fill="#000" d="m161.972 95.415.466-.482s1.785-.364 2.746 0c.96.364 2.09 1.866 2.115 2.327a2.82 2.82 0 0 1-1.667 1.806 3.35 3.35 0 0 0-1.147-2.61 5.03 5.03 0 0 0-2.513-1.04" opacity=".15" style="fill:#000;fill-opacity:1"/><path fill="#AD6615" d="m163.838 96.037 1.566-1.011c.353.2.673.454.947.753l-1.544.973a2.6 2.6 0 0 0-.33-.313 6 6 0 0 0-.639-.402M157.453 90.977c-.097.478.254 1.802 1.426 2.678s3.144 1.197 3.144 1.197l.279-.169s-1.959-1.231-2.593-2.357c-.635-1.125-.17-2.928-.17-2.928z" style="fill:#ad6615;fill:color(display-p3 .6784 .4 .0824);fill-opacity:1"/><path fill="#000" d="M157.453 90.977c-.097.478.254 1.802 1.426 2.678s3.144 1.197 3.144 1.197l.279-.169s-1.959-1.231-2.593-2.357c-.635-1.125-.17-2.928-.17-2.928z" opacity=".4" style="fill:#000;fill-opacity:1"/><path fill="#AD6615" d="M162.023 94.852a5.67 5.67 0 0 0-1.963-2.763 5.6 5.6 0 0 0-2.607-1.112 3.4 3.4 0 0 1 2.086-1.579s1.693.986 2.311 2.488c.373.883.528 1.842.452 2.797z" style="fill:#ad6615;fill:color(display-p3 .6784 .4 .0824);fill-opacity:1"/><path fill="#000" d="M162.023 94.852a5.67 5.67 0 0 0-1.963-2.763 5.6 5.6 0 0 0-2.607-1.112 3.4 3.4 0 0 1 2.086-1.579s1.693.986 2.311 2.488c.373.883.528 1.842.452 2.797z" opacity=".15" style="fill:#000;fill-opacity:1"/><path fill="#AD6615" d="M159.32 91.641a6 6 0 0 0-1.008-.449 5.3 5.3 0 0 1 1.875-1.324q.543.43.99.96c-.68.104-1.32.384-1.857.813M155.774 94.108c.575.774 2.538 2.065 6.033 1.011l.216-.423a7.7 7.7 0 0 1-3.605-.677c-1.629-.846-1.752-1.946-1.752-1.946z" style="fill:#ad6615;fill:color(display-p3 .6784 .4 .0824);fill-opacity:1"/><path fill="#000" d="M155.774 94.108c.575.774 2.538 2.065 6.033 1.011l.216-.423a7.7 7.7 0 0 1-3.605-.677c-1.629-.846-1.752-1.946-1.752-1.946z" opacity=".4" style="fill:#000;fill-opacity:1"/><path fill="#AD6615" d="M162.023 94.713a5.07 5.07 0 0 0-2.416-2.226 5.26 5.26 0 0 0-2.962-.398 2.45 2.45 0 0 0-.892 2.019 5 5 0 0 1 2.881-.423c1.659.24 2.962.99 3.152 1.45z" style="fill:#ad6615;fill:color(display-p3 .6784 .4 .0824);fill-opacity:1"/><path fill="#000" d="M162.023 94.713a5.07 5.07 0 0 0-2.416-2.226 5.26 5.26 0 0 0-2.962-.398 2.45 2.45 0 0 0-.892 2.019 5 5 0 0 1 2.881-.423c1.659.24 2.962.99 3.152 1.45z" opacity=".15" style="fill:#000;fill-opacity:1"/><path fill="#AD6615" d="M157.491 93.642a5 5 0 0 0-1.184.25 3.64 3.64 0 0 1 1.146-1.862q.375.005.745.06a3.4 3.4 0 0 0-.707 1.552M157.965 99.456c.897.02 3.703-1.249 4.007-4.041l-.3-.673a5.25 5.25 0 0 1-1.93 2.255c-1.269.707-3.109.694-3.109.694z" style="fill:#ad6615;fill:color(display-p3 .6784 .4 .0824);fill-opacity:1"/><path fill="#000" d="M157.965 99.456c.897.02 3.703-1.249 4.007-4.041l-.3-.673a5.25 5.25 0 0 1-1.93 2.255c-1.269.707-3.109.694-3.109.694z" opacity=".4" style="fill:#000;fill-opacity:1"/><path fill="#AD6615" d="M162.023 94.713a8.2 8.2 0 0 0-2.704.423c-1.946.787-2.602 1.713-2.686 2.572a3.26 3.26 0 0 0 1.332 1.765s.8-2.078 1.777-2.962c1.312-1.164 2.23-1.088 2.23-1.088z" style="fill:#ad6615;fill:color(display-p3 .6784 .4 .0824);fill-opacity:1"/><path fill="#000" d="M162.023 94.713a8.2 8.2 0 0 0-2.704.423c-1.946.787-2.602 1.713-2.686 2.572a3.26 3.26 0 0 0 1.332 1.765s.8-2.078 1.777-2.962c1.312-1.164 2.23-1.088 2.23-1.088z" opacity=".15" style="fill:#000;fill-opacity:1"/><path fill="#AD6615" d="M158.207 98.889a6.3 6.3 0 0 1-1.452-1.693c.189-.467.506-.872.914-1.168.471.44 1.044.754 1.667.914a9.8 9.8 0 0 0-1.129 1.947M156.666 180.564v-3.088h-.715q-.094 0-.093-.153v-.08q0-.152.093-.152h1.913a.09.09 0 0 1 .076.033.23.23 0 0 1 .025.119v.08a.23.23 0 0 1-.025.119.1.1 0 0 1-.034.026.1.1 0 0 1-.042.008h-.724v3.088q0 .109-.19.11h-.072c-.131-.021-.212-.059-.212-.11M158.452 180.564v-3.3a.158.158 0 0 1 .034-.119.14.14 0 0 1 .101-.034h.753c.266-.02.53.055.745.212a.84.84 0 0 1 .245.685c.007.186-.037.37-.127.533a.8.8 0 0 1-.342.326v.004a.43.43 0 0 1 .177.199q.103.206.174.423l.321.999a.2.2 0 0 1 0 .072q.001.081-.194.08h-.076a.4.4 0 0 1-.123 0c-.038 0-.059-.034-.064-.059l-.304-.994a.9.9 0 0 0-.207-.394.47.47 0 0 0-.339-.106h-.317v1.473q0 .109-.195.11h-.072q-.19-.032-.19-.11m.964-1.849a.4.4 0 0 0 .181-.053.4.4 0 0 0 .133-.133.76.76 0 0 0 .126-.423.67.67 0 0 0-.122-.445.43.43 0 0 0-.347-.148h-.483v1.219zM161.32 180.403a.95.95 0 0 1-.296-.749v-2.475q0-.114.191-.114h.072q.195 0 .194.114v2.475a.57.57 0 0 0 .191.449c.134.118.308.18.486.173a.68.68 0 0 0 .487-.177.59.59 0 0 0 .19-.445v-2.475q0-.114.195-.114h.067q.196 0 .195.114v2.463a.97.97 0 0 1-.292.749 1.44 1.44 0 0 1-1.692 0zM163.859 180.437a.14.14 0 0 1-.042-.046.15.15 0 0 1 0-.072.7.7 0 0 1 .034-.191c0-.067.05-.097.084-.097a.04.04 0 0 1 .03 0c.203.152.453.23.707.22a.6.6 0 0 0 .423-.156.6.6 0 0 0 .129-.194.6.6 0 0 0 .036-.229.52.52 0 0 0-.136-.373 1.5 1.5 0 0 0-.389-.266 4 4 0 0 1-.461-.258 1 1 0 0 1-.284-.301.9.9 0 0 1-.131-.448.94.94 0 0 1 .292-.728c.209-.183.48-.278.757-.267.224-.011.447.04.644.148q.017.009.026.025.01.015.007.035a.6.6 0 0 1-.046.186q-.05.124-.093.122a.2.2 0 0 1-.068-.025 1.06 1.06 0 0 0-.47-.097.63.63 0 0 0-.423.139.575.575 0 0 0-.025.775q.204.184.453.3.22.107.423.246.165.121.266.3a.9.9 0 0 1 .106.465.95.95 0 0 1-.292.745 1.1 1.1 0 0 1-.761.267 1.36 1.36 0 0 1-.796-.225M166.774 180.564v-3.088h-.732q-.096 0-.097-.153v-.08q.001-.152.097-.152h1.909a.1.1 0 0 1 .08.033.3.3 0 0 1 0 .119v.08a.3.3 0 0 1 0 .119.1.1 0 0 1-.036.026.1.1 0 0 1-.044.008h-.707v3.088q.001.109-.195.11h-.072c-.156-.021-.203-.059-.203-.11M173.811 145.637c-4.972.529-9.271-.897-11.378-5.001a.52.52 0 0 0-.728-.205.5.5 0 0 0-.19.205c-2.115 4.104-6.406 5.53-11.377 5.001a.525.525 0 0 0-.588.503c-.166 10.752 6.245 19.163 12.422 21.088 6.182-1.925 12.592-10.336 12.423-21.088a.52.52 0 0 0-.384-.492.5.5 0 0 0-.221-.011z" style="fill:#ad6615;fill:color(display-p3 .6784 .4 .0824);fill-opacity:1"/><path fill="#AD6615" d="m161.951 169.005-.504-.161c-6.833-2.116-13.789-11.217-13.611-22.73a2.241 2.241 0 0 1 2.458-2.162q.875.095 1.756.098c2.64 0 6.161-.728 7.938-4.189a2.2 2.2 0 0 1 1.963-1.197 2.21 2.21 0 0 1 1.963 1.197c1.781 3.461 5.302 4.189 7.938 4.189a17 17 0 0 0 1.756-.098h.237a2.224 2.224 0 0 1 2.221 2.175c.182 11.513-6.77 20.601-13.612 22.73zm-.25-.969.25.08.254-.08c6.533-2.035 13.188-10.789 13.015-21.909a1.37 1.37 0 0 0-.962-1.277 1.4 1.4 0 0 0-.562-.056q-.919.1-1.844.102c-2.873 0-6.715-.808-8.687-4.654a1.362 1.362 0 0 0-2.424 0c-1.976 3.837-5.814 4.654-8.691 4.654a17 17 0 0 1-1.845-.102 1 1 0 0 0-.148 0 1.373 1.373 0 0 0-1.375 1.342c-.173 11.119 6.482 19.886 13.019 21.908z" style="fill:#ad6615;fill:color(display-p3 .6784 .4 .0824);fill-opacity:1"/><path fill="#fff" d="M173.811 145.637c-4.972.529-9.271-.897-11.378-5.001a.52.52 0 0 0-.728-.205.5.5 0 0 0-.19.205c-2.115 4.104-6.406 5.53-11.377 5.001a.525.525 0 0 0-.588.503c-.166 10.752 6.245 19.163 12.422 21.088 6.182-1.925 12.592-10.336 12.423-21.088a.52.52 0 0 0-.384-.492.5.5 0 0 0-.221-.011z" opacity=".5" style="fill:#fff;fill-opacity:1"/><path fill="#fff" d="M161.248 159.223a1.36 1.36 0 0 1-.994-.424l-3.08-3.291a1.37 1.37 0 0 1-.366-.974 1.35 1.35 0 0 1 .88-1.227 1.35 1.35 0 0 1 1.039.034q.246.113.431.309l2.001 2.137 4.735-6c.233-.252.553-.406.895-.431a1.355 1.355 0 0 1 1.221 2.124l-5.695 7.226a1.36 1.36 0 0 1-.995.517z" style="fill:#fff;fill-opacity:1"/><path fill="#263238" d="M84.056 118.169v-4.697l1.697-.98q.39-.225.656-.245.268-.021.401.171.14.181.14.564t-.186.758a2.1 2.1 0 0 1-.506.661v-.134a.8.8 0 0 1 .477-.034q.203.05.314.242.116.187.116.517a2.3 2.3 0 0 1-.36 1.234 2.7 2.7 0 0 1-.994.93zm.627-1.06 1.093-.631q.238-.138.4-.312.169-.178.257-.383.093-.214.093-.436 0-.207-.1-.298-.092-.094-.267-.068a1.1 1.1 0 0 0-.412.158l-1.064.614zm0-2.054 1.035-.597q.174-.1.308-.258a1.3 1.3 0 0 0 .215-.346.9.9 0 0 0 .081-.369q0-.302-.174-.362-.174-.061-.5.127l-.965.557zM89.279 115.221q-.471.272-.837.255a.75.75 0 0 1-.57-.309q-.203-.285-.203-.809 0-.416.116-.825a3.6 3.6 0 0 1 .32-.775q.21-.376.494-.674.29-.309.627-.504a1.25 1.25 0 0 1 .552-.184q.255-.02.442.1a.73.73 0 0 1 .29.376q.105.249.1.621l-.006.298-2.494 1.44-.133-.473 2.11-1.218-.088.164v-.161a.5.5 0 0 0-.128-.322.39.39 0 0 0-.279-.114.7.7 0 0 0-.366.111 1.9 1.9 0 0 0-.854 1.037 2.2 2.2 0 0 0-.11.714q0 .369.133.567.134.192.378.198t.564-.178q.226-.13.418-.328a3.4 3.4 0 0 0 .424-.561l.302.316a3 3 0 0 1-.342.479 4.4 4.4 0 0 1-.425.44q-.22.195-.436.319M91.26 114.01v-3.523l.599-.346v.725l-.105.141q.058-.268.227-.561.168-.298.4-.553.233-.262.477-.403.349-.201.581-.174.233.02.349.275.117.255.116.745v2.147l-.598.346v-2.101q0-.301-.07-.456-.07-.161-.215-.165-.145-.01-.36.128a1.4 1.4 0 0 0-.32.252 1.74 1.74 0 0 0-.424.687q-.059.182-.058.356v2.134l-.297.171-.151.087zM96.14 111.259q-.471.272-.837.255a.75.75 0 0 1-.57-.308q-.203-.286-.203-.809 0-.416.117-.826.116-.409.32-.775a3.3 3.3 0 0 1 .493-.674q.29-.31.628-.503.296-.171.552-.185.256-.02.442.101a.72.72 0 0 1 .29.376q.105.248.099.62l-.006.299-2.493 1.439-.134-.473 2.11-1.218-.087.165v-.161a.5.5 0 0 0-.128-.322.4.4 0 0 0-.279-.115.7.7 0 0 0-.366.111q-.315.182-.529.446-.215.26-.325.591-.11.325-.11.715 0 .369.133.567.134.19.377.198.244.006.564-.178.226-.13.419-.329.197-.201.424-.56l.302.315a3.2 3.2 0 0 1-.343.48 4.5 4.5 0 0 1-.424.439q-.22.195-.436.319M98.453 109.857v-3.919q0-.303.116-.604.117-.302.32-.554t.47-.406a.86.86 0 0 1 .35-.121.36.36 0 0 1 .26.064l-.203.648a.3.3 0 0 0-.168-.03.3.3 0 0 0-.169.043.8.8 0 0 0-.209.168.6.6 0 0 0-.122.205.7.7 0 0 0-.04.238v3.919l-.303.174-.151.088zm-.488-2.543v-.638l1.813-1.047v.638zm2.539 1.358v-3.523l.599-.345v3.523zm.291-4.469q-.192.111-.296.057-.105-.054-.105-.262 0-.194.105-.375a.8.8 0 0 1 .296-.292q.192-.111.296-.057.105.053.105.261 0 .195-.11.38a.8.8 0 0 1-.291.288M102.398 107.579v-4.422l.599-.346v4.422zm-.633-2.486v-.671l1.941-1.121v.671zM105.382 105.924q-.384.22-.692.245a.66.66 0 0 1-.511-.161l.406-.638q.176.135.378.124.21-.02.471-.171.105-.06.192-.138a1 1 0 0 0 .261-.385.7.7 0 0 0 .035-.208q0-.175-.11-.219a.6.6 0 0 0-.186.007 2 2 0 0 0-.32.064 2 2 0 0 1-.552.091.53.53 0 0 1-.331-.098.44.44 0 0 1-.128-.201 1 1 0 0 1-.041-.312q0-.222.082-.45a2.1 2.1 0 0 1 .232-.456 2.4 2.4 0 0 1 .779-.738q.215-.124.424-.178.215-.057.395-.034.18.024.302.128l-.343.634a.7.7 0 0 0-.244-.081.754.754 0 0 0-.505.084 1.5 1.5 0 0 0-.221.155 1 1 0 0 0-.169.178.8.8 0 0 0-.098.191.6.6 0 0 0-.035.201.4.4 0 0 0 .035.148q.035.053.093.074a.6.6 0 0 0 .191.003q.129-.014.326-.074.29-.08.476-.08a.5.5 0 0 1 .303.06q.115.06.162.201t.047.349q0 .303-.151.631a2.4 2.4 0 0 1-.395.597 2.3 2.3 0 0 1-.558.457M111.698 102.21l-.529-.346-.093-.067-1.006-.714a4 4 0 0 1-.279-.222 2 2 0 0 1-.238-.258 1.6 1.6 0 0 1-.163-.282.9.9 0 0 1-.058-.315q0-.343.151-.698.157-.366.425-.675.273-.312.627-.517.262-.15.488-.167a.58.58 0 0 1 .634.399l-.453.597q-.111-.244-.273-.292-.158-.05-.396.087a1.2 1.2 0 0 0-.302.242.905.905 0 0 0-.25.627q0 .148.07.29.075.13.186.247.11.118.227.205l.203.151.808.574.168.117.831.567zm-1.564.97q-.413.239-.749.231a.75.75 0 0 1-.541-.231q-.198-.228-.197-.631 0-.53.249-1.064.257-.537.744-1.027l.372.302a2.3 2.3 0 0 0-.552.635q-.18.318-.18.687 0 .282.116.43a.39.39 0 0 0 .331.144q.222-.007.524-.181.261-.151.476-.389a3 3 0 0 0 .395-.564 3.5 3.5 0 0 0 .285-.681 4.5 4.5 0 0 0 .169-.768l.534-.31a5 5 0 0 1-.168.857 5 5 0 0 1-.297.801 4.6 4.6 0 0 1-.406.719 4 4 0 0 1-.506.593 3.2 3.2 0 0 1-.599.447M84.056 124.88v-4.698l1.592-.919q.435-.252.785-.285a.87.87 0 0 1 .604.134q.25.172.384.523.133.352.133.876a4 4 0 0 1-.133 1.037 4.3 4.3 0 0 1-.384.966q-.244.45-.599.822-.355.373-.79.624zm.627-.987-.017-.063.953-.551q.308-.177.546-.429.245-.255.407-.557.168-.312.256-.671a3.1 3.1 0 0 0 .087-.742q0-.382-.087-.634a.72.72 0 0 0-.256-.376.6.6 0 0 0-.407-.094 1.4 1.4 0 0 0-.546.202l-.97.56.034-.081zM89.676 121.702q-.471.272-.837.255a.75.75 0 0 1-.57-.309q-.203-.285-.203-.808 0-.417.116-.826a3.6 3.6 0 0 1 .32-.775 3.3 3.3 0 0 1 .494-.674 2.7 2.7 0 0 1 .628-.503 1.24 1.24 0 0 1 .552-.185q.255-.02.441.101a.72.72 0 0 1 .29.375q.106.249.1.621l-.006.299-2.493 1.439-.134-.473 2.11-1.218-.087.165v-.161a.5.5 0 0 0-.128-.323.4.4 0 0 0-.28-.114.7.7 0 0 0-.365.111q-.314.182-.53.446a1.8 1.8 0 0 0-.325.591q-.11.325-.11.715 0 .369.133.567.134.19.378.198.244.006.564-.178.226-.13.418-.329.198-.201.425-.56l.302.315a3.2 3.2 0 0 1-.343.48 4.5 4.5 0 0 1-.424.439q-.221.195-.436.319M92.93 119.823q-.418.242-.75.198a.74.74 0 0 1-.517-.352q-.192-.306-.192-.835 0-.531.186-1.047.192-.528.517-.95.325-.43.738-.668a1.3 1.3 0 0 1 .436-.164.8.8 0 0 1 .384.007q.169.044.261.164a.4.4 0 0 1 .1.285l-.175.114v-2.355l.599-.346v4.966l-.599.346v-.839l.116-.067a1 1 0 0 1-.093.376 2.7 2.7 0 0 1-.25.433 2.8 2.8 0 0 1-.354.419q-.197.195-.407.315m.081-.644q.273-.158.483-.439t.325-.625q.122-.351.122-.708 0-.355-.122-.56a.46.46 0 0 0-.325-.255q-.21-.04-.483.118a1.6 1.6 0 0 0-.482.439q-.21.282-.331.634a2.2 2.2 0 0 0-.116.698q0 .355.116.571a.49.49 0 0 0 .331.245q.21.04.482-.118M96.5 117.762q-.324.187-.569.154a.5.5 0 0 1-.372-.275q-.128-.242-.128-.678v-2.174l.599-.346v1.987q0 .308.081.49.087.171.245.201.162.027.389-.104a1.46 1.46 0 0 0 .546-.557 1.6 1.6 0 0 0 .163-.369q.058-.195.058-.383v-2.12l.599-.346v3.523l-.599.346v-.738l.105-.141a2.3 2.3 0 0 1-.239.587 3 3 0 0 1-.39.547 2.1 2.1 0 0 1-.487.396M100.246 115.599q-.424.246-.761.198a.75.75 0 0 1-.529-.352q-.192-.306-.192-.822 0-.517.192-1.044.198-.53.529-.963.337-.435.761-.681.407-.234.738-.231.337-.007.512.221l-.332.661a.5.5 0 0 0-.238-.144.75.75 0 0 0-.308-.024.85.85 0 0 0-.314.108 1.7 1.7 0 0 0-.5.449 2.3 2.3 0 0 0-.342.628 2 2 0 0 0-.128.691q0 .342.133.54a.5.5 0 0 0 .355.225q.22.033.488-.121.157-.09.302-.235.151-.147.291-.349.14-.2.261-.446l.332.279a3.3 3.3 0 0 1-.535.805 2.9 2.9 0 0 1-.715.607M102.438 114.267v-4.423l.599-.345v4.422zm-.633-2.487v-.671l1.941-1.12v.671zM104.39 113.14v-3.523l.598-.346v3.523zm.29-4.469q-.192.111-.296.057-.105-.054-.105-.262a.74.74 0 0 1 .105-.376.8.8 0 0 1 .296-.292q.192-.111.297-.057t.104.262q0 .195-.11.379a.8.8 0 0 1-.291.289M107.28 111.538q-.447.26-.802.229a.75.75 0 0 1-.552-.333q-.204-.298-.204-.828t.204-1.057a3.6 3.6 0 0 1 .552-.97q.355-.445.802-.705.441-.255.79-.214.355.03.558.328.204.292.204.823t-.204 1.063a3.7 3.7 0 0 1-.558.973 2.8 2.8 0 0 1-.79.691m0-.63q.273-.158.488-.437.215-.285.337-.624.122-.345.116-.684.006-.352-.116-.55a.45.45 0 0 0-.337-.235q-.215-.03-.488.127a1.7 1.7 0 0 0-.494.446 2.2 2.2 0 0 0-.337.625q-.123.338-.116.677-.007.346.116.551.121.198.337.234.22.027.494-.13M109.484 110.199v-3.523l.598-.346v.725l-.104.141q.058-.268.226-.561.169-.298.401-.553.233-.262.477-.403.348-.201.581-.174.232.02.349.275t.116.745v2.147l-.598.346v-2.101q0-.302-.07-.456-.07-.16-.215-.164-.145-.01-.361.127a1.4 1.4 0 0 0-.319.252 1.8 1.8 0 0 0-.256.322 1.8 1.8 0 0 0-.168.366q-.059.18-.059.355v2.134l-.296.171-.151.088zM113.957 107.683q-.384.222-.691.245a.65.65 0 0 1-.512-.161l.407-.637q.174.133.378.124.209-.021.471-.171.104-.06.191-.138a1 1 0 0 0 .262-.386.7.7 0 0 0 .035-.208q0-.174-.111-.218a.5.5 0 0 0-.186.007 2 2 0 0 0-.319.064 2 2 0 0 1-.552.09.53.53 0 0 1-.332-.097.46.46 0 0 1-.128-.201 1 1 0 0 1-.04-.313q0-.22.081-.449.087-.239.233-.456a2.4 2.4 0 0 1 .348-.417 2.4 2.4 0 0 1 .43-.322q.215-.124.425-.177a1 1 0 0 1 .395-.034.57.57 0 0 1 .302.127l-.343.635a.6.6 0 0 0-.244-.081.7.7 0 0 0-.262-.003.7.7 0 0 0-.244.087 1.5 1.5 0 0 0-.22.154 1 1 0 0 0-.169.178.8.8 0 0 0-.099.191.6.6 0 0 0-.035.202.4.4 0 0 0 .035.147.17.17 0 0 0 .093.074.6.6 0 0 0 .192.004 2 2 0 0 0 .325-.074 1.9 1.9 0 0 1 .477-.081.5.5 0 0 1 .302.061.33.33 0 0 1 .163.201q.046.14.046.349 0 .301-.151.631a2.4 2.4 0 0 1-.395.597 2.2 2.2 0 0 1-.558.456" style="fill:#263238;fill:color(display-p3 .149 .1961 .2196);fill-opacity:1"/></svg>