<svg width="256" height="256" viewBox="0 0 256 256" fill="none" xmlns="http://www.w3.org/2000/svg">
<path d="M46.5595 218.407C24.0863 206.639 13.0007 191.291 13 176.074C12.9993 160.857 24.0837 145.507 46.5595 133.734C69.0237 121.967 98.4995 116.07 128.002 116.07C157.505 116.07 186.979 121.967 209.441 133.734C231.914 145.507 242.999 160.855 243 176.07C243.001 191.285 231.917 206.634 209.441 218.407C186.976 230.174 157.502 236.07 128 236.07C98.4981 236.07 69.0237 230.174 46.5595 218.407Z" stroke="#D5D5D5" style="stroke:#D5D5D5;stroke:color(display-p3 0.8353 0.8353 0.8353);stroke-opacity:1;"/>
<path d="M43.2896 210.355L41.6819 209.408C41.4157 209.233 41.1942 208.997 41.0351 208.721C40.876 208.444 40.7837 208.134 40.7654 207.816V88.6582C40.7844 88.3406 40.8771 88.0318 41.0362 87.7563C41.1953 87.4808 41.4164 87.2461 41.6819 87.0709L115.615 44.3804C115.9 44.2372 116.215 44.1626 116.534 44.1626C116.853 44.1626 117.168 44.2372 117.453 44.3804L119.06 45.3122C119.327 45.4869 119.549 45.7213 119.709 45.9968C119.869 46.2723 119.963 46.5814 119.982 46.8994V166.078C119.963 166.397 119.87 166.707 119.71 166.983C119.55 167.26 119.328 167.495 119.06 167.67L45.1277 210.355C44.8425 210.499 44.5278 210.573 44.2086 210.573C43.8895 210.573 43.5748 210.499 43.2896 210.355Z" fill="#37474F" style="fill:#37474F;fill:color(display-p3 0.2157 0.2784 0.3098);fill-opacity:1;"/>
<path d="M119.972 46.7509C119.905 46.2799 119.521 46.1058 119.06 46.3721L45.1277 89.0575C44.8559 89.2247 44.632 89.4593 44.4774 89.7385L41.0317 87.7519C41.1877 87.4738 41.4113 87.2396 41.6819 87.0709L115.615 44.3804C115.9 44.2372 116.215 44.1626 116.534 44.1626C116.853 44.1626 117.168 44.2372 117.453 44.3804L119.06 45.3122C119.307 45.4726 119.516 45.6841 119.673 45.9324C119.83 46.1806 119.932 46.4598 119.972 46.7509Z" fill="#455A64" style="fill:#455A64;fill:color(display-p3 0.2706 0.3529 0.3922);fill-opacity:1;"/>
<path d="M44.9638 210.432C44.947 210.436 44.9295 210.436 44.9126 210.432L44.8154 210.468H44.7795C44.7232 210.468 44.6669 210.499 44.6106 210.514C44.2462 210.585 43.8697 210.556 43.52 210.432C43.4495 210.407 43.381 210.376 43.3152 210.34L41.6819 209.408C41.4157 209.233 41.1942 208.997 41.0351 208.721C40.876 208.444 40.7837 208.134 40.7654 207.816V88.6582C40.7767 88.3386 40.8683 88.0269 41.0317 87.752L44.4774 89.7385C44.3108 90.0123 44.2173 90.3244 44.2061 90.6448V209.828C44.1979 209.999 44.2465 210.169 44.3443 210.309C44.4067 210.381 44.4875 210.433 44.5779 210.461C44.6683 210.489 44.7646 210.492 44.8563 210.468L44.9638 210.432Z" fill="#263238" style="fill:#263238;fill:color(display-p3 0.1490 0.1961 0.2196);fill-opacity:1;"/>
<path d="M70.8864 83.8761C70.8626 83.751 70.806 83.6344 70.7226 83.5382L70.6611 83.487C70.6127 83.4505 70.556 83.4268 70.4961 83.4178C70.4362 83.4089 70.375 83.4151 70.3181 83.4358C70.2724 83.4468 70.2291 83.4659 70.1901 83.4921C69.9627 83.6487 69.785 83.8673 69.6781 84.1219C69.5412 84.4101 69.4679 84.7244 69.463 85.0435C69.4424 85.2819 69.516 85.519 69.6679 85.7039C69.7352 85.769 69.8231 85.8086 69.9165 85.8161C70.0099 85.8236 70.103 85.7984 70.1799 85.7449C70.2895 85.6788 70.3865 85.5939 70.4666 85.494C70.5396 85.3988 70.6047 85.2978 70.6611 85.1919C70.8184 84.8839 70.9042 84.5444 70.912 84.1987C70.9149 84.0905 70.9063 83.9824 70.8864 83.8761ZM82.9082 57.0115C82.6413 56.8547 82.337 56.7733 82.0275 56.7759C81.4401 56.8033 80.8693 56.9795 80.3686 57.2879C78.9712 58.1433 77.8922 59.4326 77.2966 60.959C77.1994 61.174 77.1072 61.3993 77.0253 61.6195C76.9434 61.8396 76.8563 62.0649 76.7846 62.2953C76.713 62.5257 76.631 62.7561 76.5645 62.9865C76.5389 63.0633 76.5184 63.1452 76.4928 63.2169L76.3597 63.6828C76.3619 63.7049 76.3619 63.7273 76.3597 63.7494C76.2829 64.031 76.2112 64.3228 76.1293 64.6095C76.0883 64.7683 76.0525 64.9167 76.0115 65.0703L75.8938 65.526C75.7299 66.1353 75.5661 66.719 75.3818 67.2771L75.264 67.615C75.2077 67.7737 75.1514 67.9324 75.0899 68.086C75.0285 68.2396 74.9926 68.3215 74.9466 68.4291C74.8698 68.6185 74.7878 68.7977 74.7008 68.9718C74.6138 69.1459 74.5933 69.1919 74.537 69.2995C73.2416 71.7878 71.6595 72.7606 70.743 74.0406C69.9392 75.1567 69.719 76.0476 68.6336 77.814C68.2906 78.3772 67.8605 79.0275 67.2973 79.8057C65.7357 81.9561 65.1776 83.0211 64.9882 83.6662C64.9861 83.6832 64.9861 83.7004 64.9882 83.7174C64.9882 83.7686 64.9882 83.8147 64.9523 83.8607C64.9505 83.876 64.9505 83.8915 64.9523 83.9068C64.9503 83.9478 64.9503 83.9888 64.9523 84.0297C64.9344 84.1552 64.9259 84.2818 64.9267 84.4086V89.1907L66.647 90.1839V85.3967C66.6427 85.1468 66.6791 84.8978 66.7546 84.6595C66.944 84.0143 67.497 82.9545 69.0637 80.8041C69.6269 80.0207 70.057 79.3705 70.4 78.8073C71.4752 77.046 71.7056 76.15 72.5094 75.0441C73.4259 73.759 75.008 72.7913 76.3034 70.2979C76.4902 69.9146 76.656 69.5215 76.8 69.1203C77.6294 67.0723 78.0032 64.3126 79.0221 61.9932C79.6166 60.4689 80.6961 59.1825 82.0941 58.3324C83.1437 57.7283 83.9117 57.6771 84.5005 57.9535L82.9082 57.0115ZM90.4499 63.1247C90.3069 63.0432 90.1537 62.9812 89.9942 62.9404C89.344 62.7868 88.3763 63.1657 87.4035 63.0531C88.7706 64.8195 90.6701 63.6828 91.7146 63.9337C91.8771 63.9726 92.0325 64.0365 92.1754 64.1231L90.4499 63.1247ZM94.0954 69.6937C94.0443 69.725 93.9963 69.761 93.952 69.8012L93.8803 69.8729L93.8138 69.9497C93.5266 70.3209 93.3684 70.7757 93.3632 71.2451C93.3462 71.4807 93.4173 71.7143 93.5629 71.9004C93.5823 71.9187 93.6028 71.9358 93.6243 71.9516C93.6717 71.988 93.7276 72.0119 93.7867 72.0208C93.8458 72.0298 93.9062 72.0236 93.9622 72.0028C94.0095 71.9916 94.0544 71.9726 94.0954 71.9465C94.1466 71.9158 94.1927 71.8748 94.2439 71.839C94.3182 71.7693 94.3851 71.6921 94.4435 71.6086C94.6872 71.2522 94.8208 70.832 94.8275 70.4003C94.8275 69.7807 94.4998 69.4582 94.0954 69.6937ZM95.2218 65.3673C94.6691 65.0591 94.0685 64.8462 93.4451 64.7375C93.1789 64.6761 92.9331 64.6095 92.7334 64.543C93.4184 65.1526 94.2581 65.5618 95.1603 65.7257C95.708 65.8323 96.2409 66.0042 96.7475 66.2377L95.2218 65.3673Z" fill="#F7921E" style="fill:#F7921E;fill:color(display-p3 0.9686 0.5725 0.1176);fill-opacity:1;"/>
<path d="M96.8858 66.3246L96.7475 66.2427C96.2409 66.0091 95.708 65.8372 95.1603 65.7307C94.2578 65.5678 93.4178 65.1585 92.7335 64.5479C92.5621 64.3895 92.3751 64.2489 92.1754 64.1281C92.0321 64.0435 91.8767 63.9814 91.7146 63.9438C90.6906 63.6929 88.7706 64.8295 87.4087 63.0631L87.3626 63.0068C86.4103 61.7217 86.0621 58.8545 84.6336 58.0148L84.4903 57.9329C83.9015 57.6564 83.1335 57.7076 82.0839 58.3118C78.3002 60.498 78.1722 65.6897 76.8103 69.1047C75.4483 72.5198 73.513 73.5899 72.4634 75.0593C71.4138 76.5287 71.3421 77.6193 69.0125 80.8244C66.6829 84.0295 66.5959 84.818 66.5959 85.4324V90.2145L97.5821 72.2945V67.5124C97.6008 67.2671 97.5441 67.0219 97.4197 66.8096C97.2952 66.5973 97.109 66.4281 96.8858 66.3246ZM70.1901 85.7447C69.7856 85.9803 69.4631 85.6679 69.4631 85.0433C69.459 84.7488 69.5224 84.4572 69.6484 84.191C69.7745 83.9247 69.9597 83.6909 70.1901 83.5073C70.5946 83.2718 70.9171 83.5892 70.9171 84.2139C70.9212 84.5076 70.8577 84.7984 70.7317 85.0639C70.6056 85.3293 70.4203 85.5622 70.1901 85.7447ZM82.0839 71.3371C81.8898 71.4848 81.6633 71.5841 81.4232 71.6269C81.1831 71.6697 80.9362 71.6547 80.703 71.5832C80.4699 71.5116 80.2571 71.3856 80.0823 71.2155C79.9075 71.0453 79.7758 70.836 79.6979 70.6049C79.4304 69.9994 79.3026 69.3414 79.3242 68.6798C79.3242 66.3297 80.5581 63.7134 82.0839 62.8327C82.2899 62.7098 82.5148 62.6215 82.7495 62.5716C83.9578 62.331 84.8435 63.4881 84.8435 65.49C84.8435 67.8401 83.6096 70.4564 82.0839 71.3371ZM94.0954 71.9412C93.6909 72.1767 93.3632 71.8644 93.3632 71.2449C93.3602 70.95 93.4245 70.6583 93.5514 70.3921C93.6783 70.1259 93.8644 69.8922 94.0954 69.7089C94.4999 69.4785 94.8275 69.7908 94.8275 70.4155C94.8306 70.7089 94.7661 70.9991 94.6392 71.2636C94.5122 71.5282 94.3262 71.76 94.0954 71.9412Z" fill="#F7921E" style="fill:#F7921E;fill:color(display-p3 0.9686 0.5725 0.1176);fill-opacity:1;"/>
<path opacity="0.1" d="M96.8858 66.3246L96.7475 66.2427C96.2409 66.0091 95.708 65.8372 95.1603 65.7307C94.2578 65.5678 93.4178 65.1585 92.7335 64.5479C92.5621 64.3895 92.3751 64.2489 92.1754 64.1281C92.0321 64.0435 91.8767 63.9814 91.7146 63.9438C90.6906 63.6929 88.7706 64.8295 87.4087 63.0631L87.3626 63.0068C86.4103 61.7217 86.0621 58.8545 84.6336 58.0148L84.4903 57.9329C83.9015 57.6564 83.1335 57.7076 82.0839 58.3118C78.3002 60.498 78.1722 65.6897 76.8103 69.1047C75.4483 72.5198 73.513 73.5899 72.4634 75.0593C71.4138 76.5287 71.3421 77.6193 69.0125 80.8244C66.6829 84.0295 66.5959 84.818 66.5959 85.4324V90.2145L97.5821 72.2945V67.5124C97.6008 67.2671 97.5441 67.0219 97.4197 66.8096C97.2952 66.5973 97.109 66.4281 96.8858 66.3246ZM70.1901 85.7447C69.7856 85.9803 69.4631 85.6679 69.4631 85.0433C69.459 84.7488 69.5224 84.4572 69.6484 84.191C69.7745 83.9247 69.9597 83.6909 70.1901 83.5073C70.5946 83.2718 70.9171 83.5892 70.9171 84.2139C70.9212 84.5076 70.8577 84.7984 70.7317 85.0639C70.6056 85.3293 70.4203 85.5622 70.1901 85.7447ZM82.0839 71.3371C81.8898 71.4848 81.6633 71.5841 81.4232 71.6269C81.1831 71.6697 80.9362 71.6547 80.703 71.5832C80.4699 71.5116 80.2571 71.3856 80.0823 71.2155C79.9075 71.0453 79.7758 70.836 79.6979 70.6049C79.4304 69.9994 79.3026 69.3414 79.3242 68.6798C79.3242 66.3297 80.5581 63.7134 82.0839 62.8327C82.2899 62.7098 82.5148 62.6215 82.7495 62.5716C83.9578 62.331 84.8435 63.4881 84.8435 65.49C84.8435 67.8401 83.6096 70.4564 82.0839 71.3371ZM94.0954 71.9412C93.6909 72.1767 93.3632 71.8644 93.3632 71.2449C93.3602 70.95 93.4245 70.6583 93.5514 70.3921C93.6783 70.1259 93.8644 69.8922 94.0954 69.7089C94.4999 69.4785 94.8275 69.7908 94.8275 70.4155C94.8306 70.7089 94.7661 70.9991 94.6392 71.2636C94.5122 71.5282 94.3262 71.76 94.0954 71.9412Z" fill="black" style="fill:black;fill-opacity:1;"/>
<path opacity="0.25" d="M66.7034 84.6798C66.6278 84.9181 66.5915 85.1671 66.5958 85.4171V90.2043L64.8755 89.211V84.4289C64.8747 84.3022 64.8832 84.1755 64.9011 84.05C64.8991 84.0091 64.8991 83.9681 64.9011 83.9272C64.8992 83.9119 64.8992 83.8964 64.9011 83.8811C64.9011 83.835 64.9011 83.7889 64.937 83.7377V83.6865L66.7034 84.6798Z" fill="black" style="fill:black;fill-opacity:1;"/>
<path opacity="0.25" d="M72.4582 75.0645C71.6544 76.1705 71.4342 77.0665 70.3488 78.8277L68.6336 77.8242C69.7088 76.0578 69.9392 75.1669 70.743 74.0508L72.4582 75.0645Z" fill="black" style="fill:black;fill-opacity:1;"/>
<path opacity="0.25" d="M79.0323 61.952C78.0083 64.2714 77.6397 67.0055 76.8102 69.0791C76.6491 69.4937 76.4644 69.8988 76.2573 70.2925L74.537 69.3043C74.5933 69.1968 74.6496 69.0842 74.7008 68.9767C74.752 68.8691 74.8698 68.6234 74.9466 68.4339C74.9926 68.3264 75.0438 68.2087 75.0899 68.0909C75.136 67.9732 75.2077 67.7786 75.264 67.6199L75.3818 67.2819C75.5661 66.7239 75.7299 66.1402 75.8938 65.5309L76.0115 65.0752C76.0525 64.9216 76.0883 64.7731 76.1293 64.6144C76.2112 64.3277 76.2829 64.0359 76.3597 63.7543C76.3619 63.7321 76.3619 63.7098 76.3597 63.6877L76.4928 63.2218C76.5184 63.1501 76.5389 63.0682 76.5645 62.9914C76.631 62.761 76.7078 62.5306 76.7846 62.3002C76.8614 62.0698 76.9382 61.8496 77.0253 61.6243C77.1123 61.3991 77.1994 61.1789 77.2966 60.9639L79.0323 61.952Z" fill="black" style="fill:black;fill-opacity:1;"/>
<path d="M69.673 84.1219C69.5361 84.4102 69.4628 84.7244 69.4579 85.0435C69.4373 85.282 69.5108 85.519 69.6627 85.704C69.5155 85.5168 69.4442 85.2809 69.463 85.0435C69.4687 84.7251 69.5402 84.4113 69.673 84.1219ZM70.9223 84.1987C70.9217 84.0902 70.9097 83.9821 70.8864 83.8761C70.908 83.9823 70.9183 84.0904 70.9171 84.1987C70.911 84.5441 70.827 84.8836 70.6714 85.192C70.8286 84.884 70.9144 84.5444 70.9223 84.1987ZM93.6243 71.9517C93.6717 71.9881 93.7276 72.0119 93.7867 72.0208C93.8458 72.0298 93.9062 72.0236 93.9623 72.0029C93.9057 72.0206 93.8459 72.0252 93.7874 72.0163C93.7288 72.0075 93.673 71.9853 93.6243 71.9517Z" fill="#F7921E" style="fill:#F7921E;fill:color(display-p3 0.9686 0.5725 0.1176);fill-opacity:1;"/>
<path d="M84.8487 65.4904C84.8487 67.8404 83.6096 70.4568 82.0839 71.3374C81.8883 71.4797 81.6625 71.5747 81.424 71.6148C81.1855 71.6549 80.941 71.6391 80.7097 71.5686C80.4783 71.4982 80.2665 71.3749 80.091 71.2086C79.9154 71.0423 79.7809 70.8375 79.6979 70.6104C79.9347 70.5595 80.1614 70.4695 80.3687 70.3441C81.9047 69.4584 83.1283 66.8472 83.1283 64.4971C83.1508 63.8349 83.0212 63.1763 82.7495 62.572C83.968 62.3313 84.8487 63.4884 84.8487 65.4904Z" fill="#F7921E" style="fill:#F7921E;fill:color(display-p3 0.9686 0.5725 0.1176);fill-opacity:1;"/>
<path opacity="0.3" d="M84.8487 65.4904C84.8487 67.8404 83.6096 70.4568 82.0839 71.3374C81.8883 71.4797 81.6625 71.5747 81.424 71.6148C81.1855 71.6549 80.941 71.6391 80.7097 71.5686C80.4783 71.4982 80.2665 71.3749 80.091 71.2086C79.9154 71.0423 79.7809 70.8375 79.6979 70.6104C79.9347 70.5595 80.1614 70.4695 80.3687 70.3441C81.9047 69.4584 83.1283 66.8472 83.1283 64.4971C83.1508 63.8349 83.0212 63.1763 82.7495 62.572C83.968 62.3313 84.8487 63.4884 84.8487 65.4904Z" fill="black" style="fill:black;fill-opacity:1;"/>
<path d="M70.656 85.1918C70.6043 85.2992 70.5408 85.4006 70.4666 85.4939C70.3865 85.5937 70.2895 85.6787 70.1799 85.7448C70.103 85.7983 70.0099 85.8234 69.9165 85.816C69.8231 85.8085 69.7353 85.7689 69.6679 85.7038C69.516 85.5188 69.4425 85.2818 69.4631 85.0433C69.4679 84.7243 69.5412 84.41 69.6781 84.1217C69.785 83.8672 69.9627 83.6486 70.1901 83.492C70.2291 83.4657 70.2724 83.4466 70.3181 83.4356C70.3881 83.4112 70.4638 83.4079 70.5357 83.4261C70.6076 83.4443 70.6726 83.4832 70.7226 83.538C70.806 83.6342 70.8626 83.7508 70.8864 83.876C70.9097 83.9819 70.9217 84.09 70.9223 84.1985C70.9143 84.5461 70.823 84.8868 70.656 85.1918Z" fill="#37474F" style="fill:#37474F;fill:color(display-p3 0.2157 0.2784 0.3098);fill-opacity:1;"/>
<path d="M94.8275 70.4005C94.8208 70.8322 94.6872 71.2524 94.4435 71.6088C94.3851 71.6923 94.3182 71.7695 94.2438 71.8392C94.1926 71.875 94.1466 71.916 94.0954 71.9467C94.0544 71.9728 94.0094 71.9918 93.9622 72.003C93.8929 72.0263 93.8183 72.0291 93.7474 72.0109C93.6765 71.9927 93.6125 71.9544 93.5629 71.9006C93.4173 71.7145 93.3462 71.4809 93.3632 71.2453C93.3684 70.7759 93.5265 70.3211 93.8138 69.9499L93.8803 69.8731L93.952 69.8014C93.9963 69.7612 94.0443 69.7252 94.0954 69.6939C94.4998 69.4584 94.8275 69.7809 94.8275 70.4005Z" fill="#37474F" style="fill:#37474F;fill:color(display-p3 0.2157 0.2784 0.3098);fill-opacity:1;"/>
<path d="M49.9251 100.204L114.263 63.058C114.434 62.972 114.622 62.9272 114.813 62.9272C115.005 62.9272 115.193 62.972 115.364 63.058L115.983 63.4164C116.144 63.522 116.277 63.6635 116.373 63.8297C116.469 63.9959 116.525 64.1823 116.536 64.3739V162.524C116.525 162.715 116.47 162.901 116.374 163.066C116.277 163.232 116.144 163.372 115.983 163.477L51.6454 200.622C51.4754 200.711 51.2867 200.757 51.095 200.757C50.9034 200.757 50.7146 200.711 50.5446 200.622L49.9251 200.264C49.7644 200.16 49.6305 200.019 49.5344 199.854C49.4383 199.688 49.3827 199.503 49.3722 199.311V101.161C49.3823 100.969 49.4377 100.782 49.5338 100.616C49.6299 100.45 49.764 100.308 49.9251 100.204Z" fill="#F5F5F5" style="fill:#F5F5F5;fill:color(display-p3 0.9608 0.9608 0.9608);fill-opacity:1;"/>
<path d="M116.516 64.205C116.444 63.9797 116.234 63.908 116.004 64.0514L51.6454 101.197C51.4824 101.3 51.3484 101.442 51.2563 101.612L49.536 100.618C49.6247 100.448 49.7596 100.306 49.9251 100.209L114.263 63.0632C114.432 62.9749 114.62 62.9287 114.811 62.9287C115.002 62.9287 115.19 62.9749 115.359 63.0632L115.983 63.4165C116.12 63.506 116.238 63.6218 116.329 63.7571C116.42 63.8925 116.484 64.0448 116.516 64.205Z" fill="#FAFAFA" style="fill:#FAFAFA;fill:color(display-p3 0.9804 0.9804 0.9804);fill-opacity:1;"/>
<path d="M51.5174 200.704C51.4514 200.729 51.3826 200.746 51.3126 200.756H51.2051C51.0946 200.768 50.9829 200.768 50.8723 200.756C50.8022 200.747 50.7334 200.73 50.6675 200.704L50.5446 200.643L49.9251 200.285C49.7638 200.181 49.6295 200.041 49.5333 199.875C49.4371 199.71 49.3819 199.524 49.3722 199.332V101.161C49.3775 100.969 49.434 100.782 49.536 100.619L51.2563 101.612C51.1593 101.777 51.1048 101.963 51.0976 102.155V200.305C51.0976 200.607 51.2717 200.756 51.5174 200.704Z" fill="#E0E0E0" style="fill:#E0E0E0;fill:color(display-p3 0.8784 0.8784 0.8784);fill-opacity:1;"/>
<path d="M76.9331 77.6602L76.8461 77.8035C76.6408 78.1387 76.492 78.5054 76.4057 78.889C76.4057 78.9197 76.4057 78.935 76.4057 78.9504C76.4046 78.9589 76.4046 78.9675 76.4057 78.976L75.3561 84.8845L75.0285 86.7738C75.0285 86.8506 74.9926 86.9274 74.9721 87.0093C74.9522 87.0856 74.9283 87.1608 74.9005 87.2346C74.9005 87.2858 74.8646 87.337 74.8441 87.3882L76.5645 88.3814C76.6466 88.1839 76.7067 87.9778 76.7437 87.767L77.0816 85.8778L78.1056 79.9693C78.1834 79.4958 78.3671 79.0459 78.6432 78.6534L76.9331 77.6602Z" fill="#F7921E" style="fill:#F7921E;fill:color(display-p3 0.9686 0.5725 0.1176);fill-opacity:1;"/>
<path d="M65.0854 96.7224C64.9114 96.9989 64.7475 97.2753 64.5734 97.5518C64.5018 97.6849 64.4301 97.8181 64.3635 97.9512C64.297 98.0843 64.1997 98.2942 64.128 98.4632C64.0563 98.6321 63.9642 98.8421 63.8925 99.0366C63.8208 99.2312 63.7491 99.4257 63.6826 99.6203C63.616 99.8149 63.5341 100.076 63.4726 100.306C63.4317 100.455 63.3907 100.603 63.3498 100.762C63.2542 101.124 63.1671 101.493 63.0886 101.868C63.0886 101.996 63.0323 102.129 63.0118 102.257C62.9914 102.385 62.9453 102.575 62.9197 102.728C62.9197 102.728 62.9197 102.728 62.9197 102.754C62.9197 102.877 62.9197 102.959 62.9811 102.994C62.9892 102.998 62.9979 103 63.0067 103C63.0156 103 63.0243 102.998 63.0323 102.994L64.512 101.837L64.7526 101.648L64.8704 101.561L64.9984 101.458L65.1008 101.382L65.1878 101.31C65.6199 99.7447 66.3406 98.2739 67.3126 96.9733L65.5923 95.98C65.4234 96.2257 65.2493 96.4766 65.0854 96.7224Z" fill="#F7921E" style="fill:#F7921E;fill:color(display-p3 0.9686 0.5725 0.1176);fill-opacity:1;"/>
<path d="M83.7018 64.6606C83.6198 64.7938 83.5482 64.9269 83.4765 65.06C83.4295 65.1334 83.3884 65.2105 83.3536 65.2904C83.2922 65.3979 83.241 65.5106 83.1846 65.6232C83.1283 65.7358 83.0925 65.8024 83.0515 65.8946C82.9645 66.0686 82.8877 66.2427 82.816 66.4066C82.7443 66.5704 82.6522 66.7854 82.5805 66.9749C82.5088 67.1438 82.4525 67.3128 82.3962 67.4869C82.304 67.7429 82.2272 67.9989 82.1555 68.26C82.1146 68.3982 82.0838 68.5314 82.048 68.6645C82.0489 68.6747 82.0489 68.685 82.048 68.6952C82.048 68.7669 82.0122 68.8334 82.0019 68.9051C81.961 69.0638 81.9302 69.2277 81.9046 69.3864C81.879 69.5451 81.8535 69.6373 81.8176 69.7653C81.7818 69.8933 81.751 70.0315 81.7101 70.1646C81.6691 70.2978 81.6282 70.4155 81.5872 70.5435C81.5872 70.5435 81.5872 70.5435 81.5872 70.5794C81.536 70.7176 81.4797 70.861 81.4183 71.0043C81.3568 71.1477 81.3056 71.2859 81.2339 71.4344C81.2164 71.4728 81.201 71.5121 81.1879 71.5522C81.1367 71.6597 81.0803 71.7672 81.0291 71.8798L80.7578 72.3918C80.6963 72.5147 80.6349 72.6274 80.5683 72.7451L82.2938 73.7384C82.9137 72.6922 83.3664 71.5555 83.6352 70.3694C83.9607 68.693 84.574 67.0855 85.4477 65.6181L83.7018 64.6606Z" fill="#F7921E" style="fill:#F7921E;fill:color(display-p3 0.9686 0.5725 0.1176);fill-opacity:1;"/>
<path d="M93.9366 68.4906C93.851 68.4388 93.7547 68.4073 93.655 68.3984C93.822 68.6651 94.0467 68.8909 94.3125 69.0593C94.5784 69.2276 94.8786 69.3342 95.191 69.3712C95.3391 69.3731 95.4853 69.4045 95.6211 69.4634L93.9366 68.4906Z" fill="#F7921E" style="fill:#F7921E;fill:color(display-p3 0.9686 0.5725 0.1176);fill-opacity:1;"/>
<path opacity="0.4" d="M93.9366 68.4906C93.851 68.4388 93.7547 68.4073 93.655 68.3984C93.822 68.6651 94.0467 68.8909 94.3125 69.0593C94.5784 69.2276 94.8786 69.3342 95.191 69.3712C95.3391 69.3731 95.4853 69.4045 95.6211 69.4634L93.9366 68.4906Z" fill="white" style="fill:white;fill-opacity:1;"/>
<path d="M100.352 75.9706C100.082 75.8385 99.7835 75.7741 99.4829 75.783C99.1823 75.792 98.8884 75.8739 98.6265 76.0218C96.6246 76.9024 95.7593 77.3018 94.7251 77.7319C94.5254 79.0631 95.3088 79.1859 95.6979 79.0272C97.152 78.4538 97.8944 78.1005 100.352 77.0202C100.612 76.8745 100.903 76.7933 101.2 76.7835C101.498 76.7737 101.793 76.8356 102.062 76.9639L100.352 75.9706Z" fill="#F7921E" style="fill:#F7921E;fill:color(display-p3 0.9686 0.5725 0.1176);fill-opacity:1;"/>
<path opacity="0.4" d="M100.352 75.9706C100.082 75.8385 99.7835 75.7741 99.4829 75.783C99.1823 75.792 98.8884 75.8739 98.6265 76.0218C96.6246 76.9024 95.7593 77.3018 94.7251 77.7319C94.5254 79.0631 95.3088 79.1859 95.6979 79.0272C97.152 78.4538 97.8944 78.1005 100.352 77.0202C100.612 76.8745 100.903 76.7933 101.2 76.7835C101.498 76.7737 101.793 76.8356 102.062 76.9639L100.352 75.9706Z" fill="white" style="fill:white;fill-opacity:1;"/>
<path d="M76.5542 88.3815C76.1837 89.1924 75.6625 89.9257 75.0182 90.5421L69.632 94.592C68.771 95.2933 67.9944 96.0923 67.3178 96.9728L65.5974 95.9796C66.2725 95.0961 67.0493 94.2953 67.9117 93.5936L73.3082 89.5488C73.9409 88.9282 74.453 88.1956 74.8186 87.3882L76.5542 88.3815Z" fill="#F7921E" style="fill:#F7921E;fill:color(display-p3 0.9686 0.5725 0.1176);fill-opacity:1;"/>
<path opacity="0.4" d="M76.5542 88.3815C76.1837 89.1924 75.6625 89.9257 75.0182 90.5421L69.632 94.592C68.771 95.2933 67.9944 96.0923 67.3178 96.9728L65.5974 95.9796C66.2725 95.0961 67.0493 94.2953 67.9117 93.5936L73.3082 89.5488C73.9409 88.9282 74.453 88.1956 74.8186 87.3882L76.5542 88.3815Z" fill="white" style="fill:white;fill-opacity:1;"/>
<path d="M82.2681 73.7794C81.5252 75.1532 80.6099 76.4264 79.5443 77.5682C79.2089 77.8966 78.9101 78.2606 78.6534 78.6536L76.9331 77.6604C77.1856 77.2642 77.4847 76.8998 77.824 76.5749C78.8877 75.4328 79.8013 74.1596 80.5427 72.7861L82.2681 73.7794Z" fill="#F7921E" style="fill:#F7921E;fill:color(display-p3 0.9686 0.5725 0.1176);fill-opacity:1;"/>
<path opacity="0.4" d="M82.2681 73.7794C81.5252 75.1532 80.6099 76.4264 79.5443 77.5682C79.2089 77.8966 78.9101 78.2606 78.6534 78.6536L76.9331 77.6604C77.1856 77.2642 77.4847 76.8998 77.824 76.5749C78.8877 75.4328 79.8013 74.1596 80.5427 72.7861L82.2681 73.7794Z" fill="white" style="fill:white;fill-opacity:1;"/>
<path d="M91.9859 61.0666C91.3511 60.7338 90.5063 60.7901 89.513 61.3124C88.0384 62.0855 86.5536 63.7239 85.417 65.6593L83.6967 64.6352C84.8231 62.6999 86.3079 61.0513 87.7927 60.2884C88.2752 60.016 88.8159 59.8632 89.3696 59.8429C89.701 59.8387 90.0276 59.9217 90.3168 60.0836L91.9859 61.0666Z" fill="#F7921E" style="fill:#F7921E;fill:color(display-p3 0.9686 0.5725 0.1176);fill-opacity:1;"/>
<path opacity="0.4" d="M91.9859 61.0666C91.3511 60.7338 90.5063 60.7901 89.513 61.3124C88.0384 62.0855 86.5536 63.7239 85.417 65.6593L83.6967 64.6352C84.8231 62.6999 86.3079 61.0513 87.7927 60.2884C88.2752 60.016 88.8159 59.8632 89.3696 59.8429C89.701 59.8387 90.0276 59.9217 90.3168 60.0836L91.9859 61.0666Z" fill="white" style="fill:white;fill-opacity:1;"/>
<path opacity="0.15" d="M67.3331 96.9728C66.361 98.2734 65.6404 99.7442 65.2083 101.309L65.1213 101.381L65.0189 101.458L64.8909 101.56L64.7731 101.647L64.5325 101.837L63.0733 103.004C63.0653 103.008 63.0565 103.01 63.0477 103.01C63.0389 103.01 63.0301 103.008 63.0221 103.004C62.9658 102.968 62.9402 102.886 62.9606 102.764C62.9606 102.764 62.9606 102.764 62.9606 102.738C62.9606 102.584 63.017 102.426 63.0528 102.267C63.0886 102.108 63.104 102.006 63.1296 101.878C63.2081 101.506 63.2952 101.137 63.3907 100.772C63.4317 100.613 63.4727 100.465 63.5136 100.316C63.5751 100.086 63.6467 99.8605 63.7235 99.6301C63.8003 99.3997 63.8567 99.2409 63.9335 99.0464C64.0103 98.8518 64.0819 98.6624 64.169 98.4729C64.256 98.2835 64.3226 98.1197 64.4045 97.9609C64.4864 97.8022 64.5427 97.6947 64.6144 97.5616C64.7629 97.2851 64.9267 97.0086 65.1264 96.7321C65.3261 96.4557 65.4643 96.2201 65.6384 95.9897L67.3331 96.9728Z" fill="black" style="fill:black;fill-opacity:1;"/>
<path opacity="0.15" d="M78.6534 78.6534C78.3774 79.0459 78.1936 79.4958 78.1158 79.9693L77.0918 85.8778L76.7539 87.767C76.717 87.9778 76.6569 88.1839 76.5747 88.3814L74.8544 87.3882C74.8544 87.337 74.8954 87.2858 74.9107 87.2346C74.9385 87.1608 74.9624 87.0856 74.9824 87.0093C74.9824 86.9274 75.0234 86.8506 75.0387 86.7738L75.3664 84.8845L76.416 78.976C76.4148 78.9675 76.4148 78.9589 76.416 78.9504C76.416 78.9504 76.416 78.9197 76.416 78.889C76.5023 78.5054 76.651 78.1387 76.8563 77.8035L76.9434 77.6602L78.6534 78.6534Z" fill="black" style="fill:black;fill-opacity:1;"/>
<path opacity="0.15" d="M85.4221 65.6591C84.5483 67.1265 83.9351 68.734 83.6096 70.4105C83.3408 71.5965 82.8881 72.7332 82.2682 73.7794L80.5427 72.7861C80.6093 72.6684 80.6707 72.5557 80.7322 72.4329L81.0035 71.9209C81.0547 71.8082 81.111 71.7007 81.1622 71.5932C81.1754 71.5531 81.1908 71.5138 81.2083 71.4754C81.2749 71.3321 81.3363 71.1836 81.3926 71.0453C81.449 70.9071 81.5104 70.7586 81.5616 70.6204C81.5616 70.6204 81.5616 70.5948 81.5616 70.5845C81.6026 70.4565 81.6486 70.3337 81.6845 70.2057C81.7203 70.0777 81.7613 69.9394 81.792 69.8063C81.8227 69.6732 81.8534 69.5503 81.879 69.4274C81.9046 69.3045 81.9354 69.1049 81.9763 68.9461C81.9763 68.8745 82.007 68.8079 82.0224 68.7362C82.0233 68.726 82.0233 68.7157 82.0224 68.7055C82.0582 68.5724 82.089 68.4393 82.1299 68.301C82.2016 68.0399 82.2784 67.789 82.3706 67.5279C82.4269 67.3538 82.4832 67.1849 82.5549 67.0159C82.6266 66.8265 82.7085 66.637 82.7904 66.4476C82.8723 66.2581 82.9389 66.0994 83.0259 65.9356C83.0669 65.8434 83.113 65.7564 83.159 65.6642C83.2051 65.5721 83.2666 65.4389 83.328 65.3314C83.3628 65.2515 83.4039 65.1744 83.4509 65.101C83.5226 64.9679 83.5942 64.8348 83.6762 64.7017L85.4221 65.6591Z" fill="black" style="fill:black;fill-opacity:1;"/>
<path d="M63.0579 103.004L64.512 101.837C63.9334 102.303 63.145 102.912 63.0579 103.004Z" fill="#F7921E" style="fill:#F7921E;fill:color(display-p3 0.9686 0.5725 0.1176);fill-opacity:1;"/>
<path d="M102.067 76.9741C101.798 76.8458 101.502 76.7836 101.203 76.7925C100.905 76.8014 100.613 76.8812 100.352 77.0253C97.8995 78.1107 97.1571 78.464 95.703 79.0426C95.3139 79.1962 94.5306 79.0733 94.7302 77.7421C94.7282 77.7131 94.7282 77.684 94.7302 77.6551L95.063 75.7658L95.9949 70.6151C95.9949 70.6151 96.2048 69.801 95.6672 69.4989H95.6262C95.4942 69.434 95.3483 69.4023 95.2013 69.4067C94.888 69.3682 94.5874 69.2599 94.3216 69.0898C94.0557 68.9196 93.8315 68.692 93.6653 68.4237C93.3778 67.9962 93.1785 67.5156 93.0791 67.01C92.9798 66.5045 92.9824 65.9842 93.0867 65.4797C93.481 63.2679 93.0509 61.7216 92.0627 61.1482L91.9859 61.097C91.351 60.7642 90.5062 60.8205 89.513 61.3427C86.8966 62.7149 84.2547 66.7853 83.6096 70.441C83.2051 72.745 80.8858 76.2931 79.5443 77.609C78.2029 78.9248 78.1158 80.0103 78.1158 80.0103L77.0918 85.9187L76.7539 87.808C76.5082 89.2211 75.0592 90.5882 75.0592 90.5882L69.632 94.592C67.4787 96.305 65.9244 98.657 65.193 101.309C65.193 101.309 63.145 102.876 63.0426 103.004L63.7338 102.61L100.966 81.2032C100.966 81.2032 101.396 80.9728 101.478 80.9114C101.56 80.8499 103.071 79.4368 103.071 79.4368C103.045 78.2183 102.692 77.3479 102.067 76.9741ZM91.3152 66.1146C90.9158 68.3623 89.2979 70.8659 87.6902 71.7107C86.5792 72.2893 85.7651 71.9309 85.4938 70.9069C85.3747 70.3327 85.3747 69.7403 85.4938 69.1661C85.888 66.9184 87.5162 64.4147 89.1238 63.5751C89.2726 63.4941 89.4286 63.4273 89.5898 63.3754C90.9056 62.976 91.648 64.0973 91.305 66.1146H91.3152Z" fill="#F7921E" style="fill:#F7921E;fill:color(display-p3 0.9686 0.5725 0.1176);fill-opacity:1;"/>
<path d="M63.063 103.009L100.992 81.2085L101.504 80.9167C101.596 80.8604 103.096 79.437 103.096 79.437L65.2083 101.31C65.2083 101.31 62.9146 103.091 63.063 103.009Z" fill="#F7921E" style="fill:#F7921E;fill:color(display-p3 0.9686 0.5725 0.1176);fill-opacity:1;"/>
<path opacity="0.3" d="M63.063 103.009L100.992 81.2085L101.504 80.9167C101.596 80.8604 103.096 79.437 103.096 79.437L65.2083 101.31C65.2083 101.31 62.9146 103.091 63.063 103.009Z" fill="black" style="fill:black;fill-opacity:1;"/>
<path d="M89.6 63.3755C89.4388 63.4274 89.2828 63.4943 89.1341 63.5752C87.5264 64.4149 85.8982 66.9186 85.504 69.1663C85.3849 69.7404 85.3849 70.3329 85.504 70.9071C85.7754 71.9311 86.5894 72.2895 87.7005 71.7109C89.3082 70.8661 90.9261 68.3624 91.3254 66.1147C91.648 64.0975 90.9056 62.9762 89.6 63.3755ZM85.6064 70.8661C85.4932 70.3121 85.4932 69.7408 85.6064 69.1868C86.0006 66.9647 87.6032 64.4917 89.1904 63.6674C89.3223 63.5977 89.4592 63.5378 89.6 63.4882C89.7049 64.0293 89.7049 64.5855 89.6 65.1266C89.2058 67.3743 87.5827 69.878 85.9699 70.7228C85.8528 70.7845 85.7313 70.8375 85.6064 70.8815V70.8661Z" fill="#F7921E" style="fill:#F7921E;fill:color(display-p3 0.9686 0.5725 0.1176);fill-opacity:1;"/>
<path opacity="0.4" d="M89.6 63.3755C89.4388 63.4274 89.2828 63.4943 89.1341 63.5752C87.5264 64.4149 85.8982 66.9186 85.504 69.1663C85.3849 69.7404 85.3849 70.3329 85.504 70.9071C85.7754 71.9311 86.5894 72.2895 87.7005 71.7109C89.3082 70.8661 90.9261 68.3624 91.3254 66.1147C91.648 64.0975 90.9056 62.9762 89.6 63.3755ZM85.6064 70.8661C85.4932 70.3121 85.4932 69.7408 85.6064 69.1868C86.0006 66.9647 87.6032 64.4917 89.1904 63.6674C89.3223 63.5977 89.4592 63.5378 89.6 63.4882C89.7049 64.0293 89.7049 64.5855 89.6 65.1266C89.2058 67.3743 87.5827 69.878 85.9699 70.7228C85.8528 70.7845 85.7313 70.8375 85.6064 70.8815V70.8661Z" fill="black" style="fill:black;fill-opacity:1;"/>
<path d="M59.735 131.937C59.6541 131.938 59.5746 131.917 59.5046 131.876C59.4204 131.822 59.3528 131.745 59.3094 131.655C59.2661 131.564 59.2486 131.464 59.2589 131.364V129.178C59.2665 128.981 59.3218 128.79 59.4199 128.619C59.518 128.449 59.656 128.305 59.8221 128.2L61.7318 127.099C61.811 127.047 61.9032 127.017 61.9981 127.014C62.093 127.011 62.1869 127.035 62.2692 127.082C62.3515 127.129 62.4191 127.199 62.4643 127.282C62.5096 127.366 62.5307 127.46 62.5254 127.555V129.761C62.5187 129.958 62.4638 130.15 62.3656 130.321C62.2674 130.491 62.1289 130.635 61.9622 130.739L60.0525 131.845C59.9566 131.903 59.8471 131.935 59.735 131.937ZM62.0493 127.463C62.019 127.471 61.9897 127.483 61.9622 127.498L60.0525 128.599C59.9565 128.664 59.8766 128.75 59.8189 128.85C59.7613 128.95 59.7273 129.062 59.7197 129.178V131.385C59.7111 131.415 59.7111 131.447 59.7197 131.477C59.7503 131.472 59.7797 131.461 59.8067 131.446L61.7165 130.34C61.8124 130.275 61.8923 130.19 61.95 130.089C62.0077 129.989 62.0417 129.877 62.0493 129.761V127.555C62.0518 127.533 62.0518 127.51 62.0493 127.488V127.463Z" fill="#455A64" style="fill:#455A64;fill:color(display-p3 0.2706 0.3529 0.3922);fill-opacity:1;"/>
<path d="M64.1485 126.782L71.6749 122.435C71.9258 122.291 72.1254 122.404 72.1254 122.691V123.279C72.1165 123.435 72.071 123.586 71.9927 123.72C71.9144 123.854 71.8055 123.968 71.6749 124.053L64.1485 128.399C63.9027 128.543 63.6979 128.43 63.6979 128.143V127.555C63.7069 127.399 63.7524 127.249 63.8307 127.114C63.909 126.98 64.0179 126.866 64.1485 126.782Z" fill="#E0E0E0" style="fill:#E0E0E0;fill:color(display-p3 0.8784 0.8784 0.8784);fill-opacity:1;"/>
<path d="M78.3872 121.17C78.3062 121.171 78.2266 121.15 78.1568 121.109C78.0716 121.055 78.003 120.979 77.9587 120.888C77.9144 120.798 77.8961 120.697 77.9059 120.597V118.39C77.9146 118.193 77.9708 118.001 78.0697 117.831C78.1687 117.661 78.3075 117.517 78.4742 117.412L80.384 116.311C80.463 116.255 80.5565 116.222 80.6535 116.216C80.7505 116.211 80.847 116.233 80.9318 116.28C81.0144 116.33 81.0813 116.402 81.1248 116.488C81.1683 116.574 81.1866 116.671 81.1776 116.767V118.973C81.1708 119.17 81.1159 119.362 81.0178 119.533C80.9196 119.703 80.7811 119.847 80.6144 119.951L78.7046 121.057C78.6108 121.123 78.5012 121.161 78.3872 121.17ZM80.6963 116.695C80.6683 116.705 80.6409 116.717 80.6144 116.731L78.7046 117.832C78.608 117.896 78.5273 117.982 78.4688 118.082C78.4102 118.182 78.3753 118.294 78.3667 118.41V120.617C78.3566 120.647 78.3566 120.679 78.3667 120.709C78.3971 120.703 78.4264 120.693 78.4538 120.678L80.3635 119.573C80.46 119.508 80.5403 119.423 80.5981 119.322C80.6558 119.222 80.6895 119.11 80.6963 118.994V116.787C80.7054 116.757 80.7054 116.725 80.6963 116.695Z" fill="#455A64" style="fill:#455A64;fill:color(display-p3 0.2706 0.3529 0.3922);fill-opacity:1;"/>
<path d="M82.8006 116.014L90.327 111.668C90.5779 111.524 90.7776 111.637 90.7776 111.924V112.512C90.7686 112.668 90.7231 112.819 90.6448 112.953C90.5665 113.087 90.4577 113.201 90.327 113.286L82.8006 117.632C82.5497 117.776 82.3501 117.663 82.3501 117.376V116.788C82.3618 116.633 82.4084 116.483 82.4864 116.349C82.5645 116.215 82.6719 116.101 82.8006 116.014Z" fill="#E0E0E0" style="fill:#E0E0E0;fill:color(display-p3 0.8784 0.8784 0.8784);fill-opacity:1;"/>
<path d="M97.0342 110.403C96.9534 110.403 96.8738 110.382 96.8038 110.341C96.7204 110.286 96.6535 110.209 96.6102 110.119C96.5669 110.029 96.5489 109.929 96.5581 109.829V107.623C96.5662 107.426 96.6216 107.235 96.7197 107.064C96.8177 106.894 96.9555 106.75 97.1213 106.645L99.031 105.544C99.1106 105.49 99.2039 105.459 99.3001 105.455C99.3963 105.452 99.4916 105.475 99.575 105.524C99.6584 105.572 99.7265 105.642 99.7716 105.727C99.8167 105.813 99.8368 105.909 99.8298 106.005V108.206C99.822 108.403 99.7662 108.595 99.6671 108.766C99.568 108.936 99.4288 109.08 99.2614 109.184L97.3517 110.29C97.2581 110.356 97.1483 110.395 97.0342 110.403ZM97.3517 107.064C97.2565 107.13 97.1772 107.216 97.1196 107.316C97.062 107.416 97.0276 107.528 97.0189 107.643V109.85C97.0087 109.88 97.0087 109.912 97.0189 109.942C97.0483 109.939 97.0765 109.928 97.1008 109.911L99.0106 108.805C99.1072 108.741 99.1879 108.655 99.2464 108.555C99.305 108.455 99.3399 108.342 99.3485 108.227V106.025C99.358 105.993 99.358 105.96 99.3485 105.928C99.3485 105.928 99.3178 105.928 99.2614 105.964L97.3517 107.064Z" fill="#455A64" style="fill:#455A64;fill:color(display-p3 0.2706 0.3529 0.3922);fill-opacity:1;"/>
<path d="M101.453 105.247L108.979 100.9C109.225 100.757 109.43 100.869 109.43 101.156V101.745C109.418 101.899 109.371 102.049 109.293 102.183C109.215 102.317 109.108 102.432 108.979 102.518L101.453 106.865C101.202 107.008 101.002 106.896 101.002 106.609V106.02C101.011 105.865 101.057 105.714 101.135 105.58C101.213 105.445 101.322 105.331 101.453 105.247Z" fill="#E0E0E0" style="fill:#E0E0E0;fill:color(display-p3 0.8784 0.8784 0.8784);fill-opacity:1;"/>
<path d="M64.1689 116.009V116.869C64.1689 117.34 64.4966 117.53 64.9011 117.294L108.933 91.8941C109.147 91.7539 109.324 91.5655 109.451 91.344C109.578 91.1225 109.652 90.8743 109.665 90.6192V89.7539C109.665 89.288 109.338 89.0986 108.933 89.329L64.9011 114.734C64.6876 114.875 64.5101 115.063 64.3829 115.285C64.2557 115.506 64.1824 115.754 64.1689 116.009Z" fill="#E0E0E0" style="fill:#E0E0E0;fill:color(display-p3 0.8784 0.8784 0.8784);fill-opacity:1;"/>
<path d="M60.8154 109.292V110.152C60.8154 110.623 61.143 110.812 61.5526 110.577L105.559 85.1763C105.774 85.0373 105.953 84.8493 106.081 84.6276C106.209 84.406 106.283 84.1571 106.296 83.9014V83.0362C106.296 82.5702 105.969 82.3808 105.559 82.6112L61.5526 108.032C61.3397 108.17 61.162 108.355 61.0339 108.574C60.9058 108.793 60.831 109.039 60.8154 109.292Z" fill="#455A64" style="fill:#455A64;fill:color(display-p3 0.2706 0.3529 0.3922);fill-opacity:1;"/>
<path d="M64.1689 121.216V122.081C64.1689 122.547 64.4966 122.737 64.9011 122.506L108.933 97.106C109.147 96.9658 109.324 96.7774 109.451 96.5559C109.578 96.3344 109.652 96.0862 109.665 95.8311V94.9659C109.665 94.4999 109.338 94.3105 108.933 94.5409L64.9011 119.946C64.6883 120.086 64.5112 120.274 64.3841 120.494C64.2569 120.715 64.1832 120.962 64.1689 121.216Z" fill="#E0E0E0" style="fill:#E0E0E0;fill:color(display-p3 0.8784 0.8784 0.8784);fill-opacity:1;"/>
<path d="M59.3459 121.662C60.4979 120.52 60.7846 120.033 60.7846 119.614C60.7846 119.194 60.6157 118.968 60.0986 119.265C59.875 119.395 59.6826 119.573 59.5349 119.785C59.3871 119.997 59.2877 120.239 59.2435 120.494L57.984 120.776C58.0936 120.116 58.3426 119.487 58.7143 118.931C59.0859 118.375 59.5718 117.904 60.1395 117.55C61.399 116.823 62.1312 117.366 62.1312 118.574C62.0609 119.751 61.5488 120.857 60.6976 121.672V122.67L59.3459 123.448V121.662Z" fill="#455A64" style="fill:#455A64;fill:color(display-p3 0.2706 0.3529 0.3922);fill-opacity:1;"/>
<path d="M59.3306 124.98C59.3285 124.734 59.3907 124.491 59.511 124.277C59.6314 124.062 59.8056 123.882 60.0166 123.756C60.4672 123.495 60.6976 123.725 60.6976 124.191C60.7015 124.438 60.6407 124.682 60.5212 124.899C60.4018 125.115 60.2278 125.297 60.0166 125.425C59.561 125.686 59.3306 125.44 59.3306 124.98Z" fill="#455A64" style="fill:#455A64;fill:color(display-p3 0.2706 0.3529 0.3922);fill-opacity:1;"/>
<path d="M60.032 129.178L60.5952 129.603L60.0832 130.576C60.0391 130.635 60.0154 130.707 60.0154 130.78C60.0154 130.854 60.0391 130.926 60.0832 130.985C60.1805 131.057 60.3187 130.985 60.4006 130.832L60.9126 129.864L61.4758 130.289C61.5578 130.35 61.6806 130.289 61.7523 130.156C61.7902 130.105 61.8106 130.043 61.8106 129.979C61.8106 129.916 61.7902 129.854 61.7523 129.803L61.1891 129.378L61.7011 128.405C61.7452 128.346 61.769 128.274 61.769 128.2C61.769 128.126 61.7452 128.054 61.7011 127.995C61.6038 127.924 61.4656 127.995 61.3837 128.149L60.8717 129.122L60.3085 128.697C60.2266 128.635 60.1037 128.697 60.032 128.825C59.9942 128.876 59.9738 128.938 59.9738 129.001C59.9738 129.065 59.9942 129.127 60.032 129.178Z" fill="#F7921E" style="fill:#F7921E;fill:color(display-p3 0.9686 0.5725 0.1176);fill-opacity:1;"/>
<path d="M59.735 151.378C59.6546 151.38 59.575 151.361 59.5046 151.322C59.4204 151.267 59.3528 151.191 59.3094 151.101C59.2661 151.01 59.2486 150.91 59.2589 150.81V148.603C59.2656 148.406 59.3205 148.215 59.4187 148.044C59.5169 147.874 59.6554 147.73 59.8221 147.625L61.7318 146.524C61.811 146.472 61.9032 146.443 61.9981 146.44C62.093 146.437 62.1869 146.46 62.2692 146.507C62.3515 146.555 62.4191 146.624 62.4643 146.707C62.5096 146.791 62.5307 146.885 62.5254 146.98V149.187C62.5187 149.383 62.4638 149.575 62.3656 149.746C62.2674 149.916 62.1289 150.06 61.9622 150.165L60.0525 151.266C59.9586 151.331 59.849 151.37 59.735 151.378ZM62.0493 146.908C62.0181 146.914 61.9884 146.926 61.9622 146.944L60.0525 148.045C59.9565 148.11 59.8766 148.195 59.8189 148.296C59.7613 148.396 59.7273 148.508 59.7197 148.624V150.83C59.7111 150.86 59.7111 150.892 59.7197 150.922C59.7503 150.917 59.7797 150.907 59.8067 150.892L61.7165 149.786C61.8124 149.721 61.8923 149.635 61.95 149.535C62.0077 149.435 62.0417 149.323 62.0493 149.207V147.001C62.0542 146.97 62.0542 146.939 62.0493 146.908Z" fill="#455A64" style="fill:#455A64;fill:color(display-p3 0.2706 0.3529 0.3922);fill-opacity:1;"/>
<path d="M64.1485 146.222L71.6749 141.881C71.9258 141.737 72.1254 141.85 72.1254 142.137V142.72C72.1172 142.876 72.0721 143.028 71.9938 143.164C71.9155 143.299 71.8062 143.414 71.6749 143.498L64.1485 147.845C63.9027 147.989 63.6979 147.871 63.6979 147.584V147.001C63.7065 146.844 63.7518 146.693 63.8301 146.557C63.9084 146.422 64.0175 146.307 64.1485 146.222Z" fill="#E0E0E0" style="fill:#E0E0E0;fill:color(display-p3 0.8784 0.8784 0.8784);fill-opacity:1;"/>
<path d="M78.3872 140.611C78.3067 140.613 78.227 140.594 78.1568 140.554C78.0716 140.501 78.003 140.424 77.9587 140.334C77.9144 140.243 77.8961 140.143 77.9059 140.042V137.836C77.9137 137.639 77.9695 137.446 78.0686 137.276C78.1677 137.106 78.3069 136.962 78.4742 136.858L80.384 135.757C80.463 135.7 80.5565 135.667 80.6535 135.662C80.7505 135.656 80.847 135.679 80.9318 135.726C81.0144 135.776 81.0813 135.848 81.1248 135.934C81.1683 136.02 81.1866 136.117 81.1776 136.213V138.419C81.1708 138.616 81.1159 138.808 81.0178 138.978C80.9196 139.149 80.7811 139.293 80.6144 139.397L78.7046 140.498C78.6108 140.563 78.5012 140.602 78.3872 140.611ZM80.6963 136.141C80.6672 136.148 80.6395 136.16 80.6144 136.177L78.7046 137.278C78.608 137.342 78.5273 137.427 78.4688 137.528C78.4102 137.628 78.3753 137.74 78.3667 137.856V140.063C78.3566 140.093 78.3566 140.125 78.3667 140.155C78.3971 140.149 78.4264 140.139 78.4538 140.124L80.3635 139.018C80.4595 138.954 80.5394 138.868 80.5971 138.768C80.6547 138.667 80.6887 138.555 80.6963 138.44V136.233C80.7054 136.203 80.7054 136.171 80.6963 136.141Z" fill="#455A64" style="fill:#455A64;fill:color(display-p3 0.2706 0.3529 0.3922);fill-opacity:1;"/>
<path d="M82.8006 135.455L90.327 131.113C90.5779 130.97 90.7776 131.083 90.7776 131.369V131.953C90.7694 132.109 90.7243 132.261 90.646 132.396C90.5676 132.532 90.4583 132.647 90.327 132.731L82.8006 137.078C82.5497 137.222 82.3501 137.078 82.3501 136.817V136.233C82.361 136.078 82.4073 135.927 82.4853 135.792C82.5634 135.657 82.6713 135.542 82.8006 135.455Z" fill="#E0E0E0" style="fill:#E0E0E0;fill:color(display-p3 0.8784 0.8784 0.8784);fill-opacity:1;"/>
<path d="M97.0342 129.844C96.9538 129.846 96.8742 129.826 96.8038 129.787C96.7204 129.732 96.6535 129.655 96.6102 129.565C96.5669 129.475 96.5489 129.375 96.5581 129.275V127.069C96.5662 126.872 96.6216 126.681 96.7197 126.51C96.8177 126.34 96.9555 126.196 97.1213 126.091L99.031 124.99C99.1103 124.936 99.203 124.906 99.2987 124.902C99.3944 124.898 99.4893 124.921 99.5725 124.969C99.6557 125.016 99.7239 125.086 99.7694 125.17C99.8149 125.255 99.8358 125.35 99.8298 125.446V127.652C99.822 127.849 99.7662 128.041 99.6671 128.212C99.568 128.382 99.4288 128.526 99.2614 128.63L97.3517 129.731C97.2581 129.797 97.1483 129.836 97.0342 129.844ZM97.3517 126.511C97.2565 126.576 97.1772 126.662 97.1196 126.762C97.062 126.862 97.0276 126.974 97.0189 127.089V129.296C97.0087 129.326 97.0087 129.358 97.0189 129.388C97.0474 129.381 97.075 129.371 97.1008 129.357L99.0106 128.251C99.1072 128.187 99.1879 128.101 99.2464 128.001C99.305 127.901 99.3399 127.789 99.3485 127.673V125.466C99.3576 125.436 99.3576 125.404 99.3485 125.374C99.3178 125.381 99.2885 125.393 99.2614 125.41L97.3517 126.511Z" fill="#455A64" style="fill:#455A64;fill:color(display-p3 0.2706 0.3529 0.3922);fill-opacity:1;"/>
<path d="M101.453 124.688L108.979 120.346C109.225 120.202 109.43 120.315 109.43 120.602V121.186C109.419 121.341 109.373 121.492 109.294 121.627C109.216 121.762 109.109 121.877 108.979 121.964L101.453 126.311C101.202 126.454 101.002 126.336 101.002 126.05V125.466C101.01 125.31 101.056 125.158 101.134 125.022C101.212 124.887 101.322 124.772 101.453 124.688Z" fill="#E0E0E0" style="fill:#E0E0E0;fill:color(display-p3 0.8784 0.8784 0.8784);fill-opacity:1;"/>
<path d="M64.1689 135.45V136.315C64.1689 136.781 64.4966 136.971 64.9011 136.74L108.933 111.34C109.147 111.2 109.324 111.011 109.451 110.79C109.578 110.568 109.652 110.32 109.665 110.065V109.2C109.665 108.734 109.338 108.544 108.933 108.775L64.9011 134.18C64.6883 134.32 64.5112 134.508 64.3841 134.728C64.2569 134.949 64.1832 135.196 64.1689 135.45Z" fill="#E0E0E0" style="fill:#E0E0E0;fill:color(display-p3 0.8784 0.8784 0.8784);fill-opacity:1;"/>
<path d="M64.1689 140.662V141.527C64.1689 141.993 64.4966 142.183 64.9011 141.952L108.933 116.547C109.147 116.408 109.325 116.221 109.452 116C109.58 115.78 109.653 115.532 109.665 115.277V114.412C109.665 113.941 109.338 113.751 108.933 113.987L64.9011 139.392C64.6883 139.532 64.5112 139.72 64.3841 139.94C64.2569 140.161 64.1832 140.408 64.1689 140.662Z" fill="#E0E0E0" style="fill:#E0E0E0;fill:color(display-p3 0.8784 0.8784 0.8784);fill-opacity:1;"/>
<path d="M59.3459 141.108C60.4979 139.966 60.7846 139.479 60.7846 139.06C60.7846 138.64 60.6157 138.415 60.0986 138.711C59.875 138.841 59.6826 139.019 59.5349 139.231C59.3871 139.443 59.2877 139.685 59.2435 139.94L57.984 140.222C58.0936 139.562 58.3426 138.933 58.7143 138.377C59.0859 137.821 59.5718 137.35 60.1395 136.996C61.399 136.269 62.1312 136.812 62.1312 138.046C62.0609 139.222 61.5488 140.329 60.6976 141.143V142.142L59.3459 142.92V141.108Z" fill="#455A64" style="fill:#455A64;fill:color(display-p3 0.2706 0.3529 0.3922);fill-opacity:1;"/>
<path d="M59.3306 144.425C59.3285 144.179 59.3907 143.937 59.511 143.722C59.6314 143.508 59.8056 143.328 60.0166 143.202C60.4672 142.941 60.6976 143.171 60.6976 143.637C60.701 143.884 60.64 144.128 60.5206 144.344C60.4012 144.56 60.2275 144.742 60.0166 144.871C59.561 145.132 59.3306 144.896 59.3306 144.425Z" fill="#455A64" style="fill:#455A64;fill:color(display-p3 0.2706 0.3529 0.3922);fill-opacity:1;"/>
<path d="M78.6842 137.836L79.2474 138.261L78.7354 139.234C78.6913 139.293 78.6675 139.365 78.6675 139.438C78.6675 139.512 78.6913 139.584 78.7354 139.643C78.8275 139.715 78.9709 139.643 79.0528 139.49L79.5648 138.522L80.128 138.947C80.2099 139.008 80.3328 138.947 80.3994 138.814C80.4372 138.763 80.4576 138.701 80.4576 138.637C80.4576 138.574 80.4372 138.512 80.3994 138.461L79.8362 138.036L80.3482 137.063C80.3894 137.001 80.4093 136.928 80.4047 136.854C80.4 136.78 80.3712 136.709 80.3226 136.653C80.2304 136.587 80.087 136.653 80.0051 136.807L79.4931 137.78L78.9299 137.355C78.8531 137.293 78.7302 137.355 78.6586 137.483C78.6235 137.536 78.607 137.6 78.6116 137.664C78.6163 137.727 78.6417 137.788 78.6842 137.836Z" fill="#F7921E" style="fill:#F7921E;fill:color(display-p3 0.9686 0.5725 0.1176);fill-opacity:1;"/>
<path d="M59.735 170.824C59.6541 170.824 59.5746 170.803 59.5046 170.763C59.422 170.713 59.3552 170.641 59.3117 170.555C59.2682 170.469 59.2499 170.372 59.2589 170.276V168.069C59.2657 167.873 59.3205 167.681 59.4187 167.51C59.5169 167.34 59.6554 167.196 59.8221 167.091L61.7318 165.991C61.811 165.938 61.9032 165.909 61.9981 165.906C62.093 165.903 62.1869 165.926 62.2692 165.974C62.3515 166.021 62.4191 166.09 62.4643 166.174C62.5096 166.257 62.5307 166.352 62.5254 166.446V168.653C62.5187 168.85 62.4638 169.042 62.3656 169.212C62.2674 169.383 62.1289 169.526 61.9622 169.631L60.0525 170.732C59.9566 170.79 59.8471 170.822 59.735 170.824ZM62.0493 166.354C62.0181 166.36 61.9884 166.372 61.9622 166.39L60.0525 167.491C59.9565 167.555 59.8766 167.641 59.819 167.742C59.7613 167.842 59.7273 167.954 59.7197 168.069V170.276C59.7119 170.306 59.7119 170.338 59.7197 170.368C59.7509 170.363 59.7806 170.35 59.8067 170.332L61.7165 169.232C61.8124 169.167 61.8923 169.081 61.95 168.981C62.0077 168.881 62.0417 168.769 62.0493 168.653V166.446C62.0542 166.416 62.0542 166.385 62.0493 166.354Z" fill="#455A64" style="fill:#455A64;fill:color(display-p3 0.2706 0.3529 0.3922);fill-opacity:1;"/>
<path d="M64.1485 165.668L71.6749 161.321C71.9258 161.178 72.1254 161.296 72.1254 161.582V162.166C72.1172 162.322 72.0721 162.474 71.9938 162.609C71.9155 162.745 71.8062 162.86 71.6749 162.944L64.1485 167.291C63.9027 167.435 63.6979 167.317 63.6979 167.03V166.446C63.7065 166.29 63.7518 166.139 63.8301 166.003C63.9084 165.868 64.0175 165.753 64.1485 165.668Z" fill="#E0E0E0" style="fill:#E0E0E0;fill:color(display-p3 0.8784 0.8784 0.8784);fill-opacity:1;"/>
<path d="M78.3872 160.057C78.3063 160.057 78.2266 160.036 78.1568 159.995C78.0733 159.946 78.0053 159.874 77.9609 159.788C77.9165 159.702 77.8974 159.605 77.9059 159.509V157.302C77.9137 157.105 77.9695 156.913 78.0686 156.743C78.1677 156.572 78.3069 156.428 78.4742 156.324L80.384 155.223C80.4639 155.169 80.5568 155.137 80.6531 155.131C80.7494 155.125 80.8456 155.144 80.9318 155.188C81.0153 155.243 81.0822 155.319 81.1255 155.41C81.1688 155.5 81.1868 155.6 81.1776 155.7V157.906C81.1708 158.103 81.116 158.295 81.0178 158.465C80.9196 158.636 80.7811 158.78 80.6144 158.884L78.7046 159.985C78.6068 160.036 78.4974 160.06 78.3872 160.057ZM80.6963 155.587C80.6672 155.594 80.6395 155.606 80.6144 155.623L78.7046 156.724C78.608 156.788 78.5273 156.873 78.4688 156.974C78.4102 157.074 78.3753 157.186 78.3667 157.302V159.509C78.3576 159.539 78.3576 159.571 78.3667 159.601C78.3977 159.594 78.4272 159.582 78.4538 159.565L80.384 158.464C80.48 158.4 80.5599 158.314 80.6175 158.214C80.6752 158.113 80.7092 158.001 80.7168 157.886V155.679C80.7206 155.647 80.7134 155.614 80.6963 155.587Z" fill="#455A64" style="fill:#455A64;fill:color(display-p3 0.2706 0.3529 0.3922);fill-opacity:1;"/>
<path d="M82.8006 154.901L90.327 150.554C90.5779 150.416 90.7776 150.528 90.7776 150.815V151.399C90.7694 151.555 90.7243 151.707 90.646 151.842C90.5676 151.977 90.4583 152.092 90.327 152.177L82.8006 156.524C82.5497 156.667 82.3501 156.549 82.3501 156.263V155.679C82.361 155.524 82.4073 155.373 82.4853 155.238C82.5634 155.103 82.6713 154.988 82.8006 154.901Z" fill="#E0E0E0" style="fill:#E0E0E0;fill:color(display-p3 0.8784 0.8784 0.8784);fill-opacity:1;"/>
<path d="M97.0342 149.289C96.9533 149.289 96.8738 149.268 96.8038 149.227C96.7212 149.178 96.6543 149.106 96.6109 149.02C96.5674 148.934 96.5491 148.837 96.5581 148.741V146.534C96.5648 146.338 96.6197 146.146 96.7179 145.975C96.8161 145.805 96.9546 145.661 97.1213 145.556L99.031 144.456C99.1092 144.4 99.2015 144.367 99.2974 144.361C99.3933 144.355 99.4889 144.377 99.5733 144.423C99.6577 144.469 99.7275 144.537 99.7746 144.621C99.8218 144.705 99.8444 144.8 99.84 144.896V147.103C99.8322 147.3 99.7764 147.492 99.6773 147.662C99.5783 147.833 99.439 147.976 99.2717 148.081L97.3619 149.181C97.2648 149.247 97.1513 149.284 97.0342 149.289ZM97.3517 145.956C97.2565 146.021 97.1772 146.107 97.1196 146.207C97.062 146.307 97.0276 146.419 97.0189 146.534V148.741C97.0098 148.771 97.0098 148.803 97.0189 148.833C97.048 148.826 97.0757 148.814 97.1008 148.797L99.0106 147.697C99.1072 147.632 99.1879 147.547 99.2464 147.446C99.305 147.346 99.3399 147.234 99.3485 147.118V144.896C99.3576 144.866 99.3576 144.834 99.3485 144.804C99.3184 144.811 99.2891 144.821 99.2614 144.835L97.3517 145.956Z" fill="#455A64" style="fill:#455A64;fill:color(display-p3 0.2706 0.3529 0.3922);fill-opacity:1;"/>
<path d="M101.453 144.133L108.979 139.786C109.225 139.648 109.43 139.786 109.43 140.048V140.631C109.419 140.787 109.373 140.938 109.294 141.072C109.216 141.207 109.109 141.323 108.979 141.41L101.453 145.756C101.202 145.9 101.002 145.782 101.002 145.495V144.896C101.013 144.743 101.059 144.594 101.137 144.461C101.215 144.329 101.324 144.217 101.453 144.133Z" fill="#E0E0E0" style="fill:#E0E0E0;fill:color(display-p3 0.8784 0.8784 0.8784);fill-opacity:1;"/>
<path d="M64.1689 154.896V155.761C64.1689 156.227 64.4966 156.416 64.9011 156.186L108.933 130.78C109.147 130.642 109.325 130.455 109.452 130.234C109.58 130.013 109.653 129.765 109.665 129.511V128.645C109.665 128.179 109.338 127.985 108.933 128.22L64.9011 153.626C64.6883 153.766 64.5112 153.953 64.3841 154.174C64.2569 154.394 64.1832 154.641 64.1689 154.896Z" fill="#E0E0E0" style="fill:#E0E0E0;fill:color(display-p3 0.8784 0.8784 0.8784);fill-opacity:1;"/>
<path d="M64.1689 160.108V160.973C64.1689 161.439 64.4966 161.629 64.9011 161.393L108.933 135.993C109.146 135.854 109.324 135.666 109.451 135.446C109.578 135.225 109.652 134.977 109.665 134.723V133.858C109.665 133.387 109.338 133.197 108.933 133.433L64.9011 158.838C64.6877 158.977 64.5102 159.165 64.383 159.385C64.2558 159.606 64.1824 159.854 64.1689 160.108Z" fill="#E0E0E0" style="fill:#E0E0E0;fill:color(display-p3 0.8784 0.8784 0.8784);fill-opacity:1;"/>
<path d="M59.3459 160.553C60.4979 159.411 60.7846 158.925 60.7846 158.505C60.7846 158.085 60.6157 157.855 60.0986 158.157C59.875 158.287 59.6826 158.464 59.5349 158.677C59.3871 158.889 59.2877 159.131 59.2435 159.386L57.984 159.662C58.0943 159.003 58.3436 158.375 58.7152 157.82C59.0869 157.265 59.5724 156.795 60.1395 156.442C61.399 155.715 62.1312 156.258 62.1312 157.466C62.0609 158.642 61.5488 159.749 60.6976 160.563V161.562L59.3459 162.34V160.553Z" fill="#455A64" style="fill:#455A64;fill:color(display-p3 0.2706 0.3529 0.3922);fill-opacity:1;"/>
<path d="M59.3306 163.871C59.3281 163.624 59.3901 163.381 59.5104 163.166C59.6308 162.95 59.8052 162.77 60.0166 162.642C60.4672 162.386 60.6976 162.617 60.6976 163.083C60.7005 163.33 60.6392 163.573 60.5199 163.789C60.4005 164.006 60.2271 164.187 60.0166 164.317C59.561 164.578 59.3306 164.352 59.3306 163.871Z" fill="#455A64" style="fill:#455A64;fill:color(display-p3 0.2706 0.3529 0.3922);fill-opacity:1;"/>
<path d="M97.3363 146.514L97.8944 146.939L97.3824 147.912C97.3376 147.971 97.3133 148.043 97.3133 148.117C97.3133 148.191 97.3376 148.263 97.3824 148.322C97.4746 148.393 97.6179 148.322 97.6999 148.168L98.2119 147.195L98.7751 147.62C98.857 147.682 98.9747 147.62 99.0464 147.492C99.085 147.441 99.1059 147.379 99.1059 147.316C99.1059 147.252 99.085 147.19 99.0464 147.139L98.4832 146.714L98.9952 145.741C99.0341 145.679 99.0526 145.606 99.048 145.532C99.0434 145.459 99.016 145.389 98.9696 145.332C98.8775 145.26 98.7341 145.332 98.6522 145.485L98.1402 146.458L97.577 146.028C97.4951 145.967 97.3722 146.028 97.3056 146.161C97.2712 146.215 97.2556 146.279 97.2612 146.343C97.2667 146.407 97.2931 146.467 97.3363 146.514Z" fill="#F7921E" style="fill:#F7921E;fill:color(display-p3 0.9686 0.5725 0.1176);fill-opacity:1;"/>
<path d="M59.735 190.27C59.6541 190.27 59.5746 190.249 59.5046 190.208C59.422 190.159 59.3552 190.087 59.3117 190.001C59.2682 189.915 59.2499 189.818 59.2589 189.722V187.515C59.2657 187.319 59.3205 187.127 59.4187 186.956C59.5169 186.786 59.6554 186.642 59.8221 186.537L61.7318 185.431C61.8128 185.38 61.9057 185.35 62.0017 185.344C62.0977 185.339 62.1935 185.358 62.2797 185.401C62.3639 185.455 62.4315 185.532 62.4749 185.622C62.5183 185.712 62.5358 185.813 62.5254 185.913V188.119C62.5174 188.316 62.4619 188.507 62.3639 188.678C62.2658 188.848 62.128 188.992 61.9622 189.097L60.0525 190.198C59.9546 190.249 59.8453 190.274 59.735 190.27ZM62.0493 185.8C62.0187 185.805 61.9892 185.816 61.9622 185.831L60.0525 186.937C59.9565 187.001 59.8766 187.087 59.819 187.187C59.7613 187.288 59.7273 187.4 59.7197 187.515V189.722C59.7119 189.752 59.7119 189.784 59.7197 189.814C59.75 189.806 59.7792 189.794 59.8067 189.778L61.7165 188.678C61.8124 188.613 61.8923 188.527 61.95 188.427C62.0077 188.327 62.0417 188.214 62.0493 188.099V185.892C62.0549 185.862 62.0549 185.831 62.0493 185.8Z" fill="#455A64" style="fill:#455A64;fill:color(display-p3 0.2706 0.3529 0.3922);fill-opacity:1;"/>
<path d="M64.1485 185.114L71.6749 180.767C71.9258 180.624 72.1254 180.742 72.1254 181.028V181.612C72.1172 181.768 72.0721 181.92 71.9938 182.055C71.9155 182.191 71.8062 182.305 71.6749 182.39L64.1485 186.737C63.9027 186.88 63.6979 186.737 63.6979 186.476V185.892C63.7065 185.736 63.7518 185.584 63.8301 185.449C63.9084 185.314 64.0175 185.199 64.1485 185.114Z" fill="#E0E0E0" style="fill:#E0E0E0;fill:color(display-p3 0.8784 0.8784 0.8784);fill-opacity:1;"/>
<path d="M78.3872 179.502C78.3063 179.503 78.2266 179.482 78.1568 179.441C78.0689 179.39 77.9982 179.314 77.9535 179.223C77.9088 179.132 77.8923 179.03 77.9059 178.929V176.722C77.9137 176.525 77.9695 176.333 78.0686 176.163C78.1677 175.992 78.3069 175.849 78.4742 175.744L80.384 174.638C80.4636 174.586 80.5563 174.556 80.6516 174.553C80.747 174.551 80.8413 174.575 80.9238 174.622C81.0063 174.67 81.0738 174.74 81.1187 174.825C81.1635 174.909 81.1839 175.004 81.1776 175.099V177.306C81.1708 177.503 81.116 177.694 81.0178 177.865C80.9196 178.035 80.7811 178.179 80.6144 178.284L78.7046 179.385C78.6113 179.452 78.5017 179.492 78.3872 179.502ZM80.6963 175.033C80.6678 175.039 80.6402 175.049 80.6144 175.063L78.7046 176.169C78.608 176.234 78.5273 176.319 78.4688 176.419C78.4102 176.52 78.3753 176.632 78.3667 176.748V178.955C78.3576 178.985 78.3576 179.017 78.3667 179.047C78.3967 179.037 78.4258 179.025 78.4538 179.011L80.3635 177.91C80.4595 177.845 80.5394 177.76 80.5971 177.659C80.6547 177.559 80.6887 177.447 80.6963 177.331V175.104C80.7024 175.081 80.7024 175.056 80.6963 175.033Z" fill="#455A64" style="fill:#455A64;fill:color(display-p3 0.2706 0.3529 0.3922);fill-opacity:1;"/>
<path d="M82.8006 174.346L90.327 170C90.5779 169.856 90.7776 170 90.7776 170.261V170.844C90.7694 171.001 90.7243 171.152 90.646 171.288C90.5676 171.423 90.4583 171.538 90.327 171.623L82.8006 175.97C82.5497 176.113 82.3501 175.995 82.3501 175.708V175.104C82.364 174.952 82.4117 174.806 82.4896 174.674C82.5676 174.543 82.6738 174.431 82.8006 174.346Z" fill="#E0E0E0" style="fill:#E0E0E0;fill:color(display-p3 0.8784 0.8784 0.8784);fill-opacity:1;"/>
<path d="M97.0342 168.735C96.9533 168.735 96.8738 168.714 96.8038 168.674C96.7212 168.624 96.6543 168.552 96.6109 168.466C96.5674 168.38 96.5491 168.283 96.5581 168.187V165.981C96.5648 165.784 96.6197 165.592 96.7179 165.422C96.8161 165.251 96.9546 165.107 97.1213 165.003L99.031 163.897C99.1129 163.845 99.2067 163.815 99.3035 163.809C99.4003 163.804 99.4969 163.824 99.584 163.866C99.6674 163.921 99.7344 163.998 99.7776 164.088C99.8209 164.178 99.8389 164.278 99.8298 164.378V166.585C99.8211 166.782 99.7649 166.973 99.6659 167.144C99.567 167.314 99.4282 167.458 99.2614 167.563L97.3517 168.663C97.254 168.715 97.1445 168.739 97.0342 168.735ZM97.3517 165.402C97.2565 165.467 97.1772 165.553 97.1196 165.654C97.062 165.754 97.0276 165.865 97.0189 165.981V168.187C97.0098 168.217 97.0098 168.249 97.0189 168.279C97.0469 168.269 97.0743 168.257 97.1008 168.244L99.0106 167.143C99.1072 167.078 99.1879 166.993 99.2464 166.893C99.305 166.792 99.3399 166.68 99.3485 166.564V164.352C99.3586 164.323 99.3586 164.29 99.3485 164.26C99.3184 164.267 99.2891 164.277 99.2614 164.291L97.3517 165.402Z" fill="#455A64" style="fill:#455A64;fill:color(display-p3 0.2706 0.3529 0.3922);fill-opacity:1;"/>
<path d="M101.453 163.579L108.979 159.232C109.225 159.089 109.43 159.206 109.43 159.493V160.077C109.419 160.232 109.373 160.383 109.294 160.518C109.216 160.653 109.109 160.768 108.979 160.855L101.453 165.202C101.202 165.345 101.002 165.202 101.002 164.941V164.352C101.011 164.197 101.057 164.046 101.135 163.912C101.213 163.777 101.322 163.663 101.453 163.579Z" fill="#E0E0E0" style="fill:#E0E0E0;fill:color(display-p3 0.8784 0.8784 0.8784);fill-opacity:1;"/>
<path d="M64.1689 174.341V175.207C64.1689 175.673 64.4966 175.862 64.9011 175.626L108.933 150.226C109.146 150.087 109.324 149.9 109.451 149.679C109.578 149.458 109.652 149.211 109.665 148.956V148.091C109.665 147.62 109.338 147.431 108.933 147.666L64.9011 173.072C64.6877 173.211 64.5102 173.398 64.383 173.619C64.2558 173.839 64.1824 174.087 64.1689 174.341Z" fill="#E0E0E0" style="fill:#E0E0E0;fill:color(display-p3 0.8784 0.8784 0.8784);fill-opacity:1;"/>
<path d="M64.1689 179.554V180.419C64.1689 180.885 64.4966 181.074 64.9011 180.839L108.933 155.439C109.146 155.299 109.323 155.111 109.45 154.891C109.577 154.67 109.651 154.423 109.665 154.169V153.303C109.665 152.832 109.338 152.643 108.933 152.879L64.9011 178.284C64.6877 178.423 64.5102 178.611 64.383 178.831C64.2558 179.052 64.1824 179.299 64.1689 179.554Z" fill="#E0E0E0" style="fill:#E0E0E0;fill:color(display-p3 0.8784 0.8784 0.8784);fill-opacity:1;"/>
<path d="M59.3459 179.999C60.4979 178.857 60.7846 178.371 60.7846 177.951C60.7846 177.531 60.6157 177.301 60.0986 177.603C59.8756 177.732 59.6835 177.909 59.5358 178.12C59.3882 178.331 59.2884 178.572 59.2435 178.826L57.984 179.108C58.0943 178.449 58.3436 177.821 58.7152 177.266C59.0869 176.71 59.5724 176.241 60.1395 175.887C61.399 175.16 62.1312 175.703 62.1312 176.937C62.0609 178.113 61.5488 179.22 60.6976 180.035V181.033L59.3459 181.811V179.999Z" fill="#455A64" style="fill:#455A64;fill:color(display-p3 0.2706 0.3529 0.3922);fill-opacity:1;"/>
<path d="M59.3306 183.296C59.3281 183.049 59.3901 182.806 59.5104 182.591C59.6308 182.375 59.8052 182.195 60.0166 182.068C60.4672 181.812 60.6976 182.037 60.6976 182.508C60.7011 182.754 60.6401 182.997 60.5206 183.213C60.4012 183.428 60.2274 183.609 60.0166 183.737C59.561 184.023 59.3306 183.808 59.3306 183.296Z" fill="#455A64" style="fill:#455A64;fill:color(display-p3 0.2706 0.3529 0.3922);fill-opacity:1;"/>
<path d="M97.3363 166.042L97.8944 166.467L97.3824 167.439C97.3376 167.498 97.3133 167.57 97.3133 167.644C97.3133 167.718 97.3376 167.79 97.3824 167.849C97.4746 167.921 97.6179 167.849 97.6999 167.695L98.2119 166.723L98.7751 167.153C98.857 167.214 98.9747 167.153 99.0464 167.02C99.085 166.969 99.1059 166.907 99.1059 166.843C99.1059 166.779 99.085 166.717 99.0464 166.666L98.4832 166.241L98.9952 165.269C99.0341 165.206 99.0526 165.133 99.048 165.06C99.0434 164.986 99.016 164.916 98.9696 164.859C98.8775 164.787 98.7341 164.859 98.6522 165.013L98.1402 165.985L97.577 165.555C97.4951 165.499 97.3722 165.555 97.3056 165.688C97.2712 165.743 97.2556 165.806 97.2612 165.87C97.2667 165.934 97.2931 165.994 97.3363 166.042Z" fill="#F7921E" style="fill:#F7921E;fill:color(display-p3 0.9686 0.5725 0.1176);fill-opacity:1;"/>
<path d="M147.215 83.1794L143.452 81.0085L143.416 80.9829C141.542 79.923 138.977 80.0818 136.136 81.7253C133.473 83.2613 131.046 85.8213 129.219 88.7755C127.104 92.1854 125.778 96.1279 125.778 99.6658C125.778 102.968 126.93 105.298 128.799 106.368L132.623 108.554C134.508 109.757 137.175 109.65 140.129 107.945C145.853 104.637 150.492 96.604 150.492 89.9992C150.487 86.5739 149.228 84.2034 147.215 83.1794Z" fill="#F7921E" style="fill:#F7921E;fill:color(display-p3 0.9686 0.5725 0.1176);fill-opacity:1;"/>
<path opacity="0.1" d="M132.541 108.544L128.794 106.398C126.925 105.313 125.773 102.994 125.773 99.6964C125.773 96.1585 127.099 92.2161 129.213 88.8062L133.212 91.1153C131.098 94.5201 129.772 98.4625 129.772 101.995C129.761 105.129 130.816 107.387 132.541 108.544Z" fill="black" style="fill:black;fill-opacity:1;"/>
<path opacity="0.4" d="M147.139 83.1382C145.295 82.2422 142.833 82.4675 140.124 84.0291C137.416 85.5907 135.035 88.1251 133.202 91.0947L129.203 88.7856C131.031 85.8211 133.463 83.2662 136.12 81.7353C138.962 80.0918 141.527 79.9382 143.401 80.9929L143.437 81.0185L147.139 83.1382Z" fill="white" style="fill:white;fill-opacity:1;"/>
<path d="M137.836 92.9073C137.843 93.306 137.758 93.7011 137.587 94.0617C137.417 94.4222 137.165 94.7385 136.852 94.986C136.31 95.2983 135.869 94.8785 135.869 94.0439C135.862 93.6451 135.947 93.2501 136.118 92.8895C136.288 92.5289 136.54 92.2126 136.852 91.9652C137.395 91.6477 137.836 92.0727 137.836 92.9073Z" fill="#455A64" style="fill:#455A64;fill:color(display-p3 0.2706 0.3529 0.3922);fill-opacity:1;"/>
<path d="M143.432 89.6767C143.439 90.0754 143.354 90.4705 143.183 90.8311C143.013 91.1916 142.761 91.5079 142.449 91.7554C141.906 92.0677 141.466 91.6479 141.466 90.8133C141.458 90.4145 141.543 90.0195 141.714 89.6589C141.884 89.2983 142.136 88.982 142.449 88.7346C142.991 88.4223 143.432 88.8421 143.432 89.6767Z" fill="#455A64" style="fill:#455A64;fill:color(display-p3 0.2706 0.3529 0.3922);fill-opacity:1;"/>
<path d="M134.492 105.39C134.453 105.395 134.414 105.395 134.374 105.39C134.302 105.375 134.233 105.346 134.172 105.305C134.11 105.263 134.058 105.21 134.017 105.148C133.977 105.086 133.949 105.017 133.936 104.944C133.922 104.871 133.923 104.797 133.939 104.724C134.83 100.49 137.098 96.7832 139.715 95.2728C140.247 94.9192 140.855 94.6952 141.49 94.6187C142.125 94.5423 142.769 94.6155 143.37 94.8325C144.604 95.3445 145.556 96.5784 146.048 98.3295C146.073 98.4688 146.045 98.6123 145.969 98.7321C145.894 98.8518 145.777 98.939 145.64 98.9768C145.504 99.0146 145.358 99.0001 145.232 98.9363C145.106 98.8724 145.008 98.7638 144.957 98.6316C144.568 97.2287 143.852 96.2508 142.945 95.877C142.503 95.7319 142.033 95.6906 141.572 95.7563C141.112 95.822 140.672 95.9929 140.288 96.2559C137.974 97.5922 135.869 101.089 135.055 104.96C135.024 105.085 134.951 105.195 134.849 105.273C134.747 105.352 134.621 105.393 134.492 105.39Z" fill="#455A64" style="fill:#455A64;fill:color(display-p3 0.2706 0.3529 0.3922);fill-opacity:1;"/>
<path d="M147.215 50.4218L143.452 48.251H143.416C141.542 47.1911 138.977 47.3498 136.136 48.9934C133.473 50.5294 131.046 53.0894 129.219 56.0436C127.104 59.4535 125.778 63.3959 125.778 66.9338C125.778 70.2362 126.93 72.5658 128.799 73.6359L132.623 75.8222C134.508 77.0254 137.175 76.9178 140.129 75.2129C145.853 71.9053 150.492 63.8721 150.492 57.2929C150.487 53.8164 149.228 51.4458 147.215 50.4218Z" fill="#F7921E" style="fill:#F7921E;fill:color(display-p3 0.9686 0.5725 0.1176);fill-opacity:1;"/>
<path opacity="0.1" d="M132.541 75.7762L128.794 73.6309C126.925 72.5455 125.773 70.2261 125.773 66.9288C125.773 63.3909 127.099 59.4485 129.213 56.0386L133.212 58.3477C131.098 61.7525 129.772 65.6949 129.772 69.2277C129.761 72.3714 130.816 74.6293 132.541 75.7762Z" fill="black" style="fill:black;fill-opacity:1;"/>
<path opacity="0.4" d="M147.139 50.3809C145.295 49.4849 142.833 49.7102 140.124 51.2718C137.416 52.8334 135.035 55.3678 133.202 58.3374L129.203 56.0282C131.031 53.0638 133.463 50.5089 136.12 48.978C138.962 47.3345 141.527 47.1809 143.401 48.2356H143.437L147.139 50.3809Z" fill="white" style="fill:white;fill-opacity:1;"/>
<path d="M137.774 71.0095C137.288 71.0109 136.806 70.9169 136.356 70.733C135.02 70.1852 133.996 68.8489 133.468 66.9596C133.433 66.8067 133.457 66.6459 133.537 66.5108C133.617 66.3757 133.746 66.2767 133.898 66.2345C134.049 66.1922 134.21 66.2099 134.349 66.284C134.487 66.358 134.592 66.4827 134.641 66.6319C135.066 68.1679 135.839 69.1919 136.817 69.6066C137.295 69.7662 137.804 69.8127 138.303 69.7425C138.802 69.6724 139.278 69.4874 139.694 69.2021C142.188 67.7634 144.461 63.9849 145.326 59.8069C145.361 59.6494 145.456 59.5117 145.591 59.4236C145.726 59.3355 145.89 59.304 146.048 59.3359C146.126 59.3523 146.201 59.3841 146.267 59.4293C146.333 59.4744 146.389 59.5322 146.433 59.5993C146.477 59.6663 146.507 59.7413 146.522 59.82C146.536 59.8987 146.536 59.9795 146.519 60.0578C145.556 64.6249 143.109 68.6287 140.288 70.262C139.529 70.7252 138.663 70.9828 137.774 71.0095Z" fill="#455A64" style="fill:#455A64;fill:color(display-p3 0.2706 0.3529 0.3922);fill-opacity:1;"/>
<path d="M137.661 60.8716C137.669 61.3024 137.577 61.7292 137.393 62.1189C137.21 62.5087 136.939 62.8509 136.602 63.1193C136.013 63.4572 135.542 63.0015 135.542 62.0953C135.533 61.665 135.624 61.2386 135.808 60.8495C135.992 60.4604 136.264 60.1193 136.602 59.8527C137.185 59.5148 137.661 59.9705 137.661 60.8716Z" fill="#455A64" style="fill:#455A64;fill:color(display-p3 0.2706 0.3529 0.3922);fill-opacity:1;"/>
<path d="M143.703 57.3849C143.71 57.815 143.619 58.241 143.435 58.6299C143.251 59.0188 142.98 59.3601 142.643 59.6274C142.06 59.9654 141.583 59.5097 141.583 58.6034C141.576 58.1734 141.668 57.7473 141.851 57.3584C142.035 56.9695 142.306 56.6282 142.643 56.3609C143.227 56.023 143.703 56.4838 143.703 57.3849Z" fill="#455A64" style="fill:#455A64;fill:color(display-p3 0.2706 0.3529 0.3922);fill-opacity:1;"/>
<path d="M154.916 142.623L127.78 158.29C127.507 158.429 127.205 158.501 126.899 158.501C126.593 158.501 126.291 158.429 126.019 158.29L124.58 157.455C124.322 157.287 124.108 157.06 123.955 156.793C123.802 156.526 123.714 156.227 123.699 155.919V124.585C123.714 124.277 123.802 123.978 123.955 123.711C124.108 123.444 124.322 123.217 124.58 123.049L151.716 107.382C151.988 107.243 152.289 107.17 152.594 107.17C152.899 107.17 153.2 107.243 153.472 107.382L154.911 108.221C155.169 108.389 155.384 108.616 155.537 108.883C155.69 109.15 155.777 109.45 155.791 109.757V141.097C155.776 141.402 155.688 141.699 155.536 141.964C155.384 142.229 155.171 142.455 154.916 142.623Z" fill="#455A64" style="fill:#455A64;fill:color(display-p3 0.2706 0.3529 0.3922);fill-opacity:1;"/>
<path d="M127.631 158.357C127.373 158.46 127.096 158.508 126.818 158.496C126.54 158.485 126.267 158.415 126.019 158.29L124.58 157.45C124.322 157.283 124.108 157.056 123.956 156.788C123.804 156.521 123.717 156.222 123.704 155.914V124.58C123.712 124.272 123.8 123.972 123.96 123.709L127.155 125.568C126.997 125.83 126.909 126.128 126.899 126.433V157.768C126.899 158.285 127.212 158.52 127.631 158.357Z" fill="#263238" style="fill:#263238;fill:color(display-p3 0.1490 0.1961 0.2196);fill-opacity:1;"/>
<path d="M154.916 142.623L127.78 158.29C127.293 158.572 126.899 158.346 126.899 157.778V126.464C126.914 126.157 127.002 125.857 127.155 125.59C127.308 125.323 127.522 125.096 127.78 124.928L154.916 109.261C155.402 108.979 155.797 109.21 155.797 109.773V141.112C155.778 141.415 155.688 141.71 155.535 141.972C155.382 142.234 155.17 142.457 154.916 142.623Z" fill="#37474F" style="fill:#37474F;fill:color(display-p3 0.2157 0.2784 0.3098);fill-opacity:1;"/>
<path fill-rule="evenodd" clip-rule="evenodd" d="M140.605 134.815L133.233 145.26C136.489 148.552 142.756 146.079 147.231 139.735C149.919 135.931 151.363 131.825 151.363 127.99L142.438 133.12C141.73 133.57 141.109 134.144 140.605 134.815Z" fill="#F7921E" style="fill:#F7921E;fill:color(display-p3 0.9686 0.5725 0.1176);fill-opacity:1;"/>
<path opacity="0.3" fill-rule="evenodd" clip-rule="evenodd" d="M140.605 134.815L133.233 145.26C136.489 148.552 142.756 146.079 147.231 139.735C149.919 135.931 151.363 131.825 151.363 127.99L142.438 133.12C141.73 133.57 141.109 134.144 140.605 134.815Z" fill="black" style="fill:black;fill-opacity:1;"/>
<path d="M132.859 144.993L140.232 134.549C140.773 133.83 141.444 133.217 142.208 132.741L151.132 127.591C151.202 127.55 151.282 127.529 151.363 127.529C151.444 127.529 151.523 127.55 151.593 127.591C151.663 127.631 151.721 127.689 151.762 127.759C151.802 127.829 151.823 127.909 151.823 127.99C151.823 131.943 150.364 136.1 147.61 140.001C144.645 144.2 140.836 146.872 137.421 147.169C136.598 147.265 135.765 147.173 134.983 146.901C134.201 146.628 133.491 146.183 132.905 145.598C132.834 145.526 132.789 145.433 132.776 145.333C132.763 145.233 132.783 145.132 132.833 145.045C132.836 145.025 132.845 145.007 132.859 144.993ZM150.881 128.799L142.689 133.54C142.038 133.946 141.466 134.467 141 135.076L133.857 145.188C134.342 145.585 134.902 145.881 135.504 146.057C136.106 146.233 136.737 146.285 137.359 146.212C140.462 145.956 144.108 143.365 146.867 139.448C147.338 138.788 147.763 138.117 148.152 137.447C149.729 134.818 150.664 131.856 150.881 128.799Z" fill="white" style="fill:white;fill-opacity:1;"/>
<path fill-rule="evenodd" clip-rule="evenodd" d="M140.938 132.572L138.24 124.559C132.977 129.572 130.094 137.764 131.804 142.853C132.079 143.757 132.567 144.583 133.228 145.259L140.6 134.814C140.809 134.485 140.947 134.115 141.006 133.729C141.064 133.343 141.041 132.949 140.938 132.572Z" fill="#F7921E" style="fill:#F7921E;fill:color(display-p3 0.9686 0.5725 0.1176);fill-opacity:1;"/>
<path d="M137.928 124.226C137.983 124.172 138.051 124.133 138.125 124.113C138.199 124.092 138.278 124.091 138.353 124.109C138.428 124.128 138.497 124.166 138.554 124.219C138.611 124.272 138.654 124.338 138.68 124.411L141.373 132.424C141.498 132.869 141.528 133.336 141.461 133.794C141.394 134.251 141.232 134.69 140.984 135.081L133.632 145.526C133.592 145.579 133.541 145.624 133.483 145.656C133.425 145.689 133.361 145.709 133.294 145.715C133.227 145.722 133.158 145.714 133.095 145.691C133.031 145.668 132.973 145.63 132.925 145.582C132.218 144.862 131.692 143.985 131.389 143.022C130.145 139.32 131.251 134.026 133.903 129.433C134.989 127.514 136.344 125.761 137.928 124.226ZM140.232 134.548C140.398 134.277 140.507 133.974 140.553 133.659C140.599 133.344 140.58 133.023 140.498 132.715L138.04 125.404C133.238 130.329 130.647 137.948 132.245 142.71C132.449 143.364 132.77 143.977 133.192 144.517L140.232 134.548Z" fill="white" style="fill:white;fill-opacity:1;"/>
<path fill-rule="evenodd" clip-rule="evenodd" d="M142.075 132.736L149.448 122.291C146.847 119.66 142.454 120.545 138.245 124.559L140.938 132.572C141.158 133.238 141.67 133.309 142.075 132.736Z" fill="#F7921E" style="fill:#F7921E;fill:color(display-p3 0.9686 0.5725 0.1176);fill-opacity:1;"/>
<path opacity="0.1" fill-rule="evenodd" clip-rule="evenodd" d="M142.075 132.736L149.448 122.291C146.847 119.66 142.454 120.545 138.245 124.559L140.938 132.572C141.158 133.238 141.67 133.309 142.075 132.736Z" fill="black" style="fill:black;fill-opacity:1;"/>
<path d="M137.928 124.227C142.331 120.028 146.985 119.142 149.775 121.969C149.852 122.045 149.898 122.146 149.908 122.254C149.917 122.361 149.888 122.469 149.827 122.557L142.449 133.002C142.358 133.206 142.202 133.375 142.007 133.482C141.811 133.59 141.586 133.63 141.365 133.598C141.144 133.566 140.939 133.462 140.783 133.302C140.627 133.143 140.526 132.937 140.498 132.716L137.805 124.703C137.785 124.641 137.778 124.576 137.785 124.511C137.792 124.447 137.813 124.385 137.846 124.329C137.866 124.29 137.894 124.255 137.928 124.227ZM148.838 122.368C146.447 120.32 142.566 121.196 138.772 124.703L141.373 132.434C141.402 132.52 141.443 132.601 141.496 132.675C141.58 132.629 141.649 132.562 141.696 132.48L148.838 122.368Z" fill="white" style="fill:white;fill-opacity:1;"/>
<path fill-rule="evenodd" clip-rule="evenodd" d="M142.438 133.12L151.363 128C151.363 125.44 150.748 123.622 149.448 122.301L142.075 132.746C141.67 133.309 141.824 133.488 142.438 133.12Z" fill="#F7921E" style="fill:#F7921E;fill:color(display-p3 0.9686 0.5725 0.1176);fill-opacity:1;"/>
<path opacity="0.2" fill-rule="evenodd" clip-rule="evenodd" d="M142.438 133.12L151.363 128C151.363 125.44 150.748 123.622 149.448 122.301L142.075 132.746C141.67 133.309 141.824 133.488 142.438 133.12Z" fill="black" style="fill:black;fill-opacity:1;"/>
<path d="M141.696 132.47L149.074 122.025C149.113 121.971 149.163 121.925 149.222 121.893C149.28 121.86 149.345 121.84 149.412 121.836C149.479 121.829 149.546 121.838 149.609 121.861C149.672 121.884 149.729 121.921 149.775 121.969C151.173 123.382 151.823 125.297 151.823 127.99C151.823 128.071 151.802 128.15 151.762 128.22C151.721 128.291 151.663 128.349 151.593 128.389L142.674 133.54C142.479 133.653 141.896 133.991 141.537 133.596C141.437 133.464 141.383 133.304 141.383 133.138C141.383 132.973 141.437 132.812 141.537 132.68L141.696 132.47ZM149.504 123.034L142.945 132.327L150.912 127.719C150.861 125.686 150.41 124.175 149.504 123.034Z" fill="white" style="fill:white;fill-opacity:1;"/>
<path d="M211.84 95.4884C211.367 95.26 210.846 95.1461 210.32 95.1559C209.795 95.1656 209.279 95.2989 208.814 95.5448L162.15 122.486C161.7 122.785 161.327 123.185 161.06 123.655C160.793 124.124 160.641 124.65 160.614 125.19V138.502C160.594 139.034 160.72 139.562 160.977 140.028C161.235 140.495 161.615 140.882 162.076 141.149C162.538 141.415 163.063 141.551 163.596 141.541C164.128 141.531 164.648 141.376 165.1 141.092L211.763 114.151C212.213 113.852 212.587 113.452 212.853 112.982C213.12 112.513 213.273 111.987 213.299 111.447V98.1355C213.281 97.6108 213.139 97.0978 212.885 96.6379C212.632 96.1781 212.274 95.7844 211.84 95.4884Z" fill="#263238" style="fill:#263238;fill:color(display-p3 0.1490 0.1961 0.2196);fill-opacity:1;"/>
<path d="M213.284 97.8536C213.156 97.0651 212.516 96.7886 211.748 97.2392L192.292 108.467L165.084 124.175C164.622 124.462 164.242 124.862 163.978 125.338L161.05 123.648C161.313 123.173 161.691 122.771 162.15 122.481L208.814 95.5444C209.244 95.2719 209.737 95.1166 210.246 95.0942C210.754 95.0717 211.26 95.1827 211.712 95.4163C212.164 95.6499 212.547 95.9978 212.823 96.4254C213.098 96.853 213.257 97.3454 213.284 97.8536Z" fill="#455A64" style="fill:#455A64;fill:color(display-p3 0.2706 0.3529 0.3922);fill-opacity:1;"/>
<path d="M163.517 126.879V140.191C163.517 141.184 164.219 141.589 165.079 141.092L211.743 114.151C212.193 113.852 212.566 113.452 212.833 112.982C213.1 112.513 213.252 111.987 213.279 111.447V98.1354C213.279 97.1422 212.582 96.7377 211.743 97.2343L192.287 108.468L165.074 124.176C164.62 124.472 164.243 124.872 163.973 125.342C163.702 125.811 163.546 126.338 163.517 126.879Z" fill="#37474F" style="fill:#37474F;fill:color(display-p3 0.2157 0.2784 0.3098);fill-opacity:1;"/>
<path d="M171.453 124.928L172.216 126.546C172.225 126.57 172.239 126.591 172.256 126.608C172.274 126.626 172.295 126.64 172.318 126.649C172.341 126.658 172.366 126.663 172.391 126.662C172.415 126.661 172.44 126.655 172.462 126.644L174.167 125.993C174.438 125.886 174.546 126.27 174.351 126.639L173.117 128.953C173.043 129.087 173.009 129.24 173.02 129.393L173.312 131.492C173.358 131.825 173.077 132.26 172.836 132.23L171.3 132.04C171.238 132.043 171.178 132.061 171.124 132.092C171.071 132.123 171.026 132.167 170.993 132.219L169.457 134.17C169.216 134.477 168.945 134.365 168.981 133.981L169.272 131.549C169.285 131.489 169.283 131.428 169.266 131.37C169.249 131.312 169.218 131.259 169.175 131.216L167.941 130.325C167.747 130.182 167.854 129.675 168.125 129.47L169.83 128.154C169.95 128.054 170.036 127.92 170.076 127.77L170.839 125.272C171.008 124.877 171.331 124.678 171.453 124.928Z" fill="#F7921E" style="fill:#F7921E;fill:color(display-p3 0.9686 0.5725 0.1176);fill-opacity:1;"/>
<path d="M180.081 119.993L180.844 121.611C180.852 121.634 180.865 121.656 180.882 121.674C180.9 121.692 180.921 121.707 180.944 121.716C180.967 121.725 180.992 121.729 181.018 121.728C181.043 121.726 181.067 121.72 181.089 121.708L182.794 121.058C183.066 120.95 183.173 121.334 182.979 121.703L181.76 124.017C181.685 124.153 181.651 124.308 181.663 124.463L181.955 126.557C182.001 126.889 181.719 127.325 181.478 127.294L179.942 127.11C179.881 127.11 179.82 127.126 179.766 127.157C179.713 127.187 179.667 127.231 179.635 127.284L178.099 129.234C177.859 129.542 177.587 129.434 177.623 129.045L177.915 126.613C177.928 126.554 177.925 126.492 177.908 126.434C177.891 126.376 177.86 126.323 177.818 126.28L176.584 125.389C176.389 125.246 176.497 124.744 176.768 124.534L178.473 123.218C178.592 123.119 178.678 122.985 178.719 122.834L179.482 120.336C179.61 119.936 179.958 119.737 180.081 119.993Z" fill="#F7921E" style="fill:#F7921E;fill:color(display-p3 0.9686 0.5725 0.1176);fill-opacity:1;"/>
<path d="M188.708 115.057L189.471 116.675C189.48 116.698 189.493 116.719 189.511 116.737C189.528 116.754 189.549 116.768 189.572 116.777C189.595 116.786 189.62 116.791 189.645 116.79C189.67 116.789 189.694 116.783 189.717 116.772L191.421 116.117C191.693 116.014 191.8 116.393 191.606 116.762L190.372 119.076C190.298 119.212 190.264 119.367 190.275 119.521L190.566 121.615C190.613 121.948 190.331 122.389 190.09 122.358L188.554 122.168C188.492 122.171 188.432 122.189 188.379 122.22C188.325 122.251 188.28 122.295 188.247 122.348L186.711 124.293C186.47 124.605 186.199 124.493 186.235 124.109L186.527 121.677C186.539 121.617 186.537 121.555 186.52 121.496C186.503 121.437 186.472 121.383 186.429 121.339L185.196 120.448C185.001 120.31 185.109 119.803 185.38 119.593L187.085 118.277C187.204 118.177 187.29 118.043 187.331 117.893L188.093 115.395C188.237 115 188.585 114.796 188.708 115.057Z" fill="#F7921E" style="fill:#F7921E;fill:color(display-p3 0.9686 0.5725 0.1176);fill-opacity:1;"/>
<path d="M197.335 110.116L198.098 111.734C198.107 111.757 198.12 111.779 198.138 111.796C198.155 111.814 198.176 111.828 198.199 111.837C198.223 111.846 198.247 111.85 198.272 111.849C198.297 111.848 198.321 111.842 198.344 111.831L200.049 111.176C200.32 111.074 200.428 111.453 200.233 111.821L198.999 114.135C198.925 114.272 198.891 114.426 198.902 114.581L199.194 116.675C199.24 117.008 198.958 117.448 198.717 117.417L197.181 117.228C197.12 117.231 197.059 117.249 197.006 117.28C196.952 117.311 196.907 117.355 196.874 117.407L195.338 119.353C195.098 119.665 194.826 119.552 194.862 119.168L195.154 116.736C195.167 116.677 195.165 116.616 195.148 116.558C195.131 116.5 195.099 116.447 195.057 116.404L193.823 115.513C193.628 115.369 193.736 114.863 194.007 114.653L195.712 113.342C195.829 113.24 195.915 113.107 195.958 112.958L196.721 110.459C196.864 110.08 197.212 109.86 197.335 110.116Z" fill="#F7921E" style="fill:#F7921E;fill:color(display-p3 0.9686 0.5725 0.1176);fill-opacity:1;"/>
<path d="M205.962 105.175L206.725 106.793C206.734 106.816 206.748 106.838 206.765 106.855C206.783 106.873 206.803 106.887 206.827 106.896C206.85 106.905 206.874 106.909 206.899 106.908C206.924 106.907 206.949 106.901 206.971 106.89L208.676 106.24C208.947 106.133 209.055 106.517 208.86 106.885L207.626 109.2C207.552 109.334 207.518 109.487 207.529 109.64L207.821 111.739C207.867 112.072 207.585 112.507 207.345 112.476L205.809 112.287C205.747 112.29 205.687 112.308 205.633 112.339C205.58 112.37 205.534 112.414 205.501 112.466L203.965 114.417C203.725 114.724 203.453 114.611 203.489 114.227L203.781 111.795C203.794 111.736 203.792 111.675 203.775 111.617C203.758 111.559 203.727 111.506 203.684 111.463L202.47 110.592C202.276 110.449 202.383 109.942 202.655 109.737L204.36 108.421C204.479 108.322 204.565 108.188 204.605 108.037L205.368 105.539C205.491 105.119 205.824 104.919 205.962 105.175Z" fill="#F7921E" style="fill:#F7921E;fill:color(display-p3 0.9686 0.5725 0.1176);fill-opacity:1;"/>
<path d="M170.168 116.414L167.608 114.939C167.557 114.916 167.515 114.879 167.485 114.831L167.014 114.012L168.55 113.137L168.504 113.27L170.168 116.414Z" fill="#F7921E" style="fill:#F7921E;fill:color(display-p3 0.9686 0.5725 0.1176);fill-opacity:1;"/>
<path opacity="0.2" d="M170.168 116.414L167.608 114.939C167.557 114.916 167.515 114.879 167.485 114.831L167.014 114.012L168.55 113.137L168.504 113.27L170.168 116.414Z" fill="black" style="fill:black;fill-opacity:1;"/>
<path d="M168.31 113.26L170.081 116.332C170.106 116.376 170.143 116.412 170.188 116.436C170.233 116.46 170.284 116.469 170.334 116.465C170.385 116.46 170.433 116.44 170.473 116.408C170.512 116.377 170.542 116.334 170.557 116.286L172.426 110.895L168.31 113.26Z" fill="#F7921E" style="fill:#F7921E;fill:color(display-p3 0.9686 0.5725 0.1176);fill-opacity:1;"/>
<path d="M212.992 70.4513C212.97 70.0233 212.846 69.6066 212.632 69.2355C212.417 68.8644 212.118 68.5494 211.758 68.3162C211.375 68.1243 210.953 68.0244 210.524 68.0244C210.096 68.0244 209.673 68.1243 209.29 68.3162L161.848 95.6929C161.489 95.9277 161.19 96.2439 160.976 96.6157C160.761 96.9875 160.638 97.4045 160.614 97.833V113.449C160.638 113.878 160.761 114.295 160.976 114.666C161.19 115.038 161.489 115.354 161.848 115.589C162.231 115.783 162.653 115.885 163.082 115.885C163.511 115.885 163.934 115.783 164.316 115.589L211.876 88.1358C212.987 87.5009 212.997 86.866 212.997 86.0878L212.992 70.4513Z" fill="#F7921E" style="fill:#F7921E;fill:color(display-p3 0.9686 0.5725 0.1176);fill-opacity:1;"/>
<path opacity="0.2" d="M160.594 113.444C160.617 113.872 160.741 114.29 160.955 114.661C161.17 115.033 161.469 115.349 161.828 115.584C162.175 115.761 162.556 115.862 162.945 115.881C163.335 115.899 163.723 115.835 164.086 115.692C163.507 115.912 163.062 115.579 163.062 114.872V99.2513C163.076 98.8222 163.201 98.4041 163.425 98.0379L160.952 96.6094C160.732 96.979 160.609 97.3981 160.594 97.8279V113.444Z" fill="black" style="fill:black;fill-opacity:1;"/>
<path opacity="0.4" d="M212.936 70.1034C212.792 69.5914 212.311 69.4122 211.743 69.7399L164.296 97.1165C163.93 97.3417 163.629 97.6597 163.425 98.0381L160.957 96.6096C161.166 96.2343 161.465 95.9174 161.828 95.688L209.27 68.3165C209.652 68.1222 210.075 68.021 210.504 68.021C210.933 68.021 211.355 68.1222 211.738 68.3165C212.049 68.517 212.315 68.7789 212.521 69.0862C212.727 69.3934 212.868 69.7396 212.936 70.1034Z" fill="white" style="fill:white;fill-opacity:1;"/>
<path d="M166.4 99.5281L209.004 74.8804C209.418 74.6449 209.756 74.7524 209.756 75.1262C209.726 75.3564 209.642 75.5764 209.511 75.7684C209.38 75.9604 209.207 76.1192 209.004 76.2321L166.4 100.864C165.99 101.105 165.652 100.998 165.652 100.624C165.685 100.396 165.769 100.179 165.899 99.9888C166.028 99.7989 166.2 99.6412 166.4 99.5281Z" fill="white" style="fill:white;fill-opacity:1;"/>
<path d="M166.4 106.496L202.941 85.4018C203.356 85.1611 203.689 85.2687 203.689 85.6424C203.659 85.8729 203.576 86.0932 203.446 86.286C203.316 86.4788 203.144 86.6388 202.941 86.7535L166.4 107.843C165.99 108.083 165.652 107.971 165.652 107.597C165.687 107.369 165.771 107.152 165.901 106.961C166.03 106.771 166.201 106.612 166.4 106.496Z" fill="white" style="fill:white;fill-opacity:1;"/>
<path d="M166.4 109.886L208.133 85.7601C208.543 85.5195 208.881 85.6321 208.881 86.0059C208.847 86.2346 208.763 86.4528 208.633 86.6443C208.504 86.8358 208.333 86.9956 208.133 87.1118L166.4 111.232C165.99 111.473 165.652 111.365 165.652 110.992C165.683 110.762 165.767 110.543 165.896 110.351C166.026 110.159 166.199 110 166.4 109.886Z" fill="white" style="fill:white;fill-opacity:1;"/>
<path d="M166.4 102.912L208.133 78.787C208.543 78.5464 208.881 78.659 208.881 79.0328C208.849 79.2622 208.766 79.4813 208.636 79.6731C208.507 79.8649 208.334 80.0242 208.133 80.1387L166.4 104.285C165.99 104.52 165.652 104.413 165.652 104.039C165.68 103.806 165.762 103.582 165.892 103.387C166.022 103.191 166.196 103.029 166.4 102.912Z" fill="white" style="fill:white;fill-opacity:1;"/>
<path d="M211.84 43.6174C211.367 43.3889 210.846 43.275 210.32 43.2848C209.795 43.2945 209.279 43.4278 208.814 43.6737L162.15 70.61C161.701 70.9096 161.328 71.3101 161.062 71.7795C160.795 72.2489 160.642 72.7742 160.614 73.3133V86.6253C160.594 87.1578 160.72 87.6857 160.977 88.1522C161.235 88.6187 161.615 89.0061 162.076 89.2726C162.538 89.5391 163.063 89.6747 163.596 89.6647C164.128 89.6548 164.648 89.4997 165.1 89.2161L211.763 62.2746C212.213 61.9759 212.587 61.5756 212.853 61.106C213.12 60.6365 213.273 60.1107 213.299 59.5713V46.2593C213.28 45.7354 213.138 45.2235 212.884 44.7646C212.631 44.3057 212.273 43.9128 211.84 43.6174Z" fill="#263238" style="fill:#263238;fill:color(display-p3 0.1490 0.1961 0.2196);fill-opacity:1;"/>
<path d="M213.284 45.9829C213.156 45.1945 212.516 44.918 211.748 45.3634L192.292 56.5916L165.084 72.2998C164.623 72.5898 164.243 72.9913 163.978 73.4671L161.05 71.7775C161.311 71.301 161.69 70.8991 162.15 70.6102L208.814 43.6738C209.244 43.4013 209.737 43.246 210.246 43.2235C210.754 43.2011 211.26 43.3121 211.712 43.5457C212.164 43.7792 212.547 44.1271 212.823 44.5548C213.098 44.9824 213.257 45.4748 213.284 45.9829Z" fill="#455A64" style="fill:#455A64;fill:color(display-p3 0.2706 0.3529 0.3922);fill-opacity:1;"/>
<path d="M163.517 75.008V88.32C163.517 89.3133 164.219 89.7178 165.079 89.2211L211.743 62.2797C212.193 61.981 212.566 61.5807 212.833 61.1111C213.1 60.6415 213.252 60.1158 213.279 59.5763V46.2643C213.279 45.2711 212.582 44.8666 211.743 45.3632L192.287 56.5914L165.074 72.3047C164.62 72.6014 164.243 73.0008 163.973 73.4704C163.702 73.9401 163.546 74.4668 163.517 75.008Z" fill="#37474F" style="fill:#37474F;fill:color(display-p3 0.2157 0.2784 0.3098);fill-opacity:1;"/>
<path d="M171.453 73.0626L172.216 74.6805C172.225 74.7037 172.239 74.7249 172.256 74.7425C172.274 74.7602 172.295 74.7741 172.318 74.7832C172.341 74.7924 172.366 74.7966 172.391 74.7957C172.415 74.7947 172.44 74.7887 172.462 74.7778L174.167 74.1224C174.438 74.02 174.546 74.404 174.351 74.7675L173.117 77.0818C173.043 77.218 173.01 77.3725 173.02 77.5272L173.312 79.6213C173.358 79.9541 173.077 80.3944 172.836 80.3637L171.3 80.1743C171.238 80.1771 171.178 80.195 171.124 80.2262C171.071 80.2574 171.026 80.301 170.993 80.3535L169.457 82.2991C169.216 82.6114 168.945 82.4987 168.981 82.1147L169.272 79.6827C169.285 79.6236 169.283 79.5621 169.266 79.504C169.249 79.4459 169.218 79.3929 169.175 79.3499L167.941 78.4591C167.747 78.3157 167.854 77.8088 168.125 77.5989L169.83 76.2882C169.949 76.1874 170.034 76.0537 170.076 75.9042L170.839 73.4056C171.008 73.0063 171.331 72.8066 171.453 73.0626Z" fill="#F7921E" style="fill:#F7921E;fill:color(display-p3 0.9686 0.5725 0.1176);fill-opacity:1;"/>
<path d="M180.081 68.1222L180.844 69.7401C180.852 69.7633 180.866 69.7844 180.883 69.8021C180.901 69.8198 180.922 69.8337 180.945 69.8428C180.968 69.852 180.993 69.8562 181.018 69.8553C181.043 69.8543 181.067 69.8482 181.089 69.8373L182.794 69.1871C183.066 69.0796 183.173 69.4636 182.979 69.8322L181.76 72.1465C181.686 72.2808 181.652 72.4337 181.663 72.5868L181.955 74.686C182.001 75.0188 181.719 75.454 181.478 75.4233L179.942 75.2338C179.881 75.2367 179.82 75.2545 179.767 75.2857C179.713 75.3169 179.668 75.3606 179.635 75.413L178.099 77.3638C177.859 77.671 177.587 77.5634 177.623 77.1743L177.915 74.7423C177.928 74.6831 177.925 74.6217 177.908 74.5636C177.891 74.5054 177.86 74.4525 177.818 74.4095L176.584 73.5186C176.389 73.3753 176.497 72.8684 176.768 72.6636L178.473 71.3478C178.592 71.248 178.678 71.1139 178.719 70.9638L179.482 68.4652C179.61 68.0658 179.958 67.8662 180.081 68.1222Z" fill="#F7921E" style="fill:#F7921E;fill:color(display-p3 0.9686 0.5725 0.1176);fill-opacity:1;"/>
<path d="M188.708 63.1812L189.471 64.8043C189.48 64.8275 189.493 64.8486 189.511 64.8663C189.528 64.884 189.549 64.8978 189.572 64.907C189.595 64.9161 189.62 64.9204 189.645 64.9194C189.67 64.9185 189.694 64.9124 189.717 64.9015L191.421 64.2462C191.693 64.1438 191.8 64.5227 191.606 64.8913L190.372 67.2055C190.297 67.3415 190.263 67.4962 190.275 67.651L190.566 69.7451C190.613 70.0779 190.331 70.5131 190.09 70.4875L188.554 70.298C188.492 70.2985 188.432 70.3148 188.378 70.3452C188.324 70.3757 188.279 70.4194 188.247 70.4721L186.711 72.4228C186.47 72.73 186.199 72.6225 186.235 72.2334L186.527 69.8014C186.539 69.7422 186.537 69.6809 186.52 69.6228C186.503 69.5648 186.472 69.5118 186.429 69.4686L185.196 68.5777C185.001 68.4395 185.109 67.9326 185.38 67.7227L187.085 66.4068C187.204 66.3071 187.29 66.173 187.331 66.0228L188.093 63.5243C188.237 63.13 188.585 62.9252 188.708 63.1812Z" fill="#F7921E" style="fill:#F7921E;fill:color(display-p3 0.9686 0.5725 0.1176);fill-opacity:1;"/>
<path d="M197.335 58.2456L198.098 59.8635C198.107 59.8868 198.12 59.9079 198.138 59.9256C198.155 59.9433 198.176 59.9571 198.199 59.9663C198.223 59.9754 198.247 59.9797 198.272 59.9787C198.297 59.9778 198.321 59.9717 198.344 59.9608L200.049 59.3055C200.32 59.2031 200.428 59.5819 200.233 59.9506L198.999 62.2648C198.925 62.401 198.891 62.5556 198.902 62.7103L199.194 64.8043C199.24 65.1371 198.958 65.5775 198.717 65.5468L197.181 65.3573C197.12 65.3602 197.059 65.378 197.006 65.4092C196.952 65.4404 196.907 65.4841 196.874 65.5365L195.338 67.4821C195.098 67.7944 194.826 67.6818 194.862 67.2978L195.154 64.8658C195.171 64.8048 195.173 64.7404 195.159 64.6785C195.144 64.6167 195.115 64.5596 195.072 64.5125L193.838 63.6216C193.644 63.4834 193.751 62.9765 194.022 62.7666L195.727 61.4559C195.846 61.3531 195.931 61.2178 195.973 61.0667L196.736 58.5682C196.864 58.1893 197.212 57.9845 197.335 58.2456Z" fill="#F7921E" style="fill:#F7921E;fill:color(display-p3 0.9686 0.5725 0.1176);fill-opacity:1;"/>
<path d="M205.962 53.3047L206.725 54.9226C206.734 54.9458 206.748 54.9669 206.765 54.9846C206.783 55.0023 206.803 55.0162 206.827 55.0253C206.85 55.0345 206.874 55.0387 206.899 55.0378C206.924 55.0368 206.949 55.0307 206.971 55.0199L208.676 54.3645C208.947 54.2621 209.055 54.6461 208.86 55.0096L207.626 57.3444C207.552 57.4805 207.518 57.6351 207.529 57.7898L207.821 59.8839C207.867 60.2167 207.585 60.657 207.345 60.6263L205.809 60.4368C205.747 60.4397 205.687 60.4575 205.633 60.4887C205.58 60.5199 205.534 60.5636 205.501 60.616L203.965 62.5616C203.725 62.874 203.453 62.7613 203.489 62.3773L203.781 59.9453C203.794 59.8861 203.792 59.8247 203.775 59.7666C203.758 59.7084 203.727 59.6555 203.684 59.6125L202.45 58.7216C202.255 58.5783 202.363 58.0714 202.634 57.8615L204.339 56.5507C204.459 56.451 204.544 56.3169 204.585 56.1667L205.348 53.6682C205.491 53.2484 205.824 53.0487 205.962 53.3047Z" fill="#455A64" style="fill:#455A64;fill:color(display-p3 0.2706 0.3529 0.3922);fill-opacity:1;"/>
<path d="M170.168 64.5429L167.608 63.0684C167.557 63.0457 167.515 63.0082 167.485 62.9608L167.014 62.1416L168.55 61.2661L168.504 61.3992L170.168 64.5429Z" fill="#F7921E" style="fill:#F7921E;fill:color(display-p3 0.9686 0.5725 0.1176);fill-opacity:1;"/>
<path opacity="0.2" d="M170.168 64.5429L167.608 63.0684C167.557 63.0457 167.515 63.0082 167.485 62.9608L167.014 62.1416L168.55 61.2661L168.504 61.3992L170.168 64.5429Z" fill="black" style="fill:black;fill-opacity:1;"/>
<path d="M168.31 61.3889L170.081 64.4609C170.106 64.5052 170.143 64.5413 170.188 64.5649C170.233 64.5884 170.284 64.5984 170.334 64.5935C170.385 64.5886 170.433 64.5691 170.473 64.5374C170.512 64.5056 170.542 64.463 170.557 64.4148L172.426 59.0234L168.31 61.3889Z" fill="#F7921E" style="fill:#F7921E;fill:color(display-p3 0.9686 0.5725 0.1176);fill-opacity:1;"/>
<path d="M212.992 18.5807C212.969 18.1522 212.845 17.7351 212.631 17.3633C212.416 16.9915 212.117 16.6754 211.758 16.4405C211.376 16.2463 210.953 16.145 210.524 16.145C210.095 16.145 209.673 16.2463 209.29 16.4405L161.828 43.8172C161.469 44.052 161.17 44.3681 160.955 44.7399C160.741 45.1117 160.617 45.5288 160.594 45.9573V61.5733C160.617 62.0019 160.741 62.4189 160.955 62.7907C161.17 63.1625 161.469 63.4786 161.828 63.7135C162.21 63.9078 162.633 64.009 163.062 64.009C163.491 64.009 163.913 63.9078 164.296 63.7135L211.855 36.2549C212.966 35.6252 212.977 34.9903 212.977 34.2069L212.992 18.5807Z" fill="#F7921E" style="fill:#F7921E;fill:color(display-p3 0.9686 0.5725 0.1176);fill-opacity:1;"/>
<path opacity="0.2" d="M160.594 61.5733C160.617 62.0019 160.741 62.4189 160.955 62.7907C161.17 63.1625 161.469 63.4786 161.828 63.7135C162.175 63.8909 162.556 63.9918 162.946 64.0094C163.335 64.0271 163.724 63.9611 164.086 63.8159C163.507 64.036 163.062 63.7084 163.062 63.0018V47.3807C163.077 46.9501 163.202 46.5305 163.425 46.1621L160.952 44.7388C160.732 45.1084 160.609 45.5275 160.594 45.9573V61.5733Z" fill="black" style="fill:black;fill-opacity:1;"/>
<path opacity="0.4" d="M212.936 18.2328C212.792 17.7208 212.311 17.5416 211.743 17.8692L164.296 45.2459C163.93 45.4711 163.629 45.789 163.425 46.1675L160.957 44.739C161.166 44.3637 161.465 44.0468 161.828 43.8174L209.27 16.4408C209.653 16.2489 210.075 16.1489 210.504 16.1489C210.932 16.1489 211.355 16.2489 211.738 16.4408C212.049 16.6418 212.316 16.9045 212.522 17.2127C212.728 17.5209 212.869 17.8681 212.936 18.2328Z" fill="white" style="fill:white;fill-opacity:1;"/>
<path d="M166.4 47.6519L209.004 23.0093C209.418 22.7738 209.756 22.8813 209.756 23.2551C209.726 23.4853 209.642 23.7053 209.511 23.8973C209.38 24.0893 209.207 24.2481 209.004 24.361L166.4 49.0036C165.99 49.2442 165.652 49.1367 165.652 48.7629C165.685 48.5333 165.769 48.3141 165.899 48.1217C166.028 47.9292 166.2 47.7686 166.4 47.6519Z" fill="white" style="fill:white;fill-opacity:1;"/>
<path d="M166.4 54.6202L202.941 33.5258C203.356 33.2852 203.689 33.3927 203.689 33.7664C203.659 33.9963 203.576 34.2161 203.446 34.4081C203.317 34.6002 203.144 34.7592 202.941 34.8724L166.4 55.9719C165.99 56.2074 165.652 56.0999 165.652 55.7261C165.684 55.4967 165.767 55.2776 165.897 55.0858C166.027 54.894 166.199 54.7346 166.4 54.6202Z" fill="white" style="fill:white;fill-opacity:1;"/>
<path d="M166.4 58.0096L208.133 33.8893C208.543 33.6486 208.881 33.7613 208.881 34.1299C208.848 34.3595 208.764 34.5788 208.634 34.7712C208.505 34.9636 208.334 35.1242 208.133 35.241L166.4 59.3613C165.99 59.6019 165.652 59.4944 165.652 59.1206C165.685 58.891 165.769 58.6718 165.899 58.4794C166.028 58.287 166.2 58.1264 166.4 58.0096Z" fill="white" style="fill:white;fill-opacity:1;"/>
<path d="M166.4 51.0619L208.133 26.9364C208.543 26.6958 208.881 26.8084 208.881 27.1822C208.847 27.4109 208.763 27.6291 208.633 27.8206C208.504 28.0121 208.333 28.1719 208.133 28.2881L166.4 52.4084C165.99 52.6491 165.652 52.5415 165.652 52.1678C165.683 51.9382 165.767 51.719 165.896 51.5271C166.026 51.3352 166.199 51.176 166.4 51.0619Z" fill="white" style="fill:white;fill-opacity:1;"/>
<path d="M184.105 145.152L202.051 141.634C202.164 141.616 202.28 141.632 202.383 141.682C202.487 141.732 202.572 141.813 202.628 141.913C202.684 142.013 202.708 142.128 202.696 142.242C202.684 142.356 202.638 142.464 202.563 142.551L190.392 156.334L184.105 145.152Z" fill="#FFA8A7" style="fill:#FFA8A7;fill:color(display-p3 1.0000 0.6588 0.6549);fill-opacity:1;"/>
<path d="M202.573 142.551C202.648 142.464 202.695 142.356 202.706 142.242C202.718 142.128 202.694 142.013 202.638 141.913C202.583 141.813 202.497 141.732 202.394 141.682C202.29 141.632 202.174 141.616 202.061 141.634L198.548 142.336C199.029 142.634 199.419 143.059 199.673 143.564C199.928 144.069 200.038 144.634 199.992 145.198V145.515L202.573 142.551Z" fill="#F7921E" style="fill:#F7921E;fill:color(display-p3 0.9686 0.5725 0.1176);fill-opacity:1;"/>
<path d="M123.489 194.708L124.954 193.864L126.73 192.84L190.397 156.319C190.981 154.342 190.799 152.217 189.885 150.369C188.611 147.522 186.143 145.249 184.095 145.142L120.479 181.657L117.094 183.598C119.357 182.461 125.742 193.536 123.489 194.708Z" fill="#37474F" style="fill:#37474F;fill:color(display-p3 0.2157 0.2784 0.3098);fill-opacity:1;"/>
<path d="M129.085 191.518L132.362 189.634C133.33 189.122 132.777 186.741 131.645 184.284C130.145 181.017 127.201 177.853 125.916 178.534L123.5 179.922L122.644 180.434C123.93 179.753 126.879 182.912 128.374 186.183C129.454 188.539 130.007 190.827 129.183 191.452C129.157 191.483 129.123 191.506 129.085 191.518Z" fill="#EBEBEB" style="fill:#EBEBEB;fill:color(display-p3 0.9216 0.9216 0.9216);fill-opacity:1;"/>
<path d="M129.9 191.043C132.147 189.85 125.711 178.755 123.459 179.953L120.177 181.827C122.424 180.639 128.881 191.724 126.612 192.916L129.9 191.043Z" fill="#F7921E" style="fill:#F7921E;fill:color(display-p3 0.9686 0.5725 0.1176);fill-opacity:1;"/>
<path d="M123.489 194.708L126.73 192.855C128.947 191.698 122.824 180.946 120.479 181.657C120.432 181.666 120.386 181.684 120.346 181.709L117.094 183.598C119.357 182.461 125.742 193.536 123.489 194.708Z" fill="#EBEBEB" style="fill:#EBEBEB;fill:color(display-p3 0.9216 0.9216 0.9216);fill-opacity:1;"/>
<path opacity="0.15" d="M202.655 141.947L202.051 141.634L189.03 148.756L121.702 187.392C121.574 187.192 121.472 187.177 121.39 187.315C123.305 190.3 124.749 194.058 123.489 194.713L124.954 193.869L126.73 192.845L190.397 156.324L202.568 142.541C202.643 142.463 202.692 142.364 202.707 142.258C202.723 142.151 202.705 142.042 202.655 141.947Z" fill="black" style="fill:black;fill-opacity:1;"/>
<path d="M109.732 202.578L123.489 194.708C124.452 194.196 123.919 191.851 122.808 189.409C121.318 186.137 118.385 182.943 117.094 183.598L103.281 191.488C100.536 193.07 103.06 199.019 106.117 201.682C107.254 202.701 108.544 203.146 109.732 202.578Z" fill="#F28F8F" style="fill:#F28F8F;fill:color(display-p3 0.9490 0.5608 0.5608);fill-opacity:1;"/>
<path opacity="0.1" d="M110.551 198.313C109.763 195.21 107.254 192.169 104.945 191.519C104.606 191.399 104.243 191.362 103.886 191.411C103.53 191.46 103.191 191.593 102.897 191.8C100.849 193.72 103.24 199.178 106.132 201.697C107.244 202.68 108.488 203.121 109.676 202.603C110.689 201.999 111.104 200.412 110.551 198.313Z" fill="black" style="fill:black;fill-opacity:1;"/>
</svg>
