<svg xmlns="http://www.w3.org/2000/svg" width="257" height="257" fill="none"><path stroke="#D5D5D5" d="M47.06 222.837c-22.474-11.768-33.56-27.116-33.56-42.333s11.084-30.568 33.56-42.341C69.524 126.397 99 120.5 128.502 120.5c29.503 0 58.977 5.897 81.439 17.663 22.473 11.773 33.558 27.122 33.559 42.337s-11.083 30.564-33.559 42.337C187.476 234.603 158.002 240.5 128.5 240.5s-58.976-5.897-81.44-17.663Z" style="stroke:#d5d5d5;stroke:color(display-p3 .8353 .8353 .8353);stroke-opacity:1"/><path fill="#E6E6E6" d="m143.791 72.776-91.323 52.729v71.897l.011 12.922-.806-.463-1.267-.733v-84.812l91.324-52.729 1.57.904z" style="fill:#e6e6e6;fill:color(display-p3 .902 .902 .902);fill-opacity:1"/><path fill="#F0F0F0" d="M143.79 72.776v71.901l-88.237 50.94-2.057 1.193-.51.292-.508.288-.011.012v-71.897z" style="fill:#f0f0f0;fill:color(display-p3 .9412 .9412 .9412);fill-opacity:1"/><path fill="#F0F0F0" d="m141.73 71.587 2.061 1.189-91.323 52.729-2.062-1.193z" style="fill:#f0f0f0;fill:color(display-p3 .9412 .9412 .9412);fill-opacity:1"/><path fill="#F7921E" d="m144.533 72.363-.741.429-91.323 52.725-.289.163v84.473l-.506-.292v-84.469l.3-.172L143.3 72.492l.729-.421z" style="fill:#f7921e;fill:color(display-p3 .9686 .5725 .1176);fill-opacity:1"/><path fill="#000" d="m144.533 72.363-.741.429-91.323 52.725-.289.163v84.473l-.506-.292v-84.469l.3-.172L143.3 72.492l.729-.421z" opacity=".1" style="fill:#000;fill-opacity:1"/><path fill="#F7921E" d="m143.781 72.792-91.312 52.725-.288.163v84.473l.3.171 92.048-52.997V72.375z" style="fill:#f7921e;fill:color(display-p3 .9686 .5725 .1176);fill-opacity:1"/><path fill="#000" d="m143.781 72.792-91.312 52.725-.288.163v84.473l.3.171 92.048-52.997V72.375z" opacity=".05" style="fill:#000;fill-opacity:1"/><path fill="#F7921E" d="m144.026 72.075.507.288-92.353 53.321-.506-.292z" style="fill:#f7921e;fill:color(display-p3 .9686 .5725 .1176);fill-opacity:1"/><path fill="#fff" d="m144.026 72.075.507.288-92.353 53.321-.506-.292z" opacity=".4" style="fill:#fff;fill-opacity:1"/><path fill="#F7921E" d="m145.338 72.827-.806.463-.741.429-25.154 14.524-65.65 37.901v84.473l-.508-.293v-84.469l91.312-52.713.741-.428.304-.176z" style="fill:#f7921e;fill:color(display-p3 .9686 .5725 .1176);fill-opacity:1"/><path fill="#000" d="m145.338 72.827-.806.463-.741.429-25.154 14.524-65.65 37.901v84.473l-.508-.293v-84.469l91.312-52.713.741-.428.304-.176z" opacity=".1" style="fill:#000;fill-opacity:1"/><path fill="#F7921E" d="m144.532 73.29-.752.432-25.143 14.52-65.655 37.909v84.465l.51.296 2.008-1.215 89.839-51.899V72.846z" style="fill:#f7921e;fill:color(display-p3 .9686 .5725 .1176);fill-opacity:1"/><path fill="#F7921E" d="m144.836 72.538.502.288-92.352 53.322-.506-.289z" style="fill:#f7921e;fill:color(display-p3 .9686 .5725 .1176);fill-opacity:1"/><path fill="#fff" d="m144.836 72.538.502.288-92.352 53.322-.506-.289z" opacity=".4" style="fill:#fff;fill-opacity:1"/><path fill="#E6E6E6" d="m146.881 74.565-1.543.892-.807.468-.74.42-88.237 50.945v84.811l-2.058-1.188v-84.812l90.295-52.133.74-.428.289-.164.518.3z" style="fill:#e6e6e6;fill:color(display-p3 .902 .902 .902);fill-opacity:1"/><path fill="#F0F0F0" d="m144.82 73.372 2.061 1.189-91.323 52.728-2.062-1.192z" style="fill:#f0f0f0;fill:color(display-p3 .9412 .9412 .9412);fill-opacity:1"/><path fill="#FAFAFA" d="M55.554 127.289v84.812l91.327-52.725V74.561z" style="fill:#fafafa;fill:color(display-p3 .9804 .9804 .9804);fill-opacity:1"/><path fill="#37474F" d="M64.926 124.612c.592-.343 1.076-.066 1.076.624a2.38 2.38 0 0 1-1.076 1.862c-.596.343-1.08.067-1.08-.619a2.38 2.38 0 0 1 1.08-1.867" style="fill:#37474f;fill:color(display-p3 .2157 .2784 .3098);fill-opacity:1"/><path fill="#F7921E" d="M61.895 116.024c-1.169-.674-2.295-.78-3.16-.273s-1.344 1.524-1.344 2.876c.004.515.066 1.027.187 1.528l.717-.417a5.8 5.8 0 0 1-.11-1.111c0-1.06.336-1.835.947-2.19.612-.355 1.45-.253 2.366.277 2.046 1.169 3.71 4.064 3.71 6.426a3.3 3.3 0 0 1-.3 1.484 1.73 1.73 0 0 1-.647.706.4.4 0 0 1-.062.031c-.18.285-.295.605-.34.939.282-.047.552-.143.8-.285.532-.317.93-.819 1.118-1.41a4.4 4.4 0 0 0 .226-1.465c0-2.615-1.84-5.811-4.108-7.116" style="fill:#f7921e;fill:color(display-p3 .9686 .5725 .1176);fill-opacity:1"/><path fill="#37474F" d="M70.156 121.592c.592-.343 1.075-.062 1.075.624a2.4 2.4 0 0 1-1.075 1.867c-.597.342-1.08.062-1.08-.624a2.39 2.39 0 0 1 1.08-1.867" style="fill:#37474f;fill:color(display-p3 .2157 .2784 .3098);fill-opacity:1"/><path fill="#F7921E" d="M67.125 113.004c-1.17-.675-2.295-.78-3.16-.273-.866.506-1.345 1.523-1.345 2.876.004.514.067 1.027.187 1.527l.717-.417a5.7 5.7 0 0 1-.109-1.11c0-1.06.335-1.836.947-2.19.612-.355 1.45-.254 2.365.276 2.046 1.169 3.71 4.065 3.71 6.43a3.3 3.3 0 0 1-.3 1.485c-.146.289-.37.532-.647.701l-.062.035a2.3 2.3 0 0 0-.34.936c.275-.048.539-.143.78-.281.533-.32.93-.823 1.119-1.414.156-.472.233-.965.226-1.462.02-2.619-1.82-5.81-4.088-7.119" style="fill:#f7921e;fill:color(display-p3 .9686 .5725 .1176);fill-opacity:1"/><path fill="#37474F" d="M59.697 127.629c.596-.343 1.075-.067 1.075.623a2.37 2.37 0 0 1-1.075 1.863c-.593.343-1.076.066-1.076-.62a2.38 2.38 0 0 1 1.076-1.866" style="fill:#37474f;fill:color(display-p3 .2157 .2784 .3098);fill-opacity:1"/><path fill="#F7921E" d="M56.665 119.04c-1.17-.674-2.295-.779-3.16-.273-.866.507-1.345 1.52-1.345 2.876.005.515.067 1.027.187 1.528l.721-.417a6 6 0 0 1-.113-1.111c0-1.06.34-1.835.947-2.19.608-.355 1.45-.253 2.365.277 2.05 1.169 3.714 4.064 3.714 6.426a3.3 3.3 0 0 1-.304 1.484 1.7 1.7 0 0 1-.643.702l-.062.035a2.3 2.3 0 0 0-.343.935 2.4 2.4 0 0 0 .803-.28c.532-.318.928-.82 1.114-1.411.16-.472.238-.967.23-1.465 0-2.615-1.843-5.811-4.111-7.116" style="fill:#f7921e;fill:color(display-p3 .9686 .5725 .1176);fill-opacity:1"/><path fill="#37474F" d="M75.386 118.576c.592-.347 1.076-.066 1.076.62a2.39 2.39 0 0 1-1.076 1.866c-.596.343-1.08.063-1.08-.623a2.38 2.38 0 0 1 1.08-1.863" style="fill:#37474f;fill:color(display-p3 .2157 .2784 .3098);fill-opacity:1"/><path fill="#F7921E" d="M72.354 109.987c-1.169-.678-2.295-.779-3.164-.276-.869.502-1.34 1.523-1.34 2.876.004.514.066 1.027.187 1.527l.717-.417a5.7 5.7 0 0 1-.11-1.11c0-1.06.336-1.836.944-2.186.608-.351 1.453-.258 2.369.272 2.046 1.169 3.71 4.065 3.71 6.43a3.35 3.35 0 0 1-.3 1.485c-.146.289-.37.532-.647.701l-.062.035a2.3 2.3 0 0 0-.34.936c.281-.045.552-.14.8-.281.532-.32.93-.823 1.118-1.414.156-.472.233-.966.226-1.462 0-2.619-1.844-5.81-4.108-7.116" style="fill:#f7921e;fill:color(display-p3 .9686 .5725 .1176);fill-opacity:1"/><path fill="#37474F" d="M80.61 115.556c.597-.343 1.08-.066 1.08.62a2.38 2.38 0 0 1-1.08 1.874c-.592.343-1.075.066-1.075-.623a2.38 2.38 0 0 1 1.076-1.871" style="fill:#37474f;fill:color(display-p3 .2157 .2784 .3098);fill-opacity:1"/><path fill="#F7921E" d="M77.583 106.967c-1.17-.678-2.295-.779-3.164-.273-.87.507-1.34 1.52-1.34 2.876.003.514.066 1.025.186 1.524l.717-.413a6 6 0 0 1-.109-1.111c0-1.06.335-1.839.943-2.19.608-.35 1.45-.253 2.37.277 2.045 1.169 3.71 4.06 3.71 6.426a3.3 3.3 0 0 1-.3 1.485c-.147.289-.37.532-.648.701l-.062.035a2.3 2.3 0 0 0-.34.935c.282-.043.553-.138.8-.28a2.54 2.54 0 0 0 1.118-1.415c.157-.471.233-.965.226-1.461 0-2.615-1.843-5.81-4.107-7.116" style="fill:#f7921e;fill:color(display-p3 .9686 .5725 .1176);fill-opacity:1"/><path fill="#37474F" d="M85.84 112.536c.596-.343 1.08-.066 1.08.619a2.37 2.37 0 0 1-1.08 1.867c-.592.343-1.075.066-1.075-.62a2.38 2.38 0 0 1 1.075-1.866" style="fill:#37474f;fill:color(display-p3 .2157 .2784 .3098);fill-opacity:1"/><path fill="#F7921E" d="M82.813 103.947c-1.169-.678-2.295-.779-3.164-.273-.869.507-1.337 1.516-1.337 2.876.005.515.068 1.027.188 1.528l.717-.417a6 6 0 0 1-.11-1.111c0-1.06.336-1.839.944-2.19.607-.35 1.45-.253 2.369.277 2.046 1.169 3.71 4.06 3.71 6.426a3.3 3.3 0 0 1-.304 1.485 1.7 1.7 0 0 1-.706.736 2.3 2.3 0 0 0-.339.935c.275-.045.539-.14.78-.28a2.55 2.55 0 0 0 1.118-1.411c.157-.472.233-.968.226-1.465.016-2.615-1.828-5.81-4.092-7.116" style="fill:#f7921e;fill:color(display-p3 .9686 .5725 .1176);fill-opacity:1"/><path fill="#37474F" d="M91.07 109.516c.596-.343 1.08-.067 1.08.623a2.38 2.38 0 0 1-1.08 1.863c-.593.343-1.076.066-1.076-.62a2.39 2.39 0 0 1 1.076-1.866" style="fill:#37474f;fill:color(display-p3 .2157 .2784 .3098);fill-opacity:1"/><path fill="#F7921E" d="M88.055 100.927c-1.17-.674-2.296-.779-3.165-.273-.869.507-1.344 1.52-1.344 2.876a6.6 6.6 0 0 0 .19 1.528l.718-.417a5.8 5.8 0 0 1-.113-1.111c0-1.06.339-1.835.947-2.19.608-.354 1.45-.253 2.37.277 2.045 1.169 3.709 4.064 3.709 6.426a3.3 3.3 0 0 1-.304 1.485c-.145.29-.367.534-.643.705l-.062.031a2.3 2.3 0 0 0-.34.935 2.2 2.2 0 0 0 .8-.28c.532-.318.93-.82 1.118-1.411.156-.472.233-.968.226-1.465-.012-2.615-1.855-5.81-4.107-7.116" style="fill:#f7921e;fill:color(display-p3 .9686 .5725 .1176);fill-opacity:1"/><path fill="#37474F" d="M96.3 106.496c.596-.343 1.076-.062 1.076.623a2.37 2.37 0 0 1-1.076 1.863c-.592.347-1.075.066-1.075-.619a2.4 2.4 0 0 1 1.075-1.867" style="fill:#37474f;fill:color(display-p3 .2157 .2784 .3098);fill-opacity:1"/><path fill="#F7921E" d="M93.272 97.907c-1.169-.674-2.295-.78-3.164-.273s-1.344 1.524-1.344 2.876c.003.515.067 1.028.19 1.528l.718-.417a5.8 5.8 0 0 1-.113-1.111c0-1.06.339-1.835.947-2.19s1.45-.253 2.369.277c2.046 1.169 3.71 4.064 3.71 6.43a3.26 3.26 0 0 1-.304 1.48 1.7 1.7 0 0 1-.643.706l-.063.035c-.18.283-.295.602-.339.935a2.4 2.4 0 0 0 .78-.281c.531-.32.927-.823 1.114-1.414.16-.471.238-.965.23-1.461.02-2.619-1.824-5.81-4.088-7.12" style="fill:#f7921e;fill:color(display-p3 .9686 .5725 .1176);fill-opacity:1"/><path fill="#37474F" d="M101.53 103.479c.596-.346 1.075-.066 1.075.62a2.383 2.383 0 0 1-1.075 1.867c-.593.343-1.076.062-1.076-.624a2.39 2.39 0 0 1 1.076-1.863" style="fill:#37474f;fill:color(display-p3 .2157 .2784 .3098);fill-opacity:1"/><path fill="#F7921E" d="M98.5 94.887c-1.168-.674-2.294-.78-3.163-.273-.87.507-1.345 1.524-1.345 2.876.004.515.068 1.028.191 1.528l.717-.417a5.8 5.8 0 0 1-.113-1.111c0-1.06.34-1.835.947-2.186.608-.35 1.45-.257 2.37.273 2.045 1.169 3.709 4.064 3.709 6.429a3.3 3.3 0 0 1-.304 1.485 1.64 1.64 0 0 1-.643.701l-.062.035a2.2 2.2 0 0 0-.339.936c.281-.046.551-.141.799-.281a2.53 2.53 0 0 0 1.114-1.414c.16-.471.238-.965.23-1.462 0-2.618-1.843-5.81-4.107-7.12" style="fill:#f7921e;fill:color(display-p3 .9686 .5725 .1176);fill-opacity:1"/><path fill="#37474F" d="M106.76 100.459c.596-.343 1.076-.066 1.076.62a2.38 2.38 0 0 1-1.076 1.867c-.592.343-1.075.062-1.075-.624a2.38 2.38 0 0 1 1.075-1.863" style="fill:#37474f;fill:color(display-p3 .2157 .2784 .3098);fill-opacity:1"/><path fill="#F7921E" d="M103.731 91.87c-1.169-.678-2.295-.779-3.164-.272-.869.506-1.344 1.52-1.344 2.876.003.513.067 1.025.19 1.523l.722-.413a5.7 5.7 0 0 1-.113-1.11c0-1.06.339-1.84.946-2.19.608-.351 1.45-.258 2.37.272 2.046 1.17 3.71 4.065 3.71 6.43a3.3 3.3 0 0 1-.304 1.485c-.144.29-.367.533-.643.701l-.063.035a2.25 2.25 0 0 0-.339.936c.281-.046.551-.141.799-.281a2.54 2.54 0 0 0 1.115-1.414c.159-.47.237-.965.23-1.462-.004-2.615-1.863-5.81-4.112-7.115" style="fill:#f7921e;fill:color(display-p3 .9686 .5725 .1176);fill-opacity:1"/><path fill="#37474F" d="M111.99 97.44c.596-.343 1.075-.067 1.075.62a2.37 2.37 0 0 1-1.075 1.866c-.593.343-1.076.066-1.076-.62a2.38 2.38 0 0 1 1.076-1.866" style="fill:#37474f;fill:color(display-p3 .2157 .2784 .3098);fill-opacity:1"/><path fill="#F7921E" d="M108.96 88.85c-1.169-.678-2.295-.779-3.164-.272-.869.506-1.345 1.52-1.345 2.876a6.6 6.6 0 0 0 .191 1.527l.717-.417a6 6 0 0 1-.113-1.11c0-1.06.339-1.84.947-2.19.608-.351 1.45-.254 2.365.276 2.05 1.17 3.714 4.06 3.714 6.426a3.3 3.3 0 0 1-.304 1.485c-.143.29-.366.533-.643.701l-.062.035a2.2 2.2 0 0 0-.339.936c.281-.044.552-.14.799-.28a2.54 2.54 0 0 0 1.114-1.412c.16-.471.238-.967.23-1.465 0-2.615-1.843-5.81-4.107-7.115" style="fill:#f7921e;fill:color(display-p3 .9686 .5725 .1176);fill-opacity:1"/><path fill="#37474F" d="M117.219 94.42c.596-.344 1.076-.067 1.076.623a2.37 2.37 0 0 1-1.076 1.862c-.592.343-1.075.067-1.075-.62a2.38 2.38 0 0 1 1.075-1.866" style="fill:#37474f;fill:color(display-p3 .2157 .2784 .3098);fill-opacity:1"/><path fill="#F7921E" d="M114.186 85.83c-1.169-.673-2.295-.779-3.16-.272-.865.506-1.344 1.52-1.344 2.876.004.514.067 1.027.187 1.527l.721-.416a5.8 5.8 0 0 1-.113-1.111c0-1.06.339-1.836.947-2.19.607-.355 1.449-.254 2.365.276 2.05 1.17 3.714 4.065 3.714 6.426.014.512-.09 1.02-.304 1.485a1.7 1.7 0 0 1-.643.702l-.063.035a2.3 2.3 0 0 0-.343.935c.283-.044.555-.139.803-.28.529-.32.923-.822 1.107-1.411a4.4 4.4 0 0 0 .23-1.466c.008-2.614-1.836-5.81-4.104-7.115" style="fill:#f7921e;fill:color(display-p3 .9686 .5725 .1176);fill-opacity:1"/><path fill="#37474F" d="M122.444 91.403c.592-.347 1.075-.066 1.075.62a2.38 2.38 0 0 1-1.075 1.867c-.597.342-1.08.062-1.08-.624a2.38 2.38 0 0 1 1.08-1.863" style="fill:#37474f;fill:color(display-p3 .2157 .2784 .3098);fill-opacity:1"/><path fill="#F7921E" d="M119.413 82.814c-1.169-.678-2.295-.779-3.164-.272-.869.506-1.341 1.52-1.341 2.876.004.513.067 1.024.187 1.523l.717-.417a6 6 0 0 1-.109-1.106c0-1.064.335-1.84.947-2.19.612-.351 1.45-.258 2.366.272 2.045 1.17 3.709 4.065 3.709 6.43a3.3 3.3 0 0 1-.3 1.485c-.146.29-.37.532-.647.701l-.062.035a2.3 2.3 0 0 0-.339.936c.281-.046.551-.14.799-.281.532-.32.93-.823 1.118-1.415.157-.47.233-.965.226-1.46-.004-2.616-1.843-5.811-4.107-7.117" style="fill:#f7921e;fill:color(display-p3 .9686 .5725 .1176);fill-opacity:1"/><path fill="#37474F" d="M127.669 88.383c.597-.343 1.08-.066 1.08.62a2.38 2.38 0 0 1-1.08 1.866c-.592.343-1.075.067-1.075-.623a2.37 2.37 0 0 1 1.075-1.863" style="fill:#37474f;fill:color(display-p3 .2157 .2784 .3098);fill-opacity:1"/><path fill="#F7921E" d="M124.643 79.794c-1.17-.678-2.296-.78-3.165-.273s-1.34 1.52-1.34 2.876c.004.513.067 1.024.187 1.524l.717-.413a5.8 5.8 0 0 1-.109-1.111c0-1.06.335-1.84.943-2.19s1.449-.253 2.369.277c2.046 1.169 3.71 4.06 3.71 6.426a3.35 3.35 0 0 1-.3 1.484 1.7 1.7 0 0 1-.694.737 2.3 2.3 0 0 0-.339.935c.281-.043.552-.138.799-.28.531-.32.929-.821 1.118-1.411.157-.473.233-.968.226-1.465-.015-2.615-1.858-5.81-4.122-7.116" style="fill:#f7921e;fill:color(display-p3 .9686 .5725 .1176);fill-opacity:1"/><path fill="#37474F" d="M132.9 85.363c.596-.343 1.079-.066 1.079.62a2.37 2.37 0 0 1-1.079 1.866c-.593.343-1.076.066-1.076-.62a2.4 2.4 0 0 1 1.076-1.866" style="fill:#37474f;fill:color(display-p3 .2157 .2784 .3098);fill-opacity:1"/><path fill="#F7921E" d="M129.872 76.774c-1.169-.674-2.295-.78-3.164-.273s-1.341 1.52-1.341 2.876c.005.515.067 1.027.187 1.528l.717-.417a6 6 0 0 1-.109-1.11c0-1.06.335-1.836.943-2.19.608-.356 1.45-.254 2.37.276 2.045 1.169 3.709 4.06 3.709 6.426a3.3 3.3 0 0 1-.304 1.484 1.7 1.7 0 0 1-.705.737 2.3 2.3 0 0 0-.339.935 2.3 2.3 0 0 0 .779-.28 2.55 2.55 0 0 0 1.119-1.411c.156-.472.233-.968.226-1.465.019-2.615-1.824-5.81-4.088-7.116" style="fill:#f7921e;fill:color(display-p3 .9686 .5725 .1176);fill-opacity:1"/><path fill="#37474F" d="M138.129 82.343c.596-.343 1.08-.066 1.08.623a2.39 2.39 0 0 1-1.08 1.863c-.592.343-1.075.066-1.075-.62a2.38 2.38 0 0 1 1.075-1.866" style="fill:#37474f;fill:color(display-p3 .2157 .2784 .3098);fill-opacity:1"/><path fill="#F7921E" d="M135.1 73.754c-1.169-.674-2.295-.78-3.164-.273s-1.344 1.52-1.344 2.876c.003.515.067 1.028.191 1.528l.717-.417a5.8 5.8 0 0 1-.109-1.11c0-1.06.335-1.836.943-2.19.608-.355 1.449-.254 2.369.276 2.046 1.169 3.71 4.064 3.71 6.426a3.3 3.3 0 0 1-.304 1.484c-.145.29-.367.535-.643.706l-.062.031a2.3 2.3 0 0 0-.339.935c.281-.041.553-.136.798-.28.533-.318.931-.82 1.119-1.411.157-.472.233-.968.226-1.465 0-2.615-1.843-5.81-4.108-7.116" style="fill:#f7921e;fill:color(display-p3 .9686 .5725 .1176);fill-opacity:1"/><path fill="#37474F" d="M143.36 79.323c.596-.343 1.075-.063 1.075.623a2.36 2.36 0 0 1-1.075 1.863c-.593.347-1.076.066-1.076-.62a2.4 2.4 0 0 1 1.076-1.866" style="fill:#37474f;fill:color(display-p3 .2157 .2784 .3098);fill-opacity:1"/><path fill="#F7921E" d="M140.331 70.734c-1.169-.674-2.295-.78-3.164-.273s-1.345 1.524-1.345 2.876c.004.515.068 1.028.191 1.528l.717-.417a6 6 0 0 1-.113-1.11c0-1.06.339-1.836.947-2.19.608-.355 1.45-.254 2.369.276 2.046 1.169 3.71 4.064 3.71 6.43a3.26 3.26 0 0 1-.304 1.48 1.66 1.66 0 0 1-.643.706l-.062.035c-.18.283-.295.602-.339.935.281-.045.551-.14.799-.28a2.53 2.53 0 0 0 1.114-1.415c.16-.47.238-.965.23-1.461 0-2.62-1.827-5.81-4.107-7.12" style="fill:#f7921e;fill:color(display-p3 .9686 .5725 .1176);fill-opacity:1"/><path fill="#000" d="M140.33 70.734c-1.169-.674-2.295-.78-3.164-.273s-1.345 1.524-1.345 2.876q.009.495.09.982-.382-.315-.811-.565c-1.169-.674-2.295-.78-3.164-.273s-1.344 1.52-1.344 2.876q.008.493.089.978a6.4 6.4 0 0 0-.81-.56c-1.169-.679-2.295-.78-3.164-.274-.869.507-1.341 1.52-1.341 2.876q.006.492.086.979a6.5 6.5 0 0 0-.811-.562c-1.169-.678-2.295-.78-3.164-.272-.869.506-1.341 1.52-1.341 2.875q.006.493.086.978a6 6 0 0 0-.81-.56c-1.169-.679-2.296-.78-3.165-.273-.869.506-1.34 1.52-1.34 2.876q.006.488.086.97a6.4 6.4 0 0 0-.807-.557c-1.169-.675-2.295-.78-3.161-.273-.865.506-1.344 1.52-1.344 2.876q.007.492.09.978a6.5 6.5 0 0 0-.811-.561c-1.169-.678-2.299-.78-3.164-.273s-1.345 1.52-1.345 2.876q.009.493.09.978a6 6 0 0 0-.81-.561c-1.17-.678-2.296-.78-3.165-.273s-1.344 1.52-1.344 2.876q.007.493.09.978a6.5 6.5 0 0 0-.811-.565c-1.17-.674-2.295-.78-3.164-.273s-1.345 1.524-1.345 2.876q.007.495.09.982a6 6 0 0 0-.81-.565c-1.17-.674-2.296-.78-3.165-.273s-1.344 1.524-1.344 2.876q.007.493.09.978a6.5 6.5 0 0 0-.811-.561c-1.17-.674-2.296-.779-3.165-.273-.869.507-1.344 1.52-1.344 2.876q.007.493.09.978a6.5 6.5 0 0 0-.81-.561c-1.17-.678-2.296-.779-3.165-.273-.87.507-1.337 1.516-1.337 2.876q.007.493.09.978a6.5 6.5 0 0 0-.81-.561c-1.17-.678-2.296-.779-3.165-.273-.869.507-1.34 1.52-1.34 2.876q.006.493.085.978a6 6 0 0 0-.81-.561c-1.17-.678-2.296-.779-3.165-.276-.869.502-1.34 1.523-1.34 2.876q.005.494.086.982a6 6 0 0 0-.811-.565c-1.17-.675-2.295-.78-3.16-.273-.865.506-1.345 1.523-1.345 2.876q.006.494.09.982a6 6 0 0 0-.815-.565c-1.169-.675-2.295-.78-3.16-.273-.865.506-1.344 1.524-1.344 2.876q0 .488.081.97a6 6 0 0 0-.806-.557c-1.17-.674-2.295-.78-3.16-.273s-1.345 1.52-1.345 2.876c.005.515.067 1.027.187 1.527l.721-.416a6 6 0 0 1-.113-1.111c0-1.06.339-1.836.947-2.19.608-.355 1.45-.253 2.365.277 2.05 1.169 3.714 4.064 3.714 6.425.014.512-.09 1.02-.304 1.485a1.7 1.7 0 0 1-.643.702l-.062.035a2.3 2.3 0 0 0-.343.935c.282-.044.554-.139.803-.281a2.52 2.52 0 0 0 1.114-1.41c.16-.472.238-.968.23-1.466 0-2.119-1.212-4.621-2.88-6.188l.39-.23a5.8 5.8 0 0 1-.11-1.11c0-1.06.336-1.836.948-2.19.611-.355 1.45-.254 2.365.276 2.046 1.169 3.71 4.065 3.71 6.426a3.3 3.3 0 0 1-.3 1.485 1.7 1.7 0 0 1-.647.705.3.3 0 0 1-.062.032c-.18.285-.295.605-.34.939.282-.047.552-.143.8-.285.532-.317.93-.819 1.118-1.41.158-.472.235-.968.226-1.466 0-2.12-1.212-4.621-2.88-6.188l.39-.234a5.7 5.7 0 0 1-.11-1.11c0-1.06.336-1.836.948-2.19.611-.355 1.45-.254 2.365.276 2.046 1.169 3.71 4.065 3.71 6.43a3.3 3.3 0 0 1-.3 1.485 1.74 1.74 0 0 1-.647.701l-.062.035c-.18.284-.296.603-.34.936.275-.048.538-.143.78-.281.532-.32.93-.823 1.118-1.415.157-.471.233-.965.226-1.461 0-2.124-1.212-4.625-2.88-6.192l.39-.234a5.7 5.7 0 0 1-.109-1.11c0-1.06.335-1.836.947-2.187s1.45-.257 2.365.273c2.046 1.169 3.71 4.065 3.71 6.43a3.35 3.35 0 0 1-.3 1.485c-.146.289-.37.532-.647.701l-.062.035a2.3 2.3 0 0 0-.339.936c.28-.046.552-.141.799-.281.532-.32.93-.823 1.118-1.415.157-.471.233-.965.226-1.461 0-2.124-1.212-4.626-2.88-6.192l.39-.23a6 6 0 0 1-.109-1.111c0-1.06.335-1.839.943-2.19.608-.35 1.45-.253 2.37.277 2.045 1.169 3.71 4.061 3.71 6.426a3.3 3.3 0 0 1-.3 1.485c-.147.289-.37.532-.648.701l-.062.035a2.3 2.3 0 0 0-.34.935c.282-.043.553-.138.8-.28a2.54 2.54 0 0 0 1.118-1.415c.157-.471.233-.965.226-1.461 0-2.124-1.212-4.626-2.88-6.192l.39-.23a6 6 0 0 1-.109-1.111c0-1.06.335-1.839.943-2.19.608-.35 1.45-.253 2.37.277 2.045 1.169 3.71 4.06 3.71 6.426a3.3 3.3 0 0 1-.305 1.485 1.7 1.7 0 0 1-.705.736 2.3 2.3 0 0 0-.34.935c.275-.045.54-.14.78-.28a2.55 2.55 0 0 0 1.119-1.411c.156-.472.233-.968.226-1.465 0-2.12-1.212-4.622-2.88-6.188l.39-.234a6 6 0 0 1-.113-1.111c0-1.06.339-1.835.947-2.19.607-.354 1.45-.253 2.369.277 2.046 1.169 3.71 4.064 3.71 6.426a3.3 3.3 0 0 1-.304 1.485c-.145.29-.368.534-.643.705l-.063.031a2.3 2.3 0 0 0-.339.935 2.2 2.2 0 0 0 .8-.28c.532-.318.93-.82 1.118-1.411.156-.472.232-.968.226-1.465 0-2.12-1.212-4.622-2.88-6.188l.39-.234a5.7 5.7 0 0 1-.114-1.111c0-1.06.34-1.835.947-2.19.608-.354 1.45-.253 2.37.277 2.046 1.169 3.71 4.064 3.71 6.43a3.26 3.26 0 0 1-.304 1.48 1.7 1.7 0 0 1-.643.706l-.063.035c-.18.283-.295.602-.339.935.274-.048.538-.143.78-.28a2.55 2.55 0 0 0 1.114-1.415c.16-.47.237-.965.23-1.461 0-2.124-1.212-4.626-2.88-6.192l.39-.234a5.8 5.8 0 0 1-.113-1.111c0-1.06.339-1.835.947-2.186.608-.35 1.45-.257 2.37.273 2.045 1.169 3.709 4.064 3.709 6.43a3.3 3.3 0 0 1-.304 1.484 1.66 1.66 0 0 1-.643.702l-.062.035a2.2 2.2 0 0 0-.339.935c.28-.046.551-.141.799-.281a2.53 2.53 0 0 0 1.114-1.414 4.4 4.4 0 0 0 .23-1.461c0-2.124-1.212-4.626-2.88-6.193l.39-.23a6 6 0 0 1-.113-1.11c0-1.06.339-1.84.947-2.19s1.449-.257 2.369.273c2.046 1.169 3.71 4.064 3.71 6.43a3.3 3.3 0 0 1-.304 1.484c-.143.29-.366.534-.643.702l-.062.035a2.2 2.2 0 0 0-.339.935c.28-.046.551-.141.798-.281a2.54 2.54 0 0 0 1.115-1.414c.16-.47.237-.965.23-1.462 0-2.123-1.212-4.625-2.88-6.192l.39-.23a5.8 5.8 0 0 1-.113-1.11c0-1.06.339-1.84.947-2.19.608-.351 1.449-.254 2.369.276 2.046 1.17 3.71 4.061 3.71 6.426a3.3 3.3 0 0 1-.304 1.485c-.143.29-.367.534-.643.702l-.062.035a2.24 2.24 0 0 0-.34.935c.282-.044.552-.14.799-.28.531-.32.928-.821 1.115-1.411a4.4 4.4 0 0 0 .23-1.466c0-2.12-1.212-4.621-2.88-6.188l.39-.234a5.8 5.8 0 0 1-.113-1.11c0-1.06.339-1.836.947-2.19.608-.355 1.449-.254 2.365.276 2.05 1.17 3.714 4.065 3.714 6.426.014.512-.09 1.02-.304 1.485a1.7 1.7 0 0 1-.643.701l-.063.035a2.26 2.26 0 0 0-.339.936c.282-.044.552-.14.799-.28a2.52 2.52 0 0 0 1.282-1.411c.16-.472.238-.968.23-1.466 0-2.12-1.212-4.625-2.88-6.192l.39-.23a5.7 5.7 0 0 1-.109-1.106c0-1.064.335-1.84.943-2.19.608-.351 1.454-.258 2.369.272 2.046 1.17 3.71 4.065 3.71 6.43a3.3 3.3 0 0 1-.3 1.485c-.146.29-.37.532-.647.701l-.062.035a2.3 2.3 0 0 0-.339.936c.281-.046.551-.14.799-.281.532-.32.93-.823 1.118-1.415.157-.47.233-.965.226-1.46.008-2.125-1.2-4.615-2.868-6.174l.39-.23a5.8 5.8 0 0 1-.109-1.11c0-1.06.335-1.84.943-2.19s1.449-.253 2.369.276c2.046 1.17 3.71 4.061 3.71 6.427a3.35 3.35 0 0 1-.3 1.484 1.7 1.7 0 0 1-.682.717 2.3 2.3 0 0 0-.339.936c.281-.044.552-.139.799-.281.531-.32.928-.82 1.118-1.41.157-.473.233-.968.226-1.466 0-2.12-1.212-4.622-2.88-6.192l.39-.23a5.8 5.8 0 0 1-.109-1.11c0-1.06.335-1.836.943-2.19.608-.355 1.45-.254 2.369.276 2.046 1.169 3.71 4.06 3.71 6.426a3.3 3.3 0 0 1-.304 1.485 1.7 1.7 0 0 1-.705.736 2.3 2.3 0 0 0-.339.935c.274-.045.538-.14.779-.28a2.55 2.55 0 0 0 1.119-1.41 4.5 4.5 0 0 0 .226-1.466c0-2.12-1.212-4.622-2.88-6.188l.389-.234a6 6 0 0 1-.085-1.115c0-1.06.339-1.835.947-2.19.608-.354 1.449-.253 2.369.277 2.046 1.169 3.71 4.064 3.71 6.426a3.3 3.3 0 0 1-.304 1.485c-.145.29-.367.534-.643.705l-.063.031a2.4 2.4 0 0 0-.339.935 2.2 2.2 0 0 0 .799-.28c.533-.318.931-.82 1.119-1.41.156-.473.233-.968.226-1.466 0-2.12-1.212-4.622-2.88-6.188l.39-.234a5.7 5.7 0 0 1-.113-1.11c0-1.06.339-1.836.947-2.19.607-.355 1.449-.254 2.369.276 2.046 1.169 3.71 4.064 3.71 6.43a3.26 3.26 0 0 1-.304 1.48 1.67 1.67 0 0 1-.643.706l-.063.035a2.3 2.3 0 0 0-.339.935c.281-.046.552-.14.799-.28.532-.32.929-.823 1.115-1.415.159-.47.237-.965.23-1.461.011-2.615-1.816-5.807-4.096-7.116" opacity=".4" style="fill:#000;fill-opacity:1"/><path fill="#F7921E" d="m67.147 134.094 6.531-3.792c.484-.281.877-.082.881.44a1.85 1.85 0 0 1-.873 1.454l-6.539 3.78c-.483.276-.877.078-.877-.444a1.88 1.88 0 0 1 .877-1.438M78.311 127.648l6.531-3.795c.484-.277.877-.082.881.444a1.88 1.88 0 0 1-.873 1.453l-6.539 3.788c-.483.281-.876.082-.876-.44a1.87 1.87 0 0 1 .876-1.45M89.48 121.199l6.535-3.792c.484-.281.877-.082.881.44a1.87 1.87 0 0 1-.873 1.454l-6.539 3.791c-.487.277-.877.078-.877-.444a1.88 1.88 0 0 1 .873-1.449M100.648 114.753l6.531-3.795c.484-.281.881-.082.881.444a1.85 1.85 0 0 1-.869 1.449l-6.543 3.792c-.483.277-.873.082-.873-.44a1.87 1.87 0 0 1 .873-1.45M111.824 108.308l6.531-3.792c.483-.281.877-.082.881.44a1.86 1.86 0 0 1-.869 1.454l-6.543 3.784c-.483.28-.877.082-.877-.441a1.89 1.89 0 0 1 .877-1.445M122.985 101.855l6.531-3.792c.484-.28.877-.082.881.444a1.84 1.84 0 0 1-.873 1.45l-6.539 3.792c-.483.276-.877.081-.877-.441a1.88 1.88 0 0 1 .877-1.453M134.154 95.41l6.531-3.796c.484-.277.877-.078.881.444a1.87 1.87 0 0 1-.873 1.442l-6.539 3.787c-.483.281-.877.082-.877-.44a1.875 1.875 0 0 1 .877-1.438" style="fill:#f7921e;fill:color(display-p3 .9686 .5725 .1176);fill-opacity:1"/><path fill="#E0E0E0" d="m142.361 100.475-.089 54.381-75.915 43.883v-54.381l75.989-43.883m.779-1.352-77.548 44.783v56.185l77.474-44.783.094-56.185z" style="fill:#e0e0e0;fill:color(display-p3 .8784 .8784 .8784);fill-opacity:1"/><path fill="#E0E0E0" d="M76.644 193.708a.39.39 0 0 1-.39-.39v-55.433a.39.39 0 1 1 .78 0v55.433a.39.39 0 0 1-.39.39M87.715 187.309a.39.39 0 0 1-.39-.389l.024-55.434a.389.389 0 0 1 .779 0l-.023 55.434a.39.39 0 0 1-.39.389M98.782 180.914a.39.39 0 0 1-.39-.389l.04-55.437a.39.39 0 1 1 .779 0l-.039 55.437a.39.39 0 0 1-.39.389M109.85 174.516a.39.39 0 0 1-.39-.39l.051-55.437a.39.39 0 1 1 .779 0l-.051 55.433a.38.38 0 0 1-.112.278.39.39 0 0 1-.277.116M120.915 168.117a.39.39 0 0 1-.39-.389l.067-55.434a.39.39 0 0 1 .779 0l-.066 55.434a.39.39 0 0 1-.39.389M131.983 161.719a.39.39 0 0 1-.389-.39l.078-55.433a.39.39 0 1 1 .779 0l-.078 55.437a.39.39 0 0 1-.39.386" style="fill:#e0e0e0;fill:color(display-p3 .8784 .8784 .8784);fill-opacity:1"/><path fill="#E0E0E0" d="M66.032 158.067a.4.4 0 0 1-.339-.195.39.39 0 0 1 .145-.53l76.717-44.292a.39.39 0 0 1 .294-.038.38.38 0 0 1 .286.323.39.39 0 0 1-.19.389l-76.714 44.292a.4.4 0 0 1-.199.051M66.032 172.115a.388.388 0 0 1-.195-.728l76.718-44.292a.387.387 0 0 1 .518.15.39.39 0 0 1-.128.524l-76.714 44.292a.36.36 0 0 1-.199.054M66.032 186.16a.4.4 0 0 1-.339-.195.39.39 0 0 1 .145-.53l76.717-44.296a.4.4 0 0 1 .434.029.392.392 0 0 1-.044.649l-76.714 44.292a.4.4 0 0 1-.199.051" style="fill:#e0e0e0;fill:color(display-p3 .8784 .8784 .8784);fill-opacity:1"/><path fill="#000" d="M121.941 113.129v13.872l11.496-6.636v-13.873z" opacity=".1" style="fill:#000;fill-opacity:1"/><path fill="#F7921E" d="M136.309 119.609s-.561.951-2.568 2.108l-10.132 5.846-1.215-12.057 11.491-6.625.643 6.979c.117 1.107.289 2.763 1.781 3.749M133.897 108.85l-11.492 6.636v-2.127l11.492-6.637z" style="fill:#f7921e;fill:color(display-p3 .9686 .5725 .1176);fill-opacity:1"/><path fill="#000" d="m133.897 108.85-11.492 6.636v-2.127l11.492-6.637z" opacity=".1" style="fill:#000;fill-opacity:1"/><path fill="#455A64" d="M132.755 114.765a8 8 0 0 0-.265-.955c0-.035-.024-.07-.039-.105a.93.93 0 0 0-.164-1.029c-.047-.043-.164-.089-.199 0-.079.302-.054.622.07.908q-.138.316-.335.6a5 5 0 0 1-.389.515c-.18.191-.453.467-.733.475a.35.35 0 0 1-.347-.265c.086-.125.172-.249.246-.39.185-.28.317-.591.389-.919a.36.36 0 0 0-.103-.335.35.35 0 0 0-.341-.082c-.316.074-.425.495-.487.779a1.8 1.8 0 0 0 0 .842 2.2 2.2 0 0 1-.242.315 1 1 0 0 1-.117.09.4.4 0 0 0 0-.101c0-.094-.14-.238-.237-.164-.25.199-.3.518-.456.78a.6.6 0 0 1-.137.167c-.066.059-.074.066-.105 0a2 2 0 0 0-.156-.39c-.046-.078-.206-.152-.269-.05q-.142.231-.21.495a.38.38 0 0 0-.288-.128.4.4 0 0 0-.289.128 3.3 3.3 0 0 0-.51.728 2 2 0 0 1-.133.211l-.043.058a.1.1 0 0 1 0-.05 5 5 0 0 1 0-.651v-.039c0-.156-.339-.242-.339-.063a1 1 0 0 0 0 .078 1.94 1.94 0 0 1-.892 1.415c-.144.105-.503.366-.694.269-.191-.098-.14-.39-.132-.53.031-.476.164-.94.39-1.36.104-.207.26-.384.452-.515a.55.55 0 0 1 .413-.077c.183.066.163.276.117.428-.02.063.077.203.128.109.281-.514-.187-.978-.725-.779-.537.199-.779.725-.923 1.196-.144.472-.335 1.049-.129 1.501.246.545.881.323 1.263.066a2.75 2.75 0 0 0 .826-.861.4.4 0 0 0 .07.085c.249.254.479.02.616-.21a3.8 3.8 0 0 1 .51-.779c.028-.028.063-.047.086-.074a1 1 0 0 1 .031.198c0 .148 0 .296.02.441.019.144.272.253.319.085q.091-.477.23-.943c.101.215.234.413.503.3s.354-.53.518-.806a.3.3 0 0 0 .07.089.25.25 0 0 0 .216.052.25.25 0 0 0 .104-.048 1 1 0 0 0 .296-.273l.031-.046a.68.68 0 0 0 .709.308c.386-.126.719-.375.947-.71q.276-.326.48-.701v.043q.152.526.206 1.071v.293a.988.988 0 0 0-1.122.37c-.238.292-.316.869.109 1.044.355.148.76-.156.99-.389.378-.464.308-1.158.195-1.715m-2.401-.803q.043-.179.129-.343a.3.3 0 0 1 .082-.113c.027-.023.128-.062.12-.066-.007-.004-.039.175-.054.222-.016.047-.063.164-.094.246q-.108.251-.249.487.013-.22.066-.433m1.559 2.545c-.172.093-.347.167-.366-.082-.032-.413.557-.916.958-.713a.9.9 0 0 1-.152.413c-.116.15-.262.275-.428.366zM125.729 119.734a6.3 6.3 0 0 1-.468 1.044c-.167.245-.459.44-.498.752 0 .043.05.152.105.101.276-.224.518-.487.721-.779v-.035c-.059.351-.129.697-.164 1.048s-.086.721-.128 1.08c-.043.358-.047.717-.113 1.06-.039.175.28.296.335.105a4 4 0 0 0 .05-.522c.02-.191.043-.39.067-.581q.07-.537.128-1.079.189-1.048.261-2.109c.016-.152-.23-.237-.296-.085M128.309 119.742a.85.85 0 0 0-.289-.293c-.113-.062-.311-.136-.432-.058a.1.1 0 0 0-.039-.031c-.39-.102-.635.23-.807.518q-.235.436-.389.908c-.203.538-.39 1.457.183 1.847.51.347 1.103.039 1.422-.39.335-.484.52-1.056.534-1.644a1.6 1.6 0 0 0-.183-.857m-.577 2.123c-.175.312-.526.714-.931.577-.234-.078-.285-.366-.293-.58-.006-.28.039-.559.133-.823q.141-.425.335-.83c.109-.23.3-.627.596-.654q.013.016.031.027.14.046.269.117a.5.5 0 0 1 .121.152c.085.187.125.391.117.596a2.9 2.9 0 0 1-.378 1.418M134.299 119.663c-.144-.311-.222-.654-.335-.978a1.66 1.66 0 0 0-.456-.81c-.066-.051-.199-.094-.249 0-.198.347-.33.727-.39 1.122a1.6 1.6 0 0 0-.183-.21.18.18 0 0 0-.23 0 .6.6 0 0 0-.148.202 1.2 1.2 0 0 0-.324-.444.18.18 0 0 0-.23 0c-.389.39-.288 1.107-.389 1.598a.6.6 0 0 1-.109.296c-.082.07-.11 0-.156-.082a1.6 1.6 0 0 1-.195-.573v-.226c0-.156-.351-.214-.347-.031.046.408-.046.819-.261 1.169-.105.16-.53.78-.713.39-.133-.261.07-.628.21-.846.155-.271.385-.491.663-.635.074-.043 0-.183-.078-.179-.413.019-.78.463-.959.779s-.343.822 0 1.134c.39.39.846 0 1.099-.327q.203-.268.327-.581v.027c.141.223.441.417.678.195s.223-.612.25-.884c0-.304.054-.605.16-.889.147.26.237.548.265.846.019.14.296.238.323.058.002-.223.04-.444.113-.654q.148.208.261.436c.063.109.335.187.312 0a2.37 2.37 0 0 1 .265-1.329q.173.298.261.632.119.426.292.833c.055.121.359.141.273-.039" style="fill:#455a64;fill:color(display-p3 .2706 .3529 .3922);fill-opacity:1"/><path fill="#37474F" d="M120.702 113.958c.029-.469.168-.926.405-1.332s.568-.75.963-1.006a.95.95 0 0 1 .99-.081l.619.366-.249.444v.047a3 3 0 0 1-1.368 2.357l-.284.499-.675-.389h-.023a.96.96 0 0 1-.378-.905" style="fill:#37474f;fill:color(display-p3 .2157 .2784 .3098);fill-opacity:1"/><path fill="#455A64" d="M124.109 112.777a3.02 3.02 0 0 1-1.368 2.358c-.756.437-1.368.09-1.368-.779a3.01 3.01 0 0 1 1.368-2.338c.752-.452 1.368-.106 1.368.759" style="fill:#455a64;fill:color(display-p3 .2706 .3529 .3922);fill-opacity:1"/><path fill="#000" d="M89.435 160.612v13.873l11.491-6.637v-13.873z" opacity=".1" style="fill:#000;fill-opacity:1"/><path fill="#F7921E" d="M103.799 167.076s-.562.951-2.565 2.109l-10.131 5.845-1.216-12.08 11.496-6.625.643 6.979c.109 1.146.272 2.806 1.773 3.772" style="fill:#f7921e;fill:color(display-p3 .9686 .5725 .1176);fill-opacity:1"/><path fill="#F7921E" d="m101.39 156.333-11.496 6.636v-2.128l11.496-6.636z" style="fill:#f7921e;fill:color(display-p3 .9686 .5725 .1176);fill-opacity:1"/><path fill="#000" d="m101.39 156.333-11.496 6.636v-2.128l11.496-6.636z" opacity=".1" style="fill:#000;fill-opacity:1"/><path fill="#455A64" d="m99.99 163.943.11-.023c.164-.023.043-.257-.086-.249h-.113q-.05-.124-.101-.254a6.2 6.2 0 0 0-1.123-1.948c-.074-.078-.253-.102-.257.043a6.7 6.7 0 0 1-.284 1.558 2 2 0 0 0-.12-.491c-.044-.117-.282-.218-.297-.027a.96.96 0 0 0 .097.53 7.5 7.5 0 0 1-.21 2.256c-.094.304-.265.741-.659.593q.034-.149.055-.273c.164-.803.456-2.163-.557-2.533a.11.11 0 0 0-.137.039 3.05 3.05 0 0 0-.202 1.446c-.026.52.154 1.03.502 1.418a.66.66 0 0 1-.226.351c-.304.21-.701-.292-.853-.495-.047-.062-.172-.144-.25-.07-.33.3-.35.803-.327 1.27a.18.18 0 0 0-.187-.039.67.67 0 0 0-.39.643c-.179-.315-.417-.53-.76-.304a.93.93 0 0 0-.39.499 1.75 1.75 0 0 0-.428-.998.63.63 0 0 0-.861 0c-.23.297-.352.665-.343 1.041-.013.196.005.394.055.584.02.063.042.16.12.172s.106-.059.082-.129c-.113-.354.067-1.796.678-1.558.328.132.37.798.417 1.091.09.557.215 1.11.308 1.664.031.171.335.245.34.031 0-.628-.3-1.43.085-1.995.047-.071.167-.23.265-.195.097.035.148.199.187.276.113.238.175.499.296.733.066.129.323.203.323 0 0-.319-.194-.927.055-1.204q.087.151.164.308c.05.105.327.206.32 0 0-.448-.153-1.134.108-1.559.25.277.589.585.959.534.273-.039.41-.261.495-.511a.674.674 0 0 0 .88-.288 3.6 3.6 0 0 0 .39-1.621q.04-.46.028-.92a.6.6 0 0 0 .156 0 .109.109 0 0 0 .105-.078q.22-.684.296-1.399c.322.454.584.948.78 1.469a10 10 0 0 1 .136.355 1.17 1.17 0 0 0-.838.994 1.25 1.25 0 0 0 .748 1.099c.507.183.713-.367.698-.78a4.2 4.2 0 0 0-.238-1.056m-3.635.869a2.8 2.8 0 0 1 .132-1.364c.57.351.32 1.431.223 1.949-.02.097-.035.218-.055.343a1.95 1.95 0 0 1-.3-.928m3.355.78c-.206.054-.39-.23-.495-.39-.288-.495.063-.959.519-1.169.102.296.169.604.198.916.012.195.016.58-.222.643M100.463 161.122a7.5 7.5 0 0 0-.503-1.134c-.101-.195-.206-.39-.3-.585-.093-.194-.164-.366-.257-.537-.055-.098-.292-.168-.285 0q.033.31.152.6c.078.199.164.39.25.592q.261.542.46 1.111c.058.191.077.471.342.452.265-.02.203-.316.141-.499M101.191 162.821a.4.4 0 0 0-.055-.148.2.2 0 0 0-.105-.124l-.082-.059-.055-.031a.2.2 0 0 0-.064-.013.2.2 0 0 0-.064.013.1.1 0 0 0-.039.027.13.13 0 0 0-.02.063.2.2 0 0 0 0 .066 1 1 0 0 0-.035.078v.093a.2.2 0 0 0 0 .082.27.27 0 0 0 .117.16.55.55 0 0 0 .222.07c.046.01.093.001.133-.023l.031-.028a.12.12 0 0 0 .031-.078q.007-.075-.015-.148" style="fill:#455a64;fill:color(display-p3 .2706 .3529 .3922);fill-opacity:1"/><path fill="#37474F" d="M88.195 161.446a3.01 3.01 0 0 1 1.368-2.358.935.935 0 0 1 .99-.078l.623.37-.253.441v.047a2.99 2.99 0 0 1-1.364 2.357l-.28.499-.679-.39h-.023a.95.95 0 0 1-.382-.888" style="fill:#37474f;fill:color(display-p3 .2157 .2784 .3098);fill-opacity:1"/><path fill="#455A64" d="M91.598 160.265a3 3 0 0 1-1.368 2.338c-.752.436-1.368.09-1.368-.779a3.01 3.01 0 0 1 1.368-2.358c.756-.417 1.368-.07 1.368.799" style="fill:#455a64;fill:color(display-p3 .2706 .3529 .3922);fill-opacity:1"/><path fill="#F7921E" d="m115.239 147.822 20.829-12.029c1.387-.799 2.513-.269 2.513 1.169s-1.126 3.285-2.513 4.084l-20.829 12.025c-1.387.803-2.513.273-2.513-1.169 0-1.441 1.126-3.281 2.513-4.08M85.623 186.074a.73.73 0 0 1-.39-.105l-6.624-3.831a.8.8 0 0 1-.388-.474.78.78 0 0 1 .281-.84.78.78 0 0 1 .886-.034l6.625 3.83a.782.782 0 0 1 .084 1.292.78.78 0 0 1-.474.162" style="fill:#f7921e;fill:color(display-p3 .9686 .5725 .1176);fill-opacity:1"/><path fill="#F7921E" d="M79.278 189.402a.78.78 0 0 1-.682-1.169l5.872-10.623a.78.78 0 1 1 1.364.756l-5.872 10.619a.78.78 0 0 1-.682.417" style="fill:#f7921e;fill:color(display-p3 .9686 .5725 .1176);fill-opacity:1"/><path fill="#F28F8F" d="M120.707 161.866a2.15 2.15 0 0 0-.627-1.438 2.78 2.78 0 0 0-1.516-.67 4.77 4.77 0 0 0-2.471.39 6.6 6.6 0 0 0-1.804 1.235c-.242.218-.483.436-.741.635-.136.105.063.32.195.242.585-.343 1.099-.78 1.668-1.142a5.2 5.2 0 0 1 2.058-.779c.993-.145 2.307.132 2.583 1.247a4.2 4.2 0 0 1-.066 1.687 7.2 7.2 0 0 1-.522 1.648 7.9 7.9 0 0 1-2.085 2.728 6.3 6.3 0 0 1-2.677 1.493 4.07 4.07 0 0 1-2.553-.238 2.1 2.1 0 0 1-.869-.756 2.6 2.6 0 0 1-.323-1.379 7 7 0 0 1 .842-3.356 9.54 9.54 0 0 1 5.303-4.524c.308-.101.628-.191.943-.273a.2.2 0 0 0 .092-.094.2.2 0 0 0 .017-.13.21.21 0 0 0-.187-.165 7.8 7.8 0 0 0-3.674 1.508 10.2 10.2 0 0 0-2.783 2.996 7.8 7.8 0 0 0-1.169 3.663c-.05 1.088.148 2.179 1.099 2.833a4.24 4.24 0 0 0 2.841.597 6.16 6.16 0 0 0 2.977-1.321 8.9 8.9 0 0 0 2.525-2.904 7.26 7.26 0 0 0 .924-3.733M71.488 143.769l.803 1.703a.12.12 0 0 0 .122.079.1.1 0 0 0 .05-.013l1.792-.685c.187-.071.26.191.124.444l-1.293 2.435a.54.54 0 0 0-.067.308l.304 2.202c.036.23-.163.534-.33.511l-1.602-.199a.25.25 0 0 0-.121.036.25.25 0 0 0-.09.088l-1.605 2.054c-.168.214-.363.137-.332-.132l.308-2.557a.24.24 0 0 0-.066-.23l-1.298-.935c-.132-.097-.058-.448.129-.592l1.793-1.384a.54.54 0 0 0 .171-.265l.799-2.626c.086-.269.327-.405.409-.242" style="fill:#f28f8f;fill:color(display-p3 .949 .5608 .5608);fill-opacity:1"/><path fill="#455A64" d="m89.442 133.637 6.087-3.507c.257-.148.468-.043.468.238a1 1 0 0 1-.468.779l-6.087 3.508c-.257.148-.467.042-.467-.238a1 1 0 0 1 .467-.78M89.442 136.128l4.197-2.424c.261-.152.468-.047.468.233a1 1 0 0 1-.468.78l-4.197 2.428c-.257.148-.467.042-.467-.238a1 1 0 0 1 .467-.779M111.205 133.353l6.083-3.507c.257-.148.468-.043.468.238a1.02 1.02 0 0 1-.468.779l-6.083 3.507c-.261.148-.468.043-.468-.238a1 1 0 0 1 .141-.445 1 1 0 0 1 .327-.334M111.205 135.855l4.197-2.424c.257-.148.468-.043.468.238a1.01 1.01 0 0 1-.468.779l-4.197 2.424c-.261.152-.468.043-.468-.234a1 1 0 0 1 .468-.783M68.129 172.271l6.083-3.507c.26-.152.467-.043.467.234a1 1 0 0 1-.467.779l-6.083 3.508c-.261.152-.468.042-.468-.234a1 1 0 0 1 .468-.78M68.129 174.773l4.197-2.424c.257-.148.467-.043.467.238a1.01 1.01 0 0 1-.467.779l-4.197 2.424c-.261.148-.468.043-.468-.238a1 1 0 0 1 .468-.779M122.611 154.883l6.083-3.507c.261-.152.468-.043.468.234a1 1 0 0 1-.468.779l-6.083 3.508c-.261.152-.467.042-.467-.234a1 1 0 0 1 .467-.78M122.611 157.385l4.197-2.424c.257-.148.468-.043.468.238a1.001 1.001 0 0 1-.468.779l-4.197 2.424c-.261.148-.467.043-.467-.237a.98.98 0 0 1 .467-.78" style="fill:#455a64;fill:color(display-p3 .2706 .3529 .3922);fill-opacity:1"/><path fill="#F7921E" d="m87.738 145.211 8.258-4.832-8.308 13.596z" style="fill:#f7921e;fill:color(display-p3 .9686 .5725 .1176);fill-opacity:1"/><path fill="#000" d="m87.738 145.211 8.258-4.832-8.308 13.596z" opacity=".3" style="fill:#000;fill-opacity:1"/><path fill="#F7921E" d="m58.106 150.028 5.12-2.966c.27-.156.492-.047.492.25a1.03 1.03 0 0 1-.487.814l-5.125 2.965c-.273.156-.49.043-.49-.249a1.05 1.05 0 0 1 .49-.814M58.106 152.284l3.776-2.186c.27-.156.491-.047.495.249a1.05 1.05 0 0 1-.49.815l-3.78 2.182c-.273.16-.492.047-.492-.246a1.05 1.05 0 0 1 .491-.814M58.106 164.053l5.12-2.966c.27-.156.492-.047.492.249a1.03 1.03 0 0 1-.487.815l-5.125 2.965c-.273.156-.49.047-.49-.249a1.06 1.06 0 0 1 .49-.814M58.106 166.309l3.776-2.186c.27-.156.491-.047.495.249a1.05 1.05 0 0 1-.49.814l-3.78 2.187c-.273.156-.492.043-.492-.25a1.05 1.05 0 0 1 .491-.814M58.106 178.105l5.12-2.966c.27-.156.492-.047.492.25a1.03 1.03 0 0 1-.487.814l-5.125 2.966c-.273.156-.49.042-.49-.25a1.05 1.05 0 0 1 .49-.814M58.106 180.361l3.776-2.186c.27-.156.491-.047.495.249a1.05 1.05 0 0 1-.49.815l-3.78 2.182c-.273.156-.492.047-.492-.246a1.05 1.05 0 0 1 .491-.814M58.106 192.122l5.12-2.966c.27-.16.492-.047.492.246a1.03 1.03 0 0 1-.487.818l-5.125 2.966c-.273.155-.49.042-.49-.25a1.05 1.05 0 0 1 .49-.814M58.106 194.378l3.776-2.186c.27-.16.491-.047.495.249a1.05 1.05 0 0 1-.49.815l-3.78 2.182c-.273.156-.492.047-.492-.246a1.05 1.05 0 0 1 .491-.814" style="fill:#f7921e;fill:color(display-p3 .9686 .5725 .1176);fill-opacity:1"/><g fill="#000" opacity=".4"><path d="m58.106 152.284 3.776-2.186c.27-.156.491-.047.495.249a1.05 1.05 0 0 1-.49.815l-3.78 2.182c-.273.16-.492.047-.492-.245a1.05 1.05 0 0 1 .491-.815M58.106 166.309l3.776-2.186c.27-.156.491-.047.495.25a1.05 1.05 0 0 1-.49.814l-3.78 2.186c-.273.156-.492.043-.492-.249a1.05 1.05 0 0 1 .491-.815M58.106 180.362l3.776-2.187c.27-.155.491-.046.495.25a1.05 1.05 0 0 1-.49.814l-3.78 2.182c-.273.156-.492.047-.492-.245a1.05 1.05 0 0 1 .491-.814M58.106 194.378l3.776-2.186c.27-.16.491-.047.495.25a1.05 1.05 0 0 1-.49.814l-3.78 2.182c-.273.156-.492.047-.492-.245a1.05 1.05 0 0 1 .491-.815" style="fill:#000;fill-opacity:1"/></g><path fill="#FAFAFA" d="M190.382 125.41c0 4.06-1.413 8.555-3.707 12.549a30 30 0 0 1-1.152 1.869 30 30 0 0 1-1.275 1.756c-.44.568-.794.988-1.208 1.454q-.3.339-.599.655a22.2 22.2 0 0 1-4.885 3.933c-.848.495-1.743.905-2.672 1.223-.297.098-.594.179-.886.251a7.7 7.7 0 0 1-4.572-.143c-2.868-1.06-4.695-4.127-4.7-8.735 0-8.192 5.744-18.13 12.83-22.216 7.086-4.085 12.826-.778 12.826 7.404" style="fill:#fafafa;fill:color(display-p3 .9804 .9804 .9804);fill-opacity:1"/><path fill="#263238" d="M186.967 137.452q-.143.26-.287.512a16 16 0 0 1-.625 1.024l-.512.835a32 32 0 0 1-1.274 1.761l-.118.143-.691-3.809a9 9 0 0 1 3.507-.466" style="fill:#263238;fill:color(display-p3 .149 .1961 .2196);fill-opacity:1"/><path fill="#F7921E" d="m186.056 138.988-.512.835a33 33 0 0 1-1.275 1.761l-.118.143q-.529.685-1.096 1.316l-.594.65a22 22 0 0 1-4.884 3.932c-.848.496-1.743.906-2.673 1.224-.302.097-.594.179-.885.251a8.3 8.3 0 0 1-3.354.174 6.1 6.1 0 0 1-2.657-1.075c.138-1.06.425-1.889.891-2.268 1.689-1.331 5.857-5.791 9.769-6.784 1.536-.4 3.072-.845 4.792-1.229.921-.21 1.823.138 2.596 1.07" style="fill:#f7921e;fill:color(display-p3 .9686 .5725 .1176);fill-opacity:1"/><path fill="#fff" d="m186.056 138.988-.512.835a33 33 0 0 1-1.275 1.761l-.118.143q-.529.685-1.096 1.316l-.594.65a22 22 0 0 1-4.884 3.932c-.848.496-1.743.906-2.673 1.224-.302.097-.594.179-.885.251a8.3 8.3 0 0 1-3.354.174 6.1 6.1 0 0 1-2.657-1.075c.138-1.06.425-1.889.891-2.268 1.689-1.331 5.857-5.791 9.769-6.784 1.536-.4 3.072-.845 4.792-1.229.921-.21 1.823.138 2.596 1.07" opacity=".2" style="fill:#fff;fill-opacity:1"/><path fill="#263238" d="M171.699 125.635q.058.17.139.328c-1.716.783-3.072 2.795-.958 4.065-1.28 1.024-.706 2.56.65 3.169.236.282.036.697 0 1.065a1.14 1.14 0 0 0 .947 1.221c.188.03.379.014.559-.048-.093.614.343 1.572 1.126 1.536l-.128-1.664s-.21-1.464.543-1.792c.65-.149 1.321.133 1.981.153 2.412.267 4.424-1.443 5.811-3.241a.65.65 0 0 1 .395-.337c.783-.461.829-1.506.583-2.294a1.459 1.459 0 0 0 1.964-.354 1.46 1.46 0 0 0-.238-1.981 1.154 1.154 0 0 0 1.4-.341 1.16 1.16 0 0 0-.018-1.441.618.618 0 0 1-1.024.589c-.317-.307-.215-.829-.097-1.254a1.25 1.25 0 0 0-.154-1.25c-.373-.645-1.761-1.024-2.616-.512a1.86 1.86 0 0 0-1.434-1.966c-1.177-.389-2.176.441-3.215.799-1.751-.64-3.794.364-3.814 2.366-1.885.097-3.047 1.269-2.402 3.184" style="fill:#263238;fill:color(display-p3 .149 .1961 .2196);fill-opacity:1"/><path fill="#FFA8A7" d="M172.253 136.188c.967.455 1.781-.871 1.781-.871l.482 6.354s.512 1.26 3.758 1.203c2.529-.041 4.347-1.536 2.38-3.169l-.102-1.935a9 9 0 0 0 1.889-.692c.891-.512 1.603-2.135 1.915-3.681.512-2.483.133-5.222-.788-9.569-1.5 1.561-4.757-.814-7.46 2.13.737 1.444-.323 4.096-1.29 4.664.312 1.255.153 1.859-.21 1.992-.64.235-1.07-.64-1.444-.978s-1.577-.63-2.12.937.359 3.22 1.209 3.615" style="fill:#ffa8a7;fill:color(display-p3 1 .6588 .6549);fill-opacity:1"/><path fill="#F28F8F" d="M180.552 137.77c-.512.092-2.427.143-3.113-.144a4.37 4.37 0 0 1-2.637-2.468 3.59 3.59 0 0 0 1.859 2.863 6.17 6.17 0 0 0 3.947.706z" style="fill:#f28f8f;fill:color(display-p3 .949 .5608 .5608);fill-opacity:1"/><path fill="#263238" d="m178.642 127.739-1.117 1.106a.96.96 0 0 1 .18-1.141.57.57 0 0 1 .477-.222.585.585 0 0 1 .46.257M183.312 126.787l-1.352-.077a.83.83 0 0 1 .799-.747.65.65 0 0 1 .567.545.7.7 0 0 1-.014.279" style="fill:#263238;fill:color(display-p3 .149 .1961 .2196);fill-opacity:1"/><path fill="#37474F" d="M178.028 130.105a.45.45 0 0 0 .172.388.45.45 0 0 0 .416.083.8.8 0 0 0 .512-.794.456.456 0 0 0-.375-.477.46.46 0 0 0-.218.011.79.79 0 0 0-.507.789M182.067 128.656a.468.468 0 0 0 .594.471.79.79 0 0 0 .512-.793.46.46 0 0 0-.371-.479.46.46 0 0 0-.218.013.79.79 0 0 0-.517.788" style="fill:#37474f;fill:color(display-p3 .2157 .2784 .3098);fill-opacity:1"/><path fill="#F28F8F" d="m180.004 128.497.804 3.712 1.823-1.3z" style="fill:#f28f8f;fill:color(display-p3 .949 .5608 .5608);fill-opacity:1"/><path fill="#B16668" d="m179.293 133.75 1.986.108a.95.95 0 0 1-.318.672.96.96 0 0 1-.706.234 1.023 1.023 0 0 1-.962-1.014" style="fill:#b16668;fill:color(display-p3 .6941 .4 .4078);fill-opacity:1"/><path fill="#F28F8F" d="M180.275 134.764a.9.9 0 0 0 .512-.107 1.187 1.187 0 0 0-1.075-.687q-.189.004-.369.062a1.055 1.055 0 0 0 .932.732" style="fill:#f28f8f;fill:color(display-p3 .949 .5608 .5608);fill-opacity:1"/><path fill="#263238" d="M170.645 149.274a6.1 6.1 0 0 1-3.523-1.828 18 18 0 0 1 1.756-1.536 8.25 8.25 0 0 1 1.767 3.364" style="fill:#263238;fill:color(display-p3 .149 .1961 .2196);fill-opacity:1"/><path fill="#F7921E" d="M183.286 116.962c-1.906.08-3.758.651-5.376 1.659-6.877 3.968-12.473 13.66-12.473 21.601 0 4.132 1.536 7.076 4.234 8.069.69.255 1.421.382 2.156.374a8.5 8.5 0 0 0 2.002-.256c.271-.061.548-.143.834-.236.89-.301 1.748-.69 2.56-1.162a21.3 21.3 0 0 0 4.721-3.804c.195-.205.394-.42.584-.635a29.8 29.8 0 0 0 3.553-4.961c2.33-4.065 3.615-8.397 3.615-12.201 0-5.212-2.448-8.448-6.39-8.448m0-.712c4.209 0 7.096 3.359 7.096 9.16 0 4.06-1.413 8.555-3.707 12.549-.358.635-.747 1.26-1.152 1.869a30 30 0 0 1-1.274 1.756c-.441.568-.794.988-1.209 1.454a17 17 0 0 1-.599.655 22.2 22.2 0 0 1-4.884 3.933c-.848.495-1.744.905-2.673 1.223-.297.098-.594.179-.886.251a9 9 0 0 1-2.171.277 6.8 6.8 0 0 1-2.401-.42c-2.867-1.06-4.695-4.127-4.7-8.735 0-8.192 5.745-18.13 12.831-22.216a11.6 11.6 0 0 1 5.729-1.756" style="fill:#f7921e;fill:color(display-p3 .9686 .5725 .1176);fill-opacity:1"/><path fill="#F7921E" d="M190.571 110.756c2.898-1.674 5.253-.317 5.253 3.026s-2.355 7.419-5.253 9.093-5.248.318-5.248-3.031c0-3.348 2.35-7.418 5.248-9.088" style="fill:#f7921e;fill:color(display-p3 .9686 .5725 .1176);fill-opacity:1"/><path fill="#fff" d="M190.571 110.756c2.898-1.674 5.253-.317 5.253 3.026s-2.355 7.419-5.253 9.093-5.248.318-5.248-3.031c0-3.348 2.35-7.418 5.248-9.088" opacity=".3" style="fill:#fff;fill-opacity:1"/><path fill="#fff" d="m189.629 120.065-1.991-3.18.983-1.142 1.172 1.885 2.852-3.328.814 1.295z" style="fill:#fff;fill-opacity:1"/><path fill="#FAFAFA" d="M190.382 88.54c0 4.06-1.413 8.55-3.707 12.55a29 29 0 0 1-1.152 1.864 32 32 0 0 1-1.275 1.761c-.44.568-.794.988-1.208 1.454l-.599.655a22.2 22.2 0 0 1-4.885 3.932 14.7 14.7 0 0 1-2.672 1.219c-.297.097-.594.184-.886.251a7.7 7.7 0 0 1-4.577-.138c-2.863-1.06-4.69-4.127-4.695-8.74 0-8.192 5.744-18.125 12.83-22.211s12.826-.778 12.826 7.403" style="fill:#fafafa;fill:color(display-p3 .9804 .9804 .9804);fill-opacity:1"/><path fill="#37474F" d="M170.45 92.627a11.5 11.5 0 0 0 .051 4.51c.315 1.48.436 2.995.358 4.506-.031.297-.061.65.169.845a.6.6 0 0 0 .743-.072c.186-.197.326-.433.409-.691.087 1.08.179 2.166.271 3.246-.007.376.099.745.303 1.06a1.53 1.53 0 0 0 1.679.287 4.607 4.607 0 0 0 2.801-3.072 9.04 9.04 0 0 0 .097-4.28 17.7 17.7 0 0 0-1.987-5.52 16.5 16.5 0 0 1-1.474-2.826 3.1 3.1 0 0 0-.512-1.127c-.139-.164-.261-.113-.441-.036a3.6 3.6 0 0 0-.512.256c-.321.202-.611.45-.86.738q-.387.435-.655.952-.27.517-.425 1.08a1 1 0 0 0-.015.143" style="fill:#37474f;fill:color(display-p3 .2157 .2784 .3098);fill-opacity:1"/><path fill="#FFBDA7" d="M186.675 101.09c-.359.635-.748 1.26-1.152 1.864a32 32 0 0 1-1.275 1.761l-1.142-3.282c1.546-.471 2.555-.712 3.569-.343" style="fill:#ffbda7;fill:color(display-p3 1 .7412 .6549);fill-opacity:1"/><path fill="#F7921E" d="M185.446 102.436a30 30 0 0 1-1.275 1.762c-.445.573-.793.988-1.208 1.454-.194.22-.399.44-.599.655a22 22 0 0 1-4.879 3.927c-.848.499-1.746.909-2.678 1.224-.297.097-.594.184-.881.251a14.7 14.7 0 0 0-1.382-6.047s1.065-.568 3.072-1.674a1 1 0 0 1 .066-.046c1.618-1.111 2.709-.912 5.689-2.187.051-.025-.364-.24-.313-.261l1.951-.583q1.272.68 2.437 1.525" style="fill:#f7921e;fill:color(display-p3 .9686 .5725 .1176);fill-opacity:1"/><path fill="#455A64" d="M175.534 100.568c-.241-.907-1.368-1.537-2.427-3.134-1.06-1.597-2.432-5.12-.267-6.748-.399-2.115 1.296-4.716 3.61-5.755 3.041-1.367 6.6-1.178 8.658 1.423 2.432 3.072-.082 6.006-.082 6.006z" style="fill:#455a64;fill:color(display-p3 .2706 .3529 .3922);fill-opacity:1"/><path fill="#FFBDA7" d="M184.714 97.22a4.2 4.2 0 0 1-.901 1.781c-.512.63-1.255.968-2.453 1.377l.036.819v2.002s1.449 1.705 1.536 2.955l-.599.655a13.94 13.94 0 0 1-6.722-2.186v-.133l-.067-1.373-.148-3.353-.026-.942a.9.9 0 0 1-.154.353 1.3 1.3 0 0 1-.512.415 1.44 1.44 0 0 1-1.218.066l-.087-.046a.4.4 0 0 1-.128-.066.4.4 0 0 1-.103-.062.5.5 0 0 1-.087-.061l-.082-.067a2.41 2.41 0 0 1-.722-2.795c.297-.712 1.101-1.336 1.705-1.096s.686.62.953 1.05 1.505-.886.645-3.113a4.04 4.04 0 0 0 1.234-3.584c.445-1.618 3.451-1.823 3.978-1.214.44-1.024.389-1.633 1.239-1.372s2.284.835 2.785 4.357a14.8 14.8 0 0 1-.102 5.632" style="fill:#ffbda7;fill:color(display-p3 1 .7412 .6549);fill-opacity:1"/><path fill="#B16668" d="m179.435 96.887 1.792.05a1.178 1.178 0 0 1-1.173 1.024c-.491-.02-.706-.475-.619-1.074" style="fill:#b16668;fill:color(display-p3 .6941 .4 .4078);fill-opacity:1"/><path fill="#F28F8F" d="M180.562 97.87a.79.79 0 0 0-.369-.578.78.78 0 0 0-.681-.063l-.087.041a.69.69 0 0 0 .63.707.97.97 0 0 0 .507-.108" style="fill:#f28f8f;fill:color(display-p3 .949 .5608 .5608);fill-opacity:1"/><path fill="#F0997A" d="m181.104 92.166.415 3.502 1.674-1.137z" style="fill:#f0997a;fill:color(display-p3 .9412 .6 .4784);fill-opacity:1"/><path fill="#263238" d="M182.922 92.335a.45.45 0 0 0 .147.407.46.46 0 0 0 .421.105.78.78 0 0 0 .584-.727.461.461 0 0 0-.564-.512.78.78 0 0 0-.588.727M178.769 93.743a.462.462 0 0 0 .563.512.79.79 0 0 0 .589-.727.46.46 0 0 0-.15-.405.47.47 0 0 0-.418-.107.78.78 0 0 0-.584.727" style="fill:#263238;fill:color(display-p3 .149 .1961 .2196);fill-opacity:1"/><path fill="#F0997A" d="M181.39 100.378a8 8 0 0 1-3.584-.164 3.55 3.55 0 0 1-1.679-1.392s-.123 1.136 1.572 1.925c1.321.619 3.717.456 3.717.456z" style="fill:#f0997a;fill:color(display-p3 .9412 .6 .4784);fill-opacity:1"/><path fill="#263238" d="m184.012 90.604-1.28.082a1.022 1.022 0 0 1 .834-.753c.354-.025.553.277.446.671M179.772 91.741l-1.397.932a.995.995 0 0 1 .476-1.055c.384-.256.799-.2.921.123" style="fill:#263238;fill:color(display-p3 .149 .1961 .2196);fill-opacity:1"/><path fill="#455A64" d="M182.154 87.118c.256 1.392-1.367 4.608-3.543 6.087s-3.584 1.183-3.584 1.183-.251-4.45 1.91-6.144c2.16-1.695 5.217-1.126 5.217-1.126" style="fill:#455a64;fill:color(display-p3 .2706 .3529 .3922);fill-opacity:1"/><path fill="#FFBDA7" d="M174.884 111.975c-.297.097-.594.184-.886.251a7.7 7.7 0 0 1-4.577-.138 4.9 4.9 0 0 1-1.418-1.122c1.571-3.717 2.401-4.423 4.541-5.304 1.449 1.06 2.099 4.675 2.34 6.313" style="fill:#ffbda7;fill:color(display-p3 1 .7412 .6549);fill-opacity:1"/><path fill="#F7921E" d="M183.286 80.093c-1.905.08-3.756.65-5.376 1.653-6.877 3.974-12.473 13.66-12.473 21.602 0 4.137 1.536 7.081 4.234 8.074a6.2 6.2 0 0 0 2.156.374 8.5 8.5 0 0 0 2.002-.256q.406-.1.834-.236c.89-.301 1.748-.69 2.56-1.162a21.2 21.2 0 0 0 4.721-3.809 29.556 29.556 0 0 0 1.766-2.053c.4-.507.845-1.137 1.245-1.721.399-.583.778-1.208 1.126-1.822 2.33-4.06 3.615-8.392 3.615-12.196 0-5.213-2.448-8.448-6.39-8.448m0-.712c4.209 0 7.096 3.353 7.096 9.16 0 4.06-1.413 8.55-3.707 12.549a29 29 0 0 1-1.152 1.864 31 31 0 0 1-1.274 1.761c-.441.568-.794.988-1.209 1.454l-.599.655a22.2 22.2 0 0 1-4.884 3.932 14.7 14.7 0 0 1-2.673 1.219c-.297.097-.594.184-.886.251a9 9 0 0 1-2.171.276 6.8 6.8 0 0 1-2.401-.414c-2.867-1.06-4.695-4.127-4.7-8.74 0-8.192 5.745-18.125 12.831-22.21a11.6 11.6 0 0 1 5.729-1.757" style="fill:#f7921e;fill:color(display-p3 .9686 .5725 .1176);fill-opacity:1"/><path fill="#FAFAFA" d="M190.571 76.012c2.903-1.674 5.253-.312 5.253 3.031s-2.355 7.42-5.253 9.093c-2.898 1.675-5.248.318-5.248-3.03 0-3.35 2.35-7.394 5.248-9.094" style="fill:#fafafa;fill:color(display-p3 .9804 .9804 .9804);fill-opacity:1"/><path fill="#E0E0E0" d="M188.226 89.084a5 5 0 0 0 2.463-.748c2.954-1.71 5.361-5.878 5.361-9.293 0-1.7-.584-2.98-1.649-3.584s-2.468-.512-3.942.369c-2.96 1.705-5.366 5.873-5.366 9.287 0 1.706.589 2.98 1.654 3.585.45.257.961.39 1.479.383m4.68-13.558c.439-.008.872.102 1.255.317.916.512 1.423 1.67 1.423 3.2 0 3.272-2.304 7.26-5.12 8.894-1.326.768-2.56.9-3.482.368-.921-.532-1.423-1.664-1.423-3.2 0-3.266 2.304-7.26 5.12-8.893a4.53 4.53 0 0 1 2.227-.686" style="fill:#e0e0e0;fill:color(display-p3 .8784 .8784 .8784);fill-opacity:1"/><path fill="#FAFAFA" d="M190.347 51.692c0 4.06-1.413 8.555-3.707 12.549a31 31 0 0 1-1.152 1.869c-.405.61-.835 1.188-1.275 1.756s-.794.988-1.208 1.454c-.2.22-.4.446-.599.655a22.2 22.2 0 0 1-4.885 3.933c-.848.495-1.743.905-2.673 1.223q-.446.145-.885.251a7.73 7.73 0 0 1-4.578-.143c-2.862-1.06-4.69-4.127-4.695-8.735 0-8.192 5.745-18.13 12.831-22.216 7.086-4.085 12.826-.778 12.826 7.404" style="fill:#fafafa;fill:color(display-p3 .9804 .9804 .9804);fill-opacity:1"/><path fill="#263238" d="m186.941 63.734-.286.512q-.294.523-.625 1.024c-.22.333-.353.558-.512.835a29 29 0 0 1-1.27 1.761l-.117.143-.692-3.809a9 9 0 0 1 3.502-.466" style="fill:#263238;fill:color(display-p3 .149 .1961 .2196);fill-opacity:1"/><path fill="#37474F" d="M186.03 65.27c-.174.277-.353.558-.512.835a30 30 0 0 1-1.269 1.76l-.118.144a23 23 0 0 1-1.096 1.316c-.194.215-.399.44-.594.645a22 22 0 0 1-4.884 3.938c-.848.495-1.744.905-2.673 1.223-.302.097-.594.18-.886.251a8.3 8.3 0 0 1-3.353.174 6.1 6.1 0 0 1-2.658-1.075c.139-1.06.425-1.89.891-2.268 1.69-1.331 2.652-2.176 3.497-2.785a12.7 12.7 0 0 1 6.247-4.004c1.536-.4 3.072-.845 4.792-1.23.942-.204 1.843.144 2.616 1.076" style="fill:#37474f;fill:color(display-p3 .2157 .2784 .3098);fill-opacity:1"/><path fill="#263238" d="M172.191 51.047c-1.679 2.77-1.06 6.339.164 8.704.548 1.05 1.377 3.006 1.833 4.198 0 0 2.944 1.106 9.411-8.243 1.172-1.69.512-5.755-1.065-7.265-2.217-2.15-7.035-2.652-10.343 2.606" style="fill:#263238;fill:color(display-p3 .149 .1961 .2196);fill-opacity:1"/><path fill="#C8856A" d="M172.226 62.47c.968.455 1.782-.871 1.782-.871l.466 6.354s0 .824 1.679 1.403c1.101.379 3.39.159 4.69 1.28.548-1.209.988-3.303-.23-4.65l-.103-1.934a9 9 0 0 0 1.89-.692 4.1 4.1 0 0 0 2.13-2.857c.21-.99.299-2.003.266-3.015a41 41 0 0 0-.876-5.822c-.107-.578-.742-1.904-1.254-2.114-1.29-.512-1.137 1.51-2.637 2.022s-5.734-.512-4.859 1.306a8.5 8.5 0 0 1-.368 4.971 3.4 3.4 0 0 1-.482.88c-.419.513-.803-.48-1.172-.818s-1.577-.63-2.12.937c-.543 1.566.374 3.225 1.198 3.62" style="fill:#c8856a;fill:color(display-p3 .7843 .5216 .4157);fill-opacity:1"/><path fill="#AF6152" d="M180.526 64.052c-1.142.261-3.318.174-4.173-.512a6.3 6.3 0 0 1-1.408-1.674c.142.89.582 1.707 1.249 2.314 1.746 1.377 4.388.824 4.388.824z" style="fill:#af6152;fill:color(display-p3 .6863 .3804 .3216);fill-opacity:1"/><path fill="#263238" d="M174.925 57.488c-.133.947.927 3.23 2.56 3.072 1.633-.159 1.94-1.224 3.384-1.602 1.285-.338 2.089.081 2.734-.18.51-.31.93-.747 1.219-1.27 0 0 .363 2.934-.323 4.383-.911 1.92-3.318 2.345-4.761 2.478a5.23 5.23 0 0 1-3.584-.855c-.912-.66-1.465-1.802-1.89-2.954s-1.106-2.621-1.106-2.621l1.716-.553M178.222 54.457l-1.116 1.106a.98.98 0 0 1 .184-1.147.57.57 0 0 1 .735-.144q.121.068.197.185M183.286 53.07l-1.352-.083a.83.83 0 0 1 .799-.742.65.65 0 0 1 .568.545.7.7 0 0 1-.015.28M177.746 56.412a.47.47 0 0 0 .375.48.5.5 0 0 0 .219-.009.8.8 0 0 0 .512-.793.46.46 0 0 0-.594-.466.79.79 0 0 0-.512.788M182.041 54.938a.47.47 0 0 0 .375.48.5.5 0 0 0 .219-.009.805.805 0 0 0 .512-.794.454.454 0 0 0-.589-.465.79.79 0 0 0-.517.788" style="fill:#263238;fill:color(display-p3 .149 .1961 .2196);fill-opacity:1"/><path fill="#AF6152" d="m179.907 55.046.809 3.722 1.817-1.3c-.701-1.09-1.833-2.197-2.626-2.422M179.686 60.201l1.992.108a.97.97 0 0 1-.322.668.96.96 0 0 1-.702.238 1.026 1.026 0 0 1-.968-1.014" style="fill:#af6152;fill:color(display-p3 .6863 .3804 .3216);fill-opacity:1"/><path fill="#F28F8F" d="M180.675 61.215a.9.9 0 0 0 .512-.108 1.2 1.2 0 0 0-1.076-.686 1.3 1.3 0 0 0-.373.062 1.045 1.045 0 0 0 .937.732" style="fill:#f28f8f;fill:color(display-p3 .949 .5608 .5608);fill-opacity:1"/><path fill="#263238" d="M180.859 70.636c-.716-.287-2.616-.691-2.77-.113-.107.41-.414 1.88-.947 1.992a4.86 4.86 0 0 1-3.911-1.47 2.95 2.95 0 0 1-.876-1.617s.63-1.623 1.024-2.402c.394-.778.512-1.218.932-1.382l.118 1.341c.316.518.767.94 1.305 1.219 1.275.65 3.83 1.045 5.125 2.432" style="fill:#263238;fill:color(display-p3 .149 .1961 .2196);fill-opacity:1"/><path fill="#263238" d="M180.859 70.636c.389-.543 1.024-2.56 1.377-2.56.697-.04 1.178.405 1.178 0 0-.404-.512-1.167-1.157-2.207-.486-.798-1.254-1.356-1.71-1.32l.107 1.848c.212.486.335 1.006.364 1.536a6.4 6.4 0 0 1-.159 2.703M170.619 75.556a6.1 6.1 0 0 1-3.522-1.828 18 18 0 0 1 1.756-1.536 8.25 8.25 0 0 1 1.766 3.364" style="fill:#263238;fill:color(display-p3 .149 .1961 .2196);fill-opacity:1"/><path fill="#F7921E" d="M183.26 43.244c-1.905.08-3.757.651-5.376 1.659-6.876 3.968-12.472 13.66-12.472 21.601 0 4.132 1.536 7.076 4.234 8.07.69.254 1.42.38 2.156.373a8.5 8.5 0 0 0 2.002-.256q.405-.095.834-.236c.89-.3 1.748-.69 2.56-1.162a21.3 21.3 0 0 0 4.721-3.804c.194-.205.394-.42.583-.635a29 29 0 0 0 2.427-3.144c.395-.588.779-1.208 1.127-1.817 2.329-4.065 3.614-8.397 3.614-12.201 0-5.212-2.447-8.448-6.389-8.448m0-.712c4.208 0 7.096 3.359 7.096 9.16 0 4.06-1.413 8.555-3.707 12.549a29.067 29.067 0 0 1-2.427 3.625c-.44.568-.793.988-1.208 1.454-.2.22-.399.446-.599.655a22.2 22.2 0 0 1-4.885 3.933c-.848.495-1.743.905-2.672 1.223q-.447.145-.886.251a9.1 9.1 0 0 1-2.171.277 6.8 6.8 0 0 1-2.406-.42c-2.862-1.06-4.69-4.127-4.695-8.735 0-8.192 5.744-18.13 12.83-22.216a11.6 11.6 0 0 1 5.73-1.756" style="fill:#f7921e;fill:color(display-p3 .9686 .5725 .1176);fill-opacity:1"/><path fill="#F7921E" d="M190.546 39.204c2.882-1.659 5.212-.317 5.212 3.006s-2.34 7.342-5.212 9.016c-2.873 1.674-5.213.312-5.213-3.005 0-3.318 2.335-7.373 5.213-9.017" style="fill:#f7921e;fill:color(display-p3 .9686 .5725 .1176);fill-opacity:1"/><path fill="#fff" d="M190.546 39.204c2.882-1.659 5.212-.317 5.212 3.006s-2.34 7.342-5.212 9.016c-2.873 1.674-5.213.312-5.213-3.005 0-3.318 2.335-7.373 5.213-9.017" opacity=".3" style="fill:#fff;fill-opacity:1"/><path fill="#fff" d="m189.629 48.615-1.991-3.175.983-1.141 1.172 1.879 2.852-3.328.814 1.295z" style="fill:#fff;fill-opacity:1"/></svg>