<svg xmlns="http://www.w3.org/2000/svg" width="257" height="256" fill="none"><path stroke="#D5D5D5" d="M47.185 213.554c-22.474-11.767-33.56-27.115-33.56-42.332s11.084-30.568 33.56-42.341c22.464-11.767 51.94-17.663 81.442-17.663 29.503 0 58.977 5.896 81.439 17.663 22.473 11.773 33.558 27.122 33.559 42.337s-11.083 30.564-33.559 42.336c-22.465 11.767-51.939 17.664-81.441 17.664s-58.976-5.897-81.44-17.664Z" style="stroke:#d5d5d5;stroke:color(display-p3 .8353 .8353 .8353);stroke-opacity:1"/><path fill="#F7921E" d="M107.096 25.606 51.534 57.694a6 6 0 0 0-2.996 4.967v129.074c0 2.035 1.27 4.413 2.81 5.306s4.23.795 5.995-.22l55.364-31.966a7.08 7.08 0 0 0 3.19-5.526V30.704c0-2.035-1.269-4.413-2.805-5.306s-4.231-.808-5.996.208" style="fill:#f7921e;fill:color(display-p3 .9686 .5725 .1176);fill-opacity:1"/><path fill="#fff" d="M107.096 25.606 51.534 57.694a6 6 0 0 0-2.996 4.967v129.074c0 2.035 1.27 4.413 2.81 5.306s4.23.795 5.995-.22l55.364-31.966a7.08 7.08 0 0 0 3.19-5.526V30.704c0-2.035-1.269-4.413-2.805-5.306s-4.231-.808-5.996.208" opacity=".3" style="fill:#fff;fill-opacity:1"/><path fill="#F7921E" d="M56.581 197.185c-1.692.664-3.892.63-5.234-.144-1.548-.893-2.805-3.27-2.805-5.306V62.662a5.74 5.74 0 0 1 .808-2.738l5.15 2.924a6.2 6.2 0 0 0-1.486 3.72v127.778c-.004 2.429 1.545 3.575 3.567 2.839" style="fill:#f7921e;fill:color(display-p3 .9686 .5725 .1176);fill-opacity:1"/><path fill="#000" d="M56.581 197.185c-1.692.664-3.892.63-5.234-.144-1.548-.893-2.805-3.27-2.805-5.306V62.662a5.74 5.74 0 0 1 .808-2.738l5.15 2.924a6.2 6.2 0 0 0-1.486 3.72v127.778c-.004 2.429 1.545 3.575 3.567 2.839" opacity=".25" style="fill:#000;fill-opacity:1"/><path fill="#F7921E" d="M55.824 61.68a6.24 6.24 0 0 0-2.814 4.874v127.779c0 2.75 1.947 3.876 4.329 2.501l55.372-31.97a7.07 7.07 0 0 0 3.19-5.526V30.713c0-2.027-1.434-2.856-3.19-1.845z" style="fill:#f7921e;fill:color(display-p3 .9686 .5725 .1176);fill-opacity:1"/><path fill="#F7921E" d="M58.71 69.567a6.71 6.71 0 0 0-3.034 5.255V184.74c0 1.934 1.354 2.716 3.03 1.752l52.093-30.079a6.74 6.74 0 0 0 3.033-5.251V41.243c0-1.925-1.366-2.716-3.033-1.751z" style="fill:#f7921e;fill:color(display-p3 .9686 .5725 .1176);fill-opacity:1"/><path fill="#000" d="M58.71 69.567a6.71 6.71 0 0 0-3.034 5.255V184.74c0 1.934 1.354 2.716 3.03 1.752l52.093-30.079a6.74 6.74 0 0 0 3.033-5.251V41.243c0-1.925-1.366-2.716-3.033-1.751z" opacity=".45" style="fill:#000;fill-opacity:1"/><path fill="#263238" d="M109.99 148.633V39.958L58.71 69.575a6.71 6.71 0 0 0-3.034 5.255v108.667l51.281-29.617a6.74 6.74 0 0 0 3.033-5.247" style="fill:#263238;fill:color(display-p3 .149 .1961 .2196);fill-opacity:1"/><path fill="#000" d="m80.415 51.67 9.232-5.328c.55-.321.995-.093.995.504a2.12 2.12 0 0 1-.995 1.654l-9.232 5.331c-.55.317-.999.093-.999-.503a2.15 2.15 0 0 1 .999-1.659M96.24 42.513c.516-.3.934-.06.934.537a2.06 2.06 0 0 1-.935 1.62c-.516.301-.935.06-.935-.54a2.06 2.06 0 0 1 .935-1.617M100.001 40.351c.516-.296.935-.055.935.542a2.07 2.07 0 0 1-.935 1.62c-.516.296-.935.055-.935-.541a2.07 2.07 0 0 1 .935-1.62M70.062 57.635c.516-.296.935-.055.935.541a2.07 2.07 0 0 1-.936 1.62c-.516.301-.935.056-.935-.54a2.07 2.07 0 0 1 .935-1.621M73.815 55.477c.516-.296.934-.055.934.542a2.07 2.07 0 0 1-.934 1.62c-.517.296-.936.055-.936-.541a2.07 2.07 0 0 1 .935-1.62" style="fill:#000;fill-opacity:1"/><path fill="#E0E0E0" d="M124.215 44.176 69.452 75.752a2.73 2.73 0 0 0-1.23 2.116v115.859a2.72 2.72 0 0 0 1.235 2.116l.77.423a2.74 2.74 0 0 0 2.466 0l54.763-31.627a2.73 2.73 0 0 0 1.232-2.116V46.743a2.727 2.727 0 0 0-1.236-2.115l-.77-.423a2.74 2.74 0 0 0-2.467-.03" style="fill:#e0e0e0;fill:color(display-p3 .8784 .8784 .8784);fill-opacity:1"/><path fill="#FAFAFA" d="M128.688 162.62c0 1.088-.762 1.777-1.693 2.319l-53.828 31.077c-.939.542-1.692.102-1.692-.986V80.296a3.39 3.39 0 0 1 1.692-2.936l53.815-31.116a1.14 1.14 0 0 1 1.54.423c.099.172.152.365.153.563z" style="fill:#fafafa;fill:color(display-p3 .9804 .9804 .9804);fill-opacity:1"/><path fill="#E0E0E0" d="M127.549 46.566a.663.663 0 0 1 .665.664v115.391c0 .736-.453 1.324-1.469 1.908l-53.819 31.077a1.1 1.1 0 0 1-.52.165c-.424 0-.47-.465-.47-.74V80.296a2.93 2.93 0 0 1 1.46-2.538l53.823-31.103a.7.7 0 0 1 .33-.089m0-.474c-.199 0-.394.052-.567.153l-53.823 31.09a3.38 3.38 0 0 0-1.693 2.936v114.76c0 .77.385 1.218.944 1.218.27-.01.532-.091.761-.232l53.816-31.078c.943-.541 1.692-1.231 1.692-2.318V47.231a1.14 1.14 0 0 0-1.13-1.139" style="fill:#e0e0e0;fill:color(display-p3 .8784 .8784 .8784);fill-opacity:1"/><path fill="#F0F0F0" d="M128.688 46.744v.486a1.15 1.15 0 0 0-.566-.975 1.13 1.13 0 0 0-1.127-.01l-53.836 31.09a3.3 3.3 0 0 0-1.261 1.277l-3.33-1.925c.212-.383.517-.707.889-.94l54.758-31.572a2.74 2.74 0 0 1 2.467 0l.77.424a2.712 2.712 0 0 1 1.236 2.145" style="fill:#f0f0f0;fill:color(display-p3 .9412 .9412 .9412);fill-opacity:1"/><path fill="#455A64" d="M81.972 79.056a.14.14 0 0 1 0-.08v-.398l-.622.36c-.034.021-.05 0-.05-.055v-.14a.4.4 0 0 1 0-.08.4.4 0 0 1 .02-.076l.66-1.803a1 1 0 0 1 .03-.072.1.1 0 0 1 .047-.038l.084-.05h.06a.2.2 0 0 1 0 .084v1.388l.135-.08h.055q.015.042 0 .084v.08a.2.2 0 0 1 0 .098.1.1 0 0 1-.055.06l-.135.08v.397a.3.3 0 0 1 0 .102.14.14 0 0 1-.06.059l-.105.06c-.034.033-.051.033-.064.02m.026-.846v-.99l-.453 1.248zM82.7 78.392a1.3 1.3 0 0 1-.182-.812 2.6 2.6 0 0 1 .182-1.02c.097-.26.28-.478.516-.622a.7.7 0 0 1 .245-.093.26.26 0 0 1 .195.03v.034a.3.3 0 0 1 0 .046l-.055.207a.1.1 0 0 1-.025.047h-.026a.35.35 0 0 0-.317.05.85.85 0 0 0-.351.424c-.092.24-.136.496-.127.753-.022.212.021.426.123.613.084.102.194.11.338.026a.75.75 0 0 0 .275-.246v-.643l-.258.148h-.055a.2.2 0 0 1 0-.088v-.09a.3.3 0 0 1 0-.1.15.15 0 0 1 .055-.06l.423-.237h.06q.014.05 0 .102v.922a.4.4 0 0 1 0 .08.1.1 0 0 1-.026.064c-.117.2-.285.367-.487.482-.199.135-.372.127-.503-.017M87.95 75.219a.95.95 0 0 1-.363.761c-.199.115-.36-.038-.36-.347a.95.95 0 0 1 .36-.761c.19-.114.364.042.364.347" style="fill:#455a64;fill:color(display-p3 .2706 .3529 .3922);fill-opacity:1"/><path fill="#455A64" d="M87.587 73.95a2.17 2.17 0 0 0-.847 1.269c-.033.114 0 .22.039.254.067.042.169-.047.211-.186.082-.358.291-.674.588-.889a.385.385 0 0 1 .593.207c.038.093.14.068.207-.055a.42.42 0 0 0 .038-.296.546.546 0 0 0-.83-.305" style="fill:#455a64;fill:color(display-p3 .2706 .3529 .3922);fill-opacity:1"/><path fill="#455A64" d="M87.587 73.078a3.4 3.4 0 0 0-1.27 1.832c-.042.118-.029.24.03.275.068.038.161-.043.208-.178a2.74 2.74 0 0 1 1.049-1.498.702.702 0 0 1 1.053.284c.043.084.14.055.208-.064a.37.37 0 0 0 .03-.309.847.847 0 0 0-1.308-.342M97.01 68.957a.09.09 0 0 1 0-.068.14.14 0 0 1 .025-.08l.516-.927.038-.068a.14.14 0 0 1 .047-.042l.186-.11a.04.04 0 0 1 .046 0 .08.08 0 0 1 0 .059v2.374a.2.2 0 0 1 0 .08.12.12 0 0 1-.046.055l-.195.11a.04.04 0 0 1-.046 0 .1.1 0 0 1 0-.06v-1.814l-.339.6a.1.1 0 0 1-.046.051.04.04 0 0 1-.047 0zM98.215 68.259a.15.15 0 0 1 0-.068.3.3 0 0 1 .026-.08l.516-.927.042-.063a.1.1 0 0 1 .042-.047l.187-.106a.034.034 0 0 1 .046 0q.01.03 0 .06V69.4a.2.2 0 0 1 0 .08.12.12 0 0 1-.046.056l-.195.114a.034.034 0 0 1-.042 0 .1.1 0 0 1-.021-.06v-1.819l-.339.605a.1.1 0 0 1-.046.047.04.04 0 0 1-.043 0zM99.802 67.239a.034.034 0 0 1 .042 0q.012.03 0 .06v.359a.2.2 0 0 1 0 .08.1.1 0 0 1-.042.055l-.224.131a.04.04 0 0 1-.047 0 .1.1 0 0 1 0-.059v-.36a.2.2 0 0 1 0-.08.1.1 0 0 1 .047-.055zm0 1.27a.034.034 0 0 1 .042 0 .08.08 0 0 1 0 .058v.36a.2.2 0 0 1 0 .08.12.12 0 0 1-.042.055l-.224.127a.034.034 0 0 1-.047 0 .1.1 0 0 1 0-.059v-.36a.2.2 0 0 1 0-.08.14.14 0 0 1 .047-.06zM101.076 68.348a.04.04 0 0 1-.024.009.03.03 0 0 1-.023-.01v-.499l-.74.424a.04.04 0 0 1-.024.009.03.03 0 0 1-.023-.01.1.1 0 0 1 0-.059v-.262a.4.4 0 0 1 0-.097l.038-.106.728-1.824a.33.33 0 0 1 .097-.148l.182-.106h.047a.08.08 0 0 1 0 .06v1.45l.203-.118a.04.04 0 0 1 .023-.008q.014 0 .023.008a.08.08 0 0 1 0 .06v.258a.2.2 0 0 1 0 .084.14.14 0 0 1-.046.055l-.203.119v.444a.2.2 0 0 1 0 .08.1.1 0 0 1-.047.055zm-.064-.965v-.787l-.423 1.024zM102.032 65.323a.2.2 0 0 1 .021-.08.1.1 0 0 1 .047-.056l.897-.516h.042a.1.1 0 0 1 .021.06v.262a.2.2 0 0 1-.021.08.1.1 0 0 1-.042.055l-.673.39-.025.481a.5.5 0 0 1 .126-.118 1 1 0 0 1 .106-.068.65.65 0 0 1 .246-.089.3.3 0 0 1 .199.047q.091.077.131.19a1 1 0 0 1 .046.339q0 .214-.046.423-.046.184-.136.351-.078.15-.199.27a1 1 0 0 1-.241.191.7.7 0 0 1-.283.106.27.27 0 0 1-.195-.046.32.32 0 0 1-.118-.165.7.7 0 0 1-.043-.246.15.15 0 0 1 0-.084.15.15 0 0 1 .047-.055l.19-.11a.1.1 0 0 1 .024-.007q.012 0 .023.007a.07.07 0 0 1 .025.046q.01.061.043.114a.14.14 0 0 0 .071.043.24.24 0 0 0 .094 0l.105-.051a.57.57 0 0 0 .216-.241.75.75 0 0 0 .085-.36.261.261 0 0 0-.085-.228.18.18 0 0 0-.216 0 .4.4 0 0 0-.114.084.4.4 0 0 0-.068.076l-.05.068a.2.2 0 0 1-.055.047l-.216.126a.04.04 0 0 1-.047 0 .08.08 0 0 1 0-.059zM75.11 83.317v-.766l.664-.385v.766zM76.104 82.742V81.21l.664-.38v1.531zM77.098 82.167v-2.294l.664-.385v2.298zM78.093 81.595v-3.063l.664-.385v3.063zM124.664 52.223c-.072-.106-.161-.131-.25-.08l-2.475 1.425a.95.95 0 0 0-.288.75v1.391a.8.8 0 0 0 .11.423q.037.061.102.093a.15.15 0 0 0 .144 0l2.475-1.425a.96.96 0 0 0 .288-.754v-1.379a.83.83 0 0 0-.106-.444m-2.835 3.753a.4.4 0 0 1-.038-.203V54.38a.73.73 0 0 1 .216-.576l2.475-1.434a.1.1 0 0 1 .08 0l.034.03q.046.096.038.203v1.392a.74.74 0 0 1-.22.575l-2.475 1.422q-.071.038-.11-.017" style="fill:#455a64;fill:color(display-p3 .2706 .3529 .3922);fill-opacity:1"/><path fill="#455A64" d="M122.472 53.776v1.65l-.389.22a.05.05 0 0 1-.05 0 .1.1 0 0 1-.019-.017.1.1 0 0 1-.007-.025V54.38a.57.57 0 0 1 .16-.423zM122.658 53.679l.466-.271v1.646l-.466.266zM123.302 53.306l.465-.27v1.654l-.465.266zM124.414 52.794v1.185a.62.62 0 0 1-.308.533l-.157.089v-1.663l.368-.216a.06.06 0 0 1 .075 0 .06.06 0 0 1 .022.072M124.863 52.62c.067-.037.122.162.122.424v.258c.02.21-.023.42-.122.605l-.127.085v-1.295zM117.894 56.83l2.408-2.14-.745 3.135-.351-1.303zM99.002 75.075q.063-.038.093 0 .045.055.06.123l.973 3.309a.352.352 0 0 1-.034.178.2.2 0 0 1-.076.092l-.284.165q-.084.046-.114 0a.2.2 0 0 1-.042-.076l-.17-.584-1.269.728-.173.779a.6.6 0 0 1-.043.127.25.25 0 0 1-.114.114l-.284.165a.06.06 0 0 1-.076 0 .14.14 0 0 1-.034-.097v-.047l.999-4.409a.8.8 0 0 1 .055-.186.24.24 0 0 1 .093-.11zm.22 2.56-.423-1.49-.423 1.998zM101.076 77.999a.3.3 0 0 1-.034.135.2.2 0 0 1-.076.093l-.301.174a.06.06 0 0 1-.076 0 .13.13 0 0 1-.034-.097v-4.02a.3.3 0 0 1 .034-.135.2.2 0 0 1 .076-.094l.301-.173a.06.06 0 0 1 .076 0 .14.14 0 0 1 .034.097zM101.621 76.256a3.4 3.4 0 0 1 .263-1.325q.12-.284.308-.529c.115-.148.259-.27.424-.36a.65.65 0 0 1 .393-.093.5.5 0 0 1 .309.161c.096.11.164.24.199.381q.073.274.067.559v.275q0 .07-.029.135a.2.2 0 0 1-.076.093l-1.329.766a.6.6 0 0 0 .038.224.25.25 0 0 0 .102.123.2.2 0 0 0 .144.025.5.5 0 0 0 .173-.059 1 1 0 0 0 .207-.16 1.2 1.2 0 0 0 .132-.178 1 1 0 0 1 .071-.11.2.2 0 0 1 .077-.06l.317-.186a.06.06 0 0 1 .076 0q.018.021.026.047a.1.1 0 0 1 .004.055.9.9 0 0 1-.059.253 2 2 0 0 1-.174.364 2.6 2.6 0 0 1-.283.385 1.6 1.6 0 0 1-.394.318.66.66 0 0 1-.423.114.42.42 0 0 1-.309-.16 1 1 0 0 1-.195-.424 2.6 2.6 0 0 1-.059-.635m.965-1.46a.9.9 0 0 0-.199.165q-.077.101-.135.216a1 1 0 0 0-.085.232q-.029.106-.038.216l.897-.52a1 1 0 0 0-.03-.174.3.3 0 0 0-.072-.144.2.2 0 0 0-.131-.059.4.4 0 0 0-.207.068M104.579 73.074a.3.3 0 0 1-.08-.064.2.2 0 0 1-.037-.063.2.2 0 0 1-.01-.072v-.52a.23.23 0 0 1 .026-.106.17.17 0 0 1 .059-.072.03.03 0 0 1 .025 0l1.396.639q.048.023.085.059c.025.04.035.088.03.135v.254a.5.5 0 0 1-.03.17q-.033.068-.085.156l-1.396 2.247a.1.1 0 0 1-.025.034h-.059a.1.1 0 0 1-.022-.036.1.1 0 0 1-.004-.04v-.521a.4.4 0 0 1 .047-.186q.043-.091.08-.157l.901-1.451z" style="fill:#455a64;fill:color(display-p3 .2706 .3529 .3922);fill-opacity:1"/><path fill="#F7921E" d="m76.556 88.758.902.423q.045.026.084.06a.19.19 0 0 1 .043.135v.52a.2.2 0 0 1-.026.106.13.13 0 0 1-.059.072h-.025l-1.392-.643a.16.16 0 0 1-.085-.06.2.2 0 0 1-.03-.13v-.259a.4.4 0 0 1 .03-.165.7.7 0 0 1 .084-.156l1.393-2.251a.1.1 0 0 1 .025-.03.04.04 0 0 1 .06 0 .1.1 0 0 1 .025.08v.521a.4.4 0 0 1-.043.182c-.03.064-.059.114-.084.16zM78.892 87.46a4.5 4.5 0 0 1 2.065-3.457L82.649 83c1.138-.673 2.06-.195 2.06 1.062a4.48 4.48 0 0 1-2.068 3.474l-1.693.973c-1.142.672-2.056.19-2.056-1.05M71.462 186.716v8.314c0 1.088.766 1.528 1.693.986l53.815-31.077c.943-.542 1.692-1.231 1.692-2.319v-8.944z" style="fill:#f7921e;fill:color(display-p3 .9686 .5725 .1176);fill-opacity:1"/><path fill="#fff" d="M71.462 186.716v8.314c0 1.088.766 1.528 1.693.986l53.815-31.077c.943-.542 1.692-1.231 1.692-2.319v-8.944z" opacity=".65" style="fill:#fff;fill-opacity:1"/><path fill="#fff" d="M78.892 186.877a2.07 2.07 0 0 0-.783 1.658c0 .665.351 1.003.783.754a2.08 2.08 0 0 0 .783-1.659c-.017-.664-.36-.999-.783-.753" style="fill:#fff;fill-opacity:1"/><path fill="#fff" d="m80.555 184.846-.597.343v-.309c0-.199-.101-.3-.233-.224l-1.68.994a.61.61 0 0 0-.236.495v.313l-.597.343a1.27 1.27 0 0 0-.482 1.028v3.042c0 .423.216.622.482.466l3.36-1.938a1.27 1.27 0 0 0 .486-1.028v-3.059c-.017-.411-.232-.622-.503-.466m-1.663 5.035c-.643.377-1.172-.131-1.172-1.125 0-.995.529-2.116 1.172-2.48s1.172.131 1.172 1.126-.542 2.111-1.172 2.479M86.652 180.471a5.13 5.13 0 0 0-2.327 4.024c0 1.485 1.04 2.086 2.327 1.345a5.15 5.15 0 0 0 2.323-4.028c0-1.48-1.041-2.085-2.323-1.341m1.27 2.416-.99.559v1.206a.3.3 0 0 1-.295.26.296.296 0 0 1-.294-.26v-.868l-.677.389a.25.25 0 0 1-.144.043.3.3 0 0 1-.254-.148.293.293 0 0 1 .106-.398l.969-.563V181.8a.296.296 0 0 1 .588 0v.973l.677-.394a.29.29 0 0 1 .4.108.295.295 0 0 1-.108.4z" style="fill:#fff;fill-opacity:1"/><path fill="#FAFAFA" d="m94.547 176.342 28.898-16.683c1.143-.66 2.069-.191 2.069 1.049a4.452 4.452 0 0 1-2.069 3.44l-28.898 16.687c-1.142.665-2.069.195-2.069-1.045a4.44 4.44 0 0 1 2.069-3.448" style="fill:#fafafa;fill:color(display-p3 .9804 .9804 .9804);fill-opacity:1"/><path fill="#F7921E" d="M123.577 160.264c.749-.423 1.354-.081 1.354.783a3 3 0 0 1-1.354 2.344c-.749.423-1.354.08-1.354-.783a2.99 2.99 0 0 1 1.354-2.344" style="fill:#f7921e;fill:color(display-p3 .9686 .5725 .1176);fill-opacity:1"/><path fill="#FAFAFA" d="m124.342 161.317-.639-.63a.2.2 0 0 0-.055-.03h-.105a.2.2 0 0 0-.051.021.14.14 0 0 0-.038.047l-.639 1.35a.2.2 0 0 0-.019.089.2.2 0 0 0 .028.088q.026.04.067.063a.2.2 0 0 0 .089.022.18.18 0 0 0 .165-.106l.288-.609v1.248a.18.18 0 0 0 .056.129.184.184 0 0 0 .258 0 .18.18 0 0 0 .054-.129v-1.633l.33.313a.185.185 0 0 0 .292-.143.2.2 0 0 0-.038-.124z" style="fill:#fafafa;fill:color(display-p3 .9804 .9804 .9804);fill-opacity:1"/><path fill="#E0E0E0" d="M116.646 80.466c0-2.048-1.439-2.882-3.216-1.858L85.239 94.89a7.1 7.1 0 0 0-3.216 5.564v7.286c0 2.078-.245 5.281-2.115 6.14 0 0 1.23.363 2.56-1.029a6.8 6.8 0 0 0 1.484-3.054 3.1 3.1 0 0 0 1.27-.423l28.208-16.282a7.1 7.1 0 0 0 3.216-5.564z" style="fill:#e0e0e0;fill:color(display-p3 .8784 .8784 .8784);fill-opacity:1"/><path fill="#FAFAFA" d="M85.979 99.15a.423.423 0 0 1-.212-.791l27.215-15.71a.42.42 0 0 1 .579.152.42.42 0 0 1-.031.471.4.4 0 0 1-.125.109L86.191 99.095a.4.4 0 0 1-.212.055M85.979 102.251a.42.42 0 0 1-.412-.313.42.42 0 0 1 .2-.478l17.187-9.9a.425.425 0 0 1 .423.736l-17.186 9.9a.4.4 0 0 1-.212.055M85.979 105.374a.43.43 0 0 1-.368-.212.423.423 0 0 1 .156-.575l17.187-9.905a.424.424 0 1 1 .423.736l-17.186 9.901a.43.43 0 0 1-.212.055" style="fill:#fafafa;fill:color(display-p3 .9804 .9804 .9804);fill-opacity:1"/><path fill="#455A64" d="M77.386 115.63c-.948.55-1.718-.034-1.718-1.299s.77-2.738 1.718-3.283c.948-.546 1.718.033 1.718 1.299 0 1.265-.77 2.737-1.718 3.283" style="fill:#455a64;fill:color(display-p3 .2706 .3529 .3922);fill-opacity:1"/><path fill="#FAFAFA" d="m77.987 113.053-1.21.69a.76.76 0 0 0-.322.559l-.085.74c.305.74 1.693-.165 1.989-1.269l-.06-.55c-.016-.187-.152-.263-.312-.17M77.957 112.029a1.37 1.37 0 0 1-.571 1.092c-.318.182-.572 0-.572-.423a1.37 1.37 0 0 1 .572-1.092c.313-.19.57 0 .57.423" style="fill:#fafafa;fill:color(display-p3 .9804 .9804 .9804);fill-opacity:1"/><path fill="#E0E0E0" d="M102.666 134.222c0-2.048-1.438-2.882-3.215-1.854l-14.212 8.2a7.1 7.1 0 0 0-3.216 5.564v1.633c0 2.078-.245 5.281-2.115 6.14 0 0 1.23.363 2.56-1.029a6.8 6.8 0 0 0 1.484-3.054 3.1 3.1 0 0 0 1.27-.424l14.229-8.204a7.1 7.1 0 0 0 3.215-5.564z" style="fill:#e0e0e0;fill:color(display-p3 .8784 .8784 .8784);fill-opacity:1"/><path fill="#455A64" d="M77.386 157.302c-.948.55-1.718-.034-1.718-1.299s.77-2.738 1.718-3.284 1.718.034 1.718 1.299-.77 2.742-1.718 3.284" style="fill:#455a64;fill:color(display-p3 .2706 .3529 .3922);fill-opacity:1"/><path fill="#FAFAFA" d="m77.987 154.73-1.21.689a.77.77 0 0 0-.322.559l-.085.74c.305.741 1.693-.165 1.989-1.269l-.06-.55c-.016-.186-.152-.262-.312-.169M77.957 153.705a1.37 1.37 0 0 1-.571 1.092c-.318.182-.572 0-.572-.423a1.37 1.37 0 0 1 .572-1.092c.313-.19.57.004.57.423M85.683 143.809a.425.425 0 0 1-.412-.314.424.424 0 0 1 .2-.477l13.608-7.832a.43.43 0 0 1 .48.019.422.422 0 0 1-.057.713l-13.608 7.845a.43.43 0 0 1-.211.046M85.683 146.509a.426.426 0 0 1-.412-.314.42.42 0 0 1 .2-.478l13.608-7.831a.42.42 0 0 1 .58.156.423.423 0 0 1-.157.576l-13.608 7.831a.4.4 0 0 1-.211.06" style="fill:#fafafa;fill:color(display-p3 .9804 .9804 .9804);fill-opacity:1"/><path fill="#E0E0E0" d="M116.646 142.87c0-2.052-1.439-2.882-3.216-1.858l-28.191 16.29a7.1 7.1 0 0 0-3.216 5.564v6.736c0 2.077-.245 5.28-2.115 6.139 0 0 1.23.364 2.56-1.028a6.8 6.8 0 0 0 1.484-3.055c.45-.045.883-.19 1.27-.423l28.208-16.281a7.1 7.1 0 0 0 3.216-5.564z" style="fill:#e0e0e0;fill:color(display-p3 .8784 .8784 .8784);fill-opacity:1"/><path fill="#455A64" d="M77.386 179.139c-.948.545-1.718-.038-1.718-1.299s.77-2.738 1.718-3.288 1.718.038 1.718 1.303-.77 2.734-1.718 3.284" style="fill:#455a64;fill:color(display-p3 .2706 .3529 .3922);fill-opacity:1"/><path fill="#FAFAFA" d="m77.987 176.558-1.21.694a.77.77 0 0 0-.322.558l-.085.736c.305.741 1.693-.16 1.989-1.269l-.06-.546c-.016-.19-.152-.266-.312-.173M77.957 175.538a1.37 1.37 0 0 1-.571 1.087c-.318.182-.572 0-.572-.423a1.36 1.36 0 0 1 .572-1.087c.313-.19.57 0 .57.423M85.979 161.258a.42.42 0 0 1-.412-.314.424.424 0 0 1 .2-.477l27.503-15.875a.42.42 0 0 1 .321-.044.42.42 0 0 1 .227.667.4.4 0 0 1-.125.109l-27.502 15.875a.4.4 0 0 1-.212.059M85.979 164.359a.42.42 0 0 1-.412-.313.42.42 0 0 1 .2-.478l27.503-15.845a.419.419 0 0 1 .48.018.4.4 0 0 1 .113.127q.043.075.054.161a.424.424 0 0 1-.224.426L86.191 164.3a.4.4 0 0 1-.212.059M85.979 167.482a.42.42 0 0 1-.412-.314.424.424 0 0 1 .2-.477l27.503-15.846a.43.43 0 0 1 .48.019.42.42 0 0 1 .167.287.44.44 0 0 1-.093.319.4.4 0 0 1-.131.107l-27.502 15.846a.4.4 0 0 1-.212.059" style="fill:#fafafa;fill:color(display-p3 .9804 .9804 .9804);fill-opacity:1"/><path fill="#F7921E" d="M131.75 95.106a.3.3 0 0 0-.156-.038h-.335v5.86l3.453-3.707a.31.31 0 0 0 .019-.382.3.3 0 0 0-.1-.092z" style="fill:#f7921e;fill:color(display-p3 .9686 .5725 .1176);fill-opacity:1"/><path fill="#fff" d="M131.75 95.106a.3.3 0 0 0-.156-.038h-.335v5.86l3.453-3.707a.31.31 0 0 0 .019-.382.3.3 0 0 0-.1-.092z" opacity=".3" style="fill:#fff;fill-opacity:1"/><path fill="#F7921E" d="m134.699 97.221-3.44 3.711v-4.231h3.216a.313.313 0 0 1 .224.52M131.259 93.235a3 3 0 0 0-1.358-2.348 3 3 0 0 0-2.712 0l-36.125 20.838a3 3 0 0 0-1.358 2.348v11.623a3 3 0 0 0 1.358 2.353 2.96 2.96 0 0 0 2.712 0l36.222-20.927c1.219-.694 1.232-1.392 1.232-2.256z" style="fill:#f7921e;fill:color(display-p3 .9686 .5725 .1176);fill-opacity:1"/><path fill="#000" d="M89.723 125.696a3 3 0 0 0 1.358 2.353 3.02 3.02 0 0 0 2.48.114c-.64.241-1.126-.123-1.126-.897v-11.627a2.8 2.8 0 0 1 .397-1.337l-2.712-1.566c-.244.405-.38.865-.397 1.337z" opacity=".2" style="fill:#000;fill-opacity:1"/><path fill="#fff" d="M131.2 92.85c-.157-.575-.681-.757-1.308-.397l-36.1 20.846a2.7 2.7 0 0 0-.955 1.011l-2.713-1.561c.228-.414.557-.764.957-1.015l36.091-20.86a3.01 3.01 0 0 1 2.716 0 3 3 0 0 1 1.312 1.976" opacity=".3" style="fill:#fff;fill-opacity:1"/><path fill="#FAFAFA" d="M98.164 115.563a.426.426 0 0 1-.412-.314.42.42 0 0 1 .2-.478l27.502-15.875a.424.424 0 0 1 .423.732l-27.502 15.88a.44.44 0 0 1-.211.055M98.164 118.664a.42.42 0 0 1-.412-.313.42.42 0 0 1 .2-.478l27.502-15.845a.425.425 0 0 1 .576.156c.055.097.07.212.042.319a.43.43 0 0 1-.195.257l-27.502 15.849a.4.4 0 0 1-.211.055M98.164 121.787a.426.426 0 0 1-.412-.314.42.42 0 0 1 .2-.478l27.502-15.845a.424.424 0 0 1 .576.156c.055.097.07.212.042.319a.43.43 0 0 1-.195.257l-27.502 15.85a.44.44 0 0 1-.211.055" style="fill:#fafafa;fill:color(display-p3 .9804 .9804 .9804);fill-opacity:1"/><path fill="#263238" d="m199.179 79.592-3.745-2.163a.34.34 0 0 1-.179-.159l-.661-1.204 2.209-1.283-.066.198z" style="fill:#263238;fill:color(display-p3 .149 .1961 .2196);fill-opacity:1"/><path fill="#37474F" d="m196.453 74.969 2.593 4.492a.39.39 0 0 0 .701-.067l2.739-7.938z" style="fill:#37474f;fill:color(display-p3 .2157 .2784 .3098);fill-opacity:1"/><path fill="#37474F" d="M208.712 51.006a4 4 0 0 0-1.813-3.143l-1.495-.853a4.02 4.02 0 0 0-3.625 0l-29.348 16.93a3.97 3.97 0 0 0-1.813 3.142v14.86a3.98 3.98 0 0 0 1.813 3.135l1.475.853a3.97 3.97 0 0 0 3.626 0l29.513-17.048c1.627-.927 1.641-1.86 1.641-3.017z" style="fill:#37474f;fill:color(display-p3 .2157 .2784 .3098);fill-opacity:1"/><path fill="#263238" d="M170.618 81.941a3.98 3.98 0 0 0 1.813 3.136l1.475.854a4.05 4.05 0 0 0 3.308.152c-.853.324-1.502-.166-1.502-1.198V70.026a3.64 3.64 0 0 1 .53-1.786l-5.101-2.944a3.6 3.6 0 0 0-.529 1.786z" style="fill:#263238;fill:color(display-p3 .149 .1961 .2196);fill-opacity:1"/><path fill="#455A64" d="M208.626 50.49c-.212-.768-.913-1.019-1.747-.536l-29.354 16.93c-.531.325-.971.78-1.277 1.323l-5.094-2.944a3.6 3.6 0 0 1 1.277-1.323l29.341-16.923a4.02 4.02 0 0 1 3.625 0l1.482.853c.455.294.844.679 1.144 1.13.301.45.506.957.603 1.49" style="fill:#455a64;fill:color(display-p3 .2706 .3529 .3922);fill-opacity:1"/><path fill="#F7921E" d="m180.588 71.098 20.959-12.16c.609-.35 1.098-.192 1.098.357a2.19 2.19 0 0 1-1.098 1.628l-20.959 12.16c-.608.35-1.098.192-1.098-.358a2.2 2.2 0 0 1 1.098-1.627M180.588 76.08l20.959-12.16c.609-.35 1.098-.192 1.098.357a2.19 2.19 0 0 1-1.098 1.628l-20.959 12.153c-.608.35-1.098.192-1.098-.357a2.19 2.19 0 0 1 1.098-1.621M151.207 85.077l-3.744-2.163a.32.32 0 0 1-.179-.159l-.661-1.197 2.222-1.324-.066.199z" style="fill:#f7921e;fill:color(display-p3 .9686 .5725 .1176);fill-opacity:1"/><path fill="#000" d="m151.207 85.077-3.744-2.163a.32.32 0 0 1-.179-.159l-.661-1.197 2.222-1.324-.066.199z" opacity=".2" style="fill:#000;fill-opacity:1"/><path fill="#F7921E" d="m148.508 80.453 2.593 4.492a.39.39 0 0 0 .702-.066l2.739-7.94z" style="fill:#f7921e;fill:color(display-p3 .9686 .5725 .1176);fill-opacity:1"/><path fill="#F7921E" d="M179.245 43.51a4.02 4.02 0 0 0-1.813-3.142l-1.475-.827a4.02 4.02 0 0 0-3.632 0l-34.839 20.092a4 4 0 0 0-1.813 3.142v17.122a4.01 4.01 0 0 0 1.813 3.143l1.475.827a4.03 4.03 0 0 0 3.626 0l35.031-20.251c1.627-.927 1.647-1.86 1.647-3.017z" style="fill:#f7921e;fill:color(display-p3 .9686 .5725 .1176);fill-opacity:1"/><path fill="#000" d="M135.673 79.897a4.01 4.01 0 0 0 1.813 3.142l1.475.827a4.09 4.09 0 0 0 3.308.152c-.853.318-1.508-.165-1.508-1.197V65.719a3.67 3.67 0 0 1 .536-1.786l-5.101-2.944a3.65 3.65 0 0 0-.536 1.786z" opacity=".2" style="fill:#000;fill-opacity:1"/><path fill="#fff" d="M179.186 42.987c-.212-.767-.913-1.019-1.754-.535l-34.845 20.125c-.531.325-.971.78-1.277 1.323l-5.094-2.944a3.54 3.54 0 0 1 1.277-1.323l34.832-20.092a4.02 4.02 0 0 1 3.625 0l1.482.853a3.96 3.96 0 0 1 1.754 2.593" opacity=".4" style="fill:#fff;fill-opacity:1"/><path fill="#fff" d="m145.65 70.516 18.835-10.91c.609-.35 1.098-.191 1.098.358a2.19 2.19 0 0 1-1.098 1.627l-18.835 10.91c-.609.35-1.098.192-1.098-.358a2.19 2.19 0 0 1 1.098-1.627M145.65 75.498l26.463-15.356c.602-.35 1.098-.192 1.098.357a2.2 2.2 0 0 1-1.098 1.628L145.65 77.482c-.609.344-1.098.186-1.098-.357a2.19 2.19 0 0 1 1.098-1.627M145.65 65.296l26.463-15.355c.602-.35 1.098-.192 1.098.357a2.2 2.2 0 0 1-1.098 1.628L145.65 67.275c-.609.35-1.098.191-1.098-.358a2.2 2.2 0 0 1 1.098-1.62" style="fill:#fff;fill-opacity:1"/></svg>