<svg xmlns="http://www.w3.org/2000/svg" width="256" height="256" fill="none"><path stroke="#D5D5D5" d="M46.56 218.407C24.086 206.639 13 191.291 13 176.074s11.084-30.567 33.56-42.34c22.464-11.767 51.94-17.664 81.442-17.664 29.503 0 58.977 5.897 81.439 17.664 22.473 11.773 33.558 27.121 33.559 42.336s-11.083 30.564-33.559 42.337C186.976 230.174 157.502 236.07 128 236.07s-58.976-5.896-81.44-17.663Z" style="stroke:#d5d5d5;stroke:color(display-p3 .8353 .8353 .8353);stroke-opacity:1"/><path fill="#455A64" d="M168.664 22.467c-.768-.415-1.761-.353-2.847.271L57.283 85.392a8.77 8.77 0 0 0-3.072 3.384l-4.372-2.53c.957-1.817 2.314-2.436 3.497-3.122L161.88 20.46c1.136-.65 2.166-.681 2.944-.21z" style="fill:#455a64;fill:color(display-p3 .2706 .3529 .3922);fill-opacity:1"/><path fill="#263238" d="M50.453 186.988c-.957-.537-1.567-1.807-1.567-3.615v-91.73c0-2.047.144-3.886.968-5.396l4.373 2.53c-.113.204-.22.42-.328.64s-.159.353-.225.511a.3.3 0 0 0-.031.082 6 6 0 0 0-.236.62 8 8 0 0 0-.2.65 4 4 0 0 0-.122.512 9.2 9.2 0 0 0-.256 2.12v91.725c0 1.827.62 3.107 1.587 3.635z" style="fill:#263238;fill:color(display-p3 .149 .1961 .2196);fill-opacity:1"/><path fill="#37474F" d="M165.817 22.733 56.3 85.868c-2.462 1.423-3.476 3.865-3.476 7.168v92.605c0 3.287 1.997 4.793 4.46 3.374l108.543-62.663c2.463-1.419 4.46-5.238 4.46-8.52v-91.73c-.01-3.282-2.028-4.792-4.47-3.369" style="fill:#37474f;fill:color(display-p3 .2157 .2784 .3098);fill-opacity:1"/><path fill="#F7921E" d="M159.837 125.533 63.264 181.29c-1.275.737-2.31-.047-2.31-1.752V90.624c0-1.704 1.024-3.68 2.31-4.418l96.573-55.757c1.275-.737 2.309.046 2.309 1.751v88.914c0 1.705-1.055 3.681-2.309 4.419" style="fill:#f7921e;fill:color(display-p3 .9686 .5725 .1176);fill-opacity:1"/><path fill="#000" d="M159.837 125.533 63.264 181.29c-1.275.737-2.31-.047-2.31-1.752V90.624c0-1.704 1.024-3.68 2.31-4.418l96.573-55.757c1.275-.737 2.309.046 2.309 1.751v88.914c0 1.705-1.055 3.681-2.309 4.419" opacity=".1" style="fill:#000;fill-opacity:1"/><path fill="#263238" d="M58.051 140.227a2.8 2.8 0 0 1-1.162 2.222c-.64.369-1.162-.026-1.162-.881a2.79 2.79 0 0 1 1.162-2.222c.64-.379 1.162.016 1.162.881M56.89 125.323a2.17 2.17 0 0 0-.907 1.73v7.916c0 .665.404.973.906.681a2.17 2.17 0 0 0 .901-1.726v-7.915c0-.666-.404-.973-.9-.686" style="fill:#263238;fill:color(display-p3 .149 .1961 .2196);fill-opacity:1"/><path fill="#FAFAFA" d="M158.685 39.276c-.072-.553-.512-.753-1.024-.445L67.447 90.896a2.3 2.3 0 0 0-.748.794l-1.981-1.127q.142-.247.337-.456l.098-.097q.142-.136.312-.235l90.189-52.086a2.3 2.3 0 0 1 1.597-.205 1.4 1.4 0 0 1 .635.297.5.5 0 0 1 .113.102q.046.036.082.082.08.08.143.174.058.074.108.154.114.177.189.374.051.107.087.22c0 .056.026.108.041.169q.025.11.036.22" style="fill:#fafafa;fill:color(display-p3 .9804 .9804 .9804);fill-opacity:1"/><path fill="#E0E0E0" d="M66.98 173.973c-.348 0-.588-.277-.588-.758V92.729c.015-.362.12-.714.307-1.024l-1.981-1.142q-.18.308-.267.655-.03.13-.04.261a1 1 0 0 0 0 .129v80.465a2.26 2.26 0 0 0 .993 1.792 2.1 2.1 0 0 0 1.213.215c.293-.014.578-.1.83-.25a1.1 1.1 0 0 1-.466.143" style="fill:#e0e0e0;fill:color(display-p3 .8784 .8784 .8784);fill-opacity:1"/><path fill="#F0F0F0" d="M158.695 39.445c0-.675-.476-.947-1.055-.614L67.447 90.9a2.34 2.34 0 0 0-1.055 1.828v80.487c0 .675.476.947 1.055.614l90.193-52.065a2.34 2.34 0 0 0 1.055-1.833z" style="fill:#f0f0f0;fill:color(display-p3 .9412 .9412 .9412);fill-opacity:1"/><path fill="#F7921E" d="m80.59 113.383-5.003 6.364-2.918 3.707a10.1 10.1 0 0 1-.896-4.428c0-4.276 1.848-9.216 4.843-13.031l.66 1.229zM84.875 100.614l-3.917 11.853-1.787-3.287-2.048-3.835a15.8 15.8 0 0 1 4.096-3.543 8.2 8.2 0 0 1 3.656-1.188M89.35 103.266l-7.358 8.474 3.671-11.106a4.65 4.65 0 0 1 3.687 2.632M90.328 107.843c0 6.467-4.25 14.188-9.477 17.198-3.246 1.879-6.144 1.536-7.783-.896l8.233-10.445.046-.056 8.351-9.615c.443 1.222.657 2.515.63 3.814" style="fill:#f7921e;fill:color(display-p3 .9686 .5725 .1176);fill-opacity:1"/><path fill="#fff" d="m84.875 100.614-3.917 11.853-1.787-3.287-2.048-3.835a15.8 15.8 0 0 1 4.096-3.543 8.2 8.2 0 0 1 3.656-1.188" opacity=".7" style="fill:#fff;fill-opacity:1"/><path fill="#000" d="m89.35 103.266-7.358 8.474 3.671-11.106a4.65 4.65 0 0 1 3.687 2.632" opacity=".3" style="fill:#000;fill-opacity:1"/><path fill="#fff" d="M90.328 107.843c0 6.467-4.25 14.188-9.477 17.198-3.246 1.879-6.144 1.536-7.783-.896l8.233-10.445.046-.056 8.351-9.615c.443 1.222.657 2.515.63 3.814" opacity=".5" style="fill:#fff;fill-opacity:1"/><path fill="#455A64" d="M73.079 95.397q.237-.149.512-.205a.54.54 0 0 1 .389.061.6.6 0 0 1 .245.343q.097.31.087.635c.004.313-.042.624-.138.922a2.4 2.4 0 0 1-.384.737l.543 1.295a.14.14 0 0 1 0 .067q0 .065-.03.123a.2.2 0 0 1-.067.082l-.6.343q-.084.052-.122 0a.3.3 0 0 1-.062-.087l-.512-1.168-.404.236v1.449a.3.3 0 0 1-.036.148.25.25 0 0 1-.082.103l-.579.332a.06.06 0 0 1-.04.016.06.06 0 0 1-.042-.016.143.143 0 0 1-.036-.107v-4.373a.3.3 0 0 1 .036-.148.2.2 0 0 1 .082-.102zm-.512 2.34.512-.287a1 1 0 0 0 .307-.287.83.83 0 0 0 .118-.46q-.001-.285-.118-.324a.39.39 0 0 0-.307.067l-.512.287zM77.246 96.646a.07.07 0 0 1 .082 0 .15.15 0 0 1 .036.107v.722a.33.33 0 0 1-.036.149.24.24 0 0 1-.082.102l-2.084 1.203a.06.06 0 0 1-.082 0 .13.13 0 0 1-.035-.107v-4.373q0-.078.035-.148a.24.24 0 0 1 .082-.103l2.048-1.182a.066.066 0 0 1 .082 0 .14.14 0 0 1 .036.107v.722a.33.33 0 0 1-.036.148.24.24 0 0 1-.082.103l-1.351.778v.732l1.254-.727a.06.06 0 0 1 .082 0 .13.13 0 0 1 .036.108v.717a.3.3 0 0 1-.036.148.2.2 0 0 1-.082.102l-1.254.753v.758zM79.463 91.71q.237-.145.512-.194a.51.51 0 0 1 .384.076c.119.09.205.216.246.359.07.213.105.436.102.66q.005.38-.081.748-.085.332-.246.635a2.6 2.6 0 0 1-.384.512q-.227.234-.512.394l-.558.322v1.383a.4.4 0 0 1-.036.148.2.2 0 0 1-.087.103l-.574.333a.06.06 0 0 1-.082 0 .14.14 0 0 1-.035-.108v-4.373q-.002-.078.035-.148a.2.2 0 0 1 .082-.102zm-.558 2.437.512-.312a.84.84 0 0 0 .425-.778c0-.19-.036-.302-.118-.343a.34.34 0 0 0-.307.05l-.512.313zM81.22 92.463q.015-.395.107-.779.091-.383.266-.737a3.2 3.2 0 0 1 .425-.635c.162-.191.356-.352.573-.476.172-.11.37-.173.574-.184a.63.63 0 0 1 .42.143.93.93 0 0 1 .271.43c.066.21.102.43.108.65v1.209q-.018.392-.108.773a3.4 3.4 0 0 1-.271.742 3 3 0 0 1-.42.635c-.164.189-.358.35-.574.476-.172.11-.37.173-.573.185a.6.6 0 0 1-.425-.149.94.94 0 0 1-.266-.43 2.4 2.4 0 0 1-.108-.65v-1.2029999999999998m1.93.056v-1.1360000000000001a1.1 1.1 0 0 0-.047-.287.4.4 0 0 0-.107-.185.25.25 0 0 0-.17-.071.5.5 0 0 0-.235.076.8.8 0 0 0-.235.2 1 1 0 0 0-.17.261 1.5 1.5 0 0 0-.107.307q-.037.168-.046.338v1.1420000000000001a.73.73 0 0 0 .154.471q.13.145.404 0a.95.95 0 0 0 .405-.456c.091-.209.145-.432.159-.66zM86.012 87.932q.237-.147.512-.205a.57.57 0 0 1 .389.056.65.65 0 0 1 .25.343c.062.208.09.424.083.64.002.312-.043.623-.134.922a2.5 2.5 0 0 1-.389.732l.543 1.295a.2.2 0 0 1 0 .067q0 .065-.03.123a.16.16 0 0 1-.067.082l-.6.348c-.056.03-.097.036-.122 0a.3.3 0 0 1-.062-.087L85.9 91.08l-.404.23v1.45a.3.3 0 0 1-.036.148.23.23 0 0 1-.082.108l-.579.327a.06.06 0 0 1-.04.018.06.06 0 0 1-.042-.018.13.13 0 0 1-.036-.107v-4.373q0-.078.036-.148a.25.25 0 0 1 .082-.103zm-.512 2.334.512-.286a.95.95 0 0 0 .307-.282.86.86 0 0 0 .118-.466q-.001-.285-.118-.323a.4.4 0 0 0-.307.072l-.512.287zM90.21 85.505a.07.07 0 0 1 .082 0 .15.15 0 0 1 .036.113v.716a.33.33 0 0 1-.036.149.24.24 0 0 1-.082.102l-.773.446v3.47a.3.3 0 0 1-.036.15.2.2 0 0 1-.082.102l-.578.333a.06.06 0 0 1-.082 0 .13.13 0 0 1-.036-.108v-3.487l-.773.446a.06.06 0 0 1-.082 0 .14.14 0 0 1-.036-.108v-.716q0-.082.036-.154a.24.24 0 0 1 .082-.103z" style="fill:#455a64;fill:color(display-p3 .2706 .3529 .3922);fill-opacity:1"/><path fill="#F7921E" d="m94.296 83.15 57.549-33.224v4.582l-57.55 33.224z" style="fill:#f7921e;fill:color(display-p3 .9686 .5725 .1176);fill-opacity:1"/><g fill="#455A64" opacity=".3"><path d="M93.943 97.583a.48.48 0 0 1-.42-.24.51.51 0 0 1 .174-.671l33.735-19.456a.513.513 0 0 1 .512.85l-33.73 19.456a.5.5 0 0 1-.271.061M93.943 102.165a.48.48 0 0 1-.42-.24.51.51 0 0 1 .174-.671l33.735-19.456a.512.512 0 0 1 .512.85l-33.73 19.456a.5.5 0 0 1-.271.061M93.943 106.748a.477.477 0 0 1-.42-.241.51.51 0 0 1 .174-.67l33.735-19.456a.512.512 0 0 1 .512.85l-33.73 19.456a.5.5 0 0 1-.271.061M93.943 111.33a.477.477 0 0 1-.42-.241.51.51 0 0 1 .174-.67l33.735-19.456a.52.52 0 0 1 .427-.157.52.52 0 0 1 .383.244q.06.102.072.222a.5.5 0 0 1-.166.422.5.5 0 0 1-.204.114l-33.73 19.456a.5.5 0 0 1-.271.066M93.943 115.918a.52.52 0 0 1-.436-.267.51.51 0 0 1 .174-.67l33.736-19.456a.513.513 0 0 1 .512.844l-33.73 19.456a.5.5 0 0 1-.256.093" style="fill:#455a64;fill:color(display-p3 .2706 .3529 .3922);fill-opacity:1"/></g><path fill="#F7921E" d="m132.527 72.5 4.342-2.504c.291-.168.512-.03.512.308v5.012a1.16 1.16 0 0 1-.512.912l-4.342 2.508c-.292.17-.512.031-.512-.307v-5.012a1.18 1.18 0 0 1 .512-.917M139.726 68.347l4.341-2.503c.292-.17.512-.036.512.302v5.012a1.16 1.16 0 0 1-.512.917l-4.341 2.503c-.292.17-.512.036-.512-.302v-5.012a1.16 1.16 0 0 1 .512-.917M146.924 64.19l4.337-2.504c.292-.169.512-.03.512.308v5.017a1.17 1.17 0 0 1-.512.917l-4.337 2.508c-.291.17-.512.031-.512-.307v-5.012a1.18 1.18 0 0 1 .512-.927M132.527 80.835l4.342-2.508c.291-.17.512-.031.512.307v5.012a1.17 1.17 0 0 1-.512.917l-4.342 2.503c-.292.17-.512.031-.512-.307v-5.007a1.17 1.17 0 0 1 .512-.917M139.726 76.657l4.341-2.503c.292-.17.512-.036.512.302v5.012a1.16 1.16 0 0 1-.512.917l-4.341 2.498c-.292.17-.512.036-.512-.302V77.57a1.16 1.16 0 0 1 .512-.912M146.924 72.505l4.337-2.509c.292-.168.512-.03.512.308v5.012a1.16 1.16 0 0 1-.512.912l-4.337 2.508c-.291.17-.512.031-.512-.307v-5.012a1.17 1.17 0 0 1 .512-.912M132.527 89.124l4.342-2.508c.291-.17.512-.031.512.307v5.012a1.17 1.17 0 0 1-.512.917l-4.342 2.503c-.292.17-.512.031-.512-.302v-5.002a1.16 1.16 0 0 1 .512-.927M139.726 84.967l4.341-2.504c.292-.169.512-.03.512.302v5.013a1.16 1.16 0 0 1-.512.916l-4.341 2.51c-.292.168-.512.03-.512-.308v-5.013a1.16 1.16 0 0 1 .512-.916M146.924 80.835l4.337-2.508c.292-.17.512-.031.512.307v5.012a1.17 1.17 0 0 1-.512.917l-4.337 2.503c-.291.17-.512.031-.512-.307v-5.007a1.18 1.18 0 0 1 .512-.917" style="fill:#f7921e;fill:color(display-p3 .9686 .5725 .1176);fill-opacity:1"/><path fill="#455A64" d="m72.47 162.197 55.561-32.077v2.289l-55.562 32.082z" style="fill:#455a64;fill:color(display-p3 .2706 .3529 .3922);fill-opacity:1"/><path fill="#F7921E" d="M72.47 159.908v-13.752l4.894 2.826 4.715-8.734 5.622 3.246 2.627-3.062 3.968 2.289 5.775-8.628 4.603 1.925 5.499-11.627 3.845 6.682 5.253-7.614 1.956 3.712 6.804-10.798v11.453z" style="fill:#f7921e;fill:color(display-p3 .9686 .5725 .1176);fill-opacity:1"/><path fill="#F7921E" d="m72.47 144.881 4.566 2.422 4.736-8.806 5.653 3.266 2.54-2.964 3.967 2.293 5.683-8.314 4.603 1.925 5.955-12.601 3.968 6.871 5.253-7.613 1.92 3.717 6.717-10.67v-9.492l-7.024 10.951-2.898-5.222-3.968 6.876-3.968-2.294-3.968 6.876-3.968-2.293-5.955 10.311-3.968-3.435-3.932 5.703-6.205-3.415-5.018 8.438-4.69-2.708z" style="fill:#f7921e;fill:color(display-p3 .9686 .5725 .1176);fill-opacity:1"/><path fill="#000" d="m72.47 144.881 4.566 2.422 4.736-8.806 5.653 3.266 2.54-2.964 3.967 2.293 5.683-8.314 4.603 1.925 5.955-12.601 3.968 6.871 5.253-7.613 1.92 3.717 6.717-10.67v-9.492l-7.024 10.951-2.898-5.222-3.968 6.876-3.968-2.294-3.968 6.876-3.968-2.293-5.955 10.311-3.968-3.435-3.932 5.703-6.205-3.415-5.018 8.438-4.69-2.708z" opacity=".3" style="fill:#000;fill-opacity:1"/><g fill="#455A64" opacity=".3"><path d="M131.999 103.112a.51.51 0 0 1-.425-.374.51.51 0 0 1 .18-.537l19.845-11.459a.513.513 0 0 1 .512.85l-19.845 11.454a.5.5 0 0 1-.267.066M131.999 107.695a.52.52 0 0 1-.425-.374.52.52 0 0 1 .18-.537l19.845-11.459a.513.513 0 0 1 .512.85l-19.845 11.453a.5.5 0 0 1-.267.067M131.999 112.277a.51.51 0 0 1-.425-.374.51.51 0 0 1 .18-.537l19.845-11.458a.513.513 0 0 1 .512.849l-19.845 11.454a.5.5 0 0 1-.267.066M131.999 116.859a.51.51 0 0 1-.425-.374.51.51 0 0 1 .18-.537l19.845-11.453a.51.51 0 0 1 .665.174.51.51 0 0 1-.174.67l-19.845 11.454a.47.47 0 0 1-.246.066M131.999 121.442a.52.52 0 0 1-.425-.374.52.52 0 0 1 .18-.537l19.845-11.454a.51.51 0 0 1 .665.174.51.51 0 0 1-.174.671l-19.845 11.453a.5.5 0 0 1-.246.067M131.999 126.024a.51.51 0 0 1-.425-.374.51.51 0 0 1 .18-.537l19.845-11.453a.51.51 0 0 1 .665.174.51.51 0 0 1-.174.67l-19.845 11.454a.47.47 0 0 1-.246.066M131.999 130.607a.51.51 0 0 1-.245-.912l19.845-11.453a.51.51 0 0 1 .578.227.51.51 0 0 1-.066.618l-19.845 11.453a.5.5 0 0 1-.267.067" style="fill:#455a64;fill:color(display-p3 .2706 .3529 .3922);fill-opacity:1"/></g><path fill="#E6E6E6" d="m168.77 116.661-67.007 38.689v52.753l.008 9.481-.591-.34-.93-.538v-62.229l67.007-38.688 1.152.663z" style="fill:#e6e6e6;fill:color(display-p3 .902 .902 .902);fill-opacity:1"/><path fill="#F0F0F0" d="M168.769 116.66v52.756l-64.742 37.377-1.51.875-.375.214-.371.212-.009.008v-52.753z" style="fill:#f0f0f0;fill:color(display-p3 .9412 .9412 .9412);fill-opacity:1"/><path fill="#F0F0F0" d="m167.257 115.789 1.513.872-67.007 38.689-1.513-.876z" style="fill:#f0f0f0;fill:color(display-p3 .9412 .9412 .9412);fill-opacity:1"/><path fill="#F7921E" d="m169.314 116.358-.543.314-67.007 38.686-.212.12v61.98l-.372-.214v-61.977l.221-.127 67.009-38.688.535-.309z" style="fill:#f7921e;fill:color(display-p3 .9686 .5725 .1176);fill-opacity:1"/><path fill="#000" d="m169.314 116.358-.543.314-67.007 38.686-.212.12v61.98l-.372-.214v-61.977l.221-.127 67.009-38.688.535-.309z" opacity=".1" style="fill:#000;fill-opacity:1"/><path fill="#F7921E" d="m168.762 116.672-66.998 38.686-.212.12v61.981l.22.125 67.539-38.886v-62.332z" style="fill:#f7921e;fill:color(display-p3 .9686 .5725 .1176);fill-opacity:1"/><path fill="#000" d="m168.762 116.672-66.998 38.686-.212.12v61.981l.22.125 67.539-38.886v-62.332z" opacity=".05" style="fill:#000;fill-opacity:1"/><path fill="#F7921E" d="m168.942 116.146.372.212-67.762 39.123-.372-.214z" style="fill:#f7921e;fill:color(display-p3 .9686 .5725 .1176);fill-opacity:1"/><path fill="#fff" d="m168.942 116.146.372.212-67.762 39.123-.372-.214z" opacity=".4" style="fill:#fff;fill-opacity:1"/><path fill="#F7921E" d="m169.905 116.697-.592.341-.543.314-18.457 10.657-48.17 27.809v61.981l-.372-.215v-61.978l66.999-38.677.543-.314.223-.129z" style="fill:#f7921e;fill:color(display-p3 .9686 .5725 .1176);fill-opacity:1"/><path fill="#000" d="m169.905 116.697-.592.341-.543.314-18.457 10.657-48.17 27.809v61.981l-.372-.215v-61.978l66.999-38.677.543-.314.223-.129z" opacity=".1" style="fill:#000;fill-opacity:1"/><path fill="#F7921E" d="m169.313 117.037-.551.318-18.449 10.653-48.173 27.815v61.975l.375.217 1.472-.892 65.918-38.079v-62.333z" style="fill:#f7921e;fill:color(display-p3 .9686 .5725 .1176);fill-opacity:1"/><path fill="#F7921E" d="m169.536 116.486.369.211-67.762 39.124-.372-.212z" style="fill:#f7921e;fill:color(display-p3 .9686 .5725 .1176);fill-opacity:1"/><path fill="#fff" d="m169.536 116.486.369.211-67.762 39.124-.372-.212z" opacity=".4" style="fill:#fff;fill-opacity:1"/><path fill="#E6E6E6" d="m171.037 117.973-1.132.654-.592.344-.543.308-64.743 37.38v62.228l-1.51-.871v-62.23l66.253-38.251.543-.314.212-.12.38.22z" style="fill:#e6e6e6;fill:color(display-p3 .902 .902 .902);fill-opacity:1"/><path fill="#F0F0F0" d="m169.525 117.098 1.512.872-67.007 38.688-1.513-.874z" style="fill:#f0f0f0;fill:color(display-p3 .9412 .9412 .9412);fill-opacity:1"/><path fill="#FAFAFA" d="M104.027 156.659v62.229l67.01-38.686V117.97z" style="fill:#fafafa;fill:color(display-p3 .9804 .9804 .9804);fill-opacity:1"/><path fill="#37474F" d="M110.904 154.694c.434-.251.789-.048.789.458a1.74 1.74 0 0 1-.789 1.366c-.438.252-.792.05-.792-.454a1.75 1.75 0 0 1 .792-1.37" style="fill:#37474f;fill:color(display-p3 .2157 .2784 .3098);fill-opacity:1"/><path fill="#F7921E" d="M108.68 148.393c-.857-.495-1.684-.572-2.319-.2-.634.372-.986 1.118-.986 2.11q.005.568.137 1.121l.526-.306a4.3 4.3 0 0 1-.08-.815c0-.778.246-1.347.695-1.607.449-.261 1.064-.186 1.736.203 1.501.858 2.722 2.982 2.722 4.715.011.375-.064.748-.22 1.089a1.3 1.3 0 0 1-.475.518.3.3 0 0 1-.046.023 1.7 1.7 0 0 0-.249.689q.312-.053.587-.209c.391-.233.683-.601.82-1.035.117-.346.173-.71.166-1.075 0-1.919-1.35-4.264-3.014-5.221" style="fill:#f7921e;fill:color(display-p3 .9686 .5725 .1176);fill-opacity:1"/><path fill="#37474F" d="M114.741 152.478c.435-.251.789-.045.789.458a1.76 1.76 0 0 1-.789 1.37c-.437.251-.792.046-.792-.458a1.756 1.756 0 0 1 .792-1.37" style="fill:#37474f;fill:color(display-p3 .2157 .2784 .3098);fill-opacity:1"/><path fill="#F7921E" d="M112.517 146.177c-.858-.495-1.684-.572-2.319-.2-.634.371-.986 1.117-.986 2.11.003.377.049.754.137 1.121l.526-.306a4.2 4.2 0 0 1-.08-.815c0-.778.246-1.347.695-1.607s1.064-.186 1.736.203c1.501.858 2.722 2.982 2.722 4.718a2.4 2.4 0 0 1-.221 1.089 1.3 1.3 0 0 1-.474.515l-.046.025a1.7 1.7 0 0 0-.249.687c.201-.035.395-.105.572-.206.391-.235.682-.604.821-1.038.115-.346.171-.708.166-1.072.014-1.922-1.336-4.263-3-5.224" style="fill:#f7921e;fill:color(display-p3 .9686 .5725 .1176);fill-opacity:1"/><path fill="#37474F" d="M107.067 156.908c.437-.252.789-.049.789.457a1.73 1.73 0 0 1-.789 1.367c-.435.252-.789.048-.789-.455a1.75 1.75 0 0 1 .789-1.369" style="fill:#37474f;fill:color(display-p3 .2157 .2784 .3098);fill-opacity:1"/><path fill="#F7921E" d="M104.842 150.606c-.857-.495-1.684-.572-2.318-.2s-.987 1.115-.987 2.11q.005.568.137 1.121l.529-.306a4.4 4.4 0 0 1-.083-.815c0-.778.249-1.346.695-1.607s1.064-.186 1.736.203c1.504.858 2.725 2.982 2.725 4.715.01.375-.066.748-.223 1.089a1.24 1.24 0 0 1-.472.515l-.046.026a1.7 1.7 0 0 0-.252.686 1.7 1.7 0 0 0 .589-.206c.391-.233.682-.601.818-1.035.117-.346.174-.709.169-1.075 0-1.918-1.353-4.263-3.017-5.221" style="fill:#f7921e;fill:color(display-p3 .9686 .5725 .1176);fill-opacity:1"/><path fill="#37474F" d="M118.579 150.265c.434-.254.789-.048.789.455a1.76 1.76 0 0 1-.789 1.37c-.438.251-.792.046-.792-.458a1.74 1.74 0 0 1 .792-1.367" style="fill:#37474f;fill:color(display-p3 .2157 .2784 .3098);fill-opacity:1"/><path fill="#F7921E" d="M116.354 143.963c-.857-.497-1.684-.571-2.321-.202s-.984 1.117-.984 2.11c.003.377.049.754.137 1.12l.526-.306a4.3 4.3 0 0 1-.08-.814c0-.778.246-1.347.692-1.604s1.067-.189 1.739.2c1.501.857 2.722 2.982 2.722 4.718.011.375-.065.747-.22 1.089-.108.212-.272.39-.475.514l-.046.026a1.7 1.7 0 0 0-.249.687 1.8 1.8 0 0 0 .587-.206c.39-.235.682-.604.82-1.038a3.3 3.3 0 0 0 .166-1.072c0-1.922-1.352-4.263-3.014-5.222" style="fill:#f7921e;fill:color(display-p3 .9686 .5725 .1176);fill-opacity:1"/><path fill="#37474F" d="M122.412 148.049c.438-.251.792-.048.792.455a1.74 1.74 0 0 1-.792 1.375c-.434.252-.789.049-.789-.457a1.75 1.75 0 0 1 .789-1.373" style="fill:#37474f;fill:color(display-p3 .2157 .2784 .3098);fill-opacity:1"/><path fill="#F7921E" d="M120.191 141.748c-.858-.498-1.684-.572-2.322-.201-.638.372-.984 1.115-.984 2.11q.004.569.138 1.119l.526-.303a4.2 4.2 0 0 1-.08-.816c0-.777.245-1.349.691-1.606.447-.257 1.064-.186 1.739.203 1.501.858 2.722 2.979 2.722 4.715.011.375-.064.747-.22 1.089a1.3 1.3 0 0 1-.475.515l-.046.025a1.7 1.7 0 0 0-.248.686 1.7 1.7 0 0 0 .586-.205c.391-.234.683-.603.82-1.038.115-.346.171-.708.166-1.072 0-1.919-1.352-4.263-3.013-5.221" style="fill:#f7921e;fill:color(display-p3 .9686 .5725 .1176);fill-opacity:1"/><path fill="#37474F" d="M126.249 145.834c.438-.252.792-.049.792.454a1.74 1.74 0 0 1-.792 1.37c-.434.251-.789.048-.789-.455a1.75 1.75 0 0 1 .789-1.369" style="fill:#37474f;fill:color(display-p3 .2157 .2784 .3098);fill-opacity:1"/><path fill="#F7921E" d="M124.029 139.532c-.858-.498-1.685-.572-2.322-.201-.638.372-.981 1.113-.981 2.111q.005.567.137 1.121l.526-.306a4.4 4.4 0 0 1-.08-.815c0-.778.246-1.35.692-1.607s1.064-.186 1.739.203c1.501.858 2.722 2.979 2.722 4.715.012.376-.065.748-.223 1.09a1.25 1.25 0 0 1-.518.54 1.7 1.7 0 0 0-.249.686c.202-.033.396-.103.572-.206.391-.234.682-.602.821-1.035.115-.346.171-.71.166-1.075.011-1.919-1.341-4.263-3.002-5.221" style="fill:#f7921e;fill:color(display-p3 .9686 .5725 .1176);fill-opacity:1"/><path fill="#37474F" d="M130.086 143.618c.438-.252.792-.049.792.457a1.74 1.74 0 0 1-.792 1.367c-.434.252-.789.048-.789-.455a1.757 1.757 0 0 1 .789-1.369" style="fill:#37474f;fill:color(display-p3 .2157 .2784 .3098);fill-opacity:1"/><path fill="#F7921E" d="M127.874 137.316c-.858-.495-1.684-.572-2.322-.2-.637.372-.986 1.115-.986 2.11q.005.569.14 1.121l.526-.306a4.2 4.2 0 0 1-.083-.815c0-.778.249-1.347.695-1.607s1.064-.186 1.738.203c1.502.858 2.722 2.982 2.722 4.715.013.376-.064.749-.223 1.09a1.3 1.3 0 0 1-.471.517l-.046.023a1.7 1.7 0 0 0-.249.686c.207-.03.406-.1.586-.206.391-.233.683-.601.821-1.035.115-.346.171-.71.166-1.075-.009-1.919-1.361-4.263-3.014-5.221" style="fill:#f7921e;fill:color(display-p3 .9686 .5725 .1176);fill-opacity:1"/><path fill="#37474F" d="M133.924 141.402c.438-.252.789-.046.789.457a1.73 1.73 0 0 1-.789 1.367c-.434.254-.789.048-.789-.454a1.76 1.76 0 0 1 .789-1.37" style="fill:#37474f;fill:color(display-p3 .2157 .2784 .3098);fill-opacity:1"/><path fill="#F7921E" d="M131.702 135.1c-.857-.495-1.684-.572-2.321-.2s-.987 1.118-.987 2.11q.005.569.14 1.121l.526-.306a4.2 4.2 0 0 1-.082-.815c0-.778.248-1.347.694-1.607s1.064-.186 1.739.203c1.501.858 2.722 2.982 2.722 4.718.012.374-.065.746-.223 1.086a1.25 1.25 0 0 1-.472.518l-.046.026a1.7 1.7 0 0 0-.248.686c.201-.036.394-.105.571-.206.39-.235.681-.604.818-1.038.117-.346.174-.708.169-1.072.014-1.922-1.338-4.263-3-5.224" style="fill:#f7921e;fill:color(display-p3 .9686 .5725 .1176);fill-opacity:1"/><path fill="#37474F" d="M137.761 139.188c.438-.254.789-.048.789.455a1.74 1.74 0 0 1-.789 1.37c-.435.251-.789.045-.789-.458a1.75 1.75 0 0 1 .789-1.367" style="fill:#37474f;fill:color(display-p3 .2157 .2784 .3098);fill-opacity:1"/><path fill="#F7921E" d="M135.539 132.884c-.858-.495-1.684-.572-2.322-.2-.637.372-.986 1.118-.986 2.11q.003.569.14 1.121l.526-.306a4.2 4.2 0 0 1-.083-.815c0-.778.249-1.347.695-1.604s1.063-.189 1.738.2c1.501.858 2.722 2.982 2.722 4.718.012.375-.064.748-.223 1.089a1.2 1.2 0 0 1-.472.515l-.045.025a1.6 1.6 0 0 0-.249.687q.311-.051.586-.206c.391-.234.682-.603.818-1.038.117-.345.174-.708.168-1.072 0-1.922-1.352-4.263-3.013-5.224" style="fill:#f7921e;fill:color(display-p3 .9686 .5725 .1176);fill-opacity:1"/><path fill="#37474F" d="M141.599 136.973c.437-.252.789-.049.789.455a1.74 1.74 0 0 1-.789 1.369c-.435.252-.789.046-.789-.457a1.75 1.75 0 0 1 .789-1.367" style="fill:#37474f;fill:color(display-p3 .2157 .2784 .3098);fill-opacity:1"/><path fill="#F7921E" d="M139.376 130.67c-.857-.497-1.684-.571-2.321-.2-.638.372-.987 1.115-.987 2.11.003.377.05.753.14 1.118l.53-.303a4 4 0 0 1-.083-.815c0-.777.249-1.349.694-1.606.446-.258 1.064-.189 1.739.2 1.501.857 2.722 2.982 2.722 4.718.012.375-.065.749-.223 1.089a1.25 1.25 0 0 1-.472.514l-.046.026a1.65 1.65 0 0 0-.249.687c.206-.034.405-.104.586-.206.391-.234.682-.604.819-1.038.116-.345.173-.708.168-1.072-.003-1.919-1.367-4.264-3.017-5.222" style="fill:#f7921e;fill:color(display-p3 .9686 .5725 .1176);fill-opacity:1"/><path fill="#37474F" d="M145.436 134.757c.438-.252.789-.049.789.455a1.74 1.74 0 0 1-.789 1.369c-.435.252-.789.049-.789-.455a1.74 1.74 0 0 1 .789-1.369" style="fill:#37474f;fill:color(display-p3 .2157 .2784 .3098);fill-opacity:1"/><path fill="#F7921E" d="M143.213 128.455c-.858-.498-1.684-.572-2.322-.2-.637.371-.986 1.115-.986 2.11.002.377.049.754.14 1.121l.526-.306a4.2 4.2 0 0 1-.083-.815c0-.778.249-1.35.695-1.607.446-.258 1.064-.186 1.735.203 1.504.858 2.725 2.979 2.725 4.715.012.375-.065.748-.223 1.089a1.25 1.25 0 0 1-.472.515l-.045.025a1.6 1.6 0 0 0-.249.687c.206-.033.405-.102.586-.206.39-.234.68-.602.818-1.035.117-.346.174-.71.168-1.075 0-1.919-1.352-4.264-3.013-5.221" style="fill:#f7921e;fill:color(display-p3 .9686 .5725 .1176);fill-opacity:1"/><path fill="#37474F" d="M149.273 132.541c.437-.252.789-.049.789.457a1.73 1.73 0 0 1-.789 1.367c-.434.251-.789.048-.789-.455a1.75 1.75 0 0 1 .789-1.369" style="fill:#37474f;fill:color(display-p3 .2157 .2784 .3098);fill-opacity:1"/><path fill="#F7921E" d="M147.048 126.239c-.858-.495-1.684-.572-2.319-.2s-.986 1.115-.986 2.11q.005.568.137 1.121l.529-.306a4.3 4.3 0 0 1-.083-.815c0-.778.249-1.347.695-1.607s1.063-.186 1.735.203c1.505.858 2.725 2.982 2.725 4.715.011.375-.066.748-.223 1.089a1.24 1.24 0 0 1-.471.515l-.047.026a1.7 1.7 0 0 0-.251.686c.207-.032.407-.102.589-.206.388-.234.677-.602.812-1.035.118-.346.174-.71.169-1.075.006-1.919-1.347-4.263-3.011-5.221" style="fill:#f7921e;fill:color(display-p3 .9686 .5725 .1176);fill-opacity:1"/><path fill="#37474F" d="M153.107 130.328c.434-.255.788-.049.788.455a1.75 1.75 0 0 1-.788 1.369c-.438.252-.793.046-.793-.457a1.75 1.75 0 0 1 .793-1.367" style="fill:#37474f;fill:color(display-p3 .2157 .2784 .3098);fill-opacity:1"/><path fill="#F7921E" d="M150.883 124.026c-.858-.498-1.684-.572-2.322-.2s-.984 1.115-.984 2.11q.005.567.137 1.118l.526-.306a4.3 4.3 0 0 1-.08-.812c0-.781.246-1.35.695-1.607s1.064-.189 1.736.2c1.501.858 2.722 2.982 2.722 4.718.011.375-.064.748-.22 1.089a1.3 1.3 0 0 1-.475.515l-.046.026a1.7 1.7 0 0 0-.248.686q.311-.05.586-.206c.39-.235.682-.604.82-1.038.115-.345.171-.708.166-1.072-.003-1.919-1.352-4.263-3.013-5.221" style="fill:#f7921e;fill:color(display-p3 .9686 .5725 .1176);fill-opacity:1"/><path fill="#37474F" d="M156.94 128.112c.438-.252.793-.049.793.454a1.75 1.75 0 0 1-.793 1.37c-.434.252-.788.049-.788-.457a1.754 1.754 0 0 1 .788-1.367" style="fill:#37474f;fill:color(display-p3 .2157 .2784 .3098);fill-opacity:1"/><path fill="#F7921E" d="M154.72 121.81c-.858-.498-1.685-.572-2.322-.201-.638.372-.983 1.116-.983 2.111q.004.566.137 1.118l.526-.303a4.2 4.2 0 0 1-.08-.815c0-.778.246-1.35.692-1.607.446-.258 1.063-.186 1.738.203 1.501.858 2.722 2.979 2.722 4.715.011.375-.064.748-.22 1.089a1.24 1.24 0 0 1-.509.54 1.7 1.7 0 0 0-.249.687c.206-.032.405-.102.586-.206.39-.234.682-.602.821-1.035.115-.347.171-.71.165-1.075-.011-1.919-1.363-4.264-3.024-5.221" style="fill:#f7921e;fill:color(display-p3 .9686 .5725 .1176);fill-opacity:1"/><path fill="#37474F" d="M160.779 125.896c.437-.252.791-.049.791.455a1.7 1.7 0 0 1-.232.779 1.74 1.74 0 0 1-.559.59c-.436.252-.79.049-.79-.454a1.76 1.76 0 0 1 .79-1.37" style="fill:#37474f;fill:color(display-p3 .2157 .2784 .3098);fill-opacity:1"/><path fill="#F7921E" d="M158.557 119.594c-.858-.495-1.684-.572-2.322-.2-.637.371-.984 1.115-.984 2.11.004.377.049.754.137 1.121l.527-.306a4.2 4.2 0 0 1-.08-.815c0-.778.245-1.347.691-1.607.447-.26 1.064-.186 1.739.203 1.501.858 2.722 2.979 2.722 4.715.012.375-.065.749-.223 1.089a1.25 1.25 0 0 1-.518.541 1.7 1.7 0 0 0-.248.686c.202-.033.395-.103.571-.206.391-.234.683-.602.821-1.035.115-.347.171-.71.166-1.075.014-1.919-1.338-4.263-2.999-5.221" style="fill:#f7921e;fill:color(display-p3 .9686 .5725 .1176);fill-opacity:1"/><path fill="#37474F" d="M164.615 123.68c.437-.251.793-.048.793.458a1.74 1.74 0 0 1-.793 1.366c-.434.252-.789.049-.789-.454a1.76 1.76 0 0 1 .789-1.37" style="fill:#37474f;fill:color(display-p3 .2157 .2784 .3098);fill-opacity:1"/><path fill="#F7921E" d="M162.393 117.378c-.858-.495-1.684-.572-2.322-.2-.637.372-.986 1.115-.986 2.11q.003.569.14 1.121l.526-.306a4.3 4.3 0 0 1-.08-.815c0-.778.246-1.347.692-1.607s1.064-.186 1.739.203c1.501.858 2.722 2.982 2.722 4.715.011.376-.065.749-.223 1.089-.107.214-.27.393-.472.518l-.046.023a1.7 1.7 0 0 0-.248.686c.206-.03.405-.1.585-.206.391-.233.683-.601.821-1.035.115-.346.171-.71.166-1.075 0-1.918-1.352-4.263-3.014-5.221" style="fill:#f7921e;fill:color(display-p3 .9686 .5725 .1176);fill-opacity:1"/><path fill="#37474F" d="M168.453 121.464c.438-.252.789-.046.789.457a1.73 1.73 0 0 1-.789 1.367c-.435.255-.789.049-.789-.455a1.75 1.75 0 0 1 .789-1.369" style="fill:#37474f;fill:color(display-p3 .2157 .2784 .3098);fill-opacity:1"/><path fill="#F7921E" d="M166.231 115.162c-.858-.494-1.684-.572-2.322-.2-.637.372-.986 1.118-.986 2.11q.004.569.14 1.121l.526-.306a4.2 4.2 0 0 1-.083-.815c0-.777.249-1.346.695-1.607s1.064-.186 1.738.203c1.501.858 2.722 2.983 2.722 4.718.012.375-.064.747-.223 1.087a1.2 1.2 0 0 1-.472.517l-.045.026a1.7 1.7 0 0 0-.249.686q.311-.05.586-.206c.391-.234.682-.603.818-1.038.117-.345.174-.707.168-1.072 0-1.921-1.34-4.263-3.013-5.224" style="fill:#f7921e;fill:color(display-p3 .9686 .5725 .1176);fill-opacity:1"/><path fill="#000" d="M166.23 115.162c-.857-.494-1.684-.572-2.321-.2s-.987 1.118-.987 2.11q.006.364.066.721a4.4 4.4 0 0 0-.595-.415c-.858-.494-1.684-.572-2.322-.2-.637.372-.986 1.115-.986 2.11q.006.362.065.718a5 5 0 0 0-.594-.412c-.858-.497-1.684-.572-2.321-.2s-.984 1.115-.984 2.11a5 5 0 0 0 .063.718 5 5 0 0 0-.595-.412c-.858-.497-1.684-.572-2.322-.2-.637.372-.984 1.115-.984 2.11q.005.36.063.718a4.3 4.3 0 0 0-.594-.412c-.858-.498-1.685-.572-2.322-.2-.638.372-.983 1.115-.983 2.11q.005.359.063.712a5 5 0 0 0-.592-.409c-.858-.495-1.684-.572-2.32-.2-.634.372-.986 1.115-.986 2.11q.006.362.066.718a5 5 0 0 0-.595-.412c-.858-.498-1.687-.572-2.321-.2s-.987 1.115-.987 2.11q.006.361.066.718a4.4 4.4 0 0 0-.595-.412c-.858-.498-1.684-.572-2.322-.2-.637.371-.986 1.115-.986 2.11q.006.36.066.718a5 5 0 0 0-.595-.415c-.858-.495-1.684-.572-2.322-.2-.637.372-.986 1.118-.986 2.11q.006.362.065.721a4.4 4.4 0 0 0-.594-.415c-.858-.495-1.684-.572-2.322-.2s-.986 1.118-.986 2.11q.005.36.065.717a5 5 0 0 0-.594-.411c-.858-.495-1.684-.572-2.322-.201-.638.372-.987 1.116-.987 2.111q.006.36.066.717a5 5 0 0 0-.594-.411c-.858-.498-1.685-.572-2.322-.201-.638.372-.981 1.113-.981 2.111q.006.36.066.717a5 5 0 0 0-.595-.411c-.858-.498-1.684-.572-2.322-.201-.637.372-.983 1.115-.983 2.11q.004.362.063.718a4.5 4.5 0 0 0-.595-.412c-.858-.497-1.684-.571-2.322-.202-.637.368-.983 1.117-.983 2.11q.004.363.063.721a4.5 4.5 0 0 0-.595-.415c-.858-.495-1.684-.572-2.319-.2s-.987 1.117-.987 2.11q.005.362.066.721a4.5 4.5 0 0 0-.597-.415c-.858-.495-1.684-.572-2.319-.2s-.987 1.118-.987 2.11q.002.358.06.712a4.5 4.5 0 0 0-.591-.409c-.858-.495-1.685-.572-2.319-.2-.635.372-.987 1.115-.987 2.11q.006.568.137 1.12l.529-.305a4.3 4.3 0 0 1-.082-.815c0-.778.248-1.347.694-1.607.446-.261 1.064-.186 1.736.203 1.504.858 2.725 2.982 2.725 4.714a2.45 2.45 0 0 1-.223 1.09 1.24 1.24 0 0 1-.472.515l-.046.026a1.7 1.7 0 0 0-.251.686c.207-.033.407-.102.589-.206a1.85 1.85 0 0 0 .817-1.035c.117-.346.175-.71.169-1.076 0-1.554-.889-3.39-2.113-4.54l.286-.169a4 4 0 0 1-.08-.814c0-.778.246-1.347.695-1.607.449-.261 1.063-.186 1.735.202 1.501.858 2.722 2.983 2.722 4.715.012.376-.064.749-.22 1.09a1.26 1.26 0 0 1-.52.541 1.7 1.7 0 0 0-.249.689c.206-.035.405-.105.586-.209.391-.233.683-.601.821-1.035a3.2 3.2 0 0 0 .166-1.076c0-1.555-.89-3.39-2.113-4.54l.286-.172a4 4 0 0 1-.081-.814c0-.778.246-1.347.695-1.607s1.064-.186 1.736.203c1.501.857 2.722 2.982 2.722 4.718a2.4 2.4 0 0 1-.22 1.089c-.107.212-.272.39-.475.514l-.046.026a1.7 1.7 0 0 0-.248.687c.201-.035.394-.105.571-.206.391-.235.683-.604.821-1.039a3.3 3.3 0 0 0 .166-1.071c0-1.559-.889-3.394-2.113-4.544l.286-.171a4.2 4.2 0 0 1-.08-.815c0-.778.246-1.347.695-1.605.448-.256 1.063-.188 1.735.201 1.501.857 2.722 2.982 2.722 4.718.011.375-.064.747-.22 1.089a1.3 1.3 0 0 1-.475.515l-.045.025a1.7 1.7 0 0 0-.249.687c.206-.034.405-.103.586-.206.391-.235.682-.604.821-1.038a3.3 3.3 0 0 0 .165-1.072c0-1.559-.889-3.395-2.113-4.544l.286-.168a4.4 4.4 0 0 1-.08-.816c0-.777.246-1.349.692-1.606s1.064-.186 1.739.203c1.501.858 2.722 2.979 2.722 4.715.011.375-.064.747-.22 1.089a1.3 1.3 0 0 1-.475.515l-.046.025a1.7 1.7 0 0 0-.249.686c.207-.031.406-.101.587-.205.391-.234.683-.603.82-1.038.115-.346.171-.708.166-1.072 0-1.559-.889-3.394-2.113-4.543l.286-.169a4.2 4.2 0 0 1-.08-.815c0-.778.246-1.35.692-1.607s1.063-.186 1.738.203c1.501.858 2.722 2.979 2.722 4.715.012.376-.064.748-.223 1.089a1.25 1.25 0 0 1-.517.541 1.7 1.7 0 0 0-.249.686c.201-.033.395-.103.572-.206a1.87 1.87 0 0 0 .82-1.035c.115-.347.171-.71.166-1.075 0-1.556-.889-3.391-2.113-4.54l.286-.172a4.3 4.3 0 0 1-.083-.815c0-.778.249-1.347.695-1.607s1.064-.186 1.739.203c1.501.858 2.722 2.982 2.722 4.715.012.376-.065.748-.223 1.09-.106.212-.27.391-.472.517l-.046.023a1.7 1.7 0 0 0-.249.686c.207-.03.406-.1.586-.206.391-.233.683-.601.821-1.035.115-.346.171-.71.166-1.075 0-1.555-.889-3.391-2.113-4.54l.286-.172a4.2 4.2 0 0 1-.083-.815c0-.778.249-1.347.695-1.607s1.063-.186 1.738.203c1.501.858 2.722 2.982 2.722 4.718.012.374-.064.746-.223 1.086a1.24 1.24 0 0 1-.472.518l-.045.026a1.7 1.7 0 0 0-.249.686q.303-.053.572-.206c.389-.235.68-.604.817-1.038.118-.345.175-.708.169-1.072 0-1.558-.889-3.394-2.113-4.544l.286-.171a4.2 4.2 0 0 1-.083-.815c0-.778.249-1.347.695-1.604s1.064-.189 1.738.2c1.501.858 2.722 2.982 2.722 4.718.012.375-.064.749-.223 1.089a1.2 1.2 0 0 1-.471.515l-.046.026a1.64 1.64 0 0 0-.249.686c.206-.034.405-.104.587-.206.39-.234.68-.603.817-1.038.117-.345.174-.708.169-1.072 0-1.558-.89-3.394-2.113-4.543l.286-.169a4.2 4.2 0 0 1-.083-.815c0-.778.249-1.35.695-1.607s1.063-.189 1.738.2c1.501.858 2.722 2.982 2.722 4.718.012.376-.065.749-.223 1.089a1.25 1.25 0 0 1-.472.515l-.045.026a1.6 1.6 0 0 0-.249.686c.205-.034.404-.103.585-.206a1.86 1.86 0 0 0 .819-1.038c.117-.345.173-.708.168-1.072 0-1.558-.889-3.394-2.113-4.543l.286-.169a4.3 4.3 0 0 1-.083-.815c0-.778.249-1.35.695-1.607s1.063-.186 1.738.203c1.502.858 2.723 2.979 2.723 4.715.011.376-.065.749-.223 1.089-.105.213-.27.392-.472.515l-.046.026a1.66 1.66 0 0 0-.249.686c.207-.032.405-.102.586-.206.39-.234.681-.602.818-1.035.118-.346.174-.71.169-1.075 0-1.555-.889-3.391-2.113-4.541l.286-.171a4.2 4.2 0 0 1-.083-.815c0-.778.249-1.347.695-1.607s1.063-.186 1.735.203c1.504.858 2.725 2.982 2.725 4.715.011.376-.066.748-.223 1.089a1.22 1.22 0 0 1-.472.515l-.046.026a1.66 1.66 0 0 0-.249.686q.312-.049.587-.206c.437-.209.774-.58.94-1.035a3.2 3.2 0 0 0 .169-1.075c0-1.555-.889-3.394-2.113-4.543l.286-.169a4 4 0 0 1-.08-.812c0-.781.246-1.35.692-1.607s1.067-.189 1.738.2c1.501.858 2.722 2.982 2.722 4.718a2.4 2.4 0 0 1-.22 1.089 1.27 1.27 0 0 1-.474.515l-.046.026a1.7 1.7 0 0 0-.249.686c.206-.033.405-.103.587-.206.39-.235.682-.604.82-1.038.115-.345.171-.708.166-1.072.006-1.558-.881-3.385-2.105-4.529l.287-.169a4.2 4.2 0 0 1-.08-.815c0-.777.245-1.349.691-1.607.447-.257 1.064-.185 1.739.203 1.501.858 2.722 2.98 2.722 4.715.011.376-.065.748-.22 1.09a1.24 1.24 0 0 1-.501.526 1.7 1.7 0 0 0-.248.686c.206-.032.405-.101.586-.206.389-.234.681-.602.82-1.035.115-.346.171-.71.166-1.075 0-1.555-.889-3.391-2.113-4.543l.286-.169a4.2 4.2 0 0 1-.08-.815c0-.778.246-1.347.692-1.607s1.064-.186 1.738.203c1.501.858 2.722 2.98 2.722 4.715a2.4 2.4 0 0 1-.223 1.089 1.24 1.24 0 0 1-.472.515q-.022.015-.045.026a1.7 1.7 0 0 0-.249.686c.201-.033.395-.103.572-.206a1.87 1.87 0 0 0 .821-1.035c.114-.346.17-.71.166-1.075 0-1.555-.89-3.391-2.114-4.54l.286-.172a4.3 4.3 0 0 1-.063-.818c0-.777.249-1.346.695-1.607s1.064-.185 1.739.203c1.501.858 2.722 2.983 2.722 4.715.011.376-.065.749-.223 1.09-.107.213-.27.392-.472.517l-.046.023a1.7 1.7 0 0 0-.249.686c.207-.03.406-.1.586-.206.391-.232.683-.601.821-1.035.115-.346.171-.71.166-1.075 0-1.555-.889-3.391-2.113-4.54l.286-.172a4.2 4.2 0 0 1-.083-.815c0-.777.249-1.346.695-1.607s1.063-.185 1.738.203c1.501.858 2.722 2.983 2.722 4.718.012.375-.064.747-.223 1.087a1.2 1.2 0 0 1-.472.517l-.046.026a1.7 1.7 0 0 0-.248.686c.206-.033.405-.103.586-.206.39-.234.681-.603.818-1.037.117-.346.174-.708.169-1.073.008-1.918-1.333-4.26-3.006-5.221" opacity=".4" style="fill:#000;fill-opacity:1"/><path fill="#F7921E" d="m112.534 161.651 4.792-2.782c.354-.206.643-.06.646.323a1.35 1.35 0 0 1-.64 1.067l-4.798 2.773c-.355.203-.644.057-.644-.326a1.37 1.37 0 0 1 .644-1.055M120.725 156.922l4.792-2.785c.355-.203.644-.06.646.326a1.36 1.36 0 0 1-.193.61 1.36 1.36 0 0 1-.447.456l-4.798 2.779c-.354.207-.643.061-.643-.322a1.37 1.37 0 0 1 .643-1.064M128.92 152.19l4.795-2.782c.355-.207.644-.061.646.322a1.357 1.357 0 0 1-.64 1.067l-4.798 2.782c-.357.203-.643.057-.643-.326a1.38 1.38 0 0 1 .64-1.063M137.114 147.461l4.792-2.785c.355-.206.647-.06.647.326a1.36 1.36 0 0 1-.638 1.063l-4.801 2.782c-.354.204-.64.061-.64-.322.015-.216.081-.425.193-.609a1.36 1.36 0 0 1 .447-.455M145.314 142.731l4.792-2.782c.355-.206.644-.06.647.323a1.36 1.36 0 0 1-.638 1.067l-4.801 2.776c-.354.206-.643.06-.643-.323a1.38 1.38 0 0 1 .643-1.061M153.504 137.996l4.792-2.782c.355-.206.643-.06.646.326a1.36 1.36 0 0 1-.641 1.064l-4.797 2.782c-.355.202-.644.059-.644-.324a1.37 1.37 0 0 1 .644-1.066M161.699 133.267l4.792-2.785c.355-.203.643-.057.646.326a1.38 1.38 0 0 1-.64 1.058l-4.798 2.779c-.355.206-.644.06-.644-.323a1.373 1.373 0 0 1 .644-1.055" style="fill:#f7921e;fill:color(display-p3 .9686 .5725 .1176);fill-opacity:1"/><path fill="#E0E0E0" d="m167.72 136.984-.065 39.901-55.702 32.199v-39.901l55.756-32.199m.572-.992-56.899 32.859v41.225l56.845-32.859.069-41.225z" style="fill:#e0e0e0;fill:color(display-p3 .8784 .8784 .8784);fill-opacity:1"/><path fill="#E0E0E0" d="M119.502 205.392a.3.3 0 0 1-.203-.083.3.3 0 0 1-.083-.203v-40.673a.287.287 0 0 1 .488-.202.3.3 0 0 1 .083.202v40.673a.3.3 0 0 1-.083.203.3.3 0 0 1-.202.083M127.625 200.697a.286.286 0 0 1-.286-.285l.017-40.674a.285.285 0 0 1 .286-.285.285.285 0 0 1 .286.285l-.017 40.674a.286.286 0 0 1-.286.285M135.745 196.005a.286.286 0 0 1-.286-.286l.029-40.676a.285.285 0 0 1 .286-.286.285.285 0 0 1 .286.286l-.029 40.676a.286.286 0 0 1-.286.286M143.866 191.31a.3.3 0 0 1-.203-.083.3.3 0 0 1-.083-.203l.037-40.676a.286.286 0 0 1 .572 0l-.038 40.673a.27.27 0 0 1-.082.204.28.28 0 0 1-.203.085M151.985 186.615a.286.286 0 0 1-.287-.285l.05-40.674c0-.076.03-.148.083-.202a.29.29 0 0 1 .405 0 .3.3 0 0 1 .083.202l-.048 40.674a.286.286 0 0 1-.286.285M160.106 181.921a.28.28 0 0 1-.202-.085.28.28 0 0 1-.084-.202l.058-40.673a.285.285 0 0 1 .487-.202.28.28 0 0 1 .084.202l-.057 40.676a.3.3 0 0 1-.084.201.3.3 0 0 1-.202.083" style="fill:#e0e0e0;fill:color(display-p3 .8784 .8784 .8784);fill-opacity:1"/><path fill="#E0E0E0" d="M111.716 179.241a.29.29 0 0 1-.249-.143.285.285 0 0 1 .106-.389l56.29-32.498a.28.28 0 0 1 .216-.028.28.28 0 0 1 .209.237.28.28 0 0 1-.055.212.3.3 0 0 1-.084.073l-56.287 32.499a.3.3 0 0 1-.146.037M111.715 189.549a.3.3 0 0 1-.175-.058.287.287 0 0 1 .032-.476l56.291-32.499a.28.28 0 0 1 .212-.021.28.28 0 0 1 .198.342.3.3 0 0 1-.124.174l-56.288 32.498a.27.27 0 0 1-.146.04M111.716 199.854a.29.29 0 0 1-.249-.143.29.29 0 0 1 .106-.389l56.29-32.502a.3.3 0 0 1 .106-.036.294.294 0 0 1 .286.142.3.3 0 0 1 .028.218.3.3 0 0 1-.134.174l-56.287 32.498a.3.3 0 0 1-.146.038" style="fill:#e0e0e0;fill:color(display-p3 .8784 .8784 .8784);fill-opacity:1"/><path fill="#000" d="M152.738 146.269v10.178l8.435-4.869v-10.179z" opacity=".1" style="fill:#000;fill-opacity:1"/><path fill="#F7921E" d="M163.28 151.023s-.412.698-1.884 1.547l-7.434 4.289-.892-8.846 8.431-4.861.472 5.121c.086.812.212 2.027 1.307 2.75M161.51 143.129l-8.432 4.869v-1.56l8.432-4.87z" style="fill:#f7921e;fill:color(display-p3 .9686 .5725 .1176);fill-opacity:1"/><path fill="#000" d="m161.51 143.129-8.432 4.869v-1.56l8.432-4.87z" opacity=".1" style="fill:#000;fill-opacity:1"/><path fill="#455A64" d="M160.672 147.469a6 6 0 0 0-.194-.701c0-.025-.018-.051-.029-.077a.684.684 0 0 0-.12-.755c-.035-.031-.12-.065-.146 0-.058.222-.04.457.051.667a2.5 2.5 0 0 1-.246.44 4 4 0 0 1-.285.378c-.132.14-.332.342-.538.348a.25.25 0 0 1-.254-.194c.063-.092.126-.183.18-.286.136-.206.233-.434.286-.675a.26.26 0 0 0-.326-.306c-.232.055-.312.363-.358.572a1.34 1.34 0 0 0 0 .618 1.7 1.7 0 0 1-.177.231 1 1 0 0 1-.086.066.3.3 0 0 0 0-.074c0-.069-.103-.175-.174-.121-.183.146-.22.38-.334.573a.5.5 0 0 1-.101.122c-.048.044-.054.049-.077 0a1.4 1.4 0 0 0-.114-.286c-.034-.057-.152-.111-.198-.037a1.3 1.3 0 0 0-.154.364.28.28 0 0 0-.211-.094.28.28 0 0 0-.212.094 2.4 2.4 0 0 0-.375.534q-.045.08-.097.155l-.032.042a.1.1 0 0 1 0-.037 3.5 3.5 0 0 1 0-.477v-.029c0-.114-.248-.177-.248-.046a.3.3 0 0 0 0 .057 1.43 1.43 0 0 1-.655 1.038c-.106.077-.369.269-.509.198s-.103-.286-.097-.389c.023-.349.12-.69.286-.998.077-.152.191-.282.332-.378a.4.4 0 0 1 .303-.056c.134.048.119.202.086.314-.015.046.056.149.094.08.206-.377-.138-.718-.532-.572s-.572.532-.678.878c-.105.346-.245.769-.094 1.101.18.4.646.237.927.048.245-.163.452-.379.606-.631a.3.3 0 0 0 .051.062c.183.186.351.015.452-.154q.152-.31.374-.572c.021-.02.046-.034.063-.054a.7.7 0 0 1 .023.145c0 .109 0 .218.015.324s.199.186.234.062q.066-.349.168-.692c.075.158.172.303.37.22.197-.082.259-.388.38-.591a.2.2 0 0 0 .127.103.188.188 0 0 0 .159-.035.7.7 0 0 0 .217-.2l.023-.034a.5.5 0 0 0 .52.226c.283-.092.527-.275.695-.521q.202-.238.352-.514v.032q.112.386.151.785v.215a.7.7 0 0 0-.456 0 .72.72 0 0 0-.367.272c-.175.214-.232.637.08.766.26.108.557-.115.726-.286.278-.34.226-.849.143-1.258m-1.761-.589q.031-.131.094-.252a.3.3 0 0 1 .06-.083c.02-.017.094-.045.088-.048-.005-.003-.028.128-.039.163l-.069.18a3 3 0 0 1-.183.358q.01-.162.049-.318m1.143 1.867c-.126.068-.254.123-.268-.06-.024-.303.409-.672.703-.523a.7.7 0 0 1-.112.303 1 1 0 0 1-.314.268zM155.517 151.115a4.7 4.7 0 0 1-.343.766c-.123.18-.337.323-.366.552 0 .031.037.111.077.074q.305-.25.529-.572v-.026c-.043.258-.094.512-.12.769-.026.258-.063.529-.094.793-.032.263-.035.526-.083.778-.029.128.205.217.246.077q.031-.19.036-.383c.015-.14.032-.287.05-.427q.05-.394.094-.791.138-.769.191-1.548c.012-.111-.169-.174-.217-.062M157.41 151.121a.6.6 0 0 0-.212-.215c-.083-.046-.228-.1-.317-.043a.1.1 0 0 0-.029-.023c-.286-.074-.466.169-.592.381q-.172.319-.285.666c-.149.395-.286 1.069.134 1.355.374.255.809.029 1.043-.286.246-.355.382-.775.392-1.206a1.2 1.2 0 0 0-.134-.629m-.423 1.557c-.129.229-.386.524-.684.424-.171-.057-.209-.269-.215-.426-.004-.205.029-.41.098-.604q.103-.311.246-.609c.08-.168.22-.46.437-.479a.1.1 0 0 0 .023.019q.102.035.197.086a.3.3 0 0 1 .089.112 1 1 0 0 1 .086.437 2.14 2.14 0 0 1-.277 1.04M161.805 151.063c-.106-.229-.163-.48-.246-.718a1.22 1.22 0 0 0-.334-.594c-.049-.038-.146-.069-.183 0a2.4 2.4 0 0 0-.286.823 1 1 0 0 0-.134-.154.134.134 0 0 0-.169 0 .5.5 0 0 0-.109.148.85.85 0 0 0-.238-.326.13.13 0 0 0-.168 0c-.286.286-.212.813-.286 1.173a.43.43 0 0 1-.08.217c-.06.051-.08 0-.114-.06a1.1 1.1 0 0 1-.143-.421v-.165c0-.115-.258-.157-.255-.023.034.299-.034.601-.191.858-.077.117-.389.572-.524.286-.097-.192.052-.461.155-.621.113-.199.282-.36.486-.466.054-.031 0-.134-.057-.131-.303.014-.573.339-.704.571s-.252.603 0 .832c.286.287.621 0 .807-.24q.149-.196.239-.426v.02c.104.164.324.306.498.143.175-.163.164-.449.183-.649 0-.223.04-.444.118-.652.108.191.174.402.194.621.014.103.217.174.237.042a1.5 1.5 0 0 1 .083-.479q.109.152.192.319c.046.08.245.138.229 0a1.73 1.73 0 0 1 .194-.975q.127.22.191.464.087.312.215.611c.04.089.263.104.2-.028" style="fill:#455a64;fill:color(display-p3 .2706 .3529 .3922);fill-opacity:1"/><path fill="#37474F" d="M151.828 146.877a2.22 2.22 0 0 1 1.004-1.716.7.7 0 0 1 .727-.059l.454.269-.183.325v.035a2.2 2.2 0 0 1-1.004 1.729l-.208.366-.495-.285h-.017a.7.7 0 0 1-.231-.294.7.7 0 0 1-.047-.37" style="fill:#37474f;fill:color(display-p3 .2157 .2784 .3098);fill-opacity:1"/><path fill="#455A64" d="M154.328 146.01a2.21 2.21 0 0 1-1.003 1.731c-.555.32-1.004.066-1.004-.572a2.2 2.2 0 0 1 1.004-1.715c.551-.332 1.003-.078 1.003.556" style="fill:#455a64;fill:color(display-p3 .2706 .3529 .3922);fill-opacity:1"/><path fill="#000" d="M128.886 181.109v10.179l8.432-4.87v-10.179z" opacity=".1" style="fill:#000;fill-opacity:1"/><path fill="#F7921E" d="M139.426 185.852s-.412.698-1.882 1.547l-7.434 4.289-.892-8.864 8.435-4.861.472 5.121c.08.841.2 2.059 1.301 2.768" style="fill:#f7921e;fill:color(display-p3 .9686 .5725 .1176);fill-opacity:1"/><path fill="#F7921E" d="m137.659 177.969-8.435 4.869v-1.561l8.435-4.869z" style="fill:#f7921e;fill:color(display-p3 .9686 .5725 .1176);fill-opacity:1"/><path fill="#000" d="m137.659 177.969-8.435 4.869v-1.561l8.435-4.869z" opacity=".1" style="fill:#000;fill-opacity:1"/><path fill="#455A64" d="m136.632 183.553.08-.017c.121-.017.032-.189-.063-.183h-.083q-.036-.09-.074-.186a4.6 4.6 0 0 0-.824-1.429c-.054-.058-.185-.075-.188.031a5 5 0 0 1-.209 1.143 1.5 1.5 0 0 0-.089-.36c-.031-.086-.205-.16-.217-.02a.7.7 0 0 0 .072.389 5.5 5.5 0 0 1-.155 1.655c-.068.223-.194.544-.483.436q.024-.11.04-.201c.12-.589.335-1.587-.409-1.858a.079.079 0 0 0-.1.028c-.135.336-.186.7-.149 1.061-.019.382.114.756.369 1.041a.5.5 0 0 1-.166.257c-.223.154-.514-.214-.626-.363-.034-.045-.126-.106-.183-.051-.243.22-.257.589-.24.932a.13.13 0 0 0-.137-.029.49.49 0 0 0-.286.472c-.132-.231-.306-.389-.558-.223a.7.7 0 0 0-.286.366 1.28 1.28 0 0 0-.314-.733.466.466 0 0 0-.632 0 1.2 1.2 0 0 0-.252.764q-.014.217.04.429c.015.046.032.117.089.126s.077-.043.06-.095c-.083-.259.049-1.317.498-1.143.24.097.271.586.305.801.066.408.158.814.226 1.221.023.125.246.179.249.022 0-.46-.22-1.049.063-1.463.034-.053.123-.169.194-.143.072.025.109.146.138.202.083.175.128.366.217.538.049.094.237.149.237 0 0-.234-.143-.68.04-.884a4 4 0 0 1 .12.226c.038.077.241.152.235 0 0-.328-.112-.832.08-1.143.183.203.432.429.703.391.201-.028.301-.191.363-.375a.5.5 0 0 0 .365.022.5.5 0 0 0 .282-.233 2.7 2.7 0 0 0 .286-1.189q.029-.337.02-.675a.4.4 0 0 0 .114 0 .08.08 0 0 0 .048-.016.1.1 0 0 0 .029-.042q.163-.501.217-1.026c.237.333.429.696.572 1.078q.053.128.1.26a.86.86 0 0 0-.614.73.92.92 0 0 0 .549.806c.372.134.523-.269.512-.572a3 3 0 0 0-.175-.775m-2.668.637c-.05-.336-.017-.68.098-1 .417.257.234 1.05.163 1.43-.015.071-.026.16-.04.251a1.43 1.43 0 0 1-.221-.681m2.462.573c-.151.039-.286-.169-.363-.286-.212-.364.046-.704.38-.858q.113.327.146.672c.009.143.012.426-.163.472M136.978 181.483a5.4 5.4 0 0 0-.369-.832c-.074-.143-.151-.287-.22-.43-.068-.142-.12-.268-.188-.394-.04-.072-.215-.123-.209 0q.024.228.111.441c.058.146.12.286.183.434q.192.398.338.815c.043.14.057.346.251.332.194-.015.149-.232.103-.366M137.513 182.729a.3.3 0 0 0-.024-.08.1.1 0 0 0-.017-.028.2.2 0 0 0-.028-.054.13.13 0 0 0-.049-.037l-.06-.044-.04-.022a.1.1 0 0 0-.047-.01.1.1 0 0 0-.047.01.1.1 0 0 0-.029.019.1.1 0 0 0-.014.047.1.1 0 0 0 0 .048.4.4 0 0 0-.026.057v.069a.2.2 0 0 0 0 .06.188.188 0 0 0 .086.117q.076.043.163.052c.033.007.068 0 .097-.017l.023-.021a.1.1 0 0 0 .023-.057.3.3 0 0 0-.011-.109" style="fill:#455a64;fill:color(display-p3 .2706 .3529 .3922);fill-opacity:1"/><path fill="#37474F" d="M127.977 181.72a2.207 2.207 0 0 1 1.004-1.73.69.69 0 0 1 .726-.057l.458.271-.186.324v.035a2.2 2.2 0 0 1-.293.984 2.2 2.2 0 0 1-.708.745l-.206.366-.498-.286h-.017a.698.698 0 0 1-.28-.652" style="fill:#37474f;fill:color(display-p3 .2157 .2784 .3098);fill-opacity:1"/><path fill="#455A64" d="M130.474 180.854a2.2 2.2 0 0 1-1.004 1.716c-.551.319-1.003.066-1.003-.572a2.22 2.22 0 0 1 1.003-1.73c.555-.306 1.004-.052 1.004.586" style="fill:#455a64;fill:color(display-p3 .2706 .3529 .3922);fill-opacity:1"/><path fill="#F7921E" d="m147.82 171.724 15.283-8.826c1.018-.586 1.844-.197 1.844.858s-.826 2.41-1.844 2.996l-15.283 8.823c-1.017.59-1.844.201-1.844-.857s.827-2.408 1.844-2.994M126.09 199.791a.53.53 0 0 1-.286-.078l-4.861-2.81a.6.6 0 0 1-.284-.348.57.57 0 0 1 .054-.446.572.572 0 0 1 .802-.196l4.861 2.811a.568.568 0 0 1 .061.948.57.57 0 0 1-.347.119" style="fill:#f7921e;fill:color(display-p3 .9686 .5725 .1176);fill-opacity:1"/><path fill="#F7921E" d="M121.434 202.233a.57.57 0 0 1-.5-.858l4.309-7.794a.57.57 0 0 1 .777-.223.57.57 0 0 1 .224.777l-4.309 7.792a.576.576 0 0 1-.501.306" style="fill:#f7921e;fill:color(display-p3 .9686 .5725 .1176);fill-opacity:1"/><path fill="#F28F8F" d="M151.832 182.028a1.57 1.57 0 0 0-.46-1.055 2.04 2.04 0 0 0-1.112-.491 3.5 3.5 0 0 0-1.813.286 4.8 4.8 0 0 0-1.324.906c-.177.16-.354.32-.544.466-.099.077.047.235.144.178.429-.252.806-.573 1.223-.838a3.8 3.8 0 0 1 1.51-.572c.729-.106 1.693.097 1.896.915.068.412.052.833-.049 1.238a5.2 5.2 0 0 1-.383 1.209 5.8 5.8 0 0 1-1.53 2.002 4.6 4.6 0 0 1-1.964 1.095 3 3 0 0 1-1.873-.175 1.54 1.54 0 0 1-.638-.554 1.93 1.93 0 0 1-.237-1.012 5.1 5.1 0 0 1 .618-2.462 7 7 0 0 1 3.891-3.32c.226-.074.461-.14.692-.2a.151.151 0 0 0-.057-.286 5.7 5.7 0 0 0-2.696 1.107 7.5 7.5 0 0 0-2.042 2.198 5.75 5.75 0 0 0-.858 2.688c-.036.798.109 1.599.807 2.078a3.1 3.1 0 0 0 2.084.438 4.5 4.5 0 0 0 2.185-.969 6.5 6.5 0 0 0 1.852-2.131 5.33 5.33 0 0 0 .678-2.739M115.719 168.75l.589 1.25a.08.08 0 0 0 .052.052.1.1 0 0 0 .037.006.1.1 0 0 0 .036-.01l1.316-.502c.137-.052.191.14.091.326l-.949 1.786a.4.4 0 0 0-.049.226l.223 1.616c.026.169-.12.392-.243.375l-1.175-.146a.19.19 0 0 0-.154.091l-1.178 1.507c-.123.157-.266.1-.243-.097l.226-1.876a.2.2 0 0 0-.003-.09.2.2 0 0 0-.046-.079l-.952-.686c-.097-.071-.043-.329.094-.434l1.315-1.016a.4.4 0 0 0 .126-.194l.586-1.927c.063-.197.241-.297.301-.178" style="fill:#f28f8f;fill:color(display-p3 .949 .5608 .5608);fill-opacity:1"/><path fill="#455A64" d="m128.892 161.316 4.466-2.573c.189-.109.343-.032.343.175a.73.73 0 0 1-.343.571l-4.466 2.574c-.189.109-.343.031-.343-.174a.73.73 0 0 1 .343-.573M128.892 163.144l3.08-1.779c.191-.111.343-.034.343.171a.74.74 0 0 1-.343.572l-3.08 1.782c-.189.108-.343.031-.343-.175a.73.73 0 0 1 .343-.571M144.86 161.108l4.464-2.573c.188-.109.343-.032.343.174a.74.74 0 0 1-.343.572l-4.464 2.573c-.191.109-.343.031-.343-.175a.73.73 0 0 1 .343-.571M144.86 162.943l3.08-1.778c.188-.109.343-.032.343.175a.75.75 0 0 1-.103.327.75.75 0 0 1-.24.244l-3.08 1.779c-.191.111-.343.031-.343-.172a.73.73 0 0 1 .343-.575M113.254 189.663l4.463-2.573c.192-.111.343-.031.343.172a.73.73 0 0 1-.343.571l-4.463 2.574c-.192.112-.343.031-.343-.171a.73.73 0 0 1 .343-.573M113.254 191.499l3.079-1.778c.189-.109.343-.032.343.174a.73.73 0 0 1-.343.572l-3.079 1.778c-.192.109-.343.032-.343-.174a.72.72 0 0 1 .343-.572M153.229 176.905l4.463-2.573c.192-.112.344-.032.344.171a.73.73 0 0 1-.344.572l-4.463 2.574c-.191.112-.343.031-.343-.172a.75.75 0 0 1 .103-.327.75.75 0 0 1 .24-.245M153.229 178.741l3.08-1.779c.188-.108.343-.031.343.175a.737.737 0 0 1-.343.571l-3.08 1.779c-.191.109-.343.032-.343-.174a.73.73 0 0 1 .343-.572" style="fill:#455a64;fill:color(display-p3 .2706 .3529 .3922);fill-opacity:1"/><path fill="#F7921E" d="m127.642 169.808 6.059-3.545-6.096 9.976z" style="fill:#f7921e;fill:color(display-p3 .9686 .5725 .1176);fill-opacity:1"/><path fill="#000" d="m127.642 169.808 6.059-3.545-6.096 9.976z" opacity=".3" style="fill:#000;fill-opacity:1"/><path fill="#F7921E" d="m105.9 173.343 3.757-2.176c.197-.115.36-.035.36.183a.759.759 0 0 1-.357.598l-3.76 2.175c-.2.114-.36.032-.36-.183a.768.768 0 0 1 .36-.597M105.9 174.998l2.771-1.604c.197-.115.36-.035.363.183a.77.77 0 0 1-.36.598l-2.774 1.601c-.2.117-.36.034-.36-.181a.8.8 0 0 1 .108-.342.8.8 0 0 1 .252-.255M105.9 183.634l3.757-2.177c.197-.114.36-.034.36.183a.756.756 0 0 1-.357.598l-3.76 2.176c-.2.114-.36.034-.36-.183a.77.77 0 0 1 .36-.597M105.9 185.288l2.771-1.604c.197-.114.36-.034.363.183a.77.77 0 0 1-.36.597l-2.774 1.605c-.2.115-.36.032-.36-.183a.771.771 0 0 1 .36-.598M105.9 193.944l3.757-2.177c.197-.114.36-.034.36.184a.756.756 0 0 1-.357.597l-3.76 2.176c-.2.115-.36.031-.36-.183a.768.768 0 0 1 .36-.597M105.9 195.599l2.771-1.604c.197-.114.36-.035.363.183a.77.77 0 0 1-.36.598l-2.774 1.601c-.2.114-.36.034-.36-.181a.8.8 0 0 1 .108-.342.8.8 0 0 1 .252-.255M105.9 204.228l3.757-2.176c.197-.117.36-.034.36.18a.76.76 0 0 1-.357.601l-3.76 2.176c-.2.114-.36.031-.36-.183a.78.78 0 0 1 .36-.598M105.9 205.884l2.771-1.604c.197-.117.36-.035.363.183a.77.77 0 0 1-.36.598l-2.774 1.601c-.2.114-.36.034-.36-.181a.8.8 0 0 1 .108-.342.8.8 0 0 1 .252-.255" style="fill:#f7921e;fill:color(display-p3 .9686 .5725 .1176);fill-opacity:1"/><g fill="#000" opacity=".4"><path d="m105.9 174.998 2.771-1.604c.197-.115.36-.035.363.183a.77.77 0 0 1-.36.598l-2.774 1.601c-.2.117-.36.034-.36-.18a.8.8 0 0 1 .108-.343.8.8 0 0 1 .252-.255M105.9 185.288l2.771-1.604c.197-.114.36-.034.363.184a.77.77 0 0 1-.36.597l-2.774 1.604c-.2.114-.36.032-.36-.183a.8.8 0 0 1 .108-.342.8.8 0 0 1 .252-.256M105.9 195.6l2.771-1.605c.197-.114.36-.034.363.183a.77.77 0 0 1-.36.598l-2.774 1.601c-.2.114-.36.034-.36-.18a.759.759 0 0 1 .36-.597M105.9 205.884l2.771-1.604c.197-.117.36-.035.363.183a.77.77 0 0 1-.36.598l-2.774 1.601c-.2.114-.36.034-.36-.18a.78.78 0 0 1 .36-.598" style="fill:#000;fill-opacity:1"/></g><path fill="#FAFAFA" d="M202.955 155.28c0 2.979-1.037 6.277-2.72 9.207-.263.466-.549.925-.845 1.372a22 22 0 0 1-.936 1.288 21.183 21.183 0 0 1-1.326 1.548 16.3 16.3 0 0 1-3.584 2.885 11 11 0 0 1-1.96.898 9 9 0 0 1-.65.184 5.66 5.66 0 0 1-3.355-.105c-2.104-.778-3.445-3.028-3.449-6.409 0-6.011 4.215-13.303 9.414-16.301s9.411-.571 9.411 5.433" style="fill:#fafafa;fill:color(display-p3 .9804 .9804 .9804);fill-opacity:1"/><path fill="#263238" d="M200.449 164.115q-.105.191-.21.376a12 12 0 0 1-.459.751l-.376.613q-.45.668-.934 1.292l-.087.105-.507-2.795a6.6 6.6 0 0 1 2.573-.342" style="fill:#263238;fill:color(display-p3 .149 .1961 .2196);fill-opacity:1"/><path fill="#F7921E" d="m199.781 165.243-.376.612q-.451.67-.935 1.292l-.087.105q-.388.503-.804.966l-.436.477a16.2 16.2 0 0 1-3.583 2.885q-.936.547-1.962.898a10 10 0 0 1-.649.184 6.1 6.1 0 0 1-2.461.128 4.5 4.5 0 0 1-1.949-.789c.101-.778.311-1.386.653-1.664 1.24-.977 4.298-4.249 7.168-4.978 1.127-.293 2.254-.62 3.516-.902.676-.154 1.338.102 1.905.786" style="fill:#f7921e;fill:color(display-p3 .9686 .5725 .1176);fill-opacity:1"/><path fill="#fff" d="m199.781 165.243-.376.612q-.451.67-.935 1.292l-.087.105q-.388.503-.804.966l-.436.477a16.2 16.2 0 0 1-3.583 2.885q-.936.547-1.962.898a10 10 0 0 1-.649.184 6.1 6.1 0 0 1-2.461.128 4.5 4.5 0 0 1-1.949-.789c.101-.778.311-1.386.653-1.664 1.24-.977 4.298-4.249 7.168-4.978 1.127-.293 2.254-.62 3.516-.902.676-.154 1.338.102 1.905.786" opacity=".2" style="fill:#fff;fill-opacity:1"/><path fill="#263238" d="M189.247 155.445q.042.125.102.24c-1.26.575-2.255 2.051-.703 2.983-.94.751-.518 1.878.477 2.325.173.207.026.512 0 .782a.84.84 0 0 0 .318.731c.11.085.239.142.376.165.138.022.278.01.411-.036-.069.451.251 1.154.826 1.127l-.094-1.221s-.154-1.074.398-1.314c.477-.11.969.097 1.454.112 1.769.196 3.246-1.059 4.263-2.378a.47.47 0 0 1 .29-.247c.575-.339.609-1.105.428-1.684.228.149.504.204.772.157a1.07 1.07 0 0 0 .494-1.87.847.847 0 0 0 1.014-1.307.452.452 0 0 1-.493.548.45.45 0 0 1-.258-.116c-.232-.225-.158-.608-.071-.92a.92.92 0 0 0-.113-.917c-.274-.474-1.292-.752-1.919-.376a1.365 1.365 0 0 0-1.053-1.443c-.863-.285-1.596.324-2.359.587-1.284-.47-2.783.267-2.798 1.736-1.383.071-2.236.931-1.762 2.336" style="fill:#263238;fill:color(display-p3 .149 .1961 .2196);fill-opacity:1"/><path fill="#FFA8A7" d="M189.653 163.188c.71.334 1.307-.639 1.307-.639l.354 4.662s.375.925 2.757.883c1.856-.03 3.19-1.127 1.746-2.325l-.075-1.42q.722-.178 1.387-.508c.653-.376 1.176-1.566 1.405-2.701.375-1.822.097-3.831-.579-7.021-1.1 1.145-3.49-.597-5.473 1.563.541 1.059-.237 3.005-.947 3.422.229.921.113 1.364-.154 1.462-.469.172-.785-.47-1.059-.718-.275-.248-1.157-.462-1.556.688-.398 1.149.264 2.362.887 2.652" style="fill:#ffa8a7;fill:color(display-p3 1 .6588 .6549);fill-opacity:1"/><path fill="#F28F8F" d="M195.742 164.349c-.375.067-1.78.105-2.284-.106a3.22 3.22 0 0 1-1.935-1.811c.036.436.179.856.416 1.223.239.367.565.669.948.878.881.49 1.901.673 2.896.518z" style="fill:#f28f8f;fill:color(display-p3 .949 .5608 .5608);fill-opacity:1"/><path fill="#263238" d="m194.341 156.989-.82.811a.71.71 0 0 1 .132-.837.43.43 0 0 1 .35-.163.43.43 0 0 1 .338.189M197.767 156.29l-.992-.056a.608.608 0 0 1 .587-.548.48.48 0 0 1 .405.604" style="fill:#263238;fill:color(display-p3 .149 .1961 .2196);fill-opacity:1"/><path fill="#37474F" d="M193.89 158.725a.332.332 0 0 0 .127.285.33.33 0 0 0 .305.06.58.58 0 0 0 .375-.582.33.33 0 0 0-.128-.284.347.347 0 0 0-.307-.058.59.59 0 0 0-.372.579M196.854 157.662a.35.35 0 0 0 .03.157q.035.076.099.127a.35.35 0 0 0 .146.068.3.3 0 0 0 .161-.007.58.58 0 0 0 .376-.582.33.33 0 0 0-.127-.284.334.334 0 0 0-.306-.058.58.58 0 0 0-.379.579" style="fill:#37474f;fill:color(display-p3 .2157 .2784 .3098);fill-opacity:1"/><path fill="#F28F8F" d="m195.34 157.545.59 2.724 1.338-.954z" style="fill:#f28f8f;fill:color(display-p3 .949 .5608 .5608);fill-opacity:1"/><path fill="#B16668" d="m194.819 161.399 1.457.079a.7.7 0 0 1-.066.27.7.7 0 0 1-.409.362.748.748 0 0 1-.982-.711" style="fill:#b16668;fill:color(display-p3 .6941 .4 .4078);fill-opacity:1"/><path fill="#F28F8F" d="M195.539 162.143a.7.7 0 0 0 .376-.078.867.867 0 0 0-1.06-.459.77.77 0 0 0 .684.537" style="fill:#f28f8f;fill:color(display-p3 .949 .5608 .5608);fill-opacity:1"/><path fill="#263238" d="M188.473 172.79a4.5 4.5 0 0 1-2.585-1.342 13 13 0 0 1 1.289-1.127 6.06 6.06 0 0 1 1.296 2.469" style="fill:#263238;fill:color(display-p3 .149 .1961 .2196);fill-opacity:1"/><path fill="#F7921E" d="M197.748 149.081a8.1 8.1 0 0 0-3.944 1.217c-5.046 2.912-9.152 10.023-9.152 15.85 0 3.031 1.127 5.192 3.107 5.92.506.187 1.042.28 1.582.275a6.2 6.2 0 0 0 1.469-.188q.297-.07.611-.173a10.4 10.4 0 0 0 1.879-.853c1.282-.76 2.448-1.7 3.464-2.791a21.55 21.55 0 0 0 3.035-4.106c1.71-2.983 2.653-6.161 2.653-8.952 0-3.825-1.797-6.199-4.689-6.199m0-.522c3.088 0 5.207 2.464 5.207 6.721 0 2.979-1.037 6.277-2.72 9.207a21.8 21.8 0 0 1-3.107 4.207 16.3 16.3 0 0 1-3.583 2.886c-.623.363-1.28.664-1.962.898a9 9 0 0 1-.65.184 6.7 6.7 0 0 1-1.593.203 5 5 0 0 1-1.761-.308c-2.104-.778-3.445-3.028-3.449-6.409 0-6.011 4.215-13.303 9.415-16.301a8.5 8.5 0 0 1 4.203-1.288" style="fill:#f7921e;fill:color(display-p3 .9686 .5725 .1176);fill-opacity:1"/><path fill="#F7921E" d="M203.094 144.528c2.126-1.229 3.854-.233 3.854 2.22s-1.728 5.443-3.854 6.672-3.851.233-3.851-2.224 1.724-5.443 3.851-6.668" style="fill:#f7921e;fill:color(display-p3 .9686 .5725 .1176);fill-opacity:1"/><path fill="#fff" d="M203.094 144.528c2.126-1.229 3.854-.233 3.854 2.22s-1.728 5.443-3.854 6.672-3.851.233-3.851-2.224 1.724-5.443 3.851-6.668" opacity=".3" style="fill:#fff;fill-opacity:1"/><path fill="#fff" d="m202.403 151.358-1.461-2.333.721-.838.86 1.383 2.092-2.442.598.95z" style="fill:#fff;fill-opacity:1"/><path fill="#FAFAFA" d="M202.955 128.228c0 2.979-1.037 6.273-2.72 9.207a22 22 0 0 1-1.781 2.66c-.323.417-.582.725-.886 1.067l-.44.481a16.3 16.3 0 0 1-3.584 2.885c-.622.363-1.279.662-1.96.894a8 8 0 0 1-.65.184 5.65 5.65 0 0 1-3.359-.101c-2.1-.778-3.441-3.028-3.445-6.413 0-6.011 4.215-13.299 9.414-16.297s9.411-.571 9.411 5.433" style="fill:#fafafa;fill:color(display-p3 .9804 .9804 .9804);fill-opacity:1"/><path fill="#37474F" d="M188.33 131.225a8.5 8.5 0 0 0 .038 3.31c.231 1.086.319 2.197.262 3.306-.023.218-.045.477.124.62a.45.45 0 0 0 .282.069.44.44 0 0 0 .263-.122c.137-.145.24-.318.3-.507.064.792.132 1.589.199 2.382a1.4 1.4 0 0 0 .223.777 1.12 1.12 0 0 0 1.232.211 3.4 3.4 0 0 0 1.295-.883 3.4 3.4 0 0 0 .76-1.371 6.63 6.63 0 0 0 .071-3.141 13 13 0 0 0-1.458-4.05 12 12 0 0 1-1.082-2.073 2.3 2.3 0 0 0-.375-.827c-.102-.12-.192-.083-.324-.026q-.195.078-.375.188a2.8 2.8 0 0 0-.631.541 3.4 3.4 0 0 0-.481.698 4 4 0 0 0-.312.793 1 1 0 0 0-.011.105" style="fill:#37474f;fill:color(display-p3 .2157 .2784 .3098);fill-opacity:1"/><path fill="#FFBDA7" d="M200.235 137.435a22 22 0 0 1-1.781 2.66l-.838-2.408c1.135-.346 1.875-.523 2.619-.252" style="fill:#ffbda7;fill:color(display-p3 1 .7412 .6549);fill-opacity:1"/><path fill="#F7921E" d="M199.333 138.423a22 22 0 0 1-2.261 2.84 16.2 16.2 0 0 1-3.58 2.882c-.622.366-1.281.667-1.965.898a8 8 0 0 1-.646.184 10.8 10.8 0 0 0-1.014-4.437s.781-.417 2.254-1.228a.3.3 0 0 1 .048-.034c1.187-.815 1.988-.669 4.174-1.605.038-.018-.267-.176-.229-.191l1.431-.428q.934.499 1.788 1.119" style="fill:#f7921e;fill:color(display-p3 .9686 .5725 .1176);fill-opacity:1"/><path fill="#455A64" d="M192.06 137.052c-.177-.665-1.003-1.127-1.78-2.299s-1.785-3.757-.196-4.952c-.293-1.551.951-3.46 2.648-4.222 2.232-1.003 4.843-.864 6.353 1.044 1.784 2.254-.06 4.407-.06 4.407z" style="fill:#455a64;fill:color(display-p3 .2706 .3529 .3922);fill-opacity:1"/><path fill="#FFBDA7" d="M198.796 134.595a3.1 3.1 0 0 1-.661 1.308c-.376.462-.921.71-1.8 1.01l.027.601v1.469s1.063 1.251 1.127 2.168l-.44.481a10.23 10.23 0 0 1-4.932-1.604v-.098l-.049-1.007-.109-2.461-.019-.691a.6.6 0 0 1-.113.259.96.96 0 0 1-.376.305 1.058 1.058 0 0 1-.893.049l-.064-.034a.3.3 0 0 1-.094-.049.3.3 0 0 1-.076-.045.4.4 0 0 1-.063-.045l-.061-.049a1.78 1.78 0 0 1-.606-.937 1.76 1.76 0 0 1 .077-1.114c.218-.522.808-.981 1.251-.804.444.176.503.454.699.77.195.315 1.104-.65.473-2.284a2.97 2.97 0 0 0 .906-2.63c.326-1.187 2.532-1.337 2.918-.89.323-.752.286-1.199.909-1.007.624.192 1.676.612 2.044 3.197a10.9 10.9 0 0 1-.075 4.132" style="fill:#ffbda7;fill:color(display-p3 1 .7412 .6549);fill-opacity:1"/><path fill="#B16668" d="m194.923 134.351 1.315.038a.863.863 0 0 1-.861.751c-.36-.015-.518-.349-.454-.789" style="fill:#b16668;fill:color(display-p3 .6941 .4 .4078);fill-opacity:1"/><path fill="#F28F8F" d="M195.75 135.072a.565.565 0 0 0-.515-.504.6.6 0 0 0-.256.035l-.064.03a.506.506 0 0 0 .463.518.7.7 0 0 0 .372-.079" style="fill:#f28f8f;fill:color(display-p3 .949 .5608 .5608);fill-opacity:1"/><path fill="#F0997A" d="m196.147 130.888.305 2.569 1.228-.834z" style="fill:#f0997a;fill:color(display-p3 .9412 .6 .4784);fill-opacity:1"/><path fill="#263238" d="M197.481 131.011a.34.34 0 0 0 .108.299.34.34 0 0 0 .309.077.57.57 0 0 0 .429-.533.337.337 0 0 0-.251-.375.35.35 0 0 0-.163-.001.58.58 0 0 0-.432.533M194.434 132.044a.337.337 0 0 0 .251.375.34.34 0 0 0 .162.001.58.58 0 0 0 .432-.533.33.33 0 0 0-.018-.162.35.35 0 0 0-.236-.212.33.33 0 0 0-.163-.002.57.57 0 0 0-.428.533" style="fill:#263238;fill:color(display-p3 .149 .1961 .2196);fill-opacity:1"/><path fill="#F0997A" d="M196.357 136.913a5.84 5.84 0 0 1-2.629-.121 2.6 2.6 0 0 1-1.232-1.021s-.091.834 1.153 1.413c.969.454 2.727.334 2.727.334z" style="fill:#f0997a;fill:color(display-p3 .9412 .6 .4784);fill-opacity:1"/><path fill="#263238" d="m198.281 129.742-.939.06a.743.743 0 0 1 .612-.552c.259-.019.405.203.327.492M195.17 130.576l-1.025.683a.73.73 0 0 1 .349-.773c.282-.188.586-.147.676.09" style="fill:#263238;fill:color(display-p3 .149 .1961 .2196);fill-opacity:1"/><path fill="#455A64" d="M196.918 127.183c.188 1.022-1.003 3.381-2.6 4.467-1.596 1.086-2.63.868-2.63.868s-.184-3.265 1.402-4.508c1.585-1.244 3.828-.827 3.828-.827" style="fill:#455a64;fill:color(display-p3 .2706 .3529 .3922);fill-opacity:1"/><path fill="#FFBDA7" d="M191.583 145.422a7 7 0 0 1-.65.184 5.64 5.64 0 0 1-3.358-.101 3.6 3.6 0 0 1-1.04-.823c1.152-2.728 1.761-3.246 3.332-3.892 1.063.778 1.54 3.43 1.716 4.632" style="fill:#ffbda7;fill:color(display-p3 1 .7412 .6549);fill-opacity:1"/><path fill="#F7921E" d="M197.748 122.029a8.15 8.15 0 0 0-3.944 1.213c-5.046 2.916-9.152 10.023-9.152 15.85 0 3.036 1.127 5.196 3.107 5.924a4.5 4.5 0 0 0 1.582.275 6.3 6.3 0 0 0 1.469-.188q.297-.073.611-.173a10.4 10.4 0 0 0 1.879-.853 15.6 15.6 0 0 0 3.464-2.795 21.39 21.39 0 0 0 1.296-1.506c.293-.372.62-.834.913-1.263s.571-.886.826-1.337c1.71-2.979 2.653-6.157 2.653-8.948 0-3.825-1.797-6.199-4.689-6.199m0-.522c3.088 0 5.207 2.46 5.207 6.721 0 2.979-1.037 6.273-2.72 9.207-.263.466-.548.924-.846 1.368-.296.443-.611.875-.934 1.292s-.583.725-.887 1.067l-.44.481a16.3 16.3 0 0 1-3.583 2.885c-.623.363-1.28.662-1.962.894a8 8 0 0 1-.65.184 6.7 6.7 0 0 1-1.593.203 5 5 0 0 1-1.761-.304c-2.104-.778-3.445-3.028-3.449-6.413 0-6.011 4.215-13.299 9.415-16.297a8.5 8.5 0 0 1 4.203-1.288" style="fill:#f7921e;fill:color(display-p3 .9686 .5725 .1176);fill-opacity:1"/><path fill="#FAFAFA" d="M203.094 119.035c2.13-1.229 3.854-.229 3.854 2.224s-1.728 5.443-3.854 6.672c-2.127 1.228-3.851.233-3.851-2.224s1.724-5.425 3.851-6.672" style="fill:#fafafa;fill:color(display-p3 .9804 .9804 .9804);fill-opacity:1"/><path fill="#E0E0E0" d="M201.373 128.626a3.7 3.7 0 0 0 1.807-.549c2.168-1.254 3.934-4.312 3.934-6.818 0-1.247-.429-2.186-1.21-2.63-.782-.443-1.811-.375-2.893.271-2.171 1.251-3.937 4.309-3.937 6.815 0 1.251.432 2.186 1.214 2.629.33.189.705.287 1.085.282m3.434-9.948c.322-.005.64.075.921.233.672.376 1.044 1.225 1.044 2.348 0 2.401-1.691 5.327-3.757 6.525-.973.564-1.878.662-2.555.271-.676-.391-1.044-1.221-1.044-2.348 0-2.397 1.691-5.327 3.757-6.525a3.3 3.3 0 0 1 1.634-.504" style="fill:#e0e0e0;fill:color(display-p3 .8784 .8784 .8784);fill-opacity:1"/><path fill="#FAFAFA" d="M202.929 101.19c0 2.979-1.037 6.278-2.72 9.208-.263.466-.549.924-.845 1.371-.297.447-.613.872-.936 1.289-.322.417-.582.725-.886 1.067-.147.161-.293.327-.439.481a16.4 16.4 0 0 1-3.585 2.885c-.622.364-1.279.664-1.961.898a9 9 0 0 1-.649.184 5.67 5.67 0 0 1-3.359-.106c-2.1-.777-3.442-3.027-3.445-6.408 0-6.011 4.215-13.303 9.414-16.3 5.199-2.999 9.411-.572 9.411 5.431" style="fill:#fafafa;fill:color(display-p3 .9804 .9804 .9804);fill-opacity:1"/><path fill="#263238" d="m200.43 110.026-.21.376a12 12 0 0 1-.458.751c-.162.245-.259.41-.376.613a21 21 0 0 1-.932 1.292l-.086.105-.507-2.795a6.6 6.6 0 0 1 2.569-.342" style="fill:#263238;fill:color(display-p3 .149 .1961 .2196);fill-opacity:1"/><path fill="#37474F" d="M199.762 111.153c-.128.203-.259.41-.376.613q-.445.668-.931 1.292l-.086.105q-.389.502-.805.966c-.142.157-.292.323-.435.473a16.1 16.1 0 0 1-3.584 2.889c-.622.364-1.28.664-1.961.898q-.331.106-.65.184a6.1 6.1 0 0 1-2.461.128 4.5 4.5 0 0 1-1.95-.789c.102-.778.312-1.387.654-1.665 1.24-.976 1.946-1.596 2.566-2.043a9.34 9.34 0 0 1 4.583-2.938c1.127-.293 2.254-.62 3.516-.902.692-.15 1.353.106 1.92.789" style="fill:#37474f;fill:color(display-p3 .2157 .2784 .3098);fill-opacity:1"/><path fill="#263238" d="M189.607 100.717c-1.231 2.032-.777 4.651.121 6.386.402.77 1.01 2.206 1.345 3.081 0 0 2.16.811 6.905-6.048.86-1.24.376-4.223-.782-5.331-1.626-1.578-5.161-1.946-7.589 1.912" style="fill:#263238;fill:color(display-p3 .149 .1961 .2196);fill-opacity:1"/><path fill="#C8856A" d="M189.633 109.098c.711.335 1.308-.638 1.308-.638l.342 4.662s0 .604 1.232 1.029c.808.278 2.487.116 3.441.939.402-.886.725-2.423-.169-3.411l-.075-1.42a6.7 6.7 0 0 0 1.386-.507 3 3 0 0 0 1.563-2.096c.154-.727.22-1.47.195-2.213a30 30 0 0 0-.642-4.271c-.079-.425-.545-1.398-.92-1.552-.947-.376-.835 1.108-1.935 1.484s-4.208-.376-3.566.958a6.2 6.2 0 0 1-.27 3.648 2.5 2.5 0 0 1-.353.646c-.308.375-.589-.353-.86-.601s-1.157-.462-1.556.687c-.398 1.15.275 2.367.879 2.656" style="fill:#c8856a;fill:color(display-p3 .7843 .5216 .4157);fill-opacity:1"/><path fill="#AF6152" d="M195.723 110.259c-.838.192-2.434.128-3.061-.375a4.7 4.7 0 0 1-1.034-1.229c.105.654.427 1.253.917 1.698 1.281 1.011 3.219.605 3.219.605z" style="fill:#af6152;fill:color(display-p3 .6863 .3804 .3216);fill-opacity:1"/><path fill="#263238" d="M191.614 105.443c-.098.695.68 2.371 1.878 2.254s1.423-.898 2.483-1.176c.943-.247 1.533.061 2.006-.131.374-.228.682-.549.894-.932 0 0 .267 2.153-.237 3.216-.668 1.409-2.434 1.721-3.493 1.818a3.84 3.84 0 0 1-2.63-.627c-.669-.485-1.075-1.322-1.386-2.168-.312-.845-.812-1.923-.812-1.923l1.259-.406M194.033 103.219l-.819.812a.71.71 0 0 1 .135-.842.41.41 0 0 1 .349-.161.42.42 0 0 1 .335.191M197.748 102.201l-.992-.06a.61.61 0 0 1 .587-.545.5.5 0 0 1 .193.068q.09.055.148.142a.47.47 0 0 1 .064.395M193.684 104.654a.343.343 0 0 0 .435.346.59.59 0 0 0 .376-.583.338.338 0 0 0-.436-.341.58.58 0 0 0-.375.578M196.835 103.572a.342.342 0 0 0 .436.346.59.59 0 0 0 .375-.582.33.33 0 0 0-.126-.285.34.34 0 0 0-.306-.057.58.58 0 0 0-.379.578" style="fill:#263238;fill:color(display-p3 .149 .1961 .2196);fill-opacity:1"/><path fill="#AF6152" d="m195.269 103.651.594 2.731 1.333-.954c-.515-.8-1.345-1.611-1.927-1.777M195.107 107.434l1.462.079a.713.713 0 0 1-.477.63.753.753 0 0 1-.985-.709" style="fill:#af6152;fill:color(display-p3 .6863 .3804 .3216);fill-opacity:1"/><path fill="#F28F8F" d="M195.833 108.178a.7.7 0 0 0 .375-.079.87.87 0 0 0-1.063-.459.76.76 0 0 0 .688.538" style="fill:#f28f8f;fill:color(display-p3 .949 .5608 .5608);fill-opacity:1"/><path fill="#263238" d="M195.968 115.09c-.526-.21-1.92-.507-2.033-.083-.078.301-.304 1.379-.695 1.462a3.572 3.572 0 0 1-2.869-1.078 2.16 2.16 0 0 1-.643-1.188s.462-1.19.751-1.761.376-.894.684-1.015l.087.985c.232.379.563.689.957.894.936.477 2.811.766 3.761 1.784" style="fill:#263238;fill:color(display-p3 .149 .1961 .2196);fill-opacity:1"/><path fill="#263238" d="M195.967 115.09c.286-.398.752-1.878 1.011-1.878.511-.03.864.297.864 0s-.376-.856-.849-1.619c-.356-.586-.92-.996-1.254-.969l.078 1.356c.156.357.246.738.267 1.127a4.7 4.7 0 0 1-.117 1.983M188.454 118.701a4.5 4.5 0 0 1-2.584-1.342q.607-.605 1.289-1.127a6.1 6.1 0 0 1 1.295 2.469" style="fill:#263238;fill:color(display-p3 .149 .1961 .2196);fill-opacity:1"/><path fill="#F7921E" d="M197.729 94.992a8.1 8.1 0 0 0-3.944 1.217c-5.045 2.912-9.151 10.023-9.151 15.85 0 3.031 1.127 5.191 3.106 5.92.507.187 1.042.28 1.582.274a6.2 6.2 0 0 0 1.469-.187c.199-.045.402-.106.612-.173a10.3 10.3 0 0 0 1.878-.853 15.6 15.6 0 0 0 3.464-2.791 21.55 21.55 0 0 0 2.209-2.773c.29-.432.572-.886.827-1.333 1.709-2.983 2.652-6.161 2.652-8.953 0-3.824-1.796-6.198-4.688-6.198m0-.522c3.087 0 5.206 2.464 5.206 6.72 0 2.98-1.036 6.278-2.72 9.208a21.422 21.422 0 0 1-1.78 2.66c-.323.417-.582.725-.887 1.067-.146.161-.292.327-.439.481a16.3 16.3 0 0 1-3.585 2.885q-.935.547-1.96.898a9 9 0 0 1-.65.184 6.7 6.7 0 0 1-1.593.203c-.602.004-1.2-.1-1.765-.308-2.1-.778-3.442-3.028-3.445-6.409 0-6.011 4.214-13.303 9.413-16.3a8.5 8.5 0 0 1 4.205-1.29" style="fill:#f7921e;fill:color(display-p3 .9686 .5725 .1176);fill-opacity:1"/><path fill="#F7921E" d="M203.075 92.028c2.115-1.218 3.824-.233 3.824 2.205s-1.717 5.387-3.824 6.615c-2.108 1.229-3.825.229-3.825-2.205s1.714-5.41 3.825-6.615" style="fill:#f7921e;fill:color(display-p3 .9686 .5725 .1176);fill-opacity:1"/><path fill="#fff" d="M203.075 92.028c2.115-1.218 3.824-.233 3.824 2.205s-1.717 5.387-3.824 6.615c-2.108 1.229-3.825.229-3.825-2.205s1.714-5.41 3.825-6.615" opacity=".3" style="fill:#fff;fill-opacity:1"/><path fill="#fff" d="m202.403 98.933-1.461-2.33.721-.837.86 1.378 2.092-2.441.598.95z" style="fill:#fff;fill-opacity:1"/></svg>