<svg xmlns="http://www.w3.org/2000/svg" width="257" height="256" fill="none"><path stroke="#D5D5D5" d="M47.31 218.094c-22.474-11.767-33.56-27.115-33.56-42.332s11.084-30.568 33.56-42.341c22.464-11.767 51.94-17.663 81.442-17.663 29.503 0 58.977 5.896 81.439 17.663 22.473 11.773 33.558 27.122 33.559 42.337s-11.083 30.564-33.559 42.336c-22.465 11.767-51.939 17.664-81.441 17.664s-58.976-5.897-81.44-17.664Z" style="stroke:#d5d5d5;stroke:color(display-p3 .8353 .8353 .8353);stroke-opacity:1"/><path fill="#263238" d="M49.528 100.046v88.98l91.069-52.582V55.553L72.88 94.649l-2.34-6.738z" style="fill:#263238;fill:color(display-p3 .149 .1961 .2196);fill-opacity:1"/><path fill="#fff" d="m49.528 189.026 4.669-80.896 91.069-52.577-4.669 80.891z" style="fill:#fff;fill-opacity:1"/><path fill="#37474F" d="m49.528 189.026 7.004-79.544L147.6 56.899l-7.004 79.545z" style="fill:#37474f;fill:color(display-p3 .2157 .2784 .3098);fill-opacity:1"/><path fill="#F7921E" d="M73.858 117.33v88.981l91.074-52.583v-80.89L97.21 111.933l-2.335-6.738z" style="fill:#f7921e;fill:color(display-p3 .9686 .5725 .1176);fill-opacity:1"/><path fill="#000" d="M73.858 117.33v88.981l91.074-52.583v-80.89L97.21 111.933l-2.335-6.738z" opacity=".1" style="fill:#000;fill-opacity:1"/><path fill="#EBEBEB" d="M106.933 175.243a2.146 2.146 0 0 1-.947-1.705V62.521a2.206 2.206 0 0 1 1.024-1.74l69.693-40.25a1.89 1.89 0 0 1 2.893 1.67v111.006a2.22 2.22 0 0 1-1.024 1.741l-69.688 40.243a2.15 2.15 0 0 1-1.951.052" style="fill:#ebebeb;fill:color(display-p3 .9216 .9216 .9216);fill-opacity:1"/><path fill="#EBEBEB" d="m107.875 64.65 28.309-18.524-1.885-1.085-27.305 15.765a2.22 2.22 0 0 0-1.024 1.74v1.024z" style="fill:#ebebeb;fill:color(display-p3 .9216 .9216 .9216);fill-opacity:1"/><path fill="#E0E0E0" d="m117.311 67.897-11.028-6.37c-.183.3-.285.642-.297.994v111.001a1.884 1.884 0 0 0 1.923 1.958c.344-.006.679-.106.97-.289l8.432-4.864z" style="fill:#e0e0e0;fill:color(display-p3 .8784 .8784 .8784);fill-opacity:1"/><path fill="#E6E6E6" d="m108.884 175.192 69.703-40.244a2.21 2.21 0 0 0 1.024-1.74V22.201c0-.64-.45-.901-1.024-.579l-69.708 40.244a2.23 2.23 0 0 0-1.024 1.745v111.002c.02.63.471.901 1.029.579" style="fill:#e6e6e6;fill:color(display-p3 .902 .902 .902);fill-opacity:1"/><path fill="#F5F5F5" d="m113.661 89.226 16.737-9.661c1.111-.64 2.012-.184 2.012 1.024a4.3 4.3 0 0 1-2.012 3.338l-16.737 9.682c-1.111.64-2.012.184-2.012-1.024a4.329 4.329 0 0 1 2.012-3.359" style="fill:#f5f5f5;fill:color(display-p3 .9608 .9608 .9608);fill-opacity:1"/><path fill="#FAFAFA" d="m112.452 106.916 2.166-1.249c.446-.256.804-.051.804.461v2.503a1.77 1.77 0 0 1-.804 1.393l-2.166 1.249c-.44.256-.803.051-.803-.466v-2.498a1.792 1.792 0 0 1 .803-1.393" style="fill:#fafafa;fill:color(display-p3 .9804 .9804 .9804);fill-opacity:1"/><path fill="#F5F5F5" d="m118.32 104.622 13.087-7.557c.553-.322 1.024-.092 1.024.512a2.16 2.16 0 0 1-1.024 1.67l-13.087 7.551c-.558.323-1.024.093-1.024-.512a2.13 2.13 0 0 1 1.024-1.664" style="fill:#f5f5f5;fill:color(display-p3 .9608 .9608 .9608);fill-opacity:1"/><path fill="#FAFAFA" d="m112.452 115.636 2.166-1.255c.446-.256.804-.046.804.466v2.504a1.78 1.78 0 0 1-.804 1.392l-2.166 1.25c-.44.256-.803.046-.803-.466v-2.499a1.789 1.789 0 0 1 .803-1.392" style="fill:#fafafa;fill:color(display-p3 .9804 .9804 .9804);fill-opacity:1"/><path fill="#F5F5F5" d="m118.32 113.337 13.087-7.552c.553-.323 1.024-.098 1.024.512a2.17 2.17 0 0 1-1.024 1.669l-13.087 7.552c-.558.322-1.024.092-1.024-.512a2.16 2.16 0 0 1 1.024-1.669" style="fill:#f5f5f5;fill:color(display-p3 .9608 .9608 .9608);fill-opacity:1"/><path fill="#FAFAFA" d="m112.452 124.35 2.166-1.25c.446-.256.804-.051.804.466v2.524a1.77 1.77 0 0 1-.804 1.393l-2.166 1.249c-.44.261-.803.052-.803-.46v-2.504a1.78 1.78 0 0 1 .803-1.418" style="fill:#fafafa;fill:color(display-p3 .9804 .9804 .9804);fill-opacity:1"/><path fill="#F5F5F5" d="m118.32 122.056 13.087-7.557c.553-.323 1.024-.092 1.024.512a2.17 2.17 0 0 1-1.024 1.674l-13.087 7.547c-.558.323-1.024.097-1.024-.512a2.14 2.14 0 0 1 1.024-1.664" style="fill:#f5f5f5;fill:color(display-p3 .9608 .9608 .9608);fill-opacity:1"/><path fill="#FAFAFA" d="m112.452 133.089 2.166-1.249c.446-.256.804-.046.804.466v2.488a1.77 1.77 0 0 1-.804 1.393l-2.166 1.249c-.44.261-.803.051-.803-.461v-2.503a1.79 1.79 0 0 1 .803-1.383" style="fill:#fafafa;fill:color(display-p3 .9804 .9804 .9804);fill-opacity:1"/><path fill="#F5F5F5" d="m118.32 130.796 13.087-7.557c.553-.323 1.024-.092 1.024.512a2.16 2.16 0 0 1-1.024 1.674l-13.087 7.547c-.558.322-1.024.097-1.024-.512a2.15 2.15 0 0 1 1.024-1.664M112.657 151.317l9.298-5.376c.553-.323 1.024-.092 1.024.512a2.15 2.15 0 0 1-1.024 1.669l-9.313 5.381c-.558.318-1.024.092-1.024-.512a2.17 2.17 0 0 1 1.039-1.674" style="fill:#f5f5f5;fill:color(display-p3 .9608 .9608 .9608);fill-opacity:1"/><path fill="#F0F0F0" d="m112.657 155.674 18.75-10.824c.553-.323 1.024-.092 1.024.512a2.17 2.17 0 0 1-1.024 1.674l-18.75 10.798c-.558.323-1.024.092-1.024-.512a2.15 2.15 0 0 1 1.024-1.648" style="fill:#f0f0f0;fill:color(display-p3 .9412 .9412 .9412);fill-opacity:1"/><path fill="#FAFAFA" d="m112.657 155.674 13.087-7.567c.553-.318 1.024-.093 1.024.512a2.16 2.16 0 0 1-1.024 1.669l-13.087 7.547c-.558.322-1.024.092-1.024-.512a2.15 2.15 0 0 1 1.024-1.649" style="fill:#fafafa;fill:color(display-p3 .9804 .9804 .9804);fill-opacity:1"/><path fill="#F5F5F5" d="m112.657 160.031 9.298-5.381c.553-.317 1.024-.092 1.024.512a2.17 2.17 0 0 1-1.024 1.669l-9.313 5.376c-.558.323-1.024.092-1.024-.512a2.14 2.14 0 0 1 1.039-1.664M112.657 142.603l9.298-5.376c.553-.318 1.024-.093 1.024.512a2.17 2.17 0 0 1-1.024 1.669l-9.313 5.376c-.558.322-1.024.092-1.024-.512a2.16 2.16 0 0 1 1.039-1.669" style="fill:#f5f5f5;fill:color(display-p3 .9608 .9608 .9608);fill-opacity:1"/><path fill="#F0F0F0" d="m112.657 146.965 18.75-10.829c.553-.318 1.024-.092 1.024.512a2.17 2.17 0 0 1-1.024 1.669l-18.75 10.813c-.558.323-1.024.093-1.024-.512a2.14 2.14 0 0 1 1.024-1.653" style="fill:#f0f0f0;fill:color(display-p3 .9412 .9412 .9412);fill-opacity:1"/><path fill="#FAFAFA" d="m112.657 146.965 6.656-3.84c.558-.323 1.024-.092 1.024.512a2.15 2.15 0 0 1-1.024 1.674l-6.656 3.835c-.558.323-1.024.092-1.024-.512a2.145 2.145 0 0 1 1.024-1.669" style="fill:#fafafa;fill:color(display-p3 .9804 .9804 .9804);fill-opacity:1"/><path fill="#F0F0F0" d="m112.657 164.388 18.75-10.824c.553-.322 1.024-.092 1.024.512a2.16 2.16 0 0 1-1.024 1.669l-18.75 10.829c-.558.318-1.024.092-1.024-.512a2.17 2.17 0 0 1 1.024-1.674" style="fill:#f0f0f0;fill:color(display-p3 .9412 .9412 .9412);fill-opacity:1"/><path fill="#FAFAFA" d="m112.657 164.388 16.86-9.728c.558-.317 1.024-.092 1.024.512a2.17 2.17 0 0 1-1.024 1.669l-16.86 9.728c-.558.318-1.024.093-1.024-.512a2.16 2.16 0 0 1 1.024-1.669" style="fill:#fafafa;fill:color(display-p3 .9804 .9804 .9804);fill-opacity:1"/><path fill="#F5F5F5" d="m178.587 21.642-42.403 24.459v113.326l42.403-24.479a2.222 2.222 0 0 0 1.024-1.741V22.201c-.015-.64-.465-.902-1.024-.559" style="fill:#f5f5f5;fill:color(display-p3 .9608 .9608 .9608);fill-opacity:1"/><path fill="#EBEBEB" d="M136.184 50.463v8.714l-3.774 4.362h3.774v8.715l39.634-22.882V27.578z" style="fill:#ebebeb;fill:color(display-p3 .9216 .9216 .9216);fill-opacity:1"/><path fill="#FAFAFA" d="m141.37 50.765 16.056-9.272c.779-.446 1.408-.082 1.408.814a3.111 3.111 0 0 1-1.408 2.442l-16.056 9.267c-.778.451-1.408.087-1.408-.808a3.11 3.11 0 0 1 1.408-2.443M140.464 57.8l31.078-17.945c.277-.16.512-.046.512.256a1.07 1.07 0 0 1-.512.834l-31.078 17.946c-.277.158-.512.046-.512-.256a1.07 1.07 0 0 1 .512-.835M140.464 61.067l31.078-17.92c.277-.164.512-.047.512.25a1.08 1.08 0 0 1-.512.84l-31.078 17.92c-.277.159-.512.046-.512-.256a1.08 1.08 0 0 1 .512-.835M140.464 64.338l31.078-17.92c.277-.159.512-.046.512.256a1.07 1.07 0 0 1-.512.835l-31.078 17.945c-.277.159-.512.046-.512-.256a1.08 1.08 0 0 1 .512-.86" style="fill:#fafafa;fill:color(display-p3 .9804 .9804 .9804);fill-opacity:1"/><path fill="#fff" d="m141.631 73.478 2.166-1.25c.445-.256.809-.051.809.466v2.499a1.79 1.79 0 0 1-.809 1.392l-2.166 1.25c-.44.256-.804.05-.804-.461V74.89a1.791 1.791 0 0 1 .804-1.413" style="fill:#fff;fill-opacity:1"/><path fill="#E0E0E0" d="m147.499 71.184 13.087-7.558c.553-.322 1.024-.092 1.024.512a2.17 2.17 0 0 1-1.024 1.675l-13.087 7.541c-.558.323-1.024.098-1.024-.512a2.14 2.14 0 0 1 1.024-1.659M141.334 81.286l32.963-19.037c.281-.163.512-.046.512.251a1.06 1.06 0 0 1-.512.835l-32.963 19.041c-.281.159-.512.046-.512-.256a1.08 1.08 0 0 1 .512-.834M141.334 84.552l32.963-19.036c.281-.159.512-.046.512.256a1.06 1.06 0 0 1-.512.834l-32.963 19.036c-.281.16-.512.047-.512-.256a1.09 1.09 0 0 1 .512-.834M141.334 87.824l32.963-19.036c.281-.164.512-.051.512.25a1.06 1.06 0 0 1-.512.835L141.334 88.91c-.281.164-.512.051-.512-.25a1.08 1.08 0 0 1 .512-.835M141.334 91.1l32.963-19.036c.281-.163.512-.046.512.256a1.09 1.09 0 0 1-.512.835L141.334 92.19c-.281.159-.512.046-.512-.256a1.08 1.08 0 0 1 .512-.835" style="fill:#e0e0e0;fill:color(display-p3 .8784 .8784 .8784);fill-opacity:1"/><path fill="#fff" d="m141.631 97.45 2.166-1.25c.445-.256.809-.046.809.466v2.499a1.79 1.79 0 0 1-.809 1.392l-2.166 1.255c-.44.256-.804.046-.804-.466v-2.499a1.78 1.78 0 0 1 .804-1.398" style="fill:#fff;fill-opacity:1"/><path fill="#E0E0E0" d="m147.499 95.155 13.087-7.557c.553-.317 1.024-.092 1.024.512a2.17 2.17 0 0 1-1.024 1.67l-13.087 7.557c-.558.317-1.024.092-1.024-.513a2.16 2.16 0 0 1 1.024-1.669M141.334 105.257l32.963-19.036c.281-.159.512-.046.512.256a1.09 1.09 0 0 1-.512.835l-32.963 19.036c-.281.159-.512.046-.512-.256a1.08 1.08 0 0 1 .512-.835M141.334 108.524l32.963-19.036c.281-.159.512-.046.512.256a1.06 1.06 0 0 1-.512.834l-32.963 19.037c-.281.163-.512.046-.512-.251a1.09 1.09 0 0 1 .512-.84M141.334 111.795l32.963-19.036c.281-.163.512-.046.512.251a1.08 1.08 0 0 1-.512.84l-32.963 19.036c-.281.159-.512.046-.512-.256a1.08 1.08 0 0 1 .512-.835M141.334 115.072l32.963-19.036c.281-.159.512-.046.512.256a1.06 1.06 0 0 1-.512.835l-32.963 19.036c-.281.159-.512.046-.512-.256a1.08 1.08 0 0 1 .512-.835" style="fill:#e0e0e0;fill:color(display-p3 .8784 .8784 .8784);fill-opacity:1"/><path fill="#fff" d="m144.719 119.854 2.16-1.249c.446-.261.809-.051.809.461v2.504a1.78 1.78 0 0 1-.809 1.392l-2.16 1.25c-.446.256-.809.051-.809-.466v-2.499a1.78 1.78 0 0 1 .809-1.393" style="fill:#fff;fill-opacity:1"/><path fill="#E0E0E0" d="m141.334 128.349 8.935-5.161c.276-.159.512-.047.512.256a1.09 1.09 0 0 1-.512.834l-8.935 5.156c-.281.164-.512.046-.512-.251a1.06 1.06 0 0 1 .512-.834" style="fill:#e0e0e0;fill:color(display-p3 .8784 .8784 .8784);fill-opacity:1"/><path fill="#fff" d="m156.735 112.912 2.161-1.25c.445-.261.809-.051.809.461v2.504a1.779 1.779 0 0 1-.809 1.392l-2.161 1.25c-.445.256-.809.046-.809-.466v-2.489a1.781 1.781 0 0 1 .809-1.402" style="fill:#fff;fill-opacity:1"/><path fill="#E0E0E0" d="m153.351 121.401 8.934-5.156c.277-.159.512-.046.512.256a1.08 1.08 0 0 1-.512.834l-8.934 5.171c-.282.164-.512.047-.512-.25a1.09 1.09 0 0 1 .512-.855" style="fill:#e0e0e0;fill:color(display-p3 .8784 .8784 .8784);fill-opacity:1"/><path fill="#fff" d="m168.752 105.969 2.16-1.254c.446-.256.809-.046.809.466v2.478c-.015.28-.096.553-.237.795-.14.243-.336.45-.572.602l-2.16 1.25c-.446.256-.809.046-.809-.466v-2.499a1.78 1.78 0 0 1 .809-1.372" style="fill:#fff;fill-opacity:1"/><path fill="#E0E0E0" d="m165.362 114.458 8.935-5.156c.281-.158.512-.046.512.256a1.08 1.08 0 0 1-.512.835l-8.935 5.156c-.276.164-.512.046-.512-.256a1.1 1.1 0 0 1 .512-.835M141.334 130.473l8.935-5.156c.276-.158.512-.046.512.256a1.1 1.1 0 0 1-.512.835l-8.935 5.156c-.281.159-.512.046-.512-.256a1.07 1.07 0 0 1 .512-.835M153.351 123.53l8.934-5.155c.277-.164.512-.047.512.25a1.08 1.08 0 0 1-.512.84l-8.934 5.156c-.282.159-.512.046-.512-.256a1.07 1.07 0 0 1 .512-.835M165.362 116.588l8.935-5.156c.281-.164.512-.046.512.251a1.08 1.08 0 0 1-.512.84l-8.935 5.156c-.276.158-.512.046-.512-.256a1.09 1.09 0 0 1 .512-.835M141.334 132.603l8.935-5.161c.276-.158.512-.046.512.256a1.09 1.09 0 0 1-.512.835l-8.935 5.161c-.281.159-.512.046-.512-.256a1.08 1.08 0 0 1 .512-.835M153.351 125.661l8.934-5.161c.277-.159.512-.047.512.256a1.07 1.07 0 0 1-.512.834l-8.934 5.161c-.282.159-.512.046-.512-.256a1.07 1.07 0 0 1 .512-.834M165.362 118.718l8.935-5.161c.281-.159.512-.046.512.256a1.07 1.07 0 0 1-.512.834l-8.935 5.156c-.276.164-.512.051-.512-.251a1.09 1.09 0 0 1 .512-.834" style="fill:#e0e0e0;fill:color(display-p3 .8784 .8784 .8784);fill-opacity:1"/><path fill="#fff" d="m144.719 137.749 2.16-1.25c.446-.256.809-.046.809.466v2.499a1.78 1.78 0 0 1-.809 1.392l-2.16 1.25c-.446.261-.809.051-.809-.461v-2.504a1.78 1.78 0 0 1 .809-1.392" style="fill:#fff;fill-opacity:1"/><path fill="#E0E0E0" d="m141.334 146.243 8.935-5.156c.276-.164.512-.046.512.251a1.09 1.09 0 0 1-.512.834l-8.935 5.161c-.281.159-.512.046-.512-.256a1.07 1.07 0 0 1 .512-.834" style="fill:#e0e0e0;fill:color(display-p3 .8784 .8784 .8784);fill-opacity:1"/><path fill="#fff" d="m156.735 130.806 2.161-1.249c.445-.256.809-.051.809.466v2.498a1.79 1.79 0 0 1-.809 1.393l-2.161 1.249c-.445.261-.809.051-.809-.461v-2.503a1.79 1.79 0 0 1 .809-1.393" style="fill:#fff;fill-opacity:1"/><path fill="#E0E0E0" d="m153.351 139.3 8.934-5.156c.277-.164.512-.051.512.251a1.07 1.07 0 0 1-.512.835l-8.934 5.16c-.282.159-.512.047-.512-.256a1.06 1.06 0 0 1 .512-.834" style="fill:#e0e0e0;fill:color(display-p3 .8784 .8784 .8784);fill-opacity:1"/><path fill="#fff" d="m168.752 123.863 2.16-1.249c.446-.256.809-.051.809.466v2.498a1.77 1.77 0 0 1-.809 1.393l-2.16 1.249c-.446.256-.809.052-.809-.46v-2.504a1.78 1.78 0 0 1 .809-1.393" style="fill:#fff;fill-opacity:1"/><path fill="#E0E0E0" d="m165.362 132.357 8.935-5.161c.281-.158.512-.046.512.256a1.08 1.08 0 0 1-.512.835l-8.935 5.161c-.276.159-.512.046-.512-.256a1.09 1.09 0 0 1 .512-.835M141.334 148.373l8.935-5.161c.276-.159.512-.046.512.256a1.09 1.09 0 0 1-.512.835l-8.935 5.155c-.281.164-.512.046-.512-.251a1.08 1.08 0 0 1 .512-.834M153.351 141.451l8.934-5.156c.277-.159.512-.046.512.256a1.07 1.07 0 0 1-.512.835l-8.934 5.155c-.282.164-.512.046-.512-.25a1.08 1.08 0 0 1 .512-.84M165.362 134.482l8.935-5.156c.281-.159.512-.046.512.256a1.08 1.08 0 0 1-.512.835l-8.935 5.156c-.276.163-.512.046-.512-.251a1.1 1.1 0 0 1 .512-.84M141.334 150.498l8.935-5.156c.276-.159.512-.046.512.256a1.088 1.088 0 0 1-.512.834l-8.935 5.156c-.281.159-.512.046-.512-.256a1.09 1.09 0 0 1 .512-.834M153.351 143.555l8.934-5.177c.277-.158.512-.046.512.256a1.091 1.091 0 0 1-.512.835l-8.934 5.156c-.282.159-.512.046-.512-.256a1.06 1.06 0 0 1 .512-.814M165.362 136.612l8.935-5.155c.281-.164.512-.047.512.25a1.08 1.08 0 0 1-.512.84l-8.935 5.156c-.276.159-.512.046-.512-.256a1.09 1.09 0 0 1 .512-.835" style="fill:#e0e0e0;fill:color(display-p3 .8784 .8784 .8784);fill-opacity:1"/><path fill="#FAFAFA" d="M121.085 59.208c5.227-3.016 9.461-.573 9.461 5.463 0 6.037-4.234 13.363-9.461 16.384-5.228 3.02-9.457.574-9.457-5.458 0-6.031 4.234-13.373 9.457-16.389" style="fill:#fafafa;fill:color(display-p3 .9804 .9804 .9804);fill-opacity:1"/><path fill="#E0E0E0" d="M121.085 63.954c1.694-.978 3.072-.184 3.072 1.772a6.8 6.8 0 0 1-3.072 5.314c-1.695.978-3.072.185-3.072-1.771a6.78 6.78 0 0 1 3.072-5.315M127.075 74.379c0-3.216-2.258-4.516-5.043-2.909l-1.741 1.024c-2.785 1.608-5.043 5.52-5.043 8.735v.865c1.613.512 3.635.241 5.842-1.024a18.65 18.65 0 0 0 5.985-5.934z" style="fill:#e0e0e0;fill:color(display-p3 .8784 .8784 .8784);fill-opacity:1"/><path fill="#F5F5F5" d="m115.489 96.59 13.086-7.558c.553-.322 1.024-.092 1.024.512a2.15 2.15 0 0 1-1.024 1.67l-13.086 7.556c-.558.323-1.024.093-1.024-.512a2.13 2.13 0 0 1 1.024-1.67" style="fill:#f5f5f5;fill:color(display-p3 .9608 .9608 .9608);fill-opacity:1"/><path fill="#F7921E" d="m73.863 206.311 16.635-72.049 91.069-52.577-16.635 72.044z" style="fill:#f7921e;fill:color(display-p3 .9686 .5725 .1176);fill-opacity:1"/><path fill="#000" d="M119.615 179.891v-62.438l61.712-35.456-16.395 71.731z" opacity=".1" style="fill:#000;fill-opacity:1"/><path fill="#E0E0E0" d="m135.308 188.959-15.693-9.067 29.225-16.748z" style="fill:#e0e0e0;fill:color(display-p3 .8784 .8784 .8784);fill-opacity:1"/><path fill="#EBEBEB" d="M135.308 188.959a2.16 2.16 0 0 1-.942-1.705V76.247a2.23 2.23 0 0 1 1.024-1.74l69.688-40.249a1.89 1.89 0 0 1 2.66.689c.166.301.247.642.233.985v111.002a2.23 2.23 0 0 1-1.024 1.741l-69.688 40.248a2.17 2.17 0 0 1-1.951.036" style="fill:#ebebeb;fill:color(display-p3 .9216 .9216 .9216);fill-opacity:1"/><path fill="#455A64" d="m136.25 78.357 28.314-18.524-1.89-1.09-27.305 15.764a2.24 2.24 0 0 0-1.024 1.74v1.025z" style="fill:#455a64;fill:color(display-p3 .2706 .3529 .3922);fill-opacity:1"/><path fill="#263238" d="m145.686 81.623-11.028-6.364c-.18.3-.281.64-.292.988v111.007a1.888 1.888 0 0 0 2.893 1.669l8.427-4.869z" style="fill:#263238;fill:color(display-p3 .149 .1961 .2196);fill-opacity:1"/><path fill="#37474F" d="m137.259 188.923 69.688-40.248a2.23 2.23 0 0 0 1.024-1.741V35.933c0-.646-.451-.902-1.024-.584l-69.688 40.248a2.21 2.21 0 0 0-1.024 1.741V188.34c.015.645.466.901 1.024.583" style="fill:#37474f;fill:color(display-p3 .2157 .2784 .3098);fill-opacity:1"/><path fill="#E0E0E0" d="m142.036 102.979 16.737-9.656c1.111-.64 2.012-.185 2.012 1.024a4.32 4.32 0 0 1-2.012 3.343l-16.737 9.662c-1.111.64-2.013.184-2.013-1.024a4.3 4.3 0 0 1 2.013-3.349" style="fill:#e0e0e0;fill:color(display-p3 .8784 .8784 .8784);fill-opacity:1"/><path fill="#F7921E" d="m140.832 120.643 2.166-1.25c.44-.256.804-.046.804.466v2.499a1.804 1.804 0 0 1-.804 1.398l-2.166 1.249c-.445.256-.803.046-.803-.466v-2.499a1.77 1.77 0 0 1 .803-1.397" style="fill:#f7921e;fill:color(display-p3 .9686 .5725 .1176);fill-opacity:1"/><path fill="#E0E0E0" d="m146.695 118.349 13.087-7.557c.553-.317 1.024-.092 1.024.512a2.17 2.17 0 0 1-1.024 1.669l-13.087 7.557c-.558.318-1.024.092-1.024-.512a2.16 2.16 0 0 1 1.024-1.669" style="fill:#e0e0e0;fill:color(display-p3 .8784 .8784 .8784);fill-opacity:1"/><path fill="#F7921E" d="m140.832 129.362 2.166-1.224c.44-.256.804-.051.804.466v2.499a1.794 1.794 0 0 1-.804 1.393l-2.166 1.249c-.445.256-.803.051-.803-.461v-2.504a1.76 1.76 0 0 1 .803-1.418" style="fill:#f7921e;fill:color(display-p3 .9686 .5725 .1176);fill-opacity:1"/><path fill="#E0E0E0" d="m146.695 127.068 13.087-7.557c.553-.322 1.024-.092 1.024.512a2.17 2.17 0 0 1-1.024 1.674l-13.087 7.552c-.558.323-1.024.098-1.024-.512a2.13 2.13 0 0 1 1.024-1.669" style="fill:#e0e0e0;fill:color(display-p3 .8784 .8784 .8784);fill-opacity:1"/><path fill="#F7921E" d="m140.832 138.082 2.166-1.239c.44-.256.804-.047.804.465v2.499a1.8 1.8 0 0 1-.804 1.398l-2.166 1.249c-.445.256-.803.046-.803-.466v-2.498a1.77 1.77 0 0 1 .803-1.408" style="fill:#f7921e;fill:color(display-p3 .9686 .5725 .1176);fill-opacity:1"/><path fill="#E0E0E0" d="m146.695 135.783 13.087-7.557c.553-.318 1.024-.092 1.024.512a2.17 2.17 0 0 1-1.024 1.669l-13.087 7.557c-.558.322-1.024.092-1.024-.512a2.16 2.16 0 0 1 1.024-1.669" style="fill:#e0e0e0;fill:color(display-p3 .8784 .8784 .8784);fill-opacity:1"/><path fill="#F7921E" d="m140.832 146.822 2.166-1.275c.44-.256.804-.046.804.466v2.503a1.785 1.785 0 0 1-.804 1.393l-2.166 1.27c-.445.256-.803.046-.803-.466v-2.499a1.77 1.77 0 0 1 .803-1.392" style="fill:#f7921e;fill:color(display-p3 .9686 .5725 .1176);fill-opacity:1"/><path fill="#E0E0E0" d="m146.695 144.523 13.087-7.552c.553-.323 1.024-.098 1.024.512a2.17 2.17 0 0 1-1.024 1.669l-13.087 7.557c-.558.322-1.024.092-1.024-.512a2.15 2.15 0 0 1 1.024-1.674M141.032 165.044l9.313-5.376c.553-.318 1.024-.093 1.024.512a2.176 2.176 0 0 1-1.024 1.669l-9.313 5.376c-.553.322-1.024.092-1.024-.512a2.17 2.17 0 0 1 1.024-1.669" style="fill:#e0e0e0;fill:color(display-p3 .8784 .8784 .8784);fill-opacity:1"/><path fill="#FAFAFA" d="m141.032 169.406 18.75-10.829c.552-.318 1.024-.092 1.024.512a2.17 2.17 0 0 1-1.024 1.669l-18.75 10.824c-.553.322-1.024.092-1.024-.512a2.15 2.15 0 0 1 1.024-1.664" style="fill:#fafafa;fill:color(display-p3 .9804 .9804 .9804);fill-opacity:1"/><path fill="#F7921E" d="m141.032 169.406 13.087-7.557c.558-.323 1.024-.093 1.024.512a2.17 2.17 0 0 1-1.024 1.674l-13.087 7.552c-.553.322-1.024.092-1.024-.512a2.14 2.14 0 0 1 1.024-1.669" style="fill:#f7921e;fill:color(display-p3 .9686 .5725 .1176);fill-opacity:1"/><path fill="#E0E0E0" d="m141.032 173.758 9.313-5.376c.553-.323 1.024-.092 1.024.512a2.15 2.15 0 0 1-1.024 1.674l-9.313 5.376c-.553.317-1.024.092-1.024-.512a2.17 2.17 0 0 1 1.024-1.674M141.032 156.334l9.313-5.376c.553-.322 1.024-.092 1.024.512a2.14 2.14 0 0 1-1.024 1.67l-9.313 5.376c-.553.322-1.024.097-1.024-.512a2.14 2.14 0 0 1 1.024-1.67" style="fill:#e0e0e0;fill:color(display-p3 .8784 .8784 .8784);fill-opacity:1"/><path fill="#FAFAFA" d="m141.032 160.691 18.75-10.823c.552-.323 1.024-.093 1.024.512a2.16 2.16 0 0 1-1.024 1.669l-18.75 10.829c-.553.317-1.024.092-1.024-.512a2.17 2.17 0 0 1 1.024-1.675" style="fill:#fafafa;fill:color(display-p3 .9804 .9804 .9804);fill-opacity:1"/><path fill="#F7921E" d="m141.032 160.692 6.656-3.84c.553-.318 1.024-.093 1.024.512a2.17 2.17 0 0 1-1.024 1.669l-6.656 3.84c-.553.317-1.024.092-1.024-.512a2.17 2.17 0 0 1 1.024-1.669" style="fill:#f7921e;fill:color(display-p3 .9686 .5725 .1176);fill-opacity:1"/><path fill="#FAFAFA" d="m141.032 178.115 18.75-10.824c.552-.322 1.024-.092 1.024.512a2.17 2.17 0 0 1-1.024 1.67l-18.75 10.823c-.553.323-1.024.092-1.024-.512a2.17 2.17 0 0 1 1.024-1.669" style="fill:#fafafa;fill:color(display-p3 .9804 .9804 .9804);fill-opacity:1"/><path fill="#F7921E" d="m141.032 178.115 16.86-9.728c.558-.323 1.024-.093 1.024.512a2.15 2.15 0 0 1-1.024 1.674l-16.86 9.728c-.553.322-1.024.092-1.024-.512a2.17 2.17 0 0 1 1.024-1.674" style="fill:#f7921e;fill:color(display-p3 .9686 .5725 .1176);fill-opacity:1"/><path fill="#FAFAFA" d="m206.947 35.349-42.399 24.484v113.326l42.399-24.484a2.23 2.23 0 0 0 1.024-1.741V35.933c0-.646-.451-.902-1.024-.584" style="fill:#fafafa;fill:color(display-p3 .9804 .9804 .9804);fill-opacity:1"/><path fill="#F7921E" d="M164.564 64.19v8.72l-3.779 4.356h3.774l.005 8.72 39.634-22.887V41.31z" style="fill:#f7921e;fill:color(display-p3 .9686 .5725 .1176);fill-opacity:1"/><path fill="#FAFAFA" d="m169.745 64.492 16.056-9.267c.779-.451 1.408-.087 1.408.814a3.1 3.1 0 0 1-1.408 2.468l-16.056 9.272c-.778.45-1.408.087-1.408-.814a3.11 3.11 0 0 1 1.408-2.473M168.839 71.527l31.078-17.92c.282-.164.512-.047.512.25a1.08 1.08 0 0 1-.512.84l-31.078 17.92c-.277.159-.512.046-.512-.256a1.08 1.08 0 0 1 .512-.835M168.839 74.799l31.078-17.92c.282-.16.512-.047.512.256a1.05 1.05 0 0 1-.512.834l-31.078 17.92c-.277.159-.512.046-.512-.256a1.07 1.07 0 0 1 .512-.834M168.839 78.065l31.078-17.92c.282-.164.512-.046.512.25a1.05 1.05 0 0 1-.512.835l-31.078 17.946c-.277.159-.512.046-.512-.256a1.09 1.09 0 0 1 .512-.855" style="fill:#fafafa;fill:color(display-p3 .9804 .9804 .9804);fill-opacity:1"/><path fill="#F7921E" d="m170.011 87.21 2.166-1.255c.44-.256.804-.046.804.466v2.498a1.8 1.8 0 0 1-.804 1.398l-2.166 1.25c-.445.255-.803.046-.803-.466v-2.5a1.77 1.77 0 0 1 .803-1.392" style="fill:#f7921e;fill:color(display-p3 .9686 .5725 .1176);fill-opacity:1"/><path fill="#455A64" d="m175.874 84.91 13.087-7.557c.558-.317 1.024-.092 1.024.512a2.16 2.16 0 0 1-1.024 1.67l-13.087 7.556c-.558.318-1.024.093-1.024-.512a2.16 2.16 0 0 1 1.024-1.669M169.709 95.012l32.968-19.036c.276-.159.512-.046.512.256a1.07 1.07 0 0 1-.512.835l-32.968 19.036c-.276.159-.512.046-.512-.256a1.1 1.1 0 0 1 .512-.835M169.709 98.284l32.968-19.036c.276-.164.512-.052.512.25a1.07 1.07 0 0 1-.512.835L169.709 99.37c-.276.164-.512.051-.512-.25a1.07 1.07 0 0 1 .512-.835M169.709 101.55l32.968-19.036c.276-.158.512-.046.512.256a1.08 1.08 0 0 1-.512.835l-32.968 19.036c-.276.159-.512.046-.512-.256a1.07 1.07 0 0 1 .512-.835M169.709 104.827l32.968-19.036c.276-.159.512-.046.512.256a1.07 1.07 0 0 1-.512.835l-32.968 19.036c-.276.164-.512.046-.512-.251a1.1 1.1 0 0 1 .512-.84" style="fill:#455a64;fill:color(display-p3 .2706 .3529 .3922);fill-opacity:1"/><path fill="#F7921E" d="m170.011 111.181 2.166-1.249c.44-.256.804-.051.804.461v2.503a1.785 1.785 0 0 1-.804 1.393l-2.166 1.249c-.445.256-.803.052-.803-.466v-2.498a1.77 1.77 0 0 1 .803-1.393" style="fill:#f7921e;fill:color(display-p3 .9686 .5725 .1176);fill-opacity:1"/><path fill="#455A64" d="m175.874 108.882 13.087-7.552c.558-.323 1.024-.092 1.024.512a2.15 2.15 0 0 1-1.024 1.669l-13.087 7.557c-.558.323-1.024.092-1.024-.512a2.15 2.15 0 0 1 1.024-1.674M169.709 118.984l32.968-19.036c.276-.159.512-.046.512.256a1.07 1.07 0 0 1-.512.834l-32.968 19.037c-.276.163-.512.046-.512-.251a1.1 1.1 0 0 1 .512-.84M169.709 122.256l32.968-19.036c.276-.164.512-.046.512.251a1.09 1.09 0 0 1-.512.839l-32.968 19.036c-.276.159-.512.047-.512-.256a1.07 1.07 0 0 1 .512-.834M169.709 125.522l32.968-19.036c.276-.159.512-.046.512.256a1.07 1.07 0 0 1-.512.834l-32.968 19.026c-.276.164-.512.046-.512-.256a1.1 1.1 0 0 1 .512-.824M169.709 128.804l32.968-19.036c.276-.164.512-.051.512.251a1.07 1.07 0 0 1-.512.835l-32.968 19.036c-.276.164-.512.051-.512-.251a1.07 1.07 0 0 1 .512-.835" style="fill:#455a64;fill:color(display-p3 .2706 .3529 .3922);fill-opacity:1"/><path fill="#F7921E" d="m173.094 133.581 2.165-1.249c.446-.256.804-.046.804.466v2.509c-.014.279-.095.55-.235.792a1.76 1.76 0 0 1-.569.6l-2.165 1.255c-.446.256-.804.046-.804-.466v-2.504c.013-.281.093-.555.232-.799.14-.243.336-.451.572-.604" style="fill:#f7921e;fill:color(display-p3 .9686 .5725 .1176);fill-opacity:1"/><path fill="#455A64" d="m169.709 142.075 8.935-5.156c.276-.163.512-.046.512.251a1.09 1.09 0 0 1-.512.835l-8.935 5.161c-.276.159-.512.046-.512-.256a1.07 1.07 0 0 1 .512-.835" style="fill:#455a64;fill:color(display-p3 .2706 .3529 .3922);fill-opacity:1"/><path fill="#F7921E" d="m185.11 126.638 2.166-1.249c.445-.256.804-.051.804.466v2.498a1.77 1.77 0 0 1-.804 1.393l-2.166 1.249c-.445.261-.804.051-.804-.461v-2.503a1.776 1.776 0 0 1 .804-1.393" style="fill:#f7921e;fill:color(display-p3 .9686 .5725 .1176);fill-opacity:1"/><path fill="#455A64" d="m181.726 135.132 8.934-5.155c.277-.164.512-.047.512.25a1.07 1.07 0 0 1-.512.835l-8.934 5.161c-.277.159-.512.046-.512-.256a1.07 1.07 0 0 1 .512-.835" style="fill:#455a64;fill:color(display-p3 .2706 .3529 .3922);fill-opacity:1"/><path fill="#F7921E" d="m197.127 119.696 2.166-1.249c.445-.256.803-.052.803.465v2.499a1.77 1.77 0 0 1-.803 1.393l-2.166 1.239c-.446.256-.804.051-.804-.461v-2.504a1.76 1.76 0 0 1 .804-1.382" style="fill:#f7921e;fill:color(display-p3 .9686 .5725 .1176);fill-opacity:1"/><path fill="#455A64" d="m193.742 128.19 8.935-5.171c.276-.164.512-.052.512.25a1.07 1.07 0 0 1-.512.835l-8.935 5.161c-.276.159-.512.046-.512-.256a1.08 1.08 0 0 1 .512-.819M169.709 144.205l8.935-5.161c.276-.159.512-.046.512.256a1.09 1.09 0 0 1-.512.835l-8.935 5.155c-.276.164-.512.052-.512-.25a1.07 1.07 0 0 1 .512-.835M181.726 137.263l8.934-5.161c.277-.159.512-.046.512.256a1.08 1.08 0 0 1-.512.834l-8.934 5.156c-.277.164-.512.046-.512-.251a1.07 1.07 0 0 1 .512-.834M193.742 130.315l8.935-5.156c.276-.159.512-.046.512.256a1.08 1.08 0 0 1-.512.834l-8.935 5.156c-.276.164-.512.046-.512-.251a1.097 1.097 0 0 1 .512-.839M169.709 146.33l8.935-5.156c.276-.159.512-.046.512.256a1.088 1.088 0 0 1-.512.834l-8.935 5.156c-.276.159-.512.046-.512-.256a1.1 1.1 0 0 1 .512-.834M181.726 139.402l8.934-5.155c.277-.159.512-.046.512.256a1.09 1.09 0 0 1-.512.834l-8.934 5.141c-.277.158-.512.046-.512-.256a1.08 1.08 0 0 1 .512-.82M193.742 132.444l8.935-5.155c.276-.164.512-.046.512.25a1.1 1.1 0 0 1-.512.84l-8.935 5.156c-.276.159-.512.046-.512-.256a1.09 1.09 0 0 1 .512-.835" style="fill:#455a64;fill:color(display-p3 .2706 .3529 .3922);fill-opacity:1"/><path fill="#F7921E" d="m173.094 151.481 2.165-1.255c.446-.256.804-.046.804.466v2.504a1.766 1.766 0 0 1-.804 1.393l-2.165 1.249c-.446.256-.804.046-.804-.466v-2.499c.014-.279.095-.55.235-.792s.334-.448.569-.6" style="fill:#f7921e;fill:color(display-p3 .9686 .5725 .1176);fill-opacity:1"/><path fill="#455A64" d="m169.709 159.969 8.935-5.155c.276-.159.512-.047.512.256a1.09 1.09 0 0 1-.512.834l-8.935 5.156c-.276.164-.512.046-.512-.251a1.1 1.1 0 0 1 .512-.84" style="fill:#455a64;fill:color(display-p3 .2706 .3529 .3922);fill-opacity:1"/><path fill="#F7921E" d="m185.11 144.523 2.166-1.255c.445-.256.804-.046.804.466v2.499a1.78 1.78 0 0 1-.804 1.398l-2.166 1.249c-.445.256-.804.046-.804-.466v-2.499a1.78 1.78 0 0 1 .804-1.392" style="fill:#f7921e;fill:color(display-p3 .9686 .5725 .1176);fill-opacity:1"/><path fill="#455A64" d="m181.726 153.027 8.934-5.156c.277-.159.512-.046.512.256a1.08 1.08 0 0 1-.512.835l-8.934 5.156c-.277.158-.512.046-.512-.256a1.091 1.091 0 0 1 .512-.835" style="fill:#455a64;fill:color(display-p3 .2706 .3529 .3922);fill-opacity:1"/><path fill="#F7921E" d="m197.127 137.59 2.166-1.249c.445-.256.803-.046.803.466v2.498a1.78 1.78 0 0 1-.803 1.398l-2.166 1.259c-.446.256-.804.046-.804-.466v-2.498a1.778 1.778 0 0 1 .804-1.408" style="fill:#f7921e;fill:color(display-p3 .9686 .5725 .1176);fill-opacity:1"/><path fill="#455A64" d="m193.742 146.084 8.935-5.145c.276-.159.512-.047.512.256a1.09 1.09 0 0 1-.512.834l-8.935 5.156c-.276.159-.512.046-.512-.256a1.1 1.1 0 0 1 .512-.845M169.709 162.1l8.935-5.156c.276-.164.512-.046.512.251a1.1 1.1 0 0 1-.512.839l-8.935 5.156c-.276.159-.512.046-.512-.256a1.08 1.08 0 0 1 .512-.834M181.726 155.157l8.934-5.156c.277-.164.512-.046.512.251a1.07 1.07 0 0 1-.512.834l-8.934 5.161c-.277.159-.512.046-.512-.256a1.08 1.08 0 0 1 .512-.834M193.742 148.214l8.935-5.156c.276-.164.512-.046.512.251a1.07 1.07 0 0 1-.512.835l-8.935 5.161c-.276.158-.512.046-.512-.256a1.09 1.09 0 0 1 .512-.835M169.709 164.229l8.935-5.161c.276-.158.512-.046.512.256a1.09 1.09 0 0 1-.512.835l-8.935 5.161c-.276.159-.512.046-.512-.256a1.07 1.07 0 0 1 .512-.835M181.726 157.286l8.934-5.16c.277-.159.512-.047.512.256a1.07 1.07 0 0 1-.512.834l-8.934 5.156c-.277.164-.512.051-.512-.251a1.07 1.07 0 0 1 .512-.835M193.742 150.344l8.935-5.161c.276-.159.512-.046.512.256a1.07 1.07 0 0 1-.512.835l-8.935 5.156c-.276.163-.512.046-.512-.251a1.09 1.09 0 0 1 .512-.835" style="fill:#455a64;fill:color(display-p3 .2706 .3529 .3922);fill-opacity:1"/><path fill="#E0E0E0" d="M149.465 72.935c5.222-3.016 9.457-.569 9.457 5.463 0 6.031-4.235 13.368-9.457 16.384s-9.462.568-9.462-5.463c0-6.032 4.234-13.369 9.462-16.384" style="fill:#e0e0e0;fill:color(display-p3 .8784 .8784 .8784);fill-opacity:1"/><path fill="#FAFAFA" d="M149.465 77.686c1.695-.983 3.072-.19 3.072 1.771a6.78 6.78 0 0 1-3.072 5.315c-1.695.978-3.072.184-3.072-1.771a6.78 6.78 0 0 1 3.072-5.315M155.445 88.12c0-3.215-2.258-4.52-5.043-2.913l-1.741 1.024c-2.785 1.608-5.038 5.52-5.038 8.735v.865c1.607.512 3.635.246 5.842-1.024a18.6 18.6 0 0 0 5.98-5.919z" style="fill:#fafafa;fill:color(display-p3 .9804 .9804 .9804);fill-opacity:1"/><path fill="#E0E0E0" d="m143.864 110.316 13.086-7.557c.553-.318 1.024-.092 1.024.512a2.16 2.16 0 0 1-1.024 1.669l-13.086 7.557c-.558.318-1.024.092-1.024-.512a2.16 2.16 0 0 1 1.024-1.669" style="fill:#e0e0e0;fill:color(display-p3 .8784 .8784 .8784);fill-opacity:1"/></svg>