<svg xmlns="http://www.w3.org/2000/svg" width="256" height="256" fill="none"><path stroke="#D5D5D5" d="M46.56 217.871C24.086 206.103 13 190.756 13 175.539s11.084-30.568 33.56-42.341c22.464-11.767 51.94-17.663 81.442-17.663 29.503 0 58.977 5.896 81.439 17.663 22.473 11.773 33.558 27.122 33.559 42.337s-11.083 30.563-33.559 42.336c-22.465 11.767-51.939 17.664-81.441 17.664s-58.976-5.897-81.44-17.664Z" style="stroke:#d5d5d5;stroke:color(display-p3 .8353 .8353 .8353);stroke-opacity:1"/><path fill="#F7921E" d="M123.788 20.825 45.173 66.172a3.25 3.25 0 0 0-1.468 2.535v129.952a3.24 3.24 0 0 0 1.472 2.544l.3.169a3.26 3.26 0 0 0 2.944 0l78.616-45.405a3.26 3.26 0 0 0 1.467-2.548V23.533a3.24 3.24 0 0 0-1.472-2.552l-.301-.169a3.26 3.26 0 0 0-2.943.012" style="fill:#f7921e;fill:color(display-p3 .9686 .5725 .1176);fill-opacity:1"/><path fill="#000" d="M123.788 20.825 45.173 66.172a3.25 3.25 0 0 0-1.468 2.535v129.952a3.24 3.24 0 0 0 1.472 2.544l.3.169a3.26 3.26 0 0 0 2.944 0l78.616-45.405a3.26 3.26 0 0 0 1.467-2.548V23.533a3.24 3.24 0 0 0-1.472-2.552l-.301-.169a3.26 3.26 0 0 0-2.943.012" opacity=".45" style="fill:#000;fill-opacity:1"/><path fill="#F7921E" d="M128.504 153.527c0 1.29-.907 2.114-2.032 2.762L48.969 201.03c-1.117.643-2.032.123-2.032-1.175V71.201a4.04 4.04 0 0 1 2.024-3.504l77.502-44.758a1.356 1.356 0 0 1 1.852.493c.119.206.181.44.181.678z" style="fill:#f7921e;fill:color(display-p3 .9686 .5725 .1176);fill-opacity:1"/><path fill="#000" d="M128.504 153.527c0 1.29-.907 2.114-2.032 2.762L48.969 201.03c-1.117.643-2.032.123-2.032-1.175V71.201a4.04 4.04 0 0 1 2.024-3.504l77.502-44.758a1.356 1.356 0 0 1 1.852.493c.119.206.181.44.181.678z" opacity=".3" style="fill:#000;fill-opacity:1"/><path fill="#F7921E" d="M128.504 23.533v.577a1.356 1.356 0 0 0-2.037-1.17L48.965 67.696a3.94 3.94 0 0 0-1.476 1.48l-.024.041-3.348-1.933c.248-.46.612-.847 1.056-1.122l78.615-45.347a3.26 3.26 0 0 1 2.943 0l.297.17a3.24 3.24 0 0 1 1.476 2.547" style="fill:#f7921e;fill:color(display-p3 .9686 .5725 .1176);fill-opacity:1"/><path fill="#000" d="M128.504 23.533v.577a1.356 1.356 0 0 0-2.037-1.17L48.965 67.696a3.94 3.94 0 0 0-1.476 1.48l-.024.041-3.348-1.933c.248-.46.612-.847 1.056-1.122l78.615-45.347a3.26 3.26 0 0 1 2.943 0l.297.17a3.24 3.24 0 0 1 1.476 2.547" opacity=".2" style="fill:#000;fill-opacity:1"/><path fill="#000" d="M126.587 150.53c0 1.331-.932 2.18-2.09 2.844l-73.244 42.288c-1.154.664-2.094.128-2.094-1.208V78.696a4.17 4.17 0 0 1 2.061-3.607l73.285-42.31a1.398 1.398 0 0 1 2.094 1.209V150.53z" opacity=".25" style="fill:#000;fill-opacity:1"/><path fill="#F5F5F5" d="m51.035 76.671 72.968-42.131a1.36 1.36 0 0 1 1.236 0l.705.412a1.38 1.38 0 0 1 .623 1.084v116.831a1.39 1.39 0 0 1-.623 1.08l-72.967 42.136a1.4 1.4 0 0 1-1.237 0l-.705-.413a1.39 1.39 0 0 1-.627-1.084V77.751a1.38 1.38 0 0 1 .627-1.08" style="fill:#f5f5f5;fill:color(display-p3 .9608 .9608 .9608);fill-opacity:1"/><path fill="#E0E0E0" d="M52.84 196.149q-.111.044-.23.062h-.12a1.8 1.8 0 0 1-.383 0 1 1 0 0 1-.231-.062 2 2 0 0 1-.136-.066l-.705-.412a1.39 1.39 0 0 1-.623-1.085V77.756c.006-.217.068-.43.182-.614l1.954 1.125a1.3 1.3 0 0 0-.186.614V195.72c0 .342.202.511.478.429" style="fill:#e0e0e0;fill:color(display-p3 .8784 .8784 .8784);fill-opacity:1"/><path fill="#F7921E" d="m125.965 34.944-.705-.412a1.36 1.36 0 0 0-1.237 0L51.056 76.664a1.38 1.38 0 0 0-.627 1.08v7.878l1.954 1.137 74.225-42.873v-7.858a1.39 1.39 0 0 0-.643-1.084" style="fill:#f7921e;fill:color(display-p3 .9686 .5725 .1176);fill-opacity:1"/><path fill="#fff" d="m125.965 34.944-.705-.412a1.36 1.36 0 0 0-1.237 0L51.056 76.664a1.38 1.38 0 0 0-.627 1.08v7.878l1.954 1.137 74.225-42.873v-7.858a1.39 1.39 0 0 0-.643-1.084" opacity=".4" style="fill:#fff;fill-opacity:1"/><path fill="#F7921E" d="M126.567 35.822c-.079-.256-.318-.338-.602-.173L52.997 77.78a1.27 1.27 0 0 0-.44.466l-1.955-1.125c.105-.191.257-.352.441-.466l72.968-42.132a1.36 1.36 0 0 1 1.236 0l.705.412a1.38 1.38 0 0 1 .615.887" style="fill:#f7921e;fill:color(display-p3 .9686 .5725 .1176);fill-opacity:1"/><path fill="#fff" d="M126.567 35.822c-.079-.256-.318-.338-.602-.173L52.997 77.78a1.27 1.27 0 0 0-.44.466l-1.955-1.125c.105-.191.257-.352.441-.466l72.968-42.132a1.36 1.36 0 0 1 1.236 0l.705.412a1.38 1.38 0 0 1 .615.887" opacity=".6" style="fill:#fff;fill-opacity:1"/><path fill="#F7921E" d="M50.412 77.756v7.882l1.95 1.13V78.88c.01-.218.074-.43.186-.618l-1.954-1.126c-.114.187-.177.4-.182.619M112.344 56.01l10.047-5.8v1.504l-10.047 5.8zM108.593 61.167l13.797-7.948v1.504l-13.797 7.949zM112.456 61.962l9.935-5.73v1.505l-9.935 5.73zM55.409 88.882l15.628-9.024v1.505l-15.628 9.024zM55.409 91.892l23.444-13.535v1.501L55.41 93.396zM55.409 94.897l20.839-12.03v1.505l-20.84 12.03zM55.409 100.483l66.981-38.669v3.867l-66.981 38.673z" style="fill:#f7921e;fill:color(display-p3 .9686 .5725 .1176);fill-opacity:1"/><path fill="#fff" d="m55.409 100.483 66.981-38.669v3.867l-66.981 38.673z" opacity=".4" style="fill:#fff;fill-opacity:1"/><path fill="#F7921E" d="M121.978 66.394v14.515l-66.157 38.186v-14.507zm.412-.713-66.981 38.672v15.468l66.981-38.652z" style="fill:#f7921e;fill:color(display-p3 .9686 .5725 .1176);fill-opacity:1"/><path fill="#F7921E" d="M122.102 73.36 55.497 111.8l.206.357 66.605-38.438z" style="fill:#f7921e;fill:color(display-p3 .9686 .5725 .1176);fill-opacity:1"/><path fill="#F7921E" d="M90.78 91.784h-.413v7.499h.412zM55.409 123.687l66.981-38.672v3.867l-66.981 38.672z" style="fill:#f7921e;fill:color(display-p3 .9686 .5725 .1176);fill-opacity:1"/><path fill="#fff" d="m55.409 123.687 66.981-38.672v3.867l-66.981 38.672z" opacity=".4" style="fill:#fff;fill-opacity:1"/><path fill="#F7921E" d="M121.978 89.596v14.519l-66.157 38.194v-14.515zm.412-.714-66.981 38.673v15.451l66.981-38.673z" style="fill:#f7921e;fill:color(display-p3 .9686 .5725 .1176);fill-opacity:1"/><path fill="#F7921E" d="m122.092 96.54-66.584 38.474.206.357 66.584-38.473z" style="fill:#f7921e;fill:color(display-p3 .9686 .5725 .1176);fill-opacity:1"/><path fill="#F7921E" d="M77.567 122.81h-.412v7.54h.412zM108.16 97.453h-.412v7.498h.412zM55.409 146.893l66.981-38.673v3.867L55.409 150.76z" style="fill:#f7921e;fill:color(display-p3 .9686 .5725 .1176);fill-opacity:1"/><path fill="#fff" d="m55.409 146.893 66.981-38.673v3.867L55.409 150.76z" opacity=".4" style="fill:#fff;fill-opacity:1"/><path fill="#F7921E" d="M121.978 112.801v6.781l-66.157 38.199v-6.786zm.412-.714L55.409 150.76v7.734l66.981-38.673z" style="fill:#f7921e;fill:color(display-p3 .9686 .5725 .1176);fill-opacity:1"/><path fill="#F7921E" d="M77.897 138.191h-.413v7.202h.413zM99.985 125.399h-.412v7.243h.412zM55.409 158.494l66.981-38.673v3.867l-66.981 38.673z" style="fill:#f7921e;fill:color(display-p3 .9686 .5725 .1176);fill-opacity:1"/><path fill="#fff" d="m55.409 158.494 66.981-38.673v3.867l-66.981 38.673z" opacity=".4" style="fill:#fff;fill-opacity:1"/><path fill="#F7921E" d="M121.978 124.401v6.785l-66.157 38.203v-6.79zm.412-.713-66.981 38.693v7.734l66.981-38.694z" style="fill:#f7921e;fill:color(display-p3 .9686 .5725 .1176);fill-opacity:1"/><path fill="#F7921E" d="M77.897 149.792h-.413v7.201h.413zM99.985 136.999h-.412v7.243h.412zM55.409 170.094l66.981-38.673v3.867l-66.981 38.673z" style="fill:#f7921e;fill:color(display-p3 .9686 .5725 .1176);fill-opacity:1"/><path fill="#fff" d="m55.409 170.094 66.981-38.673v3.867l-66.981 38.673z" opacity=".4" style="fill:#fff;fill-opacity:1"/><path fill="#F7921E" d="M121.978 135.998v6.781l-66.157 38.203V174.2zm.412-.718-66.981 38.681v7.734l66.981-38.669v-7.746" style="fill:#f7921e;fill:color(display-p3 .9686 .5725 .1176);fill-opacity:1"/><path fill="#F7921E" d="M77.897 161.392h-.413v7.202h.413zM99.985 148.6h-.412v7.243h.412z" style="fill:#f7921e;fill:color(display-p3 .9686 .5725 .1176);fill-opacity:1"/><path fill="#F7921E" d="M121.978 143.27v6.781l-21.993 12.693v-6.785zm.413-.713L99.573 155.72v7.738l22.818-13.168zM55.409 185.463l33.837-19.536v3.256L55.409 188.72z" style="fill:#f7921e;fill:color(display-p3 .9686 .5725 .1176);fill-opacity:1"/><path fill="#455A64" d="M63.753 102.927a1.2 1.2 0 0 0 .082-1.018.674.674 0 0 0-.91-.198 4.57 4.57 0 0 0-1.938 1.962 5.17 5.17 0 0 0-.656 2.552c0 .309.087.627.412.709a1.1 1.1 0 0 0 .932-.33c.771-.68 1.06-1.727 1.311-2.687.029-.103-.144-.281-.19-.141a5.4 5.4 0 0 0-.346 1.649.371.371 0 0 0 .573.363c.32-.221.582-.517.763-.861a3.1 3.1 0 0 0 .412-.986c.041-.21.037-.486-.181-.602-.219-.115-.413.186-.479.388-.127.301-.14.638-.037.948a.754.754 0 0 0 .862.487c.49-.124.824-.681 1.026-1.097.26-.513.41-1.075.442-1.649 0-.091-.12-.243-.19-.12a1.94 1.94 0 0 0-.272 1.278c.074.306.338.491.63.306.34-.267.609-.612.784-1.006.212-.433.331-.904.35-1.386 0-.061-.09-.234-.165-.14a2 2 0 0 0-.346.895c-.078.265-.055.551.066.8.181.243.458.024.623-.128.334-.352.558-.795.643-1.274h-.165c.172.318.293.662.358 1.018 0 .079.165.165.173.041.03-.387.132-.766.301-1.117q.135-.283.314-.54c.062-.082.181-.284.28-.313s.082.033.103.128q.028.168.037.338c0 .214 0 .412.03.639 0 .082.156.214.18.07a4.1 4.1 0 0 1 .916-1.855c.13-.192.306-.349.51-.458.046 0 .022 0 0-.041q.01.045 0 .09l-.024.137c-.025.107-.058.21-.078.317a.73.73 0 0 0 .144.594c.214.231.454.053.627-.128a5.3 5.3 0 0 0 1.278-1.987.7.7 0 0 0-.046-.618.322.322 0 0 0-.527.028c-.2.309-.31.668-.314 1.035-.021.26.038.52.17.746a.64.64 0 0 0 .506.355c.318 0 .532-.301.697-.532q.572-.892 1.047-1.839a5 5 0 0 1 .305-.47c.058-.074.186-.284.285-.3s.099.3.103.412c0 .544-.07 1.084-.083 1.624 0 .074.145.256.182.12a9.5 9.5 0 0 1 .507-1.36c.172-.42.408-.81.7-1.155.046-.054.244-.276.33-.227s.046.334.046.412c0 .347-.079.689-.087 1.04 0 .098.14.247.181.094a5.9 5.9 0 0 1 .94-2.222c.107-.148.249-.267.413-.346.057-.025.222-.1.288-.054s.079.256.07.363a.495.495 0 0 0 .314.536.75.75 0 0 0 .766-.264c.29-.282.538-.602.738-.952.21-.355.623-1.118.058-1.385a.074.074 0 0 0-.09 0 2.85 2.85 0 0 0-.491 1.162c-.05.289-.132.759.165.948.296.19.597 0 .824-.181a2.5 2.5 0 0 0 .75-.965c.046-.099-.119-.268-.18-.144-.126.257-.294.49-.496.692-.156.161-.412.413-.671.413-.355 0-.203-.647-.14-.874a2.6 2.6 0 0 1 .412-.874h-.091c.511.243-.664 1.649-.874 1.884a.9.9 0 0 1-.45.3.4.4 0 0 1-.173 0l-.177-.238c0-.062.033-.17.033-.235a.41.41 0 0 0-.251-.413c-.507-.181-.944.495-1.146.846a7.5 7.5 0 0 0-.693 1.888l.181.094c0-.247.347-2.024-.325-1.735-.392.169-.652.709-.825 1.063a9 9 0 0 0-.688 1.732l.181.12c0-.413.062-.825.079-1.266.06-.334.019-.68-.12-.99-.412-.548-1.402 1.65-1.53 1.872-.197.363-.956 1.769-1.372.89a1.58 1.58 0 0 1 .05-1.178q.043-.127.115-.24c.02-.024.078-.115.12-.12.04-.003.177.108.189.141.053.144-.095.412-.153.524a5.6 5.6 0 0 1-.59 1.005q-.155.216-.329.413c-.115.132-.346.461-.54.412-.095 0-.128-.202-.128-.28a1 1 0 0 1 0-.157c0-.099.05-.194.07-.289a.52.52 0 0 0-.025-.412c-.263-.309-.8.454-.919.619a4.16 4.16 0 0 0-.824 1.76l.177.07c-.033-.297 0-.598-.054-.895 0-.16-.062-.474-.272-.499-.21-.024-.52.475-.626.656a3.4 3.4 0 0 0-.47 1.463l.173.042a3.6 3.6 0 0 0-.38-1.08c-.037-.066-.136-.112-.16 0a2.7 2.7 0 0 1-.454 1.03c-.09.107-.433.499-.536.281a1.2 1.2 0 0 1 .046-.648c.042-.242.138-.471.28-.672l-.165-.14a3.25 3.25 0 0 1-.903 2.127c-.057.058-.144.173-.226.182a.2.2 0 0 1-.094-.004.22.22 0 0 1-.148-.109.24.24 0 0 1-.03-.089 1.86 1.86 0 0 1 .276-1.06l-.186-.119a3.63 3.63 0 0 1-.997 2.399.71.71 0 0 1-.623.223.58.58 0 0 1-.387-.606c0-.19.074-.676.268-.767.193-.091.033.519 0 .61-.133.323-.31.627-.524.903a2.5 2.5 0 0 1-.289.338.8.8 0 0 1-.234.169c-.215.091-.21-.07-.198-.227.053-.494.16-.981.321-1.451l-.19-.14a7.3 7.3 0 0 1-.737 1.974 2.6 2.6 0 0 1-.677.767c-.272.194-.791.355-.857-.115a3.4 3.4 0 0 1 .087-1.056q.101-.546.325-1.055a5.2 5.2 0 0 1 1.208-1.719c.277-.293.613-.525.985-.68.277-.095.594-.025.64.301.01.225-.031.449-.12.655 0 .054.058.157.09.079zM85.098 90.956a2.04 2.04 0 0 1 .35-1.917c.154-.247.352-.463.586-.635.194-.132.437-.206.553.054a1 1 0 0 1 0 .499c-.075.573-.256 1.129-.343 1.698a10 10 0 0 1-.354 1.727l.157.103a3.8 3.8 0 0 1 .643-1.649 1.4 1.4 0 0 1 .297-.37c.169-.095.16.02.156.156s0 .16 0 .243c0 .355-.045.71-.086 1.064 0 .082.136.194.152.078q.052-.384.198-.742c.095-.223.206-.499.458-.577l-.091-.074c.067.186.094.384.078.581 0 .062.1.19.128.082a1.55 1.55 0 0 1 .478-.902l-.099-.087c0 .198-.053.614.153.75s.54-.226.668-.387q.361-.479.622-1.019c.191-.325.31-.688.35-1.063 0-.058-.049-.144-.119-.124-.251.07-.412.446-.499.664a2.8 2.8 0 0 0-.214.928c-.045.704.103 1.426-.173 2.098-.025.07.086.214.127.12a3.9 3.9 0 0 0 .194-1.72 3.4 3.4 0 0 1 .09-.977c.071-.251.269-.824.553-.915l-.12-.128a3.6 3.6 0 0 1-.618 1.517 3.3 3.3 0 0 1-.449.627 2 2 0 0 1-.128.12.165.165 0 0 1-.284-.079 1.4 1.4 0 0 1-.025-.412c0-.041-.05-.128-.099-.087a1.6 1.6 0 0 0-.528.957l.124.082a1.65 1.65 0 0 0-.086-.68c0-.037-.046-.087-.091-.074-.499.144-.684.965-.75 1.401l.152.079q.105-.722.095-1.451c0-.227-.153-.474-.392-.268a3 3 0 0 0-.663.964 3.8 3.8 0 0 0-.35 1.163c0 .087.11.235.156.103.272-.825.3-1.715.49-2.568.103-.458.462-1.357.021-1.752-.441-.396-1.138.556-1.34.882a2.09 2.09 0 0 0-.235 1.97c.046.103.136.021.1-.061zM90.289 89.649c.824-.17 1.356-.915 1.764-1.6.244-.366.43-.768.553-1.191.037-.206-.083-.412-.318-.342a1.2 1.2 0 0 0-.569.742 2.7 2.7 0 0 0-.123 1.047.7.7 0 0 0 .387.655c.334.12.676-.131.903-.354a3.7 3.7 0 0 0 1.035-2.346c0-.086-.145-.202-.165-.074a4.1 4.1 0 0 0 0 1.381c0 .058.107.16.148.074.162-.477.447-.903.825-1.237l-.128-.086q.112.452.194.911c0 .066.123.16.148.05.093-.41.252-.803.47-1.163.066-.111.326-.585.487-.437.032.033 0 .214.02.256l.033.412c0 .074.116.148.148.05a5.55 5.55 0 0 1 1.163-2.198.6.6 0 0 1 .21-.173c.173-.054.108.198.091.293a6 6 0 0 0-.107.597.41.41 0 0 0 .326.49c.321.034.515-.312.66-.54a5.77 5.77 0 0 0 .922-3.408c0-.07-.078-.157-.156-.124-.21.082-.26.317-.322.52q-.115.4-.193.824a4.5 4.5 0 0 0-.1 1.649c.075.334.339.725.734.59.235-.119.433-.298.573-.52q.286-.372.503-.788c.05-.086-.09-.255-.156-.144q-.305.554-.734 1.019c-.16.16-.412.346-.618.11a1.1 1.1 0 0 1-.137-.7q.022-.594.137-1.175c.04-.21.09-.412.144-.627.053-.214.095-.461.284-.54l-.152-.127a5.7 5.7 0 0 1-.441 2.432c-.156.392-.361.764-.61 1.105a.6.6 0 0 1-.203.185c-.123.074-.218 0-.284-.157 0-.07 0-.14.029-.21.029-.194.07-.387.103-.585s0-.412-.214-.412c-.215 0-.495.342-.635.52a6.6 6.6 0 0 0-.948 1.982l.152.05c0-.194 0-.413-.05-.59a.4.4 0 0 0-.07-.214c-.127-.157-.309-.066-.412.053a3.46 3.46 0 0 0-.762 1.6l.148.05a14 14 0 0 0-.194-.908c0-.053-.066-.136-.127-.09-.393.33-.693.756-.874 1.236l.148.07a4 4 0 0 1 0-1.282l-.165-.074a3.48 3.48 0 0 1-.845 2.061c-.206.24-.7.742-1.03.412-.244-.235-.132-.861-.062-1.15q.057-.249.185-.47c.029-.05.412-.544.445-.26q-.044.188-.14.355c-.037.083-.074.17-.115.252q-.119.249-.256.49c-.38.672-.882 1.406-1.649 1.65-.037 0-.037.102 0 .09zM62.42 110.921c-.036-.413-.51-.384-.79-.219a3.9 3.9 0 0 0-1.064.94 3.93 3.93 0 0 0-.878 2.572c.024.318.169.73.544.747a1 1 0 0 0 .585-.252q.314-.217.614-.445a5.67 5.67 0 0 0 1.934-2.515c.172-.449.24-.931.198-1.41-.058-.412-.412-.482-.693-.235a3.48 3.48 0 0 0-1.109 2.622.75.75 0 0 0 .57.825 1.4 1.4 0 0 0 1.166-.483c.38-.341.702-.74.956-1.183.132-.239.516-.795.243-1.055-.272-.26-.692.272-.75.536-.057.264-.078.849.285 1.002.499.21.91-.413 1.113-.771.277-.49.419-1.045.412-1.608 0-.07-.09-.144-.128-.058a1.93 1.93 0 0 0 .107 1.826c.025.038.087.046.1 0a5.5 5.5 0 0 1 .857-1.822c.07-.094.181-.313.33-.276.148.037.107.223.12.351l.024.193c0 .161.037.326.053.487 0 .049.091.156.116.062.104-.469.286-.916.54-1.324a1.6 1.6 0 0 1 .37-.387c.108-.074.133-.099.252-.029.12.07.112.128.128.256l.025.206.062.511a.1.1 0 0 0 .026.065.1.1 0 0 0 .06.038c.388 0 .61-.322.788-.614q.424-.69.734-1.439a5.25 5.25 0 0 0 .412-2.861c0-.054-.103-.157-.144-.07a8.6 8.6 0 0 0-.693 2.061 8 8 0 0 0-.136 1.043.86.86 0 0 0 .14.672c.412.441.994-.251 1.237-.552a7.9 7.9 0 0 0 .936-1.835l-.14-.124a3.2 3.2 0 0 0 0 1.963c0 .037.094.123.127.045a9.2 9.2 0 0 1 1.46-2.28c.131-.148.267-.362.412-.387.21-.037.218.321.243.47q.053.328.05.659c0 .075.131.202.16.075a5.56 5.56 0 0 1 1.65-2.857l-.112-.037c.243.449-.136 1.063.288 1.459.425.396.825-.124 1.023-.458.045-.082-.078-.247-.136-.144a1.08 1.08 0 0 1-.49.503c-.281.095-.442-.153-.47-.412-.042-.371.086-.709-.104-1.064 0-.037-.074-.07-.111-.037a5.67 5.67 0 0 0-1.686 2.935l.16.074a4.5 4.5 0 0 0-.049-.667 1.7 1.7 0 0 0-.152-.594c-.21-.35-.557.045-.718.227a9.4 9.4 0 0 0-1.533 2.383l.128.049a2.96 2.96 0 0 1 0-1.814c0-.066-.1-.227-.14-.124q-.273.713-.64 1.381-.202.357-.474.664a2 2 0 0 1-.296.28 1 1 0 0 1-.19.104c-.148.053-.186.041-.301-.071-.116-.111-.124-.255-.111-.445.012-.189.028-.301.045-.453q.056-.434.157-.862a8.6 8.6 0 0 1 .606-1.694l-.149-.07a5.04 5.04 0 0 1-.387 2.716q-.252.6-.577 1.163c-.178.309-.413.825-.825.825l.09.098c-.057-.412-.053-1.649-.75-1.063-.519.412-.713 1.105-.882 1.723l.116.062c-.03-.227-.054-.454-.083-.68q0-.231-.062-.454c-.094-.21-.288-.161-.412 0a5 5 0 0 0-1.055 2.099h.099a1.68 1.68 0 0 1-.066-1.612l-.132-.058a2.69 2.69 0 0 1-.924 2.098c-.226.169-.548.206-.65-.132a1.1 1.1 0 0 1 0-.486.7.7 0 0 1 .214-.412c.04-.042.168-.136.234-.108.17.075.025.268 0 .367a4.6 4.6 0 0 1-1.27 1.649 1.09 1.09 0 0 1-.989.334c-.47-.148-.354-.787-.284-1.162a3.37 3.37 0 0 1 .96-1.822c.058-.054.14-.145.227-.153.264-.029.235.144.24.293q0 .289-.05.573c-.073.388-.2.764-.38 1.117a5.6 5.6 0 0 1-1.343 1.649q-.419.36-.874.672a1.5 1.5 0 0 1-.413.247c-.325.087-.445-.198-.465-.466a3.6 3.6 0 0 1 .585-2.061c.197-.325.44-.621.721-.878.178-.165 1.064-.911 1.167-.371 0 .074.09.041.082-.021zM96.176 91.207a.297.297 0 0 0-.062-.413c-.214-.185-.47 0-.635.149a7.1 7.1 0 0 0-1.43 1.937c-.248.536-.528 1.443-.074 1.95a.76.76 0 0 0 .803.186c.356-.156.653-.42.85-.755.552-.754 1.084-1.562 1.17-2.514 0-.1-.152-.235-.164-.1a9 9 0 0 0 0 1.942c0 .066.103.203.16.1a13.6 13.6 0 0 0 .94-2.144l-.165-.1.046.825q-.01.257.074.5c.111.242.359.304.52.073.188-.33.327-.685.412-1.055a2.7 2.7 0 0 1 .63-1.146l-.132-.058c.162.473.231.973.203 1.472 0 .087.148.198.16.074a6.9 6.9 0 0 1 .544-2.061l-.152-.099v.75c-.014.139-.001.279.037.412.132.322.387.136.552-.04a3.65 3.65 0 0 0 .957-2.09c0-.07-.054-.199-.14-.141a.83.83 0 0 0-.38.825c.042.222.223.478.479.412.321-.083.573-.61.717-.874.209-.388.361-.805.449-1.237.021-.099-.132-.235-.165-.103q-.248.992-.342 2.012c-.033.412.124.824.61.779.487-.046.792-.754 1.019-1.15q.531-.944 1.001-1.925l-.156-.07q.15.8.301 1.603c0 .07.144.165.16.045.12-.81.527-1.55 1.146-2.085l-.127-.062c.159.349.259.722.296 1.104 0 .07.141.161.157.05a3.95 3.95 0 0 1 1.171-2.354l-.107-.037c.193.412-.157.973.251 1.294s.936-.202 1.196-.503c.402-.457.722-.98.948-1.545.119-.314.165-.747-.182-.928a.06.06 0 0 0-.082 0 1.68 1.68 0 0 0-.412 2.024.59.59 0 0 0 .758.326c.387-.25.704-.593.924-.998.057-.082-.075-.247-.149-.144a4.3 4.3 0 0 1-.639.73c-.144.127-.329.3-.536.206a.7.7 0 0 1-.309-.47 1.51 1.51 0 0 1 .516-1.493h-.087c.363.194-.12.973-.247 1.2q-.333.562-.784 1.035c-.135.17-.311.302-.511.387-.305.1-.462-.111-.462-.412a1.8 1.8 0 0 0-.082-.858c0-.037-.074-.07-.107-.037a4.07 4.07 0 0 0-1.237 2.428l.157.05a3.8 3.8 0 0 0-.309-1.162c-.021-.046-.079-.104-.128-.062a3.57 3.57 0 0 0-1.196 2.168l.161.05-.297-1.608c0-.058-.115-.157-.161-.066a29 29 0 0 1-.717 1.405q-.186.347-.383.689a3.4 3.4 0 0 1-.458.71c-.161.16-.47.32-.676.127-.206-.194-.049-.672-.021-.89q.102-.762.285-1.51l-.165-.102a4.2 4.2 0 0 1-.585 1.475c-.124.194-.413.726-.685.47-.111-.099-.045-.354 0-.466a.8.8 0 0 1 .281-.309l-.141-.14a3.54 3.54 0 0 1-.56 1.57q-.129.197-.285.372c-.086.099-.276.3-.362.144-.087-.157 0-.354 0-.466v-.515c0-.062-.108-.202-.153-.099a7 7 0 0 0-.565 2.098l.165.079a4.1 4.1 0 0 0-.222-1.583c0-.05-.087-.103-.136-.062-.37.424-.629.932-.755 1.48-.054.16-.107.321-.173.474s-.186.507-.371.293c-.087-.104-.05-.413-.058-.54l-.033-.66c0-.058-.124-.21-.16-.095q-.38 1.112-.94 2.144l.16.095a8.8 8.8 0 0 1 0-1.893l-.169-.074a4.4 4.4 0 0 1-.903 2.103 4 4 0 0 1-.709.861c-.346.276-.956.33-1.076-.206-.16-.7.248-1.492.627-2.061q.31-.446.664-.858c.107-.123.214-.251.325-.37a.8.8 0 0 1 .21-.182.3.3 0 0 1 .12-.054c.144-.033.231.046.252.24-.02.032 0 .12.037.074zM61.539 127.213a4.3 4.3 0 0 0 3.158-1.975c.111-.177.268-.387.202-.61-.124-.449-.652-.412-.953-.177a5.3 5.3 0 0 0-1.78 2.733c-.108.383-.26.89-.042 1.265.252.442.755.277 1.06 0a9 9 0 0 0 1.092-1.521c.136-.198.392-.626.643-.68.388-.082.31.989.305 1.237 0 .082.14.202.165.074.062-.395.186-.777.367-1.134q.054-.119.128-.226.079-.212.326 0v.127c0 .13.039.256.11.363.046.066.137.07.137-.025a1.62 1.62 0 0 1 .734-1.315l-.128-.086q.091.341.181.688c0 .066.108.107.136.025q.185-.522.483-.989h-.103c.144.16.053.457.276.564.222.108.573-.305.721-.478a6.2 6.2 0 0 0 1.155-1.847c.202-.54-.475-.775-.693-.268a2.6 2.6 0 0 0-.095.99c0 .247 0 .577.198.754s.544 0 .738-.181a2.5 2.5 0 0 0 .721-1.031c.033-.086-.103-.26-.152-.144a2.8 2.8 0 0 1-.462.763q-.136.156-.297.288c-.062.045-.185.161-.268.161a.4.4 0 0 1-.296-.223c-.05-.307-.05-.62 0-.927a.7.7 0 0 1 .152-.466c.037-.033.165-.111.227-.078l.107.222a6.653 6.653 0 0 1-.969 1.637q-.154.19-.321.375c-.112.124-.243.313-.412.243-.17-.07-.104-.161-.14-.28a.5.5 0 0 0-.112-.206c-.029-.033-.074-.046-.103 0a5 5 0 0 0-.499 1.03l.136.025-.16-.635c0-.058-.062-.132-.128-.091a1.77 1.77 0 0 0-.788 1.435l.136-.025c-.144-.206-.029-.482-.218-.676a.25.25 0 0 0-.196-.096.25.25 0 0 0-.196.096c-.16.208-.285.441-.37.689q-.167.418-.244.861l.165.075a6 6 0 0 0-.033-.825c0-.189-.044-.375-.128-.544-.214-.322-.548-.074-.742.128q-.466.548-.825 1.175c-.23.354-.614 1.014-1.092 1.043-.598.033-.24-1.043-.152-1.324.159-.496.388-.966.68-1.397.265-.42.6-.792.99-1.101a.7.7 0 0 1 .358-.161c.35 0 .218.338.115.511q-.184.296-.412.561a4.74 4.74 0 0 1-2.63 1.472c-.074 0-.041.165.033.161zM71.985 122.307q.183-.269.412-.499c.157-.157.495-.519.631-.161.064.263.08.535.05.804a5 5 0 0 1-.103.767l.197.091a2.3 2.3 0 0 1 .965-1.674l-.115-.037a.83.83 0 0 1 .165.651l.185.095q.015-.275.115-.532a.7.7 0 0 1 .116-.218c.082-.095.256-.186.256 0 0 .053.094.202.14.099q.16-.348.313-.697l-.124-.124a.39.39 0 0 0 .338.516c.384.02.66-.516.825-.78a2.5 2.5 0 0 0 .503-1.162.51.51 0 0 0-.347-.594c-.028 0-.045.025-.053.046a2.65 2.65 0 0 0-.144 1.871c.07.165.218.359.412.313s.412-.412.523-.593c.792-1.146 1.534-2.428 1.41-3.871 0-.074-.111-.149-.148-.054a7.7 7.7 0 0 0-.458 2.127 5.5 5.5 0 0 0 0 .936.67.67 0 0 0 .264.524.06.06 0 0 0 .043.017.06.06 0 0 0 .044-.017q.444-.75.845-1.526l-.145-.074q.045.375.194.722c.025.062.112.111.14.024a4 4 0 0 1 .38-.766l-.116-.021q.136.27.202.565c0 .082.132.161.149.033a2.9 2.9 0 0 1 .849-1.707l-.103-.152a.64.64 0 0 0 .363.882c.49.148.824-.412 1.014-.775.029-.058-.062-.202-.107-.12a1.7 1.7 0 0 1-.532.647c-.33.194-.825-.078-.623-.494.025-.054-.029-.227-.103-.153a3.06 3.06 0 0 0-.907 1.814l.149.033a3 3 0 0 0-.24-.672c-.024-.045-.086-.07-.119-.02a4.2 4.2 0 0 0-.412.824l.144.029a2.5 2.5 0 0 1-.177-.668c0-.058-.1-.157-.145-.074a60 60 0 0 1-.824 1.529h.087c-.231-.144-.178-.569-.178-.804a7 7 0 0 1 .474-2.506l-.144-.054a4.44 4.44 0 0 1-.511 2.276 9.8 9.8 0 0 1-1.167 1.872c-.214.259-.412.02-.457-.223a2.5 2.5 0 0 1 0-.602 2.8 2.8 0 0 1 .156-.767c0-.09.033-.111.091-.057a.46.46 0 0 1 .103.305 2.44 2.44 0 0 1-.47 1.055c-.099.144-.198.297-.309.433a.8.8 0 0 1-.264.243c-.09.045-.474.078-.37-.152.036-.079-.071-.24-.116-.141q-.167.346-.326.697l.14.099c0-.181-.082-.573-.346-.445a.88.88 0 0 0-.305.412 1.9 1.9 0 0 0-.173.618c0 .108.165.244.185.095a1.14 1.14 0 0 0-.235-.886c-.02-.029-.078-.062-.115-.037a2.47 2.47 0 0 0-1.051 1.756c0 .111.169.247.197.091a4.3 4.3 0 0 0 .087-1.175c0-.235 0-.615-.19-.792-.412-.412-1.043.536-1.207.825-.042.074.061.235.127.14zM85.754 112.755c-.742.412-.825 1.493-1.064 2.206a6.8 6.8 0 0 1-.692 1.426 2.4 2.4 0 0 1-1.047 1.014l.148.095c-.12-.495.68-.824 1.022-.998a7.5 7.5 0 0 1 1.443-.47c.083 0 .033-.197-.045-.189a4.8 4.8 0 0 0-1.78.577c-.413.223-.953.557-.825 1.105 0 .062.082.123.148.095.4-.188.736-.491.965-.87a7 7 0 0 0 .713-1.332c.342-.824.363-1.875 1.072-2.523.041-.037 0-.169-.066-.136z" style="fill:#455a64;fill:color(display-p3 .2706 .3529 .3922);fill-opacity:1"/><path fill="#455A64" d="M83.726 114.643c.132-.663.85-.878 1.435-.952.334-.041.853-.091.824.412a1.2 1.2 0 0 1-.523.722l.123.177c.226-.252.498-.459.8-.61a.7.7 0 0 1 .19-.082q.093-.076.156.041.052.016.08.064a.14.14 0 0 1 .015.101 2.2 2.2 0 0 1 0 .655c0 .103.165.239.177.099a1.31 1.31 0 0 1 .64-1.039l-.112-.041.223.342c.037.062.127.066.144 0 .023-.196.1-.381.223-.536.103-.103.412-.206.482 0 0 .062.136.169.16.046.06-.293.203-.562.413-.775h-.095c.474.494 1.262-.47 1.48-.825.176-.274.236-.605.17-.923-.054-.198-.215-.413-.413-.215a1.8 1.8 0 0 0-.252 1.047c0 .231 0 .586.231.73s.511-.14.66-.321c.263-.325.484-.683.655-1.064a5.3 5.3 0 0 0 .441-2.544c0-.07-.103-.148-.12-.041a10 10 0 0 0-.197 1.583q-.01.396.054.788c.01.153.073.298.177.412.272.235.573-.202.73-.379.298-.344.55-.727.746-1.138l-.186-.091c.012.228.07.451.173.656.033.065.157.115.17 0a1.1 1.1 0 0 1 .115-.413 1 1 0 0 1 .148-.21c.103-.107.136-.161.285-.082.148.078.123.136.173.284q.038.11.099.21c.025.037.12.079.14 0a4.76 4.76 0 0 1 1.006-1.768l-.132-.058c.132.272.062.627.326.825.263.197.531-.071.717-.256.251-.252.451-.55.59-.878.15-.268.202-.581.144-.882a.33.33 0 0 0-.174-.19c-.127-.033-.197.078-.26.173a.93.93 0 0 0-.098.779.85.85 0 0 0 .569.565.856.856 0 0 0 .787-.152c.083-.066-.037-.256-.132-.182a.65.65 0 0 1-.921.031.65.65 0 0 1-.031-.921c.214-.169.029.461 0 .536a2.75 2.75 0 0 1-.63.981c-.195.194-.512.445-.623 0a2.6 2.6 0 0 0-.12-.503c-.02-.041-.086-.111-.132-.058a4.8 4.8 0 0 0-1.047 1.802h.14c-.136-.215-.086-.664-.412-.685-.412-.029-.66.59-.692.911h.168a1.4 1.4 0 0 1-.136-.536c0-.078-.127-.202-.18-.09a4.8 4.8 0 0 1-.533.861 5 5 0 0 1-.338.413 1 1 0 0 1-.152.152c-.219.128-.248-.037-.276-.194a7 7 0 0 1 .086-2.283l-.124-.042a5.02 5.02 0 0 1-1.092 3.488 1.4 1.4 0 0 1-.219.247c-.14.099-.19.116-.309-.02a.75.75 0 0 1-.123-.561 1.6 1.6 0 0 1 .12-.656q0-.027.012-.053a.1.1 0 0 1 .033-.043.125.125 0 0 1 .103-.031q.195-.138.169.14a1 1 0 0 1 0 .28c-.095.338-.29.639-.561.862-.181.173-.623.631-.886.354-.021-.024-.066-.045-.095 0-.227.235-.381.53-.446.85l.161.049a.44.44 0 0 0-.378-.321.4.4 0 0 0-.174.016c-.326.082-.412.462-.487.746h.145l-.219-.346c-.02-.029-.074-.062-.111-.041a1.45 1.45 0 0 0-.713 1.15l.177.099a3.5 3.5 0 0 0-.037-.907c-.029-.145-.087-.305-.26-.322a1.3 1.3 0 0 0-.651.264 2.7 2.7 0 0 0-.606.519c-.066.071.037.256.123.178a1.25 1.25 0 0 0 .561-.899.604.604 0 0 0-.482-.627 2.53 2.53 0 0 0-1.332.244 1.19 1.19 0 0 0-.684.882c0 .062.078.132.095.045zM113.42 96.104c-.412-.115-.919.256-1.237.487a3.7 3.7 0 0 0-1.026 1.525 3.1 3.1 0 0 0-.33 1.83.74.74 0 0 0 .355.548.74.74 0 0 0 .651.058c.262-.129.493-.315.676-.544q.356-.364.66-.775a3.06 3.06 0 0 0 .663-1.719.58.58 0 0 0-.194-.499.46.46 0 0 0-.634.153 3.4 3.4 0 0 0-.433.754c-.155.314-.254.651-.293.998-.033.49.338 1.344.977 1.125.272-.09.462-.449.598-.68q.317-.542.474-1.15c.025-.087-.136-.235-.173-.12-.083.26-.301 1.093.194 1.13.239 0 .379-.264.47-.437q.243-.493.412-1.018l-.169-.095c0 .169-.132 1.043.284.94.173-.045.285-.371.351-.507q.192-.407.301-.845l-.174-.1a1.2 1.2 0 0 0 0 .78.313.313 0 0 0 .45.07c.44-.32.755-.784.89-1.31.058-.186.153-.454 0-.62-.152-.164-.293-.061-.371.104-.173.367-.346 1.08 0 1.406.412.412.911-.363 1.105-.652a4.6 4.6 0 0 0 .726-1.674 1.44 1.44 0 0 0 0-.647c-.042-.127-.165-.412-.347-.412s-.305.441-.358.577q-.162.417-.215.862c-.049.466-.07 1.187.54 1.27a1.3 1.3 0 0 0 1.258-.953c.037-.099-.124-.268-.169-.144a1.34 1.34 0 0 1-.854.853c-.301.074-.56-.025-.606-.358a2.7 2.7 0 0 1 0-.656 3 3 0 0 1 .19-.73c.058-.148.264-.66.383-.296.12.362-.095.96-.259 1.344a5 5 0 0 1-.71 1.158c-.144.173-.552.581-.671.132a1.47 1.47 0 0 1 .086-.775c.021-.058.083-.334.165-.132.033.074-.082.305-.107.375a2.8 2.8 0 0 1-.326.602c-.117.182-.269.34-.445.466-.334.19-.223-.371-.19-.544.021-.103-.14-.24-.173-.1q-.128.506-.375.965a1 1 0 0 1-.132.227c-.099.025-.091-.103-.095-.153a3 3 0 0 1 0-.486c0-.066-.132-.202-.169-.095a7 7 0 0 1-.412.977q-.056.118-.128.227a.4.4 0 0 1-.095.115l-.235-.082c-.078-.103.066-.515.103-.618l-.173-.12c-.13.455-.332.886-.597 1.278-.145.206-.31.49-.606.412a.69.69 0 0 1-.466-.655 2.9 2.9 0 0 1 .478-1.472c.058-.095.115-.194.181-.284a.6.6 0 0 1 .132-.145l.062-.04.272.143c.037.062-.02.306-.029.367a3 3 0 0 1-.09.355c-.157.436-.394.84-.697 1.191-.268.393-.611.73-1.01.99a.46.46 0 0 1-.376.071.5.5 0 0 1-.175-.086.45.45 0 0 1-.125-.15 1.24 1.24 0 0 1-.062-.652 4.2 4.2 0 0 1 .466-1.463 3.16 3.16 0 0 1 .866-1.192c.247-.18.704-.56 1.034-.494.124.025.095-.173 0-.202zM61.407 134.246a.503.503 0 0 0-.585-.503c-.479.066-.928.54-1.237.886a4.5 4.5 0 0 0-1.117 2.787c0 .412.049.849.494.977.433.061.873-.039 1.237-.28a3.37 3.37 0 0 0 1.69-2.218c.066-.322.062-.771-.276-.94-.445-.227-.825.346-.985.66-.295.421-.44.929-.413 1.442a.8.8 0 0 0 .825.606c.503-.024.903-.445 1.237-.779a5 5 0 0 0 .952-1.269c.234-.444.343-.943.313-1.443-.037-.355-.367-.639-.688-.355-.182.219-.307.48-.363.759a1.9 1.9 0 0 0-.095.878.974.974 0 0 0 .825.845c.569 0 .993-.618 1.265-1.035.336-.513.58-1.081.722-1.678l-.194-.094c-.124.523-.214 1.113.169 1.554.05.057.128.062.153-.021.16-.605.502-1.146.98-1.55l-.148-.054c.15.303.233.635.243.973 0 .091.17.206.182.07a1.96 1.96 0 0 1 .692-1.331l-.144-.054c.097.188.15.395.157.606 0 .087.16.206.177.07a2.65 2.65 0 0 1 1.043-1.809l-.078-.071c.181.306-.12 1.163.466 1.237.222.025.412-.206.573-.346a4.3 4.3 0 0 0 .58-.68 4.7 4.7 0 0 0 .784-3.236c0-.058-.082-.169-.157-.124a1.57 1.57 0 0 0-.676 1.2c-.078.511-.165 1.236.161 1.677.874 1.175 1.946-1.096 2.123-1.76.03-.111-.152-.284-.202-.14a1.7 1.7 0 0 0-.082.824c.025.169.078.413.268.487s.412-.252.52-.412c.184-.256.34-.533.46-.825l-.193-.091a.55.55 0 0 0 .248.433.22.22 0 0 0 .198.018.23.23 0 0 0 .135-.145c.03-.108-.144-.277-.185-.145-.136.037-.202 0-.194-.128.008-.127-.14-.21-.194-.086-.14.328-.325.635-.552.911-.025.029-.099.157-.144.165-.165.025-.165-.169-.173-.26a1.5 1.5 0 0 1 .09-.622l-.202-.141c-.121.463-.325.9-.602 1.291-.26.367-.898 1.113-1.236.379a2.64 2.64 0 0 1-.038-1.389 1.4 1.4 0 0 1 .586-1.043l-.153-.124a4.43 4.43 0 0 1-1.38 3.818c-.12.111-.265.28-.413.214s-.152-.342-.148-.52a.9.9 0 0 0-.108-.519c0-.037-.078-.107-.127-.07a2.83 2.83 0 0 0-1.113 1.925l.181.074a1.8 1.8 0 0 0-.185-.725c-.03-.054-.091-.103-.145-.054a2.06 2.06 0 0 0-.738 1.418l.186.066a2.7 2.7 0 0 0-.276-1.092c-.03-.054-.095-.099-.153-.054a3.2 3.2 0 0 0-1.022 1.649l.152-.02c-.317-.367-.194-.895-.09-1.324.028-.111-.157-.239-.194-.094a5 5 0 0 1-1.014 2.028c-.252.301-.64.696-1.06.478-.42-.219-.412-.825-.28-1.237q.08-.263.185-.515c.095-.202.384-.478.475-.103.039.382-.033.767-.207 1.109a5.1 5.1 0 0 1-1.352 1.739 1.15 1.15 0 0 1-1.063.38c-.483-.165-.256-.775-.12-1.122.124-.364.332-.694.606-.964.173-.149.412-.161.453.095.018.176-.001.355-.057.523a3.2 3.2 0 0 1-1.035 1.62c-.3.248-1.649 1.089-1.843.388a2.65 2.65 0 0 1 .087-1.216c.087-.387.226-.76.412-1.109.189-.338.42-.65.689-.928q.21-.206.44-.387.114-.094.24-.169c.185-.112.622-.227.663.144 0 .086.108.091.112 0M72.904 127.918a1.1 1.1 0 0 0-.585.309 1.4 1.4 0 0 0-.202.26.74.74 0 0 0-.116.342c0 .322.413.313.631.202.195-.119.362-.277.49-.466a.55.55 0 0 0 .145-.33.37.37 0 0 0-.23-.342.17.17 0 0 0-.135.002.2.2 0 0 0-.055.041.2.2 0 0 0-.033.06c0 .033-.033.14 0 .157s.033-.021.045-.037q0 .03 0 0h.11499999999999999v.049a.6.6 0 0 1-.156.256c-.121.174-.29.308-.487.387a.34.34 0 0 1-.148 0h-.029c.029 0 .07.05.058.075a1 1 0 0 0 .024-.087q.054-.154.153-.284c.152-.176.358-.298.585-.347.12-.033.037-.251-.074-.226zM81.81 122.567a5.2 5.2 0 0 0 1.805-.495 7.5 7.5 0 0 0 1.649-.849c.367-.268.936-.717.948-1.237a.41.41 0 0 0-.223-.412c-.247-.124-.527.078-.721.223-.907.668-1.237 1.826-1.604 2.844a7 7 0 0 1-.676 1.534c-.272.441-.734 1.01-1.27 1.129-.535.12 0-.68.153-.824a2.4 2.4 0 0 1 .87-.54 5.2 5.2 0 0 1 2.354-.178c.099 0 .057-.16 0-.181-1.101-.28-2.63-.128-3.438.763-.24.264-.619.89-.206 1.179.412.288 1.005-.281 1.26-.532.805-.804 1.069-1.954 1.452-2.985a5.2 5.2 0 0 1 .767-1.467 2.6 2.6 0 0 1 .614-.573.8.8 0 0 1 .256-.136c.264 0 .214.136.169.259a1.5 1.5 0 0 1-.276.413 5 5 0 0 1-1.748 1.175 7.7 7.7 0 0 1-2.156.746c-.075 0-.046.16.028.156zM85.8 122.344c.152-.367.346-.825.795-.895.651-.09.45.643.499 1.035 0 .087.14.206.177.07.124-.458.35-.881.664-1.237.074-.082.194-.255.326-.156.05.037.066.169.086.231q.054.19.17.35c.036.054.135.07.148 0a2.02 2.02 0 0 1 .824-1.402l-.09-.02c.14.14.243.315.296.507 0 .07.124.152.173.062l.545-.969-.182-.12a.496.496 0 0 0 .342.516.71.71 0 0 0 .73-.277q.401-.453.697-.981c.136-.231.437-.626.346-.911a.366.366 0 0 0-.486-.222c-.28.115-.35.503-.371.766-.042.433.132 1.538.824 1.237.364-.219.665-.529.874-.899.251-.374.446-.784.577-1.216l-.177-.119a1.14 1.14 0 0 0 .218.964c.03.042.116.075.145 0a4.7 4.7 0 0 1 1.034-1.649l-.127-.028c.148.206.242.447.272.7 0 .062.12.211.169.095a4.2 4.2 0 0 1 .437-.787c.066-.087.144-.239.239-.293.23-.144.284.12.292.289 0 .086.14.206.174.074.158-.628.49-1.199.956-1.649l-.157-.116c.015.405.174.792.45 1.089a.08.08 0 0 0 .051.021q.03 0 .052-.021a7.4 7.4 0 0 0 1.723-2.42c.21-.487.824-1.765.07-2.094a.07.07 0 0 0-.054-.008.08.08 0 0 0-.045.032 3.76 3.76 0 0 0-.59 2.016c0 .491.207 1.076.776 1.134.639.062 1.203-.524 1.55-.989.4-.541.659-1.173.754-1.839 0-.074-.107-.239-.161-.12a1.65 1.65 0 0 0 0 1.369c0 .033.066.095.112.07.461-.325.783-.812.902-1.364.087-.264.231-.949-.243-.949a.1.1 0 0 0-.029.01.1.1 0 0 0-.02.023 1.53 1.53 0 0 0 0 1.171.89.89 0 0 0 .824.635c.388-.045.701-.441.907-.734.272-.384.452-.825.528-1.29 0-.07-.111-.239-.153-.124a.42.42 0 0 0 .047.366.4.4 0 0 0 .32.183c.412.045.548-.413.627-.73l-.095.033a1.167 1.167 0 0 0 1.591-.326c.046-.07-.049-.231-.111-.14a1.1 1.1 0 0 1-1.435.293.07.07 0 0 0-.099.037 1.3 1.3 0 0 1-.169.445.4.4 0 0 1-.114.12.4.4 0 0 1-.154.066c-.09 0-.321-.058-.263-.202l-.153-.124a2.95 2.95 0 0 1-.651 1.422c-.147.207-.346.37-.577.474-.355.112-.635-.198-.755-.499-.062-.156-.189-.77.029-.824.219-.054 0 .49-.025.598-.111.5-.405.941-.824 1.236l.115.07a1.36 1.36 0 0 1 0-1.162l-.161-.124a3.9 3.9 0 0 1-.544 1.505c-.273.512-.708.92-1.236 1.158a.66.66 0 0 1-.825-.214 1.4 1.4 0 0 1-.128-.824c.048-.6.242-1.179.565-1.687l-.095.029c.413.173.145.825.05 1.117q-.188.565-.462 1.093a7.2 7.2 0 0 1-1.476 1.925h.107a1.35 1.35 0 0 1-.35-.874c0-.066-.087-.181-.157-.115a3.7 3.7 0 0 0-.993 1.711l.177.07c0-.231-.136-.693-.462-.606-.198.053-.35.334-.453.49q-.243.338-.412.718l.169.094a1.8 1.8 0 0 0-.334-.87c-.03-.041-.087-.07-.128-.028a4.7 4.7 0 0 0-1.068 1.69h.144a.86.86 0 0 1-.148-.738c0-.087-.144-.239-.181-.12a4.4 4.4 0 0 1-.784 1.484c-.165.202-.494.656-.8.59-.304-.066-.354-.693-.333-.952q.011-.214.09-.413c.033-.07.376-.47.413-.115 0 .099-.12.264-.165.35a6 6 0 0 1-.235.413q-.225.375-.503.713-.135.18-.322.305c-.132.074-.544.161-.52-.144 0-.083-.11-.239-.176-.12l-.503.985.173.062a1.54 1.54 0 0 0-.392-.659.1.1 0 0 0-.044-.024.1.1 0 0 0-.05.003 2.19 2.19 0 0 0-.912 1.521h.149c-.157-.21-.215-.919-.648-.659-.217.17-.395.385-.523.63a3.3 3.3 0 0 0-.367.858l.177.07c-.053-.462.136-1.171-.51-1.29-.648-.12-.928.498-1.118.964-.041.091.107.26.156.144zM109.03 108.019a3.73 3.73 0 0 0 2.296-1.674 1.23 1.23 0 0 0 .247-.928.464.464 0 0 0-.738-.264 4.22 4.22 0 0 0-1.649 2.26 4.5 4.5 0 0 0-.231 1.343c0 .367 0 .895.413 1.031.523.165.857-.412 1.109-.763q.613-.853 1.236-1.71l-.21-.058c.202.356.329.751.371 1.158 0 .099.198.26.243.099a5.5 5.5 0 0 1 1.051-2.007h-.16c.249.232.397.554.412.894 0 .099.185.256.239.099a4.3 4.3 0 0 1 .965-1.649l-.186-.082.198.354c.045.083.165.153.214.037.211-.483.51-.922.883-1.294l-.202-.149a.7.7 0 0 0 .465.656 1 1 0 0 0 1.002-.235 3.87 3.87 0 0 0 1.443-2.082c.062-.293.111-.701-.136-.923s-.499-.091-.668.127a2 2 0 0 0-.33 1.002c-.061.331-.004.672.161.965.516.791 1.505.342 2.061-.144.071-.066-.028-.248-.119-.182-.449.334-1.48.899-1.814.124-.1-.32-.1-.662 0-.981.049-.215.177-.751.47-.771.412-.029.103.903.033 1.072-.142.32-.333.616-.565.878q-.332.419-.758.742a.9.9 0 0 1-.569.21.41.41 0 0 1-.433-.383c0-.075-.12-.231-.198-.153-.4.399-.721.87-.944 1.389l.214.038q-.093-.18-.193-.359c-.029-.045-.128-.149-.19-.083a4.6 4.6 0 0 0-1.031 1.724l.235.103a1.68 1.68 0 0 0-.544-1.146.1.1 0 0 0-.037-.027.1.1 0 0 0-.045-.01.1.1 0 0 0-.045.01.1.1 0 0 0-.038.027 5.7 5.7 0 0 0-1.08 2.061l.243.099a3.3 3.3 0 0 0-.412-1.291c-.041-.07-.152-.148-.214-.057q-.395.545-.784 1.096-.359.569-.787 1.089c-.115.123-.359.325-.544.222s-.186-.503-.181-.709c.004-.369.057-.736.156-1.092a4.5 4.5 0 0 1 1.084-1.897c.157-.156.932-.898.957-.321a1.57 1.57 0 0 1-.412.927 4.17 4.17 0 0 1-1.971 1.402c-.074.025-.041.186.037.169zM59.428 152.075a3.6 3.6 0 0 1 1.58-1.649c.185-.099.605-.326.667 0q.03.326 0 .651a9.4 9.4 0 0 1-.136 1.443c0 .083.132.243.173.12q.177-.538.47-1.023c.07-.115.198-.412.326-.465.288-.132.412.445.453.593 0 .087.14.157.173.045a2.94 2.94 0 0 1 1.113-1.583l-.136-.057c.065.149.093.312.083.474 0 .078.099.181.16.095.149-.211.297-.413.442-.627l-.157-.07c.066.223.219.589.503.565a.52.52 0 0 0 .305-.198c.173-.177.338-.367.495-.561q.403-.511.713-1.084c.165-.309.441-.746.367-1.113-.05-.256-.305-.495-.565-.355-.283.242-.48.569-.56.932-.145.449-.355 1.699.478 1.649.412-.037.75-.453.98-.775.294-.406.531-.85.706-1.319l-.165-.095c.002.369.103.731.293 1.047a.1.1 0 0 0 .027.029.07.07 0 0 0 .038.011.07.07 0 0 0 .039-.011.1.1 0 0 0 .027-.029q.373-.556.738-1.113h-.115l.342.342c.041.037.115.037.124-.029.05-.391.544-.412.845-.437a.776.776 0 0 0 .66-.35c.028-.058-.054-.194-.104-.12-.33.507-1.455.058-1.554.825l.124-.029-.342-.342a.07.07 0 0 0-.09-.022.1.1 0 0 0-.026.022q-.371.557-.738 1.113h.132a1.7 1.7 0 0 1-.235-.886c0-.062-.123-.202-.16-.095a4.5 4.5 0 0 1-1.085 1.76c-.321.293-.861.412-.894-.181a2.4 2.4 0 0 1 .227-1.093q.103-.269.28-.494c.12-.136.12-.145.284 0 .136.045.173.127.12.247a1 1 0 0 1-.062.173q-.193.469-.453.903a7.5 7.5 0 0 1-.652.915c-.115.132-.23.264-.354.388-.124.123-.087.107-.252.086-.165-.02-.214-.103-.264-.276-.02-.07-.099-.153-.156-.07-.149.21-.297.412-.441.626l.16.095c.008-.2-.029-.4-.107-.585-.025-.054-.082-.095-.136-.058a3.07 3.07 0 0 0-1.162 1.649l.169.046c-.046-.26-.343-1.093-.73-.792a2.3 2.3 0 0 0-.47.68 5 5 0 0 0-.383.87l.173.12a9.6 9.6 0 0 0 .128-1.888c0-.314-.05-.825-.5-.722-.465.143-.89.396-1.236.738a3.6 3.6 0 0 0-.825 1.237c-.032.078.079.206.128.099zM83 138.137a5.3 5.3 0 0 0 1.175-1.975c.02-.053-.053-.198-.123-.152a6.38 6.38 0 0 0-2.717 3.623c-.16.573-.35 1.414.437 1.583.713.153 1.422-.626 1.85-1.092a7 7 0 0 0 1.448-2.375l-.182-.119c-.118.437-.1.9.05 1.327 0 .046.111.165.165.083.264-.412.527-.849.795-1.274l-.152-.05q.223.352.441.705c.029.042.103.112.153.054.168-.202.255-.536.502-.655.17-.079.301-.033.322.164q0 .17.058.33c.033.074.148.107.169 0 .102-.513.377-.976.779-1.311l-.148-.053a.7.7 0 0 1 .107.412c0 .078.12.243.177.119.236-.509.538-.986.899-1.418l-.153-.066a1 1 0 0 0 .363.689c.293.177.577-.095.795-.272a4.84 4.84 0 0 0 1.415-1.93.73.73 0 0 0 .02-.721c-.198-.256-.367.025-.466.21a2 2 0 0 0 .05 1.979c.025.037.074.095.127.066.825-.449 1.237-1.451 1.65-2.243a6.1 6.1 0 0 0 .824-3.017c0-.087-.14-.202-.173-.07q-.24.91-.371 1.842a7.4 7.4 0 0 0-.128 1.732c.037.338.297.573.61.338a5.5 5.5 0 0 0 1.159-1.237l-.136-.025a.95.95 0 0 0 .531.289c.136.025.087-.206 0-.227a.7.7 0 0 1-.412-.202c-.033-.029-.099-.074-.14-.02a6.7 6.7 0 0 1-.825.968c-.148.141-.457.516-.577.169a2.2 2.2 0 0 1 0-.733c.06-.94.216-1.871.462-2.779l-.177-.074a6 6 0 0 1-.825 2.886c-.214.412-.437.824-.68 1.236a2.6 2.6 0 0 1-.923.986l.127.07a1.75 1.75 0 0 1-.173-1.46q.056-.156.136-.301c0-.024.095-.202.128-.197.033.004.078.094.074.148a1.9 1.9 0 0 1-.292.713 4.7 4.7 0 0 1-.911 1.208c-.188.206-.411.377-.66.503-.313.111-.412-.276-.458-.511 0-.058-.103-.149-.156-.083a6.5 6.5 0 0 0-.932 1.456l.177.119a1 1 0 0 0-.136-.602c-.033-.053-.094-.103-.148-.053a2.43 2.43 0 0 0-.825 1.401h.17c-.075-.169 0-.354-.104-.519a.37.37 0 0 0-.292-.161c-.437-.025-.561.466-.788.734l.153.053-.417-.709c0-.033-.107-.119-.148-.049-.268.412-.532.824-.8 1.27l.165.082a2.03 2.03 0 0 1-.037-1.212c0-.087-.14-.239-.181-.119a6.8 6.8 0 0 1-1.365 2.271c-.302.352-.65.663-1.035.923-.412.268-1.207.347-1.13-.379.19-1.694 1.374-3.298 2.771-4.205l-.124-.152a5.45 5.45 0 0 1-1.092 1.946c-.045.049 0 .193.078.127zM105.249 126.821c-.222.223 0 .598.272.643.437.074.755-.494.94-.804a8.9 8.9 0 0 0 .907-3.075l-.194-.062a6.9 6.9 0 0 0 .664 2.573c.041.074.157.107.177 0q.215-1.15.499-2.284c.12-.491.301-1.979 1.13-1.649.095.037.078-.12.024-.157a.594.594 0 0 0-.746.078 2.03 2.03 0 0 0-.461 1.064 42 42 0 0 0-.643 2.886h.197a6.5 6.5 0 0 1-.626-2.449c0-.091-.169-.21-.194-.062a13 13 0 0 1-.466 2.061 5.3 5.3 0 0 1-.412.911q-.135.245-.313.458a1 1 0 0 1-.207.202.4.4 0 0 1-.144.091q-.358.07-.297-.26c.029-.049-.028-.218-.094-.153zM110.155 122.946c-.623.223-.858.965-.874 1.571 0 .23.041.593.355.589.313-.004.544-.482.667-.717a3.3 3.3 0 0 0 .347-1.08c.029-.223.049-.635-.252-.693s-.375.445-.412.639a.94.94 0 0 0 .247.907.6.6 0 0 0 .226.108.637.637 0 0 0 .669-.24c.3-.356.507-.781.602-1.237l-.186-.086c0 .247 0 .515.037.763.021.111.087.263.223.263s.227-.284.264-.412l.235-.804h-.124c.107.103.103.276.223.375a.5.5 0 0 0 .276.112.83.83 0 0 0 .655-.359c.05-.058 0-.231-.086-.165a.9.9 0 0 1-.602.301c-.243-.021-.239-.288-.388-.433-.033-.033-.107-.041-.123 0q-.14.477-.281.953c0 .028-.024.148-.086.14-.062-.009 0-.186 0-.219l-.025-.503c0-.07-.152-.21-.185-.09-.081.352-.22.688-.413.993-.156.227-.482.552-.775.346-.292-.206-.169-.738-.049-1.014.029-.058.07-.185.161-.074.037.045 0 .19 0 .239a3 3 0 0 1-.095.478c-.091.306-.23.596-.412.858-.083.123-.215.375-.384.334q-.1 0-.086-.074a.6.6 0 0 1 0-.12 2 2 0 0 1 0-.214 1.62 1.62 0 0 1 .738-1.295c.061-.041 0-.206-.075-.177z" style="fill:#455a64;fill:color(display-p3 .2706 .3529 .3922);fill-opacity:1"/><path fill="#000" d="M109.706 39.812v6.275a5.39 5.39 0 0 1-2.474 4.258l-12.144 7.008c-.602.347-.944 1.04-1.303 1.769a6.9 6.9 0 0 1-.94 1.534c-.94 1.067-3.001 2.184-4.452 2.646q-.712.236-1.456.338a16 16 0 0 1-.597.083c-1.324.177-2.973.412-3.941.96l-14.21 8.204c-.373.229-.8.357-1.237.37a1.65 1.65 0 0 1-.825-.214 2.06 2.06 0 0 1-.903-1.871v-6.27a5.36 5.36 0 0 1 2.474-4.259l4.774-2.758a.3.3 0 0 1 .066-.025.503.503 0 0 1 .499.862.2.2 0 0 1-.058.045l-4.77 2.754a4.4 4.4 0 0 0-1.954 3.38v6.27a.858.858 0 0 0 1.443.825l14.21-8.207c1.142-.656 2.906-.895 4.316-1.085.21-.024.412-.057.59-.082q.66-.095 1.294-.301c1.29-.412 3.203-1.451 3.995-2.346.317-.403.581-.845.787-1.315.412-.824.825-1.698 1.707-2.197l12.145-7.008a4.39 4.39 0 0 0 1.95-3.377v-6.266a.852.852 0 0 0-1.439-.824l-4.123 2.387a4.1 4.1 0 0 0-.519-.874l4.147-2.395a1.84 1.84 0 0 1 2.808.637c.16.333.216.707.16 1.073z" opacity=".25" style="fill:#000;fill-opacity:1"/><path fill="#E0E0E0" d="m116.578 119.644-1.414 1.031c-.618.453-1.909 1.917-1.55 2.403.359.487 2.139-.301 2.758-.75l1.414-1.035a3 3 0 0 1-.285-.28l-.123-.149c-.116-.14-.206-.272-.26-.342a4.4 4.4 0 0 1-.536-.878" style="fill:#e0e0e0;fill:color(display-p3 .8784 .8784 .8784);fill-opacity:1"/><path fill="#000" d="m116.578 119.644-1.414 1.031c-.618.453-1.909 1.917-1.55 2.403.359.487 2.139-.301 2.758-.75l1.414-1.035a3 3 0 0 1-.285-.28l-.123-.149c-.116-.14-.206-.272-.26-.342a4.4 4.4 0 0 1-.536-.878" opacity=".15" style="fill:#000;fill-opacity:1"/><path fill="#263238" d="M114.315 123.218c-.326.054-.586.029-.701-.128-.116-.156-.066-.387.066-.659a.9.9 0 0 0 .195.492.9.9 0 0 0 .44.295" style="fill:#263238;fill:color(display-p3 .149 .1961 .2196);fill-opacity:1"/><path fill="#F7921E" d="M124.275 108.864c.622-.47 1.55-.524 2.65-.033 2.165.952 4.123 3.652 4.366 6.014.12 1.171-.194 2.037-.825 2.495h-.02c-2.193 1.587-8.938 4.914-12.438 4.86a1.6 1.6 0 0 1-.593-.177 3.043 3.043 0 0 1-1.616-2.231 1.2 1.2 0 0 1 .053-.54c1.006-3.347 6.258-8.813 8.423-10.388" style="fill:#f7921e;fill:color(display-p3 .9686 .5725 .1176);fill-opacity:1"/><path fill="#F7921E" d="m125.631 107.203.606.824c.403.052.796.163 1.166.33 2.222.985 4.242 3.739 4.502 6.159.049.403.037.812-.037 1.212l.602.824-1.765.742a2.95 2.95 0 0 1-2.349-.177c-2.227-.981-4.242-3.735-4.506-6.155a2.94 2.94 0 0 1 .548-2.292z" style="fill:#f7921e;fill:color(display-p3 .9686 .5725 .1176);fill-opacity:1"/><path fill="#000" d="m125.631 107.203.606.824c.403.052.796.163 1.166.33 2.222.985 4.242 3.739 4.502 6.159.049.403.037.812-.037 1.212l.602.824-1.765.742a2.95 2.95 0 0 1-2.349-.177c-2.227-.981-4.242-3.735-4.506-6.155a2.94 2.94 0 0 1 .548-2.292z" opacity=".15" style="fill:#000;fill-opacity:1"/><path fill="#F7921E" d="M163.095 81.833c2.42 1.068 4.609 4.06 4.894 6.687.14 1.31-.219 2.284-.92 2.795l-34.158 24.994c-.697.512-1.736.561-2.944.029-2.415-1.067-4.604-4.06-4.889-6.686-.14-1.311.219-2.284.915-2.795l34.163-24.995c.697-.511 1.732-.56 2.939-.029" style="fill:#f7921e;fill:color(display-p3 .9686 .5725 .1176);fill-opacity:1"/><path fill="#fff" d="M163.095 81.833c2.42 1.068 4.609 4.06 4.894 6.687.14 1.31-.219 2.284-.92 2.795l-34.158 24.994c-.697.512-1.736.561-2.944.029-2.415-1.067-4.604-4.06-4.889-6.686-.14-1.311.219-2.284.915-2.795l34.163-24.995c.697-.511 1.732-.56 2.939-.029" opacity=".5" style="fill:#fff;fill-opacity:1"/><path fill="#F7921E" d="M164.13 91.344c-2.415-1.068-4.604-4.06-4.893-6.687-.14-1.31.219-2.284.919-2.795s1.732-.56 2.94-.029c2.42 1.068 4.609 4.06 4.893 6.687.14 1.31-.218 2.284-.919 2.795s-1.732.573-2.94.029" style="fill:#f7921e;fill:color(display-p3 .9686 .5725 .1176);fill-opacity:1"/><path fill="#F7921E" d="M165.21 79.496c2.787 1.236 5.318 4.687 5.644 7.717.165 1.513-.251 2.638-1.055 3.228l-2.915 2.131c-.804.59-1.999.647-3.397.029-2.787-1.237-5.314-4.683-5.643-7.713-.165-1.517.251-2.639 1.059-3.228l2.91-2.14c.808-.581 2.004-.639 3.397-.024" style="fill:#f7921e;fill:color(display-p3 .9686 .5725 .1176);fill-opacity:1"/><path fill="#fff" d="M165.21 79.496c2.787 1.236 5.318 4.687 5.644 7.717.165 1.513-.251 2.638-1.055 3.228l-2.915 2.131c-.804.59-1.999.647-3.397.029-2.787-1.237-5.314-4.683-5.643-7.713-.165-1.517.251-2.639 1.059-3.228l2.91-2.14c.808-.581 2.004-.639 3.397-.024" opacity=".35" style="fill:#fff;fill-opacity:1"/><path fill="#F7921E" d="M166.402 90.47c-2.791-1.238-5.318-4.684-5.648-7.714-.16-1.517.256-2.638 1.06-3.228s2.003-.647 3.397-.033c2.786 1.237 5.318 4.687 5.643 7.717.165 1.513-.251 2.639-1.055 3.228s-2.008.648-3.397.03" style="fill:#f7921e;fill:color(display-p3 .9686 .5725 .1176);fill-opacity:1"/><path fill="#F7921E" d="M203.578 51.587c2.713 1.195 5.17 4.555 5.492 7.503.16 1.476-.248 2.568-1.031 3.141l-37.873 27.711c-.783.573-1.946.631-3.298.03-2.717-1.196-5.174-4.536-5.495-7.504-.157-1.476.247-2.564 1.03-3.141l37.873-27.711c.78-.573 1.946-.631 3.302-.03" style="fill:#f7921e;fill:color(display-p3 .9686 .5725 .1176);fill-opacity:1"/><path fill="#fff" d="M203.578 51.587c2.713 1.195 5.17 4.555 5.492 7.503.16 1.476-.248 2.568-1.031 3.141l-37.873 27.711c-.783.573-1.946.631-3.298.03-2.717-1.196-5.174-4.536-5.495-7.504-.157-1.476.247-2.564 1.03-3.141l37.873-27.711c.78-.573 1.946-.631 3.302-.03" opacity=".35" style="fill:#fff;fill-opacity:1"/><path fill="#F7921E" d="M200.272 51.615a6.595 6.595 0 0 1 10.765 6.269 6.59 6.59 0 0 1-2.998 4.346c-.783.573-1.946.627-3.298.03-2.713-1.196-5.174-4.535-5.491-7.504-.161-1.475.243-2.568 1.026-3.141z" style="fill:#f7921e;fill:color(display-p3 .9686 .5725 .1176);fill-opacity:1"/><path fill="#263238" d="m203.587 70.55-.174-1.426-4.291-1.814-24.413 18.497c-.573.437-.825.94-.767 1.393.033.24.144 1.171.173 1.419a1.36 1.36 0 0 0 .936 1.026 4.62 4.62 0 0 0 4.143-.598z" style="fill:#263238;fill:color(display-p3 .149 .1961 .2196);fill-opacity:1"/><path fill="#37474F" d="M174.861 87.233c-1.096.825-1.022 1.913.169 2.412a4.62 4.62 0 0 0 4.143-.598l24.413-18.498-4.312-1.818z" style="fill:#37474f;fill:color(display-p3 .2157 .2784 .3098);fill-opacity:1"/><path fill="#455A64" d="m198.693 64.09.581 4.642 4.312 1.818-.581-4.642z" style="fill:#455a64;fill:color(display-p3 .2706 .3529 .3922);fill-opacity:1"/><path fill="#263238" d="m198.693 64.09-.932.71.582 4.641.931-.709z" style="fill:#263238;fill:color(display-p3 .149 .1961 .2196);fill-opacity:1"/><path fill="#455A64" d="M208.929 50.807a2.12 2.12 0 0 1 2.35-.099 2.12 2.12 0 0 1 .991 2.133 2.12 2.12 0 0 1-.843 1.384l-1.719 1.261a1.06 1.06 0 0 1-1.063 0 3.3 3.3 0 0 1-1.769-2.415 1.06 1.06 0 0 1 .33-1.015l1.719-1.257z" style="fill:#455a64;fill:color(display-p3 .2706 .3529 .3922);fill-opacity:1"/><path fill="#37474F" d="M206.876 53.079a1.06 1.06 0 0 1 .33-1.014l1.719-1.258a2.11 2.11 0 0 1 2.041-.251c-.581-.144-1.398.462-2.35 1.158-.952.697-1.377 1.493-.412 2.944.709 1.06 1.373.87 1.682.688l-.19.14a1.06 1.06 0 0 1-1.063 0 3.29 3.29 0 0 1-1.757-2.407M142.558 191.132c-.347-.033-.355.824-.136 1.216.614 1.167 2.329 2.42 4.839 2.972 2.511.553 7.421-.107 8.913-.165 1.493-.057 4.061.701 5.545.94 2.7.437 4.535-.313 5.433-1.179a1.6 1.6 0 0 0 .32-.6c.064-.22.082-.451.051-.678-.024-1.026-.115-1.236-.231-1.236z" style="fill:#37474f;fill:color(display-p3 .2157 .2784 .3098);fill-opacity:1"/><path fill="#455A64" d="M167 189.417c.261 1.218.341 2.468.239 3.71-.313.762-1.15 1.199-1.822 1.41-1.765.552-3.496.445-5.442.029a14.2 14.2 0 0 0-3.834-.437c-1.538.082-4.926.412-6.468.449a10.6 10.6 0 0 1-4.197-.825c-1.018-.474-2.564-1.521-2.906-2.312-.334-1.847-.144-2.944.919-3.57 1.064-.627 2.729-.792 4.947-.961.664-.049 1.501-.086 1.86-.123a75 75 0 0 1 3.615-.314 5.9 5.9 0 0 0 2.515-.548c.36-.164.651-.448.824-.804.214-.474.21-1.163.623-1.2 0 0 7.601 1.291 8.216 1.357.713.082.251 1.096.911 4.139" style="fill:#455a64;fill:color(display-p3 .2706 .3529 .3922);fill-opacity:1"/><path fill="#FAFAFA" d="M149.71 186.725c-.232.18-.423.407-.561.668a3.8 3.8 0 0 0-.35.882c-.099.387.379.466.565.02q.208-.56.544-1.055c.16-.228.393-.395.66-.474l.387-.037c-.103-.289-.952-.198-1.245-.004M153.14 186.329a.92.92 0 0 0-.717.215 1.8 1.8 0 0 0-.536.803 7 7 0 0 0-.305 1.147c-.029.251.556.243.622-.029a10 10 0 0 1 .297-1.047c.066-.174.371-.825.775-.891h.186c0-.086-.116-.144-.198-.165a.7.7 0 0 0-.124-.033M155.152 186.267a.77.77 0 0 0-.446.26 2.1 2.1 0 0 0-.313.602 4 4 0 0 0-.177 1.236c0 .322.573.235.594.021.061-.676.061-1.121.383-1.612.125-.214.299-.396.507-.532 0-.057-.103-.061-.161-.053q-.196.027-.387.078" style="fill:#fafafa;fill:color(display-p3 .9804 .9804 .9804);fill-opacity:1"/><path fill="#FFA8A7" d="M166.86 177.099s-.656 7.008-.825 8.607c-.054.516-1.031.726-1.533.944a6 6 0 0 0-1.728.994c-1.278 1.27-2.238 1.566-3.009-.66-.157-.453-.45-.651-1.035-.544a3.5 3.5 0 0 1-1.319.186c-.066-.046-.025-.149.02-.215a2.186 2.186 0 0 0 .466-1.768c-.218-2.861-.338-5.731-.503-8.596zM195.634 171.484c-.907-1.447-2.317-5.335-3.475-9.457l-8.575 3.978s5.232 9.527 5.85 10.393c.981 1.41 6.2-4.914 6.2-4.914" style="fill:#ffa8a7;fill:color(display-p3 1 .6588 .6549);fill-opacity:1"/><path fill="#455A64" d="M198.454 174.567c0-.082.033-.766 0-.849-.19-.734-.643-.936-1.237-1.344a9 9 0 0 1-1.603-1.377c-.198-.268-.235-.412-.536-.532-.516-.21-1.348-.226-2.367.31-1.673.878-2.184 1.937-2.09 3.083.075.878.149 2.061-.622 2.56-.322.215-1.093-.857-1.093-.857-.474.795.458 1.575.825 3.191a6.6 6.6 0 0 1 .045 2.716c-.169 1.414-.362 1.41-1.117 1.509-.647.087-2.473-.037-3.603.742-1.542 1.076-1.129 2.511-1.129 2.511.197.544 1.875 3.186 7.997 2.201 1.777-.288 5.512-3.079 5.454-3.343a3.5 3.5 0 0 1 0-.8c.021-.627.05-1.237.078-1.88a9.7 9.7 0 0 1 .103-1.789q.174-.73.227-1.48.177-1.884.351-3.772c.049-.359.367-.441.317-.8" style="fill:#455a64;fill:color(display-p3 .2706 .3529 .3922);fill-opacity:1"/><path fill="#000" d="M199.225 174.336c.606.582.239 2.28-.573 4.317-.359.898-1.027 2.473-.825 4.122s.231 2.432-.197 3.207c-.664 1.212-4.226 2.762-6.324 3.249a11.6 11.6 0 0 0 2.135-6.06c.21-3.648.487-5.998 2.156-7.614 2.103-2.078 3.628-1.221 3.628-1.221" style="fill:#000;fill-opacity:1"/><path fill="#37474F" d="M183.926 186.23s1.237 2.3 5.965 2.226c1.868-.029 2.865-.94 2.911-3.776.053-3.413.33-6.864 1.434-8.562 1.105-1.699 2.886-2.519 4.23-2.4.32.098.591.313.759.602 0 0-1.365-.449-3.492 1.315-1.571 1.303-1.991 4.024-1.971 7.421 0 1.455.099 3.104-.325 4.205a3.35 3.35 0 0 1-2.264 1.995c-2.576.726-6.101-.47-7.008-1.558a1.694 1.694 0 0 1-.239-1.468" style="fill:#37474f;fill:color(display-p3 .2157 .2784 .3098);fill-opacity:1"/><path fill="#FAFAFA" d="M189.615 182.355a1 1 0 0 0-.379.569 1.61 1.61 0 0 0 .746 1.48c.285.181.532.115.079-.482a2.97 2.97 0 0 1-.446-1.567M189.871 180.586s-.148.099-.185.573c-.021.256.375 1.283.874 1.526.498.243.226-.33 0-.614a3.7 3.7 0 0 1-.689-1.485M189.706 178.636s-.165.041 0 .697c.233.41.597.73 1.035.907.321.037.478-.124.082-.412-.305-.223-1.059-.878-1.117-1.192" style="fill:#fafafa;fill:color(display-p3 .9804 .9804 .9804);fill-opacity:1"/><path fill="#F7921E" d="M185.93 170.536s-4.217-7.33-10.545-18.461a14.8 14.8 0 0 1-1.987-5.099c-.412-1.855-2.63-11.201-2.63-11.201l-2.342 15.196c.338 1.624.825 4.122.825 5.994 0 2.51-.318 6.319-1.027 11.489-1.084 7.899-1.587 12.108-1.587 12.108-.561.412-1.237.964-5.141.911-1.937-.029-3.974-1.105-3.974-1.105s-.684-8.22-.969-13.95c-.263-5.29-.696-11.267-.923-14.458-.412-5.994-.556-8.579-.618-18.019-.062-9.795.684-24.203.684-24.203h27.571s2.041 3.442 1.48 11.877c.219 8.245.952 23.3.952 23.3 1.872 2.168 3.183 4.811 4.469 9.506 1.431 5.219 2.3 8.245 3.438 12.058-2.234-.061-6.851 2.499-7.676 4.057" style="fill:#f7921e;fill:color(display-p3 .9686 .5725 .1176);fill-opacity:1"/><path fill="#000" d="m170.747 135.845 1.533-10.887s3.603-.276 7.936-3.879c0 0-.573 3.223-6.715 5.429l-1.472 10.533 1.121 8.917s-2.378-9.907-2.403-10.113" opacity=".2" style="fill:#000;fill-opacity:1"/><path fill="#FFA8A7" d="m165.685 70.916 1.554 6.798 8.331-1.236-1.014-7.347z" style="fill:#ffa8a7;fill:color(display-p3 1 .6588 .6549);fill-opacity:1"/><path fill="#F28F8F" d="M160.226 59.947a33 33 0 0 0-1.954 4.122l1.612.788z" style="fill:#f28f8f;fill:color(display-p3 .949 .5608 .5608);fill-opacity:1"/><path fill="#FFA8A7" d="M164.135 52.147c-2.927.152-3.851 3.096-4.238 9.482-.375 6.183.412 7.972 1.191 8.826 1.81 1.03 3.669 1.236 6.213.59 1.937-.487 6.855-1.893 8.97-4.948 2.474-3.603 3.24-8.554.722-10.652-3.542-2.985-11.308-3.38-12.858-3.298" style="fill:#ffa8a7;fill:color(display-p3 1 .6588 .6549);fill-opacity:1"/><path fill="#B16668" d="M161.958 66.217a.24.24 0 0 0-.091.045 1.22 1.22 0 0 1-.169.194 1.5 1.5 0 0 1-.288.23 2.2 2.2 0 0 1-.635.24.04.04 0 0 0-.022.013.04.04 0 0 0-.011.024.1.1 0 0 0-.008.03q0 .017.008.032c.037.045.119.037.169.033a.7.7 0 0 0 .181-.033q.199-.045.38-.14a1.6 1.6 0 0 0 .313-.227q.074-.062.136-.136a1 1 0 0 0 .058-.07.24.24 0 0 0 .041-.149c0-.024 0-.099-.062-.086" style="fill:#b16668;fill:color(display-p3 .6941 .4 .4078);fill-opacity:1"/><path fill="#F28F8F" d="M161.088 70.451c.441.47 3.129 1.237 4.737 1.1l-.247-1.125a16.9 16.9 0 0 1-4.49.025" style="fill:#f28f8f;fill:color(display-p3 .949 .5608 .5608);fill-opacity:1"/><path fill="#263238" d="M163.862 56.533c-.035.498.084.995.343 1.422a2.82 2.82 0 0 0 1.591 1.208 5.76 5.76 0 0 0-.701 2.569c-.033.284.021.572.157.824a.52.52 0 0 0 .755.22.5.5 0 0 0 .193-.22 6.8 6.8 0 0 1 .824-1.331 2.55 2.55 0 0 1 1.616-.854c2.346-.194 2.276 2.952 1.307 4.201-1.583 2.04-2.82.697-2.82.697s-.857 3.174 1.369 4.584c0 0 3.603.915 6.118-.334 1.649-2.449 3.57-4.02 4.605-6.068 2.473-4.857 1.554-8.802-.668-9.705-.248-1.995-2.041-3.265-3.785-3.937-2.374-.915-4.72-.18-7.169-.239a8.1 8.1 0 0 1-3.599-.935c-.494-.26-1.096-.57-1.562-.268-.18.131-.316.313-.392.523a2.58 2.58 0 0 0 .136 2.26c-.63-.479-1.772-.29-2.432.214-.948.73-1.117 1.607-.824 2.848.21.763 1.653 3.22 4.938 2.321" style="fill:#263238;fill:color(display-p3 .149 .1961 .2196);fill-opacity:1"/><path fill="#263238" d="m178.41 54.229 2.264-1.261a1.297 1.297 0 0 0-2.378.276c-.094.33-.053.685.114.985" style="fill:#263238;fill:color(display-p3 .149 .1961 .2196);fill-opacity:1"/><path fill="#455A64" d="M177.524 73.484c3.925 0 5.417.883 6.621 2.293s7.058 10.76 8.575 15.199c.717 2.102.519 2.886-1.278 5.025s-8.575 9.148-8.575 9.148l-3.385-5.116 4.308-6.316-5.693-10.207z" style="fill:#455a64;fill:color(display-p3 .2706 .3529 .3922);fill-opacity:1"/><path fill="#37474F" d="M181.333 74.346c2.42 1.187 4.012 4.465 3.678 9.395-.305 4.56-.59 7.388-1.183 12.198a61 61 0 0 0-.244 9.037 69 69 0 0 0 .784 7.136s-2.499 4.184-11.131 4.947c-10.426.923-17.78-2.474-17.78-2.474s.185-2.918.169-6.719c0-3.426-.243-7.569-.124-10.945.268-7.747.359-14.182 1.237-16.944.664-1.525 1.191-2.218 2.935-2.865 1.212-.445 6.633-1.946 8.773-2.407 7.123-1.534 10.355-1.596 12.886-.359" style="fill:#37474f;fill:color(display-p3 .2157 .2784 .3098);fill-opacity:1"/><path fill="#455A64" d="M164.254 75.756c1.092.277 1.649.915 3.277 1.282 2.479.572 5.071.383 7.441-.54 1.542-.651 1.942-1.649 1.942-1.649s-.903-2.568-1.237-3.067a.98.98 0 0 0-.824-.457l.09.655s.264.507-2.061 1.093c-2.325.585-5.582.445-6.691.115l-.14-.602c-.573.153-.919.623-1.57 1.509a19 19 0 0 0-1.237 1.913z" style="fill:#455a64;fill:color(display-p3 .2706 .3529 .3922);fill-opacity:1"/><path fill="#FFA8A7" d="M131.781 106.16c-2.354.412-3.491 1.158-4.629 1.236a6 6 0 0 1-1.62-.062l-1.319 1.596s-.627-3.661.098-5.005c.726-1.344 1.237-.478 1.711-1.303.474-.824.413-1.442 1.361-1.714.948-.273.783-1.134 2.222-1.307 1.438-.174 7.041 1.018 7.041 1.018z" style="fill:#ffa8a7;fill:color(display-p3 1 .6588 .6549);fill-opacity:1"/><path fill="#455A64" d="M160.325 76.898c-3.298.515-5.19 1.348-7.907 6.485-2.84 5.359-6.983 12.42-6.983 12.42l-12.417 3.026c-2.886.248-5.404 5.772-2.886 8.089 0 0 11.094-.487 14.664-.635 6.122-.252 6.184-.672 8.657-4.003 2.474-3.331 7.206-11.823 7.206-11.823s5.141-8.542-.334-13.56" style="fill:#455a64;fill:color(display-p3 .2706 .3529 .3922);fill-opacity:1"/></svg>