<svg xmlns="http://www.w3.org/2000/svg" width="256" height="256" fill="none"><path stroke="#D5D5D5" d="M46.56 218.407C24.086 206.639 13 191.291 13 176.074s11.084-30.567 33.56-42.34c22.464-11.767 51.94-17.664 81.442-17.664 29.503 0 58.977 5.897 81.439 17.664 22.473 11.773 33.558 27.121 33.559 42.336s-11.083 30.564-33.559 42.337C186.976 230.174 157.502 236.07 128 236.07s-58.976-5.896-81.44-17.663Z" style="stroke:#d5d5d5;stroke:color(display-p3 .8353 .8353 .8353);stroke-opacity:1"/><path fill="#455A64" d="M153.118 22.467c-.768-.415-1.762-.353-2.847.271L41.737 85.392a8.77 8.77 0 0 0-3.072 3.384l-4.372-2.53c.957-1.817 2.314-2.436 3.497-3.122L146.334 20.46c1.136-.65 2.165-.681 2.944-.21z" style="fill:#455a64;fill:color(display-p3 .2706 .3529 .3922);fill-opacity:1"/><path fill="#263238" d="M34.907 186.988c-.957-.537-1.567-1.807-1.567-3.615v-91.73c0-2.047.144-3.886.968-5.396l4.373 2.53c-.113.204-.22.42-.328.64s-.159.353-.226.511a.3.3 0 0 0-.03.082 6 6 0 0 0-.236.62 8 8 0 0 0-.2.65 4 4 0 0 0-.122.512 9.2 9.2 0 0 0-.256 2.12v91.725c0 1.827.62 3.107 1.587 3.635z" style="fill:#263238;fill:color(display-p3 .149 .1961 .2196);fill-opacity:1"/><path fill="#37474F" d="M150.271 22.733 40.754 85.868c-2.463 1.423-3.476 3.865-3.476 7.168v92.605c0 3.287 1.996 4.793 4.46 3.374l108.543-62.663c2.463-1.419 4.46-5.238 4.46-8.52v-91.73c-.011-3.282-2.028-4.792-4.47-3.369" style="fill:#37474f;fill:color(display-p3 .2157 .2784 .3098);fill-opacity:1"/><path fill="#F7921E" d="M144.291 125.533 47.717 181.29c-1.275.737-2.309-.047-2.309-1.752V90.624c0-1.704 1.024-3.68 2.31-4.418l96.573-55.757c1.275-.737 2.309.046 2.309 1.751v88.914c0 1.705-1.055 3.681-2.309 4.419" style="fill:#f7921e;fill:color(display-p3 .9686 .5725 .1176);fill-opacity:1"/><path fill="#000" d="M144.291 125.533 47.717 181.29c-1.275.737-2.309-.047-2.309-1.752V90.624c0-1.704 1.024-3.68 2.31-4.418l96.573-55.757c1.275-.737 2.309.046 2.309 1.751v88.914c0 1.705-1.055 3.681-2.309 4.419" opacity=".1" style="fill:#000;fill-opacity:1"/><path fill="#263238" d="M42.505 140.227a2.8 2.8 0 0 1-1.162 2.222c-.64.369-1.162-.026-1.162-.881a2.8 2.8 0 0 1 1.162-2.222c.64-.379 1.162.016 1.162.881M41.343 125.323a2.17 2.17 0 0 0-.906 1.73v7.916c0 .665.404.973.906.681a2.17 2.17 0 0 0 .901-1.726v-7.915c0-.666-.404-.973-.901-.686" style="fill:#263238;fill:color(display-p3 .149 .1961 .2196);fill-opacity:1"/><path fill="#FAFAFA" d="M143.139 39.276c-.072-.553-.512-.753-1.024-.445L51.9 90.896a2.3 2.3 0 0 0-.747.794l-1.982-1.127q.143-.247.338-.456l.098-.097q.142-.136.312-.235l90.189-52.086a2.3 2.3 0 0 1 1.597-.205 1.4 1.4 0 0 1 .635.297q.063.043.113.102.046.036.082.082.08.08.143.174.059.074.107.154.115.177.19.374.051.107.087.22c0 .056.026.108.041.169q.025.11.036.22" style="fill:#fafafa;fill:color(display-p3 .9804 .9804 .9804);fill-opacity:1"/><path fill="#E0E0E0" d="M51.435 173.973c-.349 0-.59-.277-.59-.758V92.729c.015-.362.121-.714.308-1.024l-1.982-1.142q-.181.308-.266.655-.03.13-.04.261a1 1 0 0 0 0 .129v80.465a2.26 2.26 0 0 0 .992 1.792 2.1 2.1 0 0 0 1.214.215c.293-.014.578-.1.83-.25a1.1 1.1 0 0 1-.467.143" style="fill:#e0e0e0;fill:color(display-p3 .8784 .8784 .8784);fill-opacity:1"/><path fill="#F0F0F0" d="M143.149 39.445c0-.675-.476-.947-1.055-.614L51.9 90.9a2.34 2.34 0 0 0-1.054 1.828v80.487c0 .675.476.947 1.054.614l90.194-52.065a2.35 2.35 0 0 0 1.055-1.833z" style="fill:#f0f0f0;fill:color(display-p3 .9412 .9412 .9412);fill-opacity:1"/><path fill="#F7921E" d="m65.043 113.383-5.002 6.364-2.918 3.707a10.1 10.1 0 0 1-.896-4.428c0-4.276 1.848-9.216 4.843-13.031l.66 1.229zM69.329 100.614l-3.917 11.853-1.787-3.287-2.048-3.835a15.8 15.8 0 0 1 4.096-3.543 8.2 8.2 0 0 1 3.656-1.188M73.804 103.266l-7.358 8.474 3.671-11.106a4.65 4.65 0 0 1 3.687 2.632M74.782 107.843c0 6.467-4.25 14.188-9.477 17.198-3.247 1.879-6.144 1.536-7.783-.896l8.233-10.445.046-.056 8.351-9.615c.443 1.222.657 2.515.63 3.814" style="fill:#f7921e;fill:color(display-p3 .9686 .5725 .1176);fill-opacity:1"/><path fill="#fff" d="m69.329 100.614-3.917 11.853-1.787-3.287-2.048-3.835a15.8 15.8 0 0 1 4.096-3.543 8.2 8.2 0 0 1 3.656-1.188" opacity=".7" style="fill:#fff;fill-opacity:1"/><path fill="#000" d="m73.804 103.266-7.358 8.474 3.671-11.106a4.65 4.65 0 0 1 3.687 2.632" opacity=".3" style="fill:#000;fill-opacity:1"/><path fill="#fff" d="M74.782 107.843c0 6.467-4.25 14.188-9.477 17.198-3.247 1.879-6.144 1.536-7.783-.896l8.233-10.445.046-.056 8.351-9.615c.443 1.222.657 2.515.63 3.814" opacity=".5" style="fill:#fff;fill-opacity:1"/><path fill="#455A64" d="M57.532 95.397q.238-.149.512-.205a.54.54 0 0 1 .39.061.6.6 0 0 1 .245.343q.096.31.087.635c.004.313-.042.624-.138.922a2.4 2.4 0 0 1-.384.737l.543 1.295a.14.14 0 0 1 0 .067.3.3 0 0 1-.031.123.2.2 0 0 1-.066.082l-.6.343q-.084.052-.122 0a.3.3 0 0 1-.062-.087l-.512-1.168-.404.236v1.449a.3.3 0 0 1-.036.148.25.25 0 0 1-.082.103l-.579.332a.06.06 0 0 1-.04.016.06.06 0 0 1-.042-.016.14.14 0 0 1-.036-.107v-4.373a.3.3 0 0 1 .036-.148.2.2 0 0 1 .082-.102zm-.512 2.34.512-.287a1 1 0 0 0 .308-.287.83.83 0 0 0 .117-.46q0-.285-.117-.324a.39.39 0 0 0-.308.067l-.512.287zM61.7 96.646a.07.07 0 0 1 .082 0 .14.14 0 0 1 .036.107v.722a.33.33 0 0 1-.036.149.24.24 0 0 1-.082.102l-2.084 1.203a.06.06 0 0 1-.082 0 .13.13 0 0 1-.035-.107v-4.373q0-.078.035-.148a.24.24 0 0 1 .082-.103l2.048-1.182a.066.066 0 0 1 .082 0 .14.14 0 0 1 .036.107v.722a.3.3 0 0 1-.036.148.24.24 0 0 1-.082.103l-1.351.778v.732l1.254-.727a.06.06 0 0 1 .082 0 .13.13 0 0 1 .036.108v.717a.3.3 0 0 1-.036.148.2.2 0 0 1-.082.102l-1.254.753v.758zM63.917 91.71q.237-.145.512-.194a.51.51 0 0 1 .384.076c.119.09.205.216.246.359.07.213.105.436.102.66q.004.38-.082.748-.084.332-.245.635a2.6 2.6 0 0 1-.384.512 2.3 2.3 0 0 1-.512.394l-.559.322v1.383a.4.4 0 0 1-.035.148.2.2 0 0 1-.087.103l-.574.333a.06.06 0 0 1-.082 0 .14.14 0 0 1-.036-.108v-4.373a.3.3 0 0 1 .036-.148.2.2 0 0 1 .082-.102zm-.558 2.437.512-.312a.85.85 0 0 0 .425-.778c0-.19-.036-.302-.118-.343a.34.34 0 0 0-.307.05l-.512.313zM65.673 92.463a4 4 0 0 1 .108-.779 3.194 3.194 0 0 1 .691-1.372c.161-.191.356-.352.573-.476.172-.11.37-.173.574-.184a.62.62 0 0 1 .42.143.93.93 0 0 1 .27.43c.067.21.103.43.108.65v1.209q-.016.392-.107.773a3.4 3.4 0 0 1-.272.742 3 3 0 0 1-.42.635c-.163.189-.357.35-.573.476-.172.11-.37.173-.573.185a.6.6 0 0 1-.425-.149.94.94 0 0 1-.266-.43 2.4 2.4 0 0 1-.108-.65v-1.2029999999999998m1.93.056v-1.1360000000000001a1.1 1.1 0 0 0-.046-.287.4.4 0 0 0-.107-.185.25.25 0 0 0-.17-.071.5.5 0 0 0-.235.076.8.8 0 0 0-.235.2 1 1 0 0 0-.17.261 1.5 1.5 0 0 0-.107.307q-.037.168-.046.338v1.1420000000000001a.73.73 0 0 0 .154.471q.13.145.404 0a.95.95 0 0 0 .405-.456 2 2 0 0 0 .159-.66zM70.466 87.932q.237-.147.512-.205a.57.57 0 0 1 .389.056.65.65 0 0 1 .25.343c.061.208.09.424.082.64.003.312-.042.623-.133.922a2.5 2.5 0 0 1-.389.732l.543 1.295a.2.2 0 0 1 0 .067.3.3 0 0 1-.03.123.16.16 0 0 1-.067.082l-.6.348c-.056.03-.097.036-.122 0a.3.3 0 0 1-.062-.087l-.486-1.168-.405.23v1.45a.3.3 0 0 1-.035.148.23.23 0 0 1-.082.108l-.579.327a.06.06 0 0 1-.063.013.1.1 0 0 1-.019-.013.13.13 0 0 1-.036-.107v-4.373q0-.078.036-.148a.25.25 0 0 1 .082-.103zm-.512 2.334.512-.286a.95.95 0 0 0 .307-.282.86.86 0 0 0 .117-.466q0-.285-.117-.323a.4.4 0 0 0-.307.072l-.512.287zM74.664 85.505a.07.07 0 0 1 .082 0 .15.15 0 0 1 .036.113v.716a.33.33 0 0 1-.036.149.24.24 0 0 1-.082.102l-.773.446v3.47a.3.3 0 0 1-.036.15.2.2 0 0 1-.082.102l-.578.333a.06.06 0 0 1-.082 0 .13.13 0 0 1-.036-.108v-3.487l-.773.446a.06.06 0 0 1-.082 0 .14.14 0 0 1-.036-.108v-.716q0-.082.036-.154a.24.24 0 0 1 .082-.103z" style="fill:#455a64;fill:color(display-p3 .2706 .3529 .3922);fill-opacity:1"/><path fill="#F7921E" d="m78.75 83.15 57.549-33.224v4.582l-57.55 33.224z" style="fill:#f7921e;fill:color(display-p3 .9686 .5725 .1176);fill-opacity:1"/><g fill="#455A64" opacity=".3"><path d="M78.396 97.583a.48.48 0 0 1-.42-.24.51.51 0 0 1 .175-.671l33.735-19.456a.513.513 0 0 1 .512.85l-33.73 19.456a.5.5 0 0 1-.272.061M78.396 102.165a.48.48 0 0 1-.42-.24.51.51 0 0 1 .175-.671l33.735-19.456a.512.512 0 0 1 .512.85l-33.73 19.456a.5.5 0 0 1-.272.061M78.396 106.748a.476.476 0 0 1-.42-.241.51.51 0 0 1 .175-.67l33.735-19.456a.512.512 0 0 1 .512.85l-33.73 19.456a.5.5 0 0 1-.272.061M78.396 111.33a.476.476 0 0 1-.42-.241.51.51 0 0 1 .175-.67l33.735-19.456a.52.52 0 0 1 .426-.157.52.52 0 0 1 .384.244q.06.102.072.222a.5.5 0 0 1-.166.422.5.5 0 0 1-.204.114l-33.73 19.456a.5.5 0 0 1-.272.066M78.396 115.918a.52.52 0 0 1-.435-.267.51.51 0 0 1 .174-.67l33.736-19.456a.513.513 0 0 1 .512.844l-33.73 19.456a.5.5 0 0 1-.257.093" style="fill:#455a64;fill:color(display-p3 .2706 .3529 .3922);fill-opacity:1"/></g><path fill="#F7921E" d="m116.981 72.5 4.342-2.504c.291-.168.512-.03.512.308v5.012a1.16 1.16 0 0 1-.512.912l-4.342 2.508c-.292.17-.512.031-.512-.307v-5.012a1.17 1.17 0 0 1 .512-.917M124.179 68.347l4.342-2.503c.292-.17.512-.036.512.302v5.012a1.17 1.17 0 0 1-.512.917l-4.342 2.503c-.291.17-.512.036-.512-.302v-5.012a1.17 1.17 0 0 1 .512-.917M131.378 64.19l4.337-2.504c.292-.169.512-.03.512.308v5.017a1.17 1.17 0 0 1-.512.917l-4.337 2.508c-.292.17-.512.031-.512-.307v-5.012a1.18 1.18 0 0 1 .512-.927M116.981 80.835l4.342-2.508c.291-.17.512-.031.512.307v5.012a1.17 1.17 0 0 1-.512.917l-4.342 2.503c-.292.17-.512.031-.512-.307v-5.007a1.17 1.17 0 0 1 .512-.917M124.179 76.657l4.342-2.503c.292-.17.512-.036.512.302v5.012a1.17 1.17 0 0 1-.512.917l-4.342 2.498c-.291.17-.512.036-.512-.302V77.57a1.17 1.17 0 0 1 .512-.912M131.378 72.505l4.337-2.509c.292-.168.512-.03.512.308v5.012a1.16 1.16 0 0 1-.512.912l-4.337 2.508c-.292.17-.512.031-.512-.307v-5.012a1.16 1.16 0 0 1 .512-.912M116.981 89.124l4.342-2.508c.291-.17.512-.031.512.307v5.012a1.17 1.17 0 0 1-.512.917l-4.342 2.503c-.292.17-.512.031-.512-.302v-5.002a1.16 1.16 0 0 1 .512-.927M124.179 84.967l4.342-2.504c.292-.169.512-.03.512.302v5.013a1.17 1.17 0 0 1-.512.916l-4.342 2.51c-.291.168-.512.03-.512-.308v-5.013a1.17 1.17 0 0 1 .512-.916M131.378 80.835l4.337-2.508c.292-.17.512-.031.512.307v5.012a1.17 1.17 0 0 1-.512.917l-4.337 2.503c-.292.17-.512.031-.512-.307v-5.007a1.17 1.17 0 0 1 .512-.917" style="fill:#f7921e;fill:color(display-p3 .9686 .5725 .1176);fill-opacity:1"/><path fill="#455A64" d="m56.923 162.197 55.562-32.077v2.289l-55.562 32.082z" style="fill:#455a64;fill:color(display-p3 .2706 .3529 .3922);fill-opacity:1"/><path fill="#F7921E" d="M56.923 159.908v-13.752l4.895 2.826 4.715-8.734 5.622 3.246 2.627-3.062 3.968 2.289 5.775-8.628 4.603 1.925 5.499-11.627 3.845 6.682 5.253-7.614 1.956 3.712 6.804-10.798v11.453z" style="fill:#f7921e;fill:color(display-p3 .9686 .5725 .1176);fill-opacity:1"/><path fill="#F7921E" d="m56.923 144.881 4.567 2.422 4.736-8.806 5.653 3.266 2.54-2.964 3.967 2.293 5.683-8.314 4.603 1.925 5.955-12.601 3.968 6.871 5.253-7.613 1.92 3.717 6.717-10.67v-9.492l-7.024 10.951-2.898-5.222-3.968 6.876-3.968-2.294-3.968 6.876-3.968-2.293-5.955 10.311-3.968-3.435-3.932 5.703-6.205-3.415-5.018 8.438-4.69-2.708z" style="fill:#f7921e;fill:color(display-p3 .9686 .5725 .1176);fill-opacity:1"/><path fill="#000" d="m56.923 144.881 4.567 2.422 4.736-8.806 5.653 3.266 2.54-2.964 3.967 2.293 5.683-8.314 4.603 1.925 5.955-12.601 3.968 6.871 5.253-7.613 1.92 3.717 6.717-10.67v-9.492l-7.024 10.951-2.898-5.222-3.968 6.876-3.968-2.294-3.968 6.876-3.968-2.293-5.955 10.311-3.968-3.435-3.932 5.703-6.205-3.415-5.018 8.438-4.69-2.708z" opacity=".3" style="fill:#000;fill-opacity:1"/><g fill="#455A64" opacity=".3"><path d="M116.453 103.112a.51.51 0 0 1-.246-.911l19.846-11.459a.51.51 0 0 1 .586.227.515.515 0 0 1-.074.624l-19.846 11.453a.5.5 0 0 1-.266.066M116.453 107.695a.512.512 0 0 1-.246-.911l19.846-11.459a.51.51 0 0 1 .586.226.515.515 0 0 1-.074.624l-19.846 11.453a.48.48 0 0 1-.266.067M116.453 112.277a.51.51 0 0 1-.246-.911l19.846-11.458a.51.51 0 0 1 .586.226.514.514 0 0 1-.074.623l-19.846 11.454a.48.48 0 0 1-.266.066M116.453 116.859a.51.51 0 0 1-.246-.911l19.846-11.453a.51.51 0 0 1 .665.174.51.51 0 0 1-.174.67l-19.845 11.454a.47.47 0 0 1-.246.066M116.453 121.442a.512.512 0 0 1-.246-.911l19.846-11.454a.51.51 0 0 1 .665.174.51.51 0 0 1-.174.671l-19.845 11.453a.5.5 0 0 1-.246.067M116.453 126.024a.51.51 0 0 1-.246-.911l19.846-11.453a.51.51 0 0 1 .665.174.51.51 0 0 1-.174.67l-19.845 11.454a.47.47 0 0 1-.246.066M116.453 130.607a.51.51 0 0 1-.417-.67.5.5 0 0 1 .171-.242l19.846-11.453a.51.51 0 0 1 .578.227.51.51 0 0 1-.066.618l-19.846 11.453a.48.48 0 0 1-.266.067" style="fill:#455a64;fill:color(display-p3 .2706 .3529 .3922);fill-opacity:1"/></g><path fill="#37474F" d="M173.462 170.984V83.539c0-2.25 1.12-2.871 2.111-3.444.992-.572 2.626-.92 4.037-.106l36.109 20.849a5.64 5.64 0 0 1 2.555 4.428v87.439c0 1.631-1.023 2.59-2.015 3.162-.991.573-2.722 1.202-4.133.388l-36.109-20.846a4.81 4.81 0 0 1-2.555-4.425" style="fill:#37474f;fill:color(display-p3 .2157 .2784 .3098);fill-opacity:1"/><path fill="#263238" d="m175.758 171.812 37.132 21.436v-87.822l4.645-2.683c.46.761.718 1.627.75 2.516v87.445c0 1.631-1.024 2.591-2.015 3.163s-2.722 1.201-4.133.387l-36.12-20.845a4.9 4.9 0 0 1-2.214-2.47l.146-.082z" style="fill:#263238;fill:color(display-p3 .149 .1961 .2196);fill-opacity:1"/><path fill="#455A64" d="M174.052 83.944v87.303a4.5 4.5 0 0 0 2.029 3.518l35.246 20.352c1.514.874 2.754.16 2.754-1.588v-86.735a3.962 3.962 0 0 0-1.777-3.102l-36.223-20.91c-1.116-.644-2.029-.118-2.029 1.162" style="fill:#455a64;fill:color(display-p3 .2706 .3529 .3922);fill-opacity:1"/><path fill="#000" d="M175.818 88.102v81.077a4.27 4.27 0 0 0 1.93 3.344l32.648 18.834c1.066.619 1.926.121 1.926-1.112v-81.66a4.31 4.31 0 0 0-1.354-2.907l-.182-.163a4 4 0 0 0-.39-.271l-9.183-5.309-.601-.355c-.33-.192-.597-.04-.597.355s-.288.53-.639.324l-10.704-6.18a1.38 1.38 0 0 1-.64-1.066 1.365 1.365 0 0 0-.536-1.002l-.061-.04-8.984-5.167-.191-.113c-1.344-.775-2.442-.142-2.442 1.41" style="fill:#000;fill-opacity:1"/><path fill="#263238" d="M180.548 170.359a4.28 4.28 0 0 1-1.926-3.344V86.9l8.813 5.086.061.039a1.35 1.35 0 0 1 .536 1.002 1.38 1.38 0 0 0 .64 1.066l10.704 6.18c.355.206.639.057.639-.323s.267-.537.597-.356l.601.356 9.183 5.302q.203.123.391.27l.181.163a4.31 4.31 0 0 1 1.354 2.907v80.111z" style="fill:#263238;fill:color(display-p3 .149 .1961 .2196);fill-opacity:1"/><path fill="#263238" d="m197.748 97-4.904-2.843c-.291-.167-.53-.046-.53.27a1.13 1.13 0 0 0 .534.889l4.904 2.843c.295.17.529.05.529-.267a1.132 1.132 0 0 0-.533-.892M190.328 92.473c-.331-.192-.597-.036-.597.355a1.31 1.31 0 0 0 .597 1.034c.327.189.597.036.597-.355a1.33 1.33 0 0 0-.597-1.034" style="fill:#263238;fill:color(display-p3 .149 .1961 .2196);fill-opacity:1"/><path fill="#455A64" d="M214.923 115.753a2.16 2.16 0 0 1 .945-1.71.63.63 0 0 1 .647-.053c.117.071.583.331.711.405a.74.74 0 0 1 .291.672v7.107a2.16 2.16 0 0 1-.945 1.706.64.64 0 0 1-.622.068c-.131-.072-.608-.356-.732-.42a.74.74 0 0 1-.291-.668z" style="fill:#455a64;fill:color(display-p3 .2706 .3529 .3922);fill-opacity:1"/><path fill="#37474F" d="M215.627 116.154v7.126c0 .643.423.92.945.618a2.16 2.16 0 0 0 .945-1.706v-7.107c0-.643-.423-.917-.945-.619a2.16 2.16 0 0 0-.945 1.688" style="fill:#37474f;fill:color(display-p3 .2157 .2784 .3098);fill-opacity:1"/><path fill="#455A64" d="M214.923 128.223a2.167 2.167 0 0 1 .945-1.71.65.65 0 0 1 .647-.053c.117.075.583.334.711.405a.76.76 0 0 1 .291.672v7.125a2.13 2.13 0 0 1-.945 1.706.65.65 0 0 1-.622.067c-.131-.067-.608-.355-.732-.415a.76.76 0 0 1-.291-.672z" style="fill:#455a64;fill:color(display-p3 .2706 .3529 .3922);fill-opacity:1"/><path fill="#37474F" d="M215.627 128.628v7.107c0 .64.423.917.945.615a2.13 2.13 0 0 0 .945-1.706v-7.107c0-.643-.423-.917-.945-.618a2.15 2.15 0 0 0-.945 1.709" style="fill:#37474f;fill:color(display-p3 .2157 .2784 .3098);fill-opacity:1"/><path fill="#F7921E" d="M176.955 89.414c.427-.242 1.013-.21 1.66.163l.185.11 8.674 5.008q.033.015.061.035a1.32 1.32 0 0 1 .519.97c.015.21.08.413.19.593.109.18.259.331.439.441l10.334 5.967h.025a.4.4 0 0 1 .167-.355l.597-.356a.41.41 0 0 1 .408.043l.58.334 8.855 5.146q.2.116.381.259.09.075.174.16a4.16 4.16 0 0 1 1.307 2.808v78.888c.025.231-.012.464-.108.676a1.3 1.3 0 0 1-.435.529l-.601.355a1.3 1.3 0 0 1-.675.11 1.3 1.3 0 0 1-.64-.245l-31.528-18.202a4.115 4.115 0 0 1-1.862-3.23V91.297c0-.746.263-1.272.689-1.52z" style="fill:#f7921e;fill:color(display-p3 .9686 .5725 .1176);fill-opacity:1"/><path fill="#000" d="M208.885 190.779v.156l.178.1a1.31 1.31 0 0 0 1.315.135l.6-.355a1.31 1.31 0 0 0 .544-1.205v-78.874a3.87 3.87 0 0 0-.643-1.99l-.711.408c.38.573.596 1.239.626 1.926v78.892c.016.32-.074.636-.256.899a.8.8 0 0 1-.285.226.8.8 0 0 1-.355.076 1.6 1.6 0 0 1-.768-.241zM187.119 95.455c.13.174.205.383.217.6.006.255.086.502.231.711l.71-.412c-.13-.183-.205-.4-.216-.625a1.24 1.24 0 0 0-.235-.668z" opacity=".3" style="fill:#000;fill-opacity:1"/><path fill="#FAFAFA" d="M209.898 191.159a.8.8 0 0 0 .355-.074.8.8 0 0 0 .285-.224c.184-.263.274-.579.256-.899v-78.871a4.04 4.04 0 0 0-1.266-2.711l-.056-.054c-.039-.035-.075-.071-.118-.103a3 3 0 0 0-.355-.245l-8.884-5.121-.58-.334a.4.4 0 0 0-.191-.06c-.167 0-.185.195-.185.28a.47.47 0 0 1-.113.369.48.48 0 0 1-.349.164.67.67 0 0 1-.356-.11L188.004 97.2a1.44 1.44 0 0 1-.683-1.138 1.17 1.17 0 0 0-.462-.86l-.049-.028-8.661-5.014-.188-.11a2 2 0 0 0-.981-.302c-.711 0-1.176.597-1.176 1.549v78.306a3.97 3.97 0 0 0 1.795 3.113l31.531 18.205c.231.145.496.227.768.238" style="fill:#fafafa;fill:color(display-p3 .9804 .9804 .9804);fill-opacity:1"/><path fill="#F7921E" d="M176.98 89.769c.347.013.685.116.981.299l.188.11 8.675 5.007.05.032a1.18 1.18 0 0 1 .462.86 1.456 1.456 0 0 0 .682 1.137l10.334 5.963a.7.7 0 0 0 .355.11.47.47 0 0 0 .459-.533c0-.085.021-.281.188-.281a.4.4 0 0 1 .192.061l.579.334 8.885 5.121q.185.11.355.245l.117.103.057.053a4.04 4.04 0 0 1 1.265 2.712v9.193l-35-20.22v-8.778c0-.952.441-1.528 1.176-1.528" style="fill:#f7921e;fill:color(display-p3 .9686 .5725 .1176);fill-opacity:1"/><path fill="#fff" d="M176.98 89.769c.347.013.685.116.981.299l.188.11 8.675 5.007.05.032a1.18 1.18 0 0 1 .462.86 1.456 1.456 0 0 0 .682 1.137l10.334 5.963a.7.7 0 0 0 .355.11.47.47 0 0 0 .459-.533c0-.085.021-.281.188-.281a.4.4 0 0 1 .192.061l.579.334 8.885 5.121q.185.11.355.245l.117.103.057.053a4.04 4.04 0 0 1 1.265 2.712v9.193l-35-20.22v-8.778c0-.952.441-1.528 1.176-1.528" opacity=".3" style="fill:#fff;fill-opacity:1"/><path fill="#FAFAFA" d="M178 93.547a.04.04 0 0 1 .004.017.04.04 0 0 1-.004.018.03.03 0 0 1-.032 0l-.071-.039a.07.07 0 0 1-.032-.04.1.1 0 0 1 0-.049v-1.272l-.281.12h-.035a.07.07 0 0 1-.032-.038l-.043-.096a.1.1 0 0 1 0-.054q0-.01.004-.017a.03.03 0 0 1 .014-.011l.355-.167h.057l.071.043q.02.014.032.035a.1.1 0 0 1 0 .053zM178.732 93.966a.04.04 0 0 1 .004.018.04.04 0 0 1-.004.017.02.02 0 0 1-.016.006.03.03 0 0 1-.016-.006l-.071-.042a.07.07 0 0 1-.032-.036.1.1 0 0 1 0-.053v-1.258l-.281.124a.03.03 0 0 1-.017.005.03.03 0 0 1-.018-.005.14.14 0 0 1-.032-.042l-.039-.096a.06.06 0 0 1 0-.05v-.032l.355-.163h.057l.071.039a.1.1 0 0 1 .032.039.1.1 0 0 1 0 .05zM179.137 93.177q.023.011.032.036a.1.1 0 0 1 0 .053v.156a.04.04 0 0 1 .004.018.04.04 0 0 1-.004.018h-.032l-.117-.064a.1.1 0 0 1-.032-.04.2.2 0 0 1 0-.052v-.153a.05.05 0 0 1 0-.036.03.03 0 0 1 .016-.006q.01 0 .016.006zm0 .807a.07.07 0 0 1 .032.039.1.1 0 0 1 0 .05v.156a.04.04 0 0 1 .005.018.04.04 0 0 1-.005.018h-.032l-.117-.068a.1.1 0 0 1-.032-.039.1.1 0 0 1 0-.05v-.156a.05.05 0 0 1 0-.036.03.03 0 0 1 .016-.005q.01 0 .016.005zM179.539 94.076q.022.125.099.227a.6.6 0 0 0 .175.167q.05.03.11.04c.027.01.058.01.085 0a.13.13 0 0 0 .06-.072.4.4 0 0 0 .022-.135.58.58 0 0 0-.277-.494.24.24 0 0 0-.167-.039l-.047.018a.1.1 0 0 1-.046 0l-.089-.053a.1.1 0 0 1-.017-.026q-.006-.015-.004-.031a.1.1 0 0 1 0-.043l.05-.743a.05.05 0 0 1 0-.035.03.03 0 0 1 .018-.005.03.03 0 0 1 .017.005l.608.355q.022.012.036.036a.2.2 0 0 1 0 .053v.082a.05.05 0 0 1 0 .035.04.04 0 0 1-.018.006.03.03 0 0 1-.018-.006l-.501-.291-.029.384h.082a.752.752 0 0 1 .295.192.93.93 0 0 1 .235.412q.036.122.035.249a.5.5 0 0 1-.035.206.24.24 0 0 1-.093.117.23.23 0 0 1-.142.029.5.5 0 0 1-.17-.064.8.8 0 0 1-.164-.128.959.959 0 0 1-.234-.366.6.6 0 0 1-.04-.231h.029l.078.046a.1.1 0 0 1 .029.028.2.2 0 0 1 .028.075M180.562 94.698a1 1 0 0 0 .025.085.4.4 0 0 0 .047.096 1 1 0 0 0 .081.092q.063.056.135.096.047.03.1.043a.13.13 0 0 0 .085 0 .12.12 0 0 0 .061-.057.3.3 0 0 0 .021-.117.5.5 0 0 0-.021-.139.4.4 0 0 0-.057-.113.5.5 0 0 0-.086-.096.7.7 0 0 0-.103-.075l-.145-.082a.1.1 0 0 1-.032-.039.1.1 0 0 1 0-.05v-.085a.04.04 0 0 1 0-.032l.017-.021.313-.267-.494-.295a.1.1 0 0 1-.032-.039.1.1 0 0 1 0-.05v-.085l-.004-.018q0-.01.004-.017a.03.03 0 0 1 .032 0l.682.394q.024.015.036.04a.1.1 0 0 1 0 .049v.085a.05.05 0 0 1 0 .036l-.021.025-.309.263a.7.7 0 0 1 .159.128.832.832 0 0 1 .231.572.4.4 0 0 1-.035.188.2.2 0 0 1-.093.103.2.2 0 0 1-.135.021.4.4 0 0 1-.167-.064.88.88 0 0 1-.419-.504.5.5 0 0 1-.028-.164v-.028c0-.004 0 0 .025 0l.081.046q.018.013.029.032a.1.1 0 0 1 .017.043M183.267 95.1l-.537 1.2v-.792l-.593-.355 1.13-.068m0-.138a.2.2 0 0 0-.064-.053h-.029l-1.126.07c-.043 0-.043.075 0 .175q.041.09.103.167.03.033.067.06l.391.224v.558c.014.1.054.193.118.27l.021.025c.057.067.11.089.128.05l.529-1.194a.07.07 0 0 0 0-.04.55.55 0 0 0-.135-.29zM201.778 107.317l-.291-.167v-.568l.291.167zM202.236 107.584l-.291-.167v-.814l.291.167zM202.695 107.847l-.288-.167v-1.116l.288.167z" style="fill:#fafafa;fill:color(display-p3 .9804 .9804 .9804);fill-opacity:1"/><path fill="#F7921E" d="m203.157 108.113-.292-.167v-1.414l.292.167z" style="fill:#f7921e;fill:color(display-p3 .9686 .5725 .1176);fill-opacity:1"/><path fill="#FAFAFA" d="M205.175 107.826a.68.68 0 0 0-.767-.025l.192.355a.505.505 0 0 1 .575.018c.248.16.448.383.58.647l.188-.153a2.2 2.2 0 0 0-.768-.842m-.501.494.174.355a.3.3 0 0 1 .327 0c.139.087.252.21.327.355l.178-.138a1.4 1.4 0 0 0-.505-.565.44.44 0 0 0-.501-.007m.26.504.241.473.246-.196a.7.7 0 0 0-.246-.273.2.2 0 0 0-.12-.041.2.2 0 0 0-.121.037" style="fill:#fafafa;fill:color(display-p3 .9804 .9804 .9804);fill-opacity:1"/><path fill="#F7921E" d="M208.672 109.883a.438.438 0 0 1 .188.355v.914c0 .138-.085.202-.188.142l-1.628-.939a.45.45 0 0 1-.188-.355v-.913c0-.139.082-.199.188-.142l1.628.941m0-.078-1.628-.941c-.138-.079-.248 0-.248.188v.913a.59.59 0 0 0 .248.473l1.628.938c.135.078.249 0 .249-.185v-.913a.6.6 0 0 0-.249-.473" style="fill:#f7921e;fill:color(display-p3 .9686 .5725 .1176);fill-opacity:1"/><path fill="#FAFAFA" d="m208.015 110.69-.921-.53a.177.177 0 0 1-.074-.146v-.757c0-.056.032-.081.074-.056l.921.529a.2.2 0 0 1 .054.064q.019.039.02.082v.757c0 .057-.035.081-.074.057" style="fill:#fafafa;fill:color(display-p3 .9804 .9804 .9804);fill-opacity:1"/><path fill="#F7921E" d="m209.095 111.091-.068-.036v-.493l.068.035a.46.46 0 0 1 .064.284c0 .128-.029.21-.064.21" style="fill:#f7921e;fill:color(display-p3 .9686 .5725 .1176);fill-opacity:1"/><path fill="#FAFAFA" d="m205.989 112.975 2.96 1.709c.078.046.146-.018.146-.142a.4.4 0 0 0-.037-.172.4.4 0 0 0-.109-.137l-2.96-1.72c-.082-.047-.146.017-.146.142a.38.38 0 0 0 .146.32m2.96 2.487-2.96-1.709c-.082-.046-.146.018-.146.138a.39.39 0 0 0 .146.31l2.96 1.709c.078.046.146 0 .146-.139a.39.39 0 0 0-.156-.316zm0 1.223-2.96-1.71c-.082-.046-.146 0-.146.139a.4.4 0 0 0 .036.172q.04.08.11.137l2.95 1.709c.078.047.145 0 .145-.142a.38.38 0 0 0-.145-.312z" style="fill:#fafafa;fill:color(display-p3 .9804 .9804 .9804);fill-opacity:1"/><path fill="#F7921E" d="M176.98 89.883c.326.013.642.11.917.284l.185.106 8.675 5.008.039.024a1.05 1.05 0 0 1 .405.75 1.59 1.59 0 0 0 .753 1.255l10.324 5.963a.84.84 0 0 0 .423.124.6.6 0 0 0 .442-.201.6.6 0 0 0 .151-.463c0-.018 0-.15.053-.15a.26.26 0 0 1 .125.043l.579.334 8.884 5.121q.187.105.355.238c.032.025.068.06.104.092l.06.057a3.9 3.9 0 0 1 1.222 2.612v78.892c0 .668-.287 1.066-.764 1.066a1.47 1.47 0 0 1-.71-.22l-31.536-18.216a3.88 3.88 0 0 1-1.73-3V91.297c0-.885.39-1.422 1.044-1.422m0-.266c-.774 0-1.307.618-1.307 1.68v78.313a4.121 4.121 0 0 0 1.862 3.231l31.528 18.216c.251.158.539.247.835.259.608 0 1.027-.49 1.027-1.332v-78.885a4.17 4.17 0 0 0-1.308-2.811q-.083-.081-.174-.156a3 3 0 0 0-.38-.26l-8.884-5.121-.579-.334a.53.53 0 0 0-.26-.078c-.188 0-.32.149-.32.412s-.131.402-.327.402a.6.6 0 0 1-.291-.093l-10.334-5.966a1.33 1.33 0 0 1-.618-1.024 1.314 1.314 0 0 0-.519-.967.3.3 0 0 0-.061-.035l-8.674-5.007-.185-.11a2.13 2.13 0 0 0-1.048-.32z" style="fill:#f7921e;fill:color(display-p3 .9686 .5725 .1176);fill-opacity:1"/><path fill="#F7921E" d="M196.226 136.056c-1.489.86-3.553.736-5.821-.576-4.548-2.626-8.234-9.012-8.234-14.261 0-2.626.921-4.47 2.41-5.33l1.72-.995c1.492-.86 3.553-.736 5.824.576 4.545 2.626 8.234 9.012 8.234 14.261 0 2.626-.924 4.47-2.413 5.33z" style="fill:#f7921e;fill:color(display-p3 .9686 .5725 .1176);fill-opacity:1"/><path fill="#F7921E" d="M182.171 121.22c0-2.627.921-4.471 2.41-5.331s3.553-.736 5.824.576c4.545 2.644 8.245 9.012 8.245 14.261 0 2.626-.924 4.47-2.413 5.33s-3.554.736-5.821-.576c-4.559-2.626-8.245-9.012-8.245-14.26" style="fill:#f7921e;fill:color(display-p3 .9686 .5725 .1176);fill-opacity:1"/><path fill="#fff" d="M182.171 121.22c0-2.627.921-4.471 2.41-5.331s3.553-.736 5.824.576c4.545 2.644 8.245 9.012 8.245 14.261 0 2.626-.924 4.47-2.413 5.33s-3.554.736-5.821-.576c-4.559-2.626-8.245-9.012-8.245-14.26" opacity=".3" style="fill:#fff;fill-opacity:1"/><path fill="#fff" d="m188.859 130.583-2.917-4.666 1.439-1.677 1.72 2.761 4.193-4.886 1.198 1.905z" style="fill:#fff;fill-opacity:1"/><path fill="#F7921E" d="M196.521 145.509q.277.16.508.384.22.224.376.497.164.289.242.611.086.351.085.711c.014.256-.032.512-.135.746a.48.48 0 0 1-.376.281l.533 1.88a1 1 0 0 1 0 .082.12.12 0 0 1-.025.085.05.05 0 0 1-.068 0l-.583-.334a.3.3 0 0 1-.124-.132 1 1 0 0 1-.057-.152l-.476-1.692-.398-.227v1.421a.15.15 0 0 1-.032.107.068.068 0 0 1-.082 0l-.561-.327a.2.2 0 0 1-.085-.1.35.35 0 0 1-.032-.145v-4.265a.14.14 0 0 1 .032-.103.06.06 0 0 1 .042-.016q.024 0 .043.016zm-.487 1.723.487.281a.4.4 0 0 0 .298.068q.117-.038.117-.317a.8.8 0 0 0-.117-.451.86.86 0 0 0-.298-.277l-.487-.281zM189.404 141.583q.306.18.54.448.251.283.423.622.182.356.281.746.1.399.113.81v.9380000000000001a2.3 2.3 0 0 1-.113.683.95.95 0 0 1-.27.426.64.64 0 0 1-.416.142 1.14 1.14 0 0 1-.537-.174l-1.158-.657a.2.2 0 0 1-.082-.1.3.3 0 0 1-.036-.146v-4.264a.2.2 0 0 1 .007-.057.2.2 0 0 1 .029-.05.068.068 0 0 1 .082 0zm.561 2.132a1.2 1.2 0 0 0-.582-1.098l-.438-.252v2.512l.459.263c.355.21.547.064.561-.433v-.733a3 3 0 0 0 0-.248z" style="fill:#f7921e;fill:color(display-p3 .9686 .5725 .1176);fill-opacity:1"/><path fill="#455A64" d="m182.815 147.236-1.138-.658-.17.572a.15.15 0 0 1-.036.064c-.017.018-.046 0-.088 0l-.125-.071a.15.15 0 0 1-.05-.06.2.2 0 0 1-.021-.093.2.2 0 0 1 0-.064l.803-2.718a.3.3 0 0 1 .046-.082q.036-.037.1 0l.195.114q.069.04.1.114.03.067.05.138l.799 3.643a.5.5 0 0 1-.005.114.1.1 0 0 1-.02.031h-.049l-.121-.071a.2.2 0 0 1-.093-.096.5.5 0 0 1-.035-.103zm-1.02-1.045.906.522-.451-2.061zM184.826 145.662a.16.16 0 0 1 .064.078.3.3 0 0 1 .025.11v.182a.13.13 0 0 1-.025.081.05.05 0 0 1-.064 0l-.611-.355v2.942a.1.1 0 0 1-.029.079.046.046 0 0 1-.06 0l-.135-.079a.15.15 0 0 1-.06-.078.23.23 0 0 1-.029-.11v-2.928l-.611-.356a.2.2 0 0 1-.064-.074.3.3 0 0 1-.025-.11v-.182a.12.12 0 0 1 .025-.081.05.05 0 0 1 .032-.012q.018 0 .032.012zM186.688 146.738a.16.16 0 0 1 .064.075.3.3 0 0 1 .025.113v.182a.1.1 0 0 1-.004.041.1.1 0 0 1-.021.037.05.05 0 0 1-.032.012.06.06 0 0 1-.032-.012l-.611-.355v2.938a.1.1 0 0 1-.025.082.049.049 0 0 1-.064 0l-.131-.078a.15.15 0 0 1-.064-.075.25.25 0 0 1-.025-.11v-2.939l-.615-.355a.2.2 0 0 1-.06-.075.3.3 0 0 1-.029-.113v-.182a.1.1 0 0 1 .029-.078.05.05 0 0 1 .03-.01q.016 0 .03.01zM188.547 150.885a.17.17 0 0 1 .064.078.3.3 0 0 1 .025.111v.181a.14.14 0 0 1-.025.082.05.05 0 0 1-.032.01.05.05 0 0 1-.032-.01l-1.322-.764a.16.16 0 0 1-.064-.079.23.23 0 0 1-.025-.11v-3.255a.1.1 0 0 1 .004-.043.1.1 0 0 1 .021-.039.05.05 0 0 1 .064 0l1.297.747q.041.03.06.078a.25.25 0 0 1 .029.11v.181a.1.1 0 0 1-.029.082.03.03 0 0 1-.014.009l-.016.003-.016-.003-.014-.009-1.066-.618v1.066l1.002.579q.042.028.064.075a.3.3 0 0 1 .025.11v.181a.1.1 0 0 1-.004.043.1.1 0 0 1-.021.039.05.05 0 0 1-.064 0l-1.002-.576v1.102zM190.58 152.513a.2.2 0 0 1-.075-.092q-.03-.065-.057-.135l-1.066-3.078v2.488a.1.1 0 0 1-.025.078.05.05 0 0 1-.064 0l-.135-.078a.2.2 0 0 1-.06-.079.24.24 0 0 1-.029-.11v-3.258a.1.1 0 0 1 .029-.082.03.03 0 0 1 .014-.009.03.03 0 0 1 .016-.004q.008 0 .016.004.008.003.014.009l.114.064a.2.2 0 0 1 .078.092 1 1 0 0 1 .053.135l1.066 3.081v-2.487a.1.1 0 0 1 .004-.044.1.1 0 0 1 .021-.038.05.05 0 0 1 .064 0l.135.078q.04.03.061.075a.3.3 0 0 1 .025.11v3.28a.12.12 0 0 1-.025.082.06.06 0 0 1-.031.01.1.1 0 0 1-.03-.01zM193.124 151.82v.796a1.7 1.7 0 0 1-.071.53.7.7 0 0 1-.188.323.4.4 0 0 1-.288.103.76.76 0 0 1-.373-.121l-.768-.444a.17.17 0 0 1-.064-.075.3.3 0 0 1-.025-.113v-3.255a.1.1 0 0 1 .025-.082.05.05 0 0 1 .032-.012q.018 0 .032.012l.75.433q.211.125.373.31.179.199.298.44.126.261.196.544.07.301.071.611m-.309-.153a2.3 2.3 0 0 0-.039-.373 1.5 1.5 0 0 0-.306-.679 1.1 1.1 0 0 0-.298-.252l-.512-.295v2.623l.529.305c.088.06.19.092.295.093a.253.253 0 0 0 .192-.1.54.54 0 0 0 .103-.238q.033-.164.036-.33v-.754M194.958 154.244l-1.138-.658-.17.572a.13.13 0 0 1-.036.064c-.017.018-.049 0-.092 0l-.121-.071a.12.12 0 0 1-.05-.06.2.2 0 0 1-.021-.092.2.2 0 0 1 0-.061l.803-2.718a.2.2 0 0 1 .05-.082q.03-.037.099 0l.196.114a.25.25 0 0 1 .099.11q.03.069.047.142l.828 3.632a.3.3 0 0 1 0 .078.1.1 0 0 1-.004.034.1.1 0 0 1-.018.03.04.04 0 0 1-.025.009.04.04 0 0 1-.024-.009l-.121-.068a.23.23 0 0 1-.093-.096.4.4 0 0 1-.035-.106zm-1.024-1.045.906.526-.451-2.061zM197.292 156.387a.18.18 0 0 1-.078-.089 1 1 0 0 1-.053-.135l-1.066-3.081v2.487a.12.12 0 0 1-.025.082.052.052 0 0 1-.064 0l-.132-.078a.17.17 0 0 1-.063-.075.25.25 0 0 1-.025-.113v-3.255a.1.1 0 0 1 .004-.044.1.1 0 0 1 .021-.038.05.05 0 0 1 .031-.012q.019 0 .032.012l.114.067a.2.2 0 0 1 .078.089l.054.135 1.066 3.081v-2.487a.1.1 0 0 1 .042-.064.05.05 0 0 1 .031-.012q.016 0 .03.012l.135.078a.14.14 0 0 1 .06.074.3.3 0 0 1 .029.114v3.255a.1.1 0 0 1-.029.082c0 .018-.035.018-.06 0zM198.295 154.773v.846c.003.266.058.53.163.775.091.215.248.397.448.518a.6.6 0 0 0 .266.093.3.3 0 0 0 .178-.053.36.36 0 0 0 .11-.157q.037-.105.057-.217 0-.052.032-.064a.1.1 0 0 1 .027-.006q.014 0 .026.006l.15.089q.034.023.049.061.02.044.022.092a1.2 1.2 0 0 1-.054.331.7.7 0 0 1-.163.277.44.44 0 0 1-.281.128.74.74 0 0 1-.419-.128 1.5 1.5 0 0 1-.38-.32 2.2 2.2 0 0 1-.285-.451 2.5 2.5 0 0 1-.184-.537 3 3 0 0 1-.075-.59v-.899q.003-.256.075-.501a.7.7 0 0 1 .184-.327.42.42 0 0 1 .285-.121.74.74 0 0 1 .38.117c.16.092.303.212.419.356a2.4 2.4 0 0 1 .444.917q.047.196.054.398a.1.1 0 0 1-.004.034.1.1 0 0 1-.018.03h-.049l-.15-.089a.15.15 0 0 1-.053-.057.2.2 0 0 1-.032-.103c0-.089-.032-.185-.057-.281a1.4 1.4 0 0 0-.288-.54.9.9 0 0 0-.266-.213q-.288-.171-.448 0a.9.9 0 0 0-.163.586M201.653 158.455a.16.16 0 0 1 .064.075.3.3 0 0 1 .025.11v.181a.1.1 0 0 1-.004.044.1.1 0 0 1-.021.038.05.05 0 0 1-.032.012.05.05 0 0 1-.032-.012l-1.322-.764a.17.17 0 0 1-.064-.075.3.3 0 0 1-.025-.11v-3.259a.13.13 0 0 1 .025-.081.05.05 0 0 1 .064 0l1.297.75a.14.14 0 0 1 .06.074.3.3 0 0 1 .029.11v.185a.1.1 0 0 1-.029.078c0 .018-.035.018-.06 0l-1.066-.618v1.066l1.002.579q.041.03.06.078a.24.24 0 0 1 .025.111v.181a.11.11 0 0 1-.025.082.05.05 0 0 1-.03.01.05.05 0 0 1-.03-.01l-1.002-.58v1.106z" style="fill:#455a64;fill:color(display-p3 .2706 .3529 .3922);fill-opacity:1"/><path fill="#FAFAFA" d="m206.582 183.032-27.243-15.728a1.86 1.86 0 0 1-.711-1.489V152.73c0-.597.313-.899.711-.675l27.243 15.739a1.86 1.86 0 0 1 .711 1.489v13.081c-.008.59-.324.892-.711.668" style="fill:#fafafa;fill:color(display-p3 .9804 .9804 .9804);fill-opacity:1"/><path fill="#E0E0E0" d="M206.823 183.267a.67.67 0 0 1-.327-.096l-27.239-15.732a2 2 0 0 1-.781-1.628V152.73a.928.928 0 0 1 .355-.842.56.56 0 0 1 .579.028l27.243 15.729a2 2 0 0 1 .785 1.627v13.092a.94.94 0 0 1-.355.842.53.53 0 0 1-.26.061m-27.718-31.109a.2.2 0 0 0-.1.025c-.096.056-.199.234-.199.565v13.084a1.72 1.72 0 0 0 .622 1.351l27.242 15.732a.25.25 0 0 0 .263.025c.1-.057.203-.235.203-.565v-13.103a1.72 1.72 0 0 0-.622-1.35l-27.257-15.729a.3.3 0 0 0-.152-.035" style="fill:#e0e0e0;fill:color(display-p3 .8784 .8784 .8784);fill-opacity:1"/><path fill="#F7921E" d="M182.992 156.28c-1.389-.803-2.516.281-2.516 2.42 0 3.671 2.516 8.597 2.516 8.597a7.64 7.64 0 0 0 2.516-5.686c-.007-2.143-1.126-4.528-2.516-5.331m0 5.508c-.671-.391-1.219-1.542-1.219-2.58 0-1.037.548-1.56 1.219-1.169.672.391 1.219 1.543 1.219 2.577s-.547 1.56-1.219 1.172M200.693 169.141l-11.905-6.873a1.54 1.54 0 0 1-.639-1.222v-.128c0-.473.288-.69.639-.484l11.905 6.873a1.52 1.52 0 0 1 .64 1.223v.128c0 .472-.284.689-.64.483" style="fill:#f7921e;fill:color(display-p3 .9686 .5725 .1176);fill-opacity:1"/><path fill="#E0E0E0" d="M204.965 174.273a.3.3 0 0 1-.156-.043l-16.82-9.709a.32.32 0 0 1 .32-.55l16.816 9.708a.3.3 0 0 1 .094.082.3.3 0 0 1 .055.112.3.3 0 0 1 .008.125.3.3 0 0 1-.158.233.33.33 0 0 1-.159.042M204.965 176.884a.3.3 0 0 1-.156-.042l-16.82-9.709a.32.32 0 0 1 .32-.551l16.816 9.709a.3.3 0 0 1 .094.081.325.325 0 0 1 .023.353.32.32 0 0 1-.277.159M204.965 179.497a.3.3 0 0 1-.157-.043l-16.819-9.709a.324.324 0 0 1-.032-.53.323.323 0 0 1 .352-.021l16.816 9.709a.315.315 0 0 1 .157.316.32.32 0 0 1-.157.235.3.3 0 0 1-.16.043" style="fill:#e0e0e0;fill:color(display-p3 .8784 .8784 .8784);fill-opacity:1"/><path fill="#FAFAFA" d="M150.534 139.083c0 2.818.981 5.938 2.573 8.71a20.3 20.3 0 0 0 2.523 3.526q.207.235.415.454a15.4 15.4 0 0 0 3.391 2.73c.588.344 1.21.628 1.855.849q.31.1.614.174a5.35 5.35 0 0 0 3.174-.099c1.99-.736 3.259-2.865 3.262-6.063 0-5.686-3.987-12.584-8.905-15.419-4.919-2.836-8.902-.541-8.902 5.138" style="fill:#fafafa;fill:color(display-p3 .9804 .9804 .9804);fill-opacity:1"/><path fill="#263238" d="m152.904 147.441.199.356q.203.363.434.71l.355.58q.426.633.885 1.222l.082.1.479-2.644a6.25 6.25 0 0 0-2.434-.324" style="fill:#263238;fill:color(display-p3 .149 .1961 .2196);fill-opacity:1"/><path fill="#F7921E" d="m153.537 148.508.355.579q.426.632.885 1.223l.082.099q.367.475.76.913l.412.452a15.3 15.3 0 0 0 3.391 2.729 10 10 0 0 0 1.855.849q.312.101.614.174c.76.199 1.552.24 2.328.121a4.25 4.25 0 0 0 1.844-.746c-.096-.736-.295-1.311-.618-1.574-1.173-.924-4.065-4.02-6.78-4.709-1.067-.277-2.133-.586-3.327-.853-.639-.146-1.265.096-1.801.743" style="fill:#f7921e;fill:color(display-p3 .9686 .5725 .1176);fill-opacity:1"/><path fill="#fff" d="m153.537 148.508.355.579q.426.632.885 1.223l.082.099q.367.475.76.913l.412.452a15.3 15.3 0 0 0 3.391 2.729 10 10 0 0 0 1.855.849q.312.101.614.174c.76.199 1.552.24 2.328.121a4.25 4.25 0 0 0 1.844-.746c-.096-.736-.295-1.311-.618-1.574-1.173-.924-4.065-4.02-6.78-4.709-1.067-.277-2.133-.586-3.327-.853-.639-.146-1.265.096-1.801.743" opacity=".2" style="fill:#fff;fill-opacity:1"/><path fill="#263238" d="M163.501 139.24a1.6 1.6 0 0 1-.096.227c1.191.544 2.133 1.941.665 2.822.888.711.49 1.777-.451 2.2-.164.195-.025.483 0 .739a.8.8 0 0 1-.302.691.79.79 0 0 1-.743.123c.064.426-.238 1.09-.782 1.066l.089-1.155s.145-1.017-.377-1.244c-.451-.103-.917.092-1.375.107-1.674.184-3.071-1.003-4.034-2.25a.45.45 0 0 0-.273-.235c-.544-.319-.576-1.044-.405-1.592a1.006 1.006 0 0 1-1.363-.245 1.01 1.01 0 0 1 .165-1.375.804.804 0 0 1-.959-1.237.43.43 0 0 0 .205.465.43.43 0 0 0 .505-.056c.221-.213.15-.576.068-.871a.9.9 0 0 1-.064-.448.9.9 0 0 1 .17-.419c.26-.448 1.223-.711 1.816-.355a1.295 1.295 0 0 1 .995-1.365c.818-.27 1.511.306 2.232.555 1.215-.445 2.633.252 2.648 1.641 1.307.068 2.114.882 1.666 2.211" style="fill:#263238;fill:color(display-p3 .149 .1961 .2196);fill-opacity:1"/><path fill="#FFA8A7" d="M163.118 146.564c-.672.316-1.237-.604-1.237-.604l-.334 4.41s-.356.874-2.609.835c-1.755-.028-3.017-1.066-1.652-2.2l.071-1.343a6.3 6.3 0 0 1-1.311-.48c-.619-.355-1.113-1.482-1.329-2.555-.356-1.723-.093-3.625.547-6.642 1.041 1.084 3.301-.565 5.178 1.479-.512 1.002.223 2.843.895 3.237-.217.871-.107 1.29.146 1.382.444.164.743-.444 1.002-.678s1.094-.437 1.471.65-.249 2.235-.838 2.509" style="fill:#ffa8a7;fill:color(display-p3 1 .6588 .6549);fill-opacity:1"/><path fill="#F28F8F" d="M157.357 147.662c.355.064 1.684.099 2.161-.1a3.04 3.04 0 0 0 1.83-1.712 2.486 2.486 0 0 1-1.29 1.986 4.3 4.3 0 0 1-2.74.491z" style="fill:#f28f8f;fill:color(display-p3 .949 .5608 .5608);fill-opacity:1"/><path fill="#263238" d="m158.682 140.7.775.768a.67.67 0 0 0-.124-.793.4.4 0 0 0-.148-.116.401.401 0 0 0-.503.141M155.441 140.039l.938-.053a.57.57 0 0 0-.554-.519.45.45 0 0 0-.323.198.45.45 0 0 0-.061.374" style="fill:#263238;fill:color(display-p3 .149 .1961 .2196);fill-opacity:1"/><path fill="#37474F" d="M159.109 142.342a.32.32 0 0 1-.409.327.555.555 0 0 1-.355-.551.32.32 0 0 1 .412-.323.55.55 0 0 1 .352.547M156.305 141.337a.322.322 0 0 1-.412.327.55.55 0 0 1-.356-.551.32.32 0 0 1 .12-.269.3.3 0 0 1 .138-.063.3.3 0 0 1 .151.008.55.55 0 0 1 .359.548" style="fill:#37474f;fill:color(display-p3 .2157 .2784 .3098);fill-opacity:1"/><path fill="#F28F8F" d="m157.737 141.226-.558 2.576-1.265-.902z" style="fill:#f28f8f;fill:color(display-p3 .949 .5608 .5608);fill-opacity:1"/><path fill="#B16668" d="m158.231 144.872-1.379.075a.67.67 0 0 0 .222.466.66.66 0 0 0 .489.163.714.714 0 0 0 .668-.704" style="fill:#b16668;fill:color(display-p3 .6941 .4 .4078);fill-opacity:1"/><path fill="#F28F8F" d="M157.549 145.576a.64.64 0 0 1-.356-.075.826.826 0 0 1 .747-.476.9.9 0 0 1 .255.043.73.73 0 0 1-.646.508" style="fill:#f28f8f;fill:color(display-p3 .949 .5608 .5608);fill-opacity:1"/><path fill="#263238" d="M164.233 155.647a4.25 4.25 0 0 0 2.445-1.268q-.575-.573-1.219-1.067a5.7 5.7 0 0 0-1.226 2.335" style="fill:#263238;fill:color(display-p3 .149 .1961 .2196);fill-opacity:1"/><path fill="#F7921E" d="M155.459 133.22a7.66 7.66 0 0 1 3.732 1.151c4.772 2.754 8.656 9.481 8.656 14.993 0 2.868-1.066 4.911-2.939 5.601a4.2 4.2 0 0 1-1.496.259 6 6 0 0 1-1.389-.178 7 7 0 0 1-.579-.163 9.7 9.7 0 0 1-1.777-.807 14.8 14.8 0 0 1-3.277-2.64 20.693 20.693 0 0 1-2.871-3.884c-1.617-2.822-2.509-5.828-2.509-8.469 0-3.618 1.699-5.863 4.435-5.863m0-.494c-2.921 0-4.925 2.331-4.925 6.357 0 2.818.98 5.938 2.572 8.71a20.303 20.303 0 0 0 1.685 2.516c.305.395.551.686.839 1.009.135.157.277.31.415.455a15.4 15.4 0 0 0 3.391 2.73c.588.344 1.209.628 1.855.849q.31.1.614.174c.493.124.999.189 1.507.192a4.7 4.7 0 0 0 1.667-.291c1.99-.736 3.259-2.865 3.262-6.063 0-5.686-3.987-12.584-8.905-15.42a8.05 8.05 0 0 0-3.977-1.218" style="fill:#f7921e;fill:color(display-p3 .9686 .5725 .1176);fill-opacity:1"/><path fill="#F7921E" d="M150.402 128.913c-2.011-1.162-3.646-.22-3.646 2.1s1.635 5.149 3.646 6.312c2.012 1.162 3.643.22 3.643-2.104s-1.631-5.15-3.643-6.308" style="fill:#f7921e;fill:color(display-p3 .9686 .5725 .1176);fill-opacity:1"/><path fill="#fff" d="M150.402 128.913c-2.011-1.162-3.646-.22-3.646 2.1s1.635 5.149 3.646 6.312c2.012 1.162 3.643.22 3.643-2.104s-1.631-5.15-3.643-6.308" opacity=".3" style="fill:#fff;fill-opacity:1"/><path fill="#fff" d="m149.78 135.374-1.382-2.207.682-.793.814 1.308 1.979-2.31.565.899z" style="fill:#fff;fill-opacity:1"/><path fill="#FAFAFA" d="M150.534 113.505c0 2.818.981 5.935 2.573 8.71a20.6 20.6 0 0 0 1.684 2.516c.306.395.551.686.839 1.01l.416.454a15.4 15.4 0 0 0 3.39 2.73c.589.343 1.21.626 1.855.845q.31.103.615.175a5.34 5.34 0 0 0 3.177-.096c1.986-.736 3.255-2.865 3.258-6.067 0-5.685-3.987-12.58-8.905-15.415-4.918-2.836-8.902-.541-8.902 5.138" style="fill:#fafafa;fill:color(display-p3 .9804 .9804 .9804);fill-opacity:1"/><path fill="#37474F" d="M164.368 116.341a8 8 0 0 1-.035 3.131 12 12 0 0 0-.249 3.127c.021.206.043.451-.117.586a.42.42 0 0 1-.516-.05 1.3 1.3 0 0 1-.284-.479q-.091 1.127-.188 2.253c.005.26-.068.517-.21.735a1.06 1.06 0 0 1-1.166.199 3.198 3.198 0 0 1-1.943-2.132 6.26 6.26 0 0 1-.068-2.971c.244-1.344.71-2.639 1.379-3.831a11.4 11.4 0 0 0 1.023-1.961c.065-.282.186-.548.356-.782.096-.114.181-.078.305-.025q.185.075.356.178.336.211.597.511.268.303.455.661.186.36.295.75.007.05.01.1" style="fill:#37474f;fill:color(display-p3 .2157 .2784 .3098);fill-opacity:1"/><path fill="#FFBDA7" d="M153.107 122.215c.248.441.519.875.799 1.294.281.419.58.828.885 1.222l.793-2.277c-1.074-.327-1.774-.494-2.477-.239" style="fill:#ffbda7;fill:color(display-p3 1 .7412 .6549);fill-opacity:1"/><path fill="#F7921E" d="M153.959 123.15a22 22 0 0 0 1.724 2.232c.135.152.277.305.416.454a15.2 15.2 0 0 0 3.386 2.726 10 10 0 0 0 1.859.849q.31.103.611.175c.017-1.452.345-2.883.96-4.197 0 0-.739-.395-2.132-1.162a.3.3 0 0 0-.047-.032c-1.123-.772-1.88-.633-3.948-1.518-.035-.018.253-.167.217-.181l-1.354-.405q-.882.471-1.692 1.059" style="fill:#f7921e;fill:color(display-p3 .9686 .5725 .1176);fill-opacity:1"/><path fill="#455A64" d="M160.84 121.853c.167-.629.948-1.067 1.684-2.175.736-1.109 1.688-3.554.185-4.684.277-1.468-.899-3.273-2.505-3.994-2.111-.949-4.581-.818-6.01.988-1.688 2.132.057 4.168.057 4.168z" style="fill:#455a64;fill:color(display-p3 .2706 .3529 .3922);fill-opacity:1"/><path fill="#FFBDA7" d="M154.468 119.528c.106.457.321.881.625 1.237.356.437.871.672 1.703.956l-.025.569v1.389s-1.006 1.183-1.066 2.051l.415.454a9.7 9.7 0 0 0 4.666-1.517v-.092l.047-.953.103-2.327.017-.654a.6.6 0 0 0 .107.245.9.9 0 0 0 .355.288 1 1 0 0 0 .846.046l.061-.032a.3.3 0 0 0 .088-.046.3.3 0 0 0 .072-.043.4.4 0 0 0 .06-.043l.057-.046a1.67 1.67 0 0 0 .501-1.94c-.206-.494-.764-.928-1.184-.761s-.476.43-.66.729c-.185.298-1.045-.615-.448-2.161a2.8 2.8 0 0 1-.857-2.487c-.309-1.123-2.395-1.265-2.761-.842-.306-.711-.27-1.134-.86-.953s-1.585.579-1.933 3.024a10.3 10.3 0 0 0 .071 3.909" style="fill:#ffbda7;fill:color(display-p3 1 .7412 .6549);fill-opacity:1"/><path fill="#B16668" d="m158.132 119.298-1.244.035a.814.814 0 0 0 .814.711c.341-.014.49-.33.43-.746" style="fill:#b16668;fill:color(display-p3 .6941 .4 .4078);fill-opacity:1"/><path fill="#F28F8F" d="M157.35 119.98a.538.538 0 0 1 .728-.444l.061.028a.48.48 0 0 1-.437.491.7.7 0 0 1-.352-.075" style="fill:#f28f8f;fill:color(display-p3 .949 .5608 .5608);fill-opacity:1"/><path fill="#F0997A" d="m156.973 116.021-.288 2.431-1.162-.789z" style="fill:#f0997a;fill:color(display-p3 .9412 .6 .4784);fill-opacity:1"/><path fill="#263238" d="M155.712 116.138a.321.321 0 0 1-.395.356.54.54 0 0 1-.405-.505.32.32 0 0 1 .391-.355.545.545 0 0 1 .409.504M158.594 117.116a.319.319 0 0 1-.391.355.55.55 0 0 1-.409-.505.326.326 0 0 1 .24-.353.3.3 0 0 1 .155-.002.54.54 0 0 1 .405.505" style="fill:#263238;fill:color(display-p3 .149 .1961 .2196);fill-opacity:1"/><path fill="#F0997A" d="M156.774 121.721a5.6 5.6 0 0 0 2.488-.113c.48-.192.888-.53 1.166-.967 0 0 .085.789-1.091 1.336-.917.43-2.58.317-2.58.317z" style="fill:#f0997a;fill:color(display-p3 .9412 .6 .4784);fill-opacity:1"/><path fill="#263238" d="m154.955 114.937.888.057a.71.71 0 0 0-.579-.522c-.245-.018-.384.192-.309.465M157.897 115.726l.97.647a.69.69 0 0 0-.33-.732c-.267-.178-.554-.139-.64.085" style="fill:#263238;fill:color(display-p3 .149 .1961 .2196);fill-opacity:1"/><path fill="#455A64" d="M156.245 112.517c-.178.967.949 3.199 2.459 4.226s2.488.82 2.488.82.174-3.088-1.326-4.264-3.621-.782-3.621-.782" style="fill:#455a64;fill:color(display-p3 .2706 .3529 .3922);fill-opacity:1"/><path fill="#FFBDA7" d="M161.291 129.77q.31.103.615.175a5.34 5.34 0 0 0 3.177-.096c.373-.197.707-.461.984-.779-1.091-2.58-1.667-3.07-3.152-3.681-1.006.735-1.457 3.244-1.624 4.381" style="fill:#ffbda7;fill:color(display-p3 1 .7412 .6549);fill-opacity:1"/><path fill="#F7921E" d="M155.459 107.641a7.7 7.7 0 0 1 3.732 1.148c4.772 2.758 8.656 9.482 8.656 14.993 0 2.872-1.066 4.915-2.939 5.604a4.2 4.2 0 0 1-1.496.26 6 6 0 0 1-1.389-.178 8 8 0 0 1-.579-.163 10 10 0 0 1-1.777-.807 14.7 14.7 0 0 1-3.277-2.644 20.528 20.528 0 0 1-1.226-1.425 23 23 0 0 1-.863-1.194 17 17 0 0 1-.782-1.265c-1.617-2.818-2.509-5.825-2.509-8.465 0-3.618 1.699-5.864 4.435-5.864m0-.494c-2.921 0-4.925 2.328-4.925 6.358 0 2.818.98 5.935 2.572 8.71.249.441.519.874.8 1.294.281.419.579.828.885 1.222.305.395.551.686.839 1.009l.415.455a15.4 15.4 0 0 0 3.391 2.729c.588.344 1.21.627 1.855.846q.31.103.614.174c.493.124.999.189 1.507.192a4.7 4.7 0 0 0 1.667-.288c1.99-.735 3.259-2.864 3.262-6.066 0-5.686-3.987-12.58-8.905-15.416a8.06 8.06 0 0 0-3.977-1.219" style="fill:#f7921e;fill:color(display-p3 .9686 .5725 .1176);fill-opacity:1"/><path fill="#FAFAFA" d="M150.402 104.809c-2.015-1.162-3.646-.217-3.646 2.104s1.635 5.149 3.646 6.311 3.643.221 3.643-2.103-1.631-5.132-3.643-6.312" style="fill:#fafafa;fill:color(display-p3 .9804 .9804 .9804);fill-opacity:1"/><path fill="#E0E0E0" d="M152.03 113.882a3.5 3.5 0 0 1-1.709-.519c-2.051-1.187-3.721-4.08-3.721-6.45 0-1.18.405-2.068 1.144-2.487s1.713-.356 2.736.255c2.055 1.184 3.725 4.077 3.725 6.447 0 1.183-.409 2.068-1.148 2.487a2 2 0 0 1-1.027.267m-3.248-9.41a1.7 1.7 0 0 0-.871.22c-.636.355-.988 1.159-.988 2.221 0 2.271 1.599 5.039 3.554 6.173.92.533 1.777.625 2.416.256.64-.37.988-1.155.988-2.221 0-2.268-1.599-5.039-3.553-6.173a3.14 3.14 0 0 0-1.546-.476" style="fill:#e0e0e0;fill:color(display-p3 .8784 .8784 .8784);fill-opacity:1"/><path fill="#FAFAFA" d="M150.559 87.917c0 2.818.98 5.939 2.572 8.71a20.496 20.496 0 0 0 1.685 2.516c.306.395.551.686.839 1.01.138.152.277.309.415.454a15.4 15.4 0 0 0 3.391 2.73c.588.344 1.21.628 1.855.849q.31.1.614.174a5.36 5.36 0 0 0 3.177-.099c1.987-.736 3.256-2.865 3.259-6.063 0-5.686-3.987-12.583-8.905-15.42-4.919-2.835-8.902-.54-8.902 5.14" style="fill:#fafafa;fill:color(display-p3 .9804 .9804 .9804);fill-opacity:1"/><path fill="#263238" d="m152.922 96.276.199.355q.204.364.433.71c.153.232.246.388.356.58q.422.633.881 1.222l.082.1.48-2.644a6.2 6.2 0 0 0-2.431-.323" style="fill:#263238;fill:color(display-p3 .149 .1961 .2196);fill-opacity:1"/><path fill="#37474F" d="M153.554 97.342c.121.192.246.387.356.579q.422.633.881 1.222l.082.1q.367.475.76.913c.135.15.278.306.413.448a15.3 15.3 0 0 0 3.39 2.733c.588.344 1.21.629 1.855.849q.312.101.615.174c.759.199 1.551.24 2.327.121a4.25 4.25 0 0 0 1.845-.746c-.096-.736-.295-1.311-.619-1.574-1.172-.924-1.841-1.511-2.427-1.934a8.83 8.83 0 0 0-4.335-2.779c-1.066-.277-2.133-.586-3.327-.852-.654-.143-1.279.099-1.816.746" style="fill:#37474f;fill:color(display-p3 .2157 .2784 .3098);fill-opacity:1"/><path fill="#263238" d="M163.16 87.47c1.166 1.922.736 4.399-.114 6.04-.38.73-.955 2.087-1.272 2.915 0 0-2.043.767-6.531-5.722-.814-1.172-.356-3.994.739-5.042 1.539-1.493 4.883-1.841 7.178 1.808" style="fill:#263238;fill:color(display-p3 .149 .1961 .2196);fill-opacity:1"/><path fill="#C8856A" d="M163.135 95.398c-.671.316-1.236-.605-1.236-.605l-.324 4.41s0 .573-1.165.974c-.764.263-2.353.111-3.256.889-.38-.839-.685-2.292.16-3.227l.071-1.343a6.3 6.3 0 0 1-1.311-.48 2.84 2.84 0 0 1-1.478-1.983 8.7 8.7 0 0 1-.185-2.093c.105-1.36.308-2.71.608-4.04.074-.402.515-1.323.87-1.468.896-.356.789 1.048 1.83 1.403 1.042.356 3.981-.355 3.373.907a5.9 5.9 0 0 0 .256 3.45q.12.332.334.611c.291.356.558-.334.814-.568.256-.235 1.094-.437 1.471.65.377 1.088-.26 2.239-.832 2.513" style="fill:#c8856a;fill:color(display-p3 .7843 .5216 .4157);fill-opacity:1"/><path fill="#AF6152" d="M157.375 96.496c.792.181 2.303.12 2.896-.355.391-.328.721-.722.977-1.163a2.76 2.76 0 0 1-.867 1.607c-1.212.956-3.045.572-3.045.572z" style="fill:#af6152;fill:color(display-p3 .6863 .3804 .3216);fill-opacity:1"/><path fill="#263238" d="M161.262 91.94c.093.658-.643 2.243-1.776 2.132s-1.347-.849-2.349-1.112c-.892-.234-1.45.057-1.898-.124a2.4 2.4 0 0 1-.846-.882s-.252 2.037.224 3.042c.633 1.333 2.303 1.628 3.305 1.72a3.63 3.63 0 0 0 2.488-.593c.632-.459 1.016-1.251 1.311-2.05.295-.8.768-1.82.768-1.82l-1.191-.384M158.974 89.836l.775.768a.68.68 0 0 0-.128-.796.4.4 0 0 0-.511-.1.4.4 0 0 0-.136.128M155.459 88.873l.939-.057a.58.58 0 0 0-.555-.515.456.456 0 0 0-.384.572M159.304 91.194a.32.32 0 0 1-.26.333.3.3 0 0 1-.152-.006.555.555 0 0 1-.355-.551.32.32 0 0 1 .412-.323.55.55 0 0 1 .355.547M156.323 90.17a.32.32 0 0 1-.122.27.33.33 0 0 1-.29.057.56.56 0 0 1-.356-.55.32.32 0 0 1 .258-.333.3.3 0 0 1 .151.009.54.54 0 0 1 .359.547" style="fill:#263238;fill:color(display-p3 .149 .1961 .2196);fill-opacity:1"/><path fill="#AF6152" d="m157.805 90.245-.562 2.584-1.261-.903c.487-.757 1.272-1.525 1.823-1.68M157.958 93.823l-1.383.075a.68.68 0 0 0 .223.464.67.67 0 0 0 .488.165.71.71 0 0 0 .672-.704" style="fill:#af6152;fill:color(display-p3 .6863 .3804 .3216);fill-opacity:1"/><path fill="#F28F8F" d="M157.272 94.527a.64.64 0 0 1-.356-.075.825.825 0 0 1 1.006-.433.73.73 0 0 1-.65.508" style="fill:#f28f8f;fill:color(display-p3 .949 .5608 .5608);fill-opacity:1"/><path fill="#263238" d="M157.144 101.066c.497-.199 1.816-.48 1.922-.078.075.284.288 1.304.658 1.382a3.38 3.38 0 0 0 2.715-1.02c.317-.3.53-.693.607-1.123 0 0-.437-1.126-.71-1.666-.274-.54-.356-.846-.647-.96l-.082.931a2.3 2.3 0 0 1-.906.846c-.885.451-2.658.725-3.557 1.688M157.144 101.066c-.27-.377-.711-1.777-.956-1.777-.484-.029-.818.28-.818 0s.356-.81.803-1.532c.338-.554.871-.941 1.187-.916l-.074 1.282a3.1 3.1 0 0 0-.253 1.066 4.5 4.5 0 0 0 .111 1.877M164.251 104.481a4.25 4.25 0 0 0 2.445-1.268q-.575-.573-1.219-1.067a5.7 5.7 0 0 0-1.226 2.335" style="fill:#263238;fill:color(display-p3 .149 .1961 .2196);fill-opacity:1"/><path fill="#F7921E" d="M155.477 82.054a7.66 7.66 0 0 1 3.731 1.15c4.773 2.755 8.657 9.482 8.657 14.994 0 2.868-1.066 4.911-2.939 5.601a4.2 4.2 0 0 1-1.496.259 6 6 0 0 1-1.389-.178 7 7 0 0 1-.58-.163 10 10 0 0 1-1.776-.807 14.8 14.8 0 0 1-3.277-2.64 15 15 0 0 1-.405-.44 21 21 0 0 1-1.685-2.183c-.273-.409-.54-.839-.781-1.261-1.617-2.822-2.509-5.828-2.509-8.469 0-3.618 1.698-5.864 4.435-5.864m0-.493c-2.921 0-4.926 2.33-4.926 6.357 0 2.818.981 5.938 2.573 8.71a20.461 20.461 0 0 0 1.685 2.516c.305.395.55.686.838 1.009.139.153.278.31.416.455a15.4 15.4 0 0 0 3.39 2.73c.589.344 1.21.628 1.855.849q.31.1.615.174c.493.124.999.189 1.507.192a4.8 4.8 0 0 0 1.67-.291c1.987-.736 3.255-2.865 3.259-6.063 0-5.686-3.987-12.584-8.906-15.42a8.04 8.04 0 0 0-3.976-1.218" style="fill:#f7921e;fill:color(display-p3 .9686 .5725 .1176);fill-opacity:1"/><path fill="#F7921E" d="M150.42 79.25c-2.001-1.151-3.618-.22-3.618 2.086s1.625 5.096 3.618 6.258c1.994 1.162 3.618.217 3.618-2.086s-1.621-5.117-3.618-6.258" style="fill:#f7921e;fill:color(display-p3 .9686 .5725 .1176);fill-opacity:1"/><path fill="#fff" d="M150.42 79.25c-2.001-1.151-3.618-.22-3.618 2.086s1.625 5.096 3.618 6.258c1.994 1.162 3.618.217 3.618-2.086s-1.621-5.117-3.618-6.258" opacity=".3" style="fill:#fff;fill-opacity:1"/><path fill="#fff" d="m149.78 85.782-1.382-2.204.682-.792.814 1.304 1.979-2.31.565.9z" style="fill:#fff;fill-opacity:1"/><path fill="#F7921E" d="M173.183 185.602v.87a.94.94 0 0 1-.43.748l-48.302 27.888a.97.97 0 0 1-.86 0L88.99 195.14a.94.94 0 0 1-.43-.747v-.865a.95.95 0 0 1 .43-.748l48.302-27.889a.94.94 0 0 1 .86 0l34.601 19.968a.94.94 0 0 1 .43.743" style="fill:#f7921e;fill:color(display-p3 .9686 .5725 .1176);fill-opacity:1"/><path fill="#fff" d="M88.918 192.811c-.174.138-.159.333.061.456l34.601 19.968c.132.072.28.107.43.102v1.895a.9.9 0 0 1-.43-.103l-34.6-19.968a.95.95 0 0 1-.43-.747v-.866a.96.96 0 0 1 .368-.737" opacity=".4" style="fill:#fff;fill-opacity:1"/><path fill="#000" d="m172.825 184.911.035.03.062.062a.9.9 0 0 1 .215.466.4.4 0 0 1 0 .102v.871a.97.97 0 0 1-.43.747l-48.256 27.919a.9.9 0 0 1-.43.103v-1.864a.8.8 0 0 0 .43-.102l48.307-27.889a.33.33 0 0 0 .159-.169.22.22 0 0 0-.051-.235.2.2 0 0 0-.041-.041" opacity=".15" style="fill:#000;fill-opacity:1"/><path fill="#263238" d="M160.086 172.597c0-.323-.195-.645-.717-.947a3.2 3.2 0 0 0-1.536-.41h-.133c-1.347 0-2.749.625-3.942.799h-.052c-1.674.23-2.56-.292-3.379-.374a4 4 0 0 0-.399 0h-.563c-.727.053-1.457.038-2.181-.046a16 16 0 0 0-1.327-.097h-.107a1.75 1.75 0 0 0-.978.189l-1.935 1.122v.64l14.5 8.376 1.935-1.121a.57.57 0 0 0 .328-.589v-.635a2.7 2.7 0 0 0-.159-.819 3.3 3.3 0 0 1-.113-.482q.047-.225.062-.455v-.656a.7.7 0 0 0-.036-.225c-.092-.328-.548-.671-.697-1.162q.026-.09.062-.174c.302-.697 1.387-1.536 1.387-2.289-.02-.097-.02-.507-.02-.645m-2.98 1.853a3.7 3.7 0 0 1-1.049.405 2.9 2.9 0 0 1-1.972-.154.9.9 0 0 1-.348-.338c.18-.325.453-.588.784-.757a3.68 3.68 0 0 1 2.652-.4q.191.051.363.149a.9.9 0 0 1 .348.338c-.17.323-.434.587-.757.757z" style="fill:#263238;fill:color(display-p3 .149 .1961 .2196);fill-opacity:1"/><path fill="#37474F" d="m144.772 171.712-1.935 1.121 14.5 8.371 1.935-1.116c.246-.144.512-.338.169-1.403s.066-1.331-.087-1.818c-.154-.486-1.06-.998-.635-1.981s2.442-2.217.671-3.241a3.2 3.2 0 0 0-1.536-.41h-.133c-1.347 0-2.75.625-3.943.799h-.051c-1.674.23-2.56-.292-3.379-.374a4 4 0 0 0-.4 0h-.563c-.727.053-1.457.038-2.181-.046a16 16 0 0 0-1.326-.097h-.128a1.74 1.74 0 0 0-.978.195m11.96 7.505a.91.91 0 0 1 .799-.071c.19.112.133.317-.118.466a.913.913 0 0 1-.793.066c-.195-.107-.118-.286.112-.455zm-2.191-6.261a3.7 3.7 0 0 1 2.652-.4q.191.051.364.149c.711.415.512 1.193-.43 1.746a3.9 3.9 0 0 1-1.05.399 2.9 2.9 0 0 1-1.971-.154c-.712-.424-.517-1.187.435-1.735zm-8.996-.2a.9.9 0 0 1 .794-.067c.194.113.143.318-.113.461a.9.9 0 0 1-.799.067c-.189-.103-.133-.313.118-.456z" style="fill:#37474f;fill:color(display-p3 .2157 .2784 .3098);fill-opacity:1"/><path fill="#F5F5F5" d="m125.362 210.209-30.11-17.383a.57.57 0 0 1-.262-.445v-.338a.56.56 0 0 1 .261-.446l39.783-22.958a.58.58 0 0 1 .512 0l30.11 17.383q.113.077.182.195c.044.078.07.166.074.255v.333a.58.58 0 0 1-.256.446l-39.782 22.968a.55.55 0 0 1-.512-.01" style="fill:#f5f5f5;fill:color(display-p3 .9608 .9608 .9608);fill-opacity:1"/><path fill="#FAFAFA" d="M95.185 191.644c-.072.081-.051.184.066.25l30.111 17.408a.5.5 0 0 0 .256.062v.927a.5.5 0 0 1-.256-.062l-30.11-17.382a.56.56 0 0 1-.257-.446v-.338a.62.62 0 0 1 .19-.419" style="fill:#fafafa;fill:color(display-p3 .9804 .9804 .9804);fill-opacity:1"/><path fill="#E0E0E0" d="m165.718 186.047.072.072.03.041q.042.066.072.138a1 1 0 0 1 .026.092.4.4 0 0 1 0 .067v.333a.56.56 0 0 1-.256.445l-39.783 22.969a.5.5 0 0 1-.261.061v-.922a.54.54 0 0 0 .261-.061l39.783-22.968c.117-.072.138-.18.056-.267" style="fill:#e0e0e0;fill:color(display-p3 .8784 .8784 .8784);fill-opacity:1"/><path fill="#FAFAFA" d="m132.53 173.795 4.838 2.755-4.838 2.79-4.838-2.749z" style="fill:#fafafa;fill:color(display-p3 .9804 .9804 .9804);fill-opacity:1"/><path fill="#455A64" d="m132.53 174.025-4.439 2.56 4.439 2.525 4.439-2.56zm-5.007 2.663a.2.2 0 0 1 0-.098.2.2 0 0 1 .097-.174l4.838-2.79a.19.19 0 0 1 .195 0l4.838 2.749q.046.029.072.075a.22.22 0 0 1 0 .199.2.2 0 0 1-.072.075l-4.838 2.79a.19.19 0 0 1-.195 0l-4.838-2.755a.16.16 0 0 1-.097-.071" style="fill:#455a64;fill:color(display-p3 .2706 .3529 .3922);fill-opacity:1"/><path fill="#E0E0E0" d="m139.606 178.045-.348.199a.21.21 0 0 0-.145.2.213.213 0 0 0 .145.2l17.044 9.84a.76.76 0 0 0 .686 0l.354-.204a.21.21 0 0 0 .137-.198.21.21 0 0 0-.137-.197l-17.045-9.84a.74.74 0 0 0-.691 0M137.502 179.263l-.348.2c-.19.113-.19.292 0 .4l17.039 9.84a.78.78 0 0 0 .691 0l.348-.205a.2.2 0 0 0 .1-.077.21.21 0 0 0 0-.24.2.2 0 0 0-.1-.077l-17.044-9.841a.77.77 0 0 0-.686 0M135.402 180.477l-.353.199a.21.21 0 0 0-.145.2c0 .044.014.088.04.124a.2.2 0 0 0 .105.076l17.045 9.84a.76.76 0 0 0 .686 0l.353-.204a.208.208 0 0 0 .1-.318.2.2 0 0 0-.1-.077l-17.044-9.84a.74.74 0 0 0-.687 0" style="fill:#e0e0e0;fill:color(display-p3 .8784 .8784 .8784);fill-opacity:1"/><path fill="#F7921E" d="m131.296 177.374.374-1.505 1.121-.093-.21.855 6.17-.506-.159.645z" style="fill:#f7921e;fill:color(display-p3 .9686 .5725 .1176);fill-opacity:1"/><path fill="#FAFAFA" d="m123.662 178.915 4.839 2.755-4.839 2.79-4.833-2.755z" style="fill:#fafafa;fill:color(display-p3 .9804 .9804 .9804);fill-opacity:1"/><path fill="#455A64" d="m123.662 179.145-4.434 2.56 4.434 2.525 4.439-2.56zm-5.007 2.663a.2.2 0 0 1-.026-.097.2.2 0 0 1 .098-.174l4.838-2.791a.2.2 0 0 1 .097-.027q.053 0 .098.027l4.838 2.75a.2.2 0 0 1 .102.174.2.2 0 0 1-.027.099.2.2 0 0 1-.075.07l-4.833 2.795a.2.2 0 0 1-.2 0l-4.833-2.754a.2.2 0 0 1-.077-.072" style="fill:#455a64;fill:color(display-p3 .2706 .3529 .3922);fill-opacity:1"/><path fill="#E0E0E0" d="m130.748 183.165-.348.2c-.194.107-.194.286 0 .399l17.039 9.841a.77.77 0 0 0 .687 0l.353-.205a.214.214 0 0 0 .138-.197.2.2 0 0 0-.038-.121.2.2 0 0 0-.1-.077l-17.065-9.84a.74.74 0 0 0-.666 0M128.634 184.384l-.348.199a.22.22 0 0 0-.106.076.21.21 0 0 0 0 .247.2.2 0 0 0 .106.077l17.044 9.84a.77.77 0 0 0 .686 0l.348-.205c.195-.107.195-.286 0-.394l-17.039-9.84a.74.74 0 0 0-.691 0M126.535 185.597l-.349.2a.21.21 0 0 0 0 .399l17.04 9.841a.8.8 0 0 0 .691 0l.348-.205a.21.21 0 0 0 .138-.197.2.2 0 0 0-.038-.121.2.2 0 0 0-.1-.076l-17.044-9.841a.74.74 0 0 0-.686 0" style="fill:#e0e0e0;fill:color(display-p3 .8784 .8784 .8784);fill-opacity:1"/><path fill="#F7921E" d="m122.434 182.494.373-1.505 1.122-.093-.215.856 6.174-.507-.164.645z" style="fill:#f7921e;fill:color(display-p3 .9686 .5725 .1176);fill-opacity:1"/><path fill="#455A64" d="m114.8 184.266-4.439 2.56 4.439 2.524 4.433-2.56zm-5.008 2.662a.2.2 0 0 1-.031-.102.2.2 0 0 1 .029-.099.2.2 0 0 1 .074-.07l4.833-2.796a.2.2 0 0 1 .1-.025q.053 0 .1.025l4.833 2.755a.2.2 0 0 1 .074.073.2.2 0 0 1 .029.101.2.2 0 0 1-.027.097.2.2 0 0 1-.071.072l-4.838 2.79a.2.2 0 0 1-.1.025.2.2 0 0 1-.1-.025l-4.833-2.754a.2.2 0 0 1-.072-.067" style="fill:#455a64;fill:color(display-p3 .2706 .3529 .3922);fill-opacity:1"/><path fill="#E0E0E0" d="m121.88 188.279-.348.205a.2.2 0 0 0-.1.077.21.21 0 0 0 0 .241q.039.054.1.076l17.05 9.841a.73.73 0 0 0 .686 0l.348-.2a.21.21 0 0 0 0-.399l-17.044-9.841a.77.77 0 0 0-.692 0M119.771 189.503l-.353.2a.2.2 0 0 0-.1.077.21.21 0 0 0 0 .24.2.2 0 0 0 .1.077l17.044 9.846a.77.77 0 0 0 .686 0l.354-.205a.2.2 0 0 0 .1-.077.21.21 0 0 0 0-.24.2.2 0 0 0-.1-.077l-17.045-9.841a.74.74 0 0 0-.686 0M117.667 190.712l-.348.205a.2.2 0 0 0-.1.076.21.21 0 0 0 0 .241.2.2 0 0 0 .1.077l17.044 9.84a.74.74 0 0 0 .686 0l.353-.199a.2.2 0 0 0 .106-.077.21.21 0 0 0 0-.246.2.2 0 0 0-.106-.077l-17.044-9.84a.79.79 0 0 0-.691 0" style="fill:#e0e0e0;fill:color(display-p3 .8784 .8784 .8784);fill-opacity:1"/><path fill="#F7921E" d="m113.448 187.819.374-1.506 1.121-.092-.21.86 6.17-.512-.159.651z" style="fill:#f7921e;fill:color(display-p3 .9686 .5725 .1176);fill-opacity:1"/><path fill="#455A64" d="m105.932 189.38-4.439 2.56 4.439 2.525 4.439-2.56zm-5.008 2.663a.2.2 0 0 1 0-.098q0-.053.026-.1a.2.2 0 0 1 .072-.074l4.838-2.79a.188.188 0 0 1 .195 0l4.838 2.755q.046.025.072.071a.2.2 0 0 1 .025.098.2.2 0 0 1-.097.174l-4.838 2.79a.19.19 0 0 1-.195 0l-4.838-2.749a.2.2 0 0 1-.098-.077" style="fill:#455a64;fill:color(display-p3 .2706 .3529 .3922);fill-opacity:1"/><path fill="#E0E0E0" d="m113.018 193.4-.353.205a.2.2 0 0 0-.1.076.21.21 0 0 0 0 .241.2.2 0 0 0 .1.077l17.044 9.84a.74.74 0 0 0 .686 0l.353-.199c.19-.113.19-.292 0-.4l-17.044-9.84a.77.77 0 0 0-.686 0M110.903 194.618l-.348.205a.21.21 0 0 0-.1.317q.039.054.1.077l17.039 9.841a.76.76 0 0 0 .692 0l.348-.2a.21.21 0 0 0 .145-.2.21.21 0 0 0-.145-.199l-17.045-9.841a.77.77 0 0 0-.686 0M108.804 195.832l-.353.205a.2.2 0 0 0-.1.077.21.21 0 0 0 0 .24.2.2 0 0 0 .1.077l17.044 9.841a.75.75 0 0 0 .686 0l.354-.2a.21.21 0 0 0 0-.4l-17.045-9.84a.77.77 0 0 0-.686 0" style="fill:#e0e0e0;fill:color(display-p3 .8784 .8784 .8784);fill-opacity:1"/><path fill="#F7921E" d="m104.467 193.149.374-1.506 1.121-.092-.215.855 6.175-.507-.164.646z" style="fill:#f7921e;fill:color(display-p3 .9686 .5725 .1176);fill-opacity:1"/><path fill="#37474F" d="m154.72 180.569-2.145-1.69a1.4 1.4 0 0 1-.123-.174l.061-.061.512-.487 1.664-1.536a.42.42 0 0 0 .159-.322v-.645a.68.68 0 0 0-.189-.431 1.7 1.7 0 0 1-.348-.824 1.33 1.33 0 0 1 .394-.758 1.73 1.73 0 0 0 .619-1.653 1.757 1.757 0 0 0-1.075-1.915 3.7 3.7 0 0 0-1.638-.395h-.072a3.7 3.7 0 0 0-2.468.876 3.24 3.24 0 0 1-1.602.609 4.6 4.6 0 0 1-1.475 0 3 3 0 0 0-.338-.036h-.036a.88.88 0 0 0-.681.221l-1.433 1.331-.512.486h-.026a1.315 1.315 0 0 1-1.208.174c-.789-.333-1.162-.512-2.448-1.101a2.9 2.9 0 0 0-1.182-.24 3.9 3.9 0 0 0-1.731.435v.645l17.741 10.24a1.54 1.54 0 0 0 .338-.886v-.583a1.78 1.78 0 0 0-.758-1.28m-3.661-8.945a2.42 2.42 0 0 1 2.32-.41q.126.045.245.108c.284.135.509.37.63.66a1.2 1.2 0 0 1-.343.512 2 2 0 0 1-.712.41 2.46 2.46 0 0 1-1.863-.113.6.6 0 0 1-.61-.462.6.6 0 0 1 .043-.405.6.6 0 0 1 .29-.285z" style="fill:#37474f;fill:color(display-p3 .2157 .2784 .3098);fill-opacity:1"/><path fill="#455A64" d="m137.374 172.5 17.74 10.24c.482-.656.512-1.337-.394-2.171l-2.145-1.69s-.466-.512-.062-.881l.512-.486 1.664-1.536s.379-.266-.03-.753c-.41-.486-.605-1.633.046-2.227 1.024-.942.824-2.247-.456-2.923a3.7 3.7 0 0 0-1.638-.395h-.072a3.7 3.7 0 0 0-2.468.876 3.24 3.24 0 0 1-1.602.609 4.6 4.6 0 0 1-1.475 0 3 3 0 0 0-.338-.036h-.036a.88.88 0 0 0-.681.221l-1.433 1.331-.512.486h-.026a1.315 1.315 0 0 1-1.208.174c-.789-.333-1.162-.512-2.448-1.101a2.9 2.9 0 0 0-1.182-.24 3.9 3.9 0 0 0-1.756.502m16.005-1.931q.126.048.245.113a1.03 1.03 0 0 1 .691.811 1.02 1.02 0 0 1-.404.986 2.05 2.05 0 0 1-.712.41 2.47 2.47 0 0 1-1.863-.113 1.03 1.03 0 0 1-.457-.311 1.03 1.03 0 0 1 .18-1.486 2.43 2.43 0 0 1 1.107-.507 2.4 2.4 0 0 1 1.213.097" style="fill:#455a64;fill:color(display-p3 .2706 .3529 .3922);fill-opacity:1"/></svg>