<svg xmlns="http://www.w3.org/2000/svg" width="257" height="256" fill="none"><path stroke="#D5D5D5" d="M47.06 222.837c-22.474-11.768-33.56-27.116-33.56-42.333s11.084-30.568 33.56-42.341C69.524 126.397 99 120.5 128.502 120.5c29.503 0 58.977 5.897 81.439 17.663 22.473 11.773 33.558 27.122 33.559 42.337s-11.083 30.564-33.559 42.337C187.476 234.603 158.002 240.5 128.5 240.5s-58.976-5.897-81.44-17.663Z" style="stroke:#d5d5d5;stroke:color(display-p3 .8353 .8353 .8353);stroke-opacity:1"/><path fill="#E0E0E0" d="M33.815 80.805V55.59a.53.53 0 0 1 .185-.342L33.194 55a.5.5 0 0 0-.194.342v25.214q0 .068.065.126a.44.44 0 0 0 .177.087l.742.231a.34.34 0 0 1-.129-.086.15.15 0 0 1-.04-.11" style="fill:#e0e0e0;fill:color(display-p3 .8784 .8784 .8784);fill-opacity:1"/><path fill="#F5F5F5" d="M34.129 81h-.056l-.042-.04-.03-.045V55.54a1 1 0 0 1 0-.075v-.121l.022-.04a.4.4 0 0 1 .038-.08l.042-.07.072-.085a.4.4 0 0 1 .098-.08l16.485-9.967.047-.022h.114l.043.027.038.066v25.375a.4.4 0 0 1-.021.134v.094l-.026.053-.03.058-.05.075a.8.8 0 0 1-.149.142l-15.942 9.647-.56.311h-.11zm1.5-24.498v21.423l13.734-8.311V48.19z" style="fill:#f5f5f5;fill:color(display-p3 .9608 .9608 .9608);fill-opacity:1"/><path fill="#E0E0E0" d="M50.873 45.076v25.378q.005.06 0 .12v.187a.2.2 0 0 1 0 .036l-.026.036v.026a.6.6 0 0 1-.114.103l-15.925 9.65-.585.388h-.114V55.59a.4.4 0 0 1 0-.066.1.1 0 0 1 0-.04v-.112a.4.4 0 0 1 .03-.058s.025-.049.046-.08l.021-.026.026-.027a.3.3 0 0 1 .08-.062l16.43-9.994h.101m-15.29 33 .144-.09 13.621-8.257.047-.027V48.147l-.144.09-.352.213-13.24 8.066-.046.031v21.55M50.873 45h-.085l-.055.027-16.467 9.967a1 1 0 0 0-.098.08l-.03.031-.02.027-.026.026a1 1 0 0 0-.047.076 1 1 0 0 0-.042.08v.063a.4.4 0 0 0 0 .066.3.3 0 0 0 0 .085v25.29a.2.2 0 0 0 0 .053.1.1 0 0 1 0 .027h.19a.1.1 0 0 0 .051-.023l.538-.32 15.96-9.446q.08-.047.139-.12l.025-.036.03-.036.026-.04a.2.2 0 0 0 0-.04v-.044l.033-.09v-.044a.6.6 0 0 0 0-.147V45.178a.1.1 0 0 0 0-.031.1.1 0 0 0 0-.027.2.2 0 0 0 0-.044.1.1 0 0 0 0-.023h-.03zM35.68 77.884v-21.3l13.266-8.045.355-.218v21.323z" style="fill:#e0e0e0;fill:color(display-p3 .8784 .8784 .8784);fill-opacity:1"/><path fill="#fff" d="M49 48v20.937L36 77V56.063z" style="fill:#fff;fill-opacity:1"/><path fill="#E0E0E0" d="M48.905 48.174v20.705L36.09 76.826V56.121zM49 48l-13 8.063V77l13-8.063zM34.308 80.971 36 78l-2 2.872a.24.24 0 0 0 .098.094.3.3 0 0 0 .142.034zM34 55.417 36 57l-1.818-2c-.085.12-.147.263-.182.417M50.999 45.16v-.155h-.017a.1.1 0 0 0-.04 0 .1.1 0 0 0-.054 0L50 48zM51 69.763 50 69l.902 1a.7.7 0 0 0 .098-.237" style="fill:#e0e0e0;fill:color(display-p3 .8784 .8784 .8784);fill-opacity:1"/><path fill="#F0F0F0" d="m50.776 45.299-17.1 10.43a.7.7 0 0 0-.236.271l-.44-.265a.74.74 0 0 1 .233-.266l17.103-10.431a.23.23 0 0 1 .25 0l.414.247a.25.25 0 0 0-.224.014M50 69.227 36 78v-.459L49.634 69z" style="fill:#f0f0f0;fill:color(display-p3 .9412 .9412 .9412);fill-opacity:1"/><path fill="#E0E0E0" d="M50 48v21l-1-.21V48.215zM42.506 61.969c1.582-.915 2.865-3.359 2.865-5.464s-1.283-3.077-2.865-2.158c-1.583.918-2.87 3.353-2.87 5.481s1.287 3.05 2.87 2.14m4.973 1.934c-.291-1.644-1.495-2.242-2.888-1.442l-4.175 2.404c-1.393.8-2.597 2.787-2.888 4.766l-.511 3.48c-.101.691.264 1.078.75.796l9.478-5.455a1.81 1.81 0 0 0 .745-1.657z" style="fill:#e0e0e0;fill:color(display-p3 .8784 .8784 .8784);fill-opacity:1"/><path fill="#F0F0F0" d="M46.487 80.109 38.509 85 38 84.586v-2.668l.509-1.027L46.487 76l.513.414v2.668z" style="fill:#f0f0f0;fill:color(display-p3 .9412 .9412 .9412);fill-opacity:1"/><path fill="#E0E0E0" d="M33.815 119.814V94.59A.53.53 0 0 1 34 94.25L33.194 94a.5.5 0 0 0-.194.342v25.218q.002.068.067.124a.44.44 0 0 0 .175.085l.742.231a.4.4 0 0 1-.126-.081.15.15 0 0 1-.043-.105" style="fill:#e0e0e0;fill:color(display-p3 .8784 .8784 .8784);fill-opacity:1"/><path fill="#F5F5F5" d="m34.124 120-.055-.022-.038-.035-.03-.033V95.224a1 1 0 0 1 0-.074l.026-.117.021-.038a.3.3 0 0 1 .038-.079l.043-.069.072-.082a.6.6 0 0 1 .097-.078L50.758 85h.17l.038.026.034.06v24.685a.4.4 0 0 1-.021.131v.095l-.021.043-.034.061-.051.074a.7.7 0 0 1-.149.138l-15.946 9.384-.56.286h-.111zm1.502-23.832v20.841l13.737-8.085V88.082z" style="fill:#f5f5f5;fill:color(display-p3 .9608 .9608 .9608);fill-opacity:1"/><path fill="#E0E0E0" d="M50.873 85.095v24.663a1 1 0 0 1 0 .112v.2l-.026.034v.026a.5.5 0 0 1-.114.099l-15.925 9.377-.585.394h-.114V95.303a.3.3 0 0 1 0-.065.1.1 0 0 1 0-.039v-.108l.03-.056c0-.022.025-.048.046-.078l.021-.026.017-.06a.3.3 0 0 1 .08-.061l16.439-9.667h.068m-15.29 32.063.143-.087 13.622-8.023.046-.026V88.08l-.144.086-.351.208-13.207 7.816-.046.03v20.938M50.873 85h-.085l-.055.026-16.467 9.706a1 1 0 0 0-.098.078l-.03.03-.02.026-.026.026-.047.074a1 1 0 0 0-.042.077v.083a.4.4 0 0 0 0 .064.3.3 0 0 0 0 .082v24.573a.2.2 0 0 0 0 .051.1.1 0 0 1 0 .026h.241l.538-.316 15.96-9.216q.08-.046.14-.118l.025-.029.03-.04.025-.039a.2.2 0 0 0 0-.039v-.043l.034-.086v-.039a.6.6 0 0 0 0-.138V85.195a.1.1 0 0 0 0-.03.1.1 0 0 0 0-.027.1.1 0 0 0 0-.043.1.1 0 0 0 0-.022h-.03zM35.68 117.007V96.276l13.266-7.816.355-.212v20.718l-13.62 8.024z" style="fill:#e0e0e0;fill:color(display-p3 .8784 .8784 .8784);fill-opacity:1"/><path fill="#fff" d="M49 88v20.937L36 117V96.063z" style="fill:#fff;fill-opacity:1"/><path fill="#E0E0E0" d="M48.905 88.174v20.718l-12.814 7.934V96.121zM49 88l-13 8.063V117l13-8.063zM34.3 119.991 36 117l-2 2.871a.25.25 0 0 0 .098.094.3.3 0 0 0 .143.035zM34 94.412 36 96l-1.818-2a1.2 1.2 0 0 0-.182.412M50.999 85.157v-.153h-.018a.1.1 0 0 0-.043 0 .1.1 0 0 0-.055 0L50 88zM51 109.764 50 109l.902 1a.7.7 0 0 0 .098-.236" style="fill:#e0e0e0;fill:color(display-p3 .8784 .8784 .8784);fill-opacity:1"/><path fill="#F0F0F0" d="m50.776 84.272-17.1 9.482a.7.7 0 0 0-.236.246l-.44-.241a.7.7 0 0 1 .233-.242l17.103-9.483a.24.24 0 0 1 .25 0c.058.034.344.19.414.225a.27.27 0 0 0-.224.013M50 108.232 36 117v-.459L49.634 108z" style="fill:#f0f0f0;fill:color(display-p3 .9412 .9412 .9412);fill-opacity:1"/><path fill="#E0E0E0" d="M50 88v21l-1-.215v-20.57zM42.506 101.367c1.583-.96 2.866-3.526 2.866-5.737 0-2.21-1.283-3.23-2.866-2.266-1.583.965-2.87 3.522-2.87 5.732s1.287 3.194 2.87 2.271m4.973 2.031c-.29-1.726-1.494-2.354-2.887-1.514l-4.176 2.525c-1.393.84-2.597 2.926-2.888 5.003l-.511 3.655c-.102.725.264 1.131.75.836l9.479-5.728c.258-.195.463-.457.594-.761s.183-.638.15-.97z" style="fill:#e0e0e0;fill:color(display-p3 .8784 .8784 .8784);fill-opacity:1"/><path fill="#F0F0F0" d="M46.487 120.133 38.509 125l-.509-.411v-2.655l.509-1.036L46.487 116l.513.411v2.655z" style="fill:#f0f0f0;fill:color(display-p3 .9412 .9412 .9412);fill-opacity:1"/><path fill="#F5F5F5" d="m58.129 66-.06-.022-.038-.026-.03-.038V41.249a.4.4 0 0 1 0-.074c0-.021.03-.116.03-.116v-.043l.039-.074a.4.4 0 0 1 .046-.07l.068-.081a1 1 0 0 1 .098-.083l16.472-9.686.047-.022h.123l.038.022.034.065V55.76a.5.5 0 0 1 0 .13v.09l-.021.048-.034.06-.051.07a.6.6 0 0 1-.148.138l-15.94 9.384-.537.311h-.106zm1.5-23.795v20.832l13.726-8.082V34.098z" style="fill:#f5f5f5;fill:color(display-p3 .9608 .9608 .9608);fill-opacity:1"/><path fill="#E0E0E0" d="M74.85 31.1h.021v24.714a.5.5 0 0 1 0 .117v.181l-.025.03-.026.04-.02.026a.4.4 0 0 1-.115.095L58.73 65.689l-.534.311h-.089V41.316a.4.4 0 0 1 0-.065.1.1 0 0 1 0-.04v-.064l.026-.052a.5.5 0 0 1 .05-.073v-.026l.026-.022a.5.5 0 0 1 .08-.065l16.434-9.675h.072m-15.29 32.063.144-.087 13.621-8.023.051-.03V34.084l-.144.082-.356.212-13.21 7.816-.05.026v20.943M74.85 31h-.102l-.05.026-16.434 9.728a.7.7 0 0 0-.123.103l-.025.026-.026.03-.046.074-.042.082a.2.2 0 0 1 0 .04v.068a1 1 0 0 0 0 .083v24.623h.03a.1.1 0 0 0 .046 0h.115l.05-.021.538-.312 15.925-9.381a.7.7 0 0 0 .135-.117l.026-.035.03-.039.025-.034a.2.2 0 0 0 0-.044l.021-.038.034-.087v-.043a.6.6 0 0 0 .021-.143V31.238a.1.1 0 0 0 0-.04.1.1 0 0 0 0-.03v-.03a.2.2 0 0 0-.02-.043.1.1 0 0 0 0-.021h-.102zM59.658 63.007V42.276l13.265-7.816.356-.207v20.713L59.658 62.99z" style="fill:#e0e0e0;fill:color(display-p3 .8784 .8784 .8784);fill-opacity:1"/><path fill="#fff" d="M74 34v20.216L60 62V41.784z" style="fill:#fff;fill-opacity:1"/><path fill="#E0E0E0" d="M73.897 34.172V54.16l-13.794 7.672V41.84zM74 34l-14 7.784V62l14-7.784zM58.296 65.996 60 63l-2 2.871q.031.06.095.095a.3.3 0 0 0 .142.034zM58 41.224 60 42l-1.818-1a.6.6 0 0 0-.182.224M74.999 31.092v-.024a.1.1 0 0 0 0-.02v-.019l-.012-.027h-.017a.1.1 0 0 0-.041 0 .14.14 0 0 0-.053.014L74 33zM75 55.763 74 55l.902 1a.7.7 0 0 0 .098-.237" style="fill:#e0e0e0;fill:color(display-p3 .8784 .8784 .8784);fill-opacity:1"/><path fill="#F0F0F0" d="M74.784 31.28 58.64 40.76a.65.65 0 0 0-.225.24L58 40.76a.7.7 0 0 1 .225-.254l16.151-9.462a.23.23 0 0 1 .233-.021l.391.228a.22.22 0 0 0-.216.03M74 55.202 60 63v-.407L73.634 55z" style="fill:#f0f0f0;fill:color(display-p3 .9412 .9412 .9412);fill-opacity:1"/><path fill="#E0E0E0" d="M67.515 47.568c1.586-.864 2.872-3.186 2.872-5.187 0-2-1.286-2.923-2.872-2.054-1.587.869-2.873 3.19-2.873 5.19s1.264 2.92 2.873 2.051m4.984 1.842c-.291-1.562-1.498-2.134-2.89-1.37l-4.19 2.284c-1.395.76-2.602 2.648-2.89 4.527l-.512 3.303c-.101.656.26 1.023.747.76l9.48-5.182a1.74 1.74 0 0 0 .597-.692c.131-.277.183-.581.149-.883z" style="fill:#e0e0e0;fill:color(display-p3 .8784 .8784 .8784);fill-opacity:1"/><path fill="#F0F0F0" d="M71.49 65.116 63.51 70l-.51-.413v-2.664c.2-.404.309-.635.51-1.039L71.49 61l.51.413v2.664c-.2.404-.313.63-.51 1.039" style="fill:#f0f0f0;fill:color(display-p3 .9412 .9412 .9412);fill-opacity:1"/><path fill="#E0E0E0" d="M223.186 80.805V55.59a.53.53 0 0 0-.186-.342l.806-.248c.12.102.188.22.194.342v25.214q0 .068-.065.126a.4.4 0 0 1-.178.087l-.741.231a.3.3 0 0 0 .129-.086.15.15 0 0 0 .041-.11" style="fill:#e0e0e0;fill:color(display-p3 .8784 .8784 .8784);fill-opacity:1"/><path fill="#F5F5F5" d="M222.875 81h-.081l-.538-.325-15.955-9.657a.6.6 0 0 1-.123-.106l-.055-.072-.022-.04-.042-.075-.03-.08h.034l-.042-.027a.4.4 0 0 1-.021-.134V45.045l.038-.045h.101l.077.036 16.49 9.972a.4.4 0 0 1 .088.072l.034.035.034.045.056.084a.4.4 0 0 1 .038.08l.042.112v.049a.3.3 0 0 1 0 .075v25.378l-.03.035-.038.027h-.055m-15.217-11.393 13.745 8.317V56.486l-13.745-8.316z" style="fill:#f5f5f5;fill:color(display-p3 .9608 .9608 .9608);fill-opacity:1"/><path fill="#E0E0E0" d="M206.125 45.098h.102l16.477 9.948q.05.03.089.075l.03.031.08-.053-.059.08.039.067.033.075v.053a.1.1 0 0 1 0 .04.4.4 0 0 1 0 .067v25.301h-.119l-.534-.324-15.956-9.637a.6.6 0 0 1-.114-.102l-.022-.027-.026-.035-.024-.04v-.032l-.022-.04v-.116a1 1 0 0 1 0-.12V45.205l.022-.048h.024m15.32 32.95V56.521l-.047-.03-13.316-8.024-.352-.213-.144-.09v21.524l.046.026 13.647 8.246.145.089M206.125 45h-.081l-.021.022a.14.14 0 0 0-.022.045V70.42q.002.075.022.147v.133l.021.044v.04l.025.04.03.036.026.035q.06.074.14.12l15.951 9.642.539.32a.14.14 0 0 0 .051.022h.191a.1.1 0 0 1 0-.027.2.2 0 0 0 0-.053V55.597a.3.3 0 0 0 0-.085.4.4 0 0 0 0-.066v-.062a1 1 0 0 0-.09-.156l-.024-.027-.022-.026-.03-.032a1 1 0 0 0-.097-.08l-16.477-10.019-.056-.026h-.085zm15.221 32.893-13.647-8.263V48.338l.356.218 13.291 8.032v21.305" style="fill:#e0e0e0;fill:color(display-p3 .8784 .8784 .8784);fill-opacity:1"/><path fill="#fff" d="M208 48v20.937L222 77V56.063z" style="fill:#fff;fill-opacity:1"/><path fill="#E0E0E0" d="m208.103 48.174 13.798 7.947v20.705l-13.798-7.947zM208 48v20.937L222 77V56.063zM222.85 80.992 222 78l1 2.871a.23.23 0 0 1-.049.094q-.033.035-.071.035zM224 55.417 222 57l1.817-2c.086.12.147.263.183.417M206.001 45.157v-.097a.1.1 0 0 1 .013-.036l.012-.02h.017a.1.1 0 0 1 .042 0 .1.1 0 0 1 .054 0L207 48zM206 69.763l1-.763-.902 1a.7.7 0 0 1-.098-.237" style="fill:#e0e0e0;fill:color(display-p3 .8784 .8784 .8784);fill-opacity:1"/><path fill="#F0F0F0" d="m206.224 45.299 17.099 10.43c.099.068.18.161.237.271l.44-.265a.76.76 0 0 0-.233-.266l-17.103-10.431a.23.23 0 0 0-.251 0l-.413.247a.25.25 0 0 1 .224.014M207 69.227 222 78v-.459L207.392 69z" style="fill:#f0f0f0;fill:color(display-p3 .9412 .9412 .9412);fill-opacity:1"/><path fill="#E0E0E0" d="M207 48v21l1-.21V48.215zM217.37 59.814c0-2.11-1.285-4.559-2.864-5.47-1.58-.912-2.86.052-2.86 2.162s1.28 4.558 2.86 5.474 2.864-.079 2.864-2.166m-8.36 7.002a1.81 1.81 0 0 0 .743 1.66l9.482 5.431c.484.282.849-.105.748-.797l-.51-3.488c-.291-1.982-1.492-3.964-2.883-4.774l-4.166-2.392c-1.39-.801-2.592-.202-2.882 1.445z" style="fill:#e0e0e0;fill:color(display-p3 .8784 .8784 .8784);fill-opacity:1"/><path fill="#F0F0F0" d="M210.513 80.109 218.491 85l.509-.414v-2.668l-.509-1.027L210.513 76l-.513.414v2.668z" style="fill:#f0f0f0;fill:color(display-p3 .9412 .9412 .9412);fill-opacity:1"/><path fill="#E0E0E0" d="M223.186 119.814V94.59a.53.53 0 0 0-.186-.341l.806-.249c.12.102.188.22.194.342v25.218a.18.18 0 0 1-.066.124.5.5 0 0 1-.175.085l-.743.231a.4.4 0 0 0 .126-.081.15.15 0 0 0 .044-.105" style="fill:#e0e0e0;fill:color(display-p3 .8784 .8784 .8784);fill-opacity:1"/><path fill="#F5F5F5" d="M222.859 119.999h-.081l-.539-.316-15.959-9.384a.7.7 0 0 1-.123-.108l-.055-.07-.022-.039-.038-.065v-.047l-.042-.026.026-.021v-.035a.4.4 0 0 1-.022-.13V85.043l.038-.043h.179l16.493 9.695q.048.03.089.07l.034.034.034.044.055.082q.025.036.039.078l.033.086v.07a.3.3 0 0 1 0 .073v24.676l-.029.043-.038.026h-.039zm-15.221-11.076 13.748 8.085V96.167l-13.748-8.085z" style="fill:#f5f5f5;fill:color(display-p3 .9608 .9608 .9608);fill-opacity:1"/><path fill="#E0E0E0" d="M206.125 85.087h.102l16.476 9.681q.052.025.09.07l.03.03.08-.052-.059.078.039.065.033.073v.073a.1.1 0 0 1 0 .04.4.4 0 0 1 0 .064v24.614h-.119l-.534-.316-15.956-9.375a.5.5 0 0 1-.114-.1l-.022-.026-.026-.034-.024-.039v-.16a.5.5 0 0 1 0-.112v-24.47l.02-.048h.026m15.319 32.055v-20.99l-.046-.03-13.338-7.805-.352-.208-.144-.086v20.937l.046.027 13.647 8.02.145.087M206.125 85h-.081l-.021.022a.1.1 0 0 0-.022.043v24.669a.6.6 0 0 0 .022.139v.125l.021.043v.039l.025.039.03.039.026.03a.5.5 0 0 0 .14.117l15.951 9.379.539.316h.242a.1.1 0 0 1 0-.026.2.2 0 0 0 0-.052v-24.63a.3.3 0 0 0 0-.083.4.4 0 0 0 0-.065v-.082a1 1 0 0 0-.042-.078l-.048-.073-.024-.026-.022-.026-.03-.03a1 1 0 0 0-.098-.078l-16.477-9.716-.055-.026h-.085zm15.221 31.998-13.647-8.047V88.239l.356.212 13.291 7.813v20.734" style="fill:#e0e0e0;fill:color(display-p3 .8784 .8784 .8784);fill-opacity:1"/><path fill="#fff" d="M208 88v20.937L222 117V96.063z" style="fill:#fff;fill-opacity:1"/><path fill="#E0E0E0" d="m208.103 88.174 13.798 7.947v20.705l-13.798-7.934V88.188m-.103-.175v20.924L222 117V96.063L208 88zM222.85 119.991 222 117l1 2.871a.24.24 0 0 1-.049.094q-.033.035-.071.035zM224 94.417 222 96l1.817-2c.085.121.146.263.183.417M206.001 85.157v-.093a.2.2 0 0 1 .012-.04l.013-.02h.017a.1.1 0 0 1 .042 0 .1.1 0 0 1 .054 0L207 88zM206 109.764l1-.764-.902 1a.7.7 0 0 1-.098-.236" style="fill:#e0e0e0;fill:color(display-p3 .8784 .8784 .8784);fill-opacity:1"/><path fill="#F0F0F0" d="m206.224 84.272 17.099 9.482a.7.7 0 0 1 .237.246l.44-.241a.7.7 0 0 0-.233-.242l-17.103-9.483a.25.25 0 0 0-.251 0c-.056.034-.343.19-.413.225a.27.27 0 0 1 .224.013M207 108.232 222 117v-.459L207.392 108z" style="fill:#f0f0f0;fill:color(display-p3 .9412 .9412 .9412);fill-opacity:1"/><path fill="#E0E0E0" d="M207 88v21l1-.215v-20.57zM217.387 99.093c0-2.211-1.288-4.778-2.87-5.734-1.583-.955-2.866.06-2.866 2.267s1.283 4.778 2.866 5.738c1.582.961 2.87-.06 2.87-2.27m-8.377 7.34c-.034.333.017.67.148.975.131.306.337.57.597.766l9.479 5.729c.485.295.851-.111.749-.836l-.512-3.656c-.29-2.077-1.494-4.155-2.887-5.004l-4.175-2.526c-1.393-.84-2.596-.212-2.887 1.514z" style="fill:#e0e0e0;fill:color(display-p3 .8784 .8784 .8784);fill-opacity:1"/><path fill="#F0F0F0" d="m210.513 120.133 7.978 4.867.509-.411v-2.655l-.509-1.036-7.978-4.898-.513.411v2.655z" style="fill:#f0f0f0;fill:color(display-p3 .9412 .9412 .9412);fill-opacity:1"/><path fill="#F5F5F5" d="M198.841 65.998h-.038a.1.1 0 0 1-.038 0l-.538-.312-15.922-9.38a.5.5 0 0 1-.123-.109l-.055-.065-.021-.034-.038-.07-.021-.047-.047-.026h.03v-.035a.5.5 0 0 1 0-.13V31.049l.034-.048h.135l.047.022 16.473 9.692q.047.028.088.065l.03.034.038.044a1 1 0 0 1 .055.086c0 .026.03.052.038.074l.03.09a.4.4 0 0 1 0 .07.3.3 0 0 1 0 .073v24.661l-.026.04h-.076zM183.66 54.93l13.712 8.08V42.183l-13.712-8.083z" style="fill:#f5f5f5;fill:color(display-p3 .9608 .9608 .9608);fill-opacity:1"/><path fill="#E0E0E0" d="M182.128 31.095h.088l16.443 9.65a.6.6 0 0 1 .089.074l.03.03.08-.052-.063.073.042.065.034.073v.173a.1.1 0 0 1 0 .039.4.4 0 0 1 0 .064v24.523h-.123l-.533-.314-15.893-9.25a.5.5 0 0 1-.114-.1.1.1 0 0 1 0-.03l-.025-.03-.026-.038v-.03l-.021-.04v-.111a.5.5 0 0 1 0-.117V31.198l.021-.047h.021m15.288 31.966V42.18l-.052-.026-13.313-7.792-.356-.21-.144-.083v20.88l.051.03 13.618 7.999.144.086M182.128 31h-.102a.04.04 0 0 0 0 .022l-.022.043v24.669a.7.7 0 0 0 0 .142v.044l.034.086.022.039q.008.023.021.043l.025.034.03.04.025.034a.7.7 0 0 0 .136.116l15.922 9.353.538.31.051.022h.114a.1.1 0 0 0 .046 0h.03V41.28a.4.4 0 0 0 0-.082v-.069a.1.1 0 0 1 0-.039l-.042-.082c0-.026-.03-.051-.046-.073l-.026-.03-.026-.026-.029-.03a1 1 0 0 0-.093-.073l-16.456-9.66a.14.14 0 0 0-.051-.026h-.085zm15.189 31.91-13.619-8.021V34.251l.357.207 13.262 7.792v20.66" style="fill:#e0e0e0;fill:color(display-p3 .8784 .8784 .8784);fill-opacity:1"/><path fill="#fff" d="M183 34v20.216L197 62V41.784z" style="fill:#fff;fill-opacity:1"/><path fill="#E0E0E0" d="m183.103 34.172 13.794 7.668v19.992l-13.794-7.672zM183 34v20.216L197 62V41.784zM198.705 65.996 197 63l2 2.871a.23.23 0 0 1-.095.095.3.3 0 0 1-.142.034zM199 41.212 197 42l1.818-1a.6.6 0 0 1 .182.212M182.001 31.092v-.063l.012-.027h.017a.1.1 0 0 1 .041 0 .14.14 0 0 1 .053.014L183 33zM182 55.763l1-.763-.902 1a.7.7 0 0 1-.098-.237" style="fill:#e0e0e0;fill:color(display-p3 .8784 .8784 .8784);fill-opacity:1"/><path fill="#F0F0F0" d="m182.217 31.28 16.144 9.48c.093.059.171.142.224.24l.415-.24a.67.67 0 0 0-.224-.237l-16.153-9.479a.22.22 0 0 0-.232-.021l-.391.228a.22.22 0 0 1 .217.03M183 55.202 197 63v-.407L183.366 55z" style="fill:#f0f0f0;fill:color(display-p3 .9412 .9412 .9412);fill-opacity:1"/><path fill="#E0E0E0" d="M192.603 45.518c0-2-1.167-4.322-2.606-5.191-1.44-.869-2.606.054-2.606 2.054s1.166 4.323 2.606 5.187 2.606-.05 2.606-2.05m-7.594 6.64c-.03.3.016.605.135.882a1.7 1.7 0 0 0 .543.692l8.62 5.182c.441.263.77-.104.677-.76l-.465-3.303c-.26-1.88-1.355-3.758-2.622-4.527l-3.801-2.284c-1.263-.764-2.357-.192-2.622 1.37z" style="fill:#e0e0e0;fill:color(display-p3 .8784 .8784 .8784);fill-opacity:1"/><path fill="#F0F0F0" d="M185.509 65.116 193.491 70l.509-.413v-2.664c-.2-.404-.309-.635-.509-1.039L185.509 61l-.509.413v2.664c.2.404.313.63.509 1.039" style="fill:#f0f0f0;fill:color(display-p3 .9412 .9412 .9412);fill-opacity:1"/><path fill="#B16668" d="M133.974 191.9 133 184l9.226.488s-.08 4.288-.175 6.714c-.057 1.435 1.949 4.074 1.949 4.074s-4.291 2.334-6.619 1.57c-2.329-.762-3.576-3.58-3.576-4.199s.169-.747.169-.747" style="fill:#b16668;fill:color(display-p3 .6941 .4 .4078);fill-opacity:1"/><path fill="#263238" d="M155.84 203.431c.143 0 .399 1.351-.352 1.951-.867.694-3.417 1.861-6.857 1.573-3.439-.288-5.326-1.164-6.731-2.128-1.406-.966-3.37-2.324-4.931-2.579-1.449-.236-3.036-.762-3.505-1.139S133 199 133 199z" style="fill:#263238;fill:color(display-p3 .149 .1961 .2196);fill-opacity:1"/><path fill="#455A64" d="M134.169 191.084a.546.546 0 0 0-.501.436c-.091.515-.159 2.011-.356 2.863-.279 1.177-.428 3.585-.202 4.532.227.947 2.571 1.541 4.054 2.033a19.1 19.1 0 0 1 4.883 2.735c1.629 1.2 5.013 2.396 7.22 2.313 2.613-.101 5.526-.999 6.164-2.181.793-1.453 1.35-3.129-2.57-4.717-.742-.301-3.359-1.671-4.25-2.181-2.417-1.348-4.125-2.618-5.291-5.087a1.4 1.4 0 0 0-.578-.75 1.3 1.3 0 0 0-.754-.044c-.643.109-3.205.528-3.787.812-.511.253-1.239.549-1.209 1.181q.028.336.163.642c.051.127.09.301-.026.38s-.261 0-.364-.088a9.5 9.5 0 0 1-1.08-1.16 3.6 3.6 0 0 0-.63-.572 7 7 0 0 1-.672-.388c-.244-.183-.197-.462-.214-.759" style="fill:#455a64;fill:color(display-p3 .2706 .3529 .3922);fill-opacity:1"/><path fill="#37474F" d="M142.129 203.715a30 30 0 0 0-2.129-1.371s4.602 2.38 6.387 1.184c1.153-.776.566-1.668.532-1.939s4.057-2.43 5.198-2.589c.324.155.593.275.763.342 3.896 1.518 3.342 3.118 2.555 4.507-.635 1.121-2.725 2.046-6.076 2.147-2.197.087-5.613-1.135-7.23-2.281" style="fill:#37474f;fill:color(display-p3 .2157 .2784 .3098);fill-opacity:1"/><path fill="#37474F" d="M146.513 200.575c2.347.842 1.372 1.316.723 1.421-.648.106-4.618-2.026-7.056-3.821-2.536-1.872-4.164-3.947-5.11-4.644-.351-.255-.731-.57-1.07-.878.05-.508.083-.973.124-1.214a.57.57 0 0 1 .171-.307.5.5 0 0 1 .313-.132c0 .298-.029.579.206.798q.315.214.649.391.336.249.607.574.475.63 1.041 1.167c2.099 2.482 7.056 5.799 9.402 6.645" style="fill:#37474f;fill:color(display-p3 .2157 .2784 .3098);fill-opacity:1"/><path fill="#263238" d="M146.294 201a.5.5 0 0 1-.184-.032.2.2 0 0 1-.072-.043.1.1 0 0 1-.036-.055.08.08 0 0 1 .008-.059.13.13 0 0 1 .049-.052c.782-.535 4.559-1.841 6.68-1.755.072.002.14.021.189.051s.075.07.072.11q-.015.063-.104.104a.44.44 0 0 1-.203.034c-1.978-.077-5.561 1.215-6.185 1.636a.3.3 0 0 1-.095.044.5.5 0 0 1-.119.017M145.208 200a.24.24 0 0 1-.127-.032.2.2 0 0 1-.053-.042.13.13 0 0 1-.027-.056.1.1 0 0 1 .007-.059.1.1 0 0 1 .036-.052c.559-.535 3.253-1.838 4.769-1.755q.04 0 .076.013t.062.036.039.052q.013.03.009.06a.15.15 0 0 1-.073.104.25.25 0 0 1-.146.034c-1.413-.078-3.973 1.212-4.415 1.636a.2.2 0 0 1-.07.044.3.3 0 0 1-.087.017M143.208 200a.2.2 0 0 1-.131-.047.3.3 0 0 1-.051-.065.2.2 0 0 1-.024-.083.25.25 0 0 1 .038-.167c.562-.805 3.258-2.761 4.774-2.632.051.004.1.03.134.076a.26.26 0 0 1 .052.166.25.25 0 0 1-.074.155.18.18 0 0 1-.145.052c-1.414-.117-3.974 1.817-4.419 2.455a.19.19 0 0 1-.154.09M141.21 198.999q-.072.007-.132-.057a.3.3 0 0 1-.051-.085.42.42 0 0 1 .015-.335c.559-1.075 3.262-3.687 4.771-3.514q.039.002.075.026.035.025.061.07.027.046.04.102a.442.442 0 0 1-.011.235.3.3 0 0 1-.049.093.2.2 0 0 1-.068.057.12.12 0 0 1-.077.009c-1.413-.149-3.979 2.433-4.42 3.285a.25.25 0 0 1-.069.085.13.13 0 0 1-.085.029M138.272 197a.3.3 0 0 1-.163-.043.2.2 0 0 1-.07-.062.2.2 0 0 1-.035-.082.2.2 0 0 1 .003-.089.2.2 0 0 1 .044-.078c1.011-1.13 4.727-2.766 6.704-2.639a.3.3 0 0 1 .097.019.3.3 0 0 1 .081.052.2.2 0 0 1 .052.076.2.2 0 0 1 .015.088.228.228 0 0 1-.097.155.24.24 0 0 1-.089.042.3.3 0 0 1-.102.008c-1.786-.111-5.344 1.462-6.225 2.463a.29.29 0 0 1-.215.09" style="fill:#263238;fill:color(display-p3 .149 .1961 .2196);fill-opacity:1"/><path fill="#B16668" d="m116.249 196.33 1.751-7.938-8.226-1.392-.282 7.659s-.839 2.747-.326 3.744c.514.998 5.986 2.051 6.487 1.392s.596-3.465.596-3.465" style="fill:#b16668;fill:color(display-p3 .6941 .4 .4078);fill-opacity:1"/><path fill="#263238" d="M116 211.711c-.269 2.328-.757 3.834-1.76 5.097s-2.798 1.478-4.574.853c-1.778-.625-4.021-1.985-4.434-4.071-.414-2.087-.243-3.464.272-5.59z" style="fill:#263238;fill:color(display-p3 .149 .1961 .2196);fill-opacity:1"/><path fill="#455A64" d="M108.967 194c-.756-.039-.562 3.12-1.157 6.197-.639 3.293-1.872 4.54-2.431 7.237-.634 3.081-.513 4.505.671 6.536s5.627 4.448 7.999 1.996c1.935-2 2.133-4.445 2.124-7.599 0-3.26-.04-5.556.239-7.997.265-2.331.968-4.405.324-4.744-.068.339-.14.771-.212 1.102-.053.257-.193 1.521-.62 1.482-.087 0-.068-.057-.028-.358a.99.99 0 0 0-.171-.784 3.55 3.55 0 0 0-1.219-.601c-.739-.214-2.058-.479-2.809-.633a17 17 0 0 0-1.134-.173 3.5 3.5 0 0 0-.964 0 .72.72 0 0 0-.45.435c-.081.436-.202.497-.31.462a.2.2 0 0 1-.091-.085.2.2 0 0 1-.022-.12c0-.379.085-.649.13-1.085 0-.205.072-.474.086-.68.014-.205.022-.388.045-.588" style="fill:#455a64;fill:color(display-p3 .2706 .3529 .3922);fill-opacity:1"/><path fill="#37474F" d="M105.586 207c-.093.417-.682 3.237.226 3.862.984.675 1.658-1.512 1.658-1.512s2.41-.334 5.805 1.325c-.204.446.248 2.042 1.214 1.824.966-.216 1.507-3.453 1.511-3.495 0 2.887-.244 5.15-2.092 7.003-2.335 2.346-6.708.051-7.874-1.908s-1.285-3.333-.66-6.249c.062-.313.129-.587.212-.85" style="fill:#37474f;fill:color(display-p3 .2157 .2784 .3098);fill-opacity:1"/><path fill="#37474F" d="M108.077 209.392c-.057 1.143-1.077.602-1.077-1.02 0-1.623.987-5.338 1.077-8.118.176-3.822.32-6.293.923-6.254v.115l-.144 1.592c-.025.229-.05.44-.061.681-.108 2.331-.132 6.865-.402 8.971a40 40 0 0 0-.316 4.033M112.047 211.192a27.4 27.4 0 0 0 1.137-4.032c.456-2.137 2.026-6.416 2.809-8.716.202-.42.339-.86.405-1.307.084-.321.161-.727.244-1.065a.3.3 0 0 1 0-.072c.555.262.372 2.115.073 3.075-.301.961-.678 1.985-1.055 3.365-.971 2.705-1.06 6.786-1.665 8.346s-2.298 1.528-1.948.406" style="fill:#37474f;fill:color(display-p3 .2157 .2784 .3098);fill-opacity:1"/><path fill="#263238" d="M112.71 210.99a.4.4 0 0 1-.091-.044c-1.619-1.059-3.464-1.533-5.305-1.363a.25.25 0 0 1-.19-.051.34.34 0 0 1-.119-.184.3.3 0 0 1 0-.109.3.3 0 0 1 .038-.1.3.3 0 0 1 .07-.07.2.2 0 0 1 .09-.029c1.971-.193 3.945.319 5.671 1.47a.24.24 0 0 1 .073.069.3.3 0 0 1 .051.208.3.3 0 0 1-.029.104.25.25 0 0 1-.117.095.22.22 0 0 1-.142.004M113.696 208.987a.3.3 0 0 1-.087-.055c-1.94-1.585-4.109-2.327-6.286-2.151-.07.011-.139-.016-.197-.076a.51.51 0 0 1-.12-.412.4.4 0 0 1 .045-.137.25.25 0 0 1 .076-.093.15.15 0 0 1 .095-.032c2.3-.203 4.591.583 6.635 2.276a.3.3 0 0 1 .08.092q.035.06.05.135a.6.6 0 0 1-.017.308.3.3 0 0 1-.124.136.18.18 0 0 1-.15.009M108.199 204.609a.23.23 0 0 1-.117-.07.3.3 0 0 1-.075-.129.3.3 0 0 1-.005-.099.25.25 0 0 1 .089-.162.2.2 0 0 1 .078-.033c2.871-.606 5.6 1.358 5.716 1.426a.2.2 0 0 1 .067.064.3.3 0 0 1 .039.09q.012.05.008.101a.3.3 0 0 1-.027.098.24.24 0 0 1-.151.101.2.2 0 0 1-.168-.042c-.027 0-2.684-1.91-5.352-1.358a.3.3 0 0 1-.102.013M108.232 202.622a.296.296 0 0 1-.22-.19.23.23 0 0 1 .02-.193.22.22 0 0 1 .156-.105 9.25 9.25 0 0 1 6.694 1.421.2.2 0 0 1 .073.067.25.25 0 0 1 .04.192.3.3 0 0 1-.04.093.271.271 0 0 1-.37.036c-.03 0-2.865-1.998-6.237-1.317a.4.4 0 0 1-.116-.004M109.199 200.306a.4.4 0 0 1-.113-.032.2.2 0 0 1-.074-.058.06.06 0 0 1-.011-.047.1.1 0 0 1 .025-.045.2.2 0 0 1 .056-.035.3.3 0 0 1 .076-.017c2.893-.347 5.622.67 5.74.712a.2.2 0 0 1 .061.032.1.1 0 0 1 .035.043.07.07 0 0 1 .003.048.1.1 0 0 1-.03.044.361.361 0 0 1-.316.022c-.028 0-2.662-.991-5.35-.667a.4.4 0 0 1-.102 0" style="fill:#263238;fill:color(display-p3 .149 .1961 .2196);fill-opacity:1"/><path fill="#37474F" d="M114.086 118.012c-1.448 18.031-2.326 42.724-2.326 42.724-.128 1.369-1.079 3.712-1.749 10.469-.701 7.123-1.011 20.168-1.011 20.168s4.94 2.584 8.875 1.239c0 0 4.518-18.117 6.565-26.51 1.935-7.941 4.093-18.681 4.093-18.681l2.068 10.835a81 81 0 0 0-.357 8.694c.16 4.186 3.178 21.654 3.178 21.654a11.27 11.27 0 0 0 8.762-.186s.908-25.61 1.041-30.645c.262-9.871 1.457-29.039.232-41.773z" style="fill:#37474f;fill:color(display-p3 .2157 .2784 .3098);fill-opacity:1"/><path fill="#263238" d="m128 146.98 2.228-14.993s5.132-.705 7.772-2.987c0 0-1.709 3.022-6.554 4.192l-2.209 11.869.991 12.939z" style="fill:#263238;fill:color(display-p3 .149 .1961 .2196);fill-opacity:1"/><path fill="#455A64" d="M109 193.032c.929 1.356 5.001 2.715 8.344 1.49l.656-2.784c-2.523.869-6.893.021-8.943-1.738zM133.459 189.195c1.259.862 5.936 1.292 9.391-.067L143 187c-2.618.984-7.427 1.027-10 .016z" style="fill:#455a64;fill:color(display-p3 .2706 .3529 .3922);fill-opacity:1"/><path fill="#263238" d="M87.79 180.14V71.55c.007-.518.07-1.024.183-1.47L87.182 69A6.4 6.4 0 0 0 87 70.479v108.597c0 .189.022.374.064.534s.103.288.174.369l.022.03.74.991a1 1 0 0 1-.154-.363 2 2 0 0 1-.055-.497" style="fill:#263238;fill:color(display-p3 .149 .1961 .2196);fill-opacity:1"/><path fill="#455A64" d="M165.17 25a1.4 1.4 0 0 0-.664.2L89.498 68.232A3.28 3.28 0 0 0 88 70.8v109.187A1.01 1.01 0 0 0 89.017 181c.165-.001.326-.041.472-.117l2.445-1.399 72.572-41.668a3.3 3.3 0 0 0 1.494-2.577V25.874a2 2 0 0 0-.026-.135.05.05 0 0 0 0-.035.7.7 0 0 0-.035-.13.7.7 0 0 0-.088-.192.2.2 0 0 0-.052-.073.14.14 0 0 0-.044-.057.4.4 0 0 0-.096-.095.82.82 0 0 0-.467-.143zM95.934 167.135v-92.04l62.092-35.647v92.031l-62.08 35.642z" style="fill:#455a64;fill:color(display-p3 .2706 .3529 .3922);fill-opacity:1"/><path fill="#37474F" d="M89.196 180.969 96 167l-8 13.398a1.063 1.063 0 0 0 .947.602.9.9 0 0 0 .249-.031M88 70.467 96 76l-7.273-7A4.1 4.1 0 0 0 88 70.467M166 26.089v-.195a1 1 0 0 0-.027-.14.04.04 0 0 0 0-.036.6.6 0 0 0-.034-.135.7.7 0 0 0-.088-.2.2.2 0 0 0-.052-.076.14.14 0 0 0-.045-.059.4.4 0 0 0-.095-.099 1 1 0 0 0-.128-.072.8.8 0 0 0-.341-.077 1.1 1.1 0 0 0-.416.086L158 40zM166 136.542 158 132l7.249 6c.358-.422.615-.921.751-1.458" style="fill:#37474f;fill:color(display-p3 .2157 .2784 .3098);fill-opacity:1"/><path fill="#37474F" d="M164.017 25.26 89.912 67.907c-.434.27-.792.647-1.04 1.094L87 67.914c.243-.439.595-.808 1.022-1.072l74.11-42.645a1.03 1.03 0 0 1 1.074-.086c.263.16 1.484.861 1.794 1.02a1.07 1.07 0 0 0-.983.13M158 131.915l-1.618-.915L96 165.164l.004 1.836z" style="fill:#37474f;fill:color(display-p3 .2157 .2784 .3098);fill-opacity:1"/><path fill="#263238" d="m96 165 7.448-4.338 7.47-4.303 14.974-8.544 15.026-8.459 7.526-4.197L156 131l-7.448 4.338-7.47 4.303-14.973 8.544-15.027 8.459-7.526 4.197zM158 40l-2 .93.005 90.141L158 132z" style="fill:#263238;fill:color(display-p3 .149 .1961 .2196);fill-opacity:1"/><path fill="#E0E0E0" d="M134 82.382c3.661-.973 4.716-.056 11.658 2.405a84 84 0 0 0 8.525 2.661s6.491 3.722 7.11 4.741c.492.807.738 1.758.704 2.721a4.87 4.87 0 0 1-.89 2.658c-.948 1.46-2.164 1.6-2.912 2.042-1.606.931-3.202-.079-4.072-.214-5.881-.93-12.239-2.261-12.239-2.261z" style="fill:#e0e0e0;fill:color(display-p3 .8784 .8784 .8784);fill-opacity:1"/><path fill="#B16668" d="M167.635 68.252c-.883-.264-.835.46-1.073.616 0 0 .561-1.071-.932-1.522-.923-.278-1.043.923-1.096.78-.022-.065.393-2.559.715-4.671.301-2.004-.481-2.368-.821-2.442s-.614.126-.981 1.618-1.445 5.96-1.705 6.896c-.261.937-.5 1.401-1.065.4-.53-.937-1.021-1.831-1.767-2.304-1.246-.79-1.909-.152-1.555.594.495 1.059.804 2.364 1.413 4.138.319.928.557 1.809.831 2.43.884 2.194-.185 3.556-1.347 5.729-.95 1.774-2.001 3.292-4.285 6.94-2.165 3.47-.442 9.976 2.677 10.457 3.565.547 4.439-1.444 5.911-5.539 1.246-3.47 2.65-9.585 3.061-11.03s.513-2.277 1.392-3.149c1.192-1.18 1.594-2.229 2.041-3.751.212-.725.628-2.07.848-3.132.221-1.063.106-1.735-.547-2.026-.884-.373-.906.5-1.004.434-.097-.065.5-1.097-.711-1.466" style="fill:#b16668;fill:color(display-p3 .6941 .4 .4078);fill-opacity:1"/><path fill="#9A4A4D" d="M167.689 73.696c-.354-.316-.259-1.071-.259-1.071a1.36 1.36 0 0 1-.503.687 1 1 0 0 1-1.221-.226 1.43 1.43 0 0 1-.063-.945 1.6 1.6 0 0 1-.585.534.85.85 0 0 1-.945-.17.8.8 0 0 1-.185-.282c-.282-.475 0-1.903.354-3.223-.279.48-.492.995-.631 1.532a3.2 3.2 0 0 0-.168 1.727 3.4 3.4 0 0 0-1.483-.723c1.334.795 2.795 3.466 2.79 5.464a4.282 4.282 0 0 0-.499-3.842.87.87 0 0 0 .98-.312 1.03 1.03 0 0 0 .839.904 1.03 1.03 0 0 0 1.107-.244s-.032.452.599.615c.63.163 1.007-.267 1.184-.904a.907.907 0 0 1-1.311.48" style="fill:#9a4a4d;fill:color(display-p3 .6039 .2902 .302);fill-opacity:1"/><path fill="#F0F0F0" d="M120.346 82.299c-4.677 1.319-6.079 1.864-8.285 2.51 0 0-4.234 4.77-.565 19.784a70 70 0 0 1 1.672 11.931c.135 3.377 0 6.731-.052 9.088 0 0 6.661 2.668 19.827.606 10.338-1.622 10.912-5.421 10.912-5.421.491-.439-.339-12.727-1.346-20.372-1.346-10.19-4.594-16.178-5.836-17.51-.383-.203-7.486-.915-7.486-.915z" style="fill:#f0f0f0;fill:color(display-p3 .9412 .9412 .9412);fill-opacity:1"/><path fill="#263238" d="M115.968 61s-1.757.313-2.669 2.557c-.48 1.131-.648 3.12 1.603 8.512a22.3 22.3 0 0 0 3.538 5.836A2.93 2.93 0 0 0 120.269 79l-.619-4.26-.518-2.962s2.529 0 2.851-4.61c.192-2.775-1.287-3.593-1.287-3.593z" style="fill:#263238;fill:color(display-p3 .149 .1961 .2196);fill-opacity:1"/><path fill="#263238" d="M115.106 61.659c-1.339-4.439 10.361-11.217 16.051-5.418 1.259-.624 3.119 1.3 2.547 2.878.949-.356 2.565 1.127 1.616 2.51-.684 1-.458 1.828.68 1.98-.089 1.391-2.476 1.59-2.937.568 0 .814-.592.433-1.209-.044-4.112-.026-8.334.646-12.481.867z" style="fill:#263238;fill:color(display-p3 .149 .1961 .2196);fill-opacity:1"/><path fill="#B16668" d="M115.212 75.427c2.014.899 2.855-.727 2.855-.727l.64 8.713c2.134 2.681 7.256 1.782 9.74 5.587h.559c.427-1.297.064-5.336-.55-6.754l-.111-2.456q.861-.075 1.707-.256a4.56 4.56 0 0 0 2.328-1.258 4.66 4.66 0 0 0 1.253-2.352c.661-2.884.448-7.468-.794-12.29-.239-.933-.679-1.941-1.541-2.334-2.134-.973-4.029.627-6.915 1.902-1.194.528-4.127.865-4.916.515 1.063 1.107.589 4.108.35 5.059-.337 1.37-.876 2.054-1.152 2.123-1.192.307-1.371-.735-1.93-1.297a2.19 2.19 0 0 0-1.94-.401c-.332.09-.639.26-.894.492a2.24 2.24 0 0 0-.581.847 3.716 3.716 0 0 0-.07 2.847c.176.455.44.87.777 1.22s.74.63 1.185.82" style="fill:#b16668;fill:color(display-p3 .6941 .4 .4078);fill-opacity:1"/><path fill="#9A4A4D" d="M122 78c.451 1.902 2.906 3.06 7 2.998l-.043-1.042a18 18 0 0 1-3.008-.168C124.02 79.529 122 78 122 78" style="fill:#9a4a4d;fill:color(display-p3 .6039 .2902 .302);fill-opacity:1"/><path fill="#263238" d="m125 66.5-1.77 1.5a1.364 1.364 0 0 1 .204-1.754c.117-.098.252-.168.395-.208a1.02 1.02 0 0 1 .851.138q.19.127.32.325M132.941 66 131 65.476a.7.7 0 0 1 .2-.242c.089-.071.199-.128.322-.168a1.398 1.398 0 0 1 .789-.017c.261.072.471.211.589.388a.55.55 0 0 1 .041.563" style="fill:#263238;fill:color(display-p3 .149 .1961 .2196);fill-opacity:1"/><path fill="#9A4A4D" d="m126.006 74 2.994.457a1.8 1.8 0 0 1-.164.649 1.6 1.6 0 0 1-.373.522 1.4 1.4 0 0 1-.523.31c-.19.061-.39.077-.586.047a1.58 1.58 0 0 1-1.015-.687 2.05 2.05 0 0 1-.333-1.298" style="fill:#9a4a4d;fill:color(display-p3 .6039 .2902 .302);fill-opacity:1"/><path fill="#F28F8F" d="M128 75.914c-.103-.572-.326-1.072-.632-1.419-.306-.346-.677-.52-1.053-.492a1.2 1.2 0 0 0-.315.08c.09.489.267.927.509 1.263.243.336.542.555.861.632.211.044.425.022.63-.064" style="fill:#f28f8f;fill:color(display-p3 .949 .5608 .5608);fill-opacity:1"/><path fill="#263238" d="M124.004 69.544c.017.098.092.191.214.268.123.077.289.134.476.164.188.03.388.032.578.005s.359-.08.487-.156c.128-.074.209-.166.233-.264s-.009-.197-.098-.285a.9.9 0 0 0-.397-.21 1.9 1.9 0 0 0-.563-.065 2 2 0 0 0-.382.052q-.18.045-.312.122a.55.55 0 0 0-.192.172.27.27 0 0 0-.044.197M131.015 68.087a1 1 0 0 0 .686.865.99.99 0 0 0 1.06-.301 1.01 1.01 0 0 0 .134-1.099.992.992 0 0 0-.956-.55.9.9 0 0 0-.718.321.91.91 0 0 0-.206.764" style="fill:#263238;fill:color(display-p3 .149 .1961 .2196);fill-opacity:1"/><path fill="#9A4A4D" d="m128 67 1.417 5L133 70.84c-1.265-1.897-3.411-3.036-5-3.84M110.16 134.853c-1.334.659-3.322-1.077-3.884-1.697s-.116-2.366.027-3.798c.142-1.433-.424-3.742 1.146-3.304 1.568.44 5.182 4.627 2.711 8.799" style="fill:#9a4a4d;fill:color(display-p3 .6039 .2902 .302);fill-opacity:1"/><path fill="#B16668" d="M112.143 85c-3.864 1.09-5.851 1.858-8.088 7.466-2.417 6.066-8.157 15.887-8.548 18.504-.364 2.433-1.472 4.282 1.486 7.528 2.705 2.969 11.746 10.651 12.965 11.767 1.073.992.949 4.243-2.34 4.189 0 0 2.735 1.906 4.053 1.485 1.142-.364 2.847-1.647 4.078-5.481.778-2.416-.33-4.094-2.258-6.422-2.305-2.784-8.272-10.751-8.272-10.751l8.221-14.569s2.957-10.194-1.297-13.716" style="fill:#b16668;fill:color(display-p3 .6941 .4 .4078);fill-opacity:1"/><path fill="#E0E0E0" d="M112.37 85c-4.126.943-5.76 1.451-9.05 7.976-3.329 6.616-7.407 14.945-8.714 18.089-1.35 3.235-.3 4.553 1.743 7.102.871 1.103 1.364.793 1.364.793l-.68-.698s1.394-3.183 4.88-4.152 4.497.323 4.497.323l.549.702s.047-.379-.528-1.185l-.654-.921s5.434-8.566 7.138-11.486 3.93-14.204-.545-16.543" style="fill:#e0e0e0;fill:color(display-p3 .8784 .8784 .8784);fill-opacity:1"/><path fill="#263238" d="M131.261 90s1.818-2.995 1.736-4.153L130.392 84 130 88.784zM129 88.917 125.624 87 123 88.847 128.143 91z" style="fill:#263238;fill:color(display-p3 .149 .1961 .2196);fill-opacity:1"/><path fill="#37474F" d="M130.943 116.166c0-11.211-1.174-20.4-1.943-23.947l1.396-.219c2.885 5.278 5.604 18.451 5.591 22.671.171 1.932-1.415 5.141-2.013 5.321s-3.031-2.567-3.031-3.826" style="fill:#37474f;fill:color(display-p3 .2157 .2784 .3098);fill-opacity:1"/><path fill="#263238" d="m130.751 92-1.751.252c.053.228.11.496.162.748a3.7 3.7 0 0 0 1.838-.554c-.083-.149-.161-.302-.249-.446" style="fill:#263238;fill:color(display-p3 .149 .1961 .2196);fill-opacity:1"/><path fill="#37474F" d="M128.751 89.149A5.7 5.7 0 0 1 130.13 89c.365.337.66.76.868 1.239a6.4 6.4 0 0 1-.408 2.429c-.212.16-.453.265-.704.308a1.55 1.55 0 0 1-.754-.056 3.4 3.4 0 0 1-1.131-1.54c-.015-.827.254-1.628.75-2.232" style="fill:#37474f;fill:color(display-p3 .2157 .2784 .3098);fill-opacity:1"/><path fill="#E0E0E0" d="m129 89.079-.238.047a9.2 9.2 0 0 0-1.839-1.31c-.433-.158-1.757 2.82-1.987 3.586-.229.766-.173.75-1.259.214a19.9 19.9 0 0 1-5.081-3.787A12.5 12.5 0 0 1 116 83.922s1.177-.826 1.553-1.78c.486-1.238.719-2.183 1.394-2.14l.082 1.095c.239.993 1.528 1.917 3.099 2.962 1.571 1.044 4.012 1.917 4.617 2.37A20.4 20.4 0 0 1 129 89.08M133.997 88.59c-.115.446-1.93-2.725-2.608-2.574-.326.063-.973 1.955-1.468 2.984h-.109c0-1.296-.001-2.405-.06-3.086a32 32 0 0 0-.633-3.291l-.119-2.53.843-.093q.19.166.344.365c.807.989 2.861 3.242 3.241 4.494.409 1.203.601 2.465.569 3.731" style="fill:#e0e0e0;fill:color(display-p3 .8784 .8784 .8784);fill-opacity:1"/><path fill="#F7921E" d="M175.991 61.373a1.4 1.4 0 0 0-.294-.795l-.51-.626a2.54 2.54 0 0 0-.256-1.969 3 3 0 0 0-.102-.13l-1.796-2.177a1.45 1.45 0 0 0-.716-.485 1.4 1.4 0 0 0-.855.015l-.694-.847a1.15 1.15 0 0 0-.552-.4l1.473-4.212c.3-.869.236-1.56-.105-1.986l-1.864-2.277a1.4 1.4 0 0 0-.648-.424 1.36 1.36 0 0 0-.766-.01c-1.38.256-2.946 1.738-3.498 3.316l-3.451 9.882c-1.515 4.346-3.767 7.506-5.017 11.161-.644 1.882-.698 4.616-.964 5.372L154 78.71l1.878 2.29 13.468-2.49 1.481-4.242c.459-1.304.989-2.356 2.685-5.785s2.588-5.997 2.479-7.11" style="fill:#f7921e;fill:color(display-p3 .9686 .5725 .1176);fill-opacity:1"/><path fill="#fff" d="M175.991 61.373a1.4 1.4 0 0 0-.294-.795l-.51-.626a2.54 2.54 0 0 0-.256-1.969 3 3 0 0 0-.102-.13l-1.796-2.177a1.45 1.45 0 0 0-.716-.485 1.4 1.4 0 0 0-.855.015l-.694-.847a1.15 1.15 0 0 0-.552-.4l1.473-4.212c.3-.869.236-1.56-.105-1.986l-1.864-2.277a1.4 1.4 0 0 0-.648-.424 1.36 1.36 0 0 0-.766-.01c-1.38.256-2.946 1.738-3.498 3.316l-3.451 9.882c-1.515 4.346-3.767 7.506-5.017 11.161-.644 1.882-.698 4.616-.964 5.372L154 78.71l1.878 2.29 13.468-2.49 1.481-4.242c.459-1.304.989-2.356 2.685-5.785s2.588-5.997 2.479-7.11" opacity=".25" style="fill:#fff;fill-opacity:1"/><path fill="#000" d="M176 61a1.45 1.45 0 0 0-1-.478q.096-.256.16-.522zM171 56.042l1.555 1.112c.156.114.26.251.302.397q.074.224 0 .449a5.5 5.5 0 0 1 1.143-.18L171.458 56a4 4 0 0 0-.458.041" opacity=".15" style="fill:#000;fill-opacity:1"/><path fill="#F7921E" d="m156 81 1.364-3.972c.264-.763.318-3.507.959-5.418 1.255-3.683 3.482-6.874 4.988-11.254l3.423-9.973c.545-1.587 2.093-3.068 3.478-3.345 1.373-.258 2.046.82 1.498 2.411l-2.552 7.41s1.611-1.21 2.782-.904c.155.032.302.096.432.188q.197.142.325.352a1.25 1.25 0 0 1 .147.946s1.402-.71 2.093.333c.69 1.044.163 2.302.163 2.302s.782 0 .891 1.118c.11 1.118-.786 3.722-2.468 7.18-1.683 3.46-2.215 4.511-2.671 5.836l-1.473 4.278z" style="fill:#f7921e;fill:color(display-p3 .9686 .5725 .1176);fill-opacity:1"/><path fill="#fff" d="M157.086 80.987a.13.13 0 0 1-.073-.069.13.13 0 0 1-.005-.102l1.076-3.07a9.8 9.8 0 0 0 .329-1.912c.109-1.24.337-2.465.679-3.66a40 40 0 0 1 2.338-5.14 50 50 0 0 0 2.881-6.409l3.574-10.18a4 4 0 0 1 .947-1.478c.42-.413.926-.724 1.478-.908a1.11 1.11 0 0 1 1.156.279 1.52 1.52 0 0 1 .114 1.508l-3.218 9.83a9.3 9.3 0 0 1 1.357-1.661c.416-.41 1.388-1.017 2.22-.9.277.064.521.23.688.468q.116.159.197.342.062.15.153.288c.175.234.556.252.919.265a1.45 1.45 0 0 1 1.073.49c.215.265.329.601.32.946q-.006.24-.057.477-.045.223-.048.45a.679.679 0 0 0 .337.626c.141.08.259.198.342.34a.97.97 0 0 1 .131.47c.074.756-.53 2.948-2.456 6.828l-.355.707c-1.524 3.07-2.037 4.104-2.509 5.45l-1.187 3.385a.14.14 0 0 1-.067.075.13.13 0 0 1-.099.006.142.142 0 0 1-.079-.171l1.191-3.385c.477-1.35.994-2.399 2.522-5.477l.35-.712c1.9-3.825 2.505-5.959 2.435-6.679a.7.7 0 0 0-.089-.347.7.7 0 0 0-.244-.256.943.943 0 0 1-.481-.85 3 3 0 0 1 .052-.51 2.6 2.6 0 0 0 .057-.45 1.16 1.16 0 0 0-.263-.77 1.2 1.2 0 0 0-.876-.4 1.36 1.36 0 0 1-1.116-.373 2 2 0 0 1-.18-.329 1.7 1.7 0 0 0-.166-.297.95.95 0 0 0-.526-.373c-.7-.1-1.598.427-2.009.828a10.5 10.5 0 0 0-1.901 2.62.13.13 0 0 1-.166.053.13.13 0 0 1-.064-.068.13.13 0 0 1-.002-.094l3.577-10.942a1.26 1.26 0 0 0-.061-1.246.853.853 0 0 0-.906-.194 3.6 3.6 0 0 0-1.362.85 3.76 3.76 0 0 0-.88 1.365l-3.569 10.18a50.5 50.5 0 0 1-2.899 6.441 40.5 40.5 0 0 0-2.316 5.11 19.5 19.5 0 0 0-.67 3.6 10 10 0 0 1-.337 1.971l-1.077 3.07a.13.13 0 0 1-.123.107.1.1 0 0 1-.057-.013" style="fill:#fff;fill-opacity:1"/><path fill="#fff" d="M159.076 69.99a.13.13 0 0 1-.068-.07.12.12 0 0 1 .004-.094c.571-1.1 2.089-2.81 3.221-4.057.349-.396.653-.737.86-.985.892-1.07 1.38-1.23 2.789-1.572 1.408-.34 3.681-1.196 3.681-1.204a.15.15 0 0 1 .08-.004.14.14 0 0 1 .071.037c.033.03.764.796-.249 2.241-.92 1.34-3.464 2.608-5.88 2.95a.14.14 0 0 1-.099-.021.1.1 0 0 1-.035-.036.1.1 0 0 1-.017-.045.119.119 0 0 1 .017-.104.14.14 0 0 1 .098-.056c2.342-.324 4.79-1.542 5.691-2.83.737-1.054.46-1.686.327-1.876-.46.169-2.379.872-3.635 1.18-1.381.337-1.799.468-2.641 1.483-.212.248-.515.594-.869.99-1.1 1.238-2.609 2.948-3.162 4.006a.14.14 0 0 1-.077.068.16.16 0 0 1-.107 0" style="fill:#fff;fill-opacity:1"/><path fill="#fff" d="M167.195 64.986a.3.3 0 0 1-.085-.059c-.148-.15-.116-.44-.08-.75.056-.484.076-.862.08-.867a.2.2 0 0 1 .012-.053.1.1 0 0 1 .028-.043.102.102 0 0 1 .085-.034q.023.001.044.015.022.012.037.034t.022.05a.2.2 0 0 1 .005.056s-.025.392-.08.88c-.021.18-.053.446 0 .485.051.039.068.048.32-.058a11 11 0 0 0 1.763-.94c.16-.203.279-.448.348-.716.07-.267.088-.55.053-.828a.16.16 0 0 1 .024-.104.11.11 0 0 1 .079-.053.1.1 0 0 1 .086.03c.024.022.04.056.044.093.041.326.019.66-.065.973a2.2 2.2 0 0 1-.42.833q-.877.58-1.824.968a.63.63 0 0 1-.476.088M164.723 65.989c-.041 0-1.07-.399-.6-1.86a.17.17 0 0 1 .093-.106.22.22 0 0 1 .153-.017.2.2 0 0 1 .121.081q.041.062.021.13c-.375 1.174.334 1.438.369 1.45a.2.2 0 0 1 .106.095.13.13 0 0 1 .014.067.13.13 0 0 1-.019.066.18.18 0 0 1-.108.091.23.23 0 0 1-.15.003M163.771 65.998a1.25 1.25 0 0 1-.589-.352.66.66 0 0 1-.177-.52q.001-.051.055-.089a.24.24 0 0 1 .132-.037c.049 0 .096.013.132.037q.053.037.054.09a.44.44 0 0 0 .105.373c.094.113.24.202.416.254.04.015.072.039.088.067a.09.09 0 0 1 .002.09.15.15 0 0 1-.082.07.3.3 0 0 1-.13.017zM163.075 69.997a.1.1 0 0 1-.044-.033.104.104 0 0 1 0-.148 6.1 6.1 0 0 0 1.758-2.733.11.11 0 0 1 .131-.08.109.109 0 0 1 .077.13 6.2 6.2 0 0 1-1.823 2.842.12.12 0 0 1-.099.022M168.047 54.987a.2.2 0 0 1-.035-.074.5.5 0 0 1 .01-.253.1.1 0 0 1 .024-.041q.013-.015.028-.013c.286-.017.566-.216.818-.58q.014-.02.027-.025a.03.03 0 0 1 .028.006.1.1 0 0 1 .025.034.522.522 0 0 1 .028.13q0 .04-.002.077a1 1 0 0 1-.013.068.2.2 0 0 1-.021.05c-.275.402-.581.62-.893.634zM167.093 55.955a.16.16 0 0 1-.068-.072.24.24 0 0 1-.025-.11c0-.049.014-.097.041-.132a.13.13 0 0 1 .101-.055 3 3 0 0 0 1.637-.562.12.12 0 0 1 .112-.017c.037.013.07.044.09.088a.3.3 0 0 1 .018.07.3.3 0 0 1-.004.074.2.2 0 0 1-.026.066.2.2 0 0 1-.042.048c-.547.401-1.159.623-1.785.647zM165.108 59.987a.15.15 0 0 1-.085-.083.26.26 0 0 1-.021-.139.22.22 0 0 1 .054-.121.12.12 0 0 1 .101-.038 2.9 2.9 0 0 0 1.628-.58.11.11 0 0 1 .109-.019.15.15 0 0 1 .087.092.26.26 0 0 1 .014.149.2.2 0 0 1-.067.118c-.547.402-1.155.62-1.776.634zM166.099 63.99a.2.2 0 0 1-.053-.04.18.18 0 0 1-.031-.193s.688-1.655 1.679-3.68a.16.16 0 0 1 .214-.058q.056.032.08.093c.016.04.016.085.002.126-.968 2.019-1.644 3.644-1.678 3.662a.18.18 0 0 1-.091.087.16.16 0 0 1-.122.002" style="fill:#fff;fill-opacity:1"/><path fill="#fff" d="M164.367 68.92a1.6 1.6 0 0 1-.291-.125.14.14 0 0 1-.071-.082.13.13 0 0 1 .015-.102.15.15 0 0 1 .09-.064.16.16 0 0 1 .113.013c.838.461 2.043.083 2.693-.794.209-.287.817-1.196 1.807-2.7a.15.15 0 0 1 .15-.065.15.15 0 0 1 .122.1.1.1 0 0 1 .003.053.1.1 0 0 1-.02.05c-.99 1.51-1.603 2.423-1.812 2.71a2.45 2.45 0 0 1-1.214.926 2.75 2.75 0 0 1-1.585.08M170.033 62.983a.1.1 0 0 1-.02-.034.204.204 0 0 1-.012-.094.2.2 0 0 1 .009-.046l.863-2.744a.1.1 0 0 1 .017-.038.1.1 0 0 1 .024-.022.04.04 0 0 1 .027-.004.05.05 0 0 1 .025.016q.012.013.02.033t.012.045a.2.2 0 0 1-.009.096s-.382 1.222-.861 2.744a.1.1 0 0 1-.018.038.1.1 0 0 1-.024.023.04.04 0 0 1-.027.003.05.05 0 0 1-.026-.016" style="fill:#fff;fill-opacity:1"/><path fill="#fff" d="M165.315 68.93c-.131-.07-.24-.225-.305-.432a.28.28 0 0 1 .016-.191.1.1 0 0 1 .032-.04.1.1 0 0 1 .038-.017.06.06 0 0 1 .039.01q.02.011.033.035.015.023.024.055s.191.591.922.118c.104-.243.656-1.58.686-2.308a.24.24 0 0 1 .037-.118q.032-.046.073-.041c.027.005.051.03.068.066a.3.3 0 0 1 .021.129c-.051.9-.723 2.455-.754 2.52q-.016.045-.045.06c-.275.23-.589.285-.885.154M170.045 58.367a.1.1 0 0 1-.028-.04.2.2 0 0 1-.015-.064.24.24 0 0 1 .026-.143.1.1 0 0 1 .023-.022c.546-.26.864 0 .947.732a.24.24 0 0 1-.026.144.1.1 0 0 1-.023.021.03.03 0 0 1-.026.004.05.05 0 0 1-.025-.02.198.198 0 0 1-.028-.088c-.025-.212-.097-.85-.789-.519a.05.05 0 0 1-.036-.005M170.053 59.409a.1.1 0 0 1-.033-.046.2.2 0 0 1-.017-.072.3.3 0 0 1 .031-.173.07.07 0 0 1 .03-.025c.669-.31.876.214.934.705a.3.3 0 0 1-.01.125q-.019.057-.051.073-.033.014-.062-.021a.2.2 0 0 1-.036-.103c-.022-.187-.089-.756-.738-.457a.05.05 0 0 1-.048-.006M173.827 59.992a.13.13 0 0 1-.064-.037.1.1 0 0 1-.029-.061.6.6 0 0 0-.091-.263.7.7 0 0 0-.207-.211 2.07 2.07 0 0 0-1.273-.135.16.16 0 0 1-.106-.02.1.1 0 0 1-.038-.034.1.1 0 0 1-.017-.044.1.1 0 0 1 .026-.09.16.16 0 0 1 .096-.049 2.3 2.3 0 0 1 1.469.18q.173.119.28.284.106.167.126.353a.1.1 0 0 1-.004.048.1.1 0 0 1-.026.042.1.1 0 0 1-.043.031.2.2 0 0 1-.054.014.1.1 0 0 1-.045-.008M172.889 60.994a.1.1 0 0 1-.039-.046.2.2 0 0 1-.02-.072 1 1 0 0 0-.039-.233.7.7 0 0 0-.092-.188c-.182-.166-.396-.21-.597-.123q-.036.008-.065-.027a.17.17 0 0 1-.036-.096.2.2 0 0 1 .002-.056.2.2 0 0 1 .014-.05.1.1 0 0 1 .026-.038.1.1 0 0 1 .033-.018.6.6 0 0 1 .371-.03c.123.03.243.1.35.207a.9.9 0 0 1 .14.272q.053.16.063.341a.23.23 0 0 1-.019.107q-.023.046-.059.055a.05.05 0 0 1-.033-.005M170.058 63.416a.16.16 0 0 1-.043-.08.45.45 0 0 1 .013-.28q.027-.058.062-.056c.304.032.602.239.87.606a.343.343 0 0 1 .038.132.4.4 0 0 1 0 .083.4.4 0 0 1-.035.14.1.1 0 0 1-.031.034.04.04 0 0 1-.034.001.1.1 0 0 1-.031-.032c-.244-.323-.514-.505-.789-.533zM170.056 64.42a.2.2 0 0 1-.042-.085.5.5 0 0 1-.006-.211.4.4 0 0 1 .02-.069.1.1 0 0 1 .029-.043.04.04 0 0 1 .033-.011c.304.031.602.237.869.603a.2.2 0 0 1 .025.058q.01.036.014.078a1 1 0 0 1 .001.086 1 1 0 0 1-.013.08c-.013.046-.033.079-.055.09q-.034.016-.064-.032c-.244-.321-.514-.505-.788-.537zM172.842 65.991a.1.1 0 0 1-.05-.052 1.83 1.83 0 0 0-.73-.647.15.15 0 0 1-.054-.08.2.2 0 0 1-.002-.107.15.15 0 0 1 .051-.083.1.1 0 0 1 .08-.02c.326.151.615.412.84.756a.197.197 0 0 1 .022.113.2.2 0 0 1-.016.056.12.12 0 0 1-.083.071.1.1 0 0 1-.058-.007M171.845 66.992a.14.14 0 0 1-.051-.052 1.7 1.7 0 0 0-.719-.643.14.14 0 0 1-.063-.08.2.2 0 0 1-.006-.116.15.15 0 0 1 .057-.086.086.086 0 0 1 .086-.007c.321.15.606.41.828.752a.194.194 0 0 1 .007.168.2.2 0 0 1-.031.043.1.1 0 0 1-.052.027.1.1 0 0 1-.056-.006M168.072 62.954a.4.4 0 0 1-.05-.147 1.6 1.6 0 0 1 .004-.567q.028-.14.071-.166.395-.148.794 0 .023-.003.044.037a.4.4 0 0 1 .037.115q.015.075.023.17a2 2 0 0 1-.011.381.7.7 0 0 1-.031.143q-.019.056-.042.073-.022.017-.046-.008-.374-.15-.751 0z" style="fill:#fff;fill-opacity:1"/><path fill="#fff" d="M167.442 68.945a.67.67 0 0 1-.369-.34 1 1 0 0 1-.072-.423.9.9 0 0 1 .121-.409.1.1 0 0 1 .065-.057.1.1 0 0 1 .082.016.1.1 0 0 1 .032.03.2.2 0 0 1 .02.043.15.15 0 0 1-.011.093.672.672 0 0 0-.045.59.5.5 0 0 0 .166.192c.069.046.148.07.229.07.321.02.642-.056.928-.22.288-.163.532-.408.709-.711.557-.832 2.704-4.248 3.504-5.761a.1.1 0 0 1 .067-.054.1.1 0 0 1 .081.012.13.13 0 0 1 .048.077.14.14 0 0 1-.012.093c-.8 1.518-2.95 4.96-3.518 5.783a2.1 2.1 0 0 1-.788.79 1.83 1.83 0 0 1-1.034.236.8.8 0 0 1-.203-.05" style="fill:#fff;fill-opacity:1"/><path fill="#fff" d="M167.615 68.946a1.03 1.03 0 0 1-.602-.563.2.2 0 0 1 0-.136c.155-.25 1.509-2.469 2.544-2.229a.537.537 0 0 1 .396.334c.268.679-.695 2.161-.808 2.328a.12.12 0 0 1-.052.052 2.3 2.3 0 0 1-1.395.246zm-.287-.61a.75.75 0 0 0 .457.344c.393.051.792-.02 1.144-.203.381-.585.906-1.618.752-2.015a.23.23 0 0 0-.071-.097.2.2 0 0 0-.11-.044c-.628-.141-1.658 1.133-2.199 2.015zM170.21 68.963a.4.4 0 0 1-.12-.148 1 1 0 0 1-.083-.233.3.3 0 0 1 0-.116c.049-.165.493-1.615.838-1.453q.047.017.084.08.037.062.054.152c.089.447-.203 1.342-.26 1.534a.2.2 0 0 1-.024.045c-.142.15-.303.206-.462.161zm-.068-.448c.031.095.078.163.133.193.121.03.244-.013.353-.126.128-.397.285-1.033.239-1.26a.08.08 0 0 0-.047-.072c-.186-.067-.506.729-.678 1.288z" style="fill:#fff;fill-opacity:1"/><path fill="#fff" d="M169.419 68.948a.6.6 0 0 1-.228-.12.54.54 0 0 1-.149-.191.9.9 0 0 1-.014-.5 1 1 0 0 1 .251-.448.1.1 0 0 1 .036-.028.14.14 0 0 1 .094-.012.1.1 0 0 1 .044.018q.02.014.032.032a.1.1 0 0 1 .017.04.1.1 0 0 1-.024.08.8.8 0 0 0-.201.35.74.74 0 0 0-.002.39.35.35 0 0 0 .131.146c.058.037.127.06.199.065a2 2 0 0 0 .828-.098 1.76 1.76 0 0 0 .679-.424c.513-.48 2.642-3.175 2.663-3.201a.1.1 0 0 1 .034-.03.14.14 0 0 1 .138.002.1.1 0 0 1 .034.03.1.1 0 0 1-.003.12c-.088.115-2.159 2.735-2.684 3.227a2 2 0 0 1-.776.485c-.301.103-.626.14-.947.108a.7.7 0 0 1-.152-.041M174.694 63.98a.14.14 0 0 1-.062-.078.2.2 0 0 1-.001-.113c.084-.184.129-.395.129-.61 0-.216-.045-.427-.129-.611a.6.6 0 0 0-.223-.22.43.43 0 0 0-.277-.048.1.1 0 0 1-.084-.026.16.16 0 0 1-.046-.095.2.2 0 0 1 .02-.108.12.12 0 0 1 .072-.061.6.6 0 0 1 .395.062.84.84 0 0 1 .319.31c.116.221.183.48.192.749a1.8 1.8 0 0 1-.167.823.1.1 0 0 1-.041.036.1.1 0 0 1-.05.01.1.1 0 0 1-.047-.02M173.812 63.995a.14.14 0 0 1-.07-.046.12.12 0 0 1-.023-.073.6.6 0 0 0-.025-.265.64.64 0 0 0-.146-.235.7.7 0 0 0-.403-.142.15.15 0 0 1-.103-.03.1.1 0 0 1-.031-.038.1.1 0 0 1-.011-.047q0-.047.038-.083a.16.16 0 0 1 .096-.036.96.96 0 0 1 .611.212c.094.092.164.2.208.316.042.117.056.24.041.361a.1.1 0 0 1-.013.045.1.1 0 0 1-.032.037.15.15 0 0 1-.101.029zM163.428 76.918l-.308.614a.4.4 0 0 1-.081.098.3.3 0 0 1-.106.053l-.434.074c-.035 0-.06 0-.075-.025a.1.1 0 0 1 0-.083l.303-.595-.56.098-.309.614a.4.4 0 0 1-.08.098.2.2 0 0 1-.101.049l-.44.078a.1.1 0 0 1-.034.009.1.1 0 0 1-.035-.01.09.09 0 0 1 0-.087l.302-.6-.369.068a.09.09 0 0 1-.09-.03.1.1 0 0 1-.011-.053q0-.027.011-.053l.136-.371a.33.33 0 0 1 .212-.186l.464-.078.414-.829-.434.078a.093.093 0 0 1-.091-.03.14.14 0 0 1 0-.107l.136-.37a.3.3 0 0 1 .091-.117.26.26 0 0 1 .121-.069l.505-.092.307-.61a.4.4 0 0 1 .081-.093.2.2 0 0 1 .102-.054l.438-.078a.078.078 0 0 1 .076.024.1.1 0 0 1 .01.045q0 .023-.01.043l-.297.586.549-.093.313-.61a.6.6 0 0 1 .076-.097.2.2 0 0 1 .101-.054l.444-.073c.035 0 .055 0 .071.024a.1.1 0 0 1 0 .083l-.293.586.368-.064a.067.067 0 0 1 .086.03.1.1 0 0 1 .013.05.1.1 0 0 1-.013.052l-.142.37a.3.3 0 0 1-.085.123.24.24 0 0 1-.122.063l-.469.083-.414.825.44-.073a.07.07 0 0 1 .048-.002q.026.008.038.03a.113.113 0 0 1 0 .102l-.142.372a.3.3 0 0 1-.086.122.24.24 0 0 1-.12.063zm-.899-.488.55-.098.419-.83-.56.098zM165.008 74.967a.3.3 0 0 1 0-.134.4.4 0 0 1 .079-.139l1.288-1.443.099-.098a.16.16 0 0 1 .09-.058l.355-.093a.05.05 0 0 1 .039.004.1.1 0 0 1 .032.031q.01.03.01.064a.2.2 0 0 1-.01.064l-1.16 4.519a.5.5 0 0 1-.07.145.2.2 0 0 1-.1.075l-.367.093a.05.05 0 0 1-.039-.002.1.1 0 0 1-.031-.033.18.18 0 0 1 0-.121l.887-3.477-.825.939a.14.14 0 0 1-.095.058.05.05 0 0 1-.039-.012.1.1 0 0 1-.027-.04z" style="fill:#fff;fill-opacity:1"/></svg>