<svg xmlns="http://www.w3.org/2000/svg" width="256" height="256" fill="none"><path stroke="#D5D5D5" d="M46.56 218.407C24.086 206.639 13 191.291 13 176.074s11.084-30.567 33.56-42.34c22.464-11.767 51.94-17.664 81.442-17.664 29.503 0 58.977 5.897 81.439 17.664 22.473 11.773 33.558 27.121 33.559 42.336s-11.083 30.564-33.559 42.337C186.976 230.174 157.502 236.07 128 236.07s-58.976-5.896-81.44-17.663Z" style="stroke:#d5d5d5;stroke:color(display-p3 .8353 .8353 .8353);stroke-opacity:1"/><path fill="#455A64" d="M153.117 22.467c-.768-.415-1.761-.353-2.846.271L41.737 85.392a8.77 8.77 0 0 0-3.072 3.384l-4.373-2.53c.958-1.817 2.315-2.436 3.497-3.122L146.333 20.46c1.137-.65 2.166-.681 2.944-.21z" style="fill:#455a64;fill:color(display-p3 .2706 .3529 .3922);fill-opacity:1"/><path fill="#263238" d="M34.907 186.988c-.957-.537-1.567-1.807-1.567-3.615v-91.73c0-2.047.144-3.886.968-5.396l4.372 2.53c-.112.204-.22.42-.327.64s-.159.353-.226.511a.3.3 0 0 0-.03.082 6 6 0 0 0-.236.62 8 8 0 0 0-.2.65 4 4 0 0 0-.122.512 9.2 9.2 0 0 0-.256 2.12v91.725c0 1.827.62 3.107 1.587 3.635z" style="fill:#263238;fill:color(display-p3 .149 .1961 .2196);fill-opacity:1"/><path fill="#37474F" d="M150.271 22.733 40.754 85.868c-2.463 1.423-3.476 3.865-3.476 7.168v92.605c0 3.287 1.996 4.793 4.459 3.374l108.544-62.663c2.463-1.419 4.459-5.238 4.459-8.52v-91.73c-.01-3.282-2.027-4.792-4.469-3.369" style="fill:#37474f;fill:color(display-p3 .2157 .2784 .3098);fill-opacity:1"/><path fill="#F7921E" d="M144.291 125.533 47.717 181.29c-1.275.737-2.309-.047-2.309-1.752V90.624c0-1.704 1.024-3.68 2.31-4.418l96.573-55.757c1.275-.737 2.309.046 2.309 1.751v88.914c0 1.705-1.055 3.681-2.309 4.419" style="fill:#f7921e;fill:color(display-p3 .9686 .5725 .1176);fill-opacity:1"/><path fill="#000" d="M144.291 125.533 47.717 181.29c-1.275.737-2.309-.047-2.309-1.752V90.624c0-1.704 1.024-3.68 2.31-4.418l96.573-55.757c1.275-.737 2.309.046 2.309 1.751v88.914c0 1.705-1.055 3.681-2.309 4.419" opacity=".1" style="fill:#000;fill-opacity:1"/><path fill="#263238" d="M42.505 140.227a2.8 2.8 0 0 1-1.162 2.222c-.64.369-1.163-.026-1.163-.881a2.8 2.8 0 0 1 1.163-2.222c.64-.379 1.162.016 1.162.881M41.343 125.323a2.17 2.17 0 0 0-.907 1.73v7.916c0 .665.405.973.907.681a2.17 2.17 0 0 0 .9-1.726v-7.915c0-.666-.404-.973-.9-.686" style="fill:#263238;fill:color(display-p3 .149 .1961 .2196);fill-opacity:1"/><path fill="#FAFAFA" d="M143.139 39.276c-.072-.553-.512-.753-1.024-.445L51.9 90.896a2.3 2.3 0 0 0-.747.794l-1.982-1.127a2.5 2.5 0 0 1 .338-.456l.097-.097q.143-.136.313-.235l90.189-52.086a2.3 2.3 0 0 1 1.597-.205 1.4 1.4 0 0 1 .635.297q.063.043.113.102a.4.4 0 0 1 .081.082q.081.08.144.174.058.074.107.154.115.177.19.374.051.107.087.22c0 .056.025.108.041.169q.025.11.036.22" style="fill:#fafafa;fill:color(display-p3 .9804 .9804 .9804);fill-opacity:1"/><path fill="#E0E0E0" d="M51.434 173.973c-.348 0-.588-.277-.588-.758V92.729c.014-.362.12-.714.307-1.024l-1.982-1.142q-.181.308-.266.655-.03.13-.04.261a1 1 0 0 0 0 .129v80.465a2.26 2.26 0 0 0 .992 1.792 2.1 2.1 0 0 0 1.214.215c.293-.014.578-.1.83-.25a1.1 1.1 0 0 1-.467.143" style="fill:#e0e0e0;fill:color(display-p3 .8784 .8784 .8784);fill-opacity:1"/><path fill="#F0F0F0" d="M143.149 39.445c0-.675-.476-.947-1.055-.614L51.9 90.9a2.34 2.34 0 0 0-1.054 1.828v80.487c0 .675.476.947 1.054.614l90.194-52.065a2.35 2.35 0 0 0 1.055-1.833z" style="fill:#f0f0f0;fill:color(display-p3 .9412 .9412 .9412);fill-opacity:1"/><path fill="#F7921E" d="m65.043 113.383-5.002 6.364-2.918 3.707a10.1 10.1 0 0 1-.896-4.428c0-4.276 1.848-9.216 4.843-13.031l.66 1.229zM69.329 100.614l-3.917 11.853-1.787-3.287-2.048-3.835a15.8 15.8 0 0 1 4.096-3.543 8.2 8.2 0 0 1 3.656-1.188M73.804 103.266l-7.358 8.474 3.671-11.106a4.65 4.65 0 0 1 3.687 2.632M74.782 107.843c0 6.467-4.25 14.188-9.478 17.198-3.246 1.879-6.144 1.536-7.782-.896l8.233-10.445.046-.056 8.35-9.615c.444 1.222.657 2.515.63 3.814" style="fill:#f7921e;fill:color(display-p3 .9686 .5725 .1176);fill-opacity:1"/><path fill="#fff" d="m69.329 100.614-3.917 11.853-1.787-3.287-2.048-3.835a15.8 15.8 0 0 1 4.096-3.543 8.2 8.2 0 0 1 3.656-1.188" opacity=".7" style="fill:#fff;fill-opacity:1"/><path fill="#000" d="m73.804 103.266-7.358 8.474 3.671-11.106a4.65 4.65 0 0 1 3.687 2.632" opacity=".3" style="fill:#000;fill-opacity:1"/><path fill="#fff" d="M74.782 107.843c0 6.467-4.25 14.188-9.478 17.198-3.246 1.879-6.144 1.536-7.782-.896l8.233-10.445.046-.056 8.35-9.615c.444 1.222.657 2.515.63 3.814" opacity=".5" style="fill:#fff;fill-opacity:1"/><path fill="#455A64" d="M57.532 95.397q.238-.149.512-.205a.54.54 0 0 1 .39.061.6.6 0 0 1 .245.343q.096.31.087.635c.004.313-.043.624-.138.922a2.4 2.4 0 0 1-.384.737l.543 1.295a.14.14 0 0 1 0 .067q0 .065-.031.123a.2.2 0 0 1-.067.082l-.599.343q-.084.052-.123 0a.3.3 0 0 1-.061-.087l-.512-1.168-.404.236v1.449a.3.3 0 0 1-.036.148.25.25 0 0 1-.082.103l-.579.332a.06.06 0 0 1-.04.016.06.06 0 0 1-.042-.016.141.141 0 0 1-.036-.107v-4.373q0-.078.036-.148a.2.2 0 0 1 .082-.102zm-.512 2.34.512-.287a1 1 0 0 0 .307-.287.83.83 0 0 0 .118-.46q0-.285-.118-.324a.39.39 0 0 0-.307.067l-.512.287zM61.7 96.646a.07.07 0 0 1 .082 0 .14.14 0 0 1 .036.107v.722a.3.3 0 0 1-.036.149.24.24 0 0 1-.082.102l-2.084 1.203a.06.06 0 0 1-.082 0 .13.13 0 0 1-.036-.107v-4.373q0-.078.036-.148a.24.24 0 0 1 .082-.103l2.048-1.182a.066.066 0 0 1 .082 0 .14.14 0 0 1 .036.107v.722a.33.33 0 0 1-.036.148.24.24 0 0 1-.082.103l-1.352.778v.732l1.255-.727a.06.06 0 0 1 .082 0 .13.13 0 0 1 .035.108v.717a.3.3 0 0 1-.035.148.2.2 0 0 1-.082.102l-1.255.753v.758zM63.917 91.71q.237-.145.512-.194a.51.51 0 0 1 .384.076c.118.09.205.216.246.359.07.213.104.436.102.66q.004.38-.082.748-.083.332-.246.635a2.6 2.6 0 0 1-.384.512q-.227.234-.512.394l-.558.322v1.383a.4.4 0 0 1-.036.148.2.2 0 0 1-.087.103l-.573.333a.06.06 0 0 1-.082 0 .14.14 0 0 1-.036-.108v-4.373a.3.3 0 0 1 .036-.148.2.2 0 0 1 .082-.102zm-.558 2.437.512-.312a.84.84 0 0 0 .425-.778c0-.19-.036-.302-.118-.343a.34.34 0 0 0-.307.05l-.512.313zM65.673 92.463a4 4 0 0 1 .108-.779 3.194 3.194 0 0 1 .691-1.372c.161-.191.356-.352.573-.476.172-.11.37-.173.574-.184a.62.62 0 0 1 .42.143.93.93 0 0 1 .27.43c.067.21.103.43.108.65v1.209q-.016.392-.107.773a3.4 3.4 0 0 1-.272.742 3 3 0 0 1-.42.635c-.163.189-.357.35-.573.476-.172.11-.37.173-.573.185a.6.6 0 0 1-.425-.149.94.94 0 0 1-.266-.43 2.4 2.4 0 0 1-.108-.65v-1.2029999999999998m1.93.056v-1.1360000000000001a1.1 1.1 0 0 0-.046-.287.4.4 0 0 0-.107-.185.25.25 0 0 0-.17-.071.5.5 0 0 0-.235.076.8.8 0 0 0-.235.2 1 1 0 0 0-.17.261 1.5 1.5 0 0 0-.107.307q-.037.168-.046.338v1.1420000000000001a.73.73 0 0 0 .154.471q.13.145.404 0a.95.95 0 0 0 .405-.456 2 2 0 0 0 .159-.66zM70.465 87.932q.239-.147.512-.205a.57.57 0 0 1 .39.056.65.65 0 0 1 .25.343c.061.208.089.424.082.64a3 3 0 0 1-.133.922 2.5 2.5 0 0 1-.389.732l.543 1.295a.2.2 0 0 1 0 .067q0 .065-.031.123a.16.16 0 0 1-.066.082l-.6.348c-.056.03-.097.036-.123 0a.3.3 0 0 1-.06-.087l-.487-1.168-.405.23v1.45a.3.3 0 0 1-.036.148.23.23 0 0 1-.082.108l-.578.327a.06.06 0 0 1-.041.018.06.06 0 0 1-.041-.018.13.13 0 0 1-.036-.107v-4.373q0-.078.036-.148a.25.25 0 0 1 .082-.103zm-.512 2.334.512-.286a.95.95 0 0 0 .307-.282.86.86 0 0 0 .118-.466q0-.285-.118-.323a.4.4 0 0 0-.307.072l-.512.287zM74.664 85.505a.07.07 0 0 1 .082 0 .2.2 0 0 1 .03.052q.008.03.005.06v.717a.3.3 0 0 1-.035.149.24.24 0 0 1-.082.102l-.773.446v3.47a.3.3 0 0 1-.036.15.2.2 0 0 1-.082.102l-.579.333a.06.06 0 0 1-.082 0 .13.13 0 0 1-.035-.108v-3.487l-.773.446a.06.06 0 0 1-.082 0 .14.14 0 0 1-.036-.108v-.716q0-.082.035-.154a.24.24 0 0 1 .082-.103z" style="fill:#455a64;fill:color(display-p3 .2706 .3529 .3922);fill-opacity:1"/><path fill="#F7921E" d="m78.75 83.15 57.548-33.224v4.582L78.749 87.732z" style="fill:#f7921e;fill:color(display-p3 .9686 .5725 .1176);fill-opacity:1"/><g fill="#455A64" opacity=".3"><path d="M78.396 97.583a.48.48 0 0 1-.42-.24.51.51 0 0 1 .174-.671l33.736-19.456a.513.513 0 0 1 .512.85l-33.73 19.456a.5.5 0 0 1-.272.061M78.396 102.165a.48.48 0 0 1-.42-.24.51.51 0 0 1 .174-.671l33.736-19.456a.512.512 0 0 1 .512.85l-33.73 19.456a.5.5 0 0 1-.272.061M78.396 106.748a.477.477 0 0 1-.42-.241.51.51 0 0 1 .174-.67l33.736-19.456a.512.512 0 0 1 .512.85l-33.73 19.456a.5.5 0 0 1-.272.061M78.396 111.33a.477.477 0 0 1-.42-.241.51.51 0 0 1 .174-.67l33.736-19.456a.511.511 0 1 1 .512.845l-33.73 19.456a.5.5 0 0 1-.272.066M78.396 115.918a.52.52 0 0 1-.435-.267.51.51 0 0 1 .174-.67l33.736-19.456a.51.51 0 0 1 .578.226.51.51 0 0 1-.066.618l-33.73 19.456a.5.5 0 0 1-.257.093" style="fill:#455a64;fill:color(display-p3 .2706 .3529 .3922);fill-opacity:1"/></g><path fill="#F7921E" d="m116.981 72.5 4.341-2.504c.292-.168.512-.03.512.308v5.012a1.16 1.16 0 0 1-.512.912l-4.341 2.508c-.292.17-.512.031-.512-.307v-5.012a1.17 1.17 0 0 1 .512-.917M124.179 68.347l4.342-2.503c.292-.17.512-.036.512.302v5.012a1.17 1.17 0 0 1-.512.917l-4.342 2.503c-.292.17-.512.036-.512-.302v-5.012a1.17 1.17 0 0 1 .512-.917M131.378 64.19l4.337-2.504c.291-.169.512-.03.512.308v5.017a1.18 1.18 0 0 1-.512.917l-4.337 2.508c-.292.17-.512.031-.512-.307v-5.012a1.18 1.18 0 0 1 .512-.927M116.981 80.835l4.341-2.508c.292-.17.512-.031.512.307v5.012a1.17 1.17 0 0 1-.512.917l-4.341 2.503c-.292.17-.512.031-.512-.307v-5.007a1.16 1.16 0 0 1 .512-.917M124.179 76.657l4.342-2.503c.292-.17.512-.036.512.302v5.012a1.17 1.17 0 0 1-.512.917l-4.342 2.498c-.292.17-.512.036-.512-.302V77.57a1.17 1.17 0 0 1 .512-.912M131.378 72.505l4.337-2.509c.291-.168.512-.03.512.308v5.012a1.17 1.17 0 0 1-.512.912l-4.337 2.508c-.292.17-.512.031-.512-.307v-5.012a1.16 1.16 0 0 1 .512-.912M116.981 89.124l4.341-2.508c.292-.17.512-.031.512.307v5.012a1.17 1.17 0 0 1-.512.917l-4.341 2.503c-.292.17-.512.031-.512-.302v-5.002a1.16 1.16 0 0 1 .512-.927M124.179 84.967l4.342-2.504c.292-.169.512-.03.512.302v5.013a1.17 1.17 0 0 1-.512.916l-4.342 2.51c-.292.168-.512.03-.512-.308v-5.013a1.17 1.17 0 0 1 .512-.916M131.378 80.835l4.337-2.508c.291-.17.512-.031.512.307v5.012a1.18 1.18 0 0 1-.512.917l-4.337 2.503c-.292.17-.512.031-.512-.307v-5.007a1.17 1.17 0 0 1 .512-.917" style="fill:#f7921e;fill:color(display-p3 .9686 .5725 .1176);fill-opacity:1"/><path fill="#455A64" d="m56.923 162.197 55.562-32.077v2.289l-55.562 32.082z" style="fill:#455a64;fill:color(display-p3 .2706 .3529 .3922);fill-opacity:1"/><path fill="#F7921E" d="M56.923 159.908v-13.752l4.895 2.826 4.715-8.734 5.622 3.246 2.626-3.062 3.968 2.289 5.776-8.628 4.603 1.925 5.499-11.627 3.845 6.682 5.253-7.614 1.956 3.712 6.804-10.798v11.453z" style="fill:#f7921e;fill:color(display-p3 .9686 .5725 .1176);fill-opacity:1"/><path fill="#F7921E" d="m56.923 144.881 4.567 2.422 4.736-8.806 5.653 3.266 2.539-2.964 3.968 2.293 5.683-8.314 4.603 1.925 5.955-12.601 3.968 6.871 5.253-7.613 1.92 3.717 6.717-10.67v-9.492l-7.024 10.951-2.898-5.222-3.968 6.876-3.968-2.294-3.968 6.876-3.968-2.293-5.955 10.311-3.968-3.435-3.932 5.703-6.206-3.415-5.017 8.438-4.69-2.708z" style="fill:#f7921e;fill:color(display-p3 .9686 .5725 .1176);fill-opacity:1"/><path fill="#000" d="m56.923 144.881 4.567 2.422 4.736-8.806 5.653 3.266 2.539-2.964 3.968 2.293 5.683-8.314 4.603 1.925 5.955-12.601 3.968 6.871 5.253-7.613 1.92 3.717 6.717-10.67v-9.492l-7.024 10.951-2.898-5.222-3.968 6.876-3.968-2.294-3.968 6.876-3.968-2.293-5.955 10.311-3.968-3.435-3.932 5.703-6.206-3.415-5.017 8.438-4.69-2.708z" opacity=".3" style="fill:#000;fill-opacity:1"/><g fill="#455A64" opacity=".3"><path d="M116.453 103.112a.51.51 0 0 1-.246-.911l19.846-11.459a.51.51 0 0 1 .586.227.515.515 0 0 1-.074.624l-19.846 11.453a.5.5 0 0 1-.266.066M116.453 107.695a.512.512 0 0 1-.246-.911l19.846-11.459a.51.51 0 0 1 .586.226.515.515 0 0 1-.074.624l-19.846 11.453a.48.48 0 0 1-.266.067M116.453 112.277a.51.51 0 0 1-.246-.911l19.846-11.458a.51.51 0 0 1 .586.226.514.514 0 0 1-.074.623l-19.846 11.454a.48.48 0 0 1-.266.066M116.453 116.859a.51.51 0 0 1-.246-.911l19.846-11.453a.51.51 0 0 1 .665.174.51.51 0 0 1-.174.67l-19.845 11.454a.47.47 0 0 1-.246.066M116.453 121.442a.512.512 0 0 1-.246-.911l19.846-11.454a.51.51 0 0 1 .665.174.51.51 0 0 1-.174.671l-19.845 11.453a.5.5 0 0 1-.246.067M116.453 126.024a.51.51 0 0 1-.246-.911l19.846-11.453a.51.51 0 0 1 .665.174.51.51 0 0 1-.174.67l-19.845 11.454a.47.47 0 0 1-.246.066M116.453 130.607a.51.51 0 0 1-.417-.67.5.5 0 0 1 .171-.242l19.846-11.453a.51.51 0 0 1 .578.227.51.51 0 0 1-.066.618l-19.846 11.453a.48.48 0 0 1-.266.067" style="fill:#455a64;fill:color(display-p3 .2706 .3529 .3922);fill-opacity:1"/></g><path fill="#F7921E" d="m151.348 139.928-9.373-5.412-.036-.019-.067-.039c-4.547-2.573-10.795-2.177-17.698 1.807-13.89 8.021-25.15 27.525-25.15 43.564 0 7.969 2.788 13.581 7.285 16.229l.069.039.034.02 9.373 5.411 1.598-4.204a26.8 26.8 0 0 0 6.969-2.883c13.89-8.018 25.151-27.523 25.151-43.559a26.8 26.8 0 0 0-.968-7.411z" style="fill:#f7921e;fill:color(display-p3 .9686 .5725 .1176);fill-opacity:1"/><path fill="#fff" d="m151.348 139.928-9.373-5.412-.036-.019-.067-.039c-4.547-2.573-10.795-2.177-17.698 1.807-13.89 8.021-25.15 27.525-25.15 43.564 0 7.969 2.788 13.581 7.285 16.229l.069.039.034.02 9.373 5.411 1.598-4.204a26.8 26.8 0 0 0 6.969-2.883c13.89-8.018 25.151-27.523 25.151-43.559a26.8 26.8 0 0 0-.968-7.411z" opacity=".4" style="fill:#fff;fill-opacity:1"/><path fill="#F7921E" d="M99.244 175.907a38 38 0 0 0-.22 3.922c0 7.968 2.788 13.581 7.285 16.229l.069.039.034.02 9.373 5.411 1.598-4.204a20 20 0 0 0 1.589-.457l2.378-8.2z" opacity=".4" style="fill:#f7921e;fill:color(display-p3 .9686 .5725 .1176);fill-opacity:1"/><path fill="#F7921E" d="M151.436 181.047c9.821-17.012 9.82-35.399-.002-41.07s-25.747 3.522-35.568 20.533c-9.822 17.011-9.821 35.399.002 41.07 9.822 5.671 25.746-3.522 35.568-20.533" style="fill:#f7921e;fill:color(display-p3 .9686 .5725 .1176);fill-opacity:1"/><path fill="#fff" d="M151.436 181.047c9.821-17.012 9.82-35.399-.002-41.07s-25.747 3.522-35.568 20.533c-9.822 17.011-9.821 35.399.002 41.07 9.822 5.671 25.746-3.522 35.568-20.533" opacity=".6" style="fill:#fff;fill-opacity:1"/><path fill="#F7921E" d="M152.731 146.792c-3.117-5.403-9.512-6.011-17.101-1.628-12.563 7.248-23.174 25.632-23.174 40.147 0 3.8.731 7.073 2.113 9.465 3.117 5.403 9.513 6.011 17.102 1.628 12.562-7.249 23.173-25.63 23.173-40.147 0-3.8-.73-7.073-2.11-9.465z" style="fill:#f7921e;fill:color(display-p3 .9686 .5725 .1176);fill-opacity:1"/><path fill="#F7921E" d="M153.069 146.993c-3.533-5.64-10.377-6.507-18.303-2.32-13.104 6.931-23.732 25.309-23.174 40.147.148 3.886 1.051 7.249 2.618 9.758 3.532 5.643 10.374 6.51 18.303 2.319 13.117-6.928 23.728-25.306 23.171-40.146-.145-3.887-1.049-7.249-2.615-9.758" style="fill:#f7921e;fill:color(display-p3 .9686 .5725 .1176);fill-opacity:1"/><path fill="#fff" d="M153.069 146.993c-3.533-5.64-10.377-6.507-18.303-2.32-13.104 6.931-23.732 25.309-23.174 40.147.148 3.886 1.051 7.249 2.618 9.758 3.532 5.643 10.374 6.51 18.303 2.319 13.117-6.928 23.728-25.306 23.171-40.146-.145-3.887-1.049-7.249-2.615-9.758" opacity=".4" style="fill:#fff;fill-opacity:1"/><path fill="#FAFAFA" d="M129.967 195.448c-5.046 2.668-9.649 3.276-13.243 1.915a10.7 10.7 0 0 1-2.509-2.788c-1.567-2.509-2.47-5.871-2.618-9.758-.557-14.823 10.057-33.202 23.174-40.147 5.055-2.673 9.655-3.273 13.251-1.912a10.8 10.8 0 0 1 2.509 2.788c1.564 2.509 2.468 5.871 2.616 9.758.549 14.851-10.059 33.216-23.18 40.144" style="fill:#fafafa;fill:color(display-p3 .9804 .9804 .9804);fill-opacity:1"/><path fill="#F7921E" d="m133.714 170.78-13.873-.934q5.067-9.89 12.546-14.899z" opacity=".3" style="fill:#f7921e;fill:color(display-p3 .9686 .5725 .1176);fill-opacity:1"/><path fill="#F7921E" d="M132.108 148.325a1.24 1.24 0 0 0-.529.968v2.724c0 .365.237.521.529.348a1.22 1.22 0 0 0 .53-.967v-2.71c0-.377-.237-.533-.53-.363M150.177 158.758a1.212 1.212 0 0 1-.557.942l-2.359 1.366c-.315.182-.557.053-.557-.278a1.2 1.2 0 0 1 .557-.943l2.359-1.366c.307-.187.56-.058.557.279M113.376 180.769c.016-.19.076-.375.176-.538s.234-.302.396-.404l2.358-1.364c.315-.181.558-.055.558.279a1.23 1.23 0 0 1-.574.943l-2.359 1.366c-.301.186-.558.058-.555-.282M131.448 191.204a1.24 1.24 0 0 0 .53-.967v-2.727c0-.362-.237-.518-.53-.348a1.22 1.22 0 0 0-.533.967v2.724c0 .365.24.521.533.351M133.176 171.761l-13.335-1.915h14.384z" style="fill:#f7921e;fill:color(display-p3 .9686 .5725 .1176);fill-opacity:1"/><path fill="#37474F" d="M133.689 155.203s1.235 11.456 1.62 14.113q.06.232.059.471a3.8 3.8 0 0 1-1.718 2.975c-.474.279-.903.298-1.212.12-.159-.092-.764-.443-.921-.53-.317-.178-.513-.557-.513-1.115-.156-2.755.876-15.925.876-15.925l.895-.644z" style="fill:#37474f;fill:color(display-p3 .2157 .2784 .3098);fill-opacity:1"/><path fill="#455A64" d="M135.368 169.788a3.8 3.8 0 0 1-1.718 2.974c-.948.558-1.717.103-1.717-.992-.156-2.744.861-15.92.861-15.92l.895-.646s1.673 13.485 1.679 14.584" style="fill:#455a64;fill:color(display-p3 .2706 .3529 .3922);fill-opacity:1"/><path fill="#263238" d="M134.425 170.331a1.718 1.718 0 0 1-.775 1.344c-.429.248-.775.047-.775-.449a1.72 1.72 0 0 1 .775-1.344c.43-.245.775-.047.775.449" style="fill:#263238;fill:color(display-p3 .149 .1961 .2196);fill-opacity:1"/><path fill="#37474F" d="m147.521 169.29-2.763.333.028.229 2.762-.332zM138.187 181.175l-.213.091 1.085 2.559.213-.09zM124.343 156.064l-.213.09 1.085 2.56.213-.091zM118.866 169.768l-2.762.333.027.23 2.763-.333zM149.382 150.475l-2.479 2.78.172.154 2.48-2.78zM139.466 144.798l-1.17 3.536.219.073 1.171-3.536zM125.023 191.143l-1.17 3.536.22.072 1.17-3.536zM116.461 186.157l-2.48 2.78.173.154 2.479-2.78z" style="fill:#37474f;fill:color(display-p3 .2157 .2784 .3098);fill-opacity:1"/><path fill="#455A64" d="M131.548 133.075a.84.84 0 0 0-.502-.697 2.66 2.66 0 0 0-2.414 0 .84.84 0 0 0-.502.697v6.552a.83.83 0 0 0 .502.697 2.67 2.67 0 0 0 2.412 0 .832.832 0 0 0 .501-.697z" style="fill:#455a64;fill:color(display-p3 .2706 .3529 .3922);fill-opacity:1"/><path fill="#37474F" d="M128.632 133.764a.83.83 0 0 1-.502-.697.84.84 0 0 1 .502-.697 2.67 2.67 0 0 1 2.414 0c.139.06.259.157.348.279a.85.85 0 0 1 .154.418.84.84 0 0 1-.502.697 2.66 2.66 0 0 1-2.414 0" style="fill:#37474f;fill:color(display-p3 .2157 .2784 .3098);fill-opacity:1"/><path fill="#F7921E" d="M134.718 129.06c0-.722-.474-1.444-1.427-1.993-1.904-1.098-4.994-1.098-6.901 0-.95.558-1.427 1.271-1.427 1.993v5.967c0 .719.477 1.441 1.427 1.99 1.907 1.102 4.997 1.102 6.901 0 .953-.557 1.427-1.271 1.427-1.99z" style="fill:#f7921e;fill:color(display-p3 .9686 .5725 .1176);fill-opacity:1"/><path fill="#fff" d="M126.39 131.051c-.95-.558-1.427-1.271-1.427-1.991 0-.719.477-1.444 1.427-1.993 1.907-1.098 4.997-1.098 6.901 0 .953.558 1.427 1.271 1.427 1.993s-.474 1.442-1.427 1.991c-1.904 1.098-4.994 1.098-6.901 0" opacity=".3" style="fill:#fff;fill-opacity:1"/><path fill="#000" d="M126.602 131.157v5.972q.205.102.427.195v-5.972a3 3 0 0 1-.427-.195m1.497.524v5.98c.134.028.279.053.424.07v-5.972a3 3 0 0 1-.424-.078m-2.684-1.452v5.974q.191.236.423.432v-5.969a2.3 2.3 0 0 1-.423-.435zm7.184 1.145v5.975c.154-.061.279-.128.424-.195v-5.972q-.204.112-.424.195zm1.188-.669v5.972q.232-.188.426-.415v-5.953a2.5 2.5 0 0 1-.426.399zm-2.682 1.062v5.972c.145-.016.279-.041.424-.067v-5.991c-.145.045-.279.07-.424.089zm-1.478.092v5.981h.424v-5.978a1.8 1.8 0 0 1-.424 0z" opacity=".2" style="fill:#000;fill-opacity:1"/><path fill="#455A64" d="M112.06 147.573a.85.85 0 0 0-.856-.07 2.68 2.68 0 0 0-1.564 1.843.84.84 0 0 0 .209.836l4.996 4.221a.831.831 0 0 0 .853.07 2.66 2.66 0 0 0 1.564-1.843.83.83 0 0 0-.209-.836z" style="fill:#455a64;fill:color(display-p3 .2706 .3529 .3922);fill-opacity:1"/><path fill="#37474F" d="M110.705 150.236a.738.738 0 0 1-1.065-.904 2.69 2.69 0 0 1 1.564-1.843.74.74 0 0 1 .855.071.73.73 0 0 1 .208.833 2.67 2.67 0 0 1-1.562 1.843" style="fill:#37474f;fill:color(display-p3 .2157 .2784 .3098);fill-opacity:1"/><path fill="#F7921E" d="M111.728 145.183c-.371-.315-.95-.384-1.65-.136-1.394.502-2.755 2.094-3.02 3.557-.133.734.028 1.294.402 1.609l3.067 2.615c.37.315.95.385 1.653.134 1.394-.499 2.752-2.094 3.017-3.558.133-.73-.028-1.29-.402-1.608z" style="fill:#f7921e;fill:color(display-p3 .9686 .5725 .1176);fill-opacity:1"/><path fill="#fff" d="M109.11 150.361c-.699.251-1.279.178-1.65-.137s-.535-.886-.393-1.619c.279-1.464 1.617-3.067 3.019-3.558.7-.251 1.28-.178 1.651.137s.535.875.401 1.608c-.273 1.464-1.625 3.056-3.028 3.569" opacity=".3" style="fill:#fff;fill-opacity:1"/><path fill="#000" d="m109.261 150.286 3.067 2.612a2 2 0 0 0 .279-.134l-3.067-2.612q-.135.077-.279.134m.923-.541 3.083 2.618c.073-.059.151-.123.223-.19l-3.078-2.612a2 2 0 0 1-.228.184m-1.921.75 3.067 2.612q.206.007.41-.031l-3.067-2.612a1.6 1.6 0 0 1-.41.031m3.733-3.201 3.067 2.613c.036-.106.058-.207.083-.304l-3.061-2.616a2 2 0 0 1-.089.307m.176-.906 3.066 2.612a2.3 2.3 0 0 0-.027-.401l-3.067-2.607q.037.196.028.393zm-.628 1.849 3.067 2.612q.084-.125.151-.251l-3.067-2.615q-.069.13-.151.251zm-.599.802 3.092 2.613.187-.22-3.084-2.616a1.1 1.1 0 0 1-.195.221z" opacity=".2" style="fill:#000;fill-opacity:1"/><path fill="#455A64" d="m145.452 136.517 2.943 1.699 1.373-2.378-2.943-1.699z" style="fill:#455a64;fill:color(display-p3 .2706 .3529 .3922);fill-opacity:1"/><path fill="#F7921E" d="m145.623 133.538 4.921 2.829a.506.506 0 0 0 .691-.187l1.517-2.639a.506.506 0 0 0-.187-.691l-4.921-2.829a.507.507 0 0 0-.691.187l-1.517 2.639a.506.506 0 0 0 .187.691" style="fill:#f7921e;fill:color(display-p3 .9686 .5725 .1176);fill-opacity:1"/><path fill="#000" d="m151.076 131.923-2.022 3.501.249.144 2.021-3.501zM152.887 132.989l-2.004 3.468a.5.5 0 0 1-.123-.047l-.134-.078 2.022-3.502.133.078q.058.035.106.081M151.953 132.43l-2.021 3.501.249.143 2.021-3.501zM145.736 133.474l1.991-3.452q.083.015.156.059l.109.061-2.022 3.491-.108-.061a.5.5 0 0 1-.126-.098M150.176 131.405l-2.021 3.501.249.143 2.021-3.501zM148.436 130.402l-2.021 3.501.248.143 2.022-3.501zM149.311 130.905l-2.022 3.501.249.144 2.021-3.501z" opacity=".2" style="fill:#000;fill-opacity:1"/><path fill="#F7921E" d="M158.817 181.569a.62.62 0 0 1-.263-.645l6.315-27.983c.078-.271.253-.505.491-.657l37.6-21.708a.83.83 0 0 1 .747-.015.62.62 0 0 1 .263.645l-6.32 27.975a1.16 1.16 0 0 1-.491.657l-37.607 21.711a.82.82 0 0 1-.735.02" style="fill:#f7921e;fill:color(display-p3 .9686 .5725 .1176);fill-opacity:1"/><path fill="#fff" d="M158.817 181.569a.62.62 0 0 1-.263-.645l6.315-27.983c.078-.271.253-.505.491-.657l37.6-21.708a.83.83 0 0 1 .747-.015.62.62 0 0 1 .263.645l-6.32 27.975a1.16 1.16 0 0 1-.491.657l-37.607 21.711a.82.82 0 0 1-.735.02" opacity=".8" style="fill:#fff;fill-opacity:1"/><path fill="#F7921E" d="m165.593 153.361-6.321 27.977c-.053.245.074.333.287.211l37.608-21.711a1.16 1.16 0 0 0 .49-.657l6.32-27.978c.054-.245-.073-.336-.287-.213l-37.612 21.714a1.15 1.15 0 0 0-.485.657" style="fill:#f7921e;fill:color(display-p3 .9686 .5725 .1176);fill-opacity:1"/><path fill="#fff" d="m165.593 153.361-6.321 27.977c-.053.245.074.333.287.211l37.608-21.711a1.16 1.16 0 0 0 .49-.657l6.32-27.978c.054-.245-.073-.336-.287-.213l-37.612 21.714a1.15 1.15 0 0 0-.485.657" opacity=".6" style="fill:#fff;fill-opacity:1"/><path fill="#000" d="m165.593 153.361-6.321 27.977c-.053.245.074.333.287.211l37.608-21.711a1.16 1.16 0 0 0 .49-.657l6.32-27.978c.054-.245-.073-.336-.287-.213l-37.612 21.714a1.15 1.15 0 0 0-.485.657" opacity=".05" style="fill:#000;fill-opacity:1"/><path fill="#F7921E" d="M204.431 130.978a.83.83 0 0 0-.748.012l-37.605 21.714a.71.71 0 0 0-.323.672l4.942 34.643a1 1 0 0 0 .424.66.84.84 0 0 0 .75-.015l37.605-21.711a.71.71 0 0 0 .324-.665l-4.945-34.66a1.009 1.009 0 0 0-.424-.65" style="fill:#f7921e;fill:color(display-p3 .9686 .5725 .1176);fill-opacity:1"/><path fill="#fff" d="M204.431 130.978a.83.83 0 0 0-.748.012l-37.605 21.714a.71.71 0 0 0-.323.672l4.942 34.643a1 1 0 0 0 .424.66.84.84 0 0 0 .75-.015l37.605-21.711a.71.71 0 0 0 .324-.665l-4.945-34.66a1.009 1.009 0 0 0-.424-.65" opacity=".8" style="fill:#fff;fill-opacity:1"/><path fill="#F7921E" d="m166.478 153.785 4.942 34.648a.282.282 0 0 0 .451.218l37.605-21.711a.71.71 0 0 0 .324-.664l-4.945-34.649a.28.28 0 0 0-.157-.247.3.3 0 0 0-.15-.027.3.3 0 0 0-.142.056l-37.605 21.721a.72.72 0 0 0-.323.655" style="fill:#f7921e;fill:color(display-p3 .9686 .5725 .1176);fill-opacity:1"/><path fill="#fff" d="m166.478 153.785 4.942 34.648a.282.282 0 0 0 .451.218l37.605-21.711a.71.71 0 0 0 .324-.664l-4.945-34.649a.28.28 0 0 0-.157-.247.3.3 0 0 0-.15-.027.3.3 0 0 0-.142.056l-37.605 21.721a.72.72 0 0 0-.323.655" opacity=".95" style="fill:#fff;fill-opacity:1"/><path fill="#F7921E" d="m169.219 177.646-4.413 2.547a.7.7 0 0 0-.272 0l-5.208 1.005h-.019l9.622-5.56z" style="fill:#f7921e;fill:color(display-p3 .9686 .5725 .1176);fill-opacity:1"/><path fill="#fff" d="m169.219 177.646-4.413 2.547a.7.7 0 0 0-.272 0l-5.208 1.005h-.019l9.622-5.56z" opacity=".5" style="fill:#fff;fill-opacity:1"/><path fill="#000" d="m169.219 177.646-4.413 2.547a.7.7 0 0 0-.272 0l-5.208 1.005h-.019l9.622-5.56z" opacity=".2" style="fill:#000;fill-opacity:1"/><path fill="#F7921E" d="m170.658 187.749-5.426-7.308a.73.73 0 0 0-.409-.245l4.396-2.55z" style="fill:#f7921e;fill:color(display-p3 .9686 .5725 .1176);fill-opacity:1"/><path fill="#fff" d="m170.658 187.749-5.426-7.308a.73.73 0 0 0-.409-.245l4.396-2.55z" opacity=".6" style="fill:#fff;fill-opacity:1"/><path fill="#000" d="m170.658 187.749-5.426-7.308a.73.73 0 0 0-.409-.245l4.396-2.55z" opacity=".1" style="fill:#000;fill-opacity:1"/><path fill="#F7921E" d="m170.489 188.09-5.249-6.818a.84.84 0 0 0-.714-.289l-4.903.709a1.5 1.5 0 0 1-.804-.145c-.198-.115-.164-.245.076-.294l5.639-1.086a.76.76 0 0 1 .703.274l5.987 8.063c.147.197.103.265-.098.15a2.6 2.6 0 0 1-.637-.564" style="fill:#f7921e;fill:color(display-p3 .9686 .5725 .1176);fill-opacity:1"/><path fill="#fff" d="m170.489 188.09-5.249-6.818a.84.84 0 0 0-.714-.289l-4.903.709a1.5 1.5 0 0 1-.804-.145c-.198-.115-.164-.245.076-.294l5.639-1.086a.76.76 0 0 1 .703.274l5.987 8.063c.147.197.103.265-.098.15a2.6 2.6 0 0 1-.637-.564" opacity=".8" style="fill:#fff;fill-opacity:1"/><path fill="#F7921E" d="M203.982 131.066a.6.6 0 0 0-.274-.507.83.83 0 0 0-.748.014l-37.607 21.712a1.157 1.157 0 0 0-.486.659l-.89 3.952.736.414 38.377-22.157.892-3.95a.5.5 0 0 0 0-.137" style="fill:#f7921e;fill:color(display-p3 .9686 .5725 .1176);fill-opacity:1"/><path fill="#000" d="M203.97 131.203c.054-.245-.074-.336-.287-.213l-37.605 21.714a1.16 1.16 0 0 0-.49.657l-.888 3.949 38.378-22.157z" opacity=".6" style="fill:#000;fill-opacity:1"/><path fill="#000" d="M165.782 152.978a1.1 1.1 0 0 0-.189.383l-.893 3.949-.735-.414.89-3.952q.058-.211.191-.385z" opacity=".5" style="fill:#000;fill-opacity:1"/><path fill="#000" d="M203.982 131.066c-.017-.135-.135-.169-.299-.073l-37.607 21.708a1 1 0 0 0-.294.277l-.724-.419q.122-.165.295-.274l37.607-21.709a.83.83 0 0 1 .748-.015.62.62 0 0 1 .274.505" opacity=".2" style="fill:#000;fill-opacity:1"/><path fill="#F7921E" d="m204.906 131.959-.049-.331a.2.2 0 0 0 0-.049v-.012a1 1 0 0 0-.412-.586.819.819 0 0 0-.747.012l-37.62 21.711a.66.66 0 0 0-.26.297.65.65 0 0 0-.063.367l.708 4.965.736.419 38.379-22.157z" style="fill:#f7921e;fill:color(display-p3 .9686 .5725 .1176);fill-opacity:1"/><path fill="#000" d="m205.566 136.594-38.38 22.158-.708-4.967a.66.66 0 0 1 .066-.368.67.67 0 0 1 .245-.297l37.627-21.711a.27.27 0 0 1 .364.028.3.3 0 0 1 .065.114v.027c0 .018 0 .035.012.049l.047.331z" opacity=".2" style="fill:#000;fill-opacity:1"/><path fill="#000" d="m167.186 158.752-.735-.419-.696-4.957a.65.65 0 0 1 .063-.368l.736.417a.66.66 0 0 0-.066.367z" opacity=".5" style="fill:#000;fill-opacity:1"/><path fill="#000" d="M204.843 131.556a.3.3 0 0 0-.061-.122.27.27 0 0 0-.248-.089.3.3 0 0 0-.125.054l-37.607 21.731a.67.67 0 0 0-.246.297l-.735-.417a.7.7 0 0 1 .245-.299l37.615-21.719a.823.823 0 0 1 .747-.015c.205.136.352.342.415.579" opacity=".3" style="fill:#000;fill-opacity:1"/><g fill="#000" opacity=".2"><path d="M169.927 153.824a1.29 1.29 0 0 1 .613-1.189c.4-.23.772-.074.834.353a1.3 1.3 0 0 1-.613 1.191c-.4.231-.772.074-.834-.355M174.997 150.897a1.3 1.3 0 0 1 .613-1.192c.4-.23.775-.071.834.356a1.3 1.3 0 0 1-.613 1.191c-.398.231-.77.071-.834-.355M180.065 147.982a1.29 1.29 0 0 1 .612-1.191c.4-.231.775-.071.834.355a1.29 1.29 0 0 1-.613 1.189c-.4.223-.772.064-.833-.353M190.197 142.12a1.3 1.3 0 0 1 .613-1.191c.399-.231.775-.071.836.355a1.29 1.29 0 0 1-.616 1.192c-.397.23-.769.071-.833-.356M195.274 139.193a1.3 1.3 0 0 1 .613-1.191c.4-.231.772-.072.834.355a1.29 1.29 0 0 1-.613 1.189c-.4.231-.763.074-.834-.353M200.339 136.266a1.292 1.292 0 0 1 .613-1.189c.4-.231.772-.074.834.353a1.3 1.3 0 0 1-.613 1.191c-.4.231-.775.084-.834-.355" style="fill:#000;fill-opacity:1"/></g><path fill="#263238" d="M171.462 152.297a2.3 2.3 0 0 1-.093.66c-.09.337-.307.626-.606.806a1.24 1.24 0 0 1-.642.169 1 1 0 0 1-.177 0 1 1 0 0 1-.019-.095c-.021-.199.012-.4.095-.581a.65.65 0 0 0 .402-.069.83.83 0 0 0 .344-.63v-.032a2 2 0 0 0 0-.216 3.5 3.5 0 0 0-.677-1.919 4 4 0 0 0-.49-.559 2.6 2.6 0 0 0-.491-.361c-.37-.21-.711-.245-.941-.127-.231.118-.361.446-.361.878q.005.303.074.598l-.574.35v-.039a3.3 3.3 0 0 1-.134-.909c0-.684.245-1.207.701-1.471.456-.265 1.024-.216 1.618.127q.417.247.75.601.251.265.456.569c.466.661.731 1.442.765 2.25M176.534 149.37q0 .221-.036.439a2 2 0 0 1-.057.225 1.33 1.33 0 0 1-.605.802 1.24 1.24 0 0 1-.814.157.5.5 0 0 1-.022-.096c-.022-.198.01-.399.093-.581a.65.65 0 0 0 .402-.068.837.837 0 0 0 .343-.633v-.029a2 2 0 0 0 0-.216 3.74 3.74 0 0 0-1.157-2.478 2.7 2.7 0 0 0-.49-.363c-.37-.211-.711-.258-.942-.125-.23.132-.36.443-.36.877q.004.303.076.596l-.586.351v-.04a3.3 3.3 0 0 1-.135-.907c0-.686.245-1.206.701-1.471.456-.264 1.025-.213 1.621.128q.41.249.735.6.251.267.456.572c.474.661.744 1.447.777 2.26M181.599 146.445q0 .221-.037.439-.02.113-.056.223c-.09.337-.307.625-.605.804a1.24 1.24 0 0 1-.643.169 1 1 0 0 1-.171 0 .5.5 0 0 1-.022-.095c-.023-.199.009-.4.093-.581a.66.66 0 0 0 .402-.069.83.83 0 0 0 .343-.633v-.029a2 2 0 0 0 0-.216 3.5 3.5 0 0 0-.677-1.919 3.6 3.6 0 0 0-.49-.559 2.8 2.8 0 0 0-.49-.363c-.371-.211-.711-.245-.942-.125s-.36.444-.36.878q.005.303.073.598l-.568.338v-.042c-.085-.295-.13-.6-.133-.907 0-.686.245-1.206.701-1.471.456-.264 1.025-.213 1.618.13.277.163.529.364.748.598q.255.267.461.572c.464.665.726 1.45.755 2.26M191.737 140.601q0 .22-.037.438a2 2 0 0 1-.057.228 1.35 1.35 0 0 1-.605.802 1.26 1.26 0 0 1-.814.154 1 1 0 0 1-.025-.102 1.1 1.1 0 0 1 .091-.574.64.64 0 0 0 .409-.069.84.84 0 0 0 .344-.662 2 2 0 0 0 0-.215 3.75 3.75 0 0 0-1.165-2.484 2.8 2.8 0 0 0-.475-.355c-.371-.214-.711-.258-.942-.128s-.358.446-.358.878q.002.298.071.588l-.61.353v-.032a3.4 3.4 0 0 1-.132-.909c0-.687.245-1.206.701-1.471s1.024-.216 1.618.125q.41.245.735.596.255.266.461.571c.478.663.752 1.451.79 2.268M196.816 137.671q0 .222-.039.441a2 2 0 0 1-.056.225 1.35 1.35 0 0 1-.606.802c-.194.112-.415.17-.64.167a2 2 0 0 1-.174 0 1 1 0 0 1-.024-.106c-.022-.195.01-.392.09-.571a.64.64 0 0 0 .41-.071.834.834 0 0 0 .343-.637v-.241a3.5 3.5 0 0 0-.682-1.924 3.6 3.6 0 0 0-.49-.559 2.8 2.8 0 0 0-.476-.356c-.37-.21-.71-.257-.941-.125-.23.133-.36.447-.36.878q.003.297.071.586l-.593.343v-.032a3.4 3.4 0 0 1-.135-.907c0-.686.245-1.208.701-1.471.456-.262 1.027-.218 1.62.125.272.163.52.364.736.596q.253.266.458.571c.477.663.751 1.45.787 2.266M201.876 134.743q0 .222-.039.442a2 2 0 0 1-.056.22 1.34 1.34 0 0 1-.606.807 1.27 1.27 0 0 1-.64.167 2 2 0 0 1-.174 0 1 1 0 0 1-.022-.106 1.1 1.1 0 0 1 .088-.571.65.65 0 0 0 .41-.071.83.83 0 0 0 .343-.662q.013-.108.012-.216a3.5 3.5 0 0 0-.681-1.924 3.6 3.6 0 0 0-.491-.557 2.6 2.6 0 0 0-.475-.358c-.37-.211-.709-.257-.939-.125-.231.133-.361.444-.361.878q.002.298.072.588l-.611.351v-.032a3.4 3.4 0 0 1-.135-.907c0-.687.245-1.206.701-1.471s1.025-.218 1.621.125c.271.163.519.362.735.593q.254.267.461.571c.475.661.749 1.445.787 2.258" style="fill:#263238;fill:color(display-p3 .149 .1961 .2196);fill-opacity:1"/><path fill="#F7921E" d="m168.025 164.587 38.374-22.138-.833-5.854-38.38 22.14z" style="fill:#f7921e;fill:color(display-p3 .9686 .5725 .1176);fill-opacity:1"/><path fill="#fff" d="m168.025 164.587 38.374-22.138-.833-5.854-38.38 22.14z" opacity=".65" style="fill:#fff;fill-opacity:1"/><path fill="#F7921E" d="M171.05 166.006c.047.323.346.434.669.245l2.878-1.662a1.012 1.012 0 0 0 .491-.922c-.047-.324-.346-.434-.669-.245l-2.854 1.662a1.02 1.02 0 0 0-.515.922M175.907 163.202c.046.323.345.434.669.245l2.881-1.662a1.02 1.02 0 0 0 .49-.922c-.047-.324-.346-.434-.669-.245l-2.879 1.662a1.03 1.03 0 0 0-.492.922M180.766 160.397c.046.324.345.434.667.245l2.88-1.66c.16-.093.291-.228.379-.391.089-.162.132-.346.124-.53-.047-.324-.346-.434-.67-.246l-2.88 1.663a1.01 1.01 0 0 0-.5.919M185.622 157.592c.047.324.346.434.67.245l2.878-1.662a1.02 1.02 0 0 0 .502-.922c-.046-.323-.345-.434-.669-.245l-2.878 1.662a1.024 1.024 0 0 0-.503.922M190.479 154.788c.046.323.346.433.669.245l2.881-1.658a1.01 1.01 0 0 0 .49-.921c-.046-.324-.346-.434-.669-.246l-2.869 1.658a1.02 1.02 0 0 0-.502.922M195.345 151.983c.047.323.346.434.667.245l2.881-1.662a1.01 1.01 0 0 0 .49-.922c-.044-.324-.343-.434-.667-.245l-2.88 1.662a1.02 1.02 0 0 0-.491.922M200.194 149.179c.047.323.346.434.67.245l2.878-1.662a1.01 1.01 0 0 0 .503-.922c-.047-.324-.346-.434-.67-.245l-2.878 1.662a1.01 1.01 0 0 0-.503.922" style="fill:#f7921e;fill:color(display-p3 .9686 .5725 .1176);fill-opacity:1"/><g fill="#F7921E" opacity=".17"><path d="M207.439 166.04a.15.15 0 0 1-.104-.028.15.15 0 0 1-.06-.089l-2.346-16.387a.1.1 0 0 1 .006-.051.12.12 0 0 1 .121-.079.15.15 0 0 1 .105.03q.046.035.059.09l2.346 16.384a.1.1 0 0 1-.006.051.12.12 0 0 1-.07.072.1.1 0 0 1-.051.007M202.577 168.845a.15.15 0 0 1-.103-.028.15.15 0 0 1-.058-.089l-2.347-16.384a.124.124 0 0 1 .128-.133.16.16 0 0 1 .103.03q.046.035.059.09l2.341 16.384a.1.1 0 0 1-.005.05.2.2 0 0 1-.026.044.12.12 0 0 1-.092.036M197.718 171.653a.15.15 0 0 1-.103-.03.15.15 0 0 1-.058-.091l-2.347-16.384a.125.125 0 0 1 .034-.094.1.1 0 0 1 .043-.028.1.1 0 0 1 .051-.007.155.155 0 0 1 .162.117l2.346 16.382a.1.1 0 0 1-.005.052.123.123 0 0 1-.071.075.1.1 0 0 1-.052.008M192.859 174.459a.15.15 0 0 1-.104-.028.16.16 0 0 1-.06-.09l-2.346-16.383a.12.12 0 0 1 .034-.095.1.1 0 0 1 .043-.029.1.1 0 0 1 .051-.009.16.16 0 0 1 .104.03.16.16 0 0 1 .06.09l2.346 16.384a.12.12 0 0 1-.128.13M187.99 177.264a.16.16 0 0 1-.104-.03.16.16 0 0 1-.06-.09l-2.346-16.384a.12.12 0 0 1 .034-.095.1.1 0 0 1 .043-.028.1.1 0 0 1 .051-.007.15.15 0 0 1 .104.027q.046.035.06.09l2.346 16.384a.124.124 0 0 1-.128.133M183.141 180.069a.155.155 0 0 1-.164-.118l-2.341-16.386a.1.1 0 0 1 .006-.051.1.1 0 0 1 .028-.044.1.1 0 0 1 .042-.028.1.1 0 0 1 .051-.007.15.15 0 0 1 .164.12l2.347 16.384a.1.1 0 0 1-.007.052.1.1 0 0 1-.029.044.1.1 0 0 1-.045.028.1.1 0 0 1-.052.006M178.282 182.876a.158.158 0 0 1-.164-.121l-2.346-16.386a.1.1 0 0 1 .006-.051.12.12 0 0 1 .121-.079.153.153 0 0 1 .165.118l2.346 16.384a.126.126 0 0 1-.128.135M173.421 185.68a.16.16 0 0 1-.103-.029.16.16 0 0 1-.059-.089l-2.346-16.386a.1.1 0 0 1 .006-.051.12.12 0 0 1 .121-.079.16.16 0 0 1 .103.028q.046.034.059.09l2.349 16.386a.123.123 0 0 1-.13.13" style="fill:#f7921e;fill:color(display-p3 .9686 .5725 .1176);fill-opacity:1"/><path d="M171.663 173.393a.176.176 0 0 1-.135-.059.1.1 0 0 1-.025-.043.114.114 0 0 1 .015-.096.1.1 0 0 1 .037-.033l34.018-19.639a.16.16 0 0 1 .108-.017.17.17 0 0 1 .096.053.11.11 0 0 1 .029.095.1.1 0 0 1-.02.046.1.1 0 0 1-.039.033l-34.015 19.64a.2.2 0 0 1-.069.02M172.249 177.487a.17.17 0 0 1-.135-.057.106.106 0 0 1-.009-.139.1.1 0 0 1 .038-.032l34.016-19.64a.164.164 0 0 1 .204.037q.017.018.024.043a.1.1 0 0 1 .004.049.1.1 0 0 1-.019.046.1.1 0 0 1-.036.033l-34.019 19.64a.13.13 0 0 1-.068.02M172.835 181.584a.17.17 0 0 1-.135-.056.11.11 0 0 1 .029-.174l34.016-19.643a.17.17 0 0 1 .206.037.1.1 0 0 1 .025.044.12.12 0 0 1-.017.095.1.1 0 0 1-.037.033l-34.016 19.649a.15.15 0 0 1-.071.015" style="fill:#f7921e;fill:color(display-p3 .9686 .5725 .1176);fill-opacity:1"/><path d="M173.421 185.68a.16.16 0 0 1-.074-.015.14.14 0 0 1-.058-.04.13.13 0 0 1-.03-.063l-2.346-16.386a.1.1 0 0 1 .01-.064.1.1 0 0 1 .046-.046l34.016-19.64a.159.159 0 0 1 .147 0 .15.15 0 0 1 .088.105l2.346 16.384a.1.1 0 0 1-.013.064.1.1 0 0 1-.046.047l-34.015 19.634a.14.14 0 0 1-.071.02m-2.207-16.443 2.312 16.097 33.746-19.485-2.304-16.095z" style="fill:#f7921e;fill:color(display-p3 .9686 .5725 .1176);fill-opacity:1"/></g><g fill="#000" opacity=".17"><path d="M207.439 166.04a.15.15 0 0 1-.104-.028.15.15 0 0 1-.06-.089l-2.346-16.387a.1.1 0 0 1 .006-.051.12.12 0 0 1 .121-.079.15.15 0 0 1 .105.03q.046.035.059.09l2.346 16.384a.1.1 0 0 1-.006.051.12.12 0 0 1-.07.072.1.1 0 0 1-.051.007M202.577 168.845a.15.15 0 0 1-.103-.028.15.15 0 0 1-.058-.089l-2.347-16.384a.124.124 0 0 1 .128-.133.16.16 0 0 1 .103.03q.046.035.059.09l2.341 16.384a.1.1 0 0 1-.005.05.2.2 0 0 1-.026.044.12.12 0 0 1-.092.036M197.718 171.653a.15.15 0 0 1-.103-.03.15.15 0 0 1-.058-.091l-2.347-16.384a.125.125 0 0 1 .034-.094.1.1 0 0 1 .043-.028.1.1 0 0 1 .051-.007.155.155 0 0 1 .162.117l2.346 16.382a.1.1 0 0 1-.005.052.123.123 0 0 1-.071.075.1.1 0 0 1-.052.008M192.859 174.459a.15.15 0 0 1-.104-.028.16.16 0 0 1-.06-.09l-2.346-16.383a.12.12 0 0 1 .034-.095.1.1 0 0 1 .043-.029.1.1 0 0 1 .051-.009.16.16 0 0 1 .104.03.16.16 0 0 1 .06.09l2.346 16.384a.12.12 0 0 1-.128.13M187.99 177.264a.16.16 0 0 1-.104-.03.16.16 0 0 1-.06-.09l-2.346-16.384a.12.12 0 0 1 .034-.095.1.1 0 0 1 .043-.028.1.1 0 0 1 .051-.007.15.15 0 0 1 .104.027q.046.035.06.09l2.346 16.384a.124.124 0 0 1-.128.133M183.141 180.069a.155.155 0 0 1-.164-.118l-2.341-16.386a.1.1 0 0 1 .006-.051.1.1 0 0 1 .028-.044.1.1 0 0 1 .042-.028.1.1 0 0 1 .051-.007.15.15 0 0 1 .164.12l2.347 16.384a.1.1 0 0 1-.007.052.1.1 0 0 1-.029.044.1.1 0 0 1-.045.028.1.1 0 0 1-.052.006M178.282 182.876a.158.158 0 0 1-.164-.121l-2.346-16.386a.1.1 0 0 1 .006-.051.12.12 0 0 1 .121-.079.153.153 0 0 1 .165.118l2.346 16.384a.126.126 0 0 1-.128.135M173.421 185.68a.16.16 0 0 1-.103-.029.16.16 0 0 1-.059-.089l-2.346-16.386a.1.1 0 0 1 .006-.051.12.12 0 0 1 .121-.079.16.16 0 0 1 .103.028q.046.034.059.09l2.349 16.386a.123.123 0 0 1-.13.13" style="fill:#000;fill-opacity:1"/><path d="M171.663 173.393a.176.176 0 0 1-.135-.059.1.1 0 0 1-.025-.043.114.114 0 0 1 .015-.096.1.1 0 0 1 .037-.033l34.018-19.639a.16.16 0 0 1 .108-.017.17.17 0 0 1 .096.053.11.11 0 0 1 .029.095.1.1 0 0 1-.02.046.1.1 0 0 1-.039.033l-34.015 19.64a.2.2 0 0 1-.069.02M172.249 177.487a.17.17 0 0 1-.135-.057.106.106 0 0 1-.009-.139.1.1 0 0 1 .038-.032l34.016-19.64a.164.164 0 0 1 .204.037q.017.018.024.043a.1.1 0 0 1 .004.049.1.1 0 0 1-.019.046.1.1 0 0 1-.036.033l-34.019 19.64a.13.13 0 0 1-.068.02M172.835 181.584a.17.17 0 0 1-.135-.056.11.11 0 0 1 .029-.174l34.016-19.643a.17.17 0 0 1 .206.037.1.1 0 0 1 .025.044.12.12 0 0 1-.017.095.1.1 0 0 1-.037.033l-34.016 19.649a.15.15 0 0 1-.071.015" style="fill:#000;fill-opacity:1"/><path d="M173.421 185.68a.16.16 0 0 1-.074-.015.14.14 0 0 1-.058-.04.13.13 0 0 1-.03-.063l-2.346-16.386a.1.1 0 0 1 .01-.064.1.1 0 0 1 .046-.046l34.016-19.64a.159.159 0 0 1 .147 0 .15.15 0 0 1 .088.105l2.346 16.384a.1.1 0 0 1-.013.064.1.1 0 0 1-.046.047l-34.015 19.634a.14.14 0 0 1-.071.02m-2.207-16.443 2.312 16.097 33.746-19.485-2.304-16.095z" style="fill:#000;fill-opacity:1"/></g><path fill="#455A64" d="M177.395 171.003c1.132.228 2.272.419 3.41.615l.422.073c.198.035.277-.245.066-.282a272 272 0 0 0-3.234-.539l-.61-.088c-.169-.022-.245.189-.057.225z" style="fill:#455a64;fill:color(display-p3 .2706 .3529 .3922);fill-opacity:1"/><path fill="#455A64" d="M180.636 168.99q-.213.226-.378.49l-.654.996q-.736 1.1-1.439 2.206c-.148.228-.317.451-.447.689q-.021.034-.014.075a.1.1 0 0 0 .039.065l.034.022-.034-.113c-.044.069.083.189.135.11 0 .013.076-.029.09-.049l.03-.044.081-.125.245-.363.689-1.064 1.471-2.275a2.6 2.6 0 0 0 .292-.537c.022-.063-.067-.154-.121-.098zM182.156 168.085c1.13.228 2.27.419 3.407.615l.422.074c.199.034.277-.245.066-.282a279 279 0 0 0-3.231-.539l-.61-.093c-.17-.023-.231.188-.054.225" style="fill:#455a64;fill:color(display-p3 .2706 .3529 .3922);fill-opacity:1"/><path fill="#455A64" d="M185.394 166.068q-.212.225-.375.49l-.657.993c-.49.735-.958 1.471-1.437 2.206-.149.226-.316.451-.448.689a.1.1 0 0 0-.012.075.12.12 0 0 0 .039.065l.032.022-.032-.113c-.047.069.083.189.135.11 0 0 .073-.029.088-.049a.2.2 0 0 0 .029-.044l.081-.125.245-.363.689-1.064q.736-1.134 1.471-2.275.178-.251.294-.537c.022-.063-.066-.154-.122-.098zM187.076 165.278c1.133.228 2.27.419 3.408.615l.424.074c.196.032.277-.245.066-.282a260 260 0 0 0-3.234-.539q-.303-.05-.61-.094c-.169-.022-.23.189-.054.226" style="fill:#455a64;fill:color(display-p3 .2706 .3529 .3922);fill-opacity:1"/><path fill="#455A64" d="M190.315 163.265a3 3 0 0 0-.375.491l-.655.995q-.735 1.103-1.439 2.206c-.147.228-.316.454-.449.692q-.019.035-.012.075a.12.12 0 0 0 .039.065l.032.022-.032-.113c-.044.071.084.189.135.11 0 .015.074-.029.088-.046l.03-.045.068-.122.246-.365.688-1.062 1.471-2.275q.178-.253.292-.539c.022-.062-.066-.155-.122-.096zM191.969 162.447c1.131.228 2.271.419 3.408.615l.424.073c.196.032.277-.245.066-.282a283 283 0 0 0-3.233-.539 26 26 0 0 0-.611-.093c-.203-.029-.23.189-.054.226" style="fill:#455a64;fill:color(display-p3 .2706 .3529 .3922);fill-opacity:1"/><path fill="#455A64" d="M195.208 160.424a3 3 0 0 0-.375.49l-.655.996q-.735 1.103-1.439 2.206c-.149.228-.316.454-.448.691a.12.12 0 0 0-.013.075.1.1 0 0 0 .04.065l.031.022-.031-.112c-.047.071.083.188.134.11 0 .015.074-.03.089-.047l.029-.044.081-.127.245-.363.691-1.064q.736-1.134 1.471-2.273.176-.253.292-.539c.022-.061-.066-.155-.122-.096zM196.828 159.632c1.131.228 2.271.419 3.408.615l.422.074c.198.034.277-.245.066-.282a265 265 0 0 0-3.231-.539 22 22 0 0 0-.611-.093c-.203-.03-.23.188-.054.225" style="fill:#455a64;fill:color(display-p3 .2706 .3529 .3922);fill-opacity:1"/><path fill="#455A64" d="M200.067 157.619q-.212.225-.375.49-.328.5-.657.995c-.49.736-.959 1.471-1.437 2.207-.149.228-.316.453-.448.691a.1.1 0 0 0-.012.075.1.1 0 0 0 .039.065l.032.022c0-.037-.023-.073-.032-.113-.047.071.083.192.132.111 0 .014.076-.027.091-.047a.3.3 0 0 0 .029-.044l.081-.125.245-.365.689-1.062 1.471-2.275q.178-.251.294-.537c.022-.064-.066-.154-.122-.098zM178.037 174.781c1.13.23 2.27.421 3.408.617l.422.071c.198.035.277-.245.066-.279a272 272 0 0 0-3.231-.539q-.306-.05-.611-.094c-.203-.029-.23.189-.054.224" style="fill:#455a64;fill:color(display-p3 .2706 .3529 .3922);fill-opacity:1"/><path fill="#455A64" d="M181.276 172.768a3.2 3.2 0 0 0-.378.49q-.325.499-.655.995c-.49.736-.958 1.471-1.439 2.207-.147.228-.313.453-.446.691q-.019.036-.012.074a.1.1 0 0 0 .039.063l.032.025-.034-.113c-.047.071.083.189.132.111 0 .014.076-.03.091-.047s.019-.032.029-.044l.081-.128.245-.362.689-1.064q.736-1.134 1.471-2.276.179-.25.292-.536c.022-.064-.064-.155-.12-.098z" style="fill:#455a64;fill:color(display-p3 .2706 .3529 .3922);fill-opacity:1"/><path fill="#F7921E" d="M192.82 167.801a1.84 1.84 0 0 0-1.012-.442 2.42 2.42 0 0 0-2.035.64c-.069.069.066.199.14.138a2.37 2.37 0 0 1 1.76-.569c.313.02.614.131.865.319a.95.95 0 0 1 .324.823 3.5 3.5 0 0 1-.598 1.596 5.1 5.1 0 0 1-1.157 1.263 5.5 5.5 0 0 1-1.496.826c-.551.199-1.226.365-1.787.135a1.51 1.51 0 0 1-.863-1.373c.003-.688.204-1.36.579-1.937a5.6 5.6 0 0 1 1.566-1.603q.461-.346.981-.596a6.2 6.2 0 0 1 1.147-.377c.174-.047-.039-.17-.211-.143a3.1 3.1 0 0 0-.963.277 6.7 6.7 0 0 0-1.16.643c-.646.428-1.2.981-1.63 1.625a3.84 3.84 0 0 0-.625 2.077 1.81 1.81 0 0 0 .836 1.554c.598.353 1.358.26 1.99.061a5.9 5.9 0 0 0 1.716-.855 5.3 5.3 0 0 0 1.295-1.324 3.8 3.8 0 0 0 .696-1.768 1.22 1.22 0 0 0-.358-.99" style="fill:#f7921e;fill:color(display-p3 .9686 .5725 .1176);fill-opacity:1"/></svg>