<svg xmlns="http://www.w3.org/2000/svg" width="257" height="256" fill="none"><path stroke="#D5D5D5" d="M47.06 222.837c-22.474-11.768-33.56-27.116-33.56-42.333s11.084-30.568 33.56-42.341C69.524 126.397 99 120.5 128.502 120.5c29.503 0 58.977 5.897 81.439 17.663 22.473 11.773 33.558 27.122 33.559 42.337s-11.083 30.564-33.559 42.337C187.476 234.603 158.002 240.5 128.5 240.5s-58.976-5.897-81.44-17.663Z" style="stroke:#d5d5d5;stroke:color(display-p3 .8353 .8353 .8353);stroke-opacity:1"/><path fill="#F7921E" d="M156.265 11.452 72.359 59.836a3.47 3.47 0 0 0-1.567 2.718v143.514a3.45 3.45 0 0 0 1.572 2.714l.317.179a3.49 3.49 0 0 0 3.144 0l83.901-48.446a3.45 3.45 0 0 0 1.572-2.718V14.339a3.45 3.45 0 0 0-1.572-2.708l-.322-.184a3.48 3.48 0 0 0-3.139.005" style="fill:#f7921e;fill:color(display-p3 .9686 .5725 .1176);fill-opacity:1"/><path fill="#000" d="M156.265 11.452 72.359 59.836a3.47 3.47 0 0 0-1.567 2.718v143.514a3.45 3.45 0 0 0 1.572 2.714l.317.179a3.49 3.49 0 0 0 3.144 0l83.901-48.446a3.45 3.45 0 0 0 1.572-2.718V14.339a3.45 3.45 0 0 0-1.572-2.708l-.322-.184a3.48 3.48 0 0 0-3.139.005" opacity=".45" style="fill:#000;fill-opacity:1"/><path fill="#F7921E" d="M161.298 157.904c0 1.377-.968 2.258-2.171 2.949l-82.703 47.749c-1.193.686-2.171.133-2.171-1.254V65.217a4.32 4.32 0 0 1 2.16-3.743l82.714-47.77a1.45 1.45 0 0 1 2.171 1.255z" style="fill:#f7921e;fill:color(display-p3 .9686 .5725 .1176);fill-opacity:1"/><path fill="#000" d="M161.298 157.904c0 1.377-.968 2.258-2.171 2.949l-82.703 47.749c-1.193.686-2.171.133-2.171-1.254V65.217a4.32 4.32 0 0 1 2.16-3.743l82.714-47.77a1.45 1.45 0 0 1 2.171 1.255z" opacity=".3" style="fill:#000;fill-opacity:1"/><path fill="#F7921E" d="M161.299 14.34v.619a1.448 1.448 0 0 0-2.176-1.25L76.414 61.48a4.16 4.16 0 0 0-1.577 1.577.1.1 0 0 0-.026.046l-3.584-2.048a3.2 3.2 0 0 1 1.132-1.193l83.907-48.41a3.48 3.48 0 0 1 3.138 0l.318.185a3.45 3.45 0 0 1 1.577 2.703" style="fill:#f7921e;fill:color(display-p3 .9686 .5725 .1176);fill-opacity:1"/><path fill="#000" d="M161.299 14.34v.619a1.448 1.448 0 0 0-2.176-1.25L76.414 61.48a4.16 4.16 0 0 0-1.577 1.577.1.1 0 0 0-.026.046l-3.584-2.048a3.2 3.2 0 0 1 1.132-1.193l83.907-48.41a3.48 3.48 0 0 1 3.138 0l.318.185a3.45 3.45 0 0 1 1.577 2.703" opacity=".2" style="fill:#000;fill-opacity:1"/><path fill="#000" d="M159.25 153.588c0 1.418-.998 2.325-2.232 3.036l-78.167 45.133c-1.23.707-2.238.133-2.238-1.295V73.214a4.45 4.45 0 0 1 2.228-3.85l78.177-45.153a1.49 1.49 0 0 1 2.232 1.29z" opacity=".25" style="fill:#000;fill-opacity:1"/><path fill="#F5F5F5" d="M78.61 71.053 156.5 26.09a1.45 1.45 0 0 1 1.331 0l.752.43a1.48 1.48 0 0 1 .666 1.157v127.877a1.48 1.48 0 0 1-.666 1.157l-77.88 44.964a1.46 1.46 0 0 1-1.336 0l-.758-.435a1.47 1.47 0 0 1-.666-1.152V72.211a1.48 1.48 0 0 1 .666-1.158" style="fill:#f5f5f5;fill:color(display-p3 .9608 .9608 .9608);fill-opacity:1"/><path fill="#E0E0E0" d="M80.546 201.747q-.123.045-.251.066h-.128q-.203.022-.405 0a1.3 1.3 0 0 1-.246-.066l-.148-.072-.758-.43a1.49 1.49 0 0 1-.67-1.157V72.211a1.3 1.3 0 0 1 .194-.656l2.084 1.203a1.4 1.4 0 0 0-.195.656V201.29c.01.363.226.543.523.456" style="fill:#e0e0e0;fill:color(display-p3 .8784 .8784 .8784);fill-opacity:1"/><path fill="#F7921E" d="m158.584 26.52-.752-.43a1.46 1.46 0 0 0-1.331 0L78.61 71.053a1.48 1.48 0 0 0-.666 1.157v14.73l2.084 1.214 79.222-45.737v-14.74a1.48 1.48 0 0 0-.666-1.157" style="fill:#f7921e;fill:color(display-p3 .9686 .5725 .1176);fill-opacity:1"/><path fill="#fff" d="m158.584 26.52-.752-.43a1.46 1.46 0 0 0-1.331 0L78.61 71.053a1.48 1.48 0 0 0-.666 1.157v14.73l2.084 1.214 79.222-45.737v-14.74a1.48 1.48 0 0 0-.666-1.157" opacity=".4" style="fill:#fff;fill-opacity:1"/><path fill="#F7921E" d="M159.23 27.472c-.082-.271-.343-.359-.645-.184l-77.88 44.969a1.35 1.35 0 0 0-.477.512l-2.084-1.234c.11-.21.275-.387.477-.512L156.5 26.09a1.46 1.46 0 0 1 1.331 0l.753.43a1.48 1.48 0 0 1 .645.952" style="fill:#f7921e;fill:color(display-p3 .9686 .5725 .1176);fill-opacity:1"/><path fill="#fff" d="M159.23 27.472c-.082-.271-.343-.359-.645-.184l-77.88 44.969a1.35 1.35 0 0 0-.477.512l-2.084-1.234c.11-.21.275-.387.477-.512L156.5 26.09a1.46 1.46 0 0 1 1.331 0l.753.43a1.48 1.48 0 0 1 .645.952" opacity=".6" style="fill:#fff;fill-opacity:1"/><path fill="#F7921E" d="M77.95 72.21v14.741l2.083 1.203V73.41c.01-.232.076-.457.195-.656l-2.084-1.218a1.3 1.3 0 0 0-.195.675M141.827 71.08l-43.11 24.887c-.205.123-.374 0-.374-.281V83.792a.9.9 0 0 1 .373-.712l43.111-24.888c.205-.123.374 0 .374.282v11.888a.9.9 0 0 1-.374.717" style="fill:#f7921e;fill:color(display-p3 .9686 .5725 .1176);fill-opacity:1"/><path fill="#fff" d="m141.827 71.08-43.11 24.887c-.205.123-.374 0-.374-.281V83.792a.9.9 0 0 1 .373-.712l43.111-24.888c.205-.123.374 0 .374.282v11.888a.9.9 0 0 1-.374.717" opacity=".4" style="fill:#fff;fill-opacity:1"/><path fill="#fff" d="M113.293 83.111a.13.13 0 0 1 .149 0q.035.03.053.074.017.043.013.09v1.116a.5.5 0 0 1-.066.236.4.4 0 0 1-.149.169l-3.655 2.099a.123.123 0 0 1-.149 0 .2.2 0 0 1-.05-.075.2.2 0 0 1-.011-.09v-6.783a.5.5 0 0 1 .061-.236.43.43 0 0 1 .149-.174l1.024-.594a.12.12 0 0 1 .074-.025.12.12 0 0 1 .074.025q.037.03.054.074t.013.09v5.402zM114.317 79.583q.027-.623.195-1.223.173-.62.481-1.183.32-.556.758-1.024a4.4 4.4 0 0 1 1.024-.824c.31-.196.66-.32 1.024-.364.266-.03.534.03.763.17.22.156.387.375.481.629.119.32.183.657.189.998v1.874q-.025.62-.189 1.219-.176.62-.481 1.188-.318.572-.763 1.05c-.299.32-.644.594-1.024.813-.311.197-.66.324-1.024.374a1.13 1.13 0 0 1-.758-.174 1.32 1.32 0 0 1-.481-.63 3 3 0 0 1-.195-1.024v-.916c0-.328-.01-.645 0-.953m3.466-.179v-1.766a1.5 1.5 0 0 0-.082-.44.6.6 0 0 0-.189-.272.43.43 0 0 0-.302-.082 1 1 0 0 0-.43.149q-.237.142-.425.343-.179.195-.302.43a2.685 2.685 0 0 0-.272 1.024v1.7659999999999998a.98.98 0 0 0 .272.717c.158.138.404.113.727-.077.315-.173.569-.44.727-.763.158-.322.252-.671.276-1.029M123.349 71.622c.102-.062.184-.067.24 0a.33.33 0 0 1 .113.164l1.72 5.632a.35.35 0 0 1 0 .332.33.33 0 0 1-.123.139l-.998.573q-.155.093-.225.041a.22.22 0 0 1-.082-.123l-.221-.747-2.099 1.213-.22.998a.8.8 0 0 1-.082.22.6.6 0 0 1-.225.22l-.993.574a.1.1 0 0 1-.062.02.1.1 0 0 1-.061-.02.15.15 0 0 1-.051-.133 1 1 0 0 1 .03-.18l1.721-7.623a1.4 1.4 0 0 1 .112-.297.6.6 0 0 1 .241-.25zm-1.28 5.34 1.28-.737-.64-2.161zM130.081 75.119a.22.22 0 0 1-.22.03.3.3 0 0 1-.102-.086l-1.808-2.56v3.558a.5.5 0 0 1-.066.236.38.38 0 0 1-.149.169l-1.024.599a.12.12 0 0 1-.074.025.12.12 0 0 1-.074-.025.19.19 0 0 1-.062-.164v-6.805a.52.52 0 0 1 .21-.41l.819-.47q.138-.085.221-.031a.3.3 0 0 1 .107.082l1.808 2.56v-3.553a.5.5 0 0 1 .061-.236.43.43 0 0 1 .148-.174l1.024-.594a.14.14 0 0 1 .077-.024q.043 0 .077.024a.2.2 0 0 1 .05.075q.017.043.011.089v6.8a.5.5 0 0 1-.061.235.4.4 0 0 1-.154.169z" style="fill:#fff;fill-opacity:1"/><path fill="#E0E0E0" d="M131.454 89.696a.7.7 0 0 1 .292 0 .503.503 0 0 1 .379.261q.055.108.056.23a.2.2 0 0 1 0 .087.13.13 0 0 1-.051.061l-.476.277a.15.15 0 0 1-.082.026.1.1 0 0 1-.062 0l-.035-.031-.067-.03h-.107a.6.6 0 0 0-.159.066l-.133.087a.8.8 0 0 0-.195.225.4.4 0 0 0-.031.138.123.123 0 0 0 .036.102q.059.021.118 0a1.4 1.4 0 0 0 .215-.045l.333-.103q.17-.054.348-.066a.5.5 0 0 1 .251.061.42.42 0 0 1 .148.205q.052.181.046.368a1.6 1.6 0 0 1-.056.405q-.059.207-.164.394-.107.196-.256.364a2.4 2.4 0 0 1-.322.317v.343a.2.2 0 0 1-.031.108.17.17 0 0 1-.072.077l-.471.276a.06.06 0 0 1-.071 0 .1.1 0 0 1-.025-.035.1.1 0 0 1-.006-.042v-.353a.75.75 0 0 1-.312.026.5.5 0 0 1-.241-.088.45.45 0 0 1-.154-.184.6.6 0 0 1-.056-.26.21.21 0 0 1 .077-.154l.476-.272a.15.15 0 0 1 .077-.03.14.14 0 0 1 .061 0 .264.264 0 0 0 .118.082q.061.015.123 0a.5.5 0 0 0 .184-.072q.178-.098.323-.241a.38.38 0 0 0 .128-.276.1.1 0 0 0-.009-.054.1.1 0 0 0-.037-.039.3.3 0 0 0-.144 0 2 2 0 0 0-.24.062l-.348.102a.55.55 0 0 1-.543-.04.7.7 0 0 1-.174-.564q.001-.18.046-.353.049-.192.138-.369.092-.186.215-.353.132-.171.292-.318v-.358a.2.2 0 0 1 .031-.107.2.2 0 0 1 .071-.082l.471-.272a.06.06 0 0 1 .072 0s.031.036.031.072zM133.906 88.282a.75.75 0 0 1 .297 0 .51.51 0 0 1 .374.267c.036.07.056.15.056.23a.2.2 0 0 1 0 .087.2.2 0 0 1-.051.061l-.476.277a.25.25 0 0 1-.149.025l-.031-.03-.071-.031a.4.4 0 0 0-.108 0 .6.6 0 0 0-.158.067l-.134.087-.112.102a1 1 0 0 0-.077.123.35.35 0 0 0-.026.192.2.2 0 0 0 .026.048.16.16 0 0 0 .118 0 .8.8 0 0 0 .215-.04l.333-.103q.17-.054.348-.066a.47.47 0 0 1 .251.061c.071.05.123.122.148.205q.056.18.051.369 0 .206-.061.404-.057.207-.164.394-.105.196-.251.364-.15.172-.328.317v.323a.2.2 0 0 1-.03.107.2.2 0 0 1-.067.077l-.476.276a.06.06 0 0 1-.036.012.06.06 0 0 1-.036-.011.1.1 0 0 1 0-.077v-.359a.8.8 0 0 1-.317.031.5.5 0 0 1-.236-.087.44.44 0 0 1-.153-.184.7.7 0 0 1-.062-.267.2.2 0 0 1 0-.087.13.13 0 0 1 .052-.061l.476-.276a.2.2 0 0 1 .082 0h.056l.041.04a.24.24 0 0 0 .205.041.6.6 0 0 0 .184-.071q.175-.1.317-.24a.37.37 0 0 0 .128-.277.1.1 0 0 0-.008-.053.1.1 0 0 0-.038-.04.23.23 0 0 0-.138 0 2 2 0 0 0-.246.062l-.343.102a.57.57 0 0 1-.547-.04.73.73 0 0 1-.175-.564q.004-.18.052-.353c.112-.396.336-.752.645-1.024v-.359a.3.3 0 0 1 0-.107.2.2 0 0 1 .071-.082l.477-.271a.05.05 0 0 1 .066 0s.031.035.031.071zM136.348 86.895a.7.7 0 0 1 .297 0 .514.514 0 0 1 .436.492.2.2 0 0 1 0 .092.13.13 0 0 1-.052.061l-.476.271a.2.2 0 0 1-.082.031.14.14 0 0 1-.061 0l-.036-.03a.12.12 0 0 0-.066-.031.2.2 0 0 0-.108 0 .5.5 0 0 0-.164.066l-.128.087a.5.5 0 0 0-.112.103.4.4 0 0 0-.113.26.1.1 0 0 0 .006.056.1.1 0 0 0 .03.047.17.17 0 0 0 .112 0q.113-.013.221-.046l.332-.097q.17-.06.348-.067a.4.4 0 0 1 .246.062c.071.05.123.122.149.205q.059.177.051.363a1.6 1.6 0 0 1-.056.41 2.4 2.4 0 0 1-.164.394q-.11.196-.256.363-.148.174-.328.313v.343a.23.23 0 0 1-.026.112.2.2 0 0 1-.071.077l-.476.277a.05.05 0 0 1-.034.012.05.05 0 0 1-.033-.012.1.1 0 0 1-.024-.035.1.1 0 0 1-.007-.042v-.358a.9.9 0 0 1-.312.03.6.6 0 0 1-.241-.087.45.45 0 0 1-.153-.184.6.6 0 0 1-.057-.266.2.2 0 0 1 0-.087.14.14 0 0 1 .057-.062l.471-.276a.16.16 0 0 1 .082-.026.1.1 0 0 1 .056 0l.046.036a.2.2 0 0 0 .077.046.3.3 0 0 0 .123 0 .5.5 0 0 0 .184-.072q.176-.1.323-.24a.4.4 0 0 0 .128-.277q0-.077-.046-.092a.25.25 0 0 0-.144 0 2 2 0 0 0-.24.061l-.349.103a.57.57 0 0 1-.542-.041.72.72 0 0 1-.174-.568q0-.18.046-.354.047-.19.138-.363a1.8 1.8 0 0 1 .215-.353q.132-.172.292-.318v-.39a.25.25 0 0 1 .031-.112.2.2 0 0 1 .066-.076l.476-.277a.06.06 0 0 1 .072 0q.016.015.022.035a.1.1 0 0 1 .004.042zM138.801 85.456a.7.7 0 0 1 .297 0 .51.51 0 0 1 .374.266q.056.106.056.226a.16.16 0 0 1 0 .087.2.2 0 0 1-.056.066l-.476.272a.15.15 0 0 1-.077.03.2.2 0 0 1-.067-.025h-.036a.1.1 0 0 0-.066-.031.2.2 0 0 0-.108 0 .36.36 0 0 0-.158.067.8.8 0 0 0-.134.087.7.7 0 0 0-.112.102.5.5 0 0 0-.082.123.3.3 0 0 0-.031.138.14.14 0 0 0 .036.102.2.2 0 0 0 .118 0q.11-.013.215-.046l.333-.097q.168-.061.348-.066a.4.4 0 0 1 .251.061.4.4 0 0 1 .148.205q.052.178.046.363.003.21-.056.41a2 2 0 0 1-.164.394 2.2 2.2 0 0 1-.578.676v.343a.2.2 0 0 1-.031.108.2.2 0 0 1-.067.082l-.476.27a.07.07 0 0 1-.072 0 .1.1 0 0 1-.025-.076v-.358a.9.9 0 0 1-.318.03.6.6 0 0 1-.235-.087.5.5 0 0 1-.159-.184.7.7 0 0 1-.056-.266.2.2 0 0 1 .025-.087.13.13 0 0 1 .052-.062l.476-.276a.2.2 0 0 1 .077-.03.14.14 0 0 1 .061 0l.041.035a.2.2 0 0 0 .082.046q.062.015.123 0a.4.4 0 0 0 .179-.072q.178-.098.323-.24a.37.37 0 0 0 .128-.272.1.1 0 0 0-.009-.055.1.1 0 0 0-.038-.042.3.3 0 0 0-.143 0 2 2 0 0 0-.241.056l-.343.108a.58.58 0 0 1-.547-.041.76.76 0 0 1-.175-.568q0-.169.036-.333.051-.19.139-.364.092-.187.22-.353.127-.178.292-.323v-.358a.3.3 0 0 1 .025-.108.2.2 0 0 1 .072-.076l.476-.277a.05.05 0 0 1 .033-.012q.02 0 .034.012.016.015.024.035a.1.1 0 0 1 .006.042zM154.008 70.849l-67.472 38.953c-.235.133-.425 0-.425-.323a1.02 1.02 0 0 1 .425-.809l67.472-38.953c.23-.133.419 0 .419.323a1.02 1.02 0 0 1-.419.809M154.008 74.873l-67.472 38.953c-.235.138-.425 0-.425-.317a1.03 1.03 0 0 1 .425-.809l67.472-38.953c.23-.138.419 0 .419.317a1.02 1.02 0 0 1-.419.81M154.008 78.903 140.9 86.465c-.23.138-.42 0-.42-.318a1.02 1.02 0 0 1 .42-.814l13.108-7.562c.23-.133.419 0 .419.317a1.029 1.029 0 0 1-.419.814M128.346 93.715l-41.81 24.14c-.235.133-.425 0-.425-.322a1.03 1.03 0 0 1 .425-.809l41.81-24.141c.236-.133.425 0 .425.323a1.02 1.02 0 0 1-.425.808M154.008 82.927 86.536 121.88c-.235.133-.425 0-.425-.323a1.02 1.02 0 0 1 .425-.809l67.472-38.973c.23-.133.419 0 .419.322a1.02 1.02 0 0 1-.419.83M154.008 86.951l-67.472 38.953c-.235.139-.425 0-.425-.317a1.03 1.03 0 0 1 .425-.809l67.472-38.953c.23-.138.419 0 .419.317a1.02 1.02 0 0 1-.419.81M137.03 100.78l-50.494 29.154c-.235.133-.425 0-.425-.323a1.02 1.02 0 0 1 .425-.809l50.494-29.153c.23-.133.42 0 .42.322a1.03 1.03 0 0 1-.42.809M97.734 149.359a.7.7 0 0 1 .297 0 .5.5 0 0 1 .225.092.5.5 0 0 1 .149.174.5.5 0 0 1 .056.225.2.2 0 0 1 0 .093.2.2 0 0 1-.051.061l-.477.271a.2.2 0 0 1-.081.031.2.2 0 0 1-.067 0l-.03-.031a.13.13 0 0 0-.072-.03.2.2 0 0 0-.108 0 .5.5 0 0 0-.159.066l-.133.087a1 1 0 0 0-.112.103.5.5 0 0 0-.077.123.34.34 0 0 0-.026.192.1.1 0 0 0 .026.048.16.16 0 0 0 .118 0 1 1 0 0 0 .215-.046l.332-.097q.17-.058.349-.067a.372.372 0 0 1 .4.266q.053.178.05.364 0 .21-.061.41-.058.207-.164.394a2 2 0 0 1-.266.343q-.15.17-.328.312v.343a.25.25 0 0 1-.097.19l-.477.276a.06.06 0 0 1-.035.012.06.06 0 0 1-.036-.012.1.1 0 0 1 0-.077v-.358a.9.9 0 0 1-.318.031.6.6 0 0 1-.235-.087.45.45 0 0 1-.154-.185.7.7 0 0 1-.061-.266.2.2 0 0 1 0-.087.13.13 0 0 1 .051-.061l.476-.277a.16.16 0 0 1 .082 0h.056l.041.036a.2.2 0 0 0 .082.046q.061.013.123 0a.6.6 0 0 0 .184-.072 1.6 1.6 0 0 0 .318-.24.4.4 0 0 0 .128-.277q0-.077-.046-.092a.23.23 0 0 0-.138 0 2 2 0 0 0-.246.062l-.343.102a.58.58 0 0 1-.548-.041.74.74 0 0 1-.174-.568q.004-.18.051-.354.05-.188.133-.363c.128-.254.301-.481.512-.671v-.358a.3.3 0 0 1 0-.113.2.2 0 0 1 .072-.077l.476-.276a.05.05 0 0 1 .033-.012.05.05 0 0 1 .034.012q.016.014.024.035a.1.1 0 0 1 .006.042zM100.181 147.945a.7.7 0 0 1 .297 0 .5.5 0 0 1 .225.093.44.44 0 0 1 .148.174q.056.106.062.225a.2.2 0 0 1 0 .092.2.2 0 0 1-.051.062l-.476.271a.2.2 0 0 1-.082.031.2.2 0 0 1-.062-.026l-.036-.026a.1.1 0 0 0-.066-.03.2.2 0 0 0-.108 0 .4.4 0 0 0-.164.066 1 1 0 0 0-.128.087.6.6 0 0 0-.112.103.4.4 0 0 0-.082.123.3.3 0 0 0-.03.138.12.12 0 0 0 .035.102.17.17 0 0 0 .113 0 1 1 0 0 0 .215-.046l.338-.097a1 1 0 0 1 .348-.067.38.38 0 0 1 .245.062.36.36 0 0 1 .149.205q.059.177.051.363-.002.208-.056.41a2.4 2.4 0 0 1-.164.394 2.368 2.368 0 0 1-.584.676v.343a.3.3 0 0 1 0 .107.2.2 0 0 1-.071.082l-.477.272a.1.1 0 0 1-.033.009.1.1 0 0 1-.033-.009.091.091 0 0 1-.03-.077v-.359a.9.9 0 0 1-.313.031.6.6 0 0 1-.24-.087.45.45 0 0 1-.154-.184.6.6 0 0 1-.057-.266.2.2 0 0 1 0-.087.14.14 0 0 1 .057-.062l.47-.276a.2.2 0 0 1 .083-.031h.056l.046.036a.2.2 0 0 0 .077.046q.06.012.123 0a.6.6 0 0 0 .184-.072q.176-.103.323-.246a.4.4 0 0 0 .128-.271.1.1 0 0 0-.009-.056.1.1 0 0 0-.038-.041.3.3 0 0 0-.143 0 1.3 1.3 0 0 0-.24.061l-.349.103a.6.6 0 0 1-.547-.041.76.76 0 0 1-.17-.569q.002-.18.047-.353a1.7 1.7 0 0 1 .138-.364 1.8 1.8 0 0 1 .215-.353q.132-.174.292-.322v-.359a.2.2 0 0 1 .03-.107.2.2 0 0 1 .067-.077l.476-.277a.1.1 0 0 1 .036-.011q.02 0 .036.011a.1.1 0 0 1 0 .077zM102.634 146.528a.7.7 0 0 1 .297 0 .505.505 0 0 1 .43.491.2.2 0 0 1 0 .087.14.14 0 0 1-.057.062l-.476.276a.1.1 0 0 1-.077 0 .1.1 0 0 1-.066 0l-.036-.026a.15.15 0 0 0-.067-.035h-.107a.5.5 0 0 0-.159.066 1 1 0 0 0-.133.092.7.7 0 0 0-.113.103.5.5 0 0 0-.081.123.3.3 0 0 0-.031.138.12.12 0 0 0 .036.097.15.15 0 0 0 .117.026q.11-.015.215-.046l.333-.103q.17-.054.348-.066a.4.4 0 0 1 .251.066q.106.077.149.2.05.18.046.369.001.206-.056.404a2 2 0 0 1-.164.394q-.11.196-.251.369a3 3 0 0 1-.328.312v.343a.2.2 0 0 1-.031.108.2.2 0 0 1-.066.082l-.476.271a.06.06 0 0 1-.072 0v-.43a.8.8 0 0 1-.317.026.5.5 0 0 1-.236-.087.45.45 0 0 1-.159-.185.7.7 0 0 1-.056-.261.2.2 0 0 1 0-.092.2.2 0 0 1 .051-.061l.476-.272a.2.2 0 0 1 .077-.031.1.1 0 0 1 .062 0l.041.036.081.046a.434.434 0 0 0 .303-.071q.177-.098.322-.241a.38.38 0 0 0 .128-.276.093.093 0 0 0-.046-.093.25.25 0 0 0-.143 0q-.123.016-.241.057l-.343.102a.57.57 0 0 1-.548-.036.74.74 0 0 1-.174-.568q.001-.18.046-.353.053-.191.138-.369a3 3 0 0 1 .221-.353q.127-.175.291-.318v-.358a.2.2 0 0 1 .025-.105.2.2 0 0 1 .073-.079l.476-.277a.05.05 0 0 1 .033-.012.05.05 0 0 1 .033.012q.017.015.025.035a.1.1 0 0 1 .006.042zM105.08 145.114a.7.7 0 0 1 .297 0 .52.52 0 0 1 .374.261.6.6 0 0 1 .062.231.2.2 0 0 1 0 .087.2.2 0 0 1-.052.061l-.476.277a.2.2 0 0 1-.082 0 .12.12 0 0 1-.066 0l-.031-.031-.067-.031h-.112a.7.7 0 0 0-.159.067l-.133.087-.113.107a.6.6 0 0 0-.077.118.35.35 0 0 0-.025.194.1.1 0 0 0 .031.047.17.17 0 0 0 .112.025q.11-.013.215-.046l.338-.102q.17-.056.348-.067a.46.46 0 0 1 .246.062c.071.05.123.122.149.205q.058.179.051.368a1.4 1.4 0 0 1-.062.405q-.056.208-.163.394-.105.196-.251.363a2.4 2.4 0 0 1-.328.318v.333a.2.2 0 0 1-.031.107.17.17 0 0 1-.066.077l-.476.276a.06.06 0 0 1-.034.013.05.05 0 0 1-.033-.013.1.1 0 0 1-.025-.034.1.1 0 0 1-.006-.042v-.354a.75.75 0 0 1-.312.026.5.5 0 0 1-.241-.087.44.44 0 0 1-.153-.184.7.7 0 0 1-.062-.261.2.2 0 0 1 0-.093.2.2 0 0 1 .051-.061l.477-.271a.2.2 0 0 1 .082-.031.1.1 0 0 1 .056 0l.046.041a.22.22 0 0 0 .2.041.5.5 0 0 0 .184-.072q.177-.096.317-.241a.38.38 0 0 0 .133-.276.1.1 0 0 0-.01-.055.1.1 0 0 0-.041-.037.3.3 0 0 0-.138 0 2 2 0 0 0-.241.061l-.348.103a.56.56 0 0 1-.548-.041.74.74 0 0 1-.169-.564q.002-.179.047-.353.049-.19.133-.368a2.3 2.3 0 0 1 .512-.671v-.359q0-.057.03-.107a.2.2 0 0 1 .067-.082l.476-.271a.05.05 0 0 1 .033-.013q.02 0 .034.013s.03.035.03.071zM154.008 111.041l-67.472 38.953c-.235.138-.425 0-.425-.318a1.02 1.02 0 0 1 .425-.809l67.472-38.932c.23-.138.419 0 .419.317a1.03 1.03 0 0 1-.419.789M154.008 115.055l-67.472 38.968c-.235.133-.425 0-.425-.322a1.03 1.03 0 0 1 .425-.809l67.472-38.953c.23-.133.419 0 .419.322a1.02 1.02 0 0 1-.419.794M154.007 119.094l-46.822 27.034c-.236.133-.425 0-.425-.323a1.01 1.01 0 0 1 .425-.809l46.822-27.033c.231-.133.42 0 .42.322a1.02 1.02 0 0 1-.42.809M94.626 153.378l-8.09 4.685c-.235.133-.425 0-.425-.323a1.02 1.02 0 0 1 .425-.809l8.09-4.669c.235-.138.425 0 .425.317a1.02 1.02 0 0 1-.425.799M154.008 123.119l-67.472 38.953c-.235.138-.425 0-.425-.318a1.02 1.02 0 0 1 .425-.809l67.472-38.953c.23-.138.419 0 .419.318a1.03 1.03 0 0 1-.419.809M154.008 127.148l-67.472 38.953c-.235.133-.425 0-.425-.323a1.02 1.02 0 0 1 .425-.809l67.472-38.952c.23-.134.419 0 .419.322a1.03 1.03 0 0 1-.419.809M154.008 96.705l-67.472 38.953c-.235.133-.425 0-.425-.323a1.02 1.02 0 0 1 .425-.809l67.472-38.927c.23-.133.419 0 .419.323a1.01 1.01 0 0 1-.419.783M154.008 100.719l-67.472 38.963c-.235.133-.425 0-.425-.322a1.02 1.02 0 0 1 .425-.809l67.472-38.953c.23-.133.419 0 .419.322a1.01 1.01 0 0 1-.419.799M154.008 104.753l-67.472 38.974c-.235.138-.425 0-.425-.318a1.02 1.02 0 0 1 .425-.809l67.472-38.953c.23-.138.419 0 .419.318a1.02 1.02 0 0 1-.419.788M154.008 147.218l-25.969 14.992c-.23.138-.42 0-.42-.318a1.02 1.02 0 0 1 .42-.814l25.969-14.986c.23-.138.419 0 .419.317a1.02 1.02 0 0 1-.419.809M112.5 171.18l-25.964 14.992c-.235.138-.425 0-.425-.318a1.02 1.02 0 0 1 .425-.809l25.964-14.991c.235-.138.425 0 .425.317a1.03 1.03 0 0 1-.425.809" style="fill:#e0e0e0;fill:color(display-p3 .8784 .8784 .8784);fill-opacity:1"/><path fill="#455A64" d="M86.08 182.311c2.458-1.362 4.89-3.707 6.969-6.656a33.6 33.6 0 0 0 2.734-4.634c.404-.829.778-1.684 1.111-2.56.251-.65.681-1.679.277-2.007-.405-.327-1.152.364-1.608.845a13 13 0 0 0-1.659 2.314 46 46 0 0 0-2.724 5.223 28 28 0 0 0-1.787 5.432c-.158.748-.4 1.782-.061 2.212.338.43 1.07 0 1.582-.389 1.454-1.091 2.775-3.159 3.886-5.002a44.6 44.6 0 0 0 3.072-6.144c.051-.123 0-.236-.051-.262-.312-.128-.66.21-.958.661a19 19 0 0 0-1.024 1.864 26.6 26.6 0 0 0-1.592 3.988 3.2 3.2 0 0 0-.23 1.582.465.465 0 0 0 .39.399.5.5 0 0 0 .198-.015c.594-.169 1.219-1.121 1.634-1.853a13.6 13.6 0 0 0 1.536-4.24c.036-.174-.159-.266-.256-.087a12.2 12.2 0 0 0-1.147 3.251c-.123.594-.261 1.741.338 1.536.46-.174.952-1.116 1.249-1.674a25 25 0 0 0 1.362-3.338l-.154-.108a20 20 0 0 0-.425 2.048c-.061.436-.123 1.076.205 1.127s.63-.753.784-1.142q.386-1.026.66-2.089l-.184-.087c-.256.937-.722 3.4.445 2.596a6 6 0 0 0 1.096-1.142c.363-.461.722-.947 1.06-1.454a25.8 25.8 0 0 0 2.529-5.012c.348-.907.66-1.823.957-2.745.297-.921.584-1.771.814-2.647.154-.578.39-1.49.098-1.802s-.732.594-.942 1.024c-.85 1.807-1.536 3.645-2.217 5.509-.604 1.659-1.188 3.323-1.628 5.002-.282 1.065-.512 2.535.363 2.514.512 0 1.024-.768 1.398-1.444.44-.814.84-1.679 1.218-2.534a45 45 0 0 0 2.202-6.144c.061-.225-.215-.322-.302-.082a39 39 0 0 0-.886 2.898c-.123.481-.23.952-.328 1.429q-.154.671-.225 1.356c-.031.512.205.891.609.569.512-.4.856-1.408 1.024-2.048h-.271a3.4 3.4 0 0 0 .113 1.182c.128.241.322.195.573.041a3.7 3.7 0 0 1 1.229-.353l1.26-.256c.215-.041.199-.425 0-.389l-1.813.363a2.3 2.3 0 0 0-.753.267c-.179.112-.271.092-.312-.149-.041-.24 0-.542-.036-.798 0-.113-.215-.236-.271 0a4.4 4.4 0 0 1-.809 1.776c-.512.558-.123-1.193-.072-1.469.282-1.454.694-2.88 1.229-4.26l-.276-.097a46 46 0 0 1-1.536 4.515 35 35 0 0 1-1.91 4.153c-.297.512-.794 1.28-1.162 1.024-.292-.2-.19-.901-.093-1.408q.428-1.921 1.091-3.774c.512-1.536 1.024-3.072 1.623-4.551q.456-1.147.968-2.274.21-.57.512-1.095c.066-.092.23-.205.297-.139q.015.106 0 .21a4 4 0 0 1-.149.758c-.21.799-.512 1.598-.747 2.396a40 40 0 0 1-.727 2.207 33 33 0 0 1-1.844 4.332 20 20 0 0 1-2.293 3.456c-.256.307-.758.936-1.024.885-.267-.051-.149-.583-.128-.875q.067-.728.24-1.439c.041-.159-.128-.297-.184-.087q-.178.707-.425 1.413c-.14.474-.34.928-.594 1.352-.24.322-.261.025-.246-.22.016-.246.062-.512.093-.738q.092-.794.286-1.571c.036-.139-.087-.308-.153-.108a28 28 0 0 1-1.3 3.021 6.8 6.8 0 0 1-1.025 1.587c-.604.625-.22-1.024-.123-1.434.228-.92.572-1.808 1.024-2.642l-.256-.081a13.6 13.6 0 0 1-1.413 3.87c-.292.538-1.346 2.289-1.71 1.726-.22-.338.102-1.188.266-1.7.236-.748.512-1.48.814-2.207s.59-1.3.922-1.92c.205-.389.947-1.92 1.29-1.782 0-.087-.036-.174-.051-.261a45 45 0 0 1-2.453 5.049 31.6 31.6 0 0 1-2.995 4.546 6.8 6.8 0 0 1-1.792 1.633c-.291.164-.69.354-.793-.041a3.4 3.4 0 0 1 .102-1.239 25.3 25.3 0 0 1 1.49-4.956 42 42 0 0 1 2.284-4.777c.855-1.536 1.914-3.466 3.148-4.121.236-.128.415 0 .343.358a4 4 0 0 1-.184.625 31.532 31.532 0 0 1-1.47 3.374 32 32 0 0 1-2.472 4.214c-2.013 2.862-4.368 5.207-6.754 6.656-.087.056-.071.271 0 .23zM130.916 154.909c-.328.609-.963 1.7-1.439 1.49s-.036-1.388.154-1.951a19.6 19.6 0 0 1 2.304-4.429q.655-.997 1.428-1.905a5.5 5.5 0 0 1 1.511-1.413c1.1-.476-.707 3.784-.958 4.439-.788 2.048-1.587 4.071-2.37 6.109-.154.399.215.414.384.112.599-1.085 1.203-2.16 1.797-3.246s1.095-2.048 1.72-2.975l-.333-.03c-.041.701-.312 1.454-.42 2.176-.082.512-.123 1.228.292 1.182.323-.035.594-.512.789-.937.389-.778.763-1.566 1.141-2.35l-.353-.041c-.077.645-.2 1.332-.23 1.956 0 .343.056.661.302.671s.65-.512.87-.911c.246-.452.419-.939.512-1.444.051-.282-.266-.313-.358 0a7.7 7.7 0 0 0-.328 1.884c0 .394.174.568.461.45.691-.276 1.336-1.402 1.802-2.247.512-.947 1.024-1.9 1.5-2.888q.364-.717.63-1.474c.163-.361.218-.761.159-1.152-.343-.825-1.536 1.96-1.767 2.416a17 17 0 0 0-.819 2.171q-.272.886-.414 1.802c-.057.354-.072.732.112.891.543.476 1.582-1.48 1.941-2.201a61 61 0 0 0 1.822-4.096l-.332-.067c-.205.676-.395 1.347-.512 2.022-.093.446-.292 1.152 0 1.337.291.184.512-.292.732-.656.33-.629.576-1.298.732-1.991l-.266-.062q-.12.651-.159 1.311c0 .225.066.404.225.41.435 0 .732-.922.84-1.414l-.225.113c.194.21.389.471.675.486a1.637 1.637 0 0 0 1.076-.645q.634-.738 1.131-1.577c.333-.512.656-1.075.963-1.633a34.2 34.2 0 0 0 2.939-7.168c.071-.241-.21-.333-.313-.087-2.022 4.67-3.41 9.539-5.12 14.29a81 81 0 0 1-1.582 4.096l.379.082a25 25 0 0 1 1.229-3.384c.553-1.188 1.167-2.345 1.782-3.487a160 160 0 0 1 3.84-6.697c.757-1.244 1.536-2.488 2.278-3.722.179-.282-.118-.466-.276-.215a153 153 0 0 0-7.552 13.609 25 25 0 0 0-1.731 3.906c-.092.302.256.374.379.087 1.956-4.7 3.272-9.543 4.997-14.3a68 68 0 0 1 1.644-4.096l-.318-.082a34 34 0 0 1-2.524 6.293 30 30 0 0 1-1.777 2.99 3.7 3.7 0 0 1-1.198 1.269c-.368.169-.563-.138-.768-.378-.041-.052-.189-.036-.225.112-.036.149-.287 1.116-.461 1.024s.072-.993.097-1.218c.026-.226-.204-.308-.266-.067a9 9 0 0 1-.727 1.9c-.087.158-.287.624-.302.266.036-.465.134-.923.292-1.362.128-.446.276-.891.425-1.331.092-.282-.19-.415-.312-.128-.425.993-.85 1.981-1.306 2.959a18 18 0 0 1-1.178 2.268c-.153.236-.747 1.122-.747.584.028-.465.109-.925.24-1.372.182-.776.43-1.535.743-2.268.353-.875.787-1.715 1.295-2.509q.067-.08.123-.169c0 .031.046-.041.031-.031-.103.051-.072.072-.103.2a7.6 7.6 0 0 1-.389 1.167 36 36 0 0 1-1.147 2.371 18.7 18.7 0 0 1-1.484 2.56 3.4 3.4 0 0 1-.681.686c-.164.097-.174.046-.174-.179a7 7 0 0 1 .348-1.705h-.359a4 4 0 0 1-.302.952c-.087.184-.476.947-.619.916s0-.742.03-.906l.154-1.254c.031-.266-.23-.302-.358-.041l-.845 1.746c-.097.205-.44 1.065-.62 1.142-.276.112.041-1.219.098-1.439q.19-.743.281-1.505c0-.236-.184-.308-.333-.093-.65.953-1.213 1.997-1.786 3.031-.574 1.035-1.219 2.192-1.828 3.287l.384.113a819 819 0 0 0 2.672-6.871c.441-1.147 1.987-4.818.41-4.362-.574.164-1.193.855-1.715 1.439a20 20 0 0 0-1.762 2.329c-1.024 1.567-2.135 3.487-2.56 5.371-.194.86-.143 1.71.482 1.684.624-.025 1.31-.952 1.756-1.868.123-.246-.164-.405-.287-.174z" style="fill:#455a64;fill:color(display-p3 .2706 .3529 .3922);fill-opacity:1"/><path fill="#fff" d="M137.413 47.138a.264.264 0 1 1-.133-.512l17.203-9.907a.26.26 0 0 1 .291.016q.04.03.068.076a.27.27 0 0 1-.098.363l-17.198 9.928a.26.26 0 0 1-.133.036M137.413 49.099a.263.263 0 0 1-.322-.19.27.27 0 0 1 .027-.2.27.27 0 0 1 .162-.122l17.203-9.933a.266.266 0 0 1 .392.194.264.264 0 0 1-.131.261l-17.198 9.933a.26.26 0 0 1-.133.057M137.413 51.055a.27.27 0 0 1-.23-.128.265.265 0 0 1 .097-.358l17.203-9.933a.264.264 0 0 1 .359.097q.026.045.032.097a.263.263 0 0 1-.13.261l-17.198 9.933a.3.3 0 0 1-.133.031M86.5 76.296l-1.69.978v-.67l1.69-.978zM86.5 80.756l-1.69.972v-.67l1.69-.973zM86.337 80.05l-1.367.788v-3.543l1.367-.789zM89.321 74.668l-1.69.973v-.666l1.69-.977zM89.321 79.123l-1.69.977v-.67l1.69-.973zM89.163 78.421l-1.367.788v-3.543l1.367-.788zM92.143 73.04l-1.69.973v-.671l1.69-.973zM92.143 77.495l-1.69.978v-.671l1.69-.973zM91.978 76.793l-1.362.789v-3.548l1.362-.789zM92.46 71.786l-7.967 4.608a.27.27 0 0 0-.102.205c0 .076.046.112.102.082l7.967-4.608a.27.27 0 0 0 .102-.205c0-.077-.046-.113-.102-.082M92.972 71.09l-8.99 5.191a.26.26 0 0 0-.108.205c0 .077.046.113.108.082l8.99-5.197a.24.24 0 0 0 .108-.2c0-.076-.046-.112-.108-.081M84.493 82.312l7.967-4.608a.26.26 0 0 0 .102-.204c0-.077-.046-.113-.102-.077l-7.967 4.608a.27.27 0 0 0-.102.204c0 .052.046.108.102.077M83.982 83.009l8.99-5.192a.25.25 0 0 0 .108-.205c0-.077-.046-.112-.108-.077l-8.99 5.192a.24.24 0 0 0-.108.2c0 .082.046.118.108.082M83.423 83.73l10.107-5.836a.25.25 0 0 0 .102-.2c0-.077-.046-.118-.102-.082l-10.107 5.832a.27.27 0 0 0-.108.205c0 .076.052.112.108.082M88.338 70.055l-3.656 5.432a.123.123 0 0 0 .164.174l7.445-4.295a.138.138 0 0 0 0-.251l-3.584-1.183a.31.31 0 0 0-.369.123m-2.652 4.649 2.852-4.244 2.872.947zM95.296 71.453a.26.26 0 0 1-.225-.128.26.26 0 0 1 .092-.358l17.203-9.933a.26.26 0 0 1 .2-.029.254.254 0 0 1 .159.126q.026.046.033.097a.264.264 0 0 1-.131.261l-17.198 9.928a.25.25 0 0 1-.133.036M95.296 73.414a.25.25 0 0 1-.225-.133.26.26 0 0 1 .092-.359l17.203-9.932a.267.267 0 0 1 .392.194.264.264 0 0 1-.131.261l-17.198 9.933a.25.25 0 0 1-.133.036M95.297 75.375a.266.266 0 0 1-.133-.512l9.881-5.704a.263.263 0 1 1 .261.456l-9.876 5.724a.3.3 0 0 1-.133.036" style="fill:#fff;fill-opacity:1"/><path fill="#F7921E" d="M141.238 143.455v-1.618c-3.584 2.048-6.503 7.639-6.503 12.416l1.219-.701c0-3.886 2.37-8.412 5.284-10.097m4.679 4.342c0-3.446-2.099-5.033-4.679-3.543s-4.685 5.504-4.685 8.95 2.099 5.033 4.685 3.543 4.679-5.509 4.679-8.924zm-8.76 5.054c0-2.996 1.833-6.488 4.096-7.788q.224-.128.461-.23l-4.526 8.622a7 7 0 0 1-.031-.604m.179 1.469 5.074-9.702c1.316-.231 2.35.563 2.734 2.099l-5.053 9.656c-1.316.246-2.361-.532-2.755-2.053m7.952-6.733c0 .179.025.364.025.558 0 3.001-1.833 6.492-4.096 7.788a4 4 0 0 1-.43.22zm-4.05-7.362c-4.25 2.457-7.68 9.057-7.68 14.725s3.456 8.274 7.68 5.821 7.68-9.057 7.68-14.72-3.436-8.279-7.68-5.826m0 19.737c-3.917 2.258-7.102-.148-7.102-5.366 0-5.217 3.185-11.299 7.102-13.557 3.916-2.258 7.096.143 7.096 5.365s-3.164 11.3-7.096 13.558m5.278-12.513c0 3.886-2.37 8.412-5.278 10.097v1.617c3.584-2.048 6.497-7.639 6.497-12.416z" opacity=".2" style="fill:#f7921e;fill:color(display-p3 .9686 .5725 .1176);fill-opacity:1"/><path fill="#000" d="M141.233 31.716v6.697a5.75 5.75 0 0 1-2.621 4.547l-12.964 7.48c-.64.369-1.024 1.106-1.388 1.884a7.5 7.5 0 0 1-1.024 1.639c-1.024 1.142-3.2 2.33-4.751 2.826a9 9 0 0 1-1.536.358l-.635.087c-1.413.19-3.174.43-4.209 1.024L96.94 67.014a2.64 2.64 0 0 1-1.321.394 1.74 1.74 0 0 1-.886-.225 2.18 2.18 0 0 1-.962-1.997v-6.692a5.72 5.72 0 0 1 2.626-4.547l5.12-2.944a.2.2 0 0 1 .072-.025.527.527 0 1 1 .512.921.2.2 0 0 1-.062.047l-5.12 2.944a4.68 4.68 0 0 0-2.083 3.584v6.712a.916.916 0 0 0 1.536.885l15.165-8.755c1.219-.701 3.072-.957 4.608-1.157l.63-.087a8.3 8.3 0 0 0 1.377-.322c1.377-.436 3.42-1.536 4.265-2.51.338-.427.621-.897.84-1.397.44-.896.901-1.812 1.822-2.345l12.959-7.48a4.69 4.69 0 0 0 2.084-3.584v-6.718a1.17 1.17 0 0 0-.42-1.024 1.15 1.15 0 0 0-1.116.164l-4.419 2.56a4.4 4.4 0 0 0-.553-.937l4.424-2.56a1.97 1.97 0 0 1 2.995.683c.172.356.233.755.174 1.145z" opacity=".25" style="fill:#000;fill-opacity:1"/><path fill="#37474F" d="M131.782 31.84a1.35 1.35 0 0 1 1.367.127 4.26 4.26 0 0 1 1.93 3.339 1.35 1.35 0 0 1-.574 1.249l-30.72 17.756-2.723-4.72z" style="fill:#37474f;fill:color(display-p3 .2157 .2784 .3098);fill-opacity:1"/><path fill="#455A64" d="m102.403 51.966 32.113-18.545a3.9 3.9 0 0 0-1.367-1.449c-.061-.036-.123-.056-.184-.087l-31.616 18.258z" style="fill:#455a64;fill:color(display-p3 .2706 .3529 .3922);fill-opacity:1"/><path fill="#263238" d="M102.403 49.728c-1.065-.614-1.925-.117-1.925 1.111a4.25 4.25 0 0 0 1.925 3.339c1.065.614 1.925.117 1.925-1.111a4.27 4.27 0 0 0-1.925-3.339" style="fill:#263238;fill:color(display-p3 .149 .1961 .2196);fill-opacity:1"/><path fill="#455A64" d="M141.781 32.192v6.697a5.74 5.74 0 0 1-2.627 4.547l-12.958 7.48c-.64.369-1.024 1.106-1.393 1.884a7.3 7.3 0 0 1-.998 1.639c-1.024 1.142-3.206 2.33-4.752 2.826a9 9 0 0 1-1.536.358l-.635.088c-1.413.189-3.174.43-4.208 1.023L97.488 67.49a2.66 2.66 0 0 1-1.321.399 1.75 1.75 0 0 1-.886-.23 2.18 2.18 0 0 1-.963-1.997V58.97a5.72 5.72 0 0 1 2.627-4.547l5.089-2.944h.072a.527.527 0 0 1 .512.922.2.2 0 0 1-.056.046l-5.095 2.944a4.69 4.69 0 0 0-2.084 3.584v6.692a.916.916 0 0 0 1.536.886l15.166-8.755c1.218-.702 3.072-.958 4.608-1.158l.63-.087a8.4 8.4 0 0 0 1.382-.322c1.377-.435 3.42-1.536 4.265-2.509.337-.43.619-.899.84-1.398.44-.896.896-1.812 1.822-2.345l12.959-7.48a4.69 4.69 0 0 0 2.084-3.584v-6.723a.92.92 0 0 0-.426-1.035.92.92 0 0 0-1.11.15l-4.414 2.56a4.7 4.7 0 0 0-.552-.932l4.423-2.56a1.968 1.968 0 0 1 2.995.683c.172.355.233.754.174 1.145z" style="fill:#455a64;fill:color(display-p3 .2706 .3529 .3922);fill-opacity:1"/><path fill="#F7921E" d="M140.213 91.39c.384-.348.773-.26.865.2l1.721 8.294a1.74 1.74 0 0 1-.512 1.465l-40.448 36.649c-.384.348-.773.261-.866-.195l-1.725-8.3a1.75 1.75 0 0 1 .512-1.459l40.448-36.654m-.159-.809-40.448 36.654a3.42 3.42 0 0 0-1.024 2.883l1.721 8.299c.184.907.952 1.081 1.715.395l40.448-36.654a3.43 3.43 0 0 0 1.024-2.888l-1.726-8.28c-.189-.905-.957-1.08-1.715-.388z" style="fill:#f7921e;fill:color(display-p3 .9686 .5725 .1176);fill-opacity:1"/><path fill="#F7921E" d="M104.588 126.273c.087-.077.153-.108.21-.092q.078.018.128.082l2.365 3.496a.266.266 0 0 1 .046.241.3.3 0 0 1-.087.138l-.799.727c-.087.077-.148.108-.194.098a.12.12 0 0 1-.092-.067l-.308-.461-1.684 1.536-.046.784a.5.5 0 0 1-.041.184.6.6 0 0 1-.164.23l-.799.722a.1.1 0 0 1-.049.033.1.1 0 0 1-.058.008.1.1 0 0 1-.045-.031.1.1 0 0 1-.022-.051.6.6 0 0 1 0-.133l.4-6a.8.8 0 0 1 .056-.246.6.6 0 0 1 .174-.261zm-.343 4.219 1.024-.927-.891-1.347zM109.089 122.192a3.7 3.7 0 0 1 .752-.548c.187-.112.402-.17.62-.169a.65.65 0 0 1 .466.236c.148.191.245.416.281.655.061.293.073.594.036.891-.036.298-.116.59-.235.865a4 4 0 0 1-.482.83q-.314.421-.706.773l-.809.737.317 1.536a.36.36 0 0 1 0 .189.4.4 0 0 1-.107.169l-.83.753a.147.147 0 0 1-.133.046.1.1 0 0 1-.054-.036.12.12 0 0 1-.023-.061l-1.024-4.869a.36.36 0 0 1 .026-.185.36.36 0 0 1 .107-.174zm-.323 3.072.778-.707c.17-.142.311-.316.415-.512a.94.94 0 0 0 .077-.614c-.041-.21-.133-.307-.266-.297a.9.9 0 0 0-.472.261l-.778.707zM113.748 117.968a4 4 0 0 1 .747-.548c.188-.111.402-.169.62-.169a.66.66 0 0 1 .466.236c.148.191.245.416.281.655.063.293.076.594.041.891-.038.3-.119.594-.24.871a4 4 0 0 1-.481.829q-.313.423-.702.773l-.809.717.318 1.536a.36.36 0 0 1 0 .189.4.4 0 0 1-.108.169l-.829.753a.2.2 0 0 1-.061.04.2.2 0 0 1-.073.011.1.1 0 0 1-.055-.036.1.1 0 0 1-.026-.061l-1.024-4.869a.36.36 0 0 1 0-.19.4.4 0 0 1 .107-.169zm-.323 3.098.779-.707c.168-.152.307-.334.409-.537a.95.95 0 0 0 .082-.615c-.046-.21-.133-.312-.271-.297a.86.86 0 0 0-.466.256l-.778.707zM118.31 113.836a4 4 0 0 1 .768-.573c.188-.117.403-.182.624-.19a.6.6 0 0 1 .466.215c.149.191.245.417.282.656.079.367.079.748 0 1.116-.086.379-.235.74-.44 1.07l1.157 1.085a.1.1 0 0 1 .036.062.3.3 0 0 1 0 .159.34.34 0 0 1-.087.133l-.861.783q-.132.114-.194.097a.4.4 0 0 1-.118-.061l-1.024-.973-.584.512.338 1.613a.36.36 0 0 1 0 .189.5.5 0 0 1-.107.169l-.881.789a.13.13 0 0 1-.057.043.13.13 0 0 1-.071.008.1.1 0 0 1-.058-.034.1.1 0 0 1-.024-.063l-1.024-4.869a.36.36 0 0 1 0-.19.4.4 0 0 1 .108-.169zm-.241 2.929.712-.65q.253-.22.415-.512a.85.85 0 0 0 .087-.594c-.047-.21-.134-.308-.267-.282-.178.05-.339.147-.466.282l-.716.645zM121.397 113.37a3.6 3.6 0 0 1 0-.937q.06-.515.251-.998a5 5 0 0 1 1.305-1.899c.254-.24.545-.437.861-.584.219-.102.461-.142.701-.118a.84.84 0 0 1 .512.302c.157.191.267.415.323.656.051.204.102.43.153.665s.087.461.123.671q.066.469 0 .937a4.3 4.3 0 0 1-.251 1.024c-.131.348-.303.68-.512.988q-.34.501-.788.906a3.2 3.2 0 0 1-.86.589 1.22 1.22 0 0 1-.697.113.84.84 0 0 1-.512-.302 1.6 1.6 0 0 1-.317-.651 16 16 0 0 1-.154-.655 29 29 0 0 1-.138-.707m3.072-1.218c0-.092-.031-.195-.051-.312l-.062-.343a11 11 0 0 0-.076-.328l-.072-.282a.9.9 0 0 0-.138-.286.4.4 0 0 0-.21-.139.5.5 0 0 0-.282.036 1.4 1.4 0 0 0-.358.246q-.188.166-.328.374a2.2 2.2 0 0 0-.205.409q-.075.199-.092.41a1.6 1.6 0 0 0 0 .409q.01.153.041.303c0 .112.046.225.067.337.02.113.051.231.076.338q.03.146.077.287a.56.56 0 0 0 .348.43c.164.046.374-.046.635-.287.235-.208.412-.475.512-.773a1.9 1.9 0 0 0 .097-.829zM128.273 111.056q-.245.225-.399 0l-2.268-3.538-.031-.056a.33.33 0 0 1 0-.154.3.3 0 0 1 .087-.138l.799-.722c.082-.077.148-.107.189-.097q.03.003.054.02.024.015.039.041l1.571 2.519.19-4.096a.57.57 0 0 1 .21-.414l.793-.722a.13.13 0 0 1 .05-.033.1.1 0 0 1 .058-.008.1.1 0 0 1 .045.031.1.1 0 0 1 .021.051q.004.015 0 .03v.021l-.317 5.883a.85.85 0 0 1-.271.604zM134.586 103.914a.15.15 0 0 1 .06-.043.14.14 0 0 1 .073-.008c.041 0 .067.041.082.097l.164.799a.36.36 0 0 1 0 .189.4.4 0 0 1-.107.169l-3.001 2.719a.15.15 0 0 1-.06.042q-.035.014-.073.009a.123.123 0 0 1-.082-.097l-1.024-4.869a.36.36 0 0 1 0-.19.4.4 0 0 1 .108-.169l2.949-2.672a.15.15 0 0 1 .133-.052.1.1 0 0 1 .082.098l.164.798a.32.32 0 0 1 0 .19.4.4 0 0 1-.108.169l-1.945 1.766.163.814 1.813-1.638a.15.15 0 0 1 .06-.042q.035-.013.073-.009.032.011.055.037a.13.13 0 0 1 .027.06l.164.799a.36.36 0 0 1 0 .189.4.4 0 0 1-.108.169l-1.812 1.644.174.844zM136.803 97.063c.246-.23.526-.422.83-.568.223-.105.47-.149.716-.128.213.026.408.13.548.292.17.2.287.44.343.696.026.102.051.195.067.287l.051.25.051.252c0 .081.036.179.051.281.051.34.051.685 0 1.024q-.07.529-.266 1.024a5 5 0 0 1-.512.988c-.216.32-.47.613-.758.871l-1.705 1.536a.15.15 0 0 1-.061.039.2.2 0 0 1-.072.007.1.1 0 0 1-.058-.035.1.1 0 0 1-.024-.063l-1.024-4.869a.36.36 0 0 1 0-.184.5.5 0 0 1 .108-.174zm1.26 1.321c-.144-.553-.512-.584-1.024-.082l-.645.584.583 2.857.676-.615a1.73 1.73 0 0 0 .545-.72 1.73 1.73 0 0 0 .105-.897c0-.108-.036-.21-.056-.302-.021-.093-.036-.185-.056-.272l-.057-.266q-.032-.131-.071-.287M104.42 198.465l69.821-40.187 34.903 20.091-69.816 40.187z" style="fill:#f7921e;fill:color(display-p3 .9686 .5725 .1176);fill-opacity:1"/><path fill="#fff" d="m104.42 198.465 69.821-40.187 34.903 20.091-69.816 40.187z" opacity=".7" style="fill:#fff;fill-opacity:1"/><path fill="#F7921E" d="m174.236 160.393-66.145 38.067 31.232 17.981 66.145-38.072zm-34.908 55.014-29.399-16.947 64.307-37.013 29.399 16.922z" style="fill:#f7921e;fill:color(display-p3 .9686 .5725 .1176);fill-opacity:1"/><path fill="#F7921E" d="M143.768 196.089c-3.129-1.797-4.849-4.255-4.849-6.922 0-2.908 2.104-5.786 5.765-7.895 7.168-4.132 18.432-4.367 25.119-.512 3.123 1.797 4.843 4.26 4.843 6.922 0 2.908-2.099 5.786-5.765 7.895-3.758 2.166-8.642 3.262-13.404 3.262-4.316-.016-8.535-.922-11.709-2.75m1.228-14.274c-3.466 1.991-5.452 4.674-5.452 7.352 0 2.432 1.612 4.7 4.536 6.385 6.497 3.742 17.485 3.502 24.489-.512 3.466-1.997 5.453-4.675 5.453-7.358 0-2.432-1.608-4.7-4.532-6.384-3.072-1.777-7.193-2.658-11.402-2.658-4.644-.015-9.415 1.06-13.092 3.175" style="fill:#f7921e;fill:color(display-p3 .9686 .5725 .1176);fill-opacity:1"/><path fill="#F7921E" d="M144.899 194.138c-2.396-1.377-3.717-3.144-3.717-4.971 0-2.079 1.689-4.245 4.608-5.94 3.276-1.889 7.751-2.969 12.288-2.969 4.096 0 7.849.865 10.583 2.437 2.396 1.382 3.712 3.149 3.712 4.971 0 2.084-1.685 4.245-4.634 5.945-3.277 1.884-7.746 2.964-12.288 2.964-4.065 0-7.823-.865-10.552-2.437" opacity=".5" style="fill:#f7921e;fill:color(display-p3 .9686 .5725 .1176);fill-opacity:1"/><path fill="#F7921E" d="M141.013 210.517a3.76 3.76 0 0 0-3.369 0l-1.992 1.147-19.154-10.947 2.309-1.326a1.02 1.02 0 0 0 .609-.793c0-.282-.22-.558-.609-.784l-2.309-1.351 21.018-12.16-.41.891a8.14 8.14 0 0 0-.778 3.435c0 3.405 3.425 6.902 6.825 8.858a29.2 29.2 0 0 0 13.353 3.507 33 33 0 0 0 4.137-.266l1.536-.195-19.19 11.111z" opacity=".5" style="fill:#f7921e;fill:color(display-p3 .9686 .5725 .1176);fill-opacity:1"/><path fill="#fff" d="M131.74 203.242a2.14 2.14 0 0 1-1.234-1.802c0-.758.512-1.495 1.444-2.048 1.72-.994 4.418-1.024 6.021-.123.349.161.648.413.865.731.218.317.345.687.369 1.071 0 .758-.512 1.495-1.444 2.022a6.6 6.6 0 0 1-3.205.779 5.75 5.75 0 0 1-2.816-.63" opacity=".4" style="fill:#fff;fill-opacity:1"/><path fill="#F7921E" d="M176.402 191.604c.517-1.335.79-2.752.803-4.183 0-2.837-2.237-5.565-6.656-8.105-3.538-2.048-8.97-3.41-13.516-3.41-1.385.001-2.769.09-4.143.266l-1.536.2 19.19-11.013 1.987 1.152a3.82 3.82 0 0 0 3.364 0l1.991-1.152 19.108 10.854-2.304 1.331c-.389.226-.604.512-.604.784a1.02 1.02 0 0 0 .604.788l2.304 1.326-20.992 12.048z" opacity=".5" style="fill:#f7921e;fill:color(display-p3 .9686 .5725 .1176);fill-opacity:1"/><path fill="#fff" d="M175.675 178.031a2.14 2.14 0 0 1-1.234-1.802c0-.758.512-1.495 1.449-2.023 1.716-.988 4.419-1.024 6.016-.123a2.14 2.14 0 0 1 1.239 1.803c0 .757-.512 1.495-1.449 2.022a6.56 6.56 0 0 1-3.205.778 5.76 5.76 0 0 1-2.816-.655" opacity=".4" style="fill:#fff;fill-opacity:1"/><path fill="#F7921E" d="M104.42 198.465v8.458l34.908 20.096v-8.463z" style="fill:#f7921e;fill:color(display-p3 .9686 .5725 .1176);fill-opacity:1"/><path fill="#fff" d="M104.42 198.465v8.458l34.908 20.096v-8.463z" opacity=".2" style="fill:#fff;fill-opacity:1"/><g fill="#000" opacity=".1"><path d="m139.328 220.44-11.023-6.113 11.023 6.63zM104.42 202.479l3.676 2.33-3.676-1.9zM104.42 204.496l18.37 10.885-18.37-10.26zM139.329 222.457l-18.371-10.245 18.371 10.911z" style="fill:#000;fill-opacity:1"/></g><path fill="#F7921E" d="m139.328 227.019 69.816-40.187v-8.463l-69.816 40.187z" style="fill:#f7921e;fill:color(display-p3 .9686 .5725 .1176);fill-opacity:1"/><path fill="#000" d="m139.328 227.019 69.816-40.187v-8.463l-69.816 40.187z" opacity=".2" style="fill:#000;fill-opacity:1"/><path fill="#000" d="m139.328 220.44 3.681-1.884-3.681 2.401zM139.328 222.457l18.473-10.296-18.473 10.962zM209.145 182.352l-12.862 7.649 12.862-7.152zM209.149 184.477l-7.352 4.47 7.347-3.994z" opacity=".3" style="fill:#000;fill-opacity:1"/><path fill="#FAFAFA" d="m133.245 180.468 36.127 20.797 11.018-6.343-36.122-20.803z" style="fill:#fafafa;fill:color(display-p3 .9804 .9804 .9804);fill-opacity:1"/><path fill="#E0E0E0" d="M180.39 194.922v9.206l-11.018 6.343v-9.205z" style="fill:#e0e0e0;fill:color(display-p3 .8784 .8784 .8784);fill-opacity:1"/><path fill="#E0E0E0" d="m169.373 210.471-.645-.374.645-.373zM133.245 180.468v1.403l1.219-.702z" style="fill:#e0e0e0;fill:color(display-p3 .8784 .8784 .8784);fill-opacity:1"/><path fill="#000" d="M168.728 210.092v-8.453l.645-.374v8.458z" opacity=".3" style="fill:#000;fill-opacity:1"/><g opacity=".2" style="mix-blend-mode:multiply"><path fill="#000" d="m168.727 201.639-34.908-20.096.645-.374 34.909 20.096z" style="fill:#000;fill-opacity:1"/></g><path fill="#455A64" d="m134.434 179.782 36.131 20.797.917-.532-36.127-20.793zM142.154 175.343l36.132 20.792.917-.527-36.127-20.793z" style="fill:#455a64;fill:color(display-p3 .2706 .3529 .3922);fill-opacity:1"/><path fill="#263238" d="M170.565 200.579v9.206l.917-.527v-9.211zM178.286 196.135v9.206l.917-.532v-9.201z" style="fill:#263238;fill:color(display-p3 .149 .1961 .2196);fill-opacity:1"/><path fill="#F7921E" d="m94.395 189.981 69.821-40.187 34.908 20.096-69.821 40.187z" style="fill:#f7921e;fill:color(display-p3 .9686 .5725 .1176);fill-opacity:1"/><path fill="#fff" d="m94.395 189.981 69.821-40.187 34.908 20.096-69.821 40.187z" opacity=".7" style="fill:#fff;fill-opacity:1"/><path fill="#F7921E" d="m164.216 151.919-66.15 38.062 31.231 17.981 66.151-38.072zm-34.919 54.984-29.388-16.922 64.307-37.012 29.394 16.921z" style="fill:#f7921e;fill:color(display-p3 .9686 .5725 .1176);fill-opacity:1"/><path fill="#F7921E" d="M133.742 187.61c-3.123-1.797-4.844-4.26-4.844-6.922 0-2.908 2.1-5.786 5.76-7.895 7.168-4.132 18.432-4.367 25.119-.512 3.123 1.797 4.849 4.255 4.849 6.922 0 2.908-2.105 5.786-5.765 7.895-3.764 2.166-8.648 3.262-13.404 3.262-4.322-.016-8.541-.922-11.715-2.75m1.234-14.279c-3.466 1.996-5.453 4.679-5.453 7.357 0 2.432 1.608 4.7 4.531 6.385 6.498 3.737 17.485 3.502 24.489-.512 3.466-1.992 5.453-4.675 5.453-7.353 0-2.432-1.608-4.7-4.531-6.384-3.072-1.777-7.168-2.658-11.402-2.658-4.644-.02-9.416 1.05-13.087 3.165" style="fill:#f7921e;fill:color(display-p3 .9686 .5725 .1176);fill-opacity:1"/><path fill="#F7921E" d="M134.873 185.655c-2.396-1.378-3.717-3.144-3.717-4.967 0-2.084 1.69-4.25 4.634-5.944 3.277-1.884 7.752-2.965 12.288-2.965 4.096 0 7.854.866 10.583 2.437 2.396 1.378 3.717 3.144 3.717 4.972 0 2.079-1.69 4.244-4.634 5.939-3.276 1.889-7.751 2.97-12.288 2.97-4.09 0-7.854-.85-10.583-2.442" opacity=".5" style="fill:#f7921e;fill:color(display-p3 .9686 .5725 .1176);fill-opacity:1"/><path fill="#F7921E" d="M130.987 202.034a3.73 3.73 0 0 0-3.363 0l-1.992 1.146-19.144-10.951 2.304-1.326c.395-.226.61-.512.61-.789a1 1 0 0 0-.61-.783L106.488 188l21.018-12.166-.41.896a8.2 8.2 0 0 0-.778 3.431c0 3.41 3.43 6.907 6.825 8.863a29.3 29.3 0 0 0 13.353 3.502c1.383 0 2.765-.087 4.137-.261l1.536-.2-19.195 11.115z" opacity=".5" style="fill:#f7921e;fill:color(display-p3 .9686 .5725 .1176);fill-opacity:1"/><path fill="#fff" d="M121.714 194.758a2.143 2.143 0 0 1-1.234-1.797c0-.758.512-1.495 1.449-2.048 1.716-.989 4.419-1.024 6.016-.118a2.12 2.12 0 0 1 1.239 1.797c0 .758-.512 1.495-1.448 2.048a6.6 6.6 0 0 1-3.206.778 5.75 5.75 0 0 1-2.816-.66" opacity=".4" style="fill:#fff;fill-opacity:1"/><path fill="#F7921E" d="M166.366 183.151c.52-1.335.794-2.752.809-4.183 0-2.837-2.242-5.566-6.656-8.11-3.538-2.048-8.97-3.405-13.517-3.405a33 33 0 0 0-4.142.261l-1.536.2 19.19-11.008 1.992 1.146a3.78 3.78 0 0 0 3.358 0l1.992-1.152 19.113 10.85-2.309 1.336a.99.99 0 0 0-.63.753 1.024 1.024 0 0 0 .604.788l2.304 1.326-20.992 12.048z" opacity=".5" style="fill:#f7921e;fill:color(display-p3 .9686 .5725 .1176);fill-opacity:1"/><path fill="#fff" d="M165.649 169.572a2.13 2.13 0 0 1-1.239-1.802c0-.758.512-1.495 1.449-2.022 1.715-.994 4.419-1.024 6.021-.123a2.14 2.14 0 0 1 1.234 1.797c0 .758-.512 1.495-1.449 2.048a6.6 6.6 0 0 1-3.205.778 5.75 5.75 0 0 1-2.811-.676" opacity=".4" style="fill:#fff;fill-opacity:1"/><path fill="#F7921E" d="M94.395 189.981v8.463l34.908 20.091v-8.458z" style="fill:#f7921e;fill:color(display-p3 .9686 .5725 .1176);fill-opacity:1"/><path fill="#fff" d="M94.395 189.981v8.463l34.908 20.091v-8.458z" opacity=".2" style="fill:#fff;fill-opacity:1"/><g fill="#000" opacity=".1"><path d="m129.303 211.961-11.024-6.113 11.029 6.625zM94.395 194l3.676 2.33-3.671-1.9zM94.395 196.017l18.37 10.885-18.37-10.26zM129.307 213.973l-18.375-10.24 18.375 10.906z" style="fill:#000;fill-opacity:1"/></g><path fill="#F7921E" d="m129.303 218.535 69.821-40.182v-8.463l-69.821 40.187z" style="fill:#f7921e;fill:color(display-p3 .9686 .5725 .1176);fill-opacity:1"/><path fill="#000" d="m129.303 218.535 69.821-40.182v-8.463l-69.821 40.187z" opacity=".2" style="fill:#000;fill-opacity:1"/><path fill="#000" d="m129.303 211.961 3.681-1.884-3.676 2.396zM129.308 213.973l18.473-10.291-18.473 10.957zM199.124 173.874l-12.861 7.649 12.861-7.153zM199.124 175.998l-7.353 4.47 7.353-3.994z" opacity=".3" style="fill:#000;fill-opacity:1"/><path fill="#FAFAFA" d="m123.226 171.984 36.121 20.797 11.024-6.338-36.122-20.803z" style="fill:#fafafa;fill:color(display-p3 .9804 .9804 .9804);fill-opacity:1"/><path fill="#E0E0E0" d="M170.37 186.443v9.201l-11.023 6.343v-9.206zM159.347 201.987l-.645-.374.645-.368zM123.226 171.984v1.408l1.218-.707z" style="fill:#e0e0e0;fill:color(display-p3 .8784 .8784 .8784);fill-opacity:1"/><path fill="#000" d="M158.702 201.613v-8.458l.645-.374v8.458z" opacity=".3" style="fill:#000;fill-opacity:1"/><g opacity=".2" style="mix-blend-mode:multiply"><path fill="#000" d="m158.702 193.155-34.903-20.096.645-.373 34.903 20.096z" style="fill:#000;fill-opacity:1"/></g><path fill="#455A64" d="m124.408 171.303 36.132 20.793.917-.528-36.127-20.792zM132.129 166.864l36.132 20.792.916-.527-36.126-20.793z" style="fill:#455a64;fill:color(display-p3 .2706 .3529 .3922);fill-opacity:1"/><path fill="#263238" d="M160.54 192.095v9.206l.917-.527v-9.206zM168.261 187.656v9.201l.921-.527-.005-9.201z" style="fill:#263238;fill:color(display-p3 .149 .1961 .2196);fill-opacity:1"/></svg>