<svg xmlns="http://www.w3.org/2000/svg" width="256" height="256" fill="none"><path stroke="#D5D5D5" d="M46.56 218.407C24.086 206.639 13 191.291 13 176.074s11.084-30.567 33.56-42.34c22.464-11.767 51.94-17.664 81.442-17.664 29.503 0 58.977 5.897 81.439 17.664 22.473 11.773 33.558 27.121 33.559 42.336s-11.083 30.564-33.559 42.337C186.976 230.174 157.502 236.07 128 236.07s-58.976-5.896-81.44-17.663Z" style="stroke:#d5d5d5;stroke:color(display-p3 .8353 .8353 .8353);stroke-opacity:1"/><path fill="#455A64" d="M153.118 22.467c-.768-.415-1.762-.353-2.847.271L41.737 85.392a8.77 8.77 0 0 0-3.072 3.384l-4.372-2.53c.957-1.817 2.314-2.436 3.497-3.122L146.334 20.46c1.136-.65 2.165-.681 2.944-.21z" style="fill:#455a64;fill:color(display-p3 .2706 .3529 .3922);fill-opacity:1"/><path fill="#263238" d="M34.907 186.988c-.957-.537-1.567-1.807-1.567-3.615v-91.73c0-2.047.144-3.886.968-5.396l4.373 2.53c-.113.204-.22.42-.328.64s-.159.353-.226.511a.3.3 0 0 0-.03.082 6 6 0 0 0-.236.62 8 8 0 0 0-.2.65 4 4 0 0 0-.122.512 9.2 9.2 0 0 0-.256 2.12v91.725c0 1.827.62 3.107 1.587 3.635z" style="fill:#263238;fill:color(display-p3 .149 .1961 .2196);fill-opacity:1"/><path fill="#37474F" d="M150.271 22.733 40.754 85.868c-2.463 1.423-3.476 3.865-3.476 7.168v92.605c0 3.287 1.996 4.793 4.46 3.374l108.543-62.663c2.463-1.419 4.46-5.238 4.46-8.52v-91.73c-.011-3.282-2.028-4.792-4.47-3.369" style="fill:#37474f;fill:color(display-p3 .2157 .2784 .3098);fill-opacity:1"/><path fill="#F7921E" d="M144.291 125.533 47.717 181.29c-1.275.737-2.309-.047-2.309-1.752V90.624c0-1.704 1.024-3.68 2.31-4.418l96.573-55.757c1.275-.737 2.309.046 2.309 1.751v88.914c0 1.705-1.055 3.681-2.309 4.419" style="fill:#f7921e;fill:color(display-p3 .9686 .5725 .1176);fill-opacity:1"/><path fill="#000" d="M144.291 125.533 47.717 181.29c-1.275.737-2.309-.047-2.309-1.752V90.624c0-1.704 1.024-3.68 2.31-4.418l96.573-55.757c1.275-.737 2.309.046 2.309 1.751v88.914c0 1.705-1.055 3.681-2.309 4.419" opacity=".1" style="fill:#000;fill-opacity:1"/><path fill="#263238" d="M42.505 140.227a2.8 2.8 0 0 1-1.162 2.222c-.64.369-1.162-.026-1.162-.881a2.8 2.8 0 0 1 1.162-2.222c.64-.379 1.162.016 1.162.881M41.343 125.323a2.17 2.17 0 0 0-.906 1.73v7.916c0 .665.404.973.906.681a2.17 2.17 0 0 0 .901-1.726v-7.915c0-.666-.404-.973-.901-.686" style="fill:#263238;fill:color(display-p3 .149 .1961 .2196);fill-opacity:1"/><path fill="#FAFAFA" d="M143.139 39.276c-.072-.553-.512-.753-1.024-.445L51.9 90.896a2.3 2.3 0 0 0-.747.794l-1.982-1.127q.143-.247.338-.456l.098-.097q.142-.136.312-.235l90.189-52.086a2.3 2.3 0 0 1 1.597-.205 1.4 1.4 0 0 1 .635.297q.063.043.113.102.046.036.082.082.08.08.143.174.059.074.107.154.115.177.19.374.051.107.087.22c0 .056.026.108.041.169q.025.11.036.22" style="fill:#fafafa;fill:color(display-p3 .9804 .9804 .9804);fill-opacity:1"/><path fill="#E0E0E0" d="M51.435 173.973c-.349 0-.59-.277-.59-.758V92.729c.015-.362.121-.714.308-1.024l-1.982-1.142q-.181.308-.266.655-.03.13-.04.261a1 1 0 0 0 0 .129v80.465a2.26 2.26 0 0 0 .992 1.792 2.1 2.1 0 0 0 1.214.215c.293-.014.578-.1.83-.25a1.1 1.1 0 0 1-.467.143" style="fill:#e0e0e0;fill:color(display-p3 .8784 .8784 .8784);fill-opacity:1"/><path fill="#F0F0F0" d="M143.149 39.445c0-.675-.476-.947-1.055-.614L51.9 90.9a2.34 2.34 0 0 0-1.054 1.828v80.487c0 .675.476.947 1.054.614l90.194-52.065a2.35 2.35 0 0 0 1.055-1.833z" style="fill:#f0f0f0;fill:color(display-p3 .9412 .9412 .9412);fill-opacity:1"/><path fill="#F7921E" d="m65.043 113.383-5.002 6.364-2.918 3.707a10.1 10.1 0 0 1-.896-4.428c0-4.276 1.848-9.216 4.843-13.031l.66 1.229zM69.329 100.614l-3.917 11.853-1.787-3.287-2.048-3.835a15.8 15.8 0 0 1 4.096-3.543 8.2 8.2 0 0 1 3.656-1.188M73.804 103.266l-7.358 8.474 3.671-11.106a4.65 4.65 0 0 1 3.687 2.632M74.782 107.843c0 6.467-4.25 14.188-9.477 17.198-3.247 1.879-6.144 1.536-7.783-.896l8.233-10.445.046-.056 8.351-9.615c.443 1.222.657 2.515.63 3.814" style="fill:#f7921e;fill:color(display-p3 .9686 .5725 .1176);fill-opacity:1"/><path fill="#fff" d="m69.329 100.614-3.917 11.853-1.787-3.287-2.048-3.835a15.8 15.8 0 0 1 4.096-3.543 8.2 8.2 0 0 1 3.656-1.188" opacity=".7" style="fill:#fff;fill-opacity:1"/><path fill="#000" d="m73.804 103.266-7.358 8.474 3.671-11.106a4.65 4.65 0 0 1 3.687 2.632" opacity=".3" style="fill:#000;fill-opacity:1"/><path fill="#fff" d="M74.782 107.843c0 6.467-4.25 14.188-9.477 17.198-3.247 1.879-6.144 1.536-7.783-.896l8.233-10.445.046-.056 8.351-9.615c.443 1.222.657 2.515.63 3.814" opacity=".5" style="fill:#fff;fill-opacity:1"/><path fill="#455A64" d="M57.532 95.397q.238-.149.512-.205a.54.54 0 0 1 .39.061.6.6 0 0 1 .245.343q.096.31.087.635c.004.313-.042.624-.138.922a2.4 2.4 0 0 1-.384.737l.543 1.295a.14.14 0 0 1 0 .067.3.3 0 0 1-.031.123.2.2 0 0 1-.066.082l-.6.343q-.084.052-.122 0a.3.3 0 0 1-.062-.087l-.512-1.168-.404.236v1.449a.3.3 0 0 1-.036.148.25.25 0 0 1-.082.103l-.579.332a.06.06 0 0 1-.04.016.06.06 0 0 1-.042-.016.14.14 0 0 1-.036-.107v-4.373a.3.3 0 0 1 .036-.148.2.2 0 0 1 .082-.102zm-.512 2.34.512-.287a1 1 0 0 0 .308-.287.83.83 0 0 0 .117-.46q0-.285-.117-.324a.39.39 0 0 0-.308.067l-.512.287zM61.7 96.646a.07.07 0 0 1 .082 0 .14.14 0 0 1 .036.107v.722a.33.33 0 0 1-.036.149.24.24 0 0 1-.082.102l-2.084 1.203a.06.06 0 0 1-.082 0 .13.13 0 0 1-.035-.107v-4.373q0-.078.035-.148a.24.24 0 0 1 .082-.103l2.048-1.182a.066.066 0 0 1 .082 0 .14.14 0 0 1 .036.107v.722a.3.3 0 0 1-.036.148.24.24 0 0 1-.082.103l-1.351.778v.732l1.254-.727a.06.06 0 0 1 .082 0 .13.13 0 0 1 .036.108v.717a.3.3 0 0 1-.036.148.2.2 0 0 1-.082.102l-1.254.753v.758zM63.917 91.71q.237-.145.512-.194a.51.51 0 0 1 .384.076c.119.09.205.216.246.359.07.213.105.436.102.66q.004.38-.082.748-.084.332-.245.635a2.6 2.6 0 0 1-.384.512 2.3 2.3 0 0 1-.512.394l-.559.322v1.383a.4.4 0 0 1-.035.148.2.2 0 0 1-.087.103l-.574.333a.06.06 0 0 1-.082 0 .14.14 0 0 1-.036-.108v-4.373a.3.3 0 0 1 .036-.148.2.2 0 0 1 .082-.102zm-.558 2.437.512-.312a.85.85 0 0 0 .425-.778c0-.19-.036-.302-.118-.343a.34.34 0 0 0-.307.05l-.512.313zM65.673 92.463a4 4 0 0 1 .108-.779 3.194 3.194 0 0 1 .691-1.372c.161-.191.356-.352.573-.476.172-.11.37-.173.574-.184a.62.62 0 0 1 .42.143.93.93 0 0 1 .27.43c.067.21.103.43.108.65v1.209q-.016.392-.107.773a3.4 3.4 0 0 1-.272.742 3 3 0 0 1-.42.635c-.163.189-.357.35-.573.476-.172.11-.37.173-.573.185a.6.6 0 0 1-.425-.149.94.94 0 0 1-.266-.43 2.4 2.4 0 0 1-.108-.65v-1.2029999999999998m1.93.056v-1.1360000000000001a1.1 1.1 0 0 0-.046-.287.4.4 0 0 0-.107-.185.25.25 0 0 0-.17-.071.5.5 0 0 0-.235.076.8.8 0 0 0-.235.2 1 1 0 0 0-.17.261 1.5 1.5 0 0 0-.107.307q-.037.168-.046.338v1.1420000000000001a.73.73 0 0 0 .154.471q.13.145.404 0a.95.95 0 0 0 .405-.456 2 2 0 0 0 .159-.66zM70.466 87.932q.237-.147.512-.205a.57.57 0 0 1 .389.056.65.65 0 0 1 .25.343c.061.208.09.424.082.64.003.312-.042.623-.133.922a2.5 2.5 0 0 1-.389.732l.543 1.295a.2.2 0 0 1 0 .067.3.3 0 0 1-.03.123.16.16 0 0 1-.067.082l-.6.348c-.056.03-.097.036-.122 0a.3.3 0 0 1-.062-.087l-.486-1.168-.405.23v1.45a.3.3 0 0 1-.035.148.23.23 0 0 1-.082.108l-.579.327a.06.06 0 0 1-.063.013.1.1 0 0 1-.019-.013.13.13 0 0 1-.036-.107v-4.373q0-.078.036-.148a.25.25 0 0 1 .082-.103zm-.512 2.334.512-.286a.95.95 0 0 0 .307-.282.86.86 0 0 0 .117-.466q0-.285-.117-.323a.4.4 0 0 0-.307.072l-.512.287zM74.664 85.505a.07.07 0 0 1 .082 0 .15.15 0 0 1 .036.113v.716a.33.33 0 0 1-.036.149.24.24 0 0 1-.082.102l-.773.446v3.47a.3.3 0 0 1-.036.15.2.2 0 0 1-.082.102l-.578.333a.06.06 0 0 1-.082 0 .13.13 0 0 1-.036-.108v-3.487l-.773.446a.06.06 0 0 1-.082 0 .14.14 0 0 1-.036-.108v-.716q0-.082.036-.154a.24.24 0 0 1 .082-.103z" style="fill:#455a64;fill:color(display-p3 .2706 .3529 .3922);fill-opacity:1"/><path fill="#F7921E" d="m78.75 83.15 57.549-33.224v4.582l-57.55 33.224z" style="fill:#f7921e;fill:color(display-p3 .9686 .5725 .1176);fill-opacity:1"/><g fill="#455A64" opacity=".3"><path d="M78.396 97.583a.48.48 0 0 1-.42-.24.51.51 0 0 1 .175-.671l33.735-19.456a.513.513 0 0 1 .512.85l-33.73 19.456a.5.5 0 0 1-.272.061M78.396 102.165a.48.48 0 0 1-.42-.24.51.51 0 0 1 .175-.671l33.735-19.456a.512.512 0 0 1 .512.85l-33.73 19.456a.5.5 0 0 1-.272.061M78.396 106.748a.476.476 0 0 1-.42-.241.51.51 0 0 1 .175-.67l33.735-19.456a.512.512 0 0 1 .512.85l-33.73 19.456a.5.5 0 0 1-.272.061M78.396 111.33a.476.476 0 0 1-.42-.241.51.51 0 0 1 .175-.67l33.735-19.456a.52.52 0 0 1 .426-.157.52.52 0 0 1 .384.244q.06.102.072.222a.5.5 0 0 1-.166.422.5.5 0 0 1-.204.114l-33.73 19.456a.5.5 0 0 1-.272.066M78.396 115.918a.52.52 0 0 1-.435-.267.51.51 0 0 1 .174-.67l33.736-19.456a.513.513 0 0 1 .512.844l-33.73 19.456a.5.5 0 0 1-.257.093" style="fill:#455a64;fill:color(display-p3 .2706 .3529 .3922);fill-opacity:1"/></g><path fill="#F7921E" d="m116.981 72.5 4.342-2.504c.291-.168.512-.03.512.308v5.012a1.16 1.16 0 0 1-.512.912l-4.342 2.508c-.292.17-.512.031-.512-.307v-5.012a1.17 1.17 0 0 1 .512-.917M124.179 68.347l4.342-2.503c.292-.17.512-.036.512.302v5.012a1.17 1.17 0 0 1-.512.917l-4.342 2.503c-.291.17-.512.036-.512-.302v-5.012a1.17 1.17 0 0 1 .512-.917M131.378 64.19l4.337-2.504c.292-.169.512-.03.512.308v5.017a1.17 1.17 0 0 1-.512.917l-4.337 2.508c-.292.17-.512.031-.512-.307v-5.012a1.18 1.18 0 0 1 .512-.927M116.981 80.835l4.342-2.508c.291-.17.512-.031.512.307v5.012a1.17 1.17 0 0 1-.512.917l-4.342 2.503c-.292.17-.512.031-.512-.307v-5.007a1.17 1.17 0 0 1 .512-.917M124.179 76.657l4.342-2.503c.292-.17.512-.036.512.302v5.012a1.17 1.17 0 0 1-.512.917l-4.342 2.498c-.291.17-.512.036-.512-.302V77.57a1.17 1.17 0 0 1 .512-.912M131.378 72.505l4.337-2.509c.292-.168.512-.03.512.308v5.012a1.16 1.16 0 0 1-.512.912l-4.337 2.508c-.292.17-.512.031-.512-.307v-5.012a1.16 1.16 0 0 1 .512-.912M116.981 89.124l4.342-2.508c.291-.17.512-.031.512.307v5.012a1.17 1.17 0 0 1-.512.917l-4.342 2.503c-.292.17-.512.031-.512-.302v-5.002a1.16 1.16 0 0 1 .512-.927M124.179 84.967l4.342-2.504c.292-.169.512-.03.512.302v5.013a1.17 1.17 0 0 1-.512.916l-4.342 2.51c-.291.168-.512.03-.512-.308v-5.013a1.17 1.17 0 0 1 .512-.916M131.378 80.835l4.337-2.508c.292-.17.512-.031.512.307v5.012a1.17 1.17 0 0 1-.512.917l-4.337 2.503c-.292.17-.512.031-.512-.307v-5.007a1.17 1.17 0 0 1 .512-.917" style="fill:#f7921e;fill:color(display-p3 .9686 .5725 .1176);fill-opacity:1"/><path fill="#455A64" d="m56.923 162.197 55.562-32.077v2.289l-55.562 32.082z" style="fill:#455a64;fill:color(display-p3 .2706 .3529 .3922);fill-opacity:1"/><path fill="#F7921E" d="M56.923 159.908v-13.752l4.895 2.826 4.715-8.734 5.622 3.246 2.627-3.062 3.968 2.289 5.775-8.628 4.603 1.925 5.499-11.627 3.845 6.682 5.253-7.614 1.956 3.712 6.804-10.798v11.453z" style="fill:#f7921e;fill:color(display-p3 .9686 .5725 .1176);fill-opacity:1"/><path fill="#F7921E" d="m56.923 144.881 4.567 2.422 4.736-8.806 5.653 3.266 2.54-2.964 3.967 2.293 5.683-8.314 4.603 1.925 5.955-12.601 3.968 6.871 5.253-7.613 1.92 3.717 6.717-10.67v-9.492l-7.024 10.951-2.898-5.222-3.968 6.876-3.968-2.294-3.968 6.876-3.968-2.293-5.955 10.311-3.968-3.435-3.932 5.703-6.205-3.415-5.018 8.438-4.69-2.708z" style="fill:#f7921e;fill:color(display-p3 .9686 .5725 .1176);fill-opacity:1"/><path fill="#000" d="m56.923 144.881 4.567 2.422 4.736-8.806 5.653 3.266 2.54-2.964 3.967 2.293 5.683-8.314 4.603 1.925 5.955-12.601 3.968 6.871 5.253-7.613 1.92 3.717 6.717-10.67v-9.492l-7.024 10.951-2.898-5.222-3.968 6.876-3.968-2.294-3.968 6.876-3.968-2.293-5.955 10.311-3.968-3.435-3.932 5.703-6.205-3.415-5.018 8.438-4.69-2.708z" opacity=".3" style="fill:#000;fill-opacity:1"/><g fill="#455A64" opacity=".3"><path d="M116.453 103.112a.51.51 0 0 1-.246-.911l19.846-11.459a.51.51 0 0 1 .586.227.515.515 0 0 1-.074.624l-19.846 11.453a.5.5 0 0 1-.266.066M116.453 107.695a.512.512 0 0 1-.246-.911l19.846-11.459a.51.51 0 0 1 .586.226.515.515 0 0 1-.074.624l-19.846 11.453a.48.48 0 0 1-.266.067M116.453 112.277a.51.51 0 0 1-.246-.911l19.846-11.458a.51.51 0 0 1 .586.226.514.514 0 0 1-.074.623l-19.846 11.454a.48.48 0 0 1-.266.066M116.453 116.859a.51.51 0 0 1-.246-.911l19.846-11.453a.51.51 0 0 1 .665.174.51.51 0 0 1-.174.67l-19.845 11.454a.47.47 0 0 1-.246.066M116.453 121.442a.512.512 0 0 1-.246-.911l19.846-11.454a.51.51 0 0 1 .665.174.51.51 0 0 1-.174.671l-19.845 11.453a.5.5 0 0 1-.246.067M116.453 126.024a.51.51 0 0 1-.246-.911l19.846-11.453a.51.51 0 0 1 .665.174.51.51 0 0 1-.174.67l-19.845 11.454a.47.47 0 0 1-.246.066M116.453 130.607a.51.51 0 0 1-.417-.67.5.5 0 0 1 .171-.242l19.846-11.453a.51.51 0 0 1 .578.227.51.51 0 0 1-.066.618l-19.846 11.453a.48.48 0 0 1-.266.067" style="fill:#455a64;fill:color(display-p3 .2706 .3529 .3922);fill-opacity:1"/></g><path fill="#E6E6E6" d="m148.713 117.079-2.385-1.395-56.75 33.789v50.579c0 .795.287 1.384.748 1.65l1.523.882c.46.267 1.1.227 1.808-.178l52.512-30.323a5.6 5.6 0 0 0 1.805-1.907c.444-.768.7-1.631.747-2.517z" style="fill:#e6e6e6;fill:color(display-p3 .902 .902 .902);fill-opacity:1"/><path fill="#000" d="M89.57 156.286v43.766c0 .795.287 1.384.748 1.65l1.523.882c.202.114.431.171.663.167l-1.41-1.82v-43.794z" opacity=".15" style="fill:#000;fill-opacity:1"/><path fill="#FAFAFA" d="M92.508 202.461c.353-.015.695-.12.994-.306l52.512-30.322a5.3 5.3 0 0 0 1.7-1.798c.418-.724.66-1.537.705-2.372v-50.059l-57.032 32.914v50.417c0 .942.418 1.526 1.121 1.526" style="fill:#fafafa;fill:color(display-p3 .9804 .9804 .9804);fill-opacity:1"/><path fill="#E0E0E0" d="M148.124 118.101v49.562a5.06 5.06 0 0 1-2.257 3.911l-52.516 30.327a1.75 1.75 0 0 1-.843.266c-.743 0-.822-.863-.822-1.232v-50.246l56.446-32.596m.589-1.022-57.628 33.276v50.588c0 1.156.577 1.824 1.415 1.824a2.3 2.3 0 0 0 1.141-.35l52.512-30.322a5.64 5.64 0 0 0 2.552-4.424v-50.584z" style="fill:#e0e0e0;fill:color(display-p3 .8784 .8784 .8784);fill-opacity:1"/><path fill="#F7921E" d="M146.459 112.269c-.461-.286-1.109-.254-1.829.163l-52.503 30.323a5.64 5.64 0 0 0-2.556 4.42v2.29l1.522.882 57.64-33.268v-2.289c0-.795-.283-1.38-.74-1.646s-1.109-.62-1.534-.875" style="fill:#f7921e;fill:color(display-p3 .9686 .5725 .1176);fill-opacity:1"/><path fill="#F7921E" d="M91.093 148.058a5.65 5.65 0 0 1 2.556-4.421l52.512-30.322c1.411-.815 2.552-.155 2.552 1.475v2.289l-57.62 33.268z" style="fill:#f7921e;fill:color(display-p3 .9686 .5725 .1176);fill-opacity:1"/><path fill="#fff" d="M91.093 148.058a5.65 5.65 0 0 1 2.556-4.421l52.512-30.322c1.411-.815 2.552-.155 2.552 1.475v2.289l-57.62 33.268z" opacity=".3" style="fill:#fff;fill-opacity:1"/><path fill="#F7921E" d="M148.001 113.156c-.469-.286-1.117-.258-1.84.159l-52.512 30.323a5.16 5.16 0 0 0-1.804 1.904l-1.527-.879a5.24 5.24 0 0 1 1.809-1.908l52.511-30.318c.72-.398 1.368-.441 1.829-.159s1.077.624 1.51.87z" style="fill:#f7921e;fill:color(display-p3 .9686 .5725 .1176);fill-opacity:1"/><path fill="#fff" d="M148.001 113.156c-.469-.286-1.117-.258-1.84.159l-52.512 30.323a5.16 5.16 0 0 0-1.804 1.904l-1.527-.879a5.24 5.24 0 0 1 1.809-1.908l52.511-30.318c.72-.398 1.368-.441 1.829-.159s1.077.624 1.51.87z" opacity=".45" style="fill:#fff;fill-opacity:1"/><path fill="#FAFAFA" d="M139.797 118.753a1.99 1.99 0 0 0-.891 1.546c0 .569.398.795.891.513a1.995 1.995 0 0 0 .894-1.542c0-.569-.401-.799-.894-.517M142.917 116.956c-.259.17-.474.399-.628.668a2 2 0 0 0-.262.878c0 .569.397.795.89.513a1.98 1.98 0 0 0 .894-1.542c0-.569-.401-.799-.894-.517M146.038 115.159a2 2 0 0 0-.629.668c-.154.269-.244.57-.262.879 0 .568.398.795.891.513a1.98 1.98 0 0 0 .89-1.543c0-.568-.397-.799-.89-.517" style="fill:#fafafa;fill:color(display-p3 .9804 .9804 .9804);fill-opacity:1"/><path fill="#EBEBEB" d="M91.093 150.347v6.79l57.62-33.26v-6.797z" style="fill:#ebebeb;fill:color(display-p3 .9216 .9216 .9216);fill-opacity:1"/><path fill="#E0E0E0" d="m93.407 150.705 5.903-3.391v3.383l-5.903 3.407zM100.769 146.456v1.335l2.945-1.701v-1.336zM100.769 148.519v1.335l2.945-1.697v-1.336zM105.185 143.904v1.34l2.942-1.702v-1.335zM105.185 145.971v1.336l2.942-1.702v-1.335zM109.601 141.356v1.335l2.942-1.701v-1.336zM109.601 143.419v1.339l2.942-1.701v-1.336zM122.847 133.707v1.336l2.945-1.698v-1.339zM122.847 135.771v1.339l2.945-1.701v-1.336zM127.263 131.155v1.34l2.946-1.701v-1.336zM127.263 133.222v1.336l2.946-1.697v-1.34zM131.679 128.607v1.336l2.942-1.698v-1.339zM131.679 130.671v1.339l2.942-1.701v-1.336zM114.014 138.808l7.362-4.25v3.399l-7.358 4.249zM136.096 126.059l5.903-3.391v3.383l-5.903 3.407zM143.458 121.81v1.335l2.941-1.697v-1.34zM143.458 123.873v1.34l2.941-1.702v-1.335zM91.093 150.347l-1.522-.862v6.801l1.522.851z" style="fill:#e0e0e0;fill:color(display-p3 .8784 .8784 .8784);fill-opacity:1"/><path fill="#F7921E" d="m100.033 156.732 6.599-3.813v3.045l-6.599 3.817zM100.033 181.139l6.599-3.808v3.041l-6.599 3.816zM100.033 184.192l6.599-3.813v3.045l-6.599 3.816z" style="fill:#f7921e;fill:color(display-p3 .9686 .5725 .1176);fill-opacity:1"/><path fill="#fff" d="m100.033 184.192 6.599-3.813v3.045l-6.599 3.816z" opacity=".8" style="fill:#fff;fill-opacity:1"/><path fill="#F7921E" d="m139.666 158.254 6.602-3.808v3.041l-6.602 3.816z" style="fill:#f7921e;fill:color(display-p3 .9686 .5725 .1176);fill-opacity:1"/><path fill="#fff" d="m139.666 158.254 6.602-3.808v3.041l-6.602 3.816z" opacity=".3" style="fill:#fff;fill-opacity:1"/><path fill="#F7921E" d="m139.666 161.307 6.602-3.812v3.045l-6.602 3.816z" style="fill:#f7921e;fill:color(display-p3 .9686 .5725 .1176);fill-opacity:1"/><path fill="#fff" d="m139.666 161.307 6.602-3.812v3.045l-6.602 3.816z" opacity=".4" style="fill:#fff;fill-opacity:1"/><path fill="#F7921E" d="m139.666 164.36 6.602-3.813v3.045l-6.602 3.816z" style="fill:#f7921e;fill:color(display-p3 .9686 .5725 .1176);fill-opacity:1"/><path fill="#fff" d="m139.666 164.36 6.602-3.813v3.045l-6.602 3.816z" opacity=".5" style="fill:#fff;fill-opacity:1"/><path fill="#F7921E" d="m139.666 167.409 6.602-3.808v3.041l-6.602 3.816z" style="fill:#f7921e;fill:color(display-p3 .9686 .5725 .1176);fill-opacity:1"/><path fill="#fff" d="m139.666 167.409 6.602-3.808v3.041l-6.602 3.816z" opacity=".3" style="fill:#fff;fill-opacity:1"/><path fill="#F7921E" d="m106.632 171.225 6.603-3.812v3.045l-6.603 3.816z" style="fill:#f7921e;fill:color(display-p3 .9686 .5725 .1176);fill-opacity:1"/><path fill="#000" d="m106.632 171.225 6.603-3.812v3.045l-6.603 3.816z" opacity=".3" style="fill:#000;fill-opacity:1"/><path fill="#F7921E" d="m119.854 148.336 6.602-3.808v3.041l-6.602 3.82z" style="fill:#f7921e;fill:color(display-p3 .9686 .5725 .1176);fill-opacity:1"/><path fill="#fff" d="m119.854 148.336 6.602-3.808v3.041l-6.602 3.82z" opacity=".6" style="fill:#fff;fill-opacity:1"/><path fill="#E0E0E0" d="m93.347 157.355-.08.044v43.099l53.192-30.704v-43.095zm6.528 38.957-6.285 3.617v-2.663l6.284-3.63zm0-3.041-6.285 3.617v-2.675l6.284-3.625zm0-3.053-6.285 3.617v-2.691l6.284-3.625zm0-3.053-6.285 3.617v-2.675l6.284-3.625zm0-3.049-6.285 3.617v-2.679l6.284-3.625zm0-3.057-6.285 3.621v-2.679l6.284-3.621zm0-3.049-6.285 3.618v-2.676l6.284-3.625zm0-3.049-6.285 3.614v-2.676l6.284-3.625zm0-3.057-6.285 3.622v-2.668l6.284-3.625zm0-3.052-6.285 3.609v-2.675l6.284-3.622zm0-3.049-6.285 3.617v-2.675l6.284-3.63zm0-3.053-6.285 3.617v-2.679l6.284-3.622zm0-3.053-6.285 3.621v-2.675l6.284-3.625zm0-3.053-6.285 3.617v-2.671l6.284-3.629zm6.606 35.856-6.285 3.625v-2.675l6.285-3.626zm0-3.041-6.285 3.625v-2.675l6.285-3.638zm0-3.053-6.285 3.625v-2.679l6.285-3.626zm0-3.053-6.285 3.617v-2.675l6.285-3.625zm0-3.053-6.285 3.625v-2.675l6.285-3.621zm0-3.049-6.285 3.625v-2.679l6.285-3.625zm0-3.057-6.285 3.629v-2.679l6.285-3.625zm0-3.049-6.285 3.625v-2.675l6.285-3.625zm0-3.053-6.285 3.626v-2.676l6.285-3.629zm0-3.053-6.285 3.63v-2.688l6.285-3.625zm0-3.053-6.285 3.626v-2.691l6.285-3.626zm0-3.048-6.285 3.625v-2.675l6.285-3.63zm0-3.053-6.285 3.617v-2.679l6.285-3.626zm0-3.053-6.285 3.625v-2.679l6.285-3.626zm6.587 35.843-6.281 3.626v-2.668l6.281-3.625zm0-3.04-6.281 3.625v-2.675l6.281-3.626zm0-3.053-6.281 3.625v-2.675l6.281-3.626zm0-3.049-6.281 3.625v-2.679l6.281-3.626zm0-3.057-6.281 3.629v-2.679l6.281-3.625zm0-3.049-6.281 3.625v-2.675l6.281-3.625zm0-3.053-6.281 3.625v-2.675l6.281-3.633zm0-3.053-6.281 3.629v-2.679l6.281-3.625zm0-3.053-6.281 3.625v-2.675l6.281-3.625zm0-3.049-6.281 3.626v-2.676l6.281-3.621zm0-3.069-6.281 3.626v-2.679l6.281-3.61zm0-3.052-6.281 3.625v-2.675l6.281-3.61zm0-3.053-6.281 3.625v-2.675l6.281-3.59zm0-3.037-6.281 3.625v-2.679l6.281-3.622zm6.607 35.847-6.281 3.63v-2.668l6.281-3.625zm0-3.037-6.281 3.626v-2.68l6.281-3.625zm0-3.056-6.265 3.637v-2.679l6.281-3.626zm0-3.049-6.281 3.625v-2.675l6.281-3.626zm0-3.053-6.281 3.625v-2.671l6.281-3.63zm0-3.053-6.265 3.649v-2.679l6.281-3.626zm0-3.053-6.281 3.625v-2.675l6.281-3.625zm0-3.049-6.281 3.625v-2.675l6.281-3.629zm0-3.053-6.281 3.625v-2.679l6.281-3.625zm0-3.053-6.281 3.625v-2.675l6.281-3.625zm0-3.053-6.281 3.626v-2.676l6.281-3.625zm0-3.049-6.281 3.626v-2.68l6.281-3.625zm0-3.057-6.281 3.63v-2.679l6.281-3.626zm0-3.048-6.281 3.625v-2.671l6.281-3.626zm6.606 35.855-6.28 3.626v-2.672l6.28-3.625zm0-3.045-6.28 3.626v-2.676l6.28-3.625zm0-3.053-6.28 3.63v-2.68l6.28-3.625zm0-3.053-6.28 3.63v-2.668l6.28-3.625zm0-3.052-6.265 3.617v-2.671l6.281-3.626zm0-3.049-6.28 3.625v-2.675l6.28-3.63zm0-3.057-6.28 3.629v-2.651l6.28-3.626zm0-3.049-6.265 3.629v-2.675l6.281-3.625zm0-3.053-6.28 3.625v-2.667l6.28-3.633zm0-3.049-6.28 3.625v-2.679l6.28-3.625zm0-3.057-6.265 3.645V151.5l6.281-3.625zm0-3.049-6.28 3.626v-2.676l6.28-3.625zm0-3.053-6.28 3.626v-2.676l6.28-3.625zm0-3.053-6.28 3.63v-2.676l6.28-3.629zm6.623 35.856-6.281 3.625v-2.667l6.281-3.625zm0-3.045-6.281 3.629v-2.679l6.281-3.625zm0-3.049-6.281 3.626v-2.676l6.281-3.601zm0-3.053-6.281 3.626v-2.676l6.281-3.629zm0-3.053-6.281 3.63v-2.68l6.281-3.625zm0-3.052-6.281 3.625v-2.683l6.281-3.626zm0-3.049-6.281 3.625v-2.675l6.281-3.63zm0-3.057-6.281 3.629v-2.679l6.281-3.626zm0-3.049-6.281 3.625v-2.671l6.281-3.626zm0-3.053-6.281 3.625v-2.675l6.281-3.629zm0-3.049-6.281 3.625v-2.679l6.281-3.625zm0-3.057-6.281 3.625v-2.655l6.281-3.625zm0-3.053-6.281 3.625v-2.675l6.281-3.629zm0-3.049-6.281 3.626v-2.676l6.281-3.625zm6.607 35.852-6.281 3.625v-2.663l6.281-3.629zm0-3.041-6.281 3.625v-2.679l6.281-3.625zm0-3.053-6.281 3.629v-2.679l6.281-3.625zm0-3.053-6.281 3.625v-2.675l6.281-3.625zm0-3.049-6.281 3.626v-2.68l6.281-3.625zm0-3.057-6.281 3.63v-2.68l6.281-3.625zm0-3.049-6.281 3.626v-2.675l6.281-3.626zm0-3.052-6.281 3.625v-2.675l6.281-3.63zm0-3.053-6.281 3.629v-2.675l6.281-3.626zm0-3.053-6.281 3.625v-2.675l6.281-3.626zm0-3.049-6.281 3.625v-2.675l6.281-3.629zm0-3.053-6.281 3.625v-2.679l6.281-3.625zm0-3.053-6.281 3.629v-2.679l6.281-3.625zm0-3.053-6.281 3.625v-2.675l6.281-3.625zm6.606 35.856-6.281 3.625v-2.667l6.281-3.626zm0-3.045-6.281 3.625v-2.675l6.281-3.625zm0-3.049-6.281 3.625v-2.679l6.281-3.625zm0-3.057-6.281 3.629v-2.679l6.281-3.625zm0-3.049-6.281 3.625v-2.675l6.281-3.625zm0-3.053-6.281 3.626V155.3l6.281-3.629zm0-3.053-6.281 3.63v-2.68l6.281-3.625zm0-3.053-6.281 3.626v-2.676l6.281-3.625zm0-3.048-6.281 3.625v-2.675l6.281-3.63zm0-3.053-6.281 3.625v-2.679l6.281-3.626zm0-3.053-6.281 3.625v-2.675l6.281-3.626zm0-3.053-6.281 3.625v-2.675l6.281-3.625zm0-3.049-6.281 3.625v-2.679l6.281-3.609zm0-3.057-6.281 3.629v-2.671l6.281-3.625z" style="fill:#e0e0e0;fill:color(display-p3 .8784 .8784 .8784);fill-opacity:1"/><path fill="#F7921E" d="m164.087 77.077 49.638 28.623a2.05 2.05 0 0 1 .928 1.608v82.052a2.049 2.049 0 0 1-.928 1.605l-.189.105a2.06 2.06 0 0 1-1.859 0l-49.638-28.663a2.1 2.1 0 0 1-.656-.693 2.1 2.1 0 0 1-.272-.915V78.787a2.034 2.034 0 0 1 .928-1.586l.189-.11a2.07 2.07 0 0 1 1.859-.014" style="fill:#f7921e;fill:color(display-p3 .9686 .5725 .1176);fill-opacity:1"/><path fill="#000" d="m164.087 77.077 49.638 28.623a2.05 2.05 0 0 1 .928 1.608v82.052a2.049 2.049 0 0 1-.928 1.605l-.189.105a2.06 2.06 0 0 1-1.859 0l-49.638-28.663a2.1 2.1 0 0 1-.656-.693 2.1 2.1 0 0 1-.272-.915V78.787a2.034 2.034 0 0 1 .928-1.586l.189-.11a2.07 2.07 0 0 1 1.859-.014" opacity=".45" style="fill:#000;fill-opacity:1"/><path fill="#F7921E" d="M161.111 160.883c0 .815.571 1.335 1.281 1.742l48.932 28.23c.706.411 1.281.08 1.281-.727v-81.245a2.55 2.55 0 0 0-1.277-2.212l-48.933-28.259a.853.853 0 0 0-1.284.728z" style="fill:#f7921e;fill:color(display-p3 .9686 .5725 .1176);fill-opacity:1"/><path fill="#000" d="M161.111 160.883c0 .815.571 1.335 1.281 1.742l48.932 28.23c.706.411 1.281.08 1.281-.727v-81.245a2.55 2.55 0 0 0-1.277-2.212l-48.933-28.259a.853.853 0 0 0-1.284.728z" opacity=".3" style="fill:#000;fill-opacity:1"/><path fill="#F7921E" d="M161.107 78.787v.363a.87.87 0 0 1 .437-.731.86.86 0 0 1 .851.004l48.933 28.248c.389.222.712.545.935.935v.026l2.117-1.223a1.9 1.9 0 0 0-.669-.706l-49.624-28.626a2.05 2.05 0 0 0-1.859 0l-.186.109a2.04 2.04 0 0 0-.935 1.6" style="fill:#f7921e;fill:color(display-p3 .9686 .5725 .1176);fill-opacity:1"/><path fill="#000" d="M161.107 78.787v.363a.87.87 0 0 1 .437-.731.86.86 0 0 1 .851.004l48.933 28.248c.389.222.712.545.935.935v.026l2.117-1.223a1.9 1.9 0 0 0-.669-.706l-49.624-28.626a2.05 2.05 0 0 0-1.859 0l-.186.109a2.04 2.04 0 0 0-.935 1.6" opacity=".2" style="fill:#000;fill-opacity:1"/><path fill="#000" d="M162.315 158.972c0 .841.59 1.376 1.321 1.798l46.247 26.698c.728.422 1.321.08 1.321-.764v-73.087a2.636 2.636 0 0 0-1.313-2.278l-46.248-26.713a.88.88 0 0 0-1.207.322.9.9 0 0 0-.117.443v73.581z" opacity=".25" style="fill:#000;fill-opacity:1"/><path fill="#F5F5F5" d="m210.014 112.332-46.076-26.603a.89.89 0 0 0-.789 0l-.444.258a.87.87 0 0 0-.39.673v73.782a.88.88 0 0 0 .397.684l46.076 26.6a.86.86 0 0 0 .79 0l.443-.254a.877.877 0 0 0 .393-.684v-73.772a.87.87 0 0 0-.4-.684" style="fill:#f5f5f5;fill:color(display-p3 .9608 .9608 .9608);fill-opacity:1"/><path fill="#E0E0E0" d="M208.886 187.77a.7.7 0 0 0 .146.04h.076q.12.01.24 0a.7.7 0 0 0 .146-.04l.087-.04.444-.259a.86.86 0 0 0 .393-.68v-73.775a.8.8 0 0 0-.116-.386l-1.23.728a.85.85 0 0 1 .113.389V187.5c-.011.215-.139.306-.299.27" style="fill:#e0e0e0;fill:color(display-p3 .8784 .8784 .8784);fill-opacity:1"/><path fill="#F7921E" d="m162.705 85.987.444-.258a.88.88 0 0 1 .789 0l46.076 26.603a.88.88 0 0 1 .393.684v4.974l-1.233.728-46.859-27.07V86.66a.88.88 0 0 1 .39-.673" style="fill:#f7921e;fill:color(display-p3 .9686 .5725 .1176);fill-opacity:1"/><path fill="#fff" d="m162.705 85.987.444-.258a.88.88 0 0 1 .789 0l46.076 26.603a.88.88 0 0 1 .393.684v4.974l-1.233.728-46.859-27.07V86.66a.88.88 0 0 1 .39-.673" opacity=".4" style="fill:#fff;fill-opacity:1"/><path fill="#F7921E" d="M162.315 86.551c.051-.16.201-.215.382-.109l46.077 26.604a.8.8 0 0 1 .28.294l1.229-.727a.77.77 0 0 0-.276-.295l-46.073-26.59a.85.85 0 0 0-.785 0l-.444.26a.87.87 0 0 0-.39.563" style="fill:#f7921e;fill:color(display-p3 .9686 .5725 .1176);fill-opacity:1"/><path fill="#fff" d="M162.315 86.551c.051-.16.201-.215.382-.109l46.077 26.604a.8.8 0 0 1 .28.294l1.229-.727a.77.77 0 0 0-.276-.295l-46.073-26.59a.85.85 0 0 0-.785 0l-.444.26a.87.87 0 0 0-.39.563" opacity=".6" style="fill:#fff;fill-opacity:1"/><path fill="#F7921E" d="M210.407 113.016v4.978l-1.233.727v-4.995a.8.8 0 0 0-.113-.386l1.23-.728a.8.8 0 0 1 .116.404M207.253 159.354l-42.293-24.416v2.441l42.293 24.417z" style="fill:#f7921e;fill:color(display-p3 .9686 .5725 .1176);fill-opacity:1"/><path fill="#fff" d="m207.253 159.354-42.293-24.416v2.441l42.293 24.417z" opacity=".4" style="fill:#fff;fill-opacity:1"/><path fill="#F7921E" d="m165.226 137.754 41.772 24.118v3.227l-41.772-24.114zm-.258-.364v3.682l42.292 24.417v-3.693l-42.3-24.417z" style="fill:#f7921e;fill:color(display-p3 .9686 .5725 .1176);fill-opacity:1"/><path fill="#F7921E" d="m193.052 157.226.262.036v-3.431l-.262-.036zM179.106 149.171l.259.04v-3.45l-.259-.036z" style="fill:#f7921e;fill:color(display-p3 .9686 .5725 .1176);fill-opacity:1"/><path fill="#F7921E" d="m165.226 141.21 41.772 24.118v3.228l-41.772-24.115zm-.258-.364v3.664l42.292 24.417v-3.679l-42.3-24.413z" style="fill:#f7921e;fill:color(display-p3 .9686 .5725 .1176);fill-opacity:1"/><path fill="#F7921E" d="m193.052 160.683.262.036v-3.431l-.262-.037zM179.106 152.627l.259.037v-3.446l-.259-.036z" style="fill:#f7921e;fill:color(display-p3 .9686 .5725 .1176);fill-opacity:1"/><path fill="#F7921E" d="m165.226 144.666 41.772 24.119v3.227l-41.772-24.115zm-.258-.363v3.685l42.292 24.417v-3.696l-42.3-24.421z" style="fill:#f7921e;fill:color(display-p3 .9686 .5725 .1176);fill-opacity:1"/><path fill="#F7921E" d="m193.052 164.135.262.04v-3.431l-.262-.036zM179.106 156.084l.259.036v-3.446l-.259-.04z" style="fill:#f7921e;fill:color(display-p3 .9686 .5725 .1176);fill-opacity:1"/><path fill="#F7921E" d="m165.226 148.123 41.772 24.119v3.227l-41.772-24.119zm-.258-.364v3.664l42.292 24.421v-3.682l-42.3-24.417z" style="fill:#f7921e;fill:color(display-p3 .9686 .5725 .1176);fill-opacity:1"/><path fill="#F7921E" d="m193.052 167.592.262.04v-3.431l-.262-.036zM179.106 159.54l.259.036v-3.449l-.259-.036zM165.226 154.384l13.888 8.005v4.282l-13.888-8.004zm-.258-.451v4.883l14.404 8.314v-4.887l-14.412-8.31zM207.253 181.025l-21.365-12.338v2.059l21.365 12.335zM183.666 130.274l-18.706-10.799v2.441l18.706 10.799z" style="fill:#f7921e;fill:color(display-p3 .9686 .5725 .1176);fill-opacity:1"/><path fill="#fff" d="m183.666 130.274-18.706-10.799v2.441l18.706 10.799z" opacity=".4" style="fill:#fff;fill-opacity:1"/><path fill="#F7921E" d="m167.216 126.78-1.484-.855v-1.95l1.484.859zm-1.306-.957 1.132.652v-1.539l-1.132-.655zM167.216 130.415l-1.484-.859v-1.946l1.484.855zm-1.306-.96 1.132.654v-1.542l-1.132-.652zM167.216 134.05l-1.484-.859v-1.95l1.484.858zm-1.306-.961 1.132.655v-1.543l-1.132-.655z" style="fill:#f7921e;fill:color(display-p3 .9686 .5725 .1176);fill-opacity:1"/><path fill="#E0E0E0" d="M182.931 134.548a.1.1 0 0 1-.066-.018l-14.772-8.525a.14.14 0 0 1-.048-.032.1.1 0 0 1-.03-.049q-.01-.029-.007-.057a.1.1 0 0 1 .018-.055.13.13 0 0 1 .039-.043.14.14 0 0 1 .054-.022.14.14 0 0 1 .109.029l14.768 8.547q.046.027.06.079a.13.13 0 0 1-.013.099.119.119 0 0 1-.112.047M182.931 135.472a.12.12 0 0 1-.066 0l-14.772-8.528a.13.13 0 0 1-.047-.178.12.12 0 0 1 .08-.064.1.1 0 0 1 .053-.003q.026.005.049.019l14.768 8.525a.14.14 0 0 1 .053.065q.015.04.004.083a.138.138 0 0 1-.122.1zM182.931 138.183a.13.13 0 0 1-.066-.018l-14.772-8.528a.132.132 0 0 1-.047-.179.13.13 0 0 1 .08-.064.13.13 0 0 1 .102.013l14.768 8.529a.14.14 0 0 1 .053.064q.015.041.004.083a.13.13 0 0 1-.045.07.13.13 0 0 1-.077.03M182.931 139.107a.14.14 0 0 1-.066-.018l-14.772-8.529a.14.14 0 0 1-.048-.032.1.1 0 0 1-.03-.049q-.01-.028-.007-.057a.13.13 0 0 1 .018-.055.13.13 0 0 1 .039-.043.14.14 0 0 1 .054-.022.14.14 0 0 1 .109.029l14.768 8.529q.046.027.06.079a.13.13 0 0 1-.013.099.1.1 0 0 1-.046.05.13.13 0 0 1-.066.019M182.931 141.818a.15.15 0 0 1-.066 0l-14.772-8.529a.14.14 0 0 1-.047-.08.136.136 0 0 1 .089-.151q.047-.015.093.002l14.768 8.528q.046.028.06.08a.13.13 0 0 1-.013.099.13.13 0 0 1-.112.051M182.931 142.739a.12.12 0 0 1-.066 0l-14.772-8.525a.14.14 0 0 1-.048-.032.1.1 0 0 1-.03-.05q-.01-.028-.007-.057a.14.14 0 0 1 .057-.097.13.13 0 0 1 .054-.022.1.1 0 0 1 .057.002.14.14 0 0 1 .052.026l14.768 8.525q.046.029.061.082a.13.13 0 0 1-.014.1.1.1 0 0 1-.05.039.13.13 0 0 1-.062.009" style="fill:#e0e0e0;fill:color(display-p3 .8784 .8784 .8784);fill-opacity:1"/><path fill="#F7921E" d="m207.253 143.892-18.705-10.799v2.441l18.705 10.799z" style="fill:#f7921e;fill:color(display-p3 .9686 .5725 .1176);fill-opacity:1"/><path fill="#fff" d="m207.253 143.892-18.705-10.799v2.441l18.705 10.799z" opacity=".4" style="fill:#fff;fill-opacity:1"/><path fill="#F7921E" d="m190.807 140.402-1.484-.858v-1.947l1.484.859zm-1.31-.96 1.132.655v-1.543l-1.132-.655zM190.807 144.033l-1.484-.855v-1.943l1.484.859zm-1.31-.957 1.132.652v-1.539l-1.132-.655zM190.807 147.668l-1.484-.859v-1.935l1.484.855zm-1.31-.961 1.132.655v-1.542l-1.132-.655z" style="fill:#f7921e;fill:color(display-p3 .9686 .5725 .1176);fill-opacity:1"/><path fill="#E0E0E0" d="M206.518 148.167a.14.14 0 0 1-.065 0l-14.769-8.528a.14.14 0 0 1-.04-.034.13.13 0 0 1-.011-.148.14.14 0 0 1 .082-.061.13.13 0 0 1 .1.013l14.772 8.529a.13.13 0 0 1 .055.064.13.13 0 0 1 .005.084.13.13 0 0 1-.048.07.14.14 0 0 1-.081.026zM206.518 149.091a.12.12 0 0 1-.066-.018l-14.768-8.525a.14.14 0 0 1-.063-.081.14.14 0 0 1 .012-.101.135.135 0 0 1 .182-.048l14.772 8.525a.134.134 0 0 1-.002.231.14.14 0 0 1-.067.017M206.518 151.787a.12.12 0 0 1-.066 0l-14.768-8.525a.14.14 0 0 1-.063-.08.14.14 0 0 1 .012-.102.14.14 0 0 1 .081-.061.14.14 0 0 1 .101.014l14.772 8.525q.046.028.061.081a.14.14 0 0 1-.014.101.13.13 0 0 1-.116.047M206.518 152.725a.15.15 0 0 1-.065-.018l-14.769-8.528a.1.1 0 0 1-.04-.033.13.13 0 0 1-.011-.146.136.136 0 0 1 .182-.051l14.772 8.529q.046.029.061.081a.13.13 0 0 1-.063.149.14.14 0 0 1-.067.017M206.518 155.425a.15.15 0 0 1-.065-.018l-14.769-8.529a.1.1 0 0 1-.04-.032.126.126 0 0 1-.011-.146.14.14 0 0 1 .081-.063.14.14 0 0 1 .101.012l14.772 8.529q.046.028.061.081a.13.13 0 0 1-.014.101.14.14 0 0 1-.116.065M206.518 156.356a.1.1 0 0 1-.065 0l-14.769-8.528a.1.1 0 0 1-.04-.034.13.13 0 0 1-.028-.098.14.14 0 0 1 .017-.05.134.134 0 0 1 .182-.047l14.772 8.528a.131.131 0 0 1-.069.244z" style="fill:#e0e0e0;fill:color(display-p3 .8784 .8784 .8784);fill-opacity:1"/><path fill="#F7921E" d="m207.253 134.839-42.293-24.417v2.442l42.293 24.417z" style="fill:#f7921e;fill:color(display-p3 .9686 .5725 .1176);fill-opacity:1"/><path fill="#fff" d="m207.253 134.839-42.293-24.417v2.442l42.293 24.417z" opacity=".4" style="fill:#fff;fill-opacity:1"/><path fill="#E0E0E0" d="M185.889 126.886a.15.15 0 0 1-.069-.018l-20.066-11.585a.14.14 0 0 1-.079-.081q-.009-.028-.006-.058a.14.14 0 0 1 .057-.097.1.1 0 0 1 .053-.022.14.14 0 0 1 .058.002.1.1 0 0 1 .051.027l20.077 11.585a.135.135 0 0 1 .048.182.15.15 0 0 1-.053.049.14.14 0 0 1-.071.016M206.252 140.071a.14.14 0 0 1-.065 0l-40.433-23.358a.136.136 0 0 1-.079-.082.14.14 0 0 1 .051-.154.1.1 0 0 1 .053-.022.1.1 0 0 1 .058.002.14.14 0 0 1 .051.026l40.43 23.344a.13.13 0 0 1 .066.13.1.1 0 0 1-.019.048.13.13 0 0 1-.047.05.13.13 0 0 1-.066.016M206.252 141.418a.12.12 0 0 1-.066-.019l-40.433-23.34a.13.13 0 0 1-.06-.081.14.14 0 0 1 .013-.101.136.136 0 0 1 .182-.047l40.429 23.344a.1.1 0 0 1 .041.032q.016.022.023.046a.13.13 0 0 1-.016.1.13.13 0 0 1-.047.05.13.13 0 0 1-.066.016" style="fill:#e0e0e0;fill:color(display-p3 .8784 .8784 .8784);fill-opacity:1"/><path fill="#000" d="M172.979 89.065v3.963a3.4 3.4 0 0 0 1.554 2.688l7.666 4.425c.376.285.661.673.822 1.117.155.347.354.672.593.967.597.677 1.896 1.379 2.813 1.674q.45.146.917.211l.364.051c.836.113 1.877.255 2.488.608l8.987 5.177c.236.145.506.225.783.233a1 1 0 0 0 .523-.135 1.28 1.28 0 0 0 .572-1.182v-3.955a3.4 3.4 0 0 0-1.554-2.689l-3.013-1.732h-.043a.314.314 0 0 0-.4.135.32.32 0 0 0-.035.221.32.32 0 0 0 .118.19q.016.017.037.026l3.012 1.742a2.79 2.79 0 0 1 1.234 2.132v3.923a.54.54 0 0 1-.249.618.54.54 0 0 1-.661-.091l-8.972-5.174c-.728-.414-1.82-.564-2.726-.684l-.363-.051a5 5 0 0 1-.815-.189 6.75 6.75 0 0 1-2.522-1.484 3.8 3.8 0 0 1-.498-.83 2.97 2.97 0 0 0-1.092-1.386l-7.666-4.424a2.77 2.77 0 0 1-1.23-2.132v-3.963a.68.68 0 0 1 .248-.618.69.69 0 0 1 .662.094l2.612 1.51q.128-.297.328-.553l-2.62-1.513a1.16 1.16 0 0 0-1.313-.1 1.16 1.16 0 0 0-.561 1.191z" opacity=".25" style="fill:#000;fill-opacity:1"/><path fill="#37474F" d="M178.572 89.138a.8.8 0 0 0-.812.076 2.52 2.52 0 0 0-1.138 1.972.79.79 0 0 0 .338.728l18.192 10.504 1.612-2.794z" style="fill:#37474f;fill:color(display-p3 .2157 .2784 .3098);fill-opacity:1"/><path fill="#455A64" d="m195.953 101.046-19-10.973c.189-.354.468-.652.807-.866.04-.022.077-.033.113-.051l18.702 10.799z" style="fill:#455a64;fill:color(display-p3 .2706 .3529 .3922);fill-opacity:1"/><path fill="#263238" d="M195.952 99.722c.629-.364 1.142-.07 1.142.658a2.51 2.51 0 0 1-1.142 1.972c-.63.364-1.139.07-1.139-.658a2.52 2.52 0 0 1 1.139-1.972" style="fill:#263238;fill:color(display-p3 .149 .1961 .2196);fill-opacity:1"/><path fill="#455A64" d="M172.655 89.349v3.959c.027.54.181 1.064.451 1.532.271.468.649.864 1.103 1.156l7.666 4.428c.373.286.656.672.815 1.114a4.3 4.3 0 0 0 .59.971 7.34 7.34 0 0 0 2.812 1.67q.45.147.921.215l.364.051c.836.113 1.877.255 2.488.607l8.976 5.178c.235.146.503.227.779.236.185.002.367-.046.528-.138a1.29 1.29 0 0 0 .567-1.179v-3.962a3.38 3.38 0 0 0-1.553-2.689l-3.013-1.739a.1.1 0 0 0-.044 0 .314.314 0 0 0-.389.137.315.315 0 0 0 .076.405q.013.02.033.029l3.016 1.739a2.78 2.78 0 0 1 1.23 2.133v3.962a.534.534 0 0 1-.246.624.54.54 0 0 1-.663-.1l-8.951-5.2c-.728-.414-1.819-.567-2.725-.684l-.364-.05a5 5 0 0 1-.815-.193 6.7 6.7 0 0 1-2.525-1.478 3.8 3.8 0 0 1-.499-.829 2.96 2.96 0 0 0-1.091-1.386l-7.663-4.428a2.778 2.778 0 0 1-1.23-2.132v-3.96a.7.7 0 0 1 .248-.621.68.68 0 0 1 .662.098l2.612 1.506a2.7 2.7 0 0 1 .328-.553l-2.62-1.51a1.16 1.16 0 0 0-1.874 1.092z" style="fill:#455a64;fill:color(display-p3 .2706 .3529 .3922);fill-opacity:1"/><path fill="#FCD116" stroke="#FCD116" d="M170.993 102.209c-.622-.371-1.7-.093-1.7-.093l.058 8.621 1.692 1.718 1.545.32-.029-5.102 1.17 1.725v-1.103l-1.257-1.683.029-2.677s-.948-1.393-1.508-1.726Z" style="fill:#fcd116;fill:color(display-p3 .9882 .8196 .0863);fill-opacity:1;stroke:#fcd116;stroke:color(display-p3 .9882 .8196 .0863);stroke-opacity:1"/><path fill="#009246" d="m173.734 109.425-1.169-.689Z" style="fill:#009246;fill:color(display-p3 0 .5725 .2745);fill-opacity:1"/><path stroke="#009246" stroke-width="1.259" d="m173.734 109.425-1.169-.689" style="stroke:#009246;stroke:color(display-p3 0 .5725 .2745);stroke-opacity:1"/><path stroke="#FCD116" d="m169.293 102.116 1.752 1.291 1.456.527M171.045 103.407l-.002 9.048" style="stroke:#fcd116;stroke:color(display-p3 .9882 .8196 .0863);stroke-opacity:1"/><path fill="#009246" stroke="#009246" stroke-linejoin="bevel" d="m173.081 106.781.002-.796.823 1.141-.011-.768 1.207.709.082 6.191-1.258-.321.021-4.941z" style="fill:#009246;fill:color(display-p3 0 .5725 .2745);fill-opacity:1;stroke:#009246;stroke:color(display-p3 0 .5725 .2745);stroke-opacity:1"/><path fill="#009246" stroke="#009246" d="m173.084 105.985-.601-.37-.009.816.607.35z" style="fill:#009246;fill:color(display-p3 0 .5725 .2745);fill-opacity:1;stroke:#009246;stroke:color(display-p3 0 .5725 .2745);stroke-opacity:1"/><path stroke="#009246" d="m173.947 107.995-.757-.422M173.926 112.937l-1.053-1.017v-3.028" style="stroke:#009246;stroke:color(display-p3 0 .5725 .2745);stroke-opacity:1"/><path fill="#009246" d="m173.895 106.358-1.411-.835Z" style="fill:#009246;fill:color(display-p3 0 .5725 .2745);fill-opacity:1"/><path stroke="#009246" stroke-width="1.259" d="m173.895 106.358-1.411-.835" style="stroke:#009246;stroke:color(display-p3 0 .5725 .2745);stroke-opacity:1"/><path stroke="#009246" d="M172.485 105.407s1.036.404 1.554.75c.364.242 1.063.91 1.063.91" style="stroke:#009246;stroke:color(display-p3 0 .5725 .2745);stroke-opacity:1"/><path stroke="#009246" d="m173.613 105.912.004-.415.851.576-.005.417" style="stroke:#009246;stroke:color(display-p3 0 .5725 .2745);stroke-opacity:1"/><path fill="#FCD116" d="M170.546 102.05s-.012-.524.003-.499c0 0 .269.243.408.331.174.11.52.241.52.241l-.002.506" style="fill:#fcd116;fill:color(display-p3 .9882 .8196 .0863);fill-opacity:1"/><path stroke="#000" d="M170.546 102.05s-.012-.524.003-.499c0 0 .269.243.408.331.174.11.52.241.52.241l-.002.506" style="stroke:#000;stroke-opacity:1"/><path fill="#000" d="M172.663 101.153c0 .974-.714 1.351-1.594.843s-1.593-1.709-1.593-2.683c-.001-.974.712-1.351 1.592-.844.881.508 1.594 1.709 1.595 2.683zM175.319 105.365c0 .71-.534.978-1.192.598-.659-.38-1.192-1.264-1.192-1.975-.001-.711.533-.98 1.192-.6s1.192 1.265 1.192 1.976z" style="fill:#000;fill-opacity:1"/><path fill="url(#a)" d="M171.611 98.908s-.64-.573-.905-.559c-.349.018-.611.829-.611.829l1.793 2.888s.421-.047.547-.205c.154-.19.212-.839.212-.839s-.159-.764-.342-1.135c-.178-.36-.694-.979-.694-.979"/><path fill="url(#b)" d="M174.538 103.75s-.487-.435-.688-.425c-.265.014-.464.629-.464.629l1.362 2.193s.319-.036.415-.155c.117-.145.161-.638.161-.638s-.121-.58-.26-.861c-.135-.274-.526-.743-.526-.743"/><path fill="#009246" d="M174.402 106.413a6 6 0 0 0-.302-.238 4 4 0 0 0-.466-.277l-.003-.207v-.141s.272.252.413.345c.137.09.409.198.409.198l-.002.179.001.128c.001.053.003.066.001.064-.002-.001-.031-.034-.051-.051M174.339 106.594c-.278-.164-.79-.465-1.137-.671l-.663-.391-.033-.019v-.072l.009.004a14 14 0 0 1 1.106.497c.151.077.348.192.436.253.145.101.313.237.559.454.118.104.33.296.334.303.001.002.006.005-.611-.358M173.493 106.522a34 34 0 0 1-.389-.544c-.001-.006-.007-.01-.294-.186l-.276-.17-.029-.018v-.042l.05.029 1.318.78c.001.002.009.63.008.659v.031zM172.847 107.083l-.351-.469a.4.4 0 0 1-.001-.075l.001-.072.288.167.289.166.403.566.403.565-.013-.007c-.019-.01-.623-.346-.649-.362l-.022-.013z" style="fill:#009246;fill:color(display-p3 0 .5725 .2745);fill-opacity:1"/><path fill="#FCD116" d="m173.279 109.127-.525-.309-.155-.091-.005-.987.236.348.556.819.32.472-.028-.017z" style="fill:#fcd116;fill:color(display-p3 .9882 .8196 .0863);fill-opacity:1"/><path fill="#009246" d="m173.4 112.399-.501-.482v-2.956l.426.251.427.252v-.588l-.001-.587-.238-.318-.239-.319.132.07c.072.039.217.12.323.181l.192.11-.005 1.544-.01 2.434-.005.89z" style="fill:#009246;fill:color(display-p3 0 .5725 .2745);fill-opacity:1"/><path fill="#000" d="m176.988 107.816.793.458q.321.185.468.112.146-.075.146-.425 0-.329-.144-.581a1.1 1.1 0 0 0-.427-.416l-.836-.482zm-.005.833v1.641l-.819-.473v-4.613l1.771 1.023q.627.362.951.926t.323 1.294q0 .714-.317.918-.316.204-.903-.135zM179.812 111.923v-4.612l.782.451v1.584a.52.52 0 0 1 .38-.129 1.1 1.1 0 0 1 .493.167 2.05 2.05 0 0 1 .809.865q.089.18.126.367.036.186.036.553v2.2710000000000004l-.782-.452v-1.782q0-.632-.1-.851a.83.83 0 0 0-.359-.369q-.279-.16-.441-.062-.162.099-.162.431v2.02zM183.144 110.064v-.83l.787.455v.83zm0 3.783v-3.404l.787.455v3.404zM184.658 114.722v-4.613l.787.454v4.613zM186.224 115.625v-4.612l.825.476v1.719l1.645.95v-1.72l.824.477v4.612l-.824-.476v-2.045l-1.645-.949v2.045zM192.09 117.979l.785.453q-.12.47-.48.566-.361.097-.881-.202a2.6 2.6 0 0 1-1.011-1.081 3.3 3.3 0 0 1-.373-1.56q0-.837.367-1.106.368-.27 1.007.098.675.392 1.044 1.077.367.688.367 1.564l-.001.145a1 1 0 0 1-.007.088l-1.963-1.133q.016.41.169.702.153.291.439.457.203.117.333.1t.205-.168m-1.146-1.689 1.157.668a1.34 1.34 0 0 0-.158-.616 1.1 1.1 0 0 0-.423-.424q-.257-.149-.405-.052-.147.096-.171.424M195.122 120.34a.48.48 0 0 1-.389.18q-.241 0-.56-.184a1.7 1.7 0 0 1-.659-.662 1.9 1.9 0 0 1-.231-.935q0-.482.231-.602t.764.093q.122.048.319.134.501.214.501-.046a.6.6 0 0 0-.111-.36 1.2 1.2 0 0 0-.371-.303q-.237-.137-.365-.101-.127.036-.127.24v.05l-.736-.425v-.063q0-.522.32-.637.318-.115.881.21.616.355.946.793.328.437.328.903v1.936q0 .213.038.339a.6.6 0 0 0 .127.232v.153l-.819-.473a1.4 1.4 0 0 1-.087-.472m-.013-1.261a1.7 1.7 0 0 1-.443-.089l-.258-.084q-.209-.05-.291.005-.082.056-.082.237 0 .189.105.36a.8.8 0 0 0 .284.275q.32.184.502.082.183-.103.183-.463zM196.58 121.604v-4.613l.787.455v4.612zM199.384 123.249q-.108-.06-.258-.139l-.191-.102q-.452-.261-.617-.552-.167-.292-.167-.868v-1.842l-.389-.224v-.639l.389.225v-.931l.779.45v.93l.454.263v.638l-.454-.262v1.885q0 .135.051.207a.7.7 0 0 0 .211.164l.192.111zM199.858 123.497v-4.613l.781.451v1.585a.52.52 0 0 1 .38-.13q.22.01.494.167.26.15.469.375.21.224.34.49.089.18.125.367t.037.553v2.2710000000000004l-.782-.451v-1.782q0-.633-.1-.852a.84.84 0 0 0-.36-.369q-.278-.16-.441-.062-.162.1-.162.431v2.02zM179.782 113.708l-.118-.606a.8.8 0 0 0-.072-.233.4.4 0 0 0-.117-.123l.012-.033.672.388-.012.033q-.098-.056-.143-.041-.045.017-.045.074 0 .036.018.136l.091.489.227-.198a.6.6 0 0 0 .108-.115.16.16 0 0 0 .022-.079.17.17 0 0 0-.028-.084.3.3 0 0 0-.09-.089l.011-.034.421.243v.04a.15.15 0 0 0-.098-.017.5.5 0 0 0-.162.114l-.397.347-.093.288a.6.6 0 0 0-.03.106.17.17 0 0 0 .034.097.34.34 0 0 0 .115.097l.039.023-.011.033-.717-.413.01-.035a.3.3 0 0 0 .126.051q.048.004.071-.02a.4.4 0 0 0 .049-.111zM181.211 114.175a.65.65 0 0 1 .262.302q.036.091.036.178a.5.5 0 0 1-.093.299.34.34 0 0 1-.247.136.52.52 0 0 1-.307-.076.58.58 0 0 1-.295-.474q0-.152.057-.251a.4.4 0 0 1 .146-.147.4.4 0 0 1 .203-.042.5.5 0 0 1 .238.075m-.043.034q-.054-.032-.09-.019-.073.027-.164.226a1 1 0 0 0-.091.403q0 .05.029.099.03.05.069.072.04.024.071.015.045-.014.111-.111a.96.96 0 0 0 .151-.517.2.2 0 0 0-.086-.168M182.135 114.709l-.2.625a.2.2 0 0 0-.015.062q0 .01.008.02a.1.1 0 0 0 .019.02q.048.027.127-.016a.8.8 0 0 0 .239-.235l.094-.279.261.141-.198.605a.5.5 0 0 0-.025.09.1.1 0 0 0 .008.022q.007.014.016.019.015.007.028.003a.3.3 0 0 0 .098-.071l.035.047q-.144.19-.316.09a.3.3 0 0 1-.101-.092.2.2 0 0 1-.036-.111q0-.059.025-.134l.051-.155q-.135.127-.195.165a.3.3 0 0 1-.157.053.24.24 0 0 1-.121-.034.3.3 0 0 1-.095-.097.25.25 0 0 1-.039-.131q0-.055.025-.134l.117-.368a.5.5 0 0 0 .029-.127.1.1 0 0 0-.008-.034.1.1 0 0 0-.028-.035.4.4 0 0 0-.07-.048l.01-.036.352.139zM183.252 115.354l-.156.522q.192-.337.289-.384.057-.028.12.008a.2.2 0 0 1 .07.074.2.2 0 0 1 .027.11q0 .105-.048.149-.031.029-.07.006a.14.14 0 0 1-.061-.076 1 1 0 0 0-.029-.064.1.1 0 0 0-.018-.018.04.04 0 0 0-.022-.006q-.023 0-.059.03a.5.5 0 0 0-.09.117 1.4 1.4 0 0 0-.084.153 2 2 0 0 0-.084.264l-.25-.144.171-.624a.5.5 0 0 0 .018-.096.1.1 0 0 0-.01-.051.1.1 0 0 0-.027-.04.4.4 0 0 0-.07-.048l.009-.026.312.108zM184.702 116.523l-.113.346a.4.4 0 0 0-.024.109q0 .05.031.094.03.043.14.109l-.013.032-.684-.395.011-.034a.4.4 0 0 0 .123.053.07.07 0 0 0 .06-.02.4.4 0 0 0 .053-.123l.259-.788a.4.4 0 0 0 .027-.119.15.15 0 0 0-.034-.087.4.4 0 0 0-.124-.102l.011-.034.555.321q.228.131.329.25a.6.6 0 0 1 .155.377q0 .186-.155.237-.154.053-.416-.099a2 2 0 0 1-.191-.127m.021-.072q.067.047.111.073.142.082.225-.008a.34.34 0 0 0 .081-.239.35.35 0 0 0-.052-.188.4.4 0 0 0-.146-.14l-.049-.026zM186.409 117.192l-.201.608-.02.077-.003.022q0 .012.009.028.008.015.018.02.021.012.06 0a.4.4 0 0 0 .074-.058l.036.041q-.073.1-.156.116a.26.26 0 0 1-.18-.039.23.23 0 0 1-.089-.084.2.2 0 0 1-.031-.099q0-.042.033-.139l.025-.073q-.12.147-.231.174a.18.18 0 0 1-.136-.027.3.3 0 0 1-.138-.161.6.6 0 0 1-.042-.211q0-.153.089-.301a.39.39 0 0 1 .233-.185.28.28 0 0 1 .316.118q.036.055.052.159l.037-.112zm-.331.016a.3.3 0 0 0-.026-.142.13.13 0 0 0-.05-.057.07.07 0 0 0-.066-.005q-.069.027-.15.187a.7.7 0 0 0-.08.311q0 .057.019.094a.1.1 0 0 0 .039.048.09.09 0 0 0 .094-.002.4.4 0 0 0 .123-.126.56.56 0 0 0 .097-.308M186.954 117.491l-.156.522q.192-.336.289-.384.057-.028.12.008a.2.2 0 0 1 .071.074.24.24 0 0 1 .026.11q0 .105-.048.149-.031.029-.069.006a.14.14 0 0 1-.062-.076 1 1 0 0 0-.029-.064.1.1 0 0 0-.018-.017.04.04 0 0 0-.022-.006q-.022 0-.059.029a.5.5 0 0 0-.09.117q-.054.088-.084.153-.03.064-.084.265l-.25-.145.171-.624a.5.5 0 0 0 .018-.096.1.1 0 0 0-.01-.051.1.1 0 0 0-.026-.039.4.4 0 0 0-.071-.049l.009-.026.312.108zM187.882 117.761l-.083.249.135.078-.036.104-.133-.077-.173.532a.3.3 0 0 0-.016.08q0 .014.009.03t.021.022a.05.05 0 0 0 .036.006.26.26 0 0 0 .111-.069l.036.045q-.072.089-.157.101a.27.27 0 0 1-.169-.037.3.3 0 0 1-.109-.1.22.22 0 0 1-.038-.118.5.5 0 0 1 .027-.147l.163-.495-.141-.081.021-.068a.7.7 0 0 0 .223.009.7.7 0 0 0 .219-.095zM188.427 118.342l-.128.393q.13-.13.193-.168a.35.35 0 0 1 .163-.055q.068 0 .128.035a.3.3 0 0 1 .092.095.26.26 0 0 1 .038.132q0 .06-.025.134l-.132.388a.3.3 0 0 0-.017.07q0 .011.008.024a.1.1 0 0 0 .016.018q.01.007.022.004a.2.2 0 0 0 .073-.047l.03-.028.039.047q-.151.182-.319.085a.3.3 0 0 1-.1-.093.2.2 0 0 1-.036-.108q0-.046.025-.121l.129-.391a.2.2 0 0 0 .013-.06.1.1 0 0 0-.009-.026.1.1 0 0 0-.022-.022q-.04-.023-.095.002-.143.061-.276.268l-.084.275-.264-.152.193-.588a.5.5 0 0 0 .028-.131.1.1 0 0 0-.008-.036.2.2 0 0 0-.027-.035.4.4 0 0 0-.07-.047l.011-.035.348.137zM189.37 119.487a1 1 0 0 0-.009.111.334.334 0 0 0 .165.276.34.34 0 0 0 .145.046.4.4 0 0 0 .169-.032l.031.048a.4.4 0 0 1-.231.082.5.5 0 0 1-.249-.08.6.6 0 0 1-.239-.225.5.5 0 0 1-.066-.239q0-.18.099-.301a.35.35 0 0 1 .268-.131.6.6 0 0 1 .342.089.4.4 0 0 1 .131.12q.044.069.044.135a.2.2 0 0 1-.043.13.23.23 0 0 1-.151.078.5.5 0 0 1-.203-.022 1.4 1.4 0 0 1-.203-.085m.01-.051q.09.038.14.043a.2.2 0 0 0 .099-.022.23.23 0 0 0 .083-.088.3.3 0 0 0 .035-.134.12.12 0 0 0-.057-.098q-.05-.028-.111.008-.114.068-.189.291M190.479 119.526l-.156.522q.192-.336.289-.384.057-.028.12.008a.2.2 0 0 1 .07.074.2.2 0 0 1 .027.11q0 .105-.049.149-.03.029-.069.006a.14.14 0 0 1-.062-.076.4.4 0 0 0-.029-.064.05.05 0 0 0-.039-.023q-.023 0-.059.029a.5.5 0 0 0-.091.117q-.054.089-.084.153a2 2 0 0 0-.083.265l-.25-.145.17-.623a.5.5 0 0 0 .019-.096.14.14 0 0 0-.01-.052.2.2 0 0 0-.027-.039.4.4 0 0 0-.071-.049l.01-.026.312.108zM191.804 119.79a.3.3 0 0 1 .108.11.27.27 0 0 1 .044.138q0 .067-.045.088-.044.021-.107-.015a.3.3 0 0 1-.106-.109.26.26 0 0 1-.045-.138q0-.067.044-.088.044-.022.107.014m.064.538-.212.653a.3.3 0 0 0-.017.077q0 .012.009.027a.1.1 0 0 0 .02.022.04.04 0 0 0 .035.004.3.3 0 0 0 .111-.082l.035.042q-.156.197-.331.095a.3.3 0 0 1-.107-.101.23.23 0 0 1-.04-.124q0-.04.018-.092l.143-.438a.3.3 0 0 0 .021-.101.1.1 0 0 0-.02-.054.2.2 0 0 0-.054-.05l-.037-.02.014-.036.35.143zM192.481 120.682l-.128.393q.129-.13.193-.168a.33.33 0 0 1 .162-.055q.068 0 .128.035a.26.26 0 0 1 .092.095.26.26 0 0 1 .038.132q0 .06-.025.133l-.132.389a.3.3 0 0 0-.016.07.1.1 0 0 0 .007.024.1.1 0 0 0 .016.018.03.03 0 0 0 .022.004.2.2 0 0 0 .073-.047l.03-.028.04.047q-.153.182-.32.085a.3.3 0 0 1-.1-.093.2.2 0 0 1-.036-.108q0-.046.025-.121l.129-.391a.2.2 0 0 0 .013-.06.05.05 0 0 0-.009-.026.1.1 0 0 0-.022-.022q-.04-.023-.095.002-.143.061-.276.268l-.084.275-.264-.152.194-.588a.5.5 0 0 0 .027-.131.1.1 0 0 0-.008-.036.1.1 0 0 0-.027-.035.3.3 0 0 0-.07-.047l.011-.035.349.136zM194.251 121.917l.513.296.113-.348a.4.4 0 0 0 .023-.116.14.14 0 0 0-.028-.083.6.6 0 0 0-.134-.108l.011-.033.696.402-.011.033q-.102-.059-.155-.043-.052.015-.09.128l-.26.796a.4.4 0 0 0-.026.117q0 .04.028.078a.5.5 0 0 0 .131.106l-.01.034-.683-.394.015-.031q.1.057.147.043t.086-.134l.121-.37-.511-.294-.119.37a.4.4 0 0 0-.026.119q0 .04.031.082a.4.4 0 0 0 .125.099l-.011.034-.673-.389.011-.033q.1.057.145.043.046-.015.086-.135l.26-.795a.4.4 0 0 0 .023-.115.13.13 0 0 0-.028-.083.5.5 0 0 0-.13-.106l.011-.034.685.395-.016.032q-.095-.055-.143-.04-.049.015-.089.132zM195.597 123.083a1 1 0 0 0-.009.111.331.331 0 0 0 .165.275.3.3 0 0 0 .145.047.4.4 0 0 0 .169-.032l.031.047a.4.4 0 0 1-.231.082.5.5 0 0 1-.249-.079.6.6 0 0 1-.239-.225.5.5 0 0 1-.066-.24.46.46 0 0 1 .099-.3.35.35 0 0 1 .268-.131.6.6 0 0 1 .342.089.4.4 0 0 1 .131.119.26.26 0 0 1 .044.136.2.2 0 0 1-.043.13.23.23 0 0 1-.151.078.5.5 0 0 1-.203-.023 1.3 1.3 0 0 1-.203-.084m.009-.051a.5.5 0 0 0 .141.042.17.17 0 0 0 .098-.021.267.267 0 0 0 .119-.222.1.1 0 0 0-.016-.058.1.1 0 0 0-.041-.04q-.05-.03-.112.008-.112.068-.189.291M197.218 123.432l-.201.609-.02.076-.003.022q0 .013.009.028.007.015.018.02.021.013.06 0a.4.4 0 0 0 .074-.057l.036.04q-.074.1-.156.116a.26.26 0 0 1-.179-.038.24.24 0 0 1-.09-.085.2.2 0 0 1-.031-.098q0-.043.033-.139l.025-.074q-.12.147-.231.174a.18.18 0 0 1-.136-.027.32.32 0 0 1-.138-.161.6.6 0 0 1-.042-.21q0-.154.089-.301a.38.38 0 0 1 .233-.185.28.28 0 0 1 .316.117q.036.056.052.159l.037-.112zm-.331.016a.3.3 0 0 0-.025-.142.14.14 0 0 0-.051-.057.07.07 0 0 0-.066-.005q-.07.027-.149.188a.7.7 0 0 0-.081.31q0 .058.019.094a.1.1 0 0 0 .039.048.09.09 0 0 0 .094-.002.554.554 0 0 0 .22-.434M197.932 123.328l-.342 1.029a.5.5 0 0 0-.03.119q0 .015.009.029t.019.021q.018.01.035.005a.25.25 0 0 0 .11-.08l.041.043a.35.35 0 0 1-.193.125.2.2 0 0 1-.139-.032.3.3 0 0 1-.108-.101.2.2 0 0 1-.041-.117.4.4 0 0 1 .025-.115l.279-.843a.4.4 0 0 0 .023-.097.1.1 0 0 0-.022-.054.24.24 0 0 0-.088-.069l.012-.035.348.137zM198.455 123.866l-.082.248.135.078-.036.105-.134-.077-.172.532a.3.3 0 0 0-.017.08.05.05 0 0 0 .01.029.1.1 0 0 0 .02.023.05.05 0 0 0 .036.005.26.26 0 0 0 .111-.069l.036.045a.24.24 0 0 1-.157.101.26.26 0 0 1-.168-.036.3.3 0 0 1-.109-.101.2.2 0 0 1-.039-.117q0-.064.027-.147l.163-.495-.14-.081.02-.069q.132.025.224.009a.7.7 0 0 0 .219-.095l.053.031zM199.131 124.02l-.269.827q.14-.136.203-.177a.33.33 0 0 1 .161-.055q.069 0 .13.036a.26.26 0 0 1 .09.095.25.25 0 0 1 .038.133.4.4 0 0 1-.025.133l-.131.388a.3.3 0 0 0-.017.071q0 .01.007.023t.016.017a.03.03 0 0 0 .025.004.15.15 0 0 0 .07-.047l.03-.028.041.047q-.09.103-.169.115a.23.23 0 0 1-.151-.029.3.3 0 0 1-.1-.093.2.2 0 0 1-.036-.108q0-.048.025-.122l.128-.39a.2.2 0 0 0 .012-.062.1.1 0 0 0-.009-.027.1.1 0 0 0-.02-.021q-.037-.021-.102.007-.134.056-.268.265l-.092.27-.257-.147.339-1.036a.4.4 0 0 0 .021-.1.1.1 0 0 0-.021-.054.23.23 0 0 0-.082-.065l.007-.04.344.135z" style="fill:#000;fill-opacity:1"/><defs><radialGradient id="a" cx="0" cy="0" r="1" gradientTransform="rotate(30 -100.908 370.144)scale(1.37061 1.04848)" gradientUnits="userSpaceOnUse"><stop stop-color="#fff" style="stop-color:white;stop-opacity:1"/><stop offset="1" stop-opacity="0" style="stop-color:none;stop-opacity:0"/></radialGradient><radialGradient id="b" cx="0" cy="0" r="1" gradientTransform="rotate(30 -107.962 377.914)scale(1.04051 .79598)" gradientUnits="userSpaceOnUse"><stop stop-color="#fff" style="stop-color:white;stop-opacity:1"/><stop offset="1" stop-opacity="0" style="stop-color:none;stop-opacity:0"/></radialGradient></defs></svg>