<svg xmlns="http://www.w3.org/2000/svg" width="257" height="257" fill="none"><path stroke="#D5D5D5" d="M47.06 222.837c-22.474-11.768-33.56-27.116-33.56-42.333s11.084-30.568 33.56-42.341C69.524 126.397 99 120.5 128.502 120.5c29.503 0 58.977 5.897 81.439 17.663 22.473 11.773 33.558 27.122 33.559 42.337s-11.083 30.564-33.559 42.337C187.476 234.603 158.002 240.5 128.5 240.5s-58.976-5.897-81.44-17.663Z" style="stroke:#d5d5d5;stroke:color(display-p3 .8353 .8353 .8353);stroke-opacity:1"/><path fill="#E0E0E0" d="m96.225 69.064 1.82 1.727 2.514-.465a.3.3 0 0 1 .287.105.27.27 0 0 1 .028.295l-1.143 2.203 1.235 2.15a.275.275 0 0 1-.019.295.3.3 0 0 1-.282.12l-2.532-.368-1.749 1.798a.3.3 0 0 1-.287.063.3.3 0 0 1-.129-.08.3.3 0 0 1-.068-.132l-.421-2.426-2.315-1.048a.3.3 0 0 1-.12-.103.27.27 0 0 1 0-.297.3.3 0 0 1 .12-.103l2.271-1.131.32-2.44a.3.3 0 0 1 .064-.13.29.29 0 0 1 .27-.093q.076.013.136.06M225.829 98.072l1.591 1.725 2.196-.465a.23.23 0 0 1 .139.014.25.25 0 0 1 .112.092.31.31 0 0 1 .024.294l-1.003 2.196 1.079 2.153a.3.3 0 0 1-.011.296.27.27 0 0 1-.108.098.23.23 0 0 1-.139.02l-2.212-.367-1.528 1.795a.25.25 0 0 1-.117.07.24.24 0 0 1-.133-.005.26.26 0 0 1-.112-.079.3.3 0 0 1-.061-.13l-.364-2.428-2.039-1.056a.26.26 0 0 1-.104-.103.3.3 0 0 1-.039-.148c0-.052.013-.104.039-.148a.26.26 0 0 1 .104-.103l1.988-1.13.275-2.442a.3.3 0 0 1 .062-.13.25.25 0 0 1 .112-.078.23.23 0 0 1 .131-.007q.067.016.118.066M217.224 44.065l1.826 1.72 2.513-.466a.3.3 0 0 1 .287.106.3.3 0 0 1 .058.143.27.27 0 0 1-.03.152l-1.148 2.205 1.235 2.158a.3.3 0 0 1 .035.15.28.28 0 0 1-.177.241.3.3 0 0 1-.159.019l-2.527-.368-1.753 1.799a.3.3 0 0 1-.288.063.29.29 0 0 1-.197-.212l-.416-2.429-2.319-1.049a.3.3 0 0 1-.12-.103.27.27 0 0 1 0-.297.3.3 0 0 1 .12-.103l2.276-1.133.315-2.442a.3.3 0 0 1 .067-.126.3.3 0 0 1 .269-.088q.075.014.133.06M43.226 102.08l1.819 1.724 2.515-.464a.3.3 0 0 1 .286.109.274.274 0 0 1 .029.295l-1.147 2.193 1.234 2.151a.27.27 0 0 1-.014.298.3.3 0 0 1-.286.116l-2.525-.367-1.756 1.788a.3.3 0 0 1-.286.065.3.3 0 0 1-.129-.079.27.27 0 0 1-.07-.13l-.415-2.425-2.317-1.041a.3.3 0 0 1-.12-.103.27.27 0 0 1 0-.296.3.3 0 0 1 .12-.103l2.25-1.115.318-2.439a.27.27 0 0 1 .058-.146.29.29 0 0 1 .293-.105.3.3 0 0 1 .143.074M227.241 71.26v-.232c0-1.703-1.266-3.237-2.591-4.016-.11-.063-.119.137-.051.192.974.678 1.699 1.702 2.048 2.895q.095.373.096.76a2.28 2.28 0 0 0-1.358-.412c-.48.013-.947.18-1.339.48a1.47 1.47 0 0 0-.519.73 1.6 1.6 0 0 0-.022.919c.117.282.305.525.54.7.236.176.512.279.799.297.302.018.604-.03.888-.142.285-.11.545-.282.766-.505.266-.257.467-.58.588-.942a5.05 5.05 0 0 1-.127 3.906c-.055.087-.118.16-.178.237a2.4 2.4 0 0 0-.885-.67 2.2 2.2 0 0 0-1.069-.177 1.21 1.21 0 0 0-.808.323 1.4 1.4 0 0 0-.429.806c-.051.747.582 1.038 1.174 1.01a4 4 0 0 0 1.866-.454l.071-.05q.13.24.207.505c.325 1.17-.257 2.417-1.097 3.15-1.064.91-2.436 1.093-3.754 1.116-.109 0-.042.214.038.227 1.39.242 2.981 0 4.091-.992.937-.833 1.596-2.222 1.266-3.542a3 3 0 0 0-.337-.801c.309-.333.534-.745.654-1.198.342-1.32.406-3.077-.528-4.12m-1.481 1.57a1.31 1.31 0 0 1-1.161.15.8.8 0 0 1-.299-.174.9.9 0 0 1-.21-.288.98.98 0 0 1-.04-.716c.393-1.01 1.647-1.02 2.398-.533q.12.084.228.187c-.051.287-.159.559-.317.796a1.9 1.9 0 0 1-.599.579m0 3.92q-.365.095-.739.128c-.228 0-.586.1-.768-.091a.566.566 0 0 1-.047-.592.9.9 0 0 1 .291-.3.8.8 0 0 1 .384-.128c.29-.029.582.019.85.139.269.12.506.308.692.549a2.2 2.2 0 0 1-.676.296zM232.78 130.482c-.45.128-.926.164-1.394.104a3.4 3.4 0 0 1-1.3-.448 2.8 2.8 0 0 1-.935-.908 2.44 2.44 0 0 1-.375-1.175 5.8 5.8 0 0 0 1.732-.067c.364-.046.694-.208.93-.453a1.2 1.2 0 0 0 .343-.881 1.26 1.26 0 0 0-.408-.795 1.6 1.6 0 0 0-.885-.405 2.3 2.3 0 0 0-1.168.292 1.9 1.9 0 0 0-.782.81c-.17.307-.279.636-.322.974a2.2 2.2 0 0 1-.879-.376 1.8 1.8 0 0 1-.577-.691 2.94 2.94 0 0 1 .031-2.2c.132-.387.295-.761.464-1.134.123-.346.367-.649.697-.867.158-.098-.108-.293-.24-.258a1.4 1.4 0 0 0-.46.257q-.202.168-.314.392a8 8 0 0 0-.601 1.258 3.46 3.46 0 0 0-.199 2.458c.124.362.349.691.653.958s.681.463 1.094.572c.098.026.204.04.307.062q.008.384.116.756c.509 1.627 2.781 2.836 4.624 2.023.163-.072 0-.289-.152-.258m-3.056-4.397a.9.9 0 0 1 .378-.178c.142-.031.29-.031.43 0a.9.9 0 0 1 .378.179.77.77 0 0 1 .235.315.76.76 0 0 1-.059.723.94.94 0 0 1-.28.279 1.1 1.1 0 0 1-.389.149 4.7 4.7 0 0 1-1.62.076 1.9 1.9 0 0 1 .262-.869 2.2 2.2 0 0 1 .655-.692zM134.017 46.019a2 2 0 0 0 .194-.124c.272-.215.484-.487.62-.794s.191-.64.161-.971c-.086-1.505-1.311-2.953-2.674-3.685a5.7 5.7 0 0 0-1.15-.442c-.138-.035-.142.217 0 .26 1.271.424 2.327 1.274 2.963 2.384.338.554.482 1.193.411 1.827-.067.4-.284.766-.61 1.033v-.097a4.16 4.16 0 0 0-1.051-1.81 1.86 1.86 0 0 0-.755-.516 2 2 0 0 0-.93-.106 1.3 1.3 0 0 0-.43.23 1.2 1.2 0 0 0-.299.37q-.11.212-.121.448c-.007.156.02.311.079.457.241.733 1.045 1.227 1.755 1.531.422.198.899.266 1.364.195.079.795-.1 1.595-.516 2.294a3.5 3.5 0 0 1-1.158 1.179c-.483.3-1.035.488-1.61.547q.158-.33.217-.688c.059-.331.031-.67-.082-.99a2.06 2.06 0 0 0-.562-.842 1.84 1.84 0 0 0-.856-.394 1.9 1.9 0 0 0-.952.076 1.42 1.42 0 0 0-.716.657 1.28 1.28 0 0 0-.093.932c.103.348.295.667.561.93.266.262.596.46.963.575q.301.115.62.168a5.8 5.8 0 0 1-2.366 1.562c-1.221.441-2.741.52-3.867-.194-.123-.08-.171.15-.08.216.556.43 1.239.693 1.959.755a5.55 5.55 0 0 0 2.215-.331 5.9 5.9 0 0 0 2.773-1.947 4.2 4.2 0 0 0 1.592-.31 4 4 0 0 0 1.324-.881 4.25 4.25 0 0 0 .969-1.638 4 4 0 0 0 .138-1.866m-2.451-.839c-.474-.33-.98-.962-.559-1.518.336-.441.947-.207 1.302.08.431.369.756.833.946 1.35q.12.318.189.649c-.667.185-1.372-.208-1.878-.56m-3.427 4.449a1.15 1.15 0 0 1-.446-.765c-.039-.298.046-.6.238-.842a1.217 1.217 0 0 1 1.42-.097c.219.168.386.386.486.633s.128.515.081.775c-.04.31-.147.61-.312.883a2.64 2.64 0 0 1-1.467-.587M42.746 48.302a2.37 2.37 0 0 1-1.83-.139 2.76 2.76 0 0 1-1.293-1.445 4.2 4.2 0 0 1-.129-2.415c.433.05.87.012 1.291-.11.716-.208 1.928-.734 1.924-1.732 0-.886-.929-1.422-1.64-1.27-.863.19-1.467 1.086-1.833 1.912q-.12.255-.212.522a1.9 1.9 0 0 1-.583-.323 2.05 2.05 0 0 1-.644-.819 2.3 2.3 0 0 1-.189-1.065c.096-.868.662-1.639 1.183-2.258a8.9 8.9 0 0 1 2.102-1.758c.192-.12-.066-.462-.237-.393a6.8 6.8 0 0 0-2.344 1.847c-.633.73-1.3 1.666-1.312 2.728.02.447.14.882.347 1.266.208.384.498.706.844.936q.332.244.712.374a4.9 4.9 0 0 0-.075 1.893c.079.508.255.99.517 1.415a3.4 3.4 0 0 0 1.003 1.046c.754.49 1.82.715 2.598.166.146-.115-.033-.434-.2-.379m-2.29-6.002c.416-.462 1.316-.923 1.612-.06.262.79-1.066 1.288-1.545 1.417q-.43.115-.875.093c.18-.538.455-1.03.808-1.45M30.004 125.719c-.106 1.7 2.153 3.281 2.153 3.281L34 127.209a4.46 4.46 0 0 1-1.69-1.321 3.9 3.9 0 0 1-.79-1.888zM91.005 43.403C90.87 45.787 93.695 48 93.695 48L96 45.494S93.435 44.446 92.9 41zM184.996 44.056c.13 2.043-2.691 3.944-2.691 3.944L180 45.848s2.56-.898 3.095-3.848zM61.498 79.435c.805 1.186.4 3.565.4 3.565l-1.69-.314c.195-.59.278-1.235.241-1.879A4.9 4.9 0 0 0 60 79z" style="fill:#e0e0e0;fill:color(display-p3 .8784 .8784 .8784);fill-opacity:1"/><path fill="#F7921E" d="M124.52 171.649 77.019 63 29.48 171.649c-4.057 9.371.224 19.705 12.867 27.031 19.133 11.093 50.16 11.093 69.297 0 12.648-7.326 16.934-17.66 12.876-27.031" style="fill:#f7921e;fill:color(display-p3 .9686 .5725 .1176);fill-opacity:1"/><path fill="#fff" d="M124.52 171.649 77.019 63 29.48 171.649c-4.057 9.371.224 19.705 12.867 27.031 19.133 11.093 50.16 11.093 69.297 0 12.648-7.326 16.934-17.66 12.876-27.031" opacity=".5" style="fill:#fff;fill-opacity:1"/><path fill="#F7921E" d="M77.084 63 29.482 171.649c-4.062 9.371.225 19.705 12.884 27.031 19.16 11.093 50.227 11.093 69.39 0a37.1 37.1 0 0 0 8.244-6.32c-10.507 8.411-33.247 14.083-49.924 9.15-16.676-4.933-28.246-15.158-23.817-32.236C50.69 152.197 68.945 92.755 77.084 63" opacity=".2" style="fill:#f7921e;fill:color(display-p3 .9686 .5725 .1176);fill-opacity:1"/><path fill="#F7921E" d="M88.869 89.57 83.184 77c.686 11.216-9.23 23.445-23.572 26.348l-5.335 12.16c8.844 1 35.093-8.63 34.592-25.938m13.076 29.6-6.328-14.232c1.531 10.902-18.343 32.499-49.578 28.928l-5.56 12.533c17.077 4.82 58.83-3.48 61.466-27.229m14.098 31.703-5.938-13.35c-12.138 29.564-62.553 31.244-77.308 26.121l-3.325 7.472A17.1 17.1 0 0 0 28 177.249c27.031 12.674 79.952-4.375 88.043-26.357zm8.996 20.243-3.624-8.177c-4.908 15.995-53.565 40.925-87.095 28.819a37.4 37.4 0 0 0 8.095 6.074c6.177 3.525 13.591 5.905 21.442 7.168 21.83-.967 53.855-11.811 62.143-31.099a17.7 17.7 0 0 0-.961-2.766zM77 63.06c-.73-5.429-6.675-8.26-13.993-6.575a18.3 18.3 0 0 0-8.215 4.385 18.74 18.74 0 0 0-5.066 7.903c-1.55 4.853-2.387 9.728-6.879 13.145S30 83.1 30 83.1l.358 7.97s8.291 3.052 14.613-1.907 7.934-9.493 10.03-16.67c2.097-7.179 7.096-11.34 11.62-12.892s8.925.35 10.379 3.457" style="fill:#f7921e;fill:color(display-p3 .9686 .5725 .1176);fill-opacity:1"/><path fill="#000" d="M77 63.06c-.73-5.429-6.675-8.26-13.993-6.575a18.3 18.3 0 0 0-8.215 4.385 18.74 18.74 0 0 0-5.066 7.903c-1.55 4.853-2.387 9.728-6.879 13.145S30 83.1 30 83.1l.358 7.97s8.291 3.052 14.613-1.907 7.934-9.493 10.03-16.67c2.097-7.179 7.096-11.34 11.62-12.892s8.925.35 10.379 3.457" opacity=".2" style="fill:#000;fill-opacity:1"/><path fill="#F7921E" d="M76.911 63.244c.862-5.966-4.64-13.552-12.075-13.234-7.436.318-7.187 13.31-12.306 15.667-4.418 2.043-10.37-4.762-16.84-.313L34 73s5.529-4.245 12.44-2.37 11.674 1.113 13.282-4.163 3.248-10.964 7.514-11.427 8.358 2.415 9.675 8.204" style="fill:#f7921e;fill:color(display-p3 .9686 .5725 .1176);fill-opacity:1"/><path fill="#F7921E" d="M78.267 61C78.53 52.768 72.447 46.354 63 45.21c6.617-3.53 10.61-2.972 13.934 2.697C79.387 52.1 79.415 58.09 78.266 61" style="fill:#f7921e;fill:color(display-p3 .9686 .5725 .1176);fill-opacity:1"/><path fill="#fff" d="M78.267 61C78.53 52.768 72.447 46.354 63 45.21c6.617-3.53 10.61-2.972 13.934 2.697C79.387 52.1 79.415 58.09 78.266 61" opacity=".2" style="fill:#fff;fill-opacity:1"/><path fill="#F7921E" d="M169.902 155.286c-5.468-3.046-14.336-3.05-19.804 0-2.732 1.52-4.098 3.516-4.098 5.514v1.394c0 1.997 1.361 3.999 4.098 5.518 5.468 3.05 14.336 3.05 19.804 0 2.728-1.519 4.093-3.512 4.098-5.505V160.8c0-1.998-1.351-3.994-4.098-5.514" style="fill:#f7921e;fill:color(display-p3 .9686 .5725 .1176);fill-opacity:1"/><path fill="#fff" d="M169.902 155.286c-5.468-3.046-14.336-3.05-19.804 0-2.732 1.52-4.098 3.516-4.098 5.514v1.394c0 1.997 1.361 3.999 4.098 5.518 5.468 3.05 14.336 3.05 19.804 0 2.728-1.519 4.093-3.512 4.098-5.505V160.8c0-1.998-1.351-3.994-4.098-5.514" opacity=".3" style="fill:#fff;fill-opacity:1"/><path fill="#F7921E" d="M150.098 166.657c-5.464-3.123-5.464-8.19 0-11.314s14.334-3.124 19.803 0c5.468 3.124 5.463 8.191 0 11.314-5.464 3.124-14.335 3.124-19.803 0" style="fill:#f7921e;fill:color(display-p3 .9686 .5725 .1176);fill-opacity:1"/><path fill="#fff" d="M150.098 166.657c-5.464-3.123-5.464-8.19 0-11.314s14.334-3.124 19.803 0c5.468 3.124 5.463 8.191 0 11.314-5.464 3.124-14.335 3.124-19.803 0" opacity=".55" style="fill:#fff;fill-opacity:1"/><path fill="#F7921E" d="M155.461 157c-3.456.771-4.372 3.231-2.53 5.107 2.848 2.893 10.042 2.261 12.069-.482z" opacity=".3" style="fill:#f7921e;fill:color(display-p3 .9686 .5725 .1176);fill-opacity:1"/><path fill="#fff" d="M165.388 155c3.766.95 7.432 7.655.392 10.669-5.151 2.209-14.364 1.059-15.78.036 2.104 1.282 8.653 3.696 16.094 1.228 9.696-3.21 6.002-11.379-.706-11.933" opacity=".3" style="fill:#fff;fill-opacity:1"/><path fill="#F7921E" d="M174.312 62H144.7s-2.985 26.88-2.678 39.541a17.4 17.4 0 0 0 2.369 8.785 17.45 17.45 0 0 0 6.476 6.399 12.66 12.66 0 0 1 6.511 10.97v26.386a2.71 2.71 0 0 1-1.278 2.285 6.4 6.4 0 0 0-2.115 2.13l-.101.175c-.586 1.147-.096 2.436 1.475 3.345 2.289 1.312 5.988 1.312 8.267 0 1.571-.914 2.06-2.198 1.474-3.345a3 3 0 0 0-.187-.307 6.4 6.4 0 0 0-2.009-1.988 2.74 2.74 0 0 1-1.296-2.313v-26.359a12.64 12.64 0 0 1 1.772-6.364 12.7 12.7 0 0 1 4.742-4.606 17.45 17.45 0 0 0 6.483-6.397 17.4 17.4 0 0 0 2.371-8.787c.321-12.67-2.664-39.55-2.664-39.55" style="fill:#f7921e;fill:color(display-p3 .9686 .5725 .1176);fill-opacity:1"/><path fill="#fff" d="M174.312 62H144.7s-2.985 26.88-2.678 39.541a17.4 17.4 0 0 0 2.369 8.785 17.45 17.45 0 0 0 6.476 6.399 12.66 12.66 0 0 1 6.511 10.97v26.386a2.71 2.71 0 0 1-1.278 2.285 6.4 6.4 0 0 0-2.115 2.13l-.101.175c-.586 1.147-.096 2.436 1.475 3.345 2.289 1.312 5.988 1.312 8.267 0 1.571-.914 2.06-2.198 1.474-3.345a3 3 0 0 0-.187-.307 6.4 6.4 0 0 0-2.009-1.988 2.74 2.74 0 0 1-1.296-2.313v-26.359a12.64 12.64 0 0 1 1.772-6.364 12.7 12.7 0 0 1 4.742-4.606 17.45 17.45 0 0 0 6.483-6.397 17.4 17.4 0 0 0 2.371-8.787c.321-12.67-2.664-39.55-2.664-39.55" opacity=".5" style="fill:#fff;fill-opacity:1"/><path fill="#F7921E" d="M154.542 117.494c-3.295-1.631-6.589-2.62-9.542-6.494a17.8 17.8 0 0 0 6.355 6.008 12.84 12.84 0 0 1 4.838 4.617 12.5 12.5 0 0 1 1.806 6.375c.015-6.16-.139-8.866-3.457-10.506" opacity=".2" style="fill:#f7921e;fill:color(display-p3 .9686 .5725 .1176);fill-opacity:1"/><path fill="#F7921E" d="M160 117c-8.81 0-15.979-7.195-15.979-16.038v-.033c-.262-10.862 1.962-32.688 2.514-37.929h26.93c.552 5.24 2.776 27.067 2.514 37.929v.033c0 8.829-7.169 16.038-15.979 16.038" style="fill:#f7921e;fill:color(display-p3 .9686 .5725 .1176);fill-opacity:1"/><path fill="#fff" d="M160 117c-8.81 0-15.979-7.195-15.979-16.038v-.033c-.262-10.862 1.962-32.688 2.514-37.929h26.93c.552 5.24 2.776 27.067 2.514 37.929v.033c0 8.829-7.169 16.038-15.979 16.038" opacity=".3" style="fill:#fff;fill-opacity:1"/><path fill="#F7921E" d="M175.977 100.852c0 8.372-7.169 15.148-15.977 15.148s-15.978-6.758-15.978-15.103c-.117-4.546.246-11.125.749-17.5 0-.18 0-.366.037-.546.27-1.95 1.742-3.87 4.414-5.357 5.945-3.325 15.591-3.325 21.541 0 2.793 1.55 4.264 3.555 4.446 5.587v.054c.512 6.439.889 13.126.768 17.717" style="fill:#f7921e;fill:color(display-p3 .9686 .5725 .1176);fill-opacity:1"/><path fill="#fff" d="M175.977 100.852c0 8.372-7.169 15.148-15.977 15.148s-15.978-6.758-15.978-15.103c-.117-4.546.246-11.125.749-17.5 0-.18 0-.366.037-.546.27-1.95 1.742-3.87 4.414-5.357 5.945-3.325 15.591-3.325 21.541 0 2.793 1.55 4.264 3.555 4.446 5.587v.054c.512 6.439.889 13.126.768 17.717" opacity=".85" style="fill:#fff;fill-opacity:1"/><path fill="#FAFAFA" d="M170.609 88.51c-5.862 3.32-15.365 3.32-21.223 0-2.981-1.687-4.448-3.914-4.384-6.123a.4.4 0 0 1 0-.081c0-.144 0-.288.032-.427v-.036c.266-1.953 1.715-3.865 4.348-5.35 5.858-3.324 15.361-3.324 21.223 0 2.752 1.544 4.2 3.55 4.38 5.58v.03c.183 2.304-1.271 4.648-4.376 6.407" style="fill:#fafafa;fill:color(display-p3 .9804 .9804 .9804);fill-opacity:1"/><path fill="#F5F5F5" d="M172.912 95.023c-.126-3.17-.465-8.301-.804-13.256l-.13-.118q-.39-.326-.809-.638A22 22 0 0 0 167.498 79c.975 12.436 1.765 21.738-.289 27.689-1.129 3.261-4.374 5.788-6.209 9.311a17 17 0 0 0 2.179-.317l.121-.027c.465-.109.972-.24 1.442-.389l.162-.054q.217-.069.428-.15h.032c.558-.53 1.167-1.096 1.831-1.717 5.759-5.366 6.038-10.697 5.717-18.323" style="fill:#f5f5f5;fill:color(display-p3 .9608 .9608 .9608);fill-opacity:1"/><path fill="#fff" d="M167.025 69.74c1.084 17.326 2.821 29.912.369 37.332-1.557 4.708-7.276 7.906-7.276 14.66v32.579c0 2.96.607 3.566 1.255 5.089.649 1.524-1.161 3.474-4.373 2.831.962.762 4.602 1.203 6.452.129 1.85-1.073 1.625-2.845 0-4.3-1.43-1.275-2.079-.669-2.079-5.538V124.99c0-5.506 1.949-7.227 6.021-11.205 5.561-5.405 5.831-10.806 5.521-18.533S171.155 68 171.155 68z" opacity=".3" style="fill:#fff;fill-opacity:1"/><path fill="#F7921E" d="M149.394 68.513c-5.859-3.32-5.859-8.705 0-12.024 5.857-3.319 15.355-3.319 21.213 0 5.857 3.319 5.857 8.705 0 12.024s-15.356 3.314-21.213 0" style="fill:#f7921e;fill:color(display-p3 .9686 .5725 .1176);fill-opacity:1"/><path fill="#fff" d="M149.394 68.513c-5.859-3.32-5.859-8.705 0-12.024 5.857-3.319 15.355-3.319 21.213 0 5.857 3.319 5.857 8.705 0 12.024s-15.356 3.314-21.213 0" opacity=".6" style="fill:#fff;fill-opacity:1"/><path fill="#F7921E" d="M159.5 69c-3.73 0-7.212-.795-9.816-2.243-2.375-1.325-3.684-3.013-3.684-4.748s1.309-3.436 3.684-4.761c2.604-1.449 6.086-2.244 9.816-2.248s7.212.8 9.817 2.248c2.374 1.325 3.683 3.012 3.683 4.743s-1.309 3.423-3.683 4.748C166.712 68.205 163.221 69 159.5 69" style="fill:#f7921e;fill:color(display-p3 .9686 .5725 .1176);fill-opacity:1"/><path fill="#fff" d="M159.5 69c-3.73 0-7.212-.795-9.816-2.243-2.375-1.325-3.684-3.013-3.684-4.748s1.309-3.436 3.684-4.761c2.604-1.449 6.086-2.244 9.816-2.248s7.212.8 9.817 2.248c2.374 1.325 3.683 3.012 3.683 4.743s-1.309 3.423-3.683 4.748C166.712 68.205 163.221 69 159.5 69" opacity=".3" style="fill:#fff;fill-opacity:1"/></svg>