<svg xmlns="http://www.w3.org/2000/svg" width="256" height="256" fill="none"><path stroke="#D5D5D5" d="M46.56 218.407C24.086 206.639 13 191.291 13 176.074s11.084-30.567 33.56-42.34c22.464-11.767 51.94-17.664 81.442-17.664 29.503 0 58.977 5.897 81.439 17.664 22.473 11.773 33.558 27.121 33.559 42.336s-11.083 30.564-33.559 42.337C186.976 230.174 157.502 236.07 128 236.07s-58.976-5.896-81.44-17.663Z" style="stroke:#d5d5d5;stroke:color(display-p3 .8353 .8353 .8353);stroke-opacity:1"/><path fill="#455A64" d="M153.118 22.467c-.768-.415-1.762-.353-2.847.271L41.737 85.392a8.77 8.77 0 0 0-3.072 3.384l-4.372-2.53c.957-1.817 2.314-2.436 3.497-3.122L146.334 20.46c1.136-.65 2.165-.681 2.944-.21z" style="fill:#455a64;fill:color(display-p3 .2706 .3529 .3922);fill-opacity:1"/><path fill="#263238" d="M34.907 186.988c-.957-.537-1.567-1.807-1.567-3.615v-91.73c0-2.047.144-3.886.968-5.396l4.373 2.53c-.113.204-.22.42-.328.64s-.159.353-.226.511a.3.3 0 0 0-.03.082 6 6 0 0 0-.236.62 8 8 0 0 0-.2.65 4 4 0 0 0-.122.512 9.2 9.2 0 0 0-.256 2.12v91.725c0 1.827.62 3.107 1.587 3.635z" style="fill:#263238;fill:color(display-p3 .149 .1961 .2196);fill-opacity:1"/><path fill="#37474F" d="M150.271 22.733 40.754 85.868c-2.463 1.423-3.476 3.865-3.476 7.168v92.605c0 3.287 1.996 4.793 4.46 3.374l108.543-62.663c2.463-1.419 4.46-5.238 4.46-8.52v-91.73c-.011-3.282-2.028-4.792-4.47-3.369" style="fill:#37474f;fill:color(display-p3 .2157 .2784 .3098);fill-opacity:1"/><path fill="#F7921E" d="M144.291 125.533 47.717 181.29c-1.275.737-2.309-.047-2.309-1.752V90.624c0-1.704 1.024-3.68 2.31-4.418l96.573-55.757c1.275-.737 2.309.046 2.309 1.751v88.914c0 1.705-1.055 3.681-2.309 4.419" style="fill:#f7921e;fill:color(display-p3 .9686 .5725 .1176);fill-opacity:1"/><path fill="#000" d="M144.291 125.533 47.717 181.29c-1.275.737-2.309-.047-2.309-1.752V90.624c0-1.704 1.024-3.68 2.31-4.418l96.573-55.757c1.275-.737 2.309.046 2.309 1.751v88.914c0 1.705-1.055 3.681-2.309 4.419" opacity=".1" style="fill:#000;fill-opacity:1"/><path fill="#263238" d="M42.505 140.227a2.8 2.8 0 0 1-1.162 2.222c-.64.369-1.162-.026-1.162-.881a2.8 2.8 0 0 1 1.162-2.222c.64-.379 1.162.016 1.162.881M41.343 125.323a2.17 2.17 0 0 0-.906 1.73v7.916c0 .665.404.973.906.681a2.17 2.17 0 0 0 .901-1.726v-7.915c0-.666-.404-.973-.901-.686" style="fill:#263238;fill:color(display-p3 .149 .1961 .2196);fill-opacity:1"/><path fill="#FAFAFA" d="M143.139 39.276c-.072-.553-.512-.753-1.024-.445L51.9 90.896a2.3 2.3 0 0 0-.747.794l-1.982-1.127q.143-.247.338-.456l.098-.097q.142-.136.312-.235l90.189-52.086a2.3 2.3 0 0 1 1.597-.205 1.4 1.4 0 0 1 .635.297q.063.043.113.102.046.036.082.082.08.08.143.174.059.074.107.154.115.177.19.374.051.107.087.22c0 .056.026.108.041.169q.025.11.036.22" style="fill:#fafafa;fill:color(display-p3 .9804 .9804 .9804);fill-opacity:1"/><path fill="#E0E0E0" d="M51.435 173.973c-.349 0-.59-.277-.59-.758V92.729c.015-.362.121-.714.308-1.024l-1.982-1.142q-.181.308-.266.655-.03.13-.04.261a1 1 0 0 0 0 .129v80.465a2.26 2.26 0 0 0 .992 1.792 2.1 2.1 0 0 0 1.214.215c.293-.014.578-.1.83-.25a1.1 1.1 0 0 1-.467.143" style="fill:#e0e0e0;fill:color(display-p3 .8784 .8784 .8784);fill-opacity:1"/><path fill="#F0F0F0" d="M143.149 39.445c0-.675-.476-.947-1.055-.614L51.9 90.9a2.34 2.34 0 0 0-1.054 1.828v80.487c0 .675.476.947 1.054.614l90.194-52.065a2.35 2.35 0 0 0 1.055-1.833z" style="fill:#f0f0f0;fill:color(display-p3 .9412 .9412 .9412);fill-opacity:1"/><path fill="#F7921E" d="m65.043 113.383-5.002 6.364-2.918 3.707a10.1 10.1 0 0 1-.896-4.428c0-4.276 1.848-9.216 4.843-13.031l.66 1.229zM69.329 100.614l-3.917 11.853-1.787-3.287-2.048-3.835a15.8 15.8 0 0 1 4.096-3.543 8.2 8.2 0 0 1 3.656-1.188M73.804 103.266l-7.358 8.474 3.671-11.106a4.65 4.65 0 0 1 3.687 2.632M74.782 107.843c0 6.467-4.25 14.188-9.477 17.198-3.247 1.879-6.144 1.536-7.783-.896l8.233-10.445.046-.056 8.351-9.615c.443 1.222.657 2.515.63 3.814" style="fill:#f7921e;fill:color(display-p3 .9686 .5725 .1176);fill-opacity:1"/><path fill="#fff" d="m69.329 100.614-3.917 11.853-1.787-3.287-2.048-3.835a15.8 15.8 0 0 1 4.096-3.543 8.2 8.2 0 0 1 3.656-1.188" opacity=".7" style="fill:#fff;fill-opacity:1"/><path fill="#000" d="m73.804 103.266-7.358 8.474 3.671-11.106a4.65 4.65 0 0 1 3.687 2.632" opacity=".3" style="fill:#000;fill-opacity:1"/><path fill="#fff" d="M74.782 107.843c0 6.467-4.25 14.188-9.477 17.198-3.247 1.879-6.144 1.536-7.783-.896l8.233-10.445.046-.056 8.351-9.615c.443 1.222.657 2.515.63 3.814" opacity=".5" style="fill:#fff;fill-opacity:1"/><path fill="#455A64" d="M57.532 95.397q.238-.149.512-.205a.54.54 0 0 1 .39.061.6.6 0 0 1 .245.343q.096.31.087.635c.004.313-.042.624-.138.922a2.4 2.4 0 0 1-.384.737l.543 1.295a.14.14 0 0 1 0 .067.3.3 0 0 1-.031.123.2.2 0 0 1-.066.082l-.6.343q-.084.052-.122 0a.3.3 0 0 1-.062-.087l-.512-1.168-.404.236v1.449a.3.3 0 0 1-.036.148.25.25 0 0 1-.082.103l-.579.332a.06.06 0 0 1-.04.016.06.06 0 0 1-.042-.016.14.14 0 0 1-.036-.107v-4.373a.3.3 0 0 1 .036-.148.2.2 0 0 1 .082-.102zm-.512 2.34.512-.287a1 1 0 0 0 .308-.287.83.83 0 0 0 .117-.46q0-.285-.117-.324a.39.39 0 0 0-.308.067l-.512.287zM61.7 96.646a.07.07 0 0 1 .082 0 .14.14 0 0 1 .036.107v.722a.33.33 0 0 1-.036.149.24.24 0 0 1-.082.102l-2.084 1.203a.06.06 0 0 1-.082 0 .13.13 0 0 1-.035-.107v-4.373q0-.078.035-.148a.24.24 0 0 1 .082-.103l2.048-1.182a.066.066 0 0 1 .082 0 .14.14 0 0 1 .036.107v.722a.3.3 0 0 1-.036.148.24.24 0 0 1-.082.103l-1.351.778v.732l1.254-.727a.06.06 0 0 1 .082 0 .13.13 0 0 1 .036.108v.717a.3.3 0 0 1-.036.148.2.2 0 0 1-.082.102l-1.254.753v.758zM63.917 91.71q.237-.145.512-.194a.51.51 0 0 1 .384.076c.119.09.205.216.246.359.07.213.105.436.102.66q.004.38-.082.748-.084.332-.245.635a2.6 2.6 0 0 1-.384.512 2.3 2.3 0 0 1-.512.394l-.559.322v1.383a.4.4 0 0 1-.035.148.2.2 0 0 1-.087.103l-.574.333a.06.06 0 0 1-.082 0 .14.14 0 0 1-.036-.108v-4.373a.3.3 0 0 1 .036-.148.2.2 0 0 1 .082-.102zm-.558 2.437.512-.312a.85.85 0 0 0 .425-.778c0-.19-.036-.302-.118-.343a.34.34 0 0 0-.307.05l-.512.313zM65.673 92.463a4 4 0 0 1 .108-.779 3.194 3.194 0 0 1 .691-1.372c.161-.191.356-.352.573-.476.172-.11.37-.173.574-.184a.62.62 0 0 1 .42.143.93.93 0 0 1 .27.43c.067.21.103.43.108.65v1.209q-.016.392-.107.773a3.4 3.4 0 0 1-.272.742 3 3 0 0 1-.42.635c-.163.189-.357.35-.573.476-.172.11-.37.173-.573.185a.6.6 0 0 1-.425-.149.94.94 0 0 1-.266-.43 2.4 2.4 0 0 1-.108-.65v-1.2029999999999998m1.93.056v-1.1360000000000001a1.1 1.1 0 0 0-.046-.287.4.4 0 0 0-.107-.185.25.25 0 0 0-.17-.071.5.5 0 0 0-.235.076.8.8 0 0 0-.235.2 1 1 0 0 0-.17.261 1.5 1.5 0 0 0-.107.307q-.037.168-.046.338v1.1420000000000001a.73.73 0 0 0 .154.471q.13.145.404 0a.95.95 0 0 0 .405-.456 2 2 0 0 0 .159-.66zM70.466 87.932q.237-.147.512-.205a.57.57 0 0 1 .389.056.65.65 0 0 1 .25.343c.061.208.09.424.082.64.003.312-.042.623-.133.922a2.5 2.5 0 0 1-.389.732l.543 1.295a.2.2 0 0 1 0 .067.3.3 0 0 1-.03.123.16.16 0 0 1-.067.082l-.6.348c-.056.03-.097.036-.122 0a.3.3 0 0 1-.062-.087l-.486-1.168-.405.23v1.45a.3.3 0 0 1-.035.148.23.23 0 0 1-.082.108l-.579.327a.06.06 0 0 1-.063.013.1.1 0 0 1-.019-.013.13.13 0 0 1-.036-.107v-4.373q0-.078.036-.148a.25.25 0 0 1 .082-.103zm-.512 2.334.512-.286a.95.95 0 0 0 .307-.282.86.86 0 0 0 .117-.466q0-.285-.117-.323a.4.4 0 0 0-.307.072l-.512.287zM74.664 85.505a.07.07 0 0 1 .082 0 .15.15 0 0 1 .036.113v.716a.33.33 0 0 1-.036.149.24.24 0 0 1-.082.102l-.773.446v3.47a.3.3 0 0 1-.036.15.2.2 0 0 1-.082.102l-.578.333a.06.06 0 0 1-.082 0 .13.13 0 0 1-.036-.108v-3.487l-.773.446a.06.06 0 0 1-.082 0 .14.14 0 0 1-.036-.108v-.716q0-.082.036-.154a.24.24 0 0 1 .082-.103z" style="fill:#455a64;fill:color(display-p3 .2706 .3529 .3922);fill-opacity:1"/><path fill="#F7921E" d="m78.75 83.15 57.549-33.224v4.582l-57.55 33.224z" style="fill:#f7921e;fill:color(display-p3 .9686 .5725 .1176);fill-opacity:1"/><g fill="#455A64" opacity=".3"><path d="M78.396 97.583a.48.48 0 0 1-.42-.24.51.51 0 0 1 .175-.671l33.735-19.456a.513.513 0 0 1 .512.85l-33.73 19.456a.5.5 0 0 1-.272.061M78.396 102.165a.48.48 0 0 1-.42-.24.51.51 0 0 1 .175-.671l33.735-19.456a.512.512 0 0 1 .512.85l-33.73 19.456a.5.5 0 0 1-.272.061M78.396 106.748a.476.476 0 0 1-.42-.241.51.51 0 0 1 .175-.67l33.735-19.456a.512.512 0 0 1 .512.85l-33.73 19.456a.5.5 0 0 1-.272.061M78.396 111.33a.476.476 0 0 1-.42-.241.51.51 0 0 1 .175-.67l33.735-19.456a.52.52 0 0 1 .426-.157.52.52 0 0 1 .384.244q.06.102.072.222a.5.5 0 0 1-.166.422.5.5 0 0 1-.204.114l-33.73 19.456a.5.5 0 0 1-.272.066M78.396 115.918a.52.52 0 0 1-.435-.267.51.51 0 0 1 .174-.67l33.736-19.456a.513.513 0 0 1 .512.844l-33.73 19.456a.5.5 0 0 1-.257.093" style="fill:#455a64;fill:color(display-p3 .2706 .3529 .3922);fill-opacity:1"/></g><path fill="#F7921E" d="m116.981 72.5 4.342-2.504c.291-.168.512-.03.512.308v5.012a1.16 1.16 0 0 1-.512.912l-4.342 2.508c-.292.17-.512.031-.512-.307v-5.012a1.17 1.17 0 0 1 .512-.917M124.179 68.347l4.342-2.503c.292-.17.512-.036.512.302v5.012a1.17 1.17 0 0 1-.512.917l-4.342 2.503c-.291.17-.512.036-.512-.302v-5.012a1.17 1.17 0 0 1 .512-.917M131.378 64.19l4.337-2.504c.292-.169.512-.03.512.308v5.017a1.17 1.17 0 0 1-.512.917l-4.337 2.508c-.292.17-.512.031-.512-.307v-5.012a1.18 1.18 0 0 1 .512-.927M116.981 80.835l4.342-2.508c.291-.17.512-.031.512.307v5.012a1.17 1.17 0 0 1-.512.917l-4.342 2.503c-.292.17-.512.031-.512-.307v-5.007a1.17 1.17 0 0 1 .512-.917M124.179 76.657l4.342-2.503c.292-.17.512-.036.512.302v5.012a1.17 1.17 0 0 1-.512.917l-4.342 2.498c-.291.17-.512.036-.512-.302V77.57a1.17 1.17 0 0 1 .512-.912M131.378 72.505l4.337-2.509c.292-.168.512-.03.512.308v5.012a1.16 1.16 0 0 1-.512.912l-4.337 2.508c-.292.17-.512.031-.512-.307v-5.012a1.16 1.16 0 0 1 .512-.912M116.981 89.124l4.342-2.508c.291-.17.512-.031.512.307v5.012a1.17 1.17 0 0 1-.512.917l-4.342 2.503c-.292.17-.512.031-.512-.302v-5.002a1.16 1.16 0 0 1 .512-.927M124.179 84.967l4.342-2.504c.292-.169.512-.03.512.302v5.013a1.17 1.17 0 0 1-.512.916l-4.342 2.51c-.291.168-.512.03-.512-.308v-5.013a1.17 1.17 0 0 1 .512-.916M131.378 80.835l4.337-2.508c.292-.17.512-.031.512.307v5.012a1.17 1.17 0 0 1-.512.917l-4.337 2.503c-.292.17-.512.031-.512-.307v-5.007a1.17 1.17 0 0 1 .512-.917" style="fill:#f7921e;fill:color(display-p3 .9686 .5725 .1176);fill-opacity:1"/><path fill="#455A64" d="m56.923 162.197 55.562-32.077v2.289l-55.562 32.082z" style="fill:#455a64;fill:color(display-p3 .2706 .3529 .3922);fill-opacity:1"/><path fill="#F7921E" d="M56.923 159.908v-13.752l4.895 2.826 4.715-8.734 5.622 3.246 2.627-3.062 3.968 2.289 5.775-8.628 4.603 1.925 5.499-11.627 3.845 6.682 5.253-7.614 1.956 3.712 6.804-10.798v11.453z" style="fill:#f7921e;fill:color(display-p3 .9686 .5725 .1176);fill-opacity:1"/><path fill="#F7921E" d="m56.923 144.881 4.567 2.422 4.736-8.806 5.653 3.266 2.54-2.964 3.967 2.293 5.683-8.314 4.603 1.925 5.955-12.601 3.968 6.871 5.253-7.613 1.92 3.717 6.717-10.67v-9.492l-7.024 10.951-2.898-5.222-3.968 6.876-3.968-2.294-3.968 6.876-3.968-2.293-5.955 10.311-3.968-3.435-3.932 5.703-6.205-3.415-5.018 8.438-4.69-2.708z" style="fill:#f7921e;fill:color(display-p3 .9686 .5725 .1176);fill-opacity:1"/><path fill="#000" d="m56.923 144.881 4.567 2.422 4.736-8.806 5.653 3.266 2.54-2.964 3.967 2.293 5.683-8.314 4.603 1.925 5.955-12.601 3.968 6.871 5.253-7.613 1.92 3.717 6.717-10.67v-9.492l-7.024 10.951-2.898-5.222-3.968 6.876-3.968-2.294-3.968 6.876-3.968-2.293-5.955 10.311-3.968-3.435-3.932 5.703-6.205-3.415-5.018 8.438-4.69-2.708z" opacity=".3" style="fill:#000;fill-opacity:1"/><g fill="#455A64" opacity=".3"><path d="M116.453 103.112a.51.51 0 0 1-.246-.911l19.846-11.459a.51.51 0 0 1 .586.227.515.515 0 0 1-.074.624l-19.846 11.453a.5.5 0 0 1-.266.066M116.453 107.695a.512.512 0 0 1-.246-.911l19.846-11.459a.51.51 0 0 1 .586.226.515.515 0 0 1-.074.624l-19.846 11.453a.48.48 0 0 1-.266.067M116.453 112.277a.51.51 0 0 1-.246-.911l19.846-11.458a.51.51 0 0 1 .586.226.514.514 0 0 1-.074.623l-19.846 11.454a.48.48 0 0 1-.266.066M116.453 116.859a.51.51 0 0 1-.246-.911l19.846-11.453a.51.51 0 0 1 .665.174.51.51 0 0 1-.174.67l-19.845 11.454a.47.47 0 0 1-.246.066M116.453 121.442a.512.512 0 0 1-.246-.911l19.846-11.454a.51.51 0 0 1 .665.174.51.51 0 0 1-.174.671l-19.845 11.453a.5.5 0 0 1-.246.067M116.453 126.024a.51.51 0 0 1-.246-.911l19.846-11.453a.51.51 0 0 1 .665.174.51.51 0 0 1-.174.67l-19.845 11.454a.47.47 0 0 1-.246.066M116.453 130.607a.51.51 0 0 1-.417-.67.5.5 0 0 1 .171-.242l19.846-11.453a.51.51 0 0 1 .578.227.51.51 0 0 1-.066.618l-19.846 11.453a.48.48 0 0 1-.266.067" style="fill:#455a64;fill:color(display-p3 .2706 .3529 .3922);fill-opacity:1"/></g><path fill="#F7921E" d="m194.133 145.167-9.328-5.385-11.78-6.801h-.028c-1.058-.588-1.718-1.88-1.718-3.727 0-1.771-.604-3.03-1.582-3.65l8.049 4.644 1.272.733 11.763 6.789.129.076c1.01.604 1.634 1.88 1.634 3.679s.595 3.026 1.589 3.642" style="fill:#f7921e;fill:color(display-p3 .9686 .5725 .1176);fill-opacity:1"/><path fill="#000" d="m194.133 145.167-9.328-5.385-11.78-6.801h-.028c-1.058-.588-1.718-1.88-1.718-3.727 0-1.771-.604-3.03-1.582-3.65l8.049 4.644 1.272.733 11.763 6.789.129.076c1.01.604 1.634 1.88 1.634 3.679s.595 3.026 1.589 3.642" opacity=".1" style="fill:#000;fill-opacity:1"/><path fill="#F7921E" d="M203.973 132.063v2.838c0 3.65-2.559 8.085-5.718 9.908-1.558.901-2.974.998-4.005.426l-.116-.068c-.994-.616-1.61-1.88-1.61-3.658s-.624-3.075-1.634-3.679l-.129-.076-11.763-6.789c2.173-2.194 3.718-5.502 3.718-8.335v-2.817z" style="fill:#f7921e;fill:color(display-p3 .9686 .5725 .1176);fill-opacity:1"/><path fill="#F7921E" d="M190.769 137.754c-1.03-.544-2.414-.439-3.96.45a9.6 9.6 0 0 0-2.012 1.578c-2.173 2.189-3.715 5.497-3.715 8.331 0 3.65-2.563 8.085-5.722 9.912l-5.723 3.304-21.245-12.271 5.723-3.304c3.159-1.823 5.723-6.262 5.723-9.912s2.559-8.085 5.722-9.908c1.554-.897 2.966-.994 3.996-.427l.137.077 8.049 4.644 1.272.733z" style="fill:#f7921e;fill:color(display-p3 .9686 .5725 .1176);fill-opacity:1"/><path fill="#fff" d="M190.769 137.754c-1.03-.544-2.414-.439-3.96.45a9.6 9.6 0 0 0-2.012 1.578c-2.173 2.189-3.715 5.497-3.715 8.331 0 3.65-2.563 8.085-5.722 9.912l-5.723 3.304-21.245-12.271 5.723-3.304c3.159-1.823 5.723-6.262 5.723-9.912s2.559-8.085 5.722-9.908c1.554-.897 2.966-.994 3.996-.427l.137.077 8.049 4.644 1.272.733z" opacity=".4" style="fill:#fff;fill-opacity:1"/><path fill="#455A64" d="M174.531 150.769c-.133-.886-.854-1.207-1.723-.704l-3.163 1.823-6.439 3.714a31 31 0 0 0-3.393 2.157 40.3 40.3 0 0 0-4.616 4.669c-2.817 3.219-5.634 6.712-8.451 8.338l-14.604 8.431a3.856 3.856 0 0 0-1.743 3.019v5.412c0 1.031.672 1.494 1.537 1.111a3.894 3.894 0 0 1-3.28-.104l-19.389-11.2a3.86 3.86 0 0 1-1.743-3.019v-5.413a3.85 3.85 0 0 1 1.743-3.018l14.604-8.451c2.817-1.61 5.635-5.119 8.452-8.335a40.4 40.4 0 0 1 4.632-4.656 31 31 0 0 1 3.388-2.153l6.439-3.715 3.159-1.827a3.85 3.85 0 0 1 3.486 0l19.401 11.204a3.91 3.91 0 0 1 1.703 2.717" style="fill:#455a64;fill:color(display-p3 .2706 .3529 .3922);fill-opacity:1"/><path fill="#37474F" d="M132.045 183.032s-24.521-14.033-24.517-14.154v5.534a3.85 3.85 0 0 0 1.743 3.018l19.402 11.204a3.85 3.85 0 0 0 3.485 0l.829-.479z" style="fill:#37474f;fill:color(display-p3 .2157 .2784 .3098);fill-opacity:1"/><path fill="#263238" d="m172.804 150.061-9.59 5.541a32 32 0 0 0-3.393 2.153c-4.354 3.518-8.709 10.5-13.063 13.007l-14.605 8.451a3.85 3.85 0 0 0-1.742 3.019v5.413c0 1.11.781 1.561 1.742 1.006L172.8 165.18a3.85 3.85 0 0 0 1.743-3.018v-11.095c.008-1.111-.773-1.562-1.739-1.006" style="fill:#263238;fill:color(display-p3 .149 .1961 .2196);fill-opacity:1"/><path fill="#37474F" d="M159.946 153.714a31 31 0 0 0-3.393 2.158 26 26 0 0 0-2.378 2.225 1.079 1.079 0 0 1-1.252.181l-14.958-8.636a.6.6 0 0 1-.305-.744.6.6 0 0 1 .16-.242 26 26 0 0 1 2.386-2.226 31 31 0 0 1 3.389-2.153c1.831-1.062 3.883-2.249 5.735-3.312a1.55 1.55 0 0 1 1.396 0l14.955 8.632a.43.43 0 0 1 .285.403.43.43 0 0 1-.285.402z" style="fill:#37474f;fill:color(display-p3 .2157 .2784 .3098);fill-opacity:1"/><path fill="#fff" d="M150.726 141.694a1.55 1.55 0 0 0-1.396 0l-5.735 3.316a31 31 0 0 0-3.389 2.153 27 27 0 0 0-2.386 2.222l-.072.092a.7.7 0 0 0 .217.189l14.959 8.637a1.08 1.08 0 0 0 1.251-.181 26 26 0 0 1 2.379-2.226 31 31 0 0 1 3.392-2.157l5.735-3.312.068-.048-.068-.049z" style="fill:#fff;fill-opacity:1"/><path fill="#263238" d="M128.777 184.92c0 .523-.402.72-.873.443l-17.873-10.319a1.87 1.87 0 0 1-.869-1.449c0-.523.403-.72.869-.442l17.873 10.322a1.87 1.87 0 0 1 .873 1.445" style="fill:#263238;fill:color(display-p3 .149 .1961 .2196);fill-opacity:1"/><path fill="#E0E0E0" d="M135.216 166.283v-.717l-.829-.06-1.859-1.083a1.94 1.94 0 0 0-1.743 0l-1.255.725-.632-.048v.696a.6.6 0 0 0 .358.515l2.342 1.352a1.93 1.93 0 0 0 1.743 0l1.529-.881a.61.61 0 0 0 .358-.495z" style="fill:#e0e0e0;fill:color(display-p3 .8784 .8784 .8784);fill-opacity:1"/><path fill="#F5F5F5" d="m132.528 163.715 2.346 1.353a.53.53 0 0 1 .261.812.54.54 0 0 1-.261.194l-1.529.881a1.93 1.93 0 0 1-1.743 0l-2.342-1.352a.531.531 0 0 1 0-1.006l1.525-.882a1.94 1.94 0 0 1 1.743 0" style="fill:#f5f5f5;fill:color(display-p3 .9608 .9608 .9608);fill-opacity:1"/><path fill="#E0E0E0" d="M129.087 162.733v-.716l-.829-.06-1.876-1.083a1.92 1.92 0 0 0-1.742 0l-1.256.725-.632-.045v.692a.6.6 0 0 0 .363.512l2.342 1.352a1.9 1.9 0 0 0 1.742 0l1.526-.882a.61.61 0 0 0 .362-.495" style="fill:#e0e0e0;fill:color(display-p3 .8784 .8784 .8784);fill-opacity:1"/><path fill="#F5F5F5" d="m126.383 160.166 2.342 1.356a.54.54 0 0 1 .36.503.53.53 0 0 1-.36.503l-1.526.898a1.92 1.92 0 0 1-1.742 0l-2.342-1.356a.533.533 0 0 1 0-1.007l1.525-.881a1.94 1.94 0 0 1 1.743-.016" style="fill:#f5f5f5;fill:color(display-p3 .9608 .9608 .9608);fill-opacity:1"/><path fill="#E0E0E0" d="M141.345 169.82v-.716l-.805-.06-1.879-1.083a1.93 1.93 0 0 0-1.743 0l-1.251.724-.636-.048v.696a.61.61 0 0 0 .358.516l2.346 1.352a1.93 1.93 0 0 0 1.743 0l1.525-.882a.6.6 0 0 0 .358-.495z" style="fill:#e0e0e0;fill:color(display-p3 .8784 .8784 .8784);fill-opacity:1"/><path fill="#F5F5F5" d="m138.645 167.253 2.342 1.352a.54.54 0 0 1 .361.503.53.53 0 0 1-.361.503l-1.525.882a1.93 1.93 0 0 1-1.743 0l-2.346-1.352a.54.54 0 0 1-.361-.504.53.53 0 0 1 .361-.503l1.529-.881a1.93 1.93 0 0 1 1.743 0" style="fill:#f5f5f5;fill:color(display-p3 .9608 .9608 .9608);fill-opacity:1"/><path fill="#E0E0E0" d="M140.122 163.454v-.717l-.829-.06-1.876-1.083a1.94 1.94 0 0 0-1.742 0l-1.256.725-.632-.049v.697a.6.6 0 0 0 .359.515l2.346 1.352a1.92 1.92 0 0 0 1.742 0l1.526-.881a.65.65 0 0 0 .246-.2.64.64 0 0 0 .116-.295z" style="fill:#e0e0e0;fill:color(display-p3 .8784 .8784 .8784);fill-opacity:1"/><path fill="#F5F5F5" d="m137.418 160.886 2.342 1.353a.53.53 0 0 1 .261.812.54.54 0 0 1-.261.194l-1.526.881a1.92 1.92 0 0 1-1.742 0l-2.354-1.352a.528.528 0 0 1 0-1.006l1.529-.882a1.93 1.93 0 0 1 1.751 0" style="fill:#f5f5f5;fill:color(display-p3 .9608 .9608 .9608);fill-opacity:1"/><path fill="#E0E0E0" d="M133.993 159.904v-.716l-.829-.06-1.876-1.083a1.92 1.92 0 0 0-1.742 0l-1.256.724-.632-.044v.676a.6.6 0 0 0 .358.515l2.347 1.353a1.94 1.94 0 0 0 1.742 0l1.525-.882a.6.6 0 0 0 .359-.495z" style="fill:#e0e0e0;fill:color(display-p3 .8784 .8784 .8784);fill-opacity:1"/><path fill="#F5F5F5" d="m131.288 157.337 2.342 1.356a.53.53 0 0 1 .262.813.53.53 0 0 1-.262.193l-1.505.882a1.94 1.94 0 0 1-1.742 0l-2.346-1.357a.527.527 0 0 1-.262-.812.54.54 0 0 1 .262-.194l1.529-.881a1.92 1.92 0 0 1 1.722 0" style="fill:#f5f5f5;fill:color(display-p3 .9608 .9608 .9608);fill-opacity:1"/><path fill="#E0E0E0" d="M146.251 166.991v-.716l-.829-.06-1.875-1.083a1.93 1.93 0 0 0-1.743 0l-1.255.724-.632-.048v.696a.614.614 0 0 0 .362.515l2.342 1.353a1.94 1.94 0 0 0 1.743 0l1.529-.882a.61.61 0 0 0 .358-.495z" style="fill:#e0e0e0;fill:color(display-p3 .8784 .8784 .8784);fill-opacity:1"/><path fill="#F5F5F5" d="m143.547 164.423 2.346 1.353a.53.53 0 0 1 .261.812.54.54 0 0 1-.261.194l-1.529.881a1.93 1.93 0 0 1-1.743 0l-2.342-1.352a.528.528 0 0 1 0-1.006l1.525-.882a1.94 1.94 0 0 1 1.743 0" style="fill:#f5f5f5;fill:color(display-p3 .9608 .9608 .9608);fill-opacity:1"/><path fill="#E0E0E0" d="M130.314 169.125v-.717l-.829-.06-1.875-1.083a1.91 1.91 0 0 0-1.743 0l-1.255.725-.632-.049v.717a.62.62 0 0 0 .358.515l2.346 1.352a1.93 1.93 0 0 0 1.743 0l1.525-.881a.62.62 0 0 0 .362-.495z" style="fill:#e0e0e0;fill:color(display-p3 .8784 .8784 .8784);fill-opacity:1"/><path fill="#F5F5F5" d="m127.61 166.557 2.342 1.352a.528.528 0 0 1 0 1.006l-1.525.881a1.93 1.93 0 0 1-1.743 0l-2.346-1.352a.53.53 0 0 1-.261-.812.53.53 0 0 1 .261-.194l1.529-.881a1.93 1.93 0 0 1 1.743 0" style="fill:#f5f5f5;fill:color(display-p3 .9608 .9608 .9608);fill-opacity:1"/><path fill="#E0E0E0" d="M124.181 165.575v-.717l-.805-.06-1.879-1.083a1.94 1.94 0 0 0-1.743 0l-1.251.725-.636-.048v.696a.61.61 0 0 0 .358.515l2.346 1.352a1.93 1.93 0 0 0 1.743 0l1.525-.881a.6.6 0 0 0 .358-.495z" style="fill:#e0e0e0;fill:color(display-p3 .8784 .8784 .8784);fill-opacity:1"/><path fill="#F5F5F5" d="m121.477 163.024 2.346 1.352a.525.525 0 0 1 .361.503.53.53 0 0 1-.361.503l-1.525.861a1.93 1.93 0 0 1-1.743 0l-2.346-1.352a.54.54 0 0 1-.36-.503.53.53 0 0 1 .36-.503l1.525-.882a1.933 1.933 0 0 1 1.743.021" style="fill:#f5f5f5;fill:color(display-p3 .9608 .9608 .9608);fill-opacity:1"/><path fill="#E0E0E0" d="M136.444 172.682v-.717l-.829-.06-1.88-1.103a1.91 1.91 0 0 0-1.742 0l-1.256.725-.624-.053v.697a.62.62 0 0 0 .362.515l2.343 1.352a1.92 1.92 0 0 0 1.742 0l1.526-.881a.64.64 0 0 0 .246-.2.64.64 0 0 0 .116-.295z" style="fill:#e0e0e0;fill:color(display-p3 .8784 .8784 .8784);fill-opacity:1"/><path fill="#F5F5F5" d="m133.735 170.094 2.342 1.352a.533.533 0 0 1 0 1.006l-1.537.882a1.93 1.93 0 0 1-1.743 0l-2.342-1.353a.53.53 0 0 1-.261-.812.54.54 0 0 1 .261-.194l1.526-.881a1.92 1.92 0 0 1 1.754 0" style="fill:#f5f5f5;fill:color(display-p3 .9608 .9608 .9608);fill-opacity:1"/><path fill="#E0E0E0" d="M125.404 171.949v-.716l-.829-.06-1.875-1.087a1.92 1.92 0 0 0-1.742 0l-1.256.724-.632-.044v.708a.6.6 0 0 0 .362.512l2.342 1.356a1.93 1.93 0 0 0 1.743 0l1.529-.882a.62.62 0 0 0 .358-.499z" style="fill:#e0e0e0;fill:color(display-p3 .8784 .8784 .8784);fill-opacity:1"/><path fill="#F5F5F5" d="m122.7 169.378 2.346 1.356a.525.525 0 0 1 .361.503.53.53 0 0 1-.361.503l-1.529.881a1.92 1.92 0 0 1-1.742 0l-2.343-1.352a.531.531 0 0 1 0-1.006l1.526-.885a1.92 1.92 0 0 1 1.742 0" style="fill:#f5f5f5;fill:color(display-p3 .9608 .9608 .9608);fill-opacity:1"/><path fill="#E0E0E0" d="M119.276 168.4v-.716l-.829-.061-1.876-1.082a1.92 1.92 0 0 0-1.742 0l-1.256.724-.632-.048v.696a.61.61 0 0 0 .358.515l2.347 1.352a1.92 1.92 0 0 0 1.742 0l1.525-.881a.63.63 0 0 0 .363-.495z" style="fill:#e0e0e0;fill:color(display-p3 .8784 .8784 .8784);fill-opacity:1"/><path fill="#F5F5F5" d="m116.571 165.84 2.342 1.352a.533.533 0 0 1 0 1.006l-1.525.862a1.94 1.94 0 0 1-1.743 0l-2.346-1.353a.53.53 0 0 1-.261-.812.54.54 0 0 1 .261-.194l1.521-.861a1.94 1.94 0 0 1 1.751 0" style="fill:#f5f5f5;fill:color(display-p3 .9608 .9608 .9608);fill-opacity:1"/><path fill="#E0E0E0" d="M131.534 175.499v-.717l-.825-.06-1.88-1.087a1.94 1.94 0 0 0-1.742 0l-1.256.725-.632-.044v.696a.6.6 0 0 0 .359.511l2.342 1.356a1.92 1.92 0 0 0 1.742 0l1.53-.881a.61.61 0 0 0 .358-.499z" style="fill:#e0e0e0;fill:color(display-p3 .8784 .8784 .8784);fill-opacity:1"/><path fill="#F5F5F5" d="m128.83 172.915 2.346 1.356a.54.54 0 0 1 .36.503.53.53 0 0 1-.36.504l-1.53.881a1.92 1.92 0 0 1-1.742 0l-2.342-1.352a.533.533 0 0 1 0-1.006l1.525-.886a1.92 1.92 0 0 1 1.743 0" style="fill:#f5f5f5;fill:color(display-p3 .9608 .9608 .9608);fill-opacity:1"/><path fill="#E0E0E0" d="m138.009 155.023-.149-.616-.62-.052-2.012-1.172c-.962-.555-2.237-.438-2.857.246a1.26 1.26 0 0 0-.282.503h-.177l.157.652a1.82 1.82 0 0 0 .898 1.083l2.47 1.424a1.07 1.07 0 0 0 1.252-.181q.583-.624 1.171-1.288a.64.64 0 0 0 .149-.599" style="fill:#e0e0e0;fill:color(display-p3 .8784 .8784 .8784);fill-opacity:1"/><path fill="#F5F5F5" d="m135.281 156.467-2.471-1.424c-.962-.556-1.208-1.546-.6-2.23s1.895-.805 2.857-.245l2.471 1.424a.64.64 0 0 1 .315.754.64.64 0 0 1-.15.252q-.587.664-1.171 1.288a1.06 1.06 0 0 1-1.251.181" style="fill:#f5f5f5;fill:color(display-p3 .9608 .9608 .9608);fill-opacity:1"/><path fill="#E0E0E0" d="m150.638 162.709-.149-.623h-.177a2.2 2.2 0 0 0-.6-.499l-2.467-1.425a1.03 1.03 0 0 0-1.231.201c-.403.431-.769.857-1.151 1.268l-.351-.028.157.648a.63.63 0 0 0 .31.402l2.467 1.425c.962.555 2.266.467 2.89-.218a1.21 1.21 0 0 0 .302-1.151" style="fill:#e0e0e0;fill:color(display-p3 .8784 .8784 .8784);fill-opacity:1"/><path fill="#F5F5F5" d="m147.31 163.425-2.467-1.424a.606.606 0 0 1-.145-.986q.583-.628 1.171-1.288a1.02 1.02 0 0 1 1.231-.201l2.467 1.424c.966.556 1.252 1.574.632 2.258s-1.924.765-2.889.217" style="fill:#f5f5f5;fill:color(display-p3 .9608 .9608 .9608);fill-opacity:1"/><path fill="#E0E0E0" d="m144.456 158.805-.149-.607-.471-.032-2.958-1.707a1.29 1.29 0 0 0-1.537.25c-.302.338-.599.668-.901.994a1 1 0 0 0-.077.104h-.298l.153.636q.041.165.147.297a.8.8 0 0 0 .256.21l3.167 1.827a1.33 1.33 0 0 0 1.561-.225c.302-.322.604-.656.902-.99a.8.8 0 0 0 .205-.757" style="fill:#e0e0e0;fill:color(display-p3 .8784 .8784 .8784);fill-opacity:1"/><path fill="#F5F5F5" d="M144.106 158.926c-.298.334-.6.668-.897.99a1.333 1.333 0 0 1-1.566.226l-3.167-1.827a.77.77 0 0 1-.411-.569.76.76 0 0 1 .23-.663c.302-.326.599-.656.901-.994a1.29 1.29 0 0 1 1.538-.249l3.167 1.827a.81.81 0 0 1 .413.579.8.8 0 0 1-.208.68" style="fill:#f5f5f5;fill:color(display-p3 .9608 .9608 .9608);fill-opacity:1"/><path fill="#F7921E" d="m129.473 193.959 49.283-28.457a1.55 1.55 0 0 1 1.393 0l31.302 18.074a1.53 1.53 0 0 1 .696 1.207v.278a1.54 1.54 0 0 1-.696 1.207l-49.283 28.453a1.53 1.53 0 0 1-1.389 0l-31.31-18.376a1.54 1.54 0 0 1-.692-1.207 1.517 1.517 0 0 1 .696-1.179" style="fill:#f7921e;fill:color(display-p3 .9686 .5725 .1176);fill-opacity:1"/><path fill="#fff" d="m129.473 193.959 49.283-28.457a1.55 1.55 0 0 1 1.393 0l31.302 18.074a1.53 1.53 0 0 1 .696 1.207v.278a1.54 1.54 0 0 1-.696 1.207l-49.283 28.453a1.53 1.53 0 0 1-1.389 0l-31.31-18.376a1.54 1.54 0 0 1-.692-1.207 1.517 1.517 0 0 1 .696-1.179" opacity=".2" style="fill:#fff;fill-opacity:1"/><path fill="#F7921E" d="M128.777 195.15a1.55 1.55 0 0 0 .692 1.207l31.31 18.372q.335.133.692.169v-5.437l-1.633-21.708-17.982-.946-12.383 7.152a1.52 1.52 0 0 0-.696 1.191" style="fill:#f7921e;fill:color(display-p3 .9686 .5725 .1176);fill-opacity:1"/><path fill="#F7921E" d="M128.777 195.15a1.55 1.55 0 0 0 .692 1.207l31.31 18.372q.335.133.692.169v-5.437l-1.633-21.708-17.982-.946-12.383 7.152a1.52 1.52 0 0 0-.696 1.191" style="fill:#f7921e;fill:color(display-p3 .9686 .5725 .1176);fill-opacity:1"/><path fill="#000" d="M128.777 195.15a1.55 1.55 0 0 0 .692 1.207l31.31 18.372q.335.133.692.169v-5.437l-1.633-21.708-17.982-.946-12.383 7.152a1.52 1.52 0 0 0-.696 1.191" opacity=".2" style="fill:#000;fill-opacity:1"/><path fill="#F7921E" d="m180.148 165.502 31.302 18.074a.421.421 0 0 1 0 .805l-49.283 28.452a1.531 1.531 0 0 1-1.392 0l-31.302-18.069a.426.426 0 0 1 0-.805l49.283-28.457a1.54 1.54 0 0 1 1.392 0" style="fill:#f7921e;fill:color(display-p3 .9686 .5725 .1176);fill-opacity:1"/><path fill="#fff" d="M156.823 185.962a.6.6 0 0 1-.253-.084l-3.059-1.767c-.093-.052-.141-.105-.149-.149s.032-.097.117-.145l1.364-.785a1.97 1.97 0 0 1 2.077 0 .8.8 0 0 1 .33.306.3.3 0 0 1 .044.157.3.3 0 0 1-.044.157 1.57 1.57 0 0 1 1.207.181c.318.185.483.403.495.62s-.173.455-.547.672l-1.328.745a.45.45 0 0 1-.254.092m-.748-2.012q.14-.084.136-.173-.005-.093-.161-.185a.64.64 0 0 0-.318-.097.6.6 0 0 0-.297.085l-.503.293.639.367zm1.497.777q.148-.086.128-.19a.3.3 0 0 0-.173-.193.7.7 0 0 0-.358-.104.6.6 0 0 0-.326.084l-.563.326.712.403zM159.383 184.428a.3.3 0 0 1-.081-.076l-2.052-2.523a.26.26 0 0 1-.061-.129q.001-.048.093-.097l.402-.241a.36.36 0 0 1 .174-.052.7.7 0 0 1 .217.036l4.374 1.183a.4.4 0 0 1 .125.044c.032 0 .048.036.048.057 0 .02 0 .04-.044.056l-.708.402a.3.3 0 0 1-.133.041.4.4 0 0 1-.157-.025l-.668-.197-.958.552.35.382a.1.1 0 0 1 .031.042q.01.024.01.05a.16.16 0 0 1-.077.077l-.704.402a.176.176 0 0 1-.181.016m.624-1.815-1.18-.354.62.68zM162.976 182.388a.6.6 0 0 1-.253-.084l-3.063-1.771q-.136-.076-.145-.145t.121-.145l.362-.209a.5.5 0 0 1 .358-.06l2.818.402-1.61-.933q-.135-.081-.149-.149c-.008-.045.032-.097.117-.145l.446-.258a.5.5 0 0 1 .254-.068.6.6 0 0 1 .257.084l3.063 1.771q.136.076.145.145c0 .044-.04.092-.129.145l-.358.205a.47.47 0 0 1-.354.064l-2.817-.402 1.609.938q.138.08.145.145.002.066-.128.144l-.443.258a.47.47 0 0 1-.246.068M168.872 178.944c.029 0 .049.036.049.056s0 .04-.045.056l-.708.403a.5.5 0 0 1-.113.048.3.3 0 0 1-.112 0l-2.387-.342 1.292.748q.138.078.149.149c.008.049-.036.093-.125.145l-.446.254a.44.44 0 0 1-.246.072.54.54 0 0 1-.254-.088l-3.058-1.763c-.093-.052-.141-.105-.149-.149s.032-.097.117-.145l.442-.257a.5.5 0 0 1 .254-.069c.091.007.18.036.258.085l1.267.732-.603-1.34a.1.1 0 0 1-.01-.034q0-.018.01-.034a.3.3 0 0 1 .088-.069l.704-.402a.2.2 0 0 1 .097-.024.2.2 0 0 1 .101.028.14.14 0 0 1 .068.076l.6 1.477 2.628.342q.071.007.132.045M170.671 177.559a3.8 3.8 0 0 1-1.847-.547c-.616-.358-.934-.709-.962-1.063s.234-.68.773-.994q.342-.197.716-.318.346-.113.708-.145a.24.24 0 0 1 .145.029q.048.031.077.08l.189.338q.042.055 0 .081a.3.3 0 0 1-.129.032c-.284.037-.557.13-.805.273-.285.161-.402.343-.374.54s.233.402.6.615c.328.2.699.316 1.082.339.334.019.666-.058.958-.222.211-.105.382-.276.487-.487a.2.2 0 0 1 .056-.072.2.2 0 0 1 .137 0l.612.112a.4.4 0 0 1 .121.041.1.1 0 0 1 .035.037.1.1 0 0 1 .009.051q-.08.4-.829.829a3.3 3.3 0 0 1-1.759.451M173.52 176.267a.4.4 0 0 1-.084-.076l-2.048-2.523a.2.2 0 0 1-.061-.129q.002-.048.089-.097l.402-.241a.35.35 0 0 1 .169-.053q.114.002.221.037l4.375 1.183a.4.4 0 0 1 .121.044c.032 0 .048.036.048.056s0 .041-.044.057l-.709.402a.3.3 0 0 1-.128.04.4.4 0 0 1-.157-.024l-.668-.197-.962.556.354.402c.028.032.044.064.036.088-.008.025-.028.053-.076.077l-.704.402a.17.17 0 0 1-.174-.004m.62-1.815-1.175-.354.62.68zM177.114 174.227a.6.6 0 0 1-.257-.085l-3.059-1.766q-.133-.078-.145-.149c-.008-.049.028-.093.117-.145l1.123-.648a2.29 2.29 0 0 1 2.463 0q.754.435.535.893l1.59.403a.3.3 0 0 1 .1.036.09.09 0 0 1 .052.064c0 .024 0 .045-.048.065l-.64.37a.5.5 0 0 1-.128.048.27.27 0 0 1-.137 0l-1.453-.402-.354.205.909.523q.14.081.145.149c.004.044-.032.093-.121.145l-.446.258a.47.47 0 0 1-.246.036m-.656-1.775q.415-.241-.028-.495a.8.8 0 0 0-.841-.032l-.362.209.893.515zM180.016 172.549a.6.6 0 0 1-.254-.085l-3.058-1.767q-.135-.077-.149-.149-.011-.07.117-.14l1.01-.584a3.1 3.1 0 0 1 1.63-.439 3.7 3.7 0 0 1 1.77.548q.901.524.938 1.018.036.496-.748.95l-1.007.579a.43.43 0 0 1-.249.069m.531-1.115q.331-.196.258-.403c-.049-.136-.262-.334-.644-.555a2.5 2.5 0 0 0-.954-.366 1.1 1.1 0 0 0-.712.149l-.362.209 2.052 1.187z" style="fill:#fff;fill-opacity:1"/><path fill="#E0E0E0" d="m139.281 195.846 8.415-4.861a1.55 1.55 0 0 1 1.396 0l6.777 3.915a.423.423 0 0 1 0 .805l-8.415 4.858a1.54 1.54 0 0 1-1.392 0l-6.781-3.912a.42.42 0 0 1-.285-.402.43.43 0 0 1 .285-.403" style="fill:#e0e0e0;fill:color(display-p3 .8784 .8784 .8784);fill-opacity:1"/><mask id="a" width="19" height="11" x="138" y="190" maskUnits="userSpaceOnUse" style="mask-type:luminance"><path fill="#fff" d="m139.281 195.846 8.415-4.861a1.55 1.55 0 0 1 1.396 0l6.777 3.915a.423.423 0 0 1 0 .805l-8.415 4.858a1.54 1.54 0 0 1-1.392 0l-6.781-3.912a.42.42 0 0 1-.285-.402.43.43 0 0 1 .285-.403" style="fill:#fff;fill-opacity:1"/></mask><g fill="#fff" mask="url(#a)"><path d="m151.7 200.197-5.867-3.32a1.43 1.43 0 0 0-1.409 0l-4.105 2.366-.201-.346 4.105-2.371a1.83 1.83 0 0 1 1.807 0l5.867 3.321zM150.03 195.251c-.323 0-.641-.084-.922-.246l-5.714-3.304.201-.346 5.719 3.3a1.44 1.44 0 0 0 1.436 0l4.085-2.358.201.35-4.084 2.358a1.83 1.83 0 0 1-.922.246" style="fill:#fff;fill-opacity:1"/><path d="m148.493 194.534-.202-.35 4.604-2.656-1.231-.712-4.805 2.773-.202-.346 5.007-2.89 2.036 1.175zM143.49 201.198l-2.04-1.175 5.244-3.006.201.346-4.636 2.66 1.231.709 4.838-2.789.201.346z" style="fill:#fff;fill-opacity:1"/></g><path fill="#F7921E" d="m151.068 202.253 7.719-4.455a2.3 2.3 0 0 1 2.093 0l1.175.68c.579.33.579.873 0 1.207l-7.715 4.455a2.3 2.3 0 0 1-2.093 0l-1.179-.68c-.575-.334-.575-.877 0-1.207" style="fill:#f7921e;fill:color(display-p3 .9686 .5725 .1176);fill-opacity:1"/><path fill="#fff" d="m151.471 202.253 7.719-4.455a2.3 2.3 0 0 1 2.092 0l1.175.68c.58.33.58.873 0 1.207l-7.714 4.455a2.31 2.31 0 0 1-2.093 0l-1.179-.68c-.576-.334-.576-.877 0-1.207" opacity=".7" style="fill:#fff;fill-opacity:1"/><path fill="#F7921E" d="m162.513 195.645 7.715-4.451a2.3 2.3 0 0 1 2.093 0l1.179.68c.576.334.576.873 0 1.207l-7.719 4.455a2.3 2.3 0 0 1-2.088 0l-1.18-.68c-.579-.338-.579-.877 0-1.211" style="fill:#f7921e;fill:color(display-p3 .9686 .5725 .1176);fill-opacity:1"/><path fill="#F7921E" d="m162.513 195.645 7.715-4.451a2.3 2.3 0 0 1 2.093 0l1.179.68c.576.334.576.873 0 1.207l-7.719 4.455a2.3 2.3 0 0 1-2.088 0l-1.18-.68c-.579-.338-.579-.877 0-1.211" style="fill:#f7921e;fill:color(display-p3 .9686 .5725 .1176);fill-opacity:1"/><path fill="#fff" d="m162.513 195.645 7.715-4.451a2.3 2.3 0 0 1 2.093 0l1.179.68c.576.334.576.873 0 1.207l-7.719 4.455a2.3 2.3 0 0 1-2.088 0l-1.18-.68c-.579-.338-.579-.877 0-1.211" opacity=".7" style="fill:#fff;fill-opacity:1"/><path fill="#F7921E" d="m173.955 189.037 7.719-4.455a2.3 2.3 0 0 1 2.089 0l1.179.68c.579.334.579.873 0 1.207l-7.715 4.455a2.3 2.3 0 0 1-2.093 0l-1.179-.68c-.575-.334-.575-.873 0-1.207" style="fill:#f7921e;fill:color(display-p3 .9686 .5725 .1176);fill-opacity:1"/><path fill="#fff" d="m173.955 189.037 7.719-4.455a2.3 2.3 0 0 1 2.089 0l1.179.68c.579.334.579.873 0 1.207l-7.715 4.455a2.3 2.3 0 0 1-2.093 0l-1.179-.68c-.575-.334-.575-.873 0-1.207" opacity=".7" style="fill:#fff;fill-opacity:1"/><path fill="#F7921E" d="m185.4 182.433 7.715-4.455a2.3 2.3 0 0 1 2.093 0l1.179.68c.576.33.576.873 0 1.207l-7.719 4.455a2.3 2.3 0 0 1-2.092 0l-1.176-.68c-.579-.334-.579-.877 0-1.207" style="fill:#f7921e;fill:color(display-p3 .9686 .5725 .1176);fill-opacity:1"/><path fill="#fff" d="m185.4 182.433 7.715-4.455a2.3 2.3 0 0 1 2.093 0l1.179.68c.576.33.576.873 0 1.207l-7.719 4.455a2.3 2.3 0 0 1-2.092 0l-1.176-.68c-.579-.334-.579-.877 0-1.207" opacity=".7" style="fill:#fff;fill-opacity:1"/><path fill="#F7921E" d="M201.711 181.732c.339.197.302.535-.084.761l-19.856 11.461a1.45 1.45 0 0 1-1.312.049c-.338-.198-.302-.536.084-.757L200.4 181.78a1.46 1.46 0 0 1 .65-.178c.228-.009.454.036.661.13" style="fill:#f7921e;fill:color(display-p3 .9686 .5725 .1176);fill-opacity:1"/><path fill="#000" d="M201.711 181.732c.339.197.302.535-.084.761l-19.856 11.461a1.45 1.45 0 0 1-1.312.049c-.338-.198-.302-.536.084-.757L200.4 181.78a1.46 1.46 0 0 1 .65-.178c.228-.009.454.036.661.13" opacity=".1" style="fill:#000;fill-opacity:1"/><path fill="#F7921E" d="M204.995 183.624c.342.197.306.535-.08.756l-12.717 7.337a1.453 1.453 0 0 1-1.312.048c-.338-.193-.302-.535.084-.756l12.713-7.337a1.449 1.449 0 0 1 1.312-.048" style="fill:#f7921e;fill:color(display-p3 .9686 .5725 .1176);fill-opacity:1"/><path fill="#000" d="M204.995 183.624c.342.197.306.535-.08.756l-12.717 7.337a1.453 1.453 0 0 1-1.312.048c-.338-.193-.302-.535.084-.756l12.713-7.337a1.449 1.449 0 0 1 1.312-.048" opacity=".1" style="fill:#000;fill-opacity:1"/></svg>