<svg xmlns="http://www.w3.org/2000/svg" width="256" height="256" fill="none"><path stroke="#D5D5D5" d="M51.06 218.734c-21.494-12.409-32.128-28.602-32.128-44.694 0-16.091 10.634-32.286 32.127-44.696 21.488-12.407 49.687-18.626 77.913-18.626 28.226-.001 56.425 6.217 77.913 18.626 21.492 12.41 32.125 28.605 32.126 44.696 0 16.092-10.632 32.285-32.126 44.694-21.49 12.406-49.688 18.624-77.913 18.624s-56.422-6.218-77.913-18.624Z"/><path fill="#37474F" d="M185.567 205.919v-2.544a.58.58 0 0 0-.531-.57l-4.049-.253v-5.692a.344.344 0 0 0-.195-.312l-4.274-2.466a1.17 1.17 0 0 0-.945-.044l-4.327 2.008a1.6 1.6 0 0 1-.975.059 26 26 0 0 0-3.362-.8.81.81 0 0 1-.624-.609l-.541-2.85a.672.672 0 0 0-.634-.522h-6.296a.67.67 0 0 0-.633.522l-.546 2.855a.81.81 0 0 1-.628.609 26 26 0 0 0-3.358.799 1.6 1.6 0 0 1-.974-.058l-4.333-2.008a1.15 1.15 0 0 0-.94.044l-4.274 2.466a.34.34 0 0 0-.195.302v5.701l-4.054.254a.59.59 0 0 0-.376.182.58.58 0 0 0-.155.388v8.567c0 .068.054.117.078.18a.6.6 0 0 0 .083.2.53.53 0 0 0 .268.127c.039 0 .063.048.102.053h.078l3.976.249v5.711q0 .063.035.117.057.091.151.146l4.283 2.51a.9.9 0 0 0 .409.107h.112a1 1 0 0 0 .151 0v-.025q.133-.01.264-.043l4.327-2.008c.311-.121.651-.141.974-.059a26 26 0 0 0 3.363.8c.151.031.29.106.4.214a.8.8 0 0 1 .223.395l.541 2.85c0 .069.073.112.108.171v.083c0 .034.058.053.087.083a.6.6 0 0 0 .078.068c.103.082.229.13.361.136h6.291a.63.63 0 0 0 .4-.146.64.64 0 0 0 .233-.37l.541-2.851a.81.81 0 0 1 .629-.609 25 25 0 0 0 3.357-.799c.323-.083.664-.063.975.058l4.332 2.008q.195.076.405.073c.186.011.372-.026.54-.107l4.269-2.466a.36.36 0 0 0 .2-.292v-5.736l4.049-.253a.58.58 0 0 0 .532-.57v-5.926a1 1 0 0 0 .014-.107m-15.564 2.661a9 9 0 0 1-.838.545c-3.981 2.3-10.443 2.3-14.424 0a8 8 0 0 1-.838-.55q.386-.27.838-.532c3.981-2.3 10.443-2.3 14.429 0 .302.176.575.356.833.537"/><path fill="#263238" d="M185.582 206.031v5.921a.57.57 0 0 1-.531.565l-4.049.258v5.707a.37.37 0 0 1-.2.292l-4.274 2.466c-.166.082-.351.12-.536.112a.9.9 0 0 1-.404-.078l-4.332-2.003a1.3 1.3 0 0 0-.405-.098 1.6 1.6 0 0 0-.585.044 26 26 0 0 1-3.357.8.7.7 0 0 0-.268.107v.034a.75.75 0 0 0-.361.487l-.541 2.851a.64.64 0 0 1-.234.37.62.62 0 0 1-.399.146h-6.408a.67.67 0 0 1-.41-.273v-.063c-.034-.058-.092-.107-.107-.17l-.546-2.88a.8.8 0 0 0-.253-.415.74.74 0 0 0-.37-.19 26 26 0 0 1-3.363-.799 1.55 1.55 0 0 0-.657-.034q-.171.015-.332.073l-4.322 2.027a.7.7 0 0 1-.263.044v.029a1.13 1.13 0 0 1-.673-.112l-4.269-2.465a.516.516 0 0 1-.165-.151.3.3 0 0 1-.034-.127v-5.726l-.741-.049-3.241-.204h-.068a.575.575 0 0 1-.531-.556v-5.423a.575.575 0 0 0 .531.565l5.692.36a1.06 1.06 0 0 1 .77.512c.332.607.738 1.17 1.208 1.676a.45.45 0 0 1 .072.549.45.45 0 0 1-.135.143l-3.382 2.437a.31.31 0 0 0-.175.299.32.32 0 0 0 .204.281l4.269 2.465a1.14 1.14 0 0 0 .945.039l4.323-2.002c.31-.122.651-.143.974-.059q1.654.514 3.363.799a.82.82 0 0 1 .623.605l.541 2.855a.68.68 0 0 0 .634.522h6.281a.67.67 0 0 0 .634-.522l.541-2.855a.82.82 0 0 1 .628-.605 24.6 24.6 0 0 0 3.363-.804c.323-.081.664-.059.974.064l4.332 2.002q.229.093.475.084c.162-.007.321-.049.466-.123l4.273-2.465a.32.32 0 0 0 .03-.58l-3.387-2.437a.44.44 0 0 1-.196-.331.45.45 0 0 1 .133-.361 8.4 8.4 0 0 0 1.232-1.676 1.06 1.06 0 0 1 .77-.512l5.692-.355a.585.585 0 0 0 .531-.57v-.634a1 1 0 0 1 0 .117M180.987 196.864v5.687l-1.643-.107a1.05 1.05 0 0 1-.769-.487 8.2 8.2 0 0 0-1.209-1.677.452.452 0 0 1-.07-.551.5.5 0 0 1 .133-.146l3.387-2.436a.37.37 0 0 0 .166-.268zM146.539 200.262a8.4 8.4 0 0 0-1.208 1.676 1.04 1.04 0 0 1-.77.487l-1.637.107v-5.701a.396.396 0 0 0 .175.283l3.382 2.436a.45.45 0 0 1 .2.342.47.47 0 0 1-.142.37"/><path fill="#455A64" d="m147.402 194.086-4.274 2.466a.32.32 0 0 0-.197.281.32.32 0 0 0 .168.299l3.387 2.436a.464.464 0 0 1 .168.53.44.44 0 0 1-.105.167 8.4 8.4 0 0 0-1.208 1.677 1.06 1.06 0 0 1-.77.487l-5.692.356a.59.59 0 0 0-.376.182.58.58 0 0 0-.155.388v3.172a.577.577 0 0 0 .531.565l5.692.361a1.06 1.06 0 0 1 .77.512 8.4 8.4 0 0 0 1.208 1.676.44.44 0 0 1 .133.361.44.44 0 0 1-.196.331l-3.387 2.436a.32.32 0 0 0-.168.3.32.32 0 0 0 .197.28l4.274 2.466a1.13 1.13 0 0 0 .94.039l4.333-2.003c.31-.123.651-.143.974-.058a27 27 0 0 0 3.362.799.81.81 0 0 1 .624.604l.541 2.856a.67.67 0 0 0 .634.521h6.281a.665.665 0 0 0 .633-.521l.541-2.856a.82.82 0 0 1 .629-.585 26 26 0 0 0 3.362-.799c.323-.085.665-.064.975.059l4.327 2.002a1.13 1.13 0 0 0 .945-.039l4.274-2.465a.322.322 0 0 0 .157-.455.3.3 0 0 0-.128-.125l-3.386-2.437a.45.45 0 0 1-.197-.333.46.46 0 0 1 .133-.363 8.4 8.4 0 0 0 1.233-1.672 1.06 1.06 0 0 1 .77-.512l5.692-.36a.573.573 0 0 0 .531-.565v-3.173a.57.57 0 0 0-.156-.387.58.58 0 0 0-.375-.183l-5.692-.361a1.043 1.043 0 0 1-.77-.487 8.4 8.4 0 0 0-1.208-1.676.455.455 0 0 1 .063-.697l3.387-2.436a.33.33 0 0 0 .168-.3.319.319 0 0 0-.198-.28l-4.273-2.466a1.16 1.16 0 0 0-.946-.044l-4.327 2.008c-.311.12-.651.141-.974.058a25.5 25.5 0 0 0-3.363-.799.81.81 0 0 1-.623-.609l-.541-2.851a.67.67 0 0 0-.634-.521h-6.306a.665.665 0 0 0-.633.521l-.546 2.836a.8.8 0 0 1-.225.397.8.8 0 0 1-.403.212 26 26 0 0 0-3.358.8 1.6 1.6 0 0 1-.974-.059l-4.333-2.008a1.15 1.15 0 0 0-.94.044m21.763 6.735c3.986 2.3 3.986 6.028 0 8.328s-10.443 2.3-14.424 0c-3.982-2.3-3.986-6.028 0-8.328s10.443-2.325 14.424 0"/><path fill="#37474F" d="M142.919 213.078a.359.359 0 0 1 .175-.288l1.701-1.228v-4.03a.7.7 0 0 0-.234-.058l-5.692-.361a.576.576 0 0 1-.531-.565v5.414a.575.575 0 0 0 .531.555h.069l3.24.205.741.049zM152.992 213.784a1.3 1.3 0 0 0-.332.088l-4.322 2.003a1.1 1.1 0 0 1-.556.073v5.404q.145.018.288 0v-.029a.8.8 0 0 0 .263-.044l4.327-2.003a1.2 1.2 0 0 1 .327-.073zM158.264 218.272a.6.6 0 0 1-.083-.2l-.546-2.856a.7.7 0 0 0-.083-.214v5.409q.06.1.083.214l.541 2.851a.34.34 0 0 0 .083.137z"/><path fill="#000" d="M166.348 215.002a.8.8 0 0 0-.082.214l-.541 2.856a.7.7 0 0 1-.083.205v5.404a.7.7 0 0 0 .083-.205l.541-2.851a.5.5 0 0 1 .082-.195zM176.123 215.928a1.07 1.07 0 0 1-.55-.073l-4.332-2.003a1.3 1.3 0 0 0-.327-.087v5.409q.17.014.327.083l4.332 2.002a.86.86 0 0 0 .404.078h.146zM185.036 207.119l-5.692.355a.7.7 0 0 0-.233.059v4.01l1.705 1.228a.36.36 0 0 1 .171.288v-.302l4.049-.259a.566.566 0 0 0 .531-.565v-5.921a1 1 0 0 0 0-.116v.633a.583.583 0 0 1-.531.59" opacity=".15"/><path fill="#37474F" d="M104.617 184.741v4.839a.2.2 0 0 0 .044.117l1.901 2.651a.78.78 0 0 0 .696.209l4.386-.741a1.17 1.17 0 0 1 .785.137c.336.234.692.463 1.067.672v3.636a.3.3 0 0 0 .243.263l4.771 1.14a.9.9 0 0 0 .765-.283l1.949-2.066c.224-.219.525-.342.839-.341a24 24 0 0 0 2.987 0c.26-.02.518.06.721.224l2.198 2.31a.84.84 0 0 0 .74.141l4.591-1.096c.229-.059.37-.2.36-.346v-3.582c.317-.185.619-.37.902-.57a1.43 1.43 0 0 1 .862-.248l4.522.765a.82.82 0 0 0 .712-.336l1.73-2.413a.5.5 0 0 0 .102-.282v-3.484a.23.23 0 0 0 .034-.108v-6.885a.18.18 0 0 0-.039-.117l-1.9-2.651a.8.8 0 0 0-.323-.189.8.8 0 0 0-.374-.016l-4.386.741a1.22 1.22 0 0 1-.784-.137 13 13 0 0 0-1.067-.677v-3.606a.33.33 0 0 0-.068-.203.3.3 0 0 0-.181-.114l-4.771-1.135a.888.888 0 0 0-.77.283l-1.949 2.066a1.2 1.2 0 0 1-.809.351 23 23 0 0 0-2.992 0 1.06 1.06 0 0 1-.721-.225l-2.193-2.309a.84.84 0 0 0-.74-.142l-4.63 1.087c-.224.054-.365.19-.36.336v3.597c-.312.18-.614.37-.897.565a1.4 1.4 0 0 1-.863.248l-4.522-.76a.83.83 0 0 0-.716.336l-1.73 2.413a.43.43 0 0 0-.093.263v5.54a.2.2 0 0 0-.029.107zm24.852.594a10.2 10.2 0 0 1-2.689 1.033c-3.217.765-6.779.298-9.108-1.028a7 7 0 0 1-.721-.487c.204-.146.429-.288.667-.429 3.28-1.891 8.591-1.891 11.871 0 .249.141.487.283.682.429a7 7 0 0 1-.711.482z"/><path fill="#263238" d="M132.573 175.453q.548.255 1.058.541v-3.567a.5.5 0 0 1-.054.185l-1.145 2.266a.42.42 0 0 0-.05.317.41.41 0 0 0 .191.258"/><path fill="#000" d="M137.836 181.121c.078.495.078 1 0 1.496a.489.489 0 0 0 .307.526l4.128 1.306a.26.26 0 0 1 .143.098.26.26 0 0 1 .052.165v1.34a.24.24 0 0 0 .034-.097v-6.895c0 .121-.132.243-.332.307l-3.898 1.237c-.283.088-.468.317-.434.517M135.249 186.958v4.844a.6.6 0 0 1 .166 0l4.522.755a.54.54 0 0 0 .234 0v-4.839a.6.6 0 0 1-.244 0l-4.522-.76a.5.5 0 0 0-.156 0" opacity=".15"/><path fill="#263238" d="M133.655 192.616c.312-.181.614-.366.897-.566.21-.135.448-.22.696-.248v-4.844a1.55 1.55 0 0 0-.706.253q-.875.6-1.832 1.053c-.268.132-.419.365-.332.546l1.243 2.436a.2.2 0 0 1 .024.103c0 .165.01 1.267.01 1.267"/><path fill="#000" d="M125.474 190.194v4.844a.7.7 0 0 1 .277.156l2.198 2.31a.67.67 0 0 0 .4.161v-4.844a.65.65 0 0 1-.41-.156l-2.197-2.315a.7.7 0 0 0-.268-.156" opacity=".15"/><path fill="#263238" d="M121.765 190.164v4.844q.146-.037.297-.034 1.497.087 2.992 0c.151-.007.302.016.444.068v-4.844a1.2 1.2 0 0 0-.453-.068q-1.494.096-2.987 0a.9.9 0 0 0-.293.034"/><path fill="#000" d="M118.846 192.8v4.839c.164-.048.313-.137.434-.258l1.949-2.071c.145-.141.323-.245.517-.302v-4.844a1.3 1.3 0 0 0-.527.307l-1.949 2.066a.97.97 0 0 1-.424.263" opacity=".15"/><path fill="#37474F" d="M113.491 191.426v4.834a.3.3 0 0 0 .079.171c.043.048.101.08.165.092l4.77 1.14a.67.67 0 0 0 .332 0v-4.839a.76.76 0 0 1-.341 0l-4.771-1.145a.29.29 0 0 1-.234-.253"/><path fill="#000" d="M111.951 186.963v4.844c.172.007.339.058.487.146q.516.365 1.067.672v-1.257a.5.5 0 0 1 .054-.195l1.145-2.271a.41.41 0 0 0-.021-.467.4.4 0 0 0-.125-.108 13.4 13.4 0 0 1-2.12-1.213.97.97 0 0 0-.487-.151" opacity=".15"/><path fill="#37474F" d="M104.617 184.741v4.839a.25.25 0 0 0 .044.122l1.9 2.646c.084.1.199.167.327.19v-4.839a.58.58 0 0 1-.336-.19l-1.901-2.651a.18.18 0 0 1-.034-.117"/><path fill="#455A64" d="m133.377 172.095-4.77-1.135a.88.88 0 0 0-.77.283l-1.949 2.066a1.2 1.2 0 0 1-.809.351 23 23 0 0 0-2.992 0 1.06 1.06 0 0 1-.721-.225l-2.193-2.309a.84.84 0 0 0-.741-.142l-4.605 1.087c-.224.054-.365.19-.361.336a.2.2 0 0 0 0 .098l1.287 2.49c.088.175-.063.409-.331.541a17 17 0 0 0-.936.487c-.297.171-.614.37-.897.565a1.4 1.4 0 0 1-.862.249l-4.522-.76a.828.828 0 0 0-.717.336l-1.73 2.412a.43.43 0 0 0-.092.263.26.26 0 0 0 .048.159.26.26 0 0 0 .137.095l4.132 1.31a.49.49 0 0 1 .307.527 4.8 4.8 0 0 0 0 1.491c.034.204-.151.429-.424.516l-3.898 1.238a.53.53 0 0 0-.302.205.2.2 0 0 0-.029.107.17.17 0 0 0 .039.117l1.9 2.651a.76.76 0 0 0 .697.2l4.386-.736c.269-.044.545.005.784.136q1.004.707 2.12 1.218a.415.415 0 0 1 .204.421.4.4 0 0 1-.058.154l-1.145 2.271a.329.329 0 0 0 .195.488l4.77 1.145a.92.92 0 0 0 .766-.283l1.949-2.071c.215-.215.505-.339.809-.346a24 24 0 0 0 2.987 0c.26-.018.517.062.721.224l2.198 2.315a.86.86 0 0 0 .74.136l4.591-1.096c.273-.068.424-.258.341-.434l-1.248-2.465c-.087-.176.064-.41.332-.541q.957-.454 1.832-1.053c.252-.176.555-.263.863-.248l4.522.76a.8.8 0 0 0 .711-.337l1.735-2.407a.5.5 0 0 0 .097-.268.26.26 0 0 0-.195-.263l-4.137-1.282a.484.484 0 0 1-.307-.526c.081-.495.081-1 0-1.496-.034-.2.151-.429.429-.516l3.899-1.238c.199-.063.326-.185.331-.307a.2.2 0 0 0-.039-.117l-1.901-2.651a.76.76 0 0 0-.323-.188.8.8 0 0 0-.373-.017l-4.386.741a1.23 1.23 0 0 1-.785-.136 13 13 0 0 0-1.067-.678c-.375-.214-.687-.37-1.052-.541a.4.4 0 0 1-.124-.108.42.42 0 0 1-.018-.467l1.141-2.266a.5.5 0 0 0 .053-.185.317.317 0 0 0-.244-.351m-13.03 5.336c4.279-1.023 9.191.151 10.964 2.622a2.97 2.97 0 0 1 .429 2.924l-.044.102-.044.102-.048.093a4.7 4.7 0 0 1-1.433 1.589q-.336.25-.702.458c-.843.469-1.749.817-2.69 1.033-3.216.765-6.778.297-9.107-1.028a7 7 0 0 1-.721-.488 5.1 5.1 0 0 1-1.141-1.13 2.97 2.97 0 0 1-.229-3.343l.044-.078.102-.161c.059-.083.113-.166.181-.248q.076-.108.165-.205l.083-.093.117-.117a8.46 8.46 0 0 1 4.074-2.032"/><path fill="#37474F" d="M95.904 214.062v4.834a.2.2 0 0 0 .04.122l1.9 2.65a.76.76 0 0 0 .697.205l4.385-.741c.27-.043.546.005.785.137.336.239.692.487 1.067.677v3.636a.31.31 0 0 0 .244.263l4.77 1.14a.92.92 0 0 0 .77-.283l1.949-2.071c.213-.215.502-.339.804-.346a25 25 0 0 0 2.992 0c.261-.021.519.059.722.224l2.192 2.31a.87.87 0 0 0 .746.137l4.586-1.097c.229-.053.375-.195.365-.341v-3.586c.312-.181.614-.371.897-.566a1.4 1.4 0 0 1 .867-.248l4.517.76a.83.83 0 0 0 .717-.331l1.73-2.437a.5.5 0 0 0 .097-.282v-3.485a.2.2 0 0 0 .039-.112v-6.88a.2.2 0 0 0-.039-.117l-1.905-2.651a.8.8 0 0 0-.323-.189.8.8 0 0 0-.374-.016l-4.386.736c-.269.047-.546 0-.784-.132q-.514-.365-1.063-.677v-3.567a.31.31 0 0 0-.248-.317l-4.771-1.14a.9.9 0 0 0-.765.283l-1.949 2.066a1.17 1.17 0 0 1-.809.355 24 24 0 0 0-2.987 0 1 1 0 0 1-.721-.224l-2.198-2.31a.854.854 0 0 0-.741-.136l-4.59 1.096c-.224.054-.366.19-.361.337v3.596c-.317.18-.619.37-.896.565a1.4 1.4 0 0 1-.868.249l-4.522-.76a.83.83 0 0 0-.712.331l-1.73 2.436a.43.43 0 0 0-.097.264v5.54a.3.3 0 0 0-.034.107zm24.852.594c-.843.468-1.749.814-2.689 1.028-3.212.77-6.779.303-9.108-1.023a7 7 0 0 1-.721-.487c.204-.141.429-.283.667-.424 3.28-1.891 8.596-1.891 11.876 0 .243.141.487.287.677.434a6 6 0 0 1-.711.472z"/><path fill="#263238" d="M123.86 204.773c.366.166.722.351 1.058.541v-3.567a.4.4 0 0 1-.054.185l-1.14 2.261a.43.43 0 0 0-.053.319.4.4 0 0 0 .069.149.4.4 0 0 0 .12.112"/><path fill="#000" d="M129.123 210.437a4.6 4.6 0 0 1 0 1.496.49.49 0 0 0 .303.531l4.132 1.306a.27.27 0 0 1 .14.096.26.26 0 0 1 .05.163v1.345a.2.2 0 0 0 .034-.098v-6.9c0 .127-.127.249-.326.312l-3.899 1.238a.534.534 0 0 0-.434.511M126.541 216.274v4.873q.082-.006.165 0l4.522.761a.5.5 0 0 0 .229 0v-4.834a.7.7 0 0 1-.238 0l-4.523-.761a1 1 0 0 0-.155-.039" opacity=".15"/><path fill="#263238" d="M124.942 221.937c.312-.181.614-.371.897-.565.211-.137.452-.222.702-.249v-4.873a1.5 1.5 0 0 0-.707.258q-.872.605-1.822 1.077c-.273.132-.42.366-.332.541l1.243 2.461a.3.3 0 0 1 .024.102c-.01.146-.005 1.248-.005 1.248"/><path fill="#000" d="M116.78 219.515v4.843q.16.043.278.156l2.193 2.31a.7.7 0 0 0 .399.161v-4.844a.66.66 0 0 1-.409-.156l-2.198-2.314a.65.65 0 0 0-.263-.156" opacity=".15"/><path fill="#263238" d="M113.057 219.484v4.844a.9.9 0 0 1 .288-.044 25 25 0 0 0 2.992 0c.15-.006.301.017.443.068v-4.843a1.2 1.2 0 0 0-.453-.069 24 24 0 0 1-2.987 0 .8.8 0 0 0-.283.044"/><path fill="#000" d="M110.133 222.117v4.844c.166-.047.317-.136.439-.259l1.949-2.071c.147-.141.326-.245.521-.302v-4.844a1.3 1.3 0 0 0-.526.307l-1.949 2.067a1 1 0 0 1-.434.258" opacity=".15"/><path fill="#37474F" d="M104.778 220.748v4.834a.32.32 0 0 0 .244.263l4.775 1.14a.64.64 0 0 0 .327-.024v-4.844a.7.7 0 0 1-.336.03l-4.776-1.146a.298.298 0 0 1-.234-.253"/><path fill="#000" d="M103.243 216.284v4.844c.172.008.339.058.487.146q.498.35 1.063.673v-1.258c0-.069.017-.138.048-.199l1.145-2.266a.41.41 0 0 0-.141-.575 13 13 0 0 1-2.12-1.219 1 1 0 0 0-.482-.146" opacity=".15"/><path fill="#37474F" d="M95.904 214.062v4.839a.3.3 0 0 0 .044.122l1.905 2.646a.53.53 0 0 0 .322.185v-4.834a.6.6 0 0 1-.336-.19l-1.9-2.651a.2.2 0 0 1-.035-.117"/><path fill="#455A64" d="m124.665 201.415-4.771-1.14a.9.9 0 0 0-.765.283l-1.949 2.066a1.18 1.18 0 0 1-.809.356 24 24 0 0 0-2.987 0 1 1 0 0 1-.722-.225l-2.197-2.309a.86.86 0 0 0-.741-.137l-4.59 1.097c-.225.053-.366.19-.361.336q.003.052.024.097l1.243 2.466c.093.171-.059.409-.331.536-.273.127-.634.322-.931.487-.297.166-.619.371-.897.566a1.4 1.4 0 0 1-.867.248l-4.522-.76a.83.83 0 0 0-.712.331l-1.73 2.437a.43.43 0 0 0-.097.263.27.27 0 0 0 .19.253l4.132 1.306a.49.49 0 0 1 .307.531 4.8 4.8 0 0 0 0 1.492c.034.199-.151.428-.424.516l-3.898 1.233a.5.5 0 0 0-.297.21.25.25 0 0 0-.034.107.2.2 0 0 0 .043.117l1.896 2.651a.78.78 0 0 0 .697.199l4.385-.735c.27-.046.547.002.785.136q1.004.707 2.12 1.218a.4.4 0 0 1 .122.11.43.43 0 0 1 .076.312.4.4 0 0 1-.057.153l-1.145 2.266a.336.336 0 0 0 .195.512l4.775 1.145a.94.94 0 0 0 .765-.287l1.95-2.067c.213-.216.501-.341.804-.35q1.495.09 2.992 0c.26-.018.517.062.721.224l2.198 2.314a.84.84 0 0 0 .74.137l4.591-1.097c.273-.068.424-.263.336-.438l-1.243-2.461c-.087-.175.059-.409.327-.541a13.5 13.5 0 0 0 1.837-1.052c.25-.181.555-.269.862-.249l4.518.76a.83.83 0 0 0 .716-.336l1.73-2.437a.5.5 0 0 0 .097-.268.258.258 0 0 0-.194-.258l-4.128-1.306a.49.49 0 0 1-.307-.531c.08-.494.08-.997 0-1.491a.54.54 0 0 1 .429-.517l3.898-1.237c.205-.064.327-.186.337-.307a.2.2 0 0 0-.039-.117l-1.906-2.651a.8.8 0 0 0-.323-.189.8.8 0 0 0-.374-.016l-4.385.736c-.269.047-.546 0-.785-.132q-.514-.365-1.062-.677c-.336-.19-.692-.37-1.058-.541a.404.404 0 0 1-.2-.421.4.4 0 0 1 .059-.154l1.145-2.266a.5.5 0 0 0 .049-.185.312.312 0 0 0-.253-.322m-13.031 5.317c4.279-1.024 9.191.151 10.964 2.621a2.96 2.96 0 0 1 .385 3.031l-.043.103a4.607 4.607 0 0 1-1.482 1.686 6 6 0 0 1-.702.458c-.843.468-1.749.814-2.689 1.028-3.212.77-6.779.302-9.108-1.023a7 7 0 0 1-.721-.488 5 5 0 0 1-1.136-1.125 2.97 2.97 0 0 1-.229-3.348l.044-.073q.047-.084.102-.161.081-.13.176-.248.081-.109.17-.21a1 1 0 0 1 .083-.088l.117-.121a8.46 8.46 0 0 1 4.069-2.042"/><path fill="#F7921E" d="M70.87 179.734a12.46 12.46 0 0 0-4.625-4.276c-7.552-4.366-19.824-4.366-27.376 0a12.55 12.55 0 0 0-4.626 4.276h-1.066v3.956c.136 2.752 2.02 5.48 5.664 7.58 7.552 4.366 19.824 4.366 27.376 0 3.639-2.1 5.532-4.828 5.664-7.58v-3.956z"/><path fill="#000" d="M70.87 179.734a12.46 12.46 0 0 0-4.625-4.276c-7.552-4.366-19.824-4.366-27.376 0a12.55 12.55 0 0 0-4.626 4.276h-1.066v3.956c.136 2.752 2.02 5.48 5.664 7.58 7.552 4.366 19.824 4.366 27.376 0 3.639-2.1 5.532-4.828 5.664-7.58v-3.956z" opacity=".25"/><path fill="#000" d="M52.543 172.183c-4.956 0-9.912 1.09-13.688 3.275a12.54 12.54 0 0 0-4.626 4.277h-1.052v3.955c.136 2.752 2.02 5.48 5.664 7.58 3.776 2.181 8.741 3.271 13.688 3.271z" opacity=".1"/><path fill="#000" d="M41.965 174a21.3 21.3 0 0 0-3.12 1.458 12.54 12.54 0 0 0-4.625 4.277h-1.043v3.955c.136 2.752 2.02 5.48 5.664 7.58.998.57 2.042 1.058 3.12 1.459z" opacity=".1"/><path fill="#F7921E" d="M63.116 174c1.076.402 2.117.89 3.115 1.458a12.47 12.47 0 0 1 4.626 4.277h1.047v3.955c-.141 2.752-2.034 5.48-5.664 7.58a21.4 21.4 0 0 1-3.115 1.459z" opacity=".5"/><path fill="#F7921E" d="M66.23 171.848c-7.551-4.366-19.823-4.366-27.375 0s-7.552 11.441 0 15.807 19.824 4.366 27.376 0 7.561-11.455 0-15.807"/><path fill="#000" d="M66.23 171.848c-7.551-4.366-19.823-4.366-27.375 0s-7.552 11.441 0 15.807 19.824 4.366 27.376 0 7.561-11.455 0-15.807" opacity=".2"/><path fill="#F7921E" d="M61.454 174.727c-2.393-1.227-5.555-1.888-8.916-1.888-3.36 0-6.523.675-8.916 1.888-2.535 1.298-3.903 3.077-3.903 5.013s1.392 3.709 3.927 5.007c2.393 1.232 5.56 1.888 8.916 1.888s6.523-.675 8.916-1.888c2.535-1.298 3.932-3.077 3.932-5.007 0-1.931-1.421-3.715-3.956-5.013"/><path fill="#000" d="M61.454 174.727c-2.393-1.227-5.555-1.888-8.916-1.888-3.36 0-6.523.675-8.916 1.888-2.535 1.298-3.903 3.077-3.903 5.013s1.392 3.709 3.927 5.007c2.393 1.232 5.56 1.888 8.916 1.888s6.523-.675 8.916-1.888c2.535-1.298 3.932-3.077 3.932-5.007 0-1.931-1.421-3.715-3.956-5.013" opacity=".4"/><path fill="#F7921E" d="M65.81 172.566c-3.53-2.039-8.245-3.168-13.272-3.168s-9.737 1.129-13.268 3.168c-3.389 1.954-5.248 4.498-5.248 7.174s1.86 5.22 5.248 7.174c3.53 2.035 8.241 3.163 13.268 3.163s9.742-1.128 13.273-3.163c3.384-1.954 5.248-4.503 5.248-7.174s-1.864-5.22-5.248-7.174m-4.356 12.182c-2.393 1.232-5.555 1.888-8.916 1.888-3.36 0-6.523-.675-8.916-1.888-2.535-1.298-3.903-3.078-3.903-5.008s1.392-3.715 3.927-5.013c2.393-1.227 5.56-1.888 8.916-1.888s6.523.675 8.916 1.888c2.535 1.298 3.932 3.078 3.932 5.013s-1.421 3.71-3.956 5.008"/><path fill="#fff" d="M65.81 172.566c-3.53-2.039-8.245-3.168-13.272-3.168s-9.737 1.129-13.268 3.168c-3.389 1.954-5.248 4.498-5.248 7.174s1.86 5.22 5.248 7.174c3.53 2.035 8.241 3.163 13.268 3.163s9.742-1.128 13.273-3.163c3.384-1.954 5.248-4.503 5.248-7.174s-1.864-5.22-5.248-7.174m-4.356 12.182c-2.393 1.232-5.555 1.888-8.916 1.888-3.36 0-6.523-.675-8.916-1.888-2.535-1.298-3.903-3.078-3.903-5.008s1.392-3.715 3.927-5.013c2.393-1.227 5.56-1.888 8.916-1.888s6.523.675 8.916 1.888c2.535 1.298 3.932 3.078 3.932 5.013s-1.421 3.71-3.956 5.008" opacity=".3"/><path fill="#000" d="M61.152 184.157c4.753-2.44 4.753-6.4 0-8.84-4.753-2.441-12.47-2.441-17.223 0s-4.758 6.4 0 8.84 12.465 2.44 17.223 0" opacity=".2"/><path fill="#F7921E" d="M61.152 184.157c4.753-2.44 4.753-6.4 0-8.84-4.753-2.441-12.47-2.441-17.223 0s-4.758 6.4 0 8.84 12.465 2.44 17.223 0"/><path fill="#000" d="M61.152 184.157c4.753-2.44 4.753-6.4 0-8.84-4.753-2.441-12.47-2.441-17.223 0s-4.758 6.4 0 8.84 12.465 2.44 17.223 0" opacity=".45"/><path fill="#F7921E" d="M61.152 176.974c-4.758-2.441-12.47-2.441-17.223 0-1.968 1.01-3.12 2.275-3.46 3.592.34 1.312 1.492 2.581 3.46 3.592 4.753 2.44 12.465 2.44 17.223 0 1.964-1.011 3.115-2.28 3.455-3.592-.344-1.312-1.491-2.582-3.455-3.592"/><path fill="#000" d="M61.152 176.974c-4.758-2.441-12.47-2.441-17.223 0-1.968 1.01-3.12 2.275-3.46 3.592.34 1.312 1.492 2.581 3.46 3.592 4.753 2.44 12.465 2.44 17.223 0 1.964-1.011 3.115-2.28 3.455-3.592-.344-1.312-1.491-2.582-3.455-3.592" opacity=".3"/><path fill="#F7921E" d="M53.695 175.411v1.789l-.614.642-1.123 1.18v-1.86z"/><path fill="#000" d="M53.695 175.411v1.789l-.614.642-1.123 1.18v-1.86z" opacity=".3"/><path fill="#F7921E" d="M51.958 177.162v1.053c-.563.217-1.145.383-1.737.496a1.9 1.9 0 0 1-.741-.029 2 2 0 0 1-.354-.146c-.43-.255-.5-.637.32-1.109a2.85 2.85 0 0 1 2.512-.265"/><path fill="#000" d="M51.958 177.162v1.053c-.563.217-1.145.383-1.737.496a1.9 1.9 0 0 1-.741-.029 2 2 0 0 1-.354-.146c-.43-.255-.5-.637.32-1.109a2.85 2.85 0 0 1 2.512-.265" opacity=".45"/><path fill="#F7921E" d="M60.038 182.231v1.539l-1.954 1.128-1.444-.835a7.36 7.36 0 0 1-5.593.25v-1.544l.887-.877-.887.245a5.72 5.72 0 0 1-4.357-.5c-.873-.505-1.28-1.058-1.28-1.624v-1.501l.157-.656-.534-.312v-1.543l1.45.835c-.709.548-1.081 1.11-1.072 1.657 0 .552.425 1.09 1.279 1.586 1.888 1.095 3.776.732 5.508.179 1.6-.523 2.77-1.137 3.696-.604.571.331.397.737-.245 1.109a3.23 3.23 0 0 1-2.757.161l-1.845 1.85a6.6 6.6 0 0 0 1.02.302 7.6 7.6 0 0 0 4.573-.552l1.444.835z"/><path fill="#000" d="M45.41 178.498c0 .553.426 1.091 1.28 1.586 1.888 1.095 3.776.732 5.508.18 1.6-.524 2.77-1.138 3.696-.605.571.331.397.737-.245 1.11a3.2 3.2 0 0 1-1.36.389 3.2 3.2 0 0 1-1.397-.229l-1.845 1.846q.496.19 1.02.302a7.6 7.6 0 0 0 4.573-.552l1.444.835 1.954-1.128v1.539l-1.954 1.128-1.444-.836a7.35 7.35 0 0 1-5.593.25v-1.543l.887-.878-.887.245a5.72 5.72 0 0 1-4.357-.5c-.873-.505-1.28-1.057-1.28-1.624v-1.5l.157-.657" opacity=".2"/><path fill="#000" d="M45.038 176.006v1.543l.529.312c.223-.407.536-.757.915-1.024z" opacity=".45"/><path fill="#F7921E" d="M59.717 181.226c.003.253-.047.504-.146.737l-.972-.562a1.93 1.93 0 0 0 1.109-1.487c0 .43.01 1.27.01 1.312"/><path fill="#000" d="M59.717 181.226c.003.253-.047.504-.146.737l-.972-.562a1.93 1.93 0 0 0 1.109-1.487c0 .43.01 1.27.01 1.312" opacity=".3"/><path fill="#F7921E" d="m59.713 182.048-1.114-.651a1.89 1.89 0 0 0 1.118-1.709q.005-.075 0-.151c-.047-.533-.439-1.053-1.25-1.515a5.1 5.1 0 0 0-2.596-.68h-.482a2 2 0 0 0-.203.024h-.236a10 10 0 0 0-1.26.259c-.198.052-.401.114-.595.175-.278.085-.552.179-.816.264-.104.043-.208.076-.307.109a9.6 9.6 0 0 1-1.733.472 1.7 1.7 0 0 1-.745-.028 1.5 1.5 0 0 1-.35-.142c-.434-.255-.505-.637.312-1.109a2.86 2.86 0 0 1 2.516-.264l1.737-1.752a7.45 7.45 0 0 0-5.244.293l-1.445-.835-1.968 1.137 1.445.836c-.708.547-1.086 1.113-1.077 1.656.024.557.43 1.095 1.284 1.591 1.888 1.095 3.776.736 5.508.179 1.6-.524 2.766-1.137 3.691-.604.576.331.402.732-.24 1.105a3.2 3.2 0 0 1-2.757.16l-1.86 1.912a6.764 6.764 0 0 0 2.804.429 8.2 8.2 0 0 0 2.79-.684l1.449.84 1.95-1.133z"/><path fill="#fff" d="m59.713 182.048-1.114-.651a1.89 1.89 0 0 0 1.118-1.709q.005-.075 0-.151c-.047-.533-.439-1.053-1.25-1.515a5.1 5.1 0 0 0-2.596-.68h-.482a2 2 0 0 0-.203.024h-.236a10 10 0 0 0-1.26.259c-.198.052-.401.114-.595.175-.278.085-.552.179-.816.264-.104.043-.208.076-.307.109a9.6 9.6 0 0 1-1.733.472 1.7 1.7 0 0 1-.745-.028 1.5 1.5 0 0 1-.35-.142c-.434-.255-.505-.637.312-1.109a2.86 2.86 0 0 1 2.516-.264l1.737-1.752a7.45 7.45 0 0 0-5.244.293l-1.445-.835-1.968 1.137 1.445.836c-.708.547-1.086 1.113-1.077 1.656.024.557.43 1.095 1.284 1.591 1.888 1.095 3.776.736 5.508.179 1.6-.524 2.766-1.137 3.691-.604.576.331.402.732-.24 1.105a3.2 3.2 0 0 1-2.757.16l-1.86 1.912a6.764 6.764 0 0 0 2.804.429 8.2 8.2 0 0 0 2.79-.684l1.449.84 1.95-1.133z" opacity=".3"/><path fill="#F7921E" d="M56.64 182.524v1.544l1.449.835v-1.543z"/><path fill="#000" d="M56.64 182.524v1.544l1.449.835v-1.543z" opacity=".45"/><path fill="#F5F5F5" d="m45.038 176.006 1.968-1.138 1.445.836-1.43-.6zM49.442 177.427a2.86 2.86 0 0 1 2.516-.265l1.736-1.751-1.736 1.572a2.64 2.64 0 0 0-2.516.444M51.047 182.779q.498.186 1.02.298a6.8 6.8 0 0 0 1.783.132 6.2 6.2 0 0 1-2.51-.505l1.552-1.761zM56.64 182.524l1.449.652 1.95-.94-1.95 1.124zM39.417 172.825c5.13-3.115 13.121-3.427 13.121-3.427-5.027 0-9.737 1.129-13.268 3.168-3.389 1.954-5.248 4.498-5.248 7.174 0 0 .184-3.748 5.395-6.915M51.047 190.883c5.437.241 11.026-.84 15.184-3.242 4.328-2.497 6.178-5.886 5.555-9.143 0 0 .807 5.31-5.88 8.968-6.689 3.658-14.86 3.417-14.86 3.417" opacity=".5"/><path fill="#F7921E" d="M69.587 174.25a12.53 12.53 0 0 0-4.626-4.276c-7.552-4.366-19.824-4.366-27.376 0a12.5 12.5 0 0 0-4.626 4.276h-1.057v3.955c.142 2.752 2.025 5.48 5.664 7.552 7.552 4.366 19.824 4.366 27.376 0 3.635-2.095 5.532-4.823 5.664-7.552v-3.955z"/><path fill="#000" d="M69.587 174.25a12.53 12.53 0 0 0-4.626-4.276c-7.552-4.366-19.824-4.366-27.376 0a12.5 12.5 0 0 0-4.626 4.276h-1.057v3.955c.142 2.752 2.025 5.48 5.664 7.552 7.552 4.366 19.824 4.366 27.376 0 3.635-2.095 5.532-4.823 5.664-7.552v-3.955z" opacity=".25"/><path fill="#000" d="M51.268 166.698c-4.956 0-9.912 1.091-13.688 3.276a12.5 12.5 0 0 0-4.625 4.276h-1.053v3.956c.142 2.751 2.025 5.48 5.664 7.552 3.776 2.185 8.737 3.275 13.688 3.275z" opacity=".1"/><path fill="#000" d="M40.69 168.516c-1.076.4-2.118.887-3.114 1.458a12.5 12.5 0 0 0-4.626 4.276h-1.048v3.956c.142 2.752 2.025 5.48 5.664 7.552.998.57 2.04 1.059 3.115 1.463z" opacity=".1"/><path fill="#F7921E" d="M61.841 168.516a21 21 0 0 1 3.12 1.458 12.55 12.55 0 0 1 4.626 4.276h1.043v3.956c-.137 2.752-2.034 5.48-5.664 7.552a21.3 21.3 0 0 1-3.12 1.463z" opacity=".5"/><path fill="#F7921E" d="M64.961 166.349c-7.552-4.366-19.824-4.366-27.376 0s-7.552 11.441 0 15.807 19.824 4.366 27.376 0 7.562-11.441 0-15.807"/><path fill="#000" d="M64.961 166.349c-7.552-4.366-19.824-4.366-27.376 0s-7.552 11.441 0 15.807 19.824 4.366 27.376 0 7.562-11.441 0-15.807" opacity=".2"/><path fill="#F7921E" d="M60.185 169.238c-2.394-1.223-5.56-1.888-8.916-1.888s-6.523.679-8.917 1.888c-2.534 1.302-3.931 3.082-3.931 5.017s1.416 3.71 3.931 5.008c2.394 1.232 5.56 1.888 8.917 1.888 3.355 0 6.523-.675 8.916-1.888 2.53-1.298 3.927-3.078 3.927-5.008s-1.397-3.715-3.927-5.017"/><path fill="#000" d="M60.185 169.238c-2.394-1.223-5.56-1.888-8.916-1.888s-6.523.679-8.917 1.888c-2.534 1.302-3.931 3.082-3.931 5.017s1.416 3.71 3.931 5.008c2.394 1.232 5.56 1.888 8.917 1.888 3.355 0 6.523-.675 8.916-1.888 2.53-1.298 3.927-3.078 3.927-5.008s-1.397-3.715-3.927-5.017" opacity=".4"/><path fill="#F7921E" d="M64.541 167.075c-3.535-2.039-8.246-3.162-13.272-3.162-5.027 0-9.738 1.123-13.268 3.162-3.39 1.959-5.254 4.503-5.254 7.18s1.888 5.22 5.254 7.174c3.53 2.034 8.24 3.158 13.268 3.158 5.026 0 9.737-1.124 13.272-3.158 3.38-1.954 5.249-4.503 5.249-7.174s-1.87-5.24-5.249-7.18m-4.356 12.188c-2.394 1.231-5.56 1.888-8.916 1.888s-6.524-.675-8.917-1.888c-2.534-1.298-3.931-3.078-3.931-5.008s1.416-3.715 3.931-5.018c2.393-1.222 5.56-1.888 8.917-1.888 3.355 0 6.523.68 8.916 1.888 2.53 1.303 3.927 3.082 3.927 5.018s-1.397 3.728-3.927 5.008"/><path fill="#fff" d="M64.541 167.075c-3.535-2.039-8.246-3.162-13.272-3.162-5.027 0-9.738 1.123-13.268 3.162-3.39 1.959-5.254 4.503-5.254 7.18s1.888 5.22 5.254 7.174c3.53 2.034 8.24 3.158 13.268 3.158 5.026 0 9.737-1.124 13.272-3.158 3.38-1.954 5.249-4.503 5.249-7.174s-1.87-5.24-5.249-7.18m-4.356 12.188c-2.394 1.231-5.56 1.888-8.916 1.888s-6.524-.675-8.917-1.888c-2.534-1.298-3.931-3.078-3.931-5.008s1.416-3.715 3.931-5.018c2.393-1.222 5.56-1.888 8.917-1.888 3.355 0 6.523.68 8.916 1.888 2.53 1.303 3.927 3.082 3.927 5.018s-1.397 3.728-3.927 5.008" opacity=".3"/><path fill="#000" d="M59.878 178.668c4.757-2.44 4.757-6.396 0-8.836-4.758-2.44-12.466-2.44-17.224 0-4.757 2.44-4.753 6.396 0 8.836s12.47 2.445 17.224 0" opacity=".2"/><path fill="#F7921E" d="M59.878 178.668c4.757-2.44 4.757-6.396 0-8.836-4.758-2.44-12.466-2.44-17.224 0-4.757 2.44-4.753 6.396 0 8.836s12.47 2.445 17.224 0"/><path fill="#000" d="M59.878 178.668c4.757-2.44 4.757-6.396 0-8.836-4.758-2.44-12.466-2.44-17.224 0-4.757 2.44-4.753 6.396 0 8.836s12.47 2.445 17.224 0" opacity=".45"/><path fill="#F7921E" d="M59.878 171.489c-4.753-2.44-12.466-2.44-17.224 0-1.963 1.01-3.115 2.275-3.455 3.592.34 1.312 1.492 2.582 3.455 3.587 4.758 2.445 12.47 2.445 17.224 0 1.968-1.005 3.12-2.275 3.46-3.587-.34-1.317-1.492-2.582-3.46-3.592"/><path fill="#000" d="M59.878 171.489c-4.753-2.44-12.466-2.44-17.224 0-1.963 1.01-3.115 2.275-3.455 3.592.34 1.312 1.492 2.582 3.455 3.587 4.758 2.445 12.47 2.445 17.224 0 1.968-1.005 3.12-2.275 3.46-3.587-.34-1.317-1.492-2.582-3.46-3.592" opacity=".3"/><path fill="#F7921E" d="M52.42 169.927v1.784l-.609.647-1.128 1.18v-1.86z"/><path fill="#000" d="M52.42 169.927v1.784l-.609.647-1.128 1.18v-1.86z" opacity=".3"/><path fill="#F7921E" d="M50.683 171.678v1.053a10 10 0 0 1-1.732.472 1.85 1.85 0 0 1-.741-.024 2 2 0 0 1-.354-.146c-.43-.26-.5-.638.316-1.11a2.83 2.83 0 0 1 2.511-.245"/><path fill="#000" d="M50.683 171.678v1.053a10 10 0 0 1-1.732.472 1.85 1.85 0 0 1-.741-.024 2 2 0 0 1-.354-.146c-.43-.26-.5-.638.316-1.11a2.83 2.83 0 0 1 2.511-.245" opacity=".45"/><path fill="#F7921E" d="M58.769 176.747v1.544l-1.954 1.109-1.445-.836a7.38 7.38 0 0 1-5.593.251v-1.544l.887-.878-.887.246a5.72 5.72 0 0 1-4.357-.501c-.878-.505-1.283-1.057-1.283-1.628v-1.482l.16-.656-.533-.307v-1.544l1.444.855c-.703.547-1.08 1.109-1.071 1.657 0 .556.43 1.095 1.283 1.585 1.888 1.1 3.776.737 5.504.185 1.605-.524 2.77-1.138 3.696-.605.576.331.4.737-.246 1.11a3.2 3.2 0 0 1-2.751.155l-1.846 1.832q.497.192 1.02.302a7.6 7.6 0 0 0 4.573-.557l1.445.835z"/><path fill="#000" d="M44.137 173.014c0 .557.429 1.095 1.283 1.586 1.888 1.1 3.776.736 5.504.184 1.605-.524 2.77-1.138 3.696-.604.575.33.4.736-.246 1.109a3.2 3.2 0 0 1-2.752.156l-1.845 1.831q.497.192 1.02.302a7.6 7.6 0 0 0 4.573-.538l1.444.836 1.955-1.128v1.543l-1.955 1.109-1.444-.835a7.38 7.38 0 0 1-5.593.25v-1.544l.887-.877-.887.245a5.72 5.72 0 0 1-4.357-.5c-.878-.505-1.284-1.058-1.284-1.629v-1.482l.161-.656" opacity=".2"/><path fill="#000" d="M43.764 170.521v1.544l.533.307c.23-.393.54-.733.911-.996z" opacity=".45"/><path fill="#F7921E" d="M58.443 175.742a1.75 1.75 0 0 1-.146.736l-.977-.566a1.92 1.92 0 0 0 1.109-1.482c.01.424.014 1.269.014 1.312"/><path fill="#000" d="M58.443 175.742a1.75 1.75 0 0 1-.146.736l-.977-.566a1.92 1.92 0 0 0 1.109-1.482c.01.424.014 1.269.014 1.312" opacity=".3"/><path fill="#F7921E" d="m58.443 176.567-1.119-.651a1.88 1.88 0 0 0 1.119-1.709 1 1 0 0 0 0-.146c-.052-.533-.444-1.052-1.25-1.515a5.1 5.1 0 0 0-2.606-.699h-.907q-.64.094-1.265.265a9 9 0 0 0-.59.174c-.278.085-.556.18-.816.265l-.312.108a9.5 9.5 0 0 1-1.732.472 1.8 1.8 0 0 1-.746-.028 1.5 1.5 0 0 1-.349-.146c-.434-.25-.5-.633.316-1.105a2.87 2.87 0 0 1 2.511-.264l1.737-1.751a7.43 7.43 0 0 0-5.239.292l-1.449-.835-1.968 1.137 1.435.944c-.708.543-1.086 1.11-1.076 1.657 0 .557.424 1.095 1.283 1.591 1.888 1.095 3.776.731 5.504.174 1.605-.519 2.77-1.132 3.696-.604.576.335.4.737-.246 1.11a3.19 3.19 0 0 1-2.751.16l-1.85 1.831a6.7 6.7 0 0 0 2.803.435c.964-.067 1.91-.3 2.794-.69l1.445.841 1.949-1.128z"/><path fill="#fff" d="m58.443 176.567-1.119-.651a1.88 1.88 0 0 0 1.119-1.709 1 1 0 0 0 0-.146c-.052-.533-.444-1.052-1.25-1.515a5.1 5.1 0 0 0-2.606-.699h-.907q-.64.094-1.265.265a9 9 0 0 0-.59.174c-.278.085-.556.18-.816.265l-.312.108a9.5 9.5 0 0 1-1.732.472 1.8 1.8 0 0 1-.746-.028 1.5 1.5 0 0 1-.349-.146c-.434-.25-.5-.633.316-1.105a2.87 2.87 0 0 1 2.511-.264l1.737-1.751a7.43 7.43 0 0 0-5.239.292l-1.449-.835-1.968 1.137 1.435.944c-.708.543-1.086 1.11-1.076 1.657 0 .557.424 1.095 1.283 1.591 1.888 1.095 3.776.731 5.504.174 1.605-.519 2.77-1.132 3.696-.604.576.335.4.737-.246 1.11a3.19 3.19 0 0 1-2.751.16l-1.85 1.831a6.7 6.7 0 0 0 2.803.435c.964-.067 1.91-.3 2.794-.69l1.445.841 1.949-1.128z" opacity=".3"/><path fill="#F7921E" d="M55.37 177.04v1.543l1.444.836v-1.544z"/><path fill="#000" d="M55.37 177.04v1.543l1.444.836v-1.544z" opacity=".45"/><path fill="#F5F5F5" d="m43.764 170.521 1.968-1.137 1.449.835-1.435-.604zM48.172 171.942a2.87 2.87 0 0 1 2.511-.264l1.737-1.751-1.737 1.572a2.621 2.621 0 0 0-2.511.443M49.772 177.29a6.7 6.7 0 0 0 2.804.435 6.35 6.35 0 0 1-2.511-.505l1.558-1.761zM55.37 177.04l1.444.651 1.95-.939-1.95 1.123zM38.147 167.335c5.126-3.11 13.122-3.422 13.122-3.422-5.027 0-9.738 1.123-13.268 3.162-3.39 1.959-5.254 4.503-5.254 7.18 0 0 .184-3.748 5.4-6.92M49.772 185.399c5.442.241 11.026-.84 15.19-3.243 4.327-2.497 6.178-5.886 5.55-9.142 0 0 .807 5.31-5.881 8.944s-14.859 3.441-14.859 3.441" opacity=".5"/><path fill="#F7921E" d="M72.357 168.709a12.54 12.54 0 0 0-4.625-4.281c-7.552-4.366-19.824-4.366-27.376 0a12.54 12.54 0 0 0-4.626 4.281h-1.052v3.955c.141 2.752 2.025 5.475 5.664 7.552 7.552 4.366 19.824 4.366 27.376 0 3.634-2.1 5.531-4.824 5.664-7.552v-3.955z"/><path fill="#000" d="M72.357 168.709a12.54 12.54 0 0 0-4.625-4.281c-7.552-4.366-19.824-4.366-27.376 0a12.54 12.54 0 0 0-4.626 4.281h-1.052v3.955c.141 2.752 2.025 5.475 5.664 7.552 7.552 4.366 19.824 4.366 27.376 0 3.634-2.1 5.531-4.824 5.664-7.552v-3.955z" opacity=".25"/><path fill="#000" d="M54.04 161.157c-4.957 0-9.913 1.091-13.689 3.271a12.55 12.55 0 0 0-4.626 4.281h-1.047v3.956c.141 2.751 2.025 5.475 5.664 7.552 3.776 2.185 8.736 3.275 13.688 3.275z" opacity=".1"/><path fill="#000" d="M43.462 162.97a21.4 21.4 0 0 0-3.116 1.458 12.55 12.55 0 0 0-4.625 4.281h-1.043v3.956c.141 2.751 2.025 5.475 5.664 7.552a21.5 21.5 0 0 0 3.115 1.458z" opacity=".1"/><path fill="#F7921E" d="M64.612 162.97a21 21 0 0 1 3.12 1.458 12.55 12.55 0 0 1 4.625 4.281H73.4v3.956c-.136 2.751-2.034 5.475-5.663 7.552a21 21 0 0 1-3.12 1.458z" opacity=".5"/><path fill="#F7921E" d="M67.732 160.803c-7.552-4.366-19.824-4.366-27.376 0s-7.552 11.446 0 15.812 19.824 4.366 27.376 0 7.561-11.446 0-15.812"/><path fill="#000" d="M67.732 160.803c-7.552-4.366-19.824-4.366-27.376 0s-7.552 11.446 0 15.812 19.824 4.366 27.376 0 7.561-11.446 0-15.812" opacity=".2"/><path fill="#F7921E" d="M62.955 163.697c-2.393-1.228-5.56-1.888-8.916-1.888s-6.523.675-8.916 1.888c-2.535 1.298-3.932 3.082-3.932 5.012 0 1.931 1.416 3.715 3.932 5.013 2.393 1.227 5.56 1.888 8.916 1.888s6.523-.68 8.916-1.888c2.535-1.298 3.927-3.078 3.927-5.013s-1.392-3.714-3.927-5.012"/><path fill="#000" d="M62.955 163.697c-2.393-1.228-5.56-1.888-8.916-1.888s-6.523.675-8.916 1.888c-2.535 1.298-3.932 3.082-3.932 5.012 0 1.931 1.416 3.715 3.932 5.013 2.393 1.227 5.56 1.888 8.916 1.888s6.523-.68 8.916-1.888c2.535-1.298 3.927-3.078 3.927-5.013s-1.392-3.714-3.927-5.012" opacity=".4"/><path fill="#F7921E" d="M67.312 161.534c-3.53-2.039-8.246-3.162-13.273-3.162s-9.737 1.123-13.268 3.162c-3.389 1.955-5.253 4.503-5.253 7.175s1.864 5.22 5.253 7.179c3.53 2.034 8.241 3.158 13.268 3.158s9.742-1.124 13.273-3.158c3.38-1.959 5.248-4.508 5.248-7.179s-1.869-5.22-5.248-7.175m-4.357 12.202c-2.393 1.227-5.56 1.888-8.916 1.888s-6.523-.68-8.916-1.888c-2.535-1.298-3.932-3.078-3.932-5.013s1.416-3.715 3.932-5.013c2.393-1.227 5.56-1.888 8.916-1.888s6.523.675 8.916 1.888c2.535 1.298 3.927 3.083 3.927 5.013 0 1.931-1.392 3.701-3.927 5.013"/><path fill="#fff" d="M67.312 161.534c-3.53-2.039-8.246-3.162-13.273-3.162s-9.737 1.123-13.268 3.162c-3.389 1.955-5.253 4.503-5.253 7.175s1.864 5.22 5.253 7.179c3.53 2.034 8.241 3.158 13.268 3.158s9.742-1.124 13.273-3.158c3.38-1.959 5.248-4.508 5.248-7.179s-1.869-5.22-5.248-7.175m-4.357 12.202c-2.393 1.227-5.56 1.888-8.916 1.888s-6.523-.68-8.916-1.888c-2.535-1.298-3.932-3.078-3.932-5.013s1.416-3.715 3.932-5.013c2.393-1.227 5.56-1.888 8.916-1.888s6.523.675 8.916 1.888c2.535 1.298 3.927 3.083 3.927 5.013 0 1.931-1.392 3.701-3.927 5.013" opacity=".3"/><path fill="#000" d="M62.648 173.127c4.758-2.44 4.758-6.396 0-8.836-4.757-2.44-12.465-2.44-17.223 0s-4.753 6.396 0 8.836 12.47 2.44 17.223 0" opacity=".2"/><path fill="#F7921E" d="M62.648 173.127c4.758-2.44 4.758-6.396 0-8.836-4.757-2.44-12.465-2.44-17.223 0s-4.753 6.396 0 8.836 12.47 2.44 17.223 0"/><path fill="#000" d="M62.648 173.127c4.758-2.44 4.758-6.396 0-8.836-4.757-2.44-12.465-2.44-17.223 0s-4.753 6.396 0 8.836 12.47 2.44 17.223 0" opacity=".45"/><path fill="#F7921E" d="M62.648 165.943c-4.753-2.44-12.465-2.44-17.223 0-1.963 1.011-3.115 2.28-3.455 3.592.34 1.317 1.492 2.582 3.455 3.592 4.758 2.441 12.47 2.441 17.223 0 1.969-1.01 3.12-2.275 3.46-3.592-.34-1.312-1.491-2.581-3.46-3.592"/><path fill="#000" d="M62.648 165.943c-4.753-2.44-12.465-2.44-17.223 0-1.963 1.011-3.115 2.28-3.455 3.592.34 1.317 1.492 2.582 3.455 3.592 4.758 2.441 12.47 2.441 17.223 0 1.969-1.01 3.12-2.275 3.46-3.592-.34-1.312-1.491-2.581-3.46-3.592" opacity=".3"/><path fill="#F7921E" d="M55.19 164.386v1.784l-.608.642-1.128 1.185v-1.86z"/><path fill="#000" d="M55.19 164.386v1.784l-.608.642-1.128 1.185v-1.86z" opacity=".3"/><path fill="#F7921E" d="M53.454 166.136v1.053a10 10 0 0 1-1.733.472 1.75 1.75 0 0 1-.74-.029 1.4 1.4 0 0 1-.355-.146c-.429-.255-.5-.637.317-1.109a2.86 2.86 0 0 1 2.51-.241"/><path fill="#000" d="M53.454 166.136v1.053a10 10 0 0 1-1.733.472 1.75 1.75 0 0 1-.74-.029 1.4 1.4 0 0 1-.355-.146c-.429-.255-.5-.637.317-1.109a2.86 2.86 0 0 1 2.51-.241" opacity=".45"/><path fill="#F7921E" d="M61.54 171.206v1.544l-1.955 1.123-1.458-.836a7.35 7.35 0 0 1-5.594.255v-1.543l.888-.878-.888.241a5.7 5.7 0 0 1-4.318-.496c-.878-.505-1.284-1.057-1.28-1.628v-1.501l.156-.656-.533-.312v-1.539l1.444.836c-.703.543-1.076 1.109-1.067 1.652 0 .557.425 1.095 1.28 1.586 1.888 1.1 3.776.736 5.503.184 1.605-.524 2.77-1.138 3.696-.604.576.33.401.731-.246 1.104a3.182 3.182 0 0 1-2.752.161l-1.845 1.831q.497.19 1.02.297a7.6 7.6 0 0 0 4.536-.528l1.458.821z"/><path fill="#000" d="M46.912 167.467c0 .557.425 1.095 1.279 1.586 1.888 1.1 3.776.737 5.503.184 1.605-.524 2.771-1.137 3.696-.604.576.331.401.732-.245 1.105a3.19 3.19 0 0 1-2.752.16l-1.846 1.831q.499.19 1.02.298a7.6 7.6 0 0 0 4.56-.529l1.458.821 1.954-1.128v1.544l-1.954 1.123-1.458-.821a7.35 7.35 0 0 1-5.594.255v-1.544l.888-.878-.888.241a5.7 5.7 0 0 1-4.318-.495c-.878-.506-1.284-1.058-1.28-1.629v-1.501l.156-.656" opacity=".2"/><path fill="#000" d="M46.534 164.98v1.539l.534.312c.228-.402.54-.75.915-1.02z" opacity=".45"/><path fill="#F7921E" d="M61.213 170.201c.006.251-.044.501-.146.731l-.977-.561a1.92 1.92 0 0 0 1.11-1.482c.009.42.013 1.269.013 1.312"/><path fill="#000" d="M61.213 170.201c.006.251-.044.501-.146.731l-.977-.561a1.92 1.92 0 0 0 1.11-1.482c.009.42.013 1.269.013 1.312" opacity=".3"/><path fill="#F7921E" d="m61.214 171.017-1.12-.646a1.89 1.89 0 0 0 1.12-1.714v-.151c-.052-.528-.444-1.047-1.251-1.515a5.16 5.16 0 0 0-2.596-.675h-.921a11 11 0 0 0-1.265.265 12 12 0 0 0-.59.17l-.816.269-.312.103q-.842.334-1.732.496a1.9 1.9 0 0 1-.746-.028 1.6 1.6 0 0 1-.344-.147c-.44-.25-.505-.632.311-1.109a2.85 2.85 0 0 1 2.511-.259l1.737-1.751a7.43 7.43 0 0 0-5.239.287l-1.459-.788-1.968 1.138 1.45.83c-.709.548-1.086 1.114-1.077 1.662 0 .557.425 1.095 1.284 1.586 1.888 1.1 3.776.736 5.508.179 1.6-.524 2.766-1.137 3.691-.604.576.335.401.736-.24 1.109a3.2 3.2 0 0 1-2.757.161l-1.85 1.831q.502.188 1.024.302a6.8 6.8 0 0 0 1.78.128 8.2 8.2 0 0 0 2.78-.647l1.458.821 1.95-1.128z"/><path fill="#fff" d="m61.214 171.017-1.12-.646a1.89 1.89 0 0 0 1.12-1.714v-.151c-.052-.528-.444-1.047-1.251-1.515a5.16 5.16 0 0 0-2.596-.675h-.921a11 11 0 0 0-1.265.265 12 12 0 0 0-.59.17l-.816.269-.312.103q-.842.334-1.732.496a1.9 1.9 0 0 1-.746-.028 1.6 1.6 0 0 1-.344-.147c-.44-.25-.505-.632.311-1.109a2.85 2.85 0 0 1 2.511-.259l1.737-1.751a7.43 7.43 0 0 0-5.239.287l-1.459-.788-1.968 1.138 1.45.83c-.709.548-1.086 1.114-1.077 1.662 0 .557.425 1.095 1.284 1.586 1.888 1.1 3.776.736 5.508.179 1.6-.524 2.766-1.137 3.691-.604.576.335.401.736-.24 1.109a3.2 3.2 0 0 1-2.757.161l-1.85 1.831q.502.188 1.024.302a6.8 6.8 0 0 0 1.78.128 8.2 8.2 0 0 0 2.78-.647l1.458.821 1.95-1.128z" opacity=".3"/><path fill="#F7921E" d="M58.14 171.498v1.539l1.445.835v-1.539z"/><path fill="#000" d="M58.14 171.498v1.539l1.445.835v-1.539z" opacity=".45"/><path fill="#F5F5F5" d="m46.534 164.98 1.968-1.137 1.45.83-1.435-.599zM50.943 166.396a2.87 2.87 0 0 1 2.51-.259l1.738-1.751-1.737 1.571a2.65 2.65 0 0 0-2.511.439M52.543 171.748q.5.19 1.024.302a6.8 6.8 0 0 0 1.78.128 6.3 6.3 0 0 1-2.512-.5l1.558-1.761zM58.14 171.499l1.445.651 1.95-.944-1.95 1.128zM40.918 161.794c5.125-3.115 13.121-3.422 13.121-3.422-5.027 0-9.737 1.123-13.268 3.162-3.389 1.955-5.253 4.503-5.253 7.175 0 0 .184-3.748 5.4-6.915M52.543 179.872c5.442.24 11.026-.841 15.189-3.243 4.328-2.497 6.178-5.886 5.55-9.143 0 0 .812 5.31-5.876 8.945-6.688 3.634-14.863 3.441-14.863 3.441" opacity=".5"/><path fill="#F7921E" d="M70.46 163.295a12.5 12.5 0 0 0-4.626-4.281c-7.552-4.366-19.824-4.366-27.376 0a12.5 12.5 0 0 0-4.625 4.281H32.78v3.955c.137 2.752 2.02 5.475 5.664 7.576 7.552 4.366 19.824 4.366 27.376 0 3.64-2.101 5.532-4.824 5.664-7.576v-3.955z"/><path fill="#000" d="M70.46 163.295a12.5 12.5 0 0 0-4.626-4.281c-7.552-4.366-19.824-4.366-27.376 0a12.5 12.5 0 0 0-4.625 4.281H32.78v3.955c.137 2.752 2.02 5.475 5.664 7.576 7.552 4.366 19.824 4.366 27.376 0 3.64-2.101 5.532-4.824 5.664-7.576v-3.955z" opacity=".25"/><path fill="#000" d="M52.146 155.743c-4.956 0-9.912 1.09-13.688 3.271a12.5 12.5 0 0 0-4.625 4.281H32.78v3.956c.137 2.751 2.02 5.475 5.664 7.575 3.776 2.185 8.737 3.276 13.688 3.276z" opacity=".1"/><path fill="#000" d="M41.569 157.556a21 21 0 0 0-3.115 1.458 12.5 12.5 0 0 0-4.626 4.281H32.78v3.956c.137 2.751 2.02 5.475 5.664 7.575.997.57 2.04 1.058 3.115 1.459z" opacity=".1"/><path fill="#F7921E" d="M62.72 157.556a21.4 21.4 0 0 1 3.114 1.458 12.5 12.5 0 0 1 4.626 4.281h1.048v3.956c-.142 2.751-2.034 5.475-5.664 7.575a21.4 21.4 0 0 1-3.115 1.459z" opacity=".5"/><path fill="#F7921E" d="M65.834 155.389c-7.552-4.366-19.824-4.366-27.376 0s-7.552 11.446 0 15.812 19.824 4.366 27.376 0 7.562-11.446 0-15.812"/><path fill="#000" d="M65.834 155.389c-7.552-4.366-19.824-4.366-27.376 0s-7.552 11.446 0 15.812 19.824 4.366 27.376 0 7.562-11.446 0-15.812" opacity=".2"/><path fill="#F7921E" d="M61.062 158.283c-2.397-1.228-5.56-1.888-8.92-1.888s-6.524.674-8.912 1.888c-2.54 1.298-3.931 3.082-3.931 5.012 0 1.931 1.416 3.715 3.931 5.013 2.389 1.227 5.556 1.888 8.912 1.888 3.355 0 6.523-.68 8.92-1.888 2.53-1.298 3.927-3.078 3.927-5.013s-1.397-3.719-3.927-5.012"/><path fill="#000" d="M61.062 158.283c-2.397-1.228-5.56-1.888-8.92-1.888s-6.524.674-8.912 1.888c-2.54 1.298-3.931 3.082-3.931 5.012 0 1.931 1.416 3.715 3.931 5.013 2.389 1.227 5.556 1.888 8.912 1.888 3.355 0 6.523-.68 8.92-1.888 2.53-1.298 3.927-3.078 3.927-5.013s-1.397-3.719-3.927-5.012" opacity=".4"/><path fill="#F7921E" d="M65.414 156.121c-3.511-2.039-8.231-3.153-13.272-3.153s-9.738 1.123-13.268 3.162c-3.39 1.954-5.249 4.503-5.249 7.175s1.846 5.21 5.249 7.169c3.53 2.035 8.24 3.158 13.268 3.158 5.026 0 9.742-1.123 13.272-3.158 3.385-1.959 5.249-4.507 5.249-7.179 0-2.671-1.864-5.22-5.249-7.174m-4.352 12.187c-2.397 1.227-5.56 1.888-8.92 1.888s-6.523-.68-8.912-1.888c-2.539-1.298-3.931-3.078-3.931-5.013s1.416-3.715 3.931-5.013c2.389-1.227 5.556-1.888 8.912-1.888s6.523.675 8.92 1.888c2.53 1.298 3.928 3.083 3.928 5.013 0 1.931-1.398 3.715-3.927 5.013"/><path fill="#fff" d="M65.414 156.121c-3.511-2.039-8.231-3.153-13.272-3.153s-9.738 1.123-13.268 3.162c-3.39 1.954-5.249 4.503-5.249 7.175s1.846 5.21 5.249 7.169c3.53 2.035 8.24 3.158 13.268 3.158 5.026 0 9.742-1.123 13.272-3.158 3.385-1.959 5.249-4.507 5.249-7.179 0-2.671-1.864-5.22-5.249-7.174m-4.352 12.187c-2.397 1.227-5.56 1.888-8.92 1.888s-6.523-.68-8.912-1.888c-2.539-1.298-3.931-3.078-3.931-5.013s1.416-3.715 3.931-5.013c2.389-1.227 5.556-1.888 8.912-1.888s6.523.675 8.92 1.888c2.53 1.298 3.928 3.083 3.928 5.013 0 1.931-1.398 3.715-3.927 5.013" opacity=".3"/><path fill="#000" d="M60.756 167.713c4.757-2.441 4.757-6.396 0-8.836-4.758-2.44-12.466-2.445-17.224 0-4.757 2.445-4.757 6.395 0 8.836 4.758 2.44 12.466 2.44 17.224 0" opacity=".2"/><path fill="#F7921E" d="M60.756 167.713c4.757-2.441 4.757-6.396 0-8.836-4.758-2.44-12.466-2.445-17.224 0-4.757 2.445-4.757 6.395 0 8.836 4.758 2.44 12.466 2.44 17.224 0"/><path fill="#000" d="M60.756 167.713c4.757-2.441 4.757-6.396 0-8.836-4.758-2.44-12.466-2.445-17.224 0-4.757 2.445-4.757 6.395 0 8.836 4.758 2.44 12.466 2.44 17.224 0" opacity=".45"/><path fill="#F7921E" d="M60.756 160.52c-4.758-2.441-12.466-2.441-17.224 0-1.968 1.01-3.12 2.279-3.46 3.592.34 1.316 1.492 2.581 3.46 3.591 4.758 2.441 12.466 2.441 17.224 0 1.968-1.01 3.115-2.275 3.46-3.591-.345-1.303-1.492-2.573-3.46-3.592"/><path fill="#000" d="M60.756 160.52c-4.758-2.441-12.466-2.441-17.224 0-1.968 1.01-3.12 2.279-3.46 3.592.34 1.316 1.492 2.581 3.46 3.591 4.758 2.441 12.466 2.441 17.224 0 1.968-1.01 3.115-2.275 3.46-3.591-.345-1.303-1.492-2.573-3.46-3.592" opacity=".3"/><path fill="#F7921E" d="M53.298 158.972v1.784l-.609.646-1.128 1.18v-1.859z"/><path fill="#000" d="M53.298 158.972v1.784l-.609.646-1.128 1.18v-1.859z" opacity=".3"/><path fill="#F7921E" d="M51.561 160.723v1.053q-.848.314-1.737.472a1.75 1.75 0 0 1-.741-.029 1.5 1.5 0 0 1-.354-.146c-.43-.255-.472-.637.321-1.109a2.86 2.86 0 0 1 2.511-.241"/><path fill="#000" d="M51.561 160.723v1.053q-.848.314-1.737.472a1.75 1.75 0 0 1-.741-.029 1.5 1.5 0 0 1-.354-.146c-.43-.255-.472-.637.321-1.109a2.86 2.86 0 0 1 2.511-.241" opacity=".45"/><path fill="#F7921E" d="M59.642 165.792v1.544l-1.95 1.123-1.453-.835a7.35 7.35 0 0 1-5.594.255v-1.544l.874-.882-.888.245a5.7 5.7 0 0 1-4.356-.496c-.873-.505-1.28-1.057-1.28-1.628v-1.501l.161-.656-.533-.312v-1.529l1.444.836c-.708.542-1.08 1.109-1.071 1.652 0 .557.424 1.095 1.279 1.586 1.888 1.099 3.776.736 5.508.184 1.6-.524 2.77-1.138 3.696-.605.57.331.396.732-.246 1.105a3.19 3.19 0 0 1-2.751.16l-1.85 1.832a6.6 6.6 0 0 0 1.024.297 7.6 7.6 0 0 0 4.583-.538l1.449.835z"/><path fill="#000" d="M45.015 162.054c0 .557.424 1.095 1.279 1.586 1.888 1.1 3.776.736 5.508.184 1.6-.524 2.77-1.137 3.696-.604.57.33.396.732-.246 1.105a3.19 3.19 0 0 1-2.752.16l-1.85 1.831q.5.19 1.024.298a7.6 7.6 0 0 0 4.565-.529l1.449.836 1.949-1.129v1.544l-1.95 1.123-1.448-.835a7.35 7.35 0 0 1-5.594.255v-1.544l.874-.882-.888.245a5.7 5.7 0 0 1-4.356-.496c-.873-.505-1.28-1.057-1.28-1.628v-1.501l.161-.656" opacity=".2"/><path fill="#000" d="M44.642 159.576v1.539l.533.311c.227-.403.54-.751.916-1.019z" opacity=".45"/><path fill="#F7921E" d="M59.32 164.767c.005.253-.045.504-.145.737l-.977-.562a1.93 1.93 0 0 0 1.109-1.482z"/><path fill="#000" d="M59.32 164.767c.005.253-.045.504-.145.737l-.977-.562a1.93 1.93 0 0 0 1.109-1.482z" opacity=".3"/><path fill="#F7921E" d="m59.316 165.603-1.119-.647a1.89 1.89 0 0 0 1.12-1.713v-.151c-.048-.529-.44-1.048-1.247-1.515a5.15 5.15 0 0 0-2.6-.675h-.921q-.638.094-1.26.264-.3.078-.59.17l-.822.269-.306.104q-.842.332-1.733.496a1.9 1.9 0 0 1-.745-.029 1.6 1.6 0 0 1-.35-.146c-.434-.25-.505-.633.316-1.109a2.85 2.85 0 0 1 2.512-.26l1.736-1.751a7.44 7.44 0 0 0-5.243.288l-1.445-.831-1.977 1.209 1.444.83c-.708.548-1.081 1.114-1.072 1.662 0 .557.425 1.095 1.28 1.586 1.888 1.099 3.776.736 5.508.179 1.6-.524 2.766-1.138 3.69-.604.577.335.402.736-.24 1.109a3.19 3.19 0 0 1-2.752.16l-1.85 1.832a7.5 7.5 0 0 0 1.02.302 6.8 6.8 0 0 0 1.784.127 8.2 8.2 0 0 0 2.785-.675l1.449.836 1.949-1.128z"/><path fill="#fff" d="m59.316 165.603-1.119-.647a1.89 1.89 0 0 0 1.12-1.713v-.151c-.048-.529-.44-1.048-1.247-1.515a5.15 5.15 0 0 0-2.6-.675h-.921q-.638.094-1.26.264-.3.078-.59.17l-.822.269-.306.104q-.842.332-1.733.496a1.9 1.9 0 0 1-.745-.029 1.6 1.6 0 0 1-.35-.146c-.434-.25-.505-.633.316-1.109a2.85 2.85 0 0 1 2.512-.26l1.736-1.751a7.44 7.44 0 0 0-5.243.288l-1.445-.831-1.977 1.209 1.444.83c-.708.548-1.081 1.114-1.072 1.662 0 .557.425 1.095 1.28 1.586 1.888 1.099 3.776.736 5.508.179 1.6-.524 2.766-1.138 3.69-.604.577.335.402.736-.24 1.109a3.19 3.19 0 0 1-2.752.16l-1.85 1.832a7.5 7.5 0 0 0 1.02.302 6.8 6.8 0 0 0 1.784.127 8.2 8.2 0 0 0 2.785-.675l1.449.836 1.949-1.128z" opacity=".3"/><path fill="#F7921E" d="M56.243 166.085v1.543l1.45.831v-1.539z"/><path fill="#000" d="M56.243 166.085v1.543l1.45.831v-1.539z" opacity=".45"/><path fill="#F5F5F5" d="m44.642 159.566 1.968-1.137 1.444.83-1.43-.599zM49.05 160.992a2.85 2.85 0 0 1 2.511-.259l1.737-1.752-1.737 1.572a2.65 2.65 0 0 0-2.511.439M50.65 166.335q.499.188 1.02.302a6.8 6.8 0 0 0 1.784.128 6.3 6.3 0 0 1-2.511-.501l1.557-1.76zM56.243 166.085l1.45.651 1.949-.944-1.95 1.128zM39.025 156.38c5.126-3.115 13.117-3.422 13.117-3.422-5.027 0-9.738 1.123-13.268 3.162-3.39 1.954-5.249 4.503-5.249 7.175 0 0 .184-3.748 5.4-6.915M50.65 174.444c5.442.241 11.026-.84 15.184-3.243 4.329-2.497 6.179-5.886 5.556-9.142 0 0 .807 5.31-5.881 8.944s-14.859 3.441-14.859 3.441" opacity=".5"/><path fill="#F7921E" d="M67.132 157.518a12.54 12.54 0 0 0-4.625-4.277c-7.552-4.366-19.824-4.366-27.376 0a12.47 12.47 0 0 0-4.626 4.277h-1.057v3.946c.142 2.751 2.025 5.479 5.664 7.575 7.552 4.366 19.824 4.366 27.376 0 3.634-2.096 5.532-4.824 5.664-7.575v-3.956z"/><path fill="#000" d="M67.132 157.518a12.54 12.54 0 0 0-4.625-4.277c-7.552-4.366-19.824-4.366-27.376 0a12.47 12.47 0 0 0-4.626 4.277h-1.057v3.946c.142 2.751 2.025 5.479 5.664 7.575 7.552 4.366 19.824 4.366 27.376 0 3.634-2.096 5.532-4.824 5.664-7.575v-3.956z" opacity=".25"/><path fill="#000" d="M48.814 149.966c-4.956 0-9.912 1.09-13.688 3.275a12.47 12.47 0 0 0-4.626 4.277h-1.052v3.946c.142 2.751 2.025 5.48 5.664 7.575 3.776 2.186 8.737 3.276 13.688 3.276z" opacity=".1"/><path fill="#000" d="M38.237 151.783c-1.077.4-2.119.888-3.116 1.459a12.46 12.46 0 0 0-4.625 4.276h-1.048v3.946c.142 2.752 2.025 5.48 5.664 7.576a21 21 0 0 0 3.115 1.463z" opacity=".1"/><path fill="#F7921E" d="M59.387 151.783c1.078.399 2.122.887 3.12 1.459a12.5 12.5 0 0 1 4.625 4.276h1.043v3.946c-.136 2.752-2.034 5.48-5.664 7.576a21 21 0 0 1-3.12 1.463z" opacity=".5"/><path fill="#F7921E" d="M62.507 149.616c-7.552-4.366-19.824-4.366-27.376 0s-7.552 11.442 0 15.808 19.824 4.366 27.376 0 7.561-11.442 0-15.808"/><path fill="#000" d="M62.507 149.616c-7.552-4.366-19.824-4.366-27.376 0s-7.552 11.442 0 15.808 19.824 4.366 27.376 0 7.561-11.442 0-15.808" opacity=".2"/><path fill="#F7921E" d="M57.73 152.495c-2.398-1.227-5.56-1.888-8.916-1.888s-6.523.675-8.916 1.888c-2.535 1.298-3.932 3.078-3.932 5.013s1.416 3.71 3.932 5.008c2.393 1.232 5.56 1.888 8.916 1.888s6.518-.675 8.916-1.888c2.53-1.298 3.927-3.077 3.927-5.008 0-1.93-1.397-3.7-3.927-5.013"/><path fill="#000" d="M57.73 152.495c-2.398-1.227-5.56-1.888-8.916-1.888s-6.523.675-8.916 1.888c-2.535 1.298-3.932 3.078-3.932 5.013s1.416 3.71 3.932 5.008c2.393 1.232 5.56 1.888 8.916 1.888s6.518-.675 8.916-1.888c2.53-1.298 3.927-3.077 3.927-5.008 0-1.93-1.397-3.7-3.927-5.013" opacity=".4"/><path fill="#F7921E" d="M62.082 150.348c-3.53-2.044-8.241-3.167-13.268-3.167s-9.737 1.123-13.268 3.167c-3.38 1.954-5.267 4.507-5.267 7.174s1.864 5.221 5.253 7.175c3.53 2.034 8.241 3.157 13.268 3.157s9.737-1.123 13.268-3.157c3.384-1.954 5.253-4.503 5.253-7.175s-1.855-5.22-5.24-7.174M57.73 162.53c-2.398 1.232-5.56 1.888-8.916 1.888s-6.523-.675-8.916-1.888c-2.535-1.298-3.932-3.077-3.932-5.008 0-1.93 1.416-3.714 3.932-5.012 2.393-1.228 5.56-1.888 8.916-1.888s6.518.675 8.916 1.888c2.53 1.298 3.927 3.077 3.927 5.012s-1.397 3.71-3.927 5.008"/><path fill="#fff" d="M62.082 150.348c-3.53-2.044-8.241-3.167-13.268-3.167s-9.737 1.123-13.268 3.167c-3.38 1.954-5.267 4.507-5.267 7.174s1.864 5.221 5.253 7.175c3.53 2.034 8.241 3.157 13.268 3.157s9.737-1.123 13.268-3.157c3.384-1.954 5.253-4.503 5.253-7.175s-1.855-5.22-5.24-7.174M57.73 162.53c-2.398 1.232-5.56 1.888-8.916 1.888s-6.523-.675-8.916-1.888c-2.535-1.298-3.932-3.077-3.932-5.008 0-1.93 1.416-3.714 3.932-5.012 2.393-1.228 5.56-1.888 8.916-1.888s6.518.675 8.916 1.888c2.53 1.298 3.927 3.077 3.927 5.012s-1.397 3.71-3.927 5.008" opacity=".3"/><path fill="#000" d="M57.423 161.935c4.758-2.44 4.758-6.4 0-8.84-4.757-2.44-12.465-2.44-17.223 0s-4.73 6.4-.01 8.84c4.72 2.441 12.48 2.445 17.233 0" opacity=".2"/><path fill="#F7921E" d="M57.423 161.935c4.758-2.44 4.758-6.4 0-8.84-4.757-2.44-12.465-2.44-17.223 0s-4.73 6.4-.01 8.84c4.72 2.441 12.48 2.445 17.233 0"/><path fill="#000" d="M57.423 161.935c4.758-2.44 4.758-6.4 0-8.84-4.757-2.44-12.465-2.44-17.223 0s-4.73 6.4-.01 8.84c4.72 2.441 12.48 2.445 17.233 0" opacity=".45"/><path fill="#F7921E" d="M57.423 154.757c-4.753-2.44-12.465-2.44-17.223 0-1.964 1.01-3.115 2.275-3.455 3.592.34 1.312 1.492 2.582 3.455 3.592 4.758 2.44 12.47 2.44 17.223 0 1.969-1.01 3.12-2.28 3.46-3.592-.34-1.317-1.491-2.582-3.46-3.592"/><path fill="#000" d="M57.423 154.757c-4.753-2.44-12.465-2.44-17.223 0-1.964 1.01-3.115 2.275-3.455 3.592.34 1.312 1.492 2.582 3.455 3.592 4.758 2.44 12.47 2.44 17.223 0 1.969-1.01 3.12-2.28 3.46-3.592-.34-1.317-1.491-2.582-3.46-3.592" opacity=".3"/><path fill="#F7921E" d="M49.966 153.194v1.784l-.61.647-1.127 1.18v-1.86z"/><path fill="#000" d="M49.966 153.194v1.784l-.61.647-1.127 1.18v-1.86z" opacity=".3"/><path fill="#F7921E" d="M48.215 154.945v1.053q-.845.325-1.733.495a1.6 1.6 0 0 1-1.1-.174c-.429-.26-.5-.637.317-1.109a2.86 2.86 0 0 1 2.516-.265"/><path fill="#000" d="M48.215 154.945v1.053q-.845.325-1.733.495a1.6 1.6 0 0 1-1.1-.174c-.429-.26-.5-.637.317-1.109a2.86 2.86 0 0 1 2.516-.265" opacity=".45"/><path fill="#F7921E" d="M56.314 160.015v1.543l-1.963 1.128-1.416-.835a7.36 7.36 0 0 1-5.594.25v-1.544l.874-.878-.888.246a5.72 5.72 0 0 1-4.356-.5c-.878-.505-1.284-1.058-1.284-1.629V156.3l.16-.656-.538-.316v-1.544l1.445.836c-.704.547-1.081 1.109-1.072 1.656 0 .553.43 1.091 1.284 1.586 1.888 1.095 3.776.732 5.503.18 1.605-.524 2.771-1.138 3.696-.605.576.331.401.737-.245 1.11a3.22 3.22 0 0 1-2.752.16l-1.846 1.827q.497.194 1.02.302a7.6 7.6 0 0 0 4.593-.529l1.416.836z"/><path fill="#000" d="M41.682 156.271c0 .553.43 1.091 1.284 1.586 1.888 1.095 3.776.732 5.503.18 1.605-.524 2.771-1.138 3.696-.605.576.331.401.737-.245 1.11a3.22 3.22 0 0 1-2.752.16l-1.846 1.827q.497.193 1.02.302a7.6 7.6 0 0 0 4.593-.524l1.416.835 1.954-1.128v1.544l-1.954 1.128-1.416-.836a7.35 7.35 0 0 1-5.594.251v-1.544l.874-.878-.888.246a5.72 5.72 0 0 1-4.356-.501c-.878-.505-1.284-1.057-1.284-1.628V156.3l.16-.656" opacity=".2"/><path fill="#000" d="M41.31 153.789v1.539l.533.311c.224-.405.537-.755.915-1.024z" opacity=".45"/><path fill="#F7921E" d="M55.988 159.009c.003.253-.047.504-.146.736l-.977-.561a1.93 1.93 0 0 0 1.11-1.496c.009.434.013 1.279.013 1.321"/><path fill="#000" d="M55.988 159.009c.003.253-.047.504-.146.736l-.977-.561a1.93 1.93 0 0 0 1.11-1.496c.009.434.013 1.279.013 1.321" opacity=".3"/><path fill="#F7921E" d="m55.988 159.83-1.118-.651a1.89 1.89 0 0 0 1.118-1.713 1 1 0 0 0 0-.147c-.047-.533-.439-1.052-1.246-1.515a5.1 5.1 0 0 0-2.6-.679h-.916a10 10 0 0 0-1.265.259c-.198.052-.396.114-.59.175-.283.085-.557.179-.817.264l-.311.109a9.6 9.6 0 0 1-1.732.472 1.7 1.7 0 0 1-.746-.029 1.4 1.4 0 0 1-.35-.146c-.434-.25-.5-.632.317-1.104a2.86 2.86 0 0 1 2.51-.265l1.738-1.751a7.43 7.43 0 0 0-5.24.293l-1.448-.836-1.969 1.138 1.45.835c-.709.543-1.086 1.11-1.077 1.657 0 .557.425 1.095 1.284 1.591 1.888 1.095 3.776.731 5.504.179 1.604-.524 2.77-1.137 3.695-.609.576.335.402.737-.245 1.109a3.2 3.2 0 0 1-2.752.161l-1.85 1.836q.502.186 1.024.297c.57.153 1.157.231 1.747.232a8.2 8.2 0 0 0 2.832-.685l1.416.84 1.949-1.128z"/><path fill="#fff" d="m55.988 159.83-1.118-.651a1.89 1.89 0 0 0 1.118-1.713 1 1 0 0 0 0-.147c-.047-.533-.439-1.052-1.246-1.515a5.1 5.1 0 0 0-2.6-.679h-.916a10 10 0 0 0-1.265.259c-.198.052-.396.114-.59.175-.283.085-.557.179-.817.264l-.311.109a9.6 9.6 0 0 1-1.732.472 1.7 1.7 0 0 1-.746-.029 1.4 1.4 0 0 1-.35-.146c-.434-.25-.5-.632.317-1.104a2.86 2.86 0 0 1 2.51-.265l1.738-1.751a7.43 7.43 0 0 0-5.24.293l-1.448-.836-1.969 1.138 1.45.835c-.709.543-1.086 1.11-1.077 1.657 0 .557.425 1.095 1.284 1.591 1.888 1.095 3.776.731 5.504.179 1.604-.524 2.77-1.137 3.695-.609.576.335.402.737-.245 1.109a3.2 3.2 0 0 1-2.752.161l-1.85 1.836q.502.186 1.024.297c.57.153 1.157.231 1.747.232a8.2 8.2 0 0 0 2.832-.685l1.416.84 1.949-1.128z" opacity=".3"/><path fill="#F7921E" d="M52.916 160.308v1.543l1.444.836v-1.544z"/><path fill="#000" d="M52.916 160.308v1.543l1.444.836v-1.544z" opacity=".45"/><path fill="#F5F5F5" d="m41.31 153.789 1.967-1.138 1.45.836-1.435-.6zM45.718 155.21a2.858 2.858 0 0 1 2.511-.265l1.737-1.751-1.751 1.572a2.62 2.62 0 0 0-2.497.444M47.318 160.563q.502.185 1.024.297c.578.121 1.17.165 1.76.132a6.2 6.2 0 0 1-2.51-.505l1.566-1.76zM52.916 160.307l1.444.652 1.95-.939-1.95 1.123zM35.692 150.607c5.126-3.115 13.122-3.426 13.122-3.426-5.027 0-9.737 1.123-13.268 3.167-3.38 1.954-5.267 4.507-5.267 7.174 0 0 .198-3.747 5.413-6.915M47.318 168.667c5.442.24 11.026-.841 15.189-3.243 4.323-2.497 6.178-5.886 5.55-9.143 0 0 .808 5.31-5.88 8.968-6.689 3.658-14.86 3.418-14.86 3.418" opacity=".5"/><path fill="#F7921E" d="M68.983 151.269a12.47 12.47 0 0 0-4.626-4.277c-7.552-4.366-19.824-4.366-27.376 0a12.54 12.54 0 0 0-4.626 4.277h-1.033v3.955c.137 2.752 2.02 5.48 5.664 7.58 7.552 4.366 19.824 4.366 27.376 0 3.634-2.1 5.532-4.828 5.664-7.58v-3.955z"/><path fill="#000" d="M68.983 151.269a12.47 12.47 0 0 0-4.626-4.277c-7.552-4.366-19.824-4.366-27.376 0a12.54 12.54 0 0 0-4.626 4.277h-1.033v3.955c.137 2.752 2.02 5.48 5.664 7.58 7.552 4.366 19.824 4.366 27.376 0 3.634-2.1 5.532-4.828 5.664-7.58v-3.955z" opacity=".25"/><path fill="#000" d="M50.683 143.717c-4.956 0-9.912 1.09-13.688 3.275a12.54 12.54 0 0 0-4.625 4.277h-1.048v3.955c.137 2.752 2.02 5.48 5.664 7.58 3.776 2.181 8.736 3.271 13.688 3.271z" opacity=".1"/><path fill="#000" d="M40.11 145.534a21 21 0 0 0-3.12 1.459 12.5 12.5 0 0 0-4.625 4.276h-1.043v3.955c.137 2.752 2.02 5.48 5.664 7.581a21.3 21.3 0 0 0 3.12 1.458z" opacity=".1"/><path fill="#F7921E" d="M61.26 145.534q1.617.604 3.116 1.459A12.45 12.45 0 0 1 69 151.269h1.048v3.955c-.141 2.752-2.039 5.48-5.664 7.581a21.5 21.5 0 0 1-3.115 1.458z" opacity=".5"/><path fill="#F7921E" d="M64.376 143.367c-7.552-4.366-19.824-4.366-27.376 0s-7.552 11.442 0 15.808 19.824 4.366 27.376 0 7.561-11.442 0-15.808"/><path fill="#000" d="M64.376 143.367c-7.552-4.366-19.824-4.366-27.376 0s-7.552 11.442 0 15.808 19.824 4.366 27.376 0 7.561-11.442 0-15.808" opacity=".2"/><path fill="#F7921E" d="M59.6 146.261c-2.394-1.227-5.561-1.888-8.917-1.888s-6.523.675-8.916 1.888c-2.52 1.298-3.936 3.082-3.936 5.013 0 1.93 1.416 3.71 3.931 5.008 2.393 1.232 5.56 1.888 8.916 1.888s6.523-.675 8.917-1.888c2.534-1.298 3.927-3.078 3.927-5.008s-1.388-3.715-3.923-5.013"/><path fill="#000" d="M59.6 146.261c-2.394-1.227-5.561-1.888-8.917-1.888s-6.523.675-8.916 1.888c-2.52 1.298-3.936 3.082-3.936 5.013 0 1.93 1.416 3.71 3.931 5.008 2.393 1.232 5.56 1.888 8.916 1.888s6.523-.675 8.917-1.888c2.534-1.298 3.927-3.078 3.927-5.008s-1.388-3.715-3.923-5.013" opacity=".4"/><path fill="#F7921E" d="M63.956 144.099c-3.53-2.039-8.246-3.167-13.273-3.167s-9.737 1.128-13.268 3.167c-3.389 1.954-5.248 4.498-5.248 7.174s1.86 5.22 5.248 7.175c3.53 2.034 8.241 3.162 13.268 3.162s9.742-1.128 13.273-3.162c3.384-1.955 5.248-4.503 5.248-7.175s-1.864-5.22-5.248-7.174m-4.357 12.173c-2.393 1.232-5.56 1.888-8.916 1.888s-6.523-.675-8.916-1.888c-2.52-1.289-3.936-3.068-3.936-4.999s1.416-3.714 3.931-5.012c2.393-1.228 5.56-1.888 8.917-1.888 3.355 0 6.523.674 8.915 1.888 2.535 1.298 3.928 3.082 3.928 5.012 0 1.931-1.388 3.71-3.923 4.999"/><path fill="#fff" d="M63.956 144.099c-3.53-2.039-8.246-3.167-13.273-3.167s-9.737 1.128-13.268 3.167c-3.389 1.954-5.248 4.498-5.248 7.174s1.86 5.22 5.248 7.175c3.53 2.034 8.241 3.162 13.268 3.162s9.742-1.128 13.273-3.162c3.384-1.955 5.248-4.503 5.248-7.175s-1.864-5.22-5.248-7.174m-4.357 12.173c-2.393 1.232-5.56 1.888-8.916 1.888s-6.523-.675-8.916-1.888c-2.52-1.289-3.936-3.068-3.936-4.999s1.416-3.714 3.931-5.012c2.393-1.228 5.56-1.888 8.917-1.888 3.355 0 6.523.674 8.915 1.888 2.535 1.298 3.928 3.082 3.928 5.012 0 1.931-1.388 3.71-3.923 4.999" opacity=".3"/><path fill="#000" d="M59.297 155.692c4.753-2.441 4.753-6.401 0-8.841s-12.47-2.44-17.218-.019c-4.749 2.422-4.758 6.401 0 8.841 4.757 2.44 12.46 2.459 17.218.019" opacity=".2"/><path fill="#F7921E" d="M59.297 155.692c4.753-2.441 4.753-6.401 0-8.841s-12.47-2.44-17.218-.019c-4.749 2.422-4.758 6.401 0 8.841 4.757 2.44 12.46 2.459 17.218.019"/><path fill="#000" d="M59.297 155.692c4.753-2.441 4.753-6.401 0-8.841s-12.47-2.44-17.218-.019c-4.749 2.422-4.758 6.401 0 8.841 4.757 2.44 12.46 2.459 17.218.019" opacity=".45"/><path fill="#F7921E" d="M59.297 148.507c-4.758-2.44-12.47-2.44-17.223 0-1.968 1.01-3.12 2.28-3.46 3.592.34 1.312 1.492 2.582 3.46 3.592 4.753 2.44 12.465 2.44 17.223 0 1.964-1.01 3.115-2.28 3.455-3.592-.34-1.312-1.491-2.582-3.455-3.592"/><path fill="#000" d="M59.297 148.507c-4.758-2.44-12.47-2.44-17.223 0-1.968 1.01-3.12 2.28-3.46 3.592.34 1.312 1.492 2.582 3.46 3.592 4.753 2.44 12.465 2.44 17.223 0 1.964-1.01 3.115-2.28 3.455-3.592-.34-1.312-1.491-2.582-3.455-3.592" opacity=".3"/><path fill="#F7921E" d="M51.835 146.945v1.789l-.61.642-1.123 1.18v-1.86z"/><path fill="#000" d="M51.835 146.945v1.789l-.61.642-1.123 1.18v-1.86z" opacity=".3"/><path fill="#F7921E" d="M50.103 148.72v1.052q-.842.33-1.733.496a1.9 1.9 0 0 1-.74-.029 1.7 1.7 0 0 1-.355-.146c-.43-.255-.5-.637.321-1.109a2.822 2.822 0 0 1 2.506-.264"/><path fill="#000" d="M50.103 148.72v1.052q-.842.33-1.733.496a1.9 1.9 0 0 1-.74-.029 1.7 1.7 0 0 1-.355-.146c-.43-.255-.5-.637.321-1.109a2.822 2.822 0 0 1 2.506-.264" opacity=".45"/><path fill="#F7921E" d="M58.183 153.77v1.558l-1.944 1.109-1.445-.835a7.36 7.36 0 0 1-5.593.25v-1.539l.901-.873-.887.245a5.69 5.69 0 0 1-4.356-.5c-.878-.505-1.284-1.057-1.28-1.624v-1.5l.156-.657-.533-.311v-1.553l1.449.835c-.708.548-1.08 1.11-1.072 1.657 0 .552.425 1.091 1.28 1.586 1.888 1.095 3.776.732 5.508.179 1.6-.523 2.77-1.137 3.69-.604.577.331.402.737-.24 1.11a3.23 3.23 0 0 1-2.77.193l-1.846 1.831q.499.186 1.02.298a7.6 7.6 0 0 0 4.573-.552l1.445.821z"/><path fill="#000" d="M43.556 150.032c0 .552.425 1.09 1.279 1.586 1.888 1.095 3.776.732 5.508.179 1.6-.524 2.77-1.137 3.691-.604.576.331.401.736-.24 1.109a3.23 3.23 0 0 1-2.747.194l-1.846 1.831q.499.186 1.02.298a7.6 7.6 0 0 0 4.573-.553l1.445.822 1.954-1.124v1.558l-1.954 1.109-1.445-.835a7.36 7.36 0 0 1-5.593.25v-1.539l.901-.873-.887.245a5.69 5.69 0 0 1-4.356-.5c-.878-.505-1.284-1.057-1.28-1.624v-1.501l.156-.656" opacity=".2"/><path fill="#000" d="M43.178 147.54v1.543l.534.312a3.1 3.1 0 0 1 .915-1.024z" opacity=".45"/><path fill="#F7921E" d="M57.862 152.76c.003.253-.047.504-.146.737l-.977-.562a1.92 1.92 0 0 0 1.11-1.487z"/><path fill="#000" d="M57.862 152.76c.003.253-.047.504-.146.737l-.977-.562a1.92 1.92 0 0 0 1.11-1.487z" opacity=".3"/><path fill="#F7921E" d="m57.858 153.581-1.12-.646a1.89 1.89 0 0 0 1.12-1.714q.003-.075 0-.151c-.048-.533-.44-1.052-1.251-1.515a5.1 5.1 0 0 0-2.596-.679h-.482l-.203.023h-.236a11 11 0 0 0-1.855.434c-.278.085-.556.18-.816.265a4 4 0 0 1-.312.108 10 10 0 0 1-1.732.496c-.246.042-.5.031-.74-.033a1.5 1.5 0 0 1-.35-.142c-.44-.255-.505-.637.311-1.109a2.85 2.85 0 0 1 2.507-.198l1.741-1.751a7.47 7.47 0 0 0-5.244.292l-1.444-.83-1.973 1.132 1.45.836c-.709.547-1.087 1.114-1.077 1.657 0 .557.43 1.095 1.284 1.59 1.888 1.1 3.776.737 5.508.18 1.6-.524 2.766-1.138 3.691-.605.576.331.401.732-.24 1.105a3.17 3.17 0 0 1-2.752.17l-1.846 1.836a6.764 6.764 0 0 0 2.804.429 8.2 8.2 0 0 0 2.79-.684l1.444.821 1.954-1.128z"/><path fill="#fff" d="m57.858 153.581-1.12-.646a1.89 1.89 0 0 0 1.12-1.714q.003-.075 0-.151c-.048-.533-.44-1.052-1.251-1.515a5.1 5.1 0 0 0-2.596-.679h-.482l-.203.023h-.236a11 11 0 0 0-1.855.434c-.278.085-.556.18-.816.265a4 4 0 0 1-.312.108 10 10 0 0 1-1.732.496c-.246.042-.5.031-.74-.033a1.5 1.5 0 0 1-.35-.142c-.44-.255-.505-.637.311-1.109a2.85 2.85 0 0 1 2.507-.198l1.741-1.751a7.47 7.47 0 0 0-5.244.292l-1.444-.83-1.973 1.132 1.45.836c-.709.547-1.087 1.114-1.077 1.657 0 .557.43 1.095 1.284 1.59 1.888 1.1 3.776.737 5.508.18 1.6-.524 2.766-1.138 3.691-.605.576.331.401.732-.24 1.105a3.17 3.17 0 0 1-2.752.17l-1.846 1.836a6.764 6.764 0 0 0 2.804.429 8.2 8.2 0 0 0 2.79-.684l1.444.821 1.954-1.128z" opacity=".3"/><path fill="#F7921E" d="M54.785 154.058v1.543l1.444.836v-1.544z"/><path fill="#000" d="M54.785 154.058v1.543l1.444.836v-1.544z" opacity=".45"/><path fill="#F5F5F5" d="m43.178 147.54 1.973-1.133 1.445.831-1.435-.599zM47.587 148.961a2.85 2.85 0 0 1 2.516-.241l1.741-1.751-1.741 1.548a2.63 2.63 0 0 0-2.516.444M49.192 154.313a6.806 6.806 0 0 0 2.804.43 6.3 6.3 0 0 1-2.512-.501l1.563-1.746zM54.785 154.058l1.444.657 1.954-.944-1.954 1.123zM37.562 144.358c5.126-3.115 13.121-3.426 13.121-3.426-5.027 0-9.737 1.128-13.268 3.167-3.389 1.954-5.248 4.498-5.248 7.174 0 0 .184-3.748 5.395-6.915M49.192 162.408c5.437.24 11.02-.84 15.184-3.243 4.328-2.497 6.178-5.881 5.555-9.143 0 0 .808 5.31-5.88 8.968-6.689 3.658-14.86 3.418-14.86 3.418" opacity=".5"/><path fill="#9E6767" d="M53.062 102.535c4.248.557 5.72 2.317 8.496 5.588 1.614 1.888 6.575 8.355 6.575 8.355.69-.449 6.325-4.182 7.731-5.702 1.487-1.605 1.105-2.473 1.232-3.677.128-1.203.647-2.086.6-3.988-.024-.906.944-.614 1.26-.052.67 1.137.382 3.044.901 3.006a4.6 4.6 0 0 0 1.525-1.354c1.105-1.364 1.416-2.686 2.36-4.154.359-.561.83-1.18 1.586-1.08q.113.022.222.06a.27.27 0 0 1 .184.25q0 .311-.066.614c-.033.142-.151.557-.151.557s.67.18.746.472c.09.466.03.949-.17 1.379.26.226.65.783.084 1.807.25.137.723.944.118 2.337a18.7 18.7 0 0 1-2.124 3.658c-1.297 1.666-2.43 2.209-4.125 3.917-1.694 1.709-4.9 5.509-7.698 8.105-3.247 3.011-4.508 3.752-7.165 1.911-1.374-.944-10.049-9.77-10.049-9.77z"/><path fill="#874C4C" d="M80.56 106.844c.643 1.052.392 3.006-1.227 4.319 1.794-.572 2.696-3.101 1.228-4.319"/><path fill="#9E6767" d="M71.612 167.793s-3.304 6.169-3.776 8.694c-.529 2.634-1.298 3.422-1.27 6.372 0 .642.151 1.949.16 2.473a.758.758 0 0 1-.82.84c-1.186.071-2.78-2.36-3.347-4.856a71 71 0 0 1-1.067-8.633c.049-.637.262-1.25.618-1.78q.292-.476.67-.887c.553-1.1 1.053-3.266 1.6-4.72z"/><path fill="#37474F" d="M58.868 174.77a2.8 2.8 0 0 0-.434.826c-.104.523.835 2.444 1.208 3.148a4.28 4.28 0 0 1 .425 3.143c-.317 1.685.193 3.422 1.08 4.98a11.75 11.75 0 0 0 5.235 4.635c2.667 1.27 3.856 0 3.856 0s1.067-1.223.628-1.85c-.439-.628-11.998-14.882-11.998-14.882"/><path fill="#F7921E" d="M62.78 169.993c-.084 0-.23-.062-.471.17-.1.089-.793 1.269-1.313 1.888-.519.618-1.812 1.689-2.114 2.737.344 2.171 2.077 3.894 2.081 5.896s-.292 4.271 2.36 7.108c2.653 2.837 5.712 3.535 6.915 3.063s1.275-1.675.057-4.172c-1.289-2.644-1.633-8.024-1.633-8.024a18 18 0 0 1 .033-2.257q.18-1.103.528-2.166c.106-.33.106-.685 0-1.015a1.7 1.7 0 0 0-.74-.694q-.695-.451-1.469-.745a2.48 2.48 0 0 0-1.619-.043c-.377.137-.703.392-1.09.472a1.44 1.44 0 0 1-1.416-.472 1.24 1.24 0 0 1-.203-1.416q.039-.168.095-.33"/><path fill="#000" d="M62.78 169.993c-.084 0-.23-.062-.471.17-.1.089-.793 1.269-1.313 1.888-.519.618-1.812 1.689-2.114 2.737.344 2.171 2.077 3.894 2.081 5.896s-.292 4.271 2.36 7.108c2.653 2.837 5.712 3.535 6.915 3.063s1.275-1.675.057-4.172c-1.289-2.644-1.633-8.024-1.633-8.024a18 18 0 0 1 .033-2.257q.18-1.103.528-2.166c.106-.33.106-.685 0-1.015a1.7 1.7 0 0 0-.74-.694q-.695-.451-1.469-.745a2.48 2.48 0 0 0-1.619-.043c-.377.137-.703.392-1.09.472a1.44 1.44 0 0 1-1.416-.472 1.24 1.24 0 0 1-.203-1.416q.039-.168.095-.33" opacity=".4"/><path fill="#FAFAFA" d="M61.837 185.597a4.84 4.84 0 0 1 4.72-1.718c3.19.472 4.059 2.266 4.403 3.304.411 1.222.713 3.375-.693 3.776-1.516.434-3.135 0-5.537-1.685s-2.893-3.677-2.893-3.677M63.824 176.067q.063.044.142.054.077.01.15-.016c.53-.18 3.22-.34 4.532 1.293.222-.132.222-.425.033-.868-1.615-1.393-4.159-1.247-4.796-1.029a.3.3 0 0 0-.11.061.297.297 0 0 0-.08.344q.042.1.129.161M68.704 179.305a.99.99 0 0 0-.056-.906c-1.615-1.208-3.98-1.067-4.593-.859a.32.32 0 0 0-.18.163.3.3 0 0 0-.004.243q.04.1.127.161a.34.34 0 0 0 .293.042c.514-.165 3.063-.33 4.413 1.156M69.375 183.809a1.83 1.83 0 0 0-.237-1.214c-1.619-1.331-4.101-1.189-4.72-.977a.324.324 0 0 0-.17.437.344.344 0 0 0 .255.185c.05.007.103.003.151-.013.553-.188 3.507-.358 4.72 1.582M64.173 180.145q.064.044.141.055.078.01.152-.012c.523-.179 3.157-.335 4.484 1.237a1.13 1.13 0 0 0-.128-.982c-1.614-1.213-3.979-1.072-4.593-.864a.321.321 0 0 0-.056.566"/><path fill="#9E6767" d="M73.457 178.413s.24 8.062 1.28 11.328c1.038 3.266 1.58 4.838 3.27 7.425.368.561 1.232 1.633 1.534 2.091a.79.79 0 0 1 .018.976.8.8 0 0 1-.263.227c-1.006.732-4.81.42-6.712-1.454s-3.37-5.513-4.456-6.962a21 21 0 0 1-1.142-1.67c-.354-.576-.165-1.02-.127-1.586 0-.274.16-1.015.16-1.015-.109-1.364-1.01-3.724-1.25-5.079z"/><path fill="#37474F" d="M65.466 193.621a3 3 0 0 0-.033.977c.142.543 1.888 1.921 2.577 2.412a4.5 4.5 0 0 1 1.832 2.766c.472 1.727 1.746 3.134 3.304 4.196a12.3 12.3 0 0 0 7.042 1.973c3.092 0 3.64-1.746 3.64-1.746s.443-1.638-.26-2.03-18.102-8.548-18.102-8.548"/><path fill="#F7921E" d="M66.967 187.338c-.085.024-.245.048-.382.383-.052.127-.165 1.557-.382 2.36-.218.802-.944 2.416-.737 3.54 1.313 1.888 3.734 2.718 4.65 4.597.915 1.879 1.675 4.163 5.47 5.617s6.99.722 7.906-.274.439-2.162-1.846-3.951c-2.426-1.888-5.192-6.811-5.192-6.811a18 18 0 0 1-1-2.142q-.32-1.124-.472-2.28a1.7 1.7 0 0 0-.472-.944 1.8 1.8 0 0 0-1.015-.312 8 8 0 0 0-1.728-.038 2.6 2.6 0 0 0-1.543.704c-.288.297-.472.689-.798.944a1.51 1.51 0 0 1-1.571.203 1.292 1.292 0 0 1-.835-1.242 3 3 0 0 1-.053-.354"/><path fill="#000" d="M66.967 187.338c-.085.024-.245.048-.382.383-.052.127-.165 1.557-.382 2.36-.218.802-.944 2.416-.737 3.54 1.313 1.888 3.734 2.718 4.65 4.597.915 1.879 1.675 4.163 5.47 5.617s6.99.722 7.906-.274.439-2.162-1.846-3.951c-2.426-1.888-5.192-6.811-5.192-6.811a18 18 0 0 1-1-2.142q-.32-1.124-.472-2.28a1.7 1.7 0 0 0-.472-.944 1.8 1.8 0 0 0-1.015-.312 8 8 0 0 0-1.728-.038 2.6 2.6 0 0 0-1.543.704c-.288.297-.472.689-.798.944a1.51 1.51 0 0 1-1.571.203 1.292 1.292 0 0 1-.835-1.242 3 3 0 0 1-.053-.354" opacity=".4"/><path fill="#FAFAFA" d="M73.202 202.461a5.07 5.07 0 0 1 3.644-3.776c3.22-1.005 4.852.283 5.664 1.09.944.944 2.214 2.832 1.072 3.866-1.232 1.1-2.955 1.416-5.985.944s-4.395-2.124-4.395-2.124M70.724 192.578a.36.36 0 0 0 .293-.095c.415-.411 2.874-1.793 4.857-.854.146-.222 0-.501-.368-.831-2.153-.571-4.484.722-4.99 1.218a.32.32 0 0 0-.078.365.343.343 0 0 0 .286.197M76.799 193.399a1.04 1.04 0 0 0-.472-.826c-2.072-.401-4.248.812-4.72 1.289a.32.32 0 0 0-.104.236.32.32 0 0 0 .104.236c.053.05.12.081.193.089a.35.35 0 0 0 .158-.012.4.4 0 0 0 .135-.082c.425-.401 2.757-1.713 4.706-.93M79.485 197.336a1.9 1.9 0 0 0-.78-1.034c-2.128-.514-4.403.751-4.898 1.242a.32.32 0 0 0-.104.236.32.32 0 0 0 .104.236.34.34 0 0 0 .193.089q.08.015.157-.009a.34.34 0 0 0 .136-.08c.453-.439 3.186-1.954 5.192-.68M72.914 196.26a.34.34 0 0 0 .293-.095c.415-.406 2.832-1.756 4.79-.882a1.19 1.19 0 0 0-.57-.869c-2.072-.401-4.248.812-4.72 1.289a.32.32 0 0 0-.104.236.32.32 0 0 0 .104.236c.058.05.13.08.207.085"/><path fill="#455A64" d="M59.609 131.364c3.596 2.011 11.866 6.363 17.752 12.423 2.11 2.167 3.431 4.074 1.34 9.785-1.605 4.394-4.422 9.256-7.009 14.953l-26.054-30.548z"/><path fill="#263238" d="M72.041 167.755c-4.035-3.634-16.619-25.101-16.619-25.101l.567-.099c3.072-1.416 4.03-5.192 4.03-5.192a6.14 6.14 0 0 1-1.029 4.961c1.761 1.284 5.664 4.281 11.8 8.85 1.067.793 3.068 2.723 2.983 5.735a691 691 0 0 0-.184 7.797z"/><path fill="#455A64" d="m58.183 132.369-21.664.68c-1.148 3.379-1.855 10.176-.539 13.461 1.416 3.564 2.899 6.037 10.384 9.162 6.306 2.634 12.499 4.625 13.882 5.362 1.043.557.887 2.936 1.241 5.725.373 2.926.704 4.555 2.36 10.795a407 407 0 0 0 1.832 6.565s4.88.944 8.58-1.147c0 0-.896-16.709-1.146-20.485-.218-3.223-.048-6.23-2.497-8.609-2.1-2.039-14.632-11.304-14.632-11.304s4.446-4.456 2.2-10.205"/><path fill="#37474F" d="M44.948 101.454a34 34 0 0 0-8.83 2.539c-2.55 1.143-4.466 4.796-2.804 11.399.472 1.784 1.774 4.668 2.648 8.633.372 1.502.426 3.065.155 4.588-.472 2.856-.906 7.462-.75 10.313 0 0 5.857 3.932 16.468.689 8.496-2.596 10.143-6.933 10.143-6.933a38.2 38.2 0 0 0-2.28-7.132c.201-1.683.201-3.383 0-5.065a8.8 8.8 0 0 0 2.162-4.979c.364-2.908-1.033-4.961-3.847-8.128a41 41 0 0 0-4.95-4.843z"/><path fill="#263238" d="M44.32 78.217c1.417.67 2.007 1.195 3.305-.09 1.482-1.156 3.662-.636 4.72.846.368.472.736 1.123 1.33 1.132.331 0 .765-.203 1.37-.255a2.36 2.36 0 0 1 2.218 1.35 3.6 3.6 0 0 1-.07 1.615 1.42 1.42 0 0 0 .537 1.416.85.85 0 0 0 1.246-.472c.51.472.364 1.416-.155 1.855a2.4 2.4 0 0 1-1.921.443c1.222.236 2.26 1.652 1.623 2.913-.283.556-.873.944-1.02 1.538-.184.755.331 1.572.288 2.36a2.13 2.13 0 0 1-1.699 1.888 3.55 3.55 0 0 0-1.741.812c-.642.576-.944 1.492-1.563 2.115-3.016 2.874-4.72-1.383-7.693-.048a6.3 6.3 0 0 0-1.1.76c-.151.114-.302.227-.472.33q-.217.107-.387.28a1.1 1.1 0 0 1-.854.438 3.1 3.1 0 0 1-.944-.123c-1.006-.235-2.063-.542-2.729-1.363q-.315-.423-.57-.883a3.02 3.02 0 0 0-1.417-1.364c-.708-.26-1.557-.071-2.185-.505a2.45 2.45 0 0 1-.83-1.496 5 5 0 0 0-.581-1.662 1.83 1.83 0 0 0-1.803-.75 2.98 2.98 0 0 1 1.175-1.695q.595-.36 1.222-.656.21-.104.388-.255a2 2 0 0 0 .325-.382c.183-.29.314-.61.387-.944a6 6 0 0 0 .071-.382c.094-.704.057-1.416.17-2.124a3.6 3.6 0 0 1 1.845-2.705c.472-.217.944-.293 1.416-.472.336-.11.638-.304.878-.562.104-.113.19-.236.293-.35q.141-.163.227-.362a5.3 5.3 0 0 1 .826-1.487c.995-1.128 2.62-1.237 3.875-.704"/><path fill="#455A64" d="M45.58 84.273c-.21.124-.448.193-.693.203a2.8 2.8 0 0 1-.755-.17 3.7 3.7 0 0 0-1.539-.194 1.86 1.86 0 0 0-1.133.472 1.72 1.72 0 0 0-.387 1.076.9.9 0 0 1-.944.878c-.375-.019-.75.02-1.114.114-.727.278-.74 1.165-.566 1.803.023.075.08-.024.08-.062 0-.472-.104-1.085.345-1.416a2.1 2.1 0 0 1 1.147-.184c.708-.028 1.137-.292 1.27-1.02.094-.504.174-.915.689-1.156a2.7 2.7 0 0 1 1.529-.146c.59.104 1.746.718 2.138-.07-.01-.015.005-.161-.066-.128m-.471.892c-.332.121-.69.157-1.038.104a3.8 3.8 0 0 0-1.124-.109 1.61 1.61 0 0 0-1.213 1.209 1.9 1.9 0 0 1-.42.873c-.316.283-.774.207-1.166.236-.472.037-1.128.363-.901.944.028.061.08 0 .08-.047 0-.86 1.364-.472 1.888-.723.524-.25.623-.745.821-1.184a1.416 1.416 0 0 1 1.577-.864c.505.07 1.217.264 1.562-.26.028-.028.057-.217-.042-.18zm-1.057 1.128a1.42 1.42 0 0 0-1.12.472q-.165.308-.273.642a1.12 1.12 0 0 1-.472.514c-.401.236-.901.217-1.227.58a1.08 1.08 0 0 0-.194 1.072c.029.09.1 0 .09-.056a.944.944 0 0 1 .585-.977 3.4 3.4 0 0 0 1.114-.5q.195-.183.307-.425c.08-.18.123-.373.217-.543.119-.192.298-.338.51-.416q.17-.069.35-.118.106-.03.216-.037l.246-.024a1.3 1.3 0 0 0 .33-.07.06.06 0 0 0 .047-.043c0-.029-.028-.047-.051-.057a1 1 0 0 0-.472-.033z"/><path fill="#9E6767" d="M54.266 90.282c-.033-.572.042-1.067-.029-1.525-.391-2.676-1.836-2.86-3.304-3.049-2.227-.293-4.347-.854-5.56-2.294-.212 1.964-1.255 4.394-2.53 4.72.51 1.59.18 2.672-1.208 3.139-.363-1.68-2.251-1.666-3.304-.736s-.869 3.775.647 5.007c1.515 1.232 2.067.472 2.067.472l-.434 6.816s2.718 4.168 10.134 5.046c1.047-2.469-1.954-5.518-1.954-5.518l.245-2.544a5.4 5.4 0 0 0 2.87-.415c.826-.368 2.695-1.643 2.775-6.736-.005-.882-.373-1.69-.415-2.383"/><path fill="#874C4C" d="m47.176 94.322 2.757.765a1.415 1.415 0 0 1-1.718 1.043 1.49 1.49 0 0 1-1.039-1.808"/><path fill="#F28F8F" d="M48.876 96.144a1.4 1.4 0 0 1-.675 0 1.48 1.48 0 0 1-1.039-1.138 1.765 1.765 0 0 1 1.714 1.138"/><path fill="#874C4C" d="m48.908 89.248.298 4.508 2.62-.647c-.987-1.812-1.964-3.158-2.918-3.861M49.017 99.826c-1.416-.274-5.385-.831-6.679-3.304.04.876.41 1.706 1.034 2.322 1.784 1.543 5.546 2.01 5.546 2.01z"/><path fill="#263238" d="m46.832 87.832-1.766.67a.99.99 0 0 1 .567-1.25.944.944 0 0 1 1.199.58M53.152 88.115l-1.78-.665a.91.91 0 0 1 1.194-.562.995.995 0 0 1 .586 1.227M47.27 90.121a.736.736 0 1 1-1.472.038.736.736 0 0 1 1.473-.038M53.072 89.918a.736.736 0 1 1-1.472.038.736.736 0 0 1 1.471-.038"/><path fill="#EBEBEB" d="M45.704 146.044v.472a1.29 1.29 0 0 0 .646 1.113l12.334 7.014a1.32 1.32 0 0 0 1.293-.009l22.486-13.141a1.28 1.28 0 0 0 .642-1.118v-.316L59.33 153.935z"/><path fill="#FAFAFA" d="m83.11 140.045-13.42-7.652a.77.77 0 0 0-.764 0l-23.128 13.519a.17.17 0 0 0 0 .297l13.537 7.727z"/><path fill="#E0E0E0" d="m59.203 152.803-7.236-4.121 21.032-12.29 7.274 4.101zM55.597 141.248l.132.076 3.55 2.024 6.267-3.662.133-.081-3.682-2.095z"/><path fill="#E6E6E6" d="m55.729 141.324 3.55 2.025 6.268-3.663-3.55-2.025z"/><path fill="#EBEBEB" d="M59.33 153.936v.859c.228.001.45-.06.647-.175l22.486-13.14a1.29 1.29 0 0 0 .642-1.119v-.316z"/><path fill="#E0E0E0" d="M59.33 153.936v.859c.228.001.45-.06.647-.175l22.486-13.14a1.29 1.29 0 0 0 .642-1.119v-.316z" opacity=".5" style="mix-blend-mode:multiply"/><path fill="#F7921E" d="M59.699 154.125a1.499 1.499 0 0 0 1.312-.109l22.391-13.079a1.51 1.51 0 0 0 .737-1.071l2.36-14.679a1.5 1.5 0 0 0 0-.251 1.5 1.5 0 0 0-.472-1.081l-23.209 13.599a1.12 1.12 0 0 0-.547.793z"/><path fill="#fff" d="M59.699 154.125a1.499 1.499 0 0 0 1.312-.109l22.391-13.079a1.51 1.51 0 0 0 .737-1.071l2.36-14.679a1.5 1.5 0 0 0 0-.251 1.5 1.5 0 0 0-.472-1.081l-23.209 13.599a1.12 1.12 0 0 0-.547.793z" opacity=".7"/><path fill="#FAFAFA" d="m59.33 153.94.156.085q.103.058.213.1l2.572-15.879a1.13 1.13 0 0 1 .547-.793l23.265-13.598a1.4 1.4 0 0 0-.311-.236l-23.317 13.622a1.15 1.15 0 0 0-.552.793z"/><path fill="#F7921E" d="M72.287 140.526c.155-.982 1.166-2.294 2.246-2.927 1.081-.632 1.832-.344 1.671.638-.16.981-1.165 2.289-2.246 2.921-1.081.633-1.841.35-1.671-.632"/><path fill="#9E6767" d="M25.828 127.008a152 152 0 0 1 3.507-17.228c.623-2.299 2.006-4.371 6.787-5.787 2.974 3.578 1.043 11.177.538 12.839l-3.011 11.28c1.746 1.75 3.59 3.4 5.522 4.942a14.35 14.35 0 0 0 7.368 3.191c2.908.434 4.092.373 5.593 1.076.803.378 2.625 1.251 3.243 1.591s1.718 1.51 2.742 2.308-.283 1.213-1.038.967a10 10 0 0 1-2.261-1.18 13 13 0 0 0-1.945-.811c.192.756.309 1.529.35 2.308 0 .42.066.944-.312 1.227a3.3 3.3 0 0 1-.887.335.64.64 0 0 1-.184.401 1.08 1.08 0 0 1-.756.17 3 3 0 0 1-.424-.075.77.77 0 0 1-.472.59 3.35 3.35 0 0 1-1.79 0c-.089-.038-.74-.416-.943-.524-.279-.156-.529-.246-.647-.435-.118-.188.283-.712.633-.755.382-.026.766.009 1.137.104a3.8 3.8 0 0 1-.307-.991c-.297-.505-2.549-.066-4.53-.472-1.492-.302-2.536-1.765-3.201-2.086a129 129 0 0 1-11.8-6.306c-3.465-2.087-3.422-3.215-2.912-6.679"/><path fill="#874C4C" d="M53.251 140.342c-.212-.576-.548-1.265-.977-1.416.255.401.455.834.595 1.288zM52.019 144.066c.08-.407.105-.823.075-1.237a11 11 0 0 0-.122-1.232 5.4 5.4 0 0 0-.298-1.208 2.3 2.3 0 0 0-.712-1.015q.203.23.32.515.135.27.218.561.162.584.236 1.185c.066.401.118.807.18 1.213q.083.606.103 1.218M50.655 144.562q.086-.608.038-1.218a9.5 9.5 0 0 0-.147-1.208 8 8 0 0 0-.297-1.18 2.36 2.36 0 0 0-.585-1.062c.116.16.203.341.255.533.06.193.113.382.155.576q.132.59.241 1.175c.142.788.26 1.577.34 2.384M47.426 143.443q.257.008.5.085c.161.042.27.127.473.198l-.08-.132a.5.5 0 0 0 .028.241.725.725 0 0 0 .444.425 1.7 1.7 0 0 1-.199-.321 1 1 0 0 1-.042-.161.5.5 0 0 1 0-.137v-.094l-.095-.043a1.7 1.7 0 0 0-.472-.113 1 1 0 0 0-.557.052"/><path fill="#F7921E" d="M105.346 139.599c-.169 11.913 9.978 18.196 22.282 18.196s22.265-6.283 22.265-18.196z"/><path fill="#F7921E" d="M111.874 148.697c-8.702-5.024-8.702-13.172 0-18.197s22.806-5.024 31.508 0c8.702 5.025 8.702 13.173 0 18.197s-22.806 5.024-31.508 0"/><path fill="#fff" d="M111.874 148.697c-8.702-5.024-8.702-13.172 0-18.197s22.806-5.024 31.508 0c8.702 5.025 8.702 13.173 0 18.197s-22.806 5.024-31.508 0" opacity=".4"/><path fill="#F7921E" d="M113.005 149.286c8.369 4.219 20.877 4.219 29.246 0 2.973-3.498 1.947-7.863-3.106-10.777-6.359-3.672-16.675-3.672-23.034 0-5.053 2.914-6.079 7.268-3.106 10.777" opacity=".5"/><path fill="#37474F" d="M121.881 152.416h-.035a.386.386 0 0 1-.35-.42l5.747-62.504a.4.4 0 0 1 .42-.35.39.39 0 0 1 .334.27.4.4 0 0 1 .016.15l-5.747 62.504a.384.384 0 0 1-.385.35"/><path fill="#37474F" d="M149.14 136.643a.37.37 0 0 1-.208-.061.37.37 0 0 1-.141-.166L127.278 89.69a.387.387 0 0 1 .7-.327l21.512 46.732a.38.38 0 0 1-.35.548"/><path fill="#37474F" d="M111.874 130.89a.4.4 0 0 1-.14-.029.377.377 0 0 1-.219-.203.38.38 0 0 1-.009-.298l15.737-40.974a.386.386 0 0 1 .715-.016c.041.094.044.2.008.296l-15.737 40.974a.392.392 0 0 1-.355.25"/><path fill="#F7921E" d="M194.824 87.83c-.169 11.913 9.978 18.196 22.282 18.196s22.282-6.283 22.282-18.196z"/><path fill="#F7921E" d="M201.352 96.928c-8.702-5.024-8.702-13.172 0-18.196s22.812-5.024 31.514 0 8.702 13.172 0 18.196-22.813 5.024-31.514 0"/><path fill="#fff" d="M201.352 96.928c-8.702-5.024-8.702-13.172 0-18.196s22.812-5.024 31.514 0 8.702 13.172 0 18.196-22.813 5.024-31.514 0" opacity=".4"/><path fill="#F7921E" d="M202.482 97.517c8.37 4.22 20.878 4.22 29.247 0 2.973-3.497 1.947-7.862-3.106-10.777-6.359-3.672-16.675-3.672-23.034 0-5.053 2.915-6.079 7.268-3.107 10.777" opacity=".5"/><path fill="#37474F" d="M211.359 100.646h-.035a.4.4 0 0 1-.145-.042.392.392 0 0 1-.205-.377l5.747-62.504a.39.39 0 0 1 .564-.307.4.4 0 0 1 .19.227q.022.074.015.15l-5.747 62.504a.38.38 0 0 1-.384.349"/><path fill="#37474F" d="M238.624 84.875a.39.39 0 0 1-.355-.227l-21.513-46.726a.39.39 0 0 1 .205-.483.39.39 0 0 1 .5.156l21.513 46.732a.39.39 0 0 1-.187.513.4.4 0 0 1-.163.035"/><path fill="#37474F" d="M201.351 79.123a.4.4 0 0 1-.139 0 .39.39 0 0 1-.222-.501l15.737-40.974a.38.38 0 0 1 .205-.215.38.38 0 0 1 .424.075.4.4 0 0 1 .087.123q.03.071.033.148a.4.4 0 0 1-.026.149l-15.737 40.974a.38.38 0 0 1-.362.22"/><path fill="#455A64" d="M219.746 31.429c-.041 1.935-1.23 4.214-2.646 5.03a1.25 1.25 0 0 1-1.207.157c-.413-.239-.664-.903-.664-1.783a6.9 6.9 0 0 1 1.032-3.404h-1.749a8.2 8.2 0 0 0-.81 3.404c0 1.462.524 2.599 1.44 3.13.354.203.756.31 1.165.308a3.2 3.2 0 0 0 1.597-.472c1.894-1.09 3.381-3.87 3.421-6.37z"/><path fill="#263238" d="M188.226 144.285c-8.411-4.855-22.049-4.855-30.454 0-4.208 2.43-6.294 5.613-6.289 8.795v3.293c0 3.182 2.081 6.365 6.289 8.789 8.411 4.855 22.043 4.855 30.454 0 4.208-2.424 6.294-5.607 6.289-8.789v-3.293c.005-3.165-2.075-6.365-6.289-8.795"/><path fill="#455A64" d="M157.772 144.284c-8.41 4.861-8.41 12.73 0 17.585s22.043 4.855 30.454 0c8.41-4.855 8.41-12.724 0-17.585s-22.014-4.861-30.454 0"/><path fill="#37474F" d="M185.585 140.198c-6.953-4.01-18.225-4.01-25.172 0-3.497 2.011-5.205 4.663-5.199 7.268v4.843c0 2.635 1.719 5.246 5.199 7.268 6.947 4.016 18.219 4.016 25.172 0 3.497-2.005 5.205-4.633 5.199-7.268v-4.843c.006-2.629-1.725-5.257-5.199-7.268"/><path fill="#455A64" d="M160.412 140.199c-6.953 4.015-6.953 10.491 0 14.536 6.954 4.044 18.22 4.015 25.173 0 6.953-4.016 6.953-10.492 0-14.536-6.953-4.045-18.208-4.016-25.173 0M131.416 82.889h-1.562q.036.252.035.507c0 1.952-1.212 4.301-2.652 5.135a1.27 1.27 0 0 1-1.212.157c-.408-.239-.658-.904-.658-1.784a6.1 6.1 0 0 1 .413-2.121h-1.643a7.7 7.7 0 0 0-.321 2.121c0 1.458.519 2.6 1.434 3.13.355.204.757.31 1.166.31a3.2 3.2 0 0 0 1.597-.473c1.917-1.107 3.421-3.952 3.421-6.475a5 5 0 0 0-.018-.507"/><path fill="#37474F" d="M187.113 144.319c0-2.087-1.381-4.173-4.132-5.764-5.514-3.183-14.449-3.183-19.963 0-2.757 1.591-4.132 3.677-4.132 5.764v1.667c0 2.086 1.375 4.173 4.132 5.764 5.514 3.183 14.449 3.183 19.963 0 2.751-1.591 4.132-3.678 4.132-5.764z"/><path fill="#455A64" d="M182.981 138.555c-.968-.583-2.46-3.054-3.142-6.353-1.585-7.67-1.568-19.98-.28-24.642h-13.125c1.294 4.662 1.311 16.972-.274 24.642-.682 3.299-2.174 5.741-3.142 6.353-2.757 1.591-4.132 3.678-4.132 5.764s1.375 4.173 4.132 5.765c5.514 3.182 14.449 3.182 19.963 0 2.751-1.592 4.132-3.678 4.132-5.765s-1.381-4.173-4.132-5.764"/><path fill="#fff" d="M169.179 110.346c0 2.984-.169 24.386-2.098 27.102-1.93 2.716-4.121 2.914-5.596 5.245s.851 5.572 4.354 6.633a4.3 4.3 0 0 1-1.078-2.238s2.331 2.739 7.53 2.238c-4.592-.781-6.411-4.255-5.438-5.951 1.038-1.789 2.716-2.372 3.666-5.519.735-2.431.723-27.126.723-27.126a12.6 12.6 0 0 1-2.063-.384" opacity=".15"/><path fill="#000" d="M175.246 110.677c.169 5.088.28 25.365 1.749 27.807 1.165 1.906 1.876 2.99 2.115 5.112s-1.661 3.952-3.065 4.418a7 7 0 0 0 3.497-1.3s-1.166 2.39-5.788 3.497c3.113.204 8.078-.676 10.841-4.15 2.331-2.943-.099-4.336-2.069-5.478-1.97-1.143-3.002-2.163-3.952-4.861-2.081-5.904-1.165-25.54-1.165-25.54q-1.06.34-2.163.495" opacity=".15"/><path fill="#000" d="M178.994 110.399c.125-.959.32-1.908.582-2.838h-13.143c.269.929.463 1.878.583 2.838 3.369 1.818 8.591 1.818 11.978 0" opacity=".25"/><path fill="#37474F" d="M166.748 109.355c-1.748-.997-2.588-2.302-2.588-3.608 0-1.305.863-2.611 2.588-3.607 3.451-1.994 9.046-1.994 12.496 0 1.749.996 2.588 2.302 2.588 3.607s-.862 2.611-2.588 3.608c-3.45 1.993-9.045 1.993-12.496 0"/><path fill="#000" d="M181.238 103.906a5.9 5.9 0 0 0-1.994-1.749c-3.45-1.993-9.045-1.993-12.496 0a5.9 5.9 0 0 0-1.987 1.749c.221 1.02 1.002 2.005 2.36 2.786 3.247 1.876 8.51 1.876 11.756 0 1.352-.781 2.133-1.766 2.361-2.786" opacity=".25"/><path fill="#37474F" d="M167.121 105.513c-1.626-.932-2.436-2.162-2.436-3.392s.81-2.46 2.436-3.392c3.247-1.877 8.51-1.877 11.756 0 1.621.932 2.436 2.162 2.436 3.392s-.815 2.46-2.436 3.392c-3.246 1.854-8.509 1.854-11.756 0"/><path fill="#000" d="M180.725 100.374a5.6 5.6 0 0 0-1.848-1.62c-3.246-1.878-8.509-1.878-11.755 0a5.6 5.6 0 0 0-1.848 1.62 4.232 4.232 0 0 0 2.215 2.634c3.042 1.749 7.973 1.749 11.015 0a4.217 4.217 0 0 0 2.221-2.634" opacity=".25"/><path fill="#37474F" d="M167.488 101.679c-1.521-.88-2.279-2.028-2.279-3.182s.758-2.303 2.279-3.177c3.043-1.748 7.974-1.748 11.016 0 1.521.874 2.285 2.029 2.285 3.177s-.764 2.302-2.285 3.182c-3.042 1.754-7.973 1.754-11.016 0"/><path fill="#000" d="M180.159 96.732a5.2 5.2 0 0 0-1.655-1.41c-3.042-1.75-7.973-1.75-11.016 0a5.3 5.3 0 0 0-1.649 1.41 4.08 4.08 0 0 0 2.022 2.273c2.839 1.637 7.437 1.637 10.276 0a4.08 4.08 0 0 0 2.022-2.273" opacity=".25"/><path fill="#000" d="M179.454 105.145c1.166-.927.385-3.089-.542-3.719 1.014-1.165.461-2.792-.775-3.59a9 9 0 0 1-2.436.933c1.235.792 1.841 2.576.827 3.735.927.636 1.72 2.874.531 3.806.833.706 1.748 2.676.355 3.853a9.3 9.3 0 0 0 2.378-1.166c1.37-1.165.501-3.147-.338-3.852" opacity=".15"/><path fill="#fff" d="M166.538 105.145c-1.165-.927-.384-3.089.542-3.719-1.008-1.165-.46-2.792.781-3.59.762.43 1.583.743 2.437.933-1.242.792-1.842 2.576-.828 3.735-.927.636-1.748 2.874-.53 3.806-.84.706-1.749 2.676-.362 3.853a9.2 9.2 0 0 1-2.372-1.166c-1.375-1.165-.501-3.147.332-3.852" opacity=".15"/><path fill="#455A64" d="M179.035 92.545c-.339-.303-1.283-2.605-1.568-6.172-.962-12.13-.956-27.738-.956-39.593h-7.035c0 11.85 0 27.394-.956 39.558-.286 3.584-1.236 5.91-1.574 6.213a3.1 3.1 0 0 0-1.218 2.331c0 1.078.711 2.15 2.133 2.967 2.833 1.643 7.438 1.643 10.276 0 1.416-.816 2.127-1.889 2.127-2.967a3.13 3.13 0 0 0-1.229-2.337"/><path fill="#000" d="M178.137 93.075c-1.014-1.638-1.748-2.727-2.08-6.743-.292-3.713-.047-38.403 0-39.552h-.519l-.635.198c0 5.584-.368 40.735.466 43.795.833 3.06 2.739 6.12.309 7.997a8.9 8.9 0 0 0 2.436-.933c1.387-1.644 1.037-3.124.023-4.762" opacity=".15"/><path fill="#fff" d="M167.862 93.075c1.014-1.638 1.748-2.727 2.08-6.743.292-3.713.041-38.403 0-39.552h.49l.635.198c0 5.584.367 40.735-.472 43.795s-2.739 6.12-.303 7.997a8.8 8.8 0 0 1-2.436-.933c-1.358-1.644-1.009-3.124.006-4.762" opacity=".15"/><path fill="#000" d="M169.47 48.727a6.1 6.1 0 0 0 7.058 0V46.78h-7.052c0 .676-.006 1.317-.006 1.947" opacity=".25"/><path fill="#37474F" d="M179.14 42.199a6.144 6.144 0 1 1-12.287-.003 6.144 6.144 0 0 1 12.287.003"/><path fill="#000" d="M171.58 45.382a4.7 4.7 0 0 1-2.728-3.031 6.9 6.9 0 0 1-.134-2.844q.113-.7.373-1.358.122-.333.286-.648.103-.24.268-.442a6.14 6.14 0 0 0-2.775 5.39 6.136 6.136 0 0 0 9.272 5.02 6.14 6.14 0 0 0 2.998-5.27c-.688 1.947-3.975 4.756-7.56 3.183" opacity=".15"/><path fill="#fff" d="M177.956 42.048c-.583 1.644-.792-.74-3.538-2.488-2.238-1.423-4.89-1.125-3.45-2.122 1.166-.804 3.037-.816 4.803.146 1.766.961 2.634 3.229 2.185 4.464" opacity=".15"/><path fill="#455A64" d="M172.565 34.227q-1.212.658-2.378 1.37c-8.469 4.796-17.526 9.698-20.638 15.153a20.4 20.4 0 0 0-2.425 6.61 454 454 0 0 0-6.627 8.742c-1.643 2.232-3.264 4.459-4.937 6.621l-.116.088c-.111.064-.169.116-.152.157s0 .117-.116.07a1.93 1.93 0 0 1-.63-1.166 6.6 6.6 0 0 1-.221-1.79 5.5 5.5 0 0 1 .285-1.864.22.22 0 0 0-.046-.222.215.215 0 0 0-.303 0 5.2 5.2 0 0 0-1.242 1.819 7.9 7.9 0 0 0-.583 2.186 4.6 4.6 0 0 0 .438 2.663c.154.27.351.514.582.723a63 63 0 0 1-3.537 3.969 27 27 0 0 1-4.08 3.497c-1.434 1.072-2.495 1.212-3.153.705a2.56 2.56 0 0 1-.747-1.498 7.6 7.6 0 0 1-.058-2.366c.102-.843.298-1.672.583-2.471.277-.8.648-1.563 1.107-2.273.42-.66.964-1.233 1.603-1.685.262-.174.552-.302.857-.379.217-.046.443-.023.647.065.212.113.375.3.46.524.142.334.221.692.234 1.055a6.7 6.7 0 0 1-.35 2.465 6.05 6.05 0 0 1-1.207 2.21 2.8 2.8 0 0 1-.891.67.88.88 0 0 1-.793 0l-.053-.035a.61.61 0 0 0-.781.145.6.6 0 0 0-.114.21.588.588 0 0 0 .219.64c.278.222.61.364.962.41.332.041.67.013.991-.082a4.1 4.1 0 0 0 1.498-.88 7.65 7.65 0 0 0 1.83-2.64c.447-.992.692-2.061.723-3.148a5.2 5.2 0 0 0-.257-1.749 3.4 3.4 0 0 0-.466-.92 2.9 2.9 0 0 0-.816-.776 3.3 3.3 0 0 0-2.122-.5 4.8 4.8 0 0 0-1.836.582 8.4 8.4 0 0 0-2.535 2.256 13.5 13.5 0 0 0-1.614 2.786 14 14 0 0 0-.95 3.065 10.6 10.6 0 0 0-.134 3.37c.083.625.249 1.236.495 1.818a5.1 5.1 0 0 0 1.23 1.748 5.07 5.07 0 0 0 4.08 1.218 6.8 6.8 0 0 0 1.871-.524q.42-.174.816-.397l.681-.402c3.602-2.191 6.412-5.105 9.017-8.02a153 153 0 0 0 2.751-3.217c.365-.276.685-.606.95-.98q.356-.459.63-.972c3.497-4.296 6.79-8.656 10.281-12.823 4.867-5.782 9.99-11.301 15.853-15.772a61 61 0 0 1 5.246-3.584v-6.475zm-23.512 20.685c.123-.822.612-2.332 2.332-4.535 2.646-3.375 6.65-6.096 9.173-7.577a102 102 0 0 0-11.505 12.112"/><path fill="#455A64" d="M225.703 16.969a4.7 4.7 0 0 0-1.411-1.598 3.6 3.6 0 0 0-2.331-.64 4.7 4.7 0 0 0-1.97.629 7.3 7.3 0 0 0-1.451 1.084 10.4 10.4 0 0 0-1.935 2.687 9.8 9.8 0 0 0-1.014 3.141 6.1 6.1 0 0 0 .431 3.497 2.85 2.85 0 0 0 1.708 1.533c.402.115.826.129 1.235.041.338-.09.661-.232.956-.42a4 4 0 0 0 1.241-1.258c.296-.46.513-.967.642-1.498a.53.53 0 0 0-.26-.586.52.52 0 0 0-.632.102 5.9 5.9 0 0 1-1.947 1.504 1.1 1.1 0 0 1-.385.087.4.4 0 0 1-.186-.04 1.3 1.3 0 0 1-.297-.42 3.97 3.97 0 0 1-.059-2.128c.17-.8.474-1.567.898-2.267a7.6 7.6 0 0 1 1.533-1.883 2.75 2.75 0 0 1 1.638-.804.54.54 0 0 1 .367.14c.179.162.323.36.42.583a4.8 4.8 0 0 1 .326 2.063 10.65 10.65 0 0 1-1.37 4.663 11.9 11.9 0 0 1-3.13 3.76q-.444.33-.938.582c-.379.198-.758.385-1.166.542-.763.316-1.553.563-2.36.74q-1.154.24-2.332.297.233-.57.391-1.165a9 9 0 0 0 .251-2.238 7.3 7.3 0 0 0-.362-2.174 4 4 0 0 0-.501-1.014 1.42 1.42 0 0 0-1.02-.688.2.2 0 0 0-.181.087.2.2 0 0 0-.035.073.2.2 0 0 0-.003.08.2.2 0 0 0 .029.075.2.2 0 0 0 .056.058l.052.04a.89.89 0 0 1 .286.642q.057.419 0 .839a6.1 6.1 0 0 1-.42 1.673 6.8 6.8 0 0 1-.763 1.486c-.276.44-.609.842-.991 1.195-.371.314-.801.55-1.265.693a2 2 0 0 0-.204.088c-2.867-.38-5.886-1.055-9.051-1.463-.158-1.836-.758-4.15-2.646-5.275-3.393-2.005-13.82 4.756-22.854 9.984l-.169.088v6.533a41.7 41.7 0 0 1 14.134-5.74 38 38 0 0 1 10.69-.362c3.66.326 7.437 1.102 11.604 1.224 2.161.077 4.32-.175 6.405-.746 1.05-.3 2.072-.69 3.054-1.166.484-.239.962-.501 1.417-.775q.762-.452 1.439-1.026a15.7 15.7 0 0 0 3.894-5.245 14.1 14.1 0 0 0 1.416-6.36 7.8 7.8 0 0 0-.874-3.555m-29.614 11.51c-3.002-.448-9.775 0-13.598 1.72l-.146.04c.968-.623 7.577-4.784 11.395-4.312 2.728.332 2.349 2.553 2.349 2.553"/><path fill="#455A64" d="M172.565 15.506c-3.614 2.086-6.545 7.687-6.545 12.525 0 4.837 2.914 8.742 6.545 6.662s6.563-9.407 6.563-14.227-2.932-7.053-6.563-4.96m0 2.442c2.617-1.51 4.727.087 4.727 3.572-.006.802-.092 1.6-.257 2.384-.303-2.756-2.197-3.893-4.47-2.582-2.273 1.312-4.138 4.622-4.459 7.717a9 9 0 0 1-.256-2.063c0-3.485 2.116-7.525 4.715-9.028"/><path fill="#F7921E" d="m172.582 24.353 2.064 2.028-2.087 4.674-2.057-2.308z"/><path fill="#fff" d="m173.422 28.1-.659 1.37-.087-3.76.763.8a1.53 1.53 0 0 1-.017 1.59" opacity=".6"/></svg>