<svg xmlns="http://www.w3.org/2000/svg" width="256" height="256" fill="none"><path stroke="#D5D5D5" d="M241.195 185.626c0 15.328-12.5 29.342-33.023 39.553-20.492 10.195-48.836 16.516-80.172 16.516s-59.68-6.321-80.172-16.516c-20.523-10.211-33.023-24.225-33.023-39.553 0-15.329 12.5-29.342 33.023-39.553C68.32 135.877 96.664 129.557 128 129.557s59.68 6.32 80.172 16.516c20.523 10.211 33.023 24.224 33.023 39.553Z"/><path fill="#FFA8A7" d="M219.021 175.466c-.392-5.697-.638-7.934-1.18-18.111-.048-2.61-.142-5.404-.317-7.887-.59-8.354-1.666-10.341-2.383-13.216s-1.298-8.227-2.393-26.186a93 93 0 0 0-3.304-20.297h-25.748c-2.643 11.262-3.398 35.646-3.304 47.252.038 5.919.104 36.491-.042 38.936a8.24 8.24 0 0 1-2.478 5.3c-2.12 2.275-3.639 3.196-6.297 5.192.383 1.015 5.952.977 7.552.203a59 59 0 0 0 6.627-3.898 7.85 7.85 0 0 0 3.181-6.396q.057-.317.076-.637c.042-1.416 3.63-21.684 4.536-26.522.698-3.776-.071-11.035-.071-11.035l2.728-17.894s3.078 11.876 4.72 19.111c1.204 5.32 4.192 13.721 6.136 22.222 2.285 8.647 2.464 9.407 3.814 15.6.68 3.12 1.293 15.496 2.053 17.657 2.44 6.967 8.227 2.271 8.539-1.581.221-2.568-2.37-16.586-2.445-17.813"/><path fill="#263238" d="M166.232 189.795c-.151 0-.33 1.629.472 2.299.944.774 3.686 2.011 7.255 1.454s5.475-1.709 6.877-2.946c1.402-1.236 3.365-2.978 4.975-3.374 1.491-.373 3.917-1.279 4.389-1.761.472-.481.349-2.539.349-2.539z"/><path fill="#37474F" d="M189.011 175.715a1.102 1.102 0 0 1 .594.689c.123.567.147 1.294.411 2.223.359 1.294.647 3.951.472 5.013s-3.413 2.049-4.961 2.686a19.9 19.9 0 0 0-4.994 3.337c-1.647 1.416-5.149 2.912-7.481 3.002-3.559.146-5.89-.76-6.608-2.025-.944-1.558-.245-3.252 3.776-5.254.765-.377 3.446-2.057 4.357-2.666a21 21 0 0 0 2.733-2.143 17 17 0 0 0 1.217-1.27 5.7 5.7 0 0 0 1.001-1.35c.043-.108.071-.236.113-.349q.16-.474.241-.968c.057-.34.085-.835.406-1.048a2.73 2.73 0 0 1 1.458-.212c.748.097 1.487.255 2.209.472.845.26 1.473.43 1.846.987.249.45.377.957.373 1.472 0 .241 0 .472.028.718 0 .103-.038.288.104.24s.278-.401.33-.524c.104-.273.17-.561.288-.826a2.4 2.4 0 0 1 .472-.878c.666-.59 1.327-.495 1.52-.698.019.009.08-.425.095-.628"/><path fill="#FAFAFA" d="M169.574 185.717c5.163.222 6.858 4.12 7.127 6.089-1.164.47-2.393.76-3.644.859-3.559.146-6.037-.756-6.778-2.016-.873-1.472-.326-3.455 3.295-4.932"/><path fill="#F0F0F0" d="M177.291 186.331a.28.28 0 0 0 .156-.061.256.256 0 0 0 .028-.359c-.741-.859-2.832-2.728-4.696-2.473a.249.249 0 0 0-.124.45.25.25 0 0 0 .19.045c1.746-.226 3.663 1.629 4.248 2.308a.24.24 0 0 0 .089.067.24.24 0 0 0 .109.023M179.476 184.982a.3.3 0 0 0 .161-.061.27.27 0 0 0 .084-.175.26.26 0 0 0-.061-.184c-.741-.859-2.832-2.733-4.696-2.478a.3.3 0 0 0-.092.033.2.2 0 0 0-.073.065.245.245 0 0 0-.047.185.24.24 0 0 0 .093.168q.04.03.087.044.048.012.098.005c1.746-.231 3.663 1.624 4.248 2.309a.26.26 0 0 0 .198.089M181.496 183.447a.2.2 0 0 0 .084-.015.2.2 0 0 0 .072-.046.255.255 0 0 0 .088-.171.26.26 0 0 0-.06-.183c-.741-.859-2.832-2.728-4.72-2.478a.254.254 0 0 0-.121.451q.04.03.089.044.048.012.098.005c1.742-.231 3.663 1.624 4.248 2.308a.25.25 0 0 0 .222.085M183.474 181.917a.25.25 0 0 0 .227-.145.25.25 0 0 0-.043-.265c-1.019-1.223-3.257-2.747-5.121-2.492a.24.24 0 0 0-.168.096.24.24 0 0 0-.043.088.25.25 0 0 0 .091.265c.053.041.12.059.186.051 1.68-.227 3.776 1.232 4.673 2.313a.2.2 0 0 0 .088.069.2.2 0 0 0 .11.02"/><path fill="#263238" d="M212.092 192.925c.245 2.36.684 3.932 1.59 5.286.907 1.355 2.516 1.728 4.107 1.246 1.59-.481 3.611-1.661 3.984-3.729s.58-3.492.118-5.664z"/><path fill="#37474F" d="M219.021 175.467c.665.023.628 3.186 1.151 6.362.562 3.408 1.114 4.749 1.605 7.552.557 3.196.09 4.65-.944 6.641-1.033 1.992-4.942 4.055-7.023 1.364-1.699-2.194-1.888-4.72-1.888-7.915a47 47 0 0 0-.793-8.024c-.392-2.577-1.024-4.88-.472-5.192q.272 1.286.684 2.535c.076.174.35.613.425-.062 0-.203-.061-.66-.052-.859a.84.84 0 0 1 .567-.793 6.44 6.44 0 0 1 2.803-.745c1.298-.062 2.417-.156 3.158.184.444.203.472.618.519 1.019.076.472.099.779.213.68.254-.18-.01-2.398.047-2.747"/><path fill="#FAFAFA" d="M222.042 191.221a8 8 0 0 1-1.029 4.932c-1.039 1.987-5.254 4.088-7.34 1.393-1.038-1.336-1.369-2.96-1.576-4.626 1.081-2.19 8.01-3.441 9.945-1.699"/><path fill="#F0F0F0" d="M213.389 189.362a.2.2 0 0 0 .081-.028c.028 0 3.044-1.416 6.065-.859a.24.24 0 0 0 .153-.058.24.24 0 0 0 .083-.142.24.24 0 0 0-.025-.162.25.25 0 0 0-.122-.11c-3.195-.59-6.272.85-6.386.911a.25.25 0 0 0-.104.33.25.25 0 0 0 .255.118M219.284 186.101a.24.24 0 0 0 .136-.079.24.24 0 0 0 .021-.296.25.25 0 0 0-.124-.097c-3.025-.878-6.263.779-6.381.85a.245.245 0 0 0 .245.424c.029 0 3.186-1.623 5.995-.802a.3.3 0 0 0 .108 0M219.096 183.848a.255.255 0 0 0 .203-.175.25.25 0 0 0-.019-.188.26.26 0 0 0-.147-.119c-3.304-1.028-6.391.765-6.504.841a.245.245 0 0 0-.066.339.25.25 0 0 0 .156.106.3.3 0 0 0 .096-.001.3.3 0 0 0 .088-.038c.028 0 2.988-1.733 6.084-.775q.053.016.109.01"/><path fill="#EBEBEB" d="M218.818 181.635a.24.24 0 0 0 .123-.057.248.248 0 0 0 .06-.3.25.25 0 0 0-.141-.125c-3.12-1.014-6.424.831-6.546.911a.25.25 0 0 0-.01.41.25.25 0 0 0 .274.006c.028 0 3.233-1.799 6.136-.855q.051.015.104.01"/><path fill="#37474F" d="M211.478 89.77c.944 7.023 1.27 8.746 2.318 24.392 1.019 15.171 1.104 17.394 1.25 19.22.345 4.196 2.205 5.641 2.743 15.534.5 9.062.797 20.244.797 20.244s-1.222 1.676-4.672 1.987c-3.186.283-4.782-.911-4.782-.911s-5.904-21.127-7.552-26.432c-2.237-7.217-5.376-19.895-5.376-19.895l-2.081 14.477s.67 6.947-.68 13.508c-1.671 8.133-3.375 16.992-3.375 16.992-1.535.557-3.176.76-4.8.595-3.724-.373-4.97-1.241-4.97-1.241s-1.048-24.573-1.048-33.55c0-8.978.113-30.945.637-44.911z"/><path fill="#263238" d="m196.204 123.9-2.596-15.722s-5.192-1.369-8.534-4.862c.25 2.601 4.871 5.938 7.033 6.457l2.917 13.934-.902 14.679zM202.236 92.209a21.5 21.5 0 0 1 1.95 4.12q.772 2.147 1.298 4.367c.349 1.476.623 2.97.821 4.474.216 1.504.317 3.022.302 4.541a274 274 0 0 1-1.038-4.409c-.335-1.468-.661-2.931-1.015-4.385s-.703-2.912-1.076-4.366a87 87 0 0 0-1.242-4.342M204.219 92.758c.757.7 1.444 1.471 2.053 2.303q.926 1.238 1.671 2.591c.495.91.917 1.857 1.265 2.832.359.972.594 1.986.698 3.017l-1.383-2.719c-.472-.892-.944-1.784-1.416-2.662s-.972-1.756-1.453-2.644c-.482-.887-.987-1.784-1.435-2.718M202.142 110.717c.656 4.72 1.246 9.44 1.836 14.122s1.741 9.912 2.605 14.547 5.532 24.303 6.249 28.995c-1.085-4.626-6.277-24.143-7.188-28.82-.911-4.678-1.945-9.912-2.403-14.632a399 399 0 0 1-1.099-14.212M184.536 110.92l-.774 12.362c-.118 2.062-.25 4.12-.339 6.183s-.218 4.13-.185 6.164.17 21.816-.108 25.96c-.472-4.607-.708-21.769-.85-25.936 0-4.182.368-8.293.741-12.419q.56-6.186 1.515-12.314"/><path fill="#37474F" d="m190.455 166.894-.703 4.304s-1.723 1.1-5.338.727-4.14-1.543-4.14-1.543v-4.05s.869.84 4.173 1.213a14.25 14.25 0 0 0 6.008-.651M218.51 166.168l.321 4.347s-1.416 1.473-5.022 1.954c-3.606.482-4.385-.538-4.385-.538l-.944-3.936s1.039.618 4.338.212a14.25 14.25 0 0 0 5.692-2.039"/><path fill="#F7921E" d="m135.835 41.804-32.771-22.892-.033.019v66.514l.033-.014 41.999-30.902z" opacity=".1"/><path fill="#FFA8A7" d="M185.816 52.443c-3.833.708-6.099 1.577-9.134 6.084-2.553 3.776-7.769 10.616-7.769 10.616s-6.981-6.09-8.024-7.878c-1.557-2.657-13.117-2.034-10.454 1.789.741 1.071 2.874 1.822 3.993 3.252 2.676 3.436 5.531 8.77 8.113 11.918 2.766 3.37 5.263 5.249 6.712 5.249 1.813 0 4.517-2.94 5.282-3.819 3.04-3.497 9.336-10.917 9.336-10.917z"/><path fill="#F28F8F" d="M157.056 63.092a1.4 1.4 0 0 1-.613-.675 3 3 0 0 1-.246-.897c-.113-.689-.203-1.383-.306-2.072-.104-.689-.17-1.298-.288-1.944a2.54 2.54 0 0 0-.666-1.416c-.236-.222-.703.075-.434.33.377.466.588 1.044.599 1.642.114.756.227 1.506.335 2.261a10 10 0 0 0 .383 2.035 1.53 1.53 0 0 0 1.232 1.024c.212.033.137-.24.004-.288"/><path fill="#455A64" d="M185.816 52.104c-3.875.726-5.452 1.274-7.784 4.153-2.331 2.88-7.41 10.47-7.41 10.47a13.35 13.35 0 0 0 3.205 5.276 16 16 0 0 0 4.597 3.214l6.056-6.466z"/><path fill="#37474F" d="M154.904 47.982c-.646.388-.472 1.591.052 4.475s1.454 9.133 1.454 9.133-1.468.628-2.624 1.166-3.149 1.024-4.111.109c-.963-.916.056-2.025 1.642-2.78l-2.19-7.75s-.052-1.417 2.36-2.743 3.417-1.61 3.417-1.61"/><path fill="#455A64" d="M150.071 50.592c-.986.944-.944 1.737-.944 1.737l2.19 7.75c.18.628.727 1.888 1.704 1.322.977-.567 2.006-2.993 1.01-5.995a8.24 8.24 0 0 0-3.96-4.814"/><path fill="#000" d="M154.905 47.982s-1.039.26-3.437 1.61-2.36 2.742-2.36 2.742l.194.685c.878-.6 2.152-1.497 3.162-2.36 1.209-1.015 1.6-1.459 2.016-1.76.028-.468.146-.76.425-.917" opacity=".4"/><path fill="#455A64" d="M151.01 41.256c.07-.27-.279-.397-1.572-.619-3.111-.528-6.75-.75-10.516.392l-.968.274 8.114 7.873-.392 1.562 7.764-2.209c1.954-.557 2.686-1.246 2.95-2.294l.137-.552-3.068-2.974z"/><path fill="#37474F" d="M155.617 42.847c-.604-.562-2.001-.944-3.106-1.214-.831-.203-1.501-.377-1.501-.377s-3.162.609-1.27 2.51c1.893 1.903 7.118.572 6.651 2.465.505-2.006.278-2.393-.774-3.385"/><path fill="#F7921E" d="M149.665 41.799c-.557.392-.873 1.02.076 1.968.67.675 1.765.944 2.874 1.09a5.2 5.2 0 0 1-2.662-1.685c-.302-.453-.552-1.076-.288-1.373"/><path fill="#37474F" d="M154.163 48.292c-.189.76-4.847 4.064-7.472 5.504a22 22 0 0 1-2.246 1.086 2.92 2.92 0 0 1-3.139-.595l-5.018-4.862a2.92 2.92 0 0 1-.797-2.799l.495-1.959a2.13 2.13 0 0 0-.434-1.675.88.88 0 0 1-.121-.808.88.88 0 0 1 .593-.561c.552-.16 1.19-.345 1.742-.472 1.156-.321 2.511.736 5.513 3.672s3.559 4.39 3.233 5.664z"/><path fill="#263238" d="M146.526 50.494c-.364 1.449-.68 3.304-1.26 4.035.495-.415.703-.472 1.619-4.135z"/><path fill="#263238" d="M135.552 42.993a2.1 2.1 0 0 1 .42 1.676l-.495 1.958a2.91 2.91 0 0 0 .797 2.8l5.018 4.86a2.91 2.91 0 0 0 3.139.596q1.153-.48 2.246-1.086l.614-.35c-.047 0-2.96 1.374-3.819 1.327-1.161-.061-1.737-.472-2.884-1.624-1.241-1.24-3.615-3.6-4.167-4.248-.199-.23-.425-.868-.071-1.085.835-.51 1.803-.472 2.02-.27l5.348 5.193c.33-1.322-.066-2.63-1.652-4.446a54 54 0 0 0-5.305-5.056c-1.176-.972-1.185-1.345-.737-1.61a.884.884 0 0 0-.472 1.365"/><path fill="#F7921E" d="M143.732 52.743s.392-1.208-.651-2.79c-1.199-1.807-3.833-4.195-4.805-5.135l-.529 2.124z"/><path fill="#263238" d="m144.662 43.984.618.6a1.99 1.99 0 0 0 1.719.472c.528-.151.618-.604.193-1.01l-.618-.605a1.97 1.97 0 0 0-1.718-.472c-.529.142-.614.595-.194 1.015"/><path fill="#F28F8F" d="m154.626 50.592.349 2.18 2.691.293c-1.133-1.057-3.04-2.473-3.04-2.473M155.41 60.033a1.47 1.47 0 0 0-.775-1.326c1.006-.222 1.124-.703 1.053-1.194s-.868-1.025-.868-1.025q.204-.06.37-.197.163-.139.257-.331c.137-.397-.278-1.1-.977-1.454-.698-.354-1.977-.123-2.714-.189s-2.482-1.416-2.482-1.416l-.161-.57-2.185 1.34a1 1 0 0 1 .236.877c-.128.505-.51 1.19-.222 1.671a1.06 1.06 0 0 1 .203 1.067 1.47 1.47 0 0 0 0 1.416 1.05 1.05 0 0 1 0 .883 1.01 1.01 0 0 0 .33 1.194c.857.643 1.781 1.19 2.757 1.633.859.293.972.142 1.888-.057s1.779-.439 1.789-.778c.009-.34-.354-.61-.784-.75.227-.058.472-.114.67-.161.963-.25 1.515-.27 1.615-.633"/><path fill="#FFA8A7" d="M160.884 61.264c-1.69-2.652-1.293-6.504-2.02-7.377s-4.073-2.167-4.72-2.176c-1.024 0-2.53 1.76-3.488 2.889-.661.778.217 1.236.977 1.24a3.74 3.74 0 0 0 2.36-.967l1.416.642s1.057 6.99 1.1 6.83c.042-.16 4.375-1.08 4.375-1.08"/><path fill="#F28F8F" d="M168.913 69.142c1.416 1.345 3.243 3.276 3.573 5.154.703-2.52-1.704-4.97-2.766-6.216z"/><path fill="#455A64" d="M202.543 50.795c1.983.41 4.498.92 7.024 1.619 2.525.698 2.898.85 3.719 1.137 0 0 1.345 5.782.557 19.636-.118 2.053-1.605 7.552-1.86 11.8a68 68 0 0 0 .359 13.272s-5.046 4.881-19.064 3.823c-10.998-.826-13.83-5.626-13.83-5.626s.123-17.582.411-25.69c.373-10.654 3.601-16.804 5.975-18.664l7.217-1.203z"/><path fill="#37474F" d="M205.407 28.037s1.7.128 2.809 2.266c.561 1.076.944 3.035-.571 8.633a22.7 22.7 0 0 1-2.71 6.183 2.8 2.8 0 0 1-1.609 1.284l.113-4.305.161-3.002s-2.422-2.195-2.629-4.352c-.269-2.77.816-4.342.816-4.342z"/><path fill="#37474F" d="M205.997 28.178c-.42-2.416-3.492-5.305-9.411-5.621-4.852-.26-7.552 1.496-9.379 4.248-1.888 2.86-.576 6.49-.576 6.49l15.241-.996z"/><path fill="#FFA8A7" d="M207.39 43.358c-2.228 1.085-3.247-.68-3.247-.68l-.335 8.86c-4.281 5.73-15.713 3.657-11.026-.633v-2.03a13 13 0 0 1-1.931-.189c-1.973-.311-3.355-1.618-3.941-3.776-.868-3.162-.604-10.02-.08-13.758a3.87 3.87 0 0 1 1.845-2.743c2.36-1.17 4.565.52 7.864 1.808 1.369.533 4.687.765 5.56.354-1.152 1.274-1.142 5.291.557 6.924.21.42.498.795.85 1.105.722.632 1.312-.991 1.921-1.629a2.492 2.492 0 0 1 3.87.893 4.05 4.05 0 0 1-1.907 5.494"/><path fill="#F7921E" d="M192.782 50.924S186.561 53.912 184.71 61s-2.336 27.527-2.402 34.248c-.066 6.722 0 9.223 0 9.223s0-.552-3.842-2.105c0-7.882.59-34.286 1.704-39.591 1.841-8.751 5.664-10.672 5.664-10.672z"/><path fill="#FAFAFA" d="m178.74 86.754-.071 2.695a16.7 16.7 0 0 0 3.705 1.647c0-.835.043-1.732.066-2.671a27 27 0 0 1-3.7-1.671M178.579 93.545c0 .84-.033 1.652-.047 2.43a13.5 13.5 0 0 0 3.776 1.558v-2.355a15.4 15.4 0 0 1-3.729-1.633"/><path fill="#F7921E" d="m203.846 50.594-.038.944a78 78 0 0 0-2.648 10.384c-.585 3.2-.807 6.933-1.062 10.261-.623 8.076-.736 27.376-.755 34.027 4.649.91 11.134 0 14.046-2.172-.552-8.873-1.099-13.466-.608-20.154.509-7.038 3.422-20.136.693-30.576-2.463-.699-6.423-1.888-9.628-2.714"/><path fill="#FAFAFA" d="M212.823 95.367c-2.455 1.992-8.057 3.587-13.433 3.427v2.506s8.84.368 13.607-3.478a86 86 0 0 1-.174-2.455M199.47 91.37c0 .85-.024 1.685-.033 2.511 6.48.316 11.021-1.416 13.216-2.478a75 75 0 0 1-.038-2.757 24.35 24.35 0 0 1-13.145 2.724"/><path fill="#F28F8F" d="M192.791 48.895c2.591 0 4.894-.336 6.424-.977 1.529-.642 2.884-2.714 3.327-4.768 0 1.652-.727 4.584-3.044 5.797s-5.017 1.283-6.712 1.321z"/><path fill="#37474F" d="m196.393 33.738 2.157 1.006a1.252 1.252 0 0 0-.6-1.614 1.155 1.155 0 0 0-1.557.608M187.849 34.097l2.256-.798a1.14 1.14 0 0 0-1.031-.82 1.2 1.2 0 0 0-.46.065 1.253 1.253 0 0 0-.765 1.553"/><path fill="#263238" d="M197.572 36.3a.96.96 0 0 1-.662.846.968.968 0 1 1-.235-1.884.94.94 0 0 1 .858.66q.058.184.039.379M190.247 35.96a.97.97 0 0 1-1.223.86.969.969 0 0 1 .326-1.898.97.97 0 0 1 .897 1.039"/><path fill="#F28F8F" d="m193.669 34.545-.76 6.136-3.483-1.326a14.45 14.45 0 0 1 4.243-4.81"/><path fill="#B16668" d="m195.458 42.367-2.549.736a1.3 1.3 0 0 0 .61.814 1.3 1.3 0 0 0 1.009.13 1.38 1.38 0 0 0 .93-1.68"/><path fill="#F28F8F" d="M195.175 42.81q.16-.018.321 0a1.368 1.368 0 0 1-.944 1.241c-.136.04-.279.054-.42.042a1.215 1.215 0 0 1 1.043-1.284"/><path fill="#F7921E" d="m143.052 77.653 19.734 5.82 9.473-8.774-19.734-5.82z"/><path fill="#fff" d="m143.052 77.653 19.734 5.82 9.473-8.774-19.734-5.82z" opacity=".7"/><path fill="#F7921E" d="m143.052 77.654 22.047 26.956 19.729 5.82-22.042-26.956z"/><path fill="#fff" d="m143.052 77.654 22.047 26.956 19.729 5.82-22.042-26.956z" opacity=".4"/><path fill="#F7921E" d="m172.259 74.7 22.043 26.96-9.473 8.77-22.043-26.956z"/><path fill="#fff" d="m172.259 74.7 22.043 26.96-9.473 8.77-22.043-26.956z" opacity=".6"/><path fill="#263238" d="m154.333 80.982-2.832-.835 22.042 26.955 2.832.836z"/><path fill="#455A64" d="m155.64 76.313-4.135 3.832 2.832.836 4.135-3.828z"/><path fill="#F7921E" d="m189.95 96.33-7.118-8.704c-.472.127-.873.472-1.355.571-.779.135-1.569.198-2.36.189a21.4 21.4 0 0 1-4.753-.765c-.859-.222-1.713-.472-2.572-.703-.496-.132-1.166-.189-1.378.278-.161.36.103.765.382 1.039 1.633 1.6 4.172 1.77 6.136 2.898.146.085.311.222.269.382-.043.16-.212.198-.359.227-1.826.335-6.258.656-8.024 1.222-.325.104-.708.307-.694.651a.75.75 0 0 0 .411.548c.413.263.879.432 1.364.496a.83.83 0 0 0 .222 1.043c.315.23.684.375 1.071.42q.941.178 1.888.278c0 .27-.401.241-.651.33a.65.65 0 0 0-.297.84c.147.301.38.55.67.718a4.3 4.3 0 0 0 2.615.944 5 5 0 0 0 1.18-.254c3.106-.944 8.751-2.36 11.989-2.54.453-.038.911-.061 1.364-.109" opacity=".6"/><path fill="#FFA8A7" d="M188.935 88.508c-1.288.184-2.482-.727-3.492-2.049s-1.393-2.54-3.304-2.874c-1.912-.335-2.95-.435-2.95-.435l1.675 2.054s1.506 1.958-.292 2.412c-1.143.283-2.36.273-4.433-.392-3.388-1.095-5.258-1.888-5.63-.864-.373 1.024.665 1.336 1.916 1.888s4.295 1.666 5.06 2.048.849.737-.708 1.006c-1.558.269-6.608.675-7.647.783-1.038.109-1.51.84-.991 1.298s2.36.727 2.36.727-.977 1.265.944 1.6 6.504-.103 6.783-.047c.278.057-3.12 1.199-3.597 1.218s-2.36-.727-2.605-.307.033.887.797 1.199c.765.312 1.818 1.156 2.629.986.812-.17 5.013-1.68 6.231-1.935s7.509-1.656 7.509-1.656z"/><path fill="#FFA8A7" d="M213.286 53.55c-3.031 1.79-5.494 6.642-6.009 11.24-.514 4.596-1.595 16.33-1.595 16.33s-10.356 4.527-13.065 5.41c-2.71.882-5.664 1.51-7.175-.071l1.086 9.322s10.464-1.662 15.382-2.592c5.192-.981 8.496-1.925 10.097-2.577 2.832-1.151 3.61-1.34 4.493-6.258.765-4.248 1.562-12.395 2.11-16.563s1.17-12.395-5.324-14.24"/><path fill="#F28F8F" d="M170.48 94.124c.808 0 1.61-.062 2.417-.095l2.412-.141 1.208-.062q.6-.005 1.195-.09l2.402-.273c-.784.18-1.576.335-2.36.448q-1.204.147-2.417.16c-.807.038-1.609.076-2.416.086s-1.619.028-2.441-.033"/><path fill="#455A64" d="M213.054 53.174c1.926.472 4.107 1.369 5.131 4.319s1.194 4.658.727 10.299-1.284 10.775-1.284 10.775-1.666.614-5.636.321c-3.969-.292-6.197-2.086-6.197-2.086s.807-8.845 1.194-12.56 2.011-9.058 6.065-11.068"/><path fill="#E0E0E0" d="m122.492 97.08-24.139 13.928c-2.643 1.529-4.81 5.277-4.81 8.331v53.289l-2.241 1.293v-56.395c0-3.054 2.166-6.806 4.81-8.331l26.483-15.292c2.648-1.525 4.81-.279 4.81 2.78v56.399l-2.237 1.307V98.613c0-1.685-1.213-2.374-2.676-1.534"/><path fill="#455A64" d="M143.727 215.835c0-2.747-1.925-6.089-4.304-7.462-1.251-.723-2.36-.751-3.158-.227l-2.908 1.661 6.184 10.502 2.879-1.656c.802-.449 1.307-1.416 1.307-2.818"/><path fill="#37474F" d="M136.402 210.129c2.384 1.373 4.309 4.72 4.309 7.462s-1.925 3.866-4.309 2.45c-2.383-1.416-4.309-4.72-4.309-7.462s1.93-3.843 4.309-2.45"/><path fill="#263238" d="M134.943 214.243c0-1.076.656-1.567 1.459-1.104a3.49 3.49 0 0 1 1.458 2.789c0 1.072-.651 1.567-1.458 1.1a3.5 3.5 0 0 1-1.459-2.785"/><path fill="#F0F0F0" d="M141.452 205.525s0 4.914-2.36 6.656c-.439.325-.911.552-1.185.783-.599.5-.203 1.416.524 1.803 1.058.567 6.811-.967 9.247-5.64z"/><path fill="#FAFAFA" d="M139.22 206.824s0 4.918-2.36 6.66c-.439.326-.911.552-1.185.784-.599.472-.203 1.416.524 1.803 1.057.566 6.811-.968 9.246-5.664z"/><path fill="#263238" d="M136.402 214.607a.9.9 0 0 1 .415.718c0 .264-.184.368-.415.236a.91.91 0 0 1-.411-.713c0-.264.184-.373.411-.241"/><path fill="#455A64" d="M96.947 188.828c0-2.752-1.93-6.094-4.31-7.468-1.25-.717-2.36-.745-3.157-.221l-2.903 1.661 6.179 10.497 2.879-1.656c.807-.444 1.312-1.412 1.312-2.813"/><path fill="#37474F" d="M89.622 183.101c2.36 1.374 4.31 4.72 4.31 7.462s-1.931 3.861-4.31 2.488-4.31-4.72-4.31-7.463c0-2.742 1.931-3.86 4.31-2.487"/><path fill="#263238" d="M88.163 187.231c0-1.072.651-1.567 1.459-1.1a3.49 3.49 0 0 1 1.458 2.785c0 1.076-.651 1.567-1.458 1.104a3.48 3.48 0 0 1-1.459-2.789"/><path fill="#F0F0F0" d="M94.672 178.504s0 4.918-2.36 6.66c-.443.325-.91.552-1.19.783-.594.472-.197 1.416.53 1.803 1.052.567 6.806-.967 9.246-5.664z"/><path fill="#FAFAFA" d="M92.44 179.797s0 4.918-2.36 6.655c-.444.33-.91.557-1.19.788-.594.496-.202 1.416.525 1.799 1.057.566 6.81-.944 9.246-5.641z"/><path fill="#263238" d="M89.621 187.6a.92.92 0 0 1 .411.713c0 .264-.184.373-.41.241a.96.96 0 0 1-.416-.718c0-.264.189-.363.415-.236"/><path fill="#455A64" d="m89.046 175.233 40.616-23.454 63.186 36.481-40.62 23.454z"/><path fill="#37474F" d="M89.046 175.232v2.606l63.182 36.481v-2.606z"/><path fill="#263238" d="M192.848 188.26v2.605l-40.62 23.454v-2.606z"/><path fill="#37474F" d="m92.6 175.12 35.58 20.551 37.59-21.674-35.678-20.499z"/><path fill="#F7921E" d="m162.329 151.491-32.592-18.843-34.319 19.857 32.592 18.843z"/><path fill="#fff" d="m162.329 151.491-32.592-18.843-34.319 19.857 32.592 18.843z" opacity=".3"/><path fill="#F7921E" d="m128.01 194.126 34.319-19.857V151.49l-34.319 19.857z"/><path fill="#455A64" d="M132.003 185.885a.77.77 0 0 1-.378-.099 1.16 1.16 0 0 1-.472-1.048v-3.323l.156.028 2.426-1.416v3.455a2.83 2.83 0 0 1-1.194 2.257 1.1 1.1 0 0 1-.538.146m-.472-4.007v2.86a.8.8 0 0 0 .278.713.56.56 0 0 0 .529-.057 2.47 2.47 0 0 0 .996-1.921v-.25h-.897l-.175-1.213zm1.241.944h.562v-2.134l-1.445.845.718.127z"/><path fill="#455A64" d="M132.442 188.355a.2.2 0 0 1-.076-.015.198.198 0 0 1-.105-.108.2.2 0 0 1-.013-.075v-2.573a.193.193 0 1 1 .387 0v2.596a.194.194 0 0 1-.193.175"/><path fill="#455A64" d="M131.305 189.004a.199.199 0 0 1-.17-.099.2.2 0 0 1-.018-.146.2.2 0 0 1 .088-.118l2.261-1.303a.2.2 0 0 1 .072-.026.2.2 0 0 1 .144.039.198.198 0 0 1 .068.205.2.2 0 0 1-.09.117l-2.256 1.303a.2.2 0 0 1-.099.028M139.356 184.53a.4.4 0 0 1-.212-.057.51.51 0 0 1-.231-.472v-.528a.193.193 0 0 1 .33-.137.2.2 0 0 1 .057.137v.528a.2.2 0 0 0 .005.07.2.2 0 0 0 .033.062s.061 0 .127-.033a1.14 1.14 0 0 0 .359-.878v-3.455a.2.2 0 0 1 .196-.167c.047 0 .093.017.129.047a.2.2 0 0 1 .067.12v3.455a1.5 1.5 0 0 1-.553 1.213.6.6 0 0 1-.307.095"/><path fill="#455A64" d="M137.308 181.51v-.335a5.5 5.5 0 0 1 2.487-4.309 1.646 1.646 0 0 1 2.681 1.548v.113zm3.653-4.606c-.345.014-.68.118-.972.302a5.13 5.13 0 0 0-2.275 3.62l4.37-2.521a1.44 1.44 0 0 0-.599-1.269 1 1 0 0 0-.524-.132M146.337 180.552a.2.2 0 0 1-.074-.015.193.193 0 0 1-.119-.179v-6.608c0-.051.02-.1.056-.137a.196.196 0 0 1 .274 0 .2.2 0 0 1 .057.137v6.608a.193.193 0 0 1-.194.194"/><path fill="#455A64" d="M145.766 175.251a.2.2 0 0 1-.075 0 .2.2 0 0 1-.103-.107.2.2 0 0 1 .004-.148l.689-1.596.774.892q.027.028.042.063a.203.203 0 0 1 0 .148.2.2 0 0 1-.042.063.2.2 0 0 1-.279-.023l-.363-.42-.472 1.029a.19.19 0 0 1-.175.099M148.136 179.528a.193.193 0 0 1-.194-.193v-6.608a.194.194 0 0 1 .387 0v6.608c0 .051-.02.1-.056.137a.2.2 0 0 1-.137.056"/><path fill="#455A64" d="M147.564 174.227a.14.14 0 0 1-.075 0 .2.2 0 0 1-.064-.042.2.2 0 0 1-.056-.138q0-.039.016-.075l.694-1.595.769.887a.2.2 0 0 1 .043.063.2.2 0 0 1 .016.074.19.19 0 0 1-.122.179.2.2 0 0 1-.148 0 .2.2 0 0 1-.063-.042l-.363-.42-.449 1.029a.2.2 0 0 1-.198.08"/><path fill="#F7921E" d="m128.01 194.127-32.592-18.838v-22.783l32.592 18.842z"/><path fill="#000" d="m128.01 194.127-32.592-18.838v-22.783l32.592 18.842z" opacity=".1"/><path fill="#FAFAFA" d="m99.539 166.283 9.581 5.523a.97.97 0 0 1 .434.75v6.646c0 .547-.387.774-.863.5l-9.563-5.527a.95.95 0 0 1-.434-.746v-6.65c-.014-.548.373-.769.845-.496"/><path fill="#455A64" d="m99.303 167.316.325.189v5.867l-.325-.189zM100.624 168.082l.562.33v5.867l-.562-.33zM101.95 168.846l.326.189v5.866l-.326-.188zM102.951 169.412l.652.387v5.867l-.652-.387zM104.599 170.375l.325.189v5.867l-.325-.189zM105.552 170.914l.698.415v5.867l-.698-.415zM107.246 171.904l.326.189v5.867l-.326-.189zM108.002 172.334l.165.094v5.867l-.165-.094zM106.643 171.584l.165.094v5.867l-.165-.094zM103.976 170.021l.165.095v5.867l-.165-.095zM102.517 169.182l.16.094v5.867l-.16-.09zM101.464 168.605l.165.095v5.867l-.165-.095zM100.044 167.742l.16.09v5.872l-.16-.095zM108.572 172.67l.326.189v5.867l-.326-.189z"/><path fill="#37474F" d="m109.102 163.866 2.227 1.289v-3.46l-2.227-1.289z"/><path fill="#455A64" d="m111.329 161.694 34.32-19.857-2.228-1.288-34.319 19.857z"/><path fill="#000" d="m95.89 152.236 26.503 15.255 33.815-19.55-26.47-15.293z" opacity=".1"/><path fill="#F7921E" d="m153.522 126.018-26.385-15.204-31.19 18.036 26.385 15.203z"/><path fill="#fff" d="m153.522 126.018-26.385-15.204-31.19 18.036 26.385 15.203z" opacity=".7"/><path fill="#F7921E" d="m122.332 165.935 31.19-18.04v-21.877l-31.19 18.035z"/><path fill="#fff" d="m122.332 165.935 31.19-18.04v-21.877l-31.19 18.035z" opacity=".6"/><path fill="#455A64" d="M126.584 157.519a.7.7 0 0 1-.33-.084 1.03 1.03 0 0 1-.411-.916v-2.884l.137.024 2.105-1.237v3.002a2.444 2.444 0 0 1-1.033 1.963 1 1 0 0 1-.468.132m-.406-3.488v2.488a.68.68 0 0 0 .246.618.47.47 0 0 0 .472-.047 2.13 2.13 0 0 0 .868-1.671v-.222h-.778l-.156-1.052zm1.081.831h.472v-1.845l-1.26.736.623.113z"/><path fill="#455A64" d="M126.949 159.661a.18.18 0 0 1-.121-.049.18.18 0 0 1-.049-.121v-2.256a.2.2 0 0 1 .003-.073.2.2 0 0 1 .035-.065.15.15 0 0 1 .058-.044.164.164 0 0 1 .143 0 .17.17 0 0 1 .092.109.2.2 0 0 1 .004.073v2.256a.17.17 0 0 1-.165.17"/><path fill="#455A64" d="M125.967 160.227a.157.157 0 0 1-.147-.085.17.17 0 0 1-.016-.128.17.17 0 0 1 .078-.103l1.963-1.133a.174.174 0 0 1 .138-.033.2.2 0 0 1 .067.029.2.2 0 0 1 .048.055.177.177 0 0 1 .012.141.2.2 0 0 1-.039.061.2.2 0 0 1-.06.04l-1.959 1.133a.2.2 0 0 1-.085.023M132.957 156.319a.36.36 0 0 1-.184-.047.47.47 0 0 1-.203-.406v-.472c0-.045.018-.088.049-.12a.17.17 0 0 1 .291.12v.472c0 .071 0 .104.033.113a.15.15 0 0 0 .108-.028 1 1 0 0 0 .316-.765v-3.002a.2.2 0 0 1 .004-.073.2.2 0 0 1 .034-.064.17.17 0 0 1 .26 0 .17.17 0 0 1 .037.137v3.002a1.27 1.27 0 0 1-.472 1.053.55.55 0 0 1-.273.08"/><path fill="#455A64" d="M131.178 153.714v-.292a4.793 4.793 0 0 1 2.161-3.748 1.42 1.42 0 0 1 1.657-.173 1.41 1.41 0 0 1 .675 1.523v.094zm3.172-4.007a1.7 1.7 0 0 0-.841.264 4.47 4.47 0 0 0-1.977 3.149l3.776-2.195a1.25 1.25 0 0 0-.524-1.1.87.87 0 0 0-.434-.113zM139.026 152.88a.2.2 0 0 1-.065-.013.172.172 0 0 1-.105-.157v-5.749a.17.17 0 0 1 .17-.17c.045 0 .089.018.121.05a.17.17 0 0 1 .049.12v5.749a.17.17 0 0 1-.049.12.17.17 0 0 1-.121.05"/><path fill="#455A64" d="M138.531 148.296a.16.16 0 0 1-.141-.076.15.15 0 0 1-.025-.078.2.2 0 0 1 .015-.082l.6-1.392.67.774a.2.2 0 0 1 .037.055.2.2 0 0 1 .013.065.2.2 0 0 1-.013.066.165.165 0 0 1-.155.104.165.165 0 0 1-.118-.049l-.321-.368-.387.896a.17.17 0 0 1-.074.07.17.17 0 0 1-.101.015M140.589 151.987a.2.2 0 0 1-.065-.013.2.2 0 0 1-.055-.037.2.2 0 0 1-.037-.055.2.2 0 0 1-.013-.065v-5.749a.17.17 0 0 1 .29-.12.17.17 0 0 1 .05.12v5.749a.2.2 0 0 1-.013.065.2.2 0 0 1-.037.055.164.164 0 0 1-.12.05"/><path fill="#455A64" d="M140.094 147.38h-.066a.17.17 0 0 1-.085-.222l.599-1.392.67.778a.17.17 0 0 1 .04.122.17.17 0 0 1-.059.114.2.2 0 0 1-.057.032.2.2 0 0 1-.064.008.17.17 0 0 1-.115-.058l-.32-.369-.388.897a.16.16 0 0 1-.065.067.17.17 0 0 1-.09.023"/><path fill="#F7921E" d="m122.332 165.935-26.385-15.208V128.85l26.385 15.203z"/><path fill="#fff" d="m122.332 165.935-26.385-15.208V128.85l26.385 15.203z" opacity=".4"/><path fill="#FAFAFA" d="m99.54 141.315 9.581 5.522a.97.97 0 0 1 .434.75v6.646c0 .548-.387.774-.863.501l-9.563-5.528a.93.93 0 0 1-.434-.745v-6.651c-.014-.547.373-.769.845-.495"/><path fill="#455A64" d="m99.303 142.35.325.188v5.867l-.325-.188zM100.625 143.113l.562.331v5.867l-.562-.331zM101.951 143.879l.326.189v5.867l-.326-.189zM102.952 144.445l.652.387v5.867l-.652-.387zM104.599 145.408l.325.189v5.867l-.325-.189zM105.553 145.945l.698.416v5.867l-.698-.416zM107.247 146.938l.326.188v5.867l-.326-.189zM108.002 147.365l.165.095v5.867l-.165-.095zM106.643 146.615l.165.095v5.867l-.165-.095zM103.976 145.053l.165.094v5.867l-.165-.094zM102.518 144.213l.16.094v5.867l-.16-.089zM101.465 143.637l.165.089v5.872l-.165-.094zM100.044 142.773l.16.09v5.872l-.16-.095zM108.573 147.701l.326.184v5.872l-.326-.189z"/><path fill="#37474F" d="m106.846 138.941 2.482 1.435v-3.851l-2.482-1.435z"/><path fill="#455A64" d="m109.328 136.525 31.195-18.04-2.488-1.43-31.189 18.035z"/><path fill="#37474F" d="M163.004 183.815c2.969 1.718 7.783 1.718 10.757 0s2.969-4.494 0-6.212-7.788-1.713-10.762 0c-2.973 1.714-2.969 4.498.005 6.212"/><path fill="#EBEBEB" d="M174.795 180.445v-12.824h-12.839v12.824c-.052.987.567 1.987 1.888 2.738 2.506 1.449 6.575 1.449 9.086 0 1.298-.751 1.921-1.751 1.865-2.738"/><path fill="#FAFAFA" d="M163.84 170.24c2.506 1.449 6.574 1.449 9.086 0 2.511-1.449 2.506-3.776 0-5.244-2.507-1.468-6.58-1.449-9.086 0s-2.512 3.795 0 5.244"/><path fill="#EBEBEB" d="M164.118 170.009c2.36 1.326 6.174 1.326 8.529 0s2.36-3.488 0-4.819-6.174-1.326-8.529 0-2.355 3.507 0 4.819"/><path fill="#F5F5F5" d="M172.647 165.831c-2.36-1.327-6.174-1.327-8.529 0-1.039.585-1.619 1.331-1.742 2.1.123.765.703 1.51 1.742 2.096 2.36 1.326 6.173 1.326 8.529 0 1.033-.586 1.614-1.331 1.737-2.096-.128-.755-.704-1.515-1.737-2.1"/><path fill="#F7921E" d="M161.956 178.278c0 .944.618 1.911 1.888 2.638 2.506 1.449 6.575 1.449 9.086 0 1.251-.722 1.888-1.671 1.888-2.619v-8.591c0 .944-.628 1.888-1.888 2.625-2.511 1.449-6.58 1.449-9.086 0-1.265-.727-1.888-1.685-1.888-2.643z"/><path fill="#000" d="M161.956 178.278c0 .944.618 1.911 1.888 2.638 2.506 1.449 6.575 1.449 9.086 0 1.251-.722 1.888-1.671 1.888-2.619v-8.591c0 .944-.628 1.888-1.888 2.625-2.511 1.449-6.58 1.449-9.086 0-1.265-.727-1.888-1.685-1.888-2.643z" opacity=".3"/><path fill="#000" d="M171.013 183.942c-2.36.609-5.234.363-7.174-.76-1.308-.751-1.926-1.747-1.888-2.743v-12.824c0 .944.628 1.888 1.888 2.625a7.6 7.6 0 0 0 2.629.92v10.856c0 1.057 1.572 2.336 4.545 1.926" opacity=".1"/><path fill="#E0E0E0" d="m169.848 169.905-.685-.392c-.552-.321-.698-.751-.33-.968a1.95 1.95 0 0 1 1.675.194l.68.391c.552.321.703.751.33.968a1.93 1.93 0 0 1-1.67-.193"/><path fill="#F5F5F5" d="M169.135 169.141a.8.8 0 0 0 .731 0c.203-.113.203-.302 0-.42a.8.8 0 0 0-.731 0c-.203.118-.203.307 0 .42M170.481 169.873a.8.8 0 0 0 .731 0 .22.22 0 0 0 .107-.083.22.22 0 0 0 0-.259.22.22 0 0 0-.107-.083.83.83 0 0 0-.731 0 .22.22 0 0 0-.107.083.22.22 0 0 0 0 .259.22.22 0 0 0 .107.083"/><path fill="#37474F" d="M153.488 189.313c2.973 1.713 7.788 1.713 10.761 0 2.974-1.713 2.969-4.498 0-6.212s-7.788-1.713-10.761 0c-2.974 1.714-2.978 4.499 0 6.212"/><path fill="#EBEBEB" d="M165.288 185.939v-12.824h-12.852v12.824c-.052.992.566 1.988 1.888 2.743 2.506 1.449 6.575 1.449 9.081 0 1.303-.737 1.921-1.751 1.883-2.743"/><path fill="#FAFAFA" d="M154.319 175.74c2.506 1.444 6.575 1.444 9.081 0 2.507-1.444 2.511-3.8 0-5.249s-6.575-1.444-9.081 0c-2.506 1.445-2.511 3.8 0 5.249"/><path fill="#EBEBEB" d="M154.598 175.522c2.36 1.331 6.173 1.331 8.529 0s2.36-3.484 0-4.815-6.174-1.331-8.529 0c-2.356 1.331-2.356 3.484 0 4.815"/><path fill="#F5F5F5" d="M163.126 171.33c-2.36-1.331-6.174-1.331-8.529 0-1.038.586-1.619 1.331-1.742 2.096.123.765.704 1.51 1.742 2.096 2.36 1.331 6.174 1.331 8.529 0 1.034-.586 1.614-1.331 1.737-2.096-.123-.765-.703-1.529-1.737-2.096"/><path fill="#F7921E" d="M152.436 183.772c0 .944.618 1.888 1.888 2.643 2.506 1.449 6.575 1.449 9.081 0 1.255-.727 1.888-1.675 1.888-2.624v-8.59c0 .944-.628 1.888-1.888 2.624-2.506 1.444-6.575 1.444-9.081 0-1.265-.732-1.888-1.69-1.888-2.643z"/><path fill="#000" d="M152.436 183.772c0 .944.618 1.888 1.888 2.643 2.506 1.449 6.575 1.449 9.081 0 1.255-.727 1.888-1.675 1.888-2.624v-8.59c0 .944-.628 1.888-1.888 2.624-2.506 1.444-6.575 1.444-9.081 0-1.265-.732-1.888-1.69-1.888-2.643z" opacity=".3"/><path fill="#000" d="M161.512 189.442c-2.36.609-5.234.363-7.174-.76-1.308-.751-1.926-1.751-1.888-2.743v-12.824c0 .944.628 1.888 1.888 2.625a7.5 7.5 0 0 0 2.629.915v10.856c-.019 1.062 1.553 2.322 4.545 1.931" opacity=".1"/><path fill="#E0E0E0" d="m160.328 175.403-.684-.396c-.553-.317-.699-.751-.331-.944a1.92 1.92 0 0 1 1.676.188l.679.397c.553.316.704.75.331.944-.275.095-.568.128-.857.095a1.94 1.94 0 0 1-.814-.284"/><path fill="#F5F5F5" d="M159.624 174.639a.8.8 0 0 0 .732 0 .23.23 0 0 0 .107-.083.23.23 0 0 0 .041-.13.23.23 0 0 0-.148-.212.83.83 0 0 0-.732 0 .23.23 0 0 0-.107.083.23.23 0 0 0 .107.342M160.965 175.37a.83.83 0 0 0 .732 0 .23.23 0 0 0 .107-.083.23.23 0 0 0 0-.258.23.23 0 0 0-.107-.083.8.8 0 0 0-.732 0 .225.225 0 0 0-.107.341.23.23 0 0 0 .107.083"/><path fill="#37474F" d="M149.339 196.097c4.202 0 7.609-1.967 7.609-4.394s-3.407-4.394-7.609-4.394-7.609 1.967-7.609 4.394 3.407 4.394 7.609 4.394"/><path fill="#EBEBEB" d="M155.754 191.438v-12.825h-12.839v12.825c-.052.986.567 1.987 1.888 2.742 2.506 1.444 6.575 1.444 9.081 0 1.303-.755 1.921-1.756 1.87-2.742"/><path fill="#FAFAFA" d="M144.799 181.232c2.506 1.449 6.574 1.449 9.081 0s2.511-3.776 0-5.244-6.575-1.449-9.081 0c-2.507 1.449-2.512 3.795 0 5.244"/><path fill="#EBEBEB" d="M145.077 181.021c2.36 1.331 6.174 1.331 8.529 0s2.36-3.488 0-4.819-6.174-1.327-8.529 0-2.355 3.488 0 4.819"/><path fill="#F5F5F5" d="M153.607 176.825c-2.36-1.327-6.174-1.327-8.529 0-1.039.585-1.619 1.336-1.742 2.1.123.765.703 1.511 1.742 2.096 2.36 1.331 6.173 1.331 8.529 0 1.033-.585 1.614-1.331 1.737-2.096-.123-.764-.704-1.515-1.737-2.1"/><path fill="#F7921E" d="M142.915 189.272c0 .944.618 1.912 1.888 2.639 2.506 1.449 6.575 1.449 9.081 0 1.256-.723 1.888-1.671 1.888-2.62v-8.59c0 .944-.627 1.888-1.888 2.624-2.506 1.449-6.575 1.449-9.081 0-1.265-.727-1.888-1.685-1.888-2.643z"/><path fill="#000" d="M142.915 189.272c0 .944.618 1.912 1.888 2.639 2.506 1.449 6.575 1.449 9.081 0 1.256-.723 1.888-1.671 1.888-2.62v-8.59c0 .944-.627 1.888-1.888 2.624-2.506 1.449-6.575 1.449-9.081 0-1.265-.727-1.888-1.685-1.888-2.643z" opacity=".3"/><path fill="#E0E0E0" d="m150.808 180.899-.685-.392c-.552-.321-.698-.751-.33-.968a1.95 1.95 0 0 1 1.675.194l.68.392c.552.321.703.75.33.967a1.92 1.92 0 0 1-1.67-.193"/><path fill="#F5F5F5" d="M150.095 180.133a.8.8 0 0 0 .731 0c.203-.113.203-.302 0-.42a.8.8 0 0 0-.731 0c-.203.118-.203.307 0 .42M151.444 180.866a.8.8 0 0 0 .732 0c.203-.118.203-.307 0-.42a.8.8 0 0 0-.732 0c-.203.113-.203.302 0 .42"/><path fill="#000" d="M151.973 194.94c-2.36.609-5.235.358-7.17-.765-1.307-.75-1.93-1.746-1.888-2.737v-12.825c0 .944.633 1.888 1.888 2.625a7.6 7.6 0 0 0 2.624.915v10.856c0 1.072 1.572 2.337 4.546 1.931" opacity=".1"/><path fill="#37474F" d="M134.438 200.307c2.974 1.713 7.788 1.713 10.762 0s2.969-4.498 0-6.211-7.788-1.714-10.762 0c-2.973 1.713-2.968 4.498 0 6.211"/><path fill="#EBEBEB" d="M146.234 196.936v-12.829h-12.838v12.829c-.052.987.566 1.983 1.888 2.738 2.506 1.449 6.575 1.449 9.081 0 1.303-.755 1.921-1.751 1.869-2.738"/><path fill="#FAFAFA" d="M139.819 187.818c3.548 0 6.424-1.661 6.424-3.71s-2.876-3.71-6.424-3.71c-3.547 0-6.423 1.661-6.423 3.71s2.876 3.71 6.423 3.71"/><path fill="#EBEBEB" d="M135.552 186.53c2.36 1.331 6.174 1.331 8.529 0 2.356-1.331 2.36-3.484 0-4.815s-6.169-1.321-8.529-.014c-2.36 1.308-2.36 3.488 0 4.829"/><path fill="#F5F5F5" d="M144.086 182.322c-2.36-1.331-6.174-1.331-8.529 0-1.038.586-1.619 1.332-1.742 2.096.123.765.704 1.511 1.742 2.096 2.36 1.331 6.174 1.331 8.529 0 1.034-.585 1.614-1.331 1.737-2.096-.123-.764-.703-1.51-1.737-2.096"/><path fill="#F7921E" d="M133.396 194.765c0 .944.618 1.912 1.888 2.644 2.506 1.449 6.574 1.449 9.081 0 1.255-.727 1.888-1.676 1.888-2.625v-8.585c0 .944-.628 1.888-1.888 2.624-2.507 1.444-6.575 1.444-9.081 0-1.265-.732-1.888-1.69-1.888-2.643z"/><path fill="#000" d="M133.396 194.765c0 .944.618 1.912 1.888 2.644 2.506 1.449 6.574 1.449 9.081 0 1.255-.727 1.888-1.676 1.888-2.625v-8.585c0 .944-.628 1.888-1.888 2.624-2.507 1.444-6.575 1.444-9.081 0-1.265-.732-1.888-1.69-1.888-2.643z" opacity=".3"/><path fill="#000" d="M142.448 200.434c-2.36.609-5.23.363-7.17-.76-1.307-.75-1.925-1.751-1.888-2.742v-12.825c0 .944.628 1.888 1.888 2.625a7.5 7.5 0 0 0 2.629.915v10.856c.005 1.062 1.572 2.342 4.541 1.931" opacity=".1"/><path fill="#E0E0E0" d="m141.287 186.398-.684-.397c-.553-.316-.699-.75-.331-.944a1.939 1.939 0 0 1 1.676.189l.679.396c.553.317.704.751.331.944a1.94 1.94 0 0 1-1.671-.188"/><path fill="#F5F5F5" d="M140.938 185.718c.287 0 .519-.133.519-.298s-.232-.297-.519-.297-.519.133-.519.297c0 .165.232.298.519.298M141.924 186.365a.84.84 0 0 0 .732 0 .24.24 0 0 0 .107-.083.23.23 0 0 0 0-.259.23.23 0 0 0-.107-.083.8.8 0 0 0-.732 0 .225.225 0 0 0-.148.212c0 .046.015.092.041.13a.23.23 0 0 0 .107.083"/><path fill="#37474F" d="M172.439 189.272c2.974 1.718 7.788 1.718 10.762 0s2.969-4.494 0-6.212-7.788-1.713-10.762 0c-2.973 1.714-2.969 4.498 0 6.212"/><path fill="#EBEBEB" d="M184.235 185.901v-12.829h-12.838v12.829c-.052.987.566 1.983 1.888 2.738 2.506 1.449 6.575 1.449 9.081 0 1.303-.755 1.921-1.751 1.869-2.738"/><path fill="#FAFAFA" d="M173.28 175.696c2.506 1.449 6.575 1.449 9.081 0 2.507-1.449 2.511-3.799 0-5.244s-6.575-1.449-9.081 0-2.511 3.805 0 5.244"/><path fill="#EBEBEB" d="M173.554 175.479c2.36 1.331 6.173 1.331 8.529 0s2.36-3.484 0-4.815-6.174-1.331-8.529 0c-2.356 1.331-2.356 3.488 0 4.815"/><path fill="#F5F5F5" d="M182.082 171.287c-2.36-1.331-6.173-1.331-8.529 0-1.033.586-1.614 1.331-1.737 2.096.123.765.704 1.51 1.737 2.096 2.36 1.331 6.174 1.331 8.529 0 1.039-.586 1.619-1.331 1.742-2.096-.127-.765-.703-1.487-1.742-2.096"/><path fill="#F7921E" d="M171.396 183.73c0 .944.619 1.917 1.888 2.643 2.507 1.449 6.575 1.449 9.082 0 1.255-.722 1.888-1.67 1.888-2.624v-8.586c0 .944-.628 1.888-1.888 2.625-2.507 1.449-6.575 1.449-9.082 0-1.264-.732-1.888-1.69-1.888-2.643z"/><path fill="#000" d="M171.396 183.73c0 .944.619 1.917 1.888 2.643 2.507 1.449 6.575 1.449 9.082 0 1.255-.722 1.888-1.67 1.888-2.624v-8.586c0 .944-.628 1.888-1.888 2.625-2.507 1.449-6.575 1.449-9.082 0-1.264-.732-1.888-1.69-1.888-2.643z" opacity=".3"/><path fill="#000" d="M180.449 189.399c-2.36.609-5.235.363-7.17-.76-1.307-.751-1.925-1.751-1.888-2.742v-12.825c0 .944.628 1.888 1.888 2.625.811.468 1.703.78 2.629.92v10.856c0 1.057 1.572 2.36 4.541 1.926" opacity=".1"/><path fill="#E0E0E0" d="m179.288 175.362-.684-.392c-.553-.321-.699-.755-.331-.968.276-.095.569-.128.859-.095.29.032.569.13.817.284l.679.397c.553.316.699.75.331.944a1.899 1.899 0 0 1-1.671-.17"/><path fill="#F5F5F5" d="M178.57 174.596a.82.82 0 0 0 .737 0 .22.22 0 0 0 .15-.21.22.22 0 0 0-.15-.21.81.81 0 0 0-.737 0 .222.222 0 0 0 0 .42M179.921 175.327a.83.83 0 0 0 .732 0 .225.225 0 0 0 .107-.341.23.23 0 0 0-.107-.083.8.8 0 0 0-.732 0 .225.225 0 0 0-.107.341.23.23 0 0 0 .107.083"/><path fill="#37474F" d="M168.3 196.058c4.202 0 7.609-1.967 7.609-4.394s-3.407-4.394-7.609-4.394-7.609 1.967-7.609 4.394 3.407 4.394 7.609 4.394"/><path fill="#EBEBEB" d="M174.729 191.395V178.57h-12.853v12.825c-.052.991.566 1.987 1.888 2.742 2.506 1.449 6.575 1.449 9.081 0 1.303-.755 1.921-1.751 1.884-2.742"/><path fill="#FAFAFA" d="M163.759 181.189c2.507 1.449 6.575 1.449 9.082 0 2.506-1.449 2.511-3.776 0-5.244s-6.575-1.449-9.082 0c-2.506 1.449-2.511 3.795 0 5.244"/><path fill="#EBEBEB" d="M164.033 180.977c2.36 1.331 6.174 1.331 8.529 0s2.36-3.488 0-4.814-6.174-1.332-8.529 0c-2.355 1.331-2.355 3.483 0 4.814"/><path fill="#F5F5F5" d="M172.562 176.787c-2.36-1.331-6.174-1.331-8.529 0-1.034.586-1.614 1.331-1.737 2.096.123.765.703 1.51 1.737 2.096 2.36 1.331 6.174 1.331 8.529 0 1.038-.586 1.619-1.331 1.742-2.096-.123-.765-.704-1.51-1.742-2.096"/><path fill="#F7921E" d="M161.876 189.228c0 .944.618 1.888 1.888 2.643 2.506 1.445 6.575 1.445 9.081 0 1.256-.726 1.888-1.675 1.888-2.624v-8.586c0 .944-.627 1.888-1.888 2.62-2.506 1.449-6.575 1.449-9.081 0-1.265-.727-1.888-1.685-1.888-2.638z"/><path fill="#000" d="M161.876 189.228c0 .944.618 1.888 1.888 2.643 2.506 1.445 6.575 1.445 9.081 0 1.256-.726 1.888-1.675 1.888-2.624v-8.586c0 .944-.627 1.888-1.888 2.62-2.506 1.449-6.575 1.449-9.081 0-1.265-.727-1.888-1.685-1.888-2.638z" opacity=".3"/><path fill="#000" d="M170.953 194.897c-2.36.609-5.235.358-7.17-.765-1.307-.75-1.926-1.746-1.888-2.737V178.57c0 .944.628 1.888 1.888 2.625a7.6 7.6 0 0 0 2.629.915v10.856c-.023 1.062 1.548 2.337 4.541 1.931" opacity=".1"/><path fill="#E0E0E0" d="m169.764 180.865-.68-.391c-.552-.321-.699-.751-.33-.944a1.93 1.93 0 0 1 1.675.193l.68.392c.552.321.698.75.33.967a1.94 1.94 0 0 1-1.675-.217"/><path fill="#F5F5F5" d="M169.065 180.095a.83.83 0 0 0 .731 0 .22.22 0 0 0 .107-.083.22.22 0 0 0 0-.259.22.22 0 0 0-.107-.083.8.8 0 0 0-.731 0 .22.22 0 0 0-.107.083.22.22 0 0 0 0 .259.22.22 0 0 0 .107.083M170.405 180.823a.8.8 0 0 0 .732 0 .22.22 0 0 0 .15-.21.22.22 0 0 0-.15-.21.8.8 0 0 0-.732 0 .22.22 0 0 0-.15.21.22.22 0 0 0 .15.21"/><path fill="#37474F" d="M153.399 200.264c2.974 1.718 7.788 1.718 10.762 0s2.969-4.494 0-6.212-7.788-1.713-10.762 0c-2.973 1.714-2.969 4.499 0 6.212"/><path fill="#EBEBEB" d="M165.194 196.912v-12.848h-12.838v12.848c-.052.987.566 1.983 1.888 2.738 2.506 1.449 6.575 1.449 9.081 0 1.303-.774 1.921-1.77 1.869-2.738"/><path fill="#FAFAFA" d="M154.239 186.689c2.506 1.449 6.575 1.449 9.081 0 2.507-1.449 2.511-3.776 0-5.244s-6.575-1.449-9.081 0-2.511 3.795 0 5.244"/><path fill="#EBEBEB" d="M154.513 186.478c2.36 1.326 6.173 1.326 8.529 0s2.36-3.489 0-4.82-6.174-1.331-8.529 0c-2.356 1.331-2.356 3.489 0 4.82"/><path fill="#F5F5F5" d="M163.042 182.281c-2.36-1.331-6.173-1.331-8.529 0-1.033.586-1.614 1.332-1.737 2.096.123.765.704 1.511 1.737 2.096 2.36 1.331 6.174 1.331 8.529 0 1.039-.585 1.619-1.331 1.742-2.096-.123-.764-.703-1.51-1.742-2.096"/><path fill="#F7921E" d="M152.355 194.722c0 .944.619 1.917 1.888 2.644 2.507 1.449 6.575 1.449 9.082 0 1.255-.723 1.888-1.671 1.888-2.62v-8.59c0 .944-.628 1.888-1.888 2.624-2.507 1.449-6.575 1.449-9.082 0-1.264-.732-1.888-1.685-1.888-2.643z"/><path fill="#000" d="M152.355 194.722c0 .944.619 1.917 1.888 2.644 2.507 1.449 6.575 1.449 9.082 0 1.255-.723 1.888-1.671 1.888-2.62v-8.59c0 .944-.628 1.888-1.888 2.624-2.507 1.449-6.575 1.449-9.082 0-1.264-.732-1.888-1.685-1.888-2.643z" opacity=".3"/><path fill="#E0E0E0" d="m160.243 186.354-.679-.392c-.553-.321-.699-.755-.331-.967a1.94 1.94 0 0 1 1.676.188l.679.397c.553.316.699.75.331.944a1.9 1.9 0 0 1-.858.108 1.9 1.9 0 0 1-.818-.278"/><path fill="#F5F5F5" d="M159.53 185.584a.8.8 0 0 0 .732 0c.203-.118.203-.306 0-.42a.8.8 0 0 0-.732 0 .222.222 0 0 0 0 .42M160.885 186.32a.8.8 0 0 0 .732 0 .23.23 0 0 0 .107-.083.23.23 0 0 0-.107-.342.84.84 0 0 0-.732 0 .225.225 0 0 0 0 .425"/><path fill="#000" d="M161.409 200.392c-2.36.609-5.23.364-7.17-.76-1.307-.75-1.926-1.746-1.888-2.737V184.07c0 .944.628 1.888 1.888 2.625a7.7 7.7 0 0 0 2.629.915v10.856c0 1.062 1.572 2.337 4.541 1.926" opacity=".1"/><path fill="#37474F" d="M143.879 205.762c2.973 1.713 7.788 1.713 10.761 0 2.974-1.713 2.969-4.498 0-6.212s-7.788-1.718-10.761 0c-2.974 1.719-2.969 4.494 0 6.212"/><path fill="#EBEBEB" d="M155.674 202.387v-12.825h-12.838v12.825c-.052.991.566 1.987 1.888 2.742 2.506 1.449 6.575 1.449 9.081 0 1.303-.755 1.921-1.751 1.869-2.742"/><path fill="#FAFAFA" d="M144.719 192.193c2.507 1.449 6.575 1.449 9.082 0 2.506-1.449 2.511-3.776 0-5.244s-6.575-1.449-9.082 0c-2.506 1.449-2.511 3.79 0 5.244"/><path fill="#EBEBEB" d="M144.993 191.971c2.36 1.331 6.174 1.331 8.529 0s2.36-3.488 0-4.814-6.174-1.331-8.529 0-2.36 3.483 0 4.814"/><path fill="#F5F5F5" d="M153.522 187.78c-2.36-1.332-6.174-1.332-8.529 0-1.034.585-1.614 1.331-1.737 2.095.123.765.703 1.511 1.737 2.096 2.36 1.331 6.174 1.331 8.529 0 1.038-.585 1.619-1.331 1.742-2.096-.123-.764-.704-1.51-1.742-2.095"/><path fill="#F7921E" d="M142.836 200.216c0 .944.618 1.911 1.888 2.643 2.506 1.444 6.575 1.444 9.081 0 1.256-.727 1.888-1.676 1.888-2.624v-8.581c0 .944-.628 1.888-1.888 2.619-2.506 1.449-6.575 1.449-9.081 0-1.265-.727-1.888-1.685-1.888-2.638z"/><path fill="#000" d="M142.836 200.216c0 .944.618 1.911 1.888 2.643 2.506 1.444 6.575 1.444 9.081 0 1.256-.727 1.888-1.676 1.888-2.624v-8.581c0 .944-.628 1.888-1.888 2.619-2.506 1.449-6.575 1.449-9.081 0-1.265-.727-1.888-1.685-1.888-2.638z" opacity=".3"/><path fill="#000" d="M151.888 205.88c-2.36.608-5.234.358-7.169-.765-1.308-.751-1.926-1.747-1.888-2.738v-12.815c0 .945.627 1.888 1.888 2.625a7.6 7.6 0 0 0 2.629.916v10.856c.004 1.062 1.572 2.336 4.54 1.921" opacity=".1"/><path fill="#E0E0E0" d="m150.723 191.848-.68-.392c-.552-.321-.699-.75-.33-.944a1.9 1.9 0 0 1 1.671.189l.684.392c.552.321.698.755.33.967a1.946 1.946 0 0 1-1.675-.212"/><path fill="#F5F5F5" d="M150.379 191.173c.286 0 .519-.133.519-.298s-.233-.297-.519-.297-.52.133-.52.297c0 .165.233.298.52.298M151.365 191.815a.8.8 0 0 0 .732 0 .22.22 0 0 0 .15-.21.22.22 0 0 0-.15-.21.8.8 0 0 0-.732 0c-.203.118-.203.326 0 .42"/><path fill="#000" d="m26.629 200.387 32.374-18.692 40.706 23.501-32.375 18.691z"/><path fill="#37474F" d="M59.003 181.696v-31.964l-33.03 19.074 27.635 16.005z"/><path fill="#263238" d="M59.003 149.732v31.964l13.726 7.925 27.635-16.01zM25.973 168.807v31.204l41.361 23.878v-31.152z"/><path fill="#37474F" d="M67.334 192.737v31.152l33.031-19.069v-31.209z"/><path fill="#455A64" d="m67.334 192.736.651 29.963 23.987-13.037-24.638 14.226z"/><path fill="#E0E0E0" d="M71.28 213.867a.66.66 0 0 1-.335-.089 1.03 1.03 0 0 1-.425-.944v-2.955l.142.023 2.162-1.269v3.082a2.5 2.5 0 0 1-1.062 2.015.96.96 0 0 1-.482.137m-.41-3.582v2.558a.71.71 0 0 0 .245.633.48.48 0 0 0 .472-.052 2.2 2.2 0 0 0 .892-1.714v-.226h-.802l-.156-1.081zm1.109.854h.5v-1.888l-1.293.76.646.118z"/><path fill="#E0E0E0" d="M71.672 216.067a.174.174 0 0 1-.175-.174v-2.318a.181.181 0 0 1 .175-.175c.046 0 .09.019.123.052a.17.17 0 0 1 .051.123v2.318a.17.17 0 0 1-.05.124.2.2 0 0 1-.057.038.2.2 0 0 1-.067.012"/><path fill="#E0E0E0" d="M70.666 216.648a.173.173 0 0 1-.151-.085.18.18 0 0 1-.017-.131.17.17 0 0 1 .078-.105l2.016-1.166a.18.18 0 0 1 .24.066.174.174 0 0 1-.065.236l-2.016 1.161a.15.15 0 0 1-.085.024M77.845 212.656a.4.4 0 0 1-.189-.048.47.47 0 0 1-.207-.415v-.472a.174.174 0 0 1 .172-.203.2.2 0 0 1 .073.016.2.2 0 0 1 .06.045.18.18 0 0 1 .04.142v.472a.15.15 0 0 0 .032.113s.057 0 .114-.028a1.01 1.01 0 0 0 .325-.784v-3.082a.18.18 0 0 1 .04-.141.17.17 0 0 1 .206-.046.2.2 0 0 1 .06.046.17.17 0 0 1 .039.141v3.082a1.32 1.32 0 0 1-.472 1.081.5.5 0 0 1-.293.081"/><path fill="#E0E0E0" d="M76.019 209.96v-.302a4.91 4.91 0 0 1 2.218-3.847 1.46 1.46 0 0 1 1.683-.151 1.47 1.47 0 0 1 .71 1.534v.104zm3.256-4.111a1.75 1.75 0 0 0-.863.269 4.58 4.58 0 0 0-2.03 3.233l3.899-2.252a1.29 1.29 0 0 0-.534-1.132.94.94 0 0 0-.472-.118M84.076 209.105a.176.176 0 0 1-.17-.175v-5.881a.174.174 0 0 1 .172-.203.2.2 0 0 1 .073.016.2.2 0 0 1 .06.045.18.18 0 0 1 .04.142v5.905a.176.176 0 0 1-.175.151"/><path fill="#E0E0E0" d="M83.57 204.371a.2.2 0 0 1-.07 0 .174.174 0 0 1-.09-.226l.618-1.416.69.792a.176.176 0 0 1 0 .246.18.18 0 0 1-.246 0l-.326-.378-.396.921a.175.175 0 0 1-.18.061M85.681 208.19a.175.175 0 0 1-.17-.175v-5.909a.174.174 0 0 1 .099-.187.17.17 0 0 1 .207.045.174.174 0 0 1 .04.142v5.904a.18.18 0 0 1-.05.127.176.176 0 0 1-.125.053"/><path fill="#E0E0E0" d="M85.176 203.455a.2.2 0 0 1-.07 0 .174.174 0 0 1-.09-.226l.618-1.417.689.765a.176.176 0 0 1-.028.235.17.17 0 0 1-.12.042.17.17 0 0 1-.117-.05l-.325-.378-.397.921a.18.18 0 0 1-.16.108"/><path fill="#FAFAFA" d="m33.048 190.957 9.015 5.192a.9.9 0 0 1 .41.708v6.263c0 .519-.367.727-.81.472l-9.007-5.197a.9.9 0 0 1-.406-.703v-6.268c-.014-.515.354-.727.798-.467"/><path fill="#455A64" d="m32.826 191.93.307.179v5.532l-.307-.175zM34.072 192.652l.529.312v5.532l-.529-.312zM35.323 193.373l.307.175v5.532l-.307-.175zM36.263 193.906l.618.364-.005 5.532-.613-.364zM37.82 194.812l.307.18v5.532l-.307-.18zM38.717 195.322l.66.387v5.537l-.66-.392zM40.316 196.258l.307.174v5.532l-.307-.174zM41.03 196.658l.155.09v5.532l-.156-.085zM39.746 195.955l.156.085v5.537l-.156-.09zM37.234 194.482l.151.085v5.532l-.15-.085zM35.856 193.689l.151.09v5.532l-.15-.09zM34.865 193.143l.156.089v5.532l-.156-.09zM33.524 192.33l.151.09v5.532l-.15-.09zM41.567 196.975l.307.179v5.532l-.307-.18zM59.003 149.732l-33.03 19.074 41.361 23.93 33.031-19.125z"/><path fill="#fff" d="m25.973 168.807 41.361 22.745 33.031-17.94-33.031 19.125z" opacity=".1"/><path fill="#F7921E" d="m39.68 160.89 41.385 23.892 5.088-2.94-41.385-23.893z"/><path fill="#F7921E" d="M86.153 181.838v6.466l-.614-.349-.642 1.104-.637-.377-.642 1.119-.637-.378-.642 1.1-.637-.364-.638 1.105v-6.481z"/><path fill="#000" d="M86.153 181.838v6.466l-.614-.349-.642 1.104-.637-.377-.642 1.119-.637-.378-.642 1.1-.637-.364-.638 1.105v-6.481z" opacity=".25"/><path fill="#000" d="m57.403 151.805-28.806 16.628 36.245 21 28.806-16.686z" opacity=".1"/><path fill="#000" d="m34.077 169.249 24.077-13.938 30.61 17.681-24.078 13.9z"/><path fill="#37474F" d="M58.154 152.351v-27.47L33.51 139.107l23.86 13.792z"/><path fill="#263238" d="M58.154 124.881v27.47l7.392 4.277 23.78-13.773zM33.51 139.107v29.817l31.176 17.969v-29.769z"/><path fill="#37474F" d="M64.686 157.124v29.769l24.639-14.226v-29.812z"/><path fill="#455A64" d="m64.686 157.123.562 28.745 20.64-11.22-21.202 12.244z"/><path fill="#E0E0E0" d="M68.084 178.269a.57.57 0 0 1-.292-.075.89.89 0 0 1-.364-.807v-2.535h.118l1.888-1.09v2.652a2.14 2.14 0 0 1-.915 1.733.85.85 0 0 1-.435.122m-.359-3.068v2.2a.61.61 0 0 0 .218.547.417.417 0 0 0 .401-.042 1.89 1.89 0 0 0 .77-1.477v-.194h-.69l-.137-.944zm.945.732h.434v-1.638l-1.114.651.552.1z"/><path fill="#E0E0E0" d="M68.42 180.161a.2.2 0 0 1-.058-.01.14.14 0 0 1-.049-.032.143.143 0 0 1-.044-.105v-1.982a.151.151 0 1 1 .302 0v1.996a.15.15 0 0 1-.05.095.15.15 0 0 1-.101.038"/><path fill="#E0E0E0" d="M67.551 180.661a.13.13 0 0 1-.074-.02.14.14 0 0 1-.053-.055.15.15 0 0 1-.017-.113.15.15 0 0 1 .069-.09l1.737-1.001a.16.16 0 0 1 .104 0 .151.151 0 0 1 .042.26l-1.732 1a.13.13 0 0 1-.076.019M73.72 177.225a.3.3 0 0 1-.16-.042.39.39 0 0 1-.18-.359v-.406a.15.15 0 0 1 .033-.123.15.15 0 0 1 .052-.04.16.16 0 0 1 .128 0q.03.014.052.04a.15.15 0 0 1 .033.123v.406a.16.16 0 0 0 .028.104.15.15 0 0 0 .1-.028.87.87 0 0 0 .278-.675v-2.653a.15.15 0 0 1 .032-.123.15.15 0 0 1 .116-.054q.034 0 .064.014t.052.04a.15.15 0 0 1 .033.123v2.653a1.16 1.16 0 0 1-.425.944.5.5 0 0 1-.236.056"/><path fill="#E0E0E0" d="M72.158 174.908v-.26a4.25 4.25 0 0 1 1.912-3.304 1.26 1.26 0 0 1 1.959.435c.11.236.144.499.099.754v.085zm2.804-3.54c-.265.01-.522.09-.746.231a3.96 3.96 0 0 0-1.746 2.785l3.356-1.94a1.1 1.1 0 0 0-.472-.973.8.8 0 0 0-.392-.103M79.092 174.171a.15.15 0 0 1-.147-.151v-5.083a.15.15 0 0 1 .052-.089.15.15 0 0 1 .097-.036.15.15 0 0 1 .097.036.15.15 0 0 1 .052.089v5.083a.15.15 0 0 1-.151.151"/><path fill="#E0E0E0" d="M78.657 170.099h-.056a.14.14 0 0 1-.05-.03.14.14 0 0 1-.03-.163l.533-1.232.59.689a.15.15 0 0 1 .043.104.15.15 0 0 1-.043.104.16.16 0 0 1-.213 0l-.278-.326-.345.793a.15.15 0 0 1-.066.054.15.15 0 0 1-.085.007M80.475 173.384a.2.2 0 0 1-.058-.011.146.146 0 0 1-.09-.14v-5.083a.15.15 0 0 1 .053-.089.15.15 0 0 1 .097-.036.15.15 0 0 1 .097.036.15.15 0 0 1 .052.089v5.083a.15.15 0 0 1-.151.151"/><path fill="#E0E0E0" d="M80.04 169.309a.13.13 0 0 1-.061 0 .13.13 0 0 1-.047-.032.15.15 0 0 1-.041-.105q0-.029.012-.056l.529-1.227.594.684a.15.15 0 0 1 .044.104.15.15 0 0 1-.043.104.155.155 0 0 1-.213 0l-.283-.326-.34.793a.16.16 0 0 1-.067.052.15.15 0 0 1-.084.009"/><path fill="#455A64" d="M58.154 124.881 33.51 139.107l31.175 18.016 24.639-14.268z"/><path fill="#fff" d="m33.51 139.107 31.058 16.955 24.757-13.207-24.639 14.269z" opacity=".1"/><path fill="#F7921E" d="m44.466 132.788 31.194 17.983 4.376-2.53-31.19-17.983z"/><path fill="#F7921E" d="M80.035 148.236v5.565l-.528-.302-.548.949-.552-.321-.547.958-.553-.326-.547.954-.553-.316-.552.953v-5.579z"/><path fill="#000" d="M80.035 148.236v5.565l-.528-.302-.548.949-.552-.321-.547.958-.553-.326-.547.954-.553-.316-.552.953v-5.579z" opacity=".25"/><path fill="#FAFAFA" d="m38.56 161.677 9.016 5.192a.9.9 0 0 1 .406.708v6.264c0 .519-.368.727-.817.472l-9.015-5.192a.9.9 0 0 1-.406-.704v-6.272c.005-.515.368-.727.817-.468"/><path fill="#455A64" d="m38.339 162.65.307.18v5.532l-.307-.18zM39.585 163.373l.529.312v5.531l-.529-.311zM40.836 164.094l.307.174v5.532l-.307-.174zM41.775 164.629l.614.363v5.532l-.614-.363zM43.333 165.535l.307.18v5.531l-.307-.179zM44.23 166.045l.656.387v5.532l-.657-.387zM45.83 166.975l.307.179v5.532l-.307-.18zM46.543 167.379l.151.09V173l-.151-.089zM45.259 166.676l.155.085v5.532l-.155-.085zM42.748 165.199l.15.09v5.532l-.155-.085zM41.37 164.41l.15.09v5.532l-.15-.09zM40.378 163.863l.151.09v5.532l-.151-.09zM39.038 163.051l.151.085v5.532l-.15-.085zM47.081 167.695l.307.18-.005 5.532-.302-.18z"/><path fill="#fff" d="m103.064 85.431-72.475 41.843v-66.52l72.475-41.842z"/><path fill="#E0E0E0" d="M30.584 127.769a.47.47 0 0 1-.246-.066.48.48 0 0 1-.25-.43V60.754a.5.5 0 0 1 .25-.43l72.476-41.828a.5.5 0 0 1 .746.43v66.5a.5.5 0 0 1-.251.434l-72.475 41.843a.5.5 0 0 1-.25.066m.5-66.727v65.367l71.48-41.271V19.775z"/><path fill="#455A64" d="m70.02 44.814-1.638.944v39.016l1.637-.944zm-30.799 70.8.817-.472V62.099l-.821.472zm4.126-55.394-1.638.944v39.016l1.638-.944zm9.17 41.149a1.15 1.15 0 0 0-.811-.236 2.4 2.4 0 0 0-.996.34 3.4 3.4 0 0 0-.944.755 7 7 0 0 0-.44.59L49.55 99l3.044-1.76a.52.52 0 0 0 .236-.496v-.26q-.001-.36-.236-.226l-3.446 2.006a.59.59 0 0 0-.23.51l-.322 5.522a.28.28 0 0 0 .066.222.14.14 0 0 0 .17 0l.194-.109a.9.9 0 0 0 .302-.33q.129-.233.307-.515.195-.302.425-.58c.183-.215.403-.394.65-.529.223-.14.475-.226.737-.25a.88.88 0 0 1 .6.179c.192.158.333.37.406.609.108.34.157.696.146 1.053a5.5 5.5 0 0 1-.146 1.298q-.136.588-.406 1.128-.242.485-.6.892c-.21.244-.458.452-.736.613a1.9 1.9 0 0 1-.567.222.87.87 0 0 1-.495-.023.95.95 0 0 1-.416-.373 2.1 2.1 0 0 1-.26-.765q-.042-.225-.112-.245a.17.17 0 0 0-.151 0l-.203.118a.4.4 0 0 0-.16.174.45.45 0 0 0-.053.26c0 .343.06.684.18 1.005.093.268.256.506.471.689.215.169.483.257.756.25a2.1 2.1 0 0 0 1.029-.33c.372-.219.708-.495.996-.816.327-.353.6-.753.811-1.185.242-.48.426-.987.548-1.511.14-.585.208-1.186.203-1.788a4.4 4.4 0 0 0-.203-1.464 1.73 1.73 0 0 0-.566-.826m-5.99-.552a1.24 1.24 0 0 0-.787-.42 1.8 1.8 0 0 0-1.11.307c-.433.248-.814.58-1.118.977a6.1 6.1 0 0 0-.788 1.326 7.4 7.4 0 0 0-.628 2.922q-.004.644.15 1.27c.08.347.242.671.473.944.204.229.484.376.788.415.393.019.782-.089 1.11-.307q.384-.23.703-.547l-1.676 4.597a.5.5 0 0 0-.038.099.4.4 0 0 0 0 .142.32.32 0 0 0 .062.217q.015.015.034.024a.1.1 0 0 0 .041.008.1.1 0 0 0 .041-.008.1.1 0 0 0 .035-.024l.212-.123a.47.47 0 0 0 .212-.245c.043-.104.085-.194.118-.27l2.186-6.018q.098-.251.203-.59t.203-.741a9 9 0 0 0 .155-.84q.067-.469.067-.944a5 5 0 0 0-.156-1.265 2.24 2.24 0 0 0-.491-.906m-.188 3.828c-.094.382-.23.753-.406 1.104-.16.322-.357.624-.59.897a2.9 2.9 0 0 1-.713.609 1.45 1.45 0 0 1-.708.213.9.9 0 0 1-.585-.218 1.37 1.37 0 0 1-.406-.641 3.3 3.3 0 0 1-.146-1.067 5.2 5.2 0 0 1 .146-1.242c.091-.387.227-.763.406-1.118q.236-.486.585-.897c.2-.24.44-.444.709-.604.214-.133.46-.207.712-.213a.9.9 0 0 1 .59.213c.193.175.333.401.406.651.107.347.156.709.146 1.072q.005.629-.141 1.241zm6.268-10.568.817-.472v-39.02l-.822.472zm-15.231 22.595.816-.472V63.17l-.82.472zm19.31-64.155-1.639.944v39.016l1.638-.944zm2.024-1.114-.821.472v39.016l.821-.472zm-12.446 7.08-.822.472v39.02l.822-.471zm4.937-2.79-2.832 1.601V96.31l2.832-1.6zM88.35 34.2l-.816.472v39.015l.822-.472zm-2.26 42.725-4.102 2.36a.54.54 0 0 0-.231.51v.246c0 .24.08.311.231.226l3.625-2.09L82.886 89.7a.7.7 0 0 0 0 .156.33.33 0 0 0 .061.222.11.11 0 0 0 .151 0l.222-.132a.39.39 0 0 0 .175-.236q.059-.176.104-.33l2.685-11.357c.024-.123.048-.231.057-.316q.009-.165 0-.33v-.246c-.01-.222-.09-.297-.25-.208m-7.41 15.723.816-.472v-52.69l-.817.472zm6.839-17.8.821-.471V35.36l-.816.472zm-2.162-37.736-1.638.944v39.016l1.638-.944zm8.397 46.993L88.2 86.157l2.483-5.324q.525-1.023.873-2.12c.19-.637.284-1.298.283-1.963a5.3 5.3 0 0 0-.118-1.17 1.84 1.84 0 0 0-.397-.836 1 1 0 0 0-.693-.335 1.9 1.9 0 0 0-1.03.316 3.5 3.5 0 0 0-1.043.92 5.5 5.5 0 0 0-.712 1.232q-.281.648-.42 1.34-.128.618-.151 1.247c0 .212.075.269.226.184l.213-.123a.5.5 0 0 0 .141-.17.9.9 0 0 0 .1-.344c.047-.69.216-1.366.5-1.997a2.83 2.83 0 0 1 1.147-1.307q.763-.448 1.165-.052c.323.422.469.954.406 1.482q.001.36-.042.717-.048.37-.156.727a7 7 0 0 1-.302.836c-.127.302-.288.651-.472 1.052l-2.752 5.82q-.12.228-.207.472-.054.17-.057.35v.245q.001.36.236.226l4.347-2.51a.53.53 0 0 0 .245-.506v-.24c-.014-.222-.094-.307-.26-.222M59.06 93.718a1.15 1.15 0 0 0-.78-.538 1.83 1.83 0 0 0-1.203.326c-.47.268-.88.63-1.203 1.062a5.9 5.9 0 0 0-.78 1.44 8 8 0 0 0-.424 1.684 13 13 0 0 0-.137 1.794v2.747q0 .82.142 1.628c.06.424.205.832.424 1.199a1.15 1.15 0 0 0 .775.538c.426.036.852-.079 1.203-.325.47-.268.88-.63 1.204-1.062a5.9 5.9 0 0 0 .779-1.44 8.2 8.2 0 0 0 .415-1.68 15 15 0 0 0 .15-1.798v-2.748a10 10 0 0 0-.145-1.633 3.2 3.2 0 0 0-.42-1.184zm-.104 5.877c.01.993-.15 1.981-.472 2.921a3.23 3.23 0 0 1-1.416 1.775c-.628.363-1.095.312-1.416-.156s-.472-1.255-.472-2.36v-2.577c-.01-.989.15-1.972.472-2.907a3.25 3.25 0 0 1 1.416-1.79c.623-.358 1.09-.301 1.416.175a4.63 4.63 0 0 1 .472 2.36v1.275c.014.387.01.821 0 1.293zm31.67-27.674 1.639-.944v-39.01l-1.638.943zm3.862-41.229v52.831l1.638-.944V29.748zm-29.5 58.42-4.102 2.36a.54.54 0 0 0-.231.51v.245c0 .236.08.311.231.226l3.62-2.09-2.728 11.535a1 1 0 0 0 0 .156.36.36 0 0 0 .057.222.12.12 0 0 0 .078.031.12.12 0 0 0 .078-.031l.221-.133a.38.38 0 0 0 .175-.236l.104-.33 2.667-11.337c0-.123.047-.232.056-.317q.009-.165 0-.33v-.246c.01-.25-.066-.325-.226-.235m.26-2.493.816-.472V47.132l-.817.472zm7.934-4.672 3.507-1.964v-39.02l-3.507 1.963zm-9.846-33.281-3.304 1.845v39.016l3.276-1.841zm11.238 34.928-.203.113a1 1 0 0 0-.137.095 1 1 0 0 0-.141.179l-2.261 3.96a.7.7 0 0 0-.095.293.4.4 0 0 0 .052.24l.118.16q.141.198.33-.122l1.889-3.351v9.737q.001.361.236.227l.203-.118a.52.52 0 0 0 .231-.472V83.792c.028-.24-.047-.316-.203-.222zm-3.941 12.744-3.521 2.015 2.483-5.324c.35-.68.641-1.39.873-2.12.19-.636.284-1.298.283-1.963a5 5 0 0 0-.123-1.17 1.77 1.77 0 0 0-.391-.836 1 1 0 0 0-.694-.335 1.86 1.86 0 0 0-1.03.316 3.5 3.5 0 0 0-1.043.92c-.29.379-.529.793-.712 1.233-.187.43-.328.88-.42 1.34q-.14.613-.17 1.242c0 .212.075.269.226.184l.208-.123a.5.5 0 0 0 .146-.17.9.9 0 0 0 .1-.345c.045-.69.214-1.366.5-1.996a2.83 2.83 0 0 1 1.147-1.308q.764-.447 1.166-.051c.269.264.4.75.4 1.482q.004.36-.037.717-.048.37-.156.727a8 8 0 0 1-.302.835c-.127.302-.288.652-.472 1.053l-2.751 5.815a3 3 0 0 0-.208.472q-.054.17-.057.35v.245c0 .24.076.316.236.226l4.347-2.51a.53.53 0 0 0 .246-.506v-.24c-.02-.232-.09-.307-.255-.213z"/></svg>