<svg xmlns="http://www.w3.org/2000/svg" width="256" height="256" fill="none"><path stroke="#D5D5D5" d="m46.439 127.016-.25-.433.25.433c22.366-12.926 51.713-19.403 81.087-19.403s58.723 6.477 81.092 19.403c22.371 12.928 33.442 29.788 33.442 46.542-.001 16.754-11.073 33.607-33.442 46.52-22.366 12.912-51.714 19.389-81.088 19.393-29.375.003-58.723-6.467-81.091-19.393-22.372-12.927-33.444-29.78-33.444-46.531s11.072-33.603 33.444-46.531Z"/><path fill="#263238" d="M129.141 87.238c-.782-.451-1.742-.397-2.703.16-2.215 1.276-4 4.972-4 8.234v7.708a.37.37 0 0 0 .13.189.366.366 0 0 0 .568-.189v-7.708c0-3.04 1.644-6.463 3.666-7.638.728-.429 1.437-.487 2.001-.16.836.484 1.316 1.706 1.316 3.357v7.638a.372.372 0 0 0 .058.32.364.364 0 0 0 .641-.32v-7.638c-.015-1.902-.622-3.346-1.677-3.953"/><path fill="#F7921E" d="m146.327 131.345-2.157-36.983-6.165-3.55-2.023 34.561z"/><path fill="#fff" d="m146.327 131.345-2.157-36.983-6.165-3.55-2.023 34.561z" opacity=".4"/><path fill="#F7921E" d="m116.334 103.324-2.022 34.558 21.67-12.509 2.023-34.56z"/><path fill="#fff" d="m116.334 103.324-2.022 34.558 21.67-12.509 2.023-34.56z" opacity=".3"/><path fill="#000" d="m116.334 103.324-2.022 34.558 21.67-12.509 2.023-34.56z" opacity=".05"/><path fill="#F7921E" d="m116.334 103.324 6.169 3.55 2.153 36.98-10.344-5.973z"/><path fill="#fff" d="m116.334 103.324 6.169 3.55 2.153 36.98-10.344-5.973z" opacity=".55"/><path fill="#F7921E" d="m124.656 143.854-4.444-6.242-.557-21.798-.556 21.42-4.787.647z" opacity=".2"/><path fill="#000" d="m124.656 143.854-4.444-6.242-.557-21.798-.556 21.42-4.787.647z" opacity=".05"/><path fill="#F7921E" d="m144.17 94.363-21.667 12.512 2.153 36.98 21.671-12.509zm-15.218 13.378c-.426.244-.771.04-.771-.455a1.7 1.7 0 0 1 .774-1.338c.426-.248.771-.044.771.451a1.697 1.697 0 0 1-.774 1.342m7.671-4.47c-.426.243-.775.04-.775-.451a1.7 1.7 0 0 1 .228-.763c.134-.234.321-.432.547-.579.429-.248.774-.044.774.454a1.69 1.69 0 0 1-.774 1.339"/><path fill="#fff" d="m144.17 94.363-21.667 12.512 2.153 36.98 21.671-12.509zm-15.218 13.378c-.426.244-.771.04-.771-.455a1.7 1.7 0 0 1 .774-1.338c.426-.248.771-.044.771.451a1.697 1.697 0 0 1-.774 1.342m7.671-4.47c-.426.243-.775.04-.775-.451a1.7 1.7 0 0 1 .228-.763c.134-.234.321-.432.547-.579.429-.248.774-.044.774.454a1.69 1.69 0 0 1-.774 1.339" opacity=".7"/><path fill="#37474F" d="M135.321 90.75c-.782-.447-1.743-.393-2.703.164-2.211 1.277-4.001 4.972-4.001 8.234v7.693a.368.368 0 0 0 .351.269.366.366 0 0 0 .351-.269v-7.692c0-3.041 1.644-6.464 3.663-7.639.745-.429 1.455-.487 2.004-.16.833.484 1.313 1.706 1.313 3.358v7.638a.363.363 0 0 0 .512.427.37.37 0 0 0 .195-.26.4.4 0 0 0-.009-.167v-7.639c-.011-1.916-.618-3.346-1.676-3.957"/><path fill="#263238" d="M146.24 98.88c-.68-.392-1.517-.363-2.357.139-1.931 1.117-3.503 4.343-3.503 7.191v6.71a.314.314 0 0 0 .076.238.3.3 0 0 0 .103.075.32.32 0 0 0 .25 0 .32.32 0 0 0 .166-.186q.02-.062.013-.127v-6.71c0-2.656 1.436-5.642 3.2-6.66.651-.364 1.255-.426 1.746-.142.728.422 1.146 1.488 1.146 2.932v6.681a.306.306 0 1 0 .611 0v-6.681c0-1.666-.52-2.928-1.451-3.46"/><path fill="#F7921E" d="m161.239 137.377-1.88-32.276-5.383-3.099-1.764 30.163z"/><path fill="#000" d="m161.239 137.377-1.88-32.276-5.383-3.099-1.764 30.163z" opacity=".2"/><path fill="#F7921E" d="m135.066 112.921-1.768 30.163 18.914-10.919 1.764-30.163z"/><path fill="#000" d="m135.066 112.921-1.768 30.163 18.914-10.919 1.764-30.163z" opacity=".3"/><path fill="#F7921E" d="m135.066 112.92 5.383 3.099 1.881 32.276-9.032-5.212z"/><path fill="#000" d="m135.066 112.92 5.383 3.099 1.881 32.276-9.032-5.212z" opacity=".15"/><path fill="#000" d="m142.33 148.295-3.881-5.448-.488-19.023-.484 18.692-4.179.567z" opacity=".15"/><path fill="#F7921E" d="m159.359 105.1-18.914 10.911 1.881 32.277 18.913-10.912zm-13.28 11.675c-.363.211-.676.033-.676-.396.013-.235.081-.463.198-.667a1.5 1.5 0 0 1 .478-.505c.364-.214.673-.036.673.397a1.47 1.47 0 0 1-.673 1.171m6.7-3.899c-.364.211-.673.033-.673-.397.012-.234.08-.463.198-.666.117-.204.281-.377.479-.505.363-.214.673-.036.673.397a1.5 1.5 0 0 1-.677 1.171"/><path fill="#37474F" d="M151.633 101.951c-.68-.393-1.516-.364-2.356.138-1.932 1.117-3.503 4.343-3.503 7.191v6.711c0 .081.032.158.089.216a.31.31 0 0 0 .432 0 .3.3 0 0 0 .09-.216v-6.711c0-2.655 1.433-5.641 3.197-6.66.651-.363 1.255-.425 1.746-.142.727.422 1.149 1.488 1.149 2.932v6.682a.32.32 0 0 0 .076.237.3.3 0 0 0 .103.075.32.32 0 0 0 .25 0 .3.3 0 0 0 .166-.186q.02-.062.013-.126v-6.682c0-1.666-.528-2.928-1.452-3.459"/><path fill="#263238" d="M108.473 132.506a.34.34 0 0 0-.183-.038.34.34 0 0 0-.176.062l-1.354.769a1.1 1.1 0 0 0-.472.859v15.576l55.823 31.653 2.195-16.638z"/><path fill="#455A64" d="M164.273 164.722a.4.4 0 0 0-.173-.02.4.4 0 0 0-.162.062l-1.336.77a1 1 0 0 0-.349.368l-55.824-32.238c.083-.15.204-.277.349-.368l1.336-.765a.33.33 0 0 1 .359-.023z"/><path fill="#37474F" d="m163.938 164.764-1.336.769a1.1 1.1 0 0 0-.496.859v14.981l2.327 1.331v-17.652c0-.317-.221-.444-.495-.288"/><path fill="#000" d="M162.106 181.373v1.024l-3.488 1.553-55.823-32.233 3.488-1.996z"/><path fill="#37474F" d="m159.779 185.966 4.159-2.403a1.1 1.1 0 0 0 .495-.859l-2.327-1.331a1.1 1.1 0 0 1-.495.859l-1.336.769c-.274.161-.496.033-.496-.283z"/><path fill="#263238" d="m159.624 167.426-5.518 3.002a1.8 1.8 0 0 0-.146.665v17.653a.4.4 0 0 0 .099.293l-55.771-32.2a.33.33 0 0 1-.142-.316v-17.667a1.11 1.11 0 0 1 .472-.859l4.838-2.785a.33.33 0 0 1 .359 0z"/><path fill="#37474F" d="m159.624 167.421-51.004-29.467-2.332-1.345-2.459-1.416a.32.32 0 0 0-.359 0l-4.829 2.813a1.03 1.03 0 0 0-.344.368l55.819 32.049z" opacity=".5"/><path fill="#37474F" d="M154.115 170.432a1.8 1.8 0 0 0-.151.675v17.648c0 .317.222.444.496.288l5.319-3.077v-18.219a.37.37 0 0 0-.028-.179.36.36 0 0 0-.113-.142z"/><path fill="#263238" d="m154.512 188.995.189-.094.821-.472a5.55 5.55 0 0 0 1.227-3.479v-14.943a4.6 4.6 0 0 0-.118-.945l-.472.241q.078.355.081.718v14.929a6.48 6.48 0 0 1-1.728 4.045"/><path fill="#455A64" d="M91.92 118.205c-1.888-1.52-5.31-3.493-7.415-4.72-3.54-2.048-5.621-3.238-11.177-6.443a5.5 5.5 0 0 0-4.96 0l-45.124 26.064a5.5 5.5 0 0 0-2.478 4.295v27.32a5.52 5.52 0 0 0 2.478 4.295l80.486 46.449a5.5 5.5 0 0 0 4.96 0l45.123-26.049a5.5 5.5 0 0 0 2.478-4.295v-15.378a4.84 4.84 0 0 0-1.911-3.861c-10.365-7.887-59.453-45.241-62.46-47.677"/><path fill="#37474F" d="M156.292 185.111v-14.92q.003-.453-.104-.892l-50.103 28.872q.116.465.123.944v14.92c0 1.416-.944 2.091-2.12 1.605h.038q.164.07.335.127l.227.071c.123.033.245.066.368.09l.25.042c.123 0 .246.038.373.047h1.27c.118 0 .231-.037.349-.061s.184-.028.269-.052.255-.075.378-.113l.212-.066q.242-.097.472-.222a.3.3 0 0 0 .071-.033l45.123-26.055.647-.368a6 6 0 0 0 1.822-3.936"/><path fill="#263238" d="M41.84 147.124c8.464 6.835 52.648 40.272 62.442 47.677a4.84 4.84 0 0 1 1.921 3.866v15.368c0 1.577-1.119 2.219-2.483 1.416l-80.476-46.435a5.52 5.52 0 0 1-2.478-4.295v-27.31c0-1.577 1.114-2.223 2.478-1.416l14.561 8.401a21.4 21.4 0 0 1 4.036 2.728"/><path fill="#37474F" d="M44.96 140.271a20.7 20.7 0 0 1 4.036 2.752 59 59 0 0 1 5.192 4.866 2.356 2.356 0 0 0 2.733.396l32.743-18.88a1.32 1.32 0 0 0 .723-.999 1.33 1.33 0 0 0-.412-1.162 58 58 0 0 0-5.206-4.909c-1.888-1.525-5.31-3.498-7.415-4.72-4.007-2.318 2.653 1.543-1.416-.793a3.39 3.39 0 0 0-3.054 0l-32.724 18.88c-.84.472-.84 1.274 0 1.76z"/><path fill="#263238" d="M74.598 116.477a3.2 3.2 0 0 0-1.695.359l-32.724 18.88c-.84.472-.84 1.274 0 1.76l4.782 2.795a20.7 20.7 0 0 1 4.035 2.751 59 59 0 0 1 5.192 4.867 2.36 2.36 0 0 0 2.738.396l17.658-10.195z"/><path fill="#F7921E" d="M72.903 119.47 40.94 137.911l4.022 2.36a20.7 20.7 0 0 1 4.035 2.751 59 59 0 0 1 5.192 4.867 2.36 2.36 0 0 0 2.738.396l32.648-18.87a56 56 0 0 0-4.805-4.451c-1.888-1.52-5.31-3.493-7.415-4.72-4.007-2.318 2.653 1.538-1.416-.793a3.396 3.396 0 0 0-3.035.019M91.623 138.879l.302-1.255 1.265-.104 4.13-2.393c1.963-1.133 4.564-.897 5.829.5.268.295.465.647.576 1.029l.359-.033-.326 1.336a3.668 3.668 0 0 1-1.827 2.213l-5.04 2.932a2.18 2.18 0 0 1-2.554-.369 118 118 0 0 1-2.389-2.624 1.31 1.31 0 0 1-.325-1.232"/><path fill="#000" d="m91.623 138.879.302-1.255 1.265-.104 4.13-2.393c1.963-1.133 4.564-.897 5.829.5.268.295.465.647.576 1.029l.359-.033-.326 1.336a3.668 3.668 0 0 1-1.827 2.213l-5.04 2.932a2.18 2.18 0 0 1-2.554-.369 118 118 0 0 1-2.389-2.624 1.31 1.31 0 0 1-.325-1.232" opacity=".1"/><path fill="#F7921E" d="m97.192 141.824 5.037-2.903c1.963-1.132 2.492-3.153 1.222-4.55s-3.866-1.633-5.824-.5l-5.027 2.907a1.297 1.297 0 0 0-.335 2.054c.797.896 1.59 1.774 2.388 2.624a2.17 2.17 0 0 0 2.54.368M65.87 154.55l.307-1.274.36-.033a4.4 4.4 0 0 1 1.217-1.02l5.022-2.922a2.1 2.1 0 0 1 2.506.406c.788.883 1.567 1.751 2.36 2.592l.708-.062-.32 1.327a1.3 1.3 0 0 1-.633.778l-5.046 2.922c-1.963 1.133-4.62.944-5.89-.444a2.45 2.45 0 0 1-.59-2.27"/><path fill="#000" d="m65.87 154.55.307-1.274.36-.033a4.4 4.4 0 0 1 1.217-1.02l5.022-2.922a2.1 2.1 0 0 1 2.506.406c.788.883 1.567 1.751 2.36 2.592l.708-.062-.32 1.327a1.3 1.3 0 0 1-.633.778l-5.046 2.922c-1.963 1.133-4.62.944-5.89-.444a2.45 2.45 0 0 1-.59-2.27" opacity=".1"/><path fill="#F7921E" d="m72.653 155.997 5.036-2.907a1.23 1.23 0 0 0 .618-1.517 1.2 1.2 0 0 0-.325-.494 130 130 0 0 1-2.384-2.629 2.1 2.1 0 0 0-2.51-.406l-5.032 2.908c-1.964 1.132-2.554 3.205-1.289 4.602s3.922 1.576 5.886.443M78.478 146.591l.302-1.242.944-.066 6.032-3.478a2.62 2.62 0 0 1 3.139.509c.609.685 1.222 1.365 1.831 2.025q.093.097.16.213l.605-.043-.312 1.303a1.62 1.62 0 0 1-.807 1.034l-6.457 3.728a2.71 2.71 0 0 1-3.19-.472q-.916-.99-1.837-2.02a1.64 1.64 0 0 1-.41-1.491"/><path fill="#000" d="m78.478 146.591.302-1.242.944-.066 6.032-3.478a2.62 2.62 0 0 1 3.139.509c.609.685 1.222 1.365 1.831 2.025q.093.097.16.213l.605-.043-.312 1.303a1.62 1.62 0 0 1-.807 1.034l-6.457 3.728a2.71 2.71 0 0 1-3.19-.472q-.916-.99-1.837-2.02a1.64 1.64 0 0 1-.41-1.491" opacity=".1"/><path fill="#F7921E" d="M79.185 146.837q.92 1.029 1.837 2.02a2.72 2.72 0 0 0 3.19.472l6.457-3.724a1.546 1.546 0 0 0 .368-2.516c-.609-.66-1.222-1.34-1.831-2.025a2.63 2.63 0 0 0-3.139-.509l-6.461 3.728a1.62 1.62 0 0 0-.854 1.171 1.61 1.61 0 0 0 .433 1.383"/><g fill="#fff" opacity=".3"><path d="m97.192 141.824 5.037-2.903c1.963-1.132 2.492-3.153 1.222-4.55s-3.866-1.633-5.824-.5l-5.027 2.907a1.297 1.297 0 0 0-.335 2.054c.797.896 1.59 1.774 2.388 2.624a2.17 2.17 0 0 0 2.54.368M72.653 155.997l5.036-2.907a1.23 1.23 0 0 0 .618-1.517 1.2 1.2 0 0 0-.325-.494 130 130 0 0 1-2.384-2.629 2.1 2.1 0 0 0-2.51-.406l-5.032 2.908c-1.964 1.132-2.554 3.205-1.289 4.602s3.922 1.576 5.886.443M79.185 146.837q.92 1.029 1.837 2.02a2.72 2.72 0 0 0 3.19.472l6.457-3.724a1.546 1.546 0 0 0 .368-2.516c-.609-.66-1.222-1.34-1.831-2.025a2.63 2.63 0 0 0-3.139-.509l-6.461 3.728a1.62 1.62 0 0 0-.854 1.171 1.61 1.61 0 0 0 .433 1.383"/></g><path fill="#F7921E" d="m88.984 160.79-1.326.033-3.724-2.832a2.2 2.2 0 0 0-2.252-.147l-5.697 3.304-1.784.048v1.453a.95.95 0 0 0 .416.732l4.63 3.535a2.2 2.2 0 0 0 2.256.142l6.957-4.012a.9.9 0 0 0 .515-.769z"/><path fill="#000" d="m88.984 160.79-1.326.033-3.724-2.832a2.2 2.2 0 0 0-2.252-.147l-5.697 3.304-1.784.048v1.453a.95.95 0 0 0 .416.732l4.63 3.535a2.2 2.2 0 0 0 2.256.142l6.957-4.012a.9.9 0 0 0 .515-.769z" opacity=".1"/><path fill="#F7921E" d="m74.72 160.392 6.962-4.012a2.19 2.19 0 0 1 2.252.141l4.63 3.536a.83.83 0 0 1 .415.781.84.84 0 0 1-.514.72l-6.957 4.012a2.22 2.22 0 0 1-2.256-.147l-4.63-3.535a.834.834 0 0 1 .098-1.496"/><path fill="#fff" d="m74.72 160.392 6.962-4.012a2.19 2.19 0 0 1 2.252.141l4.63 3.536a.83.83 0 0 1 .415.781.84.84 0 0 1-.514.72l-6.957 4.012a2.22 2.22 0 0 1-2.256-.147l-4.63-3.535a.834.834 0 0 1 .098-1.496" opacity=".3"/><path fill="#F7921E" d="m116.139 181.51-1.332.033-3.719-2.832a2.197 2.197 0 0 0-2.256-.146l-5.692 3.28-1.785.043v1.458a.95.95 0 0 0 .416.732l4.63 3.535a2.199 2.199 0 0 0 2.252.142l6.962-4.012a.9.9 0 0 0 .509-.769z"/><path fill="#000" d="m116.139 181.51-1.332.033-3.719-2.832a2.197 2.197 0 0 0-2.256-.146l-5.692 3.28-1.785.043v1.458a.95.95 0 0 0 .416.732l4.63 3.535a2.199 2.199 0 0 0 2.252.142l6.962-4.012a.9.9 0 0 0 .509-.769z" opacity=".1"/><path fill="#F7921E" d="m101.87 181.113 6.962-4.026a2.22 2.22 0 0 1 2.256.146l4.63 3.536a.83.83 0 0 1 .415.781.84.84 0 0 1-.514.72l-6.971 4.021a2.21 2.21 0 0 1-2.252-.146l-4.63-3.536a.833.833 0 0 1-.258-1.212.84.84 0 0 1 .362-.284"/><path fill="#fff" d="m101.87 181.113 6.962-4.026a2.22 2.22 0 0 1 2.256.146l4.63 3.536a.83.83 0 0 1 .415.781.84.84 0 0 1-.514.72l-6.971 4.021a2.21 2.21 0 0 1-2.252-.146l-4.63-3.536a.833.833 0 0 1-.258-1.212.84.84 0 0 1 .362-.284" opacity=".3"/><path fill="#F7921E" d="m98.037 167.694-1.33.033-3.72-2.832a2.22 2.22 0 0 0-2.256-.146l-5.692 3.304-1.785.047v1.435a.94.94 0 0 0 .416.732l4.635 3.516a2.2 2.2 0 0 0 2.251.146l6.962-4.012a.89.89 0 0 0 .51-.774z"/><path fill="#000" d="m98.037 167.694-1.33.033-3.72-2.832a2.22 2.22 0 0 0-2.256-.146l-5.692 3.304-1.785.047v1.435a.94.94 0 0 0 .416.732l4.635 3.516a2.2 2.2 0 0 0 2.251.146l6.962-4.012a.89.89 0 0 0 .51-.774z" opacity=".1"/><path fill="#F7921E" d="m83.769 167.298 6.962-4.012a2.2 2.2 0 0 1 2.256.146l4.63 3.535a.84.84 0 0 1 .261 1.212.85.85 0 0 1-.36.285l-6.962 4.012a2.2 2.2 0 0 1-2.251-.142l-4.63-3.535a.84.84 0 0 1-.418-.78.84.84 0 0 1 .512-.721"/><path fill="#fff" d="m83.769 167.298 6.962-4.012a2.2 2.2 0 0 1 2.256.146l4.63 3.535a.84.84 0 0 1 .261 1.212.85.85 0 0 1-.36.285l-6.962 4.012a2.2 2.2 0 0 1-2.251-.142l-4.63-3.535a.84.84 0 0 1-.418-.78.84.84 0 0 1 .512-.721" opacity=".3"/><path fill="#F7921E" d="m107.085 174.6-1.326.033-3.724-2.832a2.19 2.19 0 0 0-2.252-.142l-5.692 3.28-1.789.043v1.458a.94.94 0 0 0 .416.727l4.63 3.536a2.21 2.21 0 0 0 2.256.146l6.962-4.012a.91.91 0 0 0 .51-.77z"/><path fill="#000" d="m107.085 174.6-1.326.033-3.724-2.832a2.19 2.19 0 0 0-2.252-.142l-5.692 3.28-1.789.043v1.458a.94.94 0 0 0 .416.727l4.63 3.536a2.21 2.21 0 0 0 2.256.146l6.962-4.012a.91.91 0 0 0 .51-.77z" opacity=".1"/><path fill="#F7921E" d="m92.822 174.203 6.962-4.012a2.2 2.2 0 0 1 2.251.146l4.631 3.535a.85.85 0 0 1 .417.78.84.84 0 0 1-.512.721l-6.962 4.012a2.22 2.22 0 0 1-2.256-.146l-4.63-3.535a.843.843 0 0 1-.26-1.215.84.84 0 0 1 .359-.286"/><path fill="#fff" d="m92.822 174.203 6.962-4.012a2.2 2.2 0 0 1 2.251.146l4.631 3.535a.85.85 0 0 1 .417.78.84.84 0 0 1-.512.721l-6.962 4.012a2.22 2.22 0 0 1-2.256-.146l-4.63-3.535a.843.843 0 0 1-.26-1.215.84.84 0 0 1 .359-.286" opacity=".3"/><path fill="#F7921E" d="m102.955 152.737-1.326.033-3.724-2.832a2.22 2.22 0 0 0-2.256-.146l-5.692 3.304-1.785.043v1.453a.95.95 0 0 0 .416.732l4.63 3.535a2.2 2.2 0 0 0 2.251.146l6.962-4.012a.9.9 0 0 0 .515-.774z"/><path fill="#000" d="m102.955 152.737-1.326.033-3.724-2.832a2.22 2.22 0 0 0-2.256-.146l-5.692 3.304-1.785.043v1.453a.95.95 0 0 0 .416.732l4.63 3.535a2.2 2.2 0 0 0 2.251.146l6.962-4.012a.9.9 0 0 0 .515-.774z" opacity=".1"/><path fill="#F7921E" d="m88.687 152.341 6.962-4.012a2.22 2.22 0 0 1 2.256.146l4.63 3.536a.83.83 0 0 1 .415.781.84.84 0 0 1-.514.72l-6.962 4.012a2.21 2.21 0 0 1-2.251-.147l-4.63-3.535a.841.841 0 0 1 .094-1.501"/><path fill="#fff" d="m88.687 152.341 6.962-4.012a2.22 2.22 0 0 1 2.256.146l4.63 3.536a.83.83 0 0 1 .415.781.84.84 0 0 1-.514.72l-6.962 4.012a2.21 2.21 0 0 1-2.251-.147l-4.63-3.535a.841.841 0 0 1 .094-1.501" opacity=".3"/><path fill="#F7921E" d="m130.105 173.458-1.326.033-3.724-2.832a2.21 2.21 0 0 0-2.252-.146l-5.692 3.271-1.784.047v1.454a.94.94 0 0 0 .41.731l4.635 3.536a2.21 2.21 0 0 0 2.252.146l6.962-4.012a.89.89 0 0 0 .51-.774z"/><path fill="#000" d="m130.105 173.458-1.326.033-3.724-2.832a2.21 2.21 0 0 0-2.252-.146l-5.692 3.271-1.784.047v1.454a.94.94 0 0 0 .41.731l4.635 3.536a2.21 2.21 0 0 0 2.252.146l6.962-4.012a.89.89 0 0 0 .51-.774z" opacity=".1"/><path fill="#F7921E" d="m115.841 173.061 6.967-3.997a2.2 2.2 0 0 1 2.251.146l4.63 3.535a.85.85 0 0 1 .418.78.83.83 0 0 1-.154.433.83.83 0 0 1-.358.288l-6.962 4.012a2.2 2.2 0 0 1-2.252-.146l-4.653-3.55a.83.83 0 0 1-.409-.785.84.84 0 0 1 .522-.716"/><path fill="#fff" d="m115.841 173.061 6.967-3.997a2.2 2.2 0 0 1 2.251.146l4.63 3.535a.85.85 0 0 1 .418.78.83.83 0 0 1-.154.433.83.83 0 0 1-.358.288l-6.962 4.012a2.2 2.2 0 0 1-2.252-.146l-4.653-3.55a.83.83 0 0 1-.409-.785.84.84 0 0 1 .522-.716" opacity=".3"/><path fill="#F7921E" d="m112.004 159.647-1.327.033-3.724-2.832a2.189 2.189 0 0 0-2.251-.147l-5.692 3.281-1.79.042v1.459a.95.95 0 0 0 .411.731l4.631 3.531a2.19 2.19 0 0 0 2.256.146l6.962-4.012a.89.89 0 0 0 .51-.769z"/><path fill="#000" d="m112.004 159.647-1.327.033-3.724-2.832a2.189 2.189 0 0 0-2.251-.147l-5.692 3.281-1.79.042v1.459a.95.95 0 0 0 .411.731l4.631 3.531a2.19 2.19 0 0 0 2.256.146l6.962-4.012a.89.89 0 0 0 .51-.769z" opacity=".1"/><path fill="#F7921E" d="m97.74 159.246 6.962-4.012a2.2 2.2 0 0 1 2.251.146l4.631 3.535a.84.84 0 0 1-.095 1.501l-6.962 4.012a2.22 2.22 0 0 1-2.256-.146l-4.63-3.535a.843.843 0 0 1-.26-1.215.84.84 0 0 1 .359-.286"/><path fill="#fff" d="m97.74 159.246 6.962-4.012a2.2 2.2 0 0 1 2.251.146l4.631 3.535a.84.84 0 0 1-.095 1.501l-6.962 4.012a2.22 2.22 0 0 1-2.256-.146l-4.63-3.535a.843.843 0 0 1-.26-1.215.84.84 0 0 1 .359-.286" opacity=".3"/><path fill="#F7921E" d="m121.056 166.552-1.326.033-3.724-2.832a2.22 2.22 0 0 0-2.256-.147l-5.692 3.281-1.785.047v1.454a.94.94 0 0 0 .416.731l4.63 3.536a2.2 2.2 0 0 0 2.252.146l6.962-4.012a.92.92 0 0 0 .514-.774z"/><path fill="#000" d="m121.056 166.552-1.326.033-3.724-2.832a2.22 2.22 0 0 0-2.256-.147l-5.692 3.281-1.785.047v1.454a.94.94 0 0 0 .416.731l4.63 3.536a2.2 2.2 0 0 0 2.252.146l6.962-4.012a.92.92 0 0 0 .514-.774z" opacity=".1"/><path fill="#F7921E" d="m106.788 166.156 6.962-4.012a2.18 2.18 0 0 1 2.256.146l4.631 3.53a.84.84 0 0 1 .415.782.84.84 0 0 1-.514.719l-6.962 4.012a2.197 2.197 0 0 1-2.252-.146l-4.63-3.54a.84.84 0 0 1-.408-.775.842.842 0 0 1 .502-.716"/><path fill="#fff" d="m106.788 166.156 6.962-4.012a2.18 2.18 0 0 1 2.256.146l4.631 3.53a.84.84 0 0 1 .415.782.84.84 0 0 1-.514.719l-6.962 4.012a2.197 2.197 0 0 1-2.252-.146l-4.63-3.54a.84.84 0 0 1-.408-.775.842.842 0 0 1 .502-.716" opacity=".3"/><path fill="#F7921E" d="m116.917 144.685-1.326.033-3.724-2.832a2.2 2.2 0 0 0-2.252-.147l-5.687 3.252-1.784.048v1.453a.95.95 0 0 0 .415.732l4.63 3.535a2.2 2.2 0 0 0 2.252.147l6.962-4.012a.894.894 0 0 0 .509-.774z"/><path fill="#000" d="m116.917 144.685-1.326.033-3.724-2.832a2.2 2.2 0 0 0-2.252-.147l-5.687 3.252-1.784.048v1.453a.95.95 0 0 0 .415.732l4.63 3.535a2.2 2.2 0 0 0 2.252.147l6.962-4.012a.894.894 0 0 0 .509-.774z" opacity=".1"/><path fill="#F7921E" d="m102.654 144.288 6.962-4.012a2.18 2.18 0 0 1 2.251.146l4.63 3.531a.84.84 0 0 1-.094 1.501l-6.962 4.012a2.2 2.2 0 0 1-2.252-.147l-4.63-3.53a.84.84 0 0 1-.264-1.213.83.83 0 0 1 .359-.288"/><path fill="#fff" d="m102.654 144.288 6.962-4.012a2.18 2.18 0 0 1 2.251.146l4.63 3.531a.84.84 0 0 1-.094 1.501l-6.962 4.012a2.2 2.2 0 0 1-2.252-.147l-4.63-3.53a.84.84 0 0 1-.264-1.213.83.83 0 0 1 .359-.288" opacity=".3"/><path fill="#F7921E" d="m144.072 165.405-1.327.033-3.724-2.832a2.2 2.2 0 0 0-2.251-.146l-5.693 3.281-1.788.047v1.453a.95.95 0 0 0 .415.732l4.63 3.535a2.215 2.215 0 0 0 2.256.147l6.986-4.008a.91.91 0 0 0 .51-.774z"/><path fill="#000" d="m144.072 165.405-1.327.033-3.724-2.832a2.2 2.2 0 0 0-2.251-.146l-5.693 3.281-1.788.047v1.453a.95.95 0 0 0 .415.732l4.63 3.535a2.215 2.215 0 0 0 2.256.147l6.986-4.008a.91.91 0 0 0 .51-.774z" opacity=".1"/><path fill="#F7921E" d="m129.808 165.008 6.962-4.012a2.19 2.19 0 0 1 2.251.147l4.63 3.53a.842.842 0 0 1-.094 1.501l-6.962 4.012a2.2 2.2 0 0 1-2.256-.146l-4.631-3.531a.838.838 0 0 1 .1-1.501"/><path fill="#fff" d="m129.808 165.008 6.962-4.012a2.19 2.19 0 0 1 2.251.147l4.63 3.53a.842.842 0 0 1-.094 1.501l-6.962 4.012a2.2 2.2 0 0 1-2.256-.146l-4.631-3.531a.838.838 0 0 1 .1-1.501" opacity=".3"/><path fill="#F7921E" d="m135.019 158.5-1.327.033-3.724-2.832a2.18 2.18 0 0 0-2.251-.146l-5.693 3.28-1.784.043v1.458a.95.95 0 0 0 .416.732l4.63 3.531a2.2 2.2 0 0 0 2.251.146l6.962-4.012a.89.89 0 0 0 .51-.77z"/><path fill="#000" d="m135.019 158.5-1.327.033-3.724-2.832a2.18 2.18 0 0 0-2.251-.146l-5.693 3.28-1.784.043v1.458a.95.95 0 0 0 .416.732l4.63 3.531a2.2 2.2 0 0 0 2.251.146l6.962-4.012a.89.89 0 0 0 .51-.77z" opacity=".1"/><path fill="#F7921E" d="m120.755 158.099 6.962-4.012a2.21 2.21 0 0 1 2.251.146l4.635 3.536a.83.83 0 0 1 .415.781.84.84 0 0 1-.514.72l-6.976 4.012a2.21 2.21 0 0 1-2.252-.147l-4.616-3.511a.841.841 0 0 1 .095-1.525"/><path fill="#fff" d="m120.755 158.099 6.962-4.012a2.21 2.21 0 0 1 2.251.146l4.635 3.536a.83.83 0 0 1 .415.781.84.84 0 0 1-.514.72l-6.976 4.012a2.21 2.21 0 0 1-2.252-.147l-4.616-3.511a.841.841 0 0 1 .095-1.525" opacity=".3"/><path fill="#F7921E" d="m125.97 151.599-1.326.033-3.724-2.865a2.2 2.2 0 0 0-2.252-.147l-5.697 3.281-1.784.047v1.454a.95.95 0 0 0 .415.731l4.631 3.536a2.21 2.21 0 0 0 2.256.146l6.957-4.012a.9.9 0 0 0 .515-.774z"/><path fill="#000" d="m125.97 151.599-1.326.033-3.724-2.865a2.2 2.2 0 0 0-2.252-.147l-5.697 3.281-1.784.047v1.454a.95.95 0 0 0 .415.731l4.631 3.536a2.21 2.21 0 0 0 2.256.146l6.957-4.012a.9.9 0 0 0 .515-.774z" opacity=".1"/><path fill="#F7921E" d="m111.706 151.193 6.962-4.012a2.21 2.21 0 0 1 2.252.17l4.63 3.535a.85.85 0 0 1 .319.331.85.85 0 0 1-.059.883.83.83 0 0 1-.359.287l-6.957 4.012a2.22 2.22 0 0 1-2.257-.147l-4.63-3.535a.839.839 0 0 1 .099-1.524"/><path fill="#fff" d="m111.706 151.193 6.962-4.012a2.21 2.21 0 0 1 2.252.17l4.63 3.535a.85.85 0 0 1 .319.331.85.85 0 0 1-.059.883.83.83 0 0 1-.359.287l-6.957 4.012a2.22 2.22 0 0 1-2.257-.147l-4.63-3.535a.839.839 0 0 1 .099-1.524" opacity=".3"/><path fill="#E0E0E0" d="m42.252 72.224-.59 1.025a8.326 8.326 0 0 0-12.49 7.216v49.23l-1.18.666V80.437v3.375-3.37a9.5 9.5 0 0 1 14.26-8.218"/><path fill="#E0E0E0" d="M55.312 96.896v17.685l-26.163 15.104V80.451a8.327 8.327 0 0 1 12.513-7.203 27.38 27.38 0 0 1 13.65 23.647"/><path fill="#000" d="M55.312 96.896v17.685l-26.163 15.104V80.451a8.327 8.327 0 0 1 12.513-7.203 27.38 27.38 0 0 1 13.65 23.647" opacity=".15"/><path fill="#E0E0E0" d="M115.162 208.364v-10.639a21.14 21.14 0 0 0-8.402-16.86l-37.01-27.943a33.33 33.33 0 0 1-13.248-26.597V96.901c0-3.802-.76-7.566-2.238-11.069a29 29 0 0 0-1.576-3.18 28.5 28.5 0 0 0-10.431-10.427l-.59 1.024a27.4 27.4 0 0 1 13.688 23.666v29.415a34.65 34.65 0 0 0 13.711 27.527l36.991 27.952a20.07 20.07 0 0 1 7.939 15.935v10.638a28.33 28.33 0 0 0 14.117 24.455l.586.307v-1.313a27.08 27.08 0 0 1-13.537-23.467M137.723 226.598h-9.024v1.302h9.024zM146.748 221.391h-9.025v1.302h9.025zM155.773 216.18h-9.025v1.302h9.025zM164.797 210.969h-9.025v1.302h9.025zM173.822 205.758h-9.025v1.303h9.025zM180.59 201.85v1.302l-6.773-1.302v-1.303z"/><path fill="#FAFAFA" d="M128.42 231.326a26.88 26.88 0 0 1-12.98-22.963v-10.639a21.52 21.52 0 0 0-8.496-17.091l-37.01-27.943A33.22 33.22 0 0 1 56.8 126.31V96.9a28.6 28.6 0 0 0-2.261-11.177 29 29 0 0 0-1.59-3.21 28.86 28.86 0 0 0-10.536-10.53 9.65 9.65 0 0 0-6.631-1.166l4.62-2.662 14.213-8.217 30.104-17.37.085-.047a9.2 9.2 0 0 1 4.602-1.242 9.1 9.1 0 0 1 4.611 1.228 28.22 28.22 0 0 1 14.108 24.44v29.429a33.8 33.8 0 0 0 13.358 26.824l37 27.928a20.964 20.964 0 0 1 8.293 16.647v10.635a27.43 27.43 0 0 0 12.376 22.887l-5.608-1.081v5.268h-9.024v5.192h-9.025v5.192h-9.025v5.192h-9.029v5.192h-9.02z"/><path fill="#E6E6E6" d="M89.405 41.535c1.568 0 3.107.42 4.46 1.213a27.95 27.95 0 0 1 13.971 24.2v29.429a34.05 34.05 0 0 0 13.466 27.041l37.014 27.947a20.68 20.68 0 0 1 8.18 16.425v10.635a27.74 27.74 0 0 0 11.408 22.368l-3.978-.77-.661-.127v5.329h-9.025v5.192h-9.025v5.192h-9.024v5.192h-9.025v5.192h-9.024v4.781a26.58 26.58 0 0 1-12.414-22.41v-10.639a21.81 21.81 0 0 0-8.633-17.332l-37.01-27.943a32.92 32.92 0 0 1-13.027-26.158V96.901a29.14 29.14 0 0 0-3.894-14.528 29.1 29.1 0 0 0-10.63-10.63 9.9 9.9 0 0 0-5.017-1.364h-.472l3.456-1.992 14.235-8.217L84.86 42.772l.062-.043a8.97 8.97 0 0 1 4.47-1.203m0-.557a9.53 9.53 0 0 0-4.749 1.279l-.075.047-30.095 17.403-14.236 8.217-7.08 4.083a9.5 9.5 0 0 1 4.347-1.062c1.66.006 3.288.45 4.72 1.289A28.5 28.5 0 0 1 52.655 82.65a29 29 0 0 1 1.576 3.181 28.5 28.5 0 0 1 2.242 11.069v29.41a33.33 33.33 0 0 0 13.25 26.602l37.037 27.952a21.14 21.14 0 0 1 8.402 16.869v10.639a27.08 27.08 0 0 0 13.536 23.449v-5.192h9.025v-5.192h9.025v-5.192h9.024v-5.192h9.044v-5.192h9.029v-5.192l6.769 1.303a27.068 27.068 0 0 1-13.537-23.449v-10.757a21.13 21.13 0 0 0-8.402-16.869l-37.014-27.943a33.33 33.33 0 0 1-13.268-26.578V66.97a28.5 28.5 0 0 0-14.25-24.68 9.44 9.44 0 0 0-4.72-1.29z"/><path fill="#F7921E" d="M60.773 65.58a.472.472 0 0 1-.226-.845L82.584 51.99a.472.472 0 0 1 .472.783L61.02 65.518a.47.47 0 0 1-.246.062"/><path fill="#455A64" d="M69.326 64.88a.47.47 0 0 1-.392-.227.444.444 0 0 1 .165-.613l11.017-6.368a.471.471 0 0 1 .472.784L69.57 64.814a.44.44 0 0 1-.245.066M60.122 74.439a.47.47 0 0 1-.392-.227.47.47 0 0 1 .165-.618l33.04-19.088a.472.472 0 0 1 .472.784l-33.04 19.088a.5.5 0 0 1-.245.06M66.286 75.136a.47.47 0 0 1-.392-.226.445.445 0 0 1 .165-.614l25.71-14.844a.471.471 0 0 1 .472.783L66.531 75.08a.5.5 0 0 1-.245.056M66.95 84.53c.32-.192.67-.33 1.035-.406.258-.046.525-.004.756.12.24.163.414.406.491.686.127.412.186.842.174 1.273a5.6 5.6 0 0 1-.28 1.839 4.7 4.7 0 0 1-.756 1.469l1.096 2.592a.4.4 0 0 1 0 .135.46.46 0 0 1-.06.242.37.37 0 0 1-.136.173l-1.194.685c-.121.068-.204.076-.257 0a.7.7 0 0 1-.114-.173l-.982-2.336-.81.468v2.938a.6.6 0 0 1-.075.294.42.42 0 0 1-.166.204l-1.156.67a.13.13 0 0 1-.167 0 .3.3 0 0 1-.068-.219v-8.74a.75.75 0 0 1 .068-.301.47.47 0 0 1 .166-.204zm-.998 4.68.997-.573c.244-.144.453-.34.613-.573.171-.275.255-.595.242-.92 0-.383-.084-.594-.242-.647a.76.76 0 0 0-.613.136l-.997.572zM74.921 87.37a.1.1 0 0 1 .076-.032.1.1 0 0 1 .076.032.34.34 0 0 1 .062.225v1.501a.8.8 0 0 1-.062.311.5.5 0 0 1-.152.21l-3.818 2.481a.1.1 0 0 1-.076.031.1.1 0 0 1-.076-.031.34.34 0 0 1-.062-.225v-9.021q0-.164.062-.311a.5.5 0 0 1 .152-.21l3.75-2.442a.1.1 0 0 1 .075-.032.1.1 0 0 1 .076.032.3.3 0 0 1 .057.1.3.3 0 0 1 .012.118v1.485c0 .106-.024.21-.069.303a.43.43 0 0 1-.151.21l-2.475 1.618v1.485l2.302-1.5a.1.1 0 0 1 .076-.032.1.1 0 0 1 .076.031q.034.047.051.106a.3.3 0 0 1 .01.12v1.477a.8.8 0 0 1-.061.303.5.5 0 0 1-.152.218l-2.302 1.493v1.556zM77.296 82.182v2.258q.012.277.078.546a.8.8 0 0 0 .202.381.48.48 0 0 0 .342.157 1 1 0 0 0 .522-.164q.287-.153.505-.389.19-.203.327-.441.127-.213.194-.449.066-.203.11-.411.03-.184.1-.36a.46.46 0 0 1 .203-.201l1.19-.658a.11.11 0 0 1 .14 0 .24.24 0 0 1 .062.18 5.1 5.1 0 0 1-.225 1.413c-.148.48-.349.944-.6 1.383q-.376.647-.894 1.197c-.322.353-.7.656-1.12.897a2.5 2.5 0 0 1-1.167.36 1.4 1.4 0 0 1-.88-.3 1.86 1.86 0 0 1-.552-.853 4.3 4.3 0 0 1-.225-1.286v-2.386a7 7 0 0 1 .218-1.495 7 7 0 0 1 .56-1.496c.231-.458.524-.886.871-1.271.337-.372.734-.69 1.175-.942.337-.2.718-.32 1.112-.352.314-.022.627.05.895.21.27.173.478.42.599.71.155.37.232.767.225 1.166a.5.5 0 0 1-.062.24.35.35 0 0 1-.14.164l-1.19.666c-.101.052-.171.067-.202 0a.56.56 0 0 1-.101-.247 2 2 0 0 0-.11-.291.5.5 0 0 0-.194-.232.6.6 0 0 0-.326-.083c-.182.02-.355.082-.506.18a1.9 1.9 0 0 0-.521.411 2.66 2.66 0 0 0-.545 1.144 4.4 4.4 0 0 0-.07.643M86.697 80.467a.13.13 0 0 1 .168 0 .29.29 0 0 1 .07.216v1.454a.7.7 0 0 1-.07.298.47.47 0 0 1-.168.201l-4.234 2.379a.13.13 0 0 1-.177 0 .27.27 0 0 1-.069-.21v-8.693c.001-.1.025-.2.07-.29a.5.5 0 0 1 .175-.21l4.158-2.333a.14.14 0 0 1 .176 0c.052.06.077.138.07.216v1.417a.7.7 0 0 1-.07.298.47.47 0 0 1-.176.201l-2.756 1.559v1.439l2.557-1.44a.13.13 0 0 1 .169 0c.051.061.076.139.069.217v1.424c-.001.1-.025.2-.07.29a.47.47 0 0 1-.168.202l-2.557 1.454v1.491zM88.16 81.715a.17.17 0 0 1-.096.029.17.17 0 0 1-.096-.03.3.3 0 0 1-.069-.095.24.24 0 0 1-.019-.11v-8.513a.64.64 0 0 1 .088-.293.43.43 0 0 1 .192-.197l1.336-.644q.041-.03.096-.03c.035 0 .07.01.096.03q.043.042.064.095a.24.24 0 0 1 .015.11v8.55a.6.6 0 0 1-.079.285.46.46 0 0 1-.192.205zM93.002 69.405c.31-.193.654-.326 1.013-.392.263-.041.532.015.756.158.236.177.406.425.484.708.13.414.19.846.174 1.28a6 6 0 0 1-.174 1.505c-.105.441-.267.866-.484 1.265a4.8 4.8 0 0 1-.756 1.039c-.3.297-.641.551-1.014.753l-1.127.654v2.756a.7.7 0 0 1-.075.293.4.4 0 0 1-.167.211l-1.157.663a.13.13 0 0 1-.166 0 .28.28 0 0 1-.068-.211v-8.733a.7.7 0 0 1 .068-.293.45.45 0 0 1 .166-.211zm-1.127 4.878 1.081-.625c.255-.142.467-.35.613-.602.171-.29.255-.621.242-.956 0-.377-.076-.603-.242-.678a.67.67 0 0 0-.613.106l-1.082.617zM100.861 65.254a.13.13 0 0 1 .166 0 .28.28 0 0 1 .068.204v1.38a.66.66 0 0 1-.068.285.44.44 0 0 1-.166.204l-1.551.862v6.73a.66.66 0 0 1-.068.285.38.38 0 0 1-.166.197l-1.152.65a.13.13 0 0 1-.166 0 .28.28 0 0 1-.068-.212v-6.723l-1.552.861a.13.13 0 0 1-.165 0 .28.28 0 0 1-.068-.211v-1.387q0-.153.068-.292a.46.46 0 0 1 .165-.198zM135.415 200.806l1.034-.59v-13.381l-1.034.58zm1.68-.972.378-.218v-13.385l-.378.217zm2.705-1.553.76-.439v-13.391l-.76.439zm-5.39 3.105.274-.16V187.84l-.274.161zm3.662-2.109.76-.439v-13.386l-.76.439zm-4.918 2.832.755-.439v-13.377l-.755.434zm-5.862 3.384.755-.439v-13.377l-.755.439zm1.345-.779.996-.571v-13.367l-.996.576zm1.662-.944.382-.217v-13.395l-.382.217zm10.856-6.263 1.35-.779v-13.391l-1.35.779zm-9.813 5.664 1.095-.633v-13.391l-1.133.633zm24.435-27.499v13.391l.378-.222v-13.396zm-3.955 15.67.76-.439v-13.395l-.76.434zm-2.219 1.279.383-.217v-13.4l-.383.222zm.973-.557.472-.283v-13.395l-.472.278zm2.629-1.519.382-.218v-13.4l-.382.222zm1.104-.638 1.086-.627v-13.4l-1.086.627zm-6.433 3.701.92-.533v-13.382l-.92.529zm-4.045 2.36 1.35-.779V181.78l-1.35.778zm1.822-1.048.76-.439v-13.414l-.76.439zm-2.662-11.852v13.372l.189-.109v-13.395zm3.946 11.111.382-.222v-13.409l-.382.217zM122.808 178.312a.2.2 0 0 1 .066-.013q.035 0 .066.013.032.004.059.022a.14.14 0 0 1 .045.044l.307.534a.152.152 0 0 1 0 .118.2.2 0 0 1-.09.103l-1.019.59 1.51 2.559a.152.152 0 0 1 0 .118.2.2 0 0 1-.09.104l-.755.439a.2.2 0 0 1-.132.023.16.16 0 0 1-.104-.066l-1.482-2.572-1.02.59a.2.2 0 0 1-.132 0 .13.13 0 0 1-.06-.021.14.14 0 0 1-.044-.045l-.306-.534a.13.13 0 0 1-.013-.059q0-.03.013-.059a.2.2 0 0 1 .089-.104zM126.763 176.031a.2.2 0 0 1 .132-.024.2.2 0 0 1 .059.023.2.2 0 0 1 .045.043l1.888 3.238q.013.03.013.062a.14.14 0 0 1-.013.061.2.2 0 0 1-.089.104l-.756.439a.18.18 0 0 1-.191-.001.2.2 0 0 1-.045-.046l-.708-1.228-1.293.746.708 1.227q.012.03.013.062a.2.2 0 0 1-.013.061.2.2 0 0 1-.09.104l-.755.439a.19.19 0 0 1-.132.023.1.1 0 0 1-.061-.021.14.14 0 0 1-.043-.049l-1.888-3.238a.15.15 0 0 1 0-.118.2.2 0 0 1 .09-.104l.755-.439c.041-.024.09-.033.137-.024.04.009.076.032.099.066l.699 1.209 1.283-.741-.698-1.209a.2.2 0 0 1-.013-.061q0-.032.013-.061a.2.2 0 0 1 .09-.1zM129.888 174.257a.27.27 0 0 1 .208-.048q.079.015.146.062l3.082 2.43a.2.2 0 0 1 .071.062.12.12 0 0 1 0 .099.2.2 0 0 1-.071.085l-.727.42a.3.3 0 0 1-.193.052.3.3 0 0 1-.109-.047l-.401-.326-1.534.873.08.51a.3.3 0 0 1 0 .118.3.3 0 0 1-.141.137l-.727.42a.16.16 0 0 1-.109 0 .11.11 0 0 1-.085-.057.3.3 0 0 1 0-.089l-.561-3.885a.4.4 0 0 1 0-.156.3.3 0 0 1 .146-.16zm.326 2.728.944-.538-1.166-.944zM136.543 175.063a.3.3 0 0 1-.184.048.5.5 0 0 1-.118-.029l-2.317-.944.981 1.695a.13.13 0 0 1 0 .122.18.18 0 0 1-.085.104l-.759.435a.2.2 0 0 1-.067.013.2.2 0 0 1-.066-.013.2.2 0 0 1-.057-.021.1.1 0 0 1-.042-.046l-1.888-3.237a.143.143 0 0 1 0-.123.2.2 0 0 1 .085-.104l.604-.345a.3.3 0 0 1 .184-.047.4.4 0 0 1 .118 0l2.318.944-.982-1.694a.14.14 0 0 1 0-.123.2.2 0 0 1 .085-.104l.76-.434c.04-.024.087-.033.132-.024a.126.126 0 0 1 .099.066l1.888 3.238a.13.13 0 0 1 0 .123.18.18 0 0 1-.085.104zM141.447 172.01q.034.013.052.042a.131.131 0 0 1 0 .104.14.14 0 0 1-.07.08l-.921.534a.3.3 0 0 1-.151.047.6.6 0 0 1-.151-.024l-1.784-.561.68 1.17q.012.029.012.061a.2.2 0 0 1-.012.062.22.22 0 0 1-.09.104l-.755.439a.25.25 0 0 1-.137 0 .14.14 0 0 1-.058-.025.14.14 0 0 1-.041-.046l-1.888-3.238a.13.13 0 0 1 0-.123.2.2 0 0 1 .085-.104l.76-.434c.039-.024.086-.033.132-.024a.149.149 0 0 1 .104.067l.608 1.057.392-1.671c0-.028 0-.066.038-.113a.27.27 0 0 1 .132-.128l.902-.524a.2.2 0 0 1 .108 0 .14.14 0 0 1 .085.057.12.12 0 0 1 0 .066l-.557 2.336zM145.053 169.966a.15.15 0 0 1 0 .123.18.18 0 0 1-.089.104l-.756.439a.18.18 0 0 1-.191-.001.2.2 0 0 1-.045-.046l-.613-1.067-2.568-1.355a.14.14 0 0 1-.047-.042.117.117 0 0 1 0-.099.16.16 0 0 1 .071-.085l.793-.472a.3.3 0 0 1 .203-.052.3.3 0 0 1 .113.033l1.444.812v-1.657a.5.5 0 0 1 .028-.113.3.3 0 0 1 .147-.151l.793-.472a.15.15 0 0 1 .108 0q.025.005.046.02t.035.036a.2.2 0 0 1 0 .081l-.109 2.898zM145.379 167.03a1.55 1.55 0 0 1-.165-.614 1.5 1.5 0 0 1 .104-.632 2 2 0 0 1 .387-.614 2.9 2.9 0 0 1 .703-.543q.381-.223.812-.325c.238-.055.484-.066.727-.034.215.03.422.108.604.227.186.116.346.269.472.448.089.137.179.288.269.444.089.156.174.307.245.472.095.19.15.397.161.609a1.5 1.5 0 0 1-.099.637 2 2 0 0 1-.392.614 2.8 2.8 0 0 1-.694.538 2.8 2.8 0 0 1-.817.335 2 2 0 0 1-.722.028 1.6 1.6 0 0 1-.604-.231 1.6 1.6 0 0 1-.444-.444c-.089-.137-.174-.278-.269-.434-.094-.156-.193-.335-.278-.481m3.04-.6-.123-.198a3 3 0 0 0-.128-.231c-.047-.076-.089-.151-.132-.217l-.122-.189a1 1 0 0 0-.194-.194.7.7 0 0 0-.245-.104.8.8 0 0 0-.293 0c-.24.059-.457.185-.628.364a.8.8 0 0 0-.151.25.7.7 0 0 0-.033.264q.015.139.071.265l.099.203q.057.107.127.221c.048.076.085.152.133.227a2 2 0 0 0 .127.189.73.73 0 0 0 .444.302 1.09 1.09 0 0 0 1.066-.618.76.76 0 0 0-.018-.534M152.232 161.328a.19.19 0 0 1 .189-.002.2.2 0 0 1 .043.044l1.156 2.002c.125.208.202.442.227.684a1.5 1.5 0 0 1-.104.656 2 2 0 0 1-.402.595 3.25 3.25 0 0 1-1.416.826 2 2 0 0 1-.712.047 1.5 1.5 0 0 1-.619-.241 1.6 1.6 0 0 1-.472-.538l-1.175-2.001a.167.167 0 0 1 0-.123.18.18 0 0 1 .09-.104l.755-.439c.04-.023.087-.032.132-.023a.2.2 0 0 1 .06.024.14.14 0 0 1 .044.047l1.142 1.977a.72.72 0 0 0 .444.373.82.82 0 0 0 .614-.127.83.83 0 0 0 .42-.472.74.74 0 0 0-.099-.567l-1.143-1.982a.13.13 0 0 1-.016-.061q0-.033.016-.062a.2.2 0 0 1 .085-.104zM155.47 162.519a.14.14 0 0 1 .014.059q0 .031-.014.059a.2.2 0 0 1-.031.061.2.2 0 0 1-.054.043l-.731.425a.19.19 0 0 1-.191 0 .12.12 0 0 1-.04-.048l-1.251-2.161a.13.13 0 0 1 0-.118.2.2 0 0 1 .032-.061.15.15 0 0 1 .053-.043l.727-.42a.17.17 0 0 1 .136 0 .13.13 0 0 1 .1.066zm.623 1.076q.013.03.013.062a.2.2 0 0 1-.013.061.18.18 0 0 1-.085.104l-.731.42a.19.19 0 0 1-.192-.001.2.2 0 0 1-.044-.046l-.293-.505a.14.14 0 0 1 0-.123.2.2 0 0 1 .085-.104l.727-.42c.041-.024.09-.033.137-.024q.031.006.057.025a.13.13 0 0 1 .042.046z"/><path fill="#E0E0E0" d="M121.784 190.234a.22.22 0 0 1-.14-.046.225.225 0 0 1-.072-.269.23.23 0 0 1 .099-.11l37.58-21.712a.23.23 0 0 1 .173-.02.23.23 0 0 1 .139.105.227.227 0 0 1-.085.307l-37.581 21.712a.2.2 0 0 1-.113.033M114.373 177.562a.23.23 0 0 1-.193-.114.224.224 0 0 1 .08-.311l37.694-21.759a.223.223 0 0 1 .173-.025.23.23 0 0 1 .139.105.23.23 0 0 1-.085.311l-37.694 21.76a.2.2 0 0 1-.114.033M123.535 212.54a.22.22 0 0 1-.14-.046.225.225 0 0 1-.072-.269.23.23 0 0 1 .099-.11l38.326-22.122a.2.2 0 0 1 .083-.03.225.225 0 0 1 .246.28.23.23 0 0 1-.102.137l-38.327 22.108a.2.2 0 0 1-.113.052M90.495 159.52a.23.23 0 0 1-.198-.108.23.23 0 0 1 .085-.312l37.693-21.764a.226.226 0 0 1 .286.097.23.23 0 0 1 .025.16.23.23 0 0 1-.089.135l-37.694 21.764a.2.2 0 0 1-.108.028M86.88 105.184l-22.184 12.819a1.1 1.1 0 0 0-.472.85v.991c0 .312.221.434.472.278l22.184-12.814a1.1 1.1 0 0 0 .472-.85v-.991c.014-.312-.203-.439-.472-.283M86.88 99.883l-22.184 12.82a1.08 1.08 0 0 0-.472.849v.987c0 .316.221.439.472.283l22.184-12.815a1.08 1.08 0 0 0 .472-.849v-1.006c.014-.297-.203-.424-.472-.269M103.107 138.229l-22.184 12.82a.35.35 0 0 0-.211.299.35.35 0 0 0 .173.324l.689.519a.95.95 0 0 0 .944.061l22.184-12.819a.35.35 0 0 0 .211-.3.34.34 0 0 0-.041-.186.34.34 0 0 0-.132-.137l-.689-.524a.94.94 0 0 0-.944-.057M107.086 141.217l-22.208 12.839a.35.35 0 0 0-.21.299.35.35 0 0 0 .172.324l.69.519a.95.95 0 0 0 .944.056l22.207-12.819a.35.35 0 0 0 .17-.486.34.34 0 0 0-.132-.137l-.689-.519a.94.94 0 0 0-.944-.076M92.095 128.681 69.911 141.5a.47.47 0 0 0-.142.732c.152.189.303.377.472.561a.7.7 0 0 0 .86.147l22.184-12.82a.48.48 0 0 0 .224-.325.47.47 0 0 0-.102-.383l-.472-.566a.665.665 0 0 0-.84-.165M86.875 89.298 64.69 102.117a1.07 1.07 0 0 0-.472.845v.968c0 .311.217.439.472.283l22.184-12.82a1.07 1.07 0 0 0 .472-.845v-.99c.019-.298-.198-.426-.472-.26M86.88 94.584l-22.184 12.82a1.08 1.08 0 0 0-.472.844v.992c0 .311.221.439.472.283l22.184-12.82a1.08 1.08 0 0 0 .472-.844v-.992c.014-.311-.203-.439-.472-.283M95.262 132.154l-22.184 12.819a.39.39 0 0 0-.19.507q.043.093.124.154c.203.18.415.359.628.529a.89.89 0 0 0 .944.071l22.184-12.82a.36.36 0 0 0 .047-.637c-.208-.17-.42-.349-.623-.529a.84.84 0 0 0-.93-.094M86.88 110.489l-22.184 12.815a1.08 1.08 0 0 0-.472.849v1.015c0 .311.221.439.472.283l22.184-12.819a1.1 1.1 0 0 0 .472-.85v-.991c.014-.335-.203-.458-.472-.302M87.941 120.477l-22.184 12.814a.75.75 0 0 0-.32.826l.24.699a.474.474 0 0 0 .684.25l22.184-12.819a.7.7 0 0 0 .298-.812 21 21 0 0 1-.24-.703.434.434 0 0 0-.662-.255M89.664 124.782 67.48 137.601a.593.593 0 0 0-.23.784q.167.313.344.618a.57.57 0 0 0 .344.264.55.55 0 0 0 .43-.056l22.184-12.82a.567.567 0 0 0 .203-.774 27 27 0 0 1-.345-.613.54.54 0 0 0-.54-.29.6.6 0 0 0-.206.068M87.012 115.73l-22.184 12.819a.94.94 0 0 0-.425.845c.033.283.066.567.109.85a.36.36 0 0 0 .208.311.36.36 0 0 0 .372-.037l22.184-12.82a.88.88 0 0 0 .401-.84c-.042-.283-.08-.562-.113-.85a.343.343 0 0 0-.375-.346.34.34 0 0 0-.177.068M99.128 135.222 76.92 148.047a.35.35 0 0 0-.21.299.35.35 0 0 0 .172.324l.69.519a.95.95 0 0 0 .944.056l22.183-12.819a.35.35 0 0 0 .211-.3.35.35 0 0 0-.173-.323l-.689-.519a.95.95 0 0 0-.92-.062M103.753 133.155l.69.519a.95.95 0 0 0 .944.057l9.628-5.561a.37.37 0 0 0 .217-.306.37.37 0 0 0-.16-.34c-.203-.175-.411-.354-.609-.534a.84.84 0 0 0-.911-.094l-9.761 5.636a.35.35 0 0 0-.211.299.35.35 0 0 0 .173.324M107.43 119.826l-10.667 6.136a.48.48 0 0 0-.252.33.48.48 0 0 0 .106.402l.472.566a.71.71 0 0 0 .859.147l10.568-6.103a.5.5 0 0 0 .168-.135.5.5 0 0 0 .09-.196.466.466 0 0 0-.107-.405l-.415-.581a.633.633 0 0 0-.822-.161M100.213 81.58l-8.675 5.013a1.08 1.08 0 0 0-.472.845v.99c0 .312.217.44.472.284l8.675-5.008a1.08 1.08 0 0 0 .472-.85v-.99c.019-.312-.198-.44-.472-.284M100.218 86.886l-8.68 5.008a1.08 1.08 0 0 0-.472.845v.99c0 .312.217.44.472.284l8.68-5.008a1.09 1.09 0 0 0 .472-.85v-.99c.014-.312-.203-.435-.472-.28M109.366 136.738l9.581-5.537a.352.352 0 0 0 .17-.486.35.35 0 0 0-.132-.137l-.689-.519a.94.94 0 0 0-.944-.057l-9.577 5.551a.354.354 0 0 0-.214.299.35.35 0 0 0 .171.324l.69.519a.945.945 0 0 0 .944.043M121.335 133.005l-9.581 5.532a.34.34 0 0 0-.153.119.36.36 0 0 0-.066.181.35.35 0 0 0 .176.328l.689.519a.934.934 0 0 0 .944.056l9.582-5.531a.355.355 0 0 0 .211-.3.34.34 0 0 0-.041-.186.34.34 0 0 0-.132-.137l-.689-.52a.942.942 0 0 0-.94-.061M100.218 92.185l-8.675 5.007a1.07 1.07 0 0 0-.472.85v.986c0 .312.217.44.472.284l8.675-5.008a1.08 1.08 0 0 0 .472-.85v-.986c.014-.317-.203-.44-.472-.284M110.258 123.497l-10.328 5.962a.38.38 0 0 0-.227.309.38.38 0 0 0 .157.351c.207.18.415.359.627.529a.886.886 0 0 0 .944.071l10.101-5.829a.432.432 0 0 0 .104-.694 27 27 0 0 1-.505-.557.72.72 0 0 0-.873-.142M105.051 115.899l-10.724 6.193a.595.595 0 0 0-.226.783l.344.618a.565.565 0 0 0 .774.203l10.734-6.197a.563.563 0 0 0 .203-.769c-.118-.203-.232-.411-.345-.614a.554.554 0 0 0-.76-.217M103.116 111.716 92.6 117.782a.724.724 0 0 0-.32.821q.113.355.24.703a.47.47 0 0 0 .489.309.5.5 0 0 0 .195-.063l10.625-6.136a.65.65 0 0 0 .26-.803l-.284-.661a.471.471 0 0 0-.689-.236M100.652 102.536l-9.11 5.258a1.07 1.07 0 0 0-.471.849v.991c0 .312.217.439.472.279l9.44-5.452a.85.85 0 0 0 .387-.835 26 26 0 0 1-.142-.812.37.37 0 0 0-.059-.184.365.365 0 0 0-.517-.094M101.634 107.271l-9.978 5.749a.94.94 0 0 0-.43.845q.05.425.114.845a.37.37 0 0 0 .21.314q.092.043.192.034a.37.37 0 0 0 .183-.07l10.228-5.909a.73.73 0 0 0 .321-.821 25 25 0 0 1-.217-.727.419.419 0 0 0-.623-.26M100.228 97.476l-8.685 5.037a1.07 1.07 0 0 0-.472.849v.987c0 .316.217.439.472.283l8.784-5.07a1 1 0 0 0 .472-.849c0-.311-.033-.623-.047-.944-.015-.32-.251-.448-.524-.293"/><path fill="#263238" d="M222.112 159.43s2.064.384 3.216 1.916 3.685 6.103 4.192 6.618c-.303.49-.715.903-1.203 1.208l-1.372-1.621c-.342-.296-.899-1.026-.908-.089-.008.937.093 1.811.195 3.626.059 1.101.422 3.284-1.516 5.36-1.815 1.942-3.976 3.238-5.297 3.398-.789.093-2.558-.11-2.44-1.688.068-.844 1.127-3.964 1.292-5.487.164-1.524 3.841-13.241 3.841-13.241"/><path fill="#FFBDA7" d="M222.424 159.867c-.258-.342-1.06-1.773-1.448-2.435s-1.988-4.162-3.959-9.531c-2.533-6.914-6.901-12.068-8.231-14.672a54 54 0 0 1-3.702-8.864l-5.66 3.605-7.323-.296c-.097 1.085.316 2.533 1.097 4.251l.021.042c.072.156.148.317.224.473 1.562 3.246 4.263 7.175 7.285 11.173l.076.097.106.139c2.912 3.858 6.12 7.783 8.923 11.185v-.08c3.009 3.643 5.441 6.602 6.302 8.075 2.511 4.318 2.11 8.484 2.089 10.759-.021 1.418 1.085 1.713 2.596.506a9.12 9.12 0 0 0 3.377-6.753c.13-5.475-.292-5.694-1.773-7.674"/><path fill="#455A64" d="M192.135 87.654c-.574 4.411-1.14 8.51-1.634 20.193-.422 9.822-.844 15.086-.105 19.931.261 1.727 1.152 3.744 2.836 6.277 5.268 7.943 15.592 20.412 15.592 20.412s2.305-.076 5.065-2.414a8.14 8.14 0 0 0 2.744-5.542s-.296-1.828-4.643-9.156c-4.348-7.327-5.006-15.321-5.006-15.321l2.368-31.417c-6.614.71-14.102-.451-17.217-2.963"/><path fill="#37474F" d="M213.889 152.052a8.14 8.14 0 0 0 2.744-5.542s-.296-1.828-4.643-9.155c-4.348-7.328-5.006-15.322-5.006-15.322l1.815-24.06c-5.188-.742-12.41-.56-12.41-.56-.093 3.439.701 7.681 5.53 10.167 0 0-.667 16.909-.714 21.852-.033 3.773 1.153 13.355 1.718 17.69a436 436 0 0 0 5.909 7.336s2.297-.068 5.057-2.406"/><path fill="#263238" d="M212.868 169.404a6.34 6.34 0 0 1 1.655 3.609c.135 2.06-.232 7.678-.089 8.442a3.6 3.6 0 0 1-1.667.393l-.266-2.271c-.127-.465-.072-.845-.587 0-.515.844-.945 1.789-1.747 3.018-.638.97-1.537 3.271-4.293 4.018-2.579.696-5.55.363-6.753-.266-.714-.376-1.993-.971-1.039-2.317.511-.718 3.377-3.596 4.339-4.871s10.447-9.755 10.447-9.755"/><path fill="#FFBDA7" d="M205.907 169.184c.245-5.374-4.28-30.062-2.668-41.58l14.436.143a62.4 62.4 0 0 0-1.714 10.168c-.304 3.132.549 10.341-1.089 18.078-1.266 6.011-1.827 10.13-1.865 10.941s-.144 2.587-.114 3.047c.173 2.66-.266 4.162-3.272 8.307-.582.802-1.992 3.402-5.909 3.824-1.925.211-2.693-.696-1.899-1.971 1.258-2.039 3.849-5.584 4.094-10.957"/><path fill="#F0997A" d="M215.961 137.916c-.054 1.22 0 2.435.03 3.655s.063 2.44.068 3.664a58 58 0 0 1-.423 7.323c-.151 1.216-.379 2.419-.624 3.613l-.743 3.571a127 127 0 0 0-.684 3.584 69 69 0 0 0-.578 3.609c.203-2.433.531-4.853.983-7.252.422-2.41 1.009-4.769 1.267-7.175.168-1.199.27-2.415.358-3.626.089-1.211.11-2.431.148-3.647s.03-2.435.034-3.655.025-2.453.164-3.664"/><path fill="#455A64" d="M192.135 87.654s1.667 5.69 3.528 10.84c1.617 4.474 4.643 6.964 7.801 7.969 0 0-.781 20.222-1.026 23.037-.245 2.816.544 13.001 1.22 19.699s.89 8.991.89 8.991 1.406 1.49 5.293 1.507 5.099-1.659 5.099-1.659 2.36-7.792 2.381-13.883c0-3.486-.751-5.208-.152-8.674s5.145-18.935 5.854-26.245-.578-13.705-5.706-21.105c-5.365 3.74-20.21 3.027-25.182-.477"/><path fill="#37474F" d="M215.113 89.304c2.777 3.837 6.808 11.78 4.17 23.291a993 993 0 0 1-2.224 9.488c-1.688 7.155-3.039 12.807-3.2 14.959-.054 1.212.02 2.426.22 3.622.424 2.824.461 5.692.11 8.526-.422 3.677-1.098 7.547-1.575 10.164q.244-.067.46-.148c.477-2.617 1.11-6.382 1.541-9.965a31.6 31.6 0 0 0-.114-8.632 17.3 17.3 0 0 1-.215-3.533c.16-2.11 1.498-7.758 3.191-14.891.726-3.06 1.473-6.218 2.224-9.493 2.655-11.595-1.363-19.631-4.183-23.561z"/><path fill="#37474F" d="M192.029 86.43a37.3 37.3 0 0 0 13.355 2.853c8.146.089 12.013-2.457 12.013-2.457.042.92.311 1.815.785 2.605 0 0-4.677 2.807-12.773 2.566-8.096-.24-13.473-3.01-13.473-3.01.112-.847.143-1.704.093-2.557"/><path fill="#F7921E" d="M200.049 61.324c-3.377.608-4.99 1.659-7.526 5.728-2.537 4.069-10.215 14.879-10.215 14.879s1.731 4.377 8.02 5.512c2.954-4.22 8.75-12.528 8.75-12.528z"/><path fill="#000" d="M200.049 61.324c-3.377.608-4.99 1.659-7.526 5.728-2.537 4.069-10.215 14.879-10.215 14.879s1.731 4.377 8.02 5.512c2.954-4.22 8.75-12.528 8.75-12.528z" opacity=".3"/><path fill="#FAFAFA" d="M218.461 85.409c0 .874 2.22 5.263 3.436 10-7.286 9.391-28.855 4.266-30.433-1.018.338-6.28.629-22.139 2.005-25.009a21.2 21.2 0 0 1 6.606-7.868c1.52-.295 3.056-.5 4.6-.612a26.9 26.9 0 0 1 6.897.178c2.043.312 5.399 1.198 5.399 1.198 1.266 1.08 4.824 5.635 4.001 11.122-.375 2.52-2.52 5.808-2.511 12.009"/><path fill="#F7921E" d="m212.362 60.758-.03.772s-3.047 7.75-3.149 14.035 1.929 30.85 1.929 30.85 5.15-.662 8.02-2l.198-5.943 1.334 5.381s1.735-.544 2.626-1.832c0-2.325-.596-7.175-2.626-12.32s-2.11-6.087-.692-11.186 2.575-7.47.891-11.135c-1.685-3.663-3.656-5.314-3.656-5.314zM203.767 60.758l-.025.907a64 64 0 0 0-5.301 6.332c-2.512 3.457-2.461 4.841-3.483 10.219-1.021 5.377-1.401 23.316-1.401 23.316a27 27 0 0 1-3.056-1.03s.637-10.552.869-14.182c.233-3.63.566-11.92 1.102-14.3s.384-2.922 2.436-5.716a25.6 25.6 0 0 1 5.141-4.968z"/><path fill="#FFBDA7" d="M199.91 91.064c-.203-.59-1.963-1.688-2.347-2.891-.224-.705.24-1.726.992-1.026 1.574 1.473 2.726 1.689 3.761 2.406"/><path fill="#FAFAFA" d="M160.169 80.014c-.388 1.326.671 4.086 2.398 4.597a7.8 7.8 0 0 0-1.351 2.63c-.566 1.92.726 4.39 3.377 5.17l20.294 5.956 2.908.894 6.753-23.012-2.925-.844s-3.153-9.86-3.292-11.342c-.139-1.481 2.111-7.175 2.419-8.222s-4.61-2.955-7.332.422c-2.723 3.377-3.799 6.521-3.917 10.375l-12.266-3.609c-2.592-.76-4.352 1.317-4.782 2.773a4.31 4.31 0 0 0 .937 4.166 3.574 3.574 0 0 0-3.47 2.727 4.02 4.02 0 0 0 1.891 4.593s-1.055.738-1.642 2.726"/><path fill="#E0E0E0" d="M190.763 55.87c.312-1.064-4.609-2.955-7.332.422s-3.799 6.521-3.917 10.375l.152.21 2.182.617c1.849-11.856 6.576-12.249 8.915-11.624"/><path fill="#F7921E" d="m186.887 102.334 8.844 2.602 7.854-26.702-8.844-2.601z"/><path fill="#000" d="m186.887 102.334 8.844 2.602 7.854-26.702-8.844-2.601z" opacity=".2"/><path fill="#E0E0E0" d="M161.824 77.327s-1.068.697-1.65 2.685a2 2 0 0 0-.063.32c-.169 1.402.844 3.8 2.456 4.276a7.9 7.9 0 0 0-1.351 2.63 3.4 3.4 0 0 0-.113.59c-.182 1.807 1.105 3.88 3.49 4.58l4.078 1.2c-2.389-.701-3.673-2.774-3.495-4.58q.031-.303.114-.596a7.8 7.8 0 0 1 1.35-2.625c-1.595-.473-2.625-2.874-2.456-4.28q.017-.16.063-.317c.583-1.987 1.655-2.684 1.655-2.684a4.02 4.02 0 0 1-1.895-4.592l.025-.064a3.56 3.56 0 0 1 3.444-2.663 4.34 4.34 0 0 1-.937-4.166 4 4 0 0 1 .089-.262c.553-1.426 2.258-3.224 4.693-2.511l-4.073-1.195c-2.44-.717-4.145 1.08-4.693 2.508a4.325 4.325 0 0 0-.172 2.469c.165.73.516 1.405 1.02 1.958a3.57 3.57 0 0 0-3.449 2.664l-.021.063a4.02 4.02 0 0 0 1.891 4.592"/><path fill="#455A64" d="m184.841 98.535-20.29-5.973a5.16 5.16 0 0 1-2.988-2.216 3.925 3.925 0 0 1-.498-3.145 8.1 8.1 0 0 1 1.241-2.507 3.85 3.85 0 0 1-1.875-2 4.23 4.23 0 0 1-.422-2.719 5.5 5.5 0 0 1 1.524-2.617 4.22 4.22 0 0 1-1.76-4.643 3.74 3.74 0 0 1 3.288-2.828 4.45 4.45 0 0 1-.755-4.064 4.64 4.64 0 0 1 1.637-2.305 3.68 3.68 0 0 1 3.339-.578l12.072 3.55c.164-3.968 1.35-7.05 3.942-10.266 1.933-2.401 5.116-2.27 6.754-1.414.654.342.966.752.844 1.123-.076.262-.266.79-.503 1.456-.704 1.963-2.013 5.618-1.907 6.707.13 1.376 2.954 10.278 3.258 11.228l2.997.844-6.838 23.304zm6.669-22.962-.025-.08c-.131-.422-3.162-9.894-3.301-11.397-.11-1.16 1.165-4.719 1.925-6.842a55 55 0 0 0 .502-1.44c.08-.248-.224-.501-.701-.75-1.545-.807-4.533-.925-6.356 1.333-2.592 3.212-3.753 6.29-3.879 10.278v.207l-12.465-3.664a3.38 3.38 0 0 0-3.06.528 4.36 4.36 0 0 0-1.524 2.136 4.17 4.17 0 0 0 .904 4.014l.261.283h-.388a3.38 3.38 0 0 0-3.309 2.612 3.87 3.87 0 0 0 1.815 4.407l.236.127-.224.147s-1.029.697-1.587 2.596a3.9 3.9 0 0 0 .397 2.49c.464.997 1.157 1.689 1.891 1.904l.232.072-.156.186a7.9 7.9 0 0 0-1.321 2.57 3.63 3.63 0 0 0 .468 2.887 4.85 4.85 0 0 0 2.803 2.09l20.294 5.968 2.752.844 6.665-22.704z"/><path fill="#000" d="m186.889 102.332 8.844 2.602 3.927-13.351-8.844-2.601z" opacity=".2"/><path fill="#F0F0F0" d="M193.612 100.561a1.334 1.334 0 1 0-2.56-.75 1.334 1.334 0 0 0 2.56.75"/><path fill="#FFBDA7" d="M202.316 89.554c1.038.73 2.11.983 4.157 1.076 2.187.097 10.844-3.457 10.844-3.457l-1.596-11.519s-1.832-8.703 1.532-13.312c5.357 1.14 5.779 2.718 6.446 4.947.511 1.688 1.101 3.93 1.874 11.396.696 6.678.768 8.442.696 11.798-.067 2.912-2.389 3.845-6.42 4.782s-6.622 1.266-12.35 2.11c-2.752.422-4.314.22-6.703.165a8.7 8.7 0 0 1-2.672-.388 5.14 5.14 0 0 1-2.11-1.233 1.5 1.5 0 0 0-.334-.304 3.5 3.5 0 0 0-.422-.181 3 3 0 0 1-.772-.363 5 5 0 0 1-.608-.671 3 3 0 0 0-.27-.313 2.3 2.3 0 0 0-.355-.253 3.2 3.2 0 0 1-.907-.663.58.58 0 0 1-.097-.561s-.452-.182-.604-.253a3.3 3.3 0 0 1-.591-.363.3.3 0 0 1-.152-.22q0-.084.051-.152c.422-.743 1.308-.738 2.064-.67 1.963.172 3.161.691 5.145.65 1.081-.026 1.372-.052 1.668-.258a.22.22 0 0 0 .095-.124.23.23 0 0 0-.011-.155"/><path fill="#F0997A" d="M217.317 87.173a22.5 22.5 0 0 1 4.339-1.63s-1.368-.535-4.449.845zM192.316 92.69c.448.202.916.362 1.381.523.464.16.937.3 1.401.452.232.075.464.16.705.227q.36.102.722.165.724.147 1.46.22l-.713-.178a20 20 0 0 1-.714-.177c-.236-.063-.477-.123-.709-.198s-.46-.157-.696-.233a42 42 0 0 0-1.414-.422zM193.557 94.045q.471.335.996.578c.346.156.701.291 1.055.422.355.131.722.24 1.085.342q.547.158 1.11.24c-.358-.117-.709-.252-1.068-.375l-1.063-.38-1.064-.384a14 14 0 0 1-1.051-.443"/><path fill="#F7921E" d="M217.207 62.066c3.676.946 5.314 1.587 6.082 3.403.768 1.814 1.144 2.954 1.975 7.855a130 130 0 0 1 1.397 16.237c-.038 2.68.262 3.8-2.722 4.91s-9.742 2.076-9.742 2.076a12 12 0 0 0-.114-3.697 13.2 13.2 0 0 0-1.625-3.968l4.533-1.811s-1.587-10.274-1.811-12.084-.852-9.071 2.027-12.92"/><path fill="#000" d="M217.207 62.066c3.676.946 5.314 1.587 6.082 3.403.768 1.814 1.144 2.954 1.975 7.855a130 130 0 0 1 1.397 16.237c-.038 2.68.262 3.8-2.722 4.91s-9.742 2.076-9.742 2.076a12 12 0 0 0-.114-3.697 13.2 13.2 0 0 0-1.625-3.968l4.533-1.811s-1.587-10.274-1.811-12.084-.852-9.071 2.027-12.92" opacity=".3"/><path fill="#37474F" d="m198.331 50.248-.671-.207c-3.01-1.616-2.858-5.537-2.111-7.597 1.634-4.563 6.568-6.273 9.62-6.441 5.791-.317 8.619 1.177 9.214 4.178.785-.067 1.865.566 2.532 1.452 1.423 1.938 3.12 8.691-4.389 15.816z"/><path fill="#FFBDA7" d="M213.889 55.21c1.047.151 1.857-.398 2.461-1.115 1.342-1.6 1.409-3.174.717-4.196-.574-.844-1.92-1.333-2.824-.717-.966.662-.979 1.169-1.325 1.887-.346.717-1.802.713-2.258-2.11-.422-2.635-.308-5.395-1.646-6.54-2.005-1.687-4.508-1.118-5.234-.033a2.623 2.623 0 0 0-3.605-.755c-1.266.747-2.22 2.769-2.478 7.804-.265 5.133 1.06 8.273 2.267 9.088.916.62 1.925.873 3.845.886l-.067 2.254s-2.6 4.913-2.423 9.286c0 0 1.059-.73 5.829-4.9l5.183-4.53.27-7.078a1.65 1.65 0 0 0 1.288.768"/><path fill="#263238" d="m199.036 46.965 1.887-.722a.98.98 0 0 0-.505-.572.97.97 0 0 0-.762-.032 1.06 1.06 0 0 0-.62 1.326M206.038 46.23l1.87 1.089a1.04 1.04 0 0 0-.355-1.465 1.134 1.134 0 0 0-1.515.376"/><path fill="#37474F" d="M208.549 42.764c.452.574.785 1.152.714 3.212-.026.844.038 2.862.612 4.056.502 1.047 1.025 1.689 2.14 1.862.676.1 1.366.03 2.009-.203.392-.181 1.503-.962 1.367-2.11a2.4 2.4 0 0 1-.814.574 2.4 2.4 0 0 1-.735.177 2.25 2.25 0 0 1-1.895-1.05c-.747-1.111-.7-2.605-.928-3.88-.292-1.612-.57-3.448-2.031-4.25-1.722-.946-4.837-.524-5.208 1.236a3.42 3.42 0 0 1 4.769.376"/><path fill="#B16668" d="m205.958 53.777-2.82.781a1.46 1.46 0 0 0 .754.915 1.47 1.47 0 0 0 1.184.06 1.375 1.375 0 0 0 .882-1.756"/><path fill="#F0997A" d="M204.27 55.584a1.535 1.535 0 0 1 1.595-1.305q.072.01.144.026a1.3 1.3 0 0 1-.933 1.228 1.7 1.7 0 0 1-.806.05M203.776 47.623l-.591 5.023-2.727-1.06zM203.809 59.413a18 18 0 0 0 5.42-1.224c.629-.279 1.469-1.435 2.148-2.718 0 0-.46 2.532-1.815 3.402-2.064 1.342-5.782 1.659-5.782 1.659z"/><path fill="#263238" d="M199.508 48.468c-.148.422.135.548.532.692s.751.228.899-.181a.765.765 0 0 0-.199-.83.76.76 0 0 0-.843-.122.76.76 0 0 0-.389.44"/><path fill="#263238" d="M200.864 48.14a1.9 1.9 0 0 0-.566-.212 1.7 1.7 0 0 0-.591-.038c-.209.02-.414.078-.603.169 0 0-.026.05 0 .046.164 0 .303-.038.54-.046q.334.003.658.089.394.09.747.287c.076.038.224.122.241.135.017.012.042-.043.03-.06a1.3 1.3 0 0 0-.456-.37M207.178 48.745c.093.422-.211.524-.62.608-.41.085-.777.131-.87-.3a.76.76 0 0 1 1.49-.308"/><path fill="#263238" d="M205.878 48.232q.285-.112.591-.135.298-.03.591.042.306.079.574.249s.021.055 0 .05c-.157-.038-.296-.084-.528-.122a2.7 2.7 0 0 0-.663 0 2.8 2.8 0 0 0-.776.182l-.258.1c-.025 0-.038-.045-.025-.062.14-.136.309-.24.494-.304"/><path fill="#FFBDA7" d="M173.525 96.136c-1.182 0-1.245-.135-1.422-.722a3.023 3.023 0 0 1 .422-2.73c.515-.668 1-1.364 1.439-1.584s.958.616.511 1.65c-.701 1.63-.313 1.896-.313 1.896q.444-1.047.997-2.039c.346-.54 1.266-1.304 1.802-1.828.536-.523 1.367-.088.903 1.106l.958-.958c.671-.671 1.267-.633 1.3.3.021.31-.063.618-.24.873 0 0 .586-.806.865-.628.806.51.646 1.156-.068 3.132-.603 1.688-.371 2.532.296 2.794l.422.126s-.819.363-1.612.642c-.579.203-1.148.317-1.651-.33 0 0-.629.904-1.215.558a3.5 3.5 0 0 1-1.026-1.072 1.19 1.19 0 0 1-1.266-.17 1.94 1.94 0 0 1-.731-1.025z"/><path fill="#F0997A" d="M177.868 91.885a6 6 0 0 0-.819.903 4 4 0 0 0-.392 1.173 14 14 0 0 0-.325 2.381c.289-.747.514-1.519.671-2.305q.092-.572.287-1.118c.185-.33.405-.671.578-1.034M179.886 92.1a2.7 2.7 0 0 0-.807 1.042q-.27.603-.422 1.245a12.3 12.3 0 0 0-.354 2.57q.413-1.224.696-2.485c.144-.84.445-1.644.887-2.372"/></svg>