<svg xmlns="http://www.w3.org/2000/svg" width="256" height="256" fill="none"><path stroke="#D5D5D5" d="M240.614 165.836c0 20.164-12.472 38.484-32.772 51.787-20.295 13.3-48.362 21.543-79.389 21.543-31.028 0-59.095-8.243-79.39-21.543C28.763 204.32 16.29 186 16.29 165.836c0-20.165 12.472-38.485 32.772-51.788 20.295-13.3 48.362-21.543 79.39-21.543s59.094 8.243 79.389 21.543c20.3 13.303 32.772 31.623 32.772 51.788Z"/><path fill="#000" d="M123.521 134.903v11.435l24.491-14.127a34.4 34.4 0 0 1 1.32-8.684v-.035a40 40 0 0 1 1.482-4.319z"/><path fill="#F7921E" d="M125.224 38.036a2.09 2.09 0 0 0-2.142-.168L73.569 66.44c-.684.405-1.112 1.326-1.112 2.629v34.159c2.108-1.784 4.887-2.316 8.013-1.419 1.123.342 2.201.814 3.213 1.407 3.26 1.859 6.282 4.985 8.748 8.731q.696 1.048 1.338 2.165l49.496-28.566V48.492z"/><path fill="#000" d="M125.224 38.036a2.09 2.09 0 0 0-2.142-.168L73.569 66.44c-.684.405-1.112 1.326-1.112 2.629v34.159c2.108-1.784 4.887-2.316 8.013-1.419 1.123.342 2.201.814 3.213 1.407 3.26 1.859 6.282 4.985 8.748 8.731q.696 1.048 1.338 2.165l49.496-28.566V48.492z" opacity=".3"/><path fill="#F7921E" d="M150.583 18.403a2.1 2.1 0 0 0-2.143-.173c-.671.393-50.804 29.33-53.45 30.859l-.093.058c-.66.416-1.083 1.325-1.083 2.61v62.356a40 40 0 0 1 2.455 5.043l11.794 6.808v-16.257l53.514-14.66V24.743z"/><path fill="#fff" d="m161.56 24.742-53.497 30.894-11-6.368a2.1 2.1 0 0 0-2.096-.191c2.646-1.529 52.779-30.466 53.45-30.86a2.09 2.09 0 0 1 2.143.174z" opacity=".3"/><path fill="#37474F" d="M107.25 123.631a2.12 2.12 0 0 1-.695-1.384 33 33 0 0 0-.399-2.211 1.47 1.47 0 0 1 .075-1.083l.22-.128c.208-.121.232-.607.04-1.157l-1.395-4.053c-.208-.579-.579-1.042-.868-.99s-.701-.377-.985-.95c-.335-.7-.7-1.389-1.076-2.061a1.88 1.88 0 0 1-.29-1.476 1.55 1.55 0 0 0-.365-1.372l-2.426-3.26c-.3-.411-.648-.579-.84-.481l-.422.244a1.26 1.26 0 0 1-.671-.394c-.48-.486-.967-.944-1.47-1.378a2.13 2.13 0 0 1-.742-1.372 1.58 1.58 0 0 0-.747-1.199l-2.802-1.615a.58.58 0 0 0-.58-.064l-1.377.793a9 9 0 0 0-1.019-.202 1.39 1.39 0 0 1-.978-.869.94.94 0 0 0-.938-.706l-2.426.469a.5.5 0 0 0-.157.058l-9.755 5.593a.675.675 0 0 0-.255.723s-2.767 1.598-2.976 1.737a.5.5 0 0 0-.197.209l-1.4 2.42a1.3 1.3 0 0 0 .11 1.308 1.8 1.8 0 0 1 .23 1.448 17 17 0 0 0-.405 1.737l-.99.579a.8.8 0 0 0-.254.7v3.729a1.65 1.65 0 0 0 .55 1.32c.393.348.64.832.694 1.355.105.741.238 1.488.4 2.229.11.357.084.744-.075 1.082l-.209.122c-.202.122-.22.579-.035 1.158l1.402 4.053c.208.579.579 1.042.845.995.266-.046.677.383.955.956.342.718.712 1.418 1.094 2.107a1.87 1.87 0 0 1 .307 1.448c-.15.254 0 .857.382 1.343l2.42 3.259c.307.412.655.608.84.504l.359-.249c.268.062.51.208.689.417q.738.748 1.511 1.419c.404.326.668.794.741 1.308a1.53 1.53 0 0 0 .753 1.158l2.796 1.615a.61.61 0 0 0 .58.076l1.244-.718q.572.151 1.158.237a1.31 1.31 0 0 1 .984.857.89.89 0 0 0 .92.648l2.42-.469a.5.5 0 0 0 .169-.063l9.773-5.611a.64.64 0 0 0 .26-.717l2.953-1.708a.6.6 0 0 0 .214-.226l1.396-2.42a1.284 1.284 0 0 0-.093-1.291 1.8 1.8 0 0 1-.22-1.43q.243-.876.394-1.772l.967-.579a.78.78 0 0 0 .26-.701v-3.728a1.67 1.67 0 0 0-.573-1.326"/><path fill="#455A64" d="M98.051 134.283v-3.734a1.65 1.65 0 0 0-.579-1.326 2.14 2.14 0 0 1-.689-1.39q-.163-1.101-.405-2.211c-.127-.579-.035-1.129.231-1.158.267-.029.319-.579.11-1.158l-1.4-4.053c-.21-.579-.58-1.042-.87-.99-.289.052-.7-.382-.978-.949q-.51-1.053-1.082-2.062a1.9 1.9 0 0 1-.29-1.476c.162-.272 0-.886-.365-1.372l-2.402-3.277c-.36-.481-.782-.654-.938-.376-.157.277-.58.15-.996-.249-.48-.487-.973-.95-1.47-1.378a2.13 2.13 0 0 1-.742-1.372 1.56 1.56 0 0 0-.752-1.199l-2.797-1.615c-.417-.238-.752-.093-.752.33a.54.54 0 0 1-.226.467.54.54 0 0 1-.516.054 9 9 0 0 0-1.47-.324 1.42 1.42 0 0 1-.996-.904.94.94 0 0 0-.938-.7l-2.42.463c-.359.069-.521.498-.365.955a.99.99 0 0 1-.29 1.158 7 7 0 0 0-1.082.811.66.66 0 0 1-.532.133.66.66 0 0 1-.446-.318c-.272-.365-.66-.371-.869 0l-1.4 2.42a1.3 1.3 0 0 0 .11 1.308 1.8 1.8 0 0 1 .23 1.448 17 17 0 0 0-.405 1.736c-.086.493-.382.765-.688.579-.307-.185-.58.128-.58.684v3.728a1.64 1.64 0 0 0 .55 1.32c.404.346.66.833.718 1.361.105.741.238 1.488.4 2.229.127.579.04 1.158-.22 1.158s-.301.579-.099 1.158l1.402 4.053c.208.578.579 1.042.845.995.266-.046.677.382.955.956.342.718.712 1.418 1.094 2.107a1.87 1.87 0 0 1 .307 1.448c-.15.254 0 .856.382 1.343l2.42 3.259c.365.487.776.672.921.417s.58-.116.973.29q.738.748 1.51 1.418c.404.327.67.795.742 1.309a1.53 1.53 0 0 0 .753 1.158l2.796 1.615c.417.237.753.116.753-.278s.336-.579.74-.457q.744.219 1.512.33a1.31 1.31 0 0 1 .955.868.9.9 0 0 0 .92.649l2.42-.469a.64.64 0 0 0 .404-.359.63.63 0 0 0-.021-.539.96.96 0 0 1 .307-1.1 7.2 7.2 0 0 0 1.1-.839.62.62 0 0 1 .513-.148.63.63 0 0 1 .442.298.46.46 0 0 0 .42.268.47.47 0 0 0 .42-.268l1.4-2.42a1.28 1.28 0 0 0-.098-1.291 1.84 1.84 0 0 1-.22-1.436q.25-.857.4-1.737c.08-.492.376-.77.683-.579s.55-.22.55-.77"/><path fill="#263238" d="m89.455 98.05-8.343 4.788h-.046a.44.44 0 0 0-.174.4.53.53 0 0 1-.477.559.53.53 0 0 1-.264-.044c-.156-.052-.312-.087-.469-.127a9 9 0 0 0-1.002-.197 1.16 1.16 0 0 1-.578-.324l9.697-5.559c.169.166.382.28.614.325.359.034.695.098 1.042.18"/><path fill="#000" d="m95.246 101.021-9.762 5.564a1.74 1.74 0 0 1-.295-.845 1.3 1.3 0 0 0-.214-.66l9.773-5.593c.13.197.203.425.214.66.014.311.112.613.284.874"/><path fill="#263238" d="m97.824 103.278-9.263 5.332s-.047 0-.058.035a.2.2 0 0 0-.099.093.28.28 0 0 1-.33.133 1.16 1.16 0 0 1-.665-.382q-.721-.737-1.477-1.378a2.1 2.1 0 0 1-.44-.527l9.75-5.564q.186.288.44.515.756.642 1.476 1.378c.177.19.41.318.666.365M104.555 112.764l-9.761 5.593a.4.4 0 0 0-.319-.122c-.272.052-.7-.376-.984-.943-.341-.707-.7-1.39-1.077-2.067a1.84 1.84 0 0 1-.29-1.471.63.63 0 0 0 .053-.359l9.756-5.593a.6.6 0 0 1-.052.353 1.9 1.9 0 0 0 .283 1.483c.388.66.741 1.349 1.083 2.055.278.579.706 1.002.984.949a.45.45 0 0 1 .324.122"/><path fill="#000" d="m94.79 118.356 9.761-5.593a.453.453 0 0 0-.325-.121.35.35 0 0 1-.15 0l-9.756 5.575q.077.021.15 0a.4.4 0 0 1 .32.139M101.877 108.155a.57.57 0 0 0 .052-.353l-9.755 5.593a.63.63 0 0 1-.052.359.85.85 0 0 0-.047.515l9.756-5.598a.9.9 0 0 1 .046-.516"/><path fill="#263238" d="m107.617 124.08-9.767 5.593a1.04 1.04 0 0 0-.36-.452 2.1 2.1 0 0 1-.688-1.378 32 32 0 0 0-.406-2.211 1.4 1.4 0 0 1 .087-1.106l.127-.075.11-.064 9.513-5.419a1.46 1.46 0 0 0-.081 1.077c.162.741.295 1.482.405 2.211.049.536.297 1.034.695 1.396.157.108.283.255.365.428"/><path fill="#000" d="M107.25 123.636a1.3 1.3 0 0 1-.411-.515l-9.778 5.593c.088.204.23.38.41.509.16.114.285.271.36.452l9.767-5.593a1.1 1.1 0 0 0-.348-.446"/><path fill="#263238" d="m106.602 133.664-9.755 5.598a1.24 1.24 0 0 0-.209-.498 1.6 1.6 0 0 1-.249-.677 1.7 1.7 0 0 1 0-.759q.25-.857.4-1.736c.087-.493.376-.759.677-.579a.31.31 0 0 0 .33 0l8.783-5.043a19 19 0 0 1-.399 1.766 1.78 1.78 0 0 0 .22 1.435c.106.146.175.315.202.493"/><path fill="#000" d="M96.638 138.766c.105.148.176.318.208.497l9.756-5.598a1.1 1.1 0 0 0-.203-.498 1.45 1.45 0 0 1-.243-.62L96.4 138.14c.033.223.114.437.238.626"/><path fill="#263238" d="M73.667 104.408a7.7 7.7 0 0 0-1.083.811.65.65 0 0 1-.535.136.64.64 0 0 1-.45-.322.506.506 0 0 0-.636-.225l.04-.029 2.895-1.679c0 .052.03.11.04.168a.98.98 0 0 1-.271 1.14"/><path fill="#000" d="M101.695 139.529h-.035l-.173.105-9.46 5.425-.082.046a.69.69 0 0 0 .191-.822.945.945 0 0 1 .307-1.094q.589-.367 1.1-.834a.626.626 0 0 1 .956.139.5.5 0 0 0 .544.243l.116-.058 6.774-3.867a.65.65 0 0 1-.238.717"/><path fill="#263238" d="m86.257 143.936-1.245.718a.36.36 0 0 0 .173-.347c0-.394.336-.579.747-.463zM77.959 138.654l-.29.162v-.034a.24.24 0 0 1 .29-.128M69.27 111.953c-.081.492-.388.758-.689.579a.33.33 0 0 0-.249-.035l.081-.046.139-.082z"/><path fill="#000" d="m87.797 97.548-9.727 5.581a1.4 1.4 0 0 1-.393-.579 1.16 1.16 0 0 0-.411-.579l9.761-5.58c.194.144.338.347.411.578.075.218.197.416.36.58"/><path fill="#37474F" d="M104.436 128.777c0 6.056-2.015 10.329-5.21 12.158-.939.545-1.35.77-2.155 1.239 3.138-1.864 5.119-6.114 5.119-12.117 0-11.065-6.722-23.924-15.054-28.717-3.578-2.067-6.866-2.316-9.448-.996l1.881-1.06c2.64-1.528 6.08-1.39 9.843.782 8.296 4.788 15.024 17.647 15.024 28.711"/><path fill="#000" d="M102.2 130.064c0 6.004-1.98 10.248-5.118 12.112l-.649.342c3.127-1.859 4.319-5.616 4.319-11.614 0-11.065-6.733-23.924-15.053-28.717-3.711-2.143-6.317-2.791-8.94-1.326l.939-.516c2.582-1.29 5.87-1.07 9.449 1.002 8.33 4.794 15.053 17.653 15.053 28.717"/><path fill="#37474F" d="m87.026 96.39-9.762 5.593a.7.7 0 0 0-.527-.145l-1.001.192-1.419.272h-.092l.15-.093 8.87-5.083.208-.122.203-.116.087-.046.11-.064.064-.04.075-.035a.4.4 0 0 1 .08 0l2.427-.463a.66.66 0 0 1 .527.15M94.744 99.486l-9.773 5.587a1.64 1.64 0 0 0-.532-.538l-2.803-1.615a.6.6 0 0 0-.527-.087l8.343-4.788.892-.498.318-.185.168-.093a.58.58 0 0 1 .58.064l2.79 1.62c.22.134.406.316.544.533M101.931 107.802l-9.756 5.593a2.2 2.2 0 0 0-.422-1.013l-2.42-3.254c-.273-.359-.58-.579-.782-.504l9.263-5.332.417-.237c.203-.116.544.069.846.474l2.437 3.283c.224.287.368.629.417.99M106.473 118.801l-.064.046-.179.104-9.496 5.431a1.27 1.27 0 0 0 0-1.117l-1.4-4.053a2 2 0 0 0-.545-.869l9.762-5.593c.249.242.434.543.538.875l1.407 4.053c.179.509.162.984-.023 1.123M107.806 124.956v3.729c0 .365-.105.614-.261.701l-.967.579-8.754 5.019a.88.88 0 0 0 .22-.683v-3.752a2 2 0 0 0-.197-.862l9.768-5.593c.121.271.186.565.191.862M106.496 134.452l-1.401 2.426a.54.54 0 0 1-.214.226l-.654.376-.243.139-2.056 1.192-6.774 3.897a.6.6 0 0 0 .18-.203l1.4-2.42c.125-.244.164-.524.11-.793l9.757-5.599a1.16 1.16 0 0 1-.105.759M88.06 135.564c3.69-1.57 4.43-8.131 1.655-14.654-2.776-6.523-8.017-10.538-11.706-8.968-3.69 1.569-4.43 8.13-1.655 14.653s8.016 10.539 11.706 8.969"/><path fill="#F7921E" d="M87.107 133.326c2.99-1.272 3.589-6.59 1.339-11.877s-6.497-8.542-9.486-7.27-3.59 6.589-1.34 11.876c2.25 5.288 6.497 8.543 9.487 7.271"/><path fill="#263238" d="M85.888 130.465c2.098-.892 2.52-4.621.942-8.329-1.577-3.707-4.557-5.989-6.655-5.096s-2.52 4.622-.942 8.329 4.557 5.989 6.655 5.096"/><path fill="#F7921E" d="M85.772 125.338c0-2.01-1.227-4.349-2.733-5.211-1.505-.863-2.732.052-2.732 2.061s1.221 4.354 2.732 5.211 2.733-.058 2.733-2.061"/><path fill="#455A64" d="M83.333 121.464a.71.71 0 0 0-.296-.579c-.168-.098-.3 0-.3.22a.7.7 0 0 0 .3.579c.162.099.296-.005.296-.22M84.549 123.168c.115-.087.115-.341 0-.579-.116-.237-.301-.33-.417-.243s-.116.342 0 .579.3.33.417.243M85.065 125.236c.132-.057.16-.291.06-.523-.099-.232-.286-.375-.418-.319-.133.056-.16.291-.061.523s.286.375.419.319M84.132 126.403c.116.22.3.33.417.243.115-.087.115-.341 0-.579-.116-.237-.301-.33-.417-.243s-.116.353 0 .579M82.736 126.04a.7.7 0 0 0 .301.579c.162.092.296 0 .296-.226a.73.73 0 0 0-.296-.579c-.168-.093-.3.006-.3.226M81.522 124.338c-.115.087-.115.336 0 .579.116.243.307.33.423.237.116-.092.116-.335 0-.579s-.307-.324-.423-.237M81.19 122.287c-.162-.093-.296 0-.296.226a.71.71 0 0 0 .296.579c.162.098.295 0 .295-.22a.73.73 0 0 0-.295-.585M81.945 121.101c-.116-.22-.307-.33-.423-.243s-.115.341 0 .579c.116.237.307.33.423.243s.116-.359 0-.579M84.14 124.388a2.64 2.64 0 0 0-1.1-2.108c-.614-.353-1.106 0-1.106.834a2.64 2.64 0 0 0 1.105 2.107c.608.354 1.1-.023 1.1-.833"/><path fill="#263238" d="M123.525 134.903v11.435l-24.473-14.127a34.2 34.2 0 0 0-1.314-8.684v-.035a40 40 0 0 0-1.482-4.319z"/><path fill="#000" d="M167.521 135.204h-5.205v5.205h5.205zM123.526 134.903v3.537l-25.77-14.879v-.087a40 40 0 0 0-1.483-4.319z"/><path fill="#F7921E" d="M108.061 55.636v70.328l-11.817-6.809a40 40 0 0 0-2.455-5.043V51.774c0-2.414 1.465-3.52 3.271-2.478z"/><path fill="#000" d="M108.061 55.636v70.328l-11.817-6.809a40 40 0 0 0-2.455-5.043V51.774c0-2.414 1.465-3.52 3.271-2.478z" opacity=".2"/><path fill="#F7921E" d="M93.792 77.036v37.054a43 43 0 0 0-1.337-2.165c-2.49-3.746-5.512-6.85-8.772-8.731a15 15 0 0 0-3.213-1.407c-3.126-.921-5.906-.365-8.013 1.418V69.046c0-2.408 1.465-3.508 3.271-2.466z"/><path fill="#000" d="M93.792 77.036v37.054a43 43 0 0 0-1.337-2.165c-2.49-3.746-5.512-6.85-8.772-8.731a15 15 0 0 0-3.213-1.407c-3.126-.921-5.906-.365-8.013 1.418V69.046c0-2.408 1.465-3.508 3.271-2.466z" opacity=".2"/><path fill="#37474F" d="M108.064 55.637v54.07l-14.272-8.204V77.036l-1.36-.77v24.461L72.457 89.182v1.79l19.975 11.544v9.431q.695 1.049 1.337 2.166v-10.821l14.295 8.227v14.445l1.337.776V56.442z"/><path fill="#FAFAFA" d="m77.376 84.874 11.533 6.658a1.36 1.36 0 0 1 .579 1.094v.035c0 .423-.255.62-.58.434l-11.532-6.658a1.38 1.38 0 0 1-.58-1.094v-.04c0-.423.244-.614.58-.429M77.376 78.754l11.51 6.635a1.36 1.36 0 0 1 .579 1.094v.064c0 .422-.255.62-.58.434l-11.51-6.664a1.38 1.38 0 0 1-.578-1.094v-.04c0-.423.243-.614.579-.43M77.376 72.651l11.533 6.658a1.36 1.36 0 0 1 .579 1.095v.034c0 .423-.255.62-.58.434l-11.532-6.675a1.38 1.38 0 0 1-.58-1.094v-.04c0-.412.244-.615.58-.412"/><path fill="#455A64" d="M105.288 101.301V59.736a3.15 3.15 0 0 0-1.28-2.5l-6.27-3.62c-.724-.416-1.308 0-1.308.99v41.56a3.13 3.13 0 0 0 1.308 2.5l6.27 3.619c.689.423 1.28-.023 1.28-.984"/><path fill="#fff" d="m72.457 88.318 19.998 11.545v.863L72.457 89.181zM93.79 100.639l14.253 8.227v.863l-14.254-8.227z" opacity=".7"/><path fill="#263238" d="m123.522 134.904 20.073-11.585-8.922-5.147-20.068 11.585z"/><path fill="#37474F" d="M214.764 126.333a2.56 2.56 0 0 1-.828-1.65c-.128-.88-.29-1.736-.481-2.634a1.74 1.74 0 0 1 .093-1.291l.266-.156c.243-.145.272-.724.046-1.372l-1.661-4.812c-.249-.712-.712-1.245-1.037-1.158s-.839-.451-1.157-1.158a42 42 0 0 0-1.292-2.454c-.364-.655-.526-1.431-.341-1.737s0-1.054-.434-1.633l-2.895-3.891c-.359-.486-.77-.706-1.002-.579l-.504.29a1.54 1.54 0 0 1-.799-.469c-.578-.579-1.157-1.158-1.736-1.639a2.54 2.54 0 0 1-.886-1.638 1.88 1.88 0 0 0-.892-1.43L195.889 95a.68.68 0 0 0-.671-.082l-1.639.95q-.605-.153-1.221-.243a1.67 1.67 0 0 1-1.158-1.071 1.124 1.124 0 0 0-1.118-.84l-2.895.58a.8.8 0 0 0-.185.069c-.295.18-11.579 6.635-11.626 6.669a.8.8 0 0 0-.307.863l-3.583 2.021a.65.65 0 0 0-.232.249l-1.667 2.895a1.537 1.537 0 0 0 .133 1.557 2.2 2.2 0 0 1 .272 1.737 19 19 0 0 0-.481 2.078l-1.158.678a.96.96 0 0 0-.312.834v4.446a1.98 1.98 0 0 0 .654 1.569c.469.426.758 1.013.811 1.644.127.886.289 1.772.474 2.658a1.8 1.8 0 0 1-.087 1.291l-.248.145c-.244.139-.267.718-.041 1.372l1.667 4.811c.249.712.701 1.245 1.008 1.187s.805.457 1.158 1.158q.62 1.274 1.314 2.513c.365.654.538 1.412.359 1.736s0 1.025.457 1.598l2.895 3.891c.365.492.776.724.996.579l.434-.249c.322.07.613.243.828.492a33 33 0 0 0 1.801 1.685c.48.394.795.954.88 1.569a1.84 1.84 0 0 0 .897 1.361l3.335 1.922a.7.7 0 0 0 .683.092c.133-.069 1.488-.856 1.488-.856q.695.184 1.407.283a1.58 1.58 0 0 1 1.158.996 1.065 1.065 0 0 0 1.094.77l2.895-.579a.7.7 0 0 0 .197-.075l11.62-6.664a.78.78 0 0 0 .307-.863l3.52-2.032a.7.7 0 0 0 .255-.266l1.661-2.895a1.516 1.516 0 0 0-.11-1.534 2.2 2.2 0 0 1-.266-1.737q.295-1.041.475-2.108l1.158-.671a.94.94 0 0 0 .307-.834v-4.441a2 2 0 0 0-.718-1.575"/><path fill="#263238" d="M203.799 139.026v-4.423a1.97 1.97 0 0 0-.66-1.575 2.56 2.56 0 0 1-.828-1.656 41 41 0 0 0-.481-2.634c-.156-.712-.046-1.349.278-1.407.325-.058.377-.695.128-1.407l-1.668-4.811c-.243-.712-.706-1.245-1.03-1.158s-.84-.451-1.158-1.129a44 44 0 0 0-1.291-2.455c-.371-.654-.533-1.436-.342-1.737s0-1.059-.434-1.632l-2.895-3.891c-.428-.579-.926-.782-1.117-.452-.192.33-.718.18-1.187-.301a37 37 0 0 0-1.737-1.632c-.492-.415-.809-1-.886-1.639a1.87 1.87 0 0 0-.897-1.43l-3.33-1.922c-.497-.284-.897-.11-.897.394a.63.63 0 0 1-.88.619 12 12 0 0 0-1.737-.388 1.67 1.67 0 0 1-1.187-1.071 1.126 1.126 0 0 0-1.117-.839l-2.895.579c-.429.081-.625.579-.44 1.158a1.16 1.16 0 0 1-.342 1.36 9 9 0 0 0-1.291.967.79.79 0 0 1-.629.153.77.77 0 0 1-.529-.373c-.324-.434-.787-.44-1.036 0l-1.668 2.895a1.55 1.55 0 0 0-.142.796c.023.274.118.536.276.761a2.206 2.206 0 0 1 .272 1.737 19 19 0 0 0-.481 2.079c-.104.579-.457.909-.822.7-.365-.208-.666.151-.666.811v4.319a1.98 1.98 0 0 0 .654 1.569c.469.426.759 1.013.811 1.644.127.886.29 1.772.475 2.658.156.718.052 1.349-.261 1.407-.312.057-.359.689-.116 1.401l1.668 4.811c.249.712.7 1.245 1.007 1.187s.805.457 1.158 1.158q.62 1.274 1.315 2.513c.364.654.538 1.412.358 1.736-.179.325 0 1.025.458 1.598l2.895 3.891c.428.579.92.799 1.094.498s.689-.139 1.158.342a33 33 0 0 0 1.801 1.684c.48.394.794.954.88 1.569a1.82 1.82 0 0 0 .897 1.361l3.335 1.922c.492.284.891.139.891-.324s.4-.695.886-.55q.885.267 1.801.394a1.58 1.58 0 0 1 1.158.995 1.07 1.07 0 0 0 1.094.77l2.895-.579c.428-.081.631-.578.457-1.076a1.13 1.13 0 0 1 .359-1.303 8.6 8.6 0 0 0 1.309-1.002.75.75 0 0 1 .62-.186.76.76 0 0 1 .538.36.57.57 0 0 0 .5.288.57.57 0 0 0 .501-.288l1.668-2.895a1.51 1.51 0 0 0-.116-1.534 2.2 2.2 0 0 1-.31-.842 2.2 2.2 0 0 1 .049-.895q.295-1.04.475-2.108c.099-.578.452-.914.811-.706s.573-.174.573-.834"/><path fill="#263238" d="m193.557 95.856-9.941 5.703h-.052a.541.541 0 0 0-.208.481.63.63 0 0 1-.271.555.63.63 0 0 1-.615.058 7 7 0 0 0-.579-.15 10 10 0 0 0-1.198-.238 1.34 1.34 0 0 1-.718-.387l11.637-6.647c.198.2.453.336.729.388.406.064.828.139 1.216.237"/><path fill="#000" d="m200.458 99.364-11.631 6.664a2.1 2.1 0 0 1-.354-1.013 1.6 1.6 0 0 0-.254-.787l11.631-6.682c.154.235.242.507.255.788.025.368.147.724.353 1.03"/><path fill="#263238" d="m203.532 102.087-11.052 6.368a.2.2 0 0 0-.07.035.27.27 0 0 0-.116.11.33.33 0 0 1-.393.162 1.4 1.4 0 0 1-.793-.457 38 38 0 0 0-1.737-1.639 2.7 2.7 0 0 1-.527-.625l11.631-6.664q.22.344.527.614a41 41 0 0 1 1.737 1.638c.207.235.486.396.793.458M211.554 113.384l-11.632 6.664a.47.47 0 0 0-.382-.139c-.324.058-.834-.452-1.158-1.129a49 49 0 0 0-1.285-2.461c-.371-.648-.539-1.424-.348-1.737a.7.7 0 0 0 .064-.428l11.62-6.664a.65.65 0 0 1-.058.422c-.185.325-.029 1.112.342 1.737.457.793.88 1.616 1.285 2.449.336.689.845 1.199 1.158 1.158a.5.5 0 0 1 .394.128"/><path fill="#000" d="m199.921 120.046 11.631-6.664a.48.48 0 0 0-.387-.139.32.32 0 0 1-.18 0l-11.626 6.664q.09.016.18 0a.48.48 0 0 1 .382.139M208.363 107.894a.66.66 0 0 0 .058-.422l-11.62 6.664a.7.7 0 0 1-.064.428c-.08.194-.098.409-.052.614l11.626-6.67a1.1 1.1 0 0 1 .052-.614"/><path fill="#263238" d="m215.201 126.873-11.643 6.664a1.16 1.16 0 0 0-.423-.539 2.53 2.53 0 0 1-.816-1.644 40 40 0 0 0-.487-2.634 1.62 1.62 0 0 1 .116-1.314l.151-.087.133-.081 11.313-6.467c-.191.401-.224.86-.093 1.285.191.88.348 1.766.481 2.634.056.637.352 1.229.828 1.656.192.132.344.314.44.527"/><path fill="#000" d="M214.766 126.336a1.5 1.5 0 0 1-.492-.608l-11.626 6.664c.105.243.273.453.487.608.192.133.339.32.422.538l11.644-6.664a1.3 1.3 0 0 0-.435-.538"/><path fill="#263238" d="m214.013 138.284-11.62 6.676a1.4 1.4 0 0 0-.249-.579 1.9 1.9 0 0 1-.295-.811c-.059-.3-.047-.609.035-.903q.298-1.037.475-2.102c.104-.579.445-.903.81-.7a.345.345 0 0 0 .388 0l10.422-5.975c-.134.741-.29 1.447-.475 2.107a2.1 2.1 0 0 0 .26 1.708c.129.17.215.369.249.579"/><path fill="#000" d="M202.122 144.37c.124.172.209.37.249.579l11.643-6.664a1.3 1.3 0 0 0-.238-.579 1.8 1.8 0 0 1-.289-.735l-11.632 6.646c.036.267.127.523.267.753"/><path fill="#263238" d="M174.747 103.429q-.692.422-1.292.967a.78.78 0 0 1-.934.024.8.8 0 0 1-.223-.244.583.583 0 0 0-.759-.272l.046-.035 3.474-2.003.052.202a1.156 1.156 0 0 1-.364 1.361"/><path fill="#000" d="M208.113 145.273h-.035a2 2 0 0 0-.214.122l-11.221 6.473-.098.052a.826.826 0 0 0 .226-.979 1.12 1.12 0 0 1 .364-1.302 9.4 9.4 0 0 0 1.315-.996.75.75 0 0 1 .62-.199.73.73 0 0 1 .538.367.581.581 0 0 0 .654.289l.127-.069 8.071-4.632a.76.76 0 0 1-.347.874"/><path fill="#263238" d="m189.754 150.527-1.483.868a.42.42 0 0 0 .203-.411c0-.469.405-.701.892-.579zM179.854 144.26l-.348.197v-.046a.3.3 0 0 1 .146-.14.3.3 0 0 1 .202-.011M169.512 112.416c-.099.578-.463.909-.822.694a.39.39 0 0 0-.301-.04l.098-.058.168-.093z"/><path fill="#000" d="M191.614 95.232 180 101.902a1.74 1.74 0 0 1-.469-.683 1.36 1.36 0 0 0-.492-.666l11.632-6.659c.23.163.402.394.492.66.094.259.249.491.451.678"/><path fill="#37474F" d="M211.412 132.466c0 7.22-2.403 12.303-6.189 14.474l-2.571 1.476c3.734-2.223 6.097-7.283 6.097-14.433 0-13.183-8.008-28.509-17.908-34.217-4.261-2.467-8.181-2.733-11.261-1.193.99-.579 1.158-.66 2.2-1.268 3.144-1.824 7.243-1.656 11.73.938 9.883 5.72 17.902 21.045 17.902 34.223"/><path fill="#000" d="M208.751 134.023c0 7.156-2.362 12.216-6.097 14.433l-.776.406c3.729-2.212 5.147-6.688 5.147-13.832 0-13.183-8.018-28.509-17.907-34.217-4.423-2.553-7.527-3.33-10.653-1.587l1.117-.608c3.08-1.54 7-1.28 11.261 1.187 9.901 5.686 17.908 21.005 17.908 34.218"/><path fill="#37474F" d="m190.67 93.895-11.632 6.658a.83.83 0 0 0-.625-.173l-1.193.231-1.69.325a.4.4 0 0 0-.116.034l.185-.116 10.567-6.055.249-.14.243-.138.098-.058.133-.076.076-.046.092-.04a.3.3 0 0 1 .093-.03l2.895-.578a.8.8 0 0 1 .625.202M199.852 97.55l-11.632 6.664a1.9 1.9 0 0 0-.637-.643l-3.341-1.922a.72.72 0 0 0-.625-.104l9.941-5.703 1.065-.608.383-.22.202-.116a.7.7 0 0 1 .666.081l3.329 1.928c.264.16.486.38.649.643M208.419 107.472l-11.62 6.664a2.6 2.6 0 0 0-.503-1.21l-2.895-3.885c-.33-.434-.701-.66-.938-.579l11.052-6.368.504-.284c.238-.139.643.081 1.002.579l2.895 3.891c.272.344.447.756.503 1.192M213.842 120.584l-.075.052-.214.121-11.313 6.468a1.48 1.48 0 0 0 0-1.326l-1.668-4.812a2.3 2.3 0 0 0-.648-1.042l11.631-6.664c.296.29.517.648.643 1.042l1.673 4.812c.214.613.197 1.181-.029 1.349M215.427 127.915v4.44a.954.954 0 0 1-.307.84l-1.158.666-10.427 5.951c.099-.108.174-.237.22-.376.046-.14.062-.288.046-.434v-4.4c0-.358-.083-.711-.243-1.031l11.643-6.664c.143.317.22.66.226 1.008M213.869 139.234l-1.668 2.895a.62.62 0 0 1-.255.266l-.781.452-.29.162-2.455 1.436-8.07 4.632a.7.7 0 0 0 .22-.238l1.667-2.895c.148-.289.194-.619.133-.937l11.643-6.722c.066.323.015.66-.144.949"/><path fill="#000" d="M191.902 140.552c4.395-1.871 5.278-9.686 1.972-17.457-3.306-7.77-9.55-12.553-13.946-10.683s-5.279 9.686-1.972 17.457c3.306 7.77 9.55 12.553 13.946 10.683"/><path fill="#F7921E" d="M190.768 137.887c3.563-1.516 4.278-7.852 1.598-14.151-2.681-6.3-7.742-10.177-11.305-8.661s-4.279 7.852-1.598 14.151 7.742 10.177 11.305 8.661"/><path fill="#263238" d="M191.577 129.743c0-4.169-2.536-9.014-5.663-10.821-3.126-1.806-5.662.11-5.662 4.285s2.53 9.014 5.662 10.82 5.663-.11 5.663-4.284"/><path fill="#F7921E" d="M189.172 128.355c0-2.397-1.459-5.182-3.254-6.218s-3.26.064-3.26 2.461 1.459 5.181 3.26 6.218 3.254-.064 3.254-2.461"/><path fill="#455A64" d="M186.269 123.752a.85.85 0 0 0-.353-.677c-.197-.116-.354 0-.354.266a.86.86 0 0 0 .354.678c.197.11.353-.006.353-.267M187.715 125.778c.139-.104.139-.399 0-.666-.139-.266-.359-.393-.498-.289-.138.104-.138.405 0 .666.139.26.365.393.498.289M188.326 128.25c.156-.067.187-.345.069-.621-.118-.277-.34-.447-.495-.381-.156.066-.187.344-.07.621.118.277.34.447.496.381M187.217 129.634c.139.266.365.394.498.29.134-.105.139-.406 0-.666-.139-.261-.359-.394-.498-.29-.138.104-.138.423 0 .666M185.562 129.2a.83.83 0 0 0 .354.677c.197.116.353 0 .353-.266a.86.86 0 0 0-.353-.677c-.197-.122-.354.005-.354.266M184.108 127.174c-.139.104-.139.405 0 .666.139.26.365.393.504.289s.133-.405 0-.666c-.133-.26-.365-.388-.504-.289M183.715 124.759c-.197-.116-.354 0-.354.266a.85.85 0 0 0 .354.677c.196.11.353 0 .353-.266a.84.84 0 0 0-.353-.677M184.612 123.318c-.139-.266-.365-.393-.504-.289s-.139.405 0 .666c.139.26.365.393.504.289s.133-.382 0-.666M187.228 127.237a3.145 3.145 0 0 0-1.314-2.513c-.73-.422-1.314 0-1.314.99a3.14 3.14 0 0 0 1.314 2.513c.724.423 1.314.006 1.314-.99"/><path fill="#F7921E" d="M163.943 137.781c.66-.382 1.193-.075 1.193.683v15.372l31.218-18.076v-15.319a2.62 2.62 0 0 1 1.187-2.056z"/><path fill="#000" d="M163.943 137.781c.66-.382 1.193-.075 1.193.683v15.372l31.218-18.076v-15.319a2.62 2.62 0 0 1 1.187-2.056z" opacity=".1"/><path fill="#F7921E" d="m202.433 96.187-44.871 25.915-16.72-48.054 25.55-14.712V69.41a3.54 3.54 0 0 0 1.476 2.825l32.642 18.846q.1.055.203.098z"/><path fill="#000" d="m202.433 96.187-44.871 25.915-16.72-48.054 25.55-14.712V69.41a3.54 3.54 0 0 0 1.476 2.825l32.642 18.846q.1.055.203.098z" opacity=".5"/><path fill="#37474F" d="M169.588 153.128a2.53 2.53 0 0 1-.822-1.65 41 41 0 0 0-.481-2.634 1.74 1.74 0 0 1 .093-1.291l.26-.151c.249-.145.278-.723.053-1.378l-1.668-4.805c-.249-.718-.712-1.245-1.036-1.158s-.834-.452-1.158-1.158a44 44 0 0 0-1.286-2.455c-.37-.648-.532-1.43-.341-1.737s0-1.059-.44-1.638l-2.895-3.885c-.359-.487-.77-.707-1.007-.579l-.498.289a1.46 1.46 0 0 1-.799-.469 37 37 0 0 0-1.737-1.638 2.55 2.55 0 0 1-.88-1.633 1.87 1.87 0 0 0-.898-1.43l-3.329-1.922a.7.7 0 0 0-.328-.129.7.7 0 0 0-.349.048l-1.639.944q-.6-.155-1.215-.238a1.67 1.67 0 0 1-1.187-1.077 1.12 1.12 0 0 0-1.118-.833l-2.895.579a.6.6 0 0 0-.185.069l-11.62 6.664a.8.8 0 0 0-.307.863s-3.3 1.904-3.549 2.055a.7.7 0 0 0-.237.243l-1.662 2.895a1.54 1.54 0 0 0 .128 1.557 2.16 2.16 0 0 1 .278 1.737 20 20 0 0 0-.481 2.085l-1.158.677a.94.94 0 0 0-.307.834v4.44a1.97 1.97 0 0 0 .654 1.575c.468.427.757 1.014.811 1.645.127.88.284 1.736.475 2.651a1.78 1.78 0 0 1-.093 1.291l-.243.145c-.243.139-.266.724-.041 1.378l1.668 4.806c.243.717.695 1.25 1.001 1.186.307-.063.811.458 1.158 1.158q.615 1.286 1.309 2.513c.37.654.538 1.419.359 1.737s0 1.019.457 1.598l2.895 3.885c.365.492.77.729.996.579l.434-.255c.319.073.607.245.822.492a35 35 0 0 0 1.801 1.691c.48.392.796.95.886 1.563a1.8 1.8 0 0 0 .897 1.361l3.329 1.922a.74.74 0 0 0 .689.098l1.488-.857q.695.183 1.407.278a1.57 1.57 0 0 1 1.158 1.002 1.066 1.066 0 0 0 1.094.764l2.895-.579a.7.7 0 0 0 .197-.069c.289-.174 11.579-6.635 11.62-6.67a.77.77 0 0 0 .307-.857l3.526-2.038a.7.7 0 0 0 .249-.261l1.667-2.894a1.51 1.51 0 0 0-.116-1.535 2.15 2.15 0 0 1-.26-1.708c.185-.665.347-1.372.474-2.107l1.158-.666a.95.95 0 0 0 .307-.839v-4.441a1.98 1.98 0 0 0-.735-1.633"/><path fill="#455A64" d="M158.629 165.81v-4.441a1.99 1.99 0 0 0-.665-1.58 2.5 2.5 0 0 1-.822-1.65c-.134-.88-.29-1.737-.481-2.634-.156-.718-.046-1.349.272-1.413.319-.064.376-.689.133-1.407l-1.667-4.811c-.249-.712-.712-1.239-1.037-1.158s-.833-.446-1.157-1.129a45 45 0 0 0-1.286-2.455c-.37-.654-.532-1.43-.347-1.737s0-1.06-.434-1.638l-2.895-3.891c-.429-.579-.932-.776-1.118-.452-.185.324-.718.18-1.187-.295a38 38 0 0 0-1.736-1.639 2.52 2.52 0 0 1-.881-1.632 1.87 1.87 0 0 0-.897-1.43l-3.335-1.928c-.492-.284-.891-.104-.891.399a.64.64 0 0 1-.271.556.63.63 0 0 1-.615.058 12 12 0 0 0-1.737-.388 1.64 1.64 0 0 1-1.187-1.071 1.11 1.11 0 0 0-1.117-.834l-2.895.579c-.429.081-.626.579-.435 1.129a1.155 1.155 0 0 1-.341 1.361q-.691.423-1.291.967a.8.8 0 0 1-.628.156.79.79 0 0 1-.53-.371c-.324-.44-.788-.445-1.037 0l-1.661 2.895a1.55 1.55 0 0 0 .127 1.558 2.15 2.15 0 0 1 .278 1.737 20 20 0 0 0-.48 2.084c-.105.579-.464.909-.828.695-.365-.215-.66.156-.66.816v4.441a1.98 1.98 0 0 0 .654 1.575 2.5 2.5 0 0 1 .81 1.644c.128.88.284 1.737.475 2.651.151.718.046 1.349-.266 1.407-.313.058-.359.689-.11 1.407l1.667 4.806c.243.718.695 1.25 1.002 1.187.307-.064.81.457 1.158 1.158q.614 1.285 1.308 2.512c.371.655.539 1.419.365 1.737s0 1.019.452 1.598l2.895 3.885c.428.579.914.799 1.094.498.179-.301.689-.139 1.158.342a35 35 0 0 0 1.8 1.69c.48.392.796.95.886 1.563a1.8 1.8 0 0 0 .898 1.361l3.329 1.922c.498.29.897.145.897-.324s.4-.689.88-.544q.888.264 1.806.388a1.56 1.56 0 0 1 1.158 1.001 1.066 1.066 0 0 0 1.095.764l2.894-.579a.76.76 0 0 0 .483-.427.75.75 0 0 0-.025-.644 1.16 1.16 0 0 1 .365-1.308 9 9 0 0 0 1.308-.996.75.75 0 0 1 .621-.193.75.75 0 0 1 .537.367.58.58 0 0 0 .512.279.58.58 0 0 0 .495-.308l1.668-2.895a1.52 1.52 0 0 0-.116-1.534 2.16 2.16 0 0 1-.26-1.708q.29-1.041.469-2.108c.104-.579.451-.92.816-.712s.561-.272.561-.909"/><path fill="#263238" d="m148.38 122.641-9.936 5.703-.052.029a.54.54 0 0 0-.17.209.54.54 0 0 0-.044.266.63.63 0 0 1-.266.556.64.64 0 0 1-.614.063 5 5 0 0 0-.579-.15 9 9 0 0 0-1.198-.237 1.4 1.4 0 0 1-.724-.388l11.614-6.676c.198.201.452.337.73.388.428.041.827.145 1.239.237"/><path fill="#000" d="m155.282 126.149-11.631 6.664a2.1 2.1 0 0 1-.353-1.013 1.55 1.55 0 0 0-.255-.788l11.631-6.658c.154.233.242.503.255.782.029.362.15.711.353 1.013"/><path fill="#263238" d="m158.356 128.87-11.046 6.368a.14.14 0 0 0-.07.035.23.23 0 0 0-.116.116.344.344 0 0 1-.399.156 1.44 1.44 0 0 1-.793-.457 38 38 0 0 0-1.737-1.639 2.6 2.6 0 0 1-.527-.625l11.631-6.664q.223.344.527.62a34 34 0 0 1 1.737 1.638c.209.233.487.391.793.452M166.374 140.173l-11.632 6.658a.48.48 0 0 0-.376-.139c-.324.064-.839-.452-1.158-1.129a45 45 0 0 0-1.285-2.455c-.371-.654-.539-1.43-.342-1.737a.74.74 0 0 0 .064-.434l11.62-6.664a.65.65 0 0 1-.064.423c-.185.33 0 1.111.348 1.765.457.794.88 1.61 1.285 2.45.336.688.845 1.198 1.158 1.157a.5.5 0 0 1 .382.105"/><path fill="#000" d="m154.743 146.831 11.632-6.658a.5.5 0 0 0-.388-.145.4.4 0 0 1-.174 0l-11.631 6.658q.092.025.185 0a.5.5 0 0 1 .376.145M163.184 134.677a.65.65 0 0 0 .063-.423l-11.62 6.664c.024.148.002.3-.063.435a1 1 0 0 0-.052.613l11.625-6.675a1.1 1.1 0 0 1 .047-.614"/><path fill="#263238" d="m170.01 153.663-11.637 6.664a1.08 1.08 0 0 0-.423-.539 2.52 2.52 0 0 1-.822-1.65 44 44 0 0 0-.48-2.634 1.65 1.65 0 0 1 .11-1.314l.15-.093.134-.075 11.313-6.473a1.74 1.74 0 0 0-.099 1.291c.191.88.353 1.737.486 2.634a2.56 2.56 0 0 0 .828 1.656c.195.132.348.317.44.533"/><path fill="#000" d="M169.596 153.13a1.45 1.45 0 0 1-.492-.614l-11.631 6.664c.108.244.277.455.492.614.195.129.343.318.422.538l11.626-6.67a1.23 1.23 0 0 0-.417-.532"/><path fill="#263238" d="m168.818 165.075-11.626 6.67a1.46 1.46 0 0 0-.243-.579 1.94 1.94 0 0 1-.301-.811 2 2 0 0 1 .035-.897q.301-1.039.474-2.108c.11-.579.452-.897.811-.694a.36.36 0 0 0 .388 0l10.421-5.975a23 23 0 0 1-.475 2.101 2.16 2.16 0 0 0 .267 1.737c.124.164.209.354.249.556"/><path fill="#000" d="M156.95 171.153c.122.173.205.371.243.579l11.626-6.67a1.4 1.4 0 0 0-.237-.579 1.8 1.8 0 0 1-.296-.741l-11.591 6.664c.03.265.117.52.255.747"/><path fill="#263238" d="M129.573 130.212a9 9 0 0 0-1.285.967.8.8 0 0 1-.629.151.79.79 0 0 1-.529-.371.579.579 0 0 0-.753-.272l.04-.035 3.474-1.997c0 .058.035.127.052.202a1.15 1.15 0 0 1-.37 1.355"/><path fill="#000" d="M162.943 172.056h-.035l-.208.122-11.238 6.444-.099.052a.835.835 0 0 0 .232-.979 1.114 1.114 0 0 1 .359-1.302 8.6 8.6 0 0 0 1.314-.996.75.75 0 0 1 .62-.196.74.74 0 0 1 .538.364.576.576 0 0 0 .654.289l.133-.069 8.071-4.632a.76.76 0 0 1-.341.903"/><path fill="#263238" d="m144.578 177.312-1.482.851a.414.414 0 0 0 .202-.411c0-.469.406-.695.892-.579zM134.657 171.078l-.343.192a.1.1 0 0 0 0-.041.29.29 0 0 1 .343-.151M124.336 139.199c-.098.579-.457.909-.822.7a.35.35 0 0 0-.295-.046l.092-.052.168-.099z"/><path fill="#000" d="m146.435 122.015-11.615 6.676a1.75 1.75 0 0 1-.468-.689 1.26 1.26 0 0 0-.493-.66l11.632-6.635c.233.158.406.391.492.66.102.246.256.467.452.648"/><path fill="#37474F" d="M166.244 159.256c0 7.214-2.409 12.298-6.195 14.475-1.117.642-1.61.914-2.571 1.47 3.74-2.223 6.103-7.277 6.103-14.434 0-13.183-8.013-28.508-17.908-34.217-4.267-2.466-8.187-2.732-11.261-1.187l2.2-1.267c3.144-1.824 7.243-1.656 11.724.932 9.889 5.72 17.908 21.045 17.908 34.228"/><path fill="#000" d="M163.579 160.784c0 7.15-2.362 12.21-6.103 14.434l-.775.405c3.728-2.212 5.147-6.693 5.147-13.837 0-13.184-8.019-28.503-17.902-34.218-4.423-2.553-7.527-3.329-10.659-1.586l1.123-.608c3.075-1.54 6.994-1.274 11.261 1.193 9.895 5.72 17.908 21.034 17.908 34.217"/><path fill="#37474F" d="m145.493 120.706-11.632 6.664a.804.804 0 0 0-.625-.18l-1.158.232-1.691.324a1 1 0 0 0-.116.035l.186-.11 10.56-6.056.249-.145.249-.139.093-.052.133-.081.081-.041.087-.046a.3.3 0 0 1 .098 0l2.895-.579a.78.78 0 0 1 .591.174M154.676 124.355l-11.632 6.658a2 2 0 0 0-.631-.642l-3.34-1.917a.72.72 0 0 0-.626-.11l9.935-5.703 1.072-.579.376-.22.202-.115a.71.71 0 0 1 .672.081l3.329 1.928c.259.154.479.366.643.619M163.249 134.254l-11.619 6.664a2.8 2.8 0 0 0-.504-1.204l-2.895-3.891c-.324-.428-.695-.66-.932-.578l11.047-6.369.503-.278c.238-.145.643.075 1.002.579l2.895 3.896c.268.343.442.75.503 1.181M168.668 147.368l-.081.053-.208.121-11.313 6.473a1.5 1.5 0 0 0 0-1.332l-1.668-4.811a2.37 2.37 0 0 0-.654-1.042l11.632-6.658c.298.286.519.642.642 1.036l1.679 4.811c.209.62.191 1.182-.029 1.349M170.255 154.701v4.441c0 .434-.121.735-.306.839l-1.158.672-10.422 5.975a1.03 1.03 0 0 0 .266-.811v-4.452c0-.357-.081-.71-.237-1.031l11.614-6.669c.156.323.239.677.243 1.036M168.695 166.012l-1.668 2.895a.7.7 0 0 1-.254.261l-.788.451-.289.168-2.449 1.419-8.071 4.631a.7.7 0 0 0 .22-.237l1.667-2.895c.146-.292.191-.623.128-.943l11.625-6.67c.062.312.019.635-.121.92M146.72 167.336c4.396-1.871 5.279-9.686 1.972-17.457s-9.55-12.554-13.946-10.683c-4.395 1.87-5.279 9.686-1.972 17.456 3.306 7.771 9.55 12.554 13.946 10.684"/><path fill="#F7921E" d="M145.59 164.669c3.563-1.516 4.279-7.852 1.598-14.151-2.68-6.3-7.742-10.177-11.305-8.661s-4.278 7.852-1.598 14.151c2.68 6.3 7.742 10.177 11.305 8.661"/><path fill="#263238" d="M144.139 161.267c2.501-1.064 3.004-5.509 1.123-9.928-1.88-4.42-5.432-7.14-7.933-6.075s-3.004 5.509-1.123 9.928c1.88 4.42 5.432 7.139 7.933 6.075"/><path fill="#F7921E" d="M143.998 155.145c0-2.397-1.459-5.211-3.26-6.224s-3.254.064-3.254 2.461 1.459 5.182 3.254 6.224 3.26-.064 3.26-2.461"/><path fill="#455A64" d="M141.091 150.536a.86.86 0 0 0-.353-.677c-.197-.11-.353 0-.353.272a.818.818 0 0 0 .353.671c.197.116.353.012.353-.266M142.543 152.549c.139-.104.139-.405 0-.671-.139-.267-.364-.394-.503-.29s-.134.405 0 .672c.133.266.364.411.503.289M142.939 155.007c.197.11.353 0 .353-.272a.82.82 0 0 0-.353-.672c-.197-.115-.353 0-.353.267a.85.85 0 0 0 .353.677M142.04 156.425c.139.26.364.393.503.289s.139-.405 0-.671c-.139-.267-.364-.394-.503-.29s-.134.405 0 .672M140.385 155.99a.85.85 0 0 0 .353.677c.197.11.353 0 .353-.272a.83.83 0 0 0-.353-.671c-.197-.116-.353.005-.353.266M138.938 153.96c-.139.104-.139.405 0 .671.139.267.359.394.498.29s.139-.406 0-.672-.365-.394-.498-.289M138.543 151.522c-.197-.11-.359 0-.359.272a.83.83 0 0 0 .359.671c.191.116.353 0 .353-.266a.9.9 0 0 0-.098-.38.9.9 0 0 0-.255-.297M139.436 150.102c-.139-.261-.365-.394-.498-.29s-.139.406 0 .672.359.394.498.29.139-.406 0-.672M142.054 154.022a3.15 3.15 0 0 0-1.314-2.513c-.724-.417-1.314.029-1.314.996a3.16 3.16 0 0 0 1.314 2.513c.73.428 1.314-.029 1.314-.996"/><path fill="#F7921E" d="M147.651 119.427a1.46 1.46 0 0 1-1.095-.22l-34.043-19.65a3.7 3.7 0 0 1-1.54-2.947V58.323a2.7 2.7 0 0 1 .15-.92 1.46 1.46 0 0 1 1.095.202l18.312 10.578a4.63 4.63 0 0 1 1.847 2.535l15.175 46.318c.289.766.323 1.604.099 2.391"/><path fill="#000" d="M147.651 119.427a1.46 1.46 0 0 1-1.095-.22l-34.043-19.65a3.7 3.7 0 0 1-1.54-2.947V58.323a2.7 2.7 0 0 1 .15-.92 1.46 1.46 0 0 1 1.095.202l18.312 10.578a4.63 4.63 0 0 1 1.847 2.535l15.175 46.318c.289.766.323 1.604.099 2.391" opacity=".5"/><path fill="#37474F" d="m152.917 115.159-18.284 6.809a4.47 4.47 0 0 1-4.695-.377l-11.354-5.465c-1.227-.996-1.112-2.444.261-3.225l12.812-7.341a6.3 6.3 0 0 1 5.084-.244l16.043 7.237c1.441.626 1.499 1.818.133 2.606"/><path fill="#263238" d="M111.539 115.681a1.01 1.01 0 0 0 .387.967l4.632 2.686a.97.97 0 0 1-.388-.943l1.014-22.748a3.462 3.462 0 0 1 1.557-2.57l12.876-7.25a1.16 1.16 0 0 1 1.158-.086l-4.632-2.67a1.16 1.16 0 0 0-1.158.076l-12.899 7.22a3.47 3.47 0 0 0-1.557 2.57z"/><path fill="#37474F" d="m131.597 85.794-12.864 7.249a3.48 3.48 0 0 0-1.563 2.57l-1.002 22.777c-.041.944.579 1.331 1.413.857l17.513-9.93a2.73 2.73 0 0 0 1.239-2.559l-2.981-20.101a1.1 1.1 0 0 0-.608-.979 1.09 1.09 0 0 0-1.147.116"/><path fill="#455A64" d="m113.01 91.474 4.632 2.686a3.2 3.2 0 0 1 1.076-1.117l12.877-7.249a1.16 1.16 0 0 1 1.158-.087l-4.632-2.669a1.16 1.16 0 0 0-1.158.076l-12.876 7.248a3.2 3.2 0 0 0-1.077 1.112"/><path fill="#263238" d="M114.578 88.614v-5.662c0-4.053 2.599-8.882 5.79-10.729 1.47-.85 2.813-.926 3.838-.37l3.538 2.055-1.569 3.005v5.002a3.29 3.29 0 0 1-1.483 2.57l-3.52 2.062-2.657 5.09-3.474-2.039a1.05 1.05 0 0 1-.463-.984"/><path fill="#455A64" d="M124.222 71.852c-1.025-.58-2.368-.48-3.839.37-1.934 1.112-3.642 3.306-4.695 5.755l9.842 5.715c.39-.516.614-1.138.643-1.783v-5.003l1.569-3.005-3.538-2.055z"/><path fill="#37474F" d="M118.064 90.64v-5.663c0-4.053 2.6-8.876 5.79-10.729s5.79-.052 5.79 4.053v5.662a3.29 3.29 0 0 1-1.482 2.571l-8.65 4.99c-.782.447-1.448.065-1.448-.885"/><path fill="#F7921E" d="M130.865 90.889a56 56 0 0 1 1.922 15.4 3.97 3.97 0 0 1-1.395 2.768 44 44 0 0 1-8.743 5.037 1.158 1.158 0 0 1-1.667-1.06 158 158 0 0 1-.052-16.697 4.22 4.22 0 0 1 1.499-2.756 34.6 34.6 0 0 1 6.369-3.688 1.483 1.483 0 0 1 2.067.995"/><path fill="#000" d="M121.103 113.555a1.6 1.6 0 0 1-.121-.521 158 158 0 0 1-.052-16.698c.057-.53.221-1.044.48-1.51.579-.87.822 6.414.817 10.855-.006 4.44-.058 8.835-.788 8.325a.5.5 0 0 1-.081-.075 2 2 0 0 1-.255-.376" opacity=".15"/><g fill="#000" opacity=".15"><path d="m131.765 105.914-.353.225c-.22.157-.539.354-.915.579a72 72 0 0 1-2.814 1.737 49 49 0 0 1-2.895 1.552c-.405.203-.735.382-.978.498s-.371.191-.371.191l.412-.087c.254-.069.631-.151 1.065-.295q.745-.25 1.459-.579c.26-.122.538-.232.799-.377.26-.144.538-.283.81-.428a20 20 0 0 0 1.506-.978q.635-.458 1.216-.985c.341-.301.579-.579.793-.77s.266-.283.266-.283M131.765 103.042s-.127.076-.353.226-.539.348-.915.579a72 72 0 0 1-2.814 1.737 49 49 0 0 1-2.895 1.552c-.405.202-.735.382-.978.492s-.371.191-.371.191l.412-.087c.254-.064.631-.15 1.065-.295q.745-.236 1.459-.55c.26-.122.538-.238.799-.376.26-.139.538-.284.81-.435a20 20 0 0 0 1.506-.972c.463-.336.88-.678 1.216-.985s.579-.579.793-.775.266-.302.266-.302M131.176 100.662l-.33.203c-.202.144-.503.318-.851.544-.7.452-1.638 1.031-2.605 1.552s-1.957.995-2.71 1.36l-.909.446-.341.179s.139 0 .376-.069.579-.127.99-.249q.695-.2 1.366-.469c.244-.104.498-.197.747-.324.249-.128.504-.243.753-.371l.729-.428c.238-.145.458-.307.678-.457q.588-.42 1.123-.909c.318-.278.579-.545.724-.718.145-.174.26-.29.26-.29M130.933 97.981s-.116.064-.318.197c-.203.133-.487.3-.822.52-.678.435-1.581.99-2.519 1.483-.938.492-1.905.938-2.634 1.285l-.88.435c-.215.104-.33.173-.33.173l.364-.069c.232-.052.579-.122.962-.232q.671-.182 1.32-.434c.237-.093.486-.185.729-.301s.492-.232.735-.353c.244-.122.475-.267.707-.411.231-.145.446-.29.66-.435q.57-.405 1.082-.88.369-.332.701-.7zM130.528 95.422l-.307.18-.776.492q-1.153.742-2.374 1.366c-.886.446-1.812.84-2.501 1.158-.689.319-1.158.58-1.158.58q.632-.098 1.251-.261c.912-.231 1.799-.555 2.646-.967.225-.122.457-.243.671-.376q.323-.187.625-.406.536-.384 1.019-.834.485-.433.904-.932M129.573 92.956s-.394.225-.95.578a26 26 0 0 1-2.067 1.187c-.77.394-1.557.776-2.148 1.077-.59.301-.978.521-.978.521a8 8 0 0 0 1.094-.214 11.7 11.7 0 0 0 2.316-.874c.197-.11.394-.22.579-.336s.37-.243.544-.365q.464-.342.88-.74.4-.388.73-.834"/></g><path fill="#F7921E" d="M138.508 109.895c2.894.515 5.737 1.986 8.568 4.111a1.273 1.273 0 0 1 0 2.119 57 57 0 0 1-11 6.316 4.12 4.12 0 0 1-3.115-.081 27.4 27.4 0 0 1-6.583-4.701 1.466 1.466 0 0 1 .209-2.264 46.5 46.5 0 0 1 8.638-5.066 6.95 6.95 0 0 1 3.283-.434"/><g fill="#000" opacity=".2"><path d="m145.533 115.075-.486.139c-.307.104-.753.238-1.274.44a26.5 26.5 0 0 0-3.694 1.737 24 24 0 0 0-3.381 2.316q-.72.583-1.378 1.239l1.569-.973a100 100 0 0 1 3.474-2.061c1.28-.718 2.571-1.418 3.549-1.934l1.158-.631q.462-.27.463-.272M142.805 113.49l-.492.145c-.307.098-.753.237-1.274.434a27.5 27.5 0 0 0-3.694 1.737 24.7 24.7 0 0 0-3.375 2.316c-.863.706-1.384 1.239-1.384 1.239l1.534-.967a97 97 0 0 1 3.474-2.067 149 149 0 0 1 3.549-1.928l1.158-.631zM140.426 112.152l-.492.139c-.307.105-.753.238-1.268.44a26.6 26.6 0 0 0-3.7 1.737 24.7 24.7 0 0 0-3.375 2.316q-.725.587-1.384 1.245l1.575-.979a93 93 0 0 1 3.474-2.061c1.285-.718 2.57-1.418 3.549-1.933l1.158-.632zM137.854 111.051s-.168.041-.451.128c-.284.086-.695.208-1.158.388a24.4 24.4 0 0 0-3.399 1.58 22 22 0 0 0-3.092 2.119c-.787.654-1.262 1.158-1.262 1.158s.151-.081.405-.237l1.048-.643a96 96 0 0 1 3.185-1.887c1.169-.66 2.356-1.297 3.248-1.778l1.082-.579z"/></g><path fill="#F7921E" d="M135.705 107.06s10.027 2.947 13.681 4.296 5.297 2.86 5.61 5.332c.19 1.452.287 2.914.289 4.377l-10.74 5.79-29.168-13.895z"/><path fill="#000" d="M135.705 107.06s10.027 2.947 13.681 4.296 5.297 2.86 5.61 5.332c.19 1.452.287 2.914.289 4.377l-10.74 5.79-29.168-13.895z" opacity=".4"/><path fill="#000" d="M147.145 127.527s-1.574-5.645-3.097-8.349-8.517-5.315-8.517-5.315a6.22 6.22 0 0 0 1.998-3.474 4.39 4.39 0 0 1-.516 3.19s4.667 1.257 7.087 2.774c3.132 1.968 4.377 10.108 4.377 10.108z" opacity=".1"/><path fill="#FFA8A7" d="M130.889 84.284c4.018-.475 5.21 1.042 7.497 3.421 2.455 2.53 7.527 7.22 7.527 7.22l9.842 3.376 3.654 1.198s0 5.668-1.65 4.568-9.003-2.212-11.279-2.715c-2.564-.579-4.128-.579-5.743-1.98-3.155-2.739-7.469-6.305-7.469-6.305z"/><path fill="#FFA8A7" d="M161.095 99.754a3.35 3.35 0 0 1 2.125-.312 1.82 1.82 0 0 1 1.227 1.117q.062.277.185.533.112.16.267.278a6.5 6.5 0 0 1 1.424 1.158c.263.462.401.985.399 1.516a5.46 5.46 0 0 1-.376 2.664 2.49 2.49 0 0 1-2.09 1.511 2.6 2.6 0 0 1-.99-.209 6.2 6.2 0 0 1-1.471-.897 6.7 6.7 0 0 0-1.482-.724 6.28 6.28 0 0 1-2.675-2.478c-.289-.955.637-3.647 1.355-3.908.376-.139 1.783-.139 2.102-.249"/><path fill="#EBEBEB" d="M138.671 98.029c-2.2-1.864-5.645-4.829-5.645-4.829l-2.385-8.968c1.001-.168 2.541-.58 4.585.417 1.337.666 5.489 4.794 8.187 7.561.023.012-.944 4.406-4.742 5.819"/><path fill="#263238" d="M151.072 118.235c-1.679-.961-2.599-2.895-2.599-5.436 0-4.771 3.236-10.37 7.364-12.738 2.2-1.268 4.337-1.441 6.01-.474 1.673.966 2.594 2.894 2.594 5.442 0 4.771-3.231 10.369-7.359 12.737a7.4 7.4 0 0 1-3.636 1.094 4.63 4.63 0 0 1-2.374-.625m6.01-16.055c-3.318 1.917-6.12 6.769-6.12 10.601 0 1.592.492 2.785 1.349 3.283s2.148.324 3.526-.469c3.312-1.916 6.114-6.768 6.114-10.601 0-1.592-.492-2.79-1.349-3.283a2.27 2.27 0 0 0-1.129-.278 5 5 0 0 0-2.391.747"/><path fill="#263238" d="M156.456 106.188a5.21 5.21 0 0 0-2.356 4.052c0 1.506 1.053 2.114 2.356 1.361a5.203 5.203 0 0 0 2.356-4.053c0-1.505-1.053-2.113-2.356-1.36"/><path fill="#263238" d="m156.734 109.555 6.045-7.52-.973-.782-5.627 7-5.506-.492-.111 1.244z"/><path fill="#263238" d="M157.081 108.902h-1.245v7.781h1.245z"/><path fill="#FFA8A7" d="M164.441 102.642c-.671-.046-1.32.093-1.771 1.401-.359 1.037-.718 4.053 1.331 4.175 2.461-.435.44-5.576.44-5.576"/><path fill="#FAFAFA" d="M135.748 91.094c-.388-2.825-1.233-6.473-5.083-6.849-2.459.11-4.908.388-7.33.834q-2.442.556-4.811 1.372l-1.088 8.407.77 10.218s-.215 3.15-.278 5.981c7.694 2.739 16.211 0 18.446-3.786-.099-3.769-.238-13.386-.626-16.177"/><path fill="#263238" d="M135.57 72.827a5.678 5.678 0 0 0-11.342-.232l-2.611-1.789a2 2 0 0 0-1.65.637c-.695.759-.22 3.04.747 5.257 0 0 1.001 4.053 1.372 4.725.248.406.641.701 1.1.828l-.133-2.484 10.305-.92-1.036-.707a5.69 5.69 0 0 0 3.248-5.315"/><path fill="#FFA8A7" d="M122.849 76.821c-.318.209-.81-.411-1.227-.822a1.44 1.44 0 0 0-1.318-.427 1.43 1.43 0 0 0-1.062.89c-.625 1.442.689 3.277 1.737 3.567 1.812.51 2.05-.655 2.05-.655l.191 6.085c2.842 3.075 8.233 1.801 5.992.03l-.07-1.975c.805.103 1.618.119 2.426.046 1.315-.243 2.114-1.314 2.467-2.756.579-2.315.752-4.18.058-8.684-.759-4.933-6.52-4.8-9.565-2.739s-1.679 7.44-1.679 7.44"/><path fill="#263238" d="M135.272 67.489a2.13 2.13 0 0 0-1.395-.14 1.67 1.67 0 0 0-1.036-1.643 1.95 1.95 0 0 0-2.131.318.993.993 0 0 0-.845-1.106 2.7 2.7 0 0 0-1.517.278c-.718.29-1.424.608-2.16.869-1.285.451-2.663.723-3.821 1.447-.281.163-.527.38-.724.637-.242.384-.35.838-.306 1.291q.017.223.069.44a1.088 1.088 0 0 0-1.547-.047 1.1 1.1 0 0 0-.254.36l1.969.978c-.041.394-.081.787-.116 1.158a10.6 10.6 0 0 0 0 3.294.8.8 0 0 0 .133.348q.163.15.272.341l.354.632c.214.387.665.816 1.094.416a1.46 1.46 0 0 0 .353-.84c.156-.926.214-1.868.174-2.807a3.55 3.55 0 0 0 2.055-2.212 9.76 9.76 0 0 0 5.159.857 5.8 5.8 0 0 0 3.56-1.893q.279-.39.626-.718c.202-.138.379-.31.521-.51.094-.143.157-.305.184-.475a1.22 1.22 0 0 0-.268-.96 1.2 1.2 0 0 0-.403-.313"/><path fill="#F28F8F" d="M129.149 83.513s-2.97-.498-4.018-1.007a3.44 3.44 0 0 1-1.471-1.366 4.8 4.8 0 0 0 .863 1.638c.787.938 4.632 1.523 4.632 1.523z"/><path fill="#263238" d="M128.258 76.178a.58.58 0 0 1-.358.535.577.577 0 0 1-.756-.756.57.57 0 0 1 .535-.358.58.58 0 0 1 .579.58M127.886 73.905l-1.632.712a.937.937 0 0 1 .48-1.204.87.87 0 0 1 .967.198.9.9 0 0 1 .185.294"/><path fill="#B16668" d="m128.502 79.688 2.015.683a1.06 1.06 0 0 1-.518.632 1.05 1.05 0 0 1-.814.068 1.113 1.113 0 0 1-.683-1.383"/><path fill="#263238" d="m133.305 73.986-1.737-.15a.833.833 0 0 1 .915-.77.88.88 0 0 1 .822.92M133.028 75.879a.59.59 0 0 1-.348.572.58.58 0 1 1 .348-.572"/><path fill="#F28F8F" d="m130.209 75.752.399 3.525 1.703-.706zM129.762 81.095a1.08 1.08 0 0 0-1.071-.973 1 1 0 0 0-.232 0 1.1 1.1 0 0 0 .724.92 1 1 0 0 0 .579.053"/><path fill="#263238" d="M148.955 121.285a301 301 0 0 1 26.268-17.577 164.4 164.4 0 0 1 28.439-12.795c-.394 1.493 2.53 3.473-.643 6.044-2.246 1.835-9.304 5.303-12.234 7.272-6.913 4.829-22.84 13.779-25.214 15.198-11.892 6.444-14.654 4.226-16.651 1.853z"/><path fill="#37474F" d="M148.953 121.284c.579-.353 18.643-11.539 27.333-16.79 8.274-4.973 25.324-12.656 27.391-13.594a152 152 0 0 0-28.456 12.807 301 301 0 0 0-26.268 17.577"/><path fill="#F7921E" d="m157.563 122.102-16.721-48.054 25.55-14.712 19.471-11.18 14.833 43.024 1.737 5.008zm49.647-26.87-17.514-51.945a9 9 0 0 0-.539-1.268 6.95 6.95 0 0 0-2.171-2.576l-.226-.14-1.244-.717-.047-.035-22.58-13.032-53.502 30.922v70.299l14.138 8.163c2.455-8.227 9.31-11.214 17.369-6.553 5.211 2.993 9.872 8.568 13.212 15.105l9.843-5.674 33.58-19.396 10.115-5.824V97.664a7.8 7.8 0 0 0-.434-2.432m-59.165 26.957a1.42 1.42 0 0 1-1.054-.208l-32.643-18.846a3.56 3.56 0 0 1-1.476-2.825V63.597a2.7 2.7 0 0 1 .145-.885c.364-.074.743-.001 1.054.202l17.554 10.138a4.45 4.45 0 0 1 1.772 2.432l14.549 44.401c.28.738.314 1.546.099 2.304"/><path fill="#000" d="m157.563 122.102-16.721-48.054 25.55-14.712 19.471-11.18 14.833 43.024 1.737 5.008zm49.647-26.87-17.514-51.945a9 9 0 0 0-.539-1.268 6.95 6.95 0 0 0-2.171-2.576l-.226-.14-1.244-.717-.047-.035-22.58-13.032-53.502 30.922v70.299l14.138 8.163c2.455-8.227 9.31-11.214 17.369-6.553 5.211 2.993 9.872 8.568 13.212 15.105l9.843-5.674 33.58-19.396 10.115-5.824V97.664a7.8 7.8 0 0 0-.434-2.432m-59.165 26.957a1.42 1.42 0 0 1-1.054-.208l-32.643-18.846a3.56 3.56 0 0 1-1.476-2.825V63.597a2.7 2.7 0 0 1 .145-.885c.364-.074.743-.001 1.054.202l17.554 10.138a4.45 4.45 0 0 1 1.772 2.432l14.549 44.401c.28.738.314 1.546.099 2.304" opacity=".1"/><path fill="#000" d="m169.149 115.41-3.231 1.87v36.099l3.231-1.87z" opacity=".2"/><path fill="#fff" d="m187.912 40.23-53.52 30.9a5.1 5.1 0 0 0-1.123-.903l-23.882-13.785 53.52-30.894 22.58 13.033.046.034 1.268.69.226.138q.481.35.885.788" opacity=".3"/><path fill="#fff" d="m185.27 38.426 1.534.88a7.37 7.37 0 0 1 2.929 3.984l17.48 51.945a7.7 7.7 0 0 1 .422 2.42v1.407s-15.62-46.59-17.473-52.02c-1.853-5.431-2.449-7.203-4.892-8.616" opacity=".7"/><path fill="#000" d="M168.227 127.886v9.923a2.68 2.68 0 0 0 1.158 2.467c.322.185.688.281 1.059.277a3.37 3.37 0 0 0 1.656-.497l17.821-10.156a7.47 7.47 0 0 0 3.428-5.934v-9.929a2.401 2.401 0 0 0-2.562-2.776c-.485.04-.947.226-1.323.535l-17.821 10.161a7.46 7.46 0 0 0-3.416 5.929m.978 10.525a3.3 3.3 0 0 1-.052-.579v-.851h.041l23.246-13.287v.307a5 5 0 0 1-.191 1.268zm-.052-9.02h.041l23.246-13.316v1.476h-.047l-23.24 13.316zm23.287-9.293h-.047l-23.24 13.288v-1.477h.041l23.246-13.316zm0 2.525h-.047l-23.24 13.287v-1.476h.041l23.246-13.317zm-23.159 4.168 23.095-13.206q.039.233.04.469v.984h-.046l-23.24 13.317v-.44a4.7 4.7 0 0 1 .174-1.141zm22.765-14.086-22.285 12.737a6.2 6.2 0 0 1 2.316-2.68l17.856-10.161c.36-.227.773-.357 1.198-.377.202.003.401.054.579.151.141.077.264.183.359.313zm-22.215 26.789a1.1 1.1 0 0 1-.267-.226l22.123-12.645a6.2 6.2 0 0 1-2.235 2.496l-17.797 10.114a1.82 1.82 0 0 1-1.801.244z" opacity=".2"/><path fill="#455A64" d="M168.854 128.233v9.9a2.68 2.68 0 0 0 1.158 2.467c.322.185.688.281 1.059.278a3.3 3.3 0 0 0 1.656-.504l17.821-10.155a7.5 7.5 0 0 0 2.435-2.548 7.5 7.5 0 0 0 .993-3.381v-9.952c0-1.158-.412-2.033-1.158-2.467a2.69 2.69 0 0 0-2.722.226l-17.82 10.155a7.473 7.473 0 0 0-3.422 5.981m.978 10.52a3 3 0 0 1-.052-.579v-.851h.041l23.246-13.288v.307c-.01.429-.072.855-.186 1.268zm-.052-9.032h.041l23.246-13.316v1.482h-.047l-23.24 13.287zm23.287-9.298h-.047l-23.24 13.287v-1.482h.041l23.246-13.316zm0 2.53h-.047l-23.24 13.287v-1.482h.041l23.246-13.287zm-23.159 4.163 23.095-13.207q.039.236.04.475v.984h-.046l-23.24 13.288v-.423c.012-.392.073-.781.18-1.158zm22.771-14.081-22.291 12.737a6.3 6.3 0 0 1 2.316-2.68l17.821-10.155c.36-.227.773-.357 1.198-.377.203-.001.403.051.579.151.155.07.294.173.406.301zm-22.192 26.777a1.3 1.3 0 0 1-.267-.225l22.123-12.651a6.15 6.15 0 0 1-2.235 2.495l-17.821 10.156a1.81 1.81 0 0 1-1.8.225"/><path fill="#F0F0F0" d="M151.756 131.289v3.775a1.31 1.31 0 0 0 .579 1.03l1.042.579a1.32 1.32 0 0 0 1.193 0l7.729-4.464a1.31 1.31 0 0 0 .579-1.03v-3.775c0-.382-.266-.533-.579-.342l-7.729 4.464a1.35 1.35 0 0 1-1.193 0l-1.042-.579c-.313-.191-.579-.035-.579.342M207.631 100.917l-9.049 5.222v5.153l9.049-5.222z"/><path fill="#455A64" d="m161.565 24.743-53.52 30.894 1.343.775 53.52-30.893z"/><path fill="#F7921E" d="m153.69 126.138-17.491-51.957a7.4 7.4 0 0 0-2.93-3.977l-23.882-13.762v70.298l14.138 8.164c2.455-8.227 9.31-11.215 17.369-6.554 5.211 2.993 9.872 8.569 13.212 15.105v-14.897a7.7 7.7 0 0 0-.416-2.42m-5.645-3.948a1.43 1.43 0 0 1-1.054-.209l-32.643-18.845a3.6 3.6 0 0 1-1.072-1.238 3.6 3.6 0 0 1-.404-1.588V63.598a2.7 2.7 0 0 1 .145-.886c.364-.074.743 0 1.054.203l17.554 10.138a4.45 4.45 0 0 1 1.772 2.431l14.549 44.401c.28.738.314 1.546.099 2.305"/><path fill="#000" d="m153.69 126.138-17.491-51.957a7.4 7.4 0 0 0-2.93-3.977l-23.882-13.762v70.298l14.138 8.164c2.455-8.227 9.31-11.215 17.369-6.554 5.211 2.993 9.872 8.569 13.212 15.105v-14.897a7.7 7.7 0 0 0-.416-2.42m-5.645-3.948a1.43 1.43 0 0 1-1.054-.209l-32.643-18.845a3.6 3.6 0 0 1-1.072-1.238 3.6 3.6 0 0 1-.404-1.588V63.598a2.7 2.7 0 0 1 .145-.886c.364-.074.743 0 1.054.203l17.554 10.138a4.45 4.45 0 0 1 1.772 2.431l14.549 44.401c.28.738.314 1.546.099 2.305" opacity=".2"/><path fill="#000" d="M119.504 116.028a15 15 0 0 1-1.836-1.505c-.226-.214-.637-.51-.741-.811s.232-.48.498-.492c.457 0 2.982.116 2.82-.799-.052-.295-.637-.365-.869-.446-.851-.306-1.644-.735-2.513-.978a5.9 5.9 0 0 1-2.732-1.401 10.5 10.5 0 0 1-1.419-2.276 50 50 0 0 1-2.142-4.66 16 16 0 0 1 2.316-2.108v-9.611c-1.204 1.158-2.432 2.49-3.474 3.613v16.414c.486.666.973 1.332 1.251 1.696.625.84 1.233 1.853 1.864 2.687a11.3 11.3 0 0 0 2.582 2.663c.775.543 1.7.832 2.646.828a6 6 0 0 0 1.83-.509c.486-.203 1.019-.435 1.048-1.043a.784.784 0 0 0-.307-.654 6.4 6.4 0 0 0-.822-.608" opacity=".1"/><path fill="#fff" d="m131.748 69.323 1.523.88a7.4 7.4 0 0 1 2.929 3.984l17.491 51.951c.27.78.412 1.599.423 2.426v1.406s-15.592-46.6-17.474-52.037-2.449-7.197-4.892-8.61" opacity=".7"/><path fill="#FFA8A7" d="M104.332 99.545a23 23 0 0 1 3.416-4.423c1.609-1.68 4.632-5.043 6.977-7.075.77-.66 1.962-1.158 3.792-1.621 1.158.428 1.673 2.895 1.285 5.517-.44 2.947-1.992 3.984-1.992 3.984-1.736 1.048-6.067 4.081-7.237 5.552a51 51 0 0 0 2.137 4.632 10.3 10.3 0 0 0 1.424 2.269c.77.7 1.71 1.186 2.727 1.407.874.243 1.667.666 2.518.979.226.081.811.15.863.446.162.914-2.356.775-2.819.798-.261 0-.62.163-.498.493.121.33.521.579.741.81q.86.827 1.841 1.505.419.259.793.579a.8.8 0 0 1 .238.291.8.8 0 0 1 .069.369c0 .579-.579.84-1.042 1.043a6.2 6.2 0 0 1-1.836.509 4.53 4.53 0 0 1-2.64-.834 11 11 0 0 1-2.582-2.663c-.637-.834-1.239-1.841-1.87-2.68s-2.316-3.185-2.617-3.619a64 64 0 0 1-3.549-5.888c-.463-.903-.643-1.575-.139-2.38"/><path fill="#F28F8F" d="M110.573 101.481a4.25 4.25 0 0 0-2.229-.278 3.47 3.47 0 0 1 2.541-.075z"/><path fill="#EBEBEB" d="M118.933 86.322c-1.304.16-2.565.567-3.717 1.199-.793.405-2.692 2.27-4.053 3.722-.845.91-2.75 2.895-4.313 4.632 1.007 2.553 2.472 4.262 4.348 5.211a43 43 0 0 1 6.716-4.776 6.72 6.72 0 0 0 2.362-5.24c.012-3.486-.938-4.522-1.343-4.748"/><path fill="#263238" d="m210.722 186.056-.185.266a2.4 2.4 0 0 0-.874-.793l-37.338-21.584a2.31 2.31 0 0 1-1.158-1.992v-4.464L168 159.313v4.447a2.31 2.31 0 0 0 1.158 1.985l37.286 21.637c1.158.683 2.848.822 3.734.306a.95.95 0 0 0 .533-.799z"/><path fill="#37474F" d="M171.94 161.479a2.32 2.32 0 0 0 1.158 1.992l36.574 21.196c1.158.683 1.412 1.65.521 2.165-.892.516-2.559.371-3.735-.312l-36.538-21.231a2.32 2.32 0 0 1-1.158-1.992v-4.441l3.167-1.823z"/><path fill="#263238" d="m235.769 171.57-.185.266a2.4 2.4 0 0 0-.874-.793l-37.326-21.578a2.31 2.31 0 0 1-1.158-1.992v-4.47l-3.167 1.83v4.441a2.31 2.31 0 0 0 1.158 1.991l37.285 21.631c1.158.683 2.849.822 3.735.307a.942.942 0 0 0 .532-.799z"/><path fill="#37474F" d="M196.985 146.998a2.32 2.32 0 0 0 1.158 1.992l36.574 21.196c1.158.677 1.412 1.644.521 2.16-.892.515-2.559.376-3.735-.307l-36.538-21.225a2.32 2.32 0 0 1-1.158-1.986v-4.441l3.167-1.829z"/><path fill="#263238" d="m170.023 161.015-2.502-1.441.006-86.51 2.49 1.453z"/><path fill="#37474F" d="m170.023 161.015 2.502-1.441v-86.51l-2.496 1.453z"/><path fill="#263238" d="m194.993 146.604-2.501-1.447.006-86.51 2.49 1.453z"/><path fill="#37474F" d="m194.992 146.604 2.501-1.447v-86.51l-2.495 1.453z"/><path fill="#F7921E" d="M163.07 79.16v-3.514l40.198-23.222v3.514zM163.069 79.158l-3.028-1.748v-3.514l3.028 1.748z"/><path fill="#000" d="m163.069 79.158-3.028-1.748v-3.514l3.028 1.748z" opacity=".2"/><path fill="#F7921E" d="m160.041 73.898 40.181-23.229 3.045 1.755-40.198 23.222z"/><path fill="#fff" d="m160.041 73.898 40.181-23.229 3.045 1.755-40.198 23.222z" opacity=".5"/><path fill="#F7921E" d="m234.194 141.798-31.606-18.284-35.897 20.774 31.612 18.284z"/><path fill="#fff" d="m234.194 141.8-31.606-18.284-35.897 20.773 31.612 18.284z" opacity=".7"/><path fill="#000" d="m170.389 142.145 31.009 17.937 32.191-18.631-31.004-17.937z" opacity=".1"/><path fill="#F7921E" d="m198.303 186.31 35.89-20.773v-23.738l-35.89 20.773z"/><path fill="#fff" d="m198.305 186.311 35.89-20.773V141.8l-35.89 20.773z" opacity=".6"/><path fill="#455A64" d="M202.261 178.436a.6.6 0 0 1-.306-.081.93.93 0 0 1-.388-.851v-2.703h.133l1.968-1.158v2.813a2.27 2.27 0 0 1-.972 1.836.85.85 0 0 1-.435.144m-.376-3.265v2.316a.65.65 0 0 0 .226.579.45.45 0 0 0 .428-.046 2 2 0 0 0 .817-1.564v-.168h-.73l-.145-.984zm1.013.776h.458v-1.737l-1.158.689.579.104z"/><path fill="#455A64" d="M202.621 180.446a.167.167 0 0 1-.162-.162v-2.113a.16.16 0 0 1 .162-.156q.065 0 .111.045a.16.16 0 0 1 .045.111v2.113a.16.16 0 0 1-.156.162"/><path fill="#455A64" d="M201.7 180.973a.16.16 0 0 1-.092-.036.17.17 0 0 1-.053-.083.16.16 0 0 1 .064-.176l1.841-1.06a.16.16 0 0 1 .119-.015c.04.01.075.037.095.073a.155.155 0 0 1-.058.214l-1.835 1.06a.14.14 0 0 1-.081.023M208.225 177.336a.36.36 0 0 1-.173-.047.41.41 0 0 1-.191-.382v-.434q0-.065.045-.111a.16.16 0 0 1 .223 0 .16.16 0 0 1 .05.111v.434c0 .064 0 .099.029.104.029.006.046 0 .104 0a.94.94 0 0 0 .29-.718v-2.808a.16.16 0 0 1 .049-.11.157.157 0 0 1 .269.11v2.803a1.2 1.2 0 0 1-.452.99.5.5 0 0 1-.243.058"/><path fill="#455A64" d="M206.58 174.877v-.272a4.46 4.46 0 0 1 2.021-3.474 1.34 1.34 0 0 1 1.533-.14 1.33 1.33 0 0 1 .649 1.397v.092zm2.97-3.746a1.65 1.65 0 0 0-.793.243 4.18 4.18 0 0 0-1.847 2.947l3.555-2.055a1.159 1.159 0 0 0-.486-1.031.9.9 0 0 0-.429-.104M213.924 174.096a.157.157 0 0 1-.156-.157v-5.384a.17.17 0 0 1 .055-.095.163.163 0 0 1 .263.095v5.384a.2.2 0 0 1-.012.062.2.2 0 0 1-.036.051.166.166 0 0 1-.114.044"/><path fill="#455A64" d="M213.465 169.78a.1.1 0 0 1-.063 0 .161.161 0 0 1-.085-.087.16.16 0 0 1 .004-.122l.579-1.297.625.724a.156.156 0 0 1 0 .22.158.158 0 0 1-.226 0l-.301-.341-.359.839a.16.16 0 0 1-.077.059.17.17 0 0 1-.097.005M215.387 173.261a.157.157 0 0 1-.157-.156v-5.385a.157.157 0 0 1 .157-.156.163.163 0 0 1 .162.156v5.385a.163.163 0 0 1-.162.156"/><path fill="#455A64" d="M214.924 168.948a.13.13 0 0 1-.063 0 .15.15 0 0 1-.085-.088.16.16 0 0 1 .004-.121l.579-1.302.631.729a.156.156 0 0 1 0 .22.2.2 0 0 1-.05.035.14.14 0 0 1-.12 0 .2.2 0 0 1-.05-.035l-.301-.342-.365.84a.15.15 0 0 1-.18.064"/><path fill="#F7921E" d="m198.303 186.311-31.612-18.284v-23.738l31.612 18.284z"/><path fill="#fff" d="m198.303 186.313-31.612-18.284v-23.738l31.612 18.284z" opacity=".4"/><path fill="#37474F" d="m180.951 156.13 2.328 1.343v-3.613l-2.328-1.337z"/><path fill="#455A64" d="m183.279 153.86 35.89-20.774-2.327-1.337-35.891 20.773z"/><path fill="#37474F" d="m184.631 150.387 2.327 1.343 1.315-.747-2.334-1.349z"/><path fill="#FAFAFA" d="m171.218 159.228 8.215 4.747a.82.82 0 0 1 .371.643v5.709c0 .469-.336.666-.741.428l-8.216-4.747a.804.804 0 0 1-.37-.643v-5.709c0-.469.33-.666.741-.428"/><path fill="#455A64" d="m171.01 160.114.283.162v5.043l-.283-.162zM172.148 160.774l.481.284v5.042l-.481-.283zM173.285 161.428l.284.162v5.043l-.284-.162zM174.148 161.914l.556.335v5.037l-.556-.33zM175.564 162.741l.278.162v5.043l-.278-.162zM176.383 163.205l.596.359v5.037l-.596-.353zM177.842 164.055l.278.162v5.043l-.278-.162zM178.488 164.426l.139.081v5.043l-.139-.081zM177.322 163.784l.139.081v5.037l-.139-.075zM175.027 162.441l.139.081v5.043l-.139-.081zM173.771 161.717l.139.081v5.043l-.139-.081zM172.875 161.219l.139.081v5.043l-.139-.081zM171.646 160.478l.139.081v5.042l-.139-.081zM178.977 164.709l.283.162v5.043l-.283-.162z"/><path fill="#F7921E" d="m237.289 114.055-31.612-18.284-35.89 20.774 31.612 18.284z"/><path fill="#fff" d="M237.291 114.054 205.679 95.77l-35.89 20.773 31.612 18.284z" opacity=".3"/><path fill="#000" d="m169.787 116.543 29.319 16.958 32.66-18.903-29.319-16.958z" opacity=".2"/><path fill="#F7921E" d="m201.398 158.572 35.891-20.773v-23.744l-35.891 20.774z"/><path fill="#455A64" d="M205.359 150.698a.6.6 0 0 1-.312-.087.94.94 0 0 1-.382-.851v-2.698h.127l1.974-1.158v2.808a2.27 2.27 0 0 1-.972 1.835.9.9 0 0 1-.435.151m-.376-3.266v2.316a.64.64 0 0 0 .226.579.45.45 0 0 0 .428-.046 1.993 1.993 0 0 0 .811-1.563v-.22h-.73l-.144-.985zm1.008.776h.457v-1.737l-1.158.689.579.104z"/><path fill="#455A64" d="M205.713 152.701a.155.155 0 0 1-.156-.156v-2.113a.16.16 0 0 1 .156-.162.167.167 0 0 1 .162.162v2.119a.16.16 0 0 1-.162.15"/><path fill="#455A64" d="M204.797 153.23a.14.14 0 0 1-.08-.018.15.15 0 0 1-.059-.057.16.16 0 0 1-.014-.121.17.17 0 0 1 .072-.099l1.835-1.059a.2.2 0 0 1 .062-.03.2.2 0 0 1 .068-.001.2.2 0 0 1 .063.027.166.166 0 0 1 .06.183.2.2 0 0 1-.035.059.2.2 0 0 1-.055.039l-1.842 1.06a.2.2 0 0 1-.075.017M211.342 149.593a.37.37 0 0 1-.173-.047.413.413 0 0 1-.191-.382v-.428a.17.17 0 0 1 .049-.113q.047-.046.113-.049a.16.16 0 0 1 .156.162v.428c0 .07 0 .104.029.11a.1.1 0 0 0 .052.011.1.1 0 0 0 .052-.011.92.92 0 0 0 .296-.712v-2.843a.156.156 0 0 1 .156-.156q.065 0 .113.045.046.046.049.111v2.814a1.2 1.2 0 0 1-.452.984.5.5 0 0 1-.249.076"/><path fill="#455A64" d="M209.674 147.138v-.278a4.476 4.476 0 0 1 2.026-3.503c.21-.176.47-.284.743-.307a1.33 1.33 0 0 1 1.329.766c.116.249.153.527.105.798v.092zm2.97-3.752c-.279.012-.55.096-.787.244a4.16 4.16 0 0 0-1.847 2.946l3.549-2.049a1.17 1.17 0 0 0-.487-1.031.83.83 0 0 0-.428-.11M217.02 146.357a.16.16 0 0 1-.111-.049.16.16 0 0 1-.046-.113v-5.379a.157.157 0 0 1 .313 0v5.368a.2.2 0 0 1-.008.064.2.2 0 0 1-.033.056.2.2 0 0 1-.052.038.2.2 0 0 1-.063.015"/><path fill="#455A64" d="M216.557 142.042a.14.14 0 0 1-.064 0 .2.2 0 0 1-.051-.035.2.2 0 0 1-.033-.052.2.2 0 0 1-.011-.061.2.2 0 0 1 .014-.06l.579-1.297.631.723a.16.16 0 0 1 0 .226.166.166 0 0 1-.225 0l-.296-.347-.364.839a.16.16 0 0 1-.079.063.16.16 0 0 1-.101.001M218.484 145.521a.167.167 0 0 1-.162-.162v-5.379a.17.17 0 0 1 .049-.113.17.17 0 0 1 .113-.049c.042.002.082.02.111.05q.045.047.046.112v5.379a.17.17 0 0 1-.046.113.16.16 0 0 1-.111.049"/><path fill="#455A64" d="M218.022 141.21a.1.1 0 0 1-.064 0 .158.158 0 0 1-.081-.209l.579-1.296.626.723a.165.165 0 0 1 0 .226.169.169 0 0 1-.226 0l-.296-.347-.364.839a.175.175 0 0 1-.174.064"/><path fill="#F7921E" d="m201.399 158.571-31.612-18.284v-23.744l31.612 18.284z"/><path fill="#000" d="m201.401 158.573-31.612-18.284v-23.744l31.612 18.284z" opacity=".1"/><path fill="#000" d="m169.787 124.481 29.319 16.958v-7.937l-29.319-16.959z" opacity=".2"/><path fill="#37474F" d="m184.049 128.383 2.321 1.344v-3.607l-2.321-1.344z"/><path fill="#455A64" d="m186.37 126.121 35.891-20.774-2.322-1.343-35.89 20.773z"/><path fill="#FAFAFA" d="m174.311 131.481 8.216 4.748a.812.812 0 0 1 .371.642v5.715c0 .469-.33.66-.736.422l-8.221-4.741a.84.84 0 0 1-.371-.643v-5.714c0-.469.336-.66.741-.429"/><path fill="#455A64" d="m174.107 132.374.278.162v5.037l-.278-.157zM175.242 133.027l.487.284v5.043l-.487-.284zM176.383 133.688l.278.162v5.037l-.278-.157zM177.242 134.174l.562.33v5.043l-.562-.336zM178.656 135.001l.278.156v5.043l-.278-.162zM179.48 135.465l.597.354v5.042l-.597-.359zM180.936 136.312l.277.162v5.042l-.277-.162zM181.582 136.681l.139.081v5.043l-.139-.081zM180.416 136.038l.139.081v5.043l-.139-.081zM178.125 134.695l.139.081v5.043l-.139-.081zM176.869 133.978l.139.081v5.037l-.139-.076zM175.965 133.479l.139.081v5.037l-.139-.081zM174.744 132.732l.139.081v5.043l-.139-.081zM182.074 136.971l.278.162v5.043l-.278-.162z"/><path fill="#F7921E" d="m229.838 90.785-31.606-18.284-35.89 20.774 31.606 18.284z"/><path fill="#fff" d="m229.838 90.786-31.606-18.284-35.89 20.773 31.606 18.284z" opacity=".7"/><path fill="#F7921E" d="m193.947 135.304 35.891-20.774V90.787l-35.891 20.773z"/><path fill="#fff" d="m193.945 135.306 35.891-20.773V90.789l-35.891 20.774z" opacity=".6"/><path fill="#455A64" d="M197.91 127.429a.6.6 0 0 1-.307-.087.94.94 0 0 1-.376-.845v-2.698h.133l1.969-1.158v2.808a2.26 2.26 0 0 1-.967 1.835.9.9 0 0 1-.452.145m-.376-3.265v2.316a.65.65 0 0 0 .226.579.45.45 0 0 0 .428-.047 2.001 2.001 0 0 0 .817-1.563v-.208h-.73l-.145-.985zm1.013.776h.458v-1.737l-1.158.689.579.104z"/><path fill="#455A64" d="M198.266 129.433a.157.157 0 0 1-.157-.157v-2.113a.157.157 0 0 1 .313 0v2.113a.157.157 0 0 1-.156.157"/><path fill="#455A64" d="M197.348 129.97a.15.15 0 0 1-.133-.076.149.149 0 0 1-.018-.122.159.159 0 0 1 .076-.098l1.835-1.059a.15.15 0 0 1 .174.011q.025.02.041.047.031.057.016.122a.17.17 0 0 1-.074.098l-1.836 1.077a.2.2 0 0 1-.081 0M203.897 126.323a.4.4 0 0 1-.174-.047.41.41 0 0 1-.191-.382v-.428c0-.042.017-.083.046-.113a.16.16 0 0 1 .111-.049.167.167 0 0 1 .162.162v.451c0 .07 0 .104.029.11s.046 0 .104 0a.92.92 0 0 0 .289-.712v-2.872a.163.163 0 0 1 .163-.156.157.157 0 0 1 .156.156v2.814a1.19 1.19 0 0 1-.446.984.5.5 0 0 1-.249.082"/><path fill="#455A64" d="M202.227 123.868v-.266a4.48 4.48 0 0 1 2.02-3.503 1.33 1.33 0 0 1 1.534-.14 1.34 1.34 0 0 1 .649 1.396v.093zm2.97-3.752c-.28.011-.551.095-.788.244a4.19 4.19 0 0 0-1.852 2.946l3.554-2.049a1.15 1.15 0 0 0-.486-1.031.84.84 0 0 0-.428-.098zM209.575 123.086a.16.16 0 0 1-.162-.162v-5.378a.164.164 0 0 1 .159-.193.162.162 0 0 1 .159.193v5.378a.16.16 0 0 1-.156.162"/><path fill="#455A64" d="M209.112 118.773a.1.1 0 0 1-.064 0 .2.2 0 0 1-.051-.035.157.157 0 0 1-.03-.173l.579-1.297.625.724a.161.161 0 0 1 0 .226.17.17 0 0 1-.225 0l-.296-.348-.364.84a.174.174 0 0 1-.174.063M211.033 122.253a.17.17 0 0 1-.111-.05.16.16 0 0 1-.045-.112v-5.379a.2.2 0 0 1 .01-.062.2.2 0 0 1 .034-.052.14.14 0 0 1 .051-.036.16.16 0 0 1 .176.035q.046.049.048.115v5.379a.17.17 0 0 1-.163.162"/><path fill="#455A64" d="M210.571 117.939h-.064a.16.16 0 0 1-.081-.208l.579-1.297.631.724a.14.14 0 0 1 .036.051q.013.03.013.062a.16.16 0 0 1-.049.113.17.17 0 0 1-.11.043.17.17 0 0 1-.11-.043l-.301-.348-.365.84a.15.15 0 0 1-.078.062.15.15 0 0 1-.101.001"/><path fill="#F7921E" d="m193.948 135.303-31.606-18.284V93.276l31.606 18.284z"/><path fill="#fff" d="m193.948 135.304-31.606-18.284V93.276l31.606 18.284z" opacity=".4"/><path fill="#37474F" d="m176.596 105.115 2.327 1.344v-3.607l-2.327-1.344z"/><path fill="#455A64" d="m178.923 102.851 35.891-20.774-2.322-1.343-35.896 20.773z"/><path fill="#FAFAFA" d="m166.864 108.214 8.216 4.747a.83.83 0 0 1 .37.643v5.714c0 .469-.336.66-.741.423l-8.215-4.742a.84.84 0 0 1-.371-.642v-5.715c0-.469.33-.671.741-.428"/><path fill="#455A64" d="m166.658 109.104.284.162v5.037l-.284-.157zM167.795 109.758l.48.284v5.042l-.48-.283zM168.932 110.42l.283.162v5.037l-.283-.156zM169.795 110.906l.556.33v5.043l-.556-.336zM171.213 111.733l.278.157v5.043l-.278-.163zM172.029 112.198l.597.353v5.043l-.597-.359zM173.49 113.041l.278.162v5.043l-.278-.162zM174.137 113.412l.139.081v5.043l-.139-.082zM172.967 112.771l.139.081v5.042l-.139-.081zM170.676 111.427l.139.081v5.043l-.139-.081zM169.416 110.709l.145.082v5.037l-.145-.081zM168.52 110.21l.138.082v5.037l-.138-.081zM167.291 109.463l.145.081-.006 5.043-.139-.081zM174.623 113.701l.284.162v5.043l-.284-.162z"/><path fill="#F7921E" d="m40 152.729 21.092-12.175 15.47 8.928-21.091 12.178z"/><path fill="#000" d="m40 152.729 21.092-12.175 15.47 8.928-21.091 12.178z" opacity=".1"/><path fill="#FAFAFA" d="m60.889 142.302-6.474 3.729c-.118.069-.086.197.07.287l7.31 4.22q.112.066.241.078a.6.6 0 0 0 .251-.037l6.477-3.731c.118-.07.087-.194-.07-.288l-7.31-4.216a.57.57 0 0 0-.495-.042"/><path fill="#E0E0E0" d="M64.16 148.647a.14.14 0 0 0 .066-.017.136.136 0 0 0 .061-.151.13.13 0 0 0-.062-.081l-6.068-3.504a.14.14 0 0 0-.183.052.135.135 0 0 0 .048.18l6.068 3.504q.032.018.07.017M63.483 149.035a.13.13 0 0 0 .066-.018.13.13 0 0 0 .048-.048.13.13 0 0 0-.048-.183l-6.068-3.503a.13.13 0 0 0-.147.008.1.1 0 0 0-.033.04.13.13 0 0 0-.015.102.138.138 0 0 0 .063.082l6.068 3.503q.03.017.066.017M62.808 149.42a.14.14 0 0 0 .127-.099.135.135 0 0 0-.058-.151l-6.068-3.503a.137.137 0 0 0-.184.049.13.13 0 0 0-.013.101q.014.054.062.082l6.068 3.503q.03.018.066.018M62.137 149.806a.13.13 0 0 0 .066-.018.13.13 0 0 0 .049-.048.13.13 0 0 0-.049-.183l-6.068-3.49a.1.1 0 0 0-.049-.017.1.1 0 0 0-.052.003.123.123 0 0 0-.08.063.13.13 0 0 0 .05.183l6.064 3.504a.2.2 0 0 0 .07.003"/><path fill="#455A64" d="m68.15 146.677-.235-.135-2.763 1.596.236.135zM67.192 146.123l-.412-.232-2.762 1.595.408.232zM66.228 145.57l-.235-.139-2.762 1.596.235.138zM65.51 145.146l-.475-.27-2.765 1.596.477.27zM64.308 144.459l-.235-.135-2.762 1.596.235.135zM63.624 144.057l-.509-.287-2.765 1.595.512.288zM62.387 143.351l-.236-.139-2.762 1.596.235.139zM61.843 143.032l-.118-.069-2.762 1.596.118.069zM62.813 143.611l-.117-.069-2.766 1.595.12.07zM64.759 144.721l-.118-.069-2.766 1.596.121.069zM65.814 145.334l-.118-.066-2.762 1.592.117.07zM66.563 145.781l-.117-.07-2.766 1.6.117.066zM67.618 146.366l-.118-.07-2.766 1.596.118.069zM61.43 142.793l-.236-.135-2.766 1.596.235.138z"/><path fill="#F7921E" d="M55.47 203.882 40 194.951v-42.223l15.47 8.931z"/><path fill="#000" d="M55.47 203.882 40 194.951v-42.223l15.47 8.931z" opacity=".2"/><path fill="#F7921E" d="m55.47 203.883 21.093-12.178v-42.223L55.471 161.66z"/><path fill="#000" d="m55.47 203.883 21.093-12.178v-42.223L55.471 161.66z" opacity=".3"/><path fill="#37474F" d="m66.718 158.344-2.046 1.18v-3.178l2.046-1.18z"/><path fill="#455A64" d="m64.672 156.347-15.467-8.928 2.046-1.184 15.467 8.931zM43.922 193.882a1.73 1.73 0 0 1-.73-1.385v-2.118l1.484.872h.097v2.036a.69.69 0 0 1-.29.64.44.44 0 0 1-.232.062.7.7 0 0 1-.33-.107m.166-2.281-.107.744h-.55v.156a1.5 1.5 0 0 0 .612 1.173q.07.052.156.062a.3.3 0 0 0 .166-.023.5.5 0 0 0 .14-.197c.03-.076.04-.159.03-.24v-1.755zm-.211-.204.44-.077-.887-.522v1.312h.346z"/><path fill="#455A64" d="M43.984 195.488a.12.12 0 0 0 .118-.117v-1.593a.12.12 0 0 0-.118-.117.12.12 0 0 0-.12.117v1.593a.12.12 0 0 0 .12.117"/><path fill="#455A64" d="M44.674 195.886a.116.116 0 0 0 .111-.164.1.1 0 0 0-.052-.057l-1.385-.8a.1.1 0 0 0-.044-.014.1.1 0 0 0-.047.003.119.119 0 0 0-.027.219l1.385.796a.08.08 0 0 0 .059.017M48.818 198.34q.069 0 .131-.032a.32.32 0 0 0 .142-.287v-.325a.12.12 0 0 0-.027-.099.1.1 0 0 0-.041-.032.1.1 0 0 0-.051-.011.1.1 0 0 0-.051.011.123.123 0 0 0-.068.131v.325a.12.12 0 0 1-.022.08.11.11 0 0 1-.08-.021.69.69 0 0 1-.22-.537v-2.111a.12.12 0 1 0-.239 0v2.115a.9.9 0 0 0 .346.741.36.36 0 0 0 .18.052"/><path fill="#455A64" d="M46.908 194.667v-.069a1.012 1.012 0 0 1 1.644-.949 3.38 3.38 0 0 1 1.52 2.638v.208zm.609-.914a.89.89 0 0 0-.37.779l2.675 1.544a3.14 3.14 0 0 0-1.384-2.219 1.2 1.2 0 0 0-.592-.183.65.65 0 0 0-.33.079M53.602 201.013a.12.12 0 0 0 .121-.118v-4.05a.12.12 0 0 0-.12-.117.117.117 0 0 0-.119.117v4.05a.12.12 0 0 0 .118.118"/><path fill="#455A64" d="M53.951 197.77a.1.1 0 0 0 .048 0 .122.122 0 0 0 .062-.066.12.12 0 0 0-.003-.09l-.422-1.004-.47.547a.12.12 0 0 0 0 .166.126.126 0 0 0 .169 0l.221-.26.274.63q.016.037.048.058.033.02.073.019M52.5 200.386a.12.12 0 0 0 .122-.117v-4.051a.12.12 0 0 0-.036-.085.12.12 0 0 0-.085-.036.12.12 0 0 0-.084.037.12.12 0 0 0-.034.084v4.051a.117.117 0 0 0 .117.117"/><path fill="#455A64" d="M52.85 197.139a.1.1 0 0 0 .048 0 .124.124 0 0 0 .062-.159l-.433-.983-.47.544a.117.117 0 0 0-.016.131.1.1 0 0 0 .027.036.12.12 0 0 0 .131.017.1.1 0 0 0 .037-.029l.222-.259.273.633a.12.12 0 0 0 .118.069"/><path fill="#FAFAFA" d="M54.06 188.087v5.241c0 .204-.141.284-.314.183l-8.187-4.725a.7.7 0 0 1-.319-.551v-5.244c0-.204.139-.284.315-.184l8.187 4.729a.7.7 0 0 1 .319.551"/><path fill="#455A64" d="m45.75 183.559.263.152v4.767l-.263-.153zM46.826 184.178l.454.27v4.767l-.454-.27zM47.902 184.8l.263.153v4.766l-.263-.152zM48.713 185.257l.53.315v4.767l-.53-.311zM50.053 186.042l.266.155v4.767l-.266-.152zM50.828 186.481l.564.336v4.767l-.564-.336zM52.207 187.283l.263.153v4.766l-.263-.152zM52.818 187.633l.132.076v4.767l-.132-.076zM51.715 187.024l.131.076v4.767l-.131-.076zM49.547 185.753l.131.08v4.763l-.131-.073zM48.361 185.074l.132.076v4.767l-.132-.076zM47.508 184.604l.131.077v4.766l-.131-.076zM46.352 183.901l.131.076v4.767l-.131-.076zM53.283 187.906l.263.153v4.766l-.263-.152z"/><path fill="#F7921E" d="m124.601 185.572-29.91-17.298-31.609 18.295 29.91 17.298z"/><path fill="#fff" d="m124.601 185.572-29.91-17.298-31.609 18.295 29.91 17.298z" opacity=".7"/><path fill="#F7921E" d="m92.99 224.773 31.609-18.292v-20.909L92.99 203.868z"/><path fill="#fff" d="m92.99 224.773 31.609-18.292v-20.909L92.99 203.868z" opacity=".6"/><path fill="#455A64" d="M96.479 217.85a.55.55 0 0 1-.274-.073.83.83 0 0 1-.346-.751v-2.379l.114.021 1.731-1.021v2.472a2 2 0 0 1-.855 1.616.76.76 0 0 1-.37.115m-.347-2.874v2.05a.58.58 0 0 0 .198.512.4.4 0 0 0 .377-.042 1.76 1.76 0 0 0 .717-1.384v-.18h-.644l-.125-.869zm.89.693h.402v-1.53l-1.039.609.512.093z"/><path fill="#455A64" d="M96.793 219.604a.14.14 0 0 1-.139-.139v-1.862a.138.138 0 1 1 .277 0v1.862a.14.14 0 0 1-.138.139"/><path fill="#455A64" d="M95.987 220.071a.13.13 0 0 1-.122-.069.137.137 0 0 1 .048-.19l1.62-.935a.14.14 0 0 1 .053-.017.132.132 0 0 1 .103.028.1.1 0 0 1 .035.041.14.14 0 0 1-.052.191l-1.616.934a.2.2 0 0 1-.07.017M101.749 216.867a.35.35 0 0 1-.155-.039.37.37 0 0 1-.131-.15.37.37 0 0 1-.036-.196v-.363a.15.15 0 0 1 .048-.086.144.144 0 0 1 .185 0 .15.15 0 0 1 .048.086v.381c0 .058 0 .086.027.093.028.007.042 0 .09-.024a.84.84 0 0 0 .26-.63v-2.475q.001-.057.041-.098a.136.136 0 0 1 .195 0 .14.14 0 0 1 .041.098v2.475a1.05 1.05 0 0 1-.395.869.43.43 0 0 1-.218.059"/><path fill="#455A64" d="M100.283 214.703v-.243a3.95 3.95 0 0 1 1.78-3.084 1.173 1.173 0 0 1 1.831.402c.102.22.134.467.09.706v.079zm2.614-3.303a1.4 1.4 0 0 0-.693.218 3.7 3.7 0 0 0-1.627 2.597l3.116-1.811a1.04 1.04 0 0 0-.429-.907.74.74 0 0 0-.367-.097M106.748 214.014a.14.14 0 0 1-.098-.041.14.14 0 0 1-.041-.098v-4.739a.15.15 0 0 1 .048-.086.144.144 0 0 1 .185 0 .15.15 0 0 1 .048.086v4.739a.14.14 0 0 1-.042.099.14.14 0 0 1-.1.04"/><path fill="#455A64" d="M106.343 210.234a.2.2 0 0 1-.055 0 .14.14 0 0 1-.075-.077.14.14 0 0 1-.01-.054.2.2 0 0 1 .012-.053l.495-1.146.554.641a.14.14 0 0 1 .033.101.14.14 0 0 1-.15.127.14.14 0 0 1-.094-.048l-.263-.301-.319.737a.146.146 0 0 1-.128.073M108.038 213.28a.14.14 0 0 1-.1-.039.14.14 0 0 1-.042-.1v-4.739a.14.14 0 0 1 .004-.06.13.13 0 0 1 .029-.054.14.14 0 0 1 .048-.037.2.2 0 0 1 .059-.013q.031 0 .06.013a.144.144 0 0 1 .081.151v4.739a.14.14 0 0 1-.041.098.14.14 0 0 1-.098.041"/><path fill="#455A64" d="M107.632 209.483a.2.2 0 0 1-.055 0 .14.14 0 0 1-.075-.077.14.14 0 0 1-.01-.054.2.2 0 0 1 .012-.053l.505-1.142.554.637a.1.1 0 0 1 .027.047.139.139 0 0 1-.007.107.14.14 0 0 1-.081.07.14.14 0 0 1-.107-.007.2.2 0 0 1-.043-.034l-.263-.304-.318.74a.15.15 0 0 1-.059.056.15.15 0 0 1-.08.014"/><path fill="#F7921E" d="m92.991 224.774-29.909-17.295V186.57l29.91 17.298z"/><path fill="#fff" d="m92.991 224.774-29.909-17.295V186.57l29.91 17.298z" opacity=".5"/><path fill="#37474F" d="m75.637 196.995 2.05 1.181v-3.178l-2.05-1.181z"/><path fill="#455A64" d="m77.686 195.002 31.609-18.296-2.049-1.184-31.61 18.296z"/><path fill="#37474F" d="m76.566 193.278 2.046 1.184 1.143-.658-2.046-1.184z"/><path fill="#FAFAFA" d="m109.394 179.373-8.374 4.822c-.153.09-.111.253.09.371l9.454 5.459a.74.74 0 0 0 .64.052l8.374-4.826c.152-.087.111-.253-.09-.37l-9.471-5.456a.72.72 0 0 0-.623-.052"/><path fill="#E0E0E0" d="M113.607 187.581a.2.2 0 0 0 .086-.024.2.2 0 0 0 .063-.063.173.173 0 0 0-.063-.235l-7.851-4.532a.174.174 0 0 0-.241.194.17.17 0 0 0 .068.104l7.851 4.531a.15.15 0 0 0 .087.025M112.734 188.078a.173.173 0 0 0 .159-.238.2.2 0 0 0-.072-.084l-7.848-4.524a.18.18 0 0 0-.132-.018.18.18 0 0 0-.107.08.18.18 0 0 0-.015.133.18.18 0 0 0 .081.106l7.848 4.528a.15.15 0 0 0 .086.017M111.859 188.577a.174.174 0 0 0 .159-.239.17.17 0 0 0-.072-.083l-7.848-4.532a.174.174 0 0 0-.173.301l7.848 4.532q.04.02.086.021M110.989 189.079a.18.18 0 0 0 .153-.086.18.18 0 0 0-.066-.239l-7.848-4.528a.18.18 0 0 0-.137-.029.2.2 0 0 0-.066.029.2.2 0 0 0-.048.053.2.2 0 0 0-.023.068.2.2 0 0 0 .007.072.18.18 0 0 0 .094.105l7.848 4.531a.16.16 0 0 0 .086.024"/><path fill="#455A64" d="m118.771 185.033-.308-.177-3.572 2.063.304.177zM117.527 184.316l-.529-.305-3.576 2.067.53.301zM116.285 183.596l-.305-.177-3.576 2.067.305.173zM115.354 183.053l-.616-.349-3.576 2.063.616.349zM113.799 182.162l-.305-.176-3.576 2.063.305.177zM112.913 181.64l-.661-.373-3.576 2.066.661.374zM111.318 180.725l-.308-.176-3.572 2.066.304.174zM110.611 180.315l-.152-.087-3.576 2.063.152.09zM111.865 181.066l-.152-.09-3.576 2.063.152.09zM114.381 182.503l-.153-.09-3.576 2.066.153.087zM115.75 183.295l-.153-.09-3.576 2.066.153.087zM116.717 183.873l-.153-.09-3.576 2.067.153.086zM118.078 184.628l-.152-.087-3.576 2.063.152.087zM110.076 180.009l-.308-.176-3.573 2.063.305.176z"/><path fill="#FAFAFA" d="M114.891 204.401v5.244c0 .201.142.284.318.184l8.187-4.729a.69.69 0 0 0 .315-.547v-5.248c0-.201-.142-.284-.315-.183l-8.187 4.732a.68.68 0 0 0-.318.547"/><path fill="#455A64" d="m123.201 199.873-.263.152v4.767l.263-.153zM122.127 200.496l-.457.267v4.766l.457-.266zM121.048 201.116l-.263.153v4.766l.263-.152zM120.239 201.576l-.53.311v4.771l.53-.316zM118.896 202.358l-.263.153v4.767l.263-.153zM118.124 202.795l-.567.336v4.767l.567-.336zM116.746 203.597l-.264.156v4.767l.264-.153zM116.132 203.947l-.132.076v4.767l.132-.073zM117.237 203.338l-.135.08v4.766l.135-.076zM119.403 202.071l-.132.076v4.767l.132-.076zM120.592 201.39l-.135.076v4.767l.135-.077zM121.444 200.918l-.132.077v4.766l.132-.076zM122.598 200.215l-.131.076v4.767l.131-.076zM115.669 204.22l-.263.153v4.766l.263-.152z"/><path fill="#000" d="M122.568 185.128 93.548 201.9l-30.695-17.759 29.017-16.772z" opacity=".1"/><path fill="#F7921E" d="m62.055 161.428 27.839-16.1 31.498 18.226-27.835 16.1z"/><path fill="#fff" d="m62.055 161.428 27.839-16.1 31.498 18.226-27.835 16.1z" opacity=".3"/><path fill="#FAFAFA" d="m75.395 155.727 8.38 4.822c.153.087.111.253-.09.371l-9.454 5.455a.72.72 0 0 1-.64.056l-8.374-4.826c-.152-.09-.11-.252.09-.37l9.468-5.456a.7.7 0 0 1 .62-.052"/><path fill="#E0E0E0" d="M71.169 163.934a.18.18 0 0 1-.153-.087.173.173 0 0 1 .066-.235l7.848-4.532a.18.18 0 0 1 .137-.029.18.18 0 0 1 .114.082.18.18 0 0 1 .016.14.172.172 0 0 1-.094.105l-7.848 4.532a.16.16 0 0 1-.086.024M72.039 164.433a.173.173 0 0 1-.087-.322l7.852-4.532a.18.18 0 0 1 .137-.029.18.18 0 0 1 .114.082.18.18 0 0 1 .015.14.172.172 0 0 1-.094.105l-7.85 4.532a.16.16 0 0 1-.087.024M72.91 164.931a.18.18 0 0 1-.105-.036.173.173 0 0 1 .018-.286l7.837-4.531a.16.16 0 0 1 .131-.019.17.17 0 0 1 .105.081.176.176 0 0 1-.062.239l-7.848 4.531a.2.2 0 0 1-.076.021M73.783 165.43a.2.2 0 0 1-.086-.023.16.16 0 0 1-.063-.064.173.173 0 0 1 .062-.235l7.848-4.532a.173.173 0 0 1 .174.301l-7.848 4.532a.2.2 0 0 1-.087.021"/><path fill="#455A64" d="m66.004 161.387.304-.176 3.576 2.063-.308.177zM67.248 160.667l.526-.301 3.576 2.063-.53.305zM68.486 159.95l.308-.176 3.573 2.063-.305.177zM69.418 159.406l.616-.349 3.576 2.063-.616.349zM70.973 158.513l.304-.173 3.576 2.064-.304.176zM71.86 157.993l.66-.373 3.577 2.066-.662.371zM73.457 157.08l.305-.177 3.576 2.064-.308.176zM74.164 156.668l.152-.087 3.573 2.063-.152.087zM72.906 157.415l.153-.086 3.576 2.063-.153.09zM70.39 158.856l.153-.09 3.576 2.063-.152.09zM69.023 159.649l.153-.09 3.576 2.067-.153.086zM68.055 160.226l.155-.09 3.573 2.063-.152.09zM66.693 160.982l.156-.09 3.573 2.066-.153.087zM74.701 156.364l.305-.177 3.576 2.063-.308.177z"/><path fill="#F7921E" d="m93.557 200.564-31.502-18.226v-20.909l31.502 18.226z"/><path fill="#F7921E" d="m93.557 200.564 27.835-16.1v-20.909l-27.835 16.1z"/><path fill="#000" d="m93.557 200.564 27.835-16.1v-20.909l-27.835 16.1z" opacity=".1"/><path fill="#37474F" d="m108.837 173.981-2.046 1.18v-3.178l2.046-1.18z"/><path fill="#455A64" d="M106.791 171.986 75.289 153.76l2.046-1.184 31.502 18.226zM82.008 190.563a1.73 1.73 0 0 1-.73-1.385v-2.118l1.484.872h.097v2.0389999999999997a.69.69 0 0 1-.29.64.45.45 0 0 1-.232.063.7.7 0 0 1-.33-.111m.166-2.281-.107.744h-.55v.156a1.5 1.5 0 0 0 .612 1.173.33.33 0 0 0 .322.038.49.49 0 0 0 .17-.436v-1.755zm-.211-.205.44-.076-.887-.523v1.309h.346z"/><path fill="#455A64" d="M82.07 192.169a.12.12 0 0 0 .118-.118v-1.592a.119.119 0 0 0-.202-.083.12.12 0 0 0-.037.083v1.592a.12.12 0 0 0 .121.118"/><path fill="#455A64" d="M82.76 192.577a.12.12 0 0 0 .076-.021.12.12 0 0 0 .04-.143.12.12 0 0 0-.053-.057l-1.385-.8a.12.12 0 0 0-.09-.011.12.12 0 0 0-.027.219l1.384.796a.1.1 0 0 0 .055.017M86.892 195.024q.07.001.131-.031a.32.32 0 0 0 .142-.287v-.326a.12.12 0 0 0-.034-.084.12.12 0 0 0-.083-.037.1.1 0 0 0-.047.009.1.1 0 0 0-.039.027.12.12 0 0 0-.035.085v.326a.12.12 0 0 1-.021.079.11.11 0 0 1-.08-.02.7.7 0 0 1-.221-.537v-2.115a.12.12 0 0 0-.035-.085.12.12 0 0 0-.083-.036.12.12 0 0 0-.121.121v2.115a.9.9 0 0 0 .346.741.34.34 0 0 0 .18.055"/><path fill="#455A64" d="M84.992 191.348v-.069a1.01 1.01 0 0 1 .49-1.049 1.01 1.01 0 0 1 1.154.101 3.37 3.37 0 0 1 1.52 2.637v.208zm.609-.914a.89.89 0 0 0-.37.779l2.675 1.544a3.14 3.14 0 0 0-1.384-2.219 1.2 1.2 0 0 0-.592-.183.66.66 0 0 0-.33.079M91.69 197.694a.12.12 0 0 0 .117-.118v-4.05a.118.118 0 0 0-.202-.084.12.12 0 0 0-.037.084v4.05q.002.05.037.084a.12.12 0 0 0 .084.034"/><path fill="#455A64" d="M92.037 194.449q.031 0 .056-.015a.12.12 0 0 0 .055-.151l-.408-.98-.471.547a.12.12 0 0 0 0 .166.123.123 0 0 0 .17 0l.224-.259.274.63a.12.12 0 0 0 .1.062M90.587 197.077a.12.12 0 0 0 .12-.118v-4.05a.1.1 0 0 0-.009-.047.12.12 0 0 0-.065-.065.12.12 0 0 0-.164.112v4.05a.12.12 0 0 0 .118.118"/><path fill="#455A64" d="M90.936 193.82a.1.1 0 0 0 .048 0 .124.124 0 0 0 .062-.159l-.425-.976-.47.543a.122.122 0 0 0-.016.131.12.12 0 0 0 .068.06.1.1 0 0 0 .046.006.1.1 0 0 0 .044-.013.1.1 0 0 0 .037-.028l.225-.26.274.634q.015.03.044.047.03.016.063.015"/><path fill="#FAFAFA" d="M71.662 180.46v5.228c0 .2-.142.284-.318.183l-8.173-4.718a.72.72 0 0 1-.316-.551v-5.255c0-.2.142-.283.319-.18l8.184 4.729a.7.7 0 0 1 .304.564"/><path fill="#455A64" d="m63.363 175.919.263.153v4.767l-.263-.153zM64.438 176.538l.456.267v4.766l-.457-.266zM65.512 177.158l.263.153v4.766l-.263-.152zM66.322 177.618l.53.315v4.767l-.53-.315zM67.666 178.402l.263.152v4.767l-.263-.152zM68.441 178.837l.565.336v4.77l-.565-.339zM69.818 179.644l.264.152v4.767l-.264-.152zM70.432 179.993l.131.076v4.767l-.131-.076zM69.326 179.384l.132.076v4.767l-.132-.076zM67.162 178.114l.132.076v4.767l-.132-.076zM65.973 177.432l.131.076v4.767l-.131-.076zM65.117 176.961l.135.076v4.767l-.135-.076zM63.963 176.262l.135.076v4.763l-.135-.076zM70.893 180.264l.266.152v4.767l-.266-.152z"/><path fill="#000" d="m61.557 161.143 30.169 17.458 23.64-13.65L85.145 147.5z" opacity=".1"/><path fill="#F7921E" d="M60.162 151.612 85.474 137l29.529 17.049-25.312 14.612z"/><path fill="#000" d="M60.162 151.612 85.474 137l29.529 17.049-25.312 14.612z" opacity=".1"/><path fill="#FAFAFA" d="m73.506 145.912 8.37 4.822c.153.09.112.253-.09.37l-9.453 5.473a.73.73 0 0 1-.64.052l-8.374-4.839c-.153-.087-.111-.253.09-.371l9.457-5.455a.72.72 0 0 1 .64-.052"/><path fill="#E0E0E0" d="M69.279 154.118a.17.17 0 0 1-.166-.128.17.17 0 0 1 .08-.194l7.847-4.531a.175.175 0 0 1 .251.053.17.17 0 0 1-.02.202.2.2 0 0 1-.058.043l-7.848 4.531a.16.16 0 0 1-.086.024M70.15 154.617a.17.17 0 0 1-.166-.128.172.172 0 0 1 .079-.194l7.848-4.531a.18.18 0 0 1 .13-.018.18.18 0 0 1 .105.08.177.177 0 0 1-.062.239l-7.848 4.528a.17.17 0 0 1-.086.024M71.017 155.116a.17.17 0 0 1-.104-.037.172.172 0 0 1 .017-.285l7.848-4.532a.174.174 0 1 1 .173.302l-7.847 4.531a.2.2 0 0 1-.087.021M71.889 155.617a.16.16 0 0 1-.086-.024.17.17 0 0 1-.063-.063.177.177 0 0 1 .062-.238l7.848-4.528a.2.2 0 0 1 .066-.03.174.174 0 0 1 .208.151.17.17 0 0 1-.1.176l-7.849 4.532a.16.16 0 0 1-.086.024"/><path fill="#455A64" d="m64.111 151.57.305-.176 3.576 2.063-.308.176zM65.352 150.854l.533-.304 3.572 2.066-.53.302zM66.594 150.134l.308-.177 3.572 2.067-.304.173zM67.525 149.59l.617-.349 3.576 2.063-.617.35zM69.08 148.701l.305-.177 3.576 2.064-.305.176zM69.965 148.178l.661-.374 3.576 2.066-.661.374zM71.565 147.264l.304-.177 3.576 2.067-.305.173zM72.268 146.852l.155-.087 3.573 2.063-.152.09zM71.014 147.603l.152-.09 3.576 2.063-.152.09zM68.498 149.04l.156-.09 3.572 2.066-.152.087zM67.129 149.833l.156-.09 3.572 2.067-.152.086zM66.166 150.41l.152-.09 3.573 2.067-.153.087zM64.805 151.165l.152-.087 3.573 2.063-.153.087zM72.809 146.548l.304-.177 3.576 2.063-.308.177z"/><path fill="#F7921E" d="m89.69 178.407-29.528-17.049v-9.745l29.529 17.049z"/><path fill="#000" d="m89.69 178.406-29.528-17.049v-9.745l29.529 17.049z" opacity=".2"/><path fill="#F7921E" d="m89.691 178.406 25.313-14.615v-9.742l-25.313 14.612z"/><path fill="#000" d="m89.691 178.406 25.313-14.615v-9.742l-25.313 14.612z" opacity=".3"/><path fill="#37474F" d="m104.975 162.987-2.049 1.18v-3.174l2.049-1.184z"/><path fill="#455A64" d="m102.925 160.993-29.528-17.049 2.045-1.184 29.532 17.049zM78.145 168.401a1.71 1.71 0 0 1-.73-1.385v-2.115l1.484.873.097-.018v2.032a.71.71 0 0 1-.29.644.45.45 0 0 1-.233.059.65.65 0 0 1-.329-.09m.166-2.278-.111.741h-.547v.156a1.5 1.5 0 0 0 .613 1.177.328.328 0 0 0 .319.035.49.49 0 0 0 .172-.437v-1.751zm-.212-.204.44-.08-.886-.519v1.295h.346z"/><path fill="#455A64" d="M78.204 170.008a.12.12 0 0 0 .12-.117v-1.589a.12.12 0 0 0-.121-.121.12.12 0 0 0-.083.036.12.12 0 0 0-.034.085v1.589a.117.117 0 0 0 .118.117"/><path fill="#455A64" d="M78.896 170.423a.12.12 0 0 0 .104-.063.12.12 0 0 0-.045-.162l-1.385-.797a.12.12 0 0 0-.132.01.1.1 0 0 0-.03.035.115.115 0 0 0 .041.16l1.385.799q.028.018.062.018M83.042 172.867a.26.26 0 0 0 .128-.034.31.31 0 0 0 .146-.287v-.326a.122.122 0 0 0-.121-.118.12.12 0 0 0-.118.118v.326c0 .048 0 .076-.024.079-.025.004-.035 0-.076-.021a.69.69 0 0 1-.222-.536v-2.115a.117.117 0 0 0-.118-.118.12.12 0 0 0-.12.118v2.115a.9.9 0 0 0 .345.744.4.4 0 0 0 .18.055"/><path fill="#455A64" d="M81.13 169.191v-.07a1.006 1.006 0 0 1 1.64-.948 3.36 3.36 0 0 1 1.523 2.638v.207zm.605-.914a.88.88 0 0 0-.38.761l2.675 1.544a3.12 3.12 0 0 0-1.385-2.215 1.2 1.2 0 0 0-.595-.187.63.63 0 0 0-.315.097M87.823 175.537a.12.12 0 0 0 .12-.118v-4.054a.12.12 0 0 0-.203-.083.12.12 0 0 0-.035.083v4.054a.12.12 0 0 0 .118.118"/><path fill="#455A64" d="M88.176 172.289q.022.005.044 0a.11.11 0 0 0 .065-.064.11.11 0 0 0-.002-.092l-.422-.976-.475.544a.12.12 0 0 0 .083.204.12.12 0 0 0 .083-.035l.225-.259.274.633a.12.12 0 0 0 .124.045M86.723 174.923a.12.12 0 0 0 .086-.035.1.1 0 0 0 .026-.039.1.1 0 0 0 .01-.047v-4.05a.122.122 0 0 0-.121-.118.12.12 0 0 0-.118.118v4.05q0 .05.034.085a.12.12 0 0 0 .083.036"/><path fill="#455A64" d="M87.074 171.663q.022.005.045 0a.1.1 0 0 0 .04-.026.1.1 0 0 0 .025-.038.12.12 0 0 0-.002-.092l-.423-.98-.474.547a.122.122 0 0 0 .038.193.12.12 0 0 0 .09 0 .1.1 0 0 0 .038-.027l.225-.259.274.63a.12.12 0 0 0 .054.044.13.13 0 0 0 .07.008"/><path fill="#FAFAFA" d="M69.783 159.463v5.244c0 .201-.142.284-.315.184l-8.19-4.729a.69.69 0 0 1-.319-.547v-5.248c0-.201.142-.284.319-.183l8.183 4.728q.142.092.228.236a.7.7 0 0 1 .094.315"/><path fill="#455A64" d="m61.47 154.936.264.152v4.767l-.263-.152zM62.545 155.559l.457.267v4.766l-.457-.27zM63.62 156.178l.266.153v4.766l-.267-.152zM64.434 156.639l.526.312v4.767l-.526-.312zM65.773 157.421l.264.153v4.767l-.264-.153zM66.549 157.857l.564.336v4.767l-.564-.336zM67.926 158.661l.263.155v4.767l-.263-.156zM68.54 159.01l.13.076v4.767l-.13-.076zM67.434 158.401l.131.079v4.764l-.131-.076zM65.27 157.133l.131.076v4.767l-.132-.076zM64.08 156.452l.132.076v4.767l-.132-.077zM63.229 155.98l.131.076v4.767l-.132-.076zM62.074 155.278l.132.076v4.767l-.132-.076zM69 159.283l.266.153v4.766L69 164.05z"/><path fill="#F7921E" d="m100.475 202.482 21.095-12.179 15.467 8.931-21.092 12.179z"/><path fill="#fff" d="m100.475 202.482 21.095-12.178 15.467 8.931-21.092 12.178z" opacity=".3"/><path fill="#FAFAFA" d="m121.363 192.055-6.473 3.728c-.118.069-.087.197.069.287l7.311 4.22a.55.55 0 0 0 .495.038l6.474-3.728c.117-.069.086-.197-.07-.287l-7.311-4.217a.535.535 0 0 0-.495-.041"/><path fill="#E0E0E0" d="M124.634 198.4a.2.2 0 0 0 .066-.018.13.13 0 0 0 .048-.048.1.1 0 0 0 .018-.05.1.1 0 0 0-.003-.052.1.1 0 0 0-.023-.047.2.2 0 0 0-.04-.035l-6.068-3.499a.13.13 0 0 0-.094-.001.14.14 0 0 0-.071.06.14.14 0 0 0 .033.173l6.065 3.503a.2.2 0 0 0 .069.014M123.958 198.805a.13.13 0 0 0 .068-.019.13.13 0 0 0 .05-.05.14.14 0 0 0 .011-.102.14.14 0 0 0-.063-.082l-6.065-3.52a.13.13 0 0 0-.103-.012.13.13 0 0 0-.097.112.2.2 0 0 0 .003.052.2.2 0 0 0 .023.046.1.1 0 0 0 .039.034l6.068 3.503a.13.13 0 0 0 .066.038M123.287 199.172a.134.134 0 0 0 .124-.101.13.13 0 0 0-.005-.084.13.13 0 0 0-.053-.064l-6.069-3.504a.14.14 0 0 0-.101-.013.13.13 0 0 0-.082.062.14.14 0 0 0-.012.101q.014.053.06.082l6.069 3.5a.2.2 0 0 0 .069.021M122.612 199.56a.14.14 0 0 0 .067-.019.15.15 0 0 0 .065-.1.1.1 0 0 0-.003-.053.132.132 0 0 0-.063-.081l-6.068-3.5a.1.1 0 0 0-.049-.016.13.13 0 0 0-.097.026.1.1 0 0 0-.034.039.1.1 0 0 0-.017.048.14.14 0 0 0 .026.098.2.2 0 0 0 .039.034l6.069 3.503a.1.1 0 0 0 .065.021"/><path fill="#455A64" d="m128.625 196.43-.236-.138-2.762 1.599.235.135zM127.667 195.876l-.409-.235-2.766 1.595.412.236zM126.703 195.319l-.235-.135-2.763 1.595.235.135zM125.988 194.9l-.478-.27-2.766 1.596.478.27zM124.786 194.212l-.238-.139-2.763 1.596.236.139zM124.098 193.807l-.509-.287-2.763 1.595.509.291zM122.865 193.1l-.236-.135-2.766 1.596.236.135zM122.318 192.785l-.118-.07-2.762 1.596.117.066zM123.288 193.363l-.117-.069-2.763 1.596.118.069zM125.234 194.475l-.118-.069-2.762 1.596.117.069zM126.292 195.087l-.118-.069-2.766 1.595.118.07zM127.04 195.534l-.117-.07-2.763 1.596.114.069zM128.093 196.12l-.118-.07-2.766 1.596.118.069zM121.902 192.547l-.235-.135-2.763 1.595.236.135z"/><path fill="#F7921E" d="m115.945 231.959-15.47-8.932v-20.545l15.47 8.931z"/><path fill="#F7921E" d="m115.945 231.959-15.47-8.932v-20.545l15.47 8.931z"/><path fill="#F7921E" d="m115.945 231.959 21.093-12.179v-20.545l-21.093 12.178z"/><path fill="#000" d="m115.945 231.959 21.093-12.179v-20.545l-21.093 12.178z" opacity=".1"/><path fill="#37474F" d="m127.192 208.093-2.046 1.184v-3.178l2.046-1.181z"/><path fill="#455A64" d="m125.147 206.099-15.467-8.932 2.046-1.18 15.467 8.931zM135.085 217.803a.3.3 0 0 1-.152-.038.48.48 0 0 1-.191-.425v-1.3370000000000002h.063l.979-.574v1.384a1.14 1.14 0 0 1-.13.514 1.14 1.14 0 0 1-.351.397.45.45 0 0 1-.218.079m-.187-1.616v1.153a.32.32 0 0 0 .114.287.214.214 0 0 0 .212-.024.989.989 0 0 0 .401-.772v-.104h-.346l-.073-.488zm.502.384h.225v-.862l-.581.346.287.052z"/><path fill="#455A64" d="M135.261 218.797a.1.1 0 0 1-.029-.006.1.1 0 0 1-.024-.017.072.072 0 0 1-.023-.053v-1.039a.1.1 0 0 1 .001-.035.1.1 0 0 1 .015-.032.1.1 0 0 1 .028-.021.077.077 0 0 1 .068 0 .1.1 0 0 1 .028.021.1.1 0 0 1 .016.032.1.1 0 0 1 0 .035v1.039a.1.1 0 0 1-.006.03.1.1 0 0 1-.017.025.08.08 0 0 1-.057.021"/><path fill="#455A64" d="M134.812 219.06a.078.078 0 0 1-.069-.038.08.08 0 0 1-.008-.059.08.08 0 0 1 .036-.048l.91-.527a.08.08 0 0 1 .059-.008.08.08 0 0 1 .059.065.1.1 0 0 1-.001.031.1.1 0 0 1-.014.027.1.1 0 0 1-.023.02l-.911.527a.1.1 0 0 1-.038.01M132.077 220.68a.2.2 0 0 1-.087-.021.214.214 0 0 1-.093-.19v-.201q0-.032.023-.056a.08.08 0 0 1 .057-.024q.031.002.055.025a.08.08 0 0 1 .024.055v.267c0 .003.024 0 .052 0a.48.48 0 0 0 .146-.347v-1.384a.1.1 0 0 1 0-.035.1.1 0 0 1 .016-.032.07.07 0 0 1 .061-.029q.018 0 .035.007a.08.08 0 0 1 .043.054.1.1 0 0 1 0 .035v1.384a.59.59 0 0 1-.221.488.2.2 0 0 1-.111.004"/><path fill="#455A64" d="M131.254 219.461v-.135c.019-.346.12-.684.293-.985.174-.3.416-.556.707-.746a.67.67 0 0 1 .761-.068.66.66 0 0 1 .27.295.66.66 0 0 1 .053.397v.045zm1.482-1.859a.8.8 0 0 0-.392.122 2.07 2.07 0 0 0-.917 1.46l1.762-1.017a.58.58 0 0 0-.242-.509.4.4 0 0 0-.211-.056M128.926 222.438a.078.078 0 0 1-.077-.076v-2.669a.086.086 0 0 1 .016-.067.1.1 0 0 1 .028-.022.1.1 0 0 1 .034-.007q.018 0 .035.007.016.009.027.022.012.014.016.032a.1.1 0 0 1 0 .035v2.669a.1.1 0 0 1-.006.03.1.1 0 0 1-.017.025.08.08 0 0 1-.056.021"/><path fill="#455A64" d="M128.694 220.299h-.031a.1.1 0 0 1-.04-.044.1.1 0 0 1-.001-.06l.28-.644.312.346a.1.1 0 0 1 .011.054.08.08 0 0 1-.026.048.1.1 0 0 1-.051.02.1.1 0 0 1-.052-.018l-.149-.169-.18.415a.08.08 0 0 1-.073.052M129.65 222.027a.1.1 0 0 1-.031-.006.1.1 0 0 1-.043-.043.1.1 0 0 1-.006-.031v-2.669q.002-.031.025-.055a.08.08 0 0 1 .055-.024q.032 0 .056.023a.08.08 0 0 1 .024.056v2.669a.08.08 0 0 1-.024.057.08.08 0 0 1-.056.023"/><path fill="#455A64" d="M129.422 219.887h-.031a.1.1 0 0 1-.026-.016.1.1 0 0 1-.018-.026.1.1 0 0 1-.005-.031q0-.016.007-.03l.281-.644.308.346a.1.1 0 0 1 .024.055.09.09 0 0 1-.024.056.082.082 0 0 1-.111 0l-.145-.173-.184.415a.07.07 0 0 1-.03.037.07.07 0 0 1-.046.011"/><path fill="#FAFAFA" d="M117.607 223.466v5.245c0 .2.142.283.315.183l8.187-4.725a.7.7 0 0 0 .319-.551v-5.248c0-.2-.142-.283-.319-.18l-8.187 4.729a.7.7 0 0 0-.315.547"/><path fill="#455A64" d="m125.917 218.942-.263.153v4.767l.263-.153zM124.842 219.561l-.453.267v4.766l.453-.266zM123.769 220.181l-.267.152v4.767l.267-.152zM122.955 220.641l-.529.315v4.767l.529-.315zM121.617 221.425l-.263.152v4.767l.263-.152zM120.84 221.86l-.565.336v4.77l.565-.339zM119.462 222.667l-.263.152v4.767l.263-.152zM118.848 223.016l-.131.076v4.767l.131-.076zM119.954 222.407l-.132.076v4.767l.132-.076zM122.122 221.137l-.132.076v4.767l.132-.076zM123.307 220.455l-.131.076v4.767l.131-.076zM124.161 219.984l-.132.076v4.767l.132-.076zM125.315 219.282l-.131.079v4.767l.131-.076zM118.386 223.287l-.263.152v4.767l.263-.152z"/><path fill="#F7921E" d="m38.147 89.894-4.062-11.55 3.269-9.421v-5.766l-9.995 5.766v5.775l4.339 11.352a.65.65 0 0 0 .287.258z"/><path fill="#000" d="m38.147 89.894-4.062-11.55 3.269-9.421v-5.766l-9.995 5.766v5.775l4.339 11.352a.65.65 0 0 0 .287.258z" opacity=".2"/><path fill="#F7921E" d="M62 17.31a6.63 6.63 0 0 0-2.972-5.19l-2.447-1.407a6.63 6.63 0 0 0-5.943 0L13.172 32.338a6.63 6.63 0 0 0-2.971 5.191v41.15a6.66 6.66 0 0 0 2.971 5.191l2.447 1.407a6.63 6.63 0 0 0 5.944 0l12.036-6.935 4.28 11.343a.644.644 0 0 0 1.159-.109l4.546-17.009 15.404-8.915a6.6 6.6 0 0 0 2.972-5.181z"/><path fill="#000" d="M10.181 78.681a6.66 6.66 0 0 0 2.972 5.191l2.447 1.407a6.68 6.68 0 0 0 5.478.237c-1.416.535-2.486-.257-2.486-1.98V42.394a6.2 6.2 0 0 1 .871-2.972l-8.42-4.864a6.1 6.1 0 0 0-.881 2.972z" opacity=".2"/><path fill="#fff" d="M61.9 16.46c-.346-1.279-1.505-1.675-2.892-.882L21.602 37.213a5.94 5.94 0 0 0-2.11 2.239l-8.42-4.864a5.94 5.94 0 0 1 2.11-2.24l37.336-21.634a6.65 6.65 0 0 1 5.993 0l2.447 1.416a6.58 6.58 0 0 1 2.942 4.33" opacity=".3"/><path fill="#fff" d="m55.473 46.912-1.585 5.31a.99.99 0 0 1-.704.594l-3.13.753a1.32 1.32 0 0 0-.803.594 28 28 0 0 1-1.684 2.972 1.22 1.22 0 0 0-.188.832l.99 3.457a.99.99 0 0 1-.277.803L44.417 66.1c-.178.188-.386.248-.525.159-.139-.09-.06 0-.089-.07l-1.674-2.645c-.119-.188-.436-.168-.713 0-.278.169-.674.446-.991.634s-.713.396-1.06.565c-.313.15-.57.397-.733.703L36.819 70.3a.91.91 0 0 1-.723.505l-3.338.337a.53.53 0 0 1-.317-.06.3.3 0 0 1-.14-.326l1.051-4.775a.545.545 0 0 0-.337-.604 5.4 5.4 0 0 1-1.466-.842.595.595 0 0 0-.743.119l-3.408 3.12a.6.6 0 0 1-.376.178.3.3 0 0 1-.129 0 .18.18 0 0 1-.089-.099l-1.516-3.358a.86.86 0 0 1 .189-.792l3.2-3.874c.2-.238.309-.54.306-.852a15 15 0 0 1 0-2.753.456.456 0 0 0-.485-.466l-2.863-.168a.367.367 0 0 1-.386-.476l1.496-5.36a1.07 1.07 0 0 1 .713-.594l3.13-.752c.332-.092.618-.304.803-.595a27 27 0 0 1 1.684-2.972c.16-.245.227-.54.188-.832l-.99-3.457a.99.99 0 0 1 .277-.802l3.665-3.874c.228-.228.495-.267.624-.089l1.704 2.615c.119.179.436.169.713 0a15.5 15.5 0 0 1 2.07-1.198c.313-.15.57-.397.733-.704l1.803-4.854a.99.99 0 0 1 .733-.505l3.359-.287c.109-.014.22.007.317.06a.3.3 0 0 1 .148.336l-1.06 4.775a.545.545 0 0 0 .347.594c.528.204 1.02.492 1.456.852a.604.604 0 0 0 .753-.129l3.408-3.11a.48.48 0 0 1 .495-.159q.069.036.1.11l1.554 3.348a.87.87 0 0 1-.198.792l-3.19 3.873a1.38 1.38 0 0 0-.316.842q.072.711.069 1.427c0 .436 0 .882-.07 1.337a.465.465 0 0 0 .486.466l2.853.158a.6.6 0 0 1 .208.06.346.346 0 0 1 .158.426M42.91 56.659c3.418-3.615 5.043-9.074 3.626-12.214a3.36 3.36 0 0 0-2.625-2.07h-.396a5.4 5.4 0 0 0-2.368.505q-.434.186-.842.426a11.9 11.9 0 0 0-2.526 2.05 14.95 14.95 0 0 0-4.101 9.451q-.007.496.05.99c.061.603.218 1.191.465 1.744a3.36 3.36 0 0 0 3.14 2.12h1.268a9.6 9.6 0 0 0 4.31-3.002"/></svg>