<svg xmlns="http://www.w3.org/2000/svg" width="256" height="256" fill="none"><path stroke="#D5D5D5" d="M240.314 160.153c0 17.747-12.463 33.909-32.819 45.662-20.344 11.745-48.481 19.026-79.588 19.026s-59.244-7.281-79.587-19.026C27.963 194.062 15.5 177.9 15.5 160.153s12.463-33.909 32.82-45.662c20.343-11.745 48.48-19.026 79.587-19.026s59.244 7.281 79.588 19.026c20.356 11.753 32.819 27.915 32.819 45.662Z"/><path fill="#000" d="m194.136 164.737-2.495-.955.851-1.639 1.519 1.42z"/><path fill="#263238" d="M196.809 160.384s.073 1.566.084 2.088c.01.522-2.209 2.016-2.757 2.266l-.125-1.175a9.2 9.2 0 0 0-1.264 1.88c-.433.705-.997 2.047-2.172 2.945-1.749 1.336-4.448 1.984-7.194 2.036-2.747.052-4.303-.621-5.07-1.211s-1.008-1.269-.799-1.943c.209-.673 19.297-6.886 19.297-6.886"/><path fill="#37474F" d="M189.562 154.854v-.918c-.522 0-.59 1.305-1.347 2.464a23.8 23.8 0 0 1-3.942 4.725c-2.819 2.417-5.33 3.921-6.589 5.007-1.686 1.452 1.196 3.853 5.676 3.681 2.219-.084 6.187-1.107 7.309-2.36 1.123-1.253 1.849-3.232 2.752-4.14.903-.909 2.824-1.817 3.399-2.929.313-.611.177-2.058 0-3.284-.146-1.123-.152-2.846-.81-2.715l-.052.574c-.277.485-.908 1.29-2.704 1.566-.893.12-3.561.157-3.692-1.671"/><path fill="#000" d="M191.818 156.536c-.851-.084-1.77-.376-2.115-1.128a2.05 2.05 0 0 1-.61 1.734c-.815.898-5.979 7.22-5.979 7.22s4.793-5.221 5.712-6.187c1.358-1.451 1.786-1.618 3.008-1.639zM190.659 158.217c.021.056.06.104.111.135a.27.27 0 0 0 .329-.033.27.27 0 0 0 .082-.154.274.274 0 0 0-.298-.24.27.27 0 0 0-.224.292M189.327 159.611a.277.277 0 1 0 .246-.287.271.271 0 0 0-.233.184.3.3 0 0 0-.013.103M187.986 161.004a.27.27 0 0 0 .522-.047.27.27 0 0 0-.298-.24.26.26 0 0 0-.17.098.26.26 0 0 0-.054.189M186.638 162.405a.27.27 0 0 0 .1.18.28.28 0 0 0 .198.055.3.3 0 0 0 .101-.027.25.25 0 0 0 .083-.064.3.3 0 0 0 .051-.092q.016-.051.01-.104a.271.271 0 0 0-.522.052zM185.292 163.798a.278.278 0 0 0 .551.016.3.3 0 0 0-.029-.16.276.276 0 0 0-.522.144" opacity=".15"/><path fill="#263238" d="M190.951 158.295a.1.1 0 0 0 .073-.032.1.1 0 0 0 .024-.033.1.1 0 0 0 0-.08.1.1 0 0 0-.024-.033 4.53 4.53 0 0 0-3.075-1.237.1.1 0 0 0-.074.03.1.1 0 0 0-.031.074q0 .044.031.074t.074.031a4.42 4.42 0 0 1 2.908 1.174.1.1 0 0 0 .042.03.1.1 0 0 0 .052.002M189.614 159.7a.2.2 0 0 0 .068-.031.1.1 0 0 0 .031-.076.1.1 0 0 0-.031-.076 4.56 4.56 0 0 0-3.075-1.237.1.1 0 0 0-.049 0 .1.1 0 0 0-.043.021.1.1 0 0 0-.031.039.1.1 0 0 0-.01.047q0 .025.01.047a.1.1 0 0 0 .031.039q.02.015.043.021a.1.1 0 0 0 .049 0 4.38 4.38 0 0 1 2.908 1.175.14.14 0 0 0 .099.031M188.262 161.088a.1.1 0 0 0 .074-.031.11.11 0 0 0 .03-.076.11.11 0 0 0-.03-.076 4.6 4.6 0 0 0-3.076-1.237.11.11 0 0 0-.086.107.11.11 0 0 0 .086.107 4.42 4.42 0 0 1 2.908 1.175.2.2 0 0 0 .044.026.1.1 0 0 0 .05.005M186.915 162.483a.1.1 0 0 0 .073-.032.107.107 0 0 0 0-.151 4.57 4.57 0 0 0-3.075-1.238.1.1 0 0 0-.042.011.107.107 0 0 0-.062.104q0 .022.01.041a.1.1 0 0 0 .026.034q.016.014.036.02a.1.1 0 0 0 .042.005 4.44 4.44 0 0 1 2.909 1.174q.015.018.037.027.023.008.046.005M185.573 163.877a.1.1 0 0 0 .068-.026.1.1 0 0 0 .024-.035.1.1 0 0 0 0-.082.1.1 0 0 0-.024-.035 4.54 4.54 0 0 0-3.075-1.237.1.1 0 0 0-.041.008.1.1 0 0 0-.033.025.1.1 0 0 0-.025.077.11.11 0 0 0 .109.104c1.08.02 2.116.436 2.909 1.17a.1.1 0 0 0 .04.026.1.1 0 0 0 .048.005M214.561 172.632c.355 2.088.846 3.435 1.749 4.579s2.543 1.3 3.765 1.044a5.17 5.17 0 0 0 4.103-3.843c.413-1.425.162-3.07-.386-4.975z"/><path fill="#37474F" d="M219.516 156.745c.611 0 1.096 2.773 1.754 5.55.71 2.981 1.843 4.569 2.381 6.568.741 2.778.679 4.068-.157 5.879-.835 1.812-5.069 3.994-7.116 1.734-1.676-1.849-1.979-4.052-2.156-6.887a71 71 0 0 0-.658-7.195c-.355-2.088-.731-4.14-.235-4.427.078.308.162.694.235.997s.245 1.368.585 1.347a4.6 4.6 0 0 0-.079-.799.9.9 0 0 1 .089-.699c.168-.186.391-.312.637-.361a17 17 0 0 1 1.76-.454q.445-.088.898-.13a10 10 0 0 1 1.566-.1.521.521 0 0 1 .36.251q.059.154.068.319.032.295.136.574c.031.078.104.177.188.146.083-.031.089-.11.078-.183-.036-.339-.104-.579-.167-.976-.026-.183-.083-.428-.11-.611s-.02-.365-.057-.543"/><path fill="#000" d="M221.516 169.792a.21.21 0 0 1-.031.156.205.205 0 0 1-.288.058.22.22 0 0 1-.094-.131.2.2 0 0 1-.002-.08.2.2 0 0 1 .031-.075.2.2 0 0 1 .133-.085.2.2 0 0 1 .158.027.217.217 0 0 1 .093.13M221.098 167.866a.2.2 0 0 1 .002.081.2.2 0 0 1-.164.159.2.2 0 0 1-.158-.026.2.2 0 0 1-.059-.056.2.2 0 0 1-.034-.074.206.206 0 0 1 .162-.246.2.2 0 0 1 .083-.002.22.22 0 0 1 .136.088.2.2 0 0 1 .032.076M220.706 166.044a.2.2 0 0 1-.03.156.21.21 0 0 1-.291.058.22.22 0 0 1-.096-.13.2.2 0 0 1 .034-.157.22.22 0 0 1 .133-.089.22.22 0 0 1 .157.032c.046.03.08.076.093.13M220.32 164.247a.216.216 0 0 1-.171.231.22.22 0 0 1-.152-.026.22.22 0 0 1-.095-.121.2.2 0 0 1 0-.08.2.2 0 0 1 .031-.074.2.2 0 0 1 .057-.057.2.2 0 0 1 .074-.03.22.22 0 0 1 .16.026.22.22 0 0 1 .096.131M215.579 165.03a.2.2 0 0 1-.028.157.213.213 0 0 1-.291.062.2.2 0 0 1-.06-.056.206.206 0 0 1-.005-.231.2.2 0 0 1 .134-.088.207.207 0 0 1 .217.082.2.2 0 0 1 .033.074M215.971 166.843a.204.204 0 0 1-.029.155.2.2 0 0 1-.058.056.2.2 0 0 1-.075.029.2.2 0 0 1-.082.002.205.205 0 0 1-.007-.404.21.21 0 0 1 .219.086.2.2 0 0 1 .032.076M216.368 168.659a.2.2 0 0 1-.042.148.21.21 0 0 1-.281.057.22.22 0 0 1-.095-.121.21.21 0 0 1 .034-.155.214.214 0 0 1 .29-.057c.046.029.08.075.094.128M216.764 170.592a.208.208 0 0 1-.167.24.2.2 0 0 1-.081.003.214.214 0 0 1-.136-.085.2.2 0 0 1-.033-.075.2.2 0 0 1 .034-.156.21.21 0 0 1 .133-.089.22.22 0 0 1 .25.162M218.66 171.327l-3.123-13.439.773-.099z" opacity=".15"/><path fill="#263238" d="M221.333 169.938h-.037c-1.425-.157-3.785.23-4.667.768a.1.1 0 0 1-.039.015.11.11 0 0 1-.079-.017.1.1 0 0 1-.029-.03.1.1 0 0 1-.015-.038.11.11 0 0 1 .017-.079.1.1 0 0 1 .03-.029c.934-.569 3.315-.961 4.808-.799a.1.1 0 0 1 .04.012.1.1 0 0 1 .031.026.094.094 0 0 1 .023.077.1.1 0 0 1-.027.06.1.1 0 0 1-.056.034M220.941 168.006a.07.07 0 0 1-.057 0c-1.118-.376-3.655.162-4.647.778a.1.1 0 0 1-.079.013.1.1 0 0 1-.067-.044.11.11 0 0 1 .031-.146c1.044-.642 3.655-1.196 4.83-.794q.02.006.036.019a.1.1 0 0 1 .027.031q.01.02.011.04a.1.1 0 0 1-.006.041.1.1 0 0 1-.079.062M220.518 166.189h-.057c-1.112-.376-3.655.162-4.642.773a.12.12 0 0 1-.082.013.1.1 0 0 1-.069-.045.1.1 0 0 1-.015-.039.1.1 0 0 1 .002-.041.1.1 0 0 1 .018-.038.1.1 0 0 1 .031-.028c1.045-.642 3.655-1.19 4.83-.793a.1.1 0 0 1 .061.054.1.1 0 0 1 .007.081.13.13 0 0 1-.084.063M220.132 164.399a.1.1 0 0 1-.058 0c-1.117-.376-3.654.162-4.646.773a.1.1 0 0 1-.04.024q-.022.008-.045.005a.1.1 0 0 1-.044-.015.1.1 0 0 1-.033-.032.11.11 0 0 1-.011-.09.1.1 0 0 1 .024-.039.1.1 0 0 1 .039-.025c1.044-.642 3.655-1.196 4.83-.799a.1.1 0 0 1 .059.055q.01.018.01.04a.1.1 0 0 1-.007.041.1.1 0 0 1-.03.042.1.1 0 0 1-.048.02M217.083 88.39c1.195 17.282 1.775 40.808 1.775 40.808.11 1.311 1.342 6.923 1.916 13.397.606 6.835 1.008 19.621 1.008 19.621s-4.95 2.512-8.918 1.175c0 0-4.015-21.573-5.962-29.64-1.843-7.633-4.699-22.091-4.699-22.091l-2.235 14.249s.214 4.923.026 8.354c-.224 3.999-3.096 23.218-3.096 23.218s-5.383 2.997-9.487-.125c0 0-.397-26.555-.454-31.374-.115-9.456 1.243-27.76 1.749-39.963z"/><path fill="#000" d="M209.606 108.178q.486 6.218 1.097 12.421.297 3.101.621 6.202l.324 3.102.172 1.566c.052.522.151 1.044.23 1.566.652 4.104 1.639 11.555 2.36 15.664s1.477 8.181 2.302 12.259a473 473 0 0 0-1.676-12.348c-.611-4.109-1.566-11.565-2.229-15.663-.079-.522-.183-1.045-.24-1.541l-.173-1.566-.365-3.096q-.371-3.091-.757-6.182a634 634 0 0 0-1.666-12.384M189.907 106.784c-.491 3.859-.778 7.733-.992 11.612s-.423 7.769-.318 11.648c.104 3.88.073 10.39.177 14.275s.235 7.764.428 11.643q.168-5.827.178-11.643c0-3.885.026-10.39 0-14.27l-.037-2.908v-1.451l.037-1.452.141-5.816.167-5.822c.042-1.937.13-3.874.219-5.816M202.208 111.665l-1.629-9.487s-4.824-.736-7.273-2.918c0 0 1.566 2.866 6.109 4.036l1.623 8.353-1.07 14.238z"/><path fill="#FFA8A7" d="M179.512 69.256s-6.997-5.472-9.32-6.992-1.984-3.132-2.736-4.876c-.752-1.713-1.937-2.454-2.898-4.005-.96-1.55-1.2-2.558-1.963-1.749-.762.81.167 2.945.288 3.436.062.24.391.725.459 1.044.068.318-.125.522-1.112.146-1.974-.73-5.065-4.276-5.858-4.996-.794-.721-1.191.422-.997 1.315.193.893-.622 2.935-.298 4.417.35 1.567.595 2.287 2.141 3.796a47 47 0 0 0 6.291 4.965c2.611 1.567 3.571 2.61 7.894 7.628 3.258 3.78 5.697 7.472 9.038 5.603z"/><path fill="#E6E6E6" d="M196.303 53.44a7.7 7.7 0 0 0-4.433 1.379c-.898.522-1.566 1.2-3.456 3.232-1.89 2.03-9.659 11.173-9.659 11.173s.783 3.592.866 10.41c1.75.272 3.394-1.425 5.634-3.278 4.219-3.488 9.398-9.194 13.685-13.977z"/><path fill="#EBEBEB" d="M179.407 68.331c-.605.042-.866-.344-1.237-.104 0 0 .658 1.764-.292 4.97-.951 3.206-3.232 3.932-3.232 3.932l-.622-.669s-.454.523.522 1.703c.977 1.18 1.844 2.088 3.655 2.198 1.812.11 3.514-.914 3.566-1.718s.857-4.23-.261-7.722c-.663-1.963-1.462-2.647-2.099-2.59"/><path fill="#E0E0E0" d="M179.131 68.473c1.592 2.125 1.566 6.15.725 9.105 1.107-2.193 1.995-6.552-.725-9.105"/><path fill="#E0E0E0" d="M179.621 73.255c.084 2.61-.903 4.485-3.592 5.18 1.864-.967 3.086-2.663 3.592-5.18"/><path fill="#F5F5F5" d="M217.903 55.718s3.085 2.61 1.535 8.938a94 94 0 0 0-2.12 12.531c-.267 3.341-.026 14.62-.026 14.62-5.117 5.972-26.221 4.176-28.779-1.343 0 0-.047-21.37 1.953-28.914 1.133-4.271 2.683-6.746 4.323-7.942l7.194-1.613h6.527z"/><path fill="#37474F" d="M210.395 33.182s1.415.036 2.438 1.77c.522.872.934 2.485-.099 7.22a18.9 18.9 0 0 1-1.974 5.274 2.32 2.32 0 0 1-1.305 1.143l-.094-3.597v-2.506s-1.718-2.089-1.984-3.9c-.345-2.303.094-3.274.094-3.274z"/><path fill="#37474F" d="M210.885 33.276c-.454-2-3.132-4.27-8.092-4.276-4.057 0-6.349 1.514-7.634 3.947-1.284 2.433-.193 5.435-.193 5.435l12.667-1.498z"/><path fill="#FFA8A7" d="M212.718 45.88c-1.368.799-2.741-.423-2.741-.423l.11 6.975s-.073 1.436-2.282 2.81c-3.133 1.942-4.506 2.443-5.795 4.416-1.206-3.132-2.465-4.86-.523-7.388l-.078-1.247c-.743.086-1.493.101-2.24.047-1.66-.178-2.762-1.431-3.346-3.185-.862-2.61-1.368-6.788-.611-11.356.14-.88.581-1.685 1.248-2.277 3.132-2.699 6.871-1.044 9.679-.11a5.18 5.18 0 0 0 3.462-.192c-.903 1.112-1.316 2.161-1.086 7.262.195.34.451.642.757.888.632.49 1.044-.888 1.53-1.441a2.087 2.087 0 0 1 3.268.574 3.41 3.41 0 0 1-1.352 4.647"/><path fill="#37474F" d="m203.341 38.195 1.859.7a1.045 1.045 0 0 0-.606-1.311.967.967 0 0 0-1.253.61M196.439 38.654l1.89-.658a.97.97 0 0 0-.855-.688 1 1 0 0 0-.383.051 1.04 1.04 0 0 0-.652 1.295"/><path fill="#263238" d="M204.484 40.137a.8.8 0 0 1-.489.754.81.81 0 0 1-1.111-.576.806.806 0 0 1 .781-.977.806.806 0 0 1 .819.799M198.49 40.136a.812.812 0 0 1-.954.806.81.81 0 0 1 .13-1.605.74.74 0 0 1 .601.204.75.75 0 0 1 .223.595"/><path fill="#F28F8F" d="m201.43 38.481-.397 5.175-2.767-.857a12.1 12.1 0 0 1 3.164-4.318"/><path fill="#37474F" d="M208.536 40.773c-.162 3.525-1.378 3.77-2.611 3.979-1.66.271-2.48-.621-5.445-.621-1.802 0-2.365.522-3.389.955-.757.313-1.373.22-1.66-.46a11.8 11.8 0 0 1-.595-3.806c-.149 1.927-.1 3.864.146 5.78.245 1.655.851 3.075 1.77 3.848 1.269 1.076 3.921 1.51 7.236.778 3.316-.73 4.569-2.088 4.971-3.284 1.289-3.806.783-5.602 1.216-6.323.434-.72-1.639-.846-1.639-.846"/><path fill="#FFA8A7" d="M200.866 45.19c1.692-.036 2.245.267 2.329 1.431.12 1.66.036 2.219-.601 2.302-.746.105-1.295.152-1.321-.318a1.85 1.85 0 0 1 .11-1.044c.261-.319.167-.366-.574-.35-.742.016-.737.151-.523.381s.152.736.147 1.044-.079.522-1.149.392c-.935-.089-.773-.835-.757-2.26.016-.962.418-1.541 2.339-1.578"/><path fill="#B16668" d="m202.469 45.446-2.762.381q.028.278.159.523a1.38 1.38 0 0 0 1.381.71 1.457 1.457 0 0 0 1.222-1.614"/><path fill="#F28F8F" d="M202.109 45.88q.167-.015.334 0a1.444 1.444 0 0 1-1.639 1.17 1.27 1.27 0 0 1 1.305-1.17"/><path fill="#F7921E" d="M200.673 59.376s-1.201-2.329-1.196-3.237l1.488-1.51.434 3.786z"/><path fill="#000" d="M200.673 59.376s-1.201-2.329-1.196-3.237l1.488-1.51.434 3.786z" opacity=".2"/><path fill="#F7921E" d="m202.693 58.577 2.527-1.691 2.089 1.425-3.874 1.942z"/><path fill="#000" d="m202.693 58.577 2.527-1.691 2.089 1.425-3.874 1.942z" opacity=".2"/><path fill="#F7921E" d="M203.779 81.906c-1.268-7.184-1.42-18.441-1.258-20.41l-1.373-.14c-.971 2.354-3.843 13.846-3.811 19.443-.084 1.953 2.396 7.2 3.712 7.252s2.939-4.97 2.73-6.145"/><path fill="#fff" d="M203.779 81.906c-1.268-7.184-1.42-18.441-1.258-20.41l-1.373-.14c-.971 2.354-3.843 13.846-3.811 19.443-.084 1.953 2.396 7.2 3.712 7.252s2.939-4.97 2.73-6.145" opacity=".1"/><path fill="#000" d="M201.038 61.658c.042-.125.074-.204.11-.298l1.373.141v.606a2.4 2.4 0 0 1-1.483-.449" opacity=".5"/><path fill="#F7921E" d="M202.73 58.41c-.43-.069-.866-.09-1.3-.062a3.1 3.1 0 0 0-.757 1.044c.012.688.174 1.365.475 1.984a1.64 1.64 0 0 0 1.373.141 2.9 2.9 0 0 0 1.003-1.316 2.62 2.62 0 0 0-.794-1.79"/><path fill="#fff" d="M202.73 58.41c-.43-.069-.866-.09-1.3-.062a3.1 3.1 0 0 0-.757 1.044c.012.688.174 1.365.475 1.984a1.64 1.64 0 0 0 1.373.141 2.9 2.9 0 0 0 1.003-1.316 2.62 2.62 0 0 0-.794-1.79" opacity=".1"/><path fill="#E6E6E6" d="M202.704 58.379c.042 0 .104.104.146.115.961-.522 1.112-.695 1.368-.621.48.14 1.613 2.145 1.895 2.793.282.647.235.642 1.118.057a15.8 15.8 0 0 0 4.015-3.88 11.8 11.8 0 0 0 1.592-3.184s-1.008-1.394-1.305-1.926c-.569-1.045-.893-1.441-1.478-1.353v.668c-.099.898-1.044 1.75-2.287 2.836s-3.284 2.088-3.764 2.574a9.5 9.5 0 0 0-1.3 1.921M198.151 59.142c.141.365 1.3-2.496 1.874-2.438.277 0 .893.798 1.405 1.618h.392a8.7 8.7 0 0 1-.59-2.182 26.6 26.6 0 0 1 .271-3.874l-.073-.68h-.522a3.8 3.8 0 0 0-.496.67c-.564.913-2.015 2.61-2.198 3.68a9.5 9.5 0 0 0-.063 3.206"/><path fill="#F7921E" d="m173.361 68.874 22.686 6.098 8.103 25.813-.454.564-21.605-6.228-9.184-25.683z"/><path fill="#000" d="m195.598 75.531 8.098 25.819.454-.564-8.103-25.813z" opacity=".35"/><path fill="#000" d="m172.907 69.439 22.691 6.093 8.098 25.818-21.605-6.229z" opacity=".25"/><path fill="#000" d="M179.976 74.31s-.109-.387-.25-.868c-.141-.48 1.18-.323 2.939.35l4.083.898c1.76.674 3.409 1.149 3.55 1.63l.251.866z" opacity=".1"/><path fill="#37474F" d="M178.358 70.42c-.089-.297.423-.277 1.143-.14l1.305.333s-.616-1.237 2.454-.652c3.384.642 3.582 2.292 3.582 2.292q.804.276 1.634.454c1.128.277 1.264.48 1.379.783l.208.522-11.564-3.07s-.052-.214-.141-.522"/><path fill="#37474F" d="M179.694 72.022c1.076.397 1.53.595 1.739 1.332.245.84.313 1.195.313 1.195l6.041 1.864s-.418-1.237-.522-1.65.663-.48 1.718-.089l-.324-1.044-9.398-2.689z"/><path fill="#37474F" d="M179.694 74.351s-.109-.391-.25-.872c-.141-.48 1.18-.318 2.939.35l4.083.903c1.76.668 3.415 1.144 3.55 1.624l.251.867z"/><path fill="#FFA8A7" d="M224.763 64.89c-1.101-6.819-3.106-7.962-6.933-8.714-3.472 5.404-1.347 13.45-1.347 13.45l2.088 11.173c-.637.522-10.343 6.145-12.009 6.709-.605.209-1.754 0-2.365-.225-1.639-.522-2.783-.36-4.365-.271l.705 2.25c-2.516.877-5.184.825-7.831.882-.251 0-.559.042-.658.277a.52.52 0 0 0 .219.595q.294.186.522.45c.193.297.115.688.167 1.044.132.51.41.97.799 1.326.378.458.82.86 1.311 1.195 1.613.987 4.077 1.081 5.894.768a19.6 19.6 0 0 0 3.618-1.118c1.102-.422 7.832-2.495 8.647-2.782 5.946-2.157 14.128-4.809 14.577-7.644s-1.885-12.191-3.039-19.365"/><path fill="#E6E6E6" d="M217.903 55.717c4.495 1.827 5.189 2.01 6.401 5.487 1.175 3.368 3.722 18.582 3.561 22.592-2.648-2.235-6.266-2.97-9.284-2.997l-2.339-11.084c-.694-3.023-2.344-9.3 1.661-13.998"/><path fill="#EBEBEB" d="M218.237 79.353c-.261.13.141.522 0 1.044s-.768.767-.658 1.044c0 0 3.608-.412 5.994 1.4s2.271 3.727 2.271 3.727l-.522.35s.673 1.002 1.744-.1c1.07-1.1 1.566-3.19 1.341-4.938-.224-1.75 0-2.574-.835-2.851s-5.952-1.3-9.335.324"/><path fill="#E0E0E0" d="M218.169 80.554c.945-.627 4.986-1.123 7.252.642-1.044-1.342-3.796-2.35-7.179-1.175a.95.95 0 0 1 0 .397 1 1 0 0 1-.073.136"/><path fill="#E0E0E0" d="M227.269 84.73c-.605-1.733-2.804-3.414-4.965-3.832 2.605.309 4.527 1.332 4.965 3.833"/><path fill="#263238" d="m45.339 158.814-19.332-11.165L26 106.184l19.339 11.165z"/><path fill="#37474F" d="m45.339 117.35 27.624-15.95v41.465l-27.624 15.95z"/><path fill="#455A64" d="m72.963 101.4-27.624 15.949L26 106.184l27.632-15.95z"/><path fill="#263238" d="m57.276 116.84 3.757-2.172c.488-.283.884-.156.884.29a1.76 1.76 0 0 1-.884 1.302l-3.757 2.172c-.489.283-.885.156-.885-.29a1.75 1.75 0 0 1 .885-1.302M47.596 138.379l22.098-12.758.51.29-.51 15.065.51.297-22.099 12.758-.51-.297z"/><path fill="#455A64" d="m48.105 138.669 22.098-12.758v15.362l-22.098 12.758z"/><path fill="#263238" d="m56.766 136.27 3.758-2.165c.488-.283.884-.156.884.283a1.76 1.76 0 0 1-.885 1.309l-3.757 2.172c-.488.283-.884.149-.884-.29a1.77 1.77 0 0 1 .884-1.309M47.596 119.274l22.098-12.758.51.29-.51 15.064.51.298-22.099 12.758-.51-.298z"/><path fill="#455A64" d="m48.105 119.564 22.098-12.758v15.362l-22.098 12.757z"/><path fill="#263238" d="M56.766 117.166 60.524 115c.488-.283.884-.155.884.283a1.77 1.77 0 0 1-.885 1.309l-3.757 2.173c-.488.283-.884.148-.884-.29a1.78 1.78 0 0 1 .884-1.309M45.339 115.587l-19.332-11.166L26 62.949l19.339 11.166z"/><path fill="#37474F" d="m45.339 74.115 27.624-15.949v41.472L45.34 115.587z"/><path fill="#455A64" d="M72.963 58.166 45.339 74.115 26 62.949 53.632 47z"/><path fill="#263238" d="M48.105 75.707 70.203 62.95l.51.297v15.355L48.615 91.366l-.51-.297z"/><path fill="#263238" d="m57.276 73.606 3.757-2.172c.488-.283.884-.149.884.29a1.78 1.78 0 0 1-.884 1.309l-3.757 2.165c-.489.283-.885.156-.885-.283a1.76 1.76 0 0 1 .885-1.309M47.596 95.145l22.098-12.758v15.362l.51.29-22.099 12.758-.51-.29z"/><path fill="#455A64" d="m48.105 95.442 22.098-12.765v15.362l-22.098 12.758z"/><path fill="#263238" d="m56.766 93.042 3.758-2.172c.488-.283.884-.156.884.29a1.75 1.75 0 0 1-.885 1.302l-3.757 2.172c-.488.284-.884.156-.884-.29a1.75 1.75 0 0 1 .884-1.302M48.105 75.707 70.203 62.95v15.362L48.105 91.07z"/><path fill="#263238" d="m81.256 70.536-12.1-6.977v13.529l12.1 6.984z"/><path fill="#F7921E" d="M56.391 93.255v-19.14l4.741-2.746.785 1.154L75.73 64.54v17.548z"/><path fill="#000" d="M56.391 93.255v-19.14l4.741-2.746.785 1.154L75.73 64.54v17.548z" opacity=".2"/><path fill="#F7921E" d="m56.391 93.256 1.38-16.748L77.11 65.342 75.73 82.09z"/><path fill="#37474F" d="m59.15 83.3-10.542-6.085v13.529l10.543 6.085z"/><path fill="#455A64" d="m59.15 82.09 22.106-12.758v15.355L59.151 97.452z"/><path fill="#263238" d="m67.819 79.69 3.757-2.172c.488-.283.885-.149.885.29a1.78 1.78 0 0 1-.885 1.309l-3.757 2.165c-.488.283-.885.156-.885-.283a1.78 1.78 0 0 1 .885-1.309M59.15 82.09l-.735-.425v15.362l.736.424z"/><path fill="#37474F" d="M58.415 81.665 80.52 68.907l.736.425L59.151 82.09z"/><path fill="#F7921E" d="M193.543 178.918a1.03 1.03 0 0 0 .632-.859v-1.331l-73.443-41.569a3.3 3.3 0 0 0-2.992 0L60 168.496l75.832 43.736z"/><path fill="#fff" d="M193.543 178.918a1.03 1.03 0 0 0 .632-.859v-1.331l-73.443-41.569a3.3 3.3 0 0 0-2.992 0L60 168.496l75.832 43.736z" opacity=".2"/><path fill="#F7921E" d="M193.543 177.625c.826-.472.826-1.251 0-1.728l-72.811-42.017a3.3 3.3 0 0 0-2.992 0L60 167.198l75.827 43.75z"/><path fill="#000" d="M193.543 177.625c.826-.472.826-1.251 0-1.728l-72.811-42.017a3.3 3.3 0 0 0-2.992 0L60 167.198l75.827 43.75z" opacity=".5"/><path fill="#EBEBEB" d="m73.292 158.486 42.749-24.667a3.3 3.3 0 0 1 2.987 0l67.874 39.176 5.56-3.243v6.608l-.104.062c.184.406.038.849-.514 1.17l-48.956 28.245-75.832-43.75v-7.193z"/><path fill="#FAFAFA" d="M191.844 170.389c.826-.472.826-1.25 0-1.727l-72.816-42.036a3.3 3.3 0 0 0-2.987 0l-48.985 28.268 75.832 43.749z"/><path fill="#E6E6E6" d="M142.888 198.643v7.189l-75.832-43.75v-7.188z"/><path fill="#263238" d="M142.095 195.834q.263.134.552.189c.29.076.593.076.883 0a.8.8 0 0 0 .274-.104c.472-.24.396-.689-.123-.981a1.9 1.9 0 0 0-.774-.227 1.65 1.65 0 0 0-.944.156.2.2 0 0 0-.085.071c-.335.24-.264.618.217.896"/><path fill="#263238" d="M134.552 201.461c-.039.892.229 1.77.76 2.487a2.652 2.652 0 0 0 2.138 1.015 4.17 4.17 0 0 0 2.073-.618c.118-.071.254-.142.377-.227l-.845-.472c-2.039 1.138-3.658.17-3.662-2.176a8.19 8.19 0 0 1 3.695-6.405c1.105-.637 2.105-.656 2.78-.136.375.267.644.658.76 1.104.29.076.594.076.883 0a3.1 3.1 0 0 0-.623-1.312 2.69 2.69 0 0 0-2.143-1.001 4.2 4.2 0 0 0-2.086.623c-2.294 1.298-4.107 4.442-4.107 7.118"/><path fill="#F7921E" d="m136.695 194.664 57.48-28.084v.944a1.656 1.656 0 0 1-.745 1.298l-56.735 27.145z"/><path fill="#fff" d="m136.695 194.664 57.48-28.084v.944a1.656 1.656 0 0 1-.745 1.298l-56.735 27.145z" opacity=".2"/><path fill="#F7921E" d="M193.543 167.435c.826-.472.826-1.251 0-1.728l-72.811-42.036a3.3 3.3 0 0 0-2.992 0L60 151.396l75.827 43.75z"/><path fill="#000" d="M193.543 167.435c.826-.472.826-1.251 0-1.728l-72.811-42.036a3.3 3.3 0 0 0-2.992 0L60 151.396l75.827 43.75z" opacity=".2"/><path fill="#F7921E" d="M135.827 212.241 60 168.492v-17.12l75.827 43.778z"/><path fill="#455A64" d="M122.682 201.263a2.69 2.69 0 0 0 2.152-1.019c.528-.72.796-1.597.76-2.488a9.02 9.02 0 0 0-4.135-7.155 4.17 4.17 0 0 0-2.086-.623c-1.742 0-2.912 1.416-2.912 3.506a9 9 0 0 0 4.134 7.156 4.2 4.2 0 0 0 2.087.623"/><path fill="#F5F5F5" d="M124.73 197.756c0 2.36-1.657 3.304-3.7 2.138a8.17 8.17 0 0 1-3.706-6.409c0-2.36 1.657-3.304 3.701-2.138a8.19 8.19 0 0 1 3.705 6.409M111.283 189.137v1.294c0 2.596-1.817 3.644-4.064 2.36L69.152 170.81c-2.242-1.294-4.064-4.447-4.064-7.038v-1.298c0-2.591 1.822-3.639 4.064-2.36l38.067 21.977c2.247 1.302 4.064 4.455 4.064 7.046"/><path fill="#F7921E" d="M136.719 211.731v-17.015l-.892.434v17.091z"/><path fill="#fff" d="M136.719 211.731v-17.015l-.892.434v17.091z" opacity=".2"/><path fill="#F7921E" d="M60.6 147.696a1.34 1.34 0 0 0 .65 1.024l74.53 42.999a1.43 1.43 0 0 0 1.302 0l58.557-29.618v-1.317l-75.804-43.763-58.565 29.646a1.35 1.35 0 0 0-.67 1.029"/><path fill="#000" d="m195.658 160.784-58.528 29.627a1.54 1.54 0 0 1-1.313 0l-74.543-42.999a.39.39 0 0 1-.268-.375.4.4 0 0 1 .268-.375l58.585-29.623z" opacity=".5"/><path fill="#fff" d="M195.658 160.784v1.303l-58.528 29.618a1.3 1.3 0 0 1-.657.151v-1.298c.228.01.455-.04.657-.146z" opacity=".2"/><path fill="#F7921E" d="m194.766 161.317-75.827-43.749v-17.125l75.827 43.953z"/><path fill="#000" d="m194.766 161.317-75.827-43.749v-17.125l75.827 43.953z" opacity=".7"/><path fill="#EBEBEB" d="M61.425 138.483a1.8 1.8 0 0 0-.811 1.416v3.464a1.8 1.8 0 0 0 .811 1.416l74.222 42.796a1.8 1.8 0 0 0 1.629 0l49.64-26.847v-5.343l-75.813-43.764z"/><path fill="#FAFAFA" d="m111.104 111.621-49.678 26.862a.5.5 0 0 0-.345.472.5.5 0 0 0 .344.472l74.223 42.805a1.8 1.8 0 0 0 1.628 0l49.64-26.847z"/><path fill="#263238" d="M180.572 155.819c.173.091.36.155.553.188.287.079.59.079.878 0a.7.7 0 0 0 .278-.103c.448-.241.396-.69-.123-.982a1.9 1.9 0 0 0-.779-.227 1.64 1.64 0 0 0-.944.156.18.18 0 0 0-.084.071c-.336.241-.265.618.221.897"/><path fill="#E6E6E6" d="M136.45 182.416v5.348a1.7 1.7 0 0 1-.826-.184l-74.203-42.806a1.83 1.83 0 0 1-.807-1.416v-3.474a1.8 1.8 0 0 1 .623-1.255c-.246.241-.19.562.184.788l74.226 42.811c.244.137.523.203.803.188"/><path fill="#263238" d="M189.262 148.409c-.944-.571-2.152-.505-3.365.193-2.03 1.176-3.776 3.875-4.598 6.811l1.11.161c.755-2.601 2.298-5.008 4.04-6.014a2.9 2.9 0 0 1 1.416-.434c.297-.002.59.078.845.231.887.529 1.387 1.95 1.331 3.776-.104 3.545-2.134 7.552-4.527 8.935a2.66 2.66 0 0 1-1.675.416l-1.213.694.075.042c.428.256.918.389 1.416.382a3.87 3.87 0 0 0 1.95-.58c2.732-1.577 4.965-5.905 5.083-9.855.047-2.271-.633-4.008-1.888-4.758"/><path fill="#F7921E" d="M60.6 136.821a1.35 1.35 0 0 0 .65 1.029l74.53 42.999a1.44 1.44 0 0 0 1.302 0l58.557-35.787v-1.303L119.835 100 61.27 135.792a1.36 1.36 0 0 0-.67 1.029"/><path fill="#F7921E" d="m195.658 143.759-58.528 35.792a1.3 1.3 0 0 1-.657.151 1.24 1.24 0 0 1-.656-.151l-74.543-43.009a.4.4 0 0 1-.192-.608.4.4 0 0 1 .192-.147L119.86 100z"/><path fill="#000" d="m195.658 143.759-58.528 35.792a1.3 1.3 0 0 1-.657.151 1.24 1.24 0 0 1-.656-.151l-74.543-43.009a.4.4 0 0 1-.192-.608.4.4 0 0 1 .192-.147L119.86 100z" opacity=".2"/><path fill="#fff" d="M195.657 143.759v1.303l-58.528 35.787a1.3 1.3 0 0 1-.656.151v-1.298c.229.008.455-.044.656-.151z" opacity=".2"/><path fill="#F7921E" d="M195.658 160.798v-17.006l-.893.604v16.921z"/><path fill="#fff" d="M195.658 160.798v-17.006l-.893.604v16.921z" opacity=".2"/><path fill="#F5F5F5" d="m134.996 176.751 55.437-32.015a1.05 1.05 0 0 0 .472-.822v-.594a1.06 1.06 0 0 0-.472-.822l-68.474-39.539a1.04 1.04 0 0 0-.944 0l-55.46 32.006a1.07 1.07 0 0 0-.472.826v.619a1.05 1.05 0 0 0 .472.821l68.492 39.52a1.05 1.05 0 0 0 .949 0"/><path fill="#F0F0F0" d="M65.456 135.041a1 1 0 0 0-.127.127l-.057.076q-.081.12-.137.255a.8.8 0 0 0-.042.174.5.5 0 0 0 0 .118v.614a1.03 1.03 0 0 0 .472.821l68.487 39.526a.95.95 0 0 0 .472.113v-1.713a1 1 0 0 1-.472-.114l-68.496-39.52c-.236-.132-.236-.331-.1-.477"/><path fill="#E0E0E0" d="M190.551 142.569c.136.151.099.34-.118.472l-55.437 31.997a.94.94 0 0 1-.472.113v1.714a.95.95 0 0 0 .472-.113l55.437-32.016c.138-.089.253-.21.336-.353.082-.143.128-.304.136-.468v-.595a1.07 1.07 0 0 0-.354-.751"/><path fill="#F7921E" d="m123.914 107.09-11.843 6.839.854.491 11.843-6.839zM125.622 108.076l-17.766 10.257.854.495 17.766-10.256zM127.331 109.062l-15.789 9.12.855.49 15.793-9.114zM159.299 127.518l-50.758 29.311 2.194 1.269 50.764-29.311z"/><path fill="#fff" d="m159.299 127.518-50.758 29.311 2.194 1.269 50.764-29.311z" opacity=".4"/><path fill="#F7921E" d="m111.255 158.033 50.135-28.948 2.908 1.681-50.136 28.948zm-.52.062 3.304 1.916 50.759-29.307-3.304-1.916z"/><path fill="#F7921E" d="m147.721 140.517.208-.241-3.087-1.784-.208.241zM130.979 150.179l.213-.241-3.106-1.789-.208.236z"/><path fill="#F7921E" d="m114.365 159.841 50.136-28.948 2.907 1.68-50.135 28.934zm-.514.061 3.304 1.912 50.758-29.307-3.304-1.888-50.758 29.274z"/><path fill="#F7921E" d="m150.832 142.31.212-.241-3.091-1.779-.208.236zM134.09 151.977l.212-.241-3.106-1.794-.207.241z"/><path fill="#F7921E" d="m117.475 161.625 50.136-28.943 2.908 1.676-50.136 28.947zm-.514.066 3.304 1.912 50.782-29.307-3.304-1.916-50.758 29.311z"/><path fill="#F7921E" d="m153.942 144.109.213-.241-3.087-1.784-.213.241zM137.205 153.771l.208-.241-3.106-1.789-.208.241z"/><path fill="#F7921E" d="m120.586 163.423 50.136-28.948 2.907 1.68-50.136 28.943zm-.515.061 3.304 1.917 50.764-29.312-3.304-1.911z"/><path fill="#F7921E" d="m157.053 145.902.212-.241-3.087-1.779-.212.236zM140.315 155.568l.208-.24-3.106-1.794-.207.241zM126.207 166.675l16.662-9.624 3.856 2.228-16.647 9.624zm-.58 0 4.394 2.54 17.285-9.983-4.394-2.54-17.271 10.007zM178.807 138.78l-25.644 14.807 1.851 1.071 25.643-14.806zM101.923 121.915l-25.644 14.807 1.85 1.066 25.649-14.806zM117.07 135.83l-22.449 12.961 2.2 1.27 22.448-12.961z"/><path fill="#fff" d="m117.07 135.83-22.449 12.961 2.2 1.27 22.448-12.961z" opacity=".4"/><path fill="#F7921E" d="m102.735 150.349-1.784 1.029-1.751-1.015 1.779-1.029zm-1.756.802 1.359-.788-1.387-.802-1.36.788zM106.006 152.236l-1.784 1.029-1.751-1.014 1.779-1.029zm-1.756.803 1.359-.788-1.387-.803-1.36.788zM109.277 154.124l-1.784 1.029-1.752-1.015 1.78-1.029zm-1.756.803 1.359-.789-1.387-.802-1.36.788z"/><path fill="#E0E0E0" d="M120.421 138.78a.2.2 0 0 1-.062.057l-17.728 10.237a.1.1 0 0 1-.052.022.13.13 0 0 1-.106-.026.1.1 0 0 1-.035-.043.16.16 0 0 1 .08-.203l17.723-10.223a.1.1 0 0 1 .053-.022.1.1 0 0 1 .057.001.14.14 0 0 1 .052.024.2.2 0 0 1 .037.044.2.2 0 0 1 .005.068.2.2 0 0 1-.024.064M121.252 139.261a.2.2 0 0 1-.062.057l-17.728 10.233a.14.14 0 0 1-.107.022.13.13 0 0 1-.087-.065.16.16 0 0 1 0-.119.17.17 0 0 1 .081-.089l17.723-10.228a.137.137 0 0 1 .11-.02.137.137 0 0 1 .088.067.17.17 0 0 1-.018.142M123.692 140.668a.2.2 0 0 1-.062.056l-17.718 10.238a.132.132 0 0 1-.108.02.14.14 0 0 1-.05-.024.2.2 0 0 1-.036-.043.16.16 0 0 1 .076-.203l17.718-10.224a.137.137 0 0 1 .11-.02.1.1 0 0 1 .052.024.2.2 0 0 1 .037.043.2.2 0 0 1 .005.069.2.2 0 0 1-.024.064M124.522 141.15a.2.2 0 0 1-.061.056l-17.728 10.233a.132.132 0 0 1-.157 0 .2.2 0 0 1-.037-.042.166.166 0 0 1 .081-.208l17.723-10.228a.137.137 0 0 1 .11-.021.14.14 0 0 1 .088.068.17.17 0 0 1-.019.142M126.963 142.561a.2.2 0 0 1-.062.052l-17.728 10.238a.13.13 0 0 1-.052.021.13.13 0 0 1-.106-.026.1.1 0 0 1-.036-.043.16.16 0 0 1-.001-.116.16.16 0 0 1 .077-.087l17.728-10.223a.2.2 0 0 1 .053-.021.2.2 0 0 1 .056.002.2.2 0 0 1 .052.024.2.2 0 0 1 .038.042.18.18 0 0 1-.019.137M127.793 143.037a.2.2 0 0 1-.061.057l-17.728 10.238a.14.14 0 0 1-.052.02.2.2 0 0 1-.055-.002.2.2 0 0 1-.05-.024.1.1 0 0 1-.037-.042.16.16 0 0 1 .076-.202l17.737-10.233a.1.1 0 0 1 .053-.022.1.1 0 0 1 .057.001.14.14 0 0 1 .052.024.14.14 0 0 1 .037.044.2.2 0 0 1 .002.074.15.15 0 0 1-.031.067"/><path fill="#F7921E" d="m145.385 119.484-22.453 12.961 2.199 1.27 22.449-12.961z"/><path fill="#fff" d="m145.385 119.484-22.453 12.961 2.199 1.27 22.449-12.961z" opacity=".4"/><path fill="#F7921E" d="m131.05 133.998-1.784 1.034-1.756-1.015 1.784-1.029zm-1.756.803 1.36-.784-1.388-.802-1.359.788zM134.321 135.892l-1.784 1.029-1.756-1.015 1.784-1.029zm-1.756.821 1.36-.783-1.388-.803-1.359.788zM137.587 137.779l-1.779 1.029-1.756-1.014 1.784-1.029zm-1.751.822 1.36-.784-1.388-.802-1.359.788z"/><path fill="#E0E0E0" d="M148.731 122.434a.14.14 0 0 1-.061.057l-17.743 10.233a.137.137 0 0 1-.198-.042.17.17 0 0 1 .002-.119.17.17 0 0 1 .078-.089l17.729-10.233a.14.14 0 0 1 .051-.022.1.1 0 0 1 .056.002.1.1 0 0 1 .051.024.1.1 0 0 1 .035.043.133.133 0 0 1 0 .146M149.562 122.916a.2.2 0 0 1-.061.057l-17.724 10.233a.137.137 0 0 1-.11.02.139.139 0 0 1-.088-.067.168.168 0 0 1 .08-.203l17.728-10.233a.132.132 0 0 1 .157 0 .2.2 0 0 1 .037.042.15.15 0 0 1 .012.078.15.15 0 0 1-.031.073M152.002 124.322a.14.14 0 0 1-.061.057l-17.71 10.237a.1.1 0 0 1-.052.022.1.1 0 0 1-.057-.001.14.14 0 0 1-.052-.024.14.14 0 0 1-.037-.044.165.165 0 0 1 .08-.203l17.729-10.237a.132.132 0 0 1 .158.004.1.1 0 0 1 .035.043q.014.038.006.078a.14.14 0 0 1-.039.068M152.833 124.804a.15.15 0 0 1-.061.057l-17.724 10.233a.137.137 0 0 1-.198-.048.16.16 0 0 1 .002-.116.16.16 0 0 1 .078-.087l17.709-10.233a.14.14 0 0 1 .051-.022.13.13 0 0 1 .143.065.14.14 0 0 1 0 .151M155.273 126.211a.14.14 0 0 1-.061.056l-17.724 10.238a.137.137 0 0 1-.198-.047.164.164 0 0 1 .08-.203l17.729-10.238a.14.14 0 0 1 .051-.022.1.1 0 0 1 .056.002.13.13 0 0 1 .098.143.13.13 0 0 1-.031.071M156.104 126.692a.14.14 0 0 1-.062.057l-17.723 10.233a.137.137 0 0 1-.109.023.1.1 0 0 1-.051-.024.1.1 0 0 1-.038-.042.168.168 0 0 1 .08-.207l17.742-10.233a.132.132 0 0 1 .108-.021.14.14 0 0 1 .086.068q.013.038.004.078a.13.13 0 0 1-.037.068"/><path fill="#F7921E" d="m137.233 114.778-50.758 29.307 2.194 1.269 50.764-29.306z"/><path fill="#fff" d="m137.233 114.778-50.758 29.307 2.194 1.269 50.764-29.306z" opacity=".4"/><path fill="#E0E0E0" d="M115.531 131.86a.16.16 0 0 1-.057.057l-24.072 13.905a.14.14 0 0 1-.05.023.1.1 0 0 1-.056-.001.13.13 0 0 1-.087-.064.17.17 0 0 1 .075-.208l24.072-13.905a.132.132 0 0 1 .108-.021.14.14 0 0 1 .086.068q.016.037.012.076a.14.14 0 0 1-.031.07M141.264 118.494a.2.2 0 0 1-.061.056l-48.508 28.018a.137.137 0 0 1-.161-.003.14.14 0 0 1-.037-.044.16.16 0 0 1 .002-.116.16.16 0 0 1 .079-.087l48.507-28.013a.136.136 0 0 1 .198.042q.012.037.007.076a.2.2 0 0 1-.026.071M142.477 119.192a.2.2 0 0 1-.061.057l-48.531 28.018a.14.14 0 0 1-.052.022.134.134 0 0 1-.106-.026.14.14 0 0 1-.036-.043.166.166 0 0 1 .08-.203l48.527-28.018a.132.132 0 0 1 .158.004.1.1 0 0 1 .035.043.14.14 0 0 1 .012.075.14.14 0 0 1-.026.071M107.073 126.98a.2.2 0 0 1-.062.056l-24.072 13.905a.14.14 0 0 1-.052.023.139.139 0 0 1-.109-.026.14.14 0 0 1-.037-.044.167.167 0 0 1 .08-.203l24.072-13.905a.1.1 0 0 1 .051-.022.13.13 0 0 1 .143.065.16.16 0 0 1 .014.077.15.15 0 0 1-.028.074M132.815 113.608a.2.2 0 0 1-.061.057L84.2 141.683a.132.132 0 0 1-.108.02.13.13 0 0 1-.05-.024.14.14 0 0 1-.036-.043.166.166 0 0 1 .08-.203l48.541-28.018a.132.132 0 0 1 .158.004.147.147 0 0 1 .03.189M134.014 114.306a.14.14 0 0 1-.061.057l-48.526 28.013a.137.137 0 0 1-.11.021.14.14 0 0 1-.089-.068.17.17 0 0 1 .08-.203l48.532-28.018a.14.14 0 0 1 .051-.022.1.1 0 0 1 .056.002.13.13 0 0 1 .051.024.14.14 0 0 1 .035.043.14.14 0 0 1 .014.079.14.14 0 0 1-.033.072"/><path fill="#F7921E" d="M91 90.287v8.621c0 4.679 3.09 9.358 9.278 12.927 12.367 7.141 32.419 7.141 44.786 0 6.188-3.569 9.277-8.248 9.277-12.927v-8.621c0-4.68-3.089-9.359-9.277-12.931-12.367-7.141-32.419-7.141-44.786 0C94.09 80.929 91 85.608 91 90.286m60.28 0c0 3.745-2.752 7.394-7.745 10.279-5.524 3.186-12.935 4.944-20.864 4.944s-15.341-1.758-20.865-4.944c-4.992-2.885-7.744-6.534-7.744-10.28s2.752-7.394 7.744-10.275c5.524-3.19 12.935-4.948 20.865-4.948s15.34 1.758 20.864 4.948c4.993 2.88 7.745 6.534 7.745 10.276"/><path fill="#000" d="M154.309 99.713c-.491 2.961-1.798 5.194-7.057 9.301-7.434 5.806-26.263 8.18-37.194 4.571-10.304-3.404-13.59-10.058-13.59-14.617l.024-2.679c-1.59-1.899-2.414-3.935-2.414-6.003s.88-4.204 2.55-6.143l.037-3.774h-.588c-3.375 3.005-5.061 6.461-5.061 9.917v8.622c0 4.679 3.09 9.358 9.278 12.927 12.367 7.141 32.419 7.141 44.786 0 5.834-3.364 8.895-7.717 9.229-12.122" opacity=".2"/><path fill="#F7921E" d="M145.068 77.356c-12.368-7.141-32.423-7.141-44.791 0s-12.367 18.72 0 25.861 32.423 7.141 44.791 0 12.367-18.72 0-25.861m-1.533 23.21c-5.524 3.186-12.931 4.944-20.861 4.944-7.929 0-15.34-1.758-20.864-4.944-4.997-2.885-7.745-6.534-7.745-10.28s2.748-7.394 7.745-10.275c5.524-3.19 12.931-4.948 20.864-4.948s15.337 1.758 20.861 4.948c4.997 2.88 7.744 6.534 7.744 10.276s-2.747 7.394-7.744 10.279"/><path fill="#fff" d="M145.068 77.356c-12.368-7.141-32.423-7.141-44.791 0s-12.367 18.72 0 25.861 32.423 7.141 44.791 0 12.367-18.72 0-25.861m-1.533 23.21c-5.524 3.186-12.931 4.944-20.861 4.944-7.929 0-15.34-1.758-20.864-4.944-4.997-2.885-7.745-6.534-7.745-10.28s2.748-7.394 7.745-10.275c5.524-3.19 12.931-4.948 20.864-4.948s15.337 1.758 20.861 4.948c4.997 2.88 7.744 6.534 7.744 10.276s-2.747 7.394-7.744 10.279" opacity=".3"/><path fill="#F7921E" d="M151.284 90.286a8.5 8.5 0 0 1-1.239 4.313c-1.256-2.176-3.464-4.216-6.51-5.966-5.52-3.19-12.93-4.949-20.864-4.949s-15.341 1.758-20.861 4.949c-3.041 1.75-5.254 3.79-6.517 5.966a8.55 8.55 0 0 1-1.231-4.313c0-3.741 2.752-7.394 7.748-10.279 5.52-3.186 12.935-4.945 20.861-4.945s15.344 1.759 20.864 4.945c4.997 2.885 7.749 6.538 7.749 10.28"/><path fill="#000" d="M101.83 80.007c-4.996 2.884-7.748 6.538-7.748 10.28a8.55 8.55 0 0 0 1.23 4.312c1.264-2.177 3.477-4.216 6.518-5.966a31 31 0 0 1 4.024-1.927c-1.207.466-4.913 1.657-3.565-1.875 1.609-4.196 9.443-8.739 15.204-9.495-5.963.587-11.394 2.197-15.663 4.67" opacity=".1"/><path fill="#fff" d="M143.535 83.913c-5.524-3.19-12.93-4.948-20.86-4.948s-15.341 1.758-20.864 4.948c-4.124 2.378-6.711 5.279-7.492 8.324.78 3.046 3.368 5.947 7.492 8.328 5.523 3.187 12.93 4.945 20.864 4.945s15.336-1.758 20.86-4.945c4.124-2.381 6.711-5.282 7.491-8.328-.78-3.045-3.367-5.938-7.491-8.324" opacity=".4"/><path fill="#37474F" d="M144.762 109.084a4.23 4.23 0 0 1 1.895-3.311 1.35 1.35 0 0 1 1.34-.141l9.157 5.23a1.35 1.35 0 0 1 .559 1.227 4.2 4.2 0 0 1-.552 1.882 4.2 4.2 0 0 1-1.343 1.429 1.34 1.34 0 0 1-1.348.141l-9.156-5.23a1.33 1.33 0 0 1-.552-1.227"/><path fill="#263238" d="M145.333 110.315a1.327 1.327 0 0 1-.571-1.231c.01-.494.121-.98.326-1.429l11.808 6.755a3.6 3.6 0 0 1-1.062.994 1.34 1.34 0 0 1-1.348.141l-9.157-5.23z"/><path fill="#F7921E" d="m182.295 123.366-23.789-12.472h-.025c-.446-.242-1.054-.197-1.722.193a5.49 5.49 0 0 0-2.466 4.305c0 .804.286 1.348.736 1.609l22.74 14.359a4.595 4.595 0 1 0 4.526-7.994"/><path fill="#000" d="M182.387 123.418a2.23 2.23 0 0 1-2.281 3.822l-24.992-14.483a5.16 5.16 0 0 0-.825 2.611c0 .805.286 1.348.736 1.609l22.744 14.383a4.58 4.58 0 0 0 3.483.467 4.593 4.593 0 0 0 1.127-8.409z" opacity=".2"/></svg>