<svg width="256" height="256" viewBox="0 0 256 256" fill="none" xmlns="http://www.w3.org/2000/svg">
<path d="M128.002 110.5C156.094 110.5 184.157 116.346 205.543 128.012C226.936 139.681 237.499 154.9 237.5 170C237.501 185.1 226.939 200.319 205.543 211.988C184.155 223.654 156.091 229.5 128 229.5C100.348 229.5 72.7226 223.834 51.4648 212.53L50.457 211.988C29.0641 200.324 18.5006 185.105 18.5 170.004C18.4994 154.903 29.0615 139.681 50.457 128.012C71.8452 116.346 99.9104 110.5 128.002 110.5Z" stroke="#D5D5D5"/>
<path d="M191.362 172.852L166.949 158.755V98.5254L191.368 112.623L191.362 172.852Z" fill="#455A64"/>
<path d="M191.365 112.622L217.996 97.2466V157.471L191.359 172.852L191.365 112.622Z" fill="#37474F"/>
<path d="M166.949 98.5256L193.586 83.1499L217.999 97.247L191.368 112.623L166.949 98.5256Z" fill="#37474F"/>
<path d="M208.035 163.24V152.984L201.129 156.951L201.134 167.202L208.035 163.24Z" fill="#E0E0E0"/>
<path d="M205.018 154.716L204.352 155.104V165.355L205.018 164.967V154.716Z" fill="#263238"/>
<path d="M194.156 155.853V150.137L198.724 147.498V153.213L194.156 155.853Z" fill="#E0E0E0"/>
<path d="M198.724 153.213L197.582 152.558V148.159L198.724 147.498V153.213Z" fill="#263238"/>
<path d="M194.156 154.537L197.582 152.559L198.724 153.214L194.156 155.853V154.537Z" fill="#455A64"/>
<path d="M194.156 166.804V161.088L198.724 158.455V164.17L194.156 166.804Z" fill="#E0E0E0"/>
<path d="M198.724 164.17L197.582 163.509V159.11L198.724 158.455V164.17Z" fill="#263238"/>
<path d="M194.156 165.486L197.582 163.508L198.724 164.169L194.156 166.803V165.486Z" fill="#455A64"/>
<path d="M194.156 145.133V139.417L198.724 136.784V142.499L194.156 145.133Z" fill="#E0E0E0"/>
<path d="M198.724 142.499L197.582 141.838V137.439L198.724 136.784V142.499Z" fill="#263238"/>
<path d="M194.156 143.816L197.582 141.838L198.724 142.499L194.156 145.133V143.816Z" fill="#455A64"/>
<path d="M194.156 134.412V128.697L198.724 126.063V131.778L194.156 134.412Z" fill="#E0E0E0"/>
<path d="M198.724 131.778L197.582 131.117V126.719L198.724 126.063V131.778Z" fill="#263238"/>
<path d="M194.156 133.095L197.582 131.117L198.724 131.778L194.156 134.412V133.095Z" fill="#455A64"/>
<path d="M194.156 123.697V117.976L198.724 115.343V121.058L194.156 123.697Z" fill="#E0E0E0"/>
<path d="M198.724 121.058L197.582 120.397V116.004L198.724 115.343V121.058Z" fill="#263238"/>
<path d="M194.156 122.376L197.582 120.398L198.724 121.059L194.156 123.698V122.376Z" fill="#455A64"/>
<path d="M210.641 146.341V140.625L215.203 137.986V143.702L210.641 146.341Z" fill="#E0E0E0"/>
<path d="M215.203 143.702L214.066 143.046V138.647L215.203 137.986V143.702Z" fill="#263238"/>
<path d="M210.641 145.024L214.067 143.046L215.203 143.702L210.641 146.341V145.024Z" fill="#455A64"/>
<path d="M210.641 157.29V151.575L215.203 148.941V154.651L210.641 157.29Z" fill="#E0E0E0"/>
<path d="M215.203 154.651L214.066 153.996V149.597L215.203 148.941V154.651Z" fill="#263238"/>
<path d="M210.641 155.974L214.067 153.996L215.203 154.651L210.641 157.29V155.974Z" fill="#455A64"/>
<path d="M210.641 135.527V129.811L215.203 127.178V132.893L210.641 135.527Z" fill="#E0E0E0"/>
<path d="M215.203 132.893L214.066 132.232V127.833L215.203 127.178V132.893Z" fill="#263238"/>
<path d="M210.641 134.211L214.067 132.233L215.203 132.894L210.641 135.528V134.211Z" fill="#455A64"/>
<path d="M210.641 124.72V119.004L215.203 116.365V122.081L210.641 124.72Z" fill="#E0E0E0"/>
<path d="M215.203 122.081L214.066 121.425V117.026L215.203 116.365V122.081Z" fill="#263238"/>
<path d="M210.641 123.403L214.067 121.425L215.203 122.08L210.641 124.72V123.403Z" fill="#455A64"/>
<path d="M210.641 113.906V108.19L215.203 105.557V111.272L210.641 113.906Z" fill="#FAFAFA"/>
<path d="M215.203 111.272L214.066 110.611V106.212L215.203 105.557V111.272Z" fill="#263238"/>
<path d="M210.641 112.589L214.067 110.611L215.203 111.272L210.641 113.906V112.589Z" fill="#455A64"/>
<path d="M208.038 109.409L205.371 110.945V149.384L208.038 147.854V109.409Z" fill="#FAFAFA"/>
<path d="M208.037 109.409L206.906 110.059V147.22L208.037 147.854V109.409Z" fill="#263238"/>
<path d="M206.906 147.22L205.371 148.072V149.383L208.038 147.854L206.906 147.22Z" fill="#455A64"/>
<path d="M203.794 111.83L201.133 113.36V151.805L203.794 150.269V111.83Z" fill="#FAFAFA"/>
<path d="M203.794 111.83L202.668 112.48V149.636L203.794 150.269V111.83Z" fill="#263238"/>
<path d="M202.668 149.635L201.133 150.488V151.804L203.794 150.269L202.668 149.635Z" fill="#455A64"/>
<path d="M188.544 155.853V150.137L183.977 147.498V153.213L188.544 155.853Z" fill="#E0E0E0"/>
<path d="M183.977 153.213L185.119 152.558V148.159L183.977 147.498V153.213Z" fill="#37474F"/>
<path d="M188.544 154.537L185.119 152.559L183.977 153.214L188.544 155.853V154.537Z" fill="#263238"/>
<path d="M181.437 151.772V146.056L176.875 143.423V149.138L181.437 151.772Z" fill="#E0E0E0"/>
<path d="M176.875 149.138L178.011 148.477V144.079L176.875 143.423V149.138Z" fill="#37474F"/>
<path d="M181.437 150.456L178.011 148.478L176.875 149.139L181.437 151.772V150.456Z" fill="#263238"/>
<path d="M174.345 147.696V141.981L169.777 139.342V145.057L174.345 147.696Z" fill="#E0E0E0"/>
<path d="M169.777 145.057L170.919 144.401V140.003L169.777 139.342V145.057Z" fill="#37474F"/>
<path d="M174.345 146.373L170.919 144.4L169.777 145.056L174.345 147.695V146.373Z" fill="#263238"/>
<path d="M188.544 166.804V161.088L183.977 158.455V164.17L188.544 166.804Z" fill="#E0E0E0"/>
<path d="M183.977 164.17L185.119 163.509V159.11L183.977 158.455V164.17Z" fill="#37474F"/>
<path d="M188.544 165.486L185.119 163.508L183.977 164.169L188.544 166.803V165.486Z" fill="#263238"/>
<path d="M181.437 162.727V157.006L176.875 154.372V160.087L181.437 162.727Z" fill="#E0E0E0"/>
<path d="M176.875 160.087L178.011 159.426V155.033L176.875 154.372V160.087Z" fill="#37474F"/>
<path d="M181.437 161.404L178.011 159.426L176.875 160.087L181.437 162.727V161.404Z" fill="#263238"/>
<path d="M174.345 158.645V152.93L169.777 150.291V156.006L174.345 158.645Z" fill="#E0E0E0"/>
<path d="M169.777 156.006L170.919 155.351V150.952L169.777 150.291V156.006Z" fill="#37474F"/>
<path d="M174.345 157.329L170.919 155.351L169.777 156.006L174.345 158.645V157.329Z" fill="#263238"/>
<path d="M188.544 145.133V139.417L183.977 136.784V142.499L188.544 145.133Z" fill="#E0E0E0"/>
<path d="M183.977 142.499L185.119 141.838V137.439L183.977 136.784V142.499Z" fill="#37474F"/>
<path d="M188.544 143.816L185.119 141.838L183.977 142.499L188.544 145.133V143.816Z" fill="#263238"/>
<path d="M181.437 141.008V135.293L176.875 132.659V138.375L181.437 141.008Z" fill="#E0E0E0"/>
<path d="M176.875 138.375L178.011 137.713V133.315L176.875 132.659V138.375Z" fill="#37474F"/>
<path d="M181.437 139.691L178.011 137.713L176.875 138.375L181.437 141.008V139.691Z" fill="#263238"/>
<path d="M174.345 136.882V131.167L169.777 128.533V134.249L174.345 136.882Z" fill="#E0E0E0"/>
<path d="M169.777 134.249L170.919 133.587V129.189L169.777 128.533V134.249Z" fill="#37474F"/>
<path d="M174.345 135.564L170.919 133.586L169.777 134.248L174.345 136.881V135.564Z" fill="#263238"/>
<path d="M188.544 134.412V128.697L183.977 126.063V131.778L188.544 134.412Z" fill="#E0E0E0"/>
<path d="M183.977 131.778L185.119 131.117V126.719L183.977 126.063V131.778Z" fill="#37474F"/>
<path d="M188.544 133.095L185.119 131.117L183.977 131.778L188.544 134.412V133.095Z" fill="#263238"/>
<path d="M181.437 130.243V124.528L176.875 121.889V127.609L181.437 130.243Z" fill="#E0E0E0"/>
<path d="M176.875 127.609L178.011 126.948V122.55L176.875 121.889V127.609Z" fill="#37474F"/>
<path d="M181.437 128.926L178.011 126.948L176.875 127.609L181.437 130.243V128.926Z" fill="#263238"/>
<path d="M174.345 126.074V120.359L169.777 117.72V123.435L174.345 126.074Z" fill="#E0E0E0"/>
<path d="M169.777 123.435L170.919 122.779V118.381L169.777 117.72V123.435Z" fill="#37474F"/>
<path d="M174.345 124.758L170.919 122.78L169.777 123.436L174.345 126.075V124.758Z" fill="#263238"/>
<path d="M188.544 123.697V117.976L183.977 115.343V121.058L188.544 123.697Z" fill="#E0E0E0"/>
<path d="M183.977 121.058L185.119 120.397V116.004L183.977 115.343V121.058Z" fill="#37474F"/>
<path d="M188.544 122.376L185.119 120.398L183.977 121.059L188.544 123.698V122.376Z" fill="#263238"/>
<path d="M181.437 119.48V113.765L176.875 111.126V116.841L181.437 119.48Z" fill="#E0E0E0"/>
<path d="M176.875 116.841L178.011 116.186V111.787L176.875 111.126V116.841Z" fill="#37474F"/>
<path d="M181.437 118.163L178.011 116.185L176.875 116.841L181.437 119.48V118.163Z" fill="#263238"/>
<path d="M174.345 115.261V109.546L169.777 106.912V112.627L174.345 115.261Z" fill="#E0E0E0"/>
<path d="M169.777 112.627L170.919 111.966V107.568L169.777 106.912V112.627Z" fill="#37474F"/>
<path d="M174.345 113.944L170.919 111.966L169.777 112.627L174.345 115.261V113.944Z" fill="#263238"/>
<path d="M213.566 97.2455L193.589 85.7109L171.395 98.524L191.371 110.059L213.566 97.2455Z" fill="#F0F0F0"/>
<path d="M193.589 85.7109V88.2736L173.613 99.8081L171.395 98.524L193.589 85.7109Z" fill="#263238"/>
<path d="M193.586 85.7109L213.562 97.2455L211.338 98.524L193.586 88.2736V85.7109Z" fill="#455A64"/>
<path d="M64.6367 172.852L89.0498 158.755V98.5254L64.6367 112.623V172.852Z" fill="#37474F"/>
<path d="M64.6369 112.622L38 97.2466V157.471L64.6369 172.852V112.622Z" fill="#455A64"/>
<path d="M89.0499 98.5256L62.4185 83.1499L38 97.247L64.6369 112.623L89.0499 98.5256Z" fill="#37474F"/>
<path d="M47.9727 163.24V152.984L54.8737 156.951V167.202L47.9727 163.24Z" fill="#E0E0E0"/>
<path d="M50.9844 154.716L51.6564 155.104V165.355L50.9844 164.967V154.716Z" fill="#263238"/>
<path d="M61.8452 155.853V150.137L57.2773 147.498V153.213L61.8452 155.853Z" fill="#E0E0E0"/>
<path d="M57.2773 153.213L58.4193 152.558V148.159L57.2773 147.498V153.213Z" fill="#263238"/>
<path d="M61.8452 154.537L58.4193 152.559L57.2773 153.214L61.8452 155.853V154.537Z" fill="#37474F"/>
<path d="M61.8452 166.804V161.088L57.2773 158.455V164.17L61.8452 166.804Z" fill="#E0E0E0"/>
<path d="M57.2773 164.17L58.4193 163.509V159.11L57.2773 158.455V164.17Z" fill="#263238"/>
<path d="M61.8452 165.486L58.4193 163.508L57.2773 164.169L61.8452 166.803V165.486Z" fill="#37474F"/>
<path d="M61.8452 145.133V139.417L57.2773 136.784V142.499L61.8452 145.133Z" fill="#E0E0E0"/>
<path d="M57.2773 142.499L58.4193 141.838V137.439L57.2773 136.784V142.499Z" fill="#263238"/>
<path d="M61.8452 143.816L58.4193 141.838L57.2773 142.499L61.8452 145.133V143.816Z" fill="#37474F"/>
<path d="M61.8452 134.412V128.697L57.2773 126.063V131.778L61.8452 134.412Z" fill="#E0E0E0"/>
<path d="M57.2773 131.778L58.4193 131.117V126.719L57.2773 126.063V131.778Z" fill="#263238"/>
<path d="M61.8452 133.095L58.4193 131.117L57.2773 131.778L61.8452 134.412V133.095Z" fill="#37474F"/>
<path d="M61.8452 123.697V117.976L57.2773 115.343V121.058L61.8452 123.697Z" fill="#E0E0E0"/>
<path d="M57.2773 121.058L58.4193 120.397V116.004L57.2773 115.343V121.058Z" fill="#263238"/>
<path d="M61.8452 122.376L58.4193 120.398L57.2773 121.059L61.8452 123.698V122.376Z" fill="#37474F"/>
<path d="M45.3648 146.341V140.625L40.7969 137.986V143.702L45.3648 146.341Z" fill="#E0E0E0"/>
<path d="M40.7969 143.702L41.9388 143.046V138.647L40.7969 137.986V143.702Z" fill="#263238"/>
<path d="M45.3648 145.024L41.9388 143.046L40.7969 143.702L45.3648 146.341V145.024Z" fill="#37474F"/>
<path d="M45.3648 157.29V151.575L40.7969 148.941V154.651L45.3648 157.29Z" fill="#E0E0E0"/>
<path d="M40.7969 154.651L41.9388 153.996V149.597L40.7969 148.941V154.651Z" fill="#263238"/>
<path d="M45.3648 155.974L41.9388 153.996L40.7969 154.651L45.3648 157.29V155.974Z" fill="#37474F"/>
<path d="M45.3648 135.527V129.811L40.7969 127.178V132.893L45.3648 135.527Z" fill="#E0E0E0"/>
<path d="M40.7969 132.893L41.9388 132.232V127.833L40.7969 127.178V132.893Z" fill="#263238"/>
<path d="M45.3648 134.211L41.9388 132.233L40.7969 132.894L45.3648 135.528V134.211Z" fill="#37474F"/>
<path d="M45.3648 124.72V119.004L40.7969 116.365V122.081L45.3648 124.72Z" fill="#E0E0E0"/>
<path d="M40.7969 122.081L41.9388 121.425V117.026L40.7969 116.365V122.081Z" fill="#263238"/>
<path d="M45.3648 123.403L41.9388 121.425L40.7969 122.08L45.3648 124.72V123.403Z" fill="#37474F"/>
<path d="M45.3648 113.906V108.19L40.7969 105.557V111.272L45.3648 113.906Z" fill="#FAFAFA"/>
<path d="M40.7969 111.272L41.9388 110.611V106.212L40.7969 105.557V111.272Z" fill="#263238"/>
<path d="M45.3648 112.589L41.9388 110.611L40.7969 111.272L45.3648 113.906V112.589Z" fill="#37474F"/>
<path d="M47.9727 109.409L50.6336 110.945V149.384L47.9727 147.854V109.409Z" fill="#FAFAFA"/>
<path d="M47.9727 109.409L49.0982 110.059V147.22L47.9727 147.854V109.409Z" fill="#263238"/>
<path d="M49.0982 147.22L50.6336 148.072V149.383L47.9727 147.854L49.0982 147.22Z" fill="#37474F"/>
<path d="M52.207 111.83L54.8735 113.36V151.805L52.207 150.269V111.83Z" fill="#FAFAFA"/>
<path d="M52.207 111.83L53.3326 112.48V149.636L52.207 150.269V111.83Z" fill="#263238"/>
<path d="M53.3326 149.635L54.8735 150.488V151.804L52.207 150.269L53.3326 149.635Z" fill="#37474F"/>
<path d="M67.4609 155.853V150.137L72.0234 147.498V153.213L67.4609 155.853Z" fill="#E0E0E0"/>
<path d="M72.0248 153.213L70.8828 152.558L70.8883 148.159L72.0248 147.498V153.213Z" fill="#455A64"/>
<path d="M67.4609 154.537L70.8814 152.559L72.0234 153.214L67.4609 155.853V154.537Z" fill="#263238"/>
<path d="M74.5586 151.772V146.056L79.1265 143.423V149.138L74.5586 151.772Z" fill="#E0E0E0"/>
<path d="M79.1303 149.138L77.9883 148.477V144.079L79.1303 143.423V149.138Z" fill="#455A64"/>
<path d="M74.5586 150.456L77.9845 148.478L79.1265 149.139L74.5586 151.772V150.456Z" fill="#263238"/>
<path d="M81.6562 147.696V141.981L86.2241 139.342V145.057L81.6562 147.696Z" fill="#E0E0E0"/>
<path d="M86.224 145.057L85.082 144.401V140.003L86.224 139.342V145.057Z" fill="#455A64"/>
<path d="M81.6562 146.373L85.0822 144.4L86.2241 145.056L81.6562 147.695V146.373Z" fill="#263238"/>
<path d="M67.4609 166.804V161.088L72.0234 158.455V164.17L67.4609 166.804Z" fill="#E0E0E0"/>
<path d="M72.0248 164.17L70.8828 163.509L70.8883 159.11L72.0248 158.455V164.17Z" fill="#455A64"/>
<path d="M67.4609 165.486L70.8814 163.508L72.0234 164.169L67.4609 166.803V165.486Z" fill="#263238"/>
<path d="M74.5586 162.727V157.006L79.1265 154.372V160.087L74.5586 162.727Z" fill="#E0E0E0"/>
<path d="M79.1303 160.087L77.9883 159.426V155.033L79.1303 154.372V160.087Z" fill="#455A64"/>
<path d="M74.5586 161.404L77.9845 159.426L79.1265 160.087L74.5586 162.727V161.404Z" fill="#263238"/>
<path d="M81.6562 158.645V152.93L86.2241 150.291V156.006L81.6562 158.645Z" fill="#E0E0E0"/>
<path d="M86.224 156.006L85.082 155.351V150.952L86.224 150.291V156.006Z" fill="#455A64"/>
<path d="M81.6562 157.329L85.0822 155.351L86.2241 156.006L81.6562 158.645V157.329Z" fill="#263238"/>
<path d="M67.4609 145.133V139.417L72.0234 136.784V142.499L67.4609 145.133Z" fill="#E0E0E0"/>
<path d="M72.0248 142.499L70.8828 141.838L70.8883 137.439L72.0248 136.784V142.499Z" fill="#455A64"/>
<path d="M67.4609 143.816L70.8814 141.838L72.0234 142.499L67.4609 145.133V143.816Z" fill="#263238"/>
<path d="M74.5586 141.008V135.293L79.1265 132.659V138.375L74.5586 141.008Z" fill="#E0E0E0"/>
<path d="M79.1303 138.375L77.9883 137.713V133.315L79.1303 132.659V138.375Z" fill="#455A64"/>
<path d="M74.5586 139.691L77.9845 137.713L79.1265 138.375L74.5586 141.008V139.691Z" fill="#263238"/>
<path d="M81.6562 136.882V131.167L86.2241 128.533V134.249L81.6562 136.882Z" fill="#E0E0E0"/>
<path d="M86.224 134.249L85.082 133.587V129.189L86.224 128.533V134.249Z" fill="#455A64"/>
<path d="M81.6562 135.564L85.0822 133.586L86.2241 134.248L81.6562 136.881V135.564Z" fill="#263238"/>
<path d="M67.4609 134.412V128.697L72.0234 126.063V131.778L67.4609 134.412Z" fill="#E0E0E0"/>
<path d="M72.0248 131.778L70.8828 131.117L70.8883 126.719L72.0248 126.063V131.778Z" fill="#455A64"/>
<path d="M67.4609 133.095L70.8814 131.117L72.0234 131.778L67.4609 134.412V133.095Z" fill="#263238"/>
<path d="M74.5586 130.243V124.528L79.1265 121.889V127.609L74.5586 130.243Z" fill="#E0E0E0"/>
<path d="M79.1303 127.609L77.9883 126.948V122.55L79.1303 121.889V127.609Z" fill="#455A64"/>
<path d="M74.5586 128.926L77.9845 126.948L79.1265 127.609L74.5586 130.243V128.926Z" fill="#263238"/>
<path d="M81.6562 126.074V120.359L86.2241 117.72V123.435L81.6562 126.074Z" fill="#E0E0E0"/>
<path d="M86.224 123.435L85.082 122.779V118.381L86.224 117.72V123.435Z" fill="#455A64"/>
<path d="M81.6562 124.758L85.0822 122.78L86.2241 123.436L81.6562 126.075V124.758Z" fill="#263238"/>
<path d="M67.4609 123.697V117.976L72.0234 115.343V121.058L67.4609 123.697Z" fill="#E0E0E0"/>
<path d="M72.0248 121.058L70.8828 120.397L70.8883 116.004L72.0248 115.343V121.058Z" fill="#455A64"/>
<path d="M67.4609 122.376L70.8814 120.398L72.0234 121.059L67.4609 123.698V122.376Z" fill="#263238"/>
<path d="M74.5586 119.48V113.765L79.1265 111.126V116.841L74.5586 119.48Z" fill="#E0E0E0"/>
<path d="M79.1303 116.841L77.9883 116.186V111.787L79.1303 111.126V116.841Z" fill="#455A64"/>
<path d="M74.5586 118.163L77.9845 116.185L79.1265 116.841L74.5586 119.48V118.163Z" fill="#263238"/>
<path d="M81.6562 115.261V109.546L86.2241 106.912V112.627L81.6562 115.261Z" fill="#E0E0E0"/>
<path d="M86.224 112.627L85.082 111.966V107.568L86.224 106.912V112.627Z" fill="#455A64"/>
<path d="M81.6562 113.944L85.0822 111.966L86.2241 112.627L81.6562 115.261V113.944Z" fill="#263238"/>
<path d="M42.4414 97.2455L62.4177 85.7109L84.6069 98.524L64.6361 110.059L42.4414 97.2455Z" fill="#F0F0F0"/>
<path d="M62.418 85.7109V88.2736L82.3888 99.8081L84.6072 98.524L62.418 85.7109Z" fill="#455A64"/>
<path d="M62.4177 85.7109L42.4414 97.2455L44.6598 98.524L62.4177 88.2736V85.7109Z" fill="#263238"/>
<path d="M129.291 209.534L182.411 178.865C182.768 178.675 183.066 178.392 183.275 178.046C183.483 177.7 183.593 177.304 183.593 176.9C183.593 176.496 183.483 176.1 183.275 175.754C183.066 175.408 182.768 175.125 182.411 174.936L129.285 144.266C128.918 144.081 128.513 143.984 128.102 143.984C127.691 143.984 127.286 144.081 126.919 144.266L73.7984 174.914C73.4418 175.103 73.1434 175.386 72.9352 175.732C72.7271 176.078 72.6172 176.475 72.6172 176.878C72.6172 177.282 72.7271 177.678 72.9352 178.024C73.1434 178.371 73.4418 178.653 73.7984 178.843L126.925 209.512C127.29 209.701 127.694 209.802 128.105 209.806C128.516 209.81 128.922 209.716 129.291 209.534Z" fill="#F7921E"/>
<path d="M129.291 209.534L182.411 178.865C182.768 178.675 183.066 178.392 183.275 178.046C183.483 177.7 183.593 177.304 183.593 176.9C183.593 176.496 183.483 176.1 183.275 175.754C183.066 175.408 182.768 175.125 182.411 174.936L129.285 144.266C128.918 144.081 128.513 143.984 128.102 143.984C127.691 143.984 127.286 144.081 126.919 144.266L73.7984 174.914C73.4418 175.103 73.1434 175.386 72.9352 175.732C72.7271 176.078 72.6172 176.475 72.6172 176.878C72.6172 177.282 72.7271 177.678 72.9352 178.024C73.1434 178.371 73.4418 178.653 73.7984 178.843L126.925 209.512C127.29 209.701 127.694 209.802 128.105 209.806C128.516 209.81 128.922 209.716 129.291 209.534Z" fill="#F7921E"/>
<path d="M129.291 209.534L182.411 178.865C182.768 178.675 183.066 178.392 183.275 178.046C183.483 177.7 183.593 177.304 183.593 176.9C183.593 176.496 183.483 176.1 183.275 175.754C183.066 175.408 182.768 175.125 182.411 174.936L129.285 144.266C128.918 144.081 128.513 143.984 128.102 143.984C127.691 143.984 127.286 144.081 126.919 144.266L73.7984 174.914C73.4418 175.103 73.1434 175.386 72.9352 175.732C72.7271 176.078 72.6172 176.475 72.6172 176.878C72.6172 177.282 72.7271 177.678 72.9352 178.024C73.1434 178.371 73.4418 178.653 73.7984 178.843L126.925 209.512C127.29 209.701 127.694 209.802 128.105 209.806C128.516 209.81 128.922 209.716 129.291 209.534Z" fill="#F7921E"/>
<path opacity="0.2" d="M129.291 209.534L182.411 178.865C182.768 178.675 183.066 178.392 183.275 178.046C183.483 177.7 183.593 177.304 183.593 176.9C183.593 176.496 183.483 176.1 183.275 175.754C183.066 175.408 182.768 175.125 182.411 174.936L129.285 144.266C128.918 144.081 128.513 143.984 128.102 143.984C127.691 143.984 127.286 144.081 126.919 144.266L73.7984 174.914C73.4418 175.103 73.1434 175.386 72.9352 175.732C72.7271 176.078 72.6172 176.475 72.6172 176.878C72.6172 177.282 72.7271 177.678 72.9352 178.024C73.1434 178.371 73.4418 178.653 73.7984 178.843L126.925 209.512C127.29 209.701 127.694 209.802 128.105 209.806C128.516 209.81 128.922 209.716 129.291 209.534Z" fill="black"/>
<path d="M73.802 176.302L126.928 206.971C127.295 207.157 127.7 207.254 128.111 207.254C128.522 207.254 128.927 207.157 129.294 206.971L182.415 176.302C182.558 176.254 182.682 176.162 182.769 176.039C182.857 175.917 182.904 175.77 182.904 175.619C182.904 175.468 182.857 175.321 182.769 175.199C182.682 175.076 182.558 174.984 182.415 174.936L129.289 144.266C128.922 144.081 128.517 143.984 128.106 143.984C127.695 143.984 127.289 144.081 126.923 144.266L73.802 174.914C73.6509 174.957 73.5179 175.048 73.4233 175.173C73.3286 175.298 73.2773 175.451 73.2773 175.608C73.2773 175.765 73.3286 175.918 73.4233 176.043C73.5179 176.168 73.6509 176.259 73.802 176.302Z" fill="#F7921E"/>
<path d="M136.984 196.12L174.713 174.335V83.354L136.984 105.139V196.12Z" fill="#37474F"/>
<path d="M128.108 202.53V110.264L81.5 83.354V175.619L128.108 202.53Z" fill="#455A64"/>
<path d="M128.109 164.086L81.5008 137.175V134.613L77.0586 137.175L128.109 166.648V164.086Z" fill="#F7921E"/>
<path opacity="0.5" d="M128.109 164.086L81.5008 137.175V134.613L77.0586 137.175L128.109 166.648V164.086Z" fill="white"/>
<path d="M77.0586 137.174L128.109 166.647V169.21L77.0586 139.737V137.174Z" fill="#F7921E"/>
<path d="M128.109 164.085L136.988 158.959L139.207 160.244L128.109 166.647V164.085Z" fill="#F7921E"/>
<path opacity="0.5" d="M128.109 164.085L136.988 158.959L139.207 160.244L128.109 166.647V164.085Z" fill="white"/>
<path d="M128.109 169.21L139.207 162.806V160.244L128.109 166.647V169.21Z" fill="#F7921E"/>
<path opacity="0.2" d="M128.109 169.21L139.207 162.806V160.244L128.109 166.647V169.21Z" fill="black"/>
<path d="M128.109 110.265L136.988 105.14V158.96L128.109 164.085V110.265Z" fill="#263238"/>
<path d="M128.109 169.21L136.988 164.085V197.404L128.109 202.53V169.21Z" fill="#263238"/>
<path d="M123.668 156.397V143.584L114.789 138.458V151.272L123.668 156.397Z" fill="#F7921E"/>
<path opacity="0.5" d="M123.668 156.397V143.584L114.789 138.458V151.272L123.668 156.397Z" fill="white"/>
<path d="M114.789 151.272L117.007 149.993V139.737L114.789 138.458V151.272Z" fill="#263238"/>
<path d="M123.668 153.835L117.007 149.994L114.789 151.272L123.668 156.397V153.835Z" fill="#263238"/>
<path d="M110.347 148.71V135.897L99.25 129.487V142.3L110.347 148.71Z" fill="#F7921E"/>
<path opacity="0.5" d="M110.347 148.71V135.897L99.25 129.487V142.3L110.347 148.71Z" fill="white"/>
<path d="M101.468 141.022L101.474 130.771L99.25 129.487V142.3L101.468 141.022Z" fill="#263238"/>
<path d="M110.347 146.146V148.708L99.25 142.299L101.468 141.021L110.347 146.146Z" fill="#263238"/>
<path d="M142.531 183.947V171.134L153.629 164.73V177.544L142.531 183.947Z" fill="#F7921E"/>
<path d="M151.41 176.26V166.009L153.629 164.73V177.544L151.41 176.26Z" fill="#263238"/>
<path d="M142.531 181.384V183.946L153.629 177.542L151.41 176.258L142.531 181.384Z" fill="#263238"/>
<path d="M142.531 162.592V149.779L153.629 143.37V156.183L142.531 162.592Z" fill="#F7921E"/>
<path d="M151.41 154.904V144.648L153.629 143.37V156.183L151.41 154.904Z" fill="#263238"/>
<path d="M142.531 160.031V162.593L153.629 156.184L151.41 154.905L142.531 160.031Z" fill="#263238"/>
<path d="M142.531 141.235V128.421L153.629 122.012V134.825L142.531 141.235Z" fill="#F7921E"/>
<path d="M151.41 133.547V123.296L153.629 122.012V134.825L151.41 133.547Z" fill="#263238"/>
<path d="M142.531 138.672V141.235L153.629 134.825L151.41 133.547L142.531 138.672Z" fill="#263238"/>
<path d="M142.531 119.875V107.062L153.629 100.653V113.471L142.531 119.875Z" fill="#F7921E"/>
<path d="M151.41 112.187V101.937L153.629 100.653V113.471L151.41 112.187Z" fill="#263238"/>
<path d="M142.531 117.314V119.876L153.629 113.473L151.41 112.188L142.531 117.314Z" fill="#263238"/>
<path d="M158.309 174.838V162.025L169.411 155.622L169.406 168.435L158.309 174.838Z" fill="#F7921E"/>
<path d="M167.191 167.151V156.9L169.415 155.622L169.41 168.435L167.191 167.151Z" fill="#263238"/>
<path d="M158.309 172.282V174.839L169.406 168.435L167.188 167.151L158.309 172.282Z" fill="#263238"/>
<path d="M158.309 153.485V140.666L169.411 134.262L169.406 147.075L158.309 153.485Z" fill="#F7921E"/>
<path d="M167.191 145.797V135.541L169.415 134.262L169.41 147.075L167.191 145.797Z" fill="#263238"/>
<path d="M158.309 150.922V153.485L169.406 147.075L167.188 145.797L158.309 150.922Z" fill="#263238"/>
<path d="M158.309 132.125V119.312L169.411 112.903L169.406 125.721L158.309 132.125Z" fill="#F7921E"/>
<path d="M167.191 124.437V114.187L169.415 112.903L169.41 125.721L167.191 124.437Z" fill="#263238"/>
<path d="M158.309 129.563V132.126L169.406 125.722L167.188 124.438L158.309 129.563Z" fill="#263238"/>
<path d="M158.309 110.768V97.9546L169.411 91.5508L169.406 104.364L158.309 110.768Z" fill="#F7921E"/>
<path d="M167.191 103.08V92.8294L169.415 91.5508L169.41 104.364L167.191 103.08Z" fill="#263238"/>
<path d="M158.309 108.205V110.767L169.406 104.364L167.188 103.08L158.309 108.205Z" fill="#263238"/>
<path d="M94.8126 139.737V126.924L85.9336 121.798V134.611L94.8126 139.737Z" fill="#F7921E"/>
<path opacity="0.5" d="M94.8126 139.737V126.924L85.9336 121.798V134.611L94.8126 139.737Z" fill="white"/>
<path d="M88.152 133.333L85.9336 134.611V121.798L88.152 123.082V133.333Z" fill="#263238"/>
<path d="M94.8126 137.175L88.152 133.334L85.9336 134.613L94.8126 139.738V137.175Z" fill="#263238"/>
<path d="M99.25 164.211C99.25 160.594 101.736 159.091 104.801 160.862C107.867 162.632 110.347 166.998 110.347 170.62V192.28L99.25 185.87V164.211Z" fill="#263238"/>
<path d="M110.35 170.62C110.35 166.997 107.87 162.626 104.804 160.861C104.024 160.367 103.116 160.11 102.193 160.124C101.686 160.97 101.437 161.946 101.477 162.932V184.591L110.35 189.717V170.62Z" fill="#455A64"/>
<path d="M110.35 170.62C110.35 166.997 107.87 162.626 104.804 160.861C104.024 160.367 103.116 160.11 102.193 160.124C101.686 160.97 101.437 161.946 101.477 162.932V184.591L110.35 189.717V170.62Z" fill="#F7921E"/>
<path opacity="0.5" d="M110.35 170.62C110.35 166.997 107.87 162.626 104.804 160.861C104.024 160.367 103.116 160.11 102.193 160.124C101.686 160.97 101.437 161.946 101.477 162.932V184.591L110.35 189.717V170.62Z" fill="white"/>
<path d="M106.406 162.069C106.065 161.747 105.7 161.453 105.313 161.189V166.948L101.488 164.73V166.057L105.313 168.281V184.886L106.406 185.515V168.904L110.351 171.183V170.636C110.351 170.374 110.351 170.09 110.313 169.844L106.406 167.593V162.069Z" fill="#455A64"/>
<path d="M128.109 110.265V102.577L79.2773 74.3882V82.076L128.109 110.265Z" fill="#F7921E"/>
<path opacity="0.5" d="M128.109 110.265V102.577L79.2773 74.3882V82.076L128.109 110.265Z" fill="white"/>
<path d="M128.109 110.265V102.577L176.941 74.3882V82.076L128.109 110.265Z" fill="#F7921E"/>
<path opacity="0.2" d="M128.109 110.265V102.577L176.941 74.3882V82.076L128.109 110.265Z" fill="black"/>
<path d="M85.9336 96.5058C85.9336 93.4897 87.9225 92.1893 90.3703 93.6044C92.8182 95.0196 94.8126 98.6149 94.8126 101.631V121.799L85.9336 116.673V96.5058Z" fill="#263238"/>
<path d="M90.3688 93.5996C89.8408 93.2831 89.2454 93.0959 88.6313 93.0532C88.2933 93.731 88.1281 94.4818 88.1504 95.2388V115.406L94.811 119.231V101.626C94.811 98.6101 92.8221 95.0148 90.3688 93.5996Z" fill="#F7921E"/>
<path opacity="0.5" d="M90.3688 93.5996C89.8408 93.2831 89.2454 93.0959 88.6313 93.0532C88.2933 93.731 88.1281 94.4818 88.1504 95.2388V115.406L94.811 119.231V101.626C94.811 98.6101 92.8221 95.0148 90.3688 93.5996Z" fill="white"/>
<path d="M85.9336 116.673L88.152 115.389L94.8126 119.23V121.798L85.9336 116.673Z" fill="#263238"/>
<path d="M99.25 105.287C99.25 101.665 101.736 100.167 104.801 101.938C107.867 103.708 110.347 108.074 110.347 111.696V130.771L99.25 124.362V105.287Z" fill="#263238"/>
<path d="M110.35 111.696C110.35 108.073 107.87 103.702 104.804 101.937C104.024 101.442 103.116 101.186 102.193 101.199C101.686 102.046 101.437 103.022 101.477 104.008V123.077L110.35 128.208V111.696Z" fill="#F7921E"/>
<path opacity="0.5" d="M110.35 111.696C110.35 108.073 107.87 103.702 104.804 101.937C104.024 101.442 103.116 101.186 102.193 101.199C101.686 102.046 101.437 103.022 101.477 104.008V123.077L110.35 128.208V111.696Z" fill="white"/>
<path d="M101.474 123.078L99.25 124.362L110.347 130.771V128.208L101.474 123.078Z" fill="#263238"/>
<path d="M114.789 113.171C114.789 110.155 116.772 108.854 119.226 110.269C121.679 111.685 123.668 115.28 123.668 118.296V138.464L114.789 133.339V113.171Z" fill="#263238"/>
<path d="M119.228 110.265C118.7 109.949 118.105 109.762 117.491 109.718C117.152 110.396 116.987 111.147 117.01 111.904V132.072L123.671 135.896V118.291C123.671 115.275 121.682 111.68 119.228 110.265Z" fill="#F7921E"/>
<path opacity="0.5" d="M119.228 110.265C118.7 109.949 118.105 109.762 117.491 109.718C117.152 110.396 116.987 111.147 117.01 111.904V132.072L123.671 135.896V118.291C123.671 115.275 121.682 111.68 119.228 110.265Z" fill="white"/>
<path d="M117.007 132.049L114.789 133.333L123.668 138.459V135.896L117.007 132.049Z" fill="#263238"/>
<path d="M114.789 172.09C114.789 169.074 116.772 167.773 119.226 169.188C121.679 170.604 123.668 174.199 123.668 177.215V199.967L114.789 194.842V172.09Z" fill="#263238"/>
<path d="M119.228 169.188C118.7 168.872 118.105 168.685 117.491 168.641C117.153 169.319 116.988 170.07 117.01 170.827V193.573L123.67 197.398V177.181C123.67 174.198 121.682 170.603 119.228 169.188Z" fill="#F7921E"/>
<path opacity="0.5" d="M119.228 169.188C118.7 168.872 118.105 168.685 117.491 168.641C117.153 169.319 116.988 170.07 117.01 170.827V193.573L123.67 197.398V177.181C123.67 174.198 121.682 170.603 119.228 169.188Z" fill="white"/>
<path d="M114.789 194.842V187.154L123.668 192.279V199.967L114.789 194.842Z" fill="#37474F"/>
<path d="M114.789 187.154L117.007 185.87L123.663 189.716L123.668 192.279L114.789 187.154Z" fill="#263238"/>
<path d="M85.9336 155.43C85.9336 152.414 87.9225 151.113 90.3703 152.528C92.8182 153.943 94.8126 157.539 94.8126 160.555V183.307L85.9336 178.193V155.43Z" fill="#263238"/>
<path d="M90.3688 152.512C89.8397 152.198 89.2449 152.011 88.6313 151.965C88.2933 152.643 88.1281 153.394 88.1504 154.151V176.903L94.811 180.728V160.511C94.811 157.533 92.8221 153.938 90.3688 152.512Z" fill="#F7921E"/>
<path opacity="0.5" d="M90.3688 152.512C89.8397 152.198 89.2449 152.011 88.6313 151.965C88.2933 152.643 88.1281 153.394 88.1504 154.151V176.903L94.811 180.728V160.511C94.811 157.533 92.8221 153.938 90.3688 152.512Z" fill="white"/>
<path d="M94.8126 183.308V175.62L85.9336 170.495V178.183L94.8126 183.308Z" fill="#37474F"/>
<path d="M85.9336 170.495L88.152 169.211L94.8126 173.058V175.62L85.9336 170.495Z" fill="#263238"/>
<path d="M99.25 185.87V183.307L110.347 189.716V192.279L99.25 185.87Z" fill="#37474F"/>
<path d="M99.25 183.307L101.474 182.028L110.347 187.154V189.716L99.25 183.307Z" fill="#263238"/>
<path d="M128.109 102.577L176.94 74.3881L128.109 46.1938L79.2773 74.3881L128.109 102.577Z" fill="#F7921E"/>
<path opacity="0.7" d="M128.109 102.577L176.94 74.3881L128.109 46.1938L79.2773 74.3881L128.109 102.577Z" fill="white"/>
<path d="M128.105 97.452L168.058 74.3884L128.105 51.3193L88.1523 74.3884L128.105 97.452Z" fill="#F7921E"/>
<path d="M128.105 51.3193V59.0127L94.8129 78.2296L88.1523 74.3884L128.105 51.3193Z" fill="#F7921E"/>
<path opacity="0.2" d="M128.105 51.3193V59.0127L94.8129 78.2296L88.1523 74.3884L128.105 51.3193Z" fill="black"/>
<path d="M128.109 51.3193L168.062 74.3884L161.401 78.2296L128.109 59.0127V51.3193Z" fill="#F7921E"/>
<path opacity="0.5" d="M128.109 51.3193L168.062 74.3884L161.401 78.2296L128.109 59.0127V51.3193Z" fill="white"/>
<path d="M121.445 57.728L110.348 64.1373L125.887 73.1037L136.985 66.6999L121.445 57.728Z" fill="#455A64"/>
<path d="M110.348 64.1372V71.8251L125.887 80.7915V73.1036L110.348 64.1372Z" fill="#37474F"/>
<path d="M136.984 66.7002V74.3881L125.887 80.7919V73.104L136.984 66.7002Z" fill="#263238"/>
<path d="M117.801 62.0279C115.785 63.1918 115.785 65.0769 117.801 66.2407C118.931 66.8147 120.181 67.1138 121.448 67.1138C122.716 67.1138 123.966 66.8147 125.096 66.2407C127.106 65.0769 127.106 63.1918 125.096 62.0279C123.966 61.4539 122.716 61.1548 121.448 61.1548C120.181 61.1548 118.931 61.4539 117.801 62.0279Z" fill="#37474F"/>
<path d="M119.74 63.2311C118.795 63.7283 118.795 64.5425 119.74 65.0397C120.275 65.2881 120.858 65.4168 121.448 65.4168C122.038 65.4168 122.62 65.2881 123.155 65.0397C124.095 64.5425 124.095 63.7283 123.155 63.2311C122.62 62.9827 122.038 62.854 121.448 62.854C120.858 62.854 120.275 62.9827 119.74 63.2311Z" fill="#263238"/>
<path d="M129.32 73.6831L131.539 74.9617V80.0924" stroke="#455A64" stroke-width="2" stroke-linecap="round" stroke-linejoin="round"/>
<path d="M132.543 71.8257L134.761 73.1043V78.2295" stroke="#455A64" stroke-width="2" stroke-linecap="round" stroke-linejoin="round"/>
</svg>
