<svg width="256" height="256" viewBox="0 0 256 256" fill="none" xmlns="http://www.w3.org/2000/svg">
<path d="M127.656 109.445C155.351 109.445 183.055 115.568 204.213 127.785V127.786C225.363 140.003 235.877 155.946 235.96 171.786C236.043 187.378 226.021 203.068 205.662 215.209L204.685 215.784C183.672 228.001 156.034 234.124 128.335 234.123C101.07 234.122 73.7978 228.189 52.7817 216.352L51.7856 215.784C30.6366 203.567 20.1233 187.625 20.0396 171.784C19.9572 156.192 29.9791 140.502 50.3384 128.361L51.3149 127.785C72.3283 115.568 99.9605 109.445 127.656 109.445Z" stroke="#D5D5D5"/>
<path d="M109.078 148.56C113.561 151.675 118.607 153.826 122.352 158.002C129.344 165.791 129.506 178.333 124.015 187.246C118.524 196.16 108.315 201.518 97.9148 202.746C87.0064 204.032 75.5601 201.015 66.9986 194.13C58.4371 187.246 52.9951 176.484 53 165.483C53.0049 154.482 58.6327 143.578 67.8298 137.579C76.2251 132.102 88.2874 130.543 96.712 136.806C100.966 139.975 103.807 144.629 108.056 147.822C108.393 148.076 108.735 148.321 109.078 148.56Z" fill="#F7921E"/>
<path opacity="0.2" d="M109.078 148.56C113.561 151.675 118.607 153.826 122.352 158.002C129.344 165.791 129.506 178.333 124.015 187.246C118.524 196.16 108.315 201.518 97.9148 202.746C87.0064 204.032 75.5601 201.015 66.9986 194.13C58.4371 187.246 52.9951 176.484 53 165.483C53.0049 154.482 58.6327 143.578 67.8298 137.579C76.2251 132.102 88.2874 130.543 96.712 136.806C100.966 139.975 103.807 144.629 108.056 147.822C108.393 148.076 108.735 148.321 109.078 148.56Z" fill="black"/>
<path opacity="0.1" d="M109.078 148.56C113.561 151.675 118.607 153.826 122.352 158.002C129.344 165.791 129.506 178.333 124.015 187.246C118.524 196.16 108.315 201.518 97.9148 202.746C87.0064 204.032 75.5601 201.015 66.9986 194.13C58.4371 187.246 52.9951 176.484 53 165.483C53.0049 154.482 58.6327 143.578 67.8298 137.579C76.2251 132.102 88.2874 130.543 96.712 136.806C100.966 139.975 103.807 144.629 108.056 147.822C108.393 148.076 108.735 148.321 109.078 148.56Z" fill="white"/>
<path opacity="0.1" d="M107.254 194.228L107.224 194.003C106.854 191.573 105.734 189.32 104.02 187.558C102.306 185.796 100.084 184.613 97.6654 184.175C93.3467 183.344 89.2086 181.757 85.4417 179.486C82.7672 177.868 80.2393 175.883 77.2372 175.008C74.3189 174.161 71.1992 174.333 68.3921 175.497C70.9151 172.847 75.2374 171.683 78.6991 172.876C76.3033 169.219 74.2008 165.273 73.3745 160.975C72.5482 156.677 73.1104 151.993 75.7019 148.468C76.8066 146.965 78.2305 145.727 79.8713 144.841C81.512 143.955 83.3287 143.444 85.1907 143.344C87.0526 143.245 88.9135 143.559 90.6393 144.265C92.3652 144.971 93.9132 146.05 95.1718 147.426C97.7388 150.233 99.1812 154.178 100.868 157.591C102.076 160.036 103.313 162.544 105.322 164.407C108.334 167.224 112.657 168.236 115.781 170.93C119.321 173.986 120.846 178.865 120.861 183.54C120.803 186.693 120.343 189.827 119.492 192.864C115.833 196.353 111.47 199.021 106.696 200.687C107.392 198.609 107.583 196.395 107.254 194.228Z" fill="black"/>
<path d="M58.8575 164.016C58.9943 156.431 61.8176 149.139 66.8251 143.44C71.8325 137.74 78.6995 134.002 86.2044 132.89C87.2468 132.991 88.281 133.164 89.2995 133.408C81.4118 133.827 73.9751 137.216 68.4845 142.894C62.9939 148.572 59.8566 156.119 59.7034 164.016C59.5029 174.24 64.5049 184.66 73.081 191.886C79.7992 197.553 88.7274 201.308 98.5455 202.643L97.9147 202.726C97.0346 202.83 96.1496 202.904 95.2597 202.946C86.5418 201.259 78.6355 197.666 72.5334 192.512C63.7666 185.139 58.6522 174.47 58.8575 164.016Z" fill="white"/>
<path d="M118.681 190.811C118.357 192.493 118.174 194.198 118.133 195.91L116.925 195.456C116.352 195.239 115.727 195.195 115.128 195.331C114.53 195.466 113.985 195.775 113.561 196.218L113.503 196.282C113.286 196.509 112.991 196.644 112.677 196.659C112.364 196.673 112.057 196.566 111.821 196.36C111.694 196.25 111.592 196.115 111.519 195.964C111.447 195.812 111.406 195.648 111.4 195.48L111.239 190.327L118.681 190.811Z" fill="#FFA8A7"/>
<path d="M114.006 209.977C116.519 212.667 121.145 215.014 124.504 212.72L124.127 213.576C120.768 215.869 116.143 213.517 113.63 210.833C111.116 208.149 112.749 206.286 110.49 203.905C109.637 203.088 108.97 202.098 108.535 201C108.637 200.741 108.73 200.409 108.848 200.022C109.337 201.141 110.021 202.164 110.867 203.044C113.126 205.406 111.498 207.269 114.006 209.977Z" fill="white"/>
<path d="M110.09 197.196C110.475 196.646 110.743 196.022 110.877 195.363C110.899 195.21 110.954 195.064 111.038 194.935C111.123 194.805 111.235 194.696 111.366 194.615V195.48C111.375 195.72 111.454 195.952 111.594 196.147C111.734 196.342 111.928 196.491 112.152 196.577C112.376 196.662 112.62 196.68 112.854 196.628C113.088 196.575 113.302 196.455 113.468 196.282L113.527 196.218C113.951 195.775 114.496 195.466 115.094 195.331C115.692 195.195 116.317 195.239 116.891 195.456L118.118 195.92C118.301 195.989 118.458 196.113 118.568 196.275C118.677 196.437 118.734 196.629 118.729 196.825C118.651 200.345 120.299 205.024 122.02 207.582C123.795 208.315 125.33 210.731 124.548 212.505L124.47 212.681C121.111 214.975 116.485 212.628 113.972 209.938C111.459 207.249 113.092 205.391 110.833 203.01C109.987 202.13 109.303 201.107 108.813 199.988C109.106 199.002 109.535 198.062 110.09 197.196Z" fill="#37474F"/>
<path d="M114.998 202.281C114.899 202.322 114.788 202.323 114.687 202.286C114.586 202.249 114.503 202.175 114.454 202.079C114.405 201.983 114.393 201.873 114.422 201.769C114.45 201.665 114.516 201.576 114.607 201.519C115.342 201.102 116.173 200.883 117.018 200.883C117.863 200.883 118.693 201.102 119.428 201.519C119.507 201.797 119.585 202.076 119.668 202.35C118.962 201.934 118.161 201.709 117.342 201.697C116.523 201.685 115.716 201.887 114.998 202.281Z" fill="white"/>
<path d="M114.383 200.374C114.283 200.42 114.168 200.426 114.064 200.39C113.96 200.354 113.873 200.279 113.822 200.181C113.771 200.083 113.76 199.97 113.791 199.864C113.821 199.758 113.892 199.667 113.987 199.612C114.758 199.19 115.624 198.973 116.503 198.98C117.381 198.986 118.244 199.217 119.008 199.651C119.057 199.939 119.116 200.228 119.18 200.516C117.718 199.744 116.241 199.436 114.383 200.374Z" fill="white"/>
<path d="M115.678 204.174C115.578 204.22 115.464 204.225 115.359 204.189C115.255 204.153 115.169 204.079 115.118 203.981C115.067 203.883 115.056 203.769 115.086 203.663C115.117 203.557 115.187 203.467 115.282 203.411C116.002 203.005 116.812 202.788 117.638 202.781C118.464 202.773 119.279 202.975 120.006 203.367C120.113 203.665 120.226 203.959 120.343 204.242C119.638 203.829 118.837 203.605 118.02 203.593C117.202 203.581 116.396 203.781 115.678 204.174Z" fill="white"/>
<path d="M122.054 207.596C123.829 208.329 125.364 210.745 124.582 212.52L124.504 212.696C121.194 214.955 116.681 212.696 114.124 210.07C116.241 205.924 120.685 206.96 122.054 207.596Z" fill="white"/>
<path d="M116.422 206.026C116.32 206.075 116.204 206.082 116.098 206.046C115.991 206.009 115.904 205.932 115.854 205.831C115.802 205.733 115.791 205.618 115.823 205.512C115.855 205.406 115.928 205.317 116.026 205.264C116.746 204.856 117.559 204.639 118.386 204.631C119.214 204.623 120.03 204.826 120.759 205.22C120.91 205.547 121.062 205.865 121.218 206.168C119.756 205.396 118.28 205.088 116.422 206.026Z" fill="white"/>
<path d="M123.956 201.049C124.341 202.719 124.863 204.354 125.516 205.939L124.225 206.012C123.613 206.045 123.024 206.257 122.532 206.622C122.04 206.987 121.666 207.489 121.458 208.065L121.428 208.149C121.322 208.443 121.106 208.685 120.825 208.824C120.545 208.964 120.222 208.99 119.923 208.897C119.763 208.846 119.615 208.764 119.488 208.655C119.361 208.545 119.258 208.411 119.184 208.261L116.955 203.621L123.956 201.049Z" fill="#FFA8A7"/>
<path d="M127.408 220.451C130.792 221.918 135.97 222.177 138.121 218.725V219.659C135.97 223.111 130.787 222.832 127.408 221.385C124.03 219.937 124.768 217.581 121.741 216.314C120.631 215.913 119.62 215.276 118.778 214.446C118.778 214.173 118.72 213.825 118.676 213.429C119.574 214.257 120.612 214.919 121.741 215.385C124.768 216.647 124.03 219.008 127.408 220.451Z" fill="white"/>
<path d="M118.675 210.359C118.811 209.701 118.811 209.022 118.675 208.364C118.635 208.214 118.628 208.057 118.655 207.904C118.682 207.751 118.742 207.606 118.832 207.479L119.203 208.261C119.277 208.411 119.38 208.545 119.507 208.655C119.634 208.764 119.782 208.846 119.942 208.897C120.241 208.99 120.564 208.964 120.845 208.824C121.125 208.685 121.341 208.443 121.448 208.149L121.477 208.065C121.686 207.489 122.059 206.987 122.551 206.622C123.044 206.257 123.632 206.044 124.244 206.012L125.56 205.938C125.755 205.928 125.949 205.978 126.114 206.082C126.28 206.186 126.409 206.339 126.484 206.52C127.833 209.772 131.227 213.39 133.842 215.043C135.759 214.999 138.14 216.593 138.14 218.534V218.724C135.989 222.176 130.806 221.898 127.427 220.45C124.049 219.003 124.787 216.646 121.761 215.38C120.631 214.914 119.593 214.252 118.695 213.424C118.545 212.408 118.539 211.376 118.675 210.359Z" fill="#37474F"/>
<path d="M125.223 213.028C125.149 213.11 125.047 213.16 124.938 213.169C124.829 213.177 124.72 213.144 124.635 213.075C124.549 213.007 124.493 212.908 124.478 212.799C124.463 212.69 124.49 212.58 124.553 212.491C125.056 211.813 125.725 211.276 126.496 210.933C127.267 210.591 128.114 210.453 128.954 210.535C129.136 210.756 129.322 210.976 129.511 211.195C128.699 211.104 127.877 211.225 127.125 211.546C126.374 211.868 125.718 212.378 125.223 213.028Z" fill="white"/>
<path d="M123.888 211.537C123.815 211.623 123.711 211.677 123.598 211.687C123.485 211.697 123.374 211.663 123.286 211.591C123.2 211.521 123.144 211.42 123.131 211.309C123.118 211.198 123.15 211.087 123.218 210.999C123.753 210.302 124.457 209.753 125.264 209.405C126.071 209.056 126.954 208.92 127.829 209.009C127.99 209.254 128.161 209.498 128.318 209.728C126.684 209.615 125.208 209.928 123.888 211.537Z" fill="white"/>
<path d="M126.606 214.49C126.533 214.572 126.431 214.622 126.321 214.631C126.212 214.639 126.103 214.606 126.018 214.537C125.932 214.469 125.876 214.37 125.861 214.261C125.846 214.152 125.873 214.042 125.936 213.953C126.43 213.289 127.083 212.762 127.836 212.42C128.588 212.078 129.415 211.932 130.239 211.997C130.459 212.227 130.679 212.451 130.899 212.667C130.087 212.574 129.265 212.693 128.513 213.013C127.76 213.333 127.103 213.842 126.606 214.49Z" fill="white"/>
<path d="M133.823 215.043C135.74 214.999 138.121 216.593 138.121 218.534V218.724C136.004 222.147 130.948 221.903 127.564 220.514C127.828 215.845 132.288 215.028 133.823 215.043Z" fill="white"/>
<path d="M128.019 215.884C127.946 215.965 127.844 216.015 127.734 216.024C127.625 216.033 127.516 215.999 127.431 215.931C127.345 215.862 127.289 215.763 127.274 215.655C127.259 215.546 127.286 215.436 127.35 215.346C127.844 214.681 128.499 214.153 129.253 213.811C130.008 213.469 130.836 213.324 131.662 213.39C131.931 213.635 132.2 213.879 132.469 214.07C130.831 213.962 129.354 214.275 128.019 215.884Z" fill="white"/>
<path d="M104.09 157.059L121.017 166.49C122.552 167.345 123.779 168.66 124.526 170.25C125.274 171.839 125.504 173.623 125.183 175.35L121.897 193.045L125.32 203.514C122.054 207.596 115.795 206.995 115.795 206.995C112.818 201.025 111.762 196.375 110.07 191.373C108.378 186.371 107.249 182.919 107.249 182.919L93.1913 179.076C89.9758 178.202 87.0964 176.383 84.9252 173.856C82.754 171.328 81.3907 168.207 81.0116 164.896C80.772 162.77 80.7573 161.317 80.7573 161.317L104.09 157.059Z" fill="#455A64"/>
<path opacity="0.2" d="M103.963 161.816C103.962 163.706 103.29 165.534 102.066 166.974L114.016 174.45C115.767 175.549 117.064 177.241 117.668 179.218L121.898 193.045L118.084 177.648C117.644 175.878 116.53 174.35 114.979 173.389L103.948 166.573C105.078 163.752 103.963 161.816 103.963 161.816Z" fill="black"/>
<path d="M114.505 140.918C112.779 145.544 106.916 144.341 106.916 144.341C106.618 138.141 114.505 140.918 114.505 140.918Z" fill="#263238"/>
<path d="M102.257 127.976H102.692C105.626 128.005 109.317 129.995 111.126 135.1L118.153 148.707L110.129 152.281L105.728 139.442L102.257 127.976Z" fill="#FFA8A7"/>
<path opacity="0.2" d="M107.889 137.007C108.451 138.611 108.486 140.346 108.574 142.043C108.662 143.74 108.857 145.798 109.635 147.309C110.492 146.716 111.518 146.416 112.559 146.454C113.601 146.492 114.602 146.865 115.414 147.519C115.998 148.006 116.446 148.636 116.715 149.348L110.129 152.282L105.728 139.442L103.572 132.342C104.565 132.794 105.459 133.439 106.201 134.24C106.942 135.04 107.516 135.981 107.889 137.007Z" fill="black"/>
<path d="M110.056 149.837C110.361 149.08 110.854 148.413 111.489 147.9C112.124 147.386 112.879 147.043 113.684 146.903C114.522 146.818 115.368 146.94 116.148 147.26C116.927 147.58 117.616 148.087 118.153 148.737C119.028 149.793 118.891 151.22 118.338 152.477C117.877 153.453 117.092 154.238 116.117 154.701C115.142 155.163 114.037 155.274 112.989 155.015C110.906 154.408 109.278 151.817 110.056 149.837Z" fill="#FFA8A7"/>
<path d="M102.256 127.976C105.752 127.585 110.153 129.198 114.505 140.918C108.838 141.06 106.916 144.341 106.916 144.341C104.354 137.838 101.474 128.812 101.474 128.812L102.256 127.976Z" fill="#455A64"/>
<path opacity="0.2" d="M102.256 127.976C105.752 127.585 110.153 129.198 114.505 140.918C108.838 141.06 106.916 144.341 106.916 144.341C104.354 137.838 101.474 128.812 101.474 128.812L102.256 127.976Z" fill="white"/>
<path d="M80.4982 162.642C83.5003 165.527 97.9243 166.065 105.283 159.053C104.579 154.105 104.794 148.785 105.283 143.568C105.772 138.351 108.818 129.164 102.97 128.098C95.1471 126.573 91.211 127.976 84.8351 129.633C79.2611 138.918 80.0288 152.809 80.4982 162.642Z" fill="#F7921E"/>
<path opacity="0.2" d="M80.4982 162.642C83.5003 165.527 97.9243 166.065 105.283 159.053C104.579 154.105 104.794 148.785 105.283 143.568C105.772 138.351 108.818 129.164 102.97 128.098C95.1471 126.573 91.211 127.976 84.8351 129.633C79.2611 138.918 80.0288 152.809 80.4982 162.642Z" fill="white"/>
<path d="M92.0082 124.739C91.4467 124.487 90.9461 124.118 90.5402 123.656C90.1344 123.193 89.8329 122.649 89.6563 122.059C89.3109 120.881 89.138 119.659 89.1429 118.431C89.0256 115.599 88.905 112.768 88.7811 109.938C88.7322 108.794 88.698 107.587 89.2701 106.584C89.4895 106.191 89.7914 105.849 90.1553 105.583C90.5191 105.317 90.9363 105.133 91.378 105.043C91.8197 104.953 92.2756 104.96 92.7144 105.063C93.1532 105.167 93.5644 105.364 93.92 105.641C95.0592 103.372 97.7191 101.783 100.232 102.159C101.699 102.374 103.044 103.137 104.344 103.861L108.593 106.266C109.483 106.755 110.407 107.308 110.935 108.178C111.385 108.989 111.541 109.931 111.375 110.843C111.21 111.746 110.941 112.627 110.574 113.469C110.224 114.482 109.758 115.452 109.185 116.358C108.607 117.273 107.735 117.964 106.711 118.314C103.357 119.292 100.76 122.04 97.7289 123.79C96.9123 124.306 96.0375 124.723 95.1228 125.032C94.0784 125.245 92.9944 125.143 92.0082 124.739Z" fill="#263238"/>
<path d="M99.5625 125.424L99.2594 128.812C99.2439 129.075 99.3105 129.337 99.4501 129.56C99.6386 129.913 99.7112 130.317 99.6577 130.713C99.6042 131.11 99.4272 131.48 99.1518 131.77C98.7135 132.091 98.1839 132.262 97.641 132.259C96.6085 132.315 95.576 132.151 94.6112 131.78C93.6463 131.408 92.771 130.837 92.0425 130.103C91.8946 129.949 91.779 129.768 91.7026 129.569C91.6262 129.37 91.5905 129.157 91.5976 128.944L91.8225 120.353L99.5625 125.424Z" fill="#FFA8A7"/>
<path opacity="0.3" d="M91.837 120.377L99.5771 125.423L99.3082 128.43C97.6653 128.044 96.0175 127.57 94.7169 126.514C93.0496 125.169 91.5974 123.839 91.837 120.377Z" fill="black"/>
<path d="M108.369 113.165C108.199 117.124 107.256 121.011 105.591 124.607C105.251 125.403 104.802 126.149 104.256 126.822C103.703 127.498 102.939 127.97 102.086 128.161C101.039 128.357 99.9782 127.985 98.9807 127.624C97.1521 126.959 95.2745 126.269 93.8076 124.988C92.3408 123.707 91.3629 121.688 91.8519 119.805C91.3344 120.012 90.7732 120.086 90.2197 120.021C89.6662 119.955 89.138 119.751 88.6835 119.429C88.2457 119.078 87.9021 118.624 87.6836 118.108C87.4651 117.592 87.3785 117.029 87.4318 116.471C87.5442 115.39 88.3754 114.305 89.4609 114.275C89.7945 114.286 90.1219 114.368 90.4213 114.516C90.7207 114.663 90.985 114.873 91.1967 115.131C91.6128 115.651 91.9535 116.227 92.2088 116.842C92.3223 117.138 92.4973 117.406 92.7222 117.63C92.8364 117.741 92.982 117.814 93.1393 117.841C93.2966 117.867 93.4581 117.844 93.6023 117.776C93.7352 117.664 93.8414 117.524 93.9133 117.366C93.9852 117.208 94.021 117.036 94.0179 116.862L94.3308 114.417C94.3567 114.229 94.4365 114.053 94.5606 113.91C94.6848 113.767 94.8478 113.663 95.03 113.61C95.5744 113.423 96.035 113.048 96.3306 112.554C96.5882 112.118 96.7778 111.645 96.8929 111.151C96.9155 111.058 96.9597 110.972 97.0221 110.9C97.0844 110.828 97.1629 110.772 97.2513 110.736C97.3396 110.7 97.4352 110.686 97.5302 110.694C97.6252 110.703 97.7168 110.733 97.7975 110.784C100.819 112.676 104.863 113.439 108.369 113.165Z" fill="#FFA8A7"/>
<path d="M102.007 118.104L103.542 122.152L100.863 122.187L102.007 118.104Z" fill="#F28F8F"/>
<path d="M98.223 117.59C98.1813 117.734 98.1829 117.887 98.2277 118.029C98.2726 118.172 98.3585 118.298 98.4749 118.392C98.5912 118.486 98.7327 118.543 98.8816 118.557C99.0304 118.57 99.18 118.54 99.3115 118.469C99.4429 118.397 99.5504 118.289 99.6204 118.157C99.6904 118.025 99.7198 117.875 99.7048 117.726C99.6899 117.578 99.6313 117.437 99.5364 117.321C99.4415 117.206 99.3146 117.121 99.1716 117.077C99.0756 117.048 98.9748 117.038 98.8749 117.048C98.7751 117.058 98.6782 117.088 98.59 117.136C98.5018 117.183 98.4239 117.248 98.3609 117.326C98.2979 117.404 98.251 117.494 98.223 117.59Z" fill="#263238"/>
<path d="M104.408 119.077C104.367 119.221 104.37 119.374 104.416 119.517C104.463 119.66 104.55 119.786 104.668 119.878C104.786 119.971 104.928 120.027 105.078 120.039C105.227 120.051 105.377 120.018 105.508 119.945C105.639 119.871 105.745 119.761 105.813 119.627C105.881 119.494 105.908 119.343 105.89 119.194C105.872 119.045 105.811 118.905 105.713 118.791C105.616 118.677 105.486 118.594 105.342 118.554C105.149 118.5 104.942 118.524 104.767 118.622C104.592 118.72 104.463 118.884 104.408 119.077Z" fill="#263238"/>
<path d="M105.195 117.077L106.916 118.172C106.982 117.962 106.981 117.737 106.915 117.527C106.849 117.317 106.719 117.133 106.545 116.999C106.335 116.884 106.097 116.831 105.859 116.845C105.62 116.858 105.39 116.939 105.195 117.077Z" fill="#263238"/>
<path d="M99.9637 115.61L97.9395 115.855C97.9717 115.636 98.07 115.433 98.2212 115.272C98.3725 115.111 98.5693 115.001 98.7853 114.955C99.0233 114.943 99.2599 114.999 99.4681 115.114C99.6764 115.23 99.848 115.402 99.9637 115.61Z" fill="#263238"/>
<path d="M108.637 112.486C108.564 113.059 108.329 113.599 107.961 114.043C107.592 114.487 107.104 114.817 106.555 114.994L107.156 113.752C106.11 114.524 104.86 114.971 103.562 115.038C104.117 114.674 104.565 114.167 104.858 113.571C103.467 114.537 101.857 115.139 100.174 115.322C101.184 114.927 102.085 114.295 102.799 113.479C101.559 114.349 100.049 114.748 98.5407 114.603L99.7093 113.234C98.5396 113.837 97.2173 114.078 95.9101 113.928L97.3036 112.569L95.2158 112.936C95.6339 111.885 95.9435 110.793 96.1399 109.679C98.248 109.51 100.369 109.692 102.418 110.217C104.491 110.721 106.633 111.728 108.637 112.486Z" fill="#263238"/>
<path opacity="0.15" d="M101.782 162.295C101.782 162.295 101.782 162.295 101.782 162.266C101.782 162.236 101.782 162.266 101.782 162.241C101.782 162.217 101.782 162.241 101.782 162.217V162.187V162.163V162.134L107.034 152.355L107.752 153.176L102.501 162.955C102.468 163.011 102.447 163.072 102.438 163.136C102.43 163.154 102.426 163.173 102.426 163.192C102.426 163.212 102.43 163.231 102.438 163.249L101.719 162.422C101.716 162.409 101.716 162.396 101.719 162.383C101.716 162.372 101.716 162.36 101.719 162.349L101.782 162.295Z" fill="white"/>
<path opacity="0.2" d="M107.117 152.281V152.252V152.223V152.193V152.164C107.116 152.153 107.116 152.141 107.117 152.13L107.141 152.1L107.166 152.066V152.037V152.012V151.988L107.239 151.924H107.269H107.298H107.327H107.361L107.396 151.9L113.429 148.507H113.463H113.498H113.532H113.566H113.596H113.63H113.659H113.693H113.728H113.84C113.856 148.506 113.872 148.509 113.887 148.515C113.903 148.521 113.916 148.53 113.928 148.541L114.647 149.367C114.617 149.328 114.554 149.318 114.471 149.338C114.356 149.369 114.246 149.415 114.143 149.475L108.105 152.873C107.985 152.939 107.87 153.014 107.762 153.098C107.65 153.186 107.537 153.284 107.43 153.381C107.327 153.484 107.229 153.587 107.146 153.685C107.07 153.772 107.003 153.867 106.946 153.968L106.227 153.147L107.117 152.281Z" fill="white"/>
<path d="M80.9731 132.264C81.3462 131.538 81.8951 130.917 82.5698 130.457C83.2445 129.998 84.0235 129.715 84.8358 129.634L85.8528 131.184C86.9125 133.117 87.458 135.291 87.437 137.496L87.2561 153.802L88.454 154.291C91.819 155.74 95.3375 156.803 98.9419 157.46C100.815 155.978 103.14 155.185 105.528 155.215L104.638 156.873C106.325 157.953 110.134 156.007 110.134 156.007C110.418 158.384 108.877 160.853 106.834 162.1C104.79 163.347 85.3198 161.518 81.1638 158.838C78.4452 157.078 79.0857 140.258 79.0857 140.258C78.9043 137.465 79.5615 134.681 80.9731 132.264Z" fill="#FFA8A7"/>
<path d="M114.27 151.098C114.404 151.742 114.479 152.397 114.495 153.054C114.344 154.614 113.683 156.08 112.613 157.225C112.393 157.476 112.116 157.672 111.806 157.797C111.651 157.857 111.482 157.875 111.317 157.849C111.152 157.824 110.997 157.755 110.867 157.65C110.639 157.377 110.522 157.028 110.54 156.672C110.489 156.145 110.517 155.612 110.623 155.093C110.734 154.569 111.031 154.104 111.459 153.782C111.79 153.578 112.145 153.414 112.515 153.294C112.876 153.142 113.197 152.909 113.454 152.614L114.27 151.098Z" fill="#FFA8A7"/>
<path d="M84.8357 129.634C80.1467 130.078 77.5504 133.325 78.6994 147.686C82.0291 149.842 87.9112 148.003 87.9112 148.003C88.9037 132.279 86.3612 130.553 84.8357 129.634Z" fill="#455A64"/>
<path opacity="0.2" d="M84.8357 129.634C80.1467 130.078 77.5504 133.325 78.6994 147.686C82.0291 149.842 87.9112 148.003 87.9112 148.003C88.9037 132.279 86.3612 130.553 84.8357 129.634Z" fill="white"/>
<path d="M101.782 162.32C101.78 162.331 101.78 162.343 101.782 162.354C101.78 162.367 101.78 162.38 101.782 162.393L102.501 163.219C102.501 163.219 102.501 163.18 102.501 163.161C102.501 163.288 102.711 163.283 103.024 163.112L109.063 159.713C109.529 159.446 109.925 159.07 110.217 158.618L115.468 148.839C115.556 148.678 115.551 148.58 115.468 148.536L114.818 147.72C114.806 147.708 114.792 147.699 114.777 147.694C114.762 147.688 114.746 147.685 114.73 147.685H114.617H114.583H114.549H114.519H114.485H114.456H114.422H114.387H114.353H114.319L108.285 151.079L108.251 151.103H108.217H108.188H108.158H108.129L108.056 151.167V151.191V151.216V151.245L108.031 151.279L108.007 151.308C108.006 151.32 108.006 151.331 108.007 151.343V151.372V151.401V151.431V151.46V151.489L102.755 161.268V161.298V161.322V161.351C102.755 161.351 102.755 161.351 102.755 161.376C102.755 161.4 102.755 161.376 102.755 161.4C102.755 161.425 102.755 161.4 102.755 161.43V161.464L101.782 162.32ZM115.307 148.526C115.307 148.526 115.307 148.526 115.346 148.526H115.307ZM102.486 163.107C102.495 163.043 102.517 162.981 102.55 162.926C102.515 162.986 102.493 163.052 102.486 163.121C102.486 163.121 102.501 163.112 102.506 163.107H102.486Z" fill="#263238"/>
<path d="M100.493 124.391C100.48 124.554 100.418 124.71 100.316 124.838C100.215 124.966 100.077 125.061 99.9208 125.111C99.7648 125.161 99.5975 125.163 99.4401 125.118C99.2828 125.072 99.1425 124.981 99.0371 124.856C98.9317 124.73 98.8659 124.576 98.8481 124.414C98.8304 124.251 98.8614 124.086 98.9373 123.941C99.0131 123.796 99.1304 123.677 99.2743 123.598C99.4181 123.52 99.582 123.486 99.7451 123.501C99.8527 123.51 99.9574 123.541 100.053 123.59C100.149 123.64 100.234 123.708 100.304 123.791C100.373 123.874 100.426 123.969 100.458 124.072C100.491 124.175 100.503 124.283 100.493 124.391Z" fill="#B16668"/>
<path d="M82.5386 89.8776C82.5146 89.7674 82.5137 89.6535 82.5361 89.5429C82.5585 89.4324 82.6036 89.3278 82.6686 89.2357C82.7299 89.1393 82.8107 89.057 82.9059 88.9939C83.0012 88.9309 83.1086 88.8887 83.2212 88.87L87.1703 88.1062C87.2817 88.0809 87.3972 88.0795 87.5092 88.1019C87.6212 88.1243 87.7273 88.17 87.8204 88.2362C88.0092 88.3661 88.1402 88.5642 88.1861 88.7887L88.7955 91.9578C88.8184 92.0685 88.8179 92.1828 88.7942 92.2933C88.7704 92.4039 88.7238 92.5082 88.6573 92.5997C88.5978 92.6967 88.5186 92.78 88.4248 92.8444C88.331 92.9088 88.2248 92.9528 88.1129 92.9735L84.1557 93.7292C84.0455 93.7533 83.9315 93.7541 83.821 93.7318C83.7105 93.7094 83.6058 93.6642 83.5137 93.5992C83.4174 93.538 83.335 93.4571 83.272 93.3619C83.209 93.2667 83.1668 93.1593 83.1481 93.0467L82.5386 89.8776ZM79.2395 72.7647C79.2171 72.6531 79.217 72.5382 79.2393 72.4266C79.2615 72.315 79.3056 72.2089 79.3691 72.1145C79.4325 72.0201 79.5141 71.9391 79.609 71.8764C79.7039 71.8136 79.8104 71.7703 79.9221 71.7489L83.8794 70.9851C83.9901 70.9622 84.1044 70.9627 84.2149 70.9864C84.3255 71.0102 84.4298 71.0568 84.5213 71.1232C84.6167 71.1836 84.6986 71.2632 84.7615 71.3569C84.8245 71.4507 84.8672 71.5565 84.887 71.6677L87.4791 85.2134C87.502 85.3241 87.5016 85.4384 87.4778 85.5489C87.454 85.6595 87.4074 85.7638 87.341 85.8553C87.2806 85.9508 87.201 86.0326 87.1073 86.0955C87.0135 86.1585 86.9077 86.2012 86.7965 86.221L82.8393 86.9848C82.7286 87.0077 82.6143 87.0073 82.5037 86.9835C82.3932 86.9597 82.2888 86.9131 82.1973 86.8467C82.1019 86.7863 82.0201 86.7067 81.9571 86.613C81.8942 86.5192 81.8515 86.4134 81.8317 86.3022L79.2395 72.7647Z" fill="#F7921E"/>
<path d="M75.94 103.139C75.864 103.055 75.8054 102.956 75.7675 102.849C75.7297 102.742 75.7133 102.629 75.7193 102.516C75.7254 102.403 75.7537 102.292 75.8027 102.189C75.8518 102.087 75.9205 101.996 76.005 101.92L79.0034 99.2303C79.0871 99.1533 79.1861 99.0946 79.2938 99.0582C79.4016 99.0218 79.5158 99.0085 79.6291 99.019C79.7417 99.0215 79.8526 99.0473 79.9547 99.0948C80.0569 99.1424 80.148 99.2107 80.2223 99.2953L82.3756 101.733C82.4516 101.817 82.5102 101.916 82.5481 102.023C82.5859 102.129 82.6023 102.243 82.5963 102.356C82.5903 102.469 82.5619 102.58 82.5129 102.682C82.4639 102.785 82.3951 102.876 82.3106 102.952L79.3528 105.609C79.2691 105.686 79.1702 105.745 79.0624 105.781C78.9546 105.818 78.8404 105.831 78.7271 105.82C78.6145 105.818 78.5036 105.792 78.4015 105.745C78.2994 105.697 78.2083 105.629 78.134 105.544L75.94 103.139ZM64.312 90.1375C64.1591 89.9661 64.0802 89.7412 64.0926 89.5119C64.096 89.3986 64.1231 89.2873 64.1721 89.1852C64.221 89.083 64.2908 88.9923 64.377 88.9187L67.3754 86.229C67.4584 86.1505 67.557 86.0904 67.6648 86.0526C67.7727 86.0148 67.8872 86.0002 68.0011 86.0096C68.1143 86.0131 68.2256 86.0401 68.3277 86.0891C68.4299 86.1381 68.5207 86.2079 68.5943 86.294L77.7927 96.5813C77.8697 96.665 77.9283 96.7639 77.9647 96.8717C78.0011 96.9795 78.0145 97.0937 78.0039 97.207C78.0015 97.3196 77.9757 97.4305 77.9282 97.5326C77.8806 97.6347 77.8123 97.7258 77.7277 97.8002L74.7211 100.49C74.6384 100.566 74.5408 100.624 74.4345 100.66C74.3282 100.697 74.2155 100.71 74.1036 100.701C73.9896 100.7 73.8771 100.675 73.7735 100.627C73.6699 100.579 73.5775 100.51 73.5023 100.425L64.312 90.1375Z" fill="#F7921E"/>
<g opacity="0.6">
<path d="M75.94 103.139C75.864 103.055 75.8054 102.956 75.7675 102.849C75.7297 102.742 75.7133 102.629 75.7193 102.516C75.7254 102.403 75.7537 102.292 75.8027 102.189C75.8518 102.087 75.9205 101.996 76.005 101.92L79.0034 99.2303C79.0871 99.1533 79.1861 99.0946 79.2938 99.0582C79.4016 99.0218 79.5158 99.0085 79.6291 99.019C79.7417 99.0215 79.8526 99.0473 79.9547 99.0948C80.0569 99.1424 80.148 99.2107 80.2223 99.2953L82.3756 101.733C82.4516 101.817 82.5102 101.916 82.5481 102.023C82.5859 102.129 82.6023 102.243 82.5963 102.356C82.5903 102.469 82.5619 102.58 82.5129 102.682C82.4639 102.785 82.3951 102.876 82.3106 102.952L79.3528 105.609C79.2691 105.686 79.1702 105.745 79.0624 105.781C78.9546 105.818 78.8404 105.831 78.7271 105.82C78.6145 105.818 78.5036 105.792 78.4015 105.745C78.2994 105.697 78.2083 105.629 78.134 105.544L75.94 103.139ZM64.312 90.1375C64.1591 89.9661 64.0802 89.7412 64.0926 89.5119C64.096 89.3986 64.1231 89.2873 64.1721 89.1852C64.221 89.083 64.2908 88.9923 64.377 88.9187L67.3754 86.229C67.4584 86.1505 67.557 86.0904 67.6648 86.0526C67.7727 86.0148 67.8872 86.0002 68.0011 86.0096C68.1143 86.0131 68.2256 86.0401 68.3277 86.0891C68.4299 86.1381 68.5207 86.2079 68.5943 86.294L77.7927 96.5813C77.8697 96.665 77.9283 96.7639 77.9647 96.8717C78.0011 96.9795 78.0145 97.0937 78.0039 97.207C78.0015 97.3196 77.9757 97.4305 77.9282 97.5326C77.8806 97.6347 77.8123 97.7258 77.7277 97.8002L74.7211 100.49C74.6384 100.566 74.5408 100.624 74.4345 100.66C74.3282 100.697 74.2155 100.71 74.1036 100.701C73.9896 100.7 73.8771 100.675 73.7735 100.627C73.6699 100.579 73.5775 100.51 73.5023 100.425L64.312 90.1375Z" fill="white"/>
</g>
<path d="M149.605 26.2612C157.409 21.831 168.151 22.5115 180.009 29.3595C203.854 43.1279 223.196 76.6297 223.196 104.167C223.196 117.935 218.375 127.592 210.557 132.109C207.314 133.991 199.062 138.725 195.804 140.593C187.986 145.096 177.215 144.444 165.299 137.567C141.44 123.799 122.112 90.2968 122.112 62.7599C122.112 49.0204 126.918 39.3637 134.693 34.8466C137.951 32.95 146.304 28.1433 149.605 26.2612Z" fill="#37474F"/>
<path d="M221.604 89.8479C222.63 94.5527 223.163 99.3513 223.197 104.166C223.197 117.935 218.375 127.592 210.557 132.109C207.314 133.991 199.062 138.725 195.804 140.593C187.986 145.095 177.215 144.444 165.3 137.567C161.155 135.137 157.273 132.284 153.717 129.054L221.604 89.8479Z" fill="#263238"/>
<path d="M134.737 105.296C126.933 91.7596 122.112 76.5144 122.112 62.7605C122.112 35.2525 141.44 24.0466 165.299 37.8151C189.159 51.5835 208.487 85.0853 208.487 112.622C208.487 140.159 189.159 151.336 165.299 137.568C159.042 133.851 153.36 129.242 148.433 123.886L130.813 127.1C130.303 127.197 129.775 127.155 129.287 126.979C128.798 126.802 128.366 126.497 128.036 126.095C127.705 125.694 127.489 125.211 127.41 124.698C127.331 124.184 127.391 123.659 127.584 123.177L134.737 105.296Z" fill="#455A64"/>
<path d="M198.182 90.1541C198.183 90.6587 198.05 91.1545 197.797 91.5912C197.545 92.0279 197.181 92.39 196.743 92.6406L190.514 96.2188C190.156 96.4252 189.757 96.5518 189.346 96.5899C188.934 96.628 188.519 96.5768 188.129 96.4397C188.054 96.8308 187.897 97.2017 187.668 97.5279C187.44 97.8542 187.145 98.1285 186.803 98.333L186.576 98.4655L180.549 101.949L180.379 102.044C180.025 102.215 179.64 102.313 179.248 102.331C178.855 102.35 178.463 102.288 178.094 102.151C178.028 102.571 177.868 102.97 177.626 103.319C177.385 103.669 177.068 103.96 176.7 104.171L171.02 107.452C172.071 109.205 172.659 111.197 172.73 113.239C172.73 115.303 171.903 116.666 170.629 117.171C170.42 117.336 170.188 117.469 169.941 117.568C169.732 117.737 169.498 117.871 169.247 117.966C168.787 118.235 168.326 118.502 167.865 118.768C167.652 118.931 167.419 119.065 167.17 119.165C166.961 119.33 166.73 119.464 166.482 119.563C166.27 119.726 166.037 119.86 165.788 119.96C165.581 120.128 165.349 120.262 165.1 120.358C164.021 121.21 162.437 121.241 160.645 120.206C157.407 118.313 154.776 113.788 154.776 110.033C154.776 108.14 155.445 106.827 156.511 106.278C156.626 106.224 156.744 106.178 156.865 106.139C156.971 106.044 157.085 105.958 157.205 105.881C157.318 105.828 157.434 105.782 157.553 105.742C157.657 105.645 157.772 105.558 157.893 105.483C158.007 105.427 158.125 105.38 158.247 105.344C158.353 105.247 158.467 105.159 158.588 105.079C158.701 105.029 158.817 104.984 158.935 104.947C159.041 104.85 159.155 104.761 159.275 104.682C159.389 104.627 159.507 104.583 159.629 104.549C159.734 104.45 159.848 104.361 159.97 104.284C160.083 104.231 160.199 104.185 160.317 104.145C160.423 104.05 160.537 103.964 160.658 103.887C160.772 103.833 160.89 103.786 161.011 103.748C161.117 103.653 161.231 103.566 161.352 103.489C161.465 103.436 161.581 103.39 161.699 103.35C161.806 103.279 161.917 103.216 162.033 103.161C162.148 103.108 162.266 103.062 162.387 103.022C162.492 102.925 162.606 102.838 162.727 102.763C162.568 102.614 162.399 102.475 162.223 102.347L161.705 101.974L161.194 101.634C161.011 101.514 160.828 101.4 160.639 101.293C160.034 100.944 159.401 100.649 158.745 100.409C158.543 100.333 158.341 100.264 158.114 100.207C157.383 99.9787 156.621 99.8596 155.855 99.8539H155.495H155.23C155.096 99.8539 154.963 99.8539 154.833 99.8539C154.194 99.861 153.566 99.6981 153.011 99.3821C152.457 99.066 151.996 98.6081 151.677 98.0553L151.526 97.7965C151.526 97.7965 152.914 93.0129 152.927 92.994L157.344 90.3434C158.217 89.726 159.182 89.2509 160.203 88.9361C160.376 88.8985 160.551 88.8732 160.727 88.8604H160.872C161.097 88.8445 161.323 88.8445 161.547 88.8604H161.787H161.85C162.294 88.9138 162.732 89.0002 163.163 89.1191C164.785 89.5949 166.336 90.2846 167.776 91.1701C168.117 91.3658 168.407 91.5677 168.754 91.8012C168.205 91.3027 167.644 90.8357 167.069 90.3876C166.811 90.1793 166.552 89.9774 166.287 89.7565C166.251 89.7197 166.211 89.6878 166.167 89.6618C165.94 89.4851 165.706 89.3147 165.466 89.1443C165.044 88.8414 164.614 88.5133 164.173 88.2482L163.592 87.8696C163.295 87.6739 162.961 87.4846 162.69 87.3016C162.418 87.1186 161.939 86.8472 161.56 86.6263C158.045 84.6005 154.858 83.7423 151.974 83.7423H151.374L150.699 83.7864C150.529 83.7864 150.364 83.7864 150.194 83.8432L149.841 83.8937L149.525 83.9442L149.052 84.0326L148.503 84.1651C148.307 84.2156 148.112 84.2661 147.916 84.3292C147.72 84.3923 147.588 84.4301 147.43 84.4806C147.036 84.617 146.622 84.6873 146.206 84.6889C145.568 84.6947 144.94 84.5313 144.385 84.2153C143.831 83.8994 143.37 83.4422 143.05 82.8903L142.981 82.7704L144.06 78.1508C144.06 78.1508 144.06 78.1508 144.136 78.0877C144.634 77.7343 147.095 76.0241 147.291 75.9105C148.45 75.2317 149.666 74.6572 150.926 74.1939C151.444 73.9962 151.974 73.8195 152.517 73.6638L153.236 73.4682C153.476 73.4114 153.716 73.3483 153.962 73.2978C154.454 73.1905 154.946 73.1022 155.451 73.0264L156.082 72.9381H156.227L156.985 72.8686C156.992 72.8657 156.999 72.8642 157.007 72.8642C157.014 72.8642 157.022 72.8657 157.029 72.8686L157.729 72.8245C157.794 72.8181 157.86 72.8181 157.925 72.8245C158.78 72.7995 159.635 72.8248 160.487 72.9002C161.597 73.0085 162.696 73.2047 163.775 73.4871C159.96 71.3482 155.728 70.0608 151.368 69.7132C149.8 69.6127 148.226 69.6591 146.666 69.8521C146.275 69.8962 145.877 69.953 145.493 70.0225H145.373C145.133 70.0603 144.906 70.1045 144.672 70.1613C144.275 70.2433 143.883 70.3317 143.492 70.4327C143.101 70.5336 142.722 70.6472 142.343 70.7671C142.066 70.8471 141.794 70.9354 141.529 71.0322C141.182 71.1521 140.835 71.2846 140.501 71.4171C140.02 71.6129 139.505 71.7136 138.986 71.7138C138.245 71.7094 137.518 71.5107 136.878 71.1375C136.238 70.7643 135.707 70.2296 135.338 69.587L135.25 69.4355C135.3 69.1957 136.455 64.1092 136.455 64.1092H136.487L136.569 64.0461L136.626 64.0019C137.206 63.5728 139.087 62.1907 139.283 62.1086C140.653 61.3098 142.089 60.6279 143.574 60.0702C144.415 59.7547 145.257 59.477 146.098 59.2372L147.013 59.0037L147.966 58.7891C148.945 58.5941 149.933 58.4488 150.926 58.3537C151.261 58.3158 151.595 58.2906 151.936 58.2653C152.277 58.2401 152.617 58.2275 152.958 58.2148C153.299 58.2022 153.646 58.2148 153.993 58.2148C159.572 58.2148 165.694 59.7358 172.023 63.3897C174.491 64.816 176.712 66.1981 178.757 67.6054C179.009 67.7758 179.256 67.9462 179.495 68.1229C180.127 68.5773 180.758 69.0443 181.389 69.5113L182.215 70.1424C182.846 70.622 183.421 71.1079 184.001 71.6128C184.235 71.8084 184.456 72.0041 184.683 72.206L185.024 72.5089L185.743 73.1716C187.182 74.5196 188.545 75.9459 189.826 77.444L190.319 78.0309C190.571 78.3275 190.817 78.662 191.063 78.9397C191.448 79.413 191.833 79.9053 192.212 80.4101L192.874 81.2936C193.341 81.9247 193.808 82.5558 194.275 83.2753C194.503 83.6097 194.736 83.9442 194.963 84.2913C195.191 84.6384 195.424 84.9855 195.658 85.3452C195.891 85.7049 196.125 86.0646 196.352 86.4307C196.819 87.169 197.292 87.9264 197.765 88.7152C198.03 89.149 198.174 89.6459 198.182 90.1541Z" fill="#F7921E"/>
<g opacity="0.2">
<path d="M198.182 90.1541C198.183 90.6587 198.05 91.1545 197.797 91.5912C197.545 92.0279 197.181 92.39 196.743 92.6406L190.514 96.2188C190.156 96.4252 189.757 96.5518 189.346 96.5899C188.934 96.628 188.519 96.5768 188.129 96.4397C188.054 96.8308 187.897 97.2017 187.668 97.5279C187.44 97.8542 187.145 98.1285 186.803 98.333L186.576 98.4655L180.549 101.949L180.379 102.044C180.025 102.215 179.64 102.313 179.248 102.331C178.855 102.35 178.463 102.288 178.094 102.151C178.028 102.571 177.868 102.97 177.626 103.319C177.385 103.669 177.068 103.96 176.7 104.171L171.02 107.452C172.071 109.205 172.659 111.197 172.73 113.239C172.73 115.303 171.903 116.666 170.629 117.171C170.42 117.336 170.188 117.469 169.941 117.568C169.732 117.737 169.498 117.871 169.247 117.966C168.787 118.235 168.326 118.502 167.865 118.768C167.652 118.931 167.419 119.065 167.17 119.165C166.961 119.33 166.73 119.464 166.482 119.563C166.27 119.726 166.037 119.86 165.788 119.96C165.581 120.128 165.349 120.262 165.1 120.358C164.021 121.21 162.437 121.241 160.645 120.206C157.407 118.313 154.776 113.788 154.776 110.033C154.776 108.14 155.445 106.827 156.511 106.278C156.626 106.224 156.744 106.178 156.865 106.139C156.971 106.044 157.085 105.958 157.205 105.881C157.318 105.828 157.434 105.782 157.553 105.742C157.657 105.645 157.772 105.558 157.893 105.483C158.007 105.427 158.125 105.38 158.247 105.344C158.353 105.247 158.467 105.159 158.588 105.079C158.701 105.029 158.817 104.984 158.935 104.947C159.041 104.85 159.155 104.761 159.275 104.682C159.389 104.627 159.507 104.583 159.629 104.549C159.734 104.45 159.848 104.361 159.97 104.284C160.083 104.231 160.199 104.185 160.317 104.145C160.423 104.05 160.537 103.964 160.658 103.887C160.772 103.833 160.89 103.786 161.011 103.748C161.117 103.653 161.231 103.566 161.352 103.489C161.465 103.436 161.581 103.39 161.699 103.35C161.806 103.279 161.917 103.216 162.033 103.161C162.148 103.108 162.266 103.062 162.387 103.022C162.492 102.925 162.606 102.838 162.727 102.763C162.568 102.614 162.399 102.475 162.223 102.347L161.705 101.974L161.194 101.634C161.011 101.514 160.828 101.4 160.639 101.293C160.034 100.944 159.401 100.649 158.745 100.409C158.543 100.333 158.341 100.264 158.114 100.207C157.383 99.9787 156.621 99.8596 155.855 99.8539H155.495H155.23C155.096 99.8539 154.963 99.8539 154.833 99.8539C154.194 99.861 153.566 99.6981 153.011 99.3821C152.457 99.066 151.996 98.6081 151.677 98.0553L151.526 97.7965C151.526 97.7965 152.914 93.0129 152.927 92.994L157.344 90.3434C158.217 89.726 159.182 89.2509 160.203 88.9361C160.376 88.8985 160.551 88.8732 160.727 88.8604H160.872C161.097 88.8445 161.323 88.8445 161.547 88.8604H161.787H161.85C162.294 88.9138 162.732 89.0002 163.163 89.1191C164.785 89.5949 166.336 90.2846 167.776 91.1701C168.117 91.3658 168.407 91.5677 168.754 91.8012C168.205 91.3027 167.644 90.8357 167.069 90.3876C166.811 90.1793 166.552 89.9774 166.287 89.7565C166.251 89.7197 166.211 89.6878 166.167 89.6618C165.94 89.4851 165.706 89.3147 165.466 89.1443C165.044 88.8414 164.614 88.5133 164.173 88.2482L163.592 87.8696C163.295 87.6739 162.961 87.4846 162.69 87.3016C162.418 87.1186 161.939 86.8472 161.56 86.6263C158.045 84.6005 154.858 83.7423 151.974 83.7423H151.374L150.699 83.7864C150.529 83.7864 150.364 83.7864 150.194 83.8432L149.841 83.8937L149.525 83.9442L149.052 84.0326L148.503 84.1651C148.307 84.2156 148.112 84.2661 147.916 84.3292C147.72 84.3923 147.588 84.4301 147.43 84.4806C147.036 84.617 146.622 84.6873 146.206 84.6889C145.568 84.6947 144.94 84.5313 144.385 84.2153C143.831 83.8994 143.37 83.4422 143.05 82.8903L142.981 82.7704L144.06 78.1508C144.06 78.1508 144.06 78.1508 144.136 78.0877C144.634 77.7343 147.095 76.0241 147.291 75.9105C148.45 75.2317 149.666 74.6572 150.926 74.1939C151.444 73.9962 151.974 73.8195 152.517 73.6638L153.236 73.4682C153.476 73.4114 153.716 73.3483 153.962 73.2978C154.454 73.1905 154.946 73.1022 155.451 73.0264L156.082 72.9381H156.227L156.985 72.8686C156.992 72.8657 156.999 72.8642 157.007 72.8642C157.014 72.8642 157.022 72.8657 157.029 72.8686L157.729 72.8245C157.794 72.8181 157.86 72.8181 157.925 72.8245C158.78 72.7995 159.635 72.8248 160.487 72.9002C161.597 73.0085 162.696 73.2047 163.775 73.4871C159.96 71.3482 155.728 70.0608 151.368 69.7132C149.8 69.6127 148.226 69.6591 146.666 69.8521C146.275 69.8962 145.877 69.953 145.493 70.0225H145.373C145.133 70.0603 144.906 70.1045 144.672 70.1613C144.275 70.2433 143.883 70.3317 143.492 70.4327C143.101 70.5336 142.722 70.6472 142.343 70.7671C142.066 70.8471 141.794 70.9354 141.529 71.0322C141.182 71.1521 140.835 71.2846 140.501 71.4171C140.02 71.6129 139.505 71.7136 138.986 71.7138C138.245 71.7094 137.518 71.5107 136.878 71.1375C136.238 70.7643 135.707 70.2296 135.338 69.587L135.25 69.4355C135.3 69.1957 136.455 64.1092 136.455 64.1092H136.487L136.569 64.0461L136.626 64.0019C137.206 63.5728 139.087 62.1907 139.283 62.1086C140.653 61.3098 142.089 60.6279 143.574 60.0702C144.415 59.7547 145.257 59.477 146.098 59.2372L147.013 59.0037L147.966 58.7891C148.945 58.5941 149.933 58.4488 150.926 58.3537C151.261 58.3158 151.595 58.2906 151.936 58.2653C152.277 58.2401 152.617 58.2275 152.958 58.2148C153.299 58.2022 153.646 58.2148 153.993 58.2148C159.572 58.2148 165.694 59.7358 172.023 63.3897C174.491 64.816 176.712 66.1981 178.757 67.6054C179.009 67.7758 179.256 67.9462 179.495 68.1229C180.127 68.5773 180.758 69.0443 181.389 69.5113L182.215 70.1424C182.846 70.622 183.421 71.1079 184.001 71.6128C184.235 71.8084 184.456 72.0041 184.683 72.206L185.024 72.5089L185.743 73.1716C187.182 74.5196 188.545 75.9459 189.826 77.444L190.319 78.0309C190.571 78.3275 190.817 78.662 191.063 78.9397C191.448 79.413 191.833 79.9053 192.212 80.4101L192.874 81.2936C193.341 81.9247 193.808 82.5558 194.275 83.2753C194.503 83.6097 194.736 83.9442 194.963 84.2913C195.191 84.6384 195.424 84.9855 195.658 85.3452C195.891 85.7049 196.125 86.0646 196.352 86.4307C196.819 87.169 197.292 87.9264 197.765 88.7152C198.03 89.149 198.174 89.6459 198.182 90.1541Z" fill="black"/>
</g>
<path d="M166.501 116.875C166.501 120.598 163.876 122.132 160.639 120.251C157.401 118.37 154.77 113.839 154.77 110.084C154.77 108.191 155.438 106.878 156.505 106.329C157.572 105.78 159.029 105.78 160.639 106.702C162.35 107.814 163.773 109.316 164.792 111.084C165.811 112.852 166.397 114.837 166.501 116.875Z" fill="#F7921E"/>
<path d="M171.399 103.615C168.853 99.9315 165.485 96.8913 161.56 94.7359C159.737 93.6422 157.732 92.8854 155.641 92.5019C155.038 92.3958 154.419 92.4387 153.837 92.6268C153.255 92.8149 152.728 93.1425 152.302 93.5811L152.264 93.6252C151.74 94.17 151.394 94.8624 151.275 95.6092C151.155 96.3561 151.267 97.1216 151.595 97.803C151.639 97.9002 151.687 97.995 151.74 98.087C152.06 98.6398 152.52 99.0977 153.074 99.4138C153.629 99.7299 154.258 99.8927 154.896 99.8856C155.026 99.8856 155.159 99.8856 155.293 99.8856H155.558H155.918C156.685 99.8913 157.446 100.01 158.177 100.239C158.379 100.296 158.581 100.365 158.809 100.441C159.464 100.68 160.097 100.976 160.702 101.324C160.891 101.432 161.074 101.545 161.257 101.665C161.44 101.785 161.604 101.886 161.768 102.006C161.932 102.126 162.115 102.246 162.286 102.378C162.456 102.511 162.633 102.643 162.803 102.782C164.3 104.012 165.629 105.434 166.754 107.011C167.212 107.598 167.878 107.986 168.615 108.094C169.351 108.202 170.101 108.021 170.708 107.59C171.315 107.159 171.732 106.51 171.872 105.779C172.013 105.048 171.866 104.291 171.462 103.666L171.399 103.615Z" fill="#F7921E"/>
<path d="M181.534 97.96C176.309 89.5161 170.957 84.0193 163.018 79.3303C160.315 77.7171 157.283 76.7326 154.148 76.4497C151.013 76.1668 147.854 76.5927 144.906 77.6958C144.636 77.7921 144.38 77.9214 144.142 78.0808L144.066 78.1439C143.358 78.6528 142.858 79.4015 142.659 80.251C142.461 81.1006 142.577 81.9933 142.987 82.7635L143.057 82.8834C143.377 83.4353 143.837 83.8925 144.392 84.2084C144.946 84.5244 145.574 84.6878 146.212 84.682C146.629 84.6804 147.043 84.61 147.436 84.4737C147.594 84.4232 147.758 84.3664 147.922 84.3222C148.086 84.2781 148.314 84.2086 148.509 84.1582L149.058 84.0256L149.532 83.9373L149.847 83.8868L150.201 83.8363C150.371 83.8363 150.535 83.7921 150.705 83.7795L151.381 83.7353H151.98C154.864 83.7353 158.051 84.5936 161.566 86.6194L162.696 87.2946C162.999 87.4777 163.327 87.667 163.599 87.8626L164.179 88.2413C164.621 88.5316 165.05 88.8345 165.473 89.1374C165.713 89.3078 165.946 89.4782 166.173 89.6549C166.217 89.6809 166.258 89.7128 166.293 89.7496C166.558 89.9389 166.817 90.1408 167.076 90.3807C167.65 90.8287 168.212 91.2957 168.761 91.7943C168.761 91.7943 168.761 91.7943 168.792 91.7943C171.845 94.5101 174.5 97.6415 176.681 101.096C177.014 101.614 177.509 102.006 178.088 102.214C178.457 102.351 178.849 102.412 179.241 102.394C179.634 102.375 180.019 102.278 180.373 102.106L180.543 102.012C180.878 101.816 181.171 101.555 181.404 101.245C181.636 100.934 181.804 100.58 181.897 100.203C181.99 99.8265 182.006 99.4349 181.945 99.0517C181.884 98.6685 181.746 98.3016 181.54 97.9726L181.534 97.96Z" fill="#F7921E"/>
<path d="M191.549 92.2681C183.976 79.6464 177.665 73.7963 165.801 66.93C155.268 60.8779 145.31 60.6886 137.484 63.579C137.177 63.6955 136.883 63.8436 136.607 64.0207L136.55 64.0649L136.468 64.128H136.436C135.639 64.729 135.08 65.5932 134.859 66.5673C134.639 67.5413 134.77 68.562 135.231 69.4481C135.231 69.5049 135.288 69.5491 135.319 69.6059C135.688 70.2485 136.219 70.7831 136.859 71.1563C137.499 71.5295 138.226 71.7282 138.967 71.7326C139.486 71.7325 140.001 71.6318 140.482 71.436C140.816 71.3035 141.163 71.1709 141.51 71.051C141.858 70.9311 142.047 70.868 142.324 70.786C142.703 70.6661 143.082 70.5525 143.473 70.4515C143.864 70.3505 144.256 70.2622 144.653 70.1801C144.887 70.1233 145.114 70.0792 145.354 70.0413H145.474C145.859 69.9719 146.256 69.9151 146.647 69.8709C148.212 69.6674 149.793 69.6146 151.368 69.7131C155.752 70.0467 160.009 71.3394 163.838 73.4997L164.779 74.0298C174.75 79.7853 180.246 84.7582 186.614 95.2595C187.024 95.8778 187.658 96.3138 188.382 96.4764C189.106 96.639 189.864 96.5156 190.5 96.132C191.135 95.7484 191.597 95.1343 191.791 94.4179C191.984 93.7014 191.893 92.938 191.537 92.2871L191.549 92.2681Z" fill="#F7921E"/>
<path d="M194.498 99.0589C198.785 97.2346 199.647 89.6129 196.423 82.0355C193.199 74.458 187.109 69.7942 182.822 71.6185C178.535 73.4427 177.673 81.0644 180.897 88.6418C184.121 96.2193 190.211 100.883 194.498 99.0589Z" fill="#E0E0E0"/>
<path d="M184.992 89.6797C185.09 89.7504 185.208 89.7885 185.329 89.7885C185.451 89.7885 185.569 89.7504 185.667 89.6797L193.002 84.1385C193.38 83.857 193.38 83.0528 193.002 82.337C192.624 81.6212 192.029 81.2754 191.659 81.5328L184.316 87.082C183.946 87.3635 183.946 88.1678 184.316 88.8835C184.46 89.2081 184.695 89.4844 184.992 89.6797Z" fill="#455A64"/>
<path d="M192.326 93.9184C192.426 93.9869 192.544 94.0235 192.664 94.0235C192.785 94.0235 192.903 93.9869 193.002 93.9184C193.38 93.6369 193.38 92.8327 193.002 92.1169L185.667 78.099C185.297 77.3912 184.694 77.0454 184.316 77.2947C183.938 77.544 183.946 78.3805 184.316 79.0882L191.659 93.1061C191.802 93.4336 192.033 93.7149 192.326 93.9184Z" fill="#455A64"/>
</svg>
