<svg width="256" height="257" viewBox="0 0 256 257" fill="none" xmlns="http://www.w3.org/2000/svg">
<path d="M179.32 50.9115L179.193 50.848L148.954 33.4445L148.772 33.3573C134.644 26.2182 115.797 28.3678 95.5221 41.472C54.7973 67.8074 23.766 128.426 26.2091 176.869C27.4228 201.007 36.7354 217.562 50.7994 224.844L50.9184 224.907L81.1645 242.319L81.3073 242.398C95.4348 249.537 114.298 247.419 134.589 234.299C175.314 207.964 206.345 147.345 203.902 98.9021C202.704 74.7481 193.392 58.1934 179.32 50.9115Z" fill="#37474F"/>
<path d="M80.1243 241.755L50.957 224.891L50.8143 224.804C36.7502 217.506 27.4455 200.951 26.224 176.845C25.1372 155.237 30.7137 131.226 40.8195 108.928L41.0178 108.437L71.0656 126.332C60.9439 148.63 55.3833 172.641 56.47 194.248C57.6202 217.879 66.56 234.235 80.1243 241.755Z" fill="#263238"/>
<path d="M134.605 234.283C175.33 207.948 206.361 147.329 203.918 98.8863C201.475 50.4436 166.477 32.5324 125.753 58.8677C85.0279 85.2031 53.9886 145.822 56.4318 194.257C58.8749 242.691 93.8804 260.619 134.605 234.283Z" fill="#455A64"/>
<path d="M169.092 47.1514L118.048 152.31L107.061 140.412C103.785 137.001 99.3027 135.011 94.5758 134.87C89.8489 134.728 85.255 136.446 81.7808 139.654C78.3065 142.862 76.2292 147.305 75.9949 152.028C75.7605 156.752 77.388 161.378 80.5276 164.915L109.473 196.271C112.656 199.729 117.067 201.802 121.76 202.046C122.093 202.046 122.426 202.046 122.759 202.046C123.635 202.045 124.51 201.981 125.377 201.856C128.291 201.431 131.056 200.3 133.432 198.561C135.807 196.821 137.721 194.526 139.005 191.877L197.546 71.3053C191.541 57.9155 181.546 49.6183 169.092 47.1514Z" fill="#37474F"/>
<path d="M210.552 12.5189C210.234 12.3365 209.901 12.162 209.568 12.0033C205.827 10.1904 201.519 9.93561 197.59 11.2948C193.661 12.654 190.432 15.5162 188.611 19.2535L123.661 153.04L119.964 149.074C118.897 147.908 117.655 146.915 116.283 146.131C114.348 145.021 106.114 140.253 104.782 139.484C101.533 137.605 97.719 136.952 94.031 137.646C90.3429 138.339 87.0258 140.332 84.6818 143.262C82.3378 146.193 81.1223 149.867 81.2561 153.617C81.3898 157.367 82.8639 160.945 85.4107 163.701L114.356 195.05C115.441 196.227 116.701 197.231 118.092 198.024C119.98 199.095 128.182 203.855 129.531 204.632C131.396 205.712 133.464 206.396 135.605 206.641C137.746 206.887 139.915 206.688 141.976 206.057C144.038 205.427 145.947 204.378 147.584 202.977C149.222 201.576 150.553 199.852 151.495 197.913L228.336 39.6396C230.064 36.0724 230.379 31.9839 229.218 28.1942C228.057 24.4044 225.506 21.1937 222.077 19.2059L210.552 12.5189Z" fill="#F7921E"/>
<path opacity="0.15" d="M210.552 12.5189C210.234 12.3365 209.901 12.162 209.568 12.0033C205.827 10.1904 201.519 9.93561 197.59 11.2948C193.661 12.654 190.432 15.5162 188.611 19.2535L123.661 153.04L119.964 149.074C118.897 147.908 117.655 146.915 116.283 146.131C114.348 145.021 106.114 140.253 104.782 139.484C101.533 137.605 97.719 136.952 94.031 137.646C90.3429 138.339 87.0258 140.332 84.6818 143.262C82.3378 146.193 81.1223 149.867 81.2561 153.617C81.3898 157.367 82.8639 160.945 85.4107 163.701L114.356 195.05C115.441 196.227 116.701 197.231 118.092 198.024C119.98 199.095 128.182 203.855 129.531 204.632C131.396 205.712 133.464 206.396 135.605 206.641C137.746 206.887 139.915 206.688 141.976 206.057C144.038 205.427 145.947 204.378 147.584 202.977C149.222 201.576 150.553 199.852 151.495 197.913L228.336 39.6396C230.064 36.0724 230.379 31.9839 229.218 28.1942C228.057 24.4044 225.506 21.1937 222.077 19.2059L210.552 12.5189Z" fill="black"/>
<path opacity="0.15" d="M129.485 204.6C128.153 203.807 119.966 199.048 118.055 197.993C116.664 197.198 115.404 196.195 114.318 195.018L85.3733 163.67C84.097 162.277 83.0838 160.664 82.3828 158.91L93.8927 165.55C94.5905 167.309 95.61 168.923 96.899 170.309L125.836 201.657C126.901 202.813 128.131 203.804 129.485 204.6Z" fill="black"/>
<path opacity="0.15" d="M203.757 21.078C202.245 22.4349 201.011 24.0729 200.124 25.9008L133.318 163.511L123.656 153.04L188.606 19.2535C189.492 17.4224 190.729 15.7836 192.247 14.4307L203.757 21.078Z" fill="black"/>
<path d="M221.083 18.6509C217.341 16.8423 213.035 16.5897 209.108 17.9485C205.18 19.3073 201.95 22.1667 200.126 25.901L133.32 163.511L119.969 149.042C117.113 146.14 113.238 144.464 109.167 144.369C105.095 144.273 101.147 145.766 98.1569 148.531C95.167 151.296 93.3707 155.116 93.1484 159.183C92.9261 163.249 94.2951 167.242 96.9657 170.317L125.903 201.673C127.635 203.548 129.799 204.97 132.206 205.819C134.613 206.667 137.19 206.915 139.715 206.542C142.239 206.168 144.634 205.184 146.692 203.675C148.751 202.166 150.409 200.177 151.524 197.882L228.365 39.6081C230.176 35.8629 230.426 31.5522 229.061 27.6227C227.695 23.6932 224.826 20.4664 221.083 18.6509Z" fill="#F7921E"/>
</svg>
