<svg width="257" height="256" viewBox="0 0 257 256" fill="none" xmlns="http://www.w3.org/2000/svg">
<path d="M219.839 27.3601C219.561 27.2086 219.244 27.141 218.928 27.1654C218.611 27.1897 218.309 27.3049 218.056 27.4972L214.376 29.9201L213.576 32.2058C213.367 32.9158 213.35 33.6686 213.527 34.3874C213.703 35.1063 214.067 35.7653 214.582 36.2973C215.179 36.9406 215.737 37.62 216.251 38.3316C216.423 38.6096 216.649 38.8504 216.916 39.0402C217.182 39.2301 217.483 39.3651 217.802 39.4374C218.121 39.5097 218.452 39.5179 218.774 39.4614C219.096 39.405 219.404 39.2852 219.679 39.1088L228.251 33.4173C228.494 33.2268 228.786 33.1087 229.093 33.0764C229.4 33.044 229.71 33.0988 229.988 33.2344L219.839 27.3601ZM206.651 58.789C205.462 51.9318 201.028 48.3889 195.222 48.8689C195.789 50.1615 196.188 51.521 196.411 52.9147C198.308 63.9091 191.336 79.5207 180.868 87.7494C177.762 90.4135 173.952 92.1205 169.896 92.6638C173.325 100.047 182.011 100.732 191.062 93.6238C201.599 85.3951 208.548 69.7835 206.651 58.789ZM206.834 11.7941C206.635 11.6564 206.409 11.5628 206.171 11.5198L199.725 10.057C199.015 9.9273 198.283 10.0202 197.628 10.323C196.974 10.6259 196.428 11.1237 196.068 11.7484L189.988 23.3143C189.644 23.9151 189.185 24.4431 188.639 24.8686C188.326 25.1384 187.98 25.3687 187.611 25.5543L189.508 31.863C189.606 32.1608 189.765 32.4351 189.975 32.6688C190.184 32.9025 190.439 33.0906 190.724 33.2214C191.01 33.3522 191.319 33.4229 191.632 33.429C191.946 33.4352 192.258 33.3767 192.548 33.2573C193.841 32.73 195.17 32.2947 196.525 31.9544C197.359 31.7046 198.136 31.293 198.811 30.743C199.369 30.3233 199.835 29.7945 200.182 29.1887L206.239 17.6228C206.602 17.0004 207.148 16.5045 207.802 16.202C208.456 15.8995 209.187 15.805 209.896 15.9313L216.342 17.3942C216.568 17.4281 216.786 17.5057 216.982 17.6228L206.834 11.7941ZM188.548 123.796C188.251 123.539 188.042 123.195 187.953 122.813L185.668 115.567C185.569 115.269 185.41 114.995 185.201 114.761C184.991 114.527 184.736 114.339 184.451 114.209C184.166 114.078 183.857 114.007 183.543 114.001C183.229 113.995 182.918 114.053 182.628 114.173C181.335 114.703 180.006 115.138 178.651 115.475C178.214 115.606 177.793 115.782 177.393 116.001L177.691 116.938C177.747 117.17 177.849 117.388 177.99 117.581C178.131 117.773 178.309 117.935 178.513 118.058L188.548 123.796ZM176.296 17.6456C176.079 17.5266 175.835 17.4637 175.588 17.4628C175.15 17.4698 174.729 17.6318 174.399 17.9199L164.731 25.5086L164.365 25.8743C164.262 25.9539 164.17 26.0461 164.091 26.1486C163.75 26.6247 163.467 27.1386 163.245 27.6801C163.217 27.805 163.179 27.9273 163.131 28.0458C162.954 28.5446 162.869 29.0711 162.879 29.6001L163.451 38.7431C163.476 40.3932 162.945 42.0037 161.942 43.3146C160.365 45.2117 158.856 47.2003 157.371 49.2346C156.843 49.9839 156.102 50.5572 155.245 50.8804C154.972 50.9924 154.689 51.0766 154.399 51.1318H153.988C153.806 51.1658 153.62 51.1658 153.439 51.1318L147.222 50.8118H147.062C146.895 50.7895 146.726 50.7895 146.559 50.8118C146.408 50.7902 146.254 50.7902 146.102 50.8118C145.926 50.8565 145.756 50.9257 145.599 51.0175C145.274 51.1641 144.967 51.3482 144.685 51.5661C144.269 51.9168 143.933 52.3535 143.702 52.8461L137.851 65.9434C137.602 66.4951 137.565 67.1189 137.746 67.6962C137.927 68.2734 138.314 68.7641 138.833 69.0749L145.691 73.0521C145.925 73.6241 145.981 74.2535 145.851 74.8578C145.374 76.9158 145.016 78.9992 144.776 81.0979C144.536 82.6951 143.81 84.1795 142.696 85.3494L134.216 93.1438C134.068 93.2857 133.93 93.4385 133.805 93.6009C133.665 93.7666 133.55 93.9513 133.462 94.1495C132.923 95.0994 132.699 96.1957 132.822 97.281L134.445 106.63C134.522 107.131 134.793 107.582 135.199 107.887L145.325 113.715C145.13 113.568 144.967 113.382 144.846 113.17C144.724 112.958 144.646 112.724 144.616 112.481L143.016 103.155C142.892 102.56 142.892 101.945 143.016 101.35C143.231 100.432 143.698 99.5927 144.365 98.9267L152.822 91.1323C153.946 89.9671 154.681 88.4816 154.925 86.8808C155.17 84.7814 155.536 82.6979 156.022 80.6408C156.162 79.9508 156.066 79.234 155.752 78.6045C155.437 77.9749 154.921 77.4687 154.285 77.1664L149.256 75.0407C148.642 74.7701 148.159 74.2669 147.915 73.6413C147.671 73.0158 147.685 72.3189 147.953 71.7035L153.805 58.629C154.028 58.1316 154.365 57.6932 154.788 57.349C155.509 56.7379 156.425 56.4055 157.371 56.4119L163.588 56.7319C164.209 56.7412 164.825 56.6165 165.393 56.3661C166.244 56.0312 166.982 55.4603 167.519 54.7204C168.913 52.6861 170.422 50.6746 172.091 48.7775C173.082 47.5131 173.614 45.9495 173.599 44.3431L173.028 35.2002C172.994 34.6568 173.072 34.1124 173.256 33.6001C173.534 32.6242 174.09 31.7503 174.856 31.0858L184.525 23.4971C184.776 23.2571 185.097 23.1016 185.441 23.0524C185.785 23.0032 186.136 23.0628 186.445 23.2229L176.296 17.6456ZM161.805 115.27C162.005 114.561 162.015 113.812 161.834 113.098C161.654 112.384 161.289 111.73 160.776 111.201C160.173 110.561 159.623 109.873 159.131 109.144C158.778 108.587 158.219 108.193 157.577 108.048C156.934 107.902 156.26 108.017 155.702 108.367L150.742 111.59L147.176 121.19C146.983 121.66 146.965 122.183 147.124 122.665C147.283 123.147 147.61 123.556 148.045 123.818L158.262 129.693C157.827 129.431 157.501 129.021 157.341 128.539C157.182 128.057 157.2 127.534 157.393 127.064L161.805 115.27Z" fill="#F7921E"/>
<path opacity="0.3" d="M219.839 27.3601C219.561 27.2086 219.244 27.141 218.928 27.1654C218.611 27.1897 218.309 27.3049 218.056 27.4972L214.376 29.9201L213.576 32.2058C213.367 32.9158 213.35 33.6686 213.527 34.3874C213.703 35.1063 214.067 35.7653 214.582 36.2973C215.179 36.9406 215.737 37.62 216.251 38.3316C216.423 38.6096 216.649 38.8504 216.916 39.0402C217.182 39.2301 217.483 39.3651 217.802 39.4374C218.121 39.5097 218.452 39.5179 218.774 39.4614C219.096 39.405 219.404 39.2852 219.679 39.1088L228.251 33.4173C228.494 33.2268 228.786 33.1087 229.093 33.0764C229.4 33.044 229.71 33.0988 229.988 33.2344L219.839 27.3601ZM206.651 58.789C205.462 51.9318 201.028 48.3889 195.222 48.8689C195.789 50.1615 196.188 51.521 196.411 52.9147C198.308 63.9091 191.336 79.5207 180.868 87.7494C177.762 90.4135 173.952 92.1205 169.896 92.6638C173.325 100.047 182.011 100.732 191.062 93.6238C201.599 85.3951 208.548 69.7835 206.651 58.789ZM206.834 11.7941C206.635 11.6564 206.409 11.5628 206.171 11.5198L199.725 10.057C199.015 9.9273 198.283 10.0202 197.628 10.323C196.974 10.6259 196.428 11.1237 196.068 11.7484L189.988 23.3143C189.644 23.9151 189.185 24.4431 188.639 24.8686C188.326 25.1384 187.98 25.3687 187.611 25.5543L189.508 31.863C189.606 32.1608 189.765 32.4351 189.975 32.6688C190.184 32.9025 190.439 33.0906 190.724 33.2214C191.01 33.3522 191.319 33.4229 191.632 33.429C191.946 33.4352 192.258 33.3767 192.548 33.2573C193.841 32.73 195.17 32.2947 196.525 31.9544C197.359 31.7046 198.136 31.293 198.811 30.743C199.369 30.3233 199.835 29.7945 200.182 29.1887L206.239 17.6228C206.602 17.0004 207.148 16.5045 207.802 16.202C208.456 15.8995 209.187 15.805 209.896 15.9313L216.342 17.3942C216.568 17.4281 216.786 17.5057 216.982 17.6228L206.834 11.7941ZM188.548 123.796C188.251 123.539 188.042 123.195 187.953 122.813L185.668 115.567C185.569 115.269 185.41 114.995 185.201 114.761C184.991 114.527 184.736 114.339 184.451 114.209C184.166 114.078 183.857 114.007 183.543 114.001C183.229 113.995 182.918 114.053 182.628 114.173C181.335 114.703 180.006 115.138 178.651 115.475C178.214 115.606 177.793 115.782 177.393 116.001L177.691 116.938C177.747 117.17 177.849 117.388 177.99 117.581C178.131 117.773 178.309 117.935 178.513 118.058L188.548 123.796ZM176.296 17.6456C176.079 17.5266 175.835 17.4637 175.588 17.4628C175.15 17.4698 174.729 17.6318 174.399 17.9199L164.731 25.5086L164.365 25.8743C164.262 25.9539 164.17 26.0461 164.091 26.1486C163.75 26.6247 163.467 27.1386 163.245 27.6801C163.217 27.805 163.179 27.9273 163.131 28.0458C162.954 28.5446 162.869 29.0711 162.879 29.6001L163.451 38.7431C163.476 40.3932 162.945 42.0037 161.942 43.3146C160.365 45.2117 158.856 47.2003 157.371 49.2346C156.843 49.9839 156.102 50.5572 155.245 50.8804C154.972 50.9924 154.689 51.0766 154.399 51.1318H153.988C153.806 51.1658 153.62 51.1658 153.439 51.1318L147.222 50.8118H147.062C146.895 50.7895 146.726 50.7895 146.559 50.8118C146.408 50.7902 146.254 50.7902 146.102 50.8118C145.926 50.8565 145.756 50.9257 145.599 51.0175C145.274 51.1641 144.967 51.3482 144.685 51.5661C144.269 51.9168 143.933 52.3535 143.702 52.8461L137.851 65.9434C137.602 66.4951 137.565 67.1189 137.746 67.6962C137.927 68.2734 138.314 68.7641 138.833 69.0749L145.691 73.0521C145.925 73.6241 145.981 74.2535 145.851 74.8578C145.374 76.9158 145.016 78.9992 144.776 81.0979C144.536 82.6951 143.81 84.1795 142.696 85.3494L134.216 93.1438C134.068 93.2857 133.93 93.4385 133.805 93.6009C133.665 93.7666 133.55 93.9513 133.462 94.1495C132.923 95.0994 132.699 96.1957 132.822 97.281L134.445 106.63C134.522 107.131 134.793 107.582 135.199 107.887L145.325 113.715C145.13 113.568 144.967 113.382 144.846 113.17C144.724 112.958 144.646 112.724 144.616 112.481L143.016 103.155C142.892 102.56 142.892 101.945 143.016 101.35C143.231 100.432 143.698 99.5927 144.365 98.9267L152.822 91.1323C153.946 89.9671 154.681 88.4816 154.925 86.8808C155.17 84.7814 155.536 82.6979 156.022 80.6408C156.162 79.9508 156.066 79.234 155.752 78.6045C155.437 77.9749 154.921 77.4687 154.285 77.1664L149.256 75.0407C148.642 74.7701 148.159 74.2669 147.915 73.6413C147.671 73.0158 147.685 72.3189 147.953 71.7035L153.805 58.629C154.028 58.1316 154.365 57.6932 154.788 57.349C155.509 56.7379 156.425 56.4055 157.371 56.4119L163.588 56.7319C164.209 56.7412 164.825 56.6165 165.393 56.3661C166.244 56.0312 166.982 55.4603 167.519 54.7204C168.913 52.6861 170.422 50.6746 172.091 48.7775C173.082 47.5131 173.614 45.9495 173.599 44.3431L173.028 35.2002C172.994 34.6568 173.072 34.1124 173.256 33.6001C173.534 32.6242 174.09 31.7503 174.856 31.0858L184.525 23.4971C184.776 23.2571 185.097 23.1016 185.441 23.0524C185.785 23.0032 186.136 23.0628 186.445 23.2229L176.296 17.6456ZM161.805 115.27C162.005 114.561 162.015 113.812 161.834 113.098C161.654 112.384 161.289 111.73 160.776 111.201C160.173 110.561 159.623 109.873 159.131 109.144C158.778 108.587 158.219 108.193 157.577 108.048C156.934 107.902 156.26 108.017 155.702 108.367L150.742 111.59L147.176 121.19C146.983 121.66 146.965 122.183 147.124 122.665C147.283 123.147 147.61 123.556 148.045 123.818L158.262 129.693C157.827 129.431 157.501 129.021 157.341 128.539C157.182 128.057 157.2 127.534 157.393 127.064L161.805 115.27Z" fill="black"/>
<path d="M152.864 91.5442L144.407 99.3385C143.741 100.005 143.273 100.844 143.059 101.761L132.91 95.9099C133.03 95.444 133.199 94.992 133.413 94.5613C133.501 94.3632 133.616 94.1784 133.756 94.0128C133.881 93.8503 134.019 93.6975 134.167 93.5556L142.647 85.7612L152.864 91.5442Z" fill="#F7921E"/>
<path d="M165.529 56.7089C164.961 56.9592 164.345 57.084 163.724 57.0746L157.598 56.7546C156.653 56.7482 155.736 57.0807 155.015 57.6918L144.844 51.8174C145.126 51.5995 145.433 51.4154 145.758 51.2688C145.915 51.1771 146.084 51.1078 146.261 51.0631C146.413 51.0416 146.566 51.0416 146.718 51.0631C146.885 51.0408 147.054 51.0408 147.221 51.0631H147.381L153.598 51.3831C153.779 51.4172 153.965 51.4172 154.147 51.3831H154.558C154.831 51.3122 155.099 51.2205 155.358 51.1088L165.529 56.7089Z" fill="#F7921E"/>
<path d="M229.989 33.2117C229.712 33.076 229.401 33.0213 229.094 33.0536C228.787 33.0859 228.495 33.2041 228.252 33.3945L219.68 39.0403C219.122 39.3904 218.448 39.5052 217.806 39.3596C217.163 39.2139 216.605 38.8197 216.252 38.2632C215.745 37.5389 215.187 36.8514 214.583 36.206C214.069 35.6788 213.704 35.0237 213.527 34.3085C213.35 33.5932 213.368 32.8437 213.578 32.1374L214.378 29.8516L218.058 27.5659C218.307 27.369 218.607 27.2472 218.922 27.2148C219.238 27.1824 219.557 27.2407 219.84 27.383L229.989 33.2117Z" fill="#F7921E"/>
<path d="M217.023 17.6452C216.826 17.5282 216.609 17.4506 216.383 17.4167L209.937 15.9538C209.227 15.8275 208.496 15.922 207.842 16.2245C207.188 16.527 206.643 17.0229 206.28 17.6452L200.223 29.2111C199.876 29.8169 199.409 30.3458 198.851 30.7654L188.68 24.891C189.226 24.4655 189.684 23.9376 190.028 23.3367L196.108 11.7709C196.469 11.1462 197.014 10.6483 197.669 10.3455C198.323 10.0427 199.056 9.94976 199.765 10.0794L206.211 11.5423C206.449 11.5853 206.675 11.6788 206.874 11.8166L217.023 17.6452Z" fill="#F7921E"/>
<path d="M186.485 23.5211C186.176 23.361 185.825 23.3014 185.481 23.3506C185.137 23.3998 184.817 23.5553 184.565 23.7954L174.896 31.384C174.13 32.0485 173.574 32.9224 173.296 33.8984L163.125 28.0469C163.173 27.9284 163.211 27.806 163.239 27.6811C163.461 27.1397 163.745 26.6258 164.085 26.1497C164.165 26.0472 164.257 25.955 164.359 25.8754L164.725 25.5097L174.394 17.921C174.723 17.6329 175.144 17.4709 175.582 17.4639C175.83 17.4648 176.073 17.5276 176.291 17.6467L186.485 23.5211Z" fill="#F7921E"/>
<path d="M232.41 43.84L230.741 34.5142C230.735 34.2232 230.645 33.9402 230.484 33.6982C230.322 33.4562 230.095 33.2653 229.829 33.1477C229.562 33.0302 229.268 32.991 228.98 33.0346C228.693 33.0783 228.424 33.203 228.204 33.3942L219.633 39.0399C219.357 39.2163 219.049 39.3362 218.727 39.3926C218.405 39.449 218.075 39.4408 217.756 39.3685C217.437 39.2962 217.135 39.1612 216.869 38.9714C216.603 38.7816 216.377 38.5407 216.204 38.2628C215.697 37.5457 215.14 36.8659 214.535 36.2285C214.031 35.6902 213.673 35.0311 213.497 34.3145C213.321 33.5978 213.332 32.8479 213.53 32.137L217.895 20.3426C217.997 20.0442 218.035 19.7282 218.008 19.4143C217.981 19.1005 217.89 18.7955 217.74 18.5187C217.589 18.2418 217.384 17.999 217.135 17.8054C216.887 17.6119 216.601 17.4718 216.295 17.394L209.85 15.9539C209.14 15.8243 208.408 15.9172 207.753 16.22C207.098 16.5228 206.553 17.0207 206.193 17.6454L200.135 29.2113C199.286 30.5503 197.978 31.5337 196.455 31.977C195.1 32.3143 193.771 32.7497 192.478 33.2799C192.188 33.3993 191.877 33.4578 191.563 33.4516C191.249 33.4455 190.94 33.3748 190.655 33.244C190.37 33.1132 190.115 32.9251 189.905 32.6914C189.696 32.4577 189.537 32.1834 189.438 31.8856L187.313 24.6398C187.258 24.3496 187.125 24.0799 186.928 23.8597C186.731 23.6395 186.478 23.4771 186.196 23.3901C185.914 23.3031 185.613 23.2947 185.327 23.3659C185.04 23.4371 184.778 23.5851 184.57 23.794L174.901 31.3827C174.321 31.8938 173.857 32.5236 173.542 33.2296C173.226 33.9355 173.066 34.701 173.073 35.4742L173.644 44.6172C173.68 46.269 173.148 47.883 172.135 49.1887C170.504 51.0848 168.978 53.0687 167.564 55.1316C167.101 55.7385 166.507 56.2327 165.826 56.5771C165.146 56.9215 164.395 57.1072 163.633 57.1202L157.598 56.7545C156.849 56.7635 156.118 56.9826 155.488 57.3867C154.858 57.7908 154.353 58.3637 154.032 59.0402L148.181 72.1375C148.045 72.4402 147.971 72.7669 147.964 73.0985C147.956 73.4301 148.014 73.7599 148.136 74.0686C148.257 74.3773 148.439 74.6587 148.67 74.8962C148.902 75.1338 149.178 75.3227 149.484 75.4519L154.512 77.6005C155.145 77.8991 155.658 78.4022 155.969 79.0285C156.28 79.6548 156.371 80.3676 156.227 81.0519C155.753 83.118 155.394 85.2089 155.152 87.3149C154.918 88.9117 154.181 90.3926 153.05 91.5435L144.501 99.4293C143.958 99.9805 143.547 100.647 143.298 101.379C143.049 102.111 142.968 102.89 143.061 103.658L144.661 112.984C144.673 113.275 144.767 113.557 144.931 113.797C145.095 114.038 145.324 114.227 145.591 114.344C145.858 114.461 146.152 114.5 146.44 114.458C146.729 114.415 146.999 114.293 147.221 114.104L155.77 108.458C156.331 108.107 157.009 107.991 157.655 108.137C158.301 108.282 158.864 108.677 159.221 109.235C159.727 109.96 160.284 110.648 160.89 111.292C161.396 111.824 161.754 112.481 161.927 113.195C162.099 113.909 162.08 114.656 161.872 115.361L157.438 127.133C157.337 127.429 157.298 127.744 157.323 128.056C157.348 128.369 157.438 128.673 157.586 128.95C157.734 129.226 157.937 129.47 158.183 129.664C158.429 129.859 158.712 130.001 159.015 130.081L165.484 131.521C166.193 131.644 166.923 131.548 167.576 131.246C168.23 130.944 168.775 130.45 169.141 129.83L175.198 118.264C176.033 116.926 177.337 115.948 178.855 115.521C180.208 115.165 181.537 114.722 182.833 114.195C183.123 114.076 183.434 114.017 183.748 114.023C184.062 114.03 184.371 114.1 184.656 114.231C184.941 114.362 185.196 114.55 185.406 114.784C185.615 115.017 185.774 115.292 185.873 115.59L188.158 122.835C188.209 123.126 188.338 123.396 188.532 123.618C188.727 123.839 188.978 124.002 189.26 124.09C189.541 124.177 189.841 124.185 190.127 124.113C190.412 124.041 190.672 123.892 190.878 123.681L200.547 116.092C201.127 115.581 201.591 114.951 201.906 114.246C202.222 113.54 202.382 112.774 202.375 112.001L201.804 102.858C201.804 101.247 202.334 99.6805 203.313 98.4007C204.944 96.5046 206.47 94.5207 207.884 92.4578C208.349 91.8479 208.947 91.3519 209.632 91.0073C210.317 90.6628 211.072 90.4787 211.838 90.4692L218.033 90.7892C218.785 90.7844 219.521 90.5674 220.156 90.163C220.791 89.7587 221.299 89.1835 221.621 88.5034L227.45 75.4061C227.589 75.104 227.665 74.7768 227.675 74.4443C227.684 74.1119 227.626 73.7809 227.505 73.4714C227.383 73.1618 227.2 72.88 226.967 72.643C226.733 72.4059 226.454 72.2184 226.147 72.0918L220.958 69.9889C220.322 69.694 219.804 69.1925 219.488 68.5659C219.173 67.9393 219.079 67.2244 219.221 66.5374C219.697 64.4718 220.056 62.3808 220.295 60.2745C220.541 58.681 221.276 57.2032 222.398 56.0459L230.97 48.1601C231.52 47.595 231.935 46.9129 232.184 46.1648C232.434 45.4168 232.511 44.6221 232.41 43.84ZM191.107 93.6235C180.638 101.875 170.535 99.6122 168.707 88.6177C166.878 77.6233 173.781 62.0117 184.25 53.783C194.718 45.5543 204.821 47.7943 206.65 58.7888C208.478 69.7832 201.598 85.3948 191.107 93.6235Z" fill="#F7921E"/>
<path opacity="0.2" d="M232.41 43.84L230.741 34.5142C230.735 34.2232 230.645 33.9402 230.484 33.6982C230.322 33.4562 230.095 33.2653 229.829 33.1477C229.562 33.0302 229.268 32.991 228.98 33.0346C228.693 33.0783 228.424 33.203 228.204 33.3942L219.633 39.0399C219.357 39.2163 219.049 39.3362 218.727 39.3926C218.405 39.449 218.075 39.4408 217.756 39.3685C217.437 39.2962 217.135 39.1612 216.869 38.9714C216.603 38.7816 216.377 38.5407 216.204 38.2628C215.697 37.5457 215.14 36.8659 214.535 36.2285C214.031 35.6902 213.673 35.0311 213.497 34.3145C213.321 33.5978 213.332 32.8479 213.53 32.137L217.895 20.3426C217.997 20.0442 218.035 19.7282 218.008 19.4143C217.981 19.1005 217.89 18.7955 217.74 18.5187C217.589 18.2418 217.384 17.999 217.135 17.8054C216.887 17.6119 216.601 17.4718 216.295 17.394L209.85 15.9539C209.14 15.8243 208.408 15.9172 207.753 16.22C207.098 16.5228 206.553 17.0207 206.193 17.6454L200.135 29.2113C199.286 30.5503 197.978 31.5337 196.455 31.977C195.1 32.3143 193.771 32.7497 192.478 33.2799C192.188 33.3993 191.877 33.4578 191.563 33.4516C191.249 33.4455 190.94 33.3748 190.655 33.244C190.37 33.1132 190.115 32.9251 189.905 32.6914C189.696 32.4577 189.537 32.1834 189.438 31.8856L187.313 24.6398C187.258 24.3496 187.125 24.0799 186.928 23.8597C186.731 23.6395 186.478 23.4771 186.196 23.3901C185.914 23.3031 185.613 23.2947 185.327 23.3659C185.04 23.4371 184.778 23.5851 184.57 23.794L174.901 31.3827C174.321 31.8938 173.857 32.5236 173.542 33.2296C173.226 33.9355 173.066 34.701 173.073 35.4742L173.644 44.6172C173.68 46.269 173.148 47.883 172.135 49.1887C170.504 51.0848 168.978 53.0687 167.564 55.1316C167.101 55.7385 166.507 56.2327 165.826 56.5771C165.146 56.9215 164.395 57.1072 163.633 57.1202L157.598 56.7545C156.849 56.7635 156.118 56.9826 155.488 57.3867C154.858 57.7908 154.353 58.3637 154.032 59.0402L148.181 72.1375C148.045 72.4402 147.971 72.7669 147.964 73.0985C147.956 73.4301 148.014 73.7599 148.136 74.0686C148.257 74.3773 148.439 74.6587 148.67 74.8962C148.902 75.1338 149.178 75.3227 149.484 75.4519L154.512 77.6005C155.145 77.8991 155.658 78.4022 155.969 79.0285C156.28 79.6548 156.371 80.3676 156.227 81.0519C155.753 83.118 155.394 85.2089 155.152 87.3149C154.918 88.9117 154.181 90.3926 153.05 91.5435L144.501 99.4293C143.958 99.9805 143.547 100.647 143.298 101.379C143.049 102.111 142.968 102.89 143.061 103.658L144.661 112.984C144.673 113.275 144.767 113.557 144.931 113.797C145.095 114.038 145.324 114.227 145.591 114.344C145.858 114.461 146.152 114.5 146.44 114.458C146.729 114.415 146.999 114.293 147.221 114.104L155.77 108.458C156.331 108.107 157.009 107.991 157.655 108.137C158.301 108.282 158.864 108.677 159.221 109.235C159.727 109.96 160.284 110.648 160.89 111.292C161.396 111.824 161.754 112.481 161.927 113.195C162.099 113.909 162.08 114.656 161.872 115.361L157.438 127.133C157.337 127.429 157.298 127.744 157.323 128.056C157.348 128.369 157.438 128.673 157.586 128.95C157.734 129.226 157.937 129.47 158.183 129.664C158.429 129.859 158.712 130.001 159.015 130.081L165.484 131.521C166.193 131.644 166.923 131.548 167.576 131.246C168.23 130.944 168.775 130.45 169.141 129.83L175.198 118.264C176.033 116.926 177.337 115.948 178.855 115.521C180.208 115.165 181.537 114.722 182.833 114.195C183.123 114.076 183.434 114.017 183.748 114.023C184.062 114.03 184.371 114.1 184.656 114.231C184.941 114.362 185.196 114.55 185.406 114.784C185.615 115.017 185.774 115.292 185.873 115.59L188.158 122.835C188.209 123.126 188.338 123.396 188.532 123.618C188.727 123.839 188.978 124.002 189.26 124.09C189.541 124.177 189.841 124.185 190.127 124.113C190.412 124.041 190.672 123.892 190.878 123.681L200.547 116.092C201.127 115.581 201.591 114.951 201.906 114.246C202.222 113.54 202.382 112.774 202.375 112.001L201.804 102.858C201.804 101.247 202.334 99.6805 203.313 98.4007C204.944 96.5046 206.47 94.5207 207.884 92.4578C208.349 91.8479 208.947 91.3519 209.632 91.0073C210.317 90.6628 211.072 90.4787 211.838 90.4692L218.033 90.7892C218.785 90.7844 219.521 90.5674 220.156 90.163C220.791 89.7587 221.299 89.1835 221.621 88.5034L227.45 75.4061C227.589 75.104 227.665 74.7768 227.675 74.4443C227.684 74.1119 227.626 73.7809 227.505 73.4714C227.383 73.1618 227.2 72.88 226.967 72.643C226.733 72.4059 226.454 72.2184 226.147 72.0918L220.958 69.9889C220.322 69.694 219.804 69.1925 219.488 68.5659C219.173 67.9393 219.079 67.2244 219.221 66.5374C219.697 64.4718 220.056 62.3808 220.295 60.2745C220.541 58.681 221.276 57.2032 222.398 56.0459L230.97 48.1601C231.52 47.595 231.935 46.9129 232.184 46.1648C232.434 45.4168 232.511 44.6221 232.41 43.84ZM191.107 93.6235C180.638 101.875 170.535 99.6122 168.707 88.6177C166.878 77.6233 173.781 62.0117 184.25 53.783C194.718 45.5543 204.821 47.7943 206.65 58.7888C208.478 69.7832 201.598 85.3948 191.107 93.6235Z" fill="black"/>
<path d="M127.103 122.516C126.768 122.343 126.391 122.269 126.015 122.3C125.64 122.332 125.281 122.47 124.98 122.696L120.635 125.58L119.674 128.183C119.436 129.024 119.42 129.912 119.627 130.762C119.834 131.611 120.257 132.392 120.855 133.029C121.58 133.787 122.25 134.597 122.858 135.452C123.28 136.09 123.932 136.54 124.679 136.708C125.425 136.876 126.208 136.749 126.862 136.353L137.015 129.665C137.299 129.455 137.635 129.323 137.986 129.285C138.338 129.246 138.694 129.301 139.017 129.445L127.103 122.516ZM111.464 159.822C110.042 151.592 104.795 147.467 97.987 148.028C98.644 149.575 99.1146 151.195 99.3887 152.854C101.651 165.91 93.3813 184.413 80.946 194.185C77.2537 197.344 72.7265 199.368 67.9101 200.012C71.915 208.763 82.3077 209.584 93.0208 201.153C105.456 191.381 113.706 172.858 111.464 159.822ZM111.684 104.053C111.437 103.902 111.166 103.794 110.883 103.733L103.233 102.011C102.391 101.857 101.522 101.967 100.744 102.326C99.967 102.684 99.3188 103.273 98.8881 104.013L91.6792 117.75C91.2716 118.458 90.727 119.077 90.0772 119.572C89.7041 119.894 89.294 120.169 88.8558 120.393L91.0985 127.883C91.2046 128.245 91.3877 128.581 91.6354 128.866C91.8831 129.151 92.1896 129.38 92.5337 129.536C92.8779 129.692 93.2517 129.771 93.6296 129.77C94.0074 129.768 94.3804 129.684 94.7229 129.525C96.2551 128.906 97.8273 128.39 99.4287 127.983C100.425 127.687 101.356 127.205 102.172 126.561C102.834 126.065 103.386 125.438 103.794 124.719L110.943 111.002C111.372 110.266 112.017 109.679 112.791 109.321C113.564 108.963 114.429 108.85 115.268 108.999L122.938 110.721C123.203 110.778 123.46 110.872 123.699 111.002L111.684 104.053ZM90.1173 236.878C89.7589 236.578 89.5061 236.171 89.3964 235.716L86.9134 227.126C86.8103 226.761 86.6288 226.423 86.3817 226.136C86.1346 225.849 85.8277 225.619 85.4826 225.463C85.1374 225.306 84.7624 225.227 84.3835 225.231C84.0046 225.234 83.631 225.321 83.2889 225.484C81.7589 226.109 80.1863 226.624 78.5831 227.025C78.0642 227.167 77.5661 227.376 77.1013 227.646L77.4417 228.748C77.5818 229.3 77.9345 229.775 78.423 230.069L90.1173 236.878ZM75.4393 111.002C75.1817 110.859 74.8926 110.784 74.5983 110.782C74.0818 110.79 73.5851 110.982 73.1965 111.322L61.7225 120.333C61.5613 120.458 61.4136 120.599 61.2819 120.754C61.1715 120.858 61.0709 120.972 60.9815 121.094C60.5597 121.645 60.2161 122.252 59.9603 122.897L59.8201 123.337C59.6083 123.935 59.5065 124.566 59.5198 125.199L60.2006 136.113C60.2021 138.023 59.5759 139.88 58.4184 141.399C56.5361 143.642 54.7739 146.005 53.1119 148.428C52.4695 149.322 51.588 150.016 50.5688 150.431C50.2471 150.567 49.9113 150.668 49.5675 150.731C49.4079 150.75 49.2465 150.75 49.0869 150.731C48.8677 150.761 48.6454 150.761 48.4261 150.731L41.0571 150.371H40.8568C40.6571 150.351 40.4559 150.351 40.2561 150.371C40.0722 150.391 39.8909 150.432 39.7154 150.491C39.5087 150.553 39.3077 150.634 39.1147 150.731C38.7359 150.908 38.3796 151.13 38.0534 151.392C37.5558 151.801 37.1528 152.314 36.872 152.894L29.9434 168.433C29.649 169.089 29.6046 169.829 29.8185 170.515C30.0325 171.201 30.49 171.785 31.1049 172.158L39.2949 176.883C39.5639 177.557 39.6266 178.296 39.4751 179.006C38.9172 181.451 38.4894 183.925 38.1936 186.415C37.9122 188.315 37.044 190.079 35.7105 191.461L35.5904 191.562L25.5781 200.793C25.3974 200.954 25.2361 201.135 25.0975 201.334C24.9337 201.534 24.7989 201.757 24.697 201.994C24.0511 203.115 23.7842 204.414 23.936 205.699L25.9385 216.793C25.9744 217.09 26.0713 217.377 26.2229 217.635C26.3744 217.894 26.5775 218.118 26.8196 218.295L38.8343 225.223C38.6017 225.05 38.4071 224.831 38.2624 224.579C38.1178 224.328 38.0262 224.05 37.9933 223.761L35.9909 212.668C35.8828 211.959 35.9237 211.237 36.111 210.545C36.3598 209.455 36.9077 208.457 37.693 207.661L47.7053 198.43L47.8254 198.31C49.1476 196.928 50.0142 195.174 50.3084 193.284C50.5947 190.792 51.0225 188.318 51.59 185.875C51.7606 185.062 51.6565 184.216 51.294 183.47C50.9316 182.723 50.3313 182.118 49.5875 181.749L43.5802 179.226C43.2096 179.072 42.8741 178.845 42.5941 178.557C42.3141 178.27 42.0954 177.929 41.9513 177.554C41.8071 177.18 41.7404 176.78 41.7554 176.379C41.7704 175.978 41.8666 175.584 42.0383 175.221L48.9668 159.682C49.2407 159.098 49.6449 158.584 50.1483 158.18C51.0013 157.45 52.0891 157.052 53.212 157.059L60.601 157.439C61.3338 157.466 62.062 157.315 62.7237 156.999C63.7384 156.585 64.6138 155.891 65.2468 154.996C66.9088 152.573 68.711 150.21 70.5733 147.948C71.7416 146.442 72.3694 144.587 72.3555 142.681L71.6747 131.767C71.6439 131.128 71.7391 130.488 71.955 129.885C72.2862 128.727 72.9472 127.69 73.8574 126.901L85.3314 117.89C85.6309 117.612 86.0082 117.433 86.4126 117.376C86.8171 117.318 87.2294 117.386 87.5942 117.57L75.4393 111.002ZM58.2382 226.825C58.4694 225.982 58.4804 225.094 58.2701 224.245C58.0597 223.397 57.635 222.617 57.0367 221.979C56.3052 221.227 55.6356 220.416 55.0342 219.556C54.6152 218.915 53.964 218.46 53.2173 218.289C52.4707 218.117 51.6865 218.241 51.0293 218.635L45.2422 222.44L41.017 233.854C40.7914 234.408 40.7703 235.025 40.9574 235.593C41.1444 236.162 41.5276 236.646 42.0383 236.958L54.1532 243.946C53.6378 243.634 53.2515 243.147 53.0641 242.574C52.8768 242.001 52.9009 241.379 53.1319 240.823L58.2382 226.825Z" fill="#F7921E"/>
<path opacity="0.3" d="M127.103 122.516C126.768 122.343 126.391 122.269 126.015 122.3C125.64 122.332 125.281 122.47 124.98 122.696L120.635 125.58L119.674 128.183C119.436 129.024 119.42 129.912 119.627 130.762C119.834 131.611 120.257 132.392 120.855 133.029C121.58 133.787 122.25 134.597 122.858 135.452C123.28 136.09 123.932 136.54 124.679 136.708C125.425 136.876 126.208 136.749 126.862 136.353L137.015 129.665C137.299 129.455 137.635 129.323 137.986 129.285C138.338 129.246 138.694 129.301 139.017 129.445L127.103 122.516ZM111.464 159.822C110.042 151.592 104.795 147.467 97.987 148.028C98.644 149.575 99.1146 151.195 99.3887 152.854C101.651 165.91 93.3813 184.413 80.946 194.185C77.2537 197.344 72.7265 199.368 67.9101 200.012C71.915 208.763 82.3077 209.584 93.0208 201.153C105.456 191.381 113.706 172.858 111.464 159.822ZM111.684 104.053C111.437 103.902 111.166 103.794 110.883 103.733L103.233 102.011C102.391 101.857 101.522 101.967 100.744 102.326C99.967 102.684 99.3188 103.273 98.8881 104.013L91.6792 117.75C91.2716 118.458 90.727 119.077 90.0772 119.572C89.7041 119.894 89.294 120.169 88.8558 120.393L91.0985 127.883C91.2046 128.245 91.3877 128.581 91.6354 128.866C91.8831 129.151 92.1896 129.38 92.5337 129.536C92.8779 129.692 93.2517 129.771 93.6296 129.77C94.0074 129.768 94.3804 129.684 94.7229 129.525C96.2551 128.906 97.8273 128.39 99.4287 127.983C100.425 127.687 101.356 127.205 102.172 126.561C102.834 126.065 103.386 125.438 103.794 124.719L110.943 111.002C111.372 110.266 112.017 109.679 112.791 109.321C113.564 108.963 114.429 108.85 115.268 108.999L122.938 110.721C123.203 110.778 123.46 110.872 123.699 111.002L111.684 104.053ZM90.1173 236.878C89.7589 236.578 89.5061 236.171 89.3964 235.716L86.9134 227.126C86.8103 226.761 86.6288 226.423 86.3817 226.136C86.1346 225.849 85.8277 225.619 85.4826 225.463C85.1374 225.306 84.7624 225.227 84.3835 225.231C84.0046 225.234 83.631 225.321 83.2889 225.484C81.7589 226.109 80.1863 226.624 78.5831 227.025C78.0642 227.167 77.5661 227.376 77.1013 227.646L77.4417 228.748C77.5818 229.3 77.9345 229.775 78.423 230.069L90.1173 236.878ZM75.4393 111.002C75.1817 110.859 74.8926 110.784 74.5983 110.782C74.0818 110.79 73.5851 110.982 73.1965 111.322L61.7225 120.333C61.5613 120.458 61.4136 120.599 61.2819 120.754C61.1715 120.858 61.0709 120.972 60.9815 121.094C60.5597 121.645 60.2161 122.252 59.9603 122.897L59.8201 123.337C59.6083 123.935 59.5065 124.566 59.5198 125.199L60.2006 136.113C60.2021 138.023 59.5759 139.88 58.4184 141.399C56.5361 143.642 54.7739 146.005 53.1119 148.428C52.4695 149.322 51.588 150.016 50.5688 150.431C50.2471 150.567 49.9113 150.668 49.5675 150.731C49.4079 150.75 49.2465 150.75 49.0869 150.731C48.8677 150.761 48.6454 150.761 48.4261 150.731L41.0571 150.371H40.8568C40.6571 150.351 40.4559 150.351 40.2561 150.371C40.0722 150.391 39.8909 150.432 39.7154 150.491C39.5087 150.553 39.3077 150.634 39.1147 150.731C38.7359 150.908 38.3796 151.13 38.0534 151.392C37.5558 151.801 37.1528 152.314 36.872 152.894L29.9434 168.433C29.649 169.089 29.6046 169.829 29.8185 170.515C30.0325 171.201 30.49 171.785 31.1049 172.158L39.2949 176.883C39.5639 177.557 39.6266 178.296 39.4751 179.006C38.9172 181.451 38.4894 183.925 38.1936 186.415C37.9122 188.315 37.044 190.079 35.7105 191.461L35.5904 191.562L25.5781 200.793C25.3974 200.954 25.2361 201.135 25.0975 201.334C24.9337 201.534 24.7989 201.757 24.697 201.994C24.0511 203.115 23.7842 204.414 23.936 205.699L25.9385 216.793C25.9744 217.09 26.0713 217.377 26.2229 217.635C26.3744 217.894 26.5775 218.118 26.8196 218.295L38.8343 225.223C38.6017 225.05 38.4071 224.831 38.2624 224.579C38.1178 224.328 38.0262 224.05 37.9933 223.761L35.9909 212.668C35.8828 211.959 35.9237 211.237 36.111 210.545C36.3598 209.455 36.9077 208.457 37.693 207.661L47.7053 198.43L47.8254 198.31C49.1476 196.928 50.0142 195.174 50.3084 193.284C50.5947 190.792 51.0225 188.318 51.59 185.875C51.7606 185.062 51.6565 184.216 51.294 183.47C50.9316 182.723 50.3313 182.118 49.5875 181.749L43.5802 179.226C43.2096 179.072 42.8741 178.845 42.5941 178.557C42.3141 178.27 42.0954 177.929 41.9513 177.554C41.8071 177.18 41.7404 176.78 41.7554 176.379C41.7704 175.978 41.8666 175.584 42.0383 175.221L48.9668 159.682C49.2407 159.098 49.6449 158.584 50.1483 158.18C51.0013 157.45 52.0891 157.052 53.212 157.059L60.601 157.439C61.3338 157.466 62.062 157.315 62.7237 156.999C63.7384 156.585 64.6138 155.891 65.2468 154.996C66.9088 152.573 68.711 150.21 70.5733 147.948C71.7416 146.442 72.3694 144.587 72.3555 142.681L71.6747 131.767C71.6439 131.128 71.7391 130.488 71.955 129.885C72.2862 128.727 72.9472 127.69 73.8574 126.901L85.3314 117.89C85.6309 117.612 86.0082 117.433 86.4126 117.376C86.8171 117.318 87.2294 117.386 87.5942 117.57L75.4393 111.002ZM58.2382 226.825C58.4694 225.982 58.4804 225.094 58.2701 224.245C58.0597 223.397 57.635 222.617 57.0367 221.979C56.3052 221.227 55.6356 220.416 55.0342 219.556C54.6152 218.915 53.964 218.46 53.2173 218.289C52.4707 218.117 51.6865 218.241 51.0293 218.635L45.2422 222.44L41.017 233.854C40.7914 234.408 40.7703 235.025 40.9574 235.593C41.1444 236.162 41.5276 236.646 42.0383 236.958L54.1532 243.946C53.6378 243.634 53.2515 243.147 53.0641 242.574C52.8768 242.001 52.9009 241.379 53.1319 240.823L58.2382 226.825Z" fill="black"/>
<path d="M47.6441 198.69L37.6319 207.921C36.8466 208.717 36.2987 209.715 36.0499 210.805L24.0352 203.856C24.1722 203.301 24.3738 202.763 24.6359 202.254C24.7378 202.016 24.8726 201.794 25.0364 201.593C25.175 201.395 25.3362 201.214 25.517 201.053L35.5292 191.821L47.6441 198.69Z" fill="#F7921E"/>
<path d="M62.6645 157.338C62.0028 157.654 61.2745 157.805 60.5418 157.779L53.1528 157.398C52.0299 157.391 50.942 157.789 50.089 158.52L38.0742 151.551C38.4004 151.289 38.7567 151.068 39.1356 150.89C39.3286 150.793 39.5295 150.713 39.7363 150.65C39.9118 150.591 40.093 150.551 40.2769 150.53C40.4767 150.51 40.6779 150.51 40.8777 150.53H41.0579L48.427 150.89C48.6462 150.92 48.8685 150.92 49.0877 150.89H49.5684C49.8945 150.802 50.2154 150.695 50.5295 150.57L62.6645 157.338Z" fill="#F7921E"/>
<path d="M139.134 129.425C138.809 129.284 138.452 129.232 138.1 129.274C137.748 129.316 137.414 129.451 137.131 129.665L126.959 136.373C126.302 136.767 125.518 136.891 124.771 136.719C124.024 136.548 123.373 136.093 122.954 135.452C122.352 134.592 121.683 133.782 120.951 133.029C120.35 132.394 119.924 131.613 119.717 130.763C119.51 129.913 119.528 129.024 119.77 128.183L120.731 125.6L124.956 122.736C125.255 122.506 125.613 122.366 125.989 122.33C126.364 122.295 126.742 122.366 127.079 122.536L139.134 129.425Z" fill="#F7921E"/>
<path d="M123.722 111.001C123.483 110.872 123.227 110.778 122.961 110.721L115.292 108.999C114.452 108.85 113.588 108.962 112.814 109.32C112.041 109.678 111.396 110.265 110.966 111.001L103.777 124.738C103.369 125.457 102.817 126.085 102.155 126.581L90.1406 119.592C90.7904 119.097 91.335 118.477 91.7426 117.77L98.9515 104.033C99.3822 103.293 100.03 102.704 100.808 102.345C101.585 101.987 102.454 101.877 103.297 102.03L110.946 103.752C111.229 103.813 111.5 103.922 111.747 104.073L123.722 111.001Z" fill="#F7921E"/>
<path d="M87.5367 117.971C87.1719 117.787 86.7596 117.719 86.3552 117.776C85.9507 117.834 85.5734 118.013 85.274 118.291L73.7999 127.302C72.8898 128.091 72.2288 129.128 71.8976 130.286L59.8828 123.337L60.023 122.897C60.2788 122.252 60.6224 121.645 61.0442 121.094C61.1336 120.972 61.2342 120.858 61.3446 120.754C61.4763 120.599 61.624 120.458 61.7852 120.334L73.2592 111.322C73.6478 110.982 74.1445 110.79 74.661 110.782C74.9553 110.784 75.2444 110.859 75.502 111.002L87.5367 117.971Z" fill="#F7921E"/>
<path d="M142.005 142.1L140.102 131.006C140.089 130.662 139.979 130.328 139.785 130.043C139.59 129.759 139.318 129.536 139.002 129.4C138.685 129.263 138.336 129.22 137.996 129.274C137.656 129.327 137.337 129.477 137.078 129.704L126.966 136.373C126.31 136.772 125.524 136.899 124.776 136.727C124.028 136.555 123.377 136.097 122.961 135.451C122.348 134.6 121.679 133.791 120.959 133.028C120.359 132.396 119.934 131.619 119.727 130.772C119.52 129.926 119.537 129.04 119.777 128.202L124.944 114.185C125.087 113.835 125.15 113.457 125.13 113.078C125.11 112.7 125.006 112.331 124.826 111.998C124.646 111.665 124.394 111.376 124.089 111.152C123.784 110.927 123.433 110.773 123.061 110.701L115.412 108.999C114.57 108.848 113.702 108.96 112.925 109.318C112.148 109.676 111.499 110.263 111.067 111.001L103.878 124.718C102.888 126.311 101.338 127.475 99.5324 127.982C97.9258 128.403 96.3475 128.925 94.8066 129.544C94.4641 129.704 94.0911 129.787 93.7132 129.789C93.3354 129.791 92.9616 129.711 92.6174 129.555C92.2732 129.399 91.9668 129.171 91.7191 128.886C91.4714 128.6 91.2882 128.265 91.1822 127.902L88.4989 119.412C88.4126 119.085 88.2454 118.786 88.0126 118.542C87.7799 118.298 87.4893 118.116 87.1677 118.015C86.8461 117.913 86.5039 117.894 86.173 117.959C85.8422 118.025 85.5332 118.173 85.2749 118.39L73.8009 127.402C73.111 128.01 72.5593 128.759 72.1829 129.598C71.8064 130.438 71.6138 131.348 71.6181 132.268L72.299 143.181C72.3006 145.091 71.6744 146.948 70.5168 148.468C68.6242 150.726 66.8464 153.079 65.1903 155.516C64.641 156.236 63.936 156.823 63.128 157.232C62.3201 157.641 61.4301 157.863 60.5246 157.879L53.1555 157.519C52.2803 157.512 51.4206 157.75 50.6738 158.207C49.927 158.663 49.323 159.32 48.9303 160.102L41.9818 175.481C41.813 175.844 41.719 176.238 41.7055 176.638C41.692 177.038 41.7591 177.437 41.903 177.811C42.0469 178.184 42.2646 178.525 42.543 178.813C42.8214 179.101 43.1549 179.33 43.5237 179.486L49.531 182.029C50.2561 182.387 50.8443 182.972 51.2058 183.695C51.5674 184.418 51.6824 185.239 51.5335 186.034C50.974 188.479 50.5463 190.952 50.2519 193.443C49.9666 195.336 49.0987 197.093 47.7689 198.469L37.6164 207.821C36.9758 208.475 36.4888 209.264 36.1909 210.13C35.893 210.996 35.7917 211.917 35.8943 212.827L37.8968 223.901C37.9058 224.247 38.0134 224.584 38.2068 224.871C38.4001 225.158 38.6713 225.384 38.9885 225.523C39.3058 225.662 39.6561 225.707 39.9982 225.654C40.3404 225.601 40.6603 225.451 40.9205 225.223L51.073 218.534C51.7301 218.14 52.5143 218.016 53.261 218.188C54.0077 218.36 54.6589 218.814 55.0779 219.456C55.6792 220.316 56.3489 221.126 57.0803 221.878C57.6871 222.51 58.1174 223.291 58.3283 224.141C58.5391 224.991 58.5231 225.882 58.2818 226.724L53.0954 240.742C52.9523 241.101 52.8922 241.488 52.9196 241.873C52.9471 242.259 53.0614 242.633 53.254 242.968C53.4466 243.303 53.7125 243.591 54.0319 243.808C54.3512 244.026 54.7156 244.169 55.0979 244.226L62.7473 245.928C63.5898 246.088 64.4612 245.98 65.2399 245.621C66.0187 245.262 66.6663 244.67 67.0926 243.926L74.2814 230.209C75.2829 228.627 76.8284 227.466 78.6267 226.945C80.2303 226.536 81.8028 226.014 83.3325 225.383C83.6764 225.224 84.0507 225.141 84.4296 225.14C84.8086 225.14 85.1831 225.221 85.5275 225.379C85.872 225.537 86.1781 225.768 86.4249 226.055C86.6716 226.343 86.8532 226.68 86.957 227.045L89.5402 235.636C89.6248 235.965 89.7921 236.268 90.0263 236.515C90.2604 236.762 90.5537 236.945 90.8784 237.048C91.2031 237.15 91.5484 237.168 91.8819 237.099C92.2154 237.031 92.5259 236.879 92.7841 236.657L104.258 227.646C104.945 227.035 105.495 226.285 105.871 225.446C106.247 224.608 106.441 223.699 106.441 222.78L105.74 211.866C105.738 209.956 106.365 208.099 107.522 206.58C109.415 204.321 111.193 201.968 112.849 199.531C113.398 198.811 114.103 198.224 114.911 197.815C115.719 197.406 116.609 197.185 117.514 197.168L124.904 197.528C125.78 197.529 126.639 197.286 127.385 196.826C128.132 196.366 128.735 195.708 129.129 194.925L136.057 179.386C136.235 179.024 136.336 178.63 136.354 178.227C136.372 177.824 136.306 177.423 136.162 177.046C136.017 176.67 135.796 176.328 135.512 176.042C135.229 175.755 134.89 175.53 134.515 175.381L128.508 172.838C127.759 172.481 127.153 171.881 126.789 171.135C126.425 170.39 126.325 169.543 126.506 168.733C127.055 166.287 127.476 163.814 127.767 161.324C128.057 159.426 128.924 157.665 130.25 156.277L140.423 146.926C141.015 146.28 141.462 145.516 141.735 144.684C142.008 143.851 142.1 142.97 142.005 142.1ZM93.0244 201.153C80.5891 210.925 68.6946 208.262 66.4518 195.145C64.2091 182.029 72.4592 163.586 84.8944 153.814C97.3297 144.042 109.204 146.705 111.467 159.822C113.73 172.938 105.46 191.381 93.0244 201.153Z" fill="#F7921E"/>
<path opacity="0.1" d="M142.005 142.1L140.102 131.006C140.089 130.662 139.979 130.328 139.784 130.043C139.59 129.759 139.318 129.536 139.002 129.4C138.685 129.263 138.336 129.22 137.996 129.274C137.656 129.327 137.337 129.477 137.078 129.704L126.966 136.373C126.31 136.772 125.524 136.899 124.776 136.727C124.028 136.555 123.377 136.097 122.961 135.451C122.348 134.6 121.679 133.791 120.959 133.028C120.359 132.396 119.934 131.619 119.727 130.772C119.52 129.926 119.537 129.04 119.777 128.202L124.944 114.185C125.087 113.835 125.15 113.457 125.13 113.078C125.11 112.7 125.006 112.331 124.826 111.998C124.646 111.665 124.394 111.376 124.089 111.152C123.784 110.927 123.433 110.773 123.061 110.701L115.412 108.999C114.57 108.848 113.702 108.96 112.925 109.318C112.148 109.676 111.499 110.263 111.067 111.001L103.878 124.718C102.888 126.311 101.338 127.475 99.5324 127.982C97.9258 128.403 96.3475 128.925 94.8066 129.544C94.464 129.704 94.0911 129.787 93.7132 129.789C93.3354 129.791 92.9616 129.711 92.6174 129.555C92.2732 129.399 91.9668 129.171 91.7191 128.886C91.4714 128.6 91.2882 128.265 91.1822 127.902L88.4989 119.412C88.4126 119.085 88.2454 118.786 88.0126 118.542C87.7799 118.298 87.4893 118.116 87.1677 118.015C86.8461 117.913 86.5039 117.894 86.173 117.959C85.8421 118.025 85.5332 118.173 85.2749 118.39L73.8009 127.402C73.111 128.01 72.5593 128.759 72.1828 129.598C71.8064 130.438 71.6138 131.348 71.6181 132.268L72.299 143.181C72.3006 145.091 71.6744 146.948 70.5168 148.468C68.6242 150.726 66.8464 153.079 65.1903 155.516C64.641 156.236 63.936 156.823 63.128 157.232C62.3201 157.641 61.4301 157.863 60.5246 157.879L53.1555 157.519C52.2803 157.512 51.4206 157.75 50.6738 158.207C49.927 158.663 49.323 159.32 48.9303 160.102L41.9818 175.481C41.813 175.844 41.719 176.238 41.7055 176.638C41.692 177.038 41.7591 177.437 41.903 177.811C42.0469 178.184 42.2646 178.525 42.543 178.813C42.8214 179.101 43.1549 179.33 43.5237 179.486L49.531 182.029C50.2561 182.387 50.8443 182.972 51.2058 183.695C51.5674 184.418 51.6824 185.24 51.5335 186.034C50.974 188.479 50.5462 190.952 50.2519 193.443C49.9666 195.336 49.0987 197.093 47.7689 198.469L37.6164 207.821C36.9758 208.475 36.4888 209.264 36.1909 210.13C35.893 210.996 35.7917 211.917 35.8943 212.827L37.8968 223.901C37.9058 224.247 38.0134 224.584 38.2068 224.871C38.4001 225.158 38.6713 225.384 38.9885 225.523C39.3058 225.662 39.6561 225.707 39.9982 225.654C40.3404 225.601 40.6603 225.451 40.9205 225.223L51.073 218.534C51.7301 218.14 52.5143 218.016 53.261 218.188C54.0077 218.36 54.6589 218.814 55.0779 219.456C55.6792 220.316 56.3489 221.126 57.0803 221.878C57.6871 222.51 58.1174 223.291 58.3283 224.141C58.5391 224.991 58.5231 225.882 58.2818 226.724L53.0954 240.742C52.9523 241.101 52.8922 241.488 52.9196 241.873C52.9471 242.259 53.0614 242.633 53.254 242.968C53.4466 243.303 53.7125 243.591 54.0318 243.808C54.3512 244.026 54.7156 244.169 55.0979 244.226L62.7473 245.928C63.5898 246.088 64.4612 245.98 65.2399 245.621C66.0187 245.262 66.6663 244.67 67.0926 243.926L74.2814 230.209C75.2829 228.627 76.8284 227.466 78.6267 226.945C80.2303 226.536 81.8028 226.014 83.3325 225.383C83.6764 225.224 84.0507 225.141 84.4296 225.14C84.8086 225.14 85.1831 225.221 85.5275 225.379C85.872 225.537 86.1781 225.768 86.4249 226.055C86.6716 226.343 86.8532 226.68 86.957 227.045L89.5401 235.636C89.6248 235.965 89.7921 236.268 90.0263 236.515C90.2604 236.762 90.5537 236.945 90.8784 237.048C91.2031 237.15 91.5484 237.168 91.8819 237.099C92.2153 237.031 92.5259 236.879 92.7841 236.657L104.258 227.646C104.945 227.035 105.495 226.285 105.871 225.446C106.247 224.608 106.441 223.699 106.441 222.78L105.74 211.866C105.738 209.956 106.365 208.099 107.522 206.58C109.415 204.321 111.193 201.968 112.849 199.531C113.398 198.811 114.103 198.224 114.911 197.815C115.719 197.406 116.609 197.185 117.514 197.168L124.904 197.528C125.78 197.529 126.639 197.286 127.385 196.826C128.132 196.366 128.735 195.708 129.129 194.925L136.057 179.386C136.235 179.024 136.336 178.63 136.354 178.227C136.372 177.824 136.306 177.423 136.162 177.046C136.017 176.67 135.796 176.328 135.512 176.042C135.229 175.755 134.89 175.53 134.515 175.381L128.508 172.838C127.759 172.481 127.153 171.881 126.789 171.135C126.425 170.39 126.325 169.543 126.506 168.733C127.055 166.287 127.476 163.814 127.767 161.324C128.057 159.426 128.924 157.665 130.25 156.277L140.423 146.926C141.015 146.28 141.462 145.516 141.735 144.684C142.008 143.851 142.1 142.97 142.005 142.1ZM93.0244 201.153C80.5891 210.925 68.6946 208.262 66.4518 195.145C64.2091 182.029 72.4592 163.586 84.8944 153.814C97.3297 144.042 109.204 146.705 111.467 159.822C113.73 172.938 105.46 191.381 93.0244 201.153Z" fill="black"/>
<path opacity="0.3" d="M220.894 149.031C220.659 148.907 220.393 148.855 220.128 148.879C219.864 148.903 219.612 149.004 219.403 149.168L216.352 151.187L215.664 153.022C215.493 153.611 215.48 154.234 215.624 154.83C215.769 155.425 216.068 155.972 216.49 156.417C216.999 156.954 217.466 157.53 217.889 158.137C218.036 158.367 218.227 158.566 218.45 158.722C218.674 158.877 218.927 158.987 219.193 159.045C219.46 159.102 219.736 159.107 220.004 159.057C220.272 159.008 220.528 158.906 220.756 158.757L227.913 154.169C228.123 154.016 228.37 153.923 228.628 153.899C228.886 153.875 229.147 153.92 229.381 154.031L220.894 149.031ZM209.884 175.295C208.874 169.492 205.296 166.602 200.41 166.992C200.866 168.082 201.197 169.221 201.396 170.386C202.979 179.562 197.153 192.614 188.413 199.496C185.81 201.709 182.625 203.126 179.238 203.579C182.105 209.749 189.377 210.323 196.923 204.381C205.663 197.477 211.466 184.471 209.884 175.295ZM210.044 136.047C209.867 135.94 209.673 135.862 209.471 135.818L204.103 134.625C203.512 134.508 202.899 134.581 202.352 134.832C201.804 135.083 201.349 135.5 201.052 136.025L195.96 145.682C195.684 146.187 195.3 146.626 194.836 146.966C194.569 147.198 194.277 147.398 193.964 147.563L195.547 152.838C195.621 153.093 195.75 153.329 195.924 153.53C196.098 153.73 196.313 153.89 196.556 153.999C196.798 154.108 197.06 154.164 197.326 154.161C197.591 154.159 197.853 154.099 198.093 153.985C199.172 153.54 200.284 153.179 201.419 152.907C202.109 152.686 202.753 152.344 203.323 151.898C203.795 151.55 204.187 151.104 204.47 150.59L209.539 140.933C209.843 140.414 210.298 140 210.843 139.746C211.388 139.492 211.997 139.41 212.59 139.511L217.981 140.727C218.174 140.768 218.359 140.837 218.531 140.933L210.044 136.047ZM194.859 229.591C194.619 229.366 194.445 229.081 194.354 228.765L192.542 222.709C192.468 222.454 192.34 222.219 192.165 222.018C191.991 221.818 191.776 221.657 191.534 221.548C191.292 221.439 191.029 221.384 190.763 221.387C190.498 221.389 190.236 221.449 189.996 221.562C188.918 222.011 187.806 222.372 186.67 222.641C186.311 222.746 185.964 222.893 185.638 223.076L185.867 223.856C185.971 224.245 186.216 224.58 186.555 224.797L194.859 229.591ZM184.537 140.979C184.353 140.88 184.149 140.826 183.94 140.819C183.575 140.825 183.225 140.964 182.954 141.209L174.88 147.54L174.559 147.838L174.352 148.09C174.062 148.478 173.823 148.902 173.641 149.352C173.641 149.352 173.641 149.558 173.641 149.673C173.498 150.086 173.428 150.521 173.435 150.958L173.916 158.642C173.927 159.987 173.482 161.297 172.655 162.358C171.325 163.953 170.077 165.614 168.916 167.336C168.464 167.942 167.853 168.411 167.149 168.689C166.922 168.793 166.684 168.87 166.438 168.918H166.094C165.942 168.941 165.788 168.941 165.636 168.918L160.268 168.689H159.855H159.465L159.052 168.873C158.78 168.989 158.525 169.144 158.295 169.331C157.951 169.623 157.67 169.982 157.469 170.386L152.492 181.42C152.284 181.885 152.254 182.409 152.406 182.895C152.558 183.381 152.882 183.794 153.318 184.058L159.075 187.361C159.269 187.841 159.317 188.368 159.213 188.875C158.811 190.592 158.505 192.331 158.295 194.082C158.106 195.422 157.496 196.667 156.552 197.637L149.395 204.358L149.051 204.748C148.931 204.887 148.831 205.041 148.753 205.207C148.294 205.997 148.109 206.916 148.225 207.822L149.579 215.621C149.601 215.831 149.668 216.033 149.775 216.215C149.882 216.397 150.026 216.554 150.198 216.676L158.662 221.562C158.469 221.435 158.306 221.266 158.187 221.068C158.068 220.869 157.995 220.646 157.974 220.415L156.644 212.616C156.542 212.125 156.542 211.617 156.644 211.125C156.819 210.353 157.209 209.645 157.768 209.084L164.833 202.569C165.759 201.596 166.368 200.364 166.576 199.037C166.775 197.324 167.073 195.581 167.471 193.807C167.59 193.235 167.515 192.64 167.257 192.117C167 191.593 166.574 191.17 166.048 190.916L161.851 189.15C161.596 189.04 161.366 188.881 161.172 188.682C160.979 188.483 160.827 188.248 160.725 187.991C160.623 187.733 160.572 187.457 160.576 187.18C160.581 186.903 160.64 186.629 160.75 186.375L165.636 175.433C165.828 175.024 166.11 174.663 166.461 174.378C167.062 173.865 167.828 173.588 168.618 173.598L173.802 173.85C174.322 173.861 174.838 173.759 175.315 173.552C176.025 173.273 176.638 172.795 177.082 172.176C178.252 170.478 179.513 168.804 180.844 167.221C181.658 166.155 182.094 164.847 182.082 163.505L181.601 155.843C181.582 155.391 181.652 154.939 181.807 154.513C182.037 153.69 182.508 152.955 183.16 152.403L191.212 146.049C191.423 145.849 191.693 145.721 191.981 145.684C192.27 145.647 192.562 145.703 192.817 145.842L184.537 140.979ZM172.425 222.503C172.586 221.912 172.593 221.289 172.444 220.695C172.296 220.1 171.997 219.554 171.577 219.108C171.075 218.57 170.615 217.995 170.2 217.388C170.055 217.156 169.866 216.955 169.643 216.797C169.42 216.639 169.168 216.527 168.901 216.467C168.634 216.407 168.358 216.401 168.089 216.449C167.82 216.497 167.563 216.597 167.333 216.745L163.25 219.429L160.268 227.458C160.077 227.862 160.047 228.323 160.183 228.749C160.32 229.175 160.612 229.533 161.002 229.751L169.535 234.66C169.149 234.438 168.86 234.08 168.724 233.655C168.589 233.231 168.616 232.772 168.801 232.366L172.425 222.503Z" fill="black"/>
<path d="M164.967 202.638L157.971 209.153C157.412 209.714 157.023 210.422 156.847 211.194L148.383 206.286C148.476 205.896 148.614 205.519 148.796 205.162C148.873 204.996 148.974 204.841 149.094 204.703L149.438 204.313L156.526 197.821L164.967 202.638Z" fill="#F7921E"/>
<path d="M175.544 173.552C175.067 173.758 174.551 173.86 174.031 173.85L168.846 173.597C168.057 173.587 167.291 173.865 166.69 174.377L158.203 169.468C158.433 169.281 158.687 169.126 158.96 169.01L159.373 168.826H159.763H160.176H160.268L165.452 169.078C165.604 169.101 165.758 169.101 165.91 169.078H166.254L166.92 168.849L175.544 173.552Z" fill="#F7921E"/>
<path d="M229.375 153.894C229.139 153.782 228.875 153.739 228.615 153.772C228.354 153.804 228.109 153.91 227.907 154.077L220.75 158.665C220.28 158.95 219.717 159.039 219.182 158.915C218.646 158.791 218.18 158.462 217.883 158C217.468 157.394 216.999 156.826 216.484 156.303C216.062 155.853 215.764 155.302 215.619 154.703C215.474 154.104 215.488 153.477 215.658 152.885L216.346 151.073L219.397 149.054C219.605 148.887 219.857 148.785 220.122 148.76C220.387 148.736 220.654 148.79 220.888 148.916L229.375 153.894Z" fill="#F7921E"/>
<path d="M218.523 140.933C218.351 140.837 218.166 140.768 217.973 140.727L212.582 139.511C211.99 139.41 211.38 139.492 210.835 139.746C210.29 140 209.835 140.414 209.532 140.933L204.462 150.591C204.179 151.104 203.788 151.55 203.315 151.898L194.828 147.012C195.293 146.672 195.676 146.233 195.952 145.728L201.044 136.07C201.341 135.546 201.796 135.129 202.344 134.878C202.891 134.627 203.504 134.554 204.095 134.671L209.463 135.864C209.665 135.908 209.859 135.986 210.036 136.093L218.523 140.933Z" fill="#F7921E"/>
<path d="M193.052 145.842C192.797 145.702 192.504 145.647 192.216 145.684C191.927 145.721 191.658 145.849 191.447 146.048L183.395 152.402C182.743 152.954 182.271 153.69 182.042 154.513L173.555 149.627C173.555 149.627 173.555 149.397 173.555 149.306C173.736 148.856 173.975 148.432 174.266 148.044L174.472 147.792L174.793 147.493L182.868 141.162C183.139 140.918 183.489 140.779 183.854 140.772C184.062 140.779 184.267 140.834 184.45 140.933L193.052 145.842Z" fill="#F7921E"/>
<path d="M231.382 162.817L230.029 155.018C230.02 154.775 229.942 154.539 229.805 154.339C229.668 154.138 229.476 153.98 229.253 153.884C229.029 153.788 228.783 153.757 228.543 153.796C228.302 153.834 228.078 153.94 227.896 154.101L220.739 158.688C220.27 158.979 219.705 159.072 219.168 158.947C218.631 158.822 218.165 158.49 217.871 158.023C217.451 157.427 216.991 156.86 216.495 156.326C216.065 155.886 215.76 155.34 215.611 154.743C215.461 154.147 215.474 153.521 215.647 152.931L219.294 143.067C219.398 142.82 219.445 142.553 219.432 142.285C219.418 142.018 219.345 141.756 219.217 141.521C219.09 141.285 218.911 141.081 218.694 140.924C218.477 140.767 218.227 140.66 217.963 140.613L212.573 139.42C211.982 139.307 211.37 139.38 210.823 139.631C210.277 139.882 209.822 140.297 209.522 140.819L204.453 150.476C203.756 151.593 202.668 152.411 201.402 152.77C200.268 153.057 199.157 153.425 198.076 153.871C197.834 153.984 197.571 154.043 197.304 154.044C197.037 154.045 196.774 153.988 196.531 153.877C196.289 153.765 196.074 153.603 195.901 153.4C195.728 153.197 195.601 152.958 195.53 152.701L193.717 146.668C193.677 146.423 193.569 146.193 193.406 146.005C193.243 145.816 193.032 145.677 192.795 145.601C192.558 145.525 192.304 145.516 192.062 145.575C191.82 145.634 191.599 145.758 191.424 145.934L183.349 152.288C182.871 152.72 182.489 153.247 182.228 153.836C181.968 154.425 181.834 155.062 181.835 155.706L182.317 163.391C182.321 164.735 181.877 166.042 181.056 167.107C179.725 168.69 178.486 170.364 177.294 172.084C176.913 172.595 176.418 173.011 175.848 173.297C175.279 173.584 174.651 173.734 174.013 173.736L168.829 173.484C168.211 173.485 167.606 173.657 167.08 173.98C166.553 174.304 166.127 174.768 165.847 175.319L160.962 186.26C160.852 186.513 160.793 186.785 160.789 187.061C160.786 187.337 160.836 187.61 160.939 187.866C161.041 188.122 161.193 188.355 161.386 188.552C161.579 188.749 161.809 188.906 162.063 189.013L166.237 190.802C166.767 191.052 167.198 191.473 167.46 191.997C167.722 192.522 167.8 193.119 167.683 193.693C167.3 195.466 167.002 197.21 166.788 198.923C166.58 200.25 165.971 201.482 165.045 202.455L157.98 209.153C157.528 209.614 157.186 210.171 156.979 210.783C156.773 211.395 156.707 212.045 156.787 212.686L157.98 220.416C157.988 220.659 158.066 220.895 158.203 221.096C158.341 221.296 158.532 221.454 158.756 221.55C158.979 221.646 159.225 221.677 159.466 221.638C159.706 221.6 159.93 221.494 160.113 221.333L167.27 216.631C167.499 216.483 167.757 216.383 168.026 216.335C168.295 216.287 168.571 216.293 168.837 216.353C169.104 216.413 169.356 216.525 169.58 216.683C169.803 216.841 169.992 217.042 170.137 217.273C170.559 217.875 171.019 218.45 171.513 218.994C171.943 219.433 172.249 219.98 172.398 220.576C172.547 221.173 172.535 221.798 172.362 222.389L168.715 232.252C168.615 232.5 168.571 232.766 168.587 233.032C168.602 233.298 168.676 233.558 168.803 233.792C168.93 234.027 169.107 234.23 169.322 234.388C169.537 234.546 169.784 234.655 170.045 234.707L175.436 235.899C176.029 236.011 176.642 235.933 177.189 235.678C177.737 235.423 178.19 235.003 178.486 234.477L183.556 224.843C184.254 223.728 185.341 222.91 186.607 222.549C187.737 222.26 188.848 221.899 189.933 221.471C190.172 221.354 190.435 221.29 190.701 221.286C190.968 221.281 191.232 221.336 191.476 221.446C191.719 221.555 191.935 221.717 192.108 221.92C192.282 222.122 192.408 222.361 192.479 222.618L194.291 228.674C194.335 228.918 194.445 229.145 194.609 229.33C194.773 229.516 194.985 229.652 195.222 229.726C195.459 229.799 195.711 229.806 195.951 229.746C196.191 229.686 196.411 229.561 196.585 229.385L204.659 223.031C205.141 222.602 205.528 222.075 205.792 221.486C206.057 220.897 206.195 220.259 206.196 219.613L205.714 211.929C205.702 210.587 206.138 209.279 206.953 208.213C208.29 206.626 209.546 204.972 210.715 203.258C211.099 202.749 211.594 202.334 212.163 202.044C212.731 201.754 213.357 201.596 213.995 201.583L219.179 201.859C219.796 201.853 220.399 201.679 220.925 201.355C221.45 201.032 221.878 200.572 222.161 200.024L227.047 189.082C227.16 188.828 227.221 188.554 227.227 188.276C227.233 187.997 227.183 187.721 227.081 187.462C226.978 187.204 226.825 186.968 226.63 186.77C226.435 186.571 226.202 186.414 225.946 186.306L221.771 184.517C221.241 184.267 220.811 183.846 220.549 183.322C220.287 182.798 220.208 182.201 220.326 181.627C220.722 179.909 221.021 178.171 221.221 176.42C221.429 175.086 222.036 173.846 222.964 172.864L230.121 166.304C230.572 165.849 230.918 165.302 231.136 164.7C231.354 164.098 231.438 163.455 231.382 162.817ZM196.975 204.359C188.235 211.241 179.863 209.36 178.28 200.184C176.697 191.009 182.501 177.957 191.263 171.075C200.026 164.194 208.375 166.075 209.958 175.273C211.541 184.471 205.668 197.477 196.975 204.359Z" fill="#F7921E"/>
<path opacity="0.2" d="M231.382 162.817L230.029 155.018C230.02 154.775 229.942 154.539 229.805 154.339C229.668 154.138 229.476 153.98 229.253 153.884C229.029 153.788 228.783 153.757 228.543 153.796C228.302 153.834 228.078 153.94 227.896 154.101L220.739 158.688C220.27 158.979 219.705 159.072 219.168 158.947C218.631 158.822 218.165 158.49 217.871 158.023C217.451 157.427 216.991 156.86 216.495 156.326C216.065 155.886 215.76 155.34 215.611 154.743C215.461 154.147 215.474 153.521 215.647 152.931L219.294 143.067C219.398 142.82 219.445 142.553 219.432 142.285C219.418 142.018 219.345 141.756 219.217 141.521C219.09 141.285 218.911 141.081 218.694 140.924C218.477 140.767 218.227 140.66 217.963 140.613L212.573 139.42C211.982 139.307 211.37 139.38 210.823 139.631C210.277 139.882 209.822 140.297 209.522 140.819L204.453 150.476C203.756 151.593 202.668 152.411 201.402 152.77C200.268 153.057 199.157 153.425 198.076 153.871C197.834 153.984 197.571 154.043 197.304 154.044C197.037 154.045 196.774 153.988 196.531 153.877C196.289 153.765 196.074 153.603 195.901 153.4C195.728 153.197 195.601 152.958 195.53 152.701L193.717 146.668C193.677 146.423 193.569 146.193 193.406 146.005C193.243 145.816 193.032 145.677 192.795 145.601C192.558 145.525 192.304 145.516 192.062 145.575C191.82 145.634 191.599 145.758 191.424 145.934L183.349 152.288C182.871 152.72 182.489 153.247 182.228 153.836C181.968 154.425 181.834 155.062 181.835 155.706L182.317 163.391C182.321 164.735 181.877 166.042 181.056 167.107C179.725 168.69 178.486 170.364 177.294 172.084C176.913 172.595 176.418 173.011 175.848 173.297C175.279 173.584 174.651 173.734 174.013 173.736L168.829 173.484C168.211 173.485 167.606 173.657 167.08 173.98C166.553 174.304 166.127 174.768 165.847 175.319L160.962 186.26C160.852 186.513 160.793 186.785 160.789 187.061C160.786 187.337 160.836 187.61 160.939 187.866C161.041 188.122 161.193 188.355 161.386 188.552C161.579 188.749 161.809 188.906 162.063 189.013L166.237 190.802C166.767 191.052 167.198 191.473 167.46 191.997C167.722 192.522 167.8 193.119 167.683 193.693C167.3 195.466 167.002 197.21 166.788 198.923C166.58 200.25 165.971 201.482 165.045 202.455L157.98 209.153C157.528 209.614 157.186 210.171 156.979 210.783C156.773 211.395 156.707 212.045 156.787 212.686L157.98 220.416C157.988 220.659 158.066 220.895 158.203 221.096C158.341 221.296 158.532 221.454 158.756 221.55C158.979 221.646 159.225 221.677 159.466 221.638C159.706 221.6 159.93 221.494 160.113 221.333L167.27 216.631C167.499 216.483 167.757 216.383 168.026 216.335C168.295 216.287 168.571 216.293 168.837 216.353C169.104 216.413 169.356 216.525 169.58 216.683C169.803 216.841 169.992 217.042 170.137 217.273C170.559 217.875 171.019 218.45 171.513 218.994C171.943 219.433 172.249 219.98 172.398 220.576C172.547 221.173 172.535 221.798 172.362 222.389L168.715 232.252C168.615 232.5 168.571 232.766 168.587 233.032C168.602 233.298 168.676 233.558 168.803 233.792C168.93 234.027 169.107 234.23 169.322 234.388C169.537 234.546 169.784 234.655 170.045 234.707L175.436 235.899C176.029 236.011 176.642 235.933 177.189 235.678C177.737 235.423 178.19 235.003 178.486 234.477L183.556 224.843C184.254 223.728 185.341 222.91 186.607 222.549C187.737 222.26 188.848 221.899 189.933 221.471C190.172 221.354 190.435 221.29 190.701 221.286C190.968 221.281 191.232 221.336 191.476 221.446C191.719 221.555 191.935 221.717 192.108 221.92C192.282 222.122 192.408 222.361 192.479 222.618L194.291 228.674C194.335 228.918 194.445 229.145 194.609 229.33C194.773 229.516 194.985 229.652 195.222 229.726C195.459 229.799 195.711 229.806 195.951 229.746C196.191 229.686 196.411 229.561 196.585 229.385L204.659 223.031C205.141 222.602 205.528 222.075 205.792 221.486C206.057 220.897 206.195 220.259 206.196 219.613L205.714 211.929C205.702 210.587 206.138 209.279 206.953 208.213C208.29 206.626 209.546 204.972 210.715 203.258C211.099 202.749 211.594 202.334 212.163 202.044C212.731 201.754 213.357 201.596 213.995 201.583L219.179 201.859C219.796 201.853 220.399 201.679 220.925 201.355C221.45 201.032 221.878 200.572 222.161 200.024L227.047 189.082C227.16 188.828 227.221 188.554 227.227 188.276C227.233 187.997 227.183 187.721 227.081 187.462C226.978 187.204 226.825 186.968 226.63 186.77C226.435 186.571 226.202 186.414 225.946 186.306L221.771 184.517C221.241 184.267 220.811 183.846 220.549 183.322C220.287 182.798 220.208 182.201 220.326 181.627C220.722 179.909 221.021 178.171 221.221 176.42C221.429 175.086 222.036 173.846 222.964 172.864L230.121 166.304C230.572 165.849 230.918 165.302 231.136 164.7C231.354 164.098 231.438 163.455 231.382 162.817ZM196.975 204.359C188.235 211.241 179.863 209.36 178.28 200.184C176.697 191.009 182.501 177.957 191.263 171.075C200.026 164.194 208.375 166.075 209.958 175.273C211.541 184.471 205.668 197.477 196.975 204.359Z" fill="black"/>
<path d="M220.894 149.031C220.659 148.907 220.393 148.855 220.128 148.879C219.864 148.903 219.612 149.004 219.403 149.168L216.352 151.187L215.664 153.022C215.493 153.611 215.48 154.234 215.624 154.83C215.769 155.425 216.068 155.972 216.49 156.417C216.999 156.954 217.466 157.53 217.889 158.137C218.036 158.367 218.227 158.566 218.45 158.722C218.674 158.877 218.927 158.987 219.193 159.045C219.46 159.102 219.736 159.107 220.004 159.057C220.272 159.008 220.528 158.906 220.756 158.757L227.913 154.169C228.123 154.016 228.37 153.923 228.628 153.899C228.886 153.875 229.147 153.92 229.381 154.031L220.894 149.031ZM209.884 175.295C208.874 169.492 205.296 166.602 200.41 166.992C200.866 168.082 201.197 169.221 201.396 170.386C202.979 179.562 197.153 192.614 188.413 199.496C185.81 201.709 182.625 203.126 179.238 203.579C182.105 209.749 189.377 210.323 196.923 204.381C205.663 197.477 211.466 184.471 209.884 175.295ZM210.044 136.047C209.867 135.94 209.673 135.862 209.471 135.818L204.103 134.625C203.512 134.508 202.899 134.581 202.352 134.832C201.804 135.083 201.349 135.5 201.052 136.025L195.96 145.682C195.684 146.187 195.3 146.626 194.836 146.966C194.569 147.198 194.277 147.398 193.964 147.563L195.547 152.838C195.621 153.093 195.75 153.329 195.924 153.53C196.098 153.73 196.313 153.89 196.556 153.999C196.798 154.108 197.06 154.164 197.326 154.161C197.591 154.159 197.853 154.099 198.093 153.985C199.172 153.54 200.284 153.179 201.419 152.907C202.109 152.686 202.753 152.344 203.323 151.898C203.795 151.55 204.187 151.104 204.47 150.59L209.539 140.933C209.843 140.414 210.298 140 210.843 139.746C211.388 139.492 211.997 139.41 212.59 139.511L217.981 140.727C218.174 140.768 218.359 140.837 218.531 140.933L210.044 136.047ZM194.859 229.591C194.619 229.366 194.445 229.081 194.354 228.765L192.542 222.709C192.468 222.454 192.34 222.219 192.165 222.018C191.991 221.818 191.776 221.657 191.534 221.548C191.292 221.439 191.029 221.384 190.763 221.387C190.498 221.389 190.236 221.449 189.996 221.562C188.918 222.011 187.806 222.372 186.67 222.641C186.311 222.746 185.964 222.893 185.638 223.076L185.867 223.856C185.971 224.245 186.216 224.58 186.555 224.797L194.859 229.591ZM184.537 140.979C184.353 140.88 184.149 140.826 183.94 140.819C183.575 140.825 183.225 140.964 182.954 141.209L174.88 147.54L174.559 147.838L174.352 148.09C174.062 148.478 173.823 148.902 173.641 149.352C173.641 149.352 173.641 149.558 173.641 149.673C173.498 150.086 173.428 150.521 173.435 150.958L173.916 158.642C173.927 159.987 173.482 161.297 172.655 162.358C171.325 163.953 170.077 165.614 168.916 167.336C168.464 167.942 167.853 168.411 167.149 168.689C166.922 168.793 166.684 168.87 166.438 168.918H166.094C165.942 168.941 165.788 168.941 165.636 168.918L160.268 168.689H159.855H159.465L159.052 168.873C158.78 168.989 158.525 169.144 158.295 169.331C157.951 169.623 157.67 169.982 157.469 170.386L152.492 181.42C152.284 181.885 152.254 182.409 152.406 182.895C152.558 183.381 152.882 183.794 153.318 184.058L159.075 187.361C159.269 187.841 159.317 188.368 159.213 188.875C158.811 190.592 158.505 192.331 158.295 194.082C158.106 195.422 157.496 196.667 156.552 197.637L149.395 204.358L149.051 204.748C148.931 204.887 148.831 205.041 148.753 205.207C148.294 205.997 148.109 206.916 148.225 207.822L149.579 215.621C149.601 215.831 149.668 216.033 149.775 216.215C149.882 216.397 150.026 216.554 150.198 216.676L158.662 221.562C158.469 221.435 158.306 221.266 158.187 221.068C158.068 220.869 157.995 220.646 157.974 220.415L156.644 212.616C156.542 212.125 156.542 211.617 156.644 211.125C156.819 210.353 157.209 209.645 157.768 209.084L164.833 202.569C165.759 201.596 166.368 200.364 166.576 199.037C166.775 197.324 167.073 195.581 167.471 193.807C167.59 193.235 167.515 192.64 167.257 192.117C167 191.593 166.574 191.17 166.048 190.916L161.851 189.15C161.596 189.04 161.366 188.881 161.172 188.682C160.979 188.483 160.827 188.248 160.725 187.991C160.623 187.733 160.572 187.457 160.576 187.18C160.581 186.903 160.64 186.629 160.75 186.375L165.636 175.433C165.828 175.024 166.11 174.663 166.461 174.378C167.062 173.865 167.828 173.588 168.618 173.598L173.802 173.85C174.322 173.861 174.838 173.759 175.315 173.552C176.025 173.273 176.638 172.795 177.082 172.176C178.252 170.478 179.513 168.804 180.844 167.221C181.658 166.155 182.094 164.847 182.082 163.505L181.601 155.843C181.582 155.391 181.652 154.939 181.807 154.513C182.037 153.69 182.508 152.955 183.16 152.403L191.212 146.049C191.423 145.849 191.693 145.721 191.981 145.684C192.27 145.647 192.562 145.703 192.817 145.842L184.537 140.979ZM172.425 222.503C172.586 221.912 172.593 221.289 172.444 220.695C172.296 220.1 171.997 219.554 171.577 219.108C171.075 218.57 170.615 217.995 170.2 217.388C170.055 217.156 169.866 216.955 169.643 216.797C169.42 216.639 169.168 216.527 168.901 216.467C168.634 216.407 168.358 216.401 168.089 216.449C167.82 216.497 167.563 216.597 167.333 216.745L163.25 219.429L160.268 227.458C160.077 227.862 160.047 228.323 160.183 228.749C160.32 229.175 160.612 229.533 161.002 229.751L169.535 234.66C169.149 234.438 168.86 234.08 168.724 233.655C168.589 233.231 168.616 232.772 168.801 232.366L172.425 222.503Z" fill="#F7921E"/>
</svg>
