<svg width="156" height="156" viewBox="0 0 156 156" fill="none" xmlns="http://www.w3.org/2000/svg">
<path d="M89.4215 26.4277L144.315 121.334C149.592 130.483 145.265 138 134.673 138H20.5572C18.6067 138 16.6904 137.487 15.0008 136.512C13.3112 135.537 11.9076 134.136 10.9307 132.447C9.95391 130.759 9.43823 128.844 9.43541 126.893C9.43258 124.943 9.94273 123.026 10.9147 121.334L65.8087 26.4277C72.1485 15.1908 82.9299 15.1908 89.4215 26.4277Z" fill="#F7921E"/>
<path d="M73.7805 102.921H82.2082C82.9192 102.947 83.6148 102.709 84.1613 102.254C84.7078 101.798 85.0668 101.157 85.1693 100.453L88.586 51.5571C88.5978 51.2201 88.5381 50.8843 88.411 50.572C88.2839 50.2596 88.0922 49.9777 87.8484 49.7446C87.6046 49.5116 87.3143 49.3328 86.9965 49.2199C86.6787 49.107 86.3407 49.0626 86.0045 49.0895H70.0222C69.6948 49.0523 69.3631 49.0843 69.0488 49.1834C68.7344 49.2824 68.4444 49.4464 68.1974 49.6648C67.9505 49.8831 67.7522 50.1508 67.6153 50.4506C67.4784 50.7504 67.406 51.0757 67.4028 51.4052L70.8194 100.757C70.9719 101.412 71.3547 101.991 71.8982 102.389C72.4416 102.786 73.1096 102.974 73.7805 102.921Z" fill="white"/>
<path d="M77.9967 126.612C79.7011 126.612 81.3672 126.106 82.7843 125.159C84.2015 124.213 85.306 122.867 85.9583 121.292C86.6105 119.717 86.7811 117.985 86.4486 116.313C86.1161 114.641 85.2954 113.106 84.0902 111.901C82.885 110.696 81.3495 109.875 79.6779 109.542C78.0063 109.21 76.2736 109.38 74.6989 110.033C73.1243 110.685 71.7784 111.789 70.8315 113.207C69.8846 114.624 69.3792 116.29 69.3792 117.994C69.369 119.129 69.585 120.254 70.0145 121.304C70.444 122.354 71.0784 123.308 71.8806 124.11C72.6828 124.913 73.6369 125.547 74.687 125.976C75.7371 126.406 76.8622 126.622 77.9967 126.612Z" fill="white"/>
</svg>
