<svg width="257" height="256" viewBox="0 0 257 256" fill="none" xmlns="http://www.w3.org/2000/svg">
<path d="M145.417 160.586C141.632 157.902 136.616 157.55 130.983 160.146C116.989 166.528 104.051 188.267 102.07 208.687C100.904 220.811 103.896 229.744 109.441 233.661C111.862 235.355 121.345 242.111 123.854 243.849C127.616 246.489 132.655 246.797 138.2 244.223C152.194 237.842 165.132 216.124 167.112 195.815C168.256 183.756 165.33 174.867 159.851 170.928C157.453 169.036 147.903 162.325 145.417 160.586Z" fill="#F7921E"/>
<path opacity="0.3" d="M145.417 160.586C141.632 157.902 136.616 157.55 130.983 160.146C116.989 166.528 104.051 188.267 102.07 208.687C100.904 220.811 103.896 229.744 109.441 233.661C111.862 235.355 121.345 242.111 123.854 243.849C127.616 246.489 132.655 246.797 138.2 244.223C152.194 237.842 165.132 216.124 167.112 195.815C168.256 183.756 165.33 174.867 159.851 170.928C157.453 169.036 147.903 162.325 145.417 160.586Z" fill="black"/>
<path d="M176 90.0205C164.14 81.6591 148.539 80.6029 130.739 88.7223C100.308 102.607 76.5223 133.962 59.6017 176.539C56.1692 185.209 56.6753 193.834 60.7239 196.937C65.4766 200.59 73.7059 205.871 77.7545 208.995C82.8593 212.912 91.5506 206.641 95.8413 195.793C107.701 165.56 122.993 145.184 144.403 135.326C151.318 131.839 159.18 130.696 166.802 132.07C169.327 135.818 171.284 139.918 172.611 144.238C173.038 145.863 173.99 147.301 175.318 148.331L192.458 160.455C196.111 163.007 202.008 160.455 206.804 153.546C211.821 146.306 214.066 136.471 212.063 130.309C208.015 117.767 201.546 108.306 193.25 102.299C190.478 100.186 178.904 92.0449 176 90.0205Z" fill="#F7921E"/>
<path opacity="0.3" d="M176 90.0205C164.14 81.6591 148.539 80.6029 130.739 88.7223C100.308 102.607 76.5223 133.962 59.6017 176.539C56.1692 185.209 56.6753 193.834 60.7239 196.937C65.4766 200.59 73.7059 205.871 77.7545 208.995C82.8593 212.912 91.5506 206.641 95.8413 195.793C107.701 165.56 122.993 145.184 144.403 135.326C151.318 131.839 159.18 130.696 166.802 132.07C169.327 135.818 171.284 139.918 172.611 144.238C173.038 145.863 173.99 147.301 175.318 148.331L192.458 160.455C196.111 163.007 202.008 160.455 206.804 153.546C211.821 146.306 214.066 136.471 212.063 130.309C208.015 117.767 201.546 108.306 193.25 102.299C190.478 100.186 178.904 92.0449 176 90.0205Z" fill="black"/>
<path d="M243.197 67.5768C237.8 53.9329 228.644 42.0993 216.793 33.4489C213.866 31.3586 201.39 22.9971 198.376 21.1488C179.299 9.42078 142.267 4.51393 114.191 18.6184C68.1818 41.7664 36.981 74.0679 14.5155 136.273C9.0367 151.477 13.3274 159.179 17.684 162.677C22.6128 166.528 30.336 171.303 34.6707 174.691C39.5994 178.542 47.8727 172.711 52.4274 162.303C75.0028 111.32 103.035 81.5932 140.133 64.7163C159.232 55.9148 176.417 55.4307 190.587 61.5478C196.447 67.9163 201.113 75.2878 204.361 83.3095C204.9 84.6738 205.825 85.8513 207.023 86.6981L224.076 98.7562C227.772 101.397 233.603 98.9762 238.422 92.023C243.857 84.1237 245.793 73.7159 243.197 67.5768Z" fill="#F7921E"/>
<path opacity="0.3" d="M243.197 67.5768C237.8 53.9329 228.644 42.0993 216.793 33.4489C213.866 31.3586 201.39 22.9971 198.376 21.1488C179.299 9.42078 142.267 4.51393 114.191 18.6184C68.1818 41.7664 36.981 74.0679 14.5155 136.273C9.0367 151.477 13.3274 159.179 17.684 162.677C22.6128 166.528 30.336 171.303 34.6707 174.691C39.5994 178.542 47.8727 172.711 52.4274 162.303C75.0028 111.32 103.035 81.5932 140.133 64.7163C159.232 55.9148 176.417 55.4307 190.587 61.5478C196.447 67.9163 201.113 75.2878 204.361 83.3095C204.9 84.6738 205.825 85.8513 207.023 86.6981L224.076 98.7562C227.772 101.397 233.603 98.9762 238.422 92.023C243.857 84.1237 245.793 73.7159 243.197 67.5768Z" fill="black"/>
<path d="M167.151 195.706C165.171 216.126 152.233 237.843 138.239 244.115C124.245 250.386 114.475 239.12 116.433 218.7C118.392 198.281 131.352 176.541 145.346 170.16C159.34 163.779 169.11 175.287 167.151 195.706Z" fill="#F7921E"/>
<path d="M147.818 100.803C106.231 116.931 87.3303 146.725 74.2382 187.212C71.3778 196.013 71.0697 204.331 77.8028 209.215C85.856 214.122 91.5989 206.861 95.8896 196.013C107.749 165.78 123.042 145.404 144.451 135.547C165.86 125.689 182.891 134.865 189.734 156.516C192.22 164.416 200.472 162.985 206.853 153.766C211.87 146.527 214.114 136.691 212.112 130.53C202.364 99.7905 179.04 88.7006 147.818 100.803Z" fill="#F7921E"/>
<path d="M143.57 30.1484C106.164 41.7664 61.1009 73.5618 32.5625 146.768C28.9099 156.142 25.9615 168.552 34.7628 174.691C41.0338 178.542 47.9649 172.711 52.5196 162.303C75.0951 111.32 103.127 81.5932 140.225 64.7163C177.323 47.8394 207.137 61.2617 221.638 95.3896C224.564 102.365 232.353 100.891 238.514 92.001C243.927 84.1677 245.863 73.6939 243.267 67.5548C225.554 25.9236 191.185 15.3838 143.57 30.1484Z" fill="#F7921E"/>
</svg>
