<svg width="64" height="64" viewBox="0 0 64 64" fill="none" xmlns="http://www.w3.org/2000/svg">
<g clip-path="url(#clip0_778_4256)">
<path d="M18.6013 55.2983C20.0623 56.1367 21.6392 56.1323 22.1235 55.2884C22.6077 54.4446 21.8159 53.0809 20.3549 52.2424C18.8939 51.404 17.317 51.4084 16.8327 52.2523C16.3485 53.0961 17.1403 54.4599 18.6013 55.2983Z" fill="#263238"/>
<path d="M21.6899 55.7046L21.2621 55.4576C21.2714 55.153 21.1885 54.8527 21.0244 54.596C20.4668 53.6235 19.1015 52.8483 17.9878 52.8428C17.6832 52.8301 17.382 52.9104 17.1241 53.0729L16.6964 52.8259L16.7355 53.8851C16.7587 54.1376 16.8409 54.3812 16.9755 54.5962C17.533 55.5686 18.8974 56.3455 20.0121 56.3493C20.2663 56.3559 20.5186 56.3042 20.7498 56.1984L21.6899 55.7046Z" fill="#263238"/>
<path d="M18.8712 54.8209C21.0279 56.0661 23.359 56.0663 24.0778 54.8213C24.7966 53.5763 23.6309 51.5576 21.4742 50.3124C19.3174 49.0672 16.9864 49.067 16.2676 50.312C15.5488 51.557 16.7144 53.5757 18.8712 54.8209Z" fill="#455A64"/>
<path d="M19.1547 54.3298C21.3923 55.6217 23.8108 55.6218 24.5566 54.3301C25.3024 53.0384 24.093 50.944 21.8554 49.6521C19.6178 48.3603 17.1993 48.3601 16.4536 49.6518C15.7078 50.9435 16.9171 53.038 19.1547 54.3298Z" fill="#37474F"/>
<path d="M19.4778 53.7703C21.772 55.0948 24.2515 55.0952 25.0159 53.7712C25.7804 52.4471 24.5403 50.3 22.2461 48.9754C19.9519 47.6509 17.4724 47.6505 16.708 48.9746C15.9435 50.2986 17.1836 52.4457 19.4778 53.7703Z" fill="#455A64"/>
<path d="M19.7999 53.2122C22.1507 54.5694 24.6916 54.5694 25.4753 53.2121C26.2589 51.8548 24.9885 49.6543 22.6377 48.2971C20.2869 46.9398 17.746 46.9399 16.9624 48.2972C16.1787 49.6545 17.4492 51.855 19.7999 53.2122Z" fill="#37474F"/>
<path d="M20.1229 52.6529C22.5303 54.0428 25.1322 54.043 25.9345 52.6534C26.7368 51.2638 25.4357 49.0105 23.0283 47.6206C20.6209 46.2307 18.019 46.2305 17.2167 47.6201C16.4144 49.0098 17.7155 51.263 20.1229 52.6529Z" fill="#455A64"/>
<path d="M20.446 52.0932C22.91 53.5158 25.5729 53.5163 26.3939 52.0943C27.2149 50.6723 25.883 48.3664 23.419 46.9438C20.9551 45.5213 18.2921 45.5208 17.4711 46.9427C16.6502 48.3647 17.9821 50.6706 20.446 52.0932Z" fill="#37474F"/>
<path d="M27.9295 49.9078C28.3276 49.2182 28.2678 48.2664 27.6603 47.2151C26.4455 45.1085 23.4903 43.4023 21.0585 43.4036C19.8444 43.4031 18.9908 43.8298 18.5927 44.5194L17.6762 46.1068C17.278 46.7964 17.3369 47.7499 17.946 48.8021C19.1643 50.9064 22.1196 52.6126 24.5478 52.6136C25.7629 52.6125 26.6165 52.1858 27.013 51.4953C27.167 51.2285 27.7762 50.1771 27.9295 49.9078Z" fill="#F7921E"/>
<path d="M41.6616 15.3467C37.9385 13.1971 33.514 12.6146 29.3614 13.7273C25.2089 14.84 21.6684 17.5567 19.5188 21.2798C13.0836 32.4259 21.2103 39.5836 18.6167 44.0759C18.2035 44.7915 18.2636 45.7804 18.8931 46.8725C20.1546 49.056 23.2221 50.827 25.7437 50.8277C27.0042 50.8268 27.8907 50.3844 28.3039 49.6688C30.8975 45.1765 41.1621 48.6349 47.5964 37.4904C49.7456 33.7669 50.3277 29.3422 49.2148 25.1895C48.1018 21.0368 45.3849 17.4963 41.6616 15.3467Z" fill="#F7921E"/>
<g style="mix-blend-mode:screen" opacity="0.7">
<path d="M41.6616 15.3467C37.9385 13.1971 33.514 12.6146 29.3614 13.7273C25.2089 14.84 21.6684 17.5567 19.5188 21.2798C13.0836 32.4259 21.2103 39.5836 18.6167 44.0759C18.2035 44.7915 18.2636 45.7804 18.8931 46.8725C20.1546 49.056 23.2221 50.827 25.7437 50.8277C27.0042 50.8268 27.8907 50.3844 28.3039 49.6688C30.8975 45.1765 41.1621 48.6349 47.5964 37.4904C49.7456 33.7669 50.3277 29.3422 49.2148 25.1895C48.1018 21.0368 45.3849 17.4963 41.6616 15.3467Z" fill="white" fill-opacity="0.8"/>
</g>
<path opacity="0.25" d="M22.0959 49.2356C24.3335 50.5275 26.7519 50.5276 27.4977 49.2359C28.2435 47.9442 27.0341 45.8498 24.7965 44.5579C22.559 43.266 20.1405 43.2659 19.3947 44.5576C18.6489 45.8493 19.8583 47.9437 22.0959 49.2356Z" fill="#F7921E"/>
<path opacity="0.25" d="M26.34 50.0767C26.0192 50.1663 25.6874 50.2098 25.3545 50.206C23.2451 50.2048 20.6802 48.7239 19.6261 46.8988C19.4563 46.6123 19.3281 46.3032 19.2453 45.9806C19.5659 45.8903 19.8978 45.8468 20.2308 45.8513C22.3411 45.8509 24.906 47.3318 25.9592 49.1586C26.1302 49.4445 26.2584 49.7538 26.34 50.0767Z" fill="#F7921E"/>
<path opacity="0.25" d="M26.34 50.0767C26.0192 50.1663 25.6874 50.2098 25.3545 50.206C23.2451 50.2048 20.6802 48.7239 19.6261 46.8988C19.4563 46.6123 19.3281 46.3032 19.2453 45.9806C19.5659 45.8903 19.8978 45.8468 20.2308 45.8513C22.3411 45.8509 24.906 47.3318 25.9592 49.1586C26.1302 49.4445 26.2584 49.7538 26.34 50.0767Z" fill="#F7921E"/>
<path opacity="0.2" d="M45.5335 25.1374C45.315 25.1131 45.0942 25.1168 44.8766 25.1484C44.0661 25.2639 43.393 25.9075 43.0898 26.6693C42.5042 28.142 43.3236 29.7427 43.4742 31.2284C43.6372 32.8665 43.5083 34.5205 43.0935 36.1135C42.97 36.5866 42.7248 37.3493 42.7214 37.8397C42.7172 38.1542 42.8301 38.4591 43.0382 38.695C43.2462 38.931 43.5346 39.0812 43.8472 39.1163C44.5592 39.1414 45.2385 38.6184 45.622 38.1307C47.9113 35.2172 48.6343 32.4662 48.4501 29.1005C48.3323 27.265 47.5777 25.3829 45.5335 25.1374Z" fill="white" fill-opacity="0.8"/>
<path opacity="0.2" d="M29.3136 36.7303C34.8434 39.9229 41.9142 38.0282 45.1068 32.4985C48.2995 26.9687 46.4048 19.8979 40.8751 16.7053C35.3453 13.5127 28.2745 15.4073 25.0819 20.9371C21.8893 26.4668 23.7839 33.5377 29.3136 36.7303Z" fill="white" fill-opacity="0.8"/>
<path opacity="0.2" d="M41.0925 39.8159C40.9065 39.9859 40.7587 40.1934 40.6589 40.4247C40.559 40.656 40.5092 40.9058 40.513 41.1577C40.5257 41.4305 40.645 41.6873 40.8452 41.8731C41.0454 42.0588 41.3104 42.1585 41.5834 42.1509C41.8628 42.1373 42.1344 42.0542 42.3736 41.9089C42.6127 41.7637 42.8117 41.561 42.9526 41.3193C43.2412 40.8006 43.2252 40.0584 42.6862 39.6735C42.1854 39.3128 41.4844 39.4676 41.0925 39.8159Z" fill="white" fill-opacity="0.8"/>
<path opacity="0.15" d="M21.4696 43.8297C22.1846 41.87 22.2511 40.6355 20.7082 38.2483C19.1653 35.8612 16.36 31.9645 17.4127 26.4677C15.4724 34.7115 20.7831 40.3235 18.6158 44.0774C18.2026 44.7931 18.2627 45.782 18.8922 46.874C19.1691 47.3415 19.5027 47.773 19.8853 48.1587L21.4696 43.8297Z" fill="#F7921E"/>
<path opacity="0.15" d="M27.0906 47.0751C28.4302 45.476 29.4661 44.8011 32.3065 44.9447C35.1469 45.0883 39.9209 45.5675 44.1566 41.9083C37.9875 47.7106 30.4703 45.9165 28.303 49.6704C27.8898 50.386 27.0033 50.8284 25.7428 50.8293C25.1995 50.8231 24.6591 50.75 24.1337 50.6116C24.9796 49.5971 26.2585 48.0693 27.0906 47.0751Z" fill="#F7921E"/>
<path d="M24.6202 49.6282C24.488 49.5496 24.3919 49.4221 24.3528 49.2733C24.3137 49.1245 24.3346 48.9662 24.4111 48.8327C26.0922 45.9634 28.1084 43.3041 30.4174 40.9109C31.0824 40.2165 31.7938 39.5682 32.5468 38.9703C32.1876 38.5421 31.8742 38.0774 31.6117 37.5839C31.1383 36.6977 30.798 35.7467 30.6017 34.7613C29.6515 35.0734 28.6604 35.2432 27.6605 35.2651C27.1025 35.2829 26.5442 35.2412 25.995 35.1409C25.8458 36.0906 25.632 37.0291 25.3552 37.9498C24.4151 41.1464 23.0964 44.2192 21.4269 47.1028C21.3445 47.2336 21.2144 47.3272 21.0642 47.3637C20.914 47.4002 20.7555 47.3768 20.6223 47.2984C20.5562 47.2582 20.4988 47.2055 20.4532 47.143C20.4077 47.0806 20.3749 47.0098 20.3568 46.9347C20.3387 46.8596 20.3356 46.7816 20.3477 46.7053C20.3598 46.629 20.3869 46.5558 20.4274 46.49C22.0338 43.6895 23.3101 40.7123 24.2307 37.6178C24.5064 36.6988 24.7143 35.7607 24.8525 34.8113C23.5048 34.2696 22.7211 33.3018 22.508 32.3355C22.295 31.3691 22.6937 30.4747 23.5087 30.1149C23.7872 29.9778 24.1004 29.9272 24.4079 29.9695C24.7154 30.0119 25.0032 30.1453 25.2342 30.3525C25.9401 30.9766 26.2422 32.2497 26.131 33.9784C26.6262 34.0784 27.1313 34.1202 27.6361 34.1027C28.6051 34.0814 29.5643 33.9033 30.4764 33.5754C30.4059 32.1068 30.7646 30.9054 31.3975 30.2951C31.6569 30.0539 31.987 29.9025 32.3391 29.8634C32.6911 29.8243 33.0464 29.8994 33.3524 30.0777C33.6585 30.256 33.899 30.5281 34.0386 30.8536C34.1781 31.1792 34.2092 31.541 34.1273 31.8856C33.9068 32.7384 33.0255 33.6504 31.7249 34.305C31.8902 35.2598 32.2089 36.1816 32.6688 37.0346C32.9022 37.4832 33.1859 37.9037 33.5144 38.2882C34.9639 37.3399 36.2254 36.9672 37.1133 37.2786C37.4034 37.3814 37.657 37.5672 37.8425 37.8129C38.028 38.0586 38.1373 38.3534 38.1568 38.6606C38.2467 39.5464 37.6689 40.3356 36.7127 40.6171C35.7565 40.8986 34.5364 40.6966 33.4021 39.8015C32.6436 40.3885 31.9303 41.0316 31.2681 41.7255C29.0298 44.0524 27.0695 46.6318 25.4269 49.4115C25.3513 49.5474 25.225 49.6479 25.0756 49.691C24.9261 49.7341 24.7657 49.7164 24.6293 49.6417L24.6202 49.6282ZM24.3826 31.1726C24.2965 31.1226 24.1804 31.1059 23.9814 31.1943C23.5389 31.3879 23.6209 31.9221 23.6503 32.0725C23.7465 32.4006 23.9134 32.7036 24.1392 32.9603C24.3649 33.217 24.6441 33.4212 24.9572 33.5585C24.9945 32.2497 24.7419 31.4771 24.4446 31.2159C24.4257 31.1991 24.4049 31.1845 24.3826 31.1726ZM34.4283 39.0896C34.703 39.2935 35.0187 39.4352 35.3536 39.505C35.6885 39.5748 36.0345 39.5711 36.3678 39.494C36.5219 39.4458 37.0283 39.2548 36.9775 38.7717C36.9497 38.4925 36.8333 38.417 36.7149 38.3823C36.3505 38.245 35.5563 38.4074 34.4283 39.0896ZM32.7428 31.0904C32.6643 31.024 32.5628 30.9911 32.4602 30.999C32.3577 31.0069 32.2623 31.0549 32.1949 31.1326C31.8698 31.4468 31.6386 32.1234 31.6148 33.0203C32.3833 32.5576 32.8593 32.0204 32.9714 31.5846C33.0061 31.489 33.0023 31.3836 32.961 31.2906C32.9196 31.1976 32.8439 31.1242 32.7496 31.0859L32.7428 31.0904Z" fill="white"/>
<path d="M45.6133 15.162C45.5274 15.0889 45.457 14.9994 45.406 14.8988C45.355 14.7982 45.3246 14.6884 45.3164 14.5759C45.3083 14.4634 45.3226 14.3504 45.3586 14.2435C45.3946 14.1366 45.4515 14.038 45.5259 13.9533L48.4637 10.5649C48.5364 10.4779 48.6257 10.4062 48.7264 10.3542C48.8271 10.3022 48.9372 10.2709 49.0503 10.262C49.1633 10.2532 49.2769 10.2671 49.3845 10.3028C49.4921 10.3385 49.5914 10.3955 49.6767 10.4702C49.7618 10.5429 49.8317 10.6317 49.8824 10.7315C49.9331 10.8313 49.9636 10.9402 49.9721 11.0518C49.9806 11.1634 49.967 11.2756 49.9321 11.382C49.8971 11.4883 49.8414 11.5867 49.7684 11.6715L46.8263 15.0672C46.7532 15.1531 46.6637 15.2236 46.5631 15.2746C46.4625 15.3255 46.3527 15.356 46.2403 15.3641C46.1278 15.3722 46.0148 15.3579 45.9079 15.3219C45.801 15.286 45.7023 15.2291 45.6176 15.1546L45.6133 15.162Z" fill="#F4C794"/>
<path d="M36.6881 10.8826C36.5743 10.7845 36.4884 10.6579 36.4394 10.5158C36.3904 10.3737 36.38 10.2212 36.4091 10.0737L37.246 5.64908C37.2664 5.53778 37.3086 5.4316 37.3701 5.33659C37.4315 5.24158 37.5111 5.15961 37.6043 5.09535C37.6974 5.0311 37.8023 4.98582 37.913 4.9621C38.0236 4.93839 38.1378 4.9367 38.2491 4.95714C38.3604 4.97757 38.4666 5.01973 38.5616 5.0812C38.6567 5.14267 38.7386 5.22226 38.8029 5.31541C38.8671 5.40856 38.9124 5.51345 38.9361 5.6241C38.9598 5.73475 38.9615 5.84899 38.9411 5.96029L38.1042 10.3849C38.0846 10.4966 38.0428 10.6032 37.9814 10.6985C37.9199 10.7937 37.8401 10.8757 37.7464 10.9397C37.6528 11.0036 37.5474 11.0482 37.4363 11.0707C37.3252 11.0933 37.2107 11.0934 37.0995 11.0711C36.9487 11.0439 36.8072 10.9791 36.6881 10.8826Z" fill="#F4C794"/>
<path d="M26.8339 11.6125C26.7199 11.5137 26.6342 11.3863 26.5857 11.2434L25.0989 7.01825C25.0618 6.91175 25.046 6.79898 25.0524 6.68638C25.0589 6.57378 25.0875 6.46355 25.1365 6.36199C25.1856 6.26043 25.2542 6.16953 25.3384 6.09448C25.4226 6.01943 25.5207 5.9617 25.6272 5.92459C25.7337 5.88747 25.8465 5.87168 25.9591 5.87815C26.0717 5.88461 26.1819 5.9132 26.2835 5.96226C26.3851 6.01133 26.476 6.07991 26.551 6.1641C26.6261 6.2483 26.6838 6.34644 26.7209 6.45295L28.2077 10.6781C28.2804 10.8581 28.2892 11.0576 28.2328 11.2434C28.1764 11.4291 28.058 11.59 27.8975 11.6991C27.737 11.8083 27.5439 11.8593 27.3505 11.8435C27.157 11.8277 26.9747 11.7462 26.8339 11.6125Z" fill="#F4C794"/>
<path d="M15.2511 14.2993C15.0773 14.1495 14.9701 13.9367 14.9531 13.7079C14.9362 13.479 15.0108 13.2528 15.1606 13.079C15.3104 12.9052 15.5232 12.798 15.752 12.781C15.9809 12.764 16.2071 12.8387 16.3809 12.9885L19.7693 15.9263C19.8553 16.0005 19.926 16.0909 19.9771 16.1924C20.0282 16.2938 20.0589 16.4044 20.0673 16.5177C20.0757 16.631 20.0617 16.7449 20.0261 16.8528C19.9905 16.9607 19.934 17.0605 19.8598 17.1466C19.7856 17.2327 19.6952 17.3033 19.5937 17.3544C19.4922 17.4055 19.3817 17.4362 19.2684 17.4446C19.155 17.453 19.0412 17.439 18.9333 17.4034C18.8254 17.3678 18.7255 17.3113 18.6395 17.2371L15.2511 14.2993Z" fill="#F4C794"/>
<path d="M9.95878 25.3191C9.84491 25.221 9.75911 25.0945 9.7101 24.9524C9.66109 24.8103 9.65064 24.6577 9.67981 24.5102C9.69944 24.3986 9.74121 24.292 9.80266 24.1967C9.86411 24.1015 9.944 24.0194 10.0376 23.9555C10.1312 23.8916 10.2367 23.847 10.3478 23.8244C10.4589 23.8019 10.5734 23.8018 10.6845 23.8241L15.1092 24.6609C15.2202 24.6819 15.326 24.7244 15.4206 24.7863C15.5151 24.8481 15.5966 24.9279 15.6603 25.0212C15.724 25.1145 15.7687 25.2194 15.7919 25.33C15.8151 25.4406 15.8162 25.5546 15.7953 25.6657C15.7744 25.7767 15.7318 25.8825 15.67 25.9771C15.6082 26.0716 15.5284 26.1531 15.4351 26.2168C15.3418 26.2805 15.2368 26.3252 15.1262 26.3484C15.0157 26.3716 14.9016 26.3727 14.7906 26.3518L10.3659 25.5149C10.2159 25.485 10.0759 25.4176 9.95878 25.3191Z" fill="#F4C794"/>
<path d="M47.6664 42.123C47.58 42.0493 47.509 41.9593 47.4575 41.8582C47.4059 41.757 47.3747 41.6467 47.3658 41.5336C47.3477 41.305 47.4212 41.0786 47.57 40.9042C47.7189 40.7298 47.9309 40.6217 48.1595 40.6037C48.388 40.5856 48.6144 40.6591 48.7888 40.8079L52.1845 43.75C52.3583 43.8998 52.4655 44.1125 52.4825 44.3414C52.4995 44.5702 52.4248 44.7965 52.275 44.9703C52.1252 45.1441 51.9125 45.2513 51.6836 45.2683C51.4547 45.2853 51.2285 45.2106 51.0547 45.0608L47.6664 42.123Z" fill="#F4C794"/>
<path d="M51.953 33.2023C51.8396 33.1053 51.7537 32.9802 51.704 32.8395C51.6543 32.6988 51.6425 32.5475 51.6698 32.4007C51.6894 32.2891 51.7312 32.1825 51.7926 32.0872C51.8541 31.992 51.934 31.91 52.0276 31.846C52.1212 31.7821 52.2267 31.7375 52.3378 31.715C52.4489 31.6924 52.5634 31.6923 52.6745 31.7146L57.0992 32.5514C57.3234 32.5937 57.5216 32.7233 57.6503 32.9117C57.779 33.1001 57.8275 33.3319 57.7853 33.5562C57.7431 33.7804 57.6135 33.9786 57.425 34.1073C57.2366 34.236 57.0048 34.2845 56.7806 34.2423L52.3602 33.3981C52.2075 33.3763 52.0653 33.308 51.953 33.2023Z" fill="#F4C794"/>
<path d="M51.2011 23.3349C51.0885 23.2368 51.0018 23.1126 50.9486 22.9731C50.8825 22.7623 50.901 22.5341 51.0003 22.3367C51.0996 22.1394 51.2718 21.9884 51.4805 21.9159L55.713 20.4333C55.8195 20.3962 55.9323 20.3804 56.0449 20.3869C56.1575 20.3933 56.2677 20.4219 56.3693 20.471C56.4708 20.52 56.5617 20.5886 56.6368 20.6728C56.7118 20.757 56.7696 20.8552 56.8067 20.9617C56.8438 21.0682 56.8596 21.1809 56.8531 21.2935C56.8466 21.4061 56.8181 21.5164 56.769 21.6179C56.7199 21.7195 56.6513 21.8104 56.5672 21.8854C56.483 21.9605 56.3848 22.0182 56.2783 22.0553L52.0531 23.5422C51.9057 23.5883 51.7484 23.5934 51.5983 23.5569C51.4482 23.5203 51.3109 23.4436 51.2011 23.3349Z" fill="#F4C794"/>
</g>
<defs>
<clipPath id="clip0_778_4256">
<rect width="64" height="64" fill="white"/>
</clipPath>
</defs>
</svg>
