<svg width="650" height="650" viewBox="0 0 650 650" fill="none" xmlns="http://www.w3.org/2000/svg">
<path d="M44.3582 564.996H605.643C627.378 564.996 644.998 547.376 644.998 525.641V124.356C644.998 102.62 627.378 85.0002 605.643 85.0002H44.3582C22.6229 85.0002 5.00287 102.62 5.00287 124.356V525.641C5.00287 547.376 22.6229 564.996 44.3582 564.996Z" fill="white"/>
<path d="M43.4613 85.002C22.1466 85.002 5 102.541 5 124.344V418.127H72.3626L313.059 124.722H645V124.344C645 102.541 627.853 85.002 606.539 85.002H43.4613ZM397.844 152.435L157.147 445.841L5 446.218V457.847H162.167L402.864 164.442H645V152.435H397.844ZM492.041 192.155L251.344 485.56L5 485.938V497.567H256.364L497.061 204.161H645V192.155H492.041ZM570.071 231.875L329.374 525.28H5V525.658C5 547.461 22.1466 565 43.4613 565H606.539C627.853 565 645 547.461 645 525.658V231.875H570.071Z" fill="#0038A8"/>
</svg>
