<?xml version="1.0" encoding="utf-8"?>
<!-- Generator: Adobe Illustrator 16.0.0, SVG Export Plug-In . SVG Version: 6.00 Build 0)  -->
<!DOCTYPE svg PUBLIC "-//W3C//DTD SVG 1.1//EN" "http://www.w3.org/Graphics/SVG/1.1/DTD/svg11.dtd">
<svg version="1.1" id="Layer_2" xmlns="http://www.w3.org/2000/svg" xmlns:xlink="http://www.w3.org/1999/xlink" x="0px" y="0px"
	 width="276px" height="56px" viewBox="0 0 276 56" enable-background="new 0 0 276 56" xml:space="preserve">
<g>
	<g>
		<path fill="#F39339" stroke="#EB623A" stroke-width="0.3" stroke-miterlimit="10" d="M17.9,35.8c-1.6,2.2-2.5,2-4,0.9
			c-1.5-1.1,0,0-2.1-1.7c-2.1-1.7-3.2-1.4-4.9,0.6c-1.6,2-5.9,7.8-5.9,7.8L8,49c0,0,1.5-1.9,2.6-3.3c1.1-1.4,2.3-1.2,3.4-0.3
			c1.1,0.9,0.3,0.3,1.6,1.3c2.7,2.3,3.8,2,5.5-0.1c1.7-2.1,5.9-8,5.9-8L20,33C20.1,33.1,19.4,33.5,17.9,35.8z"/>
		<path fill="#F39339" stroke="#EB623A" stroke-width="0.3" stroke-miterlimit="10" d="M39.1,18.5c-2.8-2.2-6-2.3-8.4,0.9
			c-2.4,3.2-4.1,5.2-9.7,12.5l7,5.5c0,0,5.3-6.4,6.4-7.9s2.3-1.2,3.4-0.3c1.1,0.9,6.9,5.2,6.9,5.2l5.5-7.1
			C50.1,27.4,41.2,20.1,39.1,18.5z"/>
		<path fill="#F39339" stroke="#EB623A" stroke-width="0.3" stroke-miterlimit="10" d="M64.7,8.4l3.5,2.8l-8,10.2
			c0,0-4.5,5.6-5.3,6.7c-1.1,1.5-2.3,1.2-3.4,0.3c-1.5,1.9-5.8,7.2-5.8,7.2s3.8,3,4.6,3.6c2.9,2.2,5.8,2,8.4-1
			c2.4-2.8,8.4-11.1,8.4-11.1l8.2-10.6l3.1,2.7l1.1-16.1L64.7,8.4z"/>
	</g>
	<g>
		<g>
			<path fill="#F39339" d="M17.9,35.8c-1.6,2.2-2.5,2-4,0.9c-1.5-1.1,0,0-2.1-1.7c-2.1-1.7-3.2-1.4-4.9,0.6c-1.6,2-5.9,7.8-5.9,7.8
				L8,49c0,0,1.5-1.9,2.6-3.3c1.1-1.4,2.3-1.2,3.4-0.3c1.1,0.9,0.3,0.3,1.6,1.3c2.7,2.3,3.8,2,5.5-0.1c1.7-2.1,5.9-8,5.9-8L20,33
				C20.1,33.1,19.4,33.5,17.9,35.8z"/>
			<path fill="#EB623A" d="M8.1,49.5l-7.6-6.1l0.2-0.3c0-0.1,4.3-5.8,6-7.8c1-1.3,1.9-1.8,2.8-1.8c0.7,0,1.5,0.4,2.5,1.2
				c1.1,0.9,1.2,1,1.3,1.1c0,0,0.1,0.1,0.8,0.6c0.7,0.5,1.2,0.8,1.7,0.8c0.6,0,1.2-0.5,1.9-1.5c1.6-2.2,2.2-2.7,2.2-2.8l0.2-0.2
				l7.4,6L27.3,39c0,0.1-4.3,5.9-5.9,8c-0.8,0.9-1.6,1.8-2.8,1.8c-0.9,0-1.9-0.5-3.2-1.7c-0.6-0.5-0.8-0.6-0.9-0.7l-0.7-0.6
				c-1.1-0.9-2-0.9-2.9,0.3c-1.1,1.5-2.6,3.3-2.6,3.3L8.1,49.5z M1.4,43.3L8,48.6c0.4-0.6,1.5-1.9,2.4-3.1c1.1-1.4,2.4-1.5,3.8-0.3
				l0.7,0.6c0.1,0.1,0.2,0.2,0.9,0.7c1.2,1.1,2.1,1.5,2.8,1.5c0.7,0,1.3-0.5,2.2-1.6c1.5-1.8,4.9-6.6,5.7-7.7L20,33.5
				c-0.3,0.3-0.9,1-1.9,2.5c-0.9,1.3-1.6,1.8-2.5,1.8c-0.7,0-1.3-0.3-2-0.9c-0.8-0.6-0.8-0.6-0.9-0.7c-0.1-0.1-0.2-0.2-1.2-1
				c-0.9-0.7-1.6-1-2.1-1c-0.7,0-1.4,0.5-2.3,1.6C5.8,37.5,2.3,42.2,1.4,43.3z"/>
		</g>
		<g>
			<path fill="#F39339" d="M39.1,18.5c-2.8-2.2-6-2.3-8.4,0.9c-2.4,3.2-4.1,5.2-9.7,12.5l7,5.5c0,0,5.3-6.4,6.4-7.9s2.3-1.2,3.4-0.3
				c1.1,0.9,6.9,5.2,6.9,5.2l5.5-7.1C50.1,27.4,41.2,20.1,39.1,18.5z"/>
			<path fill="#EB623A" d="M28,37.9L20.5,32l0.2-0.3c2.7-3.5,4.5-5.7,5.9-7.5c1.6-2,2.6-3.3,3.8-5c1.3-1.7,2.9-2.7,4.7-2.7
				c1.4,0,2.8,0.6,4.2,1.7c2.1,1.7,10.9,8.8,11,8.9l0.2,0.2l-5.9,7.6l-0.3-0.2c-0.2-0.2-5.8-4.3-6.9-5.2c-1.1-1-2-0.9-2.9,0.3
				c-1.1,1.4-6.4,7.8-6.4,7.9L28,37.9z M21.4,31.8l6.5,5.1c1-1.2,5.2-6.4,6.2-7.6c1.1-1.4,2.4-1.6,3.8-0.4c0.9,0.8,5.5,4.2,6.6,5
				l5.1-6.6c-1.5-1.2-8.9-7.2-10.8-8.7c-1.2-1-2.6-1.5-3.8-1.5c-1.6,0-3,0.8-4.2,2.4c-1.3,1.7-2.3,3-3.9,5
				C25.7,26.3,24,28.5,21.4,31.8z"/>
		</g>
		<g>
			<path fill="#F39339" d="M64.7,8.4l3.5,2.8l-8,10.2c0,0-4.5,5.6-5.3,6.7c-1.1,1.5-2.3,1.2-3.4,0.3c-1.5,1.9-5.8,7.2-5.8,7.2
				s3.8,3,4.6,3.6c2.9,2.2,5.8,2,8.4-1c2.4-2.8,8.4-11.1,8.4-11.1l8.2-10.6l3.1,2.7l1.1-16.1L64.7,8.4z"/>
			<path fill="#EB623A" d="M54.2,41c-1.3,0-2.7-0.5-4-1.6c-0.8-0.6-4.6-3.6-4.6-3.6l-0.3-0.2l0.2-0.3c0-0.1,4.3-5.4,5.8-7.2l0.2-0.3
				l0.3,0.2c1.1,0.9,2,0.9,2.9-0.3c0.8-1,5.2-6.6,5.3-6.7l7.8-10L64,8.3l16-5.6l-1.2,17.2L75.5,17l-8,10.3c-0.1,0.1-6,8.3-8.4,11.1
				C57.6,40.1,55.9,41,54.2,41z M46.3,35.6c0.9,0.7,3.7,2.9,4.3,3.4c2.8,2.2,5.6,1.8,8-1s8.3-11,8.4-11l8.4-10.8l2.9,2.5l1.1-14.9
				l-14,4.7l3.3,2.6l-8.2,10.5c0,0.1-4.5,5.6-5.3,6.7c-1,1.3-2.2,1.5-3.6,0.6C50.3,30.6,47.1,34.6,46.3,35.6z"/>
		</g>
	</g>
	<g>
		<path fill="#227AB4" d="M73.9,21C73.9,21,73.8,21,73.9,21l-1.7,2.1c-2.5,3.2-10,13.4-12.5,16.3c-2,2.3-3.9,3-5.3,3
			c-1.5,0-3.1-0.6-4.6-1.8c-0.8-0.6-11.6-9.1-12.7-10c-0.4-0.3-0.7-0.5-0.9-0.5c-0.3,0-0.7,0.3-0.9,0.6c-1.1,1.4-6.7,8.2-6.7,8.2
			s-3.2,4.4-5.1,6.9c0.9,0.3,1.8,0.5,2.8,0.5c1.5,0,3-0.5,4.2-1.2c1.2,5.8,6.3,10.1,12.5,10.1c6.1,0,11.2-4.3,12.5-10
			c1.1,1.3,2.8,2.1,4.7,2.1c2,0,3.8-1,5-2.4c1.8,1,3.8,1.5,6,1.5c7,0,12.7-5.8,12.8-13C83.7,27.5,79.5,22.4,73.9,21z"/>
		<path fill="#227AB4" d="M29.8,18.2c1.8-2.4,3.9-3,5.3-3c1.6,0,3.2,0.6,4.7,1.8c2.1,1.7,11.7,9.2,11.7,9.2l0.9,0.7
			c0.4,0.3,0.7,0.5,0.9,0.5c0.3,0,0.7-0.3,0.9-0.6c0.7-1,6.8-8.8,9.2-11.8l1.4-1.8c-1.5-7.3-9.6-13-19.3-13
			c-10.8,0-19.6,6.9-19.6,15.4c0,2,0.5,4,1.4,5.8C28.2,20.3,28.9,19.3,29.8,18.2z"/>
		<path fill="#227AB4" d="M12.4,33.5c1.1,0.9,1.3,1.1,1.4,1.2c0,0,0.2,0.1,0.7,0.4c0.4,0.3,0.9,0.6,1.2,0.6c0.3,0,0.8-0.4,1.3-1.2
			c1.6-2.2,3.1-3.9,3.1-3.9c2.7-3.5,4.5-5.8,5.9-7.5c0.4-0.5,0.8-1,1.1-1.4c-1.2-1.8-1.9-3.7-2.2-5.8c-5.5,0.6-9.9,4.7-11,10
			c-2.2,1.3-3.8,3.6-4.1,6.3C10.6,32.3,11.4,32.7,12.4,33.5z"/>
	</g>
	<path fill="#227AB4" d="M12.4,33.5c1.1,0.9,1.3,1.1,1.4,1.2c0,0,0.2,0.1,0.7,0.4c0.4,0.3,0.9,0.6,1.2,0.6c0.3,0,0.8-0.4,1.3-1.2
		c1.6-2.2,3.1-3.9,3.1-3.9c2.7-3.5,4.5-5.8,5.9-7.5c0.4-0.5,0.8-1,1.1-1.4c-1.2-1.8-1.9-3.7-2.2-5.8c-5.5,0.6-9.9,4.7-11,10
		c-2.2,1.3-3.8,3.6-4.1,6.3C10.6,32.3,11.4,32.7,12.4,33.5z"/>
	<g>
		<g>
			<defs>
				<path id="SVGID_1_" d="M73.9,21C73.9,21,73.8,21,73.9,21l-1.7,2.1c-2.5,3.2-10,13.4-12.5,16.3c-2,2.3-3.9,3-5.3,3
					c-1.5,0-3.1-0.6-4.6-1.8c-0.8-0.6-11.6-9.1-12.7-10c-0.4-0.3-0.7-0.5-0.9-0.5c-0.3,0-0.7,0.3-0.9,0.6c-1.1,1.4-6.7,8.2-6.7,8.2
					s-3.2,4.4-5.1,6.9c0.9,0.3,1.8,0.5,2.8,0.5c1.5,0,3-0.5,4.2-1.2c1.2,5.8,6.3,10.1,12.5,10.1c6.1,0,11.2-4.3,12.5-10
					c1.1,1.3,2.8,2.1,4.7,2.1c2,0,3.8-1,5-2.4c1.8,1,3.8,1.5,6,1.5c7,0,12.7-5.8,12.8-13C83.7,27.5,79.5,22.4,73.9,21z"/>
			</defs>
			<clipPath id="SVGID_2_">
				<use xlink:href="#SVGID_1_"  overflow="visible"/>
			</clipPath>
			<g clip-path="url(#SVGID_2_)">
				
					<rect x="42.2" y="2.9" transform="matrix(-1 -1.370581e-03 1.370581e-03 -1 90.0922 11.5617)" opacity="0.8" fill="#27A9D8" stroke="#1D6EAD" stroke-width="0.2" stroke-miterlimit="10" enable-background="new    " width="5.7" height="5.7"/>
				
					<rect x="42.2" y="8.8" transform="matrix(-1 -1.542003e-03 1.542003e-03 -1 90.0821 23.3693)" fill="#27A9D8" stroke="#1D6EAD" stroke-width="0.2" stroke-miterlimit="10" width="5.7" height="5.7"/>
				
					<rect x="36.3" y="8.8" transform="matrix(-1 -1.542003e-03 1.542003e-03 -1 78.2818 23.3602)" opacity="0.8" fill="#27A9D8" stroke="#1D6EAD" stroke-width="0.2" stroke-miterlimit="10" enable-background="new    " width="5.7" height="5.7"/>
				
					<polygon opacity="0.8" fill="#27A9D8" stroke="#1D6EAD" stroke-width="0.2" stroke-miterlimit="10" enable-background="new    " points="
					53.8,14.5 48.1,14.5 48.1,8.8 53.8,8.8 				"/>
				<rect x="54" y="8.8" fill="#27A9D8" stroke="#1D6EAD" stroke-width="0.2" stroke-miterlimit="10" width="5.7" height="5.7"/>
				
					<rect x="42.2" y="14.7" transform="matrix(-1 -1.542003e-03 1.542003e-03 -1 90.073 35.1695)" opacity="0.8" fill="#27A9D8" stroke="#1D6EAD" stroke-width="0.2" stroke-miterlimit="10" enable-background="new    " width="5.7" height="5.7"/>
				
					<rect x="36.3" y="14.7" transform="matrix(-1 -1.627596e-03 1.627596e-03 -1 78.2712 35.1633)" fill="#27A9D8" stroke="#1D6EAD" stroke-width="0.2" stroke-miterlimit="10" width="5.7" height="5.7"/>
				
					<rect x="48.1" y="14.7" transform="matrix(-1 -1.627596e-03 1.627596e-03 -1 101.8713 35.183)" fill="#27A9D8" stroke="#1D6EAD" stroke-width="0.2" stroke-miterlimit="10" width="5.7" height="5.7"/>
				
					<rect x="54" y="14.7" transform="matrix(-1 -1.027973e-03 1.027973e-03 -1 113.6821 35.1585)" fill="#27A9D8" stroke="#1D6EAD" stroke-width="0.2" stroke-miterlimit="10" width="5.7" height="5.7"/>
				
					<rect x="42.2" y="20.5" transform="matrix(-1 -1.027973e-03 1.027973e-03 -1 90.0761 46.7465)" fill="#27A9D8" stroke="#1D6EAD" stroke-width="0.2" stroke-miterlimit="10" width="5.7" height="5.7"/>
				
					<rect x="36.3" y="20.5" transform="matrix(-1 -1.284988e-03 1.284988e-03 -1 78.2703 46.75)" opacity="0.8" fill="#27A9D8" stroke="#1D6EAD" stroke-width="0.2" stroke-miterlimit="10" enable-background="new    " width="5.7" height="5.7"/>
				
					<rect x="48.1" y="20.6" transform="matrix(-1 -1.627596e-03 1.627596e-03 -1 101.8617 46.9828)" fill="#27A9D8" stroke="#1D6EAD" stroke-width="0.2" stroke-miterlimit="10" width="5.7" height="5.7"/>
				
					<rect x="54" y="20.6" transform="matrix(-1 -1.284988e-03 1.284988e-03 -1 113.67 46.9729)" fill="#27A9D8" stroke="#1D6EAD" stroke-width="0.2" stroke-miterlimit="10" width="5.7" height="5.7"/>
				
					<rect x="59.9" y="20.6" transform="matrix(-1 -1.542003e-03 1.542003e-03 -1 125.4638 46.9971)" fill="#27A9D8" stroke="#1D6EAD" stroke-width="0.2" stroke-miterlimit="10" width="5.7" height="5.7"/>
				
					<rect x="65.7" y="20.6" transform="matrix(-1 -1.627596e-03 1.627596e-03 -1 137.0618 47.0114)" fill="#27A9D8" stroke="#1D6EAD" stroke-width="0.2" stroke-miterlimit="10" width="5.7" height="5.7"/>
				
					<rect x="42.2" y="26.4" transform="matrix(-1 -1.370581e-03 1.370581e-03 -1 90.06 58.5612)" opacity="0.1" fill="#27A9D8" stroke="#1D6EAD" stroke-width="0.2" stroke-miterlimit="10" enable-background="new    " width="5.7" height="5.7"/>
				
					<rect x="36.3" y="26.4" transform="matrix(-1 -1.370581e-03 1.370581e-03 -1 78.2602 58.5531)" opacity="0.1" fill="#27A9D8" stroke="#1D6EAD" stroke-width="0.2" stroke-miterlimit="10" enable-background="new    " width="5.7" height="5.7"/>
				
					<rect x="48.1" y="26.4" transform="matrix(-1 -1.370581e-03 1.370581e-03 -1 101.8603 58.5693)" opacity="0.1" fill="#27A9D8" stroke="#1D6EAD" stroke-width="0.2" stroke-miterlimit="10" enable-background="new    " width="5.7" height="5.7"/>
				
					<rect x="54" y="26.4" transform="matrix(-1 -1.027973e-03 1.027973e-03 -1 113.6701 58.5589)" fill="#27A9D8" stroke="#1D6EAD" stroke-width="0.2" stroke-miterlimit="10" width="5.7" height="5.7"/>
				
					<rect x="59.9" y="26.5" transform="matrix(-1 -1.027973e-03 1.027973e-03 -1 125.4698 58.7647)" fill="#27A9D8" stroke="#1D6EAD" stroke-width="0.2" stroke-miterlimit="10" width="5.7" height="5.7"/>
				
					<rect x="65.7" y="26.5" transform="matrix(-1 -1.884610e-03 1.884610e-03 -1 137.0447 58.8288)" opacity="0.8" fill="#27A9D8" stroke="#1D6EAD" stroke-width="0.2" stroke-miterlimit="10" enable-background="new    " width="5.7" height="5.7"/>
				
					<rect x="71.6" y="26.5" transform="matrix(-1 -1.542003e-03 1.542003e-03 -1 148.855 58.8155)" fill="#27A9D8" stroke="#1D6EAD" stroke-width="0.2" stroke-miterlimit="10" width="5.7" height="5.7"/>
				
					<rect x="42.2" y="32.3" transform="matrix(-1 -1.542003e-03 1.542003e-03 -1 90.0458 70.3692)" opacity="0.1" fill="#27A9D8" stroke="#1D6EAD" stroke-width="0.2" stroke-miterlimit="10" enable-background="new    " width="5.7" height="5.7"/>
				
					<rect x="36.3" y="32.3" transform="matrix(-1 -1.370581e-03 1.370581e-03 -1 78.2516 70.3534)" opacity="0.1" fill="#27A9D8" stroke="#1D6EAD" stroke-width="0.2" stroke-miterlimit="10" enable-background="new    " width="5.7" height="5.7"/>
				
					<rect x="48.1" y="32.3" transform="matrix(-1 -1.542003e-03 1.542003e-03 -1 101.8461 70.3783)" opacity="0.1" fill="#27A9D8" stroke="#1D6EAD" stroke-width="0.2" stroke-miterlimit="10" enable-background="new    " width="5.7" height="5.7"/>
				
					<rect x="54" y="32.3" transform="matrix(-1 -1.027973e-03 1.027973e-03 -1 113.664 70.3582)" fill="#27A9D8" stroke="#1D6EAD" stroke-width="0.2" stroke-miterlimit="10" width="5.7" height="5.7"/>
				
					<rect x="59.8" y="32.3" transform="matrix(-1 -1.027973e-03 1.027973e-03 -1 125.2641 70.3652)" opacity="0.8" fill="#27A9D8" stroke="#1D6EAD" stroke-width="0.2" stroke-miterlimit="10" enable-background="new    " width="5.7" height="5.7"/>
				
					<rect x="65.7" y="32.4" transform="matrix(-1 -1.884610e-03 1.884610e-03 -1 137.0335 70.6291)" fill="#27A9D8" stroke="#1D6EAD" stroke-width="0.2" stroke-miterlimit="10" width="5.7" height="5.7"/>
				
					<rect x="65.7" y="38.2" transform="matrix(-1 -1.713188e-03 1.713188e-03 -1 137.0302 82.217)" opacity="0.8" fill="#27A9D8" stroke="#1D6EAD" stroke-width="0.2" stroke-miterlimit="10" enable-background="new    " width="5.7" height="5.7"/>
			</g>
		</g>
	</g>
	<g>
		<g>
			<defs>
				<path id="SVGID_3_" d="M29.8,18.2c1.8-2.4,3.9-3,5.3-3c1.6,0,3.2,0.6,4.7,1.8c2.1,1.7,11.7,9.2,11.7,9.2l0.9,0.7
					c0.4,0.3,0.7,0.5,0.9,0.5c0.3,0,0.7-0.3,0.9-0.6c0.7-1,6.8-8.8,9.2-11.8l1.4-1.8c-1.5-7.3-9.6-13-19.3-13
					c-10.8,0-19.6,6.9-19.6,15.4c0,2,0.5,4,1.4,5.8C28.2,20.3,28.9,19.3,29.8,18.2z"/>
			</defs>
			<clipPath id="SVGID_4_">
				<use xlink:href="#SVGID_3_"  overflow="visible"/>
			</clipPath>
			<g clip-path="url(#SVGID_4_)">
				
					<rect x="42.2" y="2.9" transform="matrix(-1 -1.370581e-03 1.370581e-03 -1 90.0922 11.5617)" opacity="0.8" fill="#27A9D8" stroke="#1D6EAD" stroke-width="0.2" stroke-miterlimit="10" enable-background="new    " width="5.7" height="5.7"/>
				
					<rect x="42.2" y="8.8" transform="matrix(-1 -1.542003e-03 1.542003e-03 -1 90.0821 23.3693)" fill="#27A9D8" stroke="#1D6EAD" stroke-width="0.2" stroke-miterlimit="10" width="5.7" height="5.7"/>
				
					<rect x="36.3" y="8.8" transform="matrix(-1 -1.542003e-03 1.542003e-03 -1 78.2818 23.3602)" opacity="0.8" fill="#27A9D8" stroke="#1D6EAD" stroke-width="0.2" stroke-miterlimit="10" enable-background="new    " width="5.7" height="5.7"/>
				
					<polygon opacity="0.8" fill="#27A9D8" stroke="#1D6EAD" stroke-width="0.2" stroke-miterlimit="10" enable-background="new    " points="
					53.8,14.5 48.1,14.5 48.1,8.8 53.8,8.8 				"/>
				<rect x="54" y="8.8" fill="#27A9D8" stroke="#1D6EAD" stroke-width="0.2" stroke-miterlimit="10" width="5.7" height="5.7"/>
				
					<rect x="42.2" y="14.7" transform="matrix(-1 -1.542003e-03 1.542003e-03 -1 90.073 35.1695)" opacity="0.8" fill="#27A9D8" stroke="#1D6EAD" stroke-width="0.2" stroke-miterlimit="10" enable-background="new    " width="5.7" height="5.7"/>
				
					<rect x="36.3" y="14.7" transform="matrix(-1 -1.627596e-03 1.627596e-03 -1 78.2712 35.1633)" fill="#27A9D8" stroke="#1D6EAD" stroke-width="0.2" stroke-miterlimit="10" width="5.7" height="5.7"/>
				
					<rect x="48.1" y="14.7" transform="matrix(-1 -1.627596e-03 1.627596e-03 -1 101.8713 35.183)" fill="#27A9D8" stroke="#1D6EAD" stroke-width="0.2" stroke-miterlimit="10" width="5.7" height="5.7"/>
				
					<rect x="54" y="14.7" transform="matrix(-1 -1.027973e-03 1.027973e-03 -1 113.6821 35.1585)" fill="#27A9D8" stroke="#1D6EAD" stroke-width="0.2" stroke-miterlimit="10" width="5.7" height="5.7"/>
				
					<rect x="42.2" y="20.5" transform="matrix(-1 -1.027973e-03 1.027973e-03 -1 90.0761 46.7465)" fill="#27A9D8" stroke="#1D6EAD" stroke-width="0.2" stroke-miterlimit="10" width="5.7" height="5.7"/>
				
					<rect x="36.3" y="20.5" transform="matrix(-1 -1.284988e-03 1.284988e-03 -1 78.2703 46.75)" opacity="0.8" fill="#27A9D8" stroke="#1D6EAD" stroke-width="0.2" stroke-miterlimit="10" enable-background="new    " width="5.7" height="5.7"/>
				
					<rect x="48.1" y="20.6" transform="matrix(-1 -1.627596e-03 1.627596e-03 -1 101.8617 46.9828)" fill="#27A9D8" stroke="#1D6EAD" stroke-width="0.2" stroke-miterlimit="10" width="5.7" height="5.7"/>
				
					<rect x="54" y="20.6" transform="matrix(-1 -1.284988e-03 1.284988e-03 -1 113.67 46.9729)" fill="#27A9D8" stroke="#1D6EAD" stroke-width="0.2" stroke-miterlimit="10" width="5.7" height="5.7"/>
				
					<rect x="59.9" y="20.6" transform="matrix(-1 -1.542003e-03 1.542003e-03 -1 125.4638 46.9971)" fill="#27A9D8" stroke="#1D6EAD" stroke-width="0.2" stroke-miterlimit="10" width="5.7" height="5.7"/>
				
					<rect x="65.7" y="20.6" transform="matrix(-1 -1.627596e-03 1.627596e-03 -1 137.0618 47.0114)" fill="#27A9D8" stroke="#1D6EAD" stroke-width="0.2" stroke-miterlimit="10" width="5.7" height="5.7"/>
				
					<rect x="42.2" y="26.4" transform="matrix(-1 -1.370581e-03 1.370581e-03 -1 90.06 58.5612)" opacity="0.1" fill="#27A9D8" stroke="#1D6EAD" stroke-width="0.2" stroke-miterlimit="10" enable-background="new    " width="5.7" height="5.7"/>
				
					<rect x="36.3" y="26.4" transform="matrix(-1 -1.370581e-03 1.370581e-03 -1 78.2602 58.5531)" opacity="0.1" fill="#27A9D8" stroke="#1D6EAD" stroke-width="0.2" stroke-miterlimit="10" enable-background="new    " width="5.7" height="5.7"/>
				
					<rect x="48.1" y="26.4" transform="matrix(-1 -1.370581e-03 1.370581e-03 -1 101.8603 58.5693)" opacity="0.1" fill="#27A9D8" stroke="#1D6EAD" stroke-width="0.2" stroke-miterlimit="10" enable-background="new    " width="5.7" height="5.7"/>
				
					<rect x="54" y="26.4" transform="matrix(-1 -1.027973e-03 1.027973e-03 -1 113.6701 58.5589)" fill="#27A9D8" stroke="#1D6EAD" stroke-width="0.2" stroke-miterlimit="10" width="5.7" height="5.7"/>
				
					<rect x="59.9" y="26.5" transform="matrix(-1 -1.027973e-03 1.027973e-03 -1 125.4698 58.7647)" fill="#27A9D8" stroke="#1D6EAD" stroke-width="0.2" stroke-miterlimit="10" width="5.7" height="5.7"/>
				
					<rect x="65.7" y="26.5" transform="matrix(-1 -1.884610e-03 1.884610e-03 -1 137.0447 58.8288)" opacity="0.8" fill="#27A9D8" stroke="#1D6EAD" stroke-width="0.2" stroke-miterlimit="10" enable-background="new    " width="5.7" height="5.7"/>
				
					<rect x="71.6" y="26.5" transform="matrix(-1 -1.542003e-03 1.542003e-03 -1 148.855 58.8155)" fill="#27A9D8" stroke="#1D6EAD" stroke-width="0.2" stroke-miterlimit="10" width="5.7" height="5.7"/>
				
					<rect x="42.2" y="32.3" transform="matrix(-1 -1.542003e-03 1.542003e-03 -1 90.0458 70.3692)" opacity="0.1" fill="#27A9D8" stroke="#1D6EAD" stroke-width="0.2" stroke-miterlimit="10" enable-background="new    " width="5.7" height="5.7"/>
				
					<rect x="36.3" y="32.3" transform="matrix(-1 -1.370581e-03 1.370581e-03 -1 78.2516 70.3534)" opacity="0.1" fill="#27A9D8" stroke="#1D6EAD" stroke-width="0.2" stroke-miterlimit="10" enable-background="new    " width="5.7" height="5.7"/>
				
					<rect x="48.1" y="32.3" transform="matrix(-1 -1.542003e-03 1.542003e-03 -1 101.8461 70.3783)" opacity="0.1" fill="#27A9D8" stroke="#1D6EAD" stroke-width="0.2" stroke-miterlimit="10" enable-background="new    " width="5.7" height="5.7"/>
				
					<rect x="54" y="32.3" transform="matrix(-1 -1.027973e-03 1.027973e-03 -1 113.664 70.3582)" fill="#27A9D8" stroke="#1D6EAD" stroke-width="0.2" stroke-miterlimit="10" width="5.7" height="5.7"/>
				
					<rect x="59.8" y="32.3" transform="matrix(-1 -1.027973e-03 1.027973e-03 -1 125.2641 70.3652)" opacity="0.8" fill="#27A9D8" stroke="#1D6EAD" stroke-width="0.2" stroke-miterlimit="10" enable-background="new    " width="5.7" height="5.7"/>
				
					<rect x="65.7" y="32.4" transform="matrix(-1 -1.884610e-03 1.884610e-03 -1 137.0335 70.6291)" fill="#27A9D8" stroke="#1D6EAD" stroke-width="0.2" stroke-miterlimit="10" width="5.7" height="5.7"/>
				
					<rect x="65.7" y="38.2" transform="matrix(-1 -1.713188e-03 1.713188e-03 -1 137.0302 82.217)" opacity="0.8" fill="#27A9D8" stroke="#1D6EAD" stroke-width="0.2" stroke-miterlimit="10" enable-background="new    " width="5.7" height="5.7"/>
			</g>
		</g>
	</g>
</g>
<g>
	<path fill="#FFFFFF" d="M103.7,28.4H102l-6.4-9.6v9.6h-1.5V16.2h1.6l6.4,9.6v-9.6h1.5V28.4z"/>
	<path fill="#FFFFFF" d="M115,28.4h-9.1V16.2h8.8v1.4h-7.2v3.7h6.7v1.4h-6.7V27h7.5V28.4z"/>
	<path fill="#FFFFFF" d="M125.3,17.7h-4v10.7h-1.6V17.7h-4v-1.4h9.6V17.7z"/>
	<path fill="#FFFFFF" d="M141.1,16.2l-3.4,12.2h-1.5l-2.9-10.6l-2.9,10.6h-1.5l-3.4-12.2h1.7l2.4,9.9l2.7-9.9h1.9l2.7,9.9l2.4-9.9
		H141.1z"/>
	<path fill="#FFFFFF" d="M147.3,16c1.7,0,3.1,0.6,4.2,1.7c1.1,1.2,1.6,2.7,1.6,4.6c0,1.9-0.5,3.4-1.6,4.6c-1.1,1.2-2.5,1.7-4.2,1.7
		c-1.7,0-3.1-0.6-4.2-1.7c-1.1-1.2-1.6-2.7-1.6-4.6c0-1.9,0.5-3.4,1.6-4.6S145.6,16,147.3,16z M147.3,27.2c1.2,0,2.2-0.4,3-1.3
		c0.8-0.9,1.2-2.1,1.2-3.6s-0.4-2.8-1.2-3.6c-0.8-0.9-1.8-1.3-3-1.3c-1.2,0-2.2,0.4-3,1.3c-0.8,0.9-1.2,2.1-1.2,3.6
		c0,1.5,0.4,2.8,1.2,3.6C145.1,26.8,146.1,27.2,147.3,27.2z"/>
	<path fill="#FFFFFF" d="M164.9,28.4h-1.7l-1.1-3.2c-0.2-0.6-0.5-1-1-1.4c-0.5-0.4-1-0.5-1.6-0.5h-3v5.2h-1.6V16.2h5.4
		c0.9,0,1.7,0.1,2.3,0.3c0.6,0.2,1.1,0.6,1.5,1.2s0.6,1.2,0.6,2c0,0.8-0.2,1.5-0.7,2.1s-1.2,0.9-2,1.1v0c0.8,0.3,1.5,1,1.9,2.2
		L164.9,28.4z M156.3,21.8h3.6c1,0,1.7-0.2,2.2-0.5c0.5-0.3,0.7-0.9,0.7-1.6c0-1.4-0.9-2.1-2.6-2.1h-3.8V21.8z"/>
	<path fill="#FFFFFF" d="M176.4,28.4h-2.1l-4.3-6.1l-1.9,1.9v4.2h-1.6V16.2h1.6v6l5.9-6h2.2l-5.1,5L176.4,28.4z"/>
	<path fill="#F79422" d="M190.3,28.4h-9.1V16.2h8.8v1.4h-7.2v3.7h6.7v1.4h-6.7V27h7.5V28.4z"/>
	<path fill="#F79422" d="M197.2,28.6c-1.7,0-3.1-0.6-4.1-1.7c-1-1.1-1.5-2.7-1.5-4.6s0.5-3.5,1.5-4.6c1-1.1,2.4-1.7,4.1-1.7
		c1.3,0,2.4,0.4,3.4,1.1c0.9,0.7,1.5,1.7,1.6,2.8h-1.7c-0.1-0.8-0.4-1.4-1-1.8c-0.6-0.5-1.4-0.7-2.3-0.7c-1.2,0-2.2,0.4-2.9,1.3
		c-0.7,0.8-1.1,2.1-1.1,3.6c0,1.6,0.4,2.8,1.1,3.6c0.7,0.9,1.7,1.3,2.9,1.3c1,0,1.7-0.2,2.3-0.7c0.6-0.5,0.9-1.1,1-2h1.7
		c-0.1,1.3-0.6,2.3-1.5,3C199.7,28.3,198.5,28.6,197.2,28.6z"/>
	<path fill="#F79422" d="M209.1,16c1.7,0,3.1,0.6,4.2,1.7c1.1,1.2,1.6,2.7,1.6,4.6c0,1.9-0.5,3.4-1.6,4.6c-1.1,1.2-2.5,1.7-4.2,1.7
		c-1.7,0-3.1-0.6-4.2-1.7c-1.1-1.2-1.6-2.7-1.6-4.6c0-1.9,0.5-3.4,1.6-4.6S207.4,16,209.1,16z M209.1,27.2c1.2,0,2.2-0.4,3-1.3
		s1.2-2.1,1.2-3.6s-0.4-2.8-1.2-3.6c-0.8-0.9-1.8-1.3-3-1.3c-1.2,0-2.2,0.4-3,1.3c-0.8,0.9-1.2,2.1-1.2,3.6c0,1.5,0.4,2.8,1.2,3.6
		C206.9,26.8,207.9,27.2,209.1,27.2z"/>
	<path fill="#F79422" d="M226.1,28.4h-1.7l-6.4-9.6v9.6h-1.5V16.2h1.6l6.4,9.6v-9.6h1.5V28.4z"/>
	<path fill="#F79422" d="M233.5,16c1.7,0,3.1,0.6,4.2,1.7s1.6,2.7,1.6,4.6c0,1.9-0.5,3.4-1.6,4.6c-1.1,1.2-2.5,1.7-4.2,1.7
		c-1.7,0-3.1-0.6-4.2-1.7c-1.1-1.2-1.6-2.7-1.6-4.6c0-1.9,0.5-3.4,1.6-4.6C230.4,16.6,231.8,16,233.5,16z M233.5,27.2
		c1.2,0,2.2-0.4,3-1.3s1.2-2.1,1.2-3.6s-0.4-2.8-1.2-3.6c-0.8-0.9-1.8-1.3-3-1.3c-1.2,0-2.2,0.4-3,1.3c-0.8,0.9-1.2,2.1-1.2,3.6
		c0,1.5,0.4,2.8,1.2,3.6C231.3,26.8,232.3,27.2,233.5,27.2z"/>
	<path fill="#F79422" d="M252.4,28.4h-1.5V18l-3.5,10.4h-1.4L242.5,18v10.4h-1.5V16.2h2.4l3.3,10.2l3.3-10.2h2.4V28.4z"/>
	<path fill="#F79422" d="M256.4,28.4h-1.6V16.2h1.6V28.4z"/>
	<path fill="#F79422" d="M263.8,28.6c-1.7,0-3.1-0.6-4.1-1.7c-1-1.1-1.5-2.7-1.5-4.6s0.5-3.5,1.5-4.6c1-1.1,2.4-1.7,4.1-1.7
		c1.3,0,2.5,0.4,3.4,1.1c0.9,0.7,1.5,1.7,1.6,2.8h-1.7c-0.1-0.8-0.4-1.4-1-1.8c-0.6-0.5-1.4-0.7-2.3-0.7c-1.2,0-2.2,0.4-2.9,1.3
		c-0.7,0.8-1.1,2.1-1.1,3.6c0,1.6,0.4,2.8,1.1,3.6c0.7,0.9,1.7,1.3,2.9,1.3c1,0,1.7-0.2,2.3-0.7c0.6-0.5,0.9-1.1,1-2h1.7
		c-0.1,1.3-0.6,2.3-1.5,3C266.4,28.3,265.2,28.6,263.8,28.6z"/>
</g>
<g>
	<path fill="#68696B" d="M95.7,38.3c-0.7,0-1.2-0.2-1.6-0.5s-0.5-0.7-0.5-1.2h0.6c0,0.4,0.2,0.6,0.5,0.8c0.3,0.2,0.6,0.3,1,0.3
		c0.4,0,0.7-0.1,0.9-0.2c0.2-0.2,0.3-0.4,0.3-0.6c0-0.3-0.1-0.5-0.4-0.6c-0.2-0.1-0.6-0.2-1.2-0.4c-0.6-0.1-1-0.3-1.2-0.5
		c-0.2-0.2-0.4-0.5-0.4-0.9c0-0.4,0.2-0.7,0.5-1c0.3-0.3,0.8-0.4,1.3-0.4c0.6,0,1,0.1,1.4,0.4c0.3,0.3,0.5,0.6,0.5,1.1h-0.6
		c-0.1-0.6-0.5-0.9-1.2-0.9c-0.4,0-0.7,0.1-0.9,0.2c-0.2,0.1-0.3,0.3-0.3,0.6c0,0.2,0.1,0.4,0.2,0.5c0.2,0.1,0.5,0.2,0.9,0.3
		c0.4,0.1,0.8,0.2,1.1,0.3c0.3,0.1,0.5,0.2,0.7,0.4c0.2,0.2,0.3,0.5,0.3,0.8c0,0.4-0.2,0.8-0.5,1.1C96.7,38.2,96.2,38.3,95.7,38.3z"
		/>
	<path fill="#68696B" d="M105.5,38.2h-3.7v-5h3.6v0.6h-2.9v1.5h2.8v0.6h-2.8v1.7h3.1V38.2z"/>
	<path fill="#68696B" d="M114,38.2h-0.7l-0.5-1.3c-0.1-0.2-0.2-0.4-0.4-0.6c-0.2-0.2-0.4-0.2-0.7-0.2h-1.2v2.1h-0.7v-5h2.2
		c0.4,0,0.7,0,0.9,0.1c0.2,0.1,0.4,0.2,0.6,0.5s0.2,0.5,0.2,0.8c0,0.3-0.1,0.6-0.3,0.9s-0.5,0.4-0.8,0.5v0c0.3,0.1,0.6,0.4,0.8,0.9
		L114,38.2z M110.5,35.5h1.5c0.4,0,0.7-0.1,0.9-0.2c0.2-0.1,0.3-0.4,0.3-0.7c0-0.6-0.4-0.8-1.1-0.8h-1.6V35.5z"/>
	<path fill="#68696B" d="M122.3,33.2l-1.9,5h-0.7l-1.9-5h0.7l1.6,4.3l1.6-4.3H122.3z"/>
	<path fill="#68696B" d="M127,38.2h-0.7v-5h0.7V38.2z"/>
	<path fill="#68696B" d="M133.7,38.3c-0.7,0-1.3-0.2-1.7-0.7c-0.4-0.5-0.6-1.1-0.6-1.9s0.2-1.4,0.6-1.9c0.4-0.5,1-0.7,1.7-0.7
		c0.5,0,1,0.1,1.4,0.4c0.4,0.3,0.6,0.7,0.6,1.2H135c0-0.3-0.2-0.6-0.4-0.8c-0.2-0.2-0.6-0.3-0.9-0.3c-0.5,0-0.9,0.2-1.2,0.5
		c-0.3,0.3-0.4,0.8-0.4,1.5c0,0.6,0.1,1.1,0.4,1.5c0.3,0.3,0.7,0.5,1.2,0.5c0.4,0,0.7-0.1,0.9-0.3c0.2-0.2,0.4-0.5,0.4-0.8h0.7
		c0,0.5-0.3,0.9-0.6,1.2C134.7,38.2,134.2,38.3,133.7,38.3z"/>
	<path fill="#68696B" d="M143.7,38.2H140v-5h3.6v0.6h-2.9v1.5h2.8v0.6h-2.8v1.7h3.1V38.2z"/>
	<path fill="#68696B" d="M157.3,33.2l-1.9,5h-0.7l-1.9-5h0.7l1.6,4.3l1.6-4.3H157.3z"/>
	<path fill="#68696B" d="M165,38.2h-3.7v-5h3.6v0.6h-2.9v1.5h2.8v0.6h-2.8v1.7h3.1V38.2z"/>
	<path fill="#68696B" d="M173.2,38.2h-0.7l-2.6-3.9v3.9h-0.6v-5h0.7l2.6,3.9v-3.9h0.6V38.2z"/>
	<path fill="#68696B" d="M181.3,33.8h-1.7v4.4H179v-4.4h-1.6v-0.6h4V33.8z"/>
	<path fill="#68696B" d="M187.3,38.3c-0.6,0-1-0.1-1.3-0.3c-0.3-0.2-0.5-0.5-0.5-0.8c-0.1-0.3-0.1-0.7-0.1-1.1v-2.9h0.7v2.9
		c0,0.7,0.1,1.1,0.3,1.3c0.2,0.2,0.5,0.3,1,0.3c0.4,0,0.7-0.1,1-0.3s0.3-0.6,0.3-1.3v-2.9h0.7v2.9c0,0.6-0.1,1-0.2,1.3
		c-0.1,0.3-0.4,0.5-0.7,0.6C188.1,38.2,187.8,38.3,187.3,38.3z"/>
	<path fill="#68696B" d="M197.9,38.2h-0.7l-0.5-1.3c-0.1-0.2-0.2-0.4-0.4-0.6c-0.2-0.2-0.4-0.2-0.7-0.2h-1.2v2.1h-0.7v-5h2.2
		c0.4,0,0.7,0,0.9,0.1c0.2,0.1,0.4,0.2,0.6,0.5c0.2,0.2,0.2,0.5,0.2,0.8c0,0.3-0.1,0.6-0.3,0.9c-0.2,0.2-0.5,0.4-0.8,0.5v0
		c0.3,0.1,0.6,0.4,0.8,0.9L197.9,38.2z M194.4,35.5h1.5c0.4,0,0.7-0.1,0.9-0.2c0.2-0.1,0.3-0.4,0.3-0.7c0-0.6-0.4-0.8-1.1-0.8h-1.6
		V35.5z"/>
	<path fill="#68696B" d="M205.9,38.2h-3.7v-5h3.6v0.6h-2.9v1.5h2.8v0.6h-2.8v1.7h3.1V38.2z"/>
	<path fill="#68696B" d="M212.1,38.3c-0.7,0-1.2-0.2-1.6-0.5s-0.5-0.7-0.5-1.2h0.6c0,0.4,0.2,0.6,0.5,0.8c0.3,0.2,0.6,0.3,1,0.3
		c0.4,0,0.7-0.1,0.9-0.2c0.2-0.2,0.3-0.4,0.3-0.6c0-0.3-0.1-0.5-0.4-0.6c-0.2-0.1-0.6-0.2-1.2-0.4c-0.6-0.1-1-0.3-1.2-0.5
		c-0.2-0.2-0.4-0.5-0.4-0.9c0-0.4,0.2-0.7,0.5-1s0.8-0.4,1.3-0.4c0.6,0,1,0.1,1.4,0.4c0.3,0.3,0.5,0.6,0.5,1.1h-0.6
		c-0.1-0.6-0.5-0.9-1.2-0.9c-0.4,0-0.7,0.1-0.9,0.2c-0.2,0.1-0.3,0.3-0.3,0.6c0,0.2,0.1,0.4,0.2,0.5c0.2,0.1,0.5,0.2,0.9,0.3
		c0.4,0.1,0.8,0.2,1.1,0.3c0.3,0.1,0.5,0.2,0.7,0.4c0.2,0.2,0.3,0.5,0.3,0.8c0,0.4-0.2,0.8-0.5,1.1S212.6,38.3,212.1,38.3z"/>
</g>
</svg>
