<svg width="226" height="190" viewBox="0 0 226 190" fill="none" xmlns="http://www.w3.org/2000/svg">
<g clip-path="url(#clip0_116_238)">
<path d="M198.4 55.5C198.4 55.4 198.4 55.4 198.4 55.2L193.9 61C187.2 69.7 166.8 97.2 160.3 105C154.9 111.4 149.8 113.2 145.9 113.2C141.7 113.2 137.5 111.5 133.4 108.4C131.3 106.8 102.1 84 99.1 81.5C98.1 80.7 97.3 80.2 96.6 80.2C95.7 80.2 94.8001 81.1 94.3001 81.9C91.2001 85.8 76.1 104.1 76.1 104.1C76.1 104.1 67.4 116 62.3 122.9C64.6 123.8 67.1001 124.3 69.8001 124.3C74.0001 124.3 77.8 123.1 81.1 121.1C84.3 136.7 98.1 148.5 114.7 148.5C131.2 148.5 144.9 137 148.3 121.4C151.4 124.9 155.8 127.1 160.9 127.1C166.3 127.1 171.1 124.5 174.3 120.5C179.1 123.1 184.5 124.7 190.4 124.7C209.3 124.7 224.8 109.1 224.8 89.8C224.9 73 213.6 59.2 198.4 55.5Z" fill="#227AB4"/>
<path d="M79.6 47.9C84.5 41.3 90.1 40 93.9 40C98.1 40 102.5 41.7 106.5 44.9C112.2 49.4 137.9 69.8 137.9 69.8L140.2 71.7C141.2 72.5 142 73 142.7 73C143.6 73 144.5 72.1 145 71.3C147.2 68.4 163.7 47.7 170 39.5L173.9 34.6C169.9 14.8 148.1 -0.400002 121.9 -0.400002C92.7 -0.400002 69 18.2 69 41.1C69 46.7 70.4 51.9 72.9 56.7C75.3 53.6 77.2 50.8 79.6 47.9Z" fill="#227AB4"/>
<path d="M32.7 89.3C35.7 91.8 36.1 92.2 36.3 92.5C36.3 92.5 36.8 92.8 38.1 93.7C39.3 94.5 40.6 95.4 41.5 95.4C42.3 95.4 43.6 94.2 45 92.2C49.3 86.1 53.3 81.7 53.3 81.7C60.6 72.4 65.4 66.1 69.1 61.5C70.1 60.1 71.2 58.9 72.1 57.7C68.9 52.9 66.9 47.7 66.3 42C51.5 43.6 39.7 54.6 36.6 68.9C30.5 72.4 26.2 78.6 25.4 86C27.7 85.9 30 87 32.7 89.3Z" fill="#227AB4"/>
<path d="M32.7 89.3C35.7 91.8 36.1 92.2 36.3 92.5C36.3 92.5 36.8 92.8 38.1 93.7C39.3 94.5 40.6 95.4 41.5 95.4C42.3 95.4 43.6 94.2 45 92.2C49.3 86.1 53.3 81.7 53.3 81.7C60.6 72.4 65.4 66.1 69.1 61.5C70.1 60.1 71.2 58.9 72.1 57.7C68.9 52.9 66.9 47.7 66.3 42C51.5 43.6 39.7 54.6 36.6 68.9C30.5 72.4 26.2 78.6 25.4 86C27.7 85.9 30 87 32.7 89.3Z" fill="#227AB4"/>
<mask id="mask0_116_238" style="mask-type:alpha" maskUnits="userSpaceOnUse" x="25" y="-1" width="200" height="150">
<path d="M198.4 55.5C198.4 55.4 198.4 55.4 198.4 55.2L193.9 61C187.2 69.7 166.8 97.2 160.3 105C154.9 111.4 149.8 113.2 145.9 113.2C141.7 113.2 137.5 111.5 133.4 108.4C131.3 106.8 102.1 84 99.1 81.5C98.1 80.7 97.3 80.2 96.6 80.2C95.7 80.2 94.8001 81.1 94.3001 81.9C91.2001 85.8 76.1 104.1 76.1 104.1C76.1 104.1 67.4 116 62.3 122.9C64.6 123.8 67.1001 124.3 69.8001 124.3C74.0001 124.3 77.8 123.1 81.1 121.1C84.3 136.7 98.1 148.5 114.7 148.5C131.2 148.5 144.9 137 148.3 121.4C151.4 124.9 155.8 127.1 160.9 127.1C166.3 127.1 171.1 124.5 174.3 120.5C179.1 123.1 184.5 124.7 190.4 124.7C209.3 124.7 224.8 109.1 224.8 89.8C224.9 73 213.6 59.2 198.4 55.5Z" fill="#227AB4"/>
<path d="M79.6 47.9C84.5 41.3 90.1 40 93.9 40C98.1 40 102.5 41.7 106.5 44.9C112.2 49.4 137.9 69.8 137.9 69.8L140.2 71.7C141.2 72.5 142 73 142.7 73C143.6 73 144.5 72.1 145 71.3C147.2 68.4 163.7 47.7 170 39.5L173.9 34.6C169.9 14.8 148.1 -0.400002 121.9 -0.400002C92.7 -0.400002 69 18.2 69 41.1C69 46.7 70.4 51.9 72.9 56.7C75.3 53.6 77.2 50.8 79.6 47.9Z" fill="#227AB4"/>
<path d="M32.7 89.3C35.7 91.8 36.1 92.2 36.3 92.5C36.3 92.5 36.8 92.8 38.1 93.7C39.3 94.5 40.6 95.4 41.5 95.4C42.3 95.4 43.6 94.2 45 92.2C49.3 86.1 53.3 81.7 53.3 81.7C60.6 72.4 65.4 66.1 69.1 61.5C70.1 60.1 71.2 58.9 72.1 57.7C68.9 52.9 66.9 47.7 66.3 42C51.5 43.6 39.7 54.6 36.6 68.9C30.5 72.4 26.2 78.6 25.4 86C27.7 85.9 30 87 32.7 89.3Z" fill="#227AB4"/>
</mask>
<g mask="url(#mask0_116_238)">
<path opacity="0.8" d="M128.5 22H113V6.6L128.5 6.7V22Z" fill="#27A9D8" stroke="#1D6EAD" stroke-width="0.2" stroke-miterlimit="10"/>
<path d="M128.5 37.9H113V22.6H128.5V37.9Z" fill="#27A9D8" stroke="#1D6EAD" stroke-width="0.2" stroke-miterlimit="10"/>
<path opacity="0.8" d="M112.5 37.9H97.2V22.6H112.5V37.9Z" fill="#27A9D8" stroke="#1D6EAD" stroke-width="0.2" stroke-miterlimit="10"/>
<path opacity="0.8" d="M144.3 37.9H128.9L129 22.6H144.3V37.9Z" fill="#27A9D8" stroke="#1D6EAD" stroke-width="0.2" stroke-miterlimit="10"/>
<path d="M160.1 22.6H144.8V37.9H160.1V22.6Z" fill="#27A9D8" stroke="#1D6EAD" stroke-width="0.2" stroke-miterlimit="10"/>
<path opacity="0.8" d="M113.058 53.6881L128.358 53.7091L128.379 38.4091L113.079 38.3881L113.058 53.6881Z" fill="#27A9D8" stroke="#1D6EAD" stroke-width="0.2" stroke-miterlimit="10"/>
<path d="M112.5 53.7H97.2V38.4H112.5V53.7Z" fill="#27A9D8" stroke="#1D6EAD" stroke-width="0.2" stroke-miterlimit="10"/>
<path d="M144.3 53.8H128.9V38.4H144.3V53.8Z" fill="#27A9D8" stroke="#1D6EAD" stroke-width="0.2" stroke-miterlimit="10"/>
<path d="M160.1 53.8H144.8V38.4L160.1 38.5V53.8Z" fill="#27A9D8" stroke="#1D6EAD" stroke-width="0.2" stroke-miterlimit="10"/>
<path d="M128.3 69.7H113V54.2H128.3V69.7Z" fill="#27A9D8" stroke="#1D6EAD" stroke-width="0.2" stroke-miterlimit="10"/>
<path opacity="0.8" d="M112.5 69.7L97.2 69.5V54.2H112.5V69.7Z" fill="#27A9D8" stroke="#1D6EAD" stroke-width="0.2" stroke-miterlimit="10"/>
<path d="M144.2 69.7H128.9V54.2L144.3 54.4L144.2 69.7Z" fill="#27A9D8" stroke="#1D6EAD" stroke-width="0.2" stroke-miterlimit="10"/>
<path d="M160.1 69.7H144.7L144.8 54.4H160.1V69.7Z" fill="#27A9D8" stroke="#1D6EAD" stroke-width="0.2" stroke-miterlimit="10"/>
<path d="M176 69.7H160.6V54.4H176V69.7Z" fill="#27A9D8" stroke="#1D6EAD" stroke-width="0.2" stroke-miterlimit="10"/>
<path d="M191.8 69.8L176.5 69.7V54.4H191.8V69.8Z" fill="#27A9D8" stroke="#1D6EAD" stroke-width="0.2" stroke-miterlimit="10"/>
<path opacity="0.1" d="M113.058 85.4579L128.358 85.4789L128.379 70.1789L113.079 70.1579L113.058 85.4579Z" fill="#27A9D8" stroke="#1D6EAD" stroke-width="0.2" stroke-miterlimit="10"/>
<path opacity="0.1" d="M112.5 85.5H97.1L97.2 70.1L112.5 70.2V85.5Z" fill="#27A9D8" stroke="#1D6EAD" stroke-width="0.2" stroke-miterlimit="10"/>
<path opacity="0.1" d="M128.815 85.4581L144.115 85.4796L144.136 70.1796L128.836 70.1581L128.815 85.4581Z" fill="#27A9D8" stroke="#1D6EAD" stroke-width="0.2" stroke-miterlimit="10"/>
<path d="M160.1 85.5H144.7V70.2H160.1V85.5Z" fill="#27A9D8" stroke="#1D6EAD" stroke-width="0.2" stroke-miterlimit="10"/>
<path d="M176 85.6L160.5 85.5L160.6 70.2H176V85.6Z" fill="#27A9D8" stroke="#1D6EAD" stroke-width="0.2" stroke-miterlimit="10"/>
<path opacity="0.8" d="M191.8 85.6H176.5V70.2H191.8V85.6Z" fill="#27A9D8" stroke="#1D6EAD" stroke-width="0.2" stroke-miterlimit="10"/>
<path d="M207.6 85.6H192.3V70.2L207.7 70.3L207.6 85.6Z" fill="#27A9D8" stroke="#1D6EAD" stroke-width="0.2" stroke-miterlimit="10"/>
<path opacity="0.1" d="M113.058 101.313L128.358 101.337L128.381 86.0366L113.081 86.0127L113.058 101.313Z" fill="#27A9D8" stroke="#1D6EAD" stroke-width="0.2" stroke-miterlimit="10"/>
<path opacity="0.1" d="M112.5 101.3H97.1V86H112.5V101.3Z" fill="#27A9D8" stroke="#1D6EAD" stroke-width="0.2" stroke-miterlimit="10"/>
<path opacity="0.1" d="M144.2 101.4L128.9 101.3V86H144.2V101.4Z" fill="#27A9D8" stroke="#1D6EAD" stroke-width="0.2" stroke-miterlimit="10"/>
<path d="M160 101.4H144.7V86H160.1L160 101.4Z" fill="#27A9D8" stroke="#1D6EAD" stroke-width="0.2" stroke-miterlimit="10"/>
<path opacity="0.8" d="M160.527 101.315L175.827 101.333L175.845 86.0329L160.545 86.0154L160.527 101.315Z" fill="#27A9D8" stroke="#1D6EAD" stroke-width="0.2" stroke-miterlimit="10"/>
<path d="M191.8 101.4H176.5V86.1H191.8V101.4Z" fill="#27A9D8" stroke="#1D6EAD" stroke-width="0.2" stroke-miterlimit="10"/>
<path opacity="0.8" d="M176.436 117.226L191.736 117.252L191.762 101.952L176.462 101.926L176.436 117.226Z" fill="#27A9D8" stroke="#1D6EAD" stroke-width="0.2" stroke-miterlimit="10"/>
</g>
<path d="M47.5 95.3C43.3 101.3 40.8 100.6 36.6 97.6C32.4 94.7 36.6 97.6 31 93.1C25.4 88.6 22.3 89.2 17.9 94.7C13.5 100.1 1.80005 115.7 1.80005 115.7L20.9 131C20.9 131 24.9 125.9 27.9 122C31 118.1 34.1 118.8 37 121.2C39.9 123.7 37.9 122 41.3 124.8C48.6 131 51.7001 130.2 56.2001 124.5C60.7001 118.9 72.2 103 72.2 103L53.4001 88C53.4001 88.1 51.7 89.3 47.5 95.3Z" fill="#F39339" stroke="#EB623A" stroke-width="0.3" stroke-miterlimit="10"/>
<path d="M104.6 48.6C96.9001 42.6 88.4001 42.5 81.9001 51.2C75.4001 59.8 70.9001 65.2 55.7001 84.9L74.6001 99.8C74.6001 99.8 88.7001 82.4 91.9001 78.5C95.0001 74.6 98.1001 75.3 101 77.7C104 80 119.6 91.7 119.6 91.7L134.4 72.5C134.3 72.6 110.3 53.2 104.6 48.6Z" fill="#F39339" stroke="#EB623A" stroke-width="0.3" stroke-miterlimit="10"/>
<path d="M173.7 21.5L183.2 29L161.7 56.5C161.7 56.5 149.6 71.7 147.4 74.4C144.4 78.3 141.3 77.8 138.3 75.3C134.3 80.4 122.7 94.8 122.7 94.8C122.7 94.8 132.9 102.8 135 104.4C142.7 110.4 150.7 109.8 157.7 101.5C164.2 93.8 180.4 71.7 180.4 71.7L202.5 43.3L210.8 50.6L214 7.30001L173.7 21.5Z" fill="#F39339" stroke="#EB623A" stroke-width="0.3" stroke-miterlimit="10"/>
<path d="M47.5 95.3C43.3 101.3 40.8 100.6 36.6 97.6C32.4 94.7 36.6 97.6 31 93.1C25.4 88.6 22.3 89.2 17.9 94.7C13.5 100.1 1.79999 115.7 1.79999 115.7L20.9 131C20.9 131 24.9 125.9 27.9 122C31 118.1 34.1 118.8 37 121.2C39.9 123.7 37.9 122 41.3 124.8C48.6 131 51.7 130.2 56.2 124.5C60.7 118.9 72.2 103 72.2 103L53.4 88C53.4 88.1 51.7 89.3 47.5 95.3Z" fill="#F39339"/>
<path d="M21 132.3L0.700012 116L1.20001 115.4C1.30001 115.3 12.9 99.7 17.3 94.4C20 90.9 22.4 89.5 24.8 89.5C26.9 89.5 29 90.5 31.7 92.7C34.6 95 34.9 95.4 35.2 95.7C35.3 95.8 35.3 95.8 37.3 97.3C39.1 98.5 40.5 99.4 41.8 99.4C43.4 99.4 45 98.1 47 95.2C51.3 89.2 53 87.8 53 87.7L53.5 87.3L73.6 103.4L73.1 104C73 104.1 61.6 120 57 125.5C54.9 128.1 52.6 130.4 49.6 130.4C47.3 130.4 44.5 129.1 40.9 125.9C39.2 124.5 38.8 124.2 38.6 124L36.7 122.3C33.7 119.7 31.3 120 28.9 122.9C25.8 126.8 21.9 131.9 21.9 131.9L21 132.3ZM3.00001 115.6L20.8 129.9C22 128.3 25 124.7 27.3 121.6C30.3 117.8 33.8 117.4 37.7 120.7L39.6 122.4C39.9 122.7 40.2 122.9 41.9 124.3C45.3 127.2 47.6 128.5 49.6 128.5C51.4 128.5 53.2 127.3 55.7 124.2C59.6 119.3 68.9 106.4 71.1 103.3L53.3 89.3C52.5 90.1 51 91.9 48.1 95.9C45.8 99.3 43.7 100.8 41.5 100.8C39.7 100.8 38 99.9 36.1 98.5C33.9 96.9 33.9 96.9 33.6 96.7C33.5 96.6 33.1 96.2 30.4 94C28.1 92.1 26.2 91.1 24.7 91.1C22.9 91.1 20.9 92.4 18.6 95.4C14.7 100 5.30001 112.6 3.00001 115.6Z" fill="#EB623A"/>
<path d="M104.6 48.6C96.9 42.6 88.4 42.5 81.9 51.2C75.4 59.8 70.9 65.2 55.7 84.9L74.6 99.8C74.6 99.8 88.7 82.4 91.9 78.5C95 74.6 98.1 75.3 101 77.7C104 80 119.6 91.7 119.6 91.7L134.4 72.5C134.3 72.6 110.3 53.2 104.6 48.6Z" fill="#F39339"/>
<path d="M74.8 101.1L54.4 85L54.9 84.4C62.2 75 67 68.9 70.7 64.1C75 58.8 77.7 55.1 81.1 50.7C84.6 46 89 43.6 93.7 43.6C97.5 43.6 101.4 45.2 105 48C110.6 52.4 134.5 71.9 134.7 72L135.3 72.5L119.6 93L119 92.5C118.4 92 103.3 80.8 100.4 78.4C97.4 75.8 95 76.1 92.6 79C89.5 82.9 75.5 100 75.3 100.3L74.8 101.1ZM56.9 84.7L74.5 98.6C77.1 95.4 88.5 81.5 91.2 78.1C94.2 74.3 97.7 73.9 101.4 77.2C103.9 79.3 116.2 88.5 119.2 90.7L133 72.9C129.1 69.8 109 53.4 103.9 49.4C100.5 46.7 97 45.2 93.7 45.2C89.5 45.2 85.7 47.4 82.4 51.7C79 56.2 76.2 59.7 72 65.2C68.5 69.8 63.9 75.8 56.9 84.7Z" fill="#EB623A"/>
<path d="M173.7 21.5L183.2 29L161.7 56.5C161.7 56.5 149.6 71.7 147.4 74.4C144.4 78.3 141.3 77.8 138.3 75.3C134.3 80.4 122.7 94.8 122.7 94.8C122.7 94.8 132.9 102.8 135 104.4C142.7 110.4 150.7 109.8 157.7 101.5C164.2 93.8 180.4 71.7 180.4 71.7L202.5 43.3L210.8 50.6L214 7.3L173.7 21.5Z" fill="#F39339"/>
<path d="M145.3 109.5C141.7 109.5 138 108.1 134.5 105.3C132.4 103.7 122.2 95.7 122.2 95.7L121.6 95.2L122.1 94.6C122.2 94.5 133.6 80.2 137.7 75.1L138.2 74.3L138.8 74.8C141.8 77.4 144.2 77.1 146.6 74C148.8 71.1 160.7 56.2 160.9 56L181.9 29.1L171.9 21.2L215 6.2L211.6 52.5L202.6 44.7L181.1 72.5C181 72.8 164.8 94.8 158.4 102.3C154.4 107 150 109.5 145.3 109.5ZM124.1 94.8C126.4 96.6 134 102.6 135.6 103.9C143.1 109.7 150.6 108.8 157.1 101.2C163.5 93.7 179.5 71.6 179.7 71.4L202.4 42.2L210.2 48.9L213.1 8.7L175.6 21.8L184.4 28.9L162.3 57.2C162.2 57.3 150.2 72.4 148 75.1C145.3 78.7 141.9 79.3 138.4 76.7C134.7 81.5 126.3 92 124.1 94.8Z" fill="#EB623A"/>
<path d="M13.1 176.5H11L2.79999 164.1V176.5H0.799988V160.8H2.89999L11.1 173.2V160.8H13.1V176.5Z" fill="#227AB4"/>
<path d="M27.7 176.5H15.9V160.8H27.3V162.7H18V167.5H26.7V169.4H18V174.7H27.7V176.5Z" fill="#227AB4"/>
<path d="M41.1 162.7H35.9V176.6H33.8V162.7H28.6V160.8H41.1V162.7V162.7Z" fill="#227AB4"/>
<path d="M61.4 160.8L57 176.5H55L51.2 162.8L47.4 176.5H45.4L41 160.8H43.2L46.3 173.6L49.8 160.8H52.3L55.8 173.6L58.9 160.8H61.4Z" fill="#227AB4"/>
<path d="M69.5 160.5C71.7 160.5 73.5 161.2 74.9 162.7C76.3 164.2 77 166.2 77 168.6C77 171 76.3 173 74.9 174.5C73.5 176 71.7 176.7 69.5 176.7C67.3 176.7 65.5 176 64.1 174.5C62.7 173 62 171 62 168.6C62 166.2 62.7 164.2 64.1 162.7C65.5 161.3 67.3 160.5 69.5 160.5ZM69.5 175C71.1 175 72.4 174.4 73.4 173.3C74.4 172.2 74.9 170.6 74.9 168.6C74.9 166.6 74.4 165 73.4 163.9C72.4 162.8 71.1 162.2 69.6 162.2C68 162.2 66.7 162.8 65.7 163.9C64.7 165 64.2 166.6 64.2 168.6C64.2 170.6 64.7 172.2 65.7 173.3C66.7 174.5 67.9 175 69.5 175Z" fill="#227AB4"/>
<path d="M92.2 176.5H90L88.5 172.3C88.2 171.6 87.8 170.9 87.2 170.5C86.6 170 85.9 169.8 85.1 169.8H81.2V176.5H79.1V160.8H86.1C87.3 160.8 88.3 160.9 89.1 161.2C89.9 161.5 90.5 161.9 91 162.7C91.5 163.5 91.7 164.3 91.7 165.3C91.7 166.4 91.4 167.3 90.8 168C90.2 168.7 89.3 169.2 88.2 169.4C89.3 169.8 90.1 170.7 90.7 172.2L92.2 176.5ZM81.2 167.9H85.9C87.2 167.9 88.1 167.7 88.7 167.3C89.3 166.9 89.6 166.2 89.6 165.2C89.6 163.4 88.5 162.5 86.2 162.5H81.2V167.9Z" fill="#227AB4"/>
<path d="M107.2 176.5H104.4L98.8 168.6L96.4 171V176.5H94.3V160.8H96.4V168.6L104.1 160.8H106.9L100.3 167.3L107.2 176.5Z" fill="#227AB4"/>
<path d="M125.1 176.5H113.4V160.8H124.8V162.7H115.5V167.5H124.2V169.4H115.5V174.7H125.2V176.5H125.1Z" fill="#F79422"/>
<path d="M134 176.8C131.8 176.8 130 176.1 128.7 174.6C127.4 173.1 126.7 171.2 126.7 168.7C126.7 166.2 127.4 164.2 128.7 162.8C130 161.3 131.8 160.6 134 160.6C135.7 160.6 137.2 161.1 138.4 162C139.6 162.9 140.3 164.1 140.4 165.7H138.3C138.2 164.7 137.8 163.9 137 163.3C136.2 162.7 135.2 162.4 134.1 162.4C132.5 162.4 131.2 162.9 130.3 164C129.4 165.1 128.9 166.7 128.9 168.7C128.9 170.7 129.4 172.3 130.3 173.4C131.2 174.5 132.5 175.1 134.1 175.1C135.3 175.1 136.3 174.8 137.1 174.2C137.9 173.6 138.3 172.7 138.4 171.6H140.5C140.3 173.3 139.7 174.6 138.5 175.5C137.2 176.4 135.8 176.8 134 176.8Z" fill="#F79422"/>
<path d="M149.4 160.5C151.6 160.5 153.4 161.2 154.8 162.7C156.2 164.2 156.9 166.2 156.9 168.6C156.9 171 156.2 173 154.8 174.5C153.4 176 151.6 176.7 149.4 176.7C147.2 176.7 145.4 176 144 174.5C142.6 173 141.9 171 141.9 168.6C141.9 166.2 142.6 164.2 144 162.7C145.4 161.3 147.2 160.5 149.4 160.5ZM149.4 175C151 175 152.3 174.4 153.3 173.3C154.3 172.2 154.8 170.6 154.8 168.6C154.8 166.6 154.3 165 153.3 163.9C152.3 162.8 151 162.2 149.5 162.2C147.9 162.2 146.6 162.8 145.6 163.9C144.6 165 144.1 166.6 144.1 168.6C144.1 170.6 144.6 172.2 145.6 173.3C146.5 174.5 147.8 175 149.4 175Z" fill="#F79422"/>
<path d="M171.3 176.5H169.2L161 164.1V176.5H159V160.8H161.1L169.3 173.2V160.8H171.3V176.5Z" fill="#F79422"/>
<path d="M181 160.5C183.2 160.5 185 161.2 186.4 162.7C187.8 164.2 188.5 166.2 188.5 168.6C188.5 171 187.8 173 186.4 174.5C185 176 183.2 176.7 181 176.7C178.8 176.7 177 176 175.6 174.5C174.2 173 173.5 171 173.5 168.6C173.5 166.2 174.2 164.2 175.6 162.7C176.9 161.3 178.8 160.5 181 160.5ZM180.9 175C182.5 175 183.8 174.4 184.8 173.3C185.8 172.2 186.3 170.6 186.3 168.6C186.3 166.6 185.8 165 184.8 163.9C183.8 162.8 182.5 162.2 181 162.2C179.4 162.2 178.1 162.8 177.1 163.9C176.1 165 175.6 166.6 175.6 168.6C175.6 170.6 176.1 172.2 177.1 173.3C178.1 174.5 179.4 175 180.9 175Z" fill="#F79422"/>
<path d="M205.4 176.5H203.4V163.1L198.9 176.5H197L192.5 163.1V176.5H190.5V160.8H193.6L197.9 173.9L202.2 160.8H205.3V176.5H205.4Z" fill="#F79422"/>
<path d="M210.5 176.5H208.4V160.8H210.5V176.5Z" fill="#F79422"/>
<path d="M220.2 176.8C218 176.8 216.2 176.1 214.9 174.6C213.6 173.1 212.9 171.2 212.9 168.7C212.9 166.2 213.6 164.2 214.9 162.8C216.2 161.3 218 160.6 220.2 160.6C221.9 160.6 223.4 161.1 224.6 162C225.8 162.9 226.5 164.1 226.6 165.7H224.5C224.4 164.7 224 163.9 223.2 163.3C222.4 162.7 221.4 162.4 220.3 162.4C218.7 162.4 217.4 162.9 216.5 164C215.6 165.1 215.1 166.7 215.1 168.7C215.1 170.7 215.6 172.3 216.5 173.4C217.4 174.5 218.7 175.1 220.3 175.1C221.5 175.1 222.5 174.8 223.3 174.2C224.1 173.6 224.5 172.7 224.6 171.6H226.7C226.5 173.3 225.9 174.6 224.7 175.5C223.4 176.4 222 176.8 220.2 176.8Z" fill="#F79422"/>
<path d="M35.8 189.1C34.9 189.1 34.2 188.9 33.8 188.5C33.3 188.1 33.1 187.6 33.1 186.9H33.9C33.9 187.4 34.1 187.7 34.5 188C34.9 188.2 35.3 188.3 35.8 188.3C36.3 188.3 36.7 188.2 37 188C37.3 187.8 37.4 187.5 37.4 187.2C37.4 186.8 37.2 186.6 36.9 186.4C36.6 186.2 36.1 186.1 35.3 185.9C34.6 185.7 34 185.5 33.7 185.2C33.4 184.9 33.2 184.6 33.2 184.1C33.2 183.6 33.4 183.2 33.8 182.8C34.2 182.5 34.8 182.3 35.5 182.3C36.2 182.3 36.8 182.5 37.3 182.8C37.8 183.1 38 183.6 38 184.2H37.2C37.1 183.4 36.6 183 35.6 183C35.1 183 34.8 183.1 34.5 183.3C34.2 183.5 34.1 183.7 34.1 184C34.1 184.3 34.2 184.5 34.4 184.6C34.6 184.7 35 184.9 35.6 185C36.2 185.1 36.6 185.3 37 185.4C37.4 185.5 37.6 185.7 37.9 186C38.1 186.3 38.3 186.6 38.3 187C38.3 187.6 38.1 188 37.6 188.4C37.1 188.9 36.5 189.1 35.8 189.1Z" fill="#68696B"/>
<path d="M48.5 189H43.7V182.6H48.4V183.4H44.5999V185.4H48.2V186.2H44.5999V188.4H48.5999V189H48.5Z" fill="#68696B"/>
<path d="M59.5 189H58.6L58 187.3C57.9 187 57.7 186.7 57.5 186.6C57.2 186.4 57 186.3 56.6 186.3H55V189.1H54.1V182.7H57C57.5 182.7 57.9 182.7 58.2 182.8C58.5 182.9 58.8 183.1 59 183.4C59.2 183.7 59.3 184.1 59.3 184.4C59.3 184.8 59.2 185.2 58.9 185.5C58.6 185.8 58.3 186 57.8 186.1C58.2 186.2 58.6 186.6 58.8 187.3L59.5 189ZM54.9 185.5H56.8C57.3 185.5 57.7 185.4 58 185.2C58.2 185 58.4 184.7 58.4 184.3C58.4 183.6 57.9 183.2 57 183.2H55V185.5H54.9Z" fill="#68696B"/>
<path d="M70.2 182.6L67.7 189H66.8L64.3 182.6H65.2L67.2 188.1L69.2 182.6H70.2Z" fill="#68696B"/>
<path d="M76.3 189H75.4V182.6H76.3V189Z" fill="#68696B"/>
<path d="M84.9 189.1C84 189.1 83.3 188.8 82.7 188.2C82.2 187.6 81.9 186.8 81.9 185.8C81.9 184.8 82.2 184 82.7 183.4C83.2 182.8 84 182.5 84.9 182.5C85.6 182.5 86.2 182.7 86.7 183.1C87.2 183.5 87.5 184 87.5 184.6H86.6C86.6 184.2 86.4 183.9 86.1 183.6C85.8 183.4 85.4 183.2 84.9 183.2C84.2 183.2 83.7 183.4 83.3 183.9C82.9 184.4 82.7 185 82.7 185.8C82.7 186.6 82.9 187.3 83.3 187.7C83.7 188.2 84.2 188.4 84.8 188.4C85.3 188.4 85.7 188.3 86 188C86.3 187.7 86.5 187.4 86.5 186.9H87.4C87.3 187.6 87.1 188.1 86.6 188.5C86.2 188.9 85.6 189.1 84.9 189.1Z" fill="#68696B"/>
<path d="M97.8 189H93V182.6H97.7V183.4H93.9V185.4H97.5V186.2H93.9V188.4H97.9V189H97.8Z" fill="#68696B"/>
<path d="M115.4 182.6L112.9 189H112L109.5 182.6H110.4L112.4 188.1L114.4 182.6H115.4Z" fill="#68696B"/>
<path d="M125.3 189H120.5V182.6H125.2V183.4H121.4V185.4H125V186.2H121.4V188.4H125.3V189V189Z" fill="#68696B"/>
<path d="M136 189H135.1L131.7 183.9V189H130.9V182.6H131.8L135.2 187.7V182.6H136V189Z" fill="#68696B"/>
<path d="M146.3 183.3H144.2V189H143.3V183.3H141.2V182.5H146.3V183.3Z" fill="#68696B"/>
<path d="M154.2 189.1C153.5 189.1 152.9 189 152.5 188.7C152.1 188.4 151.9 188.1 151.8 187.7C151.7 187.3 151.7 186.9 151.7 186.3V182.6H152.6V186.3C152.6 187.1 152.7 187.7 153 188C153.3 188.3 153.7 188.4 154.2 188.4C154.7 188.4 155.2 188.3 155.4 188C155.7 187.7 155.8 187.2 155.8 186.3V182.6H156.7V186.3C156.7 187.1 156.6 187.7 156.4 188C156.2 188.3 155.9 188.6 155.6 188.8C155.2 189 154.7 189.1 154.2 189.1Z" fill="#68696B"/>
<path d="M167.9 189H167L166.4 187.3C166.3 187 166.1 186.7 165.9 186.6C165.6 186.4 165.4 186.3 165 186.3H163.4V189.1H162.5V182.7H165.4C165.9 182.7 166.3 182.7 166.6 182.8C166.9 182.9 167.2 183.1 167.4 183.4C167.6 183.7 167.7 184.1 167.7 184.4C167.7 184.8 167.6 185.2 167.3 185.5C167 185.8 166.7 186 166.2 186.1C166.6 186.2 167 186.6 167.2 187.3L167.9 189ZM163.3 185.5H165.2C165.7 185.5 166.1 185.4 166.4 185.2C166.7 185 166.8 184.7 166.8 184.3C166.8 183.6 166.3 183.2 165.4 183.2H163.4V185.5H163.3Z" fill="#68696B"/>
<path d="M178.2 189H173.4V182.6H178.1V183.4H174.3V185.4H177.9V186.2H174.3V188.4H178.2V189V189Z" fill="#68696B"/>
<path d="M186.2 189.1C185.3 189.1 184.6 188.9 184.2 188.5C183.8 188.1 183.5 187.6 183.5 186.9H184.3C184.3 187.4 184.5 187.7 184.9 188C185.3 188.2 185.7 188.3 186.2 188.3C186.7 188.3 187.1 188.2 187.4 188C187.7 187.8 187.8 187.5 187.8 187.2C187.8 186.8 187.6 186.6 187.3 186.4C187 186.2 186.5 186.1 185.7 185.9C185 185.7 184.4 185.5 184.1 185.2C183.8 184.9 183.6 184.6 183.6 184.1C183.6 183.6 183.8 183.2 184.2 182.8C184.6 182.4 185.2 182.3 185.9 182.3C186.6 182.3 187.2 182.5 187.7 182.8C188.2 183.1 188.4 183.6 188.4 184.2H187.6C187.5 183.4 187 183 186 183C185.5 183 185.2 183.1 184.9 183.3C184.6 183.5 184.5 183.7 184.5 184C184.5 184.3 184.6 184.5 184.8 184.6C185 184.7 185.4 184.9 186 185C186.6 185.1 187 185.3 187.4 185.4C187.7 185.5 188 185.7 188.3 186C188.5 186.3 188.7 186.6 188.7 187C188.7 187.6 188.5 188 188 188.4C187.5 188.8 186.9 189.1 186.2 189.1Z" fill="#68696B"/>
</g>
<defs>
<clipPath id="clip0_116_238">
<rect width="226" height="190" fill="white"/>
</clipPath>
</defs>
</svg>
