<svg xmlns="http://www.w3.org/2000/svg" xmlns:xlink="http://www.w3.org/1999/xlink" width="225" height="149" fill="none" xmlns:v="https://vecta.io/nano"><style><![CDATA[.B{stroke-miterlimit:10}.C{fill:#27a9d8}.D{stroke:#1d6ead}.E{stroke-width:.2}.F{opacity:.8}.G{opacity:.1}.H{fill:#f39339}.I{fill:#eb623a}]]></style><g fill="#227ab4"><path d="M198.4 55.5v-.3l-4.5 5.8-33.6 44c-5.4 6.4-10.5 8.2-14.4 8.2-4.2 0-8.4-1.7-12.5-4.8L99.1 81.5c-1-.8-1.8-1.3-2.5-1.3-.9 0-1.8.9-2.3 1.7-3.1 3.9-18.2 22.2-18.2 22.2l-13.8 18.8a20.42 20.42 0 0 0 7.5 1.4c4.2 0 8-1.2 11.3-3.2 3.2 15.6 17 27.4 33.6 27.4 16.5 0 30.2-11.5 33.6-27.1 3.1 3.5 7.5 5.7 12.6 5.7 5.4 0 10.2-2.6 13.4-6.6 4.8 2.6 10.2 4.2 16.1 4.2 18.9 0 34.4-15.6 34.4-34.9.1-16.8-11.2-30.6-26.4-34.3zM79.6 47.9c4.9-6.6 10.5-7.9 14.3-7.9 4.2 0 8.6 1.7 12.6 4.9l31.4 24.9 2.3 1.9c1 .8 1.8 1.3 2.5 1.3.9 0 1.8-.9 2.3-1.7 2.2-2.9 18.7-23.6 25-31.8l3.9-4.9c-4-19.8-25.8-35-52-35C92.7-.4 69 18.2 69 41.1c0 5.6 1.4 10.8 3.9 15.6 2.4-3.1 4.3-5.9 6.7-8.8z"/><use xlink:href="#C"/><use xlink:href="#C"/></g><mask id="A" maskUnits="userSpaceOnUse" x="25" y="-1" width="200" height="150" mask-type="alpha"><path d="M198.4 55.5v-.3l-4.5 5.8-33.6 44c-5.4 6.4-10.5 8.2-14.4 8.2-4.2 0-8.4-1.7-12.5-4.8L99.1 81.5c-1-.8-1.8-1.3-2.5-1.3-.9 0-1.8.9-2.3 1.7-3.1 3.9-18.2 22.2-18.2 22.2l-13.8 18.8a20.42 20.42 0 0 0 7.5 1.4c4.2 0 8-1.2 11.3-3.2 3.2 15.6 17 27.4 33.6 27.4 16.5 0 30.2-11.5 33.6-27.1 3.1 3.5 7.5 5.7 12.6 5.7 5.4 0 10.2-2.6 13.4-6.6 4.8 2.6 10.2 4.2 16.1 4.2 18.9 0 34.4-15.6 34.4-34.9.1-16.8-11.2-30.6-26.4-34.3zM79.6 47.9c4.9-6.6 10.5-7.9 14.3-7.9 4.2 0 8.6 1.7 12.6 4.9l31.4 24.9 2.3 1.9c1 .8 1.8 1.3 2.5 1.3.9 0 1.8-.9 2.3-1.7 2.2-2.9 18.7-23.6 25-31.8l3.9-4.9c-4-19.8-25.8-35-52-35C92.7-.4 69 18.2 69 41.1c0 5.6 1.4 10.8 3.9 15.6 2.4-3.1 4.3-5.9 6.7-8.8zM32.7 89.3l3.6 3.2 1.8 1.2c1.2.8 2.5 1.7 3.4 1.7.8 0 2.1-1.2 3.5-3.2 4.3-6.1 8.3-10.5 8.3-10.5l15.8-20.2c1-1.4 2.1-2.6 3-3.8-3.2-4.8-5.2-10-5.8-15.7-14.8 1.6-26.6 12.6-29.7 26.9-6.1 3.5-10.4 9.7-11.2 17.1 2.3-.1 4.6 1 7.3 3.3z" fill="#227ab4"/></mask><g mask="url(#A)" class="B C D E"><path d="M128.5 22H113V6.6l15.5.1V22z" class="F"/><path d="M128.5 37.9H113V22.6h15.5v15.3z"/><path d="M112.5 37.9H97.2V22.6h15.3v15.3zm31.8 0h-15.4l.1-15.3h15.3v15.3z" class="F"/><path d="M160.1 22.6h-15.3v15.3h15.3V22.6z"/><use xlink:href="#D" class="F"/><path d="M112.5 53.7H97.2V38.4h15.3v15.3zm31.8.1h-15.4V38.4h15.4v15.4zm15.8 0h-15.3V38.4l15.3.1v15.3zm-31.8 15.9H113V54.2h15.3v15.5z"/><path d="M112.5 69.7l-15.3-.2V54.2h15.3v15.5z" class="F"/><path d="M144.2 69.7h-15.3V54.2l15.4.2-.1 15.3zm15.9 0h-15.4l.1-15.3h15.3v15.3zm15.9 0h-15.4V54.4H176v15.3zm15.8.1l-15.3-.1V54.4h15.3v15.4z"/><use xlink:href="#D" y="31.77" class="G"/><path d="M112.5 85.5H97.1l.1-15.4 15.3.1v15.3zm16.315-.042l15.3.022.021-15.3-15.3-.021-.021 15.3z" class="G"/><path d="M160.1 85.5h-15.4V70.2h15.4v15.3zm15.9.1l-15.5-.1.1-15.3H176v15.4z"/><path d="M191.8 85.6h-15.3V70.2h15.3v15.4z" class="F"/><path d="M207.6 85.6h-15.3V70.2l15.4.1-.1 15.3z"/><path d="M113.058 101.313l15.3.024.023-15.3-15.3-.024-.023 15.3zm-.558-.013H97.1V86h15.4v15.3zm31.7.1l-15.3-.1V86h15.3v15.4z" class="G"/><path d="M160 101.4h-15.3V86h15.4l-.1 15.4z"/><path d="M160.527 101.315l15.3.018.018-15.3-15.3-.017-.018 15.3z" class="F"/><path d="M191.8 101.4h-15.3V86.1h15.3v15.3z"/><path d="M176.436 117.226l15.3.026.026-15.3-15.3-.026-.026 15.3zM128.5 22H113V6.6l15.5.1V22z" class="F"/><path d="M128.5 37.9H113V22.6h15.5v15.3z"/><path d="M112.5 37.9H97.2V22.6h15.3v15.3zm31.8 0h-15.4l.1-15.3h15.3v15.3z" class="F"/><path d="M160.1 22.6h-15.3v15.3h15.3V22.6z"/><use xlink:href="#D" class="F"/><path d="M112.5 53.7H97.2V38.4h15.3v15.3zm31.8.1h-15.4V38.4h15.4v15.4zm15.8 0h-15.3V38.4l15.3.1v15.3zm-31.8 15.9H113V54.2h15.3v15.5z"/><path d="M112.5 69.7l-15.3-.2V54.2h15.3v15.5z" class="F"/><path d="M144.2 69.7h-15.3V54.2l15.4.2-.1 15.3zm15.9 0h-15.4l.1-15.3h15.3v15.3zm15.9 0h-15.4V54.4H176v15.3zm15.8.1l-15.3-.1V54.4h15.3v15.4z"/><use xlink:href="#D" y="31.77" class="G"/><path d="M112.5 85.5H97.1l.1-15.4 15.3.1v15.3zm16.315-.042l15.3.022.021-15.3-15.3-.021-.021 15.3z" class="G"/><path d="M160.1 85.5h-15.4V70.2h15.4v15.3zm15.9.1l-15.5-.1.1-15.3H176v15.4z"/><path d="M191.8 85.6h-15.3V70.2h15.3v15.4z" class="F"/><path d="M207.6 85.6h-15.3V70.2l15.4.1-.1 15.3z"/><path d="M113.058 101.313l15.3.024.023-15.3-15.3-.024-.023 15.3zm-.558-.013H97.1V86h15.4v15.3zm31.7.1l-15.3-.1V86h15.3v15.4z" class="G"/><path d="M160 101.4h-15.3V86h15.4l-.1 15.4z"/><path d="M160.527 101.315l15.3.018.018-15.3-15.3-.017-.018 15.3z" class="F"/><path d="M191.8 101.4h-15.3V86.1h15.3v15.3z"/><path d="M176.436 117.226l15.3.026.026-15.3-15.3-.026-.026 15.3z" class="F"/></g><g class="H"><g stroke="#eb623a" stroke-width=".3" class="B"><use xlink:href="#E"/><use xlink:href="#F"/><use xlink:href="#G"/></g><use xlink:href="#E"/></g><path d="M21 132.3L.7 116l.5-.6c.1-.1 11.7-15.7 16.1-21 2.7-3.5 5.1-4.9 7.5-4.9 2.1 0 4.2 1 6.9 3.2 2.9 2.3 3.2 2.7 3.5 3 .1.1.1.1 2.1 1.6 1.8 1.2 3.2 2.1 4.5 2.1 1.6 0 3.2-1.3 5.2-4.2 4.3-6 6-7.4 6-7.5l.5-.4 20.1 16.1-.5.6c-.1.1-11.5 16-16.1 21.5-2.1 2.6-4.4 4.9-7.4 4.9-2.3 0-5.1-1.3-8.7-4.5l-2.3-1.9-1.9-1.7c-3-2.6-5.4-2.3-7.8.6l-7 9-.9.4zM3 115.6l17.8 14.3c1.2-1.6 4.2-5.2 6.5-8.3 3-3.8 6.5-4.2 10.4-.9l1.9 1.7c.3.3.6.5 2.3 1.9 3.4 2.9 5.7 4.2 7.7 4.2 1.8 0 3.6-1.2 6.1-4.3 3.9-4.9 13.2-17.8 15.4-20.9l-17.8-14c-.8.8-2.3 2.6-5.2 6.6-2.3 3.4-4.4 4.9-6.6 4.9-1.8 0-3.5-.9-5.4-2.3l-2.5-1.8c-.1-.1-.5-.5-3.2-2.7-2.3-1.9-4.2-2.9-5.7-2.9-1.8 0-3.8 1.3-6.1 4.3C14.7 100 5.3 112.6 3 115.6z" class="I"/><use xlink:href="#F" class="H"/><path d="M74.8 101.1L54.4 85l.5-.6 15.8-20.3c4.3-5.3 7-9 10.4-13.4 3.5-4.7 7.9-7.1 12.6-7.1 3.8 0 7.7 1.6 11.3 4.4l29.7 24 .6.5L119.6 93l-.6-.5c-.6-.5-15.7-11.7-18.6-14.1-3-2.6-5.4-2.3-7.8.6l-17.3 21.3-.5.8zM56.9 84.7l17.6 13.9 16.7-20.5c3-3.8 6.5-4.2 10.2-.9 2.5 2.1 14.8 11.3 17.8 13.5L133 72.9l-29.1-23.5c-3.4-2.7-6.9-4.2-10.2-4.2-4.2 0-8 2.2-11.3 6.5L72 65.2 56.9 84.7z" class="I"/><use xlink:href="#G" class="H"/><path d="M145.3 109.5c-3.6 0-7.3-1.4-10.8-4.2l-12.3-9.6-.6-.5.5-.6c.1-.1 11.5-14.4 15.6-19.5l.5-.8.6.5c3 2.6 5.4 2.3 7.8-.8 2.2-2.9 14.1-17.8 14.3-18l21-26.9-10-7.9 43.1-15-3.4 46.3-9-7.8-21.5 27.8c-.1.3-16.3 22.3-22.7 29.8-4 4.7-8.4 7.2-13.1 7.2zm-21.2-14.7l11.5 9.1c7.5 5.8 15 4.9 21.5-2.7 6.4-7.5 22.4-29.6 22.6-29.8l22.7-29.2 7.8 6.7 2.9-40.2-37.5 13.1 8.8 7.1-22.1 28.3c-.1.1-12.1 15.2-14.3 17.9-2.7 3.6-6.1 4.2-9.6 1.6l-14.3 18.1z" class="I"/><defs ><path id="C" d="M32.7 89.3l3.6 3.2 1.8 1.2c1.2.8 2.5 1.7 3.4 1.7.8 0 2.1-1.2 3.5-3.2 4.3-6.1 8.3-10.5 8.3-10.5l15.8-20.2c1-1.4 2.1-2.6 3-3.8-3.2-4.8-5.2-10-5.8-15.7-14.8 1.6-26.6 12.6-29.7 26.9-6.1 3.5-10.4 9.7-11.2 17.1 2.3-.1 4.6 1 7.3 3.3z"/><path id="D" d="M113.058 53.688l15.3.021.021-15.3-15.3-.021-.021 15.3z"/><path id="E" d="M47.5 95.3c-4.2 6-6.7 5.3-10.9 2.3-4.2-2.9 0 0-5.6-4.5s-8.7-3.9-13.1 1.6c-4.4 5.4-16.1 21-16.1 21L20.9 131l7-9c3.1-3.9 6.2-3.2 9.1-.8 2.9 2.5.9.8 4.3 3.6 7.3 6.2 10.4 5.4 14.9-.3 4.5-5.6 16-21.5 16-21.5L53.4 88c0 .1-1.7 1.3-5.9 7.3z"/><path id="F" d="M104.6 48.6c-7.7-6-16.2-6.1-22.7 2.6L55.7 84.9l18.9 14.9 17.3-21.3c3.1-3.9 6.2-3.2 9.1-.8l18.6 14 14.8-19.2c-.1.1-24.1-19.3-29.8-23.9z"/><path id="G" d="M173.7 21.5l9.5 7.5-21.5 27.5-14.3 17.9c-3 3.9-6.1 3.4-9.1.9l-15.6 19.5 12.3 9.6c7.7 6 15.7 5.4 22.7-2.9 6.5-7.7 22.7-29.8 22.7-29.8l22.1-28.4 8.3 7.3L214 7.3l-40.3 14.2z"/></defs></svg>