<svg xmlns="http://www.w3.org/2000/svg" width="256" height="256" fill="none"><path stroke="#D5D5D5" d="M211.392 181.844c0 10.152-9.128 19.508-24.277 26.355-15.103 6.826-36.003 11.061-59.115 11.061s-44.012-4.235-59.115-11.061c-15.149-6.847-24.277-16.203-24.277-26.355s9.128-19.508 24.277-26.355c15.103-6.826 36.003-11.061 59.115-11.061s44.012 4.235 59.115 11.061c15.149 6.847 24.277 16.203 24.277 26.355Z"/><path fill="#D9D9D9" d="M64.776 155.236v-1.38c0-.436-.304-.616-.684-.4l-6.328 3.652a1.52 1.52 0 0 0-.684 1.2v1.384c0 .436.308.612.684.4l6.328-3.656a1.5 1.5 0 0 0 .684-1.2M71.568 149.152l-5.572 3.2a1.51 1.51 0 0 0-.684 1.2v1.384c0 .436.308.612.684.4l5.572-3.2zM62 161.256l6.328-3.656a1.52 1.52 0 0 0 .684-1.2v-1.384c0-.436-.308-.612-.684-.4L62 158.292a1.52 1.52 0 0 0-.684 1.2v1.384c0 .42.308.596.684.38M58.976 146.364v1.384c0 .436.304.612.684.4l6.34-3.656a1.5 1.5 0 0 0 .684-1.2v-1.384c0-.436-.304-.612-.684-.4l-6.34 3.692a1.51 1.51 0 0 0-.684 1.164M68.328 132.82 62 136.472a1.52 1.52 0 0 0-.684 1.2v1.384c0 .436.308.612.684.4l6.328-3.652a1.51 1.51 0 0 0 .684-1.2V133.2c0-.424-.308-.6-.684-.38M65.312 131.728v1.384c0 .436.308.612.684.4l5.572-3.2v-2.964l-5.568 3.2a1.51 1.51 0 0 0-.688 1.18M68.328 118.272 62 121.924a1.52 1.52 0 0 0-.684 1.2v1.384c0 .436.308.612.684.4l6.328-3.652a1.51 1.51 0 0 0 .684-1.2v-1.384c0-.444-.308-.62-.684-.4M65.312 117.2v1.38c0 .436.308.612.684.4l5.572-3.2v-2.98L66 116a1.51 1.51 0 0 0-.688 1.2M69.548 118.364v1.384c0 .436.308.612.684.4l1.336-.768v-2.98l-1.336.8a1.52 1.52 0 0 0-.684 1.164M64.8 98.532l-6.32 3.652a1.52 1.52 0 0 0-.684 1.2v1.384c0 .436.308.612.684.4l6.32-3.672a1.52 1.52 0 0 0 .684-1.2v-1.384c.008-.42-.284-.596-.684-.38M65.312 102.636V104c0 .436.308.612.684.4l5.572-3.2v-2.96l-5.572 3.2a1.51 1.51 0 0 0-.684 1.196M68.328 103.724 62 107.376a1.52 1.52 0 0 0-.684 1.2v1.384c0 .436.308.612.684.4l6.328-3.656a1.51 1.51 0 0 0 .684-1.2v-1.384c0-.44-.308-.616-.684-.396M126.496 72.148v1.384a1.5 1.5 0 0 1-.68 1.2l-5.572 3.2v-2.96l5.572-3.2c.376-.236.68-.06.68.376M123.484 76.72l6.328-3.656c.376-.216.684-.04.684.4v1.384a1.52 1.52 0 0 1-.684 1.2l-6.328 3.652c-.4.22-.684.04-.684-.4v-1.384a1.5 1.5 0 0 1 .684-1.196M126.496 86.696v1.384a1.52 1.52 0 0 1-.68 1.2l-5.572 3.2v-2.96l5.572-3.2c.376-.236.68-.06.68.376M123.484 91.268l6.328-3.668c.376-.216.684-.04.684.4v1.384a1.52 1.52 0 0 1-.684 1.2l-6.328 3.652c-.4.22-.684.04-.684-.4v-1.38a1.5 1.5 0 0 1 .684-1.188M122.26 92.768v1.384a1.5 1.5 0 0 1-.68 1.2l-1.336.772V93.16l1.336-.768c.376-.236.68-.06.68.376M126.496 101.244v1.384a1.52 1.52 0 0 1-.68 1.2l-5.572 3.2v-2.96l5.572-3.2c.376-.236.68-.068.68.376M123.484 105.816l6.328-3.656c.376-.216.684-.04.684.4v1.384a1.51 1.51 0 0 1-.684 1.2l-6.328 3.652c-.4.22-.684.04-.684-.4V107a1.5 1.5 0 0 1 .684-1.184M132.836 108.56v1.384a1.51 1.51 0 0 1-.684 1.2l-6.328 3.656c-.376.22-.68.044-.68-.4v-1.384a1.504 1.504 0 0 1 .68-1.2l6.328-3.652c.38-.216.684-.04.684.396M127.036 124.132v-1.384a1.51 1.51 0 0 1 .684-1.2l6.328-3.652c.376-.22.684-.044.684.4v1.384a1.52 1.52 0 0 1-.684 1.2l-6.328 3.656c-.38.208-.684.032-.684-.404M120.244 125.888l5.572-3.2c.376-.216.68-.04.68.4v1.38c-.01.24-.076.474-.195.682a1.5 1.5 0 0 1-.485.518l-5.572 3.2zM129.812 126.944l-6.328 3.656c-.4.216-.684.04-.684-.4v-1.384a1.51 1.51 0 0 1 .684-1.2l6.328-3.616c.376-.22.684-.04.684.4v1.384a1.51 1.51 0 0 1-.684 1.16M120.244 140.436l5.572-3.2c.376-.22.68-.04.68.4v1.38c-.01.24-.076.474-.195.682a1.5 1.5 0 0 1-.485.518l-5.572 3.2zM120.244 147.708l5.572-3.2c.376-.216.68-.04.68.4v1.384a1.52 1.52 0 0 1-.68 1.2l-5.572 3.2z"/><path fill="#37474F" d="M71.568 193.2V94.176a4.8 4.8 0 0 1 2.168-3.752l42.848-24.74a1.53 1.53 0 0 1 1.532-.152l1.484.868a1.52 1.52 0 0 1 .64 1.404v99.02l-3.124 1.804-2.536-1.468-38.4 22.168v2.932l-3.124 1.804z"/><path fill="#263238" d="m81.712 186.128-5.54 3.2v2.932l-3.124 1.804-1.48-.856V94.176a4.4 4.4 0 0 1 .64-2.14l9.432 5.448z"/><path fill="#455A64" d="M73.048 95.036v99.02l3.124-1.8v-2.928l38.4-22.168 2.536 1.464 3.124-1.8V67.792c0-1.388-.972-1.94-2.16-1.252L75.2 91.284a4.8 4.8 0 0 0-2.152 3.752"/><path fill="#F7921E" d="M76.172 95.56v94.992l39.468-22.784V72.78z"/><path fill="#fff" d="M76.172 95.56v94.992l39.468-22.784V72.78z" opacity=".7"/><g opacity=".43"><path fill="#F7921E" d="M82.9 178.904v-79.46l26-15.016v79.456zm1.1-78.828v76.936l23.836-13.76V86.32z"/><path fill="#000" d="M82.9 99.444v79.46l26-15.02V84.428zm24.924 63.808L84 177.012v-76.936l23.836-13.756z" opacity=".1"/></g><path fill="#263238" d="M115.64 167.768V72.78l1.46-.848.004 96.696z"/><path fill="#E0E0E0" d="m76.936 131.288.788.456.004 13.092-.792-.456z"/><path fill="#FAFAFA" d="m77.724 131.744 4.252-2.456.004 13.092-4.252 2.456z"/><path fill="#000" d="m82 132.892-1.864 1.072v2.128a.26.26 0 0 0 .132.233.26.26 0 0 0 .268-.013l1.48-.852z" opacity=".05"/><path fill="#EBEBEB" d="m81.976 129.288-.788-.456-4.252 2.456.788.456z"/><path fill="#E0E0E0" d="m79.356 133.528 1.952 1.124.78-1.352-1.952-1.124a.375.375 0 0 0-.4.036 1.19 1.19 0 0 0-.552.956.4.4 0 0 0 .172.36"/><path fill="#000" d="m80.116 133.964.708.412v-.932l.756-.436-.708-.408-.756.432z" opacity=".1"/><path fill="#FAFAFA" d="M81.06 133.592v2.044l7.8-4.5v-2.044z"/><path fill="#E0E0E0" d="m81.06 133.592-.708-.412v2.048l.708.408z"/><path fill="#EBEBEB" d="m88.86 129.092-.708-.412-7.8 4.5.708.412z"/><path fill="#455A64" d="M79.136 139.292a1.6 1.6 0 0 1 .716-1.24c.4-.228.716-.044.716.4a1.57 1.57 0 0 1-.432 1.008v1.34a.54.54 0 0 1-.244.42l-.08.048c-.136.076-.244 0-.244-.14v-1.336c-.256.032-.432-.16-.432-.5"/><path fill="#000" d="m90.2 108.064 12.028-6.944c.716-.4 1.3-.08 1.3.748v8.26a2.88 2.88 0 0 1-1.3 2.252L90.2 119.324c-.716.4-1.3.076-1.3-.752v-8.26a2.87 2.87 0 0 1 1.3-2.248" opacity=".15"/><path fill="#455A64" d="m90.66 108.4 12.028-6.944c.716-.4 1.3-.08 1.3.748v8.26a2.88 2.88 0 0 1-1.3 2.252L90.66 119.66c-.72.4-1.3.076-1.3-.752v-8.244a2.86 2.86 0 0 1 1.3-2.264"/><path fill="#263238" d="M94.236 107.2h-.032a.15.15 0 0 1-.078-.041.15.15 0 0 1-.038-.139l2.44-10.672a.145.145 0 0 1 .162-.115.15.15 0 0 1 .122.103l2.44 7.86a.15.15 0 0 1-.037.178.153.153 0 0 1-.251-.09l-2.272-7.324-2.292 10.136a.15.15 0 0 1-.164.104"/><path fill="#FAFAFA" d="M91.064 116.352a.3.3 0 0 1-.036-.176v-4.324a.6.6 0 0 1 .036-.22.23.23 0 0 1 .116-.124l1.308-.756c.044-.024.072 0 .092.02q.03.102.024.208v.18a1 1 0 0 1-.024.24.2.2 0 0 1-.033.071.2.2 0 0 1-.059.053l-.864.5v1.2l.776-.424c.04-.024.072 0 .088.02q.037.103.028.212v.168a.8.8 0 0 1-.028.24.22.22 0 0 1-.088.128l-.776.432v1.312l.868-.504a.1.1 0 0 1 .02-.014.1.1 0 0 1 .024-.005.1.1 0 0 1 .024.005.1.1 0 0 1 .02.014q.03.104.024.212v.18a1 1 0 0 1-.024.244.22.22 0 0 1-.088.12l-1.312.76c-.056.048-.096.052-.116.028m2.048-1.312v-4.4a.5.5 0 0 1 .04-.212.3.3 0 0 1 .116-.132l.724-.4q.9-.524.9.8c.02.501-.12.996-.4 1.412v.028q.179.048.304.576l.272 1.18a.2.2 0 0 0 0 .04.1.1 0 0 1 0 .04q.001.162-.244.3l-.128.076c-.14.08-.22.072-.232-.024l-.248-1.2a.5.5 0 0 0-.124-.256q-.07-.048-.212.036l-.168.096v1.704a.4.4 0 0 1-.236.34l-.124.068c-.152.088-.24.06-.24-.072m.912-3.076a.56.56 0 0 0 .204-.304 1.6 1.6 0 0 0 .088-.548.8.8 0 0 0-.084-.44q-.084-.108-.228-.024l-.304.176v1.328zm1.436 1.72v-4.4a.6.6 0 0 1 .036-.216.33.33 0 0 1 .12-.132l.724-.4q.9-.523.9.8c.02.501-.121.995-.4 1.412v.024q.179.053.304.58l.268 1.176v.084q.001.157-.244.296l-.128.076c-.144.08-.22.072-.236-.024l-.244-1.2a.5.5 0 0 0-.124-.252c-.048-.032-.12-.024-.216.032l-.164.096v1.708a.4.4 0 0 1-.24.336l-.12.072c-.16.088-.236.068-.236-.068m.912-3.076a.54.54 0 0 0 .204-.304c.06-.176.088-.362.084-.548a.77.77 0 0 0-.08-.436.15.15 0 0 0-.108-.065.2.2 0 0 0-.064.006.2.2 0 0 0-.056.031l-.304.176v1.332zm1.344-.464q0-2.46 1.156-3.128t1.156 1.792q0 2.472-1.156 3.14t-1.156-1.804m1.572.4c.103-.454.148-.919.132-1.384a3.7 3.7 0 0 0-.132-1.228q-.132-.307-.4-.144a1 1 0 0 0-.4.624 5.4 5.4 0 0 0-.132 1.38c-.025.415.02.832.132 1.232q.14.311.4.148a1.02 1.02 0 0 0 .4-.628m1.252.208v-4.4a.6.6 0 0 1 .036-.216.27.27 0 0 1 .12-.132l.72-.4q.908-.524.904.8c.013.503-.134.998-.42 1.412v.024c.116.036.22.228.304.58l.268 1.176a.1.1 0 0 1 0 .04.2.2 0 0 1 0 .044q0 .157-.24.296l-.132.076q-.209.12-.232-.024l-.248-1.2a.46.46 0 0 0-.124-.252q-.067-.053-.212.032l-.164.096v1.696a.4.4 0 0 1-.24.336l-.12.068c-.144.104-.22.08-.22-.052m.908-3.076a.52.52 0 0 0 .208-.304c.059-.176.087-.362.084-.548a.8.8 0 0 0-.084-.44.15.15 0 0 0-.169-.054.2.2 0 0 0-.055.03l-.304.176v1.328z"/><path fill="#000" d="m73.012 175.944-1.48-.844.004 4.98 1.476.844z" opacity=".2"/><path fill="#F7921E" d="m73.012 174.616-1.672-.976.004 4.98 1.668.976z"/><path fill="#000" d="m73.012 174.616-1.672-.976.004 4.98 1.668.976z" opacity=".2"/><path fill="#000" d="m120.212 114.004-47.2 61.94.004 4.98 47.196-61.936z" opacity=".25"/><path fill="#F7921E" d="m120.212 112.68-47.2 61.936.004 4.98 47.196-61.936z"/><path fill="#455A64" d="M120.212 117.652v-2.26l-2.34.36-1.948 2.556zm-5.836 7.676-4.304.66-1.952 2.56 4.308-.664zm3.9-5.12-4.304.66-1.952 2.56 4.308-.66zm-7.8 10.236-4.304.664-1.952 2.556 4.308-.66zm-3.9 5.12-4.308.66-1.948 2.56 4.304-.66zm-3.9 5.12-4.308.66-1.948 2.56 4.304-.66zm-3.9 5.116-4.308.664-1.952 2.556 4.308-.66zm-3.904 5.12-4.304.66-1.952 2.56 4.308-.66zm-3.9 5.12-4.304.66-1.952 2.56 4.308-.66zm-3.9 5.116-4.308.664-1.948 2.556 4.308-.66zm-3.9 5.12-4.308.66-1.948 2.56 4.304-.66zm-3.9 5.12-4.308.66-1.952 2.56 4.308-.664zm-3.908 5.12-2.352.36v2.72l.4-.524z"/><path fill="#000" d="m73.012 141.408 47.2 6.164v4.98l-47.2-6.16z" opacity=".25"/><path fill="#F7921E" d="m73.012 140.568 47.2 6.16v4.98l-47.2-6.16z"/><path fill="#000" d="m73.012 141.408-1.48-.868.004 4.984 1.476.864z" opacity=".2"/><path fill="#F7921E" d="m73.012 140.568-1.672-.98.004 4.984 1.668.976z"/><path fill="#000" d="m73.012 140.568-1.672-.98.004 4.984 1.668.976z" opacity=".2"/><path fill="#37474F" d="M75.12 141.912s.024 0 .028.036a.2.2 0 0 1 0 .088l-.068.46a.2.2 0 0 1-.024.08c0 .024-.028.032-.04.032l-.536-.068-.088.592.5.064s.024 0 .032.04a.3.3 0 0 1 0 .084l-.068.464a.3.3 0 0 1-.024.08s-.028.032-.04.028l-.5-.064-.136.94a.3.3 0 0 1-.028.08c0 .024-.028.036-.04.032l-.236-.028-.028-.04a.2.2 0 0 1 0-.084l.4-2.8a.2.2 0 0 1 .024-.08s.028-.032.04-.032zm.16 1.176q.036-.232.108-.456.063-.188.164-.36a.7.7 0 0 1 .212-.228A.32.32 0 0 1 76 142a.3.3 0 0 1 .123.039.3.3 0 0 1 .097.085q.1.121.14.272.048.197.052.4.018.232 0 .464c0 .128-.036.256-.056.4s-.04.264-.06.4q-.036.23-.108.452a2 2 0 0 1-.164.364.8.8 0 0 1-.212.228.343.343 0 0 1-.468-.06.8.8 0 0 1-.136-.272 1.6 1.6 0 0 1-.052-.4 3 3 0 0 1 0-.464c0-.12.032-.248.052-.4s.048-.308.072-.42m.676.852c0-.052 0-.112.028-.172s.024-.132.032-.196 0-.132.028-.196 0-.116 0-.168a1 1 0 0 0 0-.2.6.6 0 0 0-.02-.164.3.3 0 0 0-.052-.116.14.14 0 0 0-.091-.052.14.14 0 0 0-.101.028.3.3 0 0 0-.088.096 1 1 0 0 0-.064.152 1.3 1.3 0 0 0-.048.2 2 2 0 0 0-.028.164c0 .064 0 .128-.032.196s0 .132-.028.196 0 .12 0 .172q-.03.186 0 .372c0 .1.068.156.144.164a.19.19 0 0 0 .184-.124 1.2 1.2 0 0 0 .136-.352m1.496-1.732a.4.4 0 0 1 .2.088q.092.086.136.204.048.158.052.324a2.2 2.2 0 0 1-.028.444 2.2 2.2 0 0 1-.136.536.76.76 0 0 1-.204.308l.072 1.064v.048a.2.2 0 0 1-.024.064s0 .028-.032.028l-.244-.032a.06.06 0 0 1-.03-.016.05.05 0 0 1-.014-.032.3.3 0 0 1 0-.08l-.064-.956-.168-.02-.136.928a.2.2 0 0 1-.024.08c0 .024-.028.036-.04.032l-.236-.028-.028-.04a.2.2 0 0 1 0-.084l.4-2.8a.2.2 0 0 1 .024-.08c0-.02.028-.032.04-.032zm-.4 1.292.204.028a.148.148 0 0 0 .132-.056.45.45 0 0 0 .088-.244.5.5 0 0 0 0-.26.14.14 0 0 0-.046-.058.14.14 0 0 0-.07-.026l-.204-.028zm.848 1.868a.1.1 0 0 1-.02-.016.1.1 0 0 1-.008-.024.2.2 0 0 1 0-.084l.4-2.8a.4.4 0 0 1 .028-.08c0-.02.028-.032.04-.028l.576.072a.3.3 0 0 1 .107.034.3.3 0 0 1 .085.074q.076.1.1.224.035.148.032.3-.004.165-.028.328a1.3 1.3 0 0 1-.044.216q-.02.082-.048.16c0 .044-.036.076-.052.104l-.036.06q.056.136.06.284a2.8 2.8 0 0 1-.1.72q-.04.153-.116.292a.5.5 0 0 1-.16.196.24.24 0 0 1-.096.05.25.25 0 0 1-.108.006zm.4-.64.296.04c.036 0 .068-.02.096-.068a.5.5 0 0 0 .06-.184.5.5 0 0 0 0-.192.085.085 0 0 0-.076-.088l-.296-.036zm.596-1.396a.5.5 0 0 0 0-.184.08.08 0 0 0-.072-.08l-.28-.036-.072.496.28.036c.036 0 .064 0 .092-.056a.6.6 0 0 0 .036-.176zm.412 2.216s-.02 0-.028-.04a.2.2 0 0 1 0-.084l.4-2.8a.2.2 0 0 1 .024-.08c0-.02.028-.032.04-.028l.236.028a.048.048 0 0 1 .028.04.2.2 0 0 1 0 .084l-.4 2.8a.3.3 0 0 1-.028.084c0 .02-.028.032-.04.028zm1.64-2.892a.33.33 0 0 1 .212.116c.067.08.115.175.14.276q.058.196.064.4.006.25-.024.496 0 .096-.024.168v.148c0 .048 0 .092-.024.144a1 1 0 0 1-.024.16 3 3 0 0 1-.116.484 2 2 0 0 1-.172.368.8.8 0 0 1-.208.228.32.32 0 0 1-.236.06l-.488-.06-.028-.04a.3.3 0 0 1 0-.084l.4-2.8a.2.2 0 0 1 .024-.08c0-.02.028-.032.04-.028zm.06 1.224c.044-.332 0-.512-.168-.528l-.184-.024-.24 1.652.192.024q.223.031.308-.472l.024-.168.024-.16.024-.152q.01-.077.02-.172m1.392-1.04c.083.009.16.051.212.116a.7.7 0 0 1 .14.272q.058.196.064.4.006.25-.024.496c0 .064 0 .116-.024.168s0 .1 0 .148 0 .092-.02.14 0 .104-.028.164a3 3 0 0 1-.116.484 2 2 0 0 1-.172.368.8.8 0 0 1-.208.228.32.32 0 0 1-.236.06l-.488-.06-.028-.04a.2.2 0 0 1 0-.084l.4-2.8a.2.2 0 0 1 .024-.08s.028-.032.04-.028zm.06 1.224c.044-.332 0-.512-.168-.532l-.184-.02-.24 1.652.192.024c.148 0 .252-.136.308-.472l.024-.172.008-.144.024-.152c.008-.064.012-.12.02-.184zm1.388 1.356.028.036a.2.2 0 0 1 0 .084l-.064.464a.4.4 0 0 1-.028.08.054.054 0 0 1-.04.032l-.852-.112-.028-.04a.3.3 0 0 1 0-.08l.4-2.8a.2.2 0 0 1 .024-.08c0-.024.028-.032.04-.032l.836.108s.024 0 .032.04a.3.3 0 0 1 0 .084l-.068.46a.2.2 0 0 1-.024.08c0 .024-.028.032-.04.032l-.552-.072-.068.472.512.064a.048.048 0 0 1 .028.04.2.2 0 0 1 0 .084l-.068.46a.3.3 0 0 1-.024.084c0 .02-.028.032-.04.028l-.512-.064-.072.484zm1.108.848s-.032 0-.04-.044a.2.2 0 0 1 0-.064l-.196-1.54-.212 1.468a.3.3 0 0 1-.028.08c0 .024-.028.036-.04.032l-.236-.028s-.02 0-.028-.04a.3.3 0 0 1 0-.084l.4-2.8a.2.2 0 0 1 .024-.08c0-.02.028-.032.04-.028l.188.024s.036 0 .044.044 0 .048 0 .064l.192 1.54.216-1.472a.2.2 0 0 1 .024-.08c0-.02.028-.032.04-.028l.236.028s.024 0 .028.04a.2.2 0 0 1 0 .084l-.4 2.8a.3.3 0 0 1-.024.084s-.028.032-.04.028zm1.732.22s-.024 0-.032-.036a.3.3 0 0 1 0-.084l.064-.444-.564-.072s-.024 0-.032-.04a.3.3 0 0 1 0-.084l.068-.46a.6.6 0 0 1 .048-.188l.776-1.568a.2.2 0 0 1 .04-.06.06.06 0 0 1 .036 0l.272.036s.024 0 .028.04a.2.2 0 0 1 0 .084l-.244 1.668.156.02a.048.048 0 0 1 .028.04.2.2 0 0 1 0 .084l-.068.46a.2.2 0 0 1-.028.084c0 .02-.024.032-.036.028h-.156l-.064.444a.2.2 0 0 1-.028.08c0 .024-.024.032-.04.032zm.14-1.26.12-.8-.4.768zm1.608-1.66a.314.314 0 0 1 .216.124q.09.127.124.28.042.198.04.4a5 5 0 0 1-.016.428c0 .128-.036.256-.056.4s-.04.264-.056.4q-.04.225-.104.444a1.6 1.6 0 0 1-.152.364.7.7 0 0 1-.196.236.33.33 0 0 1-.367.029.3.3 0 0 1-.097-.085.7.7 0 0 1-.124-.28 2 2 0 0 1-.04-.4 5 5 0 0 1 .028-.452c0-.12.032-.248.052-.4s.04-.268.064-.4q.036-.225.1-.444.054-.191.152-.364a.7.7 0 0 1 .196-.236.33.33 0 0 1 .236-.044m-.092 1.956c.04-.248.076-.488.108-.732v-.2a1 1 0 0 0 0-.164.3.3 0 0 0-.044-.112.1.1 0 0 0-.036-.036.1.1 0 0 0-.048-.016.13.13 0 0 0-.096.028.3.3 0 0 0-.072.1 1 1 0 0 0-.056.152c0 .06-.028.128-.04.2q-.06.36-.108.732a2 2 0 0 0 0 .2.7.7 0 0 0 0 .164q.009.061.044.112a.1.1 0 0 0 .036.036.1.1 0 0 0 .048.016.1.1 0 0 0 .051-.003.1.1 0 0 0 .045-.025.3.3 0 0 0 .072-.1.7.7 0 0 0 .056-.152 2 2 0 0 0 .04-.2m1.86-1.684s.024 0 .028.036a.2.2 0 0 1 0 .084l-.068.464a.3.3 0 0 1-.024.084l-.036.064-.292.5c.092.087.156.2.184.324.04.183.04.373 0 .556a1.6 1.6 0 0 1-.248.724.44.44 0 0 1-.424.196.37.37 0 0 1-.22-.104.6.6 0 0 1-.14-.216 1.427 1.427 0 0 1-.064-.608.3.3 0 0 1 0-.068s.02-.024.032-.024l.228.028a.06.06 0 0 1 .033.017q.014.013.019.031a1 1 0 0 0 .028.096q.016.053.052.096a.13.13 0 0 0 .045.041q.027.015.059.015a.2.2 0 0 0 .082-.007.2.2 0 0 0 .07-.045.34.34 0 0 0 .088-.212.35.35 0 0 0-.024-.232.2.2 0 0 0-.132-.088h-.148a.1.1 0 0 1-.02-.016.1.1 0 0 1-.008-.024.2.2 0 0 1 0-.084l.056-.376a.3.3 0 0 1 .024-.084l.036-.068.256-.44-.468-.06s-.024 0-.028-.04a.2.2 0 0 1 0-.084l.068-.46a.16.16 0 0 1 .028-.08c0-.024.024-.032.036-.032zm1.836.232s.024 0 .032.04a.3.3 0 0 1 0 .084l-.068.46a.2.2 0 0 1-.024.084s-.028.032-.04.028l-.536-.068-.088.596.5.064s.024 0 .032.04a.3.3 0 0 1 0 .084l-.068.46a.3.3 0 0 1-.024.084c0 .02-.028.032-.04.028L91.2 146l-.136.94a.2.2 0 0 1-.028.08c0 .024-.024.032-.04.032l-.236-.032s-.02 0-.028-.036a.2.2 0 0 1 0-.088l.4-2.8a.2.2 0 0 1 .024-.08c0-.024.028-.032.04-.032zm.148 1.176a4 4 0 0 1 .108-.452q.063-.188.164-.36a.9.9 0 0 1 .212-.232.36.36 0 0 1 .248-.064.34.34 0 0 1 .22.124.8.8 0 0 1 .136.276q.052.197.052.4.021.232 0 .464c0 .124-.036.256-.056.4s-.04.264-.056.4a3.4 3.4 0 0 1-.112.456q-.06.19-.164.36a.75.75 0 0 1-.212.232.34.34 0 0 1-.244.06.36.36 0 0 1-.224-.12.8.8 0 0 1-.132-.276 1.6 1.6 0 0 1-.056-.4q-.006-.233.024-.464c0-.12.032-.248.052-.4s.02-.28.04-.404m.676.852c0-.052.02-.108.032-.172s0-.128.028-.196.02-.132.028-.192 0-.12.02-.168a2 2 0 0 0 0-.204 1 1 0 0 0-.02-.164.3.3 0 0 0-.056-.116.14.14 0 0 0-.091-.052.14.14 0 0 0-.101.028.3.3 0 0 0-.084.096.7.7 0 0 0-.068.156q-.032.096-.048.196c0 .048 0 .104-.028.168s-.02.124-.032.192l-.024.196c0 .064 0 .124-.024.176q-.03.184 0 .368c0 .1.068.156.144.164q.112.012.188-.12.097-.167.136-.356m1.492-1.732c.075.01.146.04.204.088q.091.086.132.204.051.158.052.324a2.2 2.2 0 0 1-.028.444 2.4 2.4 0 0 1-.132.536.8.8 0 0 1-.208.308l.072 1.064a.17.17 0 0 1-.035.132.04.04 0 0 1-.017.008l-.248-.032a.05.05 0 0 1-.029-.015.06.06 0 0 1-.015-.029.3.3 0 0 1 0-.084l-.064-.956h-.164l-.136.932a.2.2 0 0 1-.028.08c0 .02-.024.032-.04.028l-.232-.028s-.024 0-.032-.04a.3.3 0 0 1 0-.084l.4-2.8a.2.2 0 0 1 .028-.084s.024-.032.036-.028zm-.4 1.292.204.028a.156.156 0 0 0 .136-.056.45.45 0 0 0 .084-.244.43.43 0 0 0 0-.26.14.14 0 0 0-.046-.058.14.14 0 0 0-.07-.026l-.2-.028zm.844 1.868s-.024 0-.028-.04a.2.2 0 0 1 0-.084l.4-2.8a.3.3 0 0 1 .028-.084s.024-.032.04-.028l.576.072c.076.01.144.048.192.108q.076.1.1.224.033.148.028.3 0 .279-.068.548a1 1 0 0 1-.052.156.5.5 0 0 1-.048.104l-.036.06a.7.7 0 0 1 .056.284q.005.19-.024.376a4 4 0 0 1-.072.344 1.5 1.5 0 0 1-.116.292.6.6 0 0 1-.16.2.3.3 0 0 1-.096.049.3.3 0 0 1-.108.007zm.38-.64.296.04c.036 0 .068 0 .1-.064a.5.5 0 0 0 .06-.188.5.5 0 0 0 0-.192c0-.052-.036-.084-.072-.088l-.296-.036zm.6-1.396a.6.6 0 0 0 0-.184.08.08 0 0 0-.072-.08l-.28-.036-.072.496.28.036a.09.09 0 0 0 .088-.056.5.5 0 0 0 .064-.176zm.44 2.216s-.024 0-.028-.04a.2.2 0 0 1 0-.084l.4-2.8a.2.2 0 0 1 .028-.08c0-.024.024-.032.04-.032l.232.032s.024 0 .032.036a.3.3 0 0 1 0 .084l-.4 2.8a.16.16 0 0 1-.028.08c0 .024-.024.032-.036.032zm1.644-2.908c.084.011.16.054.212.12a.7.7 0 0 1 .14.272q.057.196.064.4.006.25-.024.496a.6.6 0 0 1-.024.168c0 .052 0 .1-.02.144s0 .096-.02.144 0 .104-.028.16a3 3 0 0 1-.116.488 2 2 0 0 1-.172.368.8.8 0 0 1-.208.228.35.35 0 0 1-.236.06l-.488-.064s-.02 0-.028-.036a.2.2 0 0 1 0-.084l.4-2.8a.2.2 0 0 1 .024-.08c0-.024.028-.032.04-.032zm.06 1.228c.044-.336 0-.512-.168-.532l-.184-.024-.24 1.652.192.028c.148 0 .252-.14.308-.472l.024-.172.024-.156.024-.156c.008-.036.012-.092.02-.152zM99.3 145a.35.35 0 0 1 .212.12.7.7 0 0 1 .14.272q.058.196.06.4.011.25-.024.496c0 .06 0 .116-.02.168s0 .1 0 .144l-.024.144c0 .048 0 .104-.024.16a2.7 2.7 0 0 1-.12.488 1.8 1.8 0 0 1-.168.368.8.8 0 0 1-.208.228.37.37 0 0 1-.24.06L98.4 148s-.024 0-.028-.04a.2.2 0 0 1 0-.084l.4-2.8a.3.3 0 0 1 .028-.08c0-.024.028-.032.04-.032zm.06 1.228c.04-.336 0-.512-.172-.532l-.184-.024-.24 1.652.192.024q.229.03.308-.468c0-.06.02-.12.028-.172l.024-.156c0-.052 0-.104.02-.156s.016-.108.024-.168m1.404 1.372s.02 0 .028.04a.2.2 0 0 1 0 .084l-.064.46a.3.3 0 0 1-.028.08c0 .024-.028.036-.04.032l-.848-.108s-.024 0-.032-.04a.3.3 0 0 1 0-.084l.4-2.8a.2.2 0 0 1 .028-.084c0-.02.024-.032.036-.028l.836.108s.024 0 .032.036a.3.3 0 0 1 0 .088l-.068.46a.2.2 0 0 1-.024.08.1.1 0 0 1-.016.021.1.1 0 0 1-.024.011l-.552-.072-.068.468.512.068s.024 0 .028.04a.2.2 0 0 1 0 .084l-.068.46a.2.2 0 0 1-.024.08c0 .024-.028.032-.04.032l-.516-.068-.068.488zm1.104.832a.06.06 0 0 1-.029-.018.06.06 0 0 1-.015-.03.3.3 0 0 1 0-.064l-.224-1.52-.212 1.472a.16.16 0 0 1-.028.08c0 .024-.024.032-.036.032l-.236-.032s-.024 0-.028-.04a.2.2 0 0 1 0-.084l.4-2.8a.2.2 0 0 1 .028-.08c0-.024.024-.032.04-.032l.184.024a.06.06 0 0 1 .029.016.05.05 0 0 1 .015.028.3.3 0 0 1 0 .064l.196 1.54.212-1.468a.16.16 0 0 1 .028-.08c0-.024.024-.032.036-.032l.236.028s.024 0 .032.04a.3.3 0 0 1 0 .084l-.4 2.8a.16.16 0 0 1-.028.08c0 .024-.024.032-.036.032zm1.732.22a.1.1 0 0 1-.02-.016.1.1 0 0 1-.008-.024.2.2 0 0 1 0-.084l.064-.444-.564-.072s-.024 0-.028-.04a.2.2 0 0 1 0-.084l.068-.46a.7.7 0 0 1 .048-.184l.776-1.572a.2.2 0 0 1 .04-.06.1.1 0 0 1 .02-.005q.01 0 .02.005l.268.032s.024 0 .032.04a.3.3 0 0 1 0 .084l-.24 1.672.152.02s.024 0 .028.036a.2.2 0 0 1 0 .088l-.068.46a.2.2 0 0 1-.024.08s-.028.032-.04.032l-.156-.02-.064.444a.16.16 0 0 1-.028.08c0 .02-.024.032-.036.028zm.144-1.264.116-.8-.38.768zm1.604-1.656a.3.3 0 0 1 .216.124q.09.124.124.276.045.198.04.4 0 .229-.028.456c0 .124-.032.256-.052.4s-.04.264-.06.38q-.038.227-.104.448a2 2 0 0 1-.148.364.8.8 0 0 1-.2.236.3.3 0 0 1-.244.064.293.293 0 0 1-.22-.124.7.7 0 0 1-.12-.276 2 2 0 0 1-.044-.4q.002-.229.032-.456c0-.12.032-.248.052-.4s.04-.264.06-.4a4 4 0 0 1 .1-.444q.056-.19.152-.364a.8.8 0 0 1 .196-.236.33.33 0 0 1 .248-.048m-.092 1.952c.044-.244.076-.488.108-.728v-.204a.7.7 0 0 0 0-.16.3.3 0 0 0-.044-.116.1.1 0 0 0-.036-.034.1.1 0 0 0-.048-.014.1.1 0 0 0-.049.001.1.1 0 0 0-.043.023.3.3 0 0 0-.076.1 1 1 0 0 0-.056.156q-.025.1-.04.2-.06.355-.108.728v.2a.8.8 0 0 0 0 .164.3.3 0 0 0 .044.116.1.1 0 0 0 .037.034q.021.012.047.014a.113.113 0 0 0 .096-.024.3.3 0 0 0 .072-.1.7.7 0 0 0 .056-.156q.028-.098.04-.2m1.856-1.684s.02 0 .028.04a.3.3 0 0 1 0 .084l-.068.46a.3.3 0 0 1-.028.084.3.3 0 0 1-.032.064l-.292.504a.6.6 0 0 1 .184.32c.037.185.037.375 0 .56a1.53 1.53 0 0 1-.248.72.45.45 0 0 1-.428.2.4.4 0 0 1-.216-.104.6.6 0 0 1-.14-.22 1 1 0 0 1-.064-.288 1.2 1.2 0 0 1 0-.32.2.2 0 0 1 .02-.068s0-.024.032-.024l.228.032q.036 0 .048.048c0 .028.02.06.032.092a.3.3 0 0 0 .052.1.13.13 0 0 0 .104.052.2.2 0 0 0 .082-.006.2.2 0 0 0 .07-.042.37.37 0 0 0 .088-.216.34.34 0 0 0-.024-.228.2.2 0 0 0-.056-.06.2.2 0 0 0-.076-.028l-.148-.02s-.024 0-.032-.04a.3.3 0 0 1 0-.084l.052-.372a.3.3 0 0 1 .028-.088l.036-.064.256-.444-.468-.056a.1.1 0 0 1-.02-.016.1.1 0 0 1-.008-.024.2.2 0 0 1 0-.084l.068-.464a.2.2 0 0 1 .024-.08c0-.02.028-.032.04-.028zm1.832.236s.024 0 .032.036a.3.3 0 0 1 0 .088l-.068.46a.2.2 0 0 1-.024.08c0 .02-.028.032-.04.032l-.536-.072-.088.596.5.064s.024 0 .032.04a.3.3 0 0 1 0 .084l-.068.464a.2.2 0 0 1-.024.08s-.028.032-.04.028l-.5-.064-.136.94a.3.3 0 0 1-.028.08c0 .024-.024.032-.04.032l-.236-.032-.028-.036a.2.2 0 0 1 0-.084l.4-2.8a.2.2 0 0 1 .024-.08c0-.024.028-.032.04-.032zm.16 1.176q.037-.23.112-.452.059-.191.164-.36a.8.8 0 0 1 .208-.232.35.35 0 0 1 .248-.064.34.34 0 0 1 .22.124q.096.122.136.272.053.196.056.4a3 3 0 0 1-.024.464c0 .124-.032.252-.052.4s-.04.264-.06.38a3 3 0 0 1-.112.456 1.6 1.6 0 0 1-.164.36.75.75 0 0 1-.208.232.35.35 0 0 1-.468-.06.8.8 0 0 1-.136-.276 1.8 1.8 0 0 1-.056-.4 3 3 0 0 1 .024-.468c0-.116.032-.244.052-.38s.04-.272.06-.396m.68.852c0-.052 0-.108.028-.172s.02-.128.032-.196l.024-.196c0-.06 0-.116.02-.168a1 1 0 0 0 0-.2.7.7 0 0 0-.02-.164.3.3 0 0 0-.052-.116.14.14 0 0 0-.04-.036.149.149 0 0 0-.156.012.24.24 0 0 0-.084.096q-.04.074-.068.152c0 .06-.032.128-.044.2s-.02.104-.032.168 0 .124-.028.192-.02.132-.028.196 0 .12-.02.176a1.2 1.2 0 0 0 0 .368q.035.151.148.164.061.002.112-.032a.2.2 0 0 0 .072-.092 1.1 1.1 0 0 0 .136-.352m1.484-1.732a.36.36 0 0 1 .2.088.46.46 0 0 1 .132.2q.054.158.056.324.006.226-.028.448a2.2 2.2 0 0 1-.136.536.8.8 0 0 1-.204.308l.072 1.06v.048a.2.2 0 0 1-.024.068c0 .02-.02.024-.032.024l-.244-.032c-.024 0-.04 0-.044-.044a.3.3 0 0 1 0-.08l-.064-.956-.168-.024-.136.932a.2.2 0 0 1-.024.08c0 .024-.028.032-.04.032l-.236-.032s-.02 0-.028-.036a.3.3 0 0 1 0-.088l.4-2.8a.2.2 0 0 1 .024-.08c0-.024.028-.032.04-.032zm-.4 1.292.204.024a.148.148 0 0 0 .132-.052.67.67 0 0 0 .076-.504.2.2 0 0 0-.047-.059.2.2 0 0 0-.069-.029l-.204-.024zm.848 1.864s-.024 0-.028-.036a.2.2 0 0 1 0-.084l.4-2.8a.3.3 0 0 1 .028-.08c0-.024.024-.032.04-.032l.576.076a.27.27 0 0 1 .192.104q.076.103.1.228.037.148.028.3a2.2 2.2 0 0 1-.068.544 1 1 0 0 1-.052.16 1 1 0 0 1-.048.104l-.036.056a.7.7 0 0 1 .056.288q.005.187-.024.372-.024.177-.072.348-.04.154-.116.292a.6.6 0 0 1-.16.196.263.263 0 0 1-.204.056zm.4-.636.3.036c.032 0 .064 0 .096-.064a.618.618 0 0 0 .06-.376.085.085 0 0 0-.076-.088l-.296-.04zm.6-1.4a.5.5 0 0 0 0-.184c0-.048-.036-.072-.072-.076l-.28-.036-.072.496.28.036c.036 0 .064 0 .092-.056a.6.6 0 0 0 .032-.18zm.416 2.22s-.024 0-.032-.04a.3.3 0 0 1 0-.084l.4-2.8a.16.16 0 0 1 .028-.08c0-.02.024-.032.036-.028l.236.028s.024 0 .028.04a.2.2 0 0 1 0 .084l-.4 2.8a.2.2 0 0 1-.028.08c0 .024-.024.036-.04.032zm1.636-2.892c.083.01.159.052.212.116q.098.122.14.272.054.196.06.4.011.25-.024.496v.168l-.024.148c0 .044 0 .092-.02.14s0 .104-.024.164a3 3 0 0 1-.12.484 1.7 1.7 0 0 1-.168.368.8.8 0 0 1-.212.228.32.32 0 0 1-.236.06l-.484-.06a.1.1 0 0 1-.02-.016.1.1 0 0 1-.008-.024.2.2 0 0 1 0-.084l.4-2.8a.2.2 0 0 1 .028-.08c0-.02.024-.032.04-.028zm.06 1.224c.04-.332 0-.512-.172-.532l-.184-.024-.24 1.656.192.024q.229.028.308-.472c0-.06 0-.116.028-.172l.024-.156v-.152c0-.052.036-.112.044-.172m1.376-1.04a.33.33 0 0 1 .216.116.8.8 0 0 1 .14.272q.051.197.06.4.011.25-.024.496l-.024.168c0 .052 0 .1-.02.144s0 .096 0 .144l-.024.16a3.4 3.4 0 0 1-.12.488 1.7 1.7 0 0 1-.168.368.8.8 0 0 1-.212.228.32.32 0 0 1-.236.06l-.484-.064s-.024 0-.032-.036a.3.3 0 0 1 0-.084l.4-2.8a.16.16 0 0 1 .028-.08c0-.024.024-.032.04-.032zm.064 1.224c.04-.332 0-.512-.172-.532l-.184-.024-.24 1.656.192.024c.152 0 .252-.14.308-.472 0-.06 0-.116.028-.172s0-.104.02-.156l.024-.152.024-.16zm1.404 1.356.028.036a.2.2 0 0 1 0 .084l-.064.464a.4.4 0 0 1-.028.08c0 .02-.024.032-.04.028l-.852-.108-.028-.036a.3.3 0 0 1 0-.084l.4-2.8a.16.16 0 0 1 .028-.08c0-.024.024-.032.036-.032l.836.108s.024 0 .032.04a.3.3 0 0 1 0 .084l-.068.46a.2.2 0 0 1-.024.08c0 .024-.028.032-.04.032l-.552-.072-.068.472.512.064a.05.05 0 0 1 .028.04.2.2 0 0 1 0 .084l-.068.46a.2.2 0 0 1-.024.08c0 .024-.028.032-.04.032l-.516-.064-.068.484zm1.104.848c-.02 0-.032 0-.044-.044a.3.3 0 0 1 0-.064l-.196-1.54-.216 1.468a.2.2 0 0 1-.024.08c0 .024-.028.032-.04.032l-.236-.032s-.024 0-.028-.036a.2.2 0 0 1 0-.084l.4-2.8a.2.2 0 0 1 .024-.08c0-.024.028-.032.04-.032l.188.024c.02 0 .032.02.04.048a.2.2 0 0 1 0 .064l.196 1.54.212-1.472a.3.3 0 0 1 .028-.08.1.1 0 0 1 .016-.021.1.1 0 0 1 .024-.011l.236.032.028.04a.2.2 0 0 1 0 .084l-.4 2.8a.2.2 0 0 1-.024.08c0 .024-.028.032-.04.032z"/><path fill="#F7921E" d="M84.884 70.108a.4.4 0 0 0-.068-.052l-2.104-1.2v-9.98a.7.7 0 0 0-.164-.508.3.3 0 0 0-.068-.052l-2.248-1.296a.3.3 0 0 0-.328 0L76.8 58.844q-.25.136-.428.356-.21.309-.34.66l-6.208 15.58a4.3 4.3 0 0 0-.268 1.524v3.38a.67.67 0 0 0 .168.508q.03.03.068.052l2.248 1.3a.3.3 0 0 0 .324-.024l4.268-2.464v.652a.68.68 0 0 0 .168.508l.064.052 2.252 1.3a.32.32 0 0 0 .328-.024l2.708-1.564c.18-.117.319-.286.4-.484.105-.219.161-.458.164-.7v-3.248l1.78-1.028c.18-.117.32-.286.4-.484.107-.218.163-.457.164-.7V70.62a.68.68 0 0 0-.176-.512"/><path fill="#000" d="M78.588 60.496v.04a3 3 0 0 0-.316.62l-6.188 15.6q-.12.312-.184.64l-2.264-1.308a4 4 0 0 1 .18-.632L76 59.86q.132-.351.344-.66z" opacity=".15"/><path fill="#000" d="M72 82.188a325 325 0 0 0-2.22-1.28l-.068-.056a.68.68 0 0 1-.168-.512v-3.372q0-.449.088-.888l2.248 1.3q-.085.44-.084.888v3.376a.7.7 0 0 0 .164.508zM78.988 67.4v5.86l-1.896-1.092z" opacity=".3"/><path fill="#000" d="m78.988 73.26-3.02 1.744 1.124-2.836z" opacity=".4"/><path fill="#000" d="m79.048 82.176.04.032-2.22-1.28a.2.2 0 0 1-.068-.052.67.67 0 0 1-.168-.508v-.652l2.252-1.3v3.248a.7.7 0 0 0 .164.512" opacity=".3"/><path fill="#000" d="M84.8 70.044a.31.31 0 0 0-.296.036l-1.78 1.028v-2.264z" opacity=".15"/><path fill="#fff" d="M82.464 58.308a.32.32 0 0 0-.312.028l-3.124 1.804a1.5 1.5 0 0 0-.4.356L76.356 59.2q.168-.212.4-.352l3.128-1.804a.3.3 0 0 1 .328 0z" opacity=".4"/><path fill="#F7921E" d="M79.444 82.204a.31.31 0 0 1-.4-.028.7.7 0 0 1-.164-.512V78.4l-6.52 3.764a.295.295 0 0 1-.4-.028.7.7 0 0 1-.164-.512v-3.376a4.2 4.2 0 0 1 .268-1.524l6.188-15.6q.129-.35.34-.656c.116-.146.26-.267.424-.356l3.124-1.804a.3.3 0 0 1 .4.028.68.68 0 0 1 .164.508v12.232l1.78-1.028a.303.303 0 0 1 .4.028.68.68 0 0 1 .164.512V74c0 .243-.057.482-.164.7a1.05 1.05 0 0 1-.4.484l-1.78 1.028v3.248a1.7 1.7 0 0 1-.164.7c-.081.198-.22.367-.4.484zm-.456-8.944V67.4l-3.02 7.6zM100.596 56a14 14 0 0 0-.424-3.052 4.7 4.7 0 0 0-1.096-2.124 2.7 2.7 0 0 0-.564-.424l-2.256-1.3a2.8 2.8 0 0 0-1.284-.364 5.07 5.07 0 0 0-2.668.84 9.8 9.8 0 0 0-2.668 2.24 13.2 13.2 0 0 0-1.852 2.952 15.5 15.5 0 0 0-1.1 3.388 22 22 0 0 0-.424 3.54q-.04 1.4-.04 2.892c0 1 0 1.924.04 2.8.03 1.03.172 2.053.424 3.052.178.79.557 1.522 1.1 2.124q.248.26.56.44c.376.224 2.072 1.2 2.288 1.324.385.21.814.327 1.252.344a5.07 5.07 0 0 0 2.668-.84 9.8 9.8 0 0 0 2.672-2.24c.743-.9 1.365-1.892 1.852-2.952.495-1.083.862-2.22 1.096-3.388.238-1.166.38-2.35.424-3.54q.04-1.331.04-2.828t-.04-2.884M92.42 67.32a9 9 0 0 1-.08-1.04 72 72 0 0 1 0-5.352q.015-.781.144-1.552.117-.706.372-1.376a4.7 4.7 0 0 1 .664-1.164c.25-.318.555-.59.9-.8q.064.468.096 1.032a85 85 0 0 1 0 5.352 12 12 0 0 1-.132 1.54c-.07.473-.196.936-.372 1.38-.169.42-.396.813-.676 1.168a3.5 3.5 0 0 1-.916.82z"/><path fill="#000" d="M90.572 74.26c-.372-.212-1.88-1.08-2.228-1.288a2.7 2.7 0 0 1-.56-.44 4.7 4.7 0 0 1-1.1-2.124 14.2 14.2 0 0 1-.424-3.052 99 99 0 0 1-.04-2.8c0-1.02 0-1.964.04-2.892a22 22 0 0 1 .424-3.54 15.5 15.5 0 0 1 .7-2.424l2.248 1.3c-.296.78-.529 1.583-.696 2.4a21 21 0 0 0-.424 3.544q-.04 1.392-.044 2.892c0 1 0 1.924.044 2.8.026 1.03.169 2.054.424 3.052a4.7 4.7 0 0 0 1.096 2.12q.24.262.54.452" opacity=".15"/><path fill="#fff" d="M98.424 50.34a2.85 2.85 0 0 0-1.2-.316q-1.116-.056-2.672.84a9.8 9.8 0 0 0-2.668 2.244 13.3 13.3 0 0 0-2.064 3.436l-.188.476-2.248-1.3q.079-.215.164-.424c.056-.14.152-.36.236-.54a13.3 13.3 0 0 1 1.848-2.952 9.9 9.9 0 0 1 2.672-2.24 5.04 5.04 0 0 1 2.668-.84c.451.015.892.14 1.284.364z" opacity=".4"/><path fill="#000" d="M96.768 63.728a12 12 0 0 1-.136 1.544c-.07.471-.193.933-.368 1.376q-.114.285-.264.552l-2.248-1.3q.141-.261.252-.536c.177-.444.303-.907.376-1.38q.117-.765.132-1.54a85 85 0 0 0 0-5.352c0-.376-.052-.72-.096-1.036l.132-.084a1.74 1.74 0 0 1 1.036-.312.93.93 0 0 1 .664.4c.185.288.308.613.36.952q.123.685.156 1.38a87 87 0 0 1 .004 5.336" opacity=".3"/><path fill="#000" d="M96 67.2a4 4 0 0 1-.4.632c-.285.359-.637.66-1.036.884a1.75 1.75 0 0 1-1.032.308.93.93 0 0 1-.672-.4 2.3 2.3 0 0 1-.372-.948 5 5 0 0 1-.056-.348c.35-.21.66-.481.916-.8q.226-.3.4-.632z" opacity=".4"/><path fill="#F7921E" d="M94.552 50.864q1.552-.9 2.672-.84a2.68 2.68 0 0 1 1.852.8 4.7 4.7 0 0 1 1.096 2.124c.254.998.396 2.022.424 3.052q.04 1.344.04 2.844t-.04 2.828a22 22 0 0 1-.424 3.54 15.5 15.5 0 0 1-1.096 3.388 13.4 13.4 0 0 1-1.852 2.952c-.75.9-1.654 1.66-2.672 2.24a5.07 5.07 0 0 1-2.668.84 2.67 2.67 0 0 1-1.852-.8 4.7 4.7 0 0 1-1.096-2.12 14 14 0 0 1-.424-3.052c-.028-.856-.04-1.78-.04-2.8s0-1.96.04-2.892a21.6 21.6 0 0 1 .424-3.54 15.6 15.6 0 0 1 1.096-3.392 13.4 13.4 0 0 1 1.852-2.948 9.8 9.8 0 0 1 2.668-2.224m2.216 12.864a85 85 0 0 0 0-5.352A11 11 0 0 0 96.612 57a2.5 2.5 0 0 0-.36-.952.92.92 0 0 0-.664-.4 1.78 1.78 0 0 0-1.036.312 3.6 3.6 0 0 0-1.032.884c-.276.352-.5.74-.664 1.156q-.255.67-.372 1.376a11 11 0 0 0-.144 1.552 72 72 0 0 0 0 5.352q.012.697.136 1.384c.048.34.176.665.372.948a.92.92 0 0 0 .672.4c.368.008.729-.1 1.032-.308a3.6 3.6 0 0 0 1.048-.884c.278-.355.505-.749.672-1.168.176-.444.3-.908.372-1.38q.11-.768.124-1.544M115.872 50.4a2.5 2.5 0 0 0-.464-.34l-.072-.04-1.708-.992 2.12-4.512c.084-.176.172-.4.264-.628.092-.225.141-.465.144-.708v-3.344a.68.68 0 0 0-.164-.504.4.4 0 0 0-.096-.064L113.7 38a.33.33 0 0 0-.316.028l-9.784 5.628a.9.9 0 0 0-.332.4.6.6 0 0 0-.056.096c-.104.217-.16.455-.164.696v3.312a.67.67 0 0 0 .164.5.6.6 0 0 0 .084.064c.076.036 1.816 1.048 2.164 1.248 0 0-.02 0-.024-.024a.3.3 0 0 0 .4.028l1.444-.836-.48 1.088a7 7 0 0 0-.34.828c0 .052-.032.104-.044.16a.834.834 0 0 0 0 .12v.032q-.021.12-.02.24v2.704a.7.7 0 0 0 .16.504 1 1 0 0 0 .088.06l2.156 1.26-.032-.024a.3.3 0 0 0 .376 0l1.692-.98a3.2 3.2 0 0 1-.608 1.488 5.2 5.2 0 0 1-1.624 1.44 2.33 2.33 0 0 1-1.252.428 2 2 0 0 1-.264-.04l-.976-.564a.4.4 0 0 0-.136-.044.8.8 0 0 0-.492.144l-2.576 1.488a.87.87 0 0 0-.316.4.2.2 0 0 0 0 .044 2 2 0 0 0-.088.26 1.1 1.1 0 0 0-.028.26 4.8 4.8 0 0 0 .436 2.024c.249.554.67 1.014 1.2 1.312.328.184 1.632.952 2.136 1.236-.072-.044-.136-.096-.2-.144q.137.106.288.192c.588.3 1.255.41 1.908.312a6.85 6.85 0 0 0 2.58-.968 11.76 11.76 0 0 0 6.048-10.632q.001-2.458-1-3.368"/><path fill="#000" d="M103.272 44.088v-.028l-.052.1a1.6 1.6 0 0 0-.164.696v3.328a.65.65 0 0 0 .164.504q.035.038.08.06L105.472 50a.05.05 0 0 0-.024-.024.67.67 0 0 1-.164-.504v-3.336a1.55 1.55 0 0 1 .164-.688q.048-.097.112-.184c-.024.036-.052.068-.076.112zm5.312 8.736-2.224-1.284v2.772a.7.7 0 0 0 .16.504 1 1 0 0 0 .088.06c.084.044 1.932 1.112 2.184 1.26l-.028-.028a.67.67 0 0 1-.164-.496v-2.72s-.016-.044-.016-.068" opacity=".15"/><path fill="#000" d="M108.72 52.18c.096-.244.192-.464.288-.668l2.164-4.616-3.888 2.248-.484 1.084c-.096.2-.192.4-.284.668q-.033.076-.056.156c0 .056-.032.104-.044.16v.024a1 1 0 0 1 0 .096.1.1 0 0 1 0 .032 1 1 0 0 0 0 .176l2.224 1.284a2 2 0 0 1 .08-.644" opacity=".3"/><path fill="#000" d="M102.58 59.864v.044c-.074.164-.115.34-.12.52a4.9 4.9 0 0 0 .44 2.028 2.8 2.8 0 0 0 1.2 1.308l2.132 1.24a.2.2 0 0 1-.04-.036 2.83 2.83 0 0 1-1.064-1.224 4.8 4.8 0 0 1-.44-2.028c.002-.196.047-.388.132-.564a1 1 0 0 1 .108-.176l-2.228-1.28a1 1 0 0 0-.12.168" opacity=".15"/><path fill="#000" d="m107.084 58.464-.976-.568a.5.5 0 0 0-.136-.04.83.83 0 0 0-.492.14l-2.576 1.492a.7.7 0 0 0-.208.212l2.228 1.28a.8.8 0 0 1 .212-.212l2.572-1.484c.284-.164.504-.192.652-.076l-1.268-.74z" opacity=".3"/><path fill="#000" d="M109.568 59.788a2.3 2.3 0 0 0 1.26-.428 5.2 5.2 0 0 0 1.62-1.44c.426-.57.654-1.264.648-1.976 0-.728-.22-1.144-.648-1.232a2.4 2.4 0 0 0-1.62.44 3.14 3.14 0 0 1-.608 1.484 5.15 5.15 0 0 1-1.62 1.44c-.368.262-.805.41-1.256.424a2 2 0 0 1-.26-.036l1.268.736.504.356a1.5 1.5 0 0 0 .712.232" opacity=".4"/><path fill="#fff" d="M113.628 49.02s1.232.72 1.708.992a.2.2 0 0 0-.056-.02.13.13 0 0 0-.06-.028 3.1 3.1 0 0 0-1.944-.192zm1.076-10.412-1.008-.588a.33.33 0 0 0-.316.028l-9.78 5.636a.95.95 0 0 0-.336.376v.028l2.22 1.288c.024-.044.052-.076.076-.112q.034-.063.076-.12a.7.7 0 0 1 .196-.172l9.768-5.636a.33.33 0 0 1 .284-.044z" opacity=".4"/><path fill="#F7921E" d="M115.6 39.304a.3.3 0 0 1 .4.028.67.67 0 0 1 .164.504v3.336a1.9 1.9 0 0 1-.164.708q-.138.365-.264.628l-2.12 4.512-.352.752a3.03 3.03 0 0 1 2.132.284q.25.145.464.34 1.001.916 1 3.368a11.761 11.761 0 0 1-6.036 10.636 6.85 6.85 0 0 1-2.604.968 3.16 3.16 0 0 1-1.908-.312 2.85 2.85 0 0 1-1.2-1.308 4.9 4.9 0 0 1-.44-2.028c.002-.196.047-.388.132-.564a.83.83 0 0 1 .32-.4l2.572-1.488q.43-.247.656-.08.226.169.5.356c.213.137.459.217.712.232a2.34 2.34 0 0 0 1.256-.424 5.2 5.2 0 0 0 1.624-1.444 3.2 3.2 0 0 0 .644-1.972q.002-1.102-.644-1.232a2.44 2.44 0 0 0-1.624.432l-1.692.98a.3.3 0 0 1-.4-.028.67.67 0 0 1-.16-.504v-2.692c.003-.244.05-.485.14-.712.096-.244.192-.464.288-.668l2.164-4.616-5.332 3.08a.3.3 0 0 1-.4-.028.67.67 0 0 1-.164-.504v-3.332c.003-.24.059-.476.164-.692.082-.196.221-.362.4-.476z"/><path fill="#F28F8F" d="m193.764 115.276 2.832-.124 1.832 3.472s-1.14.592-5.22.64z"/><path fill="#F7921E" d="M175.84 106.92c1.08.508 1.668 1.096 2.828 2.04 1.432 1.168 6.372 4.524 7.432 4.8a68 68 0 0 0 8.544 1.376s-.46 2.8.136 4.18c-2.536.112-9 .328-11.256-.204-2.4-.568-5.064-1.92-7.112-3.108s-1.592-8.076-.572-9.084"/><path fill="#fff" d="M175.84 106.92c1.08.508 1.668 1.096 2.828 2.04 1.432 1.168 6.372 4.524 7.432 4.8a68 68 0 0 0 8.544 1.376s-.46 2.8.136 4.18c-2.536.112-9 .328-11.256-.204-2.4-.568-5.064-1.92-7.112-3.108s-1.592-8.076-.572-9.084" opacity=".7"/><path fill="#000" d="M176.4 116.024c2.048 1.2 4.696 2.54 7.112 3.108 1.632.4 5.472.38 8.432.304a47.5 47.5 0 0 1-7.6-1.224 29.5 29.5 0 0 1-4.708-2.48c-1.332-.948-1.412-2.648-2.092-5.108-.904-3.264-1.7-3.704-1.7-3.704-1.024 1.008-1.476 7.916.556 9.104" opacity=".1"/><path fill="#F7921E" d="M191.956 119.436a5.8 5.8 0 0 1 .124-3.476s-.824.8-.648 3.488z"/><path fill="#000" d="M191.956 119.436a5.8 5.8 0 0 1 .124-3.476s-.824.8-.648 3.488z" opacity=".1"/><path fill="#FFA8A7" d="M197.756 118.684c2.4-.084 3.292-1.3 3.628-3.408s.276-4.864.304-5.6-.188-.984-.48-1.024c-.108 0-.572.1-.624.88-.096 1.424-.132 2.3-.4 2.288s-.228-1.064-.204-2.5c0-.968 0-1.784-.56-1.784s-.716.576-.744 1.884 0 2.28-.344 2.308c-.28 0-.224-1.372-.288-2.268s-.06-1.432-.62-1.42-.644.732-.624 1.6a34 34 0 0 1-.092 3.6c-.156.516-.692-.756-1.084-1.28-.644-.86-1.432-.468-1.112.316.388.955.68 1.947.872 2.96.168.996.572 3.456 2.372 3.448"/><path fill="#F28F8F" d="M197.744 114.328s1.448 1.508.928 3.12a2.14 2.14 0 0 0 .26-2.16 1.63 1.63 0 0 0-1.188-.96"/><path fill="#263238" d="M166.156 189.932c-.052.456-.112 1.736-2.428 2.052s-3.776-.448-4.4-1.56-.476-2.024-.576-3.056-.948-1.58-1.2-2.112c-.36-.78.168-2 .168-2zm16.896-3.624a1.4 1.4 0 0 1-.152 1.12 4.85 4.85 0 0 1-3.712.992 8.96 8.96 0 0 1-3.924-1.54 5.17 5.17 0 0 0-3.032-.872c-1.116-.04-1.928-.288-2-.58-.148-.512-.148-.84.092-.824z"/><path fill="#455A64" d="M166 188.88a13 13 0 0 0-1.064-1.268 11.45 11.45 0 0 1-2.4-6.144c0-.124-.024-.364-.148-.44s-.252.032-.4.088a2.4 2.4 0 0 1-.716.188 13.4 13.4 0 0 1-1.932-.076c-.16.02-.208.516-.196 1.048-.292-.184-.4-.552-.648-.764-.144-.116-.204-.12-.204-.308v-.36c-.208-.06-.4.748-.56 1.364-.2.712-.448 1.516-.168 2.24q.268.594.652 1.12c.441.605.729 1.308.84 2.048.032.324 0 .656.052.98a2.862 2.862 0 0 0 2.024 2.348c1.408.444 3.528.372 4.772-.612.436-.332.288-1.072.096-1.452m16.116-4.08a12 12 0 0 1-.912-.328 16.8 16.8 0 0 1-3.432-1.852c-.328-.228-.66-.508-.988-.772a3.5 3.5 0 0 1-.472-.504 5.2 5.2 0 0 1-.696-1.128.4.4 0 0 0-.172-.228.34.34 0 0 0-.328.068 1.5 1.5 0 0 1-.256.172l-.272.112c-.291.12-.598.196-.912.224-1.176.104-1.2-.132-1.264.248a3 3 0 0 0 0 .424c-.62-.1-1.108-.304-1.136-.536l-.072-.752c-.924-.128-.832.952-.944 2.136-.092 1.016-.328 1.892-.048 2.632.932.8 2.584.616 3.524.772 1.328.22 1.952 1.2 3.8 1.844 2.976 1.032 4.86-.16 5.416-.676.36-.656.432-1.436-.836-1.856"/><path fill="#263238" d="M159.68 128.056c-.372 3.6-.764 9.02-.916 13.248-.28 7.944-.172 17.876-.172 17.876a27.5 27.5 0 0 0-.856 5.092c-.188 5.076-.152 17.64-.152 17.64s2.104 2.12 5.252.456c0 0 2.8-17.148 3.568-22.152.748-4.772 2.2-15.2 2.2-15.2l.656 14.42a21 21 0 0 0-.492 6.504c.168 2.324 1.496 14.976 1.496 14.976 1.2 1.136 4.736.52 5.508-.4 0 0 1.236-18.136 1.372-20.588.296-5.304.4-25.532 0-28.6s-17.464-3.272-17.464-3.272"/><path fill="#000" d="m168.604 145.024.924-6.116a12.3 12.3 0 0 0 4.4-1.856s-.72 1.632-3.528 2.8l-.912 5.692-.22 13.9z"/><path fill="#263238" d="M164 90.132s-.084 0-.216.044a.994.994 0 0 0-.532-1.12 1.07 1.07 0 0 0-1.38.564l1.504.692c-.489.173-.896.52-1.144.976-.4.848.132 2.656.68 4.888a31.5 31.5 0 0 0 1.2 4.136c.252.652.708.672.708.672v-2.228l-.096-1.844s1.2-1.62 1.316-2.948c.164-1.704-.192-2.4-.192-2.4z"/><path fill="#FFA8A7" d="M164.8 96.616c-.444.4-.8-.612-1.18-1.004s-1.6-.92-2.2.364.556 3.084 1.472 3.508c1.336.62 1.936-.728 1.936-.728v5.572c1.408 2.54 4.516 2.456 5.956 2.8a4.94 4.94 0 0 0-.056-2.5v-1.816a6.7 6.7 0 0 0 1.84.1c1.2-.192 1.868-1.2 2.232-2.512.588-2.116.708-5.672-.108-9.78-1.36-1.052-5.968-.884-8.824.928.208 3.652-.612 4.68-1.068 5.068"/><path fill="#F28F8F" d="M170.728 102.824s-2.716-.536-3.668-1.04a3.15 3.15 0 0 1-1.316-1.292c.145.555.401 1.075.752 1.528.696.884 4.236 1.528 4.236 1.528z"/><path fill="#263238" d="M169.492 95.856a.58.58 0 0 1-.358.536.578.578 0 0 1-.788-.663.59.59 0 0 1 .28-.378.58.58 0 0 1 .676.075q.091.082.14.195.05.112.05.235m4.604-.424a.58.58 0 0 1-.358.536.578.578 0 0 1-.757-.758.578.578 0 0 1 1.115.222m-5.388-1.12-1.2.636a.713.713 0 0 1 .3-.948.67.67 0 0 1 .743.1q.1.091.157.212"/><path fill="#B16668" d="m169.792 99.44 2.036.528a1.04 1.04 0 0 1-.294.542 1.04 1.04 0 0 1-.966.258 1.1 1.1 0 0 1-.776-1.328"/><path fill="#F28F8F" d="M170 99.868q-.105.001-.208.02a1.09 1.09 0 0 0 .8.868.97.97 0 0 0 .512 0 1.1 1.1 0 0 0-.392-.643 1.1 1.1 0 0 0-.712-.245"/><path fill="#263238" d="m174.576 94.424-1.248-.592a.671.671 0 0 1 .64-.409q.137.006.26.065a.726.726 0 0 1 .348.936"/><path fill="#F28F8F" d="m171.292 95.172.364 3.724 1.86-.836z"/><path fill="#F7921E" d="M162.432 104.328c-2.472.884-4.308 1.748-6.024 3.22 0 0 1.776 7.708 2.888 11.952 1.008 3.868.064 11.748.064 11.748s1.556 2.352 10.4 2.096c5-.144 7.44-1.744 7.44-1.744s.424-8.692.232-15.96c-.152-5.848-.576-7.26-1.572-8.724-.72-.488-4.7-1.96-4.7-1.96a10.4 10.4 0 0 0-.344 2.18c-1.472-2.264-8.384-2.808-8.384-2.808"/><path fill="#fff" d="M162.432 104.328c-2.472.884-4.308 1.748-6.024 3.22 0 0 1.776 7.708 2.888 11.952 1.008 3.868.064 11.748.064 11.748s1.556 2.352 10.4 2.096c5-.144 7.44-1.744 7.44-1.744s.424-8.692.232-15.96c-.152-5.848-.576-7.26-1.572-8.724-.72-.488-4.7-1.96-4.7-1.96a10.4 10.4 0 0 0-.344 2.18c-1.472-2.264-8.384-2.808-8.384-2.808" opacity=".3"/><path fill="#000" d="M161.26 124.268c-.104-2.604-.668-7.54-.628-11.28l-1.764-2.676-1.028 3.324c.492 2.04 1.024 4.216 1.456 5.864 1.008 3.868.064 11.748.064 11.748s1.556 2.352 10.4 2.096h.16a14.8 14.8 0 0 1-4.748-1.344c-2.748-1.36-3.808-5.124-3.912-7.732" opacity=".1"/><path fill="#F7921E" d="M164.84 101.972v.428c.08.4.9 1.38 2.964 2.308a6.95 6.95 0 0 1 2.992 2.424s-.704-1.084-1.572-.512-1.748 2-2.196 2-1.944-1.428-3.116-2.652c-.98-1.032-1.48-1.652-1.48-1.652s1.604-2.316 2.408-2.344m5.96 5.168c.628-1.504 1.76-.22 1.832-.212.328.02-.716-2.744-1.892-3.504v1.2z"/><path fill="#fff" d="M164.84 101.972v.428c.08.4.9 1.38 2.964 2.308a6.95 6.95 0 0 1 2.992 2.424s-.704-1.084-1.572-.512-1.748 2-2.196 2-1.944-1.428-3.116-2.652c-.98-1.032-1.48-1.652-1.48-1.652s1.604-2.316 2.408-2.344m5.96 5.168c.628-1.504 1.76-.22 1.832-.212.328.02-.716-2.744-1.892-3.504v1.2z" opacity=".65"/><path fill="#F7921E" d="M172.444 133.108c.104-5.544.248-19.784-1.648-25.968 0 0 1.788 13.164.82 26.076q.432-.048.828-.108"/><path fill="#000" d="M172.444 133.108c.104-5.544.248-19.784-1.648-25.968 0 0 1.788 13.164.82 26.076q.432-.048.828-.108" opacity=".1"/><path fill="#F7921E" d="M163.424 113.792a15.4 15.4 0 0 0 5.636-.68l.088 1.088a14 14 0 0 1-5.6.584z"/><path fill="#000" d="M163.424 113.792a15.4 15.4 0 0 0 5.636-.68l.088 1.088a14 14 0 0 1-5.6.584z" opacity=".1"/><path fill="#EBEBEB" d="M177.268 111.244a.1.1 0 0 0-.002-.044.1.1 0 0 0-.026-.036c-.02 0-.152-.092-.172-.104-.02 0-.048 0-.088.024a1.26 1.26 0 0 1-1.248.136 1 1 0 0 1-.14-.136.1.1 0 0 0-.036-.032l-.176-.108c-.04-.02-.08 0-.108.056-.372.844-1.136 1.688-1.632 1.888a.3.3 0 0 0-.1.068.2.2 0 0 0-.06.14c-.036 1.1.508 2.876 1.628 3.504q.1.07.208.128c1.612-1.588 1.908-4.18 1.952-5.484"/><path fill="#E0E0E0" d="M175.096 116.58c-1.12-.628-1.664-2.4-1.628-3.504a.2.2 0 0 1 .024-.088l.172.112a.2.2 0 0 0-.02.084c-.044 1.04.448 2.688 1.452 3.396"/><path fill="#FAFAFA" d="M177.268 111.244c-.044 1.304-.34 3.896-1.964 5.464-1.144-.612-1.696-2.4-1.66-3.524a.2.2 0 0 1 .06-.14.3.3 0 0 1 .1-.068c.496-.2 1.26-1.044 1.632-1.888.028-.06.064-.076.104-.056a.1.1 0 0 1 .036.032 1.2 1.2 0 0 0 1.564.112.1.1 0 0 1 .088-.028q.026.014.038.041a.08.08 0 0 1 .002.055"/><path fill="#F0F0F0" d="M175.54 111.032q-.061-.029-.104.056c-.372.844-1.136 1.688-1.632 1.888a.3.3 0 0 0-.1.068.2.2 0 0 0-.06.14c-.036 1.108.516 2.912 1.66 3.524.528-1.846.609-3.792.236-5.676"/><path fill="#263238" d="M166.628 92.356s3.728 1.816 7.728.244c4.108-1.62.508-2.768.508-2.768z"/><path fill="#455A64" d="M174.968 84.4c-3.1-.688-6.488-1.052-10.556.616s-5.092 4.16-5.092 4.16 3.944 1.352 7.276.62 8.372-5.396 8.372-5.396"/><path fill="#37474F" d="M161.652 91.448s-2.18-1.772-2.332-2.292a13.7 13.7 0 0 0 4.728-.58c2.672-.8 5.572-3.48 8.564-4.1s4.16.8 4.16.8a14.2 14.2 0 0 1-1.896 3.46s-1.044 2.036-4.564 2.7-8.66.012-8.66.012"/><path fill="#F7921E" d="M161.652 91.448q.063.353.168.696.132.31.324.588c1.248.244 4.248.44 8.204-.504 2.48-.596 3.624-1.284 4.096-1.78a1.35 1.35 0 0 0 .48-1.16l-.048-.548s-.824 1.092-4.88 2.104c-2.736.616-5.548.82-8.344.604"/><path fill="#000" d="M161.652 91.448q.063.353.168.696.132.31.324.588c1.248.244 4.248.44 8.204-.504 2.48-.596 3.624-1.284 4.096-1.78a1.35 1.35 0 0 0 .48-1.16l-.048-.548s-.824 1.092-4.88 2.104c-2.736.616-5.548.82-8.344.604" opacity=".05"/><path fill="#FFA8A7" d="M163.812 146.064c-.4-.584-1.324-1.112-1.668-1.456-.608-.616-1.496-1.916-1.364-2.156s.504.072 1.28.068c1.2 0 1.528-.472 1.516-.912 0-.344-.732-.28-1.6-.472-.764-.244-1.68-1.104-2.18-1.78s-.904-2.44-.904-2.44-2.596.036-4.4 1.264c0 0 .516 2.68 1.108 4.58.66 2.132 2.156 4.484 4.432 5.012a5.54 5.54 0 0 0 2.864-.144c.276-.073.535-.201.76-.376a.8.8 0 0 0 .346-.559.8.8 0 0 0-.19-.629"/><path fill="#F7921E" d="M156.4 107.548s-.4-.08-1.072 1.464a24.8 24.8 0 0 0-1.308 4.612c-.268 1.288-1.548 8.052-1.548 10.96s.868 8.752 2 13.732c1.392.14 3.784-.22 4.584-1.132-.524-4.968-.964-7.524-.844-11.432.8-5.8 3.148-11.876 3.248-12.552.212-1.484-2.132-6.148-5.06-5.652"/><path fill="#fff" d="M156.4 107.548s-.4-.08-1.072 1.464a24.8 24.8 0 0 0-1.308 4.612c-.268 1.288-1.548 8.052-1.548 10.96s.868 8.752 2 13.732c1.392.14 3.784-.22 4.584-1.132-.524-4.968-.964-7.524-.844-11.432.8-5.8 3.148-11.876 3.248-12.552.212-1.484-2.132-6.148-5.06-5.652" opacity=".65"/><path fill="#000" d="M154.508 132c-.696-3.4-1.836-10.056-1.056-15.292-.448 2.572-.972 6-.972 7.876 0 2.908.868 8.752 2 13.732a8 8 0 0 0 1.664-.032c-.5-1.644-1.208-4.188-1.636-6.284" opacity=".1"/><path fill="#F7921E" d="M153.976 135.876c1.136.072 3.156-.248 4-.8 0 0-1.472.652-4.076.28z"/><path fill="#000" d="M153.976 135.876c1.136.072 3.156-.248 4-.8 0 0-1.472.652-4.076.28z" opacity=".1"/><path fill="#EBEBEB" d="M173.916 86.252v-.06l-.128-.08h-.068a.94.94 0 0 1-.932.1.6.6 0 0 1-.104-.104.1.1 0 0 0-.028-.024l-.128-.08c-.028 0-.056 0-.076.044a3.05 3.05 0 0 1-1.22 1.408.2.2 0 0 0-.076.052.17.17 0 0 0-.044.104c-.028.8.38 2.148 1.2 2.616q.072.054.152.096c1.2-1.164 1.42-3.096 1.452-4.072"/><path fill="#E0E0E0" d="M172.296 90.236c-.84-.468-1.244-1.796-1.2-2.616a.2.2 0 0 1 0-.064l.132.08a.1.1 0 0 0 0 .064c-.028.776.316 2.008 1.068 2.536"/><path fill="#FAFAFA" d="M173.916 86.252c-.032.976-.252 2.908-1.468 4.08-.852-.456-1.264-1.804-1.236-2.632q0-.03.011-.056a.2.2 0 0 1 .033-.048.3.3 0 0 1 .072-.052 3 3 0 0 0 1.22-1.408c.02-.044.052-.06.08-.044a.1.1 0 0 1 .028.024.876.876 0 0 0 1.168.084c.028-.02.048-.024.064 0 0 0 .032.02.028.052"/><path fill="#F0F0F0" d="M172.628 86.092c-.028 0-.06 0-.08.044a3 3 0 0 1-1.22 1.408.3.3 0 0 0-.072.052.2.2 0 0 0-.033.047.2.2 0 0 0-.011.057c-.028.828.4 2.176 1.236 2.632a9 9 0 0 0 .18-4.24"/><path fill="#F7921E" d="m167.944 80-2.184-4.976 1.756-5.068v-3.124l-5.376 3.104v3.104l2.312 4.872c.036.062.091.11.156.14z"/><path fill="#000" d="m167.944 80-2.184-4.976 1.756-5.068v-3.124l-5.376 3.104v3.104l2.312 4.872c.036.062.091.11.156.14z" opacity=".2"/><path fill="#F7921E" d="M184.028 50.056a3.57 3.57 0 0 0-1.6-2.8l-1.312-.756a3.55 3.55 0 0 0-3.224 0l-30.848 17.844a3.56 3.56 0 0 0-1.6 2.8V79.44a3.57 3.57 0 0 0 1.6 2.8l1.312.756a3.55 3.55 0 0 0 3.224 0l13.936-8 2.308 4.868a.346.346 0 0 0 .62-.06l2.44-7.908 11.516-6.744a3.57 3.57 0 0 0 1.6-2.8z"/><path fill="#000" d="M145.432 79.44a3.57 3.57 0 0 0 1.6 2.8l1.312.756a3.6 3.6 0 0 0 2.948.132c-.756.284-1.336-.144-1.336-1.06V69.752a3.3 3.3 0 0 1 .472-1.6l-4.536-2.62a3.3 3.3 0 0 0-.472 1.6z" opacity=".2"/><path fill="#fff" d="M183.976 49.6c-.188-.684-.8-.9-1.556-.472L151.6 66.964a3.14 3.14 0 0 0-1.136 1.2l-4.532-2.616a3.2 3.2 0 0 1 1.132-1.2l30.832-17.84a3.6 3.6 0 0 1 3.228 0l1.316.76a3.57 3.57 0 0 1 1.536 2.332" opacity=".5"/><path fill="#455A64" d="M152.192 77.252v-6.5a.9.9 0 0 1 .06-.352.44.44 0 0 1 .188-.204l1.844-1.068q.101-.055.148.04.06.177.048.364v.32q.007.214-.048.42a.34.34 0 0 1-.148.208l-1.044.604v1.508l.984-.568q.101-.06.148.036a1 1 0 0 1 .044.368v.32q.006.204-.044.4a.35.35 0 0 1-.148.208l-.984.568v2.704a.65.65 0 0 1-.4.556l-.268.152c-.248.172-.38.136-.38-.084M154.9 72.4q0-3.688 1.756-4.708.856-.492 1.304.148c.296.424.448 1.272.448 2.536a8.7 8.7 0 0 1-.448 3.056 3.1 3.1 0 0 1-1.304 1.652q-1.752 1-1.756-2.684m2.152.896c.119-.268.193-.553.22-.844q.087-.73.076-1.464a9 9 0 0 0-.076-1.364 1 1 0 0 0-.22-.592c-.1-.08-.228-.072-.4 0a1 1 0 0 0-.4.432c-.12.269-.197.555-.228.848q-.087.726-.076 1.456-.014.687.076 1.368c.01.217.09.425.228.592a.33.33 0 0 0 .4 0c.174-.107.313-.263.4-.448zm1.972.012V66.8a.8.8 0 0 1 .064-.352.44.44 0 0 1 .204-.216l1.108-.632a.92.92 0 0 1 .992-.104q.377.257.376 1.348a3.6 3.6 0 0 1-.636 2.112V69a.45.45 0 0 1 .268.256q.13.245.18.516l.4 1.752.02.112c0 .184-.136.356-.4.516l-.232.136c-.236.136-.372.124-.4-.044l-.356-1.756a.44.44 0 0 0-.136-.24c-.052-.032-.132 0-.244.048l-.16.092v2.332a.67.67 0 0 1-.4.564l-.228.132c-.288.144-.42.112-.42-.108m1.408-4.652a.68.68 0 0 0 .248-.372c.077-.232.112-.476.104-.72a1.06 1.06 0 0 0-.104-.576.2.2 0 0 0-.055-.054.19.19 0 0 0-.217.01l-.352.204v1.724zm2.108 2.832a.44.44 0 0 1-.06-.28V64.8a.8.8 0 0 1 .06-.34.44.44 0 0 1 .188-.204l1.2-.692q1.409-.814 1.408.928a3.57 3.57 0 0 1-.604 2.052v.036a.51.51 0 0 1 .536.292 2 2 0 0 1 .196.992c0 .589-.136 1.17-.4 1.696a2.8 2.8 0 0 1-1.136 1.2l-1.22.708c-.064.06-.128.06-.168.02m1.396-4.988a.75.75 0 0 0 .316-.4c.079-.234.114-.481.104-.728a1.1 1.1 0 0 0-.096-.576q-.096-.135-.312 0l-.476.276v1.7zm.048 3.004a.85.85 0 0 0 .364-.424c.09-.257.13-.528.116-.8a1.06 1.06 0 0 0-.112-.608c-.076-.092-.2-.088-.368 0l-.512.292v1.808zm2.076-.26V62.64a.65.65 0 0 1 .4-.564l.284-.164c.252-.148.38-.104.38.12v6.604a.65.65 0 0 1-.38.564l-.284.16c-.272.152-.4.112-.4-.116m1.852-.844a.4.4 0 0 1-.064-.28v-6.4a.8.8 0 0 1 .064-.352c.035-.088.1-.16.184-.204l1.276-.736q.871-.504 1.284.156c.272.44.4 1.268.4 2.476.034 1-.101 1.998-.4 2.952a3 3 0 0 1-1.284 1.64l-1.276.732c-.096.044-.148.048-.184.016m1.424-2.076a1.22 1.22 0 0 0 .512-.8c.12-.604.171-1.22.152-1.836a5.8 5.8 0 0 0-.152-1.66c-.104-.28-.272-.356-.512-.216l-.428.244v4.504zm2.44-.168a.44.44 0 0 1-.06-.28v-6.4a.9.9 0 0 1 .06-.352.44.44 0 0 1 .188-.204l1.276-.736q.868-.504 1.28.156t.4 2.476c.035 1-.1 1.998-.4 2.952a2.96 2.96 0 0 1-1.28 1.64l-1.276.732q-.127.077-.188.016m1.428-2.08a1.23 1.23 0 0 0 .512-.8c.12-.604.17-1.22.152-1.836a5.8 5.8 0 0 0-.152-1.66q-.157-.425-.512-.22l-.428.248v4.52zm2.44-.152a.44.44 0 0 1-.06-.28v-6.4a.85.85 0 0 1 .06-.348.47.47 0 0 1 .188-.208l1.976-1.14a.092.092 0 0 1 .148.036c.04.118.056.244.048.368v.32q.004.204-.048.4a.35.35 0 0 1-.148.208l-1.18.72v1.496l1.048-.604q.101-.055.148.04.06.177.048.364v.304q.008.214-.048.42a.34.34 0 0 1-.148.208l-1.048.604v1.672l1.2-.684q.102-.061.144.04.054.181.044.368v.32q.004.204-.044.4a.33.33 0 0 1-.144.208l-2 1.144c-.08.06-.144.064-.184.024M178.612 62v-6.608a.64.64 0 0 1 .4-.552l.172-.104a.4.4 0 0 1 .216-.064c.052 0 .096.056.132.152l1.2 2.668q.135.33.228.676l.028-.04a8 8 0 0 1-.056-.8v-3.276a.652.652 0 0 1 .4-.552l.164-.092c.256-.152.4-.116.4.104v6.604a.65.65 0 0 1-.4.556l-.128.072a.42.42 0 0 1-.224.072c-.056 0-.104-.056-.14-.152l-1.28-2.768a4 4 0 0 1-.18-.556l-.032.048q.045.334.052.672v3.396a.64.64 0 0 1-.4.556l-.16.092q-.391.221-.392-.104M77.88 198.096c3.364-3.476 5.344-17.6 2.06-20.364H63.232c-3.28 2.752-1.308 16.884 2.06 20.36l.092.096.116.112q.144.147.304.276l.08.064.252.192q.21.154.436.28c2.768 1.62 7.26 1.62 10.028 0q.227-.126.436-.28c.084-.06.16-.12.24-.184l.096-.076c.108-.088.204-.176.296-.264l.132-.132z"/><path fill="#455A64" d="M64.684 176.62c-3.812 2.228-3.812 5.836 0 8.06s10 2.224 13.804 0 3.812-5.832 0-8.06-9.992-2.22-13.804 0"/><path fill="#fff" d="M64.684 176.62c-3.812 2.228-3.812 5.836 0 8.06s10 2.224 13.804 0 3.812-5.832 0-8.06-9.992-2.22-13.804 0" opacity=".1"/><path fill="#263238" d="M66.516 177.692c-2.8 1.632-2.8 4.284 0 5.916s7.34 1.636 10.14 0 2.8-4.284 0-5.916-7.34-1.636-10.14 0"/><path fill="#F5F5F5" d="M76.652 180.5c-2.8-1.636-7.336-1.636-10.136 0a4.7 4.7 0 0 0-1.676 1.556c.424.644 1 1.175 1.676 1.544 2.8 1.636 7.34 1.636 10.136 0a4.7 4.7 0 0 0 1.68-1.552 4.67 4.67 0 0 0-1.68-1.548"/><path fill="#F7921E" d="m62.324 150.308 6.68 4.568-6.316-2.4c.054 1.691.48 3.349 1.248 4.856 0 0 4.172 2.024 6.44 4.16l-5.556-1.748a6.1 6.1 0 0 0 .172 2.904q.055.191.116.4c.296.888.716 2.572 1.424 4.56a29.3 29.3 0 0 0 2.296 5.024q.69 1.179 1.528 2.256l.104.136a78 78 0 0 1 3.2-2.02c.64-1.64 1.348-5.624 1.476-8.856.484-12.372-9.292-18.756-16.924-20.588.024.004 2.816 3.04 4.112 6.748"/><path fill="#000" d="m62.324 150.308 6.68 4.568-6.316-2.4c.054 1.691.48 3.349 1.248 4.856 0 0 4.172 2.024 6.44 4.16l-5.556-1.748a6.1 6.1 0 0 0 .172 2.904q.055.191.116.4c.296.888.716 2.572 1.424 4.56a29.3 29.3 0 0 0 2.296 5.024q.69 1.179 1.528 2.256l.104.136a78 78 0 0 1 3.2-2.02c.64-1.64 1.348-5.624 1.476-8.856.484-12.372-9.292-18.756-16.924-20.588.024.004 2.816 3.04 4.112 6.748" opacity=".3"/><path fill="#FAFAFA" d="M67.652 150.448a9.2 9.2 0 0 1 1.736 2.092 19 19 0 0 1 1.224 2.44 25 25 0 0 1 1.496 5.232 23.1 23.1 0 0 1-.588 10.756.18.18 0 0 0 .057.189.2.2 0 0 0 .061.033q.034.011.07.007a.17.17 0 0 0 .12-.064.2.2 0 0 0 .032-.061c1-3.546 1.144-7.279.424-10.892a25 25 0 0 0-1.6-5.236 19 19 0 0 0-1.264-2.428 9.3 9.3 0 0 0-1.768-2.068"/><path fill="#F7921E" d="M91.008 156.628c-.152.196-2.516 2.256-6.144 8.428l-7.356 1.848 6 .54-2.752 4.8-6.28 1.552 4.976.616s-1.2 4.872-4.644 7.02c-1.912 1.2-2.86 1.392-3.468.86-.424-.376-.608-2.684-1.032-4.736s-.58-5.408 1.2-9.532a12.6 12.6 0 0 1 1.912-3.056c4.468-5.368 13.212-8.236 17.588-8.34"/><path fill="#000" d="M91.008 156.628c-.152.196-2.516 2.256-6.144 8.428l-7.356 1.848 6 .54-2.752 4.8-6.28 1.552 4.976.616s-1.2 4.872-4.644 7.02c-1.912 1.2-2.86 1.392-3.468.86-.424-.376-.608-2.684-1.032-4.736s-.58-5.408 1.2-9.532a12.6 12.6 0 0 1 1.912-3.056c4.468-5.368 13.212-8.236 17.588-8.34" opacity=".15"/><path fill="#000" d="M72.868 170.136a19.5 19.5 0 0 0-1.268 5.388c-.11 2.326-.08 4.657.088 6.98a1.2 1.2 0 0 1-.364-.204c-.424-.376-.608-2.684-1.032-4.736s-.58-5.408 1.2-9.532a12.6 12.6 0 0 1 1.912-3.056c4.48-5.396 13.224-8.252 17.6-8.356-6.672 1.356-13.716 6.104-17.08 11.436q-.617.995-1.056 2.08" opacity=".1"/><path fill="#F7921E" d="M52.02 161.3a13 13 0 0 1 1.6 0c2.13.125 4.235.514 6.268 1.16a33 33 0 0 1 2.264.8q.559.234 1.112.492a18 18 0 0 1 4.936 3.32 11.4 11.4 0 0 1 1.756 2.2c.064.104.132.208.192.312.156.272.292.544.428.8a15.5 15.5 0 0 1 1.824 7.548c.036 1.848-.476 4-.8 4.356a1 1 0 0 1-.152.128c-.508.364-1.356.216-2.968-.572-3.228-1.576-4.704-5.944-4.704-5.944l4.312-.98-5.648-.8-2.468-3.416 4.136-.988-5.708-.568a84 84 0 0 0-6.352-7.84z"/><path fill="#000" d="M53.64 161.288c2.13.125 4.235.514 6.268 1.16a33 33 0 0 1 2.264.8q.559.234 1.112.492a18 18 0 0 1 4.936 3.32 11.4 11.4 0 0 1 1.756 2.2c.064.104.132.208.192.312.156.272.292.544.428.8a15.5 15.5 0 0 1 1.804 7.56c.036 1.848-.476 4-.8 4.356a.965.965 0 0 1-.492.276c.228-2.88-1.6-10.052-3.872-12.916-2.4-2.98-7.892-7.2-15.2-8.34q.802-.059 1.604-.02" opacity=".05"/></svg>