<svg xmlns="http://www.w3.org/2000/svg" width="256" height="256" fill="none"><path stroke="#D5D5D5" d="M223.848 174.048c0 13.454-10.548 25.759-27.884 34.73-17.31 8.958-41.259 14.514-67.74 14.514s-50.43-5.556-67.74-14.514c-17.336-8.971-27.884-21.276-27.884-34.73s10.548-25.759 27.884-34.73c17.31-8.958 41.259-14.514 67.74-14.514s50.43 5.556 67.74 14.514c17.336 8.971 27.884 21.276 27.884 34.73Z"/><path fill="#EBEBEB" d="m70.432 46.052-3.672 2.12c0-.164.032-.324.032-.484v-1.064c0-1.892-1.332-2.66-2.968-1.712a5.66 5.66 0 0 0-1.768 1.7c-.272-2.4-2.136-3.268-4.4-1.956-2.456 1.412-4.456 4.856-4.456 7.688v1.6a4.2 4.2 0 0 0 .4 1.836l-3.052 1.76a3.64 3.64 0 0 0-1.656 2.86c0 1.048.736 1.472 1.644.948l19.896-11.484a3.64 3.64 0 0 0 1.644-2.852c0-1.056-.736-1.484-1.644-.96M88.096 54l-2.772 1.6q.024-.183.024-.368v-.8c0-1.428-1-2-2.24-1.292a4.3 4.3 0 0 0-1.332 1.284c-.204-1.796-1.6-2.464-3.324-1.476-1.852 1.068-3.352 3.664-3.352 5.804v1.2c-.01.48.086.955.284 1.392l-2.3 1.328a2.74 2.74 0 0 0-1.244 2.152c0 .8.556 1.112 1.244.716l15.012-8.668a2.74 2.74 0 0 0 1.244-2.152c0-.788-.54-1.12-1.244-.72"/><path fill="#F7921E" d="M194.572 188.944c-.156-7.716 2.872-14.688 5.464-18.12s6.94-6.8 9.964-5.84c2.8.88 2.612 4.548-.708 7.068s-8.324 5.704-9.692 9.948l-3.352 7.792z"/><path fill="#000" d="M194.572 188.944c-.156-7.716 2.872-14.688 5.464-18.12s6.94-6.8 9.964-5.84c2.8.88 2.612 4.548-.708 7.068s-8.324 5.704-9.692 9.948l-3.352 7.792z" opacity=".15"/><path fill="#fff" d="M195.492 188.208a.192.192 0 0 0 .164-.16c.72-4.272 2.152-9.2 4.584-13.088 2.616-4.176 6.4-6.74 8.616-7.624a.2.2 0 0 0 .061-.041.18.18 0 0 0 .055-.133.2.2 0 0 0-.014-.072.2.2 0 0 0-.041-.061.18.18 0 0 0-.133-.055.2.2 0 0 0-.072.014c-2.252.904-6.148 3.564-8.828 7.852-2.444 3.904-3.876 8.852-4.6 13.148a.19.19 0 0 0 .156.216z"/><path fill="#F7921E" d="M197.36 190.62c.376-1.464 2.088-3.912 4.904-5.972 3.116-2.276 7.108-3.392 8-5.124 1.06-2.08-.72-3.968-3.972-3.476s-9.344 5.18-10.596 13.6z"/><path fill="#fff" d="M196.688 189.112a.188.188 0 0 0 .16-.128c2.5-7.636 8.196-10.448 10.86-10.868a.2.2 0 0 0 .123-.076.2.2 0 0 0 .035-.103.185.185 0 0 0-.11-.178.2.2 0 0 0-.108-.015c-2.944.464-8.608 3.328-11.16 11.12a.194.194 0 0 0 .12.24.2.2 0 0 0 .08.008"/><path fill="#37474F" d="M85.752 201.644a.6.6 0 0 1-.3-.08l-8.124-4.692c-2.268-1.308-3.516-3.112-3.516-5.08 0-2.136 1.44-4.14 4.052-5.648l2.176-1.26c4.94-2.852 12.98-2.852 17.92 0l8.676 5.012c4.612 2.66 12.112 2.66 16.724 0l29.796-17.2c2.12-1.224 3.288-2.8 3.288-4.484s-1.168-3.256-3.288-4.48l-2.176-1.256c-4.612-2.66-11.872-2.8-16.184-.308l-8.124 4.688a.6.6 0 1 1-.6-1.04l8.124-4.688c4.644-2.684 12.444-2.544 17.384.308l2.176 1.26c2.508 1.444 3.888 3.404 3.888 5.516s-1.38 4.076-3.888 5.52l-29.796 17.2c-4.944 2.856-12.98 2.856-17.924 0l-8.676-5.008c-4.608-2.66-12.108-2.66-16.72 0l-2.176 1.276c-2.192 1.268-3.452 2.948-3.452 4.612 0 1.52 1.036 2.956 2.916 4.04l8.124 4.692a.601.601 0 0 1-.3 1.12z"/><path fill="#37474F" d="M80.704 202.944v.692a3.84 3.84 0 0 0 1.732 3l6.4 3.688 6.496-3.752v-5.628l-6.312-2.912a4.32 4.32 0 0 0-3.548.16l-3.036 1.752a3.83 3.83 0 0 0-1.732 3"/><path fill="#455A64" d="M89.02 198.032a4.32 4.32 0 0 0-3.548.16l-3.036 1.752c-.956.552-.916 1.376.084 1.84l6.308 2.912 6.504-3.752z"/><path fill="#000" d="M88.216 203.34a1.9 1.9 0 0 0-.864 1.5v4.632l1.48.852 6.496-3.752v-5.628l-1.648-.76z" opacity=".1"/><path fill="#37474F" d="M95.884 199.976a.61.61 0 0 0-.608.06l-6.4 3.692a1.9 1.9 0 0 0-.868 1.5v5.504a.6.6 0 0 0 .256.56l.8.468a.61.61 0 0 0 .612-.06l6.4-3.688a1.93 1.93 0 0 0 .864-1.5v-5.508a.62.62 0 0 0-.252-.56z"/><path fill="#455A64" d="m89.696 204.196 6.4-3.692c.476-.276.864-.052.864.5v5.508a1.92 1.92 0 0 1-.864 1.5l-6.4 3.688c-.48.276-.868.052-.868-.5v-5.504a1.91 1.91 0 0 1 .868-1.5"/><path fill="#F7921E" d="m96.316 208.356-5.288-3.052-.572.332v3.752l5.284 3.052a.85.85 0 0 0 .86.08l.576-.332a.84.84 0 0 0 .352-.8v-.952a2.68 2.68 0 0 0-1.212-2.08m-.972 1.004a1.79 1.79 0 0 1 .8 1.404q0 .114-.028.224a1 1 0 0 1-.208-.084 1.8 1.8 0 0 1-.8-1.408 1 1 0 0 1 .028-.228.8.8 0 0 1 .208.092"/><path fill="#fff" d="m96.316 208.356-5.288-3.052-.572.332 5.284 3.052a2.67 2.67 0 0 1 1.2 2.1v.952a.84.84 0 0 1-.38.8h.028l.576-.336a.84.84 0 0 0 .352-.8v-.952a2.69 2.69 0 0 0-1.2-2.096" opacity=".85"/><path fill="#F7921E" d="M97.528 210.456v.952a.84.84 0 0 1-.352.8l-.576.336h-.024a.84.84 0 0 0 .376-.8v-.944a2.5 2.5 0 0 0-.356-1.2l.576-.332c.218.359.34.768.356 1.188"/><path fill="#fff" d="M97.528 210.456v.952a.84.84 0 0 1-.352.8l-.576.336h-.024a.84.84 0 0 0 .376-.8v-.944a2.5 2.5 0 0 0-.356-1.2l.576-.332c.218.359.34.768.356 1.188" opacity=".6"/><path fill="#000" d="M97.528 210.456v.952a.84.84 0 0 1-.352.8l-.576.336h-.024a.84.84 0 0 0 .376-.8v-.944a2.5 2.5 0 0 0-.356-1.2l.576-.332c.218.359.34.768.356 1.188" opacity=".05"/><path fill="#fff" d="M95.108 209.496q0-.116.028-.228c-.348-.096-.604.124-.604.56a1.79 1.79 0 0 0 .8 1.408c.376.22.696.104.8-.248a.7.7 0 0 1-.208-.084 1.8 1.8 0 0 1-.816-1.408" opacity=".6"/><path fill="#000" d="M95.108 209.496q0-.116.028-.228c-.348-.096-.604.124-.604.56a1.79 1.79 0 0 0 .8 1.408c.376.22.696.104.8-.248a.7.7 0 0 1-.208-.084 1.8 1.8 0 0 1-.816-1.408" opacity=".1"/><path fill="#fff" d="m95.74 208.688-5.284-3.052v3.752l5.284 3.052c.672.4 1.2.072 1.2-.7v-.94a2.66 2.66 0 0 0-1.2-2.112m-.4 2.548a1.8 1.8 0 0 1-.8-1.408c0-.52.364-.728.8-.468a1.79 1.79 0 0 1 .8 1.404c.016.52-.348.728-.796.472z" opacity=".7"/><path fill="#F7921E" d="m100.616 205.872-5.284-3.052-.576.332v3.752l5.284 3.052a.848.848 0 0 0 .86.084l.576-.336a.83.83 0 0 0 .352-.78v-.952a2.68 2.68 0 0 0-1.212-2.1m-.972 1.004a1.8 1.8 0 0 1 .8 1.408q0 .112-.028.22a.7.7 0 0 1-.208-.084 1.8 1.8 0 0 1-.8-1.408q0-.114.028-.224.11.03.208.088"/><path fill="#fff" d="m100.616 205.872-5.288-3.052-.572.332 5.284 3.052a2.67 2.67 0 0 1 1.2 2.1v.952a.84.84 0 0 1-.38.8h.028l.576-.336a.83.83 0 0 0 .352-.78v-.952a2.7 2.7 0 0 0-1.2-2.116" opacity=".85"/><path fill="#F7921E" d="M101.828 207.972v.952a.84.84 0 0 1-.352.78l-.576.336h-.024a.836.836 0 0 0 .376-.8v-.952a2.5 2.5 0 0 0-.356-1.2l.576-.332c.222.368.345.786.356 1.216"/><path fill="#fff" d="M101.828 207.972v.952a.84.84 0 0 1-.352.78l-.576.336h-.024a.836.836 0 0 0 .376-.8v-.952a2.5 2.5 0 0 0-.356-1.2l.576-.332c.222.368.345.786.356 1.216" opacity=".6"/><path fill="#000" d="M101.828 207.972v.952a.84.84 0 0 1-.352.78l-.576.336h-.024a.836.836 0 0 0 .376-.8v-.952a2.5 2.5 0 0 0-.356-1.2l.576-.332c.222.368.345.786.356 1.216" opacity=".05"/><path fill="#fff" d="M99.408 207.012q0-.114.028-.224c-.344-.096-.604.12-.604.556a1.8 1.8 0 0 0 .8 1.408c.376.22.696.104.8-.248a.7.7 0 0 1-.208-.084 1.8 1.8 0 0 1-.816-1.408" opacity=".6"/><path fill="#000" d="M99.408 207.012q0-.114.028-.224c-.344-.096-.604.12-.604.556a1.8 1.8 0 0 0 .8 1.408c.376.22.696.104.8-.248a.7.7 0 0 1-.208-.084 1.8 1.8 0 0 1-.816-1.408" opacity=".1"/><path fill="#fff" d="m100.044 206.204-5.288-3.052v3.752l5.284 3.052c.672.4 1.2.076 1.2-.7v-.952a2.69 2.69 0 0 0-1.196-2.1m-.4 2.548a1.8 1.8 0 0 1-.8-1.408c0-.516.364-.728.8-.468a1.78 1.78 0 0 1 .8 1.408c.012.516-.352.728-.8.468" opacity=".7"/><path fill="#F7921E" d="m118.82 184.856 15.04-8.7c1.552-.892 2.328-2.068 2.328-3.24v-2.092l-15.6-8.8a3.3 3.3 0 0 1-1.06-1.119 3.3 3.3 0 0 1-.44-1.477v-18.544l-26.272 15.2v18.548a3.3 3.3 0 0 0 1.496 2.592l13.288 7.632c3.092 1.788 8.12 1.788 11.22 0"/><path fill="#000" d="m118.82 184.856 15.04-8.7c1.552-.892 2.328-2.068 2.328-3.24v-2.092l-15.6-8.8a3.3 3.3 0 0 1-1.06-1.119 3.3 3.3 0 0 1-.44-1.477v-18.544l-26.272 15.2v18.548a3.3 3.3 0 0 0 1.496 2.592l13.288 7.632c3.092 1.788 8.12 1.788 11.22 0" opacity=".6"/><path fill="#000" d="M99.124 177.896V180l-4.8-2.776a3.33 3.33 0 0 1-1.496-2.592v-18.564l4.992-2.868c.1 1.268.216 2.584.32 3.864l-3.512 2.032v14.488a3.27 3.27 0 0 0 1.496 2.592z" opacity=".3"/><path fill="#F7921E" d="M94.628 173.568a3.3 3.3 0 0 0 1.496 2.592l11.476 6.604c3.1 1.788 8.128 1.792 11.232 0l15.048-8.696c3.1-1.788 3.1-4.692 0-6.484l-11.48-6.604a3.3 3.3 0 0 1-1.496-2.596v-14.492l-26.272 15.2z"/><path fill="#000" d="M94.628 173.568a3.3 3.3 0 0 0 1.496 2.592l11.476 6.604c3.1 1.788 8.128 1.792 11.232 0l15.048-8.696c3.1-1.788 3.1-4.692 0-6.484l-11.48-6.604a3.3 3.3 0 0 1-1.496-2.596v-14.492l-26.272 15.2z" opacity=".3"/><path fill="#000" d="m125.448 162.74-3.048-1.76a3.3 3.3 0 0 1-1.496-2.596v-14.492l-26.272 15.2v14.492a3.3 3.3 0 0 0 1.496 2.592l3 1.732z" opacity=".5"/><path fill="#F7921E" d="M136.192 170.824v2.092c0 1.176-.8 2.344-2.328 3.244l-15.044 8.692a11.26 11.26 0 0 1-5.36 1.332V184.1c1.87.008 3.712-.45 5.36-1.332l15.044-8.7c1.548-.892 2.328-2.068 2.328-3.244"/><path fill="#000" d="M136.192 170.824v2.092c0 1.176-.8 2.344-2.328 3.244l-15.044 8.692a11.26 11.26 0 0 1-5.36 1.332V184.1c1.87.008 3.712-.45 5.36-1.332l15.044-8.7c1.548-.892 2.328-2.068 2.328-3.244" opacity=".5"/><path fill="#F7921E" d="M52.44 191.6a4 4 0 0 0 3.628-.068l101.6-58.664c1.032-.596 1.868-2.048 1.868-1.64v-92.54c0-2.8-.8-4.216-1.756-4.776a4 4 0 0 0-3.624.068L52.56 92.644a4.13 4.13 0 0 0-1.872 3.24V188.4a4 4 0 0 0 1.752 3.2"/><path fill="#F7921E" d="m56.068 191.512 101.6-58.664c1.032-.596 1.872-2.048 1.872-1.644v-92.52c0-2.8-.84-3.276-1.872-2.68l-101.6 58.664a4.13 4.13 0 0 0-1.872 3.24v92.52c0 1.196.84 1.68 1.872 1.084"/><path fill="#000" d="m56.068 191.512 101.6-58.664c1.032-.596 1.872-2.048 1.872-1.644v-92.52c0-2.8-.84-3.276-1.872-2.68l-101.6 58.664a4.13 4.13 0 0 0-1.872 3.24v92.52c0 1.196.84 1.68 1.872 1.084" opacity=".5"/><path fill="#F7921E" d="M55.792 193.648a4.037 4.037 0 0 1-3.352-.072 4 4 0 0 1-1.756-3.176v-5.888l3.512 2.032v5.884c0 1.088.692 1.572 1.596 1.22"/><path fill="#000" d="M55.792 193.648a4.037 4.037 0 0 1-3.352-.072 4 4 0 0 1-1.756-3.176v-5.888l3.512 2.032v5.884c0 1.088.692 1.572 1.596 1.22" opacity=".5"/><path fill="#F7921E" d="M54.196 186.544v5.88c0 1.2.84 1.68 1.872 1.08l101.6-58.66a4.143 4.143 0 0 0 1.872-3.244v-5.896z"/><path fill="#000" d="M54.196 186.528v5.896c0 1.2.84 1.68 1.872 1.08l101.6-58.66a4.143 4.143 0 0 0 1.872-3.244v-5.896z" opacity=".3"/><path fill="#F7921E" d="M57.708 179.152V99.076a2.5 2.5 0 0 1 1.124-1.948l96.08-55.472c.62-.356 1.124-.068 1.124.648V122.4a2.48 2.48 0 0 1-1.124 1.944l-96.08 55.46c-.62.356-1.124.064-1.124-.652"/><path fill="#263238" d="M57.708 179.152V99.076a2.5 2.5 0 0 1 1.124-1.948l96.08-55.472c.62-.356 1.124-.068 1.124.648V122.4a2.48 2.48 0 0 1-1.124 1.944l-96.08 55.46c-.62.356-1.124.064-1.124-.652"/><path fill="#000" d="M54.748 96.056a4 4 0 0 0-.552 1.852v88.636l-3.512-2.032V95.884a3.9 3.9 0 0 1 .548-1.848z" opacity=".7"/><path fill="#000" d="M159.532 36.776c-.132-.964-.912-1.312-1.856-.772l-101.6 58.664a3.8 3.8 0 0 0-1.324 1.392l-3.512-2.028a3.87 3.87 0 0 1 1.324-1.392L154.168 34a4 4 0 0 1 3.628-.068 4.05 4.05 0 0 1 1.736 2.844" opacity=".3"/><path fill="#F0F0F0" d="M67.36 184.032a1.6 1.6 0 0 1-.732.22 1.83 1.83 0 0 1-1.072-.188 2 2 0 0 1-.872-1.6v-72.64l1.756 1.012v72.656c0 .424.212.668.516.668a.95.95 0 0 0 .404-.128"/><path fill="#FAFAFA" d="M163.932 127.2a2.05 2.05 0 0 1-.932 1.6l-95.64 55.232c-.512.296-.928.056-.928-.54V104.8l2.564-1.48c.512-.296 1.348-4.8 1.864-5.116l22.24-12.84c.516-.296 1.728 3.044 2.24 2.744l68.592-39.6z"/><path fill="#E0E0E0" d="M163.5 49.24v77.96a1.65 1.65 0 0 1-.716 1.24l-95.64 55.22a.44.44 0 0 1-.196.068c-.088 0-.088-.224-.088-.236v-78.448l2.352-1.36c.372-.216.604-.94 1.128-2.8.187-.797.444-1.576.768-2.328l22.04-12.724q.392.532.7 1.116c.6 1.056.936 1.6 1.424 1.6.1 0 .198-.028.284-.08zm.432-.744-68.592 39.6a.14.14 0 0 1-.068.02c-.52 0-1.6-2.8-2.104-2.8a.13.13 0 0 0-.068 0l-22.24 12.84c-.516.3-1.352 4.8-1.864 5.116l-2.564 1.528v78.692c0 .424.208.668.516.668a.8.8 0 0 0 .4-.128L163 128.8a2.05 2.05 0 0 0 .932-1.6z"/><path fill="#F7921E" d="M65.556 107.66a2 2 0 0 1-.876-1.6V98.8a2.06 2.06 0 0 1 .92-1.6L161.24 42a1.744 1.744 0 0 1 2.676 1.548V50.8a2.05 2.05 0 0 1-.932 1.6L67.36 107.628a2 2 0 0 1-1.804.032"/><path fill="#fff" d="M163.92 43.364c-.064-.484-.456-.66-.92-.4L67.36 98.196c-.273.177-.5.417-.66.7l-1.748-1.012c.157-.278.38-.513.648-.684L161.24 42a1.74 1.74 0 0 1 1.932.044 1.73 1.73 0 0 1 .736 1.352z" opacity=".4"/><path fill="#000" d="M66.7 98.896a1.9 1.9 0 0 0-.268.916v11.044l-1.756-1.012V98.8a1 1 0 0 1 0-.112 2 2 0 0 1 .036-.232 2.2 2.2 0 0 1 .232-.576z" opacity=".1"/><path fill="#F7921E" d="M163.928 43.512v4.984l-68.592 39.6c-.512.3-.928.056-.928-.536v-1.888c0-.592-.4-.836-.936-.536L70.856 98.192a2.06 2.06 0 0 0-.932 1.6v1.884a2.07 2.07 0 0 1-.932 1.6l-2.56 1.524v-4.988a2.07 2.07 0 0 1 .928-1.6l95.64-55.2c.512-.336.928-.092.928.5"/><path fill="#fff" d="M159.56 46.636c.648-.372 1.172-.068 1.172.68a2.6 2.6 0 0 1-1.172 2.032c-.648.372-1.176.068-1.176-.68a2.6 2.6 0 0 1 1.176-2.032m-4.224 2.436c.648-.372 1.172-.072 1.172.676a2.59 2.59 0 0 1-1.172 2.032c-.648.376-1.172.072-1.172-.676a2.6 2.6 0 0 1 1.172-2.032m-4.224 2.436c.648-.376 1.172-.072 1.172.676a2.6 2.6 0 0 1-1.172 2.032c-.648.372-1.172.072-1.172-.676a2.59 2.59 0 0 1 1.172-2.032"/><path fill="#E6E6E6" d="M163.932 48.496v6.06l-97.5 56.3V104.8l1.916-1.108c.512-.296.684-.748.928-1.6l.652-2.256c.204-.8.4-1.316.932-1.6l22.24-12.84c.516-.296.92-.328 1.312.32l.8 1.448c.292.504.44.8.952.504z"/><path fill="#E0E0E0" d="M66.432 104.792v6.064l-1.756-1.012v-6.056z"/><path fill="#455A64" d="m70.708 105.232-1.464.844.556-1.072a.27.27 0 0 0 0-.264c-.044-.052-.116 0-.168.08l-.8 1.524s0 .036-.02.056a1 1 0 0 0 0 .076.3.3 0 0 0 0 .068l.02.032.8.608a.064.064 0 0 0 .08 0 .22.22 0 0 0 .088-.112c.044-.1.036-.212 0-.248l-.556-.432 1.464-.844a.31.31 0 0 0 .116-.248c0-.056-.052-.1-.116-.068m1.22-.708 1.464-.844-.56-.428a.23.23 0 0 1 0-.252c.04-.1.116-.148.164-.112l.8.612a.1.1 0 0 1 .024.032.2.2 0 0 1 0 .068.3.3 0 0 1 0 .08l-.024.06-.8 1.528a.2.2 0 0 1-.076.088.07.07 0 0 1-.044.018.07.07 0 0 1-.044-.018.26.26 0 0 1 0-.26l.56-1.072-1.464.844c-.064.036-.116 0-.116-.112a.32.32 0 0 1 .116-.232m4.8-4.212c0-.088-.084-.08-.124 0l-.2.492c-.344-.036-.756.296-1.036.888-.364.768-.364 1.676 0 2.024a.51.51 0 0 0 .656.04c.293-.197.522-.475.66-.8a.26.26 0 0 0 0-.256c-.048-.044-.12 0-.168.096-.272.572-.712.828-.98.568s-.272-.94 0-1.512c.192-.4.468-.648.708-.664l-.148.372c-.04.096 0 .184.056.144l.596-.4a.17.17 0 0 0 .068-.16zm15.728-12.188.536-1.128a.36.36 0 0 0 0-.352c-.064-.06-.168 0-.228.132l-.536 1.128-.532-.512c-.064-.06-.164 0-.228.132a.34.34 0 0 0 0 .352L92 88.4l-.532 1.128a.34.34 0 0 0 0 .352.1.1 0 0 0 .056.022q.031 0 .056-.022a.3.3 0 0 0 .116-.14l.532-1.128.536.512a.1.1 0 0 0 .056.022q.031 0 .056-.022a.3.3 0 0 0 .116-.14.36.36 0 0 0 0-.352z" opacity=".5"/><path fill="#FAFAFA" d="M78.672 101.7v-1.888a2.06 2.06 0 0 1 .932-1.6l78.148-45.116c.516-.3.932-.056.932.536v1.888a2.05 2.05 0 0 1-.932 1.6L79.6 102.236c-.512.3-.928.056-.928-.536"/><path fill="#E0E0E0" d="M156.484 57.28a.3.3 0 0 1-.084 0 .26.26 0 0 1-.121-.117.25.25 0 0 1-.019-.167l.092-.764-.36-.26a.3.3 0 0 1-.073-.093.387.387 0 0 1 .015-.295.4.4 0 0 1 .114-.144l.548-.424a.1.1 0 0 0 .024-.044l.244-.8a.34.34 0 0 1 .276-.26.208.208 0 0 1 .216.128l.204.436.464-.176a.206.206 0 0 1 .244.056.33.33 0 0 1 0 .376l-.4.744a.2.2 0 0 0 0 .044l.096.672a.4.4 0 0 1-.12.336.25.25 0 0 1-.216.084l-.428-.068-.484.616a.27.27 0 0 1-.232.12m-.264-1.56.36.26q.056.046.083.115a.3.3 0 0 1 .013.141l-.064.512.324-.4a.28.28 0 0 1 .248-.12l.448.056a.2.2 0 0 0 0-.052l-.096-.672a.43.43 0 0 1 .048-.24l.348-.652-.332.132a.22.22 0 0 1-.284-.112l-.16-.344-.22.716a.4.4 0 0 1-.136.204l-.548.4a.1.1 0 0 0-.032.056"/><path fill="#455A64" d="M159.784 52.864a.32.32 0 0 1-.164-.6l2.624-1.516a.323.323 0 0 1 .44.081.32.32 0 0 1-.014.397.3.3 0 0 1-.102.082l-2.624 1.512a.3.3 0 0 1-.16.044m0 1.536a.322.322 0 0 1-.313-.406.33.33 0 0 1 .149-.198l2.624-1.512a.324.324 0 0 1 .476.361.32.32 0 0 1-.152.195l-2.624 1.516a.3.3 0 0 1-.16.044m0 1.496a.33.33 0 0 1-.314-.24.32.32 0 0 1 .15-.364l2.624-1.516a.33.33 0 0 1 .305-.008.33.33 0 0 1 .121.102.314.314 0 0 1 .05.271.32.32 0 0 1-.152.195l-2.624 1.516a.33.33 0 0 1-.16.044m-90.476 56.656a.32.32 0 0 1-.164-.6l2.624-1.516a.324.324 0 0 1 .324.56l-2.624 1.512a.3.3 0 0 1-.16.044m0 1.516a.32.32 0 0 1-.28-.16.33.33 0 0 1-.034-.246.33.33 0 0 1 .15-.198l2.624-1.512a.33.33 0 0 1 .182-.044.33.33 0 0 1 .175.065.326.326 0 0 1-.033.539l-2.624 1.512a.3.3 0 0 1-.16.044m0 1.532a.323.323 0 0 1-.3-.447.33.33 0 0 1 .136-.157l2.624-1.512a.31.31 0 0 1 .245-.035.32.32 0 0 1 .195.151.3.3 0 0 1 .041.119.31.31 0 0 1-.063.238.3.3 0 0 1-.094.083l-2.624 1.516a.35.35 0 0 1-.16.044" opacity=".5"/><path fill="#E6E6E6" d="M92.58 99.2v2.324c0 .476.336.668.748.432L124.5 83.932v-4.056L93.332 97.9a1.66 1.66 0 0 0-.752 1.3"/><path fill="#F7921E" d="M128.428 77.6c.4-.24.748-.044.748.432v2.324a1.67 1.67 0 0 1-.748 1.296L124.5 83.92v-4.044z"/><path fill="#FAFAFA" d="m128.136 80.8-.436-.14q.066-.278.068-.564a1.03 1.03 0 0 0-.4-.936.62.62 0 0 0-.636.032 2.24 2.24 0 0 0-.876 1.824 1.03 1.03 0 0 0 .4.936.56.56 0 0 0 .276.072.7.7 0 0 0 .36-.104c.334-.23.583-.562.708-.948l.44.136a.1.1 0 0 0 .048 0 .16.16 0 0 0 .174-.135.15.15 0 0 0-.027-.116.16.16 0 0 0-.099-.065zm-1.404.84a.31.31 0 0 1-.316.028.76.76 0 0 1-.236-.652 1.972 1.972 0 0 1 .712-1.544.4.4 0 0 1 .2-.06.2.2 0 0 1 .116.032.76.76 0 0 1 .236.652 1.98 1.98 0 0 1-.712 1.54z"/><path fill="#F7921E" d="m79.624 105.812-4.5 2.588a1.64 1.64 0 0 0-.748 1.288v2.316c0 .476.336.668.748.432l4.5-2.604a1.64 1.64 0 0 0 .744-1.292v-2.3c0-.472-.332-.668-.744-.428m78.26-45.188a3.88 3.88 0 0 0-1.752 3.036c0 1.12.8 1.572 1.752 1.016a3.88 3.88 0 0 0 1.756-3.04c0-1.12-.788-1.572-1.756-1.012"/><path fill="#fff" d="M157.68 62.4a.3.3 0 0 1-.156-.04.4.4 0 0 1-.168-.352 1.01 1.01 0 0 1 .46-.8.348.348 0 0 1 .56.324 1.02 1.02 0 0 1-.464.8.5.5 0 0 1-.232.068m.896.124a.6.6 0 0 0-.616.048l-.256.148a1.73 1.73 0 0 0-.8 1.364v.184a.99.99 0 0 0 .968-.104c.404-.251.737-.6.968-1.016v-.044a.64.64 0 0 0-.264-.58"/><path fill="#F7921E" d="M151.68 66.048v-.62c0-.704-.428-1.028-.956-.724a2.3 2.3 0 0 0-.96 1.832v.556a2.2 2.2 0 0 1-.324 1.08.6.6 0 0 0-.08.28c0 .18.108.26.24.184l2.244-1.292a.6.6 0 0 0 .24-.464.2.2 0 0 0-.015-.102.2.2 0 0 0-.057-.086.65.65 0 0 1-.332-.644m-.48 1.872a1.1 1.1 0 0 1-.46.88c-.256.144-.464 0-.464-.348zm-7.792 1.072q.186-.11.4-.136a.52.52 0 0 1 .32.064.54.54 0 0 1 .212.244q.078.212.06.436.002.202-.044.4a2.5 2.5 0 0 1-.112.344 3 3 0 0 1-.148.308l-.16.288a5 5 0 0 0-.136.28 1.3 1.3 0 0 0-.084.276.5.5 0 0 1-.032.132.2.2 0 0 1-.064.08l-.452.26h-.068a.1.1 0 0 1-.026-.043.1.1 0 0 1-.006-.049 1.3 1.3 0 0 1 .052-.364 2.6 2.6 0 0 1 .284-.656c.06-.1.108-.2.16-.288s.088-.18.124-.264a.7.7 0 0 0 .048-.236q-.001-.169-.08-.212c-.052-.028-.14 0-.252.048a.63.63 0 0 0-.236.216 1.2 1.2 0 0 0-.108.228l-.056.2a.22.22 0 0 1-.092.132l-.452.26a.05.05 0 0 1-.028.009.05.05 0 0 1-.028-.009.1.1 0 0 1-.02-.037q-.006-.022-.004-.043.009-.235.072-.46.077-.267.2-.516.131-.263.32-.488.182-.242.436-.404m.32 3.696q0 .065-.028.124a.2.2 0 0 1-.072.084l-.464.268a.04.04 0 0 1-.016.01.048.048 0 0 1-.052-.01.1.1 0 0 1-.026-.043.1.1 0 0 1-.006-.049V72.5a.3.3 0 0 1 .032-.124.17.17 0 0 1 .068-.088l.464-.268a.056.056 0 0 1 .072 0 .1.1 0 0 1 .024.041q.007.023.004.047z"/><path fill="#E0E0E0" d="M92.624 141.052c-.368 0-.72-.143-.984-.4a1.93 1.93 0 0 1-.544-1.456v-2.96L83.2 140.8a1.5 1.5 0 0 1-.8.22 1.4 1.4 0 0 1-.98-.4 1.94 1.94 0 0 1-.548-1.46v-4.88a7.1 7.1 0 0 1 .456-2.564l8.94-22.516c.157-.426.37-.829.632-1.2.248-.314.555-.576.904-.772l4.512-2.604c.241-.146.518-.222.8-.22.366 0 .718.144.98.4a1.94 1.94 0 0 1 .548 1.456v15.932l1.068-.616c.241-.146.518-.222.8-.22.366.002.717.145.98.4a1.96 1.96 0 0 1 .508 1.484v4.876a3.3 3.3 0 0 1-.336 1.436 2.5 2.5 0 0 1-.972 1.136l-2.068 1.2V136a3.35 3.35 0 0 1-.336 1.44c-.2.469-.54.866-.972 1.136l-3.912 2.26a1.6 1.6 0 0 1-.78.216m-2.752-13.788 1.372-.8v-2.66zm19.444 3.788h-.24a4.82 4.82 0 0 1-3.34-1.472 7.8 7.8 0 0 1-1.836-3.508 21.4 21.4 0 0 1-.644-4.624c-.04-1.236-.06-2.596-.06-4.048s0-2.868.06-4.208c.066-1.776.277-3.543.632-5.284a23.3 23.3 0 0 1 1.656-5.108 20 20 0 0 1 2.8-4.48 15.2 15.2 0 0 1 4.124-3.464c1.576-.912 2.936-1.352 4.164-1.352h.24a4.86 4.86 0 0 1 3.34 1.472 7.83 7.83 0 0 1 1.836 3.508 21.5 21.5 0 0 1 .644 4.624c.04 1.324.06 2.716.06 4.144s0 2.8-.06 4.112a33 33 0 0 1-.632 5.284 23.6 23.6 0 0 1-1.66 5.104 20 20 0 0 1-2.8 4.48 15.3 15.3 0 0 1-4.124 3.468c-1.572.908-2.936 1.352-4.16 1.352m5.012-27.452a1.9 1.9 0 0 0-.848.324 4.2 4.2 0 0 0-1.2 1.028 5.5 5.5 0 0 0-.8 1.424 9 9 0 0 0-.48 1.792 14.6 14.6 0 0 0-.196 2.096c-.1 2.58-.1 5.152 0 7.664q.018.935.18 1.856c.045.34.165.665.352.952a.37.37 0 0 0 .288.176c.313-.03.614-.14.872-.32a4.2 4.2 0 0 0 1.2-1.032c.344-.437.623-.922.828-1.44a8.2 8.2 0 0 0 .48-1.772q.154-1.045.18-2.1c.08-2.62.08-5.2 0-7.668a14 14 0 0 0-.208-1.836 2.6 2.6 0 0 0-.356-.984.327.327 0 0 0-.252-.16zm22.164 12.124c-.368 0-.721-.143-.984-.4a1.95 1.95 0 0 1-.544-1.456v-2.96l-7.912 4.568a1.5 1.5 0 0 1-.776.22 1.4 1.4 0 0 1-.984-.4 1.95 1.95 0 0 1-.544-1.456v-4.892a7 7 0 0 1 .452-2.548l8.936-22.508c.156-.426.367-.83.628-1.2.249-.313.556-.575.904-.772l4.512-2.604c.242-.145.518-.221.8-.22.367-.001.719.142.98.4.187.192.332.42.427.67s.135.519.121.786v15.932l1.072-.616c.234-.143.502-.219.776-.22.366.002.717.145.98.4a1.95 1.95 0 0 1 .548 1.464v4.888a3.4 3.4 0 0 1-.332 1.44c-.201.469-.54.865-.972 1.136l-2.072 1.2v4.112c-.004.499-.117.99-.332 1.44-.201.47-.542.866-.976 1.136l-3.912 2.26a1.6 1.6 0 0 1-.796.2m-2.748-13.788 1.372-.8v-2.66z"/><path fill="#F7921E" d="M104.192 124.52a.4.4 0 0 0-.1-.076l-3.036-1.752v-14.4a.98.98 0 0 0-.24-.736l-.096-.072-3.244-1.884a.45.45 0 0 0-.476.032l-4.512 2.604a2.1 2.1 0 0 0-.612.516 4 4 0 0 0-.492.952l-8.936 22.5a6 6 0 0 0-.4 2.2v4.876a.98.98 0 0 0 .24.736.4.4 0 0 0 .1.076l3.244 1.876a.44.44 0 0 0 .472-.036l6.176-3.532v.94a1 1 0 0 0 .236.736l.096.072 3.252 1.876a.45.45 0 0 0 .472-.032l3.912-2.26c.255-.17.453-.412.568-.696.155-.315.237-.661.24-1.012v-4.7l2.568-1.484a1.5 1.5 0 0 0 .568-.696c.155-.315.237-.661.24-1.012v-4.876a.98.98 0 0 0-.24-.736"/><path fill="#000" d="M95.104 110.64v.056a4.6 4.6 0 0 0-.456.9l-8.932 22.5a5 5 0 0 0-.264.924l-3.272-1.888a5.7 5.7 0 0 1 .26-.912l8.932-22.5q.186-.507.496-.952z" opacity=".15"/><path fill="#000" d="m85.6 141.96-3.2-1.848a.6.6 0 0 1-.1-.08.98.98 0 0 1-.24-.736v-4.872q.002-.647.128-1.28l3.248 1.876q-.127.633-.124 1.28v4.876a.99.99 0 0 0 .236.732zm10.08-21.352v8.464l-2.736-1.58z" opacity=".3"/><path fill="#000" d="m95.68 129.072-4.364 2.516 1.628-4.096z" opacity=".4"/><path fill="#000" d="m95.768 141.944.056.048-3.2-1.848a.4.4 0 0 1-.096-.076.98.98 0 0 1-.24-.736v-.932l3.248-1.876v4.676a.98.98 0 0 0 .232.744" opacity=".3"/><path fill="#000" d="M104.056 124.428a.46.46 0 0 0-.428.052l-2.572 1.484v-3.268z" opacity=".15"/><path fill="#fff" d="M100.7 107.48a.45.45 0 0 0-.452.044l-4.508 2.604a2.1 2.1 0 0 0-.612.512l-3.248-1.876c.169-.208.375-.381.608-.512L97 105.648a.44.44 0 0 1 .476-.028z" opacity=".4"/><path fill="#F7921E" d="M96.336 142a.436.436 0 0 1-.568-.04.98.98 0 0 1-.24-.736v-4.708l-9.412 5.432a.425.425 0 0 1-.568-.04.97.97 0 0 1-.24-.736v-4.876a6 6 0 0 1 .4-2.2l8.924-22.496q.188-.506.492-.952c.17-.208.378-.383.612-.516l4.512-2.604a.428.428 0 0 1 .568.04.99.99 0 0 1 .24.736v17.664l2.568-1.484a.445.445 0 0 1 .568.04.99.99 0 0 1 .24.736v4.876a2.3 2.3 0 0 1-.24 1.012 1.5 1.5 0 0 1-.568.696l-2.568 1.484V138a2.3 2.3 0 0 1-.24 1.012 1.52 1.52 0 0 1-.568.696zm-.66-12.916v-8.48l-4.36 10.996zm29.46-23.924a20.2 20.2 0 0 0-.612-4.4 6.8 6.8 0 0 0-1.6-3.064 3.8 3.8 0 0 0-.8-.64c-.54-.32-2.956-1.708-3.252-1.88a4 4 0 0 0-1.856-.524q-1.6-.084-3.852 1.2a14.1 14.1 0 0 0-3.856 3.236 19 19 0 0 0-2.672 4.26 22.2 22.2 0 0 0-1.6 4.892 31.3 31.3 0 0 0-.612 5.116 139 139 0 0 0 0 8.172 20 20 0 0 0 .612 4.4c.26 1.143.811 2.2 1.6 3.068q.357.372.8.636c.544.32 2.992 1.732 3.304 1.908a4 4 0 0 0 1.812.5c1.072.056 2.36-.348 3.852-1.2a14.3 14.3 0 0 0 3.856-3.236 19 19 0 0 0 2.672-4.26 22.2 22.2 0 0 0 1.6-4.892 31.3 31.3 0 0 0 .612-5.116 131 131 0 0 0-.008-8.176m-11.804 16.348q-.111-.75-.132-1.508a101 101 0 0 1 0-7.728q.025-1.125.208-2.236c.11-.684.291-1.354.54-2a6.4 6.4 0 0 1 .956-1.68 5.2 5.2 0 0 1 1.296-1.152q.102.683.144 1.492.12 3.751 0 7.728a17 17 0 0 1-.196 2.228 9 9 0 0 1-.536 2 6.8 6.8 0 0 1-.972 1.688 5.1 5.1 0 0 1-1.308 1.168"/><path fill="#000" d="m110.664 131.516-3.2-1.856a4 4 0 0 1-.8-.64 6.8 6.8 0 0 1-1.6-3.064 20.2 20.2 0 0 1-.612-4.4q-.06-1.852-.06-4t.06-4.176a31.3 31.3 0 0 1 .612-5.116 22 22 0 0 1 1.008-3.5l3.244 1.88a22.3 22.3 0 0 0-1 3.496 31 31 0 0 0-.616 5.116 139 139 0 0 0 0 8.176c.041 1.485.248 2.961.616 4.4a6.76 6.76 0 0 0 1.6 3.064q.334.358.748.62" opacity=".15"/><path fill="#fff" d="M122 96.98a4.15 4.15 0 0 0-1.736-.46q-1.6-.08-3.856 1.2a14.2 14.2 0 0 0-3.852 3.24 19 19 0 0 0-2.984 4.964c-.1.24-.18.456-.268.688l-3.244-1.88c.076-.204.156-.4.24-.608.108-.264.216-.524.336-.8.701-1.53 1.6-2.962 2.672-4.26a14.3 14.3 0 0 1 3.856-3.236c1.492-.864 2.8-1.264 3.856-1.2.65.022 1.286.202 1.852.524.28.18 2.416 1.408 3.128 1.828" opacity=".4"/><path fill="#000" d="M119.6 116.312q-.028 1.12-.196 2.228a9 9 0 0 1-.536 2 7 7 0 0 1-.372.776l-3.248-1.876q.207-.377.368-.776a9.2 9.2 0 0 0 .54-2q.166-1.108.192-2.228.12-3.977 0-7.728a17 17 0 0 0-.14-1.492s.084-.06.192-.124a2.5 2.5 0 0 1 1.496-.448 1.32 1.32 0 0 1 .956.576c.27.416.449.885.524 1.376q.177.992.224 2 .127 3.74 0 7.716" opacity=".3"/><path fill="#000" d="M118.508 121.304q-.261.481-.6.912a5.1 5.1 0 0 1-1.496 1.276 2.52 2.52 0 0 1-1.492.448 1.36 1.36 0 0 1-.972-.564 3.3 3.3 0 0 1-.536-1.368 9 9 0 0 1-.08-.5 5 5 0 0 0 1.324-1.168q.341-.43.604-.912z" opacity=".4"/><path fill="#F7921E" d="M116.4 97.732q2.244-1.296 3.856-1.2a3.87 3.87 0 0 1 2.672 1.168 6.8 6.8 0 0 1 1.6 3.064c.365 1.44.57 2.915.612 4.4q.06 1.944.06 4.108t-.06 4.08a31.3 31.3 0 0 1-.612 5.116 22.2 22.2 0 0 1-1.6 4.892 19.2 19.2 0 0 1-2.66 4.24 14.3 14.3 0 0 1-3.856 3.236c-1.492.864-2.78 1.268-3.852 1.2a3.87 3.87 0 0 1-2.676-1.168 6.8 6.8 0 0 1-1.6-3.068 20 20 0 0 1-.612-4.4q-.06-1.856-.06-4c0-1.428.02-2.832.06-4.172a31.3 31.3 0 0 1 .612-5.116 22.2 22.2 0 0 1 1.6-4.892c.7-1.532 1.6-2.964 2.676-4.26a14.1 14.1 0 0 1 3.84-3.228m3.2 18.58q.12-3.977 0-7.728a15 15 0 0 0-.224-2 3.5 3.5 0 0 0-.52-1.376 1.3 1.3 0 0 0-.956-.576 2.56 2.56 0 0 0-1.496.448 5.1 5.1 0 0 0-1.492 1.276 6.4 6.4 0 0 0-.956 1.68 10 10 0 0 0-.54 2q-.183 1.111-.208 2.236a101 101 0 0 0 0 7.728q.018 1.008.192 2c.072.491.257.96.54 1.368a1.36 1.36 0 0 0 .972.568 2.55 2.55 0 0 0 1.492-.448 5.2 5.2 0 0 0 1.496-1.276 6.9 6.9 0 0 0 .968-1.688 9 9 0 0 0 .54-2q.165-1.1.192-2.212M148.064 99.2a.5.5 0 0 0-.104-.076l-3.036-1.752v-14.4a1.011 1.011 0 0 0-.236-.736.5.5 0 0 0-.096-.072l-3.248-1.876a.45.45 0 0 0-.476.032l-4.512 2.604c-.236.13-.443.306-.612.516a4.3 4.3 0 0 0-.492.952l-8.932 22.5a6 6 0 0 0-.4 2.2v4.876a.98.98 0 0 0 .236.736q.047.046.104.076l3.244 1.876a.44.44 0 0 0 .472-.036l6.16-3.556V114a.98.98 0 0 0 .24.736l.096.072 3.248 1.876a.46.46 0 0 0 .472-.032l3.928-2.252c.254-.171.451-.413.568-.696.152-.316.232-.662.236-1.012V108l2.572-1.484c.255-.169.454-.412.568-.696.152-.316.232-.662.236-1.012v-4.88a1 1 0 0 0-.236-.728"/><path fill="#000" d="M138.972 85.312v.056a4.5 4.5 0 0 0-.456.9l-8.932 22.5a5 5 0 0 0-.264.924l-3.272-1.888a5.7 5.7 0 0 1 .26-.912l8.916-22.492q.186-.507.496-.952z" opacity=".15"/><path fill="#000" d="m129.476 116.632-3.2-1.848a.6.6 0 0 1-.1-.08.98.98 0 0 1-.24-.736v-4.872a6.6 6.6 0 0 1 .128-1.28l3.248 1.876a6.3 6.3 0 0 0-.124 1.28v4.876a.98.98 0 0 0 .236.732zm10.072-21.352v8.464l-2.736-1.58z" opacity=".3"/><path fill="#000" d="m139.548 103.744-4.364 2.516 1.628-4.096z" opacity=".4"/><path fill="#000" d="m139.636 116.616.056.048-3.2-1.848a.4.4 0 0 1-.096-.076.98.98 0 0 1-.24-.736v-.94l3.248-1.876v4.692a.98.98 0 0 0 .232.736" opacity=".3"/><path fill="#000" d="M147.924 99.1a.46.46 0 0 0-.428.052l-2.572 1.484v-3.268z" opacity=".15"/><path fill="#fff" d="M144.568 82.152a.46.46 0 0 0-.452.044L139.6 84.8a2.1 2.1 0 0 0-.612.512l-3.248-1.876a2.1 2.1 0 0 1 .608-.512l4.512-2.604a.44.44 0 0 1 .476-.028z" opacity=".4"/><path fill="#F7921E" d="M140.204 116.656a.428.428 0 0 1-.568-.04.982.982 0 0 1-.236-.736v-4.68l-9.4 5.42a.426.426 0 0 1-.568-.04.98.98 0 0 1-.24-.736v-4.876a6 6 0 0 1 .4-2.2l8.932-22.5c.123-.338.29-.658.496-.952.158-.208.355-.383.58-.516l4.512-2.604a.44.44 0 0 1 .568.04 1 1 0 0 1 .236.736v17.664l2.572-1.484a.44.44 0 0 1 .568.04 1 1 0 0 1 .236.736v4.872a2.4 2.4 0 0 1-.236 1.012 1.5 1.5 0 0 1-.568.696L144.924 108v4.692a2.4 2.4 0 0 1-.236 1.012 1.55 1.55 0 0 1-.568.696zm-.656-12.916v-8.464L135.2 106.26z"/><path fill="#455A64" d="M108.488 144.972a.1.1 0 0 1 .128 0q.03.035.045.078a.2.2 0 0 1 .011.09v1.104a.6.6 0 0 1-.056.232.33.33 0 0 1-.128.156l-3.2 1.852a.1.1 0 0 1-.128 0 .2.2 0 0 1-.043-.079q-.014-.044-.009-.089V141.6q0-.12.052-.228a.34.34 0 0 1 .128-.156l3.156-1.824a.1.1 0 0 1 .064-.024q.037 0 .064.024.03.033.043.077a.2.2 0 0 1 .009.087v1.108a.5.5 0 0 1-.052.228.34.34 0 0 1-.128.156l-2.084 1.2v1.124l1.932-1.116a.11.11 0 0 1 .132 0q.029.035.043.079t.009.089v1.104a.5.5 0 0 1-.052.228.36.36 0 0 1-.132.16l-1.932 1.116v1.168zm3.148-7.44c.245-.153.516-.26.8-.316a.85.85 0 0 1 .6.092c.185.124.32.31.38.524.098.318.142.651.132.984.006.48-.066.958-.212 1.416a3.6 3.6 0 0 1-.592 1.132l.836 2a.2.2 0 0 1 .02.1.4.4 0 0 1-.044.188.3.3 0 0 1-.104.128l-.92.532c-.088.052-.152.056-.192 0a.5.5 0 0 1-.092-.132l-.756-1.78-.62.356v2.232a.55.55 0 0 1-.056.228.4.4 0 0 1-.128.16l-.888.508a.1.1 0 0 1-.064.026.1.1 0 0 1-.064-.026.22.22 0 0 1-.052-.168v-6.74q0-.12.052-.228a.36.36 0 0 1 .128-.16zm-.764 3.6.764-.44c.187-.11.347-.26.468-.44.133-.213.199-.461.188-.712q-.001-.437-.188-.496a.6.6 0 0 0-.468.104l-.764.452zm5.636-6.416c.246-.152.517-.259.8-.316a.88.88 0 0 1 .596.092c.192.123.334.31.4.528.085.319.118.65.096.98.005.481-.065.96-.208 1.42a3.7 3.7 0 0 1-.596 1.128l.836 2a.23.23 0 0 1 .024.104.5.5 0 0 1-.044.188.3.3 0 0 1-.108.128l-.92.532c-.088.052-.152.056-.192 0a.4.4 0 0 1-.092-.136l-.736-1.764-.62.36v2.232a.5.5 0 0 1-.056.228.34.34 0 0 1-.128.156l-.888.512a.1.1 0 0 1-.064.024.1.1 0 0 1-.064-.024.2.2 0 0 1-.043-.079q-.014-.044-.009-.089v-6.756c0-.08.018-.16.052-.232a.34.34 0 0 1 .128-.156zm-.764 3.6.764-.444c.188-.106.349-.255.468-.436a1.25 1.25 0 0 0 .188-.712q-.001-.437-.188-.496a.6.6 0 0 0-.468.104l-.764.44zm3.456-2.44q.02-.609.164-1.2.138-.59.4-1.136a4.8 4.8 0 0 1 .652-.98c.251-.293.55-.54.884-.732a1.77 1.77 0 0 1 .88-.284.98.98 0 0 1 .652.228c.191.178.329.405.4.656.103.325.158.663.164 1.004v1.856a6 6 0 0 1-.164 1.2 5.5 5.5 0 0 1-.4 1.14 4.6 4.6 0 0 1-.652.98c-.251.29-.548.536-.88.728a1.85 1.85 0 0 1-.884.292.98.98 0 0 1-.652-.228 1.5 1.5 0 0 1-.4-.664 3.5 3.5 0 0 1-.164-1.004zm2.972.088v-1.756a2 2 0 0 0-.072-.44.7.7 0 0 0-.164-.288.4.4 0 0 0-.26-.104.7.7 0 0 0-.364.12q-.211.12-.368.304a1.8 1.8 0 0 0-.26.4q-.106.229-.16.476-.06.257-.072.52v1.732c-.008.263.074.521.232.732.14.148.348.144.628-.02.278-.159.496-.405.62-.7a3 3 0 0 0 .248-.976zM126.4 129c.246-.152.517-.259.8-.316a.88.88 0 0 1 .596.092c.192.123.334.31.4.528.097.317.142.648.132.98.005.481-.065.96-.208 1.42a3.8 3.8 0 0 1-.596 1.132l.836 2a.23.23 0 0 1 .024.104.5.5 0 0 1-.044.188.3.3 0 0 1-.108.128l-.92.532c-.088.052-.152.056-.192 0a.4.4 0 0 1-.092-.136l-.752-1.796-.62.36v2.232a.5.5 0 0 1-.056.228.34.34 0 0 1-.128.156l-.888.512a.1.1 0 0 1-.064.024.1.1 0 0 1-.064-.024.2.2 0 0 1-.043-.079q-.014-.044-.009-.089v-6.728a.55.55 0 0 1 .052-.232.34.34 0 0 1 .128-.156zm-.764 3.6.764-.444c.189-.107.35-.256.472-.436a1.24 1.24 0 0 0 .184-.712q.001-.437-.184-.496a.6.6 0 0 0-.472.104l-.764.44z"/><path fill="#F7921E" d="m196.532 47.484-20.084 11.6a1.147 1.147 0 0 0-.52.896v25.68a1.14 1.14 0 0 0 .52.892l1.856 1.04a1.15 1.15 0 0 0 1.036 0l20.088-11.6a1.16 1.16 0 0 0 .516-.896V49.408a1.11 1.11 0 0 0-.52-.888l-1.852-1.04a1.16 1.16 0 0 0-1.04.004"/><path fill="#F7921E" d="M178.824 87.288V61.6a1.139 1.139 0 0 1 .516-.896l20.088-11.6c.284-.164.516-.032.516.296v25.684a1.14 1.14 0 0 1-.516.896l-20.088 11.6c-.288.172-.516.02-.516-.292"/><path fill="#000" d="M179.34 87.6a1.2 1.2 0 0 1-1.04 0l-1.852-1.04a1.14 1.14 0 0 1-.52-.888V60c.008-.187.064-.37.164-.528l2.884 1.644a1 1 0 0 0-.152.508v25.68c0 .296.212.46.516.296" opacity=".2"/><path fill="#fff" d="M199.936 49.316c-.04-.26-.252-.352-.508-.204l-20.088 11.6c-.154.1-.279.238-.364.4l-2.884-1.644c.085-.151.208-.278.356-.368l20.088-11.6a1.15 1.15 0 0 1 1.036 0l1.852 1.036a1.15 1.15 0 0 1 .512.78" opacity=".4"/><path fill="#F7921E" d="m175.928 67.72-4.16 4.232a.45.45 0 0 0-.132.372.45.45 0 0 0 .208.336c.088.056 2.88 1.66 2.88 1.66l4.1-4.932z"/><path fill="#000" d="m175.928 67.72-4.16 4.232a.45.45 0 0 0-.132.372.45.45 0 0 0 .208.336c.088.056 2.88 1.66 2.88 1.66l4.1-4.932z" opacity=".1"/><path fill="#F7921E" d="m178.824 69.388-4.164 4.232a.455.455 0 0 0-.08.532.46.46 0 0 0 .48.244l3.772-.544c.396 0 .396-4.464-.008-4.464"/><path fill="#455A64" d="M186 68.4a.4.4 0 0 1-.276-.112l-2.984-2.872a.4.4 0 0 1-.121-.447.402.402 0 0 1 .673-.129l2.988 2.872a.4.4 0 0 1 .088.438.4.4 0 0 1-.088.13.4.4 0 0 1-.28.12"/><path fill="#455A64" d="M183.016 70.136a.5.5 0 0 1-.172-.036.4.4 0 0 1-.188-.532l2.984-6.32a.4.4 0 0 1 .724.34l-2.984 6.32a.4.4 0 0 1-.364.228m12.736-7.336a.4.4 0 0 1-.28-.112l-2.984-2.872a.398.398 0 0 1 .283-.69.4.4 0 0 1 .285.126l2.984 2.872a.41.41 0 0 1 .094.437.4.4 0 0 1-.37.251z"/><path fill="#455A64" d="M192.764 64.508a.4.4 0 0 1-.399-.42.4.4 0 0 1 .039-.152l2.984-6.316a.398.398 0 0 1 .57-.18.4.4 0 0 1 .154.52l-2.984 6.32a.4.4 0 0 1-.364.228m-9.88 12.788a.398.398 0 0 1-.2-.744l13-7.508a.403.403 0 1 1 .4.696l-13 7.504a.4.4 0 0 1-.2.052"/><path fill="#455A64" d="M191.944 77.508a1.25 1.25 0 0 1-.624-.164 1.66 1.66 0 0 1-.712-1.508v-3.628a.4.4 0 0 1 .117-.283.4.4 0 0 1 .283-.117.4.4 0 0 1 .283.117.4.4 0 0 1 .117.283v3.628a.92.92 0 0 0 .312.8.73.73 0 0 0 .712-.1 3.33 3.33 0 0 0 1.424-2.592v-3.628a.4.4 0 0 1 .117-.283.4.4 0 0 1 .283-.117.4.4 0 0 1 .283.117.4.4 0 0 1 .117.283v3.628a4.11 4.11 0 0 1-1.824 3.284c-.266.17-.573.267-.888.28"/><path fill="#455A64" d="M192.632 75.172a.4.4 0 0 1-.37-.247.4.4 0 0 1-.03-.153v-3.504a.4.4 0 0 1 .117-.283.4.4 0 0 1 .283-.117.4.4 0 0 1 .283.117.4.4 0 0 1 .117.283v3.504a.4.4 0 0 1-.4.4"/><path fill="#FFA8A7" d="M180.516 179.84c0-.612-.16-4-.352-7.12-.2-3.284-.196-6.288-.196-6.288l5.552 4.144c-1.2 7.376-1.324 9.004-1.344 10.212l-.136.112q.04.151.032.308c0 1.432-1.6 2.208-2.868 3.168a23.3 23.3 0 0 1-3.4 2.24c-.916.464-2.776.512-3.008-.076 1.768-1.108 3.88-2.512 5.096-3.856.58-.64.584-1.588.624-2.844"/><path fill="#263238" d="M172.632 188.36a1.11 1.11 0 0 0 .312 1.136 5.14 5.14 0 0 0 3.864.728c1.9-.336 2.908-.924 3.644-1.6s1.764-1.632 2.62-1.864a5.2 5.2 0 0 0 1.892-.88c.244-.26.156-1.36.156-1.36z"/><path fill="#F7921E" d="M184.192 180.276a.334.334 0 0 1 .268.276c.072.304.18 1.2.328 1.676.24.87.346 1.77.316 2.672-.08.572-1.368 1.024-2.192 1.384a10.7 10.7 0 0 0-2.628 1.84 7.7 7.7 0 0 1-3.96 1.692c-1.472.056-3.156-.34-3.568-1.004-.512-.824-.164-1.332 1.972-2.448.4-.212 1.816-1.14 2.296-1.476 1.3-.904 2.572-2.14 3.12-3.664a.8.8 0 0 1 .292-.468.7.7 0 0 1 .42-.06c.368.033.728.123 1.068.268.3.124.724.268.736.644q0 .205-.064.4c-.024.08-.04.184.028.224s.148 0 .204-.068q.308-.343.556-.732.143-.202.328-.368c.112-.1.264-.152.364-.26a.72.72 0 0 0 .116-.528"/><path fill="#000" d="M184.192 180.276a.334.334 0 0 1 .268.276c.072.304.18 1.2.328 1.676.24.87.346 1.77.316 2.672-.08.572-1.368 1.024-2.192 1.384a10.7 10.7 0 0 0-2.628 1.84 7.7 7.7 0 0 1-3.96 1.692c-1.472.056-3.156-.34-3.568-1.004-.512-.824-.164-1.332 1.972-2.448.4-.212 1.816-1.14 2.296-1.476 1.3-.904 2.572-2.14 3.12-3.664a.8.8 0 0 1 .292-.468.7.7 0 0 1 .42-.06c.368.033.728.123 1.068.268.3.124.724.268.736.644q0 .205-.064.4c-.024.08-.04.184.028.224s.148 0 .204-.068q.308-.343.556-.732.143-.202.328-.368c.112-.1.264-.152.364-.26a.72.72 0 0 0 .116-.528" opacity=".3"/><path fill="#000" d="M177.632 186.5c-1.332.608-.74.832-.36.872s2.608-1.408 3.952-2.58 2.256-2.52 2.776-2.968c.196-.168.4-.372.588-.56-.052-.296-.092-.568-.128-.712a.33.33 0 0 0-.268-.276.72.72 0 0 1-.116.512c-.1.108-.252.16-.364.26q-.185.165-.328.368a5.6 5.6 0 0 1-.556.732c-1.116 1.564-3.864 3.744-5.196 4.352" opacity=".2"/><path fill="#EBEBEB" d="M177.36 187.164a.13.13 0 0 0 .084-.032.14.14 0 0 0 0-.192 3.25 3.25 0 0 0-2.536-.864.137.137 0 0 0-.103.152.14.14 0 0 0 .049.086c.026.021.06.032.094.03a3.01 3.01 0 0 1 2.296.776q.02.026.052.038.03.012.064.006m1.152-.764a.14.14 0 0 0 .084-.032.14.14 0 0 0 .03-.044.2.2 0 0 0 .01-.052.132.132 0 0 0-.04-.096 3.24 3.24 0 0 0-2.536-.864.136.136 0 0 0-.112.156.14.14 0 0 0 .056.087c.029.02.065.03.1.025a3 3 0 0 1 2.292.776.13.13 0 0 0 .116.044m1.152-.768a.14.14 0 0 0 .084-.032.14.14 0 0 0 0-.192 3.24 3.24 0 0 0-2.532-.864.136.136 0 0 0-.112.155.14.14 0 0 0 .052.089q.022.015.048.022a.1.1 0 0 0 .052.002 3 3 0 0 1 2.292.776.13.13 0 0 0 .116.044m1.06-.832a.13.13 0 0 0 .084-.032.14.14 0 0 0 0-.192 3.25 3.25 0 0 0-2.536-.864.1.1 0 0 0-.05.018.1.1 0 0 0-.04.036.14.14 0 0 0-.022.049.1.1 0 0 0 0 .053.14.14 0 0 0 .054.087q.044.032.098.025a3.017 3.017 0 0 1 2.296.776q.02.026.052.038.03.012.064.006m1.04-.848a.12.12 0 0 0 .08-.032.13.13 0 0 0 .036-.068.13.13 0 0 0-.007-.077.14.14 0 0 0-.029-.043 3.305 3.305 0 0 0-2.768-.868.139.139 0 0 0-.092.052.14.14 0 0 0-.006.154.14.14 0 0 0 .142.058c.452-.066.912-.03 1.348.104a3.1 3.1 0 0 1 1.172.676.131.131 0 0 0 .124.044"/><path fill="#FFA8A7" d="m191.716 171.816 6.072-.132c-.076 4.052-.704 8.556-.8 12.36-.02.716.036 5.56-.228 7.036-.4 2.216-3.024 1.924-3.168.6s.14-6.984.132-7.564c0-2.44-1.144-6.556-1.76-10.932-.024-.212-.22-1.16-.248-1.368"/><path fill="#263238" d="M192.612 192.608c-.048 1.3.068 2.176.456 2.98a1.912 1.912 0 0 0 2.124.988c.9-.136 2.08-.624 2.44-1.716a7.2 7.2 0 0 0 .3-3.08z"/><path fill="#F7921E" d="M197.008 183.576c.36.064.296 1.812.336 3.572.044 1.884.528 2.708.576 4.256.06 1.768-.108 2.54-.82 3.536s-2.98 1.824-3.9.208c-.752-1.316-.656-2.688-.4-4.424q.367-2.2.508-4.428c.06-1.316.092-2.592.42-2.704v.628c0 .188-.028.86.176.884q.045-.244.048-.492a.62.62 0 0 1 .14-.4.7.7 0 0 1 .42-.14A10 10 0 0 1 195.6 184q.27-.001.54.028.236.016.452.112a.3.3 0 0 1 .112.078.3.3 0 0 1 .068.118.6.6 0 0 1 0 .2 1.4 1.4 0 0 0 0 .364c0 .052.036.116.088.112s.064-.06.068-.1c.024-.212 0-.368.024-.616v-.38c0-.112.052-.224.056-.34"/><path fill="#000" d="M197.008 183.576c.36.064.296 1.812.336 3.572.044 1.884.528 2.708.576 4.256.06 1.768-.108 2.54-.82 3.536s-2.98 1.824-3.9.208c-.752-1.316-.656-2.688-.4-4.424q.367-2.2.508-4.428c.06-1.316.092-2.592.42-2.704v.628c0 .188-.028.86.176.884q.045-.244.048-.492a.62.62 0 0 1 .14-.4.7.7 0 0 1 .42-.14A10 10 0 0 1 195.6 184q.27-.001.54.028.236.016.452.112a.3.3 0 0 1 .112.078.3.3 0 0 1 .068.118.6.6 0 0 1 0 .2 1.4 1.4 0 0 0 0 .364c0 .052.036.116.088.112s.064-.06.068-.1c.024-.212 0-.368.024-.616v-.38c0-.112.052-.224.056-.34" opacity=".3"/><path fill="#000" d="M196.66 192.14c-.056.632.588.48.704-.4s-.172-3.052-.02-4.584c-.04-1.76.024-3.508-.336-3.572v.068l-.036.888c0 .128 0 .244-.02.38-.112 1.288-.172 3.792-.176 4.98q0 1.123-.116 2.24m-2.532.012a22 22 0 0 1-.128-2.248c0-1.18-.088-3.656-.212-4.952a3.3 3.3 0 0 1-.056-.732v-.588a.1.1 0 0 1 0-.04c-.236.088-.32.8-.368 1.66 0 .512 0 1.144.056 1.912.168 1.528-.104 3.708 0 4.596s.768 1.04.708.392" opacity=".2"/><path fill="#EBEBEB" d="M193.892 192.196h.052a4.25 4.25 0 0 1 2.8-.02.14.14 0 0 0 .172-.08.13.13 0 0 0-.005-.102.14.14 0 0 0-.075-.07 4.5 4.5 0 0 0-3.008 0 .135.135 0 0 0-.072.176.13.13 0 0 0 .052.071.13.13 0 0 0 .084.025m-.168-1.396q.022.006.044 0a5.34 5.34 0 0 1 3.148-.02.14.14 0 0 0 .104-.005.1.1 0 0 0 .042-.033.1.1 0 0 0 .026-.046.13.13 0 0 0-.039-.145.1.1 0 0 0-.045-.027 5.5 5.5 0 0 0-3.328.024.14.14 0 0 0-.075.07.13.13 0 0 0-.005.102.14.14 0 0 0 .051.06q.036.021.077.02m3.232-1.34a.13.13 0 0 0 .12-.08.136.136 0 0 0-.064-.18 4.6 4.6 0 0 0-3.32 0 .1.1 0 0 0-.043.028.2.2 0 0 0-.029.043.14.14 0 0 0-.01.05q0 .027.01.051a.14.14 0 0 0 .071.072.13.13 0 0 0 .101.004s1.648-.656 3.108 0a.14.14 0 0 0 .056.012m.024-1.236a.14.14 0 0 0 .129-.105.13.13 0 0 0-.009-.087.13.13 0 0 0-.06-.064 4.17 4.17 0 0 0-3.384-.024.136.136 0 0 0-.064.18.13.13 0 0 0 .078.066q.052.017.102-.006a3.96 3.96 0 0 1 3.152.028.14.14 0 0 0 .056.012m.024-1.392a.14.14 0 0 0 .07-.019.132.132 0 0 0-.01-.233c-1.6-.8-3.34-.024-3.412 0a.2.2 0 0 0-.051.042.14.14 0 0 0-.025.06.2.2 0 0 0 .006.066q.01.032.036.055a.1.1 0 0 0 .044.028.2.2 0 0 0 .051.009.2.2 0 0 0 .051-.012s1.688-.748 3.18 0q.03.01.06.004"/><path fill="#455A64" d="M195.24 132.4c2.164 5.92 2.204 9.6 1.86 15.824-.316 5.7-.832 10.72-.832 10.72.088 1.012 1.504 2.98 1.7 7.452a73 73 0 0 1-.4 9.42s-2.8 1.032-5.168.02c0 0-2.468-10.688-3.148-15.916-.592-4.564-1.46-9.952-1.46-9.952l-1.548 9.952c.22 1.505.3 3.028.24 4.548-.2 2.432-1.384 8.964-1.384 8.964s-2.94 1.06-4.94-.7c0 0-.608-9.792-.9-13.496-.4-4.964-.308-18.572.856-25.544z"/><path fill="#263238" d="m187.796 149.956-1.06-8.244s-3.936-.512-5.712-2.176a6.452 6.452 0 0 0 4.636 2.908l1.448 7.696-.86 9.768z"/><path fill="#37474F" d="m188.84 119.648.08-.036c5.06-2.4 7.092-8 6.844-13.32a14 14 0 0 0-1.036-4.928 8.35 8.35 0 0 0-3.2-3.828 8 8 0 0 0-3.66-1.1c-1.172-.076-2.688-.056-3.792.4a1.31 1.31 0 0 1-1.084.036 3.7 3.7 0 0 0-1.2-.072 4.17 4.17 0 0 0-2.752 1.6c-.932 1.148-1.044 2.864-.724 4.256.152.644 1.048 1.6 1.012 2.196-.056.892-.704 1.6-1.416 2.368s-1.5 1.344-1.844 2.476c-.296.972-.348 3.032 1.828 3.824-3.168 4.188-.044 6.46 1.684 7.06a8.36 8.36 0 0 0 3.6.436c1.932-.216 3.892-.544 5.66-1.368"/><path fill="#FFA8A7" d="M177.9 126.76c1.864-1.916 5.228-6.256 5.228-6.256l1.904-6.592c.048 0-.968.02-1.276 0-2.056.136-2.664.312-3.944 1.712-1.016 1.112-4.892 6.4-6.24 8.188L170 119.26c-.856-1.296-.72-2.748-1.164-3.804s-1.164-1.528-1.74-2.484-.712-1.6-1.2-1.092.072 1.808.144 2.108.8 1.2-.4.732-3.068-2.668-3.548-3.12-.732.248-.624.8-.4 1.796-.22 2.708c.118.913.571 1.75 1.272 2.348.872.876 2.996 1.948 3.828 3.096s2.604 4.716 3.692 6.868c1.376 2.732 2.552 3.632 4.1 2.712s3.06-2.664 3.76-3.372"/><path fill="#F28F8F" d="M173.572 123.816a4.36 4.36 0 0 1 1.3 2.4s.4-1.32-.992-2.8z"/><path fill="#F7921E" d="M180.32 125.54c-2.528-2.08-1.696-4.8-.772-6.62 1.848-3.652 3.768-5.088 4.568-5.072l5.036.044c2.4.328 4.268.164 4.848.304 1.48.348 1.512 1.568 1.568 3.144.064 1.728.248 1.544-.204 4.4 0 0-.684 2.212-.952 3.2s-.772 2.524-.364 4.124c.156.616.572 1.2 1.2 2.924.558 1.401.987 2.85 1.284 4.328 0 0-3.452 3.2-10.624 2.168-5.272-.752-6.308-2.484-6.308-2.484l.988-6.156c-.132-2.164-.168-2.944-.268-4.304"/><path fill="#000" d="M183.6 124.996s2.068 1.664 4.476.856a4.1 4.1 0 0 0 2.8-2.892s.204 2.74-2.828 3.6a3.95 3.95 0 0 1-4.448-1.564" opacity=".1"/><path fill="#FFA8A7" d="M201.66 108.824c-1.072-1.336-4-4.676-4.54-5.344a3.1 3.1 0 0 0-1.264-.952 3.2 3.2 0 0 1-1.176-.748c-.208-.204-.66-1.072-.844-1.3a8.2 8.2 0 0 0-1.924-1.792c-.848-.596-1.652-.872-2.524-1.436-.512-.332-1.136-.664-.576-1.224.174-.177.397-.298.64-.348 1.2-.224 2.472.152 3.96.54q.958.243 1.884.588c.356.117.692.289.996.508.364.345.665.751.888 1.2.696 1.136 2.288 1.896 3.28 2.764 1.16 1.02 2.304 1.872 3.628 2.996a25 25 0 0 1 3.6 3.58c.8 1.08.572 1.728.244 2.208-1.652 2.436-5.332 5.2-6.64 6.28-1.396 1.152-2.376 1.872-3.624 2.988q-1.316 1.246-2.48 2.636a.55.55 0 0 1-.68.156c-1.444-.8-2.4-4.8-1.288-7.284.284-.636.58-.66.58-.66 2.28-1.6 7.86-5.34 7.86-5.34"/><path fill="#F28F8F" d="M201.66 108.824a5.7 5.7 0 0 0 2.604 1.86s-1.38.328-3.232-1.396z"/><path fill="#FFA8A7" d="M181.092 106.22c.024 3.972 1.292 4.976 1.932 5.268s1.892.144 3.104-.036l-.04 2.4s-1.424 1.436-1.336 2.528 2.172 1.256 3.756.216a12 12 0 0 0 2.356-2.052.85.85 0 0 0 .208-.548l.096-5.6s.652.716 1.84-.068a2.16 2.16 0 0 0 .981-2.323 2.2 2.2 0 0 0-.373-.809 1.59 1.59 0 0 0-1.274-.441 1.6 1.6 0 0 0-1.158.689c-.364.68-.332 1.156-.8 1.076s-.512-.612-.544-.996-.02-.504-.048-1.004c-1.176-.252-2.4-1.888-2.524-3.08a5.6 5.6 0 0 1-2.556.576c-1.312-.092-2-.352-2.636-1.304a2.6 2.6 0 0 0-.368.708 8.7 8.7 0 0 0-.4 1.556 21 21 0 0 0-.216 3.244"/><path fill="#F28F8F" d="M186.128 111.452c1.28-.144 3.92-.852 4.348-1.884a2.7 2.7 0 0 1-.944 1.308c-.8.66-3.416 1.372-3.416 1.372z"/><path fill="#B16668" d="M184.84 109.312a.52.52 0 0 0 .182.41.53.53 0 0 0 .706-.02.53.53 0 0 0 .123-.57.53.53 0 0 0-.375-.321.527.527 0 0 0-.636.501"/><path fill="#263238" d="M185.508 105.404a.55.55 0 0 0 .319.512.548.548 0 1 0 .269-1.044.56.56 0 0 0-.588.532m-3.708-.236a.5.5 0 0 0 .464.548.48.48 0 0 0 .293-.063.47.47 0 0 0 .239-.421.5.5 0 0 0-.11-.381.5.5 0 0 0-.354-.181.5.5 0 0 0-.374.134.5.5 0 0 0-.158.364"/><path fill="#F28F8F" d="m184.364 104.652-.396 3.316-1.7-.704z"/><path fill="#263238" d="m187.496 103.972-.988-.94a.71.71 0 0 0 .028.988.67.67 0 0 0 .96-.048m-4.944-1.244-1.096.828a.668.668 0 0 0 .948.156.724.724 0 0 0 .148-.984"/></svg>