<svg xmlns="http://www.w3.org/2000/svg" width="256" height="256" fill="none"><path stroke="#D5D5D5" d="M46.56 204.522C24.086 192.754 13 177.407 13 162.19s11.084-30.568 33.56-42.341c22.464-11.767 51.94-17.663 81.442-17.663 29.503 0 58.977 5.896 81.439 17.663 22.473 11.773 33.558 27.122 33.559 42.337.001 15.214-11.083 30.563-33.559 42.336-22.465 11.767-51.939 17.664-81.441 17.664s-58.976-5.897-81.44-17.664Z" style="stroke:#d5d5d5;stroke:color(display-p3 .8353 .8353 .8353);stroke-opacity:1"/><path fill="#F7921E" d="M126.918 117.815v4.762l-82.544 47.657-2.56 1.459a4.43 4.43 0 0 1-1.94-3.507V87.93a.86.86 0 0 1 .117-.405.9.9 0 0 1 .297-.312l18.81-10.86c.231-.133 1.573.43 1.793.563l.143.082q.189.119.328.292c.107.113.19.247.24.394l1.706 4.92 61.276-36.474a.92.92 0 0 1 .804 0l1.136.66a.8.8 0 0 1 .292.302.86.86 0 0 1 .123.415v70.308z" style="fill:#f7921e;fill:color(display-p3 .9686 .5725 .1176);fill-opacity:1"/><path fill="#000" d="M126.918 117.815v4.762l-82.544 47.657-2.56 1.459a4.43 4.43 0 0 1-1.94-3.507V87.93a.86.86 0 0 1 .117-.405.9.9 0 0 1 .297-.312l18.81-10.86c.231-.133 1.573.43 1.793.563l.143.082q.189.119.328.292c.107.113.19.247.24.394l1.706 4.92 61.276-36.474a.92.92 0 0 1 .804 0l1.136.66a.8.8 0 0 1 .292.302.86.86 0 0 1 .123.415v70.308z" opacity=".5" style="fill:#000;fill-opacity:1"/><path fill="#F7921E" d="m126.918 122.577-85.084 49.116V88.57l19.548-11.264c.108.113.19.247.241.394l1.705 4.92.323.932 63.139-36.46a.86.86 0 0 1 .123.416z" style="fill:#f7921e;fill:color(display-p3 .9686 .5725 .1176);fill-opacity:1"/><path fill="#000" d="m126.918 122.577-85.084 49.116V88.57l19.548-11.264c.108.113.19.247.241.394l1.705 4.92.323.932 63.139-36.46a.86.86 0 0 1 .123.416z" opacity=".35" style="fill:#000;fill-opacity:1"/><path fill="#F7921E" d="M61.382 77.29 41.834 88.554l-1.823-1.024a.9.9 0 0 1 .297-.312l18.816-10.86a.88.88 0 0 1 .814 0l1.117.646q.188.115.327.286" style="fill:#f7921e;fill:color(display-p3 .9686 .5725 .1176);fill-opacity:1"/><path fill="#000" d="M61.382 77.29 41.834 88.554l-1.823-1.024a.9.9 0 0 1 .297-.312l18.816-10.86a.88.88 0 0 1 .814 0l1.117.646q.188.115.327.286" opacity=".2" style="fill:#000;fill-opacity:1"/><path fill="#F7921E" d="m126.79 47.077-63.134 36.46-.323-.932 61.251-36.48a.94.94 0 0 1 .804 0l1.136.66a.8.8 0 0 1 .266.292" style="fill:#f7921e;fill:color(display-p3 .9686 .5725 .1176);fill-opacity:1"/><path fill="#000" d="m126.79 47.077-63.134 36.46-.323-.932 61.251-36.48a.94.94 0 0 1 .804 0l1.136.66a.8.8 0 0 1 .266.292" opacity=".2" style="fill:#000;fill-opacity:1"/><path fill="#FAFAFA" d="M66.108 149.902a2.09 2.09 0 0 1-.916-1.659V66.001a2.15 2.15 0 0 1 .978-1.695l52.372-30.208a1.836 1.836 0 0 1 2.585.665c.161.293.239.624.226.958v82.243a2.16 2.16 0 0 1-.978 1.694l-52.372 30.208a2.09 2.09 0 0 1-1.895.036" style="fill:#fafafa;fill:color(display-p3 .9804 .9804 .9804);fill-opacity:1"/><path fill="#F0F0F0" d="m68.003 149.867 52.372-30.208a2.17 2.17 0 0 0 .978-1.695V35.721c0-.624-.435-.875-.978-.568L68.003 65.36a2.17 2.17 0 0 0-.978 1.695v82.247c0 .625.44.876.978.564" style="fill:#f0f0f0;fill:color(display-p3 .9412 .9412 .9412);fill-opacity:1"/><path fill="#E0E0E0" d="m73.327 68.632 40.474-23.373c.476-.276.865-.05.865.513v.343a1.901 1.901 0 0 1-.865 1.495L73.327 70.977c-.476.277-.865.057-.86-.512v-.343a1.9 1.9 0 0 1 .86-1.49M73.327 74.46l40.474-23.374c.476-.271.865-.05.865.512v.343a1.9 1.9 0 0 1-.865 1.49L73.327 76.794c-.476.276-.865.051-.86-.512v-.343a1.9 1.9 0 0 1 .86-1.48M73.327 80.285l40.474-23.367c.476-.277.865-.051.865.512v.343a1.92 1.92 0 0 1-.865 1.495L73.327 82.635c-.476.277-.865.052-.86-.511v-.343a1.91 1.91 0 0 1 .86-1.496M73.327 86.117l40.474-23.372c.476-.272.865-.052.865.512v.348a1.9 1.9 0 0 1-.865 1.49L73.327 88.468c-.476.27-.865.05-.86-.513v-.348a1.9 1.9 0 0 1 .86-1.49M73.327 91.944l40.474-23.368c.476-.277.865-.056.865.512v.343a1.92 1.92 0 0 1-.865 1.495L73.327 94.294c-.476.276-.865.05-.86-.512v-.349a1.91 1.91 0 0 1 .86-1.49M73.327 97.817l40.474-23.373c.476-.272.865-.051.865.512v.343a1.9 1.9 0 0 1-.865 1.49l-40.474 23.373c-.476.276-.865.051-.86-.512v-.344a1.9 1.9 0 0 1 .86-1.49M73.327 103.643l40.474-23.368c.476-.276.865-.051.865.512v.343a1.9 1.9 0 0 1-.865 1.495l-40.474 23.353c-.476.276-.865.056-.86-.512v-.343a1.91 1.91 0 0 1 .86-1.48M73.327 109.475l40.474-23.373c.476-.271.865-.051.865.512v.348a1.9 1.9 0 0 1-.865 1.49l-40.474 23.373c-.476.276-.865.051-.86-.512v-.343a1.9 1.9 0 0 1 .86-1.495M73.327 115.301l40.474-23.368c.476-.276.865-.05.865.512v.343a1.92 1.92 0 0 1-.865 1.495l-40.474 23.368c-.476.277-.865.051-.86-.512v-.343a1.91 1.91 0 0 1 .86-1.495M73.327 121.133l40.474-23.373c.476-.276.865-.051.865.512v.343a1.9 1.9 0 0 1-.865 1.495l-40.474 23.373c-.476.271-.865.051-.86-.512v-.353a1.9 1.9 0 0 1 .86-1.485M73.327 126.985l40.474-23.368c.476-.276.865-.056.865.512v.343a1.92 1.92 0 0 1-.865 1.495l-40.474 23.368c-.476.277-.865.051-.86-.512v-.343a1.9 1.9 0 0 1 .86-1.495M73.327 132.817l40.474-23.373c.476-.276.865-.051.865.512v.343c-.016.3-.103.591-.254.851-.15.26-.359.481-.611.644l-40.474 23.373c-.476.271-.865.051-.86-.512v-.343a1.89 1.89 0 0 1 .86-1.495M73.327 138.643l40.474-23.373c.476-.271.865-.051.865.512v.344a1.893 1.893 0 0 1-.865 1.489l-40.474 23.373c-.476.277-.865.051-.86-.512v-.343a1.9 1.9 0 0 1 .86-1.49M67.875 149.933a1.824 1.824 0 0 1-2.475-.765 1.8 1.8 0 0 1-.208-.925V66.001c.014-.34.113-.67.286-.963l1.833 1.06a1.96 1.96 0 0 0-.286.957v82.248c0 .573.373.829.85.63" style="fill:#e0e0e0;fill:color(display-p3 .8784 .8784 .8784);fill-opacity:1"/><path fill="#FAFAFA" d="M73.46 154.147a2.1 2.1 0 0 1-.916-1.659V70.245a2.17 2.17 0 0 1 .978-1.694l52.372-30.208a1.84 1.84 0 0 1 2.588.665c.162.292.241.624.228.958v82.242a2.17 2.17 0 0 1-.977 1.695l-52.378 30.208a2.1 2.1 0 0 1-1.895.036" style="fill:#fafafa;fill:color(display-p3 .9804 .9804 .9804);fill-opacity:1"/><path fill="#F0F0F0" d="m75.355 154.111 52.377-30.208a2.17 2.17 0 0 0 .978-1.695V39.966c0-.625-.44-.876-.978-.564L75.355 69.61a2.17 2.17 0 0 0-.978 1.695v82.243c0 .624.44.875.978.563" style="fill:#f0f0f0;fill:color(display-p3 .9412 .9412 .9412);fill-opacity:1"/><path fill="#E0E0E0" d="m80.68 72.877 40.473-23.373c.476-.276.866-.051.866.512v.343a1.92 1.92 0 0 1-.866 1.495L80.68 75.227c-.476.271-.86.051-.86-.512v-.343a1.9 1.9 0 0 1 .86-1.495M80.68 78.703l40.473-23.373c.476-.27.866-.05.866.513v.343a1.903 1.903 0 0 1-.866 1.49L80.68 81.048c-.476.277-.86.052-.86-.512v-.343a1.9 1.9 0 0 1 .86-1.49M80.68 84.535l40.473-23.357c.476-.276.866-.051.866.512v.343a1.92 1.92 0 0 1-.866 1.495L80.68 86.896c-.476.276-.86.056-.86-.512v-.343a1.9 1.9 0 0 1 .86-1.506M80.68 90.362l40.473-23.373c.476-.272.866-.052.866.512v.332a1.903 1.903 0 0 1-.866 1.49L80.68 92.697c-.476.277-.86.052-.86-.512v-.343a1.9 1.9 0 0 1 .86-1.48M80.68 96.188l40.473-23.367c.476-.277.866-.052.866.512v.343a1.93 1.93 0 0 1-.866 1.495L80.68 98.538c-.476.277-.86.052-.86-.512v-.343a1.9 1.9 0 0 1 .86-1.495M80.68 102.061l40.473-23.368c.476-.276.866-.056.866.512v.343a1.902 1.902 0 0 1-.866 1.49L80.68 104.411c-.476.276-.86.051-.86-.512v-.343a1.9 1.9 0 0 1 .86-1.495M80.68 107.893l40.473-23.373c.476-.277.866-.051.866.512v.343a1.92 1.92 0 0 1-.866 1.495L80.68 110.227c-.476.272-.86.052-.86-.512v-.343a1.9 1.9 0 0 1 .86-1.479M80.68 113.719l40.473-23.357c.476-.272.866-.051.866.512v.343a1.91 1.91 0 0 1-.866 1.49L80.68 116.08c-.476.276-.86.051-.86-.512v-.343a1.9 1.9 0 0 1 .86-1.506M80.68 119.546l40.473-23.368c.476-.276.866-.051.866.512v.328a1.92 1.92 0 0 1-.866 1.495L80.68 121.88c-.476.277-.86.057-.86-.512v-.343a1.91 1.91 0 0 1 .86-1.479M80.68 125.378l40.473-23.373c.476-.272.866-.051.866.512v.348a1.905 1.905 0 0 1-.866 1.49L80.68 127.738c-.476.276-.86.051-.86-.512v-.343a1.9 1.9 0 0 1 .86-1.505M80.68 131.23l40.473-23.368c.476-.276.866-.051.866.512v.343a1.93 1.93 0 0 1-.866 1.495L80.68 133.58c-.476.276-.86.051-.86-.512v-.343a1.9 1.9 0 0 1 .86-1.495M80.68 137.061l40.473-23.373c.476-.276.866-.051.866.512v.343a1.92 1.92 0 0 1-.866 1.495L80.68 139.411c-.476.271-.86.051-.86-.512v-.348a1.9 1.9 0 0 1 .86-1.49M80.68 142.888l40.473-23.342c.476-.277.866-.057.866.512v.343c-.018.299-.105.59-.255.85s-.36.48-.611.645L80.68 145.263c-.476.277-.86.052-.86-.512v-.343a1.9 1.9 0 0 1 .86-1.52M75.227 154.177a1.825 1.825 0 0 1-2.475-.764 1.83 1.83 0 0 1-.208-.925V70.245c.014-.34.113-.67.287-.962l1.838 1.06a1.96 1.96 0 0 0-.292.957v82.248c0 .573.374.814.85.629" style="fill:#e0e0e0;fill:color(display-p3 .8784 .8784 .8784);fill-opacity:1"/><path fill="#F7921E" d="m144.291 56.867-13.64 59.095-1.26 5.432a6.28 6.28 0 0 1-2.606 3.528l-80.937 46.699a4.2 4.2 0 0 1-1.915.512 3.9 3.9 0 0 1-2.099-.44l.42-1.802c0-.057 0-.113.041-.174l.456-1.977 1.96-8.571 12.54-54.308a.8.8 0 0 1 .076-.199q.05-.093.108-.179v-.031q.132-.177.317-.297l69.12-39.905 15.125-8.735a.92.92 0 0 1 .834 0l1.117.645a.7.7 0 0 1 .343.707" style="fill:#f7921e;fill:color(display-p3 .9686 .5725 .1176);fill-opacity:1"/><path fill="#000" d="m144.291 56.867-13.64 59.095-1.26 5.432a6.28 6.28 0 0 1-2.606 3.528l-80.937 46.699a4.2 4.2 0 0 1-1.915.512 3.9 3.9 0 0 1-2.099-.44l.42-1.802c0-.057 0-.113.041-.174l.456-1.977 1.96-8.571 12.54-54.308a.8.8 0 0 1 .076-.199q.05-.093.108-.179v-.031q.132-.177.317-.297l69.12-39.905 15.125-8.735a.92.92 0 0 1 .834 0l1.117.645a.7.7 0 0 1 .343.707" opacity=".3" style="fill:#000;fill-opacity:1"/><path fill="#F7921E" d="M144.306 56.744c0-.164-.133-.22-.318-.108l-84.254 48.64a1.1 1.1 0 0 0-.318.292l-1.94-1.121q.132-.177.317-.297l84.245-48.64a.92.92 0 0 1 .834 0l1.116.645a.71.71 0 0 1 .318.589" style="fill:#f7921e;fill:color(display-p3 .9686 .5725 .1176);fill-opacity:1"/><path fill="#000" d="M144.306 56.744c0-.164-.133-.22-.318-.108l-84.254 48.64a1.1 1.1 0 0 0-.318.292l-1.94-1.121q.132-.177.317-.297l84.245-48.64a.92.92 0 0 1 .834 0l1.116.645a.71.71 0 0 1 .318.589" opacity=".2" style="fill:#000;fill-opacity:1"/><path fill="#F7921E" d="M59.416 105.573a2 2 0 0 0-.143.236 2 2 0 0 0-.062.174l-11.99 51.932-2.51 10.947-.317 1.367-.44 1.899a3.9 3.9 0 0 1-2.1-.44l.42-1.802c0-.057 0-.113.041-.174l.456-1.977 1.94-8.565 12.54-54.308a.8.8 0 0 1 .076-.2q.05-.092.108-.179v-.031z" style="fill:#f7921e;fill:color(display-p3 .9686 .5725 .1176);fill-opacity:1"/><path fill="#000" d="M59.416 105.573a2 2 0 0 0-.143.236 2 2 0 0 0-.062.174l-11.99 51.932-2.51 10.947-.317 1.367-.44 1.899a3.9 3.9 0 0 1-2.1-.44l.42-1.802c0-.057 0-.113.041-.174l.456-1.977 1.94-8.565 12.54-54.308a.8.8 0 0 1 .076-.2q.05-.092.108-.179v-.031z" opacity=".5" style="fill:#000;fill-opacity:1"/><path fill="#F7921E" d="M44.804 166.681a.54.54 0 0 1 .256.588l-.686 2.965-.343 1.48a.514.514 0 0 1-.553.419 3.65 3.65 0 0 1-1.644-.44 4.43 4.43 0 0 1-1.94-3.507v-3.405a.54.54 0 0 1 .27-.467.54.54 0 0 1 .539-.004l.865.512a.55.55 0 0 1 .266.466v1.695a.537.537 0 0 0 1.065.123l.144-.63a.54.54 0 0 1 .555-.415q.128.008.238.072z" style="fill:#f7921e;fill:color(display-p3 .9686 .5725 .1176);fill-opacity:1"/><path fill="#000" d="M44.804 166.681a.54.54 0 0 1 .256.588l-.686 2.965-.343 1.48a.514.514 0 0 1-.553.419 3.65 3.65 0 0 1-1.644-.44 4.43 4.43 0 0 1-1.94-3.507v-3.405a.54.54 0 0 1 .27-.467.54.54 0 0 1 .539-.004l.865.512a.55.55 0 0 1 .266.466v1.695a.537.537 0 0 0 1.065.123l.144-.63a.54.54 0 0 1 .555-.415q.128.008.238.072z" opacity=".5" style="fill:#000;fill-opacity:1"/><path fill="#FAFAFA" d="M80.818 158.391a2.09 2.09 0 0 1-.916-1.659V74.49a2.15 2.15 0 0 1 .977-1.69l52.368-30.208a1.83 1.83 0 0 1 1.896-.038 1.84 1.84 0 0 1 .915 1.661v82.238a2.16 2.16 0 0 1-.978 1.694l-52.368 30.208a2.1 2.1 0 0 1-1.894.036" style="fill:#fafafa;fill:color(display-p3 .9804 .9804 .9804);fill-opacity:1"/><path fill="#F0F0F0" d="m82.712 158.36 52.368-30.208a2.15 2.15 0 0 0 .978-1.694V44.21c0-.625-.435-.876-.978-.568L82.712 73.85a2.16 2.16 0 0 0-.978 1.694v82.248c0 .625.436.876.978.568" style="fill:#f0f0f0;fill:color(display-p3 .9412 .9412 .9412);fill-opacity:1"/><path fill="#E0E0E0" d="M82.6 158.422a2.05 2.05 0 0 1-1.767-.031 2.09 2.09 0 0 1-.916-1.654V74.49c.013-.342.112-.674.287-.968l1.833 1.06c-.178.29-.276.622-.287.962v82.253c-.016.568.338.83.85.625M90.29 69.482l36.777-21.217v8.479L90.29 77.977zM87.105 83.327l11.879-6.866c.271-.159.512-.046.512.246a1.02 1.02 0 0 1-.512.814l-11.879 6.866c-.271.158-.512.046-.512-.246a1.02 1.02 0 0 1 .512-.814M87.105 85.452l11.879-6.866c.271-.159.512-.046.512.246a1.06 1.06 0 0 1-.512.814l-11.879 6.866c-.271.153-.512.046-.512-.251a1.02 1.02 0 0 1 .512-.81M87.105 87.571l11.879-6.865c.271-.154.512-.047.512.25a1.06 1.06 0 0 1-.512.814l-11.879 6.866c-.271.154-.512.046-.512-.25a1.06 1.06 0 0 1 .512-.815M87.105 89.696l11.879-6.866c.271-.153.512-.046.512.246a1.02 1.02 0 0 1-.512.814l-11.879 6.866c-.271.159-.512.046-.512-.246a1.06 1.06 0 0 1 .512-.814M119.029 76.574l11.893-6.866c.272-.159.487-.046.487.246a1.049 1.049 0 0 1-.487.814l-11.893 6.866c-.272.158-.512.046-.512-.246a1.02 1.02 0 0 1 .512-.814M119.029 78.693l11.893-6.865c.272-.154.487-.041.487.25a1.05 1.05 0 0 1-.487.814l-11.893 6.866c-.272.154-.512.047-.512-.25a1.05 1.05 0 0 1 .512-.815M119.029 80.818l11.893-6.84c.272-.154.487-.046.487.25a1.02 1.02 0 0 1-.487.81l-11.893 6.866c-.272.158-.512.046-.512-.246a1.05 1.05 0 0 1 .512-.84M119.029 82.943l11.893-6.866c.272-.159.487-.046.487.246a1.03 1.03 0 0 1-.487.814l-11.893 6.866c-.272.159-.512.046-.512-.246a1.02 1.02 0 0 1 .512-.814M87.105 149.149l44.99-25.973c.271-.159.512-.046.512.245a1.02 1.02 0 0 1-.512.814l-44.99 25.979c-.271.154-.512.041-.512-.251a1.05 1.05 0 0 1 .512-.814M87.105 151.29l44.99-25.979c.271-.154.512-.041.512.251a1.06 1.06 0 0 1-.512.814l-44.99 25.938c-.271.159-.512.046-.512-.246a1.03 1.03 0 0 1 .512-.778M116.033 66.62l14.695-8.514c.266-.154.486-.041.486.25a1.06 1.06 0 0 1-.486.815l-14.695 8.514c-.271.154-.486.046-.486-.25a1.05 1.05 0 0 1 .486-.815M116.033 68.745l14.695-8.494c.266-.154.486-.046.486.25a1.06 1.06 0 0 1-.486.815l-14.695 8.489c-.271.158-.486.046-.486-.246a1.05 1.05 0 0 1 .486-.814M116.033 70.87l14.695-8.494c.266-.159.486-.046.486.246a1.01 1.01 0 0 1-.486.814l-14.695 8.494c-.271.158-.486.046-.486-.246a1.03 1.03 0 0 1 .486-.814M116.033 72.995l14.695-8.494c.266-.159.486-.046.486.246a1.06 1.06 0 0 1-.486.814l-14.695 8.494c-.271.153-.486.046-.486-.251a1.03 1.03 0 0 1 .486-.81" style="fill:#e0e0e0;fill:color(display-p3 .8784 .8784 .8784);fill-opacity:1"/><path fill="#455A64" d="M87.244 102.353a.1.1 0 0 1-.062.024.1.1 0 0 1-.061-.024.212.212 0 0 1-.051-.164v-6.487a.5.5 0 0 1 .05-.22.35.35 0 0 1 .124-.154l.855-.512a.087.087 0 0 1 .123 0 .2.2 0 0 1 .056.16v6.481a.5.5 0 0 1-.056.22.3.3 0 0 1-.123.154zM92.154 99.521a.15.15 0 0 1-.18 0 .23.23 0 0 1-.087-.087l-1.495-2.56v3.39a.5.5 0 0 1-.05.22.32.32 0 0 1-.124.153l-.855.512a.1.1 0 0 1-.061.024.1.1 0 0 1-.062-.024.21.21 0 0 1-.05-.163v-6.529q0-.115.05-.22a.4.4 0 0 1 .123-.153l.681-.39a.16.16 0 0 1 .18 0 .5.5 0 0 1 .087.093l1.49 2.56v-3.395a.6.6 0 0 1 .05-.22.35.35 0 0 1 .129-.153l.85-.512a.1.1 0 0 1 .128 0 .24.24 0 0 1 .05.158v6.533a.6.6 0 0 1-.05.22.3.3 0 0 1-.128.149zM95.303 97.704q-.257.147-.343-.205l-1.332-5.504a.4.4 0 0 1 0-.082.435.435 0 0 1 .04-.215.25.25 0 0 1 .104-.123l.819-.476c.087-.051.148-.056.19 0a.24.24 0 0 1 .066.123l.906 3.896.906-4.94a.9.9 0 0 1 .067-.205.5.5 0 0 1 .19-.195l.819-.47a.08.08 0 0 1 .102 0 .2.2 0 0 1 .04.132.1.1 0 0 1 0 .041 1 1 0 0 1 0 .098l-1.325 7.04a.86.86 0 0 1-.348.604zM98.16 91.647a5.7 5.7 0 0 1 .158-1.152c.09-.377.223-.743.394-1.09q.259-.51.63-.943a3.2 3.2 0 0 1 .85-.706c.253-.165.544-.26.845-.277a.97.97 0 0 1 .63.22c.183.166.317.378.389.615.097.313.151.639.159.967v1.787q-.024.581-.159 1.147-.136.573-.4 1.1a4.2 4.2 0 0 1-.629.943 3.3 3.3 0 0 1-.845.701 1.8 1.8 0 0 1-.85.282.94.94 0 0 1-.63-.22 1.44 1.44 0 0 1-.394-.64c-.1-.313-.154-.64-.159-.968v-.875c-.005-.292 0-.6.01-.891m2.856.087v-1.69a1.6 1.6 0 0 0-.066-.42.66.66 0 0 0-.154-.276.38.38 0 0 0-.251-.102.7.7 0 0 0-.353.112q-.2.12-.353.297-.15.178-.251.39a2.697 2.697 0 0 0-.225.968v1.6840000000000002c-.007.254.073.502.225.706.133.143.333.138.604 0 .267-.155.477-.392.599-.676.14-.314.221-.65.241-.993zM103.162 93.163a.093.093 0 0 1-.123 0 .2.2 0 0 1-.051-.164v-6.487q0-.117.051-.22a.35.35 0 0 1 .123-.154l.855-.512a.09.09 0 0 1 .061-.025.1.1 0 0 1 .062.025.2.2 0 0 1 .056.159v6.482a.5.5 0 0 1-.056.22.32.32 0 0 1-.123.153zM106.152 87.08v1.69q.006.205.056.404a.6.6 0 0 0 .143.287.35.35 0 0 0 .251.112.65.65 0 0 0 .369-.117q.21-.114.369-.292c.17-.193.297-.42.373-.666q.048-.168.072-.307.025-.136.072-.266a.33.33 0 0 1 .153-.149l.85-.512a.08.08 0 0 1 .103 0 .2.2 0 0 1 .034.06q.01.033.007.068a4 4 0 0 1-.159 1.06 5.2 5.2 0 0 1-.43 1.024 5 5 0 0 1-.645.901c-.23.26-.5.48-.799.656-.25.16-.538.253-.835.266a.94.94 0 0 1-.629-.225 1.4 1.4 0 0 1-.405-.635 3.5 3.5 0 0 1-.159-.958v-1.787q.018-.576.159-1.136c.092-.38.226-.75.4-1.101.171-.341.382-.661.629-.952a3.2 3.2 0 0 1 .84-.697c.24-.153.515-.244.799-.266.225-.015.45.039.645.154.192.133.341.32.43.537.111.275.165.57.159.865a.4.4 0 0 1-.041.185.3.3 0 0 1-.103.123l-.85.512c-.076.04-.128.05-.153 0a.5.5 0 0 1-.072-.185 1 1 0 0 0-.072-.215.45.45 0 0 0-.143-.179.37.37 0 0 0-.23-.056.8.8 0 0 0-.369.128q-.213.121-.369.312-.155.181-.251.4a2 2 0 0 0-.143.45 3 3 0 0 0-.056.507M112.946 85.907a.107.107 0 0 1 .128 0 .23.23 0 0 1 .051.159v1.065a.54.54 0 0 1-.051.22.3.3 0 0 1-.128.154l-3.072 1.782a.093.093 0 0 1-.123 0 .2.2 0 0 1-.042-.077q-.013-.043-.009-.087v-6.477c0-.076.018-.152.051-.22a.35.35 0 0 1 .123-.154l3.036-1.751a.093.093 0 0 1 .123 0q.03.034.045.076.015.043.011.088v1.065a.5.5 0 0 1-.056.22.28.28 0 0 1-.123.148l-2.007 1.163v1.08l1.864-1.075q.077-.039.123 0a.2.2 0 0 1 .056.159v1.065a.5.5 0 0 1-.056.22.3.3 0 0 1-.123.153l-1.864 1.076v1.126z" style="fill:#455a64;fill:color(display-p3 .2706 .3529 .3922);fill-opacity:1"/><path fill="#F7921E" d="m86.614 105.906 45.972-26.542v1.06l-45.972 26.542z" style="fill:#f7921e;fill:color(display-p3 .9686 .5725 .1176);fill-opacity:1"/><path fill="#000" d="m86.614 105.906 45.972-26.542v1.06l-45.972 26.542z" opacity=".2" style="fill:#000;fill-opacity:1"/><path fill="#F7921E" d="m86.614 133.508 45.972-26.542v1.06l-45.972 26.542z" style="fill:#f7921e;fill:color(display-p3 .9686 .5725 .1176);fill-opacity:1"/><path fill="#000" d="m86.614 133.508 45.972-26.542v1.06l-45.972 26.542z" opacity=".2" style="fill:#000;fill-opacity:1"/><path fill="#F7921E" d="m86.614 109.091 16.548-9.56v2.126l-16.548 9.553zM106.843 97.412l7.352-4.25v2.125l-7.352 4.245zM116.033 92.103l7.358-4.25v2.125l-7.358 4.25zM125.229 86.793l7.357-4.244v2.12l-7.357 4.25z" style="fill:#f7921e;fill:color(display-p3 .9686 .5725 .1176);fill-opacity:1"/><path fill="#E6E6E6" d="m86.614 115.46 45.972-26.542v4.244l-45.972 26.543zM86.614 123.954l45.972-26.542v4.245l-45.972 26.542z" style="fill:#e6e6e6;fill:color(display-p3 .902 .902 .902);fill-opacity:1"/><path fill="#455A64" d="M88.452 112.613a.34.34 0 0 1-.32-.254.34.34 0 0 1 .151-.38l12.872-7.43a.34.34 0 0 1 .376.026.33.33 0 0 1 .129.225.33.33 0 0 1-.068.251.3.3 0 0 1-.099.087l-12.872 7.429a.33.33 0 0 1-.169.046M108.681 100.023a.246.246 0 0 1-.2-.112.2.2 0 0 1-.029-.084.2.2 0 0 1 .007-.089.225.225 0 0 1 .109-.135l5.515-3.184a.224.224 0 0 1 .307.082.22.22 0 0 1 .027.172.2.2 0 0 1-.04.079.2.2 0 0 1-.069.056l-5.514 3.185a.23.23 0 0 1-.113.03M108.681 101.544a.24.24 0 0 1-.2-.113.2.2 0 0 1-.029-.085.2.2 0 0 1 .007-.089.2.2 0 0 1 .041-.08.2.2 0 0 1 .068-.058l5.515-3.185a.224.224 0 0 1 .307.082.2.2 0 0 1 .032.084.23.23 0 0 1-.045.17.2.2 0 0 1-.069.059l-5.514 3.184a.24.24 0 0 1-.113.031M117.877 95.513a.224.224 0 0 1-.2-.113.226.226 0 0 1 .082-.307l5.519-3.195a.23.23 0 0 1 .171-.025.21.21 0 0 1 .136.107.226.226 0 0 1-.081.307l-5.515 3.195a.24.24 0 0 1-.112.03M127.067 90.203a.2.2 0 0 1-.113-.029.23.23 0 0 1-.104-.254.23.23 0 0 1 .104-.137l5.52-3.184a.22.22 0 0 1 .176-.033.226.226 0 0 1 .165.285.23.23 0 0 1-.116.137l-5.519 3.19a.2.2 0 0 1-.113.025M88.452 116.863a.34.34 0 0 1-.32-.255.34.34 0 0 1 .151-.38l9.216-5.309a.344.344 0 0 1 .46.123.33.33 0 0 1-.022.378.3.3 0 0 1-.1.088l-9.216 5.309a.33.33 0 0 1-.169.046M108.681 104.273a.24.24 0 0 1-.2-.113.231.231 0 0 1 .087-.312l5.515-3.185a.225.225 0 0 1 .307.082.2.2 0 0 1 .032.084.23.23 0 0 1-.045.171.2.2 0 0 1-.069.058l-5.514 3.184a.24.24 0 0 1-.113.031M108.681 105.788a.23.23 0 0 1-.114-.031.24.24 0 0 1-.086-.081.2.2 0 0 1-.029-.084.217.217 0 0 1 .116-.223l5.515-3.185a.2.2 0 0 1 .083-.03.2.2 0 0 1 .088.005.23.23 0 0 1 .136.107.223.223 0 0 1 .027.172.3.3 0 0 1-.04.079.2.2 0 0 1-.069.056l-5.514 3.185a.24.24 0 0 1-.113.03M117.877 99.762a.225.225 0 0 1-.223-.285.23.23 0 0 1 .105-.14l5.519-3.184a.226.226 0 0 1 .307.082.23.23 0 0 1-.082.312l-5.514 3.185a.23.23 0 0 1-.112.03M127.067 94.458a.23.23 0 0 1-.195-.113.231.231 0 0 1 .082-.312l5.52-3.185a.224.224 0 0 1 .307.082.23.23 0 0 1-.082.312l-5.519 3.185a.2.2 0 0 1-.113.03M88.452 121.107a.34.34 0 0 1-.32-.254.35.35 0 0 1 .151-.381l14.71-8.494a.344.344 0 0 1 .466.128.33.33 0 0 1 .031.257.35.35 0 0 1-.159.204l-14.71 8.515a.34.34 0 0 1-.169.025M108.681 108.517a.23.23 0 0 1-.114-.031.24.24 0 0 1-.086-.081.2.2 0 0 1-.029-.084.217.217 0 0 1 .116-.223l5.515-3.185a.225.225 0 0 1 .307.082.223.223 0 0 1 .027.172.3.3 0 0 1-.04.079.2.2 0 0 1-.069.056l-5.514 3.185a.24.24 0 0 1-.113.03M108.681 110.038a.24.24 0 0 1-.2-.113.2.2 0 0 1-.029-.085.2.2 0 0 1 .007-.089.2.2 0 0 1 .041-.08.2.2 0 0 1 .068-.058l5.515-3.185a.227.227 0 0 1 .331.257.23.23 0 0 1-.106.138l-5.514 3.184a.24.24 0 0 1-.113.031M117.877 104.007a.225.225 0 0 1-.118-.42l5.519-3.185a.222.222 0 0 1 .172-.027.2.2 0 0 1 .079.041.2.2 0 0 1 .056.068.226.226 0 0 1-.081.307l-5.515 3.185a.23.23 0 0 1-.112.031M127.067 98.697a.227.227 0 0 1-.217-.167.23.23 0 0 1 .104-.253l5.52-3.184a.22.22 0 0 1 .176-.032.23.23 0 0 1 .173.193q.004.046-.008.091a.23.23 0 0 1-.116.137l-5.519 3.184a.2.2 0 0 1-.113.031M88.452 125.357a.35.35 0 0 1-.32-.255.34.34 0 0 1 .151-.38l7.358-4.25a.34.34 0 0 1 .496.383.34.34 0 0 1-.159.206l-7.357 4.25a.33.33 0 0 1-.169.046M108.681 112.767a.24.24 0 0 1-.2-.113.2.2 0 0 1-.029-.085.2.2 0 0 1 .007-.089.2.2 0 0 1 .041-.08.2.2 0 0 1 .068-.058l5.515-3.184a.225.225 0 0 1 .307.081.222.222 0 0 1-.082.313l-5.514 3.184a.23.23 0 0 1-.113.031M108.681 114.283a.25.25 0 0 1-.114-.031.25.25 0 0 1-.086-.082.2.2 0 0 1-.029-.084.2.2 0 0 1 .007-.088.2.2 0 0 1 .041-.079.2.2 0 0 1 .068-.056l5.515-3.185a.2.2 0 0 1 .084-.034.232.232 0 0 1 .175.04.24.24 0 0 1 .09.155.23.23 0 0 1-.124.228l-5.514 3.185a.25.25 0 0 1-.113.031M117.877 108.282a.22.22 0 0 1-.2-.113.23.23 0 0 1 .082-.312l5.519-3.185a.226.226 0 0 1 .33.255.23.23 0 0 1-.105.139l-5.514 3.185a.23.23 0 0 1-.112.031M127.067 102.947a.2.2 0 0 1-.112-.031.225.225 0 0 1-.105-.255.23.23 0 0 1 .104-.139l5.52-3.185a.224.224 0 0 1 .307.082.23.23 0 0 1-.082.313l-5.519 3.184a.2.2 0 0 1-.113.031M88.452 129.601a.34.34 0 0 1-.32-.254.34.34 0 0 1 .151-.38l12.872-7.43a.34.34 0 0 1 .389.01.33.33 0 0 1 .134.232.342.342 0 0 1-.185.342l-12.872 7.434a.33.33 0 0 1-.169.046M108.681 117.011a.23.23 0 0 1-.114-.031.24.24 0 0 1-.086-.081.2.2 0 0 1-.029-.084.217.217 0 0 1 .048-.167.2.2 0 0 1 .068-.057l5.515-3.189a.218.218 0 0 1 .307.082.218.218 0 0 1-.013.251.2.2 0 0 1-.069.056l-5.514 3.195a.25.25 0 0 1-.113.025M108.681 118.522a.239.239 0 0 1-.229-.202.2.2 0 0 1 .007-.088.2.2 0 0 1 .041-.079.2.2 0 0 1 .068-.056l5.515-3.159a.225.225 0 0 1 .307.082.217.217 0 0 1-.013.251.2.2 0 0 1-.069.056l-5.514 3.195a.24.24 0 0 1-.113 0M117.877 112.501a.225.225 0 0 1-.118-.42l5.519-3.19a.223.223 0 0 1 .307.087.226.226 0 0 1-.081.307l-5.515 3.185a.23.23 0 0 1-.112.031M127.067 107.191a.22.22 0 0 1-.217-.167.23.23 0 0 1 .104-.253l5.52-3.184a.218.218 0 0 1 .307.082.22.22 0 0 1 .022.17.22.22 0 0 1-.104.137l-5.519 3.184a.2.2 0 0 1-.113.031M117.877 118.87a.225.225 0 0 1-.118-.42l5.519-3.184a.23.23 0 0 1 .176-.033q.046.01.083.039a.2.2 0 0 1 .061.068.2.2 0 0 1 .029.087.22.22 0 0 1-.052.171.2.2 0 0 1-.071.057l-5.515 3.184a.23.23 0 0 1-.112.031M127.067 113.56a.23.23 0 0 1-.137-.046.23.23 0 0 1-.08-.12.225.225 0 0 1 .104-.253l5.52-3.185a.2.2 0 0 1 .084-.034.232.232 0 0 1 .175.04.3.3 0 0 1 .061.068.3.3 0 0 1 .029.087.228.228 0 0 1-.124.228l-5.514 3.185a.23.23 0 0 1-.118.03M117.877 120.995a.225.225 0 0 1-.118-.42l5.519-3.19a.24.24 0 0 1 .173-.022.23.23 0 0 1 .159.279.23.23 0 0 1-.106.138l-5.515 3.184a.23.23 0 0 1-.112.031M127.067 115.685a.23.23 0 0 1-.137-.046.23.23 0 0 1-.08-.121.23.23 0 0 1 .104-.253l5.52-3.184a.2.2 0 0 1 .083-.03.219.219 0 0 1 .224.112.22.22 0 0 1 .022.17.22.22 0 0 1-.104.137l-5.514 3.185a.23.23 0 0 1-.118.03" style="fill:#455a64;fill:color(display-p3 .2706 .3529 .3922);fill-opacity:1"/><path fill="#F7921E" d="m132.586 114.4-29.424 16.983v6.37l29.424-16.983z" style="fill:#f7921e;fill:color(display-p3 .9686 .5725 .1176);fill-opacity:1"/><path fill="#FAFAFA" d="M108.676 129.704a.04.04 0 0 1 .031-.012q.017 0 .03.012a.1.1 0 0 1 0 .076v.512a.3.3 0 0 1 0 .108.1.1 0 0 1-.023.042.2.2 0 0 1-.038.03l-.553.322v2.483a.2.2 0 0 1 0 .103.2.2 0 0 1-.056.077l-.415.235-.014.01a.03.03 0 0 1-.017.004.04.04 0 0 1-.017-.004.03.03 0 0 1-.013-.01.1.1 0 0 1 0-.077v-2.483l-.559.323a.05.05 0 0 1-.028.009.05.05 0 0 1-.028-.009.1.1 0 0 1-.025-.077v-.512a.3.3 0 0 1 .025-.108.2.2 0 0 1 .056-.076zM108.937 130.81q.01-.283.077-.558a2.4 2.4 0 0 1 .491-.968q.176-.204.41-.338a.87.87 0 0 1 .41-.133.45.45 0 0 1 .302.108c.091.08.159.185.194.302q.074.23.077.471v.86a2.5 2.5 0 0 1-.271 1.065 2.3 2.3 0 0 1-.302.456 1.8 1.8 0 0 1-.41.338.9.9 0 0 1-.41.133.45.45 0 0 1-.302-.108.66.66 0 0 1-.189-.307 1.5 1.5 0 0 1-.077-.466v-.42c0-.148-.005-.287 0-.435m1.377.041v-.8140000000000001a1 1 0 0 0-.03-.205.4.4 0 0 0-.077-.133.16.16 0 0 0-.123-.046.3.3 0 0 0-.169.051.6.6 0 0 0-.169.143 1 1 0 0 0-.123.19 1 1 0 0 0-.072.22 1.3 1.3 0 0 0-.035.241v.8140000000000001a.58.58 0 0 0 .107.338c.067.071.164.066.292 0a.7.7 0 0 0 .292-.323c.062-.148.098-.306.107-.466zM112.844 127.298a.056.056 0 0 1 .061 0 .1.1 0 0 1 .026.076v.512a.3.3 0 0 1-.026.108.3.3 0 0 1-.061.077l-.553.317v2.483a.3.3 0 0 1-.026.108.15.15 0 0 1-.061.072l-.41.235h-.061a.1.1 0 0 1 0-.077v-2.483l-.553.318a.06.06 0 0 1-.062 0 .1.1 0 0 1 0-.077v-.512a.3.3 0 0 1 0-.108.2.2 0 0 1 .062-.071zM114.154 126.54a.1.1 0 0 1 .049-.016q.027 0 .049.016a.2.2 0 0 1 .046.082l.686 2.652a.4.4 0 0 1 0 .067.2.2 0 0 1 0 .087.14.14 0 0 1-.051.056l-.395.23q-.061.039-.092 0a.12.12 0 0 1-.031-.061l-.087-.348-.834.481-.092.451a.3.3 0 0 1-.031.102.23.23 0 0 1-.092.092l-.394.231a.04.04 0 0 1-.023.008.04.04 0 0 1-.024-.008.1.1 0 0 1 0-.062.3.3 0 0 1 0-.082l.687-3.446a.4.4 0 0 1 .046-.133.23.23 0 0 1 .092-.107zm-.512 2.411.512-.291-.256-1.024zM116.791 127.635l.013-.01.015-.003q.009 0 .016.003l.012.01a.1.1 0 0 1 .026.077v.512a.3.3 0 0 1-.026.108.14.14 0 0 1-.056.071l-1.459.871-.013.01-.015.003-.016-.003-.012-.01a.09.09 0 0 1-.026-.077v-3.123a.2.2 0 0 1 .026-.108.2.2 0 0 1 .056-.077l.415-.235a.04.04 0 0 1 .028-.011q.016 0 .028.011a.09.09 0 0 1 0 .077v2.483zM123.386 121.143a.5.5 0 0 1 .271 0q.113.023.195.102a.693.693 0 0 1 .169.405.24.24 0 0 1 0 .107.1.1 0 0 1-.024.042.1.1 0 0 1-.038.03l-.22.128h-.082a.2.2 0 0 1-.046-.056.28.28 0 0 0-.143-.128.4.4 0 0 0-.287.077.76.76 0 0 0-.282.266.8.8 0 0 0-.087.174.6.6 0 0 0-.031.184.3.3 0 0 0 .031.159.14.14 0 0 0 .113.056.6.6 0 0 0 .2 0l.291-.066q.16-.042.323-.036c.079.001.155.03.215.082a.4.4 0 0 1 .118.2q.039.163.036.332-.001.196-.047.384-.047.195-.138.374a1.8 1.8 0 0 1-.22.343 1.7 1.7 0 0 1-.292.292v.328a.2.2 0 0 1-.025.107.17.17 0 0 1-.057.072l-.256.148a.05.05 0 0 1-.03.011.05.05 0 0 1-.031-.011.1.1 0 0 1-.026-.076v-.328a.7.7 0 0 1-.266.036.4.4 0 0 1-.215-.072.43.43 0 0 1-.148-.179.7.7 0 0 1-.062-.302.2.2 0 0 1 0-.108.2.2 0 0 1 .062-.071l.22-.128c.036 0 .061-.026.082 0 .02.025.035.025.046.056a.5.5 0 0 0 .056.097q.03.046.082.062.066.015.133 0a.7.7 0 0 0 .2-.087q.098-.053.184-.123a.9.9 0 0 0 .261-.354.56.56 0 0 0 .033-.288.2.2 0 0 0-.038-.07.2.2 0 0 0-.063-.032.2.2 0 0 0-.07-.004.8.8 0 0 0-.22.036l-.307.061a.7.7 0 0 1-.272 0 .3.3 0 0 1-.194-.082.44.44 0 0 1-.118-.204 1.4 1.4 0 0 1-.036-.354q0-.192.046-.378.049-.19.133-.364.078-.177.2-.328.111-.147.251-.271v-.328a.3.3 0 0 1 .025-.107.15.15 0 0 1 .062-.072l.256-.148a.04.04 0 0 1 .028-.01q.016 0 .028.01.016.014.022.035a.1.1 0 0 1 .004.041zM125.572 119.884a.6.6 0 0 1 .271 0 .5.5 0 0 1 .195.102.5.5 0 0 1 .118.19q.046.105.046.22a.2.2 0 0 1 0 .107.2.2 0 0 1-.062.072l-.22.128c-.036 0-.061.026-.082 0a.14.14 0 0 1-.046-.056.24.24 0 0 0-.143-.128c-.067 0-.159 0-.287.071a.84.84 0 0 0-.282.272.6.6 0 0 0-.117.353.33.33 0 0 0 .03.164q.021.025.051.04t.062.016a.7.7 0 0 0 .2 0l.291-.066a.9.9 0 0 1 .318-.036.36.36 0 0 1 .215.076q.091.085.123.205.036.164.036.333 0 .193-.052.379a1.82 1.82 0 0 1-.645 1.009v.307a.25.25 0 0 1-.025.107.16.16 0 0 1-.062.077l-.251.143h-.061a.13.13 0 0 1 0-.081v-.328a.7.7 0 0 1-.266.041.418.418 0 0 1-.364-.256.7.7 0 0 1-.066-.297.2.2 0 0 1 .025-.108.1.1 0 0 1 .024-.042.1.1 0 0 1 .038-.029l.22-.128a.1.1 0 0 1 .082 0 .1.1 0 0 1 .029.026q.012.015.017.035a.4.4 0 0 0 .056.097q.034.042.082.062.067.015.133 0a.6.6 0 0 0 .2-.082q.098-.056.184-.128a.9.9 0 0 0 .261-.348.56.56 0 0 0 .034-.289.2.2 0 0 0-.039-.07.2.2 0 0 0-.062-.034q-.035-.01-.071-.007a2 2 0 0 0-.22.036l-.307.067a.9.9 0 0 1-.272 0 .36.36 0 0 1-.199-.082.45.45 0 0 1-.113-.21 1.3 1.3 0 0 1-.036-.353 1.5 1.5 0 0 1 .021-.379 1.8 1.8 0 0 1 .128-.364q.083-.173.199-.327.113-.15.256-.272v-.327a.3.3 0 0 1 0-.108.1.1 0 0 1 .024-.042.1.1 0 0 1 .038-.03l.251-.148h.061a.1.1 0 0 1 .026.077zM127.758 118.624a.5.5 0 0 1 .272 0q.111.025.194.103a.5.5 0 0 1 .118.184.8.8 0 0 1 .046.225.24.24 0 0 1-.021.099.24.24 0 0 1-.061.081l-.22.122c-.036.026-.067.026-.082 0a.1.1 0 0 1-.051-.056.251.251 0 0 0-.144-.128.4.4 0 0 0-.281.077.8.8 0 0 0-.159.118q-.07.069-.128.148a1 1 0 0 0-.087.174.6.6 0 0 0-.031.185q-.003.084.036.158a.13.13 0 0 0 .113.057.7.7 0 0 0 .2 0l.291-.072q.157-.042.318-.036a.37.37 0 0 1 .215.082.36.36 0 0 1 .118.205q.04.164.035.333 0 .191-.046.379a1.7 1.7 0 0 1-.138.373 1.6 1.6 0 0 1-.215.343 2 2 0 0 1-.292.292v.328a.3.3 0 0 1-.025.107.1.1 0 0 1-.024.042.1.1 0 0 1-.038.03l-.256.149a.041.041 0 0 1-.056 0 .1.1 0 0 1-.026-.077v-.328a.6.6 0 0 1-.266.036.43.43 0 0 1-.215-.067.45.45 0 0 1-.154-.184.8.8 0 0 1-.061-.302.2.2 0 0 1 .026-.108.16.16 0 0 1 .061-.071l.22-.128h.082a.13.13 0 0 1 .046.061 1 1 0 0 0 .051.092.16.16 0 0 0 .087.062q.067.02.134 0a.7.7 0 0 0 .199-.082l.185-.128a1.3 1.3 0 0 0 .153-.164q.061-.088.108-.184a.6.6 0 0 0 .041-.21.21.21 0 0 0-.046-.154.2.2 0 0 0-.063-.031.2.2 0 0 0-.071-.005 1 1 0 0 0-.22.036l-.307.062a1 1 0 0 1-.276.025.32.32 0 0 1-.195-.087.44.44 0 0 1-.113-.205 1.4 1.4 0 0 1-.041-.353q0-.192.052-.379a1.84 1.84 0 0 1 .583-.962v-.369a.3.3 0 0 1 .026-.108.2.2 0 0 1 .056-.071l.256-.149a.06.06 0 0 1 .031-.01q.017 0 .031.01a.1.1 0 0 1 .025.077zM129.944 117.359a.5.5 0 0 1 .267 0 .35.35 0 0 1 .194.103.46.46 0 0 1 .123.184.8.8 0 0 1 .046.22.2.2 0 0 1-.025.108.12.12 0 0 1-.062.071l-.22.128q-.056.031-.077 0a.13.13 0 0 1-.051-.056.24.24 0 0 0-.143-.128.354.354 0 0 0-.282.072 1 1 0 0 0-.159.118.9.9 0 0 0-.215.327.6.6 0 0 0-.03.179.28.28 0 0 0 .035.164q.02.028.05.043a.2.2 0 0 0 .063.014.6.6 0 0 0 .195 0l.297-.067a1 1 0 0 1 .317-.036.37.37 0 0 1 .215.077c.059.055.1.126.118.205q.04.164.036.333a1.7 1.7 0 0 1-.046.384 1.957 1.957 0 0 1-.354.716 1.7 1.7 0 0 1-.292.287v.333a.3.3 0 0 1-.025.107.3.3 0 0 1-.062.072l-.256.149a.05.05 0 0 1-.028.009.05.05 0 0 1-.028-.009.1.1 0 0 1-.022-.036.1.1 0 0 1-.004-.041v-.333a.65.65 0 0 1-.266.041.45.45 0 0 1-.22-.072.46.46 0 0 1-.148-.179.8.8 0 0 1-.062-.302.17.17 0 0 1 .026-.108.1.1 0 0 1 .023-.042.1.1 0 0 1 .038-.029l.22-.128a.1.1 0 0 1 .039-.011q.02 0 .038.011s.036 0 .051.056a.3.3 0 0 0 .052.097.15.15 0 0 0 .087.062q.066.015.133 0a.6.6 0 0 0 .199-.082q.097-.054.18-.128a1 1 0 0 0 .158-.159 1 1 0 0 0 .103-.189.5.5 0 0 0 .041-.21.23.23 0 0 0-.041-.149.2.2 0 0 0-.133-.041 2 2 0 0 0-.226.036q-.149.042-.302.067a1 1 0 0 1-.276 0 .33.33 0 0 1-.195-.082.4.4 0 0 1-.112-.21 1.3 1.3 0 0 1-.041-.353q0-.19.046-.374.05-.188.133-.364.083-.173.199-.327.114-.149.256-.272v-.327a.2.2 0 0 1 .026-.108.14.14 0 0 1 .056-.072l.256-.148a.05.05 0 0 1 .031-.012q.017 0 .031.012a.1.1 0 0 1 .025.077z" style="fill:#fafafa;fill:color(display-p3 .9804 .9804 .9804);fill-opacity:1"/><path fill="#455A64" d="M88.452 140.102a.2.2 0 0 1-.113-.028.2.2 0 0 1-.082-.084.226.226 0 0 1 .082-.307l11.034-6.37a.218.218 0 0 1 .171-.024.21.21 0 0 1 .136.106.226.226 0 0 1-.082.307l-11.033 6.375a.2.2 0 0 1-.113.025M88.452 142.228a.227.227 0 0 1-.207-.311.23.23 0 0 1 .094-.109l11.034-6.39a.2.2 0 0 1 .083-.032.22.22 0 0 1 .168.045.2.2 0 0 1 .056.069.224.224 0 0 1-.082.307l-11.034 6.369a.2.2 0 0 1-.112.052M88.452 144.352a.22.22 0 0 1-.195-.112.23.23 0 0 1 .082-.313l11.034-6.369a.226.226 0 0 1 .307.082.23.23 0 0 1-.082.312l-11.033 6.369a.2.2 0 0 1-.113.031M180.395 180.21c-.062 1.05-.18 2.002.251 3.149.619 1.648 1.873 2.386 2.616 3.026a12.7 12.7 0 0 1 2.171 2.524 10.8 10.8 0 0 0 2.268 2.719c.701.583 2.647.599 3.584.189s1.239-.773 1.152-2.273-4.639-1.915-4.639-1.915z" style="fill:#455a64;fill:color(display-p3 .2706 .3529 .3922);fill-opacity:1"/><path fill="#F7921E" d="M191.751 185.09c.389.138.512.875.589 2.345.066 1.106.568 2.724-.948 3.451-1.223.588-3.2.256-4.055-.774-1.07-1.285-1.792-2.421-3.307-3.983-1.316-1.357-2.668-1.797-3.297-4.546-.4-1.772-.128-2.514 1.059-3.072 1.629-.733 4.255 1.505 5.55 1.838 1.117.312 4.02 4.602 4.409 4.741" style="fill:#f7921e;fill:color(display-p3 .9686 .5725 .1176);fill-opacity:1"/><path fill="#000" d="M191.751 185.09c.389.138.512.875.589 2.345.066 1.106.568 2.724-.948 3.451-1.223.588-3.2.256-4.055-.774-1.07-1.285-1.792-2.421-3.307-3.983-1.316-1.357-2.668-1.797-3.297-4.546-.4-1.772-.128-2.514 1.059-3.072 1.629-.733 4.255 1.505 5.55 1.838 1.117.312 4.02 4.602 4.409 4.741" opacity=".4" style="fill:#000;fill-opacity:1"/><path fill="#FAFAFA" d="M187.342 180.374a1.5 1.5 0 0 1-.22-.072 4.24 4.24 0 0 0-3.512 2.407c-.21.486.476.85.87.466a4.51 4.51 0 0 1 3.508-2.391 1.9 1.9 0 0 0-.646-.41" style="fill:#fafafa;fill:color(display-p3 .9804 .9804 .9804);fill-opacity:1"/><path fill="#FAFAFA" d="M188.423 181.188a4.21 4.21 0 0 0-3.262 2.381c-.21.486.476.85.871.466a4.33 4.33 0 0 1 2.918-2.274 16 16 0 0 0-.527-.573" style="fill:#fafafa;fill:color(display-p3 .9804 .9804 .9804);fill-opacity:1"/><path fill="#455A64" d="M160.196 203.322c-.225 1.249.236 1.884 1.859 2.78s4.147 1.162 6.784.338 3.876-2.007 4.971-2.304 3.82-.374 4.9-.717 1.055-.896 1.024-2.201z" style="fill:#455a64;fill:color(display-p3 .2706 .3529 .3922);fill-opacity:1"/><path fill="#F7921E" d="M178.536 194.93q.504 1.44.855 2.924c.246 1.08.599 2.898.236 3.722-.364.824-1.844 1.387-4.153 1.413-1.49 0-3.799 1.08-5.376 2.002s-3.41.993-5.156.824c-2.048-.199-4.208-1.351-4.556-2.191-.349-.84-.446-1.48 4.347-3.635.046 0 5.57-2.187 7.859-4.818z" style="fill:#f7921e;fill:color(display-p3 .9686 .5725 .1176);fill-opacity:1"/><path fill="#000" d="M178.536 194.93q.504 1.44.855 2.924c.246 1.08.599 2.898.236 3.722-.364.824-1.844 1.387-4.153 1.413-1.49 0-3.799 1.08-5.376 2.002s-3.41.993-5.156.824c-2.048-.199-4.208-1.351-4.556-2.191-.349-.84-.446-1.48 4.347-3.635.046 0 5.57-2.187 7.859-4.818z" opacity=".4" style="fill:#000;fill-opacity:1"/><path fill="#FAFAFA" d="M169.448 205.324s-.512-4.147-3.896-5.263c-3.072-1.024-5.694 1.3-5.356 3.261.225 1.311 3.999 4.245 9.252 2.002M166.386 199.262a3.94 3.94 0 0 1 2.325.978c.993.799 1.024 1.346 1.024 1.346a.512.512 0 0 0 .87-.44s-.266-2.089-3.031-2.463a1.13 1.13 0 0 0-1.188.579M168.301 198.299c.864-.008 1.7.306 2.345.881.988.799 1.024 1.444 1.024 1.444a.51.51 0 0 0 .828-.123.5.5 0 0 0 .048-.318s-.272-2.089-3.037-2.462a1.123 1.123 0 0 0-1.208.578M170.19 197.168a3.47 3.47 0 0 1 2.402.717c1.024.732 1.106 1.372 1.106 1.372a.51.51 0 0 0 .612.059.515.515 0 0 0 .227-.571s-.414-2.048-3.195-2.253a1.13 1.13 0 0 0-1.152.676" style="fill:#fafafa;fill:color(display-p3 .9804 .9804 .9804);fill-opacity:1"/><path fill="#FFA8A7" d="m191.7 182.719.056 2.816s-1.843 1.475-4.547.215c-.082-.174-.368-2.933-.368-2.933zM178.5 192.984s0 1.337.041 2.1c.041.762-.855 1.92-3.195 1.884-1.638 0-2.795-.446-2.754-1.797l-.041-1.946z" style="fill:#ffa8a7;fill:color(display-p3 1 .6588 .6549);fill-opacity:1"/><path fill="#455A64" d="M194.259 158.757c-.271-5.939-1.536-8.519-1.536-8.519s.308-7.347 1.117-16.354c1.228-13.706.143-15.738-2.678-21.836 0 0-22.728-2.478-23.24 7.106-.635 11.93-.742 34.698-.338 38.912.405 4.214.681 5.832 1.874 14.336.942 6.723 3.103 20.839 3.103 20.839 3.072 1.592 5.949-.241 5.949-.241s1.434-22.303 1.142-27.136c-.363-5.924-.727-7.429-.727-7.429s2.304-19.251 2.662-22.349c0 0 .482 5.525.886 9.728.405 4.204.441 7.598 1.5 16.287.835 6.814 2.816 21.504 2.816 21.504a5.638 5.638 0 0 0 5.013-.471s2.673-19.574 2.457-24.377" style="fill:#455a64;fill:color(display-p3 .2706 .3529 .3922);fill-opacity:1"/><path fill="#FAFAFA" d="M181.531 183.61s.062-3.292 4.496-3.84l.261.143a3.85 3.85 0 0 0-2.222-1.643c-1.485-.374-2.647.035-3.4 1.049s.082 3.666.865 4.291" style="fill:#fafafa;fill:color(display-p3 .9804 .9804 .9804);fill-opacity:1"/><path fill="#37474F" d="m181.577 136.05.287-3.937a32.2 32.2 0 0 0 7.025-3.528 9.48 9.48 0 0 1-5.632 4.296l-.707 3.861-.087 9.011z" style="fill:#37474f;fill:color(display-p3 .2157 .2784 .3098);fill-opacity:1"/><path fill="#FFA8A7" d="m212.948 160.375-7.005 20.429a.654.654 0 0 1-1.244 0l-6.907-20.593z" style="fill:#ffa8a7;fill:color(display-p3 1 .6588 .6549);fill-opacity:1"/><path fill="#263238" d="M204.715 180.799a.65.65 0 0 0 .622.449.65.65 0 0 0 .622-.449l1.367-3.989a3.63 3.63 0 0 1-3.784-.209l-.302-.21z" style="fill:#263238;fill:color(display-p3 .149 .1961 .2196);fill-opacity:1"/><path fill="#F7921E" d="M198.059 69.117v4.408l-.246 86.682c1.602 1.833 3.978 2.759 6.385 3.005 3.665.379 7.424-.819 8.765-2.836l.246-86.63v-4.609c-.19 2.985-15.289 2.975-15.15-.02" style="fill:#f7921e;fill:color(display-p3 .9686 .5725 .1176);fill-opacity:1"/><path fill="#000" d="M198.059 69.117v4.408l-.246 86.682c1.602 1.833 3.978 2.759 6.385 3.005 3.665.379 7.424-.819 8.765-2.836l.246-86.63v-4.609c-.19 2.985-15.289 2.975-15.15-.02" opacity=".25" style="fill:#000;fill-opacity:1"/><path fill="#EBEBEB" d="M198.007 76.725v4.464c-.046 1.296 2.709 2.13 5.894 2.422 4.224.4 9.216-.748 9.256-2.458v-4.469c-.061 1.715-5.038 2.862-9.262 2.462-3.046-.281-5.719-1.075-5.867-2.283a.4.4 0 0 1-.021-.138" style="fill:#ebebeb;fill:color(display-p3 .9216 .9216 .9216);fill-opacity:1"/><path fill="#F7921E" d="M198.018 77.841c-.108 3 15.037 2.965 15.145-.04v-4.466c-.108 3-15.253 3.042-15.145.036z" style="fill:#f7921e;fill:color(display-p3 .9686 .5725 .1176);fill-opacity:1"/><path fill="#EBEBEB" d="M198.059 69.117v4.408c-.128 2.95 14.489 3.036 15.15.22a1 1 0 0 0 0-.169v-4.439c-.19 2.985-15.289 2.975-15.15-.02" style="fill:#ebebeb;fill:color(display-p3 .9216 .9216 .9216);fill-opacity:1"/><path fill="#F28F8F" d="M213.265 50.219v-.21c0-2.15-3.389-3.897-7.572-3.897-4.184 0-7.573 1.746-7.573 3.897v2.048l-.061 17.06c-.057 1.28 2.667 2.124 5.821 2.432 4.229.41 9.216-.702 9.318-2.412l.067-18.78z" style="fill:#f28f8f;fill:color(display-p3 .949 .5608 .5608);fill-opacity:1"/><path fill="#fff" d="M205.692 53.926c4.183 0 7.573-1.745 7.573-3.897s-3.39-3.896-7.573-3.896-7.572 1.744-7.572 3.896 3.39 3.896 7.572 3.896" opacity=".2" style="fill:#fff;fill-opacity:1"/><path fill="#000" d="m213.183 73.745.082-23.552c-.102 1.843-3.241 3.584-6.656 3.707l-.241 109.353-.409 17.525 7.004-20.428z" opacity=".1" style="fill:#000;fill-opacity:1"/><path fill="#FFA8A7" d="M188.295 84.051c2.877-.414 5.821.85 8.289 4.322s11.151 11.776 12.094 14.484c.691 1.961.962 7.399-3.072 5.668-3.928-1.669-17.408-15.176-17.408-15.176z" style="fill:#ffa8a7;fill:color(display-p3 1 .6588 .6549);fill-opacity:1"/><path fill="#E0E0E0" d="M188.157 83.8a7.68 7.68 0 0 1 5.196.984c1.214.824 3.584 3.584 6.344 6.656a62 62 0 0 1 4.07 4.997 8.7 8.7 0 0 1-5.263 7.224l-10.752-9.052z" style="fill:#e0e0e0;fill:color(display-p3 .8784 .8784 .8784);fill-opacity:1"/><path fill="#FFA8A7" d="m206.036 99.827 7.075-6.35V86.74s1.393.47 1.946 2.636 1.244 4.7.968 6.549c-.277 1.848-6.119 12.155-8.377 12.867-2.693.855-1.612-8.966-1.612-8.966M176.887 80.529l.978 8.668 8.059-1.833-1.044-11.566z" style="fill:#ffa8a7;fill:color(display-p3 1 .6588 .6549);fill-opacity:1"/><path fill="#F0F0F0" d="M194.28 88.337c-.445-2.422-3.63-4.972-6.615-4.485-.696.112-1.372.225-2.048.343-.358 1.454-4.352 2.365-8.192 1.47-1.147.301-4.936 1.023-5.893 1.325-2.744.912-3.876 3.615-4.301 12.56 0 0 .22 20.254.113 24.289 6.768 2.857 13.88 2.934 17.828 2.166 8.192-1.603 9.277-4.972 9.277-4.972l-1.224-9.267s2.053-17.94 1.055-23.43" style="fill:#f0f0f0;fill:color(display-p3 .9412 .9412 .9412);fill-opacity:1"/><path fill="#E0E0E0" d="M177.21 83.386c1.665.48 3.422.55 5.12.205 2.657-.594 3.19-1.024 3.19-1.024l-.057-.62s.43-.025 1.024.773c.594.8.85 1.163.85 1.163s-.158 1.94-3.287 2.887a9.65 9.65 0 0 1-7.782-.85l-1.224.262s1.06-2.443 1.383-2.94a.8.8 0 0 1 .762-.424z" style="fill:#e0e0e0;fill:color(display-p3 .8784 .8784 .8784);fill-opacity:1"/><path fill="#F28F8F" d="M171.122 69.92s-2.048 3.103-1.807 3.405 1.736.579 1.736.579z" style="fill:#f28f8f;fill:color(display-p3 .949 .5608 .5608);fill-opacity:1"/><path fill="#263238" d="M172.08 71.912a2.439 2.439 0 0 1-1.741-4.153 2.437 2.437 0 1 1 1.741 4.153m0-4.327a1.895 1.895 0 1 0 .04 3.79 1.895 1.895 0 0 0-.04-3.79" style="fill:#263238;fill:color(display-p3 .149 .1961 .2196);fill-opacity:1"/><path fill="#FFA8A7" d="M176.795 61.344c-4.132.876-5.325 2.693-5.714 9.257-.409 6.866.292 9.022 1.193 9.948.61.62 3.989.733 5.699.267 2.135-.594 6.958-2.304 9.216-5.755 2.657-4.06 3.353-9.564.512-11.822-3.978-3.18-9.221-2.248-10.906-1.895" style="fill:#ffa8a7;fill:color(display-p3 1 .6588 .6549);fill-opacity:1"/><path fill="#F28F8F" d="m176.944 81.005-.195-1.265a8.2 8.2 0 0 1-4.239.988c.788.364 2.846.477 4.434.277" style="fill:#f28f8f;fill:color(display-p3 .949 .5608 .5608);fill-opacity:1"/><path fill="#263238" d="m169.873 68.968 7.352.952-.297.517-7.055-.916z" style="fill:#263238;fill:color(display-p3 .149 .1961 .2196);fill-opacity:1"/><path fill="#263238" d="M170.375 64.002c.311.05.63.03.932-.062a1.47 1.47 0 0 0 .512 1.725 2.09 2.09 0 0 0 1.853.247c-.225.384-.298.839-.205 1.274a2.08 2.08 0 0 0 2.14 1.536c.046.963.057 1.9 1.086 2.34 0 0 .65-2.56 2.79-2.217s2.442 3.072 1.086 4.731c-1.357 1.66-2.601 1.024-2.622 1.024.055.419.169.827.338 1.214a5 5 0 0 0 1.807 1.991 9.73 9.73 0 0 0 5.167 1.388c.67-1.936 1.771-3.405 2.938-5.12.922-1.331 2.089-2.847 2.56-4.398a8.7 8.7 0 0 0 .052-5.171c-.512-1.536-1.106-2.704-2.781-3.119-.378-2.047-2.432-3.138-4.295-4.096a6.95 6.95 0 0 0-6.057-.05c-.686-.728-1.229-1.603-2.186-2.049a2 2 0 0 0-2.345.42 2.98 2.98 0 0 0-.374 1.971 4.6 4.6 0 0 0-2.355.205 2.45 2.45 0 0 0-1.536 1.715 1.686 1.686 0 0 0 1.054 1.91 1.47 1.47 0 0 0-.512 1.67 1.254 1.254 0 0 0 .953.922" style="fill:#263238;fill:color(display-p3 .149 .1961 .2196);fill-opacity:1"/><path fill="#263238" d="m176.642 72.537.076-2.868a1.43 1.43 0 0 0-1.348.85 1.443 1.443 0 0 0 .269 1.57 1.44 1.44 0 0 0 1.003.448M149.823 101.669l17.167 9.216.282.441v.358a.511.511 0 0 1-.282.44l-12.8 7.368a1 1 0 0 1-.937 0l-16.86-9.728v-.363z" style="fill:#263238;fill:color(display-p3 .149 .1961 .2196);fill-opacity:1"/><path fill="#455A64" d="M153.725 119.262a1 1 0 0 0 .465-.118l12.8-7.368a.51.51 0 0 0 .282-.445.511.511 0 0 0-.282-.44l-16.547-9.57-14.05 8.08 16.86 9.728a1 1 0 0 0 .472.133" style="fill:#455a64;fill:color(display-p3 .2706 .3529 .3922);fill-opacity:1"/><path fill="#F0F0F0" d="m150.443 100.271 16.384 9.483.133.189v1.388a.23.23 0 0 1-.043.109.23.23 0 0 1-.09.075l-12.8 7.368a.68.68 0 0 1-.64 0l-16.4-9.483v-1.387z" style="fill:#f0f0f0;fill:color(display-p3 .9412 .9412 .9412);fill-opacity:1"/><path fill="#EBEBEB" d="m136.987 108.013.159.092 2.109 1.219.395.225 13.752 7.946a.7.7 0 0 0 .64 0l12.8-7.368a.199.199 0 0 0 .129-.186.2.2 0 0 0-.129-.187l-.174-.098-16.225-9.385-13.312 7.645-.041.025z" style="fill:#ebebeb;fill:color(display-p3 .9216 .9216 .9216);fill-opacity:1"/><path fill="#E0E0E0" d="M153.724 117.592v1.393a.6.6 0 0 0 .318-.082l12.8-7.368a.228.228 0 0 0 .133-.184v-1.393a.23.23 0 0 1-.133.19l-12.8 7.368a.65.65 0 0 1-.318.076" style="fill:#e0e0e0;fill:color(display-p3 .8784 .8784 .8784);fill-opacity:1"/><path fill="#FAFAFA" d="m136.987 107.823 2.33 1.347.368.215 13.717 7.926a.71.71 0 0 0 .64 0l10.911-6.282.409-.231a4 4 0 0 0 1.306-1.142l.031-.051a.3.3 0 0 0 .04-.092.288.288 0 0 0-.225-.328 6 6 0 0 1-1.218-.512l-14.848-8.581z" style="fill:#fafafa;fill:color(display-p3 .9804 .9804 .9804);fill-opacity:1"/><path fill="#E0E0E0" d="m142.338 108.54 9.098-5.253a.43.43 0 0 1 .404 0 .12.12 0 0 1 .08.115.12.12 0 0 1-.08.116l-9.077 5.273a.46.46 0 0 1-.405 0c-.107-.082-.107-.184-.02-.251M143.229 109.047l9.103-5.253a.43.43 0 0 1 .404 0 .12.12 0 0 1 .058.045.12.12 0 0 1 .022.07q0 .039-.022.07a.1.1 0 0 1-.058.045l-9.077 5.274a.48.48 0 0 1-.405 0c-.138-.082-.138-.184-.025-.251M144.125 109.554l9.098-5.273a.43.43 0 0 1 .404 0c.113.066.113.169 0 .235l-9.103 5.253a.43.43 0 0 1-.405 0c-.107-.046-.107-.148.006-.215M150.473 113.246l9.099-5.253a.44.44 0 0 1 .409 0c.113.066.113.169 0 .235l-9.078 5.269a.44.44 0 0 1-.409 0c-.133-.082-.133-.19-.021-.251M156.785 109.304a1.357 1.357 0 0 1-.834.187.9.9 0 0 1-.321-.094q-.025-.01-.022-.027.002-.018.024-.031l.23-.132a.2.2 0 0 1 .057-.018.2.2 0 0 1 .066.004.694.694 0 0 0 .365.009.6.6 0 0 0 .151-.061.35.35 0 0 0 .126-.112.14.14 0 0 0 .01-.131q-.027-.066-.131-.126a.6.6 0 0 0-.2-.067.7.7 0 0 0-.424.08.3.3 0 0 0-.097.075.2.2 0 0 0-.037.067l-.015.053q-.004.024-.034.04l-.227.131a.1.1 0 0 1-.054.014.1.1 0 0 1-.055-.014l-.757-.535q-.03-.02-.027-.041t.029-.037l.928-.533a.1.1 0 0 1 .059-.014q.035 0 .06.014l.165.095q.024.014.025.034 0 .02-.025.034l-.713.41.362.254a.4.4 0 0 1 .062-.101.7.7 0 0 1 .178-.133q.119-.069.264-.107a1.3 1.3 0 0 1 .609-.021 1 1 0 0 1 .282.105q.18.103.229.228a.28.28 0 0 1-.027.254.76.76 0 0 1-.281.247m2.793 1.353a.1.1 0 0 1-.059.014.1.1 0 0 1-.059-.014l-.316-.182-.782.45a.13.13 0 0 1-.119 0l-.168-.097-.029-.022a.06.06 0 0 1-.017-.036l-.282-.998q-.01-.042.05-.077l.269-.154a.1.1 0 0 1 .059-.014.1.1 0 0 1 .059.014l1.002.575.219-.126a.1.1 0 0 1 .062-.015.1.1 0 0 1 .059.014l.173.099q.025.015.025.034t-.025.034l-.222.128.316.181q.025.015.025.034t-.025.034zm-1.214-.057.506-.291-.713-.409zm3.815 1.552a.1.1 0 0 1-.059.014.1.1 0 0 1-.059-.014l-.316-.182-.782.45a.13.13 0 0 1-.119 0l-.168-.097-.029-.022a.07.07 0 0 1-.017-.036l-.282-.998q-.01-.043.05-.077l.269-.154a.1.1 0 0 1 .059-.015.1.1 0 0 1 .059.015l1.002.575.22-.126a.1.1 0 0 1 .061-.015.1.1 0 0 1 .059.014l.173.099q.025.014.025.034t-.025.034l-.222.128.316.181q.025.015.025.034t-.025.034zm-1.214-.057.506-.291-.713-.41z" style="fill:#e0e0e0;fill:color(display-p3 .8784 .8784 .8784);fill-opacity:1"/><path fill="#E0E0E0" d="M154.78 108.667a.1.1 0 0 1-.059.014.1.1 0 0 1-.059-.014l-.126-.073a.2.2 0 0 1-.042-.035q-.02-.025-.012-.067l.002-.446q.035-.168.044-.276a.4.4 0 0 0-.019-.178.24.24 0 0 0-.104-.114.5.5 0 0 0-.242-.068.47.47 0 0 0-.259.07q-.086.05-.108.105a.12.12 0 0 0 0 .107.3.3 0 0 0 .086.101q.027.021.017.041a.07.07 0 0 1-.032.033l-.219.126a.1.1 0 0 1-.052.013.1.1 0 0 1-.05-.011.5.5 0 0 1-.16-.144.28.28 0 0 1-.057-.171.33.33 0 0 1 .072-.186.7.7 0 0 1 .214-.177q.205-.118.408-.155.204-.038.389-.008a.9.9 0 0 1 .336.113.5.5 0 0 1 .17.149.4.4 0 0 1 .06.181 1 1 0 0 1-.02.222l.005.405.703-.404a.1.1 0 0 1 .059-.014.1.1 0 0 1 .059.014l.176.101q.024.014.024.034.003.018-.024.034zm3.114 1.2a.12.12 0 0 1-.118 0l-1.278-.735-.087.382a.05.05 0 0 1-.032.032.2.2 0 0 1-.066.007l-.237-.017a.1.1 0 0 1-.059-.02q-.02-.017-.013-.038l.126-.563a.04.04 0 0 1 .015-.025.1.1 0 0 1 .03-.02l.217-.125a.1.1 0 0 1 .059-.014.1.1 0 0 1 .059.014l1.609.925q.024.013.025.034 0 .02-.025.034zm2.73 1.449a1.42 1.42 0 0 1-.898.176 1.1 1.1 0 0 1-.393-.129.6.6 0 0 1-.212-.204 1 1 0 0 1-.052-.101.4.4 0 0 1-.024-.079l-.168-.616a.1.1 0 0 1 0-.034q0-.022.034-.042l.23-.132a.1.1 0 0 1 .054-.012q.03 0 .052.013l.015.014a.02.02 0 0 1 .005.012l.133.473a.633.633 0 0 1 .094-.068q.126-.07.283-.106a1.4 1.4 0 0 1 .635-.01 1 1 0 0 1 .281.105.5.5 0 0 1 .222.221.29.29 0 0 1-.012.262q-.067.135-.279.257m-.286-.162a.33.33 0 0 0 .125-.114.15.15 0 0 0 .015-.134q-.024-.067-.131-.129a.6.6 0 0 0-.222-.074.75.75 0 0 0-.431.081.35.35 0 0 0-.129.117.15.15 0 0 0-.012.131q.024.069.128.128a.6.6 0 0 0 .225.075.7.7 0 0 0 .229-.007.7.7 0 0 0 .203-.074" style="fill:#e0e0e0;fill:color(display-p3 .8784 .8784 .8784);fill-opacity:1"/><path fill="#E0E0E0" d="M153.528 107.736a.1.1 0 0 1-.052.013.1.1 0 0 1-.054-.014l-.017-.013-.005-.011-.139-.497a.4.4 0 0 1-.093.065 1.1 1.1 0 0 1-.279.107 1.6 1.6 0 0 1-.311.037 1.5 1.5 0 0 1-.306-.032 1 1 0 0 1-.269-.103.6.6 0 0 1-.175-.149.32.32 0 0 1-.072-.183.32.32 0 0 1 .072-.197.8.8 0 0 1 .242-.199 1.37 1.37 0 0 1 .994-.151q.15.035.269.103a.6.6 0 0 1 .163.134.5.5 0 0 1 .081.146q.025.07.047.14l.168.596q.003.012.002.035 0 .02-.037.041zm-.543-.652a.3.3 0 0 0 .123-.114.14.14 0 0 0 .008-.129q-.027-.066-.124-.122a.648.648 0 0 0-.436-.066.6.6 0 0 0-.2.069.3.3 0 0 0-.124.116.14.14 0 0 0-.007.129q.027.064.126.121a.6.6 0 0 0 .21.072q.113.014.224-.004a.6.6 0 0 0 .2-.072m3.472 1.99a1.4 1.4 0 0 1-.427.165q-.217.043-.407.022a.9.9 0 0 1-.321-.094q-.024-.01-.022-.027t.025-.031l.229-.132a.2.2 0 0 1 .057-.018.14.14 0 0 1 .067.004.656.656 0 0 0 .515-.053.33.33 0 0 0 .126-.112.14.14 0 0 0 .01-.13q-.027-.067-.131-.126a.5.5 0 0 0-.2-.067.7.7 0 0 0-.424.079.3.3 0 0 0-.096.076.2.2 0 0 0-.037.066l-.015.054q-.005.023-.035.04l-.227.13a.1.1 0 0 1-.054.015.1.1 0 0 1-.054-.015l-.758-.534q-.03-.02-.027-.041t.03-.037l.928-.534a.1.1 0 0 1 .059-.014.1.1 0 0 1 .059.014l.165.096q.025.013.025.034 0 .02-.025.034l-.713.409.363.254a.3.3 0 0 1 .062-.1.6.6 0 0 1 .177-.134q.119-.068.264-.106a1.3 1.3 0 0 1 .61-.021.9.9 0 0 1 .281.105q.18.103.23.228a.28.28 0 0 1-.028.254.75.75 0 0 1-.281.247m2.794 1.353a.13.13 0 0 1-.06.014.1.1 0 0 1-.059-.014l-.316-.182-.782.45a.126.126 0 0 1-.118 0l-.168-.097a.1.1 0 0 1-.03-.023.1.1 0 0 1-.017-.035l-.281-.998q-.01-.043.049-.077l.269-.155a.1.1 0 0 1 .059-.014.1.1 0 0 1 .059.014l1.002.576.22-.126a.1.1 0 0 1 .062-.016.1.1 0 0 1 .059.015l.173.099q.024.014.024.034t-.024.034l-.222.128.315.181q.025.015.025.034t-.025.034zm-1.214-.057.505-.291-.713-.41zM153.504 108.815a.1.1 0 0 1-.059.014.1.1 0 0 1-.059-.014l-.481-.276-.474.272a.1.1 0 0 1-.059.014.1.1 0 0 1-.059-.014l-.131-.075q-.028-.016-.025-.034 0-.02.025-.034l.474-.273-.469-.269q-.025-.014-.025-.034t.025-.034l.143-.082a.1.1 0 0 1 .059-.014.1.1 0 0 1 .059.014l.469.269.474-.272a.1.1 0 0 1 .059-.014.1.1 0 0 1 .059.014l.131.075q.025.014.025.034t-.025.034l-.474.272.481.277q.025.014.025.034.003.018-.025.034zM152.048 112.011a.1.1 0 0 1-.052.013.1.1 0 0 1-.054-.014l-.017-.013-.005-.012-.138-.496a.4.4 0 0 1-.094.065 1.1 1.1 0 0 1-.279.107 1.6 1.6 0 0 1-.311.037 1.5 1.5 0 0 1-.306-.032 1 1 0 0 1-.269-.103.6.6 0 0 1-.175-.149.33.33 0 0 1-.072-.183.32.32 0 0 1 .072-.197.8.8 0 0 1 .242-.199 1.38 1.38 0 0 1 .994-.151q.151.035.269.103a.504.504 0 0 1 .245.28q.024.07.046.14l.168.596q.003.012.003.035 0 .02-.037.041zm-.543-.652a.3.3 0 0 0 .124-.114.14.14 0 0 0 .007-.129.27.27 0 0 0-.123-.122.648.648 0 0 0-.437-.066.6.6 0 0 0-.2.069.3.3 0 0 0-.123.116.14.14 0 0 0-.008.129q.027.064.126.121a.6.6 0 0 0 .21.072q.114.015.224-.004a.6.6 0 0 0 .2-.072m3.374 2.015a.13.13 0 0 1-.062.016.14.14 0 0 1-.057-.016l-1.278-.735-.086.382a.06.06 0 0 1-.032.032.2.2 0 0 1-.067.008l-.237-.017a.13.13 0 0 1-.059-.02q-.02-.017-.012-.039l.125-.563a.04.04 0 0 1 .015-.025l.03-.02.217-.125a.1.1 0 0 1 .059-.014.1.1 0 0 1 .059.014l1.609.925q.025.014.025.034t-.025.034zm2.892 1.327a.1.1 0 0 1-.059.015.1.1 0 0 1-.06-.015l-.315-.181-.783.45a.12.12 0 0 1-.118 0l-.168-.097a.1.1 0 0 1-.029-.023.1.1 0 0 1-.018-.035l-.281-.998q-.01-.043.049-.077l.269-.155a.1.1 0 0 1 .059-.014q.035 0 .06.014l1.002.576.219-.126a.1.1 0 0 1 .062-.016.1.1 0 0 1 .059.015l.173.099q.024.014.025.034 0 .02-.025.034l-.222.127.316.182q.024.014.024.034t-.024.034zm-1.214-.056.506-.291-.713-.41z" style="fill:#e0e0e0;fill:color(display-p3 .8784 .8784 .8784);fill-opacity:1"/><path fill="#E0E0E0" d="M150.758 111.021a1.55 1.55 0 0 1-.659.206q-.15.007-.271-.015a.7.7 0 0 1-.205-.066q-.022-.013-.02-.029.003-.018.025-.031l.222-.128a.2.2 0 0 1 .052-.018.2.2 0 0 1 .069.006.5.5 0 0 0 .178.02.74.74 0 0 0 .33-.108q.148-.085.166-.175.016-.092-.114-.167a.44.44 0 0 0-.269-.061.7.7 0 0 0-.286.096l-.254.147a.14.14 0 0 1-.06.017.1.1 0 0 1-.061-.016l-.104-.06a.1.1 0 0 1-.032-.029.1.1 0 0 1-.007-.033l.009-.502-.705.406a.13.13 0 0 1-.119 0l-.163-.094q-.027-.016-.029-.034 0-.02.027-.036l1.059-.608a.127.127 0 0 1 .123 0l.148.085a.1.1 0 0 1 .03.028.1.1 0 0 1 .007.03l.012.498.032-.016a1.4 1.4 0 0 1 .336-.113 1 1 0 0 1 .343-.013.9.9 0 0 1 .333.115q.168.097.2.217.032.118-.057.243a.9.9 0 0 1-.286.238m2.591 1.503a1.4 1.4 0 0 1-.427.166q-.216.043-.407.021a.9.9 0 0 1-.321-.093q-.024-.012-.022-.027.003-.019.025-.031l.229-.132a.13.13 0 0 1 .057-.019.2.2 0 0 1 .067.005.7.7 0 0 0 .365.008.6.6 0 0 0 .15-.061.33.33 0 0 0 .126-.112.14.14 0 0 0 .01-.13q-.027-.067-.131-.127a.5.5 0 0 0-.199-.066.7.7 0 0 0-.22.007.6.6 0 0 0-.205.072.4.4 0 0 0-.096.075.2.2 0 0 0-.037.067l-.015.054q-.005.022-.035.04l-.227.13a.1.1 0 0 1-.054.014.1.1 0 0 1-.054-.014l-.758-.535q-.028-.02-.027-.041.003-.02.03-.037l.928-.533a.1.1 0 0 1 .059-.014.1.1 0 0 1 .059.014l.165.095q.025.015.025.034t-.025.034l-.713.41.363.254a.4.4 0 0 1 .062-.101.7.7 0 0 1 .177-.133q.119-.068.264-.106a1.3 1.3 0 0 1 .61-.022q.15.03.281.105.18.103.23.229a.28.28 0 0 1-.027.253.75.75 0 0 1-.282.247m2.631 1.475a1.4 1.4 0 0 1-.898.176 1.1 1.1 0 0 1-.393-.129.6.6 0 0 1-.212-.204 1 1 0 0 1-.052-.101.4.4 0 0 1-.024-.079l-.168-.616a.1.1 0 0 1 0-.034q0-.023.034-.042l.23-.132a.1.1 0 0 1 .054-.012q.03 0 .052.013.01.006.015.014a.02.02 0 0 1 .005.012l.133.473a.2.2 0 0 1 .042-.035l.052-.033q.126-.07.283-.106a1.4 1.4 0 0 1 .635-.01 1 1 0 0 1 .281.105.5.5 0 0 1 .222.221.3.3 0 0 1-.012.263q-.067.134-.279.256m-.286-.161a.34.34 0 0 0 .126-.115.15.15 0 0 0 .014-.134q-.024-.067-.13-.129a.6.6 0 0 0-.223-.073.72.72 0 0 0-.431.08.35.35 0 0 0-.129.117.15.15 0 0 0-.012.132q.024.068.128.127a.6.6 0 0 0 .225.075.73.73 0 0 0 .432-.08" style="fill:#e0e0e0;fill:color(display-p3 .8784 .8784 .8784);fill-opacity:1"/><path fill="#E0E0E0" d="M148.966 110.373a.11.11 0 0 1-.123-.014l-.005-.012-.139-.496a.4.4 0 0 1-.093.065 1.1 1.1 0 0 1-.279.107 1.47 1.47 0 0 1-.617.005 1 1 0 0 1-.269-.103.6.6 0 0 1-.175-.149.32.32 0 0 1-.072-.183.3.3 0 0 1 .072-.197.8.8 0 0 1 .242-.199 1.37 1.37 0 0 1 .994-.152q.15.036.269.104a.6.6 0 0 1 .163.133.5.5 0 0 1 .081.146l.047.141.168.595q.003.014.002.036 0 .02-.037.041zm-.543-.653a.3.3 0 0 0 .123-.113.14.14 0 0 0 .008-.129q-.027-.066-.124-.122a.674.674 0 0 0-.636.003.3.3 0 0 0-.124.116.14.14 0 0 0-.007.129q.027.064.126.121a.6.6 0 0 0 .21.072q.113.014.224-.004a.6.6 0 0 0 .2-.073m3.524 1.958a1.6 1.6 0 0 1-.331.144 1.4 1.4 0 0 1-.328.061 1.2 1.2 0 0 1-.301-.02.9.9 0 0 1-.259-.097q-.143-.083-.178-.182a.24.24 0 0 1 .022-.2 1 1 0 0 1-.288-.001.8.8 0 0 1-.257-.091q-.142-.082-.178-.184-.034-.106.042-.22a.8.8 0 0 1 .279-.231q.2-.115.4-.159.197-.046.378-.024a.8.8 0 0 1 .32.102.37.37 0 0 1 .158.147q.04.08.01.165a1 1 0 0 1 .348-.013.8.8 0 0 1 .318.103q.156.09.195.206.04.114-.047.243a.9.9 0 0 1-.303.251m-.257-.148a.4.4 0 0 0 .141-.118q.045-.065.027-.126-.015-.062-.099-.11a.44.44 0 0 0-.192-.057.6.6 0 0 0-.217.017.7.7 0 0 0-.207.079.4.4 0 0 0-.141.121.15.15 0 0 0-.03.125q.015.059.101.109.085.048.19.058a.75.75 0 0 0 .427-.098m-.792-.455a.35.35 0 0 0 .116-.104.14.14 0 0 0 .03-.107q-.01-.054-.082-.095a.4.4 0 0 0-.162-.049.627.627 0 0 0-.373.084.4.4 0 0 0-.126.106.13.13 0 0 0-.022.11q.014.05.086.092a.4.4 0 0 0 .161.049.63.63 0 0 0 .372-.086m3.791 1.988a.1.1 0 0 1-.06.014.1.1 0 0 1-.059-.014l-.316-.181-.782.449a.12.12 0 0 1-.118 0l-.168-.096a.2.2 0 0 1-.03-.023.1.1 0 0 1-.017-.035l-.281-.999q-.01-.043.049-.076l.269-.155a.1.1 0 0 1 .059-.014.1.1 0 0 1 .059.014l1.002.576.22-.126a.1.1 0 0 1 .062-.016.1.1 0 0 1 .059.014l.173.1q.024.013.024.034 0 .02-.024.034l-.223.127.316.182q.025.014.025.034t-.025.034zm-1.214-.056.505-.291-.713-.41zM148.973 111.437a.1.1 0 0 1-.059.014.1.1 0 0 1-.059-.014l-.482-.277-.473.273a.1.1 0 0 1-.06.014.1.1 0 0 1-.059-.014l-.131-.076q-.027-.015-.024-.034 0-.02.024-.034l.474-.272-.469-.269q-.024-.015-.024-.034t.024-.034l.144-.083a.1.1 0 0 1 .059-.014.1.1 0 0 1 .059.014l.469.27.474-.273a.1.1 0 0 1 .059-.014.1.1 0 0 1 .059.014l.131.076q.024.013.025.034 0 .02-.025.034l-.474.272.481.277q.025.013.025.034.002.018-.025.034z" style="fill:#e0e0e0;fill:color(display-p3 .8784 .8784 .8784);fill-opacity:1"/><path fill="#000" d="M139.399 107.665a.2.2 0 0 1 .089.067.2.2 0 0 1 .034.107.186.186 0 0 1-.123.174.7.7 0 0 1-.599 0c-.169-.097-.169-.256 0-.348a.65.65 0 0 1 .599 0" opacity=".1" style="fill:#000;fill-opacity:1"/><path fill="#F7921E" d="M137.054 107.476a2 2 0 0 0 0 .297l.21-.118v-.179a.83.83 0 0 1 .307-.748.45.45 0 0 1 .215-.056c.13.006.257.045.369.112.449.308.771.768.906 1.296a.7.7 0 0 0 .225 0 2.52 2.52 0 0 0-1.024-1.459.79.79 0 0 0-.809-.057 1.018 1.018 0 0 0-.399.912" style="fill:#f7921e;fill:color(display-p3 .9686 .5725 .1176);fill-opacity:1"/><path fill="#263238" d="M137.095 107.89a.2.2 0 0 1 0 .051l.041-.025z" style="fill:#263238;fill:color(display-p3 .149 .1961 .2196);fill-opacity:1"/><path fill="#000" d="M141.227 106.615a.2.2 0 0 1 .089.068.183.183 0 0 1-.089.28.648.648 0 0 1-.599 0c-.169-.092-.169-.25 0-.348a.69.69 0 0 1 .599 0" opacity=".1" style="fill:#000;fill-opacity:1"/><path fill="#F7921E" d="M138.866 106.426q-.01.15 0 .302l.21-.123v-.179a.83.83 0 0 1 .307-.743.44.44 0 0 1 .215-.056.8.8 0 0 1 .369.113c.447.309.769.769.906 1.295a.6.6 0 0 0 .221 0 2.56 2.56 0 0 0-1.024-1.464.8.8 0 0 0-.809-.057 1.02 1.02 0 0 0-.395.912" style="fill:#f7921e;fill:color(display-p3 .9686 .5725 .1176);fill-opacity:1"/><path fill="#000" d="M143.024 105.571a.184.184 0 0 1 0 .348.66.66 0 0 1-.604 0 .184.184 0 0 1 0-.348.66.66 0 0 1 .604 0" opacity=".1" style="fill:#000;fill-opacity:1"/><path fill="#F7921E" d="M140.674 105.381q.001.153.025.302l.21-.122a1 1 0 0 1 0-.18.83.83 0 0 1 .302-.742.46.46 0 0 1 .22-.056.74.74 0 0 1 .369.112c.448.309.77.769.906 1.296a.7.7 0 0 0 .22-.026 2.5 2.5 0 0 0-1.024-1.464.78.78 0 0 0-.803-.057 1.02 1.02 0 0 0-.425.937" style="fill:#f7921e;fill:color(display-p3 .9686 .5725 .1176);fill-opacity:1"/><path fill="#000" d="M144.811 104.526a.2.2 0 0 1 .089.068.183.183 0 0 1-.089.28.66.66 0 0 1-.599 0c-.169-.097-.169-.251 0-.348a.65.65 0 0 1 .599 0" opacity=".1" style="fill:#000;fill-opacity:1"/><path fill="#F7921E" d="M142.486 104.337a2 2 0 0 0 0 .302l.21-.123v-.179a.82.82 0 0 1 .307-.742.4.4 0 0 1 .215-.057.73.73 0 0 1 .369.113c.451.306.773.767.906 1.295a.7.7 0 0 0 .225-.025 2.52 2.52 0 0 0-1.024-1.465.8.8 0 0 0-.809-.056 1.03 1.03 0 0 0-.399.937" style="fill:#f7921e;fill:color(display-p3 .9686 .5725 .1176);fill-opacity:1"/><path fill="#000" d="M146.644 103.482a.186.186 0 0 1 .089.281.2.2 0 0 1-.089.067.66.66 0 0 1-.599 0c-.169-.097-.169-.251 0-.348a.65.65 0 0 1 .599 0" opacity=".1" style="fill:#000;fill-opacity:1"/><path fill="#F7921E" d="M144.299 103.293q-.012.15 0 .302l.21-.123v-.179a.83.83 0 0 1 .307-.748.43.43 0 0 1 .215-.056.74.74 0 0 1 .368.118c.448.308.77.768.907 1.295a.6.6 0 0 0 .22-.031 2.53 2.53 0 0 0-1.024-1.459.79.79 0 0 0-.809-.056 1.02 1.02 0 0 0-.394.937" style="fill:#f7921e;fill:color(display-p3 .9686 .5725 .1176);fill-opacity:1"/><path fill="#000" d="M148.456 102.437a.184.184 0 0 1 .09.281.2.2 0 0 1-.09.068.7.7 0 0 1-.604 0 .184.184 0 0 1 0-.349.66.66 0 0 1 .604 0" opacity=".1" style="fill:#000;fill-opacity:1"/><path fill="#F7921E" d="M146.106 102.232q.001.15.026.297l.21-.117a1 1 0 0 1 0-.18.83.83 0 0 1 .302-.747.45.45 0 0 1 .22-.056c.13.006.257.045.368.112.446.311.768.77.907 1.296a.6.6 0 0 0 .22-.026 2.5 2.5 0 0 0-1.024-1.459.78.78 0 0 0-.804-.057 1.03 1.03 0 0 0-.425.937" style="fill:#f7921e;fill:color(display-p3 .9686 .5725 .1176);fill-opacity:1"/><path fill="#000" d="M150.263 101.388a.18.18 0 0 1 .124.174.2.2 0 0 1-.034.107.2.2 0 0 1-.09.067.65.65 0 0 1-.599 0c-.169-.092-.169-.251 0-.348a.68.68 0 0 1 .599 0" opacity=".1" style="fill:#000;fill-opacity:1"/><path fill="#F7921E" d="M147.918 101.208a2 2 0 0 0 0 .302l.21-.122v-.18a.819.819 0 0 1 .308-.742.45.45 0 0 1 .215-.056c.13.006.257.045.368.112.45.307.773.768.906 1.296a.7.7 0 0 0 .226 0 2.57 2.57 0 0 0-1.024-1.465.82.82 0 0 0-.809-.056 1.025 1.025 0 0 0-.4.911" style="fill:#f7921e;fill:color(display-p3 .9686 .5725 .1176);fill-opacity:1"/><g fill="#000" opacity=".3"><path d="M137.054 107.475a2 2 0 0 0 0 .297l.21-.118v-.179a.83.83 0 0 1 .307-.747.45.45 0 0 1 .215-.057c.13.007.257.045.369.113.449.308.771.768.906 1.295a.7.7 0 0 0 .225 0 2.52 2.52 0 0 0-1.024-1.459.79.79 0 0 0-.809-.056 1.02 1.02 0 0 0-.399.911M138.866 106.426q-.01.15 0 .302l.21-.123v-.179a.83.83 0 0 1 .307-.743.44.44 0 0 1 .215-.056.8.8 0 0 1 .369.113c.447.309.769.769.906 1.295a.6.6 0 0 0 .221 0 2.56 2.56 0 0 0-1.024-1.464.8.8 0 0 0-.809-.057 1.02 1.02 0 0 0-.395.912M140.674 105.381q.001.153.025.302l.21-.122a1 1 0 0 1 0-.18.83.83 0 0 1 .302-.742.46.46 0 0 1 .22-.056.74.74 0 0 1 .369.112c.448.309.77.769.906 1.296a.7.7 0 0 0 .22-.026 2.5 2.5 0 0 0-1.024-1.464.78.78 0 0 0-.803-.057 1.02 1.02 0 0 0-.425.937M142.486 104.337q-.01.15 0 .302l.21-.123v-.179a.8.8 0 0 1 .056-.412.8.8 0 0 1 .251-.331.4.4 0 0 1 .215-.056.73.73 0 0 1 .369.113c.451.305.773.766.906 1.295a.7.7 0 0 0 .225-.026 2.52 2.52 0 0 0-1.024-1.464.79.79 0 0 0-.809-.056 1.02 1.02 0 0 0-.399.937M144.299 103.292a2 2 0 0 0 0 .302l.21-.123v-.179a.83.83 0 0 1 .307-.747.44.44 0 0 1 .215-.057.75.75 0 0 1 .368.118c.448.309.77.769.907 1.295a.6.6 0 0 0 .22-.03 2.53 2.53 0 0 0-1.024-1.459.79.79 0 0 0-.809-.057 1.03 1.03 0 0 0-.394.937M146.106 102.232q.001.15.026.297l.21-.117a1 1 0 0 1 0-.18.83.83 0 0 1 .302-.747.45.45 0 0 1 .22-.056c.13.006.257.045.368.112.446.311.768.77.907 1.296a.6.6 0 0 0 .22-.026 2.5 2.5 0 0 0-1.024-1.459.78.78 0 0 0-.804-.057 1.03 1.03 0 0 0-.425.937M147.918 101.208a2 2 0 0 0 0 .302l.21-.122v-.18a.819.819 0 0 1 .308-.742.45.45 0 0 1 .215-.056c.13.006.257.045.368.112.45.307.773.768.906 1.296a.7.7 0 0 0 .226 0 2.57 2.57 0 0 0-1.024-1.465.82.82 0 0 0-.809-.056 1.025 1.025 0 0 0-.4.911" style="fill:#000;fill-opacity:1"/></g><path fill="#FFA8A7" d="M152.818 118.412c3.185-.313 14.802-1.188 15.683-3.364 1.085-2.678 5.683-17.208 5.683-17.208s1.536-9.77-3.2-10.174c-2.048.404-3.871 1.475-4.644 5.12-.399 1.89-2.524 9.498-4.234 17.92 0 0-12.37 3.825-13.276 3.507-.906-.317-.953-1.172-1.674-2.212-.722-1.039-1.239-2.37-1.808-2.002-.568.369-.215 2.048 0 2.883.1.533-.012 1.084-.312 1.536 0 0-.538-.2-1.024-.343-.271-.072-4.526-2.56-4.526-2.56s-.405 2.703.906 4.024c1.644 1.905 3.983 2.611 6.144 2.924 2.432.374 3.098.261 6.282-.051" style="fill:#ffa8a7;fill:color(display-p3 1 .6588 .6549);fill-opacity:1"/><path fill="#E0E0E0" d="M171.573 86.99c-2.765.584-4.649 1.306-5.596 4.936s-3.047 11.976-3.047 11.976 4.296 3.461 8.796 3.363l2.786-9.472s2.293-8.622-2.939-10.803" style="fill:#e0e0e0;fill:color(display-p3 .8784 .8784 .8784);fill-opacity:1"/><path fill="#F7921E" d="M81.57 193.564a.71.71 0 0 1-.297-.733l7.179-31.81c.088-.309.287-.574.557-.747l42.744-24.679a.94.94 0 0 1 .85-.016.705.705 0 0 1 .298.733l-7.184 31.802a1.32 1.32 0 0 1-.558.747l-42.752 24.681a.94.94 0 0 1-.836.022" style="fill:#f7921e;fill:color(display-p3 .9686 .5725 .1176);fill-opacity:1"/><path fill="#fff" d="M81.57 193.564a.71.71 0 0 1-.297-.733l7.179-31.81c.088-.309.287-.574.557-.747l42.744-24.679a.94.94 0 0 1 .85-.016.705.705 0 0 1 .298.733l-7.184 31.802a1.32 1.32 0 0 1-.558.747l-42.752 24.681a.94.94 0 0 1-.836.022" opacity=".8" style="fill:#fff;fill-opacity:1"/><path fill="#F7921E" d="m89.274 161.497-7.185 31.805c-.061.279.084.379.326.24l42.753-24.682c.27-.173.469-.438.557-.747l7.185-31.805c.061-.279-.084-.382-.326-.242L89.826 160.75a1.32 1.32 0 0 0-.552.747" style="fill:#f7921e;fill:color(display-p3 .9686 .5725 .1176);fill-opacity:1"/><path fill="#fff" d="m89.274 161.497-7.185 31.805c-.061.279.084.379.326.24l42.753-24.682c.27-.173.469-.438.557-.747l7.185-31.805c.061-.279-.084-.382-.326-.242L89.826 160.75a1.32 1.32 0 0 0-.552.747" opacity=".6" style="fill:#fff;fill-opacity:1"/><path fill="#000" d="m89.274 161.497-7.185 31.805c-.061.279.084.379.326.24l42.753-24.682c.27-.173.469-.438.557-.747l7.185-31.805c.061-.279-.084-.382-.326-.242L89.826 160.75a1.32 1.32 0 0 0-.552.747" opacity=".05" style="fill:#000;fill-opacity:1"/><path fill="#F7921E" d="M133.425 136.052a.94.94 0 0 0-.85.014l-42.75 24.684a.81.81 0 0 0-.367.764l5.619 39.383a1.13 1.13 0 0 0 .482.749.95.95 0 0 0 .853-.016l42.749-24.682a.8.8 0 0 0 .368-.755l-5.621-39.402a1.13 1.13 0 0 0-.483-.739" style="fill:#f7921e;fill:color(display-p3 .9686 .5725 .1176);fill-opacity:1"/><path fill="#fff" d="M133.425 136.052a.94.94 0 0 0-.85.014l-42.75 24.684a.81.81 0 0 0-.367.764l5.619 39.383a1.13 1.13 0 0 0 .482.749.95.95 0 0 0 .853-.016l42.749-24.682a.8.8 0 0 0 .368-.755l-5.621-39.402a1.13 1.13 0 0 0-.483-.739" opacity=".8" style="fill:#fff;fill-opacity:1"/><path fill="#F7921E" d="m90.28 161.979 5.619 39.388a.32.32 0 0 0 .513.249l42.749-24.682a.81.81 0 0 0 .368-.755l-5.621-39.389a.3.3 0 0 0-.05-.165.3.3 0 0 0-.129-.115.31.31 0 0 0-.331.032l-42.75 24.693a.81.81 0 0 0-.368.744" style="fill:#f7921e;fill:color(display-p3 .9686 .5725 .1176);fill-opacity:1"/><path fill="#fff" d="m90.28 161.979 5.619 39.388a.32.32 0 0 0 .513.249l42.749-24.682a.81.81 0 0 0 .368-.755l-5.621-39.389a.3.3 0 0 0-.05-.165.3.3 0 0 0-.129-.115.31.31 0 0 0-.331.032l-42.75 24.693a.81.81 0 0 0-.368.744" opacity=".95" style="fill:#fff;fill-opacity:1"/><path fill="#F7921E" d="M93.396 189.105 88.38 192a.9.9 0 0 0-.31 0l-5.92 1.143h-.022l10.94-6.321z" style="fill:#f7921e;fill:color(display-p3 .9686 .5725 .1176);fill-opacity:1"/><path fill="#fff" d="M93.396 189.105 88.38 192a.9.9 0 0 0-.31 0l-5.92 1.143h-.022l10.94-6.321z" opacity=".5" style="fill:#fff;fill-opacity:1"/><path fill="#000" d="M93.396 189.105 88.38 192a.9.9 0 0 0-.31 0l-5.92 1.143h-.022l10.94-6.321z" opacity=".2" style="fill:#000;fill-opacity:1"/><path fill="#F7921E" d="m95.032 200.59-6.167-8.308a.84.84 0 0 0-.466-.279l4.997-2.898z" style="fill:#f7921e;fill:color(display-p3 .9686 .5725 .1176);fill-opacity:1"/><path fill="#fff" d="m95.032 200.59-6.167-8.308a.84.84 0 0 0-.466-.279l4.997-2.898z" opacity=".6" style="fill:#fff;fill-opacity:1"/><path fill="#000" d="m95.032 200.59-6.167-8.308a.84.84 0 0 0-.466-.279l4.997-2.898z" opacity=".1" style="fill:#000;fill-opacity:1"/><path fill="#F7921E" d="m94.84 200.977-5.967-7.75a.95.95 0 0 0-.811-.329l-5.574.805a1.67 1.67 0 0 1-.914-.164c-.226-.131-.187-.279.086-.334l6.41-1.235a.88.88 0 0 1 .8.312l6.806 9.166c.167.223.117.301-.112.17a3 3 0 0 1-.724-.641" style="fill:#f7921e;fill:color(display-p3 .9686 .5725 .1176);fill-opacity:1"/><path fill="#fff" d="m94.84 200.977-5.967-7.75a.95.95 0 0 0-.811-.329l-5.574.805a1.67 1.67 0 0 1-.914-.164c-.226-.131-.187-.279.086-.334l6.41-1.235a.88.88 0 0 1 .8.312l6.806 9.166c.167.223.117.301-.112.17a3 3 0 0 1-.724-.641" opacity=".8" style="fill:#fff;fill-opacity:1"/><path fill="#F7921E" d="M132.916 136.152a.693.693 0 0 0-.313-.576.948.948 0 0 0-.85.016l-42.752 24.682q-.196.124-.334.312a1.3 1.3 0 0 0-.218.437l-1.011 4.493.836.471 43.627-25.189 1.015-4.489a.7.7 0 0 0 0-.157" style="fill:#f7921e;fill:color(display-p3 .9686 .5725 .1176);fill-opacity:1"/><path fill="#000" d="M132.902 136.308c.061-.279-.084-.382-.327-.242L89.826 160.75c-.27.173-.469.438-.557.747l-1.01 4.49 43.628-25.189z" opacity=".6" style="fill:#000;fill-opacity:1"/><path fill="#000" d="M89.489 161.063a1.2 1.2 0 0 0-.215.434l-1.014 4.49-.836-.471 1.011-4.493a1.3 1.3 0 0 1 .218-.437z" opacity=".5" style="fill:#000;fill-opacity:1"/><path fill="#000" d="M132.915 136.152c-.019-.153-.153-.192-.34-.083l-42.752 24.678a1.2 1.2 0 0 0-.334.315l-.822-.476q.137-.187.334-.313l42.752-24.678a.95.95 0 0 1 .85-.017.7.7 0 0 1 .312.574" opacity=".2" style="fill:#000;fill-opacity:1"/><path fill="#F7921E" d="m133.966 137.167-.056-.376a.2.2 0 0 0 0-.056v-.014a1.14 1.14 0 0 0-.468-.666.935.935 0 0 0-.85.014L89.826 160.75a.75.75 0 0 0-.295.338.74.74 0 0 0-.073.418l.805 5.643.837.477 43.63-25.189z" style="fill:#f7921e;fill:color(display-p3 .9686 .5725 .1176);fill-opacity:1"/><path fill="#000" d="m134.716 142.437-43.63 25.189-.806-5.647a.75.75 0 0 1 .076-.418.76.76 0 0 1 .278-.337l42.775-24.682a.31.31 0 0 1 .287-.049.3.3 0 0 1 .2.211v.031c0 .019 0 .039.014.056l.053.376z" opacity=".2" style="fill:#000;fill-opacity:1"/><path fill="#000" d="m91.086 167.626-.837-.477-.791-5.635a.74.74 0 0 1 .073-.418l.836.473a.75.75 0 0 0-.076.419z" opacity=".5" style="fill:#000;fill-opacity:1"/><path fill="#000" d="M133.894 136.709a.3.3 0 0 0-.07-.138.315.315 0 0 0-.424-.04l-42.752 24.704a.76.76 0 0 0-.278.337l-.837-.474a.8.8 0 0 1 .28-.34l42.76-24.69a.94.94 0 0 1 .85-.016c.232.154.399.388.471.657" opacity=".3" style="fill:#000;fill-opacity:1"/><g fill="#000" opacity=".2"><path d="M94.202 162.024a1.47 1.47 0 0 1 .696-1.352c.455-.262.878-.084.948.401a1.47 1.47 0 0 1-.697 1.355c-.454.262-.878.083-.947-.404M99.965 158.696a1.47 1.47 0 0 1 .697-1.354c.454-.262.88-.081.947.404a1.46 1.46 0 0 1-.696 1.354c-.452.262-.876.081-.948-.404M105.726 155.382a1.46 1.46 0 0 1 .697-1.354c.454-.262.88-.081.947.404a1.46 1.46 0 0 1-.697 1.352c-.454.253-.878.072-.947-.402M117.244 148.719a1.48 1.48 0 0 1 .697-1.355c.454-.262.881-.081.95.404a1.47 1.47 0 0 1-.699 1.355c-.452.262-.875.081-.948-.404M123.016 145.391a1.47 1.47 0 0 1 .697-1.354c.454-.262.878-.081.947.404a1.46 1.46 0 0 1-.696 1.351c-.455.262-.867.084-.948-.401M128.774 142.064a1.46 1.46 0 0 1 .697-1.352c.454-.262.878-.084.947.401a1.47 1.47 0 0 1-.696 1.355c-.455.262-.881.095-.948-.404" style="fill:#000;fill-opacity:1"/></g><path fill="#263238" d="M95.946 160.287a2.6 2.6 0 0 1-.106.75 1.53 1.53 0 0 1-.688.917 1.4 1.4 0 0 1-.73.192 1 1 0 0 1-.201 0 1 1 0 0 1-.022-.108 1.3 1.3 0 0 1 .108-.661.73.73 0 0 0 .457-.078.95.95 0 0 0 .39-.716v-.036a2 2 0 0 0 0-.246 4 4 0 0 0-.769-2.182 4.5 4.5 0 0 0-.557-.635 3 3 0 0 0-.557-.41c-.421-.24-.809-.279-1.07-.145-.263.134-.41.507-.41.998q.005.345.083.68l-.652.398v-.044a3.8 3.8 0 0 1-.153-1.034c0-.778.278-1.371.797-1.672.518-.301 1.165-.246 1.84.145.314.186.602.416.852.682q.286.302.518.647c.53.751.832 1.64.87 2.558M101.713 156.96q0 .251-.042.499a2 2 0 0 1-.064.256 1.52 1.52 0 0 1-.689.912 1.4 1.4 0 0 1-.73.192 2 2 0 0 1-.195-.014 1 1 0 0 1-.025-.109 1.27 1.27 0 0 1 .106-.66.74.74 0 0 0 .457-.078.94.94 0 0 0 .39-.719v-.034a2 2 0 0 0 0-.245 4.25 4.25 0 0 0-1.315-2.817 3 3 0 0 0-.558-.413c-.42-.24-.808-.293-1.07-.142-.262.15-.41.504-.41.998q.006.343.087.677l-.666.398v-.044a3.8 3.8 0 0 1-.154-1.031c0-.781.28-1.372.797-1.673.519-.301 1.165-.242 1.843.145q.465.284.836.683.285.303.518.65c.539.752.846 1.645.884 2.569M107.47 153.635a3 3 0 0 1-.041.499 2 2 0 0 1-.064.254c-.103.382-.349.71-.689.914a1.4 1.4 0 0 1-.73.192q-.097.006-.195 0a.6.6 0 0 1-.025-.109 1.24 1.24 0 0 1 .106-.66.75.75 0 0 0 .457-.078.93.93 0 0 0 .39-.719v-.034a2 2 0 0 0 0-.245 4 4 0 0 0-.769-2.182 4 4 0 0 0-.558-.635 3.2 3.2 0 0 0-.557-.413c-.421-.24-.808-.279-1.07-.142-.262.136-.41.504-.41.998q.005.345.084.68l-.647.384v-.047a3.9 3.9 0 0 1-.15-1.031c0-.781.278-1.371.797-1.672.518-.301 1.165-.243 1.839.147a3.8 3.8 0 0 1 .85.68q.29.303.524.65c.527.756.825 1.648.858 2.569M118.995 146.991q0 .251-.042.499a3 3 0 0 1-.064.259 1.54 1.54 0 0 1-.689.911 1.43 1.43 0 0 1-.925.176 1 1 0 0 1-.028-.117 1.27 1.27 0 0 1 .103-.652.73.73 0 0 0 .466-.078.96.96 0 0 0 .39-.753 2 2 0 0 0 0-.245 4.26 4.26 0 0 0-1.324-2.823 3 3 0 0 0-.541-.404c-.421-.243-.808-.293-1.07-.145s-.407.507-.407.998q.002.339.081.668l-.694.402v-.036a4 4 0 0 1-.15-1.034c0-.781.278-1.372.797-1.673.518-.301 1.165-.245 1.839.142.309.186.591.414.836.678q.29.302.524.649c.543.754.855 1.65.898 2.578M124.769 143.66q0 .253-.044.502a2 2 0 0 1-.064.256c-.103.382-.35.708-.689.912a1.4 1.4 0 0 1-.727.189 2 2 0 0 1-.198 0 1 1 0 0 1-.028-.12 1.25 1.25 0 0 1 .103-.649.73.73 0 0 0 .466-.081.95.95 0 0 0 .39-.724v-.274a3.98 3.98 0 0 0-.775-2.187 4.3 4.3 0 0 0-.557-.636 3.2 3.2 0 0 0-.541-.404c-.421-.24-.808-.292-1.07-.142-.262.151-.41.507-.41.998q.004.337.081.666l-.675.39v-.036a4 4 0 0 1-.153-1.031c0-.781.279-1.374.797-1.673.519-.298 1.168-.248 1.842.143q.467.28.836.677.288.303.522.649a4.77 4.77 0 0 1 .894 2.575M130.521 140.333q0 .253-.044.502a2 2 0 0 1-.064.25 1.52 1.52 0 0 1-.689.917 1.4 1.4 0 0 1-.727.19 2 2 0 0 1-.198 0 1 1 0 0 1-.025-.12 1.25 1.25 0 0 1 .1-.649.74.74 0 0 0 .466-.081.95.95 0 0 0 .39-.753q.014-.122.014-.245a4 4 0 0 0-.775-2.188 4 4 0 0 0-.557-.632 3 3 0 0 0-.541-.407c-.421-.24-.805-.293-1.067-.142-.262.15-.41.504-.41.997q.002.34.081.669l-.694.399v-.036a4 4 0 0 1-.154-1.032c0-.78.279-1.371.798-1.672.518-.301 1.164-.248 1.842.142.308.185.59.412.836.675q.288.304.524.649c.54.751.851 1.643.894 2.567" style="fill:#263238;fill:color(display-p3 .149 .1961 .2196);fill-opacity:1"/><path fill="#F7921E" d="m92.039 174.259 43.624-25.167-.947-6.655-43.63 25.169z" style="fill:#f7921e;fill:color(display-p3 .9686 .5725 .1176);fill-opacity:1"/><path fill="#fff" d="m92.039 174.259 43.624-25.167-.947-6.655-43.63 25.169z" opacity=".65" style="fill:#fff;fill-opacity:1"/><path fill="#F7921E" d="M95.478 175.872c.053.368.393.493.76.279l3.273-1.89a1.15 1.15 0 0 0 .557-1.048c-.053-.368-.393-.493-.76-.279l-3.245 1.89a1.15 1.15 0 0 0-.585 1.048M100.999 172.684c.053.368.393.493.761.279l3.275-1.89a1.15 1.15 0 0 0 .557-1.048c-.053-.368-.393-.493-.761-.279l-3.272 1.89a1.15 1.15 0 0 0-.424.447 1.15 1.15 0 0 0-.136.601M106.523 169.496c.053.368.393.493.758.278l3.275-1.886a1.17 1.17 0 0 0 .571-1.048c-.053-.368-.393-.494-.761-.279l-3.275 1.89a1.14 1.14 0 0 0-.429.443 1.14 1.14 0 0 0-.139.602M112.044 166.307c.053.368.393.494.761.279l3.272-1.889a1.16 1.16 0 0 0 .571-1.048c-.053-.368-.393-.494-.761-.279l-3.272 1.89a1.154 1.154 0 0 0-.571 1.047M117.565 163.119c.053.368.393.494.761.279l3.274-1.884a1.151 1.151 0 0 0 .558-1.048c-.053-.368-.393-.493-.761-.279l-3.261 1.884a1.163 1.163 0 0 0-.571 1.048M123.097 159.931c.053.367.393.493.758.278l3.275-1.889a1.15 1.15 0 0 0 .557-1.048c-.05-.368-.39-.494-.758-.279l-3.275 1.89a1.15 1.15 0 0 0-.557 1.048M128.61 156.743c.052.367.393.493.76.278l3.272-1.889a1.15 1.15 0 0 0 .572-1.048c-.053-.368-.393-.494-.761-.279l-3.272 1.89a1.15 1.15 0 0 0-.571 1.048" style="fill:#f7921e;fill:color(display-p3 .9686 .5725 .1176);fill-opacity:1"/><g fill="#F7921E" opacity=".17"><path d="M136.845 175.911a.175.175 0 0 1-.187-.133l-2.667-18.629a.14.14 0 0 1 .088-.139.1.1 0 0 1 .057-.008.17.17 0 0 1 .119.033.17.17 0 0 1 .068.103l2.667 18.626a.1.1 0 0 1-.008.057.1.1 0 0 1-.031.05.13.13 0 0 1-.106.04M131.319 179.1a.18.18 0 0 1-.118-.032.18.18 0 0 1-.066-.102l-2.668-18.625a.2.2 0 0 1 .008-.058.14.14 0 0 1 .031-.05.2.2 0 0 1 .049-.033.2.2 0 0 1 .057-.01.176.176 0 0 1 .184.137l2.662 18.625q.003.03-.006.057a.2.2 0 0 1-.03.049.1.1 0 0 1-.047.032.1.1 0 0 1-.056.01M125.795 182.291a.17.17 0 0 1-.184-.137l-2.667-18.625a.14.14 0 0 1 .007-.058.2.2 0 0 1 .031-.049.141.141 0 0 1 .107-.041.18.18 0 0 1 .184.134l2.667 18.623q.003.03-.006.059a.14.14 0 0 1-.08.085.2.2 0 0 1-.059.009M120.271 185.482a.18.18 0 0 1-.187-.134l-2.667-18.625a.14.14 0 0 1 .145-.151.18.18 0 0 1 .119.034.18.18 0 0 1 .068.103l2.667 18.625a.1.1 0 0 1-.008.058.1.1 0 0 1-.031.049.13.13 0 0 1-.048.032.14.14 0 0 1-.058.009M114.736 188.67a.18.18 0 0 1-.187-.137l-2.667-18.625a.14.14 0 0 1 .008-.058.134.134 0 0 1 .08-.081.14.14 0 0 1 .057-.009.174.174 0 0 1 .187.134l2.667 18.625a.1.1 0 0 1-.008.058.1.1 0 0 1-.031.05.1.1 0 0 1-.048.033.14.14 0 0 1-.058.01M109.223 191.859a.18.18 0 0 1-.186-.134l-2.662-18.628a.1.1 0 0 1 .008-.058.1.1 0 0 1 .031-.049.13.13 0 0 1 .048-.032.14.14 0 0 1 .058-.009.175.175 0 0 1 .187.136l2.667 18.626a.13.13 0 0 1-.041.109.14.14 0 0 1-.05.032.2.2 0 0 1-.06.007M103.7 195.05a.18.18 0 0 1-.187-.137l-2.667-18.628a.14.14 0 0 1 .007-.058.2.2 0 0 1 .031-.049.141.141 0 0 1 .107-.041.17.17 0 0 1 .118.032.17.17 0 0 1 .068.102l2.667 18.625a.136.136 0 0 1-.038.109.14.14 0 0 1-.048.034.2.2 0 0 1-.058.011M98.173 198.238a.176.176 0 0 1-.184-.134l-2.667-18.628a.14.14 0 0 1 .008-.058.14.14 0 0 1 .08-.081.14.14 0 0 1 .057-.009.175.175 0 0 1 .184.134l2.67 18.628a.14.14 0 0 1-.148.148" style="fill:#f7921e;fill:color(display-p3 .9686 .5725 .1176);fill-opacity:1"/><path d="M96.175 184.269a.2.2 0 0 1-.084-.016.2.2 0 0 1-.07-.05.13.13 0 0 1-.032-.105.13.13 0 0 1 .021-.053.14.14 0 0 1 .042-.038l38.672-22.326a.19.19 0 0 1 .232.042.122.122 0 0 1 .032.107.1.1 0 0 1-.022.053.13.13 0 0 1-.044.038l-38.67 22.326a.2.2 0 0 1-.077.022M96.84 188.923a.19.19 0 0 1-.153-.064.12.12 0 0 1-.032-.106.123.123 0 0 1 .066-.089l38.669-22.326a.18.18 0 0 1 .232.042.12.12 0 0 1 .032.105.1.1 0 0 1-.021.052.14.14 0 0 1-.042.038l-38.672 22.326a.14.14 0 0 1-.078.022M97.507 193.581a.19.19 0 0 1-.153-.064.126.126 0 0 1-.01-.161.13.13 0 0 1 .043-.037l38.669-22.329a.2.2 0 0 1 .125-.021.2.2 0 0 1 .11.062.14.14 0 0 1 .031.106.13.13 0 0 1-.022.052.1.1 0 0 1-.043.038l-38.67 22.337a.2.2 0 0 1-.08.017" style="fill:#f7921e;fill:color(display-p3 .9686 .5725 .1176);fill-opacity:1"/><path d="M98.173 198.238a.2.2 0 0 1-.084-.017.156.156 0 0 1-.1-.117l-2.667-18.628a.12.12 0 0 1 .064-.126l38.669-22.326a.185.185 0 0 1 .167 0 .16.16 0 0 1 .101.12l2.667 18.625a.13.13 0 0 1-.067.126l-38.67 22.321a.16.16 0 0 1-.08.022m-2.508-18.692 2.628 18.299 38.362-22.151-2.619-18.297z" style="fill:#f7921e;fill:color(display-p3 .9686 .5725 .1176);fill-opacity:1"/></g><g fill="#000" opacity=".17"><path d="M136.845 175.911a.175.175 0 0 1-.187-.133l-2.667-18.629a.14.14 0 0 1 .088-.139.1.1 0 0 1 .057-.008.17.17 0 0 1 .119.033.17.17 0 0 1 .068.103l2.667 18.626a.1.1 0 0 1-.008.057.1.1 0 0 1-.031.05.13.13 0 0 1-.106.04M131.319 179.1a.18.18 0 0 1-.118-.032.18.18 0 0 1-.066-.102l-2.668-18.625a.2.2 0 0 1 .008-.058.14.14 0 0 1 .031-.05.2.2 0 0 1 .049-.033.2.2 0 0 1 .057-.01.176.176 0 0 1 .184.137l2.662 18.625q.003.03-.006.057a.2.2 0 0 1-.03.049.1.1 0 0 1-.047.032.1.1 0 0 1-.056.01M125.795 182.291a.17.17 0 0 1-.184-.137l-2.667-18.625a.14.14 0 0 1 .007-.058.2.2 0 0 1 .031-.049.141.141 0 0 1 .107-.041.18.18 0 0 1 .184.134l2.667 18.623q.003.03-.006.059a.14.14 0 0 1-.08.085.2.2 0 0 1-.059.009M120.271 185.482a.18.18 0 0 1-.187-.134l-2.667-18.625a.14.14 0 0 1 .145-.151.18.18 0 0 1 .119.034.18.18 0 0 1 .068.103l2.667 18.625a.1.1 0 0 1-.008.058.1.1 0 0 1-.031.049.13.13 0 0 1-.048.032.14.14 0 0 1-.058.009M114.736 188.67a.18.18 0 0 1-.187-.137l-2.667-18.625a.14.14 0 0 1 .008-.058.134.134 0 0 1 .08-.081.14.14 0 0 1 .057-.009.174.174 0 0 1 .187.134l2.667 18.625a.1.1 0 0 1-.008.058.1.1 0 0 1-.031.05.1.1 0 0 1-.048.033.14.14 0 0 1-.058.01M109.223 191.859a.18.18 0 0 1-.186-.134l-2.662-18.628a.1.1 0 0 1 .008-.058.1.1 0 0 1 .031-.049.13.13 0 0 1 .048-.032.14.14 0 0 1 .058-.009.175.175 0 0 1 .187.136l2.667 18.626a.13.13 0 0 1-.041.109.14.14 0 0 1-.05.032.2.2 0 0 1-.06.007M103.7 195.05a.18.18 0 0 1-.187-.137l-2.667-18.628a.14.14 0 0 1 .007-.058.2.2 0 0 1 .031-.049.141.141 0 0 1 .107-.041.17.17 0 0 1 .118.032.17.17 0 0 1 .068.102l2.667 18.625a.136.136 0 0 1-.038.109.14.14 0 0 1-.048.034.2.2 0 0 1-.058.011M98.173 198.238a.176.176 0 0 1-.184-.134l-2.667-18.628a.14.14 0 0 1 .008-.058.14.14 0 0 1 .08-.081.14.14 0 0 1 .057-.009.175.175 0 0 1 .184.134l2.67 18.628a.14.14 0 0 1-.148.148" style="fill:#000;fill-opacity:1"/><path d="M96.175 184.269a.2.2 0 0 1-.084-.016.2.2 0 0 1-.07-.05.13.13 0 0 1-.032-.105.13.13 0 0 1 .021-.053.14.14 0 0 1 .042-.038l38.672-22.326a.19.19 0 0 1 .232.042.122.122 0 0 1 .032.107.1.1 0 0 1-.022.053.13.13 0 0 1-.044.038l-38.67 22.326a.2.2 0 0 1-.077.022M96.84 188.923a.19.19 0 0 1-.153-.064.12.12 0 0 1-.032-.106.123.123 0 0 1 .066-.089l38.669-22.326a.18.18 0 0 1 .232.042.12.12 0 0 1 .032.105.1.1 0 0 1-.021.052.14.14 0 0 1-.042.038l-38.672 22.326a.14.14 0 0 1-.078.022M97.507 193.581a.19.19 0 0 1-.153-.064.126.126 0 0 1-.01-.161.13.13 0 0 1 .043-.037l38.669-22.329a.2.2 0 0 1 .125-.021.2.2 0 0 1 .11.062.14.14 0 0 1 .031.106.13.13 0 0 1-.022.052.1.1 0 0 1-.043.038l-38.67 22.337a.2.2 0 0 1-.08.017" style="fill:#000;fill-opacity:1"/><path d="M98.173 198.238a.2.2 0 0 1-.084-.017.156.156 0 0 1-.1-.117l-2.667-18.628a.12.12 0 0 1 .064-.126l38.669-22.326a.185.185 0 0 1 .167 0 .16.16 0 0 1 .101.12l2.667 18.625a.13.13 0 0 1-.067.126l-38.67 22.321a.16.16 0 0 1-.08.022m-2.508-18.692 2.628 18.299 38.362-22.151-2.619-18.297z" style="fill:#000;fill-opacity:1"/></g><path fill="#455A64" d="M102.691 181.552c1.287.26 2.583.477 3.876.7l.48.084c.226.039.315-.279.075-.321q-1.837-.318-3.676-.613l-.694-.1c-.192-.025-.279.214-.064.256z" style="fill:#455a64;fill:color(display-p3 .2706 .3529 .3922);fill-opacity:1"/><path fill="#455A64" d="M106.375 179.264a3.6 3.6 0 0 0-.429.558l-.744 1.131q-.837 1.252-1.636 2.509c-.167.259-.36.512-.507.783a.12.12 0 0 0 .027.159l.04.025-.04-.129c-.05.078.095.215.154.126 0 .014.086-.034.103-.056l.033-.05.092-.142.279-.413.783-1.209q.837-1.293 1.672-2.587.203-.285.332-.61c.025-.072-.075-.175-.137-.111zM108.103 178.236c1.285.259 2.581.476 3.874.699l.479.084c.226.039.315-.279.075-.321a331 331 0 0 0-3.673-.613l-.694-.106c-.192-.025-.262.215-.061.257" style="fill:#455a64;fill:color(display-p3 .2706 .3529 .3922);fill-opacity:1"/><path fill="#455A64" d="M111.785 175.942a3.6 3.6 0 0 0-.427.557l-.747 1.129c-.557.836-1.089 1.672-1.633 2.508-.17.257-.359.513-.51.784q-.021.039-.014.085a.13.13 0 0 0 .045.073l.036.025-.036-.128c-.053.078.095.215.153.126 0 0 .084-.034.1-.056a.3.3 0 0 0 .034-.05l.092-.142.279-.413.783-1.209 1.672-2.587a3 3 0 0 0 .334-.61c.025-.073-.075-.176-.139-.112zM113.697 175.045c1.287.259 2.58.476 3.873.699l.483.084c.223.036.314-.279.075-.321a316 316 0 0 0-3.676-.613c-.232-.039-.46-.072-.694-.106-.192-.025-.262.215-.061.257" style="fill:#455a64;fill:color(display-p3 .2706 .3529 .3922);fill-opacity:1"/><path fill="#455A64" d="M117.378 172.757q-.24.257-.426.557l-.744 1.132q-.837 1.254-1.636 2.508c-.168.259-.36.515-.51.786a.12.12 0 0 0-.014.085.13.13 0 0 0 .044.074l.037.025-.037-.128c-.05.08.095.214.154.125 0 .017.083-.033.1-.053l.033-.05.078-.139.279-.416.783-1.207q.837-1.293 1.672-2.586.201-.288.332-.613c.025-.07-.075-.176-.139-.109zM119.259 171.826c1.285.259 2.581.476 3.874.699l.482.084c.223.036.315-.279.076-.32a324 324 0 0 0-3.676-.614q-.348-.057-.694-.106c-.232-.033-.262.215-.062.257" style="fill:#455a64;fill:color(display-p3 .2706 .3529 .3922);fill-opacity:1"/><path fill="#455A64" d="M122.941 169.527q-.24.257-.427.557l-.744 1.131q-.835 1.255-1.636 2.509c-.17.259-.359.515-.51.786a.13.13 0 0 0-.013.085.12.12 0 0 0 .044.074l.036.025-.036-.129c-.053.081.095.215.153.126 0 .017.084-.034.101-.053l.033-.05.092-.145.279-.413.786-1.209 1.672-2.584q.2-.288.332-.613c.025-.07-.076-.175-.14-.109zM124.783 168.626c1.285.259 2.581.477 3.874.7l.479.083c.226.039.315-.278.076-.32a299 299 0 0 0-3.674-.613 27 27 0 0 0-.694-.106c-.231-.034-.262.214-.061.256" style="fill:#455a64;fill:color(display-p3 .2706 .3529 .3922);fill-opacity:1"/><path fill="#455A64" d="M128.465 166.338a3.5 3.5 0 0 0-.427.557q-.373.568-.747 1.132c-.557.836-1.089 1.672-1.633 2.508-.17.259-.359.516-.51.786q-.021.04-.014.085a.13.13 0 0 0 .045.074l.036.025c0-.042-.025-.084-.036-.128-.053.081.095.217.15.125 0 .017.087-.03.103-.053a.3.3 0 0 0 .034-.05l.092-.142.279-.415.783-1.207 1.672-2.586q.202-.287.334-.611c.025-.072-.075-.175-.139-.111zM103.421 185.847c1.285.262 2.581.479 3.874.702l.479.081c.226.039.315-.279.076-.318a320 320 0 0 0-3.674-.613q-.346-.057-.694-.106c-.231-.033-.262.215-.061.254" style="fill:#455a64;fill:color(display-p3 .2706 .3529 .3922);fill-opacity:1"/><path fill="#455A64" d="M107.102 183.559q-.24.258-.429.557c-.245.379-.496.756-.744 1.132-.557.836-1.09 1.672-1.636 2.508-.167.259-.357.516-.507.786a.12.12 0 0 0 .031.156l.036.028-.039-.128c-.053.081.095.214.15.125 0 .017.087-.033.103-.053.017-.019.023-.036.034-.05l.092-.145.279-.412.783-1.21a902 902 0 0 0 1.672-2.586 2.8 2.8 0 0 0 .332-.61c.025-.073-.073-.176-.137-.112z" style="fill:#455a64;fill:color(display-p3 .2706 .3529 .3922);fill-opacity:1"/><path fill="#F7921E" d="M120.227 177.913a2.1 2.1 0 0 0-1.151-.502 2.74 2.74 0 0 0-2.314.727c-.078.078.076.226.159.156a2.7 2.7 0 0 1 2.001-.646c.356.023.698.149.984.362a1.1 1.1 0 0 1 .299.423c.064.163.087.339.069.514a3.96 3.96 0 0 1-.68 1.814 5.8 5.8 0 0 1-1.316 1.435 6.2 6.2 0 0 1-1.7.939c-.627.226-1.393.416-2.031.154a1.706 1.706 0 0 1-.981-1.561 4.1 4.1 0 0 1 .657-2.202 6.4 6.4 0 0 1 1.781-1.822 6.7 6.7 0 0 1 1.115-.678q.632-.277 1.304-.429c.198-.053-.044-.192-.239-.161-.38.044-.75.15-1.096.314q-.695.3-1.318.731a6.7 6.7 0 0 0-1.853 1.847 4.37 4.37 0 0 0-.711 2.361 2.07 2.07 0 0 0 .95 1.767c.681.401 1.544.295 2.264.07a6.7 6.7 0 0 0 1.95-.973 6.1 6.1 0 0 0 1.472-1.505 4.3 4.3 0 0 0 .791-2.009 1.38 1.38 0 0 0-.406-1.126" style="fill:#f7921e;fill:color(display-p3 .9686 .5725 .1176);fill-opacity:1"/></svg>