<svg xmlns="http://www.w3.org/2000/svg" width="256" height="256" fill="none"><path stroke="#D5D5D5" d="M46.705 134.586c20.875-12.054 48.273-18.09 75.697-18.086s54.822 6.05 75.697 18.101c20.879 12.053 31.21 27.787 31.212 43.415s-10.323 31.358-31.212 43.403c-20.885 12.045-48.283 18.082-75.705 18.081s-54.814-6.041-75.69-18.095c-20.878-12.056-31.203-27.786-31.203-43.412s10.325-31.354 31.204-43.407Z"/><path fill="#F7921E" d="M111.683 190.623 128 200.03a6.53 6.53 0 0 0 5.919 0l16.265-9.407a6.55 6.55 0 0 0 2.96-5.126v-18.795a6.55 6.55 0 0 0-2.96-5.149l-16.293-9.407a6.5 6.5 0 0 0-2.96-.708 6.5 6.5 0 0 0-2.959.708l-16.294 9.407a6.54 6.54 0 0 0-2.954 5.149v18.819a6.53 6.53 0 0 0 2.959 5.102"/><path fill="#000" d="M111.683 190.623 128 200.03a6.53 6.53 0 0 0 5.919 0l16.265-9.407a6.55 6.55 0 0 0 2.96-5.126v-18.795a6.55 6.55 0 0 0-2.96-5.149l-16.293-9.407a6.5 6.5 0 0 0-2.96-.708 6.5 6.5 0 0 0-2.959.708l-16.294 9.407a6.54 6.54 0 0 0-2.954 5.149v18.819a6.53 6.53 0 0 0 2.959 5.102" opacity=".4"/><path fill="#F7921E" d="m150.184 164.97-16.293 9.407a6.55 6.55 0 0 0-2.96 5.131v18.818c0 1.888 1.326 2.653 2.96 1.709l16.293-9.412a6.55 6.55 0 0 0 2.959-5.126v-18.795c.01-1.888-1.316-2.676-2.959-1.732"/><path fill="#fff" d="M142.896 174.613a5.1 5.1 0 0 1 1.969-.741 1.95 1.95 0 0 1 1.416.331c.409.329.707.775.854 1.279a7.7 7.7 0 0 1 .363 2.124c.038.982.038 1.992 0 3.021a13 13 0 0 1-.363 2.534 10 10 0 0 1-.85 2.271 8.6 8.6 0 0 1-1.368 1.925 8.4 8.4 0 0 1-1.926 1.506l-3.856 2.233a.26.26 0 0 1-.293 0 .39.39 0 0 1-.123-.321v-13.188a1 1 0 0 1 .123-.472.8.8 0 0 1 .293-.335zm2.516 4.187a4 4 0 0 0-.193-1.104 1.4 1.4 0 0 0-.472-.708 1.1 1.1 0 0 0-.789-.199 2.9 2.9 0 0 0-1.132.42l-2.054 1.185v9.19l2.129-1.227c.406-.23.774-.521 1.09-.864.302-.326.559-.691.765-1.086.207-.396.365-.816.472-1.25q.16-.66.194-1.336a32 32 0 0 0-.01-3.021"/><path fill="#F7921E" d="M111.683 164.97 128 174.377a6.53 6.53 0 0 0 5.919 0l16.265-9.407c1.638-.944 1.638-2.473 0-3.417l-16.293-9.407a6.5 6.5 0 0 0-2.96-.708 6.5 6.5 0 0 0-2.959.708l-16.294 9.407c-1.614.944-1.614 2.473.005 3.417"/><path fill="#fff" d="M111.683 164.97 128 174.377a6.53 6.53 0 0 0 5.919 0l16.265-9.407c1.638-.944 1.638-2.473 0-3.417l-16.293-9.407a6.5 6.5 0 0 0-2.96-.708 6.5 6.5 0 0 0-2.959.708l-16.294 9.407c-1.614.944-1.614 2.473.005 3.417" opacity=".15"/><path fill="#F7921E" d="M111.683 164.97 128 174.377a6.55 6.55 0 0 1 2.96 5.131v18.818c0 1.888-1.327 2.653-2.96 1.709l-16.293-9.407a6.55 6.55 0 0 1-2.96-5.126v-18.8c-.023-1.888 1.317-2.676 2.936-1.732"/><path fill="#000" d="M111.683 164.97 128 174.382a6.55 6.55 0 0 1 2.96 5.126v18.818c0 1.888-1.327 2.653-2.96 1.709l-16.293-9.407a6.53 6.53 0 0 1-2.96-5.126v-18.8c-.023-1.888 1.317-2.676 2.936-1.732" opacity=".2"/><path fill="#F7921E" d="m106.713 165.382 16.298 9.412a6.54 6.54 0 0 0 5.919 0l16.293-9.412a6.54 6.54 0 0 0 2.96-5.126v-18.814a6.5 6.5 0 0 0-.868-2.916 6.54 6.54 0 0 0-2.092-2.21l-16.279-9.407a6.54 6.54 0 0 0-5.919 0l-16.312 9.407a6.55 6.55 0 0 0-2.96 5.126v18.814a6.55 6.55 0 0 0 2.96 5.126"/><path fill="#F7921E" d="m145.223 139.735-16.279 9.407a6.548 6.548 0 0 0-2.96 5.125v18.819c0 1.888 1.327 2.653 2.96 1.709l16.293-9.412a6.55 6.55 0 0 0 2.96-5.126v-18.814c-.014-1.888-1.317-2.652-2.974-1.708"/><path fill="#fff" d="m145.223 139.735-16.279 9.407a6.548 6.548 0 0 0-2.96 5.125v18.819c0 1.888 1.327 2.653 2.96 1.709l16.293-9.412a6.55 6.55 0 0 0 2.96-5.126v-18.814c-.014-1.888-1.317-2.652-2.974-1.708" opacity=".35"/><path fill="#fff" d="M140.088 162.706c-.175.099-.307.118-.401.047a3 3 0 0 1-.198-.169l-4.291-6.023v8.416a1 1 0 0 1-.118.472.8.8 0 0 1-.292.33l-1.242.717a.24.24 0 0 1-.292 0 .37.37 0 0 1-.123-.316v-13.216c.002-.165.044-.327.123-.472a.8.8 0 0 1 .292-.33l1.072-.619c.174-.099.306-.118.401-.047q.103.08.198.17l4.291 6.07v-8.439a1 1 0 0 1 .118-.472.8.8 0 0 1 .292-.331l1.242-.717a.24.24 0 0 1 .146-.048q.081 0 .146.048a.4.4 0 0 1 .1.143.4.4 0 0 1 .023.173v13.216a1 1 0 0 1-.123.472.8.8 0 0 1-.292.331z"/><path fill="#F7921E" d="m106.713 139.734 16.298 9.407a6.54 6.54 0 0 0 5.919 0l16.293-9.407c1.633-.944 1.633-2.474 0-3.418l-16.279-9.407a6.55 6.55 0 0 0-5.919 0l-16.312 9.407c-1.633.944-1.633 2.474 0 3.418"/><path fill="#fff" d="m106.713 139.734 16.298 9.407a6.54 6.54 0 0 0 5.919 0l16.293-9.407c1.633-.944 1.633-2.474 0-3.418l-16.279-9.407a6.55 6.55 0 0 0-5.919 0l-16.312 9.407c-1.633.944-1.633 2.474 0 3.418" opacity=".55"/><path fill="#F7921E" d="m106.713 139.735 16.298 9.407a6.53 6.53 0 0 1 2.959 5.125v18.819c0 1.888-1.326 2.653-2.959 1.709l-16.298-9.412a6.55 6.55 0 0 1-2.96-5.126v-18.814c0-1.888 1.327-2.652 2.96-1.708"/><path fill="#fff" d="m106.713 139.735 16.298 9.407a6.53 6.53 0 0 1 2.959 5.125v18.819c0 1.888-1.326 2.653-2.959 1.709l-16.298-9.412a6.547 6.547 0 0 1-2.96-5.126v-18.814c0-1.888 1.327-2.652 2.96-1.708" opacity=".15"/><path fill="#F7921E" d="m108.648 136.42 16.293 9.406a6.54 6.54 0 0 0 5.924 0l16.293-9.406a6.55 6.55 0 0 0 2.946-5.117V112.48a6.56 6.56 0 0 0-2.96-5.131l-16.312-9.407a6.55 6.55 0 0 0-5.924 0l-16.26 9.407a6.55 6.55 0 0 0-2.96 5.131v18.823a6.56 6.56 0 0 0 2.96 5.117"/><path fill="#000" d="m108.648 136.42 16.293 9.406a6.54 6.54 0 0 0 5.924 0l16.293-9.406a6.55 6.55 0 0 0 2.946-5.117V112.48a6.56 6.56 0 0 0-2.96-5.131l-16.312-9.407a6.55 6.55 0 0 0-5.924 0l-16.26 9.407a6.55 6.55 0 0 0-2.96 5.131v18.823a6.56 6.56 0 0 0 2.96 5.117" opacity=".4"/><path fill="#F7921E" d="m147.144 110.772-16.312 9.407a6.52 6.52 0 0 0-2.964 5.126v18.813c0 1.888 1.326 2.653 2.964 1.709l16.293-9.407a6.55 6.55 0 0 0 2.979-5.116V112.48c0-1.888-1.336-2.652-2.96-1.708"/><path fill="#000" d="m147.144 110.772-16.312 9.407a6.52 6.52 0 0 0-2.964 5.126v18.813c0 1.888 1.326 2.653 2.964 1.709l16.293-9.407a6.55 6.55 0 0 0 2.979-5.116V112.48c0-1.888-1.336-2.652-2.96-1.708" opacity=".1"/><path fill="#fff" d="M139.838 120.545q.248-.139.368-.038a.9.9 0 0 1 .212.397l3.776 10.743a.5.5 0 0 1 0 .132 1 1 0 0 1-.122.472.8.8 0 0 1-.293.33l-1.104.609q-.311.177-.43.071a.5.5 0 0 1-.17-.236l-.661-1.888-4.838 2.794-.66 2.648a2 2 0 0 1-.166.434 1.07 1.07 0 0 1-.429.42l-1.105.638a.25.25 0 0 1-.292 0 .377.377 0 0 1-.123-.317.6.6 0 0 1 0-.151l3.752-15.075q.07-.336.213-.647a.9.9 0 0 1 .368-.387zm.845 8.496-1.685-4.847-1.685 6.792z"/><path fill="#F7921E" d="m108.648 110.771 16.293 9.407a6.56 6.56 0 0 0 5.924 0l16.294-9.407c1.633-.944 1.633-2.478 0-3.422l-16.327-9.407a6.55 6.55 0 0 0-5.924 0l-16.26 9.407c-1.647.944-1.647 2.478 0 3.422"/><path fill="#F7921E" d="m108.648 110.772 16.293 9.407a6.53 6.53 0 0 1 2.96 5.126v18.813c0 1.888-1.322 2.653-2.96 1.709l-16.293-9.407a6.54 6.54 0 0 1-2.974-5.116V112.48c0-1.888 1.327-2.652 2.974-1.708"/><path fill="#000" d="m108.648 110.772 16.293 9.407a6.53 6.53 0 0 1 2.96 5.126v18.813c0 1.888-1.322 2.653-2.96 1.709l-16.293-9.407a6.54 6.54 0 0 1-2.974-5.116V112.48c0-1.888 1.327-2.652 2.974-1.708" opacity=".25"/><path fill="#F7921E" d="m184.413 68.727-.472-1.45c-.25-1.17 4.527 1.587 4.777 2.757l-1.529 4.158a.66.66 0 0 1-.26.303c-.335.207-1.581.91-1.69.977a.667.667 0 0 1-.986-.368l-1.973-6.854c-.142-.576.944-.194 2.133.477"/><path fill="#fff" d="m184.413 68.727-.472-1.45c-.25-1.17 4.527 1.587 4.777 2.757l-1.529 4.158a.66.66 0 0 1-.26.303c-.335.207-1.581.91-1.69.977a.667.667 0 0 1-.986-.368l-1.973-6.854c-.142-.576.944-.194 2.133.477" opacity=".1"/><path fill="#F7921E" d="m178.594 40.492 18.162 10.473a1.37 1.37 0 0 1 .628 1.043v21.524a1.34 1.34 0 0 1-.618 1.057l-1.794 1.02a1.38 1.38 0 0 1-1.232 0L175.577 65.13a1.36 1.36 0 0 1-.613-1.062v-21.5a1.33 1.33 0 0 1 .618-1.057l1.799-1.024a1.36 1.36 0 0 1 1.213.005"/><path fill="#fff" d="m178.594 40.492 18.162 10.473a1.37 1.37 0 0 1 .628 1.043v21.524a1.34 1.34 0 0 1-.618 1.057l-1.794 1.02a1.38 1.38 0 0 1-1.232 0L175.577 65.13a1.36 1.36 0 0 1-.613-1.062v-21.5a1.33 1.33 0 0 1 .618-1.057l1.799-1.024a1.36 1.36 0 0 1 1.213.005" opacity=".1"/><path fill="#F7921E" d="m175.564 42.21 18.162 10.474a1.36 1.36 0 0 1 .614 1.066V75.27c0 .392-.274.547-.614.354l-6.952-4.012-1.275 3.545a.663.663 0 0 1-1.019.26.67.67 0 0 1-.227-.326l-1.694-5.91-6.995-4.036a1.35 1.35 0 0 1-.614-1.062V42.57c0-.397.274-.557.614-.359"/><path fill="#fff" d="m175.564 42.21 18.162 10.474a1.36 1.36 0 0 1 .614 1.066V75.27c0 .392-.274.547-.614.354l-6.952-4.012-1.275 3.545a.663.663 0 0 1-1.019.26.67.67 0 0 1-.227-.326l-1.694-5.91-6.995-4.036a1.35 1.35 0 0 1-.614-1.062V42.57c0-.397.274-.557.614-.359" opacity=".3"/><path fill="#FAFAFA" d="M181.832 65.225h-.184a1.35 1.35 0 0 1-1.038-.765l-2.172-4.578a1.35 1.35 0 0 1 2.445-1.147l1.284 2.685 6.202-7.221a1.36 1.36 0 0 1 .923-.467 1.35 1.35 0 0 1 1.126 2.227l-7.552 8.808a1.37 1.37 0 0 1-1.034.458"/><path fill="#fff" d="M174.96 42.45c.047-.306.302-.42.604-.245l18.163 10.479c.182.118.331.28.434.472l3.021-1.742a1.3 1.3 0 0 0-.425-.439l-18.163-10.478a1.38 1.38 0 0 0-1.232 0l-1.793 1.02a1.37 1.37 0 0 0-.609.934" opacity=".7"/><path fill="#263238" d="m173.893 199.688-1.468-.698 1.439-.406z"/><path fill="#263238" d="M159.393 202.45s17.218-7.812 17.44-6.665c.047.227.047.462 0 .689a1 1 0 0 0 .047-.061l-.307 2.147a5.14 5.14 0 0 1-2.676 1.128c0-.103 0-.741-.028-1.104a8.8 8.8 0 0 0-1.515.807c-1.105.732-1.808 2.001-2.974 3.479-.849 1.076-2.36 1.586-4.63 1.921-2.431.358-4.579-.09-5.192-.732-.486-.51-.25-1.458-.165-1.609"/><path fill="#C8856A" d="M159.87 202.048c.165-.175.774-.845 1.604-1.582a31 31 0 0 1 2.478-2.114 9.4 9.4 0 0 0 1.228-1.02c.302-.321.585-.651.854-1a18.6 18.6 0 0 0 2.058-3.507c.314-.58.555-1.197.717-1.836q.183-1.011.189-2.039c0-3.078-.071-3.564-.099-5.905l7.297.189c-.231 1.298-.58 3.072-.698 4.55-.175 2.247-.232 2.742.67 4.975.264.656.656 1.288.698 1.996.062 1.147-.845 2.143-1.864 2.71-.84.472-1.813.679-2.634 1.18a8.4 8.4 0 0 0-2.133 2.1c-.576.736-1.039 1.609-1.85 2.129a7.6 7.6 0 0 1-2.804.981 15.4 15.4 0 0 1-3.776.213c-1.798-.128-3.125-.76-1.935-2.02"/><path fill="#37474F" d="M166.586 198.494a3.31 3.31 0 0 0-2.681-.226 112 112 0 0 0-3.054 2.52c-.897.76-1.685 1.449-1.647 2.308.061 1.346 5.371 1.718 8.326.42a3.68 3.68 0 0 0 2.082-1.826s-.454-1.883-3.026-3.196m10.03-4.913a14 14 0 0 1-.637-1.308c-1.024.562-2.799 3.116-1.959 5.664a3.947 3.947 0 0 0 2.587-1.76 2.407 2.407 0 0 0 .009-2.596"/><path fill="#263238" d="M190.05 194.576c-.472.774.122 3.677 0 5.749-.104 1.888-.614 5.159-.052 7.014.67 2.199 2.039 4.748 4.606 2.676 1.596-1.289 2.511-2.941 2.738-5.664.161-1.888-.571-4.479-1.199-6.783-.736-2.695-1.015-4.134-1.015-4.134z"/><path fill="#C8856A" d="M195.203 180.666c.189 4.39-.33 7.467-.363 10.28.013 1.269.151 2.534.41 3.776.373 1.789 1.01 4.286 1.28 5.447.372 1.624.656 2.648.084 4.465a2 2 0 0 1-.184.416c-.797 1.5-2.832 2.633-3.478 2.449a1.129 1.129 0 0 1-1.142.392 1.3 1.3 0 0 1-.218-.052 2 2 0 0 1-.217-.085 2.18 2.18 0 0 1-1.081-1.378 4 4 0 0 1-.103-.397 16.6 16.6 0 0 1-.213-4.663c0-1.218 0-2.398-.104-4.04-.104-1.643-.358-6.684-.944-9.157-.429-1.723-.972-3.889-1.538-6.193z"/><path fill="#37474F" d="M196.912 202.303c-1.6-.694-6.24-.793-6.981 1.416 0 2.086-.033 3.502 1.312 5.319 1.784 2.417 4.111-.146 5.003-1.77s.897-3.842.666-4.965"/><path fill="#455A64" d="M189.152 123.352c2.261 3.979 4.083 7.334 4.673 17.841.665 11.862.566 16.379.623 17.809s1.001 4.059 1.798 11.106-.042 24.138-.042 24.138-.567 1.152-3.304 1.416a7.13 7.13 0 0 1-4.012-.637s-4.026-22.434-5.018-26.678c-.991-4.243-3.889-18.191-3.889-18.191l-.944 13.316s.803 3.884.076 10.077-2.592 17.893-2.592 17.893-1.076 1.072-4.389 1.006c-3.526-.066-4.248-1.029-4.248-1.029s-.788-25.167-.845-32.177-.472-25.219 1.704-35.617z"/><path fill="#37474F" d="M170.144 133.665c1.1 2.884 5.032 4.885 6.759 5.277l2.106 11.05v13.461l.944-13.315-2.36-13.466s-4.753-.283-7.449-3.007m16.327-1.529c.293 1.133.557 2.275.835 3.417.279 1.142.553 2.289.85 3.441a23 23 0 0 0-.264-3.545 36 36 0 0 0-.68-3.493 32 32 0 0 0-1.057-3.403 16.6 16.6 0 0 0-1.577-3.209 76 76 0 0 1 1.01 3.389c.312 1.133.609 2.279.883 3.422zm2.015-2.209c.392.684.77 1.378 1.147 2.067l1.114 2.12a9.3 9.3 0 0 0-.571-2.36 15.5 15.5 0 0 0-1.024-2.2 17.4 17.4 0 0 0-1.345-2.015 13 13 0 0 0-1.648-1.785c.364.727.76 1.416 1.152 2.106.392.689.793 1.397 1.175 2.086zm-1.557 32.058c-.718-3.625-1.232-7.292-1.747-10.964-.514-3.673-.991-7.354-1.538-11.026.255 3.705.552 7.401.944 11.096s.878 7.378 1.586 11.036 1.51 7.269 2.317 10.898a481 481 0 0 0 2.525 10.856 408 408 0 0 0-1.944-10.964c-.656-3.663-1.407-7.316-2.143-10.932m-16.52-11.989.543-9.676a150 150 0 0 0-1.133 9.639c-.274 3.223-.529 6.438-.515 9.709.132 3.252.222 16.114.633 19.323.283-3.592.189-13.069.189-13.069-.095-1.61 0-4.678-.062-6.273-.061-1.596.047-3.21.109-4.819.061-1.61.174-3.229.255-4.843z"/><path fill="#263238" d="M188.26 83.162c.024.155.472.472.595.604q.404.436.713.944a4.85 4.85 0 0 1 .59 2.36 7.35 7.35 0 0 1-1.072 3.568 22 22 0 0 1-2.232 3.03c-.694.831-1.383 1.666-2.072 2.497a1.33 1.33 0 0 1-.538.449 1.26 1.26 0 0 1-.623 0q-1.577-.27-3.158-.586a15.3 15.3 0 0 1-2.832-.778 8.25 8.25 0 0 1-3.719-3.14 5.75 5.75 0 0 1-1.015-2.284c-.028-.349.141-.642.061-1a7.4 7.4 0 0 0-.642-1.26 6.35 6.35 0 0 1-.599-3.172c.245-2.238 1.68-5.126 5.815-5.891 3.422-.67 9.969.189 10.728 4.659"/><path fill="#C8856A" d="M138.049 97.172a2.1 2.1 0 0 1 1.227-.052q.959.3 1.86.74c.944.369 2.478.973 3.507.803.208-.033.628-.17.311-.387a9 9 0 0 1-1.213-.902 1.77 1.77 0 0 1-.594-1.326c0-.152.058-.298.16-.41.156-.147.288-.08.434 0q.23.123.472.221.52.206 1.039.425c2.006.85 4.035 1.888 5.381 3.63a20 20 0 0 0 2.723 2.87c2.204 2.043 5.664 5.078 5.664 5.078l5.909-4.517c3.503-2.667 5.787-3.502 8.893-3.431l-3.229 9.912s-6.518 4.097-8.746 5.466c-2.898 1.774-4.286 1.93-6.136-.029-1.288-1.35-2.171-2.733-3.884-5.13-1.86-2.606-2.2-3.512-2.998-4.291-.797-.779-2.36-1.142-3.034-1.26a10.2 10.2 0 0 1-2.653-.774 9.5 9.5 0 0 1-2.115-1.166 2.8 2.8 0 0 1-.859-.793 9 9 0 0 0-.297-.916c-.198-.325-.543-.547-.703-.892a3.6 3.6 0 0 1-.17-.873 1.51 1.51 0 0 0-.774-.944 1.3 1.3 0 0 1-.472-.434c-.166-.33.037-.515.297-.619"/><path fill="#AF6152" d="M159.043 107.861a5.94 5.94 0 0 1 2.483 3.776c.552-2.544-1.718-4.366-1.718-4.366zM145.936 99.398a6.6 6.6 0 0 0 2.658 2.563 2.83 2.83 0 0 1-1.822-.651 2.52 2.52 0 0 1-.836-1.912"/><path fill="#F7921E" d="M191.371 128.473c1.336-1.053-.274-1.525-.637-8.024-.09-1.685 1.085-6.858 1.085-6.858s-2.416-3.672-1.279-11.763l-5.192-1.345-7.788-.439-3.705-.132a43 43 0 0 0-5.074 5.843c-2.233 3.125-2.1 7.198.208 9.752a50 50 0 0 1-.208 5.824c-.34 2.705-1.888 5.315-.34 6.675 4.517 3.979 16.629 4.46 22.93.467"/><path fill="#fff" d="M191.371 128.473c1.336-1.053-.274-1.525-.637-8.024-.09-1.685 1.085-6.858 1.085-6.858s-2.416-3.672-1.279-11.763l-5.192-1.345-7.788-.439-3.705-.132a43 43 0 0 0-5.074 5.843c-2.233 3.125-2.1 7.198.208 9.752a50 50 0 0 1-.208 5.824c-.34 2.705-1.888 5.315-.34 6.675 4.517 3.979 16.629 4.46 22.93.467" opacity=".6"/><path fill="#C8856A" d="M186.41 94.655a2.58 2.58 0 0 0 2.322-.821c1.242-1.293 1.379-2.63.826-3.526-.472-.741-1.59-1.227-2.407-.75-.816.476-.901.944-1.241 1.538s-1.161.114-.84-2.284c-1.657-.803-1.341-3.55-2.223-4.682-1.383-1.785-3.72-1.37-4.48-.968a3.1 3.1 0 0 0-3.172-.255c-1.132.571-1.888 1.798-2.36 6.06-.472 4.348-.136 6.609 1.147 7.798a5.38 5.38 0 0 0 3.649 1.444l-.071 1.836s-4.55 4.338 1.204 4.017a9.04 9.04 0 0 0 6.565-3.507l.151-6.608s.076.543.93.708"/><path fill="#AF6152" d="M176.993 93.726a1.28 1.28 0 0 0 1.492 1.01 1.26 1.26 0 0 0 .818-.515 1.25 1.25 0 0 0 .211-.944z"/><path fill="#F28F8F" d="M179.518 93.688a1.258 1.258 0 0 1-1.033 1.048 1.3 1.3 0 0 1-.472 0 1.3 1.3 0 0 1 .533-.84 1.3 1.3 0 0 1 .972-.208"/><path fill="#263238" d="m174.11 86.264 1.661-.51a.84.84 0 0 0-1.067-.58.885.885 0 0 0-.594 1.09M180.231 85.891l1.634.902a.873.873 0 0 0-.321-1.242.997.997 0 0 0-1.313.34M180.864 89.01a.685.685 0 1 1-1.37-.02.685.685 0 0 1 1.37.02M175.393 88.708a.685.685 0 1 1-1.37-.02.685.685 0 0 1 1.37.02"/><path fill="#37474F" d="M171.599 87.221c.012.243.098.477.245.67a.47.47 0 0 1 .104.236q.054.909.26 1.794a1.94 1.94 0 0 0 1.888 1.35q.352.03.703-.024h.052q.308-.048.59-.184h.038l.047-.023.066-.038a.3.3 0 0 0 .061-.038l.066-.042.066-.047q.063-.046.118-.1c.209-.187.385-.407.524-.65.364-.61.378-1.478.873-1.558h.123c.656.037.472.977.784 1.67.311.694.84 1.374 2.27 1.454h.335q.176-.003.349-.028h.284a2 2 0 0 0 .542-.227q.162-.106.293-.25c.2-.173.37-.379.5-.609q.356-.846.576-1.737a.8.8 0 0 1 .132-.255c.19-.162.327-.377.392-.618a.516.516 0 0 0-.34-.571l-.349-.061a11.6 11.6 0 0 0-3.488-.114c-1.133.236-1.553.548-2.167.515s-.915-.397-1.93-.765a10.1 10.1 0 0 0-3.247-.297h-.326a.554.554 0 0 0-.434.547m7.202.944q.147-.148.34-.226l.062-.029h.033l.16-.061.151-.047q.232-.076.472-.118l.194-.033a4 4 0 0 1 .472-.052h.118c1.071-.033 1.708.231 1.93.444.222.212 0 1.132-.132 1.595v.071c0 .056-.038.118-.061.184a1 1 0 0 0-.048.118c0 .061-.056.123-.089.189 0 .023 0 .047-.038.066a.2.2 0 0 1-.024.042.2.2 0 0 1-.023.043l-.038.052-.042.06a1 1 0 0 1-.048.062l-.056.066a1.83 1.83 0 0 1-1.553.59 2.02 2.02 0 0 1-1.515-.627 1.9 1.9 0 0 1-.416-.944c-.07-.543-.085-1.152.151-1.426zm-6.206-.755a1 1 0 0 1 .273-.141h.024l.118-.038h.236l.245-.024h.567q.237.019.472.062c.75.136 1.51.5 1.685.802.174.302.066.901-.085 1.416a3 3 0 0 1-.132.34v.085l-.024.042c0 .029-.033.057-.052.08a1 1 0 0 1-.047.076v.023l-.033.048-.033.042a1.82 1.82 0 0 1-1.652.604 1.9 1.9 0 0 1-.779-.212 1.941 1.941 0 0 1-.878-1.558c-.099-.514-.132-1.444.095-1.647"/><path fill="#AF6152" d="m175.063 91.497 2.412 1.076.572-3.059c-.081-.472-.161-.944-.557-.977z"/><path fill="#37474F" d="m183.432 87.73 3.719 1.827a4 4 0 0 0-.585.448l-3.243-1.51z"/><path fill="#AF6152" d="M177.621 98.209c2.247-.047 5.272-.779 6.103-2.186-.472 1.525-2.072 2.294-3.337 2.62-.903.236-1.829.377-2.761.42zM177.206 112.071c-1.416-.977-2.124-1.35-2.775-1.51-.652-.161-2.946-1.025-3.819-1.213-.557-.123-.755.745-.038 1.317.553.443 1.978 1 2.601 1.316s1.888 1.723 1.888 1.723z"/><path fill="#C8856A" d="M196.794 106.289c-1.454-2.832-3.913-3.776-6.254-4.451-1.242 3.025-.331 9.44-.331 9.44l1.704 7s-8.151-.944-9.109-1.497c-.959-.552-3.54-3.148-4.409-3.922-1.175-1.048-1.741-.887-2.322-.783-1.888.33-2.322.5-2.719.764a.85.85 0 0 0-.349.741c-.505.076-1.265.08-1.341.902a2.3 2.3 0 0 0 0 .656.55.55 0 0 0-.325.198c-.411.472.363 2.134.835 2.525a1.68 1.68 0 0 0 1.393.203c.514-.085.259-.59.259-.59l.722.024c1.582 1.038 1.723 3.186 3.776 3.601a14.3 14.3 0 0 1 2.521.411c4.465 1.336 11.842 5.56 15.793 5.782 3.856.222 3.691-1.789 3.686-4.107 0-2.081-2.081-14.065-3.53-16.897"/><path fill="#AF6152" d="m191.72 117.471.184.788c1.765.392 3.884 2.61 4.333 3.535-.359-1.482-1.402-3.601-4.517-4.323M173.005 113.563l2.256-.514-2.218.203a.8.8 0 0 0-.038.311M171.651 115.12l2.605-.401-2.615.104q-.012.15.01.297M174.015 117.073a1 1 0 0 1-.339-.472s-.628 0-.911-.033a3 3 0 0 1-.35-.089 1 1 0 0 1-.387-.227.8.8 0 0 0 .359.288q.19.089.397.127l.155.307a.6.6 0 0 0-.269.113.66.66 0 0 0-.217.34.85.85 0 0 1 .26-.288.54.54 0 0 1 .349-.07c.292.028.562.171.75.396l.723.024a5 5 0 0 1-.52-.416"/><path fill="#F7921E" d="m111.801 104.169 16.369 9.275a6.53 6.53 0 0 0 5.919-.047l16.218-9.539a6.55 6.55 0 0 0 2.921-5.154l-.155-18.814a6.54 6.54 0 0 0-3.002-5.103l-16.369-9.274a6.56 6.56 0 0 0-5.919.047l-16.218 9.539a6.54 6.54 0 0 0-2.917 5.154l.151 18.814a6.537 6.537 0 0 0 3.002 5.102"/><path fill="#F7921E" d="m150.099 78.205-16.218 9.539a6.56 6.56 0 0 0-2.917 5.154l.151 18.814c0 1.888 1.35 2.643 2.974 1.685l16.217-9.539a6.55 6.55 0 0 0 2.922-5.154l-.156-18.814c-.014-1.889-1.345-2.639-2.973-1.686"/><path fill="#fff" d="m150.099 78.205-16.218 9.539a6.56 6.56 0 0 0-2.917 5.154l.151 18.814c0 1.888 1.35 2.643 2.974 1.685l16.217-9.539a6.55 6.55 0 0 0 2.922-5.154l-.156-18.814c-.014-1.889-1.345-2.639-2.973-1.686" opacity=".35"/><path fill="#fff" d="M143.25 87.834q1.888-1.119 2.908-.52 1.02.6 1.015 2.705a8 8 0 0 1-.472 2.832 7.6 7.6 0 0 1-1.492 2.45l2.143 3.814q.046.094.052.198a.8.8 0 0 1-.099.377.6.6 0 0 1-.236.27l-1.293.764q-.303.18-.472.071a.7.7 0 0 1-.208-.236l-2.034-3.587-2.03 1.194.038 4.758a1 1 0 0 1-.118.472.8.8 0 0 1-.288.33l-1.237.727a.25.25 0 0 1-.146.047.25.25 0 0 1-.146-.047.38.38 0 0 1-.123-.316l-.109-13.216c0-.165.041-.327.118-.472a.8.8 0 0 1 .293-.335zm-2.237 7.778 2.214-1.302a4.4 4.4 0 0 0 1.383-1.223 3.03 3.03 0 0 0 .505-1.855c0-.764-.184-1.175-.529-1.227a2.26 2.26 0 0 0-1.392.425l-2.209 1.302z"/><path fill="#F7921E" d="m111.593 78.516 16.369 9.28a6.54 6.54 0 0 0 5.919-.052l16.218-9.54c1.629-.943 1.614-2.487-.028-3.416l-16.369-9.275a6.56 6.56 0 0 0-5.919.047l-16.218 9.539c-1.628.982-1.614 2.487.028 3.417"/><path fill="#fff" d="m111.593 78.516 16.369 9.28a6.54 6.54 0 0 0 5.919-.052l16.218-9.54c1.629-.943 1.614-2.487-.028-3.416l-16.369-9.275a6.56 6.56 0 0 0-5.919.047l-16.218 9.539c-1.628.982-1.614 2.487.028 3.417" opacity=".55"/><path fill="#F7921E" d="m111.593 78.516 16.369 9.28a6.54 6.54 0 0 1 3.002 5.101l.151 18.814c0 1.888-1.303 2.662-2.945 1.733l-16.369-9.275a6.55 6.55 0 0 1-2.112-2.192 6.55 6.55 0 0 1-.89-2.91l-.151-18.814c0-1.888 1.303-2.667 2.945-1.737"/><path fill="#fff" d="m111.593 78.516 16.369 9.28a6.54 6.54 0 0 1 3.002 5.101l.151 18.814c0 1.888-1.303 2.662-2.945 1.733l-16.369-9.275a6.55 6.55 0 0 1-2.112-2.192 6.55 6.55 0 0 1-.89-2.91l-.151-18.814c0-1.888 1.303-2.667 2.945-1.737" opacity=".15"/><path fill="#FFA8A7" d="m75.75 190.935-.34-6.466 7.33.887s-.302 3.483-.51 5.452c-.127 1.166 1.331 3.417 1.331 3.417s-3.559 1.666-5.376.916c-1.817-.751-2.672-3.106-2.62-3.606.052-.501.184-.6.184-.6"/><path fill="#263238" d="M92.926 201.948c.118 0 .245 1.208-.406 1.694-.75.562-2.927 1.449-5.74 1.001s-4.314-1.326-5.409-2.251c-1.095-.926-2.634-2.238-3.903-2.549-1.18-.288-2.45-.84-2.832-1.199-.383-.359-.255-1.888-.255-1.888z"/><path fill="#455A64" d="M75.745 190.926a.47.47 0 0 0-.439.34c-.104.42-.245 1.637-.472 2.322a11.5 11.5 0 0 0-.42 3.7c.127.789 2.044 1.416 3.262 1.888a15.9 15.9 0 0 1 3.917 2.516c1.289 1.076 4.045 2.247 5.886 2.303 2.18.067 4.659-.505 5.258-1.416.741-1.142 1.298-2.482-1.888-4.002-.6-.288-2.705-1.562-3.422-2.02-1.935-1.242-3.304-2.36-4.12-4.461a1.16 1.16 0 0 0-.444-.651 1.1 1.1 0 0 0-.623-.076 22.6 22.6 0 0 0-3.2.449c-.44.174-1.067.377-1.077.897a1.6 1.6 0 0 0 .104.533c.033.109.057.25-.042.312-.1.061-.217 0-.302-.09a8 8 0 0 1-.831-1.015 3 3 0 0 0-.496-.505 6 6 0 0 1-.538-.354c-.165-.203-.113-.425-.113-.67"/><path fill="#37474F" d="M81.607 201.697a19 19 0 0 0-1.713-1.298s3.715 2.303 5.291 1.378c1.01-.595.571-1.378.557-1.628s3.554-1.822 4.498-1.917c.265.147.472.269.623.336 3.177 1.519 2.62 2.86 1.888 4.002-.6.944-2.402 1.595-5.22 1.492-1.846-.071-4.635-1.289-5.924-2.365"/><path fill="#37474F" d="M85.52 199.426c1.983.826 1.114 1.143.548 1.199s-3.88-1.921-5.881-3.525c-2.096-1.671-3.385-3.465-4.159-4.079a12 12 0 0 1-.878-.774c.066-.41.128-.783.175-.981a.47.47 0 0 1 .439-.34c0 .245-.052.472.137.661q.258.192.538.354.276.224.496.505.372.542.83 1.014c1.657 2.148 5.759 5.136 7.755 5.966"/><path fill="#263238" d="M85.917 200.342a.2.2 0 0 1-.128-.047.176.176 0 0 1 0-.26c.59-.632 3.337-2.072 4.81-1.864a.18.18 0 0 1 .145.065.19.19 0 0 1 .044.152.2.2 0 0 1-.088.132.2.2 0 0 1-.077.027.2.2 0 0 1-.08-.008c-1.374-.189-3.99 1.241-4.456 1.742a.2.2 0 0 1-.078.051.2.2 0 0 1-.092.01M84.203 199.271a.2.2 0 0 1-.127-.043.18.18 0 0 1-.056-.132.19.19 0 0 1 .056-.132c.595-.628 3.342-2.067 4.814-1.864a.18.18 0 0 1 .145.065.18.18 0 0 1 .044.152.19.19 0 0 1-.164.159.2.2 0 0 1-.081-.008c-1.379-.189-3.989 1.246-4.456 1.741a.2.2 0 0 1-.175.062M82.485 198.246a.179.179 0 0 1-.127-.311c.59-.628 3.337-2.068 4.81-1.86q.038.003.072.022a.19.19 0 0 1 .098.19.197.197 0 0 1-.227.156c-1.374-.189-3.989 1.242-4.456 1.742a.2.2 0 0 1-.17.061M80.9 197.096a.2.2 0 0 1-.123-.047.2.2 0 0 1-.056-.133.2.2 0 0 1 .014-.071.2.2 0 0 1 .042-.061c.594-.627 3.346-2.067 4.814-1.859a.2.2 0 0 1 .07.021.2.2 0 0 1 .057.047.2.2 0 0 1 .038.139.2.2 0 0 1-.077.126.2.2 0 0 1-.145.035c-1.373-.189-3.988 1.241-4.455 1.741a.2.2 0 0 1-.083.051q-.047.016-.097.011M79.35 195.967a.2.2 0 0 1-.122-.047.18.18 0 0 1-.043-.201.2.2 0 0 1 .043-.059c.817-.892 3.682-2.077 5.154-1.888q.039.004.073.022a.19.19 0 0 1 .097.19.197.197 0 0 1-.226.156c-1.326-.184-4.069.944-4.791 1.742a.214.214 0 0 1-.184.085"/><path fill="#FFA8A7" d="m60.684 193.631 1.826-6.061-7.476-1.336-.472 5.896s-.845 2.086-.406 2.874 5.404 1.78 5.876 1.284.652-2.657.652-2.657"/><path fill="#263238" d="M59.603 206.912c-.288 1.888-.732 3.092-1.586 4.083s-2.323 1.119-3.743.557c-1.421-.562-3.21-1.732-3.484-3.441a9.25 9.25 0 0 1 .392-4.531z"/><path fill="#455A64" d="M54.562 192.13c-.605-.057-.543 2.544-1.11 5.045-.608 2.686-1.628 3.673-2.152 5.867-.6 2.511-.543 3.682.335 5.4s4.333 3.814 6.292 1.888c1.595-1.586 1.831-3.587 1.921-6.174.019-2.19.162-4.377.43-6.551.283-1.888.901-3.587.4-3.885-.06.274-.131.628-.198.897-.066.269-.202 1.242-.538 1.199a3.4 3.4 0 0 1 .057-.727.83.83 0 0 0-.113-.646 2.7 2.7 0 0 0-.944-.529 26 26 0 0 0-2.214-.604 10 10 0 0 0-.892-.175 2.5 2.5 0 0 0-.77-.023.47.47 0 0 0-.344.207.7.7 0 0 0-.057.288q-.022.266-.118.515c-.028.07-.099.155-.179.122a.15.15 0 0 1-.071-.07.16.16 0 0 1-.014-.1c0-.311.09-.528.137-.887 0-.165.07-.387.085-.552s.028-.345.057-.505"/><path fill="#37474F" d="M51.498 202.334c-.09.359-.651 2.756.062 3.304.712.548 1.392-1.232 1.392-1.232s1.954-.212 4.64 1.312c-.175.378.141 1.761.944 1.605s1.321-2.922 1.33-2.959c-.098 2.478-.363 4.413-1.887 5.952-1.96 1.939-5.414-.156-6.292-1.888-.878-1.733-.944-2.889-.335-5.4a4 4 0 0 1 .146-.694"/><path fill="#37474F" d="M53.15 204.61c-.094.944-1.1.443-1.029-.873s1.142-4.305 1.331-6.561c.288-3.097.505-5.103 1.11-5.046v.09l-.194 1.288a5 5 0 0 0-.08.553c-.18 1.888-.34 5.574-.675 7.278a27 27 0 0 0-.463 3.271M57.261 205.644a26 26 0 0 0 .855-3.167c.354-1.685 1.491-5.041 2.062-6.849a4.1 4.1 0 0 0 .302-1.024c.062-.25.128-.576.184-.84a.3.3 0 0 0 0-.057c.36.222.18 1.685-.042 2.44s-.496 1.563-.779 2.643c-.703 2.129-.883 5.358-1.33 6.58-.45 1.223-1.526 1.157-1.252.274"/><path fill="#263238" d="M57.635 205.804a.3.3 0 0 1-.076-.033 8.3 8.3 0 0 0-4.574-1.166.245.245 0 0 1-.26-.179.18.18 0 0 1 .101-.201.2.2 0 0 1 .08-.016 8.63 8.63 0 0 1 4.889 1.246.2.2 0 0 1 .06.054.2.2 0 0 1 .005.229.208.208 0 0 1-.227.066M58.31 203.869l-.071-.029a10.2 10.2 0 0 0-5.121-1.303.245.245 0 0 1-.25-.188.18.18 0 0 1 .105-.198.2.2 0 0 1 .078-.015 10.6 10.6 0 0 1 5.41 1.383.2.2 0 0 1 .1.122.2.2 0 0 1-.02.157.2.2 0 0 1-.105.071.2.2 0 0 1-.127 0M53.424 200.645a.226.226 0 0 1-.175-.16.18.18 0 0 1 .161-.231c2.752-.378 5.296 1.26 5.404 1.331a.199.199 0 0 1 .066.283.226.226 0 0 1-.302.033c-.028 0-2.497-1.605-5.06-1.251a.2.2 0 0 1-.094-.005M53.74 198.864a.24.24 0 0 1-.174-.16.18.18 0 0 1 .15-.231 8.02 8.02 0 0 1 5.518 1.331.2.2 0 0 1 .09.13.2.2 0 0 1-.038.153.23.23 0 0 1-.311 0 7.63 7.63 0 0 0-5.14-1.237.2.2 0 0 1-.095.014M54.094 196.865a.26.26 0 0 1-.107-.056.24.24 0 0 1-.067-.1.18.18 0 0 1 .02-.151.2.2 0 0 1 .057-.055.2.2 0 0 1 .074-.025c2.832-.472 5.442 1.312 5.55 1.392a.2.2 0 0 1 .093.209.2.2 0 0 1-.031.074.236.236 0 0 1-.312.024s-2.534-1.751-5.192-1.307a.3.3 0 0 1-.085-.005"/><path fill="#455A64" d="M61.188 126.928c-2.227 14.863-3.011 36.268-3.011 36.268-.184 1.128-1.232 4.461-2.28 10.002-.944 4.937-1.298 15.302-1.335 15.93 0 0 3.865 2.657 7.202 1.779 0 0 4.904-15.146 7.08-21.985 2.044-6.467 4.876-16.903 4.876-16.903l.703 10.804s-.543 4.319-.637 7.307c-.104 3.479 1.581 17.417 1.581 17.417s3.814 2.44 7.392.028c0 0 3.195-20.093 3.592-24.256.774-8.166 1.803-24.974 1.36-35.093z"/><path fill="#263238" d="m73.72 152.02 2.445-10.512s3.993-.302 6.136-2.02c0 0-1.487 2.36-5.282 3.068l-2.36 9.558-.25 10.71z"/><path fill="#FFA8A7" d="M99.491 86.38c-.75 3.483-.325 3.091-2.322 5.829-4.196 5.763-9.232 12.546-9.232 12.546-4.498 1.746-4.838-4.083-7.552-7.033 2.464-2.577 3.478-2.582 6.457-6.046l4.998-5.787s1.416-3.696 2.582-7.08c1.473-4.248 1.954-4.852 1.308-6.896a17 17 0 0 1-.506-2.908c-.179-1.416-.146-2.865-.26-4.295a.6.6 0 0 1 .024-.297c.16-.359.638-.113.855.047.273.25.461.581.538.944.137.472.255.916.387 1.378.033.123.113.553.288.548.174-.005.16-.472.17-.571.033-.472 0-.944 0-1.416l-.128-3.536a1.6 1.6 0 0 1 .029-.472c.17-.627.892-.542 1.18.133q.112.27.174.556.18.885.255 1.785.022.371.094.736c0 .052.085.392.18.25a.2.2 0 0 0 .023-.118c0-.798-.042-1.6-.08-2.398 0-.406-.033-.811-.033-1.217 0-.27-.07-.77.142-.982a.5.5 0 0 1 .269-.123.86.86 0 0 1 .816.35q.147.221.241.471.083.262.123.534c.189-.472.798-.335 1.029.033.354.562.363 1.194.401 1.977.042.888.061 1.317.066 2.648 0 .26.123.42.17.128q.062-.36.08-.727c0-.311 0-.41.033-.736.029-.435 0-1.256.132-1.416.133-.16.439-.085.595.042.113.107.197.24.246.387.297.946.375 1.947.226 2.927-.056.788-.127 1.576-.193 2.36-.128 1.449-.269 2.954-1.015 4.2a6 6 0 0 0-.628 1.483c-.472 1.77-.741 3.776-1.109 5.862-.26 1.557-.477 3.257-1.053 5.9"/><path fill="#F28F8F" d="M98.297 68.057c1.313-.1 1.888 1.652 2.101 2.667.047.198-.029.811-.241.363-.076-.156-.142-.312-.217-.472q-.206-.45-.472-.868a3.6 3.6 0 0 0-1.204-1.218c-.132-.076-.302-.189-.26-.34a.25.25 0 0 1 .232-.156zM100.521 61.34c-.042 1.57.065 3.141.32 4.691a16.1 16.1 0 0 0-.32-4.691"/><path fill="#37474F" d="M81.603 96.273a63 63 0 0 0 5.697-5.527c1.694-1.812 4.337-4.908 4.337-4.908l3.56-9.186s.471 1.001 2.61 1.624 3.138-.09 3.138-.09-.529 4.602-1.19 7.958-.438 3.45-2.553 6.504-7.656 10.625-9.11 12.428-3.12 5.461-3.12 5.362-3.37-14.165-3.37-14.165"/><path fill="#F0F0F0" d="M70.057 98.111a45 45 0 0 0-7.977 2.908s-1.963 4.248-1.085 13.999c.141 1.558.472 5.759.637 9.001a51 51 0 0 1-.165 7.921s4.035 3.634 14.707 2.987c8.373-.509 10.941-3.913 10.941-3.913s.123-11.285 0-17.464c-.17-8.109-2.553-12.824-4.342-14.263l-5.476-.996z"/><path fill="#F7921E" d="M69.09 98.131v.543s1.94 4.852 1.972 14.358-.391 24.723-.391 24.723-6.49-.226-10.79-3.776c0 0 .944-8.231.892-12.012s-1-9.251-1.997-14.632c-1.01-5.475 6.707-12.626 6.707-12.626a12.75 12.75 0 0 0 3.606 3.422M77.496 97.697c1.95-.118 2.549-.472 4.11-1.416a26.66 26.66 0 0 1 5.386 12.551c1.03 7.471 1.336 25.549 1.336 25.549a13 13 0 0 1-3.597 1.293s-.207-8.902-.561-17.105c-.43-9.912-1.01-16.133-6.684-20.244z"/><path fill="#000" d="m69.944 109.944.113-.212c-.944-.401-1.945-.779-2.922-1.157-.085-2.902-.212-5.914-.43-8.798-.075 2.941-.051 6.004 0 8.968v.142l.133.052a105 105 0 0 0 2.6 1.029l-1.085 2.096c-.425.802-.816 1.623-1.227 2.43l.08.071q1.5 1.416 3.045 2.757a131 131 0 0 0-2.762-2.884c.77-1.322 1.756-3.177 2.455-4.494m16.737 1.78c-.66-1.11-1.34-2.205-2.025-3.304l1.048-1.534.061-.09c-.944-2.917-2.709-5.499-4.72-7.755a35.7 35.7 0 0 1 3.474 5.721 18 18 0 0 1 .765 1.963l-1.058 1.567-.08.118.076.123a138 138 0 0 0 2.166 3.304c-.472 1.246-.977 2.492-1.416 3.752a109 109 0 0 0 1.747-3.71l.033-.07z" opacity=".3"/><path fill="#263238" d="M67.72 81.272s-1.543.075-2.265 1.25-1.166 3.304-.245 5.712c1.01 2.638 2.983 5.192 3.412 5.918.282.465.731.803 1.256.944l-.222-3.247-.222-2.26s1.756-1.738 1.846-3.371a5.2 5.2 0 0 0-.76-3.257z"/><path fill="#263238" d="M79.001 84.576a8.3 8.3 0 0 0-2.978-.505l-2.733-.061-2.926-.062s-3.134-.387-3.234-2.59a3.4 3.4 0 0 1 .562-1.993 6.7 6.7 0 0 1 1.548-1.614 8.46 8.46 0 0 1 4.196-1.628c1.196-.103 2.4-.049 3.583.16a7 7 0 0 0 2.416.1 1.45 1.45 0 0 0 1.242-1.063 2.53 2.53 0 0 1 .377 2.719 1.79 1.79 0 0 1 1.78 1.246c.264.836-.1 1.534-.571 2.19.061-.08.401.529.425.58a1.69 1.69 0 0 1-.883 2.446 3.13 3.13 0 0 1-2.804.075"/><path fill="#FFA8A7" d="M66.725 92.888c1.718.75 2.43-.618 2.43-.618l-.07 6.405c2.747 4.782 11.399 3.838 8.883.085l-.047-1.888q.736-.037 1.453-.208c2.327-.519 2.87-1.94 3.163-3.591.472-2.563.221-6.094-.855-10.12-.207-.779-.585-1.624-1.321-1.95-1.827-.807-3.427.543-5.877 1.62-1.02.448-3.516.736-4.186.471.91.944 1.033 3.956-.194 5.244a2.8 2.8 0 0 1-.609.864c-.524.5-1.024-.708-1.5-1.166a1.888 1.888 0 0 0-2.894.798 3.06 3.06 0 0 0 1.624 4.054"/><path fill="#F28F8F" d="M77.93 96.872c-1.959.076-3.63-.085-5.003-.746-1.133-.538-2.743-2.11-3.144-3.644.137 2.478 1.105 3.606 2.894 4.451 1.788.845 3.993.944 5.276.902z"/><path fill="#263238" d="m74.81 84.774-1.458 1.053a.944.944 0 0 1 .212-1.289.88.88 0 0 1 1.246.236M81.177 85.01l-1.652-.73a.86.86 0 0 1 1.161-.473.944.944 0 0 1 .491 1.204M74.107 87.134a.731.731 0 1 0 1.458-.117.731.731 0 0 0-1.458.117M79.568 86.667a.73.73 0 1 0 1.458-.114.726.726 0 0 0-.783-.67.665.665 0 0 0-.675.784"/><path fill="#F28F8F" d="m77.16 85.842.803 4.63 2.421-1.015a10.9 10.9 0 0 0-3.223-3.615"/><path fill="#B16668" d="m75.47 90.986 3.012.718a1.63 1.63 0 0 1-1.92 1.175 1.51 1.51 0 0 1-1.091-1.893"/><path fill="#F28F8F" d="M77.284 92.87a2.2 2.2 0 0 0-1.889-1.5 1.5 1.5 0 0 0 1.889 1.5"/><path fill="#F7921E" d="m63.921 70.638 16.818 8.434a6.55 6.55 0 0 0 5.91-.344l15.717-10.346a6.54 6.54 0 0 0 2.652-5.292l-1.09-18.785a6.551 6.551 0 0 0-3.257-4.942l-16.827-8.44a6.55 6.55 0 0 0-5.909.35L62.217 41.624a6.54 6.54 0 0 0-2.657 5.286l1.11 18.786a6.55 6.55 0 0 0 3.251 4.942"/><path fill="#000" d="m63.921 70.638 16.818 8.434a6.55 6.55 0 0 0 5.91-.344l15.717-10.346a6.54 6.54 0 0 0 2.652-5.292l-1.09-18.785a6.551 6.551 0 0 0-3.257-4.942l-16.827-8.44a6.55 6.55 0 0 0-5.909.35L62.217 41.624a6.54 6.54 0 0 0-2.657 5.286l1.11 18.786a6.55 6.55 0 0 0 3.251 4.942" opacity=".4"/><path fill="#F7921E" d="M100.86 42.77 85.147 53.118a6.54 6.54 0 0 0-2.652 5.296l1.1 18.78c.113 1.889 1.477 2.573 3.053 1.535l15.718-10.347a6.54 6.54 0 0 0 2.653-5.29l-1.091-18.786c-.122-1.884-1.491-2.568-3.068-1.534"/><path fill="#fff" d="M90.967 70.174a.25.25 0 0 1-.293.024.38.38 0 0 1-.141-.311l-.765-13.16a1 1 0 0 1 .1-.472.8.8 0 0 1 .268-.35l4.352-2.874a3.3 3.3 0 0 1 1.605-.642c.39-.03.775.088 1.08.33.293.252.51.579.629.945.14.387.225.792.25 1.203q.036.587-.057 1.166a6.6 6.6 0 0 1-.24 1.006q-.132.402-.307.788a4 4 0 0 1-.255.472c.367.118.688.349.915.66.336.517.51 1.122.5 1.738a7.2 7.2 0 0 1-.117 1.675 8.8 8.8 0 0 1-.524 1.775 7.7 7.7 0 0 1-.944 1.643 5.3 5.3 0 0 1-1.36 1.288zm5.088-13.895c-.028-.52-.17-.831-.42-.944-.25-.114-.637 0-1.147.34l-2.615 1.722.184 3.14 2.615-1.724c.457-.28.835-.671 1.1-1.137.223-.43.322-.914.283-1.397m-3.644 10.299 2.733-1.803c.497-.304.9-.74 1.161-1.26.23-.466.333-.983.302-1.501a1.12 1.12 0 0 0-.472-1.006q-.424-.236-1.203.283l-2.738 1.799z"/><path fill="#F7921E" d="m62.42 45.027 16.818 8.44a6.55 6.55 0 0 0 5.91-.35l15.712-10.346c1.577-1.034 1.487-2.563-.198-3.408l-16.817-8.44a6.55 6.55 0 0 0-5.91.35L62.218 41.624c-1.577 1.029-1.487 2.558.203 3.403"/><path fill="#fff" d="m62.42 45.027 16.818 8.44a6.55 6.55 0 0 0 5.91-.35l15.712-10.346c1.577-1.034 1.487-2.563-.198-3.408l-16.817-8.44a6.55 6.55 0 0 0-5.91.35L62.218 41.624c-1.577 1.029-1.487 2.558.203 3.403" opacity=".15"/><path fill="#F7921E" d="m62.42 45.028 16.818 8.44a6.55 6.55 0 0 1 3.257 4.946l1.1 18.78c.113 1.889-1.166 2.724-2.833 1.889l-16.817-8.435a6.55 6.55 0 0 1-3.276-4.951L59.56 46.91c-.104-1.888 1.17-2.728 2.86-1.883"/><path fill="#000" d="m62.42 45.032 16.818 8.435a6.53 6.53 0 0 1 3.252 4.946l1.104 18.78c.109 1.889-1.165 2.724-2.832 1.889l-16.817-8.435a6.57 6.57 0 0 1-3.257-4.946L59.56 46.91c-.108-1.884 1.17-2.729 2.86-1.88" opacity=".2"/><path fill="#FFA8A7" d="M73.96 62.953a.56.56 0 0 0-.264-.434.59.59 0 0 0-.542.029q-.245.15-.425.372-.617.695-1.147 1.459c-.076.108-.656.916-.642.472.027-.184.085-.363.17-.529a76 76 0 0 0 1.978-4.356c.132-.312.217-.845-.104-1.081a.77.77 0 0 0-.944.203 3 3 0 0 0-.373.472 16 16 0 0 0-.92 1.562 6 6 0 0 1-.36.647c-.028.042-.226.33-.264.165a.25.25 0 0 1 0-.118c.284-.75.638-1.468.977-2.195.17-.368.336-.736.472-1.114.1-.255.36-.689.241-.944a.5.5 0 0 0-.203-.212.85.85 0 0 0-.887 0q-.226.152-.406.354-.175.223-.312.472c0-.472-.618-.614-.944-.359a3.9 3.9 0 0 0-1.114 1.685c-.32.699-.618 1.416-.944 2.115-.236.538-.396 1.118-.66 1.656-.052.114-.123.218-.25.203-.034-1.071.646-2.36-.425-3.157a.5.5 0 0 0-.203-.1c-.368-.047-.902 2.323-1.02 2.686-.234.724-.392 1.471-.472 2.228a9.6 9.6 0 0 1-.17 1.95 7.3 7.3 0 0 1-.708 1.618c-.59.93-1.28 1.793-2.058 2.573-1.057 1.128-1.973 1.935-3.275 3.417a18 18 0 0 0 2.548 1.638 13.5 13.5 0 0 0 3.62 1.194 192 192 0 0 1 2.804-4.564q.073-.115.151-.222c.052-.07.147-.184.222-.269 1.01-1.133 2.219-1.888 3.21-3.059a21 21 0 0 0 1.973-3.04c.264-.471.472-.943.76-1.363a9 9 0 0 0 .755-1.416 1.4 1.4 0 0 0 .118-.557.13.13 0 0 0 .038-.08"/><path fill="#F28F8F" d="M70.034 58.115a25 25 0 0 1-2.058 4.248 16 16 0 0 1 2.058-4.248"/><path fill="#37474F" d="M65.479 94.69a63 63 0 0 1-3.351-7.198c-.944-2.298-1.374-3.776-1.374-3.776l6.136-10.643s-.835.226-2.832-.944-1.822-2.242-1.822-2.242-6.514 5.98-8.906 8.694c-2.266 2.563-2.02 3.55-1.133 7.156s3.776 11.837 4.479 14.042 2.096 7.551 2.096 7.551c3.096.812 7.66-5.763 6.707-12.64"/></svg>