<svg xmlns="http://www.w3.org/2000/svg" width="256" height="256" fill="none"><path stroke="#D5D5D5" d="M242.172 175.105c0 18.215-12.663 34.798-33.338 46.855-20.663 12.049-49.241 19.518-80.834 19.518s-60.171-7.469-80.834-19.518c-20.674-12.057-33.338-28.64-33.338-46.855s12.664-34.797 33.338-46.854c20.663-12.05 49.24-19.519 80.834-19.519 31.593 0 60.171 7.469 80.834 19.519 20.675 12.057 33.338 28.64 33.338 46.854Z"/><path fill="#F7921E" d="m167.105 210.435-.236-15.462-16.241 1.614v3.53l16.477 13.849z"/><path fill="#000" d="m167.105 210.435-.236-15.462-16.241 1.614v3.53l16.477 13.849z" opacity=".3"/><path fill="#F7921E" d="m150.628 196.587 16.477 13.848-.236-15.462zM120.811 219.923c-16.147-1.355-30.967-7.831-38.265-17.271l.274-3.304 5.664-1.307c7.425 9.605 25.597 15.685 43.202 14.453 10.422-.732 19.414-3.932 24.676-8.784l5.381 2.232-.278 3.304c-6.608 6.08-16.992 9.912-29.264 10.762a74.4 74.4 0 0 1-11.39-.085"/><path fill="#000" d="M120.811 219.923c-16.147-1.355-30.967-7.831-38.265-17.271l.274-3.304 5.664-1.307c7.425 9.605 25.597 15.685 43.202 14.453 10.422-.732 19.414-3.932 24.676-8.784l5.381 2.232-.278 3.304c-6.608 6.08-16.992 9.912-29.264 10.762a74.4 74.4 0 0 1-11.39-.085" opacity=".15"/><path fill="#F7921E" d="M155.938 201.047c-5.339 4.498-13.995 7.453-23.954 8.152-17.611 1.232-35.778-4.848-43.207-14.453l-5.957 4.607c7.302 9.44 22.123 15.916 38.27 17.27a74 74 0 0 0 11.418.085c12.271-.859 22.655-4.682 29.263-10.761z"/><path fill="#37474F" d="M161.106 170.296V49.413c0-3.111 1.543-3.97 2.917-4.763s3.63-1.27 5.579-.146l49.919 28.82a7.81 7.81 0 0 1 3.53 6.136v120.865c0 2.251-1.416 3.578-2.784 4.371-1.369.793-3.776 1.661-5.716.533l-49.919-28.82a6.63 6.63 0 0 1-3.526-6.113"/><path fill="#263238" d="m164.278 171.424 51.335 29.637V79.653l6.424-3.71a7.25 7.25 0 0 1 1.033 3.479v120.903c0 2.251-1.416 3.578-2.785 4.371-1.368.792-3.776 1.661-5.715.533l-49.938-28.82a6.7 6.7 0 0 1-3.054-3.408l.198-.114z"/><path fill="#455A64" d="M161.918 49.988v120.677a6.23 6.23 0 0 0 2.808 4.861l48.73 28.132c2.095 1.208 3.813.221 3.813-2.195V81.575a5.48 5.48 0 0 0-2.482-4.29l-50.061-28.92c-1.543-.892-2.808-.16-2.808 1.623"/><path fill="#000" d="M164.344 55.718v112.081a5.91 5.91 0 0 0 2.667 4.625l45.128 26.055c1.472.854 2.667.17 2.667-1.539V84.038a5.97 5.97 0 0 0-1.888-4.022c-.085-.075-.17-.155-.255-.226a4.5 4.5 0 0 0-.543-.373l-12.692-7.33-.826-.472c-.472-.265-.831-.052-.831.472s-.396.731-.883.443l-14.792-8.538a1.88 1.88 0 0 1-.887-1.463 1.9 1.9 0 0 0-.741-1.388l-.085-.052-12.381-7.165-.264-.156c-1.86-1.071-3.394-.198-3.394 1.95"/><path fill="#263238" d="M170.9 169.428a5.9 5.9 0 0 1-2.667-4.621V54.057l12.187 7.032.085.052a1.9 1.9 0 0 1 .741 1.388 1.883 1.883 0 0 0 .888 1.463l14.778 8.539c.472.288.883.085.883-.444s.372-.741.83-.472l.826.472 12.692 7.33q.286.166.543.373c.085.07.17.151.255.227a5.97 5.97 0 0 1 1.888 4.021v110.75z"/><path fill="#263238" d="m194.68 68.024-6.783-3.918c-.406-.23-.732-.066-.732.373a1.556 1.556 0 0 0 .732 1.218l6.783 3.918c.405.23.731.066.731-.373a1.57 1.57 0 0 0-.731-1.218M184.418 61.775c-.472-.26-.826-.047-.826.472a1.82 1.82 0 0 0 .826 1.416c.472.264.826.052.826-.472a1.83 1.83 0 0 0-.826-1.416"/><path fill="#455A64" d="M218.421 93.941a2.98 2.98 0 0 1 1.303-2.36.87.87 0 0 1 .897-.07c.16.099.807.471.977.556a1.03 1.03 0 0 1 .401.944v9.832a2.99 2.99 0 0 1-1.303 2.36.89.89 0 0 1-.864.095 32 32 0 0 1-1.01-.581 1.03 1.03 0 0 1-.401-.944z"/><path fill="#37474F" d="M219.389 94.488v9.865c0 .883.585 1.265 1.307.85a3 3 0 0 0 1.303-2.36v-9.85c0-.883-.585-1.266-1.303-.85a2.98 2.98 0 0 0-1.307 2.345"/><path fill="#455A64" d="M218.421 111.183a2.98 2.98 0 0 1 1.303-2.36.87.87 0 0 1 .896-.075c.161.099.808.472.978.561a1.02 1.02 0 0 1 .401.944v9.851a2.99 2.99 0 0 1-1.303 2.36.89.89 0 0 1-.864.09 46 46 0 0 1-1.01-.576 1.03 1.03 0 0 1-.401-.944z"/><path fill="#37474F" d="M219.389 111.741v9.85c0 .888.585 1.27 1.307.855a3 3 0 0 0 1.303-2.36v-9.851c0-.887-.585-1.27-1.303-.854a2.97 2.97 0 0 0-1.307 2.36M94.894 170.296V49.413c0-3.111-1.544-3.97-2.917-4.763-1.374-.793-3.63-1.27-5.58-.146L36.48 73.324a7.8 7.8 0 0 0-3.53 6.136v120.865c0 2.251 1.416 3.578 2.784 4.371 1.37.793 3.776 1.661 5.716.533l49.919-28.82a6.63 6.63 0 0 0 3.526-6.113"/><path fill="#263238" d="m91.722 171.424-51.335 29.651V79.667l-6.424-3.71a7.25 7.25 0 0 0-1.033 3.479v120.888c0 2.252 1.416 3.578 2.785 4.371 1.368.793 3.775 1.661 5.715.533l49.92-28.82A6.7 6.7 0 0 0 94.402 173l-.198-.113z"/><path fill="#455A64" d="M91.274 48.365 41.213 77.27a5.48 5.48 0 0 0-2.483 4.29V201.45c0 2.416 1.718 3.403 3.813 2.194l48.73-28.131a6.23 6.23 0 0 0 2.808-4.861V49.988c0-1.784-1.265-2.515-2.808-1.623"/><path fill="#000" d="M91.656 55.718v112.081a5.92 5.92 0 0 1-2.667 4.625l-45.147 26.055c-1.472.854-2.666.17-2.666-1.539V84.038a5.97 5.97 0 0 1 1.887-4.022c.085-.075.17-.155.255-.226q.258-.207.543-.373l12.692-7.33.826-.472c.472-.265.831-.052.831.472s.396.731.883.443l14.792-8.538a1.89 1.89 0 0 0 .887-1.463 1.89 1.89 0 0 1 .741-1.388l.085-.052 12.419-7.165.264-.156c1.84-1.071 3.375-.198 3.375 1.95"/><path fill="#263238" d="M85.1 169.428a5.9 5.9 0 0 0 2.667-4.621V54.057L75.58 61.089l-.085.052a1.89 1.89 0 0 0-.741 1.388 1.89 1.89 0 0 1-.888 1.463l-14.778 8.539c-.472.288-.883.085-.883-.444s-.372-.741-.83-.472l-.826.472-12.707 7.33q-.284.166-.542.373c-.085.07-.17.151-.255.227a5.97 5.97 0 0 0-1.888 4.021v110.75z"/><path fill="#263238" d="m61.32 68.024 6.783-3.918c.406-.23.732-.066.732.373a1.56 1.56 0 0 1-.732 1.218l-6.782 3.918c-.407.23-.732.066-.732-.373a1.56 1.56 0 0 1 .732-1.218M71.582 61.775c.472-.26.826-.047.826.472a1.82 1.82 0 0 1-.826 1.416c-.472.264-.826.052-.826-.472a1.84 1.84 0 0 1 .826-1.416"/><path fill="#455A64" d="M37.579 93.941a2.98 2.98 0 0 0-1.303-2.36.87.87 0 0 0-.897-.07c-.16.099-.807.471-.977.556a1.03 1.03 0 0 0-.401.944v9.832a2.99 2.99 0 0 0 1.303 2.36.889.889 0 0 0 .864.095c.179-.095.835-.472 1.01-.581a1.02 1.02 0 0 0 .4-.944z"/><path fill="#37474F" d="M36.611 94.488v9.865c0 .883-.585 1.265-1.307.85a2.99 2.99 0 0 1-1.303-2.36v-9.85c0-.883.586-1.266 1.303-.85a2.98 2.98 0 0 1 1.307 2.345"/><path fill="#455A64" d="M37.579 111.183a2.98 2.98 0 0 0-1.303-2.36.87.87 0 0 0-.897-.075c-.16.099-.807.472-.977.561a1.02 1.02 0 0 0-.4.944v9.851a2.99 2.99 0 0 0 1.302 2.36.89.89 0 0 0 .864.09c.179-.095.835-.472 1.01-.576a1.03 1.03 0 0 0 .4-.944z"/><path fill="#37474F" d="M36.611 111.741v9.85c0 .888-.585 1.27-1.307.855a2.99 2.99 0 0 1-1.303-2.36v-9.851c0-.887.586-1.27 1.303-.854a2.97 2.97 0 0 1 1.307 2.36"/><path fill="#F7921E" d="M155.645 59.489c.618-.36 1.473-.307 2.412.236l.269.155 12.626 7.274a1 1 0 0 1 .085.056 1.893 1.893 0 0 1 .755 1.416 1.94 1.94 0 0 0 .897 1.487l15.019 8.666h.033a.56.56 0 0 1 .246-.51l.863-.505a.6.6 0 0 1 .595.062l.84.472 12.886 7.438q.289.171.552.378l.255.231a6.05 6.05 0 0 1 1.888 4.083v114.635c0 .863-.302 1.468-.788 1.751l-.874.505a1.881 1.881 0 0 1-1.911-.194l-45.812-26.432a6.001 6.001 0 0 1-2.71-4.72V62.221c0-1.085.387-1.85 1.006-2.209z"/><path fill="#000" d="M202.029 206.753v.222l.254.151a1.93 1.93 0 0 0 1.912.193l.873-.505c.472-.288.788-.887.788-1.751V90.447a5.6 5.6 0 0 0-.944-2.888l-1.028.594c.551.833.865 1.801.906 2.8v114.61c.023.465-.108.925-.373 1.308a1.17 1.17 0 0 1-.944.434 2.23 2.23 0 0 1-1.114-.349zM170.395 68.24c.191.254.301.56.316.878.014.36.13.71.335 1.005l1.039-.6a1.7 1.7 0 0 1-.316-.905 1.85 1.85 0 0 0-.336-.977z" opacity=".3"/><path fill="#FAFAFA" d="M203.52 207.295a1.14 1.14 0 0 0 .944-.434c.265-.383.396-.842.373-1.307V90.952a5.88 5.88 0 0 0-1.841-3.941l-.08-.076-.17-.15a4 4 0 0 0-.519-.355l-12.886-7.443-.84-.472a.6.6 0 0 0-.283-.094c-.246 0-.269.287-.269.41a.69.69 0 0 1-.67.774 1.05 1.05 0 0 1-.52-.156l-15.052-8.68a2.11 2.11 0 0 1-.996-1.652 1.7 1.7 0 0 0-.67-1.25l-.071-.043-12.607-7.278-.269-.156a2.94 2.94 0 0 0-1.416-.439c-1.052 0-1.709.864-1.709 2.252v113.775a5.77 5.77 0 0 0 2.611 4.527l45.812 26.432c.337.218.727.341 1.128.358"/><path fill="#F7921E" d="M155.664 60.145c.474.02.934.163 1.336.416l.264.156 12.607 7.273.057.033a1.53 1.53 0 0 1 .59 1.095 2.314 2.314 0 0 0 1.09 1.817l15.019 8.67c.184.116.396.18.614.185a.87.87 0 0 0 .825-.607.9.9 0 0 0 .039-.36c0-.024 0-.218.075-.218q.1.011.184.066l.84.472 12.9 7.453q.248.153.472.34l.151.137.085.08a5.66 5.66 0 0 1 1.775 3.776v114.635c0 .972-.416 1.548-1.109 1.548a2.1 2.1 0 0 1-1.02-.321l-45.812-26.432a5.66 5.66 0 0 1-2.516-4.361V62.246c0-1.289.566-2.058 1.515-2.058m0-.387c-1.128 0-1.888.897-1.888 2.445v113.733a6.01 6.01 0 0 0 2.709 4.72l45.813 26.432c.365.227.783.356 1.213.373.887 0 1.491-.708 1.491-1.935V90.953a6.05 6.05 0 0 0-1.888-4.083l-.255-.231a4.5 4.5 0 0 0-.552-.378l-12.885-7.439-.841-.472a.8.8 0 0 0-.377-.113c-.274 0-.472.217-.472.6 0 .382-.194.58-.472.58a.84.84 0 0 1-.42-.132l-15.019-8.68a1.93 1.93 0 0 1-.897-1.487 1.88 1.88 0 0 0-.84-1.473l-12.607-7.273-.269-.156a3.1 3.1 0 0 0-1.52-.472z"/><path fill="#455A64" d="M155.664 59.951c.502.023.989.174 1.416.44l.269.155 12.607 7.278.071.043a1.7 1.7 0 0 1 .67 1.25 2.12 2.12 0 0 0 .996 1.652l15.014 8.671c.157.097.336.15.52.156a.69.69 0 0 0 .645-.489.7.7 0 0 0 .025-.285c0-.123.023-.41.269-.41a.6.6 0 0 1 .283.093l.84.473 12.886 7.443q.274.156.519.354l.17.151.08.075a5.88 5.88 0 0 1 1.841 3.942v18.53L153.96 80.125V62.188c0-1.373.651-2.237 1.704-2.237"/><path fill="#FAFAFA" d="M169.593 75.99c.433.245.784.613 1.01 1.057.235.47.353.99.344 1.515.017.315-.045.63-.179.916a.57.57 0 0 1-.519.32l.731 2.446a.4.4 0 0 1 0 .099.13.13 0 0 1-.033.103.07.07 0 0 1-.042.015.07.07 0 0 1-.043-.014l-.448-.265a.35.35 0 0 1-.156-.165 1 1 0 0 1-.075-.184l-.694-2.308-.708-.406v1.888a.2.2 0 0 1-.008.07.2.2 0 0 1-.035.062.07.07 0 0 1-.099 0l-.429-.245a.26.26 0 0 1-.09-.095.4.4 0 0 1-.047-.184v-5.277a.16.16 0 0 1 .047-.132.076.076 0 0 1 .099 0zm-.798 2.114.769.444c.136.1.306.142.472.118.118-.043.18-.213.18-.52a1.27 1.27 0 0 0-.18-.717 1.55 1.55 0 0 0-.472-.434l-.769-.444zM171.424 80.634a3.3 3.3 0 0 1 .09-.812c.045-.2.134-.39.259-.552a.65.65 0 0 1 .411-.232.82.82 0 0 1 .538.142c.208.122.392.282.543.472q.249.319.41.69.173.391.265.81.089.421.089.85v.369a.181.181 0 0 1-.042.132.1.1 0 0 1-.05.017.08.08 0 0 1-.049-.017l-1.775-1.024c.003.239.068.473.189.68a1.17 1.17 0 0 0 .42.438q.13.08.278.109a.3.3 0 0 0 .175-.038.4.4 0 0 1 .094-.033.2.2 0 0 1 .104.033l.425.245a.3.3 0 0 1 .104.128.36.36 0 0 1 .038.18.6.6 0 0 1-.081.245.6.6 0 0 1-.231.217.74.74 0 0 1-.382.075 1.2 1.2 0 0 1-.524-.179 2 2 0 0 1-.538-.472 3 3 0 0 1-.411-.69 4.4 4.4 0 0 1-.259-.849 4.7 4.7 0 0 1-.09-.934m1.298-.472a.47.47 0 0 0-.26-.08.28.28 0 0 0-.184.075.4.4 0 0 0-.113.18 1 1 0 0 0-.052.226l1.199.708a2 2 0 0 0-.038-.283 1.4 1.4 0 0 0-.094-.298 1.5 1.5 0 0 0-.175-.283 1.2 1.2 0 0 0-.297-.25zM175.153 82.508a3 3 0 0 0 0 .283 3 3 0 0 0 0 .292q.01.24.075.472a1.6 1.6 0 0 0 .34.647.8.8 0 0 0 .217.18.7.7 0 0 0 .222.094.24.24 0 0 0 .264-.076 1 1 0 0 0 .085-.123 1 1 0 0 1 .076-.103.075.075 0 0 1 .099 0l.406.236q.07.046.104.122.04.085.038.18a1.1 1.1 0 0 1-.081.373.8.8 0 0 1-.226.335.64.64 0 0 1-.401.146c-.209 0-.413-.062-.586-.18a2 2 0 0 1-.528-.471 3.4 3.4 0 0 1-.406-.647 4.15 4.15 0 0 1-.387-1.534v-.665a2.3 2.3 0 0 1 .113-.652c.055-.167.149-.319.274-.444a.62.62 0 0 1 .406-.174.95.95 0 0 1 .528.156c.222.12.42.28.586.472q.232.285.401.613.146.287.226.6.07.23.081.472a.17.17 0 0 1-.038.132.085.085 0 0 1-.104 0l-.406-.236a.25.25 0 0 1-.099-.132c-.028-.062-.052-.128-.076-.19l-.085-.226a1.5 1.5 0 0 0-.108-.198 1 1 0 0 0-.156-.184 1 1 0 0 0-.222-.16.5.5 0 0 0-.217-.076.3.3 0 0 0-.193.052.42.42 0 0 0-.147.208q-.074.196-.075.405M177.522 84.165a3.3 3.3 0 0 1 .09-.812c.044-.201.132-.39.259-.552a.63.63 0 0 1 .411-.232.85.85 0 0 1 .538.137c.208.123.392.283.543.472q.247.317.411.685.171.394.259.816.095.42.095.85v.368a.2.2 0 0 1-.008.07.2.2 0 0 1-.035.062.075.075 0 0 1-.099 0l-1.775-1.024q.001.185.052.363a1.5 1.5 0 0 0 .132.317q.081.143.199.26.102.103.226.183.127.083.279.104a.3.3 0 0 0 .174-.033.3.3 0 0 1 .095-.033q.057 0 .104.033l.424.246a.3.3 0 0 1 .104.122.36.36 0 0 1 .038.18.6.6 0 0 1-.312.472.8.8 0 0 1-.382.075 1.2 1.2 0 0 1-.524-.184 1.9 1.9 0 0 1-.538-.472 3 3 0 0 1-.411-.694 4 4 0 0 1-.259-.845q-.09-.463-.09-.934m1.298-.472a.47.47 0 0 0-.259-.08.3.3 0 0 0-.185.07.4.4 0 0 0-.113.18.8.8 0 0 0-.052.23l1.199.695a2 2 0 0 0-.038-.283 1.5 1.5 0 0 0-.094-.302 1.3 1.3 0 0 0-.179-.279 1 1 0 0 0-.279-.236zM181.279 82.655q.071.046.104.123a.4.4 0 0 1 .043.18v.641a.2.2 0 0 1-.009.068.2.2 0 0 1-.034.06.08.08 0 0 1-.104 0l-.472-.265a.27.27 0 0 1-.103-.123.4.4 0 0 1-.043-.179v-.637a.2.2 0 0 1 .008-.07.2.2 0 0 1 .035-.062.083.083 0 0 1 .103 0zm.118 5.664a.181.181 0 0 1-.042.132.1.1 0 0 1-.05.017.08.08 0 0 1-.049-.017l-.406-.236a.24.24 0 0 1-.099-.123.4.4 0 0 1-.043-.179v-3.809a.2.2 0 0 1 .008-.07.2.2 0 0 1 .035-.062.07.07 0 0 1 .099 0l.406.231a.3.3 0 0 1 .099.123.4.4 0 0 1 .042.18zM183.031 89.404a1 1 0 0 1-.057-.17l-1.067-4.385a.3.3 0 0 1 0-.062.2.2 0 0 1 .008-.07.2.2 0 0 1 .035-.062.07.07 0 0 1 .049-.018q.028 0 .05.018l.401.227c.052.031.092.08.113.137a1 1 0 0 1 .062.165l.703 2.94.708-2.128a.4.4 0 0 1 .057-.095q.041-.042.118 0l.401.232q.068.046.099.122a.4.4 0 0 1 .042.18v.056l-1.057 3.149a.3.3 0 0 1-.061.103q-.036.043-.114 0l-.354-.198a.3.3 0 0 1-.136-.141M185.003 88.483a3.3 3.3 0 0 1 .09-.812c.044-.201.133-.39.26-.552a.63.63 0 0 1 .41-.231.85.85 0 0 1 .538.137c.209.121.394.281.543.472q.247.316.411.684.171.396.264.817.09.42.09.85v.39a.2.2 0 0 1-.008.071.2.2 0 0 1-.035.062.07.07 0 0 1-.099 0l-1.775-1.024a1.35 1.35 0 0 0 .189.68q.08.145.194.264.102.102.226.18c.084.054.18.09.279.103.06.01.122-.002.174-.033a.3.3 0 0 1 .095-.033.2.2 0 0 1 .104.033l.425.246a.33.33 0 0 1 .103.127.3.3 0 0 1 .038.174.58.58 0 0 1-.311.468.74.74 0 0 1-.383.075 1.2 1.2 0 0 1-.524-.179 2 2 0 0 1-.538-.472 3 3 0 0 1-.41-.69 4.3 4.3 0 0 1-.26-.849 5 5 0 0 1-.09-.958m1.298-.472a.47.47 0 0 0-.259-.08.27.27 0 0 0-.184.075.4.4 0 0 0-.114.18 1 1 0 0 0-.052.226l1.199.694a2 2 0 0 0-.037-.283 1.5 1.5 0 0 0-.095-.297 1.5 1.5 0 0 0-.174-.284 1 1 0 0 0-.284-.236zM189.251 88.728q.16.09.293.217.126.12.231.255.09.123.166.255.062.11.113.226V87.94a.181.181 0 0 1 .042-.132.08.08 0 0 1 .05-.019q.028 0 .049.019l.406.23a.3.3 0 0 1 .099.124.4.4 0 0 1 .043.179v5.367a.2.2 0 0 1-.008.068.2.2 0 0 1-.035.059.07.07 0 0 1-.099 0l-.406-.231a.3.3 0 0 1-.099-.128.4.4 0 0 1-.042-.179v-.189a.7.7 0 0 1-.113.1.5.5 0 0 1-.166.06.7.7 0 0 1-.231 0 1 1 0 0 1-.293-.122 1.6 1.6 0 0 1-.472-.434 3.3 3.3 0 0 1-.368-.638 4 4 0 0 1-.236-.75 4 4 0 0 1-.099-.784v-.571a2.4 2.4 0 0 1 .099-.665c.046-.172.126-.333.236-.472a.62.62 0 0 1 .368-.213.73.73 0 0 1 .472.109m-.472 1.695q-.015.235 0 .471c.01.308.082.61.213.888.102.195.256.358.444.472a.37.37 0 0 0 .434 0 .73.73 0 0 0 .207-.557v-.623a1.9 1.9 0 0 0-.207-.788 1.2 1.2 0 0 0-.434-.5.38.38 0 0 0-.444 0c-.142.08-.213.292-.236.636z"/><path fill="#F7921E" d="M174.445 97.867q.343.294.609.66a4.6 4.6 0 0 1 .703 1.459q.087.306.104.623a.19.19 0 0 1-.052.179.106.106 0 0 1-.137 0l-.472-.283a.47.47 0 0 1-.179-.175 1.2 1.2 0 0 1-.114-.25 2.6 2.6 0 0 0-.321-.66 1.84 1.84 0 0 0-.637-.567 1.1 1.1 0 0 0-.349-.141.54.54 0 0 0-.288 0 .37.37 0 0 0-.194.165.66.66 0 0 0-.07.33c-.005.161.022.322.08.472q.09.23.25.415.2.257.444.472c.179.175.401.373.656.609q.387.334.722.723.275.34.472.731c.125.243.216.502.269.769q.084.417.08.841c.006.248-.029.495-.104.731a1.13 1.13 0 0 1-.306.472.84.84 0 0 1-.472.208 1.5 1.5 0 0 1-.656-.109v.746a.219.219 0 0 1-.057.17.094.094 0 0 1-.132 0l-.571-.33a.33.33 0 0 1-.133-.161.6.6 0 0 1-.056-.241v-.736a4.2 4.2 0 0 1-1.067-1.321 3.8 3.8 0 0 1-.335-.793 3.3 3.3 0 0 1-.142-.836.22.22 0 0 1 .052-.184.12.12 0 0 1 .069-.022.12.12 0 0 1 .068.022l.496.283a.5.5 0 0 1 .179.17q.072.123.109.26.048.17.118.349.076.19.193.359.13.192.298.354.202.194.448.33.194.111.406.184a.66.66 0 0 0 .349.038.4.4 0 0 0 .236-.142.6.6 0 0 0 .095-.368 1 1 0 0 0-.1-.443 1.7 1.7 0 0 0-.302-.435 6 6 0 0 0-.472-.472 29 29 0 0 1-.684-.642 6.4 6.4 0 0 1-.614-.665 3.46 3.46 0 0 1-.698-1.454 4.7 4.7 0 0 1-.08-.892 2.1 2.1 0 0 1 .103-.717c.06-.178.161-.34.293-.472a.8.8 0 0 1 .448-.222c.192-.024.387-.006.572.052v-.737a.23.23 0 0 1 .056-.174.105.105 0 0 1 .132 0l.571.33c.061.04.107.098.133.165a.55.55 0 0 1 .056.236zM178.976 100.492q.337.298.604.661.254.347.439.736.162.35.264.722.085.307.109.623a.21.21 0 0 1-.052.18.114.114 0 0 1-.142 0l-.472-.284a.5.5 0 0 1-.179-.174 1 1 0 0 1-.108-.25 2.7 2.7 0 0 0-.321-.656 1.9 1.9 0 0 0-.638-.572 1.3 1.3 0 0 0-.349-.141.56.56 0 0 0-.293 0 .36.36 0 0 0-.193.165.66.66 0 0 0-.071.33c-.005.162.023.322.08.472q.09.229.251.416.203.252.443.472l.656.609q.387.343.718.741.272.343.472.731.181.368.264.77.087.416.085.84c.004.248-.032.495-.109.731a1.1 1.1 0 0 1-.306.472.84.84 0 0 1-.472.203 1.4 1.4 0 0 1-.68-.113v.741a.22.22 0 0 1-.057.17.097.097 0 0 1-.137 0l-.571-.326a.37.37 0 0 1-.132-.165.56.56 0 0 1-.056-.24v-.737a4.2 4.2 0 0 1-1.067-1.321 4 4 0 0 1-.335-.793 3.2 3.2 0 0 1-.142-.836.22.22 0 0 1 .052-.184.13.13 0 0 1 .068-.021q.038 0 .069.021l.495.283a.5.5 0 0 1 .185.175 1 1 0 0 1 .103.255q.049.17.118.349a2 2 0 0 0 .491.713q.204.193.449.33.196.113.41.184c.11.044.229.057.345.038a.4.4 0 0 0 .241-.142.58.58 0 0 0 .089-.363 1 1 0 0 0-.099-.448 1.8 1.8 0 0 0-.297-.435 7 7 0 0 0-.501-.495q-.297-.269-.679-.642a6 6 0 0 1-.619-.666 4 4 0 0 1-.438-.693 3.4 3.4 0 0 1-.255-.76 4.3 4.3 0 0 1-.085-.892 2.1 2.1 0 0 1 .104-.718c.06-.178.16-.339.292-.472a.8.8 0 0 1 .449-.222c.191-.022.386-.004.571.052v-.708a.24.24 0 0 1 .01-.093.3.3 0 0 1 .046-.081.105.105 0 0 1 .132 0l.572.33c.061.04.109.097.136.165a.6.6 0 0 1 .057.24zM183.54 103.119q.342.293.604.656.254.348.439.737.169.347.265.722.085.306.108.623a.2.2 0 0 1-.004.096.2.2 0 0 1-.048.083.1.1 0 0 1-.068.023.1.1 0 0 1-.068-.023l-.472-.288a.47.47 0 0 1-.18-.174 1.5 1.5 0 0 1-.108-.25 2.6 2.6 0 0 0-.321-.656 1.84 1.84 0 0 0-.638-.572 1.3 1.3 0 0 0-.349-.141.5.5 0 0 0-.288 0 .38.38 0 0 0-.198.165.74.74 0 0 0-.066.33q-.007.243.075.472.096.226.251.416.206.251.443.472l.661.609q.384.343.713.741.276.342.472.736.182.366.269.765a4.3 4.3 0 0 1 .08.84c.004.248-.032.495-.108.731-.06.182-.166.344-.307.472a.83.83 0 0 1-.472.203 1.5 1.5 0 0 1-.656-.103v.736a.3.3 0 0 1-.011.093.2.2 0 0 1-.046.081.114.114 0 0 1-.137 0l-.566-.33a.35.35 0 0 1-.137-.165.6.6 0 0 1-.057-.241v-.727a4.2 4.2 0 0 1-1.067-1.317 4 4 0 0 1-.335-.797 3.3 3.3 0 0 1-.141-.836.2.2 0 0 1 .004-.096.2.2 0 0 1 .048-.083.114.114 0 0 1 .137 0l.495.288a.47.47 0 0 1 .184.17 1 1 0 0 1 .104.255q.051.17.123.354.075.19.189.358a2.16 2.16 0 0 0 .745.68q.198.113.411.189c.11.04.229.051.345.033a.4.4 0 0 0 .24-.142.58.58 0 0 0 .09-.363 1 1 0 0 0-.099-.472 2 2 0 0 0-.298-.434 9 9 0 0 0-.495-.496 23 23 0 0 1-.685-.642 6 6 0 0 1-.618-.665 4 4 0 0 1-.439-.694 3.4 3.4 0 0 1-.255-.76 4.4 4.4 0 0 1-.085-.892 2.2 2.2 0 0 1 .104-.718c.06-.177.16-.339.293-.472a.85.85 0 0 1 .448-.222 1.4 1.4 0 0 1 .571.057v-.741a.225.225 0 0 1 .057-.17.1.1 0 0 1 .137 0l.566.326c.061.04.108.098.137.165a.6.6 0 0 1 .057.241zM188.086 105.744q.343.292.608.656.246.35.435.736.168.35.269.727.083.304.104.618a.212.212 0 0 1-.052.18.12.12 0 0 1-.069.023.12.12 0 0 1-.068-.023l-.472-.288a.5.5 0 0 1-.18-.17 2 2 0 0 1-.108-.255 2.6 2.6 0 0 0-.321-.656 1.85 1.85 0 0 0-.637-.571 1.2 1.2 0 0 0-.35-.142.47.47 0 0 0-.287 0 .34.34 0 0 0-.194.16.7.7 0 0 0-.071.331c-.005.161.021.321.076.472q.094.226.25.415.208.25.444.472l.66.609q.387.346.718.746.278.338.472.731.184.366.269.765.081.416.08.84c.006.248-.029.495-.104.732-.06.181-.166.343-.307.472a.84.84 0 0 1-.472.203 1.5 1.5 0 0 1-.656-.104v.736a.2.2 0 0 1-.01.093.3.3 0 0 1-.046.082.1.1 0 0 1-.066.024.1.1 0 0 1-.066-.024l-.572-.33a.36.36 0 0 1-.136-.166.55.55 0 0 1-.057-.236v-.708a4.4 4.4 0 0 1-.595-.599 5 5 0 0 1-.472-.718 4.4 4.4 0 0 1-.335-.797 3.2 3.2 0 0 1-.142-.836c0-.089 0-.151.057-.179a.114.114 0 0 1 .137 0l.472.288a.47.47 0 0 1 .184.17q.07.12.109.255.048.18.118.354a1.9 1.9 0 0 0 .491.708c.245.231.536.408.854.519.11.039.228.052.344.038a.4.4 0 0 0 .241-.147.58.58 0 0 0 .095-.363 1 1 0 0 0-.1-.472 1.9 1.9 0 0 0-.302-.434 6 6 0 0 0-.495-.472q-.297-.271-.685-.647a7 7 0 0 1-.618-.665 3.7 3.7 0 0 1-.472-.723 3.3 3.3 0 0 1-.26-.764 4.3 4.3 0 0 1-.085-.888 2.2 2.2 0 0 1 .109-.722c.058-.178.159-.34.293-.472a.8.8 0 0 1 .443-.217c.192-.026.387-.008.571.052v-.741a.23.23 0 0 1 .057-.17.1.1 0 0 1 .069-.027q.04 0 .068.027l.571.326a.37.37 0 0 1 .132.165.6.6 0 0 1 .057.241zM168.12 93.935a.2.2 0 0 1 .043.052.3.3 0 0 1 0 .075v1.37q.001.185-.038.367a.6.6 0 0 1-.104.246.25.25 0 0 1-.184.094.6.6 0 0 1-.269-.085 1 1 0 0 1-.274-.231 1.2 1.2 0 0 1-.184-.307 1.6 1.6 0 0 1-.104-.363 2.3 2.3 0 0 1-.033-.406v-1.36a.1.1 0 0 1 0-.056.04.04 0 0 1 .021-.007.04.04 0 0 1 .022.007l.094.052q.028.019.038.052a.14.14 0 0 1 0 .075v1.374c-.007.19.028.38.104.557a.65.65 0 0 0 .283.32q.177.106.283 0a.65.65 0 0 0 .104-.434V93.95a.1.1 0 0 1 0-.057.03.03 0 0 1 .021-.007q.012 0 .021.007zM169.026 94.425a.8.8 0 0 1 .236.198 1.45 1.45 0 0 1 .284.524.7.7 0 0 1 .042.218.05.05 0 0 1 0 .042h-.033l-.094-.052a.1.1 0 0 1-.038-.033.3.3 0 0 1-.028-.08s0-.062-.038-.109a1 1 0 0 0-.066-.141 1 1 0 0 0-.109-.147.5.5 0 0 0-.141-.118.3.3 0 0 0-.118-.042.2.2 0 0 0-.1 0 .13.13 0 0 0-.07.07.3.3 0 0 0-.029.142q0 .083.024.16.033.086.085.161.065.09.141.17l.208.217q.114.11.217.231.08.106.142.222.054.106.08.222.023.12.024.24a.7.7 0 0 1-.043.26.3.3 0 0 1-.118.147.3.3 0 0 1-.189.038.7.7 0 0 1-.245-.09 1.1 1.1 0 0 1-.236-.194 1.6 1.6 0 0 1-.307-.533.9.9 0 0 1-.047-.25.05.05 0 0 1 0-.043.03.03 0 0 1 .016-.005.03.03 0 0 1 .017.005l.09.052q.024.015.042.038a.3.3 0 0 1 .028.08.3.3 0 0 0 .043.128.8.8 0 0 0 .184.292.56.56 0 0 0 .302.184q.061.018.123 0a.17.17 0 0 0 .085-.075.27.27 0 0 0 .033-.142.5.5 0 0 0-.038-.174 1 1 0 0 0-.099-.17 2 2 0 0 0-.165-.189l-.217-.217a2 2 0 0 1-.189-.213 2 2 0 0 1-.123-.217 1 1 0 0 1-.071-.222 1.2 1.2 0 0 1 0-.226.7.7 0 0 1 .033-.227.3.3 0 0 1 .095-.15.25.25 0 0 1 .165-.057.5.5 0 0 1 .212.075M171.117 96.588v.538q.004.181-.052.354a.42.42 0 0 1-.127.217.26.26 0 0 1-.194.071.53.53 0 0 1-.25-.08l-.519-.302a.1.1 0 0 1-.042-.052.2.2 0 0 1 0-.071v-2.2a.07.07 0 0 1 0-.052l.009-.007.012-.002q.006 0 .011.002l.01.007.505.293a1 1 0 0 1 .255.208q.12.134.198.297.09.176.132.368.052.203.052.411m-.212-.104a1.6 1.6 0 0 0 0-.255 1 1 0 0 0-.076-.245.9.9 0 0 0-.132-.217.7.7 0 0 0-.198-.165l-.349-.203v1.77l.358.207q.091.058.199.062a.192.192 0 0 0 .132-.066.5.5 0 0 0 .066-.166 1 1 0 0 0 0-.222 1 1 0 0 1 0-.132v-.23a1 1 0 0 1 0-.138M183.078 180.722l-9.506-5.485c-2.663-1.538-4.82-5.664-4.82-9.213 0-3.55 2.157-5.192 4.82-3.644l9.506 5.485c2.662 1.538 4.819 5.664 4.819 9.213 0 3.55-2.157 5.202-4.819 3.644"/><path fill="#fff" d="m180.307 166.265-6.735-3.885c-2.663-1.539-4.82.094-4.82 3.644 0 3.549 2.157 7.675 4.82 9.213l2.709 1.563z" opacity=".3"/><path fill="#FAFAFA" d="M177.012 170.796c0 2.653-1.614 3.875-3.606 2.723-1.991-1.151-3.606-4.248-3.606-6.891s1.615-3.875 3.606-2.723c1.992 1.152 3.606 4.215 3.606 6.891"/><path fill="#455A64" d="M173.407 168.751c.793.472 1.439-.028 1.439-1.09a3.44 3.44 0 0 0-1.439-2.742c-.793-.472-1.416.028-1.416 1.085a3.43 3.43 0 0 0 1.416 2.747m2.459 3.743a3.39 3.39 0 0 0-1.416-2.539l-2.082-1.199c-.736-.425-1.35-.033-1.416.901v.114a6.5 6.5 0 0 0 2.464 3.068c1.01.58 1.888.472 2.469-.213z"/><path fill="#FAFAFA" d="M185.406 179.485c1.593-.677 1.913-3.508.716-6.321-1.197-2.814-3.459-4.545-5.051-3.868-1.593.678-1.914 3.508-.716 6.322s3.458 4.545 5.051 3.867"/><path fill="#F7921E" d="M183.224 174.43c.793.472 1.416-.029 1.416-1.091a3.45 3.45 0 0 0-1.416-2.747c-.798-.472-1.439.029-1.439 1.091a3.44 3.44 0 0 0 1.439 2.747m2.455 3.743a3.4 3.4 0 0 0-1.416-2.544l-2.073-1.195c-.736-.424-1.35-.033-1.416.897v.118a6.48 6.48 0 0 0 2.45 3.054c1.005.581 1.888.472 2.464-.208z"/><path fill="#000" d="M183.224 174.43c.793.472 1.416-.029 1.416-1.091a3.45 3.45 0 0 0-1.416-2.747c-.798-.472-1.439.029-1.439 1.091a3.44 3.44 0 0 0 1.439 2.747m2.455 3.743a3.4 3.4 0 0 0-1.416-2.544l-2.073-1.195c-.736-.424-1.35-.033-1.416.897v.118a6.48 6.48 0 0 0 2.45 3.054c1.005.581 1.888.472 2.464-.208z" opacity=".3"/><path fill="#F7921E" d="m168.295 120.957-.977-2.044 4.281-2.468a6.7 6.7 0 0 1 1.614-.675q.296-.076.599-.132a8 8 0 0 1 3.012.085q.554.111 1.09.292.573.185 1.123.43.741.328 1.44.736.78.456 1.506.991.553.404 1.1.864c5.314 4.489 9.496 12.485 10.558 20.173q.107.787.17 1.567c.061.742.094 1.483.09 2.209 0 .595-.024 1.176-.071 1.733a24 24 0 0 1-.161 1.416c-.066.472-.155.882-.254 1.302a12.8 12.8 0 0 1-1.242 3.304 10 10 0 0 1-.358.59 8 8 0 0 1-1.888 2.054q-.338.255-.699.472l-4.045 2.36-.897-1.888a13 13 0 0 1-.722-.189 13 13 0 0 1-2.832-1.251 17 17 0 0 1-1.657-1.1 20 20 0 0 1-2.029-1.732c-4.437-4.248-7.935-10.946-9.214-17.596a31 31 0 0 1-.42-2.95 26 26 0 0 1-.104-2.422 20 20 0 0 1 .283-3.44c.149-.918.384-1.818.704-2.691"/><path fill="#fff" d="m192.664 134.665-8.685 5.013-1.142-3.304 8.694-5.022q.651 1.627 1.133 3.313M171.599 116.445a6.7 6.7 0 0 1 1.614-.675q.296-.076.6-.132c1-.164 2.022-.135 3.011.085l.401.094-8.94 5.159-.977-2.044zM172.529 129.128l-1.147-1.374 13.027-7.5q.624.615 1.213 1.293zM188.416 125.233l-11.328 6.514-1.241-3.247 10.506-6.07a33 33 0 0 1 2.063 2.803" opacity=".25"/><path fill="#fff" d="M171.599 116.445a6.7 6.7 0 0 1 1.614-.675q.296-.076.6-.132c1-.164 2.022-.135 3.011.085q.554.111 1.09.292.573.185 1.124.43.74.328 1.439.736.78.456 1.506.991.553.404 1.1.864c4.946 4.177 8.916 11.404 10.294 18.588l-18.125 10.468a35.33 35.33 0 0 1-7.41-15.67 30 30 0 0 1-.42-2.95 26 26 0 0 1-.104-2.421 20 20 0 0 1 .283-3.441c.148-.904.38-1.792.694-2.653l-.977-2.044z" opacity=".4"/><path fill="#000" d="m185.173 156.16-.896-1.888a13 13 0 0 1-.722-.189 13 13 0 0 1-2.832-1.251 17 17 0 0 1-1.657-1.1 20 20 0 0 1-2.03-1.732 25 25 0 0 1-1.803-1.926l18.125-10.469q.15.8.264 1.586c.076.524.128 1.048.17 1.567a24.6 24.6 0 0 1 .019 3.942q-.059.708-.16 1.416c-.066.472-.156.882-.255 1.302a12.8 12.8 0 0 1-1.242 3.304 10 10 0 0 1-.358.59 8 8 0 0 1-1.888 2.054 8 8 0 0 1-.699.472z" opacity=".1"/><path fill="#000" d="M192.192 150.721c-.113.203-.236.401-.359.59a8 8 0 0 1-1.888 2.053q-.336.255-.698.472l-4.045 2.36-.897-1.888h-.038l-.061-.764 9.001-5.192a12 12 0 0 1-1.015 2.369" opacity=".1"/><path fill="#F7921E" d="M162.735 129.693q0 1.197.108 2.421c.09.977.231 1.964.42 2.95 1.279 6.651 4.772 13.33 9.209 17.596q.963.93 2.034 1.733.795.596 1.652 1.1a13.3 13.3 0 0 0 2.832 1.25 8.7 8.7 0 0 0 2.993.387 6.75 6.75 0 0 0 3.747-1.34 8 8 0 0 0 1.888-2.049q.183-.29.359-.594a12.7 12.7 0 0 0 1.242-3.304q.146-.633.254-1.303c.066-.472.123-.92.161-1.416a23 23 0 0 0 .071-1.732 27 27 0 0 0-.265-3.776c-1.062-7.689-5.244-15.685-10.558-20.174a17 17 0 0 0-1.1-.863 16 16 0 0 0-1.501-.987 13 13 0 0 0-1.444-.741 11 11 0 0 0-1.124-.429 9 9 0 0 0-1.085-.293 8 8 0 0 0-3.012-.085 6.706 6.706 0 0 0-2.959 1.303 8.8 8.8 0 0 0-2.629 3.474 14.2 14.2 0 0 0-1.005 3.412 21 21 0 0 0-.288 3.46"/><path fill="#fff" d="M162.735 129.693q0 1.197.108 2.421c.09.977.231 1.964.42 2.95 1.279 6.651 4.772 13.33 9.209 17.596q.963.93 2.034 1.733.795.596 1.652 1.1a13.3 13.3 0 0 0 2.832 1.25 8.7 8.7 0 0 0 2.993.387 6.75 6.75 0 0 0 3.747-1.34 8 8 0 0 0 1.888-2.049q.183-.29.359-.594a12.7 12.7 0 0 0 1.242-3.304q.146-.633.254-1.303c.066-.472.123-.92.161-1.416a23 23 0 0 0 .071-1.732 27 27 0 0 0-.265-3.776c-1.062-7.689-5.244-15.685-10.558-20.174a17 17 0 0 0-1.1-.863 16 16 0 0 0-1.501-.987 13 13 0 0 0-1.444-.741 11 11 0 0 0-1.124-.429 9 9 0 0 0-1.085-.293 8 8 0 0 0-3.012-.085 6.706 6.706 0 0 0-2.959 1.303 8.8 8.8 0 0 0-2.629 3.474 14.2 14.2 0 0 0-1.005 3.412 21 21 0 0 0-.288 3.46" opacity=".1"/><path fill="#000" d="M189.171 140.041q.157.801.265 1.595c.07.529.132 1.048.174 1.567a24.6 24.6 0 0 1 .019 3.942q-.059.708-.16 1.416c-.066.472-.156.882-.255 1.302a12.7 12.7 0 0 1-1.242 3.304q-.176.305-.358.595a8 8 0 0 1-1.888 2.049 6.75 6.75 0 0 1-3.748 1.34 8.7 8.7 0 0 1-2.993-.387 13.3 13.3 0 0 1-2.832-1.251q-.758-.447-1.467-.967z" opacity=".05"/><path fill="#000" d="M188.964 150.777c-.246.82-.578 1.611-.991 2.36a17 17 0 0 1-.359.595 8 8 0 0 1-1.888 2.049 6.7 6.7 0 0 1-3.03 1.265z" opacity=".05"/><path fill="#fff" d="M187.331 133.787c.429 1.086.807 2.19 1.132 3.304l-15.774 15.774-.217-.203a27 27 0 0 1-1.93-2.086zM182.172 124.855a32 32 0 0 1 2.02 2.804l-17.365 17.36a37 37 0 0 1-1.544-3.275zM180.203 122.68q.626.617 1.223 1.298l-16.61 16.6a32 32 0 0 1-.642-1.888zM162.777 128.471c0-.321.043-.633.071-.944 0-.1.024-.203.033-.307q.015-.156.038-.312c.033-.226.061-.472.099-.675.19-1.175.528-2.321 1.005-3.412a8.8 8.8 0 0 1 2.629-3.474 6.7 6.7 0 0 1 2.96-1.303c1-.164 2.022-.135 3.011.085l.401.094z" opacity=".15"/><path fill="#F7921E" d="M166.171 131.776c0 7.08 4.139 15.293 9.374 18.776q.334.22.675.42c5.546 3.2 10.044-.198 10.044-7.594 0-7.397-4.498-15.992-10.044-19.197-.227-.132-.472-.25-.675-.358-5.235-2.582-9.374.835-9.374 7.953"/><path fill="#000" d="M166.171 131.776c0 7.08 4.139 15.293 9.374 18.776q.334.22.675.42c5.546 3.2 10.044-.198 10.044-7.594 0-7.397-4.498-15.992-10.044-19.197-.227-.132-.472-.25-.675-.358-5.235-2.582-9.374.835-9.374 7.953" opacity=".4"/><path fill="#F7921E" d="M166.619 132.011v.689c.255 6.608 4.107 14.033 8.945 17.252l.127.085c.17.108.34.217.515.316.924.558 1.948.93 3.016 1.095 2.251.307 4.134-.68 5.3-2.7a10.5 10.5 0 0 0 1.246-4.578q.035-.517.033-1.076c0-.373 0-.68-.028-1.025a20 20 0 0 0-.245-2.18c-.845-5.107-3.574-10.323-7.038-13.452a14 14 0 0 0-1.529-1.209 13 13 0 0 0-1.397-.816l-.184-.085a6.46 6.46 0 0 0-3.97-.633c-2.02.387-3.578 2.002-4.324 4.574a13.6 13.6 0 0 0-.467 3.743"/><path fill="#000" d="M166.619 132.011v.689c.255 6.608 4.107 14.033 8.945 17.252l.127.085c.17.108.34.217.515.316.924.558 1.948.93 3.016 1.095 2.251.307 4.134-.68 5.3-2.7a10.5 10.5 0 0 0 1.246-4.578q.035-.517.033-1.076c0-.373 0-.68-.028-1.025a20 20 0 0 0-.245-2.18c-.845-5.107-3.574-10.323-7.038-13.452a14 14 0 0 0-1.529-1.209 13 13 0 0 0-1.397-.816l-.184-.085a6.46 6.46 0 0 0-3.97-.633c-2.02.387-3.578 2.002-4.324 4.574a13.6 13.6 0 0 0-.467 3.743" opacity=".5"/><path fill="#F7921E" d="M168.229 131.775v-.689a13.6 13.6 0 0 1 .472-3.743 7.07 7.07 0 0 1 2.067-3.469q.323-.115.661-.18a6.45 6.45 0 0 1 3.969.633l.184.085c.208.104.425.217.642.344.217.128.505.303.756.472q.806.551 1.529 1.209c3.464 3.129 6.192 8.345 7.037 13.452q.185 1.083.246 2.18c0 .345.028.685.028 1.025s0 .731-.033 1.076a10.5 10.5 0 0 1-1.246 4.578 5.9 5.9 0 0 1-1.26 1.553 5.25 5.25 0 0 1-2.45.222 8.4 8.4 0 0 1-3.016-1.1l-.51-.311-.132-.09c-4.838-3.219-8.694-10.639-8.944-17.247"/><path fill="#000" d="M168.229 131.775v-.689a13.6 13.6 0 0 1 .472-3.743 7.07 7.07 0 0 1 2.067-3.469q.323-.115.661-.18a6.45 6.45 0 0 1 3.969.633l.184.085c.208.104.425.217.642.344.217.128.505.303.756.472q.806.551 1.529 1.209c3.464 3.129 6.192 8.345 7.037 13.452q.185 1.083.246 2.18c0 .345.028.685.028 1.025s0 .731-.033 1.076a10.5 10.5 0 0 1-1.246 4.578 5.9 5.9 0 0 1-1.26 1.553 5.25 5.25 0 0 1-2.45.222 8.4 8.4 0 0 1-3.016-1.1l-.51-.311-.132-.09c-4.838-3.219-8.694-10.639-8.944-17.247" opacity=".25"/><path fill="#F5F5F5" d="M169.612 118.088c5.8-.651 10.516 4.154 13.688 8.496 4.55 6.703 7.429 15.194 5.857 23.312-.51 2.261-1.543 4.527-3.422 5.962 1.921-1.416 3.035-3.672 3.573-5.943 1.449-6.646-.373-13.626-3.417-19.574-3.271-5.933-8.803-13.074-16.279-12.253"/><path fill="#F7921E" d="M183.399 143.189c-.095-2.578-1.44-4.385-3.021-5.882l.76.199 2.19-1.27a10 10 0 0 0-.392-1.416 9.6 9.6 0 0 0-1.142-2.176 11.7 11.7 0 0 0-2.832-2.794l-.08-2.275-2.719-1.567-2.19 1.265V128a2.7 2.7 0 0 0-.538.245l-.165.113c-.255.189-1.52.85-2.03 1.152a2 2 0 0 0-.165.118c-.581.425-.892 1.241-.84 2.511a7.1 7.1 0 0 0 1.104 3.512l.165.259v.029l.184.259c.057.076.109.151.17.227.062.075.047.066.071.09s.09.118.137.165q.568.688 1.218 1.298.284.269.576.524l-1.001-.251-2.195 1.265a10.5 10.5 0 0 0 4.182 5.948l.09 2.27 2.742 1.515 2.195-1.265-.028-.713q.232-.06.438-.184c.331-.217 1.799-1.019 2.176-1.255.666-.449.992-1.312.94-2.643"/><path fill="#000" d="M171.382 129.444c.561-.33 1.685-.92 1.925-1.095l.166-.113q.255-.16.542-.246l.057 1.633a2.64 2.64 0 0 0-2.69-.179" opacity=".15"/><path fill="#000" d="M177.622 142.692c.028.68-.364 1.02-1.506.397a4.06 4.06 0 0 1-2.124-2.761l-3.281-.822 2.195-1.26.996.241.062.052c.302.273.604.528.892.774.122.094.24.193.349.288a13.3 13.3 0 0 1 1.827 1.685c.23.26.404.565.509.897q.074.25.081.509" opacity=".45"/><path fill="#000" d="m179.845 147.258.023.708-2.195 1.274-.085-2.265a3.8 3.8 0 0 0 2.257.283" opacity=".2"/><path fill="#000" d="m176.701 128.858-2.714-1.572 2.195-1.265 2.723 1.568.071 2.298a11.6 11.6 0 0 1 2.832 2.794 9.3 9.3 0 0 1 1.534 3.578l-2.19 1.27q-.146-.723-.396-1.416a9.3 9.3 0 0 0-1.143-2.176 11.6 11.6 0 0 0-2.832-2.799z" opacity=".15"/><path fill="#000" d="M178.976 129.887a8.8 8.8 0 0 1 2.469 2.095 7.6 7.6 0 0 1 1.486 2.875 14.2 14.2 0 0 0-1.713-2.691 17 17 0 0 0-1.067-1.184c-.373-.383-.769-.76-1.175-1.095" opacity=".2"/><path fill="#000" d="M182.492 145.795c-.377.236-1.845 1.043-2.18 1.26.632-.411.944-1.256.911-2.601-.118-2.988-1.888-4.937-3.776-6.575-1.766-1.51-3.304-2.45-3.38-3.899-.033-.906.562-.981 1.454-.472a4.463 4.463 0 0 1 2.181 3.111l2.704.698c1.581 1.501 2.922 3.304 3.016 5.882.029 1.321-.297 2.18-.93 2.596" opacity=".35"/><path fill="#F7921E" d="m176.187 139.063-2.195 1.265-3.281-.821 2.195-1.265z"/><path fill="#000" d="m176.187 139.063-2.195 1.265-3.281-.821 2.195-1.265z" opacity=".15"/><path fill="#F7921E" d="m177.678 149.229-.09-2.27 2.257.293.028.712z"/><path fill="#000" d="m177.678 149.229-.09-2.27 2.257.293.028.712z" opacity=".45"/><path fill="#F7921E" d="m174.006 127.867.061 1.756a2.613 2.613 0 0 0-2.789-.123 1.4 1.4 0 0 0-.165.118c-.581.425-.892 1.241-.841 2.511a7.1 7.1 0 0 0 1.105 3.512l.165.259v.028l.184.26c.057.076.109.151.17.227.061.075.047.066.071.089.024.024.09.118.137.165q.567.689 1.218 1.298c.203.199.415.388.627.572.302.269.609.528.902.774l.344.288c.66.503 1.272 1.067 1.827 1.685.237.251.42.548.538.873q.071.25.085.51c.024.684-.368 1.029-1.51.401a4.02 4.02 0 0 1-2.12-2.761l-3.304-.822a10.5 10.5 0 0 0 4.135 5.976l.09 2.27 2.742 1.515-.09-2.27c1.143.448 2.073.5 2.696.109.627-.411.944-1.256.901-2.601-.108-2.988-1.888-4.942-3.776-6.57-1.765-1.516-3.304-2.455-3.379-3.904-.029-.906.561-.982 1.458-.472a4.48 4.48 0 0 1 2.181 3.115l3.459.892a9.347 9.347 0 0 0-1.538-3.596 11.7 11.7 0 0 0-2.809-2.794l-.085-2.271-2.714-1.572z"/><path fill="#fff" d="m174.006 127.867.061 1.756a2.613 2.613 0 0 0-2.789-.123 1.4 1.4 0 0 0-.165.118c-.581.425-.892 1.241-.841 2.511a7.1 7.1 0 0 0 1.105 3.512l.165.259v.028l.184.26c.057.076.109.151.17.227.061.075.047.066.071.089.024.024.09.118.137.165q.567.689 1.218 1.298c.203.199.415.388.627.572.302.269.609.528.902.774l.344.288c.66.503 1.272 1.067 1.827 1.685.237.251.42.548.538.873q.071.25.085.51c.024.684-.368 1.029-1.51.401a4.02 4.02 0 0 1-2.12-2.761l-3.304-.822a10.5 10.5 0 0 0 4.135 5.976l.09 2.27 2.742 1.515-.09-2.27c1.143.448 2.073.5 2.696.109.627-.411.944-1.256.901-2.601-.108-2.988-1.888-4.942-3.776-6.57-1.765-1.516-3.304-2.455-3.379-3.904-.029-.906.561-.982 1.458-.472a4.48 4.48 0 0 1 2.181 3.115l3.459.892a9.347 9.347 0 0 0-1.538-3.596 11.7 11.7 0 0 0-2.809-2.794l-.085-2.271-2.714-1.572z" opacity=".1"/><path fill="#fff" d="M181.204 144.458a7.4 7.4 0 0 0-.902-3.115 10.5 10.5 0 0 0-2.01-2.549c-.774-.769-1.638-1.44-2.474-2.148a9.4 9.4 0 0 1-1.175-1.156 2.56 2.56 0 0 1-.604-1.506c.058.545.291 1.055.666 1.454q.55.607 1.194 1.114c.849.684 1.718 1.359 2.506 2.129a10.3 10.3 0 0 1 2.011 2.605c.251.49.447 1.006.585 1.539q.186.806.203 1.633"/><path fill="#F7921E" d="m176.706 128.858 2.195-1.27.08 2.275-2.19 1.265z"/><path fill="#000" d="m176.706 128.858 2.195-1.27.08 2.275-2.19 1.265z" opacity=".35"/><path fill="#FAFAFA" d="m173.992 127.287 2.464 1.704.335 2.138-.085-2.27zM174.846 145.445l.312 2.124 2.52 1.662-2.742-1.515z"/><path fill="#fff" d="M170.711 139.506q.161.628.406 1.227l.897-.901zM181.195 144.353a7.2 7.2 0 0 0-1.039-3.398l-5.277 5.282.057 1.477 1.888 1.034.821-.821-.038-.968q.373.146.76.245zM170.301 132.583a7 7 0 0 0 .519 2.001l5.796-5.787-1.6-.92-.944.944.028.783a2.7 2.7 0 0 0-.533-.278zM171.552 135.928l.184.26c.056.075.108.151.17.226.061.076.047.067.07.09.024.024.09.118.137.165q.568.689 1.218 1.298l.288.265 1.912-1.917c-.859-.75-1.454-1.444-1.492-2.331-.038-.888.562-.982 1.459-.472a4.16 4.16 0 0 1 1.472 1.378l1.888-1.888a12.4 12.4 0 0 0-2.067-1.864l-.033-.855-5.381 5.381c.047.08.109.165.156.245z" opacity=".15"/><path fill="#F7921E" d="M100.355 59.489c-.618-.36-1.473-.307-2.412.236l-.269.155-12.626 7.274a1 1 0 0 0-.085.056 1.89 1.89 0 0 0-.755 1.416 1.94 1.94 0 0 1-.897 1.487l-15 8.657h-.033a.56.56 0 0 0-.246-.51l-.863-.505a.6.6 0 0 0-.595.061l-.84.472-12.886 7.439q-.289.17-.552.378l-.255.23a6.05 6.05 0 0 0-1.888 4.084v114.644c0 .863.302 1.468.788 1.751l.874.505a1.882 1.882 0 0 0 1.912-.194l45.811-26.432a5.99 5.99 0 0 0 2.71-4.72V62.221c0-1.085-.387-1.85-1.006-2.209z"/><path fill="#000" d="M53.972 206.753v.222l-.255.151a1.92 1.92 0 0 1-1.912.193l-.873-.495c-.472-.288-.788-.888-.788-1.752V90.447a5.6 5.6 0 0 1 .944-2.888l1.029.594a5.5 5.5 0 0 0-.907 2.8v114.61c-.023.465.108.925.373 1.308a1.16 1.16 0 0 0 .944.434c.396-.015.78-.136 1.114-.349zM85.605 68.24c-.191.254-.302.56-.316.878-.014.36-.13.71-.336 1.005l-1.038-.6c.19-.265.299-.58.316-.905.017-.351.133-.69.335-.977z" opacity=".3"/><path fill="#FAFAFA" d="M52.504 207.296a1.15 1.15 0 0 1-.944-.435 2.1 2.1 0 0 1-.373-1.307V90.953a5.88 5.88 0 0 1 1.84-3.942l.08-.075.17-.151a4 4 0 0 1 .52-.354l12.886-7.444.84-.472a.6.6 0 0 1 .283-.094c.245 0 .269.288.269.41a.69.69 0 0 0 .67.775c.184-.006.363-.06.52-.156l15.014-8.67a2.12 2.12 0 0 0 .996-1.653 1.72 1.72 0 0 1 .67-1.25 1 1 0 0 1 .07-.043l12.608-7.278.269-.156a2.94 2.94 0 0 1 1.416-.44c1.052 0 1.708.865 1.708 2.252V175.98a5.77 5.77 0 0 1-2.61 4.526l-45.812 26.432a2.26 2.26 0 0 1-1.09.359"/><path fill="#F7921E" d="M100.336 60.145c.944 0 1.515.77 1.515 2.058v113.775a5.7 5.7 0 0 1-.746 2.476 5.7 5.7 0 0 1-1.77 1.886l-45.812 26.432a2.1 2.1 0 0 1-1.02.321c-.693 0-1.109-.576-1.109-1.549V90.952a5.66 5.66 0 0 1 1.775-3.776l.085-.08.17-.16q.24-.192.505-.345l12.886-7.443.84-.472a.4.4 0 0 1 .184-.067c.075 0 .075.194.075.218a.877.877 0 0 0 .864.967c.218-.005.43-.068.614-.184l15.019-8.67a2.32 2.32 0 0 0 1.09-1.818 1.53 1.53 0 0 1 .59-1.095l.057-.033 12.588-7.278.264-.156a2.7 2.7 0 0 1 1.336-.415m0-.387a3.1 3.1 0 0 0-1.52.472l-.269.156-12.607 7.273a1 1 0 0 0-.085.057 1.89 1.89 0 0 0-.755 1.416 1.94 1.94 0 0 1-.897 1.486l-15.019 8.667a.84.84 0 0 1-.42.132c-.283 0-.472-.213-.472-.58 0-.37-.189-.6-.472-.6a.8.8 0 0 0-.378.113l-.84.472-12.885 7.439a5 5 0 0 0-.553.377l-.255.231a6.05 6.05 0 0 0-1.887 4.083v114.611c0 1.228.604 1.936 1.491 1.936.43-.018.848-.146 1.213-.373l45.812-26.432a6 6 0 0 0 2.71-4.72V62.222c0-1.549-.779-2.445-1.888-2.445z"/><path fill="#455A64" d="M100.336 59.951c-.502.023-.99.174-1.416.44l-.269.155-12.607 7.278a1 1 0 0 0-.07.043 1.7 1.7 0 0 0-.671 1.25 2.12 2.12 0 0 1-.996 1.652L69.293 79.44c-.157.097-.336.15-.52.156a.69.69 0 0 1-.67-.774c0-.123 0-.41-.269-.41a.6.6 0 0 0-.283.093l-.84.473-12.886 7.443a4 4 0 0 0-.519.354l-.17.151-.08.075a5.88 5.88 0 0 0-1.84 3.942v18.53l50.824-29.348V62.188c0-1.373-.651-2.237-1.704-2.237"/><path fill="#FAFAFA" d="M57.158 94.289a.066.066 0 0 1 .084 0 .16.16 0 0 1 .038.113v.5a.4.4 0 0 1-.038.156.23.23 0 0 1-.084.109l-.831.472v3.88a.3.3 0 0 1-.038.155.23.23 0 0 1-.085.109l-.373.212a.07.07 0 0 1-.045.018.07.07 0 0 1-.044-.018.16.16 0 0 1-.033-.113v-3.88l-.831.472a.06.06 0 0 1-.085 0 .16.16 0 0 1-.038-.113v-.5a.4.4 0 0 1 .038-.156.23.23 0 0 1 .085-.109zM58.503 95.64a.94.94 0 0 0-.397.415c-.09.216-.132.45-.123.684v1.841a.4.4 0 0 1-.037.156.2.2 0 0 1-.085.104l-.35.203h-.09a.16.16 0 0 1-.037-.114v-3.304a.4.4 0 0 1 .038-.155.2.2 0 0 1 .09-.109l.349-.203a.066.066 0 0 1 .085 0 .16.16 0 0 1 .037.113v.16q.109-.216.255-.41.151-.183.359-.297l.203-.118a.07.07 0 0 1 .09 0 .15.15 0 0 1 .037.113v.472a.4.4 0 0 1-.037.156.24.24 0 0 1-.09.109zM59.272 95.251q.02-.188.085-.368a2.4 2.4 0 0 1 .472-.845q.179-.2.41-.335c.13-.08.275-.13.425-.146a.47.47 0 0 1 .326.09c.1.092.173.212.208.344q.077.295.07.6v2.081q.001.082-.032.156a.27.27 0 0 1-.09.108l-.35.199a.066.066 0 0 1-.084 0 .14.14 0 0 1-.038-.114v-.236a2.2 2.2 0 0 1-.279.515 1.5 1.5 0 0 1-.472.41.8.8 0 0 1-.354.123.36.36 0 0 1-.264-.08.53.53 0 0 1-.16-.255 1.3 1.3 0 0 1-.057-.41 1.84 1.84 0 0 1 .222-.893c.154-.276.359-.521.604-.722l.75-.632q0-.293-.127-.34a.36.36 0 0 0-.307.057.7.7 0 0 0-.18.155 1.4 1.4 0 0 0-.122.203.6.6 0 0 1-.075.123.3.3 0 0 1-.076.066l-.43.245a.07.07 0 0 1-.075 0s-.01-.047 0-.099m.765 1.553q.16-.09.278-.231.125-.134.208-.297a1.7 1.7 0 0 0 .123-.326q.04-.156.042-.316v-.071l-.628.533a1.3 1.3 0 0 0-.269.302.6.6 0 0 0-.085.307q0 .148.1.16c.08.006.16-.015.226-.06zM64.143 95.025a.4.4 0 0 1-.038.156.3.3 0 0 1-.09.104l-.349.203a.066.066 0 0 1-.085 0 .14.14 0 0 1-.037-.114v-1.798a1.1 1.1 0 0 0-.128-.609q-.135-.178-.396-.023a.94.94 0 0 0-.387.472c-.094.242-.14.5-.137.76v1.798a.4.4 0 0 1-.038.156.23.23 0 0 1-.09.108l-.349.198a.066.066 0 0 1-.085 0 .16.16 0 0 1-.038-.113V93.02a.4.4 0 0 1 .038-.156.26.26 0 0 1 .085-.108l.35-.198a.066.066 0 0 1 .09 0 .15.15 0 0 1 .037.113v.16q.115-.25.278-.472.156-.212.383-.344a.8.8 0 0 1 .472-.132.43.43 0 0 1 .306.184c.084.131.14.28.16.434q.054.3.053.604zM66.055 93.072a.16.16 0 0 0-.033-.114.15.15 0 0 0-.114 0 1 1 0 0 0-.212.038l-.34.085a.8.8 0 0 1-.335 0 .4.4 0 0 1-.217-.123.6.6 0 0 1-.113-.26 2 2 0 0 1-.029-.372q0-.24.062-.472.063-.249.188-.472.124-.235.298-.434.17-.198.396-.326c.124-.079.262-.132.406-.156a.5.5 0 0 1 .298.033.36.36 0 0 1 .193.18q.072.137.08.292a.4.4 0 0 1-.033.156.25.25 0 0 1-.09.104l-.353.208c-.048.023-.085.033-.104 0l-.076-.043a.17.17 0 0 0-.113 0 .5.5 0 0 0-.208.08.9.9 0 0 0-.24.203.44.44 0 0 0-.109.288.2.2 0 0 0 .028.118.1.1 0 0 0 .095.038 1 1 0 0 0 .198-.028c.085 0 .194-.043.33-.076.27-.07.472-.042.576.085.13.177.19.395.17.614q-.001.241-.07.472a2.3 2.3 0 0 1-.204.472q-.133.239-.32.439-.19.204-.43.344c-.13.083-.277.137-.43.16a.57.57 0 0 1-.316-.051.47.47 0 0 1-.198-.203.8.8 0 0 1-.07-.302.3.3 0 0 1 .032-.156q.03-.065.09-.109l.354-.203c.047-.028.08-.032.104 0l.08.071q.052.04.118.043a.5.5 0 0 0 .236-.085l.142-.1a.85.85 0 0 0 .24-.268.3.3 0 0 0 .043-.17M67.952 89.332l.642-.368a.06.06 0 0 1 .085 0 .16.16 0 0 1 .038.114v.471a.4.4 0 0 1-.038.156.26.26 0 0 1-.085.109l-.642.368v2.638a.3.3 0 0 1-.038.156.23.23 0 0 1-.085.109l-.349.203a.07.07 0 0 1-.09 0 .16.16 0 0 1-.033-.114v-2.638l-.306.175a.066.066 0 0 1-.085 0 .14.14 0 0 1-.038-.114v-.472a.3.3 0 0 1 .038-.155.23.23 0 0 1 .085-.109l.306-.175v-.32a2.7 2.7 0 0 1 .062-.614 2 2 0 0 1 .184-.472q.115-.212.288-.378a1.8 1.8 0 0 1 .373-.278l.373-.217a.07.07 0 0 1 .09 0 .16.16 0 0 1 .037.113v.472a.4.4 0 0 1-.038.156.24.24 0 0 1-.09.108l-.325.189a.7.7 0 0 0-.265.25.8.8 0 0 0-.094.416zM68.953 90.598q0-.4.075-.793.075-.383.227-.741.14-.325.354-.609c.128-.17.288-.312.472-.42a.76.76 0 0 1 .472-.123.56.56 0 0 1 .359.18c.11.127.187.28.226.443q.083.317.08.642v.321a.4.4 0 0 1-.038.156.23.23 0 0 1-.084.109l-1.54.887a.7.7 0 0 0 .043.26.33.33 0 0 0 .118.141.26.26 0 0 0 .17.028.6.6 0 0 0 .198-.07 1 1 0 0 0 .392-.388.7.7 0 0 1 .085-.127.2.2 0 0 1 .085-.07l.368-.213a.07.07 0 0 1 .09 0 .12.12 0 0 1 .033.113 1 1 0 0 1-.07.297 2.2 2.2 0 0 1-.199.42 2.8 2.8 0 0 1-.33.444c-.135.15-.295.274-.472.368a.83.83 0 0 1-.472.133.53.53 0 0 1-.354-.19c-.111-.137-.189-.299-.227-.471a3 3 0 0 1-.061-.727m1.123-1.713a.8.8 0 0 0-.226.188q-.092.119-.161.25a1.6 1.6 0 0 0-.1.27c0 .09-.032.174-.042.25l1.039-.6a1 1 0 0 0-.033-.207.3.3 0 0 0-.08-.16.23.23 0 0 0-.156-.072.47.47 0 0 0-.24.08M72.828 87.365a.94.94 0 0 0-.397.42c-.092.216-.134.45-.122.685v1.84a.4.4 0 0 1-.038.156.2.2 0 0 1-.09.104l-.35.203a.066.066 0 0 1-.084 0 .16.16 0 0 1-.038-.113v-3.304a.4.4 0 0 1 .038-.156.23.23 0 0 1 .085-.109l.35-.202a.07.07 0 0 1 .089 0 .16.16 0 0 1 .038.113v.16q.106-.218.255-.41.149-.182.354-.298l.207-.118a.07.07 0 0 1 .09 0 .16.16 0 0 1 .033.114v.472q0 .08-.033.155a.27.27 0 0 1-.09.109zM76.6 86.464a.4.4 0 0 1 .046-.165.2.2 0 0 1 .085-.095l.373-.217a.07.07 0 0 1 .09 0 .13.13 0 0 1 .033.118q-.015.32-.095.632a3.1 3.1 0 0 1-.665 1.294c-.174.2-.38.369-.609.5-.168.108-.362.17-.562.18a.63.63 0 0 1-.415-.166 1.1 1.1 0 0 1-.264-.472 3 3 0 0 1-.114-.722v-1.19q.021-.429.114-.849.092-.4.264-.774.168-.347.415-.642.24-.285.562-.472c.181-.12.392-.19.609-.203.152-.005.3.043.42.137a.83.83 0 0 1 .245.387q.084.256.095.524a.3.3 0 0 1-.033.156.25.25 0 0 1-.09.104l-.373.217a.09.09 0 0 1-.09 0 .14.14 0 0 1-.047-.109.8.8 0 0 0-.066-.24.4.4 0 0 0-.137-.161.36.36 0 0 0-.221-.047.8.8 0 0 0-.312.113q-.18.106-.312.269a1.7 1.7 0 0 0-.226.354q-.09.203-.137.42a2.4 2.4 0 0 0-.057.472v1.19q.003.196.057.387a.64.64 0 0 0 .137.26.36.36 0 0 0 .227.098.6.6 0 0 0 .311-.099q.174-.1.312-.245.129-.138.221-.302.09-.152.142-.321.05-.158.066-.321M78.78 83.014a.9.9 0 0 1 .472-.147.6.6 0 0 1 .354.128c.109.097.19.22.236.358q.097.265.104.548.003.08 0 .16v.557a3.25 3.25 0 0 1-.34 1.298q-.15.286-.354.534a1.9 1.9 0 0 1-.472.387 1 1 0 0 1-.472.141.55.55 0 0 1-.354-.122.85.85 0 0 1-.24-.36 2 2 0 0 1-.105-.702v-.557q.014-.342.104-.67a3.2 3.2 0 0 1 .24-.633q.145-.29.355-.538.198-.237.472-.383m.552 1.27a.9.9 0 0 0-.066-.327.3.3 0 0 0-.127-.155.28.28 0 0 0-.175 0 1 1 0 0 0-.373.217 1.225 1.225 0 0 0-.302.524q-.057.196-.066.401v.637a.9.9 0 0 0 .066.326.3.3 0 0 0 .132.156.23.23 0 0 0 .17 0 .7.7 0 0 0 .189-.076q.1-.06.184-.141a1.06 1.06 0 0 0 .302-.524 1.6 1.6 0 0 0 .066-.543v-.359a1 1 0 0 0 0-.137M81.06 82.12q.099-.253.264-.472.136-.18.33-.297a.6.6 0 0 1 .472-.109.51.51 0 0 1 .288.27q.061-.175.147-.34a3 3 0 0 1 .188-.298q.091-.126.203-.236.095-.09.208-.156a.64.64 0 0 1 .439-.117.43.43 0 0 1 .283.193c.078.137.13.288.151.444q.045.302.043.609v1.888a.4.4 0 0 1-.038.155.23.23 0 0 1-.085.109l-.35.203a.07.07 0 0 1-.089 0 .16.16 0 0 1-.038-.113v-1.888a.97.97 0 0 0-.118-.605q-.121-.12-.335 0a.86.86 0 0 0-.316.369 1.8 1.8 0 0 0-.142.722v1.888q0 .081-.033.156a.25.25 0 0 1-.09.103l-.349.203a.066.066 0 0 1-.085 0 .14.14 0 0 1-.037-.113V82.8a.94.94 0 0 0-.123-.604c-.08-.08-.189-.08-.335 0a.9.9 0 0 0-.321.382c-.1.236-.145.49-.132.746v1.888a.4.4 0 0 1-.038.156.2.2 0 0 1-.09.108l-.35.203a.066.066 0 0 1-.084 0 .16.16 0 0 1-.038-.113v-3.304a.4.4 0 0 1 .038-.156.2.2 0 0 1 .085-.104l.35-.203h.089a.16.16 0 0 1 .038.114zM85.992 82.687a1 1 0 0 1-.255.104.6.6 0 0 1-.198 0 .3.3 0 0 1-.142-.056.4.4 0 0 1-.099-.08v1.505a.3.3 0 0 1-.038.156.23.23 0 0 1-.085.108l-.349.203a.07.07 0 0 1-.09 0 .16.16 0 0 1-.032-.113v-4.659q-.002-.08.033-.155a.22.22 0 0 1 .09-.104l.349-.203a.066.066 0 0 1 .084 0 .14.14 0 0 1 .038.113v.165a2 2 0 0 1 .1-.193q.06-.118.14-.222.09-.12.2-.222.115-.11.254-.189a.65.65 0 0 1 .42-.104c.124.021.237.087.316.184q.144.186.208.411.075.286.085.58v.473q-.015.34-.085.675-.076.335-.208.651-.127.293-.316.552c-.11.167-.253.31-.42.42m.43-1.963a3 3 0 0 0 0-.397c0-.292-.08-.472-.184-.552a.33.33 0 0 0-.383 0 .94.94 0 0 0-.377.425c-.11.214-.171.449-.18.689v.538a.63.63 0 0 0 .18.472.31.31 0 0 0 .377 0c.164-.104.296-.25.382-.425a1.9 1.9 0 0 0 .17-.76zM88.13 81.171a.3.3 0 0 1-.038.156.23.23 0 0 1-.085.109l-.349.198a.066.066 0 0 1-.09 0 .16.16 0 0 1-.033-.113v-4.645q0-.082.033-.156a.3.3 0 0 1 .09-.108l.35-.198a.06.06 0 0 1 .084 0 .14.14 0 0 1 .038.113zM88.645 79.222a4 4 0 0 1 .08-.788q.074-.383.226-.741.138-.33.354-.614c.13-.167.29-.308.472-.415a.8.8 0 0 1 .472-.128.58.58 0 0 1 .354.184c.11.129.189.28.232.444q.083.316.08.642v.32a.4.4 0 0 1-.038.157.23.23 0 0 1-.09.108l-1.534.883q-.004.137.043.264a.3.3 0 0 0 .118.142.25.25 0 0 0 .17.028.6.6 0 0 0 .198-.07q.135-.075.24-.185.087-.096.152-.207.035-.065.08-.123a.3.3 0 0 1 .09-.071l.368-.212a.07.07 0 0 1 .09 0 .13.13 0 0 1 .033.113q-.015.154-.071.297a2.2 2.2 0 0 1-.198.42 3 3 0 0 1-.33.444 1.9 1.9 0 0 1-.473.368.83.83 0 0 1-.472.132.52.52 0 0 1-.354-.188c-.11-.138-.188-.3-.226-.472a3 3 0 0 1-.066-.732m1.123-1.728a.8.8 0 0 0-.227.19c-.123.151-.212.329-.26.518a1.3 1.3 0 0 0-.042.25l1.039-.604a2 2 0 0 0-.033-.203.4.4 0 0 0-.085-.165.24.24 0 0 0-.151-.066.47.47 0 0 0-.241.08M92.208 77.679a.5.5 0 0 0 .076.307q.078.085.283-.033l.283-.166a.066.066 0 0 1 .085 0 .16.16 0 0 1 .038.114v.472a.4.4 0 0 1-.038.155.2.2 0 0 1-.085.104l-.34.199c-.288.165-.51.188-.665.06q-.233-.19-.231-.853v-1.52l-.307.174a.066.066 0 0 1-.085 0 .17.17 0 0 1-.038-.113v-.472a.4.4 0 0 1 .038-.156.23.23 0 0 1 .085-.108l.307-.175v-1.156q0-.082.033-.156a.25.25 0 0 1 .09-.104l.349-.203a.07.07 0 0 1 .09 0 .16.16 0 0 1 .032.113v1.157l.595-.345a.07.07 0 0 1 .09 0 .16.16 0 0 1 .033.114v.472q0 .08-.033.155a.27.27 0 0 1-.09.109l-.595.344zM93.303 76.551a4 4 0 0 1 .08-.793q.075-.382.227-.74.136-.33.354-.61c.13-.168.29-.31.472-.42a.74.74 0 0 1 .472-.122.56.56 0 0 1 .354.18c.11.128.189.28.231.443.056.21.083.428.08.646v.317a.4.4 0 0 1-.037.155.24.24 0 0 1-.09.109l-1.534.887a.7.7 0 0 0 .042.26.3.3 0 0 0 .119.141.25.25 0 0 0 .17.029.6.6 0 0 0 .198-.071 1 1 0 0 0 .391-.387l.08-.127a.3.3 0 0 1 .09-.071l.369-.213a.07.07 0 0 1 .09 0 .14.14 0 0 1 .032.114 1.4 1.4 0 0 1-.07.297 2.742 2.742 0 0 1-.529.864 1.9 1.9 0 0 1-.472.368.83.83 0 0 1-.472.132.5.5 0 0 1-.354-.189c-.112-.137-.19-.299-.227-.472a3 3 0 0 1-.066-.727m1.128-1.713a.8.8 0 0 0-.226.189q-.096.114-.16.25a1.5 1.5 0 0 0-.142.52l1.038-.6a2 2 0 0 0-.033-.208.4.4 0 0 0-.085-.16.22.22 0 0 0-.151-.071.47.47 0 0 0-.24.066zM96.985 72.502a1 1 0 0 1 .255-.109.6.6 0 0 1 .198 0 .4.4 0 0 1 .24.137v-1.51a.3.3 0 0 1 .038-.156.2.2 0 0 1 .085-.104l.35-.203a.07.07 0 0 1 .09 0 .16.16 0 0 1 .032.113v4.645q0 .081-.033.156a.27.27 0 0 1-.09.108l-.349.203a.066.066 0 0 1-.085 0 .14.14 0 0 1-.037-.113v-.16q-.045.099-.1.193a1.692 1.692 0 0 1-.595.632.6.6 0 0 1-.42.1.51.51 0 0 1-.316-.185 1.2 1.2 0 0 1-.207-.41 2.6 2.6 0 0 1-.085-.576v-.496q.015-.343.085-.68.076-.331.207-.646.127-.293.317-.552c.11-.157.254-.29.42-.387m-.43 1.959a3 3 0 0 0 0 .396c0 .297.08.472.184.557a.34.34 0 0 0 .383 0 1 1 0 0 0 .377-.425c.11-.214.17-.449.18-.689v-.538a.65.65 0 0 0-.18-.472.31.31 0 0 0-.377 0c-.165.1-.298.246-.383.42-.112.235-.175.49-.184.75"/><path fill="#F7921E" d="M72.776 102.756a1.13 1.13 0 0 1 .604-.042.94.94 0 0 1 .44.231c.116.117.207.259.264.415q.088.228.108.472a.5.5 0 0 1-.052.246.44.44 0 0 1-.141.16l-.472.283q-.121.07-.18.033a.3.3 0 0 1-.108-.127.56.56 0 0 0-.321-.288.87.87 0 0 0-.638.17 1.8 1.8 0 0 0-.349.26q-.165.152-.293.339-.119.185-.193.392-.07.2-.07.411a.64.64 0 0 0 .08.358.3.3 0 0 0 .25.128q.225.01.443-.043l.656-.155a2.5 2.5 0 0 1 .718-.081.84.84 0 0 1 .472.18.87.87 0 0 1 .264.472q.093.366.085.746-.023.439-.15.859-.108.436-.308.84a4.1 4.1 0 0 1-1.109 1.425v.737q0 .124-.057.236a.36.36 0 0 1-.136.165l-.572.33a.1.1 0 0 1-.132 0 .23.23 0 0 1-.056-.175v-.726c-.191.066-.393.097-.595.089a.94.94 0 0 1-.472-.16 1 1 0 0 1-.335-.411 1.7 1.7 0 0 1-.142-.67.5.5 0 0 1 .052-.241.36.36 0 0 1 .137-.16l.496-.288a.2.2 0 0 1 .087-.041.2.2 0 0 1 .097.003c.05.029.088.076.103.132q.048.112.118.213a.4.4 0 0 0 .194.141c.098.024.2.024.297 0q.254-.05.472-.189.218-.124.411-.283a2.3 2.3 0 0 0 .345-.363q.146-.196.24-.42c.062-.15.092-.311.09-.472a.45.45 0 0 0-.1-.331.38.38 0 0 0-.296-.089q-.255.015-.5.08c-.194.047-.426.099-.685.146q-.303.07-.614.047a.73.73 0 0 1-.439-.188.95.95 0 0 1-.255-.472 3 3 0 0 1-.085-.793q0-.427.104-.841.108-.422.293-.816c.242-.514.59-.97 1.02-1.341v-.741q0-.124.056-.236a.35.35 0 0 1 .132-.165l.571-.33a.1.1 0 0 1 .137 0 .24.24 0 0 1 .057.174zM77.298 100.151a1.14 1.14 0 0 1 .604-.043.95.95 0 0 1 .439.232c.12.115.211.257.264.415q.09.228.109.472a.5.5 0 0 1-.052.246.4.4 0 0 1-.137.16l-.496.283q-.121.07-.179.033a.33.33 0 0 1-.109-.127.56.56 0 0 0-.32-.288.8.8 0 0 0-.336.021.8.8 0 0 0-.302.149 1.8 1.8 0 0 0-.349.259q-.166.152-.288.34-.126.183-.198.392a1.3 1.3 0 0 0-.066.406.65.65 0 0 0 .075.363.32.32 0 0 0 .25.128q.226.01.444-.043l.66-.155q.351-.093.714-.081c.172.007.338.07.472.18a.9.9 0 0 1 .269.472q.086.368.08.745a3.6 3.6 0 0 1-.109.855q-.107.436-.306.84a4.4 4.4 0 0 1-.472.769 4 4 0 0 1-.657.647v.741q-.001.125-.056.236a.35.35 0 0 1-.137.165l-.571.331a.1.1 0 0 1-.132 0 .24.24 0 0 1-.057-.175v-.755c-.19.067-.393.097-.595.089a.94.94 0 0 1-.821-.571 1.7 1.7 0 0 1-.142-.67.48.48 0 0 1 .19-.406l.495-.283q.118-.07.184-.043c.05.032.086.081.104.137q.05.112.122.213a.4.4 0 0 0 .19.141c.097.025.199.025.297 0a1.5 1.5 0 0 0 .448-.188q.218-.125.41-.284a2.1 2.1 0 0 0 .586-.783c.06-.15.091-.31.09-.472a.44.44 0 0 0-.1-.331.4.4 0 0 0-.297-.089 2.5 2.5 0 0 0-.496.08c-.198.047-.429.099-.684.146q-.305.066-.618.048a.75.75 0 0 1-.44-.189 1 1 0 0 1-.254-.472 3 3 0 0 1-.085-.793q0-.43.104-.845.109-.42.292-.812c.244-.514.59-.972 1.02-1.345v-.736q0-.127.057-.241a.36.36 0 0 1 .132-.16l.57-.331a.1.1 0 0 1 .138 0 .24.24 0 0 1 .056.174zM81.843 97.503a1.2 1.2 0 0 1 .604-.037.9.9 0 0 1 .44.23c.12.117.212.259.268.416q.087.228.104.472a.5.5 0 0 1-.052.24.36.36 0 0 1-.137.161l-.495.288c-.08.047-.137.057-.18.033a.34.34 0 0 1-.108-.127.57.57 0 0 0-.321-.288.83.83 0 0 0-.637.17q-.19.109-.35.26a2 2 0 0 0-.288.34 1.6 1.6 0 0 0-.193.391c-.047.13-.07.268-.07.406a.65.65 0 0 0 .075.363.32.32 0 0 0 .25.128q.226.01.443-.047l.661-.151a2.5 2.5 0 0 1 .718-.081.78.78 0 0 1 .472.18c.136.125.23.29.269.472q.087.367.08.745a3.8 3.8 0 0 1-.104.855 4.3 4.3 0 0 1-.307.835 4.3 4.3 0 0 1-.472.774 4 4 0 0 1-.656.647v.741a.6.6 0 0 1-.056.236.35.35 0 0 1-.133.165l-.57.331a.106.106 0 0 1-.138 0 .24.24 0 0 1-.056-.175v-.736c-.191.067-.393.097-.595.089a1 1 0 0 1-.472-.16 1 1 0 0 1-.335-.411 1.7 1.7 0 0 1-.142-.67.44.44 0 0 1 .057-.241.4.4 0 0 1 .137-.165l.472-.283q.118-.071.184-.043c.05.031.088.08.104.137q.05.113.123.213a.4.4 0 0 0 .188.141q.152.036.302 0a1.5 1.5 0 0 0 .444-.189q.218-.124.41-.283.195-.161.345-.363a2 2 0 0 0 .241-.42c.06-.15.091-.311.09-.472a.47.47 0 0 0-.1-.335.4.4 0 0 0-.297-.085 2.5 2.5 0 0 0-.495.08c-.199.047-.425.099-.685.146q-.305.066-.618.047a.72.72 0 0 1-.434-.188.95.95 0 0 1-.26-.472 3 3 0 0 1-.085-.793q.002-.43.109-.845a4 4 0 0 1 .292-.812q.183-.391.444-.736a4.4 4.4 0 0 1 .571-.61v-.698c0-.083.02-.166.057-.24a.36.36 0 0 1 .137-.161l.57-.33a.094.094 0 0 1 .133 0 .23.23 0 0 1 .056.174zM86.389 94.879c.196-.065.406-.078.608-.038a.9.9 0 0 1 .435.231c.12.116.212.258.269.416q.087.228.104.472a.43.43 0 0 1-.052.24.34.34 0 0 1-.137.16l-.496.289a.18.18 0 0 1-.18.033.34.34 0 0 1-.108-.127.55.55 0 0 0-.32-.289.83.83 0 0 0-.638.17 1.855 1.855 0 0 0-.83.986q-.07.2-.072.412a.6.6 0 0 0 .08.363.3.3 0 0 0 .25.127q.226.01.445-.047l.656-.15c.233-.065.475-.092.717-.081.173.006.339.07.472.18.14.122.235.288.27.471q.09.368.08.746 0 .432-.104.85-.11.436-.307.84a4 4 0 0 1-.472.769q-.288.367-.656.652v.741a.6.6 0 0 1-.057.236.35.35 0 0 1-.132.165l-.571.33a.1.1 0 0 1-.066.024.1.1 0 0 1-.066-.024.24.24 0 0 1-.057-.174v-.737a1.5 1.5 0 0 1-.6.085.94.94 0 0 1-.472-.156 1 1 0 0 1-.335-.41 1.7 1.7 0 0 1-.136-.67.48.48 0 0 1 .188-.406l.472-.284q.118-.07.184-.042c.053.03.091.079.109.137q.048.113.118.212a.35.35 0 0 0 .189.137c.099.025.203.025.302 0q.251-.055.472-.189a3 3 0 0 0 .406-.283q.196-.161.35-.363a2.2 2.2 0 0 0 .235-.42c.063-.15.095-.31.094-.472a.47.47 0 0 0-.099-.335.4.4 0 0 0-.302-.086 2.7 2.7 0 0 0-.495.08q-.297.07-.685.147a2.3 2.3 0 0 1-.618.047.72.72 0 0 1-.434-.188 1 1 0 0 1-.26-.473 3.2 3.2 0 0 1-.085-.788q.001-.43.109-.845.104-.421.292-.811c.244-.514.59-.973 1.02-1.346v-.736c0-.083.02-.166.056-.24a.34.34 0 0 1 .133-.166l.57-.326a.094.094 0 0 1 .133 0 .22.22 0 0 1 .057.17zM66.428 106.123h.042a.06.06 0 0 1 0 .052v1.364a3 3 0 0 1-.033.406 1.8 1.8 0 0 1-.108.363 1.2 1.2 0 0 1-.185.307.9.9 0 0 1-.269.227.5.5 0 0 1-.273.085.2.2 0 0 1-.103-.024.2.2 0 0 1-.081-.066.6.6 0 0 1-.104-.245 1.7 1.7 0 0 1-.033-.369v-1.359a.15.15 0 0 1 0-.075.1.1 0 0 1 .042-.052l.09-.052.01-.007a.03.03 0 0 1 .023 0l.01.007a.08.08 0 0 1 0 .052v1.378a.67.67 0 0 0 .103.439q.099.099.283 0a.7.7 0 0 0 .284-.326 1.3 1.3 0 0 0 .103-.552v-1.388a.15.15 0 0 1 0-.075.1.1 0 0 1 .038-.052zM67.329 105.57a.47.47 0 0 1 .24-.076.3.3 0 0 1 .17.061q.076.053.114.137a.5.5 0 0 1 .038.17.1.1 0 0 1 0 .057c0 .024 0 .038-.033.042l-.09.057h-.043c-.009 0 0 0-.028-.042l-.038-.067a.17.17 0 0 0-.066-.061.2.2 0 0 0-.104-.023.3.3 0 0 0-.146.047.5.5 0 0 0-.118.089.5.5 0 0 0-.099.123 1 1 0 0 0-.07.151.5.5 0 0 0-.03.17.3.3 0 0 0 .03.137.12.12 0 0 0 .08.061q.07.015.141 0l.212-.028a.8.8 0 0 1 .213 0c.05.007.1.027.141.057q.061.054.08.132.018.106 0 .212 0 .154-.042.302-.041.153-.118.293a1.2 1.2 0 0 1-.43.439.54.54 0 0 1-.24.08.3.3 0 0 1-.184-.042.33.33 0 0 1-.123-.133.4.4 0 0 1-.047-.193.13.13 0 0 1 0-.061.2.2 0 0 1 .033-.043l.094-.052a.04.04 0 0 1 .02-.005q.009 0 .018.005a.1.1 0 0 1 .029.043q.013.044.042.08a.2.2 0 0 0 .07.066q.058.015.114 0a.35.35 0 0 0 .16-.052q.077-.053.147-.113.067-.071.123-.151a.7.7 0 0 0 .08-.17.5.5 0 0 0 .033-.18.2.2 0 0 0-.038-.127.17.17 0 0 0-.099-.057.5.5 0 0 0-.16 0l-.222.033a.4.4 0 0 1-.184 0 .25.25 0 0 1-.128-.075.3.3 0 0 1-.07-.137 1 1 0 0 1 0-.203q0-.134.032-.264a1 1 0 0 1 .1-.269q.064-.131.16-.241a.9.9 0 0 1 .236-.179M69.42 105.343v.538a1.781 1.781 0 0 1-.18.779q-.075.16-.193.293a1 1 0 0 1-.25.208l-.52.297a.03.03 0 0 1-.018.007.03.03 0 0 1-.019-.007.08.08 0 0 1 0-.057v-2.194a.14.14 0 0 1 0-.076.1.1 0 0 1 .038-.052l.51-.293a.6.6 0 0 1 .25-.085.3.3 0 0 1 .203.067.47.47 0 0 1 .127.217q.056.175.052.358m-.212.137a1 1 0 0 0 0-.222.34.34 0 0 0-.076-.16.185.185 0 0 0-.132-.066.4.4 0 0 0-.198.066l-.35.198v1.77l.36-.207a.6.6 0 0 0 .198-.166.9.9 0 0 0 .132-.217q.048-.116.07-.241a1.5 1.5 0 0 0 0-.25v-.368c0-.061-.004-.108-.004-.16zM81.376 175.841l-9.506 5.494c-2.662 1.539-4.82-.094-4.82-3.644 0-3.549 2.158-7.674 4.82-9.213l9.506-5.485c2.662-1.538 4.819.095 4.819 3.644 0 3.54-2.157 7.665-4.82 9.204"/><path fill="#fff" d="m78.605 164.584-6.735 3.885c-2.662 1.538-4.82 5.664-4.82 9.213s2.158 5.192 4.82 3.644l2.709-1.562z" opacity=".3"/><path fill="#FAFAFA" d="M74.592 176.221c1.197-2.814.876-5.644-.717-6.322s-3.854 1.054-5.051 3.868-.877 5.644.716 6.321c1.593.678 3.854-1.053 5.051-3.867"/><path fill="#455A64" d="M71.705 175.035a3.44 3.44 0 0 0 1.44-2.747c0-1.062-.643-1.548-1.44-1.09a3.45 3.45 0 0 0-1.416 2.747c-.02 1.062.623 1.548 1.415 1.09m2.459.906c-.071-.944-.685-1.326-1.416-.901l-2.073 1.199a3.4 3.4 0 0 0-1.415 2.539v.127c.561.671 1.453.798 2.468.213a6.5 6.5 0 0 0 2.464-3.054z"/><path fill="#FAFAFA" d="M85.147 167.236c0 2.652-1.614 5.739-3.606 6.891s-3.606-.071-3.606-2.728 1.614-5.74 3.606-6.891c1.992-1.152 3.606.07 3.606 2.728"/><path fill="#F7921E" d="M81.541 169.357a3.45 3.45 0 0 0 1.416-2.748c0-1.057-.642-1.548-1.416-1.085a3.45 3.45 0 0 0-1.416 2.747c-.024 1.057.623 1.543 1.416 1.086m2.454.906c-.066-.944-.684-1.327-1.416-.902l-2.072 1.199a3.41 3.41 0 0 0-1.416 2.539v.128c.562.67 1.459.798 2.469.212a6.5 6.5 0 0 0 2.464-3.054z"/><path fill="#000" d="M81.541 169.357a3.45 3.45 0 0 0 1.416-2.748c0-1.057-.642-1.548-1.416-1.085a3.45 3.45 0 0 0-1.416 2.747c-.024 1.057.623 1.543 1.416 1.086m2.454.906c-.066-.944-.684-1.327-1.416-.902l-2.072 1.199a3.41 3.41 0 0 0-1.416 2.539v.128c.562.67 1.459.798 2.469.212a6.5 6.5 0 0 0 2.464-3.054z" opacity=".3"/><path fill="#000" d="M58.243 161.837a.2.2 0 0 0 0 .052c0 1.213.897 1.695 1.963 1.081l45.312-26.149a4.36 4.36 0 0 0 1.969-3.408V98.887c0-1.242-.864-1.752-1.921-1.162h-.048l-45.302 26.168a4.34 4.34 0 0 0-1.968 3.408v34.536z" opacity=".15"/><path fill="#F7921E" d="m65.583 126.033-.803.472q-.13.074-.25.165a2 2 0 0 0-.212.165l-.057.052q-.105.093-.203.193l-.113.123a4 4 0 0 0-.265.326c-.033.042-.056.08-.084.122-.029.043-.071.1-.104.147v.042l-.062.109v.028l-.127.231c-.038.081-.076.156-.109.236l-.08.185c-.024.07-.047.146-.075.217-.029.07-.076.25-.1.368a2 2 0 0 0-.042.217v35.008s.585 1.265.59 1.279l-1.831-1.062a1.41 1.41 0 0 1-.666-1.321v-34.527a2.2 2.2 0 0 1 .028-.482q.033-.22.1-.434c0-.061.032-.122.051-.184a5.132 5.132 0 0 1 .387-.84c.038-.057.066-.113.104-.17l.08-.123.104-.141q.161-.214.335-.406c.052-.052.104-.109.16-.156l.03-.033.16-.142c.052-.042.104-.085.165-.127q.12-.09.25-.16l.817-.472z"/><path fill="#000" d="m65.583 126.033-.803.472q-.13.074-.25.165a2 2 0 0 0-.212.165l-.057.052q-.105.093-.203.193l-.113.123a4 4 0 0 0-.265.326c-.033.042-.056.08-.084.122l-.104.147v.042l-.062.109v.028l-.127.231c-.038.081-.076.156-.109.236l-.08.185c-.024.07-.047.146-.075.217-.029.07-.076.25-.1.368a2 2 0 0 0-.042.217v35.008s.585 1.265.59 1.279l-1.831-1.062a1.41 1.41 0 0 1-.666-1.321v-34.527a2.2 2.2 0 0 1 .028-.482q.033-.22.1-.434c0-.061.032-.122.051-.184a5.132 5.132 0 0 1 .387-.84c.038-.057.066-.113.104-.17l.08-.123.104-.141q.161-.214.335-.406c.052-.052.104-.109.16-.156l.03-.033.16-.142c.052-.042.104-.085.165-.127q.12-.09.25-.16l.817-.472z" opacity=".3"/><path fill="#EBEBEB" d="M111.451 100.218s-1.383.127-1.416.137l-44.471 25.677-.803.472a4.27 4.27 0 0 0-1.638 1.94l-1.888-1.1a4.15 4.15 0 0 1 1.629-1.94l.816-.472 44.463-25.682a1.38 1.38 0 0 1 1.298-.184c.458.246 2.01 1.152 2.01 1.152"/><path fill="#F7921E" d="m65.583 126.031-.803.472a4.3 4.3 0 0 0-1.638 1.94l-1.888-1.099a4.15 4.15 0 0 1 1.629-1.94l.816-.472z"/><path fill="#fff" d="m65.583 126.031-.803.472q-.13.077-.25.165-.113.075-.212.165l-.057.052q-.108.09-.203.194l-.113.122a3 3 0 0 0-.264.326 1 1 0 0 0-.085.123q-.07.09-.128.189c-.028.047-.057.089-.08.137-.024.047-.09.155-.128.231-.037.075-.07.151-.118.236l-1.916-1.095c.08-.165.16-.331.25-.472.038-.057.066-.113.104-.17l.08-.123.104-.141q.152-.217.335-.406c.052-.052.104-.109.16-.156l.03-.033.16-.142c.052-.042.103-.085.165-.127q.12-.09.25-.161l.817-.472z" opacity=".4"/><path fill="#F7921E" d="M62.798 164.438a.1.1 0 0 0 0 .057c0 1.208.892 1.694 1.959 1.081l45.307-26.149a4.36 4.36 0 0 0 1.973-3.408v-34.527c0-1.241-.864-1.751-1.926-1.161l-.047.024-45.279 26.144a4.331 4.331 0 0 0-1.968 3.407v8.383z"/><path fill="#fff" d="M62.798 164.438a.1.1 0 0 0 0 .057c0 1.208.892 1.694 1.959 1.081l45.307-26.149a4.36 4.36 0 0 0 1.973-3.408v-34.527c0-1.241-.864-1.751-1.926-1.161l-.047.024-45.279 26.144a4.331 4.331 0 0 0-1.968 3.407v8.383z" opacity=".1"/><path fill="#FAFAFA" d="M62.807 129.888v8.401l49.22-28.414v-8.383c0-1.241-.863-1.751-1.925-1.161l-.048.024-45.279 26.144a4.33 4.33 0 0 0-1.968 3.389"/><path fill="#F7921E" d="M65.941 126.239v38.657l-1.19.68c-1.07.613-1.944.127-1.963-1.081a.1.1 0 0 1 0-.057v-34.55a4.05 4.05 0 0 1 .576-1.94c.043-.076.095-.151.137-.232l.213-.287.037-.057c.08-.09.156-.184.236-.269q.34-.366.77-.623l.807-.472z"/><path fill="#FAFAFA" d="m65.941 164.901 1.629-.939v-28.419l-1.624.935z"/><path fill="#455A64" d="M68.67 132.22a.13.13 0 0 1-.119 0 .09.09 0 0 1-.052-.09v-4.031a.3.3 0 0 1 .052-.146.3.3 0 0 1 .118-.118l1.841-1.067c.203-.129.429-.217.666-.259a.7.7 0 0 1 .434.056c.108.055.191.15.231.265q.07.172.071.358t-.047.364q-.048.166-.123.321a3 3 0 0 1-.142.255q-.076.108-.117.16c.135.012.261.07.358.165a.7.7 0 0 1 .16.515 1.7 1.7 0 0 1-.089.519q-.09.303-.255.571-.178.298-.42.548-.26.267-.585.448zm2.402-4.493q-.001-.24-.151-.274a.76.76 0 0 0-.472.151l-1.105.637v.944l1.105-.637a1.45 1.45 0 0 0 .472-.397.75.75 0 0 0 .15-.424m-1.728 3.304 1.152-.666c.198-.106.37-.254.505-.434a.9.9 0 0 0 .156-.472c0-.161-.052-.255-.165-.293a.7.7 0 0 0-.496.137l-1.152.666zM74.768 124.332c.066-.037.113-.052.15-.033a.2.2 0 0 1 .086.109l1.53 3.058a.1.1 0 0 1 0 .043.27.27 0 0 1-.048.146.34.34 0 0 1-.118.118l-.472.26c-.08.047-.142.066-.175.047a.12.12 0 0 1-.066-.061l-.269-.538-1.973 1.137-.269.85a.6.6 0 0 1-.066.141.5.5 0 0 1-.175.156l-.472.26a.16.16 0 0 1-.118 0 .1.1 0 0 1-.038-.04.1.1 0 0 1-.009-.055.2.2 0 0 1 0-.047l1.53-4.824a1 1 0 0 1 .09-.212.4.4 0 0 1 .145-.137zm.344 2.54-.689-1.383-.703 2.176zM79.94 125.711q-.104.064-.16.037l-.085-.037-1.746-1.591v2.573a.3.3 0 0 1-.047.151.4.4 0 0 1-.123.118l-.505.287a.1.1 0 0 1-.059.016.1.1 0 0 1-.059-.016c-.033 0-.047-.042-.047-.089v-4.031a.27.27 0 0 1 .047-.146.34.34 0 0 1 .118-.118l.44-.255a.2.2 0 0 1 .076-.035.2.2 0 0 1 .084-.003l.085.042 1.746 1.586v-2.572a.3.3 0 0 1 .047-.146.4.4 0 0 1 .104-.09l.51-.293a.2.2 0 0 1 .059-.013q.03 0 .059.013a.1.1 0 0 1 .037.038.1.1 0 0 1 .01.052v4.036a.3.3 0 0 1-.047.146.4.4 0 0 1-.118.118zM84.835 122.624a.07.07 0 0 1 .038.038.275.275 0 0 1-.052.179.3.3 0 0 1-.118.118l-.59.345a.28.28 0 0 1-.203.047l-.085-.029-1.468-.807v1.629a.3.3 0 0 1-.047.151.4.4 0 0 1-.123.118l-.505.292a.14.14 0 0 1-.059.014.14.14 0 0 1-.059-.014.09.09 0 0 1-.047-.089v-4.036a.3.3 0 0 1 .047-.146.4.4 0 0 1 .118-.118l.505-.293a.2.2 0 0 1 .062-.013q.031 0 .061.013a.1.1 0 0 1 .038.038.1.1 0 0 1 .01.052v1.468l1.359-2.285q.054-.086.118-.165a.6.6 0 0 1 .165-.132l.576-.335a.13.13 0 0 1 .118 0c.033 0 .047.042.047.089a.2.2 0 0 1-.038.114l-1.675 2.799z"/><path fill="#F7921E" d="M77.793 132.645v5.739a1.47 1.47 0 0 1-.67 1.161l-6.004 3.512c-.368.217-.67.042-.67-.387v-5.74a1.48 1.48 0 0 1 .67-1.161c1.643-.944 4.366-2.568 6.004-3.512.373-.217.67-.042.67.388"/><path fill="#fff" d="M77.793 132.645v5.739a1.47 1.47 0 0 1-.67 1.161l-6.004 3.512c-.368.217-.67.042-.67-.387v-5.74a1.48 1.48 0 0 1 .67-1.161c1.643-.944 4.366-2.568 6.004-3.512.373-.217.67-.042.67.388" opacity=".7"/><path fill="#455A64" d="m77.793 136.798-2.36 1.378v-2.572l2.36-1.374v-.349l-7.344 4.271v.35l2.36-1.374v2.568l-2.36 1.378v.349l7.344-4.276zm-2.657 1.553-2.006 1.17v-2.553l2.006-1.166zM107.949 131.777l-5.664 3.266a1.627 1.627 0 0 0-.745 1.288v.166c0 .472.33.665.745.429l5.664-3.271a1.65 1.65 0 0 0 .746-1.288v-.118c0-.501-.335-.694-.746-.472"/><path fill="#fff" d="m65.941 126.239-.613.359q-.3.156-.581.344c-.35.26-.65.579-.887.944-.25.361-.442.757-.571 1.176a3.3 3.3 0 0 0-.123.632v.675c0 2.587 0 5.164-.028 7.746l-.317 20.768v-28.995a4.05 4.05 0 0 1 .576-1.94c.043-.076.095-.151.137-.232q.21-.325.472-.613c.225-.243.485-.453.77-.623l.811-.472z" opacity=".6"/><path fill="#F7921E" d="M63.383 127.967a4 4 0 0 0-.576 1.94v8.382-8.401c.025-.679.223-1.34.576-1.921"/><path fill="#fff" d="m109.955 100.412-9.619 5.768-9.799 5.773c-6.537 3.846-13.107 7.632-19.663 11.45l-4.933 2.832-.354-.207 14.835-8.563z"/><path fill="#E0E0E0" d="m71.423 147.208 36.204-20.954c.564-.331 1.021-.066 1.021.59v.943c-.021.355-.124.7-.301 1.007a2.26 2.26 0 0 1-.72.763l-36.19 20.959c-.565.326-1.021.061-1.021-.59v-.944a2.26 2.26 0 0 1 1.007-1.774"/><path fill="#455A64" d="M135.411 30.74h-1.374v-4.484a6.03 6.03 0 0 0-1.707-4.377 6.03 6.03 0 0 0-6.677-1.352 6.03 6.03 0 0 0-3.275 3.368 6 6 0 0 0-.41 2.361v4.484h-1.374a2.18 2.18 0 0 0-2.18 2.176v12.362a2.17 2.17 0 0 0 1.69 2.12 35 35 0 0 0 15.797 0 2.17 2.17 0 0 0 1.685-2.12V32.916a2.176 2.176 0 0 0-2.175-2.176m-5.48 12.933h-3.857l.675-4.295a2.395 2.395 0 0 1-.19-3.947 2.39 2.39 0 0 1 2.887 0 2.392 2.392 0 0 1-.19 3.947zm1.628-12.933h-7.113v-4.484a3.565 3.565 0 0 1 2.165-3.405 3.556 3.556 0 0 1 4.715 2.004c.171.447.25.924.233 1.401z"/><path fill="#E0E0E0" d="M105.174 40.558c-.472.203-.944.41-1.444.627a.476.476 0 0 0-.29.54.47.47 0 0 0 .488.371.5.5 0 0 0 .189-.042q.708-.317 1.416-.614a.473.473 0 1 0-.364-.873zm3.946-1.478q-.75.25-1.487.52a.47.47 0 0 0-.142.804.47.47 0 0 0 .468.083c.472-.175.968-.35 1.458-.515a.47.47 0 0 0 .26-.582.47.47 0 0 0-.557-.31m7.278-1.94-.698.147a.476.476 0 0 0-.253.839c.097.08.222.117.347.105a.4.4 0 0 0 .099 0l.689-.142a.473.473 0 0 0 .369-.552.466.466 0 0 0-.378-.4.5.5 0 0 0-.194.003zM97.684 44.33l-.614.373a.472.472 0 1 0 .496.802l.599-.363a.472.472 0 0 0-.472-.812zm3.676-2.016c-.472.236-.944.472-1.416.727a.472.472 0 1 0 .449.831c.472-.245.911-.472 1.373-.717a.47.47 0 0 0 .208-.633.472.472 0 0 0-.614-.208m11.763-4.427a55 55 0 0 0-1.52.415.475.475 0 0 0-.221.853.48.48 0 0 0 .353.092.6.6 0 0 0 .127 0q.745-.213 1.497-.411a.47.47 0 0 0 .375-.583.49.49 0 0 0-.234-.298.47.47 0 0 0-.377-.03zm39.176 3.304a36 36 0 0 0-1.44-.628.475.475 0 0 0-.368.874q.708.295 1.416.613a.5.5 0 0 0 .189.043.471.471 0 0 0 .193-.902zm3.776 1.855c-.472-.25-.944-.472-1.416-.727a.472.472 0 0 0-.659.567.47.47 0 0 0 .234.273c.472.232.92.472 1.373.718a.48.48 0 0 0 .513-.042.47.47 0 0 0 .144-.563.47.47 0 0 0-.208-.226zm2.893 1.661-.614-.372a.47.47 0 0 0-.656.527c.024.114.09.216.184.285l.6.363a.47.47 0 0 0 .651-.156.48.48 0 0 0 .04-.368.48.48 0 0 0-.238-.283zm-18.644-7.42-.694-.146a.47.47 0 0 0-.557.373.475.475 0 0 0 .368.553l.69.141a.4.4 0 0 0 .099 0 .474.474 0 1 0 .094-.944zm4.078 1.034a56 56 0 0 0-1.52-.415.47.47 0 0 0-.577.104.48.48 0 0 0-.11.393.47.47 0 0 0 .437.39q.752.2 1.496.411a.6.6 0 0 0 .128 0 .476.476 0 1 0 .132-.944zm3.989 1.298c-.472-.179-.987-.354-1.483-.519a.47.47 0 0 0-.507.137.47.47 0 0 0 .205.755c.472.166.977.34 1.459.515a.472.472 0 1 0 .326-.887"/></svg>