<svg xmlns="http://www.w3.org/2000/svg" width="256" height="256" fill="none"><path stroke="#D5D5D5" d="M46.906 222.581c-22.37-12.927-33.442-29.786-33.442-46.54s11.07-33.606 33.442-46.522c22.368-12.914 51.718-19.391 81.094-19.394s58.724 6.468 81.09 19.394c22.369 12.928 33.441 29.787 33.442 46.54s-11.071 33.606-33.442 46.522c-22.369 12.914-51.718 19.391-81.094 19.394s-58.724-6.468-81.09-19.394Z"/><path fill="#37474F" d="M152.072 156.684V40.208c0-2.997-1.487-3.823-2.832-4.588-1.345-.764-3.502-1.227-5.381-.141L95.781 63.256a7.51 7.51 0 0 0-3.398 5.89v116.467c0 2.171 1.36 3.445 2.68 4.21 1.322.764 3.626 1.6 5.504.519l48.097-27.768a6.39 6.39 0 0 0 3.408-5.89"/><path fill="#263238" d="m149.004 157.783-49.456 28.551V69.368l-6.188-3.573a6.9 6.9 0 0 0-.996 3.351v116.466c0 2.171 1.36 3.446 2.681 4.21 1.322.765 3.625 1.6 5.504.52l48.097-27.768a6.5 6.5 0 0 0 2.94-3.304l-.189-.113z"/><path fill="#455A64" d="m148.575 39.208-48.234 27.848a5.3 5.3 0 0 0-2.388 4.135v115.517c0 2.332 1.657 3.281 3.672 2.115l46.95-27.102a6 6 0 0 0 2.705-4.687V40.771c0-1.718-1.218-2.422-2.705-1.563"/><path fill="#000" d="M148.924 46.293v107.984a5.7 5.7 0 0 1-2.568 4.455l-43.481 25.106c-1.416.821-2.567.161-2.567-1.482V73.574a5.72 5.72 0 0 1 1.803-3.87l.24-.222q.25-.197.524-.354l12.23-7.08.797-.472c.439-.255.798-.052.798.472s.382.703.85.425l14.254-8.227a1.83 1.83 0 0 0 .854-1.416 1.82 1.82 0 0 1 .713-1.294l.08-.047 11.966-6.924.255-.151c1.793-1.034 3.252-.189 3.252 1.879"/><path fill="#263238" d="M142.632 155.847a5.67 5.67 0 0 0 2.568-4.455v-106.7l-11.749 6.777-.08.047a1.81 1.81 0 0 0-.713 1.336 1.82 1.82 0 0 1-.854 1.416l-14.254 8.227c-.472.279-.85.08-.85-.425s-.359-.717-.798-.472l-.797.472-12.23 7.08a4 4 0 0 0-.524.354l-.24.222a5.72 5.72 0 0 0-1.803 3.87v106.682z"/><path fill="#263238" d="m119.717 58.144 6.532-3.776c.392-.222.708-.066.708.359a1.5 1.5 0 0 1-.708 1.17l-6.532 3.776c-.392.227-.708.067-.708-.354a1.51 1.51 0 0 1 .708-1.175M129.601 52.126c.439-.25.797-.047.797.472a1.76 1.76 0 0 1-.797 1.378c-.439.25-.793.048-.793-.472a1.754 1.754 0 0 1 .793-1.378"/><path fill="#455A64" d="M96.848 83.118a2.86 2.86 0 0 0-1.255-2.27.85.85 0 0 0-.864-.076c-.156.1-.779.444-.944.543a.99.99 0 0 0-.387.892v9.487a2.87 2.87 0 0 0 1.256 2.275.86.86 0 0 0 .83.09c.175-.094.812-.472.973-.557a.98.98 0 0 0 .391-.901z"/><path fill="#37474F" d="M95.904 83.656v9.492c0 .854-.561 1.222-1.26.82a2.87 2.87 0 0 1-1.255-2.274v-9.478c0-.854.561-1.222 1.255-.821a2.86 2.86 0 0 1 1.26 2.26"/><path fill="#455A64" d="M96.848 99.727a2.86 2.86 0 0 0-1.255-2.27.84.84 0 0 0-.864-.075c-.156.099-.779.443-.944.542a.99.99 0 0 0-.387.892v9.488a2.87 2.87 0 0 0 1.256 2.275.86.86 0 0 0 .83.089c.175-.094.812-.472.973-.557a.97.97 0 0 0 .391-.892z"/><path fill="#37474F" d="M95.904 100.265v9.492c0 .854-.561 1.222-1.26.821a2.87 2.87 0 0 1-1.255-2.275v-9.487c0-.855.561-1.223 1.255-.822a2.86 2.86 0 0 1 1.26 2.271"/><path fill="#F7921E" d="M152.591 45.613c-.604-.35-1.416-.302-2.36.226l-.26.156-12.272 7.08-.084.052a1.86 1.86 0 0 0-.737 1.373 1.88 1.88 0 0 1-.873 1.445l-14.632 8.453h-.033a.57.57 0 0 0-.241-.5l-.845-.472a.56.56 0 0 0-.575.057l-.822.472-12.569 7.273a5 5 0 0 0-.538.368c-.085.071-.165.151-.25.227a5.9 5.9 0 0 0-1.851 3.979v111.751c0 .84.293 1.415.77 1.703l.854.472c.472.279 1.133.236 1.86-.184l44.67-25.79a5.84 5.84 0 0 0 2.638-4.578V48.256c0-1.057-.373-1.803-.977-2.153z"/><path fill="#000" d="M107.364 189.201v.217l-.25.146a1.85 1.85 0 0 1-1.859.189l-.855-.496c-.472-.273-.769-.863-.769-1.704V75.803c.039-1.01.354-1.99.911-2.832l1.005.58a5.34 5.34 0 0 0-.882 2.728V188.04c-.024.453.104.901.363 1.274a1.13 1.13 0 0 0 .906.425c.386-.017.76-.134 1.086-.34zM138.205 54.147a1.54 1.54 0 0 0-.307.854 1.86 1.86 0 0 1-.325.982l-1.011-.585c.185-.261.291-.569.307-.888.017-.339.13-.666.326-.944z" opacity=".3"/><path fill="#FAFAFA" d="M105.934 189.738a1.11 1.11 0 0 1-.906-.425 2.04 2.04 0 0 1-.364-1.274V76.289a5.73 5.73 0 0 1 1.794-3.843l.08-.07.165-.152q.242-.188.505-.344l12.565-7.255.821-.472a.6.6 0 0 1 .274-.09c.236 0 .264.279.264.397a.674.674 0 0 0 .652.76 1 1 0 0 0 .505-.156l14.632-8.454a2.07 2.07 0 0 0 .991-1.61 1.66 1.66 0 0 1 .656-1.217.3.3 0 0 1 .071-.042l12.272-7.08.264-.156c.418-.26.896-.406 1.388-.425 1.029 0 1.671.84 1.671 2.19v110.92a5.63 5.63 0 0 1-2.549 4.413l-44.67 25.79a2.2 2.2 0 0 1-1.081.345"/><path fill="#F7921E" d="M152.568 46.066c-.491.02-.97.165-1.388.425l-.264.156-12.272 7.08-.071.042a1.66 1.66 0 0 0-.66 1.232 2.05 2.05 0 0 1-.968 1.61l-14.632 8.453a1 1 0 0 1-.505.156.67.67 0 0 1-.651-.755c0-.123-.029-.401-.265-.401a.6.6 0 0 0-.274.09l-.821.471-12.564 7.255a4 4 0 0 0-.505.35q-.087.07-.166.146l-.08.07a5.75 5.75 0 0 0-1.794 3.843v17.397l49.56-28.626V48.26c-.009-1.354-.651-2.195-1.68-2.195"/><path fill="#fff" d="M152.568 46.066c-.491.02-.97.165-1.388.425l-.264.156-12.272 7.08-.071.042a1.66 1.66 0 0 0-.66 1.232 2.05 2.05 0 0 1-.968 1.61l-14.632 8.453a1 1 0 0 1-.505.156.67.67 0 0 1-.651-.755c0-.123-.029-.401-.265-.401a.6.6 0 0 0-.274.09l-.821.471-12.564 7.255a4 4 0 0 0-.505.35q-.087.07-.166.146l-.08.07a5.75 5.75 0 0 0-1.794 3.843v17.397l49.56-28.626V48.26c-.009-1.354-.651-2.195-1.68-2.195" opacity=".3"/><path fill="#FAFAFA" d="M108.243 76.325a.2.2 0 0 1 0 .076.12.12 0 0 1-.043.052l-.104.056a.04.04 0 0 1-.047 0 .1.1 0 0 1-.004-.023q0-.012.004-.024v-1.798l-.396.628a.13.13 0 0 1-.047.052.1.1 0 0 1-.024.005.1.1 0 0 1-.024-.005l-.056-.067a.1.1 0 0 1-.008-.028q0-.016.008-.028 0-.041.023-.076l.529-.84a.1.1 0 0 1 .038-.042l.037-.029.104-.056a.04.04 0 0 1 .022-.008q.011 0 .021.008a.1.1 0 0 1 .005.023.1.1 0 0 1-.005.024zM109.271 75.732a.14.14 0 0 1 0 .07.1.1 0 0 1-.047.053l-.099.061a.04.04 0 0 1-.047 0 .05.05 0 0 1-.007-.026q0-.014.007-.026v-1.798l-.397.627a.1.1 0 0 1-.02.03.1.1 0 0 1-.032.018.03.03 0 0 1-.021.007.03.03 0 0 1-.021-.007l-.057-.066a.1.1 0 0 1-.008-.031q0-.016.008-.03a.14.14 0 0 1 .024-.072l.472-.82a.2.2 0 0 1 .042-.048h.038l.099-.061a.04.04 0 0 1 .047 0 .06.06 0 0 1 0 .052zM109.852 73.943a.04.04 0 0 1 .047 0 .06.06 0 0 1 0 .052v.198a.2.2 0 0 1 0 .075.13.13 0 0 1-.047.052l-.165.095a.1.1 0 0 1-.024.007.1.1 0 0 1-.024-.007.1.1 0 0 1-.004-.024q0-.012.004-.023v-.222a.2.2 0 0 1 0-.071.15.15 0 0 1 .048-.057zm0 1.147a.04.04 0 0 1 .047 0 .05.05 0 0 1 0 .047v.222a.12.12 0 0 1 0 .07.15.15 0 0 1-.047.057l-.165.094a.05.05 0 0 1-.024.008.1.1 0 0 1-.024-.007.08.08 0 0 1 0-.052v-.218a.2.2 0 0 1 0-.075.13.13 0 0 1 .048-.052zM110.419 74.56a.21.21 0 0 0 .141.165.35.35 0 0 0 .25-.057.86.86 0 0 0 .279-.279.8.8 0 0 0 .08-.197.7.7 0 0 0 .033-.222.5.5 0 0 0-.033-.194.17.17 0 0 0-.208-.113.4.4 0 0 0-.151.056.8.8 0 0 0-.24.227l-.062.094a.2.2 0 0 1-.066.067l-.123.07a.03.03 0 0 1-.018.008.03.03 0 0 1-.019-.008v-.042l.075-1.133a.2.2 0 0 1 0-.075.13.13 0 0 1 .047-.052l.864-.5a.04.04 0 0 1 .047 0 .1.1 0 0 1 .007.025.1.1 0 0 1-.007.026v.118a.12.12 0 0 1 0 .071.14.14 0 0 1-.047.057l-.713.41-.018.59a1 1 0 0 1 .113-.118.8.8 0 0 1 .179-.127.6.6 0 0 1 .241-.09.3.3 0 0 1 .198.038q.095.061.137.165a.8.8 0 0 1 .047.293q.002.178-.047.35-.048.168-.137.32a1.4 1.4 0 0 1-.198.27 1.1 1.1 0 0 1-.241.188.6.6 0 0 1-.236.09.33.33 0 0 1-.193 0 .3.3 0 0 1-.137-.123.43.43 0 0 1-.052-.222.2.2 0 0 1 0-.061.1.1 0 0 1 .038-.043l.113-.066h.038s.014 0 .019.024M111.872 73.763q.01.045.033.085a.13.13 0 0 0 .066.057q.059.015.118 0a.6.6 0 0 0 .189-.085.7.7 0 0 0 .146-.1q.066-.067.118-.145a1 1 0 0 0 .081-.18.6.6 0 0 0 .033-.203.4.4 0 0 0-.029-.16.1.1 0 0 0-.032-.044.1.1 0 0 0-.048-.027.2.2 0 0 0-.118 0 .6.6 0 0 0-.151.066l-.203.118a.04.04 0 0 1-.047 0 .06.06 0 0 1 0-.052v-.118a.3.3 0 0 1 0-.061l.028-.057.444-.887-.708.406a.04.04 0 0 1-.047 0 .05.05 0 0 1-.007-.026q0-.014.007-.026v-.118a.12.12 0 0 1 0-.071.1.1 0 0 1 .047-.052l.967-.562a.034.034 0 0 1 .043 0 .1.1 0 0 1 .018.023.1.1 0 0 1 .006.03v.117a.2.2 0 0 1 0 .062l-.034.075-.434.873a.8.8 0 0 1 .227-.08.27.27 0 0 1 .174.038.3.3 0 0 1 .114.141.8.8 0 0 1 .037.255q.001.166-.047.326a1.2 1.2 0 0 1-.132.297 1.3 1.3 0 0 1-.429.44 1 1 0 0 1-.284.113.33.33 0 0 1-.198-.024.23.23 0 0 1-.113-.118.5.5 0 0 1-.043-.189.13.13 0 0 1 0-.061.1.1 0 0 1 .038-.043l.113-.06a.03.03 0 0 1 .022-.01q.006 0 .011.002l.01.007a.1.1 0 0 1 .014.028M115.7 69.91l-.755 2.582V71.36l-.841.472 1.596-1.945m0-.194a.16.16 0 0 0-.095.029.1.1 0 0 0-.037.033l-1.596 1.94a.2.2 0 0 0 0 .245.2.2 0 0 0 .151.066.2.2 0 0 0 .095 0l.552-.32v.792q.002.07.048.125c.03.035.072.057.117.064h.028a.19.19 0 0 0 .185-.137l.75-2.563a.2.2 0 0 0 0-.07.2.2 0 0 0-.189-.194zM141.924 56.941l-.41.236v-.802l.41-.236zM142.576 56.563l-.411.24v-1.151l.411-.236zM143.227 56.19l-.411.235V54.84l.411-.237z"/><path fill="#F7921E" d="m143.878 55.813-.41.236v-2.002l.41-.24z"/><path fill="#FAFAFA" d="M146.739 52.102a3.1 3.1 0 0 0-1.086 1.218l.274.213c.182-.373.463-.688.812-.911a.74.74 0 0 1 .821-.029l.269-.533a.975.975 0 0 0-1.09.042m-.708 1.516.25.198c.109-.21.272-.388.472-.515a.42.42 0 0 1 .472 0l.25-.472a.63.63 0 0 0-.717.029 2 2 0 0 0-.727.76m.378.278.339.274.35-.675a.31.31 0 0 0-.35 0 .94.94 0 0 0-.339.401"/><path fill="#F7921E" d="M151.694 49.294c.152-.085.27 0 .27.203v1.293a.63.63 0 0 1-.27.51l-2.308 1.331c-.146.085-.264 0-.264-.198V51.14a.64.64 0 0 1 .264-.51zm0-.108-2.308 1.33a.85.85 0 0 0-.349.67v1.294c0 .255.156.373.349.265l2.308-1.336a.83.83 0 0 0 .35-.666V49.45c0-.26-.156-.378-.35-.264"/><path fill="#FAFAFA" d="m150.76 51.536-1.298.75c-.061.033-.108 0-.108-.08v-1.09a.25.25 0 0 1 .108-.208l1.298-.75c.061-.034.109 0 .109.08v1.07a.26.26 0 0 1-.109.227"/><path fill="#F7921E" d="m152.294 50.304-.095.052v-.708l.095-.056c.052-.029.089.104.089.297a.65.65 0 0 1-.089.415"/><path fill="#FAFAFA" d="M150.868 61.533a1.06 1.06 0 0 0-.505.802c0 .279.227.378.505.212a1.05 1.05 0 0 0 .51-.797c0-.302-.226-.378-.51-.217m0-3.861a1.06 1.06 0 0 0-.505.802c0 .279.227.373.505.213a1.05 1.05 0 0 0 .51-.798c0-.283-.226-.378-.51-.217m0 1.93a1.06 1.06 0 0 0-.505.803c0 .278.227.377.505.212a1.05 1.05 0 0 0 .51-.798c0-.26-.226-.377-.51-.217"/><path fill="#F7921E" d="M152.568 46.25c.944 0 1.482.75 1.482 2.005v110.92a5.5 5.5 0 0 1-2.454 4.248l-44.67 25.79c-.298.188-.64.295-.992.312-.675 0-1.08-.562-1.08-1.51V76.287a5.55 5.55 0 0 1 1.727-3.7l.085-.076a2 2 0 0 1 .146-.132q.225-.186.472-.34l12.565-7.254.821-.472a.35.35 0 0 1 .18-.062c.07 0 .075.19.075.208a.852.852 0 0 0 .84.944c.212-.004.419-.064.6-.175l14.632-8.453A2.28 2.28 0 0 0 138.059 55a1.5 1.5 0 0 1 .576-1.066l.056-.033 12.272-7.08.26-.152c.39-.244.837-.384 1.298-.405m0-.373a3 3 0 0 0-1.482.472l-.265.15-12.272 7.08-.085.053a1.85 1.85 0 0 0-.731 1.373 1.895 1.895 0 0 1-.878 1.449l-14.632 8.454a.86.86 0 0 1-.411.127c-.278 0-.472-.208-.472-.571s-.184-.58-.472-.58a.74.74 0 0 0-.368.108l-.821.472-12.565 7.255q-.28.165-.533.368l-.25.226a5.9 5.9 0 0 0-1.855 3.98v111.731c0 1.199.594 1.888 1.458 1.888a2.4 2.4 0 0 0 1.18-.363l44.67-25.79a5.85 5.85 0 0 0 2.639-4.579V48.274c0-1.505-.755-2.36-1.855-2.36z"/><path fill="#000" d="M109.672 165.891a.2.2 0 0 0 0 .066c0 1.416 1.062 2.011 2.327 1.284l53.723-31.02a5.18 5.18 0 0 0 2.337-4.045V91.221c0-1.473-1.024-2.072-2.285-1.374l-.052.029-53.713 31.01a5.15 5.15 0 0 0-2.337 4.041v40.964" opacity=".15"/><path fill="#F7921E" d="m118.381 123.42-.944.552q-.155.084-.293.194l-.255.198-.066.062a3 3 0 0 0-.24.231 4.012 4.012 0 0 0-.449.529c-.037.047-.066.099-.104.146s-.08.113-.122.174a.1.1 0 0 1-.029.048l-.07.127v.038a5 5 0 0 0-.284.557c-.033.071-.061.141-.094.217-.033.075-.057.17-.09.255q-.071.216-.118.439c0 .085-.037.17-.052.255s0 .122-.023.174c-.024.052 0 .104 0 .151a2 2 0 0 0 0 .251v40.96s.698 1.496.703 1.515l-2.176-1.265a1.67 1.67 0 0 1-.611-.671 1.67 1.67 0 0 1-.172-.891v-41.234a2 2 0 0 1 .037-.293q.042-.26.114-.515c0-.07.042-.141.066-.217a5 5 0 0 1 .17-.434q.128-.297.292-.576.056-.099.118-.198l.099-.146c.043-.057.076-.114.118-.165q.189-.247.402-.472.086-.096.184-.18l.037-.042.189-.166c.066-.051.128-.103.198-.151a3 3 0 0 1 .298-.193l.967-.557z"/><path fill="#000" d="m118.381 123.42-.944.552q-.155.084-.293.194l-.255.198-.066.062a3 3 0 0 0-.24.231 4.012 4.012 0 0 0-.449.529c-.037.047-.066.099-.104.146l-.122.174a.1.1 0 0 1-.029.048l-.07.127v.038a5 5 0 0 0-.284.557c-.033.071-.061.141-.094.217-.033.075-.057.17-.09.255q-.071.216-.118.439c0 .085-.037.17-.052.255s0 .122-.023.174c-.024.052 0 .104 0 .151a2 2 0 0 0 0 .251v40.96s.698 1.496.703 1.515l-2.176-1.265a1.67 1.67 0 0 1-.611-.671 1.67 1.67 0 0 1-.172-.891v-41.234a2 2 0 0 1 .037-.293q.042-.26.114-.515c0-.07.042-.141.066-.217a5 5 0 0 1 .17-.434q.128-.297.292-.576.056-.099.118-.198l.099-.146c.043-.057.076-.114.118-.165q.189-.247.402-.472.086-.096.184-.18l.037-.042.189-.166c.066-.051.128-.103.198-.151a3 3 0 0 1 .298-.193l.967-.557z" opacity=".3"/><path fill="#EBEBEB" d="M172.788 92.802s-1.637.15-1.656.165l-52.751 30.453-.944.552a5.05 5.05 0 0 0-1.94 2.304l-2.266-1.308a4.94 4.94 0 0 1 1.936-2.303l.967-.557 52.727-30.454a1.63 1.63 0 0 1 1.539-.217c.552.288 2.388 1.365 2.388 1.365"/><path fill="#F7921E" d="m118.381 123.42-.944.552a5.04 5.04 0 0 0-1.94 2.303l-2.266-1.307a4.94 4.94 0 0 1 1.936-2.304l.967-.557z"/><path fill="#fff" d="m118.381 123.421-.944.552q-.153.088-.293.194a3 3 0 0 0-.255.198l-.066.061q-.131.105-.241.232a2 2 0 0 0-.137.141 4 4 0 0 0-.311.387 2 2 0 0 0-.104.147 2 2 0 0 0-.151.221c-.028.057-.066.109-.09.166a2 2 0 0 0-.151.273c-.056.095-.089.18-.141.284l-2.275-1.298q.135-.301.302-.586.055-.099.118-.198l.099-.146c.042-.057.075-.113.118-.165q.183-.251.401-.472.087-.096.184-.18l.038-.042.189-.165c.066-.052.127-.104.198-.151q.143-.107.297-.194l.968-.557z" opacity=".4"/><path fill="#F7921E" d="M115.081 168.981a.2.2 0 0 0 0 .062c0 1.439 1.058 2.015 2.323 1.284l53.732-31.001a5.2 5.2 0 0 0 2.337-4.041V94.311c0-1.473-1.025-2.077-2.285-1.374l-.052.024-53.713 31.015a5.12 5.12 0 0 0-2.332 4.04v9.946z"/><path fill="#fff" d="M115.081 168.981a.2.2 0 0 0 0 .062c0 1.439 1.058 2.015 2.323 1.284l53.732-31.001a5.2 5.2 0 0 0 2.337-4.041V94.311c0-1.473-1.025-2.077-2.285-1.374l-.052.024-53.713 31.015a5.12 5.12 0 0 0-2.332 4.04v9.946z" opacity=".1"/><path fill="#FAFAFA" d="M115.091 127.998v9.945l58.381-33.687v-9.945c0-1.473-1.024-2.077-2.284-1.374l-.052.024-53.713 31.015a5.13 5.13 0 0 0-2.332 4.022"/><path fill="#F7921E" d="M118.81 123.665v45.869l-1.392.803c-1.27.727-2.308.151-2.327-1.279a.1.1 0 0 1 0-.066v-40.97a4.7 4.7 0 0 1 .684-2.303c.047-.095.109-.185.161-.274l.25-.345.047-.066q.136-.163.278-.321c.266-.289.573-.537.911-.736l.944-.557z"/><path fill="#FAFAFA" d="m118.811 169.525 1.925-1.114v-33.71l-1.925 1.114z"/><path fill="#455A64" d="M122.044 130.765a.16.16 0 0 1-.142 0 .1.1 0 0 1-.048-.042.1.1 0 0 1-.013-.062v-4.767a.32.32 0 0 1 .061-.175.35.35 0 0 1 .142-.137l2.18-1.265c.243-.151.512-.256.793-.311a.8.8 0 0 1 .51.071.6.6 0 0 1 .278.311q.086.206.085.43.001.218-.056.429a2.6 2.6 0 0 1-.317.68 2 2 0 0 1-.136.193.75.75 0 0 1 .424.194.8.8 0 0 1 .189.613 2 2 0 0 1-.104.619 3 3 0 0 1-.302.675q-.214.35-.5.646a3 3 0 0 1-.694.538zm2.832-5.334q-.001-.283-.18-.325a.94.94 0 0 0-.562.184l-1.312.755v1.137l1.312-.755c.219-.116.41-.277.562-.472a.9.9 0 0 0 .198-.524zm-2.054 3.946 1.369-.793c.238-.123.443-.301.6-.519.117-.164.183-.36.188-.562q0-.282-.198-.344a.8.8 0 0 0-.59.16l-1.369.793zM129.275 121.39c.08-.047.137-.061.179-.042a.26.26 0 0 1 .104.132l1.813 3.63a.337.337 0 0 1-.062.222.37.37 0 0 1-.141.141l-.534.307c-.099.057-.165.076-.207.057a.16.16 0 0 1-.08-.076l-.317-.637-2.36 1.35-.316 1.005a.6.6 0 0 1-.085.17.54.54 0 0 1-.208.184l-.528.307a.2.2 0 0 1-.071.016.2.2 0 0 1-.071-.016.1.1 0 0 1-.049-.044.1.1 0 0 1-.012-.065.3.3 0 0 1 0-.056l1.812-5.726q.036-.13.104-.245a.48.48 0 0 1 .227-.142zm.411 3.016-.817-1.642-.816 2.582zM135.416 123.042c-.085.047-.151.066-.194.047a.6.6 0 0 1-.099-.052l-2.072-1.888v3.073a.34.34 0 0 1-.057.174.4.4 0 0 1-.141.137l-.6.349a.16.16 0 0 1-.141 0 .1.1 0 0 1-.048-.042.1.1 0 0 1-.014-.061v-4.777a.43.43 0 0 1 .203-.316l.519-.302a.2.2 0 0 1 .09-.043.2.2 0 0 1 .099 0 .5.5 0 0 1 .099.047l2.072 1.888v-3.049a.33.33 0 0 1 .057-.174.5.5 0 0 1 .142-.142l.599-.345a.16.16 0 0 1 .142 0q.03.014.048.044.017.031.013.065v4.753a.3.3 0 0 1-.061.175.4.4 0 0 1-.142.141zM141.216 119.38c.028 0 .043 0 .047.043a.36.36 0 0 1-.056.217.4.4 0 0 1-.142.137l-.703.405a.34.34 0 0 1-.236.062l-.104-.033-1.742-.944v1.93a.33.33 0 0 1-.056.175.4.4 0 0 1-.142.142l-.599.349a.2.2 0 0 1-.071.016.2.2 0 0 1-.071-.016.103.103 0 0 1-.061-.104v-4.781a.36.36 0 0 1 .061-.175.4.4 0 0 1 .142-.142l.599-.344a.15.15 0 0 1 .142 0 .1.1 0 0 1 .045.042q.015.03.011.062v1.741l1.615-2.709q.06-.108.141-.203a.8.8 0 0 1 .194-.156l.679-.391a.15.15 0 0 1 .071-.017q.038 0 .071.017a.1.1 0 0 1 .045.042q.017.029.012.061a.3.3 0 0 1-.043.137l-1.992 3.304z"/><path fill="#F7921E" d="M132.866 131.265v6.782a1.75 1.75 0 0 1-.232.784c-.137.24-.329.443-.561.595l-7.122 4.149c-.439.254-.798.051-.798-.472v-6.755a1.762 1.762 0 0 1 .798-1.378c1.945-1.123 5.192-3.044 7.122-4.168.439-.25.793-.047.793.463"/><path fill="#fff" d="M132.866 131.265v6.782a1.75 1.75 0 0 1-.232.784c-.137.24-.329.443-.561.595l-7.122 4.149c-.439.254-.798.051-.798-.472v-6.755a1.762 1.762 0 0 1 .798-1.378c1.945-1.123 5.192-3.044 7.122-4.168.439-.25.793-.047.793.463" opacity=".7"/><path fill="#455A64" d="m132.866 136.193-2.803 1.633v-3.049l2.803-1.633v-.425l-8.713 5.074v.415l2.832-1.633v3.044l-2.832 1.634v.434l8.713-5.07zm-3.167 1.845-2.36 1.383v-3.049l2.384-1.383zM168.635 130.254l-6.693 3.88a1.95 1.95 0 0 0-.882 1.529v.141c0 .562.396.793.882.51l6.693-3.88c.259-.166.474-.391.628-.657s.243-.565.26-.872v-.141c.014-.562-.397-.789-.888-.51"/><path fill="#fff" d="m118.811 123.665-.732.425c-.245.142-.472.279-.689.411-.413.305-.77.68-1.052 1.109a5.1 5.1 0 0 0-.68 1.392 4.3 4.3 0 0 0-.142.751v.807c0 3.063 0 6.136-.033 9.18l-.373 24.62v-34.338a4.7 4.7 0 0 1 .685-2.303c.047-.095.108-.185.16-.274q.256-.392.576-.732c.266-.289.573-.537.911-.736l.944-.557z" opacity=".6"/><path fill="#F7921E" d="M115.771 125.719a4.76 4.76 0 0 0-.68 2.298v9.945-9.963c.03-.806.264-1.59.68-2.28"/><path fill="#E0E0E0" d="m125.406 147.476 42.461-24.503c.662-.386 1.198-.077 1.198.69v1.104a2.66 2.66 0 0 1-1.198 2.069l-42.445 24.509c-.662.381-1.197.072-1.197-.69v-1.104a2.63 2.63 0 0 1 1.181-2.075"/><path fill="#fff" d="m171.018 93.033-11.394 6.844-11.625 6.854c-7.755 4.564-15.548 9.053-23.322 13.584l-5.848 3.351-.425-.245L136 113.263z"/><g fill="#fff" opacity=".15"><path d="M173.473 94.313c0-1.473-1.025-2.077-2.285-1.374l-.052.024-5.494 3.172-50.561 71.357v1.491a.2.2 0 0 0 0 .062c0 1.439 1.058 2.015 2.323 1.283l12.376-7.146 43.683-61.643zM133.99 114.41l-5.603 3.233-13.296 18.734v1.586l-.005 3.068zM173.473 114.887v-4.658l-33.38 47.006 5.607-3.238zM173.473 128.429v-9.128l-22.382 31.586 10.95-6.325zM157.698 100.788l-.019-.052-13.06 7.538-29.533 41.678-.005 10.974z"/></g><g fill="#F7921E" opacity=".3"><path d="M115.077 168.982v-1.506l-2.266-3.191v3.384a1.68 1.68 0 0 0 .788 1.563c.236.141.784.472 1.275.741a2.14 2.14 0 0 0 .203-.987zM112.82 133.186v4.658l2.261 3.186v-4.654zM115.081 160.915l.005-9.289v-1.676l-2.266-3.2v10.969z"/></g><path fill="#000" d="M111.48 110.003v-13.5a1.13 1.13 0 0 1 .484-.855l32.237-18.562c.275-.158.5 0 .5.287v13.5a1.12 1.12 0 0 1-.5.866l-32.237 18.534c-.259.18-.484.05-.484-.27" opacity=".15"/><path fill="#F7921E" d="m145.945 78.077-32.22 18.59a1.123 1.123 0 0 0-.5.866v13.5a1.09 1.09 0 0 0 .5.86l1.795 1.007a1.11 1.11 0 0 0 1.001 0l32.219-18.59a1.12 1.12 0 0 0 .501-.866v-13.5a1.08 1.08 0 0 0-.506-.86l-1.789-1.008a1.13 1.13 0 0 0-1.001 0"/><path fill="#F7921E" d="M116.02 112.589v-13.5a1.11 1.11 0 0 1 .5-.865l32.22-18.597c.275-.157.5-.028.5.293v13.5a1.133 1.133 0 0 1-.5.866l-32.22 18.59c-.275.158-.5.028-.5-.287"/><path fill="#000" d="M116.521 112.877a1.16 1.16 0 0 1-1.001 0l-1.795-1.007a1.077 1.077 0 0 1-.5-.86v-13.5c.008-.181.062-.358.157-.512l2.813 1.592a1 1 0 0 0-.147.495v13.5c-.028.292.18.461.473.292" opacity=".2"/><path fill="#fff" d="M149.235 79.848c-.04-.253-.248-.343-.495-.202l-32.22 18.596c-.147.091-.269.22-.354.371l-2.812-1.592c.084-.144.201-.265.343-.354l32.219-18.59a1.13 1.13 0 0 1 1.001 0l1.789 1a1.12 1.12 0 0 1 .529.771" opacity=".4"/><path fill="#FAFAFA" d="M127.557 95.289q1.011-.59 1.574-.276c.377.208.563.726.563 1.541.011.77-.183 1.53-.563 2.2a4.2 4.2 0 0 1-1.574 1.552l-1.339.776v2.487a.5.5 0 0 1-.068.247.44.44 0 0 1-.157.186l-.681.388a.13.13 0 0 1-.079.026.13.13 0 0 1-.078-.026.21.21 0 0 1-.068-.175v-7.2a.56.56 0 0 1 .068-.253.4.4 0 0 1 .157-.18zm-1.339 4.398 1.299-.748c.301-.172.56-.408.76-.692.198-.31.297-.673.281-1.04 0-.416-.09-.653-.281-.703-.27-.03-.541.042-.76.202l-1.299.748zM133.001 92.144c.09-.05.157-.062.202 0 .059.06.1.137.119.22l2.047 5.866a.2.2 0 0 1 0 .073.5.5 0 0 1-.068.248.4.4 0 0 1-.157.18l-.602.348q-.168.101-.236.04a.26.26 0 0 1-.09-.13l-.36-1.029-2.644 1.524-.36 1.446a1 1 0 0 1-.095.236.57.57 0 0 1-.231.231l-.602.349c-.067.033-.118.039-.163 0a.2.2 0 0 1-.054-.08.2.2 0 0 1-.014-.095 1 1 0 0 1 0-.084l2.048-8.235q.038-.181.118-.349a.5.5 0 0 1 .203-.214zm.461 4.63-.917-2.645-.894 3.707zM139.948 88.133a.14.14 0 0 1 .158 0q.036.03.055.076.017.045.012.093a.4.4 0 0 1 0 .112l-1.98 5.794v2.458a.54.54 0 0 1-.067.247.46.46 0 0 1-.163.186l-.67.382a.13.13 0 0 1-.157 0 .2.2 0 0 1-.055-.079.2.2 0 0 1-.013-.095V94.86l-1.98-3.51a.2.2 0 0 1 0-.09.56.56 0 0 1 .068-.253.4.4 0 0 1 .157-.18l.63-.36q.161-.101.248-.034a.3.3 0 0 1 .101.107l1.356 2.38 1.355-3.938q.04-.117.101-.225a.65.65 0 0 1 .248-.259z"/><path fill="#F7921E" d="M122.596 198.271a13.4 13.4 0 0 0-4.956-4.583c-8.099-4.678-21.24-4.678-29.334 0-2.313 1.336-3.96 2.907-4.952 4.583h-1.137v4.248c.15 2.95 2.166 5.867 6.06 8.118 8.105 4.678 21.24 4.678 29.335 0 3.894-2.251 5.924-5.168 6.075-8.118v-4.248z"/><path fill="#000" d="M122.596 198.271a13.4 13.4 0 0 0-4.956-4.583c-8.099-4.678-21.24-4.678-29.334 0-2.313 1.336-3.96 2.907-4.952 4.583h-1.137v4.248c.15 2.95 2.166 5.867 6.06 8.118 8.105 4.678 21.24 4.678 29.335 0 3.894-2.251 5.924-5.168 6.075-8.118v-4.248z" opacity=".25"/><path fill="#000" d="M102.985 190.18c-5.31 0-10.615 1.166-14.67 3.507-2.313 1.335-3.96 2.907-4.951 4.583h-1.147v4.248c.15 2.95 2.166 5.867 6.06 8.118 4.055 2.337 9.36 3.507 14.67 3.507z" opacity=".1"/><path fill="#000" d="M91.657 192.125a22.6 22.6 0 0 0-3.342 1.562c-2.313 1.336-3.96 2.908-4.951 4.583h-1.147v4.248c.15 2.95 2.166 5.867 6.06 8.119a22.6 22.6 0 0 0 3.342 1.562z" opacity=".1"/><path fill="#F7921E" d="M114.312 192.125c1.154.429 2.27.951 3.338 1.562a13.4 13.4 0 0 1 4.956 4.583h1.118v4.248c-.151 2.95-2.18 5.867-6.074 8.119a22.5 22.5 0 0 1-3.338 1.562z" opacity=".5"/><path fill="#F7921E" d="M88.305 189.803c-8.1 4.677-8.1 12.272 0 16.935 7.08 4.092 18.031 4.602 26.078 1.534l.321-.123a23 23 0 0 0 2.931-1.416c6.755-3.899 7.878-9.817 3.366-14.391a15.6 15.6 0 0 0-3.361-2.544c-8.1-4.687-21.23-4.687-29.335.005"/><path fill="#000" d="M88.305 189.803c-8.1 4.677-8.1 12.272 0 16.935 7.08 4.092 18.031 4.602 26.078 1.534l.321-.123a23 23 0 0 0 2.931-1.416c6.755-3.899 7.878-9.817 3.366-14.391a15.6 15.6 0 0 0-3.361-2.544c-8.1-4.687-21.23-4.687-29.335.005" opacity=".2"/><path fill="#F5F5F5" d="M121.005 192.346c.085.099 2.922 3.087 2.167 7.387-.713 4.115-6.476 7.58-8.463 8.415a23 23 0 0 0 2.931-1.416c6.754-3.894 7.878-9.822 3.365-14.386M84.945 204.194a9.05 9.05 0 0 1-2.171-7.386c.717-4.116 6.48-7.581 8.467-8.412-1.01.399-1.99.872-2.93 1.416-6.76 3.89-7.879 9.813-3.366 14.382" opacity=".5"/><path fill="#F7921E" d="M116.616 206.125c7.552-4.348 7.552-11.394 0-15.742-7.552-4.347-19.74-4.347-27.267 0-7.529 4.348-7.553 11.394 0 15.742 7.551 4.347 19.734 4.347 27.267 0"/><path fill="#fff" d="M116.616 206.125c7.552-4.348 7.552-11.394 0-15.742-7.552-4.347-19.74-4.347-27.267 0-7.529 4.348-7.553 11.394 0 15.742 7.551 4.347 19.734 4.347 27.267 0" opacity=".4"/><path fill="#fff" d="M121.392 201.578c1.549-2.865 1.043-6.022-1.515-8.699q-.757-.776-1.633-1.416a17.6 17.6 0 0 0-2.506-1.543c.802 1.322.505 2.733-4.036 2.997-8.883.519 2.36 9.011 2.36 9.011s5.735-2.78 7.33-.35" opacity=".2"/><path fill="#fff" d="M120.449 199.228c1.335-.146 1.996-1.52 1.477-3.063s-2.02-2.672-3.351-2.521-1.997 1.52-1.478 3.064c.52 1.543 2.039 2.671 3.352 2.52" opacity=".5"/><path fill="#F7921E" d="M106.411 206.308c-.434-3.304-14.863-12.437-14.863-12.437s-3.195-1.284-2.133-3.521q-.8.456-1.544 1a11 11 0 0 0-.944.741c-4.295 3.72-4.3 8.605 0 12.324q.433.383.944.746.684.509 1.416.944c.472.288 1 .552 1.53.798.42.203.854.387 1.298.561.443.175.892.34 1.354.472 1.404.46 2.842.807 4.3 1.039l.972.137a33.4 33.4 0 0 0 9.568-.161s-2.308-.477-1.898-2.643"/><path fill="#fff" d="M106.411 206.308c-.434-3.304-14.863-12.437-14.863-12.437s-3.195-1.284-2.133-3.521q-.8.456-1.544 1a11 11 0 0 0-.944.741c-4.295 3.72-4.3 8.605 0 12.324q.433.383.944.746.684.509 1.416.944c.472.288 1 .552 1.53.798.42.203.854.387 1.298.561.443.175.892.34 1.354.472 1.404.46 2.842.807 4.3 1.039l.972.137a33.4 33.4 0 0 0 9.568-.161s-2.308-.477-1.898-2.643" opacity=".3"/><path fill="#F7921E" d="M92.818 192.389c-5.38 3.106-5.598 8.062-.656 11.328.208.137.43.274.656.406 5.612 3.238 14.703 3.238 20.296 0s5.612-8.496 0-11.729c-.226-.132-.472-.26-.703-.382-5.626-2.856-14.212-2.728-19.593.377"/><path fill="#000" d="M92.818 192.389c-5.38 3.106-5.598 8.062-.656 11.328.208.137.43.274.656.406 5.612 3.238 14.703 3.238 20.296 0s5.612-8.496 0-11.729c-.226-.132-.472-.26-.703-.382-5.626-2.856-14.212-2.728-19.593.377" opacity=".2"/><path fill="#F7921E" d="M102.98 206.176c7.584 0 13.731-3.548 13.731-7.925s-6.147-7.925-13.731-7.925-13.73 3.548-13.73 7.925 6.147 7.925 13.73 7.925"/><path fill="#000" d="M102.98 206.176c7.584 0 13.731-3.548 13.731-7.925s-6.147-7.925-13.731-7.925-13.73 3.548-13.73 7.925 6.147 7.925 13.73 7.925" opacity=".5"/><path fill="#F7921E" d="M93.276 194.857c5.362-3.096 14.051-3.096 19.413 0 2.195 1.27 3.488 2.856 3.89 4.503-.402 1.643-1.695 3.233-3.89 4.498-5.362 3.097-14.051 3.097-19.413 0-2.195-1.265-3.488-2.855-3.89-4.498.383-1.647 1.695-3.238 3.89-4.503"/><path fill="#000" d="M93.276 194.857c5.362-3.096 14.051-3.096 19.413 0 2.195 1.27 3.488 2.856 3.89 4.503-.402 1.643-1.695 3.233-3.89 4.498-5.362 3.097-14.051 3.097-19.413 0-2.195-1.265-3.488-2.855-3.89-4.498.383-1.647 1.695-3.238 3.89-4.503" opacity=".35"/><path fill="#F7921E" d="M111.627 200.64v-1.638c0-.671-.472-1.322-1.463-1.888l-.033-.024c-1.846-1.067-3.753-.944-5.447-.5-.722.179-1.416.415-2.035.632q-1.072.398-2.18.675a3.9 3.9 0 0 1-1.034.099 2.2 2.2 0 0 1-.859-.226l.066-.047c.066-.048.142-.09.217-.137q.28-.16.576-.283a3.967 3.967 0 0 1 3.049-.071l1.761-1.775v-1.628a8.3 8.3 0 0 0-4.81-.175 9.4 9.4 0 0 0-1.53.529l-1.779-1.048-2.11 1.232v1.628l.723.415a1.73 1.73 0 0 0-.312.944v1.629c0 .67.472 1.321 1.496 1.888a6.16 6.16 0 0 0 2.899.835h.58a11.3 11.3 0 0 0 3.115-.675c.208-.066.406-.137.604-.207l-1.77 1.779v1.628a8.66 8.66 0 0 0 6.788-.292l1.742 1 2.1-1.213v-1.623l-.722-.416a1.9 1.9 0 0 0 .368-1.047m-4.427-.137a5 5 0 0 1-.472.24 4.5 4.5 0 0 1-3.437.052c1.648-.58 3.021-1.085 4.192-.472a8 8 0 0 1-.283.18"/><path fill="#F7921E" d="M104.684 196.571c-.722.179-1.416.415-2.035.632q-1.072.398-2.18.675-.51.12-1.034.099a2.3 2.3 0 0 1-1-.297c-.675-.392-.775-.944.207-1.609l.217-.133a5 5 0 0 1 .576-.283 4 4 0 0 1 1.518-.34 3.95 3.95 0 0 1 1.531.269l1.761-1.774a8.3 8.3 0 0 0-4.81-.175 9.4 9.4 0 0 0-1.53.529l-1.779-1.029-2.11 1.232 1.742 1c-1.765 1.346-1.803 2.733.184 3.885a6.15 6.15 0 0 0 2.898.831h.581a11.5 11.5 0 0 0 3.115-.675c2.016-.675 3.649-1.468 5.008-.685.911.524.656 1.185-.34 1.766q-.229.133-.472.24a4.52 4.52 0 0 1-3.497.029l-1.846 1.85a8.636 8.636 0 0 0 6.788-.298l1.741 1.006 2.101-1.213-1.742-1.006c1.751-1.35 1.949-2.832-.09-4.016l-.033-.024c-1.869-1.052-3.776-.911-5.47-.486"/><path fill="#fff" d="M104.684 196.571c-.722.179-1.416.415-2.035.632q-1.072.398-2.18.675-.51.12-1.034.099a2.3 2.3 0 0 1-1-.297c-.675-.392-.775-.944.207-1.609l.217-.133a5 5 0 0 1 .576-.283 4 4 0 0 1 1.518-.34 3.95 3.95 0 0 1 1.531.269l1.761-1.774a8.3 8.3 0 0 0-4.81-.175 9.4 9.4 0 0 0-1.53.529l-1.779-1.029-2.11 1.232 1.742 1c-1.765 1.346-1.803 2.733.184 3.885a6.15 6.15 0 0 0 2.898.831h.581a11.5 11.5 0 0 0 3.115-.675c2.016-.675 3.649-1.468 5.008-.685.911.524.656 1.185-.34 1.766q-.229.133-.472.24a4.52 4.52 0 0 1-3.497.029l-1.846 1.85a8.636 8.636 0 0 0 6.788-.298l1.741 1.006 2.101-1.213-1.742-1.006c1.751-1.35 1.949-2.832-.09-4.016l-.033-.024c-1.869-1.052-3.776-.911-5.47-.486" opacity=".3"/><path fill="#F5F5F5" d="m94.026 194.367 2.12-.963 1.741.765-1.76-1.015zM99.17 193.706a9.84 9.84 0 0 1 4.518.151l-1.218 1.732 1.756-1.774a8.36 8.36 0 0 0-5.055-.109M110.13 197.072l.034.023c2.039 1.194 1.84 2.667.089 4.017 1.548-1.685 1.27-2.86-.41-3.833-1.681-.972-3.828-.944-5.159-.708 1.694-.424 3.601-.566 5.446.501" opacity=".45"/><path fill="#F5F5F5" d="m110.253 201.111 1.336 1.025-1.694 1.194 2.1-1.213zM106.709 200.744a4.5 4.5 0 0 1-3.346.293l-1.997 1.586 1.846-1.851a4.51 4.51 0 0 0 3.497-.028M100.45 197.884c-.793.311-1.935.26-2.516-.241-.58-.5-.217-1.081.69-1.567-.983.647-.883 1.218-.209 1.61.307.175.65.277 1.001.297q.524.02 1.034-.099M95.749 195.381c-.151.132-1.416 1.312-.855 2.492.59 1.256 2.445 2.063 3.942 2.223a6.1 6.1 0 0 1-2.898-.831c-1.992-1.151-1.955-2.539-.19-3.884" opacity=".45"/><path fill="#F7921E" d="M120.198 191.937c-.991-1.676-2.638-3.247-4.951-4.583-8.104-4.678-21.24-4.678-29.335 0-2.313 1.336-3.965 2.907-4.956 4.583h-1.1v4.248c.151 2.95 2.167 5.867 6.06 8.118 8.1 4.678 21.241 4.678 29.336 0 3.894-2.251 5.923-5.168 6.074-8.118v-4.248z"/><path fill="#000" d="M120.198 191.937c-.991-1.676-2.638-3.247-4.951-4.583-8.104-4.678-21.24-4.678-29.335 0-2.313 1.336-3.965 2.907-4.956 4.583h-1.1v4.248c.151 2.95 2.167 5.867 6.06 8.118 8.1 4.678 21.241 4.678 29.336 0 3.894-2.251 5.923-5.168 6.074-8.118v-4.248z" opacity=".25"/><path fill="#000" d="M100.582 183.848c-5.31 0-10.62 1.165-14.67 3.507-2.313 1.335-3.965 2.907-4.956 4.583h-1.1v4.248c.151 2.95 2.167 5.867 6.06 8.118 4.05 2.337 9.36 3.507 14.671 3.507z" opacity=".1"/><path fill="#000" d="M89.25 185.791c-1.154.429-2.27.951-3.338 1.562-2.313 1.336-3.965 2.908-4.956 4.583h-1.1v4.248c.151 2.95 2.167 5.867 6.06 8.119a22.6 22.6 0 0 0 3.338 1.562z" opacity=".1"/><path fill="#F7921E" d="M111.905 185.791c1.155.429 2.273.951 3.342 1.562 2.313 1.336 3.96 2.908 4.951 4.583h1.124v4.248c-.151 2.95-2.181 5.867-6.075 8.119a22.6 22.6 0 0 1-3.342 1.562z" opacity=".5"/><path fill="#F7921E" d="M85.913 183.47c-8.1 4.677-8.1 12.272 0 16.935 7.08 4.092 18.025 4.602 26.078 1.534l.32-.123q1.518-.6 2.932-1.416c6.759-3.898 7.877-9.817 3.365-14.391a15.7 15.7 0 0 0-3.365-2.544c-8.095-4.673-21.226-4.673-29.33.005"/><path fill="#000" d="M85.913 183.47c-8.1 4.677-8.1 12.272 0 16.935 7.08 4.092 18.025 4.602 26.078 1.534l.32-.123q1.518-.6 2.932-1.416c6.759-3.898 7.877-9.817 3.365-14.391a15.7 15.7 0 0 0-3.365-2.544c-8.095-4.673-21.226-4.673-29.33.005" opacity=".2"/><path fill="#F5F5F5" d="M118.608 186.014a9.058 9.058 0 0 1 2.171 7.386c-.717 4.116-6.48 7.581-8.467 8.416q1.517-.6 2.931-1.416c6.759-3.894 7.877-9.813 3.365-14.386M82.547 197.856c-.085-.099-2.922-3.086-2.167-7.386.718-4.116 6.481-7.581 8.463-8.411-1.01.4-1.99.873-2.93 1.416-6.755 3.894-7.878 9.817-3.366 14.381" opacity=".5"/><path fill="#F7921E" d="M114.218 199.791c7.529-4.348 7.529-11.394 0-15.742-7.528-4.347-19.739-4.347-27.267 0s-7.528 11.394 0 15.742c7.528 4.347 19.739 4.347 27.267 0"/><path fill="#fff" d="M114.218 199.791c7.529-4.348 7.529-11.394 0-15.742-7.528-4.347-19.739-4.347-27.267 0s-7.528 11.394 0 15.742c7.528 4.347 19.739 4.347 27.267 0" opacity=".4"/><path fill="#fff" d="M118.99 195.246c1.553-2.865 1.044-6.022-1.515-8.699a13 13 0 0 0-1.633-1.416q-.75-.556-1.557-1.029a23 23 0 0 0-.944-.514c.802 1.321.509 2.733-4.031 2.997-8.888.519 2.36 9.011 2.36 9.011s5.735-2.781 7.32-.35" opacity=".2"/><path fill="#fff" d="M118.089 192.896c1.331-.146 1.992-1.52 1.477-3.063s-2.02-2.672-3.356-2.521-1.992 1.52-1.477 3.064c.514 1.543 2.006 2.671 3.356 2.52" opacity=".5"/><path fill="#F7921E" d="M104.018 199.976c-.439-3.304-14.864-12.437-14.864-12.437s-3.2-1.284-2.138-3.521q-.798.46-1.543 1c-.33.241-.642.472-.944.741-4.295 3.72-4.3 8.605 0 12.324.293.255.604.505.944.746.444.321.92.632 1.416.944s1 .552 1.53.798c.42.203.858.387 1.302.561s.892.34 1.35.472c1.405.459 2.844.806 4.304 1.039l.968.137c3.18.406 6.403.352 9.567-.161 0 0-2.308-.477-1.892-2.643"/><path fill="#fff" d="M104.018 199.976c-.439-3.304-14.864-12.437-14.864-12.437s-3.2-1.284-2.138-3.521q-.798.46-1.543 1c-.33.241-.642.472-.944.741-4.295 3.72-4.3 8.605 0 12.324.293.255.604.505.944.746.444.321.92.632 1.416.944s1 .552 1.53.798c.42.203.858.387 1.302.561s.892.34 1.35.472c1.405.459 2.844.806 4.304 1.039l.968.137c3.18.406 6.403.352 9.567-.161 0 0-2.308-.477-1.892-2.643" opacity=".3"/><path fill="#F7921E" d="M90.42 186.055c-5.381 3.106-5.598 8.062-.656 11.328q.316.207.66.406c5.608 3.238 14.703 3.238 20.297 0 5.593-3.238 5.612-8.496 0-11.729a19 19 0 0 0-.708-.382c-5.613-2.856-14.212-2.728-19.593.377"/><path fill="#000" d="M90.42 186.055c-5.381 3.106-5.598 8.062-.656 11.328q.316.207.66.406c5.608 3.238 14.703 3.238 20.297 0 5.593-3.238 5.612-8.496 0-11.729a19 19 0 0 0-.708-.382c-5.613-2.856-14.212-2.728-19.593.377" opacity=".2"/><path fill="#F7921E" d="M100.587 199.844c7.583 0 13.73-3.548 13.73-7.925s-6.147-7.925-13.73-7.925-13.73 3.548-13.73 7.925 6.147 7.925 13.73 7.925"/><path fill="#000" d="M100.587 199.844c7.583 0 13.73-3.548 13.73-7.925s-6.147-7.925-13.73-7.925-13.73 3.548-13.73 7.925 6.147 7.925 13.73 7.925" opacity=".5"/><path fill="#F7921E" d="M90.878 188.525c5.362-3.096 14.056-3.096 19.418 0 2.19 1.265 3.488 2.832 3.884 4.503-.396 1.643-1.694 3.233-3.884 4.498-5.362 3.097-14.056 3.097-19.418 0-2.19-1.265-3.488-2.855-3.885-4.498.416-1.647 1.695-3.238 3.885-4.503"/><path fill="#000" d="M90.878 188.525c5.362-3.096 14.056-3.096 19.418 0 2.19 1.265 3.488 2.832 3.884 4.503-.396 1.643-1.694 3.233-3.884 4.498-5.362 3.097-14.056 3.097-19.418 0-2.19-1.265-3.488-2.855-3.885-4.498.416-1.647 1.695-3.238 3.885-4.503" opacity=".35"/><path fill="#F7921E" d="M109.234 194.306v-1.638c0-.67-.472-1.322-1.468-1.888l-.033-.024c-1.845-1.066-3.747-.944-5.447-.5-.722.18-1.416.415-2.029.633q-1.074.394-2.18.675-.513.119-1.04.099a2.3 2.3 0 0 1-.858-.227l.07-.047.213-.137q.279-.159.576-.283a4 4 0 0 1 3.054-.071l1.76-1.775v-1.652a8.32 8.32 0 0 0-4.814-.174 10 10 0 0 0-1.53.528l-1.76-1.014-2.1 1.213v1.628l.717.415c-.19.279-.297.607-.307.944v1.629c0 .67.472 1.321 1.496 1.888a6.2 6.2 0 0 0 2.903.835h.58a11.3 11.3 0 0 0 3.116-.675q.312-.1.609-.207l-1.775 1.779v1.628a8.67 8.67 0 0 0 6.792-.292l1.737 1 2.101-1.213v-1.628l-.723-.415c.211-.305.329-.664.34-1.034m-4.432-.137q-.23.134-.472.241a4.51 4.51 0 0 1-3.436.052c1.643-.581 3.016-1.086 4.191-.472-.099.089-.184.122-.283.179"/><path fill="#F7921E" d="M102.286 190.238c-.722.18-1.416.416-2.029.633q-1.074.394-2.18.675-.513.118-1.04.099a2.3 2.3 0 0 1-.995-.297c-.68-.392-.774-.944.207-1.61l.213-.132q.278-.16.576-.283a3.97 3.97 0 0 1 3.054-.071l1.76-1.775a8.32 8.32 0 0 0-4.814-.174 10 10 0 0 0-1.53.528l-1.76-1.015-2.1 1.213 1.741 1.001c-1.765 1.345-1.803 2.733.184 3.885a6.17 6.17 0 0 0 2.903.83h.58a11.5 11.5 0 0 0 3.116-.675c2.02-.675 3.653-1.468 5.008-.684.911.529.66 1.185-.34 1.765q-.23.134-.472.241a4.53 4.53 0 0 1-3.502.028l-1.846 1.851a8.64 8.64 0 0 0 6.792-.298l1.737 1.006 2.101-1.213-1.737-1.006c1.746-1.35 1.949-2.832-.095-4.017l-.033-.023c-1.897-1.048-3.799-.888-5.499-.482"/><path fill="#fff" d="M102.286 190.238c-.722.18-1.416.416-2.029.633q-1.074.394-2.18.675-.513.118-1.04.099a2.3 2.3 0 0 1-.995-.297c-.68-.392-.774-.944.207-1.61l.213-.132q.278-.16.576-.283a3.97 3.97 0 0 1 3.054-.071l1.76-1.775a8.32 8.32 0 0 0-4.814-.174 10 10 0 0 0-1.53.528l-1.76-1.015-2.1 1.213 1.741 1.001c-1.765 1.345-1.803 2.733.184 3.885a6.17 6.17 0 0 0 2.903.83h.58a11.5 11.5 0 0 0 3.116-.675c2.02-.675 3.653-1.468 5.008-.684.911.529.66 1.185-.34 1.765q-.23.134-.472.241a4.53 4.53 0 0 1-3.502.028l-1.846 1.851a8.64 8.64 0 0 0 6.792-.298l1.737 1.006 2.101-1.213-1.737-1.006c1.746-1.35 1.949-2.832-.095-4.017l-.033-.023c-1.897-1.048-3.799-.888-5.499-.482" opacity=".3"/><path fill="#F5F5F5" d="m91.628 188.033 2.124-.963 1.737.765-1.76-1.015zM96.777 187.374a9.8 9.8 0 0 1 4.513.151l-1.218 1.732 1.76-1.774a8.36 8.36 0 0 0-5.055-.109M107.733 190.738l.033.023c2.044 1.194 1.841 2.667.094 4.017 1.549-1.685 1.27-2.86-.415-3.833-1.685-.972-3.828-.944-5.159-.708 1.699-.406 3.601-.566 5.447.501M107.861 194.779l1.331 1.025-1.695 1.194 2.1-1.213zM104.316 194.41a4.51 4.51 0 0 1-3.352.293l-1.996 1.586 1.845-1.851a4.53 4.53 0 0 0 3.503-.028M98.057 191.55c-.793.311-1.94.26-2.516-.241-.575-.5-.217-1.081.69-1.567-.982.647-.888 1.218-.208 1.61.305.174.645.276.996.297a4 4 0 0 0 1.038-.099M93.35 189.049c-.145.132-1.415 1.312-.853 2.492.594 1.256 2.444 2.063 3.94 2.223a6.2 6.2 0 0 1-2.902-.831c-1.987-1.151-1.95-2.539-.184-3.884" opacity=".45"/><path fill="#F7921E" d="M82.565 185.319a13.36 13.36 0 0 1 4.956-4.578c8.1-4.678 21.24-4.678 29.331 0a13.37 13.37 0 0 1 4.956 4.578h1.118v4.248c-.146 2.945-2.166 5.867-6.06 8.118-8.1 4.673-21.24 4.673-29.33 0-3.894-2.251-5.929-5.192-6.075-8.118v-4.248z"/><path fill="#000" d="M82.565 185.319a13.36 13.36 0 0 1 4.956-4.578c8.1-4.678 21.24-4.678 29.331 0a13.37 13.37 0 0 1 4.956 4.578h1.118v4.248c-.146 2.945-2.166 5.867-6.06 8.118-8.1 4.673-21.24 4.673-29.33 0-3.894-2.251-5.929-5.192-6.075-8.118v-4.248z" opacity=".25"/><path fill="#000" d="M102.187 177.229c5.305 0 10.615 1.17 14.665 3.511a13.4 13.4 0 0 1 4.956 4.579h1.118v4.248c-.146 2.945-2.166 5.867-6.06 8.118-4.05 2.336-9.36 3.507-14.665 3.507z" opacity=".1"/><path fill="#000" d="M113.515 179.174a23 23 0 0 1 3.337 1.567 13.36 13.36 0 0 1 4.956 4.578h1.118v4.248c-.146 2.946-2.166 5.867-6.06 8.119a23 23 0 0 1-3.337 1.562z" opacity=".1"/><path fill="#F7921E" d="M90.859 179.174a23 23 0 0 0-3.337 1.567 13.36 13.36 0 0 0-4.956 4.578h-1.119v4.248c.147 2.946 2.18 5.867 6.075 8.119 1.07.608 2.185 1.13 3.337 1.562z" opacity=".5"/><path fill="#F7921E" d="M116.852 176.856c8.104 4.673 8.099 12.272 0 16.936-7.08 4.092-18.026 4.602-26.078 1.534l-.321-.128a23 23 0 0 1-2.931-1.416c-6.755-3.903-7.878-9.822-3.366-14.391a15.8 15.8 0 0 1 3.366-2.539c8.1-4.673 21.23-4.673 29.33.004"/><path fill="#000" d="M116.852 176.856c8.104 4.673 8.099 12.272 0 16.936-7.08 4.092-18.026 4.602-26.078 1.534l-.321-.128a23 23 0 0 1-2.931-1.416c-6.755-3.903-7.878-9.822-3.366-14.391a15.8 15.8 0 0 1 3.366-2.539c8.1-4.673 21.23-4.673 29.33.004" opacity=".2"/><path fill="#F5F5F5" d="M84.156 179.4a9.06 9.06 0 0 0-2.171 7.387c.718 4.116 6.48 7.581 8.468 8.411a23 23 0 0 1-2.931-1.416c-6.755-3.894-7.878-9.813-3.366-14.382M120.217 191.248a9.07 9.07 0 0 0 2.172-7.392c-.718-4.115-6.481-7.552-8.468-8.411 1.01.4 1.99.873 2.931 1.416 6.754 3.894 7.878 9.813 3.365 14.387" opacity=".5"/><path fill="#F7921E" d="M102.196 196.435c10.649 0 19.281-4.983 19.281-11.129 0-6.147-8.632-11.13-19.281-11.13s-19.281 4.983-19.281 11.13c0 6.146 8.632 11.129 19.281 11.129"/><path fill="#fff" d="M102.196 196.435c10.649 0 19.281-4.983 19.281-11.129 0-6.147-8.632-11.13-19.281-11.13s-19.281 4.983-19.281 11.13c0 6.146 8.632 11.129 19.281 11.129" opacity=".4"/><path fill="#fff" d="M83.789 188.632c-1.549-2.865-1.043-6.023 1.515-8.704q.757-.776 1.633-1.416a17 17 0 0 1 1.562-1.029q.462-.267.944-.514c-.802 1.317-.51 2.733 4.036 2.997 8.883.519-2.36 9.01-2.36 9.01s-5.74-2.78-7.33-.344" opacity=".2"/><path fill="#fff" d="M84.708 186.283c-1.336-.151-1.996-1.52-1.477-3.063s2.02-2.672 3.351-2.526 1.997 1.525 1.477 3.064c-.519 1.538-2.02 2.676-3.35 2.525" opacity=".5"/><path fill="#F7921E" d="M98.765 193.358c.434-3.304 14.858-12.433 14.858-12.433s3.2-1.283 2.138-3.521q.8.454 1.544.996c.335.241.646.472.944.741 4.29 3.72 4.3 8.605 0 12.329q-.433.381-.944.741-.684.509-1.416.944c-.472.283-1.001.552-1.529.798q-.633.298-1.298.561c-.444.175-.893.335-1.355.472a28.6 28.6 0 0 1-4.3 1.034q-.483.078-.972.142a33 33 0 0 1-4.3.269 33 33 0 0 1-5.268-.43s2.308-.472 1.898-2.643"/><path fill="#fff" d="M98.765 193.358c.434-3.304 14.858-12.433 14.858-12.433s3.2-1.283 2.138-3.521q.8.454 1.544.996c.335.241.646.472.944.741 4.29 3.72 4.3 8.605 0 12.329q-.433.381-.944.741-.684.509-1.416.944c-.472.283-1.001.552-1.529.798q-.633.298-1.298.561c-.444.175-.893.335-1.355.472a28.6 28.6 0 0 1-4.3 1.034q-.483.078-.972.142a33 33 0 0 1-4.3.269 33 33 0 0 1-5.268-.43s2.308-.472 1.898-2.643" opacity=".3"/><path fill="#F7921E" d="M112.358 179.447c5.381 3.106 5.598 8.062.656 11.328-.207.141-.429.278-.656.41-5.612 3.238-14.702 3.238-20.296 0s-5.612-8.496 0-11.729c.227-.132.472-.259.704-.382 5.626-2.865 14.212-2.738 19.592.373"/><path fill="#000" d="M112.358 179.447c5.381 3.106 5.598 8.062.656 11.328-.207.141-.429.278-.656.41-5.612 3.238-14.702 3.238-20.296 0s-5.612-8.496 0-11.729c.227-.132.472-.259.704-.382 5.626-2.865 14.212-2.738 19.592.373" opacity=".2"/><path fill="#F7921E" d="M111.901 179.702c5.362 3.091 5.362 8.113 0 11.21-5.362 3.096-14.052 3.096-19.414 0s-5.362-8.119 0-11.21 14.052-3.087 19.414 0"/><path fill="#000" d="M111.901 179.702c5.362 3.091 5.362 8.113 0 11.21-5.362 3.096-14.052 3.096-19.414 0s-5.362-8.119 0-11.21 14.052-3.087 19.414 0" opacity=".5"/><path fill="#F7921E" d="M111.9 181.912c-5.362-3.096-14.051-3.096-19.413 0-2.195 1.265-3.488 2.832-3.89 4.498.402 1.648 1.695 3.233 3.89 4.503 5.362 3.096 14.051 3.096 19.413 0 2.195-1.27 3.488-2.855 3.89-4.503-.402-1.642-1.695-3.233-3.89-4.498"/><path fill="#000" d="M111.9 181.912c-5.362-3.096-14.051-3.096-19.413 0-2.195 1.265-3.488 2.832-3.89 4.498.402 1.648 1.695 3.233 3.89 4.503 5.362 3.096 14.051 3.096 19.413 0 2.195-1.27 3.488-2.855 3.89-4.503-.402-1.642-1.695-3.233-3.89-4.498" opacity=".35"/><path fill="#F7921E" d="M110.839 187.694v-1.638c0-.675-.472-1.326-1.468-1.912h-.033c-1.846-1.066-3.748-.944-5.447-.5a24 24 0 0 0-2.035.628q-1.069.404-2.18.675c-.34.079-.69.112-1.039.099a2.2 2.2 0 0 1-.859-.231l.071-.048.212-.132q.279-.161.576-.283a3.97 3.97 0 0 1 3.054-.071l1.761-1.775v-1.642a8.4 8.4 0 0 0-4.815-.175 9.6 9.6 0 0 0-1.529.534l-1.76-1.02-2.1 1.213v1.629l.716.415c-.189.279-.295.607-.306.944v1.652c0 .675.472 1.322 1.496 1.888.883.516 1.88.803 2.903.835h.58a11.5 11.5 0 0 0 3.116-.675q.31-.1.608-.207l-1.774 1.774v1.634a8.64 8.64 0 0 0 6.792-.298l1.737 1.006 2.1-1.213v-1.629l-.722-.42c.218-.31.338-.678.345-1.057m-4.428-.142q-.229.138-.472.246a4.53 4.53 0 0 1-3.431.052c1.642-.581 3.016-1.091 4.186-.472-.099.061-.188.118-.283.174"/><path fill="#F7921E" d="M103.896 183.625c-.723.179-1.416.415-2.035.628a19 19 0 0 1-2.18.675c-.34.079-.69.112-1.039.099a2.3 2.3 0 0 1-1-.302c-.675-.387-.774-.944.212-1.605q.103-.072.212-.132.278-.164.576-.288a3.977 3.977 0 0 1 3.054-.066l1.761-1.77a8.4 8.4 0 0 0-4.815-.175 9.6 9.6 0 0 0-1.53.534l-1.76-1.02-2.1 1.213 1.709 1.006c-1.766 1.34-1.803 2.732.184 3.879.883.516 1.88.804 2.903.836h.58a11.5 11.5 0 0 0 3.115-.67c2.016-.675 3.649-1.468 5.008-.685.911.524.656 1.185-.34 1.761a5 5 0 0 1-.472.245 4.5 4.5 0 0 1-3.502.024l-1.845 1.85a8.63 8.63 0 0 0 6.792-.293l1.737 1.006 2.1-1.213-1.737-1.006c1.746-1.354 1.949-2.832-.094-4.021h-.033c-1.86-1.076-3.762-.911-5.461-.51"/><path fill="#fff" d="M103.896 183.625c-.723.179-1.416.415-2.035.628a19 19 0 0 1-2.18.675c-.34.079-.69.112-1.039.099a2.3 2.3 0 0 1-1-.302c-.675-.387-.774-.944.212-1.605q.103-.072.212-.132.278-.164.576-.288a3.977 3.977 0 0 1 3.054-.066l1.761-1.77a8.4 8.4 0 0 0-4.815-.175 9.6 9.6 0 0 0-1.53.534l-1.76-1.02-2.1 1.213 1.709 1.006c-1.766 1.34-1.803 2.732.184 3.879.883.516 1.88.804 2.903.836h.58a11.5 11.5 0 0 0 3.115-.67c2.016-.675 3.649-1.468 5.008-.685.911.524.656 1.185-.34 1.761a5 5 0 0 1-.472.245 4.5 4.5 0 0 1-3.502.024l-1.845 1.85a8.63 8.63 0 0 0 6.792-.293l1.737 1.006 2.1-1.213-1.737-1.006c1.746-1.354 1.949-2.832-.094-4.021h-.033c-1.86-1.076-3.762-.911-5.461-.51" opacity=".3"/><path fill="#F5F5F5" d="m93.237 181.416 2.12-.958 1.741.765-1.76-1.02zM98.383 180.755a9.84 9.84 0 0 1 4.517.156l-1.218 1.732 1.775-1.779a8.4 8.4 0 0 0-5.074-.109M109.342 184.126h.033c2.044 1.199 1.841 2.667.095 4.021 1.548-1.685 1.27-2.865-.416-3.832-1.685-.968-3.827-.944-5.158-.708 1.699-.383 3.601-.548 5.446.519M109.47 188.166l1.331 1.024-1.695 1.194 2.101-1.213zM105.925 187.797a4.54 4.54 0 0 1-3.351.293l-1.997 1.581 1.846-1.851a4.5 4.5 0 0 0 3.502-.023M99.68 184.937c-.798.311-1.94.259-2.516-.241-.575-.5-.217-1.081.69-1.567-.987.647-.888 1.218-.213 1.605.305.177.648.281 1 .302q.527.02 1.04-.099M94.96 182.436c-.146.132-1.416 1.312-.854 2.487.59 1.26 2.445 2.067 3.941 2.228a6.13 6.13 0 0 1-2.903-.836c-1.987-1.147-1.95-2.539-.184-3.879" opacity=".45"/><path fill="#fff" d="m83.868 183.214.524-3.97.52 3.97 6.872.302-6.873.297-.519 3.97-.524-3.97-6.872-.297z"/><path fill="#263238" d="m61.5 191.37 1.794-.868-1.761-.51z"/><path fill="#263238" d="M79.218 194.808s-21.042-9.723-21.31-8.279a2.1 2.1 0 0 0 0 .864 1 1 0 0 1-.057-.08l.368 2.671a6.24 6.24 0 0 0 3.275 1.416c0-.127 0-.944.034-1.378.649.274 1.27.611 1.854 1.005 1.346.911 2.205 2.492 3.63 4.333 1.038 1.341 2.898 1.973 5.664 2.389 2.969.443 5.593-.109 6.34-.911.594-.661.306-1.841.202-2.03"/><path fill="#FFA8A7" d="M78.638 194.307c-.203-.212-.944-1.053-1.963-1.968a40 40 0 0 0-3.026-2.634 12 12 0 0 1-1.505-1.265 18 18 0 0 1-1.039-1.246 23.3 23.3 0 0 1-2.52-4.366 10.3 10.3 0 0 1-.873-2.289 15 15 0 0 1-.232-2.535c0-3.828.085-4.437.123-7.354l-8.92.236c.282 1.619.712 3.828.853 5.664.218 2.795.288 3.418-.816 6.198-.321.816-.803 1.6-.85 2.478-.08 1.416 1.03 2.671 2.27 3.379 1.034.586 2.219.845 3.22 1.468a10.3 10.3 0 0 1 2.61 2.615c.703.916 1.265 2.001 2.26 2.648a9.2 9.2 0 0 0 3.427 1.222 18.4 18.4 0 0 0 4.617.265c2.194-.156 3.832-.949 2.364-2.516"/><path fill="#37474F" d="M77.439 192.74c-.906-.774-2.185-1.888-3.733-3.134a3.94 3.94 0 0 0-3.276.273c-3.148 1.638-3.7 3.984-3.7 3.984a4.53 4.53 0 0 0 2.543 2.27c3.616 1.615 10.101 1.157 10.177-.523.047-1.058-.916-1.926-2.011-2.87m-18.512-10.601s-.217.552-.779 1.628a3.05 3.05 0 0 0 0 3.233 4.82 4.82 0 0 0 3.163 2.195c1.038-3.176-1.133-6.358-2.384-7.056"/><path fill="#263238" d="M42.464 186.367c.595.944-.18 4.579-.043 7.156.128 2.36.75 6.424.029 8.737-.85 2.742-2.587 5.923-5.806 3.355-1.996-1.59-3.143-3.648-3.417-7.018-.19-2.36.745-5.584 1.548-8.458.944-3.356 1.298-5.155 1.298-5.155z"/><path fill="#FFA8A7" d="M35.846 169.094c-.231 5.466.406 9.298.444 12.796a24.7 24.7 0 0 1-.5 4.72c-.473 2.232-1.237 5.333-1.563 6.782-.472 2.02-.802 3.304-.104 5.56q.084.271.227.515c.977 1.864 3.455 3.276 4.248 3.049a1.37 1.37 0 0 0 1.416.472q.135-.022.264-.066.138-.041.264-.109a2.7 2.7 0 0 0 1.322-1.713q.071-.235.127-.496c.576-2.832.16-4.63.104-5.734-.061-1.27 0-2.884.123-4.937s.6-8.496 1.312-11.56c.529-2.147 1.19-4.838 1.888-7.712z"/><path fill="#37474F" d="M33.74 196.025c1.96-.864 7.628-.982 8.535 1.78.023 2.596.037 4.361-1.605 6.608-2.18 3.001-5.027-.18-6.136-2.205-1.11-2.025-1.057-4.781-.793-6.183"/><path fill="#455A64" d="M43.242 97.75c-2.761 4.951-4.993 9.128-5.711 22.226-.812 14.765-.69 20.386-.76 22.184s-1.222 5.051-2.195 13.825c-.972 8.775.052 30.048.052 30.048s.69 1.416 4.045 1.756c3.097.302 4.914-.784 4.914-.784s4.918-27.933 6.136-33.214c1.218-5.282 4.753-22.656 4.753-22.656l1.926 14.117s-.982 4.838-.095 12.546 2.63 23.251 2.63 23.251a17.6 17.6 0 0 0 4.686 1.208 11.3 11.3 0 0 0 5.192-.6s2.6-31.373 2.667-40.12-.595-30.529-3.257-43.447z"/><path fill="#37474F" d="m57.36 114.351-2.888 16.765 1.925 14.118-.755-14.302 2.568-13.754c2.11-.472 6.915-2.978 8.26-6.57-3.271 3.37-9.11 3.743-9.11 3.743m-9.765-9.884a98 98 0 0 1 1.236-4.215 20.6 20.6 0 0 0-1.92 3.993 38 38 0 0 0-1.294 4.248 44 44 0 0 0-.835 4.342 29 29 0 0 0-.321 4.418c.363-1.416.698-2.86 1.038-4.281s.665-2.832 1.02-4.248c.354-1.416.703-2.846 1.076-4.257m-2.105-1.072c.471-.859.944-1.718 1.416-2.624a16 16 0 0 0-2.02 2.214 22 22 0 0 0-1.643 2.506 20 20 0 0 0-1.251 2.733c-.354.942-.59 1.926-.698 2.926l1.364-2.633c.471-.859.944-1.723 1.416-2.573zm-2.162 56.027a503 503 0 0 0-2.36 13.65 496 496 0 0 0 3.087-13.504c.981-4.512 1.888-9.02 2.832-13.56s1.458-9.148 1.94-13.745c.481-4.597.82-9.199 1.151-13.806-.67 4.569-1.279 9.147-1.888 13.721s-1.274 9.138-2.129 13.65c-.854 4.513-1.793 9.077-2.633 13.594m24.034-22.784c.08 2.002.184 4.017.137 5.995s-.194 4.002-.312 6.004l-.344 6.022a512 512 0 0 0-.567 12.055q.75-5.994 1.289-12.003c.359-4.012.698-8.024.864-12.055 0-4.068-.302-8.071-.633-12.087-.33-4.017-.793-8.024-1.387-11.994l.665 12.045c.1 2.006.213 4.012.288 6.018"/><path fill="#F7921E" d="M61.92 70.156c3.814 1.166 5.612 1.76 7.755 6.028 1.76 3.511 3.087 7.722 5.249 13.622l11.62-.19-2.067 7.425s-6.948 1.081-10.516 1.52c-4.57.557-5.07.274-6.287-2.166-2.13-4.248-4.503-11.607-4.503-11.607z"/><path fill="#000" d="M61.92 70.156c3.814 1.166 5.612 1.76 7.755 6.028 1.76 3.511 3.087 7.722 5.249 13.622l11.62-.19-2.067 7.425s-6.948 1.081-10.516 1.52c-4.57.557-5.07.274-6.287-2.166-2.13-4.248-4.503-11.607-4.503-11.607z" opacity=".15"/><path fill="#000" d="M74.924 89.806c-1.974 0-4.584 1.997-4.938 4.579 0-2.55.977-4.867 4.536-5.664z" opacity=".15"/><path fill="#F7921E" d="m88.427 80.97-.68-.473a.7.7 0 0 0-.637 0l-7.505 3.135a2.46 2.46 0 0 0-1.326 1.576L75.183 99.59a.63.63 0 0 0 .174.694l.699.472a.69.69 0 0 0 .647 0l7.519-3.106a2.45 2.45 0 0 0 1.321-1.577l3.101-14.381c.071-.364-.019-.614-.217-.723"/><path fill="#fff" d="m88.427 80.97-.68-.473a.7.7 0 0 0-.637 0l-7.505 3.135a2.46 2.46 0 0 0-1.326 1.576L75.183 99.59a.63.63 0 0 0 .174.694l.699.472a.69.69 0 0 0 .647 0l7.519-3.106a2.45 2.45 0 0 0 1.321-1.577l3.101-14.381c.071-.364-.019-.614-.217-.723" opacity=".8"/><path fill="#F7921E" d="M79.605 84.575a2.44 2.44 0 0 0-.646 1.11l-3.101 14.377a.67.67 0 0 0 .15.684l-.655-.439a.63.63 0 0 1-.175-.694l3.096-14.386a2.36 2.36 0 0 1 .595-1.043z"/><path fill="#fff" d="M79.605 84.575a2.44 2.44 0 0 0-.646 1.11l-3.101 14.377a.67.67 0 0 0 .15.684l-.655-.439a.63.63 0 0 1-.175-.694l3.096-14.386a2.36 2.36 0 0 1 .595-1.043z" opacity=".6"/><path fill="#F7921E" d="m75.862 100.048 3.097-14.382a2.46 2.46 0 0 1 1.326-1.577l7.519-3.105c.595-.246.944.07.835.698l-3.12 14.382a2.45 2.45 0 0 1-1.321 1.577l-7.52 3.105c-.599.246-.953-.066-.816-.698"/><path fill="#fff" d="m75.862 100.048 3.097-14.382a2.46 2.46 0 0 1 1.326-1.577l7.519-3.105c.595-.246.944.07.835.698l-3.12 14.382a2.45 2.45 0 0 1-1.321 1.577l-7.52 3.105c-.599.246-.953-.066-.816-.698" opacity=".4"/><path fill="#455A64" d="m79.322 88.56.58-2.69a.47.47 0 0 1 .246-.298l1.204-.472c.113-.043.18 0 .156.132l-.58 2.69a.47.47 0 0 1-.246.298l-1.204.472c-.094.042-.18-.014-.156-.132"/><path fill="#263238" d="M80.04 86.464a1.16 1.16 0 0 1 .632-.731c.288-.118.472 0 .41.306a1.17 1.17 0 0 1-.637.732c-.288.132-.467-.005-.406-.307M79.76 87.833a1.15 1.15 0 0 1 .633-.727c.288-.118.472 0 .41.302a1.16 1.16 0 0 1-.632.731c-.288.118-.472-.019-.41-.306"/><path fill="#FFA8A7" d="M88.035 90.165c.566-.883.505-.992.15-1.416a2.7 2.7 0 0 0-2.241-1.001c-.75.061-1.506.085-1.888.307s0 1.014.986 1.18c1.553.264 1.567.684 1.567.684a20 20 0 0 0-2.006-.245q-1.136.15-2.237.472c-.642.137-.727.981.387 1.213l-1.175.25c-.826.18-1.086.637-.406 1.119.222.164.493.249.77.24 0 0-.888.047-.893.34 0 .85.552 1.043 2.36 1.468 1.737.406 2.134 1.308 1.827 1.959 0 0 .67-.434 1.26-.892.43-.33.793-.699.552-1.393 0 0 .977-.028 1.006-.637a3.1 3.1 0 0 0-.302-1.279 1.07 1.07 0 0 0 .472-1.029 1.76 1.76 0 0 0-.411-1.043z"/><path fill="#F28F8F" d="M82.759 91.349a5.3 5.3 0 0 1 1.076-.175c.366.037.725.13 1.062.278q1.006.371 1.935.907a12.5 12.5 0 0 1-2.044-.614 6 6 0 0 0-.972-.326c-.326-.037-.703-.023-1.057-.07M81.946 92.958a2.36 2.36 0 0 1 1.166-.094q.579.087 1.128.293c.73.252 1.43.58 2.091.977a22 22 0 0 1-2.195-.68 6.1 6.1 0 0 0-2.19-.496"/><path fill="#263238" d="M44.734 48.355c-2.03 2.067-2.242 5.366-1.453 8.109a15.9 15.9 0 0 0 1.85 3.63 33.2 33.2 0 0 0 4.12 5.47 4.57 4.57 0 0 0 2.167 1.416c1.447.396 2.933.632 4.432.703.609.028 1.232.198 1.652-.264a4.8 4.8 0 0 0 .717-1.657 21.5 21.5 0 0 1 2.728-5.404c.973-1.416 2.27-3.333 3.805-4.083.637-.312 1.35-.718 1.463-1.416a1.72 1.72 0 0 0 1.095 1.869c-.444-.297-.41-.977-.146-1.416.264-.44.684-.817.944-1.284a2.07 2.07 0 0 0-.052-2.02 1.16 1.16 0 0 1 .472 1.619 1.95 1.95 0 0 0 .99-1.671c0-1.619-1.67-2.129-2.387-3.356-.34-.585-.335-1.246-.562-1.86a13 13 0 0 0-.614-1.416 7.9 7.9 0 0 0-1.94-2.44c-3.077-2.6-7.552-2.435-11.2-1.345-1.742.52-3.554 1.416-4.772 2.756a5.8 5.8 0 0 0-1.69 2.832 5.9 5.9 0 0 0-1.619 1.228"/><path fill="#FAFAFA" d="M39.59 104.334c-2.649-1.251.25-3.002.83-11.111.146-2.091-.557-7.278-.557-7.278s2.176-4.173.944-14.269l7.387-1.888 9.879-.708 3.837 1.416c1.27 1.138 3.597 2.936 5.443 5.664 2.662 3.937 3.068 8.218.193 11.328-.043.618.359 10.11 1.133 12.428.717 2.152.873 2.398-.288 3.356-3.64 2.676-24.105 2.865-28.802 1.062"/><path fill="#F7921E" d="m58.083 69.08 3.837 1.076c3.555 2.832 7.746 7.68 7.906 11.475a19.8 19.8 0 0 1-.665 6.343s-.401 7.854.392 11.937 2.662 13.976 2.662 13.976a11.9 11.9 0 0 1-5.065 2.87c-.816-5.235-2.7-25.016-2.473-29.595.226-4.578.368-12.14-6.594-18.082"/><path fill="#000" d="m58.083 69.08 3.837 1.076c3.555 2.832 7.746 7.68 7.906 11.475a19.8 19.8 0 0 1-.665 6.343s-.401 7.854.392 11.937 2.662 13.976 2.662 13.976a11.9 11.9 0 0 1-5.065 2.87c-.816-5.235-2.7-25.016-2.473-29.595.226-4.578.368-12.14-6.594-18.082" opacity=".3"/><path fill="#000" d="M65.436 89.655c.321-1.213.675-2.421 1.034-3.62a142 142 0 0 0 1.029-3.616q.249-.896.382-1.817c.104-.571-.297-1.057-.694-1.52-.852-.899-1.802-1.7-2.832-2.388l-.094-.066.024-.113c.12-.658.13-1.331.033-1.992a5.3 5.3 0 0 0-.652-1.888 6.1 6.1 0 0 0-1.383-1.473 9.4 9.4 0 0 0-1.75-1.076c.646.24 1.26.556 1.83.944a5.5 5.5 0 0 1 1.492 1.458c.38.599.638 1.266.76 1.964.127.7.127 1.419 0 2.12l-.07-.18a16.5 16.5 0 0 1 2.93 2.426q.331.365.572.798.063.11.103.23.057.125.076.26c.028.172.028.348 0 .52q-.143.944-.41 1.86c-.336 1.217-.747 2.402-1.143 3.591-.397 1.19-.826 2.393-1.237 3.578" opacity=".2"/><path fill="#F7921E" d="M48.204 69.79s1.534 2.062 3.526 6.89c1.992 4.829 3.917 9.214 3.776 13.646s-2.322 27.451-2.322 27.451a95 95 0 0 1-12.24-.859l.737-7.689-2.322 6.684-3.53-1.515c1.793-7.302 3.51-13.886 3.747-18.262.236-4.375 1-24.62 1-24.62z"/><path fill="#000" d="M48.204 69.79s1.534 2.062 3.526 6.89c1.992 4.829 3.917 9.214 3.776 13.646s-2.322 27.451-2.322 27.451a95 95 0 0 1-12.24-.859l.737-7.689-2.322 6.684-3.53-1.515c1.793-7.302 3.51-13.886 3.747-18.262.236-4.375 1-24.62 1-24.62z" opacity=".3"/><path fill="#000" d="M54.65 91.624a10.3 10.3 0 0 0-1.698-3.097 35 35 0 0 0-2.237-2.752 62 62 0 0 0-1.176-1.326l-.6-.665c-.098-.114-.193-.218-.297-.35a.5.5 0 0 1-.08-.104c0-.056-.052-.113-.07-.17a1.3 1.3 0 0 1-.029-.297c.117-.62.34-1.213.66-1.756a20 20 0 0 1 .945-1.538v.297l-1.775-1.888-.887-.944-.217-.236-.109-.118a.9.9 0 0 1-.151-.194 1 1 0 0 1-.038-.4q0-.175.043-.34.276-1.273.717-2.497c.27-.822.548-1.643.864-2.45-.227.835-.472 1.67-.66 2.506a24 24 0 0 0-.539 2.516q-.042.272 0 .543c-.028-.043 0 .023.061.056l.114.114.231.23.916.945 1.822 1.888.127.132-.104.165a17 17 0 0 0-.897 1.506 5.4 5.4 0 0 0-.623 1.553v.179c0 .038.033.047.052.076.076.099.184.217.274.325l.585.67c.392.449.784.897 1.166 1.355.75.944 1.477 1.888 2.134 2.875q.49.75.882 1.557c.274.514.474 1.064.595 1.634" opacity=".2"/><path fill="#F28F8F" d="M58.248 83.274c1.595-1.388 2.412-1.935 3.181-2.219s3.45-1.642 4.489-1.982c.66-.222 1.015.83.212 1.628-.618.614-2.275 1.487-2.997 1.955s-2.058 2.36-2.058 2.36z"/><path fill="#FFA8A7" d="M33.883 76.845c1.416-3.696 2.832-4.149 6.83-4.923 4.092 3.431 1.624 11.984 1.624 11.984l-1.185 8.883s9.794-2.18 10.884-2.997 3.908-4.347 4.862-5.414c1.298-1.45 2.006-1.322 2.728-1.265 2.36.175 2.88.33 3.398.604a1.06 1.06 0 0 1 .52.873c.627.033 1.548-.056 1.746.944q.105.4.099.812a.68.68 0 0 1 .42.198c.557.557-.17 2.69-.694 3.234-.368.382-.944.472-1.67.424-.633-.037-.388-.698-.388-.698l-.873.118c-1.793 1.491-1.69 4.168-4.149 4.942-1.028.183-2.038.46-3.016.826-5.258 2.213-13.688 8.373-18.464 9.147-4.66.76-4.72-1.751-5.004-4.62-.254-2.55.93-19.386 2.332-23.072"/><path fill="#FAFAFA" d="m47.288 91.282 3.507-1.014s-.67.802-.274 3.2c.397 2.397 1.855 3.27 1.855 3.27l-4.98 2.908z"/><path fill="#F28F8F" d="m41.28 91.787-.128 1c-2.09.709-4.39 3.72-4.814 4.924.26-1.884 1.26-4.64 4.942-5.924"/><path fill="#F7921E" d="m40.586 71.516-1.742.405a6.22 6.22 0 0 0-4.437 3.28c-1.27 2.36-1.298 3.347-1.84 7.27-.544 3.922-1.313 13.017-1.242 16.378s.552 4.885 1.416 5.508 2.889 1.015 5.711-.108c2.823-1.124 11.13-5.192 11.13-5.192s-1.095.15-1.695-3.082c-.6-3.233 0-4.914 0-4.914L41.341 92.6l1.416-9.157s1.883-9.327-2.171-11.927"/><path fill="#000" d="m40.586 71.516-1.742.405a6.22 6.22 0 0 0-4.437 3.28c-1.27 2.36-1.298 3.347-1.84 7.27-.544 3.922-1.313 13.017-1.242 16.378s.552 4.885 1.416 5.508 2.889 1.015 5.711-.108c2.823-1.124 11.13-5.192 11.13-5.192s-1.095.15-1.695-3.082c-.6-3.233 0-4.914 0-4.914L41.341 92.6l1.416-9.157s1.883-9.327-2.171-11.927" opacity=".15"/><path fill="#000" d="M41.34 92.6a7.36 7.36 0 0 0-4.908 4.687 6.61 6.61 0 0 1 5.111-5.9z" opacity=".15"/><path fill="#F28F8F" d="m63.544 84.577-2.832-.35 2.723-.028q.088.18.109.378M65.389 86.355l-3.22-.174 3.196-.199a2 2 0 0 1 .024.373M65.073 87.785a1 1 0 0 1-.401.406 2 2 0 0 1-.529.227l.038-.033c-.07.174-.151.344-.231.514l-.071-.08a.65.65 0 0 1 .514.085c.142.097.25.236.312.396a1.04 1.04 0 0 0-.35-.325.65.65 0 0 0-.438-.048l-.123.038.052-.118q.109-.255.226-.51v-.028h.029q.266-.075.519-.189c.176-.072.332-.187.453-.335"/><path fill="#F28F8F" d="M64.28 88.262a10 10 0 0 1-1.147.165c-.048.244-.17.468-.35.642q-.269.301-.575.566l.873-.123a1.42 1.42 0 0 1 .944-.618z"/><path fill="#FFA8A7" d="M47.406 62.693a3.12 3.12 0 0 1-2.832-1.071c-1.492-1.633-1.629-3.304-.944-4.409.57-.91 1.973-1.491 2.954-.877 1.053.656 1.09 1.194 1.487 1.94.397.745 1.416.16 1.072-2.833 2.044-.944 1.713-4.38 2.832-5.777 1.722-2.185 4.569-1.624 5.494-1.11a3.7 3.7 0 0 1 3.875-.25c1.373.737 2.29 2.28 2.775 7.595.5 5.419-.434 9.03-1.685 10.181-.859.789-2.459 1.327-4.366 1.218v2.044s5.509 5.74-1.51 5.22a11.03 11.03 0 0 1-7.958-4.503l-.047-8.217s-.1.656-1.147.85"/><path fill="#B16668" d="M58.932 61.73a1.567 1.567 0 0 1-3.073-.609z"/><path fill="#F28F8F" d="M55.85 61.631a1.543 1.543 0 0 0 1.793 1.336 1.586 1.586 0 0 0-1.793-1.336"/><path fill="#263238" d="M55.784 56.379a.898.898 0 0 1-1.737-.401.898.898 0 0 1 1.151-.756.944.944 0 0 1 .586 1.157M62.992 52.91l-1.889-1.01a1.027 1.027 0 0 1 1.416-.473 1.123 1.123 0 0 1 .473 1.483M60.82 56.142a.897.897 0 1 0 .519-1.185.91.91 0 0 0-.52 1.185M54.642 52.19l-2.01 1.09a1.1 1.1 0 0 1 .414-1.538 1.2 1.2 0 0 1 1.596.449"/><path fill="#37474F" d="m65.323 53.423-.402-.028c-1.298-.076-2.983-.043-3.974.302-1.246.434-1.666.873-2.36.91-.694.039-1.256-.372-2.638-.684-1.1-.25-2.894-.132-4.248.066l-.425.067a.64.64 0 0 0-.43.708c.078.3.242.57.472.778a1 1 0 0 1 .16.317c.163.742.386 1.47.666 2.175.157.288.36.548.6.77q.139.12.292.222l.17.094a2.6 2.6 0 0 0 .472.203h.085l.128.033.137.024q.21.04.424.047h.387c1.752-.07 2.426-.911 2.804-1.765.378-.855.189-2.03.996-2.063h.151c.604.109.604 1.194 1.029 1.954.164.307.376.586.628.826q.07.068.146.128l.076.056.08.057.075.047.076.047.066.033h.042q.34.173.713.241h.066q.427.069.86.043c1.632-.08 2.137-1.039 2.36-1.638q.268-1.1.353-2.228a.6.6 0 0 1 .128-.293c.192-.236.302-.527.316-.83a.69.69 0 0 0-.481-.619m-8.185 3.493a2.36 2.36 0 0 1-.529 1.19 2.44 2.44 0 0 1-1.86.75 2.2 2.2 0 0 1-1.887-.77.5.5 0 0 1-.066-.08.3.3 0 0 1-.057-.08.4.4 0 0 1-.052-.076l-.042-.066-.034-.056a.2.2 0 0 1 0-.047 1 1 0 0 1-.047-.085c-.037-.08-.075-.16-.103-.241l-.057-.142-.076-.236v-.085c-.174-.58-.41-1.718-.127-1.992.283-.273 1.057-.575 2.36-.51h.142c.198 0 .4.038.599.072l.236.047q.3.06.59.155l.18.062.197.08h.043l.07.038c.157.066.297.164.411.288.241.349.218 1.123.109 1.765zm7.58-.59c-.07.472-.222 1.454-1.109 1.926-.293.15-.615.233-.944.245a2.19 2.19 0 0 1-2.039-.835l-.042-.062v-.028l-.057-.094-.057-.104-.028-.052v-.029a.2.2 0 0 1 0-.042v-.033a3 3 0 0 1-.151-.43c-.18-.641-.297-1.415-.076-1.765.222-.35 1.152-.807 2.072-.944q.312-.047.595-.07h.613l.308.037h.283l.141.047h.029q.181.068.335.184c.297.288.212 1.445.127 2.03z"/><path fill="#F28F8F" d="m61.34 59.002-2.974 1.288-.472-3.573c.108-.57.207-1.066.693-1.114z"/><path fill="#37474F" d="m51.187 54.14-4.584 2.195q.384.249.713.567l3.989-1.813z"/><path fill="#F28F8F" d="M58.073 67.3c-2.747-.103-6.428-1.075-7.415-2.831.548 1.888 2.483 2.898 4.026 3.332 1.098.314 2.226.509 3.366.58z"/><path fill="#F0F0F0" d="M142.475 219.667a1.07 1.07 0 0 1-.453-1.104l10.847-48.006c.13-.465.425-.866.829-1.129l64.542-37.258a1.43 1.43 0 0 1 1.285-.021 1.074 1.074 0 0 1 .444 1.098l-10.85 48.006a2 2 0 0 1-.832 1.129l-64.528 37.258a1.43 1.43 0 0 1-1.284.027"/><path fill="#E6E6E6" d="m154.111 171.267-10.847 48.024c-.092.41.128.575.496.364l64.542-37.257c.406-.263.701-.664.832-1.129l10.835-48.021c.092-.413-.129-.576-.496-.364l-64.542 37.257a2 2 0 0 0-.82 1.126"/><path fill="#F0F0F0" d="M220.755 132.859a1.41 1.41 0 0 0-1.284.024l-64.543 37.257a1.24 1.24 0 0 0-.436.492 1.23 1.23 0 0 0-.118.646l8.495 59.462a1.7 1.7 0 0 0 .731 1.117 1.4 1.4 0 0 0 1.281-.025l64.531-37.248a1.22 1.22 0 0 0 .554-1.141l-8.467-59.468a1.73 1.73 0 0 0-.744-1.116"/><path fill="#FAFAFA" d="m155.628 171.998 8.482 59.462a.48.48 0 0 0 .528.469.5.5 0 0 0 .243-.096l64.531-37.248a1.23 1.23 0 0 0 .553-1.141l-8.467-59.468a.48.48 0 0 0-.269-.425.479.479 0 0 0-.501.049l-64.543 37.257a1.23 1.23 0 0 0-.557 1.141"/><path fill="#E0E0E0" d="m143.322 219.021 16.518-9.541.481 3.457-7.574 4.374s-2.019.716-2.821.918c-.801.202-6.604.792-6.604.792"/><path fill="#E6E6E6" d="m160.33 212.941 2.477 17.375-10.051-13z"/><path fill="#E0E0E0" d="m162.51 230.895-9.008-11.701a1.46 1.46 0 0 0-1.224-.498l-8.424 1.223a2.5 2.5 0 0 1-1.38-.251c-.342-.195-.284-.422.129-.501l9.681-1.863a1.34 1.34 0 0 1 1.224.468l10.256 13.826c.251.34.178.453-.165.254a4.4 4.4 0 0 1-1.089-.957"/><path fill="#F7921E" d="M219.984 133.013a1.05 1.05 0 0 0-.471-.869 1.44 1.44 0 0 0-1.285.025l-64.542 37.257a1.8 1.8 0 0 0-.505.471 1.85 1.85 0 0 0-.327.658l-1.53 6.781 1.242.713 65.873-38.022 1.53-6.779q.022-.116.018-.235z"/><path fill="#000" d="M219.969 133.248c.092-.413-.129-.576-.496-.364l-64.542 37.257a2 2 0 0 0-.829 1.126l-1.53 6.781 65.867-38.022z" opacity=".2"/><path fill="#000" d="M154.434 170.611a1.8 1.8 0 0 0-.324.655l-1.529 6.782-1.242-.716 1.529-6.782c.065-.239.176-.462.328-.657z" opacity=".1"/><path fill="#fff" d="M219.984 133.009c-.031-.229-.23-.306-.514-.125l-64.543 37.254a1.7 1.7 0 0 0-.504.474l-1.242-.719a1.8 1.8 0 0 1 .504-.471l64.543-37.257a1.44 1.44 0 0 1 1.285-.025 1.04 1.04 0 0 1 .471.869" opacity=".4"/><path fill="#F7921E" d="m221.562 134.544-.064-.569a1 1 0 0 0-.019-.083.1.1 0 0 0 0-.024 1.73 1.73 0 0 0-.706-1.009 1.41 1.41 0 0 0-1.285.024l-64.543 37.257c-.195.121-.35.298-.443.508a1.14 1.14 0 0 0-.11.63l1.223 8.519 1.242.719 65.843-38.019z"/><path fill="#000" d="m156.845 180.513-1.242-.719-1.223-8.519a1.14 1.14 0 0 1 .11-.63l1.245.715a1.13 1.13 0 0 0-.113.63z" opacity=".1"/><path fill="#fff" d="M221.461 133.868a.47.47 0 0 0-.746-.269l-64.543 37.257a1.13 1.13 0 0 0-.444.508l-1.22-.716c.094-.21.248-.388.443-.511l64.543-37.254a1.41 1.41 0 0 1 1.285-.024c.343.242.585.601.682 1.009" opacity=".4"/><path fill="#F7921E" d="m173.978 221.607-.771-5.417a.392.392 0 0 0-.213-.339.39.39 0 0 0-.399.033l-5.625 3.249a.98.98 0 0 0-.444.917l.768 5.43a.39.39 0 0 0 .212.342.38.38 0 0 0 .4-.036l5.625-3.249a.97.97 0 0 0 .447-.93"/><path fill="#EBEBEB" d="m182.678 216.59-.774-5.415a.39.39 0 0 0-.211-.342.39.39 0 0 0-.401.036l-5.625 3.246a.97.97 0 0 0-.443.918l.773 5.417a.381.381 0 0 0 .612.306l5.626-3.249a.98.98 0 0 0 .443-.917M191.377 211.574l-.773-5.414a.4.4 0 0 0-.058-.201.381.381 0 0 0-.554-.105l-5.629 3.251a.975.975 0 0 0-.443.918l.774 5.417a.384.384 0 0 0 .416.381.4.4 0 0 0 .196-.075l5.625-3.248a.98.98 0 0 0 .446-.924M200.086 206.559l-.774-5.417a.39.39 0 0 0-.212-.342.38.38 0 0 0-.4.036l-5.65 3.255a.98.98 0 0 0-.443.918l.774 5.414a.38.38 0 0 0 .211.342.39.39 0 0 0 .4-.036l5.626-3.246a.982.982 0 0 0 .468-.924M208.776 201.542l-.774-5.429a.384.384 0 0 0-.417-.381.4.4 0 0 0-.195.075l-5.625 3.248a.97.97 0 0 0-.443.918l.773 5.414c0 .071.02.141.058.201q.057.093.154.141a.375.375 0 0 0 .4-.036l5.638-3.239a.97.97 0 0 0 .431-.912M217.475 196.526l-.774-5.417a.381.381 0 0 0-.611-.306l-5.626 3.249a.97.97 0 0 0-.443.917l.771 5.427a.38.38 0 0 0 .211.342.4.4 0 0 0 .205.039.4.4 0 0 0 .195-.075l5.626-3.249a.97.97 0 0 0 .446-.927M226.175 191.526l-.774-5.417a.381.381 0 0 0-.611-.306l-5.626 3.249a.97.97 0 0 0-.443.917l.771 5.418a.38.38 0 0 0 .213.338.381.381 0 0 0 .398-.033l5.626-3.248a.98.98 0 0 0 .446-.918"/><path fill="#F7921E" d="m172.467 211.007-.774-5.411a.38.38 0 0 0-.213-.339.39.39 0 0 0-.398.033l-5.626 3.249a.97.97 0 0 0-.443.918l.771 5.417a.38.38 0 0 0 .213.339.39.39 0 0 0 .398-.033l5.626-3.249a.99.99 0 0 0 .446-.924"/><path fill="#EBEBEB" d="m181.167 205.99-.774-5.417a.386.386 0 0 0-.612-.306l-5.625 3.248a.975.975 0 0 0-.444.918l.771 5.417a.383.383 0 0 0 .417.378.4.4 0 0 0 .195-.072l5.625-3.248a.98.98 0 0 0 .447-.918M189.866 200.974l-.774-5.417a.39.39 0 0 0-.213-.339.39.39 0 0 0-.399.033l-5.625 3.249a.97.97 0 0 0-.444.917l.771 5.418a.382.382 0 0 0 .213.338.38.38 0 0 0 .399-.032l5.625-3.249a.99.99 0 0 0 .447-.918M198.557 195.959l-.774-5.417a.39.39 0 0 0-.417-.379.4.4 0 0 0-.195.073l-5.619 3.254a.98.98 0 0 0-.444.918l.771 5.417a.386.386 0 0 0 .612.306l5.625-3.248a.987.987 0 0 0 .441-.924M207.265 190.941l-.774-5.414a.384.384 0 0 0-.416-.381.4.4 0 0 0-.196.075l-5.628 3.245a.98.98 0 0 0-.443.918l.77 5.417q.003.108.059.2a.39.39 0 0 0 .358.179.4.4 0 0 0 .195-.073l5.625-3.254a.99.99 0 0 0 .45-.912M215.964 185.924l-.773-5.411q0-.108-.058-.201a.38.38 0 0 0-.554-.105l-5.622 3.252a.969.969 0 0 0-.444.918l.771 5.414a.38.38 0 0 0 .213.339.39.39 0 0 0 .399-.033l5.625-3.249a.98.98 0 0 0 .443-.924M224.664 180.911l-.774-5.417a.384.384 0 0 0-.417-.381.4.4 0 0 0-.195.075l-5.628 3.248a.98.98 0 0 0-.441.918l.771 5.414a.386.386 0 0 0 .612.306l5.625-3.245a.99.99 0 0 0 .447-.918"/><path fill="#F7921E" d="m170.953 200.396-.771-5.417a.4.4 0 0 0-.059-.199.38.38 0 0 0-.358-.179.4.4 0 0 0-.194.072l-5.632 3.276a.98.98 0 0 0-.443.918l.774 5.414c0 .071.019.141.057.201q.057.092.154.141a.38.38 0 0 0 .4-.036l5.629-3.273a.97.97 0 0 0 .443-.918"/><path fill="#EBEBEB" d="m179.652 195.392-.771-5.417a.38.38 0 0 0-.213-.339.39.39 0 0 0-.398.033l-5.626 3.249a.97.97 0 0 0-.443.917l.774 5.418a.38.38 0 0 0 .213.338.38.38 0 0 0 .398-.032l5.626-3.249a.97.97 0 0 0 .44-.918M188.352 190.375l-.771-5.417a.38.38 0 0 0-.213-.339.381.381 0 0 0-.398.033l-5.626 3.248a.99.99 0 0 0-.443.918l.774 5.417q.002.108.059.199a.385.385 0 0 0 .552.107l5.626-3.249a.97.97 0 0 0 .44-.917M197.051 185.359l-.77-5.417a.386.386 0 0 0-.612-.306l-5.625 3.249a.98.98 0 0 0-.444.917l.774 5.418a.38.38 0 0 0 .213.338.385.385 0 0 0 .399-.033l5.625-3.248a.97.97 0 0 0 .44-.918M205.751 180.342l-.771-5.418a.382.382 0 0 0-.213-.338.38.38 0 0 0-.399.032l-5.625 3.249a.98.98 0 0 0-.444.918l.774 5.417a.39.39 0 0 0 .213.339.39.39 0 0 0 .399-.033l5.625-3.249a.97.97 0 0 0 .441-.917M214.463 175.314l-.771-5.417a.39.39 0 0 0-.213-.339.39.39 0 0 0-.399.033l-5.653 3.276a.99.99 0 0 0-.443.918l.774 5.417q.002.108.059.199a.385.385 0 0 0 .552.107l5.638-3.276a.97.97 0 0 0 .456-.918M223.149 170.309l-.771-5.414a.4.4 0 0 0-.059-.199.38.38 0 0 0-.358-.179.4.4 0 0 0-.194.072l-5.626 3.246a.99.99 0 0 0-.443.917l.774 5.418a.38.38 0 0 0 .213.338.39.39 0 0 0 .399-.033l5.637-3.254a.97.97 0 0 0 .428-.912"/><path fill="#F7921E" d="m169.442 189.806-.774-5.414a.39.39 0 0 0-.212-.342.38.38 0 0 0-.4.036l-5.625 3.246a.97.97 0 0 0-.351.396.97.97 0 0 0-.093.521l.78 5.418a.39.39 0 0 0 .212.342.4.4 0 0 0 .205.039.4.4 0 0 0 .195-.075l5.625-3.249a.96.96 0 0 0 .438-.918"/><path fill="#EBEBEB" d="m178.141 184.797-.774-5.415a.38.38 0 0 0-.211-.342.38.38 0 0 0-.4.036l-5.626 3.249a.969.969 0 0 0-.443.918l.774 5.414a.388.388 0 0 0 .416.381.4.4 0 0 0 .195-.075l5.626-3.249a.96.96 0 0 0 .443-.917M186.841 179.776l-.774-5.417a.384.384 0 0 0-.417-.381.4.4 0 0 0-.195.075l-5.625 3.249a.97.97 0 0 0-.444.917l.774 5.414q0 .11.057.202a.38.38 0 0 0 .36.179.4.4 0 0 0 .195-.075l5.625-3.245a.97.97 0 0 0 .444-.918M195.541 174.761l-.774-5.418a.39.39 0 0 0-.212-.342.4.4 0 0 0-.205-.039.4.4 0 0 0-.195.075l-5.625 3.249a.97.97 0 0 0-.444.918l.771 5.417a.39.39 0 0 0 .213.339.39.39 0 0 0 .399-.033l5.625-3.249a.98.98 0 0 0 .447-.917M204.24 169.743l-.774-5.417a.384.384 0 0 0-.417-.381.4.4 0 0 0-.195.075l-5.625 3.248a.97.97 0 0 0-.444.918l.771 5.417q.002.108.059.2a.39.39 0 0 0 .358.178.37.37 0 0 0 .195-.072l5.625-3.248a.97.97 0 0 0 .447-.918M212.933 164.727l-.774-5.417a.384.384 0 0 0-.416-.381.4.4 0 0 0-.196.075l-5.625 3.249a.97.97 0 0 0-.443.917l.774 5.415a.38.38 0 0 0 .213.338.39.39 0 0 0 .398-.032l5.626-3.249a.97.97 0 0 0 .443-.915M221.638 159.714l-.774-5.418a.38.38 0 0 0-.211-.342.38.38 0 0 0-.4.037l-5.626 3.248a.97.97 0 0 0-.443.918l.771 5.417a.4.4 0 0 0 .059.199.38.38 0 0 0 .358.179.4.4 0 0 0 .194-.072l5.626-3.249a.97.97 0 0 0 .446-.917"/><path fill="#E6E6E6" d="m168.105 180.232-.196-1.383a.38.38 0 0 0-.211-.342.39.39 0 0 0-.4.036l-5.629 3.255a.97.97 0 0 0-.443.918l.192 1.382a.386.386 0 0 0 .612.306l5.632-3.261a.98.98 0 0 0 .443-.911M176.804 175.216l-.195-1.382a.4.4 0 0 0-.058-.201.37.37 0 0 0-.154-.141.375.375 0 0 0-.4.036l-5.629 3.254a.97.97 0 0 0-.443.918l.193 1.383a.38.38 0 0 0 .213.338.381.381 0 0 0 .398-.033l5.629-3.248a.98.98 0 0 0 .446-.924M185.504 170.2l-.196-1.383a.386.386 0 0 0-.612-.306l-5.628 3.255a.97.97 0 0 0-.444.917l.193 1.383a.384.384 0 0 0 .417.381.4.4 0 0 0 .195-.075l5.628-3.249a.99.99 0 0 0 .447-.923M194.204 165.185l-.196-1.386a.382.382 0 0 0-.213-.338.38.38 0 0 0-.399.032l-5.628 3.255a.98.98 0 0 0-.444.918l.193 1.382a.384.384 0 0 0 .417.381.4.4 0 0 0 .195-.075l5.628-3.245a1 1 0 0 0 .447-.924M202.903 160.169l-.196-1.385a.386.386 0 0 0-.612-.306l-5.628 3.254a.98.98 0 0 0-.444.918l.193 1.383a.39.39 0 0 0 .211.342.39.39 0 0 0 .401-.036l5.628-3.246a.99.99 0 0 0 .447-.924M211.602 155.152l-.196-1.383a.384.384 0 0 0-.416-.381.4.4 0 0 0-.196.075l-5.628 3.252a.97.97 0 0 0-.443.917l.192 1.386a.386.386 0 0 0 .612.306l5.628-3.249a.98.98 0 0 0 .447-.923M220.298 150.136l-.192-1.383a.39.39 0 0 0-.212-.342.38.38 0 0 0-.4.037l-5.625 3.248a.97.97 0 0 0-.444.918l.193 1.382a.383.383 0 0 0 .417.378.4.4 0 0 0 .195-.072l5.628-3.248a.97.97 0 0 0 .44-.918"/><path fill="#000" d="M161.543 172.064a2.22 2.22 0 0 1 1.053-2.043c.685-.395 1.324-.123 1.431.611a2.22 2.22 0 0 1-1.055 2.044c-.682.394-1.322.122-1.429-.612M170.252 167.054a2.22 2.22 0 0 1 1.053-2.043c.685-.398 1.324-.125 1.431.612a2.21 2.21 0 0 1-1.055 2.04c-.685.382-1.325.11-1.429-.609M178.943 162.023a2.218 2.218 0 0 1 1.052-2.043c.685-.398 1.328-.126 1.432.611a2.21 2.21 0 0 1-1.053 2.041c-.685.394-1.327.122-1.431-.609M196.336 151.98a2.2 2.2 0 0 1 1.052-2.043c.685-.395 1.324-.123 1.428.611a2.2 2.2 0 0 1-1.052 2.044c-.685.391-1.324.122-1.428-.612M205.041 146.959a2.213 2.213 0 0 1 1.052-2.044c.685-.397 1.325-.125 1.432.612a2.21 2.21 0 0 1-1.056 2.043c-.685.392-1.324.12-1.428-.611M213.731 141.937a2.218 2.218 0 0 1 1.052-2.043c.685-.398 1.328-.126 1.432.612a2.21 2.21 0 0 1-1.052 2.04c-.701.394-1.313.122-1.432-.609" opacity=".2"/><path fill="#F5F5F5" d="M160.644 163.8c-.918-.535-1.817-.612-2.502-.217-.686.394-1.065 1.202-1.065 2.276.006.502.08 1.001.22 1.483l.545-.306a5 5 0 0 1-.153-1.171c0-.845.269-1.465.759-1.747a1.3 1.3 0 0 1 .657-.165c.434.021.855.152 1.224.382 1.627.942 2.952 3.237 2.952 5.115q0 .2-.022.4a1.69 1.69 0 0 1-.734 1.346 1.4 1.4 0 0 1-.918.147 1.8 1.8 0 0 0-.076.612q.172.027.346.028c.336.004.668-.083.96-.251a2.162 2.162 0 0 0 1-1.573q.063-.349.061-.703c.004-2.095-1.459-4.619-3.254-5.656M169.35 158.777c-.918-.536-1.817-.612-2.502-.218-.685.395-1.065 1.203-1.065 2.276.006.502.08 1.001.22 1.484l.545-.306a5 5 0 0 1-.153-1.172c0-.844.269-1.465.759-1.746.2-.112.427-.169.657-.166.434.021.855.153 1.224.383 1.627.942 2.952 3.236 2.952 5.114q.001.201-.022.401a1.69 1.69 0 0 1-.734 1.346c-.28.151-.604.203-.918.147a1.8 1.8 0 0 0-.076.612q.172.027.346.027c.336.004.668-.082.96-.251a2.17 2.17 0 0 0 1-1.572q.063-.349.062-.704c.003-2.086-1.46-4.618-3.255-5.655M178.04 153.757c-.917-.535-1.817-.612-2.502-.217-.685.394-1.064 1.202-1.064 2.276.006.502.08 1.001.22 1.483l.544-.306a5 5 0 0 1-.153-1.171c0-.844.27-1.465.759-1.747.201-.112.428-.169.658-.165.434.021.855.152 1.223.382 1.628.942 2.952 3.237 2.952 5.115q.001.2-.021.401a1.7 1.7 0 0 1-.734 1.345 1.4 1.4 0 0 1-.918.147 1.7 1.7 0 0 0-.077.612q.172.027.346.028c.337.004.669-.083.961-.251a2.18 2.18 0 0 0 1-1.573q.061-.349.061-.703c.003-2.086-1.459-4.619-3.255-5.656M195.436 143.73c-.918-.536-1.817-.612-2.502-.218-.686.395-1.065 1.203-1.065 2.276.006.503.08 1.002.22 1.484l.545-.306a5 5 0 0 1-.153-1.172c0-.844.269-1.465.759-1.746a1.3 1.3 0 0 1 .657-.165c.434.02.855.152 1.224.382 1.627.942 2.952 3.236 2.952 5.114q0 .201-.022.401a1.69 1.69 0 0 1-.734 1.346c-.28.152-.604.203-.918.147a1.8 1.8 0 0 0-.076.612q.172.027.346.027c.336.004.668-.082.96-.251a2.17 2.17 0 0 0 1-1.572 4 4 0 0 0 .061-.703c.004-2.087-1.459-4.619-3.254-5.656M204.142 138.704c-.918-.535-1.817-.612-2.502-.217-.686.395-1.065 1.202-1.065 2.276.006.502.08 1.001.22 1.483l.545-.305a5 5 0 0 1-.153-1.172c0-.844.269-1.465.759-1.747a1.3 1.3 0 0 1 .657-.165c.434.021.855.153 1.224.383 1.627.942 2.952 3.236 2.952 5.114q.001.201-.022.401a1.69 1.69 0 0 1-.734 1.346c-.28.151-.604.203-.918.147a1.8 1.8 0 0 0-.076.611q.171.028.346.028c.336.004.668-.083.96-.251a2.17 2.17 0 0 0 1-1.572q.063-.35.062-.704c.003-2.083-1.46-4.619-3.255-5.656M212.832 133.685c-.917-.536-1.817-.612-2.502-.217-.685.394-1.067 1.202-1.067 2.275.006.503.08 1.002.22 1.484l.544-.306a5 5 0 0 1-.153-1.172c0-.844.27-1.465.759-1.746.201-.112.428-.169.658-.165.434.02.855.152 1.223.382 1.628.942 2.952 3.236 2.952 5.115a3 3 0 0 1-.021.4 1.69 1.69 0 0 1-.734 1.346 1.4 1.4 0 0 1-.918.147 1.7 1.7 0 0 0-.077.612q.172.027.346.027c.337.004.669-.082.961-.251a2.16 2.16 0 0 0 1-1.572q.062-.349.061-.703c.006-2.087-1.456-4.619-3.252-5.656"/></svg>