<svg xmlns="http://www.w3.org/2000/svg" width="256" height="256" fill="none"><path stroke="#D5D5D5" d="M46.56 204.522C24.086 192.754 13 177.407 13 162.19s11.084-30.568 33.56-42.341c22.464-11.767 51.94-17.663 81.442-17.663 29.503 0 58.977 5.896 81.439 17.663 22.473 11.773 33.558 27.122 33.559 42.337.001 15.214-11.083 30.563-33.559 42.336-22.465 11.767-51.939 17.664-81.441 17.664s-58.976-5.897-81.44-17.664Z" style="stroke:#d5d5d5;stroke:color(display-p3 .8353 .8353 .8353);stroke-opacity:1"/><path fill="#F7921E" d="M126.918 117.815v4.762l-82.544 47.657-2.56 1.459a4.43 4.43 0 0 1-1.94-3.507V87.93a.86.86 0 0 1 .117-.405.9.9 0 0 1 .297-.312l18.81-10.86c.231-.133 1.573.43 1.793.563l.143.082q.189.119.328.292c.107.113.19.247.24.394l1.706 4.92 61.276-36.474a.92.92 0 0 1 .804 0l1.136.66a.8.8 0 0 1 .292.302.86.86 0 0 1 .123.415v70.308z" style="fill:#f7921e;fill:color(display-p3 .9686 .5725 .1176);fill-opacity:1"/><path fill="#000" d="M126.918 117.815v4.762l-82.544 47.657-2.56 1.459a4.43 4.43 0 0 1-1.94-3.507V87.93a.86.86 0 0 1 .117-.405.9.9 0 0 1 .297-.312l18.81-10.86c.231-.133 1.573.43 1.793.563l.143.082q.189.119.328.292c.107.113.19.247.24.394l1.706 4.92 61.276-36.474a.92.92 0 0 1 .804 0l1.136.66a.8.8 0 0 1 .292.302.86.86 0 0 1 .123.415v70.308z" opacity=".5" style="fill:#000;fill-opacity:1"/><path fill="#F7921E" d="m126.918 122.577-85.084 49.116V88.57l19.548-11.264c.108.113.19.247.241.394l1.705 4.92.323.932 63.139-36.46a.86.86 0 0 1 .123.416z" style="fill:#f7921e;fill:color(display-p3 .9686 .5725 .1176);fill-opacity:1"/><path fill="#000" d="m126.918 122.577-85.084 49.116V88.57l19.548-11.264c.108.113.19.247.241.394l1.705 4.92.323.932 63.139-36.46a.86.86 0 0 1 .123.416z" opacity=".35" style="fill:#000;fill-opacity:1"/><path fill="#F7921E" d="M61.382 77.29 41.834 88.554l-1.823-1.024a.9.9 0 0 1 .297-.312l18.816-10.86a.88.88 0 0 1 .814 0l1.117.646q.188.115.327.286" style="fill:#f7921e;fill:color(display-p3 .9686 .5725 .1176);fill-opacity:1"/><path fill="#000" d="M61.382 77.29 41.834 88.554l-1.823-1.024a.9.9 0 0 1 .297-.312l18.816-10.86a.88.88 0 0 1 .814 0l1.117.646q.188.115.327.286" opacity=".2" style="fill:#000;fill-opacity:1"/><path fill="#F7921E" d="m126.79 47.077-63.134 36.46-.323-.932 61.251-36.48a.94.94 0 0 1 .803 0l1.137.66a.8.8 0 0 1 .266.292" style="fill:#f7921e;fill:color(display-p3 .9686 .5725 .1176);fill-opacity:1"/><path fill="#000" d="m126.79 47.077-63.134 36.46-.323-.932 61.251-36.48a.94.94 0 0 1 .803 0l1.137.66a.8.8 0 0 1 .266.292" opacity=".2" style="fill:#000;fill-opacity:1"/><path fill="#FAFAFA" d="M66.108 149.902a2.09 2.09 0 0 1-.916-1.659V66.001a2.15 2.15 0 0 1 .978-1.695l52.372-30.208a1.836 1.836 0 0 1 2.585.665c.161.293.239.624.226.958v82.243a2.16 2.16 0 0 1-.978 1.694l-52.372 30.208a2.09 2.09 0 0 1-1.895.036" style="fill:#fafafa;fill:color(display-p3 .9804 .9804 .9804);fill-opacity:1"/><path fill="#F0F0F0" d="m68.003 149.867 52.372-30.208a2.17 2.17 0 0 0 .978-1.695V35.721c0-.624-.435-.875-.978-.568L68.003 65.36a2.17 2.17 0 0 0-.978 1.695v82.247c0 .625.44.876.978.564" style="fill:#f0f0f0;fill:color(display-p3 .9412 .9412 .9412);fill-opacity:1"/><path fill="#E0E0E0" d="M73.328 68.632 113.8 45.26c.476-.276.865-.05.865.513v.343a1.901 1.901 0 0 1-.865 1.495L73.328 70.977c-.477.277-.866.057-.86-.512v-.343a1.9 1.9 0 0 1 .86-1.49M73.328 74.46 113.8 51.085c.476-.271.865-.05.865.512v.343a1.89 1.89 0 0 1-.865 1.49L73.328 76.794c-.477.276-.866.051-.86-.512v-.343a1.9 1.9 0 0 1 .86-1.48M73.328 80.285 113.8 56.918c.476-.277.865-.051.865.512v.343a1.917 1.917 0 0 1-.865 1.495L73.328 82.635c-.477.277-.866.052-.86-.511v-.343a1.91 1.91 0 0 1 .86-1.496M73.328 86.117 113.8 62.745c.476-.272.865-.052.865.512v.348a1.906 1.906 0 0 1-.865 1.49L73.328 88.468c-.477.27-.866.05-.86-.513v-.348a1.9 1.9 0 0 1 .86-1.49M73.328 91.944 113.8 68.576c.476-.277.865-.056.865.512v.343a1.917 1.917 0 0 1-.865 1.495L73.328 94.294c-.477.276-.866.05-.86-.512v-.349a1.91 1.91 0 0 1 .86-1.49M73.328 97.817 113.8 74.444c.476-.272.865-.051.865.512v.343a1.89 1.89 0 0 1-.865 1.49l-40.473 23.373c-.477.276-.866.051-.86-.512v-.344a1.9 1.9 0 0 1 .86-1.49M73.328 103.643 113.8 80.275c.476-.276.865-.051.865.512v.343a1.9 1.9 0 0 1-.865 1.495l-40.473 23.353c-.477.276-.866.056-.86-.512v-.343a1.91 1.91 0 0 1 .86-1.48M73.328 109.475 113.8 86.102c.476-.271.865-.051.865.512v.348a1.89 1.89 0 0 1-.865 1.49l-40.473 23.373c-.477.276-.866.051-.86-.512v-.343a1.91 1.91 0 0 1 .86-1.495M73.328 115.301 113.8 91.933c.476-.276.865-.05.865.512v.343a1.915 1.915 0 0 1-.865 1.495l-40.473 23.368c-.477.277-.866.051-.86-.512v-.343a1.91 1.91 0 0 1 .86-1.495M73.328 121.133 113.8 97.76c.476-.276.865-.051.865.512v.343a1.9 1.9 0 0 1-.865 1.495l-40.473 23.373c-.477.271-.866.051-.86-.512v-.353a1.9 1.9 0 0 1 .86-1.485M73.328 126.985l40.473-23.368c.476-.276.865-.056.865.512v.343a1.9 1.9 0 0 1-.865 1.495l-40.473 23.368c-.477.277-.866.051-.86-.512v-.343a1.9 1.9 0 0 1 .86-1.495M73.328 132.817l40.473-23.373c.476-.276.865-.051.865.512v.343c-.016.3-.103.591-.254.851-.15.26-.359.481-.611.644l-40.473 23.373c-.477.271-.866.051-.86-.512v-.343a1.9 1.9 0 0 1 .86-1.495M73.328 138.643 113.8 115.27c.476-.271.865-.051.865.512v.344a1.9 1.9 0 0 1-.254.848c-.15.259-.359.479-.611.641l-40.473 23.373c-.477.277-.866.051-.86-.512v-.343a1.9 1.9 0 0 1 .86-1.49M67.875 149.933a1.824 1.824 0 0 1-2.475-.765 1.8 1.8 0 0 1-.208-.925V66.001c.014-.34.113-.67.286-.963l1.833 1.06a1.96 1.96 0 0 0-.286.957v82.248c0 .573.373.829.85.63" style="fill:#e0e0e0;fill:color(display-p3 .8784 .8784 .8784);fill-opacity:1"/><path fill="#FAFAFA" d="M73.46 154.147a2.1 2.1 0 0 1-.916-1.659V70.245a2.17 2.17 0 0 1 .978-1.694l52.372-30.208a1.838 1.838 0 0 1 2.816 1.623v82.242a2.17 2.17 0 0 1-.978 1.695l-52.377 30.208a2.1 2.1 0 0 1-1.895.036" style="fill:#fafafa;fill:color(display-p3 .9804 .9804 .9804);fill-opacity:1"/><path fill="#F0F0F0" d="m75.355 154.111 52.377-30.208a2.17 2.17 0 0 0 .978-1.695V39.966c0-.625-.44-.876-.978-.564L75.355 69.61a2.17 2.17 0 0 0-.978 1.695v82.243c0 .624.44.875.978.563" style="fill:#f0f0f0;fill:color(display-p3 .9412 .9412 .9412);fill-opacity:1"/><path fill="#E0E0E0" d="m80.68 72.877 40.473-23.373c.476-.276.866-.051.866.512v.343a1.92 1.92 0 0 1-.866 1.495L80.68 75.227c-.476.271-.86.051-.86-.512v-.343a1.9 1.9 0 0 1 .86-1.495M80.68 78.703l40.473-23.373c.476-.27.866-.05.866.513v.343a1.903 1.903 0 0 1-.866 1.49L80.68 81.048c-.476.277-.86.052-.86-.512v-.343a1.9 1.9 0 0 1 .86-1.49M80.68 84.535l40.473-23.357c.476-.276.866-.051.866.512v.343a1.92 1.92 0 0 1-.866 1.495L80.68 86.896c-.476.276-.86.056-.86-.512v-.343a1.9 1.9 0 0 1 .86-1.506M80.68 90.362l40.473-23.373c.476-.272.866-.052.866.512v.332a1.903 1.903 0 0 1-.866 1.49L80.68 92.697c-.476.277-.86.052-.86-.512v-.343a1.9 1.9 0 0 1 .86-1.48M80.68 96.188l40.473-23.367c.476-.277.866-.052.866.512v.343a1.93 1.93 0 0 1-.866 1.495L80.68 98.538c-.476.277-.86.052-.86-.512v-.343a1.9 1.9 0 0 1 .86-1.495M80.68 102.061l40.473-23.368c.476-.276.866-.056.866.512v.343a1.902 1.902 0 0 1-.866 1.49L80.68 104.411c-.476.276-.86.051-.86-.512v-.343a1.9 1.9 0 0 1 .86-1.495M80.68 107.893l40.473-23.373c.476-.277.866-.051.866.512v.343a1.92 1.92 0 0 1-.866 1.495L80.68 110.227c-.476.272-.86.052-.86-.512v-.343a1.9 1.9 0 0 1 .86-1.479M80.68 113.719l40.473-23.357c.476-.272.866-.051.866.512v.343a1.91 1.91 0 0 1-.866 1.49L80.68 116.08c-.476.276-.86.051-.86-.512v-.343a1.9 1.9 0 0 1 .86-1.506M80.68 119.546l40.473-23.368c.476-.276.866-.051.866.512v.328a1.92 1.92 0 0 1-.866 1.495L80.68 121.88c-.476.277-.86.057-.86-.512v-.343a1.91 1.91 0 0 1 .86-1.479M80.68 125.378l40.473-23.373c.476-.272.866-.051.866.512v.348a1.905 1.905 0 0 1-.866 1.49L80.68 127.738c-.476.276-.86.051-.86-.512v-.343a1.9 1.9 0 0 1 .86-1.505M80.68 131.23l40.473-23.368c.476-.276.866-.051.866.512v.343a1.93 1.93 0 0 1-.866 1.495L80.68 133.58c-.476.276-.86.051-.86-.512v-.343a1.9 1.9 0 0 1 .86-1.495M80.68 137.061l40.473-23.373c.476-.276.866-.051.866.512v.343a1.92 1.92 0 0 1-.866 1.495L80.68 139.411c-.476.271-.86.051-.86-.512v-.348a1.9 1.9 0 0 1 .86-1.49M80.68 142.888l40.473-23.342c.476-.277.866-.057.866.512v.343c-.018.299-.105.59-.255.85s-.36.48-.611.645L80.68 145.263c-.476.277-.86.052-.86-.512v-.343a1.9 1.9 0 0 1 .86-1.52M75.227 154.177a1.825 1.825 0 0 1-2.475-.764 1.83 1.83 0 0 1-.208-.925V70.245c.014-.34.113-.67.287-.962l1.838 1.06a1.96 1.96 0 0 0-.292.957v82.248c0 .573.374.814.85.629" style="fill:#e0e0e0;fill:color(display-p3 .8784 .8784 .8784);fill-opacity:1"/><path fill="#F7921E" d="m144.291 56.867-13.64 59.095-1.26 5.432a6.28 6.28 0 0 1-2.606 3.528l-80.937 46.699a4.2 4.2 0 0 1-1.915.512 3.9 3.9 0 0 1-2.099-.44l.42-1.802c0-.057 0-.113.041-.174l.456-1.977 1.96-8.571 12.54-54.308a.8.8 0 0 1 .076-.199q.05-.093.108-.179v-.031q.132-.177.317-.297l69.12-39.905 15.125-8.735a.92.92 0 0 1 .834 0l1.117.645a.7.7 0 0 1 .343.707" style="fill:#f7921e;fill:color(display-p3 .9686 .5725 .1176);fill-opacity:1"/><path fill="#000" d="m144.291 56.867-13.64 59.095-1.26 5.432a6.28 6.28 0 0 1-2.606 3.528l-80.937 46.699a4.2 4.2 0 0 1-1.915.512 3.9 3.9 0 0 1-2.099-.44l.42-1.802c0-.057 0-.113.041-.174l.456-1.977 1.96-8.571 12.54-54.308a.8.8 0 0 1 .076-.199q.05-.093.108-.179v-.031q.132-.177.317-.297l69.12-39.905 15.125-8.735a.92.92 0 0 1 .834 0l1.117.645a.7.7 0 0 1 .343.707" opacity=".3" style="fill:#000;fill-opacity:1"/><path fill="#F7921E" d="M144.306 56.744c0-.164-.133-.22-.318-.108l-84.254 48.64a1.1 1.1 0 0 0-.318.292l-1.94-1.121q.132-.177.317-.297l84.245-48.64a.92.92 0 0 1 .834 0l1.116.645a.71.71 0 0 1 .318.589" style="fill:#f7921e;fill:color(display-p3 .9686 .5725 .1176);fill-opacity:1"/><path fill="#000" d="M144.306 56.744c0-.164-.133-.22-.318-.108l-84.254 48.64a1.1 1.1 0 0 0-.318.292l-1.94-1.121q.132-.177.317-.297l84.245-48.64a.92.92 0 0 1 .834 0l1.116.645a.71.71 0 0 1 .318.589" opacity=".2" style="fill:#000;fill-opacity:1"/><path fill="#F7921E" d="M59.416 105.573a2 2 0 0 0-.143.236 2 2 0 0 0-.062.174l-11.99 51.932-2.51 10.947-.317 1.367-.44 1.899a3.9 3.9 0 0 1-2.1-.44l.42-1.802c0-.057 0-.113.041-.174l.456-1.977 1.94-8.565 12.54-54.308a.8.8 0 0 1 .076-.2q.05-.092.108-.179v-.031z" style="fill:#f7921e;fill:color(display-p3 .9686 .5725 .1176);fill-opacity:1"/><path fill="#000" d="M59.416 105.573a2 2 0 0 0-.143.236 2 2 0 0 0-.062.174l-11.99 51.932-2.51 10.947-.317 1.367-.44 1.899a3.9 3.9 0 0 1-2.1-.44l.42-1.802c0-.057 0-.113.041-.174l.456-1.977 1.94-8.565 12.54-54.308a.8.8 0 0 1 .076-.2q.05-.092.108-.179v-.031z" opacity=".5" style="fill:#000;fill-opacity:1"/><path fill="#F7921E" d="M44.804 166.681a.54.54 0 0 1 .256.588l-.686 2.965-.343 1.48a.514.514 0 0 1-.553.419 3.65 3.65 0 0 1-1.644-.44 4.43 4.43 0 0 1-1.94-3.507v-3.405a.54.54 0 0 1 .27-.467.54.54 0 0 1 .539-.004l.865.512a.55.55 0 0 1 .266.466v1.695a.537.537 0 0 0 1.065.123l.144-.63a.54.54 0 0 1 .555-.415q.128.008.238.072z" style="fill:#f7921e;fill:color(display-p3 .9686 .5725 .1176);fill-opacity:1"/><path fill="#000" d="M44.804 166.681a.54.54 0 0 1 .256.588l-.686 2.965-.343 1.48a.514.514 0 0 1-.553.419 3.65 3.65 0 0 1-1.644-.44 4.43 4.43 0 0 1-1.94-3.507v-3.405a.54.54 0 0 1 .27-.467.54.54 0 0 1 .539-.004l.865.512a.55.55 0 0 1 .266.466v1.695a.537.537 0 0 0 1.065.123l.144-.63a.54.54 0 0 1 .555-.415q.128.008.238.072z" opacity=".5" style="fill:#000;fill-opacity:1"/><path fill="#FAFAFA" d="M80.818 158.391a2.09 2.09 0 0 1-.917-1.659V74.49a2.15 2.15 0 0 1 .978-1.69l52.368-30.208a1.83 1.83 0 0 1 1.896-.038 1.84 1.84 0 0 1 .915 1.661v82.238a2.16 2.16 0 0 1-.978 1.694l-52.368 30.208a2.1 2.1 0 0 1-1.894.036" style="fill:#fafafa;fill:color(display-p3 .9804 .9804 .9804);fill-opacity:1"/><path fill="#F0F0F0" d="m82.712 158.36 52.368-30.208a2.15 2.15 0 0 0 .978-1.694V44.21c0-.625-.436-.876-.978-.568L82.712 73.85a2.15 2.15 0 0 0-.978 1.694v82.248c0 .625.436.876.978.568" style="fill:#f0f0f0;fill:color(display-p3 .9412 .9412 .9412);fill-opacity:1"/><path fill="#E0E0E0" d="M82.6 158.422a2.05 2.05 0 0 1-1.767-.031 2.09 2.09 0 0 1-.916-1.654V74.49c.013-.342.112-.674.287-.968l1.832 1.06c-.177.29-.275.622-.286.962v82.253c-.016.568.338.83.85.625M90.29 69.482l36.777-21.217v8.479L90.29 77.977zM87.105 83.327l11.879-6.866c.271-.159.512-.046.512.246a1.02 1.02 0 0 1-.512.814l-11.879 6.866c-.271.158-.512.046-.512-.246a1.02 1.02 0 0 1 .512-.814M87.105 85.452l11.879-6.866c.271-.159.512-.046.512.246a1.05 1.05 0 0 1-.512.814l-11.879 6.866c-.271.153-.512.046-.512-.251a1.02 1.02 0 0 1 .512-.81M87.105 87.571l11.879-6.865c.271-.154.512-.047.512.25a1.05 1.05 0 0 1-.512.814l-11.879 6.866c-.271.154-.512.046-.512-.25a1.06 1.06 0 0 1 .512-.815M87.105 89.696l11.879-6.866c.271-.153.512-.046.512.246a1.03 1.03 0 0 1-.512.814l-11.879 6.866c-.271.159-.512.046-.512-.246a1.06 1.06 0 0 1 .512-.814M119.028 76.574l11.894-6.866c.271-.159.487-.046.487.246a1.05 1.05 0 0 1-.487.814l-11.894 6.866c-.271.158-.512.046-.512-.246a1.04 1.04 0 0 1 .512-.814M119.028 78.693l11.894-6.865c.271-.154.487-.041.487.25a1.05 1.05 0 0 1-.487.814l-11.894 6.866c-.271.154-.512.047-.512-.25a1.06 1.06 0 0 1 .512-.815M119.028 80.818l11.894-6.84c.271-.154.487-.046.487.25a1.03 1.03 0 0 1-.487.81l-11.894 6.866c-.271.158-.512.046-.512-.246a1.06 1.06 0 0 1 .512-.84M119.028 82.943l11.894-6.866c.271-.159.487-.046.487.246a1.03 1.03 0 0 1-.487.814l-11.894 6.866c-.271.159-.512.046-.512-.246a1.025 1.025 0 0 1 .512-.814M87.105 149.149l44.99-25.973c.271-.159.512-.046.512.245a1.02 1.02 0 0 1-.512.814l-44.99 25.979c-.271.154-.512.041-.512-.251a1.05 1.05 0 0 1 .512-.814M87.105 151.29l44.99-25.979c.271-.154.512-.041.512.251a1.06 1.06 0 0 1-.512.814l-44.99 25.938c-.271.159-.512.046-.512-.246a1.03 1.03 0 0 1 .512-.778M116.033 66.62l14.695-8.514c.266-.154.486-.041.486.25a1.06 1.06 0 0 1-.486.815l-14.695 8.514c-.271.154-.486.046-.486-.25a1.046 1.046 0 0 1 .486-.814M116.033 68.745l14.695-8.494c.266-.154.486-.046.486.25a1.06 1.06 0 0 1-.486.815l-14.695 8.489c-.271.158-.486.046-.486-.246a1.047 1.047 0 0 1 .486-.814M116.033 70.87l14.695-8.494c.266-.159.486-.046.486.246a1.03 1.03 0 0 1-.486.814l-14.695 8.494c-.271.158-.486.046-.486-.246a1.01 1.01 0 0 1 .486-.814M116.033 72.995l14.695-8.494c.266-.159.486-.046.486.246a1.06 1.06 0 0 1-.486.814l-14.695 8.494c-.271.153-.486.046-.486-.251a1.03 1.03 0 0 1 .486-.81" style="fill:#e0e0e0;fill:color(display-p3 .8784 .8784 .8784);fill-opacity:1"/><path fill="#455A64" d="M87.243 102.353a.1.1 0 0 1-.061.024.1.1 0 0 1-.061-.024.212.212 0 0 1-.051-.164v-6.487a.5.5 0 0 1 .05-.22.35.35 0 0 1 .123-.154l.856-.512a.087.087 0 0 1 .122 0 .2.2 0 0 1 .057.16v6.481a.5.5 0 0 1-.057.22.3.3 0 0 1-.123.154zM92.154 99.521a.15.15 0 0 1-.18 0 .23.23 0 0 1-.087-.087l-1.495-2.56v3.39a.5.5 0 0 1-.051.22.32.32 0 0 1-.123.153l-.855.512a.1.1 0 0 1-.061.024.1.1 0 0 1-.062-.024.21.21 0 0 1-.051-.163v-6.529a.5.5 0 0 1 .051-.22.4.4 0 0 1 .123-.153l.681-.39a.16.16 0 0 1 .18 0 .5.5 0 0 1 .086.093l1.49 2.56v-3.395a.6.6 0 0 1 .051-.22.35.35 0 0 1 .128-.153l.85-.512a.1.1 0 0 1 .128 0 .24.24 0 0 1 .052.158v6.533a.6.6 0 0 1-.052.22.3.3 0 0 1-.128.149zM95.302 97.704q-.255.147-.343-.205l-1.331-5.504a.4.4 0 0 1 0-.082.435.435 0 0 1 .041-.215.25.25 0 0 1 .102-.123l.82-.476c.087-.051.148-.056.189 0a.24.24 0 0 1 .067.123l.906 3.896.906-4.94a.9.9 0 0 1 .067-.205.5.5 0 0 1 .19-.195l.818-.47a.08.08 0 0 1 .103 0 .2.2 0 0 1 .04.132.1.1 0 0 1 0 .041 1 1 0 0 1 0 .098l-1.325 7.04a.86.86 0 0 1-.349.604zM98.16 91.647q.02-.585.158-1.152c.09-.377.223-.743.394-1.09q.259-.51.63-.943a3.2 3.2 0 0 1 .85-.706c.253-.165.544-.26.845-.277a.97.97 0 0 1 .629.22c.184.166.318.378.39.615.097.313.151.639.158.967v1.787q-.023.581-.158 1.147-.136.573-.4 1.1a4.2 4.2 0 0 1-.63.943 3.2 3.2 0 0 1-.844.701 1.8 1.8 0 0 1-.85.282.94.94 0 0 1-.63-.22 1.44 1.44 0 0 1-.394-.64c-.1-.313-.154-.64-.159-.968v-.875c-.005-.292 0-.6.01-.891m2.856.087v-1.69a1.7 1.7 0 0 0-.066-.42.66.66 0 0 0-.154-.276.38.38 0 0 0-.251-.102.7.7 0 0 0-.353.112q-.201.12-.353.297-.151.178-.251.39a2.69 2.69 0 0 0-.225.968v1.6840000000000002c-.007.254.072.502.225.706.133.143.333.138.604 0 .267-.155.477-.392.599-.676.139-.314.221-.65.241-.993zM103.162 93.163a.093.093 0 0 1-.123 0 .2.2 0 0 1-.051-.164v-6.487q0-.117.051-.22a.35.35 0 0 1 .123-.154l.855-.512a.09.09 0 0 1 .061-.025.1.1 0 0 1 .062.025.2.2 0 0 1 .056.159v6.482a.5.5 0 0 1-.056.22.32.32 0 0 1-.123.153zM106.152 87.08v1.69q.006.205.056.404a.6.6 0 0 0 .143.287.35.35 0 0 0 .251.112.65.65 0 0 0 .369-.117q.21-.114.369-.292c.17-.193.297-.42.373-.666q.048-.168.072-.307.025-.136.072-.266a.33.33 0 0 1 .153-.149l.85-.512a.08.08 0 0 1 .051-.02.08.08 0 0 1 .052.02.2.2 0 0 1 .034.06q.01.033.007.068a4 4 0 0 1-.159 1.06 5.3 5.3 0 0 1-.43 1.024 5.2 5.2 0 0 1-.645.901c-.23.26-.5.48-.799.656-.25.16-.538.253-.835.266a.94.94 0 0 1-.629-.225c-.191-.171-.33-.39-.405-.635a3.5 3.5 0 0 1-.159-.958v-1.787q.017-.576.159-1.136c.092-.38.226-.75.399-1.101.172-.341.383-.661.63-.952a3.2 3.2 0 0 1 .84-.697c.24-.153.515-.244.799-.266.225-.015.45.039.645.154.192.133.341.32.43.537.111.275.165.57.159.865a.4.4 0 0 1-.041.185.3.3 0 0 1-.103.123l-.85.512c-.077.04-.128.05-.153 0a.5.5 0 0 1-.072-.185 1 1 0 0 0-.072-.215.45.45 0 0 0-.143-.179.37.37 0 0 0-.23-.056.8.8 0 0 0-.369.128q-.213.121-.369.312-.155.181-.251.4a2 2 0 0 0-.143.45 3 3 0 0 0-.056.507M112.946 85.907a.11.11 0 0 1 .128 0 .23.23 0 0 1 .051.159v1.065a.6.6 0 0 1-.051.22.3.3 0 0 1-.128.154l-3.072 1.782a.093.093 0 0 1-.123 0 .215.215 0 0 1-.051-.164v-6.477c0-.076.018-.152.051-.22a.35.35 0 0 1 .123-.154l3.036-1.751a.093.093 0 0 1 .123 0q.03.034.045.076a.2.2 0 0 1 .011.088v1.065a.5.5 0 0 1-.056.22.28.28 0 0 1-.123.148l-2.007 1.163v1.08l1.864-1.075q.077-.039.122 0a.2.2 0 0 1 .057.159v1.065a.5.5 0 0 1-.057.22.3.3 0 0 1-.122.153l-1.864 1.076v1.126z" style="fill:#455a64;fill:color(display-p3 .2706 .3529 .3922);fill-opacity:1"/><path fill="#F7921E" d="m86.614 105.906 45.972-26.542v1.06l-45.972 26.542z" style="fill:#f7921e;fill:color(display-p3 .9686 .5725 .1176);fill-opacity:1"/><path fill="#000" d="m86.614 105.906 45.972-26.542v1.06l-45.972 26.542z" opacity=".2" style="fill:#000;fill-opacity:1"/><path fill="#F7921E" d="m86.614 133.508 45.972-26.542v1.06l-45.972 26.542z" style="fill:#f7921e;fill:color(display-p3 .9686 .5725 .1176);fill-opacity:1"/><path fill="#000" d="m86.614 133.508 45.972-26.542v1.06l-45.972 26.542z" opacity=".2" style="fill:#000;fill-opacity:1"/><path fill="#F7921E" d="m86.614 109.091 16.548-9.56v2.126l-16.548 9.553zM106.843 97.412l7.352-4.25v2.125l-7.352 4.245zM116.033 92.103l7.358-4.25v2.125l-7.358 4.25zM125.229 86.793l7.357-4.244v2.12l-7.357 4.25z" style="fill:#f7921e;fill:color(display-p3 .9686 .5725 .1176);fill-opacity:1"/><path fill="#E6E6E6" d="m86.614 115.46 45.972-26.542v4.244l-45.972 26.543zM86.614 123.954l45.972-26.542v4.245l-45.972 26.542z" style="fill:#e6e6e6;fill:color(display-p3 .902 .902 .902);fill-opacity:1"/><path fill="#455A64" d="M88.452 112.613a.34.34 0 0 1-.32-.254.34.34 0 0 1 .15-.38l12.873-7.43a.34.34 0 0 1 .376.026.33.33 0 0 1 .129.225.33.33 0 0 1-.068.251.3.3 0 0 1-.099.087l-12.872 7.429a.34.34 0 0 1-.17.046M108.681 100.023a.246.246 0 0 1-.2-.112.22.22 0 0 1 .087-.307l5.514-3.185a.226.226 0 0 1 .308.082.22.22 0 0 1 .027.172.22.22 0 0 1-.109.135l-5.514 3.185a.23.23 0 0 1-.113.03M108.681 101.544a.24.24 0 0 1-.2-.113.23.23 0 0 1-.023-.174.225.225 0 0 1 .11-.138l5.515-3.185a.223.223 0 0 1 .307.082.2.2 0 0 1 .032.084.23.23 0 0 1-.045.17.2.2 0 0 1-.069.059l-5.514 3.184a.24.24 0 0 1-.113.031M117.876 95.513a.225.225 0 0 1-.117-.42l5.519-3.195a.22.22 0 0 1 .25.014.2.2 0 0 1 .057.068.226.226 0 0 1-.082.307l-5.514 3.195a.24.24 0 0 1-.113.03M127.067 90.203a.2.2 0 0 1-.113-.029.23.23 0 0 1-.104-.254.23.23 0 0 1 .104-.137l5.52-3.184a.22.22 0 0 1 .176-.033.226.226 0 0 1 .165.285.23.23 0 0 1-.116.137l-5.519 3.19a.2.2 0 0 1-.113.025M88.452 116.863a.34.34 0 0 1-.32-.255.34.34 0 0 1 .15-.38l9.217-5.309a.344.344 0 0 1 .46.123.33.33 0 0 1-.022.378.3.3 0 0 1-.1.088l-9.216 5.309a.34.34 0 0 1-.17.046M108.681 104.273a.24.24 0 0 1-.2-.113.231.231 0 0 1 .087-.312l5.515-3.185a.225.225 0 0 1 .307.082.2.2 0 0 1 .032.084.23.23 0 0 1-.045.171.2.2 0 0 1-.069.058l-5.514 3.184a.24.24 0 0 1-.113.031M108.681 105.788a.23.23 0 0 1-.114-.031.24.24 0 0 1-.086-.081.223.223 0 0 1 .087-.307l5.514-3.185a.2.2 0 0 1 .084-.03.2.2 0 0 1 .088.005.23.23 0 0 1 .136.107.223.223 0 0 1 .027.172.217.217 0 0 1-.109.135l-5.514 3.185a.24.24 0 0 1-.113.03M117.876 99.762a.22.22 0 0 1-.199-.112.229.229 0 0 1 .082-.312l5.519-3.185a.225.225 0 0 1 .307.082.23.23 0 0 1-.082.312l-5.514 3.185a.23.23 0 0 1-.113.03M127.067 94.458a.23.23 0 0 1-.195-.113.23.23 0 0 1 .082-.312l5.52-3.185a.225.225 0 0 1 .33.255.23.23 0 0 1-.105.14l-5.52 3.184a.2.2 0 0 1-.112.03M88.452 121.107a.34.34 0 0 1-.32-.254.35.35 0 0 1 .15-.381l14.711-8.494a.344.344 0 0 1 .466.128.341.341 0 0 1-.128.461l-14.71 8.515a.34.34 0 0 1-.17.025M108.681 108.517a.23.23 0 0 1-.114-.031.24.24 0 0 1-.086-.081.223.223 0 0 1 .087-.307l5.514-3.185a.226.226 0 0 1 .308.082.223.223 0 0 1 .027.172.217.217 0 0 1-.109.135l-5.514 3.185a.24.24 0 0 1-.113.03M108.681 110.038a.24.24 0 0 1-.2-.113.23.23 0 0 1-.023-.174.225.225 0 0 1 .11-.138l5.515-3.185a.23.23 0 0 1 .172-.022.23.23 0 0 1 .159.279.23.23 0 0 1-.106.138l-5.514 3.184a.24.24 0 0 1-.113.031M117.876 104.007a.22.22 0 0 1-.199-.113.225.225 0 0 1 .082-.307l5.519-3.185a.222.222 0 0 1 .172-.027.2.2 0 0 1 .079.041.2.2 0 0 1 .056.068c.03.052.038.113.023.171a.23.23 0 0 1-.105.136l-5.514 3.185a.23.23 0 0 1-.113.031M127.067 98.697a.225.225 0 0 1-.113-.42l5.52-3.184a.22.22 0 0 1 .176-.032.23.23 0 0 1 .173.193.23.23 0 0 1-.052.171.2.2 0 0 1-.072.057l-5.519 3.184a.2.2 0 0 1-.113.031M88.452 125.357a.35.35 0 0 1-.32-.255.34.34 0 0 1 .15-.38l7.358-4.25a.34.34 0 0 1 .464.126.337.337 0 0 1-.126.463l-7.357 4.25a.34.34 0 0 1-.17.046M108.681 112.767a.24.24 0 0 1-.2-.113.23.23 0 0 1-.023-.174.3.3 0 0 1 .041-.08.2.2 0 0 1 .069-.058l5.515-3.184a.224.224 0 0 1 .307.081.222.222 0 0 1-.082.313l-5.514 3.184a.23.23 0 0 1-.113.031M108.681 114.283a.25.25 0 0 1-.114-.031.25.25 0 0 1-.086-.082.217.217 0 0 1-.022-.172.217.217 0 0 1 .109-.135l5.514-3.185a.22.22 0 0 1 .177-.032q.045.01.083.038a.3.3 0 0 1 .061.069.2.2 0 0 1 .028.086.226.226 0 0 1-.051.172.2.2 0 0 1-.072.056l-5.514 3.185a.25.25 0 0 1-.113.031M117.876 108.282a.22.22 0 0 1-.199-.113.23.23 0 0 1 .082-.312l5.519-3.185a.225.225 0 0 1 .33.255.23.23 0 0 1-.105.139l-5.514 3.185a.23.23 0 0 1-.113.031M127.067 102.947a.23.23 0 0 1-.195-.113.23.23 0 0 1 .082-.312l5.52-3.185a.224.224 0 0 1 .307.082.23.23 0 0 1-.082.313l-5.52 3.184a.2.2 0 0 1-.112.031M88.452 129.601a.34.34 0 0 1-.32-.254.34.34 0 0 1 .15-.38l12.873-7.43a.34.34 0 0 1 .388.01.333.333 0 0 1 .123.369.3.3 0 0 1-.066.12.3.3 0 0 1-.107.085l-12.872 7.434a.34.34 0 0 1-.17.046M108.681 117.011a.23.23 0 0 1-.114-.031.24.24 0 0 1-.086-.081.223.223 0 0 1 .087-.308l5.514-3.189a.218.218 0 0 1 .308.082.218.218 0 0 1 .027.171.23.23 0 0 1-.109.136l-5.514 3.195a.25.25 0 0 1-.113.025M108.681 118.522a.239.239 0 0 1-.229-.202.22.22 0 0 1 .048-.167.2.2 0 0 1 .068-.056l5.514-3.159a.226.226 0 0 1 .308.082.217.217 0 0 1 .027.171.23.23 0 0 1-.109.136l-5.514 3.195a.24.24 0 0 1-.113 0M117.876 112.501a.22.22 0 0 1-.199-.113.225.225 0 0 1 .082-.307l5.519-3.19a.217.217 0 0 1 .172-.022.217.217 0 0 1 .135.109c.03.052.038.113.023.171a.23.23 0 0 1-.105.136l-5.514 3.185a.23.23 0 0 1-.113.031M127.067 107.191a.225.225 0 0 1-.113-.42l5.52-3.184a.218.218 0 0 1 .307.082.225.225 0 0 1-.082.307l-5.519 3.184a.2.2 0 0 1-.113.031M117.876 118.87a.22.22 0 0 1-.199-.113.225.225 0 0 1 .082-.307l5.519-3.184a.23.23 0 0 1 .176-.033q.046.01.083.039a.224.224 0 0 1-.034.383l-5.514 3.184a.23.23 0 0 1-.113.031M127.067 113.56a.224.224 0 0 1-.113-.419l5.52-3.185a.2.2 0 0 1 .084-.034.232.232 0 0 1 .175.04.3.3 0 0 1 .061.068.3.3 0 0 1 .029.087.23.23 0 0 1-.124.228l-5.514 3.185a.23.23 0 0 1-.118.03M117.876 120.995a.22.22 0 0 1-.199-.113.225.225 0 0 1 .082-.307l5.519-3.19a.229.229 0 0 1 .332.257.23.23 0 0 1-.107.138l-5.514 3.184a.23.23 0 0 1-.113.031M127.067 115.685a.224.224 0 0 1-.208-.311.23.23 0 0 1 .095-.109l5.52-3.184a.2.2 0 0 1 .083-.03.2.2 0 0 1 .088.005.227.227 0 0 1 .054.414l-5.514 3.185a.23.23 0 0 1-.118.03" style="fill:#455a64;fill:color(display-p3 .2706 .3529 .3922);fill-opacity:1"/><path fill="#F7921E" d="m132.586 114.4-29.424 16.983v6.37l29.424-16.983z" style="fill:#f7921e;fill:color(display-p3 .9686 .5725 .1176);fill-opacity:1"/><path fill="#FAFAFA" d="M108.676 129.704a.04.04 0 0 1 .031-.012q.017 0 .03.012a.1.1 0 0 1 0 .076v.512a.3.3 0 0 1 0 .108.1.1 0 0 1-.023.042.2.2 0 0 1-.038.03l-.553.322v2.483a.2.2 0 0 1 0 .103.2.2 0 0 1-.056.077l-.415.235-.014.01a.03.03 0 0 1-.017.004.045.045 0 0 1-.031-.014.1.1 0 0 1 0-.077v-2.483l-.558.323a.05.05 0 0 1-.028.009.05.05 0 0 1-.028-.009.11.11 0 0 1-.026-.077v-.512a.3.3 0 0 1 .026-.108.2.2 0 0 1 .056-.076zM108.937 130.81q.008-.283.077-.558a2.4 2.4 0 0 1 .491-.968q.176-.204.41-.338a.87.87 0 0 1 .409-.133.44.44 0 0 1 .302.108c.092.08.159.185.195.302q.074.23.077.471v.86a2.6 2.6 0 0 1-.077.553 2.6 2.6 0 0 1-.195.512 2.3 2.3 0 0 1-.302.456 1.7 1.7 0 0 1-.409.338.9.9 0 0 1-.41.133.45.45 0 0 1-.302-.108.65.65 0 0 1-.189-.307 1.5 1.5 0 0 1-.077-.466v-.42c0-.148-.005-.287 0-.435m1.377.041v-.8140000000000001a1 1 0 0 0-.031-.205.4.4 0 0 0-.076-.133.166.166 0 0 0-.123-.046.3.3 0 0 0-.169.051.6.6 0 0 0-.169.143 1 1 0 0 0-.123.19 1 1 0 0 0-.072.22 1.2 1.2 0 0 0-.036.241v.8140000000000001c0 .121.037.239.108.338.066.071.164.066.292 0a.7.7 0 0 0 .292-.323c.062-.148.098-.306.107-.466zM112.844 127.298a.056.056 0 0 1 .061 0 .1.1 0 0 1 .026.076v.512a.3.3 0 0 1-.026.108.3.3 0 0 1-.061.077l-.553.317v2.483a.3.3 0 0 1-.026.108.15.15 0 0 1-.061.072l-.41.235h-.061a.1.1 0 0 1 0-.077v-2.483l-.553.318a.06.06 0 0 1-.062 0 .1.1 0 0 1 0-.077v-.512a.3.3 0 0 1 0-.108.2.2 0 0 1 .062-.071zM114.154 126.54a.1.1 0 0 1 .049-.016q.026 0 .048.016a.2.2 0 0 1 .046.082l.687 2.652v.067a.2.2 0 0 1 0 .087.15.15 0 0 1-.052.056l-.394.23q-.062.039-.092 0a.12.12 0 0 1-.031-.061l-.087-.348-.834.481-.093.451a.3.3 0 0 1-.03.102.23.23 0 0 1-.092.092l-.395.231a.04.04 0 0 1-.023.008.04.04 0 0 1-.023-.008.08.08 0 0 1 0-.062.3.3 0 0 1 0-.082l.686-3.446a.5.5 0 0 1 .046-.133.24.24 0 0 1 .093-.107zm-.512 2.411.512-.291-.256-1.024zM116.791 127.635q.005-.006.013-.01l.015-.003q.009 0 .016.003l.012.01a.1.1 0 0 1 .026.077v.512a.3.3 0 0 1-.026.108.14.14 0 0 1-.056.071l-1.459.871-.013.01-.015.003-.016-.003-.012-.01a.09.09 0 0 1-.026-.077v-3.123a.2.2 0 0 1 .026-.108.2.2 0 0 1 .056-.077l.415-.235a.04.04 0 0 1 .028-.011q.016 0 .028.011a.09.09 0 0 1 0 .077v2.483zM123.386 121.143a.5.5 0 0 1 .271 0c.073.014.141.05.194.102a.5.5 0 0 1 .118.185q.044.106.051.22a.2.2 0 0 1 0 .107.12.12 0 0 1-.061.072l-.22.128h-.082a.2.2 0 0 1-.046-.056.27.27 0 0 0-.144-.128.4.4 0 0 0-.286.077.76.76 0 0 0-.282.266.8.8 0 0 0-.087.174.6.6 0 0 0-.031.184.3.3 0 0 0 .031.159.14.14 0 0 0 .113.056.6.6 0 0 0 .199 0l.292-.066q.159-.042.323-.036c.079.001.155.03.215.082a.4.4 0 0 1 .118.2q.04.163.035.332 0 .196-.046.384-.047.195-.138.374a1.8 1.8 0 0 1-.22.343 1.7 1.7 0 0 1-.292.292v.328a.2.2 0 0 1-.025.107.17.17 0 0 1-.057.072l-.256.148a.05.05 0 0 1-.031.011.05.05 0 0 1-.03-.011.1.1 0 0 1-.026-.076v-.328a.7.7 0 0 1-.266.036.4.4 0 0 1-.215-.072.43.43 0 0 1-.149-.179.75.75 0 0 1-.061-.302.2.2 0 0 1 0-.108.2.2 0 0 1 .061-.071l.221-.128c.035 0 .061-.026.081 0s.036.025.047.056a.5.5 0 0 0 .056.097q.03.046.082.062.066.015.133 0a.7.7 0 0 0 .2-.087q.098-.053.184-.123a.9.9 0 0 0 .261-.354.56.56 0 0 0 .033-.288.2.2 0 0 0-.038-.07.2.2 0 0 0-.063-.032.2.2 0 0 0-.07-.004.8.8 0 0 0-.22.036l-.308.061a.7.7 0 0 1-.271 0 .3.3 0 0 1-.194-.082.44.44 0 0 1-.118-.204 1.3 1.3 0 0 1-.036-.354q0-.192.046-.378.049-.19.133-.364.078-.177.2-.328.111-.147.251-.271v-.328a.3.3 0 0 1 .025-.107.15.15 0 0 1 .062-.072l.256-.148a.04.04 0 0 1 .028-.01q.016 0 .028.01.016.014.022.035a.1.1 0 0 1 .004.041zM125.572 119.884a.6.6 0 0 1 .271 0 .5.5 0 0 1 .195.102.5.5 0 0 1 .117.19.5.5 0 0 1 .047.22.2.2 0 0 1 0 .107.2.2 0 0 1-.062.072l-.22.128c-.036 0-.062.026-.082 0a.14.14 0 0 1-.046-.056.24.24 0 0 0-.143-.128c-.067 0-.159 0-.287.071a.84.84 0 0 0-.282.272.6.6 0 0 0-.087.174.5.5 0 0 0-.031.179.34.34 0 0 0 .031.164q.021.025.051.04t.062.016a.7.7 0 0 0 .2 0l.291-.066a.9.9 0 0 1 .318-.036.36.36 0 0 1 .215.076q.091.085.123.205.036.164.036.333 0 .193-.052.379a1.82 1.82 0 0 1-.645 1.009v.307a.25.25 0 0 1-.025.107.16.16 0 0 1-.062.077l-.251.143h-.061a.13.13 0 0 1 0-.081v-.328a.7.7 0 0 1-.266.041.418.418 0 0 1-.364-.256.7.7 0 0 1-.066-.297.2.2 0 0 1 .025-.108.1.1 0 0 1 .024-.042.1.1 0 0 1 .038-.029l.22-.128a.1.1 0 0 1 .082 0 .1.1 0 0 1 .029.026q.012.015.017.035a.3.3 0 0 0 .056.097q.034.042.082.062.067.015.133 0a.6.6 0 0 0 .2-.082q.097-.056.184-.128a.9.9 0 0 0 .261-.348.6.6 0 0 0 .034-.289.2.2 0 0 0-.039-.07.2.2 0 0 0-.062-.034q-.035-.01-.071-.007a2 2 0 0 0-.22.036l-.307.067a.9.9 0 0 1-.272 0 .36.36 0 0 1-.199-.082.45.45 0 0 1-.113-.21 1.3 1.3 0 0 1-.036-.353 1.5 1.5 0 0 1 .021-.379 1.8 1.8 0 0 1 .128-.364q.083-.173.199-.327.113-.15.256-.272v-.327a.3.3 0 0 1 0-.108.126.126 0 0 1 .062-.072l.251-.148h.061a.11.11 0 0 1 .026.077zM127.758 118.624a.5.5 0 0 1 .271 0 .4.4 0 0 1 .195.103.5.5 0 0 1 .118.184 1 1 0 0 1 .046.225.24.24 0 0 1-.021.099.3.3 0 0 1-.061.081l-.22.122c-.036.026-.067.026-.082 0a.1.1 0 0 1-.051-.056.261.261 0 0 0-.144-.128.4.4 0 0 0-.281.077.8.8 0 0 0-.159.118q-.07.069-.128.148a1 1 0 0 0-.087.174.6.6 0 0 0-.031.185q-.004.084.036.158a.13.13 0 0 0 .113.057.7.7 0 0 0 .199 0l.292-.072q.157-.042.318-.036a.37.37 0 0 1 .215.082.35.35 0 0 1 .117.205q.042.164.036.333 0 .191-.046.379a1.7 1.7 0 0 1-.138.373 1.6 1.6 0 0 1-.215.343 2 2 0 0 1-.292.292v.328a.3.3 0 0 1-.049.149.1.1 0 0 1-.038.03l-.256.149a.04.04 0 0 1-.028.011.04.04 0 0 1-.028-.011.1.1 0 0 1-.026-.077v-.328a.6.6 0 0 1-.266.036.43.43 0 0 1-.215-.067.45.45 0 0 1-.154-.184.8.8 0 0 1-.061-.302.2.2 0 0 1 .025-.108.17.17 0 0 1 .062-.071l.22-.128h.082a.13.13 0 0 1 .046.061 1 1 0 0 0 .051.092.16.16 0 0 0 .087.062q.067.02.133 0a.7.7 0 0 0 .2-.082l.184-.128q.085-.075.154-.164.061-.088.108-.184a.6.6 0 0 0 .04-.21.2.2 0 0 0-.046-.154.2.2 0 0 0-.062-.031.2.2 0 0 0-.071-.005 1 1 0 0 0-.22.036l-.307.062a1 1 0 0 1-.277.025.32.32 0 0 1-.194-.087.43.43 0 0 1-.113-.205 1.4 1.4 0 0 1-.041-.353q0-.192.051-.379a1.85 1.85 0 0 1 .584-.962v-.369a.3.3 0 0 1 .026-.108.2.2 0 0 1 .056-.071l.256-.149a.06.06 0 0 1 .031-.01q.017 0 .031.01a.1.1 0 0 1 .025.077zM129.944 117.359a.5.5 0 0 1 .267 0 .35.35 0 0 1 .194.103.46.46 0 0 1 .123.184.8.8 0 0 1 .046.22.2.2 0 0 1-.025.108.12.12 0 0 1-.062.071l-.22.128q-.056.031-.077 0a.13.13 0 0 1-.051-.056.24.24 0 0 0-.143-.128.354.354 0 0 0-.282.072 1 1 0 0 0-.159.118.9.9 0 0 0-.215.327.6.6 0 0 0-.03.179.28.28 0 0 0 .035.164q.02.028.05.043a.2.2 0 0 0 .063.014.6.6 0 0 0 .195 0l.297-.067a1 1 0 0 1 .317-.036.37.37 0 0 1 .215.077c.059.055.1.126.118.205q.04.164.036.333a1.7 1.7 0 0 1-.046.384 1.957 1.957 0 0 1-.354.716 1.7 1.7 0 0 1-.292.287v.333a.3.3 0 0 1-.025.107.3.3 0 0 1-.062.072l-.256.149a.05.05 0 0 1-.028.009.05.05 0 0 1-.028-.009.1.1 0 0 1-.022-.036.1.1 0 0 1-.004-.041v-.333a.65.65 0 0 1-.266.041.45.45 0 0 1-.22-.072.46.46 0 0 1-.148-.179.8.8 0 0 1-.062-.302.17.17 0 0 1 .026-.108.1.1 0 0 1 .023-.042.1.1 0 0 1 .038-.029l.22-.128a.1.1 0 0 1 .039-.011q.02 0 .038.011s.036 0 .051.056a.3.3 0 0 0 .052.097.15.15 0 0 0 .087.062q.066.015.133 0a.6.6 0 0 0 .199-.082q.097-.054.18-.128a1 1 0 0 0 .158-.159 1 1 0 0 0 .103-.189.5.5 0 0 0 .041-.21.23.23 0 0 0-.041-.149.2.2 0 0 0-.133-.041 2 2 0 0 0-.226.036q-.149.042-.302.067a1 1 0 0 1-.276 0 .33.33 0 0 1-.195-.082.4.4 0 0 1-.112-.21 1.3 1.3 0 0 1-.041-.353q0-.19.046-.374.05-.188.133-.364.083-.173.199-.327.114-.149.256-.272v-.327a.2.2 0 0 1 .026-.108.14.14 0 0 1 .056-.072l.256-.148a.05.05 0 0 1 .031-.012q.017 0 .031.012a.1.1 0 0 1 .025.077z" style="fill:#fafafa;fill:color(display-p3 .9804 .9804 .9804);fill-opacity:1"/><path fill="#455A64" d="M88.452 140.102a.2.2 0 0 1-.113-.028.2.2 0 0 1-.082-.084.226.226 0 0 1 .082-.307l11.034-6.37a.218.218 0 0 1 .171-.024.21.21 0 0 1 .136.106.226.226 0 0 1-.082.307l-11.033 6.375a.2.2 0 0 1-.113.025M88.452 142.228a.227.227 0 0 1-.207-.311.23.23 0 0 1 .094-.109l11.034-6.39a.2.2 0 0 1 .083-.032.22.22 0 0 1 .168.045.2.2 0 0 1 .056.069.224.224 0 0 1-.082.307l-11.034 6.369a.2.2 0 0 1-.112.052M88.452 144.352a.22.22 0 0 1-.195-.112.23.23 0 0 1 .082-.313l11.034-6.369a.226.226 0 0 1 .307.082.23.23 0 0 1-.082.312l-11.034 6.369a.2.2 0 0 1-.112.031" style="fill:#455a64;fill:color(display-p3 .2706 .3529 .3922);fill-opacity:1"/><path fill="#263238" d="M206.153 173.53s2.186.407 3.407 2.03 3.904 6.466 4.44 7.011c-.32.519-.757.957-1.274 1.279l-1.453-1.717c-.363-.313-.953-1.087-.962-.094s.099 1.918.206 3.841c.063 1.167.447 3.479-1.605 5.678-1.923 2.057-4.212 3.43-5.612 3.6-.836.098-2.709-.116-2.584-1.789.071-.894 1.194-4.198 1.368-5.812s4.069-14.027 4.069-14.027" style="fill:#263238;fill:color(display-p3 .149 .1961 .2196);fill-opacity:1"/><path fill="#FFBDA7" d="M206.484 173.995c-.273-.362-1.122-1.878-1.534-2.58s-2.106-4.408-4.194-10.096c-2.683-7.324-7.31-12.783-8.719-15.542a57.5 57.5 0 0 1-3.921-9.39l-5.996 3.819-7.758-.313c-.103 1.149.336 2.682 1.163 4.502l.022.045c.076.165.157.335.237.501 1.654 3.438 4.516 7.601 7.718 11.835l.08.103.112.148c3.085 4.086 6.483 8.245 9.452 11.849v-.085c3.188 3.858 5.764 6.993 6.676 8.553 2.66 4.574 2.235 8.987 2.213 11.397-.022 1.503 1.149 1.816 2.75.537a9.65 9.65 0 0 0 3.577-7.154c.138-5.799-.309-6.032-1.878-8.129" style="fill:#ffbda7;fill:color(display-p3 1 .7412 .6549);fill-opacity:1"/><path fill="#455A64" d="M174.398 97.496c-.608 4.673-1.207 9.014-1.73 21.391-.447 10.404-.895 15.98-.112 21.113.277 1.829 1.221 3.966 3.005 6.649 5.58 8.415 16.517 21.623 16.517 21.623s2.441-.08 5.365-2.558a8.61 8.61 0 0 0 2.906-5.87s-.313-1.936-4.918-9.699c-4.605-7.762-5.303-16.23-5.303-16.23l2.508-33.28c-7.006.751-14.938-.478-18.238-3.139" style="fill:#455a64;fill:color(display-p3 .2706 .3529 .3922);fill-opacity:1"/><path fill="#37474F" d="M197.443 165.714a8.62 8.62 0 0 0 2.906-5.87s-.313-1.936-4.918-9.699c-4.606-7.762-5.303-16.23-5.303-16.23l1.923-25.487c-5.496-.787-13.146-.594-13.146-.594-.098 3.644.742 8.137 5.857 10.771 0 0-.706 17.912-.755 23.148-.036 3.997 1.22 14.147 1.82 18.739a459 459 0 0 0 6.259 7.771s2.433-.071 5.357-2.549" style="fill:#37474f;fill:color(display-p3 .2157 .2784 .3098);fill-opacity:1"/><path fill="#263238" d="M196.361 184.096a6.7 6.7 0 0 1 1.753 3.823c.143 2.182-.246 8.133-.094 8.942a3.8 3.8 0 0 1-1.766.416l-.282-2.406c-.134-.491-.076-.894-.622 0-.545.895-1.001 1.896-1.851 3.197-.675 1.029-1.627 3.466-4.547 4.257-2.732.738-5.88.385-7.154-.282-.756-.398-2.111-1.028-1.1-2.454.541-.76 3.577-3.81 4.596-5.16s11.067-10.333 11.067-10.333" style="fill:#263238;fill:color(display-p3 .149 .1961 .2196);fill-opacity:1"/><path fill="#FFBDA7" d="M188.988 183.863c.259-5.691-4.534-31.844-2.826-44.046l15.292.152a66 66 0 0 0-1.816 10.771c-.321 3.318.582 10.955-1.153 19.151-1.341 6.367-1.936 10.731-1.976 11.589s-.152 2.741-.121 3.229c.183 2.816-.282 4.408-3.465 8.799-.617.85-2.111 3.604-6.26 4.051-2.039.224-2.853-.738-2.012-2.088 1.332-2.16 4.078-5.916 4.337-11.608" style="fill:#ffbda7;fill:color(display-p3 1 .7412 .6549);fill-opacity:1"/><path fill="#F0997A" d="M199.638 150.74c-.058 1.292 0 2.58.032 3.872.031 1.292.067 2.584.071 3.881a62 62 0 0 1-.447 7.758c-.161 1.287-.403 2.562-.662 3.827l-.787 3.783a134 134 0 0 0-.724 3.796 73 73 0 0 0-.613 3.823 75 75 0 0 1 1.042-7.682c.447-2.553 1.069-5.052 1.342-7.601.178-1.27.286-2.558.38-3.841.093-1.283.116-2.575.156-3.863s.031-2.58.036-3.872.027-2.598.174-3.881" style="fill:#f0997a;fill:color(display-p3 .9412 .6 .4784);fill-opacity:1"/><path fill="#455A64" d="M174.398 97.496s1.766 6.027 3.738 11.482c1.712 4.74 4.918 7.378 8.263 8.442 0 0-.827 21.422-1.087 24.404-.259 2.983.577 13.772 1.293 20.868.715 7.096.943 9.524.943 9.524s1.489 1.578 5.607 1.596 5.401-1.757 5.401-1.757 2.5-8.254 2.522-14.706c0-3.694-.796-5.518-.161-9.189s5.451-20.058 6.202-27.802c.751-7.745-.613-14.518-6.045-22.357-5.683 3.962-21.409 3.206-26.676-.505" style="fill:#455a64;fill:color(display-p3 .2706 .3529 .3922);fill-opacity:1"/><path fill="#37474F" d="M198.74 99.244c2.942 4.065 7.212 12.48 4.417 24.673q-1.194 5.205-2.356 10.051c-1.789 7.579-3.22 13.566-3.389 15.847-.058 1.283.02 2.569.232 3.836.449 2.991.488 6.03.116 9.032-.447 3.894-1.162 7.995-1.667 10.767.169-.049.335-.099.487-.157.505-2.772 1.176-6.76 1.632-10.556.378-3.04.338-6.116-.121-9.144a18.5 18.5 0 0 1-.228-3.743c.17-2.235 1.587-8.218 3.38-15.774.77-3.242 1.561-6.587 2.357-10.056 2.812-12.283-1.444-20.796-4.431-24.959z" style="fill:#37474f;fill:color(display-p3 .2157 .2784 .3098);fill-opacity:1"/><path fill="#37474F" d="M174.286 96.2a39.5 39.5 0 0 0 14.147 3.022c8.63.094 12.726-2.602 12.726-2.602.044.974.33 1.922.831 2.758 0 0-4.954 2.974-13.53 2.719s-14.272-3.188-14.272-3.188c.119-.898.152-1.806.098-2.71" style="fill:#37474f;fill:color(display-p3 .2157 .2784 .3098);fill-opacity:1"/><path fill="#F7921E" d="M182.782 69.605c-3.577.643-5.285 1.757-7.973 6.067s-10.82 15.761-10.82 15.761 1.833 4.637 8.495 5.84c3.13-4.471 9.269-13.271 9.269-13.271z" style="fill:#f7921e;fill:color(display-p3 .9686 .5725 .1176);fill-opacity:1"/><path fill="#000" d="M182.782 69.605c-3.577.643-5.285 1.757-7.973 6.067s-10.82 15.761-10.82 15.761 1.833 4.637 8.495 5.84c3.13-4.471 9.269-13.271 9.269-13.271z" opacity=".3" style="fill:#000;fill-opacity:1"/><path fill="#FAFAFA" d="M202.285 95.117c0 .926 2.352 5.576 3.64 10.593-7.718 9.948-30.566 4.52-32.238-1.078.357-6.653.666-23.452 2.124-26.492a22.44 22.44 0 0 1 6.997-8.335c1.61-.313 3.238-.53 4.874-.648a28.5 28.5 0 0 1 7.306.188c2.164.33 5.719 1.27 5.719 1.27 1.341 1.144 5.11 5.969 4.238 11.781-.397 2.67-2.669 6.153-2.66 12.721" style="fill:#fafafa;fill:color(display-p3 .9804 .9804 .9804);fill-opacity:1"/><path fill="#F7921E" d="m195.824 69.005-.031.819s-3.228 8.209-3.336 14.867c-.107 6.657 2.044 32.68 2.044 32.68s5.455-.702 8.495-2.119l.21-6.296 1.413 5.701s1.838-.577 2.782-1.94c0-2.464-.631-7.602-2.782-13.052s-2.235-6.448-.733-11.849 2.728-7.914.944-11.795-3.873-5.63-3.873-5.63zM186.721 69.005l-.027.962a68 68 0 0 0-5.616 6.707c-2.66 3.662-2.607 5.128-3.689 10.825s-1.484 24.699-1.484 24.699a28 28 0 0 1-3.238-1.091s.676-11.178.922-15.023c.245-3.846.599-12.627 1.167-15.15.567-2.521.406-3.093 2.579-6.053 1.561-2 3.394-3.772 5.447-5.263z" style="fill:#f7921e;fill:color(display-p3 .9686 .5725 .1176);fill-opacity:1"/><path fill="#FFBDA7" d="M182.634 101.109c-.215-.626-2.079-1.789-2.486-3.063-.237-.747.255-1.829 1.051-1.087 1.667 1.561 2.888 1.789 3.984 2.55" style="fill:#ffbda7;fill:color(display-p3 1 .7412 .6549);fill-opacity:1"/><path fill="#FAFAFA" d="M140.537 89.403c-.411 1.404.711 4.328 2.54 4.87a8.3 8.3 0 0 0-1.431 2.785c-.599 2.034.769 4.65 3.577 5.477l21.498 6.309 3.08.948 7.155-24.377-3.099-.894s-3.34-10.445-3.488-12.015c-.147-1.57 2.236-7.6 2.562-8.71.327-1.109-4.882-3.13-7.766.447s-4.024 6.909-4.15 10.99l-12.993-3.822c-2.746-.805-4.61 1.395-5.066 2.937a4.57 4.57 0 0 0 .993 4.414 3.786 3.786 0 0 0-3.676 2.888 4.26 4.26 0 0 0 2.003 4.865s-1.118.782-1.739 2.888" style="fill:#fafafa;fill:color(display-p3 .9804 .9804 .9804);fill-opacity:1"/><path fill="#E0E0E0" d="M172.945 63.827c.331-1.127-4.883-3.13-7.767.447s-4.024 6.908-4.149 10.99l.161.224 2.311.653c1.959-12.56 6.967-12.976 9.444-12.314" style="fill:#e0e0e0;fill:color(display-p3 .8784 .8784 .8784);fill-opacity:1"/><path fill="#F7921E" d="m168.839 113.047 9.369 2.756 8.319-28.286-9.368-2.755z" style="fill:#f7921e;fill:color(display-p3 .9686 .5725 .1176);fill-opacity:1"/><path fill="#000" d="m168.839 113.047 9.369 2.756 8.319-28.286-9.368-2.755z" opacity=".2" style="fill:#000;fill-opacity:1"/><path fill="#E0E0E0" d="M142.29 86.56s-1.132.738-1.749 2.844a2 2 0 0 0-.067.34c-.178 1.484.895 4.024 2.603 4.529a8.3 8.3 0 0 0-1.431 2.785 3.6 3.6 0 0 0-.121.626c-.192 1.914 1.172 4.11 3.698 4.852l4.319 1.27c-2.531-.743-3.89-2.938-3.702-4.852q.033-.32.121-.63a8.3 8.3 0 0 1 1.43-2.781c-1.69-.501-2.781-3.045-2.602-4.534q.019-.171.067-.335c.617-2.107 1.753-2.844 1.753-2.844a4.26 4.26 0 0 1-2.008-4.865l.027-.067a3.77 3.77 0 0 1 3.649-2.821 4.59 4.59 0 0 1-.899-4.69c.586-1.512 2.392-3.417 4.972-2.661l-4.315-1.266c-2.584-.76-4.391 1.145-4.972 2.656a4.578 4.578 0 0 0 .899 4.69 3.776 3.776 0 0 0-3.653 2.822l-.022.067a4.254 4.254 0 0 0 2.003 4.865" style="fill:#e0e0e0;fill:color(display-p3 .8784 .8784 .8784);fill-opacity:1"/><path fill="#455A64" d="m166.671 109.023-21.493-6.327a5.47 5.47 0 0 1-3.166-2.347 4.17 4.17 0 0 1-.527-3.331 8.6 8.6 0 0 1 1.314-2.656 4.08 4.08 0 0 1-1.985-2.12 4.47 4.47 0 0 1-.447-2.88 5.8 5.8 0 0 1 1.614-2.771 4.47 4.47 0 0 1-1.864-4.919 3.96 3.96 0 0 1 3.483-2.995 4.73 4.73 0 0 1-.801-4.306 4.92 4.92 0 0 1 1.735-2.442 3.9 3.9 0 0 1 3.537-.612l12.788 3.76c.174-4.203 1.431-7.467 4.176-10.874 2.048-2.544 5.419-2.406 7.154-1.498.693.362 1.024.796.894 1.19-.08.277-.281.836-.532 1.542-.746 2.08-2.133 5.951-2.021 7.105.139 1.457 3.13 10.888 3.452 11.894l3.175.894-7.244 24.686zm7.065-24.324-.027-.085c-.138-.447-3.349-10.48-3.496-12.072-.117-1.23 1.234-4.999 2.039-7.248.255-.706.447-1.26.532-1.525s-.237-.532-.743-.796c-1.636-.854-4.802-.979-6.733 1.413-2.746 3.403-3.975 6.663-4.109 10.888v.219l-13.204-3.881a3.58 3.58 0 0 0-3.242.559 4.6 4.6 0 0 0-1.614 2.262 4.41 4.41 0 0 0 .957 4.252l.277.3h-.411a3.58 3.58 0 0 0-3.506 2.768 4.11 4.11 0 0 0 1.923 4.668l.25.134-.237.156s-1.091.738-1.681 2.75a4.13 4.13 0 0 0 .421 2.638c.491 1.055 1.225 1.789 2.003 2.017l.246.076-.166.197a8.3 8.3 0 0 0-1.399 2.723 3.85 3.85 0 0 0 .496 3.058 5.13 5.13 0 0 0 2.969 2.213l21.498 6.323 2.915.894 7.06-24.051z" style="fill:#455a64;fill:color(display-p3 .2706 .3529 .3922);fill-opacity:1"/><path fill="#000" d="m168.841 113.046 9.369 2.756 4.159-14.143-9.368-2.756z" opacity=".2" style="fill:#000;fill-opacity:1"/><path fill="#F0F0F0" d="M175.963 111.169a1.414 1.414 0 1 0-2.761-.249 1.41 1.41 0 0 0 1.004 1.206 1.42 1.42 0 0 0 1.076-.115c.329-.18.574-.482.681-.842" style="fill:#f0f0f0;fill:color(display-p3 .9412 .9412 .9412);fill-opacity:1"/><path fill="#FFBDA7" d="M185.183 99.509c1.1.773 2.235 1.041 4.404 1.14 2.316.102 11.487-3.662 11.487-3.662l-1.691-12.202s-1.94-9.22 1.623-14.103c5.675 1.207 6.122 2.88 6.828 5.24.541 1.789 1.167 4.163 1.985 12.073.738 7.073.814 8.942.738 12.497-.071 3.085-2.531 4.073-6.801 5.066s-7.015 1.342-13.083 2.236c-2.915.447-4.569.232-7.1.174a9.2 9.2 0 0 1-2.83-.411 5.44 5.44 0 0 1-2.236-1.306 1.6 1.6 0 0 0-.353-.322 4 4 0 0 0-.447-.192 3.2 3.2 0 0 1-.819-.385 5 5 0 0 1-.643-.71 3 3 0 0 0-.287-.331 2.5 2.5 0 0 0-.375-.269 3.4 3.4 0 0 1-.962-.702.6.6 0 0 1-.102-.594s-.479-.193-.64-.269a3.5 3.5 0 0 1-.626-.384.3.3 0 0 1-.108-.097.3.3 0 0 1-.053-.136q0-.089.054-.161c.447-.787 1.386-.782 2.186-.711 2.08.184 3.349.734 5.451.689 1.145-.027 1.453-.054 1.766-.273a.23.23 0 0 0 .101-.13.24.24 0 0 0-.012-.165" style="fill:#ffbda7;fill:color(display-p3 1 .7412 .6549);fill-opacity:1"/><path fill="#F0997A" d="M201.074 96.986a23.8 23.8 0 0 1 4.596-1.726s-1.449-.568-4.713.895zM174.59 102.83c.474.215.971.385 1.462.555.492.169.993.317 1.485.478.246.08.492.17.747.241q.381.108.764.175a15 15 0 0 0 1.547.232l-.755-.188q-.382-.087-.756-.187c-.25-.067-.505-.13-.751-.21-.246-.081-.488-.166-.738-.246-.496-.161-.997-.304-1.498-.448zM175.905 104.266q.498.355 1.055.612a16 16 0 0 0 2.267.809q.578.168 1.176.255c-.38-.125-.752-.268-1.132-.398l-1.126-.402-1.127-.407a15 15 0 0 1-1.113-.469" style="fill:#f0997a;fill:color(display-p3 .9412 .6 .4784);fill-opacity:1"/><path fill="#F7921E" d="M200.957 70.391c3.895 1.002 5.63 1.681 6.444 3.604.813 1.923 1.211 3.13 2.092 8.321a138 138 0 0 1 1.48 17.201c-.04 2.839.277 4.024-2.884 5.2s-10.32 2.2-10.32 2.2a12.8 12.8 0 0 0-.12-3.917 14 14 0 0 0-1.722-4.203l4.802-1.918s-1.681-10.883-1.918-12.801-.903-9.61 2.146-13.687" style="fill:#f7921e;fill:color(display-p3 .9686 .5725 .1176);fill-opacity:1"/><path fill="#000" d="M200.957 70.391c3.895 1.002 5.63 1.681 6.444 3.604.813 1.923 1.211 3.13 2.092 8.321a138 138 0 0 1 1.48 17.201c-.04 2.839.277 4.024-2.884 5.2s-10.32 2.2-10.32 2.2a12.8 12.8 0 0 0-.12-3.917 14 14 0 0 0-1.722-4.203l4.802-1.918s-1.681-10.883-1.918-12.801-.903-9.61 2.146-13.687" opacity=".3" style="fill:#000;fill-opacity:1"/><path fill="#37474F" d="m180.962 57.872-.711-.22c-3.188-1.712-3.027-5.866-2.236-8.048 1.73-4.833 6.957-6.644 10.19-6.823 6.135-.335 9.131 1.248 9.761 4.427.832-.072 1.976.599 2.683 1.538 1.507 2.052 3.304 9.206-4.65 16.754z" style="fill:#37474f;fill:color(display-p3 .2157 .2784 .3098);fill-opacity:1"/><path fill="#FFBDA7" d="M197.443 63.125c1.109.161 1.967-.42 2.606-1.18 1.422-1.695 1.494-3.363.761-4.445-.609-.894-2.035-1.413-2.992-.76-1.024.702-1.037 1.238-1.404 1.999-.366.76-1.909.755-2.392-2.236-.447-2.79-.326-5.714-1.744-6.926-2.124-1.788-4.775-1.185-5.544-.036a2.775 2.775 0 0 0-3.819-.8c-1.341.791-2.351 2.933-2.624 8.267-.282 5.437 1.122 8.764 2.401 9.627.97.657 2.039.925 4.073.939l-.071 2.388s-2.755 5.204-2.567 9.836c0 0 1.122-.773 6.175-5.19l5.491-4.799.286-7.498a1.75 1.75 0 0 0 1.364.814" style="fill:#ffbda7;fill:color(display-p3 1 .7412 .6549);fill-opacity:1"/><path fill="#263238" d="m181.708 54.393 1.999-.764a1.02 1.02 0 0 0-.534-.607 1.02 1.02 0 0 0-.807-.033 1.12 1.12 0 0 0-.658 1.404M189.126 53.615l1.981 1.154a1.1 1.1 0 0 0-.376-1.552 1.2 1.2 0 0 0-1.605.398" style="fill:#263238;fill:color(display-p3 .149 .1961 .2196);fill-opacity:1"/><path fill="#37474F" d="M191.787 49.944c.478.608.831 1.22.755 3.403-.027.894.041 3.031.649 4.297.532 1.108 1.086 1.788 2.267 1.971a4.35 4.35 0 0 0 2.128-.214c.416-.193 1.592-1.02 1.449-2.236-.242.26-.536.468-.863.608a2.6 2.6 0 0 1-.778.188 2.38 2.38 0 0 1-2.008-1.113c-.791-1.176-.742-2.76-.984-4.11-.308-1.707-.603-3.652-2.15-4.502-1.825-1.002-5.124-.554-5.518 1.31a3.623 3.623 0 0 1 5.053.398" style="fill:#37474f;fill:color(display-p3 .2157 .2784 .3098);fill-opacity:1"/><path fill="#B16668" d="m189.042 61.61-2.987.827a1.55 1.55 0 0 0 1.418 1.133c.216.01.432-.024.634-.1a1.45 1.45 0 0 0 1.01-1.29 1.5 1.5 0 0 0-.075-.57" style="fill:#b16668;fill:color(display-p3 .6941 .4 .4078);fill-opacity:1"/><path fill="#F0997A" d="M187.253 63.523a1.627 1.627 0 0 1 1.69-1.381q.077.01.152.026a1.37 1.37 0 0 1-.988 1.302 1.8 1.8 0 0 1-.854.053M186.73 55.09l-.626 5.321-2.889-1.122zM186.765 67.579c1.97-.132 3.907-.57 5.742-1.297.666-.295 1.556-1.52 2.275-2.88 0 0-.487 2.683-1.922 3.604-2.187 1.422-6.126 1.757-6.126 1.757z" style="fill:#f0997a;fill:color(display-p3 .9412 .6 .4784);fill-opacity:1"/><path fill="#263238" d="M182.209 55.985c-.156.447.143.581.564.733s.795.241.952-.192a.8.8 0 0 0-.023-.622.806.806 0 0 0-1.493.08" style="fill:#263238;fill:color(display-p3 .149 .1961 .2196);fill-opacity:1"/><path fill="#263238" d="M183.645 55.636a2 2 0 0 0-.6-.224 1.7 1.7 0 0 0-.626-.04 1.9 1.9 0 0 0-.639.18s-.027.053 0 .048c.174 0 .322-.04.572-.049q.355.003.698.094.417.096.791.304c.081.04.237.13.255.143.018.014.045-.045.031-.062a1.34 1.34 0 0 0-.482-.394M190.334 56.28c.098.447-.224.554-.658.644-.433.09-.822.138-.921-.318a.81.81 0 0 1 .337-.83.804.804 0 0 1 1.242.504" style="fill:#263238;fill:color(display-p3 .149 .1961 .2196);fill-opacity:1"/><path fill="#263238" d="M188.956 55.734q.303-.118.626-.143c.21-.02.422-.006.626.045q.326.083.608.264s.023.058 0 .053c-.165-.04-.313-.089-.558-.13a2.8 2.8 0 0 0-.702 0q-.427.038-.823.193l-.273.107c-.027 0-.04-.049-.027-.067a1.4 1.4 0 0 1 .523-.322" style="fill:#263238;fill:color(display-p3 .149 .1961 .2196);fill-opacity:1"/><path fill="#FFBDA7" d="M154.684 106.479c-1.252 0-1.319-.143-1.507-.764a3.205 3.205 0 0 1 .447-2.893c.546-.707 1.06-1.445 1.525-1.677.465-.233 1.015.653.541 1.748-.742 1.726-.331 2.008-.331 2.008q.47-1.108 1.055-2.16c.367-.572 1.342-1.381 1.91-1.936s1.448-.094.956 1.172l1.015-1.015c.711-.711 1.342-.671 1.378.317.022.329-.068.655-.255.926 0 0 .621-.854.916-.667.854.541.684 1.226-.071 3.318-.64 1.789-.394 2.683.313 2.96l.447.134s-.867.385-1.708.68c-.613.214-1.216.335-1.748-.349 0 0-.667.957-1.288.59a3.7 3.7 0 0 1-1.087-1.135 1.26 1.26 0 0 1-1.341-.179 2.07 2.07 0 0 1-.774-1.087z" style="fill:#ffbda7;fill:color(display-p3 1 .7412 .6549);fill-opacity:1"/><path fill="#F0997A" d="M159.285 101.977a6.4 6.4 0 0 0-.868.956c-.202.39-.343.81-.415 1.243-.185.83-.3 1.674-.345 2.522q.461-1.19.711-2.441.098-.607.304-1.185c.197-.349.429-.711.613-1.095M161.422 102.204a2.85 2.85 0 0 0-.854 1.105 7.4 7.4 0 0 0-.447 1.319 13 13 0 0 0-.376 2.723 26 26 0 0 0 .738-2.634 7.2 7.2 0 0 1 .939-2.513" style="fill:#f0997a;fill:color(display-p3 .9412 .6 .4784);fill-opacity:1"/><path fill="#AD6615" d="M75.357 178.317c-.776-.448-.78-1.172 0-1.629l39.792-23.122 51.787 29.899-39.921 23.051a3.12 3.12 0 0 1-2.819 0l-29.59-17.078-4.952.932a1.34 1.34 0 0 1-.922-.155l-12.276-7.073a1.34 1.34 0 0 1-.654-1.403c.032-.181.101-.353.203-.507l1.297-1.784z" style="fill:#ad6615;fill:color(display-p3 .6784 .4 .0824);fill-opacity:1"/><path fill="#AD6615" d="M75.357 178.317c-.776-.448-.78-1.172 0-1.629l39.792-23.122 51.787 29.899-39.921 23.051a3.12 3.12 0 0 1-2.819 0l-29.59-17.078-4.952.932a1.34 1.34 0 0 1-.922-.155l-12.276-7.073a1.34 1.34 0 0 1-.654-1.403c.032-.181.101-.353.203-.507l1.297-1.784z" opacity=".15" style="fill:#ad6615;fill:color(display-p3 .6784 .4 .0824);fill-opacity:1"/><path fill="#AD6615" d="m116.781 154.504 48.403 27.953-39.578 22.673-48.125-27.794z" style="fill:#ad6615;fill:color(display-p3 .6784 .4 .0824);fill-opacity:1"/><path fill="#AD6615" d="m166.994 183.5-36.036 20.719a3.02 3.02 0 0 1-2.742-.047l-48.837-28.196c-.779-.448-.811-1.157-.076-1.585l35.899-20.801z" style="fill:#ad6615;fill:color(display-p3 .6784 .4 .0824);fill-opacity:1"/></svg>