<svg xmlns="http://www.w3.org/2000/svg" width="256" height="256" fill="none"><path stroke="#D5D5D5" d="M233.483 170.395c0 16.366-11.683 31.283-30.789 42.136-19.091 10.844-45.498 17.568-74.694 17.568s-55.603-6.724-74.694-17.568c-19.106-10.853-30.789-25.77-30.789-42.136s11.683-31.283 30.789-42.136c19.09-10.844 45.498-17.568 74.694-17.568s55.603 6.724 74.694 17.568c19.106 10.853 30.789 25.77 30.789 42.136Z"/><path fill="#000" d="m136.578 147.559 28.539-16.477L201 151.799l-28.539 16.477z"/><path fill="#37474F" d="M165.117 131.083v-28.177L136 119.72l24.362 14.109z"/><path fill="#263238" d="M165.117 102.906v28.177l12.1 6.986 24.361-14.113zM136 119.721v27.507l36.461 21.049v-27.461z"/><path fill="#37474F" d="M172.461 140.817v27.461l29.117-16.81v-27.511z"/><path fill="#455A64" d="m172.461 140.814.574 26.413 21.145-11.492-21.719 12.541z"/><path fill="#E0E0E0" d="M175.94 159.444a.57.57 0 0 1-.295-.079.9.9 0 0 1-.374-.832v-2.604l.124.02 1.906-1.119v2.717a2.2 2.2 0 0 1-.936 1.777.85.85 0 0 1-.425.12m-.362-3.158v2.256a.626.626 0 0 0 .217.557.41.41 0 0 0 .416-.046 1.91 1.91 0 0 0 .786-1.51v-.2h-.707l-.137-.953zm.978.753h.441v-1.664l-1.14.67.57.104z"/><path fill="#E0E0E0" d="M176.285 161.384a.154.154 0 0 1-.154-.154v-2.043a.16.16 0 0 1 .154-.154.154.154 0 0 1 .154.154v2.043a.143.143 0 0 1-.044.11.14.14 0 0 1-.11.044"/><path fill="#E0E0E0" d="M175.398 161.895a.15.15 0 0 1-.076-.02.15.15 0 0 1-.057-.055.154.154 0 0 1 .054-.208l1.777-1.028a.156.156 0 0 1 .212.058.15.15 0 0 1-.058.208l-1.777 1.024a.13.13 0 0 1-.075.021M181.728 158.375a.3.3 0 0 1-.167-.042.411.411 0 0 1-.183-.366v-.416a.15.15 0 0 1 .004-.066.14.14 0 0 1 .083-.099.16.16 0 0 1 .13 0q.03.014.052.04a.15.15 0 0 1 .031.059.2.2 0 0 1 .004.066v.416a.1.1 0 0 0 .004.053.14.14 0 0 0 .025.047s.05 0 .1-.025a.886.886 0 0 0 .287-.691v-2.717a.2.2 0 0 1 .003-.066.2.2 0 0 1 .031-.059.158.158 0 0 1 .182-.04.15.15 0 0 1 .084.099.2.2 0 0 1 .004.066v2.717a1.18 1.18 0 0 1-.416.953.46.46 0 0 1-.258.071"/><path fill="#E0E0E0" d="M180.117 155.999v-.266a4.34 4.34 0 0 1 1.956-3.391 1.29 1.29 0 0 1 1.484-.133 1.29 1.29 0 0 1 .625 1.352v.091zm2.871-3.624c-.27.011-.533.093-.761.237a4.04 4.04 0 0 0-1.789 2.85l3.436-1.984a1.14 1.14 0 0 0-.47-.999.84.84 0 0 0-.416-.104M187.219 155.244a.16.16 0 0 1-.106-.046.16.16 0 0 1-.044-.108v-5.184a.2.2 0 0 1 .004-.066.15.15 0 0 1 .031-.059.14.14 0 0 1 .053-.04.14.14 0 0 1 .064-.014q.035 0 .065.014t.053.04a.2.2 0 0 1 .031.059.15.15 0 0 1 .003.066v5.205a.153.153 0 0 1-.154.133"/><path fill="#E0E0E0" d="M186.774 151.073a.2.2 0 0 1-.062 0 .153.153 0 0 1-.079-.2l.545-1.248.608.699a.16.16 0 0 1 .044.108c0 .041-.016.08-.044.108a.16.16 0 0 1-.217 0l-.287-.332-.349.811a.15.15 0 0 1-.072.05.15.15 0 0 1-.087.004M188.635 154.439a.15.15 0 0 1-.106-.047.15.15 0 0 1-.044-.107v-5.209a.2.2 0 0 1 .003-.067.2.2 0 0 1 .031-.058.16.16 0 0 1 .118-.055.2.2 0 0 1 .065.015q.03.014.052.04a.2.2 0 0 1 .031.058.2.2 0 0 1 .004.067v5.205a.156.156 0 0 1-.154.158"/><path fill="#E0E0E0" d="M188.189 150.264a.2.2 0 0 1-.062 0 .15.15 0 0 1-.08-.083.16.16 0 0 1 .001-.116l.545-1.249.608.674q.034.05.028.109a.16.16 0 0 1-.053.099.16.16 0 0 1-.106.037.16.16 0 0 1-.102-.045l-.288-.333-.349.812a.153.153 0 0 1-.142.095"/><path fill="#FAFAFA" d="m142.237 139.248 7.947 4.577a.8.8 0 0 1 .362.624v5.522c0 .457-.324.64-.715.416l-7.939-4.581a.8.8 0 0 1-.358-.62v-5.526c-.012-.453.312-.641.703-.412"/><path fill="#455A64" d="m142.042 140.105.27.159v4.876l-.27-.154zM143.14 140.742l.466.275v4.876l-.466-.274zM144.243 141.377l.27.154v4.876l-.27-.154zM145.071 141.848l.545.32-.004 4.877-.541-.321zM146.444 142.646l.27.159v4.876l-.27-.158zM147.234 143.096l.582.341v4.881l-.582-.346zM148.644 143.922l.27.154v4.876l-.27-.154zM149.273 144.273l.137.079v4.877l-.137-.075zM148.142 143.654l.137.075v4.881l-.137-.079zM145.928 142.357l.133.075v4.877l-.133-.075zM144.713 141.656l.133.079v4.877l-.133-.079zM143.839 141.174l.137.079v4.876l-.137-.079zM142.657 140.459l.133.079v4.877l-.133-.08zM149.747 144.553l.271.158v4.876l-.271-.158zM165.117 102.908 136 119.722l36.461 21.095 29.118-16.859z"/><path fill="#fff" d="m136 119.723 36.461 20.051 29.118-15.816-29.118 16.86z" opacity=".1"/><path fill="#F7921E" d="m148.083 112.743 36.482 21.062 4.485-2.593-36.482-21.062z"/><path fill="#F7921E" d="M189.05 131.209v5.7l-.541-.308-.565.974-.562-.333-.566.986-.562-.333-.566.97-.561-.32-.562.973v-5.713z"/><path fill="#000" d="M189.05 131.209v5.7l-.541-.308-.565.974-.562-.333-.566.986-.562-.333-.566.97-.561-.32-.562.973v-5.713z" opacity=".25"/><path fill="#000" d="m143.142 120.113 21.224-12.287 26.983 15.587-21.224 12.253z"/><path fill="#37474F" d="M164.367 105.216V81l-21.724 12.54 21.033 12.159z"/><path fill="#263238" d="M164.367 81v24.216l6.516 3.77 20.962-12.142zM142.643 93.541v26.284l27.482 15.84v-26.242z"/><path fill="#37474F" d="M170.125 109.422v26.242l21.72-12.54v-26.28z"/><path fill="#455A64" d="m170.125 109.424.496 25.339 18.195-9.89-18.691 10.793z"/><path fill="#E0E0E0" d="M173.121 128.063a.5.5 0 0 1-.258-.066.78.78 0 0 1-.321-.712v-2.234h.104l1.665-.961v2.338a1.9 1.9 0 0 1-.807 1.527.74.74 0 0 1-.383.108m-.316-2.704v1.939q-.018.137.034.266a.5.5 0 0 0 .157.216.37.37 0 0 0 .354-.037 1.67 1.67 0 0 0 .678-1.302v-.171h-.608l-.12-.832zm.832.645h.383v-1.444l-.982.574.486.088z"/><path fill="#E0E0E0" d="M173.417 129.732a.123.123 0 0 1-.094-.036.125.125 0 0 1-.039-.093v-1.747q0-.055.039-.094a.133.133 0 0 1 .227.094v1.76a.133.133 0 0 1-.133.116"/><path fill="#E0E0E0" d="M172.651 130.171a.12.12 0 0 1-.065-.018.1.1 0 0 1-.047-.049.1.1 0 0 1-.018-.048.13.13 0 0 1 .064-.131l1.531-.882a.13.13 0 0 1 .161.06.13.13 0 0 1 .015.09.14.14 0 0 1-.047.079l-1.527.882a.12.12 0 0 1-.067.017M178.09 127.143a.3.3 0 0 1-.142-.038.34.34 0 0 1-.158-.316v-.358a.141.141 0 0 1 .029-.109.13.13 0 0 1 .102-.047q.03 0 .057.012.026.012.045.035a.13.13 0 0 1 .029.109v.358a.14.14 0 0 0 .025.092.14.14 0 0 0 .088-.025.77.77 0 0 0 .245-.595v-2.339a.141.141 0 0 1 .029-.109.13.13 0 0 1 .102-.047q.03 0 .057.012.026.012.045.035a.13.13 0 0 1 .029.109v2.339a1.01 1.01 0 0 1-.374.832.46.46 0 0 1-.208.05"/><path fill="#E0E0E0" d="M176.712 125.101v-.229a3.753 3.753 0 0 1 1.686-2.913 1.116 1.116 0 0 1 1.814 1.049v.075zm2.472-3.121c-.233.009-.46.08-.657.204a3.488 3.488 0 0 0-1.54 2.455l2.958-1.71a.96.96 0 0 0-.416-.857.7.7 0 0 0-.345-.092M182.824 124.451a.134.134 0 0 1-.129-.134v-4.481a.133.133 0 0 1 .262 0v4.481a.134.134 0 0 1-.133.134"/><path fill="#E0E0E0" d="M182.442 120.862h-.05a.1.1 0 0 1-.044-.027.1.1 0 0 1-.029-.043.1.1 0 0 1-.01-.05.2.2 0 0 1 .012-.051l.47-1.086.52.608a.1.1 0 0 1 .028.042.1.1 0 0 1 .01.049.1.1 0 0 1-.01.05.1.1 0 0 1-.028.042.136.136 0 0 1-.187 0l-.246-.287-.303.699a.13.13 0 0 1-.059.047.13.13 0 0 1-.074.007M184.044 123.757a.1.1 0 0 1-.05-.01.14.14 0 0 1-.043-.029.1.1 0 0 1-.027-.043.1.1 0 0 1-.009-.051v-4.481a.133.133 0 0 1 .262 0v4.481a.133.133 0 0 1-.133.133"/><path fill="#E0E0E0" d="M183.661 120.165a.1.1 0 0 1-.055 0 .13.13 0 0 1-.068-.072.1.1 0 0 1-.009-.05q0-.026.011-.049l.466-1.082.524.603a.13.13 0 0 1 .038.092.12.12 0 0 1-.038.091.136.136 0 0 1-.187 0l-.25-.287-.299.699a.13.13 0 0 1-.059.046.14.14 0 0 1-.074.009"/><path fill="#455A64" d="m164.368 81-21.724 12.54 27.482 15.883 21.72-12.579z"/><path fill="#fff" d="m142.644 93.541 27.378 14.946 21.824-11.642-21.72 12.578z" opacity=".1"/><path fill="#F7921E" d="m152.301 87.97 27.499 15.853 3.857-2.23-27.495-15.853z"/><path fill="#F7921E" d="M183.657 101.59v4.905l-.466-.266-.483.836-.486-.282-.483.844-.487-.287-.482.841-.487-.279-.487.84v-4.918z"/><path fill="#000" d="M183.657 101.59v4.905l-.466-.266-.483.836-.486-.282-.483.844-.487-.287-.482.841-.487-.279-.487.84v-4.918z" opacity=".25"/><path fill="#FAFAFA" d="m147.096 113.436 7.947 4.577a.8.8 0 0 1 .358.624v5.521c0 .458-.325.641-.72.416l-7.947-4.577a.79.79 0 0 1-.358-.62v-5.529c.004-.454.325-.641.72-.412"/><path fill="#455A64" d="m146.9 114.295.271.158v4.877l-.271-.159zM147.999 114.932l.466.274v4.877l-.466-.275zM149.102 115.568l.27.154v4.877l-.27-.154zM149.93 116.039l.541.32v4.877l-.541-.32zM151.303 116.838l.27.158v4.876l-.27-.158zM152.093 117.287l.578.341v4.877l-.578-.341zM153.504 118.107l.27.159v4.876l-.27-.158zM154.133 118.463l.133.079v4.876l-.133-.079zM153 117.844l.138.075v4.876l-.138-.075zM150.787 116.541l.133.079v4.877l-.137-.075zM149.571 115.846l.133.079v4.876l-.133-.079zM148.697 115.365l.133.079v4.877l-.133-.079zM147.517 114.646l.133.075v4.877l-.133-.075zM154.607 118.742l.27.158-.004 4.877-.266-.158z"/><path fill="#F7921E" d="m215.737 149.812-23.259-13.402-27.495 15.899 23.259 13.402z"/><path fill="#fff" d="m215.737 149.812-23.259-13.402-27.495 15.899 23.259 13.402z" opacity=".7"/><path fill="#F7921E" d="m188.242 185.001 27.495-15.903v-19.286l-27.495 15.899z"/><path fill="#fff" d="m188.242 185.001 27.495-15.903v-19.286l-27.495 15.899z" opacity=".6"/><path fill="#455A64" d="M191.991 177.582a.6.6 0 0 1-.292-.075.9.9 0 0 1-.287-.356.9.9 0 0 1-.075-.452v-2.542l.121.021 1.856-1.09v2.646a2.15 2.15 0 0 1-.911 1.731.9.9 0 0 1-.412.117m-.358-3.075v2.192a.6.6 0 0 0 .216.546q.103.045.214.035a.4.4 0 0 0 .202-.077 1.88 1.88 0 0 0 .766-1.473v-.196h-.687l-.137-.927zm.953.732h.416v-1.627l-1.111.649.549.1z"/><path fill="#455A64" d="M192.312 179.47a.15.15 0 0 1-.15-.15v-1.989a.2.2 0 0 1 .003-.065.16.16 0 0 1 .082-.096.15.15 0 0 1 .126 0 .15.15 0 0 1 .085.161v1.989a.154.154 0 0 1-.146.15"/><path fill="#455A64" d="M191.447 179.969a.13.13 0 0 1-.129-.075.15.15 0 0 1 .054-.203l1.731-.999a.2.2 0 0 1 .057-.028.15.15 0 0 1 .123.025.15.15 0 0 1-.035.261l-1.726.998a.2.2 0 0 1-.075.021M197.608 176.525a.3.3 0 0 1-.162-.042.4.4 0 0 1-.135-.156.4.4 0 0 1-.044-.202v-.416a.15.15 0 0 1 .299 0v.416c0 .063 0 .092.03.1a.13.13 0 0 0 .095-.025.87.87 0 0 0 .279-.674v-2.646a.2.2 0 0 1 .003-.065.2.2 0 0 1 .03-.057.16.16 0 0 1 .115-.053.15.15 0 0 1 .114.053.2.2 0 0 1 .03.057.14.14 0 0 1 .003.065v2.646a1.13 1.13 0 0 1-.416.928.5.5 0 0 1-.241.071"/><path fill="#455A64" d="M196.04 174.228v-.258a4.22 4.22 0 0 1 1.906-3.304 1.244 1.244 0 0 1 1.46-.152 1.25 1.25 0 0 1 .595 1.342v.083zm2.796-3.533a1.5 1.5 0 0 0-.741.233 3.93 3.93 0 0 0-1.743 2.776l3.329-1.935a1.1 1.1 0 0 0-.462-.97.8.8 0 0 0-.383-.1zM202.959 173.492a.149.149 0 0 1-.15-.149v-5.068a.15.15 0 0 1 .3 0v5.068a.149.149 0 0 1-.15.149"/><path fill="#455A64" d="M202.522 169.451a.2.2 0 0 1-.071-.017.15.15 0 0 1-.076-.119.15.15 0 0 1 .014-.072l.528-1.227.591.682a.15.15 0 0 1 .044.106q0 .03-.011.058a.16.16 0 0 1-.08.081.155.155 0 0 1-.113 0 .2.2 0 0 1-.048-.033l-.283-.324-.341.79a.16.16 0 0 1-.065.062q-.043.02-.089.013M204.336 172.705a.2.2 0 0 1-.057-.011.2.2 0 0 1-.049-.033.13.13 0 0 1-.032-.048.14.14 0 0 1-.011-.057v-5.068a.149.149 0 0 1 .255-.106.15.15 0 0 1 .044.106v5.068a.2.2 0 0 1-.011.057.158.158 0 0 1-.081.081.2.2 0 0 1-.058.011"/><path fill="#455A64" d="M203.9 168.644h-.058a.15.15 0 0 1-.078-.083.15.15 0 0 1 .003-.113l.528-1.227.591.686a.154.154 0 0 1 .035.108.15.15 0 0 1-.052.1.14.14 0 0 1-.05.028.14.14 0 0 1-.057.007.152.152 0 0 1-.101-.051l-.283-.325-.341.791a.149.149 0 0 1-.137.079"/><path fill="#F7921E" d="m188.242 185-23.259-13.406v-19.285l23.259 13.402z"/><path fill="#fff" d="m188.242 185-23.259-13.406v-19.285l23.259 13.402z" opacity=".4"/><path fill="#FAFAFA" d="m168.15 163.297 8.447 4.868a.9.9 0 0 1 .27.285.86.86 0 0 1 .113.376v5.859c0 .483-.342.682-.762.441l-8.43-4.872a.838.838 0 0 1-.382-.658v-5.862c-.013-.483.328-.679.744-.437"/><path fill="#455A64" d="m167.941 164.209.288.166v5.172l-.288-.166zM169.107 164.883l.495.291v5.172l-.495-.291zM170.276 165.557l.287.166v5.172l-.287-.166zM171.159 166.059l.574.341v5.172l-.574-.342zM172.61 166.906l.287.167v5.172l-.287-.167zM173.451 167.379l.616.366v5.172l-.616-.366zM174.944 168.254l.287.166v5.172l-.287-.166zM175.609 168.631l.146.083v5.172l-.146-.083zM174.411 167.969l.146.083v5.172l-.146-.083zM172.061 166.592l.145.083v5.172l-.145-.083zM170.775 165.854l.141.083v5.172l-.141-.079zM169.848 165.344l.145.079v5.176l-.145-.083zM168.595 164.582l.141.079v5.176l-.141-.083zM176.113 168.928l.287.162v5.176l-.287-.166z"/><path fill="#37474F" d="m174.591 161.206 2.188 1.265v-3.396l-2.188-1.264z"/><path fill="#455A64" d="m176.779 159.076 27.499-15.903-2.192-1.261-27.495 15.899z"/><path fill="#263238" d="M83.904 106.915s-.676 29.575-5.503 37.456c-4.826 7.881-24.895 24.42-24.895 24.42l-3.407-4.579s10.783-19.907 15.716-22.355l3.857-35.103z"/><path fill="#F7921E" d="m46.428 179.338 2.646-1.136-1.146-2.181z"/><path fill="#F7921E" d="M45.06 169.982a6 6 0 0 0-.666 2.257L44 176.647l2.428 2.69 1.515-3.316z"/><path fill="#000" d="m46.428 179.338 2.646-1.136-1.146-2.181z" opacity=".5" style="mix-blend-mode:overlay"/><path fill="#000" d="M45.06 169.982a6 6 0 0 0-.666 2.257L44 176.647l2.428 2.69 1.515-3.316z" opacity=".2" style="mix-blend-mode:overlay"/><path fill="#F7921E" d="M53.29 158.696s.898 5.018 5.416 5.518c0 0 .626.727-.893 2.347s-4.307 5.008-4.307 5.008.288 5.281 2.338 7.275c1.01 1.01 2.075 2.02 2.872 2.858a1.41 1.41 0 0 1 .13 1.834 1.4 1.4 0 0 1-.508.423 6.998 6.998 0 0 1-7.7-1.01l-.822-.722a4.58 4.58 0 0 1-1.515-2.953l-.353-3.242-2.772-4.038a1.9 1.9 0 0 1-.096-1.985c1.742-3.175 7.048-12.525 8.21-11.313"/><path fill="#37474F" d="M66.3 104.979s-9.179 9.541-5.847 21.087c3.332 11.547 10.789 27.404 10.789 27.404s-1.126 3.438 2.02 10.744 6.058 15.438 6.058 15.438 3.029 1.722 5.836-1.277l-7.992-60.316s6.099-4.276 5.301-11.374z"/><path fill="#F7921E" d="m79.89 187.275 1.091 4.827 2.757 1.499-.106-3.519z"/><path fill="#000" d="m79.89 187.275 1.091 4.827 2.757 1.499-.106-3.519z" opacity=".2"/><path fill="#F7921E" d="m83.737 193.601 1.389-.914-1.495-2.605z"/><path fill="#000" d="m83.737 193.601 1.389-.914-1.495-2.605z" opacity=".5"/><path fill="#F7921E" d="M77.856 175.708s3.882 1.777 6.8-1.095l-.131-.909s1.01-.298 1.353 1.514 2.176 10.628 2.176 10.628 3.307 4.256 5.72 5.22 2.903 2.317 1.318 3.494l-.046.035a6.31 6.31 0 0 1-6.487.621l-1.873-.894a3.64 3.64 0 0 1-1.692-1.691l-.227-.47a6.7 6.7 0 0 0-2.585-2.827l-1.383-.828a1.95 1.95 0 0 1-.889-1.211l-2.524-10.562a.89.89 0 0 1 .475-1.01z"/><path fill="#37474F" d="M80.81 141.959a.938.938 0 0 1-.868-1.298.94.94 0 0 1 .398-.454l30.095-17.408a.94.94 0 1 1 .939 1.626l-30.075 17.407a1 1 0 0 1-.49.127M82.263 168.464a.92.92 0 0 1-.808-.469.94.94 0 0 1 .339-1.283l30.074-17.402a.93.93 0 0 1 .711-.095q.18.049.328.161a.9.9 0 0 1 .241.275.9.9 0 0 1 .118.345 1 1 0 0 1-.023.365.92.92 0 0 1-.436.569l-30.074 17.418a.9.9 0 0 1-.47.116M80.704 148.274a.46.46 0 0 1-.404-.232.46.46 0 0 1 .171-.641l30.292-17.529a.47.47 0 0 1 .529.026.467.467 0 0 1 .083.668.5.5 0 0 1-.143.119l-30.291 17.529a.5.5 0 0 1-.237.06M81.556 154.99a.47.47 0 0 1-.237-.873l30.292-17.529a.47.47 0 0 1 .63.178.47.47 0 0 1-.161.635l-30.291 17.528a.5.5 0 0 1-.233.061M81.556 161.734a.47.47 0 0 1-.237-.873l30.292-17.529a.47.47 0 0 1 .63.178.47.47 0 0 1-.161.635l-30.291 17.529q-.108.06-.233.06"/><path fill="#37474F" d="M109.061 152.739a.47.47 0 0 1-.469-.444l-1.515-26.723a.471.471 0 0 1 .939-.055l1.515 26.727a.48.48 0 0 1-.445.505zM105.184 154.994a.47.47 0 0 1-.47-.439l-1.514-26.728a.467.467 0 0 1 .439-.535.46.46 0 0 1 .354.133.47.47 0 0 1 .141.352l1.514 26.722a.455.455 0 0 1-.259.459.5.5 0 0 1-.18.046zM101.302 157.241a.466.466 0 0 1-.465-.444l-1.514-26.722a.47.47 0 0 1 .26-.459.5.5 0 0 1 .179-.046.48.48 0 0 1 .344.114.46.46 0 0 1 .161.325l1.514 26.727a.48.48 0 0 1-.114.345.46.46 0 0 1-.325.16zM97.424 159.513a.47.47 0 0 1-.47-.439l-1.514-26.727a.47.47 0 0 1 .901-.241q.037.091.033.19l1.515 26.723a.467.467 0 0 1-.444.504zM93.547 161.784a.47.47 0 0 1-.47-.444l-1.514-26.727a.47.47 0 1 1 .939-.051l1.514 26.727a.47.47 0 0 1-.265.458.5.5 0 0 1-.179.047zM89.67 164.032a.47.47 0 0 1-.47-.444l-1.515-26.723a.47.47 0 1 1 .94-.055l1.514 26.727a.47.47 0 0 1-.26.457.5.5 0 0 1-.18.048zM85.787 166.294a.474.474 0 0 1-.464-.445l-1.515-26.727a.47.47 0 1 1 .934-.05l1.515 26.727a.46.46 0 0 1-.44.505z"/><path fill="#455A64" d="M122.046 188.971c0 2.166-1.514 3.029-3.392 1.959a7.5 7.5 0 0 1-3.398-5.882c0-2.165 1.514-3.029 3.398-1.958a7.51 7.51 0 0 1 3.392 5.881"/><path fill="#263238" d="M119.805 187.679c0 .737-.505 1.04-1.157.672a2.59 2.59 0 0 1-1.161-2.02c0-.742.505-1.04 1.161-.671a2.55 2.55 0 0 1 1.157 2.019"/><path fill="#263238" d="M123.591 188.078a7.52 7.52 0 0 0-3.398-5.886c-1.338-.773-2.489-.54-3.029.439a3.1 3.1 0 0 1 1.515.459 7.51 7.51 0 0 1 3.367 5.882c0 1.07-.374 1.823-.974 2.181l1.479-.848c.636-.344 1.04-1.116 1.04-2.227"/><path fill="#F7921E" d="M118.795 181.544c-2.363-1.368-4.276-.263-4.276 2.464l8.537 4.937c0-2.726-1.904-6.038-4.261-7.401"/><path fill="#F7921E" d="M120.33 180.344c-1.737-1.01-3.226-.666-3.898.656a3.54 3.54 0 0 1 2.363.546c2.358 1.363 4.276 4.675 4.276 7.401l1.515-1.197c.02-2.741-1.894-6.043-4.256-7.406"/><path fill="#000" d="M120.33 180.344c-1.737-1.01-3.226-.666-3.898.656a3.54 3.54 0 0 1 2.363.546c2.358 1.363 4.276 4.675 4.276 7.401l1.515-1.197c.02-2.741-1.894-6.043-4.256-7.406" opacity=".5"/><path fill="#455A64" d="M147.017 203.401c0 2.166-1.515 3.029-3.398 1.959a7.5 7.5 0 0 1-3.398-5.882c0-2.166 1.515-3.029 3.398-1.959a7.52 7.52 0 0 1 3.398 5.882"/><path fill="#263238" d="M144.765 202.107c0 .737-.505 1.04-1.161.672a2.58 2.58 0 0 1-1.162-2.02c0-.742.505-1.04 1.162-.671a2.56 2.56 0 0 1 1.161 2.019"/><path fill="#263238" d="M148.561 202.506a7.53 7.53 0 0 0-3.392-5.887c-1.338-.772-2.494-.54-3.029.44a3.07 3.07 0 0 1 1.514.459 7.52 7.52 0 0 1 3.398 5.882c0 1.07-.374 1.822-.974 2.181l1.474-.848c.606-.344 1.009-1.116 1.009-2.227"/><path fill="#F7921E" d="M143.755 195.974c-2.363-1.368-4.276-.263-4.276 2.463l8.552 4.938c.01-2.716-1.903-6.038-4.276-7.401"/><path fill="#F7921E" d="M145.3 194.772c-1.731-1.01-3.226-.667-3.892.656a3.5 3.5 0 0 1 2.357.545c2.363 1.363 4.277 4.675 4.277 7.402l1.514-1.197c.02-2.731-1.893-6.063-4.256-7.406"/><path fill="#000" d="M145.3 194.772c-1.731-1.01-3.226-.667-3.892.656a3.5 3.5 0 0 1 2.357.545c2.363 1.363 4.277 4.675 4.277 7.402l1.514-1.197c.02-2.731-1.893-6.063-4.256-7.406" opacity=".5"/><path fill="#455A64" d="M117.028 220.782c0 2.166-1.515 3.029-3.393 1.959a7.5 7.5 0 0 1-3.398-5.882c0-2.166 1.515-3.029 3.398-1.959a7.51 7.51 0 0 1 3.393 5.882"/><path fill="#263238" d="M114.791 219.49c0 .742-.504 1.04-1.156.671a2.58 2.58 0 0 1-1.161-2.019c0-.742.505-1.04 1.161-.672a2.58 2.58 0 0 1 1.156 2.02"/><path fill="#263238" d="M118.578 219.89a7.5 7.5 0 0 0-3.398-5.882c-1.338-.772-2.489-.545-3.029.434a3.1 3.1 0 0 1 1.514.46 7.5 7.5 0 0 1 3.393 5.881c0 1.07-.373 1.823-.974 2.186l1.479-.853c.611-.343 1.015-1.116 1.015-2.226"/><path fill="#F7921E" d="M113.782 213.355c-2.363-1.363-4.277-.257-4.277 2.469l8.553 4.938c0-2.732-1.914-6.044-4.276-7.407"/><path fill="#F7921E" d="M115.316 212.154c-1.736-1.009-3.226-.666-3.897.662a3.47 3.47 0 0 1 2.363.54c2.362 1.363 4.276 4.675 4.276 7.406l1.514-1.201c.021-2.747-1.893-6.044-4.256-7.407"/><path fill="#000" d="M115.316 212.154c-1.736-1.009-3.226-.666-3.897.662a3.47 3.47 0 0 1 2.363.54c2.362 1.363 4.276 4.675 4.276 7.406l1.514-1.201c.021-2.747-1.893-6.044-4.256-7.407" opacity=".5"/><path fill="#263238" d="M148.375 202.713a.935.935 0 0 1-.907-.701.94.94 0 0 1 .447-1.056 1.41 1.41 0 0 0 .721-1.232c0-.251-.067-.497-.194-.713a1.4 1.4 0 0 0-.527-.519l-31.624-17.745a6.783 6.783 0 0 1-3.473-5.554l-3.423-61.472a5.095 5.095 0 0 0-2.525-4.109l-2.211-1.293a1.97 1.97 0 0 0-1.944 0l-1.858 1.035a.935.935 0 0 1-1.312-1.074.94.94 0 0 1 .399-.561l1.852-1.01a3.83 3.83 0 0 1 3.807.035l2.211 1.293a6.93 6.93 0 0 1 3.439 5.619l3.422 61.456a4.934 4.934 0 0 0 2.525 4.039l31.624 17.746a3.288 3.288 0 0 1 0 5.735.95.95 0 0 1-.449.081"/><path fill="#F7921E" d="M121.925 184.241a1.4 1.4 0 0 1-.686-.181l-5.69-3.191a1.407 1.407 0 1 1 1.373-2.454l5.69 3.191a1.41 1.41 0 0 1 .671 1.582 1.41 1.41 0 0 1-1.358 1.053"/><path fill="#253239" d="M124.399 185.16a.96.96 0 0 1-.46-.121l-1.984-1.116a.94.94 0 0 1 .914-1.636l1.989 1.116a.94.94 0 0 1 .404.451.942.942 0 0 1-.863 1.306"/><path fill="#F7921E" d="M147.415 198.544a1.35 1.35 0 0 1-.686-.182l-5.69-3.19a1.4 1.4 0 0 1-.666-.845 1.404 1.404 0 0 1 1.518-1.778c.183.021.36.079.521.169l5.695 3.196a1.402 1.402 0 0 1-.692 2.63"/><path fill="#455A64" d="M148.375 202.713a.942.942 0 0 1-.863-1.306.94.94 0 0 1 .403-.451c.219-.123.401-.302.527-.519a1.412 1.412 0 0 0-.527-1.945.94.94 0 0 1 .223-1.695.93.93 0 0 1 .696.059 3.3 3.3 0 0 1 1.681 2.868 3.29 3.29 0 0 1-1.681 2.867.95.95 0 0 1-.459.122M91.059 208.549c1.325-.765 1.325-3.247 0-5.544-1.327-2.296-3.476-3.537-4.802-2.772s-1.325 3.248 0 5.544c1.326 2.297 3.476 3.538 4.801 2.772"/><path fill="#263238" d="M89.821 205.062c0 .742-.505 1.04-1.161.672a2.57 2.57 0 0 1-1.156-2.02c0-.742.505-1.04 1.156-.671a2.57 2.57 0 0 1 1.161 2.019"/><path fill="#263238" d="M93.608 205.46a7.51 7.51 0 0 0-3.398-5.882c-1.338-.772-2.494-.545-3.03.434a3.07 3.07 0 0 1 1.515.46 7.5 7.5 0 0 1 3.398 5.882c0 1.07-.374 1.822-.974 2.186l1.474-.854c.61-.343 1.014-1.115 1.014-2.226"/><path fill="#F7921E" d="M88.806 198.927c-2.357-1.363-4.27-.257-4.27 2.469l8.546 4.938c0-2.732-1.913-6.043-4.276-7.407"/><path fill="#F7921E" d="M90.341 197.727c-1.731-1.01-3.22-.667-3.892.661a3.46 3.46 0 0 1 2.357.54c2.363 1.363 4.277 4.675 4.277 7.406l1.514-1.201c.02-2.726-1.893-6.043-4.256-7.406"/><path fill="#000" d="M90.341 197.727c-1.731-1.01-3.22-.667-3.892.661a3.46 3.46 0 0 1 2.357.54c2.363 1.363 4.277 4.675 4.277 7.406l1.514-1.201c.02-2.726-1.893-6.043-4.256-7.406" opacity=".5"/><path fill="#455A64" d="M121.541 216.495a9.5 9.5 0 0 1-4.644-1.201l-31.1-17.453a6.79 6.79 0 0 1-3.473-5.554L78.9 130.831a5.08 5.08 0 0 0-2.524-4.105l-2.292-1.368a1.82 1.82 0 0 1-.904-1.591 1.82 1.82 0 0 1 .934-1.574l25.849-14.49a.95.95 0 0 1 .737-.125.94.94 0 0 1 .67 1.198.95.95 0 0 1-.494.563L75.13 123.788l2.226 1.303a6.95 6.95 0 0 1 3.438 5.624l3.388 61.451a4.92 4.92 0 0 0 2.524 4.039l31.104 17.453a7.67 7.67 0 0 0 7.447 0l22.658-12.702a.94.94 0 0 1 1.069.052.94.94 0 0 1 .361.644.93.93 0 0 1-.215.706.95.95 0 0 1-.296.234l-22.663 12.707a9.5 9.5 0 0 1-4.63 1.196"/><path fill="#F7921E" d="M91.941 201.623a1.4 1.4 0 0 1-.691-.182l-5.69-3.19a1.41 1.41 0 0 1 .333-2.543 1.4 1.4 0 0 1 1.045.089l5.69 3.196a1.4 1.4 0 0 1 .676 1.581 1.405 1.405 0 0 1-1.363 1.049M117.432 215.927c-.24 0-.477-.06-.687-.177l-5.695-3.196a1.415 1.415 0 0 1-.163-2.344 1.418 1.418 0 0 1 1.567-.109l5.664 3.18a1.405 1.405 0 0 1-.686 2.631z"/><path fill="#455A64" d="M121.541 216.506a9.5 9.5 0 0 1-3.534-.681.94.94 0 0 1-.547-.498.93.93 0 0 1-.018-.739.935.935 0 0 1 .894-.59.9.9 0 0 1 .368.085c.9.363 1.862.55 2.832.55a.94.94 0 0 1 .93.561.96.96 0 0 1 0 .751.95.95 0 0 1-.55.511.9.9 0 0 1-.38.05z"/><path fill="#F7921E" d="M89.3 198.716a1.406 1.406 0 0 1-1.222-2.1l1.041-1.838a1.42 1.42 0 0 1 .85-.706 1.4 1.4 0 0 1 1.098.125q.25.143.424.37a1.41 1.41 0 0 1 .077 1.599l-1.045 1.838a1.4 1.4 0 0 1-1.222.712"/><path fill="#455A64" d="M90.684 195.806a.9.9 0 0 1-.46-.126.94.94 0 0 1-.442-.565.93.93 0 0 1 .09-.712l4.644-8.189a3.94 3.94 0 0 1 3.428-1.994h2.307a3.48 3.48 0 0 0 3.474-3.474.94.94 0 0 1 .248-.708.947.947 0 0 1 1.064-.222.96.96 0 0 1 .51.55q.065.185.051.38a5.35 5.35 0 0 1-5.347 5.347h-2.307a2.06 2.06 0 0 0-1.797 1.045l-4.645 8.188a.94.94 0 0 1-.818.48M80.183 137.986a.938.938 0 0 1-.475-1.747L110 118.71a.95.95 0 0 1 .711-.094.92.92 0 0 1 .569.435.92.92 0 0 1 .095.71.95.95 0 0 1-.436.57L80.648 137.86a.9.9 0 0 1-.465.126M94.415 202.543a.96.96 0 0 1-.46-.121l-1.988-1.116a.93.93 0 0 1-.442-.564.935.935 0 0 1 1.36-1.067l1.99 1.111a.94.94 0 0 1 .447 1.055.943.943 0 0 1-.906.702"/><path fill="#263238" d="M115.988 152.697a.47.47 0 0 1-.469-.469v-25.45a.47.47 0 0 1 .276-.478.48.48 0 0 1 .381 0 .46.46 0 0 1 .256.284.5.5 0 0 1 .021.194v25.46a.47.47 0 0 1-.465.459M119.81 154.894a.47.47 0 0 1-.47-.47v-25.455a.471.471 0 0 1 .816-.363.474.474 0 0 1 .118.363v25.46a.468.468 0 0 1-.464.465M123.637 157.075a.466.466 0 0 1-.47-.47v-25.46a.467.467 0 0 1 .47-.469.47.47 0 0 1 .469.469v25.46a.47.47 0 0 1-.469.47M127.463 159.26a.5.5 0 0 1-.18-.035.48.48 0 0 1-.254-.254.5.5 0 0 1-.035-.18v-25.46a.468.468 0 0 1 .801-.332.47.47 0 0 1 .138.332v25.46a.47.47 0 0 1-.47.469M131.29 161.441a.47.47 0 0 1-.469-.469v-25.44a.468.468 0 0 1 .801-.332.47.47 0 0 1 .138.332v25.46a.467.467 0 0 1-.47.449M135.117 163.628a.47.47 0 0 1-.47-.47v-25.46a.471.471 0 0 1 .94 0v25.46a.47.47 0 0 1-.47.47M138.944 165.824a.47.47 0 0 1-.469-.469V139.88a.468.468 0 0 1 .801-.332.47.47 0 0 1 .138.332v25.44a.47.47 0 0 1-.282.466.5.5 0 0 1-.188.038M142.771 167.995a.47.47 0 0 1-.47-.47v-25.46a.471.471 0 0 1 .802-.332.47.47 0 0 1 .137.332v25.46a.47.47 0 0 1-.469.47M146.597 170.174a.47.47 0 0 1-.469-.469v-25.46a.468.468 0 0 1 .801-.332.47.47 0 0 1 .138.332v25.46a.47.47 0 0 1-.47.469M150.424 172.385a.5.5 0 0 1-.18-.035.5.5 0 0 1-.152-.102.48.48 0 0 1-.137-.332V146.43a.47.47 0 0 1 .939 0v25.45a.48.48 0 0 1-.125.356.466.466 0 0 1-.345.149M154.251 174.542a.47.47 0 0 1-.469-.47v-25.46a.47.47 0 1 1 .939 0v25.46a.47.47 0 0 1-.289.435.5.5 0 0 1-.181.035M158.078 176.729a.467.467 0 0 1-.465-.47v-25.46a.471.471 0 0 1 .816-.363.5.5 0 0 1 .098.169q.03.095.02.194v25.46a.47.47 0 0 1-.469.47M161.93 176.73a.47.47 0 0 1-.464-.47v-23.279a.47.47 0 0 1 .118-.363.47.47 0 0 1 .54-.115.47.47 0 0 1 .276.478v23.279a.47.47 0 0 1-.47.47M165.737 173.448a.454.454 0 0 1-.332-.135.46.46 0 0 1-.138-.33v-17.816a.5.5 0 0 1 .021-.194.473.473 0 0 1 .637-.284.47.47 0 0 1 .276.478v17.816a.47.47 0 0 1-.136.329.5.5 0 0 1-.151.1.5.5 0 0 1-.177.036M169.564 169.64a.47.47 0 0 1-.47-.47v-11.824a.473.473 0 0 1 .47-.469.47.47 0 0 1 .469.469v11.824a.47.47 0 0 1-.469.47M173.39 166.193a.47.47 0 0 1-.469-.469v-6.19a.468.468 0 0 1 .801-.332.47.47 0 0 1 .138.332v6.19a.47.47 0 0 1-.47.469"/><path fill="#263238" d="M173.411 166.626a.4.4 0 0 1-.233-.065l-62.279-35.679a.46.46 0 0 1-.247-.283.46.46 0 0 1 .04-.374.47.47 0 0 1 .494-.229.5.5 0 0 1 .177.074l62.28 35.678a.47.47 0 0 1 .218.285.47.47 0 0 1-.216.529.46.46 0 0 1-.234.064M168.998 170.469a.5.5 0 0 1-.232-.061l-57.145-32.74a.465.465 0 0 1-.177-.621.47.47 0 0 1 .641-.177l57.14 32.74a.467.467 0 0 1-.232.874zM164.909 174.502a.45.45 0 0 1-.233-.066l-52.687-30.185a.469.469 0 1 1 .465-.813l52.692 30.186a.475.475 0 0 1 .172.641.46.46 0 0 1-.409.237"/><path fill="#263238" d="M160.764 178.727a.9.9 0 0 1-.47-.127l-47.79-27.378a.94.94 0 0 1 .934-1.631l47.194 27.04 15.59-14.343-64.854-37.157a.938.938 0 0 1 .934-1.626l65.965 37.774a.95.95 0 0 1 .41 1.143.94.94 0 0 1-.243.361l-17.039 15.701a.94.94 0 0 1-.631.243"/><path fill="#37474F" d="M85.696 169.428a.46.46 0 0 1-.404-.232.47.47 0 0 1-.049-.357.47.47 0 0 1 .22-.285l29.136-16.938a.485.485 0 0 1 .361-.055.48.48 0 0 1 .351.397.47.47 0 0 1-.242.471l-29.115 16.928a.5.5 0 0 1-.258.071M89.543 171.614a.475.475 0 0 1-.464-.406.46.46 0 0 1 .232-.468l29.136-16.938a.48.48 0 0 1 .372-.079.48.48 0 0 1 .309.223.47.47 0 0 1-.212.664l-29.135 16.938a.46.46 0 0 1-.238.066M93.375 173.796a.47.47 0 0 1-.237-.874l29.135-16.938a.47.47 0 0 1 .352-.039.48.48 0 0 1 .278.217.466.466 0 0 1-.16.635l-29.136 16.938a.5.5 0 0 1-.232.061M97.202 175.981a.5.5 0 0 1-.409-.232.476.476 0 0 1 .172-.642l29.12-16.938a.48.48 0 0 1 .373-.079.475.475 0 0 1 .35.602.47.47 0 0 1-.254.285l-29.12 16.943a.43.43 0 0 1-.232.061M101.029 178.163a.48.48 0 0 1-.284-.097.48.48 0 0 1-.149-.549.47.47 0 0 1 .196-.228l29.135-16.938a.47.47 0 0 1 .644.169.475.475 0 0 1-.169.644l-29.141 16.938a.5.5 0 0 1-.232.061M104.881 180.348a.5.5 0 0 1-.409-.232.473.473 0 0 1 .172-.641l29.135-16.938a.473.473 0 0 1 .67.15.46.46 0 0 1 .045.371.46.46 0 0 1-.24.287l-29.141 16.938a.42.42 0 0 1-.232.065M108.682 182.529a.46.46 0 0 1-.403-.233.47.47 0 0 1 .166-.641l29.136-16.938a.464.464 0 0 1 .641.172.469.469 0 0 1-.167.641l-29.135 16.953a.5.5 0 0 1-.238.046M112.509 184.714a.47.47 0 0 1-.451-.346.472.472 0 0 1 .214-.527l29.136-16.938a.469.469 0 0 1 .474.808l-29.135 16.938a.45.45 0 0 1-.238.065M116.336 186.896a.46.46 0 0 1-.404-.233.47.47 0 0 1 .167-.641l29.14-16.938a.47.47 0 0 1 .357-.049.47.47 0 0 1 .285.221.475.475 0 0 1-.172.641l-29.136 16.938a.5.5 0 0 1-.237.061M120.163 189.083a.472.472 0 0 1-.433-.646.47.47 0 0 1 .196-.228l29.14-16.938a.474.474 0 0 1 .642.167.473.473 0 0 1-.172.641L120.4 189.017a.46.46 0 0 1-.237.066M123.99 191.264a.45.45 0 0 1-.404-.232.47.47 0 0 1-.049-.357.47.47 0 0 1 .221-.285l29.135-16.938a.48.48 0 0 1 .361-.055.48.48 0 0 1 .351.397.47.47 0 0 1-.242.471l-29.136 16.938a.5.5 0 0 1-.237.061M127.817 193.448a.464.464 0 0 1-.46-.406.5.5 0 0 1 .016-.183.45.45 0 0 1 .227-.279l29.135-16.938a.48.48 0 0 1 .373-.079.468.468 0 0 1 .253.771.5.5 0 0 1-.156.116l-29.151 16.933a.45.45 0 0 1-.237.065"/><path fill="#F7921E" d="M116.488 181.574 93.193 168.13v-31.933l23.295 13.45zM116.488 181.574v-31.927l23.289-13.45v31.933z"/><path fill="#000" d="M116.488 181.574 93.193 168.13v-31.933l23.295 13.45z" opacity=".5"/><path fill="#000" d="M116.488 181.574v-31.927l23.289-13.45v31.933z" opacity=".7"/><path fill="#F7921E" d="m116.488 148.345-25.102-14.489 25.102-14.495 25.096 14.495z"/><path fill="#F7921E" d="m102.301 127.549 25.102 14.495 3.266-1.889-25.096-14.489z"/><path fill="#fff" d="m102.301 127.549 25.102 14.495 3.266-1.889-25.096-14.489z" opacity=".8"/><path fill="#F7921E" d="m130.669 127.549-25.096 14.495-3.272-1.889 25.102-14.489z"/><path fill="#fff" d="m130.669 127.549-25.096 14.495-3.272-1.889 25.102-14.489z" opacity=".8"/><path fill="#F7921E" d="m116.488 153.358-25.102-14.494v-5.009l25.102 14.49zM116.488 153.358v-5.013l25.096-14.49v5.014z"/><path fill="#000" d="m116.488 153.358-25.102-14.494v-5.009l25.102 14.49z" opacity=".3"/><path fill="#000" d="M116.488 153.358v-5.013l25.096-14.49v5.014z" opacity=".5"/><path fill="#F7921E" d="m105.573 175.294-3.272-1.873v-33.265l3.272 1.888zM127.403 175.294l3.266-1.873v-33.265l-3.266 1.888z"/><path fill="#F7921E" d="M128.463 147.012a2.25 2.25 0 0 1-1.01 1.762c-.56.328-1.01.061-1.01-.586a2.26 2.26 0 0 1 1.01-1.767c.555-.323 1.01-.06 1.01.591M139.06 140.893a2.26 2.26 0 0 1-1.01 1.762c-.565.323-1.009.06-1.009-.586a2.25 2.25 0 0 1 1.009-1.767c.556-.323 1.01-.06 1.01.591"/><path fill="#F7921E" d="M127.443 147.866a.504.504 0 0 1-.505-.505v-7.027a8.5 8.5 0 0 1 4.1-7.245l2.484-1.514a3.29 3.29 0 0 1 3.324-.046 3.29 3.29 0 0 1 1.674 2.873v6.825a.5.5 0 0 1-.505.505.504.504 0 0 1-.505-.505v-6.8a2.31 2.31 0 0 0-1.173-2.015 2.317 2.317 0 0 0-2.33.031l-2.484 1.489a7.51 7.51 0 0 0-3.63 6.402v7.043a.503.503 0 0 1-.45.489"/><path fill="#000" d="M127.443 147.866a.504.504 0 0 1-.505-.505v-7.027a8.5 8.5 0 0 1 4.1-7.245l2.484-1.514a3.29 3.29 0 0 1 3.324-.046 3.29 3.29 0 0 1 1.674 2.873v6.825a.5.5 0 0 1-.505.505.504.504 0 0 1-.505-.505v-6.8a2.31 2.31 0 0 0-1.173-2.015 2.317 2.317 0 0 0-2.33.031l-2.484 1.489a7.51 7.51 0 0 0-3.63 6.402v7.043a.503.503 0 0 1-.45.489" opacity=".9"/><path fill="#F7921E" d="m143.458 134.951 12.081 7.563v34.24l-12.081-7.563zM119.532 183.004v-34.24l23.926-13.813v34.24z"/><path fill="#000" d="M119.532 183.004v-34.24l23.926-13.813v34.24z" opacity=".3"/><path fill="#F7921E" d="m121.264 172.891 3.342-19.578a12.25 12.25 0 0 1 5.942-8.532l12.536-7.23a5 5 0 0 1 4.689-.162 5 5 0 0 1 2.758 3.797l3.321 23.577a12.508 12.508 0 0 1-10.243 14.066l-13.99 2.423a7.24 7.24 0 0 1-8.117-4.946 7.24 7.24 0 0 1-.238-3.415"/><path fill="#fff" d="m121.264 172.891 3.342-19.578a12.25 12.25 0 0 1 5.942-8.532l12.536-7.23a5 5 0 0 1 4.689-.162 5 5 0 0 1 2.758 3.797l3.321 23.577a12.508 12.508 0 0 1-10.243 14.066l-13.99 2.423a7.24 7.24 0 0 1-8.117-4.946 7.24 7.24 0 0 1-.238-3.415" opacity=".8"/><path fill="#F7921E" d="M131.618 190.566v-34.239l23.92-13.813v34.239z"/><path fill="#000" d="M131.618 190.566v-34.239l23.92-13.813v34.239z" opacity=".5"/><path fill="#F7921E" d="m119.532 148.764 12.087 7.562v34.24l-12.087-7.563z"/><path fill="#000" d="M125.575 180.666v-28.115l6.043 3.776v34.24z" opacity=".3"/><path fill="#F7921E" d="M139.297 155.11a2.24 2.24 0 0 1-.294 1.004c-.175.307-.42.569-.715.763-.561.323-1.01.061-1.01-.591a2.24 2.24 0 0 1 1.01-1.762c.555-.313 1.009-.06 1.009.586M149.899 148.992a2.25 2.25 0 0 1-1.009 1.762c-.566.328-1.01.065-1.01-.586a2.24 2.24 0 0 1 1.01-1.762c.55-.328 1.009-.06 1.009.586"/><path fill="#F7921E" d="M138.277 155.963a.504.504 0 0 1-.505-.505v-7.022a8.5 8.5 0 0 1 4.105-7.25l2.484-1.49a3.29 3.29 0 0 1 3.321-.041 3.29 3.29 0 0 1 1.672 2.869v6.83a.5.5 0 0 1-.268.577.5.5 0 0 1-.443 0 .51.51 0 0 1-.273-.349.5.5 0 0 1 .005-.228v-6.83a2.32 2.32 0 0 0-2.347-2.314 2.3 2.3 0 0 0-1.162.33l-2.484 1.489a7.51 7.51 0 0 0-3.625 6.407v7.037a.507.507 0 0 1-.48.49"/><path fill="#000" d="M138.277 155.963a.504.504 0 0 1-.505-.505v-7.022a8.5 8.5 0 0 1 4.105-7.25l2.484-1.49a3.29 3.29 0 0 1 3.321-.041 3.29 3.29 0 0 1 1.672 2.869v6.83a.5.5 0 0 1-.268.577.5.5 0 0 1-.443 0 .51.51 0 0 1-.273-.349.5.5 0 0 1 .005-.228v-6.83a2.32 2.32 0 0 0-2.347-2.314 2.3 2.3 0 0 0-1.162.33l-2.484 1.489a7.51 7.51 0 0 0-3.625 6.407v7.037a.507.507 0 0 1-.48.49" opacity=".9"/><path fill="#37474F" d="M146.729 180.131a.942.942 0 0 1-.864-1.312.94.94 0 0 1 .409-.45l31.074-17.09a.943.943 0 0 1 1.216.4.94.94 0 0 1-.312 1.241l-31.074 17.09a.9.9 0 0 1-.449.121M129.69 195.828a.92.92 0 0 1-.818-.505.934.934 0 0 1 .369-1.272l31.069-17.105a.94.94 0 0 1 1.256.381.934.934 0 0 1-.353 1.265l-31.089 17.12a.9.9 0 0 1-.434.116"/><path fill="#37474F" d="M152.712 182.858a.467.467 0 0 1-.468-.487.48.48 0 0 1 .149-.326l17.039-15.716a.47.47 0 0 1 .336-.124.48.48 0 0 1 .326.149.475.475 0 0 1-.025.667l-17.039 15.696a.47.47 0 0 1-.318.141M137.818 191.005a.45.45 0 0 1-.343-.151.48.48 0 0 1-.126-.336.46.46 0 0 1 .151-.326l17.039-15.701a.46.46 0 0 1 .338-.123.46.46 0 0 1 .326.151.5.5 0 0 1 .095.157.46.46 0 0 1-.123.507l-17.039 15.701a.47.47 0 0 1-.318.121M145.078 186.906a.45.45 0 0 1-.343-.151.466.466 0 0 1 .025-.661l17.039-15.701a.46.46 0 0 1 .512-.08.468.468 0 0 1 .119.766l-17.034 15.701a.46.46 0 0 1-.318.126"/><path fill="#455A64" d="M129.69 195.828a.96.96 0 0 1-.465-.121l-47.79-27.358a.938.938 0 0 1 .218-1.716.93.93 0 0 1 .711.09l47.194 27.04 15.596-14.368-64.855-37.158a.937.937 0 1 1 .93-1.625l65.964 37.793a.938.938 0 0 1 .172 1.515l-17.039 15.701a.92.92 0 0 1-.636.207"/><path fill="#455A64" d="M85.247 169.897a.46.46 0 0 1-.33-.138.47.47 0 0 1-.135-.332v-25.46a.47.47 0 1 1 .934 0v25.46a.464.464 0 0 1-.47.47M89.079 172.083a.46.46 0 0 1-.332-.137.48.48 0 0 1-.138-.332v-25.481a.47.47 0 1 1 .934 0v25.46a.47.47 0 0 1-.464.49M92.906 174.264a.465.465 0 0 1-.47-.469v-25.46a.468.468 0 1 1 .94 0v25.46a.47.47 0 0 1-.47.469M96.733 176.452a.47.47 0 0 1-.47-.47v-25.46a.47.47 0 0 1 .94 0v25.46a.47.47 0 0 1-.47.47M100.559 178.631a.47.47 0 0 1-.469-.47v-25.465a.47.47 0 1 1 .939 0v25.46a.47.47 0 0 1-.289.439.5.5 0 0 1-.181.036M104.376 180.817a.47.47 0 0 1-.469-.469v-25.461a.47.47 0 0 1 .939 0v25.461a.47.47 0 0 1-.47.469M108.213 182.989a.47.47 0 0 1-.469-.47v-25.45a.47.47 0 1 1 .939 0v25.46a.47.47 0 0 1-.47.46M112.04 185.185a.47.47 0 0 1-.47-.469v-25.455a.47.47 0 0 1 .939 0v25.46a.467.467 0 0 1-.469.464M115.866 187.366a.473.473 0 0 1-.469-.47v-25.46a.47.47 0 1 1 .939 0v25.46a.47.47 0 0 1-.47.47M119.694 189.551a.47.47 0 0 1-.47-.469v-25.46a.47.47 0 0 1 .939 0v25.46a.47.47 0 0 1-.469.469M123.52 191.732a.47.47 0 0 1-.469-.469v-25.44a.47.47 0 1 1 .939 0v25.46a.462.462 0 0 1-.47.449M127.347 193.918a.467.467 0 0 1-.464-.469v-25.46a.47.47 0 0 1 .913-.194q.032.094.021.194v25.46a.47.47 0 0 1-.47.469M131.174 193.919a.467.467 0 0 1-.464-.469v-23.28a.47.47 0 0 1 .118-.362.47.47 0 0 1 .539-.115.47.47 0 0 1 .277.477v23.28a.47.47 0 0 1-.47.469M135.006 190.637a.46.46 0 0 1-.434-.286.5.5 0 0 1-.036-.178v-17.817a.5.5 0 0 1 .021-.194.46.46 0 0 1 .255-.284.48.48 0 0 1 .382 0 .47.47 0 0 1 .256.284q.03.095.02.194v17.817a.464.464 0 0 1-.464.464M138.833 186.831a.47.47 0 0 1-.47-.47v-11.823a.463.463 0 0 1 .276-.478.47.47 0 0 1 .638.284q.03.094.02.194v11.823a.47.47 0 0 1-.464.47M142.659 183.383a.473.473 0 0 1-.469-.47v-6.19a.47.47 0 1 1 .939 0v6.19a.47.47 0 0 1-.47.47"/><path fill="#455A64" d="M142.68 183.816a.42.42 0 0 1-.232-.066l-62.28-35.678a.473.473 0 0 1-.207-.658.48.48 0 0 1 .302-.224.46.46 0 0 1 .37.069l62.279 35.678a.474.474 0 0 1 .172.642.46.46 0 0 1-.404.237M138.267 187.658a.5.5 0 0 1-.232-.06l-57.145-32.74a.473.473 0 0 1-.144-.621.466.466 0 0 1 .609-.192l57.145 32.74a.47.47 0 0 1 .228.529.46.46 0 0 1-.461.344M134.163 191.692a.46.46 0 0 1-.233-.065l-52.672-30.186a.47.47 0 0 1-.22-.281.464.464 0 0 1 .328-.575.48.48 0 0 1 .357.043l52.692 30.186a.47.47 0 0 1 .223.531.47.47 0 0 1-.46.347z"/><path fill="#F7921E" d="M77.26 122.91a1.41 1.41 0 0 1-1.291-1.958 1.4 1.4 0 0 1 .604-.677l23.153-12.98a1.408 1.408 0 0 1 1.379 2.454l-23.158 12.98c-.21.118-.446.18-.687.181"/><path fill="#455A64" d="M74.59 123.95a.94.94 0 0 1-.907-.702.94.94 0 0 1 .447-1.055l2.287-1.283a.95.95 0 0 1 .738-.125.94.94 0 0 1 .71.818.94.94 0 0 1-.534.943l-2.282 1.282a.95.95 0 0 1-.46.122"/><path fill="#FFA8A7" d="M106.714 107.72c-.616-1.298-1.515-3.363-2.777-4.039l-6.508-3.994-13.894-9.365-8.113 3.842c4.251 4.63 18.009 9.593 18.009 9.593q.226.627.565 1.201h-.04c.096.217 3.22 7.225 4.256 7.119.454-.041.535-.652.505-1.323l-.56-2.711c.69.202 1.322.323 1.781.444.687.182 1.363 1.515 1.722 2.121a1.34 1.34 0 0 0 .84.632 1.34 1.34 0 0 0 1.038-.163l2.716-1.676a1.29 1.29 0 0 0 .601-1.171 1.2 1.2 0 0 0-.141-.51"/><path fill="#263238" d="m63.66 65.549-5.297 22.89a6.46 6.46 0 0 0 .54 4.372 6.423 6.423 0 0 0 8.977 2.6l11.925-7.043v-22.82z"/><path fill="#FFA8A7" d="m66.007 83.608 12.117-4.943a5.82 5.82 0 0 1 8.047 5.372v6.412l-18.342 5.72z"/><path fill="#F7921E" d="M77.225 79.31s3.832 2.394 4.352 6.367c0 0-2.08 3.327-8.684 3.135 0 0-1.514-5.28-4.11-6.33l-2.776 1.125-.207 13.268 1.888 2.706a2.2 2.2 0 0 1 .167 2.251l-1.57 3.146s2.832 4.866 10.233 4.866a11.36 11.36 0 0 0 7.37-2.928l-.211-8.406s9.375-6.33-4.19-20.063z"/><path fill="#263238" d="M67.017 60.626s-.702-2.67-1.177-2.625c-.474.045-.419 2.388-.419 2.388s-2.221-.197-1.989.439 2.822 1.292 2.822 1.292z"/><path fill="#263238" d="M63.563 69.9c1.01 7.542 7.366 7.542 7.366 7.542l13.323-5.862a4.95 4.95 0 0 0 1.313-2.903 8.7 8.7 0 0 0 0-2.494v-.025c-.43-3.17-2.797-6.563-7.967-7.628a17 17 0 0 0-3.438-.328 16 16 0 0 0-1.666.08c-4.039.394-6.83 2.272-8.168 5.185-.3.659-.524 1.35-.667 2.06a13.1 13.1 0 0 0-.096 4.372"/><path fill="#FFA8A7" d="M72.429 84.506a3.075 3.075 0 0 0 4.962-2.424v-9.738H70.93v9.087a3.9 3.9 0 0 0 1.5 3.075"/><path fill="#F28F8F" d="M77.391 80.856a11.3 11.3 0 0 1-6.462-6.144v-2.368h6.462z"/><path fill="#FFA8A7" d="M75.993 60.469c2.454 0 7.659 1.368 8.264 7.775.606 6.406 0 11.384-3.291 11.864S69.98 78.189 68.95 69.889s4.655-9.42 7.043-9.42"/><path fill="#F28F8F" d="M79.85 70.96v3.782l2.216-.681z"/><path fill="#263238" d="M76.609 71.611a.773.773 0 1 0 1.546.01.773.773 0 0 0-1.546-.01M81.683 71.077a.773.773 0 1 0 1.545 0 .773.773 0 0 0-1.545 0M83.394 69.47l-1.515-.893s.576-.6 1.151-.242a1.055 1.055 0 0 1 .364 1.136"/><path fill="#F28F8F" d="M80.895 76.272a3.3 3.3 0 0 1-2.075-.555s-.141 1.09.773 1.302a1.19 1.19 0 0 0 1.302-.747"/><path fill="#263238" d="M82.208 62.65s-.924 8.85-12.96 9.128c0 0-3.635-8.795 3.534-11.653 7.17-2.857 9.426 2.525 9.426 2.525"/><path fill="#FFA8A7" d="M71.263 72.096c.772 1.343.575 2.968-.505 3.534-.692.358-2.742-.414-3.534-1.757-.793-1.343-.339-2.49.712-3.095 1.05-.606 2.554-.02 3.327 1.318"/><path fill="#F28F8F" d="m67.789 92.488-1.974 4.387a3.8 3.8 0 0 0 1.585-.338l.874-3.888a.257.257 0 0 0-.485-.161"/><path fill="#FFA8A7" d="M86.67 120.476a7 7 0 0 0-2.66-3.246l-1.141-.747s3.12.717 3.16-.333-7.4-3.782-7.4-3.782l-14.89-11.293s1.051-1.717 2.293-4.216c2.125-.116 3.367-1.843 4.07-3.534a8.16 8.16 0 0 0-1.621-8.84q-.219-.232-.465-.434a3.7 3.7 0 0 0-1.14-.803l-1.01.409a10.75 10.75 0 0 0-5.68 5.326c-1.909 3.989-4.64 10.097-5.049 13.394-.636 5.119 18.528 13.238 18.528 13.238 1.162 4.038 4.66 5.518 6.195 6.028a2.66 2.66 0 0 1 1.545 1.327 1.35 1.35 0 0 0 1.33.744c.179-.016.353-.068.513-.153l2.822-1.515a1.27 1.27 0 0 0 .6-1.57"/><path fill="#F28F8F" d="m67.4 96.537.874-3.887a.25.25 0 0 0-.12-.276.3.3 0 0 0-.102-.032 57 57 0 0 1-2.02 4.543 3.8 3.8 0 0 0 1.368-.348"/><path fill="#fff" d="M116.208 23.318H57.176a4.87 4.87 0 0 0-4.872 4.872v8.11a4.866 4.866 0 0 0 4.872 4.864h44.118c.115 2.237-.601 4.467-4.277 6.082 5.02.176 9.041-1.885 10.028-6.082h9.163a4.86 4.86 0 0 0 4.501-3.001c.244-.591.371-1.224.371-1.864V28.19a4.875 4.875 0 0 0-4.872-4.872"/><path fill="#455A64" d="M97.619 47.543h-.615a.304.304 0 0 1-.26-.45.3.3 0 0 1 .145-.138c3.608-1.582 4.142-3.724 4.108-5.487h-43.82A5.183 5.183 0 0 1 52 36.292v-8.11A5.19 5.19 0 0 1 57.176 23h59.032a5.19 5.19 0 0 1 5.176 5.183v8.109a5.185 5.185 0 0 1-5.176 5.176h-8.92c-1.027 3.831-4.601 6.074-9.67 6.074M57.176 23.6a4.57 4.57 0 0 0-4.581 4.568v8.11a4.57 4.57 0 0 0 4.56 4.56h44.119a.305.305 0 0 1 .304.29c.088 1.663-.189 3.988-3.284 5.785 4.494-.203 7.602-2.331 8.433-5.838a.31.31 0 0 1 .298-.237h9.163a4.57 4.57 0 0 0 4.561-4.56v-8.11a4.57 4.57 0 0 0-4.561-4.568z"/><path fill="#F7921E" d="m62.055 28.117 1.149 2.33 2.574.38a.5.5 0 0 1 .331.85l-1.858 1.812.44 2.567a.507.507 0 0 1-.73.527l-2.298-1.21-2.31 1.21a.5.5 0 0 1-.724-.527l.44-2.567-1.866-1.811a.5.5 0 0 1 .277-.852l2.548-.378 1.149-2.332a.5.5 0 0 1 .878 0M74.61 28.115l1.156 2.33 2.567.38a.5.5 0 0 1 .278.85l-1.859 1.812.44 2.567a.507.507 0 0 1-.73.528l-2.298-1.21-2.304 1.21a.5.5 0 0 1-.723-.528l.44-2.567-1.866-1.811a.5.5 0 0 1 .277-.852l2.575-.378 1.148-2.331a.5.5 0 0 1 .9 0M87.138 28.117l1.156 2.33 2.567.38a.5.5 0 0 1 .284.85L89.28 33.49l.44 2.567a.5.5 0 0 1-.724.527l-2.304-1.21-2.297 1.21a.507.507 0 0 1-.73-.527l.44-2.567-1.86-1.811a.5.5 0 0 1 .278-.852l2.568-.378 1.155-2.332a.493.493 0 0 1 .892 0M99.673 28.115l1.148 2.33 2.575.38a.5.5 0 0 1 .412.613.5.5 0 0 1-.135.238l-1.865 1.81.439 2.569a.5.5 0 0 1-.198.487.5.5 0 0 1-.525.04l-2.304-1.21-2.297 1.21a.506.506 0 0 1-.73-.528l.439-2.567-1.858-1.811a.5.5 0 0 1 .277-.852l2.574-.378 1.149-2.331a.5.5 0 0 1 .899 0M112.201 28.116l1.149 2.332 2.575.378a.5.5 0 0 1 .412.613.5.5 0 0 1-.135.238l-1.865 1.811.439 2.568a.5.5 0 0 1-.199.487.5.5 0 0 1-.524.04l-2.304-1.21-2.298 1.21a.506.506 0 0 1-.73-.527l.446-2.568-1.838-1.81a.502.502 0 0 1 .277-.852l2.575-.378 1.149-2.332a.49.49 0 0 1 .436-.255.5.5 0 0 1 .435.255"/></svg>