<svg width="256" height="256" viewBox="0 0 256 256" fill="none" xmlns="http://www.w3.org/2000/svg">
<path d="M128.609 99.8828C159.601 99.8828 187.635 107.489 207.904 119.761C228.182 132.038 240.615 148.93 240.615 167.497C240.615 186.064 228.182 202.956 207.904 215.233C187.635 227.505 159.601 235.111 128.609 235.111C97.6171 235.111 69.5832 227.505 49.314 215.233C29.0356 202.956 16.603 186.064 16.603 167.497C16.6031 148.93 29.0356 132.038 49.314 119.761C69.5832 107.489 97.6171 99.8828 128.609 99.8828Z" stroke="#D5D5D5"/>
<path d="M168.593 134.508L155.757 67.7874C155.723 67.5567 155.634 67.3376 155.498 67.1485C155.362 66.9594 155.182 66.8058 154.974 66.7009L153.192 65.6579C152.77 65.3319 152.283 65.1003 151.764 64.9788C151.663 64.9765 151.563 64.9875 151.465 65.0114L151.362 65.0494C151.208 65.1079 151.059 65.1788 150.916 65.2613L70.0765 111.92C69.8748 112.048 69.6919 112.204 69.5332 112.382C69.4409 112.485 69.354 112.594 69.2725 112.703C69.191 112.811 69.1421 112.914 69.0878 113.018C68.7672 113.59 68.6467 114.254 68.7455 114.903L81.5878 181.618C81.8012 182.722 82.4192 183.706 83.3207 184.378C83.7802 184.571 84.2763 184.662 84.7744 184.644C85.2726 184.626 85.7608 184.5 86.2053 184.274C86.1727 184.274 86.3194 184.22 86.4226 184.16L167.262 137.485C167.747 137.169 168.13 136.72 168.366 136.193C168.602 135.665 168.681 135.08 168.593 134.508Z" fill="#455A64"/>
<path d="M84.2759 183.194L71.4336 116.473C71.3556 115.897 71.4453 115.311 71.6919 114.785C71.9386 114.259 72.3318 113.815 72.8243 113.507L153.664 66.8314C153.856 66.6935 154.081 66.6089 154.316 66.5859C154.552 66.563 154.789 66.6026 155.004 66.7007C155.219 66.7989 155.404 66.952 155.541 67.1448C155.678 67.3375 155.761 67.563 155.783 67.7983L168.62 134.519C168.704 135.093 168.621 135.68 168.38 136.208C168.139 136.737 167.751 137.184 167.261 137.496L86.4054 184.161C86.2133 184.301 85.9873 184.388 85.7505 184.413C85.5137 184.437 85.2747 184.398 85.0579 184.3C84.8411 184.201 84.6545 184.047 84.5171 183.853C84.3796 183.658 84.2964 183.431 84.2759 183.194Z" fill="#37474F"/>
<path d="M86.1775 184.274C85.733 184.5 85.2447 184.626 84.7466 184.644C84.2484 184.662 83.7524 184.571 83.2929 184.378C82.3914 183.706 81.7734 182.722 81.5599 181.618L68.7177 114.903C68.6189 114.254 68.7393 113.59 69.06 113.018L71.7762 114.588C71.4551 115.158 71.3346 115.82 71.4339 116.467L84.2762 183.193C84.2941 183.408 84.3641 183.615 84.4801 183.797C84.5961 183.978 84.7546 184.129 84.9419 184.235C85.1291 184.342 85.3395 184.401 85.5548 184.408C85.7701 184.414 85.9838 184.369 86.1775 184.274Z" fill="#263238"/>
<path d="M153.192 65.6471L154.99 66.6955C154.773 66.5997 154.535 66.5604 154.299 66.5813C154.062 66.6022 153.835 66.6826 153.638 66.815L72.8249 113.507C72.391 113.768 72.0377 114.144 71.8036 114.593L69.0874 113.023C69.1417 112.92 69.2069 112.811 69.2721 112.708C69.3373 112.605 69.4405 112.491 69.5329 112.387C69.6916 112.209 69.8744 112.054 70.0761 111.926L150.916 65.2559C151.058 65.1734 151.207 65.1025 151.361 65.0441L151.465 65.006C151.562 64.9821 151.663 64.9711 151.763 64.9734C152.282 65.0933 152.769 65.323 153.192 65.6471Z" fill="#455A64"/>
<path d="M87.2477 168.45C86.9281 168.612 86.5769 168.703 86.2185 168.716C85.8602 168.729 85.5033 168.664 85.1726 168.526C84.5246 168.043 84.0793 167.336 83.9231 166.543L74.688 118.542C74.6185 118.077 74.7045 117.601 74.9324 117.189L76.8935 118.319C76.6609 118.73 76.5729 119.206 76.6437 119.672L85.8788 167.673C85.8911 167.828 85.9411 167.977 86.0245 168.108C86.108 168.239 86.2222 168.348 86.3573 168.424C86.4923 168.501 86.6441 168.543 86.7993 168.548C86.9546 168.552 87.1085 168.518 87.2477 168.45Z" fill="#F7921E"/>
<path opacity="0.5" d="M87.2477 168.45C86.9281 168.612 86.5769 168.703 86.2185 168.716C85.8602 168.729 85.5033 168.664 85.1726 168.526C84.5246 168.043 84.0793 167.336 83.9231 166.543L74.688 118.542C74.6185 118.077 74.7045 117.601 74.9324 117.189L76.8935 118.319C76.6609 118.73 76.5729 119.206 76.6437 119.672L85.8788 167.673C85.8911 167.828 85.9411 167.977 86.0245 168.108C86.108 168.239 86.2222 168.348 86.3573 168.424C86.4923 168.501 86.6441 168.543 86.7993 168.548C86.9546 168.552 87.1085 168.518 87.2477 168.45Z" fill="white"/>
<path d="M85.8634 167.673L76.6283 119.672C76.5686 119.259 76.629 118.837 76.8025 118.458C76.9759 118.078 77.2549 117.757 77.6062 117.531L153.66 73.5941C153.799 73.4947 153.961 73.4338 154.131 73.4175C154.301 73.4012 154.472 73.4301 154.627 73.5013C154.782 73.5724 154.915 73.6833 155.013 73.8227C155.112 73.9621 155.172 74.125 155.187 74.2949L164.422 122.29C164.481 122.704 164.42 123.126 164.245 123.505C164.071 123.885 163.791 124.206 163.438 124.431L87.4008 168.373C87.2626 168.477 87.0989 168.542 86.927 168.561C86.755 168.58 86.5812 168.552 86.4238 168.48C86.2664 168.408 86.1313 168.295 86.0327 168.153C85.934 168.011 85.8756 167.845 85.8634 167.673Z" fill="#F7921E"/>
<path opacity="0.7" d="M85.8634 167.673L76.6283 119.672C76.5686 119.259 76.629 118.837 76.8025 118.458C76.9759 118.078 77.2549 117.757 77.6062 117.531L153.66 73.5941C153.799 73.4947 153.961 73.4338 154.131 73.4175C154.301 73.4012 154.472 73.4301 154.627 73.5013C154.782 73.5724 154.915 73.6833 155.013 73.8227C155.112 73.9621 155.172 74.125 155.187 74.2949L164.422 122.29C164.481 122.704 164.42 123.126 164.245 123.505C164.071 123.885 163.791 124.206 163.438 124.431L87.4008 168.373C87.2626 168.477 87.0989 168.542 86.927 168.561C86.755 168.58 86.5812 168.552 86.4238 168.48C86.2664 168.408 86.1313 168.295 86.0327 168.153C85.934 168.011 85.8756 167.845 85.8634 167.673Z" fill="white"/>
<path d="M153.377 72.7635L154.67 73.5186C154.514 73.4508 154.343 73.4232 154.173 73.4384C154.003 73.4536 153.84 73.511 153.698 73.6055L77.6441 117.537C77.3319 117.726 77.0795 117.999 76.9162 118.325L74.9551 117.195C74.9985 117.119 75.042 117.043 75.0909 116.967C75.1483 116.886 75.2119 116.81 75.281 116.739C75.4001 116.609 75.5373 116.498 75.6885 116.407L151.742 72.4702C151.844 72.413 151.949 72.3622 152.057 72.3181C152.082 72.3126 152.108 72.3126 152.133 72.3181C152.203 72.3054 152.275 72.3054 152.345 72.3181C152.717 72.3904 153.07 72.5424 153.377 72.7635Z" fill="#F7921E"/>
<path opacity="0.85" d="M153.377 72.7635L154.67 73.5186C154.514 73.4508 154.343 73.4232 154.173 73.4384C154.003 73.4536 153.84 73.511 153.698 73.6055L77.6441 117.537C77.3319 117.726 77.0795 117.999 76.9162 118.325L74.9551 117.195C74.9985 117.119 75.042 117.043 75.0909 116.967C75.1483 116.886 75.2119 116.81 75.281 116.739C75.4001 116.609 75.5373 116.498 75.6885 116.407L151.742 72.4702C151.844 72.413 151.949 72.3622 152.057 72.3181C152.082 72.3126 152.108 72.3126 152.133 72.3181C152.203 72.3054 152.275 72.3054 152.345 72.3181C152.717 72.3904 153.07 72.5424 153.377 72.7635Z" fill="white"/>
<path d="M137.631 115.589C137.359 115.404 137.134 115.158 136.974 114.87C136.815 114.582 136.725 114.261 136.713 113.932V47.0213C136.732 46.682 136.83 46.3519 137 46.0576C137.17 45.7632 137.407 45.5128 137.691 45.3264L180.96 20.283C181.243 20.1044 181.57 20.0066 181.905 20.0003C182.24 19.994 182.57 20.0794 182.86 20.2472C183.149 20.4151 183.388 20.659 183.549 20.9525C183.71 21.2461 183.788 21.5782 183.774 21.9128V88.8074C183.755 89.1467 183.656 89.4768 183.487 89.7712C183.317 90.0655 183.08 90.3159 182.796 90.5023L139.527 115.546C139.236 115.701 138.913 115.786 138.584 115.793C138.255 115.801 137.928 115.731 137.631 115.589Z" fill="#F0F0F0"/>
<path d="M139.526 115.557L182.795 90.5132C183.08 90.3268 183.316 90.0764 183.486 89.7821C183.656 89.4877 183.754 89.1576 183.773 88.8183V21.9074C183.773 21.2826 183.333 21.0273 182.795 21.3641L139.526 46.4075C139.243 46.5933 139.007 46.8429 138.837 47.1363C138.667 47.4296 138.568 47.7586 138.548 48.097V114.992C138.548 115.616 138.983 115.866 139.526 115.557Z" fill="#FAFAFA"/>
<path d="M183.23 21.7005C183.266 21.763 183.281 21.8352 183.273 21.9069V88.807C183.258 89.0591 183.184 89.3042 183.058 89.5229C182.932 89.7416 182.756 89.928 182.545 90.0673L139.276 115.111C139.218 115.148 139.154 115.174 139.086 115.187C139.051 115.124 139.036 115.052 139.043 114.98V48.0639C139.061 47.8118 139.136 47.5672 139.263 47.3488C139.39 47.1303 139.566 46.9438 139.776 46.8036L183.04 21.7602C183.097 21.7239 183.162 21.7016 183.23 21.695M183.23 21.2007C183.076 21.2065 182.926 21.2534 182.795 21.3365L139.526 46.3799C139.243 46.5657 139.007 46.8153 138.837 47.1086C138.667 47.402 138.568 47.731 138.548 48.0694V114.991C138.548 115.431 138.766 115.687 139.092 115.687C139.247 115.681 139.398 115.636 139.532 115.556L182.801 90.5128C183.085 90.3264 183.321 90.076 183.491 89.7816C183.661 89.4872 183.76 89.1571 183.779 88.8178V21.9069C183.779 21.4614 183.556 21.2061 183.235 21.2061L183.23 21.2007Z" fill="#EBEBEB"/>
<path d="M139.396 115.622C139.112 115.772 138.794 115.845 138.473 115.833C138.152 115.821 137.839 115.724 137.568 115.552C137.296 115.381 137.074 115.141 136.925 114.856C136.776 114.572 136.704 114.253 136.718 113.932V47.0212C136.73 46.6803 136.827 46.3478 137 46.0542L138.837 47.1407C138.659 47.4309 138.56 47.7622 138.549 48.1022V114.991C138.549 115.562 138.913 115.823 139.396 115.622Z" fill="#E0E0E0"/>
<path d="M160.962 40.3771L176.221 31.4408C176.694 31.1638 177.08 31.3865 177.08 31.9406V32.31C177.063 32.6087 176.977 32.8994 176.828 33.1588C176.679 33.4182 176.471 33.6391 176.221 33.8039L160.962 42.7402C160.489 43.0119 160.104 42.7891 160.104 42.2405V41.871C160.12 41.5723 160.206 41.2817 160.355 41.0223C160.504 40.7629 160.712 40.5419 160.962 40.3771Z" fill="#E0E0E0"/>
<path d="M160.962 46.2069L176.221 37.2706C176.694 36.9935 177.08 37.2162 177.08 37.7649V38.1071C177.064 38.4061 176.979 38.6973 176.83 38.9569C176.68 39.2165 176.472 39.4372 176.221 39.6011L160.962 48.5374C160.489 48.8144 160.104 48.5917 160.104 48.043V47.6953C160.12 47.3973 160.206 47.1072 160.355 46.8486C160.504 46.59 160.712 46.3702 160.962 46.2069Z" fill="#E0E0E0"/>
<path d="M160.962 52.0295L176.221 43.0932C176.694 42.8216 177.08 43.0443 177.08 43.593V43.9353C177.063 44.234 176.977 44.5246 176.828 44.784C176.679 45.0434 176.471 45.2644 176.221 45.4292L160.962 54.3655C160.489 54.6371 160.104 54.4144 160.104 53.8657V53.5235C160.12 53.2248 160.206 52.9341 160.355 52.6747C160.504 52.4153 160.712 52.1943 160.962 52.0295Z" fill="#E0E0E0"/>
<path d="M144.845 72.9555L176.222 54.7461C176.695 54.4744 177.081 54.6972 177.081 55.2458V55.5881C177.064 55.8868 176.978 56.1775 176.829 56.4369C176.68 56.6963 176.472 56.9172 176.222 57.082L144.845 75.2914C144.372 75.563 143.986 75.3403 143.986 74.7916V74.4494C144.003 74.1507 144.089 73.86 144.238 73.6006C144.387 73.3412 144.595 73.1203 144.845 72.9555Z" fill="#E0E0E0"/>
<path d="M144.845 67.1264L176.222 48.9224C176.695 48.6454 177.081 48.8681 177.081 49.4168V49.7644C177.064 50.0625 176.978 50.3526 176.829 50.6112C176.68 50.8698 176.472 51.0896 176.222 51.2529L144.845 69.4623C144.372 69.7394 143.986 69.5167 143.986 68.9626V68.6203C144.003 68.3216 144.089 68.0309 144.238 67.7715C144.387 67.5121 144.595 67.2912 144.845 67.1264Z" fill="#E0E0E0"/>
<path d="M144.845 78.8227L176.222 60.6187C176.695 60.3416 177.081 60.5644 177.081 61.113V61.4607C177.064 61.7588 176.978 62.0489 176.829 62.3074C176.68 62.566 176.472 62.7859 176.222 62.9492L144.845 81.1586C144.372 81.4357 143.986 81.213 143.986 80.6588V80.3166C144.003 80.0179 144.089 79.7272 144.238 79.4678C144.387 79.2084 144.595 78.9875 144.845 78.8227Z" fill="#E0E0E0"/>
<path d="M144.845 84.6518L176.222 66.4478C176.695 66.1707 177.081 66.3935 177.081 66.9421V67.2844C177.064 67.5831 176.978 67.8738 176.829 68.1332C176.68 68.3926 176.472 68.6135 176.222 68.7783L144.845 86.9877C144.372 87.2593 143.986 87.0366 143.986 86.4879V86.1457C144.003 85.847 144.089 85.5563 144.238 85.2969C144.387 85.0375 144.595 84.8166 144.845 84.6518Z" fill="#E0E0E0"/>
<path d="M144.845 90.4804L176.222 72.271C176.695 71.9993 177.081 72.2221 177.081 72.7707V73.113C177.064 73.4117 176.978 73.7024 176.829 73.9618C176.68 74.2212 176.472 74.4421 176.222 74.6069L144.845 92.8109C144.372 93.0879 143.986 92.8652 143.986 92.3166V91.9689C144.003 91.6708 144.089 91.3807 144.238 91.1221C144.387 90.8636 144.595 90.6437 144.845 90.4804Z" fill="#E0E0E0"/>
<path d="M144.845 96.3041L176.222 78.1001C176.695 77.8231 177.081 78.0458 177.081 78.5945V78.9422C177.064 79.2402 176.978 79.5303 176.829 79.7889C176.68 80.0475 176.472 80.2673 176.222 80.4306L144.845 98.6401C144.372 98.9117 143.986 98.689 143.986 98.1403V97.7981C144.003 97.4994 144.089 97.2087 144.238 96.9493C144.387 96.6899 144.595 96.4689 144.845 96.3041Z" fill="#E0E0E0"/>
<path d="M144.845 102.133L176.222 83.9184C176.695 83.6468 177.081 83.8695 177.081 84.4182V84.7605C177.064 85.0592 176.978 85.3498 176.829 85.6092C176.68 85.8686 176.472 86.0896 176.222 86.2544L144.845 104.458C144.372 104.735 143.986 104.513 143.986 103.964V103.622C144.003 103.324 144.089 103.034 144.238 102.775C144.387 102.516 144.595 102.297 144.845 102.133Z" fill="#E0E0E0"/>
<path d="M144.215 49.1505L156.884 41.833V56.4625L144.215 63.7745V49.1505Z" fill="#F7921E"/>
<path d="M146.116 50.6119V55.0013L146.512 54.7623V53.4205C146.555 52.9857 146.699 52.567 146.933 52.1981C147.167 51.8292 147.484 51.5204 147.86 51.2964L149.734 50.2099V56.7288C149.727 57.1682 149.617 57.5999 149.412 57.9887C149.207 58.3776 148.913 58.7127 148.555 58.9669L147.381 59.646V60.1132L153.716 56.4572V55.99L152.537 56.669C151.885 57.0439 151.358 56.669 151.358 55.789V49.2701L153.232 48.1836C153.982 47.749 154.585 48.0043 154.585 48.7269V50.0687L154.981 49.8459V45.4565L146.116 50.6119Z" fill="#FAFAFA"/>
<path d="M90.9796 76.2185V114.789C90.9635 115.007 90.8972 115.218 90.7861 115.407C90.6749 115.595 90.5218 115.755 90.3386 115.875L51.9803 138.072C51.6326 138.273 51.3447 138.11 51.3447 137.703V135.687L88.9371 113.957V76.6586L90.3386 75.8491C90.6917 75.6481 90.9796 75.8111 90.9796 76.2185Z" fill="#E0E0E0"/>
<path d="M88.9371 76.6587V113.974L51.3447 135.704V99.1163C51.3513 98.8948 51.417 98.6791 51.5349 98.4915C51.6372 98.2947 51.7912 98.1295 51.9803 98.0135L88.9371 76.6587Z" fill="#F7921E"/>
<path opacity="0.8" d="M88.9371 76.6587V113.974L51.3447 135.704V99.1163C51.3513 98.8948 51.417 98.6791 51.5349 98.4915C51.6372 98.2947 51.7912 98.1295 51.9803 98.0135L88.9371 76.6587Z" fill="white"/>
<path d="M79.6647 92.6134C79.6269 92.5762 79.585 92.5434 79.5398 92.5156L77.1549 91.1412C76.9744 91.0372 76.7607 91.0069 76.5583 91.0565C76.3559 91.106 76.1805 91.2318 76.0685 91.4074L67.5993 112.284L61.9605 108.552C61.9228 108.522 61.8829 108.495 61.841 108.471H61.8138L59.4616 107.113C59.2842 107.006 59.0728 106.971 58.8707 107.016C58.6687 107.06 58.4913 107.18 58.3751 107.352L50.1504 123.964V134.997L52.5407 136.377L89.4811 115.06C89.6894 114.939 89.8623 114.766 89.9825 114.557C90.1026 114.348 90.1658 114.111 90.1656 113.87V103.402L79.6647 92.6134Z" fill="#F7921E"/>
<path opacity="0.15" d="M79.6647 92.6134C79.6269 92.5762 79.585 92.5434 79.5398 92.5156L77.1549 91.1412C76.9744 91.0372 76.7607 91.0069 76.5583 91.0565C76.3559 91.106 76.1805 91.2318 76.0685 91.4074L67.5993 112.284L61.9605 108.552C61.9228 108.522 61.8829 108.495 61.841 108.471H61.8138L59.4616 107.113C59.2842 107.006 59.0728 106.971 58.8707 107.016C58.6687 107.06 58.4913 107.18 58.3751 107.352L50.1504 123.964V134.997L52.5407 136.377L89.4811 115.06C89.6894 114.939 89.8623 114.766 89.9825 114.557C90.1026 114.348 90.1658 114.111 90.1656 113.87V103.402L79.6647 92.6134Z" fill="black"/>
<path d="M52.541 136.377V125.344L60.744 108.715C60.8077 108.62 60.8909 108.539 60.988 108.479C61.0852 108.418 61.1941 108.379 61.3076 108.363C61.421 108.348 61.5365 108.357 61.6463 108.389C61.7561 108.422 61.8577 108.477 61.9445 108.552L69.8161 113.729L78.4319 92.7545C78.4964 92.6549 78.5822 92.5709 78.683 92.5084C78.7839 92.4458 78.8973 92.4064 79.0152 92.3929C79.133 92.3794 79.2524 92.3922 79.3648 92.4303C79.4772 92.4684 79.5797 92.5308 79.6651 92.6133L90.1388 103.402V113.87C90.1389 114.111 90.0758 114.348 89.9557 114.557C89.8355 114.765 89.6626 114.939 89.4543 115.06L52.541 136.377Z" fill="#F7921E"/>
<path opacity="0.15" d="M69.8161 113.729L67.3335 119.77L68.9089 113.137L69.8161 113.729Z" fill="black"/>
<path d="M92.5231 73.8501C92.5262 73.8248 92.5262 73.7993 92.5231 73.774C92.4878 73.5868 92.4153 73.4086 92.3098 73.25C92.2044 73.0914 92.0682 72.9555 91.9093 72.8505L90.7522 72.2203C90.5539 72.1214 90.3354 72.0698 90.1139 72.0698C89.8923 72.0698 89.6738 72.1214 89.4755 72.2203L48.3793 95.9382C48.1896 96.0569 48.0327 96.2212 47.923 96.4163C47.8098 96.6056 47.7462 96.8205 47.7383 97.041V145.313C47.7528 145.532 47.8183 145.744 47.9297 145.933C48.041 146.122 48.195 146.281 48.3793 146.4L49.4658 147.046C49.6398 147.134 49.8297 147.184 50.024 147.196C50.2183 147.207 50.4129 147.178 50.5957 147.111H50.6392C50.6756 147.1 50.7102 147.083 50.7424 147.063L91.8495 123.323C92.032 123.203 92.1842 123.043 92.2945 122.854C92.4047 122.666 92.47 122.454 92.4851 122.237V73.9478C92.5004 73.9163 92.5131 73.8836 92.5231 73.8501ZM90.9803 114.81C90.9642 115.029 90.8979 115.24 90.7868 115.429C90.6756 115.617 90.5225 115.777 90.3393 115.897L51.981 138.072C51.6333 138.273 51.3454 138.11 51.3454 137.703V99.1325C51.3597 98.9145 51.4246 98.7028 51.5349 98.5142C51.6453 98.3256 51.798 98.1653 51.981 98.046L90.3393 75.8872C90.6924 75.6808 90.9803 75.8438 90.9803 76.2512V114.81Z" fill="#F0F0F0"/>
<path d="M50.6397 147.128C50.4566 147.193 50.2622 147.221 50.0681 147.21C49.874 147.199 49.6841 147.148 49.5097 147.062L48.4233 146.416C48.2383 146.298 48.0839 146.138 47.9725 145.95C47.8611 145.761 47.7959 145.548 47.7822 145.329V97.0407C47.7896 96.8194 47.8552 96.6039 47.9724 96.416L50.3626 97.7959C50.2494 97.9872 50.1859 98.2038 50.1779 98.426V146.693C50.1508 147.041 50.3626 147.214 50.6397 147.128Z" fill="#E0E0E0"/>
<path d="M92.5237 73.85C92.5207 73.8229 92.5207 73.7956 92.5237 73.7685C92.4422 73.5023 92.1923 73.4154 91.9044 73.5892L50.7973 97.3288C50.6093 97.4456 50.4541 97.6082 50.3464 97.8015C50.2292 97.9914 50.1637 98.2086 50.1562 98.4316V146.699C50.1562 147.046 50.3735 147.242 50.6506 147.139H50.6941L50.7973 147.09L91.9044 123.35C92.0868 123.23 92.2391 123.07 92.3493 122.881C92.4596 122.693 92.5248 122.481 92.54 122.264V73.9478C92.537 73.9148 92.5316 73.8821 92.5237 73.85ZM90.9809 114.81C90.9647 115.029 90.8985 115.24 90.7873 115.428C90.6761 115.617 90.523 115.777 90.3398 115.897L51.9815 138.072C51.6339 138.273 51.346 138.11 51.346 137.702V99.1324C51.3526 98.9109 51.4182 98.6953 51.5361 98.5077C51.6384 98.3108 51.7924 98.1456 51.9815 98.0296L88.922 76.6748L90.3235 75.8654C90.6767 75.6644 90.9646 75.8274 90.9646 76.2348L90.9809 114.81Z" fill="#F5F5F5"/>
<path d="M66.36 98.4751L67.2889 96.8997L65.3821 95.8132C65.09 95.6799 64.7677 95.6262 64.4481 95.6577C64.1284 95.6892 63.8228 95.8047 63.5623 95.9925C62.8125 96.4809 62.1885 97.1394 61.7411 97.9144C61.2937 98.6893 61.0354 99.559 60.9873 100.453C60.9602 100.765 61.0139 101.079 61.1433 101.364C61.2727 101.65 61.4734 101.897 61.7261 102.082L63.5894 103.185L64.4749 101.68C65.4255 100.837 66.0853 99.7155 66.36 98.4751Z" fill="#F7921E"/>
<path opacity="0.15" d="M66.36 98.4751L67.2889 96.8997L65.3821 95.8132C65.09 95.6799 64.7677 95.6262 64.4481 95.6577C64.1284 95.6892 63.8228 95.8047 63.5623 95.9925C62.8125 96.4809 62.1885 97.1394 61.7411 97.9144C61.2937 98.6893 61.0354 99.559 60.9873 100.453C60.9602 100.765 61.0139 101.079 61.1433 101.364C61.2727 101.65 61.4734 101.897 61.7261 102.082L63.5894 103.185L64.4749 101.68C65.4255 100.837 66.0853 99.7155 66.36 98.4751Z" fill="black"/>
<path d="M65.4373 97.0622C66.8606 96.2365 68.0122 96.9047 68.0122 98.5453C67.9641 99.4388 67.7059 100.308 67.2585 101.083C66.811 101.858 66.1871 102.517 65.4373 103.005C64.014 103.826 62.8623 103.163 62.8623 101.522C62.91 100.629 63.168 99.7588 63.6155 98.9837C64.063 98.2087 64.6872 97.5503 65.4373 97.0622Z" fill="#F7921E"/>
<path d="M170.501 74.0068L170.533 135.779C170.5 136.408 170.318 137.021 170.003 137.567C169.688 138.112 169.248 138.576 168.719 138.919L87.352 185.866C86.3579 186.441 85.5376 185.866 85.5376 185.062V110.491C85.5637 109.86 85.7507 109.247 86.0808 108.709C86.3905 108.161 86.8287 107.697 87.3575 107.356L109.63 94.487C109.872 94.3331 110.15 94.2455 110.436 94.2331C110.722 94.2207 111.006 94.2839 111.26 94.4164H111.309C111.68 94.6426 111.95 95.0022 112.064 95.4214L113.569 101.598L113.808 102.261C113.866 102.509 113.984 102.74 114.151 102.934C114.317 103.127 114.529 103.278 114.766 103.372C115.003 103.466 115.26 103.502 115.514 103.476C115.768 103.45 116.012 103.363 116.225 103.222L168.675 72.9638C168.847 72.8447 169.043 72.767 169.25 72.7368C169.456 72.7066 169.667 72.7248 169.865 72.79L169.936 72.828H169.979C170.162 72.9617 170.306 73.1409 170.397 73.3478C170.489 73.5546 170.524 73.7819 170.501 74.0068Z" fill="#37474F"/>
<path d="M111.259 94.4115C111.005 94.2799 110.72 94.2176 110.434 94.2309C110.148 94.2443 109.871 94.3328 109.63 94.4876L87.3566 107.352C86.825 107.691 86.3863 108.158 86.08 108.71L83.3638 107.123C83.6656 106.57 84.1054 106.104 84.6404 105.771L106.913 92.9068C107.157 92.7571 107.436 92.6742 107.722 92.6666C108.008 92.659 108.291 92.7268 108.543 92.8633L111.259 94.4115Z" fill="#455A64"/>
<path d="M169.875 72.7632C169.678 72.6993 169.468 72.6818 169.263 72.712C169.057 72.7421 168.862 72.8191 168.691 72.937L116.241 103.195C116.028 103.337 115.784 103.426 115.529 103.452C115.275 103.479 115.018 103.444 114.78 103.349C114.542 103.254 114.331 103.104 114.164 102.909C113.998 102.715 113.881 102.483 113.824 102.234L113.579 101.571L165.975 71.3562C166.226 71.2068 166.514 71.1297 166.806 71.1334C166.969 71.1322 167.13 71.1734 167.273 71.2529L169.875 72.7632Z" fill="#455A64"/>
<path d="M86.1941 186.045C86.1671 186.05 86.1396 186.05 86.1126 186.045L83.3095 184.416C83.1384 184.28 83.004 184.103 82.9186 183.902C82.8332 183.701 82.7995 183.482 82.8206 183.264V108.911C82.8465 108.28 83.0335 107.667 83.3638 107.129L86.08 108.71C85.7472 109.246 85.56 109.861 85.5368 110.492V185.062C85.5354 185.273 85.5973 185.479 85.7145 185.655C85.8317 185.83 85.9988 185.966 86.1941 186.045Z" fill="#263238"/>
<path d="M193.951 100.562L190.784 98.7173L115.686 143.419V210.363C115.686 211.439 116.063 212.192 116.652 212.545L118.665 213.713C119.278 214.066 120.113 214.017 121.055 213.477L190.547 173.352C191.531 172.71 192.35 171.845 192.937 170.828C193.524 169.81 193.864 168.669 193.927 167.496L193.951 100.562Z" fill="#E6E6E6"/>
<path opacity="0.15" d="M115.686 152.443V210.378C115.686 211.454 116.063 212.208 116.652 212.56L118.665 213.728C118.934 213.875 119.237 213.951 119.544 213.95L117.675 211.536V153.568L115.686 152.443Z" fill="black"/>
<path d="M119.572 213.555C120.038 213.533 120.49 213.391 120.885 213.145L190.378 173.02C191.304 172.414 192.074 171.599 192.627 170.64C193.179 169.682 193.499 168.607 193.56 167.502V101.239L118.09 144.815V211.532C118.09 212.821 118.645 213.555 119.572 213.555Z" fill="#FAFAFA"/>
<path d="M193.169 101.914V167.501C193.105 168.537 192.802 169.543 192.284 170.442C191.765 171.341 191.045 172.107 190.181 172.681L120.688 212.821C120.353 213.032 119.969 213.155 119.573 213.178C118.607 213.178 118.482 212.038 118.482 211.546V145.037L193.169 101.914ZM193.952 100.562L117.709 144.588V211.531C117.709 213.057 118.472 213.945 119.583 213.945C120.119 213.92 120.638 213.753 121.089 213.463L190.582 173.338C191.566 172.696 192.384 171.831 192.972 170.814C193.559 169.796 193.898 168.655 193.961 167.482V100.562H193.952Z" fill="#E0E0E0"/>
<path d="M190.977 94.1985C190.364 93.8219 189.529 93.8605 188.563 94.4109L119.066 134.536C118.082 135.176 117.263 136.04 116.676 137.057C116.088 138.074 115.749 139.215 115.686 140.387V143.419L117.699 144.587L193.951 100.562V97.5297C193.951 96.4579 193.574 95.7048 192.985 95.3524C192.396 94.9999 191.527 94.5364 190.977 94.1985Z" fill="#F7921E"/>
<path d="M117.709 141.557C117.774 140.385 118.114 139.244 118.701 138.228C119.288 137.211 120.106 136.347 121.089 135.705L190.582 95.5805C192.445 94.5039 193.961 95.3778 193.961 97.5117V100.544L117.709 144.589V141.557Z" fill="#F7921E"/>
<path opacity="0.3" d="M117.709 141.557C117.774 140.385 118.114 139.244 118.701 138.228C119.288 137.211 120.106 136.347 121.089 135.705L190.582 95.5805C192.445 94.5039 193.961 95.3778 193.961 97.5117V100.544L117.709 144.589V141.557Z" fill="white"/>
<path d="M193.024 95.3721C192.406 94.9906 191.576 95.0293 190.61 95.5797L121.089 135.704C120.082 136.324 119.251 137.192 118.675 138.225L116.652 137.066C117.228 136.031 118.059 135.16 119.066 134.536L188.559 94.4065C189.524 93.8609 190.364 93.8223 190.972 94.1989C191.581 94.5755 192.421 95.0196 192.971 95.3479C192.981 95.3576 192.995 95.3624 193.024 95.3721Z" fill="#F7921E"/>
<path opacity="0.45" d="M193.024 95.3721C192.406 94.9906 191.576 95.0293 190.61 95.5797L121.089 135.704C120.082 136.324 119.251 137.192 118.675 138.225L116.652 137.066C117.228 136.031 118.059 135.16 119.066 134.536L188.559 94.4065C189.524 93.8609 190.364 93.8223 190.972 94.1989C191.581 94.5755 192.421 95.0196 192.971 95.3479C192.981 95.3576 192.995 95.3624 193.024 95.3721Z" fill="white"/>
<path d="M182.152 102.779C181.806 103.001 181.517 103.302 181.309 103.657C181.101 104.012 180.98 104.411 180.955 104.821C180.955 105.575 181.481 105.879 182.133 105.507C182.477 105.283 182.763 104.98 182.969 104.625C183.174 104.269 183.293 103.87 183.316 103.46C183.335 102.707 182.804 102.403 182.152 102.779Z" fill="#FAFAFA"/>
<path d="M186.265 100.403C185.922 100.627 185.637 100.928 185.432 101.283C185.227 101.638 185.109 102.036 185.087 102.445C185.087 103.199 185.614 103.503 186.265 103.126C186.609 102.903 186.896 102.601 187.101 102.247C187.307 101.892 187.426 101.493 187.448 101.084C187.463 100.331 186.932 100.027 186.265 100.403Z" fill="#FAFAFA"/>
<path d="M190.407 98.023C190.065 98.2472 189.78 98.5488 189.575 98.9036C189.37 99.2583 189.252 99.6562 189.229 100.065C189.229 100.818 189.756 101.127 190.407 100.751C190.751 100.526 191.038 100.224 191.243 99.8684C191.449 99.5128 191.568 99.1138 191.59 98.7037C191.576 97.9554 191.059 97.6464 190.407 98.023Z" fill="#FAFAFA"/>
<path d="M117.699 144.588V153.568L193.951 109.556V100.562L117.699 144.588Z" fill="#EBEBEB"/>
<path d="M120.766 145.057L128.573 140.572V145.047L120.761 149.557L120.766 145.057Z" fill="#E0E0E0"/>
<path d="M130.502 139.437V141.204L134.399 138.954V137.187L130.502 139.437Z" fill="#E0E0E0"/>
<path d="M130.502 142.17V143.937L134.399 141.687V139.92L130.502 142.17Z" fill="#E0E0E0"/>
<path d="M136.345 136.062V137.829L140.241 135.579V133.812L136.345 136.062Z" fill="#E0E0E0"/>
<path d="M136.345 138.794V140.561L140.241 138.311V136.544L136.345 138.794Z" fill="#E0E0E0"/>
<path d="M142.191 132.687V134.454L146.087 132.204V130.437L142.191 132.687Z" fill="#E0E0E0"/>
<path d="M142.191 135.42V137.187L146.087 134.937V133.17L142.191 135.42Z" fill="#E0E0E0"/>
<path d="M159.722 122.568V124.335L163.618 122.085V120.318L159.722 122.568Z" fill="#E0E0E0"/>
<path d="M159.722 125.302V127.069L163.618 124.819V123.052L159.722 125.302Z" fill="#E0E0E0"/>
<path d="M165.562 119.193V120.96L169.459 118.71V116.943L165.562 119.193Z" fill="#E0E0E0"/>
<path d="M165.562 121.926V123.693L169.459 121.443V119.676L165.562 121.926Z" fill="#E0E0E0"/>
<path d="M171.404 115.819L171.409 117.586L175.305 115.336V113.569L171.404 115.819Z" fill="#E0E0E0"/>
<path d="M171.404 118.552L171.409 120.319L175.305 118.069V116.302L171.404 118.552Z" fill="#E0E0E0"/>
<path d="M148.032 129.313L157.77 123.688V128.188L148.032 133.813V129.313Z" fill="#E0E0E0"/>
<path d="M177.252 112.444L185.064 107.958V112.434L177.252 116.943V112.444Z" fill="#E0E0E0"/>
<path d="M186.995 106.82V108.591L190.891 106.342V104.57L186.995 106.82Z" fill="#E0E0E0"/>
<path d="M186.995 109.553V111.324L190.891 109.075V107.303L186.995 109.553Z" fill="#E0E0E0"/>
<path d="M117.699 144.588L115.686 143.444V152.443L117.699 153.568V144.588Z" fill="#E0E0E0"/>
<path d="M129.528 153.038L138.266 147.993V152.019L129.528 157.074V153.038Z" fill="#F7921E"/>
<path d="M129.528 185.336L138.266 180.291V184.317L129.528 189.372V185.336Z" fill="#F7921E"/>
<path d="M129.528 189.372L138.266 184.332V188.358L129.528 193.408V189.372Z" fill="#F7921E"/>
<path opacity="0.8" d="M129.528 189.372L138.266 184.332V188.358L129.528 193.408V189.372Z" fill="white"/>
<path d="M181.978 155.051L190.712 150.006V154.037L181.978 159.087V155.051Z" fill="#F7921E"/>
<path opacity="0.3" d="M181.978 155.051L190.712 150.006V154.037L181.978 159.087V155.051Z" fill="white"/>
<path d="M181.978 159.087L190.712 154.046V158.073L181.978 163.123V159.087Z" fill="#F7921E"/>
<path opacity="0.4" d="M181.978 159.087L190.712 154.046V158.073L181.978 163.123V159.087Z" fill="white"/>
<path d="M181.978 163.127L190.712 158.082V162.113L181.978 167.163V163.127Z" fill="#F7921E"/>
<path opacity="0.5" d="M181.978 163.127L190.712 158.082V162.113L181.978 167.163V163.127Z" fill="white"/>
<path d="M181.978 167.164L190.712 162.124V166.15L181.978 171.2V167.164Z" fill="#F7921E"/>
<path opacity="0.3" d="M181.978 167.164L190.712 162.124V166.15L181.978 171.2V167.164Z" fill="white"/>
<path d="M173.366 123.928L182.1 118.883V139.073L173.366 144.123V123.928Z" fill="#F7921E"/>
<path d="M155.673 162.099L164.407 157.059V185.321L155.673 190.371V162.099Z" fill="#F7921E"/>
<path d="M138.266 172.214L147 167.168V171.195L138.266 176.25V172.214Z" fill="#F7921E"/>
<path opacity="0.3" d="M138.266 172.214L147 167.168V171.195L138.266 176.25V172.214Z" fill="black"/>
<path d="M155.757 141.928L164.49 136.883V140.915L155.757 145.965V141.928Z" fill="#F7921E"/>
<path opacity="0.6" d="M155.757 141.928L164.49 136.883V140.915L155.757 145.965V141.928Z" fill="white"/>
<path d="M120.683 153.863L120.577 153.921V210.953L190.943 170.336V113.29L120.683 153.863ZM129.32 205.406L121.006 210.205V206.676L129.32 201.877V205.406ZM129.32 201.375L121.006 206.174V202.64L129.32 197.855V201.375ZM129.32 197.339L121.006 202.138V198.599L129.32 193.8V197.339ZM129.32 193.298L121.006 198.097V194.553L129.32 189.759V193.298ZM129.32 189.261L121.006 194.06V190.517L129.32 185.718V189.261ZM129.32 185.221L121.006 190.019V186.476L129.32 181.682V185.221ZM129.32 181.184L121.006 185.983V182.44L129.32 177.641V181.184ZM129.32 177.148L121.006 181.923V178.399L129.32 173.605V177.148ZM129.32 173.107L121.006 177.906V174.363L129.32 169.564V173.107ZM129.32 169.066L121.006 173.865V170.336L129.32 165.508V169.066ZM129.32 165.03L121.006 169.853V166.31L129.32 161.511V165.03ZM129.32 160.989L121.006 165.788V162.245L129.32 157.45V160.989ZM129.32 156.953L121.006 161.747V158.208L129.32 153.409V156.953ZM129.32 152.907L121.006 157.706V154.172L129.32 149.373V152.907ZM138.063 200.356L129.75 205.155V201.626L138.063 196.827V200.356ZM138.063 196.334L129.75 201.133V197.59L138.063 192.791V196.334ZM138.063 192.293L129.75 197.092V193.549L138.063 188.75V192.293ZM138.063 188.257L129.75 193.056V189.513L138.063 184.714V188.257ZM138.063 184.216L129.75 189.015V185.472L138.063 180.673V184.216ZM138.063 180.175L129.75 184.974V181.44L138.063 176.641V180.175ZM138.063 176.134L129.75 180.957V177.419L138.063 172.62V176.134ZM138.063 172.098L129.75 176.897V173.358L138.063 168.559V172.098ZM138.063 168.057L129.75 172.856V169.313L138.063 164.514V168.057ZM138.063 164.021L129.75 168.82V165.276L138.063 160.478V164.021ZM138.063 159.98L129.75 164.779V161.235L138.063 156.437V159.98ZM138.063 155.944L129.75 160.743V157.199L138.063 152.4V155.944ZM138.063 151.903L129.75 156.702V153.158L138.063 148.359V151.903ZM138.063 147.867L129.75 152.666V149.122L138.063 144.323V147.867ZM146.797 195.306L138.469 200.105V196.576L146.778 191.782L146.797 195.306ZM146.797 191.284L138.469 196.083V192.544L146.778 187.746L146.797 191.284ZM146.797 187.243L138.469 192.062V188.518L146.778 183.719L146.797 187.243ZM146.797 183.207L138.469 188.006V184.463L146.778 179.664L146.797 183.207ZM146.797 179.166L138.469 183.965V180.422L146.797 175.647V179.166ZM146.797 175.13L138.469 179.929V176.385L146.778 171.587L146.797 175.13ZM146.797 171.089L138.469 175.888V172.345L146.778 167.546L146.797 171.089ZM146.797 167.053L138.469 171.852V168.308L146.778 163.509L146.797 167.053ZM146.797 163.012L138.469 167.811V164.267L146.778 159.468L146.797 163.012ZM146.797 158.976L138.469 163.77V160.231L146.778 155.432L146.797 158.976ZM146.797 154.93L138.469 159.715V156.19L146.778 151.391L146.797 154.93ZM146.797 150.894L138.469 155.693V152.154L146.778 147.355L146.797 150.894ZM146.797 146.853L138.469 151.652V148.128L146.797 143.3V146.853ZM146.797 142.817L138.469 147.616V144.072L146.778 139.273L146.797 142.817ZM155.54 190.261L147.231 195.089V191.531L155.54 186.751V190.261ZM155.54 186.239L147.231 191.038V187.494L155.54 182.696V186.239ZM155.54 182.198L147.231 186.992V183.454L155.54 178.655V182.198ZM155.54 178.157L147.231 182.956V179.417L155.54 174.618V178.157ZM155.54 174.116L147.231 178.915V175.376L155.54 170.577V174.116ZM155.54 170.08L147.231 174.879V171.335L155.54 166.541V170.08ZM155.54 166.039L147.231 170.819V167.295L155.54 162.496V166.039ZM155.54 162.003L147.231 166.802V163.258L155.54 158.459V162.003ZM155.54 157.962L147.231 162.761V159.232L155.54 154.404V157.962ZM155.54 153.926L147.231 158.749V155.205L155.54 150.406V153.926ZM155.54 149.885L147.231 154.684V151.14L155.54 146.341V149.885ZM155.54 145.849L147.231 150.648V147.104L155.54 142.305V145.849ZM155.54 141.808L147.231 146.607V143.063L155.54 138.264V141.808ZM155.54 137.772L147.231 142.571V139.027L155.54 134.228V137.772ZM164.284 185.216L155.975 190.015V186.485L164.284 181.687V185.216ZM164.284 181.189L155.975 185.988V182.444L164.284 177.646V181.189ZM164.284 177.148L155.975 181.952V178.408L164.284 173.609V177.148ZM164.284 173.112L155.975 177.911V174.367L164.284 169.568V173.112ZM164.284 169.071L155.975 173.87V170.336L164.284 165.537V169.071ZM164.284 165.035L155.975 169.853V166.31L164.284 161.511V165.035ZM164.284 160.994L155.975 165.793V162.254L164.284 157.455V160.994ZM164.284 156.953L155.975 161.752V158.213L164.284 153.438V156.953ZM164.284 152.912L155.975 157.711V154.177L164.284 149.373V152.912ZM164.284 148.876L155.975 153.675V150.136L164.284 145.337V148.876ZM164.284 144.835L155.975 149.634V146.095L164.284 141.296V144.835ZM164.284 140.799L155.975 145.598V142.054L164.284 137.255V140.799ZM164.284 136.758L155.975 141.557V138.018L164.284 133.219V136.758ZM164.284 132.722L155.975 137.506V133.982L164.284 129.178V132.722ZM173.027 180.171L164.713 184.969V181.44L173.027 176.641V180.171ZM173.027 176.139L164.713 180.957V177.419L173.027 172.62V176.139ZM173.027 172.103L164.713 176.902V173.358L173.027 168.564V172.103ZM173.027 168.062L164.713 172.861V169.317L173.027 164.543V168.062ZM173.027 164.026L164.713 168.825V165.281L173.027 160.482V164.026ZM173.027 159.985L164.713 164.784V161.24L173.027 156.441V159.985ZM173.027 155.949L164.713 160.748V157.204L173.027 152.405V155.949ZM173.027 151.908L164.713 156.707V153.163L173.027 148.364V151.908ZM173.027 147.872L164.713 152.671V149.127L173.027 144.328V147.872ZM173.027 143.831L164.713 148.611V145.086L173.027 140.287V143.831ZM173.027 139.795L164.713 144.594V141.05L173.027 136.251V139.795ZM173.027 135.754L164.713 140.548V137.024L173.027 132.196V135.754ZM173.027 131.708L164.713 136.512V132.973L173.027 128.174V131.708ZM173.027 127.672L164.713 132.471V128.937L173.027 124.138V127.672ZM181.77 175.121L173.457 179.919V176.39L181.77 171.591V175.121ZM181.77 171.094L173.457 175.893V172.349L181.77 167.55V171.094ZM181.77 167.058L173.457 171.857V168.313L181.77 163.514V167.058ZM181.77 163.017L173.457 167.816V164.272L181.77 159.473V163.017ZM181.77 158.976L173.457 163.775V160.236L181.77 155.437V158.976ZM181.77 154.935L173.457 159.715V156.176L181.77 151.377V154.935ZM181.77 150.899L173.457 155.698V152.159L181.77 147.36V150.899ZM181.77 146.858L173.457 151.657V148.128L181.77 143.3V146.858ZM181.77 142.822L173.457 147.645V144.101L181.77 139.302V142.822ZM181.77 138.781L173.457 143.58V140.036L181.77 135.237V138.781ZM181.77 134.745L173.457 139.544V136L181.77 131.201V134.745ZM181.77 130.704L173.457 135.503V131.959L181.77 127.16V130.704ZM181.77 126.668L173.457 131.467V127.923L181.77 123.124V126.668ZM181.77 122.627L173.457 127.426V123.887L181.77 119.088V122.627ZM190.514 170.071L182.2 174.87V171.34L190.514 166.541V170.071ZM190.514 166.044L182.2 170.843V167.299L190.514 162.5V166.044ZM190.514 162.008L182.2 166.807V163.263L190.514 158.464V162.008ZM190.514 157.967L182.2 162.766V159.232L190.514 154.404V157.967ZM190.514 153.931L182.2 158.749V155.205L190.514 150.406V153.931ZM190.514 149.89L182.2 154.689V151.145L190.514 146.346V149.89ZM190.514 145.854L182.2 150.653V147.109L190.514 142.334V145.854ZM190.514 141.813L182.2 146.612V143.068L190.514 138.269V141.813ZM190.514 137.777L182.2 142.571V139.032L190.514 134.233V137.777ZM190.514 133.731L182.2 138.53V134.991L190.514 130.192V133.731ZM190.514 129.695L182.2 134.494V130.955L190.514 126.156V129.695ZM190.514 125.654L182.2 130.453V126.914L190.514 122.115V125.654ZM190.514 121.618L182.2 126.402V122.858L190.514 118.06V121.618ZM190.514 117.577L182.2 122.376V118.837L190.514 114.038V117.577Z" fill="#E0E0E0"/>
<path d="M97.3231 153.07V194.635C97.3062 194.945 97.2164 195.247 97.061 195.516C96.9056 195.785 96.689 196.014 96.4287 196.183L66.3656 213.542C66.2756 213.608 66.1698 213.648 66.0591 213.659C65.9484 213.67 65.8367 213.651 65.7356 213.605L64.0575 212.643C63.9671 212.578 63.8955 212.491 63.8499 212.39C63.8043 212.288 63.7863 212.177 63.7978 212.066V161.85C63.8139 161.54 63.9034 161.238 64.0588 160.969C64.2143 160.7 64.4314 160.471 64.6922 160.302L87.2636 147.266L97.3231 153.07Z" fill="#F0F0F0"/>
<path d="M67.1494 162.755L64.0286 161.023C63.8879 161.277 63.8088 161.561 63.7978 161.851V212.057C63.7863 212.167 63.8043 212.279 63.8499 212.38C63.8955 212.481 63.9671 212.569 64.0575 212.634L65.7356 213.595C65.8369 213.641 65.9484 213.659 66.059 213.648C66.1695 213.637 66.2752 213.597 66.3656 213.533L67.1494 213.081V162.755Z" fill="#E0E0E0"/>
<path d="M97.3227 153.071V194.636C97.3066 194.946 97.2171 195.248 97.0616 195.517C96.9062 195.787 96.6891 196.015 96.4283 196.184L66.3652 213.543C65.8843 213.827 65.4756 213.596 65.4756 213.024V162.818C65.4923 162.508 65.5815 162.208 65.7361 161.94C65.8906 161.671 66.1061 161.443 66.3652 161.274L83.9116 151.138L88.9414 148.252L97.3227 153.071Z" fill="#FAFAFA"/>
<path d="M88.9414 148.709L96.9091 153.311V194.635C96.8921 194.873 96.8214 195.104 96.7023 195.311C96.5832 195.517 96.4188 195.694 96.2215 195.828L66.1584 213.182C66.1035 213.222 66.0385 213.245 65.9709 213.249C65.8891 213.249 65.8891 213.033 65.8891 213.023V162.817C65.907 162.582 65.9777 162.354 66.0959 162.15C66.2142 161.946 66.3769 161.771 66.5719 161.639L84.1184 151.493L88.9269 148.709M88.9269 148.228L83.8972 151.113L66.3652 161.274C66.1061 161.443 65.8906 161.671 65.7361 161.939C65.5815 162.207 65.4923 162.508 65.4756 162.817V213.023C65.4756 213.427 65.6775 213.663 65.9564 213.663C66.0962 213.658 66.2323 213.617 66.3507 213.543L96.4139 196.184C96.6747 196.015 96.8917 195.786 97.0472 195.517C97.2027 195.248 97.2921 194.946 97.3083 194.635V153.07L88.9414 148.233L88.9269 148.228Z" fill="#E0E0E0"/>
<path d="M92.9283 153.402C93.2505 153.402 93.4765 153.661 93.4765 154.109V177.411C93.4574 177.755 93.3578 178.089 93.1857 178.387C93.0137 178.685 92.774 178.939 92.4859 179.128L70.3137 191.933C70.1805 192.016 70.028 192.062 69.8713 192.067C69.5491 192.067 69.3231 191.808 69.3231 191.361V168.053C69.3414 167.71 69.4407 167.375 69.6128 167.077C69.785 166.778 70.0251 166.525 70.3137 166.337L85.3067 157.681L92.4859 153.536C92.619 153.454 92.7716 153.407 92.9283 153.402ZM92.9283 152.988C92.6984 152.992 92.4739 153.058 92.2792 153.181L85.1 157.311L70.1069 165.967C69.7563 166.191 69.4646 166.497 69.2562 166.857C69.0479 167.218 68.929 167.623 68.9096 168.039V191.356C68.8935 191.493 68.9062 191.633 68.9468 191.766C68.9873 191.898 69.0549 192.021 69.1452 192.126C69.2356 192.232 69.3467 192.317 69.4717 192.377C69.5966 192.437 69.7327 192.471 69.8713 192.476C70.1012 192.472 70.3256 192.406 70.5204 192.284L92.6783 179.483C93.0283 179.258 93.3192 178.953 93.5267 178.592C93.7342 178.232 93.8522 177.827 93.8708 177.411V154.109C93.8868 153.971 93.8741 153.831 93.8336 153.699C93.793 153.566 93.7254 153.443 93.6351 153.338C93.5448 153.233 93.4336 153.147 93.3087 153.087C93.1837 153.027 93.0477 152.993 92.9091 152.988H92.9283Z" fill="#F7921E"/>
<path d="M72.2316 186.643C72.1863 186.643 72.1421 186.629 72.106 186.601C72.0699 186.574 72.0438 186.535 72.0318 186.491C72.0198 186.448 72.0225 186.401 72.0395 186.359C72.0565 186.317 72.0868 186.282 72.1258 186.259L90.4416 175.68C90.4891 175.653 90.5451 175.645 90.598 175.659C90.6508 175.672 90.6965 175.706 90.7253 175.752C90.7391 175.776 90.748 175.802 90.7515 175.829C90.7551 175.856 90.7532 175.883 90.7461 175.91C90.7389 175.936 90.7266 175.961 90.7098 175.982C90.6931 176.004 90.6722 176.022 90.6484 176.036L72.3326 186.614C72.3024 186.633 72.2673 186.643 72.2316 186.643Z" fill="#F7921E"/>
<path d="M72.2317 184.499C72.1953 184.499 72.1595 184.489 72.1282 184.47C72.0969 184.452 72.0712 184.425 72.0538 184.393C72.0269 184.345 72.0195 184.289 72.0329 184.237C72.0463 184.184 72.0797 184.138 72.1259 184.109L90.4417 173.53C90.4892 173.504 90.5452 173.496 90.5981 173.509C90.6509 173.523 90.6966 173.556 90.7254 173.603C90.7392 173.626 90.7481 173.652 90.7516 173.679C90.7552 173.706 90.7533 173.734 90.7462 173.76C90.739 173.787 90.7267 173.811 90.7099 173.833C90.6932 173.855 90.6723 173.873 90.6485 173.886L72.3327 184.465C72.303 184.486 72.2679 184.497 72.2317 184.499Z" fill="#F7921E"/>
<path d="M72.2315 182.368C72.1955 182.369 72.1601 182.359 72.1288 182.342C72.0975 182.324 72.0715 182.298 72.0536 182.267C72.0396 182.244 72.0305 182.218 72.0266 182.191C72.0227 182.164 72.0241 182.137 72.0308 182.11C72.0375 182.084 72.0493 182.059 72.0656 182.037C72.0819 182.016 72.1023 181.997 72.1257 181.983L90.4415 171.404C90.4652 171.391 90.4913 171.382 90.5184 171.379C90.5454 171.375 90.5729 171.377 90.5993 171.384C90.6256 171.391 90.6503 171.404 90.6719 171.42C90.6935 171.437 90.7116 171.458 90.7252 171.481C90.7388 171.505 90.7476 171.531 90.751 171.558C90.7545 171.585 90.7526 171.613 90.7455 171.639C90.7384 171.666 90.7261 171.69 90.7094 171.712C90.6927 171.733 90.6719 171.752 90.6483 171.765L72.3325 182.344C72.3017 182.361 72.2667 182.37 72.2315 182.368Z" fill="#F7921E"/>
<path d="M72.2316 180.243C72.1863 180.243 72.1421 180.229 72.106 180.201C72.0699 180.174 72.0438 180.135 72.0318 180.091C72.0198 180.048 72.0225 180.001 72.0395 179.959C72.0565 179.917 72.0868 179.882 72.1258 179.859L90.4416 169.28C90.4653 169.266 90.4914 169.257 90.5185 169.254C90.5456 169.25 90.5732 169.252 90.5995 169.259C90.6259 169.266 90.6506 169.279 90.6722 169.295C90.6938 169.312 90.7119 169.333 90.7253 169.357C90.739 169.38 90.7478 169.406 90.7513 169.433C90.7548 169.459 90.7529 169.487 90.7457 169.513C90.7385 169.538 90.7262 169.563 90.7095 169.584C90.6928 169.605 90.672 169.623 90.6484 169.636L72.3326 180.215C72.3024 180.234 72.2673 180.244 72.2316 180.243Z" fill="#F7921E"/>
<path d="M72.2316 178.118C72.1863 178.118 72.1421 178.103 72.106 178.076C72.0699 178.048 72.0438 178.01 72.0318 177.966C72.0198 177.922 72.0225 177.876 72.0395 177.834C72.0565 177.792 72.0868 177.756 72.1258 177.733L90.4416 167.154C90.4891 167.128 90.5451 167.12 90.598 167.133C90.6508 167.147 90.6965 167.18 90.7253 167.227C90.7391 167.25 90.748 167.276 90.7515 167.303C90.7551 167.331 90.7532 167.358 90.7461 167.384C90.7389 167.411 90.7266 167.436 90.7098 167.457C90.6931 167.479 90.6722 167.497 90.6484 167.51L72.3326 178.089C72.3024 178.108 72.2673 178.118 72.2316 178.118Z" fill="#F7921E"/>
<path d="M72.2317 175.992C72.1953 175.992 72.1595 175.983 72.1282 175.964C72.0969 175.945 72.0712 175.919 72.0538 175.887C72.0269 175.839 72.0195 175.783 72.0329 175.73C72.0463 175.677 72.0797 175.632 72.1259 175.603L90.4417 165.024C90.4892 164.997 90.5452 164.99 90.5981 165.003C90.6509 165.017 90.6966 165.05 90.7254 165.096C90.7392 165.12 90.7481 165.146 90.7516 165.173C90.7552 165.2 90.7533 165.228 90.7462 165.254C90.739 165.28 90.7267 165.305 90.7099 165.327C90.6932 165.348 90.6723 165.366 90.6485 165.38L72.3327 175.959C72.303 175.979 72.2679 175.991 72.2317 175.992Z" fill="#F7921E"/>
<path d="M72.2315 173.863C72.1955 173.863 72.1601 173.854 72.1288 173.836C72.0975 173.819 72.0715 173.793 72.0536 173.762C72.0396 173.738 72.0305 173.713 72.0266 173.686C72.0227 173.659 72.0241 173.631 72.0308 173.605C72.0375 173.579 72.0493 173.554 72.0656 173.532C72.0819 173.51 72.1023 173.492 72.1257 173.478L90.4415 162.899C90.4895 162.873 90.546 162.866 90.5989 162.88C90.6518 162.895 90.6971 162.929 90.7252 162.976C90.7389 163 90.7478 163.026 90.7514 163.053C90.7549 163.08 90.7531 163.108 90.7459 163.134C90.7388 163.16 90.7265 163.185 90.7097 163.207C90.6929 163.228 90.6721 163.246 90.6483 163.26L72.3325 173.839C72.3017 173.856 72.2667 173.864 72.2315 173.863Z" fill="#F7921E"/>
<path d="M72.2316 171.737C72.1863 171.737 72.1421 171.722 72.106 171.695C72.0699 171.667 72.0438 171.629 72.0318 171.585C72.0198 171.541 72.0225 171.495 72.0395 171.453C72.0565 171.411 72.0868 171.375 72.1258 171.352L90.4416 160.774C90.4653 160.76 90.4914 160.751 90.5185 160.747C90.5456 160.744 90.5732 160.746 90.5995 160.753C90.6259 160.76 90.6506 160.772 90.6722 160.789C90.6938 160.806 90.7119 160.827 90.7253 160.85C90.739 160.874 90.7478 160.9 90.7513 160.926C90.7548 160.953 90.7529 160.98 90.7457 161.006C90.7385 161.032 90.7262 161.056 90.7095 161.078C90.6928 161.099 90.672 161.116 90.6484 161.129L72.3326 171.708C72.3024 171.727 72.2673 171.737 72.2316 171.737Z" fill="#F7921E"/>
<path d="M72.2316 169.611C72.1863 169.611 72.1421 169.596 72.106 169.569C72.0699 169.541 72.0438 169.503 72.0318 169.459C72.0198 169.415 72.0225 169.369 72.0395 169.327C72.0565 169.285 72.0868 169.249 72.1258 169.226L90.4416 158.648C90.4891 158.621 90.5451 158.613 90.598 158.627C90.6508 158.64 90.6965 158.673 90.7253 158.72C90.7391 158.743 90.748 158.769 90.7515 158.797C90.7551 158.824 90.7532 158.851 90.7461 158.878C90.7389 158.904 90.7266 158.929 90.7098 158.95C90.6931 158.972 90.6722 158.99 90.6484 159.003L72.3326 169.582C72.3024 169.601 72.2673 169.611 72.2316 169.611Z" fill="#F7921E"/>
<path d="M77.9726 192.581C77.9926 192.564 78.0182 192.555 78.0447 192.555C78.0712 192.555 78.0968 192.564 78.1168 192.581C78.1401 192.607 78.1576 192.638 78.1684 192.671C78.1792 192.704 78.1829 192.739 78.1793 192.774V193.62C78.1793 193.71 78.1579 193.799 78.1168 193.88C78.0888 193.954 78.0384 194.018 77.9726 194.062L76.5781 194.866V201.391C76.578 201.481 76.5566 201.57 76.5156 201.65C76.489 201.726 76.4383 201.79 76.3713 201.833L75.7414 202.194C75.7213 202.211 75.6957 202.22 75.6693 202.22C75.6428 202.22 75.6172 202.211 75.5971 202.194C75.5737 202.168 75.5559 202.137 75.5451 202.104C75.5344 202.071 75.5308 202.036 75.5346 202.001V195.476L74.145 196.26C74.1241 196.278 74.0977 196.287 74.0704 196.287C74.0431 196.287 74.0167 196.278 73.9959 196.26C73.9728 196.235 73.9552 196.205 73.9445 196.173C73.9337 196.141 73.9299 196.106 73.9334 196.072V195.226C73.9334 195.134 73.9548 195.044 73.9959 194.962C74.0271 194.889 74.0789 194.827 74.145 194.784L77.9726 192.581Z" fill="#455A64"/>
<path d="M82.8441 198.107C82.7432 198.165 82.6662 198.17 82.6229 198.107C82.5867 198.069 82.553 198.029 82.522 197.987L81.291 196.064L80.0696 199.401L79.9686 199.636C79.9232 199.743 79.8437 199.831 79.7426 199.886L79.0935 200.262C79.0726 200.279 79.0462 200.289 79.0189 200.289C78.9916 200.289 78.9652 200.279 78.9444 200.262C78.9011 200.207 78.8804 200.138 78.8867 200.069C78.8809 200.021 78.8809 199.973 78.8867 199.925L80.6611 195.116L78.9684 192.462C78.9594 192.424 78.9594 192.385 78.9684 192.347C78.9685 192.256 78.9899 192.167 79.031 192.087C79.0575 192.012 79.1083 191.948 79.1752 191.904L79.8244 191.529C79.9302 191.471 80.0023 191.467 80.0504 191.529C80.0866 191.567 80.1204 191.607 80.1514 191.649L81.3198 193.486L82.4787 190.303C82.4787 190.255 82.5316 190.173 82.5797 190.067C82.6263 189.962 82.7055 189.874 82.8057 189.817L83.4548 189.442C83.4749 189.425 83.5005 189.416 83.527 189.416C83.5534 189.416 83.579 189.425 83.5991 189.442C83.6222 189.467 83.6397 189.497 83.6505 189.529C83.6613 189.562 83.6651 189.596 83.6616 189.63C83.6619 189.679 83.6538 189.728 83.6376 189.774L81.9305 194.443L83.6856 197.179C83.6928 197.219 83.6928 197.26 83.6856 197.299C83.6856 197.39 83.6642 197.479 83.6231 197.559C83.592 197.633 83.5402 197.696 83.4741 197.742L82.8441 198.107Z" fill="#455A64"/>
<path d="M88.4608 186.528C88.4816 186.51 88.508 186.5 88.5353 186.5C88.5626 186.5 88.589 186.51 88.6098 186.528C88.6546 186.58 88.6771 186.647 88.6724 186.715V187.562C88.67 187.653 88.6487 187.743 88.6098 187.826C88.5786 187.899 88.5268 187.961 88.4608 188.004L87.0711 188.807V195.347C87.0686 195.437 87.0473 195.525 87.0086 195.606C86.9774 195.68 86.9257 195.744 86.8595 195.789L86.2344 196.15C86.2136 196.167 86.1872 196.177 86.1599 196.177C86.1326 196.177 86.1062 196.167 86.0853 196.15C86.0412 196.096 86.0189 196.027 86.0228 195.957V189.423L84.6332 190.226C84.6123 190.243 84.5859 190.253 84.5586 190.253C84.5313 190.253 84.5049 190.243 84.4841 190.226C84.439 190.172 84.4166 190.103 84.4216 190.033V189.187C84.424 189.097 84.4453 189.008 84.4841 188.927C84.5152 188.853 84.567 188.79 84.6332 188.745L88.4608 186.528Z" fill="#455A64"/>
<path d="M88.9409 156.879V148.223L97.3222 153.061L89.8353 157.388C89.34 157.677 88.9409 157.446 88.9409 156.879Z" fill="#E0E0E0"/>
</svg>
