<svg xmlns="http://www.w3.org/2000/svg" width="256" height="256" fill="none"><path stroke="#D5D5D5" d="M238.637 177.045c0 17.162-12.141 32.797-31.982 44.169-19.827 11.364-47.251 18.409-77.569 18.409s-57.743-7.045-77.57-18.409c-19.84-11.372-31.982-27.007-31.982-44.169 0-17.163 12.141-32.797 31.982-44.169 19.827-11.364 47.251-18.409 77.57-18.409s57.742 7.045 77.569 18.409c19.841 11.372 31.982 27.006 31.982 44.169Z"/><path fill="#9A4A4D" d="M182.916 110.418a.74.74 0 0 1 .826.358c.109-.089.175-.24.307-.283s.326.09.429.222a3.165 3.165 0 0 1 .052 3.733.6.6 0 0 1-.179.175.56.56 0 0 1-.278.038 6.3 6.3 0 0 1-1.483-.222 1.62 1.62 0 0 1-1.184-.835 1.9 1.9 0 0 1 .033-1.072c.083-.473.286-.916.59-1.288.222-.251.571-.746.887-.826"/><path fill="#B16668" d="M178.291 100.609c-3.861-4.62-3.866-5.602-2.728-8.288.623-1.468 3.728-6.415 7.146-11.413 3.776-5.508 5.763-6.287 8.241-6.886l-.288 10.94-6.136 10.224s4.47 7.552 5.343 9.737c1.255 3.106.816 7.165-1.647 9.233-2.464 2.067-3.064 2.336-5.065 1.935s-2.52-.59-2.709-1.256c-.472-1.661-.741-1.888.269-2.832.576-.552 1.062-1.099 1.373-1.34a.3.3 0 0 1 .235-.052.29.29 0 0 1 .195.142c.562.944-.746 2.336-.746 2.336.683.126 1.346.34 1.973.637.25-1.76-.165-2.756.175-3.672.217-.585.618-1.572.217-2.053-.84-1.034-3.446-4.513-5.848-7.392"/><path fill="#9A4A4D" d="M184.535 95.186c-1.326 1.231-3.37 1.283-4.366 1.066a4.52 4.52 0 0 0 4.696-.528"/><path fill="#E6E6E6" d="M191.61 73.182c-3.101.764-4.946 1.26-7.986 5.81-1.619 2.426-7.897 12.097-8.548 14.009-.651 1.911-.505 2.988 1.449 5.536 2.053 2.681 3.408 4.22 3.408 4.22s1.685-1.86 7.269-2.945l-2.473-4.56 6.881-8.86z"/><path fill="#000" d="M184.729 95.252c-.751 1.17-3.88 1.515-5.192 1.274 1.708 1.185 4.587.647 5.546-.6z" opacity=".1"/><path fill="#000" d="m193.833 185.049-2.704-.811.779-1.775 1.708 1.369z"/><path fill="#263238" d="M196.33 180.287s.194 1.657.246 2.181-2.181 2.284-2.743 2.582l-.217-1.218a9.6 9.6 0 0 0-1.227 2.062c-.406.77-.902 2.214-2.077 3.248-1.746 1.534-4.545 2.416-7.439 2.681-2.893.264-4.583-.326-5.437-.888-.854-.561-1.152-1.25-.987-1.968.166-.717 19.881-8.68 19.881-8.68"/><path fill="#37474F" d="m188.287 175.048-.085-.944c-.533 0-.524 1.416-1.236 2.686a25.2 25.2 0 0 1-3.814 5.249c-2.804 2.742-5.338 4.507-6.608 5.744-1.671 1.652 1.539 3.946 6.254 3.427 2.36-.26 6.443-1.629 7.552-3.031 1.109-1.401 1.709-3.525 2.596-4.545.887-1.019 2.832-2.115 3.37-3.328.288-.665.184-1.571.057-3.37-.085-1.189 0-3.12-.666-2.935v.608c-.255.534-1.52 1.501-3.394 1.912-.944.194-3.757.43-4.026-1.473"/><path fill="#000" d="M190.789 176.635c-.906-.024-1.888-.255-2.313-1.02v-.023a2.16 2.16 0 0 1-.514 1.888c-.793 1-5.782 8.024-5.782 8.024s4.677-5.82 5.579-6.92c1.326-1.619 1.765-1.826 3.049-1.94zM189.703 178.485a.3.3 0 0 0 .118.182.29.29 0 0 0 .212.045.28.28 0 0 0 .189-.11.27.27 0 0 0 .052-.211.29.29 0 0 0-.521-.122.3.3 0 0 0-.05.216M188.386 180.047c.014.074.057.14.118.183.062.043.138.06.213.048a.28.28 0 1 0-.202-.51.281.281 0 0 0-.129.279M187.051 181.614a.28.28 0 0 0 .117.188c.062.045.14.063.216.05a.287.287 0 0 0 .238-.332.3.3 0 0 0-.117-.189.3.3 0 0 0-.216-.05.287.287 0 0 0-.238.333M185.752 183.176a.29.29 0 0 0 .213.242.29.29 0 0 0 .303-.106.285.285 0 0 0-.108-.433.3.3 0 0 0-.167-.024.293.293 0 0 0-.235.21.3.3 0 0 0-.006.111M184.436 184.74a.28.28 0 0 0 .117.188c.062.045.14.063.215.05a.287.287 0 0 0 .198-.435.3.3 0 0 0-.179-.123.3.3 0 0 0-.111-.001.28.28 0 0 0-.24.321" opacity=".15"/><path fill="#263238" d="M190.006 178.546a.096.096 0 0 0 .07-.033.12.12 0 0 0 .034-.08.11.11 0 0 0-.034-.081 4.84 4.84 0 0 0-3.332-1.062.1.1 0 0 0-.048.009.1.1 0 0 0-.04.028.1.1 0 0 0-.024.043.1.1 0 0 0-.004.048.1.1 0 0 0 .016.046.1.1 0 0 0 .034.035q.022.013.046.017a.1.1 0 0 0 .048-.004 4.64 4.64 0 0 1 3.153 1.01.11.11 0 0 0 .081.024M188.688 180.109a.15.15 0 0 0 .071-.037.1.1 0 0 0 .025-.037.126.126 0 0 0 0-.087.1.1 0 0 0-.025-.037 4.83 4.83 0 0 0-3.332-1.062.1.1 0 0 0-.076.043.1.1 0 0 0-.02.04.1.1 0 0 0-.003.044q.002.023.013.042a.114.114 0 0 0 .07.052.1.1 0 0 0 .044.001 4.72 4.72 0 0 1 3.153 1.01.12.12 0 0 0 .08.028M187.372 181.675a.12.12 0 0 0 .104-.115.1.1 0 0 0-.033-.078 4.8 4.8 0 0 0-3.333-1.062.1.1 0 0 0-.076.04.11.11 0 0 0-.023.083.12.12 0 0 0 .044.074.12.12 0 0 0 .084.025 4.66 4.66 0 0 1 3.153 1.01.13.13 0 0 0 .08.023M186.054 183.242a.14.14 0 0 0 .071-.038.11.11 0 0 0 0-.16 4.83 4.83 0 0 0-3.332-1.062.1.1 0 0 0-.074.041.1.1 0 0 0-.025.082.1.1 0 0 0 .014.042.116.116 0 0 0 .113.057 4.65 4.65 0 0 1 3.153 1.01.14.14 0 0 0 .08.028M184.738 184.805a.15.15 0 0 0 .071-.038.1.1 0 0 0 .025-.037.13.13 0 0 0 0-.087.1.1 0 0 0-.025-.037 4.84 4.84 0 0 0-3.332-1.062.1.1 0 0 0-.043.014.1.1 0 0 0-.034.029.114.114 0 0 0-.009.127.1.1 0 0 0 .029.034.114.114 0 0 0 .085.023 4.7 4.7 0 0 1 3.153 1.005.12.12 0 0 0 .08.029M210.688 193.155c.189 2.209.581 3.668 1.416 4.947.836 1.279 2.559 1.586 3.871 1.449a5.46 5.46 0 0 0 4.668-3.649c.566-1.458.448-3.2.042-5.244z"/><path fill="#37474F" d="M217.344 176.971c.641.037.906 3.002 1.349 5.971.472 3.176 1.53 4.941 1.888 7.08.529 2.968.35 4.309-.693 6.136-1.044 1.826-5.702 3.724-7.656 1.175-1.596-2.082-1.718-4.418-1.652-7.401a72 72 0 0 0-.043-7.585c-.179-2.233-.396-4.395.156-4.654.052.326.104.741.156 1.062s.137 1.458.472 1.463a4.6 4.6 0 0 0 0-.845.94.94 0 0 1 .156-.722c.193-.18.44-.292.703-.321.628-.127 1.26-.25 1.888-.316q.482-.05.944-.057.841-.045 1.68.038a.56.56 0 0 1 .354.297.8.8 0 0 1 .043.34q.007.312.099.609c0 .09.089.194.179.175s.104-.109.099-.184c0-.359-.056-.623-.085-1.039 0-.193-.052-.472-.061-.651s.042-.354.024-.571"/><path fill="#000" d="M218.273 190.804a.22.22 0 0 1-.112.216.2.2 0 0 1-.081.025.22.22 0 0 1-.164-.043.22.22 0 0 1-.086-.146.22.22 0 0 1 .046-.161.2.2 0 0 1 .066-.054.224.224 0 0 1 .331.163M218.009 188.746a.215.215 0 0 1-.193.24.23.23 0 0 1-.165-.042.23.23 0 0 1-.086-.146.224.224 0 0 1 .045-.163.2.2 0 0 1 .067-.054.2.2 0 0 1 .082-.024.222.222 0 0 1 .25.189M217.759 186.806a.215.215 0 0 1-.193.24.23.23 0 0 1-.165-.042.23.23 0 0 1-.086-.146.224.224 0 0 1 .045-.163.2.2 0 0 1 .067-.054.2.2 0 0 1 .082-.024.227.227 0 0 1 .25.189M217.509 184.894a.2.2 0 0 1-.045.162.2.2 0 0 1-.149.079.224.224 0 0 1-.25-.189.22.22 0 0 1 .046-.161.2.2 0 0 1 .066-.055.2.2 0 0 1 .081-.025.23.23 0 0 1 .165.043.23.23 0 0 1 .086.146M212.449 185.291a.215.215 0 0 1-.193.24.23.23 0 0 1-.165-.042.23.23 0 0 1-.086-.147.2.2 0 0 1 .006-.085.2.2 0 0 1 .039-.077.22.22 0 0 1 .149-.078.222.222 0 0 1 .25.189M212.699 187.218a.22.22 0 0 1-.047.164.22.22 0 0 1-.149.083.224.224 0 0 1-.242-.281.21.21 0 0 1 .188-.155.227.227 0 0 1 .25.189M212.949 189.156a.22.22 0 0 1-.046.161.2.2 0 0 1-.066.054.2.2 0 0 1-.081.025.22.22 0 0 1-.245-.274.21.21 0 0 1 .188-.155.22.22 0 0 1 .164.043.22.22 0 0 1 .086.146M213.214 191.214a.2.2 0 0 1-.045.162.2.2 0 0 1-.149.079.22.22 0 0 1-.164-.043.22.22 0 0 1-.086-.146.22.22 0 0 1 .046-.161.2.2 0 0 1 .066-.054.2.2 0 0 1 .081-.025.22.22 0 0 1 .251.188M215.125 192.154l-2.081-14.344.826-.029z" opacity=".15"/><path fill="#263238" d="M218.066 190.936h-.033c-1.492-.288-4.012-.099-4.989.387a.12.12 0 0 1-.087.006.13.13 0 0 1-.069-.053.1.1 0 0 1-.011-.042.1.1 0 0 1 .006-.042.107.107 0 0 1 .057-.062c1.034-.515 3.578-.713 5.135-.406a.107.107 0 0 1 .072.044.12.12 0 0 1 .018.083.1.1 0 0 1-.035.059.1.1 0 0 1-.064.026M217.801 188.882a.13.13 0 0 1-.061 0c-1.142-.495-3.847-.16-4.966.397a.11.11 0 0 1-.086.005.12.12 0 0 1-.065-.057.1.1 0 0 1-.011-.041.1.1 0 0 1 .005-.042.1.1 0 0 1 .054-.063c1.165-.576 3.955-.921 5.163-.397a.12.12 0 0 1 .058.059q.015.041-.001.083a.14.14 0 0 1-.038.039.1.1 0 0 1-.052.017M217.547 186.943a.14.14 0 0 1-.057 0c-1.142-.472-3.847-.161-4.966.396a.11.11 0 0 1-.085.008.12.12 0 0 1-.079-.097.1.1 0 0 1 .004-.044.11.11 0 0 1 .057-.065c1.165-.576 3.955-.92 5.159-.396a.1.1 0 0 1 .037.022.1.1 0 0 1 .033.077.1.1 0 0 1-.009.042.12.12 0 0 1-.094.057M217.301 185.032h-.061c-1.142-.496-3.842-.16-4.961.392a.12.12 0 0 1-.087.007.12.12 0 0 1-.069-.054.1.1 0 0 1-.011-.042.12.12 0 0 1 .029-.079.1.1 0 0 1 .034-.026c1.161-.575 3.956-.92 5.159-.401a.1.1 0 0 1 .049.05.1.1 0 0 1 .011.068.1.1 0 0 1-.031.062.1.1 0 0 1-.062.033zM215.621 103.395c1.543 18.129 1.846 44.84 1.846 44.84.136 1.378 1.392 4.134 1.595 10.959.25 8.326-.585 20.103-.585 20.103s-4.248 2.298-8.468.944c0 0-4.46-16.176-6.061-26.645-1.25-8.151-3.403-23.387-3.403-23.387l-1.184 15.392s.311 5.192.16 8.784c-.17 4.21-3.007 21.31-3.007 21.31s-4.927 2.445-9.463.152c0 0-1.303-24.884-1.444-29.944-.274-9.912.047-29.486.382-42.306z"/><path fill="#455A64" d="M186.744 173.41s1.203.944 3.941 1.161 6.419-1.161 6.419-1.161l-.439 2.766a11.3 11.3 0 0 1-5.942 1.076c-3.356-.325-3.871-1.038-3.871-1.038zM218.74 177.035a13.3 13.3 0 0 1-4.72 1.308 11.65 11.65 0 0 1-4.72-.562l.439 2.766s1.445.982 4.8.656c3.356-.326 4.13-1.364 4.13-1.364z"/><path fill="#000" d="M207.767 125.947q.25 5.834.627 11.673.184 2.916.397 5.834l.212 2.917.109 1.458c.033.472.123.968.179 1.454.515 3.875 1.242 10.898 1.827 14.769.585 3.87 1.213 7.736 1.911 11.597a400 400 0 0 0-1.246-11.644c-.472-3.875-1.147-10.899-1.685-14.769-.061-.472-.151-.944-.189-1.454l-.118-1.459-.254-2.912q-.255-2.907-.538-5.819a545 545 0 0 0-1.232-11.645M189.793 126.438c-.515 3.44-.807 6.9-1.034 10.384s-.439 6.938-.326 10.407c.114 3.469.095 9.284.208 12.744s.26 6.943.472 10.412q.165-5.191.17-10.384c0-3.469 0-9.284-.024-12.744l-.047-2.605v-1.2930000000000001l.033-1.298.146-5.192.17-5.192c.052-1.775.142-3.507.232-5.239M200.545 130.243l-1.888-9.912s-5.107-.699-7.736-2.95c0 0 1.699 2.988 6.523 4.139l1.878 8.756.048 15.359z"/><path fill="#F5F5F5" d="M214.814 74.443s3.337 2.45 2.11 8.879a91 91 0 0 0-1.454 12.682c-.08 3.365.731 13.353.731 13.353-4.932 6.292-27.494 5.4-30.453 0 0 0 .401-22.694 1.416-27.692.887-4.362 2.832-7.203 4.446-8.496l6.556-1.59 7.25.14z"/><path fill="#37474F" d="M209.188 53.9c-.774-1.944-2.36-2.095-2.36-2.095-.472-2.072-3.535-4.493-7.717-3.974s-6.231 1.808-7.552 4.347c-1.322 2.54-.199 4.31-.199 4.31l12.244-.789q.006.88.146 1.747c.293 1.855 2.096 4.035 2.096 4.035v2.61l.127 3.734a2.4 2.4 0 0 0 1.327-1.194c.406-.897.812-2.27 1.416-5.461s1.043-5.839.472-7.27"/><path fill="#B16668" d="M209.126 64.903c-1.326.944-2.643-.373-2.643-.373l.137 7.288s0 1.888-2.313 3.356c-3.243 2.048-4.649 3.12-5.971 5.191-1.279-3.252-3.2-5.46-1.204-8.104l-.033-1.746a16 16 0 0 1-1.807-.085c-1.728-.17-2.884-1.463-3.503-3.304-1-2.931-1.147-8.142.09-13.523 2.162-1.85 7.764-1.94 11.942.373 0 3.417 1.038 4.876 1.104 6.136.207.35.476.66.793.916.661.505 1.086-.944 1.581-1.515.496-.572 2.172-1.416 3.13.335s-.151 4.224-1.303 5.055"/><path fill="#263238" d="m199.398 57.116 1.813.987a1.073 1.073 0 0 0-.434-1.416 1 1 0 0 0-1.379.43M192.361 57.577l1.959-.698a1 1 0 0 0-.895-.71 1 1 0 0 0-.399.059 1.09 1.09 0 0 0-.665 1.35M200.408 59.187a.838.838 0 0 1-.984.846.85.85 0 0 1-.675-.642.839.839 0 1 1 1.659-.204M194.476 59.107a.85.85 0 0 1-.501.787.838.838 0 0 1-1.159-.584.834.834 0 0 1 .796-1.025.77.77 0 0 1 .814.487q.062.161.05.335"/><path fill="#9A4A4D" d="m197.119 57.795-.368 5.38-2.884-.872zM191.422 59.05h-.038a.06.06 0 0 0 .038 0M191.436 59.056l-.005-.005zM199.856 55.184a3.1 3.1 0 0 0-1.567 0c-.527.1-1.063.15-1.6.151-.982-.042-1.996-.656-2.978-.349-.024 0-.033.057 0 .057a3.8 3.8 0 0 1 1.548.221c.475.176.969.291 1.473.345a6 6 0 0 0 1.619-.165c.25-.052.495-.1.745-.137q.385-.022.76-.109s.019-.01 0-.014"/><path fill="#37474F" d="M204.949 59.683c-.142 3.667-1.416 3.932-2.705 4.158-1.718.298-2.581-.627-5.664-.604-1.888 0-2.454.576-3.511 1.024-.784.33-1.6.288-1.732-.472a26 26 0 0 1-.265-4.748 35 35 0 0 0 0 6.66c.269 1.718.741 3.328 1.699 4.125 1.331 1.105 4.112 1.251 7.552.472 3.441-.779 4.72-1.944 5.112-3.167 1.317-3.965.77-5.83 1.218-6.58s-1.704-.868-1.704-.868"/><path fill="#B16668" d="M197.01 64.332c1.761-.052 2.36.264 2.436 1.472.136 1.723.051 2.303-.605 2.403-.778.108-1.345.16-1.378-.326a1.9 1.9 0 0 1 .104-1.11c.269-.33.175-.377-.599-.353-.775.023-.76.16-.529.396s.156.765.16 1.105-.08.519-1.194.42c-.972-.085-.812-.864-.807-2.36.005-.987.42-1.6 2.412-1.647"/><path fill="#9A4A4D" d="m198.162 64.766-2.36.344a1.15 1.15 0 0 0 .436.796 1.17 1.17 0 0 0 .876.238 1.24 1.24 0 0 0 1.048-1.378"/><path fill="#F28F8F" d="M197.855 65.124q.143-.018.288 0a1.22 1.22 0 0 1-1.388.996 1.08 1.08 0 0 1 1.1-.996"/><path fill="#F7921E" d="M196.902 78.54s-1.204-2.36-1.199-3.257l1.496-1.52.434 3.81z"/><path fill="#000" d="M196.902 78.54s-1.204-2.36-1.199-3.257l1.496-1.52.434 3.81z" opacity=".2"/><path fill="#F7921E" d="m198.936 77.727 2.544-1.704 2.096 1.435-3.894 1.954z"/><path fill="#000" d="m198.936 77.727 2.544-1.704 2.096 1.435-3.894 1.954z" opacity=".2"/><path fill="#F7921E" d="M200.031 101.197c-1.279-7.222-1.416-18.536-1.265-20.518l-1.383-.142c-.977 2.36-3.866 13.924-3.833 19.55-.085 1.959 2.412 7.236 3.734 7.293 1.322.056 2.955-5.013 2.747-6.183"/><path fill="#fff" d="M200.031 101.197c-1.279-7.222-1.416-18.536-1.265-20.518l-1.383-.142c-.977 2.36-3.866 13.924-3.833 19.55-.085 1.959 2.412 7.236 3.734 7.293 1.322.056 2.955-5.013 2.747-6.183" opacity=".1"/><path fill="#000" d="M197.27 80.825c.047-.123.076-.208.113-.298l1.383.142a5 5 0 0 0 0 .609 2.4 2.4 0 0 1-1.496-.453" opacity=".5"/><path fill="#F7921E" d="M198.974 77.534a6 6 0 0 0-1.308-.061 3.1 3.1 0 0 0-.764 1.062c.011.69.172 1.37.472 1.992a1.65 1.65 0 0 0 1.383.141 2.9 2.9 0 0 0 1.005-1.321 2.63 2.63 0 0 0-.788-1.813"/><path fill="#fff" d="M198.974 77.534a6 6 0 0 0-1.308-.061 3.1 3.1 0 0 0-.764 1.062c.011.69.172 1.37.472 1.992a1.65 1.65 0 0 0 1.383.141 2.9 2.9 0 0 0 1.005-1.321 2.63 2.63 0 0 0-.788-1.813" opacity=".1"/><path fill="#455A64" d="M209.136 72.795a34.5 34.5 0 0 1-4.291 9.52c-3.134 4.82-8.463 10.583-8.463 10.583s-2.832-10.483 0-20.853l-5.734 1.416s-3.97 3.096-4.48 11.13c-.509 8.033-.42 26.772-.42 26.772a18.15 18.15 0 0 0 7.552 4.096l.944-4.743 1.468 5.4c4.18.972 8.551.745 12.607-.657 6.934-2.36 8.685-5.031 8.685-5.031s-1.166-10.228-.944-14.42c.222-4.191 1.166-9.78 1.388-13.117s-1.024-8.023-1.024-8.023z"/><path fill="#E6E6E6" d="M198.945 77.53c.048 0 .104.103.147.113.967-.52 1.118-.694 1.373-.624.472.142 1.629 2.158 1.912 2.832.283.675.231.642 1.123.052a16 16 0 0 0 4.036-3.889 11.8 11.8 0 0 0 1.6-3.2s-1.015-1.416-1.312-1.935c-.571-1.039-.661-1.586-1.251-1.496l-.047.944c-.104.901-1.237 1.647-2.502 2.732s-3.304 2.124-3.776 2.592a9.8 9.8 0 0 0-1.303 1.878M194.367 78.294c.142.368 1.312-2.511 1.888-2.45.278 0 .902.802 1.416 1.628h.392a9 9 0 0 1-.595-2.19c-.113-.981.274-3.894.274-3.894l-.071-.689h-.505q-.286.311-.5.675c-.562.916-2.025 2.596-2.209 3.696a9.6 9.6 0 0 0-.09 3.224M214.814 74.443c3.818.67 5.692 3.068 7.373 8.024 2.293 6.778 4.309 13.457 4.743 16.85l-9.01-2.463-4.819-9.704s-2.172-7.855 1.713-12.707"/><path fill="#F7921E" d="m196.481 116.226 19.494-2.997 2.964-24.993-19.493 2.998z"/><path fill="#000" d="m196.481 116.226 19.494-2.997 2.964-24.993-19.493 2.998z" opacity=".2"/><path fill="#FAFAFA" d="m197.204 115.125 18.677-2.874 2.766-23.308-18.677 2.875z"/><path fill="#F7921E" d="m199.601 108.067 1.888-15.736 17.464-4.106-2.969 25.016-18.474 4.337a.47.47 0 0 1-.576-.309.5.5 0 0 1-.014-.238l.944-7.968a.895.895 0 0 1 .642-.731z"/><path fill="#B16668" d="M226.803 99.308c0 2.563-.382 2.988-3.191 4.427-2.808 1.44-9.912 3.658-15.524 4.201-3.663.354-5.546.179-6.967-.382a5.88 5.88 0 0 1-3.686-6.429c-.609-1.77.316-2.01 1.081-2.2l-.142 1.157s1.643 1.119 3.158 1.137.109-1.75-.165-2.831-.213-1.686.661-2.19c.495 0 .656.674 2.18 2.194 1.161 1.152 2.063 3.262 3.861 3.016 1.416-.193 9.771-4.068 9.771-4.068l.377-3.205z"/><path fill="#E6E6E6" d="M226.93 99.309c.109 1.595-.174 2.43-.911 3.119-.736.69-3.776 2.12-5.664 2.771s-6.759 1.973-7.698 2.148c.972-1.52.736-4.513-.09-5.858s-1.911-1.015-1.911-1.015l7.198-3.238.519-4.384z"/><path fill="#C8856A" d="m58.429 173.689-.883-7.892 8.968-.807s-.382 6.08-.325 8.874c0 1.312.944 3.776.944 3.776s-3.776 1.954-5.716 1.156c-1.94-.797-3.243-3.88-3.196-4.441.048-.562.208-.666.208-.666"/><path fill="#263238" d="M77.578 186.108c.127 0 .217 1.147-.472 1.708a8.88 8.88 0 0 1-6.306 1.45c-3.011-.439-4.626-1.388-5.815-2.403s-2.855-2.445-4.215-2.766a9.9 9.9 0 0 1-3.36-1.732c-.397-.392-.312-2.105-.312-2.105z"/><path fill="#455A64" d="M58.429 173.674a.47.47 0 0 0-.472.396c-.104.472-.227 1.841-.444 2.615a13.6 13.6 0 0 0-.373 4.163c.151.883 2.54 1.978 3.852 2.497a17 17 0 0 1 4.248 2.733c1.416 1.175 4.352 2.426 6.32 2.445 2.327 0 4.96-.67 5.58-1.723.768-1.303 1.335-2.832-2.082-4.451-.647-.311-2.917-1.69-3.692-2.185-2.09-1.35-3.554-2.577-4.484-4.914a1.3 1.3 0 0 0-.472-.717 1.1 1.1 0 0 0-.67-.071c-.576.071-2.874.34-3.403.576s-1.128.472-1.128 1.038q.01.308.118.595c.038.118.066.279-.038.345s-.236 0-.32-.095a8.3 8.3 0 0 1-.912-1.114 10 10 0 0 0-.868-1.005 6 6 0 0 1-.59-.397c-.217-.202-.165-.472-.17-.731"/><path fill="#37474F" d="M65.23 186.078a23 23 0 0 0-1.86-1.416s4.013 2.497 5.665 1.416c1.066-.694.58-1.567.561-1.841-.019-.273 3.743-2.157 4.772-2.26.283.16.52.297.67.363 2.672 1.104 3.007 2.478 2.526 4.191-.619 1.048-2.974 2.105-5.98 2.054-1.96-.019-4.961-1.331-6.354-2.507"/><path fill="#37474F" d="M69.337 183.44c2.128.877 1.208 1.26.604 1.331s-4.173-2.063-6.344-3.819c-2.26-1.827-4.007-4.248-4.847-4.932-.317-.25-.652-.557-.944-.845.061-.472.118-.883.165-1.105a.475.475 0 0 1 .472-.396c0 .274-.047.528.156.741q.281.21.585.387.468.473.868 1.005.407.597.911 1.114c1.813 2.374 6.245 5.636 8.374 6.519"/><path fill="#263238" d="M69.795 184.459a.2.2 0 0 1-.11-.036.214.214 0 0 1-.047-.308c.62-.718 3.522-2.403 5.094-2.204a.2.2 0 0 1 .078.025.21.21 0 0 1 .078.286.2.2 0 0 1-.127.098.2.2 0 0 1-.08.006c-1.474-.179-4.249 1.492-4.72 2.058a.205.205 0 0 1-.165.075M67.945 183.295a.213.213 0 0 1-.2-.238.2.2 0 0 1 .044-.106c.618-.718 3.516-2.403 5.093-2.204a.2.2 0 0 1 .077.025.21.21 0 0 1 .079.286.2.2 0 0 1-.054.061.2.2 0 0 1-.154.043c-1.473-.179-4.248 1.487-4.72 2.058a.205.205 0 0 1-.165.075M66.094 182.191a.24.24 0 0 1-.132-.052.2.2 0 0 1-.062-.147.2.2 0 0 1 .062-.146c.618-.722 3.517-2.407 5.093-2.204a.2.2 0 0 1 .078.024.21.21 0 0 1 .1.126.21.21 0 0 1-.074.222.21.21 0 0 1-.156.043c-1.472-.184-4.248 1.487-4.72 2.058a.228.228 0 0 1-.189.076M64.38 180.929a.2.2 0 0 1-.131-.047.207.207 0 0 1 0-.297c.618-.718 3.526-2.398 5.097-2.2a.2.2 0 0 1 .14.078.204.204 0 0 1 .04.154.21.21 0 0 1-.236.179c-1.468-.179-4.225 1.491-4.72 2.063a.21.21 0 0 1-.19.07M62.705 179.673a.2.2 0 0 1-.127-.047.2.2 0 0 1-.08-.139.2.2 0 0 1 .047-.154c.854-1.019 3.884-2.417 5.46-2.218a.21.21 0 0 1 .185.231.2.2 0 0 1-.082.142.215.215 0 0 1-.159.042c-1.416-.179-4.319 1.161-5.074 2.067a.2.2 0 0 1-.075.059.2.2 0 0 1-.095.017"/><path fill="#C8856A" d="m43.537 177.393 2.139-9.477-9.35-1.459-.152 9.365s-.712 2.515-.184 3.384c.529.868 6.136 1.774 6.655 1.199.52-.576.892-3.012.892-3.012"/><path fill="#263238" d="M42.603 192.342c-.246 2.129-.69 3.502-1.61 4.654s-2.558 1.345-4.182.779c-1.623-.567-3.672-1.813-4.054-3.715s-.222-3.162.25-5.107z"/><path fill="#455A64" d="M36.174 175.823c-.675-.033-.472 1.638-.812 4.507-.344 3.101-1.746 5.527-2.242 8.024-.566 2.832-.472 4.154.6 6.042 1.071 1.888 5.022 4.102 7.141 1.841 1.728-1.841 1.888-4.097 1.888-7.005a64 64 0 0 1 .208-7.368c.24-2.152 1.142-4.139.566-4.451-.061.312-.637 2.493-1.015 2.455a3.7 3.7 0 0 1 .043-.836.94.94 0 0 0-.151-.722 3.2 3.2 0 0 0-1.09-.552c-.661-.198-1.841-.444-2.512-.581-.335-.07-.675-.122-1.01-.16a3 3 0 0 0-.863 0 .53.53 0 0 0-.378.25.75.75 0 0 0-.052.326 2 2 0 0 1-.113.585c-.029.08-.104.175-.198.146a.18.18 0 0 1-.1-.188c.02-.35.066-2.139.09-2.313"/><path fill="#37474F" d="M33.314 187.533c-.085.411-.619 3.12.203 3.724.896.652 1.505-1.458 1.505-1.458s2.186-.321 5.263 1.279c-.184.429.231 1.968 1.105 1.76.873-.207 1.364-3.332 1.373-3.374 0 2.784-.222 4.965-1.888 6.754-2.12 2.261-6.084.052-7.141-1.841s-1.166-3.2-.6-6.041c.043-.284.109-.548.18-.803"/><path fill="#37474F" d="M35.259 190.015c-.066 1.043-1.213.548-1.19-.944s.798-5.083 1.095-7.51c.194-3.488.335-5.791 1.01-5.758v.109c0 .037-.066 1.987-.075 2.213-.123 2.129-.151 6.268-.472 8.194a31 31 0 0 0-.368 3.696M39.922 191.007q.526-1.77.826-3.592c.326-1.888 1.468-5.716 2.034-7.769.18-.335.755-2.251.755-2.251.472.132 0 1.958-.221 2.832-.222.873-.472 1.774-.76 2.997-.704 2.421-.77 6.046-1.223 7.438-.453 1.393-1.68 1.341-1.411.345"/><path fill="#263238" d="M40.347 191.172a.4.4 0 0 1-.09-.037 9.27 9.27 0 0 0-5.192-1.114.28.28 0 0 1-.183-.044.28.28 0 0 1-.114-.15.207.207 0 0 1 .193-.25 9.7 9.7 0 0 1 5.541 1.194.2.2 0 0 1 .07.057.22.22 0 0 1 .05.169.2.2 0 0 1-.03.086.25.25 0 0 1-.245.089M41.022 188.972l-.08-.033a11.5 11.5 0 0 0-5.801-1.246.28.28 0 0 1-.293-.203.213.213 0 0 1 .198-.245 11.85 11.85 0 0 1 6.136 1.322q.043.018.075.053a.22.22 0 0 1 .029.258.245.245 0 0 1-.264.094M35.41 185.56a.3.3 0 0 1-.208-.179.2.2 0 0 1 .026-.171.21.21 0 0 1 .148-.089c3.073-.538 6 1.19 6.136 1.265a.22.22 0 0 1 .095.293.26.26 0 0 1-.16.092.26.26 0 0 1-.18-.04c-.028 0-2.875-1.695-5.73-1.19zM35.683 183.544a.27.27 0 0 1-.212-.17.2.2 0 0 1 .08-.235.2.2 0 0 1 .085-.029 8.97 8.97 0 0 1 6.244 1.265.21.21 0 0 1 .107.142.22.22 0 0 1-.036.174.265.265 0 0 1-.349.028 8.57 8.57 0 0 0-5.82-1.17.3.3 0 0 1-.099-.005M36 181.289a.28.28 0 0 1-.203-.17.203.203 0 0 1 .16-.269c3.177-.651 6.164 1.251 6.292 1.336a.213.213 0 0 1 .075.312.26.26 0 0 1-.344.042c-.029 0-2.922-1.859-5.867-1.251a.3.3 0 0 1-.114 0"/><path fill="#37474F" d="M39.766 104.314c-1.288 16.818-1.855 41.909-1.855 41.909-.113 1.275-.84 3.064-1.416 9.365-.623 6.646-.6 16.133-.6 16.133s5.617 2.398 9.11 1.156c0 0 3.776-14.231 5.565-22.056 1.718-7.406 2.983-18.989 2.983-18.989l2.044 11.158s-.26 4.796-.137 8.152c.137 3.898 2.247 18.842 2.247 18.842s5.215 3.124 8.85.146c0 0 1.765-21.929 1.888-26.625.231-9.204.472-27.315-.59-39.176z"/><path fill="#263238" d="m53.534 131.833 1.836-11.965s4.248-.642 6.405-2.733c0 0-1.416 2.77-5.4 3.842l-1.821 10.884 1.024 11.13z"/><path fill="#455A64" d="M35.782 172.046c1.567 1.228 6.136 2.275 9.26 1.147l.633-2.638c-2.36.793-7.226.288-9.84-1.326zM57.688 170.291c1.057 1.072 5.962 1.959 8.86.264l.217-2.652c-2.2 1.227-7.245 1.015-9.398-.241zM38.303 130.586s-.472 11.833-.472 12.692 6.466 2.568 6.632 2.02c.278-.911.207-2.945.764-12.744-5.338-.694-6.924-1.968-6.924-1.968"/><path fill="#37474F" d="M44.217 135.92a2.2 2.2 0 0 0-.604-.047c-.236 0-.472 0-.708-.038a11 11 0 0 1-1.482-.227 12 12 0 0 1-1.624-.472c-.43-.17-.84-.392-1.27-.552-.042 0-.047.061 0 .08.423.286.88.519 1.36.694.907.361 1.86.595 2.832.694.245.028.472.047.745.057.264.045.534.026.789-.057 0-.038.004-.118-.038-.132M41.418 134.286c-.061-.122-.108-.198-.245-.217a.48.48 0 0 0-.326.085.4.4 0 0 0-.16.269.47.47 0 0 0 .23.444.44.44 0 0 0 .473 0 .32.32 0 0 0 .108-.269.6.6 0 0 0-.08-.312m-.123.359a.256.256 0 0 1-.321.061c-.165-.094-.132-.415.071-.434a.28.28 0 0 1 .18.047.255.255 0 0 1 .07.312z"/><path fill="#263238" d="M49.498 76.702v-15.18c-.812-.868-3.219-.717-4.276-.547-1.85.302-2.832 2.02-3.44 3.648a16.6 16.6 0 0 0-.766 4.72l-.472 7.32z"/><path fill="#C8856A" d="M70.399 81.187c1.807 2.294 5.484 7.811 5.484 7.811s8.222-5.702 9.006-6.797c1.576-2.2 1.963-4.012 4.021-4.545a307 307 0 0 1 4.664-1.156l-1.936 9.643c-.887 1.005-1.982.585-4.19 2.751a119 119 0 0 1-9.106 7.699c-2.912 2.218-4.993 1.01-6.348-.638-3.304-4.035-6.136-7.282-6.136-7.282l-4.9-15.071c2.936.74 5.136 2.095 9.44 7.585"/><path fill="#AF6152" d="M91.28 80.549c.255.845.656 1.727.227 2.53a5.6 5.6 0 0 0-.581-1.888l-3.096 2.79z"/><path fill="#263238" d="M59.958 73.204c4.248-.118 6.938 1.916 9.596 5.928 1.61 2.426 6.381 9.502 6.381 9.502l5.858-4.069s.816 2.676 2.6 4.022c1.553 1.16 2.86.514 2.86.514a53 53 0 0 1-6.329 5.928c-4.427 3.592-5.928 3.89-7.896 2.393-.977-.736-1.62-1.548-3.474-3.686a83 83 0 0 1-3.828-4.762z"/><path fill="#455A64" d="M55.578 73.096s-9.723.538-12.168 1.647c-1.11.505-3.54 3.394-3.04 10.342.203 2.794 1.331 8.496 1.355 10.591.033 2.964-2.587 12.584-2.587 12.584 9.143 5.621 25.3 3.894 28.575.887 0 0-1.114-12.432-1.458-18.823 0 0 1.75-2.95 1.604-4.937-.207-2.913-.811-3.946-3.483-7.208a55 55 0 0 0-4.555-4.975z"/><path fill="#263238" d="M46.822 53.031c-3.144.35-3.903 5.485-3.158 8.378 1.416 5.588 5.192 6.244 5.358 8.628l5.664-3.304 4.385-2.582c.405-.24.807-.472 1.203-.731.396-.26.675-.543 1.043-.76.288-.17.58-.071.878-.156.31-.142.57-.374.746-.665a3.85 3.85 0 0 0 .698-3.186c.273.314.491.671.647 1.057.158.389.177.821.052 1.222 1.303-.868 1.416-4.215-1.076-5.409-.444-.212-.727-.944-.916-1.383a5.2 5.2 0 0 0-.514-1.08q-.34-.473-.732-.902a12.3 12.3 0 0 0-1.704-1.553c-1.775-1.35-4.474-2.639-6.782-2.134-2.464.557-5.041 1.973-5.792 4.56"/><path fill="#C8856A" d="m49.159 72.275-.312-5.192a2.266 2.266 0 0 1-2.78-.557c-1.553-1.605-1.704-3.356-.859-4.48.944-1.24 2.998-.769 3.89.742 1.35.32 1.888-1.605.873-3.578 0 0 6.523.444 9.548-4.517a1.642 1.642 0 0 1 2.639.41c.316.737.736 1.969.434 4.461-.113.944.335 2.025.297 3.276-.137 4.927-1.255 6.513-2.605 7.344a7.55 7.55 0 0 1-3.691.854l.108 1.327c.033.722.203.745.827.779l.944.056s3.776 4.772-.944 5.423c-5.192.713-10.384-2.888-11.484-4.55 0 0 .415-.07 1.557-.24s1.459-.59 1.558-1.558"/><path fill="#AF6152" d="m55.096 65.299 2.677.868a1.383 1.383 0 0 1-1.747.944 1.477 1.477 0 0 1-.93-1.812"/><path fill="#FFA8A7" d="M55.267 65.92a1.54 1.54 0 0 1 1.538 1.209 1.33 1.33 0 0 1-.779 0 1.45 1.45 0 0 1-.944-1.176q.092-.022.185-.033"/><path fill="#263238" d="m61.685 58.592-1.774-.77a.944.944 0 0 1 1.25-.514 1.024 1.024 0 0 1 .524 1.284M59.732 60.093a.826.826 0 0 0 .755.887.78.78 0 0 0 .868-.712.83.83 0 0 0-.74-.883.774.774 0 0 0-.884.708M53.199 59.304l1.727-.944a.944.944 0 0 0-1.302-.416 1.034 1.034 0 0 0-.425 1.36M53.6 60.266a.84.84 0 0 0 1.061.861.78.78 0 0 0 .558-.687.83.83 0 0 0-1.054-.863.78.78 0 0 0-.565.689"/><path fill="#AF6152" d="m56.683 58.635.58 5.536 2.695-1.43zM56.593 71.039c-3.568.061-5.83-1.246-6.792-3.398 0 0 .302 2.02 1.75 3.11 1.625 1.218 5.131 1.265 5.131 1.265z"/><path fill="#F7921E" d="M57.527 73.133a27.38 27.38 0 0 1 7.793 16.27c.52 5.357.66 27.522.66 27.522s3.102 0 4.541-1.038c-.84-12.272-1.699-24.327-2.303-30.482a12.6 12.6 0 0 0-2.11-5.556 25.3 25.3 0 0 0-6.136-6.645z"/><path fill="#FAFAFA" d="M69.554 102.114a36 36 0 0 1-3.748.802c0-.637 0-1.269-.037-1.888a34 34 0 0 0 3.648-.821c.038.623.09 1.26.137 1.907M65.882 107.647a35 35 0 0 0 4.002-.944c.043.633.09 1.275.133 1.916q-2.026.58-4.107.916c-.01-.599-.019-1.237-.028-1.888"/><path fill="#F7921E" d="M48.956 73.086c.283 4.616 1.666 10.474 1.727 15.458.109 9.034-2.695 29.07-2.695 29.07s-6.5-.094-10.568-2.954c-.023-2.172 1.817-9.804 2.733-12.971s1.265-7.184.08-12.206-.335-11.28 2.002-14.788z"/><path fill="#FAFAFA" d="M48.871 110.795c-5.324-.415-8.694-1.808-10.337-2.695.132-.581.26-1.152.406-1.746 2.138 1.099 6.552 2.289 10.153 2.605zM40.153 101.69c.132-.472.255-.944.364-1.463a34.9 34.9 0 0 0 9.345 1.661q-.093.941-.193 1.888a36.2 36.2 0 0 1-9.62-1.709c.033-.141.071-.259.104-.377"/><path fill="#F7921E" d="M43.145 60.055c.176.985.494 1.939.944 2.832q.303-.445.652-.854a17.3 17.3 0 0 1 4.762-3.875c4.173-2.36 9.44-3.479 13.764-2.639a9.8 9.8 0 0 0-.982-2.36 10.317 10.317 0 0 0-19.14 6.896"/><path fill="#F7921E" d="M46.766 49.463c.471-.288 3.03-1.27 3.228-1.35 1.312-.52 3.474-.666 5.834.982a10.5 10.5 0 0 1 3.922 5.329l-2.685 1.085-.874.151c-.472-1.996-3.511-6.136-7.273-6.013q-.267.004-.529.052c-.49.066-.967.204-1.416.41q-.72.6-1.36 1.284a2.32 2.32 0 0 1 1.153-1.93"/><path fill="#fff" d="M46.766 49.463c.471-.288 3.03-1.27 3.228-1.35 1.312-.52 3.474-.666 5.834.982a10.5 10.5 0 0 1 3.922 5.329l-2.685 1.085-.874.151c-.472-1.996-3.511-6.136-7.273-6.013q-.267.004-.529.052c-.49.066-.967.204-1.416.41q-.72.6-1.36 1.284a2.32 2.32 0 0 1 1.153-1.93" opacity=".45"/><path fill="#F7921E" d="M56.192 55.664c-.572-2.327-4.612-7.618-9.228-5.56q-.727.596-1.369 1.284a2.33 2.33 0 0 1 1.175-1.926c1.19-.689 3.644-1.18 6.377.722a10.46 10.46 0 0 1 3.913 5.325z"/><path fill="#000" d="M56.192 55.664c-.572-2.327-4.612-7.618-9.228-5.56q-.727.596-1.369 1.284a2.33 2.33 0 0 1 1.175-1.926c1.19-.689 3.644-1.18 6.377.722a10.46 10.46 0 0 1 3.913 5.325z" opacity=".3"/><path fill="#F7921E" d="M49.357 57.35a11.6 11.6 0 0 1 4.248-4.437c2.02-1.298 6.344-1.699 8.288-1.822 3.403-.217 4.248.444 4.357.944 0 .118.108.666.137.789a.47.47 0 0 1-.047.325c-.472.812-3.087 2.36-3.087 2.36-4.343-.84-9.591.27-13.764 2.639z"/><path fill="#000" d="M49.357 57.35a11.6 11.6 0 0 1 4.248-4.437c2.02-1.298 6.344-1.699 8.288-1.822 3.403-.217 4.248.444 4.357.944 0 .118.108.666.137.789a.47.47 0 0 1-.047.325c-.472.812-3.087 2.36-3.087 2.36-4.343-.84-9.591.27-13.764 2.639z" opacity=".15"/><path fill="#F7921E" d="M49.499 58.162c4.172-2.36 9.44-3.479 13.763-2.639 0 0 2.638-1.557 3.087-2.36.24-.472-.095-1.52-4.305-1.25-1.944.122-6.268.528-8.288 1.822a11.6 11.6 0 0 0-4.257 4.427"/><path fill="#000" d="M49.499 58.162c4.172-2.36 9.44-3.479 13.763-2.639 0 0 2.638-1.557 3.087-2.36.24-.472-.095-1.52-4.305-1.25-1.944.122-6.268.528-8.288 1.822a11.6 11.6 0 0 0-4.257 4.427" opacity=".3"/><path fill="#F7921E" d="M42.8 113.989c-.547.538-.73 1.44-.433 2.568a8.12 8.12 0 0 0 5.163 5.192c1.128.306 2.025.127 2.573-.416l48.205-47.752c.543-.538.732-1.416.434-2.568a8.13 8.13 0 0 0-5.163-5.192c-1.128-.306-2.03-.127-2.573.411z"/><path fill="#fff" d="M42.8 113.989c-.547.538-.73 1.44-.433 2.568a8.12 8.12 0 0 0 5.163 5.192c1.128.306 2.025.127 2.573-.416l48.205-47.752c.543-.538.732-1.416.434-2.568a8.13 8.13 0 0 0-5.163-5.192c-1.128-.306-2.03-.127-2.573.411z" opacity=".4"/><path fill="#F7921E" d="M47.53 121.773c1.128.307 2.025.127 2.573-.415.547-.543.731-1.416.434-2.568a8.1 8.1 0 0 0-5.164-5.192c-1.128-.312-2.03-.132-2.572.411s-.732 1.439-.434 2.567a8.12 8.12 0 0 0 5.163 5.197"/><path fill="#F7921E" d="m50.103 121.357 48.37-47.96c2.587-2.563-.425-6.881-.425-6.881l-48.37 47.945s3.011 4.333.425 6.896"/><path fill="#fff" d="m50.103 121.357 48.37-47.96c2.587-2.563-.425-6.881-.425-6.881l-48.37 47.945s3.011 4.333.425 6.896" opacity=".6"/><path fill="#fff" d="M47.53 121.773c1.128.307 2.025.127 2.573-.415.547-.543.731-1.416.434-2.568a8.1 8.1 0 0 0-5.164-5.192c-1.128-.312-2.03-.132-2.572.411s-.732 1.439-.434 2.567a8.12 8.12 0 0 0 5.163 5.197" opacity=".2"/><path fill="#F7921E" d="M45.619 116.708c-2.469-.51-1.818 2.558.632 4.541q.61.334 1.28.524c1.127.307 2.024.127 2.572-.416.547-.542.731-1.416.434-2.567a8.03 8.03 0 0 0-2.926-4.06z" opacity=".5"/><path fill="#F7921E" d="m44.354 116.902 2.629-2.605q.33.195.628.434l-1.992 1.978a1.55 1.55 0 0 0-1.265.193"/><path fill="#000" d="m44.354 116.902 2.629-2.605q.33.195.628.434l-1.992 1.978a1.55 1.55 0 0 0-1.265.193" opacity=".1"/><path fill="#AF6152" d="M54.176 100.718c1.265-1.076 1.605-1.194 2.94-1.242 1.337-.047 1.95-.084 2.474-.056.908.103 1.8.32 2.653.647.618.382-.34 1.316-1.345 1.288-1.006-.028-2.318-.165-2.318-.165z"/><path fill="#C8856A" d="M42.079 74.922c-4.055 1.076-6.41 2.506-7.25 4.611-1.487 3.724-4.81 15.317-5.334 18.347s-.25 3.818 2.237 5.192c2.072 1.147 10.677 3.743 14.632 4.795a3.548 3.548 0 0 0 3.106-.641l3.649-2.875-15.043-7.113 3.413-10.219s3.27-7.316.59-12.097"/><path fill="#263238" d="M42.235 74.695c-2.663.756-4.886 1.577-6.136 2.865-1.799 1.827-1.558 1.79-3.937 9.322-2.379 7.533-3.073 11.258-3.238 12.744s.033 2.167 2.36 3.455 8.874 2.969 8.874 2.969c.091-1.496.41-2.97.944-4.37.826-1.969 2.006-2.091 2.006-2.091l-4.593-2.535s2.832-7.958 3.833-10.592c1-2.633 2.275-7.23-.114-11.767"/><path fill="#C8856A" d="M48.399 105.532c.444-.081.6-1.926 1.345-2.186.746-.259.85-.16 1.218-.873a1.49 1.49 0 0 1 1.364-.944c.472.038.288-.807 1.133-1.019a15 15 0 0 1 3.304-.057c.77.075 2.516 1.194 3.266 1.727s.227 1.044-.245 1.289a2.6 2.6 0 0 1-1.416.028s.764.685.585 1.001c-.231.415-1.024.779-2.129.302.722.505.637.986.038 1.232-.633.157-1.3.088-1.888-.194-.982-.358-2.29-.797-3.068-.472l-.784.6z"/><path fill="#AF6152" d="M48.399 105.532c.198 0 .302-.221.406-.358s.17-.321.245-.472a6 6 0 0 1 .472-.897.7.7 0 0 1 .298-.279l.472-.193a.95.95 0 0 0 .472-.349q.139-.238.207-.505a4 4 0 0 1-.349.382.95.95 0 0 1-.425.189c-.165.033-.335.08-.514.132a1.06 1.06 0 0 0-.472.401 3.5 3.5 0 0 0-.42 1.015l-.137.505a.7.7 0 0 1-.255.429M58.358 103.488a24 24 0 0 0-1.199-.911 8.7 8.7 0 0 0-1.307-.803 6.6 6.6 0 0 0-1.534-.212 12 12 0 0 0-1.51 0c.471.108.986.203 1.477.283l.736.123q.35.05.689.151c.415.184.854.472 1.288.698q.66.377 1.36.671M51.519 103.234c.472.071.944.08 1.416.109.448.049.884.177 1.288.377.854.368 1.709.774 2.615 1.072a13.2 13.2 0 0 0-2.46-1.416 3.2 3.2 0 0 0-1.415-.321q-.728.044-1.444.179M95.887 80.479c.944-1.242 1.052-1.563 1.033-2.832-.019-1.27 0-1.841-.056-2.332a10.6 10.6 0 0 0-.732-2.469c-.392-.566-1.223.383-1.152 1.327s.26 2.175.26 2.175z"/><path fill="#C8856A" d="M91.639 86.142c.745-.792 1.784-.656 1.996-1.368s.109-.808.765-1.185a1.415 1.415 0 0 0 .835-1.331c-.056-.43.746-.307.906-1.114a14 14 0 0 0-.099-3.096c-.108-.718-1.241-2.308-1.78-2.993-.537-.684-.99-.165-1.203.293-.105.436-.09.893.043 1.321 0 0-.68-.689-.968-.505-.382.241-.689 1.006-.189 2.02-.51-.656-.944-.556-1.156 0a2.62 2.62 0 0 0 .264 1.78c.387.91.793 2.209.534 2.96l-.75 1.085z"/><path fill="#AF6152" d="M93.106 76.701c.317.359.624.718.916 1.09q.459.559.812 1.19c.144.46.235.935.274 1.416q.075.706.056 1.416c-.127-.472-.24-.916-.335-1.378l-.15-.685a4 4 0 0 0-.175-.642c-.19-.382-.472-.778-.713-1.18a11 11 0 0 1-.685-1.227M93.664 83.121c-.09-.439-.118-.897-.17-1.322a3.6 3.6 0 0 0-.411-1.194c-.387-.788-.807-1.572-1.133-2.412.566.696 1.055 1.45 1.459 2.252.222.41.348.865.368 1.33q-.014.677-.113 1.346"/><path fill="#FFBDA7" d="m99.42 206.716.77-7.109-8.232.538s.128 3.857.241 6.042c.07 1.289-1.69 3.686-1.69 3.686s3.866 2.049 5.938 1.331c2.072-.717 3.167-3.261 3.139-3.818s-.165-.67-.165-.67"/><path fill="#263238" d="M79.596 217.822c-.132 0-.349 1.317.35 1.888.802.666 3.176 1.77 6.339 1.445 3.162-.326 4.89-1.199 6.169-2.153 1.279-.953 3.072-2.308 4.507-2.577 1.331-.245 2.78-.779 3.21-1.151.429-.373.401-2.063.401-2.063z"/><path fill="#455A64" d="M99.42 206.701a.51.51 0 0 1 .473.406c.09.472.17 1.817.368 2.587.303 1.345.386 2.73.245 4.101-.189.864-2.36 1.416-3.752 1.888a17.7 17.7 0 0 0-4.522 2.54c-1.506 1.104-4.644 2.232-6.702 2.18-2.436-.056-5.164-.83-5.778-1.888-.755-1.302-1.298-2.832 2.36-4.304.685-.279 3.11-1.553 3.937-2.016 2.232-1.251 3.809-2.407 4.866-4.673.092-.283.278-.527.529-.689.225-.082.469-.098.703-.047.604.09 2.997.434 3.54.685.543.25 1.166.472 1.147 1.057q-.029.302-.146.58c-.047.118-.08.274.028.345.109.071.24 0 .34-.08q.539-.493.991-1.067c.17-.2.366-.378.58-.529q.322-.163.624-.358c.212-.194.17-.449.17-.718"/><path fill="#37474F" d="M92.241 218.228q.962-.715 1.992-1.326s-4.285 2.318-5.985 1.204c-1.095-.718-.552-1.558-.524-1.827s-3.837-2.251-4.908-2.388a10 10 0 0 1-.713.33c-3.64 1.487-3.096 3.002-2.36 4.305.614 1.057 2.586 1.888 5.735 1.958 2.077.029 5.258-1.151 6.763-2.256"/><path fill="#37474F" d="M88.036 215.485c-2.261.793-1.308 1.199-.68 1.293.628.095 4.437-1.888 6.773-3.535 2.431-1.718 3.98-3.615 4.885-4.248.336-.231.7-.524 1.02-.793-.052-.472-.09-.878-.132-1.095a.51.51 0 0 0-.472-.406c0 .269.033.524-.189.722q-.302.197-.623.359-.324.228-.58.529-.452.574-.992 1.066c-2.001 2.266-6.754 5.32-9.01 6.108"/><path fill="#263238" d="M87.522 216.477c.05 0 .1-.017.141-.048a.19.19 0 0 0 .082-.136.2.2 0 0 0-.049-.151c-.623-.727-3.596-2.483-5.253-2.36a.205.205 0 0 0-.189.139.2.2 0 0 0-.01.082.216.216 0 0 0 .241.189c1.544-.127 4.371 1.61 4.862 2.186a.23.23 0 0 0 .175.099M89.509 215.397a.22.22 0 0 0 .141-.048.192.192 0 0 0 .038-.288c-.623-.726-3.597-2.482-5.254-2.36a.21.21 0 0 0-.188.14.2.2 0 0 0 .072.226.21.21 0 0 0 .159.045c1.543-.127 4.37 1.61 4.862 2.185q.03.042.074.068a.3.3 0 0 0 .096.032M91.472 214.371a.22.22 0 0 0 .142-.047.2.2 0 0 0 .056-.059.2.2 0 0 0 .021-.158.2.2 0 0 0-.04-.071c-.622-.727-3.596-2.483-5.253-2.36a.21.21 0 0 0-.189.14.2.2 0 0 0 .073.226.22.22 0 0 0 .159.045c1.543-.128 4.37 1.609 4.861 2.185a.23.23 0 0 0 .17.099M93.308 213.197q.079 0 .142-.047a.2.2 0 0 0 .055-.059.2.2 0 0 0 .02-.157.2.2 0 0 0-.037-.072c-.623-.727-3.606-2.483-5.254-2.36a.21.21 0 0 0-.203.222.23.23 0 0 0 .083.143.22.22 0 0 0 .158.046c1.548-.128 4.37 1.609 4.866 2.185a.21.21 0 0 0 .17.099M95.106 212.021a.23.23 0 0 0 .195-.1.19.19 0 0 0-.015-.23c-.855-1.034-3.975-2.511-5.631-2.36a.21.21 0 0 0-.19.14.2.2 0 0 0-.009.082.2.2 0 0 0 .082.142q.034.027.076.037a.2.2 0 0 0 .083.005c1.487-.123 4.48 1.298 5.235 2.209a.25.25 0 0 0 .174.075"/><path fill="#FFBDA7" d="m115.704 210.591-1.888-6.731 8.378-1.284.373 6.518s.892 2.327.383 3.186c-.51.86-6.084 1.827-6.608 1.265-.524-.561-.638-2.954-.638-2.954"/><path fill="#263238" d="M116.563 225.28c.274 2.086.737 3.436 1.667 4.555.929 1.119 2.558 1.288 4.163.708 1.604-.581 3.625-1.827 3.979-3.705s.174-3.116-.317-5.018z"/><path fill="#455A64" d="M122.577 209.094c.675-.042.543 2.832 1.109 5.603.605 2.978 1.718 4.092 2.247 6.528.604 2.784.515 4.078-.514 5.952s-4.933 4.096-7.08 1.888c-1.742-1.789-1.95-4.008-1.983-6.863a63 63 0 0 0-.311-7.246c-.265-2.109-.916-3.983-.35-4.299.066.306.137.698.203 1s.194 1.374.567 1.331q.021-.403-.043-.802a.894.894 0 0 1 .142-.708 3.1 3.1 0 0 1 1.076-.562c.651-.203 1.817-.472 2.483-.604.335-.071.67-.132 1.005-.175.283-.04.571-.04.854 0a.55.55 0 0 1 .383.241 1 1 0 0 1 .056.321c.011.195.051.388.118.571.029.08.104.175.199.142a.2.2 0 0 0 .079-.079.2.2 0 0 0 .02-.11c0-.34-.085-.585-.128-.982-.023-.179-.07-.429-.085-.613-.014-.185-.019-.354-.047-.534"/><path fill="#37474F" d="M125.73 220.438c.09.401.661 3.063-.151 3.667s-1.515-1.416-1.515-1.416-2.176-.283-5.192 1.331c.189.42-.199 1.935-1.072 1.746-.873-.188-1.416-3.261-1.416-3.304.043 2.738.288 4.881 1.978 6.608 2.138 2.19 6.046-.037 7.08-1.888s1.119-3.167.514-5.952c-.103-.283-.151-.542-.226-.792"/><path fill="#37474F" d="M123.833 222.905c.075 1.025 1.208.524 1.17-.944s-1.166-4.776-1.317-7.273c-.245-3.427-.434-5.664-1.109-5.603a1 1 0 0 1 0 .104l.18 1.416c.033.208.066.392.08.609.146 2.096.231 6.164.561 8.052.219 1.203.364 2.419.435 3.639M119.207 223.945a29 29 0 0 1-.864-3.522c-.354-1.888-1.539-5.602-2.129-7.608a4.7 4.7 0 0 1-.307-1.138c-.061-.283-.127-.637-.188-.944v-.061c-.411.236-.246 1.855 0 2.695.245.84.509 1.732.797 2.936.732 2.36.845 5.933 1.312 7.297s1.667 1.322 1.379.345"/><path fill="#263238" d="M118.773 224.114a.3.3 0 0 0 .085-.038 9.3 9.3 0 0 1 5.135-1.166.28.28 0 0 0 .182-.046.3.3 0 0 0 .111-.152.2.2 0 0 0-.039-.167.2.2 0 0 0-.069-.054.2.2 0 0 0-.086-.02 9.7 9.7 0 0 0-5.489 1.251.213.213 0 0 0-.085.307.25.25 0 0 0 .255.085M118.088 221.956a.2.2 0 0 0 .08-.028 11.47 11.47 0 0 1 5.749-1.307.27.27 0 0 0 .288-.203.209.209 0 0 0-.046-.166.195.195 0 0 0-.157-.07 11.96 11.96 0 0 0-6.074 1.378.21.21 0 0 0-.116.132.222.222 0 0 0 .017.175.24.24 0 0 0 .259.089M123.62 218.525a.26.26 0 0 0 .125-.06.25.25 0 0 0 .078-.115.2.2 0 0 0-.029-.167.2.2 0 0 0-.146-.088c-3.063-.472-5.947 1.251-6.065 1.327a.2.2 0 0 0-.072.055.2.2 0 0 0-.043.08.218.218 0 0 0 .025.176.27.27 0 0 0 .165.085.28.28 0 0 0 .18-.042c.024 0 2.832-1.704 5.664-1.246q.06.011.118-.005M123.322 216.534a.3.3 0 0 0 .121-.06.3.3 0 0 0 .078-.11.2.2 0 0 0-.086-.232.2.2 0 0 0-.084-.028 9 9 0 0 0-6.188 1.327.2.2 0 0 0-.065.06.2.2 0 0 0-.036.081.22.22 0 0 0 .035.17.265.265 0 0 0 .344.029 8.6 8.6 0 0 1 5.768-1.237.24.24 0 0 0 .113 0M122.973 214.335a.273.273 0 0 0 .199-.166.2.2 0 0 0 .011-.087.204.204 0 0 0-.172-.177c-3.162-.599-6.108 1.312-6.23 1.416a.22.22 0 0 0-.109.139.21.21 0 0 0 .033.173.26.26 0 0 0 .166.08.26.26 0 0 0 .179-.047c.028 0 2.874-1.865 5.81-1.308a.3.3 0 0 0 .113-.023"/><path fill="#37474F" d="M117.451 139.461c1.911 15.944 3.507 38.827 3.507 38.827.137 1.255 1.048 3.389 1.756 9.577.745 6.523 1.076 23.538 1.076 23.538-.779 2.502-6.882 3.72-8.76 1.308 0 0-5.617-20.396-7.354-28.132-1.789-7.943-3.701-19.724-3.701-19.724l-1.029 11.8s.359 4.049.279 7.349c-.095 3.842-2.955 25.681-2.955 25.681s-5.91 1.454-9.751-1.416l-1.26-30.935c-.369-9.048.943-27.65 1.042-39.346z"/><path fill="#000" d="m103.975 164.854-2.081-11.734s-4.437-.576-6.74-2.6c0 0 1.51 2.709 5.702 3.7l2.057 10.681.034 11.763z" opacity=".2"/><path fill="#37474F" d="M96.272 106.322c-3.738.18-5.546 1.416-10.719 4.805-4.488 2.941-13.15 8.298-13.15 8.298s-1.01 7.429 3.418 7.429c1.765 0 4.186-.443 7.136-1.949a211 211 0 0 0 7.869-4.248z"/><path fill="#F0997A" d="M78.218 103.254c-.406-.944-.717-1.676-1.034-2.445a4.35 4.35 0 0 1-.212-1.85c0-.76-.127-1.737.213-1.889.34-.15 1.047.128 1.415.945.369.816.237 1.571.647 2.147s.623.859.623.859z"/><path fill="#F7921E" d="M76.373 96.009a.71.71 0 0 1 .052-.628c.061-.113.316-.576.387-.698.24-.44.944-.85 2.152-.874 1.832-.032 3.507.826 3.95 1.388s2.153 3.465 2.422 4.026c.637 1.331 1.166 2.516 1.888 4.031.703 1.416.982 2.36.845 2.606l-.387.698-.028.038a3.6 3.6 0 0 1-1.629.307 6.2 6.2 0 0 1-1.959-.241c-.41-.165-1.288-1.109-2.36-2.62-1.071-1.51-1.968-2.685-2.93-4.007-.388-.557-2.167-3.46-2.403-4.026"/><path fill="#000" d="M87.715 106.557c.071-.123.368-.661.378-.68.137-.25-.142-1.184-.845-2.605-.746-1.515-1.274-2.7-1.888-4.031-.274-.562-1.987-3.46-2.426-4.026l-.387.694c.444.566 2.157 3.464 2.426 4.026.637 1.331 1.166 2.52 1.888 4.031.694 1.378.972 2.298.854 2.591" opacity=".3"/><path fill="#F7921E" d="M78.582 94.503c-1.836.033-2.45.944-2.21 1.506.241.561 2.016 3.464 2.422 4.026.944 1.321 1.86 2.501 2.931 4.007 1.072 1.506 1.954 2.454 2.36 2.62a6.2 6.2 0 0 0 1.959.24 3.6 3.6 0 0 0 1.628-.306c.203-.175-.066-1.133-.811-2.648s-1.275-2.7-1.889-4.031c-.269-.562-1.982-3.46-2.426-4.026-.443-.567-2.133-1.421-3.964-1.388"/><path fill="#fff" d="M78.582 94.503c-1.836.033-2.45.944-2.21 1.506.241.561 2.016 3.464 2.422 4.026.944 1.321 1.86 2.501 2.931 4.007 1.072 1.506 1.954 2.454 2.36 2.62a6.2 6.2 0 0 0 1.959.24 3.6 3.6 0 0 0 1.628-.306c.203-.175-.066-1.133-.811-2.648s-1.275-2.7-1.889-4.031c-.269-.562-1.982-3.46-2.426-4.026-.443-.567-2.133-1.421-3.964-1.388" opacity=".2"/><path fill="#37474F" d="M75.349 97.117a.94.94 0 0 1 .056-.83c.109-.19.524-.945.638-1.153.278-.5 1.014-.944 2.322-.944 2.025-.037 3.884.945 4.446 1.662.472.585 2.204 3.53 2.487 4.125.246.51.472 1.01.704 1.492.368.788.75 1.6 1.208 2.53.529 1.076 1.086 2.407.854 2.832 0 .033-.547.996-.641 1.161a.3.3 0 0 1-.062.071c-.26.226-1.1.344-1.765.354a6.6 6.6 0 0 1-2.148-.279c-.745-.302-1.888-1.727-2.69-2.874-.656-.944-1.256-1.733-1.836-2.516-.354-.472-.722-.977-1.09-1.487-.416-.618-2.219-3.559-2.483-4.144"/><path fill="#263238" d="m87.437 107.974.642-1.161c.23-.425-.326-1.756-.855-2.832-.472-.944-.84-1.742-1.208-2.53-.222-.472-.472-.982-.703-1.492-.284-.594-2.025-3.54-2.488-4.125l-.637 1.156c.472.586 2.204 3.531 2.487 4.126.246.509.472 1.01.704 1.491.368.788.745 1.605 1.203 2.535.534 1.071 1.09 2.402.855 2.832"/><path fill="#455A64" d="M85.61 108.394c.665 0 1.505-.127 1.765-.354.373-.316-.227-1.756-.793-2.903-.472-.944-.835-1.746-1.204-2.534-.226-.472-.472-.982-.703-1.492-.283-.595-2.025-3.54-2.487-4.125-.567-.722-2.426-1.695-4.451-1.657s-2.681 1.058-2.36 1.784c.25.59 2.053 3.531 2.483 4.126.368.509.736 1.005 1.09 1.486.58.784 1.18 1.591 1.836 2.516.816 1.147 1.945 2.573 2.69 2.875.691.209 1.412.303 2.134.278"/><path fill="#F7921E" d="M75.348 97.859a.71.71 0 0 1 .052-.628c.066-.113.321-.571.387-.694.246-.439.944-.854 2.153-.878 1.831-.033 3.507.826 3.95 1.416s2.157 3.46 2.426 4.026c.633 1.331 1.162 2.516 1.888 4.026.704 1.416.982 2.36.845 2.611 0 0-.335.608-.387.693l.014.015a3.55 3.55 0 0 1-1.628.306 6.2 6.2 0 0 1-1.959-.24c-.41-.161-1.288-1.11-2.36-2.615s-1.973-2.686-2.936-4.012c-.43-.562-2.209-3.46-2.445-4.026"/><path fill="#000" d="m86.677 108.393.377-.68c.137-.255-.141-1.184-.845-2.61-.745-1.51-1.274-2.695-1.888-4.026-.269-.566-1.982-3.465-2.426-4.026l-.387.694c.444.561 2.157 3.459 2.426 4.026.638 1.331 1.166 2.516 1.912 4.026.684 1.397.963 2.322.83 2.596" opacity=".2"/><path fill="#F7921E" d="M77.558 96.357c-1.836.033-2.45.944-2.21 1.5.241.558 2.016 3.465 2.422 4.027.944 1.326 1.86 2.501 2.936 4.012s1.95 2.454 2.36 2.615a6.2 6.2 0 0 0 1.959.24 3.54 3.54 0 0 0 1.652-.306c.203-.175-.066-1.133-.812-2.648s-1.274-2.695-1.912-4.026c-.269-.567-1.982-3.465-2.426-4.027-.444-.561-2.138-1.425-3.97-1.387"/><path fill="#fff" d="M77.558 96.357c-1.836.033-2.45.944-2.21 1.5.241.558 2.016 3.465 2.422 4.027.944 1.326 1.86 2.501 2.936 4.012s1.95 2.454 2.36 2.615a6.2 6.2 0 0 0 1.959.24 3.54 3.54 0 0 0 1.652-.306c.203-.175-.066-1.133-.812-2.648s-1.274-2.695-1.912-4.026c-.269-.567-1.982-3.465-2.426-4.027-.444-.561-2.138-1.425-3.97-1.387" opacity=".2"/><path fill="#F7921E" d="m82.471 96.943.382-.694q.03-.042.057-.042h.269a.08.08 0 0 1 .057.038l.717 1.114a.22.22 0 0 1 0 .193l-.382.694a.08.08 0 0 1-.057.043h-.264a.07.07 0 0 1-.057-.043l-.713-1.128a.22.22 0 0 1-.009-.175"/><path fill="#000" d="m83.236 96.24.717 1.114a.22.22 0 0 1 0 .194l-.382.694c-.028.051-.08.056-.113 0l-.713-1.124a.22.22 0 0 1 0-.193l.382-.694c.024-.057.076-.057.109.01" opacity=".2"/><path fill="#fff" d="m82.48 97.117.718 1.114a.07.07 0 0 0 .057.037h.26a.1.1 0 0 1-.053-.042l-.717-1.11a.2.2 0 0 1-.029-.098h-.264q0 .054.029.099" opacity=".2"/><path fill="#F7921E" d="m83.613 98.661.383-.689q.029-.042.056-.042h.265a.08.08 0 0 1 .056.042l.623 1.062a.21.21 0 0 1 0 .198l-.382.694a.07.07 0 0 1-.057.038h-.24s-.038 0-.057-.043l-.623-1.062a.23.23 0 0 1-.024-.198"/><path fill="#000" d="m84.369 97.977.623 1.062a.21.21 0 0 1 0 .198l-.383.694c-.028.052-.08.052-.113 0l-.623-1.062a.23.23 0 0 1 0-.198l.382-.69a.06.06 0 0 1 .055-.04.06.06 0 0 1 .058.036" opacity=".2"/><path fill="#fff" d="m83.618 98.859.623 1.062q.029.042.056.042h.255a.08.08 0 0 1-.052-.042l-.623-1.062a.2.2 0 0 1-.023-.1h-.26q0 .054.024.1" opacity=".2"/><path fill="#263238" d="M75.438 95.23a.39.39 0 0 1 .033-.392 1.21 1.21 0 0 1 .944-.571.38.38 0 0 1 .359.156l.142.236a.38.38 0 0 1-.029.387c-.099.165-.239.303-.406.4a5 5 0 0 0-.689.364 13 13 0 0 0-.354-.58"/><path fill="#455A64" d="M76.765 94.805a1.22 1.22 0 0 1-.944.566.39.39 0 0 1-.359-.151.39.39 0 0 1 .033-.392 1.21 1.21 0 0 1 .944-.571.38.38 0 0 1 .359.156.38.38 0 0 1-.033.392"/><path fill="#37474F" d="M75.165 94.582a.34.34 0 0 1 .028-.344 1.08 1.08 0 0 1 .83-.5.34.34 0 0 1 .322.136l.33.552a.35.35 0 0 1-.028.345 1.08 1.08 0 0 1-.826.5.35.35 0 0 1-.317-.137z"/><path fill="#455A64" d="M76.316 94.22a1.08 1.08 0 0 1-.835.5.35.35 0 0 1-.316-.137.34.34 0 0 1 .028-.345 1.08 1.08 0 0 1 .83-.5.297.297 0 0 1 .293.472z"/><path fill="#263238" d="M81.32 94.483a.38.38 0 0 0-.36-.156 1.2 1.2 0 0 0-.943.571.38.38 0 0 0-.033.388l.141.236c.057.099.16.136.383.221q.485.209.944.472c.495.27.944.047.51-.665-.062-.109-.581-.968-.642-1.067"/><path fill="#455A64" d="M80.342 95.441a1.22 1.22 0 0 0 .944-.566.38.38 0 0 0 .029-.392.38.38 0 0 0-.36-.156 1.2 1.2 0 0 0-.943.571.335.335 0 0 0 .326.543z"/><path fill="#37474F" d="M75.887 87.79a.21.21 0 0 1 0-.208.67.67 0 0 1 .51-.306.2.2 0 0 1 .193.085c.363.542 4.045 6.197 4.606 7.132a.34.34 0 0 1-.028.344 1.08 1.08 0 0 1-.83.5.36.36 0 0 1-.322-.136c-.533-.916-3.823-6.85-4.13-7.41"/><path fill="#F7921E" d="M75.717 87.513a.43.43 0 0 1 .146-.58.42.42 0 0 1 .576.145l.17.284a.21.21 0 0 1 0 .207.67.67 0 0 1-.51.307.2.2 0 0 1-.198-.085z"/><path fill="#FFBDA7" d="M77.803 107.974c.274-.746.335-1.416.278-3.38s-.43-3.252-.122-3.804c.306-.552 1.302-2.2 1.704-2.775a5.3 5.3 0 0 1 1.416-1.095 4.8 4.8 0 0 1 1.416-.732 8.4 8.4 0 0 1 1.845.09c.52.056.472.887-.26 1.236-.731.35-1.18.387-1.703.84a16.5 16.5 0 0 0-1.62 2.096s1.572-1.265 2.13-1.61a7.5 7.5 0 0 1 1.83-.636 1.26 1.26 0 0 1 1.143.136c.41.236.765.685.571 1.015a2 2 0 0 1-.524.557c.225-.068.464-.08.694-.033a1.07 1.07 0 0 1 .576.859c.056.364 0 .529-.123.609.228.046.443.14.633.274a.895.895 0 0 1 .179 1.151c-.326.472-1.123.864-1.784 1.303a2.5 2.5 0 0 0-.472.382 4 4 0 0 0-.392.425c-.089.177-.13.374-.123.571 0 .274-.028.543-.037.817q.021.325-.034.647a3.75 3.75 0 0 1-1.137 1.76c-.609.628-.83 1.355-1.18 3.087-.326 1.61-1.147 6.334-1.416 8.269-.27 1.936-.571 3.809-2.86 5.051-2.29 1.241-4.88 1.888-5.565-1.001s-.571-6.358.15-7.769c.723-1.411 2.125-3.427 3.04-4.89a20 20 0 0 0 1.747-3.45"/><path fill="#F0997A" d="M80.763 100.422c-.4.36-.912.57-1.45.594a4.6 4.6 0 0 0 1.888-1.25zM81.216 102.276a3 3 0 0 0 1.203-.51c.335-.269.685-.561 1.053-.811a4.7 4.7 0 0 1 1.18-.619c.42-.156.835-.311 1.26-.443a31 31 0 0 1-1.208.547 5 5 0 0 0-1.147.637c-.378.241-.703.52-1.072.784-.38.246-.817.389-1.27.415M87.059 101.328c-.685.472-1.416.873-2.115 1.293a8 8 0 0 1-1.076.623c-.375.184-.78.302-1.194.35a5 5 0 0 0 1.142-.472 10 10 0 0 0 1.048-.647c.722-.387 1.444-.788 2.195-1.147"/><path fill="#455A64" d="M109.493 105.613c1.652.34 3.743.765 5.843 1.345 2.101.581 3.498.944 5.395 2.016 0 0-.033 8.024-1.6 15.264-.358 1.671-1.571 6.292-1.774 9.837a56.4 56.4 0 0 0 .297 11.04s-5.452 4.045-17.105 3.167c-9.152-.689-10.337-4.054-10.337-4.054s.165-15.251.406-22c.311-8.86 2.992-13.976 4.97-15.52l6.004-1z"/><path fill="#263238" d="M117.64 143.057c-3.347 2.063-8.85 3.347-13.556 3.54s-8.944-.632-11.017-1.732a8.6 8.6 0 0 1-2.864-2.219l-.161 3.871s3.342 3.167 12.385 3.464c8.459.274 15.534-3.478 15.534-3.478z"/><path fill="#455A64" d="M116.03 145.885c1.468.689 2.794 1.628 3.087 2.511.43 1.293 1.161 7.637.472 8.741s-6.414 4.064-7.901 4.196-3.427-1.623-3.814-2.152-.916-8.642-.831-9.275c.085-.632 8.987-4.021 8.987-4.021"/><path fill="#000" d="M119.334 149.326a8.4 8.4 0 0 1-.028 2.36 3.3 3.3 0 0 1-1.128 1.935 7.4 7.4 0 0 1-1.987 1.18 9.4 9.4 0 0 1-2.214.68 2.94 2.94 0 0 1-2.119-.359 3.3 3.3 0 0 1-1.213-1.826 11 11 0 0 1-.279-1.152 2.3 2.3 0 0 0-.67-1.062 4.9 4.9 0 0 0-2.162-1.053 5.1 5.1 0 0 1 1.983 1.232c.263.259.448.586.533.944q.075.596.212 1.18c.176.84.644 1.589 1.322 2.115a3.42 3.42 0 0 0 2.468.472 9.4 9.4 0 0 0 2.327-.751 7.1 7.1 0 0 0 2.054-1.331 3.6 3.6 0 0 0 1.109-2.176 7.6 7.6 0 0 0-.208-2.388" opacity=".2"/><path fill="#F7921E" d="M114.524 93.813c0 .316-1.203.836-1.203.836l.538-1.86z"/><path fill="#000" d="M114.524 93.813c0 .316-1.203.836-1.203.836l.538-1.86z" opacity=".3"/><path fill="#37474F" d="M111.877 86.686s1.416.103 2.336 1.887c.472.893.798 2.526-.472 7.184a18.9 18.9 0 0 1-2.242 5.136 2.3 2.3 0 0 1-1.34 1.066l.094-3.577.132-2.497s-2.01-1.827-2.185-3.62a5.74 5.74 0 0 1 .661-3.616z"/><path fill="#37474F" d="M112.368 86.804c-.35-2.01-2.903-4.413-7.831-4.677-4.035-.217-6.31 1.888-7.717 4.248a4.72 4.72 0 0 0-.236 4.48l12.352-.638z"/><path fill="#FFBDA7" d="M113.529 99.431c-1.86.901-2.705-.566-2.705-.566v7.552c-3.559 4.767-13.362 2.874-9.463-.699v-1.685a11.4 11.4 0 0 1-1.61-.156c-1.642-.259-2.662-1.029-3.153-2.832a23 23 0 0 1-.557-3.729c-.113-1.888-.127-3.587.34-4.88.326-.916-.056-2.12.194-3.252.188-.869.566-1.813 1.359-2.204 1.973-.973 3.776.43 6.542 1.5 1.137.444 3.899.642 4.625.298-.944 1.057-.944 4.404.472 5.758.171.359.412.68.708.944.6.524 1.091-.826 1.596-1.354a2.068 2.068 0 0 1 3.219.74 3.39 3.39 0 0 1 .177 2.612 3.38 3.38 0 0 1-1.744 1.953"/><path fill="#F0997A" d="M101.384 104.036c2.152 0 4.069-.278 5.338-.816s2.403-2.256 2.771-3.96c0 1.373-.604 3.809-2.53 4.819s-4.177 1.067-5.584 1.095z"/><path fill="#37474F" d="M108.766 93.186c.501 1.005-.07 4.163-1.019 4.56-.949.395-2.016-.237-4.083-.832a7.6 7.6 0 0 0-4.437-.207c-.944.264-2.808 1.133-3.162.637.123 2.36.118 5.73 2.719 6.575 1.85.595 5.791.698 8.109-.51s2.747-2.596 3.171-4.48c.32-1.321.717-2.623 1.19-3.898z"/><path fill="#FFBDA7" d="M99.383 98.973c.107-.397.325-.755.628-1.033a2.58 2.58 0 0 1 3.431 0c.399.385.651.898.713 1.449.118 1.024-1.307 1.482-1.964.783a.86.86 0 0 0-.877-.156q-.149.077-.284.175a1.13 1.13 0 0 1-1.33-.094 1.08 1.08 0 0 1-.317-1.124"/><path fill="#37474F" d="m104.377 90.661 1.822.765a1.04 1.04 0 0 0-.543-1.327.943.943 0 0 0-1.279.562M97.471 91.303l1.85-.736a.944.944 0 0 0-1.26-.58 1.053 1.053 0 0 0-.59 1.316"/><path fill="#263238" d="M105.491 92.813a.807.807 0 1 1-1.613-.06.807.807 0 0 1 1.613.06M99.322 92.648a.807.807 0 1 1-1.614-.049.807.807 0 0 1 1.614.049"/><path fill="#F0997A" d="m102.512 90.863-.665 5.126-2.71-1a12.1 12.1 0 0 1 3.375-4.126"/><path fill="#B16668" d="m102.795 97.977-2.095.693a1.08 1.08 0 0 0 .944.785c.145.013.291-.004.429-.048a1.15 1.15 0 0 0 .722-1.43"/><path fill="#F28F8F" d="M102.574 98.354q.131-.026.264-.024a1.13 1.13 0 0 1-.764 1.076 1 1 0 0 1-.35.052 1.01 1.01 0 0 1 .85-1.104"/><path fill="#F7921E" d="M115.242 91.161a9.4 9.4 0 0 1-.717 2.653 10 10 0 0 0-.656-.755 16.5 16.5 0 0 0-4.673-3.304c-4.031-1.96-9.006-2.71-13.018-1.718.159-.78.419-1.535.774-2.247a9.704 9.704 0 0 1 18.29 5.357z"/><path fill="#F7921E" d="M111.253 81.636c-.472-.24-2.902-1.015-3.096-1.076-1.255-.406-3.304-.43-5.4 1.199a9.5 9.5 0 0 0-3.365 5.078l2.572.84.826.1c.34-1.855 2.936-5.815 6.462-5.882q.248-.016.496 0c.465.033.924.135 1.359.303q.71.51 1.345 1.109a2.11 2.11 0 0 0-1.199-1.671"/><path fill="#fff" d="M111.253 81.636c-.472-.24-2.902-1.015-3.096-1.076-1.255-.406-3.304-.43-5.4 1.199a9.5 9.5 0 0 0-3.365 5.078l2.572.84.826.1c.34-1.855 2.936-5.815 6.462-5.882q.248-.016.496 0c.465.033.924.135 1.359.303q.71.51 1.345 1.109a2.11 2.11 0 0 0-1.199-1.671" opacity=".45"/><path fill="#F7921E" d="M102.791 87.795c.401-2.157 3.88-7.216 8.316-5.56q.71.51 1.35 1.105a2.14 2.14 0 0 0-1.203-1.704c-1.152-.576-3.479-.902-5.929.982a9.52 9.52 0 0 0-3.36 5.083z"/><path fill="#000" d="M102.791 87.795c.401-2.157 3.88-7.216 8.316-5.56q.71.51 1.35 1.105a2.14 2.14 0 0 0-1.203-1.704c-1.152-.576-3.479-.902-5.929.982a9.52 9.52 0 0 0-3.36 5.083z" opacity=".3"/><path fill="#F7921E" d="M109.276 89.005a10.8 10.8 0 0 0-4.248-3.852c-1.964-1.086-6.032-1.232-7.859-1.25-3.195 0-3.97.622-4.022 1.085 0 .109-.066.614-.08.727a.42.42 0 0 0 .062.297c.472.722 3.02 2.016 3.02 2.016 4.012-.992 8.968-.241 13.018 1.718z"/><path fill="#000" d="M109.276 89.005a10.8 10.8 0 0 0-4.248-3.852c-1.964-1.086-6.032-1.232-7.859-1.25-3.195 0-3.97.622-4.022 1.085 0 .109-.066.614-.08.727a.42.42 0 0 0 .062.297c.472.722 3.02 2.016 3.02 2.016 4.012-.992 8.968-.241 13.018 1.718z" opacity=".15"/><path fill="#F7921E" d="M109.186 89.744c-4.031-1.959-9.006-2.71-13.018-1.718 0 0-2.558-1.293-3.02-2.016-.25-.396 0-1.416 3.955-1.364 1.822 0 5.891.166 7.854 1.251a10.8 10.8 0 0 1 4.229 3.847"/><path fill="#000" d="M109.186 89.744c-4.031-1.959-9.006-2.71-13.018-1.718 0 0-2.558-1.293-3.02-2.016-.25-.396 0-1.416 3.955-1.364 1.822 0 5.891.166 7.854 1.251a10.8 10.8 0 0 1 4.229 3.847" opacity=".3"/><path fill="#F7921E" d="M106.803 131.384c0 6.764.543 19.079.543 19.079s3.955.594 7.514-.737 3.979-3.063 3.979-3.063-.722-6.509-.722-10.242c.042-4.31.571-8.601 1.576-12.791 1.081-4.636 1.265-14.632 1.265-14.632a23.3 23.3 0 0 0-4.036-1.704c-2.081-.633-5.749-1.313-6.055-1.369.042.099-.029.835-1.596 5.664-1.987 6.131-2.468 13.027-2.468 19.786z"/><path fill="#fff" d="M118.164 134.916a26 26 0 0 0-.047 1.496v.236c-3.304 1.572-7.552 2.138-11.192 2.072 0-.509-.028-1.014-.037-1.52 3.705.067 7.995-.552 11.276-2.284M107.039 142.43c3.695.043 7.962-.59 11.219-2.336.038.557.076 1.118.118 1.661-3.304 1.638-7.599 2.237-11.286 2.195q-.029-.764-.051-1.52"/><path fill="#F7921E" d="M101.375 105.723s-3.942 3.171-5.56 9.883c-1.284 5.329-1.336 11.966-1.605 20.117-.27 8.151-.029 12.871-.029 12.871s-3.408-.59-4.441-2.246c.325-10.026.524-19.716.524-23.454a40.6 40.6 0 0 1 1.94-11.578 11.53 11.53 0 0 1 3.21-4.933z"/><path fill="#fff" d="M94.181 136.605c0 .52-.028 1.029-.037 1.525q-1.232-.195-2.417-.581a15 15 0 0 1-1.713-.703q0-.869.042-1.713.546.33 1.128.595c.962.408 1.968.703 2.997.877M91.727 142.628a14 14 0 0 1-1.85-.77c0-.58.033-1.156.052-1.727q.603.382 1.255.675a13.2 13.2 0 0 0 2.913.859v1.534a16 16 0 0 1-2.37-.571"/><path fill="#F7921E" d="m79.573 125.777 18.417 4.716 6.802 20.82-.364.457-17.54-4.838-7.678-20.697z"/><path fill="#000" d="m97.632 130.955 6.797 20.815.363-.458-6.801-20.82z" opacity=".35"/><path fill="#000" d="m79.21 126.234 18.422 4.72 6.796 20.816-17.54-4.838z" opacity=".25"/><path fill="#000" d="m84.978 130.11-.213-.699c-.113-.387.944-.273 2.384.255l3.304.689c1.416.529 2.775.897 2.893 1.284l.208.699z" opacity=".1"/><path fill="#37474F" d="M83.628 126.981c-.071-.241.34-.227.944-.123l1.057.26s-.51-.996 1.982-.557c2.743.472 2.922 1.822 2.922 1.822q.653.216 1.326.354c.916.212 1.03.377 1.124.618l.174.444-9.388-2.403s-.066-.17-.141-.415"/><path fill="#37474F" d="M84.709 128.27c.877.307 1.24.472 1.415 1.057.208.68.265.968.265.968l4.904 1.449s-.345-.996-.44-1.331c-.093-.335.534-.392 1.389-.085l-.27-.836-7.617-2.086z"/><path fill="#37474F" d="M84.732 130.157s-.094-.311-.208-.698.944-.269 2.36.255l3.304.689c1.416.528 2.771.897 2.89 1.284l.207.698z"/><path fill="#FFBDA7" d="M125.853 117.353c-1.676-6.717-3.564-8.246-7.387-8.968-3.398 5.428-1.454 13.886-1.454 13.886l2.304 10.299c-.628.548-10.054 6.608-11.72 7.184-.609.212-1.756 0-2.36-.198-1.643-.515-2.78-.326-4.352-.217l.727 2.232c-.661.233-1.342.404-2.035.51a12.3 12.3 0 0 1-3.303.038c-.996-.1-2.091-.284-2.927.264-.198.127-.387.354-.316.576.07.222.212.25.344.34.338.232.598.561.746.944.23.735.7 1.371 1.336 1.807a8.8 8.8 0 0 0 5.031 2.054q.617.133 1.247.132c1.637-.066 3.171-.59 4.72-1.062 1.888-.576 2.983-1.076 4.526-1.581 1.029-.34 3.002-1.067 4.017-1.45 5.904-2.213 13.928-5.102 14.344-7.934s-1.747-11.918-3.488-18.856"/><path fill="#37474F" d="M118.541 107.945c4.338 1.331 5.192 1.945 6.448 5.395 1.208 3.342 3.667 13.769 4.026 16.284-1.992 1.964-8.09 3.21-10.257 1.789l-2.048-8.94c-.708-3.006-2.11-9.779 1.831-14.528"/><path fill="#F28F8F" d="M176.295 139.124a.69.69 0 0 0-.703.443c-.118-.066-.198-.193-.326-.217-.127-.023-.283.128-.363.264a2.945 2.945 0 0 0 .472 3.432.5.5 0 0 0 .184.132.54.54 0 0 0 .26 0 6.4 6.4 0 0 0 1.335-.406 1.52 1.52 0 0 0 .968-.944 1.7 1.7 0 0 0-.179-.982 2.6 2.6 0 0 0-.718-1.099c-.241-.184-.628-.59-.93-.623"/><path fill="#FFA8A7" d="M179.198 129.496c2.908-4.763 2.776-5.664 1.364-7.977-.769-1.26-4.3-5.367-8.113-9.487-4.206-4.536-6.136-4.98-8.496-5.192l1.755 9.997 7.024 8.534s-3.063 7.552-3.568 9.666c-.727 3.021.236 6.684 2.775 8.241 2.539 1.558 3.129 1.723 4.909 1.081s2.232-.887 2.312-1.52c.208-1.59.425-1.817-.632-2.567-.604-.43-1.123-.864-1.444-1.044a.28.28 0 0 0-.383.142c-.387.944 1.006 2.044 1.006 2.044a7.5 7.5 0 0 0-1.723.849c-.472-1.576-.227-2.544-.661-3.341-.278-.505-.783-1.355-.472-1.851.647-1.057 2.535-4.602 4.347-7.575"/><path fill="#9A4A4D" d="M172.727 125.375c1.383.944 3.266.717 4.149.382a4.17 4.17 0 0 1-2.168.7 4.17 4.17 0 0 1-2.212-.539"/><path fill="#263238" d="M163.226 106.164c3.417.033 4.72.472 8.118 4.248 1.817 2.001 8.902 10.016 9.756 11.682s.878 2.667-.566 5.277c-1.52 2.738-2.549 4.338-2.549 4.338s-1.803-1.478-7.08-1.709l1.643-4.522-7.524-7.184z"/><path fill="#000" d="M172.557 125.465c.849.967 3.776.859 4.927.472-1.416 1.321-4.115 1.222-5.192.212z"/><path fill="#263238" d="M141.853 202.85s-2.105.344-3.304 1.888c-1.198 1.543-3.884 6.136-4.413 6.641.299.504.709.933 1.199 1.255l1.416-1.619c.354-.292.505-.613.472.34s-.156 1.935-.132 3.351c0 1.124-.212 3.252 1.713 5.409 1.803 2.016 3.739 2.979 5.084 3.172.802.109 2.213-.075 2.124-1.675-.047-.845-.434-3.63-.571-5.192s-3.588-13.57-3.588-13.57"/><path fill="#FFA8A7" d="M139.866 211.642c.066.944-.127 3.776 2.955 6.358 1.515 1.26 2.643.987 2.652-.472 0-2.313-.287-6.561 2.36-10.898.907-1.482 3.446-4.437 6.608-8.076v.08c2.922-3.398 6.273-7.321 9.322-11.182l.114-.141.075-.095c3.163-3.988 5.995-7.939 7.656-11.205l.241-.472a.1.1 0 0 1 0-.047c.835-1.718 1.288-3.191 1.213-4.3l-7.458.137-5.664-3.776a55 55 0 0 1-3.965 8.916c-1.416 2.624-5.961 7.769-8.694 14.745-2.124 5.419-3.832 8.94-4.248 9.61-.415.67-1.26 2.105-1.529 2.445-1.539 2.001-1.968 3.422-1.638 8.373"/><path fill="#F28F8F" d="m160.115 171.446 12.956-.241q.015.222 0 .444v.174c0 .057 0 .203-.033.307s-.028.156-.042.231-.033.185-.052.279-.047.189-.071.283a3 3 0 0 1-.071.255.4.4 0 0 1-.023.076c-.052.033-3.276 2.242-9.336 3.275 0 0-.194 9.672-1.794 13.57-.595.732-1.199 1.459-1.798 2.186-.288-5.787.264-20.839.264-20.839"/><path fill="#263238" d="M151.038 213.199a6.47 6.47 0 0 0-1.765 3.635c-.179 2.091.071 7.816-.094 8.585a3.6 3.6 0 0 0 1.685.435l.321-2.299c.141-.472.089-.85.594 0 .505.849.944 1.841 1.714 3.106.628 1.005 1.586 3.068 4.375 3.889 2.61.769 4.758.51 5.99-.104.736-.368 1.817-1.364.873-2.756-.5-.737-2.332-3.031-3.304-4.352s-10.389-10.139-10.389-10.139"/><path fill="#FFA8A7" d="M158.123 213.129c-.132-5.471 5.018-30.487 3.63-42.24l-14.689-.174a64 64 0 0 1 1.52 10.384c.241 3.195-.788 10.511.708 18.408 1.161 6.136 1.638 10.327 1.657 11.172s.09 2.639.052 3.106c-.236 2.7.175 4.248 3.143 8.524.572.826 1.95 3.498 5.933 4.022 1.959.254 2.757-.656 1.978-1.969-1.241-2.1-3.804-5.763-3.932-11.233"/><path fill="#F28F8F" d="M148.593 181.094c.029 1.246-.042 2.482-.113 3.719a121 121 0 0 0-.146 3.724 59 59 0 0 0 .259 7.463c.133 1.241.336 2.468.562 3.691l.675 3.648c.222 1.218.425 2.44.618 3.663.194 1.222.387 2.445.505 3.681a72 72 0 0 0-.84-7.396c-.358-2.464-.92-4.876-1.142-7.335-.146-1.222-.222-2.459-.283-3.695-.061-1.237-.066-2.488-.095-3.715s0-2.478.043-3.719c.042-1.242.061-2.488-.043-3.729M161.965 177.431a46.6 46.6 0 0 0-.212-6.542l-14.689-.174q.605 2.444.944 4.937s5.646 2.846 13.957 1.779"/><path fill="#455A64" d="M172.807 146.992a87 87 0 0 0-1.59-10.039c-.586-2.535-1.133-4.72-1.52-6.674-4.248 2.832-14.882 3.101-19.768-.099-.816 1.279-3.242 4.474-5.168 9.015-1.676 3.965-2.36 6.447-2.289 11.375.071 4.512 2.086 17.771 3.922 23.435 4.961 2.752 22.363 2.119 27.291-2.809 0 0-.293-19.531-.878-24.204"/><path fill="#263238" d="M139.729 98.376c-.439-.632-.637-1.935-.16-2.54a3.08 3.08 0 0 1 1.789-1.07 1.62 1.62 0 0 0 1.326-1.856c.038-1.416.444-2.204 1.19-2.756 2.01-1.468 7.396-1.647 7.249 1.954 0 .538-.198 1.123.09 1.576.133.193.307.354.51.472a13 13 0 0 1 2.671 2.035c.746.845 1.209 2.043.841 3.105-.369 1.063-1.355 1.709-1.53 2.752-.236 1.416 1.204 2.832.812 4.211-.316 1.118-1.218 1.364-2.199 1.505-1.133.17-1.515 1.567-2.832 1.478a7 7 0 0 0-1.685.221 4.8 4.8 0 0 1-2.072 0 2.62 2.62 0 0 1-1.648-1.194c-.311-.557-.368-1.26-.802-1.732s-.892-.623-1.284-1.001a2.36 2.36 0 0 1-.821-1.416 1.48 1.48 0 0 1 .34-1.198.995.995 0 0 0-.694.906c-.015.407.058.812.212 1.189a2.53 2.53 0 0 1-1.359-1.594 2.54 2.54 0 0 1 .302-2.073c.255-.392.628-.755.628-1.218-.033-.75-.449-1.138-.874-1.756"/><path fill="#F7921E" d="M147.083 89.036c-2.006 1.109-1.836 5.003.661 6.66s2.355-8.553-.661-6.66"/><path fill="#263238" d="M167.719 85.808c-.392-2.596-3.332-2.69-4.111-2.596a3.7 3.7 0 0 1-3.026-1.251 3.73 3.73 0 0 0-3.61-1.048c-2.087.557-1.6 1.416-3.366 2.039-1.572.543-2.742.033-4.172 1.416a4.08 4.08 0 0 0-1.043 3.45c-1.077.67-2.493 4.64-.255 8.968 1.151 2.228 2.52 3.262 4.248 5.103h1.647c.529-1.416 1.931-1.147 3.214-1.478.817-.373 1.275-1.293 2.091-1.666s1.808-.108 2.705-.274c.694-.122 1.416-.542 2.124-.368 1.657.661 4.139-.793 3.936-2.7-.066-.575-.387-1.132-.278-1.704.141-.75.944-1.17 1.355-1.803a1.994 1.994 0 0 0-.133-2.388c-1.208-1.293-1.099-2.223-1.326-3.7"/><path fill="#FFA8A7" d="m162.008 106.699-.859-.099c-.732-.085-.675-.92-.751-1.638l-.075-1.118a4.96 4.96 0 0 0 3.653-1.19c1.506-1.331 2.294-3.965 2.124-6.787-.113-1.888-.604-2.752-.581-3.172.142-2.516-.061-2.964-.656-4.248-1.071-2.063-3.728-2.794-4.852-.562-3.304-2.53-6.896.86-6.726 4.72.472 3.196-.514 3.366-1.137 3.39-.944-1.988-3.002-1.94-3.861-.643-.779 1.17-.741 2.97.788 4.593 1.529 1.624 3.134.543 3.148.222 0 0 .279 4.309.321 5.192.043.882-.047 1.364-1.114 1.727l-1.534.519s.085.109.255.293c.387.444 1.246 1.416 2.691 3.111 3.653 1.335 8.024 3.2 10.601 4.72a47 47 0 0 0 1.609-5.664 20.4 20.4 0 0 0-3.044-3.366"/><path fill="#F7921E" d="M150.708 99.973a.76.76 0 1 0 0-1.52.76.76 0 0 0 0 1.52"/><path fill="#B16668" d="m158.251 98.4 2.449.633a1.24 1.24 0 0 1-.558.791 1.25 1.25 0 0 1-.957.153 1.33 1.33 0 0 1-.934-1.577"/><path fill="#F28F8F" d="M158.435 98.949a1.416 1.416 0 0 1 1.453 1.005c-.226.08-.47.091-.703.033a1.31 1.31 0 0 1-.944-1.005q.095-.024.194-.033"/><path fill="#263238" d="m164.703 91.377-1.888-.472a.94.94 0 0 1 .424-.613.95.95 0 0 1 .737-.114 1.017 1.017 0 0 1 .727 1.2M155.631 92.066l1.799-.807a.951.951 0 0 0-.912-.592.9.9 0 0 0-.372.092 1.026 1.026 0 0 0-.515 1.308M162.499 93.379a.81.81 0 0 0 1.08.777.77.77 0 0 0 .441-.405.8.8 0 0 0 .069-.297.816.816 0 0 0-1.082-.782.777.777 0 0 0-.441.407.8.8 0 0 0-.067.3M156.745 93.662a.838.838 0 0 0 .817.84.79.79 0 0 0 .83-.764.836.836 0 0 0-.83-.84.78.78 0 0 0-.817.764"/><path fill="#F28F8F" d="M160.323 103.818c-3.097-.137-6.099-.821-6.953-2.662a3.17 3.17 0 0 0 1.888 2.53 11.15 11.15 0 0 0 5.135 1.034zM163.117 95.956l-2.78 1.199-.656-5.305z"/><path fill="#F7921E" d="M161.139 106.562s1.369 2.861.434 4.588c-4.621-.528-8.524-2.676-10.1-4.125l-3.885.618s-2.544 4.853-1.756 8.968 4.097 13.566 4.097 13.566c4.399 6.386 19.352 3.011 19.767.099l.812-6.608s2.096-2.011 2.2-4.72c.108-2.832-1.057-4.805-3.908-7.722a35 35 0 0 0-5.409-4.583z"/><path fill="#fff" d="M161.139 106.562s1.369 2.861.434 4.588c-4.621-.528-8.524-2.676-10.1-4.125l-3.885.618s-2.544 4.853-1.756 8.968 4.097 13.566 4.097 13.566c4.399 6.386 19.352 3.011 19.767.099l.812-6.608s2.096-2.011 2.2-4.72c.108-2.832-1.057-4.805-3.908-7.722a35 35 0 0 0-5.409-4.583z" opacity=".7"/><path fill="#F7921E" d="M152.775 123.082a5.94 5.94 0 0 0 5.122 3.941 6.28 6.28 0 0 0 5.772-2.511s-.807 4.305-5.928 3.55c-5.121-.756-4.966-4.98-4.966-4.98" opacity=".3"/><path fill="#37474F" d="M152.525 105.377s3.814 8.878 5.098 13.164.618 7.708.137 15.463a1944 1944 0 0 1-1.024 14.976s-11.328-.165-14.802-5.192c.944-2.969 3.828-9.888 4.578-11.8.75-1.911.382-3.563-.831-7.943-1.213-4.381-3.153-6.774-3.096-10.012.057-3.237 2.313-5.852 3.139-6.409zM160.563 106.113a.67.67 0 0 0 .472.439s7.68 7.387 8.218 15.038 1.015 24.412 1.015 24.412.835-.387 2.459-2.162c-.345-3.474-1.544-17.199-1.218-18.771s4.069-5.154.633-10.261c-3.437-5.108-8.916-8.638-8.916-8.638z"/><path fill="#263238" d="M164.33 107.977c.472.439.972.883 1.416 1.341a86 86 0 0 1 2.785 2.789c.448.472.897.944 1.331 1.459.222.25.434.5.642.76.241.263.426.573.543.911.083.346.104.704.061 1.057q-.054.505-.189.996a13 13 0 0 1-.628 1.77 8 8 0 0 1 1.294 2.124q.058.168.08.344.018.178 0 .354c0 .222-.057.435-.09.647-.071.425-.156.84-.245 1.26a82 82 0 0 1-1.251 4.951c.33-1.67.666-3.337.944-5.007.076-.421.142-.836.198-1.256 0-.208.052-.415.062-.618.023-.189 0-.38-.066-.557a8.1 8.1 0 0 0-1.331-2.077l-.081-.099.052-.123q.389-.882.628-1.817.123-.465.17-.944c.045-.3.032-.606-.038-.902a2.1 2.1 0 0 0-.472-.764 19 19 0 0 0-.618-.751c-.42-.495-.864-.981-1.303-1.468-.883-.967-1.77-1.93-2.681-2.874s-1.803-1.888-2.771-2.79c.576.406 1.067.845 1.558 1.284M150.835 118.13v-3.125c.029-2.78.057-5.555.156-8.335.118 2.78.175 5.56.227 8.345v3.3890000000000002q0 .101.028.198c.045.137.117.264.212.373a4.8 4.8 0 0 0 1.652 1.067q.942.406 1.931.675l.227.061-.081.217q-.512 1.261-.873 2.573a8 8 0 0 0-.146.651q-.055.302 0 .604v.057l.038.08.556 1.09c.406.822.822 1.638 1.214 2.464l1.189 2.478-1.345-2.398c-.472-.797-.878-1.604-1.317-2.412l-.326-.604-.165-.302-.123-.226-.033-.109a1.8 1.8 0 0 1 0-.755q.047-.35.137-.689.321-1.235.779-2.426a14 14 0 0 1-1.789-.609 4.9 4.9 0 0 1-1.812-1.194 1.5 1.5 0 0 1-.288-.534 1.2 1.2 0 0 1-.038-.321zM145.724 107.643c-3.705.646-5.192 2.912-6.806 7.721-2.228 6.557-4.182 13.047-4.602 16.351l8.741-2.393 4.678-9.412s1.751-7.58-2.011-12.267"/><path fill="#F7921E" d="m163.443 144.629-18.909-2.908-2.879-24.246 18.913 2.907z"/><path fill="#000" d="m163.443 144.629-18.909-2.908-2.879-24.246 18.913 2.907z" opacity=".2"/><path fill="#FAFAFA" d="m162.744 143.567-18.12-2.794-2.681-22.609 18.12 2.79z"/><path fill="#F7921E" d="m160.417 136.717-1.812-15.269-16.95-3.979 2.879 24.256 17.936 4.205a.48.48 0 0 0 .423-.112.48.48 0 0 0 .149-.412l-.916-7.736a.85.85 0 0 0-.623-.703z"/><path fill="#FFA8A7" d="M134.434 131.715c0 2.482.368 2.898 3.096 4.295s9.61 3.549 15.057 4.073c3.554.345 5.381.175 6.759-.368a5.71 5.71 0 0 0 3.559-6.249c.594-1.714-.307-1.945-1.043-2.134l.132 1.124s-1.596 1.085-3.064 1.104-.103-1.699.161-2.737.208-1.634-.642-2.124c-.472 0-.633.651-2.115 2.128-1.123 1.119-2.001 3.163-3.747 2.927-1.364-.189-9.478-3.951-9.478-3.951l-.368-3.106z"/><path fill="#263238" d="M134.316 131.714c-.104 1.549.17 2.36.882 3.026.713.665 3.663 2.058 5.476 2.69 1.812.633 6.56 1.917 7.467 2.082-.944-1.473-.713-4.376.089-5.664.803-1.289 1.855-.987 1.855-.987l-6.981-3.138-.505-4.248z"/><path fill="#F7921E" d="m163.422 44.528 11.551-2.59c-.277-.157-2.632-1.53-4.934-2.855l-4.582-2.65a.54.54 0 0 0-.32-.091l-4.049-.234a.66.66 0 0 1-.684-.657c.114-1.3.114-2.608 0-3.908.009-.437.166-.858.445-1.194l6.481-.543c.272-.337 5.581-5.428 5.581-5.428h-.033l-9.548-5.554a.35.35 0 0 0-.185-.038l-7.665-4.44a.77.77 0 0 0-.467-.092l-4.722.472a1.31 1.31 0 0 0-1.032.716l-2.562 6.873a2.28 2.28 0 0 1-1.031.999c-.5.233-1.005.499-1.509.787l-4.956-2.866c-.196-.13-.511-.05-.766.222l-5.189 5.477a1.38 1.38 0 0 0-.402 1.14l1.444 4.886c.065.412-.03.834-.266 1.178a39 39 0 0 0-2.383 4.142 1.87 1.87 0 0 1-1.124.835l-4.44 1.086a1.45 1.45 0 0 0-1.004.841l-2.21 7.502a.48.48 0 0 0 .169.543c.097.082 5.026 2.92 5.026 2.92 0 .685 0 1.358.087 2.015a1.9 1.9 0 0 1-.44 1.194l-4.527 5.477a1.24 1.24 0 0 0-.271 1.13l2.171 4.749q.046.097.136.157l9.537 5.516a.1.1 0 0 0 .033-.044l.136.087 7.67 4.435c.13-.353 4.022-16.48 4.191-16.225l2.421 3.696a.3.3 0 0 0 .076.087l4.608 2.676 4.978 2.883-3.599-11.237c3.165 1.113 10.412-12.556 8.159-14.075m-27.945 7.507 17.539-18.51a9.2 9.2 0 0 1 .722 3.848q.577-.342 1.194-.608c.038.407.054.841.054 1.292 0 6.058-4.245 13.413-9.489 16.442-.385.218-.765.413-1.123.581a10 10 0 0 1-.076-1.373c-3.74 2.187-7.296 1.688-8.821-1.672"/><path fill="#000" d="m163.422 44.528 11.552-2.59c-.277-.157-2.633-1.53-4.935-2.855l-4.581-2.65a.55.55 0 0 0-.32-.091l-4.05-.234a.66.66 0 0 1-.482-.182.653.653 0 0 1-.202-.474c.114-1.301.114-2.609 0-3.91a1.94 1.94 0 0 1 .445-1.193l6.482-.543c.271-.337 5.58-5.428 5.58-5.428h-.033l-9.548-5.554a.35.35 0 0 0-.185-.038l-7.664-4.44a.77.77 0 0 0-.467-.092l-4.723.472a1.31 1.31 0 0 0-1.031.716l-2.562 6.873a2.27 2.27 0 0 1-1.032.999c-.499.233-1.004.499-1.509.787l-4.956-2.866c-.195-.13-.51-.05-.765.222l-5.19 5.477a1.39 1.39 0 0 0-.402 1.14l1.444 4.886c.066.412-.029.834-.266 1.178a39 39 0 0 0-2.383 4.142 1.87 1.87 0 0 1-1.123.835l-4.441 1.086a1.46 1.46 0 0 0-1.004.841l-2.209 7.502a.48.48 0 0 0 .168.543c.098.082 5.027 2.92 5.027 2.92 0 .685 0 1.358.086 2.015a1.9 1.9 0 0 1-.439 1.194l-4.527 5.477a1.24 1.24 0 0 0-.272 1.13l2.171 4.749a.4.4 0 0 0 .136.157l9.538 5.516a.1.1 0 0 0 .032-.044l.136.087 7.67 4.435c.131-.353 4.023-16.48 4.191-16.225l2.421 3.696a.3.3 0 0 0 .076.087l4.609 2.676 4.977 2.883-3.599-11.237c3.165 1.113 10.412-12.556 8.159-14.075m-27.945 7.507 17.539-18.51a9.2 9.2 0 0 1 .722 3.848q.578-.342 1.194-.608c.038.407.055.841.055 1.292 0 6.058-4.245 13.413-9.489 16.442-.386.218-.765.413-1.124.581a10 10 0 0 1-.076-1.373c-3.74 2.187-7.295 1.688-8.821-1.672" opacity=".15"/><path fill="#000" d="m166.213 41.916-2.769-5.684-2.388-.136a.66.66 0 0 1-.684-.656c.059-.712.087-1.412.087-2.09l-6.656.895-.38.445c.228.876.338 1.778.326 2.682q.578-.342 1.194-.608c.038.407.055.841.055 1.292 0 6.058-4.245 13.413-9.489 16.442-.385.218-.765.413-1.124.581a10 10 0 0 1-.076-1.373 9.5 9.5 0 0 1-3.403 1.26l-.087.249 4.885 8.995h.044a29 29 0 0 1 1.053-3.708l2.421 3.697a.3.3 0 0 0 .076.087l4.609 2.676 4.977 2.882-3.599-11.236c3.181 1.085 10.428-12.572 8.175-14.114l2.231-.5zM140.807 63.695s-3.799 4.5-6.693 8.219l.587.336a.1.1 0 0 0 .032-.043l.136.087 7.67 4.435c.076-.207 1.466-5.923 2.627-10.515zM127.964 54.727q-.11.267-.288.494l-4.527 5.477a1.24 1.24 0 0 0-.271 1.129l2.171 4.75c.03.063.077.118.136.157l2.779 1.629 4.885 1.699 6.297-8.87z" opacity=".15"/><path fill="#000" d="m135.477 52.034.825-.874c-3.941-.939-9.369-2.215-9.369-2.215l-.499 2.172 1.596.922c0 .684 0 1.358.086 2.014a1.5 1.5 0 0 1-.152.7l11.183 6.439s3.192-5.624 3.034-5.89a14 14 0 0 0-.342-.543c-2.757.766-5.178-.108-6.362-2.725" opacity=".05"/><path fill="#000" d="m142.013 45.135-10.9-6.291a2 2 0 0 1-.597.277l-4.441 1.085a1.45 1.45 0 0 0-1.004.842l-1.629 5.482 10.412 4.386 6.172-3.664zM144.852 39.723l2.926-5.477-1.976-7.127-11.047-1.775-1.509 1.59a1.39 1.39 0 0 0-.402 1.14l1.444 4.886c.045.212.034.433-.032.64zM146.204 22.96l11.942 6.9 3.257-12.072c-2.665-1.537-5.852-3.388-5.971-3.442a.77.77 0 0 0-.467-.092l-4.723.472a1.32 1.32 0 0 0-1.031.716l-2.562 6.873a1.9 1.9 0 0 1-.445.646" opacity=".15"/><path fill="#F7921E" d="m134.712 72.262-.462-4.419-11.399-6.574a.9.9 0 0 0 0 .543l2.171 4.75a.33.33 0 0 0 .136.158zM136.15 47.015l-10.922-6.275a.9.9 0 0 0-.157.288l-2.209 7.518a.49.49 0 0 0 .168.543l.081.049 4.924 2.85 4.576 2.649zM132.882 27.585l9.549 5.483 6.302-6.319-9.532-5.515a.64.64 0 0 0-.765.228l-5.19 5.477a1.6 1.6 0 0 0-.364.646M155.481 14.347a.73.73 0 0 0-.467-.087l-4.723.467a1.36 1.36 0 0 0-.787.374l12.442 7.171 3.175-1.835-.092-.575s-9.391-5.418-9.548-5.515"/><path fill="#fff" d="m134.712 72.262-.462-4.419-11.399-6.574a.9.9 0 0 0 0 .543l2.171 4.75a.33.33 0 0 0 .136.158zM136.15 47.015l-10.922-6.275a.9.9 0 0 0-.157.288l-2.209 7.518a.49.49 0 0 0 .168.543l.081.049 4.924 2.85 4.576 2.649z" opacity=".3"/><path fill="#fff" d="m132.882 27.585 9.549 5.483 6.302-6.319-9.532-5.515a.64.64 0 0 0-.765.228l-5.19 5.477a1.6 1.6 0 0 0-.364.646M155.481 14.347a.73.73 0 0 0-.467-.087l-4.723.467a1.36 1.36 0 0 0-.787.374l12.442 7.171 3.175-1.835-.092-.575s-9.391-5.418-9.548-5.515" opacity=".4"/><path fill="#F7921E" d="M174.973 41.938a.7.7 0 0 0-.293-.076l-4.049-.228a.656.656 0 0 1-.717-.69c.055-.64.087-1.28.093-1.894a19 19 0 0 0-.087-2.014c.01-.438.165-.86.439-1.2l4.528-5.477a1.25 1.25 0 0 0 .276-1.124l-2.171-4.755a.35.35 0 0 0-.13-.146h-.033a.66.66 0 0 0-.689.217l-4.831 4.413a.86.86 0 0 1-1.059.174 7.6 7.6 0 0 0-2.063-1.2.776.776 0 0 1-.488-.847l1.503-6.774a.42.42 0 0 0-.206-.478.8.8 0 0 0-.45-.082l-4.723.473a1.3 1.3 0 0 0-1.031.722l-2.563 6.866a2.17 2.17 0 0 1-1.031.994 21 21 0 0 0-2.926 1.699c-.396.266-.841.288-1.015 0l-2.416-3.691c-.173-.26-.542-.207-.874.12l-5.189 5.482a1.38 1.38 0 0 0-.402 1.134l1.444 4.886c.064.411-.029.832-.26 1.178a39 39 0 0 0-2.389 4.142 1.91 1.91 0 0 1-1.123.84l-4.441 1.087a1.46 1.46 0 0 0-1.004.83l-2.237 7.524a.54.54 0 0 0 .299.629.54.54 0 0 0 .244.05l4.055.227a.66.66 0 0 1 .63.405.7.7 0 0 1 .054.258 21 21 0 0 0 0 3.903 1.9 1.9 0 0 1-.439 1.2l-4.522 5.482a1.229 1.229 0 0 0-.277 1.124l2.171 4.75a.3.3 0 0 0 .13.146.4.4 0 0 0 .169.043.85.85 0 0 0 .543-.25l4.825-4.413a.854.854 0 0 1 1.053-.179c.622.507 1.32.912 2.069 1.2a.76.76 0 0 1 .483.847l-1.488 6.763a.425.425 0 0 0 .196.467c.134.072.288.1.44.082l4.728-.467a1.32 1.32 0 0 0 1.031-.722l2.568-6.867c.22-.44.584-.792 1.031-.999.494-.233.999-.505 1.498-.792.5-.288.95-.581 1.428-.901.391-.272.841-.288 1.01-.028l2.421 3.697q.046.065.114.109c.195.12.499.032.754-.234l5.19-5.477a1.37 1.37 0 0 0 .396-1.14l-1.444-4.885a1.66 1.66 0 0 1 .271-1.178 40 40 0 0 0 2.383-4.148 1.87 1.87 0 0 1 1.13-.835l4.434-1.086a1.46 1.46 0 0 0 1.005-.836l2.236-7.518a.5.5 0 0 0-.212-.532M151.29 60.313l-.266.07-.185.038a6 6 0 0 1-.423.07c-.141.017-.326.039-.483.05h-.473a4.74 4.74 0 0 1-4.451-2.991 8.1 8.1 0 0 1-.651-2.481 10 10 0 0 1-.076-1.374c0-4.282 2.231-9.592 5.862-13.43a16.5 16.5 0 0 1 3.578-2.904q.577-.342 1.194-.607a7.5 7.5 0 0 1 3.349-.706h.38a.7.7 0 0 1 .179 0 4.74 4.74 0 0 1 3.719 2.937c2.003 4.435-.294 12.17-5.136 17.278-2.014 2.204-4.147 3.55-6.128 4.05zM115.958 39.207l7.181-1.61c-.172-.097-1.637-.951-3.067-1.774l-2.848-1.647a.34.34 0 0 0-.199-.057l-2.518-.145a.4.4 0 0 1-.392-.249.4.4 0 0 1-.033-.16c.071-.808.071-1.621 0-2.43.006-.27.104-.533.277-.742l4.029-.337c.169-.21 3.469-3.375 3.469-3.375h-.02l-5.936-3.451a.2.2 0 0 0-.115-.024l-4.764-2.76a.48.48 0 0 0-.291-.058l-2.935.294a.81.81 0 0 0-.641.445l-1.593 4.272c-.141.27-.366.489-.641.621q-.467.219-.938.49l-3.081-1.782c-.122-.081-.317-.03-.476.138L97.2 28.271a.86.86 0 0 0-.25.708l.898 3.037c.04.257-.018.519-.165.733a24 24 0 0 0-1.482 2.574 1.16 1.16 0 0 1-.698.52l-2.76.675a.9.9 0 0 0-.625.523l-1.373 4.663a.3.3 0 0 0 .105.338c.06.05 3.124 1.815 3.124 1.815 0 .425 0 .844.054 1.252-.004.271-.1.533-.273.742l-2.814 3.405a.77.77 0 0 0-.169.702l1.35 2.953q.03.06.084.097l5.929 3.429a.1.1 0 0 0 .02-.027l.085.054 4.768 2.757c.081-.22 2.5-10.245 2.605-10.086l1.505 2.297q.018.032.047.054l2.865 1.664 3.094 1.792-2.237-6.985c1.967.692 6.472-7.805 5.071-8.75m-17.37 4.667 10.902-11.507c.319.757.472 1.572.448 2.393q.359-.213.743-.378.034.381.034.803c0 3.766-2.639 8.338-5.899 10.22a11 11 0 0 1-.698.362 6 6 0 0 1-.048-.854c-2.324 1.36-4.535 1.05-5.483-1.04"/><path fill="#000" d="m115.959 39.207 7.181-1.61c-.173-.097-1.637-.951-3.068-1.774l-2.848-1.647a.34.34 0 0 0-.199-.057l-2.517-.145a.41.41 0 0 1-.393-.249.4.4 0 0 1-.032-.16c.071-.808.071-1.621 0-2.43.006-.27.103-.533.276-.742l4.029-.337c.169-.21 3.469-3.375 3.469-3.375h-.02l-5.935-3.451a.2.2 0 0 0-.115-.024l-4.765-2.76a.48.48 0 0 0-.29-.058l-2.936.294a.82.82 0 0 0-.641.445l-1.593 4.272c-.141.27-.366.489-.641.621q-.466.219-.938.49l-3.081-1.782c-.121-.081-.317-.03-.475.138l-3.226 3.405a.86.86 0 0 0-.25.708l.898 3.037c.04.257-.019.519-.166.733a24 24 0 0 0-1.481 2.574 1.16 1.16 0 0 1-.699.52l-2.76.675a.9.9 0 0 0-.624.523l-1.373 4.663a.3.3 0 0 0 .104.338c.06.05 3.125 1.815 3.125 1.815 0 .425 0 .844.054 1.252-.004.271-.1.533-.273.742l-2.815 3.405a.77.77 0 0 0-.169.702l1.35 2.953q.029.06.085.097l5.928 3.429a.1.1 0 0 0 .02-.027l.085.054 4.768 2.757c.081-.22 2.5-10.245 2.605-10.086l1.505 2.297q.018.032.047.054l2.865 1.664 3.094 1.792-2.237-6.985c1.967.692 6.472-7.805 5.072-8.75m-17.371 4.667 10.902-11.507c.319.757.472 1.572.449 2.393q.359-.213.742-.378.035.381.034.803c0 3.766-2.639 8.338-5.898 10.22-.24.136-.476.257-.699.362a6 6 0 0 1-.047-.854c-2.325 1.36-4.535 1.05-5.483-1.04" opacity=".15"/><path fill="#000" d="m117.693 37.585-1.721-3.533-1.485-.085a.4.4 0 0 1-.392-.248.4.4 0 0 1-.033-.16q.055-.664.054-1.3l-4.137.557-.236.277a6.3 6.3 0 0 1 .202 1.667 6 6 0 0 1 .743-.378q.034.381.034.803c0 3.766-2.639 8.338-5.899 10.221-.239.135-.476.257-.698.361a6 6 0 0 1-.048-.853 5.9 5.9 0 0 1-2.115.782l-.054.156 3.037 5.591h.027q.251-1.174.654-2.305l1.505 2.298q.018.032.047.054l2.865 1.664 3.095 1.792-2.238-6.985c1.978.675 6.483-7.815 5.082-8.774l1.387-.31zM101.901 51.123s-2.362 2.797-4.16 5.109l.364.21a.1.1 0 0 0 .02-.028l.084.054 4.768 2.757c.048-.128.911-3.681 1.633-6.536zM93.917 45.547q-.068.165-.179.307l-2.814 3.405a.77.77 0 0 0-.169.702l1.35 2.952q.03.061.084.098l1.728 1.012 3.037 1.056 3.914-5.513z" opacity=".15"/><path fill="#000" d="m98.588 43.873.512-.543c-2.45-.584-5.824-1.377-5.824-1.377l-.31 1.35.992.574c0 .425 0 .843.054 1.251.004.151-.028.3-.095.436l6.952 4.002s1.984-3.496 1.886-3.662a8 8 0 0 0-.213-.337c-1.714.476-3.219-.067-3.954-1.694" opacity=".05"/><path fill="#000" d="m102.65 39.585-6.776-3.911a1.2 1.2 0 0 1-.371.172l-2.76.675a.9.9 0 0 0-.625.523l-1.012 3.408 6.472 2.726 3.837-2.277zM104.414 36.22l1.819-3.405-1.228-4.43-6.867-1.104-.938.989a.86.86 0 0 0-.25.709l.898 3.037a.8.8 0 0 1-.02.398zM105.255 25.8l7.424 4.29 2.024-7.505c-1.657-.955-3.637-2.106-3.712-2.14a.47.47 0 0 0-.29-.057l-2.936.294a.82.82 0 0 0-.641.445l-1.592 4.272a1.2 1.2 0 0 1-.277.402" opacity=".15"/><path fill="#F7921E" d="m98.111 56.448-.286-2.746-7.087-4.087a.55.55 0 0 0 0 .338l1.35 2.952q.027.063.085.098zM99.005 40.754l-6.789-3.9a.6.6 0 0 0-.098.178l-1.373 4.674a.3.3 0 0 0 .105.337l.05.03 3.06 1.772 2.845 1.647zM96.974 28.676l5.936 3.408 3.917-3.928-5.925-3.428a.4.4 0 0 0-.476.142L97.2 28.275a1 1 0 0 0-.226.401M111.022 20.446a.45.45 0 0 0-.29-.054l-2.936.29a.84.84 0 0 0-.489.233l7.734 4.457 1.974-1.14-.058-.358s-5.837-3.368-5.935-3.428"/><path fill="#fff" d="m98.111 56.448-.286-2.746-7.087-4.087a.55.55 0 0 0 0 .338l1.35 2.952q.027.063.085.098zM99.005 40.754l-6.789-3.9a.6.6 0 0 0-.098.178l-1.373 4.674a.3.3 0 0 0 .105.337l.05.03 3.06 1.772 2.845 1.647z" opacity=".3"/><path fill="#fff" d="m96.974 28.676 5.936 3.408 3.917-3.928-5.925-3.428a.4.4 0 0 0-.476.142L97.2 28.275a1 1 0 0 0-.226.401M111.022 20.446a.45.45 0 0 0-.29-.054l-2.936.29a.84.84 0 0 0-.489.233l7.734 4.457 1.974-1.14-.058-.358s-5.837-3.368-5.935-3.428" opacity=".4"/><path fill="#F7921E" d="M123.139 37.598a.4.4 0 0 0-.182-.047l-2.517-.142a.41.41 0 0 1-.446-.429c.034-.398.054-.796.058-1.177q.006-.627-.054-1.252a1.23 1.23 0 0 1 .273-.746l2.814-3.405a.77.77 0 0 0 .172-.698l-1.349-2.956a.2.2 0 0 0-.081-.091h-.021a.41.41 0 0 0-.428.135l-3.003 2.743a.535.535 0 0 1-.658.108 4.7 4.7 0 0 0-1.283-.746.486.486 0 0 1-.303-.526l.934-4.211a.26.26 0 0 0-.013-.17.26.26 0 0 0-.115-.127.5.5 0 0 0-.28-.051l-2.936.294a.8.8 0 0 0-.641.448l-1.592 4.269a1.35 1.35 0 0 1-.642.617q-.951.456-1.818 1.057c-.247.165-.523.178-.631 0l-1.502-2.295c-.108-.162-.337-.128-.543.074l-3.226 3.409a.86.86 0 0 0-.25.705l.898 3.037c.039.255-.018.517-.162.732a24 24 0 0 0-1.485 2.575 1.2 1.2 0 0 1-.698.523l-2.76.674a.91.91 0 0 0-.625.517l-1.39 4.677a.34.34 0 0 0 .337.421l2.52.142a.415.415 0 0 1 .426.412c-.076.807-.076 1.619 0 2.426a1.18 1.18 0 0 1-.273.746l-2.811 3.408a.76.76 0 0 0-.172.698l1.35 2.953a.18.18 0 0 0 .08.091.2.2 0 0 0 .105.027.53.53 0 0 0 .338-.155l2.999-2.744a.53.53 0 0 1 .655-.11c.387.314.82.566 1.286.745a.47.47 0 0 1 .245.209c.055.096.075.208.055.317l-.925 4.205a.27.27 0 0 0 .122.29.46.46 0 0 0 .273.05l2.939-.29a.82.82 0 0 0 .641-.448l1.597-4.27c.137-.273.363-.492.641-.62.307-.145.621-.314.931-.493.31-.178.591-.36.887-.56.243-.169.523-.179.628-.017l1.505 2.298q.029.04.071.068c.121.074.31.02.469-.145l3.226-3.405a.85.85 0 0 0 .246-.709l-.897-3.037a1.03 1.03 0 0 1 .168-.732q.818-1.245 1.482-2.578c.157-.258.409-.444.702-.52l2.756-.674a.9.9 0 0 0 .625-.52l1.39-4.674a.3.3 0 0 0-.014-.185.3.3 0 0 0-.118-.145M108.417 49.02l-.165.044-.115.023a4 4 0 0 1-.263.044c-.088.01-.203.024-.301.03h-.293a2.95 2.95 0 0 1-2.767-1.858 5 5 0 0 1-.405-1.543 6 6 0 0 1-.047-.853c0-2.663 1.386-5.963 3.644-8.349a10.2 10.2 0 0 1 2.224-1.805q.359-.213.742-.378a4.7 4.7 0 0 1 2.082-.438h.236a.4.4 0 0 1 .112 0 2.95 2.95 0 0 1 2.311 1.825c1.245 2.757-.182 7.566-3.192 10.74-1.252 1.37-2.578 2.208-3.81 2.518z"/></svg>