<svg xmlns="http://www.w3.org/2000/svg" width="256" height="256" fill="none"><path stroke="#D5D5D5" d="M238.982 171.661c0 17.519-12.304 33.474-32.402 45.077-20.086 11.596-47.867 18.785-78.58 18.785s-58.494-7.189-78.58-18.785C29.323 205.135 17.02 189.18 17.02 171.661s12.303-33.474 32.402-45.078c20.085-11.596 47.866-18.784 78.579-18.784s58.494 7.188 78.58 18.784c20.098 11.604 32.402 27.559 32.402 45.078Z"/><path fill="#263238" d="M193.32 139.645a2.45 2.45 0 0 0-2.506.151c-2.053 1.185-3.724 4.611-3.724 7.637v7.132a.325.325 0 1 0 .651 0v-7.132c0-2.832 1.525-5.995 3.399-7.08a1.79 1.79 0 0 1 1.855-.151c.774.448 1.217 1.581 1.217 3.115v7.104a.326.326 0 0 0 .652 0v-7.099c0-1.77-.562-3.111-1.544-3.677"/><path fill="#F7921E" d="m209.259 180.553-1.996-34.296-5.721-3.294-1.878 32.053z"/><path fill="#fff" d="m209.259 180.553-1.996-34.296-5.721-3.294-1.878 32.053z" opacity=".4"/><path fill="#F7921E" d="m181.444 154.569-1.878 32.049 20.098-11.602 1.878-32.053z"/><path fill="#fff" d="m181.444 154.569-1.878 32.049 20.098-11.602 1.878-32.053z" opacity=".3"/><path fill="#000" d="m181.444 154.569-1.878 32.049 20.098-11.602 1.878-32.053z" opacity=".05"/><path fill="#F7921E" d="m181.444 154.57 5.721 3.29 1.997 34.296-9.596-5.537z"/><path fill="#fff" d="m181.444 154.57 5.721 3.29 1.997 34.296-9.596-5.537z" opacity=".55"/><path fill="#F7921E" d="m189.162 192.155-4.126-5.787-.514-20.216-.515 19.867-4.441.599z" opacity=".2"/><path fill="#000" d="m189.162 192.155-4.126-5.787-.514-20.216-.515 19.867-4.441.599z" opacity=".05"/><path fill="#F7921E" d="m207.258 146.258-20.093 11.602 1.997 34.295 20.097-11.602zm-14.122 12.423c-.397.226-.718.038-.718-.42a1.586 1.586 0 0 1 .718-1.242c.396-.231.722-.042.722.42a1.58 1.58 0 0 1-.722 1.242m7.122-4.144c-.396.226-.717.037-.717-.42a1.58 1.58 0 0 1 .722-1.242c.397-.231.717-.042.717.42a1.58 1.58 0 0 1-.712 1.223z"/><path fill="#fff" d="m207.258 146.258-20.093 11.602 1.997 34.295 20.097-11.602zm-14.122 12.423c-.397.226-.718.038-.718-.42a1.586 1.586 0 0 1 .718-1.242c.396-.231.722-.042.722.42a1.58 1.58 0 0 1-.722 1.242m7.122-4.144c-.396.226-.717.037-.717-.42a1.58 1.58 0 0 1 .722-1.242c.397-.231.717-.042.717.42a1.58 1.58 0 0 1-.712 1.223z" opacity=".7"/><path fill="#37474F" d="M199.05 142.907a2.45 2.45 0 0 0-2.502.151c-2.053 1.184-3.724 4.611-3.724 7.637v7.136a.33.33 0 0 0 .324.287.33.33 0 0 0 .323-.287v-7.136c0-2.832 1.524-5.995 3.398-7.08a1.8 1.8 0 0 1 1.86-.151c.774.472 1.218 1.581 1.218 3.115v7.103a.32.32 0 0 0 .323.287.325.325 0 0 0 .323-.287v-7.098c0-1.77-.561-3.111-1.543-3.677"/><path fill="#263238" d="M216.023 148.296a2.12 2.12 0 0 0-2.185.132c-1.794 1.034-3.253 4.021-3.253 6.665v6.225a.283.283 0 0 0 .567 0v-6.207c0-2.463 1.331-5.229 2.969-6.178a1.57 1.57 0 0 1 1.619-.128c.675.388 1.062 1.379 1.062 2.714v6.217a.283.283 0 0 0 .566 0v-6.217c0-1.543-.491-2.709-1.345-3.223"/><path fill="#F7921E" d="m229.933 184.017-1.742-29.934-4.994-2.87-1.637 27.971z"/><path fill="#000" d="m229.933 184.017-1.742-29.934-4.994-2.87-1.637 27.971z" opacity=".2"/><path fill="#F7921E" d="m205.658 161.337-1.638 27.971 17.54-10.124 1.637-27.971z"/><path fill="#000" d="m205.658 161.337-1.638 27.971 17.54-10.124 1.637-27.971z" opacity=".3"/><path fill="#F7921E" d="m205.658 161.338 4.994 2.874 1.741 29.93-8.373-4.833z"/><path fill="#000" d="m205.658 161.338 4.994 2.874 1.741 29.93-8.373-4.833z" opacity=".15"/><path fill="#000" d="m212.393 194.141-3.596-5.05-.453-17.644-.449 17.337-3.875.524z" opacity=".15"/><path fill="#F7921E" d="m228.191 154.082-17.539 10.129 1.742 29.93 17.558-10.125zm-12.319 10.828c-.344.198-.628.033-.628-.368a1.41 1.41 0 0 1 .628-1.086c.345-.198.628-.033.628.368a1.38 1.38 0 0 1-.628 1.086m6.216-3.616c-.344.198-.627.033-.627-.368a1.41 1.41 0 0 1 .627-1.086c.345-.198.628-.033.628.369a1.38 1.38 0 0 1-.628 1.085"/><path fill="#37474F" d="M221.026 151.161a2.13 2.13 0 0 0-2.185.133c-1.794 1.033-3.252 4.021-3.252 6.664v6.226a.283.283 0 0 0 .566 0v-6.226c0-2.459 1.331-5.23 2.969-6.174a1.569 1.569 0 0 1 1.619-.132c.675.392 1.062 1.379 1.062 2.719v6.197q0 .057.022.109a.284.284 0 0 0 .545-.109v-6.197c0-1.548-.491-2.714-1.346-3.21"/><path fill="#F28F8F" d="M142.759 126.644a3.36 3.36 0 0 0-1.693-.511 1.4 1.4 0 0 0-.511.031.46.46 0 0 0-.317.363 1.83 1.83 0 0 0-1.228-.455 1.83 1.83 0 0 0-1.217.485l.783 1.35a5.8 5.8 0 0 0 2.501 1.171 2.8 2.8 0 0 0 1.319 0 1.429 1.429 0 0 0 .967-.848 1.462 1.462 0 0 0-.604-1.586"/><path fill="#FFA8A7" d="M151.371 85.932c-3.36 1.12-5.625 1.068-9.42 5.502a334 334 0 0 0-9.405 11.42c-1.835 2.332-2.122 3.523-.398 6.484 1.432 2.465 8.463 11.818 9.107 12.463.333.332 0 1.876-.066 2.833-.066.956.332 1.846.23 2.593-.189 1.472-.644 1.534-1.652.613-1.222-1.099-2.373-2.081-2.73-.7-.077.291 2.229 2.817 2.7 3.359.818.936 2.715.803 4.638 0 1.923-.802 3.529-2.147 3.779-4.091.251-1.943.588-4.254-.787-6.367-1.621-2.495-6.751-13.388-6.751-13.388l9.43-9.026z"/><path fill="#37474F" d="M148.615 85.932c-2.424.634-2.532.511-6.863 5.313a117 117 0 0 0-8.003 10.1 8.6 8.6 0 0 1 4.878 1.636c2.603 1.765 2.711 2.987 2.711 2.987l9.839-8.474z"/><path fill="#FFA8A7" d="M146.738 195.661c-.138-2.046-1.371-22.599-1.371-22.599l10.085 7.4c-1.606 11.762-2.24 14.918-2.301 16.876q.065.252.051.512c-.031 2.326-2.741 3.554-4.863 5.088a39.6 39.6 0 0 1-5.728 3.58c-1.534.736-4.638.772-5.017-.195 2.583-1.876 5.564-3.927 7.625-6.085.982-1.043 1.688-2.128 1.519-4.577"/><path fill="#263238" d="M133.206 208.763c-.133 0-.347 1.407.363 2.015.813.701 3.217 1.862 6.413 1.494s4.92-1.315 6.224-2.337 3.094-2.481 4.541-2.772c1.345-.276 2.808-.854 3.242-1.253s.394-2.199.394-2.199z"/><path fill="#37474F" d="M153.181 196.77a.51.51 0 0 1 .476.424c.097.511.184 1.938.389 2.751.315 1.435.406 2.91.271 4.373-.19.92-2.378 1.534-3.785 2.045a18 18 0 0 0-4.556 2.741c-1.534 1.192-4.679 2.409-6.761 2.373-2.459-.041-5.226-.849-5.85-1.969-.772-1.386-.143-2.173 3.523-3.784.691-.307 3.135-1.682 3.969-2.184 2.25-1.35 4.485-3.237 5.543-5.656.081-.297.261-.557.512-.736.225-.093.474-.113.711-.056.606.089 1.196.27 1.749.537.511.23 1.181.511 1.16 1.114-.012.213-.06.423-.143.619-.041.123-.082.292.031.368.112.077.245 0 .343-.092a9 9 0 0 0 .997-1.14q.257-.318.583-.568.326-.176.629-.388c.245-.22.194-.486.209-.772"/><path fill="#455A64" d="M145.976 209.1a23 23 0 0 1 2.009-1.427s-4.321 2.501-6.044 1.324c-1.11-.757-.568-1.651-.512-1.943.057-.291-2.715-1.534-3.799-1.693-.302.164-.558.292-.716.363-3.667 1.611-4.296 2.399-3.524 3.785.624 1.12 2.624 2.009 5.805 2.045 2.055.016 5.272-1.263 6.781-2.454"/><path fill="#263238" d="M141.711 206.21c-2.276.864-1.315 1.283-.681 1.381.635.097 4.48-2.046 6.828-3.815 2.449-1.847 4.004-3.882 4.914-4.562.338-.251.706-.563 1.023-.854-.056-.486-.097-.931-.143-1.166a.516.516 0 0 0-.476-.424c0 .286.036.552-.189.767a6 6 0 0 1-.629.388 3.4 3.4 0 0 0-.583.568 9 9 0 0 1-.997 1.14c-2 2.435-6.787 5.697-9.067 6.577"/><path fill="#F0F0F0" d="M141.195 207.268a.222.222 0 0 0 .221-.244.23.23 0 0 0-.042-.114 5.48 5.48 0 0 0-4.143-1.641.22.22 0 0 0-.21.151.22.22 0 0 0 .019.179q.023.04.062.068a.21.21 0 0 0 .175.036 5.08 5.08 0 0 1 3.749 1.483.22.22 0 0 0 .169.082M143.189 206.104a.24.24 0 0 0 .117-.034.23.23 0 0 0 .082-.091.23.23 0 0 0 .023-.119.23.23 0 0 0-.043-.114 5.47 5.47 0 0 0-4.142-1.642.225.225 0 0 0-.205.241.227.227 0 0 0 .246.194 5.12 5.12 0 0 1 3.748 1.478.24.24 0 0 0 .174.087M145.178 204.999a.23.23 0 0 0 .199-.125.23.23 0 0 0 .023-.119.23.23 0 0 0-.043-.114 5.47 5.47 0 0 0-4.142-1.642.22.22 0 0 0-.152.077.2.2 0 0 0-.041.077.23.23 0 0 0 .019.169.3.3 0 0 0 .056.066.22.22 0 0 0 .164.046 5.06 5.06 0 0 1 3.748 1.483.24.24 0 0 0 .169.082M147.029 203.73a.25.25 0 0 0 .143-.046.23.23 0 0 0 .084-.148.23.23 0 0 0-.048-.164 5.51 5.51 0 0 0-4.142-1.641.22.22 0 0 0-.15.078.228.228 0 0 0-.05.162.22.22 0 0 0 .155.191q.042.012.086.008a5.07 5.07 0 0 1 3.748 1.478.229.229 0 0 0 .174.082M148.839 202.461q.038.004.074-.008a.15.15 0 0 0 .064-.038.2.2 0 0 0 .06-.063.2.2 0 0 0 .028-.081.2.2 0 0 0-.047-.162c-.869-1.09-2.853-1.826-4.526-1.668a.23.23 0 0 0-.164.073.218.218 0 0 0-.055.17.2.2 0 0 0 .028.088q.024.04.062.068.037.027.084.037a.2.2 0 0 0 .092-.001c1.503-.143 3.354.511 4.126 1.504a.205.205 0 0 0 .174.081"/><path fill="#FFA8A7" d="m167.244 180.272 9.681-1.126c.511 6.582.22 13.972.685 20.144.087 1.166.967 9.006.767 11.435-.302 3.651-4.715 3.58-5.17 1.473s-.895-11.333-1.023-12.274c-.368-3.953-2.337-8.867-4.091-15.853-.051-.363-.767-3.472-.849-3.799"/><path fill="#263238" d="M171.719 213.846c.128 2.117.466 3.518 1.238 4.761s2.224 1.626 3.692 1.263 3.355-1.334 3.774-3.155a11.3 11.3 0 0 0 0-5.037z"/><path fill="#37474F" d="M177.559 198.535c.604.046.788 2.884 1.135 5.728.379 3.068 1.315 4.306 1.652 6.806.384 2.854.23 4.132-.792 5.856-1.023 1.723-4.659 3.421-6.449.946-1.463-2.015-1.534-4.25-1.391-7.098.165-2.415.207-4.837.128-7.257-.118-2.137-.271-4.209.256-4.449.04.317.076.716.122 1.023s.092 1.396.435 1.406a4 4 0 0 0 0-.808.96.96 0 0 1 .164-.69 1.16 1.16 0 0 1 .675-.292 19 19 0 0 1 1.8-.271q.452-.04.905-.036c.26-.008.519.029.767.108a.55.55 0 0 1 .332.286q.042.161.031.327 0 .3.077.589c0 .081.082.184.169.163.086-.02.097-.102.097-.169 0-.347-.041-.598-.062-.997 0-.184-.035-.44-.041-.624s0-.368-.01-.547"/><path fill="#455A64" d="M180.188 210.256c.056.414.419 3.14-.343 3.631s-1.278-1.611-1.278-1.611-1.933-.578-4.746.624c.143.44-.291 1.897-1.064 1.59-.772-.307-1.068-3.431-1.074-3.472-.117 2.731 0 4.899 1.402 6.852 1.79 2.476 5.42.783 6.448-.946 1.028-1.728 1.177-3.001.793-5.855a4 4 0 0 0-.138-.813"/><path fill="#263238" d="M178.368 212.46c0 1.023 1.058.681 1.099-.777.041-1.457-.777-4.914-.772-7.42-.348-2.844-.512-5.682-1.135-5.728v.102l.081 1.448q.035.308.036.618c0 2.102.322 6.173.512 8.096a33 33 0 0 1 .179 3.661M174.164 212.87a32 32 0 0 1-.578-3.621c-.21-1.908-.741-5.907-1.156-7.983a5 5 0 0 1-.209-1.176c-.041-.286-.077-.65-.118-.956v-.062c-.378.179-.404 1.32-.343 2.752.077.823.215 1.846.404 3.068.512 2.46.425 6.024.768 7.446.342 1.421 1.431 1.544 1.232.532"/><path fill="#F0F0F0" d="M173.78 213.001a.2.2 0 0 0 .082 0 7.35 7.35 0 0 1 4.669-.47.223.223 0 0 0 .271-.154.23.23 0 0 0-.024-.168.23.23 0 0 0-.135-.103 7.63 7.63 0 0 0-4.991.512.2.2 0 0 0-.068.051.2.2 0 0 0-.041.074q-.013.042-.009.085a.2.2 0 0 0 .026.081.2.2 0 0 0 .096.078.2.2 0 0 0 .124.014M173.274 210.743a.2.2 0 0 0 .071 0 9.1 9.1 0 0 1 5.227-.512.232.232 0 0 0 .271-.164.22.22 0 0 0-.169-.26 9.36 9.36 0 0 0-5.523.557.21.21 0 0 0-.126.209q.003.044.024.083a.23.23 0 0 0 .099.077q.061.023.126.01M178.424 208.067a.21.21 0 0 0 .189-.149.2.2 0 0 0 .012-.084.22.22 0 0 0-.15-.192c-2.721-.895-5.401.45-5.513.512a.2.2 0 0 0-.069.052.2.2 0 0 0-.043.075.2.2 0 0 0-.01.086.222.222 0 0 0 .157.191.22.22 0 0 0 .17-.016c.03 0 2.633-1.319 5.159-.48q.048.013.098.005M178.265 206.063a.222.222 0 0 0 .189-.144.22.22 0 0 0-.008-.168.3.3 0 0 0-.051-.069.2.2 0 0 0-.074-.044 7.11 7.11 0 0 0-5.625.512.2.2 0 0 0-.064.057.228.228 0 0 0-.042.163.21.21 0 0 0 .17.18c.059.014.12.004.171-.027a6.75 6.75 0 0 1 5.236-.45.2.2 0 0 0 .098-.01"/><path fill="#EBEBEB" d="M178.081 203.797a.223.223 0 0 0 .189-.138.225.225 0 0 0-.006-.169.22.22 0 0 0-.127-.112c-2.802-1.023-5.548.486-5.666.547a.223.223 0 0 0-.082.302.23.23 0 0 0 .307.082s2.685-1.473 5.283-.512a.2.2 0 0 0 .102 0"/><path fill="#37474F" d="M170.333 113.997c1.938 4.321 4.03 7.349 4.286 15.495.542 17.316.358 29.819.358 29.819.117 1.534.915 3.764 1.984 11.629.895 6.592.711 16.738.711 16.738s-4.526 2.322-8.694.66c-1.672-5.625-4.659-20.338-6.484-27.876-1.657-6.843-3.299-16.876-3.299-16.876l-2.634 16.953s.512 6.796.277 10.795c-.266 4.654-2.486 17.71-2.486 17.71s-4.638 1.984-8.238-.619c0 0-1.795-23.422-1.836-29.032-.087-10.995-.685-34.166 1.268-45.672z"/><path fill="#455A64" d="M177.892 186.037c-1.708 1.023-7.124 1.729-9.446.885l.66 2.659s1.053.726 4.255.547 4.444-1.473 4.444-1.473zM154.818 186.783c-1.831.819-6.863.824-9.057-.306l.301 2.72s.747 1.023 3.954 1.079c3.206.056 4.372-.905 4.372-.905z"/><path fill="#263238" d="m159.175 143.602-1.944-12.233s-7.487-.864-10.228-3.416c0 0 3.437 4.725 8.52 5.492l2.163 10.141-1.114 16.825z"/><path fill="#FFA8A7" d="m168.671 110.836 1.872-11.475s-3.483-5.002-2.695-12.898c-2.199-.905-4.817-1.11-4.725-2.648l-8.694 1.406c-1.943 2.045-5.968 3.738-7.968 7.16-2.444 4.147-2.495 8.074-.03 10.943.128 2.859-.42 12.161-.42 12.161 8.75 5.917 23.918 1.094 23.918 1.094-.752-2.163-1.427-3.738-1.258-5.743"/><path fill="#263238" d="M163 81.406c.076-1.396 2.383-2.787 4.352-4.92 2.741-2.96 4.239-8.228.122-12.09-.925-6.136-8.11-7.619-13.966-6.182-3.513.86-6.755 3.222-7.983 6.648-.884 2.47-.874 5.554.829 7.86a5.36 5.36 0 0 1 .031-2.613c.114.408.287.797.511 1.156a1.55 1.55 0 0 0 1.023.665c.429.035.685-.205 1.063-.328.379-.122.379-.066.696.164l1.145.828 2.685 1.949 5.666 4.09c.251.18 3.826 2.844 3.826 2.773"/><path fill="#263238" d="M174.444 75.106c-.578.337-1.171.148-1.836.394-.808.306-1.181 1.258-1.923 1.703a3.18 3.18 0 0 1-2.193.194 2.2 2.2 0 0 1-1.146-.45 2.1 2.1 0 0 1-.429-.593 9.4 9.4 0 0 1-.88-2.619c-.205-.981-.537-1.784-.44-2.828.046-.511.154-1.022.174-1.508a2.3 2.3 0 0 0-.358-1.448 5.2 5.2 0 0 0-1.488-1.073 2.7 2.7 0 0 1-1.054-1.171 3.28 3.28 0 0 1 0-2.046 6.35 6.35 0 0 1 1.939-3.288 4.43 4.43 0 0 1 3.579-1.07c.826.154 1.572.592 2.107 1.239.276.31.474.682.578 1.084.023.428.102.85.235 1.258.292.494.759.86 1.31 1.022q.816.238 1.585.604a4.4 4.4 0 0 1 1.365 1.411c.304.415.531.881.67 1.376a1.88 1.88 0 0 1-.215 1.483c-.281.42-.767.665-1.073 1.069a1.63 1.63 0 0 0-.318 1.181c.092.736.67 1.335.788 2.046a2.1 2.1 0 0 1-.726 1.84q-.117.106-.251.19"/><path fill="#FFA8A7" d="M164.467 77.576a3.16 3.16 0 0 0 1.596-.589c1.278-.89 1.611-2.822.977-4.193-.43-.93-1.944-1.391-2.711-.598-.399.404-.603 1.754-1.396 1.493-.542-.18-.47-.946-.511-1.391a10.07 10.07 0 0 0-3.186-6.137 9.5 9.5 0 0 0-2.608-1.8 5.4 5.4 0 0 0-2.629-.552c-.562.09-1.098.3-1.57.619a2.2 2.2 0 0 0-1.125-.701c-1.335-.358-2.496.88-2.971 2-.844 1.989-.839 4.367-.839 6.484 0 4.045.757 6.648 2.419 8.402.767.803 2.557 1.437 4.49 1.325l.041 2.495s-2.695 2.782-1.483 5.845a19.7 19.7 0 0 0 5.446-1.299c3.897-1.718 4.685-3.426 4.685-3.426l.179-8.755v.046a1.19 1.19 0 0 0 1.196.732"/><path fill="#263238" d="M157.758 61.88c2.045.143 3.646 1.191 4.935 2.848 1.401 1.81 2.199 4.245 1.452 6.464-.1.391-.309.746-.604 1.023a.97.97 0 0 1-1.319-.113 5.5 5.5 0 0 1-1.151-1.907c.003.928.218 1.843.629 2.675a3.92 3.92 0 0 1-2.362-1.479c-1.054-1.4-1.059-3.329-1.856-4.888-1.064-2.046-2.419-3.38-5.058-2.046 0-.015 0-2.945 5.334-2.577M155.349 70.918a.882.882 0 0 0 1.057.976.82.82 0 0 0 .526-.379.8.8 0 0 0 .11-.311.88.88 0 0 0-1.056-.974.83.83 0 0 0-.637.688M148.666 68.723l1.927-.665a.98.98 0 0 0-1.258-.654 1.076 1.076 0 0 0-.669 1.319"/><path fill="#263238" d="m155.641 68.135 1.78.992a.99.99 0 0 0 .118-.765.98.98 0 0 0-.476-.61 1.064 1.064 0 0 0-1.422.383"/><path fill="#B16668" d="m155.983 75.914-3.14 1.31a1.7 1.7 0 0 0 1.003.946 1.7 1.7 0 0 0 1.375-.103 1.6 1.6 0 0 0 .762-2.153"/><path fill="#F28F8F" d="M154.295 78.24a1.79 1.79 0 0 1 1.657-1.734h.164a1.5 1.5 0 0 1-.895 1.534c-.287.142-.605.21-.926.2"/><path fill="#263238" d="M149.09 70.774a.852.852 0 0 0 1.02.944.8.8 0 0 0 .616-.668.857.857 0 0 0-.701-.95.8.8 0 0 0-.935.674"/><path fill="#F28F8F" d="m153.161 70.088-.456 5.196-2.557-.635zM154.398 81.953c2.046-.21 6.163-.967 7.533-3.58 0 0-.578 2.173-1.923 3.1-1.345.925-5.594 1.661-5.594 1.661z"/><path fill="#37474F" d="M148.615 85.93c-1.535.379-.578 2.798-3.529 7.088l9.139-7.768.214-.803s-3.707.957-5.824 1.483"/><path fill="#F7921E" d="M147.771 90.294c3.886-3.227 6.433-4.991 6.433-4.991-.511 2.045-.026 3.257.992 3.58s4.603-.42 6.674-2.343l11.22 8.065c-.67 1.974-2.01 5.421-2.373 7.528s-1.135 6.223-.895 8.346c.24 2.122 3.324 8.284 4.009 12.14 0 0-6.111 5.656-18.185 5.037-9.629-.511-11.276-4.541-11.276-4.541s.404-6.648.557-9.323c.154-2.674.635-7.737.635-7.737s-3.662-3.385-2.849-7.768c.777-4.178 3.457-6.663 5.058-7.993"/><path fill="#263238" d="M163.138 83.043c-.169 1.325-1.534 3.104-2.721 3.922-2.557 1.74-4.495 2.046-5.625 1.381s-.511-2.859-.358-3.897l-.609.154c-.511 1.084-1.309 4.203.445 4.986 2.429 1.079 6.812-.824 8.505-2.971s1.764-3.314 1.764-3.314a3.6 3.6 0 0 1-.736 0 4 4 0 0 1-.665-.261"/><path fill="#FFA8A7" d="M186.274 54.014c0 1.897-3.703 14.104-3.703 14.104s7.247 4.541 7.298 4.352 2.557-16.14 3.181-18.64z"/><path fill="#37474F" d="M164.646 85.082c2.419-3.508 4.138-4.444 6.188-5.298 2.051-.854 9.717-6.065 9.717-6.065l3.579-12.217 7.006 3.58s-1.36 11.828-2.296 13.454-6.223 6.776-10.253 11.026c-2.787 2.94-5.39 5.907-6.71 8.464-.352.69-1.181 2.199-2.183 1.948-1.534-.394-3.171-4.536-3.912-6.93a22.6 22.6 0 0 1-1.136-7.962"/><path fill="#37474F" d="M166.549 82.652c-2.23 1.207-3.411.389-3.411.389s.154 3.022-1.923 4.337c0 0 4.398 9.798 7.82 12.242 3.421 2.445-2.486-16.968-2.486-16.968"/><path fill="#FFA8A7" d="M186.273 54.015c-.036-3.457.808-5.273 2.404-6.828.24-.235.363-.726.511-.94.148-1.98-2.557-5.36-.624-5.958 2.286-.711 3.012 0 4.378.946 1.365.946 5.021 3.232 3.395 6.275-1.626 3.042-2.485 3.523-3.431 6.755-1.156 3.963-6.633-.25-6.633-.25"/><path fill="#263238" d="M190.068 61.977h.025a.2.2 0 0 0 .112-.094.2.2 0 0 0 .02-.072.2.2 0 0 0-.009-.074s-.685-2.046-2.25-7.236c-1.406-4.654-.69-5.457.133-6.387a.188.188 0 0 0-.154-.301.2.2 0 0 0-.127.05c-1.049 1.176-1.58 2.22-.215 6.745 1.57 5.186 2.245 7.231 2.25 7.252a.2.2 0 0 0 .215.117"/><path fill="#F7921E" d="m202.873 96.518 14.053-18.4-13.909-29.702-13.041 17.127z"/><path fill="#fff" d="m202.873 96.518 14.053-18.4-13.909-29.702-13.041 17.127z" opacity=".15"/><path fill="#fff" d="m202.873 96.518 14.053-18.4-13.909-29.702-13.041 17.127z" opacity=".2"/><path fill="#F7921E" d="m189.976 65.54-1.754-2.255-3.513 1.473 6.617 30.397 11.548 1.36z"/><path fill="#fff" d="m189.976 65.54-1.754-2.255-3.513 1.473 6.617 30.397 11.548 1.36z" opacity=".55"/><path fill="#F7921E" d="m191.326 95.157 5.001-1.703-6.781-23.74 8.3 23.796 5.027 3.007z" opacity=".2"/><path fill="#000" d="m191.326 95.157 5.001-1.703-6.781-23.74 8.3 23.796 5.027 3.007z" opacity=".05"/><path fill="#F7921E" d="m203.017 48.414-3.585 1.028-1.166-1.632-13.557 16.948 3.513-1.473 1.754 2.255z"/><path fill="#fff" d="m203.017 48.414-3.585 1.028-1.166-1.632-13.557 16.948 3.513-1.473 1.754 2.255z" opacity=".1"/><path fill="#000" d="m203.017 48.414-3.585 1.028-1.166-1.632-13.557 16.948 3.513-1.473 1.754 2.255z" opacity=".05"/><path fill="#000" d="m199.432 49.444 1.002 2.378 2.583-3.406z" opacity=".15"/><path fill="#263238" d="M194.42 64.698a.1.1 0 0 0 .051 0 .183.183 0 0 0 .092-.25c-.025-.057-2.603-5.437-4.091-8.695-1.457-3.14-3.263-7.031-1.913-8.279a.2.2 0 0 0 .047-.127.19.19 0 0 0-.302-.149c-1.534 1.437.235 5.293 1.815 8.694 1.534 3.267 4.091 8.647 4.117 8.693a.185.185 0 0 0 .184.113"/><path fill="#263238" d="M196.169 65.015a.1.1 0 0 0 .056 0 .2.2 0 0 0 .091-.112.19.19 0 0 0-.014-.144c-.031-.05-2.849-5.18-4.889-9.205-.199-.399-.414-.808-.629-1.227-1.493-2.87-3.181-6.137-2.015-7.206a.19.19 0 0 0 0-.266.19.19 0 0 0-.266 0c-1.381 1.279.302 4.521 1.933 7.671.215.42.43.829.629 1.228 2.046 4.02 4.869 9.159 4.894 9.205a.19.19 0 0 0 .21.056"/><path fill="#37474F" d="m218.67 92.13 13.751-20.517-24.219-23.048-10.356 14.145z"/><path fill="#000" d="m192.201 64.607 12.237-15.623 1.499.532 2.265-.951-10.356 14.145-1.682.235z"/><path fill="#455A64" d="m197.846 62.709-1.682.235-3.963 1.662 14.891 32.382 11.578-4.859z"/><path fill="#37474F" d="m218.67 92.13-7.405-1.233-11.066-18.676 9.844 19.504-2.951 5.262z"/><path fill="#263238" d="M202.285 61.047a.15.15 0 0 0 .113-.062.2.2 0 0 0 .054-.133.2.2 0 0 0-.054-.133c-.092-.076-9.113-7.706-10.913-9.414-1.535-1.453-3.197-3.427-2.506-4.603a.2.2 0 0 0 .019-.144.19.19 0 0 0-.231-.14.19.19 0 0 0-.116.09c-.654 1.114.21 2.817 2.557 5.063 1.811 1.718 10.837 9.353 10.929 9.43a.2.2 0 0 0 .148.046"/><path fill="#263238" d="M202.802 59.82a.2.2 0 0 0 .118-.067.195.195 0 0 0-.036-.266c-.097-.076-9.717-7.563-11.507-9.271s-2.828-2.813-2.204-3.877a.2.2 0 0 0 .025-.07.2.2 0 0 0-.003-.074.195.195 0 0 0-.088-.117.195.195 0 0 0-.261.072c-.823 1.401.614 2.762 2.271 4.342 1.81 1.718 11.138 8.985 11.537 9.292a.17.17 0 0 0 .148.036"/><path fill="#F7921E" d="m199.646 61.113 22.277 28.91 10.023-7.4-29.656-24.578z"/><path fill="#000" d="m199.646 61.113 22.277 28.91 10.023-7.4-29.656-24.578z" opacity=".15"/><path fill="#000" d="m221.923 90.022 2.224-5.574-14.104-15.321 15.285 14.431 6.618-.935z" opacity=".15"/><path fill="#F7921E" d="m231.946 82.621 5.042-21.284L211.51 44.37l-9.22 13.675z"/><path fill="#000" d="M206.371 56.924a.434.434 0 0 0 .639-.358 1.06 1.06 0 0 0-.511-.823.44.44 0 0 0-.418.004.43.43 0 0 0-.222.354 1.09 1.09 0 0 0 .512.823M210.769 50.987a.44.44 0 0 0 .418-.004.43.43 0 0 0 .221-.354 1.017 1.017 0 0 0-.511-.823.433.433 0 0 0-.639.357 1.07 1.07 0 0 0 .511.824"/><path fill="#263238" d="M206.376 56.516a.19.19 0 0 0 .143-.112.193.193 0 0 0-.092-.251c-.107-.03-10.56-4.75-12.943-5.774-1.923-.808-4.03-2.137-4.388-3.278a.89.89 0 0 1 .092-.777.193.193 0 0 0-.203-.286.2.2 0 0 0-.119.081 1.25 1.25 0 0 0-.128 1.095c.42 1.34 2.741 2.73 4.603 3.513 2.388 1.023 12.836 5.723 12.943 5.769a.2.2 0 0 0 .092.02M206.888 54.327a.18.18 0 0 1-.128.082.23.23 0 0 1-.138 0l-10.294-6.868v-.03q.083-.155.148-.318l10.34 6.874a.18.18 0 0 1 .098.19.2.2 0 0 1-.026.07M207.358 53.346a.163.163 0 0 1-.133.087.23.23 0 0 1-.127 0l-10.597-6.25q.075-.177.123-.363l10.668 6.265a.2.2 0 0 1 .057.048q.022.03.033.068a.2.2 0 0 1-.024.145"/><path fill="#263238" d="M199.779 56.127a.196.196 0 0 1-.261-.056l-4.316-6.612.22-.363 4.413 6.77a.187.187 0 0 1-.056.261M200.536 55.292a.16.16 0 0 1-.087.03.17.17 0 0 1-.179-.071l-4.715-6.372c.072-.118.138-.235.21-.348l4.807 6.495q.023.03.033.066.01.038.004.074a.2.2 0 0 1-.024.07.2.2 0 0 1-.049.056M210.871 50.38a.194.194 0 0 1-.153.133.2.2 0 0 1-.087 0l-13.92-4.092a4 4 0 0 0 .026-.394l14.001 4.148a.19.19 0 0 1 .133.204"/><path fill="#37474F" d="M39.132 129.414a.88.88 0 0 1-.847-.651.88.88 0 0 1 .408-.987l28.136-16.275a.9.9 0 0 1 .675-.103.878.878 0 0 1 .203 1.623L39.59 129.296a.9.9 0 0 1-.458.118M40.492 154.194a.87.87 0 0 1-.756-.439.88.88 0 0 1 .317-1.199l28.117-16.27q.151-.087.323-.11a.87.87 0 0 1 .984.752.875.875 0 0 1-.43.873l-28.116 16.284a.86.86 0 0 1-.44.109M39.033 135.318a.43.43 0 0 1-.378-.217.435.435 0 0 1 .16-.599l28.32-16.388a.437.437 0 0 1 .61.154.44.44 0 0 1-.17.606l-28.32 16.388a.5.5 0 0 1-.222.056M39.83 141.595a.436.436 0 0 1-.405-.604.44.44 0 0 1 .184-.212l28.32-16.388a.437.437 0 0 1 .589.166.44.44 0 0 1-.15.594l-28.32 16.388a.43.43 0 0 1-.218.056M39.83 147.902a.44.44 0 0 1-.221-.817l28.32-16.387a.437.437 0 0 1 .634.493.44.44 0 0 1-.195.266l-28.32 16.388a.44.44 0 0 1-.218.057"/><path fill="#37474F" d="M65.545 139.491a.44.44 0 0 1-.439-.415l-1.416-24.983a.439.439 0 1 1 .878-.052l1.416 24.987a.44.44 0 0 1-.247.428.4.4 0 0 1-.168.044zM61.92 141.601a.437.437 0 0 1-.439-.411l-1.416-24.987a.44.44 0 0 1 .59-.474.44.44 0 0 1 .284.426l1.416 24.983a.44.44 0 0 1-.105.324.43.43 0 0 1-.306.148zM58.29 143.702a.433.433 0 0 1-.434-.416l-1.416-24.983a.433.433 0 0 1 .41-.472.5.5 0 0 1 .172.021.46.46 0 0 1 .256.223q.039.079.045.167l1.416 24.988a.435.435 0 0 1-.244.427.4.4 0 0 1-.167.045zM54.666 145.825a.436.436 0 0 1-.44-.41l-1.415-24.988a.437.437 0 0 1 .41-.501.45.45 0 0 1 .332.125.44.44 0 0 1 .13.329l1.417 24.983a.44.44 0 0 1-.247.429.5.5 0 0 1-.169.043zM51.04 147.948a.444.444 0 0 1-.438-.415l-1.416-24.988a.44.44 0 0 1 .249-.42.44.44 0 0 1 .336-.018.43.43 0 0 1 .25.225q.038.079.043.166l1.416 24.988a.445.445 0 0 1-.416.472zM47.416 150.05a.437.437 0 0 1-.44-.416l-1.415-24.983a.44.44 0 0 1 .878-.052l1.416 24.988a.44.44 0 0 1-.244.428.5.5 0 0 1-.167.044zM43.786 152.164a.443.443 0 0 1-.434-.415l-1.416-24.988a.435.435 0 0 1 .236-.454.5.5 0 0 1 .174-.047.45.45 0 0 1 .332.125.44.44 0 0 1 .13.329l1.417 24.988a.43.43 0 0 1-.41.472z"/><path fill="#455A64" d="M77.685 173.365c0 2.025-1.416 2.832-3.172 1.832a7.01 7.01 0 0 1-3.176-5.499c0-2.025 1.416-2.832 3.176-1.832a7.02 7.02 0 0 1 3.172 5.499"/><path fill="#263238" d="M75.59 172.157c0 .689-.473.972-1.082.627a2.4 2.4 0 0 1-1.085-1.888c0-.693.472-.972 1.085-.627a2.4 2.4 0 0 1 1.081 1.888"/><path fill="#263238" d="M79.13 172.53a7.02 7.02 0 0 0-3.177-5.503c-1.251-.722-2.327-.505-2.832.411.501.017.99.165 1.416.429a7.03 7.03 0 0 1 3.148 5.499c0 1.001-.35 1.704-.911 2.039l1.383-.793c.595-.321.972-1.043.972-2.082"/><path fill="#F7921E" d="M74.645 166.424c-2.209-1.279-3.998-.246-3.998 2.303l7.982 4.616c0-2.549-1.78-5.645-3.984-6.919"/><path fill="#F7921E" d="M76.08 165.3c-1.623-.944-3.016-.623-3.644.614a3.3 3.3 0 0 1 2.21.509c2.204 1.275 3.997 4.371 3.997 6.92l1.416-1.119c.02-2.563-1.77-5.65-3.979-6.924"/><path fill="#000" d="M76.08 165.3c-1.623-.944-3.016-.623-3.644.614a3.3 3.3 0 0 1 2.21.509c2.204 1.275 3.997 4.371 3.997 6.92l1.416-1.119c.02-2.563-1.77-5.65-3.979-6.924" opacity=".5"/><path fill="#455A64" d="M101.03 186.855c0 2.025-1.416 2.832-3.176 1.832a7.02 7.02 0 0 1-3.177-5.499c0-2.025 1.416-2.832 3.177-1.831a7.02 7.02 0 0 1 3.176 5.498"/><path fill="#263238" d="M98.925 185.647c0 .689-.472.972-1.085.628a2.4 2.4 0 0 1-1.086-1.888c0-.694.472-.973 1.085-.628a2.39 2.39 0 0 1 1.086 1.888"/><path fill="#263238" d="M102.475 186.021a7.04 7.04 0 0 0-3.172-5.504c-1.251-.722-2.332-.505-2.832.411.501.017.99.165 1.416.429a7.03 7.03 0 0 1 3.176 5.499c0 1.001-.349 1.704-.911 2.039l1.379-.793c.566-.321.944-1.043.944-2.081"/><path fill="#F7921E" d="M97.981 179.912c-2.209-1.279-3.998-.245-3.998 2.303l7.996 4.617c.01-2.54-1.779-5.646-3.998-6.92"/><path fill="#F7921E" d="M99.425 178.788c-1.619-.944-3.016-.623-3.639.614a3.27 3.27 0 0 1 2.204.51c2.209 1.274 3.998 4.37 3.998 6.919l1.416-1.118c.019-2.554-1.77-5.669-3.979-6.925"/><path fill="#000" d="M99.425 178.788c-1.619-.944-3.016-.623-3.639.614a3.27 3.27 0 0 1 2.204.51c2.209 1.274 3.998 4.37 3.998 6.919l1.416-1.118c.019-2.554-1.77-5.669-3.979-6.925" opacity=".5"/><path fill="#455A64" d="M72.993 203.107c0 2.025-1.416 2.832-3.171 1.832a7.02 7.02 0 0 1-3.177-5.499c0-2.025 1.416-2.832 3.177-1.831a7.015 7.015 0 0 1 3.172 5.498"/><path fill="#263238" d="M70.902 201.899c0 .694-.472.972-1.08.628a2.4 2.4 0 0 1-1.086-1.888c0-.694.472-.973 1.085-.628a2.42 2.42 0 0 1 1.081 1.888"/><path fill="#263238" d="M74.443 202.272a7 7 0 0 0-3.177-5.499c-1.25-.722-2.327-.51-2.832.406.502.017.99.165 1.416.429a7.02 7.02 0 0 1 3.172 5.499c0 1.001-.35 1.704-.911 2.044l1.383-.798c.571-.321.949-1.043.949-2.081"/><path fill="#F7921E" d="M69.958 196.163c-2.209-1.274-3.998-.241-3.998 2.308l7.996 4.616c0-2.553-1.789-5.65-3.998-6.924"/><path fill="#F7921E" d="M71.393 195.04c-1.623-.944-3.016-.623-3.644.618a3.25 3.25 0 0 1 2.21.505c2.208 1.275 3.997 4.371 3.997 6.925l1.416-1.124c.02-2.567-1.77-5.65-3.979-6.924"/><path fill="#000" d="M71.393 195.04c-1.623-.944-3.016-.623-3.644.618a3.25 3.25 0 0 1 2.21.505c2.208 1.275 3.997 4.371 3.997 6.925l1.416-1.124c.02-2.567-1.77-5.65-3.979-6.924" opacity=".5"/><path fill="#263238" d="M102.3 186.214a.88.88 0 0 1-.848-.656.884.884 0 0 1 .418-.987 1.32 1.32 0 0 0 .674-1.151 1.32 1.32 0 0 0-.674-1.152l-29.566-16.591a6.35 6.35 0 0 1-3.247-5.192l-3.2-57.471a4.77 4.77 0 0 0-2.36-3.842l-2.068-1.208a1.84 1.84 0 0 0-1.817 0l-1.737.968a.878.878 0 0 1-.854-1.53l1.732-.944a3.57 3.57 0 0 1 3.559.033l2.067 1.209a6.49 6.49 0 0 1 3.215 5.253l3.2 57.457a4.61 4.61 0 0 0 2.36 3.776l29.566 16.59a3.074 3.074 0 0 1 0 5.362.9.9 0 0 1-.42.076"/><path fill="#F7921E" d="M77.572 168.942a1.3 1.3 0 0 1-.642-.17l-5.32-2.983a1.314 1.314 0 1 1 1.284-2.293l5.32 2.983a1.314 1.314 0 0 1 .627 1.479 1.316 1.316 0 0 1-1.27.984"/><path fill="#253239" d="M79.885 169.803a.9.9 0 0 1-.43-.113l-1.855-1.044a.876.876 0 0 1 .212-1.571.88.88 0 0 1 .642.042l1.86 1.043a.88.88 0 0 1 .106 1.459.88.88 0 0 1-.535.184"/><path fill="#F7921E" d="M101.403 182.315a1.27 1.27 0 0 1-.642-.169l-5.32-2.983a1.32 1.32 0 0 1-.505-1.789 1.31 1.31 0 0 1 1.302-.664c.171.02.337.074.487.159l5.324 2.987a1.312 1.312 0 0 1-.646 2.459"/><path fill="#455A64" d="M102.3 186.214a.88.88 0 0 1-.848-.656.884.884 0 0 1 .418-.987 1.322 1.322 0 0 0 0-2.303.883.883 0 0 1-.301-1.176.88.88 0 0 1 1.16-.354 3.07 3.07 0 0 1 1.572 2.681 3.08 3.08 0 0 1-1.572 2.681.9.9 0 0 1-.429.114M48.714 191.67c1.24-.715 1.24-3.036 0-5.183s-3.25-3.307-4.488-2.591c-1.24.715-1.24 3.036 0 5.183s3.249 3.307 4.488 2.591"/><path fill="#263238" d="M47.557 188.409c0 .694-.472.972-1.086.627a2.4 2.4 0 0 1-1.08-1.888c0-.693.472-.972 1.08-.627a2.4 2.4 0 0 1 1.086 1.888"/><path fill="#263238" d="M51.097 188.781a7.03 7.03 0 0 0-3.176-5.498c-1.25-.723-2.332-.51-2.832.405.501.017.99.165 1.416.43a7 7 0 0 1 3.176 5.499c0 1-.349 1.704-.91 2.044l1.378-.798c.57-.321.948-1.043.948-2.082"/><path fill="#F7921E" d="M46.608 182.675c-2.204-1.275-3.993-.241-3.993 2.308l7.991 4.616c0-2.554-1.789-5.65-3.998-6.924"/><path fill="#F7921E" d="M48.043 181.55c-1.618-.944-3.01-.623-3.639.618a3.23 3.23 0 0 1 2.204.505c2.21 1.274 3.998 4.371 3.998 6.924l1.416-1.123c.02-2.549-1.77-5.65-3.979-6.924"/><path fill="#000" d="M48.043 181.55c-1.618-.944-3.01-.623-3.639.618a3.23 3.23 0 0 1 2.204.505c2.21 1.274 3.998 4.371 3.998 6.924l1.416-1.123c.02-2.549-1.77-5.65-3.979-6.924" opacity=".5"/><path fill="#455A64" d="M77.213 199.1a8.9 8.9 0 0 1-4.342-1.123L43.796 181.66a6.35 6.35 0 0 1-3.248-5.192l-3.2-57.457a4.74 4.74 0 0 0-2.36-3.837l-2.143-1.28a1.7 1.7 0 0 1-.845-1.487 1.71 1.71 0 0 1 .873-1.472L57.04 97.389a.876.876 0 0 1 1.353.648.88.88 0 0 1-.499.88l-24.072 13.51 2.082 1.217a6.51 6.51 0 0 1 3.214 5.258l3.167 57.452a4.6 4.6 0 0 0 2.36 3.776l29.08 16.317a7.16 7.16 0 0 0 6.962 0l21.183-11.875a.87.87 0 0 1 .999.049.88.88 0 0 1 .137 1.262.9.9 0 0 1-.277.218l-21.188 11.88a8.86 8.86 0 0 1-4.328 1.119"/><path fill="#F7921E" d="M49.54 185.195a1.3 1.3 0 0 1-.647-.17l-5.32-2.983a1.314 1.314 0 0 1-.451-1.763 1.32 1.32 0 0 1 1.74-.531l5.32 2.988a1.31 1.31 0 0 1 .632 1.478 1.314 1.314 0 0 1-1.274.981M73.371 198.567c-.224 0-.445-.057-.642-.166l-5.324-2.987a1.34 1.34 0 0 1-.619-.8 1.323 1.323 0 0 1 1.442-1.658c.172.022.339.078.49.164l5.295 2.973a1.32 1.32 0 0 1 .632 1.479 1.31 1.31 0 0 1-1.274.98z"/><path fill="#455A64" d="M77.213 199.109a8.9 8.9 0 0 1-3.304-.638.9.9 0 0 1-.303-.18.87.87 0 0 1-.288-.628.875.875 0 0 1 .551-.836.888.888 0 0 1 .691.016c.842.34 1.74.514 2.648.514a.9.9 0 0 1 .662.233.88.88 0 0 1 .207.994.88.88 0 0 1-.869.525z"/><path fill="#F7921E" d="M47.071 182.476a1.306 1.306 0 0 1-1.315-1.307c-.001-.23.059-.457.173-.656l.972-1.718a1.3 1.3 0 0 1 .795-.66 1.31 1.31 0 0 1 1.423.463 1.31 1.31 0 0 1 .072 1.495l-.978 1.718a1.31 1.31 0 0 1-1.142.665"/><path fill="#455A64" d="M48.365 179.756a.84.84 0 0 1-.43-.118.874.874 0 0 1-.33-1.194l4.342-7.656a3.69 3.69 0 0 1 3.205-1.864h2.157a3.25 3.25 0 0 0 3.247-3.247.88.88 0 0 1 .525-.87.88.88 0 0 1 .994.208.88.88 0 0 1 .232.662 5.004 5.004 0 0 1-4.998 4.998h-2.157a1.93 1.93 0 0 0-1.68.977l-4.343 7.656a.87.87 0 0 1-.764.448M38.547 125.699a.87.87 0 0 1-.843-.647.88.88 0 0 1 .4-.986l28.32-16.387a.87.87 0 0 1 .97.062.87.87 0 0 1 .314.92.87.87 0 0 1-.407.533l-28.32 16.387a.85.85 0 0 1-.434.118M51.852 186.053a.9.9 0 0 1-.43-.113l-1.859-1.043a.874.874 0 0 1 .535-1.631q.172.022.324.106l1.86 1.039a.879.879 0 0 1-.43 1.642"/><path fill="#263238" d="M72.02 139.453a.44.44 0 0 1-.438-.439v-23.793a.44.44 0 0 1 .437-.485.44.44 0 0 1 .436.485v23.803a.437.437 0 0 1-.434.429M75.594 141.507a.436.436 0 0 1-.439-.439V117.27a.44.44 0 0 1 .437-.485.44.44 0 0 1 .436.485v23.803a.44.44 0 0 1-.434.434M79.172 143.544a.42.42 0 0 1-.312-.127.44.44 0 0 1-.127-.312v-23.803a.438.438 0 0 1 .878 0v23.803a.44.44 0 0 1-.44.439M82.75 145.589a.44.44 0 0 1-.44-.439v-23.803a.438.438 0 0 1 .879 0v23.803a.44.44 0 0 1-.44.439M86.328 147.627a.437.437 0 0 1-.44-.439v-23.784a.44.44 0 0 1 .44-.439.44.44 0 0 1 .439.439v23.803a.44.44 0 0 1-.44.42M89.905 149.671a.44.44 0 0 1-.439-.439v-23.803a.438.438 0 0 1 .878 0v23.803a.44.44 0 0 1-.439.439M93.483 151.724a.44.44 0 0 1-.44-.439v-23.817a.438.438 0 0 1 .879 0v23.784a.44.44 0 0 1-.44.472M97.06 153.755a.44.44 0 0 1-.438-.439v-23.803a.438.438 0 1 1 .877 0v23.803a.44.44 0 0 1-.438.439M100.639 155.794a.44.44 0 0 1-.311-.128.44.44 0 0 1-.128-.311v-23.803a.439.439 0 1 1 .878 0v23.803a.44.44 0 0 1-.439.439M104.216 157.861a.45.45 0 0 1-.31-.129.44.44 0 0 1-.129-.31v-23.827a.44.44 0 0 1 .878 0v23.794a.43.43 0 0 1-.116.332.4.4 0 0 1-.147.103.4.4 0 0 1-.176.037M107.794 159.876a.44.44 0 0 1-.439-.439v-23.803a.44.44 0 0 1 .749-.31.44.44 0 0 1 .129.31v23.803a.43.43 0 0 1-.127.312.44.44 0 0 1-.312.127M111.372 161.92a.44.44 0 0 1-.435-.439v-23.803a.45.45 0 0 1 .111-.34.44.44 0 0 1 .763.34v23.803a.44.44 0 0 1-.439.439M114.973 161.92a.44.44 0 0 1-.434-.439v-21.764a.423.423 0 0 1 .111-.339.435.435 0 0 1 .652 0 .4.4 0 0 1 .091.157q.029.09.019.182v21.764a.44.44 0 0 1-.439.439M118.532 158.853a.4.4 0 0 1-.167-.032.423.423 0 0 1-.238-.235.4.4 0 0 1-.034-.167v-16.657a.5.5 0 0 1 .019-.182.45.45 0 0 1 .239-.265.44.44 0 0 1 .505.107.45.45 0 0 1 .11.34v16.657a.43.43 0 0 1-.268.401.4.4 0 0 1-.166.033M122.11 155.293a.439.439 0 0 1-.439-.438V143.8a.439.439 0 1 1 .878 0v11.055a.436.436 0 0 1-.439.438M125.688 152.069a.436.436 0 0 1-.439-.439v-5.787a.439.439 0 1 1 .877 0v5.787a.44.44 0 0 1-.438.439"/><path fill="#263238" d="M125.706 152.476a.4.4 0 0 1-.217-.061l-58.226-33.356a.44.44 0 0 1-.193-.615.435.435 0 0 1 .462-.214q.089.017.166.069l58.225 33.356a.438.438 0 0 1 .002.761.43.43 0 0 1-.219.06M121.581 156.067a.5.5 0 0 1-.217-.057l-53.426-30.609a.434.434 0 0 1-.165-.581.45.45 0 0 1 .266-.207.45.45 0 0 1 .334.042l53.42 30.609a.43.43 0 0 1 .214.495.44.44 0 0 1-.431.322zM117.758 159.838a.4.4 0 0 1-.217-.062l-49.258-28.221a.432.432 0 0 1-.22-.436.43.43 0 0 1 .322-.366.44.44 0 0 1 .332.042l49.263 28.221a.442.442 0 0 1-.222.822"/><path fill="#263238" d="M113.883 163.788a.86.86 0 0 1-.439-.118l-44.68-25.596a.88.88 0 0 1-.325-1.199.875.875 0 0 1 1.199-.326l44.122 25.28 14.576-13.409-60.634-34.739a.88.88 0 0 1 .228-1.575.88.88 0 0 1 .646.055l61.671 35.315a.884.884 0 0 1 .156 1.406l-15.93 14.68a.88.88 0 0 1-.59.226"/><path fill="#37474F" d="M43.7 155.094a.43.43 0 0 1-.377-.217.44.44 0 0 1 .03-.487.4.4 0 0 1 .13-.112l27.24-15.836a.437.437 0 0 1 .61.154.44.44 0 0 1-.171.606l-27.22 15.826a.5.5 0 0 1-.241.066M47.298 157.138a.437.437 0 0 1-.218-.817l27.24-15.835a.44.44 0 0 1 .348-.074.44.44 0 0 1 .345.382.44.44 0 0 1-.255.447L47.52 157.077a.43.43 0 0 1-.221.061M50.88 159.178a.44.44 0 0 1-.222-.817l27.24-15.835a.437.437 0 0 1 .634.493.44.44 0 0 1-.195.267l-27.24 15.835a.5.5 0 0 1-.217.057M54.458 161.222a.48.48 0 0 1-.382-.217.446.446 0 0 1 .16-.6l27.225-15.835a.44.44 0 0 1 .515 0 .44.44 0 0 1 .07.647.4.4 0 0 1-.146.108l-27.225 15.84a.4.4 0 0 1-.217.057M58.036 163.261a.436.436 0 0 1-.405-.604.44.44 0 0 1 .183-.213l27.239-15.835a.44.44 0 0 1 .602.158.44.44 0 0 1-.158.602l-27.244 15.835a.44.44 0 0 1-.217.057M61.637 165.305a.48.48 0 0 1-.382-.217.446.446 0 0 1 .16-.6l27.24-15.835a.43.43 0 0 1 .343-.066.44.44 0 0 1 .282.206.435.435 0 0 1-.042.504.44.44 0 0 1-.14.111l-27.244 15.835a.4.4 0 0 1-.217.062M65.191 167.344a.43.43 0 0 1-.378-.218.437.437 0 0 1 .156-.599l27.24-15.836a.44.44 0 0 1 .333-.045.441.441 0 0 1 .11.805l-27.24 15.85a.45.45 0 0 1-.221.043M68.769 169.388a.44.44 0 0 1-.222-.817l27.24-15.835a.436.436 0 0 1 .624.488.44.44 0 0 1-.181.267l-27.24 15.835a.4.4 0 0 1-.221.062M72.347 171.426a.43.43 0 0 1-.378-.218.437.437 0 0 1 .156-.599l27.244-15.836a.44.44 0 0 1 .333-.045.44.44 0 0 1 .266.206.443.443 0 0 1-.16.599l-27.24 15.836a.5.5 0 0 1-.221.057M75.924 173.47a.435.435 0 0 1-.405-.604.44.44 0 0 1 .183-.213l27.244-15.835a.44.44 0 0 1 .6.156.44.44 0 0 1-.161.599l-27.239 15.836a.43.43 0 0 1-.222.061M79.502 175.508a.43.43 0 0 1-.377-.217.44.44 0 0 1 .03-.487.4.4 0 0 1 .13-.112l27.239-15.836a.439.439 0 1 1 .439.76l-27.24 15.836a.5.5 0 0 1-.22.056M83.08 177.553a.44.44 0 0 1-.377-.217.433.433 0 0 1 .174-.595l27.239-15.835a.45.45 0 0 1 .349-.074.43.43 0 0 1 .288.209.44.44 0 0 1-.051.512.4.4 0 0 1-.147.108l-27.253 15.831a.4.4 0 0 1-.222.061"/><path fill="#F7921E" d="m72.489 166.451-21.779-12.57v-29.854l21.779 12.574z"/><path fill="#F7921E" d="M72.488 166.451v-29.85l21.774-12.574v29.854z"/><path fill="#000" d="m72.489 166.451-21.779-12.57v-29.854l21.779 12.574z" opacity=".5"/><path fill="#000" d="M72.488 166.451v-29.85l21.774-12.574v29.854z" opacity=".7"/><path fill="#F7921E" d="m72.488 135.385-23.467-13.547 23.467-13.551 23.463 13.551z"/><path fill="#F7921E" d="m59.225 115.942 23.468 13.551 3.054-1.765-23.463-13.546z"/><path fill="#fff" d="m59.225 115.942 23.468 13.551 3.054-1.765-23.463-13.546z" opacity=".8"/><path fill="#F7921E" d="m85.747 115.942-23.463 13.551-3.059-1.765 23.468-13.546z"/><path fill="#fff" d="m85.747 115.942-23.463 13.551-3.059-1.765 23.468-13.546z" opacity=".8"/><path fill="#F7921E" d="M72.488 140.071 49.021 126.52v-4.682l23.467 13.546zM72.488 140.071v-4.687l23.463-13.546v4.687z"/><path fill="#000" d="M72.488 140.071 49.021 126.52v-4.682l23.467 13.546z" opacity=".3"/><path fill="#000" d="M72.488 140.071v-4.687l23.463-13.546v4.687z" opacity=".5"/><path fill="#F7921E" d="m62.284 160.58-3.059-1.751v-31.1l3.059 1.765zM82.693 160.58l3.054-1.751v-31.1l-3.054 1.765z"/><path fill="#F7921E" d="M83.684 134.138a2.1 2.1 0 0 1-.944 1.648c-.523.307-.944.056-.944-.548a2.12 2.12 0 0 1 .944-1.652c.52-.302.944-.056.944.552M93.592 128.418a2.1 2.1 0 0 1-.944 1.647c-.529.302-.944.057-.944-.548a2.1 2.1 0 0 1 .944-1.652c.519-.302.944-.056.944.553"/><path fill="#F7921E" d="M82.73 134.935a.47.47 0 0 1-.471-.472v-6.57a7.94 7.94 0 0 1 3.832-6.773l2.323-1.416a3.09 3.09 0 0 1 3.108-.043 3.08 3.08 0 0 1 1.564 2.686v6.382a.47.47 0 0 1-.471.472.47.47 0 0 1-.472-.472v-6.358a2.162 2.162 0 0 0-3.276-1.855l-2.323 1.392a7.02 7.02 0 0 0-3.393 5.985v6.584a.47.47 0 0 1-.42.458"/><path fill="#000" d="M82.73 134.935a.47.47 0 0 1-.471-.472v-6.57a7.94 7.94 0 0 1 3.832-6.773l2.323-1.416a3.09 3.09 0 0 1 3.108-.043 3.08 3.08 0 0 1 1.564 2.686v6.382a.47.47 0 0 1-.471.472.47.47 0 0 1-.472-.472v-6.358a2.162 2.162 0 0 0-3.276-1.855l-2.323 1.392a7.02 7.02 0 0 0-3.393 5.985v6.584a.47.47 0 0 1-.42.458" opacity=".9"/><path fill="#F7921E" d="m97.703 122.861 11.295 7.071v32.011l-11.295-7.071zM75.335 167.786v-32.011l22.368-12.914v32.011z"/><path fill="#000" d="M75.335 167.786v-32.011l22.368-12.914v32.011z" opacity=".3"/><path fill="#F7921E" d="m76.953 158.333 3.125-18.304a11.45 11.45 0 0 1 5.555-7.977l11.72-6.759a4.67 4.67 0 0 1 4.385-.151 4.67 4.67 0 0 1 2.577 3.549l3.106 22.043a11.697 11.697 0 0 1-9.577 13.15l-13.079 2.265a6.76 6.76 0 0 1-5.926-1.889 6.78 6.78 0 0 1-1.886-5.927"/><path fill="#fff" d="m76.953 158.333 3.125-18.304a11.45 11.45 0 0 1 5.555-7.977l11.72-6.759a4.67 4.67 0 0 1 4.385-.151 4.67 4.67 0 0 1 2.577 3.549l3.106 22.043a11.697 11.697 0 0 1-9.577 13.15l-13.079 2.265a6.76 6.76 0 0 1-5.926-1.889 6.78 6.78 0 0 1-1.886-5.927" opacity=".8"/><path fill="#F7921E" d="M86.634 174.857v-32.011l22.364-12.914v32.011z"/><path fill="#000" d="M86.634 174.857v-32.011l22.364-12.914v32.011z" opacity=".5"/><path fill="#F7921E" d="m75.335 135.775 11.3 7.071v32.011l-11.3-7.071z"/><path fill="#000" d="M80.984 165.602v-26.286l5.65 3.531v32.011z" opacity=".3"/><path fill="#F7921E" d="M93.813 141.71a2.1 2.1 0 0 1-.944 1.652c-.524.302-.944.056-.944-.552a2.1 2.1 0 0 1 .944-1.648c.52-.292.944-.056.944.548M103.725 135.987a2.1 2.1 0 0 1-.944 1.648c-.528.307-.944.061-.944-.548a2.095 2.095 0 0 1 .944-1.647c.515-.307.944-.057.944.547"/><path fill="#F7921E" d="M92.86 142.507a.47.47 0 0 1-.472-.472v-6.566a7.94 7.94 0 0 1 3.837-6.778l2.322-1.392a3.08 3.08 0 0 1 4.249 1.09c.275.472.419 1.007.419 1.553v6.386a.46.46 0 0 1-.085.405.47.47 0 0 1-.372.182.476.476 0 0 1-.462-.374.5.5 0 0 1 .004-.213v-6.386a2.17 2.17 0 0 0-1.1-1.883 2.17 2.17 0 0 0-2.18.028l-2.323 1.392a7.02 7.02 0 0 0-3.389 5.99v6.58a.47.47 0 0 1-.448.458"/><path fill="#000" d="M92.86 142.507a.47.47 0 0 1-.472-.472v-6.566a7.94 7.94 0 0 1 3.837-6.778l2.322-1.392a3.08 3.08 0 0 1 4.249 1.09c.275.472.419 1.007.419 1.553v6.386a.46.46 0 0 1-.085.405.47.47 0 0 1-.372.182.476.476 0 0 1-.462-.374.5.5 0 0 1 .004-.213v-6.386a2.17 2.17 0 0 0-1.1-1.883 2.17 2.17 0 0 0-2.18.028l-2.323 1.392a7.02 7.02 0 0 0-3.389 5.99v6.58a.47.47 0 0 1-.448.458" opacity=".9"/><path fill="#37474F" d="M100.761 165.101a.878.878 0 0 1-.425-1.647l29.052-15.977a.875.875 0 0 1 1.136.374.88.88 0 0 1-.291 1.16l-29.052 15.977a.84.84 0 0 1-.42.113M84.831 179.775a.86.86 0 0 1-.764-.472.87.87 0 0 1 .082-.969.9.9 0 0 1 .262-.22l29.047-15.991a.88.88 0 0 1 1.175.356.877.877 0 0 1-.33 1.182l-29.066 16.006a.86.86 0 0 1-.406.108"/><path fill="#37474F" d="M106.354 167.649a.42.42 0 0 1-.321-.141.44.44 0 0 1 .024-.619l15.93-14.693a.44.44 0 0 1 .595.647l-15.93 14.674a.43.43 0 0 1-.298.132M92.43 175.268a.43.43 0 0 1-.32-.142.433.433 0 0 1 .023-.618l15.93-14.679a.444.444 0 0 1 .482-.075.44.44 0 0 1 .214.583.5.5 0 0 1-.102.138l-15.93 14.68a.45.45 0 0 1-.297.113M99.218 171.435a.43.43 0 0 1-.321-.142.433.433 0 0 1 .023-.618l15.93-14.679a.45.45 0 0 1 .314-.115.443.443 0 0 1 .417.454.43.43 0 0 1-.141.303l-15.925 14.679a.42.42 0 0 1-.297.118"/><path fill="#455A64" d="M84.831 179.775a.9.9 0 0 1-.434-.113l-44.68-25.578a.875.875 0 0 1 .869-1.52l44.122 25.281 14.58-13.434-60.633-34.739a.873.873 0 0 1 .204-1.604.88.88 0 0 1 .665.084l61.671 35.334a.87.87 0 0 1 .443.667.873.873 0 0 1-.282.749l-15.93 14.68a.86.86 0 0 1-.595.193"/><path fill="#455A64" d="M43.28 155.533a.429.429 0 0 1-.434-.439v-23.803a.437.437 0 0 1 .437-.484.44.44 0 0 1 .437.484v23.803a.44.44 0 0 1-.27.407.4.4 0 0 1-.17.032M46.864 157.577a.44.44 0 0 1-.44-.439v-23.822a.438.438 0 1 1 .874 0v23.803a.44.44 0 0 1-.434.458M50.441 159.616a.42.42 0 0 1-.311-.127.43.43 0 0 1-.128-.312v-23.802a.439.439 0 1 1 .878 0v23.802a.44.44 0 0 1-.439.439M54.019 161.659a.44.44 0 0 1-.439-.439v-23.803a.438.438 0 1 1 .878 0v23.803a.44.44 0 0 1-.439.439M57.597 163.699a.44.44 0 0 1-.44-.439v-23.807a.44.44 0 0 1 .44-.439.44.44 0 0 1 .439.439v23.803a.436.436 0 0 1-.44.443M61.165 165.743a.44.44 0 0 1-.439-.439v-23.803a.438.438 0 0 1 .878 0v23.803a.44.44 0 0 1-.439.439M64.752 167.773a.437.437 0 0 1-.438-.439v-23.793a.439.439 0 1 1 .877 0v23.802a.44.44 0 0 1-.439.43M68.33 169.827a.44.44 0 0 1-.439-.439v-23.799a.438.438 0 0 1 .878 0v23.803a.44.44 0 0 1-.439.435M71.908 171.864a.44.44 0 0 1-.44-.438v-23.803a.439.439 0 1 1 .879 0v23.803a.44.44 0 0 1-.44.438M75.485 173.909a.44.44 0 0 1-.439-.439v-23.803a.438.438 0 1 1 .878 0v23.803a.44.44 0 0 1-.439.439M79.064 175.947a.44.44 0 0 1-.44-.439v-23.784a.438.438 0 0 1 .878 0v23.803a.435.435 0 0 1-.438.42M82.641 177.992a.44.44 0 0 1-.434-.439V153.75a.435.435 0 0 1 .258-.446.44.44 0 0 1 .615.446v23.803a.44.44 0 0 1-.439.439M86.219 177.992a.44.44 0 0 1-.434-.439v-21.764a.437.437 0 0 1 .436-.484.44.44 0 0 1 .437.484v21.764a.44.44 0 0 1-.44.439M89.801 174.923a.429.429 0 0 1-.439-.434v-16.657a.438.438 0 1 1 .873 0v16.657a.433.433 0 0 1-.434.434M93.38 171.364a.44.44 0 0 1-.44-.439v-11.054a.437.437 0 0 1 .437-.484.44.44 0 0 1 .437.484v11.054a.44.44 0 0 1-.435.439M96.957 168.141a.44.44 0 0 1-.439-.439v-5.786a.439.439 0 1 1 .878 0v5.786a.44.44 0 0 1-.439.439"/><path fill="#455A64" d="M96.976 168.547a.4.4 0 0 1-.217-.062l-58.226-33.356a.45.45 0 0 1-.231-.265.44.44 0 0 1 .665-.495l58.226 33.356a.44.44 0 0 1 .16.6.44.44 0 0 1-.377.222M92.85 172.14a.5.5 0 0 1-.217-.057l-53.425-30.609a.44.44 0 0 1 .434-.76l53.426 30.609a.43.43 0 0 1 .214.494.435.435 0 0 1-.431.323M89.013 175.911a.43.43 0 0 1-.217-.062l-49.244-28.221a.434.434 0 0 1 .1-.8.45.45 0 0 1 .334.04l49.263 28.221a.44.44 0 0 1-.222.822z"/><path fill="#F7921E" d="M35.814 111.605a1.317 1.317 0 0 1-.642-2.464l21.646-12.135a1.317 1.317 0 0 1 1.288 2.294l-21.65 12.135c-.196.11-.417.169-.642.17"/><path fill="#455A64" d="M33.317 112.578a.88.88 0 0 1-.43-1.643l2.139-1.199a.89.89 0 0 1 .69-.117.88.88 0 0 1 .625 1.121.89.89 0 0 1-.461.526l-2.134 1.198a.9.9 0 0 1-.429.114"/><path fill="#fff" d="M64.43 23.139v11.228a6.746 6.746 0 0 0 6.746 6.746h48.403c1.376 5.801 6.943 8.655 13.895 8.421-5.09-2.236-6.082-5.324-5.923-8.42h25.367a6.74 6.74 0 0 0 6.736-6.747V23.139a6.746 6.746 0 0 0-4.156-6.232 6.7 6.7 0 0 0-2.58-.514H71.176a6.746 6.746 0 0 0-6.746 6.746"/><path fill="#455A64" d="M132.642 49.984c-7.018 0-11.968-3.107-13.39-8.421H71.177A7.186 7.186 0 0 1 64 34.395V23.167A7.177 7.177 0 0 1 71.177 16h81.741a7.177 7.177 0 0 1 7.205 7.14v11.228a7.2 7.2 0 0 1-2.106 5.096 7.17 7.17 0 0 1-5.099 2.099h-24.955c-.047 2.442.693 5.408 5.68 7.598a.43.43 0 0 1 .111.72.43.43 0 0 1-.261.103zm-61.465-33.16a6.325 6.325 0 0 0-6.326 6.315v11.229a6.325 6.325 0 0 0 6.326 6.315h48.412a.43.43 0 0 1 .412.328c1.141 4.865 5.455 7.803 11.667 8.084-4.276-2.48-4.678-5.708-4.547-8.01a.436.436 0 0 1 .43-.402h25.367a6.325 6.325 0 0 0 6.316-6.315V23.139a6.327 6.327 0 0 0-6.316-6.315z"/><path fill="#F7921E" d="m146.088 23.065-1.6 3.228-3.556.524a.69.69 0 0 0-.383 1.18l2.573 2.516-.571 3.565a.69.69 0 0 0 .276.682.7.7 0 0 0 .734.048l3.182-1.665 3.19 1.675a.695.695 0 0 0 1.002-.73l-.609-3.547 2.583-2.517a.69.69 0 0 0 .173-.708.7.7 0 0 0-.557-.47l-3.565-.524-1.59-3.229a.695.695 0 0 0-1.021-.335.7.7 0 0 0-.261.307M128.778 23.065l-1.6 3.229-3.556.523a.7.7 0 0 0-.564.468.692.692 0 0 0 .171.712l2.583 2.516-.609 3.565a.692.692 0 0 0 1.002.73l3.19-1.665 3.181 1.675a.695.695 0 0 0 .971-.35.7.7 0 0 0 .04-.38l-.599-3.575 2.573-2.517a.7.7 0 0 0 .174-.708.7.7 0 0 0-.557-.47l-3.556-.524-1.6-3.229a.684.684 0 0 0-1.244 0M111.467 23.065l-1.59 3.228-3.565.524a.69.69 0 0 0-.612.44.69.69 0 0 0 .153.739l2.583 2.517-.58 3.564a.692.692 0 0 0 1.001.73l3.191-1.665 3.181 1.675a.691.691 0 0 0 1.01-.74l-.608-3.546 2.573-2.517a.7.7 0 0 0 .174-.708.69.69 0 0 0-.557-.47l-3.546-.543-1.591-3.228a.7.7 0 0 0-.608-.362.69.69 0 0 0-.609.362M94.073 23.066l-1.59 3.229-3.565.523a.693.693 0 0 0-.384 1.18l2.582 2.517-.617 3.564a.702.702 0 0 0 1.01.73l3.191-1.665 3.181 1.675a.701.701 0 0 0 1.01-.73l-.617-3.546 2.583-2.517a.69.69 0 0 0 .173-.709.7.7 0 0 0-.557-.47l-3.565-.524-1.59-3.229a.692.692 0 0 0-1.245-.028M76.726 23.065l-1.591 3.229-3.565.523a.692.692 0 0 0-.337 1.18l2.573 2.516-.655 3.565a.693.693 0 0 0 1.01.73l3.182-1.675 3.19 1.675a.692.692 0 0 0 .993-.73l-.609-3.546 2.583-2.517a.693.693 0 0 0-.384-1.179l-3.565-.524-1.59-3.228a.692.692 0 0 0-1.236-.019"/></svg>