<svg xmlns="http://www.w3.org/2000/svg" width="256" height="256" fill="none"><path stroke="#D5D5D5" d="M241.96 172.454c0 18.257-12.641 34.878-33.277 46.961-20.624 12.077-49.149 19.563-80.683 19.563s-60.059-7.486-80.683-19.563c-20.636-12.083-33.277-28.704-33.277-46.961 0-18.258 12.641-34.878 33.277-46.962C67.941 113.415 96.466 105.93 128 105.93s60.059 7.485 80.683 19.562c20.636 12.084 33.277 28.704 33.277 46.962Z"/><path fill="#F7921E" d="M91 141.032 115.256 127l27.452 15.881-24.257 14.032z"/><path fill="#fff" d="M91 141.032 115.256 127l27.452 15.881-24.257 14.032z" opacity=".3"/><path fill="#F7921E" d="m118.451 175.134-27.45-15.885v-18.218l27.45 15.881z"/><path fill="#455A64" d="M115.408 169.109a.44.44 0 0 0 .24-.067.72.72 0 0 0 .293-.653v-2.088h-.098l-1.511-.889v2.155a1.74 1.74 0 0 0 .742 1.409.7.7 0 0 0 .334.133m.293-2.506v1.777a.5.5 0 0 1-.178.445.34.34 0 0 1-.324-.036 1.52 1.52 0 0 1-.627-1.2v-.16h.56l.111-.755zm-.778.595h-.351v-1.333l.889.529-.444.08z"/><path fill="#455A64" d="M115.136 170.629a.12.12 0 0 0 .085-.035.12.12 0 0 0 .035-.085v-1.621a.12.12 0 0 0-.035-.085.12.12 0 0 0-.085-.035.1.1 0 0 0-.046.009.12.12 0 0 0-.074.111v1.621q0 .05.036.085a.12.12 0 0 0 .084.035"/><path fill="#455A64" d="M115.843 171.032a.12.12 0 0 0 .058-.226l-1.409-.813a.12.12 0 0 0-.091-.012.1.1 0 0 0-.042.021.1.1 0 0 0-.031.035.13.13 0 0 0-.013.094.13.13 0 0 0 .057.075l1.409.813a.13.13 0 0 0 .062.013M110.817 168.245a.26.26 0 0 0 .134-.036.3.3 0 0 0 .113-.126.3.3 0 0 0 .033-.167v-.329a.1.1 0 0 0-.001-.054.13.13 0 0 0-.068-.082.13.13 0 0 0-.106 0 .14.14 0 0 0-.043.034.1.1 0 0 0-.024.048.1.1 0 0 0-.002.054v.329a.11.11 0 0 1 0 .085.12.12 0 0 1-.08-.023.7.7 0 0 1-.227-.546v-2.16a.12.12 0 0 0-.12-.12.12.12 0 0 0-.12.12v2.16a.9.9 0 0 0 .082.418.9.9 0 0 0 .261.337.36.36 0 0 0 .168.058"/><path fill="#455A64" d="M112.084 166.361v-.213a3.443 3.443 0 0 0-1.551-2.689 1.025 1.025 0 0 0-1.596.35 1.02 1.02 0 0 0-.079.615v.071zm-2.28-2.879c.215.008.423.073.605.186a3.209 3.209 0 0 1 1.421 2.262l-2.728-1.573a.89.89 0 0 1 .373-.791.63.63 0 0 1 .343-.084zM106.459 165.755a.124.124 0 0 0 .124-.12v-4.128a.13.13 0 0 0-.036-.088.13.13 0 0 0-.135-.027.13.13 0 0 0-.066.068.1.1 0 0 0-.007.047v4.128a.12.12 0 0 0 .12.12"/><path fill="#455A64" d="M106.814 162.446a.1.1 0 0 0 .049 0 .12.12 0 0 0 .073-.113.1.1 0 0 0-.011-.047l-.444-.995-.48.555a.125.125 0 0 0 0 .174.13.13 0 0 0 .173 0l.227-.267.28.644a.12.12 0 0 0 .133.049M105.339 165.111a.1.1 0 0 0 .046-.01.116.116 0 0 0 .074-.11v-4.128a.115.115 0 0 0-.034-.088.1.1 0 0 0-.039-.027.122.122 0 0 0-.135.027.13.13 0 0 0-.036.088v4.128a.13.13 0 0 0 .037.085.13.13 0 0 0 .087.035"/><path fill="#455A64" d="M105.694 161.81q.022.006.045 0a.13.13 0 0 0 .066-.067.13.13 0 0 0 .001-.093l-.445-.996-.48.556a.2.2 0 0 0-.027.038.12.12 0 0 0 0 .092.122.122 0 0 0 .196.039l.231-.267.28.644a.12.12 0 0 0 .133.054"/><path fill="#F7921E" d="m118.451 175.135 24.257-14.032v-18.222l-24.257 14.032z"/><path fill="#000" d="m118.451 175.135 24.257-14.032v-18.222l-24.257 14.032z" opacity=".1"/><path fill="#37474F" d="m131.768 151.967-1.786 1.031v-2.768l1.786-1.031z"/><path fill="#455A64" d="m129.982 150.228-27.452-15.885 1.787-1.031 27.451 15.886z"/><path fill="#F7921E" d="m202.984 154.378-32.85-18.999-34.717 20.094 32.851 18.999z"/><path fill="#fff" d="m202.984 154.378-32.85-18.999-34.717 20.094 32.851 18.999z" opacity=".7"/><path fill="#F7921E" d="m168.267 197.432 34.717-20.09v-22.965l-34.717 20.094z"/><path fill="#fff" d="m168.267 197.432 34.717-20.09v-22.965l-34.717 20.094z" opacity=".6"/><path fill="#455A64" d="M172.1 189.831a.6.6 0 0 1-.3-.08.9.9 0 0 1-.381-.825v-2.612l.126.022 1.901-1.121v2.715a2.19 2.19 0 0 1-.939 1.775.83.83 0 0 1-.407.126m-.38-3.156v2.251a.626.626 0 0 0 .216.562.43.43 0 0 0 .415-.045 1.93 1.93 0 0 0 .787-1.521v-.198h-.707l-.137-.954zm.977.76h.441v-1.68l-1.141.669.563.103z"/><path fill="#455A64" d="M172.442 191.756a.15.15 0 0 1-.107-.045.15.15 0 0 1-.045-.107v-2.046c0-.04.016-.079.045-.107a.15.15 0 0 1 .107-.045.153.153 0 0 1 .152.152v2.046a.15.15 0 0 1-.152.152"/><path fill="#455A64" d="M171.556 192.268a.14.14 0 0 1-.077-.02.156.156 0 0 1-.073-.172.15.15 0 0 1 .07-.093l1.78-1.027a.151.151 0 0 1 .17.012.2.2 0 0 1 .039.045.16.16 0 0 1 .013.116.15.15 0 0 1-.07.093l-1.776 1.027a.2.2 0 0 1-.076.019M177.887 188.751a.4.4 0 0 1-.172-.042.42.42 0 0 1-.182-.38v-.399a.16.16 0 0 1 .154-.132.155.155 0 0 1 .154.132v.418c0 .064 0 .095.03.103.031.007.046 0 .099-.027a.91.91 0 0 0 .285-.692v-2.719c0-.04.016-.079.045-.107a.151.151 0 0 1 .215 0 .15.15 0 0 1 .045.107v2.719a1.16 1.16 0 0 1-.434.954.47.47 0 0 1-.239.065"/><path fill="#455A64" d="M176.275 186.369v-.266a4.33 4.33 0 0 1 1.954-3.388 1.29 1.29 0 0 1 1.484-.136 1.29 1.29 0 0 1 .626 1.353v.087zm2.87-3.627c-.27.012-.532.094-.76.239a4.039 4.039 0 0 0-1.787 2.852l3.422-1.989a1.13 1.13 0 0 0-.108-.558 1.13 1.13 0 0 0-.364-.438.8.8 0 0 0-.403-.106M183.377 185.616a.15.15 0 0 1-.152-.152v-5.205a.153.153 0 0 1 .154-.132.155.155 0 0 1 .154.132v5.205a.15.15 0 0 1-.156.152"/><path fill="#455A64" d="M182.932 181.464a.2.2 0 0 1-.061 0 .156.156 0 0 1-.082-.084.2.2 0 0 1-.01-.059q0-.03.013-.059l.543-1.258.609.703a.15.15 0 0 1 .035.111.151.151 0 0 1-.267.087l-.289-.331-.35.81a.16.16 0 0 1-.141.08M184.795 184.807a.2.2 0 0 1-.059-.011.15.15 0 0 1-.085-.082.2.2 0 0 1-.012-.059v-5.205a.2.2 0 0 1 .004-.067.15.15 0 0 1 .032-.059.14.14 0 0 1 .053-.04.15.15 0 0 1 .065-.014q.035 0 .065.014a.15.15 0 0 1 .089.166v5.205a.15.15 0 0 1-.152.152"/><path fill="#455A64" d="M184.346 180.638a.2.2 0 0 1-.061 0 .156.156 0 0 1-.082-.084.2.2 0 0 1-.01-.059q0-.03.013-.059l.555-1.254.608.699a.152.152 0 0 1 .037.112.15.15 0 0 1-.052.105.152.152 0 0 1-.112.037.15.15 0 0 1-.105-.052l-.289-.335-.35.814a.158.158 0 0 1-.152.076"/><path fill="#F7921E" d="m168.268 197.433-32.851-18.996v-22.964l32.851 18.999z"/><path fill="#fff" d="m168.268 197.433-32.851-18.996v-22.964l32.851 18.999z" opacity=".5"/><path fill="#37474F" d="m149.208 166.924 2.251 1.296v-3.49l-2.251-1.296z"/><path fill="#455A64" d="m151.459 164.732 34.717-20.094-2.251-1.3-34.717 20.094z"/><path fill="#37474F" d="m150.227 162.84 2.247 1.3 1.254-.722-2.247-1.301z"/><path fill="#FAFAFA" d="m186.282 147.57-9.198 5.296c-.167.099-.121.277.099.407l10.384 5.996a.8.8 0 0 0 .703.057l9.197-5.3c.168-.096.122-.278-.098-.407l-10.403-5.992a.8.8 0 0 0-.684-.057"/><path fill="#E0E0E0" d="M190.909 156.584a.19.19 0 0 0 .095-.354l-8.623-4.977a.2.2 0 0 0-.137-.008.193.193 0 0 0-.128.221q.017.07.075.114l8.623 4.977a.16.16 0 0 0 .095.027M189.951 157.13a.2.2 0 0 0 .114-.04.2.2 0 0 0 .067-.101.192.192 0 0 0-.086-.213l-8.619-4.969a.196.196 0 0 0-.263.068.2.2 0 0 0 .072.263l8.62 4.973a.2.2 0 0 0 .095.019M188.992 157.68a.189.189 0 0 0 .182-.141.2.2 0 0 0-.007-.121.2.2 0 0 0-.079-.091l-8.62-4.977a.19.19 0 0 0-.26.07.2.2 0 0 0-.019.145c.013.049.045.09.089.115l8.619 4.977q.045.023.095.023M188.035 158.23a.19.19 0 0 0 .167-.095.2.2 0 0 0 .016-.145.2.2 0 0 0-.088-.117l-8.62-4.973a.2.2 0 0 0-.151-.033.2.2 0 0 0-.072.032.2.2 0 0 0-.053.059.2.2 0 0 0-.024.075.2.2 0 0 0 .008.078.2.2 0 0 0 .039.069q.026.03.063.047l8.62 4.977a.2.2 0 0 0 .095.026"/><path fill="#455A64" d="m196.582 153.786-.338-.194-3.924 2.266.334.194zM195.217 152.999l-.582-.335-3.927 2.27.581.331zM193.852 152.208l-.335-.194-3.927 2.27.334.19zM192.829 151.613l-.677-.384-3.927 2.266.676.384zM191.122 150.631l-.335-.193-3.927 2.266.334.193zM190.148 150.061l-.726-.411-3.927 2.27.726.411zM188.396 149.055l-.339-.194-3.923 2.27.334.19zM187.62 148.603l-.167-.095-3.928 2.266.168.099zM188.996 149.429l-.167-.099-3.928 2.266.168.099zM191.761 151.005l-.167-.099-3.928 2.27.167.095zM193.262 151.876l-.167-.099-3.928 2.27.168.095zM194.327 152.511l-.167-.099-3.928 2.27.167.095zM195.821 153.339l-.167-.095-3.927 2.266.167.095zM187.03 148.268l-.338-.194-3.924 2.266.335.194z"/><path fill="#FAFAFA" d="M192.32 175.056v5.76c0 .221.156.312.35.202l8.992-5.194a.76.76 0 0 0 .346-.601v-5.764c0-.22-.156-.311-.346-.201l-8.992 5.197a.77.77 0 0 0-.35.601"/><path fill="#455A64" d="m201.448 170.082-.289.167v5.236l.289-.167zM200.266 170.768l-.502.292v5.236l.502-.293zM199.083 171.449l-.289.168v5.235l.289-.167zM198.194 171.955l-.582.342v5.24l.582-.346zM196.718 172.812l-.289.168v5.235l.289-.167zM195.871 173.293l-.624.369v5.235l.624-.369zM194.357 174.176l-.289.171v5.235l.289-.167zM193.681 174.561l-.145.083v5.236l.145-.08zM194.897 173.891l-.148.087v5.236l.148-.084zM197.278 172.498l-.145.084v5.235l.145-.083zM198.582 171.75l-.149.084v5.235l.149-.084zM199.517 171.23l-.145.084v5.236l.145-.084zM200.787 170.461l-.145.084v5.235l.145-.084zM193.175 174.861l-.289.168v5.235l.289-.167z"/><path fill="#F7921E" d="M98 121.032 122.256 107l27.452 15.881-24.257 14.032z"/><path fill="#fff" d="M98 121.032 122.256 107l27.452 15.881-24.257 14.032z" opacity=".3"/><path fill="#F7921E" d="m125.451 155.134-27.45-15.885v-18.218l27.45 15.881z"/><path fill="#455A64" d="M122.408 149.109a.44.44 0 0 0 .24-.067.72.72 0 0 0 .293-.653v-2.088h-.098l-1.511-.889v2.155a1.74 1.74 0 0 0 .742 1.409.7.7 0 0 0 .334.133m.293-2.506v1.777a.5.5 0 0 1-.178.445.34.34 0 0 1-.324-.036 1.52 1.52 0 0 1-.627-1.2v-.16h.56l.111-.755zm-.778.595h-.351v-1.333l.889.529-.444.08z"/><path fill="#455A64" d="M122.136 150.629a.12.12 0 0 0 .085-.035.12.12 0 0 0 .035-.085v-1.621a.12.12 0 0 0-.035-.085.12.12 0 0 0-.085-.035.1.1 0 0 0-.046.009.12.12 0 0 0-.074.111v1.621q0 .05.036.085a.12.12 0 0 0 .084.035"/><path fill="#455A64" d="M122.843 151.032a.12.12 0 0 0 .058-.226l-1.409-.813a.12.12 0 0 0-.091-.012.1.1 0 0 0-.042.021.1.1 0 0 0-.031.035.13.13 0 0 0-.013.094.13.13 0 0 0 .057.075l1.409.813a.13.13 0 0 0 .062.013M117.817 148.245a.26.26 0 0 0 .134-.036.3.3 0 0 0 .113-.126.3.3 0 0 0 .033-.167v-.329a.1.1 0 0 0-.001-.054.13.13 0 0 0-.068-.082.13.13 0 0 0-.106 0 .14.14 0 0 0-.043.034.1.1 0 0 0-.024.048.1.1 0 0 0-.002.054v.329a.11.11 0 0 1 0 .085.12.12 0 0 1-.08-.023.7.7 0 0 1-.227-.546v-2.16a.12.12 0 0 0-.12-.12.12.12 0 0 0-.12.12v2.16a.9.9 0 0 0 .082.418.9.9 0 0 0 .261.337.36.36 0 0 0 .168.058"/><path fill="#455A64" d="M119.084 146.361v-.213a3.443 3.443 0 0 0-1.551-2.689 1.025 1.025 0 0 0-1.596.35 1.02 1.02 0 0 0-.079.615v.071zm-2.28-2.879c.215.008.423.073.605.186a3.209 3.209 0 0 1 1.421 2.262l-2.728-1.573a.89.89 0 0 1 .373-.791.63.63 0 0 1 .343-.084zM113.459 145.755a.124.124 0 0 0 .124-.12v-4.128a.13.13 0 0 0-.036-.088.13.13 0 0 0-.135-.027.13.13 0 0 0-.066.068.1.1 0 0 0-.007.047v4.128a.12.12 0 0 0 .12.12"/><path fill="#455A64" d="M113.814 142.446a.1.1 0 0 0 .049 0 .12.12 0 0 0 .073-.113.1.1 0 0 0-.011-.047l-.444-.995-.48.555a.125.125 0 0 0 0 .174.13.13 0 0 0 .173 0l.227-.267.28.644a.12.12 0 0 0 .133.049M112.339 145.111a.1.1 0 0 0 .046-.01.116.116 0 0 0 .074-.11v-4.128a.115.115 0 0 0-.034-.088.1.1 0 0 0-.039-.027.122.122 0 0 0-.135.027.13.13 0 0 0-.036.088v4.128a.13.13 0 0 0 .037.085.13.13 0 0 0 .087.035"/><path fill="#455A64" d="M112.694 141.81q.022.006.045 0a.13.13 0 0 0 .066-.067.13.13 0 0 0 .001-.093l-.445-.996-.48.556a.2.2 0 0 0-.027.038.12.12 0 0 0 0 .092.122.122 0 0 0 .196.039l.231-.267.28.644a.12.12 0 0 0 .133.054"/><path fill="#F7921E" d="m125.451 155.135 24.257-14.032v-18.222l-24.257 14.032z"/><path fill="#000" d="m125.451 155.135 24.257-14.032v-18.222l-24.257 14.032z" opacity=".1"/><path fill="#37474F" d="m138.768 131.967-1.786 1.031v-2.768l1.786-1.031z"/><path fill="#455A64" d="m136.982 130.228-27.452-15.885 1.787-1.031 27.451 15.886z"/><path fill="#F7921E" d="m142.557 136.28 26.065-15.077 27.544 15.943-26.065 15.076z"/><path fill="#fff" d="m142.557 136.28 26.065-15.077 27.544 15.943-26.065 15.076z" opacity=".7"/><path fill="#000" d="m195.371 136.679-25.287 14.619-26.75-15.476 25.288-14.619z" opacity=".1"/><path fill="#F7921E" d="m170.101 170.442-27.544-15.943v-18.218l27.544 15.943z"/><path fill="#fff" d="m170.101 170.442-27.544-15.943v-18.218l27.544 15.943z" opacity=".6"/><path fill="#455A64" d="M167.062 164.396a.44.44 0 0 0 .235-.062.72.72 0 0 0 .298-.653v-2.076h-.102l-1.511-.888v2.159a1.73 1.73 0 0 0 .747 1.409.65.65 0 0 0 .333.111m.289-2.506v1.777a.5.5 0 0 1-.173.445.35.35 0 0 1-.347-.009 1.54 1.54 0 0 1-.627-1.2v-.16h.582l.107-.755zm-.778.595h-.351v-1.333l.889.529-.444.08z"/><path fill="#455A64" d="M166.787 165.94a.13.13 0 0 0 .087-.037.13.13 0 0 0 .037-.087v-1.622a.125.125 0 0 0-.124-.12.12.12 0 0 0-.085.035.12.12 0 0 0-.035.085v1.622q0 .05.035.086a.12.12 0 0 0 .085.038"/><path fill="#455A64" d="M167.493 166.325a.1.1 0 0 0 .061-.016.1.1 0 0 0 .042-.046.1.1 0 0 0 .017-.044.1.1 0 0 0-.002-.047.1.1 0 0 0-.02-.042.1.1 0 0 0-.035-.031l-1.413-.813a.12.12 0 0 0-.092-.012.12.12 0 0 0-.073.056.12.12 0 0 0-.012.091.12.12 0 0 0 .057.073l1.408.831q.031.01.062 0M162.472 163.552q.069-.001.129-.035a.32.32 0 0 0 .147-.293v-.334a.1.1 0 0 0-.009-.046.121.121 0 0 0-.065-.064.1.1 0 0 0-.046-.01.13.13 0 0 0-.087.035.13.13 0 0 0-.038.085v.405c0 .004-.035 0-.08 0a.72.72 0 0 1-.222-.551v-2.155a.12.12 0 0 0-.038-.085.12.12 0 0 0-.086-.035.12.12 0 0 0-.085.035.12.12 0 0 0-.035.085v2.155a.931.931 0 0 0 .346.76q.08.043.169.048"/><path fill="#455A64" d="M163.747 161.663v-.226a3.42 3.42 0 0 0-1.55-2.688 1.02 1.02 0 0 0-1.178-.108 1.026 1.026 0 0 0-.498 1.072v.071zm-2.279-2.874c.216.008.425.072.609.186a3.2 3.2 0 0 1 1.417 2.262l-2.728-1.578a.9.9 0 0 1 .373-.791.7.7 0 0 1 .329-.097zM158.113 161.066a.12.12 0 0 0 .085-.035.12.12 0 0 0 .035-.085v-4.132a.12.12 0 0 0-.043-.073.125.125 0 0 0-.201.073v4.132q0 .024.009.047a.2.2 0 0 0 .027.04q.018.017.041.025a.1.1 0 0 0 .047.008"/><path fill="#455A64" d="M158.464 157.755a.1.1 0 0 0 .049 0 .1.1 0 0 0 .039-.027.1.1 0 0 0 .026-.04.1.1 0 0 0 .008-.047.1.1 0 0 0-.011-.046l-.444-.995-.48.555a.12.12 0 0 0-.023.085.12.12 0 0 0 .041.079q.036.03.084.028a.12.12 0 0 0 .08-.036l.231-.263.276.645q.018.032.053.05a.13.13 0 0 0 .071.012M156.989 160.425a.119.119 0 0 0 .12-.12v-4.132a.12.12 0 0 0-.035-.085.12.12 0 0 0-.085-.035.12.12 0 0 0-.084.035.12.12 0 0 0-.036.085v4.132a.12.12 0 0 0 .12.12"/><path fill="#455A64" d="M157.345 157.114a.1.1 0 0 0 .049 0 .1.1 0 0 0 .039-.027.1.1 0 0 0 .025-.04.1.1 0 0 0 .009-.046.2.2 0 0 0-.011-.047l-.445-.995-.484.555a.12.12 0 0 0-.027.089.12.12 0 0 0 .043.082.121.121 0 0 0 .171-.015l.226-.262.28.644q.018.035.052.052a.1.1 0 0 0 .073.01"/><path fill="#F7921E" d="m170.101 170.441 26.065-15.072v-18.223l-26.065 15.077z"/><path fill="#fff" d="m170.101 170.441 26.065-15.072v-18.223l-26.065 15.077z" opacity=".4"/><path fill="#37474F" d="m185.222 146.231-1.781 1.031v-2.768l1.781-1.031z"/><path fill="#455A64" d="m183.441 144.493-27.549-15.943 1.786-1.03 27.544 15.942z"/><path fill="#37474F" d="m184.413 142.993-1.781 1.031-.996-.573 1.786-1.031z"/><path fill="#F7921E" d="M142.637 116.032 166.893 102l27.451 15.881-24.256 14.032z"/><path fill="#fff" d="M142.637 116.032 166.893 102l27.451 15.881-24.256 14.032z" opacity=".3"/><path fill="#F7921E" d="m170.088 150.134-27.451-15.885v-18.218l27.451 15.881z"/><path fill="#455A64" d="M167.044 144.109a.44.44 0 0 0 .24-.067.72.72 0 0 0 .294-.653v-2.088h-.098l-1.511-.889v2.155a1.74 1.74 0 0 0 .742 1.409.7.7 0 0 0 .333.133m.294-2.506v1.777a.5.5 0 0 1-.178.445.34.34 0 0 1-.324-.036 1.51 1.51 0 0 1-.627-1.2v-.16h.56l.111-.755zm-.778.595h-.351v-1.333l.889.529-.445.08z"/><path fill="#455A64" d="M166.773 145.629a.12.12 0 0 0 .12-.12v-1.621a.12.12 0 0 0-.035-.085.12.12 0 0 0-.085-.035.12.12 0 0 0-.085.035.12.12 0 0 0-.035.085v1.621q.001.05.035.085a.12.12 0 0 0 .085.035"/><path fill="#455A64" d="M167.48 146.032a.12.12 0 0 0 .057-.226l-1.408-.813a.12.12 0 0 0-.092-.012.12.12 0 0 0-.072.056.124.124 0 0 0 .044.169l1.408.813q.03.014.063.013M162.454 143.245a.26.26 0 0 0 .133-.036.32.32 0 0 0 .147-.293v-.329a.1.1 0 0 0-.002-.054.1.1 0 0 0-.024-.048.14.14 0 0 0-.043-.034.136.136 0 0 0-.106 0 .13.13 0 0 0-.068.082.1.1 0 0 0-.001.054v.329q.015.042 0 .085a.12.12 0 0 1-.08-.023.706.706 0 0 1-.227-.546v-2.16a.12.12 0 0 0-.035-.085.12.12 0 0 0-.085-.035.12.12 0 0 0-.085.035.12.12 0 0 0-.035.085v2.16a.92.92 0 0 0 .342.755.4.4 0 0 0 .169.058"/><path fill="#455A64" d="M163.72 141.361v-.213a3.45 3.45 0 0 0-1.551-2.689 1.02 1.02 0 0 0-1.177-.107 1.025 1.025 0 0 0-.498 1.072v.071zm-2.279-2.879c.214.008.422.073.604.186a3.22 3.22 0 0 1 1.422 2.262l-2.728-1.573a.89.89 0 0 1 .373-.791.63.63 0 0 1 .342-.084zM158.096 140.755a.124.124 0 0 0 .124-.12v-4.128a.13.13 0 0 0-.036-.088.13.13 0 0 0-.135-.027.13.13 0 0 0-.066.068.1.1 0 0 0-.007.047v4.128a.12.12 0 0 0 .12.12"/><path fill="#455A64" d="M158.451 137.446a.1.1 0 0 0 .049 0 .1.1 0 0 0 .039-.027.1.1 0 0 0 .025-.04.128.128 0 0 0-.002-.093l-.445-.995-.479.555a.13.13 0 0 0-.036.087c0 .032.013.064.036.087a.13.13 0 0 0 .086.033.13.13 0 0 0 .087-.033l.226-.267.28.644a.13.13 0 0 0 .059.046q.037.013.075.003M156.976 140.111a.1.1 0 0 0 .046-.01.116.116 0 0 0 .074-.11v-4.128a.115.115 0 0 0-.034-.088.1.1 0 0 0-.039-.027.122.122 0 0 0-.135.027.13.13 0 0 0-.037.088v4.128a.13.13 0 0 0 .038.085.13.13 0 0 0 .087.035"/><path fill="#455A64" d="M157.331 136.81q.022.006.044 0a.12.12 0 0 0 .066-.067.12.12 0 0 0 .001-.093l-.444-.996-.48.556a.1.1 0 0 0-.027.038.1.1 0 0 0-.01.046q0 .024.01.046a.12.12 0 0 0 .111.073.12.12 0 0 0 .085-.034l.231-.267.28.644a.12.12 0 0 0 .133.054"/><path fill="#F7921E" d="m170.088 150.135 24.256-14.032v-18.222l-24.256 14.032z"/><path fill="#000" d="m170.088 150.135 24.256-14.032v-18.222l-24.256 14.032z" opacity=".1"/><path fill="#37474F" d="m183.405 126.967-1.786 1.031v-2.768l1.786-1.031z"/><path fill="#455A64" d="m181.619 125.228-27.452-15.885 1.787-1.031 27.451 15.886z"/><path fill="#F7921E" d="m161.293 178.897 24.256-14.032L213 180.746l-24.256 14.032z"/><path fill="#fff" d="m161.293 178.897 24.256-14.032L213 180.746l-24.256 14.032z" opacity=".3"/><path fill="#F7921E" d="m188.744 212.999-27.452-15.885v-18.218l27.452 15.881z"/><path fill="#455A64" d="M185.7 206.974a.45.45 0 0 0 .24-.066.72.72 0 0 0 .293-.654v-2.088h-.098l-1.51-.889v2.155a1.74 1.74 0 0 0 .742 1.409.7.7 0 0 0 .333.133m.293-2.506v1.778a.49.49 0 0 1-.178.444.34.34 0 0 1-.324-.036 1.52 1.52 0 0 1-.626-1.199v-.16h.559l.111-.756zm-.777.596h-.351v-1.333l.888.528-.444.08z"/><path fill="#455A64" d="M185.429 208.495a.12.12 0 0 0 .12-.12v-1.622a.12.12 0 0 0-.035-.085.12.12 0 0 0-.085-.035.12.12 0 0 0-.085.035.12.12 0 0 0-.035.085v1.622a.12.12 0 0 0 .12.12"/><path fill="#455A64" d="M186.136 208.898a.12.12 0 0 0 .075-.025.12.12 0 0 0 .044-.066.122.122 0 0 0-.061-.136l-1.409-.813a.12.12 0 0 0-.091-.012.1.1 0 0 0-.042.021.1.1 0 0 0-.031.035.13.13 0 0 0-.013.094.12.12 0 0 0 .057.075l1.409.813q.029.014.062.014M181.11 206.11a.3.3 0 0 0 .133-.035.32.32 0 0 0 .147-.294v-.328a.1.1 0 0 0-.002-.055.1.1 0 0 0-.025-.048.1.1 0 0 0-.043-.033.124.124 0 0 0-.175.136v.328a.11.11 0 0 1 0 .085.13.13 0 0 1-.08-.022.7.7 0 0 1-.226-.547v-2.159a.12.12 0 0 0-.24 0v2.159a.91.91 0 0 0 .342.755.36.36 0 0 0 .169.058"/><path fill="#455A64" d="M182.376 204.226v-.213a3.45 3.45 0 0 0-1.55-2.688 1.024 1.024 0 0 0-1.596.349 1.02 1.02 0 0 0-.079.615v.071zm-2.279-2.879c.214.008.423.073.604.187.386.252.712.585.957.976a3.2 3.2 0 0 1 .465 1.285l-2.728-1.573a.887.887 0 0 1 .373-.791.63.63 0 0 1 .342-.084zM176.751 203.62a.12.12 0 0 0 .087-.035.12.12 0 0 0 .038-.085v-4.128a.125.125 0 0 0-.125-.124.1.1 0 0 0-.047.01.12.12 0 0 0-.073.114v4.128q.001.05.035.085a.12.12 0 0 0 .085.035"/><path fill="#455A64" d="M177.107 200.312a.1.1 0 0 0 .049 0 .2.2 0 0 0 .039-.027.1.1 0 0 0 .025-.04.1.1 0 0 0 .008-.047.1.1 0 0 0-.01-.046l-.445-.996-.479.556a.12.12 0 0 0 0 .173.12.12 0 0 0 .086.033.13.13 0 0 0 .087-.033l.226-.267.28.645q.023.03.059.045.037.013.075.004M175.632 202.976a.1.1 0 0 0 .046-.009.12.12 0 0 0 .074-.111v-4.128a.13.13 0 0 0-.034-.088.1.1 0 0 0-.039-.027.13.13 0 0 0-.135.027.12.12 0 0 0-.037.088v4.128a.124.124 0 0 0 .125.12"/><path fill="#455A64" d="M175.987 199.675q.023.006.045 0a.125.125 0 0 0 .066-.16l-.444-.995-.48.555a.1.1 0 0 0-.027.038.1.1 0 0 0-.01.046.12.12 0 0 0 .037.085.12.12 0 0 0 .084.035.12.12 0 0 0 .085-.035l.231-.267.28.644q.02.035.058.049a.12.12 0 0 0 .075.005"/><path fill="#F7921E" d="M188.744 213.001 213 198.968v-18.222l-24.256 14.032z"/><path fill="#000" d="M188.744 213.001 213 198.968v-18.222l-24.256 14.032z" opacity=".1"/><path fill="#37474F" d="m202.061 189.833-1.787 1.031v-2.769l1.787-1.031z"/><path fill="#455A64" d="m200.274 188.094-27.451-15.885 1.786-1.031 27.451 15.885z"/><path fill="#F7921E" d="m111 180.004 26.065-15.076 27.545 15.943-26.065 15.076z"/><path fill="#fff" d="m111 180.004 26.065-15.076 27.545 15.943-26.065 15.076z" opacity=".7"/><path fill="#000" d="m163.814 180.404-25.287 14.619-26.749-15.477 25.287-14.618z" opacity=".1"/><path fill="#F7921E" d="M138.545 214.167 111 198.224v-18.218l27.545 15.943z"/><path fill="#fff" d="M138.545 214.167 111 198.224v-18.218l27.545 15.943z" opacity=".6"/><path fill="#455A64" d="M135.505 208.121a.45.45 0 0 0 .236-.063.72.72 0 0 0 .298-.653v-2.075h-.103l-1.51-.889v2.16a1.72 1.72 0 0 0 .746 1.408.65.65 0 0 0 .333.112m.289-2.507v1.778a.5.5 0 0 1-.173.444.34.34 0 0 1-.347-.009 1.53 1.53 0 0 1-.626-1.199v-.16h.582l.106-.756zm-.777.596h-.351v-1.333l.888.529-.444.08z"/><path fill="#455A64" d="M135.23 209.663a.127.127 0 0 0 .124-.124v-1.622a.123.123 0 0 0-.209-.085.12.12 0 0 0-.035.085v1.622a.125.125 0 0 0 .12.124"/><path fill="#455A64" d="M135.937 210.05a.11.11 0 0 0 .102-.062.1.1 0 0 0 .017-.044.1.1 0 0 0-.001-.047.1.1 0 0 0-.02-.043.1.1 0 0 0-.036-.031l-1.413-.813a.12.12 0 0 0-.091-.012.123.123 0 0 0-.085.148.12.12 0 0 0 .056.073l1.409.831q.031.009.062 0M130.916 207.277a.3.3 0 0 0 .128-.035.32.32 0 0 0 .147-.294v-.333a.12.12 0 0 0-.035-.085.12.12 0 0 0-.085-.035.12.12 0 0 0-.086.035.12.12 0 0 0-.038.085v.404c0 .005-.036 0-.08 0a.71.71 0 0 1-.223-.551v-2.155a.13.13 0 0 0-.037-.085.123.123 0 0 0-.172 0 .13.13 0 0 0-.035.085v2.155a.93.93 0 0 0 .347.76.4.4 0 0 0 .169.049"/><path fill="#455A64" d="M132.191 205.388v-.227a3.42 3.42 0 0 0-1.551-2.688 1.025 1.025 0 0 0-1.596.349 1.02 1.02 0 0 0-.079.615v.071zm-2.28-2.875c.216.008.426.073.609.187a3.2 3.2 0 0 1 1.417 2.261l-2.728-1.577a.89.89 0 0 1 .373-.791c.1-.06.213-.094.329-.098zM126.556 204.791a.119.119 0 0 0 .12-.12v-4.132a.12.12 0 0 0-.043-.073.125.125 0 0 0-.201.073v4.132q0 .024.009.047a.1.1 0 0 0 .028.039.12.12 0 0 0 .087.034"/><path fill="#455A64" d="M126.908 201.479a.1.1 0 0 0 .049 0 .112.112 0 0 0 .064-.066.1.1 0 0 0 .008-.047.1.1 0 0 0-.01-.046l-.445-.996-.479.556a.12.12 0 0 0 .017.163q.038.03.084.029a.12.12 0 0 0 .081-.037l.231-.262.275.644a.12.12 0 0 0 .053.05.1.1 0 0 0 .072.012M125.433 204.15a.12.12 0 0 0 .084-.036.12.12 0 0 0 .035-.084v-4.133a.12.12 0 0 0-.119-.12.119.119 0 0 0-.12.12v4.133c0 .031.012.062.035.084a.12.12 0 0 0 .085.036"/><path fill="#455A64" d="M125.788 200.839a.1.1 0 0 0 .049 0 .1.1 0 0 0 .039-.027.1.1 0 0 0 .026-.04.12.12 0 0 0-.003-.093l-.444-.995-.484.555a.12.12 0 0 0 .015.171.12.12 0 0 0 .171-.015l.227-.263.28.645q.017.034.051.052a.12.12 0 0 0 .073.01"/><path fill="#F7921E" d="m138.545 214.165 26.065-15.072v-18.222l-26.065 15.076z"/><path fill="#fff" d="m138.545 214.165 26.065-15.072v-18.222l-26.065 15.076z" opacity=".4"/><path fill="#37474F" d="m153.666 189.956-1.782 1.031v-2.769l1.782-1.03z"/><path fill="#455A64" d="m151.884 188.218-27.549-15.943 1.786-1.031 27.545 15.943z"/><path fill="#37474F" d="m152.857 186.718-1.782 1.031-.995-.574 1.786-1.03z"/><path fill="#F7921E" d="m111.08 159.755 24.256-14.032 27.451 15.88-24.256 14.032z"/><path fill="#fff" d="m111.08 159.755 24.256-14.032 27.451 15.88-24.256 14.032z" opacity=".3"/><path fill="#F7921E" d="m138.531 193.857-27.451-15.885v-18.218l27.451 15.881z"/><path fill="#455A64" d="M135.487 187.832a.44.44 0 0 0 .24-.067.72.72 0 0 0 .293-.653v-2.089h-.097l-1.511-.888v2.155a1.73 1.73 0 0 0 .742 1.408c.097.074.212.12.333.134m.293-2.506v1.777a.49.49 0 0 1-.177.444.335.335 0 0 1-.325-.035 1.52 1.52 0 0 1-.626-1.2v-.16h.56l.111-.755zm-.777.595h-.351v-1.333l.889.529-.445.08z"/><path fill="#455A64" d="M135.216 189.352a.12.12 0 0 0 .085-.035.12.12 0 0 0 .035-.085v-1.622a.12.12 0 0 0-.035-.085.122.122 0 0 0-.17 0 .122.122 0 0 0-.035.085v1.622q.001.05.035.085a.12.12 0 0 0 .085.035"/><path fill="#455A64" d="M135.923 189.755a.12.12 0 0 0 .119-.09.13.13 0 0 0-.007-.079.12.12 0 0 0-.055-.057l-1.408-.814a.12.12 0 0 0-.092-.012.2.2 0 0 0-.042.021.126.126 0 0 0 .014.205l1.408.813q.03.013.063.013M130.897 186.968a.3.3 0 0 0 .133-.036.32.32 0 0 0 .147-.293v-.329a.1.1 0 0 0-.002-.054.1.1 0 0 0-.024-.049.124.124 0 0 0-.218.103v.329q.015.042 0 .084a.11.11 0 0 1-.08-.022.7.7 0 0 1-.227-.547v-2.159a.12.12 0 0 0-.035-.085.12.12 0 0 0-.085-.035.12.12 0 0 0-.085.035.12.12 0 0 0-.035.085v2.159a.93.93 0 0 0 .342.756.4.4 0 0 0 .169.058"/><path fill="#455A64" d="M132.163 185.084v-.214a3.45 3.45 0 0 0-1.55-2.688 1.028 1.028 0 0 0-1.676.964v.071zm-2.279-2.88c.214.009.422.073.604.187a3.2 3.2 0 0 1 1.422 2.262l-2.728-1.573a.9.9 0 0 1 .082-.445.9.9 0 0 1 .291-.346.64.64 0 0 1 .342-.085zM126.538 184.478a.13.13 0 0 0 .087-.035.13.13 0 0 0 .038-.085v-4.128a.126.126 0 0 0-.125-.125.119.119 0 0 0-.112.078.1.1 0 0 0-.008.047v4.128q.001.05.035.085a.12.12 0 0 0 .085.035"/><path fill="#455A64" d="M126.894 181.169a.1.1 0 0 0 .048 0 .12.12 0 0 0 .073-.114.1.1 0 0 0-.01-.046l-.445-.995-.48.555a.125.125 0 0 0 0 .173.13.13 0 0 0 .174 0l.226-.266.28.644a.128.128 0 0 0 .134.049M125.419 183.833a.12.12 0 0 0 .084-.035.12.12 0 0 0 .035-.085v-4.128a.1.1 0 0 0-.007-.047.126.126 0 0 0-.066-.068.125.125 0 0 0-.171.115v4.128a.124.124 0 0 0 .125.12"/><path fill="#455A64" d="M125.774 180.532q.023.006.044 0a.12.12 0 0 0 .066-.066.12.12 0 0 0 .001-.094l-.444-.995-.48.555a.1.1 0 0 0-.027.039.1.1 0 0 0-.01.046q0 .024.01.046a.1.1 0 0 0 .027.038.12.12 0 0 0 .084.035.12.12 0 0 0 .085-.035l.231-.266.28.644a.12.12 0 0 0 .058.049.12.12 0 0 0 .075.004"/><path fill="#F7921E" d="m138.531 193.858 24.256-14.032v-18.222l-24.256 14.032z"/><path fill="#000" d="m138.531 193.858 24.256-14.032v-18.222l-24.256 14.032z" opacity=".1"/><path fill="#37474F" d="m151.847 170.69-1.786 1.031v-2.768l1.786-1.031z"/><path fill="#455A64" d="m150.061 168.951-27.451-15.885 1.786-1.031 27.451 15.885z"/><path fill="#FAFAFA" d="M62.72 13.603c-.061-.46-.435-.63-.879-.37L13.55 41.12a1.86 1.86 0 0 0-.629.666l-1.668-.966c.15-.27.366-.498.629-.661L60.173 12.27a1.643 1.643 0 0 1 2.548 1.332"/><path fill="#E0E0E0" d="M13.38 129.857a2.4 2.4 0 0 1-.521.127 1.76 1.76 0 0 1-1.036-.176 1.91 1.91 0 0 1-.822-1.508V41.7a1 1 0 0 1 0-.107q.013-.112.038-.222.074-.29.221-.55l1.669.965a1.8 1.8 0 0 0-.26.875v86.6c0 .411.202.637.49.637a.6.6 0 0 0 .115 0 .6.6 0 0 0 .107-.041"/><path fill="#FAFAFA" d="M12.662 42.665v86.6c0 .567.41.797.887.509l48.293-27.883a1.97 1.97 0 0 0 .887-1.541v-86.6c0-.567-.41-.797-.887-.513L13.549 41.124a1.95 1.95 0 0 0-.887 1.54"/><path fill="#E0E0E0" d="M21.894 61.147 53.51 42.903c.493-.287.891-.057.891.514v.822a1.98 1.98 0 0 1-.891 1.54L21.907 64.028c-.493.284-.892.054-.892-.513v-.822a1.97 1.97 0 0 1 .88-1.545"/><path fill="#E6E6E6" d="m26.903 67.377 21.585-12.463c.493-.283.891-.053.891.514v.822a1.96 1.96 0 0 1-.891 1.54L26.903 70.25c-.493.283-.891.053-.891-.514v-.822a1.96 1.96 0 0 1 .891-1.536M26.903 73.235l21.584-12.458c.501-.3.912-.054.912.522v.822a1.97 1.97 0 0 1-.891 1.54L26.923 76.124c-.493.283-.891.053-.891-.514v-.822a1.97 1.97 0 0 1 .87-1.553M26.903 79.1l21.584-12.46c.493-.283.892-.052.892.514v.822a1.96 1.96 0 0 1-.892 1.541L26.903 81.976c-.493.283-.891.053-.891-.514v-.822a1.96 1.96 0 0 1 .891-1.54"/><path fill="#E0E0E0" d="M21.894 91.233 53.51 72.985c.493-.284.891-.054.891.513v.822a1.98 1.98 0 0 1-.891 1.54L21.907 94.11c-.493.283-.892.053-.892-.514v-.822a1.96 1.96 0 0 1 .88-1.54"/><path fill="#E6E6E6" d="m26.903 97.486 21.585-12.462c.493-.284.891-.054.891.513v.822a1.96 1.96 0 0 1-.891 1.541l-21.585 12.475c-.493.283-.891.053-.891-.514v-.822a1.97 1.97 0 0 1 .891-1.553M26.903 103.346l21.584-12.462c.493-.284.892-.058.892.513v.822a1.96 1.96 0 0 1-.892 1.541l-21.584 12.463c-.493.283-.891.053-.891-.514v-.822a1.96 1.96 0 0 1 .891-1.541M26.903 109.209l21.585-12.463c.493-.283.891-.053.891.514v.822a1.96 1.96 0 0 1-.891 1.54l-21.585 12.459c-.493.283-.891.053-.891-.514v-.821a1.96 1.96 0 0 1 .891-1.537"/><path fill="#F7921E" d="M21.67 45.306c.32-.193.67-.33 1.035-.407.259-.046.525-.004.756.12.24.164.414.407.491.686.127.412.186.842.174 1.273a5.6 5.6 0 0 1-.28 1.839 4.7 4.7 0 0 1-.755 1.47l1.096 2.591a.4.4 0 0 1 0 .136.46.46 0 0 1-.06.24.37.37 0 0 1-.137.174l-1.194.686c-.121.068-.204.075-.257 0a.7.7 0 0 1-.114-.173l-.982-2.336-.809.467v2.938a.6.6 0 0 1-.076.294.42.42 0 0 1-.166.204l-1.156.67a.13.13 0 0 1-.166 0A.3.3 0 0 1 19 55.96v-8.74a.8.8 0 0 1 .069-.302.47.47 0 0 1 .166-.203zm-.998 4.679.998-.573c.243-.143.452-.339.612-.572.171-.276.256-.596.242-.92 0-.384-.083-.595-.242-.648a.76.76 0 0 0-.612.136l-.998.573zM29.642 48.145a.1.1 0 0 1 .076-.031.1.1 0 0 1 .075.031.34.34 0 0 1 .062.226v1.5a.8.8 0 0 1-.062.312.5.5 0 0 1-.151.21l-3.819 2.48a.1.1 0 0 1-.076.032.1.1 0 0 1-.075-.032.34.34 0 0 1-.062-.225v-9.02c0-.108.02-.215.062-.312a.5.5 0 0 1 .151-.21l3.75-2.442a.1.1 0 0 1 .076-.031.1.1 0 0 1 .075.031.3.3 0 0 1 .057.1.3.3 0 0 1 .012.118v1.485q0 .161-.069.304a.43.43 0 0 1-.151.21l-2.475 1.617v1.485l2.302-1.5a.1.1 0 0 1 .076-.032.1.1 0 0 1 .076.032q.035.046.051.105a.3.3 0 0 1 .011.12v1.478a.8.8 0 0 1-.062.303.5.5 0 0 1-.152.218L27.098 48.2v1.555zM32.016 42.957v2.258q.012.277.078.546a.8.8 0 0 0 .202.382.48.48 0 0 0 .343.157 1 1 0 0 0 .52-.165q.288-.152.507-.389.188-.202.326-.44.127-.214.195-.45.065-.203.109-.41.03-.186.1-.36a.46.46 0 0 1 .203-.202l1.19-.658a.11.11 0 0 1 .14 0 .24.24 0 0 1 .063.18 5.1 5.1 0 0 1-.226 1.413c-.148.48-.349.944-.6 1.384q-.377.646-.894 1.196a4.6 4.6 0 0 1-1.12.898 2.5 2.5 0 0 1-1.167.359 1.4 1.4 0 0 1-.879-.3 1.86 1.86 0 0 1-.552-.852 4.3 4.3 0 0 1-.226-1.286V43.83a7 7 0 0 1 .218-1.495 7 7 0 0 1 .56-1.495c.232-.459.524-.886.871-1.272a4.8 4.8 0 0 1 1.175-.942c.337-.2.718-.32 1.112-.352.314-.022.627.051.895.21.27.173.478.42.6.71.155.37.231.767.225 1.167a.5.5 0 0 1-.062.24.35.35 0 0 1-.14.164l-1.19.665c-.102.053-.172.068-.203 0a.56.56 0 0 1-.101-.246 2 2 0 0 0-.11-.292.5.5 0 0 0-.194-.232.6.6 0 0 0-.326-.082c-.181.02-.355.081-.506.18a1.9 1.9 0 0 0-.521.41 2.657 2.657 0 0 0-.544 1.144 4.4 4.4 0 0 0-.07.644M41.417 41.242a.13.13 0 0 1 .169 0 .3.3 0 0 1 .069.216v1.454a.7.7 0 0 1-.07.298.47.47 0 0 1-.168.202l-4.234 2.378a.13.13 0 0 1-.176 0 .27.27 0 0 1-.07-.209v-8.693q.003-.153.07-.291a.5.5 0 0 1 .176-.209l4.158-2.334a.14.14 0 0 1 .176 0c.051.06.076.139.069.217v1.416a.7.7 0 0 1-.07.299.47.47 0 0 1-.175.2l-2.757 1.56v1.438l2.557-1.439a.13.13 0 0 1 .169 0c.051.06.076.138.069.216v1.424q0 .153-.069.291a.47.47 0 0 1-.169.201l-2.557 1.454v1.492zM42.88 42.49a.17.17 0 0 1-.096.03.17.17 0 0 1-.096-.03.3.3 0 0 1-.069-.095.24.24 0 0 1-.018-.11v-8.513a.64.64 0 0 1 .087-.293.43.43 0 0 1 .192-.198l1.336-.644q.042-.03.096-.03c.035 0 .07.01.096.03q.043.042.064.096a.24.24 0 0 1 .015.109v8.55a.6.6 0 0 1-.079.285.46.46 0 0 1-.192.205zM47.722 30.18a2.9 2.9 0 0 1 1.013-.392c.263-.04.532.016.757.159.235.176.405.425.484.707.13.414.189.847.174 1.28a6 6 0 0 1-.174 1.506c-.105.44-.268.866-.484 1.264a4.8 4.8 0 0 1-.757 1.04c-.3.297-.641.55-1.013.752l-1.127.655v2.755a.7.7 0 0 1-.076.294.4.4 0 0 1-.166.21l-1.157.663a.13.13 0 0 1-.167 0 .28.28 0 0 1-.068-.21V32.13a.7.7 0 0 1 .068-.294.45.45 0 0 1 .166-.21zm-1.127 4.878 1.081-.625c.255-.142.467-.35.613-.602.172-.289.256-.62.242-.956 0-.376-.076-.602-.242-.678a.67.67 0 0 0-.613.106l-1.081.617zM55.581 26.03a.13.13 0 0 1 .166 0 .28.28 0 0 1 .068.204v1.38a.66.66 0 0 1-.068.284.44.44 0 0 1-.166.205l-1.551.861v6.731a.66.66 0 0 1-.068.285.38.38 0 0 1-.166.197l-1.152.65a.13.13 0 0 1-.166 0 .28.28 0 0 1-.068-.212V29.89l-1.551.862a.13.13 0 0 1-.166 0 .29.29 0 0 1-.068-.212v-1.387q0-.153.068-.292a.46.46 0 0 1 .166-.197z"/><path fill="#263238" d="M53.5 189.777a5.34 5.34 0 0 0-.46 2.776 12.8 12.8 0 0 1 .46 3.781c-.154 1.914-.565 2.498-.709 3.829a5.48 5.48 0 0 0 .814 3.828c.823 1.235 2.66 2.221 6.04 1.972 2.737-.201 3.895-1.732 3.895-3.35z"/><path fill="#FFA8A7" d="M54.859 188.159c1.722.958 4.536-.162 6.633-1.282l2.201-13.018-9.524-2.115z"/><path fill="#37474F" d="M54.15 185.847a6.3 6.3 0 0 0-.124 1.072c-.076.631-.249 1.244-.373 1.914 0 .163-.067.335-.096.498a20 20 0 0 0 .125 3.828 21 21 0 0 1-.623 4.499c-.516 2.69-.507 4.365 1.915 6.116a6.28 6.28 0 0 0 4.135 1.005c1.177 0 2.804-.315 3.398-.957a2.87 2.87 0 0 0 .957-1.627c0-2.871-1.158-6.078-1.465-8.892a14 14 0 0 1-.143-2.288c.067-.957.354-1.914.42-2.871a1.6 1.6 0 0 0-.162-1.034 1.7 1.7 0 0 0-1.282-.517 70 70 0 0 0-3.743-.239 1.1 1.1 0 0 0-.842.211c-.23.22-.22.593-.278.909-.057.316-.277.689-.593.641a.525.525 0 0 1-.392-.45c0-.21-.192-1.847-.192-2.058-.058.02-.498-.038-.641.24"/><path fill="#455A64" d="M63.684 201.707a3.43 3.43 0 0 0-.46-1.704c-1.387-2.488-8.356-2.316-10.442.297a3.83 3.83 0 0 0 1.76 3.551c1.207.9 3.112 1.024 4.672.957a6.04 6.04 0 0 0 3.407-1.053 2.34 2.34 0 0 0 1.063-2.048"/><path fill="#FFA8A7" d="M72.777 188.545c1.455 3.149 3.742 1.914 6.7-.134l1.445-18.847-9.131 2.47z"/><path fill="#263238" d="M91.518 195.734c.17.509.14 1.064-.086 1.55-.22.45-2.594 1.79-5.791 1.58a13.47 13.47 0 0 1-6.633-2.317 7.66 7.66 0 0 0-4.078-1.053c-1.589-.086-3.666-.88-4.02-1.627a3.53 3.53 0 0 1 .058-2.019z"/><path fill="#37474F" d="M80.31 185.75q.173.35.306.718a5.63 5.63 0 0 0 1.675 2.269 18 18 0 0 0 3.465 2.058c.765.382 1.588.516 2.373.823a14 14 0 0 1 2.556 1.244 2.32 2.32 0 0 1 0 3.829 11.28 11.28 0 0 1-7.897.545c-1.856-.526-3.914-2.507-6.355-2.699-1.55-.124-4.48-.555-5.475-1.732-.316-1.714.124-2.183.526-3.609.217-.807.349-1.635.393-2.469 0-.441-.22-1.714.708-1.829v.958s.163.325 1.12.536c.306.067.536.478.69.861.152.383.238.661.545.67a.581.581 0 0 0 .498-.354 5 5 0 0 0 .2-.613 2.47 2.47 0 0 1 1.513-1.378 7.5 7.5 0 0 1 1.713-.287c.45-.048.814-.22 1.197.163q.144.132.248.296"/><path fill="#455A64" d="M71.695 188.18c-.067.354-.134.698-.23 1.043-.401 1.426-.842 1.914-.526 3.608.766.9 2.67 1.369 4.212 1.589.526-2.929-1.302-5.12-3.456-6.24M55.538 113.359c-.402 12.204-.23 17.095-.182 39.54a38.8 38.8 0 0 0-1.646 10.606c-.154 5.618.44 17.229.44 17.229s4.652 2.871 8.614.593c0 0 3.159-17.085 4.375-24.886 1.062-6.882 2.153-16.951 2.153-16.951l1.522 14.309a57 57 0 0 0-.258 10.874c.258 3.675 1.263 16.635 1.263 16.635s4.212 2.938 8.615.584c0 0 2.067-25.786 2.134-29.127.067-3.828-1.417-42.507-1.417-42.507z"/><path fill="#263238" d="m69.264 139.463 2.307-13.323s5.006-.441 7.782-3.236c0 0-.498 2.747-6.796 4.384l-2.307 13.4.536 13.046z"/><path fill="#455A64" d="M90.742 192.785c-.72-.39-1.477-.71-2.258-.957a5.476 5.476 0 0 0-5.064 5.628c2.424.669 5.008.449 7.284-.622a2.51 2.51 0 0 0 .038-4.049"/><path fill="#FFA8A7" d="M73.16 82.087c2.153-.058 6.173-.105 8.968 3.513 1.972 2.546 7.36 8.681 10.395 12.71 2.154-2.134 7.36-7.302 8.232-8.834a24.6 24.6 0 0 0 2.01-4.518c.336-.915.583-1.86.737-2.823.198-1.186.256-2.39.172-3.59 0-1.072 1.589-.488 2.163 1.235.284.953.416 1.945.393 2.939l2.613-1.197c.957-.411 3.953-1.388 4.202.297a4 4 0 0 0 .076 1.139q.137.235.316.44a1.92 1.92 0 0 1 .191 1.915c-.15.267-.213.575-.181.88.061.316.061.641 0 .957q-.163.364-.393.69c-.151.3-.248.623-.287.957a3.5 3.5 0 0 1-.249.957c-.344.737-1.244.89-1.914 1.12q-1.598.495-3.14 1.148c-1.684 1.063-6.346 9.045-10.997 14.128-1.599 1.742-3.016 2.824-4.49 2.594-1.196-.048-2.641-1.168-4.03-2.431-4.43-4.001-11.59-11.486-11.59-11.486-2.987-3.628-3.6-10.28-3.197-12.74"/><path fill="#455A64" d="M73.16 82.087c2.073-.284 4.183.049 6.068.957 1.915.957 2.297 1.56 4.107 3.685 1.809 2.125 4.326 5.322 4.326 5.322s-1.426 6.049-7.313 7.552l-7.753-9.007z"/><path fill="#F28F8F" d="M107.397 82.943c-.957.297-1.177.957-1.139 2.26 0 .794-.201 2.268-1.062 2.87a2.07 2.07 0 0 0 1.12-.497c.411-.421.517-.469.746-.23.174.155.38.27.603.335a1.04 1.04 0 0 0-.086 1.235c.421.68 2.278.68 3.829-.124 0 0-2.47.794-3.054 0-.583-.795.728-1.78 1.704-2.058 0 0-2.393.593-2.766-.182s.613-1.388 2.02-1.761c0 0-1.972.373-2.317-.287a1.216 1.216 0 0 1 .402-1.56"/><path fill="#F7921E" d="M80.702 91.413c-.536-3.915-1.053-9.18-7.121-9.419l-7.887-.373c-1.915.498-10.53 2.996-10.53 2.996V97.06s.288 5.198.642 11.754c0 0-.708 7.657-.641 10.634 5.609 3.551 20.493 2.537 26.408-1.034.278-5.408-.306-23.125-.871-27.001M71.025 69.186l-12.338-.641c-2.345 1.857-6.7 5.743-6.7 6.805v.737a.15.15 0 0 0 0 .087c.45.823 2.039 1.301 4.49 1.292 2.87 0 7.417-.374 8.614-1.417 1.751-1.58 5.944-6.164 5.944-6.164h-.623z"/><path fill="#000" d="m71.025 69.186-12.338-.641c-2.345 1.857-6.7 5.743-6.7 6.805v.737a.15.15 0 0 0 0 .087c.45.823 2.039 1.301 4.49 1.292 2.87 0 7.417-.374 8.614-1.417 1.751-1.58 5.944-6.164 5.944-6.164h-.623z" opacity=".2"/><path fill="#F7921E" d="M58.688 69.232c-2.46 1.915-7.112 6.117-6.653 6.94s2.04 1.302 4.49 1.292c2.87 0 7.417-.373 8.614-1.417 1.752-1.579 5.944-6.164 5.944-6.164z"/><path fill="#000" d="M58.688 69.232c-2.46 1.915-7.112 6.117-6.653 6.94s2.04 1.302 4.49 1.292c2.87 0 7.417-.373 8.614-1.417 1.752-1.579 5.944-6.164 5.944-6.164z" opacity=".4"/><path fill="#F7921E" d="M58.687 69.232c0 .364 1.245 1.082 1.245 1.082l-.402-2.164z"/><path fill="#000" d="M58.687 69.232c0 .364 1.245 1.082 1.245 1.082l-.402-2.164z" opacity=".3"/><path fill="#263238" d="M78.166 61.134a8.1 8.1 0 0 0-2.489-2.785c-1.828-1.264-4.192-1.465-6.413-1.378a15.8 15.8 0 0 0-4.183.64 8.43 8.43 0 0 0-5.542 5.409 11.38 11.38 0 0 0 1.159 9.571c.775 1.216 1.273 2.537 1.914 3.829.545 1.062.957 1.914.957 1.914l-.182-3.36 3.197-.277c.92-.155 1.854-.207 2.785-.153a3.7 3.7 0 0 0 2.432-.766 38 38 0 0 0 4.317-3.197 12.1 12.1 0 0 0 2.325-2.47 5 5 0 0 0 .402-.679c.212-.4.354-.834.421-1.282a7.4 7.4 0 0 0 .087-1.915 9 9 0 0 0-.565-1.914 12 12 0 0 0-.622-1.187"/><path fill="#FFA8A7" d="M69.867 63.912a17 17 0 0 1-2.154-.43h-.201a4.83 4.83 0 0 1-3.551 3.216 12.3 12.3 0 0 1 .096 4.058c-.053.29-.157.569-.307.823a1.01 1.01 0 0 1-.718.45c-.392 0-.555-.21-.68-.517a8.6 8.6 0 0 0-.593-1.139 2 2 0 0 0-.344-.44 1.914 1.914 0 0 0-3.187.65 4.06 4.06 0 0 0 2.134 4.93c2.46.68 2.986-.957 2.986-.957l.479 8.758c1.33 1.388 6.384 3.302 7.839 4.949.65-1.12 2.517-3.877.058-5.437l-.096-2.67c1.089.135 2.19.154 3.283.057 1.78-.335 2.66-1.838 3.14-3.829.765-3.14.67-9.112.43-11.486a18.5 18.5 0 0 0-.373-2.517c.076.24-1.685.957-1.915.957-.793.267-1.616.44-2.45.517q-1.433.143-2.871.105a9 9 0 0 1-1.005-.048"/><path fill="#F28F8F" d="M71.628 80.08c-1.85-.293-3.67-.75-5.437-1.37a4.65 4.65 0 0 1-1.99-1.847c.239.807.636 1.559 1.167 2.211 1.063 1.273 6.289 1.848 6.289 1.848z"/><path fill="#263238" d="M69.915 69.694a.747.747 0 1 1-1.494 0 .747.747 0 0 1 1.494 0M68.91 66.027l-1.914.565a1.014 1.014 0 0 1 .67-1.244.96.96 0 0 1 1.244.68"/><path fill="#B16668" d="m70.174 74.902 2.756.957a1.436 1.436 0 0 1-1.818.958 1.513 1.513 0 0 1-.938-1.915"/><path fill="#F28F8F" d="M70.498 75.475q-.181 0-.354.057a1.49 1.49 0 0 0 .957 1.254c.197.07.406.092.613.067a.4.4 0 0 0 0-.105 1.263 1.263 0 0 0-1.216-1.273"/><path fill="#263238" d="m77.831 66.438-1.79-.68a.957.957 0 0 1 1.79.68"/><path fill="#37474F" d="m66.211 67.147-6.27 2.153a2.25 2.25 0 0 1 1.8.91l4.441-1.685z"/><path fill="#263238" d="M76.759 69.567a.746.746 0 1 1-.776-.756.766.766 0 0 1 .775.756"/><path fill="#263238" d="m80.128 66.842-.402-.048c-1.37-.162-2.76-.091-4.106.21-1.312.43-1.78.89-2.508.91-.727.019-1.254-.431-2.642-.814a13.6 13.6 0 0 0-4.374 0c-.153 0-.306 0-.44.057a.73.73 0 0 0-.508.747c.046.32.19.618.412.852q.093.162.134.344c.096.8.26 1.592.488 2.365.133.312.317.6.546.852q.134.13.287.239l.163.115q.231.14.488.23h.344q.213.044.431.057h.421a3.1 3.1 0 0 0 3.025-1.828c.469-.91.373-2.173 1.206-2.192h.153c.603.134.507 1.301.88 2.134.142.332.336.639.575.91q.06.074.134.133l.076.068a.3.3 0 0 0 .077.066l.067.048.077.058h.105q.334.186.708.277h.067q.431.093.871.077a2.64 2.64 0 0 0 2.575-1.694 15.3 15.3 0 0 0 .555-2.393.76.76 0 0 1 .163-.316c.214-.249.35-.555.392-.88.029-.22-.21-.565-.44-.585m-8.691 3.522a2.8 2.8 0 0 1-.641 1.263 2.58 2.58 0 0 1-1.972.757 2.1 2.1 0 0 1-1.914-.881l-.058-.096-.096-.172a.2.2 0 0 1 0-.067V71.1a.2.2 0 0 1 0-.048.4.4 0 0 1 0-.096c0-.086-.067-.172-.095-.258v-.153a1.6 1.6 0 0 1-.058-.259v-.095c-.134-.623-.268-1.857 0-2.144a3.6 3.6 0 0 1 2.48-.48h.143c.2 0 .402.058.603.097l.24.057q.301.072.593.182l.181.077.192.095h.077c.15.081.284.192.392.326a2.87 2.87 0 0 1-.067 1.962m7.82-.412a2.87 2.87 0 0 1-1.302 2.039c-.3.141-.625.223-.957.24a2.09 2.09 0 0 1-1.981-.958v-.124a.5.5 0 0 0-.048-.106v-.22a2.5 2.5 0 0 1-.115-.46 3.03 3.03 0 0 1 .077-1.913 3.83 3.83 0 0 1 2.201-.958l.622-.057h.708l.307.048h.277l.153.057q.184.074.326.21c.057.326-.125 1.57-.268 2.183z"/><path fill="#F28F8F" d="m72.863 69.053.143 5.217 2.872-.843-2.68-4.45a.75.75 0 0 0-.335.076"/><path fill="#F7921E" d="M58.084 66.247a10.5 10.5 0 0 0 .593 3.054c.197-.329.443-.626.728-.881a18.4 18.4 0 0 1 5.494-3.293 21.57 21.57 0 0 1 14.443-.852 10 10 0 0 0-.631-2.603c-1.675-4.097-4.93-6.193-10.041-5.561-5.992.756-10.873 4.192-10.586 10.136"/><path fill="#263238" d="M68.996 62.351c1.94-.564 3.972-.75 5.983-.545.479-.418.892-.905 1.225-1.446.469-.775.287-1.751-.182-1.914-.47-.163-.479.411-2.23 1.32.223-.57.263-1.195.115-1.79-.307-.707-.89.594-2.183 1.456-1.292.861-2.594 1.32-2.728 2.92"/><path fill="#455A64" d="M71.666 88.187c-.957-.603-3.082-1.647-4.173-.489-1.091 1.159-1.665 1.494-2.383 1.283-.718-.21-2.986-2.546-3.829-3.828-.957-1.465-.727-2.058-.727-2.058l1.79-2.355c.497-.66.66-.737 1.292-.785l.086 1.742a3.3 3.3 0 0 0 1.35 2.144c1.78 1.216 5.283 1.541 6.594 4.346M71.667 88.185c.583-.545 1.914-1.914 2.871-1.617s1.398.852 1.417.335a10.4 10.4 0 0 0-1.58-3.475 6 6 0 0 0-2.67-2.287l.057 1.608s1.149 1.455 1.015 2.326c-.134.87-.996 2.258-1.11 3.11"/><path fill="#263238" d="m96.629 103.117-20.78 3.561-8.213 24.666 19.795-3.905z"/><path fill="#000" d="M78.941 121.416a4.79 4.79 0 0 1-3.436 3.369c-1.852.35-3.763.191-5.532-.459l.689-2.058zM90.36 106.238l.24-.757c.124-.421-1.063-.545-2.662-.277l-3.063.517c-1.598.268-2.996.823-3.13 1.244l-.23.756z" opacity=".15"/><path fill="#F7921E" d="M92.025 103.437c.077-.258-.392-.373-1.062-.249l-1.216.221s.498-1.647-2.182-1.293a4.14 4.14 0 0 0-3.417 2.211l-1.302.249c-.564.05-1.09.301-1.483.709l-.192.469 10.701-1.829s.067-.22.153-.488"/><path fill="#000" d="M92.025 103.437c.077-.258-.392-.373-1.062-.249l-1.216.221s.498-1.647-2.182-1.293a4.14 4.14 0 0 0-3.417 2.211l-1.302.249c-.564.05-1.09.301-1.483.709l-.192.469 10.701-1.829s.067-.22.153-.488" opacity=".3"/><path fill="#F7921E" d="M81.87 107.043c.106-.345 1.102-.785 2.346-1.082v-.115c.105-.373 0-.603-.795-.478v-.297l7.409-1.216-.326.297c-.957.153-1.388.239-1.589.89l-.047.144c1.158-.105 1.914 0 1.837.383l-.239.756-8.806 1.484z"/><path fill="#000" d="M81.87 107.043c.106-.345 1.102-.785 2.346-1.082v-.115c.105-.373 0-.603-.795-.478v-.297l7.409-1.216-.326.297c-.957.153-1.388.239-1.589.89l-.047.144c1.158-.105 1.914 0 1.837.383l-.239.756-8.806 1.484z" opacity=".4"/><path fill="#FFA8A7" d="M72.174 117.722c2.508.909 5.331.68 7.963.766.25 0 .556 0 .66.277a.555.555 0 0 1-.229.594 2.6 2.6 0 0 0-.517.45c-.2.296-.124.689-.181 1.043a2.7 2.7 0 0 1-.824 1.321 6.2 6.2 0 0 1-1.32 1.187 9.27 9.27 0 0 1-5.925.699 20 20 0 0 1-3.609-1.159c-1.11-.44-7.84-2.603-8.614-2.871-5.935-2.23-14.109-4.987-14.53-7.83s2.039-12.203 3.283-19.392c1.187-6.824 3.723-7.657 7.571-8.356a12.84 12.84 0 0 1 .871 13.238l-2.498 11.093a129 129 0 0 0 12.07 6.901 4.8 4.8 0 0 0 2.374-.201 10.3 10.3 0 0 1 4.355-.335"/><path fill="#455A64" d="M56.046 84.367c-4.059.46-5.973 1.455-6.93 4.71s-2.518 10.988-2.518 10.988c2.642 2.44 6.232 2.871 9.237 2.929l1.35-5.427c.995-2.173 2.814-8.443-1.14-13.2"/></svg>