<svg xmlns="http://www.w3.org/2000/svg" width="256" height="256" fill="none"><path stroke="#D5D5D5" d="M198.625 213.639c-19.368 10.123-44.788 15.197-70.236 15.197-25.447 0-50.867-5.074-70.235-15.197-19.38-10.13-28.92-23.325-28.92-36.387s9.54-26.256 28.92-36.387c19.368-10.124 44.788-15.195 70.235-15.193s50.868 5.078 70.236 15.193c19.38 10.122 28.919 23.317 28.919 36.382s-9.539 26.264-28.919 36.392Z"/><path fill="#263238" d="M135.703 125.352v4.72L54.25 177.088l-2.506 1.416a4.38 4.38 0 0 1-1.916-3.464V95.862a.86.86 0 0 1 .118-.402.9.9 0 0 1 .292-.306l18.564-10.72c.227-.127 1.548.425 1.765.557l.142.08q.186.12.326.289.157.171.236.391l1.68 4.852 60.416-35.994a.94.94 0 0 1 .793 0l1.123.651c.12.075.219.179.288.302a.8.8 0 0 1 .118.406v69.384z"/><path fill="#37474F" d="m135.703 130.052-83.96 48.451v-82.01l19.291-11.135q.157.173.236.392l1.68 4.852.322.92 62.304-35.975a.83.83 0 0 1 .118.406z"/><path fill="#455A64" d="m71.034 85.359-19.29 11.134-1.799-1.033a.9.9 0 0 1 .293-.307l18.564-10.72a.88.88 0 0 1 .807 0l1.1.633q.186.121.325.293M135.581 55.548 73.277 91.524l-.321-.92 60.416-35.995a.94.94 0 0 1 .793 0l1.123.651c.12.07.22.17.293.288"/><path fill="#FAFAFA" d="M77.539 145.166a1.99 1.99 0 0 1-.874-1.572V65.592a2.04 2.04 0 0 1 .944-1.605l46.077-26.574a1.74 1.74 0 0 1 2.667 1.539v78.003a2.05 2.05 0 0 1-.944 1.604l-46.072 26.574a1.975 1.975 0 0 1-1.798.033"/><path fill="#F0F0F0" d="m79.337 145.133 46.077-26.574a2.05 2.05 0 0 0 .944-1.605V38.952c0-.59-.416-.831-.944-.538L79.332 64.992a2.05 2.05 0 0 0-.944 1.605v78.002c.02.59.434.831.949.534"/><path fill="#E0E0E0" d="M84.383 68.089 119.179 48c.448-.26.816-.052.816.472v.326a1.81 1.81 0 0 1-.816 1.416L84.383 70.302c-.472.26-.817.047-.817-.472v-.325a1.8 1.8 0 0 1 .817-1.416M84.383 73.615l34.796-20.088c.448-.26.816-.047.816.472v.325a1.8 1.8 0 0 1-.816 1.416L84.383 75.83c-.472.26-.817.047-.817-.472v-.326a1.82 1.82 0 0 1 .817-1.416M84.383 79.143l34.796-20.089c.448-.26.816-.047.816.472v.326a1.8 1.8 0 0 1-.816 1.416L84.383 81.356c-.472.265-.817.052-.817-.472v-.326a1.82 1.82 0 0 1 .817-1.416M84.383 84.67l34.796-20.084c.448-.264.816-.052.816.472v.326a1.81 1.81 0 0 1-.816 1.416L84.383 86.888c-.472.26-.817.048-.817-.472v-.33a1.82 1.82 0 0 1 .817-1.416M84.383 90.202l34.796-20.088c.448-.26.816-.052.816.472v.325a1.81 1.81 0 0 1-.816 1.416L84.383 92.416c-.472.26-.817.047-.817-.472v-.326a1.8 1.8 0 0 1 .817-1.416M84.383 95.77l34.796-20.088c.448-.264.816-.052.816.472v.326a1.81 1.81 0 0 1-.816 1.416L84.383 97.984c-.472.26-.817.047-.817-.472v-.326a1.8 1.8 0 0 1 .817-1.416M84.383 101.298l34.796-20.089c.448-.26.816-.052.816.472v.326a1.81 1.81 0 0 1-.816 1.416l-34.796 20.088c-.472.26-.817.048-.817-.472v-.325a1.8 1.8 0 0 1 .817-1.416M84.383 106.826l34.796-20.088c.448-.26.816-.047.816.472v.325a1.8 1.8 0 0 1-.816 1.416L84.383 109.04c-.472.259-.817.052-.817-.472v-.326a1.82 1.82 0 0 1 .817-1.416M84.383 112.353l34.796-20.088c.448-.26.816-.047.816.472v.335a1.8 1.8 0 0 1-.816 1.416l-34.796 20.089c-.472.264-.817.051-.817-.472v-.326a1.82 1.82 0 0 1 .817-1.426M84.383 117.884l34.796-20.092c.448-.265.816-.052.816.471v.326a1.81 1.81 0 0 1-.816 1.416l-34.796 20.088c-.472.26-.817.048-.817-.472v-.325a1.8 1.8 0 0 1 .817-1.412M84.383 123.435l34.796-20.088c.448-.259.816-.047.816.472v.326a1.82 1.82 0 0 1-.816 1.416L84.383 125.64c-.472.259-.817.047-.817-.472v-.326a1.8 1.8 0 0 1 .817-1.407M84.383 128.943l34.796-20.088c.448-.26.816-.047.816.472v.326a1.8 1.8 0 0 1-.816 1.416l-34.796 20.088c-.472.26-.817.052-.817-.472v-.326a1.82 1.82 0 0 1 .817-1.416M84.383 134.49l34.796-20.088c.448-.26.816-.047.816.472v.33a1.81 1.81 0 0 1-.816 1.416l-34.796 20.084c-.472.264-.817.052-.817-.472v-.326a1.82 1.82 0 0 1 .817-1.416M79.215 145.195a1.73 1.73 0 0 1-1.736-.063 1.73 1.73 0 0 1-.809-1.537V65.597c.012-.323.104-.637.27-.915l1.741 1.005a1.9 1.9 0 0 0-.274.911v78.003c0 .542.354.788.808.594"/><path fill="#FAFAFA" d="M84.062 148.867a1.98 1.98 0 0 1-.873-1.571V69.293a2.04 2.04 0 0 1 .944-1.605l46.076-26.574a1.74 1.74 0 0 1 2.667 1.54v78.002a2.05 2.05 0 0 1-.944 1.605l-46.077 26.573a1.97 1.97 0 0 1-1.793.033"/><path fill="#F0F0F0" d="m85.86 148.834 46.076-26.574a2.05 2.05 0 0 0 .944-1.604V42.653c0-.59-.415-.83-.944-.538l-46.08 26.578a2.05 2.05 0 0 0-.945 1.605v77.998c.019.595.434.835.949.538"/><path fill="#E0E0E0" d="M90.906 71.79 125.702 51.7c.472-.26.816-.051.816.472v.307a1.81 1.81 0 0 1-.816 1.416L90.906 74.004c-.472.26-.817.047-.817-.473v-.325a1.8 1.8 0 0 1 .817-1.416M90.906 77.316l34.796-20.088c.472-.26.816-.047.816.472v.326a1.8 1.8 0 0 1-.816 1.416L90.906 79.53c-.472.26-.817.052-.817-.472v-.326a1.82 1.82 0 0 1 .817-1.416M90.906 82.844l34.796-20.089c.472-.26.816-.047.816.472v.326a1.8 1.8 0 0 1-.816 1.416L90.906 85.048c-.472.264-.817.052-.817-.472v-.326a1.82 1.82 0 0 1 .817-1.406M90.906 88.376l34.796-20.089c.472-.264.816-.051.816.472v.326a1.81 1.81 0 0 1-.816 1.416L90.906 90.59c-.472.26-.817.048-.817-.471v-.326a1.8 1.8 0 0 1 .817-1.416M90.906 93.903l34.796-20.088c.472-.26.816-.052.816.472v.325a1.81 1.81 0 0 1-.816 1.416L90.906 96.117c-.472.26-.817.047-.817-.472v-.326a1.8 1.8 0 0 1 .817-1.416M90.906 99.472l34.796-20.089c.472-.264.816-.052.816.472v.326a1.81 1.81 0 0 1-.816 1.416l-34.796 20.088c-.472.26-.817.047-.817-.472v-.325a1.8 1.8 0 0 1 .817-1.416M90.906 104.999l34.796-20.088c.472-.26.816-.052.816.471v.326a1.81 1.81 0 0 1-.816 1.416l-34.796 20.107c-.472.26-.817.048-.817-.472v-.325a1.8 1.8 0 0 1 .817-1.435M90.906 110.537l34.796-20.088c.472-.26.816-.047.816.472v.325a1.8 1.8 0 0 1-.816 1.416l-34.796 20.089c-.472.259-.817.052-.817-.472v-.326a1.82 1.82 0 0 1 .817-1.416M90.906 116.055l34.796-20.089c.472-.26.816-.047.816.472v.326a1.8 1.8 0 0 1-.816 1.416l-34.796 20.088c-.472.265-.817.052-.817-.472v-.325a1.82 1.82 0 0 1 .817-1.416M90.906 121.585l34.796-20.088c.472-.265.816-.052.816.472v.325a1.81 1.81 0 0 1-.816 1.416l-34.796 20.089c-.472.259-.817.047-.817-.472v-.326a1.8 1.8 0 0 1 .817-1.416M90.906 127.137l34.796-20.089c.472-.259.816-.047.816.472v.326a1.8 1.8 0 0 1-.816 1.416L90.906 129.35c-.472.26-.817.047-.817-.472v-.325a1.8 1.8 0 0 1 .817-1.416M90.906 132.664l34.796-20.088c.472-.26.816-.048.816.472v.321a1.8 1.8 0 0 1-.816 1.416l-34.796 20.088c-.472.26-.817.052-.817-.472v-.326a1.82 1.82 0 0 1 .817-1.411M90.906 138.19l34.796-20.103c.472-.259.816-.047.816.472v.331a1.824 1.824 0 0 1-.816 1.416l-34.796 20.083c-.472.265-.817.052-.817-.472v-.325a1.82 1.82 0 0 1 .817-1.402M85.737 148.897a1.734 1.734 0 0 1-2.544-1.601V69.299c.012-.324.104-.638.27-.916l1.741 1.005a1.9 1.9 0 0 0-.274.911v77.998c0 .548.354.793.807.6"/><path fill="#37474F" d="m152.851 65.224-13.462 58.292-1.241 5.362a6.2 6.2 0 0 1-2.572 3.479l-79.872 46.095a4.2 4.2 0 0 1-1.888.505 3.87 3.87 0 0 1-2.072-.434l.41-1.779.043-.175.448-1.949 1.954-8.459 12.376-53.59a1 1 0 0 1 .076-.199 2 2 0 0 1 .108-.179v-.028q.13-.175.312-.293l68.227-39.379 14.93-8.619a.9.9 0 0 1 .821 0l1.1.633a.7.7 0 0 1 .302.717"/><path fill="#455A64" d="M152.865 65.087c0-.165-.132-.217-.316-.108L69.406 112.98a1.1 1.1 0 0 0-.312.293l-1.916-1.109a1.2 1.2 0 0 1 .312-.293l83.138-47.998a.9.9 0 0 1 .821 0l1.1.633a.7.7 0 0 1 .316.58"/><path fill="#263238" d="M69.094 113.274q-.081.11-.141.231a1 1 0 0 0-.062.17l-11.833 51.25-2.492 10.799-.316 1.364-.434 1.888a3.9 3.9 0 0 1-2.072-.434l.41-1.779.043-.175.448-1.949 1.954-8.459 12.376-53.59a1 1 0 0 1 .076-.199 2 2 0 0 1 .108-.179v-.028z"/><path fill="#263238" d="M54.67 173.577a.53.53 0 0 1 .255.58l-.675 2.931-.354 1.459a.531.531 0 0 1-.548.41 3.5 3.5 0 0 1-1.618-.434 4.37 4.37 0 0 1-1.917-3.464v-3.361a.53.53 0 0 1 .26-.472.53.53 0 0 1 .538 0l.854.472a.55.55 0 0 1 .265.472v1.671a.529.529 0 0 0 1.047.118l.142-.618a.54.54 0 0 1 .307-.366.54.54 0 0 1 .241-.044.54.54 0 0 1 .236.07z"/><path fill="#F7921E" d="m72.304 161.12-4.545-2.625-.047-.028c-2.261-1.279-5.362-1.09-8.794.892-3.214 1.85-6.136 4.942-8.35 8.496-2.553 4.116-4.158 8.883-4.158 13.155 0 3.983 1.416 6.782 3.649 8.09l4.616 2.634c2.28 1.453 5.499 1.326 9.067-.737 6.91-3.988 12.513-13.688 12.513-21.669 0-4.116-1.52-6.976-3.95-8.208"/><path fill="#000" d="m54.585 191.719-4.526-2.586c-2.256-1.308-3.649-4.107-3.649-8.09 0-4.272 1.605-9.035 4.159-13.15l4.828 2.784c-2.553 4.116-4.154 8.874-4.154 13.141-.014 3.804 1.26 6.528 3.342 7.901" opacity=".1"/><path fill="#fff" d="M72.21 161.067c-2.228-1.081-5.192-.807-8.468 1.076s-6.136 4.951-8.36 8.529l-4.828-2.785c2.21-3.577 5.14-6.664 8.35-8.496 3.431-1.982 6.532-2.171 8.793-.896l.047.028z" opacity=".4"/><path fill="#fff" d="M65.47 177.875v4.404c0 .224-.052.445-.151.646a.97.97 0 0 1-.364.472l-2.412 1.393a.27.27 0 0 1-.187.053.28.28 0 0 1-.176-.082.63.63 0 0 1-.151-.472v-4.384l-2.97 1.708a.273.273 0 0 1-.363-.023.65.65 0 0 1-.15-.472v-2.974a1.6 1.6 0 0 1 .15-.651c.076-.18.203-.334.364-.444l2.969-1.713v-4.385c.002-.226.054-.448.15-.652.075-.18.202-.335.364-.443l2.412-1.416a.28.28 0 0 1 .364.023.64.64 0 0 1 .15.472v4.376l2.95-1.699a.273.273 0 0 1 .364.023.65.65 0 0 1 .151.472v2.974a1.6 1.6 0 0 1-.15.651c-.077.18-.203.334-.364.444z"/><path fill="#B16668" d="m186.792 109.681-5.517-.156c-.369-.316-6.16-6.853-6.16-6.853s-2.086 3.304-2.119 3.497 5.664 6.32 6.244 6.939a1.72 1.72 0 0 0 1.346.661c1.496.089 7.08.472 7.08.472z"/><path fill="#F7921E" d="M127.901 192.527a2 2 0 0 1-.869-1.572v-73.34a2.05 2.05 0 0 1 .944-1.604l46.077-26.579a2 2 0 0 1 1.798-.033 1.99 1.99 0 0 1 .869 1.577v73.334a2.06 2.06 0 0 1-.944 1.61l-46.077 26.573a2 2 0 0 1-1.798.034"/><path fill="#000" d="m129.439 192.599.095-.028a.2.2 0 0 1-.066.028 1 1 0 0 1-.17.057h-.095a1.5 1.5 0 0 1-.457.033 1.74 1.74 0 0 1-.845-.198 1.6 1.6 0 0 1-.472-.472 2 2 0 0 1-.383-1.105v-73.297q0-.241.071-.472a2 2 0 0 1 .198-.457l1.737 1.005-.042.071a1.9 1.9 0 0 0-.231.84v73.358q-.001.142.037.279a.6.6 0 0 0 .18.283q.085.063.189.089h.108a.4.4 0 0 0 .128 0 .03.03 0 0 0 .018-.014" opacity=".15"/><path fill="#fff" d="M176.687 90.778c-.076-.472-.472-.627-.911-.363l-46.082 26.574a2 2 0 0 0-.656.693l-1.737-1.01c.155-.283.381-.52.656-.689l46.077-26.578a2.01 2.01 0 0 1 1.798-.033 1.99 1.99 0 0 1 .855 1.406" opacity=".3"/><path fill="#FAFAFA" d="M134.749 120.089 169.536 100c.472-.264.816-.052.816.472v.326a1.814 1.814 0 0 1-.816 1.416l-34.796 20.088c-.472.26-.817.048-.817-.472v-.325c.016-.285.1-.561.243-.808.144-.246.344-.454.583-.608M134.749 126.853l34.787-20.093c.472-.264.816-.052.816.472v.326a1.8 1.8 0 0 1-.816 1.416l-34.796 20.088c-.472.26-.817.047-.817-.472v-.325a1.81 1.81 0 0 1 .826-1.412M134.749 133.618l34.787-20.088c.472-.26.816-.052.816.472v.311a1.8 1.8 0 0 1-.816 1.416l-34.796 20.088c-.472.26-.817.048-.817-.472v-.325c.019-.282.103-.556.246-.8.144-.243.342-.449.58-.602M134.749 140.382l34.787-20.089c.472-.259.816-.052.816.472v.326a1.8 1.8 0 0 1-.816 1.416l-34.796 20.088c-.472.26-.817.047-.817-.472v-.325a1.81 1.81 0 0 1 .826-1.416M134.749 147.145l34.787-20.088c.472-.26.816-.052.816.472v.326a1.8 1.8 0 0 1-.816 1.416l-34.796 20.088c-.472.26-.817.047-.817-.472v-.326a1.81 1.81 0 0 1 .826-1.416M134.749 153.909l34.787-20.088c.472-.26.816-.052.816.472v.316a1.8 1.8 0 0 1-.816 1.416l-34.796 20.088c-.472.26-.817.047-.817-.472v-.325c.018-.283.102-.558.245-.803.144-.244.343-.451.581-.604M134.749 160.673l34.787-20.089c.472-.259.816-.052.816.472v.326a1.8 1.8 0 0 1-.816 1.416l-34.796 20.088c-.472.26-.817.048-.817-.472v-.325a1.81 1.81 0 0 1 .826-1.416M134.749 167.437l34.787-20.084c.472-.26.816-.047.816.472v.326a1.8 1.8 0 0 1-.816 1.416l-34.796 20.088c-.472.26-.817.047-.817-.472v-.326a1.81 1.81 0 0 1 .826-1.42M134.749 174.199l34.787-20.088c.472-.26.816-.047.816.472v.321a1.79 1.79 0 0 1-.816 1.416l-34.796 20.088c-.472.26-.817.047-.817-.472v-.326a1.81 1.81 0 0 1 .826-1.411M134.749 180.963l34.787-20.089c.472-.259.816-.047.816.472v.326a1.79 1.79 0 0 1-.816 1.416l-34.791 20.088c-.472.26-.817.048-.817-.472v-.325a1.82 1.82 0 0 1 .821-1.416"/><path fill="#263238" d="M187.816 108.723h6.552a8.466 8.466 0 0 0 8.467-8.467 7.51 7.51 0 1 0-15.019 0z"/><path fill="#263238" d="m201.16 95.705 1.817-.977a1.007 1.007 0 0 0-.986-.583c-.135.01-.267.048-.388.111a1.08 1.08 0 0 0-.443 1.45"/><path fill="#263238" d="m201.032 95.904 1.935.722a1 1 0 0 0 .002-.789 1.02 1.02 0 0 0-.568-.547 1.09 1.09 0 0 0-1.369.613"/><path fill="#F7921E" d="m194.552 114.968-9.124-.392c-.788-1.109-.788-4.04.043-4.984l10.096.274z"/><path fill="#B16668" d="M189.006 171.57q.084.916.075 1.836v3.592h3.111v-2.105c.001-.949.08-1.896.236-2.832z"/><path fill="#263238" d="M189.077 175.459v-.448c-.085.68-2.03 3.238-3.267 4.366-.986.901-2.331 1.94-2.676 2.945-.344 1.006 1.591 1.454 2.865 1.327a5.16 5.16 0 0 0 3.21-1.681q.774-.973 1.383-2.058c.377-.509 2.077-1.557 2.284-2.152a3.86 3.86 0 0 0-.179-1.638c-.146-.552-.302-1.161-.472-1.109v.34a2.48 2.48 0 0 1-1.562.528c-.477.019-1.586-.07-1.586-.42"/><path fill="#B16668" d="M192.192 175.352a2.5 2.5 0 0 1-1.563.528c-.472 0-1.567-.071-1.567-.42v-.448c-.085.679-2.029 3.238-3.266 4.366-.236.217-.495.439-.755.67-.524.585-.373 1.095.859 1.199s2.318-.637 3.252-1.784c.935-1.147 3.04-4.111 3.04-4.111M198.554 176.867c.062.755.062 1.544.076 1.888v3.592h3.124v-2.105c0-.949.077-1.896.232-2.832z"/><path fill="#263238" d="M198.625 180.803v-.448c-.09.679-2.029 3.238-3.271 4.366-.986.901-2.332 1.94-2.671 2.94-.34 1.001 1.586 1.459 2.865 1.331a5.14 5.14 0 0 0 3.205-1.68q.775-.974 1.387-2.058c.378-.51 2.077-1.558 2.28-2.152a3.7 3.7 0 0 0-.179-1.638c-.142-.552-.302-1.161-.472-1.109v.34a2.5 2.5 0 0 1-1.563.528c-.462.019-1.586-.071-1.581-.42"/><path fill="#B16668" d="M201.75 180.695a2.5 2.5 0 0 1-1.563.529c-.472 0-1.567-.071-1.562-.42v-.449c-.09.68-2.03 3.238-3.271 4.366-.236.218-.472.439-.75.671-.524.585-.373 1.095.859 1.199 1.231.103 2.312-.638 3.247-1.785.934-1.147 3.04-4.111 3.04-4.111"/><path fill="#455A64" d="M189.006 173.053c-.67-5.508-1.765-15.033-2.086-17.115-.298-1.926.448-18.408.906-23.657l16.284-.873c1.237 5.305.028 12.461-.392 16.931-.415 4.347-.944 9.44-.944 9.44s1.27 4.432.944 7.958c-.217 2.223-1.213 8.93-1.685 11.8a3.86 3.86 0 0 1-3.573-.047c.052.608-.581-7.43-.944-10.677-.519-4.508-.717-7.793-1.18-10.427-.581-3.304-.779-16.151-.779-16.151l-1.888 14.599q.307 2.35.298 4.72c0 3.261-1.204 10.671-1.582 13.442-.816.581-2.478.755-3.379.057"/><path fill="#37474F" d="M195.553 140.226s-2.979-1.043-4.673-2.601a8.4 8.4 0 0 0 3.488 3.054l.028 8.543z"/><path fill="#F0F0F0" d="M197.922 109.942s4.423.51 4.951.746c-2.695 2.95.175 5.395.175 5.395l-2.053 9.034c1.77 2.261 2.78 4.007 3.205 6.703-1.888 3.341-12.541 3.804-16.445 1.316.34-4.658 1.1-7.995.845-9.397-1.855-5.721-1.279-6.92-1.104-8.227.339-2.554 2.874-4.777 4.323-5.711h1.35z"/><path fill="#B16668" d="M190.304 96.424c-.793.472-1.775 2.464-1.676 6.646.08 3.544 1.232 4.418 1.808 4.672.576.255 1.69.1 2.77-.085v2.129s-1.496 1.737-1.416 2.714 2.157 1.204 3.559.25a11.3 11.3 0 0 0 2.577-2.808l-.023-4.89s.632.618 1.713-.326c.892-.778 1.19-2.095.472-2.799a1.556 1.556 0 0 0-2.015-.094c-.194.15-.349.344-.453.566 0 0-.6-1.666-3.092-2.482-2.233-.708-3.455-1.563-4.224-3.493"/><path fill="#263238" d="M192.806 102.177a.47.47 0 0 0 .42.472.472.472 0 0 0 .472-.443.46.46 0 0 0-.099-.349.45.45 0 0 0-.324-.161.46.46 0 0 0-.338.13.46.46 0 0 0-.131.337z"/><path fill="#9A4A4D" d="m192.687 105.184-1.033.33a.52.52 0 0 0 .459.39.5.5 0 0 0 .211-.022.564.564 0 0 0 .363-.698"/><path fill="#263238" d="m189.152 100.809.902-.623a.54.54 0 0 0-.342-.24.53.53 0 0 0-.409.084.58.58 0 0 0-.151.779M194.104 101.139l-.902-.623a.525.525 0 0 1 .555-.24.54.54 0 0 1 .425.443.58.58 0 0 1-.078.42M189.36 101.856a.473.473 0 0 0 .42.472.47.47 0 0 0 .472-.439.46.46 0 0 0-.099-.348.45.45 0 0 0-.662-.031.45.45 0 0 0-.131.337z"/><path fill="#9A4A4D" d="m191.46 101.602-.071 2.681-1.411-.435zM193.188 107.657c1.137-.147 3.483-.822 3.851-1.747a2.4 2.4 0 0 1-.826 1.18c-.699.6-3.025 1.279-3.025 1.279z"/><path fill="#E0E0E0" d="m201.91 121.08-3.771 5.508 2.856-1.472z"/><path fill="#B16668" d="m200.164 111.891-8.85 9.152s-8.69-.855-11.64-1.7c-.944-.269-1.68-1.543-1.888-2.614a1.35 1.35 0 0 0-.325-.76 1.35 1.35 0 0 0-.708-.425v2.147c-.076.543-.34.822-1.114.841-2.983.066-4.366-.841-4.72.778-.232 1.034.217 2.209 2.185 2.752 2.766.755 4.295.378 5.976.798 1.298.321 10.355 2.044 12.135 2.431.944.207 1.656.141 2.681-.869 1.024-1.01 8.68-8.184 8.68-8.184 2.36-2.36 1.661-4.782.349-5.504-.821-.448-1.718.08-2.761 1.157"/><path fill="#F7921E" d="M202.873 110.688c.571.231 1.27.84 1.326 2.417s-1.109 3.011-2.482 4.654-1.789 2.077-1.789 2.077-3.474-1.265-4.064-3.847c0 0 2.619-2.776 3.403-3.663s2.228-2.261 3.606-1.638"/></svg>