<svg width="256" height="256" viewBox="0 0 256 256" fill="none" xmlns="http://www.w3.org/2000/svg">
<path d="M128.001 108.714C157.376 108.714 186.723 115.191 209.089 128.117C231.458 141.045 242.531 157.897 242.532 174.647C242.532 191.398 231.461 208.251 209.089 221.179C186.721 234.104 157.373 240.576 127.999 240.573C99.0827 240.57 70.1933 234.294 47.9634 221.779L46.9097 221.179C24.5384 208.263 13.4663 191.409 13.4663 174.656C13.4665 157.903 24.5393 141.045 46.9106 128.117C69.2792 115.192 98.6269 108.714 128.001 108.714Z" stroke="#D5D5D5"/>
<path d="M128.752 212.412L150.591 199.791C152.842 198.493 153.966 196.794 153.966 195.071C153.966 193.348 153.966 192.036 153.966 192.036L133.424 180.392C132.791 179.978 132.264 179.42 131.886 178.764C131.509 178.108 131.292 177.372 131.253 176.616V149.712L93.1392 171.735V198.639C93.1781 199.395 93.395 200.131 93.7723 200.788C94.1496 201.444 94.6766 202.002 95.3104 202.415L112.463 212.403C116.961 215.008 124.253 215.008 128.752 212.412Z" fill="#263238"/>
<path opacity="0.15" d="M102.291 203.425V206.451L95.3055 202.425C94.6717 202.011 94.1447 201.453 93.7674 200.797C93.3901 200.141 93.1732 199.405 93.1343 198.649V171.745L100.394 167.558C100.545 169.404 100.71 171.306 100.866 173.165L95.768 176.144V197.162C95.8043 197.918 96.0201 198.656 96.3977 199.312C96.7752 199.969 97.3036 200.526 97.9392 200.938L102.291 203.425Z" fill="black"/>
<path d="M95.7681 197.148C95.8066 197.904 96.0234 198.64 96.4007 199.296C96.7781 199.953 97.3053 200.51 97.9393 200.924L112.458 209.392C116.956 211.988 124.258 211.988 128.751 209.392L150.591 196.761C155.094 194.165 155.094 189.955 150.591 187.359L136.053 178.886C135.42 178.472 134.893 177.915 134.515 177.258C134.138 176.602 133.921 175.866 133.882 175.11V154.102L95.7681 176.144V197.148Z" fill="#455A64"/>
<path opacity="0.15" d="M140.476 181.445L136.053 178.891C135.42 178.477 134.893 177.919 134.515 177.263C134.138 176.607 133.921 175.871 133.882 175.115V154.102L95.7681 176.144V197.148C95.8066 197.904 96.0234 198.64 96.4007 199.296C96.7781 199.953 97.3053 200.51 97.9393 200.924L102.286 203.435L140.476 181.445Z" fill="black"/>
<path d="M50.3663 213.739C51.7823 214.55 54.1423 214.503 55.6244 213.639L179.288 142.249C180.081 141.732 180.74 141.035 181.211 140.215C181.683 139.395 181.954 138.474 182.002 137.529V23.3054C182.002 21.5732 180.86 19.5294 179.454 18.7034C178.047 17.8774 175.678 17.9341 174.191 18.7978L50.5268 90.1831C49.7339 90.7001 49.0743 91.3971 48.6019 92.2174C48.1294 93.0376 47.8575 93.9578 47.8081 94.9031V209.127C47.8175 210.864 48.9598 212.927 50.3663 213.739Z" fill="#455A64"/>
<path d="M55.6291 213.635L179.265 142.245C180.057 141.728 180.716 141.03 181.188 140.21C181.659 139.39 181.93 138.47 181.979 137.525V23.3009C181.979 21.5686 180.761 20.8653 179.265 21.7291L55.6291 93.1238C54.836 93.6402 54.1765 94.3372 53.7048 95.1576C53.233 95.9781 52.9624 96.8986 52.9151 97.8438V212.068C52.9103 213.8 54.1281 214.503 55.6291 213.635Z" fill="#37474F"/>
<path d="M52.9106 202.831V212.068C52.9106 213.8 54.1284 214.503 55.6294 213.635L179.265 142.245C180.057 141.728 180.716 141.03 181.188 140.21C181.66 139.39 181.931 138.47 181.979 137.525V128.307L52.9106 202.831Z" fill="#455A64"/>
<path d="M56.5024 194.24V99.0334C56.5338 98.4543 56.7014 97.8908 56.9918 97.3889C57.2822 96.8869 57.687 96.4606 58.1733 96.1447L176.716 27.7047C177.637 27.1714 178.387 27.6056 178.387 28.6487V123.861C178.355 124.44 178.187 125.004 177.897 125.507C177.607 126.01 177.202 126.437 176.716 126.754L58.1639 195.194C57.2482 195.737 56.5024 195.302 56.5024 194.24Z" fill="#263238"/>
<path d="M48.6388 92.2031L53.7317 95.139C53.2333 95.9493 52.9431 96.8703 52.8868 97.8199V212.068C52.8868 213.649 53.9583 214.531 55.6008 213.639C54.7955 214.073 53.8983 214.308 52.9838 214.325C52.0693 214.343 51.1639 214.141 50.3427 213.738C49.5957 213.294 48.9714 212.67 48.5263 211.923C48.0813 211.177 47.8295 210.331 47.7939 209.462V94.8888C47.8424 93.9363 48.1332 93.0118 48.6388 92.2031Z" fill="#263238"/>
<path d="M115.946 171.593L122.082 168.068C122.634 167.751 123.078 167.978 123.078 168.573C123.054 168.907 122.952 169.231 122.778 169.518C122.605 169.805 122.367 170.047 122.082 170.225L115.946 173.751C115.399 174.067 114.95 173.845 114.95 173.25C114.975 172.915 115.078 172.591 115.251 172.303C115.424 172.016 115.662 171.773 115.946 171.593Z" fill="#F7921E"/>
<path d="M63.8603 111.814C63.5096 111.568 63.2207 111.245 63.0163 110.869C62.812 110.493 62.6977 110.074 62.6826 109.646V102.652C62.7065 102.209 62.8346 101.777 63.0565 101.393C63.2784 101.009 63.588 100.682 63.9599 100.44L177.215 35.0131C177.584 34.782 178.009 34.6557 178.444 34.6479C178.88 34.64 179.309 34.7508 179.687 34.9685C180.064 35.1861 180.375 35.5023 180.586 35.8833C180.798 36.2642 180.901 36.6954 180.886 37.1307V44.1528C180.862 44.5953 180.734 45.0259 180.513 45.4101C180.292 45.7942 179.985 46.1211 179.614 46.3645L66.3374 111.764C65.9569 111.964 65.5348 112.073 65.1048 112.082C64.6747 112.09 64.2486 111.999 63.8603 111.814Z" fill="#F7921E"/>
<path opacity="0.2" d="M180.875 36.9259C180.786 36.2624 180.25 36.0246 179.614 36.373L66.3319 101.822C65.967 102.061 65.6638 102.383 65.4472 102.762L63.0586 101.38C63.2723 100.991 63.5827 100.663 63.9599 100.429L177.22 35.0128C177.574 34.7911 177.979 34.666 178.396 34.6498C178.813 34.6335 179.227 34.7268 179.597 34.9203C179.966 35.1139 180.279 35.4008 180.503 35.7527C180.727 36.1046 180.856 36.5091 180.875 36.9259Z" fill="white"/>
<path opacity="0.15" d="M65.4472 102.763C65.2205 103.143 65.0931 103.575 65.0768 104.018V107.888L62.6826 106.5V102.63C62.682 102.471 62.7006 102.314 62.7379 102.16C62.8023 101.881 62.9105 101.614 63.0586 101.369L65.4472 102.763Z" fill="black"/>
<path d="M180.886 37.131V41.0014L104.644 85.0305C103.941 85.4397 69.2567 105.45 68.5766 105.859L65.0601 107.888V104.018C65.0837 103.575 65.2112 103.144 65.4321 102.76C65.653 102.376 65.9612 102.049 66.3318 101.806L179.614 36.4122C180.311 35.9865 180.886 36.3182 180.886 37.131Z" fill="#F7921E"/>
<path d="M177.392 39.5522C177.851 39.2868 178.216 39.5024 178.216 40.0277C178.201 40.3137 178.119 40.5922 177.976 40.8402C177.832 41.0883 177.632 41.2987 177.392 41.4542C176.938 41.7196 176.568 41.504 176.568 40.9787C176.584 40.6931 176.667 40.4153 176.81 40.1675C176.953 39.9198 177.152 39.709 177.392 39.5522Z" fill="white"/>
<path d="M174.422 41.2665C174.881 41.0011 175.246 41.2168 175.246 41.7421C175.231 42.028 175.149 42.3063 175.006 42.5543C174.863 42.8022 174.663 43.0127 174.422 43.1686C173.969 43.434 173.599 43.2184 173.599 42.6931C173.614 42.4073 173.697 42.1291 173.84 41.8812C173.983 41.6333 174.183 41.4227 174.422 41.2665Z" fill="white"/>
<path d="M171.453 42.9751C171.912 42.7152 172.277 42.9253 172.277 43.4506C172.262 43.7373 172.18 44.0164 172.037 44.2652C171.893 44.514 171.694 44.7256 171.453 44.8826C171 45.1425 170.629 44.9324 170.629 44.4016C170.646 44.116 170.729 43.8381 170.872 43.5904C171.015 43.3427 171.214 43.1319 171.453 42.9751Z" fill="white"/>
<path d="M66.3374 193.624C66.0313 193.804 65.6861 193.909 65.3311 193.928C64.8276 193.992 64.3167 193.901 63.8659 193.668C63.5121 193.426 63.2204 193.105 63.0148 192.729C62.8091 192.353 62.6953 191.934 62.6826 191.506V106.5L65.0823 107.882V192.888C65.0823 193.441 65.3753 193.795 65.79 193.795C65.9832 193.781 66.1705 193.722 66.3374 193.624Z" fill="#E0E0E0"/>
<path d="M180.886 125.985C180.863 126.428 180.737 126.859 180.516 127.243C180.295 127.628 179.986 127.954 179.614 128.197L66.3373 193.624C65.6351 194.033 65.0601 193.701 65.0601 192.888V107.888L68.5766 105.859C69.2733 105.449 104.644 85.03 104.644 85.03L180.886 40.9844V125.985Z" fill="#FAFAFA"/>
<path d="M180.377 41.8635V125.985C180.354 126.339 180.25 126.682 180.073 126.99C179.897 127.297 179.653 127.561 179.36 127.76L66.083 193.187C65.9879 193.247 65.8798 193.283 65.7678 193.292C65.5909 193.292 65.5687 193.038 65.5687 192.888V108.175L68.831 106.295L104.898 85.4724L180.377 41.8635ZM180.886 40.9844L104.644 85.03C104.644 85.03 69.2567 105.449 68.5766 105.859L65.0601 107.888V192.888C65.0601 193.441 65.3476 193.795 65.7678 193.795C65.9635 193.785 66.1536 193.726 66.3207 193.624L179.614 128.197C179.986 127.954 180.295 127.628 180.516 127.243C180.737 126.859 180.863 126.428 180.886 125.985V40.9844Z" fill="#EBEBEB"/>
<path d="M183.358 47.3379L72.9891 110.973C72.6432 111.199 72.3554 111.502 72.1488 111.86C71.9423 112.217 71.8229 112.618 71.8003 113.03V196.87C71.822 197.281 71.941 197.682 72.1477 198.038C72.3544 198.395 72.6427 198.698 72.9891 198.921L73.73 199.347C74.0979 199.532 74.5041 199.628 74.916 199.628C75.3279 199.628 75.7341 199.532 76.102 199.347L186.476 135.656C186.82 135.43 187.106 135.127 187.312 134.771C187.517 134.415 187.636 134.015 187.659 133.605V49.8094C187.638 49.3978 187.519 48.9972 187.312 48.6406C187.105 48.284 186.817 47.9815 186.47 47.7581L185.73 47.3379C185.362 47.1526 184.955 47.0562 184.544 47.0562C184.132 47.0562 183.725 47.1526 183.358 47.3379Z" fill="#E0E0E0"/>
<path d="M187.642 133.687C187.642 134.732 186.913 135.396 185.984 135.899L76.5054 199.054C75.6042 199.573 74.8467 199.153 74.8467 198.108V115.325C74.8494 114.75 75.0043 114.185 75.2956 113.689C75.587 113.193 76.0043 112.782 76.5054 112.5L185.984 49.3284C186.151 49.2318 186.34 49.1807 186.534 49.1802C186.727 49.1796 186.917 49.2297 187.084 49.3253C187.252 49.4209 187.392 49.5588 187.49 49.7252C187.588 49.8916 187.64 50.0808 187.642 50.2739V133.687Z" fill="#FAFAFA"/>
<path d="M186.564 49.7319C186.711 49.7319 186.851 49.7902 186.955 49.8939C187.059 49.9976 187.117 50.1382 187.117 50.2849V133.687C187.117 134.367 186.708 134.887 185.757 135.435L76.2786 198.595C76.1428 198.683 75.9867 198.734 75.8252 198.744C75.5156 198.744 75.4713 198.357 75.4713 198.125V115.325C75.4722 114.85 75.5978 114.383 75.8356 113.972C76.0733 113.56 76.4148 113.219 76.826 112.981L186.304 49.8094C186.386 49.7606 186.48 49.7339 186.575 49.7319M186.575 49.179C186.381 49.1794 186.19 49.2309 186.022 49.3283L76.544 112.499C76.0429 112.782 75.6255 113.193 75.3342 113.689C75.0429 114.185 74.888 114.75 74.8853 115.325V198.125C74.8853 198.866 75.2557 199.297 75.792 199.297C76.0513 199.288 76.3034 199.21 76.5219 199.07L186.022 135.938C186.929 135.418 187.681 134.755 187.681 133.726V50.2738C187.681 49.9805 187.565 49.6992 187.357 49.4919C187.15 49.2845 186.868 49.168 186.575 49.168V49.179Z" fill="#EBEBEB"/>
<path d="M119.839 94.2469L143.022 80.8509C143.882 80.349 144.575 80.7553 144.575 81.7352V83.7548C144.547 84.2938 144.392 84.8184 144.122 85.2858C143.852 85.7531 143.475 86.1499 143.022 86.4435L119.839 99.8395C118.99 100.341 118.297 99.9351 118.297 98.9432V96.9356C118.325 96.3979 118.479 95.8743 118.747 95.4072C119.015 94.9401 119.389 94.5426 119.839 94.2469Z" fill="#E0E0E0"/>
<path d="M187.643 49.8094V50.2739C187.64 50.0808 187.588 49.8916 187.49 49.7252C187.392 49.5588 187.252 49.4209 187.084 49.3253C186.917 49.2297 186.727 49.1796 186.534 49.1802C186.341 49.1807 186.151 49.2318 185.984 49.3284L76.5056 112.5C76.0069 112.782 75.5942 113.195 75.3113 113.694V113.727L72.1099 111.88C72.3096 111.51 72.6033 111.199 72.9614 110.979L183.357 47.3379C183.725 47.1526 184.132 47.0562 184.543 47.0562C184.955 47.0562 185.362 47.1526 185.73 47.3379L186.47 47.7581C186.814 47.9834 187.099 48.2867 187.303 48.6432C187.506 48.9997 187.623 49.3993 187.643 49.8094Z" fill="#F0F0F0"/>
<path d="M147.567 80.9388C149.944 79.4348 152.35 77.9806 154.755 76.5154C157.16 75.0502 159.604 73.6734 162.026 72.2469C164.448 70.8203 166.897 69.4823 169.357 68.0889L173.045 66.0486C174.284 65.3851 175.511 64.705 176.761 64.0581C175.578 64.8156 174.372 65.5399 173.178 66.2698L169.573 68.4815C167.162 69.9246 164.73 71.329 162.308 72.75C159.886 74.171 157.431 75.5478 154.976 76.908C152.521 78.2682 150.044 79.6283 147.567 80.9388Z" fill="#455A64"/>
<path d="M85.8115 116.585C88.1891 115.081 90.5943 113.633 92.9995 112.162C95.4047 110.691 97.8431 109.315 100.265 107.888C102.687 106.461 105.142 105.096 107.597 103.73L111.285 101.69C112.523 101.026 113.756 100.346 115.006 99.6992C113.817 100.457 112.617 101.181 111.423 101.911L107.812 104.089C105.401 105.533 102.963 106.931 100.541 108.358C98.1195 109.784 95.6646 111.123 93.2096 112.516C90.7546 113.909 88.2997 115.292 85.8115 116.585Z" fill="#455A64"/>
<path d="M102.968 117.584V147.171C102.968 147.596 103.267 147.768 103.637 147.558L131.504 131.468C131.698 131.34 131.859 131.17 131.974 130.969C132.089 130.768 132.156 130.543 132.168 130.312V100.725C132.168 100.299 131.869 100.128 131.504 100.338L103.637 116.428C103.442 116.554 103.28 116.724 103.163 116.925C103.047 117.126 102.98 117.352 102.968 117.584Z" fill="#F7921E"/>
<path opacity="0.5" d="M102.968 117.584V147.171C102.968 147.596 103.267 147.768 103.637 147.558L131.504 131.468C131.698 131.34 131.859 131.17 131.974 130.969C132.089 130.768 132.156 130.543 132.168 130.312V100.725C132.168 100.299 131.869 100.128 131.504 100.338L103.637 116.428C103.442 116.554 103.28 116.724 103.163 116.925C103.047 117.126 102.98 117.352 102.968 117.584Z" fill="white"/>
<path opacity="0.5" d="M104.511 117.7L130.631 102.622V130.196L104.511 145.274V117.7Z" fill="white"/>
<path d="M104.511 145.274V136.438L111.566 120.426L123.061 128.41L119.252 124.539L124.101 118.463L130.631 121.421V130.196L104.511 145.274Z" fill="white"/>
<path d="M123.217 114.053C124.03 112.644 124.03 111.12 123.215 110.649C122.401 110.179 121.081 110.941 120.267 112.35C119.453 113.76 119.454 115.284 120.268 115.754C121.083 116.224 122.403 115.463 123.217 114.053Z" fill="white"/>
<path d="M102.968 153.606C102.893 153.611 102.817 153.595 102.75 153.56C102.682 153.525 102.626 153.472 102.587 153.407C102.536 153.313 102.524 153.203 102.553 153.1C102.582 152.997 102.649 152.909 102.742 152.855L131.941 135.996C132.037 135.941 132.15 135.926 132.256 135.955C132.362 135.983 132.453 136.053 132.508 136.148C132.563 136.243 132.578 136.357 132.549 136.463C132.521 136.569 132.451 136.66 132.356 136.715L103.156 153.573C103.097 153.599 103.033 153.61 102.968 153.606Z" fill="#E0E0E0"/>
<path d="M102.968 157.482C102.877 157.482 102.788 157.451 102.716 157.395C102.644 157.34 102.593 157.262 102.569 157.174C102.546 157.085 102.553 156.992 102.588 156.908C102.623 156.824 102.684 156.754 102.763 156.708L131.963 139.855C132.057 139.813 132.163 139.807 132.26 139.838C132.358 139.869 132.441 139.936 132.493 140.025C132.544 140.113 132.561 140.218 132.54 140.319C132.519 140.419 132.461 140.508 132.378 140.568L103.178 157.427C103.114 157.464 103.042 157.483 102.968 157.482Z" fill="#E0E0E0"/>
<path d="M102.968 161.364C102.891 161.366 102.815 161.347 102.748 161.309C102.68 161.271 102.625 161.215 102.587 161.148C102.536 161.054 102.524 160.943 102.553 160.84C102.582 160.737 102.649 160.649 102.742 160.595L131.941 143.737C132.035 143.686 132.145 143.673 132.248 143.7C132.351 143.728 132.439 143.795 132.494 143.886C132.544 143.98 132.556 144.089 132.528 144.192C132.501 144.294 132.435 144.383 132.345 144.439L103.145 161.297C103.091 161.331 103.031 161.354 102.968 161.364Z" fill="#E0E0E0"/>
<path d="M102.968 165.24C102.877 165.239 102.788 165.209 102.716 165.153C102.644 165.097 102.593 165.019 102.569 164.931C102.546 164.843 102.553 164.75 102.588 164.666C102.623 164.582 102.684 164.511 102.763 164.466L131.963 147.607C132.059 147.552 132.172 147.537 132.278 147.566C132.384 147.594 132.475 147.664 132.53 147.759C132.585 147.855 132.6 147.968 132.571 148.074C132.543 148.18 132.473 148.271 132.378 148.326L103.178 165.185C103.114 165.221 103.042 165.24 102.968 165.24Z" fill="#E0E0E0"/>
<path d="M102.968 169.116C102.877 169.115 102.788 169.085 102.716 169.029C102.644 168.973 102.593 168.895 102.569 168.807C102.546 168.719 102.553 168.625 102.588 168.541C102.623 168.457 102.684 168.387 102.763 168.342L131.963 151.488C132.01 151.454 132.064 151.43 132.12 151.418C132.177 151.406 132.236 151.406 132.293 151.418C132.349 151.43 132.403 151.454 132.45 151.488C132.497 151.522 132.536 151.565 132.566 151.615C132.595 151.666 132.613 151.721 132.619 151.779C132.626 151.837 132.62 151.895 132.602 151.95C132.584 152.006 132.555 152.057 132.517 152.1C132.478 152.143 132.431 152.178 132.378 152.202L103.178 169.06C103.114 169.097 103.042 169.116 102.968 169.116Z" fill="#E0E0E0"/>
<path d="M102.968 172.997C102.895 172.996 102.824 172.976 102.761 172.939C102.698 172.902 102.646 172.85 102.609 172.787C102.558 172.693 102.546 172.583 102.575 172.48C102.604 172.377 102.671 172.289 102.764 172.234L131.963 155.376C132.057 155.325 132.167 155.312 132.27 155.34C132.373 155.367 132.461 155.434 132.516 155.525C132.566 155.619 132.578 155.728 132.55 155.831C132.523 155.933 132.457 156.022 132.367 156.078L103.167 172.936C103.107 172.973 103.039 172.994 102.968 172.997Z" fill="#E0E0E0"/>
<path d="M102.968 176.873C102.877 176.873 102.788 176.842 102.716 176.786C102.644 176.731 102.593 176.653 102.569 176.564C102.546 176.476 102.553 176.383 102.588 176.299C102.623 176.215 102.684 176.145 102.763 176.099L131.963 159.241C132.059 159.186 132.172 159.171 132.278 159.199C132.384 159.228 132.475 159.297 132.53 159.393C132.585 159.488 132.6 159.601 132.571 159.707C132.543 159.814 132.473 159.904 132.378 159.959L103.178 176.818C103.114 176.855 103.042 176.874 102.968 176.873Z" fill="#E0E0E0"/>
<path d="M135.585 134.78C135.512 134.779 135.441 134.759 135.378 134.722C135.315 134.685 135.262 134.633 135.226 134.57C135.173 134.476 135.16 134.366 135.187 134.263C135.215 134.159 135.283 134.071 135.375 134.017L164.575 117.158C164.67 117.103 164.783 117.088 164.89 117.117C164.996 117.145 165.086 117.215 165.141 117.31C165.196 117.405 165.211 117.519 165.183 117.625C165.154 117.731 165.085 117.822 164.989 117.877L135.79 134.735C135.726 134.768 135.656 134.783 135.585 134.78Z" fill="#E0E0E0"/>
<path d="M135.585 138.655C135.493 138.656 135.404 138.626 135.331 138.571C135.258 138.516 135.205 138.438 135.181 138.349C135.157 138.261 135.163 138.167 135.198 138.082C135.233 137.998 135.295 137.927 135.375 137.881L164.575 121.023C164.669 120.972 164.779 120.96 164.882 120.989C164.985 121.018 165.073 121.085 165.127 121.178C165.18 121.271 165.194 121.381 165.166 121.485C165.138 121.588 165.07 121.676 164.978 121.73L135.778 138.589C135.721 138.627 135.654 138.65 135.585 138.655Z" fill="#E0E0E0"/>
<path d="M135.585 142.537C135.511 142.541 135.438 142.526 135.372 142.493C135.306 142.46 135.25 142.41 135.209 142.349C135.157 142.255 135.143 142.145 135.171 142.042C135.199 141.938 135.266 141.85 135.358 141.796L164.558 124.937C164.652 124.885 164.762 124.871 164.865 124.899C164.968 124.927 165.057 124.994 165.111 125.086C165.162 125.18 165.175 125.29 165.147 125.393C165.119 125.496 165.053 125.584 164.962 125.639L135.762 142.498C135.706 142.522 135.646 142.535 135.585 142.537Z" fill="#E0E0E0"/>
<path d="M135.585 146.413C135.493 146.413 135.404 146.384 135.331 146.328C135.258 146.273 135.205 146.195 135.181 146.107C135.157 146.018 135.163 145.924 135.198 145.84C135.233 145.755 135.295 145.684 135.375 145.639L164.575 128.78C164.67 128.725 164.783 128.71 164.889 128.739C164.996 128.767 165.086 128.837 165.141 128.932C165.196 129.028 165.211 129.141 165.183 129.247C165.154 129.353 165.085 129.444 164.989 129.499L135.79 146.357C135.727 146.394 135.657 146.413 135.585 146.413Z" fill="#E0E0E0"/>
<path d="M135.585 150.288C135.493 150.289 135.404 150.259 135.331 150.204C135.258 150.149 135.205 150.071 135.181 149.982C135.157 149.894 135.163 149.8 135.198 149.715C135.233 149.631 135.295 149.56 135.375 149.514L164.575 132.661C164.668 132.619 164.774 132.613 164.872 132.644C164.97 132.676 165.052 132.742 165.104 132.831C165.155 132.92 165.172 133.024 165.151 133.125C165.13 133.225 165.072 133.314 164.989 133.375L135.79 150.233C135.727 150.269 135.657 150.288 135.585 150.288Z" fill="#E0E0E0"/>
<path d="M135.585 154.17C135.509 154.172 135.434 154.154 135.368 154.117C135.302 154.08 135.247 154.026 135.209 153.96C135.157 153.867 135.143 153.757 135.171 153.653C135.199 153.55 135.266 153.462 135.358 153.407L164.558 136.549C164.653 136.494 164.767 136.479 164.873 136.507C164.979 136.536 165.07 136.605 165.125 136.701C165.18 136.796 165.195 136.909 165.166 137.016C165.138 137.122 165.068 137.212 164.973 137.267L135.773 154.126C135.714 154.153 135.65 154.169 135.585 154.17Z" fill="#E0E0E0"/>
<path d="M135.585 158.046C135.493 158.047 135.404 158.017 135.331 157.962C135.258 157.906 135.205 157.828 135.181 157.74C135.157 157.652 135.163 157.558 135.198 157.473C135.233 157.388 135.295 157.318 135.375 157.272L164.575 140.413C164.67 140.358 164.783 140.344 164.889 140.372C164.996 140.401 165.086 140.47 165.141 140.565C165.196 140.661 165.211 140.774 165.183 140.88C165.154 140.987 165.085 141.077 164.989 141.132L135.79 157.991C135.727 158.027 135.657 158.046 135.585 158.046Z" fill="#E0E0E0"/>
<path d="M135.585 107.515C135.512 107.514 135.441 107.494 135.378 107.458C135.315 107.421 135.262 107.368 135.226 107.305C135.173 107.212 135.16 107.101 135.187 106.998C135.215 106.895 135.283 106.806 135.375 106.752L164.575 89.8934C164.67 89.8384 164.783 89.8235 164.89 89.8521C164.996 89.8806 165.086 89.9501 165.141 90.0455C165.196 90.1408 165.211 90.254 165.183 90.3603C165.154 90.4666 165.085 90.5572 164.989 90.6122L135.79 107.471C135.726 107.503 135.656 107.518 135.585 107.515Z" fill="#E0E0E0"/>
<path d="M135.585 111.413C135.493 111.413 135.404 111.384 135.331 111.328C135.258 111.273 135.205 111.195 135.181 111.107C135.157 111.018 135.163 110.924 135.198 110.84C135.233 110.755 135.295 110.684 135.375 110.639L164.575 93.7801C164.669 93.7296 164.779 93.7175 164.882 93.7463C164.985 93.7752 165.073 93.8427 165.127 93.9349C165.18 94.0283 165.194 94.1385 165.166 94.2418C165.138 94.3452 165.07 94.4335 164.978 94.4878L135.79 111.385C135.725 111.412 135.654 111.421 135.585 111.413Z" fill="#E0E0E0"/>
<path d="M135.585 99.7075C135.512 99.7067 135.441 99.687 135.378 99.6501C135.315 99.6133 135.262 99.5606 135.226 99.4974C135.173 99.4041 135.16 99.2939 135.187 99.1905C135.215 99.0871 135.283 98.9988 135.375 98.9445L164.575 82.0804C164.67 82.0254 164.783 82.0106 164.89 82.0391C164.996 82.0676 165.086 82.1372 165.141 82.2325C165.196 82.3278 165.211 82.4411 165.183 82.5473C165.154 82.6536 165.085 82.7442 164.989 82.7992L135.79 99.6578C135.727 99.6919 135.656 99.7091 135.585 99.7075Z" fill="#E0E0E0"/>
<path d="M135.585 103.584C135.493 103.584 135.404 103.555 135.331 103.499C135.258 103.444 135.205 103.366 135.181 103.278C135.157 103.189 135.163 103.095 135.198 103.011C135.233 102.926 135.295 102.855 135.375 102.81L164.575 85.951C164.67 85.896 164.783 85.8812 164.889 85.9097C164.996 85.9382 165.086 86.0078 165.141 86.1031C165.196 86.1984 165.211 86.3117 165.183 86.4179C165.154 86.5242 165.085 86.6148 164.989 86.6698L135.79 103.528C135.727 103.564 135.657 103.584 135.585 103.584Z" fill="#E0E0E0"/>
<path d="M135.585 115.295C135.512 115.294 135.441 115.274 135.378 115.237C135.315 115.2 135.262 115.148 135.226 115.084C135.173 114.991 135.16 114.881 135.187 114.778C135.215 114.674 135.283 114.586 135.375 114.532L164.575 97.673C164.668 97.6206 164.778 97.6068 164.882 97.6348C164.985 97.6627 165.073 97.73 165.128 97.8223C165.179 97.9159 165.192 98.0257 165.164 98.1286C165.136 98.2316 165.07 98.3199 164.978 98.3752L135.79 115.256C135.726 115.286 135.655 115.299 135.585 115.295Z" fill="#E0E0E0"/>
<path d="M135.585 119.17C135.512 119.169 135.441 119.15 135.378 119.113C135.315 119.076 135.262 119.023 135.226 118.96C135.173 118.867 135.16 118.757 135.187 118.653C135.215 118.55 135.283 118.462 135.375 118.407L164.575 101.549C164.67 101.494 164.783 101.479 164.89 101.507C164.996 101.536 165.086 101.605 165.141 101.701C165.196 101.796 165.211 101.909 165.183 102.016C165.154 102.122 165.085 102.212 164.989 102.267L135.79 119.126C135.726 119.158 135.656 119.174 135.585 119.17Z" fill="#E0E0E0"/>
<path d="M135.585 123.047C135.493 123.047 135.404 123.018 135.331 122.962C135.258 122.907 135.205 122.829 135.181 122.74C135.157 122.652 135.163 122.558 135.198 122.473C135.233 122.389 135.295 122.318 135.375 122.272L164.575 105.414C164.669 105.363 164.779 105.351 164.882 105.38C164.985 105.409 165.073 105.477 165.127 105.569C165.18 105.662 165.194 105.772 165.166 105.876C165.138 105.979 165.07 106.067 164.978 106.122L135.79 122.997C135.727 123.031 135.656 123.048 135.585 123.047Z" fill="#E0E0E0"/>
<path d="M135.585 126.928C135.512 126.927 135.441 126.907 135.378 126.87C135.315 126.834 135.262 126.781 135.226 126.718C135.173 126.624 135.16 126.514 135.187 126.411C135.215 126.307 135.283 126.219 135.375 126.165L164.575 109.306C164.668 109.254 164.778 109.24 164.882 109.268C164.985 109.296 165.073 109.363 165.128 109.456C165.179 109.549 165.192 109.659 165.164 109.762C165.136 109.865 165.07 109.953 164.978 110.008L135.79 126.867C135.727 126.903 135.657 126.923 135.585 126.928Z" fill="#E0E0E0"/>
<path d="M135.585 130.804C135.493 130.805 135.404 130.775 135.331 130.72C135.258 130.664 135.205 130.586 135.181 130.498C135.157 130.409 135.163 130.316 135.198 130.231C135.233 130.146 135.295 130.075 135.375 130.03L164.575 113.171C164.67 113.116 164.783 113.101 164.889 113.13C164.996 113.158 165.086 113.228 165.141 113.323C165.196 113.419 165.211 113.532 165.183 113.638C165.154 113.744 165.085 113.835 164.989 113.89L135.79 130.738C135.728 130.777 135.658 130.8 135.585 130.804Z" fill="#E0E0E0"/>
<path d="M150.421 194.141C150.08 193.909 149.798 193.601 149.599 193.24C149.399 192.88 149.287 192.478 149.271 192.066V108.282C149.295 107.858 149.419 107.444 149.631 107.076C149.844 106.707 150.14 106.393 150.496 106.16L204.676 74.8017C205.031 74.578 205.44 74.4556 205.859 74.4477C206.278 74.4398 206.692 74.5467 207.055 74.7568C207.417 74.967 207.716 75.2724 207.918 75.64C208.12 76.0076 208.217 76.4234 208.199 76.8424V160.605C208.176 161.03 208.052 161.444 207.84 161.812C207.627 162.181 207.331 162.494 206.975 162.728L152.795 194.086C152.431 194.281 152.027 194.387 151.615 194.396C151.202 194.406 150.793 194.318 150.421 194.141Z" fill="#F0F0F0"/>
<path d="M152.795 194.1L206.975 162.742C207.331 162.508 207.627 162.195 207.839 161.826C208.052 161.458 208.175 161.044 208.199 160.619V76.8359C208.199 76.0536 207.648 75.7339 206.975 76.1557L152.795 107.514C152.44 107.747 152.144 108.059 151.932 108.427C151.719 108.794 151.595 109.206 151.57 109.63V193.393C151.57 194.175 152.114 194.488 152.795 194.1Z" fill="#FAFAFA"/>
<path d="M207.519 76.577C207.564 76.6553 207.583 76.7457 207.573 76.8355V160.605C207.554 160.921 207.462 161.228 207.304 161.502C207.145 161.776 206.926 162.009 206.662 162.183L152.482 193.542C152.409 193.588 152.328 193.621 152.244 193.637C152.2 193.558 152.181 193.468 152.189 193.379V109.588C152.212 109.273 152.306 108.966 152.466 108.693C152.625 108.419 152.844 108.186 153.108 108.01L207.281 76.6518C207.353 76.6064 207.434 76.5784 207.519 76.5702M207.519 75.9512C207.326 75.9585 207.138 76.0172 206.975 76.1212L152.795 107.48C152.44 107.712 152.144 108.025 151.932 108.392C151.719 108.76 151.595 109.171 151.57 109.595V193.392C151.57 193.943 151.842 194.263 152.251 194.263C152.445 194.256 152.635 194.2 152.802 194.1L206.982 162.741C207.337 162.508 207.634 162.194 207.846 161.826C208.059 161.457 208.182 161.044 208.206 160.619V76.8355C208.206 76.2777 207.927 75.958 207.526 75.958L207.519 75.9512Z" fill="#EBEBEB"/>
<path d="M152.631 194.182C152.276 194.37 151.877 194.461 151.475 194.446C151.073 194.431 150.682 194.31 150.342 194.095C150.002 193.88 149.724 193.58 149.537 193.223C149.351 192.867 149.261 192.468 149.278 192.066V108.283C149.293 107.856 149.414 107.439 149.632 107.072L151.931 108.432C151.708 108.796 151.584 109.21 151.57 109.636V193.392C151.57 194.107 152.026 194.433 152.631 194.182Z" fill="#E0E0E0"/>
<path d="M179.637 99.9633L198.744 88.7736C199.336 88.4267 199.819 88.7056 199.819 89.3994V89.8619C199.798 90.236 199.69 90.5999 199.504 90.9248C199.317 91.2496 199.057 91.5262 198.744 91.7326L179.637 102.922C179.045 103.262 178.562 102.984 178.562 102.296V101.834C178.583 101.46 178.691 101.096 178.877 100.771C179.064 100.446 179.324 100.17 179.637 99.9633Z" fill="#E0E0E0"/>
<path d="M179.637 107.262L198.744 96.0726C199.336 95.7257 199.819 96.0046 199.819 96.6916V97.1201C199.8 97.4945 199.693 97.8591 199.506 98.1842C199.319 98.5092 199.058 98.7856 198.744 98.9908L179.637 110.18C179.045 110.527 178.562 110.248 178.562 109.561V109.126C178.582 108.753 178.69 108.39 178.877 108.066C179.064 107.742 179.324 107.467 179.637 107.262Z" fill="#E0E0E0"/>
<path d="M179.637 114.554L198.744 103.365C199.336 103.024 199.819 103.303 199.819 103.99V104.419C199.798 104.793 199.69 105.157 199.504 105.482C199.317 105.807 199.057 106.083 198.744 106.29L179.637 117.479C179.045 117.819 178.562 117.541 178.562 116.853V116.425C178.583 116.051 178.691 115.687 178.877 115.362C179.064 115.037 179.324 114.761 179.637 114.554Z" fill="#E0E0E0"/>
<path d="M159.454 140.757L198.744 117.955C199.336 117.615 199.819 117.894 199.819 118.581V119.01C199.798 119.384 199.69 119.748 199.503 120.073C199.317 120.397 199.057 120.674 198.744 120.88L159.454 143.682C158.862 144.022 158.379 143.743 158.379 143.056V142.627C158.4 142.253 158.508 141.889 158.695 141.564C158.881 141.24 159.142 140.963 159.454 140.757Z" fill="#E0E0E0"/>
<path d="M159.454 133.458L198.744 110.663C199.336 110.316 199.819 110.595 199.819 111.282V111.718C199.799 112.091 199.691 112.454 199.504 112.778C199.317 113.102 199.057 113.377 198.744 113.582L159.454 136.383C158.862 136.73 158.379 136.451 158.379 135.757V135.328C158.4 134.954 158.508 134.59 158.695 134.266C158.881 133.941 159.142 133.664 159.454 133.458Z" fill="#E0E0E0"/>
<path d="M159.454 148.103L198.744 125.308C199.336 124.962 199.819 125.24 199.819 125.927V126.363C199.799 126.736 199.691 127.099 199.504 127.423C199.317 127.747 199.057 128.022 198.744 128.227L159.454 151.028C158.862 151.375 158.379 151.096 158.379 150.402V149.973C158.4 149.599 158.508 149.235 158.695 148.911C158.881 148.586 159.142 148.309 159.454 148.103Z" fill="#E0E0E0"/>
<path d="M159.454 155.402L198.744 132.607C199.336 132.26 199.819 132.539 199.819 133.226V133.655C199.798 134.029 199.69 134.393 199.503 134.718C199.317 135.042 199.057 135.319 198.744 135.525L159.454 158.327C158.862 158.667 158.379 158.388 158.379 157.701V157.272C158.4 156.898 158.508 156.534 158.695 156.209C158.881 155.885 159.142 155.608 159.454 155.402Z" fill="#E0E0E0"/>
<path d="M159.454 162.7L198.744 139.899C199.336 139.559 199.819 139.838 199.819 140.525V140.954C199.798 141.328 199.69 141.692 199.503 142.016C199.317 142.341 199.057 142.618 198.744 142.824L159.454 165.619C158.862 165.966 158.379 165.687 158.379 165V164.564C158.4 164.191 158.508 163.828 158.694 163.504C158.881 163.18 159.141 162.905 159.454 162.7Z" fill="#E0E0E0"/>
<path d="M159.454 169.992L198.744 147.198C199.336 146.851 199.819 147.13 199.819 147.817V148.252C199.799 148.626 199.691 148.989 199.504 149.313C199.317 149.636 199.057 149.912 198.744 150.116L159.454 172.917C158.862 173.258 158.379 172.979 158.379 172.292V171.863C158.4 171.489 158.508 171.125 158.695 170.8C158.881 170.475 159.142 170.199 159.454 169.992Z" fill="#E0E0E0"/>
<path d="M159.454 177.291L198.744 154.483C199.336 154.143 199.819 154.422 199.819 155.109V155.538C199.798 155.912 199.69 156.276 199.503 156.6C199.317 156.925 199.057 157.202 198.744 157.408L159.454 180.203C158.862 180.55 158.379 180.271 158.379 179.584V179.155C158.4 178.782 158.508 178.419 158.694 178.095C158.881 177.771 159.141 177.496 159.454 177.291Z" fill="#E0E0E0"/>
<path d="M158.666 110.949L174.528 101.787V120.105L158.666 129.261V110.949Z" fill="#F7921E"/>
<path d="M161.046 112.779V118.275L161.542 117.976V116.295C161.596 115.751 161.777 115.227 162.07 114.765C162.362 114.303 162.76 113.916 163.229 113.636L165.576 112.275V120.438C165.568 120.988 165.429 121.529 165.173 122.016C164.917 122.502 164.549 122.922 164.1 123.24L162.631 124.091V124.676L170.562 120.098V119.513L169.086 120.363C168.27 120.832 167.61 120.363 167.61 119.261V111.098L169.957 109.738C170.896 109.194 171.651 109.514 171.651 110.418V112.098L172.147 111.819V106.323L161.046 112.779Z" fill="#FAFAFA"/>
</svg>
