<svg xmlns="http://www.w3.org/2000/svg" width="256" height="256" fill="none"><path stroke="#D5D5D5" d="M244.221 171.103c0 19.514-12.908 37.26-33.948 50.154-21.032 12.889-50.118 20.878-82.273 20.878s-61.241-7.989-82.273-20.878c-21.04-12.894-33.948-30.64-33.948-50.154 0-19.513 12.908-37.26 33.948-50.154C66.76 108.06 95.845 100.072 128 100.072s61.241 7.988 82.273 20.877c21.04 12.894 33.948 30.641 33.948 50.154Z"/><path fill="#F5F5F5" d="m112.897 201.612 22.356-12.922c2.306-1.332 3.458-3.076 3.458-4.819v-3.11l-21.034-11.938a4.94 4.94 0 0 1-2.228-3.875V137.4l-39.036 22.569v27.558a4.92 4.92 0 0 0 2.223 3.875l17.571 10.229c4.611 2.644 12.084 2.644 16.69-.019"/><path fill="#000" d="M85.79 192.409v3.11l-7.159-4.122a4.93 4.93 0 0 1-2.223-3.874v-27.554l7.44-4.291c.154 1.889.319 3.841.484 5.744l-5.217 3.018v21.533a4.9 4.9 0 0 0 2.223 3.874z" opacity=".15"/><path fill="#E6E6E6" d="M79.106 185.978a4.93 4.93 0 0 0 2.223 3.874l14.878 8.674c4.606 2.659 12.079 2.659 16.69 0l22.366-12.926c4.611-2.659 4.611-6.97 0-9.633l-14.883-8.679a4.91 4.91 0 0 1-2.228-3.875V141.88l-39.046 22.56z"/><path fill="#000" d="m124.928 169.888-4.534-2.615a4.9 4.9 0 0 1-1.58-1.669 4.9 4.9 0 0 1-.648-2.206V141.88L79.12 164.44v21.538a4.93 4.93 0 0 0 2.223 3.874l4.456 2.572z" opacity=".15"/><path fill="#393939" d="M32.591 202.972c1.453.833 3.875.79 5.39-.101l128.468-74.165a6.16 6.16 0 0 0 2.78-4.843V16.319c0-1.778-1.168-3.875-2.611-4.718-1.443-.842-3.874-.789-5.39.097L32.766 85.863A6.15 6.15 0 0 0 30 90.682v107.573c0 1.773 1.153 3.884 2.591 4.717"/><path fill="#4E4E4E" d="m37.987 202.871 128.462-74.189a6.15 6.15 0 0 0 2.78-4.843V16.319c0-1.773-1.245-2.494-2.78-1.608L37.987 88.87a6.15 6.15 0 0 0-2.78 4.819v107.573c-.005 1.772 1.24 2.489 2.78 1.608"/><path fill="#D5D5D5" d="M35.202 191.799v9.464c0 1.772 1.244 2.494 2.785 1.608l128.462-74.189a6.15 6.15 0 0 0 2.78-4.843v-9.42z"/><path fill="#000" d="M38.878 182.999v-88.07a3.8 3.8 0 0 1 1.714-2.964l123.246-71.157c.969-.547 1.71-.101 1.71.969v88.089a3.8 3.8 0 0 1-1.71 2.964l-123.25 71.157c-.945.542-1.71.102-1.71-.988"/><path fill="#F7921E" d="M160.167 110.423a3.77 3.77 0 0 0 1.71-2.964V21.942L40.592 91.965a3.8 3.8 0 0 0-1.714 2.964v85.518z"/><path fill="#000" d="M160.167 110.423a3.77 3.77 0 0 0 1.71-2.964V21.942L40.592 91.965a3.8 3.8 0 0 0-1.714 2.964v85.518z" opacity=".4"/><path fill="#393939" d="m30.804 87.93 5.216 3.009a5.93 5.93 0 0 0-.823 2.746v107.578c0 1.617 1.094 2.523 2.78 1.608a5.9 5.9 0 0 1-5.39.101A5.35 5.35 0 0 1 30 198.589V90.682a5.8 5.8 0 0 1 .804-2.751"/><path fill="#F7921E" d="m99.781 159.8 6.297-3.613c.561-.325 1.017-.092 1.017.518a2.18 2.18 0 0 1-1.017 1.69l-6.297 3.613c-.566.325-1.022.097-1.022-.513a2.18 2.18 0 0 1 1.022-1.695"/><path fill="#FAFAFA" d="M167.112 30.47a1 1 0 0 0-.038-.203v-.043a.8.8 0 0 0-.054-.194 1 1 0 0 0-.126-.281.4.4 0 0 0-.072-.116.4.4 0 0 0-.068-.078.8.8 0 0 0-.329-.256c-.398-.184-.911-.136-6.921 3.327L50.787 95.157a4.81 4.81 0 0 0-2.203 3.812v105.805a1.48 1.48 0 0 0 .79 1.337l.091.063.116.068q.09.042.19.063a1.34 1.34 0 0 0 1.011-.175l.054-.034 2.097-1.211 111.99-64.473a4.84 4.84 0 0 0 2.204-3.811V30.741c0-.091-.01-.183-.015-.27"/><path fill="#E0E0E0" d="M166.129 29.88h.029l.039.029.058.072.053.078.029.058v.024l.068.194v106.266a4.19 4.19 0 0 1-1.864 3.23L52.608 204.304l-2.034 1.177-.063.039-.053.029a.74.74 0 0 1-.368.121h-.03a.5.5 0 0 1-.135 0h-.034l-.058-.034-.077-.053h-.03a.83.83 0 0 1-.44-.736V98.969a4.17 4.17 0 0 1 1.835-3.221L159.8 33.193c1.55-.892 5.642-3.25 6.296-3.294m0-.673c-.484 0-1.729.542-6.664 3.39L50.787 95.156a4.81 4.81 0 0 0-2.203 3.813v105.805a1.48 1.48 0 0 0 .79 1.337l.091.063.116.068a1 1 0 0 0 .19.062q.138.032.28.034h.03c.247-.006.49-.078.701-.208l.054-.034 2.097-1.211 111.99-64.473a4.84 4.84 0 0 0 2.204-3.811V30.471a1 1 0 0 0-.039-.204v-.043a.8.8 0 0 0-.053-.194 1 1 0 0 0-.126-.281.4.4 0 0 0-.073-.116.3.3 0 0 0-.068-.078.8.8 0 0 0-.329-.256.56.56 0 0 0-.257-.059z"/><path fill="#F7921E" d="M166.405 29.284a1.63 1.63 0 0 0-1.482.189l-87.46 50.292-26.676 15.392q-.234.135-.44.31-.334.27-.606.6-.273.343-.484.727l-2.79-1.623c.19-.327.416-.633.673-.91l.204-.203q.298-.277.649-.485l26.7-15.411 87.421-50.278a1.53 1.53 0 0 1 1.598-.126 153 153 0 0 0 2.693 1.526"/><path fill="#fff" d="M166.405 29.284a1.63 1.63 0 0 0-1.482.189l-87.46 50.292-26.676 15.392q-.234.135-.44.31-.334.27-.606.6-.273.343-.484.727l-2.79-1.623c.19-.327.416-.633.673-.91l.204-.203q.298-.277.649-.485l26.7-15.411 87.421-50.278a1.53 1.53 0 0 1 1.598-.126 153 153 0 0 0 2.693 1.526" opacity=".6"/><path fill="#F7921E" d="M167.122 30.727c0-1.385-1.09-1.879-2.199-1.254L50.787 95.157a4.93 4.93 0 0 0-2.203 3.812v9.986L167.122 40.7z"/><path fill="#F9B361" d="M167.122 30.727c0-1.385-1.09-1.879-2.199-1.254L50.787 95.157a4.93 4.93 0 0 0-2.203 3.812v9.986L167.122 40.7z"/><path fill="#A4A4A4" d="M48.584 98.969v105.805a1.48 1.48 0 0 0 .79 1.337l.091.063.116.068q.09.042.19.063a1.34 1.34 0 0 0 1.011-.175l.054-.034 2.097-1.211 24.478-14.132V79.789L50.773 95.162a4.84 4.84 0 0 0-2.19 3.807"/><path fill="#4E4E4E" d="M49.373 206.101a1 1 0 0 1-.073-.053 1.45 1.45 0 0 1-.683-1.245V98.969c.026-.77.251-1.52.654-2.175l-2.804-1.622a4.45 4.45 0 0 0-.673 2.203v105.317a2.31 2.31 0 0 0 1.157 2.029l2.32 1.341.112.063z"/><path fill="#393939" d="M46.467 95.172a4.9 4.9 0 0 0-.615 1.545q-.09.833-.048 1.67l.029 3.367.058 6.727.063 13.454.053 26.914-.053 26.909-.068 13.464-.111 13.455-.117-13.455-.063-13.459-.053-26.909.053-26.914.068-13.454.058-6.728.03-3.366a10 10 0 0 1 .077-1.68c.12-.547.337-1.069.64-1.54"/><path fill="#4E4E4E" d="M77.42 79.79 50.782 95.156a3.3 3.3 0 0 0-.445.31c-.445.372-.82.822-1.105 1.327l-2.765-1.623q.29-.492.678-.91l.199-.198q.29-.286.649-.485l26.676-15.397z"/><path fill="#FAFAFA" fill-opacity=".6" d="M161.555 37.9c0 1.733-1.302 3.874-2.905 4.814l-20.744 11.76c-1.598.924-2.906.27-2.906-1.454s1.298-3.874 2.906-4.814l20.744-11.76c1.603-.968 2.901-.304 2.905 1.454"/><path fill="#D5D5D5" d="M57.175 100.352a1 1 0 0 0 1.5.866l14.642-8.454a2 2 0 0 0 1-1.732v-2.716a1 1 0 0 0-1.5-.866l-14.642 8.454a2 2 0 0 0-1 1.732z"/><path fill="#FAFAFA" d="M53.999 97.902c1.283-.742 2.322-.141 2.322 1.338A5.14 5.14 0 0 1 54 103.266c-1.284.742-2.324.141-2.324-1.342A5.13 5.13 0 0 1 54 97.902"/><path fill="#D5D5D5" d="M50.175 165.363a1 1 0 0 0 1.5.866l24-13.858a1 1 0 0 0 .5-.866v-6.189a1 1 0 0 0-1.5-.866l-24 13.859a1 1 0 0 0-.5.866zM50.175 177.363a1 1 0 0 0 1.5.866l24-13.858a1 1 0 0 0 .5-.866v-6.189a1 1 0 0 0-1.5-.866l-24 13.859a1 1 0 0 0-.5.866zM50.175 153.363a1 1 0 0 0 1.5.866l24-13.858a1 1 0 0 0 .5-.866v-6.189a1 1 0 0 0-1.5-.866l-24 13.859a1 1 0 0 0-.5.866zM50.175 141.363a1 1 0 0 0 1.5.866l24-13.859c.31-.178.5-.508.5-.866v-6.188a1 1 0 0 0-1.5-.866l-24 13.858a1 1 0 0 0-.5.866z"/><path fill="#F7921E" d="m76.371 101.683-25.794 15.258a.946.946 0 0 0-.401.71v8.384a.9.9 0 0 0 .405.706l1.432.827a.9.9 0 0 0 .807 0l25.794-15.258a.953.953 0 0 0 .401-.71v-8.389a.9.9 0 0 0-.119-.403.9.9 0 0 0-.286-.302l-1.432-.828a.9.9 0 0 0-.807.005"/><path fill="#F9B361" d="M52.419 127.329v-8.388a.9.9 0 0 1 .117-.405.9.9 0 0 1 .284-.305l25.794-15.258c.219-.131.401 0 .401.238v8.384a.95.95 0 0 1-.4.71L52.82 127.563c-.224.131-.401.023-.401-.234"/><path fill="#000" d="M52.82 127.563a.9.9 0 0 1-.807 0l-1.432-.827a.906.906 0 0 1-.406-.706v-8.379a.85.85 0 0 1 .128-.416l2.234 1.304a.8.8 0 0 0-.119.402v8.388c0 .234.165.374.402.234" opacity=".2"/><path fill="#fff" d="M79.006 103.136c-.027-.205-.196-.28-.392-.163L52.82 118.23a.77.77 0 0 0-.282.309l-2.234-1.304a.84.84 0 0 1 .274-.294l25.799-15.258a.89.89 0 0 1 .802 0l1.431.822a.94.94 0 0 1 .397.631" opacity=".4"/><path fill="#E0E0E0" d="M84.684 178.473a.86.86 0 0 1-.436-.116 1.08 1.08 0 0 1-.484-.998v-8.902a2.9 2.9 0 0 1 1.346-2.325l75.114-43.308a.97.97 0 0 1 1.589.916v8.901a2.93 2.93 0 0 1-1.342 2.325l-75.118 43.308a1.35 1.35 0 0 1-.669.199m.669-11.914a2.44 2.44 0 0 0-1.095 1.898v8.902a.64.64 0 0 0 .233.576.64.64 0 0 0 .62-.087l75.113-43.308a2.46 2.46 0 0 0 1.1-1.899v-8.901a.65.65 0 0 0-.233-.577.63.63 0 0 0-.62.087z"/><path fill="#F9B361" d="m155.318 129.648-8.553 4.941a1.68 1.68 0 0 0-.765 1.327v2.363c0 .484.343.688.765.446l8.553-4.94a1.683 1.683 0 0 0 .77-1.327v-2.364c0-.489-.344-.688-.77-.446"/><path fill="#EBEBEB" d="M134.444 145.142v-2.141l-3.1 1.744a2.34 2.34 0 0 0-1.153 1.738c0 .591.519.77 1.153.402zM142.934 138.158a1.5 1.5 0 0 0-.446.179l-8.044 4.664v2.141l8.044-4.688c.327-.197.606-.465.814-.785q.154-.226.247-.484.087-.234.092-.485a.545.545 0 0 0-.449-.56.54.54 0 0 0-.258.018"/><path fill="#E0E0E0" d="M87.556 168.917a.24.24 0 0 1-.228-.338.24.24 0 0 1 .107-.117l37.971-21.925a.24.24 0 0 1 .185-.026q.047.012.086.042a.241.241 0 0 1 .089.256.239.239 0 0 1-.113.149l-37.976 21.926a.22.22 0 0 1-.12.033M87.556 171.213a.243.243 0 0 1-.121-.455l37.971-21.926a.25.25 0 0 1 .187-.024q.047.012.085.043.04.03.062.073a.25.25 0 0 1 .025.185.25.25 0 0 1-.112.149l-37.976 21.921a.23.23 0 0 1-.12.034M87.556 173.509a.243.243 0 0 1-.121-.456l37.971-21.944a.25.25 0 0 1 .185-.021.25.25 0 0 1 .149.113.25.25 0 0 1 .025.185.25.25 0 0 1-.112.149L87.677 173.48a.3.3 0 0 1-.12.029M84.684 160.473a.86.86 0 0 1-.436-.116 1.08 1.08 0 0 1-.484-.998v-8.902a2.9 2.9 0 0 1 1.346-2.325l75.114-43.308a.97.97 0 0 1 1.589.916v8.901a2.93 2.93 0 0 1-1.342 2.325l-75.118 43.308a1.35 1.35 0 0 1-.669.199m.669-11.914a2.44 2.44 0 0 0-1.095 1.898v8.902a.64.64 0 0 0 .233.576.64.64 0 0 0 .62-.087l75.113-43.308a2.46 2.46 0 0 0 1.1-1.899v-8.901a.65.65 0 0 0-.233-.577.63.63 0 0 0-.62.087z"/><path fill="#F9B361" d="m155.318 111.648-8.553 4.941a1.68 1.68 0 0 0-.765 1.327v2.363c0 .484.343.688.765.446l8.553-4.94a1.683 1.683 0 0 0 .77-1.327v-2.364c0-.489-.344-.688-.77-.446"/><path fill="#EBEBEB" d="M134.444 127.142v-2.141l-3.1 1.744a2.34 2.34 0 0 0-1.153 1.738c0 .591.519.77 1.153.402zM142.934 120.158a1.5 1.5 0 0 0-.446.179l-8.044 4.664v2.141l8.044-4.688c.327-.197.606-.465.814-.785q.154-.226.247-.484.087-.234.092-.485a.545.545 0 0 0-.449-.56.54.54 0 0 0-.258.018"/><path fill="#E0E0E0" d="M87.556 150.917a.24.24 0 0 1-.228-.338.24.24 0 0 1 .107-.117l37.971-21.925a.24.24 0 0 1 .185-.026q.047.012.086.042a.241.241 0 0 1 .089.256.239.239 0 0 1-.113.149l-37.976 21.926a.22.22 0 0 1-.12.033M87.556 153.213a.243.243 0 0 1-.121-.455l37.971-21.926a.24.24 0 0 1 .334.092.25.25 0 0 1-.087.335l-37.976 21.92a.23.23 0 0 1-.12.034M87.556 155.509a.243.243 0 0 1-.121-.456l37.971-21.944a.25.25 0 0 1 .185-.021.25.25 0 0 1 .149.113.25.25 0 0 1 .025.185.25.25 0 0 1-.112.149L87.677 155.48a.3.3 0 0 1-.12.029M84.684 141.95a.86.86 0 0 1-.436-.116 1.08 1.08 0 0 1-.484-.998v-8.902a2.9 2.9 0 0 1 1.346-2.324l75.114-43.309a.968.968 0 0 1 1.589.916v8.901a2.93 2.93 0 0 1-1.342 2.325l-75.118 43.309a1.36 1.36 0 0 1-.669.198m.669-11.914a2.45 2.45 0 0 0-1.095 1.898v8.902a.64.64 0 0 0 .233.577.64.64 0 0 0 .62-.088l75.113-43.308a2.46 2.46 0 0 0 1.1-1.899v-8.901a.65.65 0 0 0-.233-.577.63.63 0 0 0-.62.088z"/><path fill="#F9B361" d="m155.318 93.126-8.553 4.94a1.7 1.7 0 0 0-.765 1.327v2.363c0 .484.343.688.765.446l8.553-4.94a1.69 1.69 0 0 0 .77-1.327V93.57c0-.49-.344-.688-.77-.445"/><path fill="#EBEBEB" d="M134.444 108.619v-2.141l-3.1 1.744a2.34 2.34 0 0 0-1.153 1.738c0 .591.519.771 1.153.402zM142.934 101.635a1.5 1.5 0 0 0-.446.179l-8.044 4.664v2.141l8.044-4.688c.327-.197.606-.465.814-.785q.154-.226.247-.484.087-.234.092-.485a.545.545 0 0 0-.449-.56.54.54 0 0 0-.258.018"/><path fill="#E0E0E0" d="M87.556 132.394a.24.24 0 0 1-.228-.338.24.24 0 0 1 .107-.117l37.971-21.925a.24.24 0 0 1 .185-.026q.047.012.086.042a.241.241 0 0 1 .089.256.2.2 0 0 1-.042.086.2.2 0 0 1-.071.063l-37.976 21.926a.22.22 0 0 1-.12.033M87.556 134.69a.243.243 0 0 1-.121-.455l37.971-21.926a.24.24 0 0 1 .334.092.25.25 0 0 1 .025.185.25.25 0 0 1-.112.15l-37.976 21.92a.23.23 0 0 1-.12.034M87.556 136.986a.243.243 0 0 1-.121-.456l37.971-21.944a.25.25 0 0 1 .334.092.25.25 0 0 1 .025.185.25.25 0 0 1-.112.149l-37.976 21.945a.3.3 0 0 1-.12.029"/><path fill="#000" d="M97.805 105.083V91.567a1.5 1.5 0 0 1 .664-1.153l42.649-24.61c.369-.212.663 0 .663.384V79.71a1.46 1.46 0 0 1-.663 1.146l-42.65 24.641c-.361.181-.663 0-.663-.414" opacity=".15"/><path fill="#F7921E" d="m143.424 67.145-42.649 24.611a1.51 1.51 0 0 0-.663 1.146v13.523a1.44 1.44 0 0 0 .671 1.138l2.367 1.334a1.5 1.5 0 0 0 1.334 0l42.649-24.61a1.51 1.51 0 0 0 .663-1.147V69.61a1.44 1.44 0 0 0-.671-1.138l-2.367-1.334a1.5 1.5 0 0 0-1.334.007"/><path fill="#F7921E" d="M103.821 108.512v-13.53a1.46 1.46 0 0 1 .663-1.146l42.649-24.61c.362-.212.663 0 .663.384v13.522a1.5 1.5 0 0 1-.663 1.146l-42.649 24.611c-.369.211-.663.038-.663-.377"/><path fill="#000" d="M104.484 108.889a1.5 1.5 0 0 1-1.334 0l-2.367-1.334a1.44 1.44 0 0 1-.671-1.138V92.902c.01-.239.082-.47.211-.671l3.693 2.103a1.25 1.25 0 0 0-.196.648v13.53c0 .377.272.603.664.377" opacity=".2"/><path fill="#fff" d="M147.781 69.49c-.045-.333-.324-.453-.648-.265l-42.649 24.611a1.25 1.25 0 0 0-.468.498l-3.693-2.103a1.4 1.4 0 0 1 .452-.475l42.657-24.611a1.5 1.5 0 0 1 1.326 0l2.367 1.327a1.5 1.5 0 0 1 .656 1.017" opacity=".4"/><path fill="#fff" d="M109.964 97.206v1.816l1.183-.678c.128-.076.189 0 .189.37v.075c0 .339-.061.512-.189.587l-1.183.686v1.794a.5.5 0 0 1-.309.475l-.083.053c-.219.128-.302.091-.302-.128v-1.794l-1.176.678c-.135.076-.188 0-.188-.361v-.076c0-.332.053-.528.188-.603l1.176-.678v-1.817a.5.5 0 0 1 .302-.467l.083-.046c.218-.12.309-.082.309.114M116.13 90.972l1.643 6.294a.7.7 0 0 1 0 .166c0 .135-.105.286-.347.422l-.188.105c-.196.113-.339.136-.369 0l-.34-1.334-1.862 1.078-.331 1.719a.6.6 0 0 1-.324.4l-.204.112c-.264.159-.392.151-.392 0a2 2 0 0 1 0-.21l1.643-8.172a.7.7 0 0 1 .37-.43l.309-.18c.211-.076.354-.106.392.03m-.535 1.794c0 .248-.061.505-.106.754l-.558 2.796 1.327-.754-.543-2.163c-.045-.196-.068-.422-.098-.633zM121.421 87.452v6.234q-.006.757.091 1.507c0 .242-.513.618-.664.701-.15.083-.226-.331-.271-.61a2.73 2.73 0 0 1-1.04 1.44c-.814.467-1.38-.347-1.38-2.209s.573-3.324 1.508-3.86a.79.79 0 0 1 .844-.067v-2.6a.641.641 0 0 1 .385-.535l.135-.076c.279-.174.392-.128.392.075m-2.336 6.483c0 1.213.233 1.748.693 1.507.361-.29.624-.685.754-1.13V91.62a.66.66 0 0 0-.656.052c-.543.294-.791 1.078-.791 2.262M125.529 85.085v6.234q-.007.756.083 1.507c0 .249-.512.618-.656.701-.143.083-.233-.331-.279-.61a2.7 2.7 0 0 1-1.04 1.44c-.814.474-1.372-.347-1.372-2.21 0-1.861.573-3.316 1.508-3.859a.81.81 0 0 1 .844-.067v-2.6a.62.62 0 0 1 .385-.529l.143-.082c.256-.174.384-.129.384.075m-2.344 6.482c0 1.222.241 1.75.693 1.508.362-.29.625-.685.754-1.13V89.26a.64.64 0 0 0-.648.053c-.55.294-.807 1.108-.807 2.253zM131.642 82.304v.279c0 .339-.052.52-.188.595l-1.229.709v6.279a.63.63 0 0 1-.384.535l-.181.105c-.271.159-.384.113-.384-.09v-6.28l-1.244.717c-.128.075-.189 0-.189-.37v-.278c0-.34.061-.513.189-.588l3.422-1.983c.106-.075.188.038.188.37M135.17 83.51v2.261q-.007.756.083 1.508c0 .249-.505.618-.656.7-.15.084-.233-.33-.279-.61a3.1 3.1 0 0 1-1.123 1.508c-.753.43-1.13 0-1.13-.988 0-1.274.625-2.42 2.193-3.331v-.43c0-.445-.173-.648-.641-.37a4.2 4.2 0 0 0-1.002.973c-.136.083-.332-.384-.332-.573 0-.347.603-1.093 1.372-1.545 1.055-.656 1.515-.196 1.515.897m-2.193 3.663c0 .4.151.558.46.385.397-.303.686-.726.821-1.206v-.867c-.708.414-1.281.927-1.281 1.688M138.344 80.449a2.05 2.05 0 0 1-.287.942 1.1 1.1 0 0 0-.633.113.9.9 0 0 0-.482.754c0 .505.331.475.753.498.536 0 .83.226.83 1.16a3.07 3.07 0 0 1-1.38 2.639c-.58.331-1.183.346-1.183-.053.028-.338.145-.663.339-.942.09-.053.347.158.754-.098a1.01 1.01 0 0 0 .52-.928c0-.444-.257-.467-.664-.452s-.889-.143-.889-1.16a2.85 2.85 0 0 1 1.274-2.488c.437-.234 1.048-.377 1.048.015M140.138 76.643v4.635l1.062-2.819a.8.8 0 0 1 .415-.43l.181-.105c.241-.136.362-.136.362-.053a.7.7 0 0 1-.076.264l-1.13 2.955 1.296 2.073a.3.3 0 0 1 .06.18c0 .114-.12.234-.376.385l-.204.113c-.196.113-.354.173-.422.06l-1.168-1.922v2.465a.625.625 0 0 1-.385.535l-.136.076c-.271.158-.384.113-.384-.09V77.17a.62.62 0 0 1 .384-.535l.136-.083c.272-.15.385-.106.385.09"/><path fill="#FFA8A7" d="M188.825 184.992c.067-2.187-.311-19.956-.311-19.956l8.669 5.397c-1.378 9.749-2.507 14.341-2.667 16.03q-.045.17-.063.343c-.026 1.929-2.347 2.947-4.156 4.218a34.3 34.3 0 0 1-4.89 2.948c-1.334.609-3.97.635-4.29-.16 2.223-1.556 4.761-3.254 6.521-5.041.845-.854 1.13-1.748 1.187-3.779"/><path fill="#393939" d="M177.369 195.852c-.111 0-.293 1.165.312 1.667.697.583 2.751 1.543 5.485 1.24s4.219-1.089 5.335-1.942c1.116-.854 2.645-2.054 3.881-2.299 1.151-.231 2.4-.706 2.774-1.04.373-.333.333-1.818.333-1.818z"/><path fill="#4E4E4E" d="M194.605 185.943s.186 0 .253.329.156 1.605.329 2.281c.269 1.186.346 2.408.227 3.618-.156.76-2.032 1.272-3.232 1.69a15.5 15.5 0 0 0-3.899 2.271 11.63 11.63 0 0 1-5.779 1.965c-2.716 0-4.468-.702-5.001-1.627-.658-1.151-.125-1.805 3.014-3.138.591-.254 2.667-1.392 3.392-1.805a10.37 10.37 0 0 0 4.41-4.637 1.13 1.13 0 0 1 .444-.609c.194-.076.406-.093.609-.049a8 8 0 0 1 1.832.391c.418.191 1.009.418.991.925a1.6 1.6 0 0 1-.12.516c-.04.102-.071.24 0 .302s.213 0 .293-.076q.466-.438.854-.947.223-.25.498-.444a6 6 0 0 0 .538-.325c.189-.16.313-.385.347-.631"/><path fill="#FAFAFA" d="M180.01 193.549c3.93.298 5.139 2.601 5.29 4.023a9.7 9.7 0 0 1-2.796.525c-2.716 0-4.579-.702-5.112-1.627-.618-1.085-.178-1.947 2.618-2.921"/><path fill="#F0F0F0" d="M185.905 193.647a.2.2 0 0 0 .168-.092.172.172 0 0 0-.017-.201 4.75 4.75 0 0 0-3.557-1.361.2.2 0 0 0-.07.018.2.2 0 0 0-.094.106.2.2 0 0 0-.009.072q.004.037.022.07a.19.19 0 0 0 .114.089.2.2 0 0 0 .073.006 4.4 4.4 0 0 1 3.201 1.227.2.2 0 0 0 .169.066M187.594 192.731a.2.2 0 0 0 .168-.092.17.17 0 0 0-.017-.201 4.75 4.75 0 0 0-3.556-1.36.18.18 0 0 0-.186.2q.005.039.023.073a.2.2 0 0 0 .052.057.2.2 0 0 0 .07.03.2.2 0 0 0 .076 0 4.44 4.44 0 0 1 3.205 1.227.2.2 0 0 0 .074.054q.044.018.091.012M189.185 191.682a.18.18 0 0 0 .125-.04.17.17 0 0 0 .069-.12.2.2 0 0 0-.005-.07.2.2 0 0 0-.033-.063 4.77 4.77 0 0 0-3.556-1.36.178.178 0 0 0-.127.064.2.2 0 0 0-.035.063q-.011.036-.007.073a.186.186 0 0 0 .209.16 4.4 4.4 0 0 1 3.2 1.227q.03.034.072.052a.2.2 0 0 0 .088.014M190.737 190.633a.2.2 0 0 0 .12-.035.174.174 0 0 0 .031-.254c-.742-.889-2.436-1.516-3.863-1.382a.2.2 0 0 0-.07.017.2.2 0 0 0-.058.044.177.177 0 0 0-.045.134.19.19 0 0 0 .209.165c1.284-.12 2.867.444 3.525 1.244a.196.196 0 0 0 .151.067"/><path fill="#FFA8A7" d="m207.265 175.545 8.304-.929c.445 5.255.169 11.163.552 16.102.071.929.791 7.197.622 9.14-.249 2.916-3.89 2.871-4.263 1.173-.374-1.698-1.276-9.1-1.369-9.855-.303-3.161-1.89-8.3-3.317-13.888-.066-.276-.462-1.472-.529-1.743"/><path fill="#393939" d="M211.253 202.351c.102 1.694.382 2.814 1.014 3.806.631.991 1.835 1.302 3.045 1.013s2.769-1.067 3.112-2.525a8.8 8.8 0 0 0 0-4.027z"/><path fill="#4E4E4E" d="M216.076 190.113c.503.036.649 2.307.938 4.579.307 2.436 1.076 3.445 1.334 5.441.316 2.281.191 3.303-.658 4.681s-3.841 2.734-5.335.756c-1.204-1.609-1.253-3.396-1.142-5.677a48 48 0 0 0-.16-5.779c-.098-1.712-.498-3.432-.067-3.623.036.249.067.569.102.813.036.245.08 1.116.356 1.125q.03-.322 0-.644a.75.75 0 0 1 .138-.552.95.95 0 0 1 .551-.231c.494-.093 1.534-.133 2.036-.178a9 9 0 0 1 .747-.031q.324-.005.636.085a.43.43 0 0 1 .266.235q.04.126.027.258.002.24.062.471c0 .067.071.147.143.134.071-.014.08-.085.08-.138 0-.276-.036-.476-.049-.796 0-.151-.031-.351-.036-.502s.045-.28.031-.427"/><path fill="#FAFAFA" d="M218.504 201.454c.088 1.418 0 2.387-.658 3.467-.849 1.383-4.086 2.738-5.562.765-.733-.983-.929-2.147-1.031-3.334.885-1.521 5.859-2.192 7.251-.898"/><path fill="#F0F0F0" d="M212.533 199.871a.2.2 0 0 0 .062 0 7.7 7.7 0 0 1 4.313-.418c.047.01.096.001.137-.023a.2.2 0 0 0 .085-.11.178.178 0 0 0-.142-.209 8 8 0 0 0-4.553.444.2.2 0 0 0-.057.04.2.2 0 0 0-.038.059.2.2 0 0 0-.011.069.2.2 0 0 0 .018.068.19.19 0 0 0 .186.08M216.783 197.733a.2.2 0 0 0 .097-.035.17.17 0 0 0 .063-.081.176.176 0 0 0-.115-.222c-2.223-.716-4.446.36-4.548.404a.2.2 0 0 0-.057.041.174.174 0 0 0-.023.195.195.195 0 0 0 .249.075s2.174-1.053 4.259-.386q.036.014.075.009M216.654 196.132a.2.2 0 0 0 .094-.036.2.2 0 0 0 .062-.079.168.168 0 0 0-.007-.138.2.2 0 0 0-.043-.055.2.2 0 0 0-.061-.034 6.017 6.017 0 0 0-4.655.405.2.2 0 0 0-.053.044.178.178 0 0 0-.034.131.2.2 0 0 0 .025.065.2.2 0 0 0 .116.077c.046.01.095.003.137-.02a5.74 5.74 0 0 1 4.321-.364.17.17 0 0 0 .098.004"/><path fill="#EBEBEB" d="M216.49 194.327a.2.2 0 0 0 .093-.034.2.2 0 0 0 .062-.077.176.176 0 0 0-.106-.226c-2.312-.818-4.579.391-4.673.444a.2.2 0 0 0-.054.044.16.16 0 0 0-.036.131.183.183 0 0 0 .135.148.18.18 0 0 0 .138-.016s2.222-1.178 4.356-.418a.2.2 0 0 0 .085.004"/><path fill="#4E4E4E" d="M209.319 116.86c.092.699.368 1.36.8 1.916 2.201 3.085 3.917 6.05 4.095 11.647.444 13.844.097 28.185.097 28.185.094 1.218 1.13 3.383 1.601 9.709.413 5.534.266 13.118.266 13.118s-4.023 1.885-7.477.561c-1.373-4.499-4.236-16.178-5.735-22.206-1.364-5.468-2.267-13.514-2.267-13.514l-2.396 11.154a32.3 32.3 0 0 1-.089 7.206c-.444 3.707-2.142 14.323-2.142 14.323s-4.419 1.298-7.389-.782c0 0-.747-18.498-.778-22.979-.058-8.34 0-25.406 2.561-36.057q.149-1.237.164-2.481c2.908 2.427 14.786 2.796 18.689.2"/><path fill="#EBEBEB" d="M204.687 120.777a.16.16 0 0 1 .196.115c.16.645.284 1.223.404 1.778.445 2.023.738 3.486 2.272 5.055a5.36 5.36 0 0 0 3.85 1.529c-.658-4.143-2.059-7.45-4.29-10.18a.2.2 0 0 1-.028-.053.141.141 0 0 1 .017-.117.14.14 0 0 1 .042-.043.16.16 0 0 1 .226.026c2.294 2.81 3.721 6.224 4.379 10.474v.022a38.5 38.5 0 0 1 .423 5.144c.142 7.784.355 19.56.475 22.64.116 1.658.414 3.298.889 4.891.409 1.564.867 3.343 1.276 5.779.889 5.259.445 13.896.445 13.985a.16.16 0 0 1-.05.106.16.16 0 0 1-.11.041.16.16 0 0 1-.112-.047.16.16 0 0 1-.044-.113c0-.085.445-8.696-.422-13.923-.409-2.419-.867-4.188-1.272-5.748a22.5 22.5 0 0 1-.911-4.971c-.12-3.111-.333-14.861-.48-22.645a38 38 0 0 0-.396-4.983h-.169a5.6 5.6 0 0 1-3.969-1.632c-1.592-1.631-1.912-3.112-2.352-5.205-.12-.556-.24-1.134-.4-1.779a.15.15 0 0 1 .031-.091.15.15 0 0 1 .08-.055"/><path fill="#393939" d="M216.201 179.746c-1.183 1.111-6.135 1.703-7.949.725l.76 2.965s1.178.733 3.81.493c3.054-.275 3.379-1.249 3.379-1.249zM196.329 177.346c-1.569.52-6.006.2-7.717-.863l.076 2.476s.96.925 3.587 1.205 3.699-.445 3.699-.445zM200.699 146.276l-1.72-13.652a8.64 8.64 0 0 1-6.9-3.33s-.115 3.419 5.499 4.988l2.059 12.567-1.334 10.563z"/><path fill="#4E4E4E" d="M190.781 85.56v-3.3c-3.147-6.89 2.339-10.3 9.758-10.3 5.455 0 9.994 3.93 9.994 9.336v32.132h-19.752z"/><path fill="#FFA8A7" d="M190.026 96.944c-1.627 1.979-6.7 9.892-8.029 12.248l-7.331-6.753c-.582-.862-.444-2.556-1.431-4.245-1.085-1.872-.445-3.584-1.334-3.41a1.3 1.3 0 0 0-.862 1.21c-.067 1.026.32 2.355-.08 2.244-.591-.258-.996-.978-1.729-2.063-.307-.444-.974-2.222-1.334-3a.67.67 0 0 0-.543-.448.67.67 0 0 0-.644.283c-.133.227-.249.765-.378.978q-.215.26-.498.445-.286.17-.515.413c-.369.49-.103 1.08-.272 1.623a4.76 4.76 0 0 0 .423 3.325c.213.445.418.947.644 1.396a9.6 9.6 0 0 0 1.987 2.494c.689.667 1.547 1.067 2.223 1.778s2.525 3.21 3.939 4.988c2.347 2.947 4.401 5.668 5.17 6.246 1.894 1.427 3.716 1.778 6.09-.605 2.85-2.845 8.3-10.224 8.3-10.224l1.849-10.599s-3.703-.689-5.645 1.676"/><path fill="#FCCA91" d="M195.898 95.237c-2.285-.52-4.272-.23-5.841 1.303s-6.135 9.246-6.78 9.913c-.644.667-1.209.934-1.333 1.543a.98.98 0 0 0 .209.889c1.071.249 4.076 5.988 2.667 7.757l-.618.445a1.15 1.15 0 0 0 1.463.107c.831-.543 1.898-2.223 3.085-3.686 1.187-1.462 6.295-7.384 6.295-7.384z"/><path fill="#393939" d="m182.17 108.889-.444.072s1.333 1.667 1.507 4.783c.098 1.711-.307 3.654-.836 4.081 0 0 .494.227 1.374-.294q.719-.413 1.365-.933a5.82 5.82 0 0 0-.147-4.112c-.894-2.374-1.983-3.281-2.819-3.597"/><path fill="#FAFAFA" d="m202.958 92.77 6.246 1.943c1.071.369 5.125 2.84 3.707 8.94a317 317 0 0 0-1.68 7.677c-.445 2.161 1.178 6.326 2.485 12.954 0 0-5.362 4.259-16.004 3.059-8.122-.921-9.002-3.961-9.002-3.961.227-7.558.889-10.483.889-13.337a6.9 6.9 0 0 1-1.24-4.001c-.054-2.694.658-4.143 3.071-7.201a52 52 0 0 1 4.446-4.926z"/><path fill="#F9B361" d="M191.408 102.172c-1.88 4.281-.609 28.687-.778 26.86 0 0-3.498-1.334-3.827-2.525 0-4.397.813-13.225.862-16.244.058-3.472 0-5.984 1.143-8.113 1.142-2.129 5.361-7.362 7.041-8.269-1.734 1.507-3.73 5.726-4.441 8.291"/><path fill="#393939" d="M198.263 94.126c-1.182.813-6.473 4.445-7.526 11.527 0-3.112 1.178-6.944 2.294-8.758 1.356-2.222 3.165-4.272 5.188-4.89z"/><path fill="#F9B361" d="M205.349 92.841c.053.473.053.95 0 1.423-.058 1.333-2.156 11.354-2.191 16.164a156 156 0 0 0 1.164 19.351s7.753.702 10.607-3.152a54.4 54.4 0 0 1-2.627-10.1c-.569-3.472 1.743-11.959 1.142-16.982-.249-2.098-1.044-4.197-2.618-4.69-1.298-.404-2.432-.738-2.432-.738z"/><path fill="#FFA8A7" d="M193.075 77.13c-.524 1.059-1.778 2.668-1.582 8.545.151 4.597 1.751 5.601 3.258 6.188.743.285 1.876.28 3.454.111l.04 2.152s-2.863 2.64-1.956 7.944c8.891-3.712 9.007-8.233 9.007-8.233l.244-7.184c.289.471 1.699 1.102 2.805-.311 1.307-1.667 1.014-3.654-.146-4.388-1.161-.733-2.574-.035-3.112 1.334-1.249.52-2.245-.614-2.165-5.45-2.827-1.494-6.664-2.41-9.847-.707"/><path fill="#393939" d="M205.407 90.61c.591-.027.725 1.19 1.512 2.085q.674.777 1.475 1.422c-.724 4.414-4.201 9.918-5.192 15.115-.04-4.197 1.089-10.745 2.156-17.155z"/><path fill="#4E4E4E" d="M193.044 75.722c-.542 2.12.196 5.588 3.232 6.641-.662-1.334-.64-3.836-.64-3.836s1.698 5.499 8.295 4l.262-5.552c-3-2.094-7.646-3.636-11.149-1.253"/><path fill="#F7921E" d="M207.652 85.706a.656.656 0 0 1-.684.752.66.66 0 0 1-.587-.436.66.66 0 0 1 .179-.709.654.654 0 0 1 .834-.04.66.66 0 0 1 .258.433"/><path fill="#F28F8F" d="M198.205 91.974c3.868-.835 6.037-2.405 6.433-3.97 0 0-.245 2.045-1.334 2.948-1.52 1.267-5.076 2.09-5.076 2.09z"/><path fill="#B16668" d="m196.16 87.929 2.694-.996a1.38 1.38 0 0 1 .003 1.088 1.37 1.37 0 0 1-.794.744 1.52 1.52 0 0 1-1.903-.836"/><path fill="#FFA8A7" d="M197.45 88.845a1.5 1.5 0 0 0 .613-.08 1.35 1.35 0 0 0 .889-1.156 1.65 1.65 0 0 0-1.502 1.236"/><path fill="#263238" d="M199.761 83.301a.79.79 0 0 1-.48.726.781.781 0 0 1-.737-1.372.78.78 0 0 1 .734-.074.78.78 0 0 1 .483.72M194.262 83.034a.78.78 0 0 1-.929.778.78.78 0 0 1-.62-.613.78.78 0 0 1 .767-.938.78.78 0 0 1 .782.773"/><path fill="#F28F8F" d="m196.818 81.576-.418 5.237-2.489-.987z"/><path fill="#263238" d="m192.244 81.754 1.778-.622a.89.89 0 0 0-1.178-.596.99.99 0 0 0-.6 1.218M200.486 82.02l-1.778-.76a.918.918 0 0 1 .872-.593.994.994 0 0 1 .906 1.353"/><path fill="#F28F8F" d="M215.312 132.997c1.267.36 2.889-1.213 3.334-1.778.444-.564-.129-1.849-.396-2.947s0-2.961-1.36-2.441-4.219 4.206-1.578 7.166"/><path fill="#FFA8A7" d="M211.075 95.135c4.108.858 4.517.734 6.455 4.637 2.263 4.543 5.463 11.967 6.273 13.692s1.587 3.001-.583 5.668c-1.942 2.378-7.664 9.224-8.513 10.225-.751.866.089 3.423 2.667 3.049 0 0-1.965 1.738-3.04 1.547-.934-.169-2.396-.982-3.743-3.805-.845-1.778-.138-3.183 1.151-5.166 1.543-2.369 4.868-8.975 4.868-8.975l-6.064-11.688s-2.476-6.05.529-9.184"/><path fill="#FCCA91" d="M210.826 94.837c1.009.254 2.756.445 3.619.823.862.377 1.551.702 2.863 3.16 1.311 2.459 5.223 10.376 5.73 11.345s1.556 2.125 1.591 2.903a.906.906 0 0 1-.551.969l-.275-.591s-1.374-.978-3.73-.031a8.05 8.05 0 0 0-3.459 2.556l-.342.671a.9.9 0 0 1-.404-.041.954.954 0 0 1-.663-.932c-.125-1.107-.471-2.001-1.489-3.841s-2.948-5.779-3.632-7.153-2.187-6.392.742-9.838"/><path fill="#393939" d="m216.614 115.989-.342.671a12 12 0 0 1 5.552-1.894c2.383-.186 2.779.752 2.779.752s.075-.854-.783-2.054c-1.36-1.347-5.517-.378-7.206 2.525"/><path fill="#FFA8A7" d="m168.852 182.591-7.487 15.182a.515.515 0 0 1-.533.289.525.525 0 0 1-.445-.414l-3.365-16.679z"/><path fill="#F7921E" d="M160.37 197.648a.53.53 0 0 0 .155.279.525.525 0 0 0 .602.076.52.52 0 0 0 .221-.23l1.462-2.961a2.89 2.89 0 0 1-2.943-.538l-.217-.191z"/><path fill="#000" d="M160.37 197.648a.53.53 0 0 0 .155.279.525.525 0 0 0 .602.076.52.52 0 0 0 .221-.23l1.462-2.961a2.89 2.89 0 0 1-2.943-.538l-.217-.191z" opacity=".2"/><path fill="#F7921E" d="m170.088 81.012-.205 1.551-.249 1.872L157 180.969a7.6 7.6 0 0 0 4.699 2.96c2.832.658 5.895.094 7.148-1.333l12.621-96.494.445-3.583c-.409 2.298-12.23.804-11.825-1.507"/><path fill="#fff" d="m170.088 81.012-.205 1.551-.249 1.872L157 180.969a7.6 7.6 0 0 0 4.699 2.96c2.832.658 5.895.094 7.148-1.333l12.621-96.494.445-3.583c-.409 2.298-12.23.804-11.825-1.507" opacity=".5"/><path fill="#EBEBEB" d="m169.296 86.915-.444 3.468c-.165 1.005 1.911 1.925 4.374 2.463 3.267.729 7.273.329 7.495-.996l.334-2.556.102-.916c-.218 1.334-4.228 1.73-7.495 1-2.361-.52-4.37-1.4-4.37-2.352a.2.2 0 0 1 .004-.11"/><path fill="#F7921E" d="M169.194 87.782c-.387 2.325 11.478 3.788 11.861 1.463l.444-3.468c-.382 2.32-12.243.863-11.861-1.462z"/><path fill="#EBEBEB" d="m170.088 81.012-.445 3.423c-.396 2.28 11.038 3.783 11.834 1.662a.4.4 0 0 0 .04-.128l.444-3.455c-.457 2.303-12.278.81-11.873-1.502"/><path fill="#000" d="m181.468 86.097.445-3.583c-.192 1.04-2.712 1.516-5.411 1.276l-13.1 100.402-2.037 13.581 7.504-15.182z" opacity=".1"/><path fill="#F28F8F" d="M183.873 67.689a1 1 0 0 0 .027-.116c.195-1.507-2.303-3.063-5.579-3.472-3.277-.409-6.073.471-6.286 1.974l-1.961 14.932c-.169.992 1.881 1.912 4.321 2.463 3.263.738 7.286.36 7.531-.96l1.911-14.586v-.195z"/><path fill="#000" d="m179.023 64.208-2.498 19.582c2.667.218 5.219-.236 5.41-1.276l1.911-14.585v-.227a1 1 0 0 0 .027-.116c.209-1.409-1.929-2.845-4.85-3.378" opacity=".1"/><path fill="#F7D0CF" d="M183.9 67.573c-.191 1.507-3.001 2.392-6.273 1.983-3.272-.41-5.779-1.97-5.583-3.472s3.005-2.396 6.277-1.983c3.271.413 5.774 1.965 5.579 3.472"/></svg>