<svg width="256" height="256" viewBox="0 0 256 256" fill="none" xmlns="http://www.w3.org/2000/svg">
<path d="M46.5595 217.387C24.0863 205.62 13.0007 190.272 13 175.055C12.9993 159.838 24.0837 144.487 46.5595 132.714C69.0237 120.947 98.4995 115.051 128.002 115.051C157.505 115.051 186.979 120.947 209.441 132.714C231.914 144.487 242.999 159.836 243 175.051C243.001 190.266 231.917 205.615 209.441 217.387C186.976 229.154 157.502 235.051 128 235.051C98.4981 235.051 69.0237 229.154 46.5595 217.387Z" stroke="#D5D5D5" style="stroke:#D5D5D5;stroke:color(display-p3 0.8353 0.8353 0.8353);stroke-opacity:1;"/>
<path d="M60.9587 118.037V207.018L152.033 154.435V73.5444L84.3111 112.641L81.9763 105.903L60.9587 118.037Z" fill="#F7921E" style="fill:#F7921E;fill:color(display-p3 0.9686 0.5725 0.1176);fill-opacity:1;"/>
<g opacity="0.1">
<path d="M60.9587 118.037V207.018L152.033 154.435V73.5444L84.3111 112.641L81.9763 105.903L60.9587 118.037Z" fill="black" style="fill:black;fill-opacity:1;"/>
</g>
<path d="M94.0339 175.95C93.7528 175.76 93.5205 175.507 93.3559 175.211C93.1912 174.914 93.099 174.583 93.0867 174.245V63.2277C93.1069 62.8771 93.2103 62.5363 93.3884 62.2336C93.5664 61.9309 93.814 61.6749 94.1107 61.4869L163.804 21.2386C164.095 21.0559 164.43 20.956 164.774 20.9495C165.117 20.9431 165.456 21.0304 165.753 21.2021C166.051 21.3737 166.296 21.6232 166.462 21.9238C166.628 22.2243 166.709 22.5645 166.697 22.9077V133.914C166.676 134.265 166.572 134.605 166.394 134.908C166.216 135.21 165.969 135.467 165.673 135.655L95.9846 175.898C95.6865 176.06 95.3544 176.149 95.0154 176.158C94.6763 176.167 94.34 176.096 94.0339 175.95Z" fill="#EBEBEB" style="fill:#EBEBEB;fill:color(display-p3 0.9216 0.9216 0.9216);fill-opacity:1;"/>
<path d="M94.9759 65.3576L123.284 46.8335L121.4 45.748L94.0953 61.5125C93.7987 61.7006 93.5511 61.9565 93.373 62.2592C93.1949 62.5619 93.0915 62.9027 93.0713 63.2533V64.2773L94.9759 65.3576Z" fill="#EBEBEB" style="fill:#EBEBEB;fill:color(display-p3 0.9216 0.9216 0.9216);fill-opacity:1;"/>
<path d="M104.412 68.6037L93.3837 62.2344C93.2011 62.5345 93.0989 62.8766 93.0867 63.2277V174.229C93.0741 174.573 93.1554 174.913 93.3217 175.213C93.488 175.514 93.733 175.763 94.0305 175.935C94.328 176.107 94.6667 176.194 95.0101 176.187C95.3535 176.181 95.6887 176.081 95.9795 175.898L104.412 171.034V68.6037Z" fill="#E0E0E0" style="fill:#E0E0E0;fill:color(display-p3 0.8784 0.8784 0.8784);fill-opacity:1;"/>
<path d="M95.9847 175.899L165.688 135.655C165.984 135.467 166.232 135.211 166.41 134.908C166.588 134.605 166.691 134.265 166.712 133.915V22.9078C166.712 22.2678 166.262 22.0067 165.688 22.3293L95.9796 62.5725C95.6834 62.7622 95.4363 63.0193 95.2583 63.3227C95.0804 63.6261 94.9766 63.9673 94.9556 64.3184V175.32C94.976 175.95 95.4266 176.221 95.9847 175.899Z" fill="#E6E6E6" style="fill:#E6E6E6;fill:color(display-p3 0.9020 0.9020 0.9020);fill-opacity:1;"/>
<path d="M100.761 89.9334L117.499 80.272C118.61 79.632 119.511 80.0877 119.511 81.296C119.462 81.9715 119.254 82.6258 118.904 83.2058C118.555 83.7859 118.073 84.2752 117.499 84.6342L100.761 94.3161C99.6504 94.9561 98.7493 94.5005 98.7493 93.2921C98.797 92.6135 99.0041 91.9557 99.3537 91.3721C99.7033 90.7886 100.186 90.2956 100.761 89.9334Z" fill="#F5F5F5" style="fill:#F5F5F5;fill:color(display-p3 0.9608 0.9608 0.9608);fill-opacity:1;"/>
<path d="M99.5531 107.623L101.719 106.374C102.164 106.118 102.523 106.323 102.523 106.835V109.338C102.508 109.617 102.428 109.889 102.288 110.131C102.148 110.373 101.953 110.579 101.719 110.731L99.5531 111.98C99.1128 112.236 98.7493 112.031 98.7493 111.514V109.016C98.7651 108.737 98.8461 108.466 98.9857 108.224C99.1253 107.982 99.3196 107.776 99.5531 107.623Z" fill="#FAFAFA" style="fill:#FAFAFA;fill:color(display-p3 0.9804 0.9804 0.9804);fill-opacity:1;"/>
<path d="M105.421 105.33L118.507 97.7724C119.06 97.4498 119.531 97.6802 119.531 98.2844C119.505 98.6238 119.398 98.9521 119.22 99.2423C119.042 99.5324 118.798 99.7762 118.507 99.9535L105.421 107.506C104.863 107.828 104.397 107.598 104.397 106.994C104.423 106.655 104.53 106.327 104.708 106.038C104.886 105.748 105.13 105.506 105.421 105.33Z" fill="#F5F5F5" style="fill:#F5F5F5;fill:color(display-p3 0.9608 0.9608 0.9608);fill-opacity:1;"/>
<path d="M99.5531 116.343L101.719 115.088C102.164 114.832 102.523 115.042 102.523 115.554V118.058C102.508 118.337 102.428 118.609 102.288 118.851C102.148 119.093 101.953 119.298 101.719 119.45L99.5531 120.7C99.1128 120.956 98.7493 120.746 98.7493 120.234V117.735C98.7651 117.456 98.8461 117.185 98.9857 116.943C99.1253 116.702 99.3196 116.496 99.5531 116.343Z" fill="#FAFAFA" style="fill:#FAFAFA;fill:color(display-p3 0.9804 0.9804 0.9804);fill-opacity:1;"/>
<path d="M105.421 114.044L118.507 106.492C119.06 106.169 119.531 106.394 119.531 107.004C119.504 107.343 119.397 107.671 119.219 107.961C119.041 108.251 118.798 108.495 118.507 108.673L105.421 116.225C104.863 116.547 104.397 116.317 104.397 115.713C104.424 115.374 104.531 115.046 104.709 114.756C104.887 114.465 105.131 114.222 105.421 114.044Z" fill="#F5F5F5" style="fill:#F5F5F5;fill:color(display-p3 0.9608 0.9608 0.9608);fill-opacity:1;"/>
<path d="M99.5531 125.057L101.719 123.807C102.164 123.551 102.523 123.756 102.523 124.273V126.797C102.508 127.077 102.428 127.348 102.288 127.59C102.148 127.832 101.953 128.038 101.719 128.19L99.5531 129.439C99.1128 129.7 98.7493 129.491 98.7493 128.979V126.475C98.7612 126.192 98.8403 125.915 98.98 125.669C99.1198 125.422 99.3162 125.212 99.5531 125.057Z" fill="#FAFAFA" style="fill:#FAFAFA;fill:color(display-p3 0.9804 0.9804 0.9804);fill-opacity:1;"/>
<path d="M105.421 122.763L118.507 115.206C119.06 114.883 119.531 115.114 119.531 115.718C119.505 116.058 119.398 116.387 119.22 116.678C119.042 116.969 118.798 117.213 118.507 117.392L105.421 124.939C104.863 125.262 104.397 125.036 104.397 124.427C104.423 124.088 104.53 123.761 104.708 123.471C104.886 123.182 105.13 122.939 105.421 122.763Z" fill="#F5F5F5" style="fill:#F5F5F5;fill:color(display-p3 0.9608 0.9608 0.9608);fill-opacity:1;"/>
<path d="M99.5531 133.796L101.719 132.547C102.164 132.291 102.523 132.501 102.523 133.013V135.501C102.508 135.78 102.428 136.052 102.288 136.294C102.148 136.536 101.953 136.742 101.719 136.894L99.5531 138.143C99.1128 138.404 98.7493 138.195 98.7493 137.683V135.179C98.7667 134.902 98.8484 134.633 98.9879 134.393C99.1274 134.153 99.321 133.949 99.5531 133.796Z" fill="#FAFAFA" style="fill:#FAFAFA;fill:color(display-p3 0.9804 0.9804 0.9804);fill-opacity:1;"/>
<path d="M105.421 131.503L118.507 123.946C119.06 123.623 119.531 123.854 119.531 124.458C119.505 124.798 119.398 125.127 119.22 125.417C119.042 125.708 118.798 125.953 118.507 126.132L105.421 133.679C104.863 134.001 104.397 133.776 104.397 133.167C104.424 132.828 104.531 132.501 104.709 132.212C104.887 131.923 105.131 131.68 105.421 131.503Z" fill="#F5F5F5" style="fill:#F5F5F5;fill:color(display-p3 0.9608 0.9608 0.9608);fill-opacity:1;"/>
<path d="M99.7581 152.024L109.056 146.648C109.609 146.325 110.08 146.556 110.08 147.16C110.054 147.499 109.947 147.828 109.769 148.118C109.591 148.408 109.347 148.652 109.056 148.829L99.7428 154.21C99.1847 154.528 98.7188 154.302 98.7188 153.698C98.7468 153.357 98.8557 153.027 99.0364 152.736C99.2172 152.444 99.4645 152.201 99.7581 152.024Z" fill="#F5F5F5" style="fill:#F5F5F5;fill:color(display-p3 0.9608 0.9608 0.9608);fill-opacity:1;"/>
<path d="M99.7581 156.381L118.508 145.557C119.061 145.234 119.532 145.465 119.532 146.069C119.505 146.409 119.398 146.738 119.22 147.029C119.042 147.32 118.798 147.565 118.508 147.743L99.7581 158.541C99.2001 158.864 98.7341 158.634 98.7341 158.029C98.7644 157.694 98.8728 157.37 99.0506 157.084C99.2284 156.797 99.4707 156.557 99.7581 156.381Z" fill="#F0F0F0" style="fill:#F0F0F0;fill:color(display-p3 0.9412 0.9412 0.9412);fill-opacity:1;"/>
<path d="M99.7581 156.381L112.845 148.814C113.398 148.496 113.869 148.721 113.869 149.326C113.842 149.665 113.735 149.993 113.557 150.283C113.379 150.573 113.135 150.817 112.845 150.995L99.7581 158.542C99.2001 158.864 98.7341 158.634 98.7341 158.03C98.7644 157.694 98.8728 157.37 99.0506 157.084C99.2284 156.798 99.4707 156.557 99.7581 156.381Z" fill="#FAFAFA" style="fill:#FAFAFA;fill:color(display-p3 0.9804 0.9804 0.9804);fill-opacity:1;"/>
<path d="M99.7581 160.738L109.056 155.357C109.609 155.04 110.08 155.265 110.08 155.869C110.052 156.208 109.945 156.536 109.767 156.826C109.59 157.116 109.346 157.36 109.056 157.538L99.7428 162.914C99.1847 163.237 98.7188 163.006 98.7188 162.402C98.7468 162.062 98.8557 161.733 99.0365 161.444C99.2173 161.155 99.4647 160.913 99.7581 160.738Z" fill="#F5F5F5" style="fill:#F5F5F5;fill:color(display-p3 0.9608 0.9608 0.9608);fill-opacity:1;"/>
<path d="M99.7581 143.31L109.056 137.934C109.609 137.616 110.08 137.842 110.08 138.446C110.052 138.785 109.945 139.113 109.767 139.403C109.59 139.693 109.346 139.937 109.056 140.115L99.7428 145.491C99.1847 145.813 98.7188 145.583 98.7188 144.979C98.7476 144.638 98.8569 144.309 99.0376 144.019C99.2182 143.729 99.4652 143.486 99.7581 143.31Z" fill="#F5F5F5" style="fill:#F5F5F5;fill:color(display-p3 0.9608 0.9608 0.9608);fill-opacity:1;"/>
<path d="M99.7581 147.672L118.508 136.843C119.061 136.525 119.532 136.751 119.532 137.355C119.504 137.694 119.397 138.022 119.219 138.312C119.041 138.602 118.797 138.846 118.508 139.024L99.7581 149.837C99.2001 150.16 98.7341 149.93 98.7341 149.325C98.7621 148.988 98.8694 148.663 99.0474 148.375C99.2254 148.088 99.469 147.847 99.7581 147.672Z" fill="#F0F0F0" style="fill:#F0F0F0;fill:color(display-p3 0.9412 0.9412 0.9412);fill-opacity:1;"/>
<path d="M99.7581 147.672L106.414 143.832C106.972 143.509 107.438 143.74 107.438 144.344C107.412 144.684 107.305 145.013 107.127 145.304C106.949 145.595 106.705 145.84 106.414 146.018L99.7581 149.853C99.2001 150.176 98.7341 149.945 98.7341 149.341C98.7597 149.001 98.8659 148.673 99.044 148.383C99.2221 148.092 99.4669 147.849 99.7581 147.672Z" fill="#FAFAFA" style="fill:#FAFAFA;fill:color(display-p3 0.9804 0.9804 0.9804);fill-opacity:1;"/>
<path d="M99.7581 165.095L118.508 154.271C119.061 153.949 119.532 154.179 119.532 154.783C119.505 155.123 119.399 155.451 119.221 155.741C119.043 156.031 118.798 156.275 118.508 156.453L99.7581 167.281C99.2001 167.599 98.7341 167.373 98.7341 166.769C98.7605 166.429 98.8671 166.1 99.0451 165.809C99.2231 165.518 99.4674 165.273 99.7581 165.095Z" fill="#F0F0F0" style="fill:#F0F0F0;fill:color(display-p3 0.9412 0.9412 0.9412);fill-opacity:1;"/>
<path d="M99.7581 165.095L116.618 155.367C117.176 155.05 117.642 155.275 117.642 155.879C117.614 156.218 117.506 156.546 117.329 156.836C117.151 157.125 116.908 157.37 116.618 157.548L99.7581 167.276C99.2001 167.594 98.7341 167.369 98.7341 166.764C98.7613 166.425 98.8682 166.097 99.0462 165.807C99.2241 165.517 99.4681 165.273 99.7581 165.095Z" fill="#FAFAFA" style="fill:#FAFAFA;fill:color(display-p3 0.9804 0.9804 0.9804);fill-opacity:1;"/>
<path d="M165.688 22.3495L123.284 46.8077V160.134L165.688 135.655C165.984 135.466 166.231 135.21 166.409 134.908C166.587 134.605 166.691 134.265 166.712 133.914V22.9075C166.697 22.2675 166.246 22.0064 165.688 22.3495Z" fill="#F5F5F5" style="fill:#F5F5F5;fill:color(display-p3 0.9608 0.9608 0.9608);fill-opacity:1;"/>
<path d="M123.284 51.1701V59.8843L119.511 64.2466H123.284V72.9608L162.918 50.0795V28.2837L123.284 51.1701Z" fill="#EBEBEB" style="fill:#EBEBEB;fill:color(display-p3 0.9216 0.9216 0.9216);fill-opacity:1;"/>
<path d="M128.471 51.4723L144.527 42.1999C145.306 41.7545 145.935 42.118 145.935 43.014C145.909 43.5032 145.768 43.9793 145.524 44.4037C145.279 44.828 144.938 45.1887 144.527 45.4563L128.471 54.7235C127.693 55.174 127.063 54.8105 127.063 53.9145C127.089 53.4254 127.23 52.9492 127.475 52.5249C127.719 52.1005 128.061 51.7399 128.471 51.4723Z" fill="#FAFAFA" style="fill:#FAFAFA;fill:color(display-p3 0.9804 0.9804 0.9804);fill-opacity:1;"/>
<path d="M127.565 58.5072L158.643 40.5616C158.92 40.4029 159.155 40.5155 159.155 40.8176C159.142 40.9873 159.089 41.1514 159 41.2965C158.911 41.4416 158.788 41.5635 158.643 41.6521L127.565 59.5977C127.288 59.7565 127.053 59.6438 127.053 59.3417C127.066 59.172 127.119 59.0079 127.208 58.8628C127.297 58.7177 127.419 58.5958 127.565 58.5072Z" fill="#FAFAFA" style="fill:#FAFAFA;fill:color(display-p3 0.9804 0.9804 0.9804);fill-opacity:1;"/>
<path d="M127.565 61.7735L158.643 43.8535C158.92 43.6897 159.155 43.8075 159.155 44.1044C159.142 44.2747 159.088 44.4394 158.999 44.5852C158.91 44.7311 158.788 44.854 158.643 44.9441L127.565 62.8641C127.288 63.0228 127.053 62.9102 127.053 62.6081C127.067 62.4387 127.121 62.275 127.21 62.1301C127.299 61.9852 127.42 61.8631 127.565 61.7735Z" fill="#FAFAFA" style="fill:#FAFAFA;fill:color(display-p3 0.9804 0.9804 0.9804);fill-opacity:1;"/>
<path d="M127.565 65.045L158.643 47.125C158.92 46.9663 159.155 47.079 159.155 47.381C159.142 47.5508 159.089 47.7149 159 47.86C158.911 48.0051 158.788 48.127 158.643 48.2156L127.565 66.1612C127.288 66.3199 127.053 66.2073 127.053 65.9052C127.062 65.7311 127.113 65.5618 127.203 65.4119C127.292 65.2621 127.416 65.1362 127.565 65.045Z" fill="#FAFAFA" style="fill:#FAFAFA;fill:color(display-p3 0.9804 0.9804 0.9804);fill-opacity:1;"/>
<path d="M128.732 74.1846L130.898 72.9353C131.343 72.6793 131.707 72.8841 131.707 73.4012V75.8998C131.691 76.1791 131.609 76.4507 131.469 76.6927C131.328 76.9346 131.133 77.1401 130.898 77.2924L128.732 78.5417C128.292 78.7977 127.928 78.5929 127.928 78.0809V75.5977C127.941 75.3153 128.02 75.0401 128.16 74.7944C128.3 74.5488 128.496 74.3398 128.732 74.1846Z" fill="white" style="fill:white;fill-opacity:1;"/>
<path d="M134.6 71.8905L147.686 64.3334C148.239 64.0109 148.71 64.2413 148.71 64.8454C148.684 65.1854 148.577 65.5142 148.399 65.8052C148.221 66.0961 147.977 66.3409 147.686 66.5197L134.6 74.0614C134.042 74.384 133.576 74.1587 133.576 73.5494C133.603 73.2116 133.71 72.885 133.888 72.5966C134.066 72.3082 134.31 72.0662 134.6 71.8905Z" fill="#E0E0E0" style="fill:#E0E0E0;fill:color(display-p3 0.8784 0.8784 0.8784);fill-opacity:1;"/>
<path d="M128.435 81.9927L161.398 62.9566C161.679 62.7927 161.91 62.9105 161.91 63.2074C161.897 63.3774 161.844 63.5418 161.755 63.6871C161.666 63.8323 161.544 63.954 161.398 64.042L128.435 83.0833C128.153 83.242 127.923 83.1294 127.923 82.8273C127.935 82.6574 127.988 82.4929 128.078 82.3477C128.167 82.2025 128.289 82.0807 128.435 81.9927Z" fill="#E0E0E0" style="fill:#E0E0E0;fill:color(display-p3 0.8784 0.8784 0.8784);fill-opacity:1;"/>
<path d="M128.435 85.2589L161.398 66.2227C161.679 66.064 161.91 66.1766 161.91 66.4787C161.897 66.6486 161.844 66.8131 161.755 66.9583C161.666 67.1035 161.544 67.2253 161.398 67.3133L128.435 86.3494C128.153 86.5081 127.923 86.3955 127.923 86.0934C127.937 85.9239 127.991 85.7601 128.08 85.6151C128.169 85.4702 128.29 85.3481 128.435 85.2589Z" fill="#E0E0E0" style="fill:#E0E0E0;fill:color(display-p3 0.8784 0.8784 0.8784);fill-opacity:1;"/>
<path d="M128.435 88.5308L161.398 69.4947C161.679 69.3308 161.91 69.4435 161.91 69.7456C161.897 69.9155 161.844 70.08 161.755 70.2252C161.666 70.3704 161.544 70.4921 161.398 70.5801L128.435 89.6163C128.153 89.7801 127.923 89.6675 127.923 89.3654C127.935 89.1955 127.988 89.031 128.078 88.8858C128.167 88.7406 128.289 88.6189 128.435 88.5308Z" fill="#E0E0E0" style="fill:#E0E0E0;fill:color(display-p3 0.8784 0.8784 0.8784);fill-opacity:1;"/>
<path d="M128.435 91.8075L161.398 72.7714C161.679 72.6075 161.91 72.7253 161.91 73.0274C161.896 73.1968 161.842 73.3607 161.753 73.5056C161.664 73.6506 161.542 73.7726 161.398 73.8619L128.435 92.8981C128.153 93.0568 127.923 92.9442 127.923 92.6421C127.935 92.4722 127.988 92.3077 128.078 92.1625C128.167 92.0173 128.289 91.8955 128.435 91.8075Z" fill="#E0E0E0" style="fill:#E0E0E0;fill:color(display-p3 0.8784 0.8784 0.8784);fill-opacity:1;"/>
<path d="M128.732 98.1563L130.898 96.907C131.343 96.651 131.707 96.8609 131.707 97.3729V99.8715C131.691 100.151 131.609 100.422 131.469 100.664C131.328 100.906 131.133 101.112 130.898 101.264L128.732 102.519C128.292 102.775 127.928 102.565 127.928 102.053V99.5541C127.943 99.2744 128.024 99.0022 128.164 98.7594C128.303 98.5166 128.498 98.31 128.732 98.1563Z" fill="white" style="fill:white;fill-opacity:1;"/>
<path d="M134.6 95.8624L147.686 88.3053C148.239 87.9878 148.71 88.2131 148.71 88.8173C148.683 89.1564 148.576 89.4842 148.398 89.7742C148.22 90.0642 147.976 90.3082 147.686 90.4864L134.6 98.0435C134.042 98.3609 133.576 98.1357 133.576 97.5315C133.603 97.1923 133.71 96.8643 133.888 96.5743C134.066 96.2842 134.31 96.0403 134.6 95.8624Z" fill="#E0E0E0" style="fill:#E0E0E0;fill:color(display-p3 0.8784 0.8784 0.8784);fill-opacity:1;"/>
<path d="M128.435 105.964L161.398 86.9283C161.679 86.7696 161.91 86.8822 161.91 87.1843C161.896 87.3538 161.842 87.5176 161.753 87.6626C161.664 87.8075 161.542 87.9296 161.398 88.0188L128.435 107.055C128.153 107.214 127.923 107.101 127.923 106.799C127.935 106.629 127.988 106.465 128.078 106.319C128.167 106.174 128.289 106.052 128.435 105.964Z" fill="#E0E0E0" style="fill:#E0E0E0;fill:color(display-p3 0.8784 0.8784 0.8784);fill-opacity:1;"/>
<path d="M128.435 109.231L161.398 90.1949C161.679 90.0362 161.91 90.1488 161.91 90.4509C161.897 90.6208 161.844 90.7853 161.755 90.9305C161.666 91.0757 161.544 91.1974 161.398 91.2854L128.435 110.322C128.153 110.485 127.923 110.368 127.923 110.071C127.936 109.9 127.99 109.735 128.079 109.59C128.168 109.444 128.29 109.321 128.435 109.231Z" fill="#E0E0E0" style="fill:#E0E0E0;fill:color(display-p3 0.8784 0.8784 0.8784);fill-opacity:1;"/>
<path d="M128.435 112.502L161.398 93.4663C161.679 93.3025 161.91 93.4203 161.91 93.7172C161.896 93.8876 161.843 94.0525 161.754 94.1984C161.665 94.3443 161.543 94.4671 161.398 94.5569L128.435 113.593C128.153 113.752 127.923 113.639 127.923 113.337C127.935 113.167 127.988 113.003 128.078 112.857C128.167 112.712 128.289 112.591 128.435 112.502Z" fill="#E0E0E0" style="fill:#E0E0E0;fill:color(display-p3 0.8784 0.8784 0.8784);fill-opacity:1;"/>
<path d="M128.435 115.779L161.398 96.7432C161.679 96.5845 161.91 96.6971 161.91 96.9992C161.897 97.1691 161.844 97.3336 161.755 97.4788C161.666 97.624 161.544 97.7458 161.398 97.8338L128.435 116.87C128.153 117.029 127.923 116.916 127.923 116.614C127.937 116.444 127.991 116.281 128.08 116.136C128.169 115.991 128.29 115.869 128.435 115.779Z" fill="#E0E0E0" style="fill:#E0E0E0;fill:color(display-p3 0.8784 0.8784 0.8784);fill-opacity:1;"/>
<path d="M131.819 120.561L133.98 119.312C134.426 119.051 134.789 119.261 134.789 119.773V122.277C134.773 122.556 134.691 122.828 134.551 123.07C134.41 123.312 134.215 123.517 133.98 123.669L131.819 124.919C131.374 125.175 131.01 124.97 131.01 124.453V121.954C131.027 121.675 131.108 121.403 131.249 121.161C131.389 120.919 131.585 120.714 131.819 120.561Z" fill="white" style="fill:white;fill-opacity:1;"/>
<path d="M128.435 129.056L137.369 123.895C137.646 123.736 137.881 123.848 137.881 124.151C137.868 124.32 137.815 124.484 137.726 124.63C137.637 124.775 137.515 124.896 137.369 124.985L128.435 130.141C128.153 130.305 127.923 130.187 127.923 129.89C127.935 129.72 127.988 129.556 128.078 129.41C128.167 129.265 128.289 129.144 128.435 129.056Z" fill="#E0E0E0" style="fill:#E0E0E0;fill:color(display-p3 0.8784 0.8784 0.8784);fill-opacity:1;"/>
<path d="M143.836 113.619L145.997 112.369C146.442 112.108 146.806 112.318 146.806 112.83V115.334C146.79 115.613 146.708 115.885 146.568 116.127C146.427 116.369 146.231 116.574 145.997 116.726L143.836 117.976C143.391 118.232 143.027 118.022 143.027 117.51V115.021C143.042 114.74 143.122 114.467 143.263 114.223C143.404 113.979 143.6 113.772 143.836 113.619Z" fill="white" style="fill:white;fill-opacity:1;"/>
<path d="M140.452 122.108L149.386 116.952C149.663 116.793 149.898 116.906 149.898 117.208C149.885 117.377 149.832 117.542 149.743 117.687C149.654 117.832 149.531 117.954 149.386 118.042L140.452 123.213C140.17 123.377 139.94 123.26 139.94 122.963C139.951 122.79 140.003 122.622 140.092 122.473C140.181 122.324 140.304 122.199 140.452 122.108Z" fill="#E0E0E0" style="fill:#E0E0E0;fill:color(display-p3 0.8784 0.8784 0.8784);fill-opacity:1;"/>
<path d="M155.853 106.676L158.013 105.422C158.459 105.166 158.822 105.376 158.822 105.888V108.366C158.807 108.646 158.726 108.919 158.585 109.161C158.445 109.404 158.249 109.611 158.013 109.763L155.853 111.013C155.407 111.269 155.044 111.059 155.044 110.547V108.048C155.063 107.772 155.146 107.505 155.286 107.267C155.427 107.029 155.621 106.826 155.853 106.676Z" fill="white" style="fill:white;fill-opacity:1;"/>
<path d="M152.463 115.165L161.398 110.009C161.679 109.851 161.91 109.963 161.91 110.265C161.897 110.435 161.844 110.6 161.755 110.745C161.666 110.89 161.543 111.012 161.398 111.1L152.463 116.256C152.187 116.42 151.951 116.302 151.951 116C151.966 115.83 152.019 115.667 152.108 115.522C152.197 115.377 152.319 115.255 152.463 115.165Z" fill="#E0E0E0" style="fill:#E0E0E0;fill:color(display-p3 0.8784 0.8784 0.8784);fill-opacity:1;"/>
<path d="M128.435 131.18L137.369 126.024C137.646 125.866 137.881 125.978 137.881 126.28C137.867 126.45 137.813 126.614 137.724 126.758C137.636 126.903 137.514 127.025 137.369 127.115L128.435 132.271C128.153 132.43 127.923 132.317 127.923 132.015C127.936 131.845 127.99 131.681 128.079 131.536C128.168 131.391 128.29 131.269 128.435 131.18Z" fill="#E0E0E0" style="fill:#E0E0E0;fill:color(display-p3 0.8784 0.8784 0.8784);fill-opacity:1;"/>
<path d="M140.452 124.237L149.386 119.082C149.663 118.918 149.898 119.035 149.898 119.332C149.884 119.503 149.831 119.667 149.742 119.813C149.653 119.959 149.531 120.082 149.386 120.172L140.452 125.328C140.17 125.487 139.94 125.374 139.94 125.072C139.952 124.902 140.005 124.738 140.094 124.592C140.183 124.447 140.306 124.325 140.452 124.237Z" fill="#E0E0E0" style="fill:#E0E0E0;fill:color(display-p3 0.8784 0.8784 0.8784);fill-opacity:1;"/>
<path d="M152.463 117.295L161.398 112.139C161.679 111.975 161.91 112.093 161.91 112.39C161.896 112.56 161.843 112.725 161.754 112.871C161.665 113.017 161.543 113.14 161.398 113.23L152.463 118.386C152.187 118.544 151.951 118.432 151.951 118.13C151.964 117.96 152.018 117.796 152.107 117.651C152.196 117.506 152.318 117.384 152.463 117.295Z" fill="#E0E0E0" style="fill:#E0E0E0;fill:color(display-p3 0.8784 0.8784 0.8784);fill-opacity:1;"/>
<path d="M128.435 133.31L137.369 128.149C137.646 127.991 137.881 128.103 137.881 128.405C137.868 128.575 137.815 128.739 137.726 128.884C137.637 129.029 137.515 129.151 137.369 129.24L128.435 134.401C128.153 134.56 127.923 134.447 127.923 134.145C127.935 133.975 127.988 133.811 128.078 133.665C128.167 133.52 128.289 133.398 128.435 133.31Z" fill="#E0E0E0" style="fill:#E0E0E0;fill:color(display-p3 0.8784 0.8784 0.8784);fill-opacity:1;"/>
<path d="M140.452 126.368L149.386 121.207C149.663 121.048 149.898 121.161 149.898 121.463C149.885 121.632 149.832 121.796 149.743 121.942C149.654 122.087 149.531 122.209 149.386 122.297L140.452 127.458C140.17 127.617 139.94 127.504 139.94 127.202C139.952 127.032 140.005 126.868 140.094 126.723C140.183 126.577 140.306 126.456 140.452 126.368Z" fill="#E0E0E0" style="fill:#E0E0E0;fill:color(display-p3 0.8784 0.8784 0.8784);fill-opacity:1;"/>
<path d="M152.463 119.425L161.398 114.264C161.679 114.105 161.91 114.218 161.91 114.52C161.897 114.69 161.844 114.854 161.755 114.999C161.666 115.145 161.543 115.266 161.398 115.354L152.463 120.51C152.187 120.674 151.951 120.561 151.951 120.259C151.964 120.09 152.018 119.925 152.107 119.78C152.196 119.635 152.318 119.513 152.463 119.425Z" fill="#E0E0E0" style="fill:#E0E0E0;fill:color(display-p3 0.8784 0.8784 0.8784);fill-opacity:1;"/>
<path d="M131.819 138.456L133.98 137.206C134.426 136.95 134.789 137.16 134.789 137.672V140.171C134.773 140.45 134.691 140.722 134.551 140.964C134.41 141.206 134.215 141.411 133.98 141.563L131.819 142.813C131.374 143.074 131.01 142.864 131.01 142.352V139.848C131.027 139.569 131.108 139.297 131.249 139.055C131.389 138.813 131.585 138.608 131.819 138.456Z" fill="white" style="fill:white;fill-opacity:1;"/>
<path d="M128.435 146.95L137.369 141.794C137.646 141.63 137.881 141.748 137.881 142.045C137.868 142.215 137.815 142.379 137.726 142.524C137.637 142.669 137.515 142.791 137.369 142.879L128.435 148.04C128.153 148.199 127.923 148.086 127.923 147.784C127.935 147.614 127.988 147.45 128.078 147.305C128.167 147.16 128.289 147.038 128.435 146.95Z" fill="#E0E0E0" style="fill:#E0E0E0;fill:color(display-p3 0.8784 0.8784 0.8784);fill-opacity:1;"/>
<path d="M143.836 131.513L145.997 130.264C146.442 130.008 146.806 130.213 146.806 130.73V133.228C146.79 133.508 146.708 133.779 146.568 134.021C146.427 134.263 146.231 134.469 145.997 134.621L143.836 135.87C143.391 136.131 143.027 135.922 143.027 135.41V132.906C143.043 132.626 143.125 132.355 143.265 132.113C143.406 131.871 143.601 131.665 143.836 131.513Z" fill="white" style="fill:white;fill-opacity:1;"/>
<path d="M140.452 140.007L149.386 134.851C149.663 134.687 149.898 134.8 149.898 135.102C149.885 135.272 149.832 135.436 149.743 135.581C149.654 135.726 149.531 135.848 149.386 135.937L140.452 141.098C140.17 141.256 139.94 141.144 139.94 140.842C139.952 140.672 140.005 140.507 140.094 140.362C140.183 140.217 140.306 140.095 140.452 140.007Z" fill="#E0E0E0" style="fill:#E0E0E0;fill:color(display-p3 0.8784 0.8784 0.8784);fill-opacity:1;"/>
<path d="M155.853 124.57L158.013 123.321C158.459 123.065 158.822 123.27 158.822 123.787V126.285C158.806 126.565 158.725 126.836 158.584 127.078C158.444 127.32 158.248 127.526 158.013 127.678L155.853 128.927C155.407 129.183 155.044 128.979 155.044 128.467V125.963C155.06 125.684 155.141 125.412 155.282 125.17C155.422 124.928 155.618 124.723 155.853 124.57Z" fill="white" style="fill:white;fill-opacity:1;"/>
<path d="M152.463 133.064L161.398 127.903C161.679 127.745 161.91 127.857 161.91 128.159C161.897 128.329 161.844 128.494 161.755 128.639C161.666 128.784 161.543 128.906 161.398 128.994L152.463 134.155C152.187 134.314 151.951 134.201 151.951 133.899C151.964 133.729 152.018 133.565 152.107 133.42C152.196 133.275 152.318 133.153 152.463 133.064Z" fill="#E0E0E0" style="fill:#E0E0E0;fill:color(display-p3 0.8784 0.8784 0.8784);fill-opacity:1;"/>
<path d="M128.435 149.08L137.369 143.919C137.646 143.76 137.881 143.873 137.881 144.175C137.868 144.345 137.815 144.509 137.726 144.654C137.637 144.799 137.515 144.921 137.369 145.01L128.435 150.165C128.153 150.329 127.923 150.211 127.923 149.915C127.935 149.745 127.988 149.58 128.078 149.435C128.167 149.29 128.289 149.168 128.435 149.08Z" fill="#E0E0E0" style="fill:#E0E0E0;fill:color(display-p3 0.8784 0.8784 0.8784);fill-opacity:1;"/>
<path d="M140.452 142.158L149.386 137.002C149.663 136.843 149.898 136.956 149.898 137.258C149.885 137.428 149.832 137.592 149.743 137.737C149.654 137.882 149.531 138.004 149.386 138.093L140.452 143.248C140.17 143.412 139.94 143.294 139.94 142.998C139.953 142.827 140.006 142.662 140.095 142.516C140.184 142.37 140.306 142.248 140.452 142.158Z" fill="#E0E0E0" style="fill:#E0E0E0;fill:color(display-p3 0.8784 0.8784 0.8784);fill-opacity:1;"/>
<path d="M152.463 135.189L161.398 130.033C161.679 129.875 161.91 129.987 161.91 130.289C161.897 130.459 161.844 130.624 161.755 130.769C161.666 130.914 161.543 131.036 161.398 131.124L152.463 136.28C152.187 136.443 151.951 136.326 151.951 136.029C151.965 135.858 152.018 135.694 152.107 135.548C152.196 135.402 152.318 135.279 152.463 135.189Z" fill="#E0E0E0" style="fill:#E0E0E0;fill:color(display-p3 0.8784 0.8784 0.8784);fill-opacity:1;"/>
<path d="M128.435 151.205L137.369 146.049C137.646 145.89 137.881 146.003 137.881 146.305C137.867 146.474 137.813 146.638 137.724 146.783C137.636 146.928 137.514 147.05 137.369 147.139L128.435 152.295C128.153 152.454 127.923 152.341 127.923 152.039C127.937 151.87 127.991 151.706 128.08 151.561C128.169 151.416 128.29 151.294 128.435 151.205Z" fill="#E0E0E0" style="fill:#E0E0E0;fill:color(display-p3 0.8784 0.8784 0.8784);fill-opacity:1;"/>
<path d="M140.452 144.262L149.386 139.085C149.663 138.927 149.898 139.039 149.898 139.341C149.884 139.511 149.83 139.675 149.741 139.819C149.652 139.964 149.531 140.086 149.386 140.176L140.452 145.332C140.17 145.491 139.94 145.378 139.94 145.076C139.955 144.91 140.01 144.749 140.099 144.608C140.188 144.466 140.308 144.348 140.452 144.262Z" fill="#E0E0E0" style="fill:#E0E0E0;fill:color(display-p3 0.8784 0.8784 0.8784);fill-opacity:1;"/>
<path d="M152.463 137.319L161.398 132.164C161.679 132 161.91 132.118 161.91 132.414C161.896 132.585 161.843 132.75 161.754 132.896C161.665 133.042 161.543 133.164 161.398 133.254L152.463 138.41C152.187 138.569 151.951 138.456 151.951 138.154C151.964 137.984 152.018 137.82 152.107 137.675C152.196 137.53 152.318 137.408 152.463 137.319Z" fill="#E0E0E0" style="fill:#E0E0E0;fill:color(display-p3 0.8784 0.8784 0.8784);fill-opacity:1;"/>
<path d="M108.186 59.9151C113.413 56.8994 117.647 59.3417 117.647 65.3782C117.647 71.4146 113.413 78.7414 108.186 81.7622C102.958 84.783 98.729 82.3356 98.729 76.3042C98.729 70.2729 102.963 62.9308 108.186 59.9151Z" fill="#FAFAFA" style="fill:#FAFAFA;fill:color(display-p3 0.9804 0.9804 0.9804);fill-opacity:1;"/>
<path d="M108.186 64.6614C109.88 63.6835 111.258 64.4771 111.258 66.4329C111.199 67.4979 110.891 68.5341 110.357 69.4575C109.823 70.3809 109.079 71.1654 108.186 71.7475C106.491 72.7254 105.114 71.9318 105.114 69.9759C105.171 68.9109 105.48 67.8745 106.013 66.951C106.547 66.0275 107.291 65.2431 108.186 64.6614Z" fill="#E0E0E0" style="fill:#E0E0E0;fill:color(display-p3 0.8784 0.8784 0.8784);fill-opacity:1;"/>
<path d="M114.176 75.0856C114.176 71.8703 111.918 70.5698 109.133 72.1775L107.392 73.2015C104.607 74.8091 102.349 78.7208 102.349 81.9362V82.8015C103.961 83.3135 105.984 83.0421 108.191 81.7775C110.612 80.282 112.66 78.2522 114.176 75.8434V75.0856Z" fill="#E0E0E0" style="fill:#E0E0E0;fill:color(display-p3 0.8784 0.8784 0.8784);fill-opacity:1;"/>
<path d="M102.589 97.2963L115.676 89.7392C116.229 89.4166 116.7 89.647 116.7 90.2512C116.674 90.5906 116.567 90.9189 116.389 91.2091C116.211 91.4992 115.967 91.743 115.676 91.9203L102.589 99.4774C102.031 99.8 101.565 99.5696 101.565 98.9654C101.591 98.6258 101.697 98.2972 101.875 98.0069C102.053 97.7166 102.298 97.473 102.589 97.2963Z" fill="#F5F5F5" style="fill:#F5F5F5;fill:color(display-p3 0.9608 0.9608 0.9608);fill-opacity:1;"/>
<path d="M60.9639 207.018L77.5987 134.969L168.668 82.3921L152.033 154.436L60.9639 207.018Z" fill="#F7921E" style="fill:#F7921E;fill:color(display-p3 0.9686 0.5725 0.1176);fill-opacity:1;"/>
<path opacity="0.1" d="M106.716 180.598V118.16L168.427 82.7041L152.033 154.435L106.716 180.598Z" fill="black" style="fill:black;fill-opacity:1;"/>
<path d="M122.409 189.666L106.716 180.599L135.941 163.851L122.409 189.666Z" fill="#E0E0E0" style="fill:#E0E0E0;fill:color(display-p3 0.8784 0.8784 0.8784);fill-opacity:1;"/>
<path d="M122.409 189.666C122.129 189.476 121.898 189.222 121.735 188.926C121.571 188.63 121.479 188.299 121.467 187.961V76.9544C121.489 76.6041 121.593 76.264 121.771 75.9616C121.949 75.6591 122.196 75.4028 122.491 75.2136L192.179 34.9653C192.471 34.7823 192.806 34.6823 193.15 34.6761C193.494 34.6699 193.833 34.7576 194.131 34.9299C194.428 35.1022 194.673 35.3524 194.839 35.6537C195.005 35.955 195.086 36.2958 195.072 36.6395V147.641C195.051 147.992 194.947 148.332 194.769 148.635C194.591 148.937 194.344 149.193 194.048 149.382L124.36 189.63C124.06 189.788 123.728 189.874 123.389 189.88C123.05 189.886 122.714 189.813 122.409 189.666Z" fill="#EBEBEB" style="fill:#EBEBEB;fill:color(display-p3 0.9216 0.9216 0.9216);fill-opacity:1;"/>
<path d="M123.351 79.0639L151.665 60.5398L149.775 59.4492L122.471 75.2137C122.175 75.403 121.928 75.6592 121.75 75.9617C121.572 76.2641 121.468 76.6043 121.447 76.9545V77.9785L123.351 79.0639Z" fill="#455A64" style="fill:#455A64;fill:color(display-p3 0.2706 0.3529 0.3922);fill-opacity:1;"/>
<path d="M132.787 82.3305L121.759 75.9663C121.579 76.2654 121.479 76.6056 121.467 76.9545V187.961C121.455 188.304 121.536 188.645 121.702 188.945C121.868 189.246 122.113 189.495 122.411 189.667C122.708 189.838 123.047 189.926 123.39 189.919C123.734 189.913 124.069 189.813 124.36 189.63L132.787 184.761V82.3305Z" fill="#263238" style="fill:#263238;fill:color(display-p3 0.1490 0.1961 0.2196);fill-opacity:1;"/>
<path d="M124.36 189.63L194.048 149.382C194.344 149.193 194.591 148.937 194.769 148.635C194.947 148.332 195.051 147.992 195.072 147.641V36.6396C195.072 35.9945 194.621 35.7385 194.048 36.0559L124.36 76.3042C124.063 76.4923 123.815 76.7482 123.637 77.0509C123.459 77.3536 123.356 77.6944 123.336 78.045V189.047C123.351 189.692 123.802 189.948 124.36 189.63Z" fill="#37474F" style="fill:#37474F;fill:color(display-p3 0.2157 0.2784 0.3098);fill-opacity:1;"/>
<path d="M129.137 103.686L145.874 94.0298C146.985 93.3898 147.886 93.8455 147.886 95.0538C147.836 95.7297 147.628 96.3845 147.278 96.9652C146.929 97.546 146.448 98.0364 145.874 98.3972L129.137 108.059C128.026 108.699 127.125 108.243 127.125 107.035C127.172 106.357 127.379 105.701 127.729 105.119C128.079 104.537 128.561 104.046 129.137 103.686Z" fill="#E0E0E0" style="fill:#E0E0E0;fill:color(display-p3 0.8784 0.8784 0.8784);fill-opacity:1;"/>
<path d="M127.933 121.35L130.099 120.1C130.54 119.844 130.903 120.054 130.903 120.566V123.065C130.887 123.344 130.806 123.616 130.667 123.859C130.527 124.102 130.333 124.308 130.099 124.463L127.933 125.712C127.488 125.968 127.13 125.758 127.13 125.246V122.747C127.144 122.468 127.224 122.195 127.364 121.952C127.504 121.709 127.699 121.503 127.933 121.35Z" fill="#F7921E" style="fill:#F7921E;fill:color(display-p3 0.9686 0.5725 0.1176);fill-opacity:1;"/>
<path d="M133.796 119.056L146.883 111.499C147.436 111.182 147.907 111.407 147.907 112.011C147.879 112.35 147.772 112.678 147.594 112.968C147.416 113.258 147.172 113.502 146.883 113.68L133.796 121.237C133.238 121.555 132.772 121.33 132.772 120.725C132.799 120.386 132.906 120.058 133.084 119.768C133.262 119.478 133.506 119.234 133.796 119.056Z" fill="#E0E0E0" style="fill:#E0E0E0;fill:color(display-p3 0.8784 0.8784 0.8784);fill-opacity:1;"/>
<path d="M127.933 130.069L130.099 128.845C130.54 128.589 130.903 128.794 130.903 129.311V131.81C130.887 132.089 130.806 132.36 130.667 132.602C130.527 132.844 130.333 133.049 130.099 133.203L127.933 134.452C127.488 134.708 127.13 134.503 127.13 133.991V131.487C127.14 131.204 127.219 130.927 127.359 130.68C127.499 130.433 127.696 130.224 127.933 130.069Z" fill="#F7921E" style="fill:#F7921E;fill:color(display-p3 0.9686 0.5725 0.1176);fill-opacity:1;"/>
<path d="M133.796 127.775L146.883 120.218C147.436 119.896 147.907 120.126 147.907 120.73C147.88 121.07 147.773 121.399 147.595 121.69C147.417 121.981 147.173 122.226 146.883 122.404L133.796 129.956C133.238 130.279 132.772 130.054 132.772 129.444C132.798 129.105 132.904 128.776 133.082 128.486C133.26 128.196 133.505 127.952 133.796 127.775Z" fill="#E0E0E0" style="fill:#E0E0E0;fill:color(display-p3 0.8784 0.8784 0.8784);fill-opacity:1;"/>
<path d="M127.933 138.789L130.099 137.55C130.54 137.294 130.903 137.504 130.903 138.016V140.514C130.888 140.794 130.807 141.066 130.668 141.309C130.528 141.552 130.333 141.758 130.099 141.912L127.933 143.161C127.488 143.417 127.13 143.207 127.13 142.695V140.197C127.142 139.915 127.221 139.64 127.361 139.395C127.501 139.15 127.697 138.942 127.933 138.789Z" fill="#F7921E" style="fill:#F7921E;fill:color(display-p3 0.9686 0.5725 0.1176);fill-opacity:1;"/>
<path d="M133.796 136.49L146.883 128.933C147.436 128.615 147.907 128.841 147.907 129.445C147.88 129.784 147.773 130.112 147.595 130.402C147.417 130.692 147.173 130.936 146.883 131.114L133.796 138.671C133.238 138.994 132.772 138.763 132.772 138.159C132.799 137.82 132.906 137.492 133.084 137.202C133.262 136.912 133.506 136.668 133.796 136.49Z" fill="#E0E0E0" style="fill:#E0E0E0;fill:color(display-p3 0.8784 0.8784 0.8784);fill-opacity:1;"/>
<path d="M127.933 147.529L130.099 146.254C130.54 145.998 130.903 146.208 130.903 146.72V149.223C130.887 149.502 130.806 149.773 130.667 150.015C130.527 150.257 130.333 150.463 130.099 150.616L127.933 151.886C127.488 152.142 127.13 151.932 127.13 151.42V148.921C127.144 148.642 127.225 148.37 127.364 148.128C127.504 147.886 127.699 147.681 127.933 147.529Z" fill="#F7921E" style="fill:#F7921E;fill:color(display-p3 0.9686 0.5725 0.1176);fill-opacity:1;"/>
<path d="M133.796 145.23L146.883 137.678C147.436 137.355 147.907 137.58 147.907 138.19C147.88 138.529 147.773 138.857 147.595 139.147C147.417 139.437 147.173 139.681 146.883 139.859L133.796 147.416C133.238 147.738 132.772 147.508 132.772 146.904C132.798 146.564 132.905 146.235 133.083 145.944C133.261 145.653 133.505 145.408 133.796 145.23Z" fill="#E0E0E0" style="fill:#E0E0E0;fill:color(display-p3 0.8784 0.8784 0.8784);fill-opacity:1;"/>
<path d="M128.133 165.751L137.446 160.375C137.999 160.057 138.47 160.282 138.47 160.887C138.443 161.226 138.336 161.554 138.158 161.844C137.98 162.134 137.736 162.377 137.446 162.556L128.133 167.932C127.58 168.254 127.109 168.024 127.109 167.42C127.137 167.081 127.244 166.753 127.422 166.463C127.6 166.173 127.843 165.929 128.133 165.751Z" fill="#E0E0E0" style="fill:#E0E0E0;fill:color(display-p3 0.8784 0.8784 0.8784);fill-opacity:1;"/>
<path d="M128.133 170.113L146.883 159.284C147.436 158.966 147.907 159.192 147.907 159.796C147.879 160.135 147.772 160.463 147.594 160.753C147.416 161.043 147.172 161.287 146.883 161.465L128.133 172.289C127.58 172.611 127.109 172.381 127.109 171.777C127.136 171.438 127.243 171.111 127.421 170.822C127.599 170.532 127.843 170.289 128.133 170.113Z" fill="#FAFAFA" style="fill:#FAFAFA;fill:color(display-p3 0.9804 0.9804 0.9804);fill-opacity:1;"/>
<path d="M128.133 170.113L141.22 162.556C141.778 162.233 142.244 162.463 142.244 163.068C142.217 163.408 142.111 163.737 141.933 164.028C141.755 164.319 141.511 164.563 141.22 164.742L128.133 172.294C127.58 172.616 127.109 172.386 127.109 171.782C127.136 171.442 127.242 171.114 127.42 170.824C127.598 170.534 127.843 170.29 128.133 170.113Z" fill="#F7921E" style="fill:#F7921E;fill:color(display-p3 0.9686 0.5725 0.1176);fill-opacity:1;"/>
<path d="M128.133 174.465L137.446 169.089C137.999 168.766 138.47 168.997 138.47 169.601C138.444 169.941 138.337 170.27 138.159 170.561C137.981 170.851 137.737 171.096 137.446 171.275L128.133 176.651C127.58 176.968 127.109 176.743 127.109 176.139C127.136 175.799 127.243 175.47 127.421 175.179C127.599 174.888 127.843 174.644 128.133 174.465Z" fill="#E0E0E0" style="fill:#E0E0E0;fill:color(display-p3 0.8784 0.8784 0.8784);fill-opacity:1;"/>
<path d="M128.133 157.041L137.446 151.665C137.999 151.343 138.47 151.573 138.47 152.177C138.444 152.517 138.337 152.845 138.159 153.135C137.981 153.425 137.737 153.669 137.446 153.847L128.133 159.223C127.58 159.545 127.109 159.32 127.109 158.711C127.136 158.371 127.242 158.043 127.42 157.753C127.598 157.463 127.843 157.219 128.133 157.041Z" fill="#E0E0E0" style="fill:#E0E0E0;fill:color(display-p3 0.8784 0.8784 0.8784);fill-opacity:1;"/>
<path d="M128.133 161.398L146.883 150.575C147.436 150.252 147.907 150.482 147.907 151.087C147.88 151.426 147.774 151.754 147.596 152.045C147.418 152.335 147.173 152.578 146.883 152.756L128.133 163.585C127.58 163.902 127.109 163.677 127.109 163.073C127.136 162.733 127.243 162.404 127.421 162.113C127.599 161.822 127.843 161.577 128.133 161.398Z" fill="#FAFAFA" style="fill:#FAFAFA;fill:color(display-p3 0.9804 0.9804 0.9804);fill-opacity:1;"/>
<path d="M128.133 161.399L134.789 157.559C135.342 157.241 135.813 157.467 135.813 158.071C135.786 158.41 135.678 158.738 135.501 159.028C135.323 159.318 135.079 159.562 134.789 159.74L128.133 163.58C127.58 163.897 127.109 163.672 127.109 163.068C127.137 162.729 127.244 162.401 127.422 162.111C127.6 161.821 127.843 161.577 128.133 161.399Z" fill="#F7921E" style="fill:#F7921E;fill:color(display-p3 0.9686 0.5725 0.1176);fill-opacity:1;"/>
<path d="M128.133 178.822L146.883 167.998C147.436 167.676 147.907 167.906 147.907 168.51C147.879 168.85 147.772 169.177 147.594 169.467C147.416 169.757 147.172 170.001 146.883 170.18L128.133 181.003C127.58 181.326 127.109 181.095 127.109 180.491C127.137 180.152 127.244 179.824 127.422 179.534C127.6 179.244 127.843 179 128.133 178.822Z" fill="#FAFAFA" style="fill:#FAFAFA;fill:color(display-p3 0.9804 0.9804 0.9804);fill-opacity:1;"/>
<path d="M128.133 178.822L144.993 169.094C145.551 168.771 146.017 169.002 146.017 169.606C145.991 169.946 145.884 170.275 145.706 170.566C145.528 170.857 145.284 171.101 144.993 171.28L128.133 181.008C127.58 181.33 127.109 181.1 127.109 180.496C127.136 180.156 127.243 179.827 127.421 179.536C127.599 179.245 127.843 179 128.133 178.822Z" fill="#F7921E" style="fill:#F7921E;fill:color(display-p3 0.9686 0.5725 0.1176);fill-opacity:1;"/>
<path d="M194.048 36.0559L151.649 60.5398V173.866L194.048 149.382C194.344 149.193 194.591 148.937 194.769 148.635C194.947 148.332 195.051 147.992 195.072 147.641V36.6396C195.072 35.9945 194.622 35.7385 194.048 36.0559Z" fill="#FAFAFA" style="fill:#FAFAFA;fill:color(display-p3 0.9804 0.9804 0.9804);fill-opacity:1;"/>
<path d="M151.665 64.8969V73.6163L147.886 77.9734H151.66L151.665 86.6927L191.299 63.8063V42.0156L151.665 64.8969Z" fill="#F7921E" style="fill:#F7921E;fill:color(display-p3 0.9686 0.5725 0.1176);fill-opacity:1;"/>
<path d="M156.846 65.1988L172.903 55.9316C173.681 55.4811 174.311 55.8446 174.311 56.7457C174.289 57.2395 174.151 57.721 173.906 58.1503C173.661 58.5795 173.317 58.9441 172.903 59.2135L156.846 68.4859C156.068 68.9364 155.438 68.5729 155.438 67.6718C155.459 67.1773 155.598 66.6951 155.843 66.265C156.088 65.8349 156.432 65.4694 156.846 65.1988Z" fill="#FAFAFA" style="fill:#FAFAFA;fill:color(display-p3 0.9804 0.9804 0.9804);fill-opacity:1;"/>
<path d="M155.94 72.2335L187.018 54.3135C187.3 54.1497 187.53 54.2674 187.53 54.5644C187.518 54.7349 187.464 54.8999 187.375 55.0459C187.286 55.1918 187.164 55.3146 187.018 55.4041L155.94 73.3241C155.663 73.4828 155.428 73.3701 155.428 73.0681C155.442 72.8987 155.496 72.735 155.585 72.5901C155.674 72.4452 155.795 72.3231 155.94 72.2335Z" fill="#FAFAFA" style="fill:#FAFAFA;fill:color(display-p3 0.9804 0.9804 0.9804);fill-opacity:1;"/>
<path d="M155.94 75.5055L187.018 57.5855C187.3 57.4268 187.53 57.5394 187.53 57.8415C187.518 58.0115 187.466 58.1762 187.377 58.3214C187.287 58.4667 187.165 58.5884 187.018 58.6761L155.94 76.5961C155.663 76.7548 155.428 76.6421 155.428 76.3401C155.441 76.1704 155.494 76.0062 155.583 75.8611C155.672 75.716 155.795 75.5942 155.94 75.5055Z" fill="#FAFAFA" style="fill:#FAFAFA;fill:color(display-p3 0.9804 0.9804 0.9804);fill-opacity:1;"/>
<path d="M155.94 78.7721L187.018 60.8521C187.3 60.6882 187.53 60.806 187.53 61.103C187.518 61.273 187.466 61.4376 187.377 61.5829C187.287 61.7282 187.165 61.8498 187.018 61.9375L155.94 79.8831C155.663 80.0418 155.428 79.9292 155.428 79.6271C155.439 79.4542 155.492 79.2864 155.581 79.1377C155.67 78.989 155.793 78.8637 155.94 78.7721Z" fill="#FAFAFA" style="fill:#FAFAFA;fill:color(display-p3 0.9804 0.9804 0.9804);fill-opacity:1;"/>
<path d="M157.112 87.9163L159.278 86.6619C159.719 86.4059 160.082 86.6158 160.082 87.1278V89.6264C160.067 89.9061 159.986 90.1783 159.847 90.4211C159.707 90.6639 159.512 90.8705 159.278 91.0241L157.112 92.2734C156.667 92.5294 156.309 92.3195 156.309 91.8075V89.3089C156.323 89.0299 156.404 88.7582 156.543 88.5162C156.683 88.2741 156.878 88.0686 157.112 87.9163Z" fill="#F7921E" style="fill:#F7921E;fill:color(display-p3 0.9686 0.5725 0.1176);fill-opacity:1;"/>
<path d="M162.975 85.6173L176.062 78.0602C176.62 77.7427 177.086 77.968 177.086 78.5722C177.059 78.9116 176.953 79.2399 176.775 79.53C176.597 79.8202 176.352 80.064 176.062 80.2413L162.975 87.7984C162.417 88.1158 161.951 87.8906 161.951 87.2864C161.978 86.9472 162.085 86.6192 162.263 86.3292C162.441 86.0391 162.685 85.7952 162.975 85.6173Z" fill="#455A64" style="fill:#455A64;fill:color(display-p3 0.2706 0.3529 0.3922);fill-opacity:1;"/>
<path d="M156.81 95.7193L189.778 76.6832C190.055 76.5244 190.29 76.6371 190.29 76.9392C190.277 77.1089 190.224 77.273 190.135 77.4181C190.046 77.5632 189.923 77.6851 189.778 77.7737L156.81 96.8099C156.534 96.9686 156.298 96.856 156.298 96.5539C156.313 96.3845 156.367 96.2208 156.455 96.0759C156.544 95.931 156.666 95.8089 156.81 95.7193Z" fill="#455A64" style="fill:#455A64;fill:color(display-p3 0.2706 0.3529 0.3922);fill-opacity:1;"/>
<path d="M156.81 98.9908L189.778 79.9547C190.055 79.7908 190.29 79.9035 190.29 80.2055C190.277 80.3752 190.224 80.5394 190.135 80.6845C190.046 80.8296 189.923 80.9514 189.778 81.0401L156.81 100.076C156.534 100.24 156.298 100.127 156.298 99.8254C156.312 99.6557 156.365 99.4915 156.454 99.3464C156.543 99.2013 156.665 99.0795 156.81 98.9908Z" fill="#455A64" style="fill:#455A64;fill:color(display-p3 0.2706 0.3529 0.3922);fill-opacity:1;"/>
<path d="M156.81 102.257L189.778 83.2212C190.055 83.0625 190.29 83.1752 190.29 83.4772C190.276 83.6466 190.222 83.8103 190.133 83.9552C190.044 84.1001 189.923 84.2222 189.778 84.3118L156.81 103.348C156.534 103.507 156.298 103.394 156.298 103.092C156.312 102.922 156.365 102.758 156.454 102.613C156.543 102.468 156.665 102.346 156.81 102.257Z" fill="#455A64" style="fill:#455A64;fill:color(display-p3 0.2706 0.3529 0.3922);fill-opacity:1;"/>
<path d="M156.81 105.534L189.778 86.4981C190.055 86.3394 190.29 86.452 190.29 86.7541C190.277 86.9238 190.224 87.088 190.135 87.233C190.046 87.3781 189.923 87.5 189.778 87.5887L156.81 106.625C156.534 106.789 156.298 106.671 156.298 106.374C156.312 106.204 156.365 106.039 156.454 105.893C156.543 105.747 156.665 105.624 156.81 105.534Z" fill="#455A64" style="fill:#455A64;fill:color(display-p3 0.2706 0.3529 0.3922);fill-opacity:1;"/>
<path d="M157.112 111.888L159.278 110.639C159.719 110.383 160.082 110.588 160.082 111.1V113.603C160.066 113.882 159.985 114.153 159.846 114.395C159.706 114.637 159.512 114.843 159.278 114.996L157.112 116.245C156.667 116.501 156.309 116.297 156.309 115.779V113.281C156.323 113.002 156.404 112.73 156.543 112.488C156.683 112.246 156.878 112.041 157.112 111.888Z" fill="#F7921E" style="fill:#F7921E;fill:color(display-p3 0.9686 0.5725 0.1176);fill-opacity:1;"/>
<path d="M162.975 109.589L176.062 102.037C176.62 101.714 177.086 101.945 177.086 102.549C177.061 102.889 176.954 103.218 176.776 103.508C176.598 103.798 176.353 104.042 176.062 104.218L162.975 111.775C162.417 112.098 161.951 111.867 161.951 111.263C161.977 110.923 162.084 110.594 162.262 110.303C162.44 110.012 162.684 109.767 162.975 109.589Z" fill="#455A64" style="fill:#455A64;fill:color(display-p3 0.2706 0.3529 0.3922);fill-opacity:1;"/>
<path d="M156.81 119.691L189.778 100.655C190.055 100.496 190.29 100.609 190.29 100.911C190.277 101.081 190.224 101.245 190.135 101.39C190.046 101.535 189.923 101.657 189.778 101.745L156.81 120.782C156.534 120.945 156.298 120.828 156.298 120.531C156.312 120.36 156.365 120.196 156.454 120.05C156.543 119.904 156.665 119.781 156.81 119.691Z" fill="#455A64" style="fill:#455A64;fill:color(display-p3 0.2706 0.3529 0.3922);fill-opacity:1;"/>
<path d="M156.81 122.963L189.778 103.927C190.055 103.763 190.29 103.881 190.29 104.178C190.276 104.348 190.223 104.513 190.134 104.658C190.045 104.804 189.923 104.927 189.778 105.017L156.81 124.053C156.534 124.212 156.298 124.1 156.298 123.797C156.312 123.628 156.365 123.464 156.454 123.319C156.543 123.173 156.665 123.052 156.81 122.963Z" fill="#455A64" style="fill:#455A64;fill:color(display-p3 0.2706 0.3529 0.3922);fill-opacity:1;"/>
<path d="M156.81 126.229L189.778 107.193C190.055 107.034 190.29 107.147 190.29 107.449C190.277 107.619 190.224 107.783 190.135 107.928C190.046 108.073 189.923 108.195 189.778 108.283L156.81 127.309C156.534 127.473 156.298 127.355 156.298 127.053C156.314 126.886 156.369 126.724 156.458 126.581C156.546 126.438 156.667 126.318 156.81 126.229Z" fill="#455A64" style="fill:#455A64;fill:color(display-p3 0.2706 0.3529 0.3922);fill-opacity:1;"/>
<path d="M156.81 129.511L189.778 110.475C190.055 110.311 190.29 110.424 190.29 110.726C190.277 110.896 190.224 111.06 190.135 111.205C190.046 111.35 189.923 111.472 189.778 111.561L156.81 130.597C156.534 130.761 156.298 130.648 156.298 130.346C156.312 130.176 156.365 130.012 156.454 129.867C156.543 129.722 156.665 129.6 156.81 129.511Z" fill="#455A64" style="fill:#455A64;fill:color(display-p3 0.2706 0.3529 0.3922);fill-opacity:1;"/>
<path d="M160.195 134.288L162.36 133.039C162.806 132.783 163.164 132.993 163.164 133.505V136.014C163.15 136.293 163.069 136.564 162.929 136.806C162.79 137.048 162.595 137.254 162.36 137.406L160.195 138.661C159.749 138.917 159.391 138.707 159.391 138.195V135.691C159.404 135.41 159.484 135.136 159.623 134.893C159.763 134.649 159.959 134.441 160.195 134.288Z" fill="#F7921E" style="fill:#F7921E;fill:color(display-p3 0.9686 0.5725 0.1176);fill-opacity:1;"/>
<path d="M156.81 142.782L165.745 137.626C166.021 137.463 166.257 137.58 166.257 137.877C166.244 138.047 166.19 138.211 166.101 138.356C166.012 138.501 165.89 138.623 165.745 138.712L156.81 143.873C156.534 144.032 156.298 143.919 156.298 143.617C156.312 143.447 156.365 143.283 156.454 143.138C156.543 142.993 156.665 142.871 156.81 142.782Z" fill="#455A64" style="fill:#455A64;fill:color(display-p3 0.2706 0.3529 0.3922);fill-opacity:1;"/>
<path d="M172.211 127.345L174.377 126.096C174.823 125.84 175.181 126.045 175.181 126.562V129.06C175.166 129.339 175.086 129.611 174.946 129.853C174.806 130.095 174.611 130.301 174.377 130.453L172.211 131.702C171.766 131.963 171.407 131.754 171.407 131.242V128.738C171.422 128.459 171.503 128.187 171.642 127.945C171.782 127.703 171.977 127.497 172.211 127.345Z" fill="#F7921E" style="fill:#F7921E;fill:color(display-p3 0.9686 0.5725 0.1176);fill-opacity:1;"/>
<path d="M168.827 135.839L177.761 130.684C178.038 130.52 178.273 130.638 178.273 130.934C178.26 131.104 178.207 131.268 178.118 131.413C178.029 131.559 177.907 131.68 177.761 131.769L168.827 136.93C168.55 137.089 168.315 136.976 168.315 136.674C168.328 136.504 168.381 136.34 168.47 136.195C168.559 136.05 168.682 135.928 168.827 135.839Z" fill="#455A64" style="fill:#455A64;fill:color(display-p3 0.2706 0.3529 0.3922);fill-opacity:1;"/>
<path d="M184.228 120.403L186.394 119.154C186.839 118.898 187.198 119.102 187.198 119.619V122.118C187.183 122.397 187.102 122.669 186.963 122.911C186.823 123.153 186.628 123.358 186.394 123.511L184.228 124.75C183.782 125.006 183.424 124.801 183.424 124.289V121.785C183.44 121.508 183.521 121.238 183.661 120.998C183.801 120.758 183.995 120.554 184.228 120.403Z" fill="#F7921E" style="fill:#F7921E;fill:color(display-p3 0.9686 0.5725 0.1176);fill-opacity:1;"/>
<path d="M180.844 128.897L189.778 123.726C190.054 123.562 190.29 123.674 190.29 123.977C190.277 124.146 190.223 124.31 190.134 124.455C190.045 124.601 189.923 124.722 189.778 124.811L180.844 129.972C180.567 130.131 180.332 130.018 180.332 129.716C180.347 129.549 180.401 129.388 180.49 129.246C180.579 129.103 180.7 128.984 180.844 128.897Z" fill="#455A64" style="fill:#455A64;fill:color(display-p3 0.2706 0.3529 0.3922);fill-opacity:1;"/>
<path d="M156.81 144.912L165.745 139.751C166.021 139.592 166.257 139.705 166.257 140.007C166.244 140.177 166.19 140.341 166.101 140.486C166.012 140.631 165.89 140.753 165.745 140.842L156.81 145.997C156.534 146.161 156.298 146.049 156.298 145.747C156.312 145.577 156.365 145.413 156.454 145.268C156.543 145.123 156.665 145.001 156.81 144.912Z" fill="#455A64" style="fill:#455A64;fill:color(display-p3 0.2706 0.3529 0.3922);fill-opacity:1;"/>
<path d="M168.827 137.97L177.761 132.809C178.038 132.65 178.273 132.763 178.273 133.065C178.26 133.234 178.207 133.399 178.118 133.544C178.029 133.689 177.907 133.811 177.761 133.899L168.827 139.055C168.55 139.219 168.315 139.101 168.315 138.804C168.328 138.634 168.381 138.47 168.47 138.325C168.559 138.18 168.682 138.058 168.827 137.97Z" fill="#455A64" style="fill:#455A64;fill:color(display-p3 0.2706 0.3529 0.3922);fill-opacity:1;"/>
<path d="M180.844 131.022L189.778 125.866C190.054 125.707 190.29 125.82 190.29 126.122C190.277 126.291 190.223 126.456 190.134 126.601C190.045 126.746 189.923 126.868 189.778 126.956L180.844 132.112C180.567 132.276 180.332 132.158 180.332 131.861C180.345 131.691 180.399 131.526 180.488 131.38C180.576 131.235 180.698 131.112 180.844 131.022Z" fill="#455A64" style="fill:#455A64;fill:color(display-p3 0.2706 0.3529 0.3922);fill-opacity:1;"/>
<path d="M156.81 147.037L165.745 141.881C166.021 141.722 166.257 141.835 166.257 142.137C166.242 142.306 166.189 142.47 166.1 142.615C166.011 142.76 165.889 142.882 165.745 142.971L156.81 148.127C156.534 148.286 156.298 148.173 156.298 147.871C156.313 147.702 156.367 147.538 156.455 147.393C156.544 147.248 156.666 147.126 156.81 147.037Z" fill="#455A64" style="fill:#455A64;fill:color(display-p3 0.2706 0.3529 0.3922);fill-opacity:1;"/>
<path d="M168.827 140.11L177.761 134.954C178.038 134.795 178.273 134.908 178.273 135.21C178.259 135.379 178.205 135.543 178.116 135.688C178.027 135.833 177.906 135.955 177.761 136.044L168.827 141.185C168.55 141.343 168.315 141.231 168.315 140.929C168.331 140.762 168.386 140.601 168.475 140.459C168.564 140.317 168.684 140.197 168.827 140.11Z" fill="#455A64" style="fill:#455A64;fill:color(display-p3 0.2706 0.3529 0.3922);fill-opacity:1;"/>
<path d="M180.844 133.151L189.778 127.996C190.054 127.832 190.29 127.95 190.29 128.247C190.276 128.417 190.223 128.581 190.134 128.727C190.045 128.873 189.923 128.996 189.778 129.086L180.844 134.242C180.567 134.401 180.332 134.288 180.332 133.986C180.345 133.816 180.398 133.652 180.487 133.507C180.576 133.362 180.698 133.24 180.844 133.151Z" fill="#455A64" style="fill:#455A64;fill:color(display-p3 0.2706 0.3529 0.3922);fill-opacity:1;"/>
<path d="M160.195 152.188L162.36 150.933C162.806 150.677 163.164 150.887 163.164 151.399V153.903C163.15 154.182 163.069 154.454 162.929 154.696C162.79 154.938 162.595 155.143 162.36 155.296L160.195 156.545C159.749 156.801 159.391 156.591 159.391 156.079V153.58C159.406 153.301 159.486 153.03 159.626 152.788C159.765 152.546 159.96 152.34 160.195 152.188Z" fill="#F7921E" style="fill:#F7921E;fill:color(display-p3 0.9686 0.5725 0.1176);fill-opacity:1;"/>
<path d="M156.81 160.676L165.745 155.521C166.021 155.362 166.257 155.474 166.257 155.777C166.244 155.946 166.19 156.11 166.101 156.255C166.012 156.401 165.89 156.522 165.745 156.611L156.81 161.767C156.534 161.931 156.298 161.813 156.298 161.516C156.312 161.346 156.365 161.181 156.454 161.035C156.543 160.889 156.665 160.766 156.81 160.676Z" fill="#455A64" style="fill:#455A64;fill:color(display-p3 0.2706 0.3529 0.3922);fill-opacity:1;"/>
<path d="M172.211 145.23L174.377 143.975C174.823 143.719 175.181 143.929 175.181 144.441V146.94C175.167 147.22 175.086 147.492 174.947 147.735C174.807 147.978 174.612 148.185 174.377 148.338L172.211 149.587C171.766 149.843 171.407 149.633 171.407 149.121V146.622C171.422 146.343 171.503 146.072 171.642 145.83C171.782 145.588 171.977 145.382 172.211 145.23Z" fill="#F7921E" style="fill:#F7921E;fill:color(display-p3 0.9686 0.5725 0.1176);fill-opacity:1;"/>
<path d="M168.827 153.734L177.761 148.578C178.038 148.419 178.273 148.532 178.273 148.834C178.259 149.004 178.206 149.167 178.117 149.312C178.028 149.457 177.906 149.579 177.761 149.669L168.827 154.825C168.55 154.983 168.315 154.871 168.315 154.569C168.329 154.399 168.383 154.235 168.472 154.091C168.561 153.946 168.682 153.824 168.827 153.734Z" fill="#455A64" style="fill:#455A64;fill:color(display-p3 0.2706 0.3529 0.3922);fill-opacity:1;"/>
<path d="M184.228 138.297L186.394 137.048C186.839 136.792 187.198 137.002 187.198 137.514V140.012C187.183 140.292 187.102 140.564 186.963 140.807C186.823 141.05 186.628 141.257 186.394 141.41L184.228 142.669C183.782 142.925 183.424 142.715 183.424 142.203V139.705C183.437 139.423 183.517 139.149 183.657 138.904C183.796 138.659 183.992 138.451 184.228 138.297Z" fill="#F7921E" style="fill:#F7921E;fill:color(display-p3 0.9686 0.5725 0.1176);fill-opacity:1;"/>
<path d="M180.844 146.791L189.778 141.646C190.054 141.487 190.29 141.599 190.29 141.902C190.276 142.071 190.222 142.235 190.133 142.38C190.044 142.524 189.922 142.647 189.778 142.736L180.844 147.892C180.567 148.051 180.332 147.938 180.332 147.636C180.344 147.465 180.397 147.299 180.486 147.152C180.575 147.005 180.698 146.882 180.844 146.791Z" fill="#455A64" style="fill:#455A64;fill:color(display-p3 0.2706 0.3529 0.3922);fill-opacity:1;"/>
<path d="M156.81 162.807L165.745 157.651C166.021 157.487 166.257 157.605 166.257 157.902C166.243 158.072 166.19 158.237 166.101 158.383C166.012 158.528 165.89 158.651 165.745 158.741L156.81 163.897C156.534 164.056 156.298 163.943 156.298 163.641C156.312 163.472 156.365 163.307 156.454 163.162C156.543 163.017 156.665 162.895 156.81 162.807Z" fill="#455A64" style="fill:#455A64;fill:color(display-p3 0.2706 0.3529 0.3922);fill-opacity:1;"/>
<path d="M168.827 155.864L177.761 150.708C178.038 150.544 178.273 150.662 178.273 150.959C178.26 151.129 178.207 151.293 178.118 151.438C178.029 151.583 177.907 151.705 177.761 151.793L168.827 156.954C168.55 157.113 168.315 157.001 168.315 156.698C168.328 156.529 168.381 156.365 168.47 156.219C168.559 156.074 168.682 155.953 168.827 155.864Z" fill="#455A64" style="fill:#455A64;fill:color(display-p3 0.2706 0.3529 0.3922);fill-opacity:1;"/>
<path d="M180.844 148.921L189.778 143.765C190.054 143.601 190.29 143.719 190.29 144.016C190.277 144.186 190.223 144.35 190.134 144.495C190.045 144.64 189.923 144.762 189.778 144.851L180.844 150.012C180.567 150.17 180.332 150.058 180.332 149.756C180.345 149.586 180.398 149.422 180.487 149.277C180.576 149.132 180.698 149.01 180.844 148.921Z" fill="#455A64" style="fill:#455A64;fill:color(display-p3 0.2706 0.3529 0.3922);fill-opacity:1;"/>
<path d="M156.81 164.936L165.745 159.775C166.021 159.617 166.257 159.729 166.257 160.031C166.244 160.201 166.19 160.365 166.101 160.51C166.012 160.655 165.89 160.777 165.745 160.866L156.81 166.027C156.534 166.186 156.298 166.073 156.298 165.771C156.312 165.601 156.365 165.437 156.454 165.292C156.543 165.147 156.665 165.025 156.81 164.936Z" fill="#455A64" style="fill:#455A64;fill:color(display-p3 0.2706 0.3529 0.3922);fill-opacity:1;"/>
<path d="M168.827 157.994L177.761 152.833C178.038 152.674 178.273 152.786 178.273 153.089C178.26 153.258 178.207 153.422 178.118 153.568C178.029 153.713 177.907 153.834 177.761 153.923L168.827 159.079C168.55 159.243 168.315 159.13 168.315 158.828C168.328 158.658 168.381 158.494 168.47 158.349C168.559 158.204 168.682 158.082 168.827 157.994Z" fill="#455A64" style="fill:#455A64;fill:color(display-p3 0.2706 0.3529 0.3922);fill-opacity:1;"/>
<path d="M180.844 151.051L189.778 145.89C190.054 145.731 190.29 145.844 190.29 146.146C190.277 146.316 190.223 146.48 190.134 146.625C190.045 146.77 189.923 146.892 189.778 146.981L180.844 152.137C180.567 152.3 180.332 152.183 180.332 151.886C180.345 151.716 180.398 151.552 180.487 151.407C180.576 151.262 180.698 151.14 180.844 151.051Z" fill="#455A64" style="fill:#455A64;fill:color(display-p3 0.2706 0.3529 0.3922);fill-opacity:1;"/>
<path d="M136.566 73.6417C141.788 70.6261 146.023 73.0734 146.023 79.1048C146.023 85.1361 141.788 92.4731 136.566 95.4888C131.344 98.5045 127.104 96.0571 127.104 90.0257C127.104 83.9944 131.338 76.6574 136.566 73.6417Z" fill="#E0E0E0" style="fill:#E0E0E0;fill:color(display-p3 0.8784 0.8784 0.8784);fill-opacity:1;"/>
<path d="M136.566 78.3931C138.261 77.41 139.638 78.2036 139.638 80.1646C139.58 81.2296 139.272 82.266 138.738 83.1895C138.204 84.113 137.46 84.8974 136.566 85.4791C134.871 86.4571 133.494 85.6635 133.494 83.7076C133.552 82.6425 133.86 81.6061 134.394 80.6827C134.928 79.7592 135.672 78.9748 136.566 78.3931Z" fill="#FAFAFA" style="fill:#FAFAFA;fill:color(display-p3 0.9804 0.9804 0.9804);fill-opacity:1;"/>
<path d="M142.546 88.8275C142.546 85.6121 140.288 84.3065 137.503 85.9142L135.762 86.9382C132.977 88.5459 130.724 92.4576 130.724 95.6729V96.5382C132.332 97.0502 134.359 96.784 136.566 95.5142C138.985 94.0238 141.031 91.9991 142.546 89.5955V88.8275Z" fill="#FAFAFA" style="fill:#FAFAFA;fill:color(display-p3 0.9804 0.9804 0.9804);fill-opacity:1;"/>
<path d="M130.965 111.023L144.051 103.466C144.604 103.148 145.075 103.374 145.075 103.978C145.048 104.317 144.941 104.645 144.763 104.935C144.585 105.225 144.341 105.469 144.051 105.647L130.965 113.204C130.407 113.522 129.941 113.296 129.941 112.692C129.968 112.353 130.075 112.025 130.253 111.735C130.431 111.445 130.675 111.201 130.965 111.023Z" fill="#E0E0E0" style="fill:#E0E0E0;fill:color(display-p3 0.8784 0.8784 0.8784);fill-opacity:1;"/>
</svg>
