<svg width="256" height="256" viewBox="0 0 256 256" fill="none" xmlns="http://www.w3.org/2000/svg">
<path d="M127.999 129.879C155.817 129.879 180.978 136.39 199.166 146.891C217.367 157.4 228.497 171.842 228.497 187.69C228.497 203.537 217.367 217.979 199.166 228.488C180.978 238.989 155.817 245.499 127.999 245.5C100.181 245.5 75.0204 238.989 56.832 228.488C38.6306 217.979 27.5001 203.537 27.5 187.69C27.5 171.842 38.6304 157.4 56.832 146.891C75.0204 136.39 100.181 129.879 127.999 129.879Z" stroke="#D5D5D5"/>
<path d="M36.9955 88.4421C35.8009 91.3994 35.0886 94.5292 34.8857 97.7122C34.2815 104.792 36.7737 125.036 38.2274 135.321C40.3184 152.516 42.8766 152.544 46.6054 155.424C53.0105 160.37 71.4421 170.056 77.5261 172.472C88.5568 176.81 97.572 170.112 104.293 166.808C110.456 163.692 116.406 160.169 122.102 156.264C123.782 155.037 124.651 153.8 124.636 152.488C124.636 151.978 124.636 149.864 124.636 149.321C124.636 147.659 123.173 145.88 120.086 143.879C114.389 140.183 93.8007 128.175 85.8192 123.757C85.8172 123.74 85.8096 123.725 85.7976 123.713C85.7856 123.701 85.7699 123.693 85.7531 123.691C79.6171 119.962 75.8411 97.4243 71.5931 83.944C71.5034 83.6608 71.4137 83.3776 71.3193 83.1085C71.2249 82.8395 71.1683 82.6837 71.0975 82.4808C70.8285 81.7492 70.5547 81.0648 70.2621 80.4653" fill="#F7921E"/>
<path d="M124.636 149.316C124.636 147.655 123.172 145.875 120.086 143.874C114.389 140.178 93.7999 128.17 85.8184 123.753C85.8164 123.736 85.8088 123.72 85.7968 123.708C85.7848 123.696 85.7691 123.688 85.7523 123.686C79.6163 119.958 75.8403 97.4196 71.5923 83.9393C71.3388 83.0988 71.0427 82.2717 70.7049 81.4613L70.6247 81.282C70.5492 81.1026 70.4689 80.9185 70.384 80.7344C70.3415 80.6448 70.3037 80.5456 70.2612 80.4607C69.5916 78.9244 68.6298 77.533 67.4292 76.3637C67.0055 75.9732 66.5288 75.6442 66.0132 75.3867C65.3241 74.9949 63.8751 74.1878 63.5116 73.9707C59.3392 71.4785 53.8734 74.471 47.0577 78.2187C42.8097 80.5409 39.1989 83.3068 36.9994 88.4516C35.8048 91.4089 35.0925 94.5387 34.8896 97.7217C34.2854 104.802 36.7776 125.046 38.2313 135.331C40.3223 152.526 42.8805 152.554 46.6093 155.433C53.0144 160.38 71.446 170.065 77.53 172.482C88.5607 176.819 97.5759 170.122 104.297 166.818C110.46 163.701 116.409 160.178 122.106 156.273C123.786 155.046 124.655 153.809 124.64 152.497C124.621 151.973 124.636 149.859 124.636 149.316Z" fill="#F7921E"/>
<path opacity="0.25" d="M124.636 149.316C124.636 147.655 123.172 145.875 120.086 143.874C114.389 140.178 93.7999 128.17 85.8184 123.753C85.8164 123.736 85.8088 123.72 85.7968 123.708C85.7848 123.696 85.7691 123.688 85.7523 123.686C79.6163 119.958 75.8403 97.4196 71.5923 83.9393C71.3388 83.0988 71.0427 82.2717 70.7049 81.4613L70.6247 81.282C70.5492 81.1026 70.4689 80.9185 70.384 80.7344C70.3415 80.6448 70.3037 80.5456 70.2612 80.4607C69.5916 78.9244 68.6298 77.533 67.4292 76.3637C67.0055 75.9732 66.5288 75.6442 66.0132 75.3867C65.3241 74.9949 63.8751 74.1878 63.5116 73.9707C59.3392 71.4785 53.8734 74.471 47.0577 78.2187C42.8097 80.5409 39.1989 83.3068 36.9994 88.4516C35.8048 91.4089 35.0925 94.5387 34.8896 97.7217C34.2854 104.802 36.7776 125.046 38.2313 135.331C40.3223 152.526 42.8805 152.554 46.6093 155.433C53.0144 160.38 71.446 170.065 77.53 172.482C88.5607 176.819 97.5759 170.122 104.297 166.818C110.46 163.701 116.409 160.178 122.106 156.273C123.786 155.046 124.655 153.809 124.64 152.497C124.621 151.973 124.636 149.859 124.636 149.316Z" fill="white"/>
<path d="M104.289 163.598C110.452 160.48 116.401 156.956 122.097 153.049C125.921 150.269 125.567 147.428 120.087 143.874C112.473 138.936 81.4441 121.326 81.4441 121.326C81.4441 121.326 42.2115 144.482 43.8965 148.768C45.5816 153.054 69.8565 166.275 77.5171 169.281C88.5524 173.61 97.5676 166.917 104.289 163.598Z" fill="#F7921E"/>
<path opacity="0.6" d="M104.289 163.598C110.452 160.48 116.401 156.956 122.097 153.049C125.921 150.269 125.567 147.428 120.087 143.874C112.473 138.936 81.4441 121.326 81.4441 121.326C81.4441 121.326 42.2115 144.482 43.8965 148.768C45.5816 153.054 69.8565 166.275 77.5171 169.281C88.5524 173.61 97.5676 166.917 104.289 163.598Z" fill="white"/>
<path d="M66.0099 75.3866C61.8799 73.2201 56.5133 76.1654 49.877 79.7998C45.629 82.1315 41.9993 84.8974 39.7998 90.0658L36.9961 88.4421C39.1956 83.2973 42.8111 80.5314 47.0544 78.2091C53.8701 74.4756 59.3264 71.4831 63.5083 73.9611C63.8718 74.1924 65.3208 74.9948 66.0099 75.3866Z" fill="#F7921E"/>
<path opacity="0.5" d="M66.0099 75.3866C61.8799 73.2201 56.5133 76.1654 49.877 79.7998C45.629 82.1315 41.9993 84.8974 39.7998 90.0658L36.9961 88.4421C39.1956 83.2973 42.8111 80.5314 47.0544 78.2091C53.8701 74.4756 59.3264 71.4831 63.5083 73.9611C63.8718 74.1924 65.3208 74.9948 66.0099 75.3866Z" fill="white"/>
<path d="M71.5746 83.9392C71.4849 83.656 70.0642 78.7094 67.4021 76.3636C66.1536 75.2535 64.5367 74.6478 62.8662 74.6644C59.2601 74.6644 54.9318 77.0244 49.8578 79.8234C49.433 80.0546 49.013 80.2954 48.6023 80.5361C48.4418 80.6258 48.2861 80.7249 48.1303 80.8193C47.9746 80.9137 47.7527 81.0506 47.5686 81.1733C47.3846 81.296 47.2949 81.3432 47.158 81.4376C46.2625 82.0276 45.4078 82.6773 44.5998 83.3822C44.4676 83.4955 44.3449 83.6088 44.2174 83.7315C43.7049 84.2041 43.221 84.7069 42.7684 85.2372C42.6834 85.3316 42.5985 85.4307 42.523 85.5251C42.4474 85.6195 42.3247 85.7611 42.235 85.8838C42.1454 86.0066 42.051 86.1293 41.9566 86.252C41.8622 86.3747 41.7772 86.4974 41.6875 86.6296C41.3252 87.147 40.9897 87.6827 40.6822 88.2344C40.6382 88.3042 40.5988 88.3767 40.5642 88.4515C40.4792 88.5978 40.399 88.7536 40.3234 88.9235C40.2479 89.0934 40.1016 89.3955 39.993 89.6032C38.8366 92.152 38.0342 95.305 37.6944 99.3217C36.7126 110.994 40.8049 146.777 44.8169 150.104C44.8169 150.104 44.2033 146.328 52.2745 141.249C57.7638 137.799 61.6154 134.896 67.4729 132.022C81.7462 125.013 85.744 123.7 85.744 123.7C79.6174 119.976 75.8273 97.4195 71.5746 83.9392Z" fill="#F7921E"/>
<path opacity="0.4" d="M71.5746 83.9392C71.4849 83.656 70.0642 78.7094 67.4021 76.3636C66.1536 75.2535 64.5367 74.6478 62.8662 74.6644C59.2601 74.6644 54.9318 77.0244 49.8578 79.8234C49.433 80.0546 49.013 80.2954 48.6023 80.5361C48.4418 80.6258 48.2861 80.7249 48.1303 80.8193C47.9746 80.9137 47.7527 81.0506 47.5686 81.1733C47.3846 81.296 47.2949 81.3432 47.158 81.4376C46.2625 82.0276 45.4078 82.6773 44.5998 83.3822C44.4676 83.4955 44.3449 83.6088 44.2174 83.7315C43.7049 84.2041 43.221 84.7069 42.7684 85.2372C42.6834 85.3316 42.5985 85.4307 42.523 85.5251C42.4474 85.6195 42.3247 85.7611 42.235 85.8838C42.1454 86.0066 42.051 86.1293 41.9566 86.252C41.8622 86.3747 41.7772 86.4974 41.6875 86.6296C41.3252 87.147 40.9897 87.6827 40.6822 88.2344C40.6382 88.3042 40.5988 88.3767 40.5642 88.4515C40.4792 88.5978 40.399 88.7536 40.3234 88.9235C40.2479 89.0934 40.1016 89.3955 39.993 89.6032C38.8366 92.152 38.0342 95.305 37.6944 99.3217C36.7126 110.994 40.8049 146.777 44.8169 150.104C44.8169 150.104 44.2033 146.328 52.2745 141.249C57.7638 137.799 61.6154 134.896 67.4729 132.022C81.7462 125.013 85.744 123.7 85.744 123.7C79.6174 119.976 75.8273 97.4195 71.5746 83.9392Z" fill="white"/>
<path d="M128.301 143.576L95.2608 162.654L70.7734 133.862L96.219 121.789C96.219 121.789 117.001 132.829 128.301 143.576Z" fill="#37474F"/>
<path d="M111.433 153.304L99.0386 160.459C93.1622 151.298 88.4375 143.534 88.4375 143.534L89.4995 143.359C95.2626 140.834 97.6179 129.416 97.6179 129.416C98.3212 132.536 98.4486 138.856 96.5229 141.216C99.2085 143.184 103.608 146.79 111.433 153.304Z" fill="#263238"/>
<path d="M109.474 154.432L83.5562 169.395C80.4363 167.813 77.0002 166.043 73.4413 164.203C61.3958 157.868 57.365 155.376 53.8958 150.996C49.9168 145.983 47.84 141.868 47.25 128L96.0784 121.864C100.123 132.404 94.1904 141.514 94.1904 141.514C94.1904 141.514 102.748 148.66 109.474 154.432Z" fill="#37474F"/>
<path d="M83.0039 68.7971C89.1021 68.7357 92.746 69.9346 97.027 76.4954C103.753 86.7992 108.756 96.4044 108.756 96.4044C108.756 96.4044 117.753 100.737 122.444 102.37C126.834 103.895 128.58 104.537 130.468 104.981C132.04 105.36 133.641 105.602 135.254 105.703C135.254 105.703 133.045 117.503 128.118 116.474C120.471 114.874 106.925 112.349 103.324 111.338C99.7221 110.328 98.528 108.573 95.0399 103.952C91.4905 99.2317 84.047 86.7284 84.047 86.7284L83.0039 68.7971Z" fill="#C8856A"/>
<path d="M83.0031 68.6084C88.5538 68.7217 90.6117 69.1418 93.2219 71.3932C95.8321 73.6446 98.3195 77.7699 100.656 81.5601C102.992 85.3502 107.231 92.553 107.231 92.553C107.231 92.553 106.32 96.5886 101.732 99.6707C97.1442 102.753 93.9393 103.145 93.9393 103.145L82.7812 87.1344L83.0031 68.6084Z" fill="#455A64"/>
<path d="M96.3384 88.6591C95.7012 74.9145 89.9711 69.4062 83.0044 68.6085C83.0044 68.6085 73.9231 68.2357 68.3724 69.0333C61.6275 70.0104 54.6513 71.7662 54.6513 71.7662C51.9515 73.0217 47.4628 83.6465 46.9766 93.3413C46.6273 100.228 46.3441 105.429 46.3441 114.138C46.3441 122.846 46.2828 126.929 47.7271 136.02C57.2284 139.663 89.8106 138.649 97.8913 122.686C96.6537 119.637 96.0653 116.364 96.1637 113.076C96.2298 108.459 96.5366 92.9779 96.3384 88.6591Z" fill="#F0F0F0"/>
<path d="M65.6272 63.5533C65.5375 59.664 62.3232 55.1517 61.1196 51.5928C59.9491 48.1661 59.3307 45.5465 59.9538 42.5776C60.3267 40.8171 61.7946 38.5704 63.187 38.2588C62.6253 31.4337 68.0297 29.0926 70.739 28.8472C72.0068 28.7744 73.2683 28.6168 74.515 28.3752C76.0348 27.9834 76.5257 26.8789 77.819 26.0718C80.0515 24.6558 83.4027 25.1278 84.3043 27.8607C85.876 26.3456 87.6602 26.6524 89.6567 27.4784C90.5013 27.8059 91.1902 28.4415 91.5844 29.2571C91.9786 30.0727 92.0488 31.0074 91.7807 31.8727C94.7779 30.7257 97.0341 33.0527 97.0483 34.7047C97.0483 35.9319 96.6565 36.9089 97.289 38.0984C97.997 39.4388 99.649 39.6607 100.324 38.7592C100.362 40.5056 99.5027 41.7092 97.6666 41.3457C97.9085 41.8629 98.0339 42.4268 98.0339 42.9977C98.0339 43.5686 97.9085 44.1326 97.6666 44.6497C97.3454 45.3012 96.833 45.8392 96.1979 46.1918C95.5628 46.5443 94.8352 46.6947 94.1124 46.6227C93.782 47.5336 93.6168 48.3832 92.9088 49.1054C92.2324 49.8451 91.3871 50.4103 90.445 50.7527C87.4478 51.6967 84.309 51.6589 81.1796 51.843L77.4886 52.0648C77.2762 52.0648 76.1811 51.9846 76.0254 52.1498L65.6272 63.5533Z" fill="#263238"/>
<path d="M61.7488 57.9743C64.1843 59.9567 66.2422 58.4935 66.2422 58.4935L64.2268 70.9827C65.5248 76.6467 74.5447 78.8792 78.0942 77.8503C81.6436 76.8213 81.5114 74.7823 79.7886 71.4688L80.3267 69.4723C81.8305 69.724 83.3486 69.8817 84.8721 69.9443C87.9023 69.9726 90.8334 67.4568 92.155 64.3605C93.6705 60.4561 94.3148 56.2678 94.043 52.0885C93.9602 51.0298 94.0608 49.9647 94.3404 48.9403C95.0295 46.2168 94.7652 44.5318 94.3923 42.101C91.499 38.9858 84.0602 36.9845 76.3714 40.246C76.5743 44.5695 74.455 47.6611 71.1794 48.8128C71.1794 49.9692 70.8773 52.8579 69.0223 52.5322C67.6818 52.2962 67.8423 50.597 66.6623 48.9119C65.4823 47.2269 62.3388 46.3584 60.7718 48.3644C58.5722 51.1209 59.0867 55.7843 61.7488 57.9743Z" fill="#C8856A"/>
<path d="M79.8533 59.782C79.6543 60.0189 79.5252 60.3065 79.4804 60.6127C79.4544 60.7483 79.4544 60.8877 79.4804 61.0233C79.5178 61.2253 79.6065 61.4143 79.7379 61.5721C79.8693 61.73 80.0391 61.8514 80.2309 61.9248C80.4549 62.0244 80.6987 62.0713 80.9436 62.0617C81.4162 61.9807 81.8562 61.768 82.2133 61.4481C82.577 61.1216 83.0346 60.9184 83.5208 60.8675C83.1135 60.6268 82.7295 60.3487 82.3738 60.0368C82.2004 59.9124 82.042 59.7682 81.9018 59.6073C81.7587 59.416 81.6279 59.2157 81.51 59.0079C81.4882 58.9586 81.4498 58.9185 81.4015 58.8946C81.3529 58.8756 81.299 58.8756 81.2504 58.8946C80.8212 59.0103 80.4209 59.2145 80.0752 59.494C79.9928 59.5832 79.9185 59.6796 79.8533 59.782Z" fill="#FFA8A7"/>
<path d="M82.1694 59.9662C82.0986 59.7444 81.8296 59.8246 81.6644 59.8671C81.4058 59.9332 81.1613 60.0451 80.9422 60.1975C80.8092 60.2905 80.6914 60.4035 80.5929 60.5326C80.506 60.672 80.4317 60.8189 80.3711 60.9715C80.3711 60.9715 80.3711 61.0235 80.3711 61.0046C80.4799 60.9118 80.5951 60.8266 80.7157 60.7497L81.0933 60.4995C81.3222 60.3603 81.5702 60.2553 81.8296 60.188C81.9665 60.1597 82.2166 60.1644 82.1694 59.9662Z" fill="#F28F8F"/>
<path d="M85.3867 58.1961L90.1586 57.337C88.8134 53.2778 86.8546 49.5113 85.4953 49.5254L85.3867 58.1961Z" fill="#AF6152"/>
<path d="M81.2417 58.6962C81.3235 58.6928 81.4048 58.7107 81.4777 58.7481C81.6898 58.8752 81.8808 59.0344 82.0441 59.2201C82.6873 59.8213 83.4341 60.3011 84.2483 60.6361C84.4228 60.7066 84.6008 60.7681 84.7817 60.8202L85.3953 61.0043C85.467 61.0169 85.533 61.0515 85.5841 61.1034C85.905 61.4857 84.7486 61.3347 84.6401 61.3158C84.1986 61.2489 83.7663 61.1317 83.3515 60.9665C82.514 60.6469 81.7751 60.1131 81.2086 59.4184C81.1153 59.3149 81.0488 59.1901 81.0151 59.0549C81 58.9867 81.0086 58.9154 81.0395 58.8528C81.0703 58.7901 81.1217 58.7399 81.185 58.7104C81.2026 58.7013 81.2219 58.6965 81.2417 58.6962Z" fill="#AF6152"/>
<path d="M80.327 69.4724C75.6872 68.2263 72.1755 67.1926 70.2167 63.4119C68.9895 61.0519 68.1919 57.4033 68.1919 57.4033C68.1919 57.4033 68.0644 61.6513 69.1878 64.7099C70.061 67.0699 72.5862 69.4063 79.8927 71.1196L80.327 69.4724Z" fill="#AF6152"/>
<path d="M82.569 50.7245C82.5315 50.9999 82.4137 51.2582 82.2303 51.4671C82.047 51.6761 81.8062 51.8264 81.538 51.8995C81.2698 51.9725 80.986 51.9649 80.722 51.8778C80.4581 51.7906 80.2256 51.6277 80.0536 51.4093C79.8816 51.1909 79.7777 50.9268 79.7548 50.6497C79.7319 50.3727 79.7911 50.0951 79.9249 49.8514C80.0588 49.6078 80.2614 49.4089 80.5074 49.2797C80.7535 49.1504 81.0322 49.0964 81.3088 49.1244C81.4979 49.1436 81.6812 49.2006 81.8478 49.2921C82.0143 49.3836 82.1608 49.5077 82.2784 49.6571C82.396 49.8064 82.4823 49.9778 82.5323 50.1612C82.5822 50.3446 82.5947 50.5362 82.569 50.7245Z" fill="#263238"/>
<path d="M82.1472 46.0374L78.9093 47.1985C78.7578 46.7551 78.785 46.2701 78.985 45.8463C79.185 45.4225 79.5421 45.0932 79.9807 44.9282C80.1955 44.8516 80.4236 44.8197 80.6511 44.8346C80.8786 44.8495 81.1007 44.9107 81.3036 45.0147C81.5066 45.1186 81.6861 45.2629 81.8312 45.4388C81.9763 45.6147 82.0838 45.8184 82.1472 46.0374Z" fill="#263238"/>
<path d="M93.3297 48.2324L90.375 46.4105C90.4843 46.2098 90.6336 46.0336 90.8137 45.8929C90.9938 45.7521 91.2008 45.6499 91.422 45.5923C91.6433 45.5348 91.8739 45.5233 92.0997 45.5585C92.3256 45.5937 92.5418 45.6748 92.735 45.7969C93.1261 46.0504 93.4056 46.4438 93.5162 46.8965C93.6267 47.3493 93.56 47.8272 93.3297 48.2324Z" fill="#263238"/>
<path d="M92.3956 51.8098C92.3349 52.0813 92.1955 52.329 91.9949 52.5219C91.7943 52.7147 91.5412 52.8441 91.2675 52.894C90.9937 52.9439 90.7113 52.912 90.4555 52.8023C90.1998 52.6926 89.982 52.51 89.8294 52.2773C89.6769 52.0445 89.5963 51.772 89.5977 51.4937C89.5991 51.2155 89.6825 50.9438 89.8374 50.7126C89.9923 50.4814 90.212 50.301 90.4688 50.194C90.7257 50.0869 91.0084 50.0579 91.2817 50.1106C91.4677 50.1464 91.6446 50.2192 91.802 50.3247C91.9594 50.4302 92.094 50.5662 92.1979 50.7246C92.3018 50.8831 92.3728 51.0608 92.4067 51.2472C92.4407 51.4335 92.4369 51.6249 92.3956 51.8098Z" fill="#263238"/>
<path d="M108.051 201.354L47.668 166.492L156.742 103.518L217.121 138.379L108.051 201.354Z" fill="#F7921E"/>
<path opacity="0.8" d="M108.051 201.354L47.668 166.492L156.742 103.518L217.121 138.379L108.051 201.354Z" fill="white"/>
<path d="M47.668 166.492V191.229L108.051 226.091V201.354L47.668 166.492Z" fill="#F7921E"/>
<path opacity="0.5" d="M47.668 166.492V191.229L108.051 226.091V201.354L47.668 166.492Z" fill="white"/>
<path d="M108.051 226.091L217.125 163.117L217.121 138.379L108.051 201.354V226.091Z" fill="#F7921E"/>
<path opacity="0.65" d="M108.051 201.354L217.121 138.379L217.125 163.117L108.051 226.091V201.354Z" fill="white"/>
<path d="M191.507 153.167L162.587 192.731L133.668 186.561L191.507 153.167Z" fill="#EBEBEB"/>
<path d="M65.75 176.933L77.8568 205.984L89.9683 190.913L65.75 176.933Z" fill="#E0E0E0"/>
<path d="M191.42 153.219L199.057 127.948L174.636 113.85L131.391 118.154L73.2737 151.709L65.75 176.895L90.0108 190.904L133.666 186.561L191.42 153.219Z" fill="#FAFAFA"/>
<path d="M139.387 183.258C145.301 186.562 152.603 186.302 160.499 181.738C168.396 177.173 175.712 168.994 181.621 158.874L139.387 183.258Z" fill="#E0E0E0"/>
<path opacity="0.2" d="M167.433 133.915C153.646 125.952 133.855 123.578 116.457 126.769L83.7377 145.649C78.22 155.683 82.35 167.101 96.1324 175.059C107.932 181.86 124.075 184.589 139.372 183.248L181.607 158.865C183.939 150.043 179.214 140.716 167.433 133.915Z" fill="#F7921E"/>
<path d="M128.128 116.474L130.564 117.262C131.669 117.657 132.806 117.956 133.962 118.154C135.067 118.31 136.412 117.814 137.422 118.088C137.894 118.211 139.499 118.777 139.711 119.235C139.924 119.693 139.579 120.259 139.603 120.694C139.667 121.291 139.827 121.874 140.075 122.421C140.41 123.257 140.792 124.158 141.576 124.602C141.812 124.734 142.076 124.819 142.298 124.965C142.65 125.27 142.978 125.602 143.28 125.956C143.599 126.232 143.99 126.413 144.407 126.478C144.824 126.543 145.251 126.49 145.64 126.325C146.165 126.045 146.623 125.654 146.98 125.178C147.581 124.473 148.142 123.736 148.66 122.969C149.68 121.458 150.548 119.613 150.048 117.866C149.765 116.922 149.104 116.096 149.038 115.115C149.059 114.718 149.059 114.321 149.038 113.925C148.896 113.019 148.042 112.377 147.801 111.494C147.716 111.169 147.716 110.824 147.664 110.494C147.471 109.285 146.442 108.469 145.564 107.704C144.64 106.896 143.634 106.188 142.562 105.59C142.126 105.32 141.647 105.129 141.146 105.023C140.728 104.967 140.304 104.967 139.886 105.023C138.309 105.184 136.794 105.495 135.241 105.698C133.873 105.882 132.362 106.227 131.22 107.114C129.964 108.096 129.275 109.724 128.6 111.117C127.831 112.698 127.076 114.303 126.387 115.912L128.128 116.474Z" fill="#C8856A"/>
<path d="M140.215 122.445L147.451 94.4363C146.962 94.0462 146.523 93.5976 146.144 93.1006L145.78 93.195L137.671 120.311C137.44 121.147 139.035 122.917 139.644 122.761L140.012 122.671C140.063 122.655 140.109 122.625 140.144 122.586C140.18 122.546 140.204 122.497 140.215 122.445Z" fill="#37474F"/>
<path d="M137.671 120.311C137.402 121.255 139.583 123.502 139.852 122.534L147.088 94.5259C146.598 94.1386 146.159 93.6915 145.78 93.1948L137.671 120.311Z" fill="#455A64"/>
<path opacity="0.1" d="M146.744 94.7715L140.316 119.882C139.844 121.77 139.679 122.917 138.791 122.011C137.748 120.953 137.989 120.566 137.989 120.566C138.139 120.971 138.38 121.336 138.692 121.633C139.254 122.157 139.636 121.473 139.919 120.094C140.203 118.716 146.744 94.7715 146.744 94.7715Z" fill="white"/>
<path d="M151.859 79.5683L151.5 79.6533C151.5 79.6533 152.401 81.7679 151.358 85.2276C151.25 86.113 150.935 86.9604 150.438 87.7009C150.343 87.4507 150.834 86.2235 151.004 84.9916C151.556 81.0221 151.254 79.2474 151.254 79.2474L150.839 79.0491L150.476 79.1388C150.476 79.1388 151.075 79.9695 149.909 84.9586C149.697 86.4501 149.371 86.7522 149.074 87.0826C148.819 86.941 149.352 85.5911 149.546 84.5338C150.4 80.1536 150.287 78.8698 150.287 78.8698L149.749 78.5488L149.385 78.6385C149.385 78.6385 149.735 79.3748 148.328 84.6046C148.17 85.2447 147.907 85.8541 147.549 86.4076C147.304 86.1763 147.662 85.4967 148.097 84.0476C148.699 82.1694 149.027 80.214 149.069 78.242L148.597 77.9824L148.238 78.0721C148.238 78.0721 148.871 79.9601 146.095 85.7846C145.441 87.1958 145.153 88.7496 145.26 90.3016C145.435 91.7176 146.043 92.4067 145.774 93.2091C146.123 93.7307 146.567 94.1821 147.082 94.5402C147.107 94.4424 147.141 94.3475 147.186 94.257C147.271 94.3231 147.356 94.3939 147.441 94.4552C147.757 93.1147 149.749 92.9401 150.532 91.812C151.316 90.6839 151.995 89.1499 152.647 85.7185C153.312 82.1879 152.302 79.8515 152.302 79.8515L151.859 79.5683Z" fill="#37474F"/>
<path d="M151.5 79.6535C151.5 79.6535 152.175 81.3621 151.359 85.2278C151.076 86.5588 150.5 88.0598 150.132 87.8568C149.763 87.6539 150.429 86.3936 150.646 85.0815C151.34 80.9043 150.896 79.3325 150.896 79.3325L150.476 79.139C150.476 79.139 150.91 80.4417 149.91 84.9587C149.626 86.219 149.098 87.4131 148.654 87.1677C148.21 86.9223 148.881 85.6856 149.126 84.6189C150.174 80.3284 149.924 78.9549 149.924 78.9549L149.381 78.6387C149.381 78.6387 149.598 79.9272 148.324 84.6047C148.017 85.7281 147.536 86.691 147.191 86.5211C146.846 86.3511 147.233 85.6856 147.734 84.1375C148.952 80.3615 148.701 78.3271 148.701 78.3271L148.229 78.0723C148.229 78.0723 148.555 79.9603 146.086 85.7847C145.614 86.927 145.081 88.8999 145.251 90.3018C145.421 91.7036 146.035 92.4069 145.766 93.2093C146.114 93.7308 146.558 94.1823 147.073 94.5403C147.389 93.1999 149.376 93.0299 150.165 91.8971C150.953 90.7643 151.628 89.2398 152.279 85.8083C152.945 82.2778 151.93 79.9367 151.93 79.9367L151.5 79.6535Z" fill="#455A64"/>
<path opacity="0.1" d="M148.658 91.8546C148.337 92.1095 147.992 92.3266 147.714 92.6145C147.408 92.8908 147.216 93.2711 147.176 93.6813C147.415 93.4084 147.692 93.1701 147.997 92.9733C148.224 92.8364 148.469 92.7325 148.705 92.6098C149.676 92.0852 150.433 91.2367 150.843 90.2121C150.909 90.0421 151.372 88.7961 150.961 88.8197C150.801 88.8197 150.617 89.3719 150.541 89.5088C150.39 89.7825 150.23 90.0516 150.069 90.3065C149.68 90.8915 149.204 91.4136 148.658 91.8546Z" fill="white"/>
<path d="M135.485 107.232C137.612 107.61 139.768 107.804 141.928 107.813C143.254 107.761 144.005 107.615 144.18 108.139C144.354 108.663 144.51 110.079 142.202 111.268C139.894 112.457 133.418 112.977 133.418 112.977L135.485 107.232Z" fill="#C8856A"/>
<path d="M135.487 107.232C136.387 107.371 137.295 107.457 138.206 107.492C139.117 107.553 140.028 107.586 140.934 107.586C141.406 107.586 141.831 107.586 142.284 107.553C142.755 107.505 143.229 107.505 143.7 107.553C143.852 107.57 143.998 107.622 144.127 107.704C144.256 107.785 144.365 107.895 144.446 108.025C144.57 108.289 144.602 108.587 144.535 108.87C144.431 109.362 144.208 109.821 143.884 110.206C143.25 110.924 142.461 111.487 141.576 111.853C140.723 112.242 139.821 112.51 138.895 112.651C137.984 112.776 137.067 112.851 136.148 112.878C135.232 112.906 134.316 112.878 133.41 112.972C135.208 112.594 137.054 112.599 138.819 112.212C139.696 112.042 140.548 111.766 141.359 111.391C142.161 111.041 142.875 110.517 143.45 109.857C143.722 109.546 143.915 109.173 144.011 108.771C144.087 108.342 144.011 108.129 143.605 108.058C142.803 107.94 141.816 108.12 140.91 108.021C139.08 107.948 137.262 107.683 135.487 107.232Z" fill="#AF6152"/>
<path d="M179.851 145.025V151.732C179.794 158.812 175.131 165.836 165.781 171.221C147.014 182.077 116.584 182.077 97.8125 171.221C88.4858 165.836 83.7988 158.789 83.7422 151.732V145.025L89.746 145.998C92.1226 143.562 94.8321 141.476 97.7936 139.8C116.565 128.944 146.995 128.944 165.762 139.8C168.71 141.46 171.412 143.525 173.786 145.936L179.851 145.025Z" fill="#F7921E"/>
<path opacity="0.4" d="M179.851 145.025V151.732C179.794 158.812 175.131 165.836 165.781 171.221C147.014 182.077 116.584 182.077 97.8125 171.221C88.4858 165.836 83.7988 158.789 83.7422 151.732V145.025L89.746 145.998C92.1226 143.562 94.8321 141.476 97.7936 139.8C116.565 128.944 146.995 128.944 165.762 139.8C168.71 141.46 171.412 143.525 173.786 145.936L179.851 145.025Z" fill="white"/>
<path opacity="0.4" d="M102.548 173.609C100.933 172.898 99.3577 172.101 97.8281 171.221C88.5014 165.835 83.8145 158.788 83.7578 151.732V145.025L89.7617 145.997C90.2667 145.469 90.8048 144.954 91.3712 144.444L102.572 147.206L102.548 173.609Z" fill="#F7921E"/>
<path d="M131.793 172.642C158.336 172.642 179.852 160.218 179.852 144.893C179.852 129.568 158.336 117.144 131.793 117.144C105.251 117.144 83.7344 129.568 83.7344 144.893C83.7344 160.218 105.251 172.642 131.793 172.642Z" fill="#F7921E"/>
<path opacity="0.6" d="M131.793 172.642C158.336 172.642 179.852 160.218 179.852 144.893C179.852 129.568 158.336 117.144 131.793 117.144C105.251 117.144 83.7344 129.568 83.7344 144.893C83.7344 160.218 105.251 172.642 131.793 172.642Z" fill="white"/>
<path d="M172.759 138.767C176.969 146.068 173.363 153.96 163.106 159.879C146.114 169.683 117.454 169.683 100.481 159.879C96.035 157.307 92.698 154.243 90.8336 151.01C86.6186 143.718 90.2436 135.821 100.481 129.888C117.473 120.085 146.133 120.085 163.106 129.888C167.552 132.461 170.889 135.524 172.754 138.757L172.759 138.767Z" fill="#F7921E"/>
<path d="M172.758 138.224C176.968 146.172 173.362 154.744 163.105 161.21C146.113 171.882 117.454 171.882 100.48 161.21C96.0342 158.416 92.6972 155.074 90.8328 151.558C86.6178 143.609 90.2239 135.038 100.48 128.571C117.472 117.899 146.132 117.899 163.105 128.571C167.552 131.366 170.889 134.707 172.753 138.224H172.758Z" fill="#F7921E"/>
<path opacity="0.4" d="M172.758 138.224C176.968 146.172 173.362 154.744 163.105 161.21C146.113 171.882 117.454 171.882 100.48 161.21C96.0342 158.416 92.6972 155.074 90.8328 151.558C86.6178 143.609 90.2239 135.038 100.48 128.571C117.472 117.899 146.132 117.899 163.105 128.571C167.552 131.366 170.889 134.707 172.753 138.224H172.758Z" fill="white"/>
<path d="M100.437 132.531C93.9047 136.638 90.0815 141.612 89.2461 146.738C89.4873 148.425 90.0242 150.057 90.832 151.557C92.6964 155.079 96.024 158.416 100.48 161.21C117.472 171.882 146.132 171.882 163.105 161.21C169.637 157.103 173.456 152.129 174.296 147.007C174.052 145.319 173.516 143.687 172.71 142.184C170.822 138.667 167.518 135.325 163.057 132.531C146.084 121.864 117.406 121.864 100.437 132.531Z" fill="#FAFAFA"/>
<path d="M157.028 161.866C156.795 161.977 156.539 162.032 156.28 162.026C156.022 162.02 155.769 161.954 155.541 161.833L152.35 159.992C151.925 159.747 151.902 159.364 152.298 159.138C152.532 159.027 152.789 158.972 153.048 158.977C153.307 158.983 153.561 159.049 153.79 159.171L156.981 161.012C157.405 161.257 157.429 161.639 157.028 161.866Z" fill="#F7921E"/>
<path d="M157.028 133.664C156.795 133.553 156.539 133.498 156.28 133.504C156.022 133.51 155.769 133.576 155.541 133.697L152.35 135.538C151.925 135.783 151.902 136.166 152.298 136.392C152.532 136.503 152.789 136.558 153.048 136.553C153.307 136.547 153.561 136.481 153.79 136.359L156.981 134.523C157.405 134.282 157.429 133.895 157.028 133.664Z" fill="#F7921E"/>
<path d="M106.405 161.866C106.639 161.977 106.895 162.032 107.153 162.026C107.411 162.02 107.664 161.954 107.892 161.833L111.083 159.992C111.512 159.747 111.531 159.364 111.135 159.138C110.901 159.027 110.644 158.972 110.385 158.977C110.126 158.983 109.872 159.049 109.643 159.171L106.457 161.012C106.028 161.257 106.009 161.639 106.405 161.866Z" fill="#F7921E"/>
<path d="M106.405 133.664C106.639 133.553 106.895 133.498 107.153 133.504C107.411 133.51 107.664 133.576 107.892 133.697L111.083 135.538C111.512 135.783 111.531 136.166 111.135 136.392C110.901 136.503 110.644 136.558 110.385 136.553C110.126 136.547 109.872 136.481 109.643 136.359L106.457 134.523C106.028 134.282 106.009 133.895 106.405 133.664Z" fill="#F7921E"/>
<path d="M131.77 148.334L150.532 159.6L151.688 159.076L135.003 147.574L131.77 148.334Z" fill="#455A64"/>
<path d="M152.764 134.816L150.876 133.669C150.876 133.669 132.345 140.555 128.565 142.736C127.677 143.251 127.238 143.921 127.238 144.591V145.714C127.238 146.385 127.677 147.06 128.565 147.574C129.561 148.079 130.662 148.342 131.779 148.342C132.896 148.342 133.997 148.079 134.993 147.574C138.883 146.012 152.755 135.944 152.755 135.944L152.764 134.816Z" fill="#37474F"/>
<path d="M150.885 133.664C150.885 133.664 132.354 140.551 128.573 142.731C126.799 143.755 126.799 145.417 128.573 146.441C129.569 146.946 130.671 147.209 131.788 147.209C132.904 147.209 134.006 146.946 135.002 146.441C138.891 144.879 152.763 134.811 152.763 134.811L150.885 133.664Z" fill="#455A64"/>
<path d="M132.843 143.991C132.518 143.826 132.159 143.74 131.795 143.74C131.431 143.74 131.072 143.826 130.747 143.991C130.621 144.034 130.51 144.115 130.432 144.223C130.354 144.332 130.312 144.462 130.312 144.595C130.312 144.729 130.354 144.859 130.432 144.968C130.51 145.076 130.621 145.157 130.747 145.2C131.072 145.365 131.431 145.451 131.795 145.451C132.159 145.451 132.518 145.365 132.843 145.2C132.969 145.157 133.08 145.076 133.158 144.968C133.236 144.859 133.278 144.729 133.278 144.595C133.278 144.462 133.236 144.332 133.158 144.223C133.08 144.115 132.969 144.034 132.843 143.991Z" fill="#263238"/>
<path d="M142.664 129.482L140.41 132.487L140.659 132.674L142.914 129.669L142.664 129.482Z" fill="#37474F"/>
<path d="M120.73 129.492L120.48 129.679L122.734 132.685L122.983 132.498L120.73 129.492Z" fill="#37474F"/>
<path d="M140.659 162.706L140.41 162.893L142.664 165.899L142.913 165.712L140.659 162.706Z" fill="#37474F"/>
<path d="M122.739 162.707L120.484 165.712L120.734 165.899L122.988 162.894L122.739 162.707Z" fill="#37474F"/>
<path d="M166.134 139.884L161.203 140.908L161.266 141.213L166.198 140.189L166.134 139.884Z" fill="#37474F"/>
<path d="M161.262 154.315L161.199 154.62L166.131 155.641L166.194 155.335L161.262 154.315Z" fill="#37474F"/>
<path d="M97.2623 139.906L97.1992 140.211L102.131 141.231L102.194 140.926L97.2623 139.906Z" fill="#37474F"/>
<path d="M102.127 154.313L97.1953 155.336L97.2586 155.641L102.19 154.618L102.127 154.313Z" fill="#37474F"/>
<path d="M84.5764 145.714C83.7131 145.434 82.8654 145.108 82.037 144.737C79.1156 143.295 76.1079 142.034 73.0312 140.961L77.2273 147.499C79.2805 148.079 81.3432 148.849 83.5191 148.773C84.1267 148.764 84.7241 148.616 85.2651 148.339C85.8061 148.063 86.2762 147.665 86.639 147.178C87.2904 146.21 85.223 145.936 84.5764 145.714Z" fill="#C8856A"/>
<path d="M77.2817 165.6L84.5127 137.591C84.0266 137.201 83.5892 136.755 83.21 136.26L82.8465 136.35L74.7376 163.466C74.5063 164.302 76.1017 166.072 76.7105 165.916L77.0787 165.826C77.1298 165.81 77.1756 165.781 77.2113 165.741C77.2471 165.701 77.2714 165.652 77.2817 165.6Z" fill="#37474F"/>
<path d="M90.05 122.775C89.9226 119.669 89.0116 118.357 88.4547 118.527C88.3101 118.58 88.1684 118.64 88.0299 118.707C87.5201 119.778 83.4798 135.085 81.4219 142.307L83.4798 141.684C84.0226 139.324 87.4399 138.762 88.4594 136.265C89.4789 133.768 90.2011 126.584 90.05 122.775Z" fill="#37474F"/>
<path d="M74.7378 163.467C74.4687 164.434 76.6494 166.657 76.9184 165.69L84.1495 137.686C83.6612 137.297 83.2235 136.848 82.8467 136.35L74.7378 163.467Z" fill="#455A64"/>
<path d="M89.5163 123.011C89.3653 119.193 88.2419 117.97 87.7322 119.037C87.2224 120.104 83.1019 135.236 81.0156 142.467L83.0783 141.839C83.6163 139.479 86.6135 139.055 87.6331 136.558C88.6526 134.061 89.6721 126.83 89.5163 123.011Z" fill="#455A64"/>
<path opacity="0.1" d="M83.8063 137.912L77.3824 163.023C76.9104 164.911 76.7404 166.057 75.8531 165.156C74.8147 164.094 75.0554 163.707 75.0554 163.707C75.2053 164.11 75.4441 164.475 75.754 164.774C76.3204 165.298 76.698 164.613 76.9859 163.235C77.2738 161.857 83.8063 137.912 83.8063 137.912Z" fill="white"/>
<path d="M90.2636 150.529C90.0606 150.358 89.8187 150.241 89.5593 150.187C89.2999 150.132 89.0311 150.143 88.7768 150.217C88.2718 150.367 87.8125 150.641 87.4411 151.015C87.2142 151.265 86.9398 151.467 86.6339 151.61C86.2901 151.702 85.929 151.711 85.5814 151.633C84.1654 151.44 82.3199 151.633 81.036 150.963C80.3007 150.512 79.61 149.992 78.9734 149.41L78.8743 149.33C78.171 148.768 77.4866 148.183 76.8163 147.583C76.8494 147.432 77.0759 147.437 77.2317 147.48L73.0356 140.942C70.0903 139.866 68.056 138.082 62.0003 130.695L51.8853 118.357C51.8853 118.357 55.784 96.4706 56.1994 92.4586C57.167 83.3537 57.2047 75.7828 53.1833 72.814C46.547 74.4848 41.4069 77.7652 39.6463 88.423C37.0598 104.108 35.6343 113.439 35.337 116.139C34.6384 122.426 34.2278 124.909 37.3571 128.18C40.3732 131.328 40.4346 131.191 49.2468 138.413C53.155 141.613 54.6937 143.345 58.4178 146.116C61.9908 148.768 62.5147 149.42 63.926 151.053C65.3373 152.686 65.899 153.852 67.7303 155.735C69.0693 157.045 70.5792 158.167 72.2191 159.072C73.4955 159.774 74.9255 160.15 76.3821 160.167C77.6599 160.299 78.9502 160.238 80.21 159.988C80.8794 159.912 81.54 159.773 82.183 159.572C82.6975 159.365 83.0467 158.85 83.4857 158.524C84.0474 158.104 85.3359 157.58 85.8221 157.108C86.2762 156.539 86.6116 155.884 86.8086 155.183C87.6248 154.898 88.3313 154.365 88.8287 153.658C89.1449 153.181 89.4182 152.678 89.6453 152.152C89.7208 151.973 90.3722 150.628 90.2636 150.529Z" fill="#C8856A"/>
<path d="M87.1299 155.013C86.4779 155.428 85.7465 155.703 84.9823 155.82C84.2272 155.963 83.4645 156.062 82.6979 156.117C82.5091 156.117 82.3439 156.16 82.1031 156.16C81.9019 156.151 81.7015 156.127 81.5037 156.089C81.1239 156.017 80.7487 155.923 80.3803 155.806C79.6496 155.581 78.9352 155.307 78.2422 154.984L80.47 155.48C80.8429 155.551 81.2111 155.64 81.5745 155.683C81.7526 155.711 81.9323 155.729 82.1126 155.735C82.2542 155.735 82.4666 155.702 82.6554 155.683C83.42 155.622 84.1752 155.57 84.9257 155.494C85.6783 155.431 86.4194 155.269 87.1299 155.013Z" fill="#AF6152"/>
<path d="M84.3365 158.024C83.7632 158.376 83.1392 158.637 82.4863 158.798C81.8317 158.973 81.1613 159.082 80.485 159.124C79.7988 159.109 79.117 159.009 78.4554 158.826C77.8049 158.674 77.1649 158.48 76.5391 158.246C77.2093 158.312 77.8654 158.411 78.5262 158.501C79.1649 158.606 79.8097 158.669 80.4567 158.689C81.7715 158.62 83.0737 158.397 84.3365 158.024Z" fill="#AF6152"/>
<path d="M54.6525 71.7661C48.0445 73.5314 43.5322 75.6412 41.309 81.5601C39.0859 87.479 36.4805 104.981 36.4805 104.981C36.4805 104.981 37.8587 108.03 44.6083 109.564C51.3579 111.098 53.8076 110.329 53.8076 110.329C53.8076 110.329 56.1062 97.6836 56.8756 93.5017C57.6449 89.3198 60.3259 78.6668 54.6525 71.7661Z" fill="#455A64"/>
<path opacity="0.2" d="M186.378 144.52C190.324 146.705 196.71 146.705 200.651 144.52C204.592 142.335 204.592 138.79 200.651 136.605C196.71 134.419 190.324 134.415 186.378 136.605C182.432 138.795 182.441 142.339 186.378 144.52Z" fill="#F7921E"/>
<path d="M184.762 116.025L185.541 136.496C185.556 136.837 185.636 137.172 185.777 137.482C186.238 138.38 186.974 139.106 187.878 139.554C190.988 141.296 196.038 141.296 199.154 139.554C200.055 139.106 200.788 138.38 201.245 137.482C201.368 137.211 201.446 136.92 201.476 136.623C201.481 136.537 201.481 136.45 201.476 136.364L202.245 116.068C202.641 115.514 202.868 114.859 202.901 114.18L201.957 139.418V139.691C201.863 140.867 201.037 142.028 199.489 142.924C196.185 144.812 190.823 144.812 187.519 142.924C185.909 141.98 185.083 140.777 185.046 139.554V139.469L184.102 114.18C184.143 114.845 184.372 115.485 184.762 116.025Z" fill="#F0F0F0"/>
<path d="M186.869 117.876C190.537 119.995 196.493 119.995 200.165 117.876C200.991 117.428 201.705 116.8 202.256 116.04L201.487 136.336V136.595C201.457 136.892 201.379 137.182 201.256 137.454C200.799 138.352 200.066 139.078 199.165 139.526C196.05 141.268 190.999 141.268 187.889 139.526C186.985 139.078 186.249 138.352 185.788 137.454C185.647 137.144 185.567 136.809 185.552 136.468L184.773 116.011C185.324 116.782 186.04 117.419 186.869 117.876Z" fill="#E6E6E6"/>
<path d="M201.482 136.548C201.416 137.638 200.638 138.714 199.156 139.545C196.04 141.286 190.99 141.286 187.875 139.545C186.393 138.714 185.614 137.657 185.548 136.548L184.887 119.409C184.816 118.135 185.656 116.846 187.412 115.874C190.782 113.986 196.248 113.986 199.618 115.874C201.374 116.846 202.214 118.135 202.143 119.409L201.482 136.548Z" fill="#F7921E"/>
<path opacity="0.45" d="M201.482 136.548C201.416 137.638 200.638 138.714 199.156 139.545C196.04 141.286 190.99 141.286 187.875 139.545C186.393 138.714 185.614 137.657 185.548 136.548L184.887 119.409C184.816 118.135 185.656 116.846 187.412 115.874C190.782 113.986 196.248 113.986 199.618 115.874C201.374 116.846 202.214 118.135 202.143 119.409L201.482 136.548Z" fill="white"/>
<path opacity="0.3" d="M198.8 139.186C195.873 140.735 191.125 140.735 188.199 139.186C185.272 137.638 185.272 135.137 188.199 133.589C191.125 132.04 195.873 132.045 198.8 133.589C201.726 135.132 201.74 137.643 198.8 139.186Z" fill="#F7921E"/>
<path opacity="0.7" d="M199.616 122.643C196.246 124.531 190.78 124.531 187.41 122.643C184.04 120.755 184.04 117.743 187.41 115.874C190.78 114.005 196.246 113.986 199.616 115.874C202.986 117.762 202.986 120.774 199.616 122.643Z" fill="white"/>
<path opacity="0.2" d="M187.411 122.648C190.333 124.267 194.826 124.479 198.168 123.294C193.514 124.101 189.143 121.935 189.525 119.141C189.525 119.079 189.525 119.023 189.558 118.961C188.618 118.719 187.714 118.354 186.868 117.876C186.487 117.656 186.124 117.407 185.782 117.13C184.168 118.919 184.72 121.151 187.411 122.648Z" fill="#F7921E"/>
<path d="M184.111 114.133V114.17C184.146 114.837 184.37 115.481 184.757 116.025C185.312 116.792 186.031 117.424 186.863 117.875C190.53 119.995 196.487 119.995 200.159 117.875C200.984 117.427 201.699 116.8 202.25 116.039C202.645 115.486 202.873 114.831 202.906 114.151C202.967 112.735 202.052 111.272 200.159 110.182C196.487 108.058 190.53 108.058 186.863 110.182C184.989 111.282 184.068 112.712 184.111 114.133ZM187.287 110.583C190.728 108.695 196.303 108.695 199.739 110.583C203.175 112.471 203.18 115.582 199.739 117.493C196.298 119.405 190.728 119.381 187.287 117.493C183.846 115.605 183.846 112.49 187.287 110.583Z" fill="#FAFAFA"/>
<path d="M187.288 117.493C190.729 119.381 196.303 119.381 199.739 117.493C203.175 115.605 203.18 112.49 199.739 110.583C196.298 108.676 190.729 108.695 187.288 110.583C183.847 112.471 183.847 115.582 187.288 117.493Z" fill="#E6E6E6"/>
<path d="M200.851 116.738C200.505 117.024 200.132 117.277 199.737 117.493C196.301 119.381 190.727 119.381 187.286 117.493C186.891 117.277 186.518 117.024 186.172 116.738C186.55 116.404 186.965 116.115 187.409 115.874C190.779 113.986 196.244 113.986 199.614 115.874C200.058 116.115 200.473 116.404 200.851 116.738Z" fill="#F7921E"/>
<path opacity="0.65" d="M200.851 116.738C200.505 117.024 200.132 117.277 199.737 117.493C196.301 119.381 190.727 119.381 187.286 117.493C186.891 117.277 186.518 117.024 186.172 116.738C186.55 116.404 186.965 116.115 187.409 115.874C190.779 113.986 196.244 113.986 199.614 115.874C200.058 116.115 200.473 116.404 200.851 116.738Z" fill="white"/>
<path opacity="0.2" d="M199.617 115.874C199.514 115.813 199.405 115.756 199.296 115.704C199.126 115.619 198.947 115.539 198.768 115.463C197.767 115.049 196.717 114.767 195.643 114.623C195.346 114.585 195.044 114.548 194.742 114.529C194.44 114.51 194.222 114.491 193.958 114.486H193.529C193.25 114.486 192.976 114.486 192.703 114.486C191.755 114.535 190.814 114.677 189.894 114.911C189.034 115.118 188.204 115.436 187.426 115.855C187.308 115.916 187.199 115.983 187.09 116.049L187.029 116.091L186.77 116.261L186.727 116.289L186.467 116.488L186.203 116.709C186.551 116.995 186.924 117.247 187.317 117.465C188.089 117.878 188.908 118.195 189.757 118.409C190.81 116.063 195.624 114.68 199.617 115.874Z" fill="#F7921E"/>
<path d="M185.582 137.681L185.634 139.248V139.356C185.738 141.683 189.226 143.548 193.512 143.548C197.797 143.548 201.262 141.693 201.389 139.38V139.243L201.437 137.667C201.016 139.852 197.623 141.556 193.502 141.556C189.382 141.556 186.016 139.861 185.582 137.681Z" fill="#FAFAFA"/>
<path opacity="0.2" d="M198.837 139.705C195.708 141.277 190.889 141.23 187.873 139.54C186.391 138.709 185.612 137.652 185.546 136.548L184.895 119.754H184.928C185.12 120.584 185.588 121.324 186.254 121.854C186.547 128.17 186.598 134.277 188.383 136.382C190.091 138.384 194.552 141.291 198.837 139.705Z" fill="#F7921E"/>
<path d="M129.023 144.959L129.151 147.054C132.459 147.549 135.798 147.806 139.143 147.824C145.553 147.942 173.448 148.985 174.774 148.121C176.894 146.748 174.302 143.538 174.302 143.538L129.023 144.959Z" fill="#FFBDA7"/>
<path d="M163.564 124.224C164.662 123.983 165.805 124.031 166.88 124.361C167.955 124.692 168.926 125.295 169.7 126.112C170.29 126.711 170.776 127.41 171.408 127.962C172.02 128.457 172.681 128.887 173.381 129.246C175.231 130.289 177.157 131.639 177.629 133.857C177.853 135.15 178.168 136.424 178.573 137.671C178.79 138.252 179.045 138.804 179.281 139.38C179.649 140.341 179.876 141.351 179.956 142.377C180.122 143.831 179.803 145.299 179.05 146.554C178.012 148.112 175.411 149.325 173.636 148.31V144.992C173.164 143.732 171.819 142.471 171.035 141.372L166.433 134.971C166.07 134.466 160.642 126.759 160.566 126.806C160.566 126.787 161.812 124.639 163.564 124.224Z" fill="#F0997A"/>
<path opacity="0.1" d="M175.493 142.467C175.635 140.947 176.013 139.668 175.295 138.219C174.819 137.333 174.194 136.535 173.45 135.859C172.553 134.99 171.477 134.343 170.802 133.281C170.438 132.71 170.254 132.045 169.924 131.455C169.216 130.19 167.918 129.373 166.62 128.746C165.454 128.184 164.109 127.58 163.707 126.348C163.599 125.958 163.598 125.547 163.704 125.157C163.809 124.766 164.017 124.412 164.307 124.129C164.066 124.158 163.835 124.195 163.575 124.247C161.824 124.644 160.578 126.791 160.578 126.791C160.654 126.744 166.082 134.452 166.445 134.957L171.047 141.357C171.831 142.457 173.185 143.717 173.648 144.978V148.324C175.182 149.202 177.334 148.414 178.561 147.172C176.22 147.352 175.3 144.52 175.493 142.467Z" fill="black"/>
<path d="M160.566 126.787C163.201 128.278 165.625 130.114 167.774 132.248L167.864 132.337C167.963 132.436 168.062 132.531 168.147 132.635C171.64 136.302 173.627 140.517 173.627 144.992H129.027L132.19 143.17L133.356 142.495C133.403 142.466 133.455 142.443 133.502 142.41L160.566 126.787Z" fill="#FFBDA7"/>
<path opacity="0.3" d="M160.566 126.787C163.201 128.278 165.625 130.114 167.774 132.248L167.864 132.337C167.963 132.436 168.062 132.531 168.147 132.635C171.64 136.302 173.627 140.517 173.627 144.992H129.027L132.19 143.17L133.356 142.495C133.403 142.466 133.455 142.443 133.502 142.41L160.566 126.787Z" fill="white"/>
<path d="M134.389 145.587C134.745 145.685 135.094 145.809 135.432 145.96C136.334 146.351 137.235 146.904 138.264 146.861C139.293 146.819 140.114 146.281 141.025 145.917C142.507 145.334 144.141 145.259 145.67 145.705C146.732 146.016 147.704 146.568 148.742 146.937C149.781 147.305 150.97 147.47 151.971 147.007C152.972 146.545 153.618 145.563 154.614 145.119C155.969 144.529 157.522 145.119 158.862 145.738C160.203 146.356 161.694 147.04 163.11 146.616C164.144 146.304 164.998 145.426 166.079 145.365C167.41 145.285 168.472 146.498 169.001 147.725C169.293 148.39 169.761 149.259 170.469 149.075C171.044 148.924 171.186 148.178 171.177 147.579C171.167 146.979 171.2 146.252 171.734 145.974C172.267 145.695 173.15 146.045 173.466 145.502C173.553 145.308 173.578 145.092 173.537 144.883C173.396 144.009 173.158 143.152 172.829 142.33C172.284 140.67 171.608 139.055 170.808 137.501C169.785 135.725 168.531 134.092 167.08 132.644C165.954 131.426 164.675 130.359 163.275 129.468C162.664 129.058 161.969 128.788 161.241 128.68C160.603 128.641 159.963 128.719 159.353 128.911C156.903 129.567 154.633 130.742 152.391 131.946C151.612 132.366 150.833 132.786 150.055 133.216C146.444 135.198 142.876 137.261 139.326 139.352C137.545 140.396 135.772 141.446 134.007 142.5L132.68 143.293C132.326 143.5 131.963 143.59 131.614 143.788C131.061 144.109 130.448 144.912 129.754 144.912C130.646 144.912 131.486 145.322 132.374 145.407C132.935 145.464 133.506 145.407 134.063 145.488L134.389 145.587Z" fill="#FFD2C3"/>
<path opacity="0.1" d="M162.42 135.651C163.624 134.957 164.006 133.966 163.567 133.088C163.304 132.61 162.905 132.221 162.42 131.969C161.432 131.467 160.339 131.205 159.23 131.205C158.121 131.205 157.027 131.467 156.039 131.969C155.199 132.441 154.755 133.083 154.722 133.716C154.689 134.348 155.114 135.132 156.039 135.651C157.028 136.151 158.121 136.411 159.23 136.411C160.338 136.411 161.431 136.151 162.42 135.651ZM153.16 137.685C152.095 137.146 150.919 136.864 149.726 136.864C148.533 136.864 147.356 137.146 146.292 137.685C145.39 138.205 144.914 138.884 144.876 139.573C144.838 140.263 145.301 141.084 146.292 141.655C147.357 142.193 148.533 142.473 149.726 142.473C150.919 142.473 152.095 142.193 153.16 141.655C154.453 140.909 154.868 139.842 154.392 138.898C154.111 138.381 153.682 137.958 153.16 137.685ZM166.701 138.856C165.805 138.586 164.872 138.455 163.935 138.469C160.787 138.497 158.271 139.989 158.319 141.806C158.342 142.67 158.942 143.453 159.909 144.029C161.191 144.738 162.641 145.089 164.105 145.044C167.254 145.016 169.769 143.524 169.722 141.707C169.675 140.447 168.462 139.375 166.701 138.856ZM139.675 139.8L133.501 143.359C133.454 143.387 132.387 143.028 132.34 143.061L131.684 143.434C131.844 143.571 132.675 144.289 132.873 144.407C134.057 145.066 135.398 145.392 136.753 145.351C139.67 145.327 141.997 143.935 141.945 142.264C141.926 141.24 141.029 140.343 139.675 139.8Z" fill="black"/>
<path d="M163.922 137.478C164.858 137.464 165.791 137.594 166.688 137.865C168.463 138.407 169.676 139.474 169.709 140.697C169.756 142.509 167.24 144.001 164.092 144.029C162.628 144.075 161.178 143.726 159.896 143.019C158.928 142.443 158.329 141.659 158.305 140.791C158.263 138.997 160.774 137.501 163.922 137.478Z" fill="#B16668"/>
<path opacity="0.3" d="M164.125 138.493C163.956 138.453 163.784 138.428 163.61 138.417C163.234 138.366 162.851 138.397 162.487 138.506C162.123 138.615 161.787 138.8 161.5 139.05C161.463 139.079 161.433 139.117 161.413 139.161C161.393 139.204 161.384 139.252 161.387 139.3C161.387 139.418 161.543 139.47 161.661 139.498C162.281 139.64 162.925 139.65 163.549 139.526C163.851 139.47 164.493 139.248 164.46 138.832C164.446 138.644 164.299 138.549 164.125 138.493ZM165.63 138.757C165.898 138.837 166.177 138.875 166.456 138.87C166.538 138.872 166.619 138.854 166.692 138.818C166.891 138.7 166.791 138.592 166.645 138.516C166.562 138.471 166.473 138.438 166.381 138.417C166.126 138.368 165.863 138.385 165.616 138.464C165.545 138.464 165.46 138.526 165.456 138.601C165.451 138.677 165.545 138.733 165.63 138.757ZM167.962 139.701C167.358 139.163 166.546 139.361 165.862 139.663C165.643 139.75 165.452 139.895 165.309 140.083C165.267 140.139 165.247 140.207 165.253 140.277C165.261 140.33 165.286 140.38 165.324 140.418C165.528 140.61 165.799 140.715 166.079 140.711C166.604 140.778 167.138 140.734 167.646 140.584C167.775 140.547 167.896 140.484 168 140.399C168.05 140.356 168.091 140.303 168.12 140.242C168.148 140.182 168.164 140.117 168.165 140.05C168.157 139.981 168.134 139.913 168.099 139.853C168.065 139.792 168.018 139.739 167.962 139.696V139.701ZM163.129 140.173C162.982 140.173 162.388 140.277 162.303 140.48C162.274 140.546 162.303 140.621 162.411 140.711C162.625 140.817 162.862 140.871 163.1 140.867C163.363 140.9 163.63 140.858 163.87 140.744C163.945 140.706 164.021 140.645 164.021 140.56C164.017 140.528 164.006 140.496 163.989 140.469C163.972 140.441 163.949 140.417 163.922 140.399C163.692 140.235 163.411 140.156 163.129 140.178V140.173ZM161.189 140.173C160.613 139.795 159.773 140.074 159.249 140.428C159.159 140.482 159.082 140.554 159.022 140.64C158.994 140.684 158.977 140.733 158.971 140.785C158.965 140.837 158.971 140.889 158.989 140.938C159.051 141.036 159.147 141.108 159.258 141.14C159.833 141.36 160.468 141.36 161.043 141.14C161.197 141.095 161.331 140.996 161.42 140.862C161.47 140.74 161.474 140.604 161.431 140.479C161.389 140.354 161.303 140.249 161.189 140.182V140.173ZM162.85 141.646C162.685 141.591 162.509 141.575 162.336 141.598C162.164 141.622 161.999 141.685 161.854 141.782C161.774 141.839 161.694 141.933 161.722 142.028C161.743 142.08 161.782 142.123 161.831 142.151C162.079 142.293 162.362 142.363 162.647 142.354C162.849 142.373 163.052 142.335 163.233 142.245C163.27 142.226 163.301 142.196 163.322 142.16C163.374 142.066 163.322 141.952 163.233 141.877C163.124 141.774 162.993 141.698 162.85 141.655V141.646ZM167.098 141.782C166.301 141.443 165.21 141.433 164.606 142.122C164.549 142.182 164.508 142.255 164.488 142.335C164.49 142.411 164.515 142.485 164.559 142.548C164.604 142.61 164.666 142.657 164.738 142.684C164.905 142.752 165.082 142.79 165.262 142.797C165.857 142.835 166.453 142.75 167.013 142.547C167.12 142.514 167.219 142.461 167.306 142.391C167.348 142.357 167.381 142.312 167.402 142.262C167.424 142.212 167.433 142.158 167.429 142.103C167.381 141.952 167.221 141.853 167.075 141.792L167.098 141.782Z" fill="#FFBDA7"/>
<path d="M162.421 131.002C162.905 131.253 163.304 131.642 163.568 132.12C164.007 132.998 163.624 133.985 162.421 134.679C161.432 135.181 160.339 135.443 159.23 135.443C158.121 135.443 157.028 135.181 156.039 134.679C155.095 134.15 154.675 133.447 154.722 132.748C154.77 132.05 155.194 131.483 156.039 131.002C157.028 130.499 158.121 130.237 159.23 130.237C160.339 130.237 161.432 130.499 162.421 131.002Z" fill="#B16668"/>
<path opacity="0.3" d="M159.23 131.549C159.679 131.69 160.151 131.735 160.618 131.681C160.719 131.682 160.819 131.662 160.911 131.62C160.955 131.597 160.992 131.562 161.016 131.518C161.04 131.474 161.051 131.424 161.048 131.375C161.02 131.294 160.965 131.225 160.892 131.181C160.684 131.045 160.446 130.963 160.199 130.943C159.952 130.922 159.703 130.963 159.476 131.063C159.337 131.114 159.222 131.213 159.15 131.342C159.141 131.362 159.136 131.383 159.136 131.405C159.136 131.427 159.141 131.449 159.15 131.469C159.167 131.504 159.195 131.532 159.23 131.549ZM157.734 132.465C158.579 132.13 157.711 131.455 157.177 131.427C156.856 131.427 155.355 131.842 155.964 132.3C156.045 132.354 156.134 132.394 156.228 132.418C156.711 132.603 157.241 132.619 157.734 132.465ZM158.74 133.182C159.156 133.308 159.588 133.374 160.023 133.376C160.182 133.388 160.342 133.374 160.495 133.333C160.641 133.285 160.768 133.192 160.859 133.069C160.913 133.005 160.949 132.927 160.963 132.844C160.977 132.761 160.969 132.676 160.939 132.597C160.881 132.497 160.794 132.418 160.689 132.371C160.087 132.067 159.395 131.996 158.744 132.172C158.613 132.213 158.492 132.283 158.39 132.375C158.34 132.421 158.3 132.479 158.276 132.543C158.251 132.606 158.242 132.675 158.249 132.743C158.291 132.97 158.537 133.107 158.758 133.192L158.74 133.182ZM162.818 132.328C162.627 132.137 162.37 132.025 162.1 132.017C161.826 131.984 161.572 132.017 161.534 132.234C161.534 132.319 161.595 132.394 161.666 132.441C161.906 132.597 162.182 132.69 162.468 132.71C162.53 132.722 162.593 132.718 162.652 132.699C162.711 132.68 162.765 132.647 162.808 132.602C162.837 132.563 162.855 132.517 162.86 132.469C162.865 132.421 162.857 132.372 162.836 132.328H162.818ZM156.318 133.664C156.305 133.744 156.314 133.826 156.345 133.901C156.376 133.976 156.427 134.041 156.493 134.089C156.801 134.339 157.171 134.502 157.564 134.561C157.929 134.645 158.307 134.661 158.678 134.608C158.858 134.575 159.056 134.49 159.094 134.31C159.097 134.247 159.086 134.184 159.062 134.126C159.037 134.068 159 134.017 158.952 133.975C158.617 133.664 156.564 132.989 156.318 133.664ZM161.666 133.838C161.429 133.725 161.168 133.67 160.905 133.678C160.642 133.686 160.385 133.757 160.156 133.886C160.085 133.923 160.009 133.971 159.995 134.046C159.981 134.122 160.099 134.254 160.212 134.296C160.34 134.344 160.473 134.376 160.609 134.391C160.854 134.414 162.204 134.235 161.671 133.834L161.666 133.838Z" fill="#FFBDA7"/>
<path d="M153.162 136.718C153.684 136.987 154.113 137.406 154.394 137.921C154.866 138.865 154.455 139.932 153.162 140.678C152.097 141.215 150.921 141.495 149.728 141.495C148.535 141.495 147.359 141.215 146.294 140.678C145.303 140.102 144.831 139.347 144.878 138.596C144.925 137.846 145.393 137.237 146.294 136.708C147.359 136.17 148.536 135.89 149.729 135.892C150.922 135.893 152.098 136.176 153.162 136.718Z" fill="#B16668"/>
<path opacity="0.3" d="M153.401 137.756C153.21 137.49 152.948 137.282 152.645 137.157C152.342 137.032 152.011 136.994 151.687 137.048C151.501 137.062 151.324 137.134 151.182 137.256C151.114 137.318 151.068 137.401 151.051 137.493C151.035 137.584 151.05 137.678 151.093 137.761C151.157 137.846 151.244 137.913 151.343 137.954C151.735 138.167 152.136 138.365 152.537 138.554C152.7 138.642 152.877 138.699 153.061 138.723C153.151 138.732 153.241 138.717 153.324 138.681C153.407 138.645 153.478 138.588 153.533 138.516C153.587 138.39 153.604 138.251 153.58 138.116C153.557 137.981 153.494 137.856 153.401 137.756ZM151.041 138.369C150.637 138.264 150.208 138.311 149.837 138.502C149.672 138.587 149.502 138.747 149.549 138.926C149.574 138.989 149.613 139.045 149.663 139.09C149.713 139.135 149.772 139.168 149.837 139.186C150.074 139.285 150.326 139.342 150.583 139.356C150.805 139.382 151.03 139.332 151.22 139.214C151.598 138.95 151.428 138.506 151.041 138.384V138.369ZM148.449 138.143C148.805 138.107 149.142 137.969 149.422 137.746C150.182 137.01 148.303 136.614 147.831 136.651C147.359 136.689 145.707 137.374 146.189 138.067C146.255 138.142 146.338 138.201 146.43 138.239C146.522 138.278 146.622 138.295 146.722 138.289C147.302 138.318 147.883 138.269 148.449 138.143ZM149.979 136.977C150.16 137.104 150.384 137.155 150.602 137.119C150.65 137.115 150.696 137.101 150.738 137.079C150.781 137.056 150.818 137.024 150.847 136.987C150.88 136.921 150.887 136.846 150.868 136.776C150.849 136.705 150.805 136.644 150.743 136.604C150.617 136.528 150.475 136.483 150.328 136.472C150.045 136.439 149.752 136.505 149.856 136.817C149.881 136.878 149.924 136.931 149.979 136.968V136.977ZM148.185 139.011C147.77 138.915 147.337 138.938 146.934 139.077C146.806 139.103 146.685 139.158 146.58 139.238C146.529 139.278 146.49 139.331 146.469 139.392C146.447 139.453 146.443 139.519 146.458 139.583C146.492 139.652 146.542 139.712 146.603 139.759C146.664 139.805 146.736 139.837 146.812 139.852C147.269 139.998 147.747 140.068 148.228 140.059C148.328 140.073 148.431 140.061 148.526 140.025C148.62 139.989 148.705 139.929 148.77 139.852C148.954 139.507 148.468 139.12 148.185 139.011ZM150.706 140.125C150.295 139.828 149.568 140.031 149.167 140.243C149.058 140.3 148.94 140.39 148.945 140.512C148.95 140.635 149.072 140.711 149.181 140.753C149.555 140.883 149.956 140.918 150.347 140.852C150.559 140.829 150.819 140.763 150.876 140.564C150.896 140.483 150.89 140.397 150.86 140.318C150.829 140.24 150.776 140.172 150.706 140.125ZM152.759 139.38C152.428 139.318 151.98 139.639 151.739 139.823C151.697 139.856 151.65 139.903 151.654 139.955C151.659 140.007 151.749 140.055 151.824 140.064C152.051 140.089 152.281 140.076 152.504 140.026C152.759 139.97 153.231 139.469 152.759 139.38Z" fill="#FFBDA7"/>
<path d="M133.355 142.476L132.34 143.066C132.507 143.205 132.685 143.33 132.873 143.439C134.057 144.099 135.398 144.425 136.753 144.383C139.67 144.359 141.997 142.967 141.945 141.296C141.917 140.272 141.001 139.38 139.665 138.842L133.492 142.396C133.454 142.424 133.402 142.448 133.355 142.476Z" fill="#B16668"/>
<g opacity="0.3">
<path d="M137.061 143.373C137.72 143.485 138.397 143.398 139.006 143.123C139.284 142.996 139.723 142.736 139.501 142.401C139.416 142.304 139.307 142.233 139.185 142.194C139.063 142.155 138.932 142.15 138.807 142.179C138.118 142.27 137.45 142.483 136.834 142.807C136.756 142.84 136.692 142.9 136.655 142.977C136.64 143.029 136.641 143.086 136.66 143.138C136.679 143.189 136.713 143.234 136.759 143.265C136.849 143.325 136.953 143.362 137.061 143.373Z" fill="#FFBDA7"/>
<path d="M138.558 140.343C138.483 140.396 138.421 140.467 138.378 140.549C138.336 140.631 138.313 140.722 138.312 140.815C138.33 140.904 138.367 140.987 138.421 141.06C138.475 141.133 138.544 141.192 138.624 141.235C138.852 141.382 139.109 141.48 139.377 141.521C139.646 141.563 139.92 141.547 140.182 141.476C140.38 141.436 140.562 141.339 140.705 141.195C140.847 141.051 140.942 140.867 140.979 140.668C140.985 140.596 140.973 140.523 140.946 140.456C140.898 140.37 140.828 140.299 140.743 140.248C140.418 140.025 140.029 139.913 139.635 139.93C139.241 139.947 138.863 140.092 138.558 140.343Z" fill="#FFBDA7"/>
<path d="M133.734 143.246C134.246 143.336 134.773 143.315 135.277 143.184C135.451 143.152 135.613 143.075 135.749 142.963C135.82 142.908 135.874 142.835 135.904 142.752C135.935 142.668 135.942 142.578 135.924 142.491C135.843 142.118 135.296 141.806 134.753 141.665L133.516 142.377C133.469 142.41 133.417 142.434 133.37 142.462L133.139 142.599C133.115 142.906 133.29 143.165 133.734 143.246Z" fill="#FFBDA7"/>
<path d="M137.074 141.131C136.848 141.131 136.21 141.192 136.243 141.556C136.243 141.674 136.385 141.74 136.503 141.768C136.811 141.849 137.134 141.861 137.447 141.801C137.678 141.759 137.947 141.584 137.777 141.329C137.707 141.245 137.608 141.191 137.499 141.178C137.36 141.144 137.217 141.129 137.074 141.131Z" fill="#FFBDA7"/>
</g>
<path d="M132.216 31.7121L112.104 43.3469C111.708 43.5735 111.387 44.1304 111.387 45.2066V69.1559C111.398 69.4063 111.469 69.6504 111.595 69.8674C111.721 70.0843 111.897 70.2677 112.109 70.4019L114.941 72.0256C115.164 72.1374 115.411 72.1955 115.661 72.1955C115.911 72.1955 116.157 72.1374 116.38 72.0256L136.497 60.3861C136.706 60.2503 136.88 60.0671 137.005 59.8514C137.129 59.6357 137.201 59.3935 137.215 59.1447V34.5677C137.201 34.3195 137.129 34.078 137.005 33.8631C136.88 33.6481 136.706 33.4658 136.497 33.3311L133.665 31.7121C133.441 31.5977 133.192 31.5381 132.941 31.5381C132.689 31.5381 132.44 31.5977 132.216 31.7121Z" fill="#F7921E"/>
<path opacity="0.15" d="M116.403 72.0207C116.179 72.13 115.933 72.1868 115.683 72.1868C115.434 72.1868 115.188 72.13 114.963 72.0207L112.131 70.397C111.918 70.2646 111.74 70.0816 111.614 69.8643C111.488 69.647 111.418 69.402 111.409 69.1509V45.2064C111.376 44.7465 111.464 44.2859 111.664 43.8706L115.912 46.3203C115.774 46.5306 115.7 46.7766 115.7 47.0283V71.6053C115.686 72.0348 115.983 72.2614 116.403 72.0207Z" fill="black"/>
<path d="M109.418 62.8168C108.97 62.5477 105.533 60.6078 105.42 60.5465C105.336 60.4946 105.264 60.4248 105.21 60.342C105.156 60.2593 105.121 60.1656 105.108 60.0677C105.094 59.9698 105.103 59.8702 105.132 59.7759C105.162 59.6816 105.212 59.5949 105.278 59.5222L111.386 52.5225L115.686 54.9863L109.3 61.8067C109.236 61.8784 109.188 61.9628 109.159 62.0545C109.13 62.1461 109.121 62.2428 109.132 62.3383C109.143 62.4337 109.174 62.5257 109.224 62.6082C109.273 62.6907 109.339 62.7618 109.418 62.8168Z" fill="#F7921E"/>
<path d="M136.499 34.1525L116.391 45.7873C116.182 45.9231 116.008 46.1063 115.884 46.322C115.759 46.5377 115.687 46.7799 115.674 47.0287V54.9866L109.283 61.807C109.194 61.8939 109.132 62.0048 109.105 62.1261C109.078 62.2474 109.087 62.374 109.13 62.4905C109.174 62.607 109.25 62.7083 109.35 62.7822C109.45 62.8561 109.57 62.8994 109.694 62.9067L115.674 62.4725V71.6057C115.674 72.0777 115.995 72.2476 116.391 72.0211L136.499 60.3863C136.707 60.2505 136.881 60.0673 137.006 59.8516C137.131 59.6359 137.203 59.3937 137.216 59.1449V34.5679C137.23 34.11 136.909 33.9259 136.499 34.1525Z" fill="#F7921E"/>
<path opacity="0.35" d="M136.499 34.1525L116.391 45.7873C116.182 45.9231 116.008 46.1063 115.884 46.322C115.759 46.5377 115.687 46.7799 115.674 47.0287V54.9866L109.283 61.807C109.194 61.8939 109.132 62.0048 109.105 62.1261C109.078 62.2474 109.087 62.374 109.13 62.4905C109.174 62.607 109.25 62.7083 109.35 62.7822C109.45 62.8561 109.57 62.8994 109.694 62.9067L115.674 62.4725V71.6057C115.674 72.0777 115.995 72.2476 116.391 72.0211L136.499 60.3863C136.707 60.2505 136.881 60.0673 137.006 59.8516C137.131 59.6359 137.203 59.3937 137.216 59.1449V34.5679C137.23 34.11 136.909 33.9259 136.499 34.1525Z" fill="white"/>
<path d="M119.652 54.6609C119.659 53.3616 119.929 52.0771 120.445 50.8849C120.911 49.6417 121.746 48.5709 122.838 47.8169C124.476 46.8729 125.845 48.8269 126.062 51.1492C126.256 48.5862 127.591 45.0132 129.229 44.0692C130.173 43.5075 131.046 43.6444 131.641 44.3193C132.24 45.1371 132.533 46.1397 132.467 47.1513C132.491 51.0784 130.14 54.6278 128.177 58.3661L126.057 61.9769L124.009 60.8063C122.041 59.3761 119.671 58.5879 119.652 54.6609Z" fill="#FAFAFA"/>
</svg>
