<svg xmlns="http://www.w3.org/2000/svg" width="257" height="256" fill="none"><path stroke="#D5D5D5" d="M47.31 202.655c-22.474-11.768-33.56-27.116-33.56-42.333s11.084-30.568 33.56-42.341c22.464-11.767 51.94-17.663 81.442-17.663 29.503 0 58.977 5.896 81.439 17.663 22.473 11.773 33.558 27.122 33.559 42.337s-11.083 30.564-33.559 42.337c-22.465 11.766-51.939 17.663-81.441 17.663s-58.976-5.897-81.44-17.663Z" style="stroke:#d5d5d5;stroke:color(display-p3 .8353 .8353 .8353);stroke-opacity:1"/><path fill="#F7921E" d="M158.029 119.683v4.761l-82.544 47.657-2.56 1.459a4.42 4.42 0 0 1-1.94-3.507V89.797a.86.86 0 0 1 .117-.404.9.9 0 0 1 .297-.313l18.81-10.86c.231-.132 1.573.431 1.793.564l.143.082q.189.118.328.292c.107.113.19.247.24.394l1.705 4.92 61.277-36.474a.92.92 0 0 1 .803 0l1.137.66a.8.8 0 0 1 .292.302.87.87 0 0 1 .123.415v70.308z" style="fill:#f7921e;fill:color(display-p3 .9686 .5725 .1176);fill-opacity:1"/><path fill="#000" d="M158.029 119.683v4.761l-82.544 47.657-2.56 1.459a4.42 4.42 0 0 1-1.94-3.507V89.797a.86.86 0 0 1 .117-.404.9.9 0 0 1 .297-.313l18.81-10.86c.231-.132 1.573.431 1.793.564l.143.082q.189.118.328.292c.107.113.19.247.24.394l1.705 4.92 61.277-36.474a.92.92 0 0 1 .803 0l1.137.66a.8.8 0 0 1 .292.302.87.87 0 0 1 .123.415v70.308z" opacity=".5" style="fill:#000;fill-opacity:1"/><path fill="#F7921E" d="m158.029 124.445-85.084 49.116V90.438l19.548-11.264c.108.112.19.247.24.394l1.706 4.92.322.932 63.14-36.46a.86.86 0 0 1 .123.415z" style="fill:#f7921e;fill:color(display-p3 .9686 .5725 .1176);fill-opacity:1"/><path fill="#000" d="m158.029 124.445-85.084 49.116V90.438l19.548-11.264c.108.112.19.247.24.394l1.706 4.92.322.932 63.14-36.46a.86.86 0 0 1 .123.415z" opacity=".35" style="fill:#000;fill-opacity:1"/><path fill="#F7921E" d="M92.493 79.158 72.945 90.422l-1.823-1.024a.9.9 0 0 1 .297-.312l18.816-10.86a.88.88 0 0 1 .814 0l1.116.645q.189.117.328.287" style="fill:#f7921e;fill:color(display-p3 .9686 .5725 .1176);fill-opacity:1"/><path fill="#000" d="M92.493 79.158 72.945 90.422l-1.823-1.024a.9.9 0 0 1 .297-.312l18.816-10.86a.88.88 0 0 1 .814 0l1.116.645q.189.117.328.287" opacity=".2" style="fill:#000;fill-opacity:1"/><path fill="#F7921E" d="m157.901 48.945-63.135 36.46-.322-.933 61.25-36.48a.94.94 0 0 1 .804 0l1.137.66a.8.8 0 0 1 .266.293" style="fill:#f7921e;fill:color(display-p3 .9686 .5725 .1176);fill-opacity:1"/><path fill="#000" d="m157.901 48.945-63.135 36.46-.322-.933 61.25-36.48a.94.94 0 0 1 .804 0l1.137.66a.8.8 0 0 1 .266.293" opacity=".2" style="fill:#000;fill-opacity:1"/><path fill="#FAFAFA" d="M97.219 151.77a2.1 2.1 0 0 1-.916-1.659V67.869a2.16 2.16 0 0 1 .977-1.695l52.373-30.208a1.83 1.83 0 0 1 2.585.665c.161.292.239.624.226.958v82.242a2.16 2.16 0 0 1-.978 1.695l-52.373 30.208a2.088 2.088 0 0 1-1.894.036" style="fill:#fafafa;fill:color(display-p3 .9804 .9804 .9804);fill-opacity:1"/><path fill="#F0F0F0" d="m99.113 151.734 52.373-30.208a2.15 2.15 0 0 0 .978-1.695V37.589c0-.625-.435-.876-.978-.568L99.113 67.229a2.17 2.17 0 0 0-.978 1.694v82.248c0 .625.44.876.978.563" style="fill:#f0f0f0;fill:color(display-p3 .9412 .9412 .9412);fill-opacity:1"/><path fill="#E0E0E0" d="m104.438 70.5 40.474-23.373c.476-.276.865-.051.865.512v.343a1.91 1.91 0 0 1-.865 1.495l-40.474 23.368c-.476.276-.865.056-.86-.512v-.343c.016-.299.102-.59.251-.848.15-.26.359-.48.609-.642M104.438 76.327l40.474-23.373c.476-.271.865-.051.865.512v.343a1.898 1.898 0 0 1-.865 1.49l-40.474 23.363c-.476.276-.865.05-.86-.512v-.343a1.897 1.897 0 0 1 .86-1.48M104.438 82.153l40.474-23.368c.476-.276.865-.05.865.512v.344a1.92 1.92 0 0 1-.865 1.495l-40.474 23.367c-.476.277-.865.051-.86-.512v-.343a1.9 1.9 0 0 1 .86-1.495M104.438 87.985l40.474-23.373c.476-.271.865-.05.865.512v.348a1.9 1.9 0 0 1-.865 1.49l-40.474 23.373c-.476.272-.865.051-.86-.512v-.348a1.913 1.913 0 0 1 .86-1.49M104.438 93.811l40.474-23.367c.476-.277.865-.057.865.512v.343a1.92 1.92 0 0 1-.865 1.495L104.438 96.16c-.476.277-.865.052-.86-.512v-.348a1.92 1.92 0 0 1 .86-1.49M104.438 99.684l40.474-23.373c.476-.27.865-.05.865.512v.344a1.9 1.9 0 0 1-.865 1.49l-40.474 23.372c-.476.277-.865.051-.86-.512v-.343a1.91 1.91 0 0 1 .86-1.49M104.438 105.511l40.474-23.368c.476-.277.865-.051.865.512v.343a1.91 1.91 0 0 1-.865 1.495l-40.474 23.352c-.476.277-.865.057-.86-.512v-.343a1.92 1.92 0 0 1 .86-1.479M104.438 111.343l40.474-23.373c.476-.272.865-.052.865.512v.348a1.9 1.9 0 0 1-.865 1.49l-40.474 23.373c-.476.276-.865.051-.86-.512v-.343a1.896 1.896 0 0 1 .86-1.495M104.438 117.169l40.474-23.368c.476-.276.865-.051.865.512v.343a1.92 1.92 0 0 1-.865 1.495l-40.474 23.368c-.476.276-.865.051-.86-.512v-.343a1.906 1.906 0 0 1 .86-1.495M104.438 123.001l40.474-23.373c.476-.277.865-.052.865.512v.343a1.92 1.92 0 0 1-.865 1.495l-40.474 23.373c-.476.271-.865.051-.86-.512v-.354a1.897 1.897 0 0 1 .86-1.484M104.438 128.853l40.474-23.368c.476-.276.865-.056.865.512v.343a1.91 1.91 0 0 1-.865 1.495l-40.474 23.368c-.476.276-.865.051-.86-.512v-.343c.016-.3.102-.591.251-.851.15-.259.358-.48.609-.644M104.438 134.685l40.474-23.373c.476-.277.865-.051.865.512v.343a1.911 1.911 0 0 1-.865 1.495l-40.474 23.373c-.476.271-.865.051-.86-.512v-.343a1.9 1.9 0 0 1 .86-1.495M104.438 140.511l40.474-23.373c.476-.271.865-.051.865.512v.343a1.893 1.893 0 0 1-.865 1.49l-40.474 23.373c-.476.276-.865.051-.86-.512v-.343a1.906 1.906 0 0 1 .86-1.49M98.985 151.8a1.824 1.824 0 0 1-2.474-.764 1.83 1.83 0 0 1-.208-.925V67.868c.014-.34.112-.67.286-.962l1.833 1.06a1.96 1.96 0 0 0-.287.957v82.248c0 .573.374.829.85.629" style="fill:#e0e0e0;fill:color(display-p3 .8784 .8784 .8784);fill-opacity:1"/><path fill="#FAFAFA" d="M104.571 156.014a2.1 2.1 0 0 1-.916-1.658V72.113a2.17 2.17 0 0 1 .978-1.695l52.372-30.208a1.837 1.837 0 0 1 2.816 1.623v82.243a2.17 2.17 0 0 1-.978 1.695l-52.377 30.208a2.1 2.1 0 0 1-1.895.035" style="fill:#fafafa;fill:color(display-p3 .9804 .9804 .9804);fill-opacity:1"/><path fill="#F0F0F0" d="m106.466 155.978 52.377-30.208a2.16 2.16 0 0 0 .978-1.694V41.833c0-.624-.44-.875-.978-.563l-52.377 30.208a2.17 2.17 0 0 0-.978 1.695v82.242c0 .625.44.876.978.563" style="fill:#f0f0f0;fill:color(display-p3 .9412 .9412 .9412);fill-opacity:1"/><path fill="#E0E0E0" d="m111.791 74.745 40.473-23.373c.476-.277.865-.051.865.512v.343a1.9 1.9 0 0 1-.865 1.495l-40.473 23.373c-.477.271-.861.05-.861-.512v-.343a1.896 1.896 0 0 1 .861-1.495M111.791 80.571l40.473-23.373c.476-.271.865-.051.865.512v.343a1.89 1.89 0 0 1-.865 1.49l-40.473 23.373c-.477.276-.861.051-.861-.512v-.343a1.9 1.9 0 0 1 .861-1.49M111.791 86.403l40.473-23.357c.476-.277.865-.051.865.512v.343a1.9 1.9 0 0 1-.865 1.495l-40.473 23.367c-.477.277-.861.057-.861-.512v-.343a1.898 1.898 0 0 1 .861-1.505M111.791 92.23l40.473-23.374c.476-.27.865-.05.865.512v.333c-.016.3-.103.59-.254.849-.15.259-.359.479-.611.641l-40.473 23.373c-.477.276-.861.051-.861-.512v-.343a1.91 1.91 0 0 1 .861-1.48M111.791 98.056l40.473-23.368c.476-.276.865-.05.865.512v.343a1.917 1.917 0 0 1-.865 1.495l-40.473 23.368c-.477.276-.861.051-.861-.512v-.343a1.92 1.92 0 0 1 .861-1.495M111.791 103.928l40.473-23.367c.476-.277.865-.057.865.512v.343a1.89 1.89 0 0 1-.865 1.49l-40.473 23.373c-.477.276-.861.051-.861-.512v-.344a1.9 1.9 0 0 1 .861-1.495M111.791 109.76l40.473-23.373c.476-.276.865-.05.865.513v.343a1.9 1.9 0 0 1-.865 1.495l-40.473 23.357c-.477.271-.861.051-.861-.512v-.343a1.9 1.9 0 0 1 .861-1.48M111.791 115.587l40.473-23.357c.476-.272.865-.052.865.511v.344a1.89 1.89 0 0 1-.865 1.49l-40.473 23.372c-.477.277-.861.051-.861-.512v-.343a1.91 1.91 0 0 1 .861-1.505M111.791 121.413l40.473-23.367c.476-.277.865-.052.865.512v.327a1.9 1.9 0 0 1-.865 1.495l-40.473 23.368c-.477.277-.861.056-.861-.512v-.343c.019-.297.106-.585.255-.842.15-.256.357-.475.606-.638M111.791 127.245l40.473-23.372c.476-.272.865-.052.865.512v.348a1.896 1.896 0 0 1-.865 1.49l-40.473 23.383c-.477.276-.861.051-.861-.512v-.343a1.91 1.91 0 0 1 .861-1.506M111.791 133.097l40.473-23.367c.476-.277.865-.051.865.512v.343a1.911 1.911 0 0 1-.865 1.495l-40.473 23.368c-.477.276-.861.051-.861-.512v-.344a1.92 1.92 0 0 1 .861-1.495M111.791 138.929l40.473-23.373c.476-.276.865-.051.865.512v.343a1.9 1.9 0 0 1-.865 1.495l-40.473 23.373c-.477.272-.861.051-.861-.512v-.348a1.9 1.9 0 0 1 .861-1.49M111.791 144.755l40.473-23.342c.476-.276.865-.056.865.512v.343a1.9 1.9 0 0 1-.865 1.495l-40.473 23.368c-.477.277-.861.051-.861-.512v-.343a1.9 1.9 0 0 1 .861-1.521M106.338 156.045a1.825 1.825 0 0 1-2.475-.764 1.84 1.84 0 0 1-.208-.926V72.113c.014-.34.113-.67.287-.963l1.838 1.06a1.96 1.96 0 0 0-.292.958v82.247c0 .574.374.814.85.63" style="fill:#e0e0e0;fill:color(display-p3 .8784 .8784 .8784);fill-opacity:1"/><path fill="#F7921E" d="m175.401 58.734-13.639 59.095-1.26 5.433a6.27 6.27 0 0 1-2.606 3.527l-80.937 46.7a4.2 4.2 0 0 1-1.915.512 3.9 3.9 0 0 1-2.099-.44l.42-1.803c0-.056 0-.112.04-.174l.457-1.976 1.96-8.571 12.54-54.308a.8.8 0 0 1 .076-.2q.05-.092.108-.179v-.03q.132-.178.317-.297l69.12-39.906 15.125-8.734a.92.92 0 0 1 .834 0l1.116.645a.69.69 0 0 1 .343.706" style="fill:#f7921e;fill:color(display-p3 .9686 .5725 .1176);fill-opacity:1"/><path fill="#000" d="m175.401 58.734-13.639 59.095-1.26 5.433a6.27 6.27 0 0 1-2.606 3.527l-80.937 46.7a4.2 4.2 0 0 1-1.915.512 3.9 3.9 0 0 1-2.099-.44l.42-1.803c0-.056 0-.112.04-.174l.457-1.976 1.96-8.571 12.54-54.308a.8.8 0 0 1 .076-.2q.05-.092.108-.179v-.03q.132-.178.317-.297l69.12-39.906 15.125-8.734a.92.92 0 0 1 .834 0l1.116.645a.69.69 0 0 1 .343.706" opacity=".3" style="fill:#000;fill-opacity:1"/><path fill="#F7921E" d="M175.417 58.612c0-.164-.133-.22-.318-.108l-84.254 48.64a1.1 1.1 0 0 0-.318.292l-1.94-1.121q.132-.177.317-.297l84.245-48.64a.92.92 0 0 1 .834 0l1.116.645a.7.7 0 0 1 .233.255.7.7 0 0 1 .085.334" style="fill:#f7921e;fill:color(display-p3 .9686 .5725 .1176);fill-opacity:1"/><path fill="#000" d="M175.417 58.612c0-.164-.133-.22-.318-.108l-84.254 48.64a1.1 1.1 0 0 0-.318.292l-1.94-1.121q.132-.177.317-.297l84.245-48.64a.92.92 0 0 1 .834 0l1.116.645a.7.7 0 0 1 .233.255.7.7 0 0 1 .085.334" opacity=".2" style="fill:#000;fill-opacity:1"/><path fill="#F7921E" d="M90.527 107.441a2 2 0 0 0-.143.236 2 2 0 0 0-.062.174l-11.99 51.932-2.51 10.946-.317 1.367-.44 1.9a3.9 3.9 0 0 1-2.1-.44l.42-1.803c0-.056 0-.112.041-.174l.456-1.976 1.94-8.566 12.54-54.308a.8.8 0 0 1 .076-.199q.05-.093.108-.179v-.031z" style="fill:#f7921e;fill:color(display-p3 .9686 .5725 .1176);fill-opacity:1"/><path fill="#000" d="M90.527 107.441a2 2 0 0 0-.143.236 2 2 0 0 0-.062.174l-11.99 51.932-2.51 10.946-.317 1.367-.44 1.9a3.9 3.9 0 0 1-2.1-.44l.42-1.803c0-.056 0-.112.041-.174l.456-1.976 1.94-8.566 12.54-54.308a.8.8 0 0 1 .076-.199q.05-.093.108-.179v-.031z" opacity=".5" style="fill:#000;fill-opacity:1"/><path fill="#F7921E" d="M75.915 168.548a.54.54 0 0 1 .256.589l-.686 2.965-.343 1.479a.51.51 0 0 1-.553.42 3.65 3.65 0 0 1-1.644-.44 4.43 4.43 0 0 1-1.94-3.507v-3.405a.545.545 0 0 1 .538-.541.53.53 0 0 1 .27.07l.866.512a.54.54 0 0 1 .266.466v1.694a.538.538 0 0 0 1.065.123l.143-.63a.537.537 0 0 1 .794-.343z" style="fill:#f7921e;fill:color(display-p3 .9686 .5725 .1176);fill-opacity:1"/><path fill="#000" d="M75.915 168.548a.54.54 0 0 1 .256.589l-.686 2.965-.343 1.479a.51.51 0 0 1-.553.42 3.65 3.65 0 0 1-1.644-.44 4.43 4.43 0 0 1-1.94-3.507v-3.405a.545.545 0 0 1 .538-.541.53.53 0 0 1 .27.07l.866.512a.54.54 0 0 1 .266.466v1.694a.538.538 0 0 0 1.065.123l.143-.63a.537.537 0 0 1 .794-.343z" opacity=".5" style="fill:#000;fill-opacity:1"/><path fill="#FAFAFA" d="M111.928 160.259a2.1 2.1 0 0 1-.916-1.659V76.358a2.15 2.15 0 0 1 .978-1.69l52.367-30.208a1.836 1.836 0 0 1 2.585.665c.161.293.24.624.226.958v82.237a2.152 2.152 0 0 1-.978 1.695l-52.367 30.208a2.118 2.118 0 0 1-1.895.036" style="fill:#fafafa;fill:color(display-p3 .9804 .9804 .9804);fill-opacity:1"/><path fill="#E0E0E0" d="M113.71 160.289a2.05 2.05 0 0 1-1.766-.03 2.09 2.09 0 0 1-.917-1.654V76.357c.014-.341.112-.674.287-.967l1.833 1.06c-.177.29-.276.622-.287.962v82.253c-.015.568.338.829.85.624M121.4 71.35l36.777-21.217v8.478L121.4 79.845zM118.216 85.194l11.878-6.865c.272-.16.512-.047.512.245a1.02 1.02 0 0 1-.512.814l-11.878 6.866c-.272.159-.512.046-.512-.246a1.02 1.02 0 0 1 .512-.814M118.216 87.32l11.878-6.866c.272-.16.512-.047.512.245a1.05 1.05 0 0 1-.512.814l-11.878 6.866c-.272.154-.512.046-.512-.25a1.03 1.03 0 0 1 .512-.81M118.216 89.439l11.878-6.866c.272-.153.512-.046.512.251a1.05 1.05 0 0 1-.512.814l-11.878 6.866c-.272.154-.512.046-.512-.25a1.06 1.06 0 0 1 .512-.815M118.216 91.564l11.878-6.866c.272-.154.512-.046.512.246a1.02 1.02 0 0 1-.512.814l-11.878 6.866c-.272.158-.512.046-.512-.246a1.06 1.06 0 0 1 .512-.814M118.216 151.017l44.989-25.974c.272-.158.512-.046.512.246a1.03 1.03 0 0 1-.512.814l-44.989 25.979c-.272.154-.512.041-.512-.251a1.06 1.06 0 0 1 .512-.814M118.216 153.157l44.989-25.978c.272-.154.512-.041.512.25a1.055 1.055 0 0 1-.512.815l-44.989 25.937c-.272.159-.512.047-.512-.245a1.03 1.03 0 0 1 .512-.779M147.144 68.488l14.694-8.514c.267-.154.487-.041.487.25a1.08 1.08 0 0 1-.487.815l-14.694 8.514c-.271.154-.487.046-.487-.25a1.059 1.059 0 0 1 .487-.814M147.144 70.613l14.694-8.495c.267-.153.487-.046.487.251a1.08 1.08 0 0 1-.487.815l-14.694 8.489c-.271.158-.487.046-.487-.246a1.06 1.06 0 0 1 .487-.814M147.144 72.738l14.694-8.495c.267-.158.487-.046.487.246a1.03 1.03 0 0 1-.487.814l-14.694 8.494c-.271.16-.487.047-.487-.245a1.03 1.03 0 0 1 .487-.814M147.144 74.863l14.694-8.495c.267-.158.487-.046.487.246a1.05 1.05 0 0 1-.487.814l-14.694 8.494c-.271.154-.487.047-.487-.25a1.03 1.03 0 0 1 .487-.81" style="fill:#e0e0e0;fill:color(display-p3 .8784 .8784 .8784);fill-opacity:1"/><path fill="#F7921E" d="m117.724 107.774 45.973-26.542v1.06l-45.973 26.542z" style="fill:#f7921e;fill:color(display-p3 .9686 .5725 .1176);fill-opacity:1"/><path fill="#000" d="m117.724 107.774 45.973-26.542v1.06l-45.973 26.542z" opacity=".2" style="fill:#000;fill-opacity:1"/><path fill="#F7921E" d="m117.724 135.376 45.973-26.543v1.06l-45.973 26.542z" style="fill:#f7921e;fill:color(display-p3 .9686 .5725 .1176);fill-opacity:1"/><path fill="#000" d="m117.724 135.376 45.973-26.543v1.06l-45.973 26.542z" opacity=".2" style="fill:#000;fill-opacity:1"/><path fill="#F7921E" d="m117.724 110.958 16.548-9.559v2.125l-16.548 9.554zM137.953 99.28l7.353-4.25v2.125l-7.353 4.245zM147.144 93.97l7.357-4.25v2.126l-7.357 4.25zM156.339 88.661l7.358-4.245v2.12l-7.358 4.25z" style="fill:#f7921e;fill:color(display-p3 .9686 .5725 .1176);fill-opacity:1"/><path fill="#E6E6E6" d="m117.724 117.328 45.973-26.542v4.244l-45.973 26.542zM117.724 125.822l45.973-26.542v4.244l-45.973 26.542z" style="fill:#e6e6e6;fill:color(display-p3 .902 .902 .902);fill-opacity:1"/><path fill="#455A64" d="M119.562 114.481a.34.34 0 0 1-.32-.255.345.345 0 0 1 .152-.38l12.871-7.429a.35.35 0 0 1 .258-.033.35.35 0 0 1 .248.284.35.35 0 0 1-.168.338l-12.872 7.429a.33.33 0 0 1-.169.046M139.791 101.891a.24.24 0 0 1-.199-.113.22.22 0 0 1 .087-.307l5.514-3.185a.226.226 0 0 1 .307.082.2.2 0 0 1 .032.083.22.22 0 0 1-.045.168.2.2 0 0 1-.069.056l-5.514 3.185a.23.23 0 0 1-.113.031M139.792 103.412a.26.26 0 0 1-.115-.031.25.25 0 0 1-.085-.082.23.23 0 0 1-.023-.175.23.23 0 0 1 .11-.137l5.514-3.185a.226.226 0 0 1 .307.082.226.226 0 0 1 .028.174.2.2 0 0 1-.041.081.2.2 0 0 1-.069.057l-5.514 3.185a.24.24 0 0 1-.112.031M148.987 97.38a.224.224 0 0 1-.222-.283.23.23 0 0 1 .104-.137l5.52-3.195a.22.22 0 0 1 .171-.024.22.22 0 0 1 .136.107.225.225 0 0 1-.082.307l-5.514 3.194a.24.24 0 0 1-.113.031M158.178 92.07a.217.217 0 0 1-.195-.113.226.226 0 0 1 .082-.306l5.519-3.185a.23.23 0 0 1 .176-.032.22.22 0 0 1 .144.107.2.2 0 0 1 .029.086.2.2 0 0 1-.008.092.2.2 0 0 1-.043.08.2.2 0 0 1-.072.056l-5.52 3.19a.2.2 0 0 1-.112.026M119.562 118.731a.345.345 0 0 1-.168-.635l9.216-5.31a.343.343 0 0 1 .504.249.343.343 0 0 1-.066.253.4.4 0 0 1-.101.087l-9.216 5.31a.33.33 0 0 1-.169.046M139.792 106.141a.26.26 0 0 1-.115-.031.25.25 0 0 1-.085-.082.23.23 0 0 1 .087-.312l5.514-3.185a.22.22 0 0 1 .171-.022.22.22 0 0 1 .136.104.227.227 0 0 1 .028.174.2.2 0 0 1-.041.081.2.2 0 0 1-.069.057l-5.514 3.185a.24.24 0 0 1-.112.031M139.791 107.656a.24.24 0 0 1-.199-.113.22.22 0 0 1 .018-.251.2.2 0 0 1 .069-.056l5.514-3.184a.217.217 0 0 1 .307.081.2.2 0 0 1 .032.083.22.22 0 0 1-.045.168.2.2 0 0 1-.069.057l-5.514 3.184a.23.23 0 0 1-.113.031M148.987 101.63a.228.228 0 0 1-.118-.425l5.52-3.185a.224.224 0 0 1 .307.082.23.23 0 0 1-.082.313l-5.514 3.184a.24.24 0 0 1-.113.031M158.177 96.325a.23.23 0 0 1-.194-.112.23.23 0 0 1 .082-.313l5.519-3.184a.226.226 0 0 1 .307.082.23.23 0 0 1-.082.312l-5.519 3.185a.2.2 0 0 1-.113.03M119.562 122.975a.34.34 0 0 1-.307-.47.34.34 0 0 1 .139-.165l14.709-8.494a.34.34 0 0 1 .498.385.331.331 0 0 1-.16.204l-14.71 8.514a.34.34 0 0 1-.169.026M139.791 110.385a.24.24 0 0 1-.199-.113.22.22 0 0 1 .018-.251.2.2 0 0 1 .069-.056l5.514-3.184a.226.226 0 0 1 .307.081.218.218 0 0 1-.082.308l-5.514 3.184a.23.23 0 0 1-.113.031M139.792 111.906a.26.26 0 0 1-.115-.031.25.25 0 0 1-.085-.082.23.23 0 0 1-.023-.175.23.23 0 0 1 .11-.137l5.514-3.185a.227.227 0 1 1 .225.394l-5.514 3.185a.24.24 0 0 1-.112.031M148.987 105.874a.226.226 0 0 1-.2-.112.226.226 0 0 1 .082-.307l5.52-3.185a.2.2 0 0 1 .083-.032.22.22 0 0 1 .224.114.225.225 0 0 1-.082.307l-5.514 3.185a.24.24 0 0 1-.113.03M158.177 100.565a.224.224 0 0 1-.216-.167.22.22 0 0 1 .104-.253l5.519-3.185a.23.23 0 0 1 .176-.032.22.22 0 0 1 .144.107.2.2 0 0 1 .029.087.225.225 0 0 1-.124.228l-5.519 3.184a.2.2 0 0 1-.113.031M119.562 127.224a.34.34 0 0 1-.307-.469.34.34 0 0 1 .139-.165l7.357-4.25a.337.337 0 0 1 .463.125.34.34 0 0 1 .034.258.34.34 0 0 1-.159.206l-7.358 4.249a.33.33 0 0 1-.169.046M139.792 114.635a.26.26 0 0 1-.115-.031.25.25 0 0 1-.085-.082.23.23 0 0 1-.023-.174.2.2 0 0 1 .041-.08.2.2 0 0 1 .069-.058l5.514-3.185a.226.226 0 0 1 .307.082.227.227 0 0 1 .028.174.2.2 0 0 1-.041.081.2.2 0 0 1-.069.057l-5.514 3.185a.23.23 0 0 1-.112.031M139.791 116.15a.235.235 0 0 1-.199-.112.223.223 0 0 1-.023-.173.2.2 0 0 1 .041-.078.2.2 0 0 1 .069-.057l5.514-3.184a.2.2 0 0 1 .085-.035.23.23 0 0 1 .174.041.22.22 0 0 1 .09.155.216.216 0 0 1-.052.171.2.2 0 0 1-.072.057l-5.514 3.185a.23.23 0 0 1-.113.03M148.987 110.149a.2.2 0 0 1-.115-.029.2.2 0 0 1-.085-.083.233.233 0 0 1 .082-.313l5.52-3.184a.225.225 0 0 1 .33.255.23.23 0 0 1-.105.139l-5.514 3.185a.24.24 0 0 1-.113.03M158.177 104.814a.22.22 0 0 1-.194-.112.23.23 0 0 1-.023-.173.23.23 0 0 1 .105-.139l5.519-3.185a.23.23 0 0 1 .171-.023.227.227 0 0 1 .159.278.23.23 0 0 1-.105.139l-5.519 3.185a.2.2 0 0 1-.113.03M119.562 131.469a.34.34 0 0 1-.32-.255.345.345 0 0 1 .152-.38l12.871-7.429a.33.33 0 0 1 .264-.048.34.34 0 0 1 .26.29.34.34 0 0 1-.078.257.4.4 0 0 1-.108.085l-12.872 7.434a.33.33 0 0 1-.169.046M139.791 118.879a.24.24 0 0 1-.199-.113.22.22 0 0 1 .087-.307l5.514-3.19a.22.22 0 0 1 .307.082.2.2 0 0 1 .032.083.22.22 0 0 1-.045.168.2.2 0 0 1-.069.056l-5.514 3.195a.23.23 0 0 1-.113.026M139.791 120.389a.234.234 0 0 1-.228-.201.2.2 0 0 1 .006-.089.2.2 0 0 1 .041-.078.2.2 0 0 1 .069-.056l5.514-3.16a.226.226 0 0 1 .307.082.2.2 0 0 1 .032.083.22.22 0 0 1-.045.168.2.2 0 0 1-.069.057l-5.514 3.194a.2.2 0 0 1-.113 0M148.987 114.368a.226.226 0 0 1-.2-.112.226.226 0 0 1 .082-.307l5.52-3.19a.22.22 0 0 1 .307.087.225.225 0 0 1-.082.307l-5.514 3.185a.24.24 0 0 1-.113.03M158.177 109.059a.224.224 0 0 1-.216-.167.22.22 0 0 1 .104-.253l5.519-3.185a.23.23 0 0 1 .171-.024.2.2 0 0 1 .079.039.2.2 0 0 1 .057.067.225.225 0 0 1-.082.308l-5.519 3.184a.2.2 0 0 1-.113.031M148.987 120.738q-.061 0-.115-.029a.24.24 0 0 1-.085-.084.225.225 0 0 1 .082-.307l5.52-3.185a.2.2 0 0 1 .084-.034.232.232 0 0 1 .175.04.24.24 0 0 1 .09.155.3.3 0 0 1-.008.092.23.23 0 0 1-.116.136l-5.514 3.185a.25.25 0 0 1-.113.031M158.177 115.428a.224.224 0 0 1-.216-.167.22.22 0 0 1 .104-.253l5.519-3.184a.2.2 0 0 1 .085-.035.226.226 0 0 1 .235.109.2.2 0 0 1 .029.087.22.22 0 0 1-.052.171.2.2 0 0 1-.072.057l-5.514 3.184a.23.23 0 0 1-.118.031M148.987 122.862a.2.2 0 0 1-.115-.029.24.24 0 0 1-.085-.083.23.23 0 0 1-.022-.171.23.23 0 0 1 .104-.137l5.52-3.189a.225.225 0 0 1 .309.084c.03.052.038.114.022.172a.22.22 0 0 1-.106.138l-5.514 3.184a.23.23 0 0 1-.113.031M158.177 117.553a.224.224 0 0 1-.216-.167.22.22 0 0 1 .104-.253l5.519-3.184a.216.216 0 0 1 .25.014.2.2 0 0 1 .057.067c.03.052.038.113.023.171a.22.22 0 0 1-.105.137l-5.514 3.184a.23.23 0 0 1-.118.031" style="fill:#455a64;fill:color(display-p3 .2706 .3529 .3922);fill-opacity:1"/><path fill="#F7921E" d="m163.697 116.268-29.425 16.983v6.369l29.425-16.983z" style="fill:#f7921e;fill:color(display-p3 .9686 .5725 .1176);fill-opacity:1"/><path fill="#FAFAFA" d="M139.786 131.571a.049.049 0 0 1 .062 0 .1.1 0 0 1 0 .077v.512a.3.3 0 0 1 0 .108.1.1 0 0 1-.024.042.1.1 0 0 1-.038.029l-.553.323v2.483q.015.051 0 .102a.2.2 0 0 1-.056.077l-.415.236a.03.03 0 0 1-.013.01q-.008.004-.017.004l-.017-.004-.014-.01a.1.1 0 0 1 0-.077V133l-.558.322a.04.04 0 0 1-.028.01.04.04 0 0 1-.028-.01.1.1 0 0 1-.026-.076v-.512a.3.3 0 0 1 .026-.108.2.2 0 0 1 .056-.077zM140.047 132.678q.01-.284.077-.558a2.4 2.4 0 0 1 .492-.968q.175-.205.409-.338a.87.87 0 0 1 .41-.133.44.44 0 0 1 .302.107.67.67 0 0 1 .195.302q.073.231.076.471v.861a2.6 2.6 0 0 1-.076.553 2.7 2.7 0 0 1-.195.512 2.3 2.3 0 0 1-.302.455 1.7 1.7 0 0 1-.41.338.87.87 0 0 1-.409.133.44.44 0 0 1-.302-.107.65.65 0 0 1-.19-.307 1.6 1.6 0 0 1-.077-.466v-.42c0-.149-.005-.287 0-.435m1.378.041v-.815a1 1 0 0 0-.031-.204.4.4 0 0 0-.077-.133.2.2 0 0 0-.056-.036.2.2 0 0 0-.067-.011.3.3 0 0 0-.169.052.6.6 0 0 0-.169.143.922.922 0 0 0-.194.41 1.2 1.2 0 0 0-.036.24v.8140000000000001a.57.57 0 0 0 .108.338c.066.072.163.067.291 0a.7.7 0 0 0 .292-.322c.062-.148.099-.306.108-.466zM143.954 129.165a.06.06 0 0 1 .031-.009q.017 0 .031.009a.1.1 0 0 1 .025.077v.512a.3.3 0 0 1-.025.108.3.3 0 0 1-.062.076l-.553.318v2.483a.3.3 0 0 1-.025.108.14.14 0 0 1-.062.071l-.409.236h-.062a.1.1 0 0 1 0-.077v-2.483l-.553.317a.06.06 0 0 1-.061 0 .1.1 0 0 1 0-.077v-.512a.24.24 0 0 1 0-.107.2.2 0 0 1 .061-.072zM145.265 128.408a.08.08 0 0 1 .048-.016q.028 0 .049.016a.2.2 0 0 1 .046.082l.686 2.652a.4.4 0 0 1 0 .066.2.2 0 0 1 0 .087.14.14 0 0 1-.051.057l-.394.23q-.062.039-.092 0a.1.1 0 0 1-.031-.061l-.087-.349-.835.482-.092.45a.3.3 0 0 1-.031.103.23.23 0 0 1-.092.092l-.394.23a.04.04 0 0 1-.023.009.03.03 0 0 1-.023-.009.08.08 0 0 1 0-.061.3.3 0 0 1 0-.082l.686-3.446a.4.4 0 0 1 .046-.133.24.24 0 0 1 .092-.108zm-.512 2.411.512-.292-.256-1.024zM147.902 129.503a.03.03 0 0 1 .012-.01.03.03 0 0 1 .016-.004q.008 0 .015.004.008.004.013.01a.11.11 0 0 1 .026.077v.512a.3.3 0 0 1-.026.107.14.14 0 0 1-.056.072l-1.46.87a.02.02 0 0 1-.012.01.03.03 0 0 1-.016.004.03.03 0 0 1-.015-.004.03.03 0 0 1-.013-.01.1.1 0 0 1-.022-.035.1.1 0 0 1-.003-.041v-3.124a.2.2 0 0 1 .025-.107.2.2 0 0 1 .056-.077l.415-.236a.04.04 0 0 1 .028-.011.04.04 0 0 1 .028.011.085.085 0 0 1 0 .077v2.483zM154.496 123.011a.5.5 0 0 1 .271 0 .4.4 0 0 1 .195.102.5.5 0 0 1 .118.184.7.7 0 0 1 .051.221.24.24 0 0 1 0 .107.1.1 0 0 1-.024.042.1.1 0 0 1-.037.03l-.221.128h-.082a.2.2 0 0 1-.046-.056.26.26 0 0 0-.143-.128.4.4 0 0 0-.287.076 1 1 0 0 0-.153.113.7.7 0 0 0-.128.154.8.8 0 0 0-.087.174.6.6 0 0 0-.031.184.3.3 0 0 0 .031.159.142.142 0 0 0 .112.056.6.6 0 0 0 .2 0l.292-.067q.159-.04.322-.035c.079.001.156.03.215.082a.4.4 0 0 1 .118.199q.04.164.036.333a1.66 1.66 0 0 1-.184.758 1.9 1.9 0 0 1-.512.635v.327a.2.2 0 0 1-.026.108.2.2 0 0 1-.056.072l-.256.148a.05.05 0 0 1-.031.01.05.05 0 0 1-.031-.01.1.1 0 0 1-.025-.077v-.327a.7.7 0 0 1-.266.035.4.4 0 0 1-.216-.071.43.43 0 0 1-.148-.18.7.7 0 0 1-.061-.302.2.2 0 0 1 0-.107.2.2 0 0 1 .061-.072l.22-.128c.036 0 .062-.025.082 0s.036.026.046.057a1 1 0 0 0 .056.097.14.14 0 0 0 .082.061q.067.016.134 0a.6.6 0 0 0 .199-.087q.098-.052.185-.123a1 1 0 0 0 .153-.164.8.8 0 0 0 .108-.189.56.56 0 0 0 .033-.289.2.2 0 0 0-.038-.069.17.17 0 0 0-.134-.036.8.8 0 0 0-.22.036l-.307.061a.7.7 0 0 1-.271 0 .3.3 0 0 1-.195-.082.44.44 0 0 1-.118-.205 1.4 1.4 0 0 1-.035-.353 1.5 1.5 0 0 1 .046-.379 2 2 0 0 1 .133-.363q.078-.177.199-.328.113-.149.251-.271v-.328a.3.3 0 0 1 .026-.108.14.14 0 0 1 .061-.071l.256-.149a.05.05 0 0 1 .028-.009q.017 0 .029.009.015.015.022.036a.1.1 0 0 1 .003.041zM156.682 121.751a.6.6 0 0 1 .272 0 .5.5 0 0 1 .194.103.5.5 0 0 1 .118.189.6.6 0 0 1 .046.22q.015.055 0 .108a.2.2 0 0 1-.061.072l-.22.128c-.036 0-.062.025-.082 0a.12.12 0 0 1-.046-.057.261.261 0 0 0-.144-.128c-.066 0-.159 0-.287.072a1 1 0 0 0-.153.118.7.7 0 0 0-.128.153.6.6 0 0 0-.087.174.5.5 0 0 0-.031.18.33.33 0 0 0 .031.163.156.156 0 0 0 .112.057 1 1 0 0 0 .2 0l.292-.067a1 1 0 0 1 .317-.036.35.35 0 0 1 .215.077.4.4 0 0 1 .123.205q.038.164.036.333.002.192-.051.379c-.063.263-.183.51-.353.722a1.8 1.8 0 0 1-.292.286v.307a.3.3 0 0 1-.026.108.17.17 0 0 1-.061.077l-.251.143h-.062a.14.14 0 0 1 0-.082v-.327a.7.7 0 0 1-.266.041.416.416 0 0 1-.363-.256.7.7 0 0 1-.067-.297.18.18 0 0 1 .026-.108.1.1 0 0 1 .023-.042.2.2 0 0 1 .038-.03l.22-.128a.12.12 0 0 1 .082 0 .1.1 0 0 1 .03.026.1.1 0 0 1 .016.036.4.4 0 0 0 .057.097.2.2 0 0 0 .082.062q.066.015.133 0a.6.6 0 0 0 .199-.082q.098-.057.185-.128a1 1 0 0 0 .261-.349.6.6 0 0 0 .041-.209.2.2 0 0 0-.007-.08.2.2 0 0 0-.039-.069.2.2 0 0 0-.063-.034q-.034-.011-.07-.007a1.4 1.4 0 0 0-.221.036l-.307.066a.8.8 0 0 1-.271 0 .35.35 0 0 1-.2-.081.46.46 0 0 1-.112-.21 1.3 1.3 0 0 1-.036-.354 1.6 1.6 0 0 1 .02-.379 1.9 1.9 0 0 1 .328-.691q.111-.15.256-.271v-.328a.3.3 0 0 1 0-.107.12.12 0 0 1 .061-.072l.251-.148h.062a.1.1 0 0 1 .025.076zM158.869 120.492a.5.5 0 0 1 .271 0 .4.4 0 0 1 .195.102.5.5 0 0 1 .117.185.8.8 0 0 1 .046.225.237.237 0 0 1-.081.179l-.221.123c-.035.026-.066.026-.082 0a.1.1 0 0 1-.051-.056.247.247 0 0 0-.143-.128.39.39 0 0 0-.282.077.86.86 0 0 0-.373.44.6.6 0 0 0-.031.184.3.3 0 0 0 .036.159.13.13 0 0 0 .112.056.7.7 0 0 0 .2 0l.292-.071q.156-.042.317-.036a.351.351 0 0 1 .333.287q.04.163.036.332a1.7 1.7 0 0 1-.184.753q-.086.185-.215.343a2 2 0 0 1-.292.292v.328a.3.3 0 0 1-.026.107.1.1 0 0 1-.023.042.2.2 0 0 1-.038.03l-.256.148a.04.04 0 0 1-.028.011.04.04 0 0 1-.029-.011.1.1 0 0 1-.025-.077v-.327a.6.6 0 0 1-.266.036.44.44 0 0 1-.216-.067.46.46 0 0 1-.153-.184.9.9 0 0 1-.062-.302.2.2 0 0 1 .026-.108.2.2 0 0 1 .061-.072l.221-.128h.082a.14.14 0 0 1 .046.062 1 1 0 0 0 .051.092.15.15 0 0 0 .087.061c.043.014.09.014.133 0a.7.7 0 0 0 .2-.081l.184-.128q.085-.075.154-.164.06-.088.107-.185a.6.6 0 0 0 .041-.21.2.2 0 0 0-.046-.153.17.17 0 0 0-.133-.036 1 1 0 0 0-.22.036l-.307.061a.9.9 0 0 1-.277.026.33.33 0 0 1-.195-.087.44.44 0 0 1-.112-.205 1.3 1.3 0 0 1-.041-.353 1.4 1.4 0 0 1 .051-.379 1.84 1.84 0 0 1 .584-.963v-.368a.3.3 0 0 1 .025-.108.2.2 0 0 1 .057-.072l.256-.148a.05.05 0 0 1 .03-.01.05.05 0 0 1 .031.01.1.1 0 0 1 .026.077zM161.055 119.227a.5.5 0 0 1 .266 0 .37.37 0 0 1 .195.102.5.5 0 0 1 .123.185.8.8 0 0 1 .046.22.2.2 0 0 1-.026.107.12.12 0 0 1-.061.072l-.22.128q-.057.031-.077 0a.14.14 0 0 1-.051-.056.3.3 0 0 0-.058-.08.2.2 0 0 0-.086-.048.35.35 0 0 0-.281.071 1 1 0 0 0-.159.118 1 1 0 0 0-.128.154.8.8 0 0 0-.087.174.5.5 0 0 0-.031.179.28.28 0 0 0 .036.164q.02.027.049.042a.13.13 0 0 0 .064.014q.097.018.194 0l.297-.066a.9.9 0 0 1 .318-.036.37.37 0 0 1 .215.077.4.4 0 0 1 .117.204q.04.164.036.333 0 .196-.046.384-.047.195-.138.374-.09.182-.215.343a1.8 1.8 0 0 1-.292.287v.333a.3.3 0 0 1-.026.107.3.3 0 0 1-.061.072l-.256.148a.05.05 0 0 1-.028.01.05.05 0 0 1-.028-.01.1.1 0 0 1-.023-.035.1.1 0 0 1-.003-.042v-.332a.7.7 0 0 1-.266.041.45.45 0 0 1-.22-.072.5.5 0 0 1-.149-.179.9.9 0 0 1-.061-.302.17.17 0 0 1 .025-.108.126.126 0 0 1 .062-.072l.22-.128a.1.1 0 0 1 .038-.01q.021 0 .039.01s.036 0 .051.057a.4.4 0 0 0 .051.097q.033.046.087.061.067.016.133 0a.6.6 0 0 0 .2-.081 1 1 0 0 0 .179-.128 1 1 0 0 0 .159-.159 1 1 0 0 0 .102-.19.5.5 0 0 0 .041-.21.22.22 0 0 0-.041-.148.2.2 0 0 0-.133-.041 2 2 0 0 0-.225.036q-.15.04-.302.066a.9.9 0 0 1-.277 0 .32.32 0 0 1-.194-.081.4.4 0 0 1-.113-.21 1.561 1.561 0 0 1 .005-.727q.05-.188.133-.364.084-.174.2-.328.114-.148.256-.271v-.328a.2.2 0 0 1 .026-.107q.016-.046.056-.072l.256-.148a.04.04 0 0 1 .031-.012q.017 0 .03.012a.1.1 0 0 1 .026.076z" style="fill:#fafafa;fill:color(display-p3 .9804 .9804 .9804);fill-opacity:1"/><path fill="#455A64" d="M119.563 141.97a.22.22 0 0 1-.195-.113.225.225 0 0 1 .082-.307l11.033-6.369a.23.23 0 0 1 .172-.025.227.227 0 0 1 .054.414l-11.034 6.374a.2.2 0 0 1-.112.026M119.562 144.095a.225.225 0 0 1-.112-.42l11.033-6.389a.22.22 0 0 1 .172-.027.2.2 0 0 1 .079.04.2.2 0 0 1 .057.069.23.23 0 0 1-.082.307l-11.034 6.369a.2.2 0 0 1-.113.051M119.562 146.22a.23.23 0 0 1-.112-.03.232.232 0 0 1 0-.395l11.033-6.369a.225.225 0 0 1 .33.254.23.23 0 0 1-.104.14l-11.034 6.369a.2.2 0 0 1-.113.031" style="fill:#455a64;fill:color(display-p3 .2706 .3529 .3922);fill-opacity:1"/><path fill="#F7921E" d="M112.734 186.408a8.9 8.9 0 0 0-3.282-3.031c-5.361-3.072-14.054-3.072-19.415 0a8.85 8.85 0 0 0-3.282 3.031h-.722v2.806c.097 1.951 1.434 3.881 4.014 5.371 5.36 3.072 14.055 3.072 19.415 0 2.56-1.49 3.922-3.42 4.025-5.371v-2.806z" style="fill:#f7921e;fill:color(display-p3 .9686 .5725 .1176);fill-opacity:1"/><path fill="#000" d="M112.734 186.408a8.9 8.9 0 0 0-3.282-3.031c-5.361-3.072-14.054-3.072-19.415 0a8.85 8.85 0 0 0-3.282 3.031h-.722v2.806c.097 1.951 1.434 3.881 4.014 5.371 5.36 3.072 14.055 3.072 19.415 0 2.56-1.49 3.922-3.42 4.025-5.371v-2.806z" opacity=".25" style="fill:#000;fill-opacity:1"/><path fill="#000" d="M99.765 181.053c-3.512 0-7.03.773-9.728 2.324a8.85 8.85 0 0 0-3.282 3.031h-.722v2.806c.097 1.951 1.434 3.881 4.014 5.371 2.678 1.536 6.196 2.324 9.728 2.324z" opacity=".1" style="fill:#000;fill-opacity:1"/><path fill="#000" d="M92.254 182.338q-1.145.423-2.207 1.024a8.84 8.84 0 0 0-3.282 3.031h-.732v2.806c.097 1.95 1.434 3.881 4.014 5.371q1.06.604 2.207 1.024z" opacity=".1" style="fill:#000;fill-opacity:1"/><path fill="#F7921E" d="M107.266 182.338q1.145.423 2.207 1.024a8.9 8.9 0 0 1 3.261 3.046h.742v2.806c-.102 1.951-1.443 3.881-4.024 5.371a14.6 14.6 0 0 1-2.207 1.024z" opacity=".5" style="fill:#f7921e;fill:color(display-p3 .9686 .5725 .1176);fill-opacity:1"/><path fill="#F7921E" d="M109.473 180.802c-5.361-3.072-14.055-3.072-19.415 0-5.361 3.072-5.366 8.115 0 11.213s14.054 3.097 19.415 0 5.36-8.115 0-11.213" style="fill:#f7921e;fill:color(display-p3 .9686 .5725 .1176);fill-opacity:1"/><path fill="#000" d="M109.473 180.802c-5.361-3.072-14.055-3.072-19.415 0-5.361 3.072-5.366 8.115 0 11.213s14.054 3.097 19.415 0 5.36-8.115 0-11.213" opacity=".2" style="fill:#000;fill-opacity:1"/><path fill="#F7921E" d="M106.078 182.855a14.2 14.2 0 0 0-6.313-1.347 14.15 14.15 0 0 0-6.323 1.347c-1.797.922-2.785 2.186-2.785 3.553s.988 2.632 2.785 3.553a14.1 14.1 0 0 0 6.323 1.352 14.1 14.1 0 0 0 6.313-1.352c1.792-.921 2.785-2.181 2.785-3.553s-.983-2.631-2.785-3.553" style="fill:#f7921e;fill:color(display-p3 .9686 .5725 .1176);fill-opacity:1"/><path fill="#000" d="M106.078 182.855a14.2 14.2 0 0 0-6.313-1.347 14.15 14.15 0 0 0-6.323 1.347c-1.797.922-2.785 2.186-2.785 3.553s.988 2.632 2.785 3.553a14.1 14.1 0 0 0 6.323 1.352 14.1 14.1 0 0 0 6.313-1.352c1.792-.921 2.785-2.181 2.785-3.553s-.983-2.631-2.785-3.553" opacity=".4" style="fill:#000;fill-opacity:1"/><path fill="#F7921E" d="M109.175 181.324c-2.503-1.449-5.847-2.247-9.41-2.247-3.564 0-6.907.798-9.41 2.247-2.402 1.383-3.723 3.19-3.723 5.085 0 1.894 1.321 3.701 3.722 5.089 2.504 1.444 5.847 2.242 9.41 2.242 3.564 0 6.908-.798 9.411-2.242 2.397-1.388 3.723-3.195 3.723-5.089s-1.326-3.702-3.723-5.085m-3.072 8.638a14.1 14.1 0 0 1-6.323 1.351 14.1 14.1 0 0 1-6.323-1.351c-1.797-.922-2.785-2.181-2.785-3.553 0-1.373.988-2.632 2.785-3.554a14.15 14.15 0 0 1 6.308-1.346c2.18-.043 4.34.418 6.313 1.346 1.792.922 2.785 2.186 2.785 3.554s-.983 2.631-2.785 3.553z" style="fill:#f7921e;fill:color(display-p3 .9686 .5725 .1176);fill-opacity:1"/><path fill="#000" d="M105.873 189.542c3.369-1.731 3.369-4.536 0-6.267s-8.842-1.731-12.216 0-3.37 4.536 0 6.267c3.369 1.73 8.837 1.73 12.216 0" opacity=".2" style="fill:#000;fill-opacity:1"/><path fill="#F7921E" d="M105.873 189.542c3.369-1.731 3.369-4.536 0-6.267s-8.842-1.731-12.216 0-3.37 4.536 0 6.267c3.369 1.73 8.837 1.73 12.216 0" style="fill:#f7921e;fill:color(display-p3 .9686 .5725 .1176);fill-opacity:1"/><path fill="#000" d="M105.873 189.542c3.369-1.731 3.369-4.536 0-6.267s-8.842-1.731-12.216 0-3.37 4.536 0 6.267c3.369 1.73 8.837 1.73 12.216 0" opacity=".6" style="fill:#000;fill-opacity:1"/><path fill="#F7921E" d="M105.873 184.447c-3.374-1.73-8.842-1.73-12.216 0-1.393.717-2.212 1.618-2.453 2.56.241.932 1.06 1.828 2.453 2.56 3.374 1.731 8.842 1.731 12.216 0 1.393-.716 2.207-1.612 2.448-2.56-.241-.942-1.055-1.843-2.448-2.56" style="fill:#f7921e;fill:color(display-p3 .9686 .5725 .1176);fill-opacity:1"/><path fill="#000" d="M105.873 184.447c-3.374-1.73-8.842-1.73-12.216 0-1.393.717-2.212 1.618-2.453 2.56.241.932 1.06 1.828 2.453 2.56 3.374 1.731 8.842 1.731 12.216 0 1.393-.716 2.207-1.612 2.448-2.56-.241-.942-1.055-1.843-2.448-2.56" opacity=".5" style="fill:#000;fill-opacity:1"/><path fill="#F7921E" d="M100.584 183.341v1.27l-.435.456-.799.834v-1.316z" style="fill:#f7921e;fill:color(display-p3 .9686 .5725 .1176);fill-opacity:1"/><path fill="#000" d="M100.584 183.341v1.27l-.435.456-.799.834v-1.316z" opacity=".3" style="fill:#000;fill-opacity:1"/><path fill="#F7921E" d="M99.35 184.581v.747q-.6.226-1.229.348a1.3 1.3 0 0 1-.512 0 1.5 1.5 0 0 1-.25-.102c-.302-.185-.354-.456.225-.789a2 2 0 0 1 1.766-.204" style="fill:#f7921e;fill:color(display-p3 .9686 .5725 .1176);fill-opacity:1"/><path fill="#000" d="M99.35 184.581v.747q-.6.226-1.229.348a1.3 1.3 0 0 1-.512 0 1.5 1.5 0 0 1-.25-.102c-.302-.185-.354-.456.225-.789a2 2 0 0 1 1.766-.204" opacity=".45" style="fill:#000;fill-opacity:1"/><path fill="#F7921E" d="M105.085 188.164v1.091l-1.388.804-1.024-.594a5.24 5.24 0 0 1-3.968.179v-1.096l.63-.624-.63.174a4.05 4.05 0 0 1-3.072-.353c-.62-.359-.911-.748-.906-1.152v-1.065l.087-.436-.374-.22v-1.111l1.024.594a1.56 1.56 0 0 0-.758 1.178c0 .394.302.773.907 1.126 1.346.778 2.683.512 3.901.128 1.137-.374 1.966-.809 2.622-.43.409.236.286.512-.175.783a2.27 2.27 0 0 1-1.95.118l-1.311 1.296q.356.134.727.215a5.38 5.38 0 0 0 3.241-.395l1.024.594z" style="fill:#f7921e;fill:color(display-p3 .9686 .5725 .1176);fill-opacity:1"/><path fill="#000" d="M94.711 185.533c0 .394.302.773.907 1.126 1.346.779 2.683.512 3.901.128 1.137-.373 1.966-.808 2.622-.43.409.236.286.512-.175.784a2.27 2.27 0 0 1-1.95.118l-1.311 1.295q.356.135.727.215a5.38 5.38 0 0 0 3.241-.394l1.024.594 1.388-.804v1.09l-1.388.804-1.024-.594a5.23 5.23 0 0 1-3.968.179v-1.095l.63-.625-.63.174a4.03 4.03 0 0 1-3.072-.353c-.62-.358-.911-.748-.906-1.152v-1.065l.087-.435" opacity=".35" style="fill:#000;fill-opacity:1"/><path fill="#000" d="M94.445 183.761v1.096l.369.235c.161-.286.383-.535.65-.727z" opacity=".45" style="fill:#000;fill-opacity:1"/><path fill="#F7921E" d="M104.854 187.463c.001.176-.034.35-.102.512l-.697-.399a1.36 1.36 0 0 0 .789-1.05c.005.308.01.912.01.937" style="fill:#f7921e;fill:color(display-p3 .9686 .5725 .1176);fill-opacity:1"/><path fill="#000" d="M104.854 187.463c.001.176-.034.35-.102.512l-.697-.399a1.36 1.36 0 0 0 .789-1.05c.005.308.01.912.01.937" opacity=".3" style="fill:#000;fill-opacity:1"/><path fill="#F7921E" d="m104.849 188.047-.793-.461a1.35 1.35 0 0 0 .793-1.213 1 1 0 0 0 0-.108c-.036-.379-.312-.742-.886-1.075a3.6 3.6 0 0 0-1.843-.481h-.65a7 7 0 0 0-.896.189 6 6 0 0 0-.42.123c-.138.046-.394.123-.578.189l-.22.072a6.6 6.6 0 0 1-1.23.353c-.169.032-.342.032-.511 0a1 1 0 0 1-.246-.107c-.312-.174-.359-.446.22-.784a2.06 2.06 0 0 1 1.782-.184l1.234-1.244a5.3 5.3 0 0 0-3.743.241l-1.024-.589-1.393.809 1.024.589a1.6 1.6 0 0 0-.763 1.177c0 .394.302.773.912 1.127 1.346.778 2.683.512 3.901.122 1.137-.368 1.966-.803 2.622-.425.409.236.281.512-.174.784a2.228 2.228 0 0 1-1.951.112l-1.31 1.301q.352.134.721.215c.416.083.841.114 1.265.092a5.8 5.8 0 0 0 1.981-.486l1.024.594 1.383-.799z" style="fill:#f7921e;fill:color(display-p3 .9686 .5725 .1176);fill-opacity:1"/><path fill="#F7921E" d="M102.673 188.385v1.095l1.024.594v-1.095z" style="fill:#f7921e;fill:color(display-p3 .9686 .5725 .1176);fill-opacity:1"/><path fill="#000" d="M102.673 188.385v1.095l1.024.594v-1.095z" opacity=".45" style="fill:#000;fill-opacity:1"/><path fill="#F5F5F5" d="m94.445 183.766 1.393-.808 1.03.588-1.02-.425zM97.569 184.77a2.05 2.05 0 0 1 1.782-.185l1.233-1.244-1.234 1.116c-.299-.102-.62-.127-.93-.073a1.9 1.9 0 0 0-.851.386M98.705 188.564q.353.134.722.215c.416.083.841.114 1.265.092a4.4 4.4 0 0 1-1.782-.358l1.106-1.249zM102.673 188.385l1.024.466 1.382-.671-1.382.799zM90.462 181.509c3.635-2.212 9.303-2.432 9.303-2.432-3.584 0-6.907.798-9.41 2.247-2.402 1.383-3.723 3.19-3.723 5.085-.01 0 .128-2.658 3.83-4.9M98.705 194.309c3.855.169 7.818-.594 10.752-2.299 3.072-1.772 4.383-4.173 3.937-6.482 0 0 .574 3.763-4.167 6.338s-10.522 2.443-10.522 2.443" style="fill:#f5f5f5;fill:color(display-p3 .9608 .9608 .9608);fill-opacity:1"/><path fill="#F7921E" d="M111.812 182.441a8.84 8.84 0 0 0-3.282-3.032c-5.36-3.072-14.054-3.072-19.415 0a8.84 8.84 0 0 0-3.281 3.032h-.748v2.805c.097 1.951 1.433 3.886 4.014 5.371 5.36 3.072 14.054 3.072 19.415 0 2.56-1.485 3.922-3.42 4.024-5.371v-2.805z" style="fill:#f7921e;fill:color(display-p3 .9686 .5725 .1176);fill-opacity:1"/><path fill="#000" d="M111.812 182.441a8.84 8.84 0 0 0-3.282-3.032c-5.36-3.072-14.054-3.072-19.415 0a8.84 8.84 0 0 0-3.281 3.032h-.748v2.805c.097 1.951 1.433 3.886 4.014 5.371 5.36 3.072 14.054 3.072 19.415 0 2.56-1.485 3.922-3.42 4.024-5.371v-2.805z" opacity=".25" style="fill:#000;fill-opacity:1"/><path fill="#000" d="M98.823 177.085c-3.512 0-7.03.773-9.728 2.324a8.85 8.85 0 0 0-3.282 3.031h-.727v2.806c.097 1.951 1.433 3.886 4.014 5.371 2.678 1.536 6.195 2.325 9.728 2.325z" opacity=".1" style="fill:#000;fill-opacity:1"/><path fill="#000" d="M91.322 178.375q-1.146.42-2.207 1.024a8.84 8.84 0 0 0-3.281 3.031h-.748v2.806c.097 1.951 1.433 3.886 4.014 5.371q1.062.6 2.207 1.024z" opacity=".1" style="fill:#000;fill-opacity:1"/><path fill="#F7921E" d="M106.324 178.375c.763.279 1.501.622 2.206 1.024a8.83 8.83 0 0 1 3.282 3.031h.743v2.806c-.103 1.951-1.444 3.886-4.025 5.371-.706.4-1.444.742-2.206 1.024z" opacity=".5" style="fill:#f7921e;fill:color(display-p3 .9686 .5725 .1176);fill-opacity:1"/><path fill="#F7921E" d="M108.53 176.839c-5.36-3.097-14.054-3.097-19.415 0s-5.365 8.116 0 11.208 14.055 3.098 19.415 0c5.361-3.098 5.366-8.115 0-11.208" style="fill:#f7921e;fill:color(display-p3 .9686 .5725 .1176);fill-opacity:1"/><path fill="#000" d="M108.53 176.839c-5.36-3.097-14.054-3.097-19.415 0s-5.365 8.116 0 11.208 14.055 3.098 19.415 0c5.361-3.098 5.366-8.115 0-11.208" opacity=".2" style="fill:#000;fill-opacity:1"/><path fill="#F7921E" d="M105.146 178.887a14.2 14.2 0 0 0-6.323-1.346 14.16 14.16 0 0 0-6.323 1.346c-1.782.922-2.806 2.186-2.806 3.558 0 1.373 1.024 2.648 2.806 3.554 1.975.93 4.14 1.391 6.323 1.346a14.2 14.2 0 0 0 6.323-1.346c1.797-.922 2.785-2.186 2.785-3.554s-.988-2.636-2.785-3.558" style="fill:#f7921e;fill:color(display-p3 .9686 .5725 .1176);fill-opacity:1"/><path fill="#000" d="M105.146 178.887a14.2 14.2 0 0 0-6.323-1.346 14.16 14.16 0 0 0-6.323 1.346c-1.782.922-2.806 2.186-2.806 3.558 0 1.373 1.024 2.648 2.806 3.554 1.975.93 4.14 1.391 6.323 1.346a14.2 14.2 0 0 0 6.323-1.346c1.797-.922 2.785-2.186 2.785-3.554s-.988-2.636-2.785-3.558" opacity=".4" style="fill:#000;fill-opacity:1"/><path fill="#F7921E" d="M108.234 177.356c-2.504-1.449-5.847-2.242-9.411-2.242s-6.907.793-9.41 2.242c-2.402 1.388-3.723 3.19-3.723 5.09s1.321 3.701 3.722 5.084c2.504 1.444 5.847 2.242 9.411 2.242s6.907-.798 9.411-2.242c2.401-1.383 3.722-3.19 3.722-5.084 0-1.895-1.321-3.702-3.722-5.09m-3.072 8.643a14.2 14.2 0 0 1-6.324 1.346 14.16 14.16 0 0 1-6.323-1.346c-1.797-.906-2.821-2.186-2.821-3.553s.988-2.637 2.785-3.559a14.16 14.16 0 0 1 6.323-1.346 14.2 14.2 0 0 1 6.324 1.346c1.797.922 2.785 2.186 2.785 3.559 0 1.372-.968 2.647-2.765 3.553z" style="fill:#f7921e;fill:color(display-p3 .9686 .5725 .1176);fill-opacity:1"/><path fill="#000" d="M104.931 185.574c3.369-1.73 3.369-4.536 0-6.267-3.369-1.73-8.842-1.73-12.216 0-3.374 1.731-3.37 4.537 0 6.267s8.842 1.731 12.216 0" opacity=".2" style="fill:#000;fill-opacity:1"/><path fill="#F7921E" d="M104.931 185.574c3.369-1.73 3.369-4.536 0-6.267-3.369-1.73-8.842-1.73-12.216 0-3.374 1.731-3.37 4.537 0 6.267s8.842 1.731 12.216 0" style="fill:#f7921e;fill:color(display-p3 .9686 .5725 .1176);fill-opacity:1"/><path fill="#000" d="M104.931 185.574c3.369-1.73 3.369-4.536 0-6.267-3.369-1.73-8.842-1.73-12.216 0-3.374 1.731-3.37 4.537 0 6.267s8.842 1.731 12.216 0" opacity=".6" style="fill:#000;fill-opacity:1"/><path fill="#F7921E" d="M104.931 180.484c-3.374-1.73-8.842-1.73-12.216 0-1.393.712-2.207 1.613-2.453 2.56.246.932 1.06 1.833 2.453 2.56 3.374 1.731 8.842 1.731 12.216 0 1.393-.711 2.207-1.612 2.452-2.56-.245-.947-1.059-1.848-2.452-2.56" style="fill:#f7921e;fill:color(display-p3 .9686 .5725 .1176);fill-opacity:1"/><path fill="#000" d="M104.931 180.484c-3.374-1.73-8.842-1.73-12.216 0-1.393.712-2.207 1.613-2.453 2.56.246.932 1.06 1.833 2.453 2.56 3.374 1.731 8.842 1.731 12.216 0 1.393-.711 2.207-1.612 2.452-2.56-.245-.947-1.059-1.848-2.452-2.56" opacity=".5" style="fill:#000;fill-opacity:1"/><path fill="#F7921E" d="M99.642 179.374v1.269l-.435.456-.799.835v-1.316z" style="fill:#f7921e;fill:color(display-p3 .9686 .5725 .1176);fill-opacity:1"/><path fill="#000" d="M99.642 179.374v1.269l-.435.456-.799.835v-1.316z" opacity=".3" style="fill:#000;fill-opacity:1"/><path fill="#F7921E" d="M98.398 180.618v.747a7.3 7.3 0 0 1-1.229.348 1.15 1.15 0 0 1-.778-.122c-.302-.185-.354-.451.23-.789a2 2 0 0 1 1.777-.184" style="fill:#f7921e;fill:color(display-p3 .9686 .5725 .1176);fill-opacity:1"/><path fill="#000" d="M98.398 180.618v.747a7.3 7.3 0 0 1-1.229.348 1.15 1.15 0 0 1-.778-.122c-.302-.185-.354-.451.23-.789a2 2 0 0 1 1.777-.184" opacity=".45" style="fill:#000;fill-opacity:1"/><path fill="#F7921E" d="M104.143 184.212v1.095l-1.388.809-1.024-.594a5.2 5.2 0 0 1-3.968.18v-1.122l.635-.609-.63.174a4.03 4.03 0 0 1-3.072-.353c-.62-.358-.911-.748-.906-1.152v-1.065l.113-.466-.38-.22v-1.091l1.025.589a1.56 1.56 0 0 0-.758 1.178c0 .394.302.773.906 1.126 1.347.778 2.683.512 3.902.128 1.141-.369 1.966-.809 2.621-.43.41.236.287.512-.174.789a2.27 2.27 0 0 1-1.95.112l-1.332 1.29q.355.138.727.215a5.4 5.4 0 0 0 3.241-.389l1.024.589z" style="fill:#f7921e;fill:color(display-p3 .9686 .5725 .1176);fill-opacity:1"/><path fill="#000" d="M93.79 181.565c0 .394.302.773.906 1.126 1.347.779 2.683.512 3.901.128 1.142-.368 1.967-.809 2.622-.43.41.236.287.512-.174.789a2.26 2.26 0 0 1-1.95.113l-1.332 1.29q.355.138.727.215a5.4 5.4 0 0 0 3.241-.389l1.024.588 1.388-.798v1.095l-1.388.825-1.024-.594a5.21 5.21 0 0 1-3.968.179v-1.121l.635-.61-.63.175a4.05 4.05 0 0 1-3.072-.354c-.62-.358-.911-.747-.906-1.152v-1.065l.112-.466" opacity=".35" style="fill:#000;fill-opacity:1"/><path fill="#000" d="M93.503 179.798v1.091l.38.22c.162-.286.383-.534.65-.727z" opacity=".45" style="fill:#000;fill-opacity:1"/><path fill="#F7921E" d="M103.912 183.5c.001.176-.033.351-.102.512l-.696-.394a1.37 1.37 0 0 0 .788-1.055c.005.308.01.907.01.937" style="fill:#f7921e;fill:color(display-p3 .9686 .5725 .1176);fill-opacity:1"/><path fill="#000" d="M103.912 183.5c.001.176-.033.351-.102.512l-.696-.394a1.37 1.37 0 0 0 .788-1.055c.005.308.01.907.01.937" opacity=".3" style="fill:#000;fill-opacity:1"/><path fill="#F7921E" d="m103.907 184.069-.788-.456a1.35 1.35 0 0 0 .788-1.219 1 1 0 0 0 0-.107 1.5 1.5 0 0 0-.901-1.06 3.64 3.64 0 0 0-1.843-.481h-.338a1 1 0 0 0-.144 0h-.061a1 1 0 0 0-.108 0 7 7 0 0 0-.895.184 7 7 0 0 0-.42.123l-.579.189-.22.077a7 7 0 0 1-1.229.348 1.3 1.3 0 0 1-.512 0 1.3 1.3 0 0 1-.246-.102c-.312-.179-.358-.451.22-.789a2.06 2.06 0 0 1 1.782-.184l1.234-1.244a5.27 5.27 0 0 0-3.717.21l-1.024-.594-1.398.809 1.024.589a1.6 1.6 0 0 0-.763 1.177c0 .394.302.778.912 1.127 1.346.778 2.683.512 3.906.128 1.132-.374 1.961-.809 2.617-.43.409.235.286.512-.174.783a2.25 2.25 0 0 1-1.951.118l-1.316 1.316q.356.132.727.209c.414.089.838.12 1.26.093a5.8 5.8 0 0 0 1.981-.482l1.024.594 1.382-.804z" style="fill:#f7921e;fill:color(display-p3 .9686 .5725 .1176);fill-opacity:1"/><path fill="#F7921E" d="M101.731 184.422v1.09l1.024.594v-1.095z" style="fill:#f7921e;fill:color(display-p3 .9686 .5725 .1176);fill-opacity:1"/><path fill="#000" d="M101.731 184.422v1.09l1.024.594v-1.095z" opacity=".45" style="fill:#000;fill-opacity:1"/><path fill="#F5F5F5" d="m93.503 179.799 1.393-.809 1.029.594-1.019-.425zM96.627 180.802a2.04 2.04 0 0 1 1.781-.184l1.234-1.244-1.244 1.111a1.87 1.87 0 0 0-1.772.317M97.763 184.581q.356.132.727.21c.414.088.837.119 1.26.092a4.5 4.5 0 0 1-1.777-.353l1.1-1.25zM101.731 184.422l1.024.461 1.382-.671-1.382.799zM89.52 177.541c3.635-2.207 9.303-2.427 9.303-2.427-3.584 0-6.907.793-9.41 2.242-2.402 1.388-3.723 3.19-3.723 5.09 0 0 .133-2.658 3.83-4.905M97.763 190.346c3.86.174 7.818-.594 10.752-2.299 3.072-1.772 4.383-4.173 3.937-6.482 0 0 .574 3.763-4.167 6.344-4.742 2.58-10.522 2.437-10.522 2.437" style="fill:#f5f5f5;fill:color(display-p3 .9608 .9608 .9608);fill-opacity:1"/><path fill="#F7921E" d="M113.758 178.601a8.86 8.86 0 0 0-3.277-3.031c-5.361-3.072-14.054-3.072-19.42 0a8.86 8.86 0 0 0-3.277 3.031h-.727v2.805c.097 1.951 1.434 3.887 4.01 5.376 5.365 3.072 14.059 3.072 19.419 0 2.56-1.489 3.922-3.425 4.019-5.376v-2.805z" style="fill:#f7921e;fill:color(display-p3 .9686 .5725 .1176);fill-opacity:1"/><path fill="#000" d="M113.758 178.601a8.86 8.86 0 0 0-3.277-3.031c-5.361-3.072-14.054-3.072-19.42 0a8.86 8.86 0 0 0-3.277 3.031h-.727v2.805c.097 1.951 1.434 3.887 4.01 5.376 5.365 3.072 14.059 3.072 19.419 0 2.56-1.489 3.922-3.425 4.019-5.376v-2.805z" opacity=".25" style="fill:#000;fill-opacity:1"/><path fill="#000" d="M100.789 173.25c-3.517 0-7.03.773-9.728 2.319a8.9 8.9 0 0 0-3.277 3.031h-.727v2.806c.097 1.951 1.434 3.886 4.01 5.376 2.682 1.536 6.194 2.32 9.727 2.32z" opacity=".1" style="fill:#000;fill-opacity:1"/><path fill="#000" d="M93.278 174.535c-.764.28-1.504.623-2.212 1.024a8.9 8.9 0 0 0-3.277 3.031h-.732v2.806c.097 1.951 1.434 3.886 4.01 5.376.708.399 1.448.742 2.21 1.024z" opacity=".1" style="fill:#000;fill-opacity:1"/><path fill="#F7921E" d="M108.285 174.535c.764.28 1.504.623 2.212 1.024a8.9 8.9 0 0 1 3.276 3.031h.743v2.806c-.098 1.951-1.444 3.886-4.019 5.376q-1.066.6-2.212 1.024z" opacity=".5" style="fill:#f7921e;fill:color(display-p3 .9686 .5725 .1176);fill-opacity:1"/><path fill="#F7921E" d="M110.497 172.999c-5.361-3.098-14.055-3.098-19.42 0s-5.361 8.115 0 11.208 14.059 3.097 19.42 0c5.36-3.098 5.36-8.11 0-11.208" style="fill:#f7921e;fill:color(display-p3 .9686 .5725 .1176);fill-opacity:1"/><path fill="#000" d="M110.497 172.999c-5.361-3.098-14.055-3.098-19.42 0s-5.361 8.115 0 11.208 14.059 3.097 19.42 0c5.36-3.098 5.36-8.11 0-11.208" opacity=".2" style="fill:#000;fill-opacity:1"/><path fill="#F7921E" d="M107.102 175.047a14.26 14.26 0 0 0-6.328-1.347 14.2 14.2 0 0 0-6.319 1.347c-1.797.922-2.79 2.186-2.79 3.558 0 1.373.993 2.632 2.79 3.554a14.14 14.14 0 0 0 6.319 1.351 14.2 14.2 0 0 0 6.328-1.351c1.792-.922 2.785-2.187 2.785-3.554s-.983-2.636-2.785-3.558" style="fill:#f7921e;fill:color(display-p3 .9686 .5725 .1176);fill-opacity:1"/><path fill="#000" d="M107.102 175.047a14.26 14.26 0 0 0-6.328-1.347 14.2 14.2 0 0 0-6.319 1.347c-1.797.922-2.79 2.186-2.79 3.558 0 1.373.993 2.632 2.79 3.554a14.14 14.14 0 0 0 6.319 1.351 14.2 14.2 0 0 0 6.328-1.351c1.792-.922 2.785-2.187 2.785-3.554s-.983-2.636-2.785-3.558" opacity=".4" style="fill:#000;fill-opacity:1"/><path fill="#F7921E" d="M110.2 173.516c-2.504-1.444-5.847-2.247-9.416-2.247s-6.902.798-9.406 2.242c-2.4 1.393-3.732 3.195-3.732 5.095s1.321 3.701 3.722 5.089c2.504 1.439 5.842 2.237 9.406 2.237 3.563 0 6.912-.798 9.415-2.237 2.397-1.388 3.723-3.195 3.723-5.089s-1.316-3.702-3.712-5.09m-3.072 8.643a14.2 14.2 0 0 1-6.329 1.351 14.14 14.14 0 0 1-6.318-1.351c-1.797-.922-2.79-2.186-2.79-3.553 0-1.368.993-2.637 2.79-3.559a14.2 14.2 0 0 1 6.318-1.346 14.25 14.25 0 0 1 6.303 1.346c1.792.922 2.785 2.186 2.785 3.559 0 1.372-.983 2.631-2.785 3.553z" style="fill:#f7921e;fill:color(display-p3 .9686 .5725 .1176);fill-opacity:1"/><path fill="#000" d="M106.892 181.739c3.374-1.731 3.374-4.536 0-6.272s-8.837-1.731-12.211 0c-3.374 1.73-3.374 4.541 0 6.272s8.837 1.73 12.211 0" opacity=".2" style="fill:#000;fill-opacity:1"/><path fill="#F7921E" d="M106.892 181.739c3.374-1.731 3.374-4.536 0-6.272s-8.837-1.731-12.211 0c-3.374 1.73-3.374 4.541 0 6.272s8.837 1.73 12.211 0" style="fill:#f7921e;fill:color(display-p3 .9686 .5725 .1176);fill-opacity:1"/><path fill="#000" d="M106.892 181.739c3.374-1.731 3.374-4.536 0-6.272s-8.837-1.731-12.211 0c-3.374 1.73-3.374 4.541 0 6.272s8.837 1.73 12.211 0" opacity=".6" style="fill:#000;fill-opacity:1"/><path fill="#F7921E" d="M106.892 176.645c-3.369-1.731-8.837-1.731-12.211 0-1.393.716-2.212 1.612-2.453 2.56.24.931 1.06 1.833 2.453 2.56 3.374 1.73 8.842 1.73 12.211 0 1.398-.717 2.212-1.618 2.452-2.56-.24-.948-1.054-1.844-2.452-2.56" style="fill:#f7921e;fill:color(display-p3 .9686 .5725 .1176);fill-opacity:1"/><path fill="#000" d="M106.892 176.645c-3.369-1.731-8.837-1.731-12.211 0-1.393.716-2.212 1.612-2.453 2.56.24.931 1.06 1.833 2.453 2.56 3.374 1.73 8.842 1.73 12.211 0 1.398-.717 2.212-1.618 2.452-2.56-.24-.948-1.054-1.844-2.452-2.56" opacity=".5" style="fill:#000;fill-opacity:1"/><path fill="#F7921E" d="M101.603 175.539v1.264l-.43.456-.799.84v-1.321z" style="fill:#f7921e;fill:color(display-p3 .9686 .5725 .1176);fill-opacity:1"/><path fill="#000" d="M101.603 175.539v1.264l-.43.456-.799.84v-1.321z" opacity=".3" style="fill:#000;fill-opacity:1"/><path fill="#F7921E" d="M100.374 176.778v.747a6.6 6.6 0 0 1-1.228.348 1.3 1.3 0 0 1-.513 0 1 1 0 0 1-.25-.102c-.308-.179-.354-.451.225-.783a2.04 2.04 0 0 1 1.766-.21" style="fill:#f7921e;fill:color(display-p3 .9686 .5725 .1176);fill-opacity:1"/><path fill="#000" d="M100.374 176.778v.747a6.6 6.6 0 0 1-1.228.348 1.3 1.3 0 0 1-.513 0 1 1 0 0 1-.25-.102c-.308-.179-.354-.451.225-.783a2.04 2.04 0 0 1 1.766-.21" opacity=".45" style="fill:#000;fill-opacity:1"/><path fill="#F7921E" d="M106.103 180.372v1.096l-1.382.798-1.024-.594a5.2 5.2 0 0 1-3.968.18v-1.091l.63-.625-.63.174a4.06 4.06 0 0 1-3.072-.353c-.624-.358-.911-.752-.911-1.157v-1.065l.112-.461-.379-.22v-1.096l1.025.594a1.59 1.59 0 0 0-.763 1.173c0 .394.302.778.911 1.126 1.347.779 2.678.512 3.901.128 1.137-.368 1.966-.804 2.622-.43.404.236.281.512-.174.789a2.27 2.27 0 0 1-1.951.112l-1.31 1.301q.343.148.706.246a5.42 5.42 0 0 0 3.246-.39l1.024.594z" style="fill:#f7921e;fill:color(display-p3 .9686 .5725 .1176);fill-opacity:1"/><path fill="#000" d="M95.73 177.725c0 .394.302.778.912 1.126 1.346.778 2.678.512 3.901.128 1.137-.368 1.966-.804 2.622-.43.404.236.281.512-.174.789a2.28 2.28 0 0 1-1.951.112l-1.31 1.301q.348.15.716.245a5.42 5.42 0 0 0 3.246-.389l1.024.594 1.382-.804v1.096l-1.382.799-1.024-.594a5.21 5.21 0 0 1-3.968.179v-1.09l.63-.625-.63.174a4.07 4.07 0 0 1-3.072-.353c-.625-.359-.911-.753-.911-1.157v-1.065l.112-.461" opacity=".35" style="fill:#000;fill-opacity:1"/><path fill="#000" d="M95.464 175.958v1.096l.379.22c.158-.287.38-.534.65-.722z" opacity=".45" style="fill:#000;fill-opacity:1"/><path fill="#F7921E" d="M105.873 179.66c.003.176-.032.351-.102.512l-.691-.399a1.38 1.38 0 0 0 .788-1.055c.005.313.005.912.005.942" style="fill:#f7921e;fill:color(display-p3 .9686 .5725 .1176);fill-opacity:1"/><path fill="#000" d="M105.873 179.66c.003.176-.032.351-.102.512l-.691-.399a1.38 1.38 0 0 0 .788-1.055c.005.313.005.912.005.942" opacity=".3" style="fill:#000;fill-opacity:1"/><path fill="#F7921E" d="m105.873 180.244-.794-.461a1.354 1.354 0 0 0 .794-1.219v-.102a1.49 1.49 0 0 0-.886-1.075 3.64 3.64 0 0 0-1.843-.481h-.548a1 1 0 0 0-.107 0 7 7 0 0 0-.896.184 6 6 0 0 0-.42.123l-.579.189-.22.077q-.599.23-1.229.348a1.3 1.3 0 0 1-.512 0 1.2 1.2 0 0 1-.25-.102c-.308-.179-.354-.451.225-.784a2.06 2.06 0 0 1 1.782-.189l1.228-1.239a5.25 5.25 0 0 0-3.712.205l-1.024-.589-1.397.804 1.024.589a1.6 1.6 0 0 0-.763 1.177c0 .394.302.778.911 1.127 1.347.778 2.683.512 3.902.128 1.136-.369 1.966-.809 2.621-.431.404.236.282.512-.174.789a2.26 2.26 0 0 1-1.951.113l-1.31 1.3q.34.163.701.271c.415.089.841.12 1.265.093a5.9 5.9 0 0 0 1.981-.482l1.024.594 1.382-.799z" style="fill:#f7921e;fill:color(display-p3 .9686 .5725 .1176);fill-opacity:1"/><path fill="#F7921E" d="M103.697 180.582v1.091l1.024.594v-1.091z" style="fill:#f7921e;fill:color(display-p3 .9686 .5725 .1176);fill-opacity:1"/><path fill="#000" d="M103.697 180.582v1.091l1.024.594v-1.091z" opacity=".45" style="fill:#000;fill-opacity:1"/><path fill="#F5F5F5" d="m95.464 175.959 1.398-.804 1.029.589-1.019-.425zM98.593 176.967a2.038 2.038 0 0 1 1.781-.189l1.229-1.239-1.229 1.111a1.87 1.87 0 0 0-1.781.317M99.73 180.761q.348.145.716.235c.415.089.841.12 1.265.093a4.5 4.5 0 0 1-1.782-.354l1.111-1.275zM103.697 180.582l1.024.461 1.382-.666-1.382.799zM91.48 173.701c3.636-2.207 9.304-2.427 9.304-2.427-3.584 0-6.902.799-9.406 2.242-2.4 1.388-3.732 3.19-3.732 5.09 0 0 .138-2.658 3.835-4.905M99.73 186.506c3.855.174 7.817-.594 10.751-2.299 3.072-1.772 4.383-4.173 3.938-6.482 0 0 .573 3.768-4.168 6.344-4.741 2.575-10.522 2.437-10.522 2.437" style="fill:#f5f5f5;fill:color(display-p3 .9608 .9608 .9608);fill-opacity:1"/><path fill="#F7921E" d="M112.437 174.72a8.9 8.9 0 0 0-3.287-3.037c-5.361-3.072-14.055-3.072-19.42 0a8.83 8.83 0 0 0-3.277 3.037h-.737v2.805c.097 1.951 1.433 3.881 4.009 5.371 5.365 3.098 14.059 3.098 19.42 0 2.56-1.49 3.922-3.42 4.019-5.371v-2.805z" style="fill:#f7921e;fill:color(display-p3 .9686 .5725 .1176);fill-opacity:1"/><path fill="#000" d="M112.437 174.72a8.9 8.9 0 0 0-3.287-3.037c-5.361-3.072-14.055-3.072-19.42 0a8.83 8.83 0 0 0-3.277 3.037h-.737v2.805c.097 1.951 1.433 3.881 4.009 5.371 5.365 3.098 14.059 3.098 19.42 0 2.56-1.49 3.922-3.42 4.019-5.371v-2.805z" opacity=".25" style="fill:#000;fill-opacity:1"/><path fill="#000" d="M99.447 169.364c-3.512 0-7.03.773-9.728 2.319a8.84 8.84 0 0 0-3.276 3.036h-.727v2.806c.097 1.951 1.433 3.881 4.009 5.371 2.682 1.536 6.2 2.324 9.728 2.324z" opacity=".1" style="fill:#000;fill-opacity:1"/><path fill="#000" d="M91.947 170.649q-1.147.426-2.212 1.024a8.8 8.8 0 0 0-3.277 3.036h-.742v2.806c.097 1.951 1.433 3.881 4.009 5.371.708.4 1.448.743 2.211 1.024z" opacity=".1" style="fill:#000;fill-opacity:1"/><path fill="#F7921E" d="M106.943 170.649q1.146.424 2.212 1.024a8.9 8.9 0 0 1 3.282 3.036h.737v2.806c-.097 1.951-1.439 3.881-4.019 5.371a15 15 0 0 1-2.212 1.024z" opacity=".5" style="fill:#f7921e;fill:color(display-p3 .9686 .5725 .1176);fill-opacity:1"/><path fill="#F7921E" d="M109.15 169.113c-5.361-3.072-14.055-3.072-19.42 0s-5.361 8.115 0 11.213 14.059 3.097 19.42 0c5.36-3.098 5.366-8.115 0-11.213" style="fill:#f7921e;fill:color(display-p3 .9686 .5725 .1176);fill-opacity:1"/><path fill="#000" d="M109.15 169.113c-5.361-3.072-14.055-3.072-19.42 0s-5.361 8.115 0 11.213 14.059 3.097 19.42 0c5.36-3.098 5.366-8.115 0-11.213" opacity=".2" style="fill:#000;fill-opacity:1"/><path fill="#F7921E" d="M105.771 171.166a14.2 14.2 0 0 0-6.323-1.346 14.16 14.16 0 0 0-6.324 1.346c-1.797.922-2.785 2.187-2.785 3.554s.988 2.631 2.785 3.553a14.2 14.2 0 0 0 6.324 1.352c2.183.042 4.347-.42 6.323-1.352 1.792-.922 2.785-2.181 2.785-3.553s-.993-2.632-2.785-3.554" style="fill:#f7921e;fill:color(display-p3 .9686 .5725 .1176);fill-opacity:1"/><path fill="#000" d="M105.771 171.166a14.2 14.2 0 0 0-6.323-1.346 14.16 14.16 0 0 0-6.324 1.346c-1.797.922-2.785 2.187-2.785 3.554s.988 2.631 2.785 3.553a14.2 14.2 0 0 0 6.324 1.352c2.183.042 4.347-.42 6.323-1.352 1.792-.922 2.785-2.181 2.785-3.553s-.993-2.632-2.785-3.554" opacity=".4" style="fill:#000;fill-opacity:1"/><path fill="#F7921E" d="M108.858 169.635c-2.504-1.438-5.852-2.247-9.41-2.247-3.559 0-6.907.809-9.411 2.247-2.401 1.383-3.722 3.19-3.722 5.085 0 1.894 1.33 3.717 3.722 5.089 2.504 1.444 5.842 2.242 9.41 2.242s6.907-.798 9.411-2.242c2.396-1.388 3.722-3.195 3.722-5.089s-1.326-3.702-3.722-5.085m-3.072 8.638a14.16 14.16 0 0 1-6.323 1.351 14.15 14.15 0 0 1-6.323-1.351c-1.797-.922-2.786-2.181-2.786-3.553 0-1.373.989-2.632 2.786-3.554a14.16 14.16 0 0 1 6.323-1.346 14.2 14.2 0 0 1 6.308 1.346c1.792.922 2.785 2.186 2.785 3.554s-.993 2.631-2.785 3.553z" style="fill:#f7921e;fill:color(display-p3 .9686 .5725 .1176);fill-opacity:1"/><path fill="#000" d="M99.448 179.153c4.77 0 8.637-1.985 8.637-4.433 0-2.449-3.867-4.434-8.637-4.434s-8.638 1.985-8.638 4.434 3.867 4.433 8.638 4.433" opacity=".2" style="fill:#000;fill-opacity:1"/><path fill="#F7921E" d="M99.448 179.153c4.77 0 8.637-1.985 8.637-4.433 0-2.449-3.867-4.434-8.637-4.434s-8.638 1.985-8.638 4.434 3.867 4.433 8.638 4.433" style="fill:#f7921e;fill:color(display-p3 .9686 .5725 .1176);fill-opacity:1"/><path fill="#000" d="M99.448 179.153c4.77 0 8.637-1.985 8.637-4.433 0-2.449-3.867-4.434-8.637-4.434s-8.638 1.985-8.638 4.434 3.867 4.433 8.638 4.433" opacity=".6" style="fill:#000;fill-opacity:1"/><path fill="#F7921E" d="M105.566 172.758c-3.369-1.73-8.837-1.73-12.211 0-1.393.717-2.212 1.618-2.453 2.56.241.932 1.06 1.828 2.453 2.56 3.374 1.731 8.842 1.731 12.211 0 1.398-.716 2.212-1.612 2.453-2.56-.256-.942-1.071-1.843-2.453-2.56" style="fill:#f7921e;fill:color(display-p3 .9686 .5725 .1176);fill-opacity:1"/><path fill="#000" d="M105.566 172.758c-3.369-1.73-8.837-1.73-12.211 0-1.393.717-2.212 1.618-2.453 2.56.241.932 1.06 1.828 2.453 2.56 3.374 1.731 8.842 1.731 12.211 0 1.398-.716 2.212-1.612 2.453-2.56-.256-.942-1.071-1.843-2.453-2.56" opacity=".5" style="fill:#000;fill-opacity:1"/><path fill="#F7921E" d="M100.267 171.653v1.27l-.436.455-.798.835v-1.316z" style="fill:#f7921e;fill:color(display-p3 .9686 .5725 .1176);fill-opacity:1"/><path fill="#000" d="M100.267 171.653v1.27l-.436.455-.798.835v-1.316z" opacity=".3" style="fill:#000;fill-opacity:1"/><path fill="#F7921E" d="M99.033 172.897v.747q-.6.227-1.229.349a1.3 1.3 0 0 1-.512 0 1.5 1.5 0 0 1-.25-.103c-.308-.184-.354-.455.224-.788a2.02 2.02 0 0 1 1.767-.205" style="fill:#f7921e;fill:color(display-p3 .9686 .5725 .1176);fill-opacity:1"/><path fill="#000" d="M99.033 172.897v.747q-.6.227-1.229.349a1.3 1.3 0 0 1-.512 0 1.5 1.5 0 0 1-.25-.103c-.308-.184-.354-.455.224-.788a2.02 2.02 0 0 1 1.767-.205" opacity=".45" style="fill:#000;fill-opacity:1"/><path fill="#F7921E" d="M104.762 176.491v1.091l-1.382.798-1.024-.588a5.24 5.24 0 0 1-3.968.179v-1.07l.63-.625-.63.174a4.03 4.03 0 0 1-3.072-.353c-.625-.359-.912-.748-.912-1.152v-1.065l.113-.466-.379-.22v-1.096l1.024.594a1.6 1.6 0 0 0-.773 1.137c0 .394.302.773.911 1.126 1.347.773 2.678.512 3.902.128 1.137-.374 1.966-.809 2.621-.43.41.236.282.512-.174.783a2.28 2.28 0 0 1-1.95.118l-1.301 1.347q.353.134.722.215a5.4 5.4 0 0 0 3.246-.394l1.024.593z" style="fill:#f7921e;fill:color(display-p3 .9686 .5725 .1176);fill-opacity:1"/><path fill="#000" d="M94.389 173.829c0 .394.302.773.911 1.126 1.347.773 2.678.512 3.902.128 1.136-.374 1.966-.809 2.621-.43.41.236.282.512-.174.783a2.28 2.28 0 0 1-1.95.118l-1.301 1.347q.353.134.722.215a5.4 5.4 0 0 0 3.246-.394l1.024.594 1.382-.799v1.09l-1.382.799-1.024-.589a5.23 5.23 0 0 1-3.968.179v-1.095l.63-.625-.63.174a4.03 4.03 0 0 1-3.072-.353c-.625-.358-.911-.748-.911-1.152v-1.065l.112-.466" opacity=".35" style="fill:#000;fill-opacity:1"/><path fill="#000" d="M94.128 172.072v1.096l.374.22c.16-.288.382-.536.65-.727z" opacity=".45" style="fill:#000;fill-opacity:1"/><path fill="#F7921E" d="M104.542 175.774a1.2 1.2 0 0 1-.108.512l-.696-.409a1.36 1.36 0 0 0 .804-1.024z" style="fill:#f7921e;fill:color(display-p3 .9686 .5725 .1176);fill-opacity:1"/><path fill="#000" d="M104.542 175.774a1.2 1.2 0 0 1-.108.512l-.696-.409a1.36 1.36 0 0 0 .804-1.024z" opacity=".3" style="fill:#000;fill-opacity:1"/><path fill="#F7921E" d="m104.542 176.358-.794-.461a1.343 1.343 0 0 0 .794-1.213 1 1 0 0 0 0-.108c-.036-.379-.312-.742-.886-1.075a3.6 3.6 0 0 0-1.843-.481h-.666a7 7 0 0 0-.896.189 6 6 0 0 0-.42.123l-.578.184-.22.077a6.6 6.6 0 0 1-1.229.354c-.169.032-.343.032-.512 0a1.3 1.3 0 0 1-.25-.108c-.308-.174-.354-.445.224-.783a2.05 2.05 0 0 1 1.782-.185l1.229-1.244a5.28 5.28 0 0 0-3.712.205l-1.024-.589-1.393.809 1.024.589a1.6 1.6 0 0 0-.762 1.178c0 .394.302.773.91 1.126 1.348.778 2.684.512 3.902.123 1.137-.369 1.966-.804 2.622-.425.404.235.281.512-.174.783a2.228 2.228 0 0 1-1.951.113l-1.321 1.362q.353.134.722.215.626.125 1.265.092a5.9 5.9 0 0 0 1.981-.486l1.024.593 1.382-.798z" style="fill:#f7921e;fill:color(display-p3 .9686 .5725 .1176);fill-opacity:1"/><path fill="#F7921E" d="M102.356 176.696v1.095l1.024.589v-1.09z" style="fill:#f7921e;fill:color(display-p3 .9686 .5725 .1176);fill-opacity:1"/><path fill="#000" d="M102.356 176.696v1.095l1.024.589v-1.09z" opacity=".45" style="fill:#000;fill-opacity:1"/><path fill="#F5F5F5" d="m94.128 172.078 1.393-.809 1.029.588-1.02-.425zM97.251 173.081a2.06 2.06 0 0 1 1.782-.184l1.229-1.244-1.23 1.116a1.88 1.88 0 0 0-1.782.312M98.398 176.901q.353.134.722.215.626.125 1.265.092a4.5 4.5 0 0 1-1.782-.359l1.106-1.249zM102.356 176.696l1.024.466 1.382-.671-1.382.799zM90.145 169.82c3.635-2.212 9.303-2.432 9.303-2.432-3.584 0-6.907.798-9.411 2.247-2.401 1.383-3.722 3.19-3.722 5.085 0 0 .128-2.658 3.83-4.9M98.398 182.625c3.855.169 7.818-.594 10.752-2.299 3.072-1.772 4.383-4.173 3.937-6.482 0 0 .574 3.763-4.167 6.338-4.742 2.576-10.522 2.443-10.522 2.443" style="fill:#f5f5f5;fill:color(display-p3 .9608 .9608 .9608);fill-opacity:1"/><path fill="#F7921E" d="M148.122 177.745a8.86 8.86 0 0 0-3.282-3.031c-5.361-3.097-14.055-3.097-19.415 0a8.84 8.84 0 0 0-3.282 3.031h-.743v2.806c.098 1.951 1.434 3.886 4.014 5.371 5.361 3.098 14.055 3.098 19.416 0 2.56-1.485 3.921-3.42 4.024-5.371v-2.806z" style="fill:#f7921e;fill:color(display-p3 .9686 .5725 .1176);fill-opacity:1"/><path fill="#000" d="M148.122 177.745a8.86 8.86 0 0 0-3.282-3.031c-5.361-3.097-14.055-3.097-19.415 0a8.84 8.84 0 0 0-3.282 3.031h-.743v2.806c.098 1.951 1.434 3.886 4.014 5.371 5.361 3.098 14.055 3.098 19.416 0 2.56-1.485 3.921-3.42 4.024-5.371v-2.806z" opacity=".25" style="fill:#000;fill-opacity:1"/><path fill="#000" d="M135.132 172.39c-3.512 0-7.03.773-9.728 2.324a8.86 8.86 0 0 0-3.282 3.031h-.722v2.806c.098 1.951 1.434 3.886 4.014 5.371 2.678 1.536 6.196 2.324 9.728 2.324z" opacity=".1" style="fill:#000;fill-opacity:1"/><path fill="#000" d="M127.631 173.706c-.762.279-1.501.621-2.206 1.024a8.8 8.8 0 0 0-3.282 3.031h-.743v2.805c.098 1.951 1.434 3.886 4.014 5.371q1.062.602 2.207 1.024z" opacity=".1" style="fill:#000;fill-opacity:1"/><path fill="#F7921E" d="M142.633 173.706q1.146.419 2.207 1.024a8.84 8.84 0 0 1 3.282 3.031h.742v2.805c-.102 1.951-1.444 3.886-4.024 5.371q-1.062.602-2.207 1.024z" opacity=".5" style="fill:#f7921e;fill:color(display-p3 .9686 .5725 .1176);fill-opacity:1"/><path fill="#F7921E" d="M144.84 172.169c-5.361-3.097-14.055-3.097-19.415 0-5.361 3.098-5.366 8.116 0 11.208s14.054 3.098 19.415 0 5.36-8.136 0-11.208" style="fill:#f7921e;fill:color(display-p3 .9686 .5725 .1176);fill-opacity:1"/><path fill="#000" d="M144.84 172.169c-5.361-3.097-14.055-3.097-19.415 0-5.361 3.098-5.366 8.116 0 11.208s14.054 3.098 19.415 0 5.36-8.136 0-11.208" opacity=".2" style="fill:#000;fill-opacity:1"/><path fill="#F7921E" d="M141.455 174.218a14.2 14.2 0 0 0-6.323-1.347 14.15 14.15 0 0 0-6.323 1.347c-1.797.921-2.785 2.186-2.785 3.558s.972 2.586 2.785 3.523a14.1 14.1 0 0 0 6.323 1.351 14.1 14.1 0 0 0 6.323-1.351c1.797-.917 2.786-2.181 2.786-3.548 0-1.368-.989-2.637-2.786-3.533" style="fill:#f7921e;fill:color(display-p3 .9686 .5725 .1176);fill-opacity:1"/><path fill="#000" d="M141.455 174.218a14.2 14.2 0 0 0-6.323-1.347 14.15 14.15 0 0 0-6.323 1.347c-1.797.921-2.785 2.186-2.785 3.558s.972 2.586 2.785 3.523a14.1 14.1 0 0 0 6.323 1.351 14.1 14.1 0 0 0 6.323-1.351c1.797-.917 2.786-2.181 2.786-3.548 0-1.368-.989-2.637-2.786-3.533" opacity=".4" style="fill:#000;fill-opacity:1"/><path fill="#F7921E" d="M144.543 172.682c-2.504-1.449-5.847-2.243-9.411-2.243s-6.907.773-9.41 2.243c-2.402 1.387-3.722 3.189-3.722 5.089 0 1.899 1.32 3.702 3.722 5.084 2.503 1.444 5.847 2.243 9.41 2.243 3.564 0 6.907-.799 9.411-2.243 2.401-1.382 3.722-3.19 3.722-5.084 0-1.895-1.3-3.722-3.722-5.089m-3.072 8.637a14.1 14.1 0 0 1-6.323 1.352 14.1 14.1 0 0 1-6.324-1.352c-1.827-.957-2.8-2.202-2.8-3.569s.973-2.636 2.785-3.532a14.15 14.15 0 0 1 6.323-1.347 14.2 14.2 0 0 1 6.324 1.347c1.797.921 2.785 2.186 2.785 3.558s-.988 2.586-2.785 3.522z" style="fill:#f7921e;fill:color(display-p3 .9686 .5725 .1176);fill-opacity:1"/><path fill="#000" d="M141.24 180.873c3.369-1.73 3.369-4.536 0-6.266s-8.842-1.731-12.216 0c-3.374 1.73-3.369 4.536 0 6.266s8.842 1.736 12.216 0" opacity=".2" style="fill:#000;fill-opacity:1"/><path fill="#F7921E" d="M141.24 180.873c3.369-1.73 3.369-4.536 0-6.266s-8.842-1.731-12.216 0c-3.374 1.73-3.369 4.536 0 6.266s8.842 1.736 12.216 0" style="fill:#f7921e;fill:color(display-p3 .9686 .5725 .1176);fill-opacity:1"/><path fill="#000" d="M141.24 180.873c3.369-1.73 3.369-4.536 0-6.266s-8.842-1.731-12.216 0c-3.374 1.73-3.369 4.536 0 6.266s8.842 1.736 12.216 0" opacity=".6" style="fill:#000;fill-opacity:1"/><path fill="#F7921E" d="M141.24 175.789c-3.374-1.73-8.842-1.73-12.216 0-1.393.712-2.207 1.613-2.452 2.56.245.932 1.059 1.833 2.452 2.56 3.374 1.731 8.842 1.731 12.216 0 1.393-.712 2.207-1.613 2.448-2.56-.241-.947-1.055-1.848-2.448-2.56" style="fill:#f7921e;fill:color(display-p3 .9686 .5725 .1176);fill-opacity:1"/><path fill="#000" d="M141.24 175.789c-3.374-1.73-8.842-1.73-12.216 0-1.393.712-2.207 1.613-2.452 2.56.245.932 1.059 1.833 2.452 2.56 3.374 1.731 8.842 1.731 12.216 0 1.393-.712 2.207-1.613 2.448-2.56-.241-.947-1.055-1.848-2.448-2.56" opacity=".5" style="fill:#000;fill-opacity:1"/><path fill="#F7921E" d="M135.951 174.678v1.27l-.435.456-.798.834v-1.316z" style="fill:#f7921e;fill:color(display-p3 .9686 .5725 .1176);fill-opacity:1"/><path fill="#000" d="M135.951 174.678v1.27l-.435.456-.798.834v-1.316z" opacity=".3" style="fill:#000;fill-opacity:1"/><path fill="#F7921E" d="M134.717 175.923v.747a7.5 7.5 0 0 1-1.228.348 1.15 1.15 0 0 1-.779-.123c-.302-.184-.353-.45.226-.788a2.01 2.01 0 0 1 1.781-.184" style="fill:#f7921e;fill:color(display-p3 .9686 .5725 .1176);fill-opacity:1"/><path fill="#000" d="M134.717 175.923v.747a7.5 7.5 0 0 1-1.228.348 1.15 1.15 0 0 1-.779-.123c-.302-.184-.353-.45.226-.788a2.01 2.01 0 0 1 1.781-.184" opacity=".45" style="fill:#000;fill-opacity:1"/><path fill="#F7921E" d="M140.452 179.516v1.096l-1.388.799-1.024-.594a5.21 5.21 0 0 1-3.968.179V179.9l.63-.624-.63.174a4.05 4.05 0 0 1-3.072-.353c-.619-.359-.911-.748-.906-1.152v-1.065l.108-.466-.374-.22v-1.091l1.024.589a1.57 1.57 0 0 0-.758 1.177c0 .395.302.774.906 1.127 1.347.778 2.683.512 3.902.128 1.218-.384 1.966-.809 2.621-.43.41.235.287.512-.174.788a2.26 2.26 0 0 1-1.951.113l-1.31 1.295q.355.138.727.215a5.4 5.4 0 0 0 3.241-.389l1.024.589z" style="fill:#f7921e;fill:color(display-p3 .9686 .5725 .1176);fill-opacity:1"/><path fill="#000" d="M130.069 176.87c0 .394.302.773.906 1.126 1.346.778 2.683.512 3.901.128 1.219-.384 1.966-.809 2.622-.43.409.236.286.512-.174.789a2.28 2.28 0 0 1-1.951.112l-1.311 1.296q.355.138.727.215a5.4 5.4 0 0 0 3.241-.39l1.024.589 1.388-.798v1.095l-1.388.799-1.024-.594a5.2 5.2 0 0 1-3.968.179v-1.085l.63-.625-.63.174a4.03 4.03 0 0 1-3.072-.353c-.619-.358-.911-.748-.906-1.152v-1.065l.107-.466" opacity=".35" style="fill:#000;fill-opacity:1"/><path fill="#000" d="M129.812 175.103v1.091l.379.22c.163-.286.385-.534.651-.727z" opacity=".45" style="fill:#000;fill-opacity:1"/><path fill="#F7921E" d="M140.222 178.826a1.3 1.3 0 0 1-.103.512l-.696-.395a1.36 1.36 0 0 0 .788-1.054c.005.286.011.885.011.937" style="fill:#f7921e;fill:color(display-p3 .9686 .5725 .1176);fill-opacity:1"/><path fill="#000" d="M140.222 178.826a1.3 1.3 0 0 1-.103.512l-.696-.395a1.36 1.36 0 0 0 .788-1.054c.005.286.011.885.011.937" opacity=".3" style="fill:#000;fill-opacity:1"/><path fill="#F7921E" d="m140.216 179.383-.788-.46a1.345 1.345 0 0 0 .788-1.321 1.5 1.5 0 0 0-.885-1.07 3.66 3.66 0 0 0-1.844-.482h-.338a2 2 0 0 0-.143 0h-.061a1 1 0 0 0-.108 0 7 7 0 0 0-.896.185 6 6 0 0 0-.42.123l-.578.189-.22.072a6.7 6.7 0 0 1-1.229.353 1.3 1.3 0 0 1-.512 0 1.4 1.4 0 0 1-.246-.102c-.312-.18-.358-.451.22-.789a2.05 2.05 0 0 1 1.782-.184l1.234-1.244a5.27 5.27 0 0 0-3.717.209l-1.024-.593-1.393.809 1.024.588a1.594 1.594 0 0 0-.763 1.178c0 .394.302.778.912 1.126 1.346.779 2.682.512 3.906.128 1.132-.373 1.961-.809 2.616-.43.41.236.287.512-.174.784a2.228 2.228 0 0 1-1.95.112l-1.311 1.301a4.64 4.64 0 0 0 1.987.307 6 6 0 0 0 1.981-.481l1.024.594 1.382-.804z" style="fill:#f7921e;fill:color(display-p3 .9686 .5725 .1176);fill-opacity:1"/><path fill="#F7921E" d="M138.04 179.727v1.09l1.024.594v-1.096z" style="fill:#f7921e;fill:color(display-p3 .9686 .5725 .1176);fill-opacity:1"/><path fill="#000" d="M138.04 179.727v1.09l1.024.594v-1.096z" opacity=".45" style="fill:#000;fill-opacity:1"/><path fill="#F5F5F5" d="m129.812 175.103 1.393-.809 1.029.594-1.019-.425zM132.936 176.107a2.04 2.04 0 0 1 1.782-.185l1.233-1.244-1.233 1.116a1.879 1.879 0 0 0-1.782.313M134.073 179.901a4.6 4.6 0 0 0 1.986.307 4.5 4.5 0 0 1-1.777-.353l1.101-1.255zM138.04 179.727l1.024.46 1.383-.67-1.383.798zM125.829 172.845c3.635-2.211 9.303-2.427 9.303-2.427-3.584 0-6.907.794-9.41 2.243-2.402 1.388-3.722 3.19-3.722 5.089 0 0 .133-2.657 3.829-4.905M134.073 185.65c3.86.175 7.818-.593 10.752-2.298 3.072-1.772 4.382-4.173 3.937-6.482 0 0 .573 3.763-4.168 6.343s-10.521 2.437-10.521 2.437" style="fill:#f5f5f5;fill:color(display-p3 .9608 .9608 .9608);fill-opacity:1"/><path fill="#F7921E" d="M148.941 173.89a8.85 8.85 0 0 0-3.282-3.031c-5.361-3.098-14.055-3.098-19.415 0a8.83 8.83 0 0 0-3.282 3.031h-.743v2.806c.103 1.95 1.434 3.886 4.015 5.371 5.36 3.097 14.054 3.097 19.415 0 2.56-1.485 3.927-3.421 4.024-5.371v-2.806z" style="fill:#f7921e;fill:color(display-p3 .9686 .5725 .1176);fill-opacity:1"/><path fill="#000" d="M148.941 173.89a8.85 8.85 0 0 0-3.282-3.031c-5.361-3.098-14.055-3.098-19.415 0a8.83 8.83 0 0 0-3.282 3.031h-.743v2.806c.103 1.95 1.434 3.886 4.015 5.371 5.36 3.097 14.054 3.097 19.415 0 2.56-1.485 3.927-3.421 4.024-5.371v-2.806z" opacity=".25" style="fill:#000;fill-opacity:1"/><path fill="#000" d="M135.951 168.534c-3.512 0-7.024.773-9.728 2.325a8.9 8.9 0 0 0-3.282 3.031h-.722v2.805c.103 1.951 1.434 3.887 4.015 5.371 2.682 1.536 6.195 2.325 9.728 2.325z" opacity=".1" style="fill:#000;fill-opacity:1"/><path fill="#000" d="M128.451 169.825a14.4 14.4 0 0 0-2.207 1.024 8.9 8.9 0 0 0-3.282 3.031h-.743v2.806c.103 1.95 1.434 3.886 4.015 5.37q1.06.605 2.206 1.024z" opacity=".1" style="fill:#000;fill-opacity:1"/><path fill="#F7921E" d="M143.452 169.825q1.146.419 2.207 1.024a8.84 8.84 0 0 1 3.282 3.031h.742v2.806c-.097 1.95-1.444 3.886-4.024 5.37q-1.06.605-2.207 1.024z" opacity=".5" style="fill:#f7921e;fill:color(display-p3 .9686 .5725 .1176);fill-opacity:1"/><path fill="#F7921E" d="M145.659 168.289c-5.361-3.098-14.054-3.098-19.415 0s-5.361 8.115 0 11.207 14.054 3.098 19.415 0 5.366-8.115 0-11.207" style="fill:#f7921e;fill:color(display-p3 .9686 .5725 .1176);fill-opacity:1"/><path fill="#000" d="M145.659 168.289c-5.361-3.098-14.054-3.098-19.415 0s-5.361 8.115 0 11.207 14.054 3.098 19.415 0 5.366-8.115 0-11.207" opacity=".2" style="fill:#000;fill-opacity:1"/><path fill="#F7921E" d="M142.275 170.336a14.2 14.2 0 0 0-6.324-1.346 14.16 14.16 0 0 0-6.323 1.346c-1.797.922-2.785 2.187-2.785 3.559s.988 2.631 2.785 3.548a14.1 14.1 0 0 0 6.323 1.352 14.1 14.1 0 0 0 6.324-1.352c1.797-.917 2.785-2.181 2.785-3.548s-.988-2.637-2.785-3.559" style="fill:#f7921e;fill:color(display-p3 .9686 .5725 .1176);fill-opacity:1"/><path fill="#000" d="M142.275 170.336a14.2 14.2 0 0 0-6.324-1.346 14.16 14.16 0 0 0-6.323 1.346c-1.797.922-2.785 2.187-2.785 3.559s.988 2.631 2.785 3.548a14.1 14.1 0 0 0 6.323 1.352 14.1 14.1 0 0 0 6.324-1.352c1.797-.917 2.785-2.181 2.785-3.548s-.988-2.637-2.785-3.559" opacity=".4" style="fill:#000;fill-opacity:1"/><path fill="#F7921E" d="M145.362 168.806c-2.504-1.449-5.847-2.243-9.411-2.243s-6.906.794-9.41 2.243c-2.401 1.387-3.722 3.189-3.722 5.089 0 1.899 1.321 3.702 3.722 5.084 2.504 1.444 5.847 2.243 9.41 2.243 3.564 0 6.907-.799 9.411-2.243 2.401-1.382 3.722-3.19 3.722-5.084 0-1.895-1.321-3.702-3.722-5.089m-3.072 8.637a14.1 14.1 0 0 1-6.323 1.352 14.1 14.1 0 0 1-6.323-1.352c-1.798-.916-2.786-2.181-2.786-3.548s.988-2.637 2.786-3.559a14.2 14.2 0 0 1 6.323-1.346 14.2 14.2 0 0 1 6.323 1.346c1.797.922 2.785 2.187 2.785 3.559s-1.003 2.632-2.8 3.548z" style="fill:#f7921e;fill:color(display-p3 .9686 .5725 .1176);fill-opacity:1"/><path fill="#000" d="M142.06 177.023c3.369-1.73 3.369-4.536 0-6.267-3.369-1.73-8.843-1.73-12.217 0-3.374 1.731-3.369 4.537 0 6.267s8.843 1.731 12.217 0" opacity=".2" style="fill:#000;fill-opacity:1"/><path fill="#F7921E" d="M142.06 177.023c3.369-1.73 3.369-4.536 0-6.267-3.369-1.73-8.843-1.73-12.217 0-3.374 1.731-3.369 4.537 0 6.267s8.843 1.731 12.217 0" style="fill:#f7921e;fill:color(display-p3 .9686 .5725 .1176);fill-opacity:1"/><path fill="#000" d="M142.06 177.023c3.369-1.73 3.369-4.536 0-6.267-3.369-1.73-8.843-1.73-12.217 0-3.374 1.731-3.369 4.537 0 6.267s8.843 1.731 12.217 0" opacity=".6" style="fill:#000;fill-opacity:1"/><path fill="#F7921E" d="M142.06 171.934c-3.374-1.73-8.843-1.73-12.217 0-1.392.712-2.206 1.613-2.447 2.56.241.932 1.055 1.833 2.447 2.56 3.374 1.731 8.843 1.731 12.217 0 1.392-.712 2.212-1.613 2.452-2.56-.24-.947-1.06-1.848-2.452-2.56" style="fill:#f7921e;fill:color(display-p3 .9686 .5725 .1176);fill-opacity:1"/><path fill="#000" d="M142.06 171.934c-3.374-1.73-8.843-1.73-12.217 0-1.392.712-2.206 1.613-2.447 2.56.241.932 1.055 1.833 2.447 2.56 3.374 1.731 8.843 1.731 12.217 0 1.392-.712 2.212-1.613 2.452-2.56-.24-.947-1.06-1.848-2.452-2.56" opacity=".5" style="fill:#000;fill-opacity:1"/><path fill="#F7921E" d="M136.771 170.823v1.27l-.436.455-.798.835v-1.316z" style="fill:#f7921e;fill:color(display-p3 .9686 .5725 .1176);fill-opacity:1"/><path fill="#000" d="M136.771 170.823v1.27l-.436.455-.798.835v-1.316z" opacity=".3" style="fill:#000;fill-opacity:1"/><path fill="#F7921E" d="M135.537 172.067v.747a7.4 7.4 0 0 1-1.229.349 1.16 1.16 0 0 1-.778-.123c-.302-.185-.354-.451.23-.789a2.02 2.02 0 0 1 1.777-.184" style="fill:#f7921e;fill:color(display-p3 .9686 .5725 .1176);fill-opacity:1"/><path fill="#000" d="M135.537 172.067v.747a7.4 7.4 0 0 1-1.229.349 1.16 1.16 0 0 1-.778-.123c-.302-.185-.354-.451.23-.789a2.02 2.02 0 0 1 1.777-.184" opacity=".45" style="fill:#000;fill-opacity:1"/><path fill="#F7921E" d="M141.271 175.661v1.117l-1.387.798-1.024-.594a5.2 5.2 0 0 1-3.963.18v-1.096l.624-.625-.624.174a4.04 4.04 0 0 1-3.072-.353c-.62-.358-.906-.747-.906-1.152v-1.065l.112-.466-.379-.22v-1.111l1.024.589a1.56 1.56 0 0 0-.757 1.177c0 .395.302.774.906 1.127 1.346.778 2.683.512 3.906.128 1.137-.374 1.961-.809 2.617-.43.409.235.286.512-.169.788a2.28 2.28 0 0 1-1.966.103l-1.306 1.295q.352.14.722.215a5.4 5.4 0 0 0 3.241-.389l1.024.589z" style="fill:#f7921e;fill:color(display-p3 .9686 .5725 .1176);fill-opacity:1"/><path fill="#000" d="M130.898 173.014q0 .594.906 1.127c1.347.778 2.683.512 3.907.128 1.136-.374 1.961-.809 2.616-.43.41.235.287.512-.169.788a2.28 2.28 0 0 1-1.945.103l-1.306 1.295q.351.14.722.215a5.4 5.4 0 0 0 3.241-.389l1.024.589 1.387-.799v1.137l-1.387.798-1.024-.594a5.2 5.2 0 0 1-3.963.18v-1.096l.625-.625-.625.174a4.05 4.05 0 0 1-3.072-.353c-.62-.358-.906-.748-.906-1.152v-1.065l.112-.466" opacity=".35" style="fill:#000;fill-opacity:1"/><path fill="#000" d="M130.632 171.248v1.091l.379.22c.162-.286.384-.534.65-.727z" opacity=".45" style="fill:#000;fill-opacity:1"/><path fill="#F7921E" d="M141.041 174.95c.001.176-.034.35-.103.512l-.696-.395a1.36 1.36 0 0 0 .788-1.054c.006.307.011.906.011.937" style="fill:#f7921e;fill:color(display-p3 .9686 .5725 .1176);fill-opacity:1"/><path fill="#000" d="M141.041 174.95c.001.176-.034.35-.103.512l-.696-.395a1.36 1.36 0 0 0 .788-1.054c.006.307.011.906.011.937" opacity=".3" style="fill:#000;fill-opacity:1"/><path fill="#F7921E" d="m141.041 175.528-.794-.46a1.35 1.35 0 0 0 .794-1.214 1 1 0 0 0 0-.107c-.031-.374-.313-.743-.886-1.07a3.65 3.65 0 0 0-1.843-.482h-.338a2 2 0 0 0-.143 0h-.082a1 1 0 0 0-.113 0 7 7 0 0 0-.896.185 6 6 0 0 0-.42.123l-.578.189-.221.072a6.6 6.6 0 0 1-1.228.353 1.3 1.3 0 0 1-.512 0 1.3 1.3 0 0 1-.246-.102c-.307-.18-.359-.451.22-.789a2.05 2.05 0 0 1 1.782-.184l1.234-1.244a5.27 5.27 0 0 0-3.717.209l-1.024-.593-1.398.834 1.024.589a1.59 1.59 0 0 0-.763 1.178c0 .394.302.773.911 1.126 1.347.778 2.683.512 3.907.128 1.137-.374 1.961-.809 2.616-.43.41.235.287.512-.169.783a2.243 2.243 0 0 1-1.945.108l-1.311 1.3q.355.138.727.215c.414.089.837.12 1.259.092a6 6 0 0 0 1.982-.481l1.024.594 1.382-.804z" style="fill:#f7921e;fill:color(display-p3 .9686 .5725 .1176);fill-opacity:1"/><path fill="#F7921E" d="M138.86 175.871v1.091l1.024.594v-1.096z" style="fill:#f7921e;fill:color(display-p3 .9686 .5725 .1176);fill-opacity:1"/><path fill="#000" d="M138.86 175.871v1.091l1.024.594v-1.096z" opacity=".45" style="fill:#000;fill-opacity:1"/><path fill="#F5F5F5" d="m130.632 171.248 1.398-.809 1.024.594-1.019-.43zM133.755 172.251a2.06 2.06 0 0 1 1.782-.184l1.234-1.244-1.234 1.116c-.3-.103-.62-.128-.931-.073a1.87 1.87 0 0 0-.851.385M134.892 176.045q.354.138.727.215c.413.089.837.12 1.259.093a4.5 4.5 0 0 1-1.776-.354l1.111-1.27zM138.86 175.871l1.024.461 1.382-.671-1.382.799zM126.648 168.99c3.636-2.212 9.303-2.427 9.303-2.427-3.584 0-6.906.794-9.41 2.243-2.401 1.387-3.722 3.189-3.722 5.089 0 0 .133-2.657 3.829-4.905M134.892 181.795c3.86.174 7.818-.594 10.752-2.299 3.072-1.771 4.382-4.173 3.937-6.482 0 0 .573 3.763-4.168 6.344-4.741 2.58-10.521 2.437-10.521 2.437" style="fill:#f5f5f5;fill:color(display-p3 .9608 .9608 .9608);fill-opacity:1"/><path fill="#455A64" d="M118 105.302v-8.4l2.962-1.71q.593-.342 1.07-.27.489.054.78.474t.291 1.14-.291 1.476-.78 1.398a3.7 3.7 0 0 1-1.07.966l-1.84 1.062v3.216zm1.122-5.112 1.819-1.05q.28-.162.509-.474.23-.324.364-.702a2.2 2.2 0 0 0 .145-.768q0-.372-.145-.588a.55.55 0 0 0-.364-.27q-.228-.048-.509.114l-1.819 1.05zM123.148 102.33l2.816-10.026 1.143-.66 2.796 6.786-1.195.69-1.663-4.104a5 5 0 0 1-.125-.336 15 15 0 0 0-.197-.606l-.208-.6a8 8 0 0 0-.125-.36l.239-.15-.156.606q-.082.36-.187.768-.093.402-.187.768l-.156.594-1.652 5.97zm1.247-2.808.416-1.488 3.304-1.908.478.972zM132.305 97.043v-4.188l.073.546-2.942-3.102 1.351-.78 2.245 2.424-.26.114 2.027-4.854 1.289-.744-2.817 6.558.156-.906v4.284zM139.192 93.187q-.592.342-1.101.456a1.85 1.85 0 0 1-.915-.012 1.74 1.74 0 0 1-.727-.492l.769-1.464q.509.546.977.6t1.112-.318q.395-.228.717-.558t.509-.69.187-.684q0-.216-.062-.372a.46.46 0 0 0-.198-.234.66.66 0 0 0-.332-.096 1.6 1.6 0 0 0-.468.042q-.27.048-.623.18-.562.192-.977.216-.416.024-.697-.138a.97.97 0 0 1-.415-.492q-.135-.342-.135-.858 0-.504.187-1.044a5.315 5.315 0 0 1 1.33-2.004q.458-.444.987-.75.561-.324 1.029-.426t.831.024q.364.114.603.456l-.79 1.356a1.2 1.2 0 0 0-.467-.39.95.95 0 0 0-.572-.078 1.75 1.75 0 0 0-.665.24q-.405.234-.707.552t-.478.684a1.6 1.6 0 0 0-.166.696.95.95 0 0 0 .083.42q.084.156.25.228.176.054.467.018a4.5 4.5 0 0 0 .696-.186 4.3 4.3 0 0 1 1.019-.216q.447-.042.759.078.31.12.467.402.166.276.166.708 0 .804-.322 1.578a5.1 5.1 0 0 1-.914 1.44 5.8 5.8 0 0 1-1.414 1.128M143.433 90.619v-8.4l1.122-.648v7.152l3.409-1.968v1.248zM149.384 87.183v-1.2l1.174-.678v-6l-1.174.678v-1.2l3.471-2.004v1.2l-1.175.678v6l1.175-.678v1.2zM154.617 84.162v-8.4l2.961-1.71q.593-.342 1.071-.27.488.054.779.474t.291 1.14-.291 1.476-.779 1.398a3.7 3.7 0 0 1-1.071.966l-1.839 1.062v3.216zm1.122-5.112 1.819-1.05q.28-.162.509-.474.228-.324.364-.702a2.2 2.2 0 0 0 .145-.768q0-.372-.145-.588a.55.55 0 0 0-.364-.27q-.229-.048-.509.114l-1.819 1.05z" style="fill:#455a64;fill:color(display-p3 .2706 .3529 .3922);fill-opacity:1"/></svg>