<svg xmlns="http://www.w3.org/2000/svg" width="257" height="256" fill="none"><path stroke="#D5D5D5" d="M47.06 222.837c-22.474-11.768-33.56-27.116-33.56-42.333s11.084-30.568 33.56-42.341C69.524 126.397 99 120.5 128.502 120.5c29.503 0 58.977 5.897 81.439 17.663 22.473 11.773 33.558 27.122 33.559 42.337s-11.083 30.564-33.559 42.337C187.476 234.603 158.002 240.5 128.5 240.5s-58.976-5.897-81.44-17.663Z" style="stroke:#d5d5d5;stroke:color(display-p3 .8353 .8353 .8353);stroke-opacity:1"/><path fill="#F7921E" d="M156.265 11.452 72.359 59.836a3.47 3.47 0 0 0-1.567 2.718v143.514a3.45 3.45 0 0 0 1.572 2.714l.317.179a3.49 3.49 0 0 0 3.144 0l83.901-48.446a3.45 3.45 0 0 0 1.572-2.718V14.339a3.45 3.45 0 0 0-1.572-2.708l-.322-.184a3.48 3.48 0 0 0-3.139.005" style="fill:#f7921e;fill:color(display-p3 .9686 .5725 .1176);fill-opacity:1"/><path fill="#000" d="M156.265 11.452 72.359 59.836a3.47 3.47 0 0 0-1.567 2.718v143.514a3.45 3.45 0 0 0 1.572 2.714l.317.179a3.49 3.49 0 0 0 3.144 0l83.901-48.446a3.45 3.45 0 0 0 1.572-2.718V14.339a3.45 3.45 0 0 0-1.572-2.708l-.322-.184a3.48 3.48 0 0 0-3.139.005" opacity=".45" style="fill:#000;fill-opacity:1"/><path fill="#F7921E" d="M161.298 157.904c0 1.377-.968 2.258-2.171 2.949l-82.703 47.749c-1.193.686-2.171.133-2.171-1.254V65.217a4.32 4.32 0 0 1 2.16-3.743l82.714-47.77a1.45 1.45 0 0 1 2.171 1.255z" style="fill:#f7921e;fill:color(display-p3 .9686 .5725 .1176);fill-opacity:1"/><path fill="#000" d="M161.298 157.904c0 1.377-.968 2.258-2.171 2.949l-82.703 47.749c-1.193.686-2.171.133-2.171-1.254V65.217a4.32 4.32 0 0 1 2.16-3.743l82.714-47.77a1.45 1.45 0 0 1 2.171 1.255z" opacity=".3" style="fill:#000;fill-opacity:1"/><path fill="#F7921E" d="M161.299 14.34v.619a1.448 1.448 0 0 0-2.176-1.25L76.414 61.48a4.16 4.16 0 0 0-1.577 1.577.1.1 0 0 0-.026.046l-3.584-2.048a3.2 3.2 0 0 1 1.132-1.193l83.907-48.41a3.48 3.48 0 0 1 3.138 0l.318.185a3.45 3.45 0 0 1 1.577 2.703" style="fill:#f7921e;fill:color(display-p3 .9686 .5725 .1176);fill-opacity:1"/><path fill="#000" d="M161.299 14.34v.619a1.448 1.448 0 0 0-2.176-1.25L76.414 61.48a4.16 4.16 0 0 0-1.577 1.577.1.1 0 0 0-.026.046l-3.584-2.048a3.2 3.2 0 0 1 1.132-1.193l83.907-48.41a3.48 3.48 0 0 1 3.138 0l.318.185a3.45 3.45 0 0 1 1.577 2.703" opacity=".2" style="fill:#000;fill-opacity:1"/><path fill="#000" d="M159.25 153.588c0 1.418-.998 2.325-2.232 3.036l-78.167 45.133c-1.23.707-2.238.133-2.238-1.295V73.214a4.45 4.45 0 0 1 2.228-3.85l78.177-45.153a1.49 1.49 0 0 1 2.232 1.29z" opacity=".25" style="fill:#000;fill-opacity:1"/><path fill="#F5F5F5" d="M78.61 71.053 156.5 26.09a1.45 1.45 0 0 1 1.331 0l.752.43a1.48 1.48 0 0 1 .666 1.157v127.877a1.48 1.48 0 0 1-.666 1.157l-77.88 44.964a1.46 1.46 0 0 1-1.336 0l-.758-.435a1.47 1.47 0 0 1-.666-1.152V72.211a1.48 1.48 0 0 1 .666-1.158" style="fill:#f5f5f5;fill:color(display-p3 .9608 .9608 .9608);fill-opacity:1"/><path fill="#E0E0E0" d="M80.546 201.747q-.123.045-.251.066h-.128q-.203.022-.405 0a1.3 1.3 0 0 1-.246-.066l-.148-.072-.758-.43a1.49 1.49 0 0 1-.67-1.157V72.211a1.3 1.3 0 0 1 .194-.656l2.084 1.203a1.4 1.4 0 0 0-.195.656V201.29c.01.363.226.543.523.456" style="fill:#e0e0e0;fill:color(display-p3 .8784 .8784 .8784);fill-opacity:1"/><path fill="#F7921E" d="m158.584 26.52-.752-.43a1.46 1.46 0 0 0-1.331 0L78.61 71.053a1.48 1.48 0 0 0-.666 1.157v14.73l2.084 1.214 79.222-45.737v-14.74a1.48 1.48 0 0 0-.666-1.157" style="fill:#f7921e;fill:color(display-p3 .9686 .5725 .1176);fill-opacity:1"/><path fill="#fff" d="m158.584 26.52-.752-.43a1.46 1.46 0 0 0-1.331 0L78.61 71.053a1.48 1.48 0 0 0-.666 1.157v14.73l2.084 1.214 79.222-45.737v-14.74a1.48 1.48 0 0 0-.666-1.157" opacity=".4" style="fill:#fff;fill-opacity:1"/><path fill="#F7921E" d="M159.23 27.472c-.082-.271-.343-.359-.645-.184l-77.88 44.969a1.35 1.35 0 0 0-.477.512l-2.084-1.234c.11-.21.275-.387.477-.512L156.5 26.09a1.46 1.46 0 0 1 1.331 0l.753.43a1.48 1.48 0 0 1 .645.952" style="fill:#f7921e;fill:color(display-p3 .9686 .5725 .1176);fill-opacity:1"/><path fill="#fff" d="M159.23 27.472c-.082-.271-.343-.359-.645-.184l-77.88 44.969a1.35 1.35 0 0 0-.477.512l-2.084-1.234c.11-.21.275-.387.477-.512L156.5 26.09a1.46 1.46 0 0 1 1.331 0l.753.43a1.48 1.48 0 0 1 .645.952" opacity=".6" style="fill:#fff;fill-opacity:1"/><path fill="#F7921E" d="M77.95 72.21v14.741l2.083 1.203V73.41c.01-.232.076-.457.195-.656l-2.084-1.218a1.3 1.3 0 0 0-.195.675M141.827 71.08l-43.11 24.887c-.205.123-.374 0-.374-.281V83.792a.9.9 0 0 1 .373-.712l43.111-24.888c.205-.123.374 0 .374.282v11.888a.9.9 0 0 1-.374.717" style="fill:#f7921e;fill:color(display-p3 .9686 .5725 .1176);fill-opacity:1"/><path fill="#fff" d="m141.827 71.08-43.11 24.887c-.205.123-.374 0-.374-.281V83.792a.9.9 0 0 1 .373-.712l43.111-24.888c.205-.123.374 0 .374.282v11.888a.9.9 0 0 1-.374.717" opacity=".4" style="fill:#fff;fill-opacity:1"/><path fill="#fff" d="M113.293 83.111a.13.13 0 0 1 .149 0q.035.03.053.074.017.043.013.09v1.116a.5.5 0 0 1-.066.236.4.4 0 0 1-.149.169l-3.655 2.099a.123.123 0 0 1-.149 0 .2.2 0 0 1-.05-.075.2.2 0 0 1-.011-.09v-6.783a.5.5 0 0 1 .061-.236.43.43 0 0 1 .149-.174l1.024-.594a.12.12 0 0 1 .074-.025.12.12 0 0 1 .074.025q.037.03.054.074t.013.09v5.402zM114.317 79.583q.027-.623.195-1.223.173-.62.481-1.183.32-.556.758-1.024a4.4 4.4 0 0 1 1.024-.824c.31-.196.66-.32 1.024-.364.266-.03.534.03.763.17.22.156.387.375.481.629.119.32.183.657.189.998v1.874q-.025.62-.189 1.219-.176.62-.481 1.188-.318.572-.763 1.05c-.299.32-.644.594-1.024.813-.311.197-.66.324-1.024.374a1.13 1.13 0 0 1-.758-.174 1.32 1.32 0 0 1-.481-.63 3 3 0 0 1-.195-1.024v-.916c0-.328-.01-.645 0-.953m3.466-.179v-1.766a1.5 1.5 0 0 0-.082-.44.6.6 0 0 0-.189-.272.43.43 0 0 0-.302-.082 1 1 0 0 0-.43.149q-.237.142-.425.343-.179.195-.302.43a2.685 2.685 0 0 0-.272 1.024v1.7659999999999998a.98.98 0 0 0 .272.717c.158.138.404.113.727-.077.315-.173.569-.44.727-.763.158-.322.252-.671.276-1.029M123.349 71.622c.102-.062.184-.067.24 0a.33.33 0 0 1 .113.164l1.72 5.632a.35.35 0 0 1 0 .332.33.33 0 0 1-.123.139l-.998.573q-.155.093-.225.041a.22.22 0 0 1-.082-.123l-.221-.747-2.099 1.213-.22.998a.8.8 0 0 1-.082.22.6.6 0 0 1-.225.22l-.993.574a.1.1 0 0 1-.062.02.1.1 0 0 1-.061-.02.15.15 0 0 1-.051-.133 1 1 0 0 1 .03-.18l1.721-7.623a1.4 1.4 0 0 1 .112-.297.6.6 0 0 1 .241-.25zm-1.28 5.34 1.28-.737-.64-2.161zM130.081 75.119a.22.22 0 0 1-.22.03.3.3 0 0 1-.102-.086l-1.808-2.56v3.558a.5.5 0 0 1-.066.236.38.38 0 0 1-.149.169l-1.024.599a.12.12 0 0 1-.074.025.12.12 0 0 1-.074-.025.19.19 0 0 1-.062-.164v-6.805a.52.52 0 0 1 .21-.41l.819-.47q.138-.085.221-.031a.3.3 0 0 1 .107.082l1.808 2.56v-3.553a.5.5 0 0 1 .061-.236.43.43 0 0 1 .148-.174l1.024-.594a.14.14 0 0 1 .077-.024q.043 0 .077.024a.2.2 0 0 1 .05.075q.017.043.011.089v6.8a.5.5 0 0 1-.061.235.4.4 0 0 1-.154.169z" style="fill:#fff;fill-opacity:1"/><path fill="#E0E0E0" d="M131.454 89.696a.7.7 0 0 1 .292 0 .503.503 0 0 1 .379.261q.055.108.056.23a.2.2 0 0 1 0 .087.13.13 0 0 1-.051.061l-.476.277a.15.15 0 0 1-.082.026.1.1 0 0 1-.062 0l-.035-.031-.067-.03h-.107a.6.6 0 0 0-.159.066l-.133.087a.8.8 0 0 0-.195.225.4.4 0 0 0-.031.138.123.123 0 0 0 .036.102q.059.021.118 0a1.4 1.4 0 0 0 .215-.045l.333-.103q.17-.054.348-.066a.5.5 0 0 1 .251.061.42.42 0 0 1 .148.205q.052.181.046.368a1.6 1.6 0 0 1-.056.405q-.059.207-.164.394-.107.196-.256.364a2.4 2.4 0 0 1-.322.317v.343a.2.2 0 0 1-.031.108.17.17 0 0 1-.072.077l-.471.276a.06.06 0 0 1-.071 0 .1.1 0 0 1-.025-.035.1.1 0 0 1-.006-.042v-.353a.75.75 0 0 1-.312.026.5.5 0 0 1-.241-.088.45.45 0 0 1-.154-.184.6.6 0 0 1-.056-.26.21.21 0 0 1 .077-.154l.476-.272a.15.15 0 0 1 .077-.03.14.14 0 0 1 .061 0 .264.264 0 0 0 .118.082q.061.015.123 0a.5.5 0 0 0 .184-.072q.178-.098.323-.241a.38.38 0 0 0 .128-.276.1.1 0 0 0-.009-.054.1.1 0 0 0-.037-.039.3.3 0 0 0-.144 0 2 2 0 0 0-.24.062l-.348.102a.55.55 0 0 1-.543-.04.7.7 0 0 1-.174-.564q.001-.18.046-.353.049-.192.138-.369.092-.186.215-.353.132-.171.292-.318v-.358a.2.2 0 0 1 .031-.107.2.2 0 0 1 .071-.082l.471-.272a.06.06 0 0 1 .072 0s.031.036.031.072zM133.906 88.282a.75.75 0 0 1 .297 0 .51.51 0 0 1 .374.267c.036.07.056.15.056.23a.2.2 0 0 1 0 .087.2.2 0 0 1-.051.061l-.476.277a.25.25 0 0 1-.149.025l-.031-.03-.071-.031a.4.4 0 0 0-.108 0 .6.6 0 0 0-.158.067l-.134.087-.112.102a1 1 0 0 0-.077.123.35.35 0 0 0-.026.192.2.2 0 0 0 .026.048.16.16 0 0 0 .118 0 .8.8 0 0 0 .215-.04l.333-.103q.17-.054.348-.066a.47.47 0 0 1 .251.061c.071.05.123.122.148.205q.056.18.051.369 0 .206-.061.404-.057.207-.164.394-.105.196-.251.364-.15.172-.328.317v.323a.2.2 0 0 1-.03.107.2.2 0 0 1-.067.077l-.476.276a.06.06 0 0 1-.036.012.06.06 0 0 1-.036-.011.1.1 0 0 1 0-.077v-.359a.8.8 0 0 1-.317.031.5.5 0 0 1-.236-.087.44.44 0 0 1-.153-.184.7.7 0 0 1-.062-.267.2.2 0 0 1 0-.087.13.13 0 0 1 .052-.061l.476-.276a.2.2 0 0 1 .082 0h.056l.041.04a.24.24 0 0 0 .205.041.6.6 0 0 0 .184-.071q.175-.1.317-.24a.37.37 0 0 0 .128-.277.1.1 0 0 0-.008-.053.1.1 0 0 0-.038-.04.23.23 0 0 0-.138 0 2 2 0 0 0-.246.062l-.343.102a.57.57 0 0 1-.547-.04.73.73 0 0 1-.175-.564q.004-.18.052-.353c.112-.396.336-.752.645-1.024v-.359a.3.3 0 0 1 0-.107.2.2 0 0 1 .071-.082l.477-.271a.05.05 0 0 1 .066 0s.031.035.031.071zM136.348 86.895a.7.7 0 0 1 .297 0 .514.514 0 0 1 .436.492.2.2 0 0 1 0 .092.13.13 0 0 1-.052.061l-.476.271a.2.2 0 0 1-.082.031.14.14 0 0 1-.061 0l-.036-.03a.12.12 0 0 0-.066-.031.2.2 0 0 0-.108 0 .5.5 0 0 0-.164.066l-.128.087a.5.5 0 0 0-.112.103.4.4 0 0 0-.113.26.1.1 0 0 0 .006.056.1.1 0 0 0 .03.047.17.17 0 0 0 .112 0q.113-.013.221-.046l.332-.097q.17-.06.348-.067a.4.4 0 0 1 .246.062c.071.05.123.122.149.205q.059.177.051.363a1.6 1.6 0 0 1-.056.41 2.4 2.4 0 0 1-.164.394q-.11.196-.256.363-.148.174-.328.313v.343a.23.23 0 0 1-.026.112.2.2 0 0 1-.071.077l-.476.277a.05.05 0 0 1-.034.012.05.05 0 0 1-.033-.012.1.1 0 0 1-.024-.035.1.1 0 0 1-.007-.042v-.358a.9.9 0 0 1-.312.03.6.6 0 0 1-.241-.087.45.45 0 0 1-.153-.184.6.6 0 0 1-.057-.266.2.2 0 0 1 0-.087.14.14 0 0 1 .057-.062l.471-.276a.16.16 0 0 1 .082-.026.1.1 0 0 1 .056 0l.046.036a.2.2 0 0 0 .077.046.3.3 0 0 0 .123 0 .5.5 0 0 0 .184-.072q.176-.1.323-.24a.4.4 0 0 0 .128-.277q0-.077-.046-.092a.25.25 0 0 0-.144 0 2 2 0 0 0-.24.061l-.349.103a.57.57 0 0 1-.542-.041.72.72 0 0 1-.174-.568q0-.18.046-.354.047-.19.138-.363a1.8 1.8 0 0 1 .215-.353q.132-.172.292-.318v-.39a.25.25 0 0 1 .031-.112.2.2 0 0 1 .066-.076l.476-.277a.06.06 0 0 1 .072 0q.016.015.022.035a.1.1 0 0 1 .004.042zM138.801 85.456a.7.7 0 0 1 .297 0 .51.51 0 0 1 .374.266q.056.106.056.226a.16.16 0 0 1 0 .087.2.2 0 0 1-.056.066l-.476.272a.15.15 0 0 1-.077.03.2.2 0 0 1-.067-.025h-.036a.1.1 0 0 0-.066-.031.2.2 0 0 0-.108 0 .36.36 0 0 0-.158.067.8.8 0 0 0-.134.087.7.7 0 0 0-.112.102.5.5 0 0 0-.082.123.3.3 0 0 0-.031.138.14.14 0 0 0 .036.102.2.2 0 0 0 .118 0q.11-.013.215-.046l.333-.097q.168-.061.348-.066a.4.4 0 0 1 .251.061.4.4 0 0 1 .148.205q.052.178.046.363.003.21-.056.41a2 2 0 0 1-.164.394 2.2 2.2 0 0 1-.578.676v.343a.2.2 0 0 1-.031.108.2.2 0 0 1-.067.082l-.476.27a.07.07 0 0 1-.072 0 .1.1 0 0 1-.025-.076v-.358a.9.9 0 0 1-.318.03.6.6 0 0 1-.235-.087.5.5 0 0 1-.159-.184.7.7 0 0 1-.056-.266.2.2 0 0 1 .025-.087.13.13 0 0 1 .052-.062l.476-.276a.2.2 0 0 1 .077-.03.14.14 0 0 1 .061 0l.041.035a.2.2 0 0 0 .082.046q.062.015.123 0a.4.4 0 0 0 .179-.072q.178-.098.323-.24a.37.37 0 0 0 .128-.272.1.1 0 0 0-.009-.055.1.1 0 0 0-.038-.042.3.3 0 0 0-.143 0 2 2 0 0 0-.241.056l-.343.108a.58.58 0 0 1-.547-.041.76.76 0 0 1-.175-.568q0-.169.036-.333.051-.19.139-.364.092-.187.22-.353.127-.178.292-.323v-.358a.3.3 0 0 1 .025-.108.2.2 0 0 1 .072-.076l.476-.277a.05.05 0 0 1 .033-.012q.02 0 .034.012.016.015.024.035a.1.1 0 0 1 .006.042zM154.008 70.849l-67.472 38.953c-.235.133-.425 0-.425-.323a1.02 1.02 0 0 1 .425-.809l67.472-38.953c.23-.133.419 0 .419.323a1.02 1.02 0 0 1-.419.809M154.008 74.873l-67.472 38.953c-.235.138-.425 0-.425-.317a1.03 1.03 0 0 1 .425-.809l67.472-38.953c.23-.138.419 0 .419.317a1.02 1.02 0 0 1-.419.81M154.008 78.903 140.9 86.465c-.23.138-.42 0-.42-.318a1.02 1.02 0 0 1 .42-.814l13.108-7.562c.23-.133.419 0 .419.317a1.029 1.029 0 0 1-.419.814M128.346 93.715l-41.81 24.14c-.235.133-.425 0-.425-.322a1.03 1.03 0 0 1 .425-.809l41.81-24.141c.236-.133.425 0 .425.323a1.02 1.02 0 0 1-.425.808M154.008 82.927 86.536 121.88c-.235.133-.425 0-.425-.323a1.02 1.02 0 0 1 .425-.809l67.472-38.973c.23-.133.419 0 .419.322a1.02 1.02 0 0 1-.419.83M154.008 86.951l-67.472 38.953c-.235.139-.425 0-.425-.317a1.03 1.03 0 0 1 .425-.809l67.472-38.953c.23-.138.419 0 .419.317a1.02 1.02 0 0 1-.419.81M137.03 100.78l-50.494 29.154c-.235.133-.425 0-.425-.323a1.02 1.02 0 0 1 .425-.809l50.494-29.153c.23-.133.42 0 .42.322a1.03 1.03 0 0 1-.42.809M97.734 149.359a.7.7 0 0 1 .297 0 .5.5 0 0 1 .225.092.5.5 0 0 1 .149.174.5.5 0 0 1 .056.225.2.2 0 0 1 0 .093.2.2 0 0 1-.051.061l-.477.271a.2.2 0 0 1-.081.031.2.2 0 0 1-.067 0l-.03-.031a.13.13 0 0 0-.072-.03.2.2 0 0 0-.108 0 .5.5 0 0 0-.159.066l-.133.087a1 1 0 0 0-.112.103.5.5 0 0 0-.077.123.34.34 0 0 0-.026.192.1.1 0 0 0 .026.048.16.16 0 0 0 .118 0 1 1 0 0 0 .215-.046l.332-.097q.17-.058.349-.067a.372.372 0 0 1 .4.266q.053.178.05.364 0 .21-.061.41-.058.207-.164.394a2 2 0 0 1-.266.343q-.15.17-.328.312v.343a.25.25 0 0 1-.097.19l-.477.276a.06.06 0 0 1-.035.012.06.06 0 0 1-.036-.012.1.1 0 0 1 0-.077v-.358a.9.9 0 0 1-.318.031.6.6 0 0 1-.235-.087.45.45 0 0 1-.154-.185.7.7 0 0 1-.061-.266.2.2 0 0 1 0-.087.13.13 0 0 1 .051-.061l.476-.277a.16.16 0 0 1 .082 0h.056l.041.036a.2.2 0 0 0 .082.046q.061.013.123 0a.6.6 0 0 0 .184-.072 1.6 1.6 0 0 0 .318-.24.4.4 0 0 0 .128-.277q0-.077-.046-.092a.23.23 0 0 0-.138 0 2 2 0 0 0-.246.062l-.343.102a.58.58 0 0 1-.548-.041.74.74 0 0 1-.174-.568q.004-.18.051-.354.05-.188.133-.363c.128-.254.301-.481.512-.671v-.358a.3.3 0 0 1 0-.113.2.2 0 0 1 .072-.077l.476-.276a.05.05 0 0 1 .033-.012.05.05 0 0 1 .034.012q.016.014.024.035a.1.1 0 0 1 .006.042zM100.181 147.945a.7.7 0 0 1 .297 0 .5.5 0 0 1 .225.093.44.44 0 0 1 .148.174q.056.106.062.225a.2.2 0 0 1 0 .092.2.2 0 0 1-.051.062l-.476.271a.2.2 0 0 1-.082.031.2.2 0 0 1-.062-.026l-.036-.026a.1.1 0 0 0-.066-.03.2.2 0 0 0-.108 0 .4.4 0 0 0-.164.066 1 1 0 0 0-.128.087.6.6 0 0 0-.112.103.4.4 0 0 0-.082.123.3.3 0 0 0-.03.138.12.12 0 0 0 .035.102.17.17 0 0 0 .113 0 1 1 0 0 0 .215-.046l.338-.097a1 1 0 0 1 .348-.067.38.38 0 0 1 .245.062.36.36 0 0 1 .149.205q.059.177.051.363-.002.208-.056.41a2.4 2.4 0 0 1-.164.394 2.368 2.368 0 0 1-.584.676v.343a.3.3 0 0 1 0 .107.2.2 0 0 1-.071.082l-.477.272a.1.1 0 0 1-.033.009.1.1 0 0 1-.033-.009.091.091 0 0 1-.03-.077v-.359a.9.9 0 0 1-.313.031.6.6 0 0 1-.24-.087.45.45 0 0 1-.154-.184.6.6 0 0 1-.057-.266.2.2 0 0 1 0-.087.14.14 0 0 1 .057-.062l.47-.276a.2.2 0 0 1 .083-.031h.056l.046.036a.2.2 0 0 0 .077.046q.06.012.123 0a.6.6 0 0 0 .184-.072q.176-.103.323-.246a.4.4 0 0 0 .128-.271.1.1 0 0 0-.009-.056.1.1 0 0 0-.038-.041.3.3 0 0 0-.143 0 1.3 1.3 0 0 0-.24.061l-.349.103a.6.6 0 0 1-.547-.041.76.76 0 0 1-.17-.569q.002-.18.047-.353a1.7 1.7 0 0 1 .138-.364 1.8 1.8 0 0 1 .215-.353q.132-.174.292-.322v-.359a.2.2 0 0 1 .03-.107.2.2 0 0 1 .067-.077l.476-.277a.1.1 0 0 1 .036-.011q.02 0 .036.011a.1.1 0 0 1 0 .077zM102.634 146.528a.7.7 0 0 1 .297 0 .505.505 0 0 1 .43.491.2.2 0 0 1 0 .087.14.14 0 0 1-.057.062l-.476.276a.1.1 0 0 1-.077 0 .1.1 0 0 1-.066 0l-.036-.026a.15.15 0 0 0-.067-.035h-.107a.5.5 0 0 0-.159.066 1 1 0 0 0-.133.092.7.7 0 0 0-.113.103.5.5 0 0 0-.081.123.3.3 0 0 0-.031.138.12.12 0 0 0 .036.097.15.15 0 0 0 .117.026q.11-.015.215-.046l.333-.103q.17-.054.348-.066a.4.4 0 0 1 .251.066q.106.077.149.2.05.18.046.369.001.206-.056.404a2 2 0 0 1-.164.394q-.11.196-.251.369a3 3 0 0 1-.328.312v.343a.2.2 0 0 1-.031.108.2.2 0 0 1-.066.082l-.476.271a.06.06 0 0 1-.072 0v-.43a.8.8 0 0 1-.317.026.5.5 0 0 1-.236-.087.45.45 0 0 1-.159-.185.7.7 0 0 1-.056-.261.2.2 0 0 1 0-.092.2.2 0 0 1 .051-.061l.476-.272a.2.2 0 0 1 .077-.031.1.1 0 0 1 .062 0l.041.036.081.046a.434.434 0 0 0 .303-.071q.177-.098.322-.241a.38.38 0 0 0 .128-.276.093.093 0 0 0-.046-.093.25.25 0 0 0-.143 0q-.123.016-.241.057l-.343.102a.57.57 0 0 1-.548-.036.74.74 0 0 1-.174-.568q.001-.18.046-.353.053-.191.138-.369a3 3 0 0 1 .221-.353q.127-.175.291-.318v-.358a.2.2 0 0 1 .025-.105.2.2 0 0 1 .073-.079l.476-.277a.05.05 0 0 1 .033-.012.05.05 0 0 1 .033.012q.017.015.025.035a.1.1 0 0 1 .006.042zM105.08 145.114a.7.7 0 0 1 .297 0 .52.52 0 0 1 .374.261.6.6 0 0 1 .062.231.2.2 0 0 1 0 .087.2.2 0 0 1-.052.061l-.476.277a.2.2 0 0 1-.082 0 .12.12 0 0 1-.066 0l-.031-.031-.067-.031h-.112a.7.7 0 0 0-.159.067l-.133.087-.113.107a.6.6 0 0 0-.077.118.35.35 0 0 0-.025.194.1.1 0 0 0 .031.047.17.17 0 0 0 .112.025q.11-.013.215-.046l.338-.102q.17-.056.348-.067a.46.46 0 0 1 .246.062c.071.05.123.122.149.205q.058.179.051.368a1.4 1.4 0 0 1-.062.405q-.056.208-.163.394-.105.196-.251.363a2.4 2.4 0 0 1-.328.318v.333a.2.2 0 0 1-.031.107.17.17 0 0 1-.066.077l-.476.276a.06.06 0 0 1-.034.013.05.05 0 0 1-.033-.013.1.1 0 0 1-.025-.034.1.1 0 0 1-.006-.042v-.354a.75.75 0 0 1-.312.026.5.5 0 0 1-.241-.087.44.44 0 0 1-.153-.184.7.7 0 0 1-.062-.261.2.2 0 0 1 0-.093.2.2 0 0 1 .051-.061l.477-.271a.2.2 0 0 1 .082-.031.1.1 0 0 1 .056 0l.046.041a.22.22 0 0 0 .2.041.5.5 0 0 0 .184-.072q.177-.096.317-.241a.38.38 0 0 0 .133-.276.1.1 0 0 0-.01-.055.1.1 0 0 0-.041-.037.3.3 0 0 0-.138 0 2 2 0 0 0-.241.061l-.348.103a.56.56 0 0 1-.548-.041.74.74 0 0 1-.169-.564q.002-.179.047-.353.049-.19.133-.368a2.3 2.3 0 0 1 .512-.671v-.359q0-.057.03-.107a.2.2 0 0 1 .067-.082l.476-.271a.05.05 0 0 1 .033-.013q.02 0 .034.013s.03.035.03.071zM154.008 111.041l-67.472 38.953c-.235.138-.425 0-.425-.318a1.02 1.02 0 0 1 .425-.809l67.472-38.932c.23-.138.419 0 .419.317a1.03 1.03 0 0 1-.419.789M154.008 115.055l-67.472 38.968c-.235.133-.425 0-.425-.322a1.03 1.03 0 0 1 .425-.809l67.472-38.953c.23-.133.419 0 .419.322a1.02 1.02 0 0 1-.419.794M154.007 119.094l-46.822 27.034c-.236.133-.425 0-.425-.323a1.01 1.01 0 0 1 .425-.809l46.822-27.033c.231-.133.42 0 .42.322a1.02 1.02 0 0 1-.42.809M94.626 153.378l-8.09 4.685c-.235.133-.425 0-.425-.323a1.02 1.02 0 0 1 .425-.809l8.09-4.669c.235-.138.425 0 .425.317a1.02 1.02 0 0 1-.425.799M154.008 123.119l-67.472 38.953c-.235.138-.425 0-.425-.318a1.02 1.02 0 0 1 .425-.809l67.472-38.953c.23-.138.419 0 .419.318a1.03 1.03 0 0 1-.419.809M154.008 127.148l-67.472 38.953c-.235.133-.425 0-.425-.323a1.02 1.02 0 0 1 .425-.809l67.472-38.952c.23-.134.419 0 .419.322a1.03 1.03 0 0 1-.419.809M154.008 96.705l-67.472 38.953c-.235.133-.425 0-.425-.323a1.02 1.02 0 0 1 .425-.809l67.472-38.927c.23-.133.419 0 .419.323a1.01 1.01 0 0 1-.419.783M154.008 100.719l-67.472 38.963c-.235.133-.425 0-.425-.322a1.02 1.02 0 0 1 .425-.809l67.472-38.953c.23-.133.419 0 .419.322a1.01 1.01 0 0 1-.419.799M154.008 104.753l-67.472 38.974c-.235.138-.425 0-.425-.318a1.02 1.02 0 0 1 .425-.809l67.472-38.953c.23-.138.419 0 .419.318a1.02 1.02 0 0 1-.419.788M154.008 147.218l-25.969 14.992c-.23.138-.42 0-.42-.318a1.02 1.02 0 0 1 .42-.814l25.969-14.986c.23-.138.419 0 .419.317a1.02 1.02 0 0 1-.419.809M112.5 171.18l-25.964 14.992c-.235.138-.425 0-.425-.318a1.02 1.02 0 0 1 .425-.809l25.964-14.991c.235-.138.425 0 .425.317a1.03 1.03 0 0 1-.425.809" style="fill:#e0e0e0;fill:color(display-p3 .8784 .8784 .8784);fill-opacity:1"/><path fill="#455A64" d="M86.08 182.311c2.458-1.362 4.89-3.707 6.969-6.656a33.6 33.6 0 0 0 2.734-4.634c.404-.829.778-1.684 1.111-2.56.251-.65.681-1.679.277-2.007-.405-.327-1.152.364-1.608.845a13 13 0 0 0-1.659 2.314 46 46 0 0 0-2.724 5.223 28 28 0 0 0-1.787 5.432c-.158.748-.4 1.782-.061 2.212.338.43 1.07 0 1.582-.389 1.454-1.091 2.775-3.159 3.886-5.002a44.6 44.6 0 0 0 3.072-6.144c.051-.123 0-.236-.051-.262-.312-.128-.66.21-.958.661a19 19 0 0 0-1.024 1.864 26.6 26.6 0 0 0-1.592 3.988 3.2 3.2 0 0 0-.23 1.582.465.465 0 0 0 .39.399.5.5 0 0 0 .198-.015c.594-.169 1.219-1.121 1.634-1.853a13.6 13.6 0 0 0 1.536-4.24c.036-.174-.159-.266-.256-.087a12.2 12.2 0 0 0-1.147 3.251c-.123.594-.261 1.741.338 1.536.46-.174.952-1.116 1.249-1.674a25 25 0 0 0 1.362-3.338l-.154-.108a20 20 0 0 0-.425 2.048c-.061.436-.123 1.076.205 1.127s.63-.753.784-1.142q.386-1.026.66-2.089l-.184-.087c-.256.937-.722 3.4.445 2.596a6 6 0 0 0 1.096-1.142c.363-.461.722-.947 1.06-1.454a25.8 25.8 0 0 0 2.529-5.012c.348-.907.66-1.823.957-2.745.297-.921.584-1.771.814-2.647.154-.578.39-1.49.098-1.802s-.732.594-.942 1.024c-.85 1.807-1.536 3.645-2.217 5.509-.604 1.659-1.188 3.323-1.628 5.002-.282 1.065-.512 2.535.363 2.514.512 0 1.024-.768 1.398-1.444.44-.814.84-1.679 1.218-2.534a45 45 0 0 0 2.202-6.144c.061-.225-.215-.322-.302-.082a39 39 0 0 0-.886 2.898c-.123.481-.23.952-.328 1.429q-.154.671-.225 1.356c-.031.512.205.891.609.569.512-.4.856-1.408 1.024-2.048h-.271a3.4 3.4 0 0 0 .113 1.182c.128.241.322.195.573.041a3.7 3.7 0 0 1 1.229-.353l1.26-.256c.215-.041.199-.425 0-.389l-1.813.363a2.3 2.3 0 0 0-.753.267c-.179.112-.271.092-.312-.149-.041-.24 0-.542-.036-.798 0-.113-.215-.236-.271 0a4.4 4.4 0 0 1-.809 1.776c-.512.558-.123-1.193-.072-1.469.282-1.454.694-2.88 1.229-4.26l-.276-.097a46 46 0 0 1-1.536 4.515 35 35 0 0 1-1.91 4.153c-.297.512-.794 1.28-1.162 1.024-.292-.2-.19-.901-.093-1.408q.428-1.921 1.091-3.774c.512-1.536 1.024-3.072 1.623-4.551q.456-1.147.968-2.274.21-.57.512-1.095c.066-.092.23-.205.297-.139q.015.106 0 .21a4 4 0 0 1-.149.758c-.21.799-.512 1.598-.747 2.396a40 40 0 0 1-.727 2.207 33 33 0 0 1-1.844 4.332 20 20 0 0 1-2.293 3.456c-.256.307-.758.936-1.024.885-.267-.051-.149-.583-.128-.875q.067-.728.24-1.439c.041-.159-.128-.297-.184-.087q-.178.707-.425 1.413c-.14.474-.34.928-.594 1.352-.24.322-.261.025-.246-.22.016-.246.062-.512.093-.738q.092-.794.286-1.571c.036-.139-.087-.308-.153-.108a28 28 0 0 1-1.3 3.021 6.8 6.8 0 0 1-1.025 1.587c-.604.625-.22-1.024-.123-1.434.228-.92.572-1.808 1.024-2.642l-.256-.081a13.6 13.6 0 0 1-1.413 3.87c-.292.538-1.346 2.289-1.71 1.726-.22-.338.102-1.188.266-1.7.236-.748.512-1.48.814-2.207s.59-1.3.922-1.92c.205-.389.947-1.92 1.29-1.782 0-.087-.036-.174-.051-.261a45 45 0 0 1-2.453 5.049 31.6 31.6 0 0 1-2.995 4.546 6.8 6.8 0 0 1-1.792 1.633c-.291.164-.69.354-.793-.041a3.4 3.4 0 0 1 .102-1.239 25.3 25.3 0 0 1 1.49-4.956 42 42 0 0 1 2.284-4.777c.855-1.536 1.914-3.466 3.148-4.121.236-.128.415 0 .343.358a4 4 0 0 1-.184.625 31.532 31.532 0 0 1-1.47 3.374 32 32 0 0 1-2.472 4.214c-2.013 2.862-4.368 5.207-6.754 6.656-.087.056-.071.271 0 .23zM130.916 154.909c-.328.609-.963 1.7-1.439 1.49s-.036-1.388.154-1.951a19.6 19.6 0 0 1 2.304-4.429q.655-.997 1.428-1.905a5.5 5.5 0 0 1 1.511-1.413c1.1-.476-.707 3.784-.958 4.439-.788 2.048-1.587 4.071-2.37 6.109-.154.399.215.414.384.112.599-1.085 1.203-2.16 1.797-3.246s1.095-2.048 1.72-2.975l-.333-.03c-.041.701-.312 1.454-.42 2.176-.082.512-.123 1.228.292 1.182.323-.035.594-.512.789-.937.389-.778.763-1.566 1.141-2.35l-.353-.041c-.077.645-.2 1.332-.23 1.956 0 .343.056.661.302.671s.65-.512.87-.911c.246-.452.419-.939.512-1.444.051-.282-.266-.313-.358 0a7.7 7.7 0 0 0-.328 1.884c0 .394.174.568.461.45.691-.276 1.336-1.402 1.802-2.247.512-.947 1.024-1.9 1.5-2.888q.364-.717.63-1.474c.163-.361.218-.761.159-1.152-.343-.825-1.536 1.96-1.767 2.416a17 17 0 0 0-.819 2.171q-.272.886-.414 1.802c-.057.354-.072.732.112.891.543.476 1.582-1.48 1.941-2.201a61 61 0 0 0 1.822-4.096l-.332-.067c-.205.676-.395 1.347-.512 2.022-.093.446-.292 1.152 0 1.337.291.184.512-.292.732-.656.33-.629.576-1.298.732-1.991l-.266-.062q-.12.651-.159 1.311c0 .225.066.404.225.41.435 0 .732-.922.84-1.414l-.225.113c.194.21.389.471.675.486a1.637 1.637 0 0 0 1.076-.645q.634-.738 1.131-1.577c.333-.512.656-1.075.963-1.633a34.2 34.2 0 0 0 2.939-7.168c.071-.241-.21-.333-.313-.087-2.022 4.67-3.41 9.539-5.12 14.29a81 81 0 0 1-1.582 4.096l.379.082a25 25 0 0 1 1.229-3.384c.553-1.188 1.167-2.345 1.782-3.487a160 160 0 0 1 3.84-6.697c.757-1.244 1.536-2.488 2.278-3.722.179-.282-.118-.466-.276-.215a153 153 0 0 0-7.552 13.609 25 25 0 0 0-1.731 3.906c-.092.302.256.374.379.087 1.956-4.7 3.272-9.543 4.997-14.3a68 68 0 0 1 1.644-4.096l-.318-.082a34 34 0 0 1-2.524 6.293 30 30 0 0 1-1.777 2.99 3.7 3.7 0 0 1-1.198 1.269c-.368.169-.563-.138-.768-.378-.041-.052-.189-.036-.225.112-.036.149-.287 1.116-.461 1.024s.072-.993.097-1.218c.026-.226-.204-.308-.266-.067a9 9 0 0 1-.727 1.9c-.087.158-.287.624-.302.266.036-.465.134-.923.292-1.362.128-.446.276-.891.425-1.331.092-.282-.19-.415-.312-.128-.425.993-.85 1.981-1.306 2.959a18 18 0 0 1-1.178 2.268c-.153.236-.747 1.122-.747.584.028-.465.109-.925.24-1.372.182-.776.43-1.535.743-2.268.353-.875.787-1.715 1.295-2.509q.067-.08.123-.169c0 .031.046-.041.031-.031-.103.051-.072.072-.103.2a7.6 7.6 0 0 1-.389 1.167 36 36 0 0 1-1.147 2.371 18.7 18.7 0 0 1-1.484 2.56 3.4 3.4 0 0 1-.681.686c-.164.097-.174.046-.174-.179a7 7 0 0 1 .348-1.705h-.359a4 4 0 0 1-.302.952c-.087.184-.476.947-.619.916s0-.742.03-.906l.154-1.254c.031-.266-.23-.302-.358-.041l-.845 1.746c-.097.205-.44 1.065-.62 1.142-.276.112.041-1.219.098-1.439q.19-.743.281-1.505c0-.236-.184-.308-.333-.093-.65.953-1.213 1.997-1.786 3.031-.574 1.035-1.219 2.192-1.828 3.287l.384.113a819 819 0 0 0 2.672-6.871c.441-1.147 1.987-4.818.41-4.362-.574.164-1.193.855-1.715 1.439a20 20 0 0 0-1.762 2.329c-1.024 1.567-2.135 3.487-2.56 5.371-.194.86-.143 1.71.482 1.684.624-.025 1.31-.952 1.756-1.868.123-.246-.164-.405-.287-.174z" style="fill:#455a64;fill:color(display-p3 .2706 .3529 .3922);fill-opacity:1"/><path fill="#fff" d="M137.413 47.138a.264.264 0 1 1-.133-.512l17.203-9.907a.26.26 0 0 1 .291.016q.04.03.068.076a.27.27 0 0 1-.098.363l-17.198 9.928a.26.26 0 0 1-.133.036M137.413 49.099a.263.263 0 0 1-.322-.19.27.27 0 0 1 .027-.2.27.27 0 0 1 .162-.122l17.203-9.933a.266.266 0 0 1 .392.194.264.264 0 0 1-.131.261l-17.198 9.933a.26.26 0 0 1-.133.057M137.413 51.055a.27.27 0 0 1-.23-.128.265.265 0 0 1 .097-.358l17.203-9.933a.264.264 0 0 1 .359.097q.026.045.032.097a.263.263 0 0 1-.13.261l-17.198 9.933a.3.3 0 0 1-.133.031M86.5 76.296l-1.69.978v-.67l1.69-.978zM86.5 80.756l-1.69.972v-.67l1.69-.973zM86.337 80.05l-1.367.788v-3.543l1.367-.789zM89.321 74.668l-1.69.973v-.666l1.69-.977zM89.321 79.123l-1.69.977v-.67l1.69-.973zM89.163 78.421l-1.367.788v-3.543l1.367-.788zM92.143 73.04l-1.69.973v-.671l1.69-.973zM92.143 77.495l-1.69.978v-.671l1.69-.973zM91.978 76.793l-1.362.789v-3.548l1.362-.789zM92.46 71.786l-7.967 4.608a.27.27 0 0 0-.102.205c0 .076.046.112.102.082l7.967-4.608a.27.27 0 0 0 .102-.205c0-.077-.046-.113-.102-.082M92.972 71.09l-8.99 5.191a.26.26 0 0 0-.108.205c0 .077.046.113.108.082l8.99-5.197a.24.24 0 0 0 .108-.2c0-.076-.046-.112-.108-.081M84.493 82.312l7.967-4.608a.26.26 0 0 0 .102-.204c0-.077-.046-.113-.102-.077l-7.967 4.608a.27.27 0 0 0-.102.204c0 .052.046.108.102.077M83.982 83.009l8.99-5.192a.25.25 0 0 0 .108-.205c0-.077-.046-.112-.108-.077l-8.99 5.192a.24.24 0 0 0-.108.2c0 .082.046.118.108.082M83.423 83.73l10.107-5.836a.25.25 0 0 0 .102-.2c0-.077-.046-.118-.102-.082l-10.107 5.832a.27.27 0 0 0-.108.205c0 .076.052.112.108.082M88.338 70.055l-3.656 5.432a.123.123 0 0 0 .164.174l7.445-4.295a.138.138 0 0 0 0-.251l-3.584-1.183a.31.31 0 0 0-.369.123m-2.652 4.649 2.852-4.244 2.872.947zM95.296 71.453a.26.26 0 0 1-.225-.128.26.26 0 0 1 .092-.358l17.203-9.933a.26.26 0 0 1 .2-.029.254.254 0 0 1 .159.126q.026.046.033.097a.264.264 0 0 1-.131.261l-17.198 9.928a.25.25 0 0 1-.133.036M95.296 73.414a.25.25 0 0 1-.225-.133.26.26 0 0 1 .092-.359l17.203-9.932a.267.267 0 0 1 .392.194.264.264 0 0 1-.131.261l-17.198 9.933a.25.25 0 0 1-.133.036M95.297 75.375a.266.266 0 0 1-.133-.512l9.881-5.704a.263.263 0 1 1 .261.456l-9.876 5.724a.3.3 0 0 1-.133.036" style="fill:#fff;fill-opacity:1"/><path fill="#F7921E" d="M141.238 143.455v-1.618c-3.584 2.048-6.503 7.639-6.503 12.416l1.219-.701c0-3.886 2.37-8.412 5.284-10.097m4.679 4.342c0-3.446-2.099-5.033-4.679-3.543s-4.685 5.504-4.685 8.95 2.099 5.033 4.685 3.543 4.679-5.509 4.679-8.924zm-8.76 5.054c0-2.996 1.833-6.488 4.096-7.788q.224-.128.461-.23l-4.526 8.622a7 7 0 0 1-.031-.604m.179 1.469 5.074-9.702c1.316-.231 2.35.563 2.734 2.099l-5.053 9.656c-1.316.246-2.361-.532-2.755-2.053m7.952-6.733c0 .179.025.364.025.558 0 3.001-1.833 6.492-4.096 7.788a4 4 0 0 1-.43.22zm-4.05-7.362c-4.25 2.457-7.68 9.057-7.68 14.725s3.456 8.274 7.68 5.821 7.68-9.057 7.68-14.72-3.436-8.279-7.68-5.826m0 19.737c-3.917 2.258-7.102-.148-7.102-5.366 0-5.217 3.185-11.299 7.102-13.557 3.916-2.258 7.096.143 7.096 5.365s-3.164 11.3-7.096 13.558m5.278-12.513c0 3.886-2.37 8.412-5.278 10.097v1.617c3.584-2.048 6.497-7.639 6.497-12.416z" opacity=".2" style="fill:#f7921e;fill:color(display-p3 .9686 .5725 .1176);fill-opacity:1"/><path fill="#000" d="M141.233 31.716v6.697a5.75 5.75 0 0 1-2.621 4.547l-12.964 7.48c-.64.369-1.024 1.106-1.388 1.884a7.5 7.5 0 0 1-1.024 1.639c-1.024 1.142-3.2 2.33-4.751 2.826a9 9 0 0 1-1.536.358l-.635.087c-1.413.19-3.174.43-4.209 1.024L96.94 67.014a2.64 2.64 0 0 1-1.321.394 1.74 1.74 0 0 1-.886-.225 2.18 2.18 0 0 1-.962-1.997v-6.692a5.72 5.72 0 0 1 2.626-4.547l5.12-2.944a.2.2 0 0 1 .072-.025.527.527 0 1 1 .512.921.2.2 0 0 1-.062.047l-5.12 2.944a4.68 4.68 0 0 0-2.083 3.584v6.712a.916.916 0 0 0 1.536.885l15.165-8.755c1.219-.701 3.072-.957 4.608-1.157l.63-.087a8.3 8.3 0 0 0 1.377-.322c1.377-.436 3.42-1.536 4.265-2.51.338-.427.621-.897.84-1.397.44-.896.901-1.812 1.822-2.345l12.959-7.48a4.69 4.69 0 0 0 2.084-3.584v-6.718a1.17 1.17 0 0 0-.42-1.024 1.15 1.15 0 0 0-1.116.164l-4.419 2.56a4.4 4.4 0 0 0-.553-.937l4.424-2.56a1.97 1.97 0 0 1 2.995.683c.172.356.233.755.174 1.145z" opacity=".25" style="fill:#000;fill-opacity:1"/><path fill="#37474F" d="M131.782 31.84a1.35 1.35 0 0 1 1.367.127 4.26 4.26 0 0 1 1.93 3.339 1.35 1.35 0 0 1-.574 1.249l-30.72 17.756-2.723-4.72z" style="fill:#37474f;fill:color(display-p3 .2157 .2784 .3098);fill-opacity:1"/><path fill="#455A64" d="m102.403 51.966 32.113-18.545a3.9 3.9 0 0 0-1.367-1.449c-.061-.036-.123-.056-.184-.087l-31.616 18.258z" style="fill:#455a64;fill:color(display-p3 .2706 .3529 .3922);fill-opacity:1"/><path fill="#263238" d="M102.403 49.728c-1.065-.614-1.925-.117-1.925 1.111a4.25 4.25 0 0 0 1.925 3.339c1.065.614 1.925.117 1.925-1.111a4.27 4.27 0 0 0-1.925-3.339" style="fill:#263238;fill:color(display-p3 .149 .1961 .2196);fill-opacity:1"/><path fill="#455A64" d="M141.781 32.192v6.697a5.74 5.74 0 0 1-2.627 4.547l-12.958 7.48c-.64.369-1.024 1.106-1.393 1.884a7.3 7.3 0 0 1-.998 1.639c-1.024 1.142-3.206 2.33-4.752 2.826a9 9 0 0 1-1.536.358l-.635.088c-1.413.189-3.174.43-4.208 1.023L97.488 67.49a2.66 2.66 0 0 1-1.321.399 1.75 1.75 0 0 1-.886-.23 2.18 2.18 0 0 1-.963-1.997V58.97a5.72 5.72 0 0 1 2.627-4.547l5.089-2.944h.072a.527.527 0 0 1 .512.922.2.2 0 0 1-.056.046l-5.095 2.944a4.69 4.69 0 0 0-2.084 3.584v6.692a.916.916 0 0 0 1.536.886l15.166-8.755c1.218-.702 3.072-.958 4.608-1.158l.63-.087a8.4 8.4 0 0 0 1.382-.322c1.377-.435 3.42-1.536 4.265-2.509.337-.43.619-.899.84-1.398.44-.896.896-1.812 1.822-2.345l12.959-7.48a4.69 4.69 0 0 0 2.084-3.584v-6.723a.92.92 0 0 0-.426-1.035.92.92 0 0 0-1.11.15l-4.414 2.56a4.7 4.7 0 0 0-.552-.932l4.423-2.56a1.968 1.968 0 0 1 2.995.683c.172.355.233.754.174 1.145z" style="fill:#455a64;fill:color(display-p3 .2706 .3529 .3922);fill-opacity:1"/><path fill="#F7921E" d="M195.958 166.775a17 17 0 0 0-6.275-5.802c-10.254-5.922-26.891-5.922-37.139 0-2.928 1.691-5.014 3.681-6.269 5.802h-1.44v5.378c.191 3.735 2.743 7.428 7.673 10.279 10.26 5.922 26.891 5.922 37.139 0 4.93-2.851 7.5-6.544 7.691-10.279v-5.378z" style="fill:#f7921e;fill:color(display-p3 .9686 .5725 .1176);fill-opacity:1"/><path fill="#000" d="M195.958 166.775a17 17 0 0 0-6.275-5.802c-10.254-5.922-26.891-5.922-37.139 0-2.928 1.691-5.014 3.681-6.269 5.802h-1.44v5.378c.191 3.735 2.743 7.428 7.673 10.279 10.26 5.922 26.891 5.922 37.139 0 4.93-2.851 7.5-6.544 7.691-10.279v-5.378z" opacity=".25" style="fill:#000;fill-opacity:1"/><path fill="#000" d="M171.128 156.533c-6.722 0-13.439 1.476-18.572 4.44-2.928 1.691-5.014 3.681-6.269 5.802h-1.452v5.378c.191 3.735 2.743 7.428 7.673 10.279 5.133 2.958 11.85 4.44 18.572 4.44z" opacity=".1" style="fill:#000;fill-opacity:1"/><path fill="#000" d="M156.786 158.995a29 29 0 0 0-4.23 1.978c-2.928 1.691-5.014 3.681-6.269 5.803h-1.452v5.378c.191 3.735 2.743 7.428 7.673 10.278a28.6 28.6 0 0 0 4.231 1.978z" opacity=".1" style="fill:#000;fill-opacity:1"/><path fill="#F7921E" d="M185.47 158.995a28.6 28.6 0 0 1 4.225 1.978 17 17 0 0 1 6.274 5.803h1.416v5.378c-.191 3.735-2.76 7.428-7.69 10.278a28.5 28.5 0 0 1-4.225 1.978z" opacity=".5" style="fill:#f7921e;fill:color(display-p3 .9686 .5725 .1176);fill-opacity:1"/><path fill="#F7921E" d="M152.544 156.055c-10.254 5.922-10.254 15.537 0 21.441 8.964 5.181 22.828 5.826 33.016 1.942l.407-.155a29 29 0 0 0 3.711-1.793c8.551-4.936 9.973-12.43 4.26-18.22a19.8 19.8 0 0 0-4.254-3.221c-10.255-5.934-26.879-5.934-37.14.006" style="fill:#f7921e;fill:color(display-p3 .9686 .5725 .1176);fill-opacity:1"/><path fill="#000" d="M152.544 156.055c-10.254 5.922-10.254 15.537 0 21.441 8.964 5.181 22.828 5.826 33.016 1.942l.407-.155a29 29 0 0 0 3.711-1.793c8.551-4.936 9.973-12.43 4.26-18.22a19.8 19.8 0 0 0-4.254-3.221c-10.255-5.934-26.879-5.934-37.14.006" opacity=".2" style="fill:#000;fill-opacity:1"/><path fill="#F5F5F5" d="M193.943 159.276c.108.125 3.699 3.908 2.743 9.352-.902 5.211-8.199 9.597-10.714 10.655a29 29 0 0 0 3.711-1.793c8.551-4.93 9.973-12.436 4.26-18.214M148.289 174.275a11.5 11.5 0 0 1-2.417-4.37 11.45 11.45 0 0 1-.332-4.982c.909-5.211 8.205-9.597 10.721-10.649a27.4 27.4 0 0 0-3.711 1.793c-8.557 4.924-9.974 12.423-4.261 18.208" opacity=".5" style="fill:#f5f5f5;fill:color(display-p3 .9608 .9608 .9608);fill-opacity:1"/><path fill="#F7921E" d="M188.387 176.719c9.561-5.504 9.561-14.425 0-19.929s-24.991-5.504-34.522 0c-9.532 5.504-9.561 14.425 0 19.929s24.984 5.504 34.522 0" style="fill:#f7921e;fill:color(display-p3 .9686 .5725 .1176);fill-opacity:1"/><path fill="#fff" d="M188.387 176.719c9.561-5.504 9.561-14.425 0-19.929s-24.991-5.504-34.522 0c-9.532 5.504-9.561 14.425 0 19.929s24.984 5.504 34.522 0" opacity=".4" style="fill:#fff;fill-opacity:1"/><path fill="#fff" d="M194.433 170.964c1.96-3.627 1.321-7.625-1.918-11.013a16.4 16.4 0 0 0-2.068-1.793 22 22 0 0 0-3.173-1.954c1.016 1.673.64 3.46-5.109 3.795-11.246.657 2.988 11.407 2.988 11.407s7.26-3.519 9.28-.442" opacity=".2" style="fill:#fff;fill-opacity:1"/><path fill="#fff" d="M193.239 167.988c1.691-.185 2.528-1.924 1.87-3.878s-2.557-3.382-4.243-3.191c-1.685.191-2.527 1.924-1.87 3.878s2.582 3.383 4.243 3.191" opacity=".5" style="fill:#fff;fill-opacity:1"/><path fill="#F7921E" d="M175.466 176.952c-.549-4.183-18.817-15.746-18.817-15.746s-4.046-1.625-2.701-4.458q-1.014.578-1.954 1.267a13 13 0 0 0-1.196.938c-5.437 4.709-5.443 10.894 0 15.603q.548.485 1.196.944.865.644 1.792 1.195c.598.365 1.267.699 1.936 1.01.532.257 1.082.49 1.644.711s1.129.43 1.715.598a35.3 35.3 0 0 0 5.444 1.314l1.231.174c4.026.514 8.106.446 12.113-.203 0 0-2.922-.604-2.403-3.347" style="fill:#f7921e;fill:color(display-p3 .9686 .5725 .1176);fill-opacity:1"/><path fill="#fff" d="M175.466 176.952c-.549-4.183-18.817-15.746-18.817-15.746s-4.046-1.625-2.701-4.458q-1.014.578-1.954 1.267a13 13 0 0 0-1.196.938c-5.437 4.709-5.443 10.894 0 15.603q.548.485 1.196.944.865.644 1.792 1.195c.598.365 1.267.699 1.936 1.01.532.257 1.082.49 1.644.711s1.129.43 1.715.598a35.3 35.3 0 0 0 5.444 1.314l1.231.174c4.026.514 8.106.446 12.113-.203 0 0-2.922-.604-2.403-3.347" opacity=".3" style="fill:#fff;fill-opacity:1"/><path fill="#F7921E" d="M158.257 159.33c-6.813 3.932-7.088 10.206-.831 14.342.263.173.544.346.831.513 7.105 4.1 18.614 4.1 25.695 0 7.082-4.099 7.106-10.756 0-14.849-.286-.168-.597-.329-.89-.484-7.123-3.616-17.993-3.454-24.805.478" style="fill:#f7921e;fill:color(display-p3 .9686 .5725 .1176);fill-opacity:1"/><path fill="#000" d="M158.257 159.33c-6.813 3.932-7.088 10.206-.831 14.342.263.173.544.346.831.513 7.105 4.1 18.614 4.1 25.695 0 7.082-4.099 7.106-10.756 0-14.849-.286-.168-.597-.329-.89-.484-7.123-3.616-17.993-3.454-24.805.478" opacity=".2" style="fill:#000;fill-opacity:1"/><path fill="#F7921E" d="M171.123 176.785c9.6 0 17.383-4.492 17.383-10.033 0-5.542-7.783-10.034-17.383-10.034-9.601 0-17.384 4.492-17.384 10.034 0 5.541 7.783 10.033 17.384 10.033" style="fill:#f7921e;fill:color(display-p3 .9686 .5725 .1176);fill-opacity:1"/><path fill="#000" d="M171.123 176.785c9.6 0 17.383-4.492 17.383-10.033 0-5.542-7.783-10.034-17.383-10.034-9.601 0-17.384 4.492-17.384 10.034 0 5.541 7.783 10.033 17.384 10.033" opacity=".5" style="fill:#000;fill-opacity:1"/><path fill="#F7921E" d="M158.836 162.455c6.789-3.92 17.79-3.92 24.578 0 2.779 1.607 4.417 3.615 4.924 5.701-.507 2.079-2.145 4.093-4.924 5.694-6.788 3.921-17.789 3.921-24.578 0-2.779-1.601-4.416-3.615-4.924-5.694.484-2.086 2.145-4.1 4.924-5.701" style="fill:#f7921e;fill:color(display-p3 .9686 .5725 .1176);fill-opacity:1"/><path fill="#000" d="M158.836 162.455c6.789-3.92 17.79-3.92 24.578 0 2.779 1.607 4.417 3.615 4.924 5.701-.507 2.079-2.145 4.093-4.924 5.694-6.788 3.921-17.789 3.921-24.578 0-2.779-1.601-4.416-3.615-4.924-5.694.484-2.086 2.145-4.1 4.924-5.701" opacity=".35" style="fill:#000;fill-opacity:1"/><path fill="#F7921E" d="M182.07 169.775v-2.074c0-.848-.598-1.673-1.853-2.39l-.041-.03c-2.337-1.35-4.751-1.195-6.896-.633-.915.227-1.793.526-2.576.8q-1.357.503-2.761.855a5 5 0 0 1-1.308.125 2.8 2.8 0 0 1-1.088-.286l.084-.06c.083-.06.179-.114.275-.173q.353-.201.729-.359a5.03 5.03 0 0 1 3.86-.09l2.229-2.246v-2.062a10.5 10.5 0 0 0-6.089-.221q-.997.251-1.937.669l-2.252-1.327-2.672 1.56v2.062l.915.526a2.2 2.2 0 0 0-.395 1.195v2.061c0 .849.598 1.674 1.895 2.391a7.8 7.8 0 0 0 3.669 1.057h.735a14.3 14.3 0 0 0 3.944-.854c.263-.084.514-.173.765-.263l-2.241 2.253v2.061a10.95 10.95 0 0 0 8.593-.37l2.205 1.267 2.659-1.536v-2.056l-.914-.525a2.43 2.43 0 0 0 .466-1.327m-5.605-.173a6 6 0 0 1-.598.304 5.7 5.7 0 0 1-4.35.066c2.085-.735 3.824-1.374 5.306-.597a10 10 0 0 1-.358.227" style="fill:#f7921e;fill:color(display-p3 .9686 .5725 .1176);fill-opacity:1"/><path fill="#F7921E" d="M173.28 164.624c-.915.227-1.793.526-2.576.801q-1.357.502-2.761.854a5 5 0 0 1-1.308.126 2.9 2.9 0 0 1-1.267-.377c-.855-.496-.98-1.195.263-2.038l.275-.167q.352-.204.729-.359a5.03 5.03 0 0 1 3.86-.089l2.229-2.247a10.5 10.5 0 0 0-6.089-.221q-.997.251-1.937.669l-2.252-1.303-2.672 1.56 2.205 1.267c-2.234 1.703-2.282 3.46.234 4.918a7.77 7.77 0 0 0 3.669 1.052h.735a14.6 14.6 0 0 0 3.944-.855c2.551-.854 4.619-1.858 6.34-.866 1.153.663.831 1.5-.43 2.235a6 6 0 0 1-.598.304 5.72 5.72 0 0 1-4.428.036l-2.336 2.343a10.94 10.94 0 0 0 8.593-.377l2.205 1.273 2.659-1.536-2.205-1.272c2.217-1.71 2.468-3.586-.114-5.086l-.041-.03c-2.367-1.332-4.781-1.153-6.926-.615" style="fill:#f7921e;fill:color(display-p3 .9686 .5725 .1176);fill-opacity:1"/><path fill="#fff" d="M173.28 164.624c-.915.227-1.793.526-2.576.801q-1.357.502-2.761.854a5 5 0 0 1-1.308.126 2.9 2.9 0 0 1-1.267-.377c-.855-.496-.98-1.195.263-2.038l.275-.167q.352-.204.729-.359a5.03 5.03 0 0 1 3.86-.089l2.229-2.247a10.5 10.5 0 0 0-6.089-.221q-.997.251-1.937.669l-2.252-1.303-2.672 1.56 2.205 1.267c-2.234 1.703-2.282 3.46.234 4.918a7.77 7.77 0 0 0 3.669 1.052h.735a14.6 14.6 0 0 0 3.944-.855c2.551-.854 4.619-1.858 6.34-.866 1.153.663.831 1.5-.43 2.235a6 6 0 0 1-.598.304 5.72 5.72 0 0 1-4.428.036l-2.336 2.343a10.94 10.94 0 0 0 8.593-.377l2.205 1.273 2.659-1.536-2.205-1.272c2.217-1.71 2.468-3.586-.114-5.086l-.041-.03c-2.367-1.332-4.781-1.153-6.926-.615" opacity=".3" style="fill:#fff;fill-opacity:1"/><path fill="#F5F5F5" d="m159.786 161.833 2.683-1.219 2.205.968-2.229-1.285zM166.3 160.997a12.45 12.45 0 0 1 5.719.191l-1.542 2.193 2.223-2.247a10.6 10.6 0 0 0-6.4-.137M180.175 165.258l.042.029c2.582 1.512 2.331 3.377.114 5.086 1.96-2.134 1.607-3.622-.52-4.853-2.128-1.231-4.847-1.195-6.532-.896 2.146-.538 4.56-.717 6.896.634" opacity=".45" style="fill:#f5f5f5;fill:color(display-p3 .9608 .9608 .9608);fill-opacity:1"/><path fill="#F5F5F5" d="m180.331 170.373 1.691 1.296-2.145 1.512 2.659-1.536zM175.844 169.907a5.7 5.7 0 0 1-4.237.37l-2.528 2.008 2.337-2.342a5.73 5.73 0 0 0 4.428-.036M167.919 166.285c-1.003.395-2.45.329-3.185-.304-.735-.634-.275-1.369.873-1.984-1.243.818-1.118 1.541-.263 2.037.387.222.821.351 1.267.377.44.017.88-.025 1.308-.126M161.968 163.118c-.192.167-1.793 1.661-1.082 3.155.747 1.59 3.096 2.612 4.99 2.815a7.77 7.77 0 0 1-3.669-1.052c-2.522-1.458-2.474-3.215-.239-4.918" opacity=".45" style="fill:#f5f5f5;fill:color(display-p3 .9608 .9608 .9608);fill-opacity:1"/><path fill="#F7921E" d="M192.922 158.756c-1.254-2.122-3.34-4.112-6.268-5.803-10.261-5.922-26.891-5.922-37.139 0-2.929 1.691-5.02 3.681-6.275 5.803h-1.392v5.378c.191 3.735 2.743 7.428 7.673 10.278 10.254 5.922 26.89 5.922 37.139 0 4.93-2.85 7.499-6.543 7.691-10.278v-5.378z" style="fill:#f7921e;fill:color(display-p3 .9686 .5725 .1176);fill-opacity:1"/><path fill="#000" d="M192.922 158.756c-1.254-2.122-3.34-4.112-6.268-5.803-10.261-5.922-26.891-5.922-37.139 0-2.929 1.691-5.02 3.681-6.275 5.803h-1.392v5.378c.191 3.735 2.743 7.428 7.673 10.278 10.254 5.922 26.89 5.922 37.139 0 4.93-2.85 7.499-6.543 7.691-10.278v-5.378z" opacity=".25" style="fill:#000;fill-opacity:1"/><path fill="#000" d="M168.087 148.513c-6.723 0-13.445 1.476-18.572 4.44-2.929 1.691-5.02 3.681-6.275 5.803h-1.392v5.378c.191 3.735 2.743 7.428 7.673 10.278 5.127 2.958 11.849 4.44 18.572 4.44z" opacity=".1" style="fill:#000;fill-opacity:1"/><path fill="#000" d="M153.739 150.976a28.3 28.3 0 0 0-4.224 1.978c-2.929 1.691-5.02 3.681-6.275 5.802h-1.392v5.378c.191 3.735 2.743 7.428 7.673 10.279a28.4 28.4 0 0 0 4.224 1.977z" opacity=".1" style="fill:#000;fill-opacity:1"/><path fill="#F7921E" d="M182.423 150.976a28.5 28.5 0 0 1 4.231 1.978c2.928 1.691 5.013 3.681 6.268 5.802h1.422v5.378c-.191 3.735-2.76 7.428-7.69 10.279a28.6 28.6 0 0 1-4.231 1.977z" opacity=".5" style="fill:#f7921e;fill:color(display-p3 .9686 .5725 .1176);fill-opacity:1"/><path fill="#F7921E" d="M149.515 148.035c-10.254 5.922-10.254 15.537 0 21.441 8.964 5.181 22.821 5.826 33.016 1.942l.406-.155a28 28 0 0 0 3.711-1.793c8.558-4.936 9.974-12.43 4.261-18.22a19.8 19.8 0 0 0-4.261-3.221c-10.248-5.916-26.873-5.916-37.133.006" style="fill:#f7921e;fill:color(display-p3 .9686 .5725 .1176);fill-opacity:1"/><path fill="#000" d="M149.515 148.035c-10.254 5.922-10.254 15.537 0 21.441 8.964 5.181 22.821 5.826 33.016 1.942l.406-.155a28 28 0 0 0 3.711-1.793c8.558-4.936 9.974-12.43 4.261-18.22a19.8 19.8 0 0 0-4.261-3.221c-10.248-5.916-26.873-5.916-37.133.006" opacity=".2" style="fill:#000;fill-opacity:1"/><path fill="#F5F5F5" d="M190.909 151.256a11.47 11.47 0 0 1 2.749 9.352c-.908 5.211-8.205 9.597-10.72 10.655a28 28 0 0 0 3.71-1.793c8.558-4.93 9.974-12.424 4.261-18.214M145.254 166.249c-.107-.125-3.699-3.908-2.743-9.352.909-5.211 8.205-9.597 10.715-10.648a28 28 0 0 0-3.711 1.792c-8.551 4.93-9.974 12.43-4.261 18.208" opacity=".5" style="fill:#f5f5f5;fill:color(display-p3 .9608 .9608 .9608);fill-opacity:1"/><path fill="#F7921E" d="M185.352 168.699c9.531-5.503 9.531-14.425 0-19.929s-24.991-5.503-34.522 0-9.531 14.426 0 19.929c9.531 5.504 24.991 5.504 34.522 0" style="fill:#f7921e;fill:color(display-p3 .9686 .5725 .1176);fill-opacity:1"/><path fill="#fff" d="M185.352 168.699c9.531-5.503 9.531-14.425 0-19.929s-24.991-5.503-34.522 0-9.531 14.426 0 19.929c9.531 5.504 24.991 5.504 34.522 0" opacity=".4" style="fill:#fff;fill-opacity:1"/><path fill="#fff" d="M191.393 162.945c1.966-3.628 1.32-7.625-1.919-11.014a16 16 0 0 0-2.067-1.792 22 22 0 0 0-1.972-1.303 29 29 0 0 0-1.195-.651c1.016 1.673.645 3.46-5.104 3.794-11.252.658 2.988 11.408 2.988 11.408s7.261-3.52 9.269-.442" opacity=".2" style="fill:#fff;fill-opacity:1"/><path fill="#fff" d="M190.252 159.969c1.685-.185 2.522-1.924 1.87-3.878s-2.557-3.383-4.249-3.192c-1.691.192-2.521 1.925-1.87 3.879s2.54 3.382 4.249 3.191" opacity=".5" style="fill:#fff;fill-opacity:1"/><path fill="#F7921E" d="M172.437 168.933c-.556-4.183-18.817-15.747-18.817-15.747s-4.052-1.625-2.707-4.457q-1.011.581-1.955 1.266c-.418.305-.812.598-1.195.939-5.438 4.708-5.444 10.893 0 15.602.371.323.765.64 1.195.944.562.407 1.166.801 1.793 1.196.628.394 1.267.699 1.936 1.009.532.257 1.088.491 1.65.712s1.129.43 1.709.597a35.5 35.5 0 0 0 5.45 1.315l1.225.173c4.026.515 8.106.446 12.112-.203 0 0-2.922-.604-2.396-3.346" style="fill:#f7921e;fill:color(display-p3 .9686 .5725 .1176);fill-opacity:1"/><path fill="#fff" d="M172.437 168.933c-.556-4.183-18.817-15.747-18.817-15.747s-4.052-1.625-2.707-4.457q-1.011.581-1.955 1.266c-.418.305-.812.598-1.195.939-5.438 4.708-5.444 10.893 0 15.602.371.323.765.64 1.195.944.562.407 1.166.801 1.793 1.196.628.394 1.267.699 1.936 1.009.532.257 1.088.491 1.65.712s1.129.43 1.709.597a35.5 35.5 0 0 0 5.45 1.315l1.225.173c4.026.515 8.106.446 12.112-.203 0 0-2.922-.604-2.396-3.346" opacity=".3" style="fill:#fff;fill-opacity:1"/><path fill="#F7921E" d="M155.221 151.31c-6.812 3.932-7.087 10.206-.83 14.342.269.173.544.346.836.513 7.1 4.1 18.615 4.1 25.696 0s7.105-10.756 0-14.849a23 23 0 0 0-.896-.484c-7.105-3.616-17.993-3.454-24.806.478" style="fill:#f7921e;fill:color(display-p3 .9686 .5725 .1176);fill-opacity:1"/><path fill="#000" d="M155.221 151.31c-6.812 3.932-7.087 10.206-.83 14.342.269.173.544.346.836.513 7.1 4.1 18.615 4.1 25.696 0s7.105-10.756 0-14.849a23 23 0 0 0-.896-.484c-7.105-3.616-17.993-3.454-24.806.478" opacity=".2" style="fill:#000;fill-opacity:1"/><path fill="#F7921E" d="M168.093 168.765c9.601 0 17.384-4.492 17.384-10.033s-7.783-10.033-17.384-10.033-17.383 4.492-17.383 10.033 7.783 10.033 17.383 10.033" style="fill:#f7921e;fill:color(display-p3 .9686 .5725 .1176);fill-opacity:1"/><path fill="#000" d="M168.093 168.765c9.601 0 17.384-4.492 17.384-10.033s-7.783-10.033-17.384-10.033-17.383 4.492-17.383 10.033 7.783 10.033 17.383 10.033" opacity=".5" style="fill:#000;fill-opacity:1"/><path fill="#F7921E" d="M155.801 154.435c6.788-3.92 17.796-3.92 24.584 0 2.773 1.602 4.416 3.586 4.918 5.701-.502 2.08-2.145 4.093-4.918 5.695-6.788 3.92-17.796 3.92-24.584 0-2.773-1.602-4.416-3.615-4.918-5.695.526-2.085 2.145-4.099 4.918-5.701" style="fill:#f7921e;fill:color(display-p3 .9686 .5725 .1176);fill-opacity:1"/><path fill="#000" d="M155.801 154.435c6.788-3.92 17.796-3.92 24.584 0 2.773 1.602 4.416 3.586 4.918 5.701-.502 2.08-2.145 4.093-4.918 5.695-6.788 3.92-17.796 3.92-24.584 0-2.773-1.602-4.416-3.615-4.918-5.695.526-2.085 2.145-4.099 4.918-5.701" opacity=".35" style="fill:#000;fill-opacity:1"/><path fill="#F7921E" d="M179.041 161.756v-2.074c0-.849-.598-1.673-1.858-2.39l-.042-.03c-2.337-1.351-4.745-1.195-6.896-.634-.915.227-1.793.526-2.57.801q-1.357.5-2.761.855c-.43.1-.872.142-1.314.125a2.9 2.9 0 0 1-1.088-.287l.09-.059.269-.174q.353-.2.729-.358a5.05 5.05 0 0 1 3.866-.09l2.229-2.247v-2.091a10.53 10.53 0 0 0-6.095-.221q-.997.254-1.936.669l-2.229-1.285-2.66 1.536v2.062l.909.525a2.23 2.23 0 0 0-.389 1.196v2.061c0 .849.598 1.673 1.895 2.39a7.8 7.8 0 0 0 3.675 1.058h.735a14.3 14.3 0 0 0 3.944-.854q.395-.128.771-.263l-2.247 2.253v2.061a10.96 10.96 0 0 0 8.599-.37l2.199 1.267 2.659-1.536v-2.062l-.914-.526c.266-.385.416-.84.43-1.308m-5.611-.174a6 6 0 0 1-.598.305 5.7 5.7 0 0 1-4.35.066c2.079-.735 3.818-1.375 5.306-.598-.125.114-.233.156-.358.227" style="fill:#f7921e;fill:color(display-p3 .9686 .5725 .1176);fill-opacity:1"/><path fill="#F7921E" d="M170.245 156.604c-.915.227-1.793.526-2.57.801q-1.357.5-2.761.855c-.43.1-.872.142-1.314.125a2.9 2.9 0 0 1-1.261-.376c-.861-.496-.98-1.195.263-2.038l.269-.167q.353-.203.729-.359a5.032 5.032 0 0 1 3.866-.09l2.229-2.246a10.54 10.54 0 0 0-6.095-.222q-.997.255-1.936.67l-2.229-1.285-2.66 1.536 2.205 1.267c-2.234 1.703-2.282 3.46.234 4.918a7.8 7.8 0 0 0 3.675 1.051h.735a14.5 14.5 0 0 0 3.944-.854c2.557-.855 4.625-1.859 6.34-.867 1.153.67.836 1.5-.43 2.235a6 6 0 0 1-.598.305 5.73 5.73 0 0 1-4.434.036l-2.336 2.342a10.95 10.95 0 0 0 8.599-.376l2.199 1.273 2.659-1.536-2.199-1.273c2.211-1.709 2.468-3.585-.12-5.085l-.041-.03c-2.403-1.327-4.811-1.124-6.962-.61" style="fill:#f7921e;fill:color(display-p3 .9686 .5725 .1176);fill-opacity:1"/><path fill="#fff" d="M170.245 156.604c-.915.227-1.793.526-2.57.801q-1.357.5-2.761.855c-.43.1-.872.142-1.314.125a2.9 2.9 0 0 1-1.261-.376c-.861-.496-.98-1.195.263-2.038l.269-.167q.353-.203.729-.359a5.032 5.032 0 0 1 3.866-.09l2.229-2.246a10.54 10.54 0 0 0-6.095-.222q-.997.255-1.936.67l-2.229-1.285-2.66 1.536 2.205 1.267c-2.234 1.703-2.282 3.46.234 4.918a7.8 7.8 0 0 0 3.675 1.051h.735a14.5 14.5 0 0 0 3.944-.854c2.557-.855 4.625-1.859 6.34-.867 1.153.67.836 1.5-.43 2.235a6 6 0 0 1-.598.305 5.73 5.73 0 0 1-4.434.036l-2.336 2.342a10.95 10.95 0 0 0 8.599-.376l2.199 1.273 2.659-1.536-2.199-1.273c2.211-1.709 2.468-3.585-.12-5.085l-.041-.03c-2.403-1.327-4.811-1.124-6.962-.61" opacity=".3" style="fill:#fff;fill-opacity:1"/><path fill="#F5F5F5" d="m156.751 153.814 2.689-1.219 2.199.968-2.229-1.285zM163.271 152.977a12.4 12.4 0 0 1 5.713.191l-1.541 2.194 2.229-2.247a10.6 10.6 0 0 0-6.401-.138M177.141 157.238l.042.03c2.587 1.512 2.331 3.376.119 5.085 1.961-2.133 1.608-3.621-.525-4.852s-4.847-1.195-6.532-.897c2.151-.514 4.56-.717 6.896.634M177.302 162.353l1.685 1.297-2.145 1.512 2.659-1.536zM172.814 161.887a5.7 5.7 0 0 1-4.242.371l-2.528 2.008 2.336-2.343a5.75 5.75 0 0 0 4.434-.036M164.89 158.266c-1.003.394-2.456.328-3.185-.305s-.275-1.368.873-1.984c-1.243.819-1.124 1.542-.263 2.038.386.221.817.35 1.261.376a5 5 0 0 0 1.314-.125M158.932 155.099c-.185.167-1.792 1.661-1.081 3.155.753 1.589 3.095 2.611 4.989 2.814a7.8 7.8 0 0 1-3.675-1.051c-2.515-1.458-2.468-3.215-.233-4.918" opacity=".45" style="fill:#f5f5f5;fill:color(display-p3 .9608 .9608 .9608);fill-opacity:1"/><path fill="#F7921E" d="M145.278 150.378a16.9 16.9 0 0 1 6.275-5.796c10.254-5.922 26.891-5.922 37.133 0a16.9 16.9 0 0 1 6.275 5.796h1.416v5.378c-.185 3.729-2.743 7.428-7.673 10.279-10.254 5.916-26.891 5.916-37.133 0-4.93-2.851-7.506-6.574-7.691-10.279v-5.378z" style="fill:#f7921e;fill:color(display-p3 .9686 .5725 .1176);fill-opacity:1"/><path fill="#000" d="M145.278 150.378a16.9 16.9 0 0 1 6.275-5.796c10.254-5.922 26.891-5.922 37.133 0a16.9 16.9 0 0 1 6.275 5.796h1.416v5.378c-.185 3.729-2.743 7.428-7.673 10.279-10.254 5.916-26.891 5.916-37.133 0-4.93-2.851-7.506-6.574-7.691-10.279v-5.378z" opacity=".25" style="fill:#000;fill-opacity:1"/><path fill="#000" d="M170.119 140.135c6.717 0 13.44 1.482 18.567 4.446a16.9 16.9 0 0 1 6.274 5.797h1.417v5.378c-.186 3.729-2.743 7.428-7.673 10.278-5.127 2.958-11.85 4.44-18.567 4.44z" opacity=".1" style="fill:#000;fill-opacity:1"/><path fill="#000" d="M184.461 142.597a29 29 0 0 1 4.225 1.984 16.9 16.9 0 0 1 6.274 5.797h1.417v5.378c-.186 3.729-2.743 7.428-7.673 10.278a29.5 29.5 0 0 1-4.225 1.978z" opacity=".1" style="fill:#000;fill-opacity:1"/><path fill="#F7921E" d="M155.777 142.597a29 29 0 0 0-4.225 1.984 16.9 16.9 0 0 0-6.274 5.797h-1.417v5.378c.186 3.729 2.761 7.428 7.691 10.278a29.5 29.5 0 0 0 4.225 1.978z" opacity=".5" style="fill:#f7921e;fill:color(display-p3 .9686 .5725 .1176);fill-opacity:1"/><path fill="#F7921E" d="M188.686 139.663c10.261 5.916 10.255 15.537 0 21.441-8.963 5.181-22.821 5.827-33.016 1.943l-.406-.162a29 29 0 0 1-3.711-1.793c-8.551-4.941-9.974-12.435-4.261-18.22a20 20 0 0 1 4.261-3.215c10.254-5.916 26.879-5.916 37.133.006" style="fill:#f7921e;fill:color(display-p3 .9686 .5725 .1176);fill-opacity:1"/><path fill="#000" d="M188.686 139.663c10.261 5.916 10.255 15.537 0 21.441-8.963 5.181-22.821 5.827-33.016 1.943l-.406-.162a29 29 0 0 1-3.711-1.793c-8.551-4.941-9.974-12.435-4.261-18.22a20 20 0 0 1 4.261-3.215c10.254-5.916 26.879-5.916 37.133.006" opacity=".2" style="fill:#000;fill-opacity:1"/><path fill="#F5F5F5" d="M147.292 142.884a11.465 11.465 0 0 0-2.749 9.352c.909 5.211 8.205 9.597 10.721 10.649a29 29 0 0 1-3.711-1.793c-8.551-4.93-9.974-12.423-4.261-18.208M192.947 157.883a11.467 11.467 0 0 0 2.749-9.358c-.908-5.211-8.205-9.561-10.72-10.649a28 28 0 0 1 3.711 1.793c8.551 4.93 9.973 12.424 4.26 18.214" opacity=".5" style="fill:#f5f5f5;fill:color(display-p3 .9608 .9608 .9608);fill-opacity:1"/><path fill="#F7921E" d="M170.131 164.451c13.481 0 24.411-6.309 24.411-14.091s-10.93-14.091-24.411-14.091-24.411 6.309-24.411 14.091 10.929 14.091 24.411 14.091" style="fill:#f7921e;fill:color(display-p3 .9686 .5725 .1176);fill-opacity:1"/><path fill="#fff" d="M170.131 164.451c13.481 0 24.411-6.309 24.411-14.091s-10.93-14.091-24.411-14.091-24.411 6.309-24.411 14.091 10.929 14.091 24.411 14.091" opacity=".4" style="fill:#fff;fill-opacity:1"/><path fill="#fff" d="M146.825 154.573c-1.96-3.628-1.32-7.625 1.918-11.02a16.3 16.3 0 0 1 2.068-1.792 21 21 0 0 1 1.978-1.303q.584-.339 1.195-.651c-1.016 1.667-.645 3.46 5.109 3.794 11.247.658-2.987 11.408-2.987 11.408s-7.267-3.52-9.281-.436" opacity=".2" style="fill:#fff;fill-opacity:1"/><path fill="#fff" d="M147.991 151.597c-1.691-.191-2.528-1.924-1.87-3.878s2.557-3.383 4.243-3.197c1.685.185 2.527 1.93 1.87 3.878s-2.558 3.388-4.243 3.197" opacity=".5" style="fill:#fff;fill-opacity:1"/><path fill="#F7921E" d="M165.786 160.554c.55-4.183 18.812-15.74 18.812-15.74s4.051-1.625 2.707-4.458q1.013.575 1.954 1.261c.424.305.818.598 1.195.939 5.432 4.708 5.444 10.893 0 15.608q-.549.483-1.195.938-.866.644-1.793 1.196c-.597.358-1.267.699-1.936 1.009a28 28 0 0 1-1.643.712c-.562.221-1.13.424-1.715.597a36 36 0 0 1-5.444 1.309 41 41 0 0 1-6.675.52 42 42 0 0 1-6.669-.544s2.922-.598 2.402-3.347" style="fill:#f7921e;fill:color(display-p3 .9686 .5725 .1176);fill-opacity:1"/><path fill="#fff" d="M165.786 160.554c.55-4.183 18.812-15.74 18.812-15.74s4.051-1.625 2.707-4.458q1.013.575 1.954 1.261c.424.305.818.598 1.195.939 5.432 4.708 5.444 10.893 0 15.608q-.549.483-1.195.938-.866.644-1.793 1.196c-.597.358-1.267.699-1.936 1.009a28 28 0 0 1-1.643.712c-.562.221-1.13.424-1.715.597a36 36 0 0 1-5.444 1.309 41 41 0 0 1-6.675.52 42 42 0 0 1-6.669-.544s2.922-.598 2.402-3.347" opacity=".3" style="fill:#fff;fill-opacity:1"/><path fill="#F7921E" d="M182.997 142.944c6.812 3.932 7.087 10.207.831 14.342-.263.179-.544.353-.831.52-7.105 4.099-18.614 4.099-25.696 0-7.081-4.099-7.105-10.756 0-14.85.287-.167.598-.329.891-.484 7.123-3.627 17.993-3.466 24.805.472" style="fill:#f7921e;fill:color(display-p3 .9686 .5725 .1176);fill-opacity:1"/><path fill="#000" d="M182.997 142.944c6.812 3.932 7.087 10.207.831 14.342-.263.179-.544.353-.831.52-7.105 4.099-18.614 4.099-25.696 0-7.081-4.099-7.105-10.756 0-14.85.287-.167.598-.329.891-.484 7.123-3.627 17.993-3.466 24.805.472" opacity=".2" style="fill:#000;fill-opacity:1"/><path fill="#F7921E" d="M182.417 143.267c6.788 3.914 6.788 10.272 0 14.192s-17.79 3.92-24.579 0c-6.788-3.92-6.788-10.278 0-14.192s17.79-3.908 24.579 0" style="fill:#f7921e;fill:color(display-p3 .9686 .5725 .1176);fill-opacity:1"/><path fill="#000" d="M182.417 143.267c6.788 3.914 6.788 10.272 0 14.192s-17.79 3.92-24.579 0c-6.788-3.92-6.788-10.278 0-14.192s17.79-3.908 24.579 0" opacity=".5" style="fill:#000;fill-opacity:1"/><path fill="#F7921E" d="M182.417 146.063c-6.788-3.92-17.789-3.92-24.578 0-2.779 1.602-4.416 3.586-4.924 5.695.508 2.086 2.145 4.093 4.924 5.701 6.789 3.92 17.79 3.92 24.578 0 2.779-1.608 4.416-3.615 4.924-5.701-.508-2.08-2.145-4.093-4.924-5.695" style="fill:#f7921e;fill:color(display-p3 .9686 .5725 .1176);fill-opacity:1"/><path fill="#000" d="M182.417 146.063c-6.788-3.92-17.789-3.92-24.578 0-2.779 1.602-4.416 3.586-4.924 5.695.508 2.086 2.145 4.093 4.924 5.701 6.789 3.92 17.79 3.92 24.578 0 2.779-1.608 4.416-3.615 4.924-5.701-.508-2.08-2.145-4.093-4.924-5.695" opacity=".35" style="fill:#000;fill-opacity:1"/><path fill="#F7921E" d="M181.072 153.384v-2.074c0-.854-.597-1.679-1.858-2.42h-.042c-2.336-1.35-4.745-1.195-6.896-.633-.914.227-1.793.526-2.575.794q-1.356.512-2.761.855c-.431.1-.873.142-1.315.126a2.8 2.8 0 0 1-1.087-.293l.089-.06.269-.167q.352-.205.729-.359a5.032 5.032 0 0 1 3.866-.09l2.229-2.246v-2.08a10.64 10.64 0 0 0-6.095-.221 12 12 0 0 0-1.936.675l-2.229-1.291-2.659 1.536v2.062l.908.526c-.24.353-.374.768-.388 1.195v2.091c0 .855.597 1.674 1.894 2.391a7.76 7.76 0 0 0 3.675 1.057h.735c1.348-.1 2.676-.387 3.944-.854q.395-.127.771-.263l-2.247 2.247v2.067a10.95 10.95 0 0 0 8.599-.376l2.199 1.273 2.659-1.536v-2.062l-.914-.532c.277-.392.429-.858.436-1.338m-5.605-.179a6 6 0 0 1-.597.31 5.73 5.73 0 0 1-4.345.066c2.08-.735 3.819-1.38 5.301-.597-.126.077-.239.149-.359.221" style="fill:#f7921e;fill:color(display-p3 .9686 .5725 .1176);fill-opacity:1"/><path fill="#F7921E" d="M172.283 148.233c-.914.227-1.793.526-2.576.795q-1.355.51-2.76.854c-.431.1-.873.142-1.315.126a2.9 2.9 0 0 1-1.267-.383c-.854-.49-.98-1.195.269-2.032q.13-.09.269-.167a6 6 0 0 1 .729-.364 5 5 0 0 1 3.866-.084l2.229-2.241a10.64 10.64 0 0 0-6.095-.221 12 12 0 0 0-1.936.675l-2.229-1.291-2.659 1.536 2.163 1.273c-2.235 1.697-2.283 3.46.233 4.912a7.8 7.8 0 0 0 3.675 1.058h.735a14.5 14.5 0 0 0 3.944-.849c2.552-.854 4.619-1.858 6.34-.866 1.154.663.831 1.5-.43 2.229a6 6 0 0 1-.598.31 5.714 5.714 0 0 1-4.434.03l-2.336 2.343a10.92 10.92 0 0 0 8.599-.371l2.199 1.273 2.659-1.536-2.199-1.272c2.211-1.715 2.468-3.586-.119-5.092h-.042c-2.355-1.362-4.763-1.153-6.914-.645" style="fill:#f7921e;fill:color(display-p3 .9686 .5725 .1176);fill-opacity:1"/><path fill="#fff" d="M172.282 148.232c-.914.227-1.793.526-2.576.795q-1.355.512-2.76.855c-.431.1-.873.142-1.315.125a2.9 2.9 0 0 1-1.267-.382c-.854-.49-.98-1.195.269-2.032q.13-.092.269-.167.352-.208.729-.365a5.033 5.033 0 0 1 3.866-.084l2.229-2.24a10.64 10.64 0 0 0-6.095-.222c-.663.171-1.311.397-1.936.676l-2.229-1.291-2.659 1.536 2.163 1.272c-2.235 1.698-2.283 3.46.233 4.913a7.8 7.8 0 0 0 3.675 1.057h.735a14.5 14.5 0 0 0 3.944-.848c2.552-.855 4.619-1.859 6.34-.867 1.154.664.831 1.5-.43 2.229a6 6 0 0 1-.598.311 5.714 5.714 0 0 1-4.434.03l-2.336 2.342a10.93 10.93 0 0 0 8.599-.37l2.199 1.273 2.659-1.536-2.199-1.273c2.211-1.715 2.468-3.585-.119-5.091h-.042c-2.355-1.363-4.763-1.154-6.914-.646" opacity=".3" style="fill:#fff;fill-opacity:1"/><path fill="#F5F5F5" d="m158.789 145.436 2.683-1.213 2.205.968-2.229-1.291zM165.303 144.599a12.45 12.45 0 0 1 5.719.198l-1.542 2.193 2.247-2.253a10.66 10.66 0 0 0-6.424-.138M179.178 148.866h.042c2.588 1.518 2.331 3.376.12 5.091 1.96-2.133 1.607-3.627-.526-4.852s-4.847-1.195-6.532-.896c2.151-.484 4.56-.693 6.896.657M179.34 153.981l1.685 1.297-2.145 1.512 2.659-1.536zM174.852 153.515a5.75 5.75 0 0 1-4.243.371l-2.528 2.002 2.337-2.343a5.7 5.7 0 0 0 4.434-.03M166.946 149.894c-1.01.394-2.456.328-3.185-.305s-.275-1.369.872-1.984c-1.248.819-1.123 1.542-.268 2.032.386.224.82.355 1.266.382.442.017.884-.025 1.315-.125M160.97 146.727c-.185.167-1.792 1.661-1.081 3.149.747 1.595 3.095 2.617 4.99 2.82a7.76 7.76 0 0 1-3.676-1.057c-2.515-1.452-2.468-3.215-.233-4.912" opacity=".45" style="fill:#f5f5f5;fill:color(display-p3 .9608 .9608 .9608);fill-opacity:1"/><path fill="#fff" d="m146.927 147.713.664-5.026.657 5.026 8.701.382-8.701.377-.657 5.025-.664-5.025-8.7-.377z" style="fill:#fff;fill-opacity:1"/></svg>