<svg xmlns="http://www.w3.org/2000/svg" width="257" height="256" fill="none"><path stroke="#D5D5D5" d="M47.06 222.837c-22.474-11.768-33.56-27.116-33.56-42.333s11.084-30.568 33.56-42.341C69.524 126.397 99 120.5 128.502 120.5c29.503 0 58.977 5.897 81.439 17.663 22.473 11.773 33.558 27.122 33.559 42.337s-11.083 30.564-33.559 42.337C187.476 234.603 158.002 240.5 128.5 240.5s-58.976-5.897-81.44-17.663Z" style="stroke:#d5d5d5;stroke:color(display-p3 .8353 .8353 .8353);stroke-opacity:1"/><path fill="#F0F0F0" d="M48.05 199.032a1.79 1.79 0 0 1-.758-1.848l18.156-80.353a3.34 3.34 0 0 1 1.387-1.89L174.867 52.58a2.38 2.38 0 0 1 2.151-.036 1.79 1.79 0 0 1 .742 1.838l-18.16 80.353a3.33 3.33 0 0 1-1.393 1.889L50.201 198.986a2.38 2.38 0 0 1-2.15.046" style="fill:#f0f0f0;fill:color(display-p3 .9412 .9412 .9412);fill-opacity:1"/><path fill="#E6E6E6" d="m67.526 118.018-18.155 80.384c-.154.686.215.963.83.61l108.031-62.362a3.32 3.32 0 0 0 1.393-1.889l18.135-80.38c.153-.69-.215-.962-.83-.608L68.898 116.134a3.34 3.34 0 0 0-1.372 1.884" style="fill:#e6e6e6;fill:color(display-p3 .902 .902 .902);fill-opacity:1"/><path fill="#F0F0F0" d="M179.077 53.731a2.38 2.38 0 0 0-2.151.041L68.894 116.134a2.05 2.05 0 0 0-.927 1.905l14.219 99.527a2.89 2.89 0 0 0 1.223 1.869 2.35 2.35 0 0 0 2.146-.041l108.011-62.346a2.04 2.04 0 0 0 .927-1.91L180.321 55.6a2.88 2.88 0 0 0-1.244-1.869" style="fill:#f0f0f0;fill:color(display-p3 .9412 .9412 .9412);fill-opacity:1"/><path fill="#FAFAFA" d="m70.066 119.242 14.198 99.528a.805.805 0 0 0 .884.784.8.8 0 0 0 .406-.16l108.012-62.346a2.051 2.051 0 0 0 .926-1.91L180.32 55.6a.806.806 0 0 0-1.29-.63L70.998 117.333a2.05 2.05 0 0 0-.932 1.91" style="fill:#fafafa;fill:color(display-p3 .9804 .9804 .9804);fill-opacity:1"/><path fill="#E0E0E0" d="m49.469 197.952 27.648-15.97.804 5.786-12.678 7.322s-3.379 1.198-4.72 1.536c-1.342.338-11.054 1.326-11.054 1.326" style="fill:#e0e0e0;fill:color(display-p3 .8784 .8784 .8784);fill-opacity:1"/><path fill="#E6E6E6" d="m77.936 187.773 4.147 29.082-16.824-21.76z" style="fill:#e6e6e6;fill:color(display-p3 .902 .902 .902);fill-opacity:1"/><path fill="#E0E0E0" d="m81.586 217.822-15.079-19.584a2.42 2.42 0 0 0-2.048-.834l-14.1 2.048a4.15 4.15 0 0 1-2.31-.42c-.573-.328-.475-.707.216-.84l16.205-3.118a2.23 2.23 0 0 1 2.047.783L83.685 219c.42.568.297.758-.277.425a7.4 7.4 0 0 1-1.822-1.603" style="fill:#e0e0e0;fill:color(display-p3 .8784 .8784 .8784);fill-opacity:1"/><path fill="#F7921E" d="M177.786 53.987a1.76 1.76 0 0 0-.789-1.454 2.4 2.4 0 0 0-2.15.041L66.815 114.936a3 3 0 0 0-.845.788c-.254.327-.44.701-.548 1.101l-2.56 11.351 2.079 1.193L175.2 65.727l2.56-11.346q.037-.196.031-.394z" style="fill:#f7921e;fill:color(display-p3 .9686 .5725 .1176);fill-opacity:1"/><path fill="#000" d="M177.76 54.382c.154-.691-.215-.963-.829-.61L68.899 116.135a3.34 3.34 0 0 0-1.388 1.884l-2.56 11.351L175.2 65.728z" opacity=".2" style="fill:#000;fill-opacity:1"/><path fill="#000" d="M68.07 116.922a3 3 0 0 0-.544 1.096l-2.56 11.351-2.078-1.198 2.56-11.351c.108-.4.294-.774.548-1.101z" opacity=".1" style="fill:#000;fill-opacity:1"/><path fill="#fff" d="M177.785 53.982c-.051-.384-.384-.512-.86-.21L68.893 116.13a2.9 2.9 0 0 0-.845.793l-2.078-1.203a3 3 0 0 1 .844-.788l108.033-62.362a2.4 2.4 0 0 1 2.15-.04 1.75 1.75 0 0 1 .788 1.453" opacity=".4" style="fill:#fff;fill-opacity:1"/><path fill="#F7921E" d="m180.428 56.553-.108-.953a2 2 0 0 0-.03-.138.1.1 0 0 0 0-.041 2.9 2.9 0 0 0-1.183-1.69 2.38 2.38 0 0 0-2.151.041L68.924 116.134a1.9 1.9 0 0 0-.742.85c-.16.327-.224.693-.184 1.055l2.048 14.259 2.078 1.203 110.208-63.636z" style="fill:#f7921e;fill:color(display-p3 .9686 .5725 .1176);fill-opacity:1"/><path fill="#000" d="m72.104 133.496-2.079-1.203-2.048-14.259c-.04-.362.025-.728.184-1.055l2.084 1.198c-.163.326-.23.692-.19 1.055z" opacity=".1" style="fill:#000;fill-opacity:1"/><path fill="#fff" d="M180.259 55.421a.79.79 0 0 0-.89-.604.8.8 0 0 0-.359.153L70.978 117.332a1.9 1.9 0 0 0-.743.85l-2.043-1.198a1.96 1.96 0 0 1 .743-.855l108.032-62.357a2.37 2.37 0 0 1 2.15-.04c.574.405.98 1.005 1.142 1.689" opacity=".4" style="fill:#fff;fill-opacity:1"/><path fill="#F7921E" d="m100.781 202.278-1.29-9.068a.644.644 0 0 0-1.024-.512l-9.415 5.438a1.63 1.63 0 0 0-.743 1.536l1.285 9.088a.64.64 0 0 0 .698.637.64.64 0 0 0 .326-.125l9.416-5.438a1.62 1.62 0 0 0 .747-1.556" style="fill:#f7921e;fill:color(display-p3 .9686 .5725 .1176);fill-opacity:1"/><path fill="#EBEBEB" d="m115.342 193.881-1.295-9.062a.65.65 0 0 0-.354-.573.637.637 0 0 0-.67.061l-9.416 5.432a1.64 1.64 0 0 0-.743 1.536l1.296 9.068a.64.64 0 0 0 .354.572.64.64 0 0 0 .67-.06l9.416-5.438a1.62 1.62 0 0 0 .742-1.536M129.904 185.484l-1.296-9.062a.64.64 0 0 0-.697-.637.64.64 0 0 0-.327.125l-9.42 5.443a1.633 1.633 0 0 0-.743 1.536l1.295 9.067a.642.642 0 0 0 1.024.512l9.416-5.437a1.628 1.628 0 0 0 .748-1.547M144.48 177.093l-1.295-9.068a.63.63 0 0 0-.354-.572.64.64 0 0 0-.67.06l-9.457 5.448a1.62 1.62 0 0 0-.742 1.536l1.295 9.062a.64.64 0 0 0 .354.573.637.637 0 0 0 .67-.061l9.416-5.432a1.64 1.64 0 0 0 .783-1.546M159.026 168.696l-1.295-9.088a.63.63 0 0 0-.354-.572.636.636 0 0 0-.67.06l-9.416 5.437a1.63 1.63 0 0 0-.742 1.536l1.295 9.063a.63.63 0 0 0 .354.572.64.64 0 0 0 .67-.06l9.436-5.422a1.634 1.634 0 0 0 .722-1.526M173.588 160.299l-1.296-9.067a.65.65 0 0 0-.354-.573.64.64 0 0 0-.67.061l-9.415 5.437a1.62 1.62 0 0 0-.743 1.536l1.29 9.083a.643.643 0 0 0 .698.637.64.64 0 0 0 .326-.125l9.416-5.438a1.62 1.62 0 0 0 .748-1.551M188.149 151.928l-1.296-9.068a.64.64 0 0 0-.353-.572.64.64 0 0 0-.671.06l-9.415 5.438a1.63 1.63 0 0 0-.743 1.536l1.291 9.067a.64.64 0 0 0 .356.567.64.64 0 0 0 .668-.055l9.415-5.437a1.63 1.63 0 0 0 .748-1.536" style="fill:#ebebeb;fill:color(display-p3 .9216 .9216 .9216);fill-opacity:1"/><path fill="#F7921E" d="m98.251 184.537-1.295-9.057a.643.643 0 0 0-.698-.633.65.65 0 0 0-.326.121l-9.416 5.437a1.63 1.63 0 0 0-.742 1.536l1.29 9.068a.644.644 0 0 0 1.024.512l9.416-5.437a1.66 1.66 0 0 0 .747-1.547" style="fill:#f7921e;fill:color(display-p3 .9686 .5725 .1176);fill-opacity:1"/><path fill="#EBEBEB" d="m112.813 176.14-1.295-9.067a.644.644 0 0 0-1.024-.512l-9.416 5.437a1.63 1.63 0 0 0-.743 1.536l1.291 9.068a.644.644 0 0 0 1.024.512l9.415-5.438c.253-.163.457-.393.589-.663.131-.271.186-.573.159-.873M127.374 167.744l-1.295-9.068a.644.644 0 0 0-1.024-.512l-9.416 5.437a1.64 1.64 0 0 0-.742 1.536l1.29 9.068a.644.644 0 0 0 1.024.512l9.416-5.437a1.65 1.65 0 0 0 .747-1.536M141.921 159.347l-1.296-9.068a.644.644 0 0 0-1.024-.512l-9.405 5.448a1.63 1.63 0 0 0-.743 1.536l1.291 9.068a.64.64 0 0 0 .099.333.643.643 0 0 0 .925.179l9.415-5.438a1.65 1.65 0 0 0 .738-1.546M156.496 150.95l-1.295-9.062a.65.65 0 0 0-.354-.573.64.64 0 0 0-.67.061l-9.421 5.432a1.64 1.64 0 0 0-.742 1.536l1.29 9.067a.65.65 0 0 0 .357.567.64.64 0 0 0 .667-.055l9.416-5.447a1.65 1.65 0 0 0 .752-1.526M171.058 142.553l-1.295-9.057a.64.64 0 0 0-1.024-.512l-9.411 5.443a1.62 1.62 0 0 0-.742 1.536l1.29 9.062a.644.644 0 0 0 1.024.512l9.416-5.438a1.64 1.64 0 0 0 .742-1.546M185.62 134.162l-1.295-9.068a.643.643 0 0 0-.698-.637.64.64 0 0 0-.326.125l-9.421 5.438a1.63 1.63 0 0 0-.738 1.536l1.291 9.062a.644.644 0 0 0 1.024.512l9.415-5.432a1.66 1.66 0 0 0 .748-1.536" style="fill:#ebebeb;fill:color(display-p3 .9216 .9216 .9216);fill-opacity:1"/><path fill="#F7921E" d="m95.718 166.776-1.29-9.068a.643.643 0 0 0-.699-.633.65.65 0 0 0-.326.121l-9.426 5.484a1.64 1.64 0 0 0-.742 1.536l1.295 9.062a.641.641 0 0 0 1.024.512l9.421-5.478a1.64 1.64 0 0 0 .743-1.536" style="fill:#f7921e;fill:color(display-p3 .9686 .5725 .1176);fill-opacity:1"/><path fill="#EBEBEB" d="m110.279 158.4-1.291-9.068a.644.644 0 0 0-1.024-.512l-9.415 5.438a1.64 1.64 0 0 0-.743 1.536l1.296 9.067a.643.643 0 0 0 .698.633.65.65 0 0 0 .326-.121l9.415-5.437a1.63 1.63 0 0 0 .738-1.536M124.84 150.003l-1.29-9.068a.644.644 0 0 0-1.024-.512l-9.416 5.438a1.65 1.65 0 0 0-.742 1.536l1.295 9.067a.65.65 0 0 0 .356.567.64.64 0 0 0 .668-.055l9.416-5.437a1.63 1.63 0 0 0 .737-1.536M139.401 141.606l-1.29-9.068a.644.644 0 0 0-1.024-.512l-9.416 5.438a1.65 1.65 0 0 0-.742 1.536l1.295 9.067a.644.644 0 0 0 1.024.512l9.416-5.437a1.63 1.63 0 0 0 .737-1.536M153.962 133.209l-1.29-9.067a.64.64 0 0 0-.357-.567.64.64 0 0 0-.667.055l-9.416 5.437a1.65 1.65 0 0 0-.742 1.536l1.295 9.068a.644.644 0 0 0 1.024.512l9.416-5.438a1.63 1.63 0 0 0 .737-1.536M168.544 124.792l-1.29-9.068a.644.644 0 0 0-1.024-.512l-9.462 5.484a1.65 1.65 0 0 0-.742 1.536l1.295 9.067a.645.645 0 0 0 1.024.512l9.436-5.483a1.63 1.63 0 0 0 .763-1.536M183.085 116.416l-1.29-9.063a.644.644 0 0 0-1.024-.512l-9.416 5.433a1.64 1.64 0 0 0-.742 1.536l1.295 9.067a.65.65 0 0 0 .357.567.64.64 0 0 0 .667-.055l9.436-5.447a1.62 1.62 0 0 0 .717-1.526" style="fill:#ebebeb;fill:color(display-p3 .9216 .9216 .9216);fill-opacity:1"/><path fill="#F7921E" d="m93.188 149.051-1.296-9.063a.64.64 0 0 0-.697-.637.64.64 0 0 0-.327.125l-9.415 5.432a1.64 1.64 0 0 0-.743 1.536l1.306 9.068a.64.64 0 0 0 .697.637.64.64 0 0 0 .327-.125l9.415-5.437a1.63 1.63 0 0 0 .733-1.536" style="fill:#f7921e;fill:color(display-p3 .9686 .5725 .1176);fill-opacity:1"/><path fill="#EBEBEB" d="m107.75 140.664-1.296-9.063a.64.64 0 0 0-.353-.572.64.64 0 0 0-.671.06l-9.415 5.438a1.62 1.62 0 0 0-.743 1.536l1.296 9.062a.64.64 0 0 0 .697.638.64.64 0 0 0 .327-.126l9.415-5.437a1.62 1.62 0 0 0 .743-1.536M122.31 132.262l-1.295-9.067a.64.64 0 0 0-.354-.573.637.637 0 0 0-.67.061l-9.416 5.437a1.62 1.62 0 0 0-.742 1.536l1.295 9.062a.64.64 0 0 0 .354.573.637.637 0 0 0 .67-.061l9.416-5.432a1.64 1.64 0 0 0 .742-1.536M136.872 123.865l-1.296-9.067a.65.65 0 0 0-.353-.573.644.644 0 0 0-.671.061l-9.415 5.437a1.624 1.624 0 0 0-.743 1.536l1.291 9.068a.644.644 0 0 0 1.024.512l9.415-5.438a1.63 1.63 0 0 0 .748-1.536M151.433 115.469l-1.295-9.068a.63.63 0 0 0-.354-.572.64.64 0 0 0-.67.06l-9.416 5.438a1.62 1.62 0 0 0-.742 1.536l1.29 9.067a.65.65 0 0 0 .357.567.64.64 0 0 0 .667-.055l9.416-5.437a1.64 1.64 0 0 0 .747-1.536M165.984 107.071l-1.296-9.067a.64.64 0 0 0-.353-.573.64.64 0 0 0-.671.06l-9.415 5.438a1.63 1.63 0 0 0-.743 1.536l1.296 9.063a.644.644 0 0 0 1.024.512l9.415-5.438a1.62 1.62 0 0 0 .743-1.531M180.556 98.68l-1.295-9.068a.64.64 0 0 0-.354-.572.64.64 0 0 0-.67.06l-9.416 5.438a1.63 1.63 0 0 0-.742 1.536l1.29 9.067a.64.64 0 0 0 .356.567.64.64 0 0 0 .668-.055l9.416-5.437a1.63 1.63 0 0 0 .747-1.536" style="fill:#ebebeb;fill:color(display-p3 .9216 .9216 .9216);fill-opacity:1"/><path fill="#E6E6E6" d="m90.95 133.025-.327-2.314a.641.641 0 0 0-1.024-.512l-9.42 5.447a1.63 1.63 0 0 0-.743 1.536l.323 2.314a.645.645 0 0 0 1.024.512l9.426-5.457a1.65 1.65 0 0 0 .742-1.526M105.511 124.628l-.327-2.314a.64.64 0 0 0-1.024-.512l-9.421 5.448a1.63 1.63 0 0 0-.742 1.536l.322 2.314a.643.643 0 0 0 .698.633.65.65 0 0 0 .326-.121l9.421-5.438a1.64 1.64 0 0 0 .747-1.546M120.073 116.232l-.328-2.315a.644.644 0 0 0-1.024-.512l-9.42 5.448a1.63 1.63 0 0 0-.743 1.536l.323 2.314a.65.65 0 0 0 .353.573.637.637 0 0 0 .671-.061l9.42-5.437a1.64 1.64 0 0 0 .748-1.546M134.635 107.84l-.328-2.32a.644.644 0 0 0-1.024-.512l-9.421 5.448a1.62 1.62 0 0 0-.742 1.536l.322 2.314a.64.64 0 0 0 .354.573.637.637 0 0 0 .67-.061l9.421-5.432a1.66 1.66 0 0 0 .748-1.546M149.196 99.443l-.328-2.32a.645.645 0 0 0-1.024-.512l-9.421 5.448a1.64 1.64 0 0 0-.742 1.536l.322 2.314a.65.65 0 0 0 .354.573.646.646 0 0 0 .67-.061l9.421-5.432a1.65 1.65 0 0 0 .748-1.546M163.757 91.046l-.327-2.314a.64.64 0 0 0-.354-.573.64.64 0 0 0-.67.06l-9.421 5.443a1.64 1.64 0 0 0-.743 1.536l.323 2.32a.646.646 0 0 0 1.024.512l9.421-5.438a1.65 1.65 0 0 0 .747-1.546M178.313 82.65l-.322-2.315a.65.65 0 0 0-.354-.572.64.64 0 0 0-.67.06l-9.416 5.438a1.62 1.62 0 0 0-.743 1.536l.323 2.314a.646.646 0 0 0 1.024.512l9.421-5.437a1.637 1.637 0 0 0 .737-1.536" style="fill:#e6e6e6;fill:color(display-p3 .902 .902 .902);fill-opacity:1"/><path fill="#000" d="M79.969 119.355a3.72 3.72 0 0 1 1.76-3.42c1.148-.661 2.218-.205 2.397 1.024a3.7 3.7 0 0 1-1.766 3.42c-1.142.66-2.212.204-2.391-1.024M94.545 110.968a3.71 3.71 0 0 1 1.761-3.42c1.147-.666 2.218-.21 2.397 1.024a3.7 3.7 0 0 1-1.767 3.415c-1.147.64-2.217.184-2.39-1.019M109.091 102.546a3.713 3.713 0 0 1 1.761-3.42c1.147-.666 2.222-.21 2.397 1.023a3.71 3.71 0 0 1-1.762 3.415c-1.147.661-2.222.205-2.396-1.018M138.203 85.737a3.71 3.71 0 0 1 1.762-3.42c1.147-.661 2.217-.205 2.391 1.023a3.69 3.69 0 0 1-1.762 3.42c-1.146.656-2.217.205-2.391-1.023M152.774 77.33a3.7 3.7 0 0 1 1.761-3.421c1.147-.666 2.217-.21 2.397 1.024a3.704 3.704 0 0 1-1.767 3.42c-1.147.656-2.217.2-2.391-1.024M167.321 68.928a3.698 3.698 0 0 1 1.761-3.42c1.147-.666 2.222-.21 2.396 1.024a3.7 3.7 0 0 1-1.761 3.415c-1.173.66-2.197.204-2.396-1.02" opacity=".2" style="fill:#000;fill-opacity:1"/><path fill="#F5F5F5" d="M78.463 105.52c-1.536-.896-3.041-1.024-4.188-.363-1.147.66-1.782 2.012-1.782 3.809.01.841.134 1.676.369 2.483l.911-.512a8.2 8.2 0 0 1-.256-1.961c0-1.413.45-2.452 1.27-2.923a2.2 2.2 0 0 1 1.1-.277 4.25 4.25 0 0 1 2.049.64c2.724 1.577 4.94 5.417 4.94 8.561q.003.336-.035.671a2.83 2.83 0 0 1-1.23 2.252 2.35 2.35 0 0 1-1.535.246 2.9 2.9 0 0 0-.128 1.024q.288.046.578.046a3.14 3.14 0 0 0 1.608-.42 3.62 3.62 0 0 0 1.674-2.631q.105-.585.103-1.178c.005-3.507-2.442-7.731-5.448-9.467M93.034 97.113c-1.536-.896-3.04-1.024-4.188-.364-1.147.661-1.782 2.013-1.782 3.81.01.84.135 1.676.37 2.483l.91-.512a8.2 8.2 0 0 1-.255-1.961c0-1.413.45-2.452 1.27-2.924a2.2 2.2 0 0 1 1.1-.276 4.25 4.25 0 0 1 2.048.64c2.724 1.577 4.94 5.417 4.94 8.561a6 6 0 0 1-.035.67 2.83 2.83 0 0 1-1.229 2.253c-.47.254-1.01.34-1.536.246a2.9 2.9 0 0 0-.128 1.024q.287.046.579.046a3.14 3.14 0 0 0 1.607-.42 3.63 3.63 0 0 0 1.675-2.632q.103-.583.102-1.177c.005-3.492-2.442-7.731-5.448-9.467M107.58 88.712c-1.536-.896-3.041-1.024-4.188-.364s-1.782 2.012-1.782 3.81c.01.84.134 1.675.369 2.483l.911-.513a8.3 8.3 0 0 1-.256-1.96c0-1.414.451-2.453 1.27-2.924a2.2 2.2 0 0 1 1.101-.276 4.25 4.25 0 0 1 2.048.64c2.724 1.576 4.941 5.416 4.941 8.56a6 6 0 0 1-.036.67 2.837 2.837 0 0 1-1.229 2.253 2.36 2.36 0 0 1-1.536.247 2.9 2.9 0 0 0-.128 1.024q.287.045.579.046a3.13 3.13 0 0 0 1.607-.42 3.63 3.63 0 0 0 1.675-2.632q.103-.585.102-1.177c.005-3.492-2.442-7.732-5.448-9.467M136.697 71.928c-1.536-.896-3.041-1.024-4.188-.364s-1.781 2.013-1.781 3.81c.01.84.134 1.676.368 2.483l.912-.512a8.2 8.2 0 0 1-.256-1.961c0-1.413.45-2.453 1.269-2.924a2.2 2.2 0 0 1 1.101-.276 4.25 4.25 0 0 1 2.048.64c2.724 1.577 4.941 5.417 4.941 8.56a6 6 0 0 1-.036.671 2.822 2.822 0 0 1-1.229 2.253 2.36 2.36 0 0 1-1.536.246c-.103.33-.146.678-.128 1.024q.288.046.579.046a3.13 3.13 0 0 0 1.607-.42 3.63 3.63 0 0 0 1.675-2.632q.103-.583.102-1.177c.005-3.492-2.442-7.731-5.448-9.467M151.27 63.516c-1.536-.896-3.042-1.024-4.188-.364-1.147.66-1.782 2.013-1.782 3.81.01.84.134 1.675.368 2.483l.912-.512a8.2 8.2 0 0 1-.256-1.961c0-1.413.45-2.453 1.27-2.924a2.2 2.2 0 0 1 1.1-.276 4.25 4.25 0 0 1 2.048.64c2.724 1.577 4.941 5.417 4.941 8.56a5 5 0 0 1-.036.671 2.82 2.82 0 0 1-1.228 2.253c-.47.254-1.011.34-1.536.246a2.9 2.9 0 0 0-.128 1.024q.287.046.578.046a3.14 3.14 0 0 0 1.608-.42 3.64 3.64 0 0 0 1.674-2.632q.103-.583.102-1.177c.006-3.487-2.442-7.732-5.447-9.467M165.815 55.114c-1.536-.896-3.041-1.024-4.188-.364s-1.787 2.012-1.787 3.81c.01.84.134 1.675.368 2.482l.912-.511a8.2 8.2 0 0 1-.256-1.962c0-1.413.45-2.452 1.27-2.923a2.2 2.2 0 0 1 1.1-.276 4.25 4.25 0 0 1 2.048.64c2.724 1.577 4.941 5.416 4.941 8.56a5 5 0 0 1-.036.67 2.82 2.82 0 0 1-1.228 2.253c-.47.254-1.011.34-1.536.246a2.9 2.9 0 0 0-.128 1.024q.287.046.578.046a3.14 3.14 0 0 0 1.608-.42 3.64 3.64 0 0 0 1.674-2.631q.104-.585.102-1.178c.011-3.491-2.437-7.73-5.442-9.466" style="fill:#f5f5f5;fill:color(display-p3 .9608 .9608 .9608);fill-opacity:1"/><path fill="#B16668" d="m154.359 213.426 2.775-5.474 5.591 3.272-6.871 8.136s-3.415-.313-3.968-2.094c-.553-1.782 1.531-3.246 2.473-3.84" style="fill:#b16668;fill:color(display-p3 .6941 .4 .4078);fill-opacity:1"/><path fill="#263238" d="M150.416 215.576a2.9 2.9 0 0 0-.773.845c-.226.333-.154 1.956-.369 2.708s-.384.953-.742 1.895c-.395 1.024-1.132 1.996-.302 4.679s2.165 3.963 3.292 4.608c.418.216.881.328 1.351.328 0 0 1.475-.558 1.25-1.429-.226-.87-3.707-13.634-3.707-13.634" style="fill:#263238;fill:color(display-p3 .149 .1961 .2196);fill-opacity:1"/><path fill="#455A64" d="M156.878 218.546c-.14.34-.337.654-.584.926a7.4 7.4 0 0 0-.952 2.658c-.871 4.249.819 6.405-1.47 7.997-.66.42-2.048.307-4.096-2.37-1.065-1.368-1.674-4.178-1.259-5.453s.983-2.105 1.254-3.072c.272-.968.128-2.806.666-3.646.35-.472.802-.86 1.321-1.136.409-.246 1.295-.569 1.71-.804s.64-.512.906-.205l-.476.589c-.748 1.024-.538 1.183-.512 1.736a8.7 8.7 0 0 1-.276 1.745c.512-.665.747-1.254 1.326-1.146.578.107.645.071 1.474.849.83.779 1.009 1.06.968 1.332" style="fill:#455a64;fill:color(display-p3 .2706 .3529 .3922);fill-opacity:1"/><path fill="#37474F" d="M149.756 227.762c-1.065-1.367-1.674-4.178-1.26-5.453q.22-.632.512-1.234c0 .087-.046.174-.056.246 0 .164-.051.333-.067.512a3.8 3.8 0 0 0 .216 1.93c.24.512.793 1.853 1.51 1.884.404 0 .742-.379.901-.829.067-.195.174-.707.174-.707a6.3 6.3 0 0 1 1.859.758c1.024.686 1.024.834 1.024.834-.064.3-.076.608-.036.912.061.326.192.635.384.906q.12.12.266.21a2.74 2.74 0 0 1-1.259 2.417c-.707.399-2.079.286-4.168-2.386" style="fill:#37474f;fill:color(display-p3 .2157 .2784 .3098);fill-opacity:1"/><path fill="#37474F" d="M155.341 222.13a14.4 14.4 0 0 0-.266 3.394c-.389 1.091-.732 1.055-.778.512s.701-2.903 1.259-4.833a30 30 0 0 0-.215.927M152.782 215.32a2.36 2.36 0 0 1 .415-1.536l.276-.138c.446-.256.64-.512.906-.205l-.476.589c-.747 1.024-.537 1.182-.512 1.735a8.6 8.6 0 0 1-.276 1.746c-.436 1.844-.83 2.463-1.024 4.204s.148 2.913-.098 3.01c-.245.098-.742-.097-.834-1.495-.092-1.397.512-3.742.957-4.853.446-1.111.732-2.31.666-3.057" style="fill:#37474f;fill:color(display-p3 .2157 .2784 .3098);fill-opacity:1"/><path fill="#EBEBEB" d="M151.542 224.208a.17.17 0 0 0 .087.052 4.17 4.17 0 0 1 2.785 1.628.18.18 0 0 0 .123.051.18.18 0 0 0 .123-.051.17.17 0 0 0 .053-.123.167.167 0 0 0-.053-.123 4.5 4.5 0 0 0-2.974-1.746.2.2 0 0 0-.069 0 .19.19 0 0 0-.111.075.2.2 0 0 0-.025.063.15.15 0 0 0 .061.174M151.758 222.759a.15.15 0 0 0 .087.046 4.64 4.64 0 0 1 2.929 1.782.2.2 0 0 0 .058.04.185.185 0 0 0 .198-.04.18.18 0 0 0 0-.251 5 5 0 0 0-3.124-1.899.17.17 0 0 0-.131.024.18.18 0 0 0-.079.109.2.2 0 0 0 .003.104.2.2 0 0 0 .059.085M151.758 221.157a.2.2 0 0 0 .092.056 5.3 5.3 0 0 1 3.282 1.997.2.2 0 0 0 .134.067.2.2 0 0 0 .142-.047.195.195 0 0 0 .021-.276 5.7 5.7 0 0 0-3.487-2.125.2.2 0 0 0-.125.01.19.19 0 0 0-.116.206.2.2 0 0 0 .057.112M151.963 219.79a.2.2 0 0 0 .092.056 5.15 5.15 0 0 1 3.205 1.951.193.193 0 0 0 .269.016.2.2 0 0 0 .067-.128.2.2 0 0 0-.039-.139 5.58 5.58 0 0 0-3.415-2.079.2.2 0 0 0-.144.025.2.2 0 0 0-.087.118.2.2 0 0 0 .003.097q.013.047.049.083M152.464 218.459a.2.2 0 0 0 .092.056 5.15 5.15 0 0 1 3.205 1.951.2.2 0 0 0 .058.059.2.2 0 0 0 .234-.015.2.2 0 0 0 .049-.067.2.2 0 0 0 .018-.081.2.2 0 0 0-.017-.081.2.2 0 0 0-.05-.066 5.56 5.56 0 0 0-3.41-2.079.193.193 0 0 0-.23.149.18.18 0 0 0 .051.174" style="fill:#ebebeb;fill:color(display-p3 .9216 .9216 .9216);fill-opacity:1"/><path fill="#B16668" d="m155.864 213.866 3.619 2.959 2.048 1.28-2.334 4.419-6.585-3.149z" style="fill:#b16668;fill:color(display-p3 .6941 .4 .4078);fill-opacity:1"/><path fill="#F7921E" d="M148.491 194.103s13.174-2.181 18.811-2.146c5.749.036 6.287 4.352 4.843 7-2.754 5.063-12.339 15.805-12.339 15.805s-3.215-1.475-4.204-4.26l2.187-5.012-6.882 2.201-3.512-2.355-.287-1.792z" style="fill:#f7921e;fill:color(display-p3 .9686 .5725 .1176);fill-opacity:1"/><path fill="#000" d="M148.491 194.103s13.174-2.181 18.811-2.146c5.749.036 6.287 4.352 4.843 7-2.754 5.063-12.339 15.805-12.339 15.805s-3.215-1.475-4.204-4.26l2.187-5.012-6.882 2.201-3.512-2.355-.287-1.792z" opacity=".4" style="fill:#000;fill-opacity:1"/><path fill="#F7921E" d="m148.491 194.103-22.805 3.799s-.225 5.458 1.92 10.347a11.15 11.15 0 0 0 8.53 6.513 64 64 0 0 0 6.902.563 17.2 17.2 0 0 0 3.584 2.12c1.813.722 9.759 4.05 9.759 4.05s2.227-1.889 2.007-5.827l-7.48-7.977c-1.695-2.048-2.294-2.734-3.236-3.205 1.449-2.795.978-7.301.819-10.383" style="fill:#f7921e;fill:color(display-p3 .9686 .5725 .1176);fill-opacity:1"/><path fill="#000" d="m148.491 194.103-22.805 3.799s-.225 5.458 1.92 10.347a11.15 11.15 0 0 0 8.53 6.513 64 64 0 0 0 6.902.563 17.2 17.2 0 0 0 3.584 2.12c1.813.722 9.759 4.05 9.759 4.05s2.227-1.889 2.007-5.827l-7.48-7.977c-1.695-2.048-2.294-2.734-3.236-3.205 1.449-2.795.978-7.301.819-10.383" opacity=".3" style="fill:#000;fill-opacity:1"/><g fill="#000" opacity=".3"><path d="M158.926 201.225a50 50 0 0 0-2.908 4.828l1.761-.563c1.976-4.716 2.386-6.093 5.55-8.305.01 0-2.258.881-4.403 4.04M141.358 212.678s-.03 1.157 1.68 2.647a17.2 17.2 0 0 0 3.584 2.12c1.812.722 9.759 4.05 9.759 4.05s.43-.2 1.024-1.367c-2.048-.487-8.817-3.134-11.003-4.06-3.861-1.649-5.044-3.39-5.044-3.39M149.776 206.355c.768.901 1.131 1.336 1.131 1.336l1.101-.358s-1.95-2.125-3.21-3.241a4.3 4.3 0 0 0-.722-.568c.635-1.664.615-4.404.615-4.404a8.85 8.85 0 0 1-1.664 4.004 7.3 7.3 0 0 0-3.165-.036c-2.211.369-8.601 1.454-8.601 1.454s6.144-.547 9.318-.67c3.175-.123 4.429 1.582 5.197 2.483" style="fill:#000;fill-opacity:1"/></g><path fill="#263238" d="M169.831 220.409c1.536.61 2.504 1.229 3.221 2.161.716.932.937 1.884.256 3.016-.681 1.131-1.931 2.468-3.415 2.381a8.1 8.1 0 0 1-3.774-1.204z" style="fill:#263238;fill:color(display-p3 .149 .1961 .2196);fill-opacity:1"/><path fill="#455A64" d="M157.446 221.72c0 .466 1.936 1.393 3.973 2.36 2.176 1.024 2.714 1.716 4.491 2.591 2.048 1.024 2.805 1.06 4.382.62s3.528-2.694 2.171-4.772c-1.106-1.69-2.56-2.156-4.71-2.729a40 40 0 0 1-5.079-1.644c-1.572-.609-2.862-1.705-3.19-1.321.225.108 1.869 1.122 1.536 1.398-.077.138-.312.097-.712-.072a.67.67 0 0 0-.563-.025 1.07 1.07 0 0 0-.409.486q-.29.608-.512 1.244c-.118.287-.072.123-.185.41a3.2 3.2 0 0 0-.333 1.111c0 .179.149.241.287.328q.238.133.461.292c.051.04.143.174.118.24-.026.067-.333.062-.451 0-.118-.061-.317-.097-.461-.148-.143-.052-.45-.2-.814-.369" style="fill:#455a64;fill:color(display-p3 .2706 .3529 .3922);fill-opacity:1"/><path fill="#37474F" d="M165.213 226.338c.292.144 2.14 1.024 2.719.487.578-.538-.855-1.444-.855-1.444s-.226-1.393 1.454-3.441c.291.231 1.505.215 1.49-.512-.016-.727-2.048-1.592-2.079-1.602 2.079.558 3.446 1.024 4.521 2.677 1.357 2.079-.589 4.337-2.171 4.772s-2.35.384-4.383-.619a7 7 0 0 1-.696-.318" style="fill:#37474f;fill:color(display-p3 .2157 .2784 .3098);fill-opacity:1"/><path fill="#37474F" d="M167.276 225.242c.768.256.241.958-.886.733-1.689-.343-3.072-1.301-4.971-1.895-2.048-.967-4.096-1.874-3.973-2.386a38 38 0 0 1 1.141.461l.548.21c1.536.666 3.241 1.736 4.91 2.186 1.47.4 2.463.435 3.231.691M168.418 222.206c-.702-.409-.825-.757-2.207-1.392s-3.717-1.992-5.161-2.832a19 19 0 0 1-1.567-1.157c.241-.276 1.122 0 2.002.512.881.512 1.419.907 2.289 1.362 1.695 1.024 3.63 1.705 4.608 2.33.978.624.742 1.613.036 1.177" style="fill:#37474f;fill:color(display-p3 .2157 .2784 .3098);fill-opacity:1"/><path fill="#F0F0F0" d="M168.526 222.017a.3.3 0 0 1-.041.066 6.14 6.14 0 0 0-1.321 3.405.211.211 0 0 1-.19.195.18.18 0 0 1-.123-.065.2.2 0 0 1-.032-.064.2.2 0 0 1-.004-.071 6.46 6.46 0 0 1 1.434-3.666.2.2 0 0 1 .056-.043.17.17 0 0 1 .139 0q.032.016.056.043a.2.2 0 0 1 .039.097q.006.053-.013.103M167.158 221.024l-.041.082a8.4 8.4 0 0 0-1.633 4.024.204.204 0 0 1-.2.184.173.173 0 0 1-.148-.204 8.7 8.7 0 0 1 1.735-4.26.2.2 0 0 1 .057-.041.17.17 0 0 1 .138 0 .15.15 0 0 1 .056.041.2.2 0 0 1 .038.083.2.2 0 0 1-.002.091M164.148 224.961a.21.21 0 0 1-.164.123.17.17 0 0 1-.127-.053.16.16 0 0 1-.042-.132 10.1 10.1 0 0 1 1.746-4.864.2.2 0 0 1 .055-.041.17.17 0 0 1 .135 0q.032.015.055.041a.21.21 0 0 1 0 .277s-1.536 2.278-1.623 4.577a.2.2 0 0 1-.035.072M162.883 224.178a.19.19 0 0 1-.159.122.17.17 0 0 1-.126-.051.2.2 0 0 1-.038-.059.2.2 0 0 1-.01-.069 7.3 7.3 0 0 1 1.843-4.608.2.2 0 0 1 .056-.041.17.17 0 0 1 .135 0q.032.015.055.041a.221.221 0 0 1-.031.277 7 7 0 0 0-1.705 4.306.14.14 0 0 1-.02.082" style="fill:#f0f0f0;fill:color(display-p3 .9412 .9412 .9412);fill-opacity:1"/><path fill="#EBEBEB" d="M161.244 223.461a.19.19 0 0 1-.153.123.17.17 0 0 1-.166-.11q-.012-.034-.008-.07a7.58 7.58 0 0 1 1.894-4.633.15.15 0 0 1 .056-.041.16.16 0 0 1 .134 0 .14.14 0 0 1 .056.041.2.2 0 0 1 .039.14.2.2 0 0 1-.065.131s-1.756 1.941-1.766 4.327a.16.16 0 0 1-.021.092" style="fill:#ebebeb;fill:color(display-p3 .9216 .9216 .9216);fill-opacity:1"/><path fill="#B16668" d="M148.779 174.677c1.09 1.629 5.227 7.281 5.227 7.281s2.673-1.925 4.511-3.466 3.011-2.289 3.86-5.34a9.2 9.2 0 0 1 1.081-2.094 6.7 6.7 0 0 0 .809-2.264c.041-.389 1.024-.276 1.223.984.128.655-.087 1.295-.087 1.94 0 .2-.107.614.139.579 1.49-.215 2.59-1.91 4.377-3.113.645-.43 2.294-.876 2.642.056.031.225-.133.384-.194.584a1.775 1.775 0 0 0 .03.368c.041.185.118.364.159.553.06.287.026.585-.097.85q-.18.284-.297.599c.056.398.001.804-.159 1.173q-.231.488-.568.911a3 3 0 0 0-.302.635 3.7 3.7 0 0 1-.727.962 15 15 0 0 1-3.246 2.714q-.856.441-1.659.968c-.387.273-.732.6-1.024.973a31 31 0 0 0-2.007 2.396 65.5 65.5 0 0 1-5.494 6.907c-2.273 2.503-3.584 1.536-6.82-1.577-3.942-3.805-6.057-5.991-6.057-5.991l-.957-12.615c2.324.768 4.546 3.404 5.637 5.027" style="fill:#b16668;fill:color(display-p3 .6941 .4 .4078);fill-opacity:1"/><path fill="#9A4A4D" d="M165.357 173.367a4.28 4.28 0 0 1-1.101 3.666c1.362-.374 1.91-2.13 1.101-3.666" style="fill:#9a4a4d;fill:color(display-p3 .6039 .2902 .302);fill-opacity:1"/><path fill="#455A64" d="M141.928 169.26c2.191.369 3.896 1.234 6.656 4.88s5.427 7.624 5.427 7.624l2.606-1.752c-.701.405-.118 3.2 1.024 4.608a5.35 5.35 0 0 0 2.56 1.772 19 19 0 0 1-2.56 3.226c-1.398 1.305-2.048 1.776-3 1.776-.953 0-2.048-.558-4.547-2.954a1823 1823 0 0 0-6.564-6.246z" style="fill:#455a64;fill:color(display-p3 .2706 .3529 .3922);fill-opacity:1"/><path fill="#37474F" d="M154.005 181.764c-1.172 1.295-2.002 3.553-1.92 4.72-.512-1.362 0-3.686 1.485-5.36zM158.962 188.041a4.55 4.55 0 0 1-2.243-1.183 4.96 4.96 0 0 1-1.464-2.867c0-.052-.067-.036-.067 0a4.6 4.6 0 0 0 1.455 3.123c.449.408.969.729 1.536.947q.319.132.655.21c.051-.072.128-.164.184-.236z" style="fill:#37474f;fill:color(display-p3 .2157 .2784 .3098);fill-opacity:1"/><path fill="#FAFAFA" d="M145.614 177.217c-.307-6.144-1.69-7.813-4.798-8.156l-5.12-.543c-1.536.312-6.753 1.982-8.519 2.591-1.132.394-1.623 2.806-1.864 6.584-.2 3.072-.23 5.632-.128 9.877.082 3.553.169 7.603 1.255 12.538 4.244 1.608 16.501.077 21.391-5.524-.394-1.27-1.961-3.558-2.212-6.098.174-5.335.113-9.364-.005-11.269" style="fill:#fafafa;fill:color(display-p3 .9804 .9804 .9804);fill-opacity:1"/><path fill="#37474F" d="m127.08 171.032 3.829-1.347s.691 1.608 2.171 4.695 1.536 4.491 1.674 9.877c.139 5.386 1.127 14.848 1.767 17.039-2.371.333-4.429 3.774-10.527 2.709 0 0-1.28-6.242-1.48-16.896-.102-5.484-.133-14.521 2.566-16.077" style="fill:#37474f;fill:color(display-p3 .2157 .2784 .3098);fill-opacity:1"/><path fill="#455A64" d="M134.544 179.429c-.599-4.839-2.626-5.09-3.072-3.502a9.82 9.82 0 0 1-1.807-5.796c.481-.835.855-1.536 1.024-1.843.21-.415.455-.333.455-.333v1.229a8.24 8.24 0 0 0 1.731 3.189c1.039 1.301 1.413 2.975 1.669 7.056" style="fill:#455a64;fill:color(display-p3 .2706 .3529 .3922);fill-opacity:1"/><path fill="#37474F" d="M138.031 169.23c2.181.85 3.779 3.271 4.291 6.62.512 3.348.937 11.894 1.3 14.423.364 2.529 1.992 6.932 1.992 6.932s2.673-1.1 3.415-3.2c-1.229-1.607-2.376-3.84-2.56-5.944s0-8.822-.333-11.392-.589-6.118-3.635-7.306c-1.316-.512-4.403-.717-4.403-.717z" style="fill:#37474f;fill:color(display-p3 .2157 .2784 .3098);fill-opacity:1"/><path fill="#455A64" d="M142.542 177.78c-.297-2.463-1.7-6.871-4.368-7.772a2.1 2.1 0 0 1-.158-.778l.025-1.28c.799.28 1.562.653 2.273 1.111 1.152.742 3.139 3.123 3.656 5.043-1.142-.983-1.597.614-1.428 3.676" style="fill:#455a64;fill:color(display-p3 .2706 .3529 .3922);fill-opacity:1"/><path fill="#263238" d="M131.129 166.035c-.302-1.726-2.048-3.518-2.806-5.013-.757-1.495-1.198-2.56-1.121-3.932.046-.809.548-1.904 1.147-2.135a3.74 3.74 0 0 1 .358-2.93 3.74 3.74 0 0 1 2.371-1.76 13 13 0 0 0 1.654-.471c.65-.276.793-.799 1.315-1.244.896-.773 2.417-.799 3.001.358.599-.778 1.413-.762 2.355-.512a1.61 1.61 0 0 1 1.239 1.808 1.685 1.685 0 0 1 2.529.911c.092.548 0 1.024.338 1.495s1.162.538 1.393.092c.133.773-.169 1.362-1.024 1.326a1.766 1.766 0 0 1 .225 1.48 1.59 1.59 0 0 1-1.444 1.111 2.8 2.8 0 0 1-.368 1.188 2.8 2.8 0 0 1-.989.896 17.1 17.1 0 0 1-4.044 1.106l-1.623.348c-.098 0-.589.051-.645.133z" style="fill:#263238;fill:color(display-p3 .149 .1961 .2196);fill-opacity:1"/><path fill="#B16668" d="M129.03 163.813a1.67 1.67 0 0 0 2.048-.067l.072 5.632c.957 2.427 4.792 3.641 6.927 3.584a6.93 6.93 0 0 0-.031-3.742l.026-1.536q1.027.012 2.048-.103c1.351-.189 2.365-1.29 2.744-2.759.416-1.908.463-3.877.138-5.801a5.1 5.1 0 0 1-.082-1.419 6.7 6.7 0 0 0-.435-3.046c-1.495-1.188-4.935-1.582-8.135.384.378 1.91-.354 3.425-1.741 4.157.066.512.138 1.818-.707 1.797-.614 0-.655-.778-1.285-1.448-.63-.671-2.094-.845-2.657.148a3.294 3.294 0 0 0 1.07 4.219" style="fill:#b16668;fill:color(display-p3 .6941 .4 .4078);fill-opacity:1"/><path fill="#9A4A4D" d="M138.056 167.673c-2.145-.245-3.779-.471-4.9-2.017a13.4 13.4 0 0 1-1.305-2.534c.141 1.102.456 2.175.931 3.179.548.988 1.9 1.813 5.264 2.084z" style="fill:#9a4a4d;fill:color(display-p3 .6039 .2902 .302);fill-opacity:1"/><path fill="#263238" d="M136.976 159.374a.605.605 0 0 1-1.208 0 .62.62 0 0 1 .609-.62.627.627 0 0 1 .599.62M136.802 157.392l-1.362.564a.77.77 0 0 1 .415-.989.72.72 0 0 1 .947.425M142.029 157.771l-1.392-.512a.7.7 0 0 1 .364-.429.71.71 0 0 1 .562-.027.78.78 0 0 1 .466.968M141.66 159.184a.606.606 0 0 1-.66.564.628.628 0 0 1-.563-.791.627.627 0 0 1 .891-.387.63.63 0 0 1 .332.614" style="fill:#263238;fill:color(display-p3 .149 .1961 .2196);fill-opacity:1"/><path fill="#9A4A4D" d="m140.811 161.406-2.094.937-.66-4.096c.778-.302 1.787 1.588 2.754 3.159" style="fill:#9a4a4d;fill:color(display-p3 .6039 .2902 .302);fill-opacity:1"/><path fill="#B16668" d="m136.75 163.204 2.525.512a1.266 1.266 0 0 1-1.501 1.024 1.36 1.36 0 0 1-.815-.566 1.36 1.36 0 0 1-.209-.97" style="fill:#b16668;fill:color(display-p3 .6941 .4 .4078);fill-opacity:1"/><path fill="#9A4A4D" d="M137.058 163.613a1.3 1.3 0 0 0-.312 0 1.32 1.32 0 0 0 1.024 1.152q.208.039.415 0a1.19 1.19 0 0 0-1.127-1.152" style="fill:#9a4a4d;fill:color(display-p3 .6039 .2902 .302);fill-opacity:1"/><path fill="#000" d="M162.904 205.09a4 4 0 0 0-.615-.722c-2.355-2.181-6.784-5.063-10.542-7.46l-17.116 9.862a.16.16 0 0 0-.056.057.17.17 0 0 0 0 .156.16.16 0 0 0 .056.058l12.431 7.168z" opacity=".15" style="fill:#000;fill-opacity:1"/><path fill="#37474F" d="M168.09 200.067v.277a1.134 1.134 0 0 1-.568.983l-19.897 11.489a1.1 1.1 0 0 1-.563.149 1.15 1.15 0 0 1-.573-.149l-10.844-6.241a1.148 1.148 0 0 1-.569-.988v-.384q0 .04.018.074a.16.16 0 0 0 .054.054l11.909 6.876z" style="fill:#37474f;fill:color(display-p3 .2157 .2784 .3098);fill-opacity:1"/><path fill="#263238" d="M147.062 212.207v.758c.198.001.393-.05.564-.149l19.896-11.489a1.13 1.13 0 0 0 .573-.983v-.277z" style="fill:#263238;fill:color(display-p3 .149 .1961 .2196);fill-opacity:1"/><path fill="#455A64" d="m168.096 200.067-11.776-6.809a.68.68 0 0 0-.681 0l-20.48 11.817a.148.148 0 0 0-.057.206.15.15 0 0 0 .057.055l11.909 6.876z" style="fill:#455a64;fill:color(display-p3 .2706 .3529 .3922);fill-opacity:1"/><path fill="#37474F" d="m146.95 211.209-6.359-3.671 18.606-10.742 6.395 3.65z" style="fill:#37474f;fill:color(display-p3 .2157 .2784 .3098);fill-opacity:1"/><path fill="#263238" d="m165.592 200.446-.246.144-6.154-3.512-18.361 10.603-.24-.143 18.601-10.742zM143.826 200.999l.118.067 3.118 1.802 5.545-3.2.113-.067-3.236-1.868z" style="fill:#263238;fill:color(display-p3 .149 .1961 .2196);fill-opacity:1"/><path fill="#37474F" d="m143.944 201.066 3.118 1.802 5.545-3.2-3.123-1.802z" style="fill:#37474f;fill:color(display-p3 .2157 .2784 .3098);fill-opacity:1"/><path fill="#B16668" d="M150.093 202.356c-.998-.993-2.447-2.365-3.665-2.765a7 7 0 0 0-.855-.266 9 9 0 0 0 1.254-.251 2.2 2.2 0 0 0 1.055-.701c.102-.133.179-.353.046-.461a.3.3 0 0 0-.174-.066c-.912-.026-1.629-.169-2.458-.226a3.4 3.4 0 0 0-1.116 0c-.338.092-.676.19-1.024.307-1.536.512-2.944.379-5.033-.573s-9.61-5.591-9.61-5.591l1.607 8.863 5.955 2.299.061.025q.99.529 2.048.896c1.347.415 3.072-.072 4.245-.138 1.456.057 2.891.369 4.239.922 1.091.44 2.391-1.234 2.939-1.024s1.485-.262.486-1.25" style="fill:#b16668;fill:color(display-p3 .6941 .4 .4078);fill-opacity:1"/><path fill="#9A4A4D" d="M145.071 198.68a4.1 4.1 0 0 0-1.659.266 9 9 0 0 1 2.161.379 9 9 0 0 0 1.254-.251c.362-.114.69-.315.958-.583-.635.445-1.926.271-2.714.189" style="fill:#9a4a4d;fill:color(display-p3 .6039 .2902 .302);fill-opacity:1"/><path fill="#263238" d="M147.38 212.402a1.36 1.36 0 0 0 1.162-.087l19.809-11.438a1.33 1.33 0 0 0 .656-.943l2.166-12.933a1 1 0 0 0 0-.22 1.346 1.346 0 0 0-.4-.957l-20.552 11.863a1 1 0 0 0-.486.696z" style="fill:#263238;fill:color(display-p3 .149 .1961 .2196);fill-opacity:1"/><path fill="#455A64" d="m147.062 212.212.134.077.184.087 2.33-13.993a.99.99 0 0 1 .486-.696l20.598-11.909a1.6 1.6 0 0 0-.277-.21l-20.623 11.909a1.01 1.01 0 0 0-.512.696z" style="fill:#455a64;fill:color(display-p3 .2706 .3529 .3922);fill-opacity:1"/><path fill="#37474F" d="m149.914 197.948-.317-.185a1 1 0 0 0-.19.431l-2.345 14.018.134.077.184.087 2.33-13.993c.032-.159.102-.309.204-.435" style="fill:#37474f;fill:color(display-p3 .2157 .2784 .3098);fill-opacity:1"/><path fill="#F7921E" d="M158.537 200.441a4.38 4.38 0 0 1 1.996-2.56c.958-.553 1.618-.297 1.47.569a4.37 4.37 0 0 1-1.997 2.56c-.957.548-1.592.297-1.469-.569" style="fill:#f7921e;fill:color(display-p3 .9686 .5725 .1176);fill-opacity:1"/><path fill="#B16668" d="M134.309 195.905c-3.17-2.299-5.781-4.096-5.781-4.096l.906-9.728s.686-4.823-.399-7.552c-1.132-2.832-2.248-3.231-2.248-3.231a11.1 11.1 0 0 0-3.072 1.72c-1.228 1.076-1.812 3.584-2.109 7.097-.261 3.072-.748 10.849-.83 12.656-.097 2.299 0 4.148 2.443 5.259 2.56 1.172 10.24 3.794 10.24 3.794z" style="fill:#b16668;fill:color(display-p3 .6941 .4 .4078);fill-opacity:1"/><path fill="#455A64" d="M127.079 171.032c-2.493.799-3.768 1.259-4.823 4.178-1.054 2.918-1.024 8.289-1.336 12.59s-.558 7.112.128 8.463c.379.748 1.07 1.434 3.538 2.366s4.849 1.776 4.849 1.776.235-3.799 2.944-6.359l-3.723-2.263s.855-8.78 1.06-11.182c.205-2.401.466-7.49-2.637-9.569" style="fill:#455a64;fill:color(display-p3 .2706 .3529 .3922);fill-opacity:1"/><path fill="#37474F" d="M128.657 191.783c-1.459-.686-4.347-.066-4.967.456.738-1.275 2.704-1.731 5.064-1.439zM129.599 194.43a3.6 3.6 0 0 0-1.075 1.25c-.259.47-.458.97-.594 1.489a8.3 8.3 0 0 0-.251 1.818v.783l.276.103a7.6 7.6 0 0 1 .215-2.606q.2-.764.574-1.459.404-.679.875-1.311s.016-.092-.02-.067" style="fill:#37474f;fill:color(display-p3 .2157 .2784 .3098);fill-opacity:1"/><path fill="#455A64" d="m204.084 144.65-5.176-2.99h-.041c-2.514-1.424-5.975-1.203-9.795.998-7.68 4.439-13.916 15.232-13.916 24.11 0 4.409 1.536 7.516 4.03 8.981l.036.025 5.186 2.996.886-2.33a14.8 14.8 0 0 0 3.85-1.598c7.68-4.433 13.916-15.226 13.916-24.104a15 15 0 0 0-.512-4.096z" style="fill:#455a64;fill:color(display-p3 .2706 .3529 .3922);fill-opacity:1"/><path fill="#263238" d="M175.254 164.567q-.119 1.082-.123 2.171c0 4.408 1.536 7.516 4.029 8.98l.036.026 5.187 2.995.885-2.33c.287-.071.584-.159.881-.251l1.316-4.541z" style="fill:#263238;fill:color(display-p3 .149 .1961 .2196);fill-opacity:1"/><path fill="#37474F" d="M204.136 167.411c5.435-9.414 5.434-19.589-.003-22.728-5.436-3.139-14.249 1.948-19.684 11.361s-5.433 19.589.003 22.728 14.249-1.948 19.684-11.361" style="fill:#37474f;fill:color(display-p3 .2157 .2784 .3098);fill-opacity:1"/><path fill="#263238" d="M205.052 148.567c-1.955-3.124-5.744-3.584-10.132-1.285-7.26 3.834-13.133 14.008-12.8 22.21a11 11 0 0 0 1.428 5.402c1.956 3.123 5.745 3.584 10.133 1.285 7.26-3.835 13.133-14.009 12.8-22.216a11.03 11.03 0 0 0-1.429-5.396" style="fill:#263238;fill:color(display-p3 .149 .1961 .2196);fill-opacity:1"/><path fill="#FAFAFA" d="M192.252 175.37c-2.795 1.48-5.345 1.812-7.332 1.06a6 6 0 0 1-1.387-1.536 11 11 0 0 1-1.444-5.402c-.312-8.192 5.56-18.376 12.8-22.21 2.796-1.475 5.34-1.813 7.332-1.06a6 6 0 0 1 1.387 1.536 11 11 0 0 1 1.444 5.396c.333 8.223-5.534 18.391-12.8 22.216" style="fill:#fafafa;fill:color(display-p3 .9804 .9804 .9804);fill-opacity:1"/><path fill="#F7921E" d="M193.44 149.304a.66.66 0 0 0-.292.512v1.51c0 .2.134.287.297.195a.7.7 0 0 0 .203-.224.7.7 0 0 0 .089-.288v-1.505c-.005-.21-.133-.297-.297-.2M203.439 155.074a.67.67 0 0 1-.317.512l-1.306.758c-.174.102-.312.03-.312-.159a.68.68 0 0 1 .317-.512l1.306-.753c.174-.102.312-.03.312.154M183.072 167.26a.69.69 0 0 1 .318-.512l1.305-.758c.174-.097.313-.031.313.159a.68.68 0 0 1-.318.512l-1.305.757c-.174.098-.313.026-.313-.158M193.071 173.03a.66.66 0 0 0 .208-.222.66.66 0 0 0 .089-.29v-1.511c0-.199-.133-.286-.292-.189a.7.7 0 0 0-.208.221.7.7 0 0 0-.089.291v1.51c-.015.2.134.287.292.19M194.029 162.273l5.919-1.06h-5.34z" style="fill:#f7921e;fill:color(display-p3 .9686 .5725 .1176);fill-opacity:1"/><path fill="#37474F" d="M194.3 153.108s.681 6.344.896 7.813q.032.128.031.261a2.1 2.1 0 0 1-.927 1.644.669.669 0 0 1-.676.066l-.512-.292a.67.67 0 0 1-.282-.619c-.087-1.536.477-8.812.477-8.812l.512-.358z" style="fill:#37474f;fill:color(display-p3 .2157 .2784 .3098);fill-opacity:1"/><path fill="#455A64" d="M195.242 161.182a2.09 2.09 0 0 1-.942 1.644c-.512.302-.952.056-.952-.548-.087-1.536.476-8.812.476-8.812l.512-.358s.906 7.465.906 8.074" style="fill:#455a64;fill:color(display-p3 .2706 .3529 .3922);fill-opacity:1"/><path fill="#263238" d="M194.72 161.479a.95.95 0 0 1-.425.748c-.24.133-.43.025-.43-.251a.94.94 0 0 1 .43-.742c.236-.139.425-.026.425.245" style="fill:#263238;fill:color(display-p3 .149 .1961 .2196);fill-opacity:1"/><path fill="#37474F" d="m201.983 160.895-1.53.184.015.127 1.53-.184zM196.903 167.384l-.118.051.606 1.417.117-.051zM189.2 153.514l-.118.05.606 1.418.117-.051zM186.124 161.162l-1.53.184.015.128 1.53-.185zM203.001 150.491l-1.373 1.54.095.085 1.374-1.539zM197.513 147.337l-.648 1.959.122.041.648-1.959zM189.519 172.988l-.648 1.959.122.04.648-1.959zM184.777 170.239l-1.374 1.54.096.085 1.373-1.54z" style="fill:#37474f;fill:color(display-p3 .2157 .2784 .3098);fill-opacity:1"/></svg>