<svg xmlns="http://www.w3.org/2000/svg" width="256" height="256" fill="none"><path stroke="#D5D5D5" d="M46.56 212.07C24.086 200.302 13 184.954 13 169.737s11.084-30.568 33.56-42.341c22.464-11.767 51.94-17.663 81.442-17.663 29.503 0 58.977 5.896 81.439 17.663 22.473 11.773 33.558 27.122 33.559 42.337s-11.083 30.564-33.559 42.337c-22.465 11.766-51.939 17.663-81.441 17.663s-58.976-5.897-81.44-17.663Z" style="stroke:#d5d5d5;stroke:color(display-p3 .8353 .8353 .8353);stroke-opacity:1"/><path fill="#F7921E" d="m84.85 37.148 1.66.63a.61.61 0 0 0 .762-.272l4.296-9.328a.51.51 0 0 0-.328-.676l-3.138-1.188a.51.51 0 0 0-.687.266l-2.97 9.907a.59.59 0 0 0 .405.661M83.924 42.11a1.808 1.808 0 1 0-1.024-2.33 1.796 1.796 0 0 0 1.024 2.33M91.727 43.732l1.023 1.214a.54.54 0 0 0 .717.117l7.44-5.509a.46.46 0 0 0 .168-.33.46.46 0 0 0-.133-.346l-1.96-2.293a.445.445 0 0 0-.656-.087l-6.625 6.528a.51.51 0 0 0 .026.706M88.844 47.24a1.623 1.623 0 1 0 2.467-2.11 1.623 1.623 0 0 0-2.467 2.11" style="fill:#f7921e;fill:color(display-p3 .9686 .5725 .1176);fill-opacity:1"/><g fill="#fff" opacity=".3"><path d="m91.727 43.732 1.023 1.214a.54.54 0 0 0 .717.117l7.44-5.509a.46.46 0 0 0 .168-.33.46.46 0 0 0-.133-.346l-1.96-2.293a.445.445 0 0 0-.656-.087l-6.625 6.528a.51.51 0 0 0 .026.706M88.844 47.24a1.623 1.623 0 1 0 2.467-2.11 1.623 1.623 0 0 0-2.467 2.11" style="fill:#fff;fill-opacity:1"/></g><path fill="#FFBDA7" d="M42.567 170.004c.185-5.524.289-8.103.474-17.962-.043-2.523-.048-5.231.037-7.635.284-8.094 1.25-10.053 1.842-12.846.591-2.792.946-7.994 1.42-25.398a90 90 0 0 1 2.484-19.733l24.77-.875c2.924 10.796 4.586 34.637 4.903 45.859.16 5.723-2.466 34.983-2.244 37.34a8 8 0 0 0 2.566 5.041c2.115 2.125 3.611 2.963 6.238 4.79-.336.994-5.68 1.15-7.247.474a57 57 0 0 1-6.531-3.546c-2.159-1.486-2.684-2.414-2.802-4.79 0-.298-.251-2.229-.232-2.366-.09-1.387-2.225-17.958-2.954-22.658-.857-5.509.54-13.026.54-13.026l-3.233-17.209s-2.556 11.586-3.895 18.639c-.98 5.183-3.57 13.404-5.164 21.692-1.894 8.434-2.055 9.173-3.138 15.203-.55 3.043-1.794 13.253-2.448 15.354-2.115 6.821-7.573 3.664-7.984-.047-.29-2.485 2.56-15.113 2.598-16.301" style="fill:#ffbda7;fill:color(display-p3 1 .7412 .6549);fill-opacity:1"/><path fill="#263238" d="M89.35 182.315c.137 0 .265 1.557-.526 2.168-.913.705-3.53 1.803-6.882 1.178-3.35-.625-5.12-1.775-6.408-2.987-1.288-1.211-3.091-2.91-4.6-3.313-1.42-.388-3.664-1.32-4.095-1.784s-.26-2.419-.26-2.419z" style="fill:#263238;fill:color(display-p3 .149 .1961 .2196);fill-opacity:1"/><path fill="#37474F" d="M68.245 168.343a1.03 1.03 0 0 0-.578.639c-.137.53-.18 1.221-.45 2.097a15.8 15.8 0 0 0-.591 4.733c.132 1.013 3.162 2.035 4.61 2.683a18.8 18.8 0 0 1 4.62 3.314c1.51 1.42 4.775 2.901 6.972 3.053 3.355.236 5.58-.559 6.318-1.733.91-1.453.582-3.029-3.176-5.041-.714-.378-3.195-2.044-4.037-2.645a20 20 0 0 1-2.518-2.107 15 15 0 0 1-1.112-1.235 5.3 5.3 0 0 1-.91-1.306c-.037-.105-.06-.228-.094-.336a5 5 0 0 1-.203-.923c-.043-.322-.057-.796-.355-1.004-.299-.208-5.136.473-5.505.989a2.9 2.9 0 0 0-.393 1.387c-.023.223-.028.45-.042.677 0 .099.023.275-.11.227-.132-.047-.25-.393-.293-.511-.094-.26-.147-.535-.25-.79a2.3 2.3 0 0 0-.436-.843c-.61-.577-1.235-.506-1.42-.705.01-.014-.038-.426-.047-.62" style="fill:#37474f;fill:color(display-p3 .2157 .2784 .3098);fill-opacity:1"/><path fill="#FAFAFA" d="M86.174 178.188c-4.87.066-6.447 3.89-6.764 5.746 1.083.483 2.234.793 3.413.918 3.356.236 5.718-.549 6.456-1.723.866-1.377.27-3.455-3.105-4.941" style="fill:#fafafa;fill:color(display-p3 .9804 .9804 .9804);fill-opacity:1"/><path fill="#F5F5F5" d="M79.013 178.727a.23.23 0 0 1-.147-.062.244.244 0 0 1 0-.34c.724-.791 3.01-2.457 4.766-2.168q.047.008.088.032a.24.24 0 0 1-.163.441c-1.638-.265-3.787 1.392-4.34 2.026a.23.23 0 0 1-.094.06.23.23 0 0 1-.11.011M76.987 177.388a.26.26 0 0 1-.152-.062.25.25 0 0 1 0-.341c.725-.795 3.01-2.461 4.767-2.168q.046.007.087.033.04.024.069.064a.23.23 0 0 1 .042.178.24.24 0 0 1-.096.156.2.2 0 0 1-.085.039.2.2 0 0 1-.093.004c-1.638-.27-3.787 1.391-4.34 2.021a.24.24 0 0 1-.2.076M75.122 175.887a.202.202 0 0 1-.147-.061.235.235 0 0 1-.053-.26.2.2 0 0 1 .053-.076c.72-.796 3.015-2.462 4.766-2.168a.22.22 0 0 1 .154.094.231.231 0 0 1 .04.176.237.237 0 0 1-.274.198c-1.638-.265-3.763 1.392-4.336 2.022a.23.23 0 0 1-.203.075M73.3 174.377a.25.25 0 0 1-.147-.061.23.23 0 0 1-.052-.259.2.2 0 0 1 .052-.077c.994-1.131 3.417-2.466 5.169-2.173a.3.3 0 0 1 .088.032q.04.024.069.064a.23.23 0 0 1 .041.179.245.245 0 0 1-.274.199c-1.576-.266-3.853 1.012-4.733 2.016a.24.24 0 0 1-.213.08" style="fill:#f5f5f5;fill:color(display-p3 .9608 .9608 .9608);fill-opacity:1"/><path fill="#263238" d="M48.71 187.086c-.302 2.286-.77 3.787-1.684 5.069s-2.476 1.591-3.995 1.079c-1.52-.511-3.427-1.713-3.72-3.729s-.474-3.389.057-5.491z" style="fill:#263238;fill:color(display-p3 .149 .1961 .2196);fill-opacity:1"/><path fill="#37474F" d="M42.567 170.004c-.639 0-.7 3.058-1.297 6.115-.643 3.28-1.216 4.553-1.775 7.242-.634 3.067-.227 4.487.715 6.446.942 1.96 4.648 4.066 6.716 1.539 1.704-2.069 1.95-4.492 2.04-7.597a45 45 0 0 1 1.009-7.729c.473-2.48.946-4.733.426-5.036a22 22 0 0 1-.568 2.475c-.076.166-.355.578-.407-.076 0-.194.08-.634.075-.823a.81.81 0 0 0-.525-.786 6.1 6.1 0 0 0-2.674-.805c-1.245-.099-2.324-.222-3.044.081-.435.185-.473.587-.53.97-.09.474-.118.753-.222.649-.218-.204.104-2.329.061-2.665" style="fill:#37474f;fill:color(display-p3 .2157 .2784 .3098);fill-opacity:1"/><path fill="#FAFAFA" d="M39.178 185.141a7.8 7.8 0 0 0 .843 4.799c.946 1.955 4.941 4.113 7.029 1.572 1.036-1.264 1.42-2.84 1.656-4.426-.97-2.153-7.606-3.569-9.528-1.945" style="fill:#fafafa;fill:color(display-p3 .9804 .9804 .9804);fill-opacity:1"/><path fill="#F5F5F5" d="M47.57 183.611a.2.2 0 0 1-.076-.028c-.028 0-2.887-1.463-5.812-1.013a.25.25 0 0 1-.196-.028.246.246 0 0 1-.103-.267.24.24 0 0 1 .125-.153.24.24 0 0 1 .098-.025c3.096-.474 6.016 1.013 6.125 1.074a.236.236 0 0 1 .11.29.234.234 0 0 1-.272.15M42.018 180.27a.24.24 0 0 1-.19-.175.24.24 0 0 1 .171-.289c2.94-.757 6.006.947 6.12 1.018q.04.024.069.063a.23.23 0 0 1 .007.264.24.24 0 0 1-.327.075c-.028 0-3.015-1.666-5.746-.946a.25.25 0 0 1-.104-.01M42.26 178.102a.244.244 0 0 1-.19-.17.243.243 0 0 1 .166-.294c3.237-.894 6.153.947 6.238 1.004a.246.246 0 0 1 .057.336.3.3 0 0 1-.068.063.3.3 0 0 1-.087.032.238.238 0 0 1-.176-.043s-2.84-1.766-5.836-.947a.25.25 0 0 1-.104.019" style="fill:#f5f5f5;fill:color(display-p3 .9608 .9608 .9608);fill-opacity:1"/><path fill="#EBEBEB" d="M42.577 175.968a.23.23 0 0 1-.117-.056.22.22 0 0 1-.068-.11.237.237 0 0 1 .161-.298c3.034-.885 6.153.999 6.272 1.079a.24.24 0 0 1 .1.153.24.24 0 0 1-.039.179.3.3 0 0 1-.065.065.2.2 0 0 1-.085.034.236.236 0 0 1-.176-.038c-.029 0-3.058-1.836-5.874-1.013a.2.2 0 0 1-.11.005" style="fill:#ebebeb;fill:color(display-p3 .9216 .9216 .9216);fill-opacity:1"/><path fill="#455A64" d="M46.855 86.501c-.686 6.82-.946 8.52-1.42 23.666-.473 14.696-.473 16.85-.549 18.625-.189 4.061-1.926 5.524-2.11 15.103-.171 8.78-.081 19.596-.081 19.596s1.235 1.581 4.568 1.761c3.076.17 4.567-1.042 4.567-1.042s4.965-20.622 6.37-25.824c1.894-7.057 4.502-19.406 4.502-19.406l2.509 13.934s-.919 4.682-.19 12.307c.582 6.068 2.457 16.802 2.457 16.802a7.1 7.1 0 0 0 4.43 1.321c3.81-.18 4.733-1.321 4.733-1.321s2.424-22.856 2.443-31.537c.023-9.187-.54-31.565-1.52-45.05z" style="fill:#455a64;fill:color(display-p3 .2706 .3529 .3922);fill-opacity:1"/><path fill="#37474F" d="m62.72 118.966 1.956-15.269s4.955-1.505 8.046-4.989c-.151 2.523-4.487 5.902-6.55 6.48l-2.31 13.551 1.349 14.176zM55.834 88.537a20.7 20.7 0 0 0-1.732 4.051 39 39 0 0 0-1.103 4.26 44 44 0 0 0-.639 4.355 28.4 28.4 0 0 0-.132 4.397c.298-1.42.572-2.869.842-4.298.27-1.43.54-2.84.833-4.26.294-1.42.578-2.84.89-4.26s.653-2.825 1.041-4.245M53.946 89.138a15 15 0 0 0-1.893 2.295 21 21 0 0 0-1.515 2.57q-.668 1.342-1.122 2.77a11.7 11.7 0 0 0-.568 2.939l1.217-2.684c.42-.876.837-1.751 1.278-2.618q.659-1.3 1.31-2.608c.436-.87.89-1.75 1.293-2.664M56.994 106.006c-.473 4.568-.88 9.145-1.288 13.727-.407 4.581-1.339 9.632-2.016 14.152s-3.914 22.302-4.444 26.856c.885-4.506 4.638-22.189 5.358-26.743s1.538-9.646 1.817-14.232c.28-4.587.455-9.168.573-13.76M74.085 105.808l.474 11.989c.061 1.998.147 3.99.19 5.988.042 1.997.117 3.999.042 5.963-.076 1.965-.644 21.091-.474 25.086.568-4.444 1.16-21.039 1.383-25.062.08-4.047-.17-8.046-.436-12.027-.265-3.98-.653-7.97-1.179-11.937M67.005 159.714l.516 4.184s1.618 1.132 5.111.904 4.042-1.334 4.042-1.334l.341-3.915s-1.055.781-4.26 1.018a13.7 13.7 0 0 1-5.75-.857M42.686 160.584l-.161 4.213s1.42 1.377 4.903 1.718c3.484.341 4.198-.667 4.198-.667l.777-3.839s-.98.63-4.17.35a13.7 13.7 0 0 1-5.547-1.775" style="fill:#37474f;fill:color(display-p3 .2157 .2784 .3098);fill-opacity:1"/><path fill="#263238" d="M70.024 53.687c5.306 1.06 7.176 3.062 9.595 6.626 2.418 3.564 11.056 18.933 11.056 18.933s-1.003 1.25-3.592 1.216c-2.59-.033-5.983-2.41-8.255-4.26s-7.355-8.179-7.355-8.179z" style="fill:#263238;fill:color(display-p3 .149 .1961 .2196);fill-opacity:1"/><path fill="#F5F5F5" d="M46.51 55.48s-2.196 6.868-1.292 13.594c.582 4.35 1.259 7.573 1.377 12.685.114 4.884-.445 12.386-.445 12.386 5.155 4.09 26.908 5.122 31.821-1.443 0 0-.208-7.74-.473-16.022-.213-6.177-.852-10.939-1.576-13.85-1.174-4.704-4.51-8.188-5.883-9.144a39 39 0 0 0-11.36-.838A46.7 46.7 0 0 0 46.51 55.48" style="fill:#f5f5f5;fill:color(display-p3 .9608 .9608 .9608);fill-opacity:1"/><path fill="#E0E0E0" d="M61.775 97.667c-6.627 0-13.21-1.292-15.78-3.313l-.1-.08v-.133c0-.076.553-7.545.44-12.358a72 72 0 0 0-.947-9.703c-.142-.947-.284-1.922-.421-2.959-.9-6.707 1.278-13.636 1.302-13.702l.033-.114.109-.042a47.3 47.3 0 0 1 12.211-2.646 39 39 0 0 1 11.454.842l.086.038c1.448 1.008 4.813 4.596 5.982 9.287.82 3.284 1.392 8.354 1.581 13.906.28 8.183.474 15.941.474 16.017v.09l-.052.066c-2.116 2.84-6.91 3.99-10.565 4.463-1.927.236-3.866.35-5.807.341M46.41 94.032c3.346 2.518 13.148 3.82 21.133 2.783 4.97-.644 8.582-2.13 10.177-4.193-.024-.88-.228-8.217-.474-15.932-.184-5.52-.757-10.546-1.567-13.797-1.121-4.511-4.326-7.967-5.74-8.994a38.6 38.6 0 0 0-11.261-.818 47 47 0 0 0-11.965 2.584c-.275.918-2.069 7.246-1.25 13.376.137 1.032.28 2.002.421 2.949.534 3.23.85 6.492.947 9.764.118 4.483-.35 11.246-.421 12.278" style="fill:#e0e0e0;fill:color(display-p3 .8784 .8784 .8784);fill-opacity:1"/><path fill="#37474F" d="M55.745 30.447s-1.624-.062-2.911 1.803c-.644.947-1.236 2.717-.384 8.089.32 2.095.958 4.129 1.893 6.03a2.64 2.64 0 0 0 1.401 1.368l.355-4.014.17-2.807s2.533-1.78 2.964-3.758c.554-2.551-.308-4.127-.308-4.127z" style="fill:#37474f;fill:color(display-p3 .2157 .2784 .3098);fill-opacity:1"/><path fill="#37474F" d="M55.167 30.517c.658-2.205 3.881-4.558 9.537-4.217a10.8 10.8 0 0 1 9.173 5.983c1.302 2.811-1.226 4.804-1.226 4.804l-14.015-2.305z" style="fill:#37474f;fill:color(display-p3 .2157 .2784 .3098);fill-opacity:1"/><path fill="#FFBDA7" d="M52.209 44.47c2.002 1.25 3.161-.283 3.161-.283l-.473 9.594c3.45 5.788 14.55 4.203 10.56-.289l.132-2.281q.862.057 1.723 0c1.894-.076 3.56-.852 4.345-2.779.457-1.246.8-2.53 1.027-3.838.35-1.879.334-3.808-.047-5.68-.26-1.065.336-2.367.194-3.659-.104-.989-.412-2.097-1.264-2.636-2.125-1.344-4.387 0-7.663.833-1.353.35-4.53.208-5.315-.265.947 1.306.516 5.04-1.273 6.37a3.5 3.5 0 0 1-.947.947c-.752.507-1.14-1.065-1.652-1.723-.51-.657-2.612-1.42-3.786.412a3.75 3.75 0 0 0 1.278 5.278" style="fill:#ffbda7;fill:color(display-p3 1 .7412 .6549);fill-opacity:1"/><path fill="#F0997A" d="M65.608 51.211c-2.461-.294-4.733-.857-6.125-1.623-1.391-.767-2.447-2.84-2.645-4.786-.18 1.534.194 4.336 2.267 5.713s4.823 1.733 6.428 1.95z" style="fill:#f0997a;fill:color(display-p3 .9412 .6 .4784);fill-opacity:1"/><path fill="#37474F" d="m64.415 36.159-2.177.625a1.155 1.155 0 0 1 .79-1.42 1.117 1.117 0 0 1 1.387.795M72.04 37.414l-2.016-1.06a1.1 1.1 0 0 1 1.51-.474 1.17 1.17 0 0 1 .507 1.534" style="fill:#37474f;fill:color(display-p3 .2157 .2784 .3098);fill-opacity:1"/><path fill="#263238" d="M62.783 38.356a.947.947 0 1 0 .994-.833.914.914 0 0 0-.994.833M69.47 38.748a.947.947 0 1 0 .995-.828.91.91 0 0 0-.995.828" style="fill:#263238;fill:color(display-p3 .149 .1961 .2196);fill-opacity:1"/><path fill="#F0997A" d="m66.333 36.58.099 5.832 3.218-.767a13.5 13.5 0 0 0-3.318-5.064" style="fill:#f0997a;fill:color(display-p3 .9412 .6 .4784);fill-opacity:1"/><path fill="#B16668" d="M64.543 44.902c-.473.875.474 1.533 1.193.946.473-.336.776-1.226.218-1.619q.28-.108.577-.16s.029 0 .033-.053a1.46 1.46 0 0 0-.714-.028 1.84 1.84 0 0 0-1.307.913" style="fill:#b16668;fill:color(display-p3 .6941 .4 .4078);fill-opacity:1"/><path fill="#263238" d="M47.367 55.163c-5.155 1.33-6.627 3.9-7.829 7.38-1.756 4.955-3.493 11.652-4.014 14.894-.52 3.243.038 6.371 2.807 7.133s10.314-12.585 10.314-12.585 2.414-11.62-1.278-16.822" style="fill:#263238;fill:color(display-p3 .149 .1961 .2196);fill-opacity:1"/><path fill="#FFA8A7" d="M53.908 51.878c.947-1.259 1.25-2.366 2.29-2.939 1.042-.573 2.685-1.77 3.257-1.893.385-.054.776.017 1.117.203 0 0 .866-.833 1.373-.904.506-.07.842.81.412 1.666.501.426.473 1.127-.048 2.083.332.246.559.947-.198 2.277a18 18 0 0 1-1.108 1.538 10.2 10.2 0 0 0-1.354 2.688c-.331.947-.274 2.755-1.694 4.805a22.8 22.8 0 0 1-3.432 3.786l-4.056-4.638c.063-1.701.276-3.393.639-5.055a22.7 22.7 0 0 0 .852-4.842c.033-1.203 1.14-.947 1.505-.223.221.457.371.946.445 1.448" style="fill:#ffa8a7;fill:color(display-p3 1 .6588 .6549);fill-opacity:1"/><path fill="#FFBDA7" d="M50.467 60.559c-.658 2.026-5.935 6.9-8.458 8.96-2.523 2.059-3.437 3.161-4.426 5.291a15 15 0 0 0-.771 8.615c.369 1.467 3.786 2.04 7.573-.767 3.786-2.807 4.984-6.101 6.863-10.247 1.463-3.233 2.584-5.07 3.446-6.74.34-.663 1.893-2.201 3.313-4.26 1.42-2.06 1.363-3.877 1.694-4.804.317-.958.773-1.864 1.354-2.689q.595-.74 1.108-1.538c.757-1.34.53-2.03.198-2.277.507-.946.55-1.656.048-2.082.43-.857.094-1.742-.412-1.666-.507.075-1.373.904-1.373.904a1.8 1.8 0 0 0-1.117-.204c-.572.118-2.215 1.306-3.256 1.893s-1.35 1.68-2.291 2.94c-.082-.508-.242-1-.473-1.458-.365-.724-1.472-.98-1.505.222a22.7 22.7 0 0 1-.843 4.852 28.7 28.7 0 0 0-.639 5.055" style="fill:#ffbda7;fill:color(display-p3 1 .7412 .6549);fill-opacity:1"/><path fill="#B16668" d="M54.66 65.67c1.657-2.418 4.104-4.5 4.592-7.54l.213-1.097q.133-.552.355-1.075a9.7 9.7 0 0 1 1.055-1.988c.63-.904 2.32-2.721 1.382-3.786l-.057-.048.034-.066c.317-.606.672-1.529 0-2.011.255-.474.378-1.311-.147-1.586-.573 0-1.08.577-1.505.947l-.067-.038c-.662-.393-1.32-.175-1.93.232-.611.407-1.222.766-1.842 1.145-1.472.625-1.96 2.168-2.887 3.346-.161-.79-.294-2.011-1.236-2.186-.676-.038-.6.795-.639 1.273-.132 2.03-.828 3.966-1.164 5.95a32 32 0 0 0-.355 3.445 34 34 0 0 1 .294-3.455c.241-1.718.809-3.365 1.008-5.088.104-.587.061-1.145.17-1.732a.73.73 0 0 1 .242-.398c1.169-.601 1.675 1.14 1.803 1.993l-.137-.038c.842-1.155 1.42-2.665 2.806-3.266.611-.379 1.212-.786 1.842-1.16a1.89 1.89 0 0 1 2.13-.241h-.123a4.7 4.7 0 0 1 1.135-.838c1.056-.473 1.203 1.094.805 1.718l-.024-.113c.677.568.322 1.547-.028 2.196l-.024-.114c1.089 1.174-.69 3.063-1.367 4.023a9.6 9.6 0 0 0-1.629 4.095c-.473 3.067-3 5.116-4.733 7.516z" style="fill:#b16668;fill:color(display-p3 .6941 .4 .4078);fill-opacity:1"/><path fill="#F28F8F" d="M36.812 83.425c.473 1.16 2.011 1.155 3.072 1.041 3.493-.582 6.437-3.133 8.287-6.082 1.274-2.007 2.159-4.232 3.172-6.385 1.012-2.154 2.172-4.236 3.313-6.338-1.108 2.111-2.272 4.189-3.238 6.366-1.954 4.544-3.677 8.79-8.136 11.488-1.533.908-3.422 1.58-5.206 1.079a1.72 1.72 0 0 1-1.264-1.17" style="fill:#f28f8f;fill:color(display-p3 .949 .5608 .5608);fill-opacity:1"/><path fill="#F0997A" d="M55.745 52.248q.314-.832.733-1.614c.947-1.51 2.65-2.367 4.09-3.37-1.198 1.282-2.84 2.096-3.886 3.497-.327.474-.602 1.004-.947 1.487zM62.324 47.936c-.649-.346-1.028.534-1.42.913-.62.72-1.35 1.354-1.96 2.068-.52.8-1.06 1.577-1.652 2.334.61-1.112 1.155-2.338 2.069-3.238l1.367-1.33c.407-.355 1-1.245 1.6-.748zM62.31 50.108c-.526-.109-.815.473-1.113.819-.866 1.25-2.083 2.187-2.873 3.493.362-.958.94-1.82 1.69-2.518a17 17 0 0 1 1.562-1.661.67.67 0 0 1 .733-.133M53.908 51.878a23.6 23.6 0 0 1-1.467 3.313 9.9 9.9 0 0 1 1.467-3.313" style="fill:#f0997a;fill:color(display-p3 .9412 .6 .4784);fill-opacity:1"/><path fill="#FFA8A7" d="M78.113 50.685c-.8-1.235-1.022-2.281-1.96-2.892-.936-.61-2.404-1.822-2.929-1.964a1.67 1.67 0 0 0-1.06.118s-.758-.833-1.23-.946c-.474-.114-.839.705-.474 1.533-.497.37-.497 1.028-.085 1.955-.327.208-.582.838.047 2.14q.434.78.947 1.51a9.6 9.6 0 0 1 1.098 2.598c.255.89.1 2.21 1.297 4.217.732 1.22 1.672 2.3 2.778 3.195l5.022-3.498s-.658-2.47-1.032-4.42a21.4 21.4 0 0 1-.473-4.592c.042-1.13-1.013-.946-1.42-.303-.245.42-.422.875-.526 1.35" style="fill:#ffa8a7;fill:color(display-p3 1 .6588 .6549);fill-opacity:1"/><path fill="#FFBDA7" d="M81.545 58.666c.473 1.94 2.991 4.563 5.206 7.024 2.045 2.272 3.02 3.171 3.815 5.207.796 2.035 1.226 5.452.44 7.88-.435 1.35-3.649 1.676-7.023-1.188-3.375-2.863-4.294-6.02-5.794-10.015-1.169-3.12-1.122-3.375-1.822-4.994-.28-.643-1.42-1.618-2.622-3.63-1.203-2.012-1.042-3.313-1.297-4.217a9.6 9.6 0 0 0-1.098-2.599q-.513-.73-.947-1.51c-.63-1.301-.374-1.93-.047-2.139-.412-.947-.412-1.586.085-1.955-.35-.828 0-1.633.473-1.533.474.099 1.23.946 1.23.946.332-.154.704-.196 1.061-.118.526.142 1.993 1.354 2.93 1.964s1.16 1.657 1.96 2.892c.102-.469.276-.919.515-1.335.384-.657 1.42-.828 1.42.303-.008 1.543.15 3.083.474 4.591.374 1.95 1.031 4.421 1.031 4.421" style="fill:#ffbda7;fill:color(display-p3 1 .7412 .6549);fill-opacity:1"/><path fill="#B16668" d="M76.367 62.6q-.536-.836-1.207-1.567a20 20 0 0 1-1.174-1.6 8.3 8.3 0 0 1-1.42-3.683 8.2 8.2 0 0 0-.473-1.893c-.393-1.292-1.35-2.248-1.893-3.47-.237-.6-.507-1.457.108-1.94l-.028.104a3.2 3.2 0 0 1-.303-1.041 1.1 1.1 0 0 1 .407-1.018l-.028.11c-.426-.947.118-2.315 1.235-1.307q.342.277.64.6h-.114a1.79 1.79 0 0 1 1.978.356c.563.388 1.098.805 1.652 1.197 1.297.644 1.713 2.064 2.428 3.2h-.133c.185-.781.701-2.305 1.766-1.794.364.28.26.795.27 1.174.056 2.925.78 5.784 1.467 8.614-.738-2.84-1.524-5.68-1.586-8.614 0-.473.071-1.198-.563-1.15-.861.151-1.055 1.245-1.245 1.964-.8-1.16-1.164-2.632-2.499-3.313-.554-.388-1.098-.805-1.656-1.184-.559-.378-1.155-.662-1.79-.335l-.066.033c-.364-.35-.842-.947-1.353-.947-.502.222-.44 1.032-.232 1.472-.654.412-.38 1.297-.119 1.893.038.09.033.057-.033.104-.9.89.407 2.604.947 3.437a9.5 9.5 0 0 1 1.169 2.74c.213.947.25 1.97.643 2.892A13.7 13.7 0 0 0 75.203 61a11.6 11.6 0 0 1 1.174 1.595z" style="fill:#b16668;fill:color(display-p3 .6941 .4 .4078);fill-opacity:1"/><path fill="#F28F8F" d="M91.007 78.796c-.89 2.03-4.336.88-5.709-.066-3.734-2.414-5.466-6.182-6.815-10.248-.758-1.94-1.326-3.957-2.116-5.883 1.595 3.83 2.612 7.957 4.733 11.55 1.624 2.574 4.132 4.87 7.19 5.466.946.137 2.243.17 2.721-.819z" style="fill:#f28f8f;fill:color(display-p3 .949 .5608 .5608);fill-opacity:1"/><path fill="#F0997A" d="M76.372 50.932c-.294-.473-.507-.99-.786-1.453-.904-1.373-2.367-2.244-3.422-3.512 1.278 1.032 2.816 1.93 3.616 3.408q.345.76.592 1.557M70.479 46.468c.596-.43 1.093.44 1.458.795l1.197 1.335c.805.89 1.226 2.078 1.732 3.152-.506-.743-.946-1.505-1.42-2.281-.52-.71-1.173-1.344-1.699-2.059-.35-.383-.653-1.226-1.282-.947zM70.36 48.504a.625.625 0 0 1 .682.17q.731.78 1.358 1.647a6.3 6.3 0 0 1 1.42 2.466c-.657-1.273-1.741-2.224-2.475-3.45-.25-.336-.473-.904-.99-.833zM78.113 50.686c.584.985.978 2.07 1.165 3.2a22 22 0 0 1-1.165-3.2" style="fill:#f0997a;fill:color(display-p3 .9412 .6 .4784);fill-opacity:1"/><path fill="#F7921E" d="M216.379 114.356c.544 7.749-2.637 19.35-2.637 19.35l-12.888-5.306-6.541 16.528-16.207-5.959-1.817 3.621-2.428-.701-3.072 10.2-13.016-3.654s5.32 9.983 16.855 14.512a36.6 36.6 0 0 0 29.894-4.842 36.6 36.6 0 0 0 16.017-25.701c.507-4.132-.686-14.412-4.16-18.048" style="fill:#f7921e;fill:color(display-p3 .9686 .5725 .1176);fill-opacity:1"/><g opacity=".5" style="mix-blend-mode:screen"><path fill="#fff" d="M216.379 114.356c.544 7.749-2.637 19.35-2.637 19.35l-12.888-5.306-6.541 16.528-16.207-5.959-1.817 3.621-2.428-.701-3.072 10.2-13.016-3.654s5.32 9.983 16.855 14.512a36.6 36.6 0 0 0 29.894-4.842 36.6 36.6 0 0 0 16.017-25.701c.507-4.132-.686-14.412-4.16-18.048" style="fill:#fff;fill-opacity:1"/></g><path fill="#F7921E" d="M174.628 162.961c-3.882-5.017-6.182-11.894-6.546-19.027a82 82 0 0 0 21.393 3.786 71 71 0 0 1 3.091-8.16c5.282 1.894 14.507 4.833 14.507 4.833l1.827-2.646s1.165.222 1.894.45c1.85-7.933 1.803-12.046 1.784-19.681 3.787 3.465 5.831 5.983 7.961 9.892a36.62 36.62 0 0 1-16.017 25.702 36.6 36.6 0 0 1-29.894 4.842z" style="fill:#f7921e;fill:color(display-p3 .9686 .5725 .1176);fill-opacity:1"/><path fill="#fff" d="M174.628 162.961c-3.882-5.017-6.182-11.894-6.546-19.027a82 82 0 0 0 21.393 3.786 71 71 0 0 1 3.091-8.16c5.282 1.894 14.507 4.833 14.507 4.833l1.827-2.646s1.165.222 1.894.45c1.85-7.933 1.803-12.046 1.784-19.681 3.787 3.465 5.831 5.983 7.961 9.892a36.62 36.62 0 0 1-16.017 25.702 36.6 36.6 0 0 1-29.894 4.842z" opacity=".85" style="fill:#fff;fill-opacity:1"/><path fill="#F7921E" d="M220.539 132.418a32 32 0 0 0-5.003-6.991c-.785 4.606-1.794 8.288-1.794 8.288l-1.419-.587a63.5 63.5 0 0 1-1.525 9.078c-.728-.227-1.893-.449-1.893-.449l-1.827 2.646s-6.011-1.894-11.109-3.645l-1.651 4.179-3.442-1.263a67 67 0 0 0-1.396 4.056 82 82 0 0 1-16.632-2.442l-2.054 6.815-1.52-.426a31.4 31.4 0 0 0 5.358 11.284 36.36 36.36 0 0 0 21.593-.738 37.144 37.144 0 0 0 4.88-2.092 36.32 36.32 0 0 0 18.341-22.426 34 34 0 0 0 .748-3.152c.137-.705.251-1.42.341-2.135z" style="fill:#f7921e;fill:color(display-p3 .9686 .5725 .1176);fill-opacity:1"/><g opacity=".7" style="mix-blend-mode:screen"><path fill="#fff" d="M220.539 132.418a32 32 0 0 0-5.003-6.991c-.785 4.606-1.794 8.288-1.794 8.288l-1.419-.587a63.5 63.5 0 0 1-1.525 9.078c-.728-.227-1.893-.449-1.893-.449l-1.827 2.646s-6.011-1.894-11.109-3.645l-1.651 4.179-3.442-1.263a67 67 0 0 0-1.396 4.056 82 82 0 0 1-16.632-2.442l-2.054 6.815-1.52-.426a31.4 31.4 0 0 0 5.358 11.284 36.36 36.36 0 0 0 21.593-.738 37.144 37.144 0 0 0 4.88-2.092 36.32 36.32 0 0 0 18.341-22.426 34 34 0 0 0 .748-3.152c.137-.705.251-1.42.341-2.135z" style="fill:#fff;fill-opacity:1"/></g><path fill="#F7921E" d="M168.172 169.006a35.69 35.69 0 0 1-17.092 23.235c-25.024 14.445-41.694-3.456-51.78 2.366l-7.247 4.184-12.557-21.749 7.246-4.184c10.087-5.826 2.599-29.028 27.623-43.474a36.2 36.2 0 0 1 21.129-4.761c-1.633 5.097-1.77 9.045-1.988 11.861a70 70 0 0 0 8.046 2.116q-.885 9.03-1.784 18.066c5.254.904 16.807 3.924 16.807 3.924l-.729 2.173 2.22.534-.331 5.756s5.67 1.126 10.437-.047" style="fill:#f7921e;fill:color(display-p3 .9686 .5725 .1176);fill-opacity:1"/><g opacity=".5" style="mix-blend-mode:screen"><path fill="#fff" d="M168.172 169.006a35.69 35.69 0 0 1-17.092 23.235c-25.024 14.445-41.694-3.456-51.78 2.366l-7.247 4.184-12.557-21.749 7.246-4.184c10.087-5.826 2.599-29.028 27.623-43.474a36.2 36.2 0 0 1 21.129-4.761c-1.633 5.097-1.77 9.045-1.988 11.861a70 70 0 0 0 8.046 2.116q-.885 9.03-1.784 18.066c5.254.904 16.807 3.924 16.807 3.924l-.729 2.173 2.22.534-.331 5.756s5.67 1.126 10.437-.047" style="fill:#fff;fill-opacity:1"/></g><path fill="#F7921E" d="M168.172 169.006a35.69 35.69 0 0 1-17.092 23.235c-25.024 14.445-41.694-3.456-51.78 2.366l-7.247 4.184-12.557-21.749 7.246-4.184c10.087-5.826 2.599-29.028 27.623-43.474a36.2 36.2 0 0 1 21.129-4.761c-3.787 2.314-6.22 4.482-9.5 8.42 7.625-.383 11.729-.625 19.733.847-.189.734-.355 1.893-.355 1.893l2.726 1.704s-2.475 9.344-4.132 14.711a71 71 0 0 0 8.293 2.698 82 82 0 0 1-2.774 21.541c7.105-.687 13.863-3.314 18.687-7.431" style="fill:#f7921e;fill:color(display-p3 .9686 .5725 .1176);fill-opacity:1"/><path fill="#fff" d="M168.172 169.006a35.69 35.69 0 0 1-17.092 23.235c-25.024 14.445-41.694-3.456-51.78 2.366l-7.247 4.184-12.557-21.749 7.246-4.184c10.087-5.826 2.599-29.028 27.623-43.474a36.2 36.2 0 0 1 21.129-4.761c-3.787 2.314-6.22 4.482-9.5 8.42 7.625-.383 11.729-.625 19.733.847-.189.734-.355 1.893-.355 1.893l2.726 1.704s-2.475 9.344-4.132 14.711a71 71 0 0 0 8.293 2.698 82 82 0 0 1-2.774 21.541c7.105-.687 13.863-3.314 18.687-7.431" opacity=".85" style="fill:#fff;fill-opacity:1"/><path fill="#F7921E" d="M149.485 176.451a82 82 0 0 0 2.669-16.988c-3.833-.946-9.234-2.257-12.377-2.797q.895-9.03 1.785-18.066a70 70 0 0 1-8.047-2.116c.085-1.079.156-2.324.303-3.735-2.366 0-4.813.142-7.814.294 3.28-3.938 5.679-6.106 9.499-8.42a36.2 36.2 0 0 0-21.129 4.761c-25.024 14.446-17.512 37.648-27.623 43.474l-7.246 4.184 12.557 21.749 7.228-4.184c10.086-5.822 26.756 12.079 51.781-2.366a35.68 35.68 0 0 0 17.091-23.235c-4.814 4.117-11.573 6.744-18.677 7.445" style="fill:#f7921e;fill:color(display-p3 .9686 .5725 .1176);fill-opacity:1"/><g opacity=".7" style="mix-blend-mode:screen"><path fill="#fff" d="M149.485 176.451a82 82 0 0 0 2.669-16.988c-3.833-.946-9.234-2.257-12.377-2.797q.895-9.03 1.785-18.066a70 70 0 0 1-8.047-2.116c.085-1.079.156-2.324.303-3.735-2.366 0-4.813.142-7.814.294 3.28-3.938 5.679-6.106 9.499-8.42a36.2 36.2 0 0 0-21.129 4.761c-25.024 14.446-17.512 37.648-27.623 43.474l-7.246 4.184 12.557 21.749 7.228-4.184c10.086-5.822 26.756 12.079 51.781-2.366a35.68 35.68 0 0 0 17.091-23.235c-4.814 4.117-11.573 6.744-18.677 7.445" style="fill:#fff;fill-opacity:1"/></g><path fill="#F7921E" d="m86.742 172.858-7.246 4.184 2.788 4.828c3.559-2.977 7.497-6.361 9.134-8.094 3.314-3.493 1.714-12.708 4.061-21.095-2.977 9.007-3.36 17.053-8.737 20.177M89.54 194.437l2.532 4.341 7.218-4.17c5.287-3.053 12.386.411 21.545 2.324-8.292-2.187-15.392-7.976-19.993-6.845-2.314.564-7.204 2.305-11.553 3.92z" opacity=".15" style="fill:#f7921e;fill:color(display-p3 .9686 .5725 .1176);fill-opacity:1"/><path fill="#455A64" d="M84.29 185.212a.36.36 0 0 1-.173-.041.37.37 0 0 1-.198-.399.38.38 0 0 1 .154-.246l12.713-8.993a18.9 18.9 0 0 0 5.457-6.012l7.067-12.334a5.3 5.3 0 0 1 4.227-2.655c1.94-.138 3.474.075 4.577.643l.222-.094c3.081-1.184 7.351-1.245 9.831.833a11 11 0 0 1 1.978-.398 7.8 7.8 0 0 1 3.285.237 4.45 4.45 0 0 1 2.622 2.111.38.38 0 1 1-.677.345 3.68 3.68 0 0 0-2.177-1.737 7.1 7.1 0 0 0-2.968-.203q-.719.08-1.419.26a5.92 5.92 0 0 1 1.457 3.829 3.87 3.87 0 0 1-.686 2.277 3.31 3.31 0 0 1-3.091 1.226 3.34 3.34 0 0 1-2.698-2.253 3.929 3.929 0 0 1 .947-3.579 6.66 6.66 0 0 1 2.575-1.841c-2.215-1.548-5.737-1.481-8.43-.53 1.728 1.382 1.832 3.048 1.377 4.085a2.704 2.704 0 0 1-3.1 1.543 2.165 2.165 0 0 1-1.865-1.993c-.109-1.306.734-2.778 1.993-3.678a9.5 9.5 0 0 0-3.706-.355 4.54 4.54 0 0 0-3.621 2.277l-7.067 12.335a19.7 19.7 0 0 1-5.68 6.248c-2.872 2.04-7.355 5.206-12.708 9.016a.4.4 0 0 1-.218.076m43.697-28.456a6.16 6.16 0 0 0-2.66 1.77c-.587.701-1.103 1.823-.786 2.873a2.59 2.59 0 0 0 2.083 1.718 2.52 2.52 0 0 0 2.366-.918 3.2 3.2 0 0 0 .507-1.855 5.16 5.16 0 0 0-1.51-3.588m-9.902-.748c-1.33.748-2.116 2.187-2.026 3.224a1.425 1.425 0 0 0 1.259 1.311 1.965 1.965 0 0 0 2.253-1.103c.384-.866.223-2.206-1.368-3.351a1 1 0 0 0-.118-.081M87.77 191.238a.39.39 0 0 1-.346-.223.38.38 0 0 1-.01-.29.38.38 0 0 1 .199-.212c5.969-2.735 10.957-5.031 14.157-6.503a19.75 19.75 0 0 1 8.255-1.794l14.199.047a4.54 4.54 0 0 0 3.763-1.997 9.5 9.5 0 0 0 1.595-3.384c-1.42.639-3.105.634-4.184-.114a2.155 2.155 0 0 1-.791-2.608 2.71 2.71 0 0 1 2.888-1.917c1.126.123 2.513 1.051 2.84 3.233a5.02 5.02 0 0 0 1.864-3.313.38.38 0 0 1 .129-.272.375.375 0 0 1 .432-.047.37.37 0 0 1 .184.237q.02.076.008.153a5.94 5.94 0 0 1-2.367 4.047l-.189.146c-.061 1.236-.639 2.675-1.732 4.26a5.3 5.3 0 0 1-4.393 2.334l-14.199-.048h-.062a18.9 18.9 0 0 0-7.876 1.728c-3.2 1.472-8.188 3.763-14.161 6.499a.37.37 0 0 1-.204.038m39.408-18.256a1.97 1.97 0 0 0-1.865 1.42 1.418 1.418 0 0 0 .506 1.746c.852.597 2.49.634 3.787-.147v-.137c-.199-1.955-1.274-2.759-2.215-2.863a2 2 0 0 0-.213-.019" style="fill:#455a64;fill:color(display-p3 .2706 .3529 .3922);fill-opacity:1"/><path fill="#F7921E" d="M92.09 198.853c1.614-.947 2.613-2.935 2.613-5.784 0-5.68-4-12.624-8.931-15.468-2.466-1.42-4.7-1.562-6.314-.625l-3.72 2.144c-1.615.947-2.613 2.939-2.613 5.789 0 5.679 4.004 12.623 8.931 15.468 2.47 1.42 4.7 1.557 6.319.624z" style="fill:#f7921e;fill:color(display-p3 .9686 .5725 .1176);fill-opacity:1"/><path fill="#37474F" d="M71.837 186.106c0-5.443 3.82-7.649 8.52-4.927s8.52 9.339 8.52 14.782-3.82 7.649-8.52 4.927-8.52-9.339-8.52-14.782" style="fill:#37474f;fill:color(display-p3 .2157 .2784 .3098);fill-opacity:1"/><path fill="#455A64" d="M70.588 187.058c0-5.32 3.734-7.474 8.34-4.819s8.34 9.126 8.34 14.446-3.735 7.474-8.34 4.814-8.34-9.126-8.34-14.441" style="fill:#455a64;fill:color(display-p3 .2706 .3529 .3922);fill-opacity:1"/><path fill="#37474F" d="M69.338 188.004c0-5.206 3.645-7.298 8.141-4.7 4.497 2.599 8.141 8.913 8.141 14.105s-3.644 7.299-8.14 4.7c-4.497-2.598-8.142-8.912-8.142-14.105" style="fill:#37474f;fill:color(display-p3 .2157 .2784 .3098);fill-opacity:1"/><path fill="#455A64" d="M68.084 188.956c0-5.069 3.56-7.123 7.947-4.591s7.947 8.7 7.947 13.764c0 5.065-3.56 7.123-7.947 4.591s-7.947-8.699-7.947-13.764" style="fill:#455a64;fill:color(display-p3 .2706 .3529 .3922);fill-opacity:1"/><path fill="#37474F" d="M66.834 189.902c0-4.941 3.47-6.943 7.749-4.472 4.278 2.47 7.752 8.481 7.752 13.423 0 4.941-3.469 6.948-7.752 4.487-4.284-2.461-7.749-8.496-7.749-13.438" style="fill:#37474f;fill:color(display-p3 .2157 .2784 .3098);fill-opacity:1"/><path fill="#455A64" d="M65.76 190.844c0-4.766 3.346-6.697 7.474-4.316 4.127 2.38 7.473 8.179 7.473 12.945s-3.346 6.707-7.45 4.312c-4.103-2.395-7.497-8.179-7.497-12.941" style="fill:#455a64;fill:color(display-p3 .2706 .3529 .3922);fill-opacity:1"/><path fill="#263238" d="M66.948 192.96c0-3.223 2.248-4.539 5.046-2.934s5.069 5.519 5.078 8.742-2.253 4.534-5.045 2.93c-2.793-1.605-5.07-5.519-5.079-8.738" style="fill:#263238;fill:color(display-p3 .149 .1961 .2196);fill-opacity:1"/><path fill="#263238" d="m74.232 202.393-.582-1.003c.374-.608.56-1.313.53-2.026 0-2.622-1.855-5.803-4.132-7.1a3.54 3.54 0 0 0-2.016-.544l-.582-.999-1.155 2.206a3.9 3.9 0 0 0-.35 1.718c0 2.622 1.855 5.803 4.132 7.1a3.8 3.8 0 0 0 1.666.544z" style="fill:#263238;fill:color(display-p3 .149 .1961 .2196);fill-opacity:1"/><path fill="#37474F" d="M66.271 195.715c0-1.917 1.335-2.693 2.996-1.742a6.62 6.62 0 0 1 3.015 5.207c0 1.916-1.334 2.693-2.996 1.741a6.62 6.62 0 0 1-3.015-5.206" style="fill:#37474f;fill:color(display-p3 .2157 .2784 .3098);fill-opacity:1"/></svg>