<svg xmlns="http://www.w3.org/2000/svg" width="256" height="256" fill="none"><path stroke="#D5D5D5" d="M47.06 194.575C24.586 182.808 13.5 167.46 13.5 152.243s11.084-30.568 33.56-42.341C69.524 98.135 99 92.239 128.502 92.239c29.503 0 58.977 5.896 81.439 17.663 22.473 11.773 33.558 27.122 33.559 42.337s-11.083 30.564-33.559 42.336c-22.465 11.767-51.939 17.664-81.441 17.664s-58.976-5.897-81.44-17.664Z" style="stroke:#d5d5d5;stroke:color(display-p3 .8353 .8353 .8353);stroke-opacity:1"/><path fill="#F7921E" d="m116.74 77.7-14.758-8.52-.057-.032-.105-.061c-7.16-4.052-16.997-3.428-27.866 2.844-21.869 12.63-39.598 43.339-39.598 68.593 0 12.546 4.39 21.382 11.47 25.552l.11.062.052.03 14.758 8.521 2.515-6.62a42.1 42.1 0 0 0 10.974-4.539c21.87-12.625 39.599-43.334 39.599-68.584a42.2 42.2 0 0 0-1.523-11.667z" style="fill:#f7921e;fill:color(display-p3 .9686 .5725 .1176);fill-opacity:1"/><path fill="#fff" d="m116.74 77.7-14.758-8.52-.057-.032-.105-.061c-7.16-4.052-16.997-3.428-27.866 2.844-21.869 12.63-39.598 43.339-39.598 68.593 0 12.546 4.39 21.382 11.47 25.552l.11.062.052.03 14.758 8.521 2.515-6.62a42.1 42.1 0 0 0 10.974-4.539c21.87-12.625 39.599-43.334 39.599-68.584a42.2 42.2 0 0 0-1.523-11.667z" opacity=".4" style="fill:#fff;fill-opacity:1"/><path fill="#F7921E" d="M34.702 134.348a59 59 0 0 0-.346 6.176c0 12.545 4.39 21.382 11.47 25.552l.11.061.052.031 14.758 8.52 2.515-6.619a32 32 0 0 0 2.502-.72l3.745-12.91z" opacity=".4" style="fill:#f7921e;fill:color(display-p3 .9686 .5725 .1176);fill-opacity:1"/><path fill="#F7921E" d="M116.878 142.44c15.463-26.784 15.462-55.734-.003-64.663-15.465-8.93-40.538 5.545-56.002 32.329-15.463 26.784-15.462 55.734.003 64.663s40.538-5.545 56.002-32.329" style="fill:#f7921e;fill:color(display-p3 .9686 .5725 .1176);fill-opacity:1"/><path fill="#fff" d="M116.878 142.44c15.463-26.784 15.462-55.734-.003-64.663-15.465-8.93-40.538 5.545-56.002 32.329-15.463 26.784-15.462 55.734.003 64.663s40.538-5.545 56.002-32.329" opacity=".6" style="fill:#fff;fill-opacity:1"/><path fill="#F7921E" d="M118.918 88.507c-4.908-8.508-14.978-9.465-26.926-2.564-19.78 11.413-36.487 40.358-36.487 63.211 0 5.983 1.15 11.136 3.327 14.903 4.908 8.507 14.978 9.464 26.926 2.563 19.78-11.413 36.487-40.354 36.487-63.211 0-5.983-1.15-11.136-3.323-14.902z" style="fill:#f7921e;fill:color(display-p3 .9686 .5725 .1176);fill-opacity:1"/><path fill="#F7921E" d="M119.449 88.822c-5.562-8.88-16.338-10.245-28.818-3.652-20.632 10.913-37.365 39.849-36.487 63.211.233 6.119 1.655 11.413 4.122 15.364 5.562 8.884 16.334 10.25 28.818 3.652 20.653-10.908 37.36-39.845 36.482-63.211-.228-6.119-1.65-11.413-4.117-15.364" style="fill:#f7921e;fill:color(display-p3 .9686 .5725 .1176);fill-opacity:1"/><path fill="#fff" d="M119.449 88.822c-5.562-8.88-16.338-10.245-28.818-3.652-20.632 10.913-37.365 39.849-36.487 63.211.233 6.119 1.655 11.413 4.122 15.364 5.562 8.884 16.334 10.25 28.818 3.652 20.653-10.908 37.36-39.845 36.482-63.211-.228-6.119-1.65-11.413-4.117-15.364" opacity=".4" style="fill:#fff;fill-opacity:1"/><path fill="#FAFAFA" d="M83.076 165.114c-7.945 4.201-15.192 5.158-20.85 3.016a16.8 16.8 0 0 1-3.951-4.389c-2.467-3.951-3.89-9.245-4.122-15.364-.878-23.34 15.833-52.276 36.486-63.211 7.959-4.21 15.202-5.153 20.864-3.011a17 17 0 0 1 3.951 4.39c2.463 3.95 3.885 9.244 4.117 15.363.865 23.384-15.837 52.298-36.495 63.206" style="fill:#fafafa;fill:color(display-p3 .9804 .9804 .9804);fill-opacity:1"/><path fill="#F7921E" d="m88.976 126.275-21.843-1.471q7.976-15.57 19.753-23.458z" opacity=".3" style="fill:#f7921e;fill:color(display-p3 .9686 .5725 .1176);fill-opacity:1"/><path fill="#F7921E" d="M86.447 90.92a1.93 1.93 0 0 0-.834 1.524v4.289c0 .575.373.82.834.548a1.92 1.92 0 0 0 .834-1.523v-4.266c0-.593-.373-.839-.834-.571M114.897 107.347a1.914 1.914 0 0 1-.878 1.484l-3.714 2.151c-.496.285-.878.083-.878-.439a1.91 1.91 0 0 1 .878-1.484l3.714-2.151c.483-.294.882-.092.878.439M56.953 142.003a1.95 1.95 0 0 1 .9-1.484l3.714-2.146c.496-.285.878-.088.878.439a1.95 1.95 0 0 1-.904 1.484l-3.714 2.15c-.474.295-.878.093-.874-.443M85.407 158.433a1.93 1.93 0 0 0 .834-1.523v-4.293c0-.571-.373-.816-.834-.549a1.94 1.94 0 0 0-.838 1.523v4.289c0 .575.377.821.838.553M88.128 127.82l-20.995-3.015h22.646z" style="fill:#f7921e;fill:color(display-p3 .9686 .5725 .1176);fill-opacity:1"/><path fill="#37474F" d="M88.936 101.75s1.945 18.037 2.55 22.22q.094.366.093.742a5.99 5.99 0 0 1-2.704 4.684c-.746.439-1.423.47-1.91.189-.25-.145-1.203-.698-1.448-.834-.5-.281-.808-.878-.808-1.756-.246-4.337 1.378-25.074 1.378-25.074l1.41-1.014z" style="fill:#37474f;fill:color(display-p3 .2157 .2784 .3098);fill-opacity:1"/><path fill="#455A64" d="M91.579 124.713a5.99 5.99 0 0 1-2.704 4.683c-1.493.878-2.704.163-2.704-1.562-.246-4.32 1.356-25.065 1.356-25.065l1.41-1.019s2.633 21.233 2.642 22.963" style="fill:#455a64;fill:color(display-p3 .2706 .3529 .3922);fill-opacity:1"/><path fill="#263238" d="M90.095 125.569a2.7 2.7 0 0 1-1.22 2.115c-.676.391-1.22.075-1.22-.706a2.7 2.7 0 0 1 1.22-2.116c.676-.386 1.22-.075 1.22.707" style="fill:#263238;fill:color(display-p3 .149 .1961 .2196);fill-opacity:1"/><path fill="#37474F" d="m110.714 123.93-4.35.523.044.362 4.349-.523zM96.018 142.643l-.335.142 1.708 4.03.336-.142zM74.22 103.104l-.334.143 1.708 4.03.336-.142zM65.597 124.683l-4.35.524.044.361 4.35-.524zM113.644 94.306l-3.903 4.376.272.243 3.903-4.377zM98.031 85.366l-1.842 5.568.346.115 1.842-5.568zM75.292 158.336l-1.843 5.568.346.114 1.843-5.567zM61.81 150.486l-3.904 4.376.272.243 3.904-4.377z" style="fill:#37474f;fill:color(display-p3 .2157 .2784 .3098);fill-opacity:1"/><path fill="#455A64" d="M85.565 66.91a1.32 1.32 0 0 0-.79-1.098 4.2 4.2 0 0 0-3.802 0 1.32 1.32 0 0 0-.79 1.097v10.316a1.32 1.32 0 0 0 .79 1.098 4.2 4.2 0 0 0 3.797 0 1.32 1.32 0 0 0 .79-1.098z" style="fill:#455a64;fill:color(display-p3 .2706 .3529 .3922);fill-opacity:1"/><path fill="#37474F" d="M80.974 67.994a1.32 1.32 0 0 1-.79-1.097 1.32 1.32 0 0 1 .79-1.098 4.2 4.2 0 0 1 3.8 0 1.32 1.32 0 0 1 .791 1.098 1.32 1.32 0 0 1-.79 1.097 4.2 4.2 0 0 1-3.802 0" style="fill:#37474f;fill:color(display-p3 .2157 .2784 .3098);fill-opacity:1"/><path fill="#F7921E" d="M90.556 60.589c0-1.137-.746-2.274-2.247-3.139-2.998-1.73-7.862-1.73-10.865 0-1.497.878-2.247 2.002-2.247 3.139v9.393c0 1.133.75 2.27 2.247 3.135 3.003 1.733 7.867 1.733 10.865 0 1.5-.878 2.247-2.002 2.247-3.135z" style="fill:#f7921e;fill:color(display-p3 .9686 .5725 .1176);fill-opacity:1"/><path fill="#fff" d="M77.444 63.723c-1.497-.878-2.247-2.002-2.247-3.134s.75-2.274 2.247-3.139c3.003-1.73 7.867-1.73 10.865 0 1.5.878 2.247 2.002 2.247 3.139 0 1.136-.746 2.269-2.247 3.134-2.998 1.73-7.862 1.73-10.865 0" opacity=".3" style="fill:#fff;fill-opacity:1"/><path fill="#000" d="M77.778 63.89v9.402q.323.16.671.307v-9.402a5.5 5.5 0 0 1-.671-.308m2.357.825v9.415c.21.044.439.084.667.11v-9.402a5 5 0 0 1-.667-.123m-4.227-2.287v9.407q.301.371.667.68v-9.398a3.6 3.6 0 0 1-.667-.685zm11.312 1.804v9.407c.241-.097.439-.202.667-.307v-9.403a5 5 0 0 1-.667.307zm1.87-1.054v9.403q.365-.298.671-.654v-9.372a4 4 0 0 1-.671.628zm-4.223 1.673v9.402c.228-.026.439-.065.667-.105v-9.433c-.228.07-.439.11-.667.14zm-2.327.145v9.415h.668v-9.41a2.8 2.8 0 0 1-.668 0z" opacity=".2" style="fill:#000;fill-opacity:1"/><path fill="#455A64" d="M54.882 89.736a1.35 1.35 0 0 0-1.348-.11 4.21 4.21 0 0 0-2.463 2.901 1.32 1.32 0 0 0 .33 1.317l7.866 6.646a1.31 1.31 0 0 0 1.343.11 4.2 4.2 0 0 0 2.463-2.901 1.32 1.32 0 0 0-.33-1.317z" style="fill:#455a64;fill:color(display-p3 .2706 .3529 .3922);fill-opacity:1"/><path fill="#37474F" d="M52.748 93.928a1.159 1.159 0 0 1-1.677-1.422 4.21 4.21 0 0 1 2.463-2.902 1.159 1.159 0 0 1 1.672 1.422 4.2 4.2 0 0 1-2.458 2.902" style="fill:#37474f;fill:color(display-p3 .2157 .2784 .3098);fill-opacity:1"/><path fill="#F7921E" d="M54.36 85.974c-.585-.496-1.498-.606-2.6-.216-2.194.79-4.337 3.297-4.753 5.602-.211 1.154.043 2.037.632 2.532l4.828 4.118c.584.496 1.497.606 2.603.21 2.195-.785 4.333-3.296 4.75-5.6.21-1.15-.044-2.033-.632-2.533z" style="fill:#f7921e;fill:color(display-p3 .9686 .5725 .1176);fill-opacity:1"/><path fill="#fff" d="M50.237 94.126c-1.102.395-2.015.28-2.598-.216-.584-.496-.843-1.395-.62-2.55.44-2.305 2.547-4.829 4.755-5.601 1.101-.395 2.014-.281 2.598.215s.843 1.378.632 2.533c-.43 2.304-2.559 4.81-4.767 5.619" opacity=".3" style="fill:#fff;fill-opacity:1"/><path fill="#000" d="m50.474 94.007 4.829 4.113c.15-.061.303-.132.439-.21l-4.829-4.114q-.211.12-.439.211m1.453-.852 4.855 4.122a7 7 0 0 0 .351-.298l-4.846-4.113a3 3 0 0 1-.36.29m-3.024 1.181 4.828 4.113q.326.012.646-.048l-4.829-4.113a2.5 2.5 0 0 1-.645.048m5.878-5.039 4.828 4.113c.057-.167.092-.325.132-.478l-4.82-4.118a4 4 0 0 1-.14.483m.276-1.427 4.829 4.114a3.6 3.6 0 0 0-.044-.633l-4.829-4.104q.06.307.044.619zm-.988 2.91 4.829 4.114q.132-.198.237-.395l-4.828-4.118a5 5 0 0 1-.238.395zm-.943 1.265 4.868 4.113.294-.347-4.855-4.117a1.8 1.8 0 0 1-.307.347z" opacity=".2" style="fill:#000;fill-opacity:1"/><path fill="#455A64" d="m107.457 72.329 4.634 2.675 2.161-3.744-4.634-2.676z" style="fill:#455a64;fill:color(display-p3 .2706 .3529 .3922);fill-opacity:1"/><path fill="#F7921E" d="m107.725 67.64 7.749 4.453a.797.797 0 0 0 1.088-.294l2.388-4.156a.797.797 0 0 0-.294-1.088l-7.748-4.453a.8.8 0 0 0-1.089.294l-2.388 4.155a.797.797 0 0 0 .294 1.088" style="fill:#f7921e;fill:color(display-p3 .9686 .5725 .1176);fill-opacity:1"/><path fill="#000" d="m116.311 65.096-3.183 5.512.392.227 3.182-5.513zM119.163 66.774l-3.156 5.46a.8.8 0 0 1-.193-.074l-.211-.123 3.183-5.514.21.123a1 1 0 0 1 .167.128M117.693 65.894l-3.183 5.512.392.226 3.182-5.512zM107.904 67.537l3.134-5.434a.7.7 0 0 1 .246.092l.171.097-3.182 5.496-.171-.097a.8.8 0 0 1-.198-.154M114.895 64.28l-3.183 5.512.392.226 3.182-5.512zM112.155 62.7l-3.183 5.513.392.226 3.182-5.512zM113.532 63.493l-3.183 5.512.392.226 3.182-5.512z" opacity=".2" style="fill:#000;fill-opacity:1"/><path fill="#F7921E" d="M128.499 143.262a.98.98 0 0 1-.413-1.015l9.943-44.058c.123-.427.397-.795.772-1.034l59.201-34.18a1.3 1.3 0 0 1 1.177-.024.984.984 0 0 1 .413 1.015l-9.951 44.047a1.82 1.82 0 0 1-.772 1.034l-59.212 34.184a1.3 1.3 0 0 1-1.158.031" style="fill:#f7921e;fill:color(display-p3 .9686 .5725 .1176);fill-opacity:1"/><path fill="#fff" d="M128.499 143.262a.98.98 0 0 1-.413-1.015l9.943-44.058c.123-.427.397-.795.772-1.034l59.201-34.18a1.3 1.3 0 0 1 1.177-.024.984.984 0 0 1 .413 1.015l-9.951 44.047a1.82 1.82 0 0 1-.772 1.034l-59.212 34.184a1.3 1.3 0 0 1-1.158.031" opacity=".8" style="fill:#fff;fill-opacity:1"/><path fill="#F7921E" d="m139.168 98.849-9.951 44.05c-.085.386.116.525.451.332l59.213-34.184c.375-.239.649-.607.772-1.034l9.951-44.05c.085-.387-.116-.53-.452-.337l-59.22 34.189c-.372.24-.643.608-.764 1.034" style="fill:#f7921e;fill:color(display-p3 .9686 .5725 .1176);fill-opacity:1"/><path fill="#fff" d="m139.168 98.849-9.951 44.05c-.085.386.116.525.451.332l59.213-34.184c.375-.239.649-.607.772-1.034l9.951-44.05c.085-.387-.116-.53-.452-.337l-59.22 34.189c-.372.24-.643.608-.764 1.034" opacity=".6" style="fill:#fff;fill-opacity:1"/><path fill="#000" d="m139.168 98.849-9.951 44.05c-.085.386.116.525.451.332l59.213-34.184c.375-.239.649-.607.772-1.034l9.951-44.05c.085-.387-.116-.53-.452-.337l-59.22 34.189c-.372.24-.643.608-.764 1.034" opacity=".05" style="fill:#000;fill-opacity:1"/><path fill="#F7921E" d="M200.318 63.608a1.3 1.3 0 0 0-1.177.019l-59.209 34.188a1.11 1.11 0 0 0-.509 1.057l7.781 54.546a1.58 1.58 0 0 0 .668 1.038 1.31 1.31 0 0 0 1.181-.023l59.209-34.184a1.127 1.127 0 0 0 .509-1.046l-7.785-54.573a1.58 1.58 0 0 0-.668-1.022" style="fill:#f7921e;fill:color(display-p3 .9686 .5725 .1176);fill-opacity:1"/><path fill="#fff" d="M200.318 63.608a1.3 1.3 0 0 0-1.177.019l-59.209 34.188a1.11 1.11 0 0 0-.509 1.057l7.781 54.546a1.58 1.58 0 0 0 .668 1.038 1.31 1.31 0 0 0 1.181-.023l59.209-34.184a1.127 1.127 0 0 0 .509-1.046l-7.785-54.573a1.58 1.58 0 0 0-.668-1.022" opacity=".8" style="fill:#fff;fill-opacity:1"/><path fill="#F7921E" d="m140.562 99.517 7.781 54.553a.444.444 0 0 0 .711.344l59.208-34.185a1.13 1.13 0 0 0 .509-1.046l-7.785-54.553a.44.44 0 0 0-.248-.389.44.44 0 0 0-.459.046l-59.208 34.2a1.13 1.13 0 0 0-.509 1.03" style="fill:#f7921e;fill:color(display-p3 .9686 .5725 .1176);fill-opacity:1"/><path fill="#fff" d="m140.562 99.517 7.781 54.553a.444.444 0 0 0 .711.344l59.208-34.185a1.13 1.13 0 0 0 .509-1.046l-7.785-54.553a.44.44 0 0 0-.248-.389.44.44 0 0 0-.459.046l-59.208 34.2a1.13 1.13 0 0 0-.509 1.03" opacity=".95" style="fill:#fff;fill-opacity:1"/><path fill="#F7921E" d="m144.877 137.086-6.948 4.011a1.1 1.1 0 0 0-.428 0l-8.199 1.582h-.031l15.15-8.754z" style="fill:#f7921e;fill:color(display-p3 .9686 .5725 .1176);fill-opacity:1"/><path fill="#fff" d="m144.877 137.086-6.948 4.011a1.1 1.1 0 0 0-.428 0l-8.199 1.582h-.031l15.15-8.754z" opacity=".5" style="fill:#fff;fill-opacity:1"/><path fill="#000" d="m144.877 137.086-6.948 4.011a1.1 1.1 0 0 0-.428 0l-8.199 1.582h-.031l15.15-8.754z" opacity=".2" style="fill:#000;fill-opacity:1"/><path fill="#F7921E" d="m147.143 152.993-8.542-11.506a1.15 1.15 0 0 0-.645-.386l6.921-4.015z" style="fill:#f7921e;fill:color(display-p3 .9686 .5725 .1176);fill-opacity:1"/><path fill="#fff" d="m147.143 152.993-8.542-11.506a1.15 1.15 0 0 0-.645-.386l6.921-4.015z" opacity=".6" style="fill:#fff;fill-opacity:1"/><path fill="#000" d="m147.143 152.993-8.542-11.506a1.15 1.15 0 0 0-.645-.386l6.921-4.015z" opacity=".1" style="fill:#000;fill-opacity:1"/><path fill="#F7921E" d="m146.876 153.53-8.264-10.735a1.3 1.3 0 0 0-1.123-.455l-7.72 1.115a2.3 2.3 0 0 1-1.266-.228c-.313-.181-.259-.386.12-.463l8.878-1.71a1.21 1.21 0 0 1 1.107.433l9.426 12.695c.232.309.163.417-.154.235a4.2 4.2 0 0 1-1.004-.887" style="fill:#f7921e;fill:color(display-p3 .9686 .5725 .1176);fill-opacity:1"/><path fill="#fff" d="m146.876 153.53-8.264-10.735a1.3 1.3 0 0 0-1.123-.455l-7.72 1.115a2.3 2.3 0 0 1-1.266-.228c-.313-.181-.259-.386.12-.463l8.878-1.71a1.21 1.21 0 0 1 1.107.433l9.426 12.695c.232.309.163.417-.154.235a4.2 4.2 0 0 1-1.004-.887" opacity=".8" style="fill:#fff;fill-opacity:1"/><path fill="#F7921E" d="M199.612 63.747a.96.96 0 0 0-.433-.8 1.31 1.31 0 0 0-1.177.024L138.79 97.155q-.272.173-.463.432c-.139.181-.241.387-.302.606l-1.401 6.222 1.158.653 60.425-34.887 1.405-6.218a1 1 0 0 0 0-.217" style="fill:#f7921e;fill:color(display-p3 .9686 .5725 .1176);fill-opacity:1"/><path fill="#000" d="M199.592 63.962c.085-.386-.115-.529-.451-.336l-59.209 34.189a1.83 1.83 0 0 0-.772 1.034l-1.397 6.218 60.424-34.886z" opacity=".6" style="fill:#000;fill-opacity:1"/><path fill="#000" d="M139.465 98.247a1.7 1.7 0 0 0-.297.602l-1.405 6.219-1.158-.653 1.401-6.222c.06-.22.162-.426.301-.606z" opacity=".5" style="fill:#000;fill-opacity:1"/><path fill="#000" d="M199.612 63.746c-.027-.212-.213-.266-.471-.116l-59.212 34.18a1.6 1.6 0 0 0-.464.437l-1.138-.66q.191-.26.463-.433l59.212-34.18a1.32 1.32 0 0 1 1.177-.023.97.97 0 0 1 .433.795" opacity=".2" style="fill:#000;fill-opacity:1"/><path fill="#F7921E" d="m201.067 65.152-.077-.522a.3.3 0 0 0 0-.077v-.02a1.57 1.57 0 0 0-.649-.922 1.3 1.3 0 0 0-1.177.02l-59.232 34.184c-.181.11-.323.273-.409.467-.089.179-.124.38-.1.579l1.115 7.816 1.158.66 60.429-34.886z" style="fill:#f7921e;fill:color(display-p3 .9686 .5725 .1176);fill-opacity:1"/><path fill="#000" d="m202.105 72.45-60.428 34.887-1.116-7.82c-.022-.2.015-.4.105-.58a1.04 1.04 0 0 1 .386-.466l59.243-34.184a.427.427 0 0 1 .675.224v.043c0 .026 0 .053.02.076l.073.521z" opacity=".2" style="fill:#000;fill-opacity:1"/><path fill="#000" d="m141.677 107.337-1.158-.66-1.096-7.805c-.024-.199.011-.4.1-.579l1.158.656c-.09.179-.126.38-.104.58z" opacity=".5" style="fill:#000;fill-opacity:1"/><path fill="#000" d="M200.967 64.518a.44.44 0 0 0-.274-.313.43.43 0 0 0-.41.066l-59.212 34.215a1.05 1.05 0 0 0-.386.467l-1.158-.656c.082-.19.216-.353.386-.471l59.224-34.196a1.3 1.3 0 0 1 1.177-.023c.322.214.554.538.653.911" opacity=".3" style="fill:#000;fill-opacity:1"/><g fill="#000" opacity=".2"><path d="M145.993 99.578a2.02 2.02 0 0 1 .965-1.872c.629-.363 1.215-.116 1.312.556a2.04 2.04 0 0 1-.965 1.876c-.629.363-1.216.116-1.312-.56M153.975 94.97a2.04 2.04 0 0 1 .965-1.876c.629-.363 1.22-.112 1.312.56a2.04 2.04 0 0 1-.965 1.875c-.625.363-1.212.112-1.312-.56M161.953 90.38a2.04 2.04 0 0 1 .965-1.876c.63-.363 1.22-.112 1.313.56a2.03 2.03 0 0 1-.965 1.872c-.629.351-1.216.1-1.313-.556M177.907 81.151a2.04 2.04 0 0 1 .965-1.876c.629-.363 1.22-.112 1.316.56a2.04 2.04 0 0 1-.969 1.876c-.625.363-1.212.112-1.312-.56M185.901 76.542a2.04 2.04 0 0 1 .965-1.876c.629-.363 1.216-.112 1.312.56a2.02 2.02 0 0 1-.965 1.872c-.629.363-1.2.116-1.312-.556M193.876 71.933a2.02 2.02 0 0 1 .965-1.872c.629-.363 1.216-.116 1.312.556a2.04 2.04 0 0 1-.965 1.876c-.629.363-1.22.131-1.312-.56" style="fill:#000;fill-opacity:1"/></g><path fill="#263238" d="M148.409 97.174a3.6 3.6 0 0 1-.147 1.038 2.12 2.12 0 0 1-.953 1.27c-.307.179-.657.27-1.012.267a2 2 0 0 1-.278 0q-.019-.075-.03-.151a1.76 1.76 0 0 1 .15-.915c.217.034.44-.004.633-.108a1.31 1.31 0 0 0 .541-.992v-.05a3 3 0 0 0 0-.34 5.53 5.53 0 0 0-1.066-3.022 6 6 0 0 0-.772-.88 4 4 0 0 0-.772-.568c-.583-.332-1.119-.386-1.482-.2-.363.185-.567.702-.567 1.381q.006.478.115.942l-.903.552v-.061a5.3 5.3 0 0 1-.212-1.433c0-1.076.386-1.899 1.104-2.316s1.613-.34 2.547.201c.437.258.834.576 1.182.946q.396.418.717.895a6.63 6.63 0 0 1 1.205 3.544M156.395 92.566a4 4 0 0 1-.058.69q-.03.181-.088.356a2.1 2.1 0 0 1-.954 1.262c-.306.179-.656.271-1.011.266q-.136 0-.27-.02a1 1 0 0 1-.035-.15 1.75 1.75 0 0 1 .147-.915c.217.033.439-.005.633-.108a1.31 1.31 0 0 0 .54-.996v-.046a3 3 0 0 0 0-.34 5.9 5.9 0 0 0-1.822-3.902 4.2 4.2 0 0 0-.772-.571c-.583-.332-1.119-.406-1.482-.197-.363.208-.567.699-.567 1.382q.006.475.119.938l-.922.552v-.062a5.2 5.2 0 0 1-.213-1.428c0-1.081.386-1.9 1.104-2.316.718-.417 1.614-.336 2.552.2.428.26.818.579 1.158.946q.395.42.718.9a6.6 6.6 0 0 1 1.223 3.558M164.37 87.96q0 .348-.058.691a2.5 2.5 0 0 1-.089.351 2.1 2.1 0 0 1-.953 1.267c-.307.178-.657.27-1.012.266q-.135.009-.27 0a1 1 0 0 1-.034-.15c-.036-.313.014-.63.146-.916a1.03 1.03 0 0 0 .633-.108 1.3 1.3 0 0 0 .541-.996v-.046a3 3 0 0 0 0-.34 5.53 5.53 0 0 0-1.066-3.022 5.8 5.8 0 0 0-.772-.88 4.3 4.3 0 0 0-.772-.571c-.583-.332-1.119-.386-1.482-.197s-.567.699-.567 1.382q.006.477.115.942l-.895.532V86.1a5.4 5.4 0 0 1-.209-1.428c0-1.081.386-1.9 1.104-2.316.718-.417 1.614-.336 2.548.204.436.256.832.573 1.177.942q.401.42.726.9a6.64 6.64 0 0 1 1.189 3.558M180.331 78.758a4 4 0 0 1-.058.69 3 3 0 0 1-.089.36c-.144.527-.485.98-.953 1.262a2 2 0 0 1-1.008.263q-.137-.001-.274-.02a1 1 0 0 1-.038-.162 1.75 1.75 0 0 1 .142-.903c.221.036.448-.002.645-.108a1.33 1.33 0 0 0 .541-1.008 3.208 3.208 0 0 0 0-.374 5.9 5.9 0 0 0-1.834-3.91 4.4 4.4 0 0 0-.749-.56c-.583-.336-1.119-.405-1.482-.2-.363.204-.564.702-.564 1.381q.003.47.112.927l-.961.555v-.05a5.4 5.4 0 0 1-.208-1.432c0-1.08.386-1.899 1.104-2.316s1.613-.34 2.547.197c.429.257.818.572 1.158.938q.401.42.726.9a6.63 6.63 0 0 1 1.243 3.57M188.329 74.145q0 .35-.062.695a2.4 2.4 0 0 1-.089.355c-.142.528-.484.98-.953 1.262a1.97 1.97 0 0 1-1.007.262 2 2 0 0 1-.274 0 1 1 0 0 1-.039-.166 1.73 1.73 0 0 1 .143-.899c.221.035.448-.004.644-.112a1.31 1.31 0 0 0 .541-1.004v-.378a5.5 5.5 0 0 0-1.073-3.03 6 6 0 0 0-.772-.88 4.4 4.4 0 0 0-.749-.56c-.583-.332-1.12-.405-1.482-.197-.363.209-.568.703-.568 1.382q.006.468.112.923l-.934.54v-.05a5.4 5.4 0 0 1-.212-1.428c0-1.08.386-1.903 1.104-2.316s1.617-.344 2.551.197c.429.256.818.572 1.158.938q.398.42.722.9a6.6 6.6 0 0 1 1.239 3.566M196.296 69.536q0 .35-.062.695a3 3 0 0 1-.089.347c-.14.532-.482.987-.953 1.27a2 2 0 0 1-1.007.263 2 2 0 0 1-.275 0 1 1 0 0 1-.034-.166 1.7 1.7 0 0 1 .139-.9c.221.035.448-.004.644-.112a1.32 1.32 0 0 0 .541-1.003.1.1 0 0 1 0-.039q.02-.168.019-.34a5.5 5.5 0 0 0-1.073-3.03 5.6 5.6 0 0 0-.772-.876 4 4 0 0 0-.749-.563c-.583-.332-1.115-.405-1.478-.197s-.568.699-.568 1.382q.003.47.112.926l-.961.552v-.05a5.4 5.4 0 0 1-.212-1.428c0-1.081.386-1.9 1.104-2.316.718-.417 1.613-.344 2.551.197.428.256.817.57 1.158.934q.4.42.726.9a6.63 6.63 0 0 1 1.239 3.554" style="fill:#263238;fill:color(display-p3 .149 .1961 .2196);fill-opacity:1"/><path fill="#F7921E" d="m142.997 116.524 60.421-34.856-1.313-9.217-60.428 34.859z" style="fill:#f7921e;fill:color(display-p3 .9686 .5725 .1176);fill-opacity:1"/><path fill="#fff" d="m142.997 116.524 60.421-34.856-1.313-9.217-60.428 34.859z" opacity=".65" style="fill:#fff;fill-opacity:1"/><path fill="#F7921E" d="M147.76 118.759c.074.509.545.683 1.054.386l4.532-2.617a1.6 1.6 0 0 0 .772-1.452c-.074-.509-.544-.683-1.054-.386l-4.493 2.617a1.6 1.6 0 0 0-.811 1.452M155.407 114.343c.073.51.544.683 1.054.386l4.535-2.617a1.59 1.59 0 0 0 .772-1.451c-.073-.51-.544-.684-1.053-.386l-4.532 2.617a1.61 1.61 0 0 0-.776 1.451M163.058 109.927c.073.51.544.683 1.049.386l4.536-2.613a1.6 1.6 0 0 0 .791-1.451c-.073-.51-.544-.684-1.054-.386l-4.535 2.617a1.6 1.6 0 0 0-.595.614 1.6 1.6 0 0 0-.192.833M170.704 105.512c.074.509.544.683 1.054.386l4.532-2.618a1.593 1.593 0 0 0 .791-1.451c-.073-.509-.544-.683-1.054-.386l-4.531 2.617a1.59 1.59 0 0 0-.792 1.452M178.351 101.096c.073.509.544.683 1.054.386l4.535-2.61a1.6 1.6 0 0 0 .772-1.451c-.073-.51-.544-.683-1.054-.386l-4.516 2.61a1.6 1.6 0 0 0-.791 1.451M186.013 96.68c.073.509.544.683 1.05.385l4.535-2.617a1.59 1.59 0 0 0 .772-1.45c-.069-.51-.54-.684-1.05-.387l-4.535 2.617a1.6 1.6 0 0 0-.772 1.452M193.648 92.264c.073.51.544.683 1.054.386l4.531-2.617a1.6 1.6 0 0 0 .792-1.451c-.074-.51-.545-.684-1.054-.386l-4.532 2.617a1.6 1.6 0 0 0-.791 1.451" style="fill:#f7921e;fill:color(display-p3 .9686 .5725 .1176);fill-opacity:1"/><g fill="#F7921E" opacity=".17"><path d="M205.054 118.813a.24.24 0 0 1-.258-.185l-3.694-25.8a.18.18 0 0 1 .053-.149.2.2 0 0 1 .068-.044.2.2 0 0 1 .079-.012.24.24 0 0 1 .259.19l3.694 25.795a.2.2 0 0 1-.01.08.2.2 0 0 1-.043.069.2.2 0 0 1-.148.056M197.4 123.229a.24.24 0 0 1-.255-.185l-3.694-25.796a.2.2 0 0 1 .011-.08.19.19 0 0 1 .11-.115.2.2 0 0 1 .08-.014.244.244 0 0 1 .255.19l3.686 25.796a.2.2 0 0 1-.009.078.2.2 0 0 1-.041.068.2.2 0 0 1-.065.045.2.2 0 0 1-.078.013M189.749 127.649a.24.24 0 0 1-.255-.189l-3.694-25.797a.187.187 0 0 1 .121-.192.2.2 0 0 1 .08-.012.24.24 0 0 1 .255.185l3.694 25.792a.2.2 0 0 1-.05.154.2.2 0 0 1-.151.059M182.099 132.068a.24.24 0 0 1-.259-.185l-3.694-25.796a.191.191 0 0 1 .121-.195.2.2 0 0 1 .08-.014.248.248 0 0 1 .259.189l3.694 25.797a.2.2 0 0 1-.011.08.2.2 0 0 1-.043.068.184.184 0 0 1-.147.056M174.433 136.484a.25.25 0 0 1-.164-.047.25.25 0 0 1-.095-.142l-3.694-25.797a.2.2 0 0 1 .011-.08.2.2 0 0 1 .043-.068.184.184 0 0 1 .147-.056.24.24 0 0 1 .165.043.24.24 0 0 1 .094.142l3.694 25.796a.191.191 0 0 1-.121.195.2.2 0 0 1-.08.014M166.798 140.9a.24.24 0 0 1-.259-.185l-3.686-25.801a.191.191 0 0 1 .121-.192.2.2 0 0 1 .079-.012.24.24 0 0 1 .259.189l3.694 25.796a.192.192 0 0 1-.126.196q-.041.013-.082.009M159.147 145.32a.246.246 0 0 1-.258-.189l-3.694-25.801a.18.18 0 0 1 .053-.148.2.2 0 0 1 .147-.056.239.239 0 0 1 .259.185l3.694 25.796a.2.2 0 0 1-.011.081.2.2 0 0 1-.109.117.2.2 0 0 1-.081.015M151.493 149.735a.24.24 0 0 1-.255-.185l-3.694-25.8a.2.2 0 0 1 .011-.08.2.2 0 0 1 .043-.068.2.2 0 0 1 .067-.045.2.2 0 0 1 .08-.012.24.24 0 0 1 .255.186l3.697 25.8a.2.2 0 0 1-.012.08.2.2 0 0 1-.044.068.2.2 0 0 1-.068.044.2.2 0 0 1-.08.012" style="fill:#f7921e;fill:color(display-p3 .9686 .5725 .1176);fill-opacity:1"/><path d="M148.726 130.389a.28.28 0 0 1-.213-.093.171.171 0 0 1-.044-.145.2.2 0 0 1 .029-.073.2.2 0 0 1 .058-.052l53.561-30.922a.26.26 0 0 1 .32.058.17.17 0 0 1 .015.222.2.2 0 0 1-.061.052l-53.557 30.922a.3.3 0 0 1-.108.031M149.648 136.835a.26.26 0 0 1-.212-.089.16.16 0 0 1-.046-.147.17.17 0 0 1 .092-.123l53.557-30.923a.258.258 0 0 1 .321.058q.027.03.039.068a.2.2 0 0 1 .005.078.173.173 0 0 1-.087.125l-53.561 30.922a.2.2 0 0 1-.108.031M150.57 143.286a.3.3 0 0 1-.116-.02.25.25 0 0 1-.096-.069.2.2 0 0 1-.04-.069.2.2 0 0 1-.005-.08.2.2 0 0 1 .031-.073.2.2 0 0 1 .06-.052l53.558-30.926a.261.261 0 0 1 .324.058.16.16 0 0 1 .038.068.17.17 0 0 1-.084.202l-53.558 30.938a.2.2 0 0 1-.112.023" style="fill:#f7921e;fill:color(display-p3 .9686 .5725 .1176);fill-opacity:1"/><path d="M151.493 149.735a.24.24 0 0 1-.116-.023.2.2 0 0 1-.091-.062.2.2 0 0 1-.048-.1l-3.694-25.8a.17.17 0 0 1 .017-.101.2.2 0 0 1 .072-.073l53.557-30.922a.26.26 0 0 1 .232 0 .224.224 0 0 1 .139.166l3.694 25.796a.2.2 0 0 1-.02.101.2.2 0 0 1-.073.073l-53.557 30.915a.2.2 0 0 1-.112.03m-3.474-25.889 3.64 25.345 53.133-30.679-3.629-25.34z" style="fill:#f7921e;fill:color(display-p3 .9686 .5725 .1176);fill-opacity:1"/></g><g fill="#000" opacity=".17"><path d="M205.054 118.813a.24.24 0 0 1-.258-.185l-3.694-25.8a.18.18 0 0 1 .053-.149.2.2 0 0 1 .068-.044.2.2 0 0 1 .079-.012.24.24 0 0 1 .259.19l3.694 25.795a.2.2 0 0 1-.01.08.2.2 0 0 1-.043.069.2.2 0 0 1-.148.056M197.4 123.229a.24.24 0 0 1-.255-.185l-3.694-25.796a.2.2 0 0 1 .011-.08.19.19 0 0 1 .11-.115.2.2 0 0 1 .08-.014.244.244 0 0 1 .255.19l3.686 25.796a.2.2 0 0 1-.009.078.2.2 0 0 1-.041.068.2.2 0 0 1-.065.045.2.2 0 0 1-.078.013M189.749 127.649a.24.24 0 0 1-.255-.189l-3.694-25.797a.187.187 0 0 1 .121-.192.2.2 0 0 1 .08-.012.24.24 0 0 1 .255.185l3.694 25.792a.2.2 0 0 1-.05.154.2.2 0 0 1-.151.059M182.099 132.068a.24.24 0 0 1-.259-.185l-3.694-25.796a.191.191 0 0 1 .121-.195.2.2 0 0 1 .08-.014.248.248 0 0 1 .259.189l3.694 25.797a.2.2 0 0 1-.011.08.2.2 0 0 1-.043.068.184.184 0 0 1-.147.056M174.433 136.484a.25.25 0 0 1-.164-.047.25.25 0 0 1-.095-.142l-3.694-25.797a.2.2 0 0 1 .011-.08.2.2 0 0 1 .043-.068.184.184 0 0 1 .147-.056.24.24 0 0 1 .165.043.24.24 0 0 1 .094.142l3.694 25.796a.191.191 0 0 1-.121.195.2.2 0 0 1-.08.014M166.798 140.9a.24.24 0 0 1-.259-.185l-3.686-25.801a.191.191 0 0 1 .121-.192.2.2 0 0 1 .079-.012.24.24 0 0 1 .259.189l3.694 25.796a.192.192 0 0 1-.126.196q-.041.013-.082.009M159.147 145.32a.246.246 0 0 1-.258-.189l-3.694-25.801a.18.18 0 0 1 .053-.148.2.2 0 0 1 .147-.056.239.239 0 0 1 .259.185l3.694 25.796a.2.2 0 0 1-.011.081.2.2 0 0 1-.109.117.2.2 0 0 1-.081.015M151.493 149.735a.24.24 0 0 1-.255-.185l-3.694-25.8a.2.2 0 0 1 .011-.08.2.2 0 0 1 .043-.068.2.2 0 0 1 .067-.045.2.2 0 0 1 .08-.012.24.24 0 0 1 .255.186l3.697 25.8a.2.2 0 0 1-.012.08.2.2 0 0 1-.044.068.2.2 0 0 1-.068.044.2.2 0 0 1-.08.012" style="fill:#000;fill-opacity:1"/><path d="M148.726 130.389a.28.28 0 0 1-.213-.093.171.171 0 0 1-.044-.145.2.2 0 0 1 .029-.073.2.2 0 0 1 .058-.052l53.561-30.922a.26.26 0 0 1 .32.058.17.17 0 0 1 .015.222.2.2 0 0 1-.061.052l-53.557 30.922a.3.3 0 0 1-.108.031M149.648 136.835a.26.26 0 0 1-.212-.089.16.16 0 0 1-.046-.147.17.17 0 0 1 .092-.123l53.557-30.923a.258.258 0 0 1 .321.058q.027.03.039.068a.2.2 0 0 1 .005.078.173.173 0 0 1-.087.125l-53.561 30.922a.2.2 0 0 1-.108.031M150.57 143.286a.3.3 0 0 1-.116-.02.25.25 0 0 1-.096-.069.2.2 0 0 1-.04-.069.2.2 0 0 1-.005-.08.2.2 0 0 1 .031-.073.2.2 0 0 1 .06-.052l53.558-30.926a.261.261 0 0 1 .324.058.16.16 0 0 1 .038.068.17.17 0 0 1-.084.202l-53.558 30.938a.2.2 0 0 1-.112.023" style="fill:#000;fill-opacity:1"/><path d="M151.493 149.735a.24.24 0 0 1-.116-.023.2.2 0 0 1-.091-.062.2.2 0 0 1-.048-.1l-3.694-25.8a.17.17 0 0 1 .017-.101.2.2 0 0 1 .072-.073l53.557-30.922a.26.26 0 0 1 .232 0 .224.224 0 0 1 .139.166l3.694 25.796a.2.2 0 0 1-.02.101.2.2 0 0 1-.073.073l-53.557 30.915a.2.2 0 0 1-.112.03m-3.474-25.889 3.64 25.345 53.133-30.679-3.629-25.34z" style="fill:#000;fill-opacity:1"/></g><path fill="#455A64" d="M157.75 126.626c1.783.359 3.578.66 5.369.969l.664.115c.313.055.436-.386.104-.443a416 416 0 0 0-5.091-.85l-.961-.139c-.266-.034-.386.298-.089.356z" style="fill:#455a64;fill:color(display-p3 .2706 .3529 .3922);fill-opacity:1"/><path fill="#455A64" d="M162.853 123.457a5 5 0 0 0-.594.772l-1.031 1.567a186 186 0 0 0-2.266 3.474c-.231.359-.498.71-.702 1.085a.17.17 0 0 0-.024.117q.013.063.062.103l.054.034-.054-.177c-.069.108.131.297.213.174 0 .019.119-.047.142-.078l.047-.069.127-.197.386-.571 1.085-1.676c.772-1.192 1.544-2.389 2.316-3.582q.28-.395.459-.845c.035-.1-.104-.243-.189-.154zM165.246 122.032c1.78.359 3.574.661 5.365.969l.664.116c.313.054.437-.386.105-.444a450 450 0 0 0-5.088-.849l-.961-.147c-.266-.034-.363.298-.085.355" style="fill:#455a64;fill:color(display-p3 .2706 .3529 .3922);fill-opacity:1"/><path fill="#455A64" d="M170.345 118.856q-.334.356-.591.772l-1.034 1.563c-.772 1.158-1.509 2.316-2.262 3.474-.235.355-.498.71-.706 1.085a.17.17 0 0 0-.019.117.17.17 0 0 0 .061.103l.05.034-.05-.177c-.073.108.131.297.212.174 0 0 .116-.047.139-.078a.5.5 0 0 0 .047-.069l.127-.197.386-.571 1.085-1.676q1.158-1.787 2.316-3.582.279-.396.463-.845c.035-.1-.104-.243-.193-.154zM172.993 117.613c1.783.359 3.574.66 5.366.968l.667.116c.309.05.436-.386.105-.444a426 426 0 0 0-5.092-.849c-.32-.054-.637-.1-.961-.147-.266-.034-.363.298-.085.356" style="fill:#455a64;fill:color(display-p3 .2706 .3529 .3922);fill-opacity:1"/><path fill="#455A64" d="M178.092 114.444a5 5 0 0 0-.59.772l-1.031 1.567a208 208 0 0 0-2.266 3.474c-.232.359-.498.714-.706 1.089a.17.17 0 0 0-.019.117.17.17 0 0 0 .061.103l.05.034-.05-.177c-.069.112.131.297.212.173 0 .024.116-.046.139-.073a1 1 0 0 0 .047-.069l.108-.193.386-.575 1.084-1.672 2.316-3.582q.28-.397.46-.849c.035-.097-.104-.243-.193-.151zM180.698 113.154c1.779.359 3.574.66 5.365.969l.668.116c.309.05.436-.386.104-.444a458 458 0 0 0-5.091-.849c-.321-.054-.641-.1-.961-.147-.321-.046-.363.297-.085.355" style="fill:#455a64;fill:color(display-p3 .2706 .3529 .3922);fill-opacity:1"/><path fill="#455A64" d="M185.797 109.97a5 5 0 0 0-.591.772l-1.031 1.567a201 201 0 0 0-2.265 3.474c-.236.359-.498.714-.707 1.088a.173.173 0 0 0 .043.22l.05.035-.05-.177c-.074.112.131.297.212.173 0 .023.116-.046.139-.073a1 1 0 0 0 .046-.07l.128-.2.386-.572 1.088-1.675c.772-1.189 1.544-2.385 2.316-3.578q.276-.399.46-.849c.034-.097-.105-.243-.193-.151zM188.348 108.723c1.78.359 3.575.66 5.366.969l.664.116c.312.054.436-.386.104-.444a428 428 0 0 0-5.088-.849q-.48-.08-.961-.147c-.32-.046-.363.297-.085.355" style="fill:#455a64;fill:color(display-p3 .2706 .3529 .3922);fill-opacity:1"/><path fill="#455A64" d="M193.447 105.554q-.334.355-.59.772-.517.787-1.035 1.567c-.772 1.158-1.509 2.316-2.262 3.474-.235.359-.498.714-.706 1.088a.174.174 0 0 0 .042.22l.051.035c0-.058-.035-.116-.051-.178-.073.112.132.302.209.174 0 .023.119-.042.143-.073a1 1 0 0 0 .046-.07l.127-.197.386-.575 1.085-1.671 2.316-3.582q.28-.397.463-.845c.035-.101-.104-.244-.193-.155zM158.761 132.574c1.78.363 3.575.664 5.366.973l.664.111c.312.055.436-.386.104-.44a428 428 0 0 0-5.088-.849q-.48-.079-.961-.146c-.32-.047-.363.297-.085.351" style="fill:#455a64;fill:color(display-p3 .2706 .3529 .3922);fill-opacity:1"/><path fill="#455A64" d="M163.861 129.405a5 5 0 0 0-.595.772c-.34.525-.687 1.046-1.031 1.567-.772 1.158-1.509 2.316-2.265 3.474-.232.359-.494.714-.703 1.089a.17.17 0 0 0-.018.116.17.17 0 0 0 .061.1l.05.039-.054-.178c-.074.112.131.297.208.174 0 .023.12-.047.143-.074s.031-.05.046-.069l.128-.201.386-.571 1.084-1.675q1.158-1.784 2.316-3.582.282-.394.46-.846c.034-.1-.101-.243-.189-.154z" style="fill:#455a64;fill:color(display-p3 .2706 .3529 .3922);fill-opacity:1"/><path fill="#F7921E" d="M182.037 121.585a2.9 2.9 0 0 0-1.594-.695 3.79 3.79 0 0 0-3.204 1.007c-.108.108.105.313.22.216a3.732 3.732 0 0 1 2.772-.895 2.55 2.55 0 0 1 1.362.502 1.51 1.51 0 0 1 .51 1.297 5.5 5.5 0 0 1-.942 2.512 8 8 0 0 1-1.822 1.988 8.6 8.6 0 0 1-2.354 1.301c-.869.313-1.93.575-2.814.212a2.37 2.37 0 0 1-1.359-2.161 5.66 5.66 0 0 1 .911-3.05 8.85 8.85 0 0 1 2.466-2.524 9.4 9.4 0 0 1 1.544-.938 10 10 0 0 1 1.807-.594c.274-.074-.062-.267-.332-.224a4.8 4.8 0 0 0-1.517.436q-.963.415-1.826 1.011a9.2 9.2 0 0 0-2.567 2.559 6.06 6.06 0 0 0-.984 3.27 2.86 2.86 0 0 0 1.316 2.447c.942.556 2.139.409 3.135.097a9.2 9.2 0 0 0 2.702-1.348 8.4 8.4 0 0 0 2.038-2.084 5.96 5.96 0 0 0 1.096-2.783 1.92 1.92 0 0 0-.564-1.559M210.733 170.551v.87a1 1 0 0 1-.125.426.96.96 0 0 1-.305.322l-48.302 27.888a.97.97 0 0 1-.861 0l-34.601-19.968a.95.95 0 0 1-.43-.747v-.866a1 1 0 0 1 .125-.425c.075-.13.18-.24.305-.322l48.303-27.889a.94.94 0 0 1 .86 0l34.601 19.968a.95.95 0 0 1 .43.743" style="fill:#f7921e;fill:color(display-p3 .9686 .5725 .1176);fill-opacity:1"/><path fill="#fff" d="M126.468 177.76c-.174.138-.159.333.061.455l34.601 19.968a.83.83 0 0 0 .43.103v1.894a.9.9 0 0 1-.43-.102l-34.601-19.968a.95.95 0 0 1-.43-.748v-.865a.95.95 0 0 1 .369-.737" opacity=".4" style="fill:#fff;fill-opacity:1"/><path fill="#000" d="m210.374 169.859.036.031.062.062a.93.93 0 0 1 .215.465.4.4 0 0 1 0 .103v.87a.97.97 0 0 1-.43.748l-48.256 27.919a.9.9 0 0 1-.43.103v-1.864a.8.8 0 0 0 .43-.103l48.307-27.888a.34.34 0 0 0 .159-.169.22.22 0 0 0-.052-.236.2.2 0 0 0-.041-.041" opacity=".15" style="fill:#000;fill-opacity:1"/><path fill="#263238" d="M197.636 157.546c0-.323-.195-.645-.717-.947a3.2 3.2 0 0 0-1.536-.41h-.133c-1.347 0-2.75.625-3.943.799h-.051c-1.674.23-2.56-.292-3.379-.374a4 4 0 0 0-.399 0h-.564c-.726.053-1.457.037-2.181-.046a16 16 0 0 0-1.326-.097h-.107a1.74 1.74 0 0 0-.978.189l-1.936 1.121v.64l14.5 8.377 1.936-1.122a.565.565 0 0 0 .327-.588v-.635a2.7 2.7 0 0 0-.158-.82 3 3 0 0 1-.113-.481q.047-.225.061-.456v-.655a.7.7 0 0 0-.035-.225c-.093-.328-.548-.671-.697-1.162q.025-.09.062-.174c.302-.697 1.387-1.536 1.387-2.289-.02-.097-.02-.507-.02-.645m-2.98 1.853a3.7 3.7 0 0 1-1.05.405 2.9 2.9 0 0 1-1.971-.154.9.9 0 0 1-.348-.338 1.87 1.87 0 0 1 .783-.758 3.68 3.68 0 0 1 2.652-.399q.192.051.364.149a.9.9 0 0 1 .348.337 1.8 1.8 0 0 1-.758.758z" style="fill:#263238;fill:color(display-p3 .149 .1961 .2196);fill-opacity:1"/><path fill="#37474F" d="m182.322 156.66-1.936 1.122 14.5 8.371 1.936-1.116c.245-.144.512-.338.169-1.403s.066-1.332-.087-1.818c-.154-.486-1.06-.998-.635-1.981s2.442-2.217.67-3.241a3.2 3.2 0 0 0-1.536-.41h-.133c-1.346 0-2.749.625-3.942.799h-.051c-1.675.23-2.56-.292-3.379-.374a4 4 0 0 0-.4 0h-.563c-.727.053-1.457.038-2.181-.046a16 16 0 0 0-1.326-.097h-.128a1.75 1.75 0 0 0-.978.194m11.96 7.506a.9.9 0 0 1 .799-.072c.189.113.133.318-.118.466a.9.9 0 0 1-.793.067c-.195-.108-.118-.287.112-.456zm-2.191-6.262a3.7 3.7 0 0 1 2.652-.399q.191.051.363.149c.712.414.512 1.192-.43 1.745a3.9 3.9 0 0 1-1.049.4 2.9 2.9 0 0 1-1.971-.154c-.712-.425-.518-1.188.435-1.735zm-8.996-.199a.902.902 0 0 1 .794-.067c.194.113.143.318-.113.461a.9.9 0 0 1-.392.128.9.9 0 0 1-.407-.061c-.189-.103-.133-.313.118-.456z" style="fill:#37474f;fill:color(display-p3 .2157 .2784 .3098);fill-opacity:1"/><path fill="#F5F5F5" d="m162.912 195.157-30.111-17.382a.57.57 0 0 1-.261-.445v-.338a.57.57 0 0 1 .261-.446l39.783-22.958a.57.57 0 0 1 .512 0l30.11 17.383a.58.58 0 0 1 .256.45v.333a.57.57 0 0 1-.256.445l-39.782 22.969a.55.55 0 0 1-.512-.011" style="fill:#f5f5f5;fill:color(display-p3 .9608 .9608 .9608);fill-opacity:1"/><path fill="#FAFAFA" d="M132.735 176.592c-.072.082-.052.185.066.251l30.111 17.408a.5.5 0 0 0 .256.062v.926a.5.5 0 0 1-.256-.061l-30.111-17.383a.56.56 0 0 1-.256-.445v-.338a.62.62 0 0 1 .19-.42" style="fill:#fafafa;fill:color(display-p3 .9804 .9804 .9804);fill-opacity:1"/><path fill="#E0E0E0" d="m203.268 170.996.072.072.03.041q.042.066.072.138a1 1 0 0 1 .026.092.4.4 0 0 1 0 .067v.332a.56.56 0 0 1-.256.446l-39.783 22.968a.5.5 0 0 1-.261.062v-.922a.55.55 0 0 0 .261-.061l39.783-22.969c.117-.071.138-.179.056-.266" style="fill:#e0e0e0;fill:color(display-p3 .8784 .8784 .8784);fill-opacity:1"/><path fill="#FAFAFA" d="m170.08 158.744 4.838 2.755-4.838 2.79-4.839-2.749z" style="fill:#fafafa;fill:color(display-p3 .9804 .9804 .9804);fill-opacity:1"/><path fill="#455A64" d="m170.08 158.974-4.439 2.56 4.439 2.524 4.439-2.56zm-5.007 2.662a.2.2 0 0 1 0-.097.2.2 0 0 1 .097-.174l4.838-2.79a.19.19 0 0 1 .195 0l4.838 2.749a.2.2 0 0 1 .097.174.21.21 0 0 1-.097.174l-4.838 2.791a.2.2 0 0 1-.097.027.2.2 0 0 1-.098-.027l-4.838-2.755a.16.16 0 0 1-.097-.072" style="fill:#455a64;fill:color(display-p3 .2706 .3529 .3922);fill-opacity:1"/><path fill="#E0E0E0" d="m177.156 162.993-.348.2a.21.21 0 0 0-.106.323.2.2 0 0 0 .106.076l17.044 9.841a.77.77 0 0 0 .686 0l.353-.205a.2.2 0 0 0 .1-.077.21.21 0 0 0 0-.24.2.2 0 0 0-.1-.077l-17.044-9.841a.76.76 0 0 0-.691 0M175.052 164.212l-.349.2c-.189.113-.189.292 0 .399l17.04 9.841a.78.78 0 0 0 .691 0l.348-.205a.2.2 0 0 0 .1-.077.21.21 0 0 0 0-.24.2.2 0 0 0-.1-.077l-17.044-9.841a.77.77 0 0 0-.686 0M172.952 165.425l-.353.2a.21.21 0 0 0 0 .4l17.044 9.84a.77.77 0 0 0 .687 0l.353-.205a.214.214 0 0 0 .138-.197.21.21 0 0 0-.138-.197l-17.045-9.841a.74.74 0 0 0-.686 0" style="fill:#e0e0e0;fill:color(display-p3 .8784 .8784 .8784);fill-opacity:1"/><path fill="#F7921E" d="m168.846 162.323.374-1.506 1.121-.092-.21.855 6.17-.507-.159.645z" style="fill:#f7921e;fill:color(display-p3 .9686 .5725 .1176);fill-opacity:1"/><path fill="#FAFAFA" d="m161.212 163.864 4.839 2.754-4.839 2.791-4.833-2.755z" style="fill:#fafafa;fill:color(display-p3 .9804 .9804 .9804);fill-opacity:1"/><path fill="#455A64" d="m161.212 164.094-4.434 2.56 4.434 2.524 4.439-2.56zm-5.007 2.663a.2.2 0 0 1-.026-.098.21.21 0 0 1 .097-.174l4.839-2.79a.2.2 0 0 1 .097-.027q.052 0 .097.027l4.839 2.749a.2.2 0 0 1 .075.273.2.2 0 0 1-.075.07l-4.833 2.796a.2.2 0 0 1-.1.027.2.2 0 0 1-.1-.027l-4.833-2.755a.2.2 0 0 1-.077-.071" style="fill:#455a64;fill:color(display-p3 .2706 .3529 .3922);fill-opacity:1"/><path fill="#E0E0E0" d="m168.298 168.114-.348.199c-.195.108-.195.287 0 .4l17.039 9.84a.77.77 0 0 0 .686 0l.354-.205a.211.211 0 0 0 0-.394l-17.065-9.84a.73.73 0 0 0-.666 0M166.183 169.332l-.348.2a.21.21 0 0 0-.145.2.21.21 0 0 0 .145.199l17.045 9.841a.77.77 0 0 0 .686 0l.348-.205c.195-.107.195-.287 0-.394l-17.039-9.841a.76.76 0 0 0-.692 0M164.084 170.546l-.348.199a.21.21 0 0 0-.145.2.213.213 0 0 0 .145.2l17.04 9.84a.78.78 0 0 0 .691 0l.348-.205a.209.209 0 0 0 0-.394l-17.045-9.84a.73.73 0 0 0-.686 0" style="fill:#e0e0e0;fill:color(display-p3 .8784 .8784 .8784);fill-opacity:1"/><path fill="#F7921E" d="m159.983 167.443.374-1.506 1.121-.092-.215.855 6.175-.507-.164.645z" style="fill:#f7921e;fill:color(display-p3 .9686 .5725 .1176);fill-opacity:1"/><path fill="#455A64" d="m152.349 169.214-4.439 2.56 4.439 2.525 4.434-2.56zm-5.007 2.663a.19.19 0 0 1 .072-.272l4.833-2.795a.2.2 0 0 1 .1-.025q.053 0 .1.025l4.833 2.754a.2.2 0 0 1 .074.074.196.196 0 0 1-.069.27l-4.838 2.79a.2.2 0 0 1-.1.025.2.2 0 0 1-.1-.025l-4.833-2.755a.2.2 0 0 1-.072-.066" style="fill:#455a64;fill:color(display-p3 .2706 .3529 .3922);fill-opacity:1"/><path fill="#E0E0E0" d="m159.43 173.228-.348.205a.214.214 0 0 0-.138.197.21.21 0 0 0 .138.197l17.05 9.841a.74.74 0 0 0 .686 0l.348-.2a.21.21 0 0 0 .145-.2.21.21 0 0 0-.145-.199l-17.045-9.841a.77.77 0 0 0-.691 0M157.321 174.452l-.353.2a.2.2 0 0 0-.1.076.21.21 0 0 0 0 .241.2.2 0 0 0 .1.077l17.044 9.846a.77.77 0 0 0 .686 0l.353-.205a.2.2 0 0 0 .1-.077.211.211 0 0 0 0-.241.2.2 0 0 0-.1-.076l-17.044-9.841a.74.74 0 0 0-.686 0M155.217 175.66l-.349.205a.21.21 0 0 0-.137.197.21.21 0 0 0 .137.197l17.045 9.841a.73.73 0 0 0 .686 0l.353-.2a.21.21 0 0 0 0-.399l-17.044-9.841a.8.8 0 0 0-.691 0" style="fill:#e0e0e0;fill:color(display-p3 .8784 .8784 .8784);fill-opacity:1"/><path fill="#F7921E" d="m150.998 172.767.374-1.505 1.121-.092-.21.86 6.17-.512-.159.65z" style="fill:#f7921e;fill:color(display-p3 .9686 .5725 .1176);fill-opacity:1"/><path fill="#455A64" d="m143.482 174.329-4.439 2.56 4.439 2.524 4.439-2.56zm-5.008 2.662a.2.2 0 0 1 0-.097q0-.053.026-.1a.2.2 0 0 1 .071-.074l4.839-2.79a.2.2 0 0 1 .097-.027q.052 0 .097.027l4.839 2.754q.046.026.072.071.026.046.025.098a.197.197 0 0 1-.097.174l-4.839 2.791a.2.2 0 0 1-.097.027.2.2 0 0 1-.097-.027l-4.839-2.75a.2.2 0 0 1-.097-.077" style="fill:#455a64;fill:color(display-p3 .2706 .3529 .3922);fill-opacity:1"/><path fill="#E0E0E0" d="m150.568 178.348-.354.205a.21.21 0 0 0-.137.197.21.21 0 0 0 .137.197l17.045 9.841a.73.73 0 0 0 .686 0l.353-.2c.19-.112.19-.291 0-.399l-17.044-9.841a.77.77 0 0 0-.686 0M148.453 179.567l-.348.205a.2.2 0 0 0-.1.076.21.21 0 0 0 0 .241.2.2 0 0 0 .1.077l17.039 9.84a.74.74 0 0 0 .691 0l.349-.199a.2.2 0 0 0 .105-.077.21.21 0 0 0 0-.246.2.2 0 0 0-.105-.077l-17.045-9.84a.77.77 0 0 0-.686 0M146.354 180.781l-.353.204a.208.208 0 0 0-.1.318.2.2 0 0 0 .1.077l17.044 9.84a.74.74 0 0 0 .686 0l.353-.199a.2.2 0 0 0 .105-.077.2.2 0 0 0 .041-.123.21.21 0 0 0-.146-.2l-17.044-9.84a.76.76 0 0 0-.686 0" style="fill:#e0e0e0;fill:color(display-p3 .8784 .8784 .8784);fill-opacity:1"/><path fill="#F7921E" d="m142.017 178.097.374-1.505 1.121-.092-.215.855 6.175-.507-.164.645z" style="fill:#f7921e;fill:color(display-p3 .9686 .5725 .1176);fill-opacity:1"/><path fill="#37474F" d="m192.27 165.517-2.145-1.689a1.3 1.3 0 0 1-.123-.174l.061-.062.512-.486 1.664-1.536a.415.415 0 0 0 .159-.323v-.645a.68.68 0 0 0-.19-.43 1.7 1.7 0 0 1-.348-.824c.045-.289.183-.555.395-.758a1.73 1.73 0 0 0 .619-1.654 1.76 1.76 0 0 0-1.075-1.915 3.7 3.7 0 0 0-1.639-.394h-.071a3.7 3.7 0 0 0-2.468.876 3.25 3.25 0 0 1-1.603.609 4.6 4.6 0 0 1-1.474 0 3 3 0 0 0-.338-.036h-.036a.9.9 0 0 0-.364.037.9.9 0 0 0-.317.183l-1.433 1.332-.512.486h-.026a1.3 1.3 0 0 1-1.208.174c-.789-.333-1.163-.512-2.448-1.101a2.9 2.9 0 0 0-1.182-.24 3.9 3.9 0 0 0-1.731.435v.645l17.741 10.24a1.54 1.54 0 0 0 .338-.886v-.584a1.78 1.78 0 0 0-.758-1.28m-3.661-8.944a2.42 2.42 0 0 1 2.319-.41q.127.045.246.108c.284.135.508.37.63.66a1.23 1.23 0 0 1-.343.512 2.05 2.05 0 0 1-.712.41 2.47 2.47 0 0 1-1.863-.113.61.61 0 0 1-.611-.463.61.61 0 0 1 .334-.689z" style="fill:#37474f;fill:color(display-p3 .2157 .2784 .3098);fill-opacity:1"/><path fill="#455A64" d="m174.923 157.448 17.741 10.24c.481-.655.512-1.336-.394-2.171l-2.145-1.689s-.466-.512-.062-.881l.512-.486 1.664-1.536s.379-.266-.031-.753c-.409-.486-.604-1.633.047-2.227 1.024-.942.824-2.248-.456-2.924a3.7 3.7 0 0 0-1.639-.394h-.071a3.7 3.7 0 0 0-2.468.876 3.25 3.25 0 0 1-1.603.609 4.6 4.6 0 0 1-1.474 0 3 3 0 0 0-.338-.036h-.036a.9.9 0 0 0-.364.037.9.9 0 0 0-.317.183l-1.434 1.332-.512.486h-.025a1.3 1.3 0 0 1-1.208.174c-.789-.333-1.163-.512-2.448-1.101a2.9 2.9 0 0 0-1.183-.24 3.9 3.9 0 0 0-1.756.501m16.005-1.93q.127.047.246.113a1.02 1.02 0 0 1 .691.811 1.032 1.032 0 0 1-.404.986 2 2 0 0 1-.712.409 2.47 2.47 0 0 1-1.863-.112 1.024 1.024 0 0 1-.277-1.797 2.42 2.42 0 0 1 2.319-.41" style="fill:#455a64;fill:color(display-p3 .2706 .3529 .3922);fill-opacity:1"/></svg>