<svg xmlns="http://www.w3.org/2000/svg" width="256" height="256" fill="none"><path stroke="#D5D5D5" d="M47.06 211.54c-22.474-11.768-33.56-27.116-33.56-42.333s11.084-30.568 33.56-42.341C69.524 115.1 99 109.203 128.502 109.203c29.503 0 58.977 5.897 81.439 17.663 22.473 11.773 33.558 27.122 33.559 42.337s-11.083 30.564-33.559 42.337c-22.465 11.767-51.939 17.663-81.441 17.663s-58.976-5.896-81.44-17.663Z" style="stroke:#d5d5d5;stroke:color(display-p3 .8353 .8353 .8353);stroke-opacity:1"/><path fill="#F7921E" d="M135.361 164.378a.965.965 0 0 1-.41-1.024l9.841-43.561c.12-.42.387-.783.752-1.024l58.573-33.792a1.29 1.29 0 0 1 1.162 0 .97.97 0 0 1 .415 1.024l-9.861 43.52a1.8 1.8 0 0 1-.753 1.024l-58.557 33.792a1.3 1.3 0 0 1-1.162.041" style="fill:#f7921e;fill:color(display-p3 .9686 .5725 .1176);fill-opacity:1"/><path fill="#fff" d="M135.361 164.378a.965.965 0 0 1-.41-1.024l9.841-43.561c.12-.42.387-.783.752-1.024l58.573-33.792a1.29 1.29 0 0 1 1.162 0 .97.97 0 0 1 .415 1.024l-9.861 43.52a1.8 1.8 0 0 1-.753 1.024l-58.557 33.792a1.3 1.3 0 0 1-1.162.041" opacity=".8" style="fill:#fff;fill-opacity:1"/><path fill="#F7921E" d="m145.918 120.454-9.841 43.571c-.087.373.118.512.446.333l58.573-33.813c.368-.238.635-.602.752-1.024l9.846-43.571c.082-.374-.118-.512-.45-.328l-58.563 33.808c-.37.237-.641.601-.763 1.024" style="fill:#f7921e;fill:color(display-p3 .9686 .5725 .1176);fill-opacity:1"/><path fill="#fff" d="m145.918 120.454-9.841 43.571c-.087.373.118.512.446.333l58.573-33.813c.368-.238.635-.602.752-1.024l9.846-43.571c.082-.374-.118-.512-.45-.328l-58.563 33.808c-.37.237-.641.601-.763 1.024" opacity=".6" style="fill:#fff;fill-opacity:1"/><path fill="#000" d="m145.918 120.454-9.841 43.571c-.087.373.118.512.446.333l58.573-33.813c.368-.238.635-.602.752-1.024l9.846-43.571c.082-.374-.118-.512-.45-.328l-58.563 33.808c-.37.237-.641.601-.763 1.024" opacity=".05" style="fill:#000;fill-opacity:1"/><path fill="#F7921E" d="M206.411 85.591a1.29 1.29 0 0 0-1.167.026l-58.563 33.812a1.103 1.103 0 0 0-.512 1.024l7.68 53.97a1.6 1.6 0 0 0 .661 1.024 1.3 1.3 0 0 0 1.167 0l58.588-33.838a1.11 1.11 0 0 0 .512-1.024l-7.68-53.98a1.6 1.6 0 0 0-.686-1.014" style="fill:#f7921e;fill:color(display-p3 .9686 .5725 .1176);fill-opacity:1"/><path fill="#fff" d="M206.411 85.591a1.29 1.29 0 0 0-1.167.026l-58.563 33.812a1.103 1.103 0 0 0-.512 1.024l7.68 53.97a1.6 1.6 0 0 0 .661 1.024 1.3 1.3 0 0 0 1.167 0l58.588-33.838a1.11 1.11 0 0 0 .512-1.024l-7.68-53.98a1.6 1.6 0 0 0-.686-1.014" opacity=".8" style="fill:#fff;fill-opacity:1"/><path fill="#F7921E" d="m147.301 121.114 7.68 53.97a.44.44 0 0 0 .701.343l58.583-33.818a1.11 1.11 0 0 0 .512-1.024l-7.68-53.98a.44.44 0 0 0-.246-.386.44.44 0 0 0-.455.048l-58.568 33.792a1.1 1.1 0 0 0-.527 1.055" style="fill:#f7921e;fill:color(display-p3 .9686 .5725 .1176);fill-opacity:1"/><path fill="#fff" d="m147.301 121.114 7.68 53.97a.44.44 0 0 0 .701.343l58.583-33.818a1.11 1.11 0 0 0 .512-1.024l-7.68-53.98a.44.44 0 0 0-.246-.386.44.44 0 0 0-.455.048l-58.568 33.792a1.1 1.1 0 0 0-.527 1.055" opacity=".95" style="fill:#fff;fill-opacity:1"/><path fill="#F7921E" d="m151.565 158.28-6.876 3.968c-.14-.03-.285-.03-.425 0l-8.115 1.562 14.971-8.689z" style="fill:#f7921e;fill:color(display-p3 .9686 .5725 .1176);fill-opacity:1"/><path fill="#fff" d="m151.565 158.28-6.876 3.968c-.14-.03-.285-.03-.425 0l-8.115 1.562 14.971-8.689z" opacity=".5" style="fill:#fff;fill-opacity:1"/><path fill="#000" d="m151.565 158.28-6.876 3.968c-.14-.03-.285-.03-.425 0l-8.115 1.562 14.971-8.689z" opacity=".2" style="fill:#000;fill-opacity:1"/><path fill="#F7921E" d="m153.808 174.014-8.448-11.387a1.16 1.16 0 0 0-.64-.4l6.845-3.947z" style="fill:#f7921e;fill:color(display-p3 .9686 .5725 .1176);fill-opacity:1"/><path fill="#fff" d="m153.808 174.014-8.448-11.387a1.16 1.16 0 0 0-.64-.4l6.845-3.947z" opacity=".6" style="fill:#fff;fill-opacity:1"/><path fill="#000" d="m153.808 174.014-8.448-11.387a1.16 1.16 0 0 0-.64-.4l6.845-3.947z" opacity=".1" style="fill:#000;fill-opacity:1"/><path fill="#F7921E" d="m153.547 174.546-8.192-10.624a1.322 1.322 0 0 0-1.111-.45l-7.649 1.106a2.25 2.25 0 0 1-1.25-.226c-.312-.179-.261-.384.118-.455l8.786-1.695a1.2 1.2 0 0 1 1.096.43l9.323 12.554c.225.313.159.415-.153.236a4.1 4.1 0 0 1-.968-.876" style="fill:#f7921e;fill:color(display-p3 .9686 .5725 .1176);fill-opacity:1"/><path fill="#fff" d="m153.547 174.546-8.192-10.624a1.322 1.322 0 0 0-1.111-.45l-7.649 1.106a2.25 2.25 0 0 1-1.25-.226c-.312-.179-.261-.384.118-.455l8.786-1.695a1.2 1.2 0 0 1 1.096.43l9.323 12.554c.225.313.159.415-.153.236a4.1 4.1 0 0 1-.968-.876" opacity=".8" style="fill:#fff;fill-opacity:1"/><path fill="#F7921E" d="M205.71 85.73a.96.96 0 0 0-.425-.789 1.3 1.3 0 0 0-1.168 0l-58.573 33.828c-.364.242-.63.604-.752 1.024l-1.388 6.144 1.127.65 59.771-34.509 1.392-6.144a1 1 0 0 0 0-.215z" style="fill:#f7921e;fill:color(display-p3 .9686 .5725 .1176);fill-opacity:1"/><path fill="#000" d="M205.694 85.945c.082-.374-.118-.512-.451-.328l-58.562 33.812a1.82 1.82 0 0 0-.758 1.024l-1.387 6.144 59.771-34.508z" opacity=".6" style="fill:#000;fill-opacity:1"/><path fill="#000" d="M146.215 119.86a1.6 1.6 0 0 0-.292.594l-1.392 6.144-1.127-.661 1.388-6.144a1.7 1.7 0 0 1 .297-.594z" opacity=".5" style="fill:#000;fill-opacity:1"/><path fill="#000" d="M205.709 85.73c-.025-.21-.209-.267-.465-.113l-58.563 33.812a1.6 1.6 0 0 0-.461.43l-1.126-.65c.122-.171.277-.318.455-.43l58.568-33.802a1.3 1.3 0 0 1 1.167 0 .95.95 0 0 1 .425.752" opacity=".2" style="fill:#000;fill-opacity:1"/><path fill="#F7921E" d="m207.143 87.122-.072-.512v-.076a1.6 1.6 0 0 0-.64-.917 1.28 1.28 0 0 0-1.167.026l-58.583 33.786c-.179.109-.32.27-.404.461a1.03 1.03 0 0 0-.103.574l1.106 7.731 1.126.655 59.776-34.508z" style="fill:#f7921e;fill:color(display-p3 .9686 .5725 .1176);fill-opacity:1"/><path fill="#000" d="m208.177 94.342-59.776 34.508-1.1-7.736a1 1 0 0 1 .097-.573c.089-.189.229-.349.404-.461l58.573-33.792a.425.425 0 0 1 .671.22v.082l.072.512z" opacity=".4" style="fill:#000;fill-opacity:1"/><path fill="#000" d="m148.401 128.85-1.126-.655-1.106-7.731a1.03 1.03 0 0 1 .102-.574l1.132.65a1 1 0 0 0-.102.574z" opacity=".5" style="fill:#000;fill-opacity:1"/><path fill="#000" d="M207.051 86.513a.42.42 0 0 0-.272-.306.42.42 0 0 0-.404.065l-58.573 33.792c-.176.11-.316.271-.399.461l-1.132-.65a1.03 1.03 0 0 1 .405-.461l58.568-33.792a1.28 1.28 0 0 1 1.167-.025c.321.214.549.54.64.916" opacity=".3" style="fill:#000;fill-opacity:1"/><g fill="#000" opacity=".2"><path d="M152.671 121.175a2.02 2.02 0 0 1 .953-1.853c.624-.359 1.203-.113 1.3.553a2.01 2.01 0 0 1-.957 1.853.79.79 0 0 1-.818.123.8.8 0 0 1-.335-.27.8.8 0 0 1-.143-.406M160.571 116.619a2.01 2.01 0 0 1 .958-1.854c.619-.363 1.203-.112 1.295.548a2.01 2.01 0 0 1-.952 1.859c-.625.358-1.208.112-1.301-.553M168.461 112.062a2.01 2.01 0 0 1 .953-1.853c.624-.359 1.203-.113 1.3.553a2.04 2.04 0 0 1-.957 1.853c-.62.358-1.203.113-1.296-.553M184.247 102.948a2 2 0 0 1 .952-1.853c.625-.359 1.203-.113 1.3.553a2.01 2.01 0 0 1-.957 1.853c-.62.359-1.203.113-1.295-.553M192.147 98.386a1.99 1.99 0 0 1 .957-1.853c.62-.359 1.203-.113 1.295.553a2 2 0 0 1-.952 1.853c-.624.374-1.198.113-1.3-.553M200.036 93.83a2.02 2.02 0 0 1 .953-1.854c.624-.358 1.203-.112 1.3.553a2.01 2.01 0 0 1-.957 1.853c-.62.359-1.203.113-1.296-.552" style="fill:#000;fill-opacity:1"/></g><path fill="#37474F" d="M155.062 118.799q.001.344-.061.681a3 3 0 0 1-.087.343 2.1 2.1 0 0 1-.942 1.26 1.95 1.95 0 0 1-.999.261h-.276l-.031-.148c-.031-.31.021-.623.149-.907a1.02 1.02 0 0 0 .63-.107c.151-.117.276-.265.365-.435a1.3 1.3 0 0 0 .147-.599 4 4 0 0 0 0-.333 5.47 5.47 0 0 0-1.055-2.995 6 6 0 0 0-.748-.866 4.2 4.2 0 0 0-.752-.563 1.54 1.54 0 0 0-1.465-.2 1.5 1.5 0 0 0-.563 1.368q.006.472.118.931l-.947.548v-.061a5.3 5.3 0 0 1-.21-1.418 2.48 2.48 0 0 1 1.095-2.284c.702-.404 1.593-.333 2.525.2.43.254.822.57 1.162.937q.395.411.712.885a6.58 6.58 0 0 1 1.233 3.502M162.963 114.238q0 .343-.062.681a2.5 2.5 0 0 1-.082.353c-.143.523-.482.97-.947 1.249a1.94 1.94 0 0 1-.998.262h-.272a.7.7 0 0 1-.03-.149 1.7 1.7 0 0 1 .143-.906c.216.032.437-.006.63-.108a1.28 1.28 0 0 0 .512-.983.2.2 0 0 0 0-.046 2.4 2.4 0 0 0 0-.338 5.89 5.89 0 0 0-1.803-3.86 4 4 0 0 0-.752-.563 1.53 1.53 0 0 0-1.464-.195 1.49 1.49 0 0 0-.564 1.362q.006.473.118.932l-.947.548v-.062a5.3 5.3 0 0 1-.205-1.418 2.48 2.48 0 0 1 1.091-2.284c.701-.404 1.597-.332 2.524.2.43.255.822.57 1.162.937q.392.415.712.886a6.54 6.54 0 0 1 1.234 3.502M170.847 109.681q0 .345-.056.686-.031.177-.087.348a2.05 2.05 0 0 1-.942 1.25 1.97 1.97 0 0 1-.999.266q-.136.01-.271 0a.7.7 0 0 1-.031-.149 1.73 1.73 0 0 1 .144-.906.96.96 0 0 0 .624-.107 1.28 1.28 0 0 0 .512-1.03 2 2 0 0 0 0-.338 5.5 5.5 0 0 0-1.054-2.99 5.6 5.6 0 0 0-.748-.865 4.2 4.2 0 0 0-.752-.568 1.54 1.54 0 0 0-1.465-.195 1.49 1.49 0 0 0-.563 1.367q.005.473.118.932l-.953.548v-.067a5.3 5.3 0 0 1-.209-1.413c0-1.07.389-1.879 1.09-2.283.702-.405 1.598-.338 2.524.199.431.254.824.568 1.168.932q.39.415.711.886a6.56 6.56 0 0 1 1.239 3.497M186.617 100.583q.003.343-.056.681a4 4 0 0 1-.087.353c-.144.522-.483.97-.948 1.249a2 2 0 0 1-.993.261q-.136.012-.271 0a.7.7 0 0 1-.036-.159 1.75 1.75 0 0 1 .138-.896c.217.035.44-.001.635-.102a1.31 1.31 0 0 0 .538-1.024 3.698 3.698 0 0 0 0-.369 5.5 5.5 0 0 0-1.06-3.005 5.6 5.6 0 0 0-.753-.865 4.2 4.2 0 0 0-.742-.553 1.54 1.54 0 0 0-1.465-.2 1.51 1.51 0 0 0-.558 1.367q.003.465.113.917l-.906.563v-.051a5.3 5.3 0 0 1-.21-1.413c0-1.07.389-1.88 1.09-2.284a2.48 2.48 0 0 1 2.525.2c.429.249.819.561 1.157.926q.393.415.716.886a6.6 6.6 0 0 1 1.173 3.518M194.543 96.021q0 .346-.062.686a4 4 0 0 1-.087.353c-.137.523-.476.97-.942 1.245a1.95 1.95 0 0 1-1.024.26q-.136.009-.271 0a1 1 0 0 1-.036-.163 1.7 1.7 0 0 1 .138-.891 1 1 0 0 0 .635-.108 1.29 1.29 0 0 0 .538-1.024.1.1 0 0 0 0-.035q.009-.166 0-.333a5.44 5.44 0 0 0-1.065-3 5.7 5.7 0 0 0-.748-.871 4.4 4.4 0 0 0-.742-.553 1.53 1.53 0 0 0-1.464-.195 1.5 1.5 0 0 0-.465.609c-.099.24-.133.501-.099.759.005.306.043.612.113.91l-.947.554v-.051a5.3 5.3 0 0 1-.21-1.413c0-1.07.389-1.885 1.096-2.284.706-.4 1.597-.338 2.519.195.442.26.842.584 1.187.962q.395.415.717.886a6.56 6.56 0 0 1 1.219 3.502M202.428 91.464a3.8 3.8 0 0 1-.144 1.03c-.14.526-.48.977-.947 1.259-.304.171-.649.26-.998.256h-.267a1 1 0 0 1-.035-.164 1.7 1.7 0 0 1 .138-.891c.218.033.44-.004.635-.107a1.3 1.3 0 0 0 .512-1.055 2.4 2.4 0 0 0 0-.338 5.45 5.45 0 0 0-1.06-3 5.6 5.6 0 0 0-.753-.866 4 4 0 0 0-.737-.558 1.53 1.53 0 0 0-1.464-.194 1.48 1.48 0 0 0-.564 1.367q.003.464.113.916l-.952.548v-.051a5.3 5.3 0 0 1-.21-1.413c0-1.07.389-1.88 1.09-2.284a2.49 2.49 0 0 1 2.525.195c.426.251.814.563 1.152.926q.397.414.716.891a6.55 6.55 0 0 1 1.25 3.533" style="fill:#37474f;fill:color(display-p3 .2157 .2784 .3098);fill-opacity:1"/><path fill="#F7921E" d="m149.707 137.938 59.766-34.478-1.296-9.119-59.776 34.484z" style="fill:#f7921e;fill:color(display-p3 .9686 .5725 .1176);fill-opacity:1"/><path fill="#fff" d="m149.707 137.938 59.766-34.478-1.296-9.119-59.776 34.484z" opacity=".65" style="fill:#fff;fill-opacity:1"/><path fill="#F7921E" d="M154.417 140.15c.077.512.543.676 1.024.384l4.485-2.56a1.59 1.59 0 0 0 .779-1.439c-.072-.512-.538-.676-1.024-.384l-4.485 2.56a1.59 1.59 0 0 0-.779 1.439M161.985 135.783c.071.512.537.676 1.024.384l4.485-2.56a1.59 1.59 0 0 0 .783-1.439c-.071-.512-.512-.676-1.024-.384l-4.485 2.56a1.59 1.59 0 0 0-.783 1.439M169.552 131.415c.072.512.538.676 1.024.384l4.485-2.56a1.58 1.58 0 0 0 .778-1.439c-.071-.512-.537-.675-1.024-.384l-4.485 2.56a1.582 1.582 0 0 0-.778 1.439M177.114 127.048c.072.512.538.676 1.024.384l4.485-2.591a1.56 1.56 0 0 0 .779-1.433c-.072-.512-.538-.676-1.024-.389l-4.465 2.59a1.58 1.58 0 0 0-.799 1.439M184.682 122.675c.071.512.512.676 1.024.39l4.485-2.591a1.58 1.58 0 0 0 .783-1.434c-.071-.512-.537-.676-1.024-.389l-4.485 2.591a1.58 1.58 0 0 0-.783 1.433M192.249 118.308c.072.512.538.676 1.024.389l4.485-2.591a1.58 1.58 0 0 0 .778-1.438c-.071-.512-.537-.676-1.024-.384l-4.485 2.59a1.58 1.58 0 0 0-.778 1.434M199.811 113.941c.072.512.538.676 1.024.384l4.485-2.56a1.58 1.58 0 0 0 .784-1.439c-.072-.512-.512-.676-1.024-.384l-4.485 2.591a1.57 1.57 0 0 0-.784 1.408" style="fill:#f7921e;fill:color(display-p3 .9686 .5725 .1176);fill-opacity:1"/><g fill="#F7921E" opacity=".17"><path d="M211.091 140.201a.236.236 0 0 1-.251-.184l-3.656-25.518a.2.2 0 0 1 .011-.08.189.189 0 0 1 .189-.125.25.25 0 0 1 .16.047.25.25 0 0 1 .096.137l3.65 25.518a.2.2 0 0 1-.01.08.2.2 0 0 1-.043.068.19.19 0 0 1-.146.057M203.513 144.574a.235.235 0 0 1-.251-.185l-3.656-25.518a.192.192 0 0 1 .2-.205.235.235 0 0 1 .251.185l3.666 25.518a.19.19 0 0 1-.127.196q-.04.014-.083.009M195.956 148.941a.246.246 0 0 1-.256-.184l-3.651-25.518a.18.18 0 0 1 .052-.146.19.19 0 0 1 .143-.059.24.24 0 0 1 .162.044c.047.034.08.084.094.14l3.655 25.518a.18.18 0 0 1-.053.148.193.193 0 0 1-.146.057M188.389 153.313a.24.24 0 0 1-.256-.189l-3.656-25.518a.19.19 0 0 1 .055-.145.2.2 0 0 1 .066-.043.2.2 0 0 1 .079-.012.24.24 0 0 1 .256.185l3.65 25.518a.19.19 0 0 1-.194.204M180.821 157.681a.24.24 0 0 1-.162-.045.24.24 0 0 1-.094-.14l-3.676-25.518a.2.2 0 0 1 .053-.148.2.2 0 0 1 .067-.044.2.2 0 0 1 .08-.012.244.244 0 0 1 .256.184l3.65 25.518a.2.2 0 0 1-.008.074.2.2 0 0 1-.036.065.193.193 0 0 1-.13.066M173.249 162.053a.24.24 0 0 1-.251-.189l-3.656-25.518c0-.108.072-.195.2-.2a.235.235 0 0 1 .251.184l3.655 25.518a.18.18 0 0 1-.053.148.19.19 0 0 1-.146.057M165.681 166.42a.24.24 0 0 1-.256-.184l-3.65-25.518a.18.18 0 0 1 .053-.148.193.193 0 0 1 .146-.057.235.235 0 0 1 .251.184l3.656 25.519a.19.19 0 0 1-.12.192.2.2 0 0 1-.08.012M158.114 170.788a.24.24 0 0 1-.256-.184l-3.656-25.518a.2.2 0 0 1 .012-.079.2.2 0 0 1 .188-.126.245.245 0 0 1 .256.189l3.656 25.518a.19.19 0 0 1-.122.188.2.2 0 0 1-.078.012" style="fill:#f7921e;fill:color(display-p3 .9686 .5725 .1176);fill-opacity:1"/><path d="M155.385 151.649a.244.244 0 0 1-.25-.153.17.17 0 0 1 .023-.149.2.2 0 0 1 .058-.051l52.982-30.592a.25.25 0 0 1 .169-.024c.058.011.11.041.148.085a.2.2 0 0 1 .039.068.17.17 0 0 1-.085.199l-52.987 30.586a.2.2 0 0 1-.097.031M156.286 158.029a.25.25 0 0 1-.21-.087.2.2 0 0 1-.039-.067.17.17 0 0 1 .085-.199l52.977-30.592a.27.27 0 0 1 .323.061.18.18 0 0 1 .04.144.18.18 0 0 1-.087.123l-52.966 30.586a.2.2 0 0 1-.123.031M157.198 164.408a.252.252 0 0 1-.21-.087.176.176 0 0 1-.014-.219.2.2 0 0 1 .06-.052l52.981-30.587a.264.264 0 0 1 .318.062.167.167 0 0 1 .043.144.2.2 0 0 1-.03.072.2.2 0 0 1-.059.05l-52.977 30.587a.2.2 0 0 1-.112.03" style="fill:#f7921e;fill:color(display-p3 .9686 .5725 .1176);fill-opacity:1"/><path d="M158.114 170.788a.24.24 0 0 1-.118 0 .2.2 0 0 1-.091-.063.2.2 0 0 1-.047-.101l-3.656-25.518a.2.2 0 0 1 .021-.1.2.2 0 0 1 .071-.074l52.977-30.587a.3.3 0 0 1 .115-.027q.061 0 .115.027a.22.22 0 0 1 .139.159l3.65 25.518a.17.17 0 0 1-.017.1.17.17 0 0 1-.07.074l-52.982 30.561a.2.2 0 0 1-.107.031m-3.441-25.6 3.584 25.088 52.562-30.346-3.584-25.088z" style="fill:#f7921e;fill:color(display-p3 .9686 .5725 .1176);fill-opacity:1"/></g><g fill="#000" opacity=".17"><path d="M211.091 140.201a.236.236 0 0 1-.251-.184l-3.656-25.518a.2.2 0 0 1 .011-.08.189.189 0 0 1 .189-.125.25.25 0 0 1 .16.047.25.25 0 0 1 .096.137l3.65 25.518a.2.2 0 0 1-.01.08.2.2 0 0 1-.043.068.19.19 0 0 1-.146.057M203.513 144.574a.235.235 0 0 1-.251-.185l-3.656-25.518a.192.192 0 0 1 .2-.205.235.235 0 0 1 .251.185l3.666 25.518a.19.19 0 0 1-.127.196q-.04.014-.083.009M195.956 148.941a.246.246 0 0 1-.256-.184l-3.651-25.518a.18.18 0 0 1 .052-.146.19.19 0 0 1 .143-.059.24.24 0 0 1 .162.044c.047.034.08.084.094.14l3.655 25.518a.18.18 0 0 1-.053.148.193.193 0 0 1-.146.057M188.389 153.313a.24.24 0 0 1-.256-.189l-3.656-25.518a.19.19 0 0 1 .055-.145.2.2 0 0 1 .066-.043.2.2 0 0 1 .079-.012.24.24 0 0 1 .256.185l3.65 25.518a.19.19 0 0 1-.194.204M180.821 157.681a.24.24 0 0 1-.162-.045.24.24 0 0 1-.094-.14l-3.676-25.518a.2.2 0 0 1 .053-.148.2.2 0 0 1 .067-.044.2.2 0 0 1 .08-.012.244.244 0 0 1 .256.184l3.65 25.518a.2.2 0 0 1-.008.074.2.2 0 0 1-.036.065.193.193 0 0 1-.13.066M173.249 162.053a.24.24 0 0 1-.251-.189l-3.656-25.518c0-.108.072-.195.2-.2a.235.235 0 0 1 .251.184l3.655 25.518a.18.18 0 0 1-.053.148.19.19 0 0 1-.146.057M165.681 166.42a.24.24 0 0 1-.256-.184l-3.65-25.518a.18.18 0 0 1 .053-.148.193.193 0 0 1 .146-.057.235.235 0 0 1 .251.184l3.656 25.519a.19.19 0 0 1-.12.192.2.2 0 0 1-.08.012M158.114 170.788a.24.24 0 0 1-.256-.184l-3.656-25.518a.2.2 0 0 1 .012-.079.2.2 0 0 1 .188-.126.245.245 0 0 1 .256.189l3.656 25.518a.19.19 0 0 1-.122.188.2.2 0 0 1-.078.012" style="fill:#000;fill-opacity:1"/><path d="M155.385 151.649a.244.244 0 0 1-.25-.153.17.17 0 0 1 .023-.149.2.2 0 0 1 .058-.051l52.982-30.592a.25.25 0 0 1 .169-.024c.058.011.11.041.148.085a.2.2 0 0 1 .039.068.17.17 0 0 1-.085.199l-52.987 30.586a.2.2 0 0 1-.097.031M156.286 158.029a.25.25 0 0 1-.21-.087.2.2 0 0 1-.039-.067.17.17 0 0 1 .085-.199l52.977-30.592a.27.27 0 0 1 .323.061.18.18 0 0 1 .04.144.18.18 0 0 1-.087.123l-52.966 30.586a.2.2 0 0 1-.123.031M157.198 164.408a.252.252 0 0 1-.21-.087.176.176 0 0 1-.014-.219.2.2 0 0 1 .06-.052l52.981-30.587a.264.264 0 0 1 .318.062.167.167 0 0 1 .043.144.2.2 0 0 1-.03.072.2.2 0 0 1-.059.05l-52.977 30.587a.2.2 0 0 1-.112.03" style="fill:#000;fill-opacity:1"/><path d="M158.114 170.788a.24.24 0 0 1-.118 0 .2.2 0 0 1-.091-.063.2.2 0 0 1-.047-.101l-3.656-25.518a.2.2 0 0 1 .021-.1.2.2 0 0 1 .071-.074l52.977-30.587a.3.3 0 0 1 .115-.027q.061 0 .115.027a.22.22 0 0 1 .139.159l3.65 25.518a.17.17 0 0 1-.017.1.17.17 0 0 1-.07.074l-52.982 30.561a.2.2 0 0 1-.107.031m-3.441-25.6 3.584 25.088 52.562-30.346-3.584-25.088z" style="fill:#000;fill-opacity:1"/></g><path fill="#455A64" d="M171.375 121.268q.001.48-.118.947a3.4 3.4 0 0 1-.323.819 3 3 0 0 1-.471.655 2.7 2.7 0 0 1-.563.451c-.179.112-.38.183-.589.21a.75.75 0 0 1-.46-.092.77.77 0 0 1-.308-.389 1.8 1.8 0 0 1-.117-.676q0-.073.03-.138a.2.2 0 0 1 .077-.093l.635-.368c.061-.036.102-.041.123-.026a.35.35 0 0 1 .061.143.42.42 0 0 0 .185.287c.082.041.204 0 .363-.077a1.07 1.07 0 0 0 .425-.466c.097-.222.145-.463.138-.706v-2.13l-1.689.978a.08.08 0 0 1-.098 0 .17.17 0 0 1-.035-.123v-.809a.4.4 0 0 1 .035-.164.26.26 0 0 1 .098-.118l2.483-1.433a.07.07 0 0 1 .092 0 .148.148 0 0 1 .041.123zM172.03 121.708a2.05 2.05 0 0 1 .251-.978c.209-.366.485-.689.814-.952l.579-.487a.4.4 0 0 0-.067-.261c-.041-.056-.118-.051-.22 0a.6.6 0 0 0-.179.149 1 1 0 0 0-.087.143.425.425 0 0 1-.18.194l-.629.364a.1.1 0 0 1-.041.012.1.1 0 0 1-.041-.012.13.13 0 0 1 0-.108q.015-.217.097-.419a3 3 0 0 1 .246-.512q.16-.258.368-.482.21-.22.471-.373c.155-.101.33-.166.512-.19a.5.5 0 0 1 .369.103.7.7 0 0 1 .215.358q.076.282.072.573v2.31a.4.4 0 0 1-.041.163.25.25 0 0 1-.092.118l-.625.359a.1.1 0 0 1-.046.016.1.1 0 0 1-.046-.016.17.17 0 0 1-.041-.123v-.21a2.6 2.6 0 0 1-.297.512 1.6 1.6 0 0 1-.461.399.85.85 0 0 1-.379.128.4.4 0 0 1-.276-.092.6.6 0 0 1-.174-.282 1.6 1.6 0 0 1-.072-.404m1.126-.481a.7.7 0 0 0 .205-.175q.098-.114.164-.25a1.44 1.44 0 0 0 .149-.599l-.456.368a1 1 0 0 0-.215.251.54.54 0 0 0-.082.287c0 .097 0 .148.061.164.062.015.098 0 .174-.046M178 119.179a.34.34 0 0 1-.041.169.25.25 0 0 1-.092.117l-.625.359a.07.07 0 0 1-.092 0 .2.2 0 0 1-.033-.057.2.2 0 0 1-.008-.066v-1.956a.8.8 0 0 0-.102-.466q-.106-.138-.328 0a.74.74 0 0 0-.322.389 1.5 1.5 0 0 0-.103.584v1.925a.4.4 0 0 1-.041.169.25.25 0 0 1-.092.118l-.625.358a.08.08 0 0 1-.048.018.1.1 0 0 1-.049-.018.17.17 0 0 1-.036-.123v-3.553a.4.4 0 0 1 .036-.169.26.26 0 0 1 .097-.112l.599-.349a.1.1 0 0 1 .046-.016q.026 0 .047.016a.2.2 0 0 1 .033.055q.01.03.008.063v.179c.025-.066.061-.138.097-.22q.063-.12.143-.23.089-.118.195-.22.12-.11.261-.19a1 1 0 0 1 .435-.148.444.444 0 0 1 .343.117c.108.117.184.26.22.415q.086.362.077.732zM178.773 115.185a.4.4 0 0 1 .041-.164.25.25 0 0 1 .092-.118l.625-.358a.07.07 0 0 1 .092 0 .162.162 0 0 1 .041.123v1.93a.9.9 0 0 0 .092.471c.067.097.169.102.313 0a.7.7 0 0 0 .312-.374c.064-.186.095-.382.092-.578v-1.931a.4.4 0 0 1 .036-.169.24.24 0 0 1 .097-.112l.625-.364a.07.07 0 0 1 .092 0 .17.17 0 0 1 .041.118v3.574a.4.4 0 0 1-.041.169.27.27 0 0 1-.092.117l-.579.328a.07.07 0 0 1-.092 0 .2.2 0 0 1-.033-.057.2.2 0 0 1-.008-.066v-.174a2 2 0 0 1-.097.22q-.059.12-.138.226-.09.117-.195.22a1.5 1.5 0 0 1-.266.194c-.323.185-.574.195-.763 0a1.58 1.58 0 0 1-.287-1.152zM182.009 115.938a2.1 2.1 0 0 1 .251-.973c.211-.365.487-.688.814-.953l.579-.512a.43.43 0 0 0-.062-.261c-.046-.056-.118-.051-.225 0a.5.5 0 0 0-.174.149 2 2 0 0 0-.092.143.6.6 0 0 1-.082.123.5.5 0 0 1-.098.072l-.629.363a.1.1 0 0 1-.041.012.1.1 0 0 1-.041-.012.15.15 0 0 1 0-.107q.018-.22.102-.425.094-.269.241-.512.165-.257.374-.482.204-.222.465-.373c.155-.1.33-.164.512-.19a.5.5 0 0 1 .369.103.7.7 0 0 1 .215.358q.076.282.072.574v2.309a.4.4 0 0 1-.041.163.23.23 0 0 1-.097.118l-.62.359h-.097a.17.17 0 0 1-.041-.123v-.164a2.3 2.3 0 0 1-.292.512 1.5 1.5 0 0 1-.466.399.8.8 0 0 1-.379.128.42.42 0 0 1-.276-.092.65.65 0 0 1-.169-.281 1.5 1.5 0 0 1-.072-.425m1.132-.477a.7.7 0 0 0 .199-.174q.1-.113.164-.251a2 2 0 0 0 .113-.291 1.4 1.4 0 0 0 .036-.313l-.456.374a1 1 0 0 0-.215.251.6.6 0 0 0-.082.287c0 .092 0 .148.061.163a.22.22 0 0 0 .185-.046zM187.129 110.142a.07.07 0 0 1 .092 0c.031 0 .041.061.041.118v.773a.3.3 0 0 1-.041.164.25.25 0 0 1-.092.117l-.45.261a1.03 1.03 0 0 0-.456.963v1.874a.4.4 0 0 1-.036.169.3.3 0 0 1-.097.118l-.625.358a.07.07 0 0 1-.092 0 .16.16 0 0 1-.041-.123v-3.553a.4.4 0 0 1 .041-.169.24.24 0 0 1 .092-.113l.574-.333h.097a.2.2 0 0 1 .033.058.2.2 0 0 1 .008.065v.2a2 2 0 0 1 .271-.43 1.3 1.3 0 0 1 .384-.328zM189.208 114.161q-.018.076-.046.148a.25.25 0 0 1-.098.118l-.645.374a.07.07 0 0 1-.087 0 .17.17 0 0 1-.036-.113v-.056l.379-1.582-.993-2.985a.2.2 0 0 1 0-.051q0-.078.031-.149a.25.25 0 0 1 .087-.102l.645-.374a.07.07 0 0 1 .097 0 .4.4 0 0 1 .051.097l.548 1.664.543-2.299a.7.7 0 0 1 .051-.148.25.25 0 0 1 .092-.118l.656-.374a.06.06 0 0 1 .041-.015q.023 0 .041.015a.2.2 0 0 1 .029.053q.009.03.006.06a.2.2 0 0 1 0 .056z" style="fill:#455a64;fill:color(display-p3 .2706 .3529 .3922);fill-opacity:1"/><path fill="#F28F8F" d="m205.003 124.713.445.63a.1.1 0 0 0 .053.039.1.1 0 0 0 .065-.003l.753-.292c.117-.046.189.102.123.251l-.441.942a.25.25 0 0 0 0 .179l.256.824c.041.133-.066.313-.179.308l-.717-.047a.2.2 0 0 0-.077.021.2.2 0 0 0-.056.056l-.594.799c-.097.128-.23.092-.235-.061v-.973a.14.14 0 0 0-.067-.133l-.619-.328c-.098-.051-.077-.256.035-.343l.717-.558a.3.3 0 0 0 .092-.154l.21-1.024c.011-.143.164-.23.236-.133" style="fill:#f28f8f;fill:color(display-p3 .949 .5608 .5608);fill-opacity:1"/><path fill="#F28F8F" d="M209.37 124.468a2.603 2.603 0 0 0-1.92-2.146c-1.433-.363-2.447.62-3.189 1.439-.195.22.225.302.384.149.778-.753 2.309-1.536 3.394-.615 1.086.922.794 2.34.461 3.4a4.945 4.945 0 0 1-4.71 3.451c-5.172-.118-.738-8.074 2.232-8.638.24-.046.363-.379.031-.409-1.536-.154-2.479 1.06-3.308 1.981a8.8 8.8 0 0 0-1.976 3.446c-.681 2.376 1.234 5.176 4.418 4.132 2.791-.917 4.741-3.492 4.183-6.19M172.747 152.592a2.607 2.607 0 0 0-1.92-2.146c-1.434-.363-2.447.615-3.19 1.439-.194.215.226.297.384.149.779-.753 2.309-1.537 3.395-.615s.793 2.34.461 3.4a4.95 4.95 0 0 1-4.711 3.451c-5.171-.118-.737-8.075 2.233-8.638.24-.046.363-.379.03-.414-1.536-.149-2.478 1.064-3.307 1.986a8.8 8.8 0 0 0-1.977 3.446c-.681 2.37 1.234 5.176 4.419 4.132 2.79-.917 4.741-3.497 4.183-6.19" style="fill:#f28f8f;fill:color(display-p3 .949 .5608 .5608);fill-opacity:1"/><path fill="#F7921E" d="M215.506 191.51v.87a.94.94 0 0 1-.43.748l-48.302 27.888a.97.97 0 0 1-.86 0l-34.601-19.968a.94.94 0 0 1-.43-.747v-.866a.94.94 0 0 1 .43-.747l48.302-27.889a.95.95 0 0 1 .86 0l34.601 19.968a.94.94 0 0 1 .43.743" style="fill:#f7921e;fill:color(display-p3 .9686 .5725 .1176);fill-opacity:1"/><path fill="#fff" d="M131.241 198.719c-.174.138-.158.333.062.455l34.601 19.968c.131.073.28.108.43.103v1.894a.9.9 0 0 1-.43-.102l-34.601-19.968a.95.95 0 0 1-.43-.748v-.865a.94.94 0 0 1 .101-.41.94.94 0 0 1 .267-.327" opacity=".4" style="fill:#fff;fill-opacity:1"/><path fill="#000" d="m215.148 190.818.036.031.061.062a.9.9 0 0 1 .215.465.4.4 0 0 1 0 .103v.87a.97.97 0 0 1-.43.748l-48.256 27.919a.9.9 0 0 1-.43.103v-1.864a.8.8 0 0 0 .43-.103l48.308-27.888a.34.34 0 0 0 .158-.169.22.22 0 0 0-.051-.236.2.2 0 0 0-.041-.041" opacity=".15" style="fill:#000;fill-opacity:1"/><path fill="#263238" d="M202.409 178.505c0-.323-.194-.645-.716-.947a3.2 3.2 0 0 0-1.536-.41h-.133c-1.347 0-2.75.625-3.943.799h-.051c-1.674.23-2.56-.292-3.379-.374a4 4 0 0 0-.4 0h-.563c-.727.053-1.457.037-2.181-.046a16 16 0 0 0-1.326-.097h-.108a1.73 1.73 0 0 0-.977.189l-1.936 1.121v.64l14.5 8.377 1.935-1.122a.56.56 0 0 0 .328-.588v-.635a2.7 2.7 0 0 0-.159-.82 3 3 0 0 1-.112-.481 3 3 0 0 0 .061-.456V183a.7.7 0 0 0-.036-.225c-.092-.328-.548-.671-.696-1.162a1.4 1.4 0 0 1 .061-.174c.302-.697 1.388-1.536 1.388-2.289-.021-.097-.021-.507-.021-.645m-2.979 1.853a3.8 3.8 0 0 1-1.05.405 2.9 2.9 0 0 1-1.971-.154.9.9 0 0 1-.348-.338c.179-.325.452-.589.783-.758a3.68 3.68 0 0 1 2.652-.399q.191.051.364.149a.9.9 0 0 1 .348.337 1.8 1.8 0 0 1-.758.758z" style="fill:#263238;fill:color(display-p3 .149 .1961 .2196);fill-opacity:1"/><path fill="#37474F" d="m187.096 177.619-1.936 1.122 14.5 8.371 1.935-1.116c.246-.144.512-.338.169-1.403s.067-1.332-.087-1.818c-.153-.486-1.06-.998-.635-1.981s2.443-2.217.671-3.241a3.2 3.2 0 0 0-1.536-.41h-.133c-1.347 0-2.749.625-3.942.799h-.052c-1.674.23-2.56-.292-3.379-.374a4 4 0 0 0-.399 0h-.563c-.727.053-1.457.038-2.181-.046a16 16 0 0 0-1.327-.097h-.128a1.74 1.74 0 0 0-.977.194m11.96 7.506a.903.903 0 0 1 .799-.072c.189.113.133.318-.118.466a.9.9 0 0 1-.389.126.9.9 0 0 1-.405-.059c-.194-.108-.118-.287.113-.456zm-2.192-6.262a3.7 3.7 0 0 1 2.653-.399q.191.051.363.149c.712.414.512 1.192-.43 1.745a3.9 3.9 0 0 1-1.05.4 2.9 2.9 0 0 1-1.971-.154c-.711-.425-.517-1.188.435-1.735zm-8.995-.199a.898.898 0 0 1 .793-.067c.195.113.144.318-.112.461a.9.9 0 0 1-.392.128.9.9 0 0 1-.407-.061c-.19-.103-.133-.313.118-.456z" style="fill:#37474f;fill:color(display-p3 .2157 .2784 .3098);fill-opacity:1"/><path fill="#F5F5F5" d="m167.686 216.116-30.111-17.382a.56.56 0 0 1-.261-.445v-.338a.563.563 0 0 1 .261-.446l39.782-22.958a.57.57 0 0 1 .512 0l30.111 17.383q.114.076.181.195t.075.255v.333a.58.58 0 0 1-.256.445l-39.782 22.969a.538.538 0 0 1-.512-.011" style="fill:#f5f5f5;fill:color(display-p3 .9608 .9608 .9608);fill-opacity:1"/><path fill="#FAFAFA" d="M137.508 197.551c-.071.082-.051.185.067.251l30.111 17.408a.5.5 0 0 0 .256.062v.926a.47.47 0 0 1-.256-.061l-30.111-17.383a.55.55 0 0 1-.256-.445v-.338a.63.63 0 0 1 .189-.42" style="fill:#fafafa;fill:color(display-p3 .9804 .9804 .9804);fill-opacity:1"/><path fill="#E0E0E0" d="m208.041 191.955.072.072.031.041q.042.066.072.138.016.045.025.092a.3.3 0 0 1 0 .067v.332a.56.56 0 0 1-.256.446l-39.782 22.968a.5.5 0 0 1-.261.062v-.922c.09.002.18-.02.261-.061l39.782-22.969c.118-.071.138-.179.056-.266" style="fill:#e0e0e0;fill:color(display-p3 .8784 .8784 .8784);fill-opacity:1"/><path fill="#FAFAFA" d="m174.854 179.703 4.838 2.755-4.838 2.79-4.839-2.749z" style="fill:#fafafa;fill:color(display-p3 .9804 .9804 .9804);fill-opacity:1"/><path fill="#455A64" d="m174.854 179.933-4.439 2.56 4.439 2.524 4.439-2.56zm-5.008 2.662a.2.2 0 0 1 0-.097q0-.053.026-.1a.2.2 0 0 1 .072-.074l4.838-2.79a.188.188 0 0 1 .195 0l4.838 2.749a.2.2 0 0 1 .097.174.21.21 0 0 1-.097.174l-4.838 2.791a.2.2 0 0 1-.098.027.2.2 0 0 1-.097-.027l-4.838-2.755a.16.16 0 0 1-.098-.072" style="fill:#455a64;fill:color(display-p3 .2706 .3529 .3922);fill-opacity:1"/><path fill="#E0E0E0" d="m181.929 183.952-.348.2a.21.21 0 0 0-.145.2.21.21 0 0 0 .145.199l17.045 9.841a.77.77 0 0 0 .686 0l.353-.205a.21.21 0 0 0 .1-.317.2.2 0 0 0-.1-.077l-17.044-9.841a.76.76 0 0 0-.692 0M179.825 185.171l-.348.2c-.189.113-.189.292 0 .399l17.039 9.841a.78.78 0 0 0 .692 0l.348-.205a.214.214 0 0 0 .138-.197.21.21 0 0 0-.138-.197l-17.045-9.841a.77.77 0 0 0-.686 0M177.726 186.384l-.353.2a.21.21 0 0 0 0 .4l17.044 9.84a.77.77 0 0 0 .686 0l.354-.205a.2.2 0 0 0 .099-.077.21.21 0 0 0 0-.24.2.2 0 0 0-.099-.077l-17.045-9.841a.74.74 0 0 0-.686 0" style="fill:#e0e0e0;fill:color(display-p3 .8784 .8784 .8784);fill-opacity:1"/><path fill="#F7921E" d="m173.62 183.282.373-1.506 1.122-.092-.21.855 6.169-.507-.158.645z" style="fill:#f7921e;fill:color(display-p3 .9686 .5725 .1176);fill-opacity:1"/><path fill="#FAFAFA" d="m165.986 184.823 4.838 2.754-4.838 2.791-4.833-2.755z" style="fill:#fafafa;fill:color(display-p3 .9804 .9804 .9804);fill-opacity:1"/><path fill="#455A64" d="m165.986 185.053-4.434 2.56 4.434 2.524 4.439-2.56zm-5.008 2.663a.21.21 0 0 1 0-.198.2.2 0 0 1 .072-.074l4.839-2.79a.2.2 0 0 1 .097-.027q.052 0 .097.027l4.839 2.749a.21.21 0 0 1 .102.174.2.2 0 0 1-.027.099.2.2 0 0 1-.075.07l-4.834 2.796a.2.2 0 0 1-.1.027.2.2 0 0 1-.099-.027l-4.834-2.755a.2.2 0 0 1-.077-.071" style="fill:#455a64;fill:color(display-p3 .2706 .3529 .3922);fill-opacity:1"/><path fill="#E0E0E0" d="m173.072 189.073-.348.199c-.195.108-.195.287 0 .4l17.039 9.84a.77.77 0 0 0 .686 0l.353-.205a.2.2 0 0 0 .1-.076.21.21 0 0 0 0-.241.2.2 0 0 0-.1-.077l-17.065-9.84a.73.73 0 0 0-.665 0M170.957 190.291l-.348.2a.21.21 0 0 0-.145.2.21.21 0 0 0 .145.199l17.044 9.841a.77.77 0 0 0 .687 0l.348-.205c.194-.107.194-.287 0-.394l-17.04-9.841a.75.75 0 0 0-.691 0M168.858 191.505l-.348.199a.21.21 0 0 0-.145.2.213.213 0 0 0 .145.2l17.039 9.84a.79.79 0 0 0 .691 0l.349-.205a.2.2 0 0 0 .1-.076.213.213 0 0 0 0-.241.2.2 0 0 0-.1-.077l-17.045-9.84a.73.73 0 0 0-.686 0" style="fill:#e0e0e0;fill:color(display-p3 .8784 .8784 .8784);fill-opacity:1"/><path fill="#F7921E" d="m164.757 188.402.374-1.506 1.121-.092-.215.855 6.175-.507-.164.645z" style="fill:#f7921e;fill:color(display-p3 .9686 .5725 .1176);fill-opacity:1"/><path fill="#455A64" d="m157.123 190.173-4.439 2.56 4.439 2.525 4.434-2.56zm-5.007 2.663a.19.19 0 0 1 .071-.272l4.834-2.795a.2.2 0 0 1 .099-.025q.054 0 .1.025l4.834 2.754q.046.028.074.074a.2.2 0 0 1 .028.101q0 .052-.027.097a.2.2 0 0 1-.07.072l-4.839 2.79a.22.22 0 0 1-.199 0l-4.834-2.755a.2.2 0 0 1-.071-.066" style="fill:#455a64;fill:color(display-p3 .2706 .3529 .3922);fill-opacity:1"/><path fill="#E0E0E0" d="m164.204 194.187-.348.205a.2.2 0 0 0-.1.077.21.21 0 0 0 0 .24.2.2 0 0 0 .1.077l17.049 9.841a.75.75 0 0 0 .686 0l.349-.2a.21.21 0 0 0 .145-.2.21.21 0 0 0-.145-.199l-17.045-9.841a.77.77 0 0 0-.691 0M162.095 195.411l-.354.2a.2.2 0 0 0-.1.076.213.213 0 0 0 0 .241q.039.054.1.077l17.045 9.846a.77.77 0 0 0 .686 0l.353-.205a.2.2 0 0 0 .1-.077.211.211 0 0 0-.1-.318l-17.044-9.84a.74.74 0 0 0-.686 0M159.99 196.619l-.348.205a.214.214 0 0 0-.138.197.209.209 0 0 0 .138.197l17.045 9.841a.73.73 0 0 0 .686 0l.353-.2a.21.21 0 0 0 0-.399l-17.045-9.841a.79.79 0 0 0-.691 0" style="fill:#e0e0e0;fill:color(display-p3 .8784 .8784 .8784);fill-opacity:1"/><path fill="#F7921E" d="m155.771 193.726.374-1.505 1.122-.092-.21.86 6.169-.512-.159.65z" style="fill:#f7921e;fill:color(display-p3 .9686 .5725 .1176);fill-opacity:1"/><path fill="#455A64" d="m148.255 195.288-4.439 2.56 4.439 2.524 4.439-2.56zm-5.007 2.662a.2.2 0 0 1 0-.097.2.2 0 0 1 .097-.174l4.839-2.79a.2.2 0 0 1 .097-.027q.052 0 .097.027l4.839 2.754q.045.027.072.071.025.046.025.098 0 .054-.026.1a.2.2 0 0 1-.071.074l-4.839 2.791a.2.2 0 0 1-.097.027.2.2 0 0 1-.097-.027l-4.839-2.75a.2.2 0 0 1-.097-.077" style="fill:#455a64;fill:color(display-p3 .2706 .3529 .3922);fill-opacity:1"/><path fill="#E0E0E0" d="m155.341 199.307-.353.205a.214.214 0 0 0-.138.197.209.209 0 0 0 .138.197l17.045 9.841a.73.73 0 0 0 .686 0l.353-.2c.189-.112.189-.291 0-.399l-17.045-9.841a.77.77 0 0 0-.686 0M153.227 200.526l-.349.204a.21.21 0 0 0-.137.198q0 .066.038.12a.2.2 0 0 0 .099.077l17.04 9.84a.74.74 0 0 0 .691 0l.348-.199a.21.21 0 0 0 .145-.2.213.213 0 0 0-.145-.2l-17.044-9.84a.76.76 0 0 0-.686 0M151.127 201.74l-.353.204a.214.214 0 0 0-.138.197.2.2 0 0 0 .038.121q.039.053.1.077l17.045 9.84a.73.73 0 0 0 .686 0l.353-.199a.21.21 0 0 0 .145-.2.2.2 0 0 0-.04-.124.2.2 0 0 0-.105-.076l-17.044-9.84a.76.76 0 0 0-.687 0" style="fill:#e0e0e0;fill:color(display-p3 .8784 .8784 .8784);fill-opacity:1"/><path fill="#F7921E" d="m146.791 199.056.374-1.505 1.121-.092-.215.855 6.174-.507-.163.645z" style="fill:#f7921e;fill:color(display-p3 .9686 .5725 .1176);fill-opacity:1"/><path fill="#37474F" d="m197.044 186.476-2.146-1.689a2 2 0 0 1-.123-.174l.062-.062.512-.486 1.664-1.536a.4.4 0 0 0 .116-.143.4.4 0 0 0 .043-.18v-.645a.7.7 0 0 0-.19-.43 1.7 1.7 0 0 1-.348-.824c.045-.289.183-.556.394-.758a1.74 1.74 0 0 0 .62-1.654 1.757 1.757 0 0 0-1.075-1.915 3.7 3.7 0 0 0-1.639-.394h-.072a3.7 3.7 0 0 0-2.467.876 3.25 3.25 0 0 1-1.603.609 4.6 4.6 0 0 1-1.474 0 3 3 0 0 0-.338-.036h-.036a.875.875 0 0 0-.681.22l-1.434 1.332-.512.486h-.025a1.31 1.31 0 0 1-1.209.174c-.788-.333-1.162-.512-2.447-1.101a2.9 2.9 0 0 0-1.183-.24 3.9 3.9 0 0 0-1.73.435v.645l17.74 10.24c.204-.252.322-.562.338-.886v-.584a1.782 1.782 0 0 0-.757-1.28m-3.661-8.944a2.41 2.41 0 0 1 2.319-.41q.127.045.246.108c.284.135.508.37.63.66a1.23 1.23 0 0 1-.343.512c-.207.183-.45.323-.712.41a2.47 2.47 0 0 1-1.864-.113.606.606 0 0 1-.566-.867.6.6 0 0 1 .29-.285z" style="fill:#37474f;fill:color(display-p3 .2157 .2784 .3098);fill-opacity:1"/><path fill="#455A64" d="m179.697 178.407 17.741 10.24c.481-.655.512-1.336-.394-2.171l-2.146-1.689s-.466-.512-.061-.881l.512-.486 1.664-1.536s.379-.266-.031-.753c-.409-.486-.604-1.633.046-2.227 1.024-.942.825-2.248-.455-2.924a3.7 3.7 0 0 0-1.639-.394h-.072a3.7 3.7 0 0 0-2.467.876 3.25 3.25 0 0 1-1.603.609 4.6 4.6 0 0 1-1.475 0 3 3 0 0 0-.337-.036h-.036a.875.875 0 0 0-.681.22l-1.434 1.332-.512.486h-.025a1.31 1.31 0 0 1-1.209.174c-.788-.333-1.162-.512-2.447-1.101a2.9 2.9 0 0 0-1.183-.24 3.9 3.9 0 0 0-1.756.501m16.005-1.93q.127.047.246.113a1.03 1.03 0 0 1 .691.811 1.03 1.03 0 0 1-.404.986c-.208.183-.45.322-.712.409a2.47 2.47 0 0 1-1.864-.112 1.02 1.02 0 0 1-.684-.815 1.02 1.02 0 0 1 .408-.982 2.41 2.41 0 0 1 2.319-.41M58.968 186.993 52.353 199.9a3.43 3.43 0 0 0-.33 2.657 3.42 3.42 0 0 0 1.683 2.082 3.423 3.423 0 0 0 4.688-1.518l6.656-12.979c.645-1.244-.194-2.96-1.879-3.825-1.684-.865-3.563-.568-4.203.676M110.654 159.975l12.908 6.615a3.422 3.422 0 0 0 4.526-1.467 3.422 3.422 0 0 0-1.306-4.575l-12.979-6.656c-1.244-.645-2.96.2-3.83 1.879s-.563 3.564.681 4.204" style="fill:#455a64;fill:color(display-p3 .2706 .3529 .3922);fill-opacity:1"/><path fill="#F7921E" d="m121.805 102.718-.061-.031-23.322-11.965-.087-.041c-6.896-3.492-16.112-2.468-26.035 3.922-19.932 12.835-35.159 42.439-34.012 66.119.573 11.807 5.12 19.907 11.98 23.475l.062.031 23.332 11.966.072.035c6.901 3.508 16.123 2.484 26.055-3.911 19.933-12.841 35.159-42.44 34.007-66.125-.583-11.802-5.114-19.902-11.991-23.475" style="fill:#f7921e;fill:color(display-p3 .9686 .5725 .1176);fill-opacity:1"/><path fill="#000" d="m73.14 195.917-22.794-11.699-.067-.041c-6.866-3.584-11.402-11.684-11.976-23.47-.512-10.563 2.238-22.293 7.199-33.188l23.276 11.971c-4.952 10.895-7.68 22.625-7.169 33.187.553 11.551 4.905 19.554 11.53 23.24" opacity=".1" style="fill:#000;fill-opacity:1"/><path fill="#fff" d="M124.692 163.328c13.282-25.822 11.963-52.971-2.946-60.64s-37.762 7.047-51.044 32.869-11.963 52.972 2.945 60.64c14.91 7.669 37.762-7.047 51.045-32.869" opacity=".4" style="fill:#fff;fill-opacity:1"/><path fill="#FAFAFA" d="M83.073 190.664c-11.776.573-13.66-12.642-13.942-18.35-1.024-20.885 12.984-48.098 30.561-59.392 4.475-2.883 8.842-4.501 12.626-4.685 11.776-.574 13.665 12.641 13.942 18.35 1.024 20.884-12.979 48.097-30.562 59.418-4.474 2.882-8.842 4.5-12.62 4.684z" style="fill:#fafafa;fill:color(display-p3 .9804 .9804 .9804);fill-opacity:1"/><path fill="#F7921E" d="M92.785 177.029a.5.5 0 0 1-.179-.025.54.54 0 0 1-.363-.666l7.09-23.9a.53.53 0 0 1 .257-.318.538.538 0 0 1 .725.214.53.53 0 0 1 .043.406l-7.081 23.9a.55.55 0 0 1-.492.389" style="fill:#f7921e;fill:color(display-p3 .9686 .5725 .1176);fill-opacity:1"/><path fill="#37474F" d="M112.809 146.079a1.6 1.6 0 0 1-.45.481l-11.838 8.351-19.097-11.674a1.6 1.6 0 0 1-.727-.999 1.61 1.61 0 0 1 1.19-1.947 1.6 1.6 0 0 1 1.221.192l17.27 10.557 10.133-7.137a1.617 1.617 0 0 1 2.309 2.166z" style="fill:#37474f;fill:color(display-p3 .2157 .2784 .3098);fill-opacity:1"/><path fill="#F7921E" d="M99.595 147.39c2.345-1.511 4.357-.477 4.495 2.309s-1.659 6.267-4.004 7.777-4.357.476-4.49-2.309 1.654-6.267 3.999-7.777" style="fill:#f7921e;fill:color(display-p3 .9686 .5725 .1176);fill-opacity:1"/><path fill="#B16668" d="M111.821 65.434a3.59 3.59 0 0 1 2.509-.794 9.4 9.4 0 0 0 1.403 0 1.8 1.8 0 0 0 1.475-.932c.066-.143.102-.292.169-.43.107-.22.281-.4.399-.614.17-.313.216-.679.128-1.024a.8.8 0 0 1-.056-.4.8.8 0 0 1 .179-.302 1.44 1.44 0 0 0 .133-1.47 2 2 0 0 1-.174-.373c-.067-.282.087-.563.097-.85.056-1.285-2.079-1.1-2.841-.926-.216.05-1.286.266-1.772.383.11-.702.11-1.417 0-2.12-.179-1.356-1.475-1.996-1.628-1.197-.087.455 0 1.735-.548 2.8a6 6 0 0 0-.783 1.536c-.2.722-.446 1.23-2.048 2.76-1.495 1.428-7.168 5.975-7.168 5.975s-5.955-10.291-7.43-13.03c-2.974-5.566-8.232-4.393-8.232-4.393l1.126 7.388s9.472 15.022 11.095 17.096 3.794 1.433 4.961.389c1.685-1.5 6.062-6.564 9.006-9.472" style="fill:#b16668;fill:color(display-p3 .6941 .4 .4078);fill-opacity:1"/><path fill="#F7921E" d="M84.85 50.125s4.495-1.07 6.696 1.024c2.048 1.945 2.883 3.584 5.499 8.56 2.406 4.557 4.096 7.169 4.096 7.169s-2.084 4.608-5.868 4.32l-5.893-8.631z" style="fill:#f7921e;fill:color(display-p3 .9686 .5725 .1176);fill-opacity:1"/><path fill="#000" d="M84.85 50.125s4.495-1.07 6.696 1.024c2.048 1.945 2.883 3.584 5.499 8.56 2.406 4.557 4.096 7.169 4.096 7.169s-2.084 4.608-5.868 4.32l-5.893-8.631z" opacity=".6" style="fill:#000;fill-opacity:1"/><path fill="#9A4A4D" d="M114.018 58.179c-.604.174-.993.588-1.162 1.654-.103.634-.579 1.72-1.347 2.047.336.023.671-.055.963-.225.384-.276.476-.297.624-.072.112.15.258.271.425.354a.84.84 0 0 0-.251.962c.231.6 1.705.881 3.026.477 0 0-2.073.25-2.416-.451s.839-1.3 1.648-1.372c0 0-1.976.112-2.155-.563-.179-.676.691-1.024 1.858-1.08 0 0-1.618 0-1.792-.58a.987.987 0 0 1 .579-1.152" style="fill:#9a4a4d;fill:color(display-p3 .6039 .2902 .302);fill-opacity:1"/><path fill="#F7921E" d="M92.39 64.753s-.68 3.722-.06 6.86c.619 3.14 1.075 5.807 1.075 5.807s-1.9 2.176-5.494 1.68c-3.912-.543-2.719-9.826-.471-12.104a7.38 7.38 0 0 1 4.95-2.243" style="fill:#f7921e;fill:color(display-p3 .9686 .5725 .1176);fill-opacity:1"/><path fill="#000" d="M92.39 64.753s-.68 3.722-.06 6.86c.619 3.14 1.075 5.807 1.075 5.807s-1.9 2.176-5.494 1.68c-3.912-.543-2.719-9.826-.471-12.104a7.38 7.38 0 0 1 4.95-2.243" opacity=".5" style="fill:#000;fill-opacity:1"/><path fill="#263238" d="m91.992 139.597.512-.082c0-1.536-.118-2.969.256-3.707l-.748-1.889zM90.635 132.562c.133 1.06.757 2.14.845 4.234q.099 1.34 0 2.678l.512.123v-5.678z" style="fill:#263238;fill:color(display-p3 .149 .1961 .2196);fill-opacity:1"/><path fill="#263238" d="M102.841 140.8a1.4 1.4 0 0 1-.323.784c-.266.21-1.101.911-3.835.809-2.734-.103-3.701-.758-4.649-1.593-.947-.834-1.244-3.072-1.403-4.096a7.8 7.8 0 0 0-1.996-4.096 1.8 1.8 0 0 1-.103-1.06 3.45 3.45 0 0 1 3.282 2.31c1.024 2.478 1.854 5.365 4.07 6.01 1.627.433 3.284.744 4.957.932" style="fill:#263238;fill:color(display-p3 .149 .1961 .2196);fill-opacity:1"/><path fill="#B16668" d="M101.407 138.43c.85.701 1.49 1.024 1.429 1.679-.062.655-.758.988-1.321 1.167-1.331.43-2.852.292-4.199.082s-2.862-.814-3.45-2.094a5 5 0 0 1-.344-1.172 17 17 0 0 0-1.106-3.876 9 9 0 0 0-.778-1.495 3.83 3.83 0 0 1-.88-1.679c-.067-.512.327-1.286.84-2.1a3.26 3.26 0 0 0 .598-2.467l-.22-3.856 6.093 1.326s-.486 3.359-.512 4.234a15.3 15.3 0 0 0 .394 3.835c.37 1.508.92 2.966 1.639 4.342.17.353.389.681.65.973q.544.593 1.167 1.101" style="fill:#b16668;fill:color(display-p3 .6941 .4 .4078);fill-opacity:1"/><path fill="#37474F" d="M90.737 129.946c.374-.692.896-1.116 1.255-1.716.322.512.573 1.065.747 1.644.174.543.666 3.21 1.372 5.33.512 1.592 1.372 2.422 2.524 2.831.724.259 1.5.331 2.258.21 1.413-.225 1.06-1.234 1.06-1.234.839.81 1.755 1.535 2.734 2.166a1.15 1.15 0 0 1 .144 1.603c-.389.348-1.716 1.203-5.12.783-3.016-.374-3.748-1.751-4.045-2.371a15 15 0 0 1-.686-2.81 8.8 8.8 0 0 0-1.116-2.97 3 3 0 0 0-.205-.318 11 11 0 0 0-.732-.936c-.215-.251-.38-.369-.446-.61a2.3 2.3 0 0 1 .256-1.602" style="fill:#37474f;fill:color(display-p3 .2157 .2784 .3098);fill-opacity:1"/><path fill="#263238" d="m102.38 135.061.512-.072c.046-1.536-.031-2.969.358-3.696l-.681-1.91z" style="fill:#263238;fill:color(display-p3 .149 .1961 .2196);fill-opacity:1"/><path fill="#263238" d="M101.223 128c.102 1.06.696 2.156.722 4.255.043.891.018 1.785-.077 2.672l.512.144.189-5.689z" style="fill:#263238;fill:color(display-p3 .149 .1961 .2196);fill-opacity:1"/><path fill="#263238" d="M113.188 136.55a1.4 1.4 0 0 1-.348.774c-.266.199-1.121.844-3.85.66s-3.681-.829-4.608-1.69c-.927-.86-1.152-3.072-1.28-4.147a7.75 7.75 0 0 0-1.879-4.157 1.87 1.87 0 0 1-.072-1.065 3.45 3.45 0 0 1 3.216 2.401c.952 2.509 1.694 5.417 3.896 6.144 1.613.479 3.259.84 4.925 1.08" style="fill:#263238;fill:color(display-p3 .149 .1961 .2196);fill-opacity:1"/><path fill="#B16668" d="M111.821 134.144c.83.727 1.459 1.055 1.383 1.721-.077.665-.789.962-1.357 1.126a9.2 9.2 0 0 1-4.199-.036c-1.377-.261-2.836-.896-3.394-2.181a5 5 0 0 1-.312-1.183 17 17 0 0 0-.994-3.901 8.6 8.6 0 0 0-.737-1.536 3.84 3.84 0 0 1-.829-1.71c-.052-.512.363-1.275.901-2.048.609-.901.804-1.26.804-2.893l-.195-3.415 6.057 1.5s-.456 2.243-.65 3.963a12.4 12.4 0 0 0 .23 4.096 19.3 19.3 0 0 0 1.536 4.388c.157.358.364.693.615.993q.531.598 1.141 1.116" style="fill:#b16668;fill:color(display-p3 .6941 .4 .4078);fill-opacity:1"/><path fill="#37474F" d="M101.484 125.21q.57-.765 1.219-1.464c.314.463.557.97.722 1.505.245.696.558 3.343 1.198 5.478.481 1.603 1.305 2.458 2.442 2.903a4.55 4.55 0 0 0 2.248.272c1.423-.185 1.1-1.209 1.1-1.209a18 18 0 0 0 2.668 2.253 1.14 1.14 0 0 1 .097 1.603c-.399.338-1.751 1.157-5.12.635-3.005-.461-3.696-1.859-3.978-2.489a15.3 15.3 0 0 1-.599-2.826 8.8 8.8 0 0 0-1.024-3.005 5 5 0 0 0-.195-.318 12 12 0 0 0-.706-.962c-.266-.328-.369-.379-.43-.62a2.56 2.56 0 0 1 .358-1.756M75.946 85.387a20 20 0 0 1 1.879-4.854c5.795 2.754 8.017 1.95 13.864.076 2.73 3.011 6.63 4.552 10.358 6.457 3.728 1.904 7.957 3.891 10.291 6.297 1.055 1.086.738 3.733.205 7.133-.722 4.608-3.584 19.169-3.584 19.169-3.968 1.413-6.016-.932-6.016-.932l-1.126-11.1c-.502-4.956 1.265-7.281 1.265-7.281s-11.915-4.516-16.42-5.447c-7.506-1.577-11.694-2.535-10.717-9.519" style="fill:#37474f;fill:color(display-p3 .2157 .2784 .3098);fill-opacity:1"/><path fill="#455A64" d="M67.288 88.034c.511-3.277 3.83-10.153 4.449-11.341 5.796 2.754 14.116 5.79 19.968 3.917a20.1 20.1 0 0 1-4.301 9.902c8.812 6.44 10.619 8.704 12.769 11.356.594.742 1.173 2.268.819 4.393-.752 4.608-3.072 18.99-3.072 18.99a6.97 6.97 0 0 1-5.96-.512s-.721-5.448-1.223-10.404.03-7.388.03-7.388-11.898-5.304-16.383-7.373c-7.603-3.461-7.619-8.269-7.097-11.54" style="fill:#455a64;fill:color(display-p3 .2706 .3529 .3922);fill-opacity:1"/><path fill="#F7921E" d="M77.85 50.33s-6.512.752-7.296 1.1c6.113 4.301 1.162 13.866 1.162 13.866l2.345 7.342c-.973 2.56-4.126 5.862-5.089 9.912 8.484 5.12 19.236 4.147 22.728-1.94-.18-2.965-.154-7.45-.425-9.334.082-1.388-.041-2.98.117-5.248a6.54 6.54 0 0 0 1.383-7.588c-2.427-4.813-6.595-8.315-7.926-8.315z" style="fill:#f7921e;fill:color(display-p3 .9686 .5725 .1176);fill-opacity:1"/><path fill="#F7921E" d="M75.843 50.53s-4.096.332-5.289.9-3.184 4.01-1.403 9.012 3.395 10.87 3.21 12.052c-.184 1.183-3.389 8.038-3.389 8.038a4.6 4.6 0 0 0 3.072 2.171l1.956-5.8-.615 6.297s4.045.835 6.846.594c0 0 .061-20.306-4.388-33.265" style="fill:#f7921e;fill:color(display-p3 .9686 .5725 .1176);fill-opacity:1"/><path fill="#000" d="M75.843 50.53s-4.096.332-5.289.9-3.184 4.01-1.403 9.012 3.395 10.87 3.21 12.052c-.184 1.183-3.389 8.038-3.389 8.038a4.68 4.68 0 0 0 3.072 2.171l1.956-5.8-.615 6.297s4.045.835 6.846.594c0 0 .061-20.306-4.388-33.265" opacity=".5" style="fill:#000;fill-opacity:1"/><path fill="#263238" d="M83.19 26.563c-6.046-.42-12.17 4.424-10.9 12.508.865 5.499 4.096 7.414 5.12 7.445l6.19.25c1.428-4.346 8.33-4.89 9.815-11.315s-4.158-8.468-10.225-8.888" style="fill:#263238;fill:color(display-p3 .149 .1961 .2196);fill-opacity:1"/><path fill="#263238" d="M71.506 29.236c-2.411.773-3.584 2.851-4.26 5.166-.511 1.705-.788 3.486-1.505 5.12a5.3 5.3 0 0 1-.916 1.48 10 10 0 0 1-1.838 1.34 3.87 3.87 0 0 0-1.536 1.629c-.39.952.512 1.853 1.29 2.345a5.63 5.63 0 0 0 4.88.445 5.34 5.34 0 0 0 3.297-3.39c.512-1.484.512-2.923.48-4.459-.03-1.536.062-3.256.697-4.73a3.4 3.4 0 0 1 1.024-1.419 6.2 6.2 0 0 1 1.5-.716c.535-.174 1-.515 1.326-.973.784-1.296-1.1-1.946-2.047-2.048a5.45 5.45 0 0 0-2.392.21" style="fill:#263238;fill:color(display-p3 .149 .1961 .2196);fill-opacity:1"/><path fill="#263238" d="m75.464 29.645-2.621-1.214a1.407 1.407 0 0 1 1.89-.752 1.536 1.536 0 0 1 .731 1.966" style="fill:#263238;fill:color(display-p3 .149 .1961 .2196);fill-opacity:1"/><path fill="#263238" d="m75.47 29.282-.549-2.827a1.394 1.394 0 0 1 1.716 1.075 1.536 1.536 0 0 1-1.168 1.752" style="fill:#263238;fill:color(display-p3 .149 .1961 .2196);fill-opacity:1"/><path fill="#B16668" d="M89.16 31.934c2.002 1.12 2.77 3.768 2.207 9.856-.476 5.155-2.238 6.318-3.108 6.625s-2.468 0-4.03-.394l-.179 2.155s2.56 3.38 2.3 4.787c-.262 1.408-3.836 1.813-5.776.282s-3.482-4.326-3.482-4.326l.538-7.168s-.993.834-2.468-.65c-1.224-1.224-1.536-3.17-.44-4.127a2.267 2.267 0 0 1 3.548.962 15.8 15.8 0 0 0 6.272-1.93c3.292-1.782 4.326-3.973 4.618-6.072" style="fill:#b16668;fill:color(display-p3 .6941 .4 .4078);fill-opacity:1"/><path fill="#263238" d="M85.054 39.762a.664.664 0 0 1-.66.686.681.681 0 0 1 0-1.357.667.667 0 0 1 .66.671" style="fill:#263238;fill:color(display-p3 .149 .1961 .2196);fill-opacity:1"/><path fill="#9A4A4D" d="m85.56 44.483 1.475.573a.78.78 0 0 1-1.024.477.83.83 0 0 1-.45-1.05" style="fill:#9a4a4d;fill:color(display-p3 .6039 .2902 .302);fill-opacity:1"/><path fill="#263238" d="m90.865 38.467-1.449-.681a.773.773 0 0 1 1.024-.405.845.845 0 0 1 .425 1.086M90.174 39.762a.655.655 0 1 1-.64-.691.67.67 0 0 1 .64.691" style="fill:#263238;fill:color(display-p3 .149 .1961 .2196);fill-opacity:1"/><path fill="#9A4A4D" d="m87.102 39.07-.333 4.235 2.1-.497zM84.23 48.02c-1.644-.332-4.997-1.535-5.438-2.943a3.53 3.53 0 0 0 1.08 1.807c.963.947 4.286 2.17 4.286 2.17z" style="fill:#9a4a4d;fill:color(display-p3 .6039 .2902 .302);fill-opacity:1"/><path fill="#F7921E" d="m77.149 50.125-2.816.563s1.305 5.632 4.782 6.656c3.476 1.024 4.777-1.126 4.777-1.126a12.72 12.72 0 0 1-6.743-6.093" style="fill:#f7921e;fill:color(display-p3 .9686 .5725 .1176);fill-opacity:1"/><path fill="#fff" d="m77.149 50.125-2.816.563s1.305 5.632 4.782 6.656c3.476 1.024 4.777-1.126 4.777-1.126a12.72 12.72 0 0 1-6.743-6.093" opacity=".7" style="fill:#fff;fill-opacity:1"/><path fill="#F7921E" d="M84.05 50.176s1.946 4.413-.158 6.047c0 0 2.785.83 3.527-.348.743-1.178-.614-4.532-1.776-5.822z" style="fill:#f7921e;fill:color(display-p3 .9686 .5725 .1176);fill-opacity:1"/><path fill="#fff" d="M84.05 50.176s1.946 4.413-.158 6.047c0 0 2.785.83 3.527-.348.743-1.178-.614-4.532-1.776-5.822z" opacity=".7" style="fill:#fff;fill-opacity:1"/><path fill="#EBEBEB" d="M72.633 96.83v.486a1.4 1.4 0 0 0 .67 1.208l13.062 7.767a1.38 1.38 0 0 0 1.377 0l24.356-13.599a1.39 1.39 0 0 0 .712-1.187v-.333l-25.754 14.392z" style="fill:#ebebeb;fill:color(display-p3 .9216 .9216 .9216);fill-opacity:1"/><path fill="#FAFAFA" d="m112.809 91.193-14.202-8.474a.82.82 0 0 0-.825 0L72.73 96.707a.184.184 0 0 0 0 .317l14.336 8.556z" style="fill:#fafafa;fill:color(display-p3 .9804 .9804 .9804);fill-opacity:1"/><path fill="#E0E0E0" d="m86.938 104.346-7.66-4.567 22.779-12.713 7.701 4.546zM83.323 91.9l.144.086 3.753 2.238 6.789-3.789.143-.077-3.896-2.324z" style="fill:#e0e0e0;fill:color(display-p3 .8784 .8784 .8784);fill-opacity:1"/><path fill="#E6E6E6" d="m83.467 91.986 3.753 2.238 6.789-3.79-3.758-2.242z" style="fill:#e6e6e6;fill:color(display-p3 .902 .902 .902);fill-opacity:1"/><path fill="#EBEBEB" d="M87.056 105.564v.922c.241.001.48-.059.691-.174l24.356-13.599a1.38 1.38 0 0 0 .712-1.188v-.333z" style="fill:#ebebeb;fill:color(display-p3 .9216 .9216 .9216);fill-opacity:1"/><g opacity=".5" style="mix-blend-mode:multiply"><path fill="#E0E0E0" d="M87.056 105.564v.922c.241.001.48-.059.691-.174l24.356-13.599a1.38 1.38 0 0 0 .712-1.188v-.333z" style="fill:#e0e0e0;fill:color(display-p3 .8784 .8784 .8784);fill-opacity:1"/></g><path fill="#F7921E" d="M87.44 105.774a1.63 1.63 0 0 0 1.413-.087l24.248-13.527a1.65 1.65 0 0 0 .814-1.132l2.857-15.662a1.64 1.64 0 0 0-.44-1.438l-25.2 14.07a1.21 1.21 0 0 0-.6.84z" style="fill:#f7921e;fill:color(display-p3 .9686 .5725 .1176);fill-opacity:1"/><path fill="#fff" d="M87.44 105.774a1.63 1.63 0 0 0 1.413-.087l24.248-13.527a1.65 1.65 0 0 0 .814-1.132l2.857-15.662a1.64 1.64 0 0 0-.44-1.438l-25.2 14.07a1.21 1.21 0 0 0-.6.84z" opacity=".7" style="fill:#fff;fill-opacity:1"/><path fill="#FAFAFA" d="m87.056 105.565.164.097q.105.064.22.112l3.072-16.947a1.21 1.21 0 0 1 .599-.84l25.201-14.07a2 2 0 0 0-.328-.26L90.732 87.752a1.2 1.2 0 0 0-.599.84z" style="fill:#fafafa;fill:color(display-p3 .9804 .9804 .9804);fill-opacity:1"/><path fill="#F7921E" d="M101.197 91.48c.19-1.025 1.296-2.433 2.468-3.073 1.173-.64 1.966-.332 1.777.717-.19 1.05-1.301 2.427-2.473 3.072-1.173.645-1.966.328-1.772-.717" style="fill:#f7921e;fill:color(display-p3 .9686 .5725 .1176);fill-opacity:1"/><path fill="#B16668" d="M74.788 94.3c-1.326-.911-9.763-7.045-13.137-9.661-3.508-2.719-3.293-3.584-2.868-5.555.84-3.876 5.172-16.292 6.656-19.912 1.639-4.04 2.156-6.79 5.044-7.306 2.201 1.735 3.87 5.852 1.372 13.112l-4.736 14.147s3.614 4.285 5.99 6.507 4.48 4.306 6.19 4.808c1.536.45 3.302.758 3.84 1.25 1.3 1.319 2.51 2.723 3.625 4.203.512.829 1.7 2.508 0 3.072-1.536.512-2.81-.175-4.096-1.024a16 16 0 0 1-1.684-1.393 6.14 6.14 0 0 1-3.64-.722c-.953-.594-2.556-1.526-2.556-1.526" style="fill:#b16668;fill:color(display-p3 .6941 .4 .4078);fill-opacity:1"/><path fill="#F7921E" d="M70.554 51.43c-2.56.436-3.302 2.212-5.202 7.169-1.336 3.486-6.144 18.698-6.144 18.698s2.673 3.072 7.865 1.818l5.99-16.22s1.91-7.68-2.509-11.464" style="fill:#f7921e;fill:color(display-p3 .9686 .5725 .1176);fill-opacity:1"/><path fill="#000" d="M70.554 51.43c-2.56.436-3.302 2.212-5.202 7.169-1.336 3.486-6.144 18.698-6.144 18.698s2.673 3.072 7.865 1.818l5.99-16.22s1.91-7.68-2.509-11.464" opacity=".6" style="fill:#000;fill-opacity:1"/></svg>