<svg xmlns="http://www.w3.org/2000/svg" width="257" height="256" fill="none"><path stroke="#D5D5D5" d="M47.31 220.004c-22.474-11.768-33.56-27.116-33.56-42.332s11.084-30.568 33.56-42.341c22.464-11.767 51.94-17.664 81.442-17.664 29.503 0 58.977 5.897 81.439 17.664 22.473 11.773 33.558 27.122 33.559 42.336.001 15.215-11.083 30.564-33.559 42.337-22.465 11.767-51.939 17.663-81.441 17.663s-58.976-5.896-81.44-17.663Z" style="stroke:#d5d5d5;stroke:color(display-p3 .8353 .8353 .8353);stroke-opacity:1"/><path fill="#F7921E" d="M64.816 90.995a1.95 1.95 0 0 1 1.167-1.587 6.15 6.15 0 0 1 5.54.072 1.95 1.95 0 0 1 1.126 1.613l1.05 40.765c.04.85-.512 1.705-1.628 2.335a8.56 8.56 0 0 1-7.742-.097c-1.11-.661-1.628-1.536-1.536-2.376z" style="fill:#f7921e;fill:color(display-p3 .9686 .5725 .1176);fill-opacity:1"/><path fill="#000" d="M64.816 90.995a1.95 1.95 0 0 1 1.167-1.587 6.15 6.15 0 0 1 5.54.072 1.95 1.95 0 0 1 1.126 1.613l1.05 40.765c.04.85-.512 1.705-1.628 2.335a8.56 8.56 0 0 1-7.742-.097c-1.11-.661-1.628-1.536-1.536-2.376z" opacity=".15" style="fill:#000;fill-opacity:1"/><path fill="#F7921E" d="M71.523 89.48c1.536.901 1.5 2.335-.041 3.2a6.14 6.14 0 0 1-5.54-.072c-1.536-.9-1.5-2.335.041-3.2a6.15 6.15 0 0 1 5.54.072" style="fill:#f7921e;fill:color(display-p3 .9686 .5725 .1176);fill-opacity:1"/><path fill="#000" d="M71.523 89.48c1.536.901 1.5 2.335-.041 3.2a6.14 6.14 0 0 1-5.54-.072c-1.536-.9-1.5-2.335.041-3.2a6.15 6.15 0 0 1 5.54.072" opacity=".25" style="fill:#000;fill-opacity:1"/><path fill="#37474F" d="M67.222 75.39a3.7 3.7 0 0 1 3.354.046 1.19 1.19 0 0 1 .68.972l-.158 14.664a1.17 1.17 0 0 1-.707.957 3.7 3.7 0 0 1-3.348-.04 1.17 1.17 0 0 1-.681-.973l.154-14.664a1.18 1.18 0 0 1 .706-.963" style="fill:#37474f;fill:color(display-p3 .2157 .2784 .3098);fill-opacity:1"/><path fill="#455A64" d="M70.576 75.435a2.7 2.7 0 0 0-.384-.184l-.072-.026a4 4 0 0 0-.364-.107h-.03a3.7 3.7 0 0 0-2.504.276 1.18 1.18 0 0 0-.691.958l-.051 2.642c.79.16 1.594.244 2.401.25l.077 13.16a3.3 3.3 0 0 0 1.449-.375 1.17 1.17 0 0 0 .706-.957l.108-12.073.051-2.59a1.19 1.19 0 0 0-.696-.974" style="fill:#455a64;fill:color(display-p3 .2706 .3529 .3922);fill-opacity:1"/><path fill="#F7921E" d="m69.844 93.217.512 41.616a6.8 6.8 0 0 0 1.69-.64c1.13-.635 1.673-1.485 1.622-2.335l-1.024-40.76a1.95 1.95 0 0 1-1.167 1.582c-.51.27-1.063.451-1.633.537M57.126 82.46c3.911 2.258 9.313 1.93 15.283-1.535 11.94-6.892 21.616-23.655 21.616-37.443 0-6.856-2.406-11.715-6.328-13.973l-4.393-2.56c-3.912-2.258-9.313-1.93-15.283 1.536-11.94 6.892-21.617 23.655-21.617 37.443 0 6.892 2.422 11.735 6.334 13.993l4.388 2.56zM91.07 43.503c0 6.144-2.11 13.2-5.934 19.83s-8.878 11.976-14.203 15.053c-4.823 2.785-9.216 3.323-12.329 1.536s-4.874-5.888-4.874-11.454c0-6.143 2.104-13.199 5.934-19.83s8.914-11.975 14.223-15.052c4.823-2.785 9.216-3.323 12.33-1.536 3.112 1.787 4.853 5.888 4.853 11.453" style="fill:#f7921e;fill:color(display-p3 .9686 .5725 .1176);fill-opacity:1"/><path fill="#fff" d="M72.414 31.025c-11.94 6.892-21.617 23.654-21.617 37.437s9.677 19.364 21.612 12.483 21.616-23.654 21.616-37.443-9.677-19.374-21.611-12.477m13.824 1.024c3.128 1.807 4.853 5.868 4.853 11.433 0 6.144-2.109 13.2-5.934 19.83-3.824 6.63-8.898 11.996-14.223 15.073-4.823 2.78-9.216 3.318-12.329 1.51-3.113-1.807-4.874-5.867-4.874-11.433 0-6.144 2.11-13.194 5.934-19.824s8.914-11.976 14.223-15.053c4.823-2.785 9.201-3.323 12.33-1.516z" opacity=".3" style="fill:#fff;fill-opacity:1"/><path fill="#F7921E" d="M86.217 32.07a8.2 8.2 0 0 0-4.198-1.025c1.208 2.1 1.848 4.93 1.843 8.325 0 6.144-2.104 13.2-5.934 19.83S69.06 71.17 63.725 74.248c-2.934 1.7-5.703 2.56-8.13 2.56a8.27 8.27 0 0 0 3.01 3.113c3.129 1.807 7.506 1.27 12.33-1.536 5.329-3.072 10.372-8.428 14.202-15.053s5.934-13.676 5.934-19.825c0-5.57-1.72-9.636-4.854-11.438" style="fill:#f7921e;fill:color(display-p3 .9686 .5725 .1176);fill-opacity:1"/><path fill="#000" d="M86.217 32.07a8.2 8.2 0 0 0-4.198-1.025c1.208 2.1 1.848 4.93 1.843 8.325 0 6.144-2.104 13.2-5.934 19.83S69.06 71.17 63.725 74.248c-2.934 1.7-5.703 2.56-8.13 2.56a8.27 8.27 0 0 0 3.01 3.113c3.129 1.807 7.506 1.27 12.33-1.536 5.329-3.072 10.372-8.428 14.202-15.053s5.934-13.676 5.934-19.825c0-5.57-1.72-9.636-4.854-11.438" opacity=".1" style="fill:#000;fill-opacity:1"/><path fill="#fff" d="M87.81 41.618c0 6.144-2.11 13.2-5.934 19.83s-8.873 11.976-14.203 15.053c-3.979 2.293-7.68 3.072-10.578 2.242-2.166-2.124-3.364-5.688-3.364-10.28 0-6.145 2.11-13.195 5.934-19.825s8.914-11.976 14.223-15.053c3.979-2.299 7.655-3.072 10.578-2.243 2.166 2.12 3.344 5.684 3.344 10.276" opacity=".4" style="fill:#fff;fill-opacity:1"/><path fill="#000" d="m61.155 41.168-4.383-2.56c3.272-4.21 7.122-7.767 11.264-10.148 5.97-3.446 11.377-3.774 15.289-1.536l4.387 2.56a10.5 10.5 0 0 1 2.176 1.68c-3.932-3.943-10.29-4.307-17.464-.17-4.142 2.412-7.992 5.97-11.27 10.174" opacity=".1" style="fill:#000;fill-opacity:1"/><path fill="#37474F" d="M154.237 168.6V26.955c0-3.646-1.813-4.65-3.421-5.576-1.607-.927-4.249-1.49-6.538-.174L85.792 54.997c-2.288 1.316-4.137 4.526-4.137 7.168v141.619c0 2.637 1.654 4.194 3.262 5.12s4.408 1.946 6.692.63l58.491-33.792a7.79 7.79 0 0 0 4.137-7.142" style="fill:#37474f;fill:color(display-p3 .2157 .2784 .3098);fill-opacity:1"/><path fill="#263238" d="m150.499 169.941-60.13 34.724V62.411l-7.526-4.347a8.45 8.45 0 0 0-1.208 4.096v141.624c0 2.637 1.654 4.194 3.261 5.12s4.409 1.946 6.692.63l58.491-33.792a7.9 7.9 0 0 0 3.584-3.994l-.235-.138z" style="fill:#263238;fill:color(display-p3 .149 .1961 .2196);fill-opacity:1"/><path fill="#455A64" d="m149.987 25.731-58.655 33.87a6.43 6.43 0 0 0-2.903 5.022v140.493c0 2.831 2.012 3.993 4.465 2.56l57.093-32.953a7.3 7.3 0 0 0 3.292-5.693V27.63c.005-2.093-1.48-2.943-3.292-1.899" style="fill:#455a64;fill:color(display-p3 .2706 .3529 .3922);fill-opacity:1"/><path fill="#000" d="M150.422 34.343v131.333a6.93 6.93 0 0 1-3.128 5.417l-52.88 30.53c-1.725 1.024-3.123.195-3.123-1.802V67.526a7 7 0 0 1 2.192-4.71l.297-.267a6 6 0 0 1 .635-.435l14.873-8.592.973-.558c.512-.312.968-.061.968.558 0 .62.465.855 1.024.512l17.336-10.01a2.22 2.22 0 0 0 1.024-1.715 2.18 2.18 0 0 1 .891-1.587l.102-.061 14.546-8.397.312-.184c2.176-1.275 3.958-.246 3.958 2.263" style="fill:#000;fill-opacity:1"/><path fill="#263238" d="M142.757 167.586a6.94 6.94 0 0 0 3.134-5.417V32.402l-14.285 8.238-.102.062a2.2 2.2 0 0 0-.871 1.623 2.2 2.2 0 0 1-1.024 1.715l-17.346 9.994c-.569.333-1.024.093-1.024-.512 0-.604-.435-.87-.968-.558l-.973.558L94.45 62.11q-.332.195-.635.435l-.297.266a7 7 0 0 0-2.191 4.71v129.777z" style="fill:#263238;fill:color(display-p3 .149 .1961 .2196);fill-opacity:1"/><path fill="#263238" d="m114.894 48.76 7.947-4.607c.476-.272.86-.077.86.435a1.84 1.84 0 0 1-.85 1.444l-7.946 4.608c-.471.276-.855.082-.855-.43a1.84 1.84 0 0 1 .844-1.45M126.947 41.445c.512-.308.968-.062.968.558a2.15 2.15 0 0 1-.968 1.674c-.512.307-.968.056-.968-.558a2.12 2.12 0 0 1 .968-1.674" style="fill:#263238;fill:color(display-p3 .149 .1961 .2196);fill-opacity:1"/><path fill="#455A64" d="M87.077 79.123a3.49 3.49 0 0 0-1.536-2.765 1.02 1.02 0 0 0-1.05-.087c-.189.117-.946.537-1.146.655a1.2 1.2 0 0 0-.471 1.086v11.54a3.5 3.5 0 0 0 1.536 2.765 1.02 1.02 0 0 0 1.024.107c.21-.107.983-.553 1.183-.675a1.19 1.19 0 0 0 .47-1.086z" style="fill:#455a64;fill:color(display-p3 .2706 .3529 .3922);fill-opacity:1"/><path fill="#37474F" d="M85.94 79.788v11.54c0 1.025-.68 1.49-1.535 1a3.5 3.5 0 0 1-1.536-2.766v-11.54c0-1.024.686-1.485 1.536-.999a3.5 3.5 0 0 1 1.536 2.765" style="fill:#37474f;fill:color(display-p3 .2157 .2784 .3098);fill-opacity:1"/><path fill="#455A64" d="M87.077 99.331a3.5 3.5 0 0 0-1.536-2.765 1.02 1.02 0 0 0-1.05-.087c-.189.118-.946.512-1.146.66a1.19 1.19 0 0 0-.471 1.086v11.541a3.49 3.49 0 0 0 1.536 2.764 1.02 1.02 0 0 0 1.024.108c.21-.113.983-.558 1.183-.676a1.19 1.19 0 0 0 .47-1.09z" style="fill:#455a64;fill:color(display-p3 .2706 .3529 .3922);fill-opacity:1"/><path fill="#37474F" d="M85.94 99.986v11.546c0 1.024-.68 1.485-1.535.998a3.49 3.49 0 0 1-1.536-2.764v-11.54c0-1.025.686-1.49 1.536-1.025a3.5 3.5 0 0 1 1.536 2.785" style="fill:#37474f;fill:color(display-p3 .2157 .2784 .3098);fill-opacity:1"/><path fill="#F0F0F0" d="M156.919 72.077V48.193a2.95 2.95 0 0 1 1.342-2.325l46.971-27.213a2.95 2.95 0 0 1 2.683 0l.834.512a2.97 2.97 0 0 1 1.342 2.33l-.041 23.91a2.98 2.98 0 0 1-1.342 2.33l-46.945 27.161a2.95 2.95 0 0 1-2.683 0l-.84-.511a3.01 3.01 0 0 1-1.321-2.31" style="fill:#f0f0f0;fill:color(display-p3 .9412 .9412 .9412);fill-opacity:1"/><path fill="#FAFAFA" d="M208.79 47.665c1.024-.588 1.26-1.684 1.26-2.872l.035-22.717c0-1.183-.829-1.664-1.858-1.07L162.28 47.63a3.69 3.69 0 0 0-1.848 3.2l-.046 22.737a1.23 1.23 0 0 0 .62 1.071 1.24 1.24 0 0 0 1.238 0z" style="fill:#fafafa;fill:color(display-p3 .9804 .9804 .9804);fill-opacity:1"/><path fill="#E0E0E0" d="M160.995 73.92a.7.7 0 0 1-.092-.358l.046-22.738a3.19 3.19 0 0 1 1.587-2.754l45.947-26.624c.21-.123.727-.359.957.04.092.181.136.382.128.584l-.035 22.749c0 1.28-.308 2.048-.999 2.426l-46.551 26.968a.727.727 0 0 1-.988-.267m-.445.261a1.235 1.235 0 0 0 1.694.451l46.546-26.967c1.024-.589 1.26-1.685 1.26-2.872l.036-22.718a1.7 1.7 0 0 0-.195-.845c-.307-.512-.937-.65-1.664-.225L162.28 47.655a3.69 3.69 0 0 0-1.848 3.2l-.046 22.738c-.003.218.053.432.164.62z" style="fill:#e0e0e0;fill:color(display-p3 .8784 .8784 .8784);fill-opacity:1"/><path fill="#E6E6E6" d="m161.763 74.899.456-.261a1.25 1.25 0 0 1-1.693-.461 1.25 1.25 0 0 1-.166-.62l.051-22.732c.003-.65.18-1.286.512-1.844l.026-.04-3.63-2.074c-.248.406-.386.87-.4 1.346v23.88a3 3 0 0 0 1.337 2.335l.834.512a2.96 2.96 0 0 0 2.673-.041" style="fill:#e6e6e6;fill:color(display-p3 .902 .902 .902);fill-opacity:1"/><path fill="#E0E0E0" d="m181.613 56.85 22.569-13.056a2.16 2.16 0 0 0 1.024-1.674c0-.61-.45-.84-1.024-.512l-22.569 13.056a2.15 2.15 0 0 0-1.024 1.664c.021.615.471.84 1.024.522M181.618 51.418l22.574-13.035a2.16 2.16 0 0 0 .999-1.674c0-.61-.446-.84-.999-.512l-22.574 13.056a2.15 2.15 0 0 0-1.024 1.664c.021.593.471.819 1.024.501M181.623 45.986l22.575-13.036a2.15 2.15 0 0 0 .998-1.674c0-.61-.445-.84-.998-.512l-22.575 13.03a2.16 2.16 0 0 0-1.024 1.664c.021.62.472.845 1.024.528" style="fill:#e0e0e0;fill:color(display-p3 .8784 .8784 .8784);fill-opacity:1"/><path fill="#F7921E" d="m176.237 59.272-10.378 5.99c-.118.072-.215 0-.215-.174v-10.03a.52.52 0 0 1 .215-.425l10.383-5.995c.123-.072.22 0 .22.174v10.025a.5.5 0 0 1-.225.435m-10.163 5.258 9.943-5.74v-9.415l-9.943 5.74z" style="fill:#f7921e;fill:color(display-p3 .9686 .5725 .1176);fill-opacity:1"/><path fill="#F7921E" d="m172.684 56.651-3.272 1.884c-.123.072-.22 0-.22-.174v-1.766a.52.52 0 0 1 .22-.43l3.272-1.89c.118-.066.215 0 .215.18v1.75a.56.56 0 0 1-.215.446m-3.072 1.152 2.831-1.633v-1.147l-2.831 1.638zM173.094 51.008c-.123.067-.221 0-.221-.179v-1.264l-3.65 2.109v1.265a.52.52 0 0 1-.22.43c-.123.066-.221 0-.221-.18v-1.566a.51.51 0 0 1 .221-.425l4.096-2.366c.117-.066.215 0 .215.18v1.566a.56.56 0 0 1-.22.43" style="fill:#f7921e;fill:color(display-p3 .9686 .5725 .1176);fill-opacity:1"/><path fill="#F7921E" d="m176.237 53.722-3.553 2.048c-.123.066-.22 0-.22-.18a.51.51 0 0 1 .22-.43l3.553-2.047c.123-.067.22 0 .22.179a.55.55 0 0 1-.22.43M169.412 57.66l-3.558 2.048c-.118.071-.215 0-.215-.175a.54.54 0 0 1 .215-.43l3.558-2.048c.118-.071.22 0 .22.18a.54.54 0 0 1-.22.425M173.094 49.426l-4.096 2.36c-.123.067-.221 0-.221-.179v-1.024a.51.51 0 0 1 .221-.425l4.096-2.36c.117-.072.215 0 .215.174v1.024a.54.54 0 0 1-.215.43m-3.871 1.628 3.65-2.11v-.43l-3.65 2.11z" style="fill:#f7921e;fill:color(display-p3 .9686 .5725 .1176);fill-opacity:1"/><path fill="#F0F0F0" d="M156.919 109.008v-23.88a2.98 2.98 0 0 1 1.342-2.33l46.971-27.228a2.95 2.95 0 0 1 2.683 0l.834.487a2.98 2.98 0 0 1 1.342 2.334l-.041 23.906a2.98 2.98 0 0 1-1.342 2.33l-46.945 27.202a2.94 2.94 0 0 1-2.683 0l-.84-.512a3 3 0 0 1-1.321-2.309" style="fill:#f0f0f0;fill:color(display-p3 .9412 .9412 .9412);fill-opacity:1"/><path fill="#FAFAFA" d="M208.79 84.596c1.024-.59 1.26-1.685 1.26-2.868l.035-22.722c0-1.178-.829-1.664-1.858-1.07L162.28 84.56a3.7 3.7 0 0 0-1.848 3.205l-.046 22.733a1.23 1.23 0 0 0 .618 1.074 1.24 1.24 0 0 0 1.24.001z" style="fill:#fafafa;fill:color(display-p3 .9804 .9804 .9804);fill-opacity:1"/><path fill="#E0E0E0" d="M160.995 110.866a.7.7 0 0 1-.092-.358l.046-22.733a3.19 3.19 0 0 1 1.587-2.754l45.947-26.624c.21-.118.727-.359.957.04.092.181.136.382.128.584l-.035 22.723c0 1.275-.308 2.022-.999 2.422l-46.551 26.967a.724.724 0 0 1-.988-.267m-.445.262a1.24 1.24 0 0 0 1.694.455l46.546-26.972c1.024-.589 1.26-1.684 1.26-2.867l.036-22.723a1.7 1.7 0 0 0-.195-.845c-.307-.512-.937-.645-1.664-.225L162.28 84.575a3.7 3.7 0 0 0-1.848 3.205l-.046 22.733c-.003.218.053.432.164.62z" style="fill:#e0e0e0;fill:color(display-p3 .8784 .8784 .8784);fill-opacity:1"/><path fill="#E6E6E6" d="m161.763 111.829.456-.261a1.25 1.25 0 0 1-1.24-.007 1.25 1.25 0 0 1-.619-1.074l.051-22.732c.003-.65.18-1.286.512-1.844l.026-.035-3.63-2.1a2.8 2.8 0 0 0-.4 1.352v23.88a2.98 2.98 0 0 0 1.337 2.329l.834.512a2.95 2.95 0 0 0 2.673-.02" style="fill:#e6e6e6;fill:color(display-p3 .902 .902 .902);fill-opacity:1"/><path fill="#E0E0E0" d="m181.613 93.781 22.569-13.035a2.16 2.16 0 0 0 1.024-1.675c0-.604-.45-.84-1.024-.512l-22.569 13.056a2.15 2.15 0 0 0-1.024 1.664c.021.594.471.82 1.024.502M181.618 88.338l22.574-13.035a2.16 2.16 0 0 0 .999-1.675c0-.604-.446-.84-.999-.512l-22.574 13.056a2.15 2.15 0 0 0-1.024 1.664c.021.605.471.83 1.024.502M181.623 82.916l22.575-13.01a2.15 2.15 0 0 0 .998-1.674c0-.604-.445-.84-.998-.512l-22.575 13.056a2.16 2.16 0 0 0-1.024 1.664c.021.568.472.778 1.024.476" style="fill:#e0e0e0;fill:color(display-p3 .8784 .8784 .8784);fill-opacity:1"/><path fill="#F7921E" d="M170.211 98.578h-.062a.3.3 0 0 1-.245-.297c0-.604-.159-.706-.174-.717-.016-.01-.144 0-.318.077a.31.31 0 0 1-.305-.01.31.31 0 0 1-.15-.266c0-.65-.149-.743-.154-.748s-.128 0-.328.108a.31.31 0 0 1-.311-.002.31.31 0 0 1-.155-.27c0-.65-.148-.742-.148-.742s-.128 0-.333.102a.31.31 0 0 1-.363-.04.307.307 0 0 1-.072-.358l4.879-9.775a.303.303 0 0 1 .225-.174.31.31 0 0 1 .272.082l2.836 2.734a.31.31 0 0 1 .067.353l-4.879 9.774a.31.31 0 0 1-.282.17m-.512-1.659a.735.735 0 0 1 .64.39l4.393-8.745-2.381-2.274-4.418 8.791a.8.8 0 0 1 .235.082 1.05 1.05 0 0 1 .44.84.74.74 0 0 1 .512.072 1.1 1.1 0 0 1 .441.86z" style="fill:#f7921e;fill:color(display-p3 .9686 .5725 .1176);fill-opacity:1"/><path fill="#F7921E" d="M166.304 102.485a.3.3 0 0 1-.138-.036.31.31 0 0 1-.169-.327l1.07-6.615a.3.3 0 0 1 .122-.204.3.3 0 0 1 .232-.052.313.313 0 0 1 .261.353l-.917 5.688 3.231-3.225a.31.31 0 0 1 .504.34.3.3 0 0 1-.069.1l-3.906 3.901a.33.33 0 0 1-.221.077" style="fill:#f7921e;fill:color(display-p3 .9686 .5725 .1176);fill-opacity:1"/><path fill="#F7921E" d="m166.304 102.173 1.065-1.244-.655-.63zM169.853 96.428a.314.314 0 0 1-.292-.208.3.3 0 0 1 .015-.237l4.291-8.525a.306.306 0 0 1 .409-.149.31.31 0 0 1 .149.41l-4.291 8.53a.306.306 0 0 1-.281.18M168.931 95.506a.3.3 0 0 1-.128-.03.32.32 0 0 1-.162-.177.3.3 0 0 1-.017-.12.3.3 0 0 1 .031-.118l4.29-8.525a.314.314 0 0 1 .512-.077q.041.046.061.103a.3.3 0 0 1-.015.235l-4.29 8.53a.31.31 0 0 1-.282.18" style="fill:#f7921e;fill:color(display-p3 .9686 .5725 .1176);fill-opacity:1"/><path fill="#F0F0F0" d="M156.919 145.938v-23.879a2.98 2.98 0 0 1 1.342-2.33l46.976-27.213a2.96 2.96 0 0 1 2.683 0l.834.512a2.98 2.98 0 0 1 1.342 2.335l-.041 23.905a2.97 2.97 0 0 1-1.342 2.33l-46.95 27.156a2.96 2.96 0 0 1-2.683 0l-.84-.486a3.03 3.03 0 0 1-1.321-2.33" style="fill:#f0f0f0;fill:color(display-p3 .9412 .9412 .9412);fill-opacity:1"/><path fill="#FAFAFA" d="M208.79 121.531c1.024-.594 1.26-1.689 1.26-2.872l.035-22.723c0-1.177-.829-1.664-1.858-1.07L162.28 121.49a3.7 3.7 0 0 0-1.848 3.2l-.046 22.733a1.23 1.23 0 0 0 .618 1.075 1.24 1.24 0 0 0 1.24 0z" style="fill:#fafafa;fill:color(display-p3 .9804 .9804 .9804);fill-opacity:1"/><path fill="#E0E0E0" d="M160.995 147.786a.73.73 0 0 1-.092-.363l.046-22.733a3.19 3.19 0 0 1 1.587-2.754l45.947-26.624c.21-.123.727-.364.957.035.092.18.136.382.128.584l-.035 22.723c0 1.275-.308 2.022-.999 2.421l-46.551 26.967a.724.724 0 0 1-.988-.261m-.445.256a1.22 1.22 0 0 0 .752.58q.239.063.484.032c.161-.021.317-.074.458-.156l46.546-26.967c1.024-.594 1.26-1.69 1.26-2.872l.036-22.723a1.7 1.7 0 0 0-.195-.84c-.307-.512-.937-.65-1.664-.23l-45.947 26.624a3.7 3.7 0 0 0-1.848 3.205l-.046 22.733a1.2 1.2 0 0 0 .164.619z" style="fill:#e0e0e0;fill:color(display-p3 .8784 .8784 .8784);fill-opacity:1"/><path fill="#E6E6E6" d="m161.763 148.754.456-.266a1.25 1.25 0 0 1-1.691-.457 1.24 1.24 0 0 1-.168-.618l.051-22.733c.003-.651.18-1.289.512-1.848l.026-.036-3.63-2.099a2.77 2.77 0 0 0-.4 1.351v23.89a2.97 2.97 0 0 0 1.337 2.33l.834.486a2.96 2.96 0 0 0 2.673 0" style="fill:#e6e6e6;fill:color(display-p3 .902 .902 .902);fill-opacity:1"/><path fill="#E0E0E0" d="m181.613 130.711 22.569-13.035a2.16 2.16 0 0 0 1.024-1.674c0-.604-.45-.835-1.024-.512l-22.569 13.056a2.16 2.16 0 0 0-1.024 1.664c.021.594.471.819 1.024.501M181.618 125.279l22.574-13.035a2.15 2.15 0 0 0 .999-1.674c0-.605-.446-.835-.999-.512l-22.574 13.056a2.16 2.16 0 0 0-1.024 1.664c.021.593.471.819 1.024.501M181.623 119.847l22.575-13.036a2.16 2.16 0 0 0 .998-1.674c0-.604-.445-.835-.998-.512l-22.575 13.056a2.16 2.16 0 0 0-1.024 1.664c.021.594.472.819 1.024.502" style="fill:#e0e0e0;fill:color(display-p3 .8784 .8784 .8784);fill-opacity:1"/><path fill="#F7921E" d="M169.407 138.683a.31.31 0 0 1-.255-.146.3.3 0 0 1-.037-.146v-1.316a2 2 0 0 1-.512-.041l-.65 1.378a.293.293 0 0 1-.466.082l-1.336-1.285a.29.29 0 0 1-.062-.333l.697-1.47a5 5 0 0 1-.282-.809l-.717.41a.28.28 0 0 1-.297 0 .3.3 0 0 1-.143-.251v-2.898a.3.3 0 0 1 .143-.251l.942-.548q.126-.74.343-1.459l-.624-.599a.295.295 0 0 1-.062-.338l1.337-2.826a.3.3 0 0 1 .21-.164.31.31 0 0 1 .256.077l.512.486q.329-.455.727-.855v-1.536a.29.29 0 0 1 .143-.256l1.889-1.09a.3.3 0 0 1 .4.11.3.3 0 0 1 .041.146v1.311q.257-.01.512.041l.65-1.373a.3.3 0 0 1 .085-.107.289.289 0 0 1 .381.02l1.336 1.285a.3.3 0 0 1 .061.338l-.696 1.465q.178.394.282.814l.717-.415a.3.3 0 0 1 .297 0 .3.3 0 0 1 .143.256v2.908a.3.3 0 0 1-.143.256l-.943.543q-.123.743-.343 1.464l.62.604a.288.288 0 0 1 .061.333l-1.336 2.826a.3.3 0 0 1-.085.108.288.288 0 0 1-.381-.021l-.512-.486q-.332.455-.722.86v1.536a.29.29 0 0 1-.148.251l-1.89 1.091a.3.3 0 0 1-.143.02m0-2.222a.27.27 0 0 1 .184.067.3.3 0 0 1 .108.225v1.131l1.28-.752v-1.47a.28.28 0 0 1 .092-.21 7.3 7.3 0 0 0 .932-1.136.31.31 0 0 1 .215-.128.3.3 0 0 1 .23.077l.461.445 1.07-2.268-.578-.584a.28.28 0 0 1-.083-.14.3.3 0 0 1 .006-.162 12 12 0 0 0 .394-1.684.27.27 0 0 1 .143-.21l.917-.512v-2.228l-.625.359a.3.3 0 0 1-.135.033.3.3 0 0 1-.136-.033.29.29 0 0 1-.164-.21 4.5 4.5 0 0 0-.379-1.188.28.28 0 0 1 0-.256l.661-1.403-.891-.855-.594 1.219a.29.29 0 0 1-.353.153 1.7 1.7 0 0 0-.83-.051.3.3 0 0 1-.24-.066.29.29 0 0 1-.108-.221v-1.131l-1.3.753v1.464a.27.27 0 0 1-.093.21 7.5 7.5 0 0 0-.931 1.142.31.31 0 0 1-.21.128.29.29 0 0 1-.236-.082l-.461-.441-1.07 2.268.599.579q.061.056.083.137a.3.3 0 0 1-.006.16 12 12 0 0 0-.394 1.69.3.3 0 0 1-.144.21l-.916.512v2.232l.625-.364a.3.3 0 0 1 .271 0q.065.03.109.087a.3.3 0 0 1 .055.128c.071.412.199.812.379 1.188q.03.061.031.128a.3.3 0 0 1-.031.128l-.661 1.403.891.855.579-1.224a.285.285 0 0 1 .358-.153c.266.087.55.104.824.051zm.184-2.043a1.34 1.34 0 0 1-.681-.184c-.645-.369-1.024-1.255-1.024-2.422 0-1.966 1.024-4.096 2.31-4.838a1.537 1.537 0 0 1 1.592-.087c.645.373 1.024 1.254 1.024 2.421 0 1.966-1.024 4.096-2.309 4.844a1.9 1.9 0 0 1-.917.266zm1.526-7.117c-.218.009-.43.074-.614.19-1.116.64-2.023 2.56-2.023 4.331 0 .937.272 1.654.722 1.915a1.03 1.03 0 0 0 1.024-.082c1.116-.645 2.023-2.59 2.023-4.336 0-.937-.272-1.654-.722-1.915a.8.8 0 0 0-.415-.098zM156.986 36.365 99.98 69.235a2.83 2.83 0 0 0-1.285 2.223v133.565a2.83 2.83 0 0 0 1.285 2.217l.804.461a2.86 2.86 0 0 0 2.56 0l57.006-32.922a2.85 2.85 0 0 0 1.285-2.222V39.037a2.82 2.82 0 0 0-1.29-2.216l-.799-.456a2.86 2.86 0 0 0-2.56 0" style="fill:#f7921e;fill:color(display-p3 .9686 .5725 .1176);fill-opacity:1"/><path fill="#000" d="M156.986 36.365 99.98 69.235a2.83 2.83 0 0 0-1.285 2.223v133.565a2.83 2.83 0 0 0 1.285 2.217l.804.461a2.86 2.86 0 0 0 2.56 0l57.006-32.922a2.85 2.85 0 0 0 1.285-2.222V39.037a2.82 2.82 0 0 0-1.29-2.216l-.799-.456a2.86 2.86 0 0 0-2.56 0" opacity=".25" style="fill:#000;fill-opacity:1"/><path fill="#FAFAFA" d="M161.645 172.644c0 1.127-.794 1.843-1.777 2.412l-56.023 32.348c-.978.563-1.776.107-1.776-1.024V73.946a3.54 3.54 0 0 1 1.766-3.072l56.033-32.353a1.183 1.183 0 0 1 1.777 1.024z" style="fill:#fafafa;fill:color(display-p3 .9804 .9804 .9804);fill-opacity:1"/><path fill="#F7921E" d="M160.457 39.386c.043 0 .084.016.114.046a.16.16 0 0 1 .05.112v133.121c0 .394-.154.885-1.265 1.536l-56.023 32.317a1 1 0 0 1-.215.092 1 1 0 0 1-.025-.23V73.946a2.52 2.52 0 0 1 1.254-2.171l56.033-32.369a.14.14 0 0 1 .077 0m0-1.024a1.2 1.2 0 0 0-.589.159l-56.033 32.348a3.53 3.53 0 0 0-1.766 3.072V206.38c0 .804.399 1.264.983 1.264.281-.009.554-.092.793-.24l56.023-32.348c.983-.569 1.777-1.286 1.777-2.412v-133.1a1.193 1.193 0 0 0-.734-1.094 1.2 1.2 0 0 0-.454-.088z" style="fill:#f7921e;fill:color(display-p3 .9686 .5725 .1176);fill-opacity:1"/><path fill="#F7921E" d="M161.645 39.038v.512a1.186 1.186 0 0 0-1.189-1.183 1.2 1.2 0 0 0-.593.159l-56.028 32.363a3.44 3.44 0 0 0-1.29 1.29v.036l-3.466-1.996c.217-.401.534-.738.921-.978l56.986-32.876a2.84 2.84 0 0 1 2.56 0l.799.456a2.813 2.813 0 0 1 1.3 2.217" style="fill:#f7921e;fill:color(display-p3 .9686 .5725 .1176);fill-opacity:1"/><path fill="#fff" d="M161.645 39.038v.512a1.186 1.186 0 0 0-1.189-1.183 1.2 1.2 0 0 0-.593.159l-56.028 32.363a3.44 3.44 0 0 0-1.29 1.29v.036l-3.466-1.996c.217-.401.534-.738.921-.978l56.986-32.876a2.84 2.84 0 0 1 2.56 0l.799.456a2.813 2.813 0 0 1 1.3 2.217" opacity=".45" style="fill:#fff;fill-opacity:1"/><path fill="#455A64" d="M108.848 84.754c-.057 0-.093-.05-.103-.138l-1.065-7.398a1 1 0 0 1 0-.103 1 1 0 0 0 0-.087q-.001-.322.482-.599l.235-.133c.323-.19.512-.159.512.087l.379 4.383.072.855.076.932.144-1.593c0-.179.036-.307.041-.383l.512-5.018a.43.43 0 0 1 .102-.261q.119-.136.277-.22l.404-.236a.6.6 0 0 1 .282-.102q.085 0 .102.148l.512 4.444.174 1.808.118-1.398-.005-.62.389-4.828a.883.883 0 0 1 .512-.686l.189-.107q.477-.278.477.046v.194l-1.055 8.627a.65.65 0 0 1-.379.482l-.538.307c-.215.128-.338.108-.363-.051l-.553-4.096-.087-1.285-.128 1.397-.512 4.736a.65.65 0 0 1-.369.471l-.512.308a.5.5 0 0 1-.322.117M114.265 81.529a.5.5 0 0 1-.077-.338v-7.737a1 1 0 0 1 .077-.424.5.5 0 0 1 .225-.251l2.391-1.378a.11.11 0 0 1 .149.002.1.1 0 0 1 .03.044c.046.142.066.292.057.44v.39a1.9 1.9 0 0 1-.057.512.44.44 0 0 1-.179.25l-1.428.825v1.807l1.264-.727q.125-.069.179.046c.047.142.066.292.057.44v.39q.007.26-.057.512a.4.4 0 0 1-.179.25l-1.264.728v2.022l1.433-.824c.082-.051.143-.03.179.046q.061.219.052.445v.385q.006.26-.052.511a.41.41 0 0 1-.179.251l-2.396 1.383c-.102.046-.179.051-.225 0M118.56 78.918a2 2 0 0 1 0-.241l1.25-8.658a.9.9 0 0 1 .512-.635l.512-.302c.297-.174.46-.153.512.056l1.249 7.22v.215a.56.56 0 0 1-.348.476l-.43.246c-.261.153-.405.148-.43 0l-.21-1.403-1.234.711-.22 1.649a.67.67 0 0 1-.379.481l-.42.246c-.236.143-.364.143-.364-.061m2.504-4.48-.363-2.432a14 14 0 0 1-.098-.896l-.041.025c-.03.348-.061.681-.097 1.024l-.358 2.852zM123.071 76.184v-7.86c-.005-.145.021-.29.077-.425a.6.6 0 0 1 .251-.26l1.351-.784a1.1 1.1 0 0 1 1.198-.123q.455.308.456 1.628a4.34 4.34 0 0 1-.768 2.56v.046a.6.6 0 0 1 .323.313c.103.196.177.407.22.624l.476 2.12v.133q.001.338-.512.63l-.287.164c-.286.163-.445.148-.486-.057l-.43-2.124a.5.5 0 0 0-.164-.292c-.061-.036-.159 0-.297.061l-.195.113v2.82a.79.79 0 0 1-.512.677l-.276.159c-.261.184-.425.143-.425-.123m1.705-5.632a.84.84 0 0 0 .302-.451c.094-.28.137-.575.128-.87a1.25 1.25 0 0 0-.128-.697.23.23 0 0 0-.151-.1.23.23 0 0 0-.177.044l-.43.25v2.085zM127.326 74.002a.55.55 0 0 1-.072-.343v-7.752c-.004-.143.02-.286.072-.42a.57.57 0 0 1 .23-.25l2.391-1.383a.11.11 0 0 1 .15.005.1.1 0 0 1 .029.047q.07.213.057.44v.384a1.8 1.8 0 0 1-.057.512.44.44 0 0 1-.179.256l-1.428.819v1.813l1.264-.733q.124-.069.18.046.07.218.056.446v.384q.007.26-.056.512a.43.43 0 0 1-.18.256l-1.264.727v2.022l1.433-.83c.082-.045.144-.03.174.052.047.144.066.295.057.445v.385a1.8 1.8 0 0 1-.057.511.4.4 0 0 1-.174.251l-2.396 1.383c-.097.046-.179.046-.23.015M132.067 70.992v-7.987a.78.78 0 0 1 .466-.671l.343-.195q.46-.267.461.134v3.072l1.387-.8v-3.071a.79.79 0 0 1 .471-.67l.333-.19c.312-.185.466-.139.466.128v7.987a.79.79 0 0 1-.466.67l-.333.19c-.317.18-.471.138-.471-.128v-3.256l-1.387.799v3.256a.767.767 0 0 1-.461.666l-.343.2c-.307.173-.466.132-.466-.134M136.89 68.206V60.22a.79.79 0 0 1 .471-.681l.343-.2c.307-.174.461-.128.461.149v7.987a.79.79 0 0 1-.461.676l-.343.194q-.47.278-.471-.138M139.03 66.972v-7.864c-.005-.145.021-.29.077-.425a.6.6 0 0 1 .251-.261l1.351-.778c.512-.287.896-.333 1.199-.128q.454.307.455 1.628a4.33 4.33 0 0 1-.768 2.56v.051a.58.58 0 0 1 .323.312q.155.294.22.62l.476 2.12.026.138q.001.339-.512.625l-.287.163c-.287.17-.445.149-.512-.056l-.43-2.12a.5.5 0 0 0-.128-.307c-.062-.04-.164 0-.297.056l-.195.113v2.821a.802.802 0 0 1-.486.681l-.276.159q-.486.292-.487-.108m1.705-5.632a.8.8 0 0 0 .302-.45c.094-.28.137-.575.128-.87a1.27 1.27 0 0 0-.128-.697.225.225 0 0 0-.328-.051l-.43.246v2.084zM143.172 64.581v-7.987a.8.8 0 0 1 .471-.686l.343-.194c.307-.18.461-.128.461.143v7.987a.79.79 0 0 1-.461.681l-.343.195c-.312.184-.471.133-.471-.139M145.297 63.353v-7.988a.79.79 0 0 1 .471-.67l.21-.118a.45.45 0 0 1 .261-.082c.062 0 .118.072.159.184l1.459 3.226q.163.398.276.814l.031-.041c-.041-.41-.061-.722-.061-.947v-3.984a.78.78 0 0 1 .466-.67l.199-.113q.468-.27.466.128v7.987a.77.77 0 0 1-.466.671l-.158.087a.46.46 0 0 1-.267.087c-.066 0-.128-.066-.169-.18l-1.536-3.348a4.4 4.4 0 0 1-.22-.675l-.041.061q.054.406.067.814v4.096a.79.79 0 0 1-.471.67l-.195.113c-.322.19-.481.144-.481-.123M153.653 53.906c.062.101.087.22.072.338v3.717c-.016.24-.102.47-.246.66a4.2 4.2 0 0 1-1.311 1.24q-1.127.655-1.674-.128-.548-.784-.538-3.072c-.038-1.24.146-2.476.543-3.65a3.9 3.9 0 0 1 1.69-2.049 2.4 2.4 0 0 1 .701-.276.97.97 0 0 1 .553 0c.062.02.117.06.155.113a.3.3 0 0 1 .055.184 2 2 0 0 1-.087.512 4 4 0 0 1-.205.599.7.7 0 0 1-.22.327.3.3 0 0 1-.169 0 1.6 1.6 0 0 0-.307 0q-.218.05-.405.17a1.8 1.8 0 0 0-.763 1.11 8 8 0 0 0-.24 2.238 5.7 5.7 0 0 0 .23 2.048c.154.327.379.41.681.23q.182-.098.333-.24v-1.895l-.41.24q-.124.07-.179-.045a1.1 1.1 0 0 1-.056-.44v-.4q-.013-.26.056-.512a.41.41 0 0 1 .179-.256l1.337-.773c.102-.036.179-.041.225.01M154.513 58.033v-1.147a.78.78 0 0 1 .471-.67l.266-.154c.313-.185.471-.139.471.128v1.147a.78.78 0 0 1-.471.67l-.266.154c-.317.179-.471.138-.471-.128m.246-2.632q-.084-.043-.082-.256v-5.207a.77.77 0 0 1 .466-.67l.373-.216a.63.63 0 0 1 .349-.107q.123 0 .123.184l-.415 5.479a.9.9 0 0 1-.097.368.8.8 0 0 1-.313.272l-.066.035c-.169.113-.282.149-.338.118" style="fill:#455a64;fill:color(display-p3 .2706 .3529 .3922);fill-opacity:1"/><path fill="#F7921E" d="m111.136 147.218 41.621-24.028c3.21-7.352 5.775-18.371 2.959-24.233-.829-1.73-1.991-2.391-3.015-3.768-1.393-1.89-.958-6.405-1.055-9.575-.21-10.542-6.144-10.404-12.16-5.632-3.758 2.663-6.897 3.477-10.128 2.335-2.365-.845-4.777-1.326-7.598.512-2.176 1.403-3.394 2.703-5.478 6.216a21.3 21.3 0 0 0-2.171 5.483c-1.915 7.68-.512 14.536-2.335 22.221-1.024 3.907-3.159 7.27-4.096 11.264-2.237 7.532.093 16.773 3.456 19.205" style="fill:#f7921e;fill:color(display-p3 .9686 .5725 .1176);fill-opacity:1"/><path fill="#fff" d="m111.136 147.218 41.621-24.028c3.21-7.352 5.775-18.371 2.959-24.233-.829-1.73-1.991-2.391-3.015-3.768-1.393-1.89-.958-6.405-1.055-9.575-.21-10.542-6.144-10.404-12.16-5.632-3.758 2.663-6.897 3.477-10.128 2.335-2.365-.845-4.777-1.326-7.598.512-2.176 1.403-3.394 2.703-5.478 6.216a21.3 21.3 0 0 0-2.171 5.483c-1.915 7.68-.512 14.536-2.335 22.221-1.024 3.907-3.159 7.27-4.096 11.264-2.237 7.532.093 16.773 3.456 19.205" opacity=".8" style="fill:#fff;fill-opacity:1"/><path fill="#455A64" d="m154.457 122.673-45.43 26.235c-.082.046-.149 0-.149-.144a.38.38 0 0 1 .149-.307l45.435-26.235c.082-.046.148 0 .148.144a.377.377 0 0 1-.153.307" style="fill:#455a64;fill:color(display-p3 .2706 .3529 .3922);fill-opacity:1"/><path fill="#F5F5F5" d="m124.249 107.958 1.264-.732-.076-1.383-1.27.732zM123.895 124.409l.697-.405-.082-1.377-.697.399zM127.536 122.304l.701-.399-.082-1.383-.701.405z" style="fill:#f5f5f5;fill:color(display-p3 .9608 .9608 .9608);fill-opacity:1"/><path fill="#455A64" d="m127.31 104.845-5.145 2.949c-.323.189-.609-.051-.64-.512l-.225-3.85a1.42 1.42 0 0 1 .537-1.214l5.12-2.97c.328-.184.609.052.64.538l.225 3.85a1.38 1.38 0 0 1-.512 1.209" style="fill:#455a64;fill:color(display-p3 .2706 .3529 .3922);fill-opacity:1"/><path fill="#37474F" d="m121.894 102.188-.21.117a1.41 1.41 0 0 0-.512 1.214l.225 3.85c.031.481.312.722.64.512l.21-.118a1.4 1.4 0 0 0 .512-1.213l-.225-3.85c-.031-.461-.313-.702-.64-.512" style="fill:#37474f;fill:color(display-p3 .2157 .2784 .3098);fill-opacity:1"/><path fill="#455A64" d="m129.364 119.826-7.266 4.194c-.322.184-.609-.057-.64-.538l-.737-12.585a1.41 1.41 0 0 1 .512-1.213l7.26-4.194c.328-.184.609.052.64.538l.737 12.585a1.41 1.41 0 0 1-.506 1.213" style="fill:#455a64;fill:color(display-p3 .2706 .3529 .3922);fill-opacity:1"/><path fill="#37474F" d="m122.308 123.896-.21.123c-.322.185-.609-.056-.64-.537l-.737-12.585a1.41 1.41 0 0 1 .512-1.214l.21-.117c.322-.19.609.051.635.512l.773 12.605a1.418 1.418 0 0 1-.543 1.213M133.275 118.935l-10.624 6.144a1.43 1.43 0 0 0-.589 1.147v.784c0 .445.267.655.589.471l10.624-6.144a1.44 1.44 0 0 0 .584-1.147v-.784c0-.45-.256-.66-.584-.471" style="fill:#37474f;fill:color(display-p3 .2157 .2784 .3098);fill-opacity:1"/><path fill="#263238" d="m125.447 126.974 5.028-2.903a1.92 1.92 0 0 0 .727-1.536l-6.482 3.742c0 .615.327.927.727.697" style="fill:#263238;fill:color(display-p3 .149 .1961 .2196);fill-opacity:1"/><path fill="#263238" d="m128.483 126.103-1.024.574c-.312.179-.563-.062-.563-.543l2.125-1.229a1.5 1.5 0 0 1-.538 1.198" style="fill:#263238;fill:color(display-p3 .149 .1961 .2196);fill-opacity:1"/><path fill="#F5F5F5" d="m128.498 130.056-1.075.619v-3.973l1.075-.624z" style="fill:#f5f5f5;fill:color(display-p3 .9608 .9608 .9608);fill-opacity:1"/><path fill="#37474F" d="m128.549 132.596-1.172.675c-.138.077-.251 0-.251-.184v-1.741a.95.95 0 0 1 .394-.747l.886-.512c.215-.123.389 0 .389.297v1.72a.6.6 0 0 1-.246.492" style="fill:#37474f;fill:color(display-p3 .2157 .2784 .3098);fill-opacity:1"/><path fill="#37474F" d="M132.645 133.21c-.117.072-.215-.026-.215-.205 0-.328-.138-.543-.337-.512l-3.513-.21c-.112 0-.174-.143-.138-.338.036-.194.164-.358.271-.368l3.518.21c.374-.026.63.368.63.983a.58.58 0 0 1-.216.44M127.971 136.819c-.113.067-.21-.025-.21-.204v-4.511a.58.58 0 0 1 .21-.451c.118-.066.21 0 .21.205v4.516a.552.552 0 0 1-.21.445" style="fill:#37474f;fill:color(display-p3 .2157 .2784 .3098);fill-opacity:1"/><path fill="#263238" d="M132.645 132.765a1.76 1.76 0 0 0-.665 1.413c0 .563.297.85.665.64a1.75 1.75 0 0 0 .666-1.413c0-.564-.297-.85-.666-.64M127.971 135.473a1.75 1.75 0 0 0-.666 1.408c0 .563.302.85.666.64a1.77 1.77 0 0 0 .666-1.408c-.011-.568-.308-.855-.666-.64" style="fill:#263238;fill:color(display-p3 .149 .1961 .2196);fill-opacity:1"/><path fill="#37474F" d="M123.25 138.632c-.117.071-.215 0-.215-.205a2.7 2.7 0 0 1 .635-1.715l3.512-4.265c.113-.123.236-.097.272.051a.62.62 0 0 1-.138.512l-3.513 4.26a1.46 1.46 0 0 0-.338.916.57.57 0 0 1-.215.446" style="fill:#37474f;fill:color(display-p3 .2157 .2784 .3098);fill-opacity:1"/><path fill="#263238" d="M123.25 138.192a1.76 1.76 0 0 0-.665 1.408c0 .563.302.849.665.64a1.75 1.75 0 0 0 .666-1.408c0-.569-.297-.83-.666-.64" style="fill:#263238;fill:color(display-p3 .149 .1961 .2196);fill-opacity:1"/><path fill="#F7921E" d="m116.85 121.173 31.673-18.284v-1.31l-31.673 18.283z" style="fill:#f7921e;fill:color(display-p3 .9686 .5725 .1176);fill-opacity:1"/><path fill="#000" d="m123.716 117.21-6.866 3.963v-1.311l6.866-3.963z" opacity=".15" style="fill:#000;fill-opacity:1"/><path fill="#F7921E" d="m119.267 142.533.635-.363.225-22.897-1.091.63zm21.56-12.447.635-.363.225-22.897-1.09.63zm5.76-26.112.231 22.631.635-.369.225-22.891z" style="fill:#f7921e;fill:color(display-p3 .9686 .5725 .1176);fill-opacity:1"/><path fill="#000" d="m119.267 142.533.635-.363.225-22.897-1.091.63zm21.56-12.447.635-.363.225-22.897-1.09.63zm5.76-26.112.231 22.631.635-.369.225-22.891z" opacity=".15" style="fill:#000;fill-opacity:1"/><path fill="#000" d="m119.062 121.408 1.06-.614v-1.536l-1.091.629zm21.56-12.447 1.06-.614v-1.536l-1.09.63zm5.975-4.961v1.5l1.06-.609v-1.536z" opacity=".15" style="fill:#000;fill-opacity:1"/><path fill="#F7921E" d="M134.74 107.753a.44.44 0 0 0-.088-.307c-.107-.102-.286-.031-.476.077v-.231l-2.826 1.634c0 1.413.22 2.437 1.413 1.746.495-.279.879-.72 1.086-1.25a1.914 1.914 0 0 0 .891-1.669m-.748 1.265q.152-.58.174-1.178c.149-.082.287-.148.343-.092s.031.041.031.123a1.362 1.362 0 0 1-.548 1.147" style="fill:#f7921e;fill:color(display-p3 .9686 .5725 .1176);fill-opacity:1"/><path fill="#fff" d="M134.74 107.753a.44.44 0 0 0-.088-.307c-.107-.102-.286-.031-.476.077v-.231l-2.826 1.634c0 1.413.22 2.437 1.413 1.746.495-.279.879-.72 1.086-1.25a1.914 1.914 0 0 0 .891-1.669m-.748 1.265q.152-.58.174-1.178c.149-.082.287-.148.343-.092s.031.041.031.123a1.362 1.362 0 0 1-.548 1.147" opacity=".5" style="fill:#fff;fill-opacity:1"/><path fill="#fff" d="M132.067 108.521s-.266-.169-.179-.896.573-1.459.512-2.176c-.062-.716-.395-.993-.277-1.94a9.3 9.3 0 0 1 .691-2.197l1.716-.988c-.356.797-.62 1.632-.789 2.489 0 .691.307 1.177.241 1.96-.067.784-.794 1.613-.794 2.361a.77.77 0 0 0 .22.599z" style="fill:#fff;fill-opacity:1"/><path fill="#F7921E" d="M115.053 137.377a3.78 3.78 0 0 0 1.127-2.36c.22-1.623.906-1.741 1.182-3.159.277-1.418-.384-1.684-.112-2.621.271-.937.056-1.874-.548-1.25s-.476 1.562-1.265 2.299c-.788.738-1.024 2.309-.932 3.533.093 1.311-1.116 2.56-.711 4.286z" style="fill:#f7921e;fill:color(display-p3 .9686 .5725 .1176);fill-opacity:1"/><path fill="#fff" d="M115.053 137.377a3.78 3.78 0 0 0 1.127-2.36c.22-1.623.906-1.741 1.182-3.159.277-1.418-.384-1.684-.112-2.621.271-.937.056-1.874-.548-1.25s-.476 1.562-1.265 2.299c-.788.738-1.024 2.309-.932 3.533.093 1.311-1.116 2.56-.711 4.286z" opacity=".2" style="fill:#fff;fill-opacity:1"/><path fill="#F7921E" d="M115.053 137.378a3.8 3.8 0 0 0 1.127-2.361c.22-1.623.906-1.741 1.182-3.159.277-1.418-.384-1.684-.112-2.621.204-.697.138-1.388-.159-1.444-.666 2.048-2.104 6.692-2.33 9.754z" style="fill:#f7921e;fill:color(display-p3 .9686 .5725 .1176);fill-opacity:1"/><path fill="#fff" d="M115.053 137.378a3.8 3.8 0 0 0 1.127-2.361c.22-1.623.906-1.741 1.182-3.159.277-1.418-.384-1.684-.112-2.621.204-.697.138-1.388-.159-1.444-.666 2.048-2.104 6.692-2.33 9.754z" opacity=".1" style="fill:#fff;fill-opacity:1"/><path fill="#F7921E" d="M112.37 138.924s-.906.312-1.126-1.055-.906-.696-1.183-1.797c-.276-1.101.384-2.125.113-2.749-.272-.625-.056-1.808.548-1.885s.476 1.024 1.264.84c.789-.184 1.024 1.137.932 2.458-.092 1.413 1.116 1.28.712 3.466z" style="fill:#f7921e;fill:color(display-p3 .9686 .5725 .1176);fill-opacity:1"/><path fill="#fff" d="M112.37 138.924s-.906.312-1.126-1.055-.906-.696-1.183-1.797c-.276-1.101.384-2.125.113-2.749-.272-.625-.056-1.808.548-1.885s.476 1.024 1.264.84c.789-.184 1.024 1.137.932 2.458-.092 1.413 1.116 1.28.712 3.466z" opacity=".2" style="fill:#fff;fill-opacity:1"/><path fill="#F7921E" d="M112.37 138.924s-.906.312-1.126-1.055-.906-.696-1.183-1.797c-.276-1.101.384-2.125.113-2.75a1.86 1.86 0 0 1 .159-1.628c.665 1.26 2.104 4.265 2.329 7.066z" style="fill:#f7921e;fill:color(display-p3 .9686 .5725 .1176);fill-opacity:1"/><path fill="#fff" d="M112.37 138.924s-.906.312-1.126-1.055-.906-.696-1.183-1.797c-.276-1.101.384-2.125.113-2.75a1.86 1.86 0 0 1 .159-1.628c.665 1.26 2.104 4.265 2.329 7.066z" opacity=".1" style="fill:#fff;fill-opacity:1"/><path fill="#F7921E" d="m111.515 139.421.395 6.144c.066.675.465.977.936.706l1.895-1.09a2.43 2.43 0 0 0 .932-1.792l.399-6.575z" style="fill:#f7921e;fill:color(display-p3 .9686 .5725 .1176);fill-opacity:1"/><path fill="#fff" d="m111.515 139.421.395 6.144c.066.675.465.977.936.706l1.895-1.09a2.43 2.43 0 0 0 .932-1.792l.399-6.575z" opacity=".5" style="fill:#fff;fill-opacity:1"/><path fill="#F7921E" d="M115.053 132.882c-.358-.906-.461-.911-.051-2.048.41-1.136.635-2.56.092-3.225-.543-.666.041-1.803-.241-2.135a.225.225 0 0 0-.174-.082h-.107c-.415.082-.743.512-1.024 1.264-.297.83-.205 1.024-.512 1.869s-.917 1.577-.768 2.877c.051.42.266.656.302 1.096.092 1.311-.742 2.048-.63 4.05.036.691.338 1.756.968 2.079l1.536-.881a8.3 8.3 0 0 0 .752-1.812c.334-1 .282-2.088-.143-3.052" style="fill:#f7921e;fill:color(display-p3 .9686 .5725 .1176);fill-opacity:1"/><path fill="#000" d="M113.538 126.646c-.297.829-.205 1.024-.512 1.869s-.917 1.577-.768 2.877c.051.42.266.656.302 1.096.092 1.311-.743 2.048-.63 4.05.036.691.338 1.756.968 2.079l.701-.405c-.379-3.287-.246-8.847.922-12.831-.374.093-.712.533-.983 1.265" opacity=".15" style="fill:#000;fill-opacity:1"/><path fill="#37474F" d="m148.231 98.737-11.121 6.421.743-13.492 11.11-6.4c.307-.179.512.072.512.558l-.64 11.73a1.62 1.62 0 0 1-.604 1.183" style="fill:#37474f;fill:color(display-p3 .2157 .2784 .3098);fill-opacity:1"/><path fill="#455A64" d="M145.916 103.084s-.414-4.04-1.356-5.57a.2.2 0 0 0-.126-.09.2.2 0 0 0-.151.033l-1.285.742a.92.92 0 0 0-.338.82c.25 1.943.296 3.908.138 5.862z" style="fill:#455a64;fill:color(display-p3 .2706 .3529 .3922);fill-opacity:1"/><path fill="#263238" d="M144.749 93.79a2.77 2.77 0 0 1-1.024 2.222c-.578.334-1.024-.117-1.024-1.023a2.78 2.78 0 0 1 1.024-2.222c.558-.333 1.024.133 1.024 1.024" style="fill:#263238;fill:color(display-p3 .149 .1961 .2196);fill-opacity:1"/><path fill="#455A64" d="m140.771 105.434 3.62-2.089v.614l-3.912 2.258v-.312a.61.61 0 0 1 .292-.471M137.806 104.753l-.696.404.743-13.49.696-.405c.302-.174.512.077.512.563l-.645 11.73a1.6 1.6 0 0 1-.61 1.198" style="fill:#455a64;fill:color(display-p3 .2706 .3529 .3922);fill-opacity:1"/><path fill="#000" d="M117.157 186.842V175.44a.95.95 0 0 1 .425-.732l27.244-15.714c.23-.133.42-.025.42.246v11.397a.938.938 0 0 1-.42.733l-27.244 15.723c-.235.128-.425.021-.425-.251" opacity=".15" style="fill:#000;fill-opacity:1"/><path fill="#F7921E" d="m146.301 159.844-27.244 15.724a.92.92 0 0 0-.425.732v11.397a.92.92 0 0 0 .425.727l1.536.85a.94.94 0 0 0 .85 0l27.243-15.718a.94.94 0 0 0 .42-.733v-11.407a.92.92 0 0 0-.425-.727l-1.536-.85a.94.94 0 0 0-.844.005" style="fill:#f7921e;fill:color(display-p3 .9686 .5725 .1176);fill-opacity:1"/><path fill="#F7921E" d="M120.997 189.028v-11.402a.93.93 0 0 1 .425-.732l27.244-15.718c.23-.139.42-.026.42.24v11.402a.94.94 0 0 1-.42.733l-27.244 15.718c-.235.138-.425.026-.425-.241" style="fill:#f7921e;fill:color(display-p3 .9686 .5725 .1176);fill-opacity:1"/><path fill="#000" d="M121.422 189.269a.95.95 0 0 1-.849 0l-1.536-.85a.91.91 0 0 1-.425-.727V176.3a.9.9 0 0 1 .143-.409l2.36 1.346a.8.8 0 0 0-.128.415v11.402c.01.22.185.364.435.215" opacity=".2" style="fill:#000;fill-opacity:1"/><path fill="#fff" d="M149.081 161.339c-.031-.209-.205-.286-.42-.163l-27.239 15.739a.8.8 0 0 0-.297.317l-2.37-1.341a.87.87 0 0 1 .292-.303l27.243-15.718a.94.94 0 0 1 .845 0l1.536.85a.94.94 0 0 1 .41.619" opacity=".4" style="fill:#fff;fill-opacity:1"/><path fill="#fff" d="m128.294 175.89 1.495 5.74a1 1 0 0 1 0 .153c0 .123-.093.256-.308.384l-.204.118c-.175.097-.308.123-.333 0l-.307-1.213-1.69.962-.307 1.567a.55.55 0 0 1-.287.364l-.184.107c-.246.138-.359.133-.359 0q.005-.096.026-.189l1.495-7.455a.608.608 0 0 1 .338-.389l.302-.149c.159-.102.287-.123.323 0m-.512 1.634c0 .23-.052.46-.098.691l-.512 2.56 1.203-.697-.512-1.976a5 5 0 0 1-.092-.578zM133.48 174.866a3.44 3.44 0 0 1-1.464 3.026l-.82.471v2.56a.57.57 0 0 1-.353.487l-.159.092c-.24.138-.348.097-.348-.087v-6.513a.51.51 0 0 1 .236-.512l1.377-.794c.579-.327 1.531-.614 1.531 1.27m-2.284.302v2.048l.748-.43a1.54 1.54 0 0 0 .66-1.423c0-.835-.389-.794-.696-.615zM137.248 172.69a3.43 3.43 0 0 1-1.464 3.026l-.819.477v2.56a.58.58 0 0 1-.353.486l-.159.092c-.241.138-.348.097-.348-.087v-6.518a.507.507 0 0 1 .235-.512l1.377-.793c.579-.328 1.531-.615 1.531 1.269m-2.283.303v2.048l.747-.431a1.53 1.53 0 0 0 .661-1.423c0-.834-.389-.788-.697-.614zM138.759 169.936v5.734l1.597-.926c.123-.067.174.036.174.343v.251c0 .307-.051.471-.174.537l-2.217 1.28c-.169.098-.24 0-.24-.225v-6.497a.58.58 0 0 1 .348-.487l.158-.092c.246-.138.354-.107.354.082M143.894 166.674c.251-.148.364-.138.364 0q-.014.136-.062.262l-1.341 4.029v3.21a.577.577 0 0 1-.348.487l-.159.092c-.246.138-.348.097-.348-.087v-3.236l-1.342-2.453a.4.4 0 0 1-.061-.189c0-.123.112-.256.374-.41l.215-.122c.169-.098.297-.128.353 0l.906 1.766.922-2.831a.73.73 0 0 1 .363-.384z" style="fill:#fff;fill-opacity:1"/><path fill="#E0E0E0" d="m113.276 153.874 37.156-21.452c.594-.343 1.076-.098 1.076.542a2.308 2.308 0 0 1-1.076 1.782l-37.156 21.453c-.588.343-1.07.097-1.07-.543a2.33 2.33 0 0 1 1.07-1.782M113.276 158.539l37.156-21.448c.594-.343 1.076-.102 1.076.512a2.29 2.29 0 0 1-1.076 1.782l-37.156 21.453c-.588.343-1.07.102-1.07-.543a2.32 2.32 0 0 1 1.07-1.756M113.276 163.188l37.156-21.453c.594-.343 1.076-.097 1.076.543a2.32 2.32 0 0 1-1.076 1.782l-37.156 21.452c-.588.338-1.07.098-1.07-.542a2.309 2.309 0 0 1 1.07-1.782M113.276 167.832l37.156-21.453c.594-.338 1.076-.097 1.076.543a2.292 2.292 0 0 1-1.076 1.781l-37.156 21.453c-.588.343-1.07.097-1.07-.543a2.32 2.32 0 0 1 1.07-1.781" style="fill:#e0e0e0;fill:color(display-p3 .8784 .8784 .8784);fill-opacity:1"/><path fill="#37474F" d="M182.996 154.996h-1.388v-6.364a5.13 5.13 0 0 1 2.35-4.071l7.45-4.301a1.869 1.869 0 0 1 2.995 1.772l-.133 6.472-1.388-.031.133-6.467c0-.343-.076-.604-.215-.686-.138-.082-.404-.025-.701.144l-7.445 4.295a3.728 3.728 0 0 0-1.658 2.873z" style="fill:#37474f;fill:color(display-p3 .2157 .2784 .3098);fill-opacity:1"/><path fill="#37474F" d="m206.307 170.632-1.49-27.428a2.41 2.41 0 0 0-1.08-1.756l-.855-.512a.73.73 0 0 0-.758-.056l-28.672 16.553 3.942 30.387 28.672-16.538a.689.689 0 0 0 .241-.65" style="fill:#37474f;fill:color(display-p3 .2157 .2784 .3098);fill-opacity:1"/><path fill="#263238" d="m172.418 185.25 4.326 2.499c.563.327.988.061.952-.584l-1.49-27.428a2.4 2.4 0 0 0-1.08-1.766l-.855-.512a.66.66 0 0 0-.738-.078.655.655 0 0 0-.337.661l-1.736 25.426a2.12 2.12 0 0 0 .958 1.782" style="fill:#263238;fill:color(display-p3 .149 .1961 .2196);fill-opacity:1"/><path fill="#F7921E" d="M187.506 179.474a.397.397 0 0 1-.394-.368l-.773-12.831a.392.392 0 0 1 .371-.378.393.393 0 0 1 .412.332l.758 12.851a.4.4 0 0 1-.1.282.4.4 0 0 1-.269.133zM198.484 173.187a.396.396 0 0 1-.369-.368l-.758-12.852a.384.384 0 0 1 .083-.308.397.397 0 0 1 .445-.122.399.399 0 0 1 .256.384l.757 12.852a.398.398 0 0 1-.368.414z" style="fill:#f7921e;fill:color(display-p3 .9686 .5725 .1176);fill-opacity:1"/><path fill="#455A64" d="M179.913 172.393a2.077 2.077 0 0 1-3.113-1.679l-.588-10.982a2.413 2.413 0 0 0-1.091-1.751l-.85-.512a.75.75 0 0 0-.696-.093l28.569-16.501a.69.69 0 0 1 .753.056l.86.512a2.42 2.42 0 0 1 1.081 1.761l.583 10.839a5.722 5.722 0 0 1-2.857 5.279z" style="fill:#455a64;fill:color(display-p3 .2706 .3529 .3922);fill-opacity:1"/><path fill="#F7921E" d="m189.943 165.359 4.153-2.397.179 2.299-4.163 2.402z" style="fill:#f7921e;fill:color(display-p3 .9686 .5725 .1176);fill-opacity:1"/></svg>