<svg xmlns="http://www.w3.org/2000/svg" width="256" height="256" fill="none"><path stroke="#D5D5D5" d="M47.06 211.54c-22.474-11.768-33.56-27.116-33.56-42.333s11.084-30.568 33.56-42.341C69.524 115.1 99 109.203 128.502 109.203c29.503 0 58.977 5.897 81.439 17.663 22.473 11.773 33.558 27.122 33.559 42.337s-11.083 30.564-33.559 42.337c-22.465 11.767-51.939 17.663-81.441 17.663s-58.976-5.896-81.44-17.663Z" style="stroke:#d5d5d5;stroke:color(display-p3 .8353 .8353 .8353);stroke-opacity:1"/><path fill="#37474F" d="M153.318 159.675V33.687c0-3.24 1.613-4.137 3.042-4.961s3.783-1.326 5.816-.154l52.024 30.04a8.125 8.125 0 0 1 3.682 6.38v125.976c0 2.351-1.475 3.733-2.904 4.557s-3.921 1.731-5.954.558L157 166.049a6.93 6.93 0 0 1-3.682-6.374" style="fill:#37474f;fill:color(display-p3 .2157 .2784 .3098);fill-opacity:1"/><path fill="#263238" d="m156.626 160.868 53.499 30.884V65.222l6.692-3.866a7.5 7.5 0 0 1 1.08 3.624v125.988c0 2.35-1.475 3.733-2.903 4.557-1.429.824-3.922 1.731-5.955.558L157 166.049a7.07 7.07 0 0 1-3.19-3.558l.21-.118z" style="fill:#263238;fill:color(display-p3 .149 .1961 .2196);fill-opacity:1"/><path fill="#455A64" d="M154.168 34.27v125.784a6.5 6.5 0 0 0 .857 2.883 6.5 6.5 0 0 0 2.067 2.186l50.78 29.322c2.181 1.259 3.968.23 3.968-2.289V67.192a5.71 5.71 0 0 0-2.56-4.47l-52.188-30.126c-1.608-.926-2.924-.168-2.924 1.675" style="fill:#455a64;fill:color(display-p3 .2706 .3529 .3922);fill-opacity:1"/><path fill="#000" d="M156.713 40.261v116.813a6.14 6.14 0 0 0 2.78 4.818l47.038 27.136c1.536.891 2.775.174 2.775-1.603V69.773a6.22 6.22 0 0 0-1.951-4.188l-.261-.236a6 6 0 0 0-.563-.389L193.3 57.31l-.865-.511c-.476-.277-.86-.056-.86.512s-.415.763-.922.466l-15.421-8.904a1.99 1.99 0 0 1-.922-1.536 1.95 1.95 0 0 0-.773-1.444l-.087-.056-12.943-7.445-.277-.163c-1.935-1.117-3.517-.205-3.517 2.032" style="fill:#000;fill-opacity:1"/><path fill="#263238" d="M163.528 158.774a6.14 6.14 0 0 1-2.775-4.818V38.531l12.697 7.327.087.056a1.96 1.96 0 0 1 .773 1.444 2 2 0 0 0 .922 1.536l15.421 8.903c.512.297.922.082.922-.466 0-.547.384-.773.86-.512l.865.512 13.23 7.64q.294.176.564.389l.261.235a6.22 6.22 0 0 1 1.951 4.188v115.42z" style="fill:#263238;fill:color(display-p3 .149 .1961 .2196);fill-opacity:1"/><path fill="#263238" d="m188.308 53.082-7.065-4.096c-.42-.241-.763-.067-.763.389a1.64 1.64 0 0 0 .768 1.28l7.065 4.096c.425.245.763.072.763-.384a1.64 1.64 0 0 0-.768-1.285M177.618 46.559c-.476-.277-.86-.051-.86.512a1.9 1.9 0 0 0 .86 1.49c.471.271.86.051.86-.512a1.92 1.92 0 0 0-.86-1.49" style="fill:#263238;fill:color(display-p3 .149 .1961 .2196);fill-opacity:1"/><path fill="#455A64" d="M213.053 80.1a3.11 3.11 0 0 1 1.362-2.463.91.91 0 0 1 .932-.077c.169.103.84.477 1.024.584a1.07 1.07 0 0 1 .42.968v10.24a3.12 3.12 0 0 1-1.362 2.457.92.92 0 0 1-.896.098c-.189-.103-.876-.512-1.055-.605a1.06 1.06 0 0 1-.42-.962z" style="fill:#455a64;fill:color(display-p3 .2706 .3529 .3922);fill-opacity:1"/><path fill="#37474F" d="M214.067 80.679v10.265c0 .927.609 1.326 1.362.891a3.11 3.11 0 0 0 1.362-2.457v-10.24c0-.927-.609-1.322-1.362-.891a3.11 3.11 0 0 0-1.362 2.432" style="fill:#37474f;fill:color(display-p3 .2157 .2784 .3098);fill-opacity:1"/><path fill="#455A64" d="M213.053 98.066a3.11 3.11 0 0 1 1.362-2.463.92.92 0 0 1 .932-.076c.169.107.84.48 1.024.583a1.08 1.08 0 0 1 .42.968v10.266a3.07 3.07 0 0 1-1.362 2.457.92.92 0 0 1-.896.097c-.189-.097-.876-.512-1.055-.599a1.08 1.08 0 0 1-.42-.967z" style="fill:#455a64;fill:color(display-p3 .2706 .3529 .3922);fill-opacity:1"/><path fill="#37474F" d="M214.067 98.65v10.24c0 .921.609 1.321 1.362.886a3.07 3.07 0 0 0 1.362-2.458v-10.24c0-.927-.609-1.321-1.362-.89a3.11 3.11 0 0 0-1.362 2.462" style="fill:#37474f;fill:color(display-p3 .2157 .2784 .3098);fill-opacity:1"/><path fill="#F7921E" d="M158.351 42.152c.615-.349 1.459-.303 2.391.235l.267.159 12.497 7.214q.047.021.087.051a1.88 1.88 0 0 1 .748 1.398 1.91 1.91 0 0 0 .906 1.49l14.889 8.596h.036a.57.57 0 0 1 .241-.512l.86-.512a.58.58 0 0 1 .589.062l.834.481 12.759 7.414q.288.166.548.374.13.107.251.23a6 6 0 0 1 1.884 4.045v113.659a1.89 1.89 0 0 1-.783 1.735l-.866.512a1.89 1.89 0 0 1-1.894-.194l-45.425-26.225a5.94 5.94 0 0 1-2.682-4.654V44.865c0-1.075.378-1.833.993-2.191z" style="fill:#f7921e;fill:color(display-p3 .9686 .5725 .1176);fill-opacity:1"/><path fill="#000" d="M204.354 188.194v.226l.256.143a1.896 1.896 0 0 0 1.895.195l.865-.512a1.88 1.88 0 0 0 .784-1.736V72.872a5.6 5.6 0 0 0-.927-2.868l-1.024.59c.547.825.859 1.784.901 2.774v113.664c.024.461-.106.917-.369 1.296a1.14 1.14 0 0 1-.921.435 2.3 2.3 0 0 1-1.106-.348zM172.994 50.855c.188.252.297.553.313.866.009.366.125.722.332 1.024l1.024-.594a1.7 1.7 0 0 1-.312-.901 1.8 1.8 0 0 0-.338-.963z" opacity=".3" style="fill:#000;fill-opacity:1"/><path fill="#FAFAFA" d="M205.814 188.742a1.13 1.13 0 0 0 .921-.43c.266-.378.396-.834.369-1.295V73.384a5.82 5.82 0 0 0-1.823-3.907l-.082-.077c-.056-.051-.107-.102-.169-.148a4 4 0 0 0-.512-.354l-12.8-7.377-.834-.482a.6.6 0 0 0-.277-.087c-.24 0-.266.282-.266.405a.7.7 0 0 1-.163.531.68.68 0 0 1-.503.237 1 1 0 0 1-.512-.16l-14.894-8.596a2.09 2.09 0 0 1-.983-1.638 1.699 1.699 0 0 0-.665-1.24l-.072-.04-12.477-7.224-.272-.159a2.9 2.9 0 0 0-1.413-.435c-1.024 0-1.695.86-1.695 2.232v112.819a5.716 5.716 0 0 0 2.586 4.485l45.43 26.23c.332.209.713.327 1.106.343" style="fill:#fafafa;fill:color(display-p3 .9804 .9804 .9804);fill-opacity:1"/><path fill="#F7921E" d="M158.387 42.664c.5.019.987.167 1.413.43l.272.158 12.497 7.215.072.046a1.68 1.68 0 0 1 .666 1.239 2.09 2.09 0 0 0 .983 1.638l14.889 8.591c.153.098.33.152.512.16a.69.69 0 0 0 .501-.238.68.68 0 0 0 .159-.53c0-.124.031-.405.272-.405a.6.6 0 0 1 .276.087l.835.48 12.8 7.379q.267.16.512.353l.169.149.082.076a5.82 5.82 0 0 1 1.822 3.907v13.245l-50.427-29.132V44.865c0-1.372.635-2.201 1.695-2.201" style="fill:#f7921e;fill:color(display-p3 .9686 .5725 .1176);fill-opacity:1"/><path fill="#fff" d="M158.387 42.664c.5.019.987.167 1.413.43l.272.158 12.497 7.215.072.046a1.68 1.68 0 0 1 .666 1.239 2.09 2.09 0 0 0 .983 1.638l14.889 8.591c.153.098.33.152.512.16a.69.69 0 0 0 .501-.238.68.68 0 0 0 .159-.53c0-.124.031-.405.272-.405a.6.6 0 0 1 .276.087l.835.48 12.8 7.379q.267.16.512.353l.169.149.082.076a5.82 5.82 0 0 1 1.822 3.907v13.245l-50.427-29.132V44.865c0-1.372.635-2.201 1.695-2.201" opacity=".3" style="fill:#fff;fill-opacity:1"/><path fill="#FAFAFA" d="M159.857 48.106a.1.1 0 0 1 .005.026.1.1 0 0 1-.005.025.04.04 0 0 1-.047 0l-.102-.056a.1.1 0 0 1-.046-.056.13.13 0 0 1 0-.072V46.14l-.404.174h-.052a.1.1 0 0 1-.046-.056l-.061-.138a.13.13 0 0 1 0-.077.04.04 0 0 1 .006-.025.04.04 0 0 1 .019-.016l.512-.24h.082l.103.06a.15.15 0 0 1 .046.052.14.14 0 0 1 0 .077zM160.911 48.71a.06.06 0 0 1 0 .051.03.03 0 0 1-.023.009.04.04 0 0 1-.023-.009l-.102-.061a.1.1 0 0 1-.046-.051.14.14 0 0 1 0-.077V46.76l-.405.179a.1.1 0 0 1-.025.007.1.1 0 0 1-.026-.007.2.2 0 0 1-.046-.062l-.056-.138a.1.1 0 0 1 0-.072v-.046l.512-.235h.081l.103.056a.2.2 0 0 1 .046.056.14.14 0 0 1 0 .072zM161.495 47.574q.033.017.046.05a.14.14 0 0 1 0 .078v.225a.06.06 0 0 1 0 .051h-.046l-.169-.092a.2.2 0 0 1-.046-.056.2.2 0 0 1 0-.077v-.22a.1.1 0 0 1-.005-.026q0-.013.005-.026a.036.036 0 0 1 .046 0zm0 1.162a.1.1 0 0 1 .046.056.14.14 0 0 1 0 .072v.225a.06.06 0 0 1 0 .051h-.046l-.169-.097a.2.2 0 0 1-.046-.056.2.2 0 0 1 0-.072v-.225a.08.08 0 0 1 0-.051.04.04 0 0 1 .023-.009q.013 0 .023.009zM162.073 48.869c.021.12.07.232.144.328a.9.9 0 0 0 .251.24q.073.045.158.056c.04.016.084.016.123 0a.2.2 0 0 0 .087-.102.5.5 0 0 0 .031-.194.85.85 0 0 0-.241-.59 1 1 0 0 0-.158-.122.34.34 0 0 0-.241-.056l-.066.025a.1.1 0 0 1-.067 0l-.128-.077a.1.1 0 0 1-.025-.037.1.1 0 0 1-.006-.045.2.2 0 0 1 0-.061l.072-1.07a.08.08 0 0 1 0-.051.05.05 0 0 1 .051 0l.876.512a.13.13 0 0 1 .051.05.3.3 0 0 1 0 .078v.117a.1.1 0 0 1 .005.026.1.1 0 0 1-.005.026.05.05 0 0 1-.026.008.04.04 0 0 1-.025-.008l-.722-.42-.041.553h.118q.095.029.179.082.137.079.245.194.12.123.205.272a1.45 1.45 0 0 1 .185.68.7.7 0 0 1-.052.298.35.35 0 0 1-.133.168.34.34 0 0 1-.205.041.7.7 0 0 1-.245-.092 1 1 0 0 1-.236-.184 1.418 1.418 0 0 1-.338-.527.8.8 0 0 1-.056-.292.06.06 0 0 1 0-.041h.041l.113.066q.024.017.041.041a.23.23 0 0 1 .04.108M163.548 49.765q.015.061.036.123a.6.6 0 0 0 .066.138q.055.07.118.133.09.08.195.138a.5.5 0 0 0 .143.062.2.2 0 0 0 .123 0 .17.17 0 0 0 .087-.082.4.4 0 0 0 .031-.17.64.64 0 0 0-.236-.5 1 1 0 0 0-.148-.108l-.21-.118a.2.2 0 0 1-.046-.056.13.13 0 0 1 0-.072v-.123a.06.06 0 0 1 0-.046l.025-.03.451-.385-.712-.425a.2.2 0 0 1-.046-.056.14.14 0 0 1 0-.072v-.123a.1.1 0 0 1-.005-.025q0-.014.005-.026a.04.04 0 0 1 .046 0l.983.569q.034.02.051.056a.2.2 0 0 1 0 .072v.122a.08.08 0 0 1 0 .052l-.03.035-.446.38q.129.075.231.184.102.11.179.24c.1.178.153.38.154.584a.6.6 0 0 1-.052.271.28.28 0 0 1-.133.149.3.3 0 0 1-.194.03.6.6 0 0 1-.241-.092 1.3 1.3 0 0 1-.492-.466 1.1 1.1 0 0 1-.112-.26.8.8 0 0 1-.041-.236v-.041c0-.005 0 0 .036 0l.117.066a.1.1 0 0 1 .041.046.14.14 0 0 1 .026.062M167.444 50.343l-.773 1.73v-1.14l-.855-.513 1.628-.097m0-.2a.23.23 0 0 0-.092-.077h-.041l-1.623.103c-.061 0-.061.107 0 .25q.059.131.149.241a.7.7 0 0 0 .097.087l.563.323v.804c.02.142.078.277.169.389l.031.036c.082.097.159.128.184.071l.763-1.72a.1.1 0 0 0 0-.056.8.8 0 0 0-.195-.42zM194.114 67.946l-.419-.24v-.82l.419.24zM194.775 68.33l-.42-.24v-1.173l.42.24zM195.435 68.71l-.414-.241V66.86l.414.24z" style="fill:#fafafa;fill:color(display-p3 .9804 .9804 .9804);fill-opacity:1"/><path fill="#F7921E" d="m196.101 69.093-.42-.24v-2.038l.42.24z" style="fill:#f7921e;fill:color(display-p3 .9686 .5725 .1176);fill-opacity:1"/><path fill="#FAFAFA" d="M199.009 68.679a.99.99 0 0 0-1.106-.036l.277.512a.73.73 0 0 1 .829.025c.357.23.645.552.835.932l.271-.22a3.17 3.17 0 0 0-1.106-1.213m-.722.711.251.512a.43.43 0 0 1 .471 0c.2.126.363.302.471.512l.256-.2a2.04 2.04 0 0 0-.727-.814.64.64 0 0 0-.722-.01m.374.727.348.681.353-.282a1 1 0 0 0-.353-.394.3.3 0 0 0-.348-.005" style="fill:#fafafa;fill:color(display-p3 .9804 .9804 .9804);fill-opacity:1"/><path fill="#F7921E" d="M204.047 71.643a.65.65 0 0 1 .272.512v1.316c0 .2-.123.292-.272.205l-2.345-1.352a.66.66 0 0 1-.271-.512v-1.316c0-.2.118-.287.271-.205l2.345 1.357m0-.113-2.345-1.356c-.199-.113-.358 0-.358.271v1.316a.85.85 0 0 0 .358.68l2.345 1.352c.195.113.359 0 .359-.266v-1.316a.87.87 0 0 0-.359-.68" style="fill:#f7921e;fill:color(display-p3 .9686 .5725 .1176);fill-opacity:1"/><path fill="#FAFAFA" d="m203.1 72.805-1.326-.763a.3.3 0 0 1-.079-.092.3.3 0 0 1-.028-.118v-1.09c0-.082.046-.118.107-.082l1.326.763a.27.27 0 0 1 .108.21v1.09c0 .082-.052.118-.108.082" style="fill:#fafafa;fill:color(display-p3 .9804 .9804 .9804);fill-opacity:1"/><path fill="#F7921E" d="m204.656 73.384-.097-.052v-.711l.097.05a.66.66 0 0 1 .093.41c0 .185-.041.302-.093.302" style="fill:#f7921e;fill:color(display-p3 .9686 .5725 .1176);fill-opacity:1"/><path fill="#FAFAFA" d="m200.182 76.097 4.265 2.463c.112.066.21-.026.21-.205a.57.57 0 0 0-.21-.446l-4.265-2.478c-.118-.066-.21.026-.21.205a.55.55 0 0 0 .21.46m4.265 3.584-4.265-2.463c-.118-.066-.21.026-.21.2a.54.54 0 0 0 .21.445l4.265 2.463c.112.067.21 0 .21-.2a.58.58 0 0 0-.226-.455zm0 1.761-4.265-2.462c-.118-.067-.21 0-.21.2a.54.54 0 0 0 .21.445l4.249 2.462c.113.067.21 0 .21-.205a.57.57 0 0 0-.21-.45z" style="fill:#fafafa;fill:color(display-p3 .9804 .9804 .9804);fill-opacity:1"/><path fill="#F7921E" d="M158.387 42.827c.469.02.924.16 1.321.41l.266.154 12.498 7.214.057.036a1.49 1.49 0 0 1 .583 1.08 2.3 2.3 0 0 0 1.086 1.807l14.873 8.592c.184.112.394.174.61.179a.87.87 0 0 0 .855-.958c0-.025 0-.215.076-.215a.4.4 0 0 1 .18.062l.834.48 12.8 7.379q.269.152.512.343c.046.036.097.087.149.133l.087.082a5.63 5.63 0 0 1 1.761 3.763v113.664c0 .963-.415 1.536-1.101 1.536a2.1 2.1 0 0 1-1.024-.317l-45.435-26.245a5.605 5.605 0 0 1-2.493-4.322V44.865c0-1.275.563-2.048 1.505-2.048m0-.384c-1.116 0-1.884.891-1.884 2.422v112.829a5.94 5.94 0 0 0 2.683 4.654l45.424 26.245c.362.228.777.357 1.204.374.875 0 1.479-.706 1.479-1.92V73.383a6 6 0 0 0-2.135-4.275 4 4 0 0 0-.548-.374l-12.8-7.377-.834-.482a.76.76 0 0 0-.374-.112c-.271 0-.461.215-.461.594s-.189.578-.471.578a.9.9 0 0 1-.42-.133l-14.889-8.596a1.92 1.92 0 0 1-.89-1.475 1.88 1.88 0 0 0-.748-1.393.5.5 0 0 0-.087-.05l-12.498-7.215-.266-.159a3.1 3.1 0 0 0-1.511-.46z" style="fill:#f7921e;fill:color(display-p3 .9686 .5725 .1176);fill-opacity:1"/><path fill="#F7921E" d="M186.116 109.352c-2.145 1.239-5.12 1.06-8.387-.83-6.553-3.783-11.863-12.984-11.863-20.546 0-3.784 1.326-6.441 3.472-7.68l2.478-1.434c2.15-1.239 5.12-1.06 8.391.83 6.549 3.783 11.863 12.984 11.863 20.546 0 3.784-1.331 6.441-3.476 7.68z" style="fill:#f7921e;fill:color(display-p3 .9686 .5725 .1176);fill-opacity:1"/><path fill="#F7921E" d="M165.866 87.976c0-3.784 1.326-6.441 3.472-7.68 2.145-1.24 5.12-1.06 8.391.83 6.549 3.809 11.879 12.984 11.879 20.546 0 3.784-1.331 6.441-3.477 7.68s-5.12 1.06-8.386-.83c-6.569-3.783-11.879-12.984-11.879-20.546" style="fill:#f7921e;fill:color(display-p3 .9686 .5725 .1176);fill-opacity:1"/><path fill="#fff" d="M165.866 87.976c0-3.784 1.326-6.441 3.472-7.68 2.145-1.24 5.12-1.06 8.391.83 6.549 3.809 11.879 12.984 11.879 20.546 0 3.784-1.331 6.441-3.477 7.68s-5.12 1.06-8.386-.83c-6.569-3.783-11.879-12.984-11.879-20.546" opacity=".3" style="fill:#fff;fill-opacity:1"/><path fill="#fff" d="m175.502 101.467-4.203-6.722 2.073-2.417 2.478 3.978 6.042-7.04 1.725 2.744z" style="fill:#fff;fill-opacity:1"/><path fill="#F7921E" d="M186.54 122.971q.4.23.732.553.317.323.543.716c.156.276.273.573.348.881.083.335.124.679.123 1.024.02.369-.046.737-.195 1.075a.698.698 0 0 1-.542.405l.768 2.708a.6.6 0 0 1 0 .118.18.18 0 0 1-.036.123.07.07 0 0 1-.097 0l-.84-.481a.43.43 0 0 1-.179-.19 1.4 1.4 0 0 1-.082-.22l-.686-2.437-.574-.328v2.048a.2.2 0 0 1-.046.154.1.1 0 0 1-.059.021.1.1 0 0 1-.059-.021l-.809-.471a.3.3 0 0 1-.122-.144.5.5 0 0 1-.047-.21v-6.144a.2.2 0 0 1 .047-.148.09.09 0 0 1 .122 0zm-.701 2.483.701.404a.56.56 0 0 0 .43.098q.17-.056.169-.456a1.13 1.13 0 0 0-.169-.65 1.24 1.24 0 0 0-.43-.4l-.701-.404zM176.286 117.314c.293.172.555.39.779.646q.361.408.609.896.263.514.404 1.075.144.575.164 1.167v1.3519999999999999a3.3 3.3 0 0 1-.164.983 1.35 1.35 0 0 1-.389.614.9.9 0 0 1-.599.205 1.65 1.65 0 0 1-.773-.251l-1.669-.947a.3.3 0 0 1-.118-.143.45.45 0 0 1-.051-.21v-6.144a.2.2 0 0 1 .051-.154.09.09 0 0 1 .118 0zm.809 3.072a1.74 1.74 0 0 0-.839-1.582l-.63-.363v3.62l.66.379c.512.302.789.092.809-.625v-1.0550000000000002a4 4 0 0 0 0-.358z" style="fill:#f7921e;fill:color(display-p3 .9686 .5725 .1176);fill-opacity:1"/><path fill="#455A64" d="m166.793 125.459-1.638-.947-.246.824a.2.2 0 0 1-.051.092c-.026.026-.067 0-.128 0l-.179-.102a.2.2 0 0 1-.072-.087.3.3 0 0 1-.031-.133.2.2 0 0 1 0-.092l1.157-3.917a.4.4 0 0 1 .067-.118q.053-.054.143 0l.282.164a.34.34 0 0 1 .143.164q.043.097.072.199l1.152 5.248q.003.057 0 .113a.13.13 0 0 1-.036.097h-.072l-.174-.102a.3.3 0 0 1-.133-.138 1 1 0 0 1-.051-.149zm-1.469-1.505 1.305.752-.65-2.969zM169.691 123.191a.24.24 0 0 1 .092.113q.033.076.036.159v.261a.2.2 0 0 1-.036.118.08.08 0 0 1-.046.015.08.08 0 0 1-.046-.015l-.881-.512v4.239a.14.14 0 0 1-.041.113.07.07 0 0 1-.087 0l-.194-.113a.22.22 0 0 1-.087-.113.35.35 0 0 1-.041-.158v-4.219l-.881-.512a.24.24 0 0 1-.092-.108.5.5 0 0 1-.036-.159v-.261a.18.18 0 0 1 .036-.117.07.07 0 0 1 .092 0zM172.374 124.742a.24.24 0 0 1 .092.108.4.4 0 0 1 .036.164v.261q.003.03-.006.06a.14.14 0 0 1-.03.052.07.07 0 0 1-.092 0l-.881-.512v4.235a.14.14 0 0 1-.036.117.07.07 0 0 1-.092 0l-.189-.112a.22.22 0 0 1-.092-.108.35.35 0 0 1-.036-.159v-4.234l-.886-.512a.3.3 0 0 1-.087-.107.4.4 0 0 1-.041-.164v-.261a.14.14 0 0 1 .041-.113.1.1 0 0 1 .044-.015q.024 0 .043.015zM175.052 130.717a.24.24 0 0 1 .092.113q.033.076.036.159v.261a.2.2 0 0 1-.036.118.1.1 0 0 1-.046.015.1.1 0 0 1-.046-.015l-1.905-1.101a.24.24 0 0 1-.092-.113.34.34 0 0 1-.036-.159v-4.69a.14.14 0 0 1 .006-.062.2.2 0 0 1 .03-.055.07.07 0 0 1 .092 0l1.869 1.075a.26.26 0 0 1 .087.113.4.4 0 0 1 .041.158v.261a.16.16 0 0 1-.041.118.1.1 0 0 1-.02.013.1.1 0 0 1-.024.005.1.1 0 0 1-.023-.005.1.1 0 0 1-.02-.013l-1.536-.891v1.536l1.444.835q.061.04.092.107.035.076.036.159v.261a.2.2 0 0 1-.006.063.2.2 0 0 1-.03.055.07.07 0 0 1-.092 0l-1.444-.83v1.588zM177.98 133.063a.3.3 0 0 1-.107-.134 2 2 0 0 1-.082-.194l-1.536-4.434v3.584a.17.17 0 0 1-.036.113.1.1 0 0 1-.046.016.1.1 0 0 1-.046-.016l-.195-.113a.26.26 0 0 1-.087-.113.35.35 0 0 1-.041-.158v-4.695a.16.16 0 0 1 .041-.118l.02-.014a.1.1 0 0 1 .024-.004q.012 0 .023.004a.1.1 0 0 1 .02.014l.164.092q.076.05.113.133.044.094.077.195l1.536 4.439v-3.584a.15.15 0 0 1 .035-.118.07.07 0 0 1 .093 0l.194.113a.26.26 0 0 1 .087.107q.036.076.036.159v4.726a.16.16 0 0 1-.036.117.071.071 0 0 1-.087 0zM181.646 132.064v1.1469999999999998q.008.389-.102.763a1 1 0 0 1-.272.466.58.58 0 0 1-.414.148 1.1 1.1 0 0 1-.538-.174l-1.106-.64a.25.25 0 0 1-.092-.107.4.4 0 0 1-.036-.164v-4.69a.2.2 0 0 1 .006-.063.2.2 0 0 1 .03-.055.07.07 0 0 1 .092 0l1.08.625c.202.118.384.269.538.445q.258.288.43.635.182.377.282.783.102.434.102.881m-.445-.22a3 3 0 0 0-.057-.538 2.25 2.25 0 0 0-.44-.978 1.6 1.6 0 0 0-.43-.363l-.737-.425v3.778l.763.441a.77.77 0 0 0 .425.133.36.36 0 0 0 .276-.144.8.8 0 0 0 .148-.343q.046-.236.052-.476v-1.085M184.288 135.556l-1.638-.947-.246.824a.2.2 0 0 1-.051.092c-.026.026-.072 0-.133 0l-.174-.102a.2.2 0 0 1-.072-.087.3.3 0 0 1-.031-.133.4.4 0 0 1 0-.087l1.157-3.917a.3.3 0 0 1 .072-.118q.045-.054.143 0l.282.164a.36.36 0 0 1 .143.159q.043.099.067.204l1.193 5.233a.4.4 0 0 1 0 .113.124.124 0 0 1-.031.092.06.06 0 0 1-.036.013.06.06 0 0 1-.036-.013l-.174-.097a.35.35 0 0 1-.133-.139.6.6 0 0 1-.051-.153zm-1.474-1.505 1.305.757-.65-2.969zM187.652 138.643a.25.25 0 0 1-.113-.128 2 2 0 0 1-.077-.194l-1.536-4.439v3.584a.17.17 0 0 1-.035.117.1.1 0 0 1-.046.016.1.1 0 0 1-.047-.016l-.189-.112a.24.24 0 0 1-.092-.108.4.4 0 0 1-.036-.164v-4.689a.2.2 0 0 1 .006-.063.2.2 0 0 1 .03-.055.07.07 0 0 1 .092 0l.164.097q.076.047.113.128l.076.195 1.536 4.439v-3.584a.16.16 0 0 1 .062-.092.06.06 0 0 1 .043-.017q.025 0 .044.017l.194.112a.2.2 0 0 1 .087.108q.04.077.041.164v4.689a.16.16 0 0 1-.041.118c0 .026-.051.026-.087 0zM189.096 136.319v1.218c.004.384.084.764.235 1.117.132.31.357.572.645.747a.9.9 0 0 0 .384.133.4.4 0 0 0 .256-.077.5.5 0 0 0 .159-.225 2 2 0 0 0 .082-.312q0-.077.046-.092a.1.1 0 0 1 .039-.01q.02 0 .038.01l.215.128q.05.031.072.087a.3.3 0 0 1 .03.133 1.7 1.7 0 0 1-.076.476 1 1 0 0 1-.236.399.64.64 0 0 1-.404.185 1.05 1.05 0 0 1-.605-.185 2.1 2.1 0 0 1-.547-.461 3 3 0 0 1-.41-.65 3.5 3.5 0 0 1-.266-.773 4.4 4.4 0 0 1-.108-.85v-1.295q.004-.368.108-.722c.045-.178.137-.341.266-.471a.6.6 0 0 1 .41-.174c.194.004.384.063.547.169.232.132.437.305.605.512.305.39.523.84.64 1.321q.067.283.076.573a.1.1 0 0 1-.005.049.1.1 0 0 1-.025.043h-.072l-.215-.128a.2.2 0 0 1-.077-.082.3.3 0 0 1-.046-.148c0-.128-.046-.266-.082-.405a2 2 0 0 0-.159-.404 1.8 1.8 0 0 0-.256-.374 1.3 1.3 0 0 0-.384-.307q-.414-.246-.645 0a1.3 1.3 0 0 0-.235.845M193.934 141.623a.22.22 0 0 1 .092.108.4.4 0 0 1 .036.159v.261a.14.14 0 0 1-.036.117.07.07 0 0 1-.092 0l-1.905-1.1a.25.25 0 0 1-.092-.108.5.5 0 0 1-.036-.159v-4.695a.2.2 0 0 1 .036-.117.1.1 0 0 1 .046-.016q.026 0 .046.016l1.869 1.08a.2.2 0 0 1 .087.107q.038.076.041.159v.266a.14.14 0 0 1-.041.113c0 .026-.051.026-.087 0l-1.536-.891v1.536l1.444.835a.25.25 0 0 1 .087.112.34.34 0 0 1 .036.159v.261a.16.16 0 0 1-.036.118.071.071 0 0 1-.087 0l-1.444-.835v1.593z" style="fill:#455a64;fill:color(display-p3 .2706 .3529 .3922);fill-opacity:1"/><path fill="#FAFAFA" d="m201.036 177.033-39.25-22.661a2.66 2.66 0 0 1-1.024-2.146v-18.851c0-.861.45-1.296 1.024-.973l39.25 22.676a2.69 2.69 0 0 1 1.024 2.146v18.846c-.011.85-.466 1.285-1.024.963" style="fill:#fafafa;fill:color(display-p3 .9804 .9804 .9804);fill-opacity:1"/><path fill="#E0E0E0" d="M201.384 177.371a.93.93 0 0 1-.471-.138l-39.245-22.667a2.89 2.89 0 0 1-1.126-2.345v-18.846a1.34 1.34 0 0 1 .512-1.214.83.83 0 0 1 .422-.094.83.83 0 0 1 .412.135l39.25 22.661a2.9 2.9 0 0 1 1.132 2.345v18.862a1.35 1.35 0 0 1-.512 1.214.8.8 0 0 1-.374.087m-39.936-44.821a.3.3 0 0 0-.144.036c-.138.082-.286.338-.286.814v18.852a2.464 2.464 0 0 0 .896 1.946l39.25 22.666q.082.06.184.071a.37.37 0 0 0 .194-.035c.144-.082.292-.338.292-.814v-18.878a2.46 2.46 0 0 0-.896-1.945l-39.27-22.661a.5.5 0 0 0-.22-.052" style="fill:#e0e0e0;fill:color(display-p3 .8784 .8784 .8784);fill-opacity:1"/><path fill="#F7921E" d="M167.049 138.49c-2.002-1.157-3.625.404-3.625 3.486 0 5.289 3.625 12.386 3.625 12.386a11.028 11.028 0 0 0 3.625-8.192c-.01-3.088-1.623-6.523-3.625-7.68m0 7.936c-.968-.563-1.756-2.222-1.756-3.717s.788-2.248 1.756-1.685 1.756 2.222 1.756 3.712-.788 2.248-1.756 1.69M192.552 157.019l-17.152-9.902a2.2 2.2 0 0 1-.922-1.761v-.185c0-.681.415-.993.922-.696l17.152 9.902a2.2 2.2 0 0 1 .921 1.761v.185c0 .681-.409.993-.921.696" style="fill:#f7921e;fill:color(display-p3 .9686 .5725 .1176);fill-opacity:1"/><path fill="#E0E0E0" d="M198.706 164.412a.4.4 0 0 1-.225-.061l-24.233-13.988a.461.461 0 0 1 .461-.793l24.227 13.987a.47.47 0 0 1 .215.28.456.456 0 0 1-.445.575M198.706 168.176a.46.46 0 0 1-.225-.062l-24.233-13.988a.461.461 0 0 1 .461-.793l24.227 13.988a.454.454 0 0 1 .001.793.5.5 0 0 1-.231.062M198.706 171.939a.46.46 0 0 1-.225-.062l-24.233-13.987a.464.464 0 0 1-.046-.764.46.46 0 0 1 .507-.03l24.227 13.988q.08.045.135.117a.454.454 0 0 1-.134.676.46.46 0 0 1-.231.062" style="fill:#e0e0e0;fill:color(display-p3 .8784 .8784 .8784);fill-opacity:1"/><path fill="#FAFAFA" d="M120.284 113.713c0 4.06 1.413 8.556 3.707 12.549.358.635.748 1.26 1.152 1.869.405.61.835 1.188 1.275 1.756s.794.989 1.208 1.454q.3.34.599.656a22.2 22.2 0 0 0 4.885 3.932 14.8 14.8 0 0 0 2.672 1.224q.447.144.886.251a7.7 7.7 0 0 0 4.572-.144c2.868-1.06 4.695-4.127 4.701-8.735 0-8.192-5.745-18.129-12.831-22.215s-12.826-.778-12.826 7.403" style="fill:#fafafa;fill:color(display-p3 .9804 .9804 .9804);fill-opacity:1"/><path fill="#263238" d="M123.699 125.755q.143.26.287.512.292.525.625 1.024l.512.835c.409.609.834 1.193 1.274 1.761l.118.144.691-3.81a9 9 0 0 0-3.507-.466" style="fill:#263238;fill:color(display-p3 .149 .1961 .2196);fill-opacity:1"/><path fill="#F7921E" d="m124.611 127.292.512.834c.409.61.834 1.193 1.274 1.762l.118.143q.53.685 1.096 1.316l.594.65a22.1 22.1 0 0 0 4.884 3.932c.848.496 1.744.906 2.673 1.224.302.097.594.179.886.251a8.3 8.3 0 0 0 3.353.174 6.1 6.1 0 0 0 2.658-1.075c-.139-1.06-.425-1.89-.891-2.269-1.69-1.331-5.858-5.79-9.769-6.784-1.536-.399-3.072-.844-4.793-1.228-.921-.21-1.822.138-2.595 1.07" style="fill:#f7921e;fill:color(display-p3 .9686 .5725 .1176);fill-opacity:1"/><path fill="#fff" d="m124.611 127.292.512.834c.409.61.834 1.193 1.274 1.762l.118.143q.53.685 1.096 1.316l.594.65a22.1 22.1 0 0 0 4.884 3.932c.848.496 1.744.906 2.673 1.224.302.097.594.179.886.251a8.3 8.3 0 0 0 3.353.174 6.1 6.1 0 0 0 2.658-1.075c-.139-1.06-.425-1.89-.891-2.269-1.69-1.331-5.858-5.79-9.769-6.784-1.536-.399-3.072-.844-4.793-1.228-.921-.21-1.822.138-2.595 1.07" opacity=".2" style="fill:#fff;fill-opacity:1"/><path fill="#263238" d="M138.967 113.939a2.4 2.4 0 0 1-.138.327c1.715.784 3.072 2.796.957 4.066 1.28 1.024.707 2.56-.65 3.169-.236.281-.036.696 0 1.065a1.13 1.13 0 0 1-.434.995 1.14 1.14 0 0 1-1.071.177c.092.615-.343 1.572-1.127 1.536l.128-1.664s.21-1.464-.542-1.792c-.651-.148-1.321.133-1.982.154-2.411.266-4.424-1.444-5.811-3.241a.64.64 0 0 0-.394-.338c-.784-.461-.83-1.505-.584-2.294a1.45 1.45 0 0 1-1.963-.354 1.45 1.45 0 0 1 .238-1.98 1.164 1.164 0 0 1-1.401-.341 1.155 1.155 0 0 1 .018-1.441.622.622 0 0 0 .674.748.62.62 0 0 0 .35-.159c.318-.308.215-.83.097-1.255a1.26 1.26 0 0 1 .154-1.249c.374-.645 1.761-1.024 2.616-.512a1.86 1.86 0 0 1 1.434-1.966c1.178-.389 2.176.44 3.215.799 1.751-.64 3.794.363 3.815 2.365 1.884.097 3.046 1.27 2.401 3.185" style="fill:#263238;fill:color(display-p3 .149 .1961 .2196);fill-opacity:1"/><path fill="#FFA8A7" d="M138.414 124.491c-.968.456-1.782-.87-1.782-.87l-.481 6.354s-.512 1.259-3.758 1.203c-2.529-.041-4.347-1.536-2.381-3.17l.103-1.935a9 9 0 0 1-1.89-.691c-.891-.512-1.602-2.135-1.915-3.681-.512-2.484-.133-5.223.789-9.57 1.5 1.562 4.756-.814 7.46 2.13-.738 1.444.322 4.096 1.29 4.665-.312 1.254-.154 1.858.21 1.991.64.236 1.07-.64 1.444-.978s1.577-.629 2.119.937-.358 3.221-1.208 3.615" style="fill:#ffa8a7;fill:color(display-p3 1 .6588 .6549);fill-opacity:1"/><path fill="#F28F8F" d="M130.115 126.073c.512.092 2.426.143 3.113-.143a4.4 4.4 0 0 0 1.584-.95 4.4 4.4 0 0 0 1.052-1.518 3.58 3.58 0 0 1-1.858 2.862 6.17 6.17 0 0 1-3.948.707z" style="fill:#f28f8f;fill:color(display-p3 .949 .5608 .5608);fill-opacity:1"/><path fill="#263238" d="m132.024 116.043 1.116 1.106a.96.96 0 0 0-.179-1.142.57.57 0 0 0-.477-.221.57.57 0 0 0-.46.257M127.355 115.09l1.352-.076a.83.83 0 0 0-.799-.748.65.65 0 0 0-.568.545.7.7 0 0 0 .015.279" style="fill:#263238;fill:color(display-p3 .149 .1961 .2196);fill-opacity:1"/><path fill="#37474F" d="M132.639 118.408a.47.47 0 0 1-.172.389.46.46 0 0 1-.417.082.79.79 0 0 1-.512-.793.47.47 0 0 1 .176-.388.47.47 0 0 1 .418-.078.8.8 0 0 1 .507.788M128.599 116.96a.46.46 0 0 1-.176.388.47.47 0 0 1-.418.083.79.79 0 0 1-.512-.794.45.45 0 0 1 .371-.478.45.45 0 0 1 .218.012.784.784 0 0 1 .517.789" style="fill:#37474f;fill:color(display-p3 .2157 .2784 .3098);fill-opacity:1"/><path fill="#F28F8F" d="m130.662 116.801-.803 3.712-1.823-1.301z" style="fill:#f28f8f;fill:color(display-p3 .949 .5608 .5608);fill-opacity:1"/><path fill="#B16668" d="m131.374 122.054-1.986.107a1 1 0 0 0 .09.369.958.958 0 0 0 .934.537 1.025 1.025 0 0 0 .962-1.013" style="fill:#b16668;fill:color(display-p3 .6941 .4 .4078);fill-opacity:1"/><path fill="#F28F8F" d="M130.391 123.068a.92.92 0 0 1-.512-.108 1.184 1.184 0 0 1 1.444-.625 1.053 1.053 0 0 1-.932.733" style="fill:#f28f8f;fill:color(display-p3 .949 .5608 .5608);fill-opacity:1"/><path fill="#263238" d="M140.022 137.578a6.1 6.1 0 0 0 2.657-1.075q.467-.338.865-.753a18 18 0 0 0-1.756-1.536 8.24 8.24 0 0 0-1.766 3.364" style="fill:#263238;fill:color(display-p3 .149 .1961 .2196);fill-opacity:1"/><path fill="#F7921E" d="M127.38 105.265c1.906.08 3.758.651 5.376 1.659 6.877 3.968 12.473 13.66 12.473 21.602 0 4.131-1.536 7.075-4.234 8.069a6 6 0 0 1-2.156.373 8.5 8.5 0 0 1-2.002-.256 10 10 0 0 1-.834-.235 14 14 0 0 1-2.56-1.162 21.3 21.3 0 0 1-4.721-3.804c-.195-.205-.394-.42-.584-.635a30 30 0 0 1-2.427-3.144 29 29 0 0 1-1.126-1.818c-2.33-4.065-3.615-8.396-3.615-12.201 0-5.212 2.448-8.448 6.39-8.448m0-.711c-4.209 0-7.096 3.358-7.096 9.159 0 4.061 1.413 8.556 3.707 12.55a29.17 29.17 0 0 0 2.426 3.624 26 26 0 0 0 1.209 1.455c.194.225.399.445.599.655a22.2 22.2 0 0 0 4.884 3.932c.848.496 1.744.906 2.673 1.224q.447.144.886.251a9.2 9.2 0 0 0 2.171.276 6.8 6.8 0 0 0 2.401-.42c2.867-1.06 4.695-4.126 4.7-8.734 0-8.192-5.745-18.13-12.831-22.216a11.6 11.6 0 0 0-5.729-1.756" style="fill:#f7921e;fill:color(display-p3 .9686 .5725 .1176);fill-opacity:1"/><path fill="#F7921E" d="M120.095 99.06c-2.898-1.674-5.253-.317-5.253 3.026s2.355 7.419 5.253 9.093 5.248.318 5.248-3.031c0-3.348-2.35-7.419-5.248-9.088" style="fill:#f7921e;fill:color(display-p3 .9686 .5725 .1176);fill-opacity:1"/><path fill="#fff" d="M120.095 99.06c-2.898-1.674-5.253-.317-5.253 3.026s2.355 7.419 5.253 9.093 5.248.318 5.248-3.031c0-3.348-2.35-7.419-5.248-9.088" opacity=".3" style="fill:#fff;fill-opacity:1"/><path fill="#fff" d="m119.199 108.368-1.992-3.179.983-1.142 1.173 1.884 2.851-3.328.814 1.295z" style="fill:#fff;fill-opacity:1"/><path fill="#FAFAFA" d="M120.284 76.844c0 4.06 1.413 8.55 3.707 12.55.358.634.748 1.259 1.152 1.863.405.604.835 1.193 1.275 1.761.44.569.794.988 1.208 1.454l.599.656a22.2 22.2 0 0 0 4.885 3.932c.848.494 1.743.902 2.672 1.218.297.098.594.185.886.251a7.67 7.67 0 0 0 4.577-.138c2.863-1.06 4.69-4.127 4.696-8.74 0-8.192-5.745-18.125-12.831-22.21s-12.826-.779-12.826 7.403" style="fill:#fafafa;fill:color(display-p3 .9804 .9804 .9804);fill-opacity:1"/><path fill="#37474F" d="M140.216 80.93a11.5 11.5 0 0 1-.051 4.51 17.4 17.4 0 0 0-.358 4.507c.03.296.061.65-.169.844a.6.6 0 0 1-.743-.071 1.8 1.8 0 0 1-.409-.692c-.087 1.08-.179 2.166-.272 3.246.008.376-.098.745-.302 1.06a1.53 1.53 0 0 1-1.679.287 4.6 4.6 0 0 1-2.801-3.072 9 9 0 0 1-.097-4.28 17.7 17.7 0 0 1 1.987-5.52 16.5 16.5 0 0 0 1.474-2.826c.093-.406.267-.79.512-1.126.138-.164.261-.113.44-.036q.267.107.512.256c.322.202.612.45.861.737.256.29.477.61.655.953.18.343.322.706.425 1.08q.012.07.015.143" style="fill:#37474f;fill:color(display-p3 .2157 .2784 .3098);fill-opacity:1"/><path fill="#FFBDA7" d="M123.991 89.394c.358.634.748 1.259 1.152 1.863.405.604.835 1.193 1.275 1.761l1.142-3.281c-1.547-.471-2.555-.712-3.569-.343" style="fill:#ffbda7;fill:color(display-p3 1 .7412 .6549);fill-opacity:1"/><path fill="#F7921E" d="M125.22 90.74c.404.604.829 1.188 1.275 1.761.445.574.793.989 1.208 1.454.195.22.399.44.599.656a22 22 0 0 0 4.879 3.927c.849.499 1.746.909 2.678 1.224.297.097.594.184.881.25.025-2.09.496-4.152 1.382-6.046 0 0-1.065-.569-3.072-1.674a1 1 0 0 0-.066-.047c-1.618-1.11-2.709-.911-5.689-2.186-.051-.025.364-.24.313-.261l-1.951-.584c-.846.452-1.661.962-2.437 1.526" style="fill:#f7921e;fill:color(display-p3 .9686 .5725 .1176);fill-opacity:1"/><path fill="#455A64" d="M135.132 88.871c.241-.906 1.367-1.536 2.427-3.133 1.06-1.598 2.432-5.12.266-6.748.4-2.115-1.295-4.716-3.609-5.755-3.041-1.367-6.6-1.178-8.658 1.423-2.432 3.072.082 6.006.082 6.006z" style="fill:#455a64;fill:color(display-p3 .2706 .3529 .3922);fill-opacity:1"/><path fill="#FFBDA7" d="M125.952 85.523c.153.657.462 1.268.901 1.781.512.63 1.255.968 2.453 1.378l-.036.819v2.002s-1.449 1.705-1.536 2.954l.599.655a13.93 13.93 0 0 0 6.722-2.186v-.133l.067-1.372.148-3.354.026-.942a.9.9 0 0 0 .154.353 1.3 1.3 0 0 0 .512.415 1.44 1.44 0 0 0 1.218.067l.087-.046a.4.4 0 0 0 .128-.067.4.4 0 0 0 .103-.061.5.5 0 0 0 .087-.062l.082-.066a2.41 2.41 0 0 0 .722-2.796c-.297-.712-1.101-1.336-1.705-1.096-.605.241-.686.62-.953 1.05s-1.505-.886-.645-3.113a4.04 4.04 0 0 1-1.234-3.584c-.445-1.618-3.451-1.823-3.978-1.213-.44-1.024-.389-1.634-1.239-1.373-.85.262-2.284.835-2.785 4.358a14.8 14.8 0 0 0 .102 5.632" style="fill:#ffbda7;fill:color(display-p3 1 .7412 .6549);fill-opacity:1"/><path fill="#B16668" d="m131.231 85.19-1.792.051a1.175 1.175 0 0 0 1.172 1.024c.492-.02.707-.476.62-1.075" style="fill:#b16668;fill:color(display-p3 .6941 .4 .4078);fill-opacity:1"/><path fill="#F28F8F" d="M130.104 86.173a.79.79 0 0 1 .369-.577.78.78 0 0 1 .681-.063l.087.041a.69.69 0 0 1-.63.707.97.97 0 0 1-.507-.108" style="fill:#f28f8f;fill:color(display-p3 .949 .5608 .5608);fill-opacity:1"/><path fill="#F0997A" d="m129.562 80.47-.415 3.501-1.674-1.136z" style="fill:#f0997a;fill:color(display-p3 .9412 .6 .4784);fill-opacity:1"/><path fill="#263238" d="M127.744 80.638a.45.45 0 0 1-.148.407.46.46 0 0 1-.42.105.77.77 0 0 1-.584-.727.47.47 0 0 1 .146-.405.46.46 0 0 1 .417-.107.78.78 0 0 1 .589.727M131.896 82.046a.46.46 0 0 1-.563.512.79.79 0 0 1-.589-.727.47.47 0 0 1 .151-.404.47.47 0 0 1 .418-.108.78.78 0 0 1 .583.727" style="fill:#263238;fill:color(display-p3 .149 .1961 .2196);fill-opacity:1"/><path fill="#F0997A" d="M129.275 88.682a8 8 0 0 0 3.584-.164 3.55 3.55 0 0 0 1.679-1.392s.123 1.136-1.571 1.925c-1.321.62-3.718.455-3.718.455z" style="fill:#f0997a;fill:color(display-p3 .9412 .6 .4784);fill-opacity:1"/><path fill="#263238" d="m126.653 78.908 1.28.082a1.02 1.02 0 0 0-.834-.753c-.353-.026-.553.276-.446.67M130.893 80.044l1.398.932a.994.994 0 0 0-.476-1.055c-.384-.256-.799-.2-.922.123" style="fill:#263238;fill:color(display-p3 .149 .1961 .2196);fill-opacity:1"/><path fill="#455A64" d="M128.512 75.421c-.256 1.393 1.367 4.608 3.543 6.088s3.584 1.183 3.584 1.183.251-4.45-1.91-6.144c-2.16-1.695-5.217-1.127-5.217-1.127" style="fill:#455a64;fill:color(display-p3 .2706 .3529 .3922);fill-opacity:1"/><path fill="#FFBDA7" d="M135.782 100.278c.297.098.594.185.886.251a7.7 7.7 0 0 0 4.578-.138 4.9 4.9 0 0 0 1.418-1.121c-1.572-3.718-2.402-4.424-4.542-5.305-1.449 1.06-2.099 4.675-2.34 6.313" style="fill:#ffbda7;fill:color(display-p3 1 .7412 .6549);fill-opacity:1"/><path fill="#F7921E" d="M127.38 68.396c1.905.08 3.756.65 5.376 1.654 6.877 3.973 12.473 13.66 12.473 21.601 0 4.137-1.536 7.081-4.234 8.075a6.1 6.1 0 0 1-2.156.373 8.5 8.5 0 0 1-2.002-.256 12 12 0 0 1-.834-.235c-.89-.302-1.748-.69-2.56-1.163a21.2 21.2 0 0 1-4.721-3.809 23 23 0 0 1-.584-.635 30 30 0 0 1-1.182-1.418c-.4-.507-.845-1.136-1.245-1.72a26 26 0 0 1-1.126-1.823c-2.33-4.06-3.615-8.392-3.615-12.196 0-5.212 2.448-8.448 6.39-8.448m0-.711c-4.209 0-7.096 3.353-7.096 9.16 0 4.06 1.413 8.55 3.707 12.548.358.635.747 1.26 1.152 1.864s.834 1.193 1.274 1.761c.441.569.794.989 1.209 1.454l.599.656a22.2 22.2 0 0 0 4.884 3.932c.848.494 1.744.902 2.673 1.218.297.098.594.185.886.251a9 9 0 0 0 2.171.277 6.8 6.8 0 0 0 2.401-.415c2.867-1.06 4.695-4.127 4.7-8.74 0-8.192-5.745-18.124-12.831-22.21a11.6 11.6 0 0 0-5.729-1.756" style="fill:#f7921e;fill:color(display-p3 .9686 .5725 .1176);fill-opacity:1"/><path fill="#FAFAFA" d="M120.095 64.316c-2.903-1.674-5.253-.312-5.253 3.03 0 3.344 2.355 7.42 5.253 9.094s5.248.317 5.248-3.031-2.35-7.393-5.248-9.093" style="fill:#fafafa;fill:color(display-p3 .9804 .9804 .9804);fill-opacity:1"/><path fill="#E0E0E0" d="M122.44 77.387a5 5 0 0 1-2.463-.747c-2.954-1.71-5.361-5.878-5.361-9.293 0-1.7.584-2.98 1.649-3.584s2.468-.512 3.942.369c2.96 1.704 5.366 5.872 5.366 9.287 0 1.705-.589 2.98-1.654 3.584-.45.258-.961.39-1.479.384m-4.68-13.558a2.47 2.47 0 0 0-1.254.318c-.917.512-1.424 1.669-1.424 3.2 0 3.272 2.304 7.26 5.12 8.893 1.326.768 2.56.901 3.482.369.921-.532 1.423-1.664 1.423-3.2 0-3.267-2.304-7.26-5.12-8.894a4.53 4.53 0 0 0-2.227-.686" style="fill:#e0e0e0;fill:color(display-p3 .8784 .8784 .8784);fill-opacity:1"/><path fill="#FAFAFA" d="M120.32 39.996c0 4.06 1.413 8.555 3.707 12.549.358.635.747 1.26 1.152 1.868.404.61.835 1.188 1.275 1.757.44.568.793.988 1.208 1.454.2.22.4.445.599.655a22.2 22.2 0 0 0 4.885 3.932c.848.496 1.743.906 2.672 1.224q.447.145.886.25a7.73 7.73 0 0 0 4.577-.143c2.862-1.06 4.69-4.126 4.695-8.734 0-8.192-5.744-18.13-12.83-22.216s-12.826-.778-12.826 7.404" style="fill:#fafafa;fill:color(display-p3 .9804 .9804 .9804);fill-opacity:1"/><path fill="#263238" d="m123.725 52.038.287.512q.292.523.624 1.024c.22.333.353.558.512.834.405.61.83 1.193 1.27 1.762l.118.143.691-3.81a9 9 0 0 0-3.502-.465" style="fill:#263238;fill:color(display-p3 .149 .1961 .2196);fill-opacity:1"/><path fill="#37474F" d="M124.636 53.574c.174.276.354.558.512.834.405.61.83 1.193 1.27 1.762l.118.143q.529.685 1.095 1.316c.195.215.4.44.594.645a22 22 0 0 0 4.885 3.937c.848.496 1.743.906 2.672 1.224.303.097.594.18.886.25a8.3 8.3 0 0 0 3.354.175 6.1 6.1 0 0 0 2.657-1.075c-.138-1.06-.425-1.89-.891-2.268-1.689-1.332-2.652-2.177-3.497-2.786a12.7 12.7 0 0 0-6.246-4.004c-1.536-.399-3.072-.844-4.792-1.228-.943-.205-1.844.143-2.617 1.075" style="fill:#37474f;fill:color(display-p3 .2157 .2784 .3098);fill-opacity:1"/><path fill="#263238" d="M138.476 39.35c1.679 2.77 1.059 6.339-.164 8.704-.548 1.05-1.378 3.006-1.833 4.199 0 0-2.944 1.106-9.411-8.243-1.172-1.69-.512-5.755 1.065-7.266 2.217-2.15 7.035-2.652 10.343 2.606" style="fill:#263238;fill:color(display-p3 .149 .1961 .2196);fill-opacity:1"/><path fill="#C8856A" d="M138.44 50.773c-.968.456-1.782-.87-1.782-.87l-.466 6.354s0 .824-1.679 1.403c-1.101.378-3.39.158-4.69 1.28-.548-1.209-.988-3.303.23-4.65l.103-1.935a9 9 0 0 1-1.89-.691 4.1 4.1 0 0 1-2.13-2.857 12.6 12.6 0 0 1-.266-3.016c.151-1.959.444-3.904.876-5.821.107-.579.742-1.905 1.254-2.115 1.29-.512 1.137 1.51 2.637 2.023 1.5.512 5.734-.512 4.859 1.305a8.5 8.5 0 0 0 .368 4.972c.116.316.278.613.482.88.419.513.803-.48 1.172-.819s1.577-.63 2.12.937-.374 3.226-1.198 3.62" style="fill:#c8856a;fill:color(display-p3 .7843 .5216 .4157);fill-opacity:1"/><path fill="#AF6152" d="M130.14 52.355c1.142.261 3.318.174 4.173-.512a6.3 6.3 0 0 0 1.408-1.674 3.98 3.98 0 0 1-1.249 2.314c-1.746 1.378-4.388.825-4.388.825z" style="fill:#af6152;fill:color(display-p3 .6863 .3804 .3216);fill-opacity:1"/><path fill="#263238" d="M135.741 45.791c.134.948-.926 3.231-2.56 3.072s-1.94-1.223-3.384-1.602c-1.285-.338-2.089.082-2.734-.18a3.4 3.4 0 0 1-1.218-1.27s-.364 2.935.322 4.384c.911 1.92 3.318 2.344 4.762 2.478a5.23 5.23 0 0 0 3.584-.855c.911-.66 1.464-1.803 1.889-2.955s1.106-2.621 1.106-2.621l-1.715-.553M132.444 42.76l1.116 1.106a.98.98 0 0 0-.184-1.147.572.572 0 0 0-.932.041M127.38 41.373l1.352-.082a.83.83 0 0 0-.799-.743.655.655 0 0 0-.553.825M132.92 44.716a.459.459 0 0 1-.375.48.5.5 0 0 1-.219-.009.8.8 0 0 1-.512-.793.46.46 0 0 1 .176-.388.46.46 0 0 1 .418-.078.79.79 0 0 1 .512.788M128.625 43.241a.47.47 0 0 1-.375.48.5.5 0 0 1-.219-.009.805.805 0 0 1-.512-.793.454.454 0 0 1 .589-.466.79.79 0 0 1 .517.788" style="fill:#263238;fill:color(display-p3 .149 .1961 .2196);fill-opacity:1"/><path fill="#AF6152" d="m130.76 43.35-.809 3.721-1.818-1.3c.702-1.09 1.833-2.197 2.627-2.422M130.98 48.505l-1.992.107a.95.95 0 0 0 .322.669.95.95 0 0 0 .702.238 1.025 1.025 0 0 0 .968-1.014" style="fill:#af6152;fill:color(display-p3 .6863 .3804 .3216);fill-opacity:1"/><path fill="#F28F8F" d="M129.992 49.519a.9.9 0 0 1-.512-.108 1.186 1.186 0 0 1 1.449-.625 1.05 1.05 0 0 1-.937.733" style="fill:#f28f8f;fill:color(display-p3 .949 .5608 .5608);fill-opacity:1"/><path fill="#263238" d="M129.807 58.94c.717-.287 2.617-.692 2.77-.113.108.41.415 1.879.948 1.991a4.85 4.85 0 0 0 3.911-1.47c.457-.431.764-.998.876-1.617 0 0-.63-1.623-1.024-2.401-.394-.779-.512-1.219-.932-1.383l-.118 1.342c-.316.517-.767.939-1.305 1.218-1.275.65-3.83 1.045-5.126 2.432" style="fill:#263238;fill:color(display-p3 .149 .1961 .2196);fill-opacity:1"/><path fill="#263238" d="M129.807 58.94c-.389-.543-1.024-2.56-1.377-2.56-.696-.042-1.177.404-1.177 0 0-.405.512-1.168 1.157-2.207.486-.799 1.254-1.357 1.71-1.321l-.108 1.848a4.5 4.5 0 0 0-.363 1.536 6.4 6.4 0 0 0 .158 2.703M140.047 63.86a6.1 6.1 0 0 0 3.523-1.828 18 18 0 0 0-1.756-1.536 8.24 8.24 0 0 0-1.767 3.364" style="fill:#263238;fill:color(display-p3 .149 .1961 .2196);fill-opacity:1"/><path fill="#F7921E" d="M127.406 31.548c1.905.08 3.757.65 5.376 1.659 6.876 3.968 12.472 13.66 12.472 21.6 0 4.133-1.536 7.077-4.234 8.07-.69.255-1.42.381-2.155.374a8.5 8.5 0 0 1-2.002-.256 10 10 0 0 1-.835-.236c-.89-.301-1.747-.69-2.56-1.162a21.3 21.3 0 0 1-4.72-3.804c-.195-.205-.395-.42-.584-.635a31 31 0 0 1-1.183-1.424 29 29 0 0 1-1.244-1.72 31 31 0 0 1-1.126-1.817c-2.33-4.066-3.615-8.397-3.615-12.201 0-5.213 2.447-8.448 6.39-8.448m0-.712c-4.209 0-7.097 3.359-7.097 9.16 0 4.06 1.413 8.555 3.707 12.549.359.635.748 1.26 1.152 1.868.405.61.835 1.188 1.275 1.757.44.568.794.988 1.208 1.454.2.22.4.445.599.655a22.2 22.2 0 0 0 4.885 3.932c.848.496 1.743.906 2.673 1.224q.446.145.885.25c.71.18 1.439.272 2.171.277a6.8 6.8 0 0 0 2.407-.42c2.862-1.06 4.69-4.126 4.695-8.734 0-8.192-5.745-18.13-12.831-22.216a11.6 11.6 0 0 0-5.729-1.756" style="fill:#f7921e;fill:color(display-p3 .9686 .5725 .1176);fill-opacity:1"/><path fill="#F7921E" d="M120.12 27.508c-2.882-1.659-5.212-.317-5.212 3.005s2.34 7.342 5.212 9.017c2.873 1.674 5.213.312 5.213-3.006s-2.335-7.373-5.213-9.016" style="fill:#f7921e;fill:color(display-p3 .9686 .5725 .1176);fill-opacity:1"/><path fill="#fff" d="M120.12 27.508c-2.882-1.659-5.212-.317-5.212 3.005s2.34 7.342 5.212 9.017c2.873 1.674 5.213.312 5.213-3.006s-2.335-7.373-5.213-9.016" opacity=".3" style="fill:#fff;fill-opacity:1"/><path fill="#fff" d="m119.199 36.918-1.992-3.174.983-1.142 1.173 1.88 2.851-3.329.814 1.296z" style="fill:#fff;fill-opacity:1"/><path fill="#F7921E" fill-rule="evenodd" d="m182.825 121.028-3.514-2.109v1.034c0 .351.184.677.485.857l.819.492v4.944q0 .105.045.2c.019.059.055.11.102.145l.705.455a.07.07 0 0 0 .051.023.07.07 0 0 0 .051-.023.2.2 0 0 0 .036-.067.3.3 0 0 0 .009-.078v-5l1.697 1.018v-1.034a1 1 0 0 0-.486-.857" clip-rule="evenodd" style="fill:#f7921e;fill:color(display-p3 .9686 .5725 .1176);fill-opacity:1"/><path fill="#F7921E" d="M27.794 189.315a1.03 1.03 0 0 1-.433-1.084l10.412-46.09c.128-.445.41-.829.796-1.083l61.974-35.754a1.35 1.35 0 0 1 1.23 0 1.035 1.035 0 0 1 .438 1.083l-10.433 46.047a1.9 1.9 0 0 1-.797 1.083l-61.957 35.754a1.36 1.36 0 0 1-1.23.044" style="fill:#f7921e;fill:color(display-p3 .9686 .5725 .1176);fill-opacity:1"/><path fill="#fff" d="M27.794 189.315a1.03 1.03 0 0 1-.433-1.084l10.412-46.09c.128-.445.41-.829.796-1.083l61.974-35.754a1.35 1.35 0 0 1 1.23 0 1.035 1.035 0 0 1 .438 1.083l-10.433 46.047a1.9 1.9 0 0 1-.797 1.083l-61.957 35.754a1.36 1.36 0 0 1-1.23.044" opacity=".8" style="fill:#fff;fill-opacity:1"/><path fill="#F7921E" d="m38.965 142.84-10.412 46.101c-.093.395.124.542.47.352l61.975-35.776a1.9 1.9 0 0 0 .796-1.083l10.417-46.101c.087-.396-.124-.542-.476-.347l-61.963 35.771a1.92 1.92 0 0 0-.807 1.083" style="fill:#f7921e;fill:color(display-p3 .9686 .5725 .1176);fill-opacity:1"/><path fill="#fff" d="m38.965 142.84-10.412 46.101c-.093.395.124.542.47.352l61.975-35.776a1.9 1.9 0 0 0 .796-1.083l10.417-46.101c.087-.396-.124-.542-.476-.347l-61.963 35.771a1.92 1.92 0 0 0-.807 1.083" opacity=".6" style="fill:#fff;fill-opacity:1"/><path fill="#000" d="m38.965 142.84-10.412 46.101c-.093.395.124.542.47.352l61.975-35.776a1.9 1.9 0 0 0 .796-1.083l10.417-46.101c.087-.396-.124-.542-.476-.347l-61.963 35.771a1.92 1.92 0 0 0-.807 1.083" opacity=".05" style="fill:#000;fill-opacity:1"/><path fill="#F7921E" d="M102.97 105.954a1.35 1.35 0 0 0-1.235.027l-61.963 35.775a1.17 1.17 0 0 0-.542 1.084l8.126 57.103a1.68 1.68 0 0 0 .699 1.084 1.38 1.38 0 0 0 1.235 0l61.99-35.803a1.18 1.18 0 0 0 .542-1.084l-8.126-57.114a1.67 1.67 0 0 0-.726-1.072" style="fill:#f7921e;fill:color(display-p3 .9686 .5725 .1176);fill-opacity:1"/><path fill="#fff" d="M102.97 105.954a1.35 1.35 0 0 0-1.235.027l-61.963 35.775a1.17 1.17 0 0 0-.542 1.084l8.126 57.103a1.68 1.68 0 0 0 .699 1.084 1.38 1.38 0 0 0 1.235 0l61.99-35.803a1.18 1.18 0 0 0 .542-1.084l-8.126-57.114a1.67 1.67 0 0 0-.726-1.072" opacity=".8" style="fill:#fff;fill-opacity:1"/><path fill="#F7921E" d="m40.427 143.538 8.126 57.104a.47.47 0 0 0 .508.452.5.5 0 0 0 .234-.089l61.985-35.781a1.18 1.18 0 0 0 .542-1.084l-8.126-57.114a.47.47 0 0 0-.261-.408.46.46 0 0 0-.482.051l-61.968 35.754a1.16 1.16 0 0 0-.558 1.115" style="fill:#f7921e;fill:color(display-p3 .9686 .5725 .1176);fill-opacity:1"/><path fill="#fff" d="m40.427 143.538 8.126 57.104a.47.47 0 0 0 .508.452.5.5 0 0 0 .234-.089l61.985-35.781a1.18 1.18 0 0 0 .542-1.084l-8.126-57.114a.47.47 0 0 0-.261-.408.46.46 0 0 0-.482.051l-61.968 35.754a1.16 1.16 0 0 0-.558 1.115" opacity=".95" style="fill:#fff;fill-opacity:1"/><path fill="#F7921E" d="m44.94 182.862-7.275 4.199a1.1 1.1 0 0 0-.45 0l-8.587 1.652 15.84-9.193z" style="fill:#f7921e;fill:color(display-p3 .9686 .5725 .1176);fill-opacity:1"/><path fill="#fff" d="m44.94 182.862-7.275 4.199a1.1 1.1 0 0 0-.45 0l-8.587 1.652 15.84-9.193z" opacity=".5" style="fill:#fff;fill-opacity:1"/><path fill="#000" d="m44.94 182.862-7.275 4.199a1.1 1.1 0 0 0-.45 0l-8.587 1.652 15.84-9.193z" opacity=".2" style="fill:#000;fill-opacity:1"/><path fill="#F7921E" d="m47.313 199.51-8.939-12.048a1.23 1.23 0 0 0-.677-.422l7.243-4.177z" style="fill:#f7921e;fill:color(display-p3 .9686 .5725 .1176);fill-opacity:1"/><path fill="#fff" d="m47.313 199.51-8.939-12.048a1.23 1.23 0 0 0-.677-.422l7.243-4.177z" opacity=".6" style="fill:#fff;fill-opacity:1"/><path fill="#000" d="m47.313 199.51-8.939-12.048a1.23 1.23 0 0 0-.677-.422l7.243-4.177z" opacity=".1" style="fill:#000;fill-opacity:1"/><path fill="#F7921E" d="m47.036 200.074-8.667-11.241a1.4 1.4 0 0 0-1.176-.477l-8.093 1.17a2.4 2.4 0 0 1-1.322-.238c-.33-.19-.276-.406.125-.482l9.296-1.793a1.26 1.26 0 0 1 1.159.455l9.865 13.283c.238.33.168.439-.163.249a4.3 4.3 0 0 1-1.024-.926" style="fill:#f7921e;fill:color(display-p3 .9686 .5725 .1176);fill-opacity:1"/><path fill="#fff" d="m47.036 200.074-8.667-11.241a1.4 1.4 0 0 0-1.176-.477l-8.093 1.17a2.4 2.4 0 0 1-1.322-.238c-.33-.19-.276-.406.125-.482l9.296-1.793a1.26 1.26 0 0 1 1.159.455l9.865 13.283c.238.33.168.439-.163.249a4.3 4.3 0 0 1-1.024-.926" opacity=".8" style="fill:#fff;fill-opacity:1"/><path fill="#F7921E" d="M102.228 106.1a.997.997 0 0 0-.45-.834 1.37 1.37 0 0 0-1.235 0l-61.974 35.791c-.385.256-.667.64-.796 1.084l-1.468 6.501 1.192.688 63.241-36.513 1.473-6.501a1 1 0 0 0 0-.227z" style="fill:#f7921e;fill:color(display-p3 .9686 .5725 .1176);fill-opacity:1"/><path fill="#000" d="M102.211 106.327c.087-.395-.124-.542-.476-.347l-61.963 35.776c-.39.253-.674.637-.802 1.084l-1.468 6.5 63.241-36.512z" opacity=".6" style="fill:#000;fill-opacity:1"/><path fill="#000" d="M39.279 142.212c-.146.186-.25.4-.309.628l-1.473 6.501-1.192-.699 1.468-6.5c.061-.229.168-.443.314-.629z" opacity=".5" style="fill:#000;fill-opacity:1"/><path fill="#000" d="M102.228 106.099c-.028-.222-.223-.281-.493-.119l-61.963 35.776a1.7 1.7 0 0 0-.488.455l-1.192-.688c.13-.181.294-.336.483-.455l61.968-35.765a1.38 1.38 0 0 1 1.235 0 1.01 1.01 0 0 1 .45.796" opacity=".2" style="fill:#000;fill-opacity:1"/><path fill="#F7921E" d="m103.744 107.574-.076-.542v-.081a1.7 1.7 0 0 0-.677-.97 1.36 1.36 0 0 0-1.235.027l-61.984 35.749c-.19.115-.339.285-.428.487a1.1 1.1 0 0 0-.109.607l1.17 8.18 1.192.693 63.247-36.512z" style="fill:#f7921e;fill:color(display-p3 .9686 .5725 .1176);fill-opacity:1"/><path fill="#000" d="m104.839 115.212-63.247 36.513-1.165-8.186c-.025-.208.01-.418.103-.606.094-.2.242-.369.428-.488l61.974-35.754a.46.46 0 0 1 .417-.073.45.45 0 0 1 .292.306v.087l.076.541z" opacity=".4" style="fill:#000;fill-opacity:1"/><path fill="#000" d="m41.592 151.724-1.192-.694-1.17-8.18a1.1 1.1 0 0 1 .108-.606l1.198.688a1.1 1.1 0 0 0-.109.606z" opacity=".5" style="fill:#000;fill-opacity:1"/><path fill="#000" d="M103.647 106.929a.45.45 0 0 0-.715-.255l-61.974 35.754a1.1 1.1 0 0 0-.422.488l-1.198-.688c.09-.203.24-.373.428-.488l61.969-35.754a1.36 1.36 0 0 1 1.235-.027c.339.227.581.573.677.97" opacity=".3" style="fill:#000;fill-opacity:1"/><g fill="#000" opacity=".2"><path d="M46.11 143.603a2.13 2.13 0 0 1 1.008-1.961c.66-.379 1.273-.119 1.376.586a2.13 2.13 0 0 1-1.013 1.961.84.84 0 0 1-.866.129.832.832 0 0 1-.505-.715M54.469 138.783a2.12 2.12 0 0 1 1.013-1.961c.656-.385 1.273-.119 1.37.579a2.13 2.13 0 0 1-1.007 1.967c-.66.379-1.279.119-1.376-.585M62.817 133.961A2.13 2.13 0 0 1 63.825 132c.66-.379 1.273-.119 1.376.585a2.17 2.17 0 0 1-1.013 1.961c-.656.379-1.274.119-1.371-.585M79.518 124.318a2.12 2.12 0 0 1 1.008-1.961c.66-.379 1.273-.119 1.376.585a2.13 2.13 0 0 1-1.013 1.961c-.656.38-1.273.12-1.37-.585M87.877 119.492a2.12 2.12 0 0 1 1.013-1.961c.656-.38 1.273-.12 1.37.585a2.12 2.12 0 0 1-1.007 1.961c-.66.395-1.267.119-1.376-.585M96.225 114.67a2.13 2.13 0 0 1 1.008-1.961c.66-.379 1.273-.119 1.376.585a2.13 2.13 0 0 1-1.013 1.961c-.656.38-1.273.12-1.37-.585" style="fill:#000;fill-opacity:1"/></g><path fill="#37474F" d="M48.64 141.089q0 .363-.065.721a4 4 0 0 1-.092.363 2.2 2.2 0 0 1-.997 1.332c-.32.186-.686.281-1.056.277h-.293l-.032-.157a1.9 1.9 0 0 1 .157-.959c.228.034.462-.006.666-.114a1.38 1.38 0 0 0 .542-1.094 3 3 0 0 0 0-.352 5.8 5.8 0 0 0-1.116-3.169 6 6 0 0 0-.791-.916 4.5 4.5 0 0 0-.796-.596 1.62 1.62 0 0 0-1.55-.211 1.59 1.59 0 0 0-.596 1.446q.006.5.125.986l-1.002.58v-.065a5.6 5.6 0 0 1-.222-1.501 2.62 2.62 0 0 1 1.159-2.416c.742-.428 1.685-.352 2.67.211.456.27.87.604 1.23.992q.419.435.753.937a6.95 6.95 0 0 1 1.306 3.705M56.999 136.264q0 .363-.065.72-.03.19-.087.374a2.23 2.23 0 0 1-1.002 1.322 2.07 2.07 0 0 1-1.056.276H54.5a.7.7 0 0 1-.032-.157 1.83 1.83 0 0 1 .152-.959c.228.034.462-.006.666-.114a1.36 1.36 0 0 0 .542-1.089 2.4 2.4 0 0 0 0-.357 6.23 6.23 0 0 0-1.907-4.085 4.4 4.4 0 0 0-.796-.596 1.63 1.63 0 0 0-1.55-.205 1.57 1.57 0 0 0-.596 1.441c.004.332.046.663.125.985l-1.002.58v-.065a5.6 5.6 0 0 1-.217-1.5 2.62 2.62 0 0 1 1.154-2.417c.742-.428 1.69-.352 2.67.212.456.269.87.603 1.23.991q.415.439.753.937A6.9 6.9 0 0 1 57 136.264M65.341 131.442q0 .365-.06.726a3 3 0 0 1-.091.368 2.16 2.16 0 0 1-.997 1.322c-.32.187-.685.284-1.056.282a2 2 0 0 1-.288 0 .7.7 0 0 1-.032-.157 1.8 1.8 0 0 1 .152-.959c.226.038.46-.002.66-.114a1.36 1.36 0 0 0 .542-1.089q.015-.179 0-.357a5.8 5.8 0 0 0-1.116-3.164 6 6 0 0 0-.79-.915 4.5 4.5 0 0 0-.797-.602 1.62 1.62 0 0 0-1.55-.206 1.59 1.59 0 0 0-.595 1.447q.005.5.124.986l-1.007.579v-.07a5.6 5.6 0 0 1-.222-1.495c0-1.132.411-1.988 1.153-2.416.743-.428 1.69-.358 2.671.211.456.269.872.601 1.235.986q.415.439.753.937a6.95 6.95 0 0 1 1.311 3.7M82.027 121.815q.003.364-.06.721a4 4 0 0 1-.092.374 2.23 2.23 0 0 1-1.002 1.321c-.32.184-.683.279-1.051.277a2 2 0 0 1-.287 0 1 1 0 0 1-.038-.168 1.85 1.85 0 0 1 .146-.948c.23.037.465-.001.672-.109a1.37 1.37 0 0 0 .569-1.121 3 3 0 0 0 0-.352 5.83 5.83 0 0 0-1.122-3.18 6 6 0 0 0-.796-.916 4.5 4.5 0 0 0-.786-.585 1.63 1.63 0 0 0-1.55-.211 1.6 1.6 0 0 0-.59 1.447c.002.326.042.652.12.969l-.96.596v-.054a5.6 5.6 0 0 1-.221-1.495c0-1.132.411-1.988 1.153-2.416a2.63 2.63 0 0 1 2.671.211c.455.264.868.594 1.225.981q.416.438.758.937a6.97 6.97 0 0 1 1.24 3.721M90.413 116.989q0 .365-.066.726a4 4 0 0 1-.092.374 2.17 2.17 0 0 1-.996 1.316c-.33.19-.704.286-1.084.276a2 2 0 0 1-.287 0 1 1 0 0 1-.038-.173 1.8 1.8 0 0 1 .146-.943c.23.038.467-.002.672-.114a1.36 1.36 0 0 0 .569-1.083.1.1 0 0 0 0-.038 3 3 0 0 0 0-.352 5.76 5.76 0 0 0-1.127-3.175 6 6 0 0 0-.79-.92 4.6 4.6 0 0 0-.786-.586 1.63 1.63 0 0 0-1.55-.205 1.56 1.56 0 0 0-.596 1.446 4.5 4.5 0 0 0 .12.964l-1.003.585v-.054a5.6 5.6 0 0 1-.222-1.495c0-1.132.412-1.994 1.16-2.416.747-.423 1.69-.358 2.665.206a5.4 5.4 0 0 1 1.257 1.018q.416.438.758.937a6.95 6.95 0 0 1 1.29 3.706M98.755 112.168a4 4 0 0 1-.152 1.088 2.23 2.23 0 0 1-1.002 1.333 2.1 2.1 0 0 1-1.056.271h-.282a1 1 0 0 1-.038-.173 1.8 1.8 0 0 1 .147-.943c.23.035.465-.005.671-.114a1.38 1.38 0 0 0 .542-1.116 2.4 2.4 0 0 0 0-.357 5.77 5.77 0 0 0-1.121-3.175 6 6 0 0 0-.797-.915 4.3 4.3 0 0 0-.78-.591 1.62 1.62 0 0 0-1.55-.206 1.57 1.57 0 0 0-.595 1.447q.003.492.12.969l-1.008.58v-.054a5.6 5.6 0 0 1-.223-1.495c0-1.132.412-1.988 1.154-2.416a2.6 2.6 0 0 1 1.364-.262c.47.036.92.197 1.307.468.451.266.862.596 1.219.98q.421.438.758.943a6.93 6.93 0 0 1 1.322 3.738" style="fill:#37474f;fill:color(display-p3 .2157 .2784 .3098);fill-opacity:1"/><path fill="#F7921E" d="m42.974 161.34 63.235-36.48-1.37-9.649-63.247 36.486z" style="fill:#f7921e;fill:color(display-p3 .9686 .5725 .1176);fill-opacity:1"/><path fill="#fff" d="m42.974 161.34 63.235-36.48-1.37-9.649-63.247 36.486z" opacity=".65" style="fill:#fff;fill-opacity:1"/><path fill="#F7921E" d="M47.957 163.68c.081.542.575.715 1.084.406l4.745-2.708a1.68 1.68 0 0 0 .824-1.523c-.076-.541-.57-.715-1.084-.406l-4.745 2.709a1.68 1.68 0 0 0-.824 1.522M55.964 159.059c.076.542.569.716 1.084.407l4.745-2.709a1.68 1.68 0 0 0 .829-1.522c-.076-.542-.542-.715-1.084-.406l-4.745 2.708a1.67 1.67 0 0 0-.829 1.522M63.97 154.438c.077.542.57.715 1.084.406l4.746-2.708a1.68 1.68 0 0 0 .823-1.523c-.076-.541-.569-.715-1.083-.406l-4.746 2.709a1.67 1.67 0 0 0-.823 1.522M71.972 149.817c.076.542.569.715 1.084.406l4.745-2.741a1.66 1.66 0 0 0 .823-1.517c-.075-.541-.568-.715-1.083-.411l-4.724 2.741a1.66 1.66 0 0 0-.845 1.522M79.979 145.191c.076.541.541.715 1.083.411l4.746-2.741a1.67 1.67 0 0 0 .829-1.517c-.076-.541-.57-.715-1.084-.411l-4.745 2.741a1.67 1.67 0 0 0-.83 1.517M87.985 140.57c.076.542.57.715 1.084.412l4.745-2.741a1.68 1.68 0 0 0 .824-1.523c-.076-.541-.569-.715-1.084-.406l-4.745 2.741a1.67 1.67 0 0 0-.824 1.517M95.987 135.949c.076.542.569.715 1.083.406l4.746-2.708a1.68 1.68 0 0 0 .829-1.523c-.076-.541-.542-.715-1.084-.406l-4.745 2.741a1.67 1.67 0 0 0-.83 1.49" style="fill:#f7921e;fill:color(display-p3 .9686 .5725 .1176);fill-opacity:1"/><g fill="#F7921E" opacity=".17"><path d="M107.921 163.734a.25.25 0 0 1-.265-.195l-3.868-27a.2.2 0 0 1 .127-.203.2.2 0 0 1 .084-.013.26.26 0 0 1 .271.195l3.863 26.999a.2.2 0 0 1-.128.204.2.2 0 0 1-.084.013M99.904 168.361a.25.25 0 0 1-.266-.195l-3.868-27a.207.207 0 0 1 .056-.157.2.2 0 0 1 .071-.047.2.2 0 0 1 .084-.013.25.25 0 0 1 .266.195l3.879 27a.201.201 0 0 1-.222.217M91.908 172.981a.262.262 0 0 1-.27-.195l-3.864-26.999a.205.205 0 0 1 .055-.155.2.2 0 0 1 .069-.047.2.2 0 0 1 .082-.015.253.253 0 0 1 .27.195l3.869 27a.2.2 0 0 1-.211.216M83.9 177.608a.26.26 0 0 1-.27-.201l-3.868-26.999a.2.2 0 0 1 .129-.199.2.2 0 0 1 .082-.013.256.256 0 0 1 .271.195l3.863 27a.2.2 0 0 1-.206.217M75.894 182.229a.257.257 0 0 1-.27-.196l-3.89-26.999a.2.2 0 0 1 .056-.157.201.201 0 0 1 .155-.06.262.262 0 0 1 .27.195l3.863 27a.2.2 0 0 1-.184.217M67.882 186.855a.25.25 0 0 1-.265-.201l-3.868-26.999c0-.114.075-.206.21-.212a.25.25 0 0 1 .266.195l3.868 27a.208.208 0 0 1-.056.157.2.2 0 0 1-.07.047.2.2 0 0 1-.085.013M59.876 191.476a.262.262 0 0 1-.27-.195l-3.864-27a.2.2 0 0 1 .211-.217.25.25 0 0 1 .266.195l3.868 27a.2.2 0 0 1-.056.157.201.201 0 0 1-.155.06M51.869 196.097a.254.254 0 0 1-.27-.195l-3.87-27a.206.206 0 0 1 .212-.216.261.261 0 0 1 .27.2l3.869 27a.2.2 0 0 1-.211.211" style="fill:#f7921e;fill:color(display-p3 .9686 .5725 .1176);fill-opacity:1"/><path d="M48.981 175.847a.26.26 0 0 1-.264-.162.18.18 0 0 1 .024-.158.2.2 0 0 1 .062-.054l56.057-32.368a.274.274 0 0 1 .336.065.18.18 0 0 1 .046.153.2.2 0 0 1-.032.076.2.2 0 0 1-.062.053l-56.064 32.362a.2.2 0 0 1-.103.033M49.935 182.597a.27.27 0 0 1-.222-.092.18.18 0 0 1-.014-.229.2.2 0 0 1 .062-.053l56.053-32.368a.28.28 0 0 1 .341.065.2.2 0 0 1 .039.071.2.2 0 0 1 .004.082.189.189 0 0 1-.092.129l-56.041 32.363a.2.2 0 0 1-.13.032M50.899 189.347a.28.28 0 0 1-.222-.093.18.18 0 0 1-.046-.155.19.19 0 0 1 .094-.132l56.058-32.363a.274.274 0 0 1 .336.066q.029.03.041.071t.005.082a.176.176 0 0 1-.094.128l-56.053 32.363a.24.24 0 0 1-.12.033" style="fill:#f7921e;fill:color(display-p3 .9686 .5725 .1176);fill-opacity:1"/><path d="M51.869 196.097a.24.24 0 0 1-.125 0 .2.2 0 0 1-.097-.067.2.2 0 0 1-.05-.106l-3.867-27a.19.19 0 0 1 .098-.184l56.052-32.363a.3.3 0 0 1 .122-.028q.064 0 .122.028a.242.242 0 0 1 .146.168l3.863 27a.2.2 0 0 1-.018.106.2.2 0 0 1-.075.078l-56.058 32.336a.2.2 0 0 1-.113.032m-3.64-27.086 3.791 26.544 55.614-32.108-3.792-26.545z" style="fill:#f7921e;fill:color(display-p3 .9686 .5725 .1176);fill-opacity:1"/></g><g fill="#000" opacity=".17"><path d="M107.921 163.734a.25.25 0 0 1-.265-.195l-3.868-27a.2.2 0 0 1 .127-.203.2.2 0 0 1 .084-.013.26.26 0 0 1 .271.195l3.863 26.999a.2.2 0 0 1-.128.204.2.2 0 0 1-.084.013M99.904 168.361a.25.25 0 0 1-.266-.195l-3.868-27a.207.207 0 0 1 .056-.157.2.2 0 0 1 .071-.047.2.2 0 0 1 .084-.013.25.25 0 0 1 .266.195l3.879 27a.201.201 0 0 1-.222.217M91.908 172.981a.262.262 0 0 1-.27-.195l-3.864-26.999a.205.205 0 0 1 .055-.155.2.2 0 0 1 .069-.047.2.2 0 0 1 .082-.015.253.253 0 0 1 .27.195l3.869 27a.2.2 0 0 1-.211.216M83.9 177.608a.26.26 0 0 1-.27-.201l-3.868-26.999a.2.2 0 0 1 .129-.199.2.2 0 0 1 .082-.013.256.256 0 0 1 .271.195l3.863 27a.2.2 0 0 1-.206.217M75.894 182.229a.257.257 0 0 1-.27-.196l-3.89-26.999a.2.2 0 0 1 .056-.157.201.201 0 0 1 .155-.06.262.262 0 0 1 .27.195l3.863 27a.2.2 0 0 1-.184.217M67.882 186.855a.25.25 0 0 1-.265-.201l-3.868-26.999c0-.114.075-.206.21-.212a.25.25 0 0 1 .266.195l3.868 27a.208.208 0 0 1-.056.157.2.2 0 0 1-.07.047.2.2 0 0 1-.085.013M59.876 191.476a.262.262 0 0 1-.27-.195l-3.864-27a.2.2 0 0 1 .211-.217.25.25 0 0 1 .266.195l3.868 27a.2.2 0 0 1-.056.157.201.201 0 0 1-.155.06M51.869 196.097a.254.254 0 0 1-.27-.195l-3.87-27a.206.206 0 0 1 .212-.216.261.261 0 0 1 .27.2l3.869 27a.2.2 0 0 1-.211.211" style="fill:#000;fill-opacity:1"/><path d="M48.981 175.847a.26.26 0 0 1-.264-.162.18.18 0 0 1 .024-.158.2.2 0 0 1 .062-.054l56.057-32.368a.274.274 0 0 1 .336.065.18.18 0 0 1 .046.153.2.2 0 0 1-.032.076.2.2 0 0 1-.062.053l-56.064 32.362a.2.2 0 0 1-.103.033M49.935 182.597a.27.27 0 0 1-.222-.092.18.18 0 0 1-.014-.229.2.2 0 0 1 .062-.053l56.053-32.368a.28.28 0 0 1 .341.065.2.2 0 0 1 .039.071.2.2 0 0 1 .004.082.189.189 0 0 1-.092.129l-56.041 32.363a.2.2 0 0 1-.13.032M50.899 189.347a.28.28 0 0 1-.222-.093.18.18 0 0 1-.046-.155.19.19 0 0 1 .094-.132l56.058-32.363a.274.274 0 0 1 .336.066q.029.03.041.071t.005.082a.176.176 0 0 1-.094.128l-56.053 32.363a.24.24 0 0 1-.12.033" style="fill:#000;fill-opacity:1"/><path d="M51.869 196.097a.24.24 0 0 1-.125 0 .2.2 0 0 1-.097-.067.2.2 0 0 1-.05-.106l-3.867-27a.19.19 0 0 1 .098-.184l56.052-32.363a.3.3 0 0 1 .122-.028q.064 0 .122.028a.242.242 0 0 1 .146.168l3.863 27a.2.2 0 0 1-.018.106.2.2 0 0 1-.075.078l-56.058 32.336a.2.2 0 0 1-.113.032m-3.64-27.086 3.791 26.544 55.614-32.108-3.792-26.545z" style="fill:#000;fill-opacity:1"/></g><path fill="#455A64" d="M65.9 143.701c0 .338-.041.675-.125 1.003q-.114.455-.341.866a3.2 3.2 0 0 1-.499.694 2.9 2.9 0 0 1-.596.477 1.6 1.6 0 0 1-.623.222.8.8 0 0 1-.487-.098.8.8 0 0 1-.325-.412 1.9 1.9 0 0 1-.125-.715q0-.076.033-.146a.2.2 0 0 1 .08-.097l.673-.39c.065-.038.108-.044.13-.028a.4.4 0 0 1 .065.152.43.43 0 0 0 .195.304c.086.043.216 0 .384-.082.196-.115.353-.287.45-.493.103-.235.153-.49.146-.747v-2.254l-1.788 1.035a.1.1 0 0 1-.051.018.1.1 0 0 1-.051-.018.18.18 0 0 1-.038-.13v-.856a.4.4 0 0 1 .038-.173.27.27 0 0 1 .102-.125l2.628-1.517a.1.1 0 0 1 .049-.018q.027 0 .048.018.026.026.037.06.011.035.007.07zM66.593 144.167c0-.362.092-.718.265-1.035.221-.387.513-.729.862-1.008l.612-.514a.4.4 0 0 0-.07-.277c-.044-.059-.125-.054-.234 0a.6.6 0 0 0-.19.157q-.05.074-.091.152a.6.6 0 0 1-.092.13.5.5 0 0 1-.098.076l-.666.385a.1.1 0 0 1-.044.012.1.1 0 0 1-.043-.012.14.14 0 0 1 0-.114q.016-.231.103-.444.105-.284.26-.542a3.4 3.4 0 0 1 .39-.509 2.3 2.3 0 0 1 .498-.396c.164-.106.349-.175.542-.2a.54.54 0 0 1 .39.108c.113.1.193.233.228.379q.082.298.076.607v2.443q-.002.092-.044.174a.26.26 0 0 1-.097.124l-.661.379a.07.07 0 0 1-.049.018.07.07 0 0 1-.049-.018.17.17 0 0 1-.043-.13v-.222a2.7 2.7 0 0 1-.314.542c-.134.171-.3.314-.488.423a.9.9 0 0 1-.4.135.44.44 0 0 1-.293-.097.65.65 0 0 1-.184-.298 1.8 1.8 0 0 1-.076-.428m1.192-.51a.7.7 0 0 0 .216-.184q.103-.122.174-.265a1.5 1.5 0 0 0 .157-.634l-.482.39a1.2 1.2 0 0 0-.228.265.6.6 0 0 0-.087.304c0 .103 0 .157.065.173s.103 0 .185-.049M72.91 141.491a.37.37 0 0 1-.044.179.26.26 0 0 1-.098.124l-.66.38a.08.08 0 0 1-.098 0 .19.19 0 0 1-.043-.13v-2.07a.86.86 0 0 0-.109-.493q-.113-.146-.346 0a.78.78 0 0 0-.342.412 1.6 1.6 0 0 0-.108.617v2.037a.4.4 0 0 1-.043.179.27.27 0 0 1-.098.125l-.66.379a.08.08 0 0 1-.052.018.08.08 0 0 1-.052-.018.18.18 0 0 1-.038-.13v-3.76a.4.4 0 0 1 .038-.178.3.3 0 0 1 .103-.12l.634-.368a.1.1 0 0 1 .049-.018q.028 0 .049.018a.16.16 0 0 1 .043.125v.189c.027-.07.065-.146.103-.233q.066-.127.151-.244.095-.123.206-.232a1.5 1.5 0 0 1 .277-.201c.138-.088.296-.142.46-.157a.466.466 0 0 1 .363.125 1 1 0 0 1 .233.438q.09.382.081.775zM73.727 137.265a.4.4 0 0 1 .044-.173.27.27 0 0 1 .097-.125l.661-.379a.07.07 0 0 1 .049-.018q.028 0 .049.018a.18.18 0 0 1 .043.13v2.042a1 1 0 0 0 .097.499c.07.102.18.108.33 0a.73.73 0 0 0 .331-.396c.068-.197.101-.404.098-.612v-2.042q0-.094.038-.179a.25.25 0 0 1 .103-.119l.66-.385a.08.08 0 0 1 .05-.018q.027 0 .048.018c.03.034.046.079.044.125v3.781a.4.4 0 0 1-.044.179.3.3 0 0 1-.097.124l-.612.347a.08.08 0 0 1-.05.018.1.1 0 0 1-.048-.018.18.18 0 0 1-.043-.13v-.184q-.043.12-.103.233-.062.126-.146.238a2 2 0 0 1-.206.233q-.13.119-.282.206c-.341.195-.607.206-.807 0a1.67 1.67 0 0 1-.304-1.219zM77.151 138.062c.003-.36.094-.713.265-1.029.224-.386.515-.728.862-1.008l.612-.542a.45.45 0 0 0-.065-.276c-.049-.06-.125-.054-.238 0a.54.54 0 0 0-.185.157 2 2 0 0 0-.097.152.6.6 0 0 1-.087.13.5.5 0 0 1-.103.076l-.666.384a.1.1 0 0 1-.043.013.1.1 0 0 1-.044-.013.16.16 0 0 1 0-.114q.02-.233.109-.449.098-.285.254-.542.176-.272.396-.509c.143-.156.31-.289.493-.396a1.35 1.35 0 0 1 .541-.2.54.54 0 0 1 .39.108c.114.1.193.233.228.38q.082.297.076.606v2.443q-.002.092-.044.174a.24.24 0 0 1-.103.124l-.655.38h-.103a.19.19 0 0 1-.043-.13v-.174q-.12.29-.309.542a1.6 1.6 0 0 1-.493.423.9.9 0 0 1-.4.135.46.46 0 0 1-.293-.098.7.7 0 0 1-.18-.298 1.6 1.6 0 0 1-.075-.449m1.197-.504a.7.7 0 0 0 .212-.184q.105-.12.173-.266.072-.149.119-.308.038-.164.038-.331l-.482.396a1.2 1.2 0 0 0-.228.265.63.63 0 0 0-.086.303c0 .098 0 .158.065.174q.052.009.102-.003a.2.2 0 0 0 .093-.046zM82.568 131.929a.08.08 0 0 1 .098 0c.032 0 .043.065.043.125v.818a.33.33 0 0 1-.043.173.27.27 0 0 1-.098.125l-.476.276a1.08 1.08 0 0 0-.483 1.019v1.982a.4.4 0 0 1-.037.179.3.3 0 0 1-.103.125l-.661.379a.08.08 0 0 1-.05.018.1.1 0 0 1-.048-.018.18.18 0 0 1-.043-.13v-3.76a.4.4 0 0 1 .043-.178.25.25 0 0 1 .098-.12l.606-.352h.103a.178.178 0 0 1 .043.13v.212a2.2 2.2 0 0 1 .288-.455c.112-.141.25-.259.406-.347zM84.768 136.182a1 1 0 0 1-.049.157.27.27 0 0 1-.103.125l-.683.395a.07.07 0 0 1-.092 0 .17.17 0 0 1-.037-.119v-.06l.4-1.674-1.05-3.158a.2.2 0 0 1 0-.054q0-.081.032-.157a.26.26 0 0 1 .092-.108l.683-.396a.076.076 0 0 1 .103 0 .4.4 0 0 1 .054.103l.58 1.761.574-2.433a.7.7 0 0 1 .054-.157.26.26 0 0 1 .097-.124l.694-.396a.07.07 0 0 1 .043-.016q.025 0 .043.016a.154.154 0 0 1 .038.119q.004.03 0 .06z" style="fill:#455a64;fill:color(display-p3 .2706 .3529 .3922);fill-opacity:1"/><path fill="#F28F8F" d="m101.48 147.347.471.667a.1.1 0 0 0 .056.041.1.1 0 0 0 .069-.003l.796-.309c.125-.049.201.108.13.265l-.466.997a.27.27 0 0 0 0 .19l.271.872c.043.141-.07.33-.189.325l-.759-.049a.17.17 0 0 0-.141.081l-.628.845c-.103.136-.244.098-.249-.065v-1.029a.15.15 0 0 0-.016-.08.15.15 0 0 0-.055-.061l-.655-.346c-.103-.055-.081-.271.038-.363l.758-.591a.3.3 0 0 0 .098-.162l.222-1.084c.011-.151.173-.244.249-.141" style="fill:#f28f8f;fill:color(display-p3 .949 .5608 .5608);fill-opacity:1"/><path fill="#F28F8F" d="M106.101 147.087a2.76 2.76 0 0 0-2.032-2.269c-1.516-.385-2.589.655-3.374 1.522-.206.233.238.319.406.157.823-.796 2.443-1.625 3.591-.65s.84 2.476.488 3.597a5.23 5.23 0 0 1-4.984 3.651c-5.471-.124-.78-8.543 2.362-9.139.255-.049.385-.401.033-.433-1.626-.163-2.622 1.121-3.5 2.096A9.3 9.3 0 0 0 97 149.265c-.72 2.514 1.305 5.477 4.675 4.372 2.952-.97 5.016-3.695 4.426-6.55M67.351 176.844a2.76 2.76 0 0 0-2.031-2.269c-1.517-.385-2.59.65-3.375 1.522-.206.227.238.314.406.157.823-.796 2.443-1.625 3.592-.65 1.148.975.84 2.475.487 3.597a5.23 5.23 0 0 1-4.984 3.651c-5.471-.124-.78-8.543 2.362-9.139.255-.049.385-.401.033-.439-1.626-.157-2.622 1.127-3.5 2.102a9.3 9.3 0 0 0-2.09 3.646c-.721 2.508 1.305 5.477 4.674 4.372 2.953-.97 5.017-3.7 4.426-6.55" style="fill:#f28f8f;fill:color(display-p3 .949 .5608 .5608);fill-opacity:1"/></svg>