<svg xmlns="http://www.w3.org/2000/svg" width="256" height="256" fill="none"><path stroke="#D5D5D5" d="M46.56 218.407C24.086 206.639 13 191.291 13 176.074s11.084-30.567 33.56-42.34c22.464-11.767 51.94-17.664 81.442-17.664 29.503 0 58.977 5.897 81.439 17.664 22.473 11.773 33.558 27.121 33.559 42.336s-11.083 30.564-33.559 42.337C186.976 230.174 157.502 236.07 128 236.07s-58.976-5.896-81.44-17.663Z" style="stroke:#d5d5d5;stroke:color(display-p3 .8353 .8353 .8353);stroke-opacity:1"/><path fill="#455A64" d="M153.118 22.467c-.768-.415-1.762-.353-2.847.271L41.737 85.392a8.77 8.77 0 0 0-3.072 3.384l-4.372-2.53c.957-1.817 2.314-2.436 3.497-3.122L146.334 20.46c1.136-.65 2.165-.681 2.944-.21z" style="fill:#455a64;fill:color(display-p3 .2706 .3529 .3922);fill-opacity:1"/><path fill="#263238" d="M34.907 186.988c-.957-.537-1.567-1.807-1.567-3.615v-91.73c0-2.047.144-3.886.968-5.396l4.373 2.53c-.113.204-.22.42-.328.64s-.159.353-.226.511a.3.3 0 0 0-.03.082 6 6 0 0 0-.236.62 8 8 0 0 0-.2.65 4 4 0 0 0-.122.512 9.2 9.2 0 0 0-.256 2.12v91.725c0 1.827.62 3.107 1.587 3.635z" style="fill:#263238;fill:color(display-p3 .149 .1961 .2196);fill-opacity:1"/><path fill="#37474F" d="M150.271 22.733 40.754 85.868c-2.463 1.423-3.476 3.865-3.476 7.168v92.605c0 3.287 1.996 4.793 4.46 3.374l108.543-62.663c2.463-1.419 4.46-5.238 4.46-8.52v-91.73c-.011-3.282-2.028-4.792-4.47-3.369" style="fill:#37474f;fill:color(display-p3 .2157 .2784 .3098);fill-opacity:1"/><path fill="#F7921E" d="M144.291 125.533 47.717 181.29c-1.275.737-2.309-.047-2.309-1.752V90.624c0-1.704 1.024-3.68 2.31-4.418l96.573-55.757c1.275-.737 2.309.046 2.309 1.751v88.914c0 1.705-1.055 3.681-2.309 4.419" style="fill:#f7921e;fill:color(display-p3 .9686 .5725 .1176);fill-opacity:1"/><path fill="#000" d="M144.291 125.533 47.717 181.29c-1.275.737-2.309-.047-2.309-1.752V90.624c0-1.704 1.024-3.68 2.31-4.418l96.573-55.757c1.275-.737 2.309.046 2.309 1.751v88.914c0 1.705-1.055 3.681-2.309 4.419" opacity=".1" style="fill:#000;fill-opacity:1"/><path fill="#263238" d="M42.505 140.227a2.8 2.8 0 0 1-1.162 2.222c-.64.369-1.162-.026-1.162-.881a2.8 2.8 0 0 1 1.162-2.222c.64-.379 1.162.016 1.162.881M41.343 125.323a2.17 2.17 0 0 0-.906 1.73v7.916c0 .665.404.973.906.681a2.17 2.17 0 0 0 .901-1.726v-7.915c0-.666-.404-.973-.901-.686" style="fill:#263238;fill:color(display-p3 .149 .1961 .2196);fill-opacity:1"/><path fill="#FAFAFA" d="M143.139 39.276c-.072-.553-.512-.753-1.024-.445L51.9 90.896a2.3 2.3 0 0 0-.747.794l-1.982-1.127q.143-.247.338-.456l.098-.097q.142-.136.312-.235l90.189-52.086a2.3 2.3 0 0 1 1.597-.205 1.4 1.4 0 0 1 .635.297q.063.043.113.102.046.036.082.082.08.08.143.174.059.074.107.154.115.177.19.374.051.107.087.22c0 .056.026.108.041.169q.025.11.036.22" style="fill:#fafafa;fill:color(display-p3 .9804 .9804 .9804);fill-opacity:1"/><path fill="#E0E0E0" d="M51.435 173.973c-.349 0-.59-.277-.59-.758V92.729c.015-.362.121-.714.308-1.024l-1.982-1.142q-.181.308-.266.655-.03.13-.04.261a1 1 0 0 0 0 .129v80.465a2.26 2.26 0 0 0 .992 1.792 2.1 2.1 0 0 0 1.214.215c.293-.014.578-.1.83-.25a1.1 1.1 0 0 1-.467.143" style="fill:#e0e0e0;fill:color(display-p3 .8784 .8784 .8784);fill-opacity:1"/><path fill="#F0F0F0" d="M143.149 39.445c0-.675-.476-.947-1.055-.614L51.9 90.9a2.34 2.34 0 0 0-1.054 1.828v80.487c0 .675.476.947 1.054.614l90.194-52.065a2.35 2.35 0 0 0 1.055-1.833z" style="fill:#f0f0f0;fill:color(display-p3 .9412 .9412 .9412);fill-opacity:1"/><path fill="#F7921E" d="m65.043 113.383-5.002 6.364-2.918 3.707a10.1 10.1 0 0 1-.896-4.428c0-4.276 1.848-9.216 4.843-13.031l.66 1.229zM69.329 100.614l-3.917 11.853-1.787-3.287-2.048-3.835a15.8 15.8 0 0 1 4.096-3.543 8.2 8.2 0 0 1 3.656-1.188M73.804 103.266l-7.358 8.474 3.671-11.106a4.65 4.65 0 0 1 3.687 2.632M74.782 107.843c0 6.467-4.25 14.188-9.477 17.198-3.247 1.879-6.144 1.536-7.783-.896l8.233-10.445.046-.056 8.351-9.615c.443 1.222.657 2.515.63 3.814" style="fill:#f7921e;fill:color(display-p3 .9686 .5725 .1176);fill-opacity:1"/><path fill="#fff" d="m69.329 100.614-3.917 11.853-1.787-3.287-2.048-3.835a15.8 15.8 0 0 1 4.096-3.543 8.2 8.2 0 0 1 3.656-1.188" opacity=".7" style="fill:#fff;fill-opacity:1"/><path fill="#000" d="m73.804 103.266-7.358 8.474 3.671-11.106a4.65 4.65 0 0 1 3.687 2.632" opacity=".3" style="fill:#000;fill-opacity:1"/><path fill="#fff" d="M74.782 107.843c0 6.467-4.25 14.188-9.477 17.198-3.247 1.879-6.144 1.536-7.783-.896l8.233-10.445.046-.056 8.351-9.615c.443 1.222.657 2.515.63 3.814" opacity=".5" style="fill:#fff;fill-opacity:1"/><path fill="#455A64" d="M57.532 95.397q.238-.149.512-.205a.54.54 0 0 1 .39.061.6.6 0 0 1 .245.343q.096.31.087.635c.004.313-.042.624-.138.922a2.4 2.4 0 0 1-.384.737l.543 1.295a.14.14 0 0 1 0 .067.3.3 0 0 1-.031.123.2.2 0 0 1-.066.082l-.6.343q-.084.052-.122 0a.3.3 0 0 1-.062-.087l-.512-1.168-.404.236v1.449a.3.3 0 0 1-.036.148.25.25 0 0 1-.082.103l-.579.332a.06.06 0 0 1-.04.016.06.06 0 0 1-.042-.016.14.14 0 0 1-.036-.107v-4.373a.3.3 0 0 1 .036-.148.2.2 0 0 1 .082-.102zm-.512 2.34.512-.287a1 1 0 0 0 .308-.287.83.83 0 0 0 .117-.46q0-.285-.117-.324a.39.39 0 0 0-.308.067l-.512.287zM61.7 96.646a.07.07 0 0 1 .082 0 .14.14 0 0 1 .036.107v.722a.33.33 0 0 1-.036.149.24.24 0 0 1-.082.102l-2.084 1.203a.06.06 0 0 1-.082 0 .13.13 0 0 1-.035-.107v-4.373q0-.078.035-.148a.24.24 0 0 1 .082-.103l2.048-1.182a.066.066 0 0 1 .082 0 .14.14 0 0 1 .036.107v.722a.3.3 0 0 1-.036.148.24.24 0 0 1-.082.103l-1.351.778v.732l1.254-.727a.06.06 0 0 1 .082 0 .13.13 0 0 1 .036.108v.717a.3.3 0 0 1-.036.148.2.2 0 0 1-.082.102l-1.254.753v.758zM63.917 91.71q.237-.145.512-.194a.51.51 0 0 1 .384.076c.119.09.205.216.246.359.07.213.105.436.102.66q.004.38-.082.748-.084.332-.245.635a2.6 2.6 0 0 1-.384.512 2.3 2.3 0 0 1-.512.394l-.559.322v1.383a.4.4 0 0 1-.035.148.2.2 0 0 1-.087.103l-.574.333a.06.06 0 0 1-.082 0 .14.14 0 0 1-.036-.108v-4.373a.3.3 0 0 1 .036-.148.2.2 0 0 1 .082-.102zm-.558 2.437.512-.312a.85.85 0 0 0 .425-.778c0-.19-.036-.302-.118-.343a.34.34 0 0 0-.307.05l-.512.313zM65.673 92.463a4 4 0 0 1 .108-.779 3.194 3.194 0 0 1 .691-1.372c.161-.191.356-.352.573-.476.172-.11.37-.173.574-.184a.62.62 0 0 1 .42.143.93.93 0 0 1 .27.43c.067.21.103.43.108.65v1.209q-.016.392-.107.773a3.4 3.4 0 0 1-.272.742 3 3 0 0 1-.42.635c-.163.189-.357.35-.573.476-.172.11-.37.173-.573.185a.6.6 0 0 1-.425-.149.94.94 0 0 1-.266-.43 2.4 2.4 0 0 1-.108-.65v-1.2029999999999998m1.93.056v-1.1360000000000001a1.1 1.1 0 0 0-.046-.287.4.4 0 0 0-.107-.185.25.25 0 0 0-.17-.071.5.5 0 0 0-.235.076.8.8 0 0 0-.235.2 1 1 0 0 0-.17.261 1.5 1.5 0 0 0-.107.307q-.037.168-.046.338v1.1420000000000001a.73.73 0 0 0 .154.471q.13.145.404 0a.95.95 0 0 0 .405-.456 2 2 0 0 0 .159-.66zM70.466 87.932q.237-.147.512-.205a.57.57 0 0 1 .389.056.65.65 0 0 1 .25.343c.061.208.09.424.082.64.003.312-.042.623-.133.922a2.5 2.5 0 0 1-.389.732l.543 1.295a.2.2 0 0 1 0 .067.3.3 0 0 1-.03.123.16.16 0 0 1-.067.082l-.6.348c-.056.03-.097.036-.122 0a.3.3 0 0 1-.062-.087l-.486-1.168-.405.23v1.45a.3.3 0 0 1-.035.148.23.23 0 0 1-.082.108l-.579.327a.06.06 0 0 1-.063.013.1.1 0 0 1-.019-.013.13.13 0 0 1-.036-.107v-4.373q0-.078.036-.148a.25.25 0 0 1 .082-.103zm-.512 2.334.512-.286a.95.95 0 0 0 .307-.282.86.86 0 0 0 .117-.466q0-.285-.117-.323a.4.4 0 0 0-.307.072l-.512.287zM74.664 85.505a.07.07 0 0 1 .082 0 .15.15 0 0 1 .036.113v.716a.33.33 0 0 1-.036.149.24.24 0 0 1-.082.102l-.773.446v3.47a.3.3 0 0 1-.036.15.2.2 0 0 1-.082.102l-.578.333a.06.06 0 0 1-.082 0 .13.13 0 0 1-.036-.108v-3.487l-.773.446a.06.06 0 0 1-.082 0 .14.14 0 0 1-.036-.108v-.716q0-.082.036-.154a.24.24 0 0 1 .082-.103z" style="fill:#455a64;fill:color(display-p3 .2706 .3529 .3922);fill-opacity:1"/><path fill="#F7921E" d="m78.75 83.15 57.549-33.224v4.582l-57.55 33.224z" style="fill:#f7921e;fill:color(display-p3 .9686 .5725 .1176);fill-opacity:1"/><g fill="#455A64" opacity=".3"><path d="M78.396 97.583a.48.48 0 0 1-.42-.24.51.51 0 0 1 .175-.671l33.735-19.456a.513.513 0 0 1 .512.85l-33.73 19.456a.5.5 0 0 1-.272.061M78.396 102.165a.48.48 0 0 1-.42-.24.51.51 0 0 1 .175-.671l33.735-19.456a.512.512 0 0 1 .512.85l-33.73 19.456a.5.5 0 0 1-.272.061M78.396 106.748a.476.476 0 0 1-.42-.241.51.51 0 0 1 .175-.67l33.735-19.456a.512.512 0 0 1 .512.85l-33.73 19.456a.5.5 0 0 1-.272.061M78.396 111.33a.476.476 0 0 1-.42-.241.51.51 0 0 1 .175-.67l33.735-19.456a.52.52 0 0 1 .426-.157.52.52 0 0 1 .384.244q.06.102.072.222a.5.5 0 0 1-.166.422.5.5 0 0 1-.204.114l-33.73 19.456a.5.5 0 0 1-.272.066M78.396 115.918a.52.52 0 0 1-.435-.267.51.51 0 0 1 .174-.67l33.736-19.456a.513.513 0 0 1 .512.844l-33.73 19.456a.5.5 0 0 1-.257.093" style="fill:#455a64;fill:color(display-p3 .2706 .3529 .3922);fill-opacity:1"/></g><path fill="#F7921E" d="m116.981 72.5 4.342-2.504c.291-.168.512-.03.512.308v5.012a1.16 1.16 0 0 1-.512.912l-4.342 2.508c-.292.17-.512.031-.512-.307v-5.012a1.17 1.17 0 0 1 .512-.917M124.179 68.347l4.342-2.503c.292-.17.512-.036.512.302v5.012a1.17 1.17 0 0 1-.512.917l-4.342 2.503c-.291.17-.512.036-.512-.302v-5.012a1.17 1.17 0 0 1 .512-.917M131.378 64.19l4.337-2.504c.292-.169.512-.03.512.308v5.017a1.17 1.17 0 0 1-.512.917l-4.337 2.508c-.292.17-.512.031-.512-.307v-5.012a1.18 1.18 0 0 1 .512-.927M116.981 80.835l4.342-2.508c.291-.17.512-.031.512.307v5.012a1.17 1.17 0 0 1-.512.917l-4.342 2.503c-.292.17-.512.031-.512-.307v-5.007a1.17 1.17 0 0 1 .512-.917M124.179 76.657l4.342-2.503c.292-.17.512-.036.512.302v5.012a1.17 1.17 0 0 1-.512.917l-4.342 2.498c-.291.17-.512.036-.512-.302V77.57a1.17 1.17 0 0 1 .512-.912M131.378 72.505l4.337-2.509c.292-.168.512-.03.512.308v5.012a1.16 1.16 0 0 1-.512.912l-4.337 2.508c-.292.17-.512.031-.512-.307v-5.012a1.16 1.16 0 0 1 .512-.912M116.981 89.124l4.342-2.508c.291-.17.512-.031.512.307v5.012a1.17 1.17 0 0 1-.512.917l-4.342 2.503c-.292.17-.512.031-.512-.302v-5.002a1.16 1.16 0 0 1 .512-.927M124.179 84.967l4.342-2.504c.292-.169.512-.03.512.302v5.013a1.17 1.17 0 0 1-.512.916l-4.342 2.51c-.291.168-.512.03-.512-.308v-5.013a1.17 1.17 0 0 1 .512-.916M131.378 80.835l4.337-2.508c.292-.17.512-.031.512.307v5.012a1.17 1.17 0 0 1-.512.917l-4.337 2.503c-.292.17-.512.031-.512-.307v-5.007a1.17 1.17 0 0 1 .512-.917" style="fill:#f7921e;fill:color(display-p3 .9686 .5725 .1176);fill-opacity:1"/><path fill="#455A64" d="m56.923 162.197 55.562-32.077v2.289l-55.562 32.082z" style="fill:#455a64;fill:color(display-p3 .2706 .3529 .3922);fill-opacity:1"/><path fill="#F7921E" d="M56.923 159.908v-13.752l4.895 2.826 4.715-8.734 5.622 3.246 2.627-3.062 3.968 2.289 5.775-8.628 4.603 1.925 5.499-11.627 3.845 6.682 5.253-7.614 1.956 3.712 6.804-10.798v11.453z" style="fill:#f7921e;fill:color(display-p3 .9686 .5725 .1176);fill-opacity:1"/><path fill="#F7921E" d="m56.923 144.881 4.567 2.422 4.736-8.806 5.653 3.266 2.54-2.964 3.967 2.293 5.683-8.314 4.603 1.925 5.955-12.601 3.968 6.871 5.253-7.613 1.92 3.717 6.717-10.67v-9.492l-7.024 10.951-2.898-5.222-3.968 6.876-3.968-2.294-3.968 6.876-3.968-2.293-5.955 10.311-3.968-3.435-3.932 5.703-6.205-3.415-5.018 8.438-4.69-2.708z" style="fill:#f7921e;fill:color(display-p3 .9686 .5725 .1176);fill-opacity:1"/><path fill="#000" d="m56.923 144.881 4.567 2.422 4.736-8.806 5.653 3.266 2.54-2.964 3.967 2.293 5.683-8.314 4.603 1.925 5.955-12.601 3.968 6.871 5.253-7.613 1.92 3.717 6.717-10.67v-9.492l-7.024 10.951-2.898-5.222-3.968 6.876-3.968-2.294-3.968 6.876-3.968-2.293-5.955 10.311-3.968-3.435-3.932 5.703-6.205-3.415-5.018 8.438-4.69-2.708z" opacity=".3" style="fill:#000;fill-opacity:1"/><g fill="#455A64" opacity=".3"><path d="M116.453 103.112a.51.51 0 0 1-.246-.911l19.846-11.459a.51.51 0 0 1 .586.227.515.515 0 0 1-.074.624l-19.846 11.453a.5.5 0 0 1-.266.066M116.453 107.695a.512.512 0 0 1-.246-.911l19.846-11.459a.51.51 0 0 1 .586.226.515.515 0 0 1-.074.624l-19.846 11.453a.48.48 0 0 1-.266.067M116.453 112.277a.51.51 0 0 1-.246-.911l19.846-11.458a.51.51 0 0 1 .586.226.514.514 0 0 1-.074.623l-19.846 11.454a.48.48 0 0 1-.266.066M116.453 116.859a.51.51 0 0 1-.246-.911l19.846-11.453a.51.51 0 0 1 .665.174.51.51 0 0 1-.174.67l-19.845 11.454a.47.47 0 0 1-.246.066M116.453 121.442a.512.512 0 0 1-.246-.911l19.846-11.454a.51.51 0 0 1 .665.174.51.51 0 0 1-.174.671l-19.845 11.453a.5.5 0 0 1-.246.067M116.453 126.024a.51.51 0 0 1-.246-.911l19.846-11.453a.51.51 0 0 1 .665.174.51.51 0 0 1-.174.67l-19.845 11.454a.47.47 0 0 1-.246.066M116.453 130.607a.51.51 0 0 1-.417-.67.5.5 0 0 1 .171-.242l19.846-11.453a.51.51 0 0 1 .578.227.51.51 0 0 1-.066.618l-19.846 11.453a.48.48 0 0 1-.266.067" style="fill:#455a64;fill:color(display-p3 .2706 .3529 .3922);fill-opacity:1"/></g><path fill="#F7921E" d="M119.561 191.233a.94.94 0 0 1-.391-.959l9.395-41.626c.116-.404.375-.752.729-.978l55.934-32.294a1.23 1.23 0 0 1 1.112-.022.94.94 0 0 1 .391.96l-9.402 41.615a1.72 1.72 0 0 1-.73.977l-55.944 32.298a1.23 1.23 0 0 1-1.094.029" style="fill:#f7921e;fill:color(display-p3 .9686 .5725 .1176);fill-opacity:1"/><path fill="#fff" d="M119.561 191.233a.94.94 0 0 1-.391-.959l9.395-41.626c.116-.404.375-.752.729-.978l55.934-32.294a1.23 1.23 0 0 1 1.112-.022.94.94 0 0 1 .391.96l-9.402 41.615a1.72 1.72 0 0 1-.73.977l-55.944 32.298a1.23 1.23 0 0 1-1.094.029" opacity=".8" style="fill:#fff;fill-opacity:1"/><path fill="#F7921E" d="m129.641 149.271-9.402 41.619c-.08.365.109.496.427.314l55.944-32.298a1.72 1.72 0 0 0 .73-.977l9.402-41.619c.08-.365-.11-.5-.427-.318l-55.952 32.302a1.72 1.72 0 0 0-.722.977" style="fill:#f7921e;fill:color(display-p3 .9686 .5725 .1176);fill-opacity:1"/><path fill="#fff" d="m129.641 149.271-9.402 41.619c-.08.365.109.496.427.314l55.944-32.298a1.72 1.72 0 0 0 .73-.977l9.402-41.619c.08-.365-.11-.5-.427-.318l-55.952 32.302a1.72 1.72 0 0 0-.722.977" opacity=".6" style="fill:#fff;fill-opacity:1"/><path fill="#000" d="m129.641 149.271-9.402 41.619c-.08.365.109.496.427.314l55.944-32.298a1.72 1.72 0 0 0 .73-.977l9.402-41.619c.08-.365-.11-.5-.427-.318l-55.952 32.302a1.72 1.72 0 0 0-.722.977" opacity=".05" style="fill:#000;fill-opacity:1"/><path fill="#F7921E" d="M187.416 115.975a1.24 1.24 0 0 0-1.112.018l-55.941 32.302a1.05 1.05 0 0 0-.481.999l7.352 51.535a1.5 1.5 0 0 0 .631.981 1.24 1.24 0 0 0 1.116-.022l55.941-32.297a1.06 1.06 0 0 0 .481-.988l-7.356-51.561a1.48 1.48 0 0 0-.631-.967" style="fill:#f7921e;fill:color(display-p3 .9686 .5725 .1176);fill-opacity:1"/><path fill="#fff" d="M187.416 115.975a1.24 1.24 0 0 0-1.112.018l-55.941 32.302a1.05 1.05 0 0 0-.481.999l7.352 51.535a1.5 1.5 0 0 0 .631.981 1.24 1.24 0 0 0 1.116-.022l55.941-32.297a1.06 1.06 0 0 0 .481-.988l-7.356-51.561a1.48 1.48 0 0 0-.631-.967" opacity=".8" style="fill:#fff;fill-opacity:1"/><path fill="#F7921E" d="m130.958 149.902 7.352 51.543a.41.41 0 0 0 .237.366.417.417 0 0 0 .434-.042l55.941-32.297a1.06 1.06 0 0 0 .481-.989l-7.355-51.542a.43.43 0 0 0-.065-.217.42.42 0 0 0-.603-.108l-55.941 32.312a1.056 1.056 0 0 0-.481.974" style="fill:#f7921e;fill:color(display-p3 .9686 .5725 .1176);fill-opacity:1"/><path fill="#fff" d="m130.958 149.902 7.352 51.543a.41.41 0 0 0 .237.366.417.417 0 0 0 .434-.042l55.941-32.297a1.06 1.06 0 0 0 .481-.989l-7.355-51.542a.43.43 0 0 0-.065-.217.42.42 0 0 0-.603-.108l-55.941 32.312a1.056 1.056 0 0 0-.481.974" opacity=".95" style="fill:#fff;fill-opacity:1"/><path fill="#F7921E" d="m135.035 185.398-6.565 3.789a1.1 1.1 0 0 0-.404 0l-7.747 1.495h-.029l14.315-8.271z" style="fill:#f7921e;fill:color(display-p3 .9686 .5725 .1176);fill-opacity:1"/><path fill="#fff" d="m135.035 185.398-6.565 3.789a1.1 1.1 0 0 0-.404 0l-7.747 1.495h-.029l14.315-8.271z" opacity=".5" style="fill:#fff;fill-opacity:1"/><path fill="#000" d="m135.035 185.398-6.565 3.789a1.1 1.1 0 0 0-.404 0l-7.747 1.495h-.029l14.315-8.271z" opacity=".2" style="fill:#000;fill-opacity:1"/><path fill="#F7921E" d="m137.176 200.428-8.071-10.872a1.1 1.1 0 0 0-.609-.364l6.539-3.793z" style="fill:#f7921e;fill:color(display-p3 .9686 .5725 .1176);fill-opacity:1"/><path fill="#fff" d="m137.176 200.428-8.071-10.872a1.1 1.1 0 0 0-.609-.364l6.539-3.793z" opacity=".6" style="fill:#fff;fill-opacity:1"/><path fill="#000" d="m137.176 200.428-8.071-10.872a1.1 1.1 0 0 0-.609-.364l6.539-3.793z" opacity=".1" style="fill:#000;fill-opacity:1"/><path fill="#F7921E" d="m136.924 200.935-7.808-10.142a1.238 1.238 0 0 0-1.061-.431l-7.294 1.054a2.2 2.2 0 0 1-1.197-.215c-.295-.171-.244-.365.114-.438l8.388-1.615a1.16 1.16 0 0 1 1.046.408l8.906 11.995c.219.292.153.394-.146.223a4 4 0 0 1-.948-.839" style="fill:#f7921e;fill:color(display-p3 .9686 .5725 .1176);fill-opacity:1"/><path fill="#fff" d="m136.924 200.935-7.808-10.142a1.238 1.238 0 0 0-1.061-.431l-7.294 1.054a2.2 2.2 0 0 1-1.197-.215c-.295-.171-.244-.365.114-.438l8.388-1.615a1.16 1.16 0 0 1 1.046.408l8.906 11.995c.219.292.153.394-.146.223a4 4 0 0 1-.948-.839" opacity=".8" style="fill:#fff;fill-opacity:1"/><path fill="#F7921E" d="M186.749 116.106a.92.92 0 0 0-.408-.755 1.24 1.24 0 0 0-1.113.022l-55.944 32.298q-.257.163-.438.408c-.13.171-.227.365-.284.573l-1.324 5.879 1.094.616 57.09-32.961 1.327-5.876a1 1 0 0 0 0-.204" style="fill:#f7921e;fill:color(display-p3 .9686 .5725 .1176);fill-opacity:1"/><path fill="#000" d="M186.731 116.31c.08-.365-.109-.5-.427-.318l-55.941 32.302a1.72 1.72 0 0 0-.729.977l-1.32 5.875 57.089-32.961z" opacity=".6" style="fill:#000;fill-opacity:1"/><path fill="#000" d="M129.922 148.703a1.6 1.6 0 0 0-.281.569l-1.328 5.875-1.094-.616 1.324-5.879c.057-.208.153-.402.285-.573z" opacity=".5" style="fill:#000;fill-opacity:1"/><path fill="#000" d="M186.749 116.106c-.026-.201-.201-.252-.445-.11l-55.945 32.294a1.6 1.6 0 0 0-.437.412l-1.076-.623c.119-.162.268-.301.438-.409l55.944-32.294a1.237 1.237 0 0 1 1.112-.021.9.9 0 0 1 .297.325c.072.131.11.277.112.426" opacity=".2" style="fill:#000;fill-opacity:1"/><path fill="#F7921E" d="m188.124 117.434-.073-.493a.3.3 0 0 0 0-.072.03.03 0 0 0 0-.019 1.5 1.5 0 0 0-.613-.871 1.22 1.22 0 0 0-1.112.018l-55.963 32.297a1 1 0 0 0-.386.442.96.96 0 0 0-.095.547l1.054 7.385 1.094.624 57.093-32.962z" style="fill:#f7921e;fill:color(display-p3 .9686 .5725 .1176);fill-opacity:1"/><path fill="#000" d="m189.105 124.33-57.093 32.961-1.054-7.389a.98.98 0 0 1 .098-.547 1 1 0 0 1 .365-.441l55.974-32.298a.4.4 0 0 1 .375-.064.41.41 0 0 1 .263.276v.04c0 .025 0 .051.018.073l.069.492z" opacity=".2" style="fill:#000;fill-opacity:1"/><path fill="#000" d="m132.012 157.291-1.094-.623-1.036-7.374a.96.96 0 0 1 .095-.547l1.094.62a1 1 0 0 0-.099.547z" opacity=".5" style="fill:#000;fill-opacity:1"/><path fill="#000" d="M188.029 116.835a.4.4 0 0 0-.091-.181.4.4 0 0 0-.369-.134.4.4 0 0 0-.185.081l-55.945 32.327a1 1 0 0 0-.365.441l-1.094-.62c.078-.179.204-.333.365-.445l55.955-32.308a1.23 1.23 0 0 1 1.113-.022c.303.202.522.508.616.861" opacity=".3" style="fill:#000;fill-opacity:1"/><g fill="#000" opacity=".2"><path d="M136.089 149.96a1.91 1.91 0 0 1 .912-1.768c.594-.343 1.149-.11 1.24.525a1.927 1.927 0 0 1-.912 1.772c-.594.343-1.149.11-1.24-.529M143.631 145.606a1.926 1.926 0 0 1 .912-1.773c.594-.342 1.152-.105 1.24.529a1.93 1.93 0 0 1-.912 1.773c-.591.342-1.145.105-1.24-.529M151.169 141.27a1.91 1.91 0 0 1 .912-1.772c.594-.343 1.152-.106 1.24.529a1.912 1.912 0 0 1-.912 1.768c-.594.332-1.149.095-1.24-.525M166.242 132.55a1.92 1.92 0 0 1 .912-1.772c.594-.343 1.152-.106 1.243.528a1.93 1.93 0 0 1-.915 1.773c-.591.343-1.145.106-1.24-.529M173.795 128.196a1.92 1.92 0 0 1 .912-1.773c.594-.343 1.149-.106 1.24.529a1.921 1.921 0 0 1-.912 1.769c-.594.343-1.134.109-1.24-.525M181.33 123.841a1.91 1.91 0 0 1 .911-1.769c.595-.342 1.149-.109 1.24.526a1.917 1.917 0 0 1-.911 1.772c-.595.343-1.153.124-1.24-.529" style="fill:#000;fill-opacity:1"/></g><path fill="#263238" d="M138.372 147.689q.002.33-.058.653a3 3 0 0 1-.081.328 2 2 0 0 1-.9 1.2c-.29.169-.621.256-.956.252a2 2 0 0 1-.263 0 2 2 0 0 1-.029-.142 1.67 1.67 0 0 1 .143-.865.95.95 0 0 0 .598-.102 1.25 1.25 0 0 0 .51-.937v-.048a3 3 0 0 0 0-.32 5.2 5.2 0 0 0-1.006-2.856 6 6 0 0 0-.73-.832 4 4 0 0 0-.729-.536c-.551-.313-1.058-.364-1.401-.189s-.536.663-.536 1.305q.007.451.11.89l-.854.522v-.059a5 5 0 0 1-.2-1.353c0-1.017.364-1.794 1.043-2.188s1.524-.321 2.407.19a5 5 0 0 1 1.116.893q.374.395.678.846a6.27 6.27 0 0 1 1.138 3.348M145.918 143.335q0 .329-.055.653a2.5 2.5 0 0 1-.084.335 1.98 1.98 0 0 1-.901 1.193 1.84 1.84 0 0 1-.955.251q-.128 0-.255-.018a.7.7 0 0 1-.033-.142 1.67 1.67 0 0 1 .138-.864.97.97 0 0 0 .599-.103 1.23 1.23 0 0 0 .51-.94v-.044a3 3 0 0 0 0-.321 5.57 5.57 0 0 0-1.721-3.687 4 4 0 0 0-.73-.54c-.55-.314-1.057-.383-1.4-.186s-.536.66-.536 1.306c.004.298.042.596.113.886l-.872.521v-.058a5 5 0 0 1-.2-1.349c0-1.022.364-1.795 1.043-2.189.678-.393 1.524-.317 2.41.19.405.245.773.546 1.094.894q.374.397.679.849a6.23 6.23 0 0 1 1.156 3.363M153.452 138.984q0 .329-.054.653a3 3 0 0 1-.084.332 2 2 0 0 1-.901 1.196c-.29.169-.62.256-.956.251q-.127.009-.255 0a1 1 0 0 1-.033-.142 1.6 1.6 0 0 1 .139-.864.98.98 0 0 0 .598-.102 1.228 1.228 0 0 0 .511-.941v-.044a3 3 0 0 0 0-.321 5.23 5.23 0 0 0-1.007-2.855 5.5 5.5 0 0 0-.729-.832 4 4 0 0 0-.73-.54c-.55-.313-1.057-.364-1.4-.186-.343.179-.536.66-.536 1.306q.006.451.109.89l-.846.503v-.062a5 5 0 0 1-.197-1.349c0-1.021.365-1.795 1.043-2.188s1.525-.318 2.407.193c.412.241.786.541 1.112.89q.379.396.686.849c.69.99 1.08 2.157 1.123 3.363M168.533 130.289q0 .33-.055.653-.033.173-.084.339a2 2 0 0 1-.901 1.193 1.87 1.87 0 0 1-.952.248 2 2 0 0 1-.259-.018 1 1 0 0 1-.036-.154 1.65 1.65 0 0 1 .135-.853.96.96 0 0 0 .609-.102c.151-.11.275-.253.363-.418a1.23 1.23 0 0 0 .147-.567 3 3 0 0 0 0-.321 5.57 5.57 0 0 0-1.732-3.694 4 4 0 0 0-.707-.529c-.551-.317-1.058-.383-1.401-.189-.343.193-.532.663-.532 1.305q.002.444.105.875l-.908.526v-.048a5.1 5.1 0 0 1-.197-1.353c0-1.021.365-1.794 1.043-2.188.679-.394 1.525-.321 2.407.186.405.242.773.541 1.095.886q.378.397.685.85a6.26 6.26 0 0 1 1.175 3.373M176.089 125.931q0 .331-.058.656-.03.171-.084.336a2 2 0 0 1-.901 1.192 1.86 1.86 0 0 1-.952.248 2 2 0 0 1-.259 0 1 1 0 0 1-.036-.156 1.63 1.63 0 0 1 .135-.85.96.96 0 0 0 .609-.106 1.24 1.24 0 0 0 .51-.948v-.358a5.2 5.2 0 0 0-1.014-2.862 5.4 5.4 0 0 0-.729-.832 4 4 0 0 0-.708-.529c-.55-.313-1.057-.383-1.4-.186s-.536.664-.536 1.306q.005.442.106.871l-.883.511v-.047a5 5 0 0 1-.201-1.35c0-1.021.365-1.798 1.044-2.188.678-.39 1.528-.324 2.41.186.405.242.773.541 1.094.886q.377.396.682.85a6.24 6.24 0 0 1 1.171 3.37M183.616 121.576q0 .332-.058.657-.033.166-.084.328a2 2 0 0 1-.901 1.2 1.87 1.87 0 0 1-.952.248 2 2 0 0 1-.259 0 1 1 0 0 1-.032-.157c-.033-.29.012-.583.131-.85a.96.96 0 0 0 .609-.105 1.24 1.24 0 0 0 .511-.985q.018-.16.018-.321a5.2 5.2 0 0 0-1.014-2.863 5.3 5.3 0 0 0-.73-.828 3.8 3.8 0 0 0-.707-.532c-.551-.314-1.054-.383-1.397-.186s-.536.66-.536 1.305q.003.444.106.876l-.908.521v-.047a5 5 0 0 1-.201-1.35c0-1.021.365-1.794 1.043-2.188.679-.394 1.525-.324 2.411.186.404.242.772.539 1.094.883q.377.397.686.85a6.26 6.26 0 0 1 1.17 3.358" style="fill:#263238;fill:color(display-p3 .149 .1961 .2196);fill-opacity:1"/><path fill="#F7921E" d="m133.259 165.972 57.086-32.932-1.24-8.709-57.094 32.935z" style="fill:#f7921e;fill:color(display-p3 .9686 .5725 .1176);fill-opacity:1"/><path fill="#fff" d="m133.259 165.972 57.086-32.932-1.24-8.709-57.094 32.935z" opacity=".65" style="fill:#fff;fill-opacity:1"/><path fill="#F7921E" d="M137.759 168.082c.07.482.515.646.996.365l4.282-2.473a1.51 1.51 0 0 0 .729-1.371c-.069-.481-.514-.646-.996-.365l-4.245 2.473a1.51 1.51 0 0 0-.766 1.371M144.984 163.911c.069.481.514.645.995.365l4.286-2.473a1.5 1.5 0 0 0 .729-1.371c-.069-.482-.514-.646-.996-.365l-4.281 2.473a1.52 1.52 0 0 0-.733 1.371M152.212 159.738c.07.482.514.646.992.365l4.285-2.469a1.51 1.51 0 0 0 .748-1.371c-.069-.482-.514-.646-.996-.365l-4.285 2.473a1.51 1.51 0 0 0-.744 1.367M159.437 155.566c.069.482.514.646.996.365l4.281-2.473a1.5 1.5 0 0 0 .748-1.371c-.069-.482-.514-.646-.996-.365l-4.281 2.473a1.52 1.52 0 0 0-.748 1.371M166.662 151.394c.069.481.514.645.995.364l4.286-2.465a1.5 1.5 0 0 0 .729-1.371c-.069-.482-.514-.646-.996-.365l-4.267 2.466c-.237.139-.432.34-.563.582a1.5 1.5 0 0 0-.184.789M173.901 147.222c.069.481.514.645.992.365l4.285-2.473a1.5 1.5 0 0 0 .729-1.371c-.066-.482-.51-.646-.992-.365l-4.285 2.473a1.498 1.498 0 0 0-.729 1.371M181.114 143.05c.07.481.515.646.996.365l4.281-2.473a1.5 1.5 0 0 0 .748-1.371c-.069-.482-.514-.646-.996-.365l-4.281 2.473a1.5 1.5 0 0 0-.748 1.371" style="fill:#f7921e;fill:color(display-p3 .9686 .5725 .1176);fill-opacity:1"/><g fill="#F7921E" opacity=".17"><path d="M191.891 168.134a.23.23 0 0 1-.244-.175l-3.49-24.377a.2.2 0 0 1 .01-.075.176.176 0 0 1 .179-.118.23.23 0 0 1 .156.043.23.23 0 0 1 .089.136l3.49 24.372a.18.18 0 0 1-.115.182.2.2 0 0 1-.075.012M184.659 172.306a.226.226 0 0 1-.24-.175l-3.49-24.372a.2.2 0 0 1 .01-.076.2.2 0 0 1 .04-.066.2.2 0 0 1 .064-.043.2.2 0 0 1 .075-.012.23.23 0 0 1 .154.044.23.23 0 0 1 .087.134l3.483 24.373a.2.2 0 0 1-.008.074.2.2 0 0 1-.039.065.2.2 0 0 1-.062.042.2.2 0 0 1-.074.012M177.431 176.482a.22.22 0 0 1-.154-.044.22.22 0 0 1-.087-.135l-3.49-24.372a.18.18 0 0 1 .114-.182.2.2 0 0 1 .076-.012.23.23 0 0 1 .24.176l3.491 24.369a.18.18 0 0 1-.048.145.2.2 0 0 1-.065.043.2.2 0 0 1-.077.012M170.203 180.657a.23.23 0 0 1-.155-.042.22.22 0 0 1-.089-.133l-3.491-24.372a.188.188 0 0 1 .051-.142.18.18 0 0 1 .139-.055.23.23 0 0 1 .244.178l3.491 24.373a.18.18 0 0 1-.19.193M162.96 184.829a.23.23 0 0 1-.155-.044.23.23 0 0 1-.089-.134l-3.491-24.373a.18.18 0 0 1 .19-.193.223.223 0 0 1 .244.175l3.491 24.373a.2.2 0 0 1-.01.076.2.2 0 0 1-.104.108.2.2 0 0 1-.076.012M155.746 189.002a.23.23 0 0 1-.155-.042.23.23 0 0 1-.089-.133l-3.483-24.376a.2.2 0 0 1 .01-.076.2.2 0 0 1 .04-.065.2.2 0 0 1 .064-.041.2.2 0 0 1 .076-.012.23.23 0 0 1 .244.179l3.49 24.373a.18.18 0 0 1-.197.193M148.518 193.178a.23.23 0 0 1-.155-.045.23.23 0 0 1-.09-.134l-3.49-24.376a.18.18 0 0 1 .114-.182.2.2 0 0 1 .076-.012.226.226 0 0 1 .244.176l3.49 24.372a.18.18 0 0 1-.05.143.19.19 0 0 1-.139.058M141.286 197.35a.23.23 0 0 1-.241-.175l-3.49-24.377a.18.18 0 0 1 .051-.14.2.2 0 0 1 .063-.042.2.2 0 0 1 .076-.011.226.226 0 0 1 .24.175l3.494 24.376a.18.18 0 0 1-.053.141.2.2 0 0 1-.064.041.2.2 0 0 1-.076.012" style="fill:#f7921e;fill:color(display-p3 .9686 .5725 .1176);fill-opacity:1"/><path d="M138.671 179.071a.26.26 0 0 1-.2-.088.2.2 0 0 1-.037-.064.15.15 0 0 1-.005-.073.16.16 0 0 1 .082-.118l50.605-29.216a.25.25 0 0 1 .303.055q.026.028.038.065.01.037.005.075a.169.169 0 0 1-.087.119l-50.602 29.216a.24.24 0 0 1-.102.029M139.542 185.161a.23.23 0 0 1-.11-.018.3.3 0 0 1-.09-.065.2.2 0 0 1-.038-.065.16.16 0 0 1-.005-.074.16.16 0 0 1 .087-.117l50.601-29.216a.24.24 0 0 1 .303.055q.026.027.037.064a.165.165 0 0 1-.077.191l-50.605 29.216a.2.2 0 0 1-.103.029M140.414 191.256a.25.25 0 0 1-.2-.083.16.16 0 0 1-.038-.066.2.2 0 0 1-.005-.075.2.2 0 0 1 .029-.069.15.15 0 0 1 .058-.049l50.601-29.22a.25.25 0 0 1 .307.055q.026.028.036.064a.17.17 0 0 1-.024.142.2.2 0 0 1-.056.049l-50.602 29.231a.2.2 0 0 1-.106.021" style="fill:#f7921e;fill:color(display-p3 .9686 .5725 .1176);fill-opacity:1"/><path d="M141.286 197.349a.23.23 0 0 1-.11-.022.207.207 0 0 1-.131-.153l-3.49-24.376a.16.16 0 0 1 .016-.095.16.16 0 0 1 .068-.069l50.602-29.216a.24.24 0 0 1 .218 0 .21.21 0 0 1 .132.157l3.49 24.372a.17.17 0 0 1-.088.165l-50.601 29.208a.2.2 0 0 1-.106.029m-3.282-24.46 3.439 23.946 50.2-28.986-3.428-23.942z" style="fill:#f7921e;fill:color(display-p3 .9686 .5725 .1176);fill-opacity:1"/></g><g fill="#000" opacity=".17"><path d="M191.891 168.134a.23.23 0 0 1-.244-.175l-3.49-24.377a.2.2 0 0 1 .01-.075.176.176 0 0 1 .179-.118.23.23 0 0 1 .156.043.23.23 0 0 1 .089.136l3.49 24.372a.18.18 0 0 1-.115.182.2.2 0 0 1-.075.012M184.659 172.306a.226.226 0 0 1-.24-.175l-3.49-24.372a.2.2 0 0 1 .01-.076.2.2 0 0 1 .04-.066.2.2 0 0 1 .064-.043.2.2 0 0 1 .075-.012.23.23 0 0 1 .154.044.23.23 0 0 1 .087.134l3.483 24.373a.2.2 0 0 1-.008.074.2.2 0 0 1-.039.065.2.2 0 0 1-.062.042.2.2 0 0 1-.074.012M177.431 176.482a.22.22 0 0 1-.154-.044.22.22 0 0 1-.087-.135l-3.49-24.372a.18.18 0 0 1 .114-.182.2.2 0 0 1 .076-.012.23.23 0 0 1 .24.176l3.491 24.369a.18.18 0 0 1-.048.145.2.2 0 0 1-.065.043.2.2 0 0 1-.077.012M170.203 180.657a.23.23 0 0 1-.155-.042.22.22 0 0 1-.089-.133l-3.491-24.372a.188.188 0 0 1 .051-.142.18.18 0 0 1 .139-.055.23.23 0 0 1 .244.178l3.491 24.373a.18.18 0 0 1-.19.193M162.96 184.829a.23.23 0 0 1-.155-.044.23.23 0 0 1-.089-.134l-3.491-24.373a.18.18 0 0 1 .19-.193.223.223 0 0 1 .244.175l3.491 24.373a.2.2 0 0 1-.01.076.2.2 0 0 1-.104.108.2.2 0 0 1-.076.012M155.746 189.002a.23.23 0 0 1-.155-.042.23.23 0 0 1-.089-.133l-3.483-24.376a.2.2 0 0 1 .01-.076.2.2 0 0 1 .04-.065.2.2 0 0 1 .064-.041.2.2 0 0 1 .076-.012.23.23 0 0 1 .244.179l3.49 24.373a.18.18 0 0 1-.197.193M148.518 193.178a.23.23 0 0 1-.155-.045.23.23 0 0 1-.09-.134l-3.49-24.376a.18.18 0 0 1 .114-.182.2.2 0 0 1 .076-.012.226.226 0 0 1 .244.176l3.49 24.372a.18.18 0 0 1-.05.143.19.19 0 0 1-.139.058M141.286 197.35a.23.23 0 0 1-.241-.175l-3.49-24.377a.18.18 0 0 1 .051-.14.2.2 0 0 1 .063-.042.2.2 0 0 1 .076-.011.226.226 0 0 1 .24.175l3.494 24.376a.18.18 0 0 1-.053.141.2.2 0 0 1-.064.041.2.2 0 0 1-.076.012" style="fill:#000;fill-opacity:1"/><path d="M138.671 179.071a.26.26 0 0 1-.2-.088.2.2 0 0 1-.037-.064.15.15 0 0 1-.005-.073.16.16 0 0 1 .082-.118l50.605-29.216a.25.25 0 0 1 .303.055q.026.028.038.065.01.037.005.075a.169.169 0 0 1-.087.119l-50.602 29.216a.24.24 0 0 1-.102.029M139.542 185.161a.23.23 0 0 1-.11-.018.3.3 0 0 1-.09-.065.2.2 0 0 1-.038-.065.16.16 0 0 1-.005-.074.16.16 0 0 1 .087-.117l50.601-29.216a.24.24 0 0 1 .303.055q.026.027.037.064a.165.165 0 0 1-.077.191l-50.605 29.216a.2.2 0 0 1-.103.029M140.414 191.256a.25.25 0 0 1-.2-.083.16.16 0 0 1-.038-.066.2.2 0 0 1-.005-.075.2.2 0 0 1 .029-.069.15.15 0 0 1 .058-.049l50.601-29.22a.25.25 0 0 1 .307.055q.026.028.036.064a.17.17 0 0 1-.024.142.2.2 0 0 1-.056.049l-50.602 29.231a.2.2 0 0 1-.106.021" style="fill:#000;fill-opacity:1"/><path d="M141.286 197.349a.23.23 0 0 1-.11-.022.207.207 0 0 1-.131-.153l-3.49-24.376a.16.16 0 0 1 .016-.095.16.16 0 0 1 .068-.069l50.602-29.216a.24.24 0 0 1 .218 0 .21.21 0 0 1 .132.157l3.49 24.372a.17.17 0 0 1-.088.165l-50.601 29.208a.2.2 0 0 1-.106.029m-3.282-24.46 3.439 23.946 50.2-28.986-3.428-23.942z" style="fill:#000;fill-opacity:1"/></g><path fill="#455A64" d="M147.198 175.515c1.684.339 3.38.624 5.072.916l.628.109c.295.051.412-.365.098-.419a392 392 0 0 0-4.81-.803l-.908-.131c-.252-.033-.365.281-.084.335z" style="fill:#455a64;fill:color(display-p3 .2706 .3529 .3922);fill-opacity:1"/><path fill="#455A64" d="M152.019 172.521a4.6 4.6 0 0 0-.561.73l-.974 1.48a173 173 0 0 0-2.141 3.283c-.219.339-.47.671-.664 1.025a.16.16 0 0 0-.022.111.16.16 0 0 0 .059.096l.051.033-.051-.168c-.066.103.124.281.2.165 0 .018.113-.044.135-.073l.044-.066.12-.186.365-.54 1.025-1.583 2.188-3.384q.264-.373.434-.799c.033-.094-.098-.229-.179-.146zM154.28 171.175c1.681.339 3.377.624 5.069.916l.628.109c.295.051.412-.365.098-.419a419 419 0 0 0-4.807-.803l-.908-.138c-.251-.033-.343.281-.08.335" style="fill:#455a64;fill:color(display-p3 .2706 .3529 .3922);fill-opacity:1"/><path fill="#455A64" d="M159.098 168.174q-.316.337-.558.729l-.978 1.477c-.729 1.094-1.425 2.189-2.137 3.283-.222.335-.47.671-.667 1.024a.17.17 0 0 0-.018.112.16.16 0 0 0 .058.096l.048.033-.048-.168c-.069.102.124.281.201.164 0 0 .109-.043.131-.072a1 1 0 0 0 .044-.066l.12-.186.365-.54 1.025-1.583q1.093-1.687 2.188-3.384a4 4 0 0 0 .437-.799c.033-.095-.098-.229-.182-.146zM161.599 167c1.685.339 3.377.623 5.07.915l.631.109c.291.048.412-.364.098-.419q-2.4-.416-4.81-.802a38 38 0 0 0-.908-.139c-.252-.033-.343.281-.081.336" style="fill:#455a64;fill:color(display-p3 .2706 .3529 .3922);fill-opacity:1"/><path fill="#455A64" d="M166.417 164.006a4.7 4.7 0 0 0-.558.729l-.974 1.481a197 197 0 0 0-2.141 3.282c-.218.339-.47.675-.667 1.028a.17.17 0 0 0-.018.112.16.16 0 0 0 .058.096l.048.033-.048-.168c-.065.106.124.281.201.164 0 .022.109-.043.131-.069a1 1 0 0 0 .044-.066l.102-.182.365-.543 1.024-1.579c.73-1.127 1.459-2.258 2.189-3.385q.263-.376.434-.802c.032-.091-.099-.23-.183-.142zM168.879 162.787c1.681.339 3.377.624 5.069.916l.631.109c.292.048.412-.365.099-.419a435 435 0 0 0-4.811-.803c-.303-.051-.605-.094-.908-.138s-.343.281-.08.335" style="fill:#455a64;fill:color(display-p3 .2706 .3529 .3922);fill-opacity:1"/><path fill="#455A64" d="M173.696 159.779a4.8 4.8 0 0 0-.558.729l-.973 1.481a191 191 0 0 0-2.141 3.282c-.223.339-.471.675-.668 1.029a.164.164 0 0 0 .04.207l.048.033-.048-.168c-.069.106.124.281.201.165 0 .021.109-.044.131-.07a1 1 0 0 0 .044-.065l.12-.19.365-.54 1.029-1.583c.729-1.123 1.458-2.253 2.188-3.38q.26-.377.434-.803c.033-.091-.099-.229-.183-.142zM176.107 158.601c1.681.339 3.377.623 5.069.915l.627.11c.296.051.413-.365.099-.42a405 405 0 0 0-4.807-.802q-.453-.075-.908-.139c-.303-.043-.343.281-.08.336" style="fill:#455a64;fill:color(display-p3 .2706 .3529 .3922);fill-opacity:1"/><path fill="#455A64" d="M180.925 155.606q-.316.337-.558.729-.489.744-.978 1.481c-.729 1.094-1.426 2.188-2.137 3.282-.222.339-.47.675-.667 1.029a.164.164 0 0 0 .04.208l.047.032c0-.054-.032-.109-.047-.167-.069.105.124.284.197.164 0 .022.113-.04.135-.07a.4.4 0 0 0 .044-.065l.12-.186.365-.544 1.024-1.579 2.189-3.384a4 4 0 0 0 .437-.799c.033-.095-.098-.23-.182-.146zM148.153 181.135c1.682.343 3.377.628 5.07.919l.627.106c.295.051.412-.365.098-.416q-2.4-.415-4.806-.802-.454-.075-.909-.139c-.302-.043-.342.281-.08.332" style="fill:#455a64;fill:color(display-p3 .2706 .3529 .3922);fill-opacity:1"/><path fill="#455A64" d="M152.971 178.141q-.315.338-.562.73c-.321.496-.649.988-.974 1.48-.729 1.094-1.426 2.189-2.14 3.283-.219.339-.467.674-.664 1.028a.16.16 0 0 0-.018.11.16.16 0 0 0 .058.094l.047.037-.051-.168c-.069.106.124.281.197.164 0 .022.113-.044.135-.069s.029-.048.044-.066l.12-.189.365-.54 1.025-1.583a997 997 0 0 0 2.188-3.384q.267-.373.434-.799c.033-.095-.095-.23-.179-.146z" style="fill:#455a64;fill:color(display-p3 .2706 .3529 .3922);fill-opacity:1"/><path fill="#F7921E" d="M170.145 170.753a2.75 2.75 0 0 0-1.507-.657 3.59 3.59 0 0 0-3.027.952c-.102.102.099.295.208.204a3.53 3.53 0 0 1 2.619-.846c.466.03.913.195 1.287.474a1.426 1.426 0 0 1 .481 1.226 5.2 5.2 0 0 1-.889 2.374 7.6 7.6 0 0 1-1.722 1.878 8.1 8.1 0 0 1-2.224 1.229c-.821.295-1.824.543-2.659.201a2.24 2.24 0 0 1-1.284-2.043 5.34 5.34 0 0 1 .861-2.881 8.3 8.3 0 0 1 2.33-2.385 9 9 0 0 1 1.459-.886 9.3 9.3 0 0 1 1.707-.562c.259-.069-.058-.251-.314-.211a4.6 4.6 0 0 0-1.433.412c-.605.26-1.183.58-1.725.955a8.7 8.7 0 0 0-2.425 2.418 5.7 5.7 0 0 0-.93 3.089 2.708 2.708 0 0 0 1.243 2.312c.89.526 2.021.387 2.962.092a8.8 8.8 0 0 0 2.553-1.273 8 8 0 0 0 1.925-1.97 5.6 5.6 0 0 0 1.036-2.629 1.83 1.83 0 0 0-.532-1.473" style="fill:#f7921e;fill:color(display-p3 .9686 .5725 .1176);fill-opacity:1"/></svg>