<svg xmlns="http://www.w3.org/2000/svg" width="256" height="256" fill="none"><path stroke="#D5D5D5" d="M48.954 222.312c-21.795-12.583-32.579-29.005-32.578-45.323s10.785-32.74 32.578-45.323c21.793-12.581 50.385-18.886 79.004-18.886 28.618 0 57.21 6.305 79.003 18.886 21.796 12.583 32.58 29.004 32.58 45.323s-10.784 32.74-32.58 45.323c-21.793 12.581-50.385 18.886-79.003 18.886-28.62 0-57.211-6.305-79.004-18.886Z"/><path fill="#E0E0E0" d="m82.33 198-58.67-33.938V66.274l58.67 33.918z"/><path fill="#FAFAFA" d="m82.667 100.388 78.3-45.292v97.088l-78.3 45.231z"/><path fill="#E0E0E0" d="M160.624 55.675v96.293l-77.62 44.86v-96.246zm.674-1.165-78.967 45.682V198l78.967-45.622V54.51"/><path fill="#37474F" d="M92.512 118.642v38.207l58.543-33.796V84.845z"/><path fill="#263238" d="m151.056 84.845-6.047 3.488v31.218l6.047 3.502z"/><path fill="#455A64" d="m92.512 156.85 5.09 2.943 58.544-33.803-5.091-2.936z"/><path fill="#455A64" d="M92.512 149.853v6.997l58.543-33.797-6.047-3.502z"/><path fill="#263238" d="M97.603 162.728v-2.935l-5.091-2.943v2.943z"/><path fill="#37474F" d="M156.147 125.989v2.943l-58.543 33.797v-2.936z"/><path fill="#000" d="m26.286 67.789-2.627 1.515v7.158l58.672 33.925 78.967-45.689v-4.767l-4.694-2.714-4.128 2.39 4.694 2.707-74.84 43.298-56.603-32.726 4.693-2.713z" opacity=".1"/><path fill="#F7921E" d="M102.102 22.775v4.767l50.934 29.353 4.135-2.384z"/><path fill="#fff" d="M102.102 22.775v4.767l50.934 29.353 4.135-2.384z" opacity=".6"/><path fill="#000" d="M102.102 22.775v4.767l50.934 29.353 4.135-2.384z" opacity=".15"/><path fill="#F7921E" d="M82.331 102.583 19 66.059v4.767l63.331 36.524z"/><path fill="#fff" d="M82.331 102.583 19 66.059v4.767l63.331 36.524z" opacity=".6"/><path fill="#F7921E" d="M106.229 20.384 102.101 18 19 66.052l63.297 36.531 83.136-48.059zM82.264 97.782l-55.002-31.73 74.839-43.278 55.069 31.75z"/><path fill="#fff" d="M106.229 20.384 102.101 18 19 66.052l63.297 36.531 83.136-48.059zM82.264 97.782l-55.002-31.73 74.839-43.278 55.069 31.75z" opacity=".9"/><path fill="#F7921E" d="M165.432 54.51v4.767L82.331 107.35v-4.768z"/><path fill="#fff" d="M165.432 54.51v4.767L82.331 107.35v-4.768z" opacity=".75"/><path fill="#F7921E" d="M102.101 22.775v4.767L31.396 68.443l-4.134-2.39z"/><path fill="#fff" d="M102.101 22.775v4.767L31.396 68.443l-4.134-2.39z" opacity=".75"/><path fill="#F7921E" d="m102.102 27.54 50.934 29.353-70.765 40.888-50.874-29.34z"/><path fill="#000" d="m102.102 27.54 50.934 29.353-70.765 40.888-50.874-29.34z" opacity=".2"/><path fill="#000" d="M149.709 58.82 97.691 30.089l4.41-7.313L157.17 54.51z" opacity=".1"/><path fill="#F0F0F0" d="m87.53 71.48 52.59-30.424a.87.87 0 0 1 .869-.087l2.081 1.205a.88.88 0 0 1 .35.795V57.89a2.73 2.73 0 0 1-1.226 2.108l-52.59 30.416a.85.85 0 0 1-.87.08l-2.066-1.191a.87.87 0 0 1-.364-.802V73.621a2.75 2.75 0 0 1 1.225-2.141"/><path fill="#E0E0E0" d="M89.59 90.415a.85.85 0 0 1-.868.08l-2.068-1.191a.87.87 0 0 1-.363-.802V73.621c.016-.429.141-.846.363-1.212l2.06 1.192 13.556 9.487z"/><path fill="#FAFAFA" d="M142.194 42.26 89.59 72.705a2.73 2.73 0 0 0-1.232 2.142v14.881c0 .788.552 1.105 1.232.714l52.604-30.443a2.73 2.73 0 0 0 1.226-2.108V42.975c0-.788-.552-1.111-1.226-.714"/><path fill="#F7921E" d="m109.478 64.004.666-.21a.79.79 0 0 1 .59.049h.043c0-.353 0-.54.07-.564q.186-.003.363-.062l.201-.112.163-.105v1.797a.6.6 0 0 1-.069.28.2.2 0 0 1 .082.154 1 1 0 0 1-.063.26l.032.211c0 .106 0 .174-.063.198l-.264.093-.138.137s-.075-.155-.132-.502a.3.3 0 0 0-.027-.15.3.3 0 0 0-.098-.117.53.53 0 0 1-.132-.266l.063-.062a.308.308 0 0 1-.182-.254c-.282-.205-.515-.254-.709-.143l-.075.044c-.076.037-.408.328-1.011.855q-.162.316-.263.657a1.9 1.9 0 0 0-.195.756q.058.818.163.762c.088.248.189.372.314.366h.245c.197.086.414.116.627.087 0 .037 0 .037.101 0l.125-.118h.076l-.038.074v.044a.265.265 0 0 0 .345 0l-.195-.106c.214-.017.429.014.628.093.559.366.841.62.841.83q.102.464.138.936c.007.38-.05.756-.169 1.116l-.245.694q-.362.556-.822 1.035a9 9 0 0 1-1.55.347c-.527-.347-.791-.582-.791-.694h-.044v.812c0 .062-.119.167-.364.304l-.182.105-.15.155a.17.17 0 0 1-.182-.043l.05-.13c-.029-.785.028-1.57.169-2.343l.182-.068a.4.4 0 0 0 .107-.093l.132-.038.069-.068h.037s.088.1.189.285q.364.4.684.837c.031 0 .113.056.257.217h.627l.182-.105v.055l.051-.068a.16.16 0 0 0 .15 0l.063-.037c.182-.112.27-.192.27-.248l-.201.118-.119.05q.325-.346.715-.62c.113-.062.214-.372.314-.93a.76.76 0 0 1 .094-.397v-.055c-.113-.403-.245-.62-.383-.7-.138-.081-.389-.187-.929-.13a1.5 1.5 0 0 1-.828-.218c-.32.056-.502 0-.552-.099-.05-.1-.195-.198-.464-.31a2.8 2.8 0 0 0-.396-.91 5.6 5.6 0 0 1-.113-1.178 6.2 6.2 0 0 1 .734-1.63 3.8 3.8 0 0 1 1.186-.93m-1.989 8.057h-.044a3 3 0 0 0-.05.539v.161a.2.2 0 0 0 .071-.067.16.16 0 0 0 .023-.094 5 5 0 0 1 0-.52zm-.063 1.053a.7.7 0 0 0 .051-.297s-.038.13-.051.316zm.277-.787a1.2 1.2 0 0 1-.113.36l.044.124v.427c0 .062 0 .087.037.069h.063l.031-.062v-.05c0-.595-.025-.874-.062-.85zm.131-6.135v.056l.051-.032v-.049zm.233 1.99v.092h.043l.076-.05v-.049a.1.1 0 0 0-.064-.007.1.1 0 0 0-.055.032zm.043-1.52c.097-.152.159-.323.182-.501-.094.037-.15.217-.182.52zm.151 1.767v.068q.22.075.282.037h.044v-.05a.63.63 0 0 0-.326-.042zm0 3.917c0 .13.075.167.151.124-.057-.087-.107-.136-.151-.105zm0-6.303.063.043a.77.77 0 0 0 .219-.297l-.112.062a.37.37 0 0 0-.151.21zm0-.917.119-.068q.394-.31.753-.657.237-.186.239-.242h-.038c-.684.514-1.042.837-1.042.985zm.05.291h.038a.3.3 0 0 0 .075-.13.22.22 0 0 0-.081.149zm.251 0a3 3 0 0 0 .477-.514l.276-.285v.099l.082-.05.063-.062v-.13a9 9 0 0 0-.666.713c-.144.155-.2.21-.2.279zm0 6.817c.057.1.107.137.163.106v-.044a.4.4 0 0 0-.112-.012zm.113.496h-.069c.069.161.232.217.509.167q.48-.058.941-.204a.3.3 0 0 0 .213 0l.088-.056q.255-.234.257-.384l-.841.527a2.2 2.2 0 0 1-1.048 0zm.49-.303c0 .037.037.043.069 0 .031-.044.012.03-.019.05zm.313-4.295-.094.05s.038.036.082 0h.044zm.101.142-.031.043c0 .038.138.063.332.063v-.056a.4.4 0 0 0-.251 0zm.232.67h-.05v.117a.63.63 0 0 0 .326-.093c0 .037 0 .044.069 0l.082-.043c.05-.056-.094-.043-.377.068zm.446-4.878-.17.1s.101 0 .301-.044h.051c.05-.08-.038-.075-.132-.019zm-.101 8.54v-.055h.076-.032zm.333-3.718v.043-.043m0 3.185.056-.03c.239-.137.377-.261.402-.366h-.1q-.193.223-.333.483zm.132-7.957.05.037h.05v-.062.012s0-.037-.082-.037a.18.18 0 0 0 .007.124zm.32-.744v.099c0 .05 0 .062.081.031l.17-.1a.185.185 0 0 0-.226.044zm.044.285v.162h.031l.031-.063v-.062l-.031-.037zm.138.985-.038.062h.08199999999999999l.037-.08h-.037zm0 .726v.216a.172.172 0 0 0 .087-.143.7.7 0 0 1-.05-.24.2.2 0 0 0-.051.117.2.2 0 0 0 .032.124zm0-1.358-.044.087v.037h.081c.05 0 .038.093.063.087h.031v-.112h.082v-.086c-.044-.223-.082-.329-.1-.316l-.063.037a.41.41 0 0 0-.013.36zm0 .98v.03h.037v-.037zm0 .78v.056h.081v-.043h-.044zm.05 5.163-.05.099h.087l.044-.074v-.031h-.031zm.144-6.29-.044.061v.186-.248zm0-.31-.05.03c0 .044.044.056.063.044v-.05zM112.038 62.705l.207-.123c.895-.43 1.342-.589 1.342-.412l.071 1.824q-.063.71-.213 1.411a5 5 0 0 0-.052.589v.076c.39-.614.942-1.13 1.607-1.5.303-.116.632-.165.96-.141.143.089.263.205.35.341.045 0 .078.047.091.118v.13q.291.123.291.846.069.608.052 1.218-.002.23-.168 1.482l-.039.265.22-.118c.227-.111.344-.135.344-.064 0 .07-.111.123-.337.264 0 .036.084 0 .239 0l.046.053c-.13.094-.201.153-.201.17.136-.034.201 0 .201.06q-.001.6-.285.74l-.085.06c-.272.14-.408.17-.408.076s-.143 0-.428.159a1 1 0 0 0-.305 0v-.041q0-.588.137-1.694c.032-.436.097-.906.188-1.418v-.435l.032-.077c-.091-.041-.136-.135-.136-.3a3 3 0 0 0-.208-.306 1.2 1.2 0 0 0-.44.041 1.77 1.77 0 0 0-1.051.589 3.1 3.1 0 0 0-.648 1.176l-.058.86v.84c.013.345-.04.69-.156 1.018v.07h.08399999999999999l.175-.182c.169-.053.253 0 .253.077l-.071.111v.053h.136v.053q-.059.689-.155.742h-.033a3.7 3.7 0 0 0-1.121.411c-.467.194-.7.236-.7.112v-.2a.6.6 0 0 1 .064-.224v-.076c-.084-.1-.129-.159-.129-.188q.226-.196.505-.324c.046 0 .085-.212.104-.553.073-.144.115-.3.123-.459a.54.54 0 0 0 .065-.247.6.6 0 0 0-.104-.353l.104-.358q.141-1.407.084-2.818l.149-1.941v-.56q-.001-.28-.149-.2l-.343.166-.221.194c-.039 0-.064-.083-.077-.306v-.124c-.033-.406.013-.611.097-.653m-.136 8.689v.04l.071-.04.369-.189q0-.105-.33.053a.2.2 0 0 0-.073.056.2.2 0 0 0-.037.08m.11.347c.162-.064.336-.098.512-.1a5.6 5.6 0 0 1 .921-.353l.032-.07q0-.126-.992.393a.64.64 0 0 0-.421.094q-.052.012-.052.036m.097-8.736v.1l.039-.053v-.035zm.156-.247v.041a.48.48 0 0 0 .356-.076v-.059a.9.9 0 0 0-.356.094m.129.188v.106l.136-.07v-.053zm0 7.8c0 .06.111.042.344-.058l.032-.047v-.1h-.084l-.207.112c-.052.047-.085.047-.085.094m.085-7.647-.059.042h.078l.084-.042.059-.058v.011h-.059zm.447 1.348a2 2 0 0 0 0 .476c.084-.047.13 0 .13.159a1 1 0 0 0 0-.282v-.165l-.039.164h-.039v-.064q0-.118.039-.124h.064a.5.5 0 0 0-.155-.159zm.097-.43v.088h.033l.045-.035v-.041l-.045-.041zm0-.382v.135l.046-.059v-.076zm.13 3.712v.1h.032q.097-.054.136-.3v-.095a1.3 1.3 0 0 0-.162.3zm.104-5.053-.046.088a.14.14 0 0 0 .097.053.2.2 0 0 0 .091-.112v-.03l-.039-.052zm0 5.217h.032l.078-.04a.14.14 0 0 0 .071-.072h-.039a.27.27 0 0 0-.13.118zm.064 3.165v.065h.11699999999999999l.052-.077-.078-.04zm.085-.194h-.039v.041h.039zm.259-4.118a.7.7 0 0 0 .117-.188h-.033a.45.45 0 0 0-.071.218zm.454 0-.039.077v.035l.045-.07v-.036zm.479-.835-.071.041h.033l.071-.041zm.085.341v.035h.045zm.188-.241-.072.053v.064a.6.6 0 0 0 .292 0l.045-.082c.013-.053-.077-.059-.252-.017zm.233-1.047h.136c0-.012-.039-.018-.123.018zm.37 1.053c0 .076 0 .094.103.059.007-.053-.032-.077-.09-.042zm.278 4.288-.116.059v.041q0 .07.136 0l.11-.053v-.035s-.032-.012-.117.006zm-.09-5.353v.041c0 .041.077.047.155 0v-.04c-.013-.019-.065-.025-.142.017zm.058 5.194-.033.053h.033v-.059zm0-.13.104-.04.33-.183v-.035c-.071 0-.181 0-.337.088a.3.3 0 0 0-.073.085.3.3 0 0 0-.031.103zm.324-3.8.065-.234q.032.06.052.123c0 .047.058.065.084.047v-.1a.5.5 0 0 0-.084-.254.56.56 0 0 0-.208-.187h-.097v.053a.7.7 0 0 1 .24.253l-.091.235zm-.104 3.242v.047l.085-.041.032-.041v-.047h-.032a.17.17 0 0 0-.091.1zm.422-.776c.114-.344.179-.7.194-1.06 0-.087 0-.135-.071-.135h-.046a5 5 0 0 0-.084 1.242zm.11-3.042v.053h.058v-.04l-.052-.06zm.078 1.595-.033.04h.033v-.04M119.583 61.303l.264-.048.081-.055c.341.026.675.12.983.278.316.187.477.38.477.567q-.08-.135-.15-.09a.077.077 0 0 0-.028.066q.073.201.166.392a.5.5 0 0 0 .046-.157s.04.115.069.338l.081.212v.18l.028.453a10 10 0 0 0-.12.93q-.375 1.209-.868 2.37c-.16.372-.41.692-.724.93q-.35.275-.73.5l-.178.11c-.268.09-.548.13-.828.12-.575-.362-.845-.724-.845-1.098a8 8 0 0 1-.207-.525q.091-.645.253-1.273a1.9 1.9 0 0 1 .207-.954 6.2 6.2 0 0 1 1.104-2.377q.407-.497.919-.869m-2.35 5.262v.054c0 .072 0 .103.028.097v-.133zm.235.47-.04.06v.097c0 .284.075.417.178.386-.034-.404-.086-.573-.138-.543m.052-2.045a.25.25 0 0 0 .086-.145.177.177 0 0 0-.086.145m.19-.555a.16.16 0 0 0 .04-.127.17.17 0 0 0-.04.15zm.051 1.526-.034.073v-.091zm.052 1.726-.04.048.074.06h.035a.1.1 0 0 0-.014-.068.1.1 0 0 0-.055-.04m.098-1.285v.078c.086.181.184.374.287.604 0 .084.121.138.356.15q.162.17.621.055l.167-.079q.33-.275.615-.603l.333-.603a4 4 0 0 0 .5-1.618v-.114a2.6 2.6 0 0 1-.052-.646 4 4 0 0 1 .035-.603q0-.091-.362-.236a.6.6 0 0 0-.227-.24.55.55 0 0 0-.314-.073l-.109.066c-.724.483-1.086.79-1.086.911a4 4 0 0 0-.333.863 2.8 2.8 0 0 0-.299.766c-.058.368-.098.82-.132 1.322m.092 1.623-.064.036v.054c.081.067.225 0 .437-.096l.104-.06c-.035-.043-.19-.019-.477.066m.074-3.91v.09h.029a.9.9 0 0 0 .144-.35h-.046a1.2 1.2 0 0 0-.127.26m.121-1.032v.133q.32-.423.575-.893l.074-.085h.058q.621-.469.621-.549l-.15.054c-.501.327-.908.79-1.178 1.34m.075.241a.53.53 0 0 0 .161-.253v-.042a.43.43 0 0 0-.184.295zm.04.338h-.04v.055-.043zm.126 4.447.121-.072V68c-.08.03-.115.078-.121.108m.196-.301v.042c0 .048.086 0 .264-.079v-.048a.55.55 0 0 0-.264.085m.27-5.322v.06q.385-.27.724-.603h-.08c-.244.14-.462.323-.644.543m0 .428v.03l.126-.078.661-.604-.178.055c-.379.332-.592.513-.592.597zm.615 4.664h.138c.092 0 .161-.12.161-.163a.1.1 0 0 0-.023-.042.1.1 0 0 0-.04-.024l-.087.048a.4.4 0 0 0-.132.181zm.161-6.07c0 .103.098.127.201.06l.092-.042v-.084c0-.097-.069-.109-.195-.048-.127.06-.081.09-.081.114zm0 .55.092-.158c-.046.097-.069.145-.058.145zm.155-.224a.29.29 0 0 0 .282 0v-.042a.26.26 0 0 0-.248.042zm.167 5.527q.165-.173.166-.23a.7.7 0 0 0-.132.23zm.143-5.117c.035.067.081.085.127.055v-.037c0-.078 0-.102-.075-.072s-.017.036-.017.054zm.167-.844-.029.06q.104.114.207.054c0-.09-.057-.133-.161-.12zm.138.488v.03q0 .133.259.163v-.054c.051-.066-.052-.102-.225-.139zm.207.284h-.04c.04.09.126.133.27.127h.034v-.055a.23.23 0 0 0-.23-.072zm.385 2.945q.08-.045.132-.29h-.029c-.023.03-.023.127-.069.29zm.149-.32h.087c0-.145 0-.193-.046-.157v-.085zm.075-.76c0 .253 0 .386.046.386a1 1 0 0 1 .08-.362v-.037l-.103-.132a.3.3 0 0 0 .011.144zm.149-1.014v.108l.041-.072v-.048zM123.093 59.35a.57.57 0 0 1 .495-.124c.108-.05.16-.057.16-.001q-.137.085-.137.18c0 .063.074 0 .171 0s.057.05.131 0l.239-.18h.091l.712-.66h.034c.413-.113.849-.078 1.242.1.304.207.54.514.672.877q.076.28.097.572a7.4 7.4 0 0 1-.222 1.735q-.34 1.017-.416 1.175l-.079.156c-.08.217-.193.417-.337.59a.6.6 0 0 0-.102.305 1.1 1.1 0 0 1-.433.46 5.7 5.7 0 0 1-.911.908.67.67 0 0 1-.399 0q-.23.078-.439.212l-.057.087c.052.22.072.45.057.677v.175l.063.572v1.069c0 .224.051.299.165.23l.063.037a.14.14 0 0 0-.05.059.16.16 0 0 0-.013.078q.137.087.137.41l.045.224q-.147.162-.33.274l-.644.342a4 4 0 0 1-.193.311c-.137 0-.268-.106-.399-.41v-.075q.059-.055.057-.075a.27.27 0 0 1-.063-.161v-.056h.029v.043l.057-.037v-.218a.5.5 0 0 1 .193-.255q.053-.335.035-.677v-.933c0-.218 0-.622-.052-1.188v-5.44l-.239.149v-.765a.57.57 0 0 1 .054-.279.5.5 0 0 1 .18-.206q.155-.153.336-.268m-.416.515c0 .05 0 .081.045.094l.046-.031a.23.23 0 0 0 .085-.13v-.044c0-.038-.045-.044-.085 0a.12.12 0 0 0-.067.047.14.14 0 0 0-.024.083zm.102 9.893v.05h.131c.086 0 .148-.118.148-.149h-.085zm0-9.65-.028.05v.062c0 .075 0 .118.074.13v-.254zm.177 9.228-.057.037h.074v-.044zm.057-8.413a.44.44 0 0 0 .057.273l-.068.292.068.175q-.086 1.137-.086 1.716v.964q-.003.336.035.671l-.035.43v1.274a.35.35 0 0 0 .097-.218l-.045-.093q.075-.588.062-1.181v-.915q.045-2.398.046-3.165 0-.77-.086-.727c0 .025-.022.193-.022.504zm0 6.218v.205c0 .155 0 .218.051.199q.078-.28.08-.572v-.069h-.057a.38.38 0 0 0-.046.25zm.131.696h-.034l-.04.081v.174a.5.5 0 0 0 .04.218h.045v-.268c.046-.143.034-.205.017-.192zm.194-6.33-.029.044v1.013-.05zm0 7.53-.029.062.029.038h.039v-.094h-.039zm0-8.083v.08s.039-.105.057-.267a.27.27 0 0 0-.046.218zm.245 7.965v.093h.045l.029-.056v-.043h-.029zm.723-8.656a.9.9 0 0 1-.194.349h.057a3.3 3.3 0 0 0-.478.796s-.046.858-.074 2.537v.217s.131.1.404.224h.387c0 .05 0 .069.046.05h.034a2.3 2.3 0 0 0 .627-.684q.169-.312.404-.566c.262-.395.425-.858.473-1.343v-.373l.074-.18v-.038c-.057 0-.085-.093-.085-.267a.92.92 0 0 0-.183-.622.6.6 0 0 0-.123-.232.6.6 0 0 0-.201-.154q-.078-.13-.479 0l-.085.05-.427.33h-.029a.08.08 0 0 1-.088.02.1.1 0 0 1-.036-.033.1.1 0 0 1-.013-.05zm-.649 4.092h-.035c0 .106.04.137.109.093v-.037zm0-4.856v.093-.093m.028 5.596v.043c0 .094.177.05.57-.124l.182-.255-.029-.05-.051.038-.25.236a.96.96 0 0 0-.411.15zm.142-4.657-.057.111v.032h.035l.045-.1v-.037zm.092-.92h.051v-.057c-.017.031-.04.069-.04.094zm.569-.218q-.001.057.382-.118h.08l.136-.088.04-.062h-.028l-.109.1h-.045l.034-.075v-.068l-.08.037-.148.093c-.171.094-.25.143-.262.218zm.103.74h.119l.063-.056v-.069l.501-.41.052-.069-.04-.056-.074.044q-.621.46-.621.653zm.119 4.533h.04c.342-.324.513-.523.513-.622h-.034c-.348.38-.519.59-.519.659zm.388-5.976v.05a.34.34 0 0 0 .182-.05l.057-.031c-.017-.006-.103 0-.239.075zm.228.939-.074.05q.045.068.205-.038l.062-.037.029-.044-.222.106zm.085-.952a.25.25 0 0 0 .251.075c.022-.087-.069-.105-.251-.018zm.154.666h-.034l.034.031zm0 4.738q.12-.136.216-.292h-.028c-.137.162-.194.267-.194.33zm.165-4.54-.04.063c0 .106.068.162.194.162h.028a.17.17 0 0 0-.049-.147.14.14 0 0 0-.139-.04zm.074 3.545a.7.7 0 0 0 .12-.236.6.6 0 0 0-.12.236m0 .454v.05a.38.38 0 0 0 .12-.236.27.27 0 0 0-.12.186m.074-4.713h-.028c0 .037.028.05.074.05l.034-.038a.1.1 0 0 0-.016-.021.05.05 0 0 0-.049-.007.1.1 0 0 0-.021.016zm.137 1.212-.046.031v.081a.9.9 0 0 0 .137.355v-.05q.015-.352-.097-.417zm.148.622h-.046v.081h.046v-.093zm-.046 1.244a.257.257 0 0 0 .114-.205v-.125h-.04a.67.67 0 0 0-.079.33zm.109-.79v.187h.034l.028-.056a.2.2 0 0 0-.068-.13zm.028-2.232v.037q.06.084.148.13c.006-.099-.028-.149-.154-.167zm.228 3.196c.116-.336.176-.692.176-1.051v-.187a4.1 4.1 0 0 0-.199 1.238zm.114-2.407.074.143h.034a.1.1 0 0 0-.004-.058.12.12 0 0 0-.074-.08.1.1 0 0 0-.053-.005z"/><path fill="#E0E0E0" d="M88.5 111.338v-7.603l15.359 16.464z"/><path fill="#EBEBEB" d="M163.069 89.822a7.25 7.25 0 0 1-3.273 5.67h-.034c-1.811 1.043-3.272.195-3.272-1.893v-3.818l6.579-3.798zM149.925 97.418a7.23 7.23 0 0 1-3.273 5.67h-.034c-1.804 1.043-3.272.202-3.272-1.886v-3.818l6.579-3.804zM136.766 105.028a7.25 7.25 0 0 1-3.272 5.67h-.034c-1.811 1.044-3.279.195-3.279-1.892v-3.778l6.585-3.798zM123.603 112.616a7.26 7.26 0 0 1-3.273 5.677c-1.811 1.043-3.272.202-3.272-1.886v-3.818l6.579-3.804zM110.438 120.219a7.23 7.23 0 0 1-3.259 5.683h-.034c-1.804 1.044-3.272.195-3.272-1.892v-3.818l6.579-3.798z"/><path fill="#FAFAFA" d="m103.859 120.198 65.809-37.992-15.359-16.464-65.81 37.992z"/><path fill="#F7921E" d="m110.438 116.401-15.36-16.464 6.586-3.798 15.36 16.464zM123.602 108.799l-15.36-16.458 6.579-3.804L130.181 105zM136.76 101.203l-15.353-16.464 6.579-3.798 15.36 16.464zM149.925 93.6l-15.36-16.464 6.586-3.798 15.36 16.464zM163.089 86.004l-15.36-16.464 6.579-3.798 15.36 16.464z"/><path fill="#F7921E" d="M169.668 86.025a7.23 7.23 0 0 1-3.272 5.67h-.034c-1.805 1.044-3.273.195-3.273-1.892v-3.818l6.579-3.805zM156.51 93.621a7.25 7.25 0 0 1-3.272 5.67c-1.812 1.044-3.28.195-3.28-1.892V93.58l6.586-3.798zM143.346 101.224a7.25 7.25 0 0 1-3.273 5.669h-.033c-1.812 1.044-3.273.196-3.273-1.892v-3.818l6.579-3.804zM130.181 108.819a7.229 7.229 0 0 1-3.273 5.67h-.033c-1.805 1.044-3.273.202-3.273-1.892v-3.798l6.579-3.798zM117.024 116.42a7.245 7.245 0 0 1-3.273 5.67h-.033c-1.812 1.043-3.28.195-3.28-1.893v-3.818l6.586-3.797z"/><g fill="#000" opacity=".2"><path d="M169.668 86.025a7.23 7.23 0 0 1-3.272 5.67h-.034c-1.805 1.044-3.273.195-3.273-1.892v-3.818l6.579-3.805zM156.51 93.621a7.25 7.25 0 0 1-3.272 5.67c-1.812 1.044-3.28.195-3.28-1.892V93.58l6.586-3.798zM143.346 101.224a7.25 7.25 0 0 1-3.273 5.669h-.033c-1.812 1.044-3.273.196-3.273-1.892v-3.818l6.579-3.804zM130.181 108.819a7.229 7.229 0 0 1-3.273 5.67h-.033c-1.805 1.044-3.273.202-3.273-1.892v-3.798l6.579-3.798zM117.024 116.42a7.245 7.245 0 0 1-3.273 5.67h-.033c-1.812 1.043-3.28.195-3.28-1.893v-3.818l6.586-3.797z"/></g><g fill="#000" opacity=".1"><path d="m110.438 116.401-15.36-16.464 6.586-3.798 15.36 16.464zM123.603 108.799l-15.36-16.458 6.579-3.804L130.182 105zM136.76 101.203l-15.353-16.464 6.579-3.798 15.36 16.464zM149.925 93.6l-15.36-16.464 6.586-3.798 15.36 16.464zM163.09 86.004 147.73 69.54l6.579-3.798 15.36 16.464z"/></g><path fill="#455A64" d="M216.533 129.887c1.098 14.699 1.908 32.111 1.908 32.111.104 1.148.901 2.373 1.454 8.037.143 1.438.382 6.951.42 8.804v.918c-3.271 6.553-8.515.922-8.515.922l-.277-.771c-2.176-7.115-3.052-10.565-3.853-13.802-1.643-6.67-3.559-19.285-3.559-19.285l-1.753 12.502a71 71 0 0 1-.289 7.546c-.147 1.35-.608 4.675-1.04 8.285-.021.18-.126.918-.126.918-.863 3.916-9.286 3.966-9.336-.713v-1.077c-.327-6.453-.784-13.701-.839-15.743-.121-5.237 0-17.29.872-28.815"/><path fill="#37474F" d="m204.115 146.804-1.476-8.284s-4.109-.6-6.213-2.491c0 0 1.358 2.516 5.232 3.48l1.467 7.316-.763 12.481z"/><path fill="#263238" d="M183.32 196.066c.164.767.751 2.238 3.958 2.666s6.599-.646 8.15-2.167c1.551-1.522 1.53-2.797 2.339-3.501.81-.704 2.046-1.656 2.352-2.155s.055-1.723.055-1.723z"/><path fill="#F7921E" d="M191.571 174.273v1.077s1.136 1.028 4.1 1.522c1.789.287 3.622 0 5.237-.821l.125-.919s.562-.096.42 1.049c-.143 1.144-1.191 8.104-1.283 9.579-.093 1.476.398 3.04-.055 4.096s-2.037 1.585-2.981 2.973c-.943 1.388-1.463 4.058-5.894 5.031-4.432.973-6.708-.252-7.622-1.338-.914-1.085-.357-2.242 1.434-3.517 1.882-1.337 3.219-2.323 4.54-3.396 1.677-1.367 2.134-2.331 2.134-4.49 0-1.757-.692-8.641-.759-9.559s.084-1.287.604-1.287"/><path fill="#000" d="M191.571 174.273v1.077s1.136 1.028 4.1 1.522c1.789.287 3.622 0 5.237-.821l.125-.919s.562-.096.42 1.049c-.143 1.144-1.191 8.104-1.283 9.579-.093 1.476.398 3.04-.055 4.096s-2.037 1.585-2.981 2.973c-.943 1.388-1.463 4.058-5.894 5.031-4.432.973-6.708-.252-7.622-1.338-.914-1.085-.357-2.242 1.434-3.517 1.882-1.337 3.219-2.323 4.54-3.396 1.677-1.367 2.134-2.331 2.134-4.49 0-1.757-.692-8.641-.759-9.559s.084-1.287.604-1.287" opacity=".2"/><path fill="#263238" d="M215.468 201.986c.348 1.949 1.145 3.245 2.738 3.848 1.593.604 3.886-.561 4.549-1.584.662-1.023 1.299-2.331.696-5.354z"/><path fill="#F7921E" d="m211.515 179.895.276.772s1.514.712 4.314.385c2.801-.327 4.193-1.308 4.193-1.308v-.918s.537-.113.616.918c.126 1.564.13 8.385.181 10.628s1.115 4.558 1.827 6.528c.713 1.97 1.325 5.744-1.442 7.584-2.767 1.841-5.203.596-5.991-2.31-.838-3.102-.457-7.928-1.031-10.573-.575-2.646-2.704-8.951-3.191-10.1s.248-1.606.248-1.606"/><path fill="#000" d="m211.515 179.895.276.772s1.514.712 4.314.385c2.801-.327 4.193-1.308 4.193-1.308v-.918s.537-.113.616.918c.126 1.564.13 8.385.181 10.628s1.115 4.558 1.827 6.528c.713 1.97 1.325 5.744-1.442 7.584-2.767 1.841-5.203.596-5.991-2.31-.838-3.102-.457-7.928-1.031-10.573-.575-2.646-2.704-8.951-3.191-10.1s.248-1.606.248-1.606" opacity=".2"/><path fill="#FFBDA7" d="M177.904 115.087c-1.56-.05-2.386-.721-3.392-1.106-1.258-.487-2.516-.525-4.49-.839l-1.015-.151a3 3 0 0 1-.49-.084c-.151-.042-.277-.071-.386.097a.6.6 0 0 0-.059.419 1.65 1.65 0 0 0 .839 1.073q.606.325 1.257.541c.332.13 0 .348-.192.419-.881.39-3.237-.419-4.163-.536-.42-.051-.772-.227-1.258.117a1.06 1.06 0 0 0-.357.419 1.1 1.1 0 0 0-.486 0 .98.98 0 0 0-.616.499.68.68 0 0 0 .037.755 2 2 0 0 0 .495.335.9.9 0 0 0 .071.357c.16.419.629.574 1.002.805.374.23.541.503.839.716q.475.355 1.002.625c.84.386 1.717.688 2.616.902a9.5 9.5 0 0 0 3.71-.093 6.17 6.17 0 0 1 3.082-.088c1.752.319 8.351 1.526 11.097 1.677 3.333.21 4.612.47 6.126-2.934 1.123-2.516 4.133-11.647 4.133-11.647l-.993-8.125c-3.086.184-5.01 2.033-6.968 7.965-1.337 4.046-2.516 7.723-2.516 7.723s-7.58.201-8.925.159"/><path fill="#F0997A" d="m169.728 116.597-1.396-.269c-.448-.084-.893-.226-1.333-.348a9.2 9.2 0 0 0-2.557-.494s-.021.037 0 .042c.905.201 1.798.419 2.708.675q.957.248 1.937.373l.34.029q.161-.009.322 0zM169.753 117.645l-.348-.055q-.698-.1-1.392-.239c-.461-.092-.926-.222-1.383-.348a11 11 0 0 0-1.572-.381 1.79 1.79 0 0 0-1.363.285v.033q.381-.107.776-.142a4 4 0 0 1 .813.058c.512.093 1.006.252 1.505.382s.868.21 1.308.293c.452.096.914.135 1.375.118q.16-.017.319 0zM169.665 118.894a17 17 0 0 1-1.257-.251c-.202-.047-.42-.118-.608-.147-.189-.03-.42-.084-.638-.134-.419-.101-.838-.264-1.257-.357a.837.837 0 0 0-.868.202v.067c.18-.076.374-.115.57-.114q.281.036.549.126c.42.122.809.243 1.224.336q.6.135 1.212.209c.358.064.723.087 1.086.067zM170.936 115.813c.507 1.421 2.381 2.096 3.316 2.155 0 0-1.442.243-2.289-.336-.931-.633-1.048-1.199-1.027-1.819"/><path fill="#F7921E" d="M196.484 99.098c-2.607.34-4.523.838-6.095 4.93-1.724 4.49-2.474 7.052-2.474 7.052s.616 1.203 2.993 2.255c2.378 1.053 3.807.29 3.807.29l2.097-7.572z"/><path fill="#F7921E" d="M216.399 129.48a35 35 0 0 1 .113-5.605c.248-3.14 1.199-10.351 1.56-11.823 1.564-6.414-2.369-12.473-2.369-12.473-1.744-.419-2.851-.763-6.544-1.593l-6.884.118s-5.501.838-5.79.993c-.914 1.074-3.442 3.157-3.929 11.014-.339 5.45-.377 17.336-.381 19.369z"/><path fill="#fff" d="M216.399 129.48a35 35 0 0 1 .113-5.605c.248-3.14 1.199-10.351 1.56-11.823 1.564-6.414-2.369-12.473-2.369-12.473-1.744-.419-2.851-.763-6.544-1.593l-6.884.118s-5.501.838-5.79.993c-.914 1.074-3.442 3.157-3.929 11.014-.339 5.45-.377 17.336-.381 19.369z" opacity=".5"/><path fill="#37474F" d="M209.909 111.168c.042-.47.096-.969.168-1.51.746-5.815 3.169-9.458 4.771-10.284l-2.185-.549c-1.601.838-3.89 4.49-4.85 10.343a26 26 0 0 0-.248 2zM195.353 108.69c.025-.252.05-.503.079-.763.42-3.933 2.876-8.737 3.958-9.492q-1.283.127-2.541.42c-1.169 1.123-2.808 5.248-3.643 9.223-.042.209-.075.419-.113.604z"/><path fill="#455A64" d="M216.349 127.502a15 15 0 0 1-1.753-.638 6.3 6.3 0 0 1-2.566-2.687c-2.209-4.8-2.293-10.691-1.953-14.519a62 62 0 0 0-9.576-1.48 54 54 0 0 0-7.295-.092c-.188.931-.863 3.325-1.031 5.559-.134 1.786-.277 3.577-.352 6.113-.109 3.505-.126 6.423-.21 9.957q12.024 4.658 24.92.172c-.058-.792-.121-1.601-.184-2.385"/><path fill="#37474F" d="M194.816 109.361c4.308.162 8.601.582 12.859 1.257l-.357 3.707s-6.481 2.209-7.353 2.129c-.872-.079-5.593-3.815-5.593-3.815s.209-2.134.444-3.278"/><path fill="#FFBDA7" d="M188.158 128.097a1.03 1.03 0 0 1 .587-.231 1 1 0 0 1 0-.117.82.82 0 0 1 .319-.554c.156-.109.336-.179.524-.205q.488-.04.973.033.451.047.897.105.96.141 1.928.18a8 8 0 0 0 2.29-.171c.225-.048.434-.155.603-.311a1.8 1.8 0 0 0-.901-.31c-.6-.113-1.572-.352-1.92-.914a1 1 0 0 1-.097-.532.6.6 0 0 1 .059-.29c.155-.251 1.069-.058 1.329-.046.503.025 1.006.051 1.513.088a25 25 0 0 1 2.935.369c.767.147 1.543.386 2.294.109.473-.176.934-.385 1.391-.595a64 64 0 0 0 3.38-1.706c1.459-.784 4.259-2.596 5.689-3.43 0 0 .666-8.385.868-12.129.163-3.249 1.006-6.288 2.964-7.668 5.328 1.585 5.597 4.876 4.909 12.771-.528 5.995-.457 6.414-.817 9.101-.441 3.354-.722 3.455-4.151 4.935s-10.842 3.773-13.181 4.662a21 21 0 0 1-5.19 1.434q-.85.133-1.711.142h-.893a14 14 0 0 1-2.218-.188 5.5 5.5 0 0 1-.964-.419 2.2 2.2 0 0 1-.872-.701.84.84 0 0 1-.118-.419 3.7 3.7 0 0 1-1.324-1.086.728.728 0 0 1-.109-.566l-.394-.188a3.7 3.7 0 0 1-.797-.441c-.201-.134.034-.578.205-.712"/><path fill="#F0997A" d="M195.064 129.287c-.587-.046-1.17-.063-1.753-.096-.289 0-.583-.029-.868-.055a5 5 0 0 1-.838-.176 47 47 0 0 1-1.677-.49 16 16 0 0 1-.839-.285.51.51 0 0 1-.31-.248.52.52 0 0 1 0-.419.542.542 0 0 0-.067.419.5.5 0 0 0 .126.202q.092.07.193.125c.264.139.536.248.809.361q.823.323 1.677.557.432.133.88.181c.298.025.591 0 .885 0a11 11 0 0 0 1.782-.076M189.148 129.451q.688.488 1.434.88.386.192.801.311.412.108.838.121c.566.025 1.124.021 1.677 0a23 23 0 0 0 1.677-.117c-.562-.034-1.119-.051-1.677-.071-.558-.021-1.119-.03-1.677-.063a4.1 4.1 0 0 1-1.576-.369c-.487-.21-.981-.47-1.497-.692M190.582 131.103a3.6 3.6 0 0 0 2.138.788c.381.025.759.029 1.136.025s.759 0 1.14-.046c-.754-.113-1.509-.168-2.259-.222a6.5 6.5 0 0 1-1.09-.18 10 10 0 0 1-1.065-.365"/><path fill="#F7921E" d="M215.703 99.58c3.673.964 4.759 3.068 5.136 4.632s.419 3.84.134 7.848-.272 4.457-.272 4.457-1.493.859-4.52.495c-3.027-.365-4.113-1.149-4.113-1.149s.172-3.4.42-7.203c.247-3.802.528-7.186 3.215-9.08M205.021 87.912c3.614 1.58 7.546.348 8.804-2.75 1.258-3.099-.679-6.893-4.293-8.473s-7.547-.348-8.804 2.75.679 6.892 4.293 8.473"/><path fill="#F7921E" d="M209.318 78.366c-6.813-3.354-13.944-2.545-15.931 1.832-1.988 4.377 1.924 10.649 8.737 14.011s13.94 2.545 15.931-1.828c1.992-4.373-1.928-10.661-8.737-14.015"/><path fill="#000" d="M209.318 78.366c-6.813-3.354-13.944-2.545-15.931 1.832-1.988 4.377 1.924 10.649 8.737 14.011s13.94 2.545 15.931-1.828c1.992-4.373-1.928-10.661-8.737-14.015" opacity=".3"/><path fill="#000" d="M212.626 91.098a4.14 4.14 0 0 1-2.851 2.21 6 6 0 0 1-.679.146c-1.878.31-4.218-.071-6.498-1.199-4.285-2.096-6.746-6.07-5.497-8.804a3.77 3.77 0 0 1 1.79-1.798c2.013-1.036 5.178-.864 8.239.65 2.389 1.182 4.213 2.934 5.14 4.728.738 1.396.909 2.851.356 4.067" opacity=".3"/><path fill="#37474F" d="M197.101 83.43c-.466 1.258.516 2.394.516 2.394 2.129 2.364 3.936 3.3 6.045 5.693.805.91 1.635 1.795 2.516 2.62q.47.446.985.839.679.424 1.413.742a.2.2 0 0 0 .096.021.2.2 0 0 0 .118-.071c1.408-1.317 2.863-2.7 3.572-4.532q.219-.673.36-1.367c.134-.418.163-.863.084-1.296a7.4 7.4 0 0 0-1.187-2.515c-2.222-3.157-6.913-5.362-10.648-4.926-2.181.268-3.476 1.333-3.87 2.398"/><path fill="#FFA8A7" d="M211.066 92.553c-1.17 1.065-2.167.188-2.167.188l-.101 4.277s-.721 4.087-7.328 6.288c-.491-1.874 0-5.127 0-5.127l.02-.817a9 9 0 0 1-1.152-.164c-1.367-.268-2.747-.838-3.296-2.352s-.419-3.203-.26-5.672c.093-1.363.298-1.677.29-2.399 0-1.391 0-1.677.49-2.85 1.727-1.556 7.626-.839 9.806 1.333a11.9 11.9 0 0 0-.042 3.895c0 .39.168.746.39.763.629.054.638-.717.839-1.325.323-1.044 2.448-1.522 3.186-.038.642 1.333.185 3.228-.675 4"/><path fill="#B16668" d="m201.952 92.51-2.063.14a1.046 1.046 0 0 0 1.094 1.01 1.067 1.067 0 0 0 .969-1.15"/><path fill="#F28F8F" d="M201.428 92.833q.242.016.461.122a1.05 1.05 0 0 1-.906.704 1 1 0 0 1-.733-.26 1.33 1.33 0 0 1 1.178-.566M208.048 92.939c-.281 1.056-2.591 3.878-6.561 4.431l-.021.818s3.056-.39 4.712-1.405c1.786-1.09 1.874-2.704 1.87-3.844"/><path fill="#37474F" d="M198.447 97.052c1.283.708 2.792.805 4.733.52 2.784-.42 4.264-1.745 4.771-3.355.508-1.61.302-4.423.591-5.672l-1.215-.327c-.063 1.727-.109 2.6-.751 3.748-.692 1.237-1.396 1.51-2.57.746-.687-.444-1.715-1.295-3.555-1.42a3.7 3.7 0 0 0-2.876 1.005 1.22 1.22 0 0 1-.918-1.165c-.503 3.245.503 5.211 1.79 5.92m2.046-4.851c1.618.02 2.641 1.11 2.364 2.05-.138.482-1.496 0-2.251-.113s-1.702.163-1.97-.44c-.269-.604.23-1.497 1.857-1.497"/><path fill="#F28F8F" d="M201.956 86.654c-1.463-.046-2.775 3.404-2.775 3.404l2.197.726z"/><path fill="#263238" d="M202.874 88.562a.657.657 0 0 0 .758.661.65.65 0 0 0 .531-.489.653.653 0 1 0-1.289-.172M203.059 86.797l1.48.528a.836.836 0 0 0-.487-1.035.773.773 0 0 0-.993.507M197.696 86.918l1.518-.419a.78.78 0 0 0-.642-.602.8.8 0 0 0-.31.015.837.837 0 0 0-.566 1.006M197.839 88.176a.68.68 0 0 0 .616.725.67.67 0 0 0 .696-.641.68.68 0 0 0-.616-.726.66.66 0 0 0-.481.176.67.67 0 0 0-.215.466"/><path fill="#F7921E" d="m199.181 105.051 2.289-1.736c-.348-2.025 0-5.106 0-5.106v-.49a7 7 0 0 1-1.073-.06l-.42.806s-1.949 3.861-.796 6.586"/><path fill="#F7921E" d="m208.819 96.054 1.815 2.31c-1.031 2.734-4.737 6.788-7.592 7.689l-1.573-2.738c5.723-2.184 7.329-6.288 7.329-6.288z"/><path fill="#263238" d="M155.345 167.272c-.701-.406-1.567-.356-2.429.143-1.994 1.149-3.616 4.476-3.616 7.412v6.923a.316.316 0 1 0 .629 0v-6.923c0-2.737 1.482-5.817 3.3-6.868.672-.387 1.295-.438 1.802-.143.752.433 1.182 1.534 1.182 3.021v6.902a.316.316 0 1 0 .629 0v-6.902c0-1.718-.544-3.018-1.497-3.565"/><path fill="#F7921E" d="m170.813 206.968-1.938-33.283-5.551-3.193-1.821 31.101z"/><path fill="#000" d="m170.813 206.968-1.938-33.283-5.551-3.193-1.821 31.101z" opacity=".2"/><path fill="#F7921E" d="M143.821 181.75 142 212.851l19.503-11.258 1.821-31.101z"/><path fill="#000" d="M143.821 181.75 142 212.851l19.503-11.258 1.821-31.101z" opacity=".3"/><path fill="#F7921E" d="m143.821 181.75 5.551 3.196 1.94 33.28-9.312-5.375z"/><path fill="#000" d="m143.821 181.75 5.551 3.196 1.94 33.28-9.312-5.375z" opacity=".15"/><path fill="#000" d="m151.312 218.226-4.003-5.617-.502-19.617-.499 19.277-4.308.581z" opacity=".15"/><path fill="#F7921E" d="m168.883 173.685-19.511 11.261 1.938 33.28 19.503-11.258zm-13.698 12.038c-.382.218-.695.038-.695-.408a1.54 1.54 0 0 1 .695-1.205c.385-.223.698-.04.698.408a1.52 1.52 0 0 1-.706 1.205zm6.902-4.021c-.385.22-.695.037-.695-.409a1.54 1.54 0 0 1 .695-1.205c.385-.223.698-.04.698.409a1.52 1.52 0 0 1-.695 1.205z"/><path fill="#37474F" d="M160.919 170.436c-.703-.406-1.566-.356-2.431.143-1.994 1.152-3.613 4.476-3.613 7.414v6.923a.315.315 0 0 0 .527.205.32.32 0 0 0 .102-.205v-6.923c0-2.737 1.478-5.819 3.3-6.867.668-.388 1.292-.438 1.799-.146.752.435 1.184 1.534 1.184 3.021v6.902a.316.316 0 0 0 .629 0v-6.902c-.01-1.718-.557-3.016-1.497-3.565"/><path fill="#263238" d="M126.29 169.31c-.796-.464-1.797-.406-2.787.167-2.283 1.328-4.138 5.126-4.138 8.495v7.932q-.007.076.018.147a.35.35 0 0 0 .196.214.36.36 0 0 0 .291 0 .36.36 0 0 0 .214-.361v-7.935c0-3.135 1.696-6.665 3.78-7.868.77-.443 1.484-.501 2.065-.167.86.499 1.354 1.76 1.354 3.451v7.897a.362.362 0 1 0 .722 0v-7.886c0-1.967-.626-3.457-1.715-4.086"/><path fill="#F7921E" d="m144.012 214.796-2.222-38.136-6.36-3.66-2.084 35.637z"/><path fill="#fff" d="m144.012 214.796-2.222-38.136-6.36-3.66-2.084 35.637z" opacity=".4"/><path fill="#F7921E" d="M113.084 185.901 111 221.538l22.346-12.901L135.43 173z"/><path fill="#fff" d="M113.084 185.901 111 221.538l22.346-12.901L135.43 173z" opacity=".3"/><path fill="#000" d="M113.084 185.901 111 221.538l22.346-12.901L135.43 173z" opacity=".05"/><path fill="#F7921E" d="m113.084 185.902 6.36 3.66 2.222 38.136L111 221.539z"/><path fill="#fff" d="m113.084 185.902 6.36 3.66 2.222 38.136L111 221.539z" opacity=".55"/><path fill="#F7921E" d="m121.666 227.697-4.584-6.437-.574-22.476-.573 22.086-4.935.669z" opacity=".5"/><path fill="#F7921E" d="m141.79 176.661-22.346 12.909 2.222 38.127 22.346-12.909zm-15.691 13.803c-.44.253-.796.043-.796-.467a1.77 1.77 0 0 1 .796-1.383c.441-.265.797-.045.797.47a1.76 1.76 0 0 1-.797 1.37zm7.919-4.611c-.441.25-.796.04-.796-.469a1.752 1.752 0 0 1 .796-1.381c.441-.265.796-.045.796.467a1.749 1.749 0 0 1-.796 1.383"/><path fill="#fff" d="m141.79 176.661-22.346 12.909 2.222 38.127 22.346-12.909zm-15.691 13.803c-.44.253-.796.043-.796-.467a1.77 1.77 0 0 1 .796-1.383c.441-.265.797-.045.797.47a1.76 1.76 0 0 1-.797 1.37zm7.919-4.611c-.441.25-.796.04-.796-.469a1.752 1.752 0 0 1 .796-1.381c.441-.265.796-.045.796.467a1.749 1.749 0 0 1-.796 1.383" opacity=".7"/><path fill="#37474F" d="M132.664 172.936c-.796-.464-1.795-.406-2.787.167-2.283 1.328-4.139 5.129-4.139 8.495v7.932a.37.37 0 0 0 .094.275.36.36 0 0 0 .266.117.363.363 0 0 0 .36-.392v-7.924c0-3.135 1.696-6.666 3.78-7.868.769-.443 1.484-.502 2.065-.165.86.497 1.354 1.758 1.354 3.451v7.898a.362.362 0 0 0 .722 0v-7.898c0-1.969-.627-3.459-1.715-4.088"/><path fill="#263238" d="M141.345 184.272c-.701-.406-1.567-.356-2.429.143-1.994 1.149-3.616 4.476-3.616 7.412v6.923a.316.316 0 1 0 .629 0v-6.923c0-2.737 1.482-5.817 3.3-6.868.672-.387 1.295-.438 1.802-.143.752.433 1.182 1.534 1.182 3.021v6.902a.316.316 0 1 0 .629 0v-6.902c0-1.718-.544-3.018-1.497-3.565"/><path fill="#F7921E" d="m156.813 223.968-1.938-33.283-5.551-3.193-1.821 31.101z"/><path fill="#000" d="m156.813 223.968-1.938-33.283-5.551-3.193-1.821 31.101z" opacity=".2"/><path fill="#F7921E" d="M129.821 198.75 128 229.851l19.503-11.258 1.821-31.101z"/><path fill="#000" d="M129.821 198.75 128 229.851l19.503-11.258 1.821-31.101z" opacity=".3"/><path fill="#F7921E" d="m129.821 198.75 5.551 3.196 1.94 33.28-9.312-5.375z"/><path fill="#000" d="m129.821 198.75 5.551 3.196 1.94 33.28-9.312-5.375z" opacity=".15"/><path fill="#000" d="m137.312 235.226-4.003-5.617-.502-19.617-.499 19.277-4.308.581z" opacity=".15"/><path fill="#F7921E" d="m154.883 190.685-19.511 11.261 1.938 33.28 19.503-11.258zm-13.698 12.038c-.382.218-.695.038-.695-.408a1.54 1.54 0 0 1 .695-1.205c.385-.223.698-.04.698.408a1.52 1.52 0 0 1-.706 1.205zm6.902-4.021c-.385.22-.695.037-.695-.409a1.54 1.54 0 0 1 .695-1.205c.385-.223.698-.04.698.409a1.52 1.52 0 0 1-.695 1.205z"/><path fill="#37474F" d="M146.919 187.436c-.703-.406-1.566-.356-2.431.143-1.994 1.152-3.613 4.476-3.613 7.414v6.923a.315.315 0 0 0 .527.205.32.32 0 0 0 .102-.205v-6.923c0-2.737 1.478-5.819 3.3-6.867.668-.388 1.292-.438 1.799-.146.752.435 1.184 1.534 1.184 3.021v6.902a.316.316 0 0 0 .629 0v-6.902c-.01-1.718-.557-3.016-1.497-3.565"/></svg>