<svg xmlns="http://www.w3.org/2000/svg" width="256" height="256" fill="none"><path stroke="#D5D5D5" d="M56.624 189.743c-19.694-10.284-29.39-23.689-29.391-36.962s9.695-26.679 29.391-36.968c19.685-10.283 45.518-15.438 71.378-15.438s51.691 5.155 71.374 15.438c19.694 10.289 29.39 23.693 29.391 36.965s-9.695 26.676-29.391 36.965c-19.685 10.283-45.517 15.438-71.376 15.438s-51.69-5.155-71.376-15.438Z"/><path fill="#F7921E" d="M120.071 180V88.697L41 43.045v91.303z"/><path fill="#fff" d="M120.071 179.999V88.696L41 43.044v91.304z" opacity=".6"/><path fill="#F7921E" d="m89.569 154.844 3.54 2.044v2.044l-3.54-2.044z" opacity=".4"/><path fill="#F7921E" d="m87.741 151.307 3.541 2.045v2.044l-3.541-2.044z" opacity=".2"/><path fill="#F7921E" d="m91.787 153.774 3.325 1.918v1.803l-3.325-1.917zm-.108-.187v2.045l3.541 2.044v-2.044zM105.511 151.784l3.541 2.044v2.045l-3.541-2.045z" opacity=".4"/><path fill="#F7921E" d="m103.677 148.246 3.541 2.044v2.044l-3.541-2.044z" opacity=".2"/><path fill="#F7921E" d="m107.73 150.694 3.319 1.918v1.803l-3.319-1.918zm-.108-.187v2.045l3.535 2.044v-2.044zM113.798 168.892l3.542 2.044v2.044l-3.542-2.044z" opacity=".4"/><path fill="#F7921E" d="m109.672 166.516 3.542 2.045v2.044l-3.542-2.044z" opacity=".2"/><path fill="#F7921E" d="m111.868 165.29 3.325 1.918v1.804l-3.325-1.918zm-.108-.186v2.044l3.541 2.044v-2.044zM91.974 139.672l3.541 2.044v2.044l-3.541-2.044z" opacity=".4"/><path fill="#F7921E" d="m87.848 137.301 3.541 2.044v2.044l-3.54-2.044z" opacity=".2"/><path fill="#F7921E" d="m90.044 136.074 3.324 1.918v1.803l-3.325-1.918zm-.109-.187v2.044l3.542 2.045v-2.045zM112.854 134.633l3.542 2.044v2.044l-3.542-2.044zM88.835 121.113l3.54 2.044v2.044l-3.54-2.044z" opacity=".4"/><path fill="#F7921E" d="m114.983 138.367 3.542 2.044v2.044l-3.542-2.044zM90.928 124.702l3.54 2.044v2.044l-3.54-2.044z" opacity=".2"/><path fill="#F7921E" d="m112.962 139.996 3.319 1.918v1.804l-3.325-1.918v-1.804m-.108-.192v2.044l3.541 2.044v-2.044zM48.794 132.61l3.541 2.045v2.044l-3.541-2.044z" opacity=".4"/><path fill="#F7921E" d="m44.669 130.236 3.535 2.045v2.044l-3.535-2.044z" opacity=".2"/><path fill="#F7921E" d="m46.864 129.045 3.318 1.918v1.804l-3.318-1.918zm-.109-.192v1.996l3.542 2.044v-2.044l-3.536-2.045zM67.558 119.458l3.535 2.044v2.044l-3.535-2.044z" opacity=".4"/><path fill="#F7921E" d="m65.724 115.927 3.54 2.045v2.044l-3.54-2.044z" opacity=".2"/><path fill="#F7921E" d="m69.776 118.394 3.32 1.918v1.803l-3.32-1.918zm-.108-.193v2.044l3.535 2.045v-2.045zM64.466 142.432l3.535 2.044.006 2.044-3.54-2.044z" opacity=".4"/><path fill="#F7921E" d="m60.335 140.057 3.541 2.044v2.044l-3.541-2.044z" opacity=".2"/><path fill="#F7921E" d="m62.536 138.834 3.319 1.918v1.804l-3.32-1.918zm-.114-.186v2.038l3.54 2.05v-2.05l-3.54-2.02zM52.096 105.098l3.541 2.044v2.044l-3.541-2.044z" opacity=".4"/><path fill="#F7921E" d="m47.97 102.721 3.536 2.044.006 2.044-3.542-2.044z" opacity=".2"/><path fill="#F7921E" d="m50.165 101.501 3.319 1.918v1.804l-3.32-1.918zm-.108-.192v2.044l3.54 2.044v-2.044zM72.369 129.169l3.541 2.045v2.044l-3.541-2.044zM48.355 115.652l3.535 2.044v2.044l-3.535-2.044z" opacity=".4"/><path fill="#F7921E" d="m74.497 132.905 3.542 2.044v2.044l-3.542-2.044zM50.448 119.241l3.541 2.044v2.045l-3.541-2.045z" opacity=".2"/><path fill="#F7921E" d="m72.477 134.535 3.325 1.918v1.803l-3.325-1.918zm-.108-.193v2.044l3.541 2.045v-2.045zM78.299 106.397l3.541 2.044v2.038l-3.541-2.038z" opacity=".4"/><path fill="#F7921E" d="m76.47 102.859 3.542 2.044v2.045l-3.541-2.045z" opacity=".2"/><path fill="#F7921E" d="m80.517 105.325 3.325 1.918v1.804l-3.325-1.918zm-.108-.186v2.038l3.541 2.05v-2.05zM94.241 103.335l3.535 2.038v2.05l-3.535-2.05z" opacity=".4"/><path fill="#F7921E" d="m92.407 99.798 3.541 2.044v2.045l-3.541-2.045z" opacity=".2"/><path fill="#F7921E" d="m96.46 102.265 3.319 1.918v1.804l-3.319-1.918zm-.108-.186v2.038l3.535 2.044v-2.044zM102.528 120.438l3.542 2.045v2.044l-3.542-2.044z" opacity=".4"/><path fill="#F7921E" d="m98.403 118.069 3.541 2.044v2.044l-3.541-2.044z" opacity=".2"/><path fill="#F7921E" d="m100.597 116.842 3.325 1.918v1.804l-3.325-1.93v-1.804m-.108-.186v2.044l3.541 2.044v-2.044zM80.704 91.223l3.541 2.044v2.044l-3.54-2.044z" opacity=".4"/><path fill="#F7921E" d="m76.578 88.847 3.535 2.045.006 2.044-3.541-2.044z" opacity=".2"/><path fill="#F7921E" d="m78.773 87.626 3.325 1.918v1.803l-3.325-1.917zm-.108-.187v2.045l3.541 2.044v-2.044zM101.584 86.184l3.536 2.038.006 2.044-3.542-2.038zM77.564 72.664l3.542 2.044v2.045l-3.542-2.044z" opacity=".4"/><path fill="#F7921E" d="m103.713 89.919 3.541 2.044v2.044l-3.541-2.044zM79.657 76.253l3.541 2.044v2.045l-3.541-2.045z" opacity=".2"/><path fill="#F7921E" d="m101.692 91.541 3.319 1.918v1.804l-3.325-1.924v-1.804m-.108-.186v2.044l3.541 2.044v-2.044zM52.63 59.323l3.536 2.044v2.045l-3.535-2.044z" opacity=".4"/><path fill="#F7921E" d="M48.5 56.955 52.04 59v2.044L48.5 59z" opacity=".2"/><path fill="#F7921E" d="m50.682 55.729 3.325 1.918v1.803l-3.325-1.93v-1.803m-.108-.187v2.044l3.541 2.045v-2.044zM50.695 74.51l3.54 2.044v2.044l-3.54-2.044z" opacity=".4"/><path fill="#F7921E" d="m48.866 70.98 3.541 2.039v2.05l-3.541-2.05z" opacity=".2"/><path fill="#F7921E" d="m52.914 73.446 3.325 1.918v1.803l-3.325-1.918zm-.109-.193v2.044l3.542 2.045v-2.045zM53.196 93.984l3.535 2.044v2.045l-3.535-2.045z" opacity=".4"/><path fill="#F7921E" d="m49.065 91.608 3.541 2.044v2.045l-3.541-2.045z" opacity=".2"/><path fill="#F7921E" d="m51.285 90.387 3.319 1.918v1.803l-3.32-1.93v-1.803m-.114-.193v2.045l3.542 2.044v-2.044zM111.453 109.601l3.541 2.044v2.044l-3.541-2.044z" opacity=".4"/><path fill="#F7921E" d="m107.327 107.225 3.542 2.045v2.044l-3.542-2.044z" opacity=".2"/><path fill="#F7921E" d="m109.523 106.006 3.325 1.918v1.804l-3.325-1.918zm-.108-.193v2.045l3.541 2.044v-2.044zM61.098 80.722l3.542 2.038v2.044l-3.542-2.044z" opacity=".4"/><path fill="#F7921E" d="m63.228 84.457 3.54 2.044v2.044l-3.54-2.044z" opacity=".2"/><path fill="#F7921E" d="M61.207 86.082 64.532 88v1.803l-3.325-1.924v-1.803m-.108-.187v2.045l3.54 2.044v-2.044z" opacity=".4"/><path fill="#F7921E" d="M113.221 92.655v9.333l-.427-.246-2.616-1.504-.006-.006-1.101-.631-.517-.307-.18-.096-3.927-2.267-.006-.013-.03-.012-.524-.306-3.963-2.286-.186-.108-.517-.3-2.208-1.275-1.521-.879h-.006l-.415-.24v-9.34l.938.548 3.212 1.852.517.295.21.12.006.006 1.786 1.034 2.147 1.24.476.27.048.024 3.554 2.057.595.342.511.295z"/><path fill="#000" d="M113.221 92.654v9.334l-.427-.247-2.616-1.503-.006-.006-1.101-.632-.517-.306-.18-.097-3.927-2.267-.006-.012-.03-.012-.524-.307-3.963-2.285-.186-.108-.517-.301-2.208-1.275-1.521-.878h-.006l-.415-.24v-9.34l.938.547 3.212 1.852.517.295.21.12.006.006 1.786 1.035 2.147 1.239.476.27.048.024 3.554 2.057.595.343.511.295z" opacity=".05"/><path fill="#F7921E" d="m103.887 95.968-3.656-6.164-1.004-1.654-3.218-5.412-.938-.548v3.964l.102.168.541.908 3.513 5.918.697 1.203 3.963 2.285.524.306h.03zm5.75 3.344-.566-.95-.517-.884-2.598-4.366-.541-.908-1.004-1.702-.524-.878-2.147-3.609-1.804-1.034 3.669 6.176.788 1.33 3.422 5.779.541.914.18.096.517.307 1.101.601zm-13.159-7.608-1.407-2.351v1.69l.415.703 1.521.879zm15.697 4.992-.542-.914-2.562-4.312-.511-.866-.601-1.004-3.548-2.051h-.048l.048.078 3.608 6.116 1.034 1.744 3.188 5.353.535.914.427.246v-3.5z"/><path fill="#fff" d="m103.887 95.967-3.656-6.164-1.005-1.654-3.217-5.412-.938-.547v3.963l.102.168.541.908 3.512 5.918.698 1.203 3.963 2.285.523.307h.03zm5.749 3.344-.565-.95-.517-.884-2.598-4.366-.541-.908-1.005-1.702-.523-.878-2.147-3.609-1.804-1.034 3.669 6.176.787 1.33 3.422 5.779.542.914.18.096.517.307 1.101.601zm-13.158-7.608-1.407-2.351v1.69l.415.704 1.521.878zm15.696 4.992-.541-.914-2.562-4.312-.511-.866-.601-1.004-3.549-2.051h-.048l.048.078 3.609 6.116 1.034 1.744 3.188 5.353.535.914.427.246v-3.5z" opacity=".1"/><path fill="#FAFAFA" d="M94.584 81.27v9.946l19.19 11.078v-9.935zm4.673 12.027-2.748-1.588-1.408-.811v-4.066l.644.367 3.512 2.027zm0-4.673-4.072-2.321-.102-.06V82.17l.938.548 3.218 1.852zm4.661 7.367-4.15-2.405V89.52l.493.283 3.657 2.11zm0-4.672-.313-.163-3.885-2.237v-4.071l.21.12 1.805 1.034 2.147 1.24zm4.666 7.367-.721-.415-3.422-1.985v-4.065l1.545.896 2.598 1.497zm0-8.077v3.404l-.517-.295-2.658-1.497-1.004-.602v-4.071l3.56 2.057.601.342zm4.643 10.771-.962-.566-2.646-1.485-.565-.33v-4.072l3.103 1.804 1.046.601zm0-4.673-1.587-.92-2.562-1.474v-4.059l4.149 2.406z"/><path fill="#F7921E" d="M113.221 107.262v9.333l-.427-.246-2.616-1.504-.006-.006-1.101-.631-.517-.307-.18-.102-3.927-2.261-.006-.012-.03-.012-.524-.307-3.963-2.285-.186-.115-.517-.294-2.208-1.275-1.521-.878h-.006l-.415-.247V96.78l.938.547 3.212 1.852.517.295.21.114.006.012 1.786 1.034 2.147 1.239.476.271.048.024 3.554 2.057.595.343.511.294z"/><path fill="#000" d="M113.221 107.262v9.333l-.427-.246-2.616-1.504-.006-.006-1.101-.631-.517-.307-.18-.102-3.928-2.261-.006-.012-.03-.012-.523-.307-3.963-2.285-.186-.115-.518-.294-2.207-1.275-1.521-.878h-.006l-.415-.247V96.78l.938.547 3.211 1.852.518.295.21.114.006.012 1.786 1.034 2.147 1.239.475.271.048.024 3.555 2.057.595.343.511.294z" opacity=".05"/><path fill="#F7921E" d="m103.887 110.593-3.656-6.17-1.004-1.684-3.218-5.412-.938-.547v3.963l.102.162.541.914 3.513 5.918.697 1.203 3.963 2.285.524.307h.03zm5.75 3.338-.566-.95-.517-.878-2.598-4.366-.541-.914-1.004-1.696-.524-.878-2.147-3.609-1.804-1.034 3.669 6.182.788 1.329 3.422 5.78.541.908.18.102.517.307 1.101.631zm-13.159-7.607-1.407-2.358v1.69l.415.704 1.521.878zm15.697 4.991-.542-.908-2.562-4.312-.511-.866-.601-1.004-3.56-2.057h-.048l.048.078 3.608 6.11 1.034 1.744 3.188 5.359.535.914.427.246v-3.506z"/><path fill="#fff" d="m103.887 110.593-3.656-6.17-1.005-1.684-3.217-5.412-.938-.547v3.963l.102.162.541.914 3.512 5.918.698 1.203 3.963 2.285.523.307h.03zm5.749 3.338-.565-.95-.517-.878-2.598-4.366-.541-.914-1.005-1.696-.523-.878-2.147-3.609-1.804-1.034 3.669 6.182.787 1.329 3.422 5.78.542.908.18.102.517.307 1.101.631zm-13.158-7.607-1.407-2.358v1.69l.415.704 1.521.878zm15.696 4.991-.541-.908-2.562-4.312-.511-.866-.601-1.004-3.561-2.057h-.048l.048.078 3.609 6.11 1.034 1.744 3.187 5.359.536.914.427.246v-3.506z" opacity=".1"/><path fill="#FAFAFA" d="M94.584 95.877v9.941l19.19 11.084v-9.947zm4.673 12.028-2.748-1.593-1.408-.806v-4.066l.644.367 3.512 2.021zm0-4.673-4.072-2.327-.102-.054v-4.072l.938.548 3.218 1.852zm4.661 7.361-4.15-2.405v-4.041l.493.276 3.657 2.111zm0-4.666-.265-.157-3.885-2.237v-4.071l.21.114 1.805 1.034 2.147 1.239zm4.666 7.361-.721-.409-3.422-1.985v-4.065l1.545.896 2.598 1.491zm0-8.071v3.404l-.517-.301-2.658-1.497-1.004-.602v-4.071l3.56 2.057.601.342zm4.643 10.777-.962-.559-2.622-1.504-.565-.325v-4.071l3.103 1.804 1.046.602zm0-4.667-1.593-.926-2.562-1.473v-4.072l4.149 2.406z"/><path fill="#F7921E" d="M84.758 76.219v9.333l-.427-.252-2.616-1.498-.006-.012-1.1-.631-.524-.3-.175-.103-3.927-2.267-.006-.006-.036-.018-.517-.301-3.963-2.291-.186-.109-.518-.294-2.213-1.275-1.515-.884h-.006l-.415-.24v-9.334l.938.54 3.211 1.86.517.294.21.114.007.006 1.78 1.04 2.153 1.24.475.27.042.024 3.56 2.057.596.343.511.294z"/><path fill="#000" d="M84.758 76.219v9.333l-.427-.252-2.616-1.498-.006-.012-1.1-.631-.524-.301-.174-.102-3.927-2.268-.006-.006-.037-.018-.517-.3-3.963-2.292-.186-.108-.518-.294-2.213-1.275-1.515-.884h-.006l-.415-.241v-9.334l.938.542 3.211 1.858.518.295.21.114.006.006 1.78 1.04 2.153 1.24.475.27.042.024 3.56 2.057.596.342.511.295z" opacity=".05"/><path fill="#F7921E" d="m75.424 79.55-3.662-6.17-1.005-1.69-3.217-5.412-.932-.541V69.7l.102.162.535.914 3.512 5.912.704 1.203 3.963 2.291.517.3h.036zm5.743 3.338-.559-.95-.523-.878-2.592-4.372-.547-.908-1.005-1.696-.517-.884-2.153-3.609-1.804-1.034 3.668 6.182.782 1.33 3.428 5.779.535.908.18.102.524.3 1.1.632zM68.01 75.281l-1.401-2.358v1.69l.415.698 1.515.884zm15.696 4.991-.535-.908-2.562-4.318-.511-.86-.601-1.004-3.555-2.057H75.9l.042.078 3.609 6.11 1.034 1.744 3.187 5.359.536.908.427.252V82.07z"/><path fill="#fff" d="m75.424 79.55-3.662-6.17-1.005-1.69-3.217-5.412-.932-.542V69.7l.102.163.535.914 3.512 5.912.704 1.202 3.963 2.292.517.3h.037zm5.743 3.338-.559-.95-.523-.878-2.592-4.372-.547-.909-1.005-1.695-.517-.884-2.153-3.609-1.804-1.034 3.668 6.182.782 1.33 3.428 5.779.535.908.18.102.524.3 1.1.632zM68.01 75.28l-1.401-2.357v1.69l.415.698 1.515.883zm15.696 4.992-.535-.908-2.562-4.318-.511-.86-.601-1.005-3.555-2.056H75.9l.042.078 3.609 6.11 1.034 1.744 3.188 5.358.535.909.427.252V82.07z" opacity=".1"/><path fill="#FAFAFA" d="M66.084 64.834v9.941L85.28 85.853v-9.941zm4.673 12.028-2.749-1.588-1.401-.806v-4.06l.637.368 3.513 2.02zm0-4.673-4.048-2.333-.102-.054V65.73l.932.541 3.218 1.859zm4.666 7.367-4.15-2.406v-4.035l.488.277 3.662 2.11zm0-4.673-.264-.15-3.885-2.22v-4.07l.21.114 1.804 1.034 2.153 1.239zm4.661 7.367-.716-.409-3.427-1.99v-4.06l1.551.89 2.592 1.498zm0-8.07v3.397l-.511-.294-2.628-1.51-1.004-.601V71.1l3.56 2.057.601.343zm4.66 10.764-.961-.559-2.628-1.503-.56-.325v-4.071l3.097 1.804 1.053.601zm0-4.672-1.587-.908-2.562-1.474V73.82l4.15 2.405z"/><path fill="#F7921E" d="M84.758 90.82v9.339l-.427-.253-2.616-1.503-.006-.006-1.1-.632-.524-.3-.175-.102-3.927-2.268-.006-.006-.036-.018-.517-.3-3.963-2.292-.186-.108-.518-.295-2.213-1.28-1.515-.879h-.006l-.415-.24v-9.334l.938.541 3.211 1.853.517.3.21.115.007.006 1.78 1.04 2.153 1.233.475.277.042.024 3.56 2.05.596.343.511.295z"/><path fill="#000" d="M84.758 90.82v9.34l-.427-.252-2.616-1.504-.006-.006-1.1-.631-.524-.3-.174-.103-3.927-2.267-.006-.006-.037-.018-.517-.301-3.963-2.291-.186-.109-.518-.294-2.213-1.281-1.515-.878h-.006l-.415-.24v-9.335l.938.542 3.211 1.852.518.3.21.115.006.006 1.78 1.04 2.153 1.233.475.277.042.024 3.56 2.05.596.343.511.295z" opacity=".05"/><path fill="#F7921E" d="M75.424 94.164 71.762 88l-1.005-1.69-3.217-5.413-.932-.54v3.962l.102.163.535.908 3.512 5.918.704 1.202 3.963 2.292.517.3h.036zm5.743 3.344-.559-.95-.523-.878-2.592-4.373-.547-.908-1.005-1.707-.517-.885-2.153-3.608-1.804-1.034 3.692 6.188.782 1.335 3.428 5.773.535.915.18.102.524.3 1.1.632zM68.01 89.9l-1.401-2.351v1.69l.415.697 1.515.878zm15.696 4.992-.535-.914-2.562-4.312-.511-.866-.601-1.005-3.555-2.05H75.9l.042.078 3.609 6.11 1.034 1.744 3.187 5.358.536.909.427.252V96.69z"/><path fill="#fff" d="m75.424 94.164-3.662-6.165-1.005-1.69-3.217-5.412-.932-.541v3.963l.102.162.535.908 3.512 5.918.704 1.203 3.963 2.291.517.3h.036zm5.743 3.343-.559-.95-.523-.878-2.592-4.372-.547-.908-1.005-1.708-.517-.884-2.153-3.608-1.804-1.035 3.692 6.189.782 1.335 3.428 5.773.535.914.18.102.524.301 1.1.631zM68.01 89.9l-1.401-2.352v1.69l.415.698 1.515.878zm15.696 4.991-.535-.914-2.562-4.312-.511-.866-.601-1.004-3.555-2.05H75.9l.042.077 3.609 6.11 1.034 1.745 3.187 5.358.536.908.427.253v-3.507z" opacity=".1"/><path fill="#FAFAFA" d="M66.084 79.435v9.947L85.28 100.46v-9.941zm4.673 12.028-2.749-1.588-1.401-.812v-4.065l.637.367 3.513 2.026zm0-4.673-4.048-2.333-.102-.054V80.33l.932.541 3.218 1.853zm4.666 7.373-4.15-2.405v-4.066l.488.283 3.662 2.11zm0-4.673-.264-.156-3.885-2.231v-4.066l.21.115 1.804 1.034 2.153 1.239zm4.661 7.367-.716-.415-3.427-1.984v-4.066l1.551.897 2.592 1.497zm0-8.076v3.403l-.511-.294-2.628-1.51-1.004-.601v-4.035l3.56 2.05.601.343zm4.673 10.795-.962-.56-2.628-1.503-.56-.33V93.11l3.097 1.804 1.053.601zm0-4.673-1.6-.938-2.562-1.468V88.42l4.15 2.405z"/><path fill="#F7921E" d="m120.071 180 53.77-31.044V57.653l-53.77 31.038z"/><path fill="#fff" d="m120.071 180 53.77-31.044V57.653l-53.77 31.038z" opacity=".45"/><path fill="#F7921E" d="m130.281 168.382-3.535 2.044-.006 2.045 3.541-2.045z" opacity=".4"/><path fill="#F7921E" d="m132.116 164.851-3.542 2.044v2.044l3.542-2.044z" opacity=".2"/><path fill="#F7921E" d="M128.062 167.316v1.804l-3.319 1.918v-1.804zm.108-.192-3.535 2.044v2.044l3.541-2.044v-2.044zM148.246 139.677l-3.542 2.038v2.044l3.542-2.044z" opacity=".4"/><path fill="#F7921E" d="m152.37 137.3-3.541 2.045v2.044l3.541-2.044z" opacity=".2"/><path fill="#F7921E" d="M150.176 136.074v1.803l-3.325 1.918v-1.803zm.108-.187-3.541 2.044v2.045l3.541-2.045zM141.245 157.965l-3.541 2.044v2.045l3.541-2.045zM128.971 148.746l-3.541 2.038v2.05l3.541-2.05z" opacity=".4"/><path fill="#F7921E" d="m145.37 155.589-3.541 2.044v2.045l3.541-2.045zM131.196 150.225l-3.541 2.044v2.038l3.541-2.038z" opacity=".2"/><path fill="#F7921E" d="M143.175 154.364v1.803l-3.325 1.918v-1.803zm.108-.187-3.541 2.044v2.045l3.541-2.045zM129.193 134.86l-3.541 2.044v2.044l3.541-2.044zM147.144 123.529l-3.541 2.045v2.044l3.541-2.044z" opacity=".4"/><path fill="#F7921E" d="m127.064 138.593-3.541 2.044v2.045l3.541-2.045z" opacity=".2"/><path fill="#F7921E" d="M129.084 140.224v1.804l-3.324 1.918v-1.804zm.109-.192-3.542 2.044v2.044l3.542-2.044zM152.425 112.837l-3.541 2.044v2.044l3.541-2.044z" opacity=".4"/><path fill="#F7921E" d="m154.254 109.301-3.542 2.044v2.044l3.542-2.044z" opacity=".2"/><path fill="#F7921E" d="M150.206 111.772v1.804l-3.301 1.905v-1.803l3.325-1.918m.108-.193-3.541 2.045v2.044l3.541-2.044v-2.045M164.97 124.113l-3.542 2.045v2.044l3.542-2.044z" opacity=".4"/><path fill="#F7921E" d="m166.798 120.576-3.541 2.045v2.044l3.541-2.044z" opacity=".2"/><path fill="#F7921E" d="M162.75 123.03v1.803l-3.325 1.918v-1.803zm.108-.187-3.541 2.044v2.045l3.541-2.045zM128.676 91.344l-3.535 2.044v2.044l3.535-2.044z" opacity=".4"/><path fill="#F7921E" d="m132.807 88.968-3.541 2.044v2.045l3.541-2.044z" opacity=".2"/><path fill="#F7921E" d="M130.606 87.748v1.803l-3.319 1.918v-1.804zm.114-.193-3.541 2.044v2.044l3.541-2.044v-2.05zM165.883 108.939l-3.535 2.044v2.044l3.535-2.044zM151.114 93.195l-3.541 2.044v2.044l3.541-2.044z" opacity=".4"/><path fill="#F7921E" d="m170.015 106.564-3.541 2.045v2.044l3.541-2.044zM151.366 121.056l-3.542 2.044v2.045l3.542-2.045zM153.339 94.676l-3.541 2.044v2.044l3.541-2.044z" opacity=".2"/><path fill="#F7921E" d="M167.815 105.344v1.803l-3.319 1.918v-1.803zm.114-.193-3.541 2.045v2.044l3.541-2.044zM134.473 104.25l-3.541 2.044v2.044l3.541-2.044z" opacity=".4"/><path fill="#F7921E" d="m138.599 101.873-3.542 2.044v2.044l3.542-2.044z" opacity=".2"/><path fill="#F7921E" d="M136.404 100.653v1.804l-3.331 1.93v-1.804l3.325-1.918m.108-.186-3.541 2.038v2.044l3.541-2.044zM151.336 79.316l-3.541 2.038V83.4l3.541-2.045zM167.224 71.419l-3.541 2.044v2.044l3.541-2.044zM163.37 145.473l-3.541 2.045v2.044l3.541-2.044z" opacity=".4"/><path fill="#F7921E" d="m167.501 143.098-3.541 2.044v2.045l3.541-2.045z" opacity=".2"/><path fill="#F7921E" d="M165.3 141.877v1.804l-3.319 1.917v-1.803zm.108-.193-3.535 2.045v2.044l3.541-2.044v-2.057zM132.591 119.266l-3.541 2.045v2.044l3.541-2.044z" opacity=".4"/><path fill="#F7921E" d="m136.723 116.896-3.542 2.039v2.05l3.542-2.05z" opacity=".2"/><path fill="#F7921E" d="M134.522 115.67v1.803l-3.319 1.918v-1.804zm.108-.187-3.535 2.044v2.045l3.541-2.045v-2.044zM167.538 134.18l-3.542 2.044v2.045l3.542-2.045z" opacity=".4"/><path fill="#F7921E" d="m149.207 83.05-3.541 2.044v2.044l3.541-2.044z" opacity=".2"/><path fill="#F7921E" d="M151.228 84.674v1.804l-3.325 1.924v-1.804l3.325-1.918m.108-.186-3.541 2.044v2.044l3.541-2.044z" opacity=".4"/><path fill="#F7921E" d="M147.218 108.976v9.334l.427-.247 2.616-1.503.006-.006 1.1-.632.524-.306.174-.103 3.927-2.261.006-.012.03-.012.523-.306 3.964-2.286.186-.114.517-.295 2.207-1.275 1.522-.878h.006l.415-.24v-9.34l-.938.547-3.212 1.853-.517.294-.211.121-.006.006-1.786 1.034-2.147 1.239-.475.271-.048.024-3.554 2.056-.595.343-.512.295z"/><path fill="#000" d="M147.218 108.975v9.334l.427-.247 2.616-1.503.006-.006 1.1-.632.524-.306.174-.102 3.927-2.262.006-.012.03-.012.523-.306 3.964-2.286.186-.114.517-.295 2.207-1.275 1.522-.878h.006l.415-.24v-9.34l-.938.547-3.212 1.853-.517.294-.211.121-.006.006-1.786 1.034-2.147 1.239-.475.271-.048.024-3.554 2.056-.595.343-.512.295z" opacity=".05"/><path fill="#F7921E" d="M155.998 113.24h.03l.523-.306 3.964-2.286.703-1.203 3.512-5.917.536-.914.102-.163v-3.957l-.938.547-3.212 5.413-1.004 1.69-3.687 6.164zm-5.731 3.314 1.1-.632.524-.306.174-.103.541-.908 3.422-5.779.788-1.329 3.668-6.182-1.804 1.034-2.147 3.608-.523.878-1.004 1.696-.541.914-2.592 4.367-.524.878-.559.95zm13.158-7.602 1.522-.878.415-.703v-1.69l-1.401 2.357zm-16.237 5.858v3.5l.427-.247.535-.914 3.187-5.358 1.035-1.744 3.608-6.11.048-.078h-.048l-3.554 2.056-.602 1.005-.511.866-2.562 4.312-.535.908z"/><path fill="#fff" d="M155.998 113.239h.03l.523-.306 3.963-2.286.704-1.203 3.512-5.917.535-.914.103-.163v-3.957l-.939.547-3.211 5.413-1.004 1.69-3.687 6.164zm-5.731 3.314 1.1-.632.523-.306.175-.102.541-.909 3.422-5.779.788-1.329 3.668-6.182-1.804 1.034-2.147 3.608-.523.878-1.004 1.696-.542.914-2.592 4.367-.523.878-.559.95zm13.158-7.602 1.522-.878.415-.703v-1.69l-1.402 2.357zm-16.237 5.858v3.5l.426-.247.536-.914 3.187-5.358 1.034-1.744 3.609-6.11.048-.078h-.048l-3.554 2.056-.602 1.005-.511.866-2.562 4.312-.535.908z" opacity=".1"/><path fill="#FAFAFA" d="M146.695 108.669v9.947l19.19-11.084v-9.94zm14.523-3.115 3.512-2.021.638-.367v4.066l-1.401.805-2.749 1.594zm0-4.661 3.212-1.852.938-.548v4.09l-.102.054-4.048 2.351zm-4.691 7.355 3.663-2.105.487-.283v4.066l-4.15 2.405zm0-4.661 2.147-1.239 1.804-1.034.211-.12v4.071l-3.885 2.237-.265.157zm-4.66 7.355 2.592-1.491 1.545-.896v4.065l-3.422 1.985-.715.409zm0-4.661.601-.342 3.554-2.057v4.071l-1.004.602-2.622 1.509-.511.301v-3.404zm-4.661 7.355 1.052-.601 3.097-1.804v4.071l-.559.325-2.628 1.503-.962.56zm0-4.66 4.149-2.406v4.071l-2.562 1.474-1.587.92z"/><path fill="#F7921E" d="M128.544 119.753v9.339l.427-.252 2.616-1.504.012-.006 1.095-.631.523-.301.181-.102 3.921-2.268.006-.006.036-.018.517-.3 3.963-2.292.187-.108.517-.294 2.213-1.281 1.515-.879h.006l.415-.24v-9.334l-.932.542-3.217 1.852-.517.301-.205.114-.012.006-1.78 1.04-2.153 1.233-.475.277-.042.024-3.56 2.051-.59.342-.517.295z"/><path fill="#000" d="M128.544 119.752v9.339l.427-.252 2.616-1.504.012-.006 1.095-.631.523-.301.181-.102 3.921-2.267.006-.006.036-.018.517-.301 3.963-2.291.187-.109.517-.294 2.213-1.281 1.515-.878h.006l.415-.241v-9.333l-.932.541-3.217 1.852-.517.301-.205.114-.012.006-1.78 1.041-2.153 1.232-.475.277-.042.024-3.56 2.051-.59.343-.517.294z" opacity=".05"/><path fill="#F7921E" d="M137.324 124.022h.036l.518-.3 3.963-2.292.703-1.202 3.513-5.918.535-.908.102-.162v-3.964l-.932.542-3.218 5.412-1.004 1.69-3.656 6.164zm-5.725 3.308 1.095-.601.523-.301.18-.102.536-.914 3.427-5.774.782-1.335 3.669-6.182-1.804 1.034-2.153 3.609-.518.884-1.004 1.696-.547.908-2.592 4.372-.523.878-.56.95zm13.159-7.601 1.515-.879.415-.697v-1.69l-1.395 2.357zm-16.238 5.857v3.506l.427-.252.541-.908 3.182-5.359 1.034-1.744 3.608-6.11.042-.078h-.042l-3.56 2.051-.601 1.004-.517.866-2.562 4.312-.536.914z"/><path fill="#fff" d="M137.324 124.022h.036l.517-.301 3.964-2.291.703-1.203 3.512-5.918.536-.908.102-.162v-3.963l-.932.541-3.218 5.412-1.004 1.69-3.657 6.165zm-5.725 3.307 1.094-.601.524-.301.18-.102.535-.914 3.428-5.773.782-1.335 3.669-6.183-1.805 1.035-2.153 3.608-.517.884-1.004 1.696-.547.908-2.592 4.372-.524.878-.559.95zm13.158-7.601 1.516-.878.415-.698v-1.69l-1.395 2.358zm-16.237 5.857v3.506l.427-.252.541-.908 3.181-5.359 1.035-1.744 3.608-6.11.042-.078h-.042l-3.56 2.051-.602 1.004-.517.866-2.562 4.312-.535.914z" opacity=".1"/><path fill="#FAFAFA" d="M128.021 119.452v9.941l19.197-11.078v-9.947zm14.524-3.115 3.512-2.027.638-.367v4.066l-1.402.812-2.748 1.587zm0-4.667 3.218-1.87.932-.542v4.072l-.103.054-4.047 2.333zm-4.661 7.361 3.663-2.111.487-.282v4.065l-4.15 2.406zm0-4.667 2.153-1.239 1.804-1.034.205-.114v4.071l-3.885 2.231-.265.157zm-4.66 7.361 2.592-1.497 1.551-.896v4.065l-3.428 1.985-.715.415zm0-4.666.601-.343 3.56-2.051v4.071l-1.004.602-2.628 1.509-.511.295v-4.065zm-4.667 7.361 1.052-.602 3.097-1.804v4.071l-.559.331-2.622 1.504-.968.559zm0-4.667 4.149-2.406v4.072l-2.562 1.467-1.587.92z"/><path fill="#F7921E" d="M147.218 93.917v9.34l.427-.253 2.616-1.503.006-.006 1.1-.632.524-.3.174-.103 3.927-2.267.006-.006.03-.018.523-.3 3.964-2.292.186-.108.517-.295 2.207-1.275 1.522-.884h.006l.415-.24V83.44l-.938.541-3.212 1.853-.517.3-.211.114-.006.006-1.786 1.035-2.147 1.239-.475.276-.048.024-3.554 2.051-.595.343-.512.3z"/><path fill="#000" d="M147.218 93.917v9.339l.427-.252 2.616-1.504.006-.006 1.1-.631.524-.301.174-.102 3.927-2.267.006-.006.03-.018.523-.301 3.964-2.291.186-.108.517-.295 2.207-1.275 1.522-.884h.006l.415-.24V83.44l-.938.54-3.212 1.853-.517.3-.211.115-.006.006-1.786 1.035-2.147 1.238-.475.277-.048.024-3.554 2.05-.595.344-.512.3z" opacity=".05"/><path fill="#F7921E" d="M155.998 98.187h.03l.523-.3 3.964-2.292.703-1.203 3.512-5.917.536-.908.102-.163v-3.963l-.938.541-3.212 5.413-1.004 1.69-3.687 6.164zm-5.731 3.308 1.1-.632.524-.3.174-.103.541-.914 3.422-5.773.788-1.335 3.668-6.183-1.804 1.04-2.147 3.61-.523.883-1.004 1.696-.541.908-2.592 4.372-.524.878-.559.951zm13.158-7.602 1.522-.878.415-.698v-1.69l-1.395 2.334zm-16.237 5.858v3.506l.427-.253.535-.908 3.187-5.358 1.035-1.744 3.608-6.11.048-.079h-.048l-3.554 2.051-.602 1.004-.511.866-2.562 4.312-.535.915z"/><path fill="#fff" d="M155.998 98.187h.03l.523-.3 3.963-2.292.704-1.203 3.512-5.918.535-.908.103-.162V83.44l-.939.54-3.211 5.413-1.004 1.69-3.687 6.165zm-5.731 3.307 1.1-.631.523-.301.175-.102.541-.914 3.422-5.773.788-1.335 3.668-6.183-1.804 1.04-2.147 3.609-.523.884-1.004 1.696-.542.908-2.592 4.372-.523.878-.559.95zm13.158-7.601 1.522-.878.415-.698v-1.69l-1.396 2.334zm-16.237 5.857v3.506l.426-.252.536-.908 3.187-5.359 1.034-1.744 3.609-6.11.048-.078h-.048l-3.554 2.05-.602 1.005-.511.866-2.562 4.312-.535.914z" opacity=".1"/><path fill="#FAFAFA" d="M146.695 93.616v9.941l19.19-11.077v-9.947zm14.523-3.115 3.512-2.026.638-.367v4.065l-1.401.788-2.749 1.588zm0-4.667 3.212-1.852.938-.541v4.071l-.102.054-4.048 2.334zm-4.691 7.361 3.663-2.11.487-.283v4.065l-4.15 2.406zm0-4.666 2.147-1.233 1.804-1.04.211-.115v4.072l-3.885 2.23-.265.157zm-4.66 7.36 2.592-1.497 1.545-.896v4.066l-3.422 1.984-.715.415zm0-4.666.601-.343 3.554-2.05v4.07l-1.004.602-2.622 1.51-.511.294v-3.404zm-4.661 7.36 1.052-.6 3.097-1.805v4.078l-.559.324-2.628 1.504-.962.559zm0-4.666 4.149-2.406v4.072l-2.562 1.467-1.587.92z"/><path fill="#F7921E" d="M128.544 104.7v9.333l.427-.246 2.616-1.504.012-.006 1.095-.631.523-.307.181-.102 3.921-2.262.006-.012.036-.012.517-.306 3.963-2.286.187-.108.517-.301 2.213-1.275 1.515-.878h.006l.415-.24v-9.34l-.932.548-3.217 1.852-.517.294-.205.12-.012.007-1.78 1.034-2.153 1.24-.475.27-.042.024-3.56 2.057-.59.342-.517.295z"/><path fill="#000" d="M128.544 104.699v9.334l.427-.247 2.616-1.503.012-.006 1.095-.632.523-.306.18-.103 3.921-2.261.006-.012.037-.012.517-.307 3.963-2.285.186-.108.518-.301 2.213-1.275 1.515-.878h.006l.415-.24v-9.34l-.932.547-3.217 1.853-.518.294-.204.12-.012.007-1.78 1.034-2.153 1.239-.475.27-.042.025-3.561 2.056-.589.343-.517.295z" opacity=".05"/><path fill="#F7921E" d="M137.324 108.965h.036l.518-.307 3.963-2.285.703-1.203 3.513-5.918.535-.914.102-.162v-3.964l-.932.548-3.218 5.412-1.004 1.69-3.656 6.17zm-5.725 3.313 1.095-.631.523-.307.18-.102.536-.908 3.427-5.78.782-1.329 3.669-6.182-1.804 1.034-2.153 3.609-.518.878-1.004 1.696-.547.914-2.592 4.366-.523.878-.56.95zm13.159-7.601 1.545-.89.415-.704v-1.702l-1.425 2.406zm-16.238 5.857v3.476l.427-.246.541-.914 3.182-5.353 1.034-1.744 3.608-6.116.042-.078h-.042l-3.56 2.057-.601 1.004-.517.866-2.562 4.312-.536.908z"/><path fill="#fff" d="M137.324 108.964h.036l.517-.307 3.964-2.285.703-1.203 3.512-5.918.536-.914.102-.162V94.21l-.932.548-3.218 5.412-1.004 1.69-3.657 6.17zm-5.725 3.313 1.094-.631.524-.307.18-.102.535-.908 3.428-5.78.782-1.329 3.669-6.182-1.805 1.034-2.153 3.609-.517.878-1.004 1.696-.547.914-2.592 4.366-.524.878-.559.95zm13.158-7.601 1.546-.89.415-.704v-1.702l-1.425 2.406zm-16.237 5.857v3.476l.427-.246.541-.914 3.181-5.353 1.035-1.744 3.608-6.116.042-.078h-.042l-3.56 2.057-.602 1.004-.517.866-2.562 4.312-.535.908z" opacity=".1"/><path fill="#FAFAFA" d="M128.021 104.387v9.947l19.197-11.084v-9.935zm14.524-3.115 3.512-2.02.638-.368v4.066l-1.402.836-2.748 1.593zm0-4.66 3.218-1.847.932-.547v4.07l-.103.055-4.047 2.339zm-4.661 7.36 3.663-2.105.487-.282v4.065l-4.15 2.406zm0-4.66 2.153-1.24 1.804-1.034.205-.12v4.071l-3.885 2.237-.265.157zm-4.66 7.354 2.592-1.491 1.551-.896v4.065l-3.428 1.985-.715.415zm0-4.66.601-.343 3.56-2.057v4.071l-1.004.602-2.628 1.515-.511.295v-4.108zm-4.667 7.355 1.052-.602 3.097-1.804v4.071l-.559.325-2.622 1.504-.968.565zm0-4.661 4.149-2.406v4.072l-2.562 1.473-1.587.92z"/><path fill="#455A64" d="M129.561 174.521v-32.866l34.79-20.093v32.872z"/><path fill="#F7921E" d="M173.841 57.653 94.771 12 41 43.045l79.071 45.646z"/><path fill="#fff" d="M173.841 57.652 94.771 12 41 43.044l79.071 45.645z" opacity=".8"/><path fill="#F7921E" d="M53.653 46.695 94.77 22.96l66.418 38.344-41.117 23.743z"/><path fill="#000" d="M53.653 46.695 94.77 22.96l66.418 38.344-41.117 23.743z" opacity=".2"/><path fill="#F7921E" d="M94.77 15.652v7.307l66.418 38.344 6.327-3.65z"/><path fill="#fff" d="M94.77 15.651v7.307l66.418 38.345 6.327-3.65z" opacity=".6"/><path fill="#F7921E" d="M94.77 15.652 47.328 43.045l6.327 3.65L94.77 22.96z"/><path fill="#fff" d="M94.77 15.651 47.326 43.045l6.327 3.65L94.77 22.958z" opacity=".45"/><path fill="#455A64" d="M120.089 83.627q-.076 0-.144-.036L44.17 39.76a.28.28 0 0 1-.145-.252.3.3 0 0 1 .145-.253l50.619-29.215a.28.28 0 0 1 .288 0l75.908 43.727a.287.287 0 0 1 .144.252.3.3 0 0 1-.039.146.3.3 0 0 1-.105.107L120.203 83.59a.3.3 0 0 1-.114.036M44.915 39.509 120.09 83l50.192-28.98L94.963 10.63z"/><path fill="#455A64" d="M120.089 86.82a.3.3 0 0 1-.208-.082.287.287 0 0 1-.087-.206v-3.193a.295.295 0 0 1 .407-.272.3.3 0 0 1 .156.16.3.3 0 0 1 .02.112v3.192a.283.283 0 0 1-.288.289M124.702 84.155a.294.294 0 0 1-.288-.289v-3.192a.298.298 0 0 1 .513-.213.3.3 0 0 1 .088.213v3.192a.3.3 0 0 1-.095.211.29.29 0 0 1-.218.078M129.321 81.49a.287.287 0 0 1-.289-.294v-3.193a.29.29 0 0 1 .495-.204.3.3 0 0 1 .088.204v3.193a.295.295 0 0 1-.294.294M133.939 78.82a.288.288 0 0 1-.264-.295V75.34a.286.286 0 0 1 .294-.288.3.3 0 0 1 .206.082q.04.042.063.095a.3.3 0 0 1 .02.111v3.187a.28.28 0 0 1-.091.222.28.28 0 0 1-.228.073M138.552 76.156a.28.28 0 0 1-.206-.087.287.287 0 0 1-.083-.208v-3.186a.288.288 0 0 1 .402-.272.3.3 0 0 1 .181.272v3.186a.29.29 0 0 1-.181.272.3.3 0 0 1-.113.023M143.17 73.492a.294.294 0 0 1-.294-.294V70.01a.295.295 0 0 1 .294-.295.287.287 0 0 1 .289.295v3.187a.287.287 0 0 1-.289.294M147.789 70.822a.294.294 0 0 1-.294-.288v-3.187a.3.3 0 1 1 .601 0v3.187a.3.3 0 0 1-.093.209.29.29 0 0 1-.214.08M152.402 68.158a.3.3 0 0 1-.206-.087.288.288 0 0 1-.083-.208v-3.168a.29.29 0 0 1 .495-.205.3.3 0 0 1 .089.205v3.186a.296.296 0 0 1-.295.277M157.02 65.488a.29.29 0 0 1-.272-.177.3.3 0 0 1-.022-.112v-3.186a.286.286 0 0 1 .294-.29.285.285 0 0 1 .269.178.3.3 0 0 1 .02.111V65.2a.283.283 0 0 1-.289.289M161.633 62.823a.294.294 0 0 1-.289-.294v-3.18a.3.3 0 0 1 .301-.301.3.3 0 0 1 .3.3v3.18a.295.295 0 0 1-.312.295M166.251 60.16a.293.293 0 0 1-.294-.295v-3.18a.3.3 0 1 1 .601 0v3.198a.293.293 0 0 1-.307.277M170.87 57.477a.29.29 0 0 1-.272-.176.3.3 0 0 1-.023-.112v-3.18a.294.294 0 0 1 .407-.272.29.29 0 0 1 .177.271v3.18a.284.284 0 0 1-.289.29M44.35 42.978a.295.295 0 0 1-.295-.295v-3.175a.294.294 0 0 1 .498-.204.3.3 0 0 1 .085.204v3.175a.29.29 0 0 1-.289.294M48.95 40.32a.295.295 0 0 1-.295-.295v-3.168a.294.294 0 0 1 .501-.208.3.3 0 0 1 .083.208v3.18a.29.29 0 0 1-.29.283M53.55 37.668a.295.295 0 0 1-.294-.295v-3.175a.29.29 0 0 1 .294-.288.283.283 0 0 1 .29.288v3.175a.29.29 0 0 1-.29.294M58.152 35.01a.29.29 0 0 1-.289-.295V31.54a.289.289 0 0 1 .495-.204.3.3 0 0 1 .088.204v3.175a.295.295 0 0 1-.294.294M62.752 32.352a.283.283 0 0 1-.288-.29v-3.174a.29.29 0 0 1 .288-.294.295.295 0 0 1 .295.294v3.175a.29.29 0 0 1-.295.288M67.353 29.699a.287.287 0 0 1-.289-.295v-3.198a.283.283 0 0 1 .289-.289.287.287 0 0 1 .294.289v3.174a.293.293 0 0 1-.294.319M71.954 27.04a.29.29 0 0 1-.289-.288v-3.18a.3.3 0 0 1 .602 0v3.18a.287.287 0 0 1-.313.288M76.543 24.401a.294.294 0 0 1-.29-.294v-3.175a.3.3 0 0 1 .602 0v3.175a.294.294 0 0 1-.312.294M81.16 21.731a.29.29 0 0 1-.294-.288v-3.181a.3.3 0 0 1 .602 0v3.18a.29.29 0 0 1-.191.273.3.3 0 0 1-.116.016M85.761 19.079a.294.294 0 0 1-.294-.295V15.61a.295.295 0 0 1 .406-.272.29.29 0 0 1 .177.272v3.174a.29.29 0 0 1-.289.295M90.374 16.42a.295.295 0 0 1-.295-.288v-3.156a.295.295 0 0 1 .407-.272.29.29 0 0 1 .176.272v3.18a.29.29 0 0 1-.288.265M94.963 13.768a.295.295 0 0 1-.295-.294v-3.18a.29.29 0 0 1 .295-.29.28.28 0 0 1 .268.178.3.3 0 0 1 .02.111v3.18a.29.29 0 0 1-.288.295"/><path fill="#455A64" d="M120.089 86.82a.3.3 0 0 1-.208-.082.287.287 0 0 1-.087-.206v-3.193a.295.295 0 0 1 .407-.272.3.3 0 0 1 .156.16.3.3 0 0 1 .02.112v3.192a.283.283 0 0 1-.288.289M115.356 84.083a.295.295 0 0 1-.295-.295v-3.193a.3.3 0 0 1 .087-.206.3.3 0 0 1 .208-.082.28.28 0 0 1 .268.177.3.3 0 0 1 .02.111v3.193a.287.287 0 0 1-.288.294M110.622 81.34a.294.294 0 0 1-.294-.288v-3.193a.3.3 0 1 1 .601 0v3.193a.3.3 0 0 1-.093.209.29.29 0 0 1-.214.08M105.884 78.598a.287.287 0 0 1-.289-.288v-3.193a.3.3 0 0 1 .301-.3.3.3 0 0 1 .3.3v3.193a.293.293 0 0 1-.092.213.29.29 0 0 1-.22.076M101.151 75.862a.3.3 0 0 1-.206-.087.28.28 0 0 1-.082-.208v-3.186a.287.287 0 0 1 .288-.295.295.295 0 0 1 .295.295v3.186a.295.295 0 0 1-.295.295M96.418 73.115a.29.29 0 0 1-.289-.29v-3.192a.29.29 0 0 1 .289-.288.295.295 0 0 1 .295.288v3.193a.294.294 0 0 1-.295.289M91.685 70.377a.28.28 0 0 1-.268-.177.3.3 0 0 1-.02-.111v-3.187a.29.29 0 0 1 .496-.208c.056.055.087.13.087.208v3.205a.29.29 0 0 1-.295.27M86.952 67.64a.294.294 0 0 1-.294-.294v-3.18a.295.295 0 0 1 .406-.273.29.29 0 0 1 .177.272v3.181a.29.29 0 0 1-.289.295M82.22 64.898a.295.295 0 0 1-.295-.295v-3.18a.29.29 0 0 1 .294-.29.28.28 0 0 1 .289.29v3.18a.29.29 0 0 1-.289.295M77.487 62.157a.29.29 0 0 1-.295-.289v-3.187a.3.3 0 0 1 .601 0v3.181a.29.29 0 0 1-.306.295M72.753 59.42a.295.295 0 0 1-.294-.294v-3.181a.301.301 0 0 1 .6 0v3.18a.293.293 0 0 1-.306.295M68.014 56.677a.294.294 0 0 1-.288-.295v-3.174a.3.3 0 0 1 .601 0v3.174a.3.3 0 0 1-.194.278.3.3 0 0 1-.119.017M63.312 53.935a.283.283 0 0 1-.29-.288v-3.18a.283.283 0 0 1 .29-.29.29.29 0 0 1 .294.29v3.18a.29.29 0 0 1-.182.268.3.3 0 0 1-.112.02M58.549 51.2a.29.29 0 0 1-.289-.295V47.73a.287.287 0 0 1 .288-.294.295.295 0 0 1 .295.294v3.175a.294.294 0 0 1-.295.294M53.816 48.456a.294.294 0 0 1-.295-.294v-3.175a.3.3 0 1 1 .601 0v3.175a.3.3 0 0 1-.19.275.3.3 0 0 1-.117.02M49.082 45.715a.29.29 0 0 1-.294-.289v-3.174a.295.295 0 0 1 .406-.272.28.28 0 0 1 .157.16.3.3 0 0 1 .02.112v3.198a.283.283 0 0 1-.289.265M44.35 42.978a.295.295 0 0 1-.295-.295v-3.175a.294.294 0 0 1 .498-.204.3.3 0 0 1 .085.204v3.175a.29.29 0 0 1-.289.294M170.87 57.477a.29.29 0 0 1-.272-.176.3.3 0 0 1-.023-.112v-3.18a.294.294 0 0 1 .407-.272.29.29 0 0 1 .177.271v3.18a.284.284 0 0 1-.289.29M166.15 54.76a.296.296 0 0 1-.295-.295v-3.18a.297.297 0 0 1 .295-.29.29.29 0 0 1 .288.29v3.186a.29.29 0 0 1-.288.289M161.381 52.022a.28.28 0 0 1-.208-.082.288.288 0 0 1-.087-.206v-3.18q0-.06.023-.114a.29.29 0 0 1 .159-.159.3.3 0 0 1 .225 0 .3.3 0 0 1 .156.16.3.3 0 0 1 .02.112v3.18a.283.283 0 0 1-.288.29M156.635 49.292a.3.3 0 0 1-.206-.087.28.28 0 0 1-.082-.207v-3.181a.289.289 0 0 1 .495-.205.3.3 0 0 1 .088.205v3.18a.295.295 0 0 1-.295.295M151.891 46.563a.28.28 0 0 1-.207-.087.287.287 0 0 1-.082-.208v-3.18a.283.283 0 0 1 .289-.289.29.29 0 0 1 .272.177.3.3 0 0 1 .022.112v3.18a.296.296 0 0 1-.294.295M147.146 43.826a.287.287 0 0 1-.289-.289v-3.18a.287.287 0 0 1 .289-.295.294.294 0 0 1 .294.295v3.18a.29.29 0 0 1-.294.289M142.4 41.095a.296.296 0 0 1-.289-.294v-3.169a.3.3 0 0 1 .301-.3.3.3 0 0 1 .301.3v3.18a.297.297 0 0 1-.313.283M137.662 38.358a.3.3 0 0 1-.208-.082.287.287 0 0 1-.087-.206v-3.18a.3.3 0 0 1 .301-.301.3.3 0 0 1 .3.3v3.18a.28.28 0 0 1-.09.212.3.3 0 0 1-.216.077M132.916 35.629a.3.3 0 0 1-.272-.182.3.3 0 0 1-.022-.113v-3.18a.29.29 0 0 1 .294-.29.287.287 0 0 1 .289.29v3.18a.287.287 0 0 1-.289.294M128.172 32.898a.294.294 0 0 1-.295-.295v-3.18q0-.058.022-.112a.287.287 0 0 1 .273-.177.28.28 0 0 1 .268.177.3.3 0 0 1 .02.112v3.18a.287.287 0 0 1-.288.295M123.451 30.162a.287.287 0 0 1-.289-.289v-3.18a.287.287 0 0 1 .289-.295.293.293 0 0 1 .294.295v3.18a.29.29 0 0 1-.294.289M118.682 27.408a.29.29 0 0 1-.207-.087.287.287 0 0 1-.082-.208v-3.18a.283.283 0 0 1 .289-.289.29.29 0 0 1 .272.177.3.3 0 0 1 .022.112v3.18a.295.295 0 0 1-.294.295M113.937 24.696a.29.29 0 0 1-.267-.178.3.3 0 0 1-.022-.11v-3.181a.3.3 0 0 1 .301-.3.3.3 0 0 1 .3.3V24.4a.28.28 0 0 1-.09.218.3.3 0 0 1-.222.077M109.192 21.995a.296.296 0 0 1-.289-.294v-3.18a.3.3 0 0 1 .301-.302.3.3 0 0 1 .3.301v3.18a.294.294 0 0 1-.312.295M104.453 19.229a.29.29 0 0 1-.272-.177.3.3 0 0 1-.023-.112v-3.18a.3.3 0 0 1 .301-.301.3.3 0 0 1 .301.3v3.18a.28.28 0 0 1-.091.212.3.3 0 0 1-.216.078M99.707 16.498a.295.295 0 0 1-.294-.289v-3.18a.295.295 0 0 1 .406-.272.29.29 0 0 1 .177.272v3.18a.29.29 0 0 1-.289.29M94.963 13.768a.295.295 0 0 1-.295-.294v-3.18a.29.29 0 0 1 .295-.29.28.28 0 0 1 .268.178.3.3 0 0 1 .02.111v3.18a.29.29 0 0 1-.288.295"/><path fill="#E0E0E0" d="m191.932 124.139 14.771 8.533c1.055.606 1.899 2.091 1.899 3.302v29.162l1.254.726V135.86c0-1.709-1.212-3.798-2.691-4.661l-15.302-8.839c-1.477-.844-2.691-.154-2.691 1.555v29.999l1.266.731v-29.65c.009-.943.678-1.329 1.494-.856"/><path fill="#455A64" d="M180.535 189.306c0-1.537 1.08-3.406 2.412-4.174.698-.405 1.325-.422 1.766-.127l1.625.929-3.457 5.876-1.612-.928c-.449-.249-.734-.791-.734-1.576"/><path fill="#37474F" d="M184.635 186.105c-1.331.768-2.412 2.638-2.412 4.174s1.081 2.161 2.412 1.392c1.332-.768 2.414-2.637 2.414-4.175 0-1.539-1.082-2.161-2.414-1.391"/><path fill="#263238" d="M185.452 188.416c0-.599-.367-.875-.816-.616-.45.26-.817.958-.817 1.56 0 .601.365.877.817.616.451-.262.816-.958.816-1.56"/><path fill="#F0F0F0" d="M181.81 183.54s0 2.743 1.313 3.724c.247.183.508.31.662.439.336.278.114.789-.293 1.008-.591.317-3.809-.54-5.172-3.165z"/><path fill="#FAFAFA" d="M183.059 184.262s0 2.743 1.313 3.725c.247.183.508.31.664.438.334.279.112.792-.295 1.009-.591.317-3.809-.54-5.172-3.165z"/><path fill="#263238" d="M184.636 188.621a.5.5 0 0 0-.232.401c0 .148.103.211.232.133a.5.5 0 0 0 .23-.401c0-.145-.104-.207-.23-.133"/><path fill="#455A64" d="M206.71 174.194c0-1.538 1.081-3.408 2.412-4.176.699-.403 1.325-.422 1.766-.124l1.625.928-3.456 5.875-1.612-.927c-.45-.249-.735-.793-.735-1.576"/><path fill="#37474F" d="M210.809 170.992c-1.331.768-2.412 2.637-2.412 4.175 0 1.539 1.081 2.161 2.412 1.393 1.332-.768 2.406-2.637 2.406-4.176 0-1.538-1.074-2.161-2.406-1.392"/><path fill="#263238" d="M211.626 173.304c0-.601-.367-.877-.816-.616-.45.262-.817.958-.817 1.56 0 .601.365.875.817.616.451-.26.816-.958.816-1.56"/><path fill="#F0F0F0" d="M207.985 168.437s0 2.743 1.312 3.724c.247.183.509.31.663.439.335.278.114.791-.293 1.008-.591.317-3.809-.54-5.172-3.165z"/><path fill="#FAFAFA" d="M209.233 169.143s0 2.743 1.313 3.724c.247.184.508.311.664.441.334.277.112.79-.295 1.007-.591.316-3.809-.54-5.172-3.165z"/><path fill="#263238" d="M210.81 173.501a.5.5 0 0 0-.232.401c0 .146.103.211.232.133a.525.525 0 0 0 .23-.401c0-.133-.104-.198-.23-.133"/><path fill="#455A64" d="m211.132 166.59-23.211-13.403L150 175.079l23.209 13.406z"/><path fill="#37474F" d="M211.132 166.59v1.458l-37.923 21.894v-1.458z"/><path fill="#263238" d="M150 175.08v1.458l23.209 13.405v-1.458z"/><path fill="#000" d="m207.758 166.654-19.907 11.498-20.304-11.706 19.962-11.469z" opacity=".1"/><path fill="#F7921E" d="m207.081 152.983-18.232-10.544-19.267 11.152 18.231 10.544z"/><path fill="#fff" d="m207.081 152.983-18.232-10.544-19.267 11.152 18.231 10.544z" opacity=".7"/><path fill="#F7921E" d="m187.813 176.879 19.268-11.15v-12.745l-19.268 11.152z"/><path fill="#fff" d="m187.813 176.879 19.268-11.15v-12.745l-19.268 11.152z" opacity=".6"/><path fill="#455A64" d="M189.94 172.657a.34.34 0 0 1-.167-.044.505.505 0 0 1-.211-.458v-1.45l.07.013 1.055-.623v1.507a1.21 1.21 0 0 1-.521.986.46.46 0 0 1-.226.069m-.211-1.751v1.249a.36.36 0 0 0 .12.312.24.24 0 0 0 .119.016.23.23 0 0 0 .111-.041 1.07 1.07 0 0 0 .437-.844v-.11h-.392l-.076-.529zm.542.422h.245v-.933l-.633.371.312.057z"/><path fill="#455A64" d="M190.131 173.728a.08.08 0 0 1-.06-.025.08.08 0 0 1-.025-.06v-1.135q0-.034.025-.06a.08.08 0 0 1 .06-.024.08.08 0 0 1 .059.024.1.1 0 0 1 .025.06v1.135a.08.08 0 0 1-.025.06.08.08 0 0 1-.059.025"/><path fill="#455A64" d="M189.639 174.011a.1.1 0 0 1-.043-.01.1.1 0 0 1-.031-.032.1.1 0 0 1-.011-.031.1.1 0 0 1 .002-.033.1.1 0 0 1 .014-.03.1.1 0 0 1 .025-.022l.987-.57a.1.1 0 0 1 .032-.01.08.08 0 0 1 .062.017.1.1 0 0 1 .022.025q.017.031.008.065a.09.09 0 0 1-.04.051l-.985.57a.1.1 0 0 1-.042.01M193.152 172.059a.2.2 0 0 1-.095-.023.23.23 0 0 1-.079-.092.22.22 0 0 1-.022-.119v-.222a.1.1 0 0 1 .029-.052.1.1 0 0 1 .056-.021.1.1 0 0 1 .057.021.1.1 0 0 1 .029.052v.232c0 .036 0 .053.017.057s.025 0 .055-.014a.51.51 0 0 0 .158-.384v-1.509q0-.035.025-.06a.083.083 0 0 1 .119 0 .08.08 0 0 1 .025.06v1.509a.644.644 0 0 1-.241.529.26.26 0 0 1-.133.036"/><path fill="#455A64" d="M192.258 170.74v-.148a2.4 2.4 0 0 1 1.085-1.88.72.72 0 0 1 1.116.244.73.73 0 0 1 .055.431v.049zm1.593-2.014a.87.87 0 0 0-.422.133 2.243 2.243 0 0 0-.992 1.583l1.9-1.104a.64.64 0 0 0-.262-.552.45.45 0 0 0-.224-.06M196.198 170.319a.08.08 0 0 1-.059-.025.08.08 0 0 1-.025-.059v-2.889a.1.1 0 0 1 .029-.052.1.1 0 0 1 .056-.021q.032 0 .057.021a.1.1 0 0 1 .029.052v2.889a.1.1 0 0 1-.007.033.1.1 0 0 1-.019.027.088.088 0 0 1-.061.024"/><path fill="#455A64" d="M195.952 168.015a.1.1 0 0 1-.034 0 .08.08 0 0 1-.045-.046.1.1 0 0 1-.006-.033q0-.017.007-.032l.302-.699.338.39q.022.028.019.062a.08.08 0 0 1-.029.058.1.1 0 0 1-.062.02.09.09 0 0 1-.057-.03l-.161-.183-.194.449a.1.1 0 0 1-.033.033.1.1 0 0 1-.045.011M196.986 169.872a.084.084 0 0 1-.08-.052.1.1 0 0 1-.007-.032v-2.889a.1.1 0 0 1 .003-.037.1.1 0 0 1 .017-.033.1.1 0 0 1 .03-.022.086.086 0 0 1 .119.055.1.1 0 0 1 .002.037v2.889a.08.08 0 0 1-.024.059.1.1 0 0 1-.06.025"/><path fill="#455A64" d="M196.737 167.557a.1.1 0 0 1-.034 0 .1.1 0 0 1-.027-.019.1.1 0 0 1-.018-.027.1.1 0 0 1-.006-.033q0-.017.007-.033l.308-.696.338.388a.1.1 0 0 1 .016.029.1.1 0 0 1 .004.033.1.1 0 0 1-.029.059.1.1 0 0 1-.029.016.1.1 0 0 1-.033.004.1.1 0 0 1-.058-.029l-.161-.186-.194.452a.1.1 0 0 1-.036.034.1.1 0 0 1-.048.008"/><path fill="#F7921E" d="m187.813 176.878-18.231-10.542v-12.745l18.231 10.544z"/><path fill="#fff" d="m187.813 176.878-18.231-10.542v-12.745l18.231 10.544z" opacity=".5"/><path fill="#37474F" d="m177.235 159.947 1.249.719v-1.937l-1.249-.719z"/><path fill="#455A64" d="m178.484 158.731 19.267-11.152-1.249-.722-19.267 11.152z"/><path fill="#37474F" d="m177.801 157.68 1.247.722.696-.401-1.247-.722z"/><path fill="#FAFAFA" d="m197.811 149.203-5.104 2.94c-.093.054-.068.154.055.225l5.762 3.328a.45.45 0 0 0 .391.032l5.104-2.942c.093-.053.068-.154-.055-.226l-5.773-3.325a.442.442 0 0 0-.38-.032"/><path fill="#E0E0E0" d="M200.38 154.207a.102.102 0 0 0 .09-.053.104.104 0 0 0-.038-.143l-4.785-2.762a.1.1 0 0 0-.076-.004.1.1 0 0 0-.059.047.1.1 0 0 0-.012.075q.009.039.041.063l4.786 2.762a.1.1 0 0 0 .053.015M199.847 154.51a.105.105 0 0 0 .101-.078.105.105 0 0 0-.048-.118l-4.784-2.758a.106.106 0 0 0-.145.038.1.1 0 0 0-.009.081q.012.042.049.064l4.783 2.761a.1.1 0 0 0 .053.01M199.315 154.815a.1.1 0 0 0 .064-.023.1.1 0 0 0 .037-.056.1.1 0 0 0-.004-.067.1.1 0 0 0-.044-.051l-4.784-2.762a.1.1 0 0 0-.08-.01.1.1 0 0 0-.064.049.1.1 0 0 0-.011.081q.012.042.05.064l4.783 2.762a.14.14 0 0 0 .053.013M198.784 155.121a.11.11 0 0 0 .093-.053.1.1 0 0 0 .009-.08.1.1 0 0 0-.049-.065l-4.784-2.76a.1.1 0 0 0-.084-.018.1.1 0 0 0-.04.018.1.1 0 0 0-.029.032.1.1 0 0 0-.014.042.1.1 0 0 0 .005.043.1.1 0 0 0 .021.038q.015.017.036.026l4.783 2.762q.024.015.053.015"/><path fill="#455A64" d="m203.528 152.654-.188-.107-2.178 1.258.186.107zM202.77 152.217l-.322-.185-2.18 1.259.323.184zM202.013 151.779l-.186-.108-2.18 1.26.186.105zM201.445 151.447l-.376-.213-2.18 1.258.376.213zM200.497 150.904l-.186-.107-2.179 1.257.185.108zM199.957 150.587l-.403-.228-2.179 1.259.403.228zM198.985 150.029l-.188-.108-2.177 1.26.185.106zM198.554 149.778l-.093-.053-2.18 1.258.093.055zM199.318 150.236l-.093-.055-2.18 1.258.093.054zM200.852 151.112l-.093-.055-2.179 1.259.092.053zM201.686 151.594l-.093-.054-2.18 1.259.093.053zM202.276 151.948l-.093-.055-2.179 1.26.093.053zM203.105 152.407l-.093-.053-2.18 1.258.093.053zM198.227 149.592l-.188-.108-2.177 1.258.186.107z"/><path fill="#FAFAFA" d="M201.162 164.46v3.197c0 .123.087.173.194.112l4.991-2.882a.44.44 0 0 0 .136-.144.44.44 0 0 0 .056-.19v-3.199c0-.122-.087-.173-.192-.111l-4.991 2.884a.43.43 0 0 0-.194.333"/><path fill="#455A64" d="m206.228 161.699-.16.093v2.906l.16-.093zM205.572 162.08l-.279.162v2.906l.279-.163zM204.916 162.458l-.161.093v2.905l.161-.092zM204.422 162.738l-.322.189v2.908l.322-.192zM203.604 163.216l-.161.092v2.906l.161-.093zM203.133 163.481l-.346.205v2.905l.346-.204zM202.293 163.97l-.16.095v2.906l.16-.093zM201.918 164.183l-.081.047v2.905l.081-.044zM202.593 163.812l-.083.048v2.906l.083-.046zM203.914 163.041l-.08.046v2.906l.08-.047zM204.638 162.624l-.082.046v2.906l.082-.046zM205.156 162.337l-.08.047v2.905l.08-.046zM205.862 161.909l-.08.047v2.905l.08-.046zM201.636 164.35l-.16.093v2.905l.16-.093z"/><path fill="#F7921E" d="m205.349 141.631-15.119-8.745-15.978 9.249 15.119 8.744z"/><path fill="#fff" d="m205.349 141.631-15.119-8.745-15.978 9.249 15.119 8.744z" opacity=".7"/><path fill="#F7921E" d="m189.371 161.447 15.978-9.246v-10.57l-15.978 9.249z"/><path fill="#fff" d="m189.371 161.447 15.978-9.246v-10.57l-15.978 9.249z" opacity=".6"/><path fill="#455A64" d="M191.135 157.946a.27.27 0 0 1-.138-.036.41.41 0 0 1-.175-.38v-1.202l.057.01.875-.516v1.249a1.002 1.002 0 0 1-.432.818.4.4 0 0 1-.187.057m-.175-1.452v1.036a.292.292 0 0 0 .1.259.2.2 0 0 0 .19-.021.89.89 0 0 0 .363-.7v-.091h-.326l-.063-.439zm.45.35h.203v-.773l-.525.307.259.048z"/><path fill="#455A64" d="M191.293 158.834a.07.07 0 0 1-.07-.07v-.942a.07.07 0 0 1 .119-.049.07.07 0 0 1 .021.049v.942a.07.07 0 0 1-.021.049.07.07 0 0 1-.049.021"/><path fill="#455A64" d="M190.885 159.07a.1.1 0 0 1-.036-.009.082.082 0 0 1-.035-.052.1.1 0 0 1 .002-.028.1.1 0 0 1 .012-.024.1.1 0 0 1 .02-.019l.819-.472a.1.1 0 0 1 .026-.009.1.1 0 0 1 .028.002.1.1 0 0 1 .024.012.1.1 0 0 1 .018.021.07.07 0 0 1-.026.096l-.817.473a.1.1 0 0 1-.035.009M193.799 157.45a.2.2 0 0 1-.079-.019.188.188 0 0 1-.084-.175v-.184a.07.07 0 0 1 .024-.043.07.07 0 0 1 .047-.017.073.073 0 0 1 .071.06v.193c0 .029 0 .043.014.047.014.003.021 0 .045-.012a.43.43 0 0 0 .131-.319v-1.251q0-.029.021-.05a.07.07 0 0 1 .049-.02.07.07 0 0 1 .05.02q.02.021.02.05v1.251a.53.53 0 0 1-.199.439.2.2 0 0 1-.11.03"/><path fill="#455A64" d="M193.057 156.356v-.123a2 2 0 0 1 .899-1.559.59.59 0 0 1 .683-.062.593.593 0 0 1 .289.622v.04zm1.321-1.67a.7.7 0 0 0-.35.111 1.86 1.86 0 0 0-.822 1.312l1.575-.915a.53.53 0 0 0-.217-.459.4.4 0 0 0-.186-.049M196.324 156.007a.07.07 0 0 1-.07-.07v-2.395a.1.1 0 0 1 .025-.044.07.07 0 0 1 .046-.017q.026 0 .047.017a.08.08 0 0 1 .024.044v2.395q0 .015-.005.028a.1.1 0 0 1-.016.023l-.023.015a.1.1 0 0 1-.028.004"/><path fill="#455A64" d="M196.121 154.097a.1.1 0 0 1-.028 0 .1.1 0 0 1-.023-.016.1.1 0 0 1-.015-.023.1.1 0 0 1-.005-.027q0-.014.006-.027l.25-.579.28.324a.07.07 0 0 1 .017.051.08.08 0 0 1-.025.048.07.07 0 0 1-.051.016.07.07 0 0 1-.048-.024l-.133-.152-.161.372a.1.1 0 0 1-.027.028.1.1 0 0 1-.037.009M196.978 155.636a.1.1 0 0 1-.027-.005.1.1 0 0 1-.024-.015.1.1 0 0 1-.015-.023.1.1 0 0 1-.006-.027v-2.395a.1.1 0 0 1 .002-.031.1.1 0 0 1 .014-.027.1.1 0 0 1 .025-.019.08.08 0 0 1 .06 0 .1.1 0 0 1 .025.019.1.1 0 0 1 .014.027q.005.015.002.031v2.395a.07.07 0 0 1-.07.07"/><path fill="#455A64" d="M196.771 153.717a.1.1 0 0 1-.028 0 .1.1 0 0 1-.023-.016.1.1 0 0 1-.015-.023.1.1 0 0 1-.005-.027l.006-.027.256-.577.28.322a.1.1 0 0 1 .014.024q.004.013.003.027a.1.1 0 0 1-.007.027.1.1 0 0 1-.017.021.07.07 0 0 1-.051.018.08.08 0 0 1-.049-.025l-.133-.154-.161.375a.07.07 0 0 1-.03.028.1.1 0 0 1-.04.007"/><path fill="#F7921E" d="m189.371 161.447-15.119-8.743v-10.569l15.119 8.744z"/><path fill="#fff" d="m189.371 161.447-15.119-8.743v-10.569l15.119 8.744z" opacity=".5"/><path fill="#37474F" d="m180.598 147.405 1.036.597v-1.606l-1.036-.597z"/><path fill="#455A64" d="m181.634 146.397 15.978-9.248-1.035-.598-15.979 9.248z"/><path fill="#37474F" d="m181.068 145.526 1.034.598.577-.332-1.034-.599z"/><path fill="#FAFAFA" d="m197.662 138.496-4.233 2.438c-.077.045-.056.127.046.187l4.779 2.76a.373.373 0 0 0 .324.026l4.233-2.44c.077-.043.056-.127-.046-.187l-4.788-2.758a.4.4 0 0 0-.154-.049.4.4 0 0 0-.161.023"/><path fill="#E0E0E0" d="M199.792 142.646a.1.1 0 0 0 .044-.012.1.1 0 0 0 .032-.032.09.09 0 0 0-.032-.119l-3.969-2.29a.08.08 0 0 0-.062-.004.1.1 0 0 0-.049.039.1.1 0 0 0-.01.062q.007.033.034.053l3.969 2.291a.1.1 0 0 0 .043.012M199.35 142.897a.1.1 0 0 0 .053-.018.09.09 0 0 0 .028-.103.1.1 0 0 0-.037-.042l-3.967-2.287a.1.1 0 0 0-.067-.009.1.1 0 0 0-.054.041.09.09 0 0 0 .034.12l3.967 2.289a.1.1 0 0 0 .043.009M198.909 143.149a.1.1 0 0 0 .053-.018.1.1 0 0 0 .031-.046.1.1 0 0 0-.004-.056.1.1 0 0 0-.036-.042l-3.967-2.291a.087.087 0 0 0-.12.032.1.1 0 0 0-.008.067q.01.035.041.053l3.967 2.291a.1.1 0 0 0 .043.01M198.469 143.404a.092.092 0 0 0 .077-.044.09.09 0 0 0-.034-.121l-3.967-2.289a.1.1 0 0 0-.033-.014.1.1 0 0 0-.036-.001.092.092 0 0 0-.058.042.089.089 0 0 0 .04.124l3.967 2.29a.1.1 0 0 0 .044.013"/><path fill="#455A64" d="m202.403 141.358-.156-.089-1.806 1.043.154.089zM201.775 140.996l-.268-.154-1.808 1.044.268.153zM201.147 140.632l-.154-.089-1.808 1.044.154.088zM200.675 140.357l-.311-.177-1.808 1.043.312.177zM199.89 139.907l-.154-.09-1.808 1.043.154.09zM199.442 139.643l-.334-.189-1.808 1.045.334.189zM198.636 139.181l-.156-.089-1.806 1.044.154.088zM198.278 138.973l-.077-.044-1.807 1.043.077.045zM198.912 139.352l-.077-.045-1.808 1.043.077.045zM200.184 140.078l-.077-.045-1.807 1.044.077.044zM200.875 140.479l-.077-.045-1.808 1.044.077.044zM201.365 140.772l-.077-.045-1.808 1.044.077.044zM202.052 141.153l-.077-.044-1.808 1.043.077.044zM198.007 138.818l-.155-.089-1.806 1.043.154.089z"/><path fill="#FAFAFA" d="M200.441 151.149v2.651c0 .102.072.144.161.093l4.139-2.391a.36.36 0 0 0 .113-.119.4.4 0 0 0 .046-.157v-2.653c0-.101-.072-.143-.159-.093l-4.139 2.392a.35.35 0 0 0-.161.277"/><path fill="#455A64" d="m204.642 148.859-.133.077v2.41l.133-.077zM204.098 149.174l-.231.135v2.41l.231-.135zM203.554 149.488l-.133.077v2.41l.133-.077zM203.145 149.72l-.268.157v2.412l.268-.159zM202.466 150.116l-.133.077v2.41l.133-.077zM202.076 150.336l-.287.17v2.41l.287-.17zM201.379 150.743l-.133.078v2.41l.133-.077zM201.068 150.919l-.067.038v2.41l.067-.037zM201.627 150.611l-.068.04v2.41l.068-.039zM202.723 149.971l-.066.039v2.409l.066-.038zM203.324 149.626l-.069.038v2.41l.069-.039zM203.753 149.388l-.066.039v2.409l.066-.038zM204.338 149.033l-.066.039v2.409l.066-.038zM200.834 151.057l-.133.077v2.41l.133-.077z"/><path fill="#000" d="m176.399 172.818-14.098 8.13-10.552-6.1 14.131-8.111zM187.929 179.467l-14.098 8.13-10.824-6.233 14.129-8.112z" opacity=".1"/><path fill="#F7921E" d="m181.894 166.056-12.363-7.152-14.041 8.126 12.365 7.152z"/><path fill="#fff" d="m181.894 166.056-12.363-7.152-14.041 8.126 12.365 7.152z" opacity=".7"/><path fill="#000" d="m156.937 166.192 12.13 7.016 12.592-7.288-12.128-7.016z" opacity=".1"/><path fill="#F7921E" d="m167.856 183.467 14.039-8.126v-9.285l-14.039 8.126z"/><path fill="#fff" d="m167.856 183.467 14.039-8.126v-9.285l-14.039 8.126z" opacity=".6"/><path fill="#455A64" d="M169.405 180.387a.24.24 0 0 1-.12-.032.366.366 0 0 1-.152-.333v-1.058h.052l.77-.453v1.101a.88.88 0 0 1-.38.718.34.34 0 0 1-.17.057m-.147-1.278v.906a.25.25 0 0 0 .088.227.18.18 0 0 0 .168-.018.79.79 0 0 0 .319-.612v-.066h-.285l-.057-.385zm.396.304h.179v-.68l-.453.27.227.041z"/><path fill="#455A64" d="M169.545 181.173a.06.06 0 0 1-.045-.019.07.07 0 0 1-.019-.044v-.827a.06.06 0 0 1 .02-.043.06.06 0 0 1 .044-.018.06.06 0 0 1 .043.018.06.06 0 0 1 .018.043v.827a.07.07 0 0 1-.018.044.06.06 0 0 1-.043.019"/><path fill="#455A64" d="M169.186 181.379a.1.1 0 0 1-.036-.014.07.07 0 0 1-.021-.033.06.06 0 0 1 .002-.038.06.06 0 0 1 .023-.031l.72-.414a.06.06 0 0 1 .047-.006.062.062 0 0 1 .043.075.06.06 0 0 1-.029.037l-.717.415a.1.1 0 0 1-.032.009M171.738 179.957a.14.14 0 0 1-.068-.018.16.16 0 0 1-.075-.149v-.17q0-.025.018-.043a.06.06 0 0 1 .044-.018q.025 0 .044.017a.07.07 0 0 1 .019.044v.17c0 .025 0 .038.011.04.012.003.018 0 .041 0a.36.36 0 0 0 .113-.28v-1.099a.06.06 0 0 1 .02-.043.06.06 0 0 1 .044-.018q.024 0 .043.018a.06.06 0 0 1 .018.043v1.096a.47.47 0 0 1-.177.388.2.2 0 0 1-.095.022"/><path fill="#455A64" d="M171.094 178.994v-.106a1.741 1.741 0 0 1 .791-1.359.524.524 0 0 1 .813.178.52.52 0 0 1 .04.313v.036zm1.162-1.465a.63.63 0 0 0-.31.095 1.63 1.63 0 0 0-.723 1.153l1.391-.804a.46.46 0 0 0-.19-.404.35.35 0 0 0-.168-.04M173.966 178.689a.06.06 0 0 1-.043-.018.06.06 0 0 1-.018-.043v-2.107a.07.07 0 0 1 .022-.036.06.06 0 0 1 .04-.015q.023 0 .041.015a.07.07 0 0 1 .022.036v2.107a.1.1 0 0 1-.005.024.1.1 0 0 1-.014.02.064.064 0 0 1-.045.017"/><path fill="#455A64" d="M173.787 177.001a.04.04 0 0 1-.025 0 .1.1 0 0 1-.02-.014.1.1 0 0 1-.013-.02.1.1 0 0 1-.004-.024.1.1 0 0 1 .005-.023l.227-.508.244.283a.06.06 0 0 1 .018.043.07.07 0 0 1-.018.044q-.008.008-.02.013a.1.1 0 0 1-.024.005.1.1 0 0 1-.024-.005.1.1 0 0 1-.02-.013l-.118-.134-.14.328a.06.06 0 0 1-.03.023.06.06 0 0 1-.038.002M174.539 178.362a.06.06 0 0 1-.043-.018.06.06 0 0 1-.018-.043v-2.106q0-.025.018-.043a.062.062 0 0 1 .087 0 .06.06 0 0 1 .019.043v2.106a.06.06 0 0 1-.063.061"/><path fill="#455A64" d="M174.357 176.675a.1.1 0 0 1-.024 0 .06.06 0 0 1-.033-.035.1.1 0 0 1-.005-.023l.006-.024.226-.51.247.286a.06.06 0 0 1 .018.043.06.06 0 0 1-.018.043.1.1 0 0 1-.019.014.1.1 0 0 1-.024.005.06.06 0 0 1-.043-.019l-.118-.134-.142.329a.06.06 0 0 1-.031.025.1.1 0 0 1-.04 0"/><path fill="#F7921E" d="m167.855 183.467-12.365-7.152v-9.285l12.365 7.152z"/><path fill="#fff" d="m167.855 183.466-12.365-7.152v-9.285l12.365 7.152z" opacity=".4"/><path fill="#37474F" d="m161.068 171.661.911.525v-1.413l-.911-.523z"/><path fill="#455A64" d="m161.979 170.773 14.039-8.125-.911-.523-14.039 8.125z"/><path fill="#37474F" d="m162.509 169.415.91.525.514-.292-.913-.528z"/><path fill="#FAFAFA" d="m157.261 172.873 3.213 1.857a.31.31 0 0 1 .145.251v2.233c0 .184-.131.261-.289.168l-3.214-1.857a.31.31 0 0 1-.145-.252v-2.233c0-.183.129-.26.29-.167"/><path fill="#455A64" d="m157.18 173.219.111.064v1.972l-.111-.063zM157.626 173.477l.188.111v1.973l-.188-.111zM158.07 173.732l.111.064v1.972l-.111-.063zM158.407 173.924l.217.131v1.97l-.217-.129zM158.962 174.248l.109.063v1.973l-.109-.064zM159.281 174.429l.233.14v1.97l-.233-.138zM159.852 174.761l.109.064v1.972l-.109-.063zM160.106 174.906l.054.031v1.973l-.054-.032zM159.648 174.656l.054.031v1.971l-.054-.03zM158.751 174.13l.055.031v1.973l-.055-.032zM158.26 173.847l.054.031v1.973l-.054-.032zM157.909 173.652l.055.032v1.972l-.055-.032zM157.429 173.362l.054.032v1.972l-.054-.032zM160.296 175.017l.111.064v1.972l-.111-.063z"/><path fill="#F7921E" d="m183.106 155.203-12.366-7.151-14.039 8.125 12.366 7.152z"/><path fill="#fff" d="m183.106 155.203-12.365-7.152-14.039 8.126 12.365 7.152z" opacity=".3"/><path fill="#000" d="m156.701 156.177 11.469 6.634 12.775-7.395-11.468-6.633z" opacity=".2"/><path fill="#F7921E" d="m169.067 172.617 14.039-8.126v-9.288l-14.039 8.126z"/><path fill="#455A64" d="M170.617 169.537a.23.23 0 0 1-.122-.034.37.37 0 0 1-.15-.333v-1.055h.05l.772-.453v1.098a.9.9 0 0 1-.38.718.35.35 0 0 1-.17.059m-.147-1.277v.905a.24.24 0 0 0 .015.125.24.24 0 0 0 .073.102.178.178 0 0 0 .168-.018.78.78 0 0 0 .317-.612v-.086h-.286l-.056-.385zm.394.303h.179v-.679l-.453.269.226.041z"/><path fill="#455A64" d="M170.754 170.32a.06.06 0 0 1-.043-.018.06.06 0 0 1-.018-.043v-.826q0-.026.018-.045a.07.07 0 0 1 .043-.019.07.07 0 0 1 .044.019.06.06 0 0 1 .019.045v.828a.06.06 0 0 1-.02.042.06.06 0 0 1-.043.017"/><path fill="#455A64" d="M170.396 170.526a.06.06 0 0 1-.054-.029.06.06 0 0 1-.005-.048.06.06 0 0 1 .028-.038l.718-.415a.07.07 0 0 1 .05-.012.1.1 0 0 1 .025.011.1.1 0 0 1 .018.02.1.1 0 0 1 .008.025.1.1 0 0 1-.003.026.1.1 0 0 1-.013.023.1.1 0 0 1-.022.016l-.72.414a.1.1 0 0 1-.03.007M172.956 169.104a.13.13 0 0 1-.068-.018.16.16 0 0 1-.075-.15v-.167a.06.06 0 0 1 .019-.044.07.07 0 0 1 .044-.02.065.065 0 0 1 .062.064v.167c0 .028 0 .041.011.044l.02.004q.01 0 .021-.004a.37.37 0 0 0 .115-.279v-1.112q0-.025.018-.043a.06.06 0 0 1 .043-.018.06.06 0 0 1 .044.018.06.06 0 0 1 .02.043v1.101a.48.48 0 0 1-.177.385.2.2 0 0 1-.097.029"/><path fill="#455A64" d="M172.303 168.144v-.108a1.76 1.76 0 0 1 .793-1.371.52.52 0 0 1 .598-.052.53.53 0 0 1 .213.232.53.53 0 0 1 .041.312v.036zm1.162-1.467a.6.6 0 0 0-.308.095 1.64 1.64 0 0 0-.722 1.153l1.388-.802a.46.46 0 0 0-.19-.403.3.3 0 0 0-.168-.043M175.177 167.838a.06.06 0 0 1-.043-.019.07.07 0 0 1-.018-.044v-2.104q0-.025.018-.043a.06.06 0 0 1 .043-.018.06.06 0 0 1 .044.018.06.06 0 0 1 .018.043v2.099a.1.1 0 0 1-.004.026.1.1 0 0 1-.013.021.04.04 0 0 1-.02.015.1.1 0 0 1-.025.006"/><path fill="#455A64" d="M174.997 166.151a.1.1 0 0 1-.025 0 .1.1 0 0 1-.02-.014.1.1 0 0 1-.013-.02.1.1 0 0 1-.004-.024.1.1 0 0 1 .005-.023l.227-.508.246.283a.06.06 0 0 1 .018.045.06.06 0 0 1-.018.044.066.066 0 0 1-.088 0l-.115-.136-.143.328a.06.06 0 0 1-.031.025.07.07 0 0 1-.039 0M175.75 167.512a.07.07 0 0 1-.044-.02.06.06 0 0 1-.019-.044v-2.104a.07.07 0 0 1 .019-.044.06.06 0 0 1 .044-.019q.026 0 .044.019a.07.07 0 0 1 .018.044v2.104a.065.065 0 0 1-.062.064"/><path fill="#455A64" d="M175.569 165.825a.1.1 0 0 1-.025 0 .1.1 0 0 1-.02-.014l-.013-.02a.1.1 0 0 1-.004-.024q0-.012.006-.024l.226-.507.245.283a.07.07 0 0 1 .018.044.07.07 0 0 1-.018.045.07.07 0 0 1-.045.017.07.07 0 0 1-.044-.017l-.115-.136-.143.328a.1.1 0 0 1-.03.022.06.06 0 0 1-.038.003"/><path fill="#F7921E" d="m169.067 172.616-12.366-7.152v-9.287l12.366 7.151z"/><path fill="#000" d="m169.067 172.616-12.365-7.152v-9.287l12.365 7.151z" opacity=".1"/><path fill="#000" d="m156.701 159.281 11.469 6.634v-3.105l-11.469-6.633z" opacity=".2"/><path fill="#37474F" d="m162.28 160.809.908.525v-1.411l-.908-.525z"/><path fill="#455A64" d="m163.188 159.923 14.039-8.126-.908-.525-14.039 8.126z"/><path fill="#FAFAFA" d="m158.47 162.02 3.214 1.857a.321.321 0 0 1 .145.252v2.235c0 .183-.129.258-.288.165l-3.216-1.855a.34.34 0 0 1-.145-.251v-2.235c0-.184.132-.258.29-.168"/><path fill="#455A64" d="m158.391 162.369.109.063v1.97l-.109-.061zM158.835 162.625l.19.11v1.973l-.19-.111zM159.281 162.883l.109.063v1.97l-.109-.061zM159.616 163.073l.22.13v1.972l-.22-.131zM160.171 163.397l.109.061v1.973l-.109-.064zM160.493 163.578l.233.138v1.972l-.233-.14zM161.061 163.909l.109.063v1.973l-.109-.064zM161.315 164.053l.054.032v1.973l-.054-.032zM160.86 163.802l.054.031v1.973l-.054-.032zM159.963 163.277l.055.032v1.972l-.055-.031zM159.471 162.996l.055.032v1.97l-.055-.029zM159.118 162.802l.055.031v1.971l-.055-.032zM158.64 162.51l.054.031v1.973l-.054-.032zM161.507 164.167l.109.063v1.972l-.109-.063z"/><path fill="#F7921E" d="m180.191 146.101-12.363-7.152-14.039 8.126 12.363 7.152z"/><path fill="#fff" d="m180.191 146.101-12.363-7.152-14.039 8.126 12.363 7.152z" opacity=".7"/><path fill="#F7921E" d="m166.152 163.515 14.039-8.126v-9.288l-14.039 8.126z"/><path fill="#fff" d="m166.152 163.515 14.039-8.126v-9.288l-14.039 8.126z" opacity=".6"/><path fill="#455A64" d="M167.702 160.434a.2.2 0 0 1-.12-.034.35.35 0 0 1-.117-.145.36.36 0 0 1-.03-.185v-1.056h.052l.77-.452v1.098a.887.887 0 0 1-.379.718.34.34 0 0 1-.176.056m-.147-1.277v.906a.253.253 0 0 0 .088.227.18.18 0 0 0 .168-.019.77.77 0 0 0 .319-.611v-.082h-.286l-.056-.385zm.396.304h.179v-.68l-.453.27.226.04z"/><path fill="#455A64" d="M167.842 161.218a.06.06 0 0 1-.043-.018.06.06 0 0 1-.018-.043v-.827a.06.06 0 0 1 .018-.043.06.06 0 0 1 .043-.018q.025 0 .043.018a.06.06 0 0 1 .018.043v.827a.06.06 0 0 1-.018.043.06.06 0 0 1-.043.018"/><path fill="#455A64" d="M167.482 161.428a.05.05 0 0 1-.03-.007.063.063 0 0 1-.03-.045.1.1 0 0 1 .001-.025.1.1 0 0 1 .011-.022.1.1 0 0 1 .019-.016l.718-.415a.1.1 0 0 1 .022-.007.1.1 0 0 1 .024.001.07.07 0 0 1 .038.029q.012.023.006.048a.06.06 0 0 1-.029.038l-.718.421a.1.1 0 0 1-.032 0M170.044 160.003a.14.14 0 0 1-.068-.019.16.16 0 0 1-.058-.064.2.2 0 0 1-.017-.085v-.168q0-.025.018-.044a.07.07 0 0 1 .043-.019.07.07 0 0 1 .045.019.07.07 0 0 1 .019.044v.177c0 .027 0 .041.011.043.012.002.018 0 .041 0a.35.35 0 0 0 .087-.127q.03-.073.026-.151v-1.124a.06.06 0 0 1 .02-.043.06.06 0 0 1 .044-.018q.024 0 .043.018a.06.06 0 0 1 .018.043v1.101a.46.46 0 0 1-.042.213.46.46 0 0 1-.133.172.2.2 0 0 1-.097.032"/><path fill="#455A64" d="M169.391 159.042v-.104a1.757 1.757 0 0 1 .791-1.37.524.524 0 0 1 .854.491v.036zm1.162-1.467a.6.6 0 0 0-.308.095 1.64 1.64 0 0 0-.725 1.152l1.391-.801a.46.46 0 0 0-.19-.403.33.33 0 0 0-.168-.039zM172.266 158.736a.063.063 0 0 1-.064-.063v-2.104a.1.1 0 0 1 .001-.028.1.1 0 0 1 .013-.024.1.1 0 0 1 .022-.017.1.1 0 0 1 .027-.006q.013 0 .027.006a.1.1 0 0 1 .021.017.1.1 0 0 1 .013.024.1.1 0 0 1 .001.028v2.104a.06.06 0 0 1-.018.044.06.06 0 0 1-.043.019"/><path fill="#455A64" d="M172.084 157.049a.04.04 0 0 1-.025 0 .057.057 0 0 1-.033-.034.1.1 0 0 1-.004-.024.1.1 0 0 1 .005-.023l.226-.508.245.284a.063.063 0 0 1 0 .088.066.066 0 0 1-.088 0l-.116-.136-.142.328a.1.1 0 0 1-.031.023.1.1 0 0 1-.037.002M172.836 158.41a.07.07 0 0 1-.044-.019.07.07 0 0 1-.018-.044v-2.104q0-.013.004-.024a.1.1 0 0 1 .014-.021.1.1 0 0 1 .02-.014.06.06 0 0 1 .068.014.06.06 0 0 1 .019.045v2.104a.07.07 0 0 1-.019.044.07.07 0 0 1-.044.019"/><path fill="#455A64" d="M172.654 156.723h-.025a.07.07 0 0 1-.032-.035.06.06 0 0 1 .001-.047l.226-.507.247.283a.1.1 0 0 1 .014.02.1.1 0 0 1 .005.024.1.1 0 0 1-.005.024.1.1 0 0 1-.014.02.063.063 0 0 1-.086 0l-.118-.136-.142.329a.07.07 0 0 1-.031.024.06.06 0 0 1-.04.001"/><path fill="#F7921E" d="m166.152 163.515-12.363-7.152v-9.288l12.363 7.152z"/><path fill="#fff" d="m166.152 163.515-12.363-7.152v-9.288l12.363 7.152z" opacity=".4"/><path fill="#37474F" d="m159.365 151.707.911.525v-1.411l-.911-.525z"/><path fill="#455A64" d="m160.276 150.821 14.039-8.126-.909-.525-14.041 8.126z"/><path fill="#FAFAFA" d="m155.558 152.918 3.214 1.857a.33.33 0 0 1 .145.251v2.236c0 .183-.132.258-.29.165l-3.214-1.855a.3.3 0 0 1-.101-.109.3.3 0 0 1-.044-.142v-2.236c0-.183.129-.262.29-.167"/><path fill="#455A64" d="m155.476 153.267.111.064v1.97l-.111-.061zM155.923 153.523l.188.111v1.972l-.188-.111zM156.366 153.781l.111.063v1.97l-.111-.061zM156.704 153.971l.218.13v1.972l-.218-.131zM157.259 154.295l.108.061v1.972l-.108-.063zM157.578 154.476l.233.138v1.973l-.233-.141zM158.149 154.807l.109.063v1.973l-.109-.064zM158.403 154.952l.054.031v1.973l-.054-.032zM157.945 154.7l.054.032v1.972l-.054-.031zM157.048 154.176l.055.031v1.973l-.055-.032zM156.557 153.895l.057.032v1.97l-.057-.032zM156.206 153.699l.054.032v1.97l-.054-.031zM155.726 153.407l.056.032-.002 1.973-.054-.032zM158.593 155.065l.11.064v1.972l-.11-.063z"/></svg>