<svg xmlns="http://www.w3.org/2000/svg" width="256" height="256" fill="none"><path stroke="#D5D5D5" d="M243.112 183.55c0 15.859-12.721 30.348-33.588 40.902-20.838 10.54-49.66 17.074-81.524 17.074-31.863 0-60.686-6.534-81.524-17.074C25.61 213.898 12.89 199.409 12.89 183.55s12.72-30.349 33.587-40.903c20.838-10.54 49.66-17.073 81.524-17.073s60.686 6.533 81.524 17.073c20.867 10.554 33.588 25.043 33.588 40.903Z"/><path fill="#FFA8A7" d="M67.538 182.173c.15-2.422 1.45-26.825 1.45-26.825l-11.861 8.367c2.071 13.946 2.527 18.153 2.614 20.48a2 2 0 0 0-.055.597c.064 2.765 3.376 4.211 5.972 6.018a48.3 48.3 0 0 0 7.003 4.197c1.88.862 5.657.89 6.105-.255-3.157-2.218-6.812-4.64-9.34-7.186-1.2-1.218-2.075-2.486-1.888-5.393"/><path fill="#263238" d="M84.145 197.649c.16 0 .43 1.67-.424 2.395-.985.835-3.9 2.222-7.792 1.802s-6.022-1.537-7.6-2.737c-1.58-1.2-3.787-2.929-5.553-3.271-1.638-.32-3.426-.995-3.956-1.469s-.501-2.605-.501-2.605z"/><path fill="#37474F" d="M59.714 183.52a.615.615 0 0 0-.58.506c-.11.593-.205 2.304-.456 3.271-.333 1.346-.52 4.106-.287 5.187.232 1.082 2.91 1.825 4.626 2.4a22 22 0 0 1 5.57 3.23c1.852 1.405 5.721 2.788 8.253 2.783 3.864 0 6.35-1.031 7.1-2.363.912-1.647.159-2.582-4.321-4.476-.849-.36-3.833-1.98-4.855-2.568-2.737-1.588-5.474-3.819-6.802-6.684a1.6 1.6 0 0 0-.652-.876 1.47 1.47 0 0 0-.872-.045 7.6 7.6 0 0 0-2.126.643c-.593.278-1.432.602-1.405 1.327.02.255.082.505.183.739.054.146.1.343-.032.434-.133.091-.301 0-.42-.105a12 12 0 0 1-1.223-1.369 4.1 4.1 0 0 0-.716-.67 9 9 0 0 1-.77-.457c-.256-.251-.197-.542-.215-.907"/><path fill="#FAFAFA" d="M80.354 194.379c-5.589.456-7.3 3.759-7.487 5.794a13.7 13.7 0 0 0 3.988.734c3.864 0 6.51-1.031 7.258-2.363.871-1.565.237-2.796-3.76-4.165"/><path fill="#F0F0F0" d="M71.963 194.544a.3.3 0 0 1-.173-.055.258.258 0 0 1-.046-.365 6.751 6.751 0 0 1 5.018-1.971.261.261 0 0 1 .246.283.27.27 0 0 1-.295.237 6.24 6.24 0 0 0-4.563 1.775.3.3 0 0 1-.083.067.3.3 0 0 1-.104.029M69.53 193.244a.3.3 0 0 1-.174-.055.246.246 0 0 1-.045-.365 6.704 6.704 0 0 1 5.018-1.971.261.261 0 0 1 .246.283.273.273 0 0 1-.296.237 6.2 6.2 0 0 0-4.562 1.775.3.3 0 0 1-.187.096M67.268 191.751a.3.3 0 0 1-.173-.055.26.26 0 0 1-.103-.172.25.25 0 0 1 .057-.193 6.72 6.72 0 0 1 5.018-1.971.3.3 0 0 1 .105.023.265.265 0 0 1 .152.263.26.26 0 0 1-.307.23 6.24 6.24 0 0 0-4.562 1.775.28.28 0 0 1-.187.1M65.07 190.272a.26.26 0 0 1-.169-.05.252.252 0 0 1-.055-.365c1.05-1.305 3.454-2.185 5.475-2.003a.26.26 0 0 1 .246.283.27.27 0 0 1-.296.233c-1.825-.16-4.079.647-5.019 1.802a.27.27 0 0 1-.182.1"/><path fill="#FFA8A7" d="m47.998 162.539-12.364-2.674c-.324 7.651-.127 18.007-.387 25.188-.05 1.369-.753 10.493-.36 13.295.583 4.215 6.236 3.941 6.701 1.459s.876-13.089.972-14.188c.26-4.603 2.888-12.318 4.726-20.53.091-.397.625-2.158.712-2.55"/><path fill="#263238" d="M43.586 201.677c-.05 2.459-.406 4.106-1.327 5.575-.922 1.469-2.738 1.994-4.663 1.643s-4.37-1.369-5.018-3.481-.593-3.55-.27-5.84z"/><path fill="#37474F" d="M35.274 184.174c-.775.087-.853 3.385-1.15 6.697-.319 3.554-1.446 5.06-1.742 7.97-.338 3.331-.073 4.804 1.332 6.757s6.154 3.741 8.317.789c1.761-2.404 1.72-5.018 1.4-8.298-.337-3.413-.602-5.808-.56-8.409.036-2.481.456-4.794-.224-5.045-.032.365-.064.83-.1 1.186-.032.278-.046 1.624-.457 1.651a4.6 4.6 0 0 1-.055-.935 1.01 1.01 0 0 0-.246-.789 3 3 0 0 0-1.223-.406 25 25 0 0 0-2.326-.228h-1.164a3.6 3.6 0 0 0-.98.159.659.659 0 0 0-.401.352.9.9 0 0 0 0 .383q.012.344-.07.68c0 .1-.095.223-.205.2s-.132-.114-.137-.191v-1.159c0-.214.028-.511 0-.725-.027-.215-.018-.425-.009-.639"/><path fill="#FAFAFA" d="M32.255 200.765c-.041 2.058.155 3.463 1.26 4.992 1.404 1.952 6.528 3.736 8.667.784 1.077-1.469 1.305-3.166 1.369-4.895-1.442-2.153-9.216-2.838-11.296-.881"/><path fill="#F0F0F0" d="M41.428 198.128a.4.4 0 0 1-.096-.022 12.8 12.8 0 0 0-6.73-.361.292.292 0 0 1-.351-.178.24.24 0 0 1 .03-.2.25.25 0 0 1 .171-.11 13.15 13.15 0 0 1 7.108.383.242.242 0 0 1 .15.333.3.3 0 0 1-.282.155M34.68 195.291a.28.28 0 0 1-.25-.164.24.24 0 0 1 .07-.282.2.2 0 0 1 .093-.046c3.436-1.168 6.944.264 7.095.328a.24.24 0 0 1 .145.138.24.24 0 0 1-.008.2.3.3 0 0 1-.17.131.3.3 0 0 1-.214-.013c-.036 0-3.444-1.4-6.642-.31a.3.3 0 0 1-.119.018M34.773 192.938a.29.29 0 0 1-.251-.155.25.25 0 0 1 .16-.333 10 10 0 0 1 7.235.301.237.237 0 0 1 .114.347.31.31 0 0 1-.392.1 9.5 9.5 0 0 0-6.739-.278.25.25 0 0 1-.127.018"/><path fill="#EBEBEB" d="M34.892 190.314a.284.284 0 0 1-.25-.15.25.25 0 0 1 .064-.284.3.3 0 0 1 .09-.049c3.531-1.319 7.14.296 7.3.369a.24.24 0 0 1 .138.144.24.24 0 0 1-.02.198.31.31 0 0 1-.388.11c-.036 0-3.517-1.579-6.797-.356a.25.25 0 0 1-.137.018"/><path fill="#455A64" d="M40.826 99.85c-.292 13.923-2.778 44.851-2.778 44.851-.21 1.711-2.687 8.983-2.779 15.169-.141 9.704-.351 17.054-.351 17.054s5.424 2.148 9.407.661c0 0 5.178-20.63 6.634-27.067 1.729-7.67 6.045-21.926 6.045-21.926l-.315 20.265a55.7 55.7 0 0 0-.16 12.254c.456 4.106 2.117 15.471 2.117 15.471s4.991 1.008 9.316-.274c0 0 2.605-24.445 2.82-28.204.246-4.288 1.569-47.42 1.569-47.42z"/><path fill="#37474F" d="m57.004 128.591 1.94-12.92s4.73-.187 7.974-3.226c0 0-.406 3.034-6.323 4.859l-2.24 10.895-1.734 20.279z"/><path fill="#FFA8A7" d="M65.45 59.253c2.513-.132 7.194-.292 10.561 3.85 2.363 2.912 8.81 9.915 12.464 14.54 2.45-2.55 8.386-8.727 9.362-10.533a28.5 28.5 0 0 0 2.217-5.315c.36-1.08.621-2.19.78-3.317.183-1.378.206-2.773.069-4.156-.028-1.255 1.824-.612 2.554 1.368.362 1.102.545 2.254.543 3.413.694-.329 2.706-1.319 3.016-1.46 1.095-.511 4.562-1.73 4.9.228.077.456-.064.912.128 1.319q.163.276.383.51a2.24 2.24 0 0 1 .269 2.282c-.166.32-.232.682-.187 1.04.09.369.106.752.046 1.127a4.5 4.5 0 0 1-.457.807 3.5 3.5 0 0 0-.301 1.154c-.035.4-.124.793-.264 1.168-.384.867-1.433 1.068-2.24 1.369q-1.845.614-3.618 1.41c-1.935 1.277-7.158 10.721-12.446 16.77-1.825 2.076-3.435 3.372-5.155 3.148-1.392-.031-3.112-1.29-4.768-2.737-5.27-4.562-13.732-13.495-13.732-13.495-3.531-4.284-4.503-11.615-4.124-14.49"/><path fill="#455A64" d="M67.809 58.553c1.67.26 2.819.21 4.945 1.419 1.87 1.058 2.541 1.957 4.708 4.38s7.345 8.718 7.345 8.718-2.203 5.27-9.028 7.18l-7.555-7.326z"/><path fill="#F28F8F" d="M105.4 59.303c-1.077.378-1.369 1.108-1.269 2.669.046.912-.173 2.646-1.158 3.366.484-.066.936-.28 1.295-.61.457-.507.589-.566.858-.293.205.179.449.307.712.374a1.21 1.21 0 0 0-.069 1.437c.511.79 2.683.735 4.43-.241 0 0-2.856.99-3.554.095-.698-.894.794-2.094 1.921-2.44 0 0-2.765.752-3.221-.15-.456-.904.675-1.63 2.281-2.1 0 0-2.281.493-2.71-.278-.488-.935.192-1.51.484-1.83"/><path fill="#F7921E" d="M42.146 59.98s-2.678 2.354-3.363 4.9c-.337 1.25-.643 2.28.416 9.238 1.008 6.63 1.003 8.614 1.236 13.778l.26 13.869c3.97 4.645 23.208 7.172 32.47.913 0 0 .054-24.007-.603-31.936-.456-5.374-2.09-10.42-3.942-12.071-2.513-.457-4.936-.73-4.936-.73l-9.261-.539z"/><path fill="#37474F" d="M68.34 40.732c1.237-2.829.028-6.584-1.446-8.345-2.13-2.545-5.447-3.65-10.447-3.335-3.8.238-7.542 1.825-8.253 5.717-3.057.912-2.706 5.93-1.949 8.143 1.543 4.49 4.563 8.4 4.627 10.699z"/><path fill="#FFA8A7" d="M68.34 51.298c-.601 2.167-1.856 3.759-3.863 4.074a17 17 0 0 1-3.167 0l.083 2.764c2.696 2.309 1.706 5.343-.092 8.075-2.24-2.486-4.8-3.371-7.035-4.356a7.17 7.17 0 0 1-3.257-3.158l-.288-9.325s-1.227 1.396-3.248.078a4.41 4.41 0 0 1-1.368-5.406c.999-2.113 3.006-1.241 3.65-.598.643.643 1.336 1.852 1.852 1.683a1.88 1.88 0 0 0 1.245-1.268c.467-1.317.688-2.709.653-4.106a5.5 5.5 0 0 0 1.528-1.195A5.06 5.06 0 0 0 56.4 35.42c4.335-1.369 9.321-.716 11.123.68 1.036 1.825 1.072 6.068 1.246 8.513.191 2.655.073 4.872-.43 6.684"/><path fill="#F28F8F" d="M61.31 55.385c-2.217-.123-6.68-1.159-7.866-2.4s-1.692-3.768-1.692-3.768.178 3.193 1.095 4.608 3.24 2.03 4.649 2.377a35 35 0 0 0 3.855.588z"/><path fill="#455A64" d="M61.297 66.225c-1.159-.712-3.718-3.618-5.018-2.281s-1.958 1.724-2.797 1.474c-.84-.251-2.701-2.085-3.914-3.427a7.8 7.8 0 0 1-1.597-3.266 22 22 0 0 0 1.71-2.382c.575-1.022.457-1.31 1.191-1.368l.064 1.93s.456 1.053 2.555 2.477 6.31 3.563 7.806 6.843"/><path fill="#455A64" d="M61.297 66.226c.693-.63 1.825-3.573 2.117-3.486.456.128 1.236 2.158 1.62 1.683.606-.748.42-4.16-.59-5.401-1.007-1.241-2.349-2.564-3.106-2.692l.055 1.825a7.35 7.35 0 0 1 .748 2.938c-.01 1.026-.698 4.142-.844 5.132"/><path fill="#263238" d="M59.91 43.196a.912.912 0 1 1-1.824 0 .912.912 0 0 1 1.825 0M58.655 40.33l-1.798 1.213a1.145 1.145 0 0 1 .306-1.56 1.07 1.07 0 0 1 1.492.346M67.351 41.17l-1.994-.953a1.064 1.064 0 0 1 1.442-.543 1.154 1.154 0 0 1 .552 1.497M66.684 43.141a.913.913 0 1 1-1.826 0 .913.913 0 0 1 1.826 0"/><path fill="#F28F8F" d="m61.969 41.27.648 6.446 3.462-1.045z"/><path fill="#B16668" d="m59.905 49.217 3.71.821a1.865 1.865 0 0 1-2.227 1.506 1.984 1.984 0 0 1-1.483-2.327"/><path fill="#F28F8F" d="M61.388 51.545q.116.023.233.027a1.724 1.724 0 0 0-1.724-1.683 1.96 1.96 0 0 0 1.491 1.656"/><path fill="#263238" d="m91.33 80.56-24.248 4.745-8.951 29.139 23.098-5.123z"/><path fill="#000" d="M71.11 102.496a5.58 5.58 0 0 1-3.928 4.047c-3.194.839-6.506-.383-6.506-.383l.748-2.437zM84.073 84.395l.256-.912c.14-.493-1.255-.607-3.121-.247l-3.572.685c-1.866.355-3.495 1.049-3.65 1.542l-.255.912z" opacity=".15"/><path fill="#F7921E" d="M85.945 81.072c.092-.305-.456-.428-1.254-.264l-1.415.296s.543-1.943-2.59-1.455c-3.135.488-3.952 2.683-3.952 2.683l-1.51.324c-.835.182-1.61.574-1.724.88l-.215.557 12.492-2.446s.082-.264.168-.575"/><path fill="#000" d="M85.945 81.072c.092-.305-.456-.428-1.254-.264l-1.415.296s.543-1.943-2.59-1.455c-3.135.488-3.952 2.683-3.952 2.683l-1.51.324c-.835.182-1.61.574-1.724.88l-.215.557 12.492-2.446s.082-.264.168-.575" opacity=".3"/><path fill="#F7921E" d="M74.144 85.575c.119-.411 1.264-.959 2.737-1.333 0-.054.028-.105.041-.145.11-.457-.059-.708-.94-.534l-.05-.352 8.669-1.62-.379.357c-1.145.196-1.624.319-1.825 1.08l-.05.174c1.369-.155 2.281 0 2.167.393l-.255.912-10.33 1.98z"/><path fill="#000" d="M74.144 85.575c.119-.411 1.264-.959 2.737-1.333 0-.054.028-.105.041-.145.11-.457-.059-.708-.94-.534l-.05-.352 8.669-1.62-.379.357c-1.145.196-1.624.319-1.825 1.08l-.05.174c1.369-.155 2.281 0 2.167.393l-.255.912-10.33 1.98z" opacity=".4"/><path fill="#FFA8A7" d="M63.337 97.502c2.965.995 5.93 1.068 9.015 1.063.752 0 1.323.115 1.546.83.078.256.183.608-.79.913a1.37 1.37 0 0 0-.756.393c-.224.355-.115.711-.174 1.126a3.15 3.15 0 0 1-.912 1.574 7.4 7.4 0 0 1-1.524 1.424c-1.88 1.181-4.777 1.327-6.916.981a23.2 23.2 0 0 1-4.266-1.26c-1.31-.483-9.261-2.828-10.206-3.157-7.02-2.45-16.675-5.474-17.245-8.782s1.218-13.686 2.496-22.145c1.03-6.843 3.8-9.261 8.285-10.196 4.918 5.584 1.825 15.26 1.825 15.26L41.926 88.42c.758.63 12.245 7.076 14.23 7.72.716.232 2.066-.05 2.783-.297 1.916-.653 3.234-.598 5.091-.516"/><path fill="#455A64" d="M42.144 59.979c-4.768.652-7.587 3.093-8.554 7.71-.808 3.878-2.309 16.4-2.309 16.4 3.166 2.793 8.363 2.642 11.178 1.666l1.45-10.037c1.173-2.596 3.007-10.274-1.765-15.74M39.064 100.66l-2.404 1.332a1.18 1.18 0 0 0-.548.913c-.059 2.153-.232 9.558.11 13.613a1.32 1.32 0 0 0 .584.913c1.369.771 5.082 2.806 6.784 3.275.39.068.792.023 1.159-.127l1.715-.685a.97.97 0 0 0 .557-.835c0-4.302.761-9.037 1.473-13.727a.87.87 0 0 0-.456-.862l-7.879-3.837a1.32 1.32 0 0 0-1.095.027"/><path fill="#37474F" d="M36.241 116.505c-.342-4.056-.168-11.455-.11-13.613a.356.356 0 0 1 .562-.338l7.35 3.65a.95.95 0 0 1 .497.876 116 116 0 0 0-.36 13.093.46.46 0 0 1-.144.398.46.46 0 0 1-.408.109c-1.702-.457-5.407-2.505-6.784-3.276a1.3 1.3 0 0 1-.603-.899"/><path fill="#263238" d="M43.701 120.694c.362.044.73-.005 1.068-.141l1.715-.689a1 1 0 0 0 .552-.83c.338-4.421.762-9.038 1.478-13.728a.75.75 0 0 0-.086-.456l-3.979 1.824a.85.85 0 0 1 .087.429 114 114 0 0 0-.36 13.098.46.46 0 0 1-.286.461.5.5 0 0 1-.189.032M37.56 104.42l5.398 2.61-.283 4.397-5.265-2.317s.037-2.829.15-4.69"/><path fill="#F7921E" d="m42.716 111.09-5.019-2.195s.032-2.495.133-4.338l5.114 2.472z"/><path fill="#000" d="m42.716 111.09-5.019-2.195s.032-2.495.133-4.338l5.114 2.472z" opacity=".4"/><path fill="#263238" d="m45.224 104.143-1.341.643-4.836-2.367 1.305-.657z"/><path fill="#F7921E" d="m45.025 104.238-1.14.548-4.631-2.272 1.104-.557z"/><path fill="#000" d="m45.025 104.238-1.14.548-4.631-2.272 1.104-.557z" opacity=".4"/><path fill="#000" d="m44.335 103.899-1.15.539-.146-.069 1.145-.543zM43.305 103.393l-1.136.548-.169-.082 1.15-.539zM42.277 102.897l-1.145.539-.146-.069 1.14-.543zM41.342 102.441l-1.145.538-.146-.073 1.14-.543z" opacity=".4"/><path fill="#263238" d="m42.907 112.929-.041.538a.205.205 0 0 1-.301.187l-.977-.397a.45.45 0 0 1-.26-.419l.032-.557a.2.2 0 0 1 .096-.177.2.2 0 0 1 .2-.005l.99.41a.46.46 0 0 1 .26.42M42.916 114.694l-.031.543a.205.205 0 0 1-.194.213.2.2 0 0 1-.103-.021l-.98-.388a.46.46 0 0 1-.27-.411l.009-.547a.201.201 0 0 1 .292-.192l1 .397a.46.46 0 0 1 .277.406M42.927 116.459v.543a.204.204 0 0 1-.193.217.2.2 0 0 1-.104-.021l-1.008-.378a.46.46 0 0 1-.274-.411v-.557a.2.2 0 0 1 .09-.18.2.2 0 0 1 .202-.011l1 .378a.46.46 0 0 1 .287.42M42.934 118.225v.543a.207.207 0 0 1-.089.184.21.21 0 0 1-.203.016l-.995-.355a.46.46 0 0 1-.283-.402v-.556a.2.2 0 0 1 .085-.185.2.2 0 0 1 .203-.016l1.008.365a.45.45 0 0 1 .274.406M40.721 111.931l-.032.565a.2.2 0 0 1-.09.182.192.192 0 0 1-.202.005l-.972-.401a.45.45 0 0 1-.269-.42l.028-.579a.2.2 0 0 1 .088-.179.2.2 0 0 1 .2-.004l.984.411a.45.45 0 0 1 .265.42M40.713 113.685l-.027.561a.2.2 0 0 1-.09.181.2.2 0 0 1-.1.033.2.2 0 0 1-.102-.022l-.972-.397a.457.457 0 0 1-.27-.42v-.579a.196.196 0 0 1 .293-.183l.985.406a.46.46 0 0 1 .283.42M40.704 115.451v.566a.195.195 0 0 1-.19.212.2.2 0 0 1-.102-.025l-.976-.392a.45.45 0 0 1-.27-.415v-.58a.195.195 0 0 1 .187-.209.2.2 0 0 1 .1.022l.99.406a.46.46 0 0 1 .261.415M40.699 117.19v.566a.2.2 0 0 1-.02.103.2.2 0 0 1-.07.078.2.2 0 0 1-.1.033.2.2 0 0 1-.102-.022l-.976-.388a.45.45 0 0 1-.274-.415v-.58a.195.195 0 0 1 .187-.209.2.2 0 0 1 .1.022l.99.397a.46.46 0 0 1 .265.415M38.532 110.934v.589a.193.193 0 0 1-.187.209.2.2 0 0 1-.1-.027l-.963-.401a.46.46 0 0 1-.274-.42v-.602a.19.19 0 0 1 .087-.175.19.19 0 0 1 .196-.007l.981.41a.45.45 0 0 1 .26.424M38.54 112.64v.589a.19.19 0 0 1-.088.179.19.19 0 0 1-.2.003l-.962-.401a.46.46 0 0 1-.274-.42v-.602a.193.193 0 0 1 .188-.209q.054 0 .1.026l.976.411a.49.49 0 0 1 .26.424M38.545 114.344v.588a.2.2 0 0 1-.09.182.192.192 0 0 1-.202.005l-.963-.401a.45.45 0 0 1-.27-.42v-.602a.19.19 0 0 1 .184-.21q.054 0 .1.028l.976.41a.48.48 0 0 1 .265.42M38.552 116.05v.588a.193.193 0 0 1-.186.214.2.2 0 0 1-.102-.027l-.962-.401a.46.46 0 0 1-.274-.42v-.602a.2.2 0 0 1 .088-.179.19.19 0 0 1 .2-.004l.976.411a.46.46 0 0 1 .26.42"/><path fill="#F7921E" d="M212.445 21.785v3.458a16.3 16.3 0 0 1-.565 3.818l-8.427 27.551a1.57 1.57 0 0 1-.575.847 1.5 1.5 0 0 1-1.695.047l-11.053-6.381-49.306 28.466a3.5 3.5 0 0 1-1.695.408 3.44 3.44 0 0 1-1.679-.397l-15.745-9.097a3.74 3.74 0 0 1-1.705-2.94v-3.457c.027-.594.208-1.17.523-1.674.288-.52.704-.957 1.208-1.271l42.93-24.779-4.676-2.699a3.73 3.73 0 0 1-1.7-2.94v-3.41a2.2 2.2 0 0 1 .68-1.57 2.1 2.1 0 0 1 1.26-.6l50.269-5.153a1.75 1.75 0 0 1 1.658.769c.196.298.298.648.293 1.004"/><path fill="#000" d="M139.129 73.183v6.8a3.44 3.44 0 0 1-1.679-.397l-15.745-9.097A3.74 3.74 0 0 1 120 67.55v-3.442c.027-.593.208-1.17.523-1.673zM171.005 32.709l-6.371 3.661-4.676-2.699a3.76 3.76 0 0 1-1.203-1.269 3.76 3.76 0 0 1-.497-1.676v-3.39a2.2 2.2 0 0 1 .68-1.568zM202.876 51.11v6.33a1.48 1.48 0 0 1-1.694.046l-11.053-6.376v-7.36z" opacity=".1"/><path fill="#000" d="M190.13 43.75v7.36l-49.306 28.46a3.5 3.5 0 0 1-1.695.409v-6.8zM212.444 21.786v3.457a16.3 16.3 0 0 1-.565 3.819l-8.427 27.55a1.57 1.57 0 0 1-.575.848v-6.355l9.269-30.34c.201.302.305.658.298 1.02" opacity=".2"/><path fill="#E0E0E0" d="m187.812 77.089 33.04 19.087c2.36 1.355 4.248 4.678 4.248 7.387v65.23l2.804 1.624v-67.109c0-3.823-2.709-8.496-6.018-10.426L187.657 73.11c-3.304-1.888-6.018-.345-6.018 3.478v67.104l2.832 1.634V79.005c.019-2.11 1.515-2.974 3.341-1.916"/><path fill="#455A64" d="M162.318 222.856c0-3.436 2.417-7.618 5.395-9.336 1.563-.906 2.964-.944 3.951-.283l3.634 2.077-7.731 13.145-3.606-2.077c-1.005-.557-1.643-1.77-1.643-3.526"/><path fill="#37474F" d="M171.491 215.696c-2.979 1.718-5.395 5.9-5.395 9.336s2.416 4.833 5.395 3.115 5.399-5.9 5.399-9.341-2.421-4.833-5.399-3.11"/><path fill="#263238" d="M173.315 220.864c0-1.34-.821-1.958-1.826-1.378s-1.827 2.143-1.827 3.488.817 1.964 1.827 1.379c1.01-.586 1.826-2.143 1.826-3.489"/><path fill="#F0F0F0" d="M165.17 209.957s0 6.136 2.936 8.33c.552.411 1.138.694 1.482.982.751.623.255 1.765-.656 2.256-1.322.708-8.52-1.208-11.569-7.08z"/><path fill="#FAFAFA" d="M167.963 211.576s0 6.136 2.936 8.33c.552.411 1.137.694 1.487.982.746.623.25 1.77-.661 2.256-1.322.708-8.52-1.208-11.569-7.08z"/><path fill="#263238" d="M171.49 221.322a1.15 1.15 0 0 0-.519.897c0 .33.231.472.519.297a1.13 1.13 0 0 0 .514-.896c0-.326-.231-.463-.514-.298"/><path fill="#455A64" d="M220.865 189.056c0-3.441 2.417-7.622 5.395-9.341 1.563-.901 2.964-.944 3.951-.278l3.634 2.077-7.731 13.14-3.606-2.072c-1.006-.557-1.643-1.775-1.643-3.526"/><path fill="#37474F" d="M230.038 181.892c-2.979 1.718-5.395 5.9-5.395 9.341s2.416 4.833 5.395 3.115 5.38-5.9 5.38-9.341-2.402-4.833-5.38-3.115"/><path fill="#263238" d="M231.862 187.064c0-1.345-.821-1.963-1.826-1.378s-1.827 2.143-1.827 3.488.817 1.959 1.827 1.379 1.826-2.143 1.826-3.489"/><path fill="#F0F0F0" d="M223.717 176.175s0 6.136 2.936 8.331c.552.411 1.137.694 1.482.982.75.623.255 1.77-.656 2.256-1.322.708-8.52-1.208-11.569-7.08z"/><path fill="#FAFAFA" d="M226.51 177.757s0 6.136 2.936 8.331c.552.41 1.137.693 1.487.986.745.618.25 1.765-.661 2.252-1.322.708-8.52-1.209-11.569-7.08z"/><path fill="#263238" d="M230.037 187.504a1.14 1.14 0 0 0-.519.896c0 .326.231.472.519.298a1.147 1.147 0 0 0 .514-.897c0-.297-.231-.444-.514-.297"/><path fill="#455A64" d="m230.759 172.045-51.92-29.981-84.823 48.97 51.915 29.986z"/><path fill="#37474F" d="M230.759 172.045v3.262l-84.827 48.975v-3.262z"/><path fill="#263238" d="M94.016 191.034v3.262l51.915 29.986v-3.262z"/><path fill="#000" d="m223.212 172.186-44.529 25.72-45.415-26.187 44.651-25.653z" opacity=".1"/><path fill="#F7921E" d="m221.697 141.605-40.78-23.585-43.099 24.945 40.781 23.586z"/><path fill="#fff" d="m221.697 141.605-40.78-23.585-43.099 24.945 40.781 23.586z" opacity=".7"/><path fill="#F7921E" d="m178.6 195.055 43.098-24.941v-28.509L178.6 166.551z"/><path fill="#fff" d="m178.6 195.055 43.098-24.941v-28.509L178.6 166.551z" opacity=".6"/><path fill="#455A64" d="M183.357 185.615a.74.74 0 0 1-.372-.099 1.13 1.13 0 0 1-.472-1.025v-3.242l.155.028 2.36-1.392v3.37c-.004.434-.113.86-.316 1.243a2.7 2.7 0 0 1-.85.961 1 1 0 0 1-.505.156m-.472-3.918v2.794a.8.8 0 0 0 .269.699.55.55 0 0 0 .515-.057 2.39 2.39 0 0 0 .977-1.888V183h-.878l-.17-1.185zm1.213.944h.548v-2.086l-1.416.831.699.127z"/><path fill="#455A64" d="M183.783 188.008a.188.188 0 0 1-.189-.189v-2.539a.19.19 0 0 1 .377 0v2.539a.19.19 0 0 1-.188.189"/><path fill="#455A64" d="M182.682 188.645a.19.19 0 0 1-.165-.095.2.2 0 0 1-.025-.069.189.189 0 0 1 .091-.19l2.209-1.275a.2.2 0 0 1 .07-.024.189.189 0 0 1 .141.039q.03.023.049.056a.195.195 0 0 1-.071.26l-2.204 1.274a.3.3 0 0 1-.095.024M190.541 184.274a.5.5 0 0 1-.213-.052.5.5 0 0 1-.226-.472v-.495a.195.195 0 0 1 .191-.164.195.195 0 0 1 .191.164v.519c0 .08 0 .118.038.127s.056 0 .123-.033a1.13 1.13 0 0 0 .354-.859v-3.374a.188.188 0 1 1 .377 0v3.374a1.44 1.44 0 0 1-.538 1.185.6.6 0 0 1-.297.08"/><path fill="#455A64" d="M188.539 181.324v-.33a5.37 5.37 0 0 1 2.426-4.206 1.61 1.61 0 0 1 1.843-.169 1.61 1.61 0 0 1 .777 1.68v.108zm3.564-4.503a1.9 1.9 0 0 0-.944.298 5.02 5.02 0 0 0-2.219 3.54l4.248-2.469a1.42 1.42 0 0 0-.585-1.237 1 1 0 0 0-.5-.132M197.357 180.385a.19.19 0 0 1-.189-.189v-6.462a.194.194 0 0 1 .382 0v6.462q0 .038-.015.073a.18.18 0 0 1-.105.103.2.2 0 0 1-.073.013"/><path fill="#455A64" d="M196.804 175.23a.2.2 0 0 1-.076 0 .2.2 0 0 1-.061-.041.2.2 0 0 1-.054-.136.2.2 0 0 1 .016-.073l.675-1.562.756.873a.19.19 0 0 1-.022.267.19.19 0 0 1-.266-.021l-.359-.411-.434 1.005a.2.2 0 0 1-.175.099M199.118 179.384a.199.199 0 0 1-.137-.053.2.2 0 0 1-.042-.062.2.2 0 0 1-.015-.073v-6.462a.198.198 0 0 1 .11-.206.2.2 0 0 1 .162 0 .2.2 0 0 1 .067.05.2.2 0 0 1 .044.156v6.462a.188.188 0 0 1-.189.188"/><path fill="#455A64" d="M198.56 174.206a.2.2 0 0 1-.076 0 .197.197 0 0 1-.102-.104.2.2 0 0 1-.013-.073.2.2 0 0 1 .016-.073l.689-1.558.756.869a.2.2 0 0 1 .036.065.18.18 0 0 1-.01.145.2.2 0 0 1-.045.059.186.186 0 0 1-.139.046.2.2 0 0 1-.072-.019.2.2 0 0 1-.058-.046l-.359-.415-.434 1.01a.2.2 0 0 1-.189.094"/><path fill="#F7921E" d="m178.599 195.055-40.781-23.581v-28.509l40.781 23.586z"/><path fill="#fff" d="m178.599 195.055-40.781-23.581v-28.509l40.781 23.586z" opacity=".5"/><path fill="#37474F" d="m154.938 157.182 2.794 1.609v-4.333l-2.794-1.609z"/><path fill="#455A64" d="m157.732 154.463 43.098-24.945-2.794-1.615-43.098 24.946z"/><path fill="#37474F" d="m156.203 152.112 2.79 1.614 1.557-.896-2.789-1.615z"/><path fill="#FAFAFA" d="m200.963 133.152-11.418 6.575c-.207.123-.151.344.123.505l12.89 7.443a1 1 0 0 0 .874.071l11.417-6.58c.208-.118.151-.344-.122-.505l-12.914-7.438a.98.98 0 0 0-.85-.071"/><path fill="#E0E0E0" d="M206.707 144.343a.23.23 0 0 0 .117-.032.236.236 0 0 0 .001-.407l-10.705-6.178a.235.235 0 0 0-.236.405l10.705 6.179a.2.2 0 0 0 .118.033M205.517 145.023a.24.24 0 0 0 .225-.175.23.23 0 0 0-.009-.15.23.23 0 0 0-.098-.114l-10.7-6.169a.24.24 0 0 0-.18-.024.24.24 0 0 0-.146.108.244.244 0 0 0 .09.326l10.7 6.174a.2.2 0 0 0 .118.024M204.328 145.702a.234.234 0 0 0 .225-.175.234.234 0 0 0-.107-.264l-10.701-6.178a.234.234 0 0 0-.323.087.235.235 0 0 0 .087.323l10.701 6.179a.3.3 0 0 0 .118.028M203.139 146.387a.24.24 0 0 0 .119-.032.23.23 0 0 0 .088-.086.245.245 0 0 0-.089-.326l-10.701-6.174a.24.24 0 0 0-.187-.04.228.228 0 0 0-.155.113.23.23 0 0 0 .027.275.2.2 0 0 0 .079.058l10.701 6.179a.2.2 0 0 0 .118.033"/><path fill="#455A64" d="m213.748 140.869-.42-.241-4.871 2.814.415.24zM212.055 139.892l-.722-.415-4.876 2.817.722.411zM210.359 138.91l-.415-.241-4.876 2.818.416.236zM209.091 138.169l-.84-.477-4.876 2.813.84.477zM206.971 136.956l-.416-.241-4.875 2.813.415.241zM205.764 136.244l-.902-.51-4.876 2.818.902.509zM203.586 134.998l-.42-.241-4.871 2.818.415.236zM202.624 134.436l-.207-.118-4.876 2.813.208.123zM204.333 135.46l-.207-.123-4.876 2.814.208.122zM207.763 137.419l-.208-.123-4.875 2.818.207.118zM209.628 138.5l-.207-.123-4.876 2.818.208.118zM210.951 139.288l-.208-.123-4.876 2.818.208.118zM212.804 140.317l-.208-.118-4.875 2.813.207.118zM201.893 134.021l-.42-.241-4.871 2.813.415.241z"/><path fill="#FAFAFA" d="M208.457 167.278v7.15c0 .274.194.387.434.251l11.163-6.448a.94.94 0 0 0 .43-.746v-7.155c0-.274-.194-.387-.43-.25l-11.163 6.452a.95.95 0 0 0-.434.746"/><path fill="#455A64" d="m219.79 161.104-.358.207v6.5l.358-.208zM218.322 161.953l-.623.364v6.499l.623-.363zM216.855 162.798l-.359.208v6.499l.359-.207zM215.75 163.426l-.723.425v6.504l.723-.43zM213.919 164.493l-.358.207v6.5l.358-.208zM212.866 165.087l-.774.458v6.5l.774-.458zM210.988 166.183l-.359.212v6.499l.359-.207zM210.148 166.659l-.179.104v6.499l.179-.099zM211.659 165.829l-.184.108v6.5l.184-.104zM214.613 164.101l-.179.104v6.499l.179-.103zM216.231 163.171l-.184.104v6.499l.184-.104zM217.392 162.529l-.179.104v6.5l.179-.104zM218.968 161.571l-.179.104v6.499l.179-.104zM209.521 167.032l-.359.208v6.499l.359-.207z"/><path fill="#000" d="m218.926 141.001-39.568 22.869-41.852-24.214 39.563-22.868z" opacity=".1"/><path fill="#F7921E" d="m136.416 108.688 37.958-21.953 42.948 24.851-37.954 21.953z"/><path fill="#fff" d="m136.416 108.688 37.958-21.953 42.948 24.851-37.954 21.953z" opacity=".3"/><path fill="#FAFAFA" d="m154.608 100.914 11.427 6.575c.207.118.151.345-.123.505l-12.89 7.439a.99.99 0 0 1-.873.076l-11.418-6.58c-.208-.123-.151-.345.123-.505l12.909-7.439a.95.95 0 0 1 .845-.071"/><path fill="#E0E0E0" d="M148.843 112.105a.24.24 0 0 1-.207-.118.23.23 0 0 1-.022-.179.24.24 0 0 1 .111-.142l10.701-6.178a.24.24 0 0 1 .187-.04.235.235 0 0 1 .176.303.24.24 0 0 1-.127.143l-10.701 6.178a.2.2 0 0 1-.118.033M150.029 112.785a.236.236 0 0 1-.203-.118.236.236 0 0 1 .085-.321l10.705-6.178a.231.231 0 0 1 .277-.001.24.24 0 0 1 .097.166.242.242 0 0 1-.138.241l-10.705 6.178a.2.2 0 0 1-.118.033M151.218 113.465a.24.24 0 0 1-.142-.05.235.235 0 0 1 .024-.389l10.686-6.179a.3.3 0 0 1 .087-.031.24.24 0 0 1 .174.046.24.24 0 0 1-.025.396l-10.7 6.178a.3.3 0 0 1-.104.029M152.408 114.145a.229.229 0 0 1-.203-.118.236.236 0 0 1 .085-.321l10.7-6.179a.238.238 0 0 1 .324.087.236.236 0 0 1-.088.324l-10.7 6.178a.3.3 0 0 1-.118.029"/><path fill="#455A64" d="m141.801 108.631.415-.24 4.876 2.813-.42.24zM143.496 107.65l.718-.411 4.875 2.813-.722.416zM145.186 106.673l.42-.241 4.871 2.813-.416.241zM146.455 105.932l.84-.477 4.876 2.813-.84.477zM148.574 104.714l.416-.236 4.875 2.813-.415.241zM149.783 104.006l.902-.51 4.875 2.818-.901.505zM151.963 102.76l.415-.241 4.876 2.813-.42.241zM152.926 102.198l.207-.118 4.871 2.813-.207.118zM151.213 103.218l.208-.118 4.875 2.813-.207.122zM147.781 105.181l.208-.122 4.876 2.813-.208.122zM145.918 106.262l.208-.123 4.875 2.818-.207.118zM144.596 107.05l.212-.122 4.871 2.813-.208.123zM142.74 108.079l.213-.122 4.871 2.817-.208.118zM153.658 101.783l.416-.241 4.875 2.813-.42.241z"/><path fill="#F7921E" d="m179.368 162.048-42.952-24.851v-28.509l42.952 24.851z"/><path fill="#F7921E" d="m179.367 162.047 37.954-21.952v-28.509l-37.954 21.953z"/><path fill="#000" d="m179.367 162.047 37.954-21.952v-28.509l-37.954 21.953z" opacity=".1"/><path fill="#37474F" d="m200.202 125.803-2.79 1.609v-4.333l2.79-1.609z"/><path fill="#455A64" d="m197.413 123.084-42.952-24.85 2.789-1.615 42.952 24.851zM163.623 148.411a2.36 2.36 0 0 1-.996-1.888v-2.888l2.025 1.189h.132v2.78a.94.94 0 0 1-.396.873.6.6 0 0 1-.317.085.93.93 0 0 1-.448-.151m.226-3.11-.146 1.015h-.75v.212a2.04 2.04 0 0 0 .835 1.6.45.45 0 0 0 .439.052.662.662 0 0 0 .231-.595v-2.393zm-.287-.279.599-.103-1.208-.713v1.784h.472z"/><path fill="#455A64" d="M163.706 150.602a.16.16 0 0 0 .161-.161v-2.171a.161.161 0 0 0-.276-.114.16.16 0 0 0-.05.114v2.171a.165.165 0 0 0 .165.161"/><path fill="#455A64" d="M164.646 151.159a.16.16 0 0 0 .164-.117.16.16 0 0 0-.007-.107.16.16 0 0 0-.072-.078l-1.888-1.091a.17.17 0 0 0-.124-.015.16.16 0 0 0-.098.077.16.16 0 0 0-.015.123.16.16 0 0 0 .076.098l1.888 1.086a.15.15 0 0 0 .076.024M170.283 154.496a.4.4 0 0 0 .179-.043.44.44 0 0 0 .193-.392v-.443a.17.17 0 0 0-.046-.116.17.17 0 0 0-.114-.05.17.17 0 0 0-.153.102.2.2 0 0 0-.012.064v.443a.16.16 0 0 1-.029.109.15.15 0 0 1-.108-.028.94.94 0 0 1-.302-.732v-2.884a.165.165 0 0 0-.161-.165.165.165 0 0 0-.165.165v2.884a1.23 1.23 0 0 0 .472 1.01.5.5 0 0 0 .246.076"/><path fill="#455A64" d="M167.69 149.483v-.094a1.38 1.38 0 0 1 1.477-1.609c.282.024.549.134.765.315a4.59 4.59 0 0 1 2.072 3.597v.283zm.831-1.246a1.2 1.2 0 0 0-.505 1.062l3.649 2.105a4.29 4.29 0 0 0-1.888-3.025 1.66 1.66 0 0 0-.808-.251.9.9 0 0 0-.448.109M176.823 158.135a.16.16 0 0 0 .161-.161v-5.522a.16.16 0 0 0-.047-.113.16.16 0 0 0-.114-.047.164.164 0 0 0-.165.16v5.522a.165.165 0 0 0 .165.161"/><path fill="#455A64" d="M177.296 153.712a.167.167 0 0 0 .135-.073.2.2 0 0 0 .027-.075.16.16 0 0 0-.011-.078l-.557-1.336-.642.746a.159.159 0 0 0 .116.272.17.17 0 0 0 .115-.046l.307-.354.373.859a.16.16 0 0 0 .137.085M175.319 157.295a.165.165 0 0 0 .165-.161v-5.522a.173.173 0 0 0-.048-.117.2.2 0 0 0-.054-.036.2.2 0 0 0-.063-.012.165.165 0 0 0-.161.165v5.522a.16.16 0 0 0 .161.161"/><path fill="#455A64" d="M175.795 152.853a.15.15 0 0 0 .066 0 .171.171 0 0 0 .085-.217l-.581-1.331-.642.741a.17.17 0 0 0-.039.118.164.164 0 0 0 .235.134.2.2 0 0 0 .05-.039l.306-.354.373.863a.16.16 0 0 0 .147.085"/><path fill="#FAFAFA" d="M149.514 134.638v7.128c0 .273-.194.387-.435.25l-11.144-6.434a.97.97 0 0 1-.429-.75v-7.165c0-.274.193-.387.434-.245l11.158 6.447a.94.94 0 0 1 .416.769"/><path fill="#455A64" d="m138.199 128.446.359.207v6.5l-.359-.208zM139.664 129.291l.623.363v6.5l-.623-.364zM141.131 130.136l.359.207v6.5l-.359-.208zM142.236 130.764l.722.429v6.5l-.722-.43zM144.066 131.83l.359.208v6.499l-.359-.207zM145.125 132.425l.769.458v6.504l-.769-.463zM147.004 133.525l.359.208v6.499l-.359-.208zM147.838 134.001l.179.104v6.5l-.179-.104zM146.332 133.171l.179.104v6.499l-.179-.104zM143.379 131.438l.179.104v6.5l-.179-.104zM141.76 130.509l.179.104v6.499l-.179-.104zM140.594 129.867l.184.104v6.499l-.184-.104zM139.018 128.913l.184.104v6.495l-.184-.104zM148.467 134.37l.363.207v6.5l-.363-.208z"/><path fill="#000" d="m135.736 108.296 41.135 23.803 32.233-18.611-41.206-23.793z" opacity=".1"/><path fill="#F7921E" d="m133.834 95.302 34.513-19.923 40.261 23.246-34.512 19.923z"/><path fill="#000" d="m133.834 95.302 34.513-19.923 40.261 23.246-34.512 19.923z" opacity=".1"/><path fill="#FAFAFA" d="m152.03 87.528 11.413 6.575c.208.123.151.345-.123.505l-12.89 7.462a.992.992 0 0 1-.873.071l-11.418-6.598c-.208-.118-.151-.345.123-.505l12.895-7.44a.99.99 0 0 1 .873-.07"/><path fill="#E0E0E0" d="M146.261 98.72a.235.235 0 0 1-.216-.326.24.24 0 0 1 .098-.114l10.7-6.178a.236.236 0 0 1 .343.072.24.24 0 0 1 .021.19.24.24 0 0 1-.128.144l-10.7 6.178a.2.2 0 0 1-.118.033M147.45 99.399a.24.24 0 0 1-.225-.175.24.24 0 0 1 .009-.15.24.24 0 0 1 .098-.114l10.701-6.179a.235.235 0 0 1 .344.265.24.24 0 0 1-.108.146l-10.701 6.174a.2.2 0 0 1-.118.033M148.636 100.079a.238.238 0 0 1-.226-.175.24.24 0 0 1 .01-.15.24.24 0 0 1 .098-.114l10.7-6.179a.237.237 0 0 1 .347.267.24.24 0 0 1-.111.144l-10.7 6.178a.26.26 0 0 1-.118.029M149.825 100.763a.23.23 0 0 1-.203-.118.24.24 0 0 1-.024-.18.24.24 0 0 1 .109-.146l10.7-6.173a.23.23 0 0 1 .187-.04.235.235 0 0 1 .049.446l-10.7 6.178a.23.23 0 0 1-.118.033"/><path fill="#455A64" d="m139.219 95.246.415-.241 4.876 2.813-.42.24zM140.91 94.268l.727-.415 4.871 2.818-.722.41zM142.604 93.287l.42-.241 4.871 2.818-.416.236zM143.873 92.546l.84-.477 4.876 2.813-.84.477zM145.992 91.333l.416-.241 4.875 2.813-.415.24zM147.201 90.62l.902-.51 4.875 2.818-.901.51zM149.381 89.374l.415-.241 4.876 2.818-.415.236zM150.34 88.812l.212-.118 4.871 2.813-.207.123zM148.631 89.836l.208-.123 4.875 2.814-.207.122zM145.199 91.795l.213-.123 4.871 2.818-.208.118zM143.336 92.876l.212-.123 4.871 2.818-.207.118zM142.018 93.664l.207-.123 4.871 2.818-.207.118zM140.164 94.693l.208-.118 4.871 2.813-.208.118zM151.076 88.397l.416-.241 4.875 2.813-.42.24z"/><path fill="#F7921E" d="m174.096 131.835-40.262-23.246V95.302l40.262 23.246z"/><path fill="#000" d="m174.096 131.835-40.262-23.246V95.302l40.262 23.246z" opacity=".2"/><path fill="#F7921E" d="m174.096 131.835 34.512-19.928V98.625l-34.512 19.923z"/><path fill="#000" d="m174.096 131.835 34.512-19.928V98.625l-34.512 19.923z" opacity=".3"/><path fill="#37474F" d="m194.935 110.812-2.794 1.609v-4.328l2.794-1.614z"/><path fill="#455A64" d="m192.14 108.093-40.261-23.246 2.789-1.614 40.267 23.246zM158.355 118.194a2.33 2.33 0 0 1-.996-1.888v-2.884l2.025 1.189.132-.023v2.77a.98.98 0 0 1-.396.878.6.6 0 0 1-.316.081.9.9 0 0 1-.449-.123m.227-3.106-.151 1.01h-.746v.213a2.04 2.04 0 0 0 .835 1.604.44.44 0 0 0 .435.048.65.65 0 0 0 .195-.267c.041-.104.055-.217.041-.328v-2.389zm-.288-.278.599-.109-1.208-.708v1.765h.472z"/><path fill="#455A64" d="M158.434 120.384a.164.164 0 0 0 .165-.16v-2.167a.165.165 0 0 0-.165-.165.165.165 0 0 0-.161.165v2.167a.16.16 0 0 0 .161.16"/><path fill="#455A64" d="M159.379 120.951a.16.16 0 0 0 .083-.023.15.15 0 0 0 .058-.062.17.17 0 0 0 .015-.124.17.17 0 0 0-.076-.098l-1.888-1.086a.2.2 0 0 0-.06-.021.2.2 0 0 0-.064.005.2.2 0 0 0-.057.029.2.2 0 0 0-.041.048.161.161 0 0 0-.018.121q.009.03.028.056.018.025.047.041l1.888 1.09a.16.16 0 0 0 .085.024M165.029 124.283a.4.4 0 0 0 .174-.048.42.42 0 0 0 .199-.391v-.444a.17.17 0 0 0-.05-.114.17.17 0 0 0-.116-.046.16.16 0 0 0-.113.047.16.16 0 0 0-.047.113v.444c0 .066 0 .104-.033.108s-.047 0-.104-.028a.94.94 0 0 1-.302-.732v-2.884a.16.16 0 0 0-.161-.16.165.165 0 0 0-.165.16v2.884a1.24 1.24 0 0 0 .472 1.015.54.54 0 0 0 .246.076"/><path fill="#455A64" d="M162.422 119.27v-.094a1.372 1.372 0 0 1 2.237-1.293 4.59 4.59 0 0 1 2.077 3.596v.283zm.826-1.246a1.2 1.2 0 0 0-.392.453 1.2 1.2 0 0 0-.127.586l3.648 2.105a4.24 4.24 0 0 0-1.888-3.021 1.64 1.64 0 0 0-.811-.255.9.9 0 0 0-.43.132M171.551 127.922a.165.165 0 0 0 .165-.161v-5.527a.164.164 0 0 0-.278-.113.16.16 0 0 0-.047.113v5.527a.16.16 0 0 0 .16.161"/><path fill="#455A64" d="M172.028 123.495q.03.006.061 0a.158.158 0 0 0 .1-.151.2.2 0 0 0-.015-.062l-.576-1.331-.646.741a.164.164 0 0 0 0 .231.16.16 0 0 0 .226 0l.307-.354.373.864a.16.16 0 0 0 .076.055q.046.016.094.007M170.051 127.086a.2.2 0 0 0 .063-.012.2.2 0 0 0 .054-.036.2.2 0 0 0 .036-.054.2.2 0 0 0 .012-.063v-5.522a.165.165 0 0 0-.165-.161.16.16 0 0 0-.16.161v5.522a.164.164 0 0 0 .16.165"/><path fill="#455A64" d="M170.527 122.64a.13.13 0 0 0 .062 0 .14.14 0 0 0 .053-.034.2.2 0 0 0 .036-.053.2.2 0 0 0 .011-.063.2.2 0 0 0-.015-.062l-.576-1.336-.647.746a.165.165 0 0 0 .052.263q.029.012.061.012a.2.2 0 0 0 .062-.012.2.2 0 0 0 .052-.036l.307-.354.372.859a.2.2 0 0 0 .075.06q.046.02.095.01"/><path fill="#FAFAFA" d="M146.951 106.007v7.151c0 .274-.193.387-.429.25l-11.168-6.447a.94.94 0 0 1-.434-.746v-7.156c0-.273.193-.387.434-.25l11.158 6.448a.94.94 0 0 1 .439.75"/><path fill="#455A64" d="m135.617 99.833.359.208v6.499l-.359-.208zM137.082 100.683l.623.363v6.5l-.623-.369zM138.549 101.528l.363.208v6.499l-.363-.208zM139.658 102.155l.718.425v6.5l-.718-.425zM141.484 103.222l.359.208v6.499l-.359-.207zM142.543 103.817l.769.458v6.499l-.769-.458zM144.422 104.912l.359.213v6.499l-.359-.212zM145.256 105.389l.179.104v6.499l-.179-.104zM143.75 104.558l.179.109v6.494l-.179-.103zM140.797 102.831l.179.103v6.5l-.179-.104zM139.178 101.9l.179.104v6.5l-.179-.104zM138.016 101.259l.179.104v6.499l-.179-.104zM136.439 100.3l.18.104v6.5l-.18-.104zM145.885 105.762l.363.207v6.5l-.363-.208z"/><path fill="#000" d="m153.069 185.973-31.535 18.186-23.604-13.645 31.61-18.144z" opacity=".1"/><path fill="#F7921E" d="m100.809 132.392 28.759-16.6 21.093 12.172-28.759 16.605z"/><path fill="#000" d="m100.809 132.392 28.759-16.6 21.093 12.172-28.759 16.605z" opacity=".1"/><path fill="#FAFAFA" d="m129.289 118.175-8.826 5.084c-.161.094-.118.269.094.391l9.969 5.754a.76.76 0 0 0 .67.057l8.831-5.088c.16-.095.118-.265-.094-.392l-9.969-5.749a.78.78 0 0 0-.675-.057"/><path fill="#E0E0E0" d="M133.75 126.827a.177.177 0 0 0 .156-.09.186.186 0 0 0-.066-.25l-8.274-4.776a.19.19 0 0 0-.251.07.2.2 0 0 0-.016.136.2.2 0 0 0 .082.11l8.275 4.776a.16.16 0 0 0 .094.024M132.829 127.355a.2.2 0 0 0 .09-.024.19.19 0 0 0 .09-.133.18.18 0 0 0-.036-.136.2.2 0 0 0-.054-.047l-8.274-4.776a.2.2 0 0 0-.067-.024.2.2 0 0 0-.07.004.2.2 0 0 0-.063.032.2.2 0 0 0-.046.054.19.19 0 0 0-.02.139.187.187 0 0 0 .086.111l8.275 4.777a.2.2 0 0 0 .089.023M131.909 127.88a.2.2 0 0 0 .11-.039.2.2 0 0 0 .064-.096.18.18 0 0 0-.006-.116.2.2 0 0 0-.073-.089l-8.274-4.777a.2.2 0 0 0-.139-.017.2.2 0 0 0-.111.083.183.183 0 0 0 .066.25l8.274 4.777a.17.17 0 0 0 .089.024M130.993 128.408a.2.2 0 0 0 .09-.024.19.19 0 0 0 .09-.133.18.18 0 0 0-.036-.136.2.2 0 0 0-.054-.047l-8.274-4.757a.166.166 0 0 0-.137-.02.2.2 0 0 0-.063.031.2.2 0 0 0-.046.055.175.175 0 0 0 .012.203.2.2 0 0 0 .054.047l8.27 4.776q.047.013.094.005"/><path fill="#455A64" d="m139.191 124.141-.321-.184-3.766 2.176.32.184zM137.885 123.386l-.562-.316-3.766 2.176.557.316zM136.572 122.631l-.321-.189-3.767 2.176.321.189zM135.59 122.055l-.647-.368-3.771 2.176.651.368zM133.953 121.116l-.321-.184-3.767 2.176.321.184zM133.018 120.568l-.694-.392-3.771 2.176.698.392zM131.334 119.605l-.321-.188-3.767 2.175.321.189zM130.591 119.171l-.16-.094-3.767 2.176.161.094zM131.914 119.959l-.16-.094-3.772 2.176.166.094zM134.567 121.474l-.161-.094-3.771 2.176.165.094zM136.005 122.31l-.16-.09-3.767 2.171.161.095zM137.029 122.919l-.16-.095-3.771 2.181.16.09zM138.465 123.716l-.161-.094-3.771 2.176.161.094zM130.026 118.845l-.321-.184-3.771 2.176.321.189z"/><path fill="#F7921E" d="m121.902 202.139-21.093-12.178v-57.569l21.093 12.177z"/><path fill="#000" d="m121.902 202.139-21.093-12.178v-57.569l21.093 12.177z" opacity=".2"/><path fill="#F7921E" d="m121.902 202.139 28.759-16.605v-57.57l-28.759 16.605z"/><path fill="#000" d="m121.902 202.139 28.759-16.605v-57.57l-28.759 16.605z" opacity=".3"/><path fill="#37474F" d="m137.237 140.048-2.79 1.609v-4.333l2.79-1.609z"/><path fill="#455A64" d="m134.448 137.324-21.089-12.173 2.79-1.614 21.089 12.178zM106.156 188.503a2.36 2.36 0 0 1-.996-1.888v-2.888l2.025 1.189h.132v2.775a.94.94 0 0 1-.396.874.6.6 0 0 1-.317.085.96.96 0 0 1-.448-.147m.227-3.11-.147 1.015h-.75v.212a2.03 2.03 0 0 0 .835 1.6.448.448 0 0 0 .439.052.66.66 0 0 0 .232-.595v-2.393zm-.288-.279.599-.104-1.208-.712v1.789h.472z"/><path fill="#455A64" d="M106.241 190.693a.16.16 0 0 0 .161-.16v-2.171a.161.161 0 0 0-.276-.114.16.16 0 0 0-.05.114v2.171a.164.164 0 0 0 .165.16"/><path fill="#455A64" d="M107.18 191.236a.16.16 0 0 0 .1-.032.17.17 0 0 0 .06-.087.17.17 0 0 0-.008-.106.16.16 0 0 0-.072-.077l-1.888-1.091a.2.2 0 0 0-.06-.02.2.2 0 0 0-.064.005.17.17 0 0 0-.118.137.17.17 0 0 0 .081.162l1.888 1.085a.13.13 0 0 0 .081.024M112.831 194.583a.4.4 0 0 0 .18-.043.45.45 0 0 0 .193-.392v-.443a.17.17 0 0 0-.036-.135.17.17 0 0 0-.196-.043.2.2 0 0 0-.057.043.17.17 0 0 0-.036.135v.443a.16.16 0 0 1-.029.109.15.15 0 0 1-.108-.028.94.94 0 0 1-.302-.732v-2.879a.165.165 0 0 0-.161-.165.2.2 0 0 0-.063.012.162.162 0 0 0-.089.09.2.2 0 0 0-.013.063v2.884a1.23 1.23 0 0 0 .472 1.01c.074.046.159.07.245.071"/><path fill="#455A64" d="M110.225 189.574v-.094a1.377 1.377 0 0 1 2.242-1.293 4.608 4.608 0 0 1 2.073 3.596v.284zm.831-1.246a1.22 1.22 0 0 0-.505 1.062l3.649 2.105a4.28 4.28 0 0 0-1.888-3.025 1.7 1.7 0 0 0-.807-.25.9.9 0 0 0-.449.108M119.354 198.226a.165.165 0 0 0 .165-.16v-5.523a.165.165 0 0 0-.165-.16.16.16 0 0 0-.161.16v5.523a.16.16 0 0 0 .161.16"/><path fill="#455A64" d="M119.831 193.804a.2.2 0 0 0 .066 0 .2.2 0 0 0 .051-.037.14.14 0 0 0 .033-.053.2.2 0 0 0 .011-.062.2.2 0 0 0-.015-.061l-.575-1.368-.642.745a.16.16 0 0 0 0 .227.17.17 0 0 0 .231 0l.302-.354.373.859a.17.17 0 0 0 .066.078q.046.029.099.026M117.852 197.372a.165.165 0 0 0 .165-.16v-5.523a.165.165 0 0 0-.165-.165.165.165 0 0 0-.161.165v5.523a.16.16 0 0 0 .161.16"/><path fill="#455A64" d="M118.329 192.945a.2.2 0 0 0 .067 0 .17.17 0 0 0 .085-.092.16.16 0 0 0-.001-.125l-.59-1.341-.641.741a.2.2 0 0 0-.032.055.2.2 0 0 0-.008.063.2.2 0 0 0 .017.061q.015.029.039.05a.2.2 0 0 0 .055.031.162.162 0 0 0 .124-.008.2.2 0 0 0 .05-.039l.302-.354.373.863q.022.047.066.072a.16.16 0 0 0 .094.023"/><path fill="#FAFAFA" d="M119.982 180.602v7.146c0 .278-.194.387-.43.25l-11.163-6.443a.94.94 0 0 1-.434-.75v-7.151c0-.279.189-.387.43-.25l11.162 6.447a.96.96 0 0 1 .435.751"/><path fill="#455A64" d="m108.648 174.428.359.208v6.499l-.359-.207zM110.117 175.273l.619.368v6.5l-.619-.369zM111.584 176.123l.359.207v6.5l-.359-.208zM112.689 176.746l.723.429v6.5l-.723-.425zM114.516 177.812l.363.213v6.499l-.363-.207zM115.572 178.412l.77.457v6.5l-.77-.458zM117.451 179.507l.359.208v6.499l-.359-.208zM118.287 179.983l.179.104v6.5l-.179-.104zM116.781 179.153l.18.104v6.499l-.18-.104zM113.826 177.42l.18.109v6.495l-.18-.099zM112.207 176.496l.179.103v6.5l-.179-.104zM111.047 175.854l.179.103v6.5l-.179-.104zM109.471 174.896l.179.103v6.5l-.179-.104zM118.92 180.356l.359.208v6.5l-.359-.208z"/><path fill="#000" d="m178.859 200.846-31.534 18.186-24.214-13.943 31.605-18.144z" opacity=".1"/><path fill="#F7921E" d="m126.77 176.939 28.763-16.605 21.089 12.178-28.759 16.605z"/><path fill="#fff" d="m126.77 176.939 28.763-16.605 21.089 12.178-28.759 16.605z" opacity=".3"/><path fill="#FAFAFA" d="m155.25 162.722-8.827 5.084c-.16.094-.118.269.095.392l9.969 5.753a.75.75 0 0 0 .674.052l8.827-5.083c.16-.095.118-.269-.095-.392l-9.968-5.749a.75.75 0 0 0-.675-.057"/><path fill="#E0E0E0" d="M159.71 171.374a.2.2 0 0 0 .09-.025.2.2 0 0 0 .066-.065.2.2 0 0 0 .024-.067.2.2 0 0 0-.004-.072.2.2 0 0 0-.031-.064.2.2 0 0 0-.055-.047l-8.274-4.772a.185.185 0 0 0-.245.207.18.18 0 0 0 .066.109l8.269 4.777q.046.02.094.019M158.79 171.926a.2.2 0 0 0 .093-.025.2.2 0 0 0 .067-.069.187.187 0 0 0-.07-.25l-8.27-4.8a.19.19 0 0 0-.14-.017.19.19 0 0 0-.133.154.19.19 0 0 0 .036.133.2.2 0 0 0 .053.046l8.274 4.776a.16.16 0 0 0 .09.052M157.873 172.427a.185.185 0 0 0 .09-.34l-8.274-4.777a.18.18 0 0 0-.139-.018.18.18 0 0 0-.111.084.189.189 0 0 0 .066.25l8.274 4.772a.2.2 0 0 0 .094.029M156.954 172.955a.2.2 0 0 0 .091-.026.2.2 0 0 0 .065-.068.19.19 0 0 0 .02-.139.2.2 0 0 0-.032-.064.2.2 0 0 0-.054-.047l-8.275-4.772a.2.2 0 0 0-.066-.023.19.19 0 0 0-.133.036.2.2 0 0 0-.046.053.2.2 0 0 0-.022.066.177.177 0 0 0 .088.179l8.274 4.777a.15.15 0 0 0 .09.028"/><path fill="#455A64" d="m165.152 168.688-.321-.188-3.767 2.18.321.184zM163.846 167.933l-.557-.321-3.771 2.176.561.321zM162.533 167.173l-.321-.184-3.767 2.176.321.184zM161.555 166.602l-.651-.368-3.771 2.176.651.368zM159.918 165.663l-.325-.189-3.767 2.176.321.189zM158.978 165.111l-.694-.392-3.766 2.176.693.396zM157.299 164.148l-.321-.184-3.771 2.176.321.184zM156.552 163.718l-.16-.094-3.767 2.176.16.09zM157.874 164.507l-.16-.095-3.767 2.176.161.094zM160.527 166.022l-.161-.095-3.766 2.176.16.095zM161.971 166.857l-.161-.094-3.771 2.176.161.094zM162.991 167.466l-.16-.094-3.767 2.175.156.095zM164.426 168.263l-.161-.094-3.771 2.176.161.094zM155.986 163.393l-.321-.185-3.767 2.176.321.184z"/><path fill="#F7921E" d="m147.863 217.13-21.093-12.178v-28.013l21.093 12.178z"/><path fill="#F7921E" d="m147.863 217.13-21.093-12.178v-28.013l21.093 12.178zM147.863 217.13l28.759-16.605v-28.013l-28.759 16.605z"/><path fill="#000" d="m147.863 217.13 28.759-16.605v-28.013l-28.759 16.605z" opacity=".1"/><path fill="#37474F" d="m163.198 184.59-2.79 1.614v-4.333l2.79-1.609z"/><path fill="#455A64" d="m160.409 181.871-21.089-12.177 2.79-1.61 21.089 12.178zM173.961 197.83a.5.5 0 0 1-.208-.052.65.65 0 0 1-.26-.581v-1.822h.085l1.336-.783v1.888a1.54 1.54 0 0 1-.656 1.241.6.6 0 0 1-.297.109m-.255-2.205v1.572a.43.43 0 0 0 .155.392.29.29 0 0 0 .288-.033 1.35 1.35 0 0 0 .548-1.053v-.141h-.472l-.099-.666zm.684.524h.307v-1.175l-.793.472.392.071z"/><path fill="#455A64" d="M174.2 199.184a.106.106 0 0 1-.096-.064.1.1 0 0 1-.008-.04v-1.416a.11.11 0 0 1 .022-.091.1.1 0 0 1 .038-.029.1.1 0 0 1 .093 0 .1.1 0 0 1 .038.029q.015.02.021.043a.1.1 0 0 1 .001.048v1.416a.1.1 0 0 1-.009.041.1.1 0 0 1-.024.034.095.095 0 0 1-.076.029"/><path fill="#455A64" d="M173.587 199.543a.1.1 0 0 1-.054-.013.1.1 0 0 1-.04-.039.11.11 0 0 1 .037-.146l1.242-.718a.11.11 0 0 1 .081-.01.11.11 0 0 1 .078.13.1.1 0 0 1-.019.037.1.1 0 0 1-.032.028l-1.241.717a.1.1 0 0 1-.052.014M169.857 201.752a.26.26 0 0 1-.118-.029.29.29 0 0 1-.127-.259v-.274a.107.107 0 0 1 .109-.108.11.11 0 0 1 .108.108v.364c0 .004.033 0 .071 0a.64.64 0 0 0 .198-.472v-1.888a.11.11 0 0 1 .106-.132q.026 0 .047.011a.108.108 0 0 1 .059.073.1.1 0 0 1 .001.048v1.888a.82.82 0 0 1-.302.665.3.3 0 0 1-.152.005"/><path fill="#455A64" d="M168.734 200.091v-.184a3.03 3.03 0 0 1 1.364-2.36.91.91 0 0 1 1.037-.094.9.9 0 0 1 .441.943v.061zm2.021-2.535c-.19.008-.373.065-.534.165a2.83 2.83 0 0 0-1.251 1.992l2.403-1.388a.78.78 0 0 0-.331-.694.53.53 0 0 0-.287-.075M165.563 204.15a.1.1 0 0 1-.04-.008.1.1 0 0 1-.033-.023.1.1 0 0 1-.023-.033.1.1 0 0 1-.008-.04v-3.639a.11.11 0 0 1 .06-.121.1.1 0 0 1 .047-.01q.024 0 .046.01a.1.1 0 0 1 .038.03q.015.02.021.043a.1.1 0 0 1 .001.048v3.639a.1.1 0 0 1-.009.041.1.1 0 0 1-.023.034.1.1 0 0 1-.036.022.1.1 0 0 1-.041.007"/><path fill="#455A64" d="M165.248 201.233h-.043a.12.12 0 0 1-.056-.142l.382-.878.425.472a.1.1 0 0 1 .015.073.1.1 0 0 1-.036.066.1.1 0 0 1-.069.027.1.1 0 0 1-.071-.024l-.203-.231-.245.566a.1.1 0 0 1-.039.051.1.1 0 0 1-.06.02M166.55 203.588a.1.1 0 0 1-.042-.008.1.1 0 0 1-.035-.024.1.1 0 0 1-.023-.035.1.1 0 0 1-.009-.041v-3.64a.12.12 0 0 1 .033-.075.12.12 0 0 1 .076-.033q.045 0 .077.032a.1.1 0 0 1 .032.076v3.64a.11.11 0 0 1-.109.108"/><path fill="#455A64" d="M166.238 200.671h-.042a.1.1 0 0 1-.036-.023.1.1 0 0 1-.024-.036.1.1 0 0 1-.007-.041.1.1 0 0 1 .01-.042l.382-.878.42.472q.016.015.024.035a.1.1 0 0 1 0 .082.1.1 0 0 1-.024.034.1.1 0 0 1-.075.031.1.1 0 0 1-.076-.031l-.198-.236-.25.567a.1.1 0 0 1-.04.051.1.1 0 0 1-.064.015"/><path fill="#FAFAFA" d="M150.129 205.551v7.151c0 .274.193.387.429.25l11.163-6.442a.945.945 0 0 0 .434-.751v-7.155c0-.274-.193-.388-.434-.246l-11.163 6.448a.93.93 0 0 0-.304.321.9.9 0 0 0-.125.424"/><path fill="#455A64" d="m161.462 199.382-.358.208v6.499l.358-.207zM159.993 200.228l-.618.363v6.499l.618-.363zM158.529 201.072l-.363.208v6.499l.363-.207zM157.421 201.7l-.722.43v6.499l.722-.429zM155.595 202.767l-.359.207v6.5l.359-.208zM154.537 203.361l-.769.458v6.504l.769-.462zM152.66 204.461l-.359.208v6.5l.359-.208zM151.824 204.938l-.179.104v6.499l.179-.104zM153.33 204.107l-.18.104v6.5l.18-.104zM156.283 202.375l-.179.104v6.499l.179-.104zM157.902 201.445l-.179.104v6.5l.179-.104zM159.064 200.803l-.179.104v6.5l.179-.104zM160.64 199.845l-.179.109v6.499l.179-.104zM151.191 205.306l-.359.208v6.499l.359-.207z"/></svg>