<svg xmlns="http://www.w3.org/2000/svg" width="256" height="256" fill="none"><path stroke="#D5D5D5" d="M239.836 169.314c0 17.67-12.409 33.762-32.679 45.465-20.256 11.695-48.273 18.945-79.247 18.945s-58.99-7.25-79.247-18.945c-20.27-11.703-32.678-27.795-32.678-45.465s12.409-33.762 32.678-45.465c20.257-11.695 48.274-18.944 79.247-18.944 30.974 0 58.991 7.249 79.247 18.944 20.27 11.703 32.679 27.795 32.679 45.465Z"/><path fill="#455A64" d="M204.398 173.878a.6.6 0 0 0-.076-.122 1 1 0 0 0-.061-.076.4.4 0 0 0-.075-.089l-.081-.076a1.8 1.8 0 0 0-.306-.217l-102.231-59.033a3.78 3.78 0 0 0-3.389 0l-50.145 28.938-.203.128-.066.056a1.3 1.3 0 0 0-.283.316.7.7 0 0 0-.104.218 1 1 0 0 0 0 .103.7.7 0 0 0 0 .17 1 1 0 0 0 0 .118q.014.067.033.133.021.065.052.127c.14.249.35.453.604.585l102.216 59.038c.313.171.653.286 1.006.34q.342.059.689.061a4.2 4.2 0 0 0 .901-.099q.316-.07.609-.208c.066-.028.123-.061.184-.094l50.127-28.943c.665-.373.844-.902.599-1.374m-11.012-2.095-3.205 1.855-42.711 24.638q-.166.098-.344.17a2.87 2.87 0 0 1-2.545-.17l-81.094-46.818-3.927-2.26a1.5 1.5 0 0 1-.368-.293c-.406-.444-.279-1.01.368-1.388l45.897-26.498a2.9 2.9 0 0 1 1.78-.495q.228.028.439.118.118.043.226.108l85.484 49.352a.97.97 0 0 1 0 1.681"/><path fill="#37474F" d="M47.836 143.335a3.8 3.8 0 0 0-1.492 2.809v2.237a3.75 3.75 0 0 0 1.694 2.941L150.27 210.35c.385.211.809.341 1.246.382.151 0 .297.024.472.029v-6.165a6 6 0 0 1-.689-.056 3.1 3.1 0 0 1-1.01-.35L48.034 145.157c-.864-.495-.935-1.283-.198-1.822"/><path fill="#F7921E" d="M177.319 185.9a6.83 6.83 0 0 0-6.051 0 2.45 2.45 0 0 0-.906.826c-.543.944.472 1.652.906 1.916a6.82 6.82 0 0 0 6.051 0c.365-.197.676-.481.906-.826.543-.944-.457-1.652-.906-1.916"/><path fill="#263238" d="M77.198 131.389a.503.503 0 0 0 .237-.759.5.5 0 0 0-.237-.185 1.83 1.83 0 0 0-1.656 0 .51.51 0 0 0-.326.472.51.51 0 0 0 .326.472 1.83 1.83 0 0 0 1.656 0M74.598 135.92a.47.47 0 0 0 .266-.424.47.47 0 0 0-.266-.425 1.64 1.64 0 0 0-1.473 0 .47.47 0 0 0-.266.425.47.47 0 0 0 .266.424 1.61 1.61 0 0 0 1.473 0M77.085 134.519l8.232-4.753c.472-.26.472-.671.047-.916a1.75 1.75 0 0 0-1.581.033l-8.232 4.748c-.448.265-.472.67-.047.916a1.75 1.75 0 0 0 1.581-.028M204.025 173.449c.698.543.623 1.312-.227 1.803l-50.131 28.943a3.4 3.4 0 0 1-1.694.401v6.16a3.45 3.45 0 0 0 1.689-.406l50.132-28.939a3.73 3.73 0 0 0 1.694-2.935v-2.242a3.8 3.8 0 0 0-1.463-2.785"/><path fill="#455A64" d="M71.945 160.695a1.9 1.9 0 0 1 .878 1.454.54.54 0 0 1-.245.51c-.104.061-.5.297-.614.359a.65.65 0 0 1-.632-.071l-11.399-6.608a1.9 1.9 0 0 1-.873-1.454.57.57 0 0 1 .222-.5l.632-.368a.646.646 0 0 1 .633.07z"/><path fill="#263238" d="m71.332 161.04-11.4-6.579c-.471-.279-.872-.081-.872.443a1.89 1.89 0 0 0 .873 1.454l11.399 6.608c.472.278.878.08.878-.444a1.89 1.89 0 0 0-.878-1.482"/><path fill="#455A64" d="M56.686 151.883a1.9 1.9 0 0 1 .877 1.459.55.55 0 0 1-.24.51c-.109.056-.505.297-.614.358a.65.65 0 0 1-.632-.075l-5.376-3.101a1.9 1.9 0 0 1-.874-1.454.54.54 0 0 1 .222-.5c.104-.071.52-.307.633-.368a.633.633 0 0 1 .633.07z"/><path fill="#263238" d="m56.077 152.237-5.376-3.101c-.472-.278-.874-.08-.874.444a1.88 1.88 0 0 0 .874 1.454l5.376 3.101c.472.278.873.08.873-.444a1.88 1.88 0 0 0-.873-1.454"/><path fill="#F7921E" d="m193.386 171.759-3.205 1.851-42.711 24.643q-.167.095-.345.17a2.88 2.88 0 0 1-2.544-.17l-81.094-46.818-3.922-2.266a1.4 1.4 0 0 1-.368-.288c-.406-.443-.279-1.014.368-1.392l45.897-26.493a2.9 2.9 0 0 1 1.779-.472q.228.028.439.118.119.043.227.108l85.479 49.353a.967.967 0 0 1 .34 1.302 1 1 0 0 1-.34.354"/><path fill="#fff" d="m193.386 171.759-3.205 1.851-42.711 24.643q-.167.095-.345.17a2.88 2.88 0 0 1-2.544-.17l-81.094-46.818-3.922-2.266a1.4 1.4 0 0 1-.368-.288c-.406-.443-.279-1.014.368-1.392l45.897-26.493a2.9 2.9 0 0 1 1.779-.472q.228.028.439.118.119.043.227.108l85.479 49.353a.967.967 0 0 1 .34 1.302 1 1 0 0 1-.34.354" opacity=".8"/><path fill="#455A64" d="M69.255 145.705a.3.3 0 0 1-.066-.024l-.222-.132-.543.316a.1.1 0 0 1-.047.014.1.1 0 0 1-.047-.014l-.08-.042-.038-.029v-.033l-.227-.797a.1.1 0 0 1 0-.033.1.1 0 0 1 .028-.029l.076-.042a.12.12 0 0 1 .07 0q.039.004.072.023l.783.472.123-.066a.1.1 0 0 1 .061 0q.04.003.071.024l.052.028c.023 0 .038.029.038.038s0 .024-.033.038l-.118.071.226.127q.025.013.038.038s0 .023-.038.038l-.09.056a.2.2 0 0 1-.09-.042m-.472-.284-.557-.325.165.552zM69.765 145.252a1.5 1.5 0 0 1-.68-.208c-.222-.132-.345-.26-.359-.392q-.02-.198.264-.368.119-.064.246-.109.122-.038.25-.051h.038l.047.089h-.033a.9.9 0 0 0-.354.113q-.192.114-.18.255c.01.095.104.184.279.284.143.09.304.147.472.165a.8.8 0 0 0 .42-.099l.123-.085a.3.3 0 0 0 .07-.081l-.367-.212-.227.127a.08.08 0 0 1-.066 0 .14.14 0 0 1-.066-.023l-.052-.028s-.038-.029-.038-.038c0-.01 0-.024.033-.038l.359-.208a.2.2 0 0 1 .075 0q.045.002.08.029l.525.302a.1.1 0 0 1 .037.028v.028a.6.6 0 0 1-.311.312 1.14 1.14 0 0 1-.585.208M74.253 142.561c.175.104.175.265 0 .364a.67.67 0 0 1-.627 0c-.175-.099-.175-.26 0-.364a.7.7 0 0 1 .627 0"/><path fill="#455A64" d="M73.111 142.264c-.316.184-.415.448-.292.68a.2.2 0 0 0 .188.07c.104 0 .18-.07.147-.127-.09-.165 0-.349.203-.472.253-.133.545-.174.826-.118.103 0 .207 0 .221-.085 0-.052-.042-.094-.122-.113a1.9 1.9 0 0 0-1.17.165"/><path fill="#455A64" d="M72.606 141.976c-.472.269-.642.651-.505 1.005 0 .052.1.085.189.081.104 0 .17-.066.146-.123-.108-.288.028-.6.41-.821a2.4 2.4 0 0 1 1.417-.241c.104 0 .203 0 .212-.085 0-.052-.052-.099-.141-.109a2.87 2.87 0 0 0-1.728.293M81.89 137.483a.1.1 0 0 1-.052 0v-.033l.095-.472v-.033l.028-.029.165-.094a.1.1 0 0 1 .052 0 .1.1 0 0 1 .057 0l1.35.779a.03.03 0 0 1 .004.014q0 .008-.004.014a.033.033 0 0 1 0 .033l-.17.099a.1.1 0 0 1-.057 0 .1.1 0 0 1-.056 0l-1.03-.594-.056.273-.028.029a.13.13 0 0 1-.062 0zM82.948 136.874a.1.1 0 0 1-.057 0 .04.04 0 0 1 0-.033l.1-.472a.1.1 0 0 1 0-.033l.023-.028.165-.095a.1.1 0 0 1 .057 0 .1.1 0 0 1 .056 0l1.345.779v.033l.004.014-.004.014-.17.099a.1.1 0 0 1-.056 0h-.057l-1.029-.594-.061.306a.07.07 0 0 1-.033.029.1.1 0 0 1-.057 0zM84.27 136.024a.14.14 0 0 1 .056 0 .1.1 0 0 1 .056 0l.208.118a.03.03 0 0 1 .004.014q0 .008-.004.014l.004.017-.004.017-.194.113h-.056a.1.1 0 0 1-.057 0l-.207-.118a.04.04 0 0 1 0-.033.04.04 0 0 1 0-.033zm.73.42a.12.12 0 0 1 .114 0l.203.118s.024 0 .024.033a.04.04 0 0 1-.008.019.04.04 0 0 1-.016.014l-.194.109a.12.12 0 0 1-.113 0l-.203-.118s-.023 0-.023-.033q0-.01.007-.018a.03.03 0 0 1 .016-.01zM86.43 136.024a.12.12 0 0 1-.112 0l-.25-.141-.647.373h-.057a.1.1 0 0 1-.056 0l-.147-.085c-.023 0-.033-.024-.037-.038a.1.1 0 0 1 0-.047l-.161-.826a.07.07 0 0 1 .003-.046.07.07 0 0 1 .03-.035l.16-.094h.109l.835.472.18-.104h.113l.147.09a.03.03 0 0 1 .016.01.04.04 0 0 1 .007.018s0 .024-.023.033l-.18.104.255.146s.024 0 0 .033a.04.04 0 0 1 0 .033zm-.627-.292-.444-.26.09.472zM85.865 134.712a.05.05 0 0 1 0-.033v-.033l.783-.472a.12.12 0 0 1 .114 0l.146.085s.023 0 .023.033 0 .024-.023.033l-.585.335.245.17a.4.4 0 0 1 .085-.08l.085-.057q.12-.067.25-.103a1 1 0 0 1 .264-.048 1 1 0 0 1 .265 0q.132.03.25.095a.47.47 0 0 1 .184.16.21.21 0 0 1 .038.156.25.25 0 0 1-.08.151 1 1 0 0 1-.19.142 1.6 1.6 0 0 1-.278.122 1.4 1.4 0 0 1-.495.048.8.8 0 0 1-.194-.067s-.023 0-.023-.033 0-.023.023-.033l.17-.099h.109q.058.018.118.024h.113l.104-.033.094-.047c.08-.048.123-.095.128-.151.004-.057-.029-.1-.104-.142a.4.4 0 0 0-.227-.047.54.54 0 0 0-.35.132.3.3 0 0 0-.037.047.1.1 0 0 1 0 .038.1.1 0 0 1-.038.033l-.193.113h-.109zM63.43 149.259l-.434-.25.576-.335.434.25zM64.3 148.759l-.87-.501.577-.335.868.501zM65.168 148.258l-1.303-.755.576-.33 1.307.75zM66.036 147.758l-1.737-1.005.58-.336 1.733 1.006zM105.297 123.46a.65.65 0 0 0-.34.051l-2.166 1.247c-.142.08-.104.231.08.339l.793.472a.9.9 0 0 0 .382.114.7.7 0 0 0 .17 0 .5.5 0 0 0 .17-.048l2.166-1.246c.137-.085.104-.231-.085-.339l-.788-.472a.9.9 0 0 0-.382-.118m-1.274 2.124a.4.4 0 0 1-.161-.057l-.793-.472c-.137-.08-.165-.198-.061-.26l2.166-1.246a.3.3 0 0 1 .09-.028h.052a.4.4 0 0 1 .165.057l.788.472c.137.08.165.198.066.254l-2.166 1.251a.3.3 0 0 1-.146.029"/><path fill="#455A64" d="m103.555 124.658.944.538-.34.199a.2.2 0 0 1-.118 0l-.693-.402c-.1-.056-.123-.146-.048-.193zM103.716 124.569l.406-.236.934.538-.41.236zM104.282 124.243l.401-.236.94.543-.406.236zM105.311 123.719l.675.392c.123.071.099.175-.071.269l-.137.08-.944-.543.326-.184a.2.2 0 0 1 .151-.014M105.764 123.525a.6.6 0 0 1 .402.109l.146.085c.16.094.25.198.189.236l-.099.066-.746-.429zM99.78 127.104l1.68-1.459.887 1.26-1.161-.316z"/><path fill="#37474F" d="M150.75 155.673a7 7 0 0 0-3.143-5.522c-.916-.538-1.742-.562-2.327-.179l-2.148 1.208 4.508 7.774 2.129-1.209c.594-.325.972-1.038.981-2.072"/><path fill="#455A64" d="M145.374 151.416a7.03 7.03 0 0 1 3.144 5.522c0 2.03-1.444 2.832-3.191 1.817a7.04 7.04 0 0 1-3.143-5.522c.014-2.03 1.444-2.842 3.19-1.817"/><path fill="#263238" d="M144.279 154.46c0-.793.472-1.156 1.081-.807a2.57 2.57 0 0 1 1.062 2.063c0 .792-.472 1.151-1.081.807a2.6 2.6 0 0 1-1.062-2.063"/><path fill="#000" d="M148.518 156.938a5.8 5.8 0 0 0-.435-2.124l-5.451-3.167a2.73 2.73 0 0 0-.444 1.586v.075l6.325 3.673s.005-.029.005-.043" opacity=".15"/><path fill="#455A64" d="M128.151 172.944a6.8 6.8 0 0 1-3.361-.604l-29.736-17.139c-1.798-.906-3.818-3.257-3.946-5.484l-.91-21.198 1.656-.094.916 21.202c.085 1.51 1.666 3.408 3.025 4.087l29.76 17.144a5.73 5.73 0 0 0 4.994-.288l19.824-11.432c.472-.312.75-.685.731-1.001s-.316-.628-.821-.883l-31.855-18.492c-1.794-.902-3.805-3.257-3.932-5.485l-.444-11.758 1.657-.089.444 11.752c.085 1.52 1.666 3.413 3.02 4.093l31.856 18.497c1.062.534 1.675 1.341 1.732 2.271s-.472 1.831-1.478 2.482l-19.824 11.432a6.9 6.9 0 0 1-3.308.987"/><path fill="#37474F" d="M122.808 172.467a7.02 7.02 0 0 0-3.144-5.523c-.915-.538-1.741-.566-2.322-.179l-2.152 1.208 4.508 7.774 2.128-1.208c.586-.326.982-1.039.982-2.072"/><path fill="#455A64" d="M117.422 168.209a7.01 7.01 0 0 1 3.144 5.528c0 2.024-1.44 2.832-3.191 1.812a7.02 7.02 0 0 1-3.139-5.522c.014-2.025 1.44-2.851 3.186-1.818"/><path fill="#263238" d="M116.328 171.254c0-.793.472-1.156 1.081-.807a2.55 2.55 0 0 1 1.062 2.062c0 .789-.472 1.152-1.077.803a2.56 2.56 0 0 1-1.066-2.058"/><path fill="#37474F" d="M100.822 159.794a7 7 0 0 0-3.13-5.527c-.92-.539-1.741-.567-2.326-.185l-2.153 1.204 4.494 7.783 2.133-1.208c.595-.321.973-1.034.982-2.067"/><path fill="#455A64" d="M95.455 155.531a7.03 7.03 0 0 1 3.135 5.509c0 2.025-1.45 2.832-3.196 1.807a7 7 0 0 1-3.13-5.527c.015-2.01 1.445-2.817 3.191-1.789"/><path fill="#263238" d="M94.356 158.567c0-.789.472-1.152 1.08-.803a2.58 2.58 0 0 1 1.063 2.063c0 .793-.472 1.152-1.086.807a2.6 2.6 0 0 1-1.057-2.067"/><path fill="#455A64" d="M86.643 102.833a5.53 5.53 0 0 1 2.12-5.881l19.781-11.182c1.798-1.18 3.776-.359 4.399 1.695l1.374 4.45-1.36.793-1.477-4.498a1.496 1.496 0 0 0-2.36-.826l-19.262 10.88a3.63 3.63 0 0 0-1.383 3.776l1.16 4.271-1.618.944z"/><path fill="#F7921E" d="m117.229 124.28-26.574 15.345 38.836 22.42 26.574-15.345z"/><path fill="#000" d="m117.229 124.28-26.574 15.345 38.836 22.42 26.574-15.345z" opacity=".5"/><path fill="#F7921E" d="m88.017 107.284 26.3-15.364 2.912 32.36-26.573 15.345z"/><path fill="#000" d="m88.017 107.284 26.3-15.364 2.912 32.36-26.573 15.345z" opacity=".35"/><path fill="#F7921E" d="m114.312 91.92 2.912 32.36 38.836 22.42 6.136-27.144zm13.579 31.114a2.23 2.23 0 0 1-2.784-1.444l-6.42-16.657a2.088 2.088 0 0 1 .36-2.47 2.1 2.1 0 0 1 1.616-.614 2.1 2.1 0 0 1 1.527.809c.183.236.313.508.382.798l6.419 16.656a2.23 2.23 0 0 1-1.095 2.922zm12.126 5.702a2.224 2.224 0 0 1-2.785-1.44l-6.4-16.657a2.09 2.09 0 0 1 .354-2.464 2.09 2.09 0 0 1 1.609-.621 2.09 2.09 0 0 1 1.917 1.589l6.419 16.657a2.223 2.223 0 0 1-1.109 2.936zm12.126 5.706a2.22 2.22 0 0 1-2.785-1.416l-6.414-16.656a2.1 2.1 0 0 1-.107-1.709 2.1 2.1 0 0 1 .472-.736c.207-.21.457-.373.732-.479.275-.107.57-.154.864-.138s.583.094.845.228a2.09 2.09 0 0 1 1.069 1.337l6.419 16.657a2.223 2.223 0 0 1-1.09 2.912z"/><path fill="#000" d="m114.312 91.92 2.912 32.36 38.836 22.42 6.136-27.144zm13.579 31.114a2.23 2.23 0 0 1-2.784-1.444l-6.42-16.657a2.088 2.088 0 0 1 .36-2.47 2.1 2.1 0 0 1 1.616-.614 2.1 2.1 0 0 1 1.527.809c.183.236.313.508.382.798l6.419 16.656a2.23 2.23 0 0 1-1.095 2.922zm12.126 5.702a2.224 2.224 0 0 1-2.785-1.44l-6.4-16.657a2.09 2.09 0 0 1 .354-2.464 2.09 2.09 0 0 1 1.609-.621 2.09 2.09 0 0 1 1.917 1.589l6.419 16.657a2.223 2.223 0 0 1-1.109 2.936zm12.126 5.706a2.22 2.22 0 0 1-2.785-1.416l-6.414-16.656a2.1 2.1 0 0 1-.107-1.709 2.1 2.1 0 0 1 .472-.736c.207-.21.457-.373.732-.479.275-.107.57-.154.864-.138s.583.094.845.228a2.09 2.09 0 0 1 1.069 1.337l6.419 16.657a2.223 2.223 0 0 1-1.09 2.912z" opacity=".23"/><path fill="#F7921E" d="m88.017 107.284 2.639 32.341 38.836 22.42 6.136-27.14zm15.331 31.836a2.233 2.233 0 0 1-2.785-1.444l-6.415-16.657a2.09 2.09 0 1 1 3.876-1.492l6.419 16.653a2.23 2.23 0 0 1-1.095 2.94m12.125 5.702a2.224 2.224 0 0 1-2.784-1.44l-6.401-16.657a2.09 2.09 0 0 1 .354-2.464 2.09 2.09 0 0 1 2.46-.387 2.1 2.1 0 0 1 1.066 1.355l6.415 16.657a2.223 2.223 0 0 1-1.11 2.936m12.126 5.706a2.22 2.22 0 0 1-2.78-1.439l-6.419-16.657a2.09 2.09 0 0 1-.12-1.721 2.1 2.1 0 0 1 1.211-1.228c.278-.106.575-.153.872-.137a2.1 2.1 0 0 1 1.529.797c.184.234.316.504.388.793l6.414 16.656a2.225 2.225 0 0 1-1.095 2.936"/><path fill="#000" d="m88.017 107.284 2.639 32.341 38.836 22.42 6.136-27.14zm15.331 31.836a2.233 2.233 0 0 1-2.785-1.444l-6.415-16.657a2.09 2.09 0 1 1 3.876-1.492l6.419 16.653a2.23 2.23 0 0 1-1.095 2.94m12.125 5.702a2.224 2.224 0 0 1-2.784-1.44l-6.401-16.657a2.09 2.09 0 0 1 .354-2.464 2.09 2.09 0 0 1 2.46-.387 2.1 2.1 0 0 1 1.066 1.355l6.415 16.657a2.223 2.223 0 0 1-1.11 2.936m12.126 5.706a2.22 2.22 0 0 1-2.78-1.439l-6.419-16.657a2.09 2.09 0 0 1-.12-1.721 2.1 2.1 0 0 1 1.211-1.228c.278-.106.575-.153.872-.137a2.1 2.1 0 0 1 1.529.797c.184.234.316.504.388.793l6.414 16.656a2.225 2.225 0 0 1-1.095 2.936" opacity=".15"/><path fill="#F7921E" d="m135.623 134.905 26.574-15.344-6.132 27.144-26.573 15.34z"/><path fill="#000" d="m135.623 134.905 26.574-15.344-6.132 27.144-26.573 15.34z" opacity=".4"/><path fill="#37474F" d="m130.214 99.75-3.068 1.799.009-9.294-1.859-1.07-8.421 4.86-.014 11.466-4.909 2.78 10.988 7.127 9.134-16.596z"/><path fill="#455A64" d="m118.735 97.117-.014 11.465-4.909 2.785 9.128 6.051 9.134-16.596-4.933 2.898.014-11.465z"/><path fill="#263238" d="m116.875 96.046 1.86 1.071-.014 11.465-1.86-1.071z"/><path fill="#F7921E" d="m112.242 86.936 29.179-16.846-2.432-35.1-26.747 15.444z"/><path fill="#fff" d="m112.242 86.936 29.179-16.846-2.432-35.1-26.747 15.444z" opacity=".6"/><path fill="#F7921E" d="M112.242 50.434v-2.81l-7.297-1.403 26.746-15.444 2.433 4.213h4.865z"/><path fill="#fff" d="M112.242 50.434v-2.81l-7.297-1.403 26.746-15.444 2.433 4.213h4.865z" opacity=".3"/><path fill="#F7921E" d="M131.691 30.777v8.426l2.433-1.403v-2.81z"/><path fill="#000" d="M131.691 30.777v8.426l2.433-1.403v-2.81z" opacity=".1"/><path fill="#F7921E" d="M138.988 34.99h-4.864v2.81z"/><path fill="#000" d="M138.988 34.99h-4.864v2.81z" opacity=".2"/><path fill="#F7921E" d="m104.945 46.22-2.433 35.1 9.73 5.616V47.623z"/><path fill="#000" d="m104.945 46.22-2.433 35.1 9.73 5.616V47.623z" opacity=".1"/><path fill="#F7921E" d="m112.242 47.624-4.865 36.502 4.865 2.81z"/><path fill="#000" d="m112.242 47.624-4.865 36.502 4.865 2.81z" opacity=".2"/><path fill="#F7921E" d="m112.242 86.936-4.461-5.854-5.269.239z"/><path fill="#37474F" d="M112.832 45.848c0 .476.331.673.745.435a1.66 1.66 0 0 0 .751-1.3c0-.475-.337-.672-.751-.434a1.66 1.66 0 0 0-.745 1.299M122.784 40.233c0 .476.337.673.751.43a1.66 1.66 0 0 0 .75-1.294c0-.477-.336-.673-.75-.435a1.66 1.66 0 0 0-.751 1.299"/><path fill="#37474F" d="M113.577 45.305a.253.253 0 0 1-.248-.249v-6.132c0-2.676 2.287-6.17 5.103-7.795 1.552-.905 3.053-1.081 4.083-.486.823.47 1.273 1.392 1.273 2.587v6.211a.254.254 0 0 1-.253.248.25.25 0 0 1-.249-.248v-6.21c0-1.035-.357-1.78-1.035-2.164-.869-.517-2.179-.326-3.581.487-2.676 1.552-4.855 4.844-4.855 7.36v6.142a.253.253 0 0 1-.238.249"/><path fill="#455A64" d="M120.228 50.06c0 .477.336.668.75.43a1.65 1.65 0 0 0 .75-1.293c0-.477-.336-.673-.75-.435a1.66 1.66 0 0 0-.75 1.299M130.195 44.446c0 .476.337.667.751.43a1.66 1.66 0 0 0 .75-1.295c0-.481-.336-.673-.75-.434a1.66 1.66 0 0 0-.751 1.299"/><path fill="#455A64" d="M120.988 49.518a.247.247 0 0 1-.243-.243V43.13c0-2.67 2.288-6.164 5.103-7.763 1.553-.906 3.054-1.082 4.083-.486.818.47 1.268 1.392 1.268 2.587v6.21a.246.246 0 0 1-.248.254.254.254 0 0 1-.254-.253v-6.21c0-1.036-.351-1.776-1.035-2.159-.869-.517-2.173-.326-3.581.487-2.676 1.552-4.849 4.844-4.849 7.354v6.123a.26.26 0 0 1-.074.169.26.26 0 0 1-.17.074"/><path fill="#FFA8A7" d="M191.706 57.61c-1.529 3.29-4.146 8.734-5.581 11.751l-5.613-6.612h-4.73s5.676 12.089 9.061 14.916a2.66 2.66 0 0 0 1.986.719 2.67 2.67 0 0 0 1.887-.95 50 50 0 0 0 3.8-5.256 499 499 0 0 1 3.878-5.928l3.375-14.19c-2.933-.221-5.939.982-8.063 5.55"/><path fill="#F7921E" d="M200.331 52.043c-1.803-.068-3.763-.294-5.482 1.21a14 14 0 0 0-3.752 5.255c-1.162 2.733-2.959 6.196-2.959 6.196a15.1 15.1 0 0 0 3.363 3.511 8.5 8.5 0 0 0 4.042 1.698z"/><path fill="#000" d="M200.331 52.043c-1.803-.068-3.763-.294-5.482 1.21a14 14 0 0 0-3.752 5.255c-1.162 2.733-2.959 6.196-2.959 6.196a15.1 15.1 0 0 0 3.363 3.511 8.5 8.5 0 0 0 4.042 1.698z" opacity=".45"/><path fill="#F28F8F" d="M186.125 69.361a20 20 0 0 1 1.729 2.355s-.604-2.229-1.424-2.99z"/><path fill="#455A64" d="m174.378 53.967.447-.468a.56.56 0 0 1 .499-.105l5.435.925a1.95 1.95 0 0 1 1.298.994l4.888 10.621a.53.53 0 0 1 0 .573l-.463.484a.56.56 0 0 1-.526.105l-5.413-.92a1.96 1.96 0 0 1-1.298-.998l-4.888-10.622c-.121-.263-.121-.473.021-.589"/><path fill="#263238" d="m186.482 66.413-4.888-10.627a1.96 1.96 0 0 0-1.298-.994l-5.434-.914c-.526-.084-.736.22-.526.688l4.888 10.622a1.96 1.96 0 0 0 1.298.998l5.435.92c.504.08.741-.231.525-.694"/><path fill="#37474F" d="M180.906 55.04c.295.183.535.443.694.751l4.888 10.617a.53.53 0 0 1 0 .557l.436-.452a.53.53 0 0 0 0-.568l-4.888-10.622a1.8 1.8 0 0 0-.641-.71z"/><path fill="#FFA8A7" d="M176.948 64.473c-2.249-2.58-2.186-5.812-1.151-6.748l.684 1.493s3.442.767 5.098.64c1.655-.125 3.006-.525 3.458-.199.962.678 1.24 3.558-1.514 4.61-2.339.888-6.575.204-6.575.204M216.498 149.274c-1.456.783-3.227.72-4.951 0l-.72-9.419 5.671.742zM199.117 143.645c-1.224 2.654-3.442 1.918-5.939.22l.442-9.46h6.017z"/><path fill="#263238" d="M205.892 158.187c-.148.478-.126.993.063 1.456.189.294 1.272 1.225 3.237 1.361 1.877.137 3.553-.115 4.652-.814 1.098-.699 1.634-1.472 1.739-2.539s0-2.102.494-2.927 1.22-1.614 1.383-2.024a4.14 4.14 0 0 0 0-2.176z"/><path fill="#37474F" d="M211.026 148.858a5 5 0 0 1-.226 1.188 11 11 0 0 1-1.151 2.354q-.356.577-.783 1.104c-.567.673-1.271 1.225-1.871 1.876a3.8 3.8 0 0 0-1.161 2.302c-.079 1.472 1.519 1.971 2.749 2.192a9.1 9.1 0 0 0 3.994-.2 3.68 3.68 0 0 0 2.691-2.932c.068-.41.042-.831.094-1.241a5.8 5.8 0 0 1 1.141-2.575c.343-.432.637-.901.878-1.398.383-.915.078-1.939-.169-2.843-.21-.783-.452-1.672-.725-1.577a1 1 0 0 1-.068.473 2 2 0 0 0-.216.462q-.083.312-.22.605a1.6 1.6 0 0 1-.657.72c0-.526-.037-1.109-.053-1.666a.78.78 0 0 0-.126-.489.8.8 0 0 0-.473-.205 10.3 10.3 0 0 0-3.153-.257.51.51 0 0 0-.421.184.6.6 0 0 0-.074.373q.043.775 0 1.55"/><path fill="#F5F5F5" d="M209.45 152.684c.525-.41 1.776-.415 2.449-.341a4.1 4.1 0 0 1 1.908.667.432.432 0 0 0 .658-.19.41.41 0 0 0-.138-.477 4.13 4.13 0 0 0-2.15-.799c-1.65-.116-2.133.168-2.133.168s-.747.505-.594.972M208.199 154.214c.693-.405 2.039-.347 2.712-.279a3.87 3.87 0 0 1 1.855.71.43.43 0 0 0 .562-.047.41.41 0 0 0 .077-.494.4.4 0 0 0-.119-.132 4.3 4.3 0 0 0-2.191-.856c-1.651-.116-2.103.22-2.103.22a1.37 1.37 0 0 0-.793.878M212.845 149.988a4.03 4.03 0 0 0-2.076.174c-.289.163-.484.62-.295.736a3.85 3.85 0 0 1 1.84-.253 5.5 5.5 0 0 1 1.787.494c.142.063.31.147.457.232a.4.4 0 0 0 .298.025.4.4 0 0 0 .228-.194.365.365 0 0 0-.142-.473 5.3 5.3 0 0 0-2.097-.741"/><path fill="#263238" d="M183.318 149.699c-.142.43-.116.898.074 1.309.184.384 2.186 1.513 4.888 1.33a11.2 11.2 0 0 0 5.581-1.95c1.051-.684 2.102-.81 3.437-.889s3.096-.741 3.385-1.366a2.96 2.96 0 0 0-.042-1.703z"/><path fill="#37474F" d="m194.171 141.395-.699-.273a.56.56 0 0 0-.399-.042c-.173.063-.242.268-.289.447a7 7 0 0 1-.294 1.172c-.199.31-.456.58-.757.793a12.3 12.3 0 0 1-2.16 1.393c-.883.473-1.745.841-2.66 1.251-.914.41-2.16.672-2.885 1.167-1.051.714-1.198 2.506 0 3.216 1.051.61 3.779 1.272 6.654.457 1.576-.441 3.3-2.102 5.355-2.275 1.309-.1 3.779-.468 4.62-1.462.31-.441-.105-1.834-.442-3.037-.373-1.32-.525-3.374-.951-3.259-.031.436-.41.694-.641 1.051q-.272.509-.468 1.051c-.13.363-.369.676-.683.899a.87.87 0 0 1-1.051-.058c-.384-.399-.158-1.098-.436-1.576a1.62 1.62 0 0 0-.92-.605z"/><path fill="#F5F5F5" d="M190.792 144.191a1.22 1.22 0 0 1 .967-.646c.594-.111 1.645.325 2.297.867a.49.49 0 0 1 .18.422.487.487 0 0 1-.254.382.483.483 0 0 1-.557-.063 3.73 3.73 0 0 0-2.633-.962M188.953 145.221a1.4 1.4 0 0 1 1.145-.588 4.36 4.36 0 0 1 2.513.941.47.47 0 0 1 .173.405.47.47 0 0 1-.236.372.45.45 0 0 1-.526-.057 3.74 3.74 0 0 0-1.412-.888c-.531-.185-1.098-.249-1.657-.185M186.914 146.152a1.56 1.56 0 0 1 1.187-.526 4.16 4.16 0 0 1 2.407.951.472.472 0 0 1-.063.778.465.465 0 0 1-.525-.063 3.59 3.59 0 0 0-3.006-1.14"/><path fill="#37474F" d="M215.757 78.38c.336 10.306.31 35.213.31 35.213.11 1.282.631 3.915 1.051 9.045.557 6.68-.646 21.359-.646 21.359a6.827 6.827 0 0 1-5.382.031s-3.217-20.902-4.215-27.503c-.899-5.781-2.66-18.836-2.66-18.836l-2.034 16.944a34.6 34.6 0 0 1-.205 8.472c-.473 3.038-2.575 15.526-2.575 15.526a10.65 10.65 0 0 1-5.97-.226s-.195-21.638-.253-24.45c-.057-3.211 1.425-38.12 1.425-38.12z"/><path fill="#263238" d="m204.194 97.689-1.524-8.446s-4.205-.368-6.559-2.722c0 0 .415 2.307 5.729 3.678l1.518 8.546-1.198 15.872z"/><path fill="#FAFAFA" d="M195.123 59.98c.452-3.3.888-7.736 6.002-7.941l6.601.315c1.624.426 7.941 1.172 7.941 1.172l.121 14.316s.4 10.323.279 15.846c-4.73 2.996-15.005 3.968-21.465-.935-.194-4.557.069-19.504.521-22.773"/><path fill="#37474F" d="M195.969 35.057a6.53 6.53 0 0 0-.546 5.195 6.55 6.55 0 0 0 3.436 3.934l-1.187.82 11.867 1.051-.152 2.86a2.13 2.13 0 0 0 1.266-.957c.426-.762 1.577-5.44 1.577-5.44 1.114-2.554 1.661-5.182.862-6.054a2.23 2.23 0 0 0-1.183-.683l1.577-.794a1.26 1.26 0 0 0-1.228-.754c-.17.01-.337.053-.491.129a1.3 1.3 0 0 0-.357.268q.06-.26.079-.526a2.33 2.33 0 0 0-.352-1.487 2.8 2.8 0 0 0-.836-.73c-1.335-.837-2.917-1.147-4.404-1.672-.841-.3-1.656-.668-2.486-1.004a3.16 3.16 0 0 0-1.745-.315 1.157 1.157 0 0 0-.951 1.33 2.24 2.24 0 0 0-2.449-.374 1.95 1.95 0 0 0-1.199 1.934 2.4 2.4 0 0 0-1.608.158 1.39 1.39 0 0 0-.783 1.335 3.2 3.2 0 0 0 1.293 1.776"/><path fill="#FFA8A7" d="M204.325 36.729c1.094-.132 2.176-.31 3.259-.478a.36.36 0 0 1 .289.036q.072.067.089.163c.715 2.102.694 4.336 1.262 6.454.052.195.173.526.404.526.421.047.71-.326.889-.652l.404-.73a2 2 0 0 1 .3-.374c.525-.467 2.013-1.05 2.712.557.699 1.609-.799 3.774-2.008 4.11-2.102.584-2.36-.756-2.36-.756l-.399 7.463c-1.85 1.934-7.931 1.261-6.727-.42l.078-2.271c-.927.118-1.864.136-2.796.052-1.513-.283-2.428-1.513-2.838-3.153-.657-2.67-.583-5.934-.068-9.986.063-.48.188-.95.373-1.398 2.129 1.188 4.72 1.146 7.137.857"/><path fill="#F28F8F" d="M202.517 50.383s3.422-.573 4.631-1.167a3.9 3.9 0 0 0 1.692-1.577 5.4 5.4 0 0 1-.993 1.887c-.904 1.083-5.356 1.755-5.356 1.755z"/><path fill="#263238" d="M203.006 41.963a.73.73 0 0 0 1.445.148.73.73 0 0 0-.294-.75.73.73 0 0 0-.4-.133.746.746 0 0 0-.751.735M204.021 38.926l1.529.657a.873.873 0 0 0-.447-1.12.814.814 0 0 0-1.082.462"/><path fill="#B16668" d="m203.889 45.931-2.396.815a1.24 1.24 0 0 0 1.576.835 1.32 1.32 0 0 0 .82-1.65"/><path fill="#F28F8F" d="M203.075 47.57a1.3 1.3 0 0 0 .83-.914 1.052 1.052 0 0 0-1.503.941c.222.057.456.048.673-.026"/><path fill="#263238" d="m196.93 39.54 1.525-.583a.79.79 0 0 0-.738-.525.835.835 0 0 0-.787 1.109M197.466 41.963a.73.73 0 0 0 .453.674.738.738 0 0 0 1.002-.525.73.73 0 0 0-.034-.422.735.735 0 0 0-.664-.467.75.75 0 0 0-.757.74"/><path fill="#F28F8F" d="m201.04 41.737-.11 4.037-2.249-.652 2.102-3.416a.6.6 0 0 1 .257.031"/><path fill="#F7921E" d="M194.318 64.084c.174-4.178.526-7.883 2.06-9.833s2.392-2.334 6.081-2.276v.252a1.37 1.37 0 0 0-1.051.605 21.8 21.8 0 0 0-2.838 6.307c-1.051 4.062-1.256 13.139-1.314 18.021s0 8.825 0 8.825-2.47-.579-3.232-1.814c0 0 .116-15.903.294-20.087"/><path fill="#000" d="M194.318 64.084c.174-4.178.526-7.883 2.06-9.833s2.392-2.334 6.081-2.276v.252a1.37 1.37 0 0 0-1.051.605 21.8 21.8 0 0 0-2.838 6.307c-1.051 4.062-1.256 13.139-1.314 18.021s0 8.825 0 8.825-2.47-.579-3.232-1.814c0 0 .116-15.903.294-20.087" opacity=".35"/><path fill="#F7921E" d="M207.074 57.43c.526-2.228 1.614-3.678 2.103-4.83l4.614.652c1.698.783 3.905 2.628 3.742 4.52l-1.209 13.696.337 12.971c-2.628 4.095-10.512 3.338-10.512 3.338s-.226-5.834.027-17.102c.157-6.317.231-10.406.898-13.244"/><path fill="#000" d="M207.074 57.43c.526-2.228 1.614-3.678 2.103-4.83l4.614.652c1.698.783 3.905 2.628 3.742 4.52l-1.209 13.696.337 12.971c-2.628 4.095-10.512 3.338-10.512 3.338s-.226-5.834.027-17.102c.157-6.317.231-10.406.898-13.244" opacity=".35"/><path fill="#37474F" d="M206.858 58.53c.305-1.43.468-4.09.72-4.626.253-.536 1.624-1.577 1.677-2.318v-.467c.434.084.835.29 1.156.593.431.384 1.703 1.272 1.703 1.272a5.8 5.8 0 0 1-.956 2.46c-.757 1.088-1.808 1.797-1.971 1.53-.163-.269-.137-.678-.416-1.31-.346-.793-.431-1.13-.798-.346-.274.625-1.115 3.211-1.115 3.211M198.991 57.746c-.373 1.209.609-4.173 1.251-5.12.641-.945 2.27-1.318 2.27-1.318l-.068 1.161c-.429.102-.804.36-1.051.725a19.7 19.7 0 0 0-2.402 4.552"/><path fill="#F7921E" d="M206.691 59.66c3.53.36 7.039.91 10.511 1.644l-.037.39a99 99 0 0 0-10.538-1.651c.037-.116.048-.247.064-.384M194.645 59.586a55 55 0 0 1 3.894-.326l-.095.394a53 53 0 0 0-3.841.326c.01-.132.026-.268.042-.394"/><path fill="#FFA8A7" d="M226.142 71.716c-4.93-12.52-6.008-16.414-9.487-17.87a9.4 9.4 0 0 0-2.864-.61c-.857 1.578-2.102 7.632 2.008 11.847 0 0 2.985 7.358 4.488 10.837-.047 3.5.205 6.418-.862 11.148a3.15 3.15 0 0 1-1.188 1.576c-1.251.689-1.461 1.467-2.386 2.355-.72.694-1.351.857-1.246 1.088a1.36 1.36 0 0 0 1.577.557 11.7 11.7 0 0 0 1.94-1.015c.12.142-1.052 2.008-2.266 3.37-1.802 2.002-2.239 3.447 1.362 3.589 2.254.09 4.688-1.76 6.217-6.254.3-.889.615-2.17.936-3.422.231-.525 1.881-8.966 2.228-11.562.462-3.206.347-3.6-.457-5.634"/><path fill="#F7921E" d="M213.176 53.253c1.5-.214 3.03.055 4.367.767 1.95 1.177 2.628 2.207 4.977 7.684 2.35 5.476 2.812 6.533 2.812 6.533s-1.051 3.121-7.326 3.479l-2.812-6.412s-2.333-2.907-2.549-6.496.531-5.555.531-5.555"/><path fill="#000" d="M213.176 53.253c1.5-.214 3.03.055 4.367.767 1.95 1.177 2.628 2.207 4.977 7.684 2.35 5.476 2.812 6.533 2.812 6.533s-1.051 3.121-7.326 3.479l-2.812-6.412s-2.333-2.907-2.549-6.496.531-5.555.531-5.555" opacity=".45"/><path fill="#FAFAFA" d="M63.137 13.019c-.062-.46-.436-.63-.88-.37L13.965 40.536a1.86 1.86 0 0 0-.629.666l-1.668-.966c.15-.27.366-.498.629-.661l48.292-27.888a1.644 1.644 0 0 1 2.548 1.332"/><path fill="#E0E0E0" d="M13.797 129.273a2.3 2.3 0 0 1-.522.127 1.76 1.76 0 0 1-1.036-.176 1.91 1.91 0 0 1-.821-1.508v-86.6a1 1 0 0 1 0-.107q.012-.113.037-.222.074-.29.221-.55l1.669.965a1.8 1.8 0 0 0-.26.875v86.6c0 .411.202.637.49.637a.6.6 0 0 0 .115 0 .6.6 0 0 0 .107-.041"/><path fill="#FAFAFA" d="M13.078 42.08v86.601c0 .567.41.797.887.509l48.293-27.883a1.97 1.97 0 0 0 .887-1.54v-86.6c0-.568-.41-.798-.887-.514L13.965 40.54a1.95 1.95 0 0 0-.887 1.54"/><path fill="#E0E0E0" d="m22.31 60.563 31.615-18.244c.493-.287.891-.057.891.514v.822a1.98 1.98 0 0 1-.891 1.54L22.323 63.444c-.493.284-.892.054-.892-.513v-.822a1.96 1.96 0 0 1 .88-1.545"/><path fill="#E6E6E6" d="M27.32 66.792 48.902 54.33c.494-.284.892-.053.892.514v.821a1.96 1.96 0 0 1-.892 1.541L27.32 69.664c-.493.284-.892.054-.892-.513v-.822a1.96 1.96 0 0 1 .892-1.537M27.32 72.652l21.583-12.459c.502-.3.913-.053.913.522v.822a1.96 1.96 0 0 1-.892 1.54L27.34 75.54c-.493.284-.892.054-.892-.513v-.822a1.97 1.97 0 0 1 .871-1.553M27.32 78.515l21.583-12.458c.494-.284.892-.053.892.513v.822a1.96 1.96 0 0 1-.892 1.541L27.32 81.391c-.493.284-.892.054-.892-.513v-.822a1.97 1.97 0 0 1 .892-1.54"/><path fill="#E0E0E0" d="M22.31 90.649 53.926 72.4c.493-.284.891-.054.891.513v.822a1.98 1.98 0 0 1-.891 1.54L22.323 93.526c-.493.283-.892.053-.892-.514v-.822a1.96 1.96 0 0 1 .88-1.54"/><path fill="#E6E6E6" d="M27.32 96.903 48.902 84.44c.494-.283.892-.053.892.514v.822a1.96 1.96 0 0 1-.892 1.54L27.32 99.792c-.493.284-.892.054-.892-.513v-.822a1.96 1.96 0 0 1 .892-1.553M27.32 102.762 48.902 90.3c.494-.284.892-.058.892.514v.821a1.96 1.96 0 0 1-.892 1.541L27.32 105.64c-.493.283-.892.053-.892-.514v-.822a1.97 1.97 0 0 1 .892-1.541M27.32 108.625l21.583-12.462c.494-.284.892-.053.892.514v.821a1.96 1.96 0 0 1-.892 1.541L27.32 111.497c-.493.284-.892.054-.892-.513v-.822a1.97 1.97 0 0 1 .892-1.537"/><path fill="#F7921E" d="M20.483 53.873v-9.978a1.2 1.2 0 0 1 .091-.491.63.63 0 0 1 .276-.298l1.675-.948q2.121-1.183 2.121 1.8a5.3 5.3 0 0 1-.975 3.203v.062c.275.077.509.512.707 1.315L25 51.21v.09a.5.5 0 0 1 0 .097q-.002.361-.566.692l-.304.173q-.486.279-.537-.056l-.573-2.691a1.1 1.1 0 0 0-.29-.575c-.105-.069-.268-.048-.494.077l-.382.221v3.875a.9.9 0 0 1-.166.46.9.9 0 0 1-.386.308l-.282.16c-.354.186-.537.138-.537-.167m2.12-6.982c.235-.172.404-.415.481-.692.14-.398.207-.817.198-1.238.036-.343-.03-.69-.19-.997-.128-.166-.305-.18-.531-.055l-.707.401v3.01zM25.915 51.229a.64.64 0 0 1-.086-.413v-10.09a1.3 1.3 0 0 1 .085-.513.63.63 0 0 1 .271-.291l3.063-1.764q.15-.087.214.05.07.237.057.483v.42q.006.285-.057.562a.5.5 0 0 1-.214.291l-2.023 1.167v2.801l1.802-1.038q.15-.087.214.05c.048.159.067.325.057.49v.406q.008.285-.057.562a.47.47 0 0 1-.213.291l-1.803 1.046v3.079l2.03-1.173c.093-.05.164-.036.207.05q.072.239.057.49v.42q.008.287-.057.568a.46.46 0 0 1-.206.278l-3.07 1.77c-.129.064-.215.072-.271.008M34.335 48.27a31 31 0 0 0-2.567-.63c-.472-.097-.825-.503-1.064-1.23a11.2 11.2 0 0 1-.353-3.226q0-5.667 2.534-7.2 2.535-1.53 2.514 4.136c0 2.798-.459 4.834-1.383 6.087v.063l1.55.265c.08 0 .12.077.12.203a3.5 3.5 0 0 1-.107.539q-.085.36-.226.7a.82.82 0 0 1-.26.42 2.5 2.5 0 0 1-.758-.127m-.552-4.148c.228-1.048.326-2.123.293-3.198a9 9 0 0 0-.286-2.798q-.29-.712-.898-.343a2.3 2.3 0 0 0-.911 1.441 13 13 0 0 0-.293 3.177c-.054.96.044 1.922.293 2.847q.031.151.13.268a.6.6 0 0 0 .236.168.55.55 0 0 0 .545-.093 2.33 2.33 0 0 0 .891-1.47M37.156 43.663c-.435-.334-.65-1.021-.65-2.084v-7.397a.86.86 0 0 1 .158-.452.9.9 0 0 1 .378-.305l.328-.18q.535-.304.535.153v7.34c-.037.356.068.712.293.994.2.187.456.187.777 0 .346-.208.616-.517.771-.882.2-.415.303-.868.3-1.327v-7.327a.87.87 0 0 1 .156-.456.9.9 0 0 1 .379-.308l.314-.174c.364-.201.542-.145.542.153v7.425a5.94 5.94 0 0 1-.65 2.778 4.5 4.5 0 0 1-1.812 1.882q-1.166.666-1.819.167M42.76 41.373a.67.67 0 0 1-.085-.412V30.863a1.2 1.2 0 0 1 .085-.504.65.65 0 0 1 .27-.3l3.064-1.763c.1-.056.171-.042.207.05.053.155.075.32.064.484v.42q.01.285-.064.561a.45.45 0 0 1-.207.291l-2.023 1.167v2.809l1.802-1.039q.15-.084.214.043.069.241.057.49v.42q.006.285-.057.562a.45.45 0 0 1-.214.284l-1.802 1.046v3.065l2.03-1.174c.093-.057.164-.042.2.043.054.16.076.33.064.498v.42a2 2 0 0 1-.064.568.46.46 0 0 1-.2.277l-3.07 1.771c-.128.071-.214.078-.27.021M47.934 38.521a.75.75 0 0 1-.34-.013.8.8 0 0 1-.305-.162 2 2 0 0 1-.09-.197.8.8 0 0 1 0-.245c.005-.29.044-.578.116-.856.025-.215.113-.414.251-.569a.23.23 0 0 1 .194 0l.16.05a.92.92 0 0 0 .883-.106 1.8 1.8 0 0 0 .612-.702c.176-.35.263-.745.252-1.143a1.3 1.3 0 0 0-.226-.892 1.5 1.5 0 0 0-.69-.35 2.15 2.15 0 0 1-.792-.365 1.63 1.63 0 0 1-.483-.751 4.3 4.3 0 0 1-.174-1.403c-.009-.9.179-1.79.548-2.597a3.97 3.97 0 0 1 1.436-1.719q.302-.193.645-.266a.86.86 0 0 1 .547.042c.09.049.136.168.136.343a4 4 0 0 1-.104.85q-.104.493-.238.575a.36.36 0 0 1-.219 0 1.13 1.13 0 0 0-.709.196 1.5 1.5 0 0 0-.605.702 2.35 2.35 0 0 0-.206.954c-.01.242.034.483.128.702.062.14.167.252.297.316q.164.074.605.21c.397.1.748.348.992.702.258.527.37 1.124.323 1.72 0 .614-.079 1.225-.232 1.817a5.7 5.7 0 0 1-.69 1.613c-.29.458-.668.841-1.108 1.123-.275.208-.586.35-.914.421M52.851 34.983v-8.752l-1.279.69c-.092.055-.164.04-.206-.049a1.2 1.2 0 0 1-.064-.469v-.407a1.9 1.9 0 0 1 .064-.545.5.5 0 0 1 .206-.282l3.959-2.215c.1-.055.17-.04.213.035.06.151.085.314.071.476v.407q.013.285-.071.558a.48.48 0 0 1-.213.276l-1.28.69v8.773a.86.86 0 0 1-.157.449.9.9 0 0 1-.376.303l-.334.187c-.362.227-.533.172-.533-.125"/></svg>