<svg xmlns="http://www.w3.org/2000/svg" width="256" height="256" fill="none"><g clip-path="url(#a)"><path stroke="#D5D5D5" d="M46.925 222.151c-22.383-11.689-33.424-26.934-33.425-42.049s11.04-30.363 33.425-42.057C69.3 126.357 98.658 120.5 128.042 120.5s58.741 5.857 81.113 17.545c22.383 11.694 33.424 26.94 33.425 42.053s-11.039 30.359-33.425 42.053c-22.375 11.688-51.731 17.545-81.115 17.545s-58.74-5.857-81.115-17.545Z"/><path fill="#F7921E" d="m166.289 120.263-27.091-15.642-28.741 16.639 27.085 15.636z"/><path fill="#fff" d="m166.289 120.263-27.091-15.642-28.741 16.639 27.085 15.636z" opacity=".8"/><path fill="#F7921E" d="m137.542 168.545 28.747-16.633v-31.648l-28.747 16.632z"/><path fill="#fff" d="m137.544 168.547 28.747-16.633v-31.648l-28.747 16.632z" opacity=".6"/><path fill="#455A64" d="M140.665 161.432a.7.7 0 0 1-.372-.098 1.13 1.13 0 0 1-.47-1.037v-3.26l.157.033 2.38-1.402v3.397a2.76 2.76 0 0 1-1.174 2.217 1.1 1.1 0 0 1-.521.15m-.457-3.912v2.777a.79.79 0 0 0 .274.704.54.54 0 0 0 .515-.058 2.4 2.4 0 0 0 .985-1.885v-.254h-.887l-.17-1.187zm1.219.939h.555v-2.1l-1.441.809.704.13z"/><path fill="#455A64" d="M141.095 163.858a.2.2 0 0 1-.076-.013.18.18 0 0 1-.106-.107.2.2 0 0 1-.013-.075v-2.55a.196.196 0 0 1 .384 0v2.55a.2.2 0 0 1-.012.074.2.2 0 0 1-.041.063.185.185 0 0 1-.136.058"/><path fill="#455A64" d="M139.986 164.496a.2.2 0 0 1-.098-.026.2.2 0 0 1-.071-.072.2.2 0 0 1-.024-.071.2.2 0 0 1 .005-.075.2.2 0 0 1 .034-.066.2.2 0 0 1 .057-.049l2.216-1.304a.2.2 0 0 1 .071-.026.18.18 0 0 1 .143.039q.03.024.047.059a.2.2 0 0 1 .024.069.2.2 0 0 1-.005.073.2.2 0 0 1-.034.066.2.2 0 0 1-.057.046l-2.216 1.304a.2.2 0 0 1-.092.033M147.882 160.1a.5.5 0 0 1-.208-.052.5.5 0 0 1-.229-.463v-.521c0-.051.02-.099.056-.134a.19.19 0 0 1 .134-.055c.05 0 .099.019.136.054a.2.2 0 0 1 .059.135v.652a.2.2 0 0 0 .065-.004.2.2 0 0 0 .059-.029 1.1 1.1 0 0 0 .359-.861v-3.397a.188.188 0 0 1 .322-.133.19.19 0 0 1 .056.133v3.397a1.44 1.44 0 0 1-.541 1.187.54.54 0 0 1-.268.091"/><path fill="#455A64" d="M145.875 157.136v-.326a5.4 5.4 0 0 1 2.439-4.232 1.61 1.61 0 0 1 1.825-.136 1.62 1.62 0 0 1 .783 1.655v.111zm3.58-4.525a1.9 1.9 0 0 0-.952.3 5.05 5.05 0 0 0-2.23 3.553l4.29-2.477a1.41 1.41 0 0 0-.587-1.246 1.07 1.07 0 0 0-.521-.13M154.737 156.198a.196.196 0 0 1-.189-.196v-6.52a.2.2 0 0 1 .067-.114.19.19 0 0 1 .25 0 .2.2 0 0 1 .068.114v6.52a.197.197 0 0 1-.196.196"/><path fill="#455A64" d="M154.181 150.985a.2.2 0 0 1-.078 0 .2.2 0 0 1-.101-.107.2.2 0 0 1 .003-.147l.652-1.565.756.874a.183.183 0 0 1 0 .267.19.19 0 0 1-.267 0l-.359-.417-.436 1.017a.2.2 0 0 1-.17.078M156.503 155.186a.2.2 0 0 1-.073-.014.2.2 0 0 1-.061-.041.2.2 0 0 1-.041-.062.2.2 0 0 1-.014-.072v-6.52a.185.185 0 0 1 .053-.138.18.18 0 0 1 .136-.058c.052 0 .101.021.138.058a.2.2 0 0 1 .057.138v6.52a.2.2 0 0 1-.059.134.2.2 0 0 1-.136.055"/><path fill="#455A64" d="M155.947 149.985h-.078a.18.18 0 0 1-.115-.176.2.2 0 0 1 .017-.072l.652-1.571.757.874a.2.2 0 0 1 .029.211.2.2 0 0 1-.046.059.187.187 0 0 1-.138.048.2.2 0 0 1-.132-.064l-.359-.417-.417.991a.18.18 0 0 1-.17.117"/><path fill="#F7921E" d="m137.542 168.547-27.085-15.635v-31.648l27.085 15.635z"/><path fill="#fff" d="m137.542 168.543-27.085-15.635V121.26l27.085 15.635z" opacity=".3"/><path fill="#455A64" d="m121.751 127.778 28.767-16.62 4.512 2.608-28.774 16.62z"/><path fill="#37474F" d="M121.751 127.777v5.216l.626-.365.841 1.213.522-.443.925 1.278.587-.47 1.004 1.395v-5.216zM142.244 113.158c2.428 1.403 6.354 1.403 8.791 0 2.436-1.402 2.423-3.671 0-5.073s-6.354-1.402-8.791 0-2.428 3.671 0 5.073"/><path fill="#EBEBEB" d="M151.878 110.402V99.924h-10.487v10.478c-.046.808.453 1.625 1.529 2.238 2.047 1.184 5.368 1.184 7.42 0 1.075-.627 1.602-1.43 1.538-2.238"/><path fill="#FAFAFA" d="M142.929 102.067c2.047 1.184 5.369 1.184 7.42 0 2.051-1.185 2.047-3.1 0-4.284-2.047-1.185-5.373-1.185-7.42 0-2.046 1.184-2.051 3.104 0 4.284"/><path fill="#EBEBEB" d="M143.157 101.894a7.86 7.86 0 0 0 6.966 0c1.924-1.089 1.924-2.85 0-3.934a7.83 7.83 0 0 0-6.966 0c-1.924 1.084-1.924 2.845 0 3.934"/><path fill="#F5F5F5" d="M150.128 98.47a7.84 7.84 0 0 0-6.966 0 1.743 1.743 0 0 0 0 3.426 7.86 7.86 0 0 0 6.966 0 1.75 1.75 0 0 0 1.423-1.714 1.74 1.74 0 0 0-1.423-1.713"/><path fill="#F7921E" d="M141.391 108.633c0 .781.503 1.561 1.538 2.156 2.047 1.184 5.369 1.184 7.42 0 1.026-.59 1.538-1.362 1.538-2.142v-7.012c0 .772-.512 1.548-1.538 2.142-2.051 1.18-5.373 1.18-7.42 0-1.035-.599-1.547-1.361-1.538-2.16z"/><path fill="#000" d="M141.391 108.633c0 .781.503 1.561 1.538 2.156 2.047 1.184 5.369 1.184 7.42 0 1.026-.59 1.538-1.362 1.538-2.142v-7.012c0 .772-.512 1.548-1.538 2.142-2.051 1.18-5.373 1.18-7.42 0-1.035-.599-1.547-1.361-1.538-2.16z" opacity=".3"/><path fill="#000" d="M148.786 113.261c-1.928.499-4.275.295-5.858-.621-1.067-.613-1.575-1.43-1.53-2.238V99.924c0 .776.513 1.552 1.539 2.146a6.3 6.3 0 0 0 2.146.749v8.858c-.009.876 1.275 1.92 3.703 1.584" opacity=".1"/><path fill="#E0E0E0" d="m147.858 101.796-.558-.322c-.454-.259-.572-.613-.268-.79a1.586 1.586 0 0 1 1.361.159l.558.322c.454.259.572.613.268.785-.224.079-.462.106-.698.079a1.6 1.6 0 0 1-.663-.233"/><path fill="#F5F5F5" d="M147.554 101.24c.233 0 .422-.11.422-.245s-.189-.245-.422-.245-.422.11-.422.245.189.245.422.245M148.356 101.768a.67.67 0 0 0 .599 0 .2.2 0 0 0 .091-.066.18.18 0 0 0 0-.213.2.2 0 0 0-.091-.066.66.66 0 0 0-.599 0 .185.185 0 0 0-.125.173.18.18 0 0 0 .125.172"/><path fill="#37474F" d="M138.859 118.703c3.431 0 6.213-1.607 6.213-3.59s-2.782-3.59-6.213-3.59-6.213 1.608-6.213 3.59c0 1.983 2.782 3.59 6.213 3.59"/><path fill="#EBEBEB" d="M144.1 114.898V104.42h-10.488v10.478c-.045.804.454 1.62 1.53 2.238 2.046 1.184 5.373 1.184 7.419 0 1.076-.618 1.584-1.434 1.539-2.238"/><path fill="#FAFAFA" d="M135.151 106.567c2.047 1.18 5.373 1.18 7.42 0s2.051-3.104 0-4.284-5.373-1.184-7.42 0c-2.047 1.185-2.051 3.091 0 4.284"/><path fill="#EBEBEB" d="M135.379 106.383a7.84 7.84 0 0 0 6.966 0c1.924-1.085 1.924-2.846 0-3.935a7.86 7.86 0 0 0-6.966 0c-1.924 1.089-1.924 2.85 0 3.935"/><path fill="#F5F5F5" d="M142.342 102.94a7.86 7.86 0 0 0-6.966 0 1.75 1.75 0 0 0-1.423 1.713 1.74 1.74 0 0 0 1.423 1.714 7.84 7.84 0 0 0 6.966 0 1.75 1.75 0 0 0 1.424-1.714 1.75 1.75 0 0 0-1.424-1.713"/><path fill="#F7921E" d="M133.612 113.121c0 .78.509 1.565 1.539 2.16 2.046 1.184 5.373 1.184 7.42 0 1.025-.595 1.538-1.362 1.538-2.142v-7.025c0 .776-.513 1.552-1.538 2.142-2.047 1.184-5.374 1.184-7.42 0-1.03-.595-1.543-1.362-1.539-2.16z"/><path fill="#000" d="M133.612 113.121c0 .78.509 1.565 1.539 2.16 2.046 1.184 5.373 1.184 7.42 0 1.025-.595 1.538-1.362 1.538-2.142v-7.025c0 .776-.513 1.552-1.538 2.142-2.047 1.184-5.374 1.184-7.42 0-1.03-.595-1.543-1.362-1.539-2.16z" opacity=".3"/><path fill="#000" d="M141.009 117.753c-1.929.499-4.275.299-5.859-.622-1.066-.613-1.574-1.425-1.529-2.237V104.42c0 .776.513 1.552 1.538 2.142a6.2 6.2 0 0 0 2.147.749v8.858c-.009.876 1.275 1.92 3.703 1.584" opacity=".1"/><path fill="#E0E0E0" d="m140.056 106.284-.553-.318c-.454-.263-.572-.617-.272-.789.223-.079.462-.106.698-.079s.462.106.663.233l.558.322c.454.259.572.613.268.79a1.59 1.59 0 0 1-1.362-.159"/><path fill="#F5F5F5" d="M139.775 105.734c.233 0 .422-.109.422-.245 0-.135-.189-.245-.422-.245-.234 0-.422.11-.422.245 0 .136.188.245.422.245M140.597 106.254a.66.66 0 0 0 .599 0 .2.2 0 0 0 .09-.066.183.183 0 0 0-.09-.279.67.67 0 0 0-.599 0 .2.2 0 0 0-.091.066.19.19 0 0 0 0 .213.2.2 0 0 0 .091.066"/><path fill="#37474F" d="M126.688 122.141c2.427 1.402 6.353 1.402 8.79 0s2.428-3.671 0-5.074c-2.428-1.402-6.353-1.402-8.79 0-2.437 1.403-2.428 3.672 0 5.074"/><path fill="#EBEBEB" d="M136.321 119.383v-10.479h-10.487v10.479c-.045.808.454 1.624 1.529 2.237 2.051 1.184 5.373 1.184 7.42 0 1.076-.613 1.584-1.439 1.538-2.237"/><path fill="#FAFAFA" d="M127.373 111.047c2.051 1.185 5.373 1.185 7.419 0 2.047-1.184 2.052-3.099 0-4.284s-5.368-1.184-7.419 0c-2.052 1.185-2.047 3.1 0 4.284"/><path fill="#EBEBEB" d="M127.599 110.875a7.86 7.86 0 0 0 6.966 0c1.924-1.09 1.924-2.85 0-3.935a7.84 7.84 0 0 0-6.966 0c-1.924 1.085-1.924 2.845 0 3.935"/><path fill="#F5F5F5" d="M134.566 107.45a7.82 7.82 0 0 0-6.966 0 1.74 1.74 0 0 0-1.423 1.713 1.74 1.74 0 0 0 1.423 1.713 7.86 7.86 0 0 0 6.966 0 1.743 1.743 0 0 0 0-3.426"/><path fill="#F7921E" d="M125.834 117.615c0 .781.508 1.562 1.538 2.156 2.052 1.185 5.374 1.185 7.42 0 1.026-.59 1.539-1.361 1.539-2.142v-7.016c0 .776-.513 1.552-1.539 2.142-2.046 1.185-5.368 1.185-7.42 0-1.03-.594-1.543-1.361-1.538-2.155z"/><path fill="#000" d="M125.834 117.615c0 .781.508 1.562 1.538 2.156 2.052 1.185 5.374 1.185 7.42 0 1.026-.59 1.539-1.361 1.539-2.142v-7.016c0 .776-.513 1.552-1.539 2.142-2.046 1.185-5.368 1.185-7.42 0-1.03-.594-1.543-1.361-1.538-2.155z" opacity=".3"/><path fill="#E0E0E0" d="m132.283 110.776-.558-.323c-.454-.258-.572-.612-.273-.789a1.58 1.58 0 0 1 1.362.159l.553.317c.454.264.572.617.273.79a1.59 1.59 0 0 1-1.357-.154"/><path fill="#F5F5F5" d="M131.697 110.151a.67.67 0 0 0 .599 0 .2.2 0 0 0 .09-.066.18.18 0 0 0 0-.213.2.2 0 0 0-.09-.066.66.66 0 0 0-.599 0 .2.2 0 0 0-.09.066.18.18 0 0 0 0 .213.2.2 0 0 0 .09.066M132.8 110.75a.66.66 0 0 0 .599 0c.168-.095.168-.249 0-.344a.67.67 0 0 0-.599 0 .18.18 0 0 0-.091.066.18.18 0 0 0 0 .212.18.18 0 0 0 .091.066"/><path fill="#000" d="M133.231 122.242c-1.929.499-4.275.295-5.854-.622-1.071-.613-1.575-1.425-1.534-2.237v-10.479c0 .776.517 1.552 1.543 2.147a6.2 6.2 0 0 0 2.147.749v8.858c-.009.885 1.275 1.92 3.698 1.584" opacity=".1"/><path fill="#37474F" d="M118.913 126.627c2.424 1.403 6.354 1.403 8.786 0 2.433-1.402 2.428-3.671 0-5.073s-6.353-1.398-8.786 0-2.427 3.676 0 5.073"/><path fill="#EBEBEB" d="M128.543 123.872v-10.474H118.06v10.474c-.041.808.454 1.625 1.529 2.242 2.052 1.18 5.373 1.18 7.425 0 1.071-.617 1.574-1.434 1.529-2.242"/><path fill="#FAFAFA" d="M123.307 116.428c2.897 0 5.246-1.357 5.246-3.031s-2.349-3.032-5.246-3.032-5.246 1.357-5.246 3.032c0 1.674 2.348 3.031 5.246 3.031"/><path fill="#EBEBEB" d="M119.821 115.363a7.88 7.88 0 0 0 6.971 0c1.924-1.084 1.924-2.85 0-3.934a7.88 7.88 0 0 0-6.971 0c-1.915 1.084-1.915 2.854 0 3.934"/><path fill="#F5F5F5" d="M126.791 111.938a7.87 7.87 0 0 0-6.97 0 1.745 1.745 0 0 0-1.021 2.827c.26.313.621.525 1.021.6a7.87 7.87 0 0 0 6.97 0 1.745 1.745 0 0 0 1.021-2.827 1.75 1.75 0 0 0-1.021-.6"/><path fill="#F7921E" d="M118.061 122.102c0 .78.503 1.561 1.534 2.16 2.051 1.18 5.373 1.18 7.424 0 1.021-.595 1.534-1.361 1.534-2.142v-7.016c0 .776-.513 1.552-1.534 2.142-2.051 1.185-5.373 1.185-7.424 0-1.031-.594-1.543-1.361-1.534-2.16z"/><path fill="#000" d="M118.061 122.102c0 .78.503 1.561 1.534 2.16 2.051 1.18 5.373 1.18 7.424 0 1.021-.595 1.534-1.361 1.534-2.142v-7.016c0 .776-.513 1.552-1.534 2.142-2.051 1.185-5.373 1.185-7.424 0-1.031-.594-1.543-1.361-1.534-2.16z" opacity=".3"/><path fill="#000" d="M125.454 126.733c-1.929.499-4.275.299-5.854-.622-1.071-.613-1.575-1.425-1.534-2.237v-10.497c0 .781.517 1.557 1.543 2.146.663.38 1.391.634 2.146.749v8.859c-.009.894 1.275 1.937 3.699 1.602" opacity=".1"/><path fill="#E0E0E0" d="m124.505 115.264-.558-.317c-.454-.264-.572-.617-.268-.79.224-.078.463-.105.699-.079.235.027.462.107.663.233l.553.323c.454.258.577.612.273.789a1.577 1.577 0 0 1-1.362-.159"/><path fill="#F5F5F5" d="M124.219 114.715c.233 0 .422-.11.422-.245 0-.136-.189-.245-.422-.245s-.422.109-.422.245c0 .135.189.245.422.245M125.025 115.235a.65.65 0 0 0 .595 0c.168-.096.168-.25 0-.345a.65.65 0 0 0-.595 0c-.168.095-.168.249 0 .345"/><path fill="#37474F" d="M149.428 119.315c2.428 1.402 6.353 1.402 8.79 0 2.437-1.403 2.423-3.672 0-5.074s-6.353-1.402-8.79 0-2.428 3.671 0 5.074"/><path fill="#EBEBEB" d="M159.062 116.559V106.08h-10.488v10.479c-.045.807.454 1.624 1.529 2.237 2.047 1.184 5.369 1.184 7.42 0 1.076-.626 1.602-1.43 1.539-2.237"/><path fill="#FAFAFA" d="M150.113 108.223c2.047 1.184 5.368 1.184 7.42 0s2.046-3.099 0-4.284c-2.047-1.184-5.373-1.184-7.42 0-2.047 1.185-2.051 3.104 0 4.284"/><path fill="#EBEBEB" d="M150.341 108.05a7.87 7.87 0 0 0 6.966 0c1.924-1.089 1.924-2.85 0-3.934a7.83 7.83 0 0 0-6.966 0c-1.925 1.084-1.925 2.845 0 3.934"/><path fill="#F5F5F5" d="M157.311 104.626a7.82 7.82 0 0 0-6.966 0 1.74 1.74 0 0 0-1.423 1.713 1.74 1.74 0 0 0 1.423 1.713 7.86 7.86 0 0 0 6.966 0 1.745 1.745 0 0 0 1.021-2.827 1.74 1.74 0 0 0-1.021-.599"/><path fill="#F7921E" d="M148.574 114.789c0 .781.504 1.561 1.539 2.156 2.046 1.184 5.368 1.184 7.42 0 1.025-.59 1.538-1.362 1.538-2.142v-7.011c0 .771-.513 1.547-1.538 2.142-2.052 1.179-5.374 1.179-7.42 0-1.035-.599-1.548-1.362-1.539-2.161z"/><path fill="#000" d="M148.574 114.789c0 .781.504 1.561 1.539 2.156 2.046 1.184 5.368 1.184 7.42 0 1.025-.59 1.538-1.362 1.538-2.142v-7.011c0 .771-.513 1.547-1.538 2.142-2.052 1.179-5.374 1.179-7.42 0-1.035-.599-1.548-1.362-1.539-2.161z" opacity=".3"/><path fill="#000" d="M155.97 119.418c-1.929.499-4.275.295-5.859-.622-1.066-.613-1.574-1.43-1.529-2.237V106.08c0 .776.513 1.552 1.538 2.147.665.376 1.392.63 2.147.748v8.859c-.009.876 1.275 1.919 3.703 1.584" opacity=".1"/><path fill="#E0E0E0" d="m155.041 107.952-.558-.322c-.454-.259-.572-.612-.268-.789a1.575 1.575 0 0 1 1.362.158l.558.323c.454.258.572.612.268.785a1.58 1.58 0 0 1-1.362-.155"/><path fill="#F5F5F5" d="M154.737 107.396c.234 0 .423-.109.423-.245 0-.135-.189-.245-.423-.245s-.422.11-.422.245c0 .136.189.245.422.245M155.54 107.924a.66.66 0 0 0 .599 0 .2.2 0 0 0 .09-.066.18.18 0 0 0 0-.213.2.2 0 0 0-.09-.066.67.67 0 0 0-.599 0 .2.2 0 0 0-.09.066.18.18 0 0 0 .09.279"/><path fill="#37474F" d="M146.043 124.859c3.431 0 6.212-1.607 6.212-3.59s-2.781-3.589-6.212-3.589-6.213 1.607-6.213 3.589c0 1.983 2.782 3.59 6.213 3.59"/><path fill="#EBEBEB" d="M151.283 121.055v-10.479h-10.487v10.479c-.046.803.454 1.62 1.529 2.237 2.047 1.184 5.373 1.184 7.42 0 1.075-.617 1.584-1.434 1.538-2.237"/><path fill="#FAFAFA" d="M142.335 112.723c2.046 1.18 5.373 1.18 7.419 0 2.047-1.18 2.052-3.104 0-4.284s-5.373-1.184-7.419 0c-2.047 1.185-2.052 3.091 0 4.284"/><path fill="#EBEBEB" d="M142.562 112.539a7.84 7.84 0 0 0 6.966 0c1.924-1.085 1.924-2.846 0-3.935a7.86 7.86 0 0 0-6.966 0c-1.924 1.089-1.924 2.85 0 3.935"/><path fill="#F5F5F5" d="M149.526 109.097a7.87 7.87 0 0 0-6.966 0 1.74 1.74 0 0 0-1.423 1.713 1.74 1.74 0 0 0 1.423 1.713 7.84 7.84 0 0 0 6.966 0 1.745 1.745 0 0 0 1.021-2.827 1.74 1.74 0 0 0-1.021-.599"/><path fill="#F7921E" d="M140.796 119.277c0 .78.508 1.566 1.538 2.16 2.047 1.184 5.373 1.184 7.42 0 1.026-.594 1.539-1.361 1.539-2.142v-7.025c0 .776-.513 1.552-1.539 2.142-2.047 1.185-5.373 1.185-7.42 0-1.03-.594-1.543-1.361-1.538-2.16z"/><path fill="#000" d="M140.796 119.277c0 .78.508 1.566 1.538 2.16 2.047 1.184 5.373 1.184 7.42 0 1.026-.594 1.539-1.361 1.539-2.142v-7.025c0 .776-.513 1.552-1.539 2.142-2.047 1.185-5.373 1.185-7.42 0-1.03-.594-1.543-1.361-1.538-2.16z" opacity=".3"/><path fill="#000" d="M148.193 123.909c-1.929.499-4.275.3-5.859-.622-1.067-.612-1.575-1.425-1.529-2.237v-10.474c0 .776.512 1.552 1.538 2.142.662.382 1.39.636 2.146.749v8.858c-.009.876 1.276 1.92 3.704 1.584" opacity=".1"/><path fill="#E0E0E0" d="m147.24 112.44-.554-.318c-.453-.263-.571-.617-.272-.789.224-.079.463-.106.699-.079s.462.107.663.233l.558.322c.454.259.572.613.268.79a1.59 1.59 0 0 1-1.362-.159"/><path fill="#F5F5F5" d="M146.958 111.891c.233 0 .422-.11.422-.246 0-.135-.189-.245-.422-.245s-.422.11-.422.245c0 .136.189.246.422.246M147.78 112.411a.67.67 0 0 0 .599 0 .2.2 0 0 0 .09-.066.18.18 0 0 0-.09-.279.66.66 0 0 0-.599 0 .2.2 0 0 0-.09.066.18.18 0 0 0 0 .213.2.2 0 0 0 .09.066"/><path fill="#37474F" d="M133.871 128.297c2.428 1.402 6.354 1.402 8.79 0 2.437-1.402 2.428-3.671 0-5.073s-6.353-1.403-8.79 0c-2.437 1.402-2.428 3.671 0 5.073"/><path fill="#EBEBEB" d="M143.505 125.539v-10.478h-10.488v10.478c-.045.808.454 1.625 1.53 2.237 2.051 1.185 5.373 1.185 7.42 0 1.075-.612 1.583-1.438 1.538-2.237"/><path fill="#FAFAFA" d="M134.556 117.204c2.051 1.184 5.373 1.184 7.42 0 2.047-1.185 2.051-3.1 0-4.284-2.051-1.185-5.369-1.185-7.42 0-2.051 1.184-2.046 3.099 0 4.284"/><path fill="#EBEBEB" d="M134.783 117.031a7.86 7.86 0 0 0 6.966 0c1.924-1.089 1.924-2.85 0-3.935a7.84 7.84 0 0 0-6.966 0c-1.924 1.085-1.924 2.846 0 3.935"/><path fill="#F5F5F5" d="M141.75 113.606a7.84 7.84 0 0 0-6.966 0 1.745 1.745 0 0 0-1.021 2.827c.26.313.621.525 1.021.599a7.87 7.87 0 0 0 6.966 0 1.74 1.74 0 0 0 1.423-1.713 1.74 1.74 0 0 0-1.423-1.713"/><path fill="#F7921E" d="M133.018 123.772c0 .78.508 1.561 1.538 2.155 2.051 1.185 5.373 1.185 7.42 0 1.025-.59 1.538-1.361 1.538-2.142v-7.016c0 .776-.513 1.552-1.538 2.142-2.047 1.185-5.369 1.185-7.42 0-1.03-.594-1.543-1.361-1.538-2.155z"/><path fill="#000" d="M133.018 123.772c0 .78.508 1.561 1.538 2.155 2.051 1.185 5.373 1.185 7.42 0 1.025-.59 1.538-1.361 1.538-2.142v-7.016c0 .776-.513 1.552-1.538 2.142-2.047 1.185-5.369 1.185-7.42 0-1.03-.594-1.543-1.361-1.538-2.155z" opacity=".3"/><path fill="#E0E0E0" d="m139.466 116.932-.558-.322c-.454-.259-.572-.613-.272-.79a1.6 1.6 0 0 1 1.361.159l.554.318c.454.263.572.617.272.789a1.58 1.58 0 0 1-1.357-.154"/><path fill="#F5F5F5" d="M138.881 116.307a.66.66 0 0 0 .599 0 .2.2 0 0 0 .09-.066.18.18 0 0 0 0-.213.2.2 0 0 0-.09-.066.67.67 0 0 0-.599 0 .2.2 0 0 0-.091.066.18.18 0 0 0 0 .213.2.2 0 0 0 .091.066M139.983 116.907a.67.67 0 0 0 .599 0c.168-.096.168-.25 0-.345a.66.66 0 0 0-.599 0 .2.2 0 0 0-.09.066.18.18 0 0 0 0 .213.2.2 0 0 0 .09.066"/><path fill="#000" d="M140.415 128.398c-1.929.499-4.275.295-5.854-.622-1.071-.612-1.575-1.425-1.534-2.237v-10.478c0 .776.517 1.552 1.543 2.146a6.2 6.2 0 0 0 2.146.749v8.858c-.009.885 1.275 1.92 3.699 1.584" opacity=".1"/><path fill="#37474F" d="M126.097 132.784c2.423 1.402 6.353 1.402 8.786 0 2.432-1.403 2.428-3.672 0-5.074s-6.354-1.398-8.786 0-2.428 3.676 0 5.074"/><path fill="#EBEBEB" d="M135.727 130.029v-10.474h-10.483v10.474c-.041.807.453 1.624 1.529 2.241 2.051 1.18 5.373 1.18 7.424 0 1.071-.617 1.575-1.434 1.53-2.241"/><path fill="#FAFAFA" d="M130.49 122.584c2.897 0 5.246-1.357 5.246-3.031s-2.349-3.032-5.246-3.032-5.246 1.358-5.246 3.032 2.349 3.031 5.246 3.031"/><path fill="#EBEBEB" d="M127.005 121.519a7.87 7.87 0 0 0 6.97 0c1.924-1.084 1.924-2.85 0-3.934a7.87 7.87 0 0 0-6.97 0c-1.915 1.084-1.915 2.854 0 3.934"/><path fill="#F5F5F5" d="M133.975 118.095a7.88 7.88 0 0 0-6.971 0 1.741 1.741 0 0 0 0 3.426 7.88 7.88 0 0 0 6.971 0 1.745 1.745 0 0 0 1.021-2.827 1.74 1.74 0 0 0-1.021-.599"/><path fill="#F7921E" d="M125.244 128.258c0 .781.504 1.561 1.534 2.16 2.051 1.18 5.373 1.18 7.424 0 1.022-.594 1.534-1.361 1.534-2.142v-7.016c0 .776-.512 1.552-1.534 2.142-2.051 1.185-5.373 1.185-7.424 0-1.03-.594-1.543-1.361-1.534-2.16z"/><path fill="#000" d="M125.244 128.258c0 .781.504 1.561 1.534 2.16 2.051 1.18 5.373 1.18 7.424 0 1.022-.594 1.534-1.361 1.534-2.142v-7.016c0 .776-.512 1.552-1.534 2.142-2.051 1.185-5.373 1.185-7.424 0-1.03-.594-1.543-1.361-1.534-2.16z" opacity=".3"/><path fill="#000" d="M132.637 132.889c-1.928.499-4.275.299-5.854-.622-1.071-.613-1.574-1.425-1.534-2.237v-10.497c0 .781.518 1.557 1.543 2.147a6.2 6.2 0 0 0 2.147.749v8.858c-.009.894 1.275 1.938 3.698 1.602" opacity=".1"/><path fill="#E0E0E0" d="m131.689 121.421-.558-.318c-.454-.263-.572-.617-.268-.79.224-.078.463-.105.698-.078.236.026.463.106.663.233l.554.322c.454.258.576.612.272.789a1.57 1.57 0 0 1-1.361-.158"/><path fill="#F5F5F5" d="M131.403 120.871c.233 0 .422-.11.422-.245s-.189-.245-.422-.245c-.234 0-.423.11-.423.245s.189.245.423.245M132.209 121.391a.65.65 0 0 0 .594 0c.168-.095.168-.25 0-.345a.65.65 0 0 0-.594 0c-.168.095-.168.25 0 .345"/><path fill="#F7921E" d="m125.612 128.483-32.449-18.735-34.425 19.93 32.442 18.728z"/><path fill="#fff" d="m125.612 128.483-32.449-18.735-34.425 19.93 32.442 18.728z" opacity=".8"/><path fill="#F7921E" d="m91.18 186.311 34.432-19.923V128.48L91.18 148.403z"/><path fill="#fff" d="m91.18 186.313 34.432-19.923v-37.908L91.18 148.405z" opacity=".6"/><path fill="#455A64" d="M94.92 177.794a.85.85 0 0 1-.444-.117 1.35 1.35 0 0 1-.562-1.242v-3.904l.187.039 2.85-1.679v4.068a3.3 3.3 0 0 1-1.405 2.656c-.19.111-.405.172-.625.179m-.546-4.685v3.326a.95.95 0 0 0 .328.844.649.649 0 0 0 .617-.07 2.89 2.89 0 0 0 1.18-2.257v-.305h-1.063l-.203-1.421zm1.46 1.124h.665v-2.515l-1.727.969.844.156z"/><path fill="#455A64" d="M95.437 180.698a.2.2 0 0 1-.091-.015.24.24 0 0 1-.128-.128.2.2 0 0 1-.016-.091v-3.054a.235.235 0 0 1 .38-.137c.043.035.071.084.081.137v3.054a.227.227 0 0 1-.226.234"/><path fill="#455A64" d="M94.109 181.467a.24.24 0 0 1-.117-.031.24.24 0 0 1-.086-.086.227.227 0 0 1 .086-.313l2.655-1.562a.2.2 0 0 1 .085-.031.21.21 0 0 1 .17.047.2.2 0 0 1 .058.07.22.22 0 0 1 .022.171.21.21 0 0 1-.108.134l-2.656 1.562a.3.3 0 0 1-.109.039M103.567 176.199a.6.6 0 0 1-.25-.062.62.62 0 0 1-.274-.555v-.625a.226.226 0 0 1 .227-.226.232.232 0 0 1 .234.226v.781a.2.2 0 0 0 .078-.004.2.2 0 0 0 .071-.035 1.32 1.32 0 0 0 .429-1.031V170.6a.23.23 0 0 1 .066-.161.23.23 0 0 1 .321 0 .23.23 0 0 1 .066.161v4.068a1.73 1.73 0 0 1-.648 1.422.65.65 0 0 1-.32.109"/><path fill="#455A64" d="M101.161 172.647v-.391a6.477 6.477 0 0 1 2.921-5.068 1.936 1.936 0 0 1 3.124 1.819v.133zm4.288-5.42a2.3 2.3 0 0 0-1.141.359 6.06 6.06 0 0 0-2.67 4.256l5.138-2.967a1.7 1.7 0 0 0-.703-1.492 1.3 1.3 0 0 0-.624-.156M111.775 171.523a.23.23 0 0 1-.16-.072.23.23 0 0 1-.066-.163v-7.809a.235.235 0 0 1 .23-.192.234.234 0 0 1 .231.192v7.809a.234.234 0 0 1-.235.235"/><path fill="#455A64" d="M111.11 165.28a.2.2 0 0 1-.094 0 .234.234 0 0 1-.117-.304l.781-1.874.906 1.046a.22.22 0 0 1 .051.247.2.2 0 0 1-.051.073.226.226 0 0 1-.321 0l-.429-.5-.523 1.219a.2.2 0 0 1-.09.073.2.2 0 0 1-.113.02M113.89 170.311a.22.22 0 0 1-.16-.066.2.2 0 0 1-.05-.073.2.2 0 0 1-.017-.087v-7.81a.23.23 0 0 1 .138-.216.233.233 0 0 1 .254.051.23.23 0 0 1 .069.165v7.81a.24.24 0 0 1-.071.161.24.24 0 0 1-.163.065"/><path fill="#455A64" d="M113.226 164.081h-.094a.217.217 0 0 1-.117-.297l.781-1.882.906 1.047a.23.23 0 1 1-.344.304l-.429-.499-.5 1.187a.22.22 0 0 1-.203.14"/><path fill="#F7921E" d="m91.18 186.315-32.442-18.727V129.68l32.442 18.727z"/><path fill="#fff" d="m91.18 186.315-32.442-18.727V129.68l32.442 18.727z" opacity=".3"/><path fill="#455A64" d="m72.265 137.479 34.456-19.907 5.404 3.124-34.464 19.907z"/><path fill="#37474F" d="M72.265 137.48v6.248l.75-.437 1.007 1.452.625-.531 1.109 1.531.702-.562 1.203 1.671v-6.248z"/><path fill="#000" d="m29.642 191.863 31.875-18.404 40.083 23.136L69.725 215z"/><path fill="#37474F" d="M61.518 173.458V141.99L29 160.767l27.206 15.759z"/><path fill="#263238" d="M61.519 141.99v31.468l13.52 7.8 27.205-15.758zM29 160.764v30.722l40.725 23.509v-30.673z"/><path fill="#37474F" d="M69.726 184.322v30.673l32.518-18.777v-30.722z"/><path fill="#455A64" d="m69.726 184.322.635 29.506 23.62-12.836-24.255 14.004z"/><path fill="#E0E0E0" d="M73.609 205.12a.63.63 0 0 1-.332-.09 1.01 1.01 0 0 1-.415-.919v-2.915h.139l2.127-1.251v3.102a2.44 2.44 0 0 1-1.05 1.983.96.96 0 0 1-.47.09m-.408-3.524v2.515a.69.69 0 0 0 .249.622.48.48 0 0 0 .462-.048 2.17 2.17 0 0 0 .878-1.686v-.221h-.788l-.159-1.071zm1.092.836h.497v-1.879l-1.271.753.628.111z"/><path fill="#E0E0E0" d="M73.995 207.303a.17.17 0 0 1-.122-.051.17.17 0 0 1-.05-.122v-2.28c0-.045.018-.089.05-.122a.174.174 0 0 1 .244 0c.032.033.05.077.05.122v2.28c0 .046-.017.09-.05.122a.17.17 0 0 1-.122.051"/><path fill="#E0E0E0" d="M73 207.882a.18.18 0 0 1-.163-.22.17.17 0 0 1 .08-.105l1.982-1.14a.172.172 0 0 1 .256.124.162.162 0 0 1-.034.124.2.2 0 0 1-.05.043l-1.982 1.174q-.045.015-.09 0M80.074 203.946a.4.4 0 0 1-.187-.049.45.45 0 0 1-.207-.414v-.435c0-.046.018-.09.05-.122a.17.17 0 0 1 .245 0c.032.032.05.076.05.122v.469a.18.18 0 0 0 0 .118s.055 0 .11-.035a.99.99 0 0 0 .319-.766v-3.04c0-.046.018-.09.05-.122a.17.17 0 0 1 .244 0c.033.032.051.076.051.122v3.04a1.3 1.3 0 0 1-.484 1.063.5.5 0 0 1-.241.049"/><path fill="#E0E0E0" d="M78.272 201.288v-.311a4.84 4.84 0 0 1 2.19-3.786 1.45 1.45 0 0 1 2.355 1.382v.103zm3.212-4.049a1.8 1.8 0 0 0-.857.263 4.5 4.5 0 0 0-1.996 3.184l3.84-2.217a1.28 1.28 0 0 0-.524-1.112.96.96 0 0 0-.463-.118M86.209 200.443a.175.175 0 0 1-.173-.173v-5.81c0-.046.018-.09.05-.122a.17.17 0 0 1 .245 0c.032.032.05.076.05.122v5.824a.174.174 0 0 1-.172.159"/><path fill="#E0E0E0" d="M85.712 195.785h-.07a.172.172 0 0 1-.09-.228l.609-1.381.69.78a.174.174 0 0 1-.055.281.17.17 0 0 1-.131 0 .2.2 0 0 1-.055-.039l-.325-.366-.394.905a.2.2 0 0 1-.083.051.2.2 0 0 1-.097-.003M87.79 199.544a.17.17 0 0 1-.121-.05.18.18 0 0 1-.05-.123v-5.817a.17.17 0 0 1 .172-.165.17.17 0 0 1 .173.165v5.817a.174.174 0 0 1-.173.173"/><path fill="#E0E0E0" d="M87.287 194.882a.1.1 0 0 1-.062 0 .15.15 0 0 1-.057-.035.16.16 0 0 1-.033-.186l.608-1.382.69.788a.166.166 0 0 1 0 .242.18.18 0 0 1-.117.046.18.18 0 0 1-.117-.046l-.325-.373-.394.905a.17.17 0 0 1-.193.041"/><path fill="#FAFAFA" d="m35.963 182.577 8.878 5.126a.89.89 0 0 1 .4.691v6.176c0 .504-.359.691-.794.463l-8.877-5.112a.88.88 0 0 1-.401-.691v-6.218c0-.483.36-.691.794-.435"/><path fill="#455A64" d="m35.75 183.537.296.173v5.444l-.304-.173zM36.972 184.244l.525.311v5.444l-.525-.304zM38.202 184.953l.304.173v5.451l-.304-.18zM39.134 185.48l.6.36v5.45l-.6-.359zM40.661 186.377l.304.173v5.444l-.304-.173zM41.546 186.875l.65.38v5.451l-.65-.387zM43.121 187.793l.304.173v5.45l-.304-.179zM43.825 188.193l.152.083v5.451l-.152-.09zM42.562 187.496l.152.09v5.444l-.152-.09zM40.089 186.047l.152.09v5.444l-.152-.09zM38.727 185.264l.152.089v5.444l-.152-.083zM37.752 184.734l.152.083v5.451l-.152-.09zM36.433 183.924l.152.09v5.443l-.152-.082zM44.352 188.504l.304.173v5.443l-.304-.172zM61.518 141.992 29 160.769l40.725 23.558 32.519-18.825z"/><path fill="#fff" d="m29 160.77 40.725 22.397 32.519-17.665-32.519 18.825z" opacity=".1"/><path fill="#F7921E" d="m42.491 152.969 40.753 23.53 5.009-2.895-40.746-23.53z"/><path fill="#F7921E" d="M88.256 173.598v6.369l-.608-.345-.629 1.084-.629-.366-.628 1.099-.629-.373-.629 1.084-.635-.359-.629 1.092v-6.384z"/><path fill="#000" d="M88.256 173.598v6.369l-.608-.345-.629 1.084-.629-.366-.628 1.099-.629-.373-.629 1.084-.635-.359-.629 1.092v-6.384z" opacity=".25"/><path fill="#F7921E" d="M118.985 109.404 94.07 95l-26.234 15.179 24.914 14.404z"/><path fill="#fff" d="M118.985 109.404 94.07 95l-26.234 15.179 24.914 14.404z" opacity=".3"/><path fill="#F7921E" d="m92.751 141.994 26.235-15.179v-17.413l-26.235 15.18z"/><path fill="#455A64" d="M95.803 135.696a.6.6 0 0 1-.288-.075.89.89 0 0 1-.361-.801v-2.54l.119.021 1.854-1.082v2.641a2.17 2.17 0 0 1-.912 1.725.85.85 0 0 1-.412.111m-.36-3.063v2.187a.61.61 0 0 0 .212.544.42.42 0 0 0 .404-.043 1.89 1.89 0 0 0 .762-1.468v-.192h-.686l-.133-.927zm.948.722h.43v-1.631l-1.104.646.548.097z"/><path fill="#455A64" d="M96.136 137.582a.2.2 0 0 1-.057-.011.145.145 0 0 1-.08-.083.2.2 0 0 1-.01-.057v-1.967a.147.147 0 1 1 .296 0v1.985a.147.147 0 0 1-.148.133"/><path fill="#455A64" d="M95.27 138.08a.152.152 0 0 1-.13-.076.15.15 0 0 1 .055-.202l1.728-.996a.13.13 0 0 1 .055-.019.14.14 0 0 1 .147.073.15.15 0 0 1-.054.203l-1.725.995a.15.15 0 0 1-.076.022M101.423 134.657a.3.3 0 0 1-.162-.043.39.39 0 0 1-.177-.361v-.404c0-.039.016-.077.044-.104a.145.145 0 0 1 .209 0 .14.14 0 0 1 .043.104v.404a.14.14 0 0 0 .004.054.14.14 0 0 0 .025.047s.047 0 .097-.025a.9.9 0 0 0 .21-.306.9.9 0 0 0 .065-.365v-2.641a.152.152 0 0 1 .299 0v2.641a1.14 1.14 0 0 1-.422.927.45.45 0 0 1-.235.072"/><path fill="#455A64" d="M99.857 132.353v-.256a4.21 4.21 0 0 1 1.902-3.295 1.255 1.255 0 0 1 1.439-.125 1.26 1.26 0 0 1 .61 1.309v.086zm2.793-3.522a1.5 1.5 0 0 0-.743.231 3.92 3.92 0 0 0-1.739 2.768l3.341-1.927a1.1 1.1 0 0 0-.458-.971.8.8 0 0 0-.401-.101M106.759 131.615a.2.2 0 0 1-.056-.011.2.2 0 0 1-.048-.033.13.13 0 0 1-.032-.048.13.13 0 0 1-.012-.056v-5.051a.15.15 0 0 1 .148-.148.147.147 0 0 1 .148.148v5.051a.15.15 0 0 1-.043.104.2.2 0 0 1-.048.033.2.2 0 0 1-.057.011"/><path fill="#455A64" d="M106.323 127.567a.14.14 0 0 1-.058 0 .15.15 0 0 1-.078-.082.15.15 0 0 1 .002-.113l.527-1.22.592.682q.02.021.032.048a.16.16 0 0 1 0 .114.2.2 0 0 1-.032.048.15.15 0 0 1-.11.034.15.15 0 0 1-.103-.052l-.278-.322-.361.787a.147.147 0 0 1-.133.076M108.134 130.837a.14.14 0 0 1-.056-.011.13.13 0 0 1-.048-.032.14.14 0 0 1-.032-.048.14.14 0 0 1-.012-.056v-5.052c0-.039.016-.077.044-.104a.145.145 0 0 1 .209 0 .14.14 0 0 1 .043.104v5.052a.146.146 0 0 1-.148.147"/><path fill="#455A64" d="M107.698 126.782a.14.14 0 0 1-.058 0 .16.16 0 0 1-.08-.081.14.14 0 0 1-.011-.057q0-.03.012-.057l.53-1.22.588.679a.142.142 0 0 1 .033.161.14.14 0 0 1-.033.048.14.14 0 0 1-.104.043.2.2 0 0 1-.057-.011.2.2 0 0 1-.048-.032l-.278-.321-.343.786a.16.16 0 0 1-.151.062"/><path fill="#F7921E" d="m92.75 141.998-24.914-14.4v-17.416l24.914 14.403z"/><path fill="#000" d="m92.75 141.998-24.914-14.4v-17.416l24.914 14.403z" opacity=".1"/><path fill="#FAFAFA" d="m70.986 120.711 7.324 4.221a.74.74 0 0 1 .332.574v5.08c0 .419-.295.592-.66.383l-7.31-4.225a.73.73 0 0 1-.332-.571v-5.083c-.01-.419.285-.589.646-.379"/><path fill="#455A64" d="m70.805 121.5.249.144v4.485l-.25-.144zM71.815 122.086l.43.252v4.485l-.43-.252zM72.828 122.67l.25.144v4.485l-.25-.144zM73.593 123.104l.498.295v4.485l-.498-.296zM74.854 123.838l.249.144v4.485l-.25-.144zM75.583 124.252l.534.317v4.485l-.534-.317zM76.878 125.01l.249.144v4.485l-.25-.144zM77.455 125.336l.126.072v4.485l-.126-.072zM76.416 124.766l.126.072v4.485l-.126-.072zM74.379 123.566l.126.073v4.484l-.126-.072zM73.26 122.928l.123.072v4.485l-.122-.069zM72.456 122.49l.126.072v4.485l-.126-.072zM71.37 121.822l.123.069v4.488l-.123-.072zM77.89 125.594l.25.144v4.485l-.25-.144z"/><path fill="#37474F" d="m78.296 118.863 1.703.986v-2.645l-1.703-.985z"/><path fill="#455A64" d="m79.999 117.203 26.235-15.179-1.704-.985-26.234 15.179z"/><path fill="#F7921E" d="M85.395 135.464 59.55 120.572 29 138.238l25.844 14.891z"/><path fill="#fff" d="M85.395 135.464 59.55 120.572 29 138.238l25.844 14.891z" opacity=".7"/><path fill="#F7921E" d="m54.844 174.564 30.55-17.67v-21.429l-30.55 17.665z"/><path fill="#fff" d="m54.844 174.564 30.55-17.67v-21.429l-30.55 17.665z" opacity=".6"/><path fill="#455A64" d="M59.01 166.317a.66.66 0 0 1-.324-.083 1 1 0 0 1-.402-.897v-2.825l.134.024 2.062-1.212v2.941a2.38 2.38 0 0 1-1.013 1.923.96.96 0 0 1-.457.129m-.398-3.416v2.436a.67.67 0 0 0 .24.606.46.46 0 0 0 .463-.046 2.1 2.1 0 0 0 .85-1.637v-.217h-.763l-.152-1.031zm1.059.813h.462v-1.807l-1.235.721.61.111z"/><path fill="#455A64" d="M59.366 168.418a.16.16 0 0 1-.118-.049.17.17 0 0 1-.048-.117v-2.21a.17.17 0 0 1 .094-.179.17.17 0 0 1 .197.044.16.16 0 0 1 .037.135v2.21a.167.167 0 0 1-.162.166"/><path fill="#455A64" d="M58.405 168.972a.14.14 0 0 1-.084-.02.16.16 0 0 1-.06-.063.167.167 0 0 1 .06-.227l1.924-1.109a.2.2 0 0 1 .064-.031.17.17 0 0 1 .136.027.165.165 0 0 1 .059.191.17.17 0 0 1-.097.1l-1.92 1.109a.2.2 0 0 1-.082.023M65.25 165.144a.34.34 0 0 1-.18-.046.46.46 0 0 1-.199-.397v-.463c0-.044.018-.086.05-.117a.16.16 0 0 1 .117-.049c.044 0 .086.017.118.049a.17.17 0 0 1 .048.117v.463c0 .069 0 .101.033.111a.16.16 0 0 0 .106-.028.97.97 0 0 0 .31-.749v-2.941a.168.168 0 0 1 .037-.135.17.17 0 0 1 .197-.043.2.2 0 0 1 .057.043.17.17 0 0 1 .037.135v2.941a1.25 1.25 0 0 1-.462 1.031.54.54 0 0 1-.269.078"/><path fill="#455A64" d="M63.508 162.591v-.287a4.69 4.69 0 0 1 2.117-3.671 1.38 1.38 0 0 1 1.623-.169 1.39 1.39 0 0 1 .661 1.492v.092zm3.107-3.925a1.7 1.7 0 0 0-.823.259 4.37 4.37 0 0 0-1.937 3.083l3.698-2.149a1.21 1.21 0 0 0-.513-1.078.87.87 0 0 0-.425-.111zM71.196 161.777a.17.17 0 0 1-.118-.049.166.166 0 0 1-.049-.118v-5.631a.167.167 0 0 1 .167-.167.167.167 0 0 1 .166.167v5.631a.167.167 0 0 1-.166.167"/><path fill="#455A64" d="M70.711 157.286a.162.162 0 0 1-.148-.231l.588-1.364.656.759a.166.166 0 0 1-.116.284.2.2 0 0 1-.062-.013.2.2 0 0 1-.053-.036l-.314-.36-.38.878a.17.17 0 0 1-.072.069.16.16 0 0 1-.099.014M72.727 160.902a.17.17 0 0 1-.118-.049.168.168 0 0 1-.049-.118v-5.631a.167.167 0 0 1 .166-.166c.045 0 .088.017.119.048a.17.17 0 0 1 .048.118v5.631a.17.17 0 0 1-.048.118.174.174 0 0 1-.118.049"/><path fill="#455A64" d="M72.243 156.388h-.065a.167.167 0 0 1-.083-.218l.587-1.363.656.762a.167.167 0 0 1-.018.232.2.2 0 0 1-.056.031.17.17 0 0 1-.125-.01.2.2 0 0 1-.05-.04l-.315-.36-.379.878a.2.2 0 0 1-.063.066.2.2 0 0 1-.09.022"/><path fill="#F7921E" d="M54.844 174.563 29 159.667v-21.429l25.844 14.892z"/><path fill="#fff" d="M54.844 174.563 29 159.667v-21.429l25.844 14.892z" opacity=".4"/><path fill="#FAFAFA" d="m32.518 150.447 9.386 5.409a.95.95 0 0 1 .425.735v6.51c0 .536-.38.758-.846.49l-9.367-5.414a.93.93 0 0 1-.425-.73v-6.515c-.014-.536.365-.753.827-.485"/><path fill="#455A64" d="m32.287 151.461.32.185v5.747l-.32-.185zM33.582 152.209l.55.324v5.746l-.55-.323zM34.88 152.957l.32.185v5.747l-.32-.185zM35.862 153.516l.638.379v5.746l-.638-.379zM37.475 154.457l.319.185v5.747l-.32-.185zM38.41 154.982l.683.407v5.747l-.684-.407zM40.068 155.955l.32.185v5.747l-.32-.185zM40.808 156.373l.161.093v5.746l-.161-.092zM39.476 155.641l.161.092v5.747l-.161-.093zM36.864 154.109l.162.093v5.747l-.162-.093zM35.435 153.289l.157.093v5.746l-.157-.088zM34.405 152.721l.162.088v5.751l-.162-.093zM33.013 151.877l.157.088v5.751l-.157-.092zM41.367 156.703l.32.18v5.752l-.32-.185z"/><path fill="#37474F" d="m39.675 148.122 2.432 1.406v-3.773l-2.432-1.405z"/><path fill="#455A64" d="m42.107 145.757 30.555-17.671-2.437-1.4-30.55 17.665z"/><path fill="#E0E0E0" d="M203.705 58.195c-4.608.218-6.188 1.406-8.384 4.422-2.678 3.685-15.079 22.365-15.079 22.365s3.818 5.428 8.481 4.898l9.801-10.501z"/><path fill="#FFA8A7" d="M225.227 183.773h-5.959v10.628h5.959zM204.568 183.208l-5.959.211-.296-11.243 6.255-.211z"/><path fill="#455A64" d="M226.071 91.773c0 5.93-.15 53.851-.15 53.851.138 1.707.947 4.632.603 11.183-.453 8.896-1.05 32.281-1.05 32.281a7.569 7.569 0 0 1-6.634.139s-5.64-32.39-6.708-41.208c-.935-7.697-2.515-33.609-2.515-33.609l-3.227 30.158c.69 3.225.941 6.528.748 9.82-.277 4.083-2.195 25.333-2.195 25.333a7.85 7.85 0 0 1-3.379 1.07 7.85 7.85 0 0 1-3.504-.527s-4.391-32.173-4.457-35.913c-.078-4.27 1.725-52.644 1.725-52.644z"/><path fill="#263238" d="M219.268 191.339v-.887c-.567.253-1.894 5.519-4.259 7.769-1.882 1.809-4.445 3.848-5.097 5.839-.651 1.99 3.571 3.214 5.326 2.889 2.045-.374 5.58-1.876 6.466-3.263s1.303-3.432 2.027-4.446 2.382-2.153 2.774-3.329c.218-.646-.042-2.063-.337-3.257-.278-1.098-.603-2.31-.941-2.202v.676c-.428.5-1.629.995-2.98 1.049-.887.03-2.986-.145-2.979-.838M198.548 181.531c-.313 0-.561.464-1.248 1.236a13 13 0 0 1-3.505 2.624c-2.231 1.164-6.568 2.955-8.534 3.878-1.207.573-1.164 2.117.102 3.016s4.331 1.508 8.004.651c2.003-.464 4.608-2.412 6.261-2.286 1.653.127 4.735.079 5.953-.796 1.219-.874.73-2.744.386-4.349-.374-1.749-.844-4.481-1.399-4.361v.604c-.718 1.134-4.415 1.592-5.989.76zM209.629 114.411a21.9 21.9 0 0 1-8.3-4.958s1.605 3.125 6.363 6.032l-1.019 26.901z"/><path fill="#F0F0F0" d="M222.965 59.444s4.669.428 4.337 9.313l-1.031 14.15.03 21.238c-4.385 4.97-25.05 4.59-31.697-.411 0 0 .779-24.38 1.207-34.048.32-6.876 3.106-11.08 9.862-11.834l8.311.362z"/><path fill="#000" d="m209.726 64.107-1.068 7.462-2.497-.049 2.811.44z" opacity=".1"/><path fill="#263238" d="M215.776 40.191c0 4.904-3.818 8.885-8.529 8.885s-8.318-3.981-8.529-8.885c-.38-8.673 3.818-8.884 8.529-8.884s8.529 3.975 8.529 8.884M220.933 36.771c-1.002-1.556-1.937-1.32-1.937-1.32l-.651 7.533-1.049.217-.091 10.2a2.92 2.92 0 0 0 1.285-1.382c.356-.712 1.11-5.024 1.532-7.612-.006 0 1.761-6.327.911-7.636"/><path fill="#FFA8A7" d="M217.434 44.895c.495.308 1.206-.681 1.81-1.345.603-.663 2.599-1.574 3.588.603.99 2.178-.874 5.151-2.442 5.664-2.697.88-3.101-.923-3.101-.923l-.205 10.145c-3.619 5.537-11.701 5.338-8.782-.271V55.68a16.2 16.2 0 0 1-3.619.199c-1.984-.32-3.233-1.955-3.836-4.222-.971-3.62-1.333-6.497-.513-13.566.899-7.744 9.548-7.84 14.223-4.765 4.675 3.077 2.877 11.57 2.877 11.57"/><path fill="#455A64" d="M217.139 56.766a13 13 0 0 1-3.511 4.397 10 10 0 0 1-4.222 1.81 9.4 9.4 0 0 1 3.016 3.365c.893 1.966 7.202-3.456 7.142-7.31 0 0-.99-3.867-2.347-4.114zM209.369 62.967s-1.942-.965-1.067-4.222v-3.089l-.851.115a7.5 7.5 0 0 0-2.05 3.553c-.193.88-.676 5.362.18 6.248s2.051-2.364 3.788-2.605"/><path fill="#263238" d="M204.297 37.579c4.011.108 6.502-.742 9.82-1.134a1.3 1.3 0 0 1 .669.042c.73.338.893 2.612 1.02 3.275.434 2.22.796 5.978 1.628 5.996.247 0 1.207-1.629 1.81-2.208.85-.808-.248-8.118-.248-8.124a8 8 0 0 1 .199-.996 3.4 3.4 0 0 0-.518-1.851 5.66 5.66 0 0 0-2.974-2.413c-2.25-.88-4.717-.772-6.954-1.81a19 19 0 0 0-2.672-1.206 2.75 2.75 0 0 0-2.739.561 3.43 3.43 0 0 0-.675 1.822 4.6 4.6 0 0 0-1.671-1.569c-1.303-.603-2.925.236-3.619 1.496a5.57 5.57 0 0 0-.157 4.174c.129.449.315.879.555 1.279 1.273 1.978 4.355 2.612 6.526 2.666"/><path fill="#263238" d="m218.99 35.813 2.974-1.671a1.61 1.61 0 0 0-1.622-.974c-.225.02-.443.086-.64.196a1.903 1.903 0 0 0-.712 2.449"/><path fill="#F28F8F" d="M208.308 55.68s4.433-.93 5.977-1.81a5.2 5.2 0 0 0 2.141-2.208 7.5 7.5 0 0 1-1.206 2.606c-1.134 1.508-6.906 2.617-6.906 2.617z"/><path fill="#263238" d="M209.369 43.738a.9.9 0 0 0 .531.89.892.892 0 0 0 1.249-.89.92.92 0 0 0-.887-.935.93.93 0 0 0-.893.935M210.503 40.336l1.9 1.092a1.21 1.21 0 0 0-.44-1.574 1.04 1.04 0 0 0-1.208.134 1 1 0 0 0-.252.348"/><path fill="#F28F8F" d="m208.695 50.125-2.027.796q.063.212.202.38a1.07 1.07 0 0 0 .753.382c.145.008.29-.013.426-.062a1.21 1.21 0 0 0 .646-1.496"/><path fill="#263238" d="m201.395 41.499 1.732-1.388a1.02 1.02 0 0 0-1.123-.437 1 1 0 0 0-.379.196 1.205 1.205 0 0 0-.23 1.629M201.987 43.478a.914.914 0 0 0 .887.953.958.958 0 1 0-.887-.953"/><path fill="#F28F8F" d="m206.739 42.736-.102 5.604-3.185-.73z"/><path fill="#FFA8A7" d="M233.285 89.85s-5.157 7.84-6.031 8.866c-.875 1.026-1.496.682-2.455.223a27 27 0 0 0-3.583-1.248c-1.58-.422-1.918 1.14-.356 2.25 1.128.802 2.413 1.152 1.882 1.809a11.9 11.9 0 0 1-3.764 2.467c-3.812 1.61-3.516 2.413-2.817 3.734.604 1.152 2.413 3.619 9.205.699 2.81-1.206 6.773-4.638 8.637-6.846 2.696-3.19 6.894-8.908 6.894-8.908z"/><path fill="#E0E0E0" d="M223.375 59.6c1.87.132 6.43 1.32 10.857 9.144 3.866 6.858 8.951 15.392 9.096 18.92.048 1.153-2.214 5.538-4.892 9.048-3.088-.144-5.513-2.648-6.966-4.47.844-1.416 1.809-3.54 1.809-3.54L225.48 76.64s-3.257-3.317-3.981-7.72c-.778-4.753.73-8.963 1.876-9.32"/><path fill="#F7921E" d="m174 74.697 22.287 6.28 6.134 26.961-21.189-6.581z"/><path fill="#000" d="M184.072 93.795a4.43 4.43 0 0 1-4.168 2.66l-.163-.603zM180.712 78.991s-.084-.404-.181-.905c-.096-.5 1.207-.524 2.92-.048l3.281.91c1.719.471 3.191 1.268 3.293 1.768l.181.91z" opacity=".2"/><path fill="#37474F" d="M179 75.565c-.067-.313.464-.398 1.206-.187l1.303.386s-.386-1.966 2.497-1.278a4.63 4.63 0 0 1 3.516 2.919l1.388.422c.766.236 1.465.676 1.556.99l.163.56-11.46-3.227s-.103-.271-.169-.585"/><path fill="#263238" d="M180.581 76.538c1.055.271 1.49.416 1.646 1.206.181.88.254 1.532.254 1.532l5.084 1.436s-.247-1.122-.325-1.556c-.079-.435.096-.7.904-.47l.067-.345-7.962-2.171z"/><path fill="#37474F" d="M180.405 79.07s-.078-.41-.181-.911c-.102-.501 1.207-.525 2.92-.049l3.287.911c1.713.477 3.185 1.267 3.287 1.767l.181.911z"/><path fill="#FFA8A7" d="M176.346 83.353s.833 3.052 1.026 3.776 2.69 2.032 4.325 2.515c1.634.482 3.432 1.05 2.653 3.498-.711 2.262-3.407 2.775-4.783 2.714-1.375-.06-3.251-1.465-3.987-3.727-.947-2.883-.44-5.966-.814-7.648-.374-1.683.754-2.13 1.58-1.128"/><path fill="#37474F" d="M87.909 218.172a1.52 1.52 0 0 0-.895 1.244v4.733a1.54 1.54 0 0 0 .901 1.238l32.98 19.044a4.83 4.83 0 0 0 4.345 0l58.843-33.961a1.52 1.52 0 0 0 .902-1.25v-4.694a1.5 1.5 0 0 0-.895-1.27l-32.986-19.044a4.8 4.8 0 0 0-4.338 0z"/><path fill="#37474F" d="m184.096 205.742-58.863 33.98a4.76 4.76 0 0 1-4.338 0l-32.987-19.037c-1.198-.698-1.198-1.817 0-2.508l58.864-33.987a4.8 4.8 0 0 1 4.338 0l32.986 19.044c1.198.691 1.198 1.817 0 2.508"/><path fill="#F7921E" d="M152.205 214.734a.25.25 0 0 0 .042.135.24.24 0 0 0 .11.089l4.845 2.798a1.49 1.49 0 0 0 1.277-.151l4.107-2.377c.27-.158.422-.349.422-.507v-1.171a.268.268 0 0 0-.152-.231l-4.845-2.797a1.49 1.49 0 0 0-1.277.157l-4.114 2.37c-.27.158-.421.356-.415.514z"/><path fill="#000" d="M163 213.535v1.172c0 .092-.152.349-.421.507l-4.108 2.376a2 2 0 0 1-.731.231v-1.159a2 2 0 0 0 .731-.237l4.101-2.37c.29-.164.434-.362.428-.52" opacity=".25"/><path fill="#fff" d="M152.204 213.57a.26.26 0 0 0 .145.218l4.851 2.797c.17.081.361.108.547.079v1.172a.94.94 0 0 1-.547-.079l-4.871-2.798a.25.25 0 0 1-.151-.224z" opacity=".5"/><path fill="#F7921E" d="m158.01 210.519 4.845 2.798c.276.158.158.487-.27.737l-4.108 2.37a1.47 1.47 0 0 1-1.277.158l-4.871-2.817c-.276-.158-.151-.487.27-.738l4.114-2.369a1.48 1.48 0 0 1 1.297-.139M143.549 209.734a.3.3 0 0 0 .046.135.3.3 0 0 0 .105.096l4.845 2.791a1.48 1.48 0 0 0 1.277-.151l4.108-2.377c.276-.158.421-.349.421-.507v-1.171a.26.26 0 0 0-.151-.231l-4.845-2.797a1.481 1.481 0 0 0-1.277.157l-4.108 2.37c-.276.158-.421.356-.421.514z"/><path fill="#000" d="M154.349 208.541v1.185c0 .158-.144.349-.414.507l-4.114 2.376a1.9 1.9 0 0 1-.731.231v-1.172c.257-.028.506-.108.731-.237l4.107-2.37c.283-.165.428-.362.421-.52" opacity=".25"/><path fill="#fff" d="M143.549 208.568a.27.27 0 0 0 .151.218l4.845 2.797c.17.081.361.109.547.079v1.172a.92.92 0 0 1-.54-.079l-4.852-2.791a.3.3 0 0 1-.105-.096.3.3 0 0 1-.046-.134c0-.158.006-1.047 0-1.166" opacity=".5"/><path fill="#F7921E" d="m149.354 205.522 4.845 2.797c.283.158.158.487-.27.737l-4.107 2.37a1.47 1.47 0 0 1-1.277.158l-4.845-2.797c-.277-.158-.158-.488.27-.738l4.107-2.37a1.49 1.49 0 0 1 1.277-.157M134.899 204.74a.26.26 0 0 0 .044.136.26.26 0 0 0 .107.095l4.845 2.797a1.5 1.5 0 0 0 1.277-.158l4.108-2.376c.27-.158.421-.342.421-.507v-1.172a.26.26 0 0 0-.151-.23l-4.845-2.798a1.5 1.5 0 0 0-.657-.067 1.5 1.5 0 0 0-.62.225l-4.108 2.37c-.277.165-.428.356-.421.514z"/><path fill="#000" d="M145.7 203.541v1.191c0 .152-.145.349-.421.501l-4.108 2.376c-.224.13-.473.208-.731.231v-1.172c.258-.028.507-.108.731-.237l4.108-2.37c.276-.171.428-.355.421-.52" opacity=".25"/><path fill="#fff" d="M134.898 203.574a.257.257 0 0 0 .152.217l4.845 2.798c.169.084.36.111.546.079v1.172a.93.93 0 0 1-.546-.079l-4.845-2.791a.272.272 0 0 1-.152-.231z" opacity=".5"/><path fill="#F7921E" d="m140.705 200.527 4.845 2.798c.276.158.158.487-.27.737l-4.108 2.37a1.47 1.47 0 0 1-1.277.158l-4.845-2.798c-.283-.158-.158-.487.27-.737l4.108-2.37c.187-.12.399-.197.62-.225.222-.027.446-.004.657.067"/><path fill="#E0E0E0" d="M100.248 224.747a.3.3 0 0 0 .04.136q.04.061.105.095l4.851 2.798a1.517 1.517 0 0 0 1.277-.158l4.108-2.377c.27-.151.421-.342.421-.5v-1.178a.25.25 0 0 0-.04-.136.3.3 0 0 0-.104-.095l-4.852-2.797a1.5 1.5 0 0 0-1.277.157l-4.108 2.37c-.276.165-.421.356-.414.52z"/><path fill="#F0F0F0" d="M100.247 223.58a.3.3 0 0 0 .042.132.3.3 0 0 0 .103.092l4.845 2.791a.9.9 0 0 0 .553.079v1.172a.94.94 0 0 1-.547-.073l-4.845-2.817a.26.26 0 0 1-.151-.224c-.007-.145 0-1.033 0-1.152"/><path fill="#000" d="M111.042 223.547v1.178c0 .092-.152.349-.421.507l-4.108 2.37a1.8 1.8 0 0 1-.731.23v-1.171a2.1 2.1 0 0 0 .731-.231l4.101-2.376c.29-.152.434-.343.428-.507" opacity=".2"/><path fill="#E0E0E0" d="M134.886 214.742a.28.28 0 0 0 .151.224l4.845 2.798a1.47 1.47 0 0 0 1.277-.158l4.108-2.37c.276-.158.421-.349.421-.507v-1.172a.249.249 0 0 0-.151-.23l-4.845-2.798a1.468 1.468 0 0 0-1.277.158l-4.108 2.37c-.276.158-.421.356-.421.514z"/><path fill="#F0F0F0" d="M134.886 213.576q.007.071.046.129a.26.26 0 0 0 .105.088l4.845 2.798a.88.88 0 0 0 .546.072v1.179a.9.9 0 0 1-.539-.079l-4.852-2.798a.28.28 0 0 1-.151-.224z"/><path fill="#000" d="M145.686 213.535v1.192c0 .158-.144.349-.414.507l-4.115 2.369c-.224.129-.473.21-.73.237v-1.178a1.8 1.8 0 0 0 .73-.23l4.108-2.37c.277-.165.428-.362.421-.527" opacity=".2"/><path fill="#E0E0E0" d="M117.583 204.748a.3.3 0 0 0 .04.136q.04.061.105.095l4.851 2.791a1.46 1.46 0 0 0 1.271-.152l4.114-2.376c.27-.158.415-.349.415-.507v-1.172a.255.255 0 0 0-.152-.23l-4.864-2.798a1.483 1.483 0 0 0-1.277.158l-4.108 2.37c-.277.158-.421.355-.421.513s.019 1.014.026 1.172"/><path fill="#F0F0F0" d="M117.579 203.586q.007.07.046.129a.26.26 0 0 0 .105.088l4.845 2.798c.17.081.361.108.547.079v1.165a.94.94 0 0 1-.547-.079l-4.851-2.798a.26.26 0 0 1-.152-.223c.007-.152.013-1.041.007-1.159"/><path fill="#000" d="M128.383 203.549v1.172c0 .092-.152.348-.422.506l-4.107 2.377a1.9 1.9 0 0 1-.731.23v-1.172c.257-.027.506-.108.731-.237l4.107-2.369c.283-.165.428-.343.422-.507" opacity=".2"/><path fill="#E0E0E0" d="M126.235 209.744a.24.24 0 0 0 .151.224l4.845 2.798a1.49 1.49 0 0 0 1.277-.152l4.108-2.376c.27-.158.421-.349.421-.507v-1.172a.27.27 0 0 0-.151-.23l-4.845-2.798a1.47 1.47 0 0 0-1.277.158l-4.108 2.37c-.277.158-.428.356-.421.514z"/><path fill="#F0F0F0" d="M126.234 208.58q.005.07.043.128a.26.26 0 0 0 .102.089l4.885 2.798c.17.081.36.108.546.079v1.172a.94.94 0 0 1-.546-.079l-4.845-2.798a.25.25 0 0 1-.152-.224z"/><path fill="#000" d="M137.03 208.549v1.172c0 .158-.151.348-.421.506l-4.108 2.377a2 2 0 0 1-.73.23v-1.172c.257-.027.506-.108.73-.237l4.108-2.369c.283-.152.428-.349.421-.507" opacity=".2"/><path fill="#E0E0E0" d="M126.229 219.74a.26.26 0 0 0 .152.23l4.845 2.798a1.52 1.52 0 0 0 1.277-.158l4.108-2.377c.269-.151.421-.342.421-.5v-1.178a.27.27 0 0 0-.152-.231l-4.844-2.797a1.502 1.502 0 0 0-1.278.158l-4.101 2.376c-.27.158-.421.349-.414.514z"/><path fill="#F0F0F0" d="M126.229 218.57a.3.3 0 0 0 .042.132.3.3 0 0 0 .103.092l4.852 2.791a.88.88 0 0 0 .546.079v1.172a.94.94 0 0 1-.546-.072l-4.845-2.798a.27.27 0 0 1-.152-.224z"/><path fill="#000" d="M137.024 218.539v1.192c0 .158-.151.348-.421.506l-4.108 2.37c-.223.13-.473.208-.73.231v-1.172c.256-.03.503-.109.73-.231l4.101-2.376c.29-.164.435-.355.428-.52" opacity=".2"/><path fill="#E0E0E0" d="M108.922 209.748a.26.26 0 0 0 .046.132q.04.06.105.092l4.845 2.798c.211.071.436.094.657.067.221-.028.433-.105.62-.225l4.108-2.37c.27-.158.421-.349.421-.507v-1.178a.278.278 0 0 0-.151-.231l-4.845-2.797a1.502 1.502 0 0 0-1.277.158l-4.108 2.376c-.276.158-.428.349-.421.513z"/><path fill="#F0F0F0" d="M108.922 208.586q.005.07.043.128a.27.27 0 0 0 .102.089l4.851 2.798a.94.94 0 0 0 .547.072v1.179a1 1 0 0 1-.547-.079l-4.845-2.798a.27.27 0 0 1-.105-.092.26.26 0 0 1-.046-.132z"/><path fill="#000" d="M119.719 208.549v1.191c0 .158-.152.349-.422.507l-4.107 2.37a1.9 1.9 0 0 1-.731.237v-1.178c.258-.022.507-.101.731-.231l4.107-2.376c.283-.158.435-.356.422-.52" opacity=".2"/><path fill="#E0E0E0" d="M117.576 214.74a.26.26 0 0 0 .041.135.26.26 0 0 0 .104.095l4.852 2.798a1.48 1.48 0 0 0 1.27-.158l4.114-2.37c.27-.158.415-.349.415-.507v-1.178a.26.26 0 0 0-.151-.231l-4.858-2.797a1.502 1.502 0 0 0-1.277.158l-4.108 2.376c-.277.158-.421.349-.421.514 0 .164.013 1.007.019 1.165"/><path fill="#F0F0F0" d="M117.572 213.58q.007.07.047.129a.3.3 0 0 0 .104.088l4.845 2.791a.9.9 0 0 0 .547.079v1.179a1 1 0 0 1-.547-.079l-4.851-2.798a.28.28 0 0 1-.152-.224c.007-.158.014-1.053.007-1.165"/><path fill="#000" d="M128.376 213.545v1.191c0 .158-.145.349-.415.507l-4.114 2.37a1.9 1.9 0 0 1-.724.237v-1.178c.257-.025.506-.104.731-.231l4.107-2.376c.277-.158.422-.356.415-.52" opacity=".2"/><path fill="#E0E0E0" d="M117.563 224.74a.275.275 0 0 0 .152.231l4.845 2.791a1.49 1.49 0 0 0 1.277-.152l4.107-2.376c.27-.158.422-.349.422-.507v-1.172a.3.3 0 0 0-.044-.136.3.3 0 0 0-.108-.094l-4.851-2.798a1.5 1.5 0 0 0-.657-.067 1.5 1.5 0 0 0-.62.225l-4.108 2.37c-.276.158-.428.356-.421.514z"/><path fill="#F0F0F0" d="M117.565 223.574q.005.07.043.129a.26.26 0 0 0 .102.088l4.852 2.798c.17.081.36.108.546.079v1.172a.93.93 0 0 1-.546-.079l-4.845-2.804a.25.25 0 0 1-.152-.224z"/><path fill="#000" d="M128.367 223.539v1.185c0 .158-.145.349-.421.507l-4.108 2.356a1.85 1.85 0 0 1-.731.231v-1.152c.258-.028.507-.108.731-.237l4.108-2.37c.276-.164.428-.362.421-.52" opacity=".2"/><path fill="#E0E0E0" d="M100.26 214.744a.26.26 0 0 0 .044.136.3.3 0 0 0 .107.095l4.845 2.797a1.502 1.502 0 0 0 1.277-.158l4.108-2.376c.277-.151.421-.342.421-.507v-1.172a.258.258 0 0 0-.151-.23l-4.845-2.798a1.5 1.5 0 0 0-.657-.067 1.5 1.5 0 0 0-.62.225l-4.108 2.37c-.276.165-.428.356-.421.514z"/><path fill="#F0F0F0" d="M100.26 213.58a.26.26 0 0 0 .045.13.26.26 0 0 0 .106.087l4.845 2.798a.9.9 0 0 0 .546.079v1.172a.94.94 0 0 1-.546-.079l-4.845-2.791a.28.28 0 0 1-.151-.231z"/><path fill="#000" d="M111.062 213.549v1.191c0 .158-.144.349-.421.501l-4.108 2.376c-.223.13-.473.208-.73.23v-1.171c.257-.028.506-.109.73-.237l4.108-2.37c.277-.165.428-.356.421-.52" opacity=".2"/><path fill="#E0E0E0" d="M108.916 219.744a.3.3 0 0 0 .04.136q.04.061.105.095l4.851 2.791a1.5 1.5 0 0 0 1.277-.152l4.108-2.376c.27-.158.415-.342.421-.507s0-1.014 0-1.172a.26.26 0 0 0-.144-.23l-4.852-2.798a1.5 1.5 0 0 0-.657-.067 1.5 1.5 0 0 0-.62.225l-4.108 2.37c-.276.158-.421.356-.421.514z"/><path fill="#F0F0F0" d="M108.884 218.58a.3.3 0 0 0 .048.128.3.3 0 0 0 .103.089l4.845 2.798c.173.08.365.108.553.079v1.172a.94.94 0 0 1-.546-.079l-4.845-2.791a.25.25 0 0 1-.109-.094.26.26 0 0 1-.043-.137c-.006-.158.027-1.046-.006-1.165"/><path fill="#000" d="M119.713 218.547v1.178a.73.73 0 0 1-.422.5l-4.107 2.377a1.8 1.8 0 0 1-.731.23v-1.165a2 2 0 0 0 .731-.237l4.101-2.37c.29-.158.434-.349.428-.513" opacity=".2"/><path fill="#F7921E" d="M126.246 199.744a.26.26 0 0 0 .145.231l4.872 2.797a1.502 1.502 0 0 0 1.277-.158l4.107-2.376c.27-.151.415-.342.415-.5v-1.179a.3.3 0 0 0-.04-.135.27.27 0 0 0-.105-.095l-4.851-2.798a1.5 1.5 0 0 0-.657-.067 1.5 1.5 0 0 0-.62.225l-4.108 2.37c-.277.165-.421.356-.421.514s-.02 1.013-.014 1.171"/><path fill="#000" d="M137.044 198.547v1.178c0 .092-.152.349-.421.5l-4.108 2.377a1.8 1.8 0 0 1-.731.23v-1.171c.258-.028.506-.109.731-.237l4.108-2.37c.283-.152.427-.343.421-.507" opacity=".25"/><path fill="#fff" d="M126.241 198.582a.26.26 0 0 0 .151.217l4.845 2.798a.9.9 0 0 0 .547.079v1.172a.9.9 0 0 1-.547-.079l-4.851-2.791a.3.3 0 0 1-.106-.096.3.3 0 0 1-.046-.135c.007-.158.014-1.046.007-1.165" opacity=".5"/><path fill="#F7921E" d="m132.048 195.531 4.851 2.798c.277.158.152.494-.276.737l-4.108 2.37a1.46 1.46 0 0 1-1.277.158l-4.845-2.798c-.276-.158-.158-.487.27-.737l4.108-2.37c.187-.12.399-.197.62-.225s.446-.004.657.067M143.541 219.735a.25.25 0 0 0 .151.224l4.845 2.798a1.47 1.47 0 0 0 1.277-.158l4.108-2.37c.27-.158.421-.349.421-.507v-1.171a.24.24 0 0 0-.037-.138.25.25 0 0 0-.107-.093l-4.845-2.797a1.46 1.46 0 0 0-1.277.151l-4.115 2.376c-.27.158-.421.356-.414.514z"/><path fill="#000" d="M154.339 218.535v1.178c0 .093-.152.349-.422.507l-4.107 2.37c-.225.129-.474.21-.731.237v-1.158a1.8 1.8 0 0 0 .731-.231l4.101-2.376c.29-.165.434-.362.428-.527" opacity=".25"/><path fill="#fff" d="M143.541 218.57a.26.26 0 0 0 .145.218l4.851 2.797a.94.94 0 0 0 .547.073v1.178a.94.94 0 0 1-.547-.079l-4.845-2.798a.266.266 0 0 1-.151-.224z" opacity=".5"/><path fill="#F7921E" d="m149.348 215.523 4.845 2.797c.276.158.158.487-.27.731l-4.108 2.376a1.5 1.5 0 0 1-1.277.158l-4.852-2.797c-.276-.158-.151-.494.27-.738l4.115-2.376a1.47 1.47 0 0 1 1.277-.151M134.88 224.741a.26.26 0 0 0 .151.223l4.845 2.798a1.48 1.48 0 0 0 1.264-.171l4.108-2.37c.27-.158.421-.349.421-.507v-1.178a.26.26 0 0 0-.039-.136.26.26 0 0 0-.106-.095l-4.845-2.797a1.5 1.5 0 0 0-1.277.158l-4.114 2.376c-.27.158-.421.349-.415.514z"/><path fill="#000" d="M145.674 223.533v1.179c0 .092-.151.348-.421.506l-4.114 2.37c-.225.129-.473.21-.731.237v-1.178a1.8 1.8 0 0 0 .731-.231l4.101-2.376c.296-.145.441-.342.434-.507" opacity=".25"/><path fill="#fff" d="M134.876 223.574q.005.07.044.128.038.058.101.089l4.851 2.792a.9.9 0 0 0 .547.079v1.178a.94.94 0 0 1-.547-.079l-4.845-2.804a.27.27 0 0 1-.151-.224z" opacity=".5"/><path fill="#F7921E" d="m140.685 220.517 4.845 2.797c.276.165.158.494-.27.738l-4.121 2.376a1.5 1.5 0 0 1-1.277.158l-4.851-2.798c-.277-.164-.152-.494.27-.737l4.114-2.376a1.492 1.492 0 0 1 1.29-.158M126.215 229.735a.26.26 0 0 0 .151.231l4.845 2.797a1.502 1.502 0 0 0 1.277-.158l4.108-2.383c.27-.151.421-.342.421-.5v-1.178a.25.25 0 0 0-.038-.137.26.26 0 0 0-.107-.094l-4.845-2.797a1.49 1.49 0 0 0-1.277.158l-4.094 2.376c-.27.165-.421.355-.415.52z"/><path fill="#000" d="M137.011 228.539v1.178c0 .093-.152.349-.422.507l-4.107 2.37a1.75 1.75 0 0 1-.731.23v-1.171a2.1 2.1 0 0 0 .731-.231l4.101-2.376c.289-.138.434-.342.428-.507" opacity=".25"/><path fill="#fff" d="M126.215 228.57a.262.262 0 0 0 .145.224l4.851 2.791a.9.9 0 0 0 .547.079v1.192a.94.94 0 0 1-.547-.073l-4.845-2.797a.27.27 0 0 1-.151-.224z" opacity=".5"/><path fill="#F7921E" d="m132.022 225.523 4.845 2.798c.277.158.158.494-.27.737l-4.107 2.377a1.49 1.49 0 0 1-1.277.151l-4.852-2.797c-.276-.158-.151-.488.27-.731l4.114-2.377a1.5 1.5 0 0 1 1.277-.158M91.595 219.751a.27.27 0 0 0 .145.231l4.852 2.797a1.5 1.5 0 0 0 1.277-.158l4.107-2.369c.27-.158.415-.349.415-.507v-1.178a.3.3 0 0 0-.04-.136.3.3 0 0 0-.105-.095l-4.851-2.798a1.52 1.52 0 0 0-1.277.158l-4.108 2.377c-.276.158-.421.349-.421.513s0 1.007.006 1.165"/><path fill="#000" d="M102.391 218.555v1.178c0 .092-.151.349-.421.507l-4.108 2.37a2 2 0 0 1-.73.237v-1.179a1.85 1.85 0 0 0 .73-.23l4.108-2.376c.283-.145.428-.343.421-.507" opacity=".25"/><path fill="#fff" d="M91.589 218.592a.27.27 0 0 0 .151.217l4.845 2.791c.17.084.36.111.547.079v1.178a1 1 0 0 1-.547-.079l-4.818-2.797a.26.26 0 0 1-.145-.224c-.033-.158-.027-1.053-.033-1.165" opacity=".5"/><path fill="#F7921E" d="m97.397 215.539 4.851 2.797c.276.165.151.494-.277.738l-4.107 2.376a1.49 1.49 0 0 1-1.277.151l-4.819-2.791c-.276-.164-.158-.493.27-.737l4.108-2.376a1.5 1.5 0 0 1 1.25-.158M108.884 229.744a.3.3 0 0 0 .046.135q.04.061.105.095l4.845 2.798a1.52 1.52 0 0 0 1.277-.158l4.128-2.39c.269-.151.414-.342.414-.5v-1.178a.25.25 0 0 0-.042-.138.27.27 0 0 0-.109-.093l-4.845-2.797a1.47 1.47 0 0 0-1.277.158l-4.108 2.369c-.276.165-.421.356-.421.514s-.013 1.007-.013 1.185"/><path fill="#000" d="M119.698 228.545v1.191c0 .158-.145.349-.415.501l-4.114 2.376a1.75 1.75 0 0 1-.731.23v-1.171c.258-.028.507-.109.731-.237l4.108-2.37c.283-.158.428-.356.421-.52" opacity=".25"/><path fill="#fff" d="M108.884 228.58a.26.26 0 0 0 .045.13.26.26 0 0 0 .106.087l4.845 2.798a.9.9 0 0 0 .546.079v1.185a.9.9 0 0 1-.539-.079l-4.852-2.791a.3.3 0 0 1-.105-.096.3.3 0 0 1-.046-.135z" opacity=".5"/><path fill="#F7921E" d="m114.702 225.529 4.845 2.798c.283.158.158.487-.27.737l-4.108 2.37a1.452 1.452 0 0 1-1.277.158l-4.845-2.798c-.276-.158-.158-.487.27-.737l4.108-2.37c.187-.12.399-.197.62-.225.222-.027.446-.004.657.067M117.553 234.74q0 .075.042.138.042.061.109.093l4.845 2.797a1.5 1.5 0 0 0 1.277-.158l4.108-2.376c.27-.158.421-.342.421-.507v-1.172a.25.25 0 0 0-.145-.23l-4.845-2.798a1.49 1.49 0 0 0-1.277.158l-4.114 2.37c-.27.158-.421.356-.415.514z"/><path fill="#000" d="M128.346 233.518v1.178c0 .092-.152.349-.422.5l-4.107 2.377a1.8 1.8 0 0 1-.731.23v-1.172a2 2 0 0 0 .731-.237l4.101-2.37c.289-.125.434-.316.428-.506" opacity=".25"/><path fill="#fff" d="M117.553 233.576a.25.25 0 0 0 .145.217l4.851 2.798c.17.081.361.108.546.079v1.172a.94.94 0 0 1-.546-.079l-4.845-2.791a.27.27 0 0 1-.151-.231z" opacity=".5"/><path fill="#F7921E" d="m123.364 230.527 4.845 2.798c.277.158.158.487-.27.737l-4.107 2.37a1.48 1.48 0 0 1-1.277.158l-4.852-2.798c-.276-.158-.151-.487.27-.737l4.114-2.37a1.49 1.49 0 0 1 1.277-.158"/><path fill="#455A64" d="M121.319 204.015h.053l2.501-.743-.842-.488a.03.03 0 0 1-.01-.023q0-.013.01-.023a.1.1 0 0 1 .017-.031.1.1 0 0 1 .029-.021l.401-.231a.16.16 0 0 1 .092 0 .13.13 0 0 1 .086 0l1.316.777s.033 0 0 .046a.1.1 0 0 1-.017.031.1.1 0 0 1-.029.022l-.349.204a1.2 1.2 0 0 1-.236.085l-2.515.744h-.092a.15.15 0 0 1-.079 0l-.395-.23v-.046c0-.046.033-.059.059-.073M131.376 207.802c.255-.142.544-.212.836-.204a2 2 0 0 1 .421.046q.191.044.362.139.147.077.244.21c.054.07.084.156.085.244a.4.4 0 0 1-.092.25.7.7 0 0 1-.27.23 1.532 1.532 0 0 1-.658.205.4.4 0 0 1-.099.223.8.8 0 0 1-.256.204 1.3 1.3 0 0 1-.395.158 2 2 0 0 1-.441.053 2 2 0 0 1-.435-.059 1.5 1.5 0 0 1-.388-.152.8.8 0 0 1-.264-.223.4.4 0 0 1-.098-.251.44.44 0 0 1 .085-.256.9.9 0 0 1 .27-.231q.167-.097.356-.145t.381-.059a.8.8 0 0 1 .119-.197q.104-.11.237-.185m-.579.889c-.073.046-.106.092-.106.151 0 .06.06.119.165.178a.55.55 0 0 0 .309.092c.09.009.18-.012.257-.059a.17.17 0 0 0 .105-.145c0-.059-.059-.118-.164-.184a.6.6 0 0 0-.303-.092.53.53 0 0 0-.263.059m1.112-.592c-.072.046-.112.092-.112.151s.04.105.125.158a.536.536 0 0 0 .527.007.18.18 0 0 0 .112-.145c0-.059-.046-.112-.125-.158a.52.52 0 0 0-.514-.013zM139.869 212.862q.216-.128.461-.191a2.6 2.6 0 0 1 .48-.066q.227.002.448.053.197.043.375.138a.8.8 0 0 1 .243.211.4.4 0 0 1 .079.263.46.46 0 0 1-.111.277 1 1 0 0 1-.323.263 1 1 0 0 1-.217.105q-.11.046-.224.073l-.217.053-.217.039-1.521.263h-.079a.13.13 0 0 1-.086 0l-.447-.263a.1.1 0 0 1 .018-.028.1.1 0 0 1 .028-.018h.033l1.04-.184a.6.6 0 0 1-.165-.204.4.4 0 0 1 0-.244.5.5 0 0 1 .125-.244.96.96 0 0 1 .277-.296m1.132.658a.34.34 0 0 0 .112-.098.144.144 0 0 0 0-.191.2.2 0 0 0-.092-.079.4.4 0 0 0-.139-.053.6.6 0 0 0-.164 0h-.171l-.165.066a.4.4 0 0 0-.112.099.2.2 0 0 0-.033.098.16.16 0 0 0 0 .093.22.22 0 0 0 .093.079.4.4 0 0 0 .138.052q.082.01.164 0 .086.015.171 0a.7.7 0 0 0 .198-.072zM113.15 209.413a.035.035 0 0 1 0-.047s0-.039.046-.052l.382-.224-.882-.513a.035.035 0 0 1 0-.047.1.1 0 0 1 .017-.031.1.1 0 0 1 .029-.021l.402-.231a.5.5 0 0 1 .197-.072l2.258-.336h.105a.2.2 0 0 1 .073 0l.421.244v.046a.1.1 0 0 1-.053.059l-1.441.83.243.138a.04.04 0 0 1 0 .053s0 .039-.046.052l-.401.231a.2.2 0 0 1-.093 0 .1.1 0 0 1-.079 0l-.243-.139-.388.224h-.093a.2.2 0 0 1-.085 0zm1.027-.659.658-.401-1.106.164zM122.168 213.693v.066a.3.3 0 0 0 0 .073.2.2 0 0 0 0 .079.3.3 0 0 0 .092.079l.132.052h.158a.7.7 0 0 0 .171 0 1 1 0 0 0 .164-.066q.129-.077.139-.164a.2.2 0 0 0-.126-.165.4.4 0 0 0-.092-.039h-.243l-.435-.25a.05.05 0 0 1-.01-.027q0-.014.01-.026s0-.04.053-.053l1.422-.724a.2.2 0 0 1 .099 0 .15.15 0 0 1 .079 0l1.211.698a.1.1 0 0 1 .008.026.05.05 0 0 1-.008.027.1.1 0 0 1-.046.052l-.402.231a.2.2 0 0 1-.092 0 .13.13 0 0 1-.086 0l-.816-.474-.355.184q.09.002.177.033a.5.5 0 0 1 .172.066.8.8 0 0 1 .243.21.37.37 0 0 1 .066.237.45.45 0 0 1-.119.257q-.138.155-.322.25-.219.127-.461.198-.23.057-.467.066a2 2 0 0 1-.435-.046 1.6 1.6 0 0 1-.382-.152.7.7 0 0 1-.276-.237.37.37 0 0 1-.079-.25.37.37 0 0 1 .092-.237.8.8 0 0 1 .244-.211.15.15 0 0 1 .072 0 .13.13 0 0 1 .073 0l.355.211c.033 0 .046.033.046.053s-.02-.033-.026-.027M132.088 219.277a1.87 1.87 0 0 1-.948.25 1.7 1.7 0 0 1-.454-.046 1.3 1.3 0 0 1-.382-.145.65.65 0 0 1-.257-.223.425.425 0 0 1 0-.54 1.1 1.1 0 0 1 .329-.27q.111-.064.231-.112l.23-.072.224-.046.204-.04 1.507-.25h.079a.13.13 0 0 1 .086 0l.447.263v.033a.1.1 0 0 1-.018.028.1.1 0 0 1-.028.018h-.033l-1.026.171a.7.7 0 0 1 .184.218.44.44 0 0 1 0 .243.5.5 0 0 1-.125.25 1.2 1.2 0 0 1-.25.27m-1.165-.658a.5.5 0 0 0-.119.099.18.18 0 0 0-.033.105.16.16 0 0 0 .04.099.2.2 0 0 0 .092.079.4.4 0 0 0 .138.052.7.7 0 0 0 .171 0 .6.6 0 0 0 .178 0 .6.6 0 0 0 .171-.065.3.3 0 0 0 .119-.099.2.2 0 0 0 .039-.105.16.16 0 0 0-.039-.099.4.4 0 0 0-.231-.132.7.7 0 0 0-.171 0 .4.4 0 0 0-.178 0 .5.5 0 0 0-.177.053zM105.591 212.97a.1.1 0 0 1 .024-.032.1.1 0 0 1 .035-.02h1.435a.2.2 0 0 1 .105 0l.343.197v.046c0 .046 0 .04-.046.053l-2.429 1.402a.2.2 0 0 1-.093 0h-.085l-.369-.217a.1.1 0 0 1-.005-.023.1.1 0 0 1 .005-.023.1.1 0 0 1 .053-.053l1.639-.955h-.658a.13.13 0 0 1-.079 0v-.052zM115.545 218.759l-.23.112a1.4 1.4 0 0 1-.25.079l-.297.053h-1.145l.704.408s.033 0 0 .053a.1.1 0 0 1-.046.052l-.401.231a.2.2 0 0 1-.093 0 .15.15 0 0 1-.085 0l-1.488-.863a.05.05 0 0 1 0-.046.08.08 0 0 1 .053-.052l.322-.191a.6.6 0 0 1 .139-.053q.082-.015.164 0h1.646q.154.003.303-.033a.7.7 0 0 0 .184-.079l.066-.046a.2.2 0 0 0 .059-.072.13.13 0 0 0 0-.086.18.18 0 0 0-.092-.092.33.33 0 0 0-.165-.053h-.158l-.131.033h-.086a.3.3 0 0 1-.118 0 .2.2 0 0 1-.086 0l-.342-.204v-.033c0-.033 0-.033.039-.046a1.7 1.7 0 0 1 .362-.151q.209-.07.428-.079.228-.03.454 0 .225.037.422.151a.66.66 0 0 1 .25.231.38.38 0 0 1 .046.25.6.6 0 0 1-.138.25 1.1 1.1 0 0 1-.29.276M124.971 223.181a.1.1 0 0 1 .005.023.1.1 0 0 1-.005.023.15.15 0 0 1-.052.059l-.395.224a.17.17 0 0 1-.099.033h-.092l-.797.066a.41.41 0 0 1 .105.355.66.66 0 0 1-.335.356 1.646 1.646 0 0 1-1.692.006.9.9 0 0 1-.29-.243.42.42 0 0 1-.098-.251.43.43 0 0 1 .072-.23.8.8 0 0 1 .217-.197.13.13 0 0 1 .073 0 .1.1 0 0 1 .072 0l.356.204a.07.07 0 0 1 .037.028.1.1 0 0 1 .015.044.4.4 0 0 0 0 .086.15.15 0 0 0 0 .098q0 .06.138.119a.8.8 0 0 0 .283.099.55.55 0 0 0 .284-.06q.128-.077.098-.164a.33.33 0 0 0-.164-.165l-.231-.131a.05.05 0 0 1-.008-.027.1.1 0 0 1 .008-.026s0-.033.053-.053l.323-.184a.2.2 0 0 1 .092-.033h.098l.705-.059-.737-.428a.04.04 0 0 1-.007-.023q0-.012.007-.023a.1.1 0 0 1 .052-.053l.395-.23a.2.2 0 0 1 .099 0 .1.1 0 0 1 .079 0zM107.007 222.794a.66.66 0 0 1 .283.256.36.36 0 0 1 .033.27.66.66 0 0 1-.178.277q-.15.146-.329.256l-.336.198-.336.191a3.5 3.5 0 0 1-.447.191 2 2 0 0 1-.474.098 1.6 1.6 0 0 1-.474 0 1.4 1.4 0 0 1-.448-.164.66.66 0 0 1-.283-.257.37.37 0 0 1 0-.276.66.66 0 0 1 .171-.27 1.8 1.8 0 0 1 .336-.257c.099-.066.204-.132.323-.197l.342-.191a2.7 2.7 0 0 1 .921-.297q.238-.03.474 0 .227.047.422.172m-1.363 1.138q.328-.179.625-.368.083-.051.158-.112a.4.4 0 0 0 .086-.106.15.15 0 0 0 0-.105.27.27 0 0 0-.105-.105.7.7 0 0 0-.178-.059h-.178a1.213 1.213 0 0 0-.382.138c-.217.118-.427.237-.658.368a2 2 0 0 0-.158.106.4.4 0 0 0-.085.112.14.14 0 0 0 0 .105.25.25 0 0 0 .105.099q.084.045.178.066a1 1 0 0 0 .184 0 1 1 0 0 0 .184-.053z"/><path fill="#FAFAFA" d="M129.803 198.252a.2.2 0 0 1 0-.053l.356-.513-1.244.717a.17.17 0 0 1-.099 0 .1.1 0 0 1-.079 0l-.369-.21s-.033 0 0-.046a.13.13 0 0 1 .046-.06l2.429-1.402h.099a.15.15 0 0 1 .079 0l.329.191c.04 0 .053.046.046.073v.052l-.586.869 1.501-.336h.092a.3.3 0 0 1 .132 0l.323.191s.033 0 0 .046a.1.1 0 0 1-.053.06l-2.423 1.402h-.098a.15.15 0 0 1-.079 0l-.375-.218a.03.03 0 0 1-.01-.023q0-.012.01-.023a.1.1 0 0 1 .017-.031.1.1 0 0 1 .029-.021l1.244-.718-.882.204h-.099a.2.2 0 0 1-.099 0l-.184-.105a.054.054 0 0 1-.053-.046M132.758 198.844l-.138.073-.185.105-.177.105-.132.079a1 1 0 0 0-.138.112.3.3 0 0 0-.079.119.13.13 0 0 0 0 .111.3.3 0 0 0 .125.119.7.7 0 0 0 .184.072.8.8 0 0 0 .178 0h.158l.125-.039h.118a.13.13 0 0 1 .093 0l.368.217a.04.04 0 0 1 .005.02.04.04 0 0 1-.005.02.1.1 0 0 1-.046.039 1.7 1.7 0 0 1-.428.171q-.236.06-.48.059-.24.008-.474-.046a1.4 1.4 0 0 1-.422-.158.7.7 0 0 1-.276-.256.4.4 0 0 1-.053-.283.54.54 0 0 1 .152-.283q.14-.161.322-.27l.323-.191.349-.198a2.3 2.3 0 0 1 .954-.27q.247-.035.494 0 .237.047.448.165.162.091.269.244a.4.4 0 0 1 .079.269.5.5 0 0 1-.105.277.9.9 0 0 1-.29.25h-.14400000000000002l-.369-.211c-.033 0-.046-.039-.046-.052a.2.2 0 0 1 .059-.066 1 1 0 0 0 .059-.079.16.16 0 0 0 .04-.092.2.2 0 0 0 0-.099.4.4 0 0 0-.132-.105.5.5 0 0 0-.197-.073.7.7 0 0 0-.204 0l-.198.04zM138.505 203.233a.2.2 0 0 1 0-.059l.356-.513-1.251.717a.2.2 0 0 1-.092.033h-.086l-.369-.217v-.046a.09.09 0 0 1 .047-.053l2.429-1.402a.2.2 0 0 1 .092-.033h.085l.329.191c.04 0 .053.046.04.072a.3.3 0 0 1 0 .06l-.586.862 1.501-.336h.092a.2.2 0 0 1 .125 0l.329.191a.05.05 0 0 1 .007.027.05.05 0 0 1-.007.026s0 .033-.052.053l-2.429 1.402a.2.2 0 0 1-.093 0 .12.12 0 0 1-.085 0l-.369-.211a.1.1 0 0 1-.008-.026.05.05 0 0 1 .008-.027s0-.039.046-.052l1.245-.718-.883.204h-.105a.1.1 0 0 1-.046.01.1.1 0 0 1-.046-.01l-.184-.105s-.079.007-.04-.04M142.811 203.489q.162.088.283.224c.056.067.088.15.092.237a.4.4 0 0 1-.112.244 1.2 1.2 0 0 1-.329.25c-.17.105-.357.181-.553.224a1.5 1.5 0 0 1-.533 0l-.52.737a.15.15 0 0 1-.072 0 .1.1 0 0 1-.073 0l-.382-.217c-.039 0-.052-.046-.046-.066v-.066l.494-.658-.257-.145-.803.461a.17.17 0 0 1-.099 0 .1.1 0 0 1-.079 0l-.375-.211v-.046a.12.12 0 0 1 .046-.059l2.429-1.402h.099a.13.13 0 0 1 .079 0zm-1.455.474.316.185a.6.6 0 0 0 .257.079.53.53 0 0 0 .296-.079c.106-.066.152-.119.138-.171a.2.2 0 0 0-.048-.091.24.24 0 0 0-.083-.061l-.323-.184zM147.452 208.448a.1.1 0 0 1 0-.059l.356-.513-1.245.717a.2.2 0 0 1-.092.033.15.15 0 0 1-.085 0l-.369-.211a.1.1 0 0 1-.005-.023q0-.012.005-.023a.15.15 0 0 1 .053-.059l2.429-1.402h.092a.15.15 0 0 1 .085 0l.323.191c.04 0 .053.046.046.072a.1.1 0 0 1 0 .053l-.579.869 1.494-.336h.099a.2.2 0 0 1 .125 0l.329.191v.046c0 .046 0 .04-.046.059l-2.429 1.403h-.092a.2.2 0 0 1-.086 0l-.368-.218a.04.04 0 0 1-.008-.023.04.04 0 0 1 .008-.023.08.08 0 0 1 .052-.052l1.244-.718-.888.204h-.099a.2.2 0 0 1-.099 0l-.178-.105a.05.05 0 0 1-.033.007.05.05 0 0 1-.031-.015.05.05 0 0 1-.015-.031.05.05 0 0 1 .007-.034M149.195 209.249a.1.1 0 0 1-.007-.026.1.1 0 0 1 .007-.026.1.1 0 0 1 .052-.053l.376-.217a.2.2 0 0 1 .098 0h.086l.882.513q.01.011.01.027a.04.04 0 0 1-.01.026.1.1 0 0 1-.017.031.1.1 0 0 1-.029.022l-.382.217a.2.2 0 0 1-.092.033.16.16 0 0 1-.086 0zM155.889 213.314a.1.1 0 0 1 0-.053l.355-.513-1.25.717a.14.14 0 0 1-.093 0 .1.1 0 0 1-.079 0l-.375-.211v-.046a.12.12 0 0 1 .046-.059l2.443-1.356a.2.2 0 0 1 .092 0 .15.15 0 0 1 .085 0l.329.191c.04 0 .053.046.04.072a.2.2 0 0 1 0 .053l-.586.869 1.501-.342h.092a.24.24 0 0 1 .125 0l.329.191s.033 0 0 .046a.08.08 0 0 1-.052.052l-2.429 1.402a.2.2 0 0 1-.093.033.2.2 0 0 1-.085 0l-.369-.217v-.046c0-.046 0-.04.046-.053l1.244-.717-.882.204h-.105a.2.2 0 0 1-.092 0l-.184-.105a.07.07 0 0 1-.048.002.07.07 0 0 1-.035-.032.06.06 0 0 1-.002-.047.06.06 0 0 1 .032-.035M158.517 214.631l-.618.362a.2.2 0 0 1-.092 0 .16.16 0 0 1-.086 0l-.355-.204a.04.04 0 0 1-.011-.026.04.04 0 0 1 .011-.027s0-.033.046-.052l.618-.356-.434-.257a.05.05 0 0 1 0-.046.1.1 0 0 1 .053-.052l.375-.218a.25.25 0 0 1 .099-.032h.079l.441.256.618-.362a.2.2 0 0 1 .093 0 .15.15 0 0 1 .085 0l.356.204a.1.1 0 0 1 .006.027.1.1 0 0 1-.006.026s0 .033-.053.053l-.619.355.435.25a.05.05 0 0 1 .008.027.1.1 0 0 1-.008.026s0 .033-.046.053l-.382.217a.16.16 0 0 1-.092 0 .13.13 0 0 1-.086 0zM147.837 218.231a.04.04 0 0 1-.01-.026.04.04 0 0 1 .01-.026.12.12 0 0 1 .046-.053l.382-.217q.046-.015.092 0a.12.12 0 0 1 .086 0l1.678.968v.046c0 .046 0 .039-.046.052l-.381.224a.2.2 0 0 1-.093 0 .15.15 0 0 1-.085 0zM150.304 218.099a.74.74 0 0 1-.659.06c-.158-.092-.112-.264.093-.382a.75.75 0 0 1 .658-.053c.151.092.112.257-.092.375M148.157 219.331c.21-.118.25-.283.092-.375a.74.74 0 0 0-.659.053c-.21.118-.25.289-.098.375a.73.73 0 0 0 .665-.053M139.927 223.35l.125-.487a.12.12 0 0 1 .046-.059h.099l.586-.046a.1.1 0 0 1 .079 0s.033 0 0 .046l-.125.493.849-.072h.079q.01.012.01.026 0 .015-.01.027l-.086.335s0 .04-.046.053a.2.2 0 0 1-.092 0l-.849.066-.119.487a.1.1 0 0 1-.052.059h-.092l-.586.046a.13.13 0 0 1-.086 0v-.046l.119-.487-.85.066a.11.11 0 0 1-.085 0v-.046l.079-.336s0-.039.052-.059a.2.2 0 0 1 .093 0zM130.495 228.247a.05.05 0 0 1 0-.046.1.1 0 0 1 .053-.053l.375-.217a.3.3 0 0 1 .099-.033.15.15 0 0 1 .079 0l1.679.968a.05.05 0 0 1 .008.026.05.05 0 0 1-.008.026.1.1 0 0 1-.021.033.1.1 0 0 1-.032.02l-.375.217a.2.2 0 0 1-.099.033h-.079zM97.614 217.405c.039 0 .052.046.046.072a.3.3 0 0 1-.046.073l-1.752 1.724-.046.04a.15.15 0 0 1-.079 0 .1.1 0 0 1-.066 0l-.355-.211c-.04 0-.053-.039-.046-.059q0-.017.009-.031a.1.1 0 0 1 .024-.022l.23-.23-.75-.435-.389.139h-.092a.18.18 0 0 1-.112-.033l-.355-.204v-.04l.04-.039h.065l2.982-1.014h.125a.24.24 0 0 1 .125 0zm-2.1.658.454.263.658-.658zM98.003 218.788l-.145.072-.178.105-.177.106-.132.079a1 1 0 0 0-.145.112.23.23 0 0 0-.072.111.15.15 0 0 0 0 .119q.047.073.125.112a.7.7 0 0 0 .19.079h.179q.075.01.151 0l.132-.04.118-.033a.2.2 0 0 1 .086 0l.368.211v.04c0 .039 0 0-.04.046a1.8 1.8 0 0 1-.427.171 2.22 2.22 0 0 1-.954.013 1.4 1.4 0 0 1-.422-.158.7.7 0 0 1-.283-.244.43.43 0 0 1-.052-.283.66.66 0 0 1 .15-.289 1.5 1.5 0 0 1 .33-.264l.323-.197.342-.191q.22-.119.46-.184.246-.075.5-.092.247-.03.495 0 .234.045.44.164a.85.85 0 0 1 .277.237c.05.084.078.179.08.277a.53.53 0 0 1-.106.276.95.95 0 0 1-.296.25.13.13 0 0 1-.073 0 .13.13 0 0 1-.072 0l-.369-.217c-.033 0-.046-.033-.04-.046a.3.3 0 0 1 .053-.073.3.3 0 0 0 .066-.072.2.2 0 0 0 .04-.092.15.15 0 0 0-.033-.099.36.36 0 0 0-.125-.112.8.8 0 0 0-.198-.072 1 1 0 0 0-.204 0l-.197.046zM113.676 228.007v-.046a.12.12 0 0 1 .046-.059l.382-.218a.2.2 0 0 1 .092 0 .12.12 0 0 1 .086 0l1.599.922a.04.04 0 0 1 .008.026q0 .015-.008.027a.08.08 0 0 1-.053.052l-.362.198a.2.2 0 0 1-.092.033h-.085zm-.922.533a.1.1 0 0 1-.005-.023.1.1 0 0 1 .005-.023.1.1 0 0 1 .053-.053l.375-.224a.3.3 0 0 1 .099 0 .15.15 0 0 1 .079 0l1.606.929q.01.01.01.023a.03.03 0 0 1-.01.023s0 .039-.046.052l-.382.218a.2.2 0 0 1-.092.033h-.085zM122.923 233.874l-.619.362h-.092a.16.16 0 0 1-.086 0l-.355-.204a.06.06 0 0 1 0-.052.1.1 0 0 1 .052-.053l.619-.355-.434-.257v-.046a.1.1 0 0 1 .017-.032.1.1 0 0 1 .029-.021l.382-.224h.092a.15.15 0 0 1 .085 0l.435.257.625-.362a.2.2 0 0 1 .092 0 .12.12 0 0 1 .086 0l.355.204v.046a.1.1 0 0 1-.046.059l-.618.356.434.25v.046a.1.1 0 0 1-.046.059l-.382.217a.2.2 0 0 1-.092 0 .1.1 0 0 1-.086 0z"/><path fill="#263238" d="M123.05 240.244a4.37 4.37 0 0 0 2.185-.52l58.864-33.981a1.57 1.57 0 0 0 .901-1.218v4.674a1.52 1.52 0 0 1-.901 1.251l-58.857 33.98c-.669.36-1.42.539-2.179.52z"/><path fill="#455A64" d="M87.015 219.418a1.5 1.5 0 0 0 .902 1.317l32.98 19.037c.66.356 1.402.535 2.152.52v4.707a4.4 4.4 0 0 1-2.166-.52l-32.98-19.038a1.54 1.54 0 0 1-.901-1.237c-.007-.514.006-4.332.013-4.786M148.959 186.4c.188 0 .373.045.54.132l30.136 17.398a.33.33 0 0 1 .164.12.33.33 0 0 1 0 .386.33.33 0 0 1-.164.12l-12.211 7.05a1.22 1.22 0 0 1-1.086 0l-17.359-10.032z"/><path fill="#263238" d="m136.208 193.582 12.205-7.05c.168-.089.356-.134.546-.132v15.174l-12.296-7.09-.474-.276a.331.331 0 0 1 .019-.626"/><path fill="#F7921E" d="m136.683 194.487 11.737-6.773a1.17 1.17 0 0 1 1.086 0l29.622 17.115-11.73 6.773a1.21 1.21 0 0 1-1.086 0z"/><path fill="#000" d="m136.683 194.487 11.737-6.773a1.17 1.17 0 0 1 1.086 0l29.622 17.115-11.73 6.773a1.21 1.21 0 0 1-1.086 0z" opacity=".15"/><g fill="#000" opacity=".5"><path d="m145.746 195.533-1.053-.612a.564.564 0 0 1-.336-.659 1.28 1.28 0 0 1 .658-.757.9.9 0 0 1 .329-.099c.099-.012.2.004.29.047.072.046.105.098.086.171a.36.36 0 0 1-.172.184.655.655 0 0 0-.348.382.295.295 0 0 0 .171.336l1.06.605c.178.092.38.127.579.099a1.6 1.6 0 0 0 .658-.198l.895-.52a1.7 1.7 0 0 1-.724-.191l-1.06-.612a.58.58 0 0 1-.335-.658c.122-.333.37-.605.691-.757l.704-.402a3.1 3.1 0 0 1 1.317-.401c.399-.055.806.014 1.165.197l1.053.606a.59.59 0 0 1 .343.658q-.091.25-.27.445a1.3 1.3 0 0 1-.422.306l-2.83 1.632a3.1 3.1 0 0 1-1.317.395 2 2 0 0 1-1.132-.197m4.766-2.133a.7.7 0 0 0 .209-.153.7.7 0 0 0 .133-.222.29.29 0 0 0-.171-.343l-1.053-.605a1 1 0 0 0-.586-.099 1.6 1.6 0 0 0-.658.197l-.705.409a.64.64 0 0 0-.342.375.29.29 0 0 0 .165.336l1.059.612a1 1 0 0 0 .58.099c.231-.017.456-.084.658-.198zM152.066 194.92c-.046.033-.073.059-.079.099-.007.039 0 .059.039.079l1.455.842a.576.576 0 0 1 .329.658 1.32 1.32 0 0 1-.658.751l-.705.408a3.2 3.2 0 0 1-1.316.402 2 2 0 0 1-1.159-.198l-1.059-.612a.564.564 0 0 1-.33-.658 1.28 1.28 0 0 1 .659-.757c.1-.06.213-.094.329-.099a.54.54 0 0 1 .289.046.15.15 0 0 1 .074.07q.023.048.012.101a.33.33 0 0 1-.178.184.67.67 0 0 0-.342.382.28.28 0 0 0 .022.201c.031.062.084.11.149.135l1.053.606a1 1 0 0 0 .58.098c.231-.016.456-.083.658-.197l.704-.408a.66.66 0 0 0 .343-.376.283.283 0 0 0-.172-.335l-1.579-.915a.285.285 0 0 1-.172-.336.67.67 0 0 1 .343-.382l1.764-1.014a.7.7 0 0 1 .329-.098.5.5 0 0 1 .29.046l2.633 1.527a.14.14 0 0 1 .074.066q.024.047.011.099c0 .072-.072.131-.171.19a.8.8 0 0 1-.322.099.5.5 0 0 1-.29-.052l-2.245-1.317a.25.25 0 0 0-.144 0 .4.4 0 0 0-.172.053zM154.185 200.418l-1.06-.612a.573.573 0 0 1-.336-.658 1.313 1.313 0 0 1 .692-.757l2.817-1.626a3.1 3.1 0 0 1 1.317-.402c.397-.053.801.016 1.158.198l1.06.612a.556.556 0 0 1 .329.658 1.27 1.27 0 0 1-.658.757l-2.818 1.626a3.2 3.2 0 0 1-1.316.402 1.98 1.98 0 0 1-1.185-.198m-.355-1.014 1.059.606a.8.8 0 0 0 .336.099l1.54-3.015-2.758 1.593a.7.7 0 0 0-.21.156.7.7 0 0 0-.132.226.29.29 0 0 0 .165.335m5.266-1.836-1.054-.606a.8.8 0 0 0-.342-.098l-1.54 3.014 2.765-1.593a.657.657 0 0 0 .342-.381.28.28 0 0 0-.152-.336zM158.148 202.705l-1.586-.915c-.072-.046-.105-.099-.086-.171a.3.3 0 0 1 .172-.184.65.65 0 0 1 .329-.099.44.44 0 0 1 .289.046l.527.303 3.528-2.034a.66.66 0 0 0 .343-.376.29.29 0 0 0-.158-.335.152.152 0 0 1-.086-.172.33.33 0 0 1 .171-.184.7.7 0 0 1 .329-.099.46.46 0 0 1 .29.046.563.563 0 0 1 .336.659 1.32 1.32 0 0 1-.659.75l-3.528 2.034.533.31a.13.13 0 0 1 .073.07.14.14 0 0 1 .006.101.322.322 0 0 1-.171.184.65.65 0 0 1-.329.099.5.5 0 0 1-.323-.033M161.585 204.688l-1.053-.605a.57.57 0 0 1-.291-.267.57.57 0 0 1-.045-.391c.111-.33.347-.602.658-.757l2.824-1.626c.404-.23.854-.365 1.317-.395a2 2 0 0 1 1.165.19l1.053.613a.563.563 0 0 1 .336.658 1.32 1.32 0 0 1-.658.75l-2.825 1.633a3.1 3.1 0 0 1-1.316.395 1.97 1.97 0 0 1-1.165-.198m-.349-1.013 1.053.612a.9.9 0 0 0 .342.092l1.541-3.008-2.758 1.593a.66.66 0 0 0-.349.375.3.3 0 0 0 .171.336m5.266-1.83-1.007-.586a.7.7 0 0 0-.336-.092l-1.54 3.008 2.758-1.593a.7.7 0 0 0 .213-.152.7.7 0 0 0 .136-.223.3.3 0 0 0 .01-.115.3.3 0 0 0-.036-.109.3.3 0 0 0-.178-.138zM166.903 207.64a.5.5 0 0 1-.296-.046.145.145 0 0 1-.086-.165.35.35 0 0 1 .178-.191l1.974-1.132a1.7 1.7 0 0 1-.724-.191l-1.053-.612a.56.56 0 0 1-.336-.658c.113-.327.349-.597.659-.751l1.764-1.02a.9.9 0 0 1 .322-.099c.099-.012.2.004.29.046.073.047.105.099.086.172a.334.334 0 0 1-.171.191l-1.758 1.013a.655.655 0 0 0-.349.382.3.3 0 0 0 .024.197c.032.06.084.107.147.132l1.053.612a1 1 0 0 0 .586.099c.232-.016.456-.084.659-.197l1.764-1.021a.8.8 0 0 1 .322-.098c.099-.015.2.001.29.046a.153.153 0 0 1 .086.171.36.36 0 0 1-.172.191l-4.937 2.843a.65.65 0 0 1-.322.086"/></g><path fill="#F7921E" d="m71.27 10.285-60.025 34.64a2.66 2.66 0 0 0-1.206 2.09v69.319a2.61 2.61 0 0 0 1.213 2.074l2.294 1.307a2.72 2.72 0 0 0 2.427 0l59.995-34.647a2.68 2.68 0 0 0 1.205-2.09V13.659a2.64 2.64 0 0 0-1.213-2.082l-2.34-1.307a2.7 2.7 0 0 0-2.35.015"/><path fill="#fff" d="m71.27 10.285-60.025 34.64a2.66 2.66 0 0 0-1.206 2.09v69.319a2.61 2.61 0 0 0 1.213 2.074l2.294 1.307a2.72 2.72 0 0 0 2.427 0l59.995-34.647a2.68 2.68 0 0 0 1.205-2.09V13.659a2.64 2.64 0 0 0-1.213-2.082l-2.34-1.307a2.7 2.7 0 0 0-2.35.015" opacity=".8"/><path fill="#F7921E" d="M77.15 13.44c-.094-.61-.595-.83-1.198-.486l-60.018 34.68c-.356.222-.65.532-.853.9l-4.697-2.717c.203-.35.487-.645.83-.861L71.27 10.285a2.71 2.71 0 0 1 2.42 0l2.3 1.307a2.69 2.69 0 0 1 1.16 1.848" opacity=".3"/><path fill="#F7921E" d="M15.934 119.699a2.79 2.79 0 0 1-2.427 0l-2.294-1.308A2.61 2.61 0 0 1 10 116.317V47.014c.016-.439.149-.866.384-1.237l4.697 2.717c-.22.36-.344.769-.36 1.19v69.318c0 .704.5 1.112 1.213.697" opacity=".5"/><path fill="#F7921E" d="m75.968 12.962-60.034 34.67a2.68 2.68 0 0 0-1.213 2.09v69.319c0 .783.548 1.08 1.213.697l60.034-34.671a2.68 2.68 0 0 0 1.206-2.09V13.658c-.008-.775-.548-1.088-1.206-.696"/><path fill="#fff" d="m75.968 12.962-60.034 34.67a2.68 2.68 0 0 0-1.213 2.09v69.319c0 .783.548 1.08 1.213.697l60.034-34.671a2.68 2.68 0 0 0 1.206-2.09V13.658c-.008-.775-.548-1.088-1.206-.696" opacity=".8"/><path fill="#F7921E" d="M76.195 13.973v69.044a1.73 1.73 0 0 1-.72 1.253l-59.784 34.459V49.685a1.75 1.75 0 0 1 .72-1.252zm.298-1.143c-.19.008-.374.067-.533.172L15.934 47.634a2.68 2.68 0 0 0-1.213 2.09v69.319c0 .548.274.861.673.861.191-.008.377-.065.54-.165l60.034-34.67a2.69 2.69 0 0 0 1.206-2.09v-69.32c0-.547-.274-.868-.674-.868z" opacity=".3"/><path fill="#F7921E" d="M85.769 57.575a.43.43 0 0 0-.439.039l-.9.603-.196.532a1.03 1.03 0 0 0 .243 1.002c.14.156.282.32.415.5a.596.596 0 0 0 .83.197l2.113-1.386a.36.36 0 0 1 .415-.04zm-.713-2.349-2.497-1.432-.164-.063-1.566-.36a.86.86 0 0 0-.9.422l-1.488 2.834c-.142.24-.352.434-.602.556l.47 1.566a.55.55 0 0 0 .782.344q.475-.195.97-.32c.375-.104.695-.348.893-.682l1.495-2.841a.82.82 0 0 1 .893-.407l1.566.352a.5.5 0 0 1 .148 0zm-5.315 7.656c.14.32.238.657.29 1.002.461 2.7-1.245 6.537-3.813 8.556a5.3 5.3 0 0 1-2.7 1.206c.837 1.808 2.974 1.98 5.197.235 2.576-2.028 4.275-5.856 3.813-8.557-.298-1.737-1.378-2.59-2.787-2.473zm-2.31 16.369a.54.54 0 0 0-.782-.337q-.477.196-.979.321a.9.9 0 0 0-.305.133l.07.22a.44.44 0 0 0 .204.281l2.442 1.41a.53.53 0 0 1-.148-.243zm-3.029-17.418-.14-2.262a1.33 1.33 0 0 1 .445-1.01l2.349-1.863a.384.384 0 0 1 .477-.055l-2.505-1.448a.3.3 0 0 0-.172 0 .46.46 0 0 0-.29.11l-2.348 1.87a1.32 1.32 0 0 0-.454.995l.149 2.27a1.88 1.88 0 0 1-.368 1.088c-.392.47-.783.947-1.112 1.456a1.2 1.2 0 0 1-.963.493l-1.565-.078a.98.98 0 0 0-.87.54l-1.432 3.217a.595.595 0 0 0 .235.783l1.699.979c.04.14.04.29 0 .43a15 15 0 0 0-.266 1.566 1.9 1.9 0 0 1-.51 1.04l-2.105 1.942a1.28 1.28 0 0 0-.352 1.034l.391 2.293a.45.45 0 0 0 .196.313l2.505 1.449a.4.4 0 0 1-.196-.314l-.391-2.293a1.24 1.24 0 0 1 .352-1.034l2.098-1.933c.275-.286.455-.65.517-1.041q.086-.791.266-1.566a.78.78 0 0 0-.43-.853l-1.23-.525a.61.61 0 0 1-.32-.782l1.432-3.218a1 1 0 0 1 .877-.54l1.565.078a1.27 1.27 0 0 0 .97-.485c.345-.509.713-.994 1.097-1.464a1.73 1.73 0 0 0 .4-1.182m-3.57 15.82a.61.61 0 0 0-.845-.187l-1.19.783-.877 2.348a.53.53 0 0 0 .204.65l2.481 1.425a.52.52 0 0 1-.187-.627l1.072-2.896a1.03 1.03 0 0 0-.22-.986q-.225-.24-.414-.51z"/><path fill="#000" d="M85.77 57.575a.43.43 0 0 0-.439.039l-.9.603-.196.532a1.03 1.03 0 0 0 .243 1.002c.14.156.282.32.415.5a.597.597 0 0 0 .83.197l2.113-1.386a.36.36 0 0 1 .415-.04zm-.713-2.349-2.497-1.432-.164-.063-1.566-.36a.86.86 0 0 0-.9.422l-1.488 2.834c-.142.24-.352.434-.602.556l.47 1.566a.548.548 0 0 0 .782.344q.475-.195.97-.32c.375-.104.695-.348.893-.682l1.495-2.841a.82.82 0 0 1 .893-.407l1.565.352q.075-.012.15 0zm-5.315 7.656c.14.32.238.657.29 1.002.461 2.7-1.245 6.537-3.813 8.556a5.3 5.3 0 0 1-2.7 1.206c.837 1.808 2.974 1.98 5.197.235 2.576-2.028 4.275-5.856 3.813-8.557-.298-1.737-1.378-2.59-2.787-2.473zm-2.31 16.369a.54.54 0 0 0-.782-.337q-.478.196-.979.321a.9.9 0 0 0-.305.133l.07.22a.44.44 0 0 0 .204.281l2.442 1.41a.53.53 0 0 1-.148-.243zm-3.029-17.418-.14-2.262a1.33 1.33 0 0 1 .445-1.01l2.349-1.863a.384.384 0 0 1 .477-.055l-2.505-1.448a.3.3 0 0 0-.172 0 .46.46 0 0 0-.29.11l-2.348 1.87a1.32 1.32 0 0 0-.454.995l.149 2.27a1.88 1.88 0 0 1-.368 1.088c-.392.47-.783.947-1.112 1.456a1.2 1.2 0 0 1-.963.493l-1.565-.078a.98.98 0 0 0-.87.54l-1.432 3.217a.596.596 0 0 0 .235.783l1.699.979c.04.14.04.29 0 .43a15 15 0 0 0-.266 1.566 1.9 1.9 0 0 1-.51 1.04l-2.105 1.942c-.131.136-.23.299-.291.478-.061.178-.082.368-.061.556l.391 2.293a.46.46 0 0 0 .196.313l2.505 1.449a.41.41 0 0 1-.196-.314l-.391-2.293a1.24 1.24 0 0 1 .352-1.034l2.098-1.933c.275-.286.455-.65.517-1.041q.086-.791.266-1.566a.78.78 0 0 0-.43-.853l-1.23-.525a.61.61 0 0 1-.32-.782l1.432-3.218a1 1 0 0 1 .876-.54l1.566.078a1.27 1.27 0 0 0 .97-.485c.345-.509.713-.994 1.097-1.464a1.73 1.73 0 0 0 .399-1.182m-3.57 15.82a.61.61 0 0 0-.845-.187l-1.19.783-.877 2.348a.53.53 0 0 0 .204.65l2.481 1.425a.52.52 0 0 1-.187-.627l1.072-2.896a1.03 1.03 0 0 0-.22-.986q-.225-.24-.414-.51z" opacity=".2"/><path fill="#F7921E" d="m69.486 63.43-1.566-.078a1 1 0 0 0-.634.227l2.505 1.448a.98.98 0 0 1 .626-.235l1.566.078c.154.002.306-.03.446-.094l-2.505-1.44a1.1 1.1 0 0 1-.438.094m5.127-8.173-2.348 1.871a1.2 1.2 0 0 0-.384.61l2.49 1.45c.066-.243.202-.461.39-.627l2.35-1.863a.384.384 0 0 1 .477-.055l-2.505-1.448a.42.42 0 0 0-.47.062M64.742 73.81a1.2 1.2 0 0 0-.321.595l2.497 1.448a1.2 1.2 0 0 1 .329-.602l2.074-1.91-2.497-1.44zm21.026-16.235a.42.42 0 0 0-.438.039l-.9.603-.196.532a.9.9 0 0 0 0 .665q.063.158.172.29.065.057.118.125c.101.11.203.243.305.376a.59.59 0 0 0 .603.274.1.1 0 0 0 .07 0 .5.5 0 0 0 .157-.07l2.113-1.386a.45.45 0 0 1 .259-.094.3.3 0 0 1 .125 0h.039zm-.712-2.349-2.497-1.432-.165-.063-1.565-.36a.86.86 0 0 0-.9.422l-1.488 2.834q-.134.227-.344.384l2.505 1.44c.136-.102.248-.233.328-.383l1.496-2.842a.82.82 0 0 1 .892-.407l1.566.352a.5.5 0 0 1 .172.024z"/><path fill="#fff" d="m69.486 63.43-1.566-.078a1 1 0 0 0-.634.227l2.505 1.448a.98.98 0 0 1 .626-.235l1.566.078c.154.002.306-.03.446-.094l-2.505-1.44a1.1 1.1 0 0 1-.438.094m5.127-8.173-2.348 1.871a1.2 1.2 0 0 0-.384.61l2.49 1.45c.066-.243.202-.461.39-.627l2.35-1.863a.384.384 0 0 1 .477-.055l-2.505-1.448a.42.42 0 0 0-.47.062M64.742 73.81a1.2 1.2 0 0 0-.321.595l2.497 1.448a1.2 1.2 0 0 1 .329-.602l2.074-1.91-2.497-1.44zm21.026-16.235a.42.42 0 0 0-.438.039l-.9.603-.196.532a.9.9 0 0 0 0 .665q.063.158.172.29.065.057.118.125c.101.11.203.243.305.376a.59.59 0 0 0 .603.274.1.1 0 0 0 .07 0 .5.5 0 0 0 .157-.07l2.113-1.386a.45.45 0 0 1 .259-.094.3.3 0 0 1 .125 0h.039zm-.712-2.349-2.497-1.432-.165-.063-1.565-.36a.86.86 0 0 0-.9.422l-1.488 2.834q-.134.227-.344.384l2.505 1.44c.136-.102.248-.233.328-.383l1.496-2.842a.82.82 0 0 1 .892-.407l1.566.352a.5.5 0 0 1 .172.024z" opacity=".2"/><path fill="#F7921E" d="m88.852 61.622-.399-2.294a.376.376 0 0 0-.626-.266l-2.098 1.378a.604.604 0 0 1-.846-.188 5 5 0 0 0-.407-.5 1.04 1.04 0 0 1-.25-1.003l1.072-2.896a.533.533 0 0 0-.391-.72l-1.566-.36a.87.87 0 0 0-.9.422l-1.487 2.834a1.57 1.57 0 0 1-.9.68q-.501.126-.98.322a.543.543 0 0 1-.743-.345l-.54-1.777a.39.39 0 0 0-.665-.21l-2.349 1.862a1.35 1.35 0 0 0-.446 1.01l.14 2.255c.003.395-.127.78-.367 1.096q-.587.705-1.104 1.456a1.23 1.23 0 0 1-.97.493l-1.52-.079a.98.98 0 0 0-.876.54L68.14 68.55a.61.61 0 0 0 .32.783l1.238.524a.78.78 0 0 1 .422.853q-.18.776-.266 1.566a1.9 1.9 0 0 1-.516 1.041l-2.106 1.934a1.3 1.3 0 0 0-.352 1.033l.399 2.294a.376.376 0 0 0 .626.274l2.098-1.386a.61.61 0 0 1 .845.196q.19.263.407.5a1.03 1.03 0 0 1 .251 1.003l-1.072 2.896a.532.532 0 0 0 .391.72l1.566.353a.85.85 0 0 0 .9-.415l1.487-2.842c.21-.324.53-.563.9-.673q.5-.125.979-.32a.54.54 0 0 1 .783.344l.532 1.776a.4.4 0 0 0 .673.212l2.349-1.871a1.31 1.31 0 0 0 .446-1.002l-.141-2.262c0-.395.132-.778.376-1.088.383-.47.783-.956 1.096-1.464a1.22 1.22 0 0 1 .97-.486l1.527.07a.97.97 0 0 0 .877-.54l1.432-3.209a.603.603 0 0 0-.32-.783l-1.23-.532a.78.78 0 0 1-.422-.846q.174-.775.258-1.565c.061-.392.242-.756.517-1.041l2.113-1.934a1.3 1.3 0 0 0 .36-1.041M78.715 73.85c-2.576 2.02-5.042 1.471-5.48-1.23s1.245-6.536 3.812-8.556c2.568-2.02 5.042-1.471 5.48 1.23s-1.245 6.528-3.812 8.556M40.201 52.222c.308-.306.507-.705.564-1.136l.548-6.082a1.48 1.48 0 0 1 .657-1.018l5.48-3.131a.5.5 0 0 1 .415-.055l-2.662-1.565a.5.5 0 0 0-.18 0 .5.5 0 0 0-.266.078l-5.48 3.131a1.47 1.47 0 0 0-.641 1.018l-.548 6.09c-.067.428-.27.824-.58 1.127a35 35 0 0 0-3.03 3.218 1.02 1.02 0 0 1-1.08.305L29.9 52.99a.83.83 0 0 0-.986.368l-4.024 6.951a.845.845 0 0 0 .18 1.033l2.81 2.427a1.06 1.06 0 0 1 .275 1.08 33.5 33.5 0 0 0-1.26 4.243 2.1 2.1 0 0 1-.705 1.057l-5.018 3.5a1.46 1.46 0 0 0-.556 1.072v6.31a.46.46 0 0 0 .188.414l2.693 1.566a.46.46 0 0 1-.204-.415v-6.31a1.48 1.48 0 0 1 .564-1.072l4.986-3.515c.344-.267.591-.637.705-1.057.329-1.437.75-2.852 1.26-4.235a1.04 1.04 0 0 0-.266-1.088l-2.818-2.427a.84.84 0 0 1-.172-1.025l4.016-6.967a.86.86 0 0 1 .986-.368l3.507 1.229a1.03 1.03 0 0 0 1.065-.305 33 33 0 0 1 3.076-3.233M29.625 81.185a.57.57 0 0 0-.782-.368l-1.175.532c.126.243.25.485.384.697a1.35 1.35 0 0 1 .07 1.19l-3.24 6.528a.78.78 0 0 0 .29.955l2.684 1.566a.78.78 0 0 1-.29-.947l3.25-6.544a1.35 1.35 0 0 0-.079-1.175c-.47-.77-.843-1.596-1.112-2.458zm11.68 11.851-.524-5.307a.57.57 0 0 0-.728-.509q-.907.195-1.832.25l.399 4.017a.47.47 0 0 0 .211.368l2.693 1.565a.46.46 0 0 1-.219-.384m21.919-43.375a.45.45 0 0 0-.423 0l-3.68 1.66q.417.825.698 1.706a.57.57 0 0 0 .782.376l4.87-2.192a.42.42 0 0 1 .43 0zM54.425 38.6l-4.04 6.083a1.35 1.35 0 0 1-1.056.525h-.783l.125 1.291a.58.58 0 0 0 .736.517 11.6 11.6 0 0 1 2.63-.274 1.3 1.3 0 0 0 1.057-.517l4.04-6.074a.736.736 0 0 1 .97-.228l-2.693-1.565a.783.783 0 0 0-1.017.211zM50.08 55.346a8.4 8.4 0 0 1 1.198 4.893c0 5.886-4.133 13.05-9.23 15.993-1.995 1.15-3.686 1.565-5.017 1.213 1.652 1.926 4.477 2.2 7.703.337 5.096-2.944 9.237-10.107 9.237-15.994-.031-3.608-1.573-5.902-3.922-6.473z"/><path fill="#000" d="M40.201 52.222c.308-.306.507-.705.564-1.136l.548-6.082a1.48 1.48 0 0 1 .657-1.018l5.48-3.131a.5.5 0 0 1 .415-.055l-2.662-1.565a.5.5 0 0 0-.18 0 .5.5 0 0 0-.266.078l-5.48 3.131a1.47 1.47 0 0 0-.641 1.018l-.548 6.09c-.067.428-.27.824-.58 1.127a35 35 0 0 0-3.03 3.218 1.02 1.02 0 0 1-1.08.305L29.9 52.99a.83.83 0 0 0-.986.368l-4.024 6.951a.845.845 0 0 0 .18 1.033l2.81 2.427a1.06 1.06 0 0 1 .275 1.08 33.5 33.5 0 0 0-1.26 4.243 2.1 2.1 0 0 1-.705 1.057l-5.018 3.5a1.46 1.46 0 0 0-.556 1.072v6.31a.46.46 0 0 0 .188.414l2.693 1.566a.46.46 0 0 1-.204-.415v-6.31a1.48 1.48 0 0 1 .564-1.072l4.986-3.515c.344-.267.591-.637.705-1.057.329-1.437.75-2.852 1.26-4.235a1.04 1.04 0 0 0-.266-1.088l-2.818-2.427a.84.84 0 0 1-.172-1.025l4.016-6.967a.86.86 0 0 1 .986-.368l3.507 1.229a1.03 1.03 0 0 0 1.065-.305 33 33 0 0 1 3.076-3.233M29.625 81.185a.57.57 0 0 0-.782-.368l-1.175.532c.126.243.25.485.384.697a1.35 1.35 0 0 1 .07 1.19l-3.24 6.528a.78.78 0 0 0 .29.955l2.684 1.566a.78.78 0 0 1-.29-.947l3.25-6.544a1.35 1.35 0 0 0-.079-1.175c-.47-.77-.843-1.596-1.112-2.458zm11.68 11.851-.524-5.307a.57.57 0 0 0-.728-.509q-.907.195-1.832.25l.399 4.017a.47.47 0 0 0 .211.368l2.693 1.565a.46.46 0 0 1-.219-.384m21.919-43.375a.45.45 0 0 0-.423 0l-3.68 1.66q.417.825.698 1.706a.57.57 0 0 0 .782.376l4.87-2.192a.42.42 0 0 1 .43 0zM54.425 38.6l-4.04 6.083a1.35 1.35 0 0 1-1.056.525h-.783l.125 1.291a.58.58 0 0 0 .736.517 11.6 11.6 0 0 1 2.63-.274 1.3 1.3 0 0 0 1.057-.517l4.04-6.074a.736.736 0 0 1 .97-.228l-2.693-1.565a.783.783 0 0 0-1.017.211zM50.08 55.346a8.4 8.4 0 0 1 1.198 4.893c0 5.886-4.133 13.05-9.23 15.993-1.995 1.15-3.686 1.565-5.017 1.213 1.652 1.926 4.477 2.2 7.703.337 5.096-2.944 9.237-10.107 9.237-15.994-.031-3.608-1.573-5.902-3.922-6.473z" opacity=".2"/><path fill="#F7921E" d="M66.073 57.906v-6.31a.407.407 0 0 0-.619-.406l-4.869 2.191a.57.57 0 0 1-.783-.367 11.2 11.2 0 0 0-1.088-2.42 1.32 1.32 0 0 1-.07-1.174l3.24-6.536a.78.78 0 0 0-.289-.955L58.08 39.9a.72.72 0 0 0-.97.227l-4.04 6.075a1.35 1.35 0 0 1-1.065.524c-.884-.02-1.767.07-2.63.267a.58.58 0 0 1-.728-.517l-.532-5.308a.407.407 0 0 0-.658-.336l-5.48 3.131a1.48 1.48 0 0 0-.657 1.018l-.548 6.082c-.06.43-.258.828-.564 1.135a32 32 0 0 0-3.037 3.218 1.05 1.05 0 0 1-1.072.305l-3.507-1.229a.85.85 0 0 0-.987.368l-4.015 6.96a.846.846 0 0 0 .172 1.032l2.818 2.427a1.07 1.07 0 0 1 .274 1.08c-.52 1.384-.944 2.801-1.268 4.243-.116.417-.36.786-.697 1.057l-4.994 3.515a1.46 1.46 0 0 0-.556 1.072v6.31a.407.407 0 0 0 .618.407l4.861-2.192a.578.578 0 0 1 .783.376c.264.844.626 1.653 1.08 2.411a1.32 1.32 0 0 1 .079 1.174l-3.241 6.537a.735.735 0 0 0 .282.955l3.523 2.035a.78.78 0 0 0 .97-.227l4.04-6.082a1.35 1.35 0 0 1 1.056-.525c.885.02 1.768-.07 2.63-.266a.58.58 0 0 1 .729.517l.54 5.307a.408.408 0 0 0 .657.337l5.48-3.132a1.45 1.45 0 0 0 .65-1.017l.548-6.083c.06-.43.26-.83.571-1.135a32 32 0 0 0 3.03-3.217 1.07 1.07 0 0 1 1.08-.305l3.507 1.228a.85.85 0 0 0 .986-.367l4.016-6.96a.846.846 0 0 0-.18-1.033l-2.81-2.427a1.03 1.03 0 0 1-.274-1.08c.517-1.384.94-2.802 1.268-4.243a2.05 2.05 0 0 1 .697-1.057l4.994-3.515a1.48 1.48 0 0 0 .564-1.072M44.702 77.75c-5.104 2.944-9.237.556-9.237-5.33s4.133-13.05 9.237-15.994 9.23-.555 9.23 5.331-4.134 13.05-9.23 15.993"/><path fill="#F7921E" d="m28.913 53.34-4.024 6.952a.78.78 0 0 0-.086.5l2.677 1.566a.85.85 0 0 1 .102-.5l4.016-6.968a.78.78 0 0 1 .68-.399l-2.669-1.566a.78.78 0 0 0-.696.415m-2.725 16.792-5.017 3.514a1.5 1.5 0 0 0-.337.384l2.677 1.566q.136-.221.345-.376l4.986-3.515q.23-.17.4-.4l-2.693-1.565q-.152.223-.36.392M44.741 39.28l-5.48 3.131c-.24.164-.43.392-.547.658l2.685 1.565c.111-.274.306-.506.555-.665l5.48-3.131a.5.5 0 0 1 .415-.055l-2.662-1.566a.45.45 0 0 0-.446.063m9.652-.712-4.039 6.082a1 1 0 0 1-.266.258l2.693 1.566q.155-.106.266-.258l4.04-6.075a.735.735 0 0 1 .97-.227l-2.693-1.566a.78.78 0 0 0-.97.22m8.791 11.037a.47.47 0 0 0-.422 0l-3.68 1.66q.225.447.4.916.168.383.29.782c.04.126.12.236.226.314a.55.55 0 0 0 .587.062l4.87-2.192a.6.6 0 0 1 .234-.047h.133l-2.669-1.565z"/><path fill="#fff" d="m28.913 53.34-4.024 6.952a.78.78 0 0 0-.086.5l2.677 1.566a.85.85 0 0 1 .102-.5l4.016-6.968a.78.78 0 0 1 .68-.399l-2.669-1.566a.78.78 0 0 0-.696.415m-2.725 16.792-5.017 3.514a1.5 1.5 0 0 0-.337.384l2.677 1.566q.136-.221.345-.376l4.986-3.515q.23-.17.4-.4l-2.693-1.565q-.152.223-.36.392M44.741 39.28l-5.48 3.131c-.24.164-.43.392-.547.658l2.685 1.565c.111-.274.306-.506.555-.665l5.48-3.131a.5.5 0 0 1 .415-.055l-2.662-1.566a.45.45 0 0 0-.446.063m9.652-.712-4.039 6.082a1 1 0 0 1-.266.258l2.693 1.566q.155-.106.266-.258l4.04-6.075a.735.735 0 0 1 .97-.227l-2.693-1.566a.78.78 0 0 0-.97.22m8.791 11.037a.47.47 0 0 0-.422 0l-3.68 1.66q.225.447.4.916.168.383.29.782c.04.126.12.236.226.314a.55.55 0 0 0 .587.062l4.87-2.192a.6.6 0 0 1 .234-.047h.133l-2.669-1.565z" opacity=".2"/></g><defs><clipPath id="a"><path fill="#fff" d="M10 10h236v236H10z"/></clipPath></defs></svg>