<svg xmlns="http://www.w3.org/2000/svg" width="256" height="256" fill="none"><path stroke="#D5D5D5" d="M236.282 170.593c0 17.076-11.993 32.63-31.588 43.943-19.582 11.306-46.668 18.314-76.614 18.314-29.945 0-57.031-7.008-76.613-18.314-19.596-11.313-31.588-26.867-31.588-43.943s11.992-32.63 31.588-43.943c19.582-11.305 46.668-18.314 76.613-18.314 29.946 0 57.032 7.009 76.614 18.314 19.595 11.313 31.588 26.868 31.588 43.943Z"/><path fill="#37474F" d="m134.599 162.114-30.208 17.464-.071-.037-11.493-6.641a6.2 6.2 0 0 1-2.785-6.099l4.248-22.146 30.208-17.464-4.248 22.146a6.194 6.194 0 0 0 2.785 6.099z"/><path fill="#263238" d="m94.304 144.655-4.23 21.953 30.218-17.441 3.908-20.305-1.906-.383z"/><path fill="#263238" d="m104.381 179.574-11.56-6.674a6.21 6.21 0 0 1-2.784-6.099l4.248-22.146-5.036-2.912-4.871 25.337c-.647 3.351 1.246 7.49 4.2 9.194l15.789 9.115z"/><path fill="#455A64" d="m134.599 162.115-30.218 17.459v5.82l30.218-17.46zM164.16 18.603c1.388.802 2.516 2.832 2.516 4.554v92.73a5.93 5.93 0 0 1-2.686 4.649L48.411 187.272c-1.482.854-3.813.897-5.192.094-1.378-.802-2.52-2.832-2.52-4.554v-92.73a5.95 5.95 0 0 1 2.686-4.653l115.569-66.732c1.482-.859 3.814-.901 5.206-.094"/><path fill="#263238" d="M48.09 187.432c-1.482.694-3.592.68-4.89-.066-1.392-.802-2.52-2.832-2.52-4.555V90.082a5.5 5.5 0 0 1 .788-2.648l5.055 2.913a5.5 5.5 0 0 0-.788 2.643v92.729c-.014 1.591 1.02 2.303 2.355 1.713"/><path fill="#37474F" d="M166.676 115.887v-92.71c0-1.714-1.199-2.408-2.686-1.553L48.411 88.34a5.93 5.93 0 0 0-2.685 4.649v92.729c0 1.713 1.203 2.407 2.685 1.553l115.579-66.736a5.93 5.93 0 0 0 2.686-4.649"/><path fill="#F7921E" d="M160.776 26.339 50.389 90.106a4.75 4.75 0 0 0-2.148 3.72v82.33c0 1.369.944 1.926 2.148 1.242l110.391-63.767a4.76 4.76 0 0 0 2.148-3.72v-82.33c0-1.37-.963-1.927-2.152-1.242"/><path fill="#fff" d="M160.776 26.339 50.389 90.106a4.75 4.75 0 0 0-2.148 3.72v82.33c0 1.369.944 1.926 2.148 1.242l110.391-63.767a4.76 4.76 0 0 0 2.148-3.72v-82.33c0-1.37-.963-1.927-2.152-1.242" opacity=".8"/><path fill="#F7F7F7" d="M56.11 167.273c-.585 0-.944-.472-.944-1.279v-65.202l100.828-58.207v64.928a4.42 4.42 0 0 1-1.996 3.455l-97.062 56.045a1.7 1.7 0 0 1-.826.26"/><path fill="#E0E0E0" d="M155.758 43v64.523a4.2 4.2 0 0 1-1.888 3.257l-97.052 56.031a1.5 1.5 0 0 1-.708.226c-.633 0-.699-.727-.699-1.043v-65.065zm.472-.816L54.94 100.665v65.329c0 .944.471 1.515 1.17 1.515.335-.012.66-.113.944-.292l97.057-56.036a4.675 4.675 0 0 0 2.119-3.668V42.174z"/><path fill="#F7921E" d="M54.94 100.655v9.171l101.29-58.48v-9.172z"/><path fill="#FAFAFA" d="M118.494 67.544v1.973c0 .401.288.567.637.368l31.152-17.983v-3.427L119.131 66.46a1.42 1.42 0 0 0-.637 1.085"/><path fill="#455A64" d="M153.611 46.55c.349-.203.632-.038.632.368v1.973a1.4 1.4 0 0 1-.632 1.1l-3.337 1.925v-3.44z"/><path fill="#FAFAFA" d="m153.361 49.254-.369-.113q.056-.233.057-.472a.88.88 0 0 0-.34-.793.53.53 0 0 0-.543 0 1.89 1.89 0 0 0-.741 1.548.89.89 0 0 0 .34.798.5.5 0 0 0 .236.061.6.6 0 0 0 .307-.09c.282-.194.493-.476.599-.802l.373.113h.043q.045 0 .082-.028a.14.14 0 0 0 .05-.07.15.15 0 0 0-.094-.152m-1.195.718a.26.26 0 0 1-.264 0 .64.64 0 0 1-.203-.557 1.66 1.66 0 0 1 .609-1.308.33.33 0 0 1 .165-.052.2.2 0 0 1 .099 0 .7.7 0 0 1 .168.255c.035.096.047.2.035.302a1.67 1.67 0 0 1-.609 1.36"/><path fill="#37474F" d="M54.94 96.223a4.67 4.67 0 0 1 2.114-3.668L154.11 36.52c1.171-.675 2.119-.128 2.119 1.222v4.432L54.94 100.655z"/><path fill="#F7921E" d="M144.312 44.463a2.2 2.2 0 0 0-.991 1.718c0 .638.444.893.991.576a2.18 2.18 0 0 0 .996-1.722c0-.619-.443-.888-.996-.572M147.791 42.462a2.18 2.18 0 0 0-.996 1.718c0 .633.444.892.996.576a2.2 2.2 0 0 0 .991-1.723c0-.632-.443-.887-.991-.57M151.265 40.46a2.19 2.19 0 0 0-.991 1.719c0 .632.443.892.991.575a2.2 2.2 0 0 0 .991-1.722c-.005-.633-.444-.864-.991-.571"/><path fill="#E0E0E0" d="m149.488 65.672-.029-1.383-1.642-.944a.52.52 0 0 0-.524.052l-22.887 13.216c-.216.141-.395.33-.523.554a1.64 1.64 0 0 0-.218.73V107a.517.517 0 0 0 .212.472l1.647.944v-1.638l21.764-12.54a1.64 1.64 0 0 0 .741-1.284V65.672z"/><path fill="#FAFAFA" d="m149.46 64.289-1.643-.944a.52.52 0 0 0-.524.052l-22.887 13.216c-.192.12-.353.28-.472.472l2.327 1.345 21.768-12.272z"/><path fill="#F0F0F0" d="m126.048 77.552 22.883-13.216c.411-.236.741-.047.741.43v29.127a1.64 1.64 0 0 1-.741 1.284l-22.883 13.192c-.41.236-.741.047-.741-.429V78.836a1.64 1.64 0 0 1 .741-1.284"/><mask id="a" width="25" height="45" x="125" y="64" maskUnits="userSpaceOnUse" style="mask-type:luminance"><path fill="#fff" d="m126.048 77.552 22.883-13.216c.411-.236.741-.047.741.43v29.127a1.64 1.64 0 0 1-.741 1.284l-22.883 13.192c-.41.236-.741.047-.741-.429V78.836a1.64 1.64 0 0 1 .741-1.284"/></mask><g mask="url(#a)"><path fill="#B16668" d="M143.73 107.586c-2.568-11.262-5.504-13.25-2.762-15.576 2.832-1.077 4.277.471 4.768 3.775.24 1.615.764 8.364 1.416 10.89.576 2.218 1.35 4.965 2.213 6.551a.94.94 0 0 0 .708.472c.803.118 1.039.566 1.695.901.51.26.887.194.864.373a1.02 1.02 0 0 1-.808.803 2.8 2.8 0 0 1-.944-.066c.391.509.871.944 1.416 1.283 1.256.812 1.464 1.61-.533 2.672-1.246.666-2.417.34-3.965-2.195a20 20 0 0 1-1.562-2.936c-1.105-2.756-2.082-5.135-2.506-6.947"/><path fill="#455A64" d="M140.969 91.99s1.316-.618 2.279-.41 2.153.996 2.573 4.007c0 0-.255.944-1.605 1.888z"/><path fill="#F7921E" d="M136.456 93.35c-2.794.968-2.988 2.577-3.686 4.47a6.44 6.44 0 0 0-.132 4.187l1.944 5.975a40.5 40.5 0 0 0-1.968 5.485c4.881 1.841 10.979-1.449 12.447-4.135.061-.505-.316-4.21-.548-6.636.859-2.719 1.086-4.357.722-5.905-.675-2.879-3.304-5.154-4.441-4.72z"/><path fill="#000" d="M136.456 93.35c-2.794.968-2.988 2.577-3.686 4.47a6.44 6.44 0 0 0-.132 4.187l1.944 5.975a40.5 40.5 0 0 0-1.968 5.485c4.881 1.841 10.979-1.449 12.447-4.135.061-.505-.316-4.21-.548-6.636.859-2.719 1.086-4.357.722-5.905-.675-2.879-3.304-5.154-4.441-4.72z" opacity=".1"/><path fill="#263238" d="m139.774 89.503-2.058.562c-2.869.779-5.192-1.265-5.215-4.574 0-3.965 2.761-7.939 6.197-8.873 3.432-.944 6.231 1.515 6.245 5.48.014 3.304-2.304 6.622-5.169 7.405"/><path fill="#263238" d="M137.074 75.362c.888 1.27-.051 2.554-1.359 3.932-1.307 1.378-2.487 2.322-3.375 1.053s-.401-3.092.907-4.466c1.307-1.373 2.95-1.793 3.827-.519"/><path fill="#263238" d="m133.884 80.899-1.317 1.477a1.08 1.08 0 0 1 .142-1.354.76.76 0 0 1 .559-.337.77.77 0 0 1 .616.214"/><path fill="#B16668" d="M142.54 78.784c.661.27 1.478 1.954 1.416 5.976-.056 3.403-1.005 4.503-1.482 4.87-.476.369-1.416.473-2.298.548l.052 2.049s1.51 1.024 1.416 1.977-2.091 1.926-3.253 1.332a9.8 9.8 0 0 1-2.095-1.525.2.2 0 0 1-.037-.059.2.2 0 0 1-.01-.068v-5.131s-.529.731-1.416.076a1.925 1.925 0 0 1-.421-2.563c.572-.831 1.638-.945 2.049-.086 0 0 1.416-.33 3.304-2.057a8.6 8.6 0 0 0 2.775-5.339"/><path fill="#263238" d="M140.379 84.76a.58.58 0 0 1-.35.557c-.203.066-.377-.076-.387-.317a.57.57 0 0 1 .345-.557c.184-.07.354.071.392.317"/><path fill="#9A4A4D" d="m140.78 87.644.859.084a.59.59 0 0 1-.557.506c-.232-.024-.369-.284-.302-.59"/><path fill="#263238" d="m143.682 82.669-.75-.397c.137-.283.411-.425.618-.316a.544.544 0 0 1 .132.713M143.588 83.73a.57.57 0 0 1-.344.558c-.208.066-.383-.076-.392-.316a.58.58 0 0 1 .349-.557c.203-.095.378.047.387.316"/><path fill="#9A4A4D" d="m141.865 83.712-.014 2.78 1.171-.737z"/><path fill="#F7921E" d="M145.131 83.08c-.099-.666-.755-.945-1.453-.742h-.066a2.03 2.03 0 0 0-1.185 1.072.9.9 0 0 0-.699 0c-.228.089-.435.224-.609.396a1.13 1.13 0 0 0-1.25-.278h-.066a1.98 1.98 0 0 0-1.308 1.477l-2.294.755q.087.08.156.175l2.124-.704a.99.99 0 0 0 .434.859 1 1 0 0 0 .958.085l.203-.066a1.828 1.828 0 0 0 1.246-1.85 1 1 0 0 0-.094-.288c.144-.157.324-.279.524-.354a.66.66 0 0 1 .585 0q-.043.156-.052.316a1 1 0 0 0 .903 1.098 1 1 0 0 0 .513-.092l.203-.066a1.81 1.81 0 0 0 1.227-1.794m-4.03 1.642a1.62 1.62 0 0 1-1.077 1.227l-.122.042a.86.86 0 0 1-1.171-.51 1.494 1.494 0 0 1 1.015-1.651l.203-.066a.84.84 0 0 1 1.152.958m3.809-1.227a1.62 1.62 0 0 1-1.077 1.227l-.122.042a.85.85 0 0 1-1.166-.51 1.49 1.49 0 0 1 1.01-1.651l.203-.067a.835.835 0 0 1 1.152.959"/><path fill="#9A4A4D" d="M140.175 90.178c-.944.118-2.888 0-3.195-.802.109.386.351.72.684.944.586.415 2.53.538 2.53.538z"/><path fill="#000" d="M137.702 112.702c-1.6 0-2.619-1.61-2.195-3.564 0-.075.033-.137.048-.189.316-.944.991-1.024.991-1.024-.633-.311-.944-1.062-1.081-1.888l-.751-3.795a5.8 5.8 0 0 1 .147-2.015l-1.959-2.096-.364.387a6.35 6.35 0 0 0 .081 3.488l1.944 5.976a37 37 0 0 0-1.949 5.485c3.597 1.354 7.854-.076 10.431-1.997a13.3 13.3 0 0 1-5.343 1.232" opacity=".1"/><path fill="#B16668" d="M127.634 111.89c2.172-10.823 3.54-15.49 5.919-17.138a7.8 7.8 0 0 1 1.61-.798c.325.123.359.84.425 1.298a11.43 11.43 0 0 1-1.237 6.198s-3.167 8.562-3.672 11.441c-.444 2.516-.944 5.664-.916 7.731-.007.338.118.665.349.911.581.571.581 1.152.944 1.855.293.548.614.694.524.864a.75.75 0 0 1-.944.335 2.7 2.7 0 0 1-.717-.609 7.6 7.6 0 0 0 .571 2.068c.647 1.519.472 2.426-1.487 2.36-1.241-.043-2.02-1.029-2.204-4.418a30 30 0 0 1-.033-3.8c.255-3.342.444-6.249.868-8.298"/><path fill="#455A64" d="M135.337 93.845a3.69 3.69 0 0 0-3.153 1.742 19.8 19.8 0 0 0-1.661 3.95c.382.798 2.502 2.885 3.531 3.144q.532-1.025.906-2.119c.623-1.76 1.595-4.772.377-6.717"/></g><path fill="#DE7700" d="m149.488 100.25-.029-1.382-1.642-.944a.53.53 0 0 0-.524.051l-22.887 13.216a1.65 1.65 0 0 0-.741 1.289v6.816a.52.52 0 0 0 .212.472l1.647.944v-1.633l21.764-12.546a1.63 1.63 0 0 0 .741-1.284v-4.999z"/><path fill="#F9A84B" d="m149.46 98.873-1.643-.944a.52.52 0 0 0-.524.052l-22.887 13.216a1.4 1.4 0 0 0-.472.472l2.332 1.326 21.768-12.272z"/><path fill="#F7921E" d="m126.048 112.136 22.883-13.216c.411-.236.741-.043.741.43v6.839a1.63 1.63 0 0 1-.741 1.288l-22.883 13.188c-.41.236-.741.042-.741-.43v-6.811a1.64 1.64 0 0 1 .741-1.288"/><path fill="#E0E0E0" d="m118.482 83.56-.028-1.382-1.643-.944a.53.53 0 0 0-.524.052L93.405 94.502a1.64 1.64 0 0 0-.741 1.288v29.104a.52.52 0 0 0 .207.472l1.643.944v-1.633l21.792-12.541c.217-.14.398-.329.527-.553.13-.223.205-.473.219-.731V83.561z"/><path fill="#FAFAFA" d="m118.454 82.178-1.643-.944a.53.53 0 0 0-.524.052L93.405 94.502c-.192.118-.354.28-.472.472l2.322 1.34 21.773-12.272z"/><path fill="#F0F0F0" d="m95.066 95.441 22.887-13.216c.411-.236.742-.042.742.43v29.127a1.634 1.634 0 0 1-.742 1.288l-22.887 13.193c-.41.236-.746.042-.746-.43V96.73a1.66 1.66 0 0 1 .746-1.289"/><path fill="#DE7700" d="m118.482 118.135-.028-1.383-1.643-.944a.52.52 0 0 0-.524.052l-22.882 13.216a1.64 1.64 0 0 0-.741 1.288v6.816a.52.52 0 0 0 .207.472l1.643.944v-1.633l21.792-12.536a1.66 1.66 0 0 0 .746-1.289v-5.003z"/><path fill="#F9A84B" d="m118.454 116.771-1.643-.944a.52.52 0 0 0-.524.052l-22.882 13.216a1.44 1.44 0 0 0-.472.472l2.322 1.34 21.773-12.272z"/><path fill="#F7921E" d="m95.066 130.015 22.887-13.216c.411-.236.742-.042.742.43v6.839a1.634 1.634 0 0 1-.742 1.288l-22.887 13.193c-.41.236-.746.042-.746-.43v-6.815a1.66 1.66 0 0 1 .746-1.289"/><mask id="b" width="25" height="45" x="94" y="82" maskUnits="userSpaceOnUse" style="mask-type:luminance"><path fill="#fff" d="m94.937 95.496 22.882-13.216c.411-.24.746-.047.746.425v29.132a1.64 1.64 0 0 1-.746 1.284l-22.883 13.187c-.41.236-.74.047-.74-.429v-29.1a1.63 1.63 0 0 1 .74-1.283"/></mask><g mask="url(#b)"><path fill="#FFA8A7" d="M110.928 107.801s1.798-.553 3.304 1.807c1.019 1.61 4.578 7.708 4.578 7.708s6.924-3.672 7.312-4.149.368-1.458.424-1.982a5.6 5.6 0 0 0-.269-1.945c-.08-.552.713-.58 1.105.184.288.557.307 1.194.557 1.204q.508-.374.944-.831c.429-.472 1.208-1.255 1.793-1.147a.53.53 0 0 1 .392.425c.014.326.09.646.222.944q.142.172.231.378.025.302 0 .604c.024.292.307.415.345.698a5 5 0 0 1-.071.656c0 .137.042.26.042.402a1.33 1.33 0 0 1-.354.769 8.2 8.2 0 0 1-2.057 1.718c-.628.415-1.464.779-2.176 1.171-.713.391-8.874 6.645-9.96 5.904-1.085-.741-6.532-8.67-6.532-8.67-1.241-3.521.17-5.848.17-5.848"/><path fill="#455A64" d="M107.77 107.858s1.983-.808 3.266-.723c1.284.085 2.238.449 3.182 1.964a431 431 0 0 1 3.341 5.522 10.06 10.06 0 0 1-4.049 4.333l-3.838-5.796z"/><path fill="#F7921E" d="M101.478 111.36a4.22 4.22 0 0 0-1.416 2.058 10 10 0 0 0-.424 3.02v6.585l-.08 12.456c4.177 1.416 9.487.17 13.942-4.781 0 0-.245-15.94-.245-18.555v-.358c-.161-3.696-3.351-5.41-6.49-3.635l-2.639 1.506-2.648 1.718z"/><path fill="#fff" d="M101.478 111.36a4.22 4.22 0 0 0-1.416 2.058 10 10 0 0 0-.424 3.02v6.585l-.08 12.456c4.177 1.416 9.487.17 13.942-4.781 0 0-.245-15.94-.245-18.555v-.358c-.161-3.696-3.351-5.41-6.49-3.635l-2.639 1.506-2.648 1.718z" opacity=".6"/><path fill="#263238" d="M104.339 97.809c0 2.832 1.973 4.559 4.404 3.908s4.403-3.46 4.403-6.268c0-2.809-2.1-2.809-4.531-2.157-2.431.65-4.276 1.732-4.276 4.517M102.04 102.255s.647 3.346.906 3.856a1 1 0 0 0 .798.529l-.043-2.464zM102.861 96.992a1.82 1.82 0 0 0-1.241.84c-.533.775-.236 2.667.43 4.423l1.222-.165z"/><path fill="#FFBDA7" d="M103.626 101.99c-.245.236-.595-.212-.897-.5s-1.288-.514-1.779.812.434 2.719 1.213 2.79c1.336.127 1.538-.916 1.538-.916l.043 5.711c2.247 2.384 6.183-.425 4.413-1.477v-1.7a7.6 7.6 0 0 0 1.784-.358c.982-.444 1.605-1.506 1.888-2.832.472-2.105.661-3.753.255-7.529-.472-4.144-4.72-3.035-7.08-.731-2.36 2.303-1.378 6.73-1.378 6.73"/><path fill="#263238" d="M103.626 102.467c-.123.038-.59-.736-.897-.977-.155-.122-.141-.472-.151-.656-.02-.883.026-1.767.137-2.643a5.3 5.3 0 0 0 .047-1.6 3.7 3.7 0 0 1 .071-1.732 3.06 3.06 0 0 1 1.208-1.723 3.12 3.12 0 0 1 2.568-.364 1.27 1.27 0 0 1 .618-1.029 1.94 1.94 0 0 1 1.204-.254 1.14 1.14 0 0 1 1.038.703 2.1 2.1 0 0 1 1.577-1.26 2.06 2.06 0 0 1 1.756.547c.387.43.472 1.237.439 1.789a3 3 0 0 1-.104.765 2.27 2.27 0 0 1-1.043 1.312 2.57 2.57 0 0 1-1.662.307c.123 0-.231.896-.278.972a1.58 1.58 0 0 1-.817.689 1.84 1.84 0 0 1-1.911-.496.97.97 0 0 1-.944.694 8 8 0 0 1-1.246-.141c-.798-.076-.723 1.052-.812 1.605-.203 1.241-.383 3.374-.798 3.492"/><path fill="#263238" d="m102.861 97.303-1.482-.519a.994.994 0 0 1 1.124-.731.95.95 0 0 1 .358 1.25"/><path fill="#F29077" d="M108.153 106.711s-2.195.08-2.965-.189a1.9 1.9 0 0 1-1.062-.944c.108.461.314.894.605 1.269.561.675 3.422.52 3.422.52z"/><path fill="#263238" d="M107.629 100.489a.669.669 0 0 1-.444.642c-.241.066-.439-.118-.439-.41a.671.671 0 0 1 .439-.642c.245-.066.444.137.444.41M106.921 98.573l-.944.855a.83.83 0 0 1 .221-.944.44.44 0 0 1 .386-.151.43.43 0 0 1 .337.24"/><path fill="#F29077" d="m107.954 103.709 1.006.17a.69.69 0 0 1-.68.566c-.279-.047-.425-.373-.326-.736"/><path fill="#263238" d="m111.664 97.747-.859-.533c.18-.33.51-.472.751-.33a.66.66 0 0 1 .108.863M111.48 99.31a.68.68 0 0 1-.444.646c-.24.061-.439-.123-.439-.415a.679.679 0 0 1 .439-.642c.246-.066.444.118.444.41"/><path fill="#F29077" d="m109.111 99.333.052 3.073 1.581-.826z"/><path fill="#FFBDA7" d="M95.267 130.192c.944-12.687 2.804-17.237 5.895-18.573 1.067.793 1.322 4.527.208 7.359 0 0-2.403 8.463-2.54 11.328a46.4 46.4 0 0 0 .472 8.024 1.13 1.13 0 0 0 .472.793c.68.439.638 1.08 1.119 1.685.378.472.732.557.661.736a.85.85 0 0 1-.944.505 2.6 2.6 0 0 1-.83-.472c.194.669.489 1.306.872 1.888.883 1.34.841 2.247-1.227 2.554-1.293.188-2.232-.614-2.884-3.852-.188-.944-.627-2.615-.811-3.828a37 37 0 0 1-.463-8.147"/><path fill="#455A64" d="M102.04 110.996s-2.251.789-3.389 2.63-2.223 4.814-2.983 10.081c0 0 1.416 1.95 5.14.331 0 0 1.619-6.726 1.761-9.379.16-2.898-.529-3.663-.529-3.663"/><path fill="#263238" d="M105.693 100.929a2.12 2.12 0 0 1 1.445-1.775l.07-.024c.756-.24 1.468.085 1.577.807a1.98 1.98 0 0 1-1.35 2.011l-.227.071a1.079 1.079 0 0 1-1.515-1.09m1.379-1.51a1.62 1.62 0 0 0-1.1 1.793.938.938 0 0 0 .891.635.9.9 0 0 0 .379-.078l.132-.043a1.756 1.756 0 0 0 1.17-1.336.904.904 0 0 0-.758-1.11.9.9 0 0 0-.493.067zM109.847 99.597a2.11 2.11 0 0 1 1.444-1.774l.071-.024c.755-.24 1.468.085 1.577.807a1.98 1.98 0 0 1-1.35 2.011l-.232.071a1.084 1.084 0 0 1-1.418-.543 1.1 1.1 0 0 1-.092-.548m1.378-1.51a1.62 1.62 0 0 0-1.1 1.793.94.94 0 0 0 .515.554.94.94 0 0 0 .755-.001l.132-.043a1.73 1.73 0 0 0 1.171-1.33.913.913 0 0 0-1.251-1.043z"/><path fill="#263238" d="M108.648 99.678c.164-.197.377-.347.618-.434a.67.67 0 0 1 .675.028l.184-.208a.84.84 0 0 0-.887-.061 1.77 1.77 0 0 0-.76.533c-.061.09.118.208.17.142M103.069 101.853l2.771-.887v-.241l-2.913.944q.082.084.142.184"/></g><path fill="#E0E0E0" d="m87.453 101.478-.029-1.378-1.642-.944a.52.52 0 0 0-.524.052l-22.882 13.216a1.64 1.64 0 0 0-.746 1.283v29.104a.53.53 0 0 0 .212.472l1.643.944v-1.633l21.764-12.541a1.64 1.64 0 0 0 .74-1.284v-27.291z"/><path fill="#FAFAFA" d="m87.425 100.1-1.643-.944a.52.52 0 0 0-.524.052l-22.883 13.216a1.4 1.4 0 0 0-.472.472l2.327 1.345L86 101.969z"/><path fill="#F0F0F0" d="m64.013 113.363 22.883-13.216c.41-.24.746-.047.746.425v29.132a1.65 1.65 0 0 1-.746 1.283l-22.883 13.188c-.41.236-.74.043-.74-.429v-29.099a1.63 1.63 0 0 1 .74-1.284"/><mask id="c" width="25" height="45" x="63" y="100" maskUnits="userSpaceOnUse" style="mask-type:luminance"><path fill="#fff" d="m64.013 113.363 22.883-13.216c.41-.24.746-.047.746.425v29.132a1.65 1.65 0 0 1-.746 1.283l-22.883 13.188c-.41.236-.74.043-.74-.429v-29.099a1.63 1.63 0 0 1 .74-1.284"/></mask><g mask="url(#c)"><path fill="#263238" d="m82.908 130.615-12.442 3.45v-12.744c0-3.965 2.76-7.939 6.197-8.874 3.436-.944 6.23 1.516 6.245 5.476.014 3.289 0 12.692 0 12.692"/><path fill="#263238" d="m71.523 117.016-1.61-1.151a1.08 1.08 0 0 1 1.365 0 .768.768 0 0 1 .245 1.151"/><path fill="#263238" d="m71.641 116.709-.637-1.888a1.09 1.09 0 0 1 1.114.793.77.77 0 0 1-.178.935.8.8 0 0 1-.299.16"/><path fill="#995153" d="M81.76 143.396c-2.567-11.262-5.508-13.249-2.76-15.576 2.832-1.076 4.276.472 4.767 3.776.24 1.615.764 8.364 1.416 10.889.575 2.219 1.35 4.961 2.209 6.547a.95.95 0 0 0 .708.496c.807.118 1.043.566 1.694.901.515.26.892.194.869.373a1.01 1.01 0 0 1-.812.798 2.9 2.9 0 0 1-.944-.062c.39.51.87.945 1.416 1.284 1.26.812 1.463 1.605-.529 2.667-1.25.665-2.421.34-3.97-2.19a20.5 20.5 0 0 1-1.557-2.936c-1.11-2.775-2.096-5.154-2.506-6.967"/><path fill="#F7921E" d="M74.421 129.161c-2.79.967-2.988 2.577-3.686 4.465a6.48 6.48 0 0 0-.132 4.191l1.944 5.976a40 40 0 0 0-1.968 5.47c4.885 1.836 10.979-1.449 12.447-4.139.06-.501-.317-4.206-.548-6.608.86-2.719 1.086-4.361.722-5.91-.675-2.874-3.304-5.149-4.441-4.72z"/><path fill="#000" d="M75.672 148.508c-1.605 0-2.624-1.609-2.2-3.558q.019-.097.052-.189c.312-.944.987-1.025.987-1.025-.633-.316-.944-1.062-1.081-1.888l-.732-3.804a5.7 5.7 0 0 1 .151-2.015l-1.963-2.091-.364.387a6.4 6.4 0 0 0 .08 3.488l1.945 5.975a37 37 0 0 0-1.968 5.471c3.601 1.355 7.854-.076 10.431-1.997a13.2 13.2 0 0 1-5.338 1.246" opacity=".1"/><path fill="#995153" d="M80.571 114.595c.656.269 1.478 1.954 1.416 5.971-.056 3.408-1.005 4.503-1.482 4.876-.477.372-1.416.472-2.294.547l.052 2.049s1.51 1.019 1.416 1.972-2.096 1.926-3.257 1.336a10 10 0 0 1-2.09-1.524.17.17 0 0 1-.048-.128v-5.135s-.524.736-1.416.08a1.92 1.92 0 0 1-.42-2.563c.571-.831 1.633-.944 2.044-.09 0 0 1.416-.325 3.332-2.053a8.63 8.63 0 0 0 2.747-5.338"/><path fill="#263238" d="M78.64 120.613a.58.58 0 0 1-.349.557c-.203.066-.377-.076-.391-.316a.58.58 0 0 1 .349-.557c.203-.071.378.07.392.316"/><path fill="#733B3C" d="m78.75 123.454.858.085a.6.6 0 0 1-.557.505c-.24-.023-.373-.288-.302-.59"/><path fill="#263238" d="m81.662 118.475-.751-.392c.137-.283.415-.425.623-.316a.54.54 0 0 1 .127.708M81.492 119.523a.57.57 0 0 1-.345.557c-.208.07-.382-.071-.392-.317a.58.58 0 0 1 .35-.557c.203-.075.377.076.387.317"/><path fill="#733B3C" d="m79.83 119.523-.014 2.78 1.17-.736zM78.145 125.989c-.944.118-2.893 0-3.2-.802.11.387.354.722.69.944.58.415 2.524.543 2.524.543z"/><path fill="#995153" d="M65.647 147.701c2.17-10.823 3.54-15.491 5.918-17.138a7.6 7.6 0 0 1 1.615-.798c.325.123.358.835.42 1.298.18 2.141-.248 4.29-1.237 6.197 0 0-3.167 8.562-3.672 11.437-.439 2.52-.944 5.664-.916 7.736-.004.337.121.663.35.911.585.571.585 1.152.944 1.855.297.547.618.694.523.859a.74.74 0 0 1-.944.335 2.6 2.6 0 0 1-.722-.604c.095.712.287 1.407.571 2.067.652 1.52.472 2.422-1.486 2.36-1.237-.047-2.016-1.029-2.205-4.418a31 31 0 0 1-.033-3.799c.274-3.356.468-6.264.874-8.298"/></g><path fill="#DE7700" d="m87.453 136.066-.029-1.383-1.642-.944a.52.52 0 0 0-.524.052l-22.882 13.216a1.64 1.64 0 0 0-.746 1.284v6.815a.52.52 0 0 0 .212.472l1.643.944v-1.637l21.764-12.541a1.64 1.64 0 0 0 .74-1.284v-5.004z"/><path fill="#F9A84B" d="m87.425 134.707-1.643-.944a.52.52 0 0 0-.524.052l-22.883 13.216a1.5 1.5 0 0 0-.472.472l2.327 1.345L86 136.576z"/><path fill="#F7921E" d="m64.013 147.946 22.883-13.216c.41-.236.746-.047.746.43v6.839a1.64 1.64 0 0 1-.746 1.284l-22.883 13.188c-.41.24-.74.047-.74-.425v-6.816a1.63 1.63 0 0 1 .74-1.284"/><path fill="#fff" d="M74.842 106.041a.04.04 0 0 1 .026-.01.04.04 0 0 1 .026.01.087.087 0 0 1 .023.067v1.684q0 .279-.061.551a2 2 0 0 1-.173.474q-.105.21-.264.383-.146.163-.336.273a.8.8 0 0 1-.34.117.36.36 0 0 1-.263-.076.6.6 0 0 1-.17-.278 1.6 1.6 0 0 1-.061-.48v-1.685q0-.049.023-.092a.12.12 0 0 1 .051-.065l.36-.207a.04.04 0 0 1 .026-.01.04.04 0 0 1 .025.01.1.1 0 0 1 .018.031.1.1 0 0 1 .004.036v1.668a.55.55 0 0 0 .082.35q.08.097.245 0a.57.57 0 0 0 .245-.287c.056-.14.084-.29.082-.441v-1.669q0-.048.02-.092a.15.15 0 0 1 .052-.065zM75.994 105.334a.7.7 0 0 1 .321-.108.46.46 0 0 1 .255.054c.07.04.129.101.166.174a.54.54 0 0 1 .063.247.2.2 0 0 1-.017.074.1.1 0 0 1-.04.052l-.36.207a.1.1 0 0 1-.061.019.1.1 0 0 1-.048-.023l-.027-.029a.14.14 0 0 0-.05-.03.2.2 0 0 0-.082 0 .4.4 0 0 0-.12.045 1 1 0 0 0-.1.069.6.6 0 0 0-.086.083.4.4 0 0 0-.06.101.3.3 0 0 0-.022.119.13.13 0 0 0 .025.09.1.1 0 0 0 .04.022.1.1 0 0 0 .048.004.6.6 0 0 0 .162-.023q.104-.024.253-.067a.8.8 0 0 1 .264-.032c.07.001.137.026.191.071a.4.4 0 0 1 .113.191q.041.16.036.323 0 .216-.063.421a1.75 1.75 0 0 1-.445.721 1.6 1.6 0 0 1-.34.261.9.9 0 0 1-.34.12.47.47 0 0 1-.264-.048.4.4 0 0 1-.174-.182.6.6 0 0 1-.065-.277q.001-.04.017-.076a.1.1 0 0 1 .04-.05l.358-.207a.1.1 0 0 1 .062-.021.1.1 0 0 1 .044.019l.032.037a.2.2 0 0 0 .06.044q.044.02.093.015a.4.4 0 0 0 .138-.05q.136-.078.243-.191a.33.33 0 0 0 .097-.232.09.09 0 0 0-.036-.084.17.17 0 0 0-.107-.017 1 1 0 0 0-.191.036l-.262.067a.39.39 0 0 1-.414-.072.77.77 0 0 1-.13-.505q.002-.195.054-.383a2 2 0 0 1 .155-.383q.109-.18.258-.327a1.3 1.3 0 0 1 .316-.269M78.502 106.208a.04.04 0 0 1 .026-.011q.016 0 .027.011a.1.1 0 0 1 .021.067v.447a.2.2 0 0 1-.02.092.13.13 0 0 1-.054.065l-1.293.754a.04.04 0 0 1-.026.009.04.04 0 0 1-.026-.009.087.087 0 0 1-.023-.067v-2.728q0-.049.023-.092a.13.13 0 0 1 .052-.065l1.277-.737a.04.04 0 0 1 .026-.01.04.04 0 0 1 .026.01q.012.014.019.031a.1.1 0 0 1 .004.036v.444a.2.2 0 0 1-.023.092.14.14 0 0 1-.052.065l-.845.488v.455l.784-.453a.04.04 0 0 1 .027-.01q.016 0 .027.01a.1.1 0 0 1 .02.067v.447a.2.2 0 0 1-.02.094.14.14 0 0 1-.054.063l-.784.454v.472zM79.709 103.231a1 1 0 0 1 .323-.128.35.35 0 0 1 .243.038.4.4 0 0 1 .153.212q.06.195.054.398c.002.195-.027.389-.085.574a1.5 1.5 0 0 1-.24.459l.338.808a.1.1 0 0 1 0 .042.2.2 0 0 1-.02.076.1.1 0 0 1-.041.052l-.356.224c-.036.021-.063.025-.078 0a.2.2 0 0 1-.037-.054l-.304-.729-.253.146v.905a.2.2 0 0 1-.02.091.14.14 0 0 1-.054.064l-.36.208a.04.04 0 0 1-.025.01.04.04 0 0 1-.026-.01.1.1 0 0 1-.021-.067v-2.734q0-.048.02-.091a.15.15 0 0 1 .052-.065zm-.31 1.458.31-.178a.6.6 0 0 0 .191-.178.5.5 0 0 0 .077-.289c0-.119-.025-.191-.077-.191a.238.238 0 0 0-.191.042l-.31.18zM81.511 102.148a.7.7 0 0 1 .321-.107.5.5 0 0 1 .255.054c.07.041.129.101.166.174q.06.115.063.247a.2.2 0 0 1-.017.074.2.2 0 0 1-.04.052l-.36.206a.1.1 0 0 1-.06.02.1.1 0 0 1-.049-.023l-.027-.027a.1.1 0 0 0-.05-.033.2.2 0 0 0-.081 0 .3.3 0 0 0-.121.046.742.742 0 0 0-.186.151.4.4 0 0 0-.06.102.3.3 0 0 0-.024.118.13.13 0 0 0 .027.09.1.1 0 0 0 .04.024q.024.008.048.005a1 1 0 0 0 .163-.025l.252-.065a.9.9 0 0 1 .262-.034.3.3 0 0 1 .192.07.37.37 0 0 1 .112.192q.042.157.039.321 0 .216-.064.421a1.823 1.823 0 0 1-.446.721q-.152.15-.338.258a.9.9 0 0 1-.34.121.46.46 0 0 1-.264-.048.43.43 0 0 1-.174-.18.6.6 0 0 1-.067-.279q0-.041.019-.076a.1.1 0 0 1 .038-.05l.36-.207a.1.1 0 0 1 .06-.021.1.1 0 0 1 .045.019l.032.037a.2.2 0 0 0 .06.044q.044.018.091.015a.3.3 0 0 0 .14-.05q.136-.077.243-.191a.34.34 0 0 0 .096-.232.092.092 0 0 0-.034-.084.17.17 0 0 0-.108-.017 1 1 0 0 0-.191.036q-.113.03-.262.067a.39.39 0 0 1-.413-.072.75.75 0 0 1-.13-.505q0-.196.053-.383.054-.201.155-.383a1.8 1.8 0 0 1 .245-.342q.145-.151.329-.251"/><path fill="#FFA8A7" d="m144.357 201.969 3.068-6.047 6.175 3.615-7.628 8.988s-3.776-.347-4.382-2.318c-.606-1.97 1.729-3.585 2.767-4.238"/><path fill="#263238" d="M140.005 204.343c-.342.253-.63.571-.848.936-.25.369-.169 2.157-.423 2.967-.255.809-.424 1.051-.818 2.093-.424 1.153-1.272 2.204-.335 5.171.936 2.966 2.39 4.377 3.632 5.085.464.24.978.365 1.5.365 0 0 1.627-.619 1.377-1.581s-4.085-15.036-4.085-15.036"/><path fill="#F7921E" d="M147.15 207.597a3.5 3.5 0 0 1-.648 1.021 8.2 8.2 0 0 0-1.056 2.967c-.957 4.691.907 7.077-1.618 8.836-.734.462-2.251.335-4.556-2.623-1.178-1.509-1.852-4.615-1.39-6.022s1.089-2.323 1.386-3.391.139-3.098.737-4.026a4.3 4.3 0 0 1 1.466-1.271c.45-.275 1.429-.631 1.882-.894s.712-.551 1.004-.221l-.529.649c-.823 1.14-.594 1.309-.573 1.915a9.5 9.5 0 0 1-.305 1.933c.585-.742.823-1.386 1.462-1.272.64.115.717.081 1.632.941.915.861 1.144 1.187 1.106 1.458"/><path fill="#000" d="M147.15 207.597a3.5 3.5 0 0 1-.648 1.021 8.2 8.2 0 0 0-1.056 2.967c-.957 4.691.907 7.077-1.618 8.836-.734.462-2.251.335-4.556-2.623-1.178-1.509-1.852-4.615-1.39-6.022s1.089-2.323 1.386-3.391.139-3.098.737-4.026a4.3 4.3 0 0 1 1.466-1.271c.45-.275 1.429-.631 1.882-.894s.712-.551 1.004-.221l-.529.649c-.823 1.14-.594 1.309-.573 1.915a9.5 9.5 0 0 1-.305 1.933c.585-.742.823-1.386 1.462-1.272.64.115.717.081 1.632.941.915.861 1.144 1.187 1.106 1.458" opacity=".4"/><path fill="#000" d="M139.272 217.819c-1.178-1.508-1.852-4.615-1.39-6.022q.23-.698.542-1.364c-.021.093-.051.19-.063.275-.03.178-.051.365-.068.547a4.2 4.2 0 0 0 .233 2.119c.263.585.877 2.051 1.665 2.085.45 0 .827-.424.996-.92.077-.212.195-.78.195-.78.725.17 1.418.456 2.051.848 1.145.754 1.102.924 1.102.924a3 3 0 0 0-.034 1.004c.065.361.21.703.424 1q.133.136.293.238a3.06 3.06 0 0 1-1.39 2.67c-.734.44-2.251.313-4.556-2.624" opacity=".3"/><path fill="#37474F" d="M145.446 211.585a16 16 0 0 0-.292 3.751c-.424 1.199-.809 1.165-.848.542s.78-3.208 1.395-5.339c-.098.351-.182.707-.255 1.046M142.594 204.063a2.6 2.6 0 0 1 .458-1.717 3 3 0 0 0 .301-.156c.496-.28.712-.551 1.004-.221l-.529.653c-.823 1.136-.594 1.305-.573 1.911a9.5 9.5 0 0 1-.305 1.933c-.479 2.034-.915 2.716-1.14 4.661-.224 1.946.161 3.217-.114 3.327-.276.11-.818-.11-.92-1.653-.101-1.542.581-4.132 1.064-5.361s.852-2.555.754-3.377"/><path fill="#EBEBEB" d="M141.247 213.882q.04.043.097.051a4.62 4.62 0 0 1 3.077 1.806.198.198 0 0 0 .206.057.2.2 0 0 0 .065-.036.2.2 0 0 0 .047-.059.189.189 0 0 0-.026-.212 4.95 4.95 0 0 0-3.292-1.929.2.2 0 0 0-.143.028.19.19 0 0 0-.082.121.2.2 0 0 0 .002.093.2.2 0 0 0 .049.08M141.488 212.276a.2.2 0 0 0 .098.055 5.17 5.17 0 0 1 3.238 1.967.19.19 0 0 0 .212.06.2.2 0 0 0 .067-.039.2.2 0 0 0 .047-.06.19.19 0 0 0-.026-.215 5.54 5.54 0 0 0-3.449-2.098.2.2 0 0 0-.148.027.192.192 0 0 0-.039.303M141.454 210.509q.045.046.106.06a5.85 5.85 0 0 1 3.624 2.212.2.2 0 0 0 .067.051.2.2 0 0 0 .165.012.2.2 0 0 0 .073-.042.2.2 0 0 0 .052-.067.216.216 0 0 0-.031-.238 6.29 6.29 0 0 0-3.852-2.352.22.22 0 0 0-.164.029.2.2 0 0 0-.095.136.22.22 0 0 0 .055.199M141.709 209a.24.24 0 0 0 .106.06 5.7 5.7 0 0 1 3.543 2.157.2.2 0 0 0 .143.073.2.2 0 0 0 .153-.052.214.214 0 0 0 .076-.143.2.2 0 0 0-.01-.082.2.2 0 0 0-.04-.072 6.11 6.11 0 0 0-3.768-2.297.216.216 0 0 0-.258.157.2.2 0 0 0 .002.107q.015.052.053.092M142.264 207.53q.043.045.106.059a5.68 5.68 0 0 1 3.538 2.157c.037.043.089.07.146.075a.2.2 0 0 0 .155-.05.213.213 0 0 0 .026-.3 6.12 6.12 0 0 0-3.772-2.297.21.21 0 0 0-.221.084.2.2 0 0 0-.033.077.219.219 0 0 0 .055.195"/><path fill="#FFA8A7" d="m146.023 202.453 4.001 3.267 2.258 1.42-2.581 4.882-7.272-3.483z"/><path fill="#455A64" d="M137.873 180.619s14.553-2.411 20.766-2.369c6.357.038 6.946 4.81 5.352 7.734-3.042 5.594-13.629 17.46-13.629 17.46s-3.555-1.627-4.661-4.704l2.415-5.539-7.708 2.454-.886-1.081z"/><path fill="#37474F" d="M149.417 188.489a53 53 0 0 0-3.208 5.331l1.941-.619c2.187-5.213 2.636-6.73 6.132-9.175-.004 0-2.513.945-4.865 4.463"/><path fill="#455A64" d="m137.873 180.619-22.435 4.115s-1.78 8.268-.059 13.439c1.695 5.051 6.662 6.501 9.06 6.687 3.429.267 7.412-.797 7.412-.797a19 19 0 0 0 3.984 2.344c2.004.797 10.777 4.475 10.777 4.475s2.466-2.089 2.22-6.437l-9.281-9.87z"/><path fill="#37474F" d="M146.612 210.882s.479-.22 1.161-1.513c-2.271-.534-9.747-3.458-12.158-4.484-4.293-1.818-5.62-3.742-5.62-3.742s-.03 1.272 1.856 2.92a19 19 0 0 0 3.984 2.344c2.004.818 10.777 4.475 10.777 4.475"/><path fill="#37474F" d="M127.262 203.241c-2.149.347-7.929-.716-9.807-4.793-1.839-3.984-1.216-8.743-.809-12.841l-.691.165-1.216.327c-.322 3.64-.683 7.941.381 12.018 1.343 5.158 6.921 6.556 9.323 6.743 3.429.267 7.413-.797 7.413-.797l-1.14-1.763a14.5 14.5 0 0 1-3.454.941M140.548 195.634s-.403-.483-1.272-1.479-2.216-2.882-5.742-2.746c-3.526.135-10.294.746-10.294.746s7.065-1.204 9.506-1.606 4.064-.128 5.454 1.106 3.547 3.581 3.547 3.581z"/><path fill="#37474F" d="M135.826 191.121a7 7 0 0 0 1.649-4.887s.848 3.213-.504 5.548z"/><path fill="#263238" d="M161.449 209.682c1.695.674 2.771 1.356 3.559 2.39s1.035 2.077.284 3.331-2.119 2.721-3.771 2.624c-1.653-.098-2.649-.505-4.17-1.327z"/><path fill="#F7921E" d="M147.773 211.132c-.025.513 2.119 1.534 4.382 2.606 2.407 1.149 3.001 1.899 4.967 2.865 2.246 1.106 3.098 1.17 4.84.682s3.894-2.966 2.398-5.272c-1.22-1.869-2.805-2.381-5.204-3.013a45 45 0 0 1-5.615-1.818c-1.733-.669-3.162-1.882-3.518-1.462.246.123 2.06 1.242 1.717 1.543-.085.156-.343.11-.788-.077a.77.77 0 0 0-.623-.029c-.201.131-.358.32-.45.542q-.31.672-.542 1.373c-.136.318-.076.132-.203.454-.199.383-.326.8-.373 1.229.021.195.165.258.317.356.153.097.369.216.513.326.055.042.161.191.127.267s-.368.064-.495 0c-.128-.064-.352-.106-.509-.165s-.547-.225-.941-.407"/><path fill="#000" d="M147.773 211.132c-.025.513 2.119 1.534 4.382 2.606 2.407 1.149 3.001 1.899 4.967 2.865 2.246 1.106 3.098 1.17 4.84.682s3.894-2.966 2.398-5.272c-1.22-1.869-2.805-2.381-5.204-3.013a45 45 0 0 1-5.615-1.818c-1.733-.669-3.162-1.882-3.518-1.462.246.123 2.06 1.242 1.717 1.543-.085.156-.343.11-.788-.077a.77.77 0 0 0-.623-.029c-.201.131-.358.32-.45.542q-.31.672-.542 1.373c-.136.318-.076.132-.203.454-.199.383-.326.8-.373 1.229.021.195.165.258.317.356.153.097.369.216.513.326.055.042.161.191.127.267s-.368.064-.495 0c-.128-.064-.352-.106-.509-.165s-.547-.225-.941-.407" opacity=".4"/><path fill="#000" d="M156.351 216.23c.322.161 2.36 1.11 3 .543s-.941-1.598-.941-1.598-.25-1.538 1.606-3.814c.322.246 1.662.237 1.645-.555-.017-.793-2.268-1.755-2.297-1.768 2.297.615 3.814 1.145 4.996 2.967 1.496 2.293-.652 4.789-2.398 5.272s-2.594.424-4.84-.682c-.225-.102-.572-.25-.771-.365" opacity=".3"/><path fill="#37474F" d="M158.626 215.022c.848.284.267 1.056-.974.806-1.869-.373-3.42-1.433-5.51-2.09-2.246-1.072-4.534-2.068-4.386-2.636.403.149 1.271.509 1.271.509.17.072.602.233.602.233 1.695.733 3.586 1.915 5.429 2.416 1.623.44 2.721.478 3.568.762M159.894 211.666c-.78-.449-.916-.848-2.442-1.534-1.525-.687-4.106-2.2-5.699-3.128a20 20 0 0 1-1.73-1.271c.263-.301 1.234-.021 2.208.593.975.615 1.564 1 2.543 1.505 1.873 1.123 4.009 1.885 5.086 2.572s.809 1.716.034 1.263"/><path fill="#F0F0F0" d="M160.012 211.463a.2.2 0 0 1-.046.067 6.8 6.8 0 0 0-1.454 3.768.23.23 0 0 1-.216.208.186.186 0 0 1-.168-.139.2.2 0 0 1-.002-.078 7.1 7.1 0 0 1 1.585-4.051.18.18 0 0 1 .136-.065.18.18 0 0 1 .135.065.2.2 0 0 1 .046.108q.008.06-.016.117M158.499 210.361a9.314 9.314 0 0 0-1.843 4.509.23.23 0 0 1-.072.143.23.23 0 0 1-.149.06.19.19 0 0 1-.131-.076.2.2 0 0 1-.032-.071.2.2 0 0 1-.002-.077 9.6 9.6 0 0 1 1.92-4.709.2.2 0 0 1 .059-.05.19.19 0 0 1 .216.029.22.22 0 0 1 .034.242M155.172 214.708a.2.2 0 0 1-.07.093.2.2 0 0 1-.108.043.2.2 0 0 1-.075-.014.188.188 0 0 1-.115-.185c.093-2.729 1.847-5.289 1.932-5.378a.2.2 0 0 1 .061-.046.175.175 0 0 1 .21.046.24.24 0 0 1 0 .305s-1.716 2.517-1.796 5.056a.2.2 0 0 1-.039.08M153.778 213.819a.23.23 0 0 1-.072.091.24.24 0 0 1-.106.045.184.184 0 0 1-.139-.058.2.2 0 0 1-.041-.065.2.2 0 0 1-.011-.077 8.02 8.02 0 0 1 2.035-5.085.179.179 0 0 1 .21-.046.2.2 0 0 1 .061.046.235.235 0 0 1-.034.305 7.7 7.7 0 0 0-1.882 4.755.2.2 0 0 1-.021.089"/><path fill="#EBEBEB" d="M151.96 213.051a.2.2 0 0 1-.068.093.2.2 0 0 1-.106.043.2.2 0 0 1-.076-.011.18.18 0 0 1-.107-.107.2.2 0 0 1-.011-.077c0-2.835 2.008-5.03 2.118-5.119a.2.2 0 0 1 .061-.047.2.2 0 0 1 .075-.016q.039 0 .075.016a.2.2 0 0 1 .061.047c.033.044.048.1.044.155a.23.23 0 0 1-.07.146c-.021.021-1.945 2.144-1.953 4.78a.2.2 0 0 1-.043.097"/><path fill="#FFA8A7" d="M138.187 158.209c3.06 1.78 8.357 4.696 10.298 5.675 0 0 5.573-4.543 7.599-6.425.889-.826 1.038-1.237 1.08-1.72.024-.639.12-1.273.284-1.89.208-.708.348-.958.585-1.844s.326-2.627.089-3.369c.165-.381 1.038-.492 1.513.381.34.743.502 1.554.475 2.369.029.526 0 1.09.173 1.157.174.068.873-.39 1.602-.644s1.356-.648 2.208-.487a.98.98 0 0 1 .836.812 1 1 0 0 1-.018.413 1.3 1.3 0 0 1-.39.546 1.05 1.05 0 0 1 .822.161 1.16 1.16 0 0 1 .174 1.45.65.65 0 0 1 .695.504c.14.479.14.97-.33 1.216 0 0 .423.051.466.284a1.19 1.19 0 0 1-.267 1.123 3.8 3.8 0 0 1-1.369.479s-.055.187-.496.475c-.157.101-.525.352-1.136.703-.53.318-1.1.563-1.695.729-.572.17-.932.119-2.352 1.822-.915 1.098-4.539 5.183-6.505 7.175-2.988 3.026-3.734 2.568-7.463 1.047-4.068-1.657-7.734-3.598-7.734-3.598l-6.539-10.595c2.627-.123 4.077.127 7.395 2.051"/><path fill="#F28F8F" d="M163.991 158.192a1.6 1.6 0 0 1-.203-.14 4 4 0 0 1-.39-.313.43.43 0 0 1-.136-.344 1 1 0 0 0 .217 0q.32-.09.601-.267.288-.124.589-.216c.403-.131.81-.258 1.212-.398a15 15 0 0 0-1.271.263 4 4 0 0 0-.619.199 2.4 2.4 0 0 1-.559.237 1.3 1.3 0 0 1-.585-.089 1.35 1.35 0 0 1-.534-.254.8.8 0 0 1-.14-.25.3.3 0 0 1-.017-.136.3.3 0 0 1 .043-.131.7.7 0 0 1 .339-.271q.224.046.453.042a2.2 2.2 0 0 0 .687-.25c.207-.114.424-.225.614-.347.424-.238.81-.475 1.204-.734-.424.187-.848.399-1.272.611-.396.238-.824.42-1.271.538a1.9 1.9 0 0 1-.661-.081 3.3 3.3 0 0 1-.627-.275.56.56 0 0 1-.335-.504.5.5 0 0 1 .14-.335l.157-.047c.254-.072.525-.11.796-.178.272-.068.532-.177.772-.322.463-.286.89-.627 1.271-1.017a5.5 5.5 0 0 1-.661.475 8 8 0 0 1-.695.423 3.1 3.1 0 0 1-.742.284c-.258.06-.53.094-.805.161-.131.034-.267.081-.39.106-.123.026-.174 0-.246-.106a.68.68 0 0 1 .085-.682 2.5 2.5 0 0 1 1.225-.975h.021q.04-.18.14-.334.099-.16.22-.306a2 2 0 0 0-.254.28 1.2 1.2 0 0 0-.174.322c-.535.16-1 .498-1.318.958-.08.13-.137.274-.165.424a.64.64 0 0 0 .064.462.5.5 0 0 0 .182.174h.034a3 3 0 0 1-1.022 3.848 3.5 3.5 0 0 0 1.297-1.064c.288-.365.484-.794.572-1.25l.187.212a.4.4 0 0 0 0 .101q.049.167.148.31c.165.156.368.267.589.322q.208.072.424.106a.34.34 0 0 0-.038.173.6.6 0 0 0 .101.267q.173.208.39.369.113.076.233.136a.65.65 0 0 0 .272.08q.264.036.529 0l-.5-.123a1 1 0 0 1-.178-.144"/><path fill="#37474F" d="M115.319 171.275c.505-7.34.483-10.514 1.212-12.917 1.115-.331 3.518-.996 3.518-.996a60 60 0 0 1 7.848-1.102l2.899-.11c1.572 1.509 5.191 5.03 6.535 8.086a6.287 6.287 0 0 1-1.827 7.23c.03 2.182 0 5.187 0 5.187a25 25 0 0 0 2.081 3.95c-.347 3.61-4.454 6.657-10.883 8.403a17.2 17.2 0 0 1-12.29-1.271s.407-9.188.907-16.46"/><path fill="#E0E0E0" d="M135.538 162.918a5.6 5.6 0 0 0-1.623 1.119 16 16 0 0 1-1.695 1.665c-1.25.915-2.886.971-4.374.814-1.758-.187-3.5-.627-5.276-.382a8.2 8.2 0 0 0-4.45 2.051c-.038.034-.042.191.034.145a10.8 10.8 0 0 1 6.15-1.662c1.94.102 3.843.704 5.797.496a5.6 5.6 0 0 0 2.305-.725c.776-.47 1.318-1.199 1.95-1.835a5.2 5.2 0 0 1 2.424-1.402 11 11 0 0 0-.365-.606 7 7 0 0 0-.877.322M117.154 163.867a7.63 7.63 0 0 1 4.946-1.987c1.793-.03 3.509.568 5.297.186a7.6 7.6 0 0 0 2.416-.996 13 13 0 0 1 2.42-1.33 6.6 6.6 0 0 1 1.695-.369 26 26 0 0 0-.492-.543 9 9 0 0 0-.686.128 7.9 7.9 0 0 0-2.344.995 11.8 11.8 0 0 1-2.712 1.424c-.992.28-2.03.352-3.051.212a15.2 15.2 0 0 0-2.878-.207 7.18 7.18 0 0 0-4.662 2.297c-.063.063-.029.271.051.19"/><path fill="#263238" d="M130.47 172.301s-1.738 2.339-5.399 2.085c-3.776-.267-4.637-3.348-4.637-3.348s0 4.085 4.522 4.403a5.42 5.42 0 0 0 5.514-3.14"/><path fill="#EBEBEB" d="M126.134 192.655v.424a1.2 1.2 0 0 0 .602 1.043l11.442 6.594a1.21 1.21 0 0 0 1.204 0l21.054-12.138a1.2 1.2 0 0 0 .602-1.042v-.293L138.81 200.08z"/><path fill="#FAFAFA" d="m161.025 187.244-12.468-7.205a.73.73 0 0 0-.716 0l-21.614 12.489a.17.17 0 0 0-.077.138q0 .043.021.079a.2.2 0 0 0 .056.059l12.583 7.268z"/><path fill="#E0E0E0" d="m138.683 199.021-6.722-3.878 19.66-11.353 6.759 3.86zM135.377 188.231l.127.072 3.293 1.902 5.861-3.381.123-.072-3.42-1.975z"/><path fill="#E6E6E6" d="m135.504 188.303 3.293 1.902 5.861-3.382-3.297-1.902z"/><path fill="#EBEBEB" d="M138.797 200.08v.788c.212.002.419-.054.602-.161l21.037-12.129a1.2 1.2 0 0 0 .602-1.042v-.293z"/><path fill="#E0E0E0" d="M138.797 200.08v.788c.212.002.419-.054.602-.161l21.037-12.129a1.2 1.2 0 0 0 .602-1.042v-.293z" opacity=".5" style="mix-blend-mode:multiply"/><path fill="#F7921E" d="M139.136 200.253a1.4 1.4 0 0 0 1.229-.093l20.918-12.086a1.42 1.42 0 0 0 .696-.996l2.288-13.667a1.384 1.384 0 0 0-.403-1.242l-21.753 12.561a1.04 1.04 0 0 0-.508.733z"/><path fill="#fff" d="M139.136 200.254a1.4 1.4 0 0 0 1.229-.094l20.918-12.086a1.424 1.424 0 0 0 .696-.996l2.288-13.667c.04-.224.024-.455-.047-.671a1.4 1.4 0 0 0-.356-.571l-21.753 12.561a1.04 1.04 0 0 0-.508.733z" opacity=".7"/><path fill="#FAFAFA" d="m138.797 200.08.144.08q.094.054.195.093l2.479-14.79a1.04 1.04 0 0 1 .509-.733l21.753-12.561a1.4 1.4 0 0 0-.288-.225l-21.8 12.587a1.035 1.035 0 0 0-.508.737z"/><path fill="#F7921E" d="M150.926 187.638c.153-.911 1.098-2.119 2.119-2.713s1.695-.317 1.555.598-1.097 2.119-2.119 2.717c-1.021.597-1.708.313-1.555-.602"/><path fill="#FFA8A7" d="M108.899 179.191c.021-2.678 1.742-13.985 3.043-16.994.847-1.941 1.466-2.932 4.56-3.839 2.89 1.979 2.542 8.709 2.157 10.205l-2.174 10.349 5.509 2.907c2.407 1.271 3.772 2.182 6.357 2.441s3.089.114 5.31 1.085a16.4 16.4 0 0 1 2.242 1.271c.784.822 1.75 1.454 2.589 2.225.636.424.059.733-.424.771-1.381.047-2.5-1.021-3.738-1.458.149.443.229.906.238 1.374 0 .368.102.822-.216 1.101q-.363.225-.776.335a.55.55 0 0 1-.148.365.94.94 0 0 1-.661.182 3 3 0 0 1-.377-.047.707.707 0 0 1-.424.547c-.513.17-1.062.2-1.589.085-.077-.03-.674-.339-.848-.424-.25-.127-.479-.195-.589-.356s.22-.649.525-.704a3.2 3.2 0 0 1 1.013.047 3.5 3.5 0 0 1-.313-.848c-.284-.423-2.268.051-4.039-.22-1.344-.203-2.119-1.233-2.746-1.458-3.535-1.271-8.082-2.009-11.921-3.564-3.103-1.292-2.586-2.598-2.56-5.378"/><path fill="#F28F8F" d="M134.343 188.154a3.9 3.9 0 0 0-.754-1.775c.695.237 1.195 1.958 1.195 1.958zM133.589 190.955a4.1 4.1 0 0 0 0-1.097 10 10 0 0 0-.165-1.089 4.6 4.6 0 0 0-.318-1.06 2 2 0 0 0-.678-.869c.127.123.233.267.313.424q.128.238.216.492.167.51.263 1.038c.077.356.14.712.208 1.068q.113.542.161 1.093M132.402 191.456a5 5 0 0 0-.021-1.081 10 10 0 0 0-.182-1.064 8 8 0 0 0-.314-1.038 2.1 2.1 0 0 0-.572-.915q.17.207.25.466.096.248.165.504.148.508.263 1.03c.161.691.314 1.386.411 2.098M129.499 190.604q.215.003.424.055c.144.034.25.102.424.157l-.076-.115a.5.5 0 0 0 .139.378.6.6 0 0 0 .306.19 1.6 1.6 0 0 1-.187-.271.5.5 0 0 1-.047-.14.4.4 0 0 1 0-.127v-.08l-.084-.034a1.4 1.4 0 0 0-.424-.081.9.9 0 0 0-.475.068"/><path fill="#1F2629" d="M131.025 138.719c2.712.03 4.132 3.365 2.229 6.616-3.39 5.763-11.167 3.67-11.167 3.67l-1.386 4.661s-1.271-1.296-2.869-3.102c-2.894-3.237-2.466-8.086-.504-9.149-.424-4.48 8.696-7.506 12.68-3.649.377.274.719.595 1.017.953"/><path fill="#FFA8A7" d="M131.148 140.118c1.14.61 2.119 3.267 1.932 8.497-.118 3.746-1.483 5.408-2.623 5.886-.682.289-1.538.352-3.013.263l.059 2s2.78 2.319 2.178 7.281c-8.424-3.034-8.899-6.59-8.899-6.59l-.17-7.336c-.25.45-1.724 1.149-2.818-.118-1.271-1.483-1.106-3.34-.063-4.073 1.042-.733 2.39-.152 2.941 1.081 1.186.424 2.661-.848 2.369-5.331 1.377-.81 4.183.101 5.064-.043 1.301-.216 1.64-2.178 3.043-1.517"/><path fill="#1F2629" d="M131.148 140.118c-1.695-.038-1.784 1.75-3.412 3.39a6.6 6.6 0 0 1-5.793 2.005c0-.204-1.085-4.009 2.178-5.933s6.15-1.653 7.027.538"/><path fill="#F7921E" d="M118.396 149.382a.613.613 0 0 0 .989.5.6.6 0 0 0 .231-.386.608.608 0 0 0-.555-.661.61.61 0 0 0-.448.133.6.6 0 0 0-.217.414"/><path fill="#F28F8F" d="M127.444 154.764c-3.624-.598-5.709-1.954-6.149-3.39 0 0 .322 1.885 1.373 2.674 1.47 1.106 4.806 1.695 4.806 1.695z"/><path fill="#B16668" d="m129.16 150.92-2.543-.801a1.28 1.28 0 0 0 .052 1.009 1.28 1.28 0 0 0 .771.652 1.41 1.41 0 0 0 1.72-.86"/><path fill="#F28F8F" d="M128.003 151.827a1.3 1.3 0 0 1-.572-.046 1.27 1.27 0 0 1-.881-1.034 1.531 1.531 0 0 1 1.453 1.08"/><path fill="#263238" d="M125.096 146.428a.73.73 0 1 0 1.459-.062.73.73 0 0 0-1.459.062M130.22 146.013a.73.73 0 0 0 .476.658.73.73 0 0 0 .911-.995.725.725 0 0 0-1.196-.182.73.73 0 0 0-.191.519"/><path fill="#F28F8F" d="m127.846 145.055.738 4.84 2.564-1.03z"/><path fill="#263238" d="m132.042 144.72-1.695-.491a.84.84 0 0 1 .401-.533.85.85 0 0 1 .663-.078.91.91 0 0 1 .631 1.102"/><path fill="#1F2629" d="m124.465 144.822 1.606-.788a.86.86 0 0 0-.492-.468.852.852 0 0 0-.678.044.93.93 0 0 0-.436 1.212"/><path fill="#F7921E" d="M120.057 146.157c-.241-2.208 2.365-8.9 10.968-7.438 0 0-.424-1.229-2.768-1.568-4.602-.517-7.005 2.085-8.052 3.738a7.84 7.84 0 0 0-1.055 4.755c.339.097.65.273.907.513M216.342 56.94l-5.269-3.042c-5.313-2.976-12.596-2.555-20.668 2.104-7.551 4.35-14.437 11.614-19.627 20.018-6.003 9.674-9.778 20.877-9.778 30.918 0 9.367 3.279 15.935 8.583 19.016l5.323 3.051c5.358 3.414 12.899 3.111 21.333-1.731 16.243-9.382 29.41-32.188 29.41-50.941-.02-9.784-3.592-16.496-9.307-19.393"/><path fill="#000" d="m174.698 128.882-5.115-2.927c-5.304-3.076-8.578-9.655-8.578-19.022 0-10.041 3.775-21.233 9.773-30.908l5.795 3.369c-6.003 9.674-9.769 20.862-9.769 30.893 0 8.955 2.997 15.355 7.894 18.595" opacity=".1"/><path fill="#fff" d="M216.129 56.816c-5.239-2.54-12.23-1.896-19.905 2.53-7.56 4.37-14.447 11.639-19.651 20.048l-5.794-3.369c5.194-8.434 12.085-15.667 19.631-20.018 8.067-4.664 15.355-5.105 20.673-2.109z" opacity=".4"/><path fill="#FAFAFA" d="M183.028 127.314a11.1 11.1 0 0 1-6.063-1.657l-.084-.055-.169-.094c-3.875-2.64-6.008-8.037-6.008-15.226 0-8.93 3.339-19.403 9.168-28.775 5.061-8.176 11.545-14.819 18.267-18.703 3.945-2.278 7.804-3.473 11.148-3.473a11.4 11.4 0 0 1 4.927 1.037l.178.099.089.044c4.52 2.288 7.11 8.062 7.11 15.846 0 17.469-12.304 38.777-27.43 47.504-3.955 2.252-7.79 3.453-11.133 3.453"/><mask id="d" width="52" height="69" x="170" y="59" maskUnits="userSpaceOnUse" style="mask-type:luminance"><path fill="#fff" d="M183.028 127.314a11.08 11.08 0 0 1-6.063-1.657l-.084-.055-.169-.094c-3.875-2.639-6.008-8.037-6.008-15.226 0-8.93 3.339-19.403 9.168-28.775 5.061-8.176 11.545-14.819 18.267-18.703 3.945-2.277 7.804-3.473 11.148-3.473a11.4 11.4 0 0 1 4.927 1.037l.178.1.089.044c4.52 2.287 7.11 8.062 7.11 15.846 0 17.468-12.304 38.776-27.43 47.503-3.955 2.252-7.79 3.453-11.133 3.453"/></mask><g mask="url(#d)"><path fill="#263238" d="M197.509 99.04c-7.486 1.984-13.559-2.442-13.559-9.923V84.32c0-6.346 5.145-12.865 11.491-14.566l4.132-1.107c6.346-1.702 11.49 2.064 11.49 8.41v4.797c-.02 7.481-6.067 15.176-13.554 17.185"/><path fill="#FFA8A7" d="m215.94 117.952 5.983 18.728-7.481 4.098-4.485-17.617z"/><path fill="#F7921E" d="M202.843 101.912c3.968-.992 8.369-.496 9.877 2.679s4.808 14.581 4.808 14.581a13.93 13.93 0 0 1-8.434 5.353z"/><path fill="#000" d="M202.843 101.912c3.968-.992 8.369-.496 9.877 2.679s4.808 14.581 4.808 14.581a13.93 13.93 0 0 1-8.434 5.353z" opacity=".3"/><path fill="#F5F5F5" d="m194.597 104.283-3.314 1.047c-3.607 1.985-4.907 5.17-6.42 9.273a14 14 0 0 0-.288 9.089l4.222 12.973s-1.984 6.043-4.271 11.872c10.592 3.969 23.813-3.145 27.003-8.98.139-1.096-.044-5.809.209-11.296.278-5.854.962-12.562.178-15.926-1.463-6.236-4.197-11.728-9.644-10.269z"/><path fill="#F7921E" d="M191.283 105.33c-3.612 1.558-8.93 3.82-10.751 14.234-1.855 10.552-2.213 13.042-2.213 13.042s3.161 2.794 9.159 1.151c0 0 5.288-21.159 3.805-28.427"/><path fill="#000" d="M191.283 105.33c-3.612 1.558-8.93 3.82-10.751 14.234-1.855 10.552-2.213 13.042-2.213 13.042s3.161 2.794 9.159 1.151c0 0 5.288-21.159 3.805-28.427" opacity=".3"/><path fill="#263238" d="M185.652 119.375c4.242-1.136 7.685-5.497 7.685-9.739V95.993c-4.247 1.141-7.685 5.502-7.685 9.744z"/><path fill="#E0E0E0" d="M187.636 133.103c.67-2.813 1.375-6.013 2.04-9.427 0 0-.03 7.055-1.072 12.403z"/><path fill="#FFA8A7" d="M206.613 73.087c1.429.59 3.2 4.277 3.026 13.043-.148 7.442-2.222 9.809-3.264 10.612s-3.051 1.022-5.001 1.171v4.435s2.699 2.898 2.525 4.962-3.894 3.557-6.419 2.247a12.26 12.26 0 0 1-4.143-3.899V94.951s-1.32 2.387-3.473 1.31-2.237-5.145-.992-6.946c1.245-1.8 3.969-2.063 4.465-.168 0 0 3.111-.7 7.258-4.465a18.8 18.8 0 0 0 6.018-11.595"/><path fill="#263238" d="M202.495 86.185a1.257 1.257 0 0 1-.764 1.215c-.441.14-.823-.168-.843-.694a1.25 1.25 0 0 1 .759-1.216c.466-.138.823.17.848.695"/><path fill="#F28F8F" d="m202.708 92.391 1.871.189a1.306 1.306 0 0 1-1.216 1.101c-.516-.054-.808-.63-.655-1.29"/><path fill="#263238" d="m209.094 81.566-1.633-.868c.298-.616.903-.923 1.355-.68s.57.918.278 1.548M208.717 83.848a1.25 1.25 0 0 1-.764 1.21c-.442.144-.819-.168-.844-.694a1.25 1.25 0 0 1 .759-1.21c.447-.144.824.168.849.694"/><path fill="#F28F8F" d="m204.921 84.334.129 5.557 2.545-1.593zM201.374 97.913c-2.059.238-6.291-.03-6.946-1.786.233.845.761 1.58 1.489 2.069 1.265.912 5.457 1.195 5.457 1.195z"/></g><path fill="#37474F" d="m188.996 118.205-4.053-2.342h-.045c-2.014-1.141-4.778-.992-7.839.794-2.862 1.652-5.457 4.406-7.441 7.591-2.273 3.671-3.706 7.938-3.706 11.728 0 3.547 1.245 6.043 3.254 7.209l4.118 2.351c2.029 1.295 4.897 1.181 8.082-.66 6.156-3.557 11.152-12.204 11.152-19.313 0-3.711-1.354-6.261-3.522-7.358"/><path fill="#263238" d="m173.2 145.481-4.034-2.302c-2.014-1.166-3.254-3.661-3.254-7.213 0-3.806 1.428-8.052 3.706-11.719l4.306 2.481c-2.277 3.671-3.706 7.908-3.706 11.713-.01 3.384 1.136 5.815 2.982 7.04"/><path fill="#455A64" d="M188.912 118.145c-1.985-.962-4.634-.719-7.546.963s-5.458 4.41-7.442 7.6l-4.306-2.48c1.984-3.19 4.584-5.954 7.441-7.591 3.061-1.766 5.825-1.935 7.839-.799h.045z"/><path fill="#F5F5F5" d="m186.203 127.706-3.716 2.148V123.9c0-.957-.496-1.438-1.121-1.081-.626.357-1.122 1.419-1.122 2.376v5.954l-3.721 2.148a2.55 2.55 0 0 0-.967 2.049c0 .823.437 1.24.967.928l3.721-2.144v5.954c0 .957.496 1.438 1.122 1.081.625-.357 1.121-1.424 1.121-2.376v-5.954l3.716-2.148a2.54 2.54 0 0 0 .967-2.049c0-.823-.436-1.24-.967-.932"/></svg>