<svg xmlns="http://www.w3.org/2000/svg" width="256" height="256" fill="none"><path stroke="#D5D5D5" d="M49.676 217.001c-21.604-12.474-32.294-28.754-32.295-44.931 0-16.177 10.688-32.456 32.295-44.931 21.604-12.472 49.95-18.723 78.323-18.723s56.719 6.251 78.32 18.723c21.604 12.475 32.293 28.754 32.293 44.931s-10.689 32.457-32.293 44.931c-21.601 12.473-49.948 18.723-78.321 18.723-28.374 0-56.72-6.25-78.322-18.723Z"/><path fill="#F7921E" d="m128.905 16.949-75.95 43.798a3.12 3.12 0 0 0-1.419 2.458v139.247a3.12 3.12 0 0 0 1.423 2.454l.286.165a3.17 3.17 0 0 0 2.847 0l75.95-43.861a3.13 3.13 0 0 0 1.419-2.463V19.564a3.13 3.13 0 0 0-1.424-2.454l-.29-.166a3.15 3.15 0 0 0-2.842.005"/><path fill="#000" d="m128.905 16.949-75.95 43.798a3.12 3.12 0 0 0-1.419 2.458v139.247a3.12 3.12 0 0 0 1.423 2.454l.286.165a3.17 3.17 0 0 0 2.847 0l75.95-43.861a3.13 3.13 0 0 0 1.419-2.463V19.564a3.13 3.13 0 0 0-1.424-2.454l-.29-.166a3.15 3.15 0 0 0-2.842.005" opacity=".45"/><path fill="#F7921E" d="M133.461 158.85c0 1.25-.893 2.044-1.964 2.678l-74.866 43.213c-1.08.625-1.963.12-1.963-1.133V65.615a3.9 3.9 0 0 1 1.955-3.4l74.874-43.222a1.31 1.31 0 0 1 1.964 1.133z"/><path fill="#000" d="M133.461 158.85c0 1.25-.893 2.044-1.964 2.678l-74.866 43.213c-1.08.625-1.963.12-1.963-1.133V65.615a3.9 3.9 0 0 1 1.955-3.4l74.874-43.222a1.31 1.31 0 0 1 1.964 1.133z" opacity=".3"/><path fill="#F7921E" d="M133.461 19.564v.558a1.316 1.316 0 0 0-1.314-1.305c-.23 0-.455.061-.654.176l-74.87 43.222a3.8 3.8 0 0 0-1.428 1.428.2.2 0 0 0 0 .045l-3.244-1.874a2.94 2.94 0 0 1 1.022-1.08l75.932-43.785a3.17 3.17 0 0 1 2.842 0l.29.165a3.13 3.13 0 0 1 1.424 2.45"/><path fill="#000" d="M133.461 19.564v.558a1.316 1.316 0 0 0-1.314-1.305c-.23 0-.455.061-.654.176l-74.87 43.222a3.8 3.8 0 0 0-1.428 1.428.2.2 0 0 0 0 .045l-3.244-1.874a2.94 2.94 0 0 1 1.022-1.08l75.932-43.785a3.17 3.17 0 0 1 2.842 0l.29.165a3.13 3.13 0 0 1 1.424 2.45" opacity=".2"/><path fill="#000" d="M131.609 153.099c0 1.285-.892 2.106-2.021 2.748L58.831 196.7c-1.115.643-2.026.125-2.026-1.169V72.856a4.02 4.02 0 0 1 2.013-3.502l70.77-40.853a1.335 1.335 0 0 1 1.846.49c.118.207.178.441.175.679z" opacity=".25"/><path fill="#F5F5F5" d="m58.617 70.902 70.498-40.706a1.34 1.34 0 0 1 1.209 0l.678.393a1.33 1.33 0 0 1 .602 1.048V154.88a1.33 1.33 0 0 1-.602 1.044l-70.498 40.706a1.34 1.34 0 0 1-1.209 0l-.683-.393a1.34 1.34 0 0 1-.597-1.057V71.946a1.34 1.34 0 0 1 .602-1.044"/><path fill="#E0E0E0" d="M60.362 196.695a1 1 0 0 1-.224.058h-.115a1.7 1.7 0 0 1-.366 0 1 1 0 0 1-.223-.058l-.134-.067-.679-.388a1.34 1.34 0 0 1-.606-1.062V71.95c.005-.21.067-.415.178-.594l1.888 1.085a1.3 1.3 0 0 0-.179.598V196.28c-.009.33.196.491.46.415"/><path fill="#F7921E" d="m131.007 30.589-.679-.393a1.34 1.34 0 0 0-1.209 0L58.621 70.902a1.34 1.34 0 0 0-.602 1.044v7.612l1.874 1.097 71.716-41.401v-7.617a1.35 1.35 0 0 0-.602-1.048"/><path fill="#fff" d="m131.007 30.589-.679-.393a1.34 1.34 0 0 0-1.209 0L58.621 70.902a1.34 1.34 0 0 0-.602 1.044v7.612l1.874 1.097 71.716-41.401v-7.617a1.35 1.35 0 0 0-.602-1.048" opacity=".4"/><path fill="#F7921E" d="M131.587 31.455c-.072-.246-.304-.326-.58-.17L60.509 71.991a1.2 1.2 0 0 0-.446.446l-1.888-1.089c.106-.186.26-.34.447-.446l70.497-40.701a1.31 1.31 0 0 1 1.205 0l.683.388a1.34 1.34 0 0 1 .58.866"/><path fill="#fff" d="M131.587 31.455c-.072-.246-.304-.326-.58-.17L60.509 71.991a1.2 1.2 0 0 0-.446.446l-1.888-1.089c.106-.186.26-.34.447-.446l70.497-40.701a1.31 1.31 0 0 1 1.205 0l.683.388a1.34 1.34 0 0 1 .58.866" opacity=".6"/><path fill="#F7921E" d="M58.015 71.95v7.617l1.878 1.089v-7.621c.01-.21.07-.414.178-.594l-1.887-1.088a1.2 1.2 0 0 0-.17.597"/><path fill="#000" d="M115.301 35.296v6.06a5.18 5.18 0 0 1-2.378 4.113l-11.731 6.773c-.58.335-.892 1.004-1.258 1.705a6.7 6.7 0 0 1-.892 1.481c-.893 1.035-2.9 2.11-4.302 2.561a8.3 8.3 0 0 1-1.405.322 9 9 0 0 1-.58.08c-1.276.174-2.874.388-3.806.933l-13.73 7.92c-.36.223-.772.348-1.195.36a1.6 1.6 0 0 1-.803-.209 1.96 1.96 0 0 1-.893-1.785v-6.072a5.18 5.18 0 0 1 2.374-4.114l4.614-2.677a.2.2 0 0 1 .062-.027.487.487 0 0 1 .482.834.1.1 0 0 1-.053.04l-4.61 2.678a4.24 4.24 0 0 0-1.887 3.261v6.064a.825.825 0 0 0 1.392.799l13.747-7.93c1.102-.637 2.802-.865 4.168-1.048l.57-.08q.638-.091 1.25-.29c1.245-.393 3.097-1.401 3.855-2.267a5.8 5.8 0 0 0 .763-1.271c.402-.808.812-1.638 1.651-2.12l11.73-6.773a4.25 4.25 0 0 0 1.892-3.261v-6.06a.83.83 0 0 0-.384-.948.83.83 0 0 0-1.013.145l-4.002 2.29a4.2 4.2 0 0 0-.504-.849l4.016-2.31a1.784 1.784 0 0 1 2.869 1.654z" opacity=".25"/><path fill="#37474F" d="M106.743 35.408a1.23 1.23 0 0 1 1.24.115 3.85 3.85 0 0 1 1.745 3.043 1.23 1.23 0 0 1-.518 1.134L81.377 55.763l-2.467-4.27z"/><path fill="#455A64" d="m80.15 53.625 29.069-16.79a3.57 3.57 0 0 0-1.236-1.312c-.058-.031-.111-.049-.169-.076l-28.619 16.51z"/><path fill="#263238" d="M80.15 51.6c-.964-.558-1.745-.107-1.745 1.004a3.86 3.86 0 0 0 1.745 3.02c.964.558 1.745.107 1.745-1.008A3.84 3.84 0 0 0 80.15 51.6"/><path fill="#455A64" d="M115.796 35.724v6.064a5.183 5.183 0 0 1-2.36 4.114l-11.731 6.768c-.58.335-.892 1.004-1.258 1.71a6.7 6.7 0 0 1-.892 1.48c-.893 1.031-2.9 2.111-4.302 2.557q-.689.228-1.41.326c-.173.031-.37.053-.575.08-1.276.17-2.874.389-3.806.928l-13.73 7.925a2.4 2.4 0 0 1-1.195.357 1.6 1.6 0 0 1-.803-.206 1.96 1.96 0 0 1-.892-1.807v-6.037a5.18 5.18 0 0 1 2.373-4.113l4.614-2.678q.03-.015.062-.022a.482.482 0 0 1 .482.83.12.12 0 0 1-.053.045l-4.61 2.677a4.23 4.23 0 0 0-1.896 3.261v6.06a.826.826 0 0 0 1.392.803l13.73-7.929c1.102-.634 2.806-.866 4.171-1.049.201 0 .393-.053.567-.075q.639-.091 1.254-.29c1.245-.398 3.092-1.406 3.855-2.272a5.8 5.8 0 0 0 .763-1.267c.401-.807.812-1.642 1.651-2.123l11.73-6.77a4.26 4.26 0 0 0 1.883-3.26v-6.087a.82.82 0 0 0-.378-.953.825.825 0 0 0-1.014.15l-3.998 2.307a4.2 4.2 0 0 0-.504-.848l4.015-2.311a1.788 1.788 0 0 1 2.705.62c.156.32.214.678.164 1.03z"/><path fill="#000" d="m65.46 112.518 67.008-38.702c.281-.165.513-.031.513.294v15.987a1.15 1.15 0 0 1-.513.893l-67.009 38.702c-.28.161-.508.031-.508-.299v-15.987a1.14 1.14 0 0 1 .508-.888" opacity=".2"/><path fill="#F7921E" d="M136.024 75.93a.68.68 0 0 0-.602.085l-66.228 38.256a1.99 1.99 0 0 0-.892 1.566v15.171a.65.65 0 0 0 .245.575 54 54 0 0 0-1.687-.972.65.65 0 0 1-.258-.58V114.86a1.99 1.99 0 0 1 .892-1.566l66.223-38.26a.64.64 0 0 1 .647-.059c.152.09 1.339.759 1.66.955"/><path fill="#fff" d="M136.024 75.931c-.321-.196-1.508-.865-1.655-.955a.65.65 0 0 0-.647.058L67.516 113.3a1.8 1.8 0 0 0-.638.674l1.696.977c.152-.274.372-.506.638-.673l66.227-38.256a.68.68 0 0 1 .585-.09" opacity=".2"/><path fill="#FAFAFA" d="m69.194 114.272 66.228-38.256c.499-.286.892-.054.892.522v15.17a2 2 0 0 1-.892 1.566l-66.228 38.247c-.5.286-.892.054-.892-.522v-15.17a2 2 0 0 1 .892-1.557"/><path fill="#F7921E" d="m68.556 114.946-1.696-.977a1.8 1.8 0 0 0-.267.892v15.171a.64.64 0 0 0 .258.58c.166.098 1.53.892 1.687.972a.65.65 0 0 1-.245-.575v-15.171c.01-.315.1-.622.263-.892"/><path fill="#000" d="m68.556 114.946-1.696-.977a1.8 1.8 0 0 0-.267.892v15.171a.64.64 0 0 0 .258.58c.166.098 1.53.892 1.687.972a.65.65 0 0 1-.245-.575v-15.171c.01-.315.1-.622.263-.892" opacity=".15"/><path fill="#F7921E" d="M135.823 76.31c.081 0 .085.206.085.228v15.17a1.6 1.6 0 0 1-.696 1.206l-66.228 38.233a.43.43 0 0 1-.196.067c-.08 0-.08-.205-.08-.227v-15.171a1.59 1.59 0 0 1 .696-1.204l66.227-38.256a.45.45 0 0 1 .192-.067m0-.42a.8.8 0 0 0-.401.125l-66.228 38.279a1.99 1.99 0 0 0-.892 1.566v15.17c0 .406.205.643.5.643a.8.8 0 0 0 .405-.121l66.215-38.265a2 2 0 0 0 .892-1.566V76.53c0-.411-.201-.648-.5-.648z"/><path fill="#E0E0E0" d="m85.926 111.63 46.636-26.932a2.683 2.683 0 0 0 1.115-2.128c0-.817-.5-1.196-1.115-.839l-46.636 26.932a2.68 2.68 0 0 0-1.111 2.128c0 .817.5 1.196 1.111.839m46.636-23.648L85.926 114.91a2.67 2.67 0 0 0-1.111 2.128c0 .816.5 1.196 1.111.839l46.636-26.937a2.68 2.68 0 0 0 1.115-2.123c0-.821-.5-1.196-1.115-.844z"/><path fill="#455A64" d="M73.228 125.081a.2.2 0 0 1-.116-.031.23.23 0 0 1-.121-.205v-7.871a.23.23 0 0 1 .12-.205l6.77-3.909a.23.23 0 0 1 .117-.033q.064 0 .119.033a.23.23 0 0 1 .12.206v7.888a.24.24 0 0 1-.12.205l-6.769 3.909a.23.23 0 0 1-.12.013m.236-7.973v7.326l6.296-3.636v-7.322z"/><path fill="#F7921E" d="m76.458 121.4-1.575-1.512.526-1.116.897.861 3.882-8.214.678.656z"/><path fill="#000" d="m65.46 138.354 67.008-38.702c.281-.165.513-.031.513.294v15.987a1.15 1.15 0 0 1-.513.893l-67.009 38.702c-.28.161-.508.031-.508-.299v-15.987a1.14 1.14 0 0 1 .508-.888" opacity=".2"/><path fill="#F7921E" d="M136.024 101.767a.68.68 0 0 0-.602.085l-66.228 38.256a1.99 1.99 0 0 0-.892 1.566v15.171a.65.65 0 0 0 .245.575 56 56 0 0 0-1.687-.973.64.64 0 0 1-.258-.58v-15.17a2 2 0 0 1 .892-1.566l66.223-38.261a.64.64 0 0 1 .647-.058c.152.09 1.339.759 1.66.955"/><path fill="#fff" d="M136.024 101.766c-.321-.196-1.508-.865-1.655-.955a.64.64 0 0 0-.647.058l-66.206 38.265a1.8 1.8 0 0 0-.638.674l1.696.977c.152-.275.372-.506.638-.673l66.227-38.257a.68.68 0 0 1 .585-.089" opacity=".2"/><path fill="#FAFAFA" d="m69.194 140.108 66.228-38.256c.499-.286.892-.054.892.522v15.17a2 2 0 0 1-.892 1.566l-66.228 38.247c-.5.286-.892.054-.892-.522v-15.17a2 2 0 0 1 .892-1.557"/><path fill="#F7921E" d="m68.556 140.782-1.696-.977a1.8 1.8 0 0 0-.267.892v15.17a.64.64 0 0 0 .258.58c.166.099 1.53.893 1.687.973a.65.65 0 0 1-.245-.575v-15.171c.01-.315.1-.622.263-.892"/><path fill="#000" d="m68.556 140.782-1.696-.977a1.8 1.8 0 0 0-.267.892v15.17a.64.64 0 0 0 .258.58c.166.099 1.53.893 1.687.973a.65.65 0 0 1-.245-.575v-15.171c.01-.315.1-.622.263-.892" opacity=".15"/><path fill="#F7921E" d="M135.823 102.147c.081 0 .085.205.085.227v15.171a1.6 1.6 0 0 1-.696 1.204l-66.228 38.234a.43.43 0 0 1-.196.067c-.08 0-.08-.205-.08-.227v-15.171a1.59 1.59 0 0 1 .696-1.204l66.227-38.257a.5.5 0 0 1 .192-.067m0-.419a.8.8 0 0 0-.401.125l-66.228 38.278a2 2 0 0 0-.892 1.567v15.17c0 .406.205.643.5.643a.8.8 0 0 0 .405-.121l66.215-38.265a2 2 0 0 0 .892-1.566v-15.171c0-.41-.201-.647-.5-.647z"/><path fill="#E0E0E0" d="m85.926 137.466 46.636-26.932a2.68 2.68 0 0 0 1.115-2.128c0-.817-.5-1.196-1.115-.839l-46.636 26.932a2.68 2.68 0 0 0-1.111 2.128c0 .817.5 1.196 1.111.839m46.636-23.648-46.636 26.928a2.67 2.67 0 0 0-1.111 2.128c0 .816.5 1.196 1.111.839l46.636-26.937a2.68 2.68 0 0 0 1.115-2.124c0-.82-.5-1.195-1.115-.843z"/><path fill="#455A64" d="M73.228 150.917a.2.2 0 0 1-.116-.031.23.23 0 0 1-.121-.205v-7.871a.23.23 0 0 1 .12-.205l6.77-3.909a.23.23 0 0 1 .117-.033q.064 0 .119.033a.23.23 0 0 1 .12.205v7.889a.24.24 0 0 1-.12.205l-6.769 3.909a.23.23 0 0 1-.12.013m.236-7.973v7.326l6.296-3.636v-7.322z"/><path fill="#F7921E" d="m76.458 147.236-1.575-1.512.526-1.116.897.861 3.882-8.214.678.656z"/><path fill="#000" d="m65.46 164.19 67.008-38.702c.281-.165.513-.031.513.294v15.987a1.14 1.14 0 0 1-.513.893l-67.009 38.702c-.28.161-.508.031-.508-.299v-15.987a1.14 1.14 0 0 1 .508-.888" opacity=".2"/><path fill="#F7921E" d="M136.024 127.602a.67.67 0 0 0-.602.085l-66.228 38.256a1.99 1.99 0 0 0-.892 1.566v15.171a.65.65 0 0 0 .245.575 56 56 0 0 0-1.687-.973.65.65 0 0 1-.258-.58v-15.17a2 2 0 0 1 .892-1.566l66.223-38.261a.64.64 0 0 1 .647-.058c.152.09 1.339.759 1.66.955"/><path fill="#fff" d="M136.024 127.602c-.321-.196-1.508-.865-1.655-.955a.64.64 0 0 0-.647.058L67.516 164.97a1.8 1.8 0 0 0-.638.674l1.696.977c.152-.275.372-.506.638-.673l66.227-38.257a.68.68 0 0 1 .585-.089" opacity=".2"/><path fill="#FAFAFA" d="m69.194 165.944 66.228-38.256c.499-.286.892-.054.892.522v15.17a2 2 0 0 1-.892 1.566l-66.228 38.247c-.5.286-.892.054-.892-.522v-15.17a2 2 0 0 1 .892-1.557"/><path fill="#F7921E" d="m68.556 166.618-1.696-.977a1.8 1.8 0 0 0-.267.892v15.17a.64.64 0 0 0 .258.58c.166.099 1.53.893 1.687.973a.66.66 0 0 1-.245-.575V167.51c.01-.315.1-.622.263-.892"/><path fill="#000" d="m68.556 166.618-1.696-.977a1.8 1.8 0 0 0-.267.892v15.17a.64.64 0 0 0 .258.58c.166.099 1.53.893 1.687.973a.66.66 0 0 1-.245-.575V167.51c.01-.315.1-.622.263-.892" opacity=".15"/><path fill="#F7921E" d="M135.823 127.983c.081 0 .085.205.085.227v15.171a1.6 1.6 0 0 1-.696 1.204l-66.228 38.234a.43.43 0 0 1-.196.067c-.08 0-.08-.205-.08-.227v-15.171a1.59 1.59 0 0 1 .696-1.204l66.227-38.257a.5.5 0 0 1 .192-.067m0-.419a.8.8 0 0 0-.401.125l-66.228 38.278a2 2 0 0 0-.892 1.567v15.17c0 .406.205.642.5.642a.8.8 0 0 0 .405-.12l66.215-38.265a2 2 0 0 0 .892-1.566v-15.171c0-.41-.201-.647-.5-.647z"/><path fill="#E0E0E0" d="m85.926 163.302 46.636-26.932a2.68 2.68 0 0 0 1.115-2.128c0-.817-.5-1.196-1.115-.839l-46.636 26.932a2.68 2.68 0 0 0-1.111 2.128c0 .817.5 1.196 1.111.839m46.636-23.648-46.636 26.927a2.69 2.69 0 0 0-1.111 2.129c0 .816.5 1.196 1.111.839l46.636-26.937a2.68 2.68 0 0 0 1.115-2.124c0-.821-.5-1.195-1.115-.843z"/><path fill="#455A64" d="M73.228 176.753a.2.2 0 0 1-.116-.031.23.23 0 0 1-.121-.205v-7.871a.23.23 0 0 1 .12-.205l6.77-3.909a.225.225 0 0 1 .236 0 .23.23 0 0 1 .12.205v7.889a.24.24 0 0 1-.12.205l-6.769 3.909a.23.23 0 0 1-.12.013m.236-7.973v7.326l6.296-3.636v-7.322z"/><path fill="#F7921E" d="m76.458 173.072-1.575-1.513.526-1.115.897.861 3.882-8.214.678.656z"/><path fill="#000" d="m65.46 86.682 67.008-38.702c.281-.165.513-.031.513.295V64.26a1.15 1.15 0 0 1-.513.893l-67.009 38.702c-.28.161-.508.031-.508-.299V87.57a1.14 1.14 0 0 1 .508-.888" opacity=".2"/><path fill="#F7921E" d="M136.024 50.095a.68.68 0 0 0-.602.085L69.194 88.436a1.99 1.99 0 0 0-.892 1.566v15.171a.65.65 0 0 0 .245.575 54 54 0 0 0-1.687-.972.64.64 0 0 1-.258-.58v-15.17a2 2 0 0 1 .892-1.567l66.223-38.26a.64.64 0 0 1 .647-.059c.152.09 1.339.759 1.66.955"/><path fill="#fff" d="M136.024 50.095c-.321-.196-1.508-.865-1.655-.955a.65.65 0 0 0-.647.059L67.516 87.464a1.8 1.8 0 0 0-.638.673l1.696.977a1.86 1.86 0 0 1 .638-.673l66.227-38.256a.68.68 0 0 1 .585-.09" opacity=".2"/><path fill="#FAFAFA" d="m69.194 88.436 66.228-38.256c.499-.286.892-.054.892.522v15.17a2 2 0 0 1-.892 1.566l-66.228 38.247c-.5.286-.892.054-.892-.522v-15.17a2 2 0 0 1 .892-1.557"/><path fill="#F7921E" d="m68.556 89.11-1.696-.977c-.164.27-.257.577-.267.892v15.171a.64.64 0 0 0 .258.58c.166.098 1.53.892 1.687.972a.64.64 0 0 1-.245-.575v-15.17c.01-.316.1-.623.263-.893"/><path fill="#000" d="m68.556 89.11-1.696-.977c-.164.27-.257.577-.267.892v15.171a.64.64 0 0 0 .258.58c.166.098 1.53.892 1.687.972a.64.64 0 0 1-.245-.575v-15.17c.01-.316.1-.623.263-.893" opacity=".15"/><path fill="#F7921E" d="M135.823 50.475c.081 0 .085.205.085.227v15.17a1.6 1.6 0 0 1-.696 1.206L68.984 105.31a.43.43 0 0 1-.196.067c-.08 0-.08-.205-.08-.227v-15.17a1.59 1.59 0 0 1 .696-1.205L135.63 50.52a.45.45 0 0 1 .192-.067m0-.42a.8.8 0 0 0-.401.125L69.194 88.437a2 2 0 0 0-.892 1.566v15.17c0 .406.205.643.5.643a.8.8 0 0 0 .405-.121l66.215-38.265a2 2 0 0 0 .892-1.566v-15.17c0-.41-.201-.647-.5-.647z"/><path fill="#E0E0E0" d="m85.926 85.794 46.636-26.932a2.682 2.682 0 0 0 1.115-2.128c0-.817-.5-1.196-1.115-.839L85.926 82.827a2.68 2.68 0 0 0-1.111 2.128c0 .817.5 1.196 1.111.84m46.636-23.648L85.926 89.074a2.68 2.68 0 0 0-1.111 2.128c0 .817.5 1.196 1.111.839l46.636-26.936a2.69 2.69 0 0 0 1.115-2.124c0-.821-.5-1.196-1.115-.844z"/><path fill="#455A64" d="M73.228 99.245a.2.2 0 0 1-.116-.03.23.23 0 0 1-.121-.206v-7.87a.23.23 0 0 1 .12-.206l6.77-3.909a.23.23 0 0 1 .236 0 .23.23 0 0 1 .12.206v7.888a.24.24 0 0 1-.12.205l-6.769 3.909a.23.23 0 0 1-.12.013m.236-7.973v7.326l6.296-3.636V87.64z"/><path fill="#F7921E" d="m76.458 95.564-1.575-1.512.526-1.116.897.861 3.882-8.214.678.656z"/><path fill="#263238" d="M216.331 168.967s2.323.432 3.62 2.157c1.297 1.724 4.148 6.869 4.718 7.449a4.2 4.2 0 0 1-1.354 1.359l-1.544-1.825c-.385-.332-1.012-1.154-1.021-.1-.01 1.055.104 2.039.218 4.081.067 1.24.475 3.696-1.705 6.034-2.043 2.185-4.476 3.644-5.963 3.824-.888.105-2.879-.123-2.746-1.9.076-.95 1.269-4.461 1.454-6.176s4.323-14.903 4.323-14.903"/><path fill="#FFBDA7" d="M216.683 169.46c-.29-.384-1.192-1.995-1.63-2.741s-2.237-4.684-4.456-10.727c-2.85-7.782-7.767-13.582-9.264-16.513a61 61 0 0 1-4.166-9.977l-6.371 4.057-8.242-.332c-.11 1.22.356 2.85 1.235 4.784l.024.047q.122.266.251.532c1.758 3.653 4.799 8.076 8.2 12.575l.086.11.118.156c3.278 4.343 6.889 8.761 10.044 12.59v-.09c3.387 4.099 6.123 7.43 7.092 9.088 2.827 4.86 2.376 9.549 2.352 12.109-.024 1.597 1.221 1.929 2.922.571a10.25 10.25 0 0 0 3.8-7.602c.148-6.161-.328-6.408-1.995-8.637"/><path fill="#455A64" d="M182.592 88.182c-.646 4.964-1.283 9.577-1.839 22.727-.475 11.055-.95 16.979-.119 22.433.295 1.943 1.297 4.214 3.193 7.065 5.929 8.94 17.549 22.974 17.549 22.974s2.594-.085 5.701-2.717a9.16 9.16 0 0 0 3.088-6.238s-.333-2.057-5.226-10.304-5.634-17.246-5.634-17.246l2.665-35.36c-7.445.799-15.872-.508-19.378-3.334"/><path fill="#37474F" d="M207.077 160.663a9.16 9.16 0 0 0 3.088-6.238s-.333-2.057-5.226-10.304-5.634-17.245-5.634-17.245l2.043-27.08c-5.839-.836-13.968-.631-13.968-.631-.104 3.871.789 8.646 6.224 11.444 0 0-.751 19.032-.803 24.595-.038 4.247 1.297 15.031 1.934 19.91a488 488 0 0 0 6.651 8.257s2.584-.076 5.691-2.708"/><path fill="#263238" d="M205.927 180.194a7.13 7.13 0 0 1 1.863 4.062c.152 2.319-.262 8.642-.1 9.502a4.04 4.04 0 0 1-1.877.442l-.299-2.556c-.143-.523-.081-.951-.66 0-.58.95-1.065 2.014-1.967 3.396-.718 1.093-1.729 3.682-4.832 4.523-2.902.784-6.247.409-7.601-.299-.803-.423-2.242-1.093-1.169-2.608.575-.808 3.801-4.048 4.884-5.483s11.758-10.979 11.758-10.979"/><path fill="#FFBDA7" d="M198.093 179.945c.276-6.048-4.817-33.835-3.002-46.799l16.247.161a70 70 0 0 0-1.928 11.445c-.342 3.525.617 11.639-1.226 20.347-1.425 6.765-2.057 11.402-2.1 12.314s-.161 2.912-.128 3.43c.195 2.993-.299 4.684-3.682 9.349-.656.903-2.242 3.83-6.651 4.305-2.166.237-3.031-.784-2.138-2.219 1.416-2.295 4.333-6.285 4.608-12.333"/><path fill="#F0997A" d="M209.41 144.753c-.062 1.373 0 2.741.033 4.114s.071 2.746.076 4.124a66 66 0 0 1-.475 8.242c-.171 1.368-.428 2.722-.703 4.067l-.836 4.019q-.414 2.01-.77 4.033a78 78 0 0 0-.651 4.062 80 80 0 0 1 1.107-8.161c.475-2.713 1.135-5.369 1.425-8.077.19-1.349.304-2.717.404-4.081.1-1.363.124-2.736.166-4.104s.034-2.741.038-4.114c.005-1.373.029-2.761.186-4.124"/><path fill="#455A64" d="M182.592 88.182s1.876 6.404 3.971 12.2c1.82 5.035 5.226 7.838 8.78 8.969 0 0-.879 22.761-1.155 25.93-.275 3.168.613 14.632 1.373 22.171.76 7.54 1.003 10.119 1.003 10.119s1.581 1.677 5.957 1.696 5.739-1.867 5.739-1.867 2.655-8.77 2.679-15.625c0-3.924-.845-5.862-.171-9.763.675-3.9 5.791-21.312 6.59-29.54s-.651-15.425-6.423-23.753c-6.039 4.209-22.747 3.406-28.343-.537"/><path fill="#37474F" d="M208.455 90.039c3.126 4.318 7.663 13.259 4.693 26.214a1097 1097 0 0 1-2.503 10.68c-1.901 8.052-3.421 14.414-3.601 16.836-.061 1.364.022 2.73.247 4.077.477 3.178.519 6.407.123 9.596-.475 4.138-1.235 8.494-1.772 11.44a7 7 0 0 0 .518-.166c.537-2.946 1.249-7.184 1.734-11.217a35.6 35.6 0 0 0-.128-9.715 19.6 19.6 0 0 1-.243-3.977c.181-2.375 1.687-8.731 3.592-16.76.817-3.444 1.658-6.998 2.504-10.685 2.988-13.05-1.535-22.095-4.708-26.518z"/><path fill="#37474F" d="M182.473 86.804a41.9 41.9 0 0 0 15.031 3.211c9.169.1 13.521-2.765 13.521-2.765a6.26 6.26 0 0 0 .883 2.932s-5.263 3.159-14.375 2.888-15.165-3.387-15.165-3.387c.126-.955.161-1.919.105-2.88"/><path fill="#F7921E" d="M191.499 58.547c-3.8.684-5.615 1.867-8.47 6.447S171.532 81.74 171.532 81.74s1.948 4.927 9.026 6.205c3.326-4.751 9.849-14.1 9.849-14.1z"/><path fill="#000" d="M191.499 58.547c-3.8.684-5.615 1.867-8.47 6.447S171.532 81.74 171.532 81.74s1.948 4.927 9.026 6.205c3.326-4.751 9.849-14.1 9.849-14.1z" opacity=".3"/><path fill="#FAFAFA" d="M212.222 85.654c0 .984 2.499 5.925 3.867 11.255-8.2 10.57-32.476 4.803-34.253-1.145.38-7.07.708-24.918 2.257-28.148a23.85 23.85 0 0 1 7.435-8.856 44 44 0 0 1 5.178-.688c2.586-.268 5.195-.2 7.763.2 2.299.35 6.076 1.348 6.076 1.348 1.425 1.217 5.43 6.343 4.504 12.518-.423 2.837-2.836 6.538-2.827 13.516"/><path fill="#F7921E" d="m205.357 57.91-.033.87s-3.43 8.722-3.544 15.796 2.171 34.723 2.171 34.723 5.796-.746 9.026-2.252l.224-6.689 1.501 6.057s1.953-.613 2.955-2.062c0-2.617-.67-8.076-2.955-13.867s-2.375-6.85-.779-12.59c1.596-5.738 2.898-8.408 1.002-12.532-1.895-4.124-4.114-5.981-4.114-5.981zM195.685 57.91l-.029 1.022a72 72 0 0 0-5.967 7.126c-2.826 3.89-2.769 5.449-3.919 11.501-1.15 6.053-1.577 26.243-1.577 26.243a30 30 0 0 1-3.44-1.159s.717-11.877.979-15.962c.261-4.086.636-13.416 1.24-16.096.603-2.68.432-3.287 2.741-6.432a28.8 28.8 0 0 1 5.786-5.592z"/><path fill="#FFBDA7" d="M191.342 92.02c-.228-.665-2.209-1.9-2.641-3.254-.252-.794.271-1.943 1.116-1.155 1.773 1.658 3.069 1.9 4.233 2.708"/><path fill="#FAFAFA" d="M146.614 79.583c-.437 1.492.756 4.6 2.699 5.174a8.8 8.8 0 0 0-1.521 2.96c-.636 2.161.818 4.94 3.801 5.82l22.842 6.703 3.273 1.007 7.601-25.901-3.292-.95s-3.549-11.098-3.706-12.766 2.376-8.076 2.722-9.254-5.187-3.326-8.252.475c-3.064 3.8-4.275 7.34-4.408 11.677l-13.806-4.062c-2.917-.855-4.898 1.483-5.383 3.122a4.87 4.87 0 0 0 1.055 4.689 4.02 4.02 0 0 0-3.905 3.069 4.52 4.52 0 0 0 2.128 5.168s-1.187.832-1.848 3.07"/><path fill="#E0E0E0" d="M181.048 52.408c.351-1.197-5.188-3.325-8.252.475s-4.276 7.34-4.409 11.678l.171.237 2.456.694c2.081-13.345 7.402-13.787 10.034-13.084"/><path fill="#F7921E" d="m176.685 104.705 9.954 2.928 8.84-30.054-9.954-2.927z"/><path fill="#000" d="m176.685 104.705 9.954 2.928 8.84-30.054-9.954-2.927z" opacity=".2"/><path fill="#E0E0E0" d="M148.477 76.56s-1.202.785-1.858 3.022a2 2 0 0 0-.071.361c-.19 1.578.95 4.276 2.765 4.813a8.8 8.8 0 0 0-1.521 2.96q-.093.326-.128.665c-.204 2.033 1.245 4.366 3.929 5.154l4.589 1.35c-2.689-.79-4.133-3.122-3.933-5.155q.035-.34.128-.67a8.8 8.8 0 0 1 1.52-2.955c-1.796-.532-2.955-3.235-2.765-4.817q.02-.181.071-.356c.656-2.238 1.863-3.022 1.863-3.022a4.53 4.53 0 0 1-2.133-5.169l.028-.071a4.01 4.01 0 0 1 3.877-2.998 4.88 4.88 0 0 1-.955-4.983c.622-1.606 2.542-3.63 5.283-2.827l-4.585-1.344c-2.746-.808-4.665 1.216-5.283 2.822a4.856 4.856 0 0 0 .955 4.984 4.01 4.01 0 0 0-3.881 2.997l-.024.071a4.52 4.52 0 0 0 2.129 5.169"/><path fill="#455A64" d="m174.382 100.429-22.836-6.722a5.82 5.82 0 0 1-3.364-2.494 4.43 4.43 0 0 1-.561-3.54 9.2 9.2 0 0 1 1.397-2.822 4.34 4.34 0 0 1-2.109-2.251 4.75 4.75 0 0 1-.475-3.06 6.17 6.17 0 0 1 1.715-2.945 4.75 4.75 0 0 1-1.981-5.226 4.206 4.206 0 0 1 3.701-3.183 5.01 5.01 0 0 1-.851-4.575 5.23 5.23 0 0 1 1.843-2.594 4.14 4.14 0 0 1 3.758-.651l13.587 3.995c.186-4.465 1.521-7.933 4.438-11.553 2.175-2.704 5.757-2.556 7.601-1.592.736.385 1.088.846.95 1.264-.086.294-.299.888-.565 1.639-.794 2.209-2.267 6.323-2.148 7.549.147 1.549 3.326 11.568 3.668 12.637l3.373.95-7.696 26.229zm7.507-25.844-.029-.09c-.147-.475-3.558-11.136-3.715-12.827-.124-1.307 1.311-5.312 2.166-7.701.271-.75.475-1.34.566-1.62s-.252-.566-.789-.846c-1.739-.907-5.102-1.04-7.155 1.501-2.917 3.616-4.223 7.079-4.366 11.568v.233l-14.029-4.123a3.8 3.8 0 0 0-3.444.593 4.9 4.9 0 0 0-1.715 2.404 4.677 4.677 0 0 0 1.017 4.518l.294.319h-.437a3.8 3.8 0 0 0-3.724 2.94 4.36 4.36 0 0 0 2.043 4.96l.266.142-.252.167s-1.159.784-1.786 2.921a4.4 4.4 0 0 0 .446 2.803c.523 1.122 1.302 1.9 2.128 2.143l.262.08-.176.21a8.9 8.9 0 0 0-1.487 2.893 4.09 4.09 0 0 0 .527 3.25 5.46 5.46 0 0 0 3.155 2.351l22.841 6.718 3.098.95 7.501-25.554z"/><path fill="#000" d="m176.688 104.703 9.954 2.928 4.419-15.027-9.954-2.928z" opacity=".2"/><path fill="#F0F0F0" d="M184.254 102.709a1.502 1.502 0 0 0-1.305-1.918 1.51 1.51 0 0 0-1.464.798 1.5 1.5 0 0 0 2.046 2.014c.35-.19.61-.512.723-.894"/><path fill="#FFBDA7" d="M194.05 90.32c1.169.822 2.376 1.107 4.68 1.212 2.461.11 12.205-3.891 12.205-3.891l-1.796-12.965s-2.062-9.796 1.724-14.984c6.029 1.283 6.504 3.06 7.255 5.568.575 1.9 1.24 4.423 2.109 12.827.784 7.516.865 9.502.784 13.279-.076 3.278-2.689 4.328-7.226 5.382-4.537 1.055-7.454 1.425-13.901 2.376-3.097.475-4.855.247-7.544.185a9.8 9.8 0 0 1-3.007-.437 5.8 5.8 0 0 1-2.375-1.387 1.7 1.7 0 0 0-.376-.343 4 4 0 0 0-.475-.204 3.4 3.4 0 0 1-.869-.408 5.5 5.5 0 0 1-.684-.756 4 4 0 0 0-.304-.351 2.7 2.7 0 0 0-.399-.285 3.6 3.6 0 0 1-1.022-.746.65.65 0 0 1-.109-.632s-.508-.204-.679-.285a3.7 3.7 0 0 1-.666-.409.35.35 0 0 1-.171-.247c0-.061.02-.121.057-.17.475-.837 1.473-.832 2.324-.756 2.209.195 3.558.78 5.791.731 1.216-.028 1.544-.056 1.876-.29a.245.245 0 0 0 .095-.314"/><path fill="#F0997A" d="M210.935 87.64a25.3 25.3 0 0 1 4.883-1.833s-1.539-.604-5.007.95zM182.796 93.85c.503.228 1.031.408 1.553.589.523.18 1.055.337 1.578.508.261.085.522.18.793.257q.407.114.812.185.816.165 1.644.247l-.803-.2a22 22 0 0 1-.803-.2c-.266-.07-.536-.137-.798-.223-.261-.085-.518-.175-.784-.26a47 47 0 0 0-1.591-.476zM184.193 95.375q.53.378 1.121.65c.389.177.788.329 1.187.476.4.147.813.27 1.221.385q.616.178 1.25.27c-.404-.133-.798-.285-1.202-.422l-1.197-.428-1.197-.432a16 16 0 0 1-1.183-.499"/><path fill="#F7921E" d="M210.811 59.383c4.138 1.064 5.981 1.786 6.846 3.829s1.287 3.325 2.223 8.841a147 147 0 0 1 1.573 18.276c-.043 3.017.294 4.276-3.064 5.525s-10.965 2.338-10.965 2.338c.172-1.386.128-2.79-.128-4.162a14.8 14.8 0 0 0-1.83-4.466l5.103-2.038s-1.786-11.563-2.038-13.601-.96-10.21 2.28-14.542"/><path fill="#000" d="M210.811 59.383c4.138 1.064 5.981 1.786 6.846 3.829s1.287 3.325 2.223 8.841a147 147 0 0 1 1.573 18.276c-.043 3.017.294 4.276-3.064 5.525s-10.965 2.338-10.965 2.338c.172-1.386.128-2.79-.128-4.162a14.8 14.8 0 0 0-1.83-4.466l5.103-2.038s-1.786-11.563-2.038-13.601-.96-10.21 2.28-14.542" opacity=".3"/><path fill="#37474F" d="m189.566 46.08-.756-.232c-3.387-1.82-3.216-6.233-2.375-8.551 1.839-5.136 7.392-7.06 10.827-7.25 6.518-.356 9.701 1.325 10.371 4.703.883-.076 2.1.637 2.85 1.634 1.601 2.181 3.511 9.782-4.941 17.801z"/><path fill="#FFBDA7" d="M207.077 51.664c1.178.17 2.09-.447 2.77-1.255 1.51-1.8 1.586-3.572.807-4.722-.646-.95-2.161-1.501-3.178-.808-1.088.746-1.102 1.316-1.492 2.124s-2.028.803-2.541-2.375c-.475-2.965-.347-6.072-1.853-7.36-2.257-1.9-5.074-1.258-5.891-.037a2.95 2.95 0 0 0-4.057-.85c-1.425.84-2.499 3.116-2.789 8.783-.299 5.777 1.193 9.312 2.551 10.229 1.031.698 2.167.983 4.328.998l-.076 2.536s-2.926 5.53-2.727 10.452c0 0 1.193-.822 6.561-5.516l5.834-5.097.304-7.967a1.85 1.85 0 0 0 1.449.864"/><path fill="#263238" d="m190.359 42.385 2.124-.812a1.101 1.101 0 0 0-.993-.75 1.1 1.1 0 0 0-.433.07 1.195 1.195 0 0 0-.698 1.492M198.241 41.557l2.104 1.226a1.16 1.16 0 0 0 .155-.91 1.17 1.17 0 0 0-.554-.738 1.28 1.28 0 0 0-1.705.422"/><path fill="#37474F" d="M201.067 37.658c.509.646.884 1.297.803 3.615-.028.95.043 3.221.689 4.566.565 1.178 1.154 1.9 2.409 2.095a4.6 4.6 0 0 0 2.261-.228c.442-.205 1.691-1.083 1.539-2.376a2.7 2.7 0 0 1-.917.647 2.7 2.7 0 0 1-.826.2 2.53 2.53 0 0 1-2.133-1.184c-.841-1.25-.789-2.931-1.046-4.366-.327-1.815-.641-3.881-2.285-4.784-1.938-1.064-5.444-.589-5.862 1.392a3.85 3.85 0 0 1 5.368.423"/><path fill="#B16668" d="m198.15 50.053-3.173.879a1.652 1.652 0 0 0 2.18 1.097 1.55 1.55 0 0 0 .993-1.976"/><path fill="#F0997A" d="M196.25 52.085a1.727 1.727 0 0 1 1.796-1.468q.081.01.161.029a1.46 1.46 0 0 1-1.05 1.382 1.9 1.9 0 0 1-.907.057M195.694 43.126l-.665 5.653-3.069-1.192zM195.732 56.395a20.2 20.2 0 0 0 6.1-1.378c.708-.313 1.653-1.615 2.418-3.059 0 0-.518 2.85-2.043 3.83-2.323 1.51-6.508 1.866-6.508 1.866z"/><path fill="#263238" d="M190.891 44.077c-.166.475.152.617.599.779.446.161.845.256 1.012-.205a.86.86 0 0 0-.513-1.106.856.856 0 0 0-1.098.532"/><path fill="#263238" d="M192.416 43.706a2.1 2.1 0 0 0-.636-.238 1.9 1.9 0 0 0-.666-.042 2 2 0 0 0-.679.19s-.028.057 0 .052c.185 0 .342-.043.608-.052q.376.003.741.1.443.102.841.322c.086.043.252.138.271.153s.047-.048.033-.067a1.4 1.4 0 0 0-.513-.418M199.523 44.39c.105.475-.237.589-.698.684s-.874.147-.979-.337a.85.85 0 0 1 .358-.882.85.85 0 0 1 .951-.007.85.85 0 0 1 .368.542"/><path fill="#263238" d="M198.06 43.81q.321-.126.665-.152a2 2 0 0 1 .665.048c.229.058.447.153.646.28 0 0 .024.062 0 .057-.175-.043-.332-.095-.593-.138a3 3 0 0 0-.746 0c-.3.026-.594.095-.874.205l-.29.114c-.029 0-.043-.053-.029-.072a1.5 1.5 0 0 1 .556-.342"/><path fill="#FFBDA7" d="M161.646 97.727c-1.331 0-1.402-.152-1.601-.812a3.4 3.4 0 0 1 .475-3.074c.579-.75 1.126-1.535 1.62-1.782s1.078.694.575 1.858c-.789 1.834-.352 2.133-.352 2.133q.499-1.177 1.121-2.295c.39-.608 1.425-1.468 2.029-2.057s1.539-.1 1.016 1.245l1.079-1.078c.755-.756 1.425-.713 1.463.337.024.349-.072.695-.271.983 0 0 .661-.907.974-.708.908.575.727 1.302-.076 3.525-.679 1.9-.418 2.85.333 3.145l.475.143s-.922.408-1.815.722c-.651.228-1.292.356-1.858-.37 0 0-.707 1.016-1.368.627a4 4 0 0 1-1.154-1.207 1.34 1.34 0 0 1-1.425-.19 2.2 2.2 0 0 1-.822-1.155z"/><path fill="#F0997A" d="M166.534 92.942q-.513.462-.922 1.017c-.215.414-.364.86-.441 1.32a16 16 0 0 0-.366 2.68c.326-.841.579-1.709.755-2.594q.104-.644.323-1.259c.209-.37.456-.755.651-1.164M168.805 93.185c-.395.31-.707.713-.907 1.173q-.305.678-.476 1.401a14 14 0 0 0-.399 2.894q.466-1.38.784-2.799a7.7 7.7 0 0 1 .998-2.67"/><path fill="#F7921E" d="M48.038 14.156c-3.684-2.094-8.753-1.774-14.349 1.457-11.243 6.487-20.385 22.31-20.385 35.313 0 6.487 2.279 11.054 5.963 13.186l6.967 4.008c3.685 2.124 8.779 1.812 14.4-1.431 11.244-6.487 20.39-22.31 20.39-35.313 0-6.487-2.27-11.036-5.942-13.173-1.543-.895-5.487-3.165-7.044-4.047"/><path fill="#000" d="M14.052 44.167a33 33 0 0 0-.748 6.76c0 6.486 2.279 11.052 5.963 13.184l6.967 4.01c3.685 2.122 8.779 1.811 14.4-1.432a32.6 32.6 0 0 0 5.466-4.022z" opacity=".15"/><path fill="#F7921E" d="M55.056 51.454c3.685-6.388 5.964-13.583 5.964-20.079 0-12.999-9.129-18.27-20.39-11.766-11.26 6.503-20.385 22.31-20.385 35.309s9.146 18.27 20.39 11.77a35 35 0 0 0 7.96-6.46l8.321 1.522a1.371 1.371 0 0 0 1.518-1.855z"/><path fill="#fff" d="M55.056 51.454c3.685-6.388 5.964-13.583 5.964-20.079 0-12.999-9.129-18.27-20.39-11.766-11.26 6.503-20.385 22.31-20.385 35.309s9.146 18.27 20.39 11.77a35 35 0 0 0 7.96-6.46l8.321 1.522a1.371 1.371 0 0 0 1.518-1.855z" opacity=".35"/><path fill="#FAFAFA" d="M50.512 39.778a5.7 5.7 0 0 0 1.245-3.326c0-1.154-.432-1.634-.865-1.79a5.7 5.7 0 0 0 .631-2.504c0-1.176-.666-2.538-2.088-1.73L44.12 33.49c.346-2.404.195-4.255-.493-6.08-.631-1.674-2.223-1.155-3.079-.433a1.78 1.78 0 0 0-.757 1.328c0 .164 0 .497.035.925.043 1.025.147 3.421 0 4.048s-1.786 4.9-2.837 7.56a.9.9 0 0 0-.065.31v14.427c0 .246.134.372.307.311l.06-.03 9.553-5.505a5.57 5.57 0 0 0 2.5-4.324 6 6 0 0 0-.139-1.298 6.43 6.43 0 0 0 1.518-3.498 4 4 0 0 0-.212-1.453m-1.787 4.324a.8.8 0 0 0-.307.402.68.68 0 0 0-.03.485c.152.46.225.942.216 1.427a3.85 3.85 0 0 1-1.76 2.94l-9.193 5.32V40.892c.467-1.184 2.594-6.663 2.854-7.615.207-.796.147-2.595.065-4.497 0-.312-.026-.567-.03-.74.276-.294.63-.506 1.02-.61a1.1 1.1 0 0 1 1.405.762c.684 1.816.792 3.658.355 6.153a.43.43 0 0 0 .065.385.21.21 0 0 0 .29.022l5.781-3.326c1.016-.584 1.35.52 1.35 1.15a4.07 4.07 0 0 1-.762 2.267.87.87 0 0 0-.173.596c0 .182.13.281.277.242.035 0 .865-.203.865 1.19a3.63 3.63 0 0 1-1.116 2.495.9.9 0 0 0-.268.471.5.5 0 0 0 .06.433s.29.328.29 1.353c.005.61-.674 2.167-1.254 2.496zm-13.241-3.027-4.169 2.396a.76.76 0 0 0-.26.294.9.9 0 0 0-.107.41v16.793c0 .242.134.371.307.306l.06-.025 4.169-2.4a.73.73 0 0 0 .26-.294.9.9 0 0 0 .108-.411V41.352c0-.273-.16-.407-.368-.281zm-2.093 16.403c-.432.25-.787 0-.787-.593a1.9 1.9 0 0 1 .787-1.505c.432-.25.787 0 .787.597a1.89 1.89 0 0 1-.787 1.496z"/><path fill="#F7921E" d="M155.453 198.526a2.07 2.07 0 0 0-1.196-1.787 11.4 11.4 0 0 0-2.848-1.122c1.478-.853 1.021-2.829-.121-3.48a7.75 7.75 0 0 0-3.191-1.048c1.263-1.122.739-2.533-.632-3.319a6.602 6.602 0 0 0-5.052-.497c.235-.524.403-1.734-1.384-2.761a7.54 7.54 0 0 0-3.601-.813 5.8 5.8 0 0 0-2.822.725l-10.52 6.047a15.7 15.7 0 0 0-5.079-3.359 27.5 27.5 0 0 0-4.703-1.512 9.5 9.5 0 0 0-2.512-.269c-3.051.074-5.375 1.518-5.375 2.157v6.281a.23.23 0 0 0 .036.127.23.23 0 0 0 .098.088c.914.531 6.396 3.158 7.054 4.071.659.914 2.883 7.458 2.97 7.753l19.738 11.428s15.123-8.734 17.4-10.077c1.209-.672 1.76-1.559 1.754-2.352v-6.281z"/><path fill="#000" d="M116.575 199.574v6.308c-.081-.289-2.264-6.846-2.963-7.746v-6.282c.699.874 2.882 7.431 2.963 7.72" opacity=".2"/><path fill="#000" d="M136.3 210.935v6.301l-19.718-11.38v-6.282z" opacity=".3"/><path fill="#F7921E" d="M148.097 191.102a7.75 7.75 0 0 1 3.191 1.048c1.142.672 1.599 2.627.121 3.48.995.244 1.954.621 2.848 1.122 1.666.94 1.72 2.821-.557 4.138l-17.4 10.077-19.705-11.36c-.087-.289-2.271-6.846-2.969-7.746-.699-.9-6.141-3.541-7.055-4.071-.745-.43 1.754-2.291 5.227-2.372a9.5 9.5 0 0 1 2.513.269 27.7 27.7 0 0 1 4.703 1.511 15.7 15.7 0 0 1 5.079 3.36l10.52-6.047a5.8 5.8 0 0 1 2.822-.725 7.54 7.54 0 0 1 3.601.813c1.787 1.027 1.619 2.237 1.384 2.761a6.6 6.6 0 0 1 5.052.497c1.364.699 1.888 2.109.625 3.245"/><path fill="#000" d="M155.46 198.525v6.275c0 .8-.544 1.66-1.754 2.358-2.277 1.344-17.4 10.078-17.4 10.078v-6.302l17.4-10.077c1.203-.679 1.754-1.539 1.754-2.332M113.612 191.827v6.282c-.672-.921-6.14-3.541-7.054-4.071a.24.24 0 0 1-.099-.092.24.24 0 0 1-.035-.13v-6.268a.24.24 0 0 0 .134.208c.914.524 6.396 3.151 7.054 4.071" opacity=".15"/><path fill="#F7921E" d="M135.077 214.482a.9.9 0 0 0-.524-.706l-20.605-11.891a2.41 2.41 0 0 0-2.156-.094l-5.603 3.238a.668.668 0 0 0-.37.544v6.282a.9.9 0 0 0 .524.705l20.605 11.891a2.38 2.38 0 0 0 2.156.088l5.603-3.232a.67.67 0 0 0 .37-.544z"/><path fill="#000" d="M128.11 218.472v6.288a2.6 2.6 0 0 1-1.162-.302l-20.605-11.898a.87.87 0 0 1-.517-.705v-6.282a.88.88 0 0 0 .524.672l20.605 11.891c.351.206.748.322 1.155.336" opacity=".15"/><path fill="#F7921E" d="m106.189 205.029 5.603-3.238a2.4 2.4 0 0 1 2.156.094l20.605 11.891c.638.37.705.927.154 1.243l-5.603 3.238a2.382 2.382 0 0 1-2.156-.087l-20.605-11.898c-.638-.39-.705-.927-.154-1.243"/><path fill="#000" d="M135.083 214.488v6.275a.62.62 0 0 1-.362.544l-5.61 3.238c-.307.157-.65.229-.994.209v-6.282c.344.021.687-.051.994-.208l5.61-3.238a.67.67 0 0 0 .362-.538" opacity=".3"/></svg>