<svg xmlns="http://www.w3.org/2000/svg" width="256" height="256" fill="none"><path fill="#F7921E" d="m224.392 140.267-8.734-5.043c-6.785-3.916-10.019-3.96-10.393-1.76-.26 1.514-.44 2.521-2.099 3.472-2.75 1.588-7.128 1.645-10.01.189 1.54-.774 3.221-.88 5.65-1.021 1.619-.092 2.534-.479 2.534-1.197v-6.375c0-.973-1.69-2.548-5.597-4.805l-8.734-5.042-9.645 5.57c-3.907 2.253-5.601 3.832-5.601 4.805v6.367c0 .717.915 1.104 2.539 1.196 2.424.137 4.105.247 5.645 1.017-2.877 1.461-7.26 1.399-10.01-.185-1.641-.95-1.839-1.962-2.094-3.472-.379-2.2-3.617-2.147-10.397 1.76l-9.645 5.58v6.366l8.584 4.95a7.8 7.8 0 0 0-2.798.929c-1.43.827-2.147 1.909-2.147 2.992v6.375c0 1.083.712 2.17 2.147 2.997 2.864 1.654 7.506 1.654 10.371 0 1.641-.951 1.839-1.958 2.098-3.472.374-2.2 3.608-2.147 10.393 1.76l8.752 5.051 9.645-5.57c6.78-3.912 10.018-3.96 10.397-1.76.259 1.509.44 2.521 2.099 3.467 2.864 1.655 7.502 1.655 10.37 0 1.43-.827 2.148-1.909 2.148-2.992v-6.371c0-1.087-.718-2.169-2.148-2.996a7.9 7.9 0 0 0-2.802-.929l9.499-5.487z"/><path fill="#fff" d="m156.376 152.64-8.575-4.95v-6.372l8.729 5.038c6.776 3.916 6.886 5.786 3.08 6.002-1.249.07-2.301.132-3.234.282M171.763 135.426v-6.366c0 .712.924 1.095 2.539 1.188 2.613.149 4.364.264 6.006 1.21 2.864 1.654 2.864 4.334 0 5.988q-.177.1-.361.194c-1.54-.77-3.221-.88-5.645-1.017-1.624-.092-2.539-.484-2.539-1.197M176.448 157.858c-6.784-3.92-10.018-3.96-10.392-1.76v6.371c.374-2.2 3.608-2.147 10.392 1.76l8.752 5.043v-6.376zM217.694 159.029c-2.864 1.654-7.511 1.654-10.375 0-1.641-.951-1.839-1.958-2.094-3.467v6.375c.255 1.509.44 2.521 2.094 3.467 2.864 1.655 7.511 1.655 10.375 0 1.43-.827 2.147-1.909 2.147-2.992v-6.366c-.004 1.078-.721 2.16-2.147 2.983" opacity=".3"/><path fill="#fff" d="M192.795 130.93c1.641-.946 3.392-1.06 6.006-1.21 1.619-.092 2.53-.479 2.539-1.188v6.367c0 .717-.916 1.104-2.539 1.197-2.42.136-4.101.246-5.641 1.016-.123-.057-.246-.127-.365-.193-2.865-1.655-2.865-4.334 0-5.989M163.957 159.556c-2.864 1.654-7.506 1.654-10.371 0-1.425-.823-2.147-1.91-2.151-2.988v6.367c0 1.087.717 2.169 2.151 2.997 2.865 1.654 7.507 1.654 10.371 0 1.641-.951 1.839-1.963 2.099-3.472v-6.371c-.26 1.509-.458 2.521-2.099 3.467M194.827 157.33l-9.627 5.566v6.375l9.645-5.566c6.78-3.92 10.019-3.96 10.397-1.76v-6.384c-.396-2.209-3.634-2.147-10.415 1.769M224.391 140.267v6.366l-9.487 5.478c-.932-.149-1.98-.206-3.22-.281-3.828-.216-3.723-2.081 3.08-6.002l9.64-5.561z" opacity=".5"/><path fill="#F7921E" d="M192.795 130.93c1.646-.946 3.393-1.061 6.011-1.21 3.823-.216 3.718-2.086-3.08-6.002l-8.734-5.042-9.645 5.57c-6.785 3.916-6.891 5.782-3.08 6.002 2.613.149 4.365.264 6.006 1.21 2.864 1.654 2.864 4.334 0 5.988-2.865 1.655-7.502 1.655-10.371 0-1.641-.95-1.839-1.958-2.094-3.471-.379-2.2-3.617-2.143-10.398 1.76l-9.609 5.579 8.734 5.042c6.78 3.916 6.886 5.786 3.08 6.002-2.618.149-4.369.264-6.011 1.21-2.864 1.654-2.864 4.334 0 5.988 2.865 1.655 7.507 1.655 10.371 0 1.641-.95 1.839-1.958 2.099-3.467.374-2.2 3.608-2.152 10.393 1.76l8.734 5.047 9.645-5.566c6.78-3.916 10.018-3.96 10.397-1.76.259 1.509.44 2.521 2.099 3.467 2.864 1.654 7.502 1.654 10.37 0 2.869-1.654 2.865-4.334 0-5.988-1.645-.946-3.392-1.061-6.01-1.21-3.824-.216-3.722-2.086 3.08-6.002l9.645-5.57-8.734-5.038c-6.785-3.921-10.019-3.96-10.393-1.76-.26 1.509-.44 2.521-2.099 3.467-2.864 1.654-7.506 1.654-10.371 0-2.864-1.655-2.899-4.352-.035-6.006"/><path fill="#fff" d="M192.795 130.93c1.646-.946 3.393-1.061 6.011-1.21 3.823-.216 3.718-2.086-3.08-6.002l-8.734-5.042-9.645 5.57c-6.785 3.916-6.891 5.782-3.08 6.002 2.613.149 4.365.264 6.006 1.21 2.864 1.654 2.864 4.334 0 5.988-2.865 1.655-7.502 1.655-10.371 0-1.641-.95-1.839-1.958-2.094-3.471-.379-2.2-3.617-2.143-10.398 1.76l-9.609 5.579 8.734 5.042c6.78 3.916 6.886 5.786 3.08 6.002-2.618.149-4.369.264-6.011 1.21-2.864 1.654-2.864 4.334 0 5.988 2.865 1.655 7.507 1.655 10.371 0 1.641-.95 1.839-1.958 2.099-3.467.374-2.2 3.608-2.152 10.393 1.76l8.734 5.047 9.645-5.566c6.78-3.916 10.018-3.96 10.397-1.76.259 1.509.44 2.521 2.099 3.467 2.864 1.654 7.502 1.654 10.37 0 2.869-1.654 2.865-4.334 0-5.988-1.645-.946-3.392-1.061-6.01-1.21-3.824-.216-3.722-2.086 3.08-6.002l9.645-5.57-8.734-5.038c-6.785-3.921-10.019-3.96-10.393-1.76-.26 1.509-.44 2.521-2.099 3.467-2.864 1.654-7.506 1.654-10.371 0-2.864-1.655-2.899-4.352-.035-6.006" opacity=".7"/><path fill="#fff" d="m187.009 119.639 8.312 4.796c4.712 2.724 5.139 3.881 5.179 4.062-.08.07-.462.325-1.76.396-2.64.149-4.537.259-6.376 1.32-1.654.954-2.561 2.274-2.561 3.713s.907 2.755 2.561 3.709a12.28 12.28 0 0 0 11.198 0c2.006-1.157 2.248-2.56 2.499-4.048.049-.268.132-.774 1.259-.774s3.436.541 7.92 3.124l7.48 4.321-8.404 4.84c-5.72 3.3-6.226 4.84-5.971 5.891.352 1.488 2.552 1.615 3.273 1.655 2.724.154 4.211.277 5.641 1.104 1.122.643 1.76 1.452 1.76 2.275s-.616 1.628-1.76 2.275a10.63 10.63 0 0 1-9.539 0c-1.32-.77-1.456-1.479-1.694-2.891s-1.289-2.152-2.891-2.152c-1.953 0-4.897 1.122-8.738 3.34l-9.24 5.333-8.321-4.805c-3.841-2.2-6.78-3.344-8.734-3.344-1.606 0-2.64.788-2.89 2.156-.251 1.368-.361 2.121-1.694 2.891a10.64 10.64 0 0 1-9.544 0c-1.118-.647-1.734-1.457-1.734-2.275s.616-1.632 1.734-2.279c1.434-.827 2.922-.946 5.641-1.1.726-.04 2.921-.167 3.278-1.655.251-1.064-.26-2.596-5.971-5.891l-7.48-4.325 8.4-4.84c4.47-2.579 6.767-3.12 7.92-3.12s1.21.506 1.254.774c.255 1.488.492 2.891 2.499 4.048a12.28 12.28 0 0 0 11.198 0c1.654-.954 2.565-2.27 2.565-3.709s-.911-2.759-2.565-3.713c-1.839-1.065-3.74-1.171-6.376-1.32-1.293-.075-1.672-.33-1.76-.396.031-.185.44-1.32 5.183-4.062l9.24-5.328m0-.959-9.644 5.57c-6.785 3.916-6.891 5.782-3.08 6.002 2.613.149 4.364.264 6.006 1.21 2.864 1.654 2.864 4.334 0 5.988a11.44 11.44 0 0 1-10.371 0c-1.641-.95-1.839-1.958-2.095-3.471-.158-.933-.836-1.461-2.072-1.461-1.685 0-4.4.977-8.325 3.229l-9.618 5.571 8.734 5.042c6.78 3.916 6.886 5.786 3.08 6.002-2.618.149-4.369.264-6.011 1.21-2.864 1.654-2.864 4.334 0 5.988a11.44 11.44 0 0 0 10.371 0c1.641-.95 1.839-1.958 2.099-3.467.158-.937.832-1.465 2.072-1.465 1.686 0 4.4.972 8.321 3.229l8.734 5.043 9.645-5.566c3.907-2.257 6.639-3.234 8.324-3.234 1.241 0 1.914.528 2.073 1.465.259 1.509.44 2.521 2.099 3.467a11.44 11.44 0 0 0 10.37 0c2.865-1.654 2.865-4.334 0-5.988-1.645-.946-3.392-1.061-6.01-1.21-3.824-.216-3.722-2.086 3.08-6.002l9.645-5.57-8.734-5.038c-3.907-2.257-6.635-3.234-8.321-3.234-1.24 0-1.914.528-2.072 1.465-.26 1.509-.44 2.521-2.099 3.467a11.44 11.44 0 0 1-10.371 0c-2.864-1.654-2.864-4.334 0-5.988 1.646-.946 3.393-1.061 6.011-1.21 3.823-.216 3.718-2.086-3.08-6.002l-8.734-5.042z" opacity=".7"/><path fill="#F7921E" d="m166.377 107.095-8.584-4.959a7.8 7.8 0 0 0 2.798-.928c1.434-.827 2.147-1.91 2.147-2.992v-6.371c0-1.083-.713-2.165-2.147-2.992-2.864-1.655-7.506-1.655-10.371 0-1.641.95-1.839 1.958-2.094 3.467-.379 2.2-3.613 2.152-10.397-1.76l-8.734-5.042-9.645 5.566c-3.907 2.257-5.601 3.832-5.601 4.804v6.372c0 .712.915 1.104 2.538 1.196 2.425.137 4.106.247 5.65 1.017-2.882 1.461-7.264 1.399-10.01-.189-1.646-.946-1.844-1.958-2.099-3.468-.378-2.2-3.617-2.147-10.397 1.76l-9.645 5.571v6.367l8.8 5.09c6.728 3.868 9.935 3.916 10.309 1.721.26-1.514.44-2.521 2.099-3.472 2.75-1.588 7.128-1.645 10.01-.189-1.54.774-3.221.88-5.649 1.021-1.62.092-2.535.479-2.535 1.197v6.358c0 .963 1.668 2.525 5.513 4.756l8.8 5.091 9.667-5.557c6.781-3.912 10.019-3.96 10.397-1.76.26 1.509.44 2.516 2.099 3.467 2.865 1.654 7.507 1.654 10.371 0 1.426-.823 2.143-1.905 2.147-2.983s0-5.28 0-6.38-.717-2.165-2.147-2.992a7.8 7.8 0 0 0-2.798-.929l9.508-5.473z"/><path fill="#fff" d="M153.67 118.667c1.237.07 2.28.132 3.212.281l9.496-5.469v-6.384l-9.645 5.57c-6.785 3.916-6.886 5.782-3.063 6.002" opacity=".5"/><path fill="#fff" d="M122.281 98.296c-1.641-.95-3.393-1.065-6.006-1.21-1.646-.097-2.565-.498-2.539-1.233v6.403c0 .712.915 1.104 2.539 1.196 2.424.137 4.109.247 5.654 1.021a4 4 0 0 0 .352-.193c2.882-1.65 2.882-4.33 0-5.984" opacity=".3"/><path fill="#fff" d="M160.591 94.841c-1.641.946-3.392 1.06-6.01 1.21-3.824.216-3.718 2.086 3.08 6.002l.149.083a7.8 7.8 0 0 0 2.799-.928c1.434-.827 2.147-1.91 2.147-2.992v-6.371c.004 1.087-.73 2.169-2.165 2.996" opacity=".5"/><path fill="#fff" d="m98.604 113.242-8.8-5.091v6.367l8.8 5.091c6.727 3.868 9.935 3.916 10.309 1.72v-6.371c-.374 2.2-3.582 2.152-10.31-1.716" opacity=".3"/><path fill="#fff" d="M121.4 111.491c-2.864-1.655-7.506-1.655-10.371 0-1.641.946-1.839 1.958-2.098 3.467v6.371c.259-1.513.44-2.521 2.098-3.471 2.75-1.589 7.128-1.646 10.01-.19 0 0 .132-.061.361-.189 2.851-1.65 2.847-4.334 0-5.988" opacity=".15"/><path fill="#fff" d="M161.828 122.869c0 1.087-.717 2.169-2.147 2.996-2.865 1.655-7.507 1.655-10.371 0-1.646-.95-1.839-1.958-2.099-3.471v6.371c.26 1.509.44 2.517 2.099 3.467 2.864 1.654 7.506 1.654 10.371 0 1.425-.823 2.142-1.905 2.147-2.983s0-5.293 0-6.38" opacity=".3"/><path fill="#fff" d="m136.8 124.163-9.645 5.57v6.367l9.645-5.57c6.78-3.912 10.019-3.96 10.397-1.76v-6.376c-.365-2.209-3.603-2.147-10.397 1.769" opacity=".5"/><path fill="#fff" d="M118.351 124.643c-3.925-2.279-5.579-3.855-5.509-4.84v6.437c0 .964 1.668 2.526 5.513 4.756l8.8 5.091v-6.353z" opacity=".3"/><path fill="#F7921E" d="M150.22 88.84c-1.641.95-1.839 1.958-2.094 3.467-.379 2.2-3.613 2.152-10.397-1.76l-8.734-5.042-9.645 5.566c-6.785 3.92-6.891 5.786-3.08 6.006 2.613.145 4.365.26 6.006 1.21 2.869 1.654 2.869 4.334 0 5.984s-7.502 1.654-10.367 0c-1.645-.946-1.843-1.958-2.098-3.467-.379-2.2-3.617-2.148-10.398 1.76l-9.644 5.57 8.8 5.091c6.727 3.867 9.935 3.916 10.309 1.716.259-1.509.44-2.521 2.099-3.467 2.864-1.655 7.506-1.655 10.37 0 2.865 1.654 2.865 4.334 0 5.988-1.645.946-3.392 1.06-6.01 1.21-3.81.216-3.718 2.072 2.979 5.953l8.8 5.091 9.684-5.553c6.781-3.916 10.019-3.96 10.397-1.76.26 1.514.44 2.521 2.099 3.472 2.865 1.654 7.507 1.654 10.371 0 2.864-1.655 2.864-4.334 0-5.989-1.646-.946-3.392-1.06-6.01-1.21-3.824-.22-3.723-2.085 3.08-6.001l9.644-5.571-8.738-5.064c-6.78-3.916-6.886-5.786-3.08-6.002 2.618-.15 4.369-.263 6.01-1.21 2.865-1.654 2.865-4.334 0-5.988-2.864-1.654-7.493-1.641-10.353 0"/><path fill="#fff" d="M150.22 88.84c-1.641.95-1.839 1.958-2.094 3.467-.379 2.2-3.613 2.152-10.397-1.76l-8.734-5.042-9.645 5.566c-6.785 3.92-6.891 5.786-3.08 6.006 2.613.145 4.365.26 6.006 1.21 2.869 1.654 2.869 4.334 0 5.984s-7.502 1.654-10.367 0c-1.645-.946-1.843-1.958-2.098-3.467-.379-2.2-3.617-2.148-10.398 1.76l-9.644 5.57 8.8 5.091c6.727 3.867 9.935 3.916 10.309 1.716.259-1.509.44-2.521 2.099-3.467 2.864-1.655 7.506-1.655 10.37 0 2.865 1.654 2.865 4.334 0 5.988-1.645.946-3.392 1.06-6.01 1.21-3.81.216-3.718 2.072 2.979 5.953l8.8 5.091 9.684-5.553c6.781-3.916 10.019-3.96 10.397-1.76.26 1.514.44 2.521 2.099 3.472 2.865 1.654 7.507 1.654 10.371 0 2.864-1.655 2.864-4.334 0-5.989-1.646-.946-3.392-1.06-6.01-1.21-3.824-.22-3.723-2.085 3.08-6.001l9.644-5.571-8.738-5.064c-6.78-3.916-6.886-5.786-3.08-6.002 2.618-.15 4.369-.263 6.01-1.21 2.865-1.654 2.865-4.334 0-5.988-2.864-1.654-7.493-1.641-10.353 0" opacity=".7"/><path fill="#fff" d="m128.995 86.468 8.32 4.805c3.841 2.2 6.78 3.344 8.734 3.344 1.606 0 2.64-.788 2.891-2.156s.361-2.121 1.694-2.891a10.64 10.64 0 0 1 9.543 0c1.118.647 1.734 1.456 1.734 2.275 0 .818-.616 1.632-1.734 2.279-1.434.827-2.921.946-5.64 1.1-.722.04-2.922.167-3.278 1.654-.251 1.065.259 2.596 5.97 5.892l7.48 4.325-8.404 4.84c-5.72 3.296-6.226 4.84-5.97 5.892.352 1.487 2.552 1.615 3.273 1.654 2.724.154 4.211.273 5.641 1.1 1.122.647 1.738 1.457 1.738 2.275s-.616 1.632-1.738 2.279a10.66 10.66 0 0 1-9.539 0c-1.32-.77-1.457-1.478-1.694-2.891-.238-1.412-1.289-2.156-2.891-2.156-1.954 0-4.893 1.127-8.738 3.344l-9.24 5.329-8.404-4.84c-4.634-2.689-5.056-3.833-5.096-4.013.084-.07.44-.321 1.76-.396 2.64-.15 4.532-.26 6.376-1.32 1.654-.955 2.561-2.275 2.561-3.714 0-1.438-.907-2.754-2.561-3.709a12.28 12.28 0 0 0-11.198 0c-2.011 1.157-2.248 2.561-2.499 4.048-.049.269-.132.775-1.259.775s-3.405-.533-7.823-3.08l-7.572-4.374 8.4-4.84c4.47-2.578 6.767-3.12 7.919-3.12 1.153 0 1.21.502 1.254.775.256 1.483.493 2.886 2.5 4.048a12.288 12.288 0 0 0 11.202 0c1.65-.955 2.561-2.275 2.561-3.714s-.911-2.754-2.561-3.709c-1.844-1.065-3.744-1.17-6.376-1.32-1.32-.075-1.676-.33-1.76-.4.031-.185.44-1.32 5.184-4.057zm0-.955-9.645 5.566c-6.785 3.92-6.891 5.786-3.08 6.006 2.613.145 4.365.26 6.006 1.21 2.869 1.655 2.869 4.334 0 5.984a11.44 11.44 0 0 1-10.367 0c-1.645-.946-1.843-1.958-2.098-3.467-.159-.937-.836-1.465-2.073-1.465-1.685 0-4.4.977-8.325 3.234l-9.644 5.57 8.8 5.091c3.863 2.2 6.564 3.181 8.236 3.181 1.241 0 1.914-.528 2.073-1.465.259-1.509.44-2.521 2.099-3.467a11.44 11.44 0 0 1 10.37 0c2.865 1.654 2.865 4.334 0 5.988-1.645.946-3.392 1.061-6.01 1.21-3.81.216-3.718 2.073 2.979 5.953l8.8 5.091 9.684-5.57c3.907-2.253 6.64-3.23 8.325-3.23 1.241 0 1.914.528 2.072 1.461.26 1.514.44 2.521 2.099 3.472a11.45 11.45 0 0 0 10.371 0c2.864-1.655 2.864-4.334 0-5.989-1.646-.946-3.392-1.06-6.01-1.21-3.824-.22-3.723-2.085 3.08-6.001l9.644-5.571-8.738-5.055c-6.78-3.916-6.886-5.786-3.08-6.002 2.618-.15 4.369-.264 6.01-1.21 2.865-1.654 2.865-4.334 0-5.988a11.44 11.44 0 0 0-10.37 0c-1.642.95-1.84 1.958-2.095 3.467-.163.937-.836 1.465-2.077 1.465-1.68 0-4.4-.972-8.32-3.23l-8.734-5.042z" opacity=".7"/><path fill="#F7921E" d="m164.336 174.684-8.734-5.043c-6.785-3.916-10.019-3.96-10.393-1.76-.259 1.509-.44 2.521-2.099 3.467-2.75 1.589-7.128 1.65-10.01.19 1.54-.77 3.221-.88 5.65-1.017 1.619-.092 2.534-.484 2.534-1.197v-6.375c0-.973-1.689-2.552-5.596-4.809l-8.734-5.038-9.645 5.566c-6.781 3.916-10.019 3.96-10.397 1.76-.256-1.51-.44-2.522-2.099-3.468-2.865-1.654-7.502-1.654-10.367 0-1.434.828-2.151 1.91-2.151 2.992v6.367c0 1.083.717 2.169 2.151 2.997a7.9 7.9 0 0 0 2.799.924l-9.5 5.482v6.398l8.576 4.941a7.8 7.8 0 0 0-2.799.933c-1.43.827-2.147 1.909-2.147 2.992v6.366c0 1.083.717 2.17 2.147 2.997 2.865 1.65 7.507 1.65 10.371 0 1.641-.946 1.839-1.958 2.099-3.467.374-2.2 3.608-2.148 10.393 1.76l8.743 5.038 9.644-5.571c3.912-2.257 5.602-3.832 5.602-4.805v-6.366c0-.718-.916-1.105-2.539-1.197-2.425-.137-4.105-.247-5.645-1.021 2.877-1.456 7.26-1.399 10.01.189 1.641.951 1.839 1.958 2.094 3.472.378 2.2 3.617 2.143 10.397-1.76l9.645-5.571z"/><path fill="#fff" d="M154.691 180.254c-6.78 3.912-10.019 3.96-10.397 1.76v6.371c.378 2.2 3.617 2.143 10.397-1.76l9.645-5.57v-6.371zM132.743 171.34c.115.07.238.132.357.194 1.54-.775 3.221-.88 5.649-1.021 1.624-.093 2.535-.48 2.535-1.197v-6.367c0 .713-.911 1.1-2.535 1.193-2.618.149-4.364.264-6.006 1.214-2.868 1.65-2.868 4.334 0 5.984M140.373 186.96c0 .968-1.694 2.548-5.597 4.8l-9.649 5.571v6.349l9.649-5.57c3.907-2.258 5.597-3.833 5.597-4.805zM103.902 194c-2.865 1.654-7.507 1.654-10.371 0-1.43-.823-2.147-1.91-2.147-2.992v6.367c0 1.082.717 2.169 2.147 2.992 2.864 1.659 7.506 1.659 10.371 0 1.641-.946 1.839-1.958 2.094-3.467v-6.389c-.255 1.509-.435 2.521-2.094 3.489" opacity=".5"/><path fill="#fff" d="M142.199 178.551c-2.869-1.654-7.507-1.654-10.371 0-2.864 1.655-2.864 4.334 0 5.984.119.071.242.132.361.194 2.882-1.456 7.26-1.395 10.01.189 1.641.951 1.839 1.963 2.094 3.472v-6.371c-.255-1.51-.453-2.517-2.094-3.468M116.393 192.279c-6.785-3.916-10.014-3.96-10.397-1.76v6.367c.383-2.2 3.612-2.148 10.397 1.76l8.734 5.033v-6.358zM94.446 169.32a7.7 7.7 0 0 0 2.798.92l.145-.088c6.785-3.916 6.886-5.782 3.08-5.997-2.618-.15-4.364-.264-6.006-1.215-1.434-.827-2.151-1.909-2.151-2.992v6.367c-.018 1.096.7 2.165 2.134 3.005M99.537 186.779c3.828-.215 3.723-2.085-3.058-6.001l-8.734-5.043v6.385l8.576 4.941c.937-.145 1.984-.211 3.216-.282" opacity=".3"/><path fill="#F7921E" d="M132.74 165.356c1.645-.951 3.392-1.065 6.01-1.21 3.824-.22 3.718-2.09-3.08-6.002l-8.734-5.042-9.627 5.566c-6.781 3.916-10.019 3.96-10.397 1.76-.256-1.51-.44-2.522-2.099-3.468-2.865-1.654-7.502-1.654-10.367 0-2.864 1.655-2.868 4.33 0 5.984 1.642.951 3.393 1.065 6.006 1.215 3.828.215 3.723 2.081-3.08 6.001l-9.644 5.566 8.751 5.074c6.781 3.916 6.886 5.786 3.08 6.001-2.618.15-4.37.264-6.01 1.215-2.865 1.65-2.865 4.329 0 5.984 2.864 1.654 7.506 1.654 10.371 0 1.641-.946 1.839-1.958 2.098-3.468.374-2.2 3.608-2.151 10.393 1.76l8.734 5.043 9.645-5.571c6.785-3.916 6.89-5.786 3.08-6.001-2.614-.15-4.365-.264-6.006-1.21-2.864-1.655-2.864-4.334 0-5.989 2.864-1.654 7.506-1.654 10.371 0 1.641.946 1.839 1.958 2.094 3.468.379 2.2 3.617 2.147 10.397-1.76l9.645-5.571-8.734-5.042c-6.785-3.916-10.019-3.96-10.393-1.76-.259 1.509-.44 2.521-2.098 3.467-2.865 1.654-7.507 1.654-10.371 0s-2.9-4.356-.035-6.01"/><path fill="#fff" d="M132.74 165.356c1.645-.951 3.392-1.065 6.01-1.21 3.824-.22 3.718-2.09-3.08-6.002l-8.734-5.042-9.627 5.566c-6.781 3.916-10.019 3.96-10.397 1.76-.256-1.51-.44-2.522-2.099-3.468-2.865-1.654-7.502-1.654-10.367 0-2.864 1.655-2.868 4.33 0 5.984 1.642.951 3.393 1.065 6.006 1.215 3.828.215 3.723 2.081-3.08 6.001l-9.644 5.566 8.751 5.074c6.781 3.916 6.886 5.786 3.08 6.001-2.618.15-4.37.264-6.01 1.215-2.865 1.65-2.865 4.329 0 5.984 2.864 1.654 7.506 1.654 10.371 0 1.641-.946 1.839-1.958 2.098-3.468.374-2.2 3.608-2.151 10.393 1.76l8.734 5.043 9.645-5.571c6.785-3.916 6.89-5.786 3.08-6.001-2.614-.15-4.365-.264-6.006-1.21-2.864-1.655-2.864-4.334 0-5.989 2.864-1.654 7.506-1.654 10.371 0 1.641.946 1.839 1.958 2.094 3.468.379 2.2 3.617 2.147 10.397-1.76l9.645-5.571-8.734-5.042c-6.785-3.916-10.019-3.96-10.393-1.76-.259 1.509-.44 2.521-2.098 3.467-2.865 1.654-7.507 1.654-10.371 0s-2.9-4.356-.035-6.01" opacity=".7"/><path fill="#fff" d="m126.954 154.056 8.32 4.805c4.712 2.719 5.139 3.877 5.179 4.061-.079.066-.462.322-1.76.396-2.64.15-4.537.256-6.376 1.32-1.654.955-2.561 2.271-2.561 3.71 0 1.438.907 2.758 2.561 3.713a12.28 12.28 0 0 0 11.198 0c2.007-1.161 2.249-2.565 2.499-4.048.049-.273.132-.779 1.259-.779s3.436.546 7.92 3.124l7.48 4.326-8.404 4.84c-4.471 2.582-6.767 3.124-7.92 3.124s-1.21-.506-1.254-.775c-.255-1.487-.493-2.891-2.499-4.048a12.28 12.28 0 0 0-11.198 0c-1.655.955-2.566 2.271-2.566 3.709s.911 2.759 2.566 3.714c1.839 1.06 3.74 1.17 6.375 1.32 1.294.075 1.672.33 1.76.396-.031.185-.44 1.32-5.183 4.061l-9.24 5.329-8.32-4.801c-3.842-2.2-6.781-3.344-8.734-3.344-1.606 0-2.64.783-2.891 2.152-.251 1.368-.361 2.121-1.694 2.891a10.64 10.64 0 0 1-9.544 0c-1.118-.647-1.734-1.452-1.734-2.275s.617-1.633 1.734-2.275c1.435-.827 2.922-.946 5.64-1.104.727-.04 2.923-.163 3.279-1.655.251-1.06-.26-2.591-5.97-5.891l-7.48-4.326 8.399-4.84c5.72-3.3 6.226-4.84 5.971-5.896-.352-1.487-2.552-1.61-3.274-1.65-2.724-.158-4.21-.277-5.64-1.104-1.118-.642-1.734-1.452-1.734-2.275s.616-1.632 1.733-2.275a10.63 10.63 0 0 1 9.539 0c1.32.77 1.457 1.479 1.694 2.891.238 1.413 1.29 2.152 2.891 2.152 1.958 0 4.897-1.122 8.739-3.344zm0-.954-9.645 5.566c-3.907 2.257-6.64 3.234-8.325 3.234-1.241 0-1.914-.528-2.072-1.466-.256-1.509-.44-2.521-2.099-3.467a11.44 11.44 0 0 0-10.367 0c-2.868 1.655-2.868 4.33 0 5.984 1.642.951 3.393 1.065 6.006 1.215 3.828.215 3.723 2.081-3.08 6.001l-9.644 5.566 8.751 5.065c6.781 3.916 6.886 5.786 3.08 6.001-2.618.15-4.37.264-6.01 1.215-2.865 1.65-2.865 4.329 0 5.984a11.45 11.45 0 0 0 10.371 0c1.641-.946 1.839-1.958 2.098-3.468.159-.937.832-1.465 2.073-1.465 1.681 0 4.4.977 8.32 3.234l8.734 5.043 9.645-5.571c6.785-3.916 6.89-5.786 3.08-6.001-2.614-.15-4.365-.264-6.006-1.21-2.864-1.655-2.864-4.334 0-5.989a11.44 11.44 0 0 1 10.371 0c1.641.946 1.839 1.958 2.094 3.467.163.938.836 1.466 2.073 1.466 1.685 0 4.4-.977 8.324-3.23l9.645-5.57-8.734-5.043c-3.907-2.257-6.635-3.234-8.32-3.234-1.241 0-1.914.528-2.073 1.465-.259 1.51-.44 2.522-2.098 3.468a11.46 11.46 0 0 1-10.371 0c-2.865-1.65-2.865-4.33 0-5.984 1.645-.951 3.392-1.065 6.01-1.21 3.824-.22 3.718-2.09-3.08-6.006l-8.734-5.038z" opacity=".7"/><path fill="#F7921E" d="m106.44 141.256-8.584-4.958a7.9 7.9 0 0 0 2.794-.929c1.434-.827 2.152-1.914 2.152-2.996v-6.367c0-1.082-.718-2.165-2.152-2.992-2.864-1.654-7.502-1.654-10.366 0-1.646.946-1.844 1.958-2.1 3.467-.373 2.2-3.585 2.147-10.308-1.72l-8.8-5.091-9.667 5.57c-6.78 3.916-10.015 3.96-10.393 1.76-.26-1.509-.44-2.521-2.099-3.471-2.864-1.655-7.506-1.655-10.37 0-1.43.827-2.148 1.914-2.148 2.996v6.367c0 1.082.717 2.165 2.147 2.992a7.8 7.8 0 0 0 2.799.933l-9.495 5.491v6.371l8.73 5.043c6.784 3.916 10.018 3.96 10.396 1.76.26-1.51.44-2.522 2.1-3.468 2.745-1.588 7.127-1.65 10.01-.189-1.545.77-3.226.88-5.65 1.017-1.624.092-2.535.484-2.535 1.196v6.372c0 .972 1.694 2.547 5.597 4.804l8.734 5.043 9.645-5.571c3.911-2.257 5.601-3.836 5.601-4.809v-6.362c0-.717-.915-1.105-2.539-1.197-2.424-.141-4.105-.251-5.65-1.021 2.883-1.456 7.265-1.399 10.01.189 1.646.946 1.84 1.958 2.1 3.468.378 2.2 3.616 2.147 10.397-1.76l9.644-5.571z"/><path fill="#fff" d="M96.796 146.823c-6.78 3.916-10.02 3.96-10.398 1.76v6.367c.379 2.2 3.617 2.147 10.398-1.76l9.644-5.566v-6.367zM82.478 153.52v-.053c.062.968-1.615 2.556-5.597 4.84l-9.645 5.566v6.371l9.645-5.57c3.912-2.258 5.601-3.837 5.601-4.81-.008-.695-.008-5.372-.004-6.344M100.65 128.999c-1.641.95-3.393 1.065-6.006 1.214-3.81.216-3.718 2.068 2.974 5.949l.238.136a7.8 7.8 0 0 0 2.794-.928c1.434-.827 2.151-1.914 2.151-2.996v-6.367c0 1.082-.717 2.165-2.151 2.992M61.446 145.648c-2.869-1.654-7.506-1.654-10.37 0-1.646.95-1.84 1.962-2.1 3.472v6.366c.26-1.509.44-2.521 2.1-3.467 2.745-1.588 7.127-1.65 10.01-.189l.36-.194c2.865-1.636 2.865-4.334 0-5.988" opacity=".5"/><path fill="#fff" d="M84.3 145.125c-2.864-1.655-7.502-1.655-10.37 0-2.87 1.654-2.865 4.334 0 5.984l.36.193c2.882-1.456 7.264-1.399 10.01.189 1.646.946 1.84 1.958 2.099 3.468v-6.367c-.26-1.509-.453-2.521-2.099-3.467M58.48 158.848c-3.982-2.297-5.658-3.89-5.592-4.84a.2.2 0 0 0 0 .053v6.371c0 .972 1.694 2.547 5.596 4.805l8.734 5.042v-6.389zM38.58 147.36l-8.73-5.051v6.371l8.73 5.042c6.784 3.916 10.018 3.96 10.396 1.76v-6.362c-.378 2.2-3.612 2.147-10.397-1.76M42.557 130.736c-2.64-.145-4.365-.259-6.01-1.21-1.43-.827-2.148-1.909-2.148-2.992v6.367c0 1.082.718 2.165 2.148 2.992a7.8 7.8 0 0 0 2.798.933l.15-.088c6.784-3.899 6.886-5.782 3.062-6.002" opacity=".3"/><path fill="#F7921E" d="M90.284 123.014c-1.646.946-1.844 1.958-2.1 3.467-.373 2.2-3.585 2.147-10.308-1.72l-8.8-5.091-9.667 5.57c-6.78 3.916-10.015 3.96-10.393 1.76-.26-1.509-.44-2.521-2.099-3.471-2.864-1.655-7.506-1.655-10.37 0-2.865 1.654-2.865 4.334 0 5.988 1.645.951 3.392 1.065 6.01 1.21 3.823.22 3.722 2.086-3.08 6.002l-9.627 5.579 8.73 5.051c6.784 3.916 10.018 3.96 10.396 1.76.26-1.509.44-2.521 2.1-3.471 2.864-1.655 7.48-1.655 10.37 0 2.89 1.654 2.864 4.334 0 5.988-1.646.95-3.392 1.065-6.01 1.21-3.824.22-3.718 2.09 3.08 6.002l8.734 5.042 9.644-5.566c6.785-3.92 6.886-5.786 3.08-6.002-2.64-.149-4.364-.264-6.01-1.214-2.864-1.65-2.864-4.33 0-5.984s7.506-1.654 10.37 0c1.646.946 1.84 1.958 2.1 3.467.378 2.2 3.616 2.147 10.397-1.76l9.609-5.575-8.8-5.095c-6.692-3.881-6.784-5.72-2.974-5.949 2.614-.149 4.365-.264 6.006-1.214 2.869-1.654 2.869-4.33 0-5.984s-7.524-1.654-10.388 0"/><path fill="#fff" d="M90.284 123.014c-1.646.946-1.844 1.958-2.1 3.467-.373 2.2-3.585 2.147-10.308-1.72l-8.8-5.091-9.667 5.57c-6.78 3.916-10.015 3.96-10.393 1.76-.26-1.509-.44-2.521-2.099-3.471-2.864-1.655-7.506-1.655-10.37 0-2.865 1.654-2.865 4.334 0 5.988 1.645.951 3.392 1.065 6.01 1.21 3.823.22 3.722 2.086-3.08 6.002l-9.627 5.579 8.73 5.051c6.784 3.916 10.018 3.96 10.396 1.76.26-1.509.44-2.521 2.1-3.471 2.864-1.655 7.48-1.655 10.37 0 2.89 1.654 2.864 4.334 0 5.988-1.646.95-3.392 1.065-6.01 1.21-3.824.22-3.718 2.09 3.08 6.002l8.734 5.042 9.644-5.566c6.785-3.92 6.886-5.786 3.08-6.002-2.64-.149-4.364-.264-6.01-1.214-2.864-1.65-2.864-4.33 0-5.984s7.506-1.654 10.37 0c1.646.946 1.84 1.958 2.1 3.467.378 2.2 3.616 2.147 10.397-1.76l9.609-5.575-8.8-5.095c-6.692-3.881-6.784-5.72-2.974-5.949 2.614-.149 4.365-.264 6.006-1.214 2.869-1.654 2.869-4.33 0-5.984s-7.524-1.654-10.388 0" opacity=".7"/><path fill="#fff" d="m69.04 120.629 8.404 4.84c3.802 2.2 6.71 3.291 8.65 3.291 1.602 0 2.64-.783 2.892-2.151.25-1.369.36-2.121 1.694-2.891a10.62 10.62 0 0 1 9.539 0c1.117.647 1.733 1.452 1.733 2.275s-.616 1.632-1.733 2.275c-1.43.827-2.917.946-5.641 1.104-.722.04-2.917.163-3.274 1.65-.25 1.056.251 2.578 5.883 5.843l7.577 4.378-8.404 4.84c-4.466 2.579-6.763 3.124-7.92 3.124s-1.21-.506-1.254-.779c-.255-1.482-.493-2.886-2.504-4.043a12.24 12.24 0 0 0-11.198 0c-1.65.95-2.56 2.27-2.56 3.709s.91 2.759 2.56 3.714c1.844 1.06 3.745 1.17 6.376 1.32 1.32.07 1.676.325 1.76.396-.03.184-.44 1.32-5.183 4.061l-9.24 5.328-8.277-4.783c-4.712-2.719-5.139-3.88-5.178-4.061.079-.07.462-.321 1.76-.396 2.64-.149 4.532-.255 6.375-1.32 1.65-.955 2.561-2.27 2.561-3.709s-.91-2.759-2.56-3.714a11.4 11.4 0 0 0-5.598-1.35 11.4 11.4 0 0 0-5.596 1.35c-2.011 1.162-2.249 2.566-2.504 4.048-.044.273-.132.775-1.254.775s-3.44-.541-7.92-3.12l-7.48-4.325 8.404-4.84c5.72-3.296 6.226-4.84 5.97-5.892-.351-1.487-2.551-1.61-3.273-1.654-2.723-.154-4.21-.273-5.645-1.1-1.118-.647-1.734-1.452-1.734-2.275s.616-1.632 1.734-2.275a9.7 9.7 0 0 1 4.774-1.13 9.7 9.7 0 0 1 4.77 1.13c1.32.766 1.452 1.479 1.694 2.891.242 1.413 1.267 2.156 2.868 2.156 1.954 0 4.893-1.126 8.739-3.344l9.24-5.328m0-.959-9.658 5.552c-3.903 2.258-6.635 3.234-8.32 3.234-1.241 0-1.915-.528-2.073-1.465-.26-1.509-.44-2.521-2.099-3.471a10.6 10.6 0 0 0-5.183-1.259 10.6 10.6 0 0 0-5.188 1.241c-2.864 1.654-2.864 4.334 0 5.988 1.646.951 3.393 1.065 6.01 1.21 3.824.22 3.723 2.086-3.08 6.002l-9.626 5.588 8.73 5.051c3.91 2.257 6.639 3.234 8.324 3.234 1.24 0 1.914-.528 2.072-1.465.26-1.509.44-2.521 2.1-3.472a10.6 10.6 0 0 1 5.204-1.249 10.6 10.6 0 0 1 5.188 1.241c2.864 1.654 2.864 4.334 0 5.988-1.646.95-3.392 1.065-6.01 1.21-3.824.22-3.718 2.09 3.08 6.002l8.734 5.042 9.644-5.566c6.785-3.92 6.886-5.786 3.08-6.002-2.64-.149-4.364-.264-6.01-1.214-2.864-1.65-2.864-4.33 0-5.984a11.44 11.44 0 0 1 10.37 0c1.646.946 1.84 1.958 2.1 3.467.158.937.831 1.465 2.072 1.465 1.685 0 4.4-.976 8.325-3.234l9.587-5.566-8.8-5.095c-6.692-3.881-6.784-5.72-2.974-5.949 2.614-.149 4.365-.264 6.006-1.214 2.869-1.654 2.869-4.33 0-5.984a11.44 11.44 0 0 0-10.366 0c-1.646.946-1.844 1.958-2.1 3.467-.158.937-.83 1.465-2.072 1.465-1.672 0-4.373-.963-8.236-3.185l-8.8-5.091z" opacity=".7"/><path fill="#37474F" d="M30.94 91.696V62.801l51.832-29.863.784.45V62.22"/><path fill="#455A64" d="M31.72 63.254v28.89L83.552 62.22l.004-28.833z"/><path fill="#FAFAFA" d="M44.545 62.097a.2.2 0 0 1 .255 0 .44.44 0 0 1 .106.33v2.2a1.05 1.05 0 0 1-.106.44.7.7 0 0 1-.255.313L42.2 66.753v10.56c-.004.152-.04.302-.106.44a.63.63 0 0 1-.255.308l-1.76 1.012a.194.194 0 0 1-.255 0 .44.44 0 0 1-.106-.33v-10.56l-2.358 1.36a.194.194 0 0 1-.255 0 .44.44 0 0 1-.11-.33v-2.2c.005-.154.042-.304.11-.44a.67.67 0 0 1 .255-.313zM53.82 67.87a.19.19 0 0 1 .251 0 .44.44 0 0 1 .11.33v2.2c-.003.153-.04.303-.11.44a.66.66 0 0 1-.25.312l-6.341 3.674a.194.194 0 0 1-.255 0 .44.44 0 0 1-.106-.33V61.17c.004-.153.04-.303.106-.44a.66.66 0 0 1 .255-.308l6.235-3.604a.2.2 0 0 1 .255 0 .44.44 0 0 1 .11.343v2.2c-.004.153-.04.303-.106.44a.66.66 0 0 1-.255.308l-4.118 2.38v2.227l3.823-2.2a.194.194 0 0 1 .256 0 .44.44 0 0 1 .105.33v2.2c-.003.153-.04.303-.105.44a.65.65 0 0 1-.256.313l-3.823 2.2v2.31zM61.675 52.206c.176-.102.312-.106.409 0 .093.095.16.214.194.343l2.917 11.295q.045.135.053.277a.9.9 0 0 1-.088.37.55.55 0 0 1-.207.255l-1.685.972q-.27.156-.383.048a.5.5 0 0 1-.141-.26l-.374-1.495-3.56 2.055-.374 1.927a1.6 1.6 0 0 1-.14.44.9.9 0 0 1-.383.396l-1.685.972a.16.16 0 0 1-.207 0 .37.37 0 0 1-.088-.268 2 2 0 0 1 .053-.344l2.934-14.704q.067-.292.194-.563c.088-.185.231-.34.41-.44zm-2.17 10.256 2.17-1.25-1.083-4.32zM71.24 57.464a.9.9 0 0 1-.18-.233L69.8 54.556v6.82a1.05 1.05 0 0 1-.106.44.67.67 0 0 1-.255.312l-1.76 1.012a.194.194 0 0 1-.255 0 .44.44 0 0 1-.11-.33V49.495c.005-.152.043-.302.11-.44a.67.67 0 0 1 .255-.312l1.55-.88c.18-.101.311-.101.404 0q.098.106.171.229l2.17 4.457 2.169-6.96c.026-.084.083-.225.171-.44a.95.95 0 0 1 .4-.44l1.554-.88a.194.194 0 0 1 .255 0 .44.44 0 0 1 .106.33v13.27c-.003.152-.04.302-.106.44a.7.7 0 0 1-.255.312l-1.76 1.012a.2.2 0 0 1-.255 0 .44.44 0 0 1-.106-.33V52.04L72.89 56.16a4 4 0 0 1-.18.44.77.77 0 0 1-.317.357l-.854.497c-.11.08-.216.084-.3.009"/><path fill="#263238" d="M30.94 62.8v28.896l.78.448v-28.89z"/><path fill="#F7921E" d="m82.777 39.772-.577.281-.026-.783-.572.281-.026-.778-.572.281-.031-.779-.572.278-.027-.78-.572.282-.03-.778 3.45-6.688.571-.277.026.778.577-.281.026.778.572-.281.027.779.576-.277.027.778.572-.281.026.779z"/><path fill="#fff" d="m82.777 39.772-.577.281-.026-.783-.572.281-.026-.778-.572.281-.031-.779-.572.278-.027-.78-.572.282-.03-.778 3.45-6.688.571-.277.026.778.577-.281.026.778.572-.281.027.779.576-.277.027.778.572-.281.026.779z" opacity=".8"/><path fill="#F7921E" d="m26.752 61.565-.154-.718.54-.096-.153-.718.541-.092-.154-.717.541-.097-.154-.717.541-.093-.15-.717.542-.092 6.385 5.711.154.717-.542.093.154.717-.54.097.153.717-.546.092.155.717-.542.097.154.717-.54.093z"/><path fill="#fff" d="m26.752 61.565-.154-.718.54-.096-.153-.718.541-.092-.154-.717.541-.097-.154-.717.541-.093-.15-.717.542-.092 6.385 5.711.154.717-.542.093.154.717-.54.097.153.717-.546.092.155.717-.542.097.154.717-.54.093z" opacity=".8"/><path fill="#B16668" d="M178.864 140.953c-.053-1.1-.497-12.171-.497-12.171l5.218 4.079c-.959 6.31-1.32 7.999-1.377 9.055a.9.9 0 0 1 .022.269c-.04 1.254-1.474 1.887-2.6 2.692a20.7 20.7 0 0 1-3.041 1.862c-.814.378-2.442.369-2.64-.15 1.369-.99 2.957-2.064 4.057-3.203.541-.546.92-1.118.858-2.433"/><path fill="#263238" d="M171.635 147.87a1.07 1.07 0 0 0 .167 1.087 4.6 4.6 0 0 0 3.353.88 5.85 5.85 0 0 0 3.286-1.202c.687-.541 1.646-1.32 2.407-1.447a4.6 4.6 0 0 0 1.712-.643c.233-.211.229-1.179.229-1.179z"/><path fill="#37474F" d="M182.23 141.608c.061.005.12.031.165.073a.27.27 0 0 1 .081.161c.044.268.075 1.042.176 1.482.151.776.183 1.569.097 2.354-.106.493-1.263.806-2.002 1.065a9.2 9.2 0 0 0-2.42 1.43 6.7 6.7 0 0 1-3.568 1.215c-1.29-.049-2.733-.506-3.05-1.114-.387-.752-.052-1.174 1.884-2.006.369-.158 1.663-.88 2.103-1.135 1.197-.704 2.389-1.699 2.965-2.992a.73.73 0 0 1 .286-.392.6.6 0 0 1 .374-.022c.318.055.625.157.911.304.255.132.616.281.603.611a1.3 1.3 0 0 1-.084.335c-.026.066-.044.154 0 .193s.128 0 .181-.044q.288-.28.532-.602.137-.17.313-.3.173-.093.334-.206c.132-.11.11-.256.119-.41"/><path fill="#455A64" d="M178.327 148.173q.515-.404 1.069-.752s-2.292 1.32-3.181.655a.81.81 0 0 1-.264-1.047c0-.158-1.408-.88-1.976-.946-.162.084-.294.15-.382.185-1.936.831-2.271 1.254-1.884 2.006.317.607 1.356 1.105 3.028 1.153a6.9 6.9 0 0 0 3.59-1.254"/><path fill="#263238" d="M176.118 146.58c-1.201.44-.699.678-.369.735s2.371-1.056 3.621-1.989c1.25-.932 2.134-2.05 2.618-2.406.18-.132.378-.295.55-.44-.022-.264-.04-.502-.062-.63a.268.268 0 0 0-.246-.233c0 .154 0 .299-.106.409a3 3 0 0 1-.334.207 1.7 1.7 0 0 0-.312.299 5 5 0 0 1-.533.603 15.5 15.5 0 0 1-4.827 3.445"/><path fill="#F0F0F0" d="M175.841 147.144a.13.13 0 0 0 .063-.017.1.1 0 0 0 .044-.048.1.1 0 0 0 .013-.063.12.12 0 0 0-.023-.061 2.83 2.83 0 0 0-2.156-.924.112.112 0 0 0-.081.041.122.122 0 0 0-.029.086.1.1 0 0 0 .013.045.107.107 0 0 0 .069.057q.022.007.046.004a2.65 2.65 0 0 1 1.949.832q.015.023.04.035a.1.1 0 0 0 .052.013M176.897 146.532a.1.1 0 0 0 .04-.003.1.1 0 0 0 .035-.019.1.1 0 0 0 .03-.035.12.12 0 0 0-.008-.132 2.9 2.9 0 0 0-.979-.692 2.9 2.9 0 0 0-1.177-.228.12.12 0 0 0-.08.04.113.113 0 0 0 .011.165q.017.015.04.023a.1.1 0 0 0 .046.006 2.64 2.64 0 0 1 1.949.831.1.1 0 0 0 .041.034.1.1 0 0 0 .052.01M177.953 145.96a.122.122 0 0 0 .118-.132.1.1 0 0 0-.021-.061 2.84 2.84 0 0 0-2.156-.92.1.1 0 0 0-.052.001.14.14 0 0 0-.047.024.1.1 0 0 0-.032.041.1.1 0 0 0-.011.051q0 .026.011.05a.1.1 0 0 0 .032.041.14.14 0 0 0 .047.024 2.65 2.65 0 0 1 2.001.833.127.127 0 0 0 .11.048M178.934 145.295a.11.11 0 0 0 .075-.026.1.1 0 0 0 .031-.034.1.1 0 0 0 .014-.043.1.1 0 0 0-.003-.045.1.1 0 0 0-.02-.041 2.83 2.83 0 0 0-2.156-.924.125.125 0 0 0-.082.041.1.1 0 0 0-.022.041.12.12 0 0 0 .006.09.1.1 0 0 0 .029.036q.018.015.041.022.022.006.046.003a2.65 2.65 0 0 1 1.949.832q.016.023.04.035a.1.1 0 0 0 .052.013M179.92 144.631a.14.14 0 0 0 .07-.022.12.12 0 0 0 .048-.078.1.1 0 0 0-.001-.047.1.1 0 0 0-.02-.042 2.89 2.89 0 0 0-2.359-.937.12.12 0 0 0-.066.047.12.12 0 0 0 .014.152q.031.03.074.034a2.68 2.68 0 0 1 2.147.845.118.118 0 0 0 .093.048"/><path fill="#B16668" d="m189.771 132.865 5.109-.514c.215 3.542-.022 7.515.158 10.841.035.625.418 4.84.286 6.16-.193 1.963-2.508 1.888-2.723.744-.216-1.144-.357-6.103-.405-6.6-.159-2.13-1.14-4.792-1.98-8.567-.062-.207-.405-1.883-.445-2.064"/><path fill="#263238" d="M191.8 150.968a5.24 5.24 0 0 0 .598 2.569 1.67 1.67 0 0 0 1.923.717c.774-.18 1.76-.686 2.011-1.663a6.3 6.3 0 0 0 .052-2.71z"/><path fill="#37474F" d="M194.994 142.788c.317.026.387 1.558.541 3.08.168 1.646.643 2.332.797 3.678.171 1.54.079 2.222-.475 3.142-.555.92-2.478 1.795-3.393.44-.743-1.096-.752-2.301-.655-3.832q.17-1.948.14-3.903c-.044-1.149-.101-2.266.176-2.389 0 .171.036.387.053.55.018.162.04.752.216.761a3 3 0 0 0 0-.44.49.49 0 0 1 .092-.37.6.6 0 0 1 .357-.154 10 10 0 0 1 .946-.127q.237-.013.475 0 .205 0 .4.066a.291.291 0 0 1 .172.158.6.6 0 0 1 0 .176q-.003.16.035.317c0 .044.04.101.084.092s.052-.057.057-.092c0-.185 0-.321-.022-.537v-.334c0-.097.013-.185.004-.282"/><path fill="#455A64" d="M196.266 149.119c.026.225.189 1.694-.216 1.949s-.651-.88-.651-.88a3.87 3.87 0 0 0-2.499.291c.074.237-.168 1.016-.572.845-.405-.172-.528-1.857-.528-1.879-.088 1.469-.058 2.64.664 3.7.915 1.347 2.838.471 3.392-.44.555-.911.647-1.601.476-3.141a6 6 0 0 0-.066-.445"/><path fill="#263238" d="M195.28 150.281c0 .559.546.379.585-.405.04-.783-.356-2.64-.33-3.999-.154-1.531-.22-3.08-.541-3.08v.053l.027.778v.335c0 1.131.105 3.322.184 4.36q.091.977.075 1.958M193.071 150.466a19 19 0 0 1-.268-1.954c-.088-1.029-.326-3.181-.524-4.307a3 3 0 0 1-.101-.634c0-.154-.031-.348-.048-.515a.05.05 0 0 1 0-.031c-.203.093-.225.704-.207 1.474q.047.66.18 1.664c.247 1.32.163 3.242.326 4.008s.739.84.642.295"/><path fill="#F0F0F0" d="M192.869 150.523h.044a3.75 3.75 0 0 1 2.451-.211.12.12 0 0 0 .078-.02.11.11 0 0 0 .049-.065.13.13 0 0 0-.005-.081.13.13 0 0 0-.056-.059 3.9 3.9 0 0 0-2.64.225.12.12 0 0 0-.059.068.12.12 0 0 0 .006.09.12.12 0 0 0 .132.053M192.627 149.313h.039a4.66 4.66 0 0 1 2.746-.233q.022.005.045.002a.11.11 0 0 0 .076-.045.1.1 0 0 0 .02-.041.12.12 0 0 0-.012-.09.12.12 0 0 0-.072-.055 4.84 4.84 0 0 0-2.904.251.116.116 0 0 0-.057.154q.018.03.051.046.032.015.068.011M195.355 147.923a.12.12 0 0 0 .098-.169.11.11 0 0 0-.068-.06 4.07 4.07 0 0 0-2.899.22.12.12 0 0 0-.05.069.116.116 0 0 0 .071.141.12.12 0 0 0 .084.001 3.9 3.9 0 0 1 2.711-.211q.025.01.053.009M195.293 146.84a.1.1 0 0 0 .061-.021.1.1 0 0 0 .036-.053.12.12 0 0 0 0-.09.1.1 0 0 0-.027-.037.1.1 0 0 0-.039-.023 3.648 3.648 0 0 0-2.957.211.1.1 0 0 0-.034.03.118.118 0 0 0 .153.173 3.46 3.46 0 0 1 2.754-.194.1.1 0 0 0 .053.004"/><path fill="#EBEBEB" d="M195.219 145.626a.114.114 0 0 0 .031-.224 3.8 3.8 0 0 0-2.975.242.116.116 0 0 0-.065.071q-.009.023-.006.049a.12.12 0 0 0 .091.105.1.1 0 0 0 .049.001.1.1 0 0 0 .046-.019 3.61 3.61 0 0 1 2.772-.229.1.1 0 0 0 .057.004"/><path fill="#37474F" d="M192.055 99.734c.972 2.345 2.041 3.991 2.09 8.36.114 9.319-.11 16.042-.11 16.042.048.823.44.379.924 4.62.244 2.72.312 5.452.202 8.18 0 0-2.394 1.205-4.576.273-.818-3.045-2.235-8.497-3.12-12.567-.8-3.696-1.557-9.103-1.557-9.103l-1.553 9.094c.118 1.382.13 2.771.035 4.154-.185 2.499-1.479 8.672-1.479 8.672s-2.455 1.026-4.316-.409c0 0-.704-10.12-.673-13.147.066-5.918.374-19.386 1.645-24.539z"/><path fill="#455A64" d="M195.294 136.064c-.902.546-3.749.88-4.959.388l.317 1.438s.545.401 2.226.335 2.35-.748 2.35-.748zM183.189 136.254c-.968.44-3.608.378-4.748-.251l.132 1.465s.383.559 2.064.616 2.301-.44 2.301-.44z"/><path fill="#263238" d="m185.908 115.552-.88-6.6s-3.92-.537-5.324-1.936c0 0 1.76 2.574 4.4 3.036l1.021 5.473-.753 9.038z"/><path fill="#874C4C" d="M183.396 84.594c-1.677 0-2.777.273-4.259 2.706s-3.833 6.265-3.833 6.265l-6.358 2.64.524 3.793s4.453-1.162 7.04-2.165c1.1-.44 1.716-.8 2.09-1.355.312-.44 3.348-4.334 3.348-4.334z"/><path fill="#F7921E" d="m188.029 84.603 2.2.268c1.461.379 2.112 1.034 2.244 2.332.25 1.404.202 2.844-.141 4.228-.488 1.818-.774 5.971-.774 5.971a36.6 36.6 0 0 1 2.169 6.785c-5.254 3.318-12.958 2.288-15.083.203.295-2.126.708-4.339.88-6.068a32 32 0 0 0-.145-3.96 4.004 4.004 0 0 1-.726-4.928c1.804-2.724 4.074-4.862 4.738-4.84z"/><path fill="#fff" d="m188.029 84.603 2.2.268c1.461.379 2.112 1.034 2.244 2.332.25 1.404.202 2.844-.141 4.228-.488 1.818-.774 5.971-.774 5.971a36.6 36.6 0 0 1 2.169 6.785c-5.254 3.318-12.958 2.288-15.083.203.295-2.126.708-4.339.88-6.068a32 32 0 0 0-.145-3.96 4.004 4.004 0 0 1-.726-4.928c1.804-2.724 4.074-4.862 4.738-4.84z" opacity=".3"/><path fill="#263238" d="M191.359 79.204c.044.523-.167.937 0 1.46q.239.675.383 1.378c.128.7-.158 1.883-1.034 1.997a1.61 1.61 0 0 0 .172-1.267c-.44 1.646-2.667 1.76-4.145 1.76-1.364 0-2.592.097-3.806-.58-.603-.335-.656-.678-.656-.678s-.145.136-.083.682a1.19 1.19 0 0 1-.858-.99 4.6 4.6 0 0 1 .105-1.804c.036-.194.352-2.09.467-2.086zM192.266 73.092l-1.448 1.105a.88.88 0 0 1 .159-1.232.943.943 0 0 1 1.289.127"/><path fill="#263238" d="M188.231 83.283c.027-.88 2.134-2.134 3.261-3.96 1.126-1.826.699-4.889-.739-5.412l-.044-.44a3.4 3.4 0 0 0-.357-1.021 4.4 4.4 0 0 0-2.952-2.081c-4.589-.832-6.772.88-7.687 2.825a4.8 4.8 0 0 0-.44 2.085 2.404 2.404 0 0 0 1.786 2.301z"/><path fill="#B16668" d="M182.199 72.648c-.919.36-1.826 1.716-1.945 5.579-.101 3.278.88 4.14 1.373 4.4s1.452.215 2.42.097l-.026 1.843s-.748.687-.511 1.14c.238.453 1.162.88 2.64.462 1.664-.462 2.077-1.55 2.077-1.55l.176-4.118s.537.603 1.54-.22c.827-.677 1.157-1.874.577-2.556s-1.356-.765-2.082-.048l-.492-.282a9.5 9.5 0 0 1-3.019-1.153 5.46 5.46 0 0 1-2.728-3.595"/><path fill="#874C4C" d="M184.047 82.724c1.016-.084 3.172-.634 3.542-1.47-.149.422-.424.79-.788 1.051-.651.524-2.763 1.039-2.763 1.039z"/><path fill="#263238" d="m188.443 77.14-.075 1.822a.85.85 0 0 1-.619-.273.86.86 0 0 1-.226-.638.946.946 0 0 1 .92-.91"/><path fill="#000" d="M185.415 77.487a.48.48 0 0 1-.131.34.48.48 0 0 1-.335.144.49.49 0 0 1-.467-.286.488.488 0 1 1 .933-.198"/><path fill="#263238" d="m180.799 75.763 1.18-.255a.57.57 0 0 0-.252-.389.58.58 0 0 0-.457-.077.624.624 0 0 0-.471.722"/><path fill="#874C4C" d="m183.03 76.855-.035 2.688-1.434-.374zM184.615 80.146l-1.417.387a.72.72 0 0 0 .316.476.71.71 0 0 0 .564.091.8.8 0 0 0 .537-.954"/><path fill="#F28F8F" d="M183.805 81.118a.74.74 0 0 1 .765-.713h.057a.78.78 0 0 1-.55.686.64.64 0 0 1-.272.027"/><path fill="#000" d="M181.957 77.171a.44.44 0 0 1-.271.407.44.44 0 0 1-.48-.095.44.44 0 0 1-.095-.48.43.43 0 0 1 .406-.272.44.44 0 0 1 .44.44"/><path fill="#F7921E" d="m165.699 91.15 10.186 3.757 2.644 12.223-.233.242-9.68-3.775-3.15-12.21z"/><path fill="#000" d="m175.651 95.15 2.645 12.222.233-.242-2.644-12.223z" opacity=".35"/><path fill="#000" d="m165.466 91.388 10.186 3.762 2.644 12.223-9.68-3.775z" opacity=".25"/><path fill="#000" d="m168.515 93.926-.079-.41c-.044-.224.554-.096 1.32.287l1.839.585c.783.383 1.527.669 1.566.88l.08.41z"/><path fill="#37474F" d="M167.934 92.07c-.03-.142.203-.106.528 0l.59.21s-.233-.594 1.157-.198c1.531.44 1.553 1.206 1.553 1.206q.357.161.731.277c.51.176.563.277.603.44l.074.26-5.196-1.91s-.013-.14-.04-.286"/><path fill="#37474F" d="M168.48 92.862c.48.229.678.339.744.686s.092.564.092.564l2.706 1.113s-.141-.59-.176-.783.33-.194.797.03l-.106-.488-4.211-1.624z"/><path fill="#37474F" d="m168.374 93.931-.079-.41c-.044-.224.555-.096 1.32.287l1.844.585c.779.383 1.522.673 1.566.88l.075.41z"/><path fill="#000" d="M170.174 101.16c-.102.237-.88.752-2.029.642l-.18-.708z" opacity=".2"/><path fill="#B16668" d="M166.544 95.572s.343 1.32.44 1.68c.096.362 1.76 1.14 2.596 1.255 1.601.224 1.76.576 1.377 1.712-.374 1.042-1.426 1.425-2.873 1.232a2.64 2.64 0 0 1-1.963-1.76c-.44-1.347-.176-2.781-.352-3.569s.374-1.025.775-.55M189.446 103.513c-.572.44-1.355.48-2.257.832s-1.443.713-1.91.713-.149.739.44.77c.59.031 1.228-.286 1.228-.031 0 .387-.722.752-.981.902-.805.471-1.892.713-2.464 1.5a.4.4 0 0 0-.101.282.33.33 0 0 0 .316.238q.224-.002.44-.053a.47.47 0 0 1 .401.083c.097.093.123.238.22.322a.5.5 0 0 0 .233.088q.22.033.44 0 .188-.04.378-.053.333.047.643.176c.915.273 1.874-.264 2.64-.731 1.597-1.007 1.967-1.87 2.798-2.587.832-.717 4.471-3.683 6.134-5.416 1.76-1.813 1.047-1.971.149-4.303s-3.181-6.878-4.012-8.682c-.955-2.068-1.906-2.398-3.96-2.706-.964 1.056-1.422 4.352.88 7.397l2.811 5.64s-.515.612-1.993 2.61c-1.082 1.461-1.879 2.587-2.473 3.009"/><path fill="#C8856A" d="M131.493 105.63c-.044-1.166-.691-13.028-.691-13.028l5.68 4.259c-.88 6.732-1.258 8.8-1.32 9.909a.9.9 0 0 1 .022.286c-.057 1.32-1.601 1.997-2.82 2.842a22 22 0 0 1-3.287 1.954c-.88.396-2.64.369-2.82-.185 1.483-1.039 3.199-2.165 4.4-3.371.559-.572.893-1.262.836-2.666"/><path fill="#263238" d="M124.523 113.039a1.2 1.2 0 0 0 .158 1.158 4.431 4.431 0 0 0 3.358.941 5.72 5.72 0 0 0 3.313-1.254c.695-.572 1.667-1.377 2.433-1.527a4.45 4.45 0 0 0 1.725-.668c.233-.225.242-1.254.242-1.254z"/><path fill="#455A64" d="M135.18 106.439s.185 0 .22.238.088 1.113.185 1.584c.159.828.2 1.673.123 2.512-.114.52-1.276.845-2.024 1.114a9.3 9.3 0 0 0-2.442 1.504 6.7 6.7 0 0 1-3.595 1.268c-1.676-.04-2.741-.559-3.049-1.206-.387-.805-.238-1.36 1.716-2.231a22 22 0 0 0 2.2-1.249 6.64 6.64 0 0 0 2.53-3.036.8.8 0 0 1 .29-.414.6.6 0 0 1 .379 0q.779.113 1.522.374c.255.141.616.304.599.656a1.3 1.3 0 0 1-.088.352c-.027.07-.049.162 0 .211.048.048.127 0 .18-.049q.296-.297.541-.638.139-.178.317-.316.175-.097.339-.216.04-.227.057-.458"/><path fill="#FAFAFA" d="M126.261 111.227c2.412.268 3.424 1.922 3.116 3.115a5.5 5.5 0 0 1-1.73.321c-1.676-.04-2.807-.559-3.119-1.21-.365-.757-.009-1.602 1.733-2.226"/><path fill="#F0F0F0" d="M129.548 111.592a.12.12 0 0 0 .075-.027.132.132 0 0 0 .022-.176 2.77 2.77 0 0 0-2.156-.994.13.13 0 0 0-.081.044.13.13 0 0 0-.018.135.1.1 0 0 0 .028.039.1.1 0 0 0 .041.025.2.2 0 0 0 .048.008 2.55 2.55 0 0 1 1.949.88.1.1 0 0 0 .038.043.14.14 0 0 0 .054.023M130.525 110.976a.1.1 0 0 0 .04-.003.1.1 0 0 0 .035-.019.132.132 0 0 0 .022-.176 2.74 2.74 0 0 0-2.156-.994.123.123 0 0 0-.123.123.123.123 0 0 0 .123.123 2.56 2.56 0 0 1 1.949.88.12.12 0 0 0 .11.066M131.488 110.193a.12.12 0 0 0 .075-.026.13.13 0 0 0 .035-.088.12.12 0 0 0-.035-.088 2.77 2.77 0 0 0-2.151-.995.2.2 0 0 0-.047.014.1.1 0 0 0-.037.031.13.13 0 0 0-.026.092q0 .023.01.045a.13.13 0 0 0 .067.062.1.1 0 0 0 .046.007 2.56 2.56 0 0 1 1.949.88.12.12 0 0 0 .114.066M132.439 109.405a.128.128 0 0 0 .122-.109.13.13 0 0 0-.021-.094 2.8 2.8 0 0 0-2.34-1.003.12.12 0 0 0-.084.043.1.1 0 0 0-.022.042.1.1 0 0 0-.004.047q0 .025.009.046a.1.1 0 0 0 .027.038.1.1 0 0 0 .04.025.1.1 0 0 0 .047.006 2.63 2.63 0 0 1 2.151.915.13.13 0 0 0 .075.044"/><path fill="#C8856A" d="m141.78 96.258 5.984-1.043c.075 3.691-.176 8.615-.295 12.021-.022.651.247 5.06.04 6.406-.308 2.028-2.922 1.839-3.115.638s-.282-6.314-.317-6.846c-.075-2.2-1.219-5.971-1.993-9.936-.04-.198-.269-1.051-.304-1.24"/><path fill="#263238" d="M143.448 115.151a5.13 5.13 0 0 0 .563 2.702 1.99 1.99 0 0 0 2.147.836c.88-.15 2.033-.625 2.35-1.628.284-.91.346-1.874.18-2.812z"/><path fill="#455A64" d="M147.483 106.88c.356.048.347 1.593.44 3.19.11 1.716.62 2.455.73 3.859.123 1.61 0 2.314-.682 3.242-.682.929-2.886 1.76-3.859.3-.792-1.175-.748-2.429-.567-4.013q.276-2.016.339-4.048c0-1.197-.172-2.315.149-2.429 0 .176 0 .4.035.572s0 .783.207.801q.04-.218.035-.44a.475.475 0 0 1 .124-.379c.173-.103.367-.166.567-.184.357-.04.717-.08 1.078-.084h.541q.228.009.44.088a.312.312 0 0 1 .185.172.4.4 0 0 1 0 .184q-.012.167.022.33c0 .049.044.106.097.097s.062-.053.062-.092v-.863c0-.105.057-.224.057-.303"/><path fill="#FAFAFA" d="M148.706 114.839a3.66 3.66 0 0 1-.629 2.393c-.669.924-3.058 1.734-4.031.291a4.2 4.2 0 0 1-.594-2.372c.704-1.025 4.308-1.28 5.254-.312"/><path fill="#F0F0F0" d="M144.482 113.48h.044a5.73 5.73 0 0 1 3.12-.11.14.14 0 0 0 .098-.008.14.14 0 0 0 .069-.071.1.1 0 0 0 .004-.05.13.13 0 0 0-.096-.104 5.87 5.87 0 0 0-3.292.114.1.1 0 0 0-.042.024.11.11 0 0 0-.041.086.1.1 0 0 0 .009.048.13.13 0 0 0 .054.053.13.13 0 0 0 .073.018M147.636 112.16a.13.13 0 0 0 .068-.021.12.12 0 0 0 .058-.102.115.115 0 0 0-.082-.111 4.98 4.98 0 0 0-3.291.084.1.1 0 0 0-.041.026.12.12 0 0 0-.036.089q0 .025.011.048a.14.14 0 0 0 .176.061 4.76 4.76 0 0 1 3.08-.083.14.14 0 0 0 .057.009M147.615 111.038a.12.12 0 0 0 .067-.019.1.1 0 0 0 .047-.052.1.1 0 0 0 .012-.048.1.1 0 0 0-.009-.048.1.1 0 0 0-.027-.041.1.1 0 0 0-.042-.026 4.46 4.46 0 0 0-3.357.075.1.1 0 0 0-.039.028.1.1 0 0 0-.024.042.1.1 0 0 0-.005.047.1.1 0 0 0 .015.046.14.14 0 0 0 .08.061q.052.015.1-.008a4.23 4.23 0 0 1 3.124-.066q.028.01.058.009"/><path fill="#EBEBEB" d="M147.584 109.774a.14.14 0 0 0 .118-.074.12.12 0 0 0-.027-.135.1.1 0 0 0-.043-.024 4.63 4.63 0 0 0-3.379.106.119.119 0 0 0-.066.068.1.1 0 0 0-.006.048.134.134 0 0 0 .191.104 4.45 4.45 0 0 1 3.154-.106.13.13 0 0 0 .058.013"/><path fill="#455A64" d="M145.665 67.605c0 6.714.88 20.156.88 20.156.079.823 1.131 4.475 1.206 7.454.119 4.787-.066 8.105-.066 8.105s-2.53.981-4.361.224c0 0-2.34-9.627-2.948-12.76-.73-3.713-2.459-11-2.459-11l-1.219 9.808c.216 2.12.216 4.256 0 6.375-.26 1.967-.968 7.115-.968 7.115s-2.433.814-4.426.154c0 0-.797-12.804-.916-14.612-.118-1.809-.101-11.19.326-22.625z"/><path fill="#37474F" d="m137.93 79.81-1.016-6.37a5.35 5.35 0 0 1-3.419-1.523s.159 1.465 2.882 2.402l.933 5.28-.598 10.01z"/><path fill="#C8856A" d="M133.429 47.163c-1.628.365-2.921.766-3.467 3.934-.484 2.838-1.672 9.627-1.672 9.627s-.545.136-2.679.625c-1.98.44-3.08.853-4.18.383l1.064 4.241c1.734-.07 3.688-.18 5.72-.334 1.694-.132 3.243-.295 3.52-1.034.537-1.32 2.508-9.038 2.508-9.038z"/><path fill="#F7921E" d="M134.393 46.679c-1.658.163-3.52.686-4.18 3.168-.497 1.936-1.249 6.195-1.249 6.195a5.88 5.88 0 0 0 4.629 1.254l1.126-5.619z"/><path fill="#AF6152" d="M116.375 60.68a4.1 4.1 0 0 1 3.133-.163c.528.286 1.417 1.126 1.923 1.219a18 18 0 0 1-3.058-.18 4.7 4.7 0 0 1-1.998-.876M122.28 65.867a4.3 4.3 0 0 1-1.91.273c-.594-.044-2.323-1.677-2.323-1.677l2.596-.273z"/><path fill="#263238" d="M119.855 107.672a1.27 1.27 0 0 0 1.135-.04.4.4 0 0 0 .158-.141.4.4 0 0 0 .062-.202l-2.169-69.027-1.602.057 2.17 69.027q.011.11.078.197a.4.4 0 0 0 .168.129"/><path fill="#37474F" d="M118.817 38.596a.34.34 0 0 0 .232-.328.345.345 0 0 0-.232-.328 1.26 1.26 0 0 0-1.135.044c-.308.19-.295.484.026.652a1.24 1.24 0 0 0 1.109-.04M112.292 34.38h.026a.166.166 0 0 0 .141-.18l-.387-2.9a.2.2 0 0 0-.015-.064.2.2 0 0 0-.04-.053.16.16 0 0 0-.186-.016.2.2 0 0 0-.048.046.2.2 0 0 0-.025.06.15.15 0 0 0 .001.067l.383 2.9a.157.157 0 0 0 .15.14"/><path fill="#F0F0F0" d="M110.602 32.458a4.035 4.035 0 0 1 1.413-3.37 1.26 1.26 0 0 1 1.284-.282l11.515 4.84-1.971 4.778-11.519-4.84a1.27 1.27 0 0 1-.722-1.126"/><path fill="#E0E0E0" d="M123.529 33.937a4.05 4.05 0 0 0-1.408 3.374c.15 1.158 1.021 1.523 1.949.814a4.04 4.04 0 0 0 1.408-3.374c-.149-1.158-.998-1.523-1.949-.814"/><path fill="#455A64" d="M123.732 35.486a1.06 1.06 0 0 0-.37.88c.04.299.269.396.506.21a1.06 1.06 0 0 0 .37-.88c-.04-.298-.269-.395-.506-.21"/><path fill="#37474F" d="M123.362 40.413a.9.9 0 0 0 .603-.176 1.12 1.12 0 0 0 .347-1.082l-.405-3.058a.2.2 0 0 0-.018-.06.2.2 0 0 0-.042-.048.15.15 0 0 0-.12-.029.16.16 0 0 0-.104.06.16.16 0 0 0-.032.116l.404 3.08a.68.68 0 0 1-.237.774.69.69 0 0 1-.81.01l-8.914-3.723a2.88 2.88 0 0 1-1.575-2.068.2.2 0 0 0-.02-.059.2.2 0 0 0-.041-.047.15.15 0 0 0-.118-.032.164.164 0 0 0-.134.116.2.2 0 0 0-.004.062 3.21 3.21 0 0 0 1.76 2.319l8.919 3.726c.172.072.355.112.541.12"/><path fill="#C8856A" d="M116.375 60.68c-.497.308-.545 1.135-.286 1.703.157.424.253.868.286 1.32.093.378.52.497.52.734 0 .238-.308.352.189.78.346.362.784.625 1.267.76a7.7 7.7 0 0 0 1.536-.145c.338-.066.312-.752-.652-.96h.709c.29 0 .743-.052.295-.826-.449-.775-1.378-2.504-1.831-2.9a2.09 2.09 0 0 0-2.033-.466"/><path fill="#AF6152" d="M116.339 61.608a8 8 0 0 1 1.936-.44l.264-.035c.55.299 1.259 2.165 1.699 2.921.237.41.22.62.11.726-.044-.136-.084-.286-.132-.44a2.01 2.01 0 0 0-1.461-1.544 6.3 6.3 0 0 0-1.729-.317c-.401-.075-.907-.48-.687-.871"/><path fill="#AF6152" d="M119.42 63.76c.304-.11.172-.639-.255-.982a6 6 0 0 0-1.091-.65 7 7 0 0 0-.634-.304c-.088-.031-.211-.045-.268-.115a.255.255 0 0 1 0-.264.57.57 0 0 1 .268-.215 1.49 1.49 0 0 1 1.254 0 3 3 0 0 1 .59.567 14 14 0 0 1 1.619 2.2c.44.775-.647.92-.937.88.466-.048.33-.95-.515-1.148M117.07 64.283q.231.174.493.3c.172.083.348.167.524.241.18.076.376.11.572.102q.29-.006.576-.058h-.576a2 2 0 0 1-.282-.026c-.088 0-.18-.053-.268-.084a7 7 0 0 1-.528-.224c-.172-.08-.348-.15-.511-.25"/><path fill="#AF6152" d="M116.872 62.919q.296.212.616.387.317.182.656.321c.234.07.477.106.721.106h.726l-.721-.048a2.5 2.5 0 0 1-.709-.124 5 5 0 0 1-.655-.299q-.318-.158-.634-.343"/><path fill="#C8856A" d="M124.48 62.07a13.5 13.5 0 0 1-2.503-.18 9 9 0 0 1-1.897-.77 2.52 2.52 0 0 0-1.804-.185c-1.073.22-1.403.338-1.936.44-.202.382.286.8.687.88.588.02 1.171.125 1.729.312a2.03 2.03 0 0 1 1.461 1.549c.308 1.003.475 1.966 1.689 1.887 1.435-.097 3.52-.233 4.572-.294z"/><path fill="#AF6152" d="M118.275 60.948c-.655.101-1.293.282-1.94.41a.44.44 0 0 0-.026.325.7.7 0 0 0 .176.273c.152.151.347.254.558.295a1.17 1.17 0 0 1-.532-.322.65.65 0 0 1-.163-.26.4.4 0 0 1 .031-.29c.33-.048.647-.14.968-.22z"/><path fill="#263238" d="M131.176 51.677c.348-4.8 1.553-4.721 4.312-5.179a15.2 15.2 0 0 1 4.352-.207c1.712.203 3.404.553 5.055 1.048l.819 10.12v11.14c-3.08 1.963-11.81.78-15.079-1.192-.123-2.983.282-12.148.541-15.73"/><path fill="#000" d="m140.87 42.256.083-1.447s-.924-1.276-1.016-2.32c-.123-1.32.163-1.887.163-1.887.466-.352 1.513-1.223 2.112-1.276.858-.07 1.364 1.188 1.478 1.641a8.9 8.9 0 0 1-.039 3.08 5.1 5.1 0 0 1-.836 2.121c-.476.704-1.056 1.32-1.584 1.998-.044.057-.097.114-.168.11-.07-.005-.127-.097-.149-.18a6.7 6.7 0 0 1-.044-1.84"/><path fill="#000" d="M142.194 35.234c.511 2.086-3.788 6.472-5.931 6.45-2.143-.021-3.608-2.855-3.586-4.998s.911-3.309 4.171-3.916c2.108-.392 4.871.532 5.346 2.464"/><path fill="#C8856A" d="M142.651 42.842a1.13 1.13 0 0 1-1.32-.229l-.158 4.427a3.4 3.4 0 0 1-1.562 1.491c-1.069.44-2.42.678-3.313.34-.893-.34-1.36-1.04-.071-2.13l.049-1.32a7.8 7.8 0 0 1-1.509 0c-.951-.154-1.545-.916-1.826-1.95-.44-1.663-.322-4.158.338-7.378 1.074-.819 4.585-.924 6.82.51a7 7 0 0 0 .234 2.842c.066.286.44 1.039.673 1.078.44.07.532-.44.827-.726a1.246 1.246 0 0 1 1.879.533c.475 1.03-.401 2.261-1.061 2.512"/><path fill="#AF6152" d="M136.276 45.438c1.523-.14 3.415-.832 3.908-1.527.283-.39.51-.818.673-1.271a4.9 4.9 0 0 1-.44 1.804c-.374.607-1.782 1.632-4.167 1.76z"/><path fill="#263238" d="M137.187 39.779a.44.44 0 0 0 .44.44.44.44 0 0 0 .406-.272.442.442 0 0 0-.321-.6.44.44 0 0 0-.525.432M137.266 38.024l.954.44a.55.55 0 0 0-.277-.704.51.51 0 0 0-.677.264M133.478 38.359l1.021-.256a.52.52 0 0 0-.227-.329.5.5 0 0 0-.394-.062.55.55 0 0 0-.4.647M133.429 39.7a.44.44 0 0 0 .44.44.44.44 0 0 0 .44-.44.442.442 0 0 0-.774-.377.45.45 0 0 0-.08.377z"/><path fill="#455A64" d="m139.32 38.389 3.292 1.17a1.07 1.07 0 0 0-.946.44l-2.332-.88z"/><path fill="#455A64" d="M131.52 38.626a.9.9 0 0 0 .206.44q.062.074.084.167.1.638.29 1.254a1.4 1.4 0 0 0 1.347.88q.233.003.462-.04h.035q.195-.046.37-.144h.026l.031-.022.039-.027.036-.03.039-.031a.3.3 0 0 0 .04-.036l.075-.07q.183-.219.299-.48c.193-.44.145-1.047.462-1.122h.083c.44 0 .383.674.625 1.149a1.64 1.64 0 0 0 1.611.959h.22q.113-.01.224-.035h.185q.133-.048.255-.119l.088-.062a1 1 0 0 0 .15-.127q.18-.196.281-.44.178-.61.26-1.241a.5.5 0 0 1 .07-.18.9.9 0 0 0 .216-.44.4.4 0 0 0-.264-.396l-.233-.031a7.1 7.1 0 0 0-2.297.03c-.726.199-.981.44-1.386.44s-.625-.25-1.32-.479a6.3 6.3 0 0 0-2.152-.11h-.215a.37.37 0 0 0-.242.343m4.787.44a.56.56 0 0 1 .207-.171l.039-.022a1 1 0 0 1 .106-.049l.092-.04q.153-.06.313-.096l.123-.031c.105 0 .211-.04.321-.053h.07c.449-.078.911.012 1.298.251.168.154.093.796.027 1.126a.1.1 0 0 0 0 .027v.026a.6.6 0 0 1-.031.132 1 1 0 0 1-.022.084c0 .048-.026.092-.044.14s0 .031-.022.045a.1.1 0 0 0 0 .03.1.1 0 0 0 0 .031.1.1 0 0 0 0 .04l-.026.044-.027.044-.031.048a1.1 1.1 0 0 1-1.02.467 1.35 1.35 0 0 1-1.034-.396 1.45 1.45 0 0 1-.339-.665 1.5 1.5 0 0 1 .004-.994zm-4.123-.347a.6.6 0 0 1 .172-.106l.074-.03a.2.2 0 0 0 .049 0h.105l.159-.032h.374q.16.007.321.031c.432.037.839.216 1.157.51.118.32.134.667.044.995 0 .07-.035.158-.066.246v.053a.3.3 0 0 1-.026.062.3.3 0 0 1-.027.053v.061a1.1 1.1 0 0 1-1.038.475c-.182 0-.362-.044-.524-.127a1.5 1.5 0 0 1-.686-1.07c-.132-.307-.229-.959-.084-1.104z"/><path fill="#AF6152" d="m133.855 41.46 1.54.392.251-2.411a.3.3 0 0 0-.202-.07h-.079a.3.3 0 0 0-.088.039 375 375 0 0 0-1.422 2.05M137.068 42.459l-1.787.383a.9.9 0 0 0 .378.603.88.88 0 0 0 .7.127.95.95 0 0 0 .709-1.113"/><path fill="#FFA8A7" d="M136.853 42.749a1 1 0 0 1 .22 0 .933.933 0 0 1-.713.823.8.8 0 0 1-.291 0 .84.84 0 0 1 .784-.823"/><path fill="#AF6152" d="M147.997 72.005c.81.234 1.844-.774 2.13-1.122.286-.347-.084-1.179-.255-1.883-.172-.704 0-1.888-.88-1.553s-2.675 2.675-.995 4.558"/><path fill="#C8856A" d="M144.935 47.81c2.323.44 2.433.65 3.929 3.3 1.589 2.82 4.035 7.339 4.55 8.443.515 1.105 1.012 1.91-.374 3.613a671 671 0 0 1-5.425 6.507c-.48.555.057 2.2 1.703 1.945 0 0-1.25 1.109-1.941.986-.594-.106-1.527-.625-2.385-2.425-.541-1.14-.088-2.028.735-3.295.981-1.51 3.107-5.72 3.107-5.72l-4.145-6.851s-1.668-4.506.246-6.503"/><path fill="#F7921E" d="M144.896 47.339c1.32.352 2.126.493 2.72 1.32s4.096 7.308 4.096 7.308a5.19 5.19 0 0 1-4.475 2.87l-2.772-4.243s-2.178-5.249.431-7.255"/><path fill="#000" d="M125.94 185.13c5.36 2.671 7.885 4.475 5.109 6.442-2.777 1.967-10.415 5.627-10.415 5.627l-.994 3.327-10.956-6.332v-3.766s6.762-4.664 9.402-5.562c2.64-.897 4.713-1.298 7.854.264" opacity=".15"/><path fill="#FFA8A7" d="M110.84 202.109s1.654 4.061 1.738 5.659c.088 1.672.493 2.2.211 4.039-.062.391-.268 1.183-.321 1.505a.476.476 0 0 0 .44.594c.726.149 1.927-1.21 2.499-2.689a44 44 0 0 0 1.434-5.218 2.3 2.3 0 0 0-.228-1.171 3.4 3.4 0 0 0-.335-.602c-.237-.726-.352-2.108-.554-3.08z"/><path fill="#263238" d="M118.228 207.517q.141.258.193.55c0 .33-.734 1.425-1.029 1.826a2.68 2.68 0 0 0-.546 1.896 4.6 4.6 0 0 1-1.113 2.97 7.3 7.3 0 0 1-3.639 2.38c-1.76.542-2.376-.338-2.376-.338s-.545-.85-.22-1.197 8.73-8.087 8.73-8.087"/><path fill="#455A64" d="M116.247 204.226c.053 0 .15 0 .286.149.053.062.374.854.638 1.267.264.414.964 1.202 1.056 1.875-.409 1.32-1.632 2.2-1.813 3.441-.18 1.24-.207 2.64-2.094 4.162-1.888 1.522-3.837 1.663-4.532 1.263s-.638-1.149.339-2.57c1.029-1.513 1.729-4.791 1.729-4.796q.136-.689.18-1.39a9 9 0 0 0-.127-1.382 1 1 0 0 1 .088-.625c.131-.17.313-.296.519-.36a4.7 4.7 0 0 1 .972-.33c.338-.071.689-.027.999.123.22.119.396.303.625.4a.91.91 0 0 0 .928-.167.76.76 0 0 0 .251-.854 2 2 0 0 0-.044-.206"/><path fill="#FAFAFA" d="M115.425 213.915a3.02 3.02 0 0 0-2.741-1.483c-2.007 0-2.702 1.029-3.005 1.632-.366.713-.744 2.011.083 2.381.88.404 1.932.281 3.564-.537a4.36 4.36 0 0 0 2.099-1.993M115.059 207.869a.22.22 0 0 1-.184 0c-.308-.159-1.95-.502-2.904.382-.128-.096-.102-.281.057-.536a3.698 3.698 0 0 1 3.045-.203.2.2 0 0 1 .097.117.2.2 0 0 1-.018.152.23.23 0 0 1-.093.088M111.764 209.423a.62.62 0 0 1 .115-.55 3.75 3.75 0 0 1 2.904-.119.197.197 0 0 1 .079.268.22.22 0 0 1-.093.088.22.22 0 0 1-.184 0c-.304-.149-1.857-.479-2.821.313M110.945 212.137a1.16 1.16 0 0 1 .256-.73 3.72 3.72 0 0 1 3-.172.2.2 0 0 1 .097.118.19.19 0 0 1-.022.15.22.22 0 0 1-.092.088.2.2 0 0 1-.09.022.2.2 0 0 1-.091-.022c-.33-.171-2.138-.541-3.058.546M114.474 210.351a.2.2 0 0 1-.18 0c-.308-.154-1.914-.489-2.873.361a.7.7 0 0 1 .167-.594 3.75 3.75 0 0 1 1.44-.351c.499-.021.996.058 1.464.232a.197.197 0 0 1 .079.268.23.23 0 0 1-.097.084"/><path fill="#FFA8A7" d="M109.036 207.095s-.836 4.945-1.716 6.873-1.382 2.846-2.64 4.298c-.273.317-.88.907-1.122 1.162a.49.49 0 0 0-.092.6.5.5 0 0 0 .144.161c.559.537 2.931.665 4.26-.334s2.534-3.115 3.326-3.916c.299-.304.581-.612.845-.937s.189-.612.211-.968v-.634c.18-.836.673-2.143.933-2.957z"/><path fill="#263238" d="M112.692 217.14c.015.203-.005.407-.061.602-.132.322-1.32 1.026-1.791 1.272a2.81 2.81 0 0 0-1.36 1.553 4.83 4.83 0 0 1-2.38 2.31 7.66 7.66 0 0 1-4.506.629c-1.905-.272-2.099-1.386-2.099-1.386s-.136-1.042.326-1.227 11.871-3.753 11.871-3.753"/><path fill="#455A64" d="M112.292 213.14c.053.022.15.048.207.268 0 .084-.031.973.035 1.483s.374 1.571.159 2.248c-.968 1.052-2.526 1.364-3.252 2.442s-1.382 2.425-3.841 3.006c-2.46.58-4.369-.141-4.84-.828s-.088-1.372 1.469-2.283c1.655-.973 3.78-3.762 3.78-3.762q.439-.595.796-1.241.296-.664.493-1.364c.06-.217.186-.409.361-.55.201-.103.428-.141.651-.11q.541.005 1.069.123c.347.087.656.285.88.563.154.207.238.467.41.656a.95.95 0 0 0 .954.26.81.81 0 0 0 .621-.696q.03-.107.048-.215"/><path fill="#FAFAFA" d="M107.183 221.94a3.14 3.14 0 0 0-1.932-2.64c-1.901-.88-3.014-.233-3.573.198-.664.515-1.601 1.576-.981 2.297.621.722 1.703 1.122 3.608 1.078a4.54 4.54 0 0 0 2.878-.933M109.52 216.053a.2.2 0 0 1-.095-.02.2.2 0 0 1-.077-.059c-.224-.291-1.619-1.347-2.921-.933-.075-.15.031-.312.295-.484a3.85 3.85 0 0 1 2.974 1.17.2.2 0 0 1 .038.154.2.2 0 0 1-.029.075.2.2 0 0 1-.057.057.2.2 0 0 1-.128.04M105.727 216.053a.64.64 0 0 1 .356-.471 3.93 3.93 0 0 1 2.798 1.188.2.2 0 0 1 .04.153.2.2 0 0 1-.028.075.2.2 0 0 1-.056.058.214.214 0 0 1-.299-.04c-.22-.281-1.544-1.28-2.811-.963M103.738 218.253c.12-.249.32-.451.568-.572a3.87 3.87 0 0 1 2.917 1.175.2.2 0 0 1 .036.073.2.2 0 0 1 .004.081.196.196 0 0 1-.084.136.23.23 0 0 1-.224.019.2.2 0 0 1-.075-.063c-.238-.303-1.76-1.465-3.142-.849M107.878 218.143a.2.2 0 0 1-.095-.023.2.2 0 0 1-.076-.061c-.22-.286-1.593-1.32-2.878-.946a.73.73 0 0 1 .44-.488 3.95 3.95 0 0 1 2.803 1.188.2.2 0 0 1 .035.074.2.2 0 0 1 .003.082.2.2 0 0 1-.029.076.224.224 0 0 1-.203.098"/><path fill="#F7921E" d="M119.961 178.904c-2.028 1.487-9.099 5.566-11.968 8.224-.831.765-1.104 1.76-.88 3.982.278 2.987 2.64 13.173 2.64 13.173.326.572.88-.519.88-.519l11.203-14.221z"/><path fill="#000" d="M119.961 178.904c-2.028 1.487-9.099 5.566-11.968 8.224-.831.765-1.104 1.76-.88 3.982.278 2.987 2.64 13.173 2.64 13.173.326.572.88-.519.88-.519l11.203-14.221z" opacity=".3"/><path fill="#000" d="M110.206 201.11c2.592-2.164 10.965-15.4 10.965-15.4-1.139-.959-1.729-4.303-1.729-4.303-.44 1.289.026 3.234.374 3.96-.656.572-4.4 3.635-6.97 5.685a3.7 3.7 0 0 0-1.535 2.314c-.537 2.803-1.166 7.177-1.105 7.744" opacity=".3"/><path fill="#F7921E" d="m119.961 178.904 14.418 3.19c-.704 2.64-.906 4.013-1.641 5.408s-1.553 2.891-5.28 4.734c-3.612 1.76-8.021 3.613-8.905 4.031-.665.316-.982 1.645-1.281 3.37-.317 1.808-.343 3.221-2.134 7.018-1.76 3.714-2.107 4.519-2.107 4.519s-2.711.281-4.51-1.32c0 0 2.455-12.738 2.978-15.031.291-1.284.3-1.958 1.888-3.366 1.364-1.205 7.454-5.816 7.454-5.816s-2.442-3.23-.88-6.737"/><path fill="#000" d="m119.961 178.904 14.418 3.19c-.704 2.64-.906 4.013-1.641 5.408s-1.553 2.891-5.28 4.734c-3.612 1.76-8.021 3.613-8.905 4.031-.665.316-.982 1.645-1.281 3.37-.317 1.808-.343 3.221-2.134 7.018-1.76 3.714-2.107 4.519-2.107 4.519s-2.711.281-4.51-1.32c0 0 2.455-12.738 2.978-15.031.291-1.284.3-1.958 1.888-3.366 1.364-1.205 7.454-5.816 7.454-5.816s-2.442-3.23-.88-6.737" opacity=".3"/><path fill="#FFA8A7" d="M118.526 164.656c-.849 1.149-4.963 6.235-4.963 6.235a137 137 0 0 1-2.666-3.52 16.2 16.2 0 0 1-2.073-4.065 11.5 11.5 0 0 0-.717-1.571 4.9 4.9 0 0 1-.515-1.677c0-.29-.752-.242-.932.674a6.5 6.5 0 0 0 .088 1.83c-.348-.11-.88-.356-1.628-.576s-2.2-.797-2.227.14c0 .212.093.44.027.63a1.3 1.3 0 0 1-.146.264 1.05 1.05 0 0 0 .027 1.078.6.6 0 0 1 .119.228c.026.172-.097.335-.119.498-.013.199.028.398.119.576.114.255.29.484.404.739q.098.246.229.475c.182.334.489.583.854.691.497.163 1.012.339 1.725.568.567.176.976.941 1.57 2.2 1.514 2.952 1.862 3.295 3.322 5.654.146.229.291.44.44.611 1.466 1.998 2.297 1.422 4.744-.73 3.014-2.64 5.53-5.28 5.53-5.28l1.122-9.183c-1.768.515-3.484 2.359-4.334 3.511"/><path fill="#37474F" d="M124.075 160.784c-1.905.154-2.741.761-3.929 1.936s-4.04 4.928-4.04 4.928-.158 2.257 3.859 4.739l3.767-3.252z"/><path fill="#F28F8F" d="M105.894 162.817c.563.115.753.44.827 1.241.04.467.273 1.32.819 1.602a1.2 1.2 0 0 1-.691-.216c-.268-.215-.334-.237-.44-.083a.94.94 0 0 1-.326.242.601.601 0 0 1 .132.712c-.198.44-1.465.388-2.406.027 0 0 1.676.44 1.962-.04.286-.479-.726-1.157-1.32-1.249 0 0 1.615.347 1.76-.137s-.629-.937-1.478-1.051c0 0 1.359.25 1.513-.168a.72.72 0 0 0-.352-.88M113.563 170.891a7.2 7.2 0 0 1 1.681 4.053s.462-2.068-1.179-4.669z"/><path fill="#F7921E" d="M120.74 166.615c.44-4.466 1.5-5.672 3.784-5.888l3.784-.277c1.104.277 5.13 1.619 6.199 2.271.753.44 1.008 2.16 1.056 4.928.044 2.248-.022 4.127-.237 7.22a45 45 0 0 1-1.347 9.126c-3.15 1.029-11.339-.344-14.722-4.603.33-1.205.911-2.332 1.179-4.18.084-3.903.167-7.172.304-8.597"/><path fill="#455A64" d="M121.343 149.939q.162.186.378.308a.655.655 0 0 0-.594.484c-.065.269-.04.551.071.805.132.351.352.663.638.906.326.217.676.395 1.042.533q.355.248.66.554c.322.242.634.488.955.726q.97.709 2.015 1.298 1 .567 2.077.964c.761.277 1.399.026 2.2.092l-.101 2.2s.264-.51.572-1.118c.26-.523 1.351-3.176 1.351-3.176.44-1.048.981-2.139.906-3.3-.061-.942-.255-1.76-.972-2.161-.062-1.082-.317-1.61-1.078-2.2a4.2 4.2 0 0 0-1.883-.695 7.7 7.7 0 0 0-2.28.092c-2.116.352-4.281.964-6.309-.066a1.8 1.8 0 0 0 .149.955 4.6 4.6 0 0 0 1.219 1.734l-1.183-.145a.2.2 0 0 0-.132 0 .164.164 0 0 0-.049.127 1.455 1.455 0 0 0 .348 1.083"/><path fill="#FFA8A7" d="M128.765 149.56c0 .687.669 1.897 1.65 2.737a6.8 6.8 0 0 0-.039 2.319c.025.166.085.325.176.466a.57.57 0 0 0 .409.255c.224 0 .317-.123.383-.299a5 5 0 0 1 .339-.651q.08-.14.193-.255a1.1 1.1 0 0 1 1.822.365c.488 1.104-.392 2.583-1.206 2.816-1.395.396-1.707-.554-1.707-.554l.057 4.628c-.387 1.18-2.552 2.332-4.303 2.117-1.751-.216-1.201-1.276-.493-1.998l-.101-1.606a6.8 6.8 0 0 1-1.866-.057c-.73-.136-1.32-.814-1.641-1.914a16.9 16.9 0 0 1-.246-6.428c.255-1.32.955-2.2 1.346-2.381 0 .286.225.968 1.637 1.153 1.505.167 2.517-.273 3.59-.713"/><path fill="#F28F8F" d="M125.945 159.887a7.8 7.8 0 0 0 2.957-.818c.533-.282 1.096-1.43 1.232-1.738 0 0-.031 1.58-.739 2.248-1.012.951-3.41.964-3.41.964z"/><path fill="#455A64" d="m127.256 152.139 1.126.545a.65.65 0 0 0 .034-.502.66.66 0 0 0-.333-.378.61.61 0 0 0-.487-.014.62.62 0 0 0-.34.349"/><path fill="#B16668" d="m127.172 156.675-1.813.651a.95.95 0 0 0 1.219.612 1.006 1.006 0 0 0 .594-1.263"/><path fill="#F28F8F" d="M126.09 157.973a.85.85 0 0 1 .88-.801q.113.008.22.044a.97.97 0 0 1-.621.722.9.9 0 0 1-.479.035"/><path fill="#455A64" d="m122.72 152.522 1.082-.586a.59.59 0 0 0-.357-.297.6.6 0 0 0-.235-.021.632.632 0 0 0-.49.904"/><path fill="#F28F8F" d="m125.553 156.16-1.681-.568 1.936-3.084z"/><path fill="#263238" d="M123.93 153.631a.5.5 0 0 1-.691.45.5.5 0 0 1-.265-.27.497.497 0 0 1 .463-.682.5.5 0 0 1 .493.502M127.885 153.666a.493.493 0 1 1-.988-.018.493.493 0 0 1 .988.018"/><path fill="#000" d="M107.544 187.656q.186-.292.44-.528c1.725-1.597 4.963-3.704 7.713-5.46l12.518 7.229a.114.114 0 0 1 .045.16.1.1 0 0 1-.045.043l-9.09 5.249z" opacity=".15"/><path fill="#37474F" d="M103.747 183.981v.203a.84.84 0 0 0 .414.717l14.559 8.404a.8.8 0 0 0 .414.11.85.85 0 0 0 .44-.11l7.92-4.567a.83.83 0 0 0 .413-.722v-.277a.1.1 0 0 1-.013.053.1.1 0 0 1-.039.039l-8.712 5.034z"/><path fill="#263238" d="M119.134 192.861v.555a.8.8 0 0 1-.414-.11l-14.559-8.404a.83.83 0 0 1-.414-.722v-.202z"/><path fill="#455A64" d="m103.747 183.977 8.628-4.98a.5.5 0 0 1 .498 0l14.96 8.646a.1.1 0 0 1 .042.039.1.1 0 0 1 .016.055q0 .03-.016.056a.1.1 0 0 1-.042.039l-8.712 5.033z"/><path fill="#37474F" d="m119.213 192.13 4.655-2.684-13.614-7.858-4.677 2.671z"/><path fill="#263238" d="m105.577 184.259.176.101 4.506-2.57 13.429 7.757.18-.101-13.609-7.858zM121.501 184.664l-.088.049-2.279 1.315-4.057-2.341-.084-.048 2.367-1.368z"/><path fill="#37474F" d="m121.413 184.712-2.279 1.316-4.057-2.341 2.284-1.32z"/><path fill="#FFA8A7" d="M116.916 185.641c.73-.726 1.79-1.729 2.679-2.024q.306-.116.625-.194a7 7 0 0 1-.915-.184 1.6 1.6 0 0 1-.77-.511c-.079-.101-.132-.259-.035-.339a.2.2 0 0 1 .127-.044c.665-.022 1.193-.127 1.795-.171.271-.044.548-.044.819 0 .246.066.497.141.739.224 1.104.383 2.112.726 3.678.361l2.821-1.505s.603-.149 1.487 1.355.37 2.328.37 2.328l-3.164 1.144h-.048q-.72.39-1.492.66c-.986.299-2.248-.057-3.106-.101a8.9 8.9 0 0 0-3.102.673c-.797.321-1.76-.902-2.152-.757s-1.087-.18-.356-.915"/><path fill="#F28F8F" d="M120.59 182.966c.414-.021.827.045 1.214.193a6.8 6.8 0 0 0-1.584.277 7 7 0 0 1-.915-.184 1.7 1.7 0 0 1-.7-.44c.48.338 1.408.211 1.985.154"/><path fill="#37474F" d="M118.9 192.985a.98.98 0 0 1-.849-.062l-14.493-8.36a1 1 0 0 1-.48-.691l-1.588-9.46a.98.98 0 0 1 .281-.88l15.057 8.695a.73.73 0 0 1 .356.51z"/><path fill="#455A64" d="m119.134 192.866-.101.057-.132.061-1.716-10.238a.74.74 0 0 0-.357-.511l-15.057-8.694a1 1 0 0 1 .198-.154l15.092 8.712a.735.735 0 0 1 .357.51z"/><path fill="#263238" d="m117.044 182.429.233-.132a.74.74 0 0 1 .141.312l1.716 10.257-.101.057-.132.061-1.716-10.238a.8.8 0 0 0-.141-.317"/><path fill="#F7921E" d="M110.738 184.25a3.22 3.22 0 0 0-1.461-1.879c-.704-.404-1.183-.215-1.078.418a3.2 3.2 0 0 0 1.461 1.879c.7.405 1.179.216 1.078-.418"/><path fill="#FFA8A7" d="M128.479 181.284c2.486-1.522 5.395-3.216 5.395-3.216l-1.641-7.7s-.647-3.309.246-5.28 2.081-2.2 2.081-2.2a11.4 11.4 0 0 1 2.117 1.39c.88.783.972 2.746 1.32 4.985.347 2.24 1.029 8.928 1.179 10.243.149 1.316.202 1.945-1.571 2.755-1.879.88-8.43 3.08-8.43 3.08z"/><path fill="#37474F" d="M134.507 162.721c.722.332 1.402.75 2.024 1.245.295.308.797.545 1.127 2.257s1.012 6.904 1.012 6.904.096.735-1.787 1.183-4.087-.18-4.087-.18-.823-3.736-1.03-4.84c-.207-1.105-.546-5.676 2.741-6.569M58.04 137.821c-.193-.026-.189.55-.127.801.061.251.823 1.1 2.2 1.434 1.377.335 3.34.132 4.171.124s2.253.44 3.08.589c.827.15 2.323-.088 2.834-.541a.88.88 0 0 0 .224-.678c0-.554-.048-.664-.11-.664z"/><path fill="#455A64" d="M70.197 137.24q.032.165.058.33c.104.561.12 1.134.048 1.699a1.52 1.52 0 0 1-1.034.713 5.2 5.2 0 0 1-2.82-.062 8.5 8.5 0 0 0-2.134-.295q-1.45.114-2.9.022a6.8 6.8 0 0 1-2.112-.523 2.64 2.64 0 0 1-1.263-1.202 1.95 1.95 0 0 1 1.157-1.892 4.4 4.4 0 0 1 2.17-.369c.814.035 1.42.163 2.142.141.495.003.985-.096 1.44-.291a1.4 1.4 0 0 0 .474-.625c.128-.25.176-.475.41-.492 0 0 3.396.061 3.735.105s.414 1.421.44 1.69.027.44.075.642c.057.137.088.273.114.409"/><path fill="#FAFAFA" d="M62.903 135.639a.4.4 0 0 0-.172-.071c-.33-.061-.594.251-.744.498a2.3 2.3 0 0 0-.189.488c-.07.207-.083.429-.035.642 0 .053.053.115.11.106s.066-.075.07-.123c.042-.3.136-.591.278-.858q.082-.172.215-.308a1 1 0 0 1 .335-.194c.048 0 .272 0 .22-.105a.1.1 0 0 0-.04-.044zM63.852 135.673a.6.6 0 0 0-.44.106.9.9 0 0 0-.273.44 1.38 1.38 0 0 0-.066 1.109c.058.101.15.053.185-.04a1.4 1.4 0 0 0 .053-.339c.047-.248.124-.491.229-.721q.056-.142.145-.264a.6.6 0 0 1 .154-.132l.088-.035h.092c0-.049-.048-.075-.096-.088zM64.826 135.436a.56.56 0 0 0-.286.176.8.8 0 0 0-.141.29 2.8 2.8 0 0 0-.159.718.9.9 0 0 0 .106.497c.03.061.097.119.163.092s.066-.136.07-.198c.005-.061 0-.233 0-.352.02-.426.175-.836.44-1.17a.1.1 0 0 0 .007-.029.1.1 0 0 0-.007-.028c0-.031-.053-.036-.083-.031a1 1 0 0 0-.11.035"/><path fill="#F7921E" d="M61.89 135.691c-.334 0-1.056.418-1.434 1.435a5.9 5.9 0 0 0-.216 2.314 3.3 3.3 0 0 1-1.83-.942 2 2 0 0 1-.44-.607 2.03 2.03 0 0 1 .4-1.553c.506-.568 1.272-.924 2.46-.946 1.32-.026 1.434.33 1.434.33z"/><path fill="#FFA8A7" d="M69.766 132.207s-.106 1.76-.242 2.556c-.075.44-.524 1.157-1.936 1.131a1.636 1.636 0 0 1-1.663-1.096 28 28 0 0 1-.08-3.19zM89.576 128.964l-2.227-4.814-4.373 1.083s3.63 5.328 3.995 5.808c.598.792 2.605-2.077 2.605-2.077"/><path fill="#455A64" d="M91.573 130.35q.036.303 0 .607l-.159 2.099a4.6 4.6 0 0 1-.114.823 5 5 0 0 0-.035.998v1.043a2 2 0 0 0 0 .44c.035.145-2.2 1.43-3.111 1.927l-.163.075a1.42 1.42 0 0 1-1.47-.343 2.49 2.49 0 0 1 .612-2.746s.115 0 .093-.88c0-.629 0-1.267-.07-1.896a4 4 0 0 0-.296-1.148 2.8 2.8 0 0 1-.387-1.065c.052-.273.174-.527.352-.739a2.3 2.3 0 0 1 .55-.594 4 4 0 0 1 1.584-.784c.117-.03.24-.03.356 0 .18.053.287.234.41.379.296.301.638.555 1.012.752.375.202.668.529.827.924a.3.3 0 0 0 .009.128"/><path fill="#F7921E" d="M87.11 135.278q-.165.207-.29.44a3.17 3.17 0 0 0-.316 2.323c-1.58-.145-1.998-1.056-1.998-1.056a1.52 1.52 0 0 1 .823-1.364q.163-.108.343-.18c.45-.207.954-.264 1.439-.163M92.013 130.578c.413.163.308 1.32.044 2.407s-.405 1.483-.273 2.398.211 1.32-.163 1.663c-.374.344-3.344 1.721-3.344 1.721.405-1.103.63-2.263.665-3.437.079-2.028.215-3.335 1.157-4.259a1.79 1.79 0 0 1 1.914-.493"/><path fill="#000" d="M92.013 130.578c.413.163.308 1.32.044 2.407s-.405 1.483-.273 2.398.211 1.32-.163 1.663c-.374.344-3.344 1.721-3.344 1.721.405-1.103.63-2.263.665-3.437.079-2.028.215-3.335 1.157-4.259a1.79 1.79 0 0 1 1.914-.493" opacity=".4"/><path fill="#37474F" d="M84.502 136.963a5.5 5.5 0 0 0 2.477 1.082c1.32.15 1.39-.356 1.532-1.927.14-1.571.193-3.74.81-4.699.615-.959 1.658-1.377 2.067-1.28.084-.044.489.259.625.44a2.28 2.28 0 0 0-1.76.695c-.827.809-.977 2.521-1.016 4.07s-.106 3.353-1.32 3.542a4.51 4.51 0 0 1-3.37-1.025.63.63 0 0 1-.045-.898"/><path fill="#FAFAFA" d="M87.203 134.701a.45.45 0 0 0-.18.286.88.88 0 0 0 .44.814c.167.097.308.057.04-.268a1.7 1.7 0 0 1-.3-.832M87.177 133.605a.4.4 0 0 0-.11.238 1.34 1.34 0 0 0 .546.88c.29.128.132-.194 0-.343a6 6 0 0 1-.436-.775M87.107 132.4a.257.257 0 0 0-.136.194c0 .128.59.576.774.559.185-.018.233-.075 0-.229s-.638-.524-.638-.524"/><path fill="#37474F" d="M85.154 128.964s-6.534-8.884-8.88-12.175a8 8 0 0 1-.88-2.059c-.286-1.065-2.103-7.617-2.103-7.617l-1.857 9.289c.252 1.555.4 3.125.44 4.699a21.4 21.4 0 0 1-.585 5.68c-.95 4.506-1.558 6.847-1.558 6.847a3.96 3.96 0 0 1-1.966.493c-1.94 0-2.108-.823-2.108-.823s-.312-7.001-.44-9.799c-.127-2.798-.334-5.57-.44-7.41-.136-2.934 0-5.601.273-11 .242-4.778 1.228-12.592 1.228-12.592l12.76-2.451s2.9 2.046 2.675 9.13c-.154 4.752.286 14.766.286 14.766 2.288 1.584 2.512 2.724 3.96 6.16.704 1.668 2.2 5.126 2.706 6.675-1.804.506-3.512 2.187-3.512 2.187"/><path fill="#263238" d="m73.309 107.113 1.452-6.476s1.905-.137 4.5-2.2c0 0-.241 1.698-3.634 3.014l-1.702 5.504 1.025 6.072z"/><path fill="#FFA8A7" d="m71.46 71.857.484 5.024 4.492-.277-.356-5.575z"/><path fill="#F28F8F" d="M68.358 66.026s-1.223 1.791-1.096 1.95q.356.225.766.32z"/><path fill="#FFA8A7" d="M71.17 61.658c-.827.44-2.262.853-2.904 3.23-.11.408.053 1.042 0 1.557s-.321 1.219-.334 1.68c-.062 2.42.633 3.349 1.056 3.745.334.317 2.072.44 2.978.158 1.131-.347 3.586-1.54 4.74-3.392 1.354-2.2 1.632-5.095.07-6.235a5.92 5.92 0 0 0-5.606-.743"/><path fill="#F28F8F" d="M69.066 71.936c.78.258 1.61.322 2.42.189l-.026-.643a6.4 6.4 0 0 1-1.144.37c-.41.09-.831.118-1.25.084"/><path fill="#263238" d="M69.894 60.768c-1.03.797-1.958 2.06-1.32 3.388.18.443.51.807.933 1.03-.057.31 0 .63.158.902.164.22.387.391.642.493a.2.2 0 0 1 .062.048.13.13 0 0 1 0 .07v.41a.54.54 0 0 0 .07.321.35.35 0 0 0 .374.106.63.63 0 0 0 .326-.242c.088-.106.154-.23.242-.34a1.2 1.2 0 0 1 .906-.584 1.03 1.03 0 0 1 1 .536 2.08 2.08 0 0 1-.19 1.725 1.36 1.36 0 0 1-.994.735.95.95 0 0 1-.748-.312s-.177 1.984 1.434 2.64a6.24 6.24 0 0 0 3.366-.132c.176-.066.44-.599.585-.753q.373-.45.757-.88a9 9 0 0 0 1.03-1.553 7.04 7.04 0 0 0 .791-3.96 5.2 5.2 0 0 0-.822-2.174c-1.162-2.983-5.874-3.581-8.602-1.474"/><path fill="#FFA8A7" d="M77.198 74.236c1.668-.391 3.52.792 4.576 3.41s2.526 7.573 2.754 9.364c.124.954.502 1.54-.791 2.138a21.7 21.7 0 0 1-5.87 1.76c.066-.035-1.32-3.406-1.32-3.406l3.414-1.06-.92-2.772z"/><path fill="#F7921E" d="M80.388 76.225c-.357-1.386-.819-2.292-3.45-2.169h-.365c-.937.136-2.249.216-4.66.396-.299.057-2.068.37-2.547.44l-.418.233c-1.598.524-2.838 1.232-3.908 5.769-.303 1.284-.123 2.45 1.47 3.687-.04 1.32.25 2.433.088 3.691-.515 3.987-.85 6.266-.85 6.266s3.591 1.68 9.025 1.153a11.23 11.23 0 0 0 6.248-2.552 47.5 47.5 0 0 0-2.437-5.597c.532-4.497 3.018-6.56 1.804-11.317"/><path fill="#FFA8A7" d="M70.36 74.76a21 21 0 0 0-5.13 1.052c-2.909.963-7.146 2.336-7.146 2.336s-7.643-3.212-8.02-3.617c-.38-.405-.476-1.465-.608-1.936a14 14 0 0 0-.819-2.103c-.206-.52-.81.123-.77.788.058.88.15 1.236-.066 1.412-.215.176-1.214-.59-2.68-2.2-.853-.937-1.49-1.76-1.891-1.408-.4.352 0 .752.63 1.624q.45.57.826 1.192c.08.14-.136.273-.215.356-.154.154-.44.405-.44.634q.015.187 0 .374c-.066.277-.392.44-.475.695-.058.198.03.41 0 .612 0 .132-.08.255-.097.383a.82.82 0 0 0 .308.69 6.4 6.4 0 0 0 1.874 1.074c.673.286 1.58.273 2.34.752.687.44 8.084 5.588 9.628 5.496 1.413-.08 5.505-.88 8.408-1.531 3.31-.717 5.197-3.362 4.4-6.486-.057-.105-.057-.189-.057-.189"/><path fill="#263238" d="M78.504 62.203s1.382.686 1.426 3.48c.03 1.985.101 4.612.123 7.133s.678 7.348-.409 8.087c-2.284 1.553-6.336 1.51-8.448.845s-1.043-5.364-1.32-6.934l-1.575.224c.26-.714.677-1.36 1.223-1.888a5.8 5.8 0 0 0 1.817-4.096c.4.999 1.641 1.35 2.83.567 1.187-.783 4.333-7.418 4.333-7.418"/></svg>