<svg xmlns="http://www.w3.org/2000/svg" width="256" height="256" fill="none"><path stroke="#D5D5D5" d="M233.39 171.936c0 16.853-11.634 32.201-30.638 43.364-18.992 11.156-45.263 18.072-74.307 18.072S73.13 226.456 54.137 215.3C35.133 204.137 23.5 188.789 23.5 171.936s11.633-32.202 30.637-43.364C73.13 117.416 99.4 110.5 128.445 110.5c29.044 0 55.315 6.916 74.307 18.072 19.004 11.162 30.638 26.511 30.638 43.364Z"/><path fill="#37474F" d="m100.091 78.67 121.008 95.094c3.035 2.389 2.686 4.917 2.412 7.189-.275 2.272-1.546 5.372-4.139 6.872l-66.429 38.335c-2.593 1.499-6.48 1.313-8.678-.414L23.23 130.68c-2.202-1.727-2.412-4.456-2.133-6.728.28-2.272 1.262-5.833 3.86-7.332L91.4 78.256c2.598-1.494 5.629-1.988 8.692.415"/><path fill="#263238" d="M96.535 81.642 28.21 121.09l121.548 95.442-1.29 10.634a7.4 7.4 0 0 1-4.19-1.42L23.229 130.68c-2.201-1.727-2.41-4.455-2.132-6.727.28-2.272 1.262-5.834 3.86-7.333L91.4 78.257c1.62-.931 3.576-1.583 5.676-1.085l-.038.33z"/><path fill="#455A64" d="M219.93 174.286 99.118 79.378c-1.74-1.368-4.846-1.513-6.9-.33l-64.877 37.451c-2.794 1.606-3.138 4.446-.778 6.299l120.067 94.316c1.537 1.21 4.274 1.341 6.09.289l66.638-38.471c2.053-1.187 2.314-3.278.572-4.646M59.777 151.269a4.1 4.1 0 0 1 1.304 3.389 1.42 1.42 0 0 1-.615 1.141c-.223.126-1.066.629-1.299.759a1.08 1.08 0 0 1-1.21-.224l-9.623-7.556a4.12 4.12 0 0 1-1.304-3.394 1.47 1.47 0 0 1 .573-1.113 51 51 0 0 1 1.34-.777 1.073 1.073 0 0 1 1.215.219z"/><path fill="#37474F" d="m58.488 152.019-9.624-7.561c-.866-.68-1.685-.266-1.834.931a4.12 4.12 0 0 0 1.303 3.394l9.624 7.556c.866.68 1.685.265 1.834-.931a4.11 4.11 0 0 0-1.303-3.389"/><path fill="#455A64" d="M42.938 138.045a4.08 4.08 0 0 1 1.303 3.39 1.45 1.45 0 0 1-.61 1.136c-.223.121-1.066.623-1.299.754a1.08 1.08 0 0 1-1.215-.224l-9.619-7.551a4.1 4.1 0 0 1-1.303-3.39 1.48 1.48 0 0 1 .572-1.117 45 45 0 0 1 1.337-.778 1.08 1.08 0 0 1 1.215.219z"/><path fill="#37474F" d="m41.648 138.791-9.619-7.556c-.866-.68-1.69-.265-1.834.931a4.1 4.1 0 0 0 1.303 3.389l9.62 7.557c.865.68 1.69.265 1.834-.931a4.1 4.1 0 0 0-1.304-3.39"/><path fill="#000" d="m101.302 84.589 112.813 88.627c1.662 1.308 1.425 3.3-.54 4.432l-60.273 34.806c-1.96 1.141-4.907 1.001-6.579-.312l-113.628-89.26c-1.354-1.061-1.457-2.57-.381-3.724.083-.089.163-.177.256-.261q.312-.26.665-.466l16.957-9.777 1.108-.637a1.95 1.95 0 0 1 2.039.097 2.04 2.04 0 0 0 2.118.052l19.764-11.407c.647-.377.763-1.01.247-1.397a.768.768 0 0 1 .056-1.313l.107-.065 16.593-9.577.349-.205c2.486-1.443 6.23-1.261 8.329.387"/><path fill="#EBEBEB" d="M53.404 110.852a1.95 1.95 0 0 0-2.04-.098l-1.108.624-16.956 9.777a5 5 0 0 0-.666.465c-.093.089-.172.173-.256.261s-.046.061-.074.093c.207.341.476.641.791.885l113.628 89.283c1.672 1.313 4.619 1.453 6.579.312l60.287-34.806a4 4 0 0 0 .997-.806 3.2 3.2 0 0 0-.792-.898L100.981 87.317c-2.1-1.648-5.843-1.83-8.33-.396l-.349.205-16.155 9.311s-.251 2.068-.28 2.328a1.06 1.06 0 0 1-.567.731l-19.778 11.416a2.05 2.05 0 0 1-2.118-.06"/><path fill="#455A64" d="M49.18 120.144a.15.15 0 0 1-.078-.037l-.238-.223-.754.433a.1.1 0 0 1-.056.021.1.1 0 0 1-.056-.021l-.093-.094a.13.13 0 0 1-.037-.046v-.051l-.06-1.253a.2.2 0 0 1 0-.051.1.1 0 0 1 .046-.042l.102-.056q.045-.015.089 0 .047.007.079.042l.843.773.167-.098a.12.12 0 0 1 .084-.018q.045.007.075.042l.06.051c.023.023.037.042.033.06-.005.019 0 .037-.047.056l-.167.093.242.224s.037.042.032.06c-.004.019 0 .037-.051.056l-.126.075a.17.17 0 0 1-.088.004m-.465-.465-.596-.55.052.866zM49.926 119.493a1.4 1.4 0 0 1-.778-.382.8.8 0 0 1-.33-.638.73.73 0 0 1 .428-.54q.157-.092.33-.144a1 1 0 0 1 .317-.056.1.1 0 0 1 .023-.006q.014 0 .024.006v.028l.037.139v.033h-.042a1.1 1.1 0 0 0-.465.149.46.46 0 0 0-.29.368.61.61 0 0 0 .257.465c.154.156.352.258.568.294a.82.82 0 0 0 .545-.112 1 1 0 0 0 .167-.121.5.5 0 0 0 .112-.121l-.391-.359-.317.182a.12.12 0 0 1-.083.023.2.2 0 0 1-.075-.042l-.056-.051c-.028-.028-.037-.046-.037-.065a.1.1 0 0 1 .051-.051l.498-.289a.16.16 0 0 1 .098-.023.2.2 0 0 1 .093.051l.559.512.037.047v.046a1.05 1.05 0 0 1-.465.466c-.242.155-.53.222-.815.191M56.174 115.753a.336.336 0 0 1-.103.564.69.69 0 0 1-.773-.061.34.34 0 0 1-.103-.308.34.34 0 0 1 .206-.251.71.71 0 0 1 .773.056"/><path fill="#455A64" d="M54.847 115.19a.96.96 0 0 0-.545 1.02.21.21 0 0 0 .214.126c.135 0 .238-.089.215-.187a.674.674 0 0 1 .381-.717 1.4 1.4 0 0 1 1.048-.107.234.234 0 0 0 .293-.107c.028-.074 0-.153-.12-.181a1.94 1.94 0 0 0-1.486.153"/><path fill="#455A64" d="M54.312 114.698a1.55 1.55 0 0 0-.899 1.503.2.2 0 0 0 .214.145c.13 0 .228-.084.219-.177a1.27 1.27 0 0 1 .726-1.229 2.54 2.54 0 0 1 1.816-.238.25.25 0 0 0 .284-.111c.028-.08-.037-.159-.14-.187a3.1 3.1 0 0 0-2.22.294M41.052 125.102l-.461-.428.8-.461.466.428zM42.258 124.409l-.927-.852.801-.465.927.852zM43.459 123.715l-1.392-1.281.805-.465 1.392 1.28zM44.665 123.017l-1.858-1.704.806-.465 1.853 1.708zM93.532 92.582a.65.65 0 0 0-.433.047L90.1 94.356c-.195.112-.19.345 0 .526l.843.778a.87.87 0 0 0 .438.204q.106.015.214 0a.5.5 0 0 0 .219-.06l2.998-1.727c.195-.112.19-.345 0-.526l-.843-.778a.9.9 0 0 0-.437-.19M91.39 95.74a.4.4 0 0 1-.186-.098l-.843-.773c-.149-.135-.154-.321 0-.4l2.998-1.728a.3.3 0 0 1 .117-.037h.055c.07.015.135.049.187.098l.842.778c.145.135.15.316 0 .4l-2.998 1.727a.25.25 0 0 1-.19.033z"/><path fill="#455A64" d="m91.05 94.273.996.932-.465.27a.16.16 0 0 1-.145 0l-.745-.68c-.102-.098-.107-.238 0-.298zM91.269 94.146l.563-.326.997.918-.564.325zM92.051 93.699l.563-.326 1.001.922-.563.321zM93.462 92.982l.721.661c.13.126.07.284-.163.414l-.186.112-1-.931.465-.256c.052-.02.11-.02.163 0M94.067 92.754c.084-.05.293.042.466.2l.153.145c.177.158.251.33.172.382l-.144.093-.796-.731zM85.747 97.7l2.463-2.094.74 2.025-1.34-.596z"/><path fill="#263238" d="m55.708 103.97 9.06-5.233a1.7 1.7 0 0 1 1.755.047c.429.335.34.866-.2 1.178l-9.06 5.228a1.69 1.69 0 0 1-1.755-.046c-.428-.336-.34-.862.2-1.174M69.098 95.804a1.97 1.97 0 0 1 2.04.098c.516.405.437 1.02-.168 1.396a1.98 1.98 0 0 1-2.04-.097c-.512-.429-.437-1.043.168-1.397"/><path fill="#455A64" d="M99.584 127.176a.27.27 0 0 1 .13.27.4.4 0 0 1-.214.252l-.894.516a.62.62 0 0 1-.759-.037l-.758-.596a.32.32 0 0 1-.145-.27.32.32 0 0 1 .191-.251l.899-.517a.7.7 0 0 1 .41-.098c.138.002.272.05.381.135zm5.531 4.344a.27.27 0 0 1 .13.27.4.4 0 0 1-.209.251l-.899.517a.62.62 0 0 1-.385.109.64.64 0 0 1-.374-.146l-.754-.596a.31.31 0 0 1-.149-.27.3.3 0 0 1 .064-.152.3.3 0 0 1 .132-.099l.894-.517a.7.7 0 0 1 .409-.098.65.65 0 0 1 .382.135zM104.566 117.227a.648.648 0 0 1 .791.037l.238.186a.33.33 0 0 1 .121.154q.023.083.032.167l-.032 5.336.372-.214a9.4 9.4 0 0 1 1.932-.857 7 7 0 0 1 1.932-.33 5.7 5.7 0 0 1 1.863.27c.615.205 1.188.52 1.69.931.461.332.828.778 1.066 1.294a2.1 2.1 0 0 1 .093 1.346 3.15 3.15 0 0 1-.778 1.317c-.454.475-.976.88-1.55 1.201a9.2 9.2 0 0 1-2.095.894 8.3 8.3 0 0 1-1.997.326 6.3 6.3 0 0 1-1.737-.172 3.7 3.7 0 0 1-1.331-.596.24.24 0 0 1-.112-.242.4.4 0 0 1 .205-.224l.26-.149a.9.9 0 0 1 .35-.116.93.93 0 0 1 .516.112c.42.206.875.334 1.341.377.439.038.88.018 1.313-.061a5.8 5.8 0 0 0 1.239-.358 10 10 0 0 0 1.098-.536c.432-.239.83-.535 1.183-.88.273-.256.48-.576.6-.931a1.4 1.4 0 0 0-.055-.973 2.4 2.4 0 0 0-.783-.931 3.62 3.62 0 0 0-2.504-.838 6.4 6.4 0 0 0-2.794.931l-1.639.931a.63.63 0 0 1-.759-.032l-.237-.186a.6.6 0 0 1-.168-.196.6.6 0 0 1-.041-.2v-5.28l-5.634 3.259a.62.62 0 0 1-.754-.037l-.238-.186q-.364-.285.047-.522zM122.76 121.322c.233.181.21.349-.06.507l-.359.205a.633.633 0 0 1-.759-.037l-9.428-7.398-1.159 3.641q-.132.354-.642.284l-.429-.056a.58.58 0 0 1-.353-.149.25.25 0 0 1-.061-.275l1.397-4.334a.46.46 0 0 1 .149-.21 1.4 1.4 0 0 1 .223-.153l.359-.205a.616.616 0 0 1 .754.037z"/><path fill="#fff" d="m91.697 154.849 47.824-27.613a4.16 4.16 0 0 1 4.307.209l10.875 8.539c1.09.856.931 2.155-.354 2.896l-47.828 27.613a4.15 4.15 0 0 1-4.307-.205l-10.875-8.539c-1.067-.856-.931-2.141.358-2.9M111.289 170.245l47.828-27.613a4.16 4.16 0 0 1 4.307.205l10.871 8.538c1.094.857.931 2.156-.354 2.901l-47.819 27.613a4.17 4.17 0 0 1-4.307-.205l-10.871-8.543c-1.117-.857-.94-2.17.345-2.896M130.885 185.636l47.847-27.613a4.14 4.14 0 0 1 4.306.205l10.853 8.553c1.089.856.931 2.151-.359 2.896l-47.824 27.604a4.16 4.16 0 0 1-4.306-.205l-10.876-8.544c-1.089-.856-.931-2.151.359-2.896"/><path fill="#E0E0E0" d="M150.332 186.861h-.024a4.73 4.73 0 0 1-3.049-.806l-1.397-1.099c-1.592-1.252-4.409-1.396-6.29-.298-1.862 1.085-2.114 2.98-.521 4.233l1.247.977a2.1 2.1 0 0 1 .871 2.249l.261.587a1.51 1.51 0 0 0 1.583.074l7.952-4.581a.607.607 0 0 0 .34-.816.6.6 0 0 0-.21-.25 1.35 1.35 0 0 0-.763-.27m-1.397 5.144c.903-.521 1.015-1.434.247-2.034l-3.259 1.89a2.93 2.93 0 0 0 3.012.144M130.777 171.107h-.023a4.7 4.7 0 0 1-3.049-.806l-1.397-1.098c-1.597-1.253-4.414-1.397-6.295-.298-1.862 1.084-2.113 2.979-.516 4.232l1.247.977a2.12 2.12 0 0 1 .871 2.249l.256.587a1.53 1.53 0 0 0 1.583.074l7.957-4.59a.608.608 0 0 0 .13-1.067 1.35 1.35 0 0 0-.764-.26m-1.396 5.121c.903-.521 1.015-1.429.251-2.03l-3.259 1.862a2.9 2.9 0 0 0 3.008.187z"/><g fill="#fff" opacity=".3"><path d="m148.823 121.532-14.608-11.47-23.354 74.789 14.603 11.474zM192.922 159.217l-24.756-19.451-22.595 72.357 2.285 1.799c1.694 1.331 4.682 1.472 6.669.316l25.885-14.948zM97.569 174.415l23.355-74.793-19.116-15.015c-2.13-1.67-5.924-1.855-8.445-.401l-.353.208-10.134 5.848-18.21 58.32z"/></g><path fill="#000" d="M135.371 170.441c17.323 0 31.366-7.36 31.366-16.439s-14.043-16.44-31.366-16.44c-17.322 0-31.365 7.361-31.365 16.44s14.043 16.439 31.365 16.439" opacity=".2"/><path fill="#37474F" d="M149.069 163.163s9.753-3.515 12.933-8.669c-.293-5.712-.842-15.969-.931-15.904l-18.385 1.904 3.887 16.119z"/><path fill="#455A64" d="M156.238 153.076c1.723-2.984 3.222-10.149 3.227-12.57h-49.728s-.931 10.745-.852 15.066v.046c1.038 2.566 3.482 4.139 9.051 6.556 10.307 4.465 24.293 3.785 31.128.987v-2.277s5.452-4.823 7.174-7.808"/><path fill="#FFA8A7" d="M169.009 91.894c8.101 7.067 9.586 8.51 9.586 8.51 2.23-9.278 4.074-15.764 4.358-19.703s5.373-12.57 5.373-12.57c4.055 1.047 7.24 7.449 5.186 13.967-1.494 4.744 1.332 16.295-1.573 31.552-1.523 7.989-5.946 9.88-14.531 5.033-6.015-3.394-16.877-11.258-16.877-11.258l-8.245-27.422c6.914 1.22 8.832 5.005 16.723 11.89"/><path fill="#455A64" d="M153.613 79.883c3.92.773 6.615 2.793 11.09 7.244s13.939 13.036 13.939 13.036a22.9 22.9 0 0 0-.419 13.227c1.676 6.444 4.269 7.529 4.269 7.529s-2.044.591-7.449-2.896-17.44-12.105-17.44-12.105z"/><path fill="#37474F" d="M179.107 98.29s-.931 14.792 3.604 18.912 7.449 1.397 7.449 1.397-.237 4.19-2.993 4.064c-2.757-.125-3.185.079-4.805.028s-4.162-.274-5.312-3.51c-3.39-6.551-2.142-15.15.214-20.327.787.4.782-.731 1.843-.564"/><path fill="#F28F8F" d="M199.988 68.526c-.107 2.658-1.14 4.465-1.68 5.829-2.095 5.293-3.259 4.656-5.354 8.743l-4.391-11.355c-1.913-3.357-.405-4.847 2.552-5.55z"/><path fill="#455A64" d="M174.14 63.925a6.43 6.43 0 1 0 7.149-10.69 6.43 6.43 0 0 0-7.149 10.69"/><path fill="#37474F" d="m176.603 61.709 7.519-3.725a6.431 6.431 0 0 1-12.352 3.03c1.038 1.389 2.416 1.882 4.833.695"/><path fill="#37474F" d="m182.11 60.001.336-5.163a66.2 66.2 0 0 0 14.465 11.84l-.135 2.067c-3.413-1.025-9.349-4.721-14.666-8.744"/><path fill="#455A64" d="m179.047 64.504 3.045-.233 5.88 3.874a9 9 0 0 0 8.823.6c-3.986-1.396-9.815-5.12-14.685-8.743z"/><path fill="#F7921E" d="M189.024 63.997v.154a.85.85 0 0 1-.423.633l-1.067.526c-.218.107-.228.302-.028.438l.126.083a.85.85 0 0 0 .764.051l1.08-.53a.83.83 0 0 0 .419-.633v-.145a.85.85 0 0 0-.345-.684l-.125-.089c-.21-.125-.387-.037-.401.196M191.031 65.154v.15a.86.86 0 0 1-.428.638l-1.062.52c-.219.112-.233.308-.028.443l.126.084a.85.85 0 0 0 .763.051l1.08-.53a.81.81 0 0 0 .415-.639v-.144a.85.85 0 0 0-.345-.684l-.125-.084c-.205-.135-.382-.033-.396.195M193.037 66.324v.153a.862.862 0 0 1-.428.638l-1.061.521c-.219.108-.233.303-.028.443l.125.079a.82.82 0 0 0 .759.051l1.08-.53a.82.82 0 0 0 .419-.634v-.144a.886.886 0 0 0-.344-.684l-.126-.084c-.205-.163-.382-.075-.396.19M179.159 49.465c-.89.438-1.513 1.397-1.709 2.83 0 .15-.037.303-.047.466-.009.163 0 .377 0 .573q.002.484.066.963.112.922.381 1.812a12.7 12.7 0 0 0 2.431 4.478 9.1 9.1 0 0 0 1.788 1.611c1.359.931 2.635 1.09 3.612.648l-3.352 1.652a4.19 4.19 0 0 1-4.06-.419 8.7 8.7 0 0 1-1.713-1.531 12.6 12.6 0 0 1-2.505-4.563 10 10 0 0 1-.381-1.807 8 8 0 0 1-.066-.968v-.568c0-.186.028-.312.052-.466a4.19 4.19 0 0 1 2.09-3.012l.093-.046a1 1 0 0 1 .121-.056z"/><path fill="#000" d="M182.315 64.5a4.19 4.19 0 0 1-4.06-.42 8.7 8.7 0 0 1-1.713-1.53l3.725-1.956a9.1 9.1 0 0 0 1.788 1.61c1.359.932 2.635 1.09 3.612.648z" opacity=".1"/><path fill="#F7921E" d="M182.851 50.08c2.793 1.863 4.874 6.09 4.655 9.433-.107 1.685-.782 2.826-1.778 3.305l-.056.028c-.978.466-2.253.266-3.613-.647-2.793-1.862-4.87-6.09-4.656-9.437.112-1.667.773-2.794 1.756-3.292.982-.498 2.295-.326 3.692.61"/><path fill="#000" d="M182.851 50.08c2.793 1.863 4.874 6.09 4.655 9.433-.107 1.685-.782 2.826-1.778 3.305l-.056.028c-.978.466-2.253.266-3.613-.647-2.793-1.862-4.87-6.09-4.656-9.437.112-1.667.773-2.794 1.756-3.292.982-.498 2.295-.326 3.692.61" opacity=".2"/><path fill="#F7921E" d="M191.096 36.191s-.703 5.922 3.32 14.056a36 36 0 0 0 2.444 4.218c3.375 4.996 6.676 6.984 6.676 6.984-4.097-.838-8.525-1.434-12.901-.414a50 50 0 0 0-5.047 1.475c-.903.443-2.095.256-3.347-.582a9.2 9.2 0 0 1-2.24-2.211 11.7 11.7 0 0 1-1.098-1.82 10.4 10.4 0 0 1-1.164-5.122c.102-1.504.679-2.565 1.578-3.007a50 50 0 0 0 4.246-3.101c3.473-2.845 5.699-6.718 7.533-10.476"/><path fill="#fff" d="M191.096 36.191s-.703 5.922 3.32 14.056a36 36 0 0 0 2.444 4.218c3.375 4.996 6.676 6.984 6.676 6.984-4.097-.838-8.525-1.434-12.901-.414a50 50 0 0 0-5.047 1.475c-.903.443-2.095.256-3.347-.582a9.2 9.2 0 0 1-2.24-2.211 11.7 11.7 0 0 1-1.098-1.82 10.4 10.4 0 0 1-1.164-5.122c.102-1.504.679-2.565 1.578-3.007a50 50 0 0 0 4.246-3.101c3.473-2.845 5.699-6.718 7.533-10.476" opacity=".6"/><path fill="#000" d="M196.86 54.466c3.375 4.995 6.676 6.983 6.676 6.983-4.097-.838-8.525-1.434-12.901-.414a50 50 0 0 0-5.047 1.476c-.903.442-2.095.256-3.347-.582a9.2 9.2 0 0 1-2.24-2.212c3.911-2.24 10.615-5.577 16.859-5.251" opacity=".1"/><path fill="#F7921E" d="M202.964 32.09c2.905 1.946 5.493 4.968 7.449 8.422 2.486 4.428 3.92 9.559 3.627 14.028-.527 7.966-6.332 10.825-12.967 6.388a21.2 21.2 0 0 1-4.241-3.832 29.8 29.8 0 0 1-6.472-13.45 24 24 0 0 1-.288-2.007 17 17 0 0 1-.065-.829 16 16 0 0 1-.033-1.159c.005-.382 0-.791.037-1.178.498-7.961 6.299-10.82 12.953-6.383"/><path fill="#000" d="M210.385 40.518c2.486 4.427 3.92 9.558 3.627 14.027-.527 7.966-6.332 10.825-12.967 6.388a21.2 21.2 0 0 1-4.241-3.832c1.117.182 3.259-.395 2.835-1.592a19.2 19.2 0 0 0 3.771 3.39c1.905 1.275 3.725 1.862 5.271 1.75a4.1 4.1 0 0 0 3.166-1.937 9.5 9.5 0 0 0 1.354-4.656c.252-3.803-.907-8.23-2.937-12.179 0 .023.544-.13.121-1.36" opacity=".1"/><path fill="#F7921E" d="M202.842 33.05c2.929 1.96 5.55 5.2 7.422 8.845 2.03 3.948 3.189 8.38 2.938 12.18a9.5 9.5 0 0 1-1.355 4.655 4.1 4.1 0 0 1-3.166 1.937c-1.541.13-3.366-.466-5.271-1.75a19.2 19.2 0 0 1-3.771-3.39q-.66-.759-1.275-1.602a28 28 0 0 1-1.965-3.086c-.121-.224-.238-.466-.354-.67q-.293-.56-.559-1.127a28 28 0 0 1-1.513-3.986v-.046a23.5 23.5 0 0 1-.875-4.53c0-.261-.042-.517-.051-.773-.01-.256 0-.615 0-.931s0-.587.032-.876a9.54 9.54 0 0 1 1.355-4.655c1.658-2.533 4.805-2.598 8.408-.196"/><path fill="#000" d="M202.842 33.05c2.929 1.96 5.55 5.2 7.422 8.845 2.03 3.948 3.189 8.38 2.938 12.18a9.5 9.5 0 0 1-1.355 4.655 4.1 4.1 0 0 1-3.166 1.937c-1.541.13-3.366-.466-5.271-1.75a19.2 19.2 0 0 1-3.771-3.39q-.66-.759-1.275-1.602a28 28 0 0 1-1.965-3.086c-.121-.224-.238-.466-.354-.67q-.293-.56-.559-1.127a28 28 0 0 1-1.513-3.986v-.046a23.5 23.5 0 0 1-.875-4.53c0-.261-.042-.517-.051-.773-.01-.256 0-.615 0-.931s0-.587.032-.876a9.54 9.54 0 0 1 1.355-4.655c1.658-2.533 4.805-2.598 8.408-.196" opacity=".4"/><path fill="#37474F" d="m200.338 42.262 3.901 7.766c-1.783.963-3.976 2.123-5.461 4.45a23 23 0 0 1-.41-.549 27.5 27.5 0 0 1-1.964-3.087c-.126-.223-.243-.465-.359-.67q-.293-.56-.559-1.127a28 28 0 0 1-1.513-3.985v-.047a25 25 0 0 1-.163-.591c2.78.196 6.528-2.16 6.528-2.16"/><path fill="#F7921E" d="M204.672 49.563c-.521.777-1.452.819-2.5.12h-.033a6.88 6.88 0 0 1-2.751-5.586v-.038c.013-.46.146-.91.386-1.303.517-.773 1.453-.82 2.5-.117h.033a6.9 6.9 0 0 1 2.747 5.587v.038c-.018.46-.15.908-.386 1.303z"/><path fill="#FFA8A7" d="M190.146 61.976s1.318-.392 1.783-.466c1.108-.242 1.933-.643 2.761.172.284.28.466.806.773 1.03s1.09.148 1.527.241c.514.087.977.363 1.299.773.21.293.266.829.55 1.001s.931.182 1.345.354c.894.386 1.145 1.578 1.476 2.393s.954 2.095.573 3.04a4.15 4.15 0 0 1-1.453 1.704 23 23 0 0 1-2.253 1.541 1.4 1.4 0 0 1-1.802-.465c-.559-.722-1.62-.466-2.291-1.085-.293-.275-.377-.685-.661-.964a2.2 2.2 0 0 1-.773-1.034c-.228-.842.182-1.755.354-2.574a5.06 5.06 0 0 0-.233-2.258c-.153-.536-.4-1.369-.875-1.737z"/><path fill="#FFA8A7" d="M182.944 80.703c.112-4.959-.191-7.091-.182-9.433 0-2.668 1.863-4.19 4.065-5.964a26 26 0 0 0 3.291-3.059c.824-.931 1.555 1.909 1.397 2.97-.2 1.276-1.397 2.733-2.174 3.87-1.793 2.588 5.27 6.2 3.613 14.013-1.63 2.542-10.01-2.397-10.01-2.397"/><path fill="#FAFAFA" d="M160.294 100.555c-.433-15.48-7.291-19.726-9.992-20.844L139.306 77.5c-3.357.368-17.655 4.656-21.598 5.633-2.533.624-2.417 5.56-3.697 13.688-1.038 6.602-1.62 12.166-2.244 21.37-.526 7.715-1.146 16.5.219 27.413 17.393 5.308 34.084 7.85 47.023-2.062-.303-2.175 1.015-20.285 1.122-25.607s.279-13.19.163-17.38"/><path fill="#F7921E" d="m114.742 83.5 13.921-4.418s1.177 3.622 3.775 10.606c2.598 6.983 2.449 11.285 1.672 22.981-.778 11.695-1.029 36.845-2.142 47.311-5.205.242-19.48-3.911-23.744-9.679 0 0 1.476-21.202 2.141-33.168.666-11.965-1.773-30.788 4.377-33.633"/><path fill="#000" d="m114.742 83.5 13.921-4.418s1.177 3.622 3.775 10.606c2.598 6.983 2.449 11.285 1.672 22.981-.778 11.695-1.029 36.845-2.142 47.311-5.205.242-19.48-3.911-23.744-9.679 0 0 1.476-21.202 2.141-33.168.666-11.965-1.773-30.788 4.377-33.633" opacity=".15"/><path fill="#F7921E" d="M144.185 79.516c4.553 2.272 7.323 7.817 7.77 15.173s2.077 22.073 2.328 27.618c1.131 24.103 2.361 30.579 2.361 30.579 2.262-1.164 5.074-2.542 5.475-5.857-.508-5.159-.824-24.876-.866-29.48-.042-4.605-.303-15.252-.466-20.881s-1.527-12.724-6.234-16.542a46.8 46.8 0 0 0-10.196-1.862z"/><path fill="#000" d="M144.185 79.516c4.553 2.272 7.323 7.817 7.77 15.173s2.077 22.073 2.328 27.618c1.131 24.103 2.361 30.579 2.361 30.579 2.262-1.164 5.074-2.542 5.475-5.857-.508-5.159-.824-24.876-.866-29.48-.042-4.605-.303-15.252-.466-20.881s-1.527-12.724-6.234-16.542a46.8 46.8 0 0 0-10.196-1.862z" opacity=".15"/><path fill="#F7921E" d="M152.286 98.946c-.154-5.396-2.328-15.225-7.915-17.692a4.7 4.7 0 0 1-.186-1.723l.312-2.765a23.8 23.8 0 0 1 4.707 2.858c2.328 1.863 6.173 7.394 6.904 11.64-2.304-2.36-3.617 1.005-3.822 7.682"/><path fill="#fff" d="M152.286 98.946c-.154-5.396-2.328-15.225-7.915-17.692a4.7 4.7 0 0 1-.186-1.723l.312-2.765a23.8 23.8 0 0 1 4.707 2.858c2.328 1.863 6.173 7.394 6.904 11.64-2.304-2.36-3.617 1.005-3.822 7.682" opacity=".45"/><path fill="#263238" d="M129.403 73.749c-.992-3.674-5.075-7.217-7.058-10.313-1.914-2.984-3.106-5.326-3.203-8.297-.056-1.755.819-4.232 2.067-4.85-2.114-6.351 2.472-9.829 5.005-10.709a28 28 0 0 0 3.482-1.336c1.355-.722 1.564-1.862 2.607-2.957 1.797-1.862 5.084-2.192 6.574.196 1.141-1.802 2.91-1.927 4.996-1.602a3.49 3.49 0 0 1 3.04 3.678c2.579-1.783 5.261-.097 5.661 1.481.298 1.164.14 2.184 1.015 3.166.983 1.113 2.631.931 3.036-.075.442 1.653-.093 2.994-1.918 3.073a3.84 3.84 0 0 1 .768 3.17 3.5 3.5 0 0 1-2.919 2.701c-.103.931-.065 1.788-.568 2.635a6.05 6.05 0 0 1-1.956 2.137c-2.63 1.574-5.638 2.29-8.552 3.19l-3.45 1.06c-.205.066-1.262.229-1.369.425z"/><path fill="#FFA8A7" d="M124.416 69.35c2.794 1.317 4.395-.545 4.395-.545l.303 6.578.149 7.123s7.449 7.962 17.566 7.482c.512-2.272-.228-6.257-1.862-8.213l-.251-5.824a36 36 0 0 0 4.422-.624c2.892-.675 5.145-3.226 5.676-6.476.558-3.399.284-8.846-.81-12.738a11 11 0 0 1-.466-3.059c.023-2.751-.619-4.288-1.536-6.518-3.469-2.286-12.631-1.96-19.177 2.92 1.843 3.412 1.233 7.095-1.607 8.957.247 1.103.652 3.91-1.187 4.032-1.327.088-1.573-1.56-3.068-2.892-1.494-1.331-4.697-1.424-5.722.848-1.429 3.18.14 7.505 3.175 8.948"/><path fill="#F28F8F" d="M144.72 75.951c-4.693-.107-8.268-.28-11.006-3.412-1.718-1.97-3.324-5.238-3.324-5.238s.866 4.064 2.649 6.709c1.369 2.034 4.409 3.552 11.751 3.487z"/><path fill="#263238" d="M141.042 57.755a1.31 1.31 0 0 1-.753 1.241 1.32 1.32 0 0 1-1.437-.212 1.31 1.31 0 0 1 .083-2.02c.206-.157.453-.25.71-.266a1.33 1.33 0 0 1 1.397 1.257M139.673 53.958l-2.714 1.704a1.68 1.68 0 0 1 .526-2.267 1.57 1.57 0 0 1 1.778.09c.167.128.307.29.41.473M151.881 53.434l-3.185-.559a1.556 1.556 0 0 1 1.811-1.336 1.7 1.7 0 0 1 1.374 1.895M151.597 56.416a1.316 1.316 0 0 1-1.497 1.351 1.31 1.31 0 0 1-1.083-.959 1.312 1.312 0 0 1 1.16-1.649 1.34 1.34 0 0 1 1.42 1.257"/><path fill="#F28F8F" d="M150.354 61.533 145.991 64l-2.249-8.78c1.63-.778 4.195 3.11 6.612 6.313"/><path fill="#B16668" d="m141.536 66.527 5.587.647a2.77 2.77 0 0 1-1.949 2.447 2.8 2.8 0 0 1-1.096.105 2.94 2.94 0 0 1-2.542-3.199"/><path fill="#F28F8F" d="M142.285 67.35q-.343.001-.68.074a2.91 2.91 0 0 0 2.463 2.3c.301.03.605.009.899-.06-.037-1.267-1.215-2.296-2.682-2.314"/><path fill="#F7921E" d="M134.594 100.908c-.326-10.596-4.656-11.541-5.997-8.194-3.287-6.052-2.998-10.973-2.756-12.924 1.206-1.704 1.681-2.794 2.091-3.418.253-.469.676-.823 1.182-.991l.126 2.663s.33 3.105 3.105 7.244c2.039 3.04 2.519 6.733 2.249 15.62"/><path fill="#fff" d="M134.594 100.908c-.326-10.596-4.656-11.541-5.997-8.194-3.287-6.052-2.998-10.973-2.756-12.924 1.206-1.704 1.681-2.794 2.091-3.418.253-.469.676-.823 1.182-.991l.126 2.663s.33 3.105 3.105 7.244c2.039 3.04 2.519 6.733 2.249 15.62" opacity=".45"/><path fill="#455A64" d="M117.54 82.62c-8.45 2.555-12.221 3.966-14.968 9.427s-7.524 18.972-10.187 27.194c-2.286 7.03-3.534 13.432-2.02 16.668l16.453-5.336 8.687-21.262s5.643-13.19 2.035-26.692"/><path fill="#37474F" d="M106.445 124.227c1.201-.149 2.403.037 3.543-.382a2.06 2.06 0 0 0 1.323-1.043c.256-.703-.233-1.448-.759-1.979a10.6 10.6 0 0 0-5.359-2.77 16.55 16.55 0 0 0-11.407 1.811c-2.062 1.113-4.586 2.622-4.73 5.247-.046.792.13 1.607-.107 2.361-.158.503-.493.931-.675 1.429a4.9 4.9 0 0 0-.237 1.397 3.7 3.7 0 0 0 .153 1.695c.14.335.382.628.526.963q.232.794.363 1.611c.308 1.08 1.48 2.328 2.463 1.243.89-.987 1.192-2.328 1.774-3.496.675-1.346 1.937-2.379 3.124-3.259a30.7 30.7 0 0 1 5.154-3.026 20.2 20.2 0 0 1 4.297-1.672c.186-.074.368-.107.554-.13"/><path fill="#F28F8F" d="M112.577 118.934c-1.56 1.862-6.262 2.416-9.572 3.342s-7.384 2.501-9.647 5.96c-1.993 3.04-4.097 5.545-3.105 7.938.684 1.648 4.455 2.523 8.878 2.556s8.38-3.999 13.036-6.821a1253 1253 0 0 0 5.829-3.548z"/><path fill="#FFA8A7" d="M118.192 121.592c-1.439-1.499-1.676-3.003-3.832-4.283s-3.524-1.262-5.82-2.486c-2.295-1.225-4.162-1.863-5.922-1.332s-1.504 1.541-.205 2.393 3.534 1.983 5.08 3.157 3.063 1.862 3.031 3.836a88 88 0 0 1-.876 9.386c-.465 3.32-1.201 6.001-.959 6.364.242.364 1.667.554 2.58-1.285.912-1.839 2.179-8.589 2.179-8.589s.554 4.706.758 7.947c.205 3.24.261 5.717.34 6.406s2.384.205 2.794-2.225c.409-2.431.07-9.68.07-9.68s1.862 3.329 3.03 5.49c1.169 2.16 2.65 5.093 3.134 5.819.484.727 1.965-.517 1.653-2.463s-2.71-6.746-2.71-6.746 2.947 3.203 3.468 3.52c.522.317 2.123.098 1.616-2.053-.34-1.444-1.238-2.37-3.604-5.182s-2.327-3.953-3.04-5.233c-.95-1.695-1.718-1.695-2.765-2.761"/><path fill="#F28F8F" d="M112.177 122.603c2.379 1.108 4.758.074 5.093-.517-.186 1.653-3.501 2.561-5.093.517M127.648 136.006c-.229.298-.932.387-1.509-.13s-2.062-2.226-2.724-3.013c-.661-.786-2.937-3.58-2.937-3.58l2.044 4.018s2.947 3.203 3.468 3.52a1.17 1.17 0 0 0 1.436-.337c.109-.14.185-.304.222-.478"/><path fill="#F7921E" d="M167.209 40.738a.51.51 0 0 1 .382-.19.53.53 0 0 1 .405.125l1.997 1.7a.54.54 0 0 1 .196.376.56.56 0 0 1-.131.41l-1.359 1.602a.53.53 0 0 1-.382.19.54.54 0 0 1-.41-.125l-1.997-1.7a.54.54 0 0 1-.191-.381.51.51 0 0 1 .131-.405zm7.333-8.632a.51.51 0 0 1 .382-.19.53.53 0 0 1 .409.125l1.993 1.7a.53.53 0 0 1 .195.381.53.53 0 0 1-.13.405l-5.796 6.83a.54.54 0 0 1-.382.191.53.53 0 0 1-.41-.13l-2.002-1.686a.564.564 0 0 1-.065-.791zM161.352 34.645a.564.564 0 0 1 .643-.466l2.584.428a.55.55 0 0 1 .363.229.52.52 0 0 1 .097.414l-.339 2.072a.55.55 0 0 1-.233.363.51.51 0 0 1-.415.098l-2.584-.429a.52.52 0 0 1-.363-.228.5.5 0 0 1-.09-.197.5.5 0 0 1-.007-.217zm1.862-11.174a.56.56 0 0 1 .233-.363.51.51 0 0 1 .415-.098l2.583.428a.52.52 0 0 1 .364.228.52.52 0 0 1 .097.415l-1.462 8.846a.53.53 0 0 1-.232.363.51.51 0 0 1-.415.098l-2.584-.429a.52.52 0 0 1-.363-.228.548.548 0 0 1-.098-.414z"/><path fill="#fff" d="M161.352 34.645a.564.564 0 0 1 .643-.466l2.584.428a.55.55 0 0 1 .363.229.52.52 0 0 1 .097.414l-.339 2.072a.55.55 0 0 1-.233.363.51.51 0 0 1-.415.098l-2.584-.429a.52.52 0 0 1-.363-.228.5.5 0 0 1-.09-.197.5.5 0 0 1-.007-.217zm1.862-11.174a.56.56 0 0 1 .233-.363.51.51 0 0 1 .415-.098l2.583.428a.52.52 0 0 1 .364.228.52.52 0 0 1 .097.415l-1.462 8.846a.53.53 0 0 1-.232.363.51.51 0 0 1-.415.098l-2.584-.429a.52.52 0 0 1-.363-.228.548.548 0 0 1-.098-.414z" opacity=".3"/><path fill="#F7921E" d="m44.6 86.189-4.73-2.732a.45.45 0 0 1-.222-.197l-.853-1.519 2.808-1.622-.085.248z"/><path fill="#000" d="m44.6 86.189-4.73-2.732a.45.45 0 0 1-.222-.197l-.853-1.519 2.808-1.622-.085.248z" opacity=".2"/><path fill="#F7921E" d="m41.16 80.348 3.277 5.668a.486.486 0 0 0 .854-.085l3.466-9.988z"/><path fill="#F7921E" d="M102.766 20.587a5.05 5.05 0 0 0-2.288-3.96l-1.86-1.076a5.03 5.03 0 0 0-4.576 0L27.288 54.075A5.05 5.05 0 0 0 25 58.035v21.58a5.04 5.04 0 0 0 2.288 3.962l1.87 1.075a5.01 5.01 0 0 0 4.566 0l66.968-38.678c2.057-1.178 2.074-2.347 2.074-3.807z"/><path fill="#F7921E" d="M102.766 20.587a5.05 5.05 0 0 0-2.288-3.96l-1.86-1.076a5.03 5.03 0 0 0-4.576 0L27.288 54.075A5.05 5.05 0 0 0 25 58.035v21.58a5.04 5.04 0 0 0 2.288 3.962l1.87 1.075a5.01 5.01 0 0 0 4.566 0l66.968-38.678c2.057-1.178 2.074-2.347 2.074-3.807z"/><path fill="#000" d="M25 79.617a5.04 5.04 0 0 0 2.288 3.96l1.87 1.076a5.12 5.12 0 0 0 4.182.196c-1.076.402-1.895-.213-1.895-1.51V61.75c.028-.795.257-1.57.666-2.254l-6.437-3.713A4.64 4.64 0 0 0 25 58.037z" opacity=".2"/><path fill="#fff" d="M102.689 19.937c-.265-.973-1.152-1.28-2.211-.674L33.724 57.796a4.5 4.5 0 0 0-1.605 1.707l-6.436-3.714c.38-.7.936-1.288 1.613-1.707L94.033 15.55a5.12 5.12 0 0 1 4.584 0l1.861 1.076a5.05 5.05 0 0 1 2.211 3.312" opacity=".4"/><path fill="#E0E0E0" d="m39.1 65.32 2.115 4.233-1.393.805-.36-.848-2.025 1.158-.361 1.274-1.368.79 2.09-6.65zm-1.27 3.97 1.22-.704-.614-1.393zM46.09 61.283l.019 5.45-1.105.635-2.1-1.7.007 2.908-1.31.755-.014-5.446 1.1-.635 2.1 1.692-.006-2.901zM51.554 58.133l.015 5.445-1.105.636-2.1-1.7.007 2.908-1.313.762-.015-5.45 1.101-.634 2.1 1.692-.007-2.901zM54.889 56.092c1.52-.877 2.641-.325 2.645 1.31s-1.108 3.475-2.627 4.352c-1.52.877-2.635.321-2.642-1.313-.007-1.635 1.112-3.476 2.624-4.35m0 4.388a2.75 2.75 0 0 0 1.274-2.295c0-.942-.563-1.23-1.285-.816a2.76 2.76 0 0 0-1.274 2.292c0 .942.567 1.234 1.285.82M62.648 51.727v3.017a4.31 4.31 0 0 1-2.223 3.821c-1.397.805-2.227.361-2.23-1.248v-3.021l1.342-.772v2.97c0 .934.34 1.115.902.79s.895-.891.891-1.826v-2.97zM68.064 48.598l.015 5.445-1.104.639-2.1-1.7.006 2.909-1.31.754-.014-5.445 1.1-.636 2.105 1.693-.011-2.901zM71.38 46.575c.874-.506 1.574-.542 2.04-.148l-.852 1.378a.92.92 0 0 0-1.119 0 2.75 2.75 0 0 0-1.317 2.317c0 .935.549 1.245 1.325.798.49-.312.878-.76 1.118-1.289l.856.394a5.17 5.17 0 0 1-2.036 2.205c-1.505.866-2.609.332-2.612-1.328s1.093-3.461 2.598-4.327M77.729 43.02l.003 1.19-2.385 1.379v.917l2.104-1.217.003 1.152-2.103 1.212.003 1 2.48-1.433.003 1.191-3.804 2.198-.018-5.446zM84.066 39.36l.025 5.441-1.23.708-.022-2.88-1.213 3.057-.595.342-1.22-1.577.007 2.815-1.234.715-.014-5.446 1.1-.639 1.675 2.18 1.613-4.078zM88.743 36.662l.003 1.191-2.389 1.378.004.917 2.104-1.216.003 1.151-2.104 1.213.004 1 2.472-1.43.004 1.191-3.8 2.194-.015-5.445zM94.087 33.576l.015 5.446-1.101.635-2.1-1.7.007 2.909-1.31.758-.018-5.45 1.104-.635 2.1 1.693-.007-2.902zM98.836 30.832l.004 1.22-1.447.833.01 4.226-1.338.776-.015-4.226-1.458.841-.003-1.22z"/></svg>