<svg width="256" height="256" viewBox="0 0 256 256" fill="none" xmlns="http://www.w3.org/2000/svg">
<path d="M125.633 110.5C155.941 110.5 183.355 117.202 203.175 128.013C223.013 138.834 235.133 153.7 235.133 170C235.133 186.3 223.013 201.166 203.175 211.987C183.355 222.798 155.941 229.5 125.633 229.5C95.3244 229.5 67.9102 222.798 48.0908 211.987C28.2525 201.166 16.1328 186.3 16.1328 170C16.1328 153.7 28.2525 138.834 48.0908 128.013C67.9102 117.202 95.3244 110.5 125.633 110.5Z" stroke="#D5D5D5"/>
<path d="M66.5859 220.85L192.853 147.954V40.8955L66.5859 113.797V220.85Z" fill="#F7921E"/>
<path d="M61.4375 110.829L66.5855 113.798L192.853 40.8958L198.001 31.9834L61.4375 110.829Z" fill="#37474F"/>
<path d="M198 150.923V31.96L192.852 40.8954V147.954L198 150.923Z" fill="#37474F"/>
<path d="M61.4375 110.828L66.5854 113.797V220.85L61.4375 229.768V110.828Z" fill="#37474F"/>
<path d="M66.5855 220.85L192.853 147.954L198.001 150.923L61.4375 229.769L66.5855 220.85Z" fill="#37474F"/>
<g opacity="0.5">
<path d="M61.4375 110.829L66.5855 113.798L192.853 40.8958L198.001 31.9834L61.4375 110.829Z" fill="#455A64"/>
</g>
<g opacity="0.5">
<path d="M66.5855 220.85L192.853 147.954L198.001 150.923L61.4375 229.769L66.5855 220.85Z" fill="#455A64"/>
</g>
<path d="M197.999 31.9831L194.563 30L58 108.846L61.4358 110.829L197.999 31.9831Z" fill="#455A64"/>
<path d="M58 108.845L61.4358 110.828V229.768L58 227.79V108.845Z" fill="#263238"/>
<g style="mix-blend-mode:multiply" opacity="0.1">
<path d="M192.853 40.8955L191.135 41.8871V146.963L66.5859 218.873V220.85L192.853 147.954V40.8955Z" fill="black"/>
</g>
<path opacity="0.2" d="M128.258 83.7522V172.951C128.258 174.145 129.094 174.629 130.126 174.029L182.412 143.833C182.955 143.478 183.407 143.001 183.731 142.439C184.056 141.877 184.244 141.247 184.28 140.599V51.377L128.258 83.7522ZM135.25 87.1074C134.461 87.5628 133.821 87.1938 133.821 86.283C133.847 85.7863 133.99 85.3028 134.238 84.872C134.487 84.4412 134.834 84.0753 135.25 83.8041C136.04 83.3487 136.68 83.7176 136.68 84.6285C136.65 85.1209 136.505 85.5995 136.256 86.0259C136.008 86.4523 135.664 86.8147 135.25 87.0843V87.1074ZM142.168 83.072C141.378 83.5274 140.739 83.1584 140.739 82.2476C140.765 81.7512 140.909 81.268 141.157 80.8374C141.406 80.4067 141.752 80.0406 142.168 79.7687C142.958 79.3133 143.598 79.6823 143.598 80.5931C143.575 81.0872 143.437 81.569 143.193 81.9996C142.95 82.4303 142.609 82.7976 142.197 83.072H142.168ZM149.115 79.0366C148.325 79.492 147.685 79.1231 147.685 78.2122C147.712 77.7158 147.855 77.2326 148.104 76.802C148.352 76.3713 148.699 76.0052 149.115 75.7333C149.905 75.2779 150.544 75.6469 150.544 76.5577C150.525 77.0558 150.388 77.5422 150.145 77.9771C149.901 78.412 149.558 78.783 149.144 79.0597L149.115 79.0366ZM156.067 75.0012C155.277 75.4624 154.637 75.0877 154.637 74.1768C154.665 73.6806 154.809 73.1978 155.057 72.7673C155.306 72.3368 155.651 71.9705 156.067 71.698C156.857 71.2425 157.497 71.6115 157.497 72.5281C157.483 73.0271 157.351 73.5157 157.111 73.9536C156.872 74.3916 156.532 74.7664 156.119 75.0473L156.067 75.0012ZM162.985 70.9658C162.195 71.4213 161.555 71.0523 161.555 70.1357C161.599 69.6484 161.756 69.1781 162.013 68.7619C162.27 68.3456 162.621 67.9949 163.037 67.7375C163.826 67.2763 164.466 67.6453 164.466 68.5619C164.444 69.0633 164.303 69.5522 164.054 69.9882C163.806 70.4243 163.457 70.7949 163.037 71.0696L162.985 70.9658ZM169.931 66.9305C169.142 67.3859 168.502 67.0169 168.502 66.1061C168.528 65.6094 168.671 65.126 168.919 64.6951C169.168 64.2643 169.514 63.8984 169.931 63.6272C170.721 63.1718 171.361 63.5407 171.361 64.4516C171.357 64.9607 171.23 65.4613 170.991 65.9109C170.752 66.3605 170.409 66.7458 169.989 67.0342L169.931 66.9305ZM176.878 62.8951C176.088 63.3505 175.448 62.9816 175.448 62.0707C175.475 61.5743 175.619 61.0911 175.867 60.6605C176.115 60.2298 176.462 59.8637 176.878 59.5918C177.668 59.1364 178.308 59.5054 178.308 60.4162C178.303 60.9253 178.177 61.4259 177.938 61.8755C177.699 62.3251 177.355 62.7105 176.936 62.9988L176.878 62.8951Z" fill="black"/>
<path d="M130.363 84.9332V174.155C130.363 175.343 131.199 175.827 132.231 175.233L184.518 145.031C185.062 144.678 185.514 144.2 185.839 143.638C186.163 143.076 186.351 142.445 186.385 141.797V52.5752L130.363 84.9332ZM137.356 88.2825C136.566 88.738 135.926 88.369 135.926 87.4582C135.954 86.9619 136.098 86.4791 136.346 86.0486C136.594 85.6181 136.94 85.2518 137.356 84.9793C138.146 84.5239 138.786 84.8928 138.786 85.8094C138.759 86.3051 138.615 86.7874 138.367 87.2172C138.118 87.6469 137.772 88.0119 137.356 88.2825ZM144.274 84.2472C143.484 84.7026 142.844 84.3336 142.844 83.417C142.871 82.9214 143.014 82.439 143.263 82.0093C143.511 81.5795 143.858 81.2145 144.274 80.9439C145.063 80.4827 145.703 80.8517 145.703 81.7683C145.683 82.2669 145.546 82.7538 145.303 83.1895C145.059 83.6252 144.717 83.9974 144.303 84.276L144.274 84.2472ZM151.22 80.2118C150.43 80.6672 149.791 80.2982 149.791 79.3874C149.817 78.8907 149.96 78.4073 150.208 77.9765C150.457 77.5456 150.803 77.1797 151.22 76.9085C152.01 76.4473 152.65 76.8221 152.65 77.7329C152.639 78.2406 152.506 78.7383 152.262 79.1838C152.018 79.6293 151.671 80.0095 151.249 80.2925L151.22 80.2118ZM158.173 76.1764C157.383 76.6318 156.743 76.2629 156.743 75.352C156.77 74.8556 156.913 74.3725 157.162 73.9418C157.41 73.5111 157.756 73.145 158.173 72.8731C158.962 72.4177 159.602 72.7867 159.602 73.6975C159.591 74.2053 159.458 74.7029 159.214 75.1484C158.971 75.5939 158.623 75.9742 158.201 76.2571L158.173 76.1764ZM165.09 72.141C164.301 72.5964 163.661 72.2275 163.661 71.3166C163.687 70.8202 163.831 70.3371 164.079 69.9064C164.328 69.4757 164.674 69.1096 165.09 68.8378C165.88 68.3823 166.52 68.7513 166.52 69.6621C166.513 70.1675 166.385 70.6638 166.146 71.1093C165.907 71.5547 165.565 71.9363 165.148 72.2217L165.09 72.141ZM172.037 68.1056C171.247 68.5611 170.607 68.1921 170.607 67.2813C170.634 66.7848 170.777 66.3017 171.026 65.871C171.274 65.4403 171.621 65.0742 172.037 64.8024C172.827 64.347 173.467 64.7159 173.467 65.6268C173.466 66.139 173.341 66.6434 173.102 67.0964C172.863 67.5494 172.517 67.9374 172.094 68.2267L172.037 68.1056ZM178.955 64.0703C178.165 64.5314 177.525 64.1567 177.525 63.2459C177.553 62.7497 177.696 62.2669 177.945 61.8363C178.193 61.4058 178.539 61.0395 178.955 60.767C179.744 60.3116 180.384 60.6805 180.384 61.5971C180.39 62.1097 180.271 62.616 180.037 63.072C179.802 63.528 179.461 63.9202 179.041 64.2144L178.955 64.0703Z" fill="#FAFAFA"/>
<g opacity="0.24">
<path d="M136.645 101.495C136.443 101.493 136.245 101.442 136.068 101.345C135.845 101.192 135.668 100.981 135.553 100.736C135.439 100.491 135.392 100.22 135.417 99.9501V96.1741C135.454 95.4895 135.652 94.8232 135.994 94.2292C136.337 93.6353 136.814 93.1304 137.388 92.7556L180.44 67.8861C180.652 67.7106 180.912 67.6042 181.186 67.581C181.46 67.5578 181.735 67.619 181.974 67.7564C182.212 67.8938 182.403 68.1008 182.52 68.3496C182.637 68.5985 182.676 68.8773 182.63 69.1486V72.9246C182.593 73.6092 182.396 74.2755 182.053 74.8694C181.71 75.4634 181.233 75.9682 180.659 76.3431L137.607 101.213C137.317 101.391 136.985 101.488 136.645 101.495ZM181.368 68.059C181.11 68.0695 180.86 68.147 180.641 68.2839L137.59 93.1533C137.077 93.487 136.651 93.9372 136.345 94.4672C136.04 94.9972 135.864 95.592 135.832 96.2029V99.9789C135.787 100.173 135.805 100.376 135.884 100.559C135.963 100.742 136.099 100.895 136.272 100.994C136.445 101.094 136.645 101.135 136.843 101.112C137.041 101.089 137.226 101.003 137.371 100.867L180.422 75.9972C180.934 75.6641 181.36 75.2148 181.666 74.6859C181.972 74.1569 182.148 73.5633 182.181 72.9534V69.1774C182.204 68.9838 182.176 68.7875 182.099 68.6083C182.022 68.4291 181.899 68.2735 181.743 68.157C181.631 68.0817 181.502 68.0379 181.368 68.0302V68.059Z" fill="#F7921E"/>
<path d="M182.194 70.9176L135.504 97.8848L135.72 98.2592L182.41 71.292L182.194 70.9176Z" fill="#F7921E"/>
<path d="M136.645 166.189C136.443 166.188 136.244 166.135 136.069 166.033C135.845 165.88 135.667 165.67 135.552 165.425C135.437 165.179 135.391 164.907 135.417 164.638V108.304C135.455 107.619 135.653 106.952 135.995 106.357C136.338 105.762 136.815 105.256 137.389 104.88L180.44 80.016C180.652 79.8405 180.913 79.734 181.187 79.7109C181.461 79.6877 181.736 79.7489 181.974 79.8863C182.213 80.0236 182.403 80.2306 182.521 80.4795C182.638 80.7283 182.676 81.0071 182.631 81.2785V137.612C182.594 138.297 182.396 138.963 182.054 139.557C181.711 140.151 181.233 140.656 180.659 141.031L137.591 165.9C137.305 166.075 136.98 166.175 136.645 166.189ZM181.368 80.1659C181.111 80.1763 180.861 80.2538 180.642 80.3907L137.591 105.254C137.078 105.588 136.651 106.038 136.346 106.568C136.04 107.098 135.864 107.693 135.832 108.304V164.632C135.813 164.826 135.843 165.022 135.919 165.202C135.996 165.381 136.117 165.538 136.271 165.658C136.45 165.734 136.646 165.762 136.839 165.739C137.032 165.716 137.216 165.642 137.372 165.526L180.423 140.656C180.935 140.323 181.361 139.874 181.667 139.345C181.972 138.816 182.148 138.222 182.181 137.612V81.2785C182.205 81.0849 182.176 80.8886 182.099 80.7094C182.022 80.5302 181.9 80.3745 181.743 80.2581C181.629 80.1929 181.5 80.1591 181.368 80.1601V80.1659Z" fill="#F7921E"/>
<path d="M182.288 82.9936L135.504 110.016L135.72 110.39L182.505 83.368L182.288 82.9936Z" fill="#F7921E"/>
<path d="M182.292 87.0347L135.508 114.057L135.724 114.431L182.509 87.4091L182.292 87.0347Z" fill="#F7921E"/>
<path d="M182.288 91.0767L135.504 118.099L135.72 118.473L182.505 91.4511L182.288 91.0767Z" fill="#F7921E"/>
<path d="M182.292 95.1235L135.508 122.146L135.724 122.52L182.509 95.4979L182.292 95.1235Z" fill="#F7921E"/>
<path d="M182.288 99.1636L135.504 126.186L135.72 126.56L182.505 99.538L182.288 99.1636Z" fill="#F7921E"/>
<path d="M182.292 103.206L135.508 130.228L135.724 130.602L182.509 103.58L182.292 103.206Z" fill="#F7921E"/>
<path d="M182.288 107.247L135.504 134.269L135.72 134.643L182.505 107.621L182.288 107.247Z" fill="#F7921E"/>
<path d="M182.288 111.292L135.504 138.314L135.72 138.689L182.505 111.667L182.288 111.292Z" fill="#F7921E"/>
<path d="M182.288 115.333L135.504 142.355L135.72 142.73L182.505 115.708L182.288 115.333Z" fill="#F7921E"/>
<path d="M182.285 119.376L135.5 146.398L135.716 146.773L182.501 119.751L182.285 119.376Z" fill="#F7921E"/>
<path d="M182.292 123.421L135.508 150.443L135.724 150.818L182.509 123.796L182.292 123.421Z" fill="#F7921E"/>
<path d="M182.288 127.462L135.504 154.484L135.72 154.859L182.505 127.837L182.288 127.462Z" fill="#F7921E"/>
<path d="M182.288 131.504L135.504 158.526L135.72 158.901L182.505 131.879L182.288 131.504Z" fill="#F7921E"/>
<path d="M182.285 135.544L135.5 162.566L135.716 162.941L182.501 135.919L182.285 135.544Z" fill="#F7921E"/>
</g>
<path d="M145.321 95.093C145.297 95.2945 145.221 95.4866 145.102 95.651C144.983 95.8154 144.824 95.9468 144.64 96.0326C143.787 96.5688 142.951 97.0761 142.098 97.6871C141.758 97.9293 141.395 98.2233 141.066 98.4135C141.03 98.4358 140.991 98.4533 140.951 98.4654C140.899 98.5108 140.843 98.5513 140.784 98.5864C140.588 98.7017 140.282 98.7306 140.282 98.2233C140.282 97.0703 140.282 95.8654 140.282 94.6894C140.282 93.4212 140.282 92.1241 140.23 91.1095C140.23 90.8904 140.184 90.6713 140.184 90.435C140.178 90.2377 140.214 90.0414 140.288 89.8585C140.357 89.7223 140.463 89.6084 140.593 89.5299C141.043 89.2705 141.06 89.7432 141.084 90.1929C141.084 92.2682 141.084 94.8566 141.141 97.1971C142.236 96.4477 143.153 95.8482 144.479 94.9661C144.575 94.8899 144.675 94.8187 144.779 94.7528C145.09 94.5857 145.321 94.7125 145.321 95.093Z" fill="#455A64"/>
<path d="M147.141 89.2761C147.141 89.3337 147.141 89.4029 147.141 89.4663L147.113 91.8991C147.113 92.1873 147.113 92.4755 147.113 92.7695V93.715C147.113 93.8533 147.113 93.9686 147.113 94.1012V94.2569C147.119 94.297 147.119 94.3378 147.113 94.3779C147.116 94.5175 147.083 94.6555 147.017 94.7787C146.952 94.9018 146.856 95.006 146.738 95.0812H146.686C146.346 95.2772 146.213 95.0236 146.213 94.7008C146.213 94.5624 146.213 94.4068 146.213 94.2742V93.6977C146.213 93.2826 146.213 92.8618 146.213 92.4467V92.1181C146.213 91.4321 146.213 90.7576 146.179 90.0774V89.9736C146.163 89.7392 146.209 89.5048 146.311 89.2934C146.391 89.1171 146.522 88.9686 146.686 88.8668C146.992 88.7111 147.141 88.8841 147.141 89.2761ZM147.205 86.3475C147.233 86.423 147.245 86.5036 147.239 86.5839C147.238 86.8509 147.138 87.1078 146.957 87.3045C146.9 87.3715 146.832 87.428 146.755 87.4717C146.548 87.5927 146.334 87.5754 146.3 87.2757C146.297 87.2219 146.297 87.168 146.3 87.1143C146.29 86.8464 146.378 86.5842 146.548 86.3764C146.612 86.2993 146.69 86.2348 146.778 86.1861C146.814 86.1556 146.857 86.1352 146.903 86.127C146.949 86.1189 146.996 86.1233 147.04 86.1398C147.083 86.1564 147.122 86.1844 147.151 86.2209C147.18 86.2575 147.199 86.3012 147.205 86.3475Z" fill="#455A64"/>
<path d="M151.584 86.7105C151.568 86.8809 151.515 87.0458 151.429 87.194C151.344 87.3422 151.228 87.4702 151.088 87.5695C151.015 87.6093 150.935 87.6329 150.852 87.6387C150.649 87.6905 150.454 87.7721 150.275 87.8808C149.699 88.2267 149.076 88.8205 149.076 89.2759C149.076 89.7313 149.854 89.201 150.402 88.9012C151.077 88.5322 152.397 87.8981 152.397 89.6391C152.397 91.1898 151.163 92.6483 150.027 93.3055C149.686 93.532 149.284 93.6487 148.874 93.6399C148.716 93.6404 148.564 93.5814 148.448 93.4745C148.331 93.3677 148.259 93.2209 148.246 93.0634C148.265 92.9164 148.315 92.7751 148.392 92.6489C148.47 92.5227 148.573 92.4144 148.696 92.3312C148.984 92.1641 149.145 92.3312 149.243 92.3312C149.544 92.3725 149.848 92.2938 150.091 92.1122C150.54 91.8528 151.595 91.0515 151.595 90.0714C151.595 89.3105 150.938 89.6448 150.385 89.9619C149.301 90.5903 148.263 91.0803 148.263 89.6737C148.266 89.1694 148.405 88.6752 148.667 88.244C149.074 87.5953 149.637 87.0584 150.304 86.6817C150.869 86.3935 151.584 86.0361 151.584 86.7105Z" fill="#455A64"/>
<path d="M155.962 84.2671C155.958 84.429 155.912 84.587 155.829 84.7262C155.747 84.8654 155.63 84.9812 155.49 85.0626C155.442 85.089 155.392 85.1103 155.34 85.126L154.677 85.5123H154.648V86.8785C154.648 87.2936 154.648 88.4985 154.706 89.3805V89.957C154.706 90.4758 154.562 90.6891 154.337 90.8217C153.945 91.0465 153.806 90.7468 153.806 90.4758C153.806 89.49 153.806 88.9827 153.806 88.239C153.806 87.4954 153.806 86.6422 153.806 86.0311L153.512 86.2502C153.155 86.5154 153.069 86.5788 153.022 86.6018C152.803 86.7344 152.723 86.4923 152.723 86.1983C152.723 85.5353 153.034 85.3797 153.76 84.9473C153.76 84.5092 153.697 84.1518 153.697 83.6906C153.703 83.4831 153.771 83.2822 153.893 83.1141C153.957 83.0367 154.035 82.9721 154.123 82.9239C154.55 82.676 154.614 83.1718 154.614 83.7425C154.614 83.9788 154.614 84.2094 154.614 84.4227C154.913 84.2152 155.19 84.0365 155.357 83.9327C155.726 83.731 155.962 83.8174 155.962 84.2671Z" fill="#455A64"/>
<path d="M152.656 110.645C152.212 111.221 151.779 111.976 151.099 112.328C150.926 112.414 150.713 112.489 150.557 112.328C150.342 111.994 150.239 111.6 150.263 111.204C150.263 111.019 149.952 110.875 149.831 111.048C149.254 111.89 148.88 112.852 148.222 113.642C147.957 113.965 147.548 114.409 147.069 114.374C146.923 114.355 146.787 114.288 146.683 114.184C146.579 114.08 146.512 113.944 146.493 113.798L146.712 113.504C147.237 112.89 147.63 112.173 147.865 111.4C147.956 111.048 147.908 110.674 147.732 110.356C147.696 110.306 147.649 110.264 147.595 110.233C147.542 110.202 147.482 110.182 147.42 110.175C147.358 110.168 147.296 110.174 147.237 110.192C147.177 110.21 147.122 110.241 147.075 110.281C146.571 110.793 146.247 111.455 146.153 112.166C146.031 112.635 145.996 113.121 146.049 113.602C145.951 113.74 145.853 113.879 145.749 114.011C145.405 114.464 145.019 114.883 144.596 115.262C144.475 115.36 144.268 115.568 144.095 115.568C144.095 115.568 144.031 115.377 144.02 115.308C144.02 115.141 143.691 114.985 143.57 115.147C143.359 115.453 143.18 115.779 143.034 116.121C143.007 115.939 142.931 115.768 142.815 115.625C142.475 115.256 141.904 115.441 141.57 115.718C141.401 115.87 141.252 116.042 141.126 116.231C141.228 115.682 141.215 115.119 141.086 114.576C141.056 114.451 141 114.334 140.922 114.232C140.843 114.13 140.744 114.046 140.631 113.985C140.517 113.925 140.392 113.889 140.264 113.88C140.136 113.872 140.007 113.891 139.887 113.936C139.31 114.184 138.97 114.928 138.734 115.487C138.583 115.86 138.465 116.246 138.382 116.64C138.312 116.877 138.283 117.125 138.295 117.372L138.111 117.424C138.03 117.424 138.042 117.597 138.111 117.608C138.24 117.649 138.375 117.66 138.509 117.643C138.525 117.642 138.541 117.638 138.555 117.631C138.57 117.624 138.583 117.614 138.593 117.601C138.604 117.589 138.611 117.574 138.615 117.559C138.62 117.543 138.621 117.527 138.618 117.51C138.674 116.996 138.806 116.493 139.01 116.017C139.178 115.417 139.505 114.873 139.956 114.444C140.405 114.109 140.607 114.501 140.653 114.928C140.685 115.601 140.627 116.276 140.48 116.934C140.359 117.48 140.284 118.036 140.255 118.594C140.253 118.625 140.253 118.656 140.255 118.686V118.738C140.255 118.969 140.769 119.055 140.757 118.79C140.786 117.92 141.095 117.083 141.639 116.404C141.749 116.259 142.215 115.712 142.435 115.902C142.538 115.989 142.527 116.306 142.538 116.427C142.538 116.663 142.538 116.899 142.573 117.136C142.585 117.186 142.611 117.232 142.648 117.268C142.684 117.304 142.731 117.33 142.781 117.341C142.831 117.353 142.884 117.35 142.933 117.333C142.982 117.316 143.025 117.285 143.057 117.245C143.322 116.79 143.49 116.288 143.743 115.833C143.827 115.929 143.94 115.995 144.065 116.02C144.191 116.045 144.321 116.028 144.435 115.971C144.924 115.722 145.345 115.358 145.663 114.911C145.859 114.686 146.043 114.449 146.239 114.207C146.237 114.224 146.237 114.242 146.239 114.259C146.385 114.497 146.611 114.675 146.877 114.758C147.143 114.842 147.431 114.826 147.686 114.715C148.331 114.349 148.855 113.802 149.191 113.141C149.45 112.726 149.675 112.282 149.923 111.855C150.073 112.432 150.413 113.008 151.122 112.829C151.546 112.651 151.928 112.384 152.242 112.047C152.556 111.71 152.795 111.311 152.944 110.875C152.973 110.702 152.748 110.5 152.656 110.645ZM147.219 110.777C147.263 110.736 147.303 110.691 147.34 110.645C147.377 110.819 147.391 110.997 147.381 111.175C147.212 111.855 146.891 112.488 146.441 113.025C146.479 112.484 146.603 111.953 146.81 111.452C146.907 111.209 147.039 110.981 147.202 110.777H147.219Z" fill="#455A64"/>
<path d="M171.475 99.9219C171.193 100.106 170.899 100.268 170.599 100.423C170.443 100.516 170.27 100.575 170.091 100.598C169.911 100.62 169.729 100.606 169.555 100.556C169.33 100.476 169.089 100.453 168.853 100.488C168.617 100.523 168.393 100.616 168.201 100.758C167.584 101.248 167.428 102.124 166.863 102.643C166.65 102.268 166.679 101.778 166.373 101.438C166.351 101.413 166.324 101.394 166.294 101.38C166.263 101.367 166.231 101.36 166.197 101.36C166.164 101.36 166.131 101.367 166.101 101.38C166.071 101.394 166.044 101.413 166.022 101.438C165.557 102.155 165.005 102.812 164.379 103.392C164.154 103.577 163.802 103.796 163.514 103.686L163.687 103.427C164.09 102.85 164.615 102.153 164.586 101.403C164.586 100.937 164.338 100.25 163.733 100.429C163.49 100.547 163.281 100.723 163.125 100.943C162.969 101.163 162.871 101.418 162.839 101.686C162.637 102.355 162.68 103.075 162.961 103.715C162.857 103.871 162.753 104.032 162.643 104.188C162.355 104.651 161.988 105.061 161.56 105.398C161.381 105.549 161.153 105.628 160.92 105.623C160.62 105.589 160.424 105.312 160.28 105.047C160.211 104.943 160.026 104.822 159.922 104.955C159.565 105.459 159.305 106.026 159.156 106.626C159.066 106.459 158.947 106.309 158.804 106.183C158.767 106.146 158.718 106.125 158.666 106.125C158.614 106.125 158.564 106.146 158.527 106.183C158.041 106.662 157.684 107.257 157.49 107.912C157.398 107.237 157.202 106.58 156.556 106.436C156.264 106.399 155.968 106.443 155.698 106.561C155.429 106.68 155.198 106.87 155.028 107.111C154.555 107.687 154.394 108.563 153.795 109.053C153.743 109.1 153.795 109.255 153.864 109.215C154.947 108.684 154.907 106.967 156.268 106.771C157.323 106.615 157.121 108.5 157.248 109.151C157.282 109.33 157.611 109.457 157.64 109.215C157.723 108.249 158.104 107.333 158.729 106.592C158.854 106.793 158.956 107.008 159.035 107.232C159.087 107.353 159.358 107.462 159.409 107.278C159.56 106.631 159.805 106.009 160.136 105.433C160.257 105.622 160.43 105.772 160.635 105.865C160.84 105.957 161.067 105.987 161.289 105.952C161.834 105.782 162.304 105.43 162.62 104.955C162.867 104.645 163.096 104.322 163.306 103.986C163.484 104.078 163.685 104.112 163.883 104.084C164.484 103.941 165.011 103.582 165.364 103.075C165.676 102.709 165.965 102.324 166.229 101.922C166.269 102.061 166.293 102.211 166.333 102.337C166.395 102.593 166.527 102.826 166.713 103.012C166.75 103.056 166.802 103.086 166.859 103.097C166.915 103.107 166.974 103.098 167.025 103.069C167.74 102.585 167.855 101.611 168.5 101.069C168.674 100.909 168.899 100.815 169.135 100.804C169.429 100.804 169.711 100.954 170.011 100.965C170.636 100.906 171.212 100.601 171.613 100.118C171.677 100.095 171.579 99.8585 171.475 99.9219ZM163.128 102.499C163.145 102.045 163.261 101.6 163.468 101.196C163.554 101.04 163.733 100.804 163.929 100.781C164.125 100.758 164.062 100.781 164.108 100.89C164.159 101.048 164.183 101.214 164.177 101.38C164.083 101.979 163.826 102.539 163.433 103L163.203 103.346C163.119 103.072 163.093 102.783 163.128 102.499Z" fill="#455A64"/>
<path d="M158.177 119.441C157.543 119.954 157.214 120.692 156.678 121.28C156.548 121.12 156.432 120.948 156.332 120.767C156.318 120.733 156.295 120.703 156.266 120.68C156.237 120.657 156.204 120.641 156.167 120.634C156.131 120.627 156.094 120.628 156.058 120.638C156.023 120.648 155.99 120.667 155.964 120.692C155.854 120.813 155.744 120.917 155.652 121.038C155.591 120.915 155.552 120.782 155.537 120.646C155.532 120.599 155.514 120.556 155.486 120.519C155.457 120.482 155.419 120.454 155.376 120.437C155.332 120.42 155.285 120.416 155.239 120.424C155.193 120.433 155.151 120.453 155.116 120.484C154.234 121.505 153.727 123.24 152.453 123.759C152.578 123.39 152.623 122.999 152.585 122.611C152.548 122.223 152.428 121.848 152.234 121.51C152.17 121.407 151.992 121.291 151.888 121.418C151.11 122.341 150.914 123.684 149.951 124.451C149.847 124.277 149.799 124.076 149.813 123.874C149.813 123.684 149.484 123.517 149.392 123.741C149.299 123.966 149.207 124.353 149.115 124.658C149.046 125.003 148.909 125.33 148.711 125.621C148.377 126.007 148.25 125.263 148.239 125.044C148.239 124.606 148.291 124.174 148.268 123.741C148.268 123.551 147.933 123.384 147.847 123.609C147.412 124.684 146.908 125.73 146.336 126.739C146.261 126.883 145.91 127.679 145.673 127.65C145.437 127.621 145.218 126.952 145.143 126.814C145.068 126.676 144.884 126.624 144.786 126.716C144.5 127.011 144.277 127.36 144.128 127.742C144.095 127.579 144.04 127.42 143.967 127.27C143.951 127.232 143.927 127.199 143.896 127.172C143.866 127.144 143.83 127.124 143.792 127.112C143.753 127.1 143.712 127.097 143.671 127.102C143.631 127.107 143.592 127.121 143.558 127.143C142.641 128.034 141.799 128.998 141.039 130.025C140.628 130.544 140.151 131.007 139.62 131.403C139.511 131.478 139.2 131.708 139.044 131.651C138.888 131.593 138.934 131.455 138.923 131.351C138.943 130.555 139.161 129.776 139.557 129.085C139.738 128.688 139.944 128.303 140.174 127.932C140.37 127.566 140.65 127.252 140.992 127.016C141.148 126.929 141.361 126.86 141.442 127.079C141.48 127.318 141.456 127.562 141.373 127.788C141.275 128.163 141.125 128.532 141.004 128.901L140.727 128.866C140.623 128.866 140.641 129.034 140.727 129.062C140.841 129.087 140.953 129.12 141.062 129.16C141.108 129.16 141.148 129.16 141.177 129.16C141.511 128.618 142.33 127.097 141.494 126.635C140.658 126.174 139.839 127.552 139.517 128.123C138.976 128.988 138.618 129.955 138.467 130.965C138.433 131.339 138.467 131.824 138.836 132.025C139.321 132.291 139.891 131.853 140.249 131.559C141.58 130.469 142.416 128.918 143.656 127.742C143.716 128.211 143.716 128.686 143.656 129.155V129.206C143.656 129.426 144.054 129.541 144.117 129.304C144.252 128.59 144.52 127.908 144.907 127.293C145.023 127.583 145.224 127.832 145.483 128.007C145.829 128.186 146.106 127.956 146.308 127.679C146.697 127.09 147.038 126.472 147.328 125.828C147.489 125.511 147.645 125.2 147.789 124.877C147.788 125.043 147.801 125.209 147.829 125.373C147.91 125.771 148.25 126.266 148.717 126.163C149.184 126.059 149.294 125.586 149.403 125.258C149.478 125.039 149.536 124.814 149.593 124.589C149.671 124.715 149.78 124.818 149.911 124.889C149.94 124.907 149.974 124.917 150.009 124.917C150.043 124.917 150.077 124.907 150.107 124.889C151.121 124.18 151.357 122.94 152.015 121.966C152.263 122.675 152.326 123.862 151.502 123.926C151.236 123.926 151.363 124.306 151.571 124.324C151.59 124.321 151.609 124.321 151.628 124.324C153.583 124.399 154.217 122.502 155.18 121.136C155.255 121.294 155.358 121.436 155.485 121.557C155.577 121.643 155.785 121.712 155.842 121.557C155.891 121.428 155.968 121.312 156.067 121.216C156.192 121.405 156.331 121.584 156.482 121.753C156.54 121.816 156.701 121.891 156.782 121.81C157.405 121.205 157.722 120.369 158.321 119.746C158.489 119.597 158.293 119.343 158.177 119.441Z" fill="#455A64"/>
<path d="M171.68 111.652C171.311 112.007 171.027 112.44 170.85 112.921C170.652 113.432 170.307 113.873 169.858 114.189C169.357 114.454 169.068 114.102 169.063 113.647C169.345 113.174 169.639 112.69 169.933 112.246C170.054 112.073 169.789 111.871 169.628 111.923C169.336 112.063 169.089 112.28 168.912 112.55C168.735 112.82 168.636 113.134 168.625 113.457C168.308 114.056 167.895 114.599 167.402 115.065C167.276 115.18 167.051 115.376 166.855 115.336C166.659 115.296 166.595 114.944 166.567 114.759C166.474 114.073 165.892 114.183 165.414 114.512C164.733 114.996 164.578 115.901 164.145 116.587C164.001 116.356 163.915 116.091 163.765 115.866C163.731 115.815 163.681 115.776 163.622 115.756C163.564 115.736 163.5 115.736 163.442 115.757C162.572 116.212 162.566 117.169 162.289 117.982C162.289 117.705 162.289 117.406 162.289 117.169C162.308 116.915 162.273 116.659 162.185 116.42C162.098 116.18 161.96 115.962 161.782 115.78C160.854 115.105 159.983 116.743 159.683 117.388C159.539 117.7 159.234 118.282 159.545 118.587C159.678 118.708 159.758 118.489 159.672 118.386C159.585 118.282 159.833 117.913 159.868 117.809C160.003 117.538 160.155 117.276 160.323 117.025C160.484 116.778 160.665 116.544 160.865 116.328C160.99 116.162 161.16 116.038 161.355 115.97C161.862 115.907 161.857 116.858 161.862 117.158C161.82 117.685 161.847 118.217 161.943 118.737C161.957 118.778 161.98 118.814 162.011 118.843C162.043 118.872 162.081 118.893 162.122 118.903C162.164 118.913 162.207 118.913 162.248 118.902C162.289 118.891 162.327 118.87 162.358 118.841C162.935 118.115 162.791 116.835 163.511 116.247C163.63 116.544 163.806 116.814 164.03 117.042C164.053 117.067 164.08 117.087 164.111 117.101C164.142 117.114 164.175 117.121 164.209 117.121C164.242 117.121 164.276 117.114 164.306 117.101C164.337 117.087 164.365 117.067 164.387 117.042C164.906 116.402 165.01 115.463 165.633 114.904C165.706 114.84 165.785 114.784 165.869 114.736C165.915 114.736 166.007 114.685 166.071 114.65C166.134 114.615 166.071 114.736 166.071 114.742C166.084 115.004 166.181 115.255 166.347 115.457C167.195 116.351 168.198 114.915 168.688 114.16C168.761 114.321 168.879 114.458 169.029 114.552C169.179 114.646 169.353 114.695 169.53 114.69C170.227 114.719 170.683 114.114 171.017 113.572C171.272 113.001 171.583 112.457 171.945 111.946C172.118 111.802 171.812 111.543 171.68 111.652Z" fill="#455A64"/>
<path d="M143.907 138.275C143.694 138.141 143.454 138.057 143.204 138.03C142.954 138.003 142.702 138.034 142.465 138.119C141.977 138.264 141.508 138.469 141.07 138.73C140.736 138.915 140.01 139.261 140.073 139.716C140.073 139.774 140.159 139.889 140.229 139.825C140.816 139.332 141.483 138.943 142.2 138.673C142.557 138.496 142.957 138.422 143.353 138.459C143.803 138.557 143.895 139.076 143.872 139.462C143.766 140.165 143.434 140.815 142.927 141.313C142.399 141.917 141.771 142.426 141.07 142.817C141.07 142.714 141.099 142.61 141.116 142.506C141.174 142.172 141.226 141.843 141.284 141.509C141.341 141.174 141.393 140.852 141.451 140.529C141.53 140.165 141.573 139.794 141.578 139.422C141.578 139.33 141.428 139.174 141.359 139.307C141.241 139.609 141.162 139.925 141.122 140.246C141.042 140.592 140.967 140.944 140.903 141.296C140.84 141.647 140.776 141.97 140.713 142.304L140.626 142.806C140.626 142.892 140.592 142.973 140.58 143.06C140.235 143.237 139.848 143.316 139.461 143.29C139.074 143.263 138.702 143.132 138.384 142.91C138.217 142.783 138.228 143.008 138.28 143.106C138.41 143.293 138.582 143.448 138.782 143.558C138.982 143.668 139.205 143.73 139.433 143.74C139.859 143.764 140.286 143.697 140.684 143.544C141.626 143.19 142.473 142.621 143.157 141.884C143.814 141.292 144.261 140.503 144.431 139.635C144.461 139.383 144.429 139.127 144.337 138.89C144.246 138.653 144.098 138.442 143.907 138.275Z" fill="#455A64"/>
<path d="M158.284 132.037C158.122 132.614 156.952 134.724 156.191 133.767C156.089 133.636 156.016 133.484 155.978 133.323C156.363 132.701 156.672 132.035 156.9 131.34C157.01 130.976 157.131 130.44 156.756 130.187C156.381 129.933 155.92 130.187 155.741 130.584C155.522 131.134 155.42 131.723 155.442 132.314C155.43 132.617 155.453 132.921 155.511 133.219C155.436 133.346 155.367 133.473 155.286 133.594C155.069 133.962 154.832 134.318 154.577 134.66C154.479 134.787 154.214 135.179 154 135.162C153.787 135.144 153.758 134.528 153.706 134.372C153.655 134.216 153.47 134.084 153.349 134.222C152.847 134.799 152.859 135.681 152.427 136.303C152.219 136.603 151.85 136.684 151.706 136.303C151.597 135.928 151.533 135.541 151.516 135.15C151.487 135.012 151.181 134.845 151.13 135.046C151.026 135.427 150.922 135.813 150.807 136.199C150.703 136.649 150.536 137.082 150.311 137.485C150.242 137.594 150.144 137.727 149.988 137.704C149.832 137.681 149.752 137.468 149.706 137.335C149.578 136.955 149.533 136.552 149.573 136.153C149.573 135.934 149.216 135.727 149.135 135.992C148.971 136.529 148.763 137.052 148.512 137.554C148.282 138.027 147.936 138.776 147.411 138.99C147.36 139.009 147.305 139.019 147.25 139.018C147.331 138.828 147.4 138.638 147.463 138.442C147.688 137.756 147.947 136.649 147.29 136.101C147.251 136.058 147.198 136.03 147.14 136.022C147.082 136.014 147.023 136.025 146.973 136.055C146.6 136.418 146.376 136.908 146.345 137.427C146.345 137.537 146.345 137.652 146.316 137.773C145.901 137.26 145.307 137.917 145.053 138.35C144.719 138.926 144.316 139.912 144.61 140.581C144.904 141.249 145.688 141.059 146.126 140.679C146.524 140.307 146.847 139.863 147.077 139.37C147.196 139.41 147.322 139.423 147.446 139.409C147.57 139.395 147.69 139.354 147.798 139.289C148.276 138.934 148.647 138.453 148.87 137.9C148.997 137.652 149.106 137.398 149.216 137.139C149.242 137.243 149.275 137.345 149.314 137.445C149.345 137.555 149.397 137.657 149.469 137.746C149.54 137.835 149.629 137.909 149.73 137.963C149.831 138.016 149.941 138.049 150.055 138.059C150.168 138.069 150.283 138.056 150.392 138.021C150.789 137.848 150.968 137.22 151.078 136.868C151.164 136.62 151.233 136.367 151.297 136.119C151.33 136.245 151.379 136.367 151.441 136.482C151.527 136.658 151.677 136.794 151.86 136.862C152.044 136.931 152.246 136.927 152.427 136.851C152.807 136.666 153.003 136.153 153.118 135.79C153.234 135.427 153.314 135.139 153.459 134.833C153.591 135.266 153.81 135.698 154.306 135.462C154.802 135.225 155.176 134.545 155.459 134.072C155.534 133.963 155.603 133.847 155.672 133.732C155.672 133.732 155.672 133.732 155.672 133.767C156.658 135.438 158.41 133.38 158.618 132.227C158.716 132.031 158.353 131.801 158.284 132.037ZM147.169 136.551C147.307 136.978 147.307 137.438 147.169 137.865C147.101 138.143 147.012 138.414 146.904 138.678C146.824 138.443 146.787 138.195 146.794 137.946C146.776 137.454 146.907 136.968 147.169 136.551ZM145.111 140.586C144.736 140.373 145.077 139.433 145.186 139.139C145.296 138.845 145.872 137.41 146.339 138.033C146.337 138.376 146.44 138.712 146.633 138.995L146.702 139.076C146.582 139.323 146.443 139.56 146.287 139.785C146.091 140.079 145.532 140.823 145.111 140.609V140.586ZM156.007 131.213C156.035 131.086 156.272 130.239 156.548 130.435C156.681 130.533 156.497 131.074 156.45 131.201C156.296 131.651 156.103 132.087 155.874 132.504C155.868 132.078 155.912 131.652 156.007 131.236V131.213Z" fill="#455A64"/>
<path d="M172.877 123.782C172.3 124.082 170.945 123.817 171.147 122.97C171.176 122.854 170.968 122.606 170.888 122.768C170.623 123.298 170.369 123.84 170.069 124.353C169.869 124.74 169.623 125.102 169.337 125.431C169.132 125.664 168.888 125.859 168.616 126.008C168.553 126.042 168.397 126.129 168.328 126.1C168.259 126.071 168.328 125.777 168.328 125.685C168.328 125.593 168.144 125.345 168.023 125.466C167.388 126.123 167.1 127.051 166.403 127.651C166.326 127.598 166.264 127.527 166.221 127.445C166.178 127.362 166.155 127.271 166.155 127.178C166.155 127.022 165.901 126.826 165.774 126.988C165.198 127.749 165.152 128.85 164.483 129.565C164.01 130.072 163.935 129.271 163.947 128.925C163.958 128.579 164.01 128.273 164.051 127.95V127.824C164.051 127.691 164.051 127.564 164.051 127.437C164.051 127.311 163.728 127.126 163.722 127.362C163.714 127.556 163.695 127.748 163.664 127.939C163.582 128.34 163.445 128.728 163.255 129.092C163.009 129.646 162.609 130.118 162.102 130.452C161.998 130.51 162.102 130.741 162.183 130.695C162.801 130.398 163.304 129.906 163.613 129.294C163.664 129.738 163.958 130.274 164.483 130.106C165.008 129.939 165.238 129.276 165.428 128.85C165.619 128.423 165.722 128.014 165.924 127.628C166.04 127.825 166.213 127.984 166.42 128.083C166.45 128.099 166.484 128.107 166.518 128.107C166.552 128.107 166.586 128.099 166.616 128.083C167.193 127.525 167.672 126.874 168.034 126.158C168.053 126.229 168.091 126.294 168.144 126.345C168.197 126.397 168.262 126.434 168.334 126.452C168.639 126.538 168.985 126.284 169.21 126.106C169.532 125.854 169.808 125.548 170.023 125.201C170.401 124.658 170.723 124.078 170.986 123.471C171.072 123.654 171.196 123.818 171.349 123.95C171.502 124.083 171.681 124.182 171.875 124.242C172.069 124.302 172.272 124.32 172.474 124.297C172.675 124.273 172.869 124.208 173.044 124.105C173.153 123.967 173.009 123.708 172.877 123.782Z" fill="#455A64"/>
<path d="M159.375 142.621C159.375 142.465 159.104 142.327 159.018 142.494C158.806 142.941 158.637 143.406 158.511 143.883C158.403 144.432 158.162 144.945 157.807 145.376C157.363 145.786 157.231 145.123 157.231 144.771C157.432 144.299 157.532 143.791 157.525 143.278C157.525 143.111 157.242 142.915 157.139 143.122C156.922 143.606 156.816 144.132 156.827 144.662C156.662 145.059 156.47 145.444 156.251 145.815C155.674 145.423 155.288 146.172 154.948 146.656C154.871 146.377 154.853 146.084 154.896 145.797C154.896 145.642 154.648 145.44 154.527 145.601C154.333 145.915 154.183 146.255 154.083 146.61C153.979 146.887 153.818 147.509 153.507 147.625C152.93 147.827 153.149 145.659 153.132 145.353C153.132 145.209 152.878 144.984 152.757 145.163C152.031 146.264 151.996 147.688 151.189 148.749C151.137 148.824 151.034 148.893 150.993 148.968C150.998 148.987 150.998 149.007 150.993 149.026C150.996 149.006 150.996 148.987 150.993 148.968C150.964 148.91 150.93 149.072 150.993 148.968C150.954 148.834 150.923 148.697 150.901 148.559C150.875 148.15 150.875 147.74 150.901 147.331C150.901 147.158 150.596 146.985 150.492 147.158C150.106 147.94 149.764 148.742 149.466 149.562C149.143 150.288 148.607 151.326 147.69 151.36C147.338 151.36 147.246 151.101 147.269 150.784C147.501 150.635 147.719 150.465 147.921 150.277C148.484 149.799 148.887 149.159 149.074 148.443C149.143 148.092 149.074 147.527 148.607 147.515C148.14 147.504 147.736 148.265 147.546 148.668C147.332 149.087 147.158 149.525 147.027 149.977C146.96 150.195 146.912 150.419 146.883 150.646C146.534 150.863 146.14 150.998 145.73 151.038C145.603 151.038 145.655 151.285 145.77 151.285C146.169 151.281 146.563 151.19 146.923 151.02C146.938 151.124 146.967 151.225 147.01 151.32C147.112 151.507 147.276 151.652 147.474 151.731C147.672 151.81 147.891 151.817 148.094 151.752C148.586 151.631 149.015 151.331 149.298 150.911C149.81 150.096 150.218 149.22 150.515 148.305C150.549 148.945 150.711 149.591 151.241 149.4C151.467 149.278 151.651 149.089 151.766 148.858C151.971 148.532 152.139 148.184 152.267 147.821C152.463 147.296 152.607 146.743 152.815 146.218C152.801 146.422 152.801 146.626 152.815 146.829C152.855 147.273 152.965 147.925 153.495 148.023C154.026 148.121 154.21 147.607 154.366 147.267C154.469 147.042 154.539 146.789 154.625 146.541C154.676 146.772 154.809 146.977 155 147.117C155.03 147.141 155.068 147.154 155.106 147.154C155.145 147.154 155.183 147.141 155.213 147.117C155.375 146.916 155.496 146.691 155.645 146.478C155.795 146.264 156.02 145.964 156.291 146.253C156.308 146.275 156.329 146.294 156.354 146.306C156.38 146.319 156.407 146.326 156.435 146.326C156.463 146.326 156.491 146.319 156.516 146.306C156.541 146.294 156.563 146.275 156.579 146.253C156.735 145.993 156.891 145.711 157.041 145.423C157.09 145.594 157.203 145.741 157.355 145.835C157.507 145.929 157.689 145.963 157.865 145.93C158.441 145.82 158.724 145.019 158.897 144.529C158.989 144.275 159.058 144.016 159.133 143.757C159.142 144.681 159.033 145.603 158.81 146.501H158.758C157.986 146.898 156.971 146.973 156.666 147.925C156.395 148.755 157.202 149.216 157.905 148.858C158.46 148.511 158.86 147.964 159.024 147.331C159.264 146.568 159.406 145.778 159.444 144.979C159.475 144.192 159.452 143.404 159.375 142.621ZM147.517 149.665C147.631 149.35 147.766 149.041 147.921 148.743C148.047 148.439 148.245 148.17 148.497 147.959C148.659 147.861 148.647 147.901 148.653 148.103C148.568 148.791 148.239 149.426 147.725 149.89C147.596 150.031 147.458 150.162 147.31 150.282C147.379 150.046 147.465 149.792 147.517 149.665ZM157.98 148.121C157.813 148.311 157.225 148.801 157.006 148.489C156.873 148.299 157.041 147.959 157.139 147.798C157.283 147.591 157.483 147.429 157.715 147.331C158.003 147.198 158.292 147.106 158.58 146.968C158.551 147.043 158.534 147.117 158.505 147.192C158.384 147.53 158.207 147.843 157.98 148.121Z" fill="#455A64"/>
<path d="M164.765 139.324C164.631 139.075 164.419 138.876 164.163 138.756C163.906 138.637 163.618 138.603 163.341 138.661C163.012 138.72 162.698 138.845 162.419 139.03C162.252 139.142 162.105 139.282 161.986 139.445C161.952 139.37 161.911 139.306 161.871 139.237C161.739 139.037 161.576 138.86 161.387 138.713C161.238 138.566 161.052 138.463 160.849 138.415C160.646 138.366 160.433 138.373 160.234 138.436C160.047 138.543 159.904 138.713 159.831 138.916C159.758 139.119 159.76 139.341 159.836 139.543C160.012 140.017 160.268 140.457 160.591 140.846C160.93 141.237 161.242 141.651 161.525 142.085C161.539 142.109 161.557 142.129 161.579 142.145C161.601 142.162 161.626 142.173 161.652 142.179C161.679 142.185 161.707 142.185 161.733 142.18C161.76 142.175 161.785 142.164 161.808 142.148C162.193 141.875 162.607 141.643 163.041 141.457C163.556 141.219 164.036 140.911 164.465 140.54C164.641 140.398 164.765 140.202 164.819 139.982C164.873 139.763 164.854 139.531 164.765 139.324ZM162.788 141.053C162.414 141.22 162.052 141.413 161.704 141.63C161.181 141.001 160.705 140.334 160.28 139.635C160.153 139.352 160.09 139.001 160.436 138.839C160.782 138.678 161.139 138.978 161.352 139.18C161.534 139.34 161.681 139.536 161.785 139.756C161.785 139.785 161.785 139.831 161.819 139.866C161.815 139.904 161.821 139.942 161.836 139.978C161.851 140.013 161.875 140.044 161.906 140.067C161.932 140.076 161.96 140.076 161.986 140.067C161.986 140.067 162.113 140.01 162.09 139.998C162.067 139.987 162.286 139.733 162.309 139.704C162.385 139.613 162.47 139.53 162.563 139.456C162.764 139.301 162.993 139.186 163.237 139.116C163.442 139.03 163.669 139.015 163.883 139.072C164.097 139.13 164.285 139.257 164.419 139.433C164.575 139.733 164.292 140.038 164.05 140.24C163.667 140.558 163.249 140.833 162.805 141.059L162.788 141.053Z" fill="#455A64"/>
<path d="M145.738 151.926C145.571 152.047 145.456 152.105 145.294 151.961C145.11 151.771 144.97 151.543 144.885 151.292C144.692 150.89 144.584 150.452 144.568 150.007C144.568 149.77 144.13 149.655 144.124 149.937C144.134 150.608 144.091 151.279 143.997 151.944C143.948 152.285 143.861 152.619 143.738 152.941C143.669 153.114 143.565 153.419 143.386 153.517C143.207 153.615 143.023 153.143 142.96 152.981C142.801 152.603 142.715 152.198 142.706 151.788C142.706 151.788 142.706 151.753 142.706 151.73C142.706 151.505 142.21 151.407 142.216 151.667V151.725C142.216 152.279 142.112 152.828 141.91 153.344C141.801 153.674 141.641 153.985 141.438 154.267C141.484 153.512 141.536 152.641 140.832 152.238C139.743 151.615 138.895 153.091 138.832 154.002C138.832 154.111 139.034 154.319 139.086 154.146C139.206 153.696 139.418 153.276 139.708 152.912C139.956 152.612 140.446 152.272 140.781 152.653C140.977 152.969 141.054 153.345 141 153.713C141 154.071 140.936 154.422 140.936 154.78C140.937 154.825 140.948 154.869 140.97 154.909C140.991 154.948 141.022 154.982 141.059 155.007C141.097 155.032 141.14 155.048 141.185 155.052C141.23 155.057 141.275 155.05 141.317 155.034C141.829 154.688 142.201 154.171 142.366 153.575C142.424 153.424 142.474 153.27 142.516 153.114C142.532 153.147 142.545 153.182 142.556 153.218C142.717 153.564 143.006 154.007 143.444 153.984C144.02 153.95 144.234 153.148 144.355 152.71C144.457 152.334 144.518 151.947 144.539 151.557L144.66 151.805C144.948 152.324 145.565 152.826 146.078 152.266C146.234 152.065 145.9 151.811 145.738 151.926Z" fill="#455A64"/>
<path d="M181.077 89.0717C180.887 88.9045 180.541 88.7258 180.293 88.8987C179.77 89.3732 179.342 89.9424 179.031 90.5763C178.604 91.2508 176.8 95.3899 176.01 97.1251C175.923 97.3096 175.814 97.5633 175.618 97.5114C175.55 97.4919 175.489 97.4516 175.445 97.3961L173.814 95.8108C173.393 96.2604 172.932 96.8369 173.116 97.4191C173.225 97.6899 173.406 97.9252 173.641 98.0994C173.974 98.3992 174.333 98.6693 174.713 98.9065C175.024 99.1342 175.38 99.2952 175.756 99.3792C175.912 99.3994 176.071 99.3833 176.22 99.3323C176.369 99.2814 176.504 99.1968 176.615 99.0852C177.313 98.3069 180.599 92.6228 180.945 91.9944C181.338 91.4702 181.579 90.848 181.642 90.1958C181.585 89.7685 181.386 89.3728 181.077 89.0717Z" fill="#F7921E"/>
<path d="M181.077 112.87C180.887 112.703 180.541 112.525 180.293 112.703C179.768 113.175 179.339 113.745 179.031 114.381C178.604 115.05 176.8 119.189 176.01 120.93C175.923 121.114 175.814 121.362 175.618 121.316C175.55 121.292 175.491 121.25 175.445 121.195L173.814 119.615C173.393 120.059 172.932 120.636 173.116 121.224C173.225 121.494 173.406 121.73 173.641 121.904C173.974 122.202 174.333 122.47 174.713 122.705C175.024 122.935 175.379 123.098 175.756 123.184C175.913 123.204 176.072 123.188 176.221 123.136C176.371 123.084 176.506 122.998 176.615 122.884C177.313 122.111 180.599 116.427 180.945 115.799C181.336 115.274 181.577 114.652 181.642 114C181.586 113.571 181.387 113.173 181.077 112.87Z" fill="#F7921E"/>
<path d="M171.243 115.763C171.012 115.622 170.739 115.563 170.47 115.596C170.378 115.614 170.292 115.659 170.223 115.724C170.155 115.789 170.107 115.873 170.084 115.965C169.093 116.328 168.107 116.709 167.104 117.054C165.876 117.47 164.642 117.862 163.42 118.288C160.982 119.141 158.584 120.087 156.191 121.049C151.389 122.986 146.593 124.935 141.681 126.589C140.528 126.964 139.439 127.316 138.338 127.742C137.617 128.031 136.873 128.221 136.164 128.521C136.052 128.552 135.957 128.627 135.899 128.728C135.879 128.797 135.884 128.871 135.913 128.937C135.943 129.003 135.995 129.055 136.061 129.086C136.51 129.334 137.404 128.947 137.848 128.797C138.793 128.48 139.715 128.129 140.672 127.829C143.203 127.039 145.705 126.163 148.167 125.235C153.015 123.425 157.759 121.332 162.63 119.568C164.043 119.061 165.472 118.599 166.896 118.121C168.327 117.685 169.732 117.169 171.105 116.576C171.18 116.544 171.246 116.493 171.297 116.429C171.348 116.364 171.382 116.288 171.396 116.207C171.41 116.126 171.403 116.043 171.376 115.966C171.349 115.888 171.304 115.818 171.243 115.763Z" fill="#F7921E"/>
<path d="M155.779 148.663C154.338 149.453 148.665 152.917 147.189 153.73C144.67 155.119 142.203 156.555 139.735 158.031C139.614 158.106 139.476 158.192 139.441 158.33C139.332 158.803 140.018 158.469 140.156 158.405C140.548 158.227 140.94 158.036 141.309 157.829C142.076 157.431 146.129 155.125 147.403 154.433C148.896 153.621 154.701 150.139 156.177 149.32C156.569 149.118 156.119 148.478 155.779 148.663Z" fill="#F7921E"/>
<path d="M168.097 141.58C167.521 141.879 161.935 145.327 160.632 146.093C160.508 146.155 160.4 146.244 160.315 146.353C160.273 146.407 160.25 146.474 160.25 146.543C160.25 146.612 160.273 146.679 160.315 146.733C160.447 146.866 160.672 146.785 160.839 146.699C163.336 145.413 165.745 143.978 168.155 142.542C168.288 142.472 168.409 142.381 168.512 142.271C168.755 141.977 168.501 141.401 168.097 141.58Z" fill="#F7921E"/>
<path opacity="0.2" d="M72.7773 115.745L122.372 87.1113V129.65L72.7773 158.284V115.745Z" fill="black"/>
<path d="M76.1953 117.713L125.79 89.085V131.624L76.1953 160.258V117.713Z" fill="#F5F5F5"/>
<path d="M74.7734 116.898V159.437L76.1916 160.256V117.711L74.7734 116.898Z" fill="#E0E0E0"/>
<path d="M125.786 89.0842L124.368 88.2656L74.7734 116.9L76.1916 117.712L125.786 89.0842Z" fill="#F7921E"/>
<g opacity="0.8">
<path d="M125.786 89.0842L124.368 88.2656L74.7734 116.9L76.1916 117.712L125.786 89.0842Z" fill="white"/>
</g>
<path d="M74.7734 116.898L76.1916 117.711V125.892L74.7734 125.079V116.898Z" fill="#F7921E"/>
<g opacity="0.5">
<path d="M74.7734 116.898L76.1916 117.711V125.892L74.7734 125.079V116.898Z" fill="white"/>
</g>
<path d="M76.1953 125.893L125.79 97.2653V89.085L76.1953 117.713V125.893Z" fill="#F7921E"/>
<g opacity="0.65">
<path d="M76.1953 125.893L125.79 97.2653V89.085L76.1953 117.713V125.893Z" fill="white"/>
</g>
<path d="M79.5586 128.532C79.5586 128.988 79.893 129.155 80.3138 128.919L84.0321 126.768C84.2475 126.634 84.4281 126.451 84.5593 126.233C84.6905 126.016 84.7686 125.771 84.7872 125.517C84.7872 125.068 84.4471 124.895 84.0321 125.137L80.3138 127.281C80.099 127.417 79.9189 127.6 79.7877 127.817C79.6566 128.035 79.5781 128.279 79.5586 128.532Z" fill="#455A64"/>
<path d="M85.8281 124.911C85.8281 125.367 86.1625 125.534 86.5833 125.292L90.3016 123.147C90.5164 123.012 90.6965 122.829 90.8277 122.612C90.9588 122.394 91.0373 122.149 91.0568 121.896C91.0568 121.441 90.7167 121.274 90.3016 121.51L86.5833 123.661C86.3679 123.795 86.1873 123.978 86.0561 124.196C85.9248 124.413 85.8467 124.658 85.8281 124.911Z" fill="#455A64"/>
<path d="M92.125 121.292C92.125 121.742 92.4651 121.915 92.8802 121.673L96.5985 119.528C96.814 119.392 96.9946 119.208 97.1258 118.99C97.257 118.771 97.335 118.525 97.3537 118.271C97.3537 117.822 97.0135 117.649 96.5985 117.891L92.8802 120.035C92.6653 120.172 92.4851 120.356 92.3541 120.575C92.223 120.793 92.1445 121.038 92.125 121.292Z" fill="#455A64"/>
<path d="M98.3711 117.672C98.3711 118.122 98.7112 118.295 99.1263 118.052L102.845 115.908C103.06 115.772 103.241 115.588 103.372 115.37C103.503 115.151 103.581 114.905 103.6 114.651C103.6 114.202 103.26 114.029 102.845 114.271L99.1263 116.415C98.9108 116.551 98.7301 116.735 98.599 116.954C98.4678 117.172 98.3897 117.418 98.3711 117.672Z" fill="#455A64"/>
<path d="M104.645 114.044C104.645 114.5 104.985 114.667 105.4 114.43L109.118 112.28C109.334 112.146 109.515 111.963 109.646 111.746C109.778 111.528 109.855 111.283 109.873 111.029C109.873 110.58 109.539 110.407 109.118 110.649L105.382 112.793C105.171 112.93 104.994 113.115 104.866 113.332C104.738 113.549 104.662 113.793 104.645 114.044Z" fill="#455A64"/>
<path d="M110.918 110.425C110.918 110.881 111.258 111.048 111.673 110.806L115.391 108.661C115.607 108.527 115.788 108.344 115.919 108.126C116.051 107.909 116.128 107.663 116.147 107.41C116.147 106.955 115.812 106.788 115.391 107.024L111.673 109.174C111.458 109.309 111.277 109.492 111.146 109.709C111.015 109.927 110.937 110.172 110.918 110.425Z" fill="#455A64"/>
<path d="M117.188 106.811C117.188 107.26 117.528 107.433 117.943 107.191L121.661 105.047C121.877 104.912 122.059 104.728 122.19 104.509C122.321 104.291 122.399 104.044 122.416 103.79C122.416 103.34 122.082 103.167 121.661 103.409L117.943 105.554C117.728 105.69 117.548 105.875 117.417 106.093C117.285 106.311 117.207 106.557 117.188 106.811Z" fill="#455A64"/>
<path d="M79.8828 132.832L84.4485 130.209V134.319L79.8828 137.011V132.832Z" fill="#F7921E"/>
<path d="M79.8828 138.61L84.4485 135.981V140.098L79.8828 142.79V138.61Z" fill="#F7921E"/>
<path d="M79.8828 144.386L84.4485 141.757V145.867L79.8828 148.559V144.386Z" fill="#F7921E"/>
<path d="M79.8828 150.157L84.4485 147.534V151.645L79.8828 154.337V150.157Z" fill="#F7921E"/>
<path d="M86.1562 129.206L90.722 126.583V130.693L86.1562 133.386V129.206Z" fill="#E0E0E0"/>
<path d="M86.1562 134.983L90.722 132.36V136.471L86.1562 139.163V134.983Z" fill="#E0E0E0"/>
<path d="M86.1562 140.759L90.722 138.136V142.246L86.1562 144.938V140.759Z" fill="#E0E0E0"/>
<path d="M86.1562 146.536L90.722 143.907V148.023L86.1562 150.715V146.536Z" fill="#E0E0E0"/>
<path d="M92.4414 125.586L97.0013 122.957V127.073L92.4414 129.76V125.586Z" fill="#E0E0E0"/>
<path d="M92.4414 131.364L97.0013 128.735V132.846L92.4414 135.538V131.364Z" fill="#E0E0E0"/>
<path d="M92.4414 137.133L97.0013 134.51V138.62L92.4414 141.312V137.133Z" fill="#E0E0E0"/>
<path d="M92.4414 142.91L97.0013 140.287V144.397L92.4414 147.09V142.91Z" fill="#E0E0E0"/>
<path d="M98.7109 121.96L103.271 119.337V123.447L98.7109 126.139V121.96Z" fill="#E0E0E0"/>
<path d="M98.7109 127.735L103.271 125.112V129.223L98.7109 131.915V127.735Z" fill="#E0E0E0"/>
<path d="M98.7109 133.513L103.271 130.884V134.994L98.7109 137.686V133.513Z" fill="#E0E0E0"/>
<path d="M98.7109 139.29L103.271 136.661V140.771L98.7109 143.464V139.29Z" fill="#E0E0E0"/>
<path d="M104.992 118.335L109.552 115.712V119.822L104.992 122.514V118.335Z" fill="#E0E0E0"/>
<path d="M104.992 124.112L109.552 121.489V125.6L104.992 128.292V124.112Z" fill="#E0E0E0"/>
<path d="M104.992 129.888L109.552 127.265V131.375L104.992 134.067V129.888Z" fill="#E0E0E0"/>
<path d="M104.992 135.663L109.552 133.034V137.15L104.992 139.837V135.663Z" fill="#E0E0E0"/>
<path d="M111.27 114.714L115.829 112.085V116.195L111.27 118.893V114.714Z" fill="#E0E0E0"/>
<path d="M111.27 120.489L115.829 117.86V121.971L111.27 124.663V120.489Z" fill="#E0E0E0"/>
<path d="M111.27 126.261L115.829 123.638V127.748L111.27 130.44V126.261Z" fill="#E0E0E0"/>
<path d="M111.27 132.037L115.829 129.414V133.524L111.27 136.217V132.037Z" fill="#E0E0E0"/>
<path d="M117.543 111.088L122.109 108.465V112.575L117.543 115.267V111.088Z" fill="#E0E0E0"/>
<path d="M117.543 116.864L122.109 114.235V118.351L117.543 121.044V116.864Z" fill="#E0E0E0"/>
<path d="M117.543 122.641L122.109 120.013V124.123L117.543 126.815V122.641Z" fill="#E0E0E0"/>
<path d="M117.543 128.411L122.109 125.788V129.898L117.543 132.591V128.411Z" fill="#E0E0E0"/>
<path d="M121.995 106.988L122.346 107.743C122.351 107.754 122.357 107.764 122.365 107.772C122.374 107.78 122.383 107.786 122.394 107.791C122.405 107.795 122.416 107.797 122.428 107.797C122.44 107.797 122.451 107.794 122.462 107.789L123.257 107.484C123.384 107.438 123.436 107.617 123.344 107.784L122.767 108.867C122.732 108.931 122.718 109.003 122.727 109.075L122.859 110.049C122.859 110.205 122.75 110.412 122.635 110.395L121.926 110.309C121.897 110.309 121.868 110.317 121.843 110.331C121.818 110.345 121.797 110.365 121.781 110.389L121.072 111.3C120.957 111.444 120.824 111.392 120.848 111.214L120.986 110.061C120.991 110.033 120.99 110.004 120.981 109.977C120.973 109.95 120.959 109.926 120.94 109.905L120.363 109.49C120.271 109.421 120.323 109.185 120.45 109.092L121.245 108.475C121.301 108.429 121.341 108.367 121.361 108.297L121.718 107.144C121.776 106.965 121.937 106.867 121.995 106.988Z" fill="#F28F8F"/>
<path d="M104.297 132.384C104.317 131.975 104.211 131.57 103.994 131.223C103.776 130.877 103.457 130.606 103.08 130.447C102.054 130.078 101.189 130.896 100.549 131.6C100.382 131.778 100.688 131.865 100.82 131.738C101.483 131.115 102.705 130.493 103.415 131.329C104.124 132.165 103.755 133.387 103.415 134.292C102.838 135.802 101.293 137.255 99.5348 137.122C95.7012 136.834 99.8519 130.089 102.123 129.709C102.302 129.674 102.434 129.392 102.187 129.351C101.034 129.161 100.227 130.181 99.5117 130.954C98.7124 131.794 98.0892 132.786 97.6785 133.871C96.9118 135.906 98.0417 138.408 100.526 137.612C101.634 137.263 102.6 136.566 103.279 135.624C103.959 134.681 104.315 133.545 104.297 132.384Z" fill="#F28F8F"/>
<path d="M97.3592 129.939C97.1609 129.651 96.9329 129.384 96.6789 129.143C96.5867 129.04 96.3619 129.143 96.4138 129.299C96.5463 129.616 96.8231 129.789 96.9902 130.071C97.0182 130.121 97.049 130.169 97.0825 130.216C96.5837 129.941 96.0384 129.761 95.4741 129.685C94.3718 129.451 93.2243 129.555 92.1824 129.985C92.0786 130.02 92.119 130.118 92.2112 130.129C92.3748 130.132 92.5374 130.102 92.6897 130.043C93.2579 129.923 93.8398 129.883 94.4191 129.922C95.2617 129.939 96.0887 130.152 96.8346 130.544C96.5687 130.465 96.2866 130.458 96.0171 130.524C95.7476 130.589 95.5005 130.726 95.3012 130.919C95.2608 130.965 95.255 131.057 95.3357 131.069C95.6989 131.115 96.0045 130.977 96.3676 130.988C96.7877 130.997 97.2038 131.071 97.6013 131.207C97.7627 131.259 97.878 131.092 97.8722 130.953C97.7861 130.579 97.61 130.23 97.3592 129.939Z" fill="#F28F8F"/>
<path d="M100.523 109.307L100.471 109.353C100.432 109.396 100.385 109.431 100.333 109.457C100.235 109.526 100.183 109.457 100.091 109.399L99.3353 108.955C99.024 108.777 98.6609 108.563 98.2746 108.327C97.8884 108.091 97.4733 107.843 97.0698 107.583C96.9487 107.503 97.1736 107.105 97.3061 107.174C97.7327 107.393 98.1536 107.629 98.5513 107.849C98.9491 108.068 99.3123 108.269 99.6294 108.425L100.39 108.857C100.477 108.915 100.569 108.921 100.563 109.042C100.574 109.097 100.574 109.154 100.563 109.209L100.523 109.307Z" fill="#455A64"/>
<path d="M101.302 109.85C100.725 110.859 99.7681 111.407 98.765 110.865L98.7074 110.836C98.5605 110.724 98.4447 110.576 98.371 110.407C98.2974 110.237 98.2683 110.052 98.2865 109.868C98.3159 109.341 98.4683 108.828 98.7316 108.37C98.9949 107.913 99.3617 107.523 99.8027 107.233C99.9509 107.134 100.12 107.07 100.297 107.047C100.474 107.024 100.654 107.042 100.823 107.101L100.881 107.129C100.912 107.147 100.941 107.168 100.967 107.193C101.884 107.775 101.878 108.853 101.302 109.85Z" fill="#37474F"/>
<path d="M102.503 111.843L103.656 109.924C102.797 109.482 101.999 108.932 101.281 108.286L101.241 108.24L101.2 108.206C101.087 108.134 100.955 108.099 100.821 108.104C100.687 108.109 100.558 108.155 100.451 108.235C100.162 108.425 99.922 108.681 99.7507 108.981C99.5794 109.282 99.4815 109.618 99.465 109.964C99.4516 110.087 99.4713 110.211 99.522 110.323C99.5727 110.436 99.6525 110.533 99.7533 110.604C99.8113 110.638 99.8765 110.657 99.9435 110.662C100.845 110.94 101.706 111.337 102.503 111.843Z" fill="#455A64"/>
<path d="M104.618 110.269C104.618 109.954 104.493 109.652 104.27 109.429C104.047 109.206 103.745 109.081 103.43 109.081C103.286 109.081 103.144 109.109 103.01 109.162H102.964C102.899 109.183 102.837 109.212 102.779 109.248C102.428 109.475 102.135 109.782 101.926 110.144C101.716 110.505 101.596 110.912 101.574 111.329C101.576 111.43 101.588 111.531 101.609 111.629C101.666 111.916 101.827 112.172 102.061 112.348C102.296 112.523 102.586 112.606 102.878 112.58C103.17 112.555 103.441 112.422 103.641 112.208C103.841 111.994 103.955 111.714 103.961 111.422C103.964 111.385 103.964 111.348 103.961 111.312C104.155 111.215 104.32 111.066 104.435 110.882C104.551 110.698 104.615 110.486 104.618 110.269Z" fill="#37474F"/>
<path d="M103.43 109.693C104.092 109.313 104.629 109.624 104.629 110.391C104.606 110.807 104.486 111.212 104.278 111.572C104.069 111.933 103.779 112.239 103.43 112.466C102.767 112.853 102.23 112.541 102.23 111.775C102.253 111.358 102.373 110.952 102.581 110.591C102.79 110.229 103.08 109.922 103.43 109.693Z" fill="#455A64"/>
<path opacity="0.2" d="M84.1602 161.726V199.007L115.048 181.177V143.89L84.1602 161.726Z" fill="black"/>
<path d="M118.602 183.016C118.602 183.016 100.368 193.226 98.0733 194.5C95.7789 195.774 94.2859 192.084 94.2686 189.847C91.9627 191.312 87.2817 192.228 87.0453 189.305L85.4023 168.068L116.29 150.231L118.602 183.016Z" fill="#455A64"/>
<path d="M111.665 162.234L92.8383 173.146C92.7715 173.188 92.6966 173.214 92.6187 173.223C92.5409 173.232 92.4619 173.225 92.3873 173.201C92.3127 173.177 92.2441 173.137 92.1865 173.083C92.1288 173.03 92.0834 172.965 92.0533 172.893V172.868C91.9884 172.711 91.9826 172.536 92.0369 172.375C92.0913 172.213 92.2021 172.077 92.349 171.992L111.179 161.079C111.245 161.038 111.319 161.012 111.396 161.003C111.473 160.995 111.551 161.003 111.624 161.028C111.698 161.053 111.764 161.094 111.82 161.147C111.876 161.201 111.919 161.267 111.946 161.339V161.364C112.01 161.519 112.017 161.691 111.966 161.851C111.914 162.01 111.807 162.146 111.665 162.234Z" fill="white"/>
<path d="M111.665 167.461L92.8383 178.373C92.7715 178.415 92.6966 178.441 92.6187 178.45C92.5409 178.46 92.4619 178.452 92.3873 178.428C92.3127 178.404 92.2441 178.364 92.1865 178.311C92.1288 178.257 92.0834 178.192 92.0533 178.12V178.095C91.9884 177.938 91.9826 177.763 92.0369 177.602C92.0913 177.441 92.2021 177.305 92.349 177.219L111.179 166.306C111.245 166.265 111.319 166.239 111.396 166.23C111.473 166.222 111.551 166.23 111.624 166.255C111.698 166.28 111.764 166.321 111.82 166.375C111.876 166.428 111.919 166.494 111.946 166.566V166.591C112.01 166.746 112.017 166.918 111.966 167.078C111.914 167.237 111.807 167.373 111.665 167.461Z" fill="white"/>
<path d="M111.665 172.688L92.8383 183.6C92.7715 183.642 92.6966 183.668 92.6187 183.677C92.5409 183.687 92.4619 183.679 92.3873 183.655C92.3127 183.631 92.2441 183.591 92.1865 183.538C92.1288 183.484 92.0834 183.419 92.0533 183.347V183.322C91.9884 183.165 91.9826 182.99 92.0369 182.829C92.0913 182.668 92.2021 182.532 92.349 182.446L111.179 171.533C111.245 171.492 111.319 171.466 111.396 171.458C111.473 171.449 111.551 171.457 111.624 171.482C111.698 171.507 111.764 171.548 111.82 171.602C111.876 171.655 111.919 171.721 111.946 171.793V171.818C112.01 171.973 112.017 172.145 111.966 172.305C111.914 172.464 111.807 172.6 111.665 172.688Z" fill="white"/>
<path d="M116.29 150.23L85.4023 168.061V162.342L116.29 144.506V150.23Z" fill="#37474F"/>
<path d="M88.0117 190.867L96.4686 194.597L93.8341 187.708L88.0117 190.867Z" fill="#37474F"/>
</svg>
