<svg width="256" height="256" viewBox="0 0 256 256" fill="none" xmlns="http://www.w3.org/2000/svg">
<path d="M128 110.5C158.308 110.5 185.723 117.202 205.542 128.013C225.38 138.834 237.5 153.7 237.5 170C237.5 186.3 225.38 201.166 205.542 211.987C185.723 222.798 158.308 229.5 128 229.5C97.6916 229.5 70.2774 222.798 50.458 211.987C30.6197 201.166 18.5 186.3 18.5 170C18.5 153.7 30.6197 138.834 50.458 128.013C70.2774 117.202 97.6916 110.5 128 110.5Z" stroke="#D5D5D5"/>
<path d="M43.0039 112.355L142.28 55.0742L146.251 57.3654C146.794 57.7205 147.246 58.1982 147.571 58.7599C147.895 59.3216 148.083 59.9517 148.119 60.5993V133.801C148.083 134.449 147.896 135.079 147.571 135.641C147.246 136.203 146.794 136.68 146.251 137.035L50.7113 192.16C50.1318 192.451 49.492 192.603 48.8431 192.603C48.1943 192.603 47.5545 192.451 46.9749 192.16L44.8676 190.947C44.3249 190.589 43.8736 190.11 43.55 189.547C43.2263 188.983 43.0393 188.352 43.0039 187.704V112.355Z" fill="#F7921E"/>
<path opacity="0.15" d="M43.0039 112.355L142.28 55.0742L146.251 57.3654C146.794 57.7205 147.246 58.1982 147.571 58.7599C147.895 59.3216 148.083 59.9517 148.119 60.5993V133.801C148.083 134.449 147.896 135.079 147.571 135.641C147.246 136.203 146.794 136.68 146.251 137.035L50.7113 192.16C50.1318 192.451 49.492 192.603 48.8431 192.603C48.1943 192.603 47.5545 192.451 46.9749 192.16L44.8676 190.947C44.3249 190.589 43.8736 190.11 43.55 189.547C43.2263 188.983 43.0393 188.352 43.0039 187.704V112.355Z" fill="white"/>
<path d="M141.738 48.6232L142.145 48.4022L140.601 47.5001C140.47 47.4237 140.333 47.3588 140.191 47.3062L96.4956 31.1323C95.895 30.9355 95.2477 30.9324 94.6452 31.1234C94.0428 31.3145 93.5156 31.6899 93.1383 32.1967L44.2629 103.54C43.5025 104.763 43.069 106.161 43.0039 107.6V112.34L44.5156 113.219L142.284 55.0368V50.3236C142.265 49.7169 142.076 49.1277 141.738 48.6232Z" fill="#F7921E"/>
<path opacity="0.4" d="M95.1478 32.5481C94.9526 32.6997 94.7821 32.8808 94.6426 33.0848L45.773 104.419C45.3746 105.051 45.0707 105.738 44.8709 106.458L43.3555 105.556C43.4639 105.189 43.5949 104.829 43.7479 104.478C43.7489 104.468 43.7489 104.457 43.7479 104.447C43.8155 104.298 43.8832 104.158 43.9599 103.995L43.9959 103.928C44.072 103.771 44.1594 103.621 44.2575 103.477L93.1136 32.2008C93.1877 32.0947 93.2707 31.9951 93.3617 31.9031C93.4429 31.8219 93.5331 31.7407 93.6188 31.6641L95.1478 32.5481Z" fill="white"/>
<path opacity="0.7" d="M142.075 48.4002C141.942 48.32 141.801 48.252 141.656 48.1973L97.9775 32.0098C97.498 31.854 96.9869 31.8218 96.4917 31.9165C95.9965 32.0111 95.5332 32.2294 95.145 32.5511L93.625 31.649C94.018 31.3295 94.4845 31.1131 94.9822 31.0194C95.48 30.9257 95.9932 30.9576 96.4755 31.1123L140.149 47.2952C140.292 47.3491 140.43 47.4171 140.56 47.4982L142.075 48.4002Z" fill="white"/>
<path d="M94.6506 33.0776L45.7752 104.421C45.0136 105.644 44.5786 107.042 44.5117 108.481V113.221L143.788 55.9402V51.2044C143.758 50.5568 143.545 49.9308 143.175 49.3985C142.804 48.8663 142.291 48.4495 141.694 48.1961L98.008 32.0132C97.4073 31.8164 96.76 31.8133 96.1576 32.0043C95.5551 32.1953 95.0279 32.5708 94.6506 33.0776Z" fill="#F7921E"/>
<path opacity="0.15" d="M94.6506 33.0776L45.7752 104.421C45.0136 105.644 44.5786 107.042 44.5117 108.481V113.221L143.788 55.9402V51.2044C143.758 50.5568 143.545 49.9308 143.175 49.3985C142.804 48.8663 142.291 48.4495 141.694 48.1961L98.008 32.0132C97.4073 31.8164 96.76 31.8133 96.1576 32.0043C95.5551 32.1953 95.0279 32.5708 94.6506 33.0776Z" fill="white"/>
<path d="M45.9727 112.36L57.9566 105.32L69.9632 98.3198L94.0078 84.383L118.102 70.5319L130.172 63.6402L142.26 56.7891L130.276 63.8251L118.273 70.8251L94.2243 84.7618L70.1301 98.6084L58.0649 105.505L45.9727 112.36Z" fill="#F7921E"/>
<path opacity="0.2" d="M131.425 44.4012L113.934 37.9199L76.5294 59.5152L51.4609 96.1296V162.67L131.425 116.503V44.4012Z" fill="black"/>
<path d="M56.2539 77.1946V165.876L136.218 119.709V31.0273L56.2539 77.1946Z" fill="#F7921E"/>
<path d="M56.2503 77.1956L54.4688 76.1718L134.433 30L136.214 31.0283L56.2503 77.1956Z" fill="#F7921E"/>
<path opacity="0.3" d="M56.2503 77.1956L54.4688 76.1718L134.433 30L136.214 31.0283L56.2503 77.1956Z" fill="white"/>
<path d="M54.4688 76.1699V164.842L56.2503 165.875V77.1938L54.4688 76.1699Z" fill="#F7921E"/>
<path opacity="0.2" d="M54.4688 76.1699V164.842L56.2503 165.875V77.1938L54.4688 76.1699Z" fill="black"/>
<path d="M133.536 36.082L59.3359 78.9207V159.664L133.536 116.825V36.082Z" fill="#FAFAFA"/>
<path d="M70.6338 90.6201L120.904 61.3686C121.924 60.753 122.831 61.184 122.831 62.3946C122.788 63.0473 122.591 63.6802 122.256 64.2406C121.921 64.801 121.457 65.2727 120.904 65.6163L70.6338 94.8678C69.6144 95.4834 68.707 95.0422 68.707 93.8418C68.7547 93.1903 68.954 92.5593 69.2887 91.9997C69.6234 91.44 70.0842 90.9675 70.6338 90.6201Z" fill="#F7921E"/>
<path d="M70.9379 137.443L124.57 106.48C124.862 106.296 125.107 106.046 125.284 105.751C125.462 105.456 125.568 105.123 125.594 104.779C125.594 104.166 125.143 103.936 124.57 104.26L70.9334 135.228C70.6424 135.411 70.3986 135.66 70.2215 135.954C70.0444 136.249 69.9391 136.581 69.9141 136.924C69.9141 137.537 70.3696 137.767 70.9379 137.443Z" fill="#E0E0E0"/>
<path d="M70.9379 133.009L124.57 102.046C124.863 101.863 125.108 101.613 125.285 101.318C125.463 101.023 125.569 100.689 125.594 100.346C125.594 99.7322 125.143 99.5021 124.57 99.8269L70.9379 130.79C70.6458 130.973 70.4008 131.223 70.223 131.518C70.0451 131.813 69.9393 132.146 69.9141 132.49C69.9141 133.126 70.3696 133.334 70.9379 133.009Z" fill="#E0E0E0"/>
<path d="M70.9379 128.577L124.57 97.6098C124.863 97.4279 125.108 97.1794 125.286 96.8847C125.464 96.59 125.569 96.2573 125.594 95.914C125.594 95.3006 125.143 95.066 124.57 95.3953L70.9379 126.363C70.6455 126.546 70.4004 126.795 70.2225 127.091C70.0446 127.386 69.9389 127.719 69.9141 128.063C69.9141 128.672 70.3741 128.902 70.9379 128.577Z" fill="#E0E0E0"/>
<path d="M70.9379 124.144L124.57 93.1764C124.863 92.994 125.109 92.7448 125.287 92.4493C125.465 92.1537 125.57 91.8202 125.594 91.476C125.594 90.8671 125.143 90.6326 124.57 90.9618L70.9379 121.925C70.6463 122.109 70.4017 122.358 70.2239 122.653C70.0461 122.949 69.94 123.282 69.9141 123.625C69.9141 124.239 70.3741 124.469 70.9379 124.144Z" fill="#E0E0E0"/>
<path d="M70.9345 115.276L124.572 84.3086C124.863 84.1258 125.108 83.8772 125.285 83.5826C125.463 83.288 125.569 82.9558 125.595 82.6127C125.595 82.0038 125.144 81.7693 124.572 82.0985L70.9345 113.057C70.6428 113.241 70.3983 113.49 70.2205 113.786C70.0427 114.081 69.9366 114.414 69.9107 114.758C69.8926 115.371 70.3707 115.601 70.9345 115.276Z" fill="#E0E0E0"/>
<path d="M70.9379 110.843L124.57 79.8756C124.863 79.6924 125.108 79.443 125.285 79.1476C125.463 78.8522 125.569 78.5191 125.594 78.1752C125.594 77.5663 125.143 77.3318 124.57 77.661L70.9334 108.624C70.6421 108.808 70.398 109.057 70.221 109.353C70.0439 109.648 69.9388 109.981 69.9141 110.325C69.9141 110.938 70.3696 111.168 70.9379 110.843Z" fill="#E0E0E0"/>
<path d="M70.9379 106.405L124.57 75.4415C124.863 75.2592 125.109 75.01 125.287 74.7144C125.465 74.4189 125.57 74.0853 125.594 73.7412C125.594 73.1323 125.143 72.8977 124.57 73.2225L70.9379 104.19C70.645 104.372 70.3995 104.622 70.2216 104.917C70.0436 105.213 69.9382 105.546 69.9141 105.89C69.9141 106.517 70.3696 106.734 70.9379 106.405Z" fill="#E0E0E0"/>
<path d="M70.9379 101.97L124.57 71.0069C124.863 70.8245 125.109 70.5753 125.287 70.2798C125.465 69.9842 125.57 69.6507 125.594 69.3065C125.594 68.6931 125.143 68.4631 124.57 68.7878L70.9379 99.7509C70.645 99.9333 70.3995 100.182 70.2216 100.478C70.0436 100.774 69.9382 101.107 69.9141 101.451C69.9141 102.065 70.3741 102.299 70.9379 101.97Z" fill="#E0E0E0"/>
<path d="M70.9379 150.683L124.57 119.715C124.863 119.533 125.109 119.284 125.287 118.988C125.465 118.693 125.57 118.359 125.594 118.015C125.594 117.406 125.143 117.172 124.57 117.501L70.9379 148.464C70.645 148.646 70.3995 148.896 70.2216 149.191C70.0436 149.487 69.9382 149.82 69.9141 150.164C69.9141 150.778 70.3696 151.008 70.9379 150.683Z" fill="#E0E0E0"/>
<path d="M70.9379 146.243L124.57 115.28C124.863 115.098 125.109 114.849 125.287 114.553C125.465 114.258 125.57 113.924 125.594 113.58C125.594 112.967 125.143 112.737 124.57 113.061L70.9379 144.029C70.645 144.211 70.3995 144.46 70.2216 144.756C70.0436 145.052 69.9382 145.385 69.9141 145.729C69.9141 146.338 70.3741 146.573 70.9379 146.243Z" fill="#E0E0E0"/>
<path d="M113.192 57.6317L126.628 49.8741C126.916 49.6887 127.156 49.4382 127.33 49.1428C127.503 48.8474 127.604 48.5154 127.625 48.1737C127.625 47.5603 127.174 47.3303 126.601 47.655L113.192 55.4172C112.899 55.5996 112.654 55.8487 112.476 56.1443C112.298 56.4399 112.192 56.7734 112.168 57.1176C112.155 57.7265 112.61 57.961 113.192 57.6317Z" fill="#E0E0E0"/>
<path d="M148.086 60.1197C147.995 59.583 147.711 59.4342 147.35 59.6687C147.164 59.8049 147.003 59.9711 146.872 60.1603L146.664 60.449L105.826 122.506L99.7291 130.994C99.3369 131.489 98.817 131.868 98.2254 132.09C97.6339 132.312 96.993 132.368 96.3718 132.253L91.1057 131.003L50.9439 116.223C50.6751 116.157 50.3957 116.146 50.1227 116.192C50.0191 116.214 49.9179 116.245 49.8203 116.286L51.332 115.411L89.8421 129.519L94.9142 131.324C95.5355 131.44 96.1768 131.385 96.7687 131.163C97.3605 130.941 97.8803 130.561 98.2716 130.065L104.368 121.581L145.396 59.2538C145.519 59.0858 145.672 58.942 145.847 58.8298L142.301 56.7821L143.785 55.9297L146.245 57.3414C146.723 57.657 147.132 58.0657 147.448 58.5431C147.765 59.0204 147.981 59.5567 148.086 60.1197Z" fill="#F7921E"/>
<path d="M145.604 134.764C145.573 134.816 145.538 134.866 145.5 134.913L104.129 121.797C102.554 121.1 100.78 120.995 99.1334 121.502C97.4872 122.01 96.08 123.095 95.1715 124.558L50.9484 190.254L49.3104 191.202C49.1283 191.329 48.9172 191.408 48.6965 191.433C48.4757 191.457 48.2524 191.426 48.0469 191.341L93.5334 123.615C94.4437 122.156 95.8496 121.075 97.4933 120.569C99.1369 120.063 100.908 120.166 102.482 120.859L145.604 134.764Z" fill="#F7921E"/>
<path opacity="0.4" d="M146.207 57.357L143.753 55.9453L142.265 56.8023L145.814 58.8454C145.639 58.957 145.486 59.1008 145.363 59.2694L104.418 121.511L104.211 121.809L104.491 121.899L105.92 122.35L146.617 60.4736L146.825 60.185C146.958 59.9977 147.119 59.8319 147.303 59.6934C147.668 59.4408 147.952 59.5896 148.038 60.1444C147.936 59.5806 147.721 59.0433 147.406 58.5644C147.091 58.0855 146.684 57.6749 146.207 57.357Z" fill="white"/>
<path d="M51.7585 117.408L43.0039 112.352V187.7C43.0406 188.347 43.2282 188.977 43.5517 189.538C43.8751 190.1 44.3255 190.578 44.8667 190.934L46.973 192.147C47.5523 192.439 48.1918 192.591 48.8403 192.591C49.4888 192.591 50.1283 192.439 50.7076 192.147L51.7585 191.539V117.408Z" fill="#F7921E"/>
<path opacity="0.25" d="M51.7585 117.408L43.0039 112.352V187.7C43.0406 188.347 43.2282 188.977 43.5517 189.538C43.8751 190.1 44.3255 190.578 44.8667 190.934L46.973 192.147C47.5523 192.439 48.1918 192.591 48.8403 192.591C49.4888 192.591 50.1283 192.439 50.7076 192.147L51.7585 191.539V117.408Z" fill="white"/>
<path d="M148.124 60.5877V133.785C148.1 134.455 147.899 135.107 147.542 135.675C147.266 136.154 146.894 136.571 146.45 136.902L146.374 136.938C146.337 136.969 146.297 136.998 146.256 137.024L50.7121 192.153C50.5271 192.284 50.3119 192.368 50.0864 192.394C49.8609 192.421 49.6322 192.391 49.4215 192.306C49.2619 192.213 49.1277 192.082 49.0309 191.925C48.9341 191.767 48.8776 191.588 48.8664 191.404C48.857 191.293 48.857 191.181 48.8664 191.07V117.873C48.8505 117.611 48.8983 117.349 49.0057 117.11C49.1131 116.87 49.277 116.661 49.4832 116.498C49.6895 116.336 49.932 116.226 50.19 116.178C50.448 116.13 50.7139 116.145 50.9648 116.222L91.1264 131.002L96.3881 132.252C97.0093 132.367 97.6501 132.31 98.2417 132.089C98.8332 131.867 99.3531 131.488 99.7454 130.993L105.842 122.505L146.658 60.4659L146.865 60.1773C147.556 59.2166 148.124 59.397 148.124 60.5877Z" fill="#F7921E"/>
<path opacity="0.5" d="M148.124 60.5877V133.785C148.1 134.455 147.899 135.107 147.542 135.675C147.266 136.154 146.894 136.571 146.45 136.902L146.374 136.938C146.337 136.969 146.297 136.998 146.256 137.024L50.7121 192.153C50.5271 192.284 50.3119 192.368 50.0864 192.394C49.8609 192.421 49.6322 192.391 49.4215 192.306C49.2619 192.213 49.1277 192.082 49.0309 191.925C48.9341 191.767 48.8776 191.588 48.8664 191.404C48.857 191.293 48.857 191.181 48.8664 191.07V117.873C48.8505 117.611 48.8983 117.349 49.0057 117.11C49.1131 116.87 49.277 116.661 49.4832 116.498C49.6895 116.336 49.932 116.226 50.19 116.178C50.448 116.13 50.7139 116.145 50.9648 116.222L91.1264 131.002L96.3881 132.252C97.0093 132.367 97.6501 132.31 98.2417 132.089C98.8332 131.867 99.3531 131.488 99.7454 130.993L105.842 122.505L146.658 60.4659L146.865 60.1773C147.556 59.2166 148.124 59.397 148.124 60.5877Z" fill="white"/>
<path d="M145.386 135.004L104.197 121.789C102.607 121.091 100.819 120.986 99.1575 121.494C97.4965 122.003 96.0728 123.09 95.1451 124.558L93.5078 123.607C95.3976 120.603 98.7263 119.484 102.529 120.72L145.386 135.004Z" fill="#F7921E"/>
<path opacity="0.8" d="M145.386 135.004L104.197 121.789C102.607 121.091 100.819 120.986 99.1575 121.494C97.4965 122.003 96.0728 123.09 95.1451 124.558L93.5078 123.607C95.3976 120.603 98.7263 119.484 102.529 120.72L145.386 135.004Z" fill="white"/>
<path opacity="0.3" d="M146.212 137.024L146.334 136.943L146.406 136.903C146.849 136.573 147.22 136.157 147.498 135.68C147.847 135.121 148.046 134.481 148.075 133.822L105.809 122.506L134.111 144.006L146.212 137.024Z" fill="#F7921E"/>
<path d="M147.537 135.681C147.259 136.158 146.887 136.573 146.445 136.903L146.372 136.944L50.7061 192.154C50.5224 192.281 50.3101 192.361 50.088 192.386C49.866 192.411 49.6411 192.381 49.4336 192.299L95.1638 124.532C96.0825 123.061 97.5017 121.972 99.1601 121.465C100.819 120.958 102.604 121.067 104.189 121.771L147.537 135.681Z" fill="#F7921E"/>
<path opacity="0.6" d="M147.54 135.681C147.262 136.158 146.89 136.573 146.448 136.903L50.7814 192.114L50.6866 192.163C50.5029 192.29 50.2905 192.37 50.0685 192.395C49.8464 192.421 49.6216 192.39 49.4141 192.308L95.1669 124.532C96.0855 123.061 97.5047 121.972 99.1631 121.465C100.822 120.958 102.607 121.067 104.192 121.771L147.54 135.681Z" fill="white"/>
<path opacity="0.25" d="M43.3518 105.578L44.8673 106.48C44.6563 107.14 44.5394 107.826 44.52 108.519V113.25L43 112.371V107.608C43.0219 106.918 43.1403 106.235 43.3518 105.578Z" fill="white"/>
<path d="M51.3269 115.41L49.8159 116.285L48.2824 115.401L44.5117 113.227L45.9731 112.361L51.3269 115.41Z" fill="#F7921E"/>
<path opacity="0.4" d="M51.3939 115.443L45.9815 112.381L44.5156 113.251L48.2863 115.425L49.8198 116.327C49.913 116.288 50.0097 116.258 50.1085 116.237C50.3799 116.192 50.6577 116.203 50.9248 116.269L53.9783 117.392L89.0418 130.3L89.574 129.484L51.3939 115.443Z" fill="white"/>
<path d="M95.1517 124.558L49.4258 192.303C49.2243 192.173 49.0632 191.989 48.9604 191.772C48.8576 191.555 48.8173 191.314 48.8439 191.076V189.863L93.4964 123.62C93.4964 123.62 93.4964 123.62 93.4964 123.598L95.1517 124.558Z" fill="#F7921E"/>
<path opacity="0.3" d="M95.1517 124.558L49.4258 192.303C49.2243 192.173 49.0632 191.989 48.9604 191.772C48.8576 191.555 48.8173 191.314 48.8439 191.076V189.863L93.4964 123.62C93.4964 123.62 93.4964 123.62 93.4964 123.598L95.1517 124.558Z" fill="white"/>
<path d="M115.932 176.618C115.825 176.617 115.719 176.6 115.617 176.568C115.366 176.482 115.161 176.3 115.044 176.063C114.927 175.825 114.909 175.551 114.994 175.301L122.734 151.888C123.584 149.821 125.05 148.067 126.933 146.863L159.065 128.312C159.49 128.023 159.982 127.848 160.494 127.804C161.006 127.76 161.52 127.848 161.989 128.06C162.457 128.272 162.863 128.6 163.167 129.014C163.472 129.428 163.665 129.913 163.728 130.423L167.675 141.794C167.724 141.919 167.747 142.053 167.743 142.187C167.739 142.322 167.708 142.454 167.651 142.576C167.595 142.699 167.515 142.808 167.415 142.899C167.315 142.989 167.199 143.058 167.071 143.103C166.944 143.147 166.81 143.165 166.676 143.156C166.541 143.147 166.41 143.111 166.29 143.051C166.17 142.99 166.063 142.906 165.977 142.803C165.89 142.7 165.825 142.581 165.785 142.452L161.812 131.005C161.794 130.952 161.78 130.898 161.771 130.843C161.779 130.64 161.727 130.44 161.622 130.267C161.517 130.094 161.363 129.955 161.18 129.869C160.997 129.782 160.792 129.752 160.592 129.78C160.391 129.809 160.204 129.896 160.053 130.031L127.921 148.582C126.454 149.542 125.304 150.916 124.615 152.528L116.879 175.932C116.814 176.131 116.687 176.305 116.517 176.428C116.347 176.551 116.142 176.618 115.932 176.618Z" fill="#263238"/>
<path d="M163.421 204.572H163.304C163.04 204.541 162.8 204.407 162.635 204.199C162.47 203.991 162.394 203.726 162.425 203.462L165.64 176.658C165.803 175.559 166.199 174.508 166.801 173.574C167.403 172.641 168.198 171.847 169.131 171.245L201.263 152.695C201.72 152.418 202.232 152.244 202.764 152.185C203.295 152.126 203.832 152.182 204.339 152.351C204.846 152.52 205.311 152.798 205.7 153.164C206.089 153.53 206.395 153.976 206.594 154.472V154.526L212.958 177.695C213.03 177.94 213.005 178.203 212.89 178.43C212.774 178.657 212.576 178.831 212.336 178.918C212.096 179.004 211.833 178.995 211.599 178.894C211.365 178.793 211.179 178.606 211.078 178.372L204.745 155.229C204.652 155.001 204.511 154.796 204.332 154.626C204.153 154.457 203.941 154.327 203.708 154.246C203.469 154.172 203.218 154.149 202.969 154.18C202.721 154.21 202.483 154.293 202.269 154.422L170.137 172.973C169.479 173.416 168.918 173.989 168.488 174.656C168.058 175.322 167.767 176.069 167.634 176.852L164.418 203.674C164.392 203.921 164.276 204.149 164.092 204.315C163.908 204.481 163.669 204.572 163.421 204.572Z" fill="#263238"/>
<path d="M163.862 175.477C162.761 175.495 161.674 175.231 160.704 174.71L123.868 153.426C122.862 152.844 122.285 151.983 122.285 151.063C122.285 150.142 122.862 149.285 123.864 148.704L161.376 127.054C162.352 126.549 163.435 126.285 164.534 126.285C165.632 126.285 166.715 126.549 167.691 127.054L204.531 148.338C205.533 148.92 206.11 149.782 206.11 150.697C206.11 151.613 205.533 152.479 204.531 153.061L167.019 174.71C166.049 175.232 164.962 175.496 163.862 175.477ZM164.529 128.141C163.756 128.124 162.991 128.302 162.305 128.66L124.797 150.309C124.396 150.539 124.148 150.828 124.148 151.053C124.148 151.279 124.396 151.572 124.797 151.802L161.638 173.086C162.328 173.432 163.089 173.612 163.862 173.612C164.634 173.612 165.395 173.432 166.085 173.086L203.593 151.437C203.995 151.207 204.243 150.918 204.243 150.688C204.243 150.458 203.995 150.174 203.593 149.944L166.753 128.664C166.069 128.302 165.303 128.122 164.529 128.141Z" fill="#455A64"/>
<path d="M134.259 144.71C134.048 144.708 133.844 144.635 133.68 144.502C133.517 144.37 133.403 144.186 133.357 143.98L129.573 126.656C129.525 126.53 129.505 126.396 129.514 126.262C129.523 126.129 129.56 125.998 129.624 125.88C129.688 125.762 129.776 125.659 129.883 125.579C129.991 125.498 130.114 125.441 130.245 125.412C130.376 125.384 130.511 125.383 130.643 125.412C130.774 125.44 130.897 125.496 131.004 125.577C131.112 125.657 131.201 125.759 131.265 125.877C131.329 125.995 131.367 126.125 131.377 126.259L135.161 143.578C135.187 143.698 135.19 143.822 135.168 143.942C135.147 144.063 135.102 144.178 135.036 144.281C134.969 144.385 134.883 144.474 134.782 144.543C134.682 144.613 134.568 144.662 134.448 144.688C134.386 144.704 134.323 144.711 134.259 144.71Z" fill="#37474F"/>
<path d="M151.916 134.512C151.706 134.51 151.502 134.436 151.338 134.304C151.174 134.171 151.06 133.987 151.014 133.781L147.221 116.439C147.173 116.314 147.153 116.179 147.162 116.046C147.171 115.912 147.209 115.781 147.272 115.663C147.336 115.545 147.425 115.443 147.532 115.362C147.639 115.281 147.762 115.224 147.893 115.196C148.024 115.167 148.16 115.167 148.291 115.195C148.422 115.223 148.546 115.279 148.653 115.36C148.76 115.44 148.849 115.543 148.913 115.66C148.978 115.778 149.016 115.908 149.025 116.042L152.809 133.366C152.835 133.485 152.837 133.609 152.815 133.729C152.794 133.849 152.748 133.964 152.682 134.066C152.616 134.169 152.53 134.258 152.43 134.327C152.329 134.396 152.216 134.445 152.097 134.471C152.038 134.492 151.978 134.506 151.916 134.512Z" fill="#37474F"/>
<path d="M163.424 111.547C163.407 111.38 163.347 111.22 163.249 111.084C163.151 110.948 163.018 110.84 162.865 110.771L157.985 107.957C157.566 107.743 157.102 107.631 156.632 107.631C156.161 107.631 155.698 107.743 155.279 107.957L120.125 128.253C119.972 128.322 119.839 128.431 119.742 128.568C119.644 128.705 119.585 128.866 119.57 129.033V130.486C119.585 130.653 119.644 130.814 119.742 130.951C119.839 131.088 119.972 131.197 120.125 131.266L125.005 134.08C125.424 134.294 125.888 134.406 126.358 134.406C126.829 134.406 127.293 134.294 127.711 134.08L162.865 113.784C163.019 113.716 163.152 113.609 163.25 113.472C163.349 113.336 163.409 113.176 163.424 113.008V111.547Z" fill="#37474F"/>
<path d="M162.863 110.771L157.983 107.957C157.564 107.743 157.101 107.631 156.63 107.631C156.16 107.631 155.696 107.743 155.277 107.957L126.348 124.645V134.382C126.819 134.395 127.285 134.285 127.701 134.062L162.854 113.766C163.008 113.698 163.141 113.591 163.24 113.454C163.338 113.318 163.398 113.158 163.414 112.99V111.533C163.395 111.37 163.335 111.213 163.239 111.08C163.142 110.946 163.013 110.84 162.863 110.771Z" fill="#263238"/>
<path d="M155.295 107.956L120.141 128.253C119.978 128.307 119.837 128.412 119.736 128.552C119.636 128.691 119.582 128.859 119.582 129.031C119.582 129.203 119.636 129.37 119.736 129.51C119.837 129.649 119.978 129.754 120.141 129.809L125.021 132.623C125.44 132.837 125.904 132.949 126.374 132.949C126.845 132.949 127.309 132.837 127.728 132.623L162.881 112.327C163.035 112.259 163.168 112.152 163.267 112.015C163.365 111.879 163.425 111.719 163.44 111.551C163.424 111.384 163.363 111.224 163.265 111.088C163.167 110.952 163.034 110.844 162.881 110.775L158.001 107.961C157.582 107.746 157.119 107.634 156.648 107.633C156.178 107.632 155.714 107.743 155.295 107.956Z" fill="#455A64"/>
<path d="M202.136 143.116L163.798 120.966C163.645 120.895 163.476 120.867 163.309 120.884C163.142 120.9 162.982 120.961 162.846 121.061L126.366 142.151C125.973 142.404 125.645 142.747 125.41 143.152C125.175 143.556 125.039 144.011 125.013 144.478V150.107C124.995 150.274 125.022 150.442 125.091 150.595C125.16 150.748 125.269 150.88 125.406 150.977L163.744 173.127C163.897 173.196 164.065 173.224 164.232 173.207C164.399 173.191 164.559 173.13 164.695 173.033L201.193 151.956C201.586 151.701 201.914 151.358 202.149 150.952C202.384 150.547 202.52 150.092 202.546 149.624V143.986C202.563 143.818 202.533 143.648 202.461 143.494C202.389 143.341 202.276 143.21 202.136 143.116Z" fill="#F7921E"/>
<path opacity="0.15" d="M163.737 173.107L125.421 150.962C125.283 150.865 125.174 150.734 125.103 150.581C125.033 150.428 125.004 150.259 125.02 150.091V144.467C125.04 143.963 125.195 143.473 125.471 143.051L163.809 165.196C163.534 165.619 163.378 166.108 163.358 166.613V172.237C163.338 172.403 163.363 172.571 163.429 172.724C163.496 172.877 163.602 173.009 163.737 173.107Z" fill="black"/>
<path opacity="0.25" d="M163.341 172.241V166.612C163.368 166.145 163.504 165.691 163.739 165.287C163.974 164.883 164.301 164.539 164.694 164.285L201.192 143.204C201.32 143.088 201.483 143.015 201.655 142.997C201.828 142.978 202.002 143.015 202.152 143.102C202.302 143.189 202.421 143.321 202.492 143.479C202.562 143.638 202.581 143.815 202.545 143.984V149.609C202.519 150.076 202.383 150.531 202.148 150.937C201.913 151.342 201.585 151.686 201.192 151.94L164.694 173.017C164.558 173.115 164.398 173.175 164.231 173.192C164.064 173.208 163.895 173.181 163.742 173.112C163.604 173.016 163.493 172.884 163.423 172.731C163.352 172.578 163.324 172.409 163.341 172.241Z" fill="black"/>
<path d="M204.553 112.5L171.276 93.268C171.137 93.2138 170.987 93.1965 170.84 93.2179C170.693 93.2392 170.554 93.2985 170.437 93.3898L165.556 96.2087C164.744 96.7416 164.167 97.5669 163.946 98.5134L159.436 124.583C159.359 125.034 159.458 125.332 159.675 125.458L192.952 144.69C193.091 144.744 193.241 144.761 193.388 144.74C193.535 144.718 193.674 144.659 193.791 144.568L198.671 141.749C199.485 141.217 200.062 140.392 200.282 139.444L204.792 113.375C204.869 112.928 204.756 112.626 204.553 112.5Z" fill="#F7921E"/>
<path opacity="0.15" d="M192.702 143.814C192.625 144.265 192.702 144.558 192.937 144.689L159.646 125.462C159.429 125.335 159.339 125.033 159.411 124.591L163.922 98.5171C164.025 98.0284 164.231 97.5671 164.526 97.1641L197.799 116.391C197.502 116.793 197.297 117.255 197.199 117.744L192.702 143.814Z" fill="black"/>
<path opacity="0.25" d="M193.782 144.568L198.663 141.749C199.477 141.218 200.054 140.392 200.273 139.444L204.783 113.375C204.86 112.924 204.761 112.626 204.544 112.5C204.406 112.444 204.256 112.425 204.109 112.446C203.961 112.466 203.822 112.525 203.705 112.617L198.825 115.436C198.009 115.966 197.432 116.793 197.215 117.741L192.704 143.815C192.628 144.266 192.704 144.564 192.943 144.69C193.082 144.744 193.232 144.761 193.379 144.74C193.526 144.719 193.665 144.659 193.782 144.568Z" fill="black"/>
<path d="M146.259 164.18C148.6 164.261 150.246 166.435 150.318 167.044C150.435 167.874 150.075 169.461 148.807 171.279C147.664 173.109 146.963 175.179 146.759 177.327C146.62 179.163 146.71 183.817 144.504 185.775C142.299 187.732 137.91 189.013 136.995 185.667C136.697 184.571 138.244 181.215 139.105 178.721C140.819 173.76 142.335 168.798 142.335 168.798L146.259 164.18Z" fill="#263238"/>
<path opacity="0.15" d="M149.727 166.013C149.546 167.718 147.841 171.57 144.914 174.939C141.987 178.308 138.054 182.499 136.98 185.024C137.125 183.806 138.009 181.678 138.721 179.774L138.767 179.648L138.888 179.319L138.942 179.165L139.091 178.75V178.723C139.628 177.167 140.142 175.616 140.598 174.213C140.963 173.09 141.292 172.066 141.558 171.218C141.694 170.794 141.811 170.411 141.915 170.082C141.964 169.919 142.014 169.77 142.055 169.631C142.226 169.085 142.321 168.774 142.321 168.774L146.249 164.178C146.407 164.178 146.556 164.178 146.7 164.218C147.89 164.438 148.963 165.075 149.727 166.013Z" fill="black"/>
<path d="M146.28 168.387C145.475 170.805 144.854 173.281 144.422 175.793C144.003 178.544 143.114 180.249 141.96 181.313C140.683 182.486 137.941 182.797 138.73 180.023C139.28 178.093 142.338 168.779 142.338 168.779L146.28 168.387Z" fill="#FFA8A7"/>
<path d="M138.982 181.885C138.612 181.569 138.454 180.983 138.729 180.022C138.855 179.571 139.108 178.768 139.424 177.767C139.843 176.535 140.245 175.322 140.605 174.208C140.966 173.094 141.3 172.061 141.566 171.213C141.701 170.789 141.819 170.406 141.922 170.077C141.977 169.914 142.022 169.766 142.062 169.626C142.229 169.093 142.324 168.787 142.324 168.773L146.275 168.381C145.512 170.686 144.909 173.042 144.471 175.43C142.685 177.483 140.56 179.828 138.982 181.885Z" fill="#F28F8F"/>
<path d="M134.191 157.705L137.858 168.845L145.431 163.46L143.614 150.795L134.191 157.705Z" fill="#F28F8F"/>
<path d="M142.956 131.252C147.479 129.788 152.073 128.556 156.722 127.562L164.606 136.655L155.423 141.901L143.34 146.379C143.34 146.379 143.831 147.76 144.206 151.426C144.31 152.446 144.427 153.158 144.485 154.11C140.918 157.267 138.708 162.427 135.686 162.991C135.686 162.991 132.28 154.033 130.183 146.817C128.208 140.029 130.183 137.963 130.855 137.147C132.037 135.708 134.838 133.927 142.956 131.252Z" fill="#37474F"/>
<path d="M138.322 157.62C138.349 157.525 138.38 157.43 138.407 157.34C138.66 156.497 138.908 155.689 139.138 154.954C139.143 154.929 139.15 154.905 139.161 154.882C139.273 154.517 139.382 154.174 139.485 153.849V153.817C139.751 152.983 139.986 152.275 140.166 151.788C140.757 150.178 142.322 148.27 143.513 146.984C143.805 148.252 144.017 149.537 144.149 150.832L144.108 150.922L141.497 156.361L140.144 159.198L139.769 159.676L139.661 159.807C139.314 160.258 138.967 160.66 138.619 161.034L138.493 161.169C138.389 161.277 138.29 161.381 138.186 161.48L138.046 161.616L137.735 161.9L137.618 161.995C137.386 162.188 137.14 162.364 136.883 162.522C137.307 161.052 137.785 159.509 138.2 158.044C138.236 157.899 138.281 157.759 138.322 157.62Z" fill="#263238"/>
<path d="M144.504 145.951C145.302 145.315 147.016 143.948 147.824 143.384C150.877 141.251 157.494 136.926 157.494 136.926L158.942 137.426L155.437 141.901L144.504 145.951Z" fill="#263238"/>
<path d="M135.839 188.447C136.403 188.506 136.29 189.462 136.403 190.725C136.622 191.956 136.465 193.224 135.952 194.365C135.235 195.813 132.772 195.718 131.239 197.522C129.705 199.326 127.387 202.682 122.917 203.16C118.447 203.638 115.25 201.852 114.582 200.454C113.915 199.055 114.758 197.91 117.739 196.597C120.897 195.208 121.772 194.793 121.772 194.793L135.839 188.447Z" fill="#263238"/>
<path d="M143.595 175.367C143.144 175.995 142.66 176.649 142.143 177.329C139.888 180.639 137.182 184.635 136.302 186.543C135.851 187.495 135.874 187.937 135.747 189.1C135.639 189.758 135.3 190.356 134.791 190.787C134.26 191.266 133.704 191.718 133.127 192.14C131.584 193.295 129 196.574 126.501 197.923C124.002 199.271 120.029 198.455 119.217 197.408C119.127 197.321 119.058 197.215 119.015 197.098C118.971 196.981 118.954 196.856 118.964 196.731C118.974 196.607 119.012 196.486 119.074 196.378C119.137 196.269 119.222 196.176 119.325 196.105C119.776 195.726 120.971 194.892 121.513 194.427C123.931 192.38 126.064 190.018 127.854 187.405C128.756 186.051 130.366 182.258 131.945 178.24C131.945 178.24 133.019 175.209 134.484 171.127" fill="#FFC4C3"/>
<path d="M142.422 150.267C144.267 146.695 160.256 136.632 160.256 136.632C160.256 136.632 159.246 130.101 158.772 125.596L182.934 131.324C183.52 134.504 183.547 138.888 181.888 142.031C179.677 146.208 174.432 149.338 167.905 152.233C161.789 154.94 155.168 157.443 153.626 158.097C152.273 158.652 151.691 159.635 151.104 162.4C150.545 165.025 148.673 168.34 143.599 175.407C140.6 175.741 135.643 173.152 134.488 171.186C137.185 163.64 141.227 152.576 142.422 150.267Z" fill="#37474F"/>
<path d="M156.039 132.641C156.374 134.541 157.407 136.248 158.935 137.426L158.033 138.044C158.033 138.044 155.76 136.285 156.039 132.641Z" fill="#37474F"/>
<path d="M165.829 97.75C161.319 97.75 158.838 99.0535 155.117 106.82C152.582 112.115 148.469 122.209 148.469 122.209L153.011 127.788C155.645 122.922 158.504 118.1 162.803 110.961L165.829 97.75Z" fill="#FFC4C3"/>
<path d="M157.87 115.677C155.123 111.365 157.658 108.41 158.601 106.602C160.486 102.994 165.984 97.8564 165.984 97.8564C165.984 97.8564 167.991 97.2565 172.385 97.3287C175.497 97.3828 175.312 97.0581 176.976 97.5407L182.019 100.03C180.417 102.024 180.733 105.47 180.85 107.779C181.135 113.268 182.889 114.671 182.889 114.671C182.889 114.671 182.163 120.421 181.816 121.792C181.577 122.722 182.086 125.401 182.578 127.137C183.348 130.007 183.931 132.924 184.323 135.869C184.35 136.117 184.292 136.367 184.159 136.577C184.025 136.788 183.824 136.947 183.588 137.028C173.688 140.397 159.093 134.385 154.785 127.976C155.078 126.312 157.18 123.57 157.55 121.792C157.983 119.7 158.096 118.856 157.87 115.677Z" fill="#F7921E"/>
<path opacity="0.25" d="M157.87 115.677C155.123 111.365 157.658 108.41 158.601 106.602C160.486 102.994 165.984 97.8564 165.984 97.8564C165.984 97.8564 167.991 97.2565 172.385 97.3287C175.497 97.3828 175.312 97.0581 176.976 97.5407L182.019 100.03C180.417 102.024 180.733 105.47 180.85 107.779C181.135 113.268 182.889 114.671 182.889 114.671C182.889 114.671 182.163 120.421 181.816 121.792C181.577 122.722 182.086 125.401 182.578 127.137C183.348 130.007 183.931 132.924 184.323 135.869C184.35 136.117 184.292 136.367 184.159 136.577C184.025 136.788 183.824 136.947 183.588 137.028C173.688 140.397 159.093 134.385 154.785 127.976C155.078 126.312 157.18 123.57 157.55 121.792C157.983 119.7 158.096 118.856 157.87 115.677Z" fill="white"/>
<path opacity="0.1" d="M165.828 118.578C165.828 118.578 167.939 121.212 172.49 120.454C177.041 119.697 177.929 116.26 177.929 116.26C177.929 116.26 178.2 120.675 172.765 121.564C167.411 122.439 165.828 118.578 165.828 118.578Z" fill="black"/>
<path d="M169.406 137.41L164.719 120.844C164.658 120.612 164.534 120.402 164.36 120.236C164.187 120.071 163.971 119.956 163.736 119.906L144.008 113.141L144.887 116.266L148.92 130.519C149.253 131.885 149.074 133.325 148.415 134.567C147.757 135.81 146.665 136.767 145.347 137.257L165.829 144.135C167.145 143.646 168.235 142.691 168.894 141.452C169.553 140.213 169.735 138.775 169.406 137.41Z" fill="#E0E0E0"/>
<path opacity="0.1" d="M148.704 129.718C149.008 129.721 149.312 129.684 149.606 129.609C150.662 129.339 150.215 128.256 150.576 127.499C150.745 127.193 150.836 126.851 150.842 126.502C150.842 126.136 150.621 125.74 150.626 125.428C150.63 125.117 150.887 124.914 150.928 124.648C150.945 124.531 150.939 124.411 150.91 124.296C150.881 124.181 150.83 124.073 150.759 123.978C150.688 123.883 150.599 123.803 150.497 123.742C150.396 123.681 150.283 123.641 150.166 123.624C149.372 123.417 147.974 123.845 147.18 124.278L148.704 129.718Z" fill="black"/>
<path opacity="0.1" d="M168.915 135.684L167.526 130.772C166.743 130.362 165.928 130.013 165.091 129.73C163.688 129.117 162.186 128.539 160.851 127.791C159.836 127.222 159.146 126.316 158.176 125.693C157.881 125.472 157.572 125.27 157.252 125.089C157.057 125.013 156.844 124.992 156.638 125.03C155.921 124.994 155.862 125.698 155.948 126.262C156.037 126.582 156.084 126.912 156.088 127.245C156.003 127.575 155.988 127.919 156.043 128.255C156.176 128.575 156.326 128.886 156.494 129.189C156.571 129.504 156.593 129.831 156.557 130.154C156.557 131.322 157.301 132.116 158.073 132.928C159.877 134.813 162.294 136.184 164.924 136.275C166.223 136.32 167.788 136.423 168.915 135.684Z" fill="black"/>
<path d="M144.005 113.109L143.418 112.91L143.278 112.861C142.237 112.536 140.572 113.113 139.449 114.367L144.862 116.234L159.971 121.403C160.58 120.728 161.359 120.228 162.226 119.955C162.541 119.858 162.867 119.808 163.196 119.806C163.276 119.799 163.356 119.799 163.435 119.806C163.435 119.806 163.435 119.806 163.467 119.806L163.697 119.842C163.709 119.839 163.721 119.839 163.733 119.842H163.796L144.005 113.109Z" fill="#F7921E"/>
<path d="M144.369 113.234C143.163 113.127 141.957 113.427 140.941 114.087L159.772 120.559C160.124 120.233 160.513 119.95 160.931 119.715C161.321 119.487 161.765 119.367 162.217 119.368L144.369 113.234Z" fill="#F5F5F5"/>
<path d="M181.424 99.7539C184.942 101.342 188.6 103.362 189.285 108.075C190.056 113.398 190.354 118.102 190.575 126.924C190.629 129.012 190.787 131.592 187.007 132.431C181.004 133.784 172.277 134.618 170.094 134.799C168.695 134.916 165.615 135.187 164.528 135.06C161.127 134.65 159.314 132.62 158.245 131.56C157.654 130.979 157.081 130.261 157.09 129.432C157.126 129.167 157.126 128.898 157.09 128.633C156.99 128.387 156.862 128.154 156.707 127.939C156.573 127.674 156.526 127.374 156.572 127.082C156.645 126.826 156.696 126.565 156.725 126.301C156.725 125.769 156.224 125.377 156.003 124.89C155.967 124.819 155.95 124.739 155.954 124.66C155.976 124.484 156.161 124.38 156.337 124.339C157.141 124.24 157.954 124.424 158.637 124.858C160.789 126.171 162.016 127.803 165.038 127.889C165.759 127.912 166.63 127.618 166.44 126.924L166.07 125.544C167.798 125.9 168.727 127.596 170.13 127.889C171.388 128.151 181.667 125.183 181.667 125.183L179.498 112.432C179.498 112.432 177.274 103.055 181.424 99.7539Z" fill="#FFC4C3"/>
<path d="M146.508 121.957C146.549 122.095 146.618 122.222 146.711 122.332C147.247 122.882 148.393 122.841 149.092 122.864C149.579 122.864 150.445 122.922 150.72 123.396C151.212 124.208 150.188 124.668 149.755 125.096C150.102 125.547 150.535 125.755 150.427 126.481C150.35 127.022 149.827 127.27 149.8 127.834C149.8 128.168 149.931 128.416 149.638 128.677C149.397 128.837 149.108 128.906 148.821 128.871C147.919 128.908 147.572 128.61 147.017 127.969C145.98 126.761 145.272 124.501 145.073 123.274C144.875 122.047 144.735 119.864 145.768 119.346C145.709 119.373 146.336 121.335 146.386 121.511C146.436 121.687 146.458 121.799 146.508 121.957Z" fill="#FFA8A7"/>
<path d="M159.725 86.4931C156.59 84.4815 156.658 80.0208 158.512 77.4725C161.042 73.9906 166.68 72.6465 169.941 72.8405C172.137 72.9713 174.753 73.9094 175.615 75.7857C178.105 77.6168 179.521 80.6523 179.223 84.5627C178.953 88.4009 176.003 90.638 176.183 92.3294L159.725 86.4931Z" fill="#37474F"/>
<path d="M175.623 75.7857C177.427 75.7406 180.3 78.5685 180.232 84.0846C180.178 88.3649 182.745 90.0337 182.149 93.3036C181.811 95.1709 179.646 95.888 179.087 95.8384C179.372 95.4348 179.566 94.9741 179.655 94.4882C179.745 94.0023 179.728 93.5027 179.605 93.024C179.605 93.024 179.181 96.1812 175.095 97.2501C171.009 98.3191 169.574 97.647 169.574 97.647C169.574 97.647 162.976 100.804 160.328 94.8281C162.674 94.7108 163.936 90.4667 163.125 84.7025C162.313 78.9384 162.222 78.3565 162.222 78.3565L175.623 75.7857Z" fill="#37474F"/>
<path d="M177.566 84.2901C175.892 84.1953 175.55 85.4492 174.796 86.0581C174.7 86.1295 174.588 86.1778 174.47 86.1993C174.351 86.2209 174.23 86.2151 174.114 86.1825C173.998 86.1499 173.891 86.0912 173.802 86.011C173.712 85.9308 173.642 85.8312 173.597 85.7198C173.204 84.6058 173.218 81.4847 171.72 80.1406C169.849 78.4673 167.873 78.3726 165.726 80.3751C162.808 78.12 159.001 79.6219 159.836 88.1373C160.476 94.6908 162.452 96.2243 163.444 96.6618C164.91 97.3112 166.11 97.1669 167.954 96.77L168.18 98.8447C168.18 98.8447 164.044 103.806 167.851 104.298C173.764 105.06 177.02 97.9833 177.02 97.9833C176.673 95.1914 176.276 92.3995 175.892 90.1219C176.465 90.9743 178.107 90.6901 178.91 89.3957C180.326 87.1225 179.618 84.4163 177.566 84.2901Z" fill="#FFC4C3"/>
<path d="M165.909 85.0703L166.045 90.7262L163.145 89.6212L165.909 85.0703Z" fill="#FFA8A7"/>
<path d="M166.867 92.0848C166.93 92.2108 167.016 92.3232 167.122 92.4154C167.228 92.5076 167.352 92.5778 167.485 92.6218C167.619 92.6659 167.76 92.683 167.9 92.6721C168.04 92.6612 168.177 92.6225 168.302 92.5583C168.551 92.4264 168.74 92.2028 168.829 91.9345C168.917 91.6662 168.898 91.374 168.775 91.1196C168.676 90.894 168.324 91.2729 167.814 91.539C167.305 91.8051 166.718 91.8051 166.867 92.0848Z" fill="#B16668"/>
<path d="M167.882 86.2203C167.844 86.3312 167.83 86.4486 167.838 86.5654C167.847 86.6821 167.879 86.796 167.933 86.9001C167.986 87.0043 168.06 87.0966 168.15 87.1717C168.24 87.2467 168.344 87.303 168.456 87.3371C168.568 87.3712 168.686 87.3825 168.802 87.3703C168.919 87.3581 169.032 87.3226 169.134 87.266C169.237 87.2094 169.327 87.1328 169.399 87.0407C169.471 86.9486 169.524 86.8429 169.555 86.73C169.593 86.6298 169.608 86.5227 169.599 86.4161C169.591 86.3096 169.56 86.2061 169.507 86.1129C169.455 86.0197 169.383 85.9391 169.296 85.8766C169.209 85.8142 169.11 85.7714 169.005 85.7512C168.901 85.7052 168.788 85.6809 168.674 85.6797C168.561 85.6786 168.448 85.7006 168.343 85.7445C168.238 85.7884 168.143 85.8532 168.063 85.935C167.984 86.0168 167.922 86.1139 167.882 86.2203Z" fill="#263238"/>
<path d="M161.476 86.9606C161.499 87.0782 161.546 87.1897 161.614 87.2883C161.682 87.3869 161.77 87.4705 161.872 87.5339C161.973 87.5973 162.087 87.6391 162.205 87.6568C162.324 87.6745 162.445 87.6676 162.56 87.6367C162.676 87.6057 162.784 87.5514 162.878 87.4769C162.972 87.4024 163.05 87.3095 163.106 87.2038C163.163 87.0981 163.197 86.982 163.207 86.8626C163.216 86.7432 163.201 86.623 163.163 86.5096C163.032 86.0225 162.585 85.9052 162.116 86.0315C161.647 86.1578 161.345 86.478 161.476 86.9606Z" fill="#263238"/>
<path d="M161 85.3902L162.836 84.5693C162.789 84.4472 162.717 84.336 162.625 84.2426C162.534 84.1492 162.424 84.0756 162.302 84.0262C162.181 83.9767 162.051 83.9526 161.92 83.9553C161.789 83.9579 161.661 83.9873 161.541 84.0416C161.296 84.1543 161.102 84.357 161.002 84.6079C160.901 84.8588 160.9 85.1388 161 85.3902Z" fill="#263238"/>
<path d="M170.158 84.8927L168.25 84.2523C168.285 84.1259 168.346 84.008 168.428 83.9059C168.511 83.8037 168.613 83.7195 168.729 83.6583C168.845 83.5971 168.973 83.5602 169.104 83.5499C169.235 83.5395 169.366 83.556 169.49 83.5983C169.746 83.6879 169.958 83.872 170.082 84.1127C170.206 84.3534 170.233 84.6325 170.158 84.8927Z" fill="#263238"/>
<path d="M167.973 96.772C169.777 96.2534 173.2 94.6748 173.584 93.0781C173.584 93.0781 173.805 94.3094 172.515 95.5813C171.441 96.6413 168.076 97.6921 168.076 97.6921L167.973 96.772Z" fill="#FFA8A7"/>
<path d="M176.477 169.101C176.389 169.101 176.301 169.088 176.215 169.065C175.978 168.996 175.778 168.836 175.659 168.619C175.54 168.403 175.511 168.148 175.579 167.91L179.364 154.957C179.433 154.718 179.595 154.516 179.813 154.396C180.031 154.276 180.288 154.247 180.527 154.316C180.767 154.386 180.968 154.547 181.089 154.766C181.209 154.984 181.237 155.241 181.168 155.48L177.384 168.434C177.326 168.628 177.206 168.799 177.042 168.919C176.879 169.04 176.68 169.104 176.477 169.101Z" fill="#37474F"/>
<path d="M194.141 158.904C194.053 158.903 193.965 158.891 193.879 158.868C193.642 158.799 193.442 158.638 193.323 158.422C193.204 158.205 193.175 157.951 193.243 157.713L197.028 144.76C197.062 144.641 197.119 144.531 197.196 144.434C197.274 144.338 197.369 144.258 197.477 144.198C197.585 144.139 197.704 144.101 197.826 144.088C197.949 144.074 198.073 144.085 198.191 144.119C198.31 144.154 198.42 144.211 198.517 144.288C198.613 144.365 198.693 144.46 198.753 144.568C198.812 144.676 198.85 144.795 198.863 144.918C198.877 145.04 198.866 145.164 198.832 145.283L195.048 158.236C194.99 158.431 194.87 158.602 194.706 158.722C194.543 158.843 194.344 158.906 194.141 158.904Z" fill="#37474F"/>
<path d="M209.307 138.059C209.291 137.892 209.23 137.732 209.132 137.595C209.034 137.459 208.901 137.351 208.747 137.283L203.872 134.482C203.453 134.267 202.989 134.154 202.519 134.154C202.048 134.154 201.584 134.267 201.165 134.482L166.012 154.779C165.858 154.848 165.726 154.956 165.629 155.094C165.531 155.231 165.472 155.391 165.457 155.559V157.011C165.472 157.179 165.531 157.34 165.629 157.477C165.726 157.614 165.858 157.722 166.012 157.792L170.919 160.588C171.338 160.802 171.802 160.914 172.272 160.914C172.743 160.914 173.206 160.802 173.625 160.588L208.779 140.292C208.933 140.224 209.066 140.117 209.165 139.98C209.263 139.844 209.323 139.683 209.338 139.516L209.307 138.059Z" fill="#37474F"/>
<path d="M208.756 137.283L203.881 134.482C203.462 134.267 202.998 134.154 202.528 134.154C202.057 134.154 201.593 134.267 201.175 134.482L172.281 151.17V160.908C172.752 160.921 173.219 160.811 173.634 160.588L208.788 140.292C208.942 140.224 209.076 140.117 209.174 139.98C209.272 139.844 209.332 139.683 209.347 139.516V138.059C209.328 137.888 209.263 137.726 209.159 137.589C209.055 137.453 208.916 137.347 208.756 137.283Z" fill="#263238"/>
<path d="M201.182 134.481L166.028 154.777C165.865 154.832 165.723 154.937 165.623 155.076C165.523 155.216 165.469 155.383 165.469 155.555C165.469 155.727 165.523 155.895 165.623 156.034C165.723 156.174 165.865 156.278 166.028 156.333L170.922 159.13C171.341 159.344 171.804 159.455 172.275 159.455C172.745 159.455 173.209 159.344 173.628 159.13L208.781 138.833C208.936 138.766 209.07 138.659 209.168 138.522C209.266 138.386 209.326 138.225 209.341 138.058C209.325 137.89 209.264 137.73 209.166 137.594C209.068 137.458 208.935 137.35 208.781 137.282L203.874 134.481C203.457 134.268 202.996 134.156 202.528 134.156C202.06 134.156 201.598 134.268 201.182 134.481Z" fill="#455A64"/>
</svg>
