<svg width="256" height="256" viewBox="0 0 256 256" fill="none" xmlns="http://www.w3.org/2000/svg">
<path d="M128.019 110.5C156.113 110.499 184.176 116.346 205.547 128.016C226.925 139.689 237.493 154.904 237.5 169.999C237.507 185.094 226.952 200.309 205.547 211.982C184.149 223.652 156.081 229.5 127.985 229.5C99.8899 229.5 71.8215 223.652 50.4238 211.982C29.0457 200.315 18.4934 185.099 18.5 170.001C18.5068 154.903 29.0726 139.686 50.4668 128.016C71.8536 116.349 99.9244 110.501 128.019 110.5Z" stroke="#D5D5D5"/>
<path d="M55.1557 175.712L109.837 207.285C110.506 207.624 111.244 207.801 111.993 207.801C112.742 207.801 113.481 207.624 114.149 207.285L200.846 157.24C202.038 156.553 202.038 155.44 200.846 154.753L146.16 123.179C145.491 122.841 144.753 122.664 144.004 122.664C143.255 122.664 142.516 122.841 141.848 123.179L55.1557 173.259C53.9637 173.922 53.9637 175.035 55.1557 175.712Z" fill="#37474F"/>
<path d="M109.84 207.296L55.1582 175.712C54.0938 175.099 53.981 174.143 54.8198 173.456C54.2868 173.879 53.8492 174.409 53.5356 175.013C53.2219 175.616 53.0394 176.279 53 176.958V178.984C53.0408 179.733 53.2575 180.461 53.6325 181.111C54.0074 181.76 54.5302 182.312 55.1582 182.722L109.84 214.29C110.504 214.643 111.247 214.82 111.998 214.805V207.811C111.247 207.826 110.504 207.648 109.84 207.296Z" fill="#455A64"/>
<path d="M200.847 164.244C201.474 163.835 201.996 163.284 202.37 162.635C202.744 161.987 202.96 161.259 203 160.511V158.486C202.961 157.806 202.778 157.143 202.465 156.54C202.151 155.936 201.713 155.406 201.18 154.983C202.019 155.67 201.911 156.627 200.847 157.24L114.149 207.295C113.487 207.647 112.746 207.824 111.996 207.81V214.815C112.746 214.829 113.487 214.651 114.149 214.3L200.847 164.244Z" fill="#263238"/>
<path d="M84.5063 190.294C85.434 190.765 86.4601 191.011 87.5008 191.011C88.5416 191.011 89.5677 190.765 90.4954 190.294C92.1484 189.313 92.1484 187.792 90.4954 186.835C89.5669 186.366 88.5411 186.122 87.5008 186.122C86.4606 186.122 85.4348 186.366 84.5063 186.835C82.8729 187.792 82.8729 189.342 84.5063 190.294Z" fill="#263238"/>
<path d="M118.348 200.594L66.0061 170.355C65.2948 169.943 65.2948 169.271 66.0061 168.859L134.187 129.482C134.587 129.279 135.03 129.173 135.479 129.173C135.928 129.173 136.371 129.279 136.772 129.482L189.114 159.721C189.83 160.133 189.83 160.8 189.114 161.192L120.933 200.575C120.534 200.781 120.092 200.89 119.643 200.893C119.194 200.897 118.75 200.794 118.348 200.594Z" fill="white"/>
<path d="M169.547 141.185C169.782 141.304 170.041 141.366 170.305 141.366C170.568 141.366 170.827 141.304 171.063 141.185C171.144 141.145 171.213 141.082 171.261 141.004C171.309 140.927 171.334 140.837 171.334 140.746C171.334 140.655 171.309 140.566 171.261 140.488C171.213 140.411 171.144 140.348 171.063 140.307C170.827 140.189 170.568 140.127 170.305 140.127C170.041 140.127 169.782 140.189 169.547 140.307C169.125 140.548 169.125 140.94 169.547 141.185Z" fill="#263238"/>
<path d="M171.969 148.063C172.439 148.3 172.958 148.423 173.485 148.423C174.011 148.423 174.53 148.3 175 148.063C175.839 147.572 175.839 146.792 175 146.312C174.531 146.072 174.011 145.947 173.485 145.947C172.958 145.947 172.438 146.072 171.969 146.312C171.13 146.773 171.13 147.577 171.969 148.063Z" fill="#263238"/>
<path d="M169.86 145.012C170.419 144.693 170.39 144.154 169.791 143.811L159.814 138.047C159.494 137.877 159.137 137.785 158.774 137.778C158.411 137.771 158.052 137.85 157.725 138.008C157.166 138.332 157.195 138.871 157.793 139.215L167.77 144.978C168.091 145.147 168.448 145.239 168.811 145.245C169.174 145.251 169.533 145.171 169.86 145.012Z" fill="#263238"/>
<path d="M133.307 137.616C132.59 138.028 132.59 138.695 133.307 139.087L173.185 162.116C173.586 162.319 174.03 162.425 174.48 162.425C174.93 162.425 175.373 162.319 175.775 162.116L184.604 157.03L142.136 132.505L133.307 137.616Z" fill="#EBEBEB"/>
<path d="M133.605 141.613L130.421 139.779C130.288 139.711 130.141 139.676 129.992 139.676C129.843 139.676 129.696 139.711 129.563 139.779L127.557 140.936C127.316 141.074 127.316 141.294 127.557 141.427L127.831 141.589L126.816 142.128C126.698 142.192 126.708 142.231 126.845 142.221L128.631 142.05L130.74 143.266C130.874 143.332 131.022 143.366 131.172 143.366C131.321 143.366 131.469 143.332 131.603 143.266L133.605 142.109C133.655 142.089 133.698 142.056 133.729 142.011C133.759 141.967 133.776 141.915 133.776 141.861C133.776 141.807 133.759 141.755 133.729 141.71C133.698 141.666 133.655 141.632 133.605 141.613Z" fill="#EBEBEB"/>
<path d="M134.535 146.4L134.299 145.909C133.995 145.267 133.809 144.394 134.692 143.888C135.026 143.719 135.396 143.631 135.771 143.631C136.146 143.631 136.515 143.719 136.85 143.888C137.311 144.153 137.414 144.551 137.159 144.869C137.732 144.713 138.342 144.776 138.871 145.046C139.002 145.089 139.116 145.172 139.197 145.283C139.278 145.395 139.322 145.529 139.322 145.667C139.322 145.804 139.278 145.939 139.197 146.05C139.116 146.162 139.002 146.244 138.871 146.287C138.007 146.778 136.497 146.689 135.383 146.518L134.535 146.4Z" fill="#EBEBEB"/>
<path d="M90.8301 163.627L130.713 186.656C131.115 186.859 131.558 186.965 132.008 186.965C132.458 186.965 132.902 186.859 133.303 186.656L164.362 168.719C165.073 168.307 165.073 167.639 164.362 167.247L124.479 144.198C124.077 143.995 123.634 143.89 123.184 143.89C122.734 143.89 122.29 143.995 121.889 144.198L90.8301 162.136C90.1139 162.548 90.1139 163.215 90.8301 163.627Z" fill="#EBEBEB"/>
<path d="M91.1399 166.132L87.9418 164.292C87.8074 164.227 87.6598 164.192 87.5101 164.192C87.3605 164.192 87.2129 164.227 87.0785 164.292L85.0723 165.45C85.0236 165.47 84.9819 165.504 84.9525 165.548C84.9232 165.591 84.9075 165.643 84.9075 165.695C84.9075 165.748 84.9232 165.799 84.9525 165.843C84.9819 165.887 85.0236 165.921 85.0723 165.941L85.3519 166.102L84.3365 166.637C84.2139 166.701 84.2286 166.745 84.3365 166.73L86.122 166.563L88.2312 167.78C88.3655 167.846 88.5132 167.88 88.6628 167.88C88.8125 167.88 88.9601 167.846 89.0945 167.78L91.1006 166.617C91.1516 166.603 91.197 166.573 91.2306 166.532C91.2643 166.491 91.2846 166.441 91.2889 166.388C91.2931 166.335 91.2812 166.283 91.2545 166.237C91.2279 166.191 91.1879 166.154 91.1399 166.132Z" fill="#EBEBEB"/>
<path d="M92.0474 170.915L91.8169 170.425C91.5078 169.782 91.3263 168.909 92.2093 168.399C92.5429 168.23 92.9118 168.142 93.2859 168.142C93.6601 168.142 94.029 168.23 94.3626 168.399C94.8531 168.669 94.9316 169.066 94.6716 169.38C95.2464 169.229 95.8564 169.292 96.3884 169.557C96.5188 169.601 96.6322 169.684 96.7125 169.796C96.7928 169.908 96.836 170.042 96.836 170.18C96.836 170.317 96.7928 170.451 96.7125 170.563C96.6322 170.675 96.5188 170.759 96.3884 170.803C95.5251 171.293 94.0143 171.205 92.896 171.033L92.0474 170.915Z" fill="#EBEBEB"/>
<path d="M79.4246 168.717C79.8261 168.514 80.2696 168.408 80.7195 168.408C81.1694 168.408 81.613 168.514 82.0145 168.717L121.893 191.741C122.609 192.153 122.609 192.825 121.893 193.237L113.755 197.936L71.2969 173.411L79.4246 168.717Z" fill="#EBEBEB"/>
<path d="M123.744 163.414L101.043 169.511L130.724 186.649C131.125 186.852 131.569 186.958 132.019 186.958C132.468 186.958 132.912 186.852 133.313 186.649L133.956 186.276L146.763 167.485L119.565 172.822L123.744 163.414Z" fill="#E0E0E0"/>
<path d="M134.926 150.232L124.483 144.198C124.081 143.995 123.638 143.89 123.188 143.89C122.738 143.89 122.294 143.995 121.893 144.198L110.219 150.943C110.753 151.958 111.857 152.905 113.53 153.724C118.435 156.069 126.42 156.069 131.34 153.724C133.4 152.743 134.592 151.507 134.926 150.232Z" fill="#E0E0E0"/>
<path opacity="0.2" d="M185.283 148.108L132.936 117.873C132.535 117.67 132.092 117.564 131.643 117.564C131.194 117.564 130.751 117.67 130.351 117.873L62.1701 157.251C61.4589 157.663 61.4589 158.33 62.1701 158.722L73.236 165.099L114.532 188.952C114.932 189.155 115.375 189.26 115.824 189.26C116.273 189.26 116.716 189.155 117.117 188.952L178.489 153.493L185.278 149.569C185.999 149.192 185.999 148.52 185.283 148.108Z" fill="white"/>
<path d="M185.41 147.89L142.127 122.874L133.063 117.655C132.624 117.431 132.138 117.313 131.645 117.313C131.152 117.313 130.666 117.431 130.228 117.655L62.047 157.033C61.8527 157.108 61.6855 157.239 61.5677 157.411C61.4498 157.583 61.3867 157.786 61.3867 157.994C61.3867 158.202 61.4498 158.406 61.5677 158.577C61.6855 158.749 61.8527 158.881 62.047 158.956L73.1128 165.332L114.423 189.2C114.862 189.425 115.348 189.543 115.841 189.543C116.334 189.543 116.82 189.425 117.259 189.2L178.626 153.742L185.419 149.817C185.613 149.742 185.78 149.609 185.897 149.437C186.015 149.265 186.077 149.062 186.077 148.854C186.077 148.645 186.015 148.442 185.897 148.27C185.78 148.098 185.613 147.966 185.419 147.89H185.41ZM185.16 149.386L178.366 153.31L116.999 188.768C116.635 188.95 116.235 189.044 115.829 189.044C115.423 189.044 115.022 188.95 114.659 188.768L73.363 164.92L62.302 158.544C62.1839 158.513 62.0791 158.445 62.0043 158.348C61.9295 158.252 61.8889 158.133 61.8889 158.011C61.8889 157.889 61.9295 157.771 62.0043 157.674C62.0791 157.578 62.1839 157.509 62.302 157.479L130.483 118.102C130.846 117.921 131.247 117.828 131.652 117.828C132.058 117.828 132.459 117.921 132.822 118.102L141.892 123.326L185.174 148.341C185.292 148.371 185.397 148.44 185.472 148.536C185.547 148.633 185.587 148.751 185.587 148.873C185.587 148.995 185.547 149.114 185.472 149.21C185.397 149.306 185.292 149.375 185.174 149.405L185.16 149.386Z" fill="white"/>
<path d="M112.186 168.354L108.511 166.224C108.412 166.179 108.33 166.105 108.276 166.01L105.965 160.45L108.969 158.714L108.873 158.98L112.186 168.354Z" fill="#F7921E"/>
<g opacity="0.4">
<path d="M112.186 168.354L108.511 166.224C108.412 166.179 108.33 166.105 108.276 166.01L105.965 160.45L108.969 158.714L108.873 158.98L112.186 168.354Z" fill="black"/>
</g>
<path d="M108.516 158.989L112.01 168.172C112.059 168.259 112.132 168.331 112.221 168.377C112.31 168.424 112.411 168.444 112.511 168.435C112.611 168.426 112.707 168.389 112.786 168.327C112.865 168.265 112.925 168.181 112.958 168.086L116.643 154.292L108.516 158.989Z" fill="#F7921E"/>
<path opacity="0.2" d="M108.516 158.989L112.01 168.172C112.059 168.259 112.132 168.331 112.221 168.377C112.31 168.424 112.411 168.444 112.511 168.435C112.611 168.426 112.707 168.389 112.786 168.327C112.865 168.265 112.925 168.181 112.958 168.086L116.643 154.292L108.516 158.989Z" fill="black"/>
<path d="M164.736 30.9948C164.697 30.142 164.455 29.3108 164.031 28.5699C163.607 27.829 163.012 27.1997 162.297 26.734L160.305 25.5836C159.549 25.1999 158.713 25 157.866 25C157.018 25 156.182 25.1999 155.426 25.5836L93.7078 61.2251C92.9909 61.6902 92.3949 62.3192 91.9689 63.06C91.5429 63.8008 91.2992 64.6323 91.2578 65.4859V158.211C91.2992 159.065 91.5429 159.896 91.9689 160.637C92.3949 161.378 92.9909 162.007 93.7078 162.472L95.6891 163.623C96.4469 164.006 97.2844 164.206 98.1338 164.206C98.9832 164.206 99.8206 164.006 100.578 163.623L162.148 128.034C162.911 127.547 163.546 126.884 163.998 126.099C164.451 125.315 164.708 124.433 164.747 123.529L164.736 30.9948Z" fill="#F7921E"/>
<path opacity="0.6" d="M107.476 151.01L155.41 123.368C155.984 122.993 156.461 122.488 156.804 121.894C157.146 121.299 157.344 120.633 157.381 119.949V43.2543C157.381 41.9973 156.497 41.4861 155.41 42.1145L107.476 69.8097C106.907 70.184 106.433 70.6862 106.093 71.2762C105.752 71.8662 105.555 72.5277 105.516 73.2077V149.902C105.516 151.127 106.389 151.638 107.476 151.01Z" fill="white"/>
<path opacity="0.1" d="M91.2578 158.213C91.2992 159.066 91.5429 159.898 91.9689 160.639C92.3949 161.379 92.9909 162.008 93.7078 162.474L95.6891 163.624C96.3788 163.97 97.1337 164.167 97.9045 164.201C98.6753 164.236 99.4448 164.108 100.163 163.826C99.0126 164.263 98.1391 163.603 98.1391 162.218V69.5456C98.1695 68.6942 98.419 67.865 98.8634 67.1382L91.9821 63.165C91.5458 63.8948 91.3003 64.7227 91.2685 65.5724L91.2578 158.213Z" fill="black"/>
<path opacity="0.6" d="M164.731 30.8565C164.731 29.6741 163.602 28.8113 162.132 29.6847L100.573 65.2304C99.8474 65.6752 99.2521 66.3035 98.8472 67.0519L91.9766 63.0894C92.3843 62.343 92.979 61.7154 93.7022 61.2679L155.421 25.6157C156.178 25.2377 157.013 25.041 157.86 25.041C158.707 25.041 159.542 25.2377 160.299 25.6157L162.302 26.7661C162.987 27.2224 163.561 27.8269 163.982 28.5349C164.402 29.2429 164.658 30.0363 164.731 30.8565Z" fill="white"/>
<path d="M131.413 64.5337C141.681 58.5839 150.001 63.4131 150.001 75.2681C150.001 87.123 141.681 101.546 131.413 107.466C121.144 113.386 112.824 108.587 112.824 96.7319C112.824 84.877 121.144 70.4835 131.413 64.5337Z" fill="white"/>
<path d="M131.413 64.5337C141.681 58.5839 150.001 63.4131 150.001 75.2681C150.001 87.123 141.681 101.546 131.413 107.466C121.144 113.386 112.824 108.587 112.824 96.7319C112.824 84.877 121.144 70.4835 131.413 64.5337Z" fill="#F5F5F5"/>
<mask id="mask0_1531_7962" style="mask-type:luminance" maskUnits="userSpaceOnUse" x="112" y="61" width="38" height="50">
<path d="M131.413 64.5337C141.681 58.5839 150.001 63.4131 150.001 75.2681C150.001 87.123 141.681 101.546 131.413 107.466C121.144 113.386 112.824 108.587 112.824 96.7319C112.824 84.877 121.144 70.4835 131.413 64.5337Z" fill="white"/>
</mask>
<g mask="url(#mask0_1531_7962)">
<path d="M124.628 80.2773C123.776 80.4246 123.015 80.8976 122.506 81.5962C121.594 82.7713 121.782 84.4472 122.506 88.2203L125.327 87.7889L124.628 80.2773Z" fill="#263238"/>
<path d="M141.072 74.725C141.705 74.5557 142.303 74.2735 142.837 73.892C143.705 73.1632 143.928 74.0903 143.452 75.0721C143.136 75.7719 142.685 76.4022 142.124 76.9264C141.563 77.4507 140.904 77.8585 140.184 78.1263C140.155 78.0073 139.371 76.143 139.371 76.143L141.072 74.725Z" fill="#263238"/>
<path d="M126.257 99.7391C126.257 99.7391 121.001 103.13 119.861 104.325C118.721 105.52 118.25 109.244 117.828 113.8C117.828 113.8 123.813 116.324 133.199 111.678C142.585 107.033 143.432 103.359 143.432 103.359C143.432 103.359 142.218 97.8401 141.766 96.308C141.196 94.3694 140.096 92.9712 133.694 95.8767L126.257 99.7391Z" fill="#263238"/>
<path d="M125.959 87.6237C125.537 87.9857 124.942 87.3411 124.427 86.9395C123.911 86.5379 122.225 86.2503 121.382 88.2485C120.54 90.2466 122.473 92.1605 123.614 92.6513C124.004 92.8154 124.433 92.8624 124.85 92.7867C125.266 92.711 125.651 92.5158 125.959 92.2249L126.256 99.7365C126.256 99.7365 127.744 102.31 131.81 101.774C135.875 101.239 135.028 97.1533 133.699 95.8741V94.3272C133.699 94.3272 135.796 94.1883 136.783 93.6628C137.313 93.3802 138.573 91.5159 139.386 89.5921C141.062 86.0484 141.445 82.0293 140.467 78.233C139.014 72.4419 132.375 74.0334 128.418 77.5835C124.462 81.1335 125.959 87.6237 125.959 87.6237Z" fill="#FFA8A7"/>
<path d="M142.221 68.9141C141.864 67.744 141.646 67.9523 138.775 69.9702C136.582 71.514 134.135 72.6602 131.546 73.3567C129.523 73.9715 126.756 74.4574 125.333 76.3315C124.721 77.1376 124.409 78.1316 124.451 79.1428C124.33 79.031 124.184 78.9509 124.024 78.9098C123.325 78.7214 122.467 79.2321 122.105 80.0551L124.585 80.7146C124.391 82.1425 123.836 86.5503 124.441 86.937C124.961 87.2692 125.76 88.3848 125.973 88.3253C126.682 88.122 126.965 84.9786 127.351 83.0746C127.773 80.9079 127.936 80.0997 128.715 80.0105C131.243 79.6119 133.732 78.9931 136.152 78.1611C138.83 77.1149 139.598 76.2274 139.598 76.2274L141.026 75.3201C141.663 74.3959 142.099 73.3479 142.305 72.2442C142.511 71.1406 142.482 70.006 142.221 68.9141Z" fill="#263238"/>
<path d="M133.69 94.3289C133.69 94.3289 129.936 94.5818 128.627 94.2347C127.873 94.0551 127.221 93.5846 126.812 92.9258C126.998 93.6151 127.352 94.2474 127.844 94.7653C128.801 95.7569 133.69 95.3305 133.69 95.3305V94.3289Z" fill="#F28F8F"/>
<path d="M132.733 89.9697L134.45 90.1533C134.379 90.4079 134.227 90.6322 134.016 90.7918C133.805 90.9513 133.548 91.0372 133.284 91.0363C132.808 90.9867 132.564 90.5105 132.733 89.9697Z" fill="#F28F8F"/>
<path d="M135.207 83.2754L135.455 87.7328L137.82 86.2999L135.207 83.2754Z" fill="#F28F8F"/>
<path d="M132.79 84.8646C132.785 85.0877 132.71 85.3037 132.576 85.4818C132.441 85.6599 132.254 85.7911 132.041 85.8568C131.952 85.8873 131.856 85.8953 131.763 85.8801C131.67 85.8648 131.582 85.8267 131.508 85.7692C131.433 85.7117 131.374 85.6366 131.335 85.5506C131.297 85.4646 131.28 85.3704 131.287 85.2764C131.292 85.0528 131.368 84.8367 131.504 84.6587C131.639 84.4807 131.827 84.3497 132.041 84.2842C132.13 84.2533 132.225 84.2452 132.318 84.2604C132.411 84.2756 132.498 84.3138 132.572 84.3714C132.647 84.4291 132.706 84.5044 132.744 84.5905C132.782 84.6766 132.797 84.7708 132.79 84.8646Z" fill="#263238"/>
<path d="M131.984 82.2304L130.376 83.55C130.272 83.3108 130.253 83.0433 130.322 82.7916C130.39 82.54 130.542 82.3193 130.753 82.1659C130.833 82.0783 130.93 82.0095 131.039 81.9645C131.148 81.9194 131.266 81.8992 131.384 81.9054C131.502 81.9116 131.617 81.9439 131.721 82.0002C131.824 82.0564 131.914 82.135 131.984 82.2304Z" fill="#263238"/>
<path d="M139.496 80.8425L138.008 80.1083C138.12 79.8786 138.311 79.6974 138.546 79.5979C138.782 79.4985 139.045 79.4877 139.288 79.5675C139.389 79.6343 139.476 79.7213 139.542 79.8232C139.608 79.9251 139.652 80.0395 139.671 80.1593C139.691 80.2791 139.686 80.4017 139.655 80.5193C139.625 80.6369 139.571 80.7469 139.496 80.8425Z" fill="#263238"/>
<path d="M139.063 82.9642C139.057 83.1869 138.982 83.4022 138.847 83.58C138.713 83.7579 138.527 83.8894 138.314 83.9564C138.225 83.9869 138.13 83.9949 138.037 83.9797C137.944 83.9644 137.856 83.9263 137.781 83.8688C137.706 83.8113 137.647 83.7362 137.609 83.6502C137.57 83.5642 137.553 83.47 137.56 83.376C137.566 83.1524 137.642 82.9363 137.777 82.7583C137.912 82.5803 138.1 82.4493 138.314 82.3838C138.403 82.3529 138.498 82.3448 138.591 82.36C138.684 82.3752 138.772 82.4134 138.846 82.471C138.92 82.5287 138.979 82.604 139.017 82.6901C139.055 82.7762 139.071 82.8704 139.063 82.9642Z" fill="#263238"/>
</g>
<path d="M149.481 105.888L116.107 125.233C115.989 125.306 115.856 125.353 115.718 125.369C115.58 125.386 115.44 125.372 115.308 125.33C115.175 125.287 115.054 125.216 114.952 125.122C114.849 125.028 114.769 124.912 114.715 124.784V124.74C114.6 124.462 114.59 124.151 114.687 123.865C114.783 123.58 114.979 123.339 115.24 123.187L148.62 103.841C148.737 103.769 148.868 103.723 149.005 103.707C149.141 103.692 149.279 103.706 149.409 103.751C149.539 103.795 149.658 103.867 149.757 103.963C149.856 104.058 149.932 104.174 149.98 104.303V104.347C150.094 104.621 150.106 104.927 150.015 105.209C149.923 105.492 149.734 105.732 149.481 105.888Z" fill="white"/>
<path d="M149.481 112.563L116.107 131.909C115.989 131.982 115.856 132.028 115.718 132.045C115.58 132.061 115.44 132.048 115.308 132.005C115.175 131.962 115.054 131.891 114.952 131.797C114.849 131.703 114.769 131.588 114.715 131.459V131.416C114.6 131.137 114.59 130.826 114.687 130.541C114.783 130.255 114.979 130.014 115.24 129.862L148.62 110.516C148.737 110.444 148.868 110.398 149.005 110.383C149.141 110.367 149.279 110.382 149.409 110.426C149.539 110.47 149.658 110.542 149.757 110.638C149.856 110.733 149.932 110.85 149.98 110.978V111.022C150.094 111.296 150.106 111.602 150.015 111.885C149.923 112.167 149.734 112.408 149.481 112.563Z" fill="white"/>
<path d="M149.481 119.238L116.107 138.583C115.989 138.656 115.856 138.703 115.718 138.719C115.58 138.736 115.44 138.723 115.308 138.68C115.175 138.637 115.054 138.566 114.952 138.472C114.849 138.378 114.769 138.263 114.715 138.134V138.09C114.6 137.812 114.59 137.501 114.687 137.215C114.783 136.93 114.979 136.689 115.24 136.537L148.62 117.191C148.737 117.119 148.868 117.073 149.005 117.057C149.141 117.042 149.279 117.056 149.409 117.101C149.539 117.145 149.658 117.217 149.757 117.313C149.856 117.408 149.932 117.524 149.98 117.653V117.697C150.094 117.971 150.106 118.277 150.015 118.559C149.923 118.842 149.734 119.082 149.481 119.238Z" fill="white"/>
</svg>
