<svg width="256" height="256" viewBox="0 0 256 256" fill="none" xmlns="http://www.w3.org/2000/svg">
<path opacity="0.8" d="M234.476 88.4517L233.941 88.1495L233.616 87.9403L221.643 80.966C221.643 80.6871 221.643 80.4081 221.643 80.1291C221.643 65.4599 216.691 55.1613 208.926 50.8373L185.934 37.5629C179.61 33.9131 171.381 34.2618 162.361 39.4692C158.179 41.936 154.354 44.963 150.992 48.466C149.515 46.9425 147.842 45.6214 146.017 44.5372L123.839 31.8208C115.702 26.4274 104.822 26.5436 92.8257 33.4481C67.6713 47.9778 47.2596 86.9174 47.2596 120.51C47.2485 124.223 47.5362 127.932 48.1197 131.599L44.958 133.412C28.9634 142.711 15.991 167.447 15.991 188.788C15.991 200.574 19.9432 208.99 26.1969 212.593L49.4449 226.03C54.4897 228.913 61.0689 228.704 68.1595 224.566L110.308 200.249L222.596 135.435C232.221 129.879 240.009 115 240.009 102.191C240.032 95.4957 237.87 90.7067 234.476 88.4517Z" fill="#F7921E"/>
<path opacity="0.2" d="M234.476 88.4517L233.941 88.1495L233.616 87.9403L221.643 80.966C221.643 80.6871 221.643 80.4081 221.643 80.1291C221.643 65.4599 216.691 55.1613 208.926 50.8373L185.934 37.5629C179.61 33.9131 171.381 34.2618 162.361 39.4692C158.179 41.936 154.354 44.963 150.992 48.466C149.515 46.9425 147.842 45.6214 146.017 44.5372L123.839 31.8208C115.702 26.4274 104.822 26.5436 92.8257 33.4481C67.6713 47.9778 47.2596 86.9174 47.2596 120.51C47.2485 124.223 47.5362 127.932 48.1197 131.599L44.958 133.412C28.9634 142.711 15.991 167.447 15.991 188.788C15.991 200.574 19.9432 208.99 26.1969 212.593L49.4449 226.03C54.4897 228.913 61.0689 228.704 68.1595 224.566L110.308 200.249L222.596 135.435C232.221 129.879 240.009 115 240.009 102.191C240.032 95.4957 237.87 90.7067 234.476 88.4517Z" fill="white"/>
<path opacity="0.35" d="M208.953 50.8814C202.676 47.3711 194.516 47.7663 185.705 52.9272C181.295 55.5376 177.279 58.7627 173.779 62.5052L152.693 50.2538L150.624 49.0681L151.135 48.5334C154.509 45.0369 158.332 42.0037 162.504 39.5134C171.524 34.3292 179.754 33.9805 186.077 37.6304L208.953 50.8814Z" fill="white"/>
<path opacity="0.8" d="M151.039 48.5381C151.588 49.0833 152.108 49.6576 152.596 50.2584L150.527 49.0728L151.039 48.5381Z" fill="white"/>
<path opacity="0.35" d="M145.506 44.2835C137.578 39.8664 127.302 40.3779 116.074 46.8639C104.845 53.35 94.2205 65.09 86.2232 78.9455L62.9752 65.5782C70.9493 51.6297 81.3876 40.0059 92.8024 33.4734C104.775 26.4991 115.678 26.4991 123.815 31.846L145.506 44.2835Z" fill="white"/>
<path opacity="0.35" d="M71.3187 145.036L68.1802 146.826C57.3466 153.102 47.8615 166.516 42.9096 181.162L19.6616 167.772C23.3315 156.439 29.8189 146.224 38.5157 138.085L48.0707 131.645L71.3187 145.036Z" fill="white"/>
<path d="M222.618 89.0568L220.967 90.0099C221.417 86.7511 221.65 83.466 221.665 80.1762C221.665 53.6276 205.507 41.4226 185.607 52.9302C176.308 58.2538 167.938 67.7621 161.569 79.0604C160.662 47.095 140.645 32.5653 116.049 46.8626C90.8946 61.3923 70.4828 100.332 70.4828 133.924C70.4762 137.645 70.756 141.36 71.3198 145.037L68.1813 146.827C52.1867 156.126 39.191 180.884 39.191 202.226C39.191 223.567 52.1867 233.842 68.1813 224.59L110.307 200.25L222.595 135.436C232.219 129.879 240.007 115.001 240.007 102.192C240.031 89.4055 232.242 83.5006 222.618 89.0568Z" fill="#F7921E"/>
<path opacity="0.7" d="M222.618 89.0568L220.967 90.0099C221.417 86.7511 221.65 83.466 221.665 80.1762C221.665 53.6276 205.507 41.4226 185.607 52.9302C176.308 58.2538 167.938 67.7621 161.569 79.0604C160.662 47.095 140.645 32.5653 116.049 46.8626C90.8946 61.3923 70.4828 100.332 70.4828 133.924C70.4762 137.645 70.756 141.36 71.3198 145.037L68.1813 146.827C52.1867 156.126 39.191 180.884 39.191 202.226C39.191 223.567 52.1867 233.842 68.1813 224.59L110.307 200.25L222.595 135.436C232.219 129.879 240.007 115.001 240.007 102.192C240.031 89.4055 232.242 83.5006 222.618 89.0568Z" fill="white"/>
<path opacity="0.7" d="M56.8395 222.055C49.7023 222.055 45.2155 214.267 45.2155 202.225C45.2155 183.115 57.1184 160.123 71.23 151.987L74.3685 150.173C75.4084 149.573 76.2425 148.672 76.7611 147.59C77.2797 146.507 77.4587 145.292 77.2745 144.106C76.7525 140.737 76.496 137.332 76.5073 133.923C76.5073 102.307 95.5939 65.5757 119.098 51.9991C123.64 49.1511 128.851 47.5476 134.209 47.3496C146.902 47.3496 155.132 59.5545 155.69 79.2219C155.718 80.5245 156.175 81.7815 156.99 82.7984C157.804 83.8153 158.931 84.5356 160.196 84.8479C161.461 85.1601 162.794 85.047 163.988 84.5259C165.182 84.0048 166.171 83.1049 166.803 81.9651C172.917 71.1551 180.751 62.6697 188.656 58.0667C192.061 55.9121 195.974 54.6933 200.001 54.5331C209.602 54.5331 215.786 64.5993 215.786 80.1053C215.777 83.1304 215.568 86.1514 215.158 89.1486C215.007 90.2495 215.169 91.3707 215.624 92.3843C216.08 93.3978 216.811 94.263 217.734 94.8811C218.658 95.4991 219.736 95.8452 220.847 95.8798C221.958 95.9144 223.056 95.6361 224.016 95.0767L225.667 94.1236C226.849 93.3767 228.2 92.9371 229.595 92.845C232.757 92.845 234.245 97.4945 234.245 102.144C234.245 112.861 227.643 125.717 219.831 130.25L65.2088 219.451C62.7087 221.029 59.8396 221.926 56.8859 222.055H56.8395Z" fill="white"/>
<path d="M135.964 81.4038L103.764 140.278L123.212 129.033L123.352 172.561L149.05 157.689L148.939 114.189L168.387 102.972L135.964 81.4038Z" fill="#F7921E"/>
<path d="M123.183 178.644L123.238 195.274L148.965 180.43L148.909 163.8L123.183 178.644Z" fill="#F7921E"/>
<path d="M123.183 201.971L123.238 210.286L148.965 195.441L148.909 187.099L123.183 201.971Z" fill="#F7921E"/>
<path d="M123.183 215.866L123.238 220.889L148.965 206.017L148.909 200.994L123.183 215.866Z" fill="#F7921E"/>
</svg>
