<svg width="256" height="256" viewBox="0 0 256 256" fill="none" xmlns="http://www.w3.org/2000/svg">
<path d="M128.001 108.714C157.376 108.714 186.723 115.191 209.089 128.117C231.458 141.045 242.531 157.897 242.532 174.647C242.532 191.398 231.461 208.251 209.089 221.179C186.721 234.104 157.373 240.576 127.999 240.573C99.0827 240.57 70.1933 234.294 47.9634 221.779L46.9097 221.179C24.5384 208.263 13.4663 191.409 13.4663 174.656C13.4665 157.903 24.5393 141.045 46.9106 128.117C69.2792 115.192 98.6269 108.714 128.001 108.714Z" stroke="#D5D5D5"/>
<path d="M110.485 102.875V181.802C110.454 182.392 110.284 182.966 109.989 183.478C109.693 183.989 109.281 184.423 108.785 184.744L51.6663 217.726C51.4963 217.852 51.2952 217.93 51.0844 217.951C50.8736 217.972 50.661 217.935 50.4695 217.845L47.281 216.017C47.1094 215.894 46.9733 215.728 46.8867 215.536C46.8 215.343 46.7659 215.131 46.7876 214.921V119.549C46.8197 118.959 46.9903 118.386 47.2856 117.875C47.5808 117.364 47.9924 116.929 48.487 116.607L91.3719 91.8481L110.485 102.875Z" fill="#F0F0F0"/>
<path d="M53.1555 121.267L47.2262 117.987C46.955 118.464 46.8044 119 46.7876 119.549V214.949C46.7659 215.159 46.8 215.371 46.8867 215.563C46.9733 215.756 47.1094 215.922 47.281 216.045L50.4695 217.872C50.661 217.963 50.8736 217.999 51.0844 217.978C51.2952 217.957 51.4963 217.88 51.6663 217.753L53.1555 216.895V121.267Z" fill="#E0E0E0"/>
<path d="M110.485 102.875V181.848C110.451 182.438 110.278 183.012 109.981 183.523C109.685 184.034 109.272 184.468 108.777 184.79L51.6668 217.762C50.7531 218.301 49.9766 217.863 49.9766 216.785V121.394C50.0083 120.806 50.1778 120.233 50.4714 119.722C50.765 119.211 51.1744 118.776 51.6668 118.453L85.0045 99.1936L94.5609 93.7119L110.485 102.875Z" fill="#FAFAFA"/>
<path d="M61.4863 190.353V197.308C61.4863 197.893 61.8969 198.129 62.4008 197.837L100.798 175.683C101.066 175.51 101.289 175.277 101.449 175.001C101.609 174.725 101.702 174.415 101.719 174.097V167.141C101.719 166.557 101.308 166.32 100.798 166.613L62.4319 188.76C62.1599 188.932 61.9324 189.166 61.768 189.443C61.6037 189.72 61.5072 190.031 61.4863 190.353Z" fill="#E0E0E0"/>
<path d="M94.5603 94.5801L109.699 103.323V181.894C109.666 182.345 109.532 182.782 109.306 183.173C109.079 183.564 108.767 183.898 108.392 184.151L51.2733 217.132C51.166 217.202 51.044 217.245 50.917 217.26C50.7617 217.26 50.7617 216.849 50.7617 216.831V121.395C50.7917 120.943 50.9241 120.505 51.1489 120.112C51.3736 119.719 51.6849 119.383 52.059 119.129L85.3876 99.8791L94.5238 94.5801M94.5238 93.6665L84.9674 99.1482L51.6296 118.407C51.1373 118.731 50.7279 119.166 50.4343 119.677C50.1407 120.188 49.9712 120.761 49.9395 121.349V216.785C49.9395 217.552 50.3232 218 50.8531 218C51.1193 217.988 51.3777 217.906 51.6022 217.763L108.712 184.79C109.207 184.468 109.62 184.034 109.917 183.523C110.213 183.012 110.386 182.438 110.421 181.848V102.876L94.5603 93.6756L94.5238 93.6665Z" fill="#E0E0E0"/>
<path d="M102.135 103.497C102.747 103.497 103.176 103.99 103.176 104.84V149.123C103.138 149.775 102.949 150.41 102.622 150.977C102.295 151.543 101.84 152.025 101.294 152.384L59.1674 176.695C58.9167 176.859 58.626 176.951 58.3268 176.96C57.7147 176.96 57.2853 176.467 57.2853 175.617V131.335C57.3209 130.681 57.5098 130.046 57.8368 129.479C58.1638 128.912 58.6196 128.431 59.1674 128.073L87.6538 111.628L101.294 103.762C101.545 103.598 101.835 103.507 102.135 103.497ZM102.135 102.72C101.699 102.728 101.274 102.851 100.901 103.077L87.261 110.952L58.7745 127.397C58.1099 127.825 57.5569 128.406 57.1613 129.091C56.7657 129.776 56.5389 130.545 56.4996 131.335V175.617C56.4691 175.879 56.4932 176.143 56.5704 176.395C56.6475 176.646 56.776 176.879 56.9478 177.078C57.1196 177.278 57.3308 177.439 57.5682 177.552C57.8056 177.666 58.0639 177.729 58.3268 177.737C58.762 177.728 59.1872 177.605 59.5602 177.381L101.723 153.06C102.387 152.631 102.939 152.05 103.333 151.365C103.727 150.681 103.952 149.912 103.989 149.123V104.84C104.02 104.579 103.996 104.314 103.918 104.062C103.841 103.811 103.713 103.578 103.541 103.379C103.369 103.18 103.158 103.018 102.921 102.905C102.683 102.791 102.425 102.729 102.162 102.72H102.135Z" fill="#F7921E"/>
<path d="M74.616 155.308C73.1138 155.31 71.638 154.913 70.3403 154.157C66.0645 151.69 63.6069 145.633 63.6069 137.538H64.7033C64.7033 145.121 67.0147 150.977 70.8884 153.215C73.5196 154.732 76.6716 154.513 80.0246 152.585C88.7678 147.542 95.8849 132.44 95.8849 118.918H96.9721C96.9721 132.787 89.6175 148.309 80.5727 153.535C78.7775 154.639 76.7229 155.251 74.616 155.308Z" fill="#F7921E"/>
<path d="M98.0592 120.463L94.752 122.381V117.283L98.0592 115.374V120.463Z" fill="#FAFAFA"/>
<path d="M97.374 116.571V120.07L95.4463 121.175V117.685L97.374 116.571ZM98.0592 115.374L94.752 117.283V122.418L98.0592 120.499V115.411V115.374Z" fill="#F7921E"/>
<path d="M81.6877 154.75L78.8829 156.377C78.7459 156.459 78.6362 156.377 78.6362 156.194V151.745C78.6387 151.653 78.6622 151.564 78.705 151.483C78.7478 151.402 78.8087 151.332 78.8829 151.279L81.6968 149.653C81.8339 149.57 81.9435 149.653 81.9435 149.835V154.285C81.94 154.377 81.9151 154.467 81.8707 154.548C81.8262 154.629 81.7636 154.698 81.6877 154.75Z" fill="#F7921E"/>
<path d="M65.6989 139.146L62.3916 141.065V135.967L65.6989 134.057V139.146Z" fill="#FAFAFA"/>
<path d="M65.0144 135.254V138.753L63.0867 139.859V136.359L65.0144 135.254ZM65.7087 134.057L62.438 135.967V141.065L65.7544 139.146V134.057H65.7087Z" fill="#F7921E"/>
<path d="M95.8486 144.025C95.8562 144.459 95.7637 144.889 95.5783 145.282C95.3929 145.675 95.1197 146.02 94.7797 146.29C94.1858 146.638 93.7016 146.172 93.7016 145.267C93.6938 144.832 93.7871 144.401 93.9741 144.007C94.1612 143.614 94.4369 143.27 94.7797 143.001C95.3279 142.654 95.8486 143.12 95.8486 144.025Z" fill="#F7921E"/>
<path d="M66.8593 160.79C66.8668 161.224 66.7743 161.654 66.589 162.047C66.4036 162.44 66.1304 162.785 65.7904 163.055C65.1965 163.403 64.7123 162.937 64.7123 162.032C64.7051 161.596 64.7987 161.163 64.9856 160.769C65.1726 160.374 65.448 160.028 65.7904 159.757C66.3751 159.392 66.8593 159.876 66.8593 160.79Z" fill="#F7921E"/>
<path d="M94.5085 144.167L65.5098 160.89L66.0529 161.831L95.0516 145.109L94.5085 144.167Z" fill="#F7921E"/>
<path d="M94.5605 110.102V93.6572L110.485 102.857L96.2599 111.08C95.328 111.628 94.5605 111.189 94.5605 110.102Z" fill="#E0E0E0"/>
<path d="M157.7 49.0273V128C157.668 128.589 157.497 129.163 157.202 129.674C156.907 130.185 156.495 130.62 156.001 130.942L98.8817 163.923C98.7108 164.048 98.5098 164.124 98.2994 164.145C98.089 164.166 97.8768 164.131 97.6848 164.042L94.4963 162.215C94.3247 162.092 94.1886 161.926 94.102 161.733C94.0153 161.541 93.9812 161.328 94.003 161.118V65.7099C94.0336 65.1201 94.2036 64.546 94.499 64.0347C94.7943 63.5233 95.2067 63.0892 95.7023 62.768L138.587 38L157.7 49.0273Z" fill="#F0F0F0"/>
<path d="M100.371 67.4277L94.4145 64.1387C94.1472 64.6209 93.997 65.1592 93.976 65.7101V161.1C93.9554 161.312 93.99 161.525 94.0765 161.718C94.163 161.912 94.2984 162.08 94.4694 162.206L97.6579 164.033C97.8503 164.12 98.0621 164.154 98.2722 164.134C98.4822 164.113 98.6831 164.037 98.8547 163.914L100.344 163.056L100.371 67.4277Z" fill="#E0E0E0"/>
<path d="M157.7 49.0272V128C157.67 128.59 157.5 129.164 157.204 129.675C156.909 130.186 156.497 130.621 156.001 130.942L98.8821 163.923C97.9685 164.462 97.1919 164.024 97.1919 162.936V67.6009C97.223 67.0123 97.3922 66.4393 97.6858 65.9282C97.9794 65.4172 98.3892 64.9824 98.8821 64.6591L132.22 45.4001L141.776 39.9185L157.7 49.0272Z" fill="#FAFAFA"/>
<path d="M141.776 40.7409L156.915 49.4842V128C156.882 128.452 156.748 128.891 156.522 129.283C156.295 129.675 155.983 130.011 155.608 130.266L98.4892 163.238C98.3848 163.313 98.2613 163.358 98.1328 163.366C97.9775 163.366 97.9775 162.955 97.9775 162.937V67.6011C98.0075 67.1497 98.1399 66.7111 98.3647 66.3185C98.5895 65.9259 98.9007 65.5897 99.2749 65.3354L132.613 46.0764L141.749 40.7866M141.749 39.873L132.192 45.3546L98.882 64.6136C98.3763 64.9373 97.9556 65.3774 97.6551 65.8973C97.3547 66.4171 97.1833 67.0014 97.1553 67.6011V162.982C97.1553 163.75 97.539 164.197 98.0689 164.197C98.3344 164.189 98.593 164.11 98.8181 163.969L155.937 130.988C156.433 130.666 156.845 130.232 157.14 129.721C157.436 129.21 157.606 128.635 157.636 128.046V49.0274L141.776 39.8364L141.749 39.873Z" fill="#E0E0E0"/>
<path d="M149.35 49.6573C149.962 49.6573 150.391 50.1506 150.391 51.0003V95.274C150.355 95.9271 150.166 96.5625 149.839 97.129C149.512 97.6955 149.057 98.1773 148.509 98.5356L106.383 122.856C106.13 123.013 105.84 123.102 105.542 123.112C104.93 123.112 104.501 122.618 104.501 121.769V77.4951C104.535 76.8417 104.724 76.2057 105.051 75.6389C105.378 75.0722 105.834 74.5906 106.383 74.2335L134.869 57.7884L148.509 49.9131C148.762 49.7556 149.052 49.6674 149.35 49.6573ZM149.35 48.8716C148.913 48.8786 148.487 49.005 148.117 49.237L134.476 57.1032L105.99 73.5483C105.324 73.9751 104.769 74.5554 104.374 75.2405C103.978 75.9256 103.752 76.6956 103.715 77.4859V121.76C103.684 122.021 103.709 122.287 103.786 122.539C103.863 122.791 103.991 123.024 104.163 123.224C104.334 123.424 104.546 123.586 104.783 123.7C105.02 123.815 105.279 123.879 105.542 123.888C105.979 123.881 106.405 123.755 106.776 123.523L148.902 99.2117C149.567 98.7843 150.12 98.2037 150.514 97.5186C150.909 96.8334 151.133 96.0637 151.168 95.274V51.0003C151.198 50.7386 151.174 50.4733 151.097 50.2213C151.02 49.9694 150.892 49.736 150.72 49.5361C150.549 49.3361 150.337 49.1739 150.1 49.0595C149.863 48.9452 149.604 48.8812 149.341 48.8716H149.35Z" fill="#F7921E"/>
<path d="M114.358 94.931L118.926 97.0049C119.08 97.0885 119.222 97.1931 119.347 97.3155C119.426 97.4078 119.487 97.5152 119.525 97.6313C119.562 97.7474 119.576 97.8699 119.566 97.9916V100.614C119.563 100.796 119.522 100.977 119.447 101.144C119.387 101.291 119.281 101.416 119.146 101.5H119.054H118.926L111.91 98.2656C111.747 98.2043 111.601 98.1075 111.48 97.9824C111.361 97.7785 111.309 97.5415 111.334 97.3063V96.0547C111.326 95.7646 111.375 95.4757 111.48 95.205C111.605 94.9334 111.748 94.6709 111.91 94.4193L118.926 83.0997C118.96 83.0411 119.003 82.9886 119.054 82.9444L119.146 82.8713C119.187 82.8347 119.241 82.8145 119.296 82.8145C119.352 82.8145 119.405 82.8347 119.447 82.8713C119.535 82.9823 119.578 83.1228 119.566 83.2641V85.9227C119.561 86.2398 119.487 86.5518 119.347 86.8363C119.2 87.147 119.054 87.4211 118.926 87.6403L114.358 94.931Z" fill="#F7921E"/>
<path d="M129.059 73.9325C129.137 73.6536 129.238 73.3816 129.361 73.1194C129.49 72.8594 129.694 72.6434 129.945 72.4982L131.425 71.6394C131.468 71.6021 131.524 71.5815 131.581 71.5815C131.638 71.5815 131.693 71.6021 131.736 71.6394C131.784 71.694 131.82 71.7579 131.842 71.8271C131.864 71.8962 131.871 71.9692 131.864 72.0413C131.875 72.1415 131.875 72.2427 131.864 72.3428L125.057 101.222C124.993 101.491 124.898 101.751 124.774 101.999C124.651 102.275 124.443 102.505 124.18 102.657L122.755 103.479C122.712 103.516 122.657 103.537 122.6 103.537C122.543 103.537 122.488 103.516 122.444 103.479C122.396 103.425 122.359 103.361 122.337 103.292C122.315 103.222 122.308 103.149 122.317 103.077C122.305 102.977 122.305 102.875 122.317 102.775L129.059 73.9325Z" fill="#F7921E"/>
<path d="M135.171 78.2355C135.016 78.1541 134.874 78.0493 134.75 77.9248C134.671 77.8325 134.61 77.7251 134.572 77.609C134.535 77.4929 134.521 77.3704 134.531 77.2487V74.6267C134.529 74.4432 134.57 74.2618 134.65 74.0968C134.71 73.9489 134.816 73.8241 134.951 73.7405H135.043C135.085 73.731 135.129 73.731 135.171 73.7405L142.178 76.9655C142.345 77.0278 142.495 77.1278 142.617 77.2579C142.737 77.4582 142.788 77.6925 142.763 77.9248V79.2222C142.772 79.5094 142.722 79.7954 142.617 80.0627C142.494 80.3401 142.348 80.6061 142.178 80.8575L135.171 92.1772L135.043 92.3325C135.015 92.3578 134.985 92.3793 134.951 92.3965C134.911 92.435 134.857 92.4565 134.801 92.4565C134.745 92.4565 134.691 92.435 134.65 92.3965C134.605 92.3424 134.571 92.2798 134.55 92.2122C134.53 92.1447 134.523 92.0737 134.531 92.0036V89.3359C134.538 89.0191 134.612 88.7075 134.75 88.4222C134.875 88.1494 135.015 87.884 135.171 87.6274L139.739 80.3185L135.171 78.2355Z" fill="#F7921E"/>
<path d="M135.171 78.2355C135.016 78.1541 134.874 78.0493 134.75 77.9248C134.671 77.8325 134.61 77.7251 134.572 77.609C134.535 77.4929 134.521 77.3704 134.531 77.2487V74.6267C134.529 74.4432 134.57 74.2618 134.65 74.0968C134.71 73.9489 134.816 73.8241 134.951 73.7405H135.043C135.085 73.731 135.129 73.731 135.171 73.7405L142.178 76.9655C142.345 77.0278 142.495 77.1278 142.617 77.2579C142.737 77.4582 142.788 77.6925 142.763 77.9248V79.2222C142.772 79.5094 142.722 79.7954 142.617 80.0627C142.494 80.3401 142.348 80.6061 142.178 80.8575L135.171 92.1772L135.043 92.3325C135.015 92.3578 134.985 92.3793 134.951 92.3965C134.911 92.435 134.857 92.4565 134.801 92.4565C134.745 92.4565 134.691 92.435 134.65 92.3965C134.605 92.3424 134.571 92.2798 134.55 92.2122C134.53 92.1447 134.523 92.0737 134.531 92.0036V89.3359C134.538 89.0191 134.612 88.7075 134.75 88.4222C134.875 88.1494 135.015 87.884 135.171 87.6274L139.739 80.3185L135.171 78.2355Z" fill="#F7921E"/>
<path d="M141.776 56.2634V39.8184L157.7 49.0093L143.475 57.2318C142.534 57.78 141.776 57.3415 141.776 56.2634Z" fill="#E0E0E0"/>
<path d="M108.319 136.481V143.436C108.319 144.021 108.73 144.258 109.234 143.965L147.631 121.812C147.899 121.639 148.122 121.405 148.282 121.129C148.442 120.853 148.535 120.544 148.552 120.225V113.27C148.552 112.685 148.141 112.449 147.631 112.741L109.265 134.889C108.993 135.061 108.765 135.295 108.601 135.571C108.437 135.848 108.34 136.16 108.319 136.481Z" fill="#E0E0E0"/>
<path d="M209.219 49.4931V128.466C209.187 129.055 209.016 129.629 208.721 130.14C208.425 130.651 208.014 131.085 207.519 131.408L150.4 164.389C150.229 164.514 150.028 164.59 149.818 164.611C149.608 164.632 149.395 164.596 149.203 164.508L146.015 162.681C145.843 162.558 145.707 162.391 145.621 162.199C145.534 162.006 145.5 161.794 145.522 161.584V66.1757C145.552 65.5859 145.722 65.0119 146.018 64.5005C146.313 63.9891 146.725 63.5551 147.221 63.2339L190.106 38.4658L209.219 49.4931Z" fill="#F0F0F0"/>
<path d="M151.889 67.8935L145.96 64.6045C145.693 65.0867 145.543 65.625 145.522 66.1759V161.566C145.5 161.776 145.534 161.988 145.621 162.181C145.707 162.373 145.843 162.54 146.015 162.663L149.203 164.49C149.396 164.576 149.608 164.611 149.818 164.59C150.028 164.569 150.229 164.494 150.4 164.371L151.889 163.512V67.8935Z" fill="#E0E0E0"/>
<path d="M209.219 49.4933V128.466C209.188 129.056 209.018 129.63 208.723 130.141C208.428 130.653 208.015 131.087 207.52 131.408L150.401 164.389C149.487 164.928 148.71 164.49 148.71 163.403V68.0122C148.742 67.425 148.912 66.8535 149.205 66.344C149.499 65.8346 149.908 65.4014 150.401 65.0795L183.738 45.8205L193.295 40.3389L209.219 49.4933Z" fill="#FAFAFA"/>
<path d="M193.295 41.2066L208.433 49.9499V128.466C208.401 128.918 208.267 129.356 208.04 129.749C207.814 130.141 207.502 130.477 207.127 130.732L150.008 163.704C149.903 163.779 149.78 163.823 149.651 163.832C149.496 163.832 149.496 163.421 149.496 163.402V68.012C149.53 67.5653 149.664 67.1321 149.889 66.7446C150.114 66.357 150.423 66.0252 150.793 65.7736L184.131 46.4964L193.267 41.2066M193.267 40.293L183.711 45.7746L150.401 65.0793C149.908 65.4011 149.499 65.8343 149.205 66.3438C148.912 66.8533 148.742 67.4248 148.71 68.012V163.402C148.71 164.17 149.094 164.617 149.624 164.617C149.89 164.609 150.148 164.53 150.373 164.389L207.492 131.408C207.988 131.086 208.4 130.652 208.696 130.141C208.991 129.63 209.161 129.055 209.192 128.466V49.493L193.295 40.3021L193.267 40.293Z" fill="#E0E0E0"/>
<path d="M200.868 50.1236C201.481 50.1236 201.91 50.617 201.91 51.4666V95.7403C201.874 96.3934 201.684 97.0288 201.358 97.5953C201.031 98.1619 200.575 98.6437 200.028 99.0019L157.901 123.331C157.648 123.489 157.358 123.577 157.061 123.587C156.449 123.587 156.019 123.094 156.019 122.244V77.9614C156.054 77.308 156.243 76.672 156.57 76.1053C156.897 75.5385 157.353 75.0569 157.901 74.6998L186.388 58.2548L200.028 50.3794C200.281 50.2219 200.571 50.1337 200.868 50.1236ZM200.868 49.3379C200.432 49.3449 200.005 49.4713 199.635 49.7033L185.995 57.5513L157.508 73.9963C156.842 74.4232 156.288 75.0034 155.892 75.6886C155.496 76.3737 155.271 77.1436 155.233 77.934V122.235C155.203 122.497 155.227 122.762 155.304 123.014C155.381 123.266 155.51 123.499 155.681 123.699C155.853 123.899 156.064 124.061 156.301 124.176C156.539 124.29 156.797 124.354 157.061 124.364C157.497 124.357 157.924 124.23 158.294 123.998L200.393 99.678C201.058 99.2506 201.611 98.67 202.005 97.9849C202.4 97.2997 202.624 96.53 202.659 95.7403V51.4666C202.69 51.2049 202.665 50.9396 202.588 50.6877C202.511 50.4357 202.383 50.2024 202.211 50.0024C202.04 49.8025 201.829 49.6402 201.591 49.5258C201.354 49.4115 201.095 49.3475 200.832 49.3379H200.868Z" fill="#F7921E"/>
<path d="M161.547 113.282C161.46 113.282 161.376 113.254 161.308 113.202C161.239 113.15 161.19 113.076 161.167 112.993C161.144 112.91 161.149 112.822 161.181 112.742C161.214 112.662 161.271 112.595 161.346 112.551L196.145 92.4516C196.235 92.4005 196.342 92.3863 196.442 92.4118C196.543 92.4373 196.629 92.5007 196.684 92.5886C196.71 92.6335 196.727 92.6832 196.734 92.7347C196.741 92.7862 196.737 92.8385 196.723 92.8886C196.71 92.9387 196.686 92.9857 196.655 93.0267C196.623 93.0677 196.583 93.102 196.538 93.1276L161.738 113.227C161.681 113.263 161.614 113.282 161.547 113.282Z" fill="#F7921E"/>
<path d="M161.546 109.207C161.477 109.207 161.409 109.189 161.35 109.153C161.29 109.118 161.241 109.067 161.208 109.006C161.157 108.916 161.143 108.809 161.169 108.709C161.194 108.609 161.258 108.522 161.345 108.467L196.145 88.3676C196.235 88.3165 196.342 88.3023 196.442 88.3278C196.542 88.3534 196.629 88.4167 196.684 88.5046C196.71 88.5495 196.727 88.5992 196.734 88.6507C196.74 88.7022 196.737 88.7545 196.723 88.8046C196.71 88.8548 196.686 88.9017 196.655 88.9427C196.623 88.9837 196.583 89.0181 196.538 89.0436L161.738 109.143C161.682 109.183 161.615 109.205 161.546 109.207Z" fill="#F7921E"/>
<path d="M161.546 105.16C161.478 105.161 161.411 105.144 161.351 105.11C161.292 105.076 161.242 105.027 161.208 104.968C161.182 104.924 161.164 104.875 161.157 104.824C161.149 104.772 161.152 104.72 161.165 104.67C161.178 104.62 161.2 104.573 161.231 104.532C161.262 104.49 161.301 104.455 161.345 104.429L196.145 84.3297C196.19 84.3039 196.239 84.2872 196.291 84.2806C196.342 84.274 196.395 84.2775 196.445 84.2911C196.495 84.3047 196.542 84.328 196.583 84.3597C196.624 84.3914 196.658 84.4308 196.684 84.4758C196.71 84.5208 196.726 84.5705 196.733 84.6219C196.74 84.6733 196.736 84.7256 196.722 84.7756C196.709 84.8257 196.685 84.8726 196.654 84.9136C196.622 84.9547 196.583 84.9891 196.538 85.0149L161.738 105.114C161.68 105.147 161.613 105.163 161.546 105.16Z" fill="#F7921E"/>
<path d="M161.547 101.122C161.46 101.122 161.376 101.094 161.308 101.042C161.239 100.989 161.19 100.916 161.167 100.833C161.144 100.75 161.149 100.662 161.181 100.582C161.214 100.502 161.271 100.435 161.346 100.391L196.145 80.2914C196.19 80.2653 196.24 80.2484 196.291 80.2416C196.343 80.2349 196.395 80.2384 196.445 80.252C196.495 80.2656 196.542 80.289 196.583 80.3208C196.624 80.3527 196.658 80.3923 196.684 80.4375C196.71 80.4818 196.727 80.5307 196.733 80.5815C196.74 80.6323 196.736 80.6839 196.723 80.7333C196.709 80.7827 196.686 80.8289 196.654 80.8691C196.622 80.9093 196.583 80.9427 196.538 80.9674L161.738 101.067C161.681 101.103 161.614 101.122 161.547 101.122Z" fill="#F7921E"/>
<path d="M161.547 97.0832C161.46 97.0834 161.376 97.0552 161.308 97.003C161.239 96.9509 161.19 96.8776 161.167 96.7945C161.144 96.7114 161.149 96.6231 161.181 96.5432C161.214 96.4633 161.271 96.3962 161.346 96.3523L196.145 76.2528C196.235 76.2018 196.342 76.1875 196.442 76.2131C196.543 76.2386 196.629 76.3019 196.684 76.3899C196.71 76.4348 196.727 76.4844 196.734 76.5359C196.741 76.5874 196.737 76.6398 196.723 76.6899C196.71 76.74 196.686 76.7869 196.655 76.828C196.623 76.869 196.583 76.9033 196.538 76.9289L161.738 97.0284C161.681 97.0646 161.614 97.0836 161.547 97.0832Z" fill="#F7921E"/>
<path d="M161.546 93.0455C161.477 93.0456 161.409 93.0269 161.35 92.9916C161.29 92.9562 161.241 92.9053 161.208 92.8445C161.157 92.7543 161.143 92.6479 161.169 92.5474C161.194 92.447 161.258 92.3603 161.345 92.3054L196.145 72.2059C196.235 72.1549 196.342 72.1407 196.442 72.1662C196.542 72.1917 196.629 72.2551 196.684 72.343C196.71 72.3879 196.727 72.4376 196.734 72.4891C196.74 72.5406 196.737 72.5929 196.723 72.643C196.71 72.6931 196.686 72.7401 196.655 72.7811C196.623 72.8221 196.583 72.8564 196.538 72.882L161.738 92.9815C161.682 93.0209 161.615 93.0431 161.546 93.0455Z" fill="#F7921E"/>
<path d="M161.546 88.9979C161.478 88.9989 161.411 88.9816 161.351 88.9479C161.292 88.9142 161.242 88.8652 161.208 88.806C161.182 88.7616 161.164 88.7125 161.157 88.6613C161.149 88.6102 161.152 88.5581 161.165 88.5081C161.178 88.458 161.2 88.4109 161.231 88.3696C161.262 88.3282 161.301 88.2933 161.345 88.267L196.145 68.1675C196.236 68.1173 196.343 68.1044 196.444 68.1317C196.544 68.159 196.63 68.2242 196.684 68.3137C196.71 68.3586 196.727 68.4082 196.734 68.4597C196.74 68.5112 196.737 68.5636 196.723 68.6137C196.71 68.6638 196.686 68.7107 196.654 68.7518C196.622 68.7928 196.583 68.8271 196.538 68.8527L161.738 88.9522C161.68 88.9852 161.613 89.001 161.546 88.9979Z" fill="#F7921E"/>
<path d="M161.547 84.9596C161.46 84.9598 161.376 84.9316 161.308 84.8795C161.239 84.8273 161.19 84.754 161.167 84.6709C161.144 84.5878 161.149 84.4995 161.181 84.4196C161.214 84.3397 161.271 84.2726 161.346 84.2287L196.145 64.1292C196.19 64.1032 196.24 64.0863 196.291 64.0795C196.343 64.0728 196.395 64.0763 196.445 64.0899C196.495 64.1035 196.542 64.1269 196.583 64.1587C196.624 64.1906 196.658 64.2302 196.684 64.2754C196.71 64.3197 196.727 64.3686 196.733 64.4194C196.74 64.4702 196.736 64.5218 196.723 64.5712C196.709 64.6206 196.686 64.6668 196.654 64.707C196.622 64.7472 196.583 64.7806 196.538 64.8053L161.738 84.9048C161.681 84.941 161.614 84.96 161.547 84.9596Z" fill="#F7921E"/>
<path d="M161.547 80.9216C161.46 80.9218 161.376 80.8936 161.308 80.8414C161.239 80.7893 161.19 80.716 161.167 80.6329C161.144 80.5498 161.149 80.4615 161.181 80.3816C161.214 80.3017 161.271 80.2346 161.346 80.1907L196.145 60.0912C196.235 60.0402 196.342 60.0259 196.442 60.0515C196.543 60.077 196.629 60.1403 196.684 60.2282C196.71 60.2732 196.727 60.3228 196.734 60.3743C196.741 60.4258 196.737 60.4781 196.723 60.5283C196.71 60.5784 196.686 60.6253 196.655 60.6664C196.623 60.7074 196.583 60.7417 196.538 60.7673L161.738 80.8668C161.681 80.9029 161.614 80.922 161.547 80.9216Z" fill="#F7921E"/>
<path d="M193.294 56.7292V40.2842L209.219 49.4751L194.994 57.6976C194.053 58.2458 193.294 57.8073 193.294 56.7292Z" fill="#E0E0E0"/>
<path d="M159.481 137.395V144.35C159.481 144.935 159.892 145.172 160.396 144.879L198.793 122.726C199.061 122.553 199.284 122.319 199.444 122.043C199.604 121.767 199.697 121.458 199.714 121.139V114.184C199.714 113.599 199.303 113.363 198.793 113.655L160.427 135.803C160.155 135.975 159.928 136.209 159.763 136.485C159.599 136.762 159.502 137.074 159.481 137.395Z" fill="#E0E0E0"/>
<path d="M174.646 138.92C173.138 138.073 167.284 134.685 165.776 133.801C161.732 131.525 157.163 130.345 152.523 130.376C146.121 130.506 139.87 132.337 134.41 135.681C129.686 138.482 125.376 141.928 121.603 145.919C117.303 150.491 113.586 155.577 110.537 161.063C104.952 171.021 101.546 182.144 101.546 192.428C101.546 205.17 106.721 215.455 115.712 220.63L124.582 225.749C128.644 228.112 133.266 229.339 137.966 229.304C143.857 229.304 150 227.499 156.143 223.934C160.831 221.142 165.117 217.726 168.885 213.78C173.242 209.283 176.965 204.213 179.952 198.711C185.536 188.817 188.877 177.695 188.877 167.215C188.896 154.575 183.786 144.291 174.646 138.92ZM123.353 197.557C123.512 190.742 125.068 184.033 127.923 177.844L150.726 199.642C147.819 202.746 144.488 205.425 140.832 207.599C135.816 210.485 131.218 211.453 127.253 210.95C124.852 207.767 123.372 203.29 123.372 197.52L123.353 197.557ZM167.098 162.105C167.098 168.443 165.339 175.275 162.444 181.818L139.799 160.048C142.689 156.925 146.023 154.243 149.693 152.09C154.663 149.205 159.243 148.237 163.207 148.712C165.609 151.876 167.089 156.344 167.089 162.068L167.098 162.105Z" fill="#F7921E"/>
<path opacity="0.3" d="M110.425 197.52C110.425 187.235 113.85 176.113 119.416 166.154C122.463 160.672 126.177 155.589 130.473 151.02C134.248 147.031 138.558 143.586 143.28 140.782C148.741 137.44 154.992 135.61 161.393 135.477C166.035 135.452 170.603 136.639 174.646 138.92C173.138 138.073 167.284 134.685 165.776 133.801C161.732 131.525 157.163 130.345 152.523 130.376C146.121 130.506 139.87 132.337 134.41 135.681C129.686 138.482 125.376 141.928 121.603 145.919C117.303 150.491 113.586 155.577 110.537 161.063C104.952 171.021 101.546 182.144 101.546 192.428C101.546 205.17 106.721 215.455 115.712 220.63L124.582 225.749C115.609 220.546 110.425 210.261 110.425 197.52Z" fill="white"/>
<path opacity="0.2" d="M127.942 177.807L150.726 199.642C147.819 202.746 144.488 205.425 140.832 207.6C135.816 210.485 131.218 211.453 127.253 210.95C128.272 212.389 129.569 213.607 131.069 214.533C135.853 217.326 142.387 216.926 149.684 212.719C153.342 210.548 156.676 207.872 159.587 204.77L129.04 175.405C128.619 176.179 128.252 176.982 127.942 177.807Z" fill="black"/>
<path opacity="0.2" d="M168.262 150.173C165.47 148.581 161.989 148.209 158.182 148.897C159.838 148.586 161.531 148.511 163.208 148.674C165.609 151.876 167.089 156.343 167.089 162.067C167.089 168.406 165.33 175.237 162.435 181.78L139.791 160.01L170.254 189.31C173.809 182.06 175.95 174.297 175.95 167.186C175.959 158.847 172.981 152.955 168.262 150.173Z" fill="black"/>
<path d="M174.646 138.92C170.602 136.654 166.038 135.48 161.402 135.514C155.001 135.647 148.751 137.478 143.29 140.819C138.568 143.623 134.258 147.069 130.483 151.057C126.187 155.626 122.473 160.709 119.426 166.191C113.841 176.15 110.435 187.272 110.435 197.557C110.435 210.299 115.609 220.583 124.6 225.758C128.663 228.121 133.285 229.349 137.984 229.314C143.876 229.314 150.019 227.508 156.162 223.943C160.85 221.151 165.136 217.735 168.904 213.789C173.26 209.292 176.983 204.223 179.97 198.72C185.555 188.827 188.896 177.704 188.896 167.224C188.896 154.575 183.786 144.291 174.646 138.92ZM149.693 212.765C142.387 216.972 135.853 217.363 131.078 214.58C126.304 211.797 123.381 205.98 123.381 197.566C123.381 190.455 125.513 182.674 129.077 175.452L159.606 204.817C156.692 207.919 153.355 210.595 149.693 212.765ZM139.799 160.057C142.689 156.934 146.023 154.253 149.693 152.1C156.944 147.893 163.468 147.502 168.262 150.238C173.055 152.975 175.959 158.913 175.959 167.252C175.959 174.363 173.818 182.144 170.263 189.376L139.799 160.057Z" fill="#F7921E"/>
<path d="M124.6 225.721C127.048 227.086 129.696 228.057 132.446 228.597C135.185 229.12 137.987 229.227 140.758 228.913C146.307 228.218 151.636 226.311 156.366 223.329C165.841 217.363 173.65 209.096 179.067 199.297C184.652 189.682 188.309 178.821 188.523 167.652C188.694 162.071 187.639 156.521 185.433 151.392C183.191 146.233 179.428 141.882 174.646 138.92C179.548 141.769 183.449 146.063 185.815 151.215C188.134 156.386 189.29 162.004 189.203 167.67C189.146 173.321 188.265 178.934 186.587 184.331C184.935 189.727 182.671 194.917 179.84 199.799C177.062 204.718 173.692 209.279 169.806 213.379C165.954 217.513 161.539 221.085 156.692 223.989C151.841 226.927 146.405 228.763 140.767 229.369C135.127 229.899 129.465 228.621 124.6 225.721Z" fill="#F7921E"/>
<path opacity="0.3" d="M124.6 225.721C127.048 227.086 129.696 228.057 132.446 228.597C135.185 229.12 137.987 229.227 140.758 228.913C146.307 228.218 151.636 226.311 156.366 223.329C165.841 217.363 173.65 209.096 179.067 199.297C184.652 189.682 188.309 178.821 188.523 167.652C188.694 162.071 187.639 156.521 185.433 151.392C183.191 146.233 179.428 141.882 174.646 138.92C179.548 141.769 183.449 146.063 185.815 151.215C188.134 156.386 189.29 162.004 189.203 167.67C189.146 173.321 188.265 178.934 186.587 184.331C184.935 189.727 182.671 194.917 179.84 199.799C177.062 204.718 173.692 209.279 169.806 213.379C165.954 217.513 161.539 221.085 156.692 223.989C151.841 226.927 146.405 228.763 140.767 229.369C135.127 229.899 129.465 228.621 124.6 225.721Z" fill="#FAFAFA"/>
<path d="M175.959 167.159C175.793 170.986 175.168 174.78 174.098 178.458C173.571 180.292 172.95 182.096 172.236 183.866C171.594 185.457 170.905 187.03 170.151 188.575L162.985 181.623L155.334 174.335C152.793 171.896 150.187 169.523 147.618 167.112C145.049 164.702 142.443 162.338 139.818 159.983C142.276 162.505 144.751 165.018 147.264 167.494C149.777 169.97 152.253 172.483 154.785 174.94L162.361 182.302L170.012 189.599L170.43 189.99L170.672 189.478C171.521 187.744 172.279 185.967 172.943 184.154C173.607 182.338 174.178 180.49 174.656 178.616C175.62 174.876 176.058 171.02 175.959 167.159Z" fill="#F7921E"/>
<path opacity="0.3" d="M175.959 167.159C175.793 170.986 175.168 174.78 174.098 178.458C173.571 180.292 172.95 182.096 172.236 183.866C171.594 185.457 170.905 187.03 170.151 188.575L162.985 181.623L155.334 174.335C152.793 171.896 150.187 169.523 147.618 167.112C145.049 164.702 142.443 162.338 139.818 159.983C142.276 162.505 144.751 165.018 147.264 167.494C149.777 169.97 152.253 172.483 154.785 174.94L162.361 182.302L170.012 189.599L170.43 189.99L170.672 189.478C171.521 187.744 172.279 185.967 172.943 184.154C173.607 182.338 174.178 180.49 174.656 178.616C175.62 174.876 176.058 171.02 175.959 167.159Z" fill="#FAFAFA"/>
<path d="M110.425 197.52C110.446 195.13 110.636 192.744 110.993 190.381L102.123 185.262C101.77 187.625 101.581 190.011 101.555 192.4C101.555 205.142 106.73 215.427 115.721 220.602L124.591 225.721C115.609 220.546 110.425 210.261 110.425 197.52Z" fill="#F7921E"/>
<path opacity="0.15" d="M110.425 197.52C110.446 195.13 110.636 192.744 110.993 190.381L102.123 185.262C101.77 187.625 101.581 190.011 101.555 192.4C101.555 205.142 106.73 215.427 115.721 220.602L124.591 225.721C115.609 220.546 110.425 210.261 110.425 197.52Z" fill="black"/>
<path opacity="0.2" d="M150.726 199.642L159.587 204.761L129.068 175.405L127.942 177.807L150.726 199.642Z" fill="black"/>
</svg>
