<svg width="256" height="256" viewBox="0 0 256 256" fill="none" xmlns="http://www.w3.org/2000/svg">
<path d="M128.004 110.636C156.746 110.636 185.461 116.968 207.344 129.604C229.229 142.241 240.059 158.733 240.06 175.122C240.06 191.511 229.231 208.004 207.344 220.641C185.459 233.276 156.744 239.613 128.002 239.615C99.7095 239.617 71.4435 233.482 49.6924 221.229L48.6611 220.641C26.7737 208.004 15.9434 191.511 15.9434 175.122C15.9434 158.733 26.7737 142.241 48.6611 129.604C70.5459 116.968 99.2617 110.636 128.004 110.636Z" stroke="#D5D5D5"/>
<path d="M183.049 210.608V184.161L217.406 164.323V190.769L183.049 210.608Z" fill="#F7921E"/>
<path opacity="0.3" d="M183.049 210.608V184.161L217.406 164.323V190.769L183.049 210.608Z" fill="black"/>
<path d="M183.049 184.162L140.102 159.363V185.814L183.049 210.608V184.162Z" fill="#F7921E"/>
<path opacity="0.55" d="M183.049 184.162L140.102 159.363V185.814L183.049 210.608V184.162Z" fill="black"/>
<path d="M183.049 184.161L218.421 163.729L174.459 138.335L139.083 158.773L183.049 184.161Z" fill="#F7921E"/>
<path opacity="0.15" d="M183.049 184.161L218.421 163.729L174.459 138.335L139.083 158.773L183.049 184.161Z" fill="black"/>
<path d="M183.049 184.161V190.769L218.421 170.346V163.729L183.049 184.161Z" fill="#F7921E"/>
<path opacity="0.3" d="M183.049 184.161V190.769L218.421 170.346V163.729L183.049 184.161Z" fill="black"/>
<path opacity="0.2" d="M183.049 190.769L217.406 170.936V172.39L183.049 192.228V190.769Z" fill="black"/>
<path d="M139.083 158.772L183.049 184.161V190.769L139.083 165.39V158.772Z" fill="#F7921E"/>
<path opacity="0.55" d="M139.083 158.772L183.049 184.161V190.769L139.083 165.39V158.772Z" fill="black"/>
<path opacity="0.2" d="M183.049 190.769L140.102 165.975V167.429L183.049 192.228V190.769Z" fill="black"/>
<path d="M194.359 188.178L206.097 181.405C206.602 181.112 207.013 181.348 207.013 181.934V188.872C206.996 189.19 206.904 189.499 206.745 189.774C206.585 190.05 206.364 190.284 206.097 190.458L194.359 197.231C193.854 197.524 193.443 197.288 193.443 196.702V189.755C193.462 189.439 193.554 189.131 193.713 188.857C193.872 188.584 194.093 188.351 194.359 188.178Z" fill="#37474F"/>
<path d="M195.109 188.966L205.342 183.057C205.682 182.863 205.955 183.024 205.955 183.411V188.603C205.944 188.815 205.883 189.022 205.776 189.205C205.669 189.389 205.521 189.545 205.342 189.66L195.109 195.569C194.774 195.763 194.5 195.607 194.5 195.215V190.023C194.511 189.812 194.572 189.606 194.678 189.422C194.784 189.238 194.931 189.082 195.109 188.966Z" fill="#F5F5F5"/>
<g opacity="0.5">
<path d="M195.397 190.34C195.37 190.34 195.344 190.333 195.321 190.319C195.298 190.306 195.278 190.287 195.265 190.264C195.246 190.23 195.241 190.189 195.252 190.151C195.262 190.113 195.287 190.081 195.321 190.061L204.992 184.482C205.027 184.463 205.068 184.459 205.105 184.469C205.143 184.48 205.176 184.505 205.195 184.539C205.206 184.556 205.212 184.574 205.215 184.593C205.218 184.613 205.217 184.632 205.212 184.651C205.207 184.67 205.199 184.688 205.187 184.704C205.175 184.719 205.16 184.732 205.144 184.742L195.472 190.321C195.449 190.334 195.423 190.34 195.397 190.34Z" fill="#455A64"/>
<path d="M195.397 191.643C195.37 191.642 195.344 191.635 195.321 191.622C195.298 191.609 195.278 191.59 195.265 191.567C195.246 191.532 195.241 191.492 195.252 191.454C195.262 191.416 195.287 191.384 195.321 191.364L204.992 185.761C205.009 185.751 205.028 185.745 205.048 185.742C205.067 185.74 205.087 185.741 205.106 185.747C205.125 185.752 205.143 185.761 205.158 185.773C205.173 185.785 205.186 185.801 205.195 185.818C205.206 185.835 205.212 185.853 205.215 185.873C205.218 185.892 205.217 185.912 205.212 185.93C205.207 185.949 205.199 185.967 205.187 185.983C205.175 185.998 205.16 186.011 205.144 186.021L195.472 191.595C195.452 191.618 195.426 191.634 195.397 191.643Z" fill="#455A64"/>
<path d="M195.397 192.894C195.37 192.894 195.343 192.888 195.32 192.874C195.297 192.861 195.278 192.841 195.265 192.818C195.246 192.783 195.241 192.743 195.252 192.705C195.262 192.667 195.287 192.635 195.321 192.615L204.992 187.041C205.009 187.031 205.028 187.024 205.047 187.022C205.066 187.019 205.086 187.02 205.105 187.025C205.124 187.029 205.141 187.038 205.157 187.05C205.172 187.061 205.186 187.076 205.195 187.093C205.205 187.109 205.212 187.128 205.215 187.147C205.217 187.166 205.216 187.186 205.212 187.205C205.207 187.224 205.198 187.241 205.187 187.257C205.175 187.273 205.16 187.286 205.144 187.296L195.482 192.875C195.456 192.889 195.426 192.896 195.397 192.894Z" fill="#455A64"/>
<path d="M195.397 194.173C195.37 194.172 195.344 194.165 195.321 194.152C195.298 194.139 195.278 194.12 195.265 194.097C195.246 194.063 195.241 194.022 195.252 193.984C195.262 193.946 195.287 193.914 195.321 193.894L204.992 188.339C205.027 188.32 205.068 188.315 205.105 188.326C205.143 188.336 205.176 188.361 205.195 188.395C205.206 188.412 205.212 188.431 205.215 188.45C205.218 188.469 205.217 188.489 205.212 188.508C205.207 188.527 205.199 188.545 205.187 188.56C205.175 188.576 205.16 188.589 205.144 188.598L195.482 194.177C195.454 194.184 195.424 194.182 195.397 194.173Z" fill="#455A64"/>
</g>
<path opacity="0.3" d="M140.03 158.059L183.152 182.957L217.58 163.071L174.458 138.168L140.03 158.059Z" fill="black"/>
<path d="M183.152 181.946V155.5L217.509 135.662V162.113L183.152 181.946Z" fill="#F7921E"/>
<path d="M183.152 155.501L140.205 130.707V157.153L183.152 181.947V155.501Z" fill="#F7921E"/>
<path opacity="0.15" d="M183.152 155.501L140.205 130.707V157.153L183.152 181.947V155.501Z" fill="black"/>
<path d="M183.152 155.5L218.529 135.068L174.562 109.679L139.186 130.112L183.152 155.5Z" fill="#F7921E"/>
<path opacity="0.2" d="M183.152 155.5L218.529 135.068L174.562 109.679L139.186 130.112L183.152 155.5Z" fill="white"/>
<path d="M183.152 155.5V162.113L218.529 141.69V135.067L183.152 155.5Z" fill="#F7921E"/>
<path opacity="0.2" d="M183.152 162.113L217.509 142.275V143.729L183.152 163.567V162.113Z" fill="black"/>
<path d="M139.186 130.112L183.152 155.501V162.113L139.186 136.729V130.112Z" fill="#F7921E"/>
<path opacity="0.2" d="M139.186 130.112L183.152 155.501V162.113L139.186 136.729V130.112Z" fill="black"/>
<path opacity="0.2" d="M183.152 162.113L140.205 137.314V138.773L183.152 163.567V162.113Z" fill="black"/>
<path d="M194.462 159.522L206.2 152.744C206.705 152.451 207.116 152.687 207.116 153.272V160.211C207.099 160.528 207.007 160.838 206.848 161.113C206.688 161.389 206.467 161.623 206.2 161.797L194.462 168.575C193.957 168.867 193.546 168.627 193.546 168.046V161.108C193.562 160.79 193.654 160.48 193.813 160.205C193.972 159.929 194.195 159.695 194.462 159.522Z" fill="#455A64"/>
<path d="M195.212 160.324L205.464 154.401C205.804 154.202 206.077 154.363 206.077 154.75V159.942C206.066 160.154 206.005 160.361 205.898 160.545C205.791 160.728 205.643 160.884 205.464 160.999L195.212 166.932C194.877 167.126 194.603 166.97 194.603 166.578V161.386C194.614 161.174 194.675 160.967 194.781 160.783C194.886 160.598 195.034 160.441 195.212 160.324Z" fill="#F5F5F5"/>
<g opacity="0.5">
<path d="M195.5 161.679C195.474 161.68 195.449 161.673 195.427 161.661C195.404 161.648 195.385 161.63 195.372 161.608C195.362 161.591 195.355 161.572 195.352 161.553C195.349 161.533 195.35 161.513 195.355 161.494C195.36 161.474 195.369 161.456 195.38 161.44C195.392 161.424 195.407 161.411 195.424 161.401L205.086 155.826C205.12 155.806 205.16 155.801 205.198 155.81C205.236 155.82 205.269 155.844 205.289 155.878C205.309 155.912 205.315 155.952 205.305 155.991C205.295 156.029 205.271 156.061 205.237 156.081L195.575 161.66C195.552 161.673 195.526 161.68 195.5 161.679Z" fill="#455A64"/>
<path d="M195.5 162.959C195.474 162.958 195.449 162.951 195.426 162.937C195.404 162.924 195.385 162.905 195.372 162.883C195.362 162.866 195.356 162.848 195.353 162.828C195.35 162.809 195.351 162.789 195.356 162.771C195.36 162.752 195.369 162.734 195.381 162.718C195.393 162.703 195.407 162.69 195.424 162.68L205.086 157.101C205.121 157.082 205.161 157.077 205.199 157.088C205.237 157.099 205.269 157.124 205.289 157.158C205.299 157.174 205.306 157.193 205.309 157.212C205.312 157.231 205.311 157.251 205.306 157.27C205.301 157.289 205.293 157.307 205.281 157.322C205.269 157.338 205.254 157.351 205.237 157.361L195.575 162.94C195.552 162.952 195.526 162.959 195.5 162.959Z" fill="#455A64"/>
<path d="M195.5 164.238C195.474 164.237 195.449 164.23 195.426 164.217C195.404 164.203 195.385 164.185 195.372 164.162C195.362 164.145 195.356 164.127 195.353 164.108C195.35 164.088 195.351 164.069 195.356 164.05C195.36 164.031 195.369 164.013 195.381 163.997C195.393 163.982 195.407 163.969 195.424 163.959L205.086 158.38C205.103 158.37 205.122 158.364 205.141 158.361C205.161 158.359 205.181 158.36 205.2 158.365C205.219 158.371 205.236 158.38 205.252 158.392C205.267 158.404 205.28 158.419 205.289 158.437C205.299 158.453 205.306 158.472 205.309 158.491C205.312 158.511 205.311 158.53 205.306 158.549C205.301 158.568 205.293 158.586 205.281 158.601C205.269 158.617 205.254 158.63 205.237 158.64L195.575 164.214C195.553 164.228 195.527 164.236 195.5 164.238Z" fill="#455A64"/>
<path d="M195.5 165.517C195.474 165.517 195.448 165.51 195.426 165.497C195.403 165.483 195.385 165.464 195.372 165.441C195.362 165.424 195.356 165.406 195.353 165.387C195.35 165.367 195.351 165.348 195.356 165.329C195.36 165.31 195.369 165.292 195.381 165.276C195.393 165.261 195.407 165.248 195.424 165.238L205.086 159.664C205.103 159.654 205.121 159.647 205.141 159.645C205.16 159.642 205.18 159.643 205.198 159.648C205.217 159.653 205.235 159.661 205.251 159.673C205.266 159.684 205.279 159.699 205.289 159.716C205.299 159.732 205.306 159.751 205.308 159.77C205.311 159.789 205.31 159.809 205.305 159.828C205.3 159.847 205.292 159.864 205.28 159.88C205.269 159.896 205.254 159.909 205.237 159.919L195.575 165.517C195.551 165.523 195.525 165.523 195.5 165.517Z" fill="#455A64"/>
</g>
<path d="M73.7956 219.572L32.1982 195.557V75.6733L73.7956 99.6887V219.572Z" fill="#263238"/>
<path d="M73.7954 99.6883L130.686 66.8418V186.725L73.7954 219.572V99.6883Z" fill="#37474F"/>
<path d="M130.686 66.842L73.7956 99.6885L32.1982 75.6731L89.0884 42.8267L130.686 66.842Z" fill="#455A64"/>
<path d="M78.8179 182.033L125.659 154.988V182.921L78.8179 209.966V182.033Z" fill="#263238"/>
<path d="M145.757 170.913L123.455 158.046V182.656L145.757 195.528V170.913Z" fill="#37474F"/>
<g opacity="0.1">
<path d="M145.757 170.913L123.455 158.046V182.656L145.757 195.528V170.913Z" fill="black"/>
</g>
<path d="M125.013 157.14L123.455 158.042L145.757 170.913L147.319 170.016L125.013 157.14Z" fill="#455A64"/>
<path d="M125.871 162.729C125.881 162.629 125.865 162.528 125.824 162.436C125.784 162.345 125.72 162.265 125.64 162.205C125.623 162.189 125.604 162.177 125.583 162.167L124.38 161.468C124.286 161.426 124.182 161.409 124.079 161.42C123.976 161.431 123.878 161.469 123.795 161.53L101.318 174.477L100.955 173.24C100.901 173.045 100.776 172.876 100.605 172.768L99.3497 172.041C99.2343 171.972 99.1021 171.935 98.9674 171.935C98.8327 171.935 98.7005 171.972 98.5851 172.041L88.3663 177.988C88.1247 178.143 87.9222 178.351 87.7747 178.596C87.6273 178.842 87.539 179.119 87.5167 179.404V209.14C87.5066 209.24 87.5221 209.34 87.5617 209.432C87.6014 209.524 87.6639 209.604 87.7432 209.664L89.0318 210.415C89.1246 210.451 89.2251 210.464 89.324 210.452C89.423 210.439 89.5173 210.402 89.5982 210.344L125.055 189.888C125.297 189.729 125.499 189.516 125.643 189.265C125.787 189.014 125.87 188.732 125.886 188.443L125.871 162.729Z" fill="#F7921E"/>
<path d="M125.872 162.729V188.486C125.856 188.775 125.772 189.056 125.627 189.306C125.482 189.556 125.279 189.768 125.036 189.925L89.4993 210.438C89.4259 210.488 89.34 210.517 89.2513 210.52C89.1626 210.523 89.0747 210.501 88.9979 210.457C88.921 210.413 88.8582 210.348 88.8166 210.269C88.7751 210.191 88.7565 210.102 88.763 210.014V180.15C88.7735 179.86 88.858 179.577 89.0084 179.329C89.15 179.078 89.351 178.866 89.5937 178.711L99.8361 172.796C99.9469 172.727 100.074 172.687 100.205 172.681C100.335 172.676 100.465 172.704 100.582 172.763H100.605C100.691 172.815 100.766 172.884 100.825 172.965C100.884 173.046 100.927 173.138 100.95 173.235L101.318 174.477L101.431 174.779C101.583 175.289 102.413 175.289 102.876 175.024L125.06 162.252C125.138 162.197 125.227 162.161 125.322 162.147C125.416 162.133 125.512 162.141 125.603 162.172H125.64C125.726 162.235 125.793 162.32 125.833 162.418C125.874 162.516 125.887 162.624 125.872 162.729Z" fill="#F7921E"/>
<path opacity="0.15" d="M125.872 162.729V188.486C125.856 188.775 125.772 189.056 125.627 189.306C125.482 189.556 125.279 189.768 125.036 189.925L89.4993 210.438C89.4259 210.488 89.34 210.517 89.2513 210.52C89.1626 210.523 89.0747 210.501 88.9979 210.457C88.921 210.413 88.8582 210.348 88.8166 210.269C88.7751 210.191 88.7565 210.102 88.763 210.014V180.15C88.7735 179.86 88.858 179.577 89.0084 179.329C89.15 179.078 89.351 178.866 89.5937 178.711L99.8361 172.796C99.9469 172.727 100.074 172.687 100.205 172.681C100.335 172.676 100.465 172.704 100.582 172.763H100.605C100.691 172.815 100.766 172.884 100.825 172.965C100.884 173.046 100.927 173.138 100.95 173.235L101.318 174.477L101.431 174.779C101.583 175.289 102.413 175.289 102.876 175.024L125.06 162.252C125.138 162.197 125.227 162.161 125.322 162.147C125.416 162.133 125.512 162.141 125.603 162.172H125.64C125.726 162.235 125.793 162.32 125.833 162.418C125.874 162.516 125.887 162.624 125.872 162.729Z" fill="black"/>
<path opacity="0.35" d="M89.0648 210.467H89.0317L87.7432 209.721C87.6637 209.658 87.6014 209.576 87.5618 209.483C87.5222 209.39 87.5066 209.288 87.5166 209.187V179.404C87.5271 179.114 87.6116 178.831 87.762 178.583L89.0081 179.31C88.8589 179.557 88.776 179.838 88.7674 180.126V209.99C88.7593 210.091 88.7839 210.191 88.8374 210.277C88.891 210.363 88.9707 210.429 89.0648 210.467Z" fill="black"/>
<path d="M129.902 165.07C129.912 164.969 129.896 164.868 129.856 164.775C129.815 164.683 129.752 164.602 129.671 164.541C129.655 164.526 129.635 164.515 129.615 164.508L128.392 163.828C128.298 163.786 128.194 163.769 128.091 163.78C127.988 163.791 127.89 163.829 127.807 163.89L105.335 176.841L104.967 175.6C104.916 175.403 104.791 175.234 104.617 175.128L103.367 174.401C103.249 174.336 103.116 174.303 102.981 174.307C102.846 174.312 102.715 174.352 102.602 174.425L92.3596 180.334C92.1191 180.491 91.9188 180.702 91.7745 180.951C91.6303 181.199 91.5461 181.478 91.5288 181.764V211.5C91.5188 211.6 91.5343 211.701 91.574 211.794C91.6136 211.886 91.676 211.967 91.7554 212.029L93.044 212.775C93.1363 212.812 93.2366 212.826 93.3357 212.815C93.4347 212.803 93.5292 212.767 93.6104 212.709L129.067 192.247C129.309 192.089 129.51 191.877 129.654 191.627C129.798 191.377 129.882 191.096 129.898 190.808L129.902 165.07Z" fill="#F7921E"/>
<path opacity="0.15" d="M104.594 175.1C104.477 175.04 104.347 175.012 104.217 175.018C104.086 175.023 103.959 175.063 103.848 175.133L93.6105 181.047C93.3652 181.202 93.1624 181.416 93.0205 181.67L91.7744 180.943C91.9118 180.688 92.1136 180.473 92.3597 180.32L102.602 174.406C102.717 174.338 102.848 174.302 102.982 174.302C103.116 174.302 103.247 174.338 103.362 174.406L104.594 175.1Z" fill="white"/>
<path opacity="0.15" d="M129.595 164.508C129.504 164.479 129.407 164.471 129.312 164.485C129.217 164.498 129.127 164.534 129.048 164.588L106.864 177.361C106.392 177.63 105.575 177.63 105.42 177.115L105.311 176.813L127.783 163.861C127.894 163.793 128.021 163.754 128.151 163.748C128.227 163.747 128.302 163.766 128.368 163.805L129.595 164.508Z" fill="white"/>
<path d="M129.902 165.07V190.822C129.887 191.112 129.803 191.394 129.658 191.645C129.513 191.896 129.31 192.109 129.067 192.266L93.511 212.779C93.4377 212.829 93.3517 212.858 93.263 212.861C93.1743 212.864 93.0865 212.843 93.0096 212.798C92.9327 212.754 92.8699 212.689 92.8283 212.61C92.7868 212.532 92.7682 212.443 92.7747 212.355V182.487C92.7852 182.198 92.8697 181.917 93.0202 181.67C93.1617 181.418 93.3626 181.204 93.6054 181.047L103.848 175.156C103.958 175.085 104.085 175.044 104.216 175.037C104.347 175.031 104.477 175.059 104.594 175.119H104.617C104.79 175.225 104.913 175.394 104.962 175.591L105.335 176.827L105.443 177.134C105.599 177.644 106.425 177.644 106.888 177.379L129.072 164.602C129.15 164.549 129.24 164.513 129.334 164.499C129.428 164.485 129.524 164.493 129.614 164.522H129.652C129.738 164.584 129.806 164.667 129.85 164.763C129.894 164.859 129.912 164.965 129.902 165.07Z" fill="#F7921E"/>
<path opacity="0.2" d="M93.0866 212.803C93.0866 212.803 93.0583 212.803 93.0488 212.803L91.7603 212.057C91.6809 211.996 91.6185 211.915 91.5788 211.822C91.5392 211.73 91.5237 211.629 91.5337 211.529V181.764C91.5435 181.475 91.6281 181.194 91.7792 180.948L93.0252 181.675C92.876 181.923 92.7932 182.206 92.7845 182.496V212.35C92.7819 212.447 92.8095 212.543 92.8636 212.624C92.9177 212.706 92.9956 212.768 93.0866 212.803Z" fill="black"/>
<path d="M133.895 167.406C133.904 167.306 133.888 167.206 133.848 167.113C133.809 167.021 133.747 166.94 133.669 166.878L133.607 166.845L132.404 166.141C132.31 166.099 132.206 166.082 132.103 166.093C132 166.104 131.902 166.142 131.819 166.203L109.347 179.15L108.978 177.913C108.925 177.718 108.8 177.549 108.629 177.441L107.378 176.714C107.263 176.645 107.131 176.608 106.996 176.608C106.861 176.608 106.729 176.645 106.614 176.714L96.3902 182.657C96.1413 182.815 95.9341 183.031 95.7863 183.287C95.6384 183.542 95.5541 183.83 95.5406 184.124V213.86C95.5305 213.96 95.546 214.06 95.5857 214.152C95.6253 214.244 95.6878 214.324 95.7672 214.384L97.0557 215.135C97.1485 215.172 97.249 215.184 97.348 215.172C97.4469 215.159 97.5412 215.122 97.6221 215.064L133.079 194.608C133.321 194.449 133.523 194.236 133.667 193.985C133.811 193.734 133.894 193.452 133.909 193.163L133.895 167.406Z" fill="#F7921E"/>
<path opacity="0.3" d="M108.606 177.441C108.49 177.379 108.359 177.349 108.228 177.355C108.097 177.361 107.97 177.402 107.86 177.474L97.6222 183.384C97.379 183.542 97.1768 183.755 97.0322 184.007L95.7861 183.28C95.9266 183.025 96.1297 182.811 96.3761 182.657L106.614 176.747C106.729 176.678 106.86 176.642 106.994 176.642C107.128 176.642 107.259 176.678 107.374 176.747L108.606 177.441Z" fill="white"/>
<path opacity="0.3" d="M133.608 166.844C133.516 166.815 133.419 166.807 133.325 166.821C133.23 166.835 133.139 166.87 133.06 166.924L110.876 179.702C110.404 179.966 109.588 179.966 109.432 179.456L109.323 179.149L131.814 166.188C131.925 166.121 132.052 166.083 132.182 166.08C132.258 166.079 132.332 166.097 132.399 166.132L133.608 166.844Z" fill="white"/>
<path d="M133.896 167.406V193.163C133.88 193.452 133.796 193.733 133.651 193.983C133.506 194.233 133.303 194.446 133.06 194.603L97.5232 215.116C97.4499 215.166 97.3639 215.194 97.2752 215.197C97.1865 215.2 97.0987 215.179 97.0218 215.134C96.9449 215.09 96.8821 215.025 96.8405 214.946C96.799 214.868 96.7804 214.779 96.7869 214.691V184.827C96.7974 184.537 96.8819 184.255 97.0324 184.006C97.1753 183.756 97.376 183.544 97.6176 183.388L107.86 177.474C107.972 177.404 108.099 177.364 108.231 177.359C108.362 177.353 108.493 177.381 108.611 177.441C108.696 177.493 108.771 177.561 108.83 177.642C108.889 177.723 108.932 177.815 108.955 177.913L109.328 179.154L109.437 179.456C109.592 179.966 110.418 179.966 110.881 179.702L133.065 166.929C133.143 166.874 133.234 166.838 133.329 166.824C133.424 166.81 133.521 166.819 133.612 166.849H133.645C133.734 166.911 133.803 166.995 133.847 167.093C133.891 167.191 133.908 167.299 133.896 167.406Z" fill="#F7921E"/>
<path opacity="0.15" d="M133.896 167.406V193.163C133.88 193.452 133.796 193.733 133.651 193.983C133.506 194.233 133.303 194.446 133.06 194.603L97.5232 215.116C97.4499 215.166 97.3639 215.194 97.2752 215.197C97.1865 215.2 97.0987 215.179 97.0218 215.134C96.9449 215.09 96.8821 215.025 96.8405 214.946C96.799 214.868 96.7804 214.779 96.7869 214.691V184.827C96.7974 184.537 96.8819 184.255 97.0324 184.006C97.1753 183.756 97.376 183.544 97.6176 183.388L107.86 177.474C107.972 177.404 108.099 177.364 108.231 177.359C108.362 177.353 108.493 177.381 108.611 177.441C108.696 177.493 108.771 177.561 108.83 177.642C108.889 177.723 108.932 177.815 108.955 177.913L109.328 179.154L109.437 179.456C109.592 179.966 110.418 179.966 110.881 179.702L133.065 166.929C133.143 166.874 133.234 166.838 133.329 166.824C133.424 166.81 133.521 166.819 133.612 166.849H133.645C133.734 166.911 133.803 166.995 133.847 167.093C133.891 167.191 133.908 167.299 133.896 167.406Z" fill="white"/>
<path opacity="0.05" d="M97.0939 215.144H97.0561L95.7676 214.399C95.6881 214.336 95.6258 214.254 95.5862 214.161C95.5466 214.068 95.5311 213.966 95.541 213.865V184.124C95.5515 183.834 95.636 183.552 95.7865 183.303L97.0325 184.03C96.8827 184.277 96.7998 184.558 96.7918 184.847V214.71C96.793 214.804 96.8225 214.896 96.8763 214.974C96.9301 215.051 97.0059 215.11 97.0939 215.144Z" fill="black"/>
<path d="M137.927 169.747C137.936 169.647 137.92 169.546 137.881 169.454C137.841 169.361 137.779 169.28 137.7 169.218C137.681 169.205 137.661 169.193 137.639 169.185L136.435 168.482C136.341 168.44 136.237 168.423 136.134 168.434C136.031 168.445 135.933 168.482 135.85 168.543L113.378 181.495L113.01 180.254C112.959 180.057 112.834 179.888 112.66 179.782L111.41 179.055C111.292 178.989 111.159 178.957 111.024 178.961C110.889 178.965 110.758 179.006 110.645 179.078L100.407 184.988C100.167 185.143 99.9667 185.351 99.8217 185.597C99.6766 185.843 99.5911 186.119 99.5718 186.404V216.14C99.5618 216.24 99.5773 216.341 99.6169 216.433C99.6566 216.526 99.719 216.607 99.7984 216.669L101.087 217.414C101.179 217.451 101.28 217.464 101.378 217.453C101.477 217.441 101.572 217.405 101.653 217.348L137.11 196.887C137.349 196.731 137.548 196.522 137.692 196.277C137.836 196.031 137.921 195.755 137.941 195.471L137.927 169.747Z" fill="#F7921E"/>
<path opacity="0.5" d="M112.623 179.777C112.506 179.718 112.376 179.689 112.245 179.695C112.115 179.701 111.988 179.741 111.877 179.81L101.634 185.724C101.389 185.88 101.186 186.094 101.044 186.347L99.7983 185.621C99.9361 185.364 100.14 185.149 100.388 184.998L110.626 179.083C110.742 179.015 110.874 178.979 111.008 178.979C111.143 178.979 111.275 179.015 111.391 179.083L112.623 179.777Z" fill="white"/>
<path opacity="0.5" d="M137.62 169.186C137.529 169.156 137.432 169.148 137.337 169.162C137.242 169.176 137.151 169.212 137.072 169.266L114.888 182.038C114.416 182.302 113.6 182.307 113.444 181.793L113.335 181.491L135.826 168.548C135.937 168.48 136.064 168.441 136.194 168.435C136.271 168.434 136.346 168.453 136.412 168.492L137.62 169.186Z" fill="white"/>
<path d="M137.926 169.747V195.5C137.911 195.789 137.827 196.071 137.682 196.322C137.537 196.573 137.334 196.786 137.091 196.944L101.545 217.457C101.471 217.507 101.384 217.536 101.295 217.539C101.206 217.542 101.118 217.52 101.041 217.475C100.964 217.43 100.901 217.364 100.86 217.285C100.819 217.206 100.801 217.117 100.808 217.028V187.164C100.817 186.876 100.9 186.595 101.049 186.348C101.192 186.095 101.395 185.881 101.639 185.725L111.877 179.815C111.988 179.744 112.115 179.703 112.247 179.696C112.379 179.69 112.51 179.718 112.627 179.777C112.8 179.884 112.925 180.053 112.976 180.249L113.345 181.486L113.453 181.793C113.609 182.303 114.435 182.303 114.898 182.038L137.082 169.261C137.161 169.207 137.251 169.171 137.346 169.158C137.441 169.144 137.538 169.152 137.629 169.181H137.662C137.754 169.242 137.827 169.328 137.873 169.427C137.92 169.527 137.938 169.638 137.926 169.747Z" fill="#F7921E"/>
<path opacity="0.3" d="M137.926 169.747V195.5C137.911 195.789 137.827 196.071 137.682 196.322C137.537 196.573 137.334 196.786 137.091 196.944L101.545 217.457C101.471 217.507 101.384 217.536 101.295 217.539C101.206 217.542 101.118 217.52 101.041 217.475C100.964 217.43 100.901 217.364 100.86 217.285C100.819 217.206 100.801 217.117 100.808 217.028V187.164C100.817 186.876 100.9 186.595 101.049 186.348C101.192 186.095 101.395 185.881 101.639 185.725L111.877 179.815C111.988 179.744 112.115 179.703 112.247 179.696C112.379 179.69 112.51 179.718 112.627 179.777C112.8 179.884 112.925 180.053 112.976 180.249L113.345 181.486L113.453 181.793C113.609 182.303 114.435 182.303 114.898 182.038L137.082 169.261C137.161 169.207 137.251 169.171 137.346 169.158C137.441 169.144 137.538 169.152 137.629 169.181H137.662C137.754 169.242 137.827 169.328 137.873 169.427C137.92 169.527 137.938 169.638 137.926 169.747Z" fill="white"/>
<path d="M102.045 196.151L79.7383 183.284V207.894L102.04 220.766L102.045 196.151Z" fill="#37474F"/>
<path d="M81.3006 182.383L79.7383 183.28L102.045 196.151L103.603 195.254L81.3006 182.383Z" fill="#455A64"/>
<path d="M102.781 194.924L149.623 167.878V195.816L102.781 222.856V194.924Z" fill="#455A64"/>
<path d="M102.781 194.923L100.417 193.555V221.492L102.781 222.856V194.923Z" fill="#263238"/>
<path d="M100.417 193.555L147.258 166.509L149.623 167.878L102.781 194.924L100.417 193.555Z" fill="#37474F"/>
<path d="M134.377 183.879L132.73 182.935C132.651 182.895 132.563 182.878 132.476 182.886C132.388 182.893 132.305 182.925 132.234 182.977C132.032 183.108 131.864 183.285 131.744 183.493C131.624 183.702 131.556 183.936 131.545 184.176C131.53 184.266 131.541 184.358 131.577 184.442C131.613 184.526 131.672 184.598 131.748 184.648L133.4 185.592C133.631 185.724 133.693 185.842 133.697 185.861C133.702 185.88 133.612 186.069 133.268 186.267L125.588 190.704C125.107 190.952 124.576 191.087 124.035 191.1C123.493 191.114 122.956 191.004 122.464 190.779L120.821 189.835C120.745 189.802 120.661 189.789 120.578 189.798C120.495 189.807 120.416 189.838 120.349 189.887C120.148 190.019 119.98 190.196 119.86 190.404C119.739 190.613 119.669 190.846 119.655 191.086C119.645 191.171 119.658 191.257 119.693 191.336C119.728 191.414 119.783 191.481 119.854 191.53L121.501 192.474C122.245 192.87 123.079 193.068 123.922 193.05C124.849 193.063 125.764 192.839 126.58 192.398L134.264 187.962C134.666 187.77 135.009 187.474 135.258 187.105C135.507 186.735 135.653 186.306 135.68 185.861C135.662 185.444 135.532 185.039 135.302 184.69C135.073 184.341 134.753 184.06 134.377 183.879Z" fill="#263238"/>
<path d="M105.939 195.249L114.855 190.1C115.153 189.93 115.389 190.067 115.389 190.407V194.943C115.379 195.127 115.326 195.307 115.233 195.467C115.14 195.627 115.011 195.763 114.855 195.863L105.939 201.012C105.646 201.182 105.406 201.045 105.406 200.706V196.17C105.416 195.985 105.47 195.806 105.563 195.646C105.655 195.486 105.784 195.35 105.939 195.249Z" fill="#FAFAFA"/>
<path d="M105.972 200.342V196.17C105.982 196.084 106.009 196.001 106.052 195.927C106.095 195.852 106.153 195.787 106.222 195.735L114.827 190.77V194.943C114.816 195.028 114.789 195.11 114.746 195.185C114.703 195.259 114.645 195.325 114.577 195.377L105.972 200.342ZM114.723 190.945L106.274 195.825C106.166 195.91 106.093 196.033 106.071 196.17V200.172L114.525 195.292C114.632 195.206 114.703 195.083 114.723 194.947V190.945Z" fill="#F7921E"/>
<path d="M107.072 197.133C107.036 197.133 107 197.123 106.968 197.105C106.937 197.087 106.911 197.06 106.893 197.029C106.879 197.006 106.87 196.98 106.867 196.953C106.863 196.927 106.865 196.9 106.872 196.874C106.879 196.848 106.891 196.824 106.908 196.803C106.924 196.781 106.945 196.764 106.968 196.75L113.623 192.908C113.67 192.881 113.726 192.874 113.778 192.888C113.83 192.903 113.875 192.937 113.902 192.984C113.929 193.031 113.936 193.087 113.922 193.139C113.908 193.191 113.873 193.235 113.826 193.262L107.171 197.104C107.141 197.123 107.107 197.133 107.072 197.133Z" fill="#E0E0E0"/>
<path d="M107.072 198.232C107.036 198.233 107 198.225 106.969 198.207C106.937 198.19 106.911 198.164 106.892 198.133C106.865 198.086 106.858 198.029 106.872 197.976C106.886 197.923 106.921 197.878 106.968 197.85L113.623 194.008C113.67 193.981 113.726 193.974 113.778 193.988C113.83 194.002 113.875 194.037 113.902 194.084C113.929 194.13 113.936 194.186 113.922 194.238C113.907 194.291 113.873 194.335 113.826 194.362L107.171 198.204C107.141 198.223 107.107 198.233 107.072 198.232Z" fill="#E0E0E0"/>
<path d="M81.1494 147.851L127.995 120.806L127.991 148.743L81.1494 175.789V147.851Z" fill="#455A64"/>
<path d="M81.1494 147.851L78.7847 146.487V174.425L81.1494 175.789V147.851Z" fill="#263238"/>
<path d="M78.7847 146.487L125.626 119.442L127.995 120.806L81.1494 147.852L78.7847 146.487Z" fill="#37474F"/>
<path d="M78.7847 146.487L84.5903 143.027L90.4147 139.596C94.2993 137.307 98.2075 135.06 102.101 132.79L113.854 126.068C117.777 123.845 121.689 121.608 125.654 119.418L128.014 120.834L125.607 119.46H125.654C121.789 121.778 117.895 124.048 114.01 126.333L102.309 133.148C98.3963 135.386 94.4975 137.647 90.5705 139.865L84.6894 143.197L78.7847 146.487Z" fill="#263238"/>
<path d="M112.75 136.811L111.102 135.867C111.023 135.827 110.935 135.809 110.846 135.817C110.758 135.824 110.673 135.856 110.602 135.91C110.401 136.04 110.234 136.216 110.114 136.424C109.994 136.632 109.925 136.865 109.913 137.104C109.898 137.194 109.91 137.287 109.947 137.371C109.984 137.455 110.044 137.526 110.121 137.576L111.773 138.52C112.004 138.652 112.065 138.766 112.07 138.789C112.075 138.813 111.985 138.997 111.64 139.195L103.942 143.613C103.462 143.863 102.93 144 102.389 144.013C101.848 144.027 101.31 143.918 100.818 143.693L99.1703 142.749C99.094 142.715 99.0102 142.702 98.9272 142.711C98.8443 142.721 98.7653 142.752 98.6983 142.801C98.4962 142.932 98.3283 143.109 98.2084 143.317C98.0886 143.526 98.0202 143.76 98.0091 144C97.9992 144.084 98.0119 144.169 98.046 144.246C98.08 144.323 98.1341 144.39 98.2027 144.439L99.8452 145.383C100.591 145.781 101.426 145.98 102.271 145.964C103.199 145.977 104.114 145.751 104.929 145.307L112.608 140.875C113.009 140.683 113.352 140.386 113.601 140.017C113.85 139.648 113.996 139.219 114.024 138.775C114.006 138.364 113.878 137.965 113.654 137.62C113.43 137.274 113.118 136.995 112.75 136.811Z" fill="#263238"/>
<path d="M84.307 148.182L93.2278 143.032C93.5204 142.863 93.7611 142.999 93.7611 143.339V147.875C93.7505 148.06 93.6967 148.239 93.604 148.399C93.5114 148.559 93.3825 148.695 93.2278 148.796L84.307 153.945C84.0143 154.115 83.7783 153.978 83.7783 153.638V149.102C83.7881 148.918 83.841 148.739 83.9328 148.579C84.0247 148.419 84.1528 148.283 84.307 148.182Z" fill="#FAFAFA"/>
<path d="M84.3398 153.275V149.102C84.3505 149.017 84.3782 148.934 84.4211 148.86C84.4641 148.785 84.5215 148.72 84.59 148.668L93.1946 143.698V147.875C93.1839 147.96 93.1562 148.043 93.1133 148.117C93.0703 148.192 93.0129 148.257 92.9444 148.309L84.3398 153.275ZM93.086 143.877L84.6325 148.758C84.5248 148.843 84.4539 148.966 84.4342 149.102V153.1L92.883 148.22C92.9917 148.134 93.0642 148.011 93.086 147.875V143.877Z" fill="#F7921E"/>
<path d="M85.4398 150.06C85.4039 150.061 85.3684 150.052 85.337 150.035C85.3056 150.017 85.2792 149.992 85.2604 149.961C85.2353 149.913 85.2292 149.858 85.2432 149.805C85.2571 149.753 85.2902 149.707 85.3359 149.678L91.9911 145.836C92.0384 145.813 92.0928 145.808 92.1433 145.823C92.1939 145.839 92.2367 145.872 92.2631 145.918C92.2896 145.964 92.2976 146.018 92.2857 146.069C92.2737 146.121 92.2427 146.165 92.1988 146.195L85.5342 150.037C85.505 150.052 85.4727 150.06 85.4398 150.06Z" fill="#E0E0E0"/>
<path d="M85.4398 151.165C85.3937 151.167 85.3482 151.154 85.3109 151.126C85.2736 151.099 85.2467 151.06 85.2346 151.016C85.2225 150.971 85.226 150.924 85.2444 150.881C85.2628 150.839 85.2951 150.804 85.3359 150.783L91.9911 146.941C92.0387 146.913 92.0952 146.906 92.1483 146.92C92.2014 146.934 92.2467 146.969 92.2743 147.016C92.3003 147.064 92.3069 147.119 92.2928 147.171C92.2787 147.223 92.245 147.267 92.1988 147.295L85.5341 151.137C85.5053 151.153 85.473 151.163 85.4398 151.165Z" fill="#E0E0E0"/>
<path d="M81.1494 112.107L127.995 85.061L127.991 112.999L81.1494 140.044V112.107Z" fill="#455A64"/>
<path d="M81.1494 112.107L78.7847 110.743V138.68L81.1494 140.044V112.107Z" fill="#263238"/>
<path d="M78.7847 110.743L125.626 83.6973L127.995 85.0613L81.1494 112.107L78.7847 110.743Z" fill="#37474F"/>
<path d="M78.7847 110.743L84.5903 107.283L90.4147 103.851C94.2993 101.562 98.2075 99.3154 102.101 97.0451L113.854 90.3097C117.777 88.0865 121.689 85.8493 125.654 83.6592L128.014 85.0752L125.626 83.7489H125.654C121.789 86.0711 117.895 88.3367 114.01 90.6259L102.314 97.4085C98.401 99.6458 94.5023 101.907 90.5752 104.125L84.6941 107.457L78.7847 110.743Z" fill="#263238"/>
<path d="M112.75 101.053L111.102 100.109C111.023 100.068 110.935 100.05 110.846 100.058C110.758 100.065 110.673 100.098 110.602 100.151C110.401 100.281 110.234 100.458 110.114 100.665C109.994 100.873 109.925 101.106 109.913 101.345C109.898 101.436 109.91 101.528 109.947 101.612C109.984 101.696 110.044 101.767 110.121 101.817L111.773 102.761C112.004 102.893 112.065 103.007 112.07 103.03C112.075 103.054 111.985 103.238 111.64 103.436L103.942 107.868C103.462 108.118 102.93 108.255 102.389 108.269C101.848 108.283 101.31 108.173 100.818 107.949L99.1703 107.005C99.094 106.971 99.0102 106.958 98.9272 106.967C98.8443 106.976 98.7653 107.007 98.6983 107.056C98.4962 107.187 98.3283 107.364 98.2084 107.572C98.0886 107.781 98.0202 108.015 98.0091 108.255C97.9992 108.339 98.0119 108.424 98.046 108.501C98.08 108.578 98.1341 108.645 98.2027 108.694L99.8452 109.638C100.591 110.036 101.426 110.236 102.271 110.219C103.199 110.232 104.114 110.006 104.929 109.563L112.608 105.131C113.009 104.938 113.352 104.642 113.601 104.273C113.85 103.903 113.996 103.475 114.024 103.03C114.009 102.617 113.882 102.215 113.658 101.867C113.434 101.519 113.12 101.238 112.75 101.053Z" fill="#263238"/>
<path d="M84.307 112.248L93.2278 107.099C93.5204 106.929 93.7611 107.066 93.7611 107.406V111.942C93.7542 112.13 93.7021 112.314 93.6093 112.478C93.5165 112.643 93.3857 112.782 93.2278 112.886L84.307 118.035C84.0143 118.205 83.7783 118.068 83.7783 117.728V113.192C83.7844 113.004 83.8356 112.82 83.9276 112.656C84.0196 112.492 84.1497 112.352 84.307 112.248Z" fill="#FAFAFA"/>
<path d="M84.3398 117.341V113.169C84.3505 113.083 84.3782 113.001 84.4211 112.926C84.4641 112.852 84.5215 112.786 84.59 112.734L93.1946 107.764V111.941C93.1839 112.027 93.1562 112.109 93.1133 112.184C93.0703 112.258 93.0129 112.324 92.9444 112.376L84.3398 117.341ZM93.086 107.944L84.6325 112.824C84.5248 112.909 84.4539 113.033 84.4342 113.169V117.166L92.883 112.286C92.9917 112.201 93.0642 112.078 93.086 111.941V107.944Z" fill="#F7921E"/>
<path d="M85.4399 114.132C85.4036 114.131 85.3681 114.121 85.3367 114.103C85.3053 114.085 85.2791 114.059 85.2605 114.028C85.2357 113.981 85.2297 113.926 85.2437 113.874C85.2577 113.822 85.2907 113.778 85.336 113.749L91.9912 109.903C92.0148 109.887 92.0414 109.876 92.0694 109.871C92.0973 109.866 92.126 109.867 92.1537 109.873C92.1813 109.879 92.2074 109.892 92.2302 109.908C92.253 109.925 92.2721 109.947 92.2864 109.971C92.3006 109.996 92.3096 110.023 92.3129 110.051C92.3162 110.08 92.3137 110.108 92.3055 110.135C92.2973 110.162 92.2836 110.188 92.2653 110.209C92.2469 110.231 92.2244 110.249 92.1989 110.261L85.5343 114.103C85.5054 114.12 85.4731 114.13 85.4399 114.132Z" fill="#E0E0E0"/>
<path d="M85.4399 115.213C85.4036 115.212 85.3681 115.202 85.3367 115.184C85.3053 115.166 85.2791 115.14 85.2605 115.109C85.2357 115.061 85.2297 115.006 85.2437 114.955C85.2577 114.903 85.2907 114.859 85.336 114.83L91.9912 110.988C92.0388 110.961 92.0954 110.953 92.1484 110.967C92.2015 110.982 92.2468 111.016 92.2744 111.064C92.3004 111.111 92.307 111.166 92.2929 111.218C92.2788 111.27 92.2451 111.315 92.1989 111.342L85.5343 115.213C85.5032 115.22 85.471 115.22 85.4399 115.213Z" fill="#E0E0E0"/>
<path d="M79.318 100.165L97.6269 89.6019C97.9195 89.432 98.1556 89.5736 98.1556 89.9087V96.3657C98.1495 96.5538 98.0983 96.7378 98.0063 96.9021C97.9143 97.0664 97.7842 97.2062 97.6269 97.3097L79.318 107.849C79.0207 108.019 78.7847 107.882 78.7847 107.543V101.086C78.7942 100.901 78.8475 100.721 78.9403 100.561C79.033 100.401 79.1625 100.265 79.318 100.165Z" fill="#FAFAFA"/>
<path d="M79.3462 107.189V101.086C79.3569 101 79.3845 100.918 79.4275 100.843C79.4705 100.769 79.5279 100.704 79.5964 100.652L97.5937 90.2676V96.3611C97.583 96.4465 97.5554 96.5289 97.5124 96.6034C97.4695 96.678 97.412 96.7432 97.3436 96.7953L79.3462 107.189ZM97.4899 90.4611L79.6483 100.751C79.5424 100.838 79.4719 100.96 79.45 101.095V107.014L97.2916 96.7198C97.3993 96.6345 97.4702 96.5112 97.4899 96.3753V90.4611Z" fill="#F7921E"/>
<path d="M85.3034 98.6697C85.3134 98.6616 85.3259 98.6572 85.3388 98.6572C85.3516 98.6572 85.3641 98.6616 85.3742 98.6697C85.3947 98.6948 85.4048 98.7269 85.4025 98.7593V99.1653C85.4021 99.2077 85.3924 99.2496 85.3742 99.288C85.361 99.3236 85.336 99.3536 85.3034 99.3729L84.1281 100.053V101.157L85.2326 100.52C85.2422 100.511 85.2548 100.506 85.268 100.506C85.2811 100.506 85.2937 100.511 85.3034 100.52C85.314 100.532 85.322 100.546 85.3268 100.562C85.3317 100.577 85.3334 100.593 85.3317 100.61V101.011C85.3313 101.055 85.3217 101.098 85.3034 101.138C85.2873 101.172 85.2629 101.201 85.2326 101.223L84.1281 101.86V103.154C84.1277 103.198 84.1181 103.241 84.0998 103.281C84.0866 103.317 84.0616 103.347 84.029 103.366L83.7316 103.536C83.722 103.545 83.7093 103.55 83.6962 103.55C83.6831 103.55 83.6704 103.545 83.6608 103.536C83.6502 103.524 83.6422 103.51 83.6373 103.494C83.6324 103.479 83.6308 103.462 83.6325 103.446V99.7789C83.6333 99.7364 83.643 99.6946 83.6608 99.6561C83.6739 99.6205 83.6989 99.5905 83.7316 99.5712L85.3034 98.6697Z" fill="#455A64"/>
<path d="M85.9313 102.28C85.9217 102.289 85.909 102.294 85.8959 102.294C85.8828 102.294 85.8701 102.289 85.8605 102.28C85.8499 102.268 85.8419 102.254 85.837 102.238C85.8321 102.223 85.8305 102.207 85.8322 102.191V98.5232C85.8326 98.4807 85.8423 98.4388 85.8605 98.4004C85.8736 98.3648 85.8986 98.3348 85.9313 98.3155L86.2287 98.1408C86.2387 98.1328 86.2512 98.1284 86.2641 98.1284C86.2769 98.1284 86.2894 98.1328 86.2995 98.1408C86.3101 98.1531 86.3181 98.1673 86.3229 98.1827C86.3278 98.1982 86.3295 98.2144 86.3278 98.2305V101.898C86.328 101.941 86.3183 101.983 86.2995 102.021C86.2852 102.057 86.2605 102.088 86.2287 102.11L85.9313 102.28Z" fill="#455A64"/>
<path d="M88.6408 100.019C88.6508 100.011 88.6633 100.007 88.6762 100.007C88.689 100.007 88.7015 100.011 88.7116 100.019C88.7338 100.044 88.7456 100.076 88.7446 100.109V100.515C88.7432 100.558 88.7319 100.6 88.7116 100.638C88.6973 100.674 88.6726 100.705 88.6408 100.727L87.0265 101.671C87.0165 101.679 87.004 101.684 86.9911 101.684C86.9783 101.684 86.9658 101.679 86.9557 101.671C86.9451 101.659 86.9371 101.645 86.9322 101.63C86.9274 101.614 86.9257 101.598 86.9274 101.582V97.9143C86.9277 97.8703 86.9374 97.8269 86.9557 97.7869C86.9744 97.7548 86.9984 97.7261 87.0265 97.7019L87.3286 97.532C87.3382 97.523 87.3509 97.5181 87.364 97.5181C87.3771 97.5181 87.3898 97.523 87.3994 97.532C87.41 97.5442 87.418 97.5585 87.4229 97.5739C87.4278 97.5893 87.4294 97.6056 87.4277 97.6217V100.732L88.6408 100.019Z" fill="#455A64"/>
<path d="M90.788 98.7689C90.7976 98.7599 90.8102 98.755 90.8234 98.755C90.8365 98.755 90.8492 98.7599 90.8588 98.7689C90.8694 98.7811 90.8774 98.7954 90.8822 98.8108C90.8871 98.8262 90.8888 98.8425 90.8871 98.8586V99.2598C90.8867 99.3038 90.8771 99.3472 90.8588 99.3872C90.8456 99.4228 90.8206 99.4528 90.788 99.4722L89.1737 100.416C89.1637 100.424 89.1512 100.429 89.1383 100.429C89.1255 100.429 89.113 100.424 89.1029 100.416C89.0807 100.392 89.0688 100.36 89.0699 100.327V96.6591C89.0767 96.619 89.0912 96.5805 89.1124 96.5458C89.128 96.5117 89.1525 96.4824 89.1832 96.4608L90.7691 95.5451C90.7791 95.5371 90.7916 95.5327 90.8045 95.5327C90.8174 95.5327 90.8298 95.5371 90.8399 95.5451C90.8505 95.5574 90.8585 95.5716 90.8634 95.587C90.8682 95.6025 90.8699 95.6187 90.8682 95.6348V96.036C90.8679 96.08 90.8582 96.1235 90.8399 96.1635C90.8267 96.1991 90.8017 96.2291 90.7691 96.2484L89.5844 96.9187V97.8202L90.6936 97.1783C90.7036 97.1702 90.7161 97.1658 90.729 97.1658C90.7418 97.1658 90.7543 97.1702 90.7644 97.1783C90.7849 97.2035 90.795 97.2355 90.7927 97.2679V97.6739C90.7929 97.7164 90.7832 97.7584 90.7644 97.7966C90.7501 97.8328 90.7255 97.864 90.6936 97.8863L89.5844 98.5282V99.4722L90.788 98.7689Z" fill="#455A64"/>
<path d="M92.2325 94.6151C92.3632 94.5309 92.5121 94.4791 92.6668 94.464C92.7759 94.457 92.8845 94.4833 92.9783 94.5395C93.0618 94.5952 93.1274 94.6739 93.1671 94.7661C93.2131 94.8638 93.2388 94.9697 93.2426 95.0776C93.2428 95.1202 93.2331 95.1622 93.2143 95.2003C93.1997 95.2351 93.175 95.2647 93.1435 95.2853L92.8839 95.4363C92.8414 95.4363 92.8131 95.4647 92.7895 95.4363C92.765 95.4198 92.7455 95.3969 92.7329 95.3703C92.699 95.3018 92.6397 95.2493 92.5677 95.2239C92.509 95.2141 92.4489 95.2166 92.3912 95.2312C92.3335 95.2458 92.2795 95.2723 92.2325 95.3089C92.1663 95.3476 92.1045 95.3935 92.0485 95.4458C91.9918 95.4999 91.9411 95.5601 91.8974 95.6251C91.8559 95.6883 91.8226 95.7565 91.7983 95.8281C91.7721 95.8958 91.7593 95.9679 91.7605 96.0405C91.7555 96.1067 91.7669 96.1732 91.7936 96.234C91.8062 96.2547 91.8235 96.2722 91.8439 96.2853C91.8643 96.2984 91.8875 96.3067 91.9116 96.3095C91.9852 96.3198 92.0598 96.3198 92.1334 96.3095L92.4732 96.234C92.5966 96.2022 92.7235 96.1864 92.8509 96.1868C92.9465 96.1861 93.0397 96.2177 93.1152 96.2765C93.1875 96.3368 93.2401 96.4173 93.2662 96.5078C93.3014 96.6337 93.3173 96.7642 93.3134 96.8948C93.3127 97.0687 93.2889 97.2417 93.2426 97.4093C93.1934 97.583 93.1221 97.7495 93.0302 97.9049C92.937 98.0659 92.8244 98.2149 92.6951 98.3486C92.5635 98.483 92.4142 98.5989 92.2514 98.6931C92.1301 98.7683 91.9955 98.8196 91.8549 98.8442C91.7429 98.8689 91.6261 98.859 91.5198 98.8159C91.4207 98.7735 91.3391 98.6986 91.2885 98.6035C91.2226 98.4818 91.1885 98.3454 91.1894 98.207C91.1852 98.1626 91.1951 98.118 91.2177 98.0795C91.2334 98.0455 91.2578 98.0162 91.2885 97.9946L91.5481 97.8483C91.5611 97.8376 91.5763 97.8299 91.5927 97.8258C91.609 97.8217 91.626 97.8213 91.6425 97.8247C91.6682 97.8419 91.688 97.8666 91.6992 97.8955C91.7159 97.9351 91.7365 97.9731 91.7605 98.0087C91.7851 98.0424 91.8199 98.0672 91.8597 98.0795C91.9109 98.0918 91.9642 98.0918 92.0154 98.0795C92.0988 98.0591 92.1784 98.0257 92.2514 97.9804C92.3255 97.9365 92.3964 97.8877 92.4638 97.8341C92.532 97.7779 92.5923 97.7128 92.6432 97.6406C92.6946 97.5738 92.7374 97.5009 92.7706 97.4235C92.8025 97.3456 92.8186 97.2622 92.8178 97.178C92.8241 97.1152 92.8054 97.0525 92.7659 97.0034C92.7449 96.9847 92.7201 96.9708 92.6932 96.9626C92.6663 96.9545 92.638 96.9523 92.6101 96.9562C92.5226 96.9637 92.4359 96.9779 92.3505 96.9987C92.2467 96.9987 92.1287 97.0506 91.9918 97.0742C91.8854 97.0895 91.7773 97.0895 91.6709 97.0742C91.5848 97.0682 91.5033 97.0332 91.4396 96.9751C91.3726 96.9097 91.3266 96.8259 91.3074 96.7343C91.2712 96.599 91.2553 96.459 91.2602 96.319C91.2625 96.1449 91.2879 95.9719 91.3357 95.8045C91.3875 95.6408 91.4555 95.4827 91.5387 95.3325C91.6243 95.1824 91.7272 95.043 91.8455 94.9171C91.9592 94.7982 92.0896 94.6965 92.2325 94.6151Z" fill="#455A64"/>
<path d="M132.153 24.0897C132.102 23.0861 131.816 22.1086 131.317 21.2361C130.819 20.3636 130.122 19.6206 129.283 19.0671L126.93 17.711C126.034 17.2549 125.043 17.0171 124.038 17.0171C123.033 17.0171 122.042 17.2549 121.147 17.711L65.8124 49.7191C64.9725 50.2713 64.2748 51.014 63.7761 51.8868C63.2774 52.7595 62.9917 53.7377 62.9424 54.7417V76.7979C62.9934 77.8015 63.2798 78.779 63.7784 79.6515C64.2769 80.524 64.9737 81.267 65.8124 81.8205L68.1659 83.1766C69.0615 83.6327 70.0523 83.8705 71.0574 83.8705C72.0625 83.8705 73.0534 83.6327 73.949 83.1766L98.947 68.8264L108.576 63.2657L129.233 51.1685C130.073 50.6158 130.77 49.873 131.269 49.0004C131.767 48.1277 132.053 47.1498 132.103 46.1459L132.153 24.0897Z" fill="#F7921E"/>
<path opacity="0.2" d="M62.9209 76.7979C62.972 77.8015 63.2583 78.779 63.7569 79.6515C64.2555 80.524 64.9522 81.267 65.791 81.8205L68.1444 83.1766C68.9591 83.5874 69.8516 83.8209 70.7631 83.8617C71.6745 83.9025 72.5843 83.7497 73.4325 83.4133C72.0764 83.9228 71.036 83.155 71.036 81.5119V59.4198C71.0662 58.4062 71.3578 57.4175 71.8826 56.5498L63.7461 51.8501C63.223 52.7186 62.9315 53.7068 62.8994 54.7201L62.9209 76.7979Z" fill="black"/>
<path opacity="0.5" d="M132.06 23.2718C131.723 22.0448 130.625 21.6574 129.269 22.4251L73.985 54.4188C73.1255 54.9413 72.4219 55.6846 71.9473 56.5714L63.8179 51.8789C64.295 50.9962 64.9951 50.254 65.8484 49.7263L121.154 17.7254C122.053 17.2747 123.044 17.04 124.049 17.04C125.054 17.04 126.046 17.2747 126.944 17.7254L129.305 19.0887C130.022 19.5652 130.635 20.1811 131.108 20.8998C131.582 21.6185 131.905 22.4252 132.06 23.2718Z" fill="white"/>
<path d="M75.0467 72.8732V61.2137C75.0378 60.998 75.0745 60.7828 75.1543 60.5823C75.2248 60.4274 75.343 60.2992 75.4916 60.2164L78.7993 58.3006C78.9213 58.236 79.0074 58.2576 79.0648 58.3724C79.1365 58.5821 79.1658 58.8041 79.1509 59.0253V59.5993C79.1594 59.8533 79.1304 60.1072 79.0648 60.3527C79.0288 60.5071 78.9334 60.6412 78.7993 60.7258L76.9266 61.8092V64.5142L78.6917 63.4954C78.8136 63.4236 78.8997 63.4451 78.9571 63.5599C79.0254 63.7729 79.0522 63.997 79.0361 64.2201V64.7941C79.0422 65.0357 79.0156 65.277 78.9571 65.5116C78.9191 65.6651 78.8242 65.7984 78.6917 65.8847L76.9266 66.9035V71.7539C76.9105 71.9701 76.8349 72.1777 76.7083 72.3537C76.5817 72.5296 76.4089 72.6672 76.2091 72.7512L75.7283 73.0239C75.2835 73.3324 75.0467 73.2678 75.0467 72.8732Z" fill="#455A64"/>
<path d="M79.9043 64.17C79.9043 59.7597 80.9543 56.9447 83.0542 55.7249C84.0778 55.1365 84.8575 55.225 85.3932 55.9904C85.9242 56.7509 86.1968 58.272 86.1968 60.5394C86.2587 62.4 85.9865 64.2566 85.3932 66.0211C84.983 67.2515 84.1556 68.2997 83.0542 68.9845C80.959 70.1803 79.9091 68.5755 79.9043 64.17ZM83.7645 65.7772C83.978 65.2975 84.1113 64.7861 84.1591 64.2632C84.2628 63.3919 84.3083 62.5146 84.2955 61.6372C84.3122 60.8193 84.2666 60.0014 84.1591 59.1905C84.1447 58.8033 84.0064 58.4311 83.7645 58.1285C83.5851 57.985 83.3555 57.9994 83.047 58.1285C82.7363 58.31 82.4866 58.5797 82.3295 58.9035C82.114 59.3858 81.976 59.8992 81.9205 60.4246C81.8172 61.2912 81.7716 62.1637 81.7842 63.0363C81.7677 63.8565 81.8133 64.6768 81.9205 65.4902C81.9385 65.8791 82.082 66.2516 82.3295 66.5521C82.4328 66.6301 82.5588 66.6723 82.6882 66.6723C82.8177 66.6723 82.9436 66.6301 83.047 66.5521C83.3592 66.3596 83.6085 66.0804 83.7645 65.7485V65.7772Z" fill="#455A64"/>
<path d="M87.3018 65.7985V54.1246C87.2919 53.9082 87.3312 53.6923 87.4166 53.4932C87.4905 53.3259 87.6197 53.1891 87.7825 53.1058L89.77 51.9721C90.0169 51.7724 90.3163 51.6485 90.6321 51.6154C90.9479 51.5823 91.2665 51.6414 91.5495 51.7856C92.0015 52.0941 92.2239 52.8977 92.2239 54.2036C92.2494 55.5546 91.8504 56.8797 91.0831 57.992V58.0709C91.1911 58.1092 91.2898 58.1699 91.3727 58.249C91.4555 58.3282 91.5207 58.424 91.5638 58.5302C91.7185 58.8202 91.8275 59.1324 91.8867 59.4557L92.6042 62.5984L92.6401 62.7993C92.6401 63.1294 92.3961 63.4379 91.9226 63.7249L91.5064 63.9689C91.0831 64.2128 90.8391 64.1913 90.7889 63.8899L90.1503 60.7401C90.1182 60.5738 90.0325 60.4226 89.9064 60.3096C89.8131 60.2522 89.6696 60.3096 89.4687 60.3957L89.1817 60.5607V64.7438C89.1657 64.9618 89.0905 65.1714 88.964 65.3497C88.8375 65.528 88.6647 65.6683 88.4642 65.7555L88.0552 65.9922C87.5386 66.2506 87.3018 66.1931 87.3018 65.7985ZM89.8274 57.4539C90.0471 57.2884 90.204 57.053 90.2723 56.7866C90.41 56.3704 90.4731 55.9332 90.4588 55.4951C90.4952 55.14 90.4306 54.7818 90.2723 54.4619C90.2466 54.4233 90.2131 54.3904 90.1741 54.3653C90.1351 54.3402 90.0913 54.3234 90.0455 54.316C89.9997 54.3086 89.9529 54.3107 89.908 54.3223C89.863 54.3338 89.821 54.3544 89.7844 54.3829L89.153 54.7489V57.8413L89.8274 57.4539Z" fill="#455A64"/>
<path d="M93.6087 62.5339C93.5173 62.3834 93.4794 62.2064 93.5011 62.0317V50.5372C93.4941 50.3286 93.5308 50.1209 93.6087 49.9273C93.6791 49.7724 93.7973 49.6442 93.9459 49.5613L96.0985 48.3201C97.7846 47.3442 98.6241 47.9039 98.6241 49.9847C98.6479 51.2936 98.2697 52.5782 97.5406 53.6655V53.7301C97.7359 53.7026 97.9348 53.7387 98.108 53.833C98.2811 53.9274 98.4193 54.0749 98.5021 54.2539C98.7698 54.8071 98.8908 55.4198 98.8537 56.0333C98.8544 57.0894 98.6088 58.1311 98.1362 59.0755C97.6889 59.9817 96.9788 60.7319 96.0985 61.2281L93.91 62.498C93.7952 62.6057 93.6804 62.6057 93.6087 62.5339ZM96.1128 53.5866C96.3808 53.4221 96.5816 53.1678 96.6796 52.8691C96.8212 52.4489 96.8844 52.0062 96.8662 51.5632C96.9015 51.2096 96.8421 50.853 96.694 50.53C96.5792 50.3673 96.3926 50.3673 96.1343 50.53L95.2805 51.0251V54.0745L96.1128 53.5866ZM96.1989 58.9751C96.4962 58.8026 96.7264 58.5345 96.8518 58.2145C97.0138 57.7542 97.0845 57.2668 97.0599 56.7795C97.1028 56.4041 97.0329 56.0244 96.859 55.6889C96.7227 55.5239 96.5003 55.531 96.1989 55.6889L95.2805 56.2127V59.4558L96.1989 58.9751Z" fill="#455A64"/>
<path d="M99.9229 58.5088V46.6627C99.9347 46.4436 100.008 46.2322 100.135 46.0532C100.262 45.8742 100.437 45.7347 100.64 45.6511L101.15 45.3569C101.602 45.0914 101.831 45.1703 101.831 45.5721V57.4182C101.822 57.6332 101.753 57.8415 101.633 58.02C101.513 58.1985 101.345 58.3403 101.15 58.4299L100.64 58.7169C100.152 58.9896 99.9229 58.9178 99.9229 58.5088Z" fill="#455A64"/>
<path d="M103.245 56.9946C103.146 56.8472 103.105 56.6682 103.13 56.4924V45.0122C103.12 44.7958 103.159 44.5799 103.245 44.3808C103.308 44.2237 103.425 44.0941 103.575 44.0149L105.864 42.6947C106.906 42.092 107.674 42.1852 108.167 42.9745C108.655 43.7638 108.884 45.249 108.884 47.4159C108.945 49.2088 108.703 50.9991 108.167 52.7111C107.777 53.9362 106.959 54.9803 105.864 55.6529L103.575 56.9659C103.402 57.0449 103.309 57.052 103.245 56.9946ZM105.799 53.2708C106.039 53.1042 106.244 52.8916 106.402 52.6453C106.56 52.399 106.667 52.1238 106.717 51.8357C106.932 50.7518 107.024 49.6469 106.99 48.5424C107.041 47.5419 106.95 46.5392 106.717 45.5647C106.531 45.0625 106.229 44.9261 105.799 45.1773L105.031 45.6149V53.6941L105.799 53.2708Z" fill="#455A64"/>
<path d="M110.176 52.9692C110.086 52.8183 110.048 52.6417 110.068 52.467V40.9868C110.06 40.7711 110.096 40.556 110.176 40.3554C110.247 40.2006 110.365 40.0723 110.513 39.9895L112.802 38.6693C113.84 38.0666 114.605 38.1598 115.098 38.9491C115.591 39.7384 115.83 41.2188 115.816 43.3905C115.879 45.1835 115.637 46.9742 115.098 48.6857C114.713 49.9115 113.898 50.9565 112.802 51.6275L110.513 52.9405C110.363 53.0338 110.248 53.041 110.176 52.9692ZM112.738 49.2382C112.978 49.072 113.183 48.8595 113.341 48.6131C113.499 48.3667 113.606 48.0914 113.656 47.8032C113.87 46.7191 113.962 45.6144 113.929 44.5098C113.98 43.5093 113.888 42.5066 113.656 41.5321C113.469 41.0227 113.161 40.8936 112.738 41.1375L111.97 41.5824V49.6902L112.738 49.2382Z" fill="#455A64"/>
<path d="M117.115 48.9659C117.024 48.8149 116.986 48.6383 117.007 48.4636V36.9835C116.999 36.7701 117.035 36.5574 117.115 36.3592C117.187 36.2036 117.304 36.0735 117.452 35.9861L120.996 33.9412C121.016 33.9231 121.04 33.9102 121.066 33.9035C121.093 33.8969 121.12 33.8967 121.146 33.9031C121.172 33.9095 121.197 33.9222 121.217 33.9401C121.237 33.958 121.252 33.9805 121.262 34.0058C121.333 34.2181 121.363 34.4423 121.348 34.6659V35.2399C121.353 35.4819 121.324 35.7234 121.262 35.9574C121.224 36.1109 121.129 36.2443 120.996 36.3305L118.88 37.622V40.3055L120.76 39.2221C120.881 39.1575 120.968 39.179 121.025 39.2938C121.097 39.5035 121.127 39.7255 121.111 39.9468V40.4921C121.12 40.7461 121.091 40.9999 121.025 41.2455C120.989 41.3999 120.894 41.534 120.76 41.6186L118.88 42.702V45.7012L121.032 44.4743C121.154 44.4025 121.24 44.424 121.29 44.546C121.356 44.7596 121.382 44.9831 121.369 45.2061V45.7801C121.373 46.0217 121.347 46.2627 121.29 46.4976C121.274 46.5738 121.243 46.646 121.199 46.7101C121.154 46.7741 121.098 46.8287 121.032 46.8707L117.445 48.9228C117.301 49.0304 117.186 49.0376 117.115 48.9659Z" fill="#455A64"/>
<path d="M122.438 45.5144V33.6612C122.453 33.4455 122.529 33.2384 122.655 33.0634C122.782 32.8883 122.956 32.7524 123.156 32.671L123.465 32.4845C123.58 32.4099 123.714 32.37 123.852 32.3697C123.945 32.3697 124.024 32.4701 124.089 32.6423L126.241 37.4281C126.403 37.8231 126.54 38.2282 126.65 38.6407L126.7 38.5689C126.636 37.9662 126.6 37.4999 126.6 37.1339V31.2575C126.616 31.0421 126.691 30.8354 126.818 30.6605C126.945 30.4856 127.118 30.3494 127.318 30.2674L127.612 30.1023C128.071 29.8297 128.329 29.8943 128.329 30.2889V42.135C128.313 42.3512 128.238 42.5587 128.111 42.7347C127.984 42.9107 127.812 43.0483 127.612 43.1323L127.382 43.2615C127.263 43.3415 127.124 43.3863 126.98 43.3906C126.88 43.3906 126.794 43.2902 126.729 43.118L124.433 38.1528C124.302 37.8285 124.194 37.4952 124.11 37.1554L124.053 37.2416C124.107 37.6413 124.138 38.0437 124.146 38.447V44.5386C124.132 44.7553 124.057 44.9636 123.93 45.1398C123.803 45.3161 123.629 45.4533 123.429 45.536L123.142 45.701C122.675 45.9665 122.438 45.9019 122.438 45.5144Z" fill="#455A64"/>
<path d="M201.655 48.3257L189.876 41.5286C189.613 41.3876 189.234 41.4837 188.773 41.8364C188.529 42.016 188.285 42.1955 188.042 42.3622L187.766 42.5354C187.606 42.638 187.445 42.747 187.279 42.8431C187.112 42.9393 187.048 42.9714 186.932 43.0419L186.503 43.2792L186.105 43.478L185.708 43.6703L185.265 43.8563C185.143 43.9076 185.021 43.9653 184.893 44.0102L184.412 44.1897L184.072 44.3116L183.553 44.4719L183.245 44.5616L182.687 44.7027L182.405 44.7668C182.213 44.8117 182.014 44.8502 181.815 44.8823L181.572 44.9271L180.93 45.0169H180.719C180.501 45.0169 180.276 45.0618 180.078 45.0746H179.904H179.212H179.071C178.834 45.0746 178.596 45.0746 178.359 45.0746H178.25C178.006 45.0746 177.756 45.0746 177.513 45.0233H177.442L176.679 44.9207H176.641L176.288 44.8502L168.978 40.6309C168.439 40.3295 167.946 40.5475 167.625 41.3363C163.38 51.8781 154.339 62.5673 148.311 65.2413C148.191 65.2922 148.076 65.3523 147.965 65.4208C147.891 65.4633 147.821 65.5105 147.753 65.5619L147.657 65.626L147.394 65.8504C147.304 65.9338 147.221 66.0236 147.138 66.1133C146.708 66.5828 146.468 67.1953 146.464 67.8318L147.336 78.5404C147.336 85.4464 150.273 92.7308 156.269 96.2126L168.055 103.003L168.138 103.048C171.182 104.733 174.68 105.417 178.135 105.004C179.425 104.79 180.621 104.191 181.565 103.285C194.749 89.6721 201.155 71.2239 201.155 61.054L202.027 49.2554C202.02 48.7873 201.886 48.4603 201.655 48.3257Z" fill="#F7921E"/>
<path opacity="0.4" d="M180.667 47.4087C180.55 47.3493 180.419 47.3215 180.287 47.3283C180.156 47.335 180.028 47.376 179.917 47.4472L179.789 47.5434C179.715 47.6177 179.648 47.6993 179.59 47.7871C179.526 47.898 179.47 48.0138 179.423 48.1333C178.318 50.8419 176.991 53.4542 175.454 55.9435C174.124 58.132 172.662 60.237 171.075 62.2468C170.305 63.2086 169.536 64.1256 168.76 64.9848C168.762 64.9953 168.762 65.0064 168.76 65.0169L168.118 65.7287C167.894 65.9531 167.682 66.1839 167.477 66.4019C167.368 66.5238 167.259 66.6392 167.144 66.7482C164.669 69.2362 162.245 71.0957 160.174 72.0127C159.821 72.1698 159.497 72.3867 159.218 72.6539L158.981 72.8912C158.968 72.9116 158.953 72.9309 158.936 72.9489L158.981 72.8912L147.208 66.107C147.217 66.0892 147.23 66.0738 147.246 66.0621C147.268 66.027 147.294 65.9947 147.323 65.9659L147.394 65.9018C147.414 65.8788 147.435 65.8574 147.458 65.8377L147.529 65.7735C147.59 65.7144 147.654 65.6587 147.721 65.6068L147.817 65.5427C147.888 65.4978 147.958 65.4401 148.029 65.4016C148.138 65.3305 148.254 65.2704 148.375 65.2221C154.403 62.5481 163.45 51.8589 167.689 41.3171C167.92 40.7528 168.234 40.4771 168.593 40.4771C168.752 40.4833 168.907 40.532 169.042 40.6181L176.281 44.8887L180.667 47.4087Z" fill="white"/>
<path opacity="0.1" d="M201.655 48.3257L189.875 41.5287C189.619 41.394 189.234 41.4902 188.779 41.8365C188.541 42.0224 188.291 42.202 188.041 42.3687L187.772 42.5418C187.612 42.6444 187.451 42.7534 187.285 42.8496C187.118 42.9458 187.054 42.9778 186.938 43.0484L186.509 43.2856C186.38 43.3562 186.246 43.4139 186.111 43.478L185.714 43.6768L185.265 43.8627C185.149 43.9204 185.021 43.9717 184.899 44.023L184.418 44.1962L184.078 44.318L183.553 44.4783L183.245 44.5681L182.693 44.7092L182.418 44.7733L181.821 44.8887L181.571 44.9336C181.366 44.9721 181.161 44.9977 180.93 45.0234H180.718L180.077 45.0875H179.904C179.673 45.0875 179.442 45.0875 179.212 45.0875H179.077C178.833 45.0875 178.596 45.0875 178.359 45.0875H178.256C178.006 45.0875 177.756 45.0554 177.512 45.0362H177.442C177.185 45.0362 176.929 44.9785 176.685 44.94H176.647C176.527 44.9246 176.409 44.8988 176.294 44.8631L180.68 47.3895L180.757 47.4344C180.924 47.5387 181.071 47.6711 181.193 47.8255C181.224 47.8523 181.252 47.8824 181.276 47.9153C185.765 53.1606 194.64 53.1541 200.558 48.6271C201.007 48.2872 201.379 48.1782 201.629 48.2936H201.667C201.784 48.3635 201.873 48.4725 201.917 48.6014C201.863 48.4827 201.771 48.3856 201.655 48.3257Z" fill="black"/>
<path opacity="0.2" d="M167.868 102.971L156.243 96.2767C150.254 92.7884 147.311 85.5041 147.311 78.598L146.438 67.8895C146.445 67.4781 146.546 67.0737 146.733 66.707C146.919 66.3403 147.187 66.021 147.516 65.7734C147.37 65.8944 147.235 66.0274 147.112 66.171L158.891 72.9552C158.467 73.4284 158.238 74.0447 158.25 74.6801L159.116 85.3886C159.096 92.2305 161.982 99.4508 167.868 102.971Z" fill="black"/>
<path d="M202.001 49.3195L201.129 61.1181C201.129 71.3137 194.717 89.7362 181.546 103.349C180.6 104.259 179.398 104.857 178.102 105.062C174.653 105.487 171.157 104.814 168.112 103.138L168.029 103.093L167.875 102.997C161.982 99.4765 159.09 92.2627 159.09 85.4143L158.224 74.7058C158.215 74.0729 158.444 73.4596 158.866 72.9873C158.938 72.9036 159.015 72.8244 159.096 72.7501C159.375 72.4823 159.698 72.2652 160.052 72.1088C162.129 71.1855 164.54 69.3259 167.028 66.8443L167.362 66.4981L168.003 65.8184L168.644 65.1066C169.427 64.2409 170.196 63.324 170.966 62.3621C172.552 60.3519 174.015 58.2469 175.345 56.0589C176.88 53.5716 178.205 50.9614 179.308 48.2551C179.359 48.1345 179.417 48.0168 179.481 47.9024C179.539 47.8167 179.606 47.7372 179.68 47.6652C179.719 47.6291 179.762 47.5968 179.808 47.569C179.917 47.4952 180.044 47.4526 180.175 47.4458C180.306 47.439 180.436 47.4683 180.552 47.5305L180.635 47.569C180.803 47.6717 180.951 47.8043 181.071 47.9601L181.155 48.0563C185.643 53.2952 194.518 53.2887 200.436 48.7681C200.879 48.4282 201.257 48.3192 201.507 48.4282H201.539C201.599 48.4539 201.65 48.4962 201.687 48.5501C201.878 48.7624 201.989 49.0344 202.001 49.3195Z" fill="#F7921E"/>
<path d="M183.534 88.0179L176.519 92.0641L177.602 79.3742C176.762 78.9317 176.23 77.8352 176.23 76.2706C176.23 73.4749 177.929 70.2302 180.026 69.0183C182.123 67.8064 183.822 69.0889 183.822 71.8846C183.777 73.5413 183.304 75.1582 182.45 76.5784L183.534 88.0179Z" fill="#455A64"/>
<path d="M183.534 88.0175L177.179 84.3433L176.519 92.0637L183.534 88.0175Z" fill="#37474F"/>
<path d="M180.026 69.0183C178.498 70.0492 177.358 71.5614 176.788 73.3145L182.45 76.5784C183.304 75.1582 183.777 73.5413 183.822 71.8846C183.822 69.0889 182.123 67.8064 180.026 69.0183Z" fill="#37474F"/>
<path d="M188.85 18.3994C186.926 17.2709 184.451 17.3991 182.123 18.7393L163.688 29.3901C161.766 30.6074 160.169 32.2736 159.034 34.2452C157.899 36.2167 157.26 38.4346 157.173 40.7078V63.2919C157.2 63.5781 157.302 63.852 157.47 64.0853C157.638 64.3186 157.865 64.5029 158.128 64.6192C158.843 64.9779 159.631 65.1647 160.43 65.1647C161.23 65.1647 162.018 64.9779 162.732 64.6192C162.995 64.5029 163.222 64.3186 163.39 64.0853C163.558 63.852 163.661 63.5781 163.688 63.2919V40.7078C163.776 39.5773 164.116 38.4809 164.683 37.499C165.25 36.517 166.029 35.6744 166.964 35.0329L185.387 24.3693V46.9726C185.414 47.2595 185.518 47.5339 185.687 47.7673C185.856 48.0007 186.085 48.1846 186.349 48.2999C187.061 48.6605 187.849 48.8484 188.648 48.8484C189.446 48.8484 190.234 48.6605 190.946 48.2999C191.209 48.1837 191.436 47.9994 191.604 47.7661C191.772 47.5327 191.875 47.2588 191.902 46.9726V24.3693C191.915 21.7082 190.799 19.5216 188.85 18.3994Z" fill="#37474F"/>
<path d="M185.387 24.3695V46.9536C185.414 47.2405 185.518 47.5149 185.687 47.7483C185.856 47.9817 186.084 48.1656 186.349 48.2809C186.648 48.4507 186.97 48.5781 187.304 48.6593V23.2666L185.387 24.3695Z" fill="#263238"/>
</svg>
