<svg width="256" height="256" viewBox="0 0 256 256" fill="none" xmlns="http://www.w3.org/2000/svg">
<path d="M128 108.94C157.375 108.937 186.723 115.409 209.089 128.334C231.458 141.262 242.531 158.114 242.532 174.865C242.532 191.615 231.461 208.468 209.089 221.396C186.721 234.321 157.371 240.799 127.996 240.799C98.6198 240.799 69.2719 234.321 46.9058 221.396C24.5365 208.468 13.464 191.615 13.4634 174.865C13.463 158.376 24.1906 141.788 45.8647 128.943L46.9058 128.334C69.2744 115.42 98.6237 108.943 128 108.94Z" stroke="#D5D5D5"/>
<path d="M48.1742 136.903L48.245 136.841L80.6147 105.01C81.2378 104.453 81.4879 103.49 81.2189 102.248C80.6808 99.7752 78.2642 97.1367 75.8192 96.3626C74.5967 95.9756 73.5961 96.1266 72.9872 96.6836L37.5872 125.216C37.5872 125.216 37.5447 125.263 37.5211 125.282C37.4782 125.312 37.4372 125.346 37.3984 125.381C36.6242 126.065 35.9944 126.897 35.5456 127.827C35.0969 128.758 34.8384 129.768 34.7852 130.8C34.732 131.832 34.8852 132.864 35.2359 133.835C35.5865 134.807 36.1276 135.699 36.8273 136.459C38.2548 138.009 40.2345 138.935 42.339 139.037C44.4435 139.14 46.5038 138.41 48.075 137.007L48.1742 136.903Z" fill="#F7921E"/>
<path opacity="0.25" d="M75.819 96.3627C73.3741 95.5839 71.8259 96.9668 72.3687 99.4401C72.9115 101.913 75.3234 104.552 77.7684 105.331C80.2133 106.109 81.7568 104.727 81.2187 102.249C80.6806 99.7705 78.2829 97.1367 75.819 96.3627Z" fill="black"/>
<path opacity="0.1" d="M42.463 127.533L73.3459 101.71C72.8945 101.015 72.5627 100.249 72.3642 99.4446C72.0998 98.208 72.3406 97.2546 72.9589 96.6929L37.5872 125.216C37.5872 125.216 37.5447 125.263 37.5211 125.282C37.4782 125.312 37.4372 125.345 37.3984 125.381C36.6242 126.065 35.9944 126.897 35.5456 127.827C35.0969 128.758 34.8384 129.768 34.7852 130.8C34.732 131.832 34.8852 132.864 35.2359 133.835C35.5865 134.807 36.1276 135.699 36.8273 136.459C35.6426 134.236 38.4226 130.946 42.463 127.533Z" fill="black"/>
<path d="M87.1236 94.8475C86.8973 94.0393 86.4836 93.2958 85.9161 92.6775C85.3486 92.0591 84.6432 91.5833 83.8574 91.2886C83.5781 91.1685 83.2724 91.1233 82.9704 91.1572C82.6683 91.1911 82.3803 91.3031 82.1346 91.4821L74.5071 98.3261C74.3021 98.5464 74.1599 98.8175 74.0951 99.1113C74.0304 99.4052 74.0455 99.711 74.1389 99.997C74.3642 100.806 74.7775 101.55 75.3452 102.168C75.9128 102.787 76.6187 103.262 77.4051 103.556C77.6841 103.677 77.9901 103.723 78.2924 103.689C78.5948 103.655 78.8829 103.543 79.1279 103.362L86.7791 96.5183C86.9804 96.296 87.1186 96.0237 87.1792 95.7299C87.2398 95.4361 87.2206 95.1314 87.1236 94.8475Z" fill="#E0E0E0"/>
<path opacity="0.25" d="M83.5979 99.3457L86.7556 96.5137C86.961 96.2937 87.1035 96.0226 87.1683 95.7286C87.233 95.4347 87.2177 95.1288 87.1238 94.8428C86.8974 94.0346 86.4837 93.2912 85.9162 92.6728C85.3487 92.0545 84.6434 91.5786 83.8575 91.2839C83.5783 91.1639 83.2726 91.1186 82.9705 91.1525C82.6684 91.1865 82.3804 91.2985 82.1347 91.4775L79.3594 93.9602C80.5656 95.9088 81.9874 97.7153 83.5979 99.3457Z" fill="black"/>
<path d="M123.557 34.4785C105.262 37.5324 85.16 54.1137 78.6605 71.4597C76.7725 76.5101 76.2344 81.0697 76.8811 84.9259C77.2781 87.5487 78.3664 90.0185 80.034 92.0814L85.0797 98.2599C88.9454 102.956 95.9074 105.094 105.059 103.565C123.354 100.511 143.457 83.9536 149.961 66.584C153.203 57.8945 152.439 50.654 148.583 45.967L143.523 39.7697C139.643 35.0874 132.695 32.954 123.557 34.4785ZM99.2492 92.8177C94.9068 93.5399 91.1921 93.3369 88.2893 92.2844C87.6673 92.0631 87.0643 91.7916 86.4863 91.4725C86.3619 91.033 86.2611 90.5871 86.1842 90.1368C85.6603 86.9933 86.1842 83.1653 87.7371 79.0542C90.5974 71.3984 96.5068 63.6198 104.37 57.1393C112.234 50.6587 121.004 46.3541 129.065 45.0089C134.366 44.1215 138.727 44.6218 141.809 46.3493C141.957 46.8633 142.069 47.3869 142.145 47.9164C142.617 51.0127 142.064 54.7604 140.563 58.7724C137.694 66.4235 131.789 74.2068 123.925 80.6873C116.062 87.1679 107.311 91.482 99.2492 92.8177Z" fill="#455A64"/>
<path opacity="0.1" d="M138.774 83.9961L130.75 74.2209C128.634 76.5373 126.354 78.6998 123.93 80.6921C123.458 81.0933 122.958 81.485 122.467 81.8673L130.453 91.6141C133.424 89.299 136.207 86.7517 138.774 83.9961ZM137.127 65.791C136.151 67.3908 135.089 68.9365 133.946 70.4213L142.003 80.2484C143.178 78.771 144.273 77.2606 145.274 75.7219L137.127 65.791Z" fill="white"/>
<path d="M80.0674 92.1145L85.0847 98.2505C88.9457 102.942 95.9077 105.085 105.06 103.556C105.409 103.499 105.758 103.424 106.112 103.358L101.067 97.1838L100.009 97.3726C90.8903 98.9019 83.9472 96.7779 80.0674 92.1145Z" fill="#37474F"/>
<path d="M124.317 39.0335C116.26 40.3834 107.481 44.6975 99.6221 51.1686C91.7633 57.6397 85.8349 65.4419 83.0029 73.0788C81.4642 77.1899 80.9309 81.0226 81.4548 84.1661C81.4878 84.3643 81.5256 84.5626 81.5728 84.7514C81.846 86.1682 82.4302 87.5068 83.2831 88.6707C84.136 89.8346 85.2365 90.7948 86.5052 91.4821C86.3808 91.0425 86.28 90.5967 86.2031 90.1463C85.6792 87.0028 86.2031 83.1749 87.756 79.0638C90.6163 71.4079 96.5257 63.6294 104.389 57.1488C112.253 50.6683 121.023 46.3636 129.084 45.0184C134.385 44.1311 138.746 44.6314 141.828 46.3589C141.455 44.9963 140.79 43.7309 139.88 42.6504C138.969 41.5698 137.835 40.6997 136.556 40.1002C133.507 38.5992 129.32 38.198 124.317 39.0335Z" fill="#263238"/>
<path d="M123.557 34.4786C105.263 37.5325 85.1601 54.0902 78.6559 71.4598C72.1518 88.8294 81.7145 100.436 100.009 97.3821C118.304 94.3282 138.406 77.7705 144.911 60.4009C151.415 43.0313 141.852 31.4248 123.557 34.4786ZM99.6222 51.1686C107.486 44.6738 116.255 40.3786 124.317 39.0334C134.286 37.372 140.946 40.6052 142.131 47.6946C142.146 47.7693 142.157 47.845 142.164 47.9212C142.636 51.0222 142.083 54.7699 140.582 58.7772C137.717 66.4283 131.808 74.2116 123.944 80.6874C116.081 87.1633 107.311 91.4773 99.2493 92.8178C94.9069 93.54 91.1923 93.337 88.2895 92.2845C84.5135 90.9298 82.1063 88.1545 81.436 84.1566C80.9121 81.0131 81.436 77.1805 82.9842 73.0693C85.8351 65.4418 91.7587 57.6444 99.6222 51.1686Z" fill="#37474F"/>
<path d="M124.492 86.1437C119.78 89.6554 114.627 92.5339 109.166 94.7058C106.436 95.7701 103.612 96.5761 100.732 97.113C97.8587 97.6634 94.9245 97.8222 92.009 97.585C89.0906 97.3823 86.2564 96.5188 83.7207 95.0598C81.2001 93.5532 79.2182 91.2906 78.0567 88.5934C76.9392 85.881 76.4939 82.9387 76.7587 80.0172C76.9831 77.0887 77.6187 74.2064 78.6467 71.4551C77.5661 74.196 76.875 77.0749 76.5935 80.0077C76.3079 82.9599 76.7386 85.9375 77.849 88.6878C79.0131 91.4347 81.0109 93.7462 83.5602 95.2958C86.1275 96.8019 89.0038 97.7041 91.9713 97.9343C94.9186 98.1502 97.8816 97.9645 100.779 97.382C103.673 96.8222 106.507 95.9926 109.246 94.904C111.98 93.8166 114.631 92.5342 117.181 91.0667C119.716 89.5761 122.157 87.932 124.492 86.1437Z" fill="#455A64"/>
<path opacity="0.3" d="M126.635 41.9646C118.578 43.3098 109.799 47.6286 101.94 54.095C94.081 60.5614 88.1668 68.3588 85.3018 76.0099C83.7631 80.1163 83.2297 83.949 83.7536 87.0972C83.9327 88.2156 84.2829 89.2997 84.792 90.3115C85.8268 91.1806 87.0123 91.8526 88.2895 92.2939C91.1923 93.3465 94.8975 93.5494 99.2494 92.8273C107.311 91.4821 116.081 87.1633 123.944 80.6969C131.808 74.2305 137.713 66.433 140.587 58.7819C142.088 54.7699 142.636 51.0222 142.168 47.9259C142.162 47.8482 142.151 47.7709 142.135 47.6946C141.956 46.5747 141.606 45.489 141.097 44.4756C137.986 41.8418 132.983 40.8978 126.635 41.9646Z" fill="white"/>
<path d="M81.0347 84.2792C81.2521 85.723 81.7543 87.1092 82.512 88.3573C83.2946 89.6018 84.3462 90.655 85.5895 91.4395C86.8413 92.2099 88.2134 92.7651 89.6487 93.082C91.0792 93.4112 92.5421 93.579 94.01 93.5824C96.9385 93.5623 99.8519 93.1593 102.676 92.3835C105.501 91.6312 108.252 90.6216 110.893 89.3674C113.541 88.1268 116.088 86.6829 118.511 85.0486C120.949 83.4276 123.278 81.6491 125.483 79.7244C129.921 75.9006 133.775 71.4481 136.924 66.5084C138.481 64.0181 139.771 61.3715 140.776 58.6119C141.823 55.8409 142.362 52.9036 142.366 49.9412C142.349 48.4398 142.083 46.9516 141.578 45.5375C141.053 44.1084 140.211 42.8173 139.114 41.7615C138.571 41.2368 137.969 40.776 137.321 40.388C136.682 39.9969 136.007 39.6681 135.305 39.4062C133.909 38.8943 132.45 38.5766 130.968 38.4622C128.019 38.2508 125.055 38.4928 122.179 39.1796C119.33 39.8275 116.55 40.7523 113.881 41.9408C111.225 43.1228 108.666 44.5099 106.225 46.0897C103.777 47.6602 101.439 49.3949 99.2255 51.2817C103.742 47.6381 108.741 44.6361 114.079 42.3609C116.736 41.2291 119.496 40.3566 122.321 39.7555C125.126 39.1316 128.01 38.9374 130.873 39.1796C132.286 39.3042 133.676 39.6218 135.003 40.1236C136.317 40.6162 137.52 41.3673 138.538 42.3326C139.541 43.3054 140.309 44.4933 140.785 45.8065C141.253 47.1335 141.496 48.5295 141.503 49.9365C141.478 52.7949 140.943 55.6259 139.921 58.2956C138.924 60.9897 137.649 63.5728 136.117 66.0034C133.036 70.8851 129.26 75.2913 124.907 79.0825C120.583 82.9145 115.767 86.1526 110.587 88.7113C108 89.9888 105.301 91.0253 102.525 91.8076C99.7609 92.6075 96.9053 93.047 94.0288 93.1151C92.5902 93.1495 91.1523 93.0196 89.7431 92.728C88.3317 92.4542 86.9768 91.9435 85.7358 91.2176C84.4991 90.476 83.443 89.4683 82.6442 88.2676C81.8518 87.0563 81.305 85.7012 81.0347 84.2792Z" fill="#455A64"/>
<path opacity="0.1" d="M217.82 168.947L151.976 57.0828C151.824 60.3402 151.142 63.551 149.956 66.5888C143.452 83.9584 123.35 100.516 105.05 103.57C95.9029 105.099 88.9408 102.956 85.0799 98.2648L83.0031 95.6971L80.728 180.898C80.4826 191.461 87.336 202.067 101.293 210.129C128.73 225.969 173.216 225.969 200.654 210.129C219.944 198.985 225.67 182.97 217.82 168.947Z" fill="#F7921E"/>
<path opacity="0.2" d="M150.966 222.009C189.768 222.009 221.223 203.848 221.223 181.445C221.223 159.043 189.768 140.882 150.966 140.882C112.164 140.882 80.709 159.043 80.709 181.445C80.709 203.848 112.164 222.009 150.966 222.009Z" fill="#F5F5F5"/>
<path d="M126.259 205.993C126.259 205.993 119.853 201.848 119.025 201.822L100.81 201.25L108.052 205.104V205.421L126.259 205.993Z" fill="#B96D16"/>
<path d="M95.0337 218.48V207.04L126.255 168.224V183.36L108.048 205.069V205.386L126.255 205.958V221.093L95.0337 218.48Z" fill="#FDDEBB"/>
<path d="M126.257 168.259L119.024 164.088L87.7939 202.903L95.0361 207.075L126.257 168.259Z" fill="#F7921E"/>
<path d="M87.7939 202.904V214.308L95.0361 218.479V207.075L87.7939 202.904Z" fill="#FABE78"/>
<path d="M145.159 213.63L135.479 219.227L159.643 130.658L168.989 125.264L145.159 213.63Z" fill="#FDDEBB"/>
<path d="M168.981 125.264L161.739 121.093L152.394 126.487L159.627 130.658L168.981 125.264Z" fill="#F7921E"/>
<path d="M152.392 126.487L159.625 130.658L135.47 219.227L128.228 215.056L152.392 126.487Z" fill="#FABE78"/>
<path d="M170.952 171.841L178.185 176.012L196.392 154.101L189.158 149.929L170.952 171.841Z" fill="#B96D16"/>
<path d="M196.387 154.1L178.18 153.414V138.279L209.401 141.042V152.481L178.18 191.2V176.012L196.387 154.417V154.1Z" fill="#FDDEBB"/>
<path d="M170.952 134.108L178.185 138.279L209.415 141.042L202.173 136.871L170.952 134.108Z" fill="#F7921E"/>
<path d="M178.185 138.279V153.414L170.952 149.243V134.108" fill="#FABE78"/>
<path d="M170.952 171.841L178.185 176.012V191.148L170.952 186.977V171.841Z" fill="#FABE78"/>
</svg>
