<svg width="256" height="256" viewBox="0 0 256 256" fill="none" xmlns="http://www.w3.org/2000/svg">
<path d="M127.957 111.299C155.703 111.299 183.423 117.291 204.752 129.248L205.763 129.822C227.226 142.164 237.842 158.268 237.841 174.268C237.84 190.268 227.221 206.372 205.758 218.714C184.298 231.055 156.139 237.239 127.953 237.239C99.767 237.238 71.6076 231.053 50.1475 218.714C28.6843 206.374 18.0661 190.269 18.0654 174.268C18.0648 158.267 28.6819 142.162 50.1475 129.822C71.61 117.483 99.7702 111.299 127.957 111.299Z" stroke="#D5D5D5"/>
<path d="M63.1562 205.398L64.334 211.246L65.4791 211.909L66.6159 211.255L67.806 205.398L65.4791 204.057L63.1562 205.398Z" fill="#455A64"/>
<path d="M65.4791 211.909V206.74L63.1562 205.398L64.334 211.246L65.4791 211.909Z" fill="#37474F"/>
<path opacity="0.2" d="M63.1562 205.398L63.9169 209.177L65.4791 210.081L67.0371 209.181L67.806 205.398L65.4791 204.057L63.1562 205.398Z" fill="black"/>
<path d="M100.121 184.06L101.298 189.908L102.443 190.57L103.58 189.912L104.77 184.06L102.443 182.714L100.121 184.06Z" fill="#455A64"/>
<path d="M102.443 190.57V185.401L100.121 184.06L101.298 189.907L102.443 190.57Z" fill="#37474F"/>
<path opacity="0.2" d="M100.121 184.06L100.881 187.834L102.443 188.738L104.001 187.838L104.77 184.06L102.443 182.714L100.121 184.06Z" fill="black"/>
<path d="M37.7563 190.733L38.9341 196.585L40.0792 197.244L41.216 196.59L42.406 190.733L40.0792 189.392L37.7563 190.733Z" fill="#455A64"/>
<path d="M40.0792 197.244V192.075L37.7563 190.733L38.9341 196.585L40.0792 197.244Z" fill="#37474F"/>
<path opacity="0.2" d="M37.7563 190.733L38.517 194.512L40.0792 195.416L41.6372 194.516L42.406 190.733L40.0792 189.392L37.7563 190.733Z" fill="black"/>
<path d="M65.4791 208.159L37.54 192.026V150.231L65.4791 166.364V208.159Z" fill="#263238"/>
<path d="M65.479 166.365L106.12 142.899V184.694L65.479 208.159V166.365Z" fill="#37474F"/>
<path d="M106.12 142.899L65.4791 166.364L37.54 150.231L78.181 126.766L106.12 142.899Z" fill="#455A64"/>
<path d="M69.2168 186.758L102.386 167.607L102.382 180.939L103.073 181.336L69.9038 200.487L69.2168 200.09V186.758Z" fill="#263238"/>
<path d="M69.9038 187.155L103.073 168.004V181.336L69.9038 200.487V187.155Z" fill="#455A64"/>
<path d="M85.2192 181.823L90.2983 178.878C90.9567 178.494 91.4924 178.67 91.4924 179.287C91.4432 179.654 91.3098 180.004 91.1027 180.311C90.8955 180.617 90.6202 180.871 90.2983 181.054L85.2151 183.986C84.5567 184.366 84.021 184.194 84.021 183.577C84.0721 183.212 84.2068 182.864 84.4147 182.559C84.6225 182.255 84.8979 182.003 85.2192 181.823Z" fill="#263238"/>
<path d="M69.2168 169.121L102.386 149.97L102.382 163.302L103.073 163.699L69.9038 182.845L69.2168 182.449V169.121Z" fill="#263238"/>
<path d="M69.9038 169.517L103.073 150.366V163.698L69.9038 182.845V169.517Z" fill="#455A64"/>
<path d="M85.2192 164.181L90.2983 161.249C90.9567 160.869 91.4924 161.04 91.4924 161.637C91.4439 162.004 91.3107 162.355 91.1035 162.661C90.8962 162.968 90.6206 163.222 90.2983 163.404L85.2151 166.34C84.5567 166.721 84.021 166.545 84.021 165.952C84.07 165.584 84.2038 165.233 84.4117 164.925C84.6196 164.618 84.896 164.363 85.2192 164.181Z" fill="#263238"/>
<path d="M43.2817 149.127L65.3934 161.895L99.7897 142.032L77.6781 129.269L43.2817 149.127Z" fill="#263238"/>
<path d="M65.3934 161.895L43.2817 149.127V150.252C43.2949 150.479 43.3609 150.699 43.4745 150.896C43.5881 151.093 43.7462 151.26 43.936 151.385L64.7391 163.396C64.9381 163.51 65.1637 163.57 65.3934 163.57C65.623 163.57 65.8486 163.51 66.0477 163.396L65.3934 163.019V161.895Z" fill="#263238"/>
<path d="M99.7733 142.032V143.161C99.7614 143.389 99.696 143.61 99.5823 143.808C99.4686 144.005 99.3098 144.173 99.119 144.298L66.0313 163.4C65.6714 163.608 65.377 163.441 65.377 163.023V161.895L99.7733 142.032Z" fill="#37474F"/>
<path d="M99.1233 141.464C99.3231 141.334 99.4894 141.159 99.6088 140.953C99.7282 140.747 99.7973 140.516 99.8104 140.278L99.7899 136.597L77.9441 123.985L72.1616 127.351V131.8L94.0483 144.404L99.1233 141.464Z" fill="#F7921E"/>
<path opacity="0.7" d="M99.1233 141.464C99.3231 141.334 99.4894 141.159 99.6088 140.953C99.7282 140.747 99.7973 140.516 99.8104 140.278L99.7899 136.597L77.9441 123.985L72.1616 127.351V131.8L94.0483 144.404L99.1233 141.464Z" fill="white"/>
<path d="M72.1616 127.343L72.1821 131.792L94.0279 144.404L94.0115 139.955L72.1616 127.343Z" fill="#F7921E"/>
<path opacity="0.3" d="M72.1616 127.343L72.1821 131.792L94.0279 144.404L94.0115 139.955L72.1616 127.343Z" fill="black"/>
<path d="M72.1616 127.343L77.9441 124.006L99.7899 136.618L94.0115 139.955L72.1616 127.343Z" fill="#F7921E"/>
<path opacity="0.15" d="M72.1616 127.343L77.9441 124.006L99.7899 136.618L94.0115 139.955L72.1616 127.343Z" fill="black"/>
<path d="M45.8335 149.23L59.9707 157.392V154.423L45.8335 146.261V149.23Z" fill="#F7921E"/>
<path opacity="0.15" d="M45.8335 149.23L59.9707 157.392V154.423L45.8335 146.261V149.23Z" fill="black"/>
<path d="M65.7941 160.705L92.6985 145.165C92.8988 145.036 93.0655 144.861 93.1849 144.655C93.3043 144.448 93.3731 144.217 93.3856 143.979V140.298L71.5561 127.711L43.2612 144.036V147.696C43.2737 147.934 43.3425 148.166 43.4619 148.372C43.5813 148.578 43.748 148.753 43.9483 148.882L45.8335 149.97V147.745L59.9707 155.924V158.149L64.4241 160.721C64.6374 160.827 64.8728 160.881 65.1111 160.878C65.3493 160.875 65.5834 160.816 65.7941 160.705Z" fill="#F7921E"/>
<path opacity="0.5" d="M65.7941 160.705L92.6985 145.165C92.8988 145.036 93.0655 144.861 93.1849 144.655C93.3043 144.448 93.3731 144.217 93.3856 143.979V140.298L71.5561 127.711L43.2612 144.036V147.696C43.2737 147.934 43.3425 148.166 43.4619 148.372C43.5813 148.578 43.748 148.753 43.9483 148.882L45.8335 149.97V147.745L59.9707 155.924V158.149L64.4241 160.721C64.6374 160.827 64.8728 160.881 65.1111 160.878C65.3493 160.875 65.5834 160.816 65.7941 160.705Z" fill="white"/>
<path d="M65.1111 156.648L93.3856 140.327L71.5357 127.711L43.2612 144.036L65.1111 156.648Z" fill="#F7921E"/>
<path opacity="0.15" d="M65.1111 156.648L93.3856 140.327L71.5357 127.711L43.2612 144.036L65.1111 156.648Z" fill="black"/>
<path d="M93.3858 140.327V144.776L65.7943 160.704C65.418 160.925 65.1113 160.745 65.1113 160.295V156.615L93.3858 140.327Z" fill="#F7921E"/>
<path opacity="0.7" d="M93.3858 140.327V144.776L65.7943 160.704C65.418 160.925 65.1113 160.745 65.1113 160.295V156.615L93.3858 140.327Z" fill="white"/>
<path d="M45.8335 149.97L46.4755 149.602V148.117L45.8335 147.745V149.97Z" fill="#F7921E"/>
<path opacity="0.35" d="M45.8335 149.97L46.4755 149.602V148.117L45.8335 147.745V149.97Z" fill="black"/>
<path d="M68.3212 156.28C68.677 156.075 68.9674 156.239 68.9674 156.648C68.9549 156.872 68.8899 157.089 68.7776 157.283C68.6654 157.477 68.509 157.642 68.3212 157.764C67.9695 157.969 67.6792 157.801 67.6792 157.392C67.6919 157.17 67.7565 156.953 67.868 156.76C67.9795 156.567 68.1348 156.402 68.3212 156.28Z" fill="#455A64"/>
<path d="M90.8134 143.3V144.044C90.8134 144.453 90.1999 145.14 89.4434 145.578L72.9057 155.118C72.1491 155.568 71.5562 155.568 71.5562 155.159V154.423L90.8134 143.3Z" fill="#455A64"/>
<path d="M65.1111 153.401V155.626L43.2612 143.014V133.367L58.6825 142.269C60.6369 143.397 62.2599 145.02 63.3883 146.974C64.5168 148.928 65.111 151.144 65.1111 153.401Z" fill="#37474F"/>
<path d="M93.3815 122.235L77.9602 113.333L74.1038 115.561L43.2612 133.367L58.6825 142.269C60.6363 143.398 62.2589 145.021 63.3873 146.975C64.5156 148.928 65.1102 151.145 65.1111 153.401V155.626L95.9537 137.82L99.8101 135.6V133.375C99.8114 131.117 99.2179 128.899 98.0893 126.943C96.9608 124.988 95.337 123.364 93.3815 122.235Z" fill="#455A64"/>
<path d="M94.6659 136.348C94.667 134.092 94.0737 131.875 92.9459 129.921C91.8181 127.967 90.1955 126.344 88.2413 125.216L72.82 116.31L49.686 129.658L65.1073 138.56C67.0658 139.685 68.6931 141.307 69.8253 143.261C70.9575 145.215 71.5546 147.433 71.5564 149.692L94.6659 136.348Z" fill="#F7921E"/>
<path opacity="0.5" d="M94.6659 136.348C94.667 134.092 94.0737 131.875 92.9459 129.921C91.8181 127.967 90.1955 126.344 88.2413 125.216L72.82 116.31L49.686 129.658L65.1073 138.56C67.0658 139.685 68.6931 141.307 69.8253 143.261C70.9575 145.215 71.5546 147.433 71.5564 149.692L94.6659 136.348Z" fill="white"/>
<path d="M70.2474 128.169C68.8283 128.987 68.8283 130.316 70.2474 131.138C71.0449 131.541 71.926 131.751 72.8196 131.751C73.7133 131.751 74.5944 131.541 75.3919 131.138C76.8109 130.32 76.8109 128.987 75.3919 128.169C74.595 127.764 73.7136 127.553 72.8196 127.553C71.9257 127.553 71.0443 127.764 70.2474 128.169Z" fill="#FAFAFA"/>
<path d="M69.1392 148.285L97.8512 131.71V134.422L69.1392 150.996V148.285Z" fill="#F7921E"/>
<path d="M70.2886 148.318V149.643L96.7023 134.393V133.064L70.2886 148.318Z" fill="#263238"/>
<path d="M69.1393 148.285L68.5586 147.95L97.2706 131.371L97.8513 131.711L69.1393 148.285Z" fill="#F7921E"/>
<path opacity="0.15" d="M69.1393 148.285L68.5586 147.95L97.2706 131.371L97.8513 131.711L69.1393 148.285Z" fill="black"/>
<path d="M68.5586 147.95L69.1393 148.285V150.996L68.5586 150.661V147.95Z" fill="#F7921E"/>
<path opacity="0.3" d="M68.5586 147.95L69.1393 148.285V150.996L68.5586 150.661V147.95Z" fill="black"/>
<path d="M49.4321 133.121L78.1073 116.567L79.51 117.381L50.843 133.935L49.4321 133.121Z" fill="#263238"/>
<path d="M50.099 133.514L45.981 115.295L74.6521 98.7412L78.7701 116.96L50.099 133.514Z" fill="#37474F"/>
<path d="M45.981 115.295L45.3145 114.907L49.4325 133.121L50.0991 133.514L45.981 115.295Z" fill="#263238"/>
<path d="M45.3145 114.907L45.981 115.295L74.6521 98.741L73.9896 98.3525L45.3145 114.907Z" fill="#455A64"/>
<path d="M50.929 133.031L45.9521 111.001L72.2105 95.8418L77.1914 117.872L50.929 133.031Z" fill="#E0E0E0"/>
<path d="M51.6606 133.461L46.6797 111.431L72.9421 96.2715L77.919 118.301L51.6606 133.461Z" fill="#FAFAFA"/>
<path d="M46.6801 111.431L45.9521 111.001L51.1008 133.788L51.661 133.461L46.6801 111.431Z" fill="#E0E0E0"/>
<path d="M45.9521 111.001L46.6801 111.431L72.9425 96.2712L72.2105 95.8418L45.9521 111.001Z" fill="#EBEBEB"/>
<path d="M65.5694 141.095V140.875C65.5668 140.822 65.5493 140.772 65.5189 140.729C65.4884 140.686 65.4463 140.653 65.3976 140.633L64.9314 140.363C64.8041 140.301 64.6642 140.269 64.5225 140.269C64.3807 140.269 64.2408 140.301 64.1135 140.363L62.351 141.382C62.3036 141.403 62.2627 141.437 62.2325 141.479C62.2024 141.522 62.184 141.571 62.1792 141.623V141.852C62.1849 141.903 62.2038 141.951 62.2339 141.992C62.2641 142.032 62.3044 142.065 62.351 142.085L62.8172 142.355C62.9439 142.419 63.084 142.453 63.2261 142.453C63.3682 142.453 63.5083 142.419 63.635 142.355L65.3976 141.337C65.4447 141.316 65.4854 141.283 65.5156 141.241C65.5457 141.2 65.5643 141.151 65.5694 141.1V141.095Z" fill="#263238"/>
<path d="M62.8047 142.13L62.3385 141.86C62.2889 141.843 62.246 141.81 62.2156 141.768C62.1853 141.725 62.1689 141.674 62.1689 141.621C62.1689 141.568 62.1853 141.517 62.2156 141.474C62.246 141.432 62.2889 141.399 62.3385 141.382L64.1011 140.363C64.2283 140.301 64.3682 140.269 64.51 140.269C64.6518 140.269 64.7917 140.301 64.9189 140.363L65.3851 140.633C65.4347 140.651 65.4776 140.683 65.508 140.726C65.5384 140.769 65.5547 140.82 65.5547 140.873C65.5547 140.925 65.5384 140.976 65.508 141.019C65.4776 141.062 65.4347 141.094 65.3851 141.112L63.6226 142.13C63.4959 142.194 63.3558 142.228 63.2136 142.228C63.0715 142.228 62.9314 142.194 62.8047 142.13Z" fill="#37474F"/>
<path d="M63.2464 141.942C63.1229 141.944 63.0008 141.916 62.8906 141.86C62.8201 141.822 62.7662 141.76 62.7393 141.684C62.727 141.63 62.7358 141.573 62.7638 141.525C62.7672 141.521 62.7714 141.519 62.7759 141.517C62.7805 141.515 62.7854 141.514 62.7904 141.514C62.7954 141.514 62.8003 141.515 62.8048 141.517C62.8094 141.519 62.8135 141.521 62.817 141.525C62.8205 141.528 62.8232 141.532 62.8252 141.536C62.8271 141.54 62.828 141.545 62.828 141.55C62.828 141.554 62.8271 141.559 62.8252 141.563C62.8232 141.567 62.8205 141.571 62.817 141.574C62.8051 141.607 62.8051 141.643 62.817 141.676C62.8272 141.704 62.8429 141.73 62.8633 141.752C62.8837 141.774 62.9083 141.791 62.9356 141.803C63.0328 141.854 63.1408 141.88 63.2505 141.88C63.3601 141.88 63.4681 141.854 63.5653 141.803C63.5975 141.789 63.6255 141.767 63.6463 141.739C63.6672 141.711 63.6802 141.678 63.6839 141.644C63.679 141.609 63.6656 141.577 63.6449 141.549C63.6242 141.521 63.5968 141.499 63.5653 141.484C63.4223 141.413 63.2598 141.392 63.1032 141.423C63.0984 141.424 63.0934 141.424 63.0884 141.423C63.0835 141.423 63.0788 141.421 63.0746 141.418C63.0704 141.415 63.0668 141.412 63.064 141.408C63.0612 141.404 63.0592 141.399 63.0583 141.394C63.0571 141.389 63.0568 141.384 63.0576 141.379C63.0584 141.374 63.0602 141.37 63.0629 141.365C63.0656 141.361 63.0691 141.358 63.0732 141.355C63.0773 141.352 63.082 141.35 63.0869 141.349C63.2615 141.312 63.4435 141.337 63.6021 141.419C63.6465 141.438 63.6847 141.47 63.7128 141.509C63.7408 141.549 63.7577 141.595 63.7616 141.644C63.758 141.693 63.7413 141.74 63.7132 141.78C63.6852 141.82 63.6468 141.852 63.6021 141.873C63.4909 141.924 63.3688 141.948 63.2464 141.942Z" fill="#FAFAFA"/>
<path d="M63.2627 141.664L62.8292 141.411C62.8232 141.404 62.8198 141.395 62.8198 141.386C62.8198 141.377 62.8232 141.369 62.8292 141.362C62.8366 141.356 62.846 141.352 62.8558 141.352C62.8655 141.352 62.875 141.356 62.8824 141.362L63.3158 141.615C63.3219 141.622 63.3252 141.631 63.3252 141.64C63.3252 141.649 63.3219 141.658 63.3158 141.664C63.3084 141.671 63.299 141.674 63.2893 141.674C63.2795 141.674 63.2701 141.671 63.2627 141.664Z" fill="#FAFAFA"/>
<path d="M60.4859 141.635L64.3627 139.386C64.4812 139.321 64.4772 139.21 64.3627 139.141L62.1135 137.84C62.0494 137.81 61.9796 137.795 61.909 137.795C61.8383 137.795 61.7685 137.81 61.7045 137.84L57.8277 140.085C57.7091 140.155 57.7091 140.265 57.8277 140.331L60.0769 141.631C60.1403 141.663 60.2101 141.68 60.2809 141.681C60.3518 141.681 60.4219 141.666 60.4859 141.635Z" fill="#263238"/>
<path d="M62.1139 138.163C62.0502 138.132 61.9803 138.116 61.9094 138.116C61.8385 138.116 61.7686 138.132 61.7049 138.163L57.8936 140.372L60.0773 141.635C60.1437 141.67 60.2173 141.688 60.292 141.688C60.3667 141.688 60.4404 141.67 60.5067 141.635L64.3181 139.427L62.1139 138.163Z" fill="#F7921E"/>
<g opacity="0.4">
<path d="M59.1488 140.478C59.25 140.416 59.3656 140.38 59.4844 140.375C59.6033 140.37 59.7215 140.396 59.8276 140.449C60.028 140.568 60.0198 140.727 59.8031 140.858L59.6149 140.969L59.8644 141.112L59.7008 141.206L58.793 140.682L59.1488 140.478ZM59.5577 140.92L59.6967 140.846C59.844 140.76 59.8276 140.662 59.6558 140.56C59.5843 140.517 59.5023 140.494 59.4187 140.494C59.335 140.494 59.253 140.517 59.1815 140.56L59.0302 140.646L59.5577 140.92Z" fill="black"/>
<path d="M59.6519 140.183L60.0281 139.966C60.1152 139.911 60.2146 139.879 60.3174 139.872C60.4202 139.864 60.5231 139.883 60.617 139.926C60.6467 139.935 60.673 139.953 60.6929 139.977C60.7128 140.001 60.7255 140.03 60.7293 140.061C60.7332 140.092 60.7281 140.123 60.7148 140.152C60.7014 140.18 60.6802 140.203 60.6538 140.22C60.7121 140.212 60.7713 140.212 60.8296 140.22L61.2754 140.253L61.1731 140.388L60.7642 140.339C60.6503 140.31 60.53 140.323 60.4248 140.375L60.3716 140.404L60.7437 140.617L60.5761 140.715L59.6519 140.183ZM59.8931 140.13L60.3021 140.355L60.4943 140.245C60.5965 140.183 60.5842 140.097 60.4657 140.028C60.41 139.992 60.3455 139.974 60.2796 139.974C60.2137 139.974 60.1492 139.992 60.0935 140.028L59.8931 140.13Z" fill="black"/>
<path d="M60.6905 139.582L61.5984 140.105L61.4307 140.204L60.5146 139.68L60.6905 139.582Z" fill="black"/>
<path d="M61.014 139.398L62.1182 139.504H62.1591L61.8851 139.349C61.7624 139.28 61.5375 139.177 61.4761 139.136L61.5947 139.067L62.5026 139.59L62.3881 139.656L61.2635 139.549H61.2022L61.5007 139.725L61.9096 139.95L61.7992 140.012C61.7338 139.975 61.5457 139.848 61.4271 139.778L60.9077 139.48L61.014 139.398Z" fill="black"/>
<path d="M62.4818 138.552L62.5718 138.605C62.5145 138.638 62.3428 138.715 62.2569 138.764L63.0748 139.247L62.9071 139.341L62.0892 138.863C62.0034 138.912 61.8725 139.01 61.8112 139.042L61.7212 138.989L62.4818 138.552Z" fill="black"/>
</g>
<path d="M77.7558 176.363V160.357C77.7569 158.52 77.3898 156.701 76.6762 155.008C76.4526 154.481 76.1972 153.967 75.9114 153.471C74.7026 151.376 72.9635 149.637 70.8691 148.428V149.087C72.7979 150.269 74.3917 151.925 75.4985 153.898C76.6053 155.871 77.1881 158.095 77.1914 160.357V176.363C77.1963 178.879 77.8608 181.35 79.1187 183.53C80.3765 185.709 82.1838 187.52 84.3602 188.783L84.6465 188.947V188.284C82.553 187.076 80.8142 185.339 79.6046 183.247C78.3951 181.154 77.7575 178.78 77.7558 176.363Z" fill="#E0E0E0"/>
<path d="M70.8652 148.428C72.9597 149.636 74.699 151.375 75.9079 153.469C77.1169 155.563 77.7529 157.939 77.7519 160.357V176.363C77.7535 178.78 78.3912 181.154 79.6007 183.246C80.8102 185.339 82.5491 187.076 84.6426 188.284L109.907 173.705C107.812 172.496 106.072 170.757 104.863 168.662C103.653 166.567 103.016 164.191 103.016 161.772V145.782C103.018 143.364 102.382 140.987 101.173 138.892C99.9641 136.798 98.2246 135.058 96.1298 133.849L70.8652 148.428Z" fill="#FAFAFA"/>
<path opacity="0.4" d="M75.8993 148.951C75.8683 148.951 75.8385 148.94 75.8143 148.92C75.7901 148.901 75.7727 148.875 75.7649 148.845C75.7571 148.815 75.7592 148.783 75.7709 148.754C75.7825 148.726 75.8032 148.702 75.8298 148.686L96.3792 136.826C96.3954 136.814 96.4139 136.805 96.4337 136.801C96.4534 136.796 96.474 136.796 96.4939 136.8C96.5138 136.804 96.5326 136.812 96.5491 136.823C96.5657 136.835 96.5795 136.85 96.5897 136.868C96.5999 136.885 96.6063 136.905 96.6084 136.925C96.6106 136.945 96.6084 136.966 96.602 136.985C96.5956 137.004 96.5852 137.022 96.5715 137.037C96.5578 137.052 96.541 137.064 96.5224 137.072L75.9729 148.931C75.9503 148.943 75.9251 148.95 75.8993 148.951Z" fill="black"/>
<path opacity="0.4" d="M76.7537 149.867C76.7219 149.869 76.6905 149.86 76.6645 149.842C76.6386 149.824 76.6198 149.797 76.6112 149.766C76.6025 149.736 76.6047 149.703 76.6172 149.674C76.6298 149.644 76.652 149.62 76.6801 149.606L97.2623 137.726C97.2943 137.707 97.3325 137.701 97.3685 137.71C97.4046 137.72 97.4355 137.743 97.4545 137.775C97.4734 137.807 97.4789 137.845 97.4697 137.881C97.4605 137.917 97.4374 137.948 97.4054 137.967L76.8232 149.843C76.8023 149.856 76.7785 149.865 76.7537 149.867Z" fill="black"/>
<path opacity="0.4" d="M77.5433 151.012C77.5124 151.012 77.4826 151.001 77.4583 150.981C77.4341 150.962 77.4168 150.936 77.409 150.906C77.4011 150.876 77.4032 150.844 77.4149 150.815C77.4266 150.787 77.4473 150.763 77.4738 150.747L98.056 138.887C98.072 138.878 98.0898 138.872 98.1082 138.869C98.1267 138.867 98.1454 138.868 98.1633 138.873C98.1812 138.878 98.198 138.887 98.2126 138.898C98.2271 138.91 98.2393 138.924 98.2482 138.94C98.2661 138.973 98.2705 139.011 98.2606 139.047C98.2507 139.083 98.2271 139.114 98.195 139.133L77.6128 151.012C77.59 151.018 77.5661 151.018 77.5433 151.012Z" fill="black"/>
<path opacity="0.4" d="M78.2302 152.211C78.1988 152.212 78.168 152.202 78.1429 152.184C78.1177 152.165 78.0996 152.138 78.0916 152.108C78.0835 152.077 78.086 152.045 78.0985 152.016C78.111 151.988 78.1329 151.964 78.1606 151.949L98.7428 140.09C98.7589 140.08 98.7766 140.074 98.7951 140.072C98.8135 140.07 98.8322 140.071 98.8502 140.076C98.8681 140.081 98.8848 140.089 98.8994 140.101C98.914 140.112 98.9261 140.127 98.935 140.143C98.9529 140.176 98.9574 140.214 98.9474 140.25C98.9375 140.286 98.914 140.316 98.8819 140.335L78.2997 152.215C78.2766 152.22 78.2526 152.218 78.2302 152.211Z" fill="black"/>
<path opacity="0.4" d="M78.8107 153.475C78.7857 153.474 78.7613 153.467 78.7398 153.454C78.7183 153.441 78.7005 153.423 78.688 153.401C78.6701 153.368 78.6657 153.33 78.6756 153.294C78.6855 153.258 78.709 153.228 78.7412 153.209L99.3233 141.329C99.3394 141.32 99.3572 141.314 99.3756 141.312C99.394 141.309 99.4126 141.311 99.4304 141.316C99.4483 141.321 99.465 141.329 99.4796 141.34C99.4942 141.352 99.5064 141.366 99.5155 141.382C99.5247 141.398 99.5305 141.416 99.5328 141.434C99.5351 141.453 99.5337 141.471 99.5288 141.489C99.5238 141.507 99.5154 141.524 99.504 141.538C99.4926 141.553 99.4785 141.565 99.4624 141.574L78.8843 153.434C78.8636 153.453 78.8383 153.467 78.8107 153.475Z" fill="black"/>
<path opacity="0.4" d="M79.2892 154.791C79.2579 154.792 79.2271 154.782 79.202 154.764C79.1768 154.745 79.1587 154.718 79.1507 154.688C79.1426 154.657 79.145 154.625 79.1576 154.597C79.1701 154.568 79.192 154.544 79.2197 154.529L99.8019 142.67C99.8339 142.652 99.8719 142.647 99.9076 142.656C99.9432 142.666 99.9736 142.689 99.9921 142.721C100.011 142.753 100.015 142.791 100.006 142.827C99.9963 142.862 99.9729 142.893 99.941 142.911L79.3588 154.791C79.3362 154.799 79.3118 154.799 79.2892 154.791Z" fill="black"/>
<path opacity="0.4" d="M79.6613 156.169C79.6366 156.169 79.6123 156.163 79.5908 156.151C79.5693 156.138 79.5513 156.121 79.5386 156.1C79.5292 156.084 79.5231 156.066 79.5207 156.047C79.5183 156.029 79.5196 156.01 79.5246 155.992C79.5295 155.974 79.538 155.958 79.5496 155.943C79.5611 155.929 79.5754 155.916 79.5918 155.908L100.182 144.024C100.215 144.007 100.253 144.003 100.289 144.013C100.324 144.022 100.355 144.045 100.374 144.077C100.384 144.093 100.39 144.111 100.392 144.129C100.395 144.147 100.393 144.166 100.388 144.184C100.383 144.202 100.375 144.219 100.363 144.233C100.352 144.248 100.337 144.26 100.321 144.269L79.7349 156.149C79.7137 156.165 79.6875 156.172 79.6613 156.169Z" fill="black"/>
<path opacity="0.4" d="M79.9274 157.613C79.9027 157.613 79.8786 157.606 79.8572 157.594C79.8357 157.582 79.8177 157.564 79.8047 157.543C79.7868 157.511 79.7824 157.472 79.7923 157.437C79.8022 157.401 79.8257 157.37 79.8579 157.351L100.44 145.492C100.456 145.482 100.473 145.476 100.492 145.473C100.51 145.47 100.529 145.471 100.546 145.476C100.564 145.481 100.581 145.489 100.596 145.5C100.611 145.511 100.623 145.525 100.632 145.541C100.652 145.573 100.658 145.612 100.648 145.649C100.639 145.686 100.616 145.718 100.583 145.737L80.001 157.617C79.9765 157.621 79.9513 157.62 79.9274 157.613Z" fill="black"/>
<path opacity="0.4" d="M80.0912 159.102C80.0664 159.102 80.0419 159.096 80.0204 159.084C79.9988 159.071 79.9809 159.054 79.9685 159.032C79.9585 159.016 79.9519 158.998 79.9492 158.98C79.9465 158.961 79.9476 158.942 79.9526 158.924C79.9576 158.906 79.9664 158.889 79.9782 158.875C79.9901 158.86 80.0049 158.848 80.0216 158.84L100.592 146.981C100.607 146.971 100.625 146.965 100.643 146.963C100.661 146.961 100.68 146.962 100.697 146.967C100.715 146.971 100.731 146.98 100.746 146.991C100.76 147.002 100.773 147.016 100.782 147.032C100.791 147.047 100.797 147.065 100.799 147.083C100.802 147.101 100.8 147.12 100.796 147.137C100.791 147.155 100.783 147.172 100.771 147.186C100.76 147.201 100.746 147.213 100.731 147.222L80.1443 159.085C80.1279 159.094 80.1098 159.1 80.0912 159.102Z" fill="black"/>
<path opacity="0.4" d="M80.1442 160.66C80.1191 160.659 80.0946 160.652 80.073 160.639C80.0515 160.626 80.0338 160.608 80.0216 160.586C80.012 160.57 80.0057 160.553 80.003 160.534C80.0003 160.516 80.0012 160.497 80.0058 160.48C80.0104 160.462 80.0184 160.445 80.0296 160.43C80.0407 160.415 80.0547 160.403 80.0706 160.394L100.653 148.514C100.669 148.504 100.686 148.497 100.705 148.495C100.724 148.492 100.743 148.493 100.761 148.498C100.779 148.503 100.796 148.512 100.81 148.524C100.825 148.536 100.837 148.55 100.845 148.567C100.855 148.583 100.861 148.6 100.864 148.619C100.866 148.637 100.865 148.656 100.861 148.673C100.856 148.691 100.848 148.708 100.837 148.723C100.826 148.738 100.812 148.75 100.796 148.759L80.2138 160.619C80.1943 160.638 80.1704 160.652 80.1442 160.66Z" fill="black"/>
<path opacity="0.4" d="M80.0949 162.271C80.0702 162.271 80.0459 162.264 80.0244 162.252C80.0029 162.24 79.9849 162.222 79.9722 162.201C79.9628 162.185 79.9567 162.167 79.9543 162.149C79.9519 162.13 79.9532 162.112 79.9582 162.094C79.9631 162.076 79.9716 162.059 79.9832 162.044C79.9947 162.03 80.009 162.018 80.0254 162.009L100.591 150.129C100.607 150.119 100.625 150.113 100.643 150.11C100.661 150.108 100.68 150.109 100.698 150.113C100.715 150.118 100.732 150.126 100.747 150.137C100.762 150.148 100.774 150.162 100.783 150.178C100.793 150.194 100.799 150.212 100.801 150.231C100.804 150.25 100.803 150.269 100.798 150.287C100.793 150.306 100.784 150.323 100.773 150.338C100.761 150.353 100.747 150.365 100.73 150.374L80.148 162.254C80.1316 162.263 80.1135 162.269 80.0949 162.271Z" fill="black"/>
<path opacity="0.4" d="M80.6595 178.294C80.6243 178.294 80.5898 178.284 80.5596 178.266C80.5294 178.248 80.5045 178.222 80.4877 178.191C80.474 178.169 80.4651 178.144 80.4614 178.118C80.4577 178.092 80.4593 178.066 80.4662 178.041C80.4731 178.015 80.4851 177.992 80.5015 177.971C80.5178 177.951 80.5382 177.934 80.5613 177.922L88.9815 173.059C89.0278 173.034 89.0822 173.027 89.1333 173.041C89.1844 173.054 89.2282 173.087 89.2555 173.133C89.2692 173.155 89.2782 173.181 89.282 173.207C89.2857 173.233 89.2841 173.26 89.2772 173.285C89.2703 173.311 89.2583 173.335 89.2419 173.356C89.2256 173.377 89.2051 173.394 89.1819 173.407L80.7617 178.265C80.7312 178.284 80.6956 178.294 80.6595 178.294Z" fill="black"/>
<path opacity="0.4" d="M81.0477 179.5C81.003 179.5 80.9594 179.486 80.9239 179.459C80.8884 179.431 80.863 179.393 80.8517 179.35C80.8404 179.307 80.8439 179.261 80.8617 179.22C80.8794 179.179 80.9103 179.145 80.9495 179.124L89.3697 174.265C89.3924 174.252 89.4176 174.243 89.4438 174.239C89.4701 174.235 89.4968 174.237 89.5224 174.244C89.548 174.25 89.572 174.262 89.5928 174.279C89.6137 174.295 89.631 174.316 89.6437 174.339C89.6693 174.385 89.6759 174.44 89.6621 174.491C89.6484 174.542 89.6154 174.586 89.5701 174.613L81.1499 179.471C81.1192 179.49 81.0838 179.5 81.0477 179.5Z" fill="black"/>
<path opacity="0.4" d="M92.6578 171.771C92.6222 171.771 92.5872 171.761 92.5563 171.743C92.5255 171.725 92.4998 171.699 92.482 171.669C92.4564 171.622 92.4498 171.568 92.4635 171.517C92.4773 171.466 92.5103 171.422 92.5556 171.395L101 166.536C101.023 166.519 101.049 166.507 101.077 166.5C101.104 166.494 101.133 166.493 101.161 166.499C101.189 166.504 101.215 166.516 101.238 166.532C101.261 166.549 101.281 166.57 101.295 166.595C101.309 166.619 101.318 166.646 101.321 166.675C101.324 166.703 101.321 166.731 101.312 166.758C101.303 166.785 101.289 166.81 101.269 166.831C101.25 166.852 101.227 166.869 101.201 166.88L92.7764 171.742C92.7406 171.763 92.6993 171.773 92.6578 171.771Z" fill="black"/>
<path opacity="0.4" d="M93.046 172.973C93.0107 172.974 92.9758 172.965 92.9449 172.948C92.914 172.93 92.8882 172.905 92.8702 172.875C92.8446 172.828 92.838 172.774 92.8517 172.723C92.8655 172.672 92.8985 172.628 92.9438 172.601L101.368 167.742C101.39 167.729 101.415 167.721 101.441 167.717C101.466 167.713 101.492 167.715 101.517 167.721C101.543 167.728 101.566 167.739 101.587 167.754C101.607 167.77 101.625 167.79 101.638 167.812C101.665 167.858 101.673 167.912 101.66 167.963C101.647 168.015 101.614 168.059 101.568 168.086L93.1442 172.948C93.1138 172.964 93.0802 172.973 93.046 172.973Z" fill="black"/>
<path d="M83.3585 180.866L102.558 169.787C102.866 169.6 103.232 169.531 103.587 169.594C103.941 169.658 104.261 169.848 104.485 170.131C104.583 170.265 104.65 170.42 104.682 170.584C104.713 170.748 104.708 170.916 104.667 171.078C104.625 171.239 104.549 171.39 104.442 171.518C104.336 171.646 104.202 171.749 104.051 171.82L84.8307 182.902C84.5159 183.1 84.1415 183.181 83.773 183.131C83.4045 183.081 83.0653 182.903 82.8146 182.628C82.7232 182.48 82.6645 182.313 82.6425 182.14C82.6206 181.967 82.6359 181.791 82.6874 181.624C82.7388 181.457 82.8254 181.303 82.9411 181.172C83.0568 181.042 83.1992 180.937 83.3585 180.866Z" fill="#F7921E"/>
<path d="M80.1974 164.749C80.1647 164.75 80.1325 164.742 80.1043 164.725C80.0761 164.708 80.0532 164.684 80.038 164.655C80.0249 164.634 80.0162 164.611 80.0124 164.587C80.0086 164.563 80.0098 164.538 80.016 164.514C80.0221 164.491 80.033 164.468 80.048 164.449C80.0631 164.43 80.0819 164.413 80.1034 164.402L88.6217 159.494C88.6647 159.47 88.7153 159.464 88.7626 159.477C88.81 159.49 88.8504 159.521 88.8753 159.564C88.8991 159.607 88.9051 159.657 88.8921 159.705C88.8791 159.752 88.8481 159.793 88.8057 159.817L80.2915 164.725C80.2628 164.741 80.2304 164.749 80.1974 164.749Z" fill="#E0E0E0"/>
<path d="M80.1976 166.491C80.1654 166.492 80.1336 166.484 80.1055 166.468C80.0775 166.452 80.0542 166.429 80.0381 166.401C80.0126 166.358 80.0052 166.307 80.0175 166.259C80.0298 166.211 80.0607 166.169 80.1035 166.144L88.6218 161.236C88.643 161.224 88.6664 161.216 88.6907 161.213C88.7149 161.21 88.7395 161.212 88.763 161.219C88.7865 161.225 88.8086 161.236 88.8279 161.251C88.8472 161.266 88.8633 161.285 88.8754 161.306C88.8875 161.327 88.8952 161.35 88.8983 161.375C88.9013 161.399 88.8996 161.423 88.8931 161.447C88.8867 161.471 88.8756 161.493 88.8607 161.512C88.8457 161.531 88.8271 161.547 88.8059 161.559L80.2916 166.467C80.263 166.483 80.2305 166.491 80.1976 166.491Z" fill="#E0E0E0"/>
<path d="M80.1973 168.246C80.1646 168.247 80.1324 168.238 80.1042 168.222C80.076 168.205 80.053 168.181 80.0378 168.152C80.0253 168.131 80.0171 168.108 80.0136 168.084C80.0101 168.06 80.0115 168.035 80.0176 168.011C80.0236 167.988 80.0343 167.966 80.0491 167.946C80.0638 167.927 80.0822 167.911 80.1032 167.898L88.6216 162.991C88.6425 162.979 88.6656 162.971 88.6896 162.968C88.7136 162.965 88.7379 162.966 88.7613 162.973C88.7846 162.979 88.8065 162.99 88.8257 163.004C88.8449 163.019 88.861 163.037 88.8731 163.058C88.8851 163.079 88.893 163.102 88.8961 163.126C88.8993 163.15 88.8977 163.175 88.8914 163.198C88.8851 163.222 88.8743 163.243 88.8596 163.263C88.8449 163.282 88.8265 163.298 88.8056 163.31L80.2914 168.217C80.2631 168.235 80.2306 168.245 80.1973 168.246Z" fill="#E0E0E0"/>
<path d="M80.1974 169.983C80.1649 169.983 80.133 169.974 80.105 169.958C80.077 169.941 80.0539 169.918 80.038 169.889C80.0249 169.869 80.0162 169.845 80.0124 169.821C80.0086 169.797 80.0098 169.772 80.016 169.748C80.0221 169.725 80.033 169.702 80.048 169.683C80.0631 169.664 80.0819 169.648 80.1034 169.636L88.6217 164.728C88.6429 164.716 88.6663 164.709 88.6905 164.706C88.7147 164.703 88.7393 164.704 88.7629 164.711C88.7864 164.717 88.8085 164.728 88.8277 164.743C88.847 164.758 88.8632 164.777 88.8753 164.798C88.8873 164.819 88.8951 164.843 88.8982 164.867C88.9012 164.891 88.8995 164.916 88.893 164.939C88.8865 164.963 88.8755 164.985 88.8605 165.004C88.8456 165.023 88.8269 165.039 88.8057 165.052L80.2915 169.959C80.2635 169.977 80.2306 169.985 80.1974 169.983Z" fill="#E0E0E0"/>
<path d="M90.2246 158.77L100.8 152.665V159.645L90.2246 165.751V158.77Z" fill="#F7921E"/>
<path opacity="0.5" d="M90.2246 158.77L100.8 152.665V159.645L90.2246 165.751V158.77Z" fill="white"/>
<path d="M90.9854 164.446L100.064 159.216L98.0642 157.817L96.0726 160.181L93.8848 158.169L90.9854 164.446Z" fill="white"/>
<path d="M96.588 156.525C96.8292 156.382 97.0255 156.497 97.0255 156.775C97.0173 156.926 96.9733 157.074 96.8973 157.205C96.8213 157.337 96.7153 157.448 96.588 157.531C96.3467 157.67 96.1504 157.56 96.1504 157.282C96.1583 157.13 96.2021 156.982 96.2782 156.851C96.3543 156.719 96.4604 156.608 96.588 156.525Z" fill="white"/>
<path d="M80.1973 173.284L100.8 161.392V163.134L80.1973 175.03V173.284Z" fill="#F7921E"/>
<path d="M80.1971 171.726C80.1649 171.727 80.1331 171.718 80.1051 171.703C80.077 171.687 80.0537 171.664 80.0376 171.636C80.0132 171.593 80.0064 171.542 80.0186 171.494C80.0308 171.446 80.061 171.404 80.103 171.378L88.6214 166.471C88.6638 166.447 88.7141 166.44 88.7614 166.452C88.8087 166.464 88.8494 166.495 88.8749 166.536C88.8989 166.58 88.9051 166.631 88.8921 166.679C88.8792 166.727 88.8481 166.768 88.8054 166.794L80.2912 171.701C80.2625 171.718 80.2301 171.726 80.1971 171.726Z" fill="#E0E0E0"/>
<path d="M80.1973 176.96C80.1551 176.963 80.1135 176.951 80.0792 176.926C80.045 176.901 80.0203 176.865 80.0093 176.825C79.9983 176.784 80.0016 176.741 80.0187 176.702C80.0358 176.664 80.0656 176.632 80.1032 176.613L100.734 164.753C100.756 164.741 100.779 164.734 100.803 164.73C100.828 164.727 100.852 164.729 100.876 164.736C100.899 164.742 100.921 164.753 100.941 164.768C100.96 164.783 100.976 164.802 100.988 164.823C101 164.844 101.008 164.867 101.011 164.892C101.014 164.916 101.012 164.941 101.006 164.964C100.999 164.988 100.988 165.01 100.973 165.029C100.958 165.048 100.94 165.064 100.918 165.076L80.2913 176.956C80.2607 176.965 80.2285 176.967 80.1973 176.96Z" fill="#E0E0E0"/>
<path d="M84.6465 188.947L109.911 174.368V173.713L84.6465 188.292V188.947Z" fill="#F0F0F0"/>
<path d="M131.598 189.708C132.114 197.989 132.861 208.097 132.887 208.515C133.036 210.756 132.838 211.657 131.957 212.602C130.108 214.585 127.43 216.471 125.114 218.204C125.45 219.09 128.632 219.478 130.011 218.806C131.814 217.864 133.532 216.768 135.147 215.53C137.051 214.122 139.479 212.99 139.513 210.85C139.523 210.724 139.545 210.599 139.576 210.476C139.614 209.225 142.527 195.188 142.77 190.904C142.792 190.53 142.807 190.134 142.815 189.723L131.598 189.708Z" fill="#C8856A"/>
<path d="M160.012 197.683C159.967 195.412 159.885 192.977 159.732 190.814C159.706 190.441 159.676 190.067 159.646 189.694H148.552C149.527 193.511 150.573 197.474 151.29 200.194C152.25 203.835 154.185 209.053 154.514 212.688C154.614 213.558 155.597 222.078 156.008 224.028C156.419 225.978 160.666 226.03 160.938 222.676C161.121 220.435 160.341 213.229 160.262 212.161C159.844 206.48 160.482 206.555 160.012 197.683Z" fill="#C8856A"/>
<path d="M121.573 220.886C121.453 220.886 121.263 222.182 121.898 222.754C122.626 223.4 124.782 224.468 127.65 224.128C130.519 223.788 132.076 222.918 133.231 221.973C134.385 221.028 136.01 219.691 137.306 219.418C138.512 219.168 139.823 218.638 140.212 218.268C140.6 217.898 140.566 216.247 140.566 216.247L121.573 220.886Z" fill="#263238"/>
<path d="M139.636 209.841C139.636 209.841 139.853 209.841 139.92 210.215C140.006 210.671 140.084 211.997 140.267 212.747C140.518 213.789 140.671 215.922 140.507 216.766C140.342 217.611 138.37 218.178 137.115 218.634C135.632 219.261 134.253 220.11 133.025 221.152C131.669 222.246 128.827 223.329 126.963 223.337C124.113 223.337 122.275 222.556 121.733 221.525C121.042 220.251 121.207 219.101 124.494 217.622C125.117 217.342 127.306 216.075 128.053 215.616C128.844 215.134 129.593 214.588 130.294 213.984C130.649 213.676 130.987 213.349 131.307 213.005C131.637 212.698 131.92 212.345 132.147 211.955C132.184 211.87 132.211 211.769 132.244 211.679C132.341 211.431 132.416 211.175 132.468 210.913C132.521 210.641 132.558 210.245 132.819 210.084C133.192 209.936 133.597 209.894 133.992 209.961C134.589 210.046 135.179 210.171 135.759 210.334C136.014 210.373 136.256 210.472 136.465 210.622C136.675 210.771 136.846 210.969 136.966 211.197C137.153 211.565 137.242 211.976 137.223 212.389C137.223 212.579 137.223 212.762 137.223 212.964C137.223 213.042 137.186 213.192 137.302 213.158C137.418 213.125 137.537 212.841 137.578 212.744C137.672 212.531 137.731 212.303 137.832 212.094C137.942 211.849 138.082 211.618 138.247 211.406C138.401 211.213 138.576 211.038 138.77 210.883C138.967 210.771 139.157 210.647 139.337 210.51C139.498 210.319 139.601 210.088 139.636 209.841Z" fill="#37474F"/>
<path d="M123.949 217.909C128.057 218.238 129.738 221.219 129.895 222.799C128.954 223.143 127.964 223.34 126.963 223.381C124.113 223.381 122.159 222.601 121.599 221.57C120.949 220.371 121.013 218.989 123.949 217.909Z" fill="#FAFAFA"/>
<path d="M130.527 218.432C130.564 218.431 130.601 218.42 130.633 218.4C130.665 218.38 130.691 218.351 130.707 218.317C130.724 218.283 130.731 218.245 130.727 218.207C130.724 218.17 130.71 218.134 130.687 218.103C130.119 217.398 128.073 216.027 126.578 216.172C126.55 216.172 126.522 216.178 126.497 216.189C126.471 216.2 126.448 216.217 126.429 216.238C126.409 216.259 126.395 216.283 126.386 216.31C126.377 216.336 126.374 216.365 126.376 216.393C126.379 216.421 126.387 216.448 126.401 216.473C126.415 216.497 126.434 216.519 126.456 216.536C126.479 216.552 126.505 216.564 126.532 216.571C126.56 216.577 126.588 216.577 126.616 216.572C128.016 216.441 129.921 217.793 130.373 218.357C130.392 218.381 130.415 218.399 130.442 218.412C130.468 218.425 130.497 218.432 130.527 218.432Z" fill="#F0F0F0"/>
<path d="M132.304 217.424C132.342 217.424 132.379 217.413 132.412 217.393C132.444 217.373 132.47 217.343 132.486 217.309C132.503 217.275 132.509 217.236 132.504 217.198C132.5 217.161 132.485 217.125 132.461 217.095C131.893 216.386 129.846 215.015 128.352 215.164C128.299 215.17 128.251 215.196 128.217 215.237C128.184 215.279 128.168 215.332 128.173 215.384C128.175 215.411 128.183 215.437 128.195 215.46C128.208 215.483 128.225 215.504 128.245 215.521C128.266 215.537 128.289 215.55 128.315 215.557C128.34 215.565 128.367 215.567 128.393 215.564C129.794 215.429 131.699 216.785 132.147 217.349C132.166 217.372 132.19 217.391 132.217 217.404C132.244 217.417 132.274 217.424 132.304 217.424Z" fill="#F0F0F0"/>
<path d="M133.974 216.258C134.02 216.261 134.065 216.247 134.101 216.217C134.122 216.201 134.139 216.18 134.151 216.157C134.164 216.133 134.172 216.108 134.175 216.082C134.177 216.055 134.175 216.028 134.167 216.003C134.16 215.978 134.147 215.954 134.131 215.933C133.567 215.224 131.516 213.853 130.022 213.999C129.996 214.001 129.97 214.009 129.946 214.022C129.923 214.034 129.902 214.052 129.885 214.072C129.869 214.093 129.856 214.117 129.848 214.142C129.841 214.168 129.838 214.194 129.841 214.221C129.844 214.247 129.851 214.273 129.864 214.296C129.877 214.32 129.894 214.341 129.914 214.357C129.935 214.374 129.959 214.387 129.984 214.394C130.01 214.402 130.037 214.405 130.063 214.402C131.46 214.267 133.369 215.623 133.817 216.184C133.836 216.207 133.86 216.225 133.887 216.238C133.914 216.251 133.944 216.258 133.974 216.258Z" fill="#F0F0F0"/>
<path d="M135.599 215.097C135.644 215.096 135.687 215.08 135.722 215.052C135.743 215.036 135.761 215.016 135.774 214.994C135.787 214.971 135.796 214.946 135.8 214.92C135.803 214.894 135.801 214.867 135.794 214.842C135.787 214.816 135.776 214.793 135.759 214.772C134.979 213.763 132.805 212.665 131.307 212.815C131.28 212.817 131.255 212.824 131.231 212.837C131.208 212.849 131.187 212.866 131.17 212.887C131.153 212.907 131.14 212.931 131.132 212.956C131.124 212.982 131.121 213.008 131.124 213.035C131.131 213.087 131.157 213.135 131.198 213.169C131.239 213.202 131.292 213.218 131.344 213.214C132.697 213.083 134.747 214.126 135.453 215.018C135.471 215.04 135.493 215.059 135.518 215.072C135.543 215.086 135.57 215.094 135.599 215.097Z" fill="#F0F0F0"/>
<path d="M154.667 225.563C154.782 227.509 155.081 228.798 155.787 229.941C156.493 231.084 157.782 231.435 159.1 231.106C160.419 230.777 162.107 229.877 162.484 228.2C162.862 226.523 163.082 225.372 162.783 223.568L154.667 225.563Z" fill="#263238"/>
<path d="M160.21 211.481C160.755 211.522 160.916 214.133 161.23 216.748C161.562 219.553 162.399 220.711 162.702 223.008C163.045 225.622 162.608 226.806 161.689 228.394C160.77 229.981 157.513 231.539 155.907 229.264C154.6 227.397 154.544 225.357 154.663 222.735C154.732 220.519 154.673 218.3 154.488 216.09C154.383 214.125 153.95 212.142 154.421 211.925C154.458 212.213 154.492 212.579 154.529 212.863C154.548 213.218 154.607 213.57 154.704 213.913C154.76 214.058 154.884 214.211 154.932 213.972C154.957 213.81 154.957 213.645 154.932 213.483C154.85 212.758 155.216 212.702 155.414 212.646C156.247 212.476 157.089 212.351 157.935 212.273C158.35 212.243 159.781 212.183 159.967 212.418C160.088 212.649 160.151 212.905 160.15 213.166C160.195 213.561 160.289 213.853 160.3 213.726C160.326 213.446 160.27 212.71 160.262 212.531C160.255 212.351 160.229 212.127 160.225 211.959C160.221 211.791 160.221 211.645 160.21 211.481Z" fill="#37474F"/>
<path d="M162.851 224.532C162.949 225.935 162.592 227.333 161.835 228.517C160.916 230.105 157.397 231.666 155.791 229.392C154.992 228.271 154.779 226.923 154.67 225.559C155.63 223.811 161.334 223.038 162.851 224.532Z" fill="#FAFAFA"/>
<path d="M155.855 222.709C155.878 222.706 155.901 222.7 155.922 222.69C155.945 222.69 158.458 221.641 160.905 222.205C160.931 222.211 160.957 222.212 160.983 222.207C161.009 222.203 161.034 222.194 161.056 222.18C161.078 222.166 161.097 222.148 161.112 222.127C161.128 222.105 161.138 222.081 161.144 222.055C161.156 222.003 161.148 221.949 161.12 221.903C161.092 221.857 161.047 221.825 160.995 221.813C158.406 221.215 155.844 222.279 155.747 222.324C155.699 222.348 155.662 222.389 155.644 222.439C155.627 222.49 155.63 222.545 155.653 222.593C155.671 222.631 155.7 222.662 155.736 222.682C155.772 222.703 155.814 222.712 155.855 222.709Z" fill="#F0F0F0"/>
<path d="M160.781 220.248C160.82 220.245 160.857 220.23 160.887 220.206C160.918 220.182 160.941 220.15 160.953 220.113C160.97 220.063 160.966 220.008 160.942 219.96C160.918 219.913 160.876 219.876 160.826 219.859C158.391 219.034 155.686 220.27 155.597 220.326C155.55 220.351 155.515 220.393 155.499 220.443C155.483 220.493 155.487 220.548 155.511 220.595C155.536 220.642 155.579 220.677 155.63 220.693C155.681 220.709 155.736 220.705 155.783 220.681C155.806 220.681 158.443 219.471 160.706 220.24C160.731 220.247 160.756 220.249 160.781 220.248Z" fill="#F0F0F0"/>
<path d="M160.692 218.403C160.73 218.398 160.766 218.384 160.796 218.361C160.826 218.338 160.849 218.307 160.864 218.272C160.872 218.247 160.876 218.22 160.875 218.194C160.873 218.167 160.867 218.141 160.855 218.117C160.844 218.093 160.828 218.072 160.808 218.054C160.788 218.037 160.765 218.023 160.74 218.014C158.062 217.054 155.511 218.406 155.399 218.466C155.374 218.479 155.352 218.496 155.335 218.518C155.317 218.539 155.304 218.564 155.297 218.591C155.289 218.617 155.287 218.645 155.291 218.673C155.295 218.7 155.304 218.727 155.318 218.751C155.333 218.774 155.352 218.795 155.375 218.811C155.397 218.827 155.423 218.838 155.45 218.843C155.478 218.849 155.506 218.849 155.533 218.843C155.56 218.837 155.586 218.826 155.608 218.81C155.631 218.81 158.111 217.502 160.606 218.391C160.633 218.403 160.663 218.406 160.692 218.403Z" fill="#F0F0F0"/>
<path d="M160.564 216.587C160.602 216.582 160.637 216.567 160.666 216.544C160.696 216.521 160.719 216.491 160.732 216.456C160.751 216.406 160.748 216.351 160.726 216.302C160.703 216.254 160.663 216.217 160.613 216.198C158.103 215.257 155.343 216.646 155.238 216.706C155.213 216.718 155.19 216.735 155.171 216.756C155.153 216.777 155.139 216.802 155.13 216.829C155.122 216.855 155.119 216.884 155.122 216.911C155.125 216.939 155.134 216.966 155.148 216.991C155.162 217.015 155.181 217.036 155.204 217.052C155.227 217.069 155.253 217.08 155.28 217.086C155.308 217.092 155.336 217.092 155.363 217.087C155.391 217.081 155.417 217.07 155.44 217.054C155.462 217.054 158.14 215.701 160.471 216.575C160.501 216.587 160.533 216.59 160.564 216.587Z" fill="#EBEBEB"/>
<path d="M154.637 138.652C157.08 143.108 158.394 146.75 158.641 159.995C158.887 173.24 158.458 177.016 158.51 178.611C158.563 180.206 160.004 183.74 160.184 191.651C160.326 198.348 160.348 203.432 160.348 203.432C160.348 203.432 159.601 205.027 156.587 205.299C153.811 205.546 152.437 204.504 152.437 204.504C152.437 204.504 149.075 193.455 148.089 188.7C146.942 183.206 143.73 170.147 143.73 170.147L142.789 180.942C143.251 184.316 143.309 187.733 142.964 191.12C142.165 198.023 141.067 201.971 141.067 201.971C139.585 202.429 138.042 202.663 136.491 202.666C135.041 202.634 133.617 202.27 132.33 201.601C132.33 201.601 130.395 185.574 130.395 177.752C130.395 169.931 128.337 151.374 132.214 138.581L154.637 138.652Z" fill="#37474F"/>
<path d="M132.495 148.49C133.671 151.721 137.963 153.981 139.849 154.433L142.427 168.38L142.8 180.953L143.741 170.158L140.641 151.916C140.641 151.916 135.401 151.531 132.495 148.49ZM150.741 148.509C151.051 149.779 151.331 151.056 151.63 152.334C151.929 153.611 152.217 154.889 152.53 156.174C152.546 154.85 152.459 153.528 152.269 152.218C152.096 150.907 151.858 149.606 151.555 148.319C151.254 147.03 150.88 145.759 150.435 144.512C149.996 143.259 149.426 142.056 148.735 140.923C149.131 142.189 149.482 143.444 149.815 144.707C150.147 145.969 150.45 147.239 150.741 148.509ZM152.982 146.066C153.408 146.832 153.812 147.605 154.219 148.382L155.421 150.75C155.332 149.856 155.128 148.978 154.816 148.136C154.509 147.288 154.134 146.466 153.696 145.678C153.264 144.898 152.778 144.149 152.243 143.437C151.711 142.712 151.112 142.039 150.454 141.427C150.846 142.241 151.272 143.015 151.697 143.788C152.123 144.561 152.553 145.293 152.967 146.066H152.982ZM151.059 179.481C150.36 175.81 149.86 172.116 149.393 168.38C148.926 164.645 148.459 160.944 147.94 157.227C148.168 160.962 148.437 164.697 148.806 168.433C149.176 172.168 149.624 175.903 150.3 179.605C150.977 183.306 151.746 186.967 152.519 190.638C153.292 194.31 154.088 197.971 154.947 201.624C154.379 197.918 153.763 194.218 153.098 190.523C152.444 186.847 151.746 183.149 151.044 179.481H151.059ZM133.178 166.595L133.854 155.808C133.298 159.371 132.865 162.953 132.532 166.543C132.2 170.132 131.901 173.722 131.89 177.375C132.009 181.002 132.286 184.584 132.581 188.181C132.876 191.778 133.234 195.36 133.66 198.942C133.561 195.336 133.417 191.735 133.231 188.14L132.958 182.742C132.868 180.949 132.76 179.141 132.723 177.363C132.685 175.586 132.797 173.785 132.879 171.992C132.962 170.199 133.051 168.38 133.163 166.595H133.178Z" fill="#263238"/>
<path d="M153.232 97.9385V118.519H137.784V99.313L153.232 97.9385Z" fill="#263238"/>
<path d="M139.401 112.491C138.848 112.196 137.459 111.251 136.839 111.049C135.87 110.73 134.818 110.771 133.877 111.165C132.498 111.695 131.06 113.536 129.484 115.647C127.908 117.757 122.014 125.713 122.014 125.713C122.014 125.713 122.716 133.423 125.118 132.926C127.112 132.519 135.576 122.886 135.576 122.886C138.852 118.93 139.741 114.814 139.401 112.491Z" fill="#C8856A"/>
<path d="M127.011 130.879C128.068 129.127 128.502 127.07 128.244 125.041C127.896 122.747 126.406 119.812 126.406 119.812L124.479 122.426L127.011 130.879Z" fill="#AF6152"/>
<path d="M117.453 109.275C117.453 109.275 117.509 109.058 117.225 108.733C116.941 108.408 116.695 108.237 116.374 107.878C116.052 107.519 115.589 106.843 115.817 106.455C116.045 106.066 116.938 106.574 117.573 107.101C118.124 107.657 118.839 108.022 119.612 108.143C120.665 108.341 121.853 108.782 122.26 109.884L117.453 109.275Z" fill="#AF6152"/>
<path d="M114.3 110.41C113.86 109.7 113.09 109.058 112.668 108.576C112.267 108.089 111.933 107.55 111.675 106.974C111.376 106.361 110.886 105.663 110.976 105.438C111.066 105.214 111.507 105.095 111.873 105.438C111.873 105.438 111.794 104.972 111.675 104.527C111.555 104.083 111.301 103.638 111.488 103.317C111.675 102.996 112.201 103.242 112.41 103.601C112.62 103.959 112.728 104.18 112.728 104.18C112.728 104.18 113.101 104.027 113.408 104.729C113.537 105.015 113.629 105.316 113.68 105.625C113.978 105.96 114.208 106.349 114.356 106.772C114.642 107.166 114.882 107.591 115.074 108.038C115.574 108.166 116.044 108.392 116.456 108.703C116.941 109.14 116.986 109.319 118.069 109.278C118.798 109.252 119.821 109.009 120.684 109.136C121.547 109.263 122.331 109.536 122.622 110.63C122.914 111.725 123.104 112.524 123.459 113.619C123.724 114.44 124.176 115.423 125.614 119.132C126.735 122.015 126.97 122.452 127.482 123.917C128.117 125.642 128.164 127.529 127.616 129.284C126.836 131.79 125.958 133.001 124.789 132.967C122.312 132.896 120.553 129.123 120.307 127.435C120.06 125.747 119.776 119.61 119.631 117.477C119.485 115.344 118.984 113.592 118.585 113.238C117.798 112.65 116.944 112.158 116.041 111.773C115.07 111.31 114.991 111.452 114.3 110.41Z" fill="#C8856A"/>
<path d="M122.26 109.884C122.496 110.32 122.66 110.792 122.746 111.281C122.884 111.763 123.022 112.241 123.172 112.715C123.321 113.189 123.47 113.668 123.631 114.138C123.792 114.609 124.087 115.233 124.262 115.7C124.132 115.218 123.863 114.579 123.721 114.112C123.579 113.645 123.433 113.156 123.291 112.678L122.854 111.251L122.638 110.534C122.559 110.293 122.43 110.071 122.26 109.884Z" fill="#AF6152"/>
<path d="M111.873 105.442C112.015 105.621 112.14 105.812 112.246 106.014C112.351 106.212 112.448 106.417 112.534 106.619V106.649L112.571 106.675C112.67 106.741 112.765 106.814 112.855 106.892C112.943 106.974 113.027 107.061 113.105 107.153C113.262 107.339 113.388 107.548 113.479 107.773L113.501 107.829H113.55C113.639 107.857 113.726 107.891 113.811 107.93C113.897 107.968 113.981 108.012 114.061 108.061C114.145 108.11 114.226 108.164 114.304 108.221C114.383 108.281 114.454 108.348 114.528 108.416C114.433 108.239 114.306 108.081 114.155 107.949C114.077 107.88 113.993 107.819 113.905 107.766C113.816 107.708 113.722 107.66 113.624 107.62L113.695 107.691C113.62 107.43 113.493 107.188 113.322 106.978C113.235 106.874 113.14 106.778 113.038 106.69C112.934 106.6 112.82 106.523 112.698 106.458L112.75 106.514C112.645 106.305 112.52 106.106 112.377 105.92C112.235 105.735 112.065 105.574 111.873 105.442Z" fill="#AF6152"/>
<path d="M112.728 104.184C112.761 104.306 112.783 104.431 112.792 104.557C112.801 104.681 112.801 104.806 112.792 104.931V104.953L112.814 104.987C112.962 105.212 113.078 105.455 113.161 105.711C113.246 105.961 113.284 106.225 113.273 106.488V106.57L113.344 106.608C113.476 106.682 113.601 106.768 113.718 106.865C113.835 106.965 113.945 107.072 114.047 107.187C114.15 107.306 114.247 107.431 114.338 107.56C114.435 107.687 114.513 107.825 114.599 107.96C114.559 107.803 114.504 107.651 114.435 107.504C114.369 107.356 114.287 107.214 114.192 107.082C114.099 106.948 113.992 106.823 113.875 106.709C113.755 106.588 113.619 106.483 113.471 106.399L113.542 106.522C113.559 106.373 113.559 106.223 113.542 106.074C113.517 105.927 113.478 105.783 113.427 105.644C113.371 105.515 113.306 105.39 113.232 105.271C113.157 105.138 113.07 105.013 112.971 104.897L112.989 104.953C112.985 104.818 112.964 104.683 112.926 104.553C112.878 104.421 112.812 104.297 112.728 104.184Z" fill="#AF6152"/>
<path d="M115.601 108.767C115.825 108.949 116.088 109.077 116.37 109.14C116.651 109.214 116.943 109.241 117.233 109.219C117.095 109.177 116.953 109.148 116.815 109.118C116.676 109.088 116.538 109.054 116.404 109.017C116.131 108.949 115.863 108.866 115.601 108.767Z" fill="#AF6152"/>
<path d="M119.694 109.088C120.173 109.287 120.604 109.586 120.957 109.966C121.124 110.155 121.266 110.366 121.379 110.593C121.489 110.836 121.585 111.086 121.667 111.34C121.687 111.063 121.651 110.784 121.563 110.521C121.474 110.257 121.334 110.014 121.151 109.805C120.968 109.595 120.745 109.423 120.495 109.3C120.245 109.177 119.973 109.105 119.694 109.088Z" fill="#AF6152"/>
<path d="M156.833 143.131C155.373 138.626 154.024 135.66 154.271 133.55C154.644 130.319 156.265 127.006 156.572 124.791C157.218 120.137 157.091 116.129 154.573 112.719C152.997 112.961 151.548 113.701 149.165 112.689L141.945 112.648C140.589 112.782 139.984 112.569 138.755 112.117C137.313 113.611 134.534 116.162 132.263 119.494C129.917 122.938 128.95 126.924 132.536 129.9C132.737 131.426 132.862 132.961 132.909 134.499C132.764 136.508 131.482 139.69 130.87 143.261C136.379 148.356 150.64 148.42 156.833 143.131Z" fill="#F7921E"/>
<path opacity="0.5" d="M156.833 143.131C155.373 138.626 154.024 135.66 154.271 133.55C154.644 130.319 156.265 127.006 156.572 124.791C157.218 120.137 157.091 116.129 154.573 112.719C152.997 112.961 151.548 113.701 149.165 112.689L141.945 112.648C140.589 112.782 139.984 112.569 138.755 112.117C137.313 113.611 134.534 116.162 132.263 119.494C129.917 122.938 128.95 126.924 132.536 129.9C132.737 131.426 132.862 132.961 132.909 134.499C132.764 136.508 131.482 139.69 130.87 143.261C136.379 148.356 150.64 148.42 156.833 143.131Z" fill="white"/>
<path d="M149.46 107.952C149.46 106.559 151.402 104.176 152.478 101.726C153.554 99.2755 153.696 95.4021 151.451 93.9902C151.182 90.1579 143.469 88.1185 138.531 90.9386C133.593 93.7586 133.94 99.2793 137.078 100.773C140.215 102.267 149.46 107.952 149.46 107.952Z" fill="#263238"/>
<path d="M150.442 106.032C150.875 106.101 151.318 106.055 151.728 105.9C152.138 105.744 152.501 105.485 152.78 105.147C154.061 103.773 153.901 102.361 153.34 101.412C152.866 100.631 151.678 100.123 150.838 100.635C149.934 101.184 149.9 101.644 149.557 102.271C149.213 102.899 148.35 102.394 148.671 99.8544C146.946 99.014 147.902 96.6347 146.976 95.4357C145.799 93.908 143.558 94.6401 142.34 95.1966C142.165 95.2778 141.97 95.3059 141.778 95.2773C141.587 95.2488 141.409 95.1649 141.265 95.036C140.878 94.6771 140.392 94.4447 139.87 94.3699C139.348 94.2951 138.815 94.3816 138.344 94.6177C137.279 95.1705 136.764 95.9512 136.921 98.5322C136.957 99.1211 136.918 99.7123 136.805 100.291C136.666 100.908 136.561 101.531 136.487 102.159C136.334 104.591 137.051 107.459 138.31 108.677C138.805 109.122 139.384 109.464 140.012 109.684C140.64 109.904 141.306 109.997 141.971 109.958L141.944 112.659C141.944 112.659 137.836 116.14 142.49 116.14C147.816 116.14 149.165 112.7 149.165 112.7L149.46 105.308C149.46 105.308 149.553 105.853 150.442 106.032Z" fill="#C8856A"/>
<path d="M141.971 109.947C144.776 109.883 147.798 108.386 148.638 106.07C148.395 108.487 146.7 109.771 145.056 110.377C144.054 110.725 143.001 110.902 141.941 110.899L141.971 109.947Z" fill="#AF6152"/>
<path d="M142.191 99.1895L141.59 104.03L139.035 102.839L142.191 99.1895Z" fill="#AF6152"/>
<path d="M143.442 100.314C143.447 100.454 143.493 100.59 143.574 100.704C143.655 100.819 143.768 100.907 143.899 100.958C144.029 101.01 144.172 101.022 144.309 100.993C144.447 100.964 144.573 100.896 144.672 100.797C144.771 100.698 144.839 100.572 144.868 100.434C144.897 100.297 144.885 100.154 144.833 100.024C144.782 99.8932 144.694 99.7804 144.579 99.6992C144.465 99.6181 144.329 99.5721 144.189 99.5669C143.991 99.5669 143.801 99.6456 143.661 99.7857C143.521 99.9258 143.442 100.116 143.442 100.314Z" fill="#263238"/>
<path d="M138.15 100.105C138.164 100.245 138.219 100.377 138.307 100.486C138.396 100.595 138.515 100.675 138.649 100.717C138.783 100.759 138.927 100.761 139.062 100.722C139.197 100.683 139.318 100.605 139.409 100.498C139.5 100.391 139.558 100.26 139.575 100.12C139.592 99.9809 139.568 99.8394 139.505 99.7136C139.443 99.5877 139.345 99.483 139.223 99.4124C139.102 99.3419 138.962 99.3085 138.822 99.3166C138.726 99.3237 138.632 99.3497 138.546 99.3933C138.46 99.4368 138.384 99.497 138.321 99.5703C138.259 99.6436 138.211 99.7286 138.182 99.8203C138.152 99.9121 138.141 100.009 138.15 100.105Z" fill="#263238"/>
<path d="M145.515 98.1587L144.223 96.9746C144.067 97.1532 143.986 97.385 143.998 97.6216C144.009 97.8582 144.111 98.0814 144.283 98.2446C144.368 98.3222 144.468 98.3817 144.577 98.4196C144.686 98.4574 144.802 98.4728 144.917 98.4648C145.032 98.4567 145.145 98.4255 145.248 98.3729C145.35 98.3203 145.441 98.2474 145.515 98.1587Z" fill="#263238"/>
<path d="M139.797 96.9673L138.202 97.7143C138.246 97.8212 138.311 97.9181 138.393 97.999C138.476 98.0799 138.574 98.143 138.682 98.1847C138.789 98.2263 138.904 98.2455 139.02 98.241C139.135 98.2366 139.248 98.2086 139.353 98.1588C139.565 98.0544 139.729 97.8729 139.812 97.6514C139.894 97.4298 139.889 97.1851 139.797 96.9673Z" fill="#263238"/>
<path d="M143.136 106.048C143.082 106.115 143.015 106.171 142.939 106.211C142.863 106.252 142.779 106.277 142.693 106.285C142.607 106.293 142.52 106.284 142.438 106.258C142.356 106.232 142.279 106.19 142.214 106.134C142.088 106.009 142.007 105.847 141.982 105.673C141.958 105.498 141.992 105.32 142.079 105.166C142.134 105.068 142.211 104.984 142.303 104.92C142.208 104.823 142.085 104.758 141.952 104.733C142.236 104.648 142.541 104.672 142.808 104.8C142.969 104.881 143.1 105.012 143.181 105.174C143.244 105.312 143.272 105.464 143.264 105.616C143.257 105.768 143.213 105.916 143.136 106.048Z" fill="#AF6152"/>
<path d="M142.086 106.002C142.119 106.053 142.158 106.1 142.202 106.141C142.267 106.197 142.343 106.24 142.426 106.267C142.508 106.294 142.595 106.304 142.681 106.296C142.767 106.288 142.851 106.263 142.927 106.223C143.003 106.182 143.071 106.126 143.125 106.058C143.218 105.889 143.257 105.695 143.237 105.502C142.802 105.511 142.389 105.69 142.086 106.002Z" fill="#FFA8A7"/>
<path d="M152.967 113.04C153.784 112.7 154.657 112.516 155.541 112.499C156.572 112.573 157.162 112.741 157.939 113.466C158.996 114.456 159.694 116.196 160.385 118.426C161.151 120.892 164.315 130.779 164.315 130.779C164.315 130.779 160.83 137.502 158.832 136.176C157.177 135.055 153.061 123.211 153.061 123.211C151.552 118.404 151.802 115.02 152.967 113.04Z" fill="#C8856A"/>
<path d="M157.226 131.421C156.747 128.888 157.648 126.968 158.398 125.5C160.057 122.247 160.994 120.368 160.994 120.368L162.933 126.43L157.226 131.421Z" fill="#AF6152"/>
<path d="M169.334 114.265C169.334 114.265 169.301 114.052 169.607 113.761C169.913 113.469 170.179 113.335 170.526 113.014C170.873 112.692 171.4 112.084 171.217 111.684C171.034 111.284 170.096 111.684 169.443 112.132C168.846 112.615 168.111 112.895 167.343 112.931C166.301 113.021 165.102 113.324 164.587 114.355L169.334 114.265Z" fill="#AF6152"/>
<path d="M172.271 115.714C172.771 115.068 173.589 114.523 174.049 114.097C174.487 113.665 174.864 113.175 175.169 112.64C175.543 112.072 176.07 111.441 176.01 111.217C175.95 110.993 175.524 110.844 175.136 111.127C175.136 111.127 175.259 110.679 175.423 110.261C175.588 109.842 175.868 109.432 175.73 109.099C175.591 108.767 175.042 108.954 174.8 109.282C174.557 109.611 174.426 109.813 174.426 109.813C174.426 109.813 174.101 109.626 173.709 110.276C173.549 110.541 173.423 110.826 173.335 111.124C173.01 111.418 172.746 111.773 172.558 112.17C172.241 112.524 171.963 112.912 171.729 113.327C171.229 113.401 170.748 113.573 170.314 113.832C169.798 114.205 169.735 114.377 168.685 114.228C167.975 114.127 167.004 113.783 166.156 113.82C165.308 113.858 164.513 114.033 164.113 115.061C163.713 116.088 163.448 116.853 162.993 117.881C162.649 118.654 162.107 119.565 160.326 123.028C158.936 125.721 158.66 126.121 158.021 127.51C157.222 129.13 156.98 130.968 157.334 132.739C157.834 135.264 158.566 136.534 159.706 136.62C162.13 136.807 164.229 133.315 164.636 131.693C165.043 130.072 165.966 124.13 166.324 122.064C166.683 119.999 167.359 118.351 167.781 118.045C168.603 117.554 169.481 117.164 170.396 116.883C171.442 116.495 171.524 116.644 172.271 115.714Z" fill="#C8856A"/>
<path d="M164.588 114.362C164.314 114.764 164.105 115.206 163.968 115.673C163.785 116.125 163.594 116.581 163.407 117.029C163.221 117.477 163.034 117.925 162.81 118.366C162.586 118.807 162.257 119.382 162.037 119.819C162.212 119.363 162.541 118.781 162.728 118.325C162.914 117.869 163.101 117.425 163.292 116.976L163.867 115.628L164.154 114.956C164.254 114.728 164.401 114.526 164.588 114.362Z" fill="#AF6152"/>
<path d="M175.166 111.112C175.015 111.273 174.877 111.447 174.755 111.631C174.632 111.815 174.516 112.005 174.415 112.192L174.397 112.218L174.359 112.24C174.255 112.294 174.155 112.355 174.06 112.423C173.965 112.493 173.874 112.569 173.788 112.651C173.615 112.814 173.47 113.005 173.358 113.215L173.332 113.268H173.284C173.194 113.285 173.105 113.309 173.018 113.338C172.93 113.367 172.844 113.4 172.761 113.439C172.675 113.48 172.589 113.522 172.507 113.57C172.424 113.619 172.35 113.678 172.268 113.734C172.383 113.573 172.526 113.433 172.69 113.32C172.773 113.262 172.86 113.211 172.951 113.167C173.044 113.124 173.14 113.088 173.239 113.058L173.164 113.118C173.268 112.872 173.42 112.65 173.612 112.464C173.707 112.372 173.809 112.288 173.919 112.214C174.029 112.138 174.146 112.073 174.27 112.02L174.217 112.069C174.34 111.877 174.48 111.697 174.636 111.531C174.79 111.365 174.969 111.224 175.166 111.112Z" fill="#AF6152"/>
<path d="M174.46 109.798C174.415 109.919 174.382 110.044 174.359 110.171C174.338 110.295 174.327 110.42 174.325 110.545V110.571L174.303 110.597C174.134 110.801 173.994 111.027 173.888 111.27C173.777 111.504 173.712 111.758 173.698 112.017V112.095L173.623 112.129C173.492 112.187 173.367 112.259 173.249 112.342C173.119 112.426 172.994 112.518 172.876 112.618C172.763 112.721 172.656 112.829 172.555 112.943C172.446 113.055 172.357 113.178 172.256 113.316C172.313 113.17 172.383 113.028 172.465 112.894C172.547 112.762 172.641 112.637 172.745 112.521C172.85 112.398 172.968 112.286 173.096 112.188C173.224 112.082 173.366 111.994 173.518 111.927L173.44 112.039C173.442 111.891 173.463 111.744 173.503 111.602C173.542 111.463 173.595 111.328 173.66 111.199C173.726 111.068 173.802 110.943 173.888 110.825C173.974 110.71 174.072 110.603 174.179 110.508L174.157 110.56C174.175 110.431 174.21 110.306 174.262 110.186C174.307 110.047 174.374 109.916 174.46 109.798Z" fill="#AF6152"/>
<path d="M171.191 113.962C170.955 114.125 170.684 114.23 170.399 114.269C170.117 114.314 169.83 114.314 169.548 114.269C169.69 114.243 169.828 114.231 169.966 114.213L170.381 114.157C170.655 114.112 170.926 114.047 171.191 113.962Z" fill="#AF6152"/>
<path d="M167.169 113.847C166.682 113.99 166.232 114.237 165.85 114.571C165.668 114.738 165.508 114.929 165.376 115.139C165.236 115.358 165.111 115.586 165.002 115.823C165.011 115.554 165.073 115.29 165.185 115.046C165.297 114.795 165.46 114.569 165.664 114.384C165.866 114.199 166.103 114.055 166.362 113.963C166.62 113.87 166.895 113.831 167.169 113.847Z" fill="#AF6152"/>
<path d="M187.644 20.0514C193.169 16.9148 200.775 17.3966 209.17 22.245C226.052 31.993 239.746 55.7122 239.746 75.2083C239.746 84.9563 236.333 91.7933 230.798 94.9914C228.502 96.3239 222.659 99.6758 220.353 100.998C214.818 104.186 207.191 103.725 198.755 98.8558C181.863 89.1077 168.179 65.3885 168.179 45.8924C168.179 36.1649 171.582 29.3279 177.086 26.1299C179.393 24.7871 185.307 21.3839 187.644 20.0514Z" fill="#37474F"/>
<path d="M238.619 65.0708C239.345 68.4018 239.723 71.7992 239.746 75.2083C239.746 84.9564 236.333 91.7934 230.798 94.9914C228.502 96.324 222.659 99.6758 220.353 100.998C214.818 104.186 207.191 103.725 198.755 98.8558C195.821 97.1356 193.073 95.1157 190.555 92.8286L238.619 65.0708Z" fill="#263238"/>
<path d="M177.117 76.0081C171.592 66.4241 168.179 55.6305 168.179 45.8927C168.179 26.4172 181.863 18.4834 198.755 28.2314C215.648 37.9795 229.332 61.6987 229.332 81.1948C229.332 100.691 215.648 108.604 198.755 98.856C194.325 96.2247 190.302 92.9615 186.814 89.1695L174.339 91.4451C173.978 91.5139 173.604 91.4842 173.258 91.359C172.912 91.2339 172.606 91.0179 172.373 90.7338C172.139 90.4497 171.986 90.1079 171.93 89.7443C171.874 89.3807 171.916 89.0087 172.053 88.6672L177.117 76.0081Z" fill="#455A64"/>
<path opacity="0.8" d="M176.922 57.6861L177.03 57.6251L177.095 57.5829L179.512 56.1751C179.512 56.1188 179.512 56.0625 179.512 56.0062C179.512 53.0452 180.511 50.9665 182.079 50.0937L186.72 47.4143C187.996 46.6775 189.657 46.7479 191.478 47.799C192.322 48.297 193.094 48.9079 193.773 49.615C194.071 49.3075 194.409 49.0409 194.777 48.822L199.254 46.2552C200.896 45.1666 203.092 45.19 205.513 46.5837C210.591 49.5165 214.711 57.3764 214.711 64.157C214.713 64.9066 214.655 65.6551 214.537 66.3953L215.175 66.7614C218.404 68.6383 221.022 73.6312 221.022 77.9389C221.022 80.3179 220.225 82.0166 218.962 82.744L214.27 85.4562C213.252 86.0381 211.924 85.9958 210.492 85.1606L201.985 80.2522L179.32 67.1696C177.377 66.0481 175.805 63.0449 175.805 60.4594C175.8 59.1079 176.236 58.1413 176.922 57.6861Z" fill="#F7921E"/>
<path opacity="0.2" d="M176.922 57.6861L177.03 57.6251L177.095 57.5829L179.512 56.1751C179.512 56.1188 179.512 56.0625 179.512 56.0062C179.512 53.0452 180.511 50.9665 182.079 50.0937L186.72 47.4143C187.996 46.6775 189.657 46.7479 191.478 47.799C192.322 48.297 193.094 48.9079 193.773 49.615C194.071 49.3075 194.409 49.0409 194.777 48.822L199.254 46.2552C200.896 45.1666 203.092 45.19 205.513 46.5837C210.591 49.5165 214.711 57.3764 214.711 64.157C214.713 64.9066 214.655 65.6551 214.537 66.3953L215.175 66.7614C218.404 68.6383 221.022 73.6312 221.022 77.9389C221.022 80.3179 220.225 82.0166 218.962 82.744L214.27 85.4562C213.252 86.0381 211.924 85.9958 210.492 85.1606L201.985 80.2522L179.32 67.1696C177.377 66.0481 175.805 63.0449 175.805 60.4594C175.8 59.1079 176.236 58.1413 176.922 57.6861Z" fill="white"/>
<path opacity="0.35" d="M182.073 50.1025C183.34 49.394 184.987 49.4737 186.766 50.5155C187.656 51.0424 188.466 51.6933 189.173 52.4488L193.429 49.9758L193.847 49.7365L193.743 49.6286C193.063 48.9228 192.291 48.3106 191.449 47.8079C189.628 46.7615 187.967 46.6911 186.69 47.4278L182.073 50.1025Z" fill="white"/>
<path opacity="0.8" d="M193.763 49.6294C193.652 49.7394 193.547 49.8554 193.449 49.9766L193.866 49.7373L193.763 49.6294Z" fill="white"/>
<path opacity="0.35" d="M194.88 48.7707C196.481 47.8792 198.555 47.9824 200.821 49.2916C203.088 50.6008 205.232 52.9705 206.846 55.7672L211.539 53.0691C209.93 50.2536 207.823 47.9073 205.518 46.5887C203.102 45.181 200.901 45.181 199.259 46.2603L194.88 48.7707Z" fill="white"/>
<path opacity="0.35" d="M209.854 69.1077L210.488 69.469C212.675 70.7359 214.589 73.4435 215.589 76.3998L220.281 73.6969C219.54 71.4095 218.231 69.3476 216.476 67.7046L214.547 66.4048L209.854 69.1077Z" fill="white"/>
<path d="M179.315 57.8084L179.648 58.0008C179.557 57.343 179.51 56.6799 179.507 56.0159C179.507 50.6571 182.769 48.1935 186.785 50.5163C188.663 51.5909 190.352 53.5101 191.638 55.7907C191.821 49.3385 195.861 46.4057 200.826 49.2916C205.903 52.2244 210.023 60.0843 210.023 66.8649C210.025 67.6158 209.968 68.3657 209.854 69.1079L210.488 69.4693C213.716 71.3462 216.339 76.3437 216.339 80.6514C216.339 84.9591 213.716 87.0332 210.488 85.1656L201.985 80.2526L179.32 67.1699C177.377 66.0484 175.805 63.0452 175.805 60.4597C175.8 57.8788 177.372 56.6869 179.315 57.8084Z" fill="#F7921E"/>
<path opacity="0.7" d="M179.315 57.8084L179.648 58.0008C179.557 57.343 179.51 56.6799 179.507 56.0159C179.507 50.6571 182.769 48.1935 186.785 50.5163C188.663 51.5909 190.352 53.5101 191.638 55.7907C191.821 49.3385 195.861 46.4057 200.826 49.2916C205.903 52.2244 210.023 60.0843 210.023 66.8649C210.025 67.6158 209.968 68.3657 209.854 69.1079L210.488 69.4693C213.716 71.3462 216.339 76.3437 216.339 80.6514C216.339 84.9591 213.716 87.0332 210.488 85.1656L201.985 80.2526L179.32 67.1699C177.377 66.0484 175.805 63.0452 175.805 60.4597C175.8 57.8788 177.372 56.6869 179.315 57.8084Z" fill="white"/>
<path opacity="0.7" d="M212.777 84.6537C214.217 84.6537 215.123 83.0817 215.123 80.651C215.123 76.7938 212.72 72.1529 209.872 70.5105L209.239 70.1445C209.029 70.0234 208.86 69.8415 208.756 69.623C208.651 69.4044 208.615 69.1593 208.652 68.9198C208.757 68.2398 208.809 67.5526 208.807 66.8645C208.807 60.4827 204.954 53.0686 200.21 50.3281C199.293 49.7533 198.241 49.4296 197.16 49.3896C194.598 49.3896 192.937 51.8532 192.824 55.823C192.818 56.086 192.726 56.3397 192.562 56.5449C192.397 56.7502 192.17 56.8956 191.914 56.9586C191.659 57.0217 191.39 56.9988 191.149 56.8936C190.908 56.7885 190.708 56.6068 190.581 56.3768C189.347 54.1948 187.765 52.482 186.17 51.5529C185.482 51.118 184.693 50.872 183.88 50.8396C181.942 50.8396 180.694 52.8715 180.694 56.0014C180.695 56.612 180.738 57.2218 180.82 57.8267C180.851 58.0489 180.818 58.2753 180.726 58.4798C180.634 58.6844 180.487 58.8591 180.3 58.9838C180.114 59.1086 179.896 59.1784 179.672 59.1854C179.448 59.1924 179.226 59.1362 179.032 59.0233L178.699 58.8309C178.461 58.6802 178.188 58.5914 177.906 58.5728C177.268 58.5728 176.968 59.5113 176.968 60.4498C176.968 62.6131 178.3 65.208 179.877 66.123L211.087 84.1281C211.592 84.4466 212.171 84.6278 212.767 84.6537H212.777Z" fill="white"/>
<path d="M189.215 68.8329L195.191 79.7295L201.577 75.8594L199.052 74.4348V63.6493L192.248 59.7295V70.6027L189.215 68.8329Z" fill="#F7921E"/>
<path d="M109.647 19.4069C104.736 16.6188 97.975 17.047 90.5128 21.3567C75.5063 30.0216 63.3335 51.1054 63.3335 68.4353C63.3335 77.1002 66.3676 83.1775 71.2877 86.0203C73.3287 87.2048 78.5222 90.1842 80.5722 91.3595C85.4924 94.1932 92.2713 93.7832 99.77 89.4553C114.786 80.7903 126.949 59.7066 126.949 42.3767C126.949 33.73 123.924 27.6527 119.031 24.8099C116.981 23.6163 111.724 20.5913 109.647 19.4069Z" fill="#37474F"/>
<path d="M64.3358 59.4243C63.6904 62.3852 63.3545 65.4051 63.3335 68.4355C63.3335 77.1004 66.3676 83.1777 71.2878 86.0205C73.3287 87.205 78.5222 90.1844 80.5723 91.3597C85.4924 94.1934 92.2713 93.7834 99.77 89.4555C102.378 87.9264 104.821 86.1309 107.059 84.098L64.3358 59.4243Z" fill="#263238"/>
<path d="M119.004 69.1465C123.915 60.6274 126.949 51.0331 126.949 42.3773C126.949 25.0656 114.786 18.0134 99.77 26.6783C84.7544 35.3433 72.5907 56.427 72.5907 73.7569C72.5907 91.0868 84.7544 98.1208 99.77 89.4558C103.708 87.1168 107.284 84.2163 110.385 80.8456L121.473 82.8683C121.795 82.9295 122.126 82.903 122.434 82.7918C122.741 82.6806 123.013 82.4886 123.221 82.2361C123.429 81.9835 123.565 81.6797 123.615 81.3565C123.665 81.0333 123.627 80.7026 123.505 80.3991L119.004 69.1465Z" fill="#455A64"/>
<path d="M82.4106 62.5335L118.731 41.5757C119.199 41.3053 119.579 41.5245 119.579 42.069V55.9337C119.562 56.2266 119.476 56.5113 119.329 56.7651C119.181 57.0189 118.977 57.2348 118.731 57.3955L82.4106 78.3643C81.9391 78.6347 81.5591 78.4154 81.5591 77.8709V64.0062C81.5745 63.7109 81.6598 63.4235 81.8078 63.1675C81.9558 62.9115 82.1623 62.6943 82.4106 62.5335Z" fill="#F7921E"/>
<path d="M81.8113 63.1692L79.6442 61.9121C79.4911 62.1665 79.4056 62.4559 79.3957 62.7526V76.6173C79.3851 76.7217 79.4017 76.8271 79.444 76.9232C79.4862 77.0193 79.5527 77.1028 79.6369 77.1655C79.794 77.2568 81.6468 78.3166 81.793 78.4116C81.7122 78.3481 81.6487 78.2653 81.6085 78.1707C81.5682 78.0762 81.5525 77.973 81.5628 77.8708V64.0024C81.5726 63.7079 81.6582 63.421 81.8113 63.1692Z" fill="#F7921E"/>
<path opacity="0.3" d="M81.8113 63.1692L79.6442 61.9121C79.4911 62.1665 79.4056 62.4559 79.3957 62.7526V76.6173C79.3851 76.7217 79.4017 76.8271 79.444 76.9232C79.4862 77.0193 79.5527 77.1028 79.6369 77.1655C79.794 77.2568 81.6468 78.3166 81.793 78.4116C81.7122 78.3481 81.6487 78.2653 81.6085 78.1707C81.5682 78.0762 81.5525 77.973 81.5628 77.8708V64.0024C81.5726 63.7079 81.6582 63.421 81.8113 63.1692Z" fill="black"/>
<path d="M119.298 41.4989C118.994 41.3125 117.31 40.3478 117.174 40.2674C117.077 40.2208 116.969 40.2013 116.862 40.2109C116.754 40.2205 116.652 40.259 116.564 40.3222L80.247 61.28C79.9946 61.4349 79.7868 61.6528 79.644 61.9122L81.8111 63.1693C81.9534 62.9098 82.1597 62.6909 82.4104 62.5335L118.731 41.5756C118.813 41.5193 118.907 41.4829 119.005 41.4696C119.104 41.4563 119.204 41.4663 119.298 41.4989Z" fill="#F7921E"/>
<path opacity="0.3" d="M119.298 41.4989C118.994 41.3125 117.31 40.3478 117.174 40.2674C117.077 40.2208 116.969 40.2013 116.862 40.2109C116.754 40.2205 116.652 40.259 116.564 40.3222L80.247 61.28C79.9946 61.4349 79.7868 61.6528 79.644 61.9122L81.8111 63.1693C81.9534 62.9098 82.1597 62.6909 82.4104 62.5335L118.731 41.5756C118.813 41.5193 118.907 41.4829 119.005 41.4696C119.104 41.4563 119.204 41.4663 119.298 41.4989Z" fill="white"/>
<path d="M96.2608 59.175C96.481 59.0343 96.7315 58.9479 96.9917 58.9229C97.1797 58.9076 97.3678 58.9524 97.5289 59.0508C97.673 59.1442 97.7851 59.2793 97.8504 59.4381C97.9242 59.6043 97.9664 59.7827 97.9747 59.9643C97.9791 60.0392 97.9626 60.1139 97.9272 60.18C97.8998 60.238 97.8584 60.2883 97.8066 60.3261L97.3644 60.5783C97.2913 60.6221 97.2402 60.6294 97.2036 60.6075C97.1601 60.5805 97.1258 60.541 97.1049 60.4942C97.0473 60.3748 96.9449 60.2829 96.8199 60.2384C96.7197 60.224 96.6176 60.2298 96.5197 60.2555C96.4217 60.2813 96.33 60.3264 96.2498 60.3883C96.0232 60.524 95.8287 60.7073 95.6797 60.9255C95.6059 61.0387 95.5481 61.1617 95.508 61.2909C95.465 61.408 95.4428 61.5316 95.4422 61.6563C95.4356 61.7706 95.457 61.8847 95.5043 61.9889C95.5254 62.0242 95.5546 62.054 95.5896 62.0756C95.6246 62.0972 95.6643 62.1101 95.7053 62.1131C95.8277 62.124 95.9511 62.1153 96.0708 62.0875L96.6518 61.956C96.8638 61.8991 97.0828 61.8721 97.3023 61.8756C97.4638 61.8753 97.6213 61.9265 97.7518 62.0218C97.8752 62.1273 97.9643 62.2673 98.0076 62.4237C98.0719 62.6369 98.1015 62.859 98.0953 63.0815C98.0935 63.3796 98.0504 63.676 97.9674 63.9622C97.8815 64.259 97.7587 64.5438 97.6019 64.81C97.4413 65.0829 97.2487 65.3356 97.0282 65.5629C96.803 65.7964 96.5458 65.9969 96.2644 66.1585C96.0575 66.2843 95.8298 66.3722 95.592 66.418C95.4011 66.4563 95.2031 66.4386 95.022 66.3668C94.8516 66.2936 94.7112 66.1648 94.6236 66.0014C94.5113 65.7937 94.4522 65.5614 94.4519 65.3253C94.4475 65.2504 94.4639 65.1758 94.4994 65.1097C94.5257 65.0499 94.5689 64.9992 94.6236 64.9635L95.0622 64.7114C95.1352 64.6675 95.1901 64.6566 95.2266 64.6748C95.2497 64.6876 95.27 64.7048 95.2863 64.7255C95.3026 64.7462 95.3146 64.77 95.3216 64.7954C95.3519 64.8614 95.3874 64.925 95.4276 64.9855C95.4696 65.0447 95.5299 65.0884 95.5993 65.1097C95.6871 65.1303 95.7784 65.1303 95.8661 65.1097C96.0073 65.0763 96.142 65.0195 96.2644 64.9416C96.3929 64.8677 96.5152 64.7834 96.6299 64.6895C96.7462 64.594 96.8505 64.4848 96.9405 64.3642C97.0257 64.2514 97.0969 64.1287 97.1525 63.9988C97.2078 63.8656 97.2364 63.7228 97.2365 63.5785C97.2423 63.5258 97.2376 63.4725 97.2225 63.4217C97.2074 63.3709 97.1824 63.3235 97.1488 63.2825C97.1113 63.2519 97.0681 63.229 97.0217 63.2152C96.9752 63.2014 96.9265 63.1969 96.8784 63.2021C96.7289 63.2113 96.5807 63.2358 96.4362 63.2752C96.2608 63.3191 96.0708 63.3629 95.8259 63.4031C95.6451 63.4447 95.4592 63.4595 95.2741 63.447C95.129 63.4348 94.9918 63.3758 94.8831 63.2789C94.7694 63.1639 94.6897 63.0197 94.6529 62.8623C94.5959 62.6317 94.5701 62.3944 94.5761 62.157C94.5776 61.8589 94.6207 61.5625 94.704 61.2763C94.8681 60.6989 95.1675 60.169 95.5774 59.7305C95.7755 59.5115 96.006 59.3242 96.2608 59.175Z" fill="#FAFAFA"/>
<path d="M102.261 55.8092C102.277 55.7938 102.299 55.7852 102.321 55.7852C102.344 55.7852 102.365 55.7938 102.381 55.8092C102.4 55.8301 102.414 55.8544 102.423 55.8807C102.431 55.9071 102.435 55.935 102.433 55.9627V62.2336C102.432 62.3083 102.414 62.382 102.381 62.4492C102.359 62.5099 102.316 62.5614 102.261 62.5953L101.753 62.8913C101.736 62.906 101.715 62.9141 101.693 62.9141C101.67 62.9141 101.649 62.906 101.632 62.8913C101.614 62.8706 101.6 62.8463 101.591 62.8199C101.582 62.7935 101.579 62.7656 101.581 62.7379V60.1798L99.6809 61.2761V63.8342C99.6795 63.9089 99.6621 63.9824 99.6297 64.0498C99.6069 64.1105 99.5644 64.162 99.5091 64.196L99.0012 64.492C98.9839 64.5053 98.9627 64.5125 98.9409 64.5125C98.919 64.5125 98.8978 64.5053 98.8806 64.492C98.8607 64.4706 98.8458 64.4451 98.8369 64.4173C98.8281 64.3895 98.8255 64.3601 98.8294 64.3312V58.0493C98.8294 57.9756 98.8469 57.9029 98.8806 57.8373C98.9046 57.7773 98.9467 57.7262 99.0012 57.6912L99.5091 57.3988C99.5254 57.3834 99.547 57.3748 99.5694 57.3748C99.5918 57.3748 99.6134 57.3834 99.6297 57.3988C99.6482 57.4196 99.6623 57.4439 99.6711 57.4703C99.6799 57.4967 99.6832 57.5246 99.6809 57.5523V60.0446L101.581 58.9483V56.4597C101.582 56.3849 101.6 56.3114 101.632 56.244C101.656 56.1839 101.698 56.1328 101.753 56.0979L102.261 55.8092Z" fill="#FAFAFA"/>
<path d="M105.488 53.9457C105.554 53.9055 105.605 53.9055 105.638 53.9457C105.686 54.0001 105.716 54.0675 105.725 54.1394L107.271 59.3834C107.273 59.404 107.273 59.4249 107.271 59.4455C107.271 59.52 107.255 59.5936 107.224 59.6611C107.197 59.7196 107.156 59.77 107.103 59.8073L106.65 60.0704C106.566 60.1179 106.508 60.1252 106.471 60.0704C106.44 60.0355 106.416 59.9944 106.402 59.9498L106.131 59.0289L104.143 60.18L103.873 61.4116C103.856 61.4805 103.832 61.5477 103.803 61.6126C103.765 61.691 103.702 61.7551 103.624 61.7953L103.171 62.0584C103.155 62.0736 103.134 62.0821 103.113 62.0821C103.091 62.0821 103.07 62.0736 103.054 62.0584C103.035 62.0381 103.02 62.0139 103.011 61.9874C103.003 61.9608 103 61.9327 103.003 61.9049C103.001 61.8818 103.001 61.8586 103.003 61.8355L104.567 54.8154C104.586 54.7128 104.615 54.6123 104.655 54.5158C104.685 54.444 104.738 54.3838 104.805 54.344L105.488 53.9457ZM105.835 58.002L105.141 55.6377L104.446 58.8023L105.835 58.002Z" fill="#FAFAFA"/>
<path d="M109.643 51.5449C110.169 51.2416 110.567 51.2014 110.841 51.417C111.115 51.6326 111.251 52.0784 111.251 52.7435C111.254 53.1956 111.183 53.6452 111.039 54.0737C110.905 54.4762 110.694 54.8487 110.417 55.17L111.287 57.0667C111.3 57.0965 111.307 57.129 111.305 57.1617C111.306 57.2214 111.292 57.2803 111.265 57.3334C111.247 57.3834 111.212 57.4259 111.167 57.454L110.633 57.7647C110.549 57.8122 110.487 57.8158 110.447 57.7647C110.411 57.7306 110.382 57.6895 110.363 57.6441L109.537 55.8753L108.7 56.3577V58.6161C108.699 58.6908 108.681 58.7644 108.649 58.8317C108.626 58.8925 108.583 58.9439 108.528 58.9779L108.02 59.2739C108.003 59.2886 107.982 59.2966 107.96 59.2966C107.938 59.2966 107.916 59.2886 107.9 59.2739C107.881 59.2531 107.867 59.2288 107.858 59.2024C107.849 59.176 107.846 59.1481 107.848 59.1204V52.8422C107.85 52.7687 107.868 52.6964 107.9 52.6303C107.924 52.5702 107.966 52.5191 108.02 52.4841L109.643 51.5449ZM108.7 55.1445L109.613 54.6182C109.843 54.4897 110.039 54.3095 110.187 54.092C110.342 53.8333 110.416 53.5342 110.399 53.2332C110.399 52.8678 110.33 52.6705 110.187 52.6303C109.984 52.6023 109.778 52.6548 109.613 52.7764L108.7 53.3027V55.1445Z" fill="#FAFAFA"/>
<path d="M115.007 54.0257C115.023 54.0113 115.044 54.0034 115.066 54.0034C115.087 54.0034 115.108 54.0113 115.124 54.0257C115.143 54.0465 115.157 54.0708 115.166 54.0972C115.174 54.1236 115.178 54.1515 115.175 54.1792V54.8662C115.174 54.9409 115.157 55.0145 115.124 55.0818C115.1 55.1409 115.06 55.1916 115.007 55.228L112.241 56.825C112.225 56.8404 112.203 56.849 112.181 56.849C112.158 56.849 112.137 56.8404 112.12 56.825C112.102 56.8042 112.088 56.7799 112.079 56.7535C112.07 56.7271 112.067 56.6992 112.069 56.6715V50.4079C112.07 50.3332 112.088 50.2596 112.12 50.1923C112.145 50.1328 112.187 50.082 112.241 50.0461L114.956 48.4784C114.972 48.464 114.993 48.4561 115.015 48.4561C115.036 48.4561 115.057 48.464 115.073 48.4784C115.092 48.4986 115.107 48.5229 115.116 48.5494C115.125 48.5759 115.127 48.6041 115.124 48.6319V49.3335C115.124 49.4072 115.107 49.4799 115.073 49.5455C115.049 49.6045 115.008 49.6553 114.956 49.6916L112.921 50.8683V52.4068L114.817 51.3105C114.834 51.2959 114.855 51.2878 114.877 51.2878C114.9 51.2878 114.921 51.2959 114.938 51.3105C114.956 51.3322 114.969 51.3573 114.977 51.3843C114.986 51.4113 114.988 51.4396 114.985 51.4677V52.1547C114.985 52.228 114.969 52.3004 114.938 52.3666C114.912 52.4265 114.87 52.4782 114.817 52.5165L112.921 53.6128V55.2207L115.007 54.0257Z" fill="#FAFAFA"/>
<path d="M90.681 70.2731L86.8074 72.5169C86.0144 72.9737 85.3712 72.3488 85.3712 71.1282V68.4934C85.3692 68.3597 85.3978 68.2273 85.4548 68.1063C85.5118 67.9853 85.5957 67.879 85.7001 67.7954L87.1618 66.9476C87.3446 66.8416 87.4907 66.9841 87.4907 67.2655C87.4936 67.3994 87.4654 67.5321 87.4083 67.6532C87.3512 67.7743 87.2669 67.8805 87.1618 67.9635L86.0253 68.6213V70.7481C86.0253 71.4096 86.3908 71.7494 86.8001 71.5009L90.681 69.2498C90.9276 69.0519 91.1257 68.8001 91.2599 68.5138C91.3942 68.2275 91.4612 67.9143 91.4557 67.5981V65.4822L90.3156 66.14C90.1365 66.2459 89.9867 66.1034 89.9867 65.822C89.9846 65.6883 90.0132 65.5559 90.0702 65.4349C90.1272 65.314 90.2112 65.2076 90.3156 65.1241L91.7773 64.2762C91.96 64.1739 92.1062 64.3128 92.1062 64.5942V67.229C92.1428 68.4495 91.4813 69.8163 90.681 70.2731Z" fill="#FAFAFA"/>
<path d="M88.7475 68.2634C88.5684 68.3694 88.4186 68.2268 88.4186 67.9455V62.0583C88.4163 61.9245 88.4448 61.792 88.5018 61.671C88.5588 61.55 88.6429 61.4437 88.7475 61.3603C88.9302 61.2543 89.08 61.3968 89.08 61.6746V67.5654C89.0822 67.6995 89.0533 67.8323 88.9956 67.9534C88.9379 68.0745 88.853 68.1806 88.7475 68.2634Z" fill="#FAFAFA"/>
<path d="M90.5744 63.9077C90.5425 63.9355 90.5016 63.9508 90.4593 63.9508C90.417 63.9508 90.3761 63.9355 90.3442 63.9077L88.7472 62.3765L87.1539 65.7495C87.026 66.0236 86.8177 66.1442 86.6898 66.0199C86.6234 65.9096 86.5884 65.7833 86.5884 65.6545C86.5884 65.5257 86.6234 65.3994 86.6898 65.2891L88.517 61.4227C88.6449 61.1487 88.8532 61.0317 88.9811 61.1523L90.8083 62.9101C90.8747 63.0204 90.9097 63.1467 90.9097 63.2755C90.9097 63.4043 90.8747 63.5306 90.8083 63.6409C90.7581 63.7508 90.6768 63.8436 90.5744 63.9077Z" fill="#FAFAFA"/>
</svg>
