<svg width="256" height="256" viewBox="0 0 256 256" fill="none" xmlns="http://www.w3.org/2000/svg">
<path d="M182.367 23.2357L176.153 19.6167L28.7866 107.335V238.699C28.7866 240.811 29.5256 242.289 30.6814 242.981L34.632 245.273C35.8352 245.965 37.4741 245.87 39.3216 244.809L175.688 166.072C177.619 164.813 179.226 163.116 180.378 161.119C181.53 159.123 182.196 156.883 182.32 154.581L182.367 23.2357Z" fill="#E6E6E6"/>
<path opacity="0.15" d="M28.7866 125.042V238.728C28.7866 240.84 29.5256 242.318 30.6814 243.01L34.632 245.302C35.161 245.59 35.754 245.74 36.3562 245.738L32.6898 241.001V127.249L28.7866 125.042Z" fill="black"/>
<path d="M36.4134 244.96C37.327 244.916 38.214 244.638 38.9903 244.155L175.357 165.418C177.174 164.228 178.685 162.629 179.77 160.748C180.854 158.867 181.481 156.757 181.6 154.589V24.561L33.5049 110.072V240.99C33.5049 243.52 34.5944 244.96 36.4134 244.96Z" fill="#FAFAFA"/>
<path d="M180.833 25.8875V154.589C180.708 156.622 180.113 158.597 179.095 160.361C178.078 162.125 176.665 163.628 174.969 164.755L38.6022 243.52C37.9441 243.936 37.1909 244.177 36.4137 244.221C34.519 244.221 34.2727 241.985 34.2727 241.019V110.508L180.833 25.8875ZM182.368 23.2349L32.7568 109.627V240.99C32.7568 243.984 34.2537 245.727 36.4327 245.727C37.4842 245.677 38.5039 245.35 39.3885 244.78L175.755 166.043C177.686 164.784 179.293 163.087 180.445 161.09C181.597 159.093 182.263 156.853 182.387 154.551V23.2349H182.368Z" fill="#E0E0E0"/>
<path d="M176.532 10.7492C175.328 10.0102 173.689 10.086 171.795 11.166L35.4183 89.9029C33.4877 91.1603 31.881 92.8554 30.7287 94.8506C29.5764 96.8457 28.911 99.0845 28.7866 101.385V107.335L32.7372 109.627L182.367 23.2357V17.2861C182.367 15.1829 181.628 13.705 180.473 13.0134C179.317 12.3218 177.612 11.4124 176.532 10.7492Z" fill="#F7921E"/>
<path d="M32.7568 103.678C32.8842 101.378 33.5508 99.1401 34.7029 97.1455C35.8549 95.1508 37.46 93.4551 39.3885 92.1955L175.755 13.4586C179.412 11.346 182.387 13.0607 182.387 17.2482V23.1977L32.7568 109.627V103.678Z" fill="#F7921E"/>
<path opacity="0.3" d="M32.7568 103.678C32.8842 101.378 33.5508 99.1401 34.7029 97.1455C35.8549 95.1508 37.46 93.4551 39.3885 92.1955L175.755 13.4586C179.412 11.346 182.387 13.0607 182.387 17.2482V23.1977L32.7568 109.627V103.678Z" fill="white"/>
<path d="M180.549 13.0511C179.336 12.3027 177.707 12.3785 175.812 13.4585L39.3881 92.1953C37.4122 93.4116 35.7813 95.1143 34.6512 97.1407L30.6816 94.867C31.8126 92.8362 33.443 91.1275 35.4186 89.9027L171.785 11.1564C173.68 10.0858 175.329 10.01 176.522 10.749C177.716 11.4879 179.364 12.3595 180.444 13.0037C180.463 13.0227 180.492 13.0322 180.549 13.0511Z" fill="#F7921E"/>
<path opacity="0.45" d="M180.549 13.0511C179.336 12.3027 177.707 12.3785 175.812 13.4585L39.3881 92.1953C37.4122 93.4116 35.7813 95.1143 34.6512 97.1407L30.6816 94.867C31.8126 92.8362 33.443 91.1275 35.4186 89.9027L171.785 11.1564C173.68 10.0858 175.329 10.01 176.522 10.749C177.716 11.4879 179.364 12.3595 180.444 13.0037C180.463 13.0227 180.492 13.0322 180.549 13.0511Z" fill="white"/>
<path d="M159.214 27.5841C158.534 28.0198 157.967 28.6099 157.559 29.3063C157.15 30.0027 156.912 30.7857 156.864 31.5915C156.864 33.0694 157.897 33.6662 159.176 32.9368C159.851 32.4963 160.412 31.9032 160.816 31.2054C161.219 30.5075 161.452 29.7246 161.497 28.9199C161.535 27.4419 160.493 26.8451 159.214 27.5841Z" fill="#FAFAFA"/>
<path d="M167.285 22.9224C166.612 23.3613 166.051 23.953 165.65 24.6493C165.248 25.3457 165.016 26.1271 164.974 26.9299C164.974 28.4078 166.006 29.0046 167.285 28.2657C167.96 27.8273 168.522 27.2359 168.925 26.5396C169.329 25.8433 169.562 25.0617 169.606 24.2582C169.635 22.7803 168.593 22.1835 167.285 22.9224Z" fill="#FAFAFA"/>
<path d="M175.414 18.253C174.741 18.693 174.182 19.2849 173.78 19.9811C173.379 20.6772 173.146 21.458 173.102 22.2604C173.102 23.7383 174.135 24.3447 175.414 23.6057C176.089 23.1653 176.651 22.5722 177.054 21.8743C177.457 21.1765 177.691 20.3935 177.735 19.5888C177.707 18.1204 176.693 17.514 175.414 18.253Z" fill="#FAFAFA"/>
<path d="M32.7371 109.628V127.249L182.367 40.8856V23.2358L32.7371 109.628Z" fill="#EBEBEB"/>
<path d="M38.7531 110.547L54.0724 101.745V110.528L38.7437 119.376L38.7531 110.547Z" fill="#E0E0E0"/>
<path d="M57.8628 99.519V102.986L65.5082 98.5717V95.1042L57.8628 99.519Z" fill="#E0E0E0"/>
<path d="M57.8628 104.881V108.348L65.5082 103.933V100.466L57.8628 104.881Z" fill="#E0E0E0"/>
<path d="M69.325 92.8965V96.3639L76.9704 91.9491V88.4817L69.325 92.8965Z" fill="#E0E0E0"/>
<path d="M69.325 98.2578V101.725L76.9704 97.3104V93.843L69.325 98.2578Z" fill="#E0E0E0"/>
<path d="M80.7981 86.2742V89.7416L88.4435 85.3268V81.8594L80.7981 86.2742Z" fill="#E0E0E0"/>
<path d="M80.7981 91.6372V95.1046L88.4435 90.6898V87.2224L80.7981 91.6372Z" fill="#E0E0E0"/>
<path d="M115.198 66.417V69.8844L122.843 65.4696V62.0022L115.198 66.417Z" fill="#E0E0E0"/>
<path d="M115.198 71.7798V75.2472L122.843 70.8324V67.365L115.198 71.7798Z" fill="#E0E0E0"/>
<path d="M126.661 59.7947V63.2621L134.306 58.8473V55.3799L126.661 59.7947Z" fill="#E0E0E0"/>
<path d="M126.661 65.1575V68.6249L134.306 64.2101V60.7427L126.661 65.1575Z" fill="#E0E0E0"/>
<path d="M138.125 53.1724L138.134 56.6398L145.78 52.225V48.7576L138.125 53.1724Z" fill="#E0E0E0"/>
<path d="M138.125 58.5342L138.134 62.0016L145.78 57.5868V54.1194L138.125 58.5342Z" fill="#E0E0E0"/>
<path d="M92.2612 79.6517L111.37 68.6147V77.4443L92.2612 88.4813V79.6517Z" fill="#E0E0E0"/>
<path d="M149.597 46.5502L164.926 37.749V46.5313L149.597 55.3798V46.5502Z" fill="#E0E0E0"/>
<path d="M168.716 35.5134V38.9903L176.362 34.5755V31.0986L168.716 35.5134Z" fill="#E0E0E0"/>
<path d="M168.716 40.8755V44.3524L176.362 39.9376V36.4607L168.716 40.8755Z" fill="#E0E0E0"/>
<path d="M32.7372 109.626L28.7866 107.381V125.04L32.7372 127.248V109.626Z" fill="#E0E0E0"/>
<path d="M38.592 127.826L38.3835 127.94V239.854L176.465 160.151V48.2083L38.592 127.826ZM55.5407 228.969L39.2267 238.386V231.46L55.5407 222.043V228.969ZM55.5407 221.058L39.2267 230.475V223.54L55.5407 214.152V221.058ZM55.5407 213.138L39.2267 222.555V215.611L55.5407 206.194V213.138ZM55.5407 205.208L39.2267 214.625V207.671L55.5407 198.264V205.208ZM55.5407 197.288L39.2267 206.705V199.751L55.5407 190.334V197.288ZM55.5407 189.359L39.2267 198.776V191.822L55.5407 182.414V189.359ZM55.5407 181.438L39.2267 190.855V183.902L55.5407 174.485V181.438ZM55.5407 173.518L39.2267 182.888V175.972L55.5407 166.565V173.518ZM55.5407 165.589L39.2267 175.006V168.052L55.5407 158.635V165.589ZM55.5407 157.659L39.2267 167.076V160.151L55.5407 150.677V157.659ZM55.5407 149.739L39.2267 159.203V152.25L55.5407 142.833V149.739ZM55.5407 141.81L39.2267 151.226V144.273L55.5407 134.865V141.81ZM55.5407 133.889L39.2267 143.297V136.353L55.5407 126.936V133.889ZM55.5407 125.95L39.2267 135.367V128.432L55.5407 119.016V125.95ZM72.6979 219.059L56.3839 228.476V221.551L72.6979 212.134V219.059ZM72.6979 211.167L56.3839 220.584V213.631L72.6979 204.214V211.167ZM72.6979 203.238L56.3839 212.655V205.701L72.6979 196.284V203.238ZM72.6979 195.318L56.3839 204.735V197.781L72.6979 188.364V195.318ZM72.6979 187.388L56.3839 196.805V189.851L72.6979 180.434V187.388ZM72.6979 179.458L56.3839 188.875V181.941L72.6979 172.524V179.458ZM72.6979 171.529L56.3839 180.993V174.049L72.6979 164.632V171.529ZM72.6979 163.609L56.3839 173.026V166.081L72.6979 156.664V163.609ZM72.6979 155.679L56.3839 165.096V158.142L72.6979 148.725V155.679ZM72.6979 147.759L56.3839 157.176V150.222L72.6979 140.805V147.759ZM72.6979 139.829L56.3839 149.246V142.293L72.6979 132.876V139.829ZM72.6979 131.909L56.3839 141.326V134.373L72.6979 124.956V131.909ZM72.6979 123.98L56.3839 133.397V126.443L72.6979 117.026V123.98ZM72.6979 116.06L56.3839 125.477V118.523L72.6979 109.106V116.06ZM89.8361 209.149L73.4937 218.566V211.641L89.7982 202.234L89.8361 209.149ZM89.8361 201.258L73.4937 210.675V203.73L89.7982 194.313L89.8361 201.258ZM89.8361 193.328L73.4937 202.783V195.829L89.7982 186.412L89.8361 193.328ZM89.8361 185.408L73.4937 194.825V187.871L89.7982 178.454L89.8361 185.408ZM89.8361 177.478L73.4937 186.895V179.942L89.8361 170.572V177.478ZM89.8361 169.558L73.4937 178.975V172.022L89.7982 162.605L89.8361 169.558ZM89.8361 161.629L73.4937 171.046V164.092L89.7982 154.675L89.8361 161.629ZM89.8361 153.709L73.4937 163.126V156.172L89.7982 146.755L89.8361 153.709ZM89.8361 145.779L73.4937 155.196V148.242L89.7982 138.825L89.8361 145.779ZM89.8361 137.859L73.4937 147.266V140.322L89.7982 130.905L89.8361 137.859ZM89.8361 129.92L73.4937 139.308V132.393L89.7982 122.976L89.8361 129.92ZM89.8361 122L73.4937 131.417V124.472L89.7982 115.055L89.8361 122ZM89.8361 114.07L73.4937 123.487V116.571L89.8361 107.097V114.07ZM89.8361 106.15L73.4937 115.567V108.613L89.7982 99.1963L89.8361 106.15ZM106.993 199.249L90.6887 208.723V201.741L106.993 192.362V199.249ZM106.993 191.358L90.6887 200.775V193.821L106.993 184.404V191.358ZM106.993 183.428L90.6887 192.835V185.891L106.993 176.474V183.428ZM106.993 175.498L90.6887 184.915V177.971L106.993 168.554V175.498ZM106.993 167.569L90.6887 176.986V170.041L106.993 160.625V167.569ZM106.993 159.649L90.6887 169.066V162.112L106.993 152.704V159.649ZM106.993 151.719L90.6887 161.098V154.182L106.993 144.765V151.719ZM106.993 143.799L90.6887 153.216V146.262L106.993 136.845V143.799ZM106.993 135.869L90.6887 145.286V138.361L106.993 128.887V135.869ZM106.993 127.949L90.6887 137.414V130.46L106.993 121.043V127.949ZM106.993 120.02L90.6887 129.437V122.483L106.993 113.066V120.02ZM106.993 112.1L90.6887 121.517V114.563L106.993 105.146V112.1ZM106.993 104.17L90.6887 113.587V106.633L106.993 97.2163V104.17ZM106.993 96.2499L90.6887 105.667V98.7131L106.993 89.2962V96.2499ZM124.15 189.349L107.846 198.766V191.841L124.15 182.424V189.349ZM124.15 181.448L107.846 190.865V183.911L124.15 174.494V181.448ZM124.15 173.518L107.846 182.945V175.991L124.15 166.574V173.518ZM124.15 165.598L107.846 175.015V168.061L124.15 158.644V165.598ZM124.15 157.669L107.846 167.086V160.151L124.15 150.734V157.669ZM124.15 149.749L107.846 159.203V152.25L124.15 142.833V149.749ZM124.15 141.819L107.846 151.236V144.292L124.15 134.875V141.819ZM124.15 133.889L107.846 143.306V136.362L124.15 126.992V133.889ZM124.15 125.96L107.846 135.377V128.442L124.15 119.016V125.96ZM124.15 118.04L107.846 127.457V120.512L124.15 111.095V118.04ZM124.15 110.11L107.846 119.527V112.583L124.15 103.166V110.11ZM124.15 102.19L107.846 111.607V104.653L124.15 95.2363V102.19ZM124.15 94.2605L107.846 103.677V96.7331L124.15 87.3162V94.2605ZM124.15 86.3403L107.846 95.7289V88.813L124.15 79.3866V86.3403ZM141.308 179.449L124.994 188.866V181.941L141.308 172.524V179.449ZM141.308 171.538L124.994 180.993V174.049L141.308 164.632V171.538ZM141.308 163.618L124.994 173.035V166.081L141.308 156.674V163.618ZM141.308 155.689L124.994 165.106V158.152L141.308 148.782V155.689ZM141.308 147.769L124.994 157.186V150.232L141.308 140.815V147.769ZM141.308 139.839L124.994 149.256V142.302L141.308 132.885V139.839ZM141.308 131.919L124.994 141.336V134.382L141.308 124.965V131.919ZM141.308 123.989L124.994 133.406V126.452L141.308 117.035V123.989ZM141.308 116.069L124.994 125.486V118.532L141.308 109.115V116.069ZM141.308 108.14L124.994 117.519V110.603L141.308 101.186V108.14ZM141.308 100.219L124.994 109.636V102.683L141.308 93.2657V100.219ZM141.308 92.2899L124.994 101.697V94.7815L141.308 85.3077V92.2899ZM141.308 84.3508L124.994 93.7773V86.833L141.308 77.416V84.3508ZM141.308 76.4307L124.994 85.8477V78.9129L141.308 69.4959V76.4307ZM158.465 169.539L142.151 178.956V172.031L158.465 162.614V169.539ZM158.465 161.638L142.151 171.055V164.101L158.465 154.684V161.638ZM158.465 153.718L142.151 163.135V156.181L158.465 146.764V153.718ZM158.465 145.789L142.151 155.205V148.252L158.465 138.835V145.789ZM158.465 137.859L142.151 147.276V140.332L158.465 130.915V137.859ZM158.465 129.929L142.151 139.308V132.364L158.465 122.947V129.929ZM158.465 122.009L142.151 131.426V124.482L158.465 115.065V122.009ZM158.465 114.08L142.151 123.497V116.571L158.465 107.097V114.08ZM158.465 106.16L142.151 115.624V108.67L158.465 99.2532V106.16ZM158.465 98.23L142.151 107.647V100.693L158.465 91.2762V98.23ZM158.465 90.3099L142.151 99.7268V92.7731L158.465 83.3561V90.3099ZM158.465 82.3803L142.151 91.7973V84.8435L158.465 75.4265V82.3803ZM158.465 74.4602L142.151 83.8772V76.9234L158.465 67.5064V74.4602ZM158.465 66.5306L142.151 75.9476V69.0033L158.465 59.5863V66.5306ZM175.622 159.63L159.308 169.047V162.121L175.622 152.704V159.63ZM175.622 151.729L159.308 161.146V154.192L175.622 144.775V151.729ZM175.622 143.808L159.308 153.225V146.272L175.622 136.855V143.808ZM175.622 135.879L159.308 145.296V138.361L175.622 128.887V135.879ZM175.622 127.959L159.308 137.414V130.46L175.622 121.043V127.959ZM175.622 120.029L159.308 129.446V122.492L175.622 113.075V120.029ZM175.622 112.109L159.308 121.526V114.572L175.622 105.203V112.109ZM175.622 104.18L159.308 113.596V106.643L175.622 97.2257V104.18ZM175.622 96.2594L159.308 105.667V98.7226L175.622 89.3057V96.2594ZM175.622 88.3204L159.308 97.7373V90.7931L175.622 81.3761V88.3204ZM175.622 80.4003L159.308 89.8172V82.8729L175.622 73.456V80.4003ZM175.622 72.4707L159.308 81.8877V74.9434L175.622 65.5264V72.4707ZM175.622 64.5506L159.308 73.9391V66.9854L175.622 57.5684V64.5506ZM175.622 56.621L159.308 66.038V59.0937L175.622 49.6767V56.621Z" fill="#E0E0E0"/>
<path d="M182.367 23.2357L176.153 19.6167L28.7866 107.335V238.699C28.7866 240.811 29.5256 242.289 30.6814 242.981L34.632 245.273C35.8352 245.965 37.4741 245.87 39.3216 244.809L175.688 166.072C177.619 164.813 179.226 163.116 180.378 161.119C181.53 159.123 182.196 156.883 182.32 154.581L182.367 23.2357Z" fill="#E6E6E6"/>
<path opacity="0.15" d="M28.7866 125.042V238.728C28.7866 240.84 29.5256 242.318 30.6814 243.01L34.632 245.302C35.161 245.59 35.754 245.74 36.3562 245.738L32.6898 241.001V127.249L28.7866 125.042Z" fill="black"/>
<path d="M36.4134 244.96C37.327 244.916 38.214 244.638 38.9903 244.155L175.357 165.418C177.174 164.228 178.685 162.629 179.77 160.748C180.854 158.867 181.481 156.757 181.6 154.589V24.561L33.5049 110.072V240.99C33.5049 243.52 34.5944 244.96 36.4134 244.96Z" fill="#FAFAFA"/>
<path d="M180.833 25.8875V154.589C180.708 156.622 180.113 158.597 179.095 160.361C178.078 162.125 176.665 163.628 174.969 164.755L38.6022 243.52C37.9441 243.936 37.1909 244.177 36.4137 244.221C34.519 244.221 34.2727 241.985 34.2727 241.019V110.508L180.833 25.8875ZM182.368 23.2349L32.7568 109.627V240.99C32.7568 243.984 34.2537 245.727 36.4327 245.727C37.4842 245.677 38.5039 245.35 39.3885 244.78L175.755 166.043C177.686 164.784 179.293 163.087 180.445 161.09C181.597 159.093 182.263 156.853 182.387 154.551V23.2349H182.368Z" fill="#E0E0E0"/>
<path d="M176.532 10.7492C175.328 10.0102 173.689 10.086 171.795 11.166L35.4183 89.9029C33.4877 91.1603 31.881 92.8554 30.7287 94.8506C29.5764 96.8457 28.911 99.0845 28.7866 101.385V107.335L32.7372 109.627L182.367 23.2357V17.2861C182.367 15.1829 181.628 13.705 180.473 13.0134C179.317 12.3218 177.612 11.4124 176.532 10.7492Z" fill="#F7921E"/>
<path d="M32.7568 103.678C32.8842 101.378 33.5508 99.1401 34.7029 97.1455C35.8549 95.1508 37.46 93.4551 39.3885 92.1955L175.755 13.4586C179.412 11.346 182.387 13.0607 182.387 17.2482V23.1977L32.7568 109.627V103.678Z" fill="#F7921E"/>
<path d="M180.549 13.0511C179.336 12.3027 177.707 12.3785 175.812 13.4585L39.3881 92.1953C37.4122 93.4116 35.7813 95.1143 34.6512 97.1407L30.6816 94.867C31.8126 92.8362 33.443 91.1275 35.4186 89.9027L171.785 11.1564C173.68 10.0858 175.329 10.01 176.522 10.749C177.716 11.4879 179.364 12.3595 180.444 13.0037C180.463 13.0227 180.492 13.0322 180.549 13.0511Z" fill="#F7921E"/>
<path opacity="0.45" d="M180.549 13.0511C179.336 12.3027 177.707 12.3785 175.812 13.4585L39.3881 92.1953C37.4122 93.4116 35.7813 95.1143 34.6512 97.1407L30.6816 94.867C31.8126 92.8362 33.443 91.1275 35.4186 89.9027L171.785 11.1564C173.68 10.0858 175.329 10.01 176.522 10.749C177.716 11.4879 179.364 12.3595 180.444 13.0037C180.463 13.0227 180.492 13.0322 180.549 13.0511Z" fill="white"/>
<path d="M159.214 27.5841C158.534 28.0198 157.967 28.6099 157.559 29.3063C157.15 30.0027 156.912 30.7857 156.864 31.5915C156.864 33.0694 157.897 33.6662 159.176 32.9368C159.851 32.4963 160.412 31.9032 160.816 31.2054C161.219 30.5075 161.452 29.7246 161.497 28.9199C161.535 27.4419 160.493 26.8451 159.214 27.5841Z" fill="#FAFAFA"/>
<path d="M167.285 22.9224C166.612 23.3613 166.051 23.953 165.65 24.6493C165.248 25.3457 165.016 26.1271 164.974 26.9299C164.974 28.4078 166.006 29.0046 167.285 28.2657C167.96 27.8273 168.522 27.2359 168.925 26.5396C169.329 25.8433 169.562 25.0617 169.606 24.2582C169.635 22.7803 168.593 22.1835 167.285 22.9224Z" fill="#FAFAFA"/>
<path d="M175.414 18.253C174.741 18.693 174.182 19.2849 173.78 19.9811C173.379 20.6772 173.146 21.458 173.102 22.2604C173.102 23.7383 174.135 24.3447 175.414 23.6057C176.089 23.1653 176.651 22.5722 177.054 21.8743C177.457 21.1765 177.691 20.3935 177.735 19.5888C177.707 18.1204 176.693 17.514 175.414 18.253Z" fill="#FAFAFA"/>
<path d="M32.7371 109.627V127.248L182.367 40.8846V23.2349L32.7371 109.627Z" fill="#EBEBEB"/>
<path d="M38.7531 110.547L54.0724 101.745V110.528L38.7437 119.376L38.7531 110.547Z" fill="#E0E0E0"/>
<path d="M57.8628 99.519V102.986L65.5082 98.5717V95.1042L57.8628 99.519Z" fill="#E0E0E0"/>
<path d="M57.8628 104.881V108.348L65.5082 103.933V100.466L57.8628 104.881Z" fill="#E0E0E0"/>
<path d="M69.325 92.8965V96.3639L76.9704 91.9491V88.4817L69.325 92.8965Z" fill="#E0E0E0"/>
<path d="M69.325 98.2595V101.727L76.9704 97.3121V93.8447L69.325 98.2595Z" fill="#E0E0E0"/>
<path d="M80.7981 86.2742V89.7416L88.4435 85.3268V81.8594L80.7981 86.2742Z" fill="#E0E0E0"/>
<path d="M80.7981 91.6372V95.1046L88.4435 90.6898V87.2224L80.7981 91.6372Z" fill="#E0E0E0"/>
<path d="M115.198 66.417V69.8844L122.843 65.4696V62.0022L115.198 66.417Z" fill="#E0E0E0"/>
<path d="M115.198 71.7781V75.2455L122.843 70.8307V67.3633L115.198 71.7781Z" fill="#E0E0E0"/>
<path d="M126.661 59.7947V63.2621L134.306 58.8473V55.3799L126.661 59.7947Z" fill="#E0E0E0"/>
<path d="M126.661 65.1575V68.6249L134.306 64.2101V60.7427L126.661 65.1575Z" fill="#E0E0E0"/>
<path d="M138.125 53.1731L138.134 56.6405L145.78 52.2257V48.7583L138.125 53.1731Z" fill="#E0E0E0"/>
<path d="M138.125 58.5342L138.134 62.0016L145.78 57.5868V54.1194L138.125 58.5342Z" fill="#E0E0E0"/>
<path d="M92.2612 79.6517L111.37 68.6147V77.4443L92.2612 88.4813V79.6517Z" fill="#E0E0E0"/>
<path d="M149.597 46.5502L164.926 37.749V46.5313L149.597 55.3798V46.5502Z" fill="#E0E0E0"/>
<path d="M168.716 35.5134V38.9903L176.362 34.5755V31.0986L168.716 35.5134Z" fill="#E0E0E0"/>
<path d="M168.716 40.8755V44.3524L176.362 39.9376V36.4607L168.716 40.8755Z" fill="#E0E0E0"/>
<path fill-rule="evenodd" clip-rule="evenodd" d="M48.0565 127.351L47.685 127.55L46.8169 227.02L48.3144 226.838L77.4007 210.385L78.9032 209.625L107.99 193.172L109.41 192.226L138.479 175.773L140.067 174.913L169.136 158.46L170.652 158.139L170.671 155.885L170.779 143.566L170.794 141.818L170.901 129.516L170.917 127.768L171.024 115.449L171.039 113.701L171.147 101.382L171.162 99.6508L171.27 87.3149L171.285 85.5839L171.392 73.2648L171.408 71.4833L171.515 59.2147L171.143 57.9746L48.0565 127.351ZM48.3301 225.039L77.4157 208.67L77.5233 196.335L48.4371 212.771L48.3301 225.039ZM48.4521 211.057L77.5384 194.604L77.6461 182.268L48.5598 198.721L48.4521 211.057ZM48.5749 196.99L77.6612 180.537L77.7693 168.15L48.6821 184.704L48.5749 196.99ZM48.6968 183.024L77.7838 166.487L77.8907 154.235L48.8044 170.688L48.6968 183.024ZM48.8202 168.873L77.9066 152.42L78.0141 140.101L48.9279 156.537L48.8202 168.873ZM48.943 154.806L78.0292 138.37L78.1368 126.034L49.0505 142.487L48.943 154.806ZM49.0658 140.739L78.1521 124.286L78.2594 111.984L49.1731 128.437L49.0658 140.739ZM78.9191 207.81L108.005 191.357L108.113 179.038L79.0266 195.491L78.9191 207.81ZM79.0418 193.743L108.128 177.29L108.236 164.954L79.1495 181.407L79.0418 193.743ZM79.1644 179.693L108.251 163.24L108.358 150.904L79.2721 167.357L79.1644 179.693ZM79.2872 165.626L108.373 149.173L108.481 136.837L79.3948 153.29L79.2872 165.626ZM79.4098 151.576L108.496 135.123L108.604 122.787L79.5175 139.24L79.4098 151.576ZM79.5326 137.509L108.619 121.056L108.727 108.72L79.6402 125.173L79.5326 137.509ZM79.6552 123.459L108.741 107.006L108.849 94.6698L79.7628 111.123L79.6552 123.459ZM109.425 190.512L138.561 174.059L138.602 161.723L109.532 178.176L109.425 190.512ZM109.547 176.445L138.684 159.992L138.725 147.656L109.655 164.109L109.547 176.445ZM109.67 162.378L138.807 145.942L138.847 133.606L109.778 150.059L109.67 162.378ZM109.793 148.261L138.93 131.859L138.97 119.539L109.9 135.992L109.793 148.261ZM109.915 134.261L139.052 117.809L139.092 105.489L110.023 121.942L109.915 134.261ZM110.038 120.194L139.175 103.742L139.283 91.3721L110.145 107.925L110.038 120.194ZM110.161 106.144L139.298 89.6915L139.338 77.3551L110.268 93.8082L110.161 106.144ZM140.081 173.199L169.151 156.745L169.259 144.41L140.189 160.863L140.081 173.199ZM140.204 159.132L169.274 142.679L169.382 130.292L140.311 146.846L140.204 159.132ZM140.326 145.166L169.396 128.629L169.503 116.377L140.434 132.83L140.326 145.166ZM140.45 131.015L169.519 114.562L169.627 102.226L140.557 118.679L140.45 131.015ZM140.572 116.965L169.642 100.512L169.749 88.1756L140.68 104.629L140.572 116.965ZM140.695 102.898L169.765 86.4446L169.872 74.1088L140.803 90.5618L140.695 102.898ZM140.818 88.8476L169.887 72.3945L169.995 60.0586L140.925 76.5117L140.818 88.8476Z" fill="#E0E0E0"/>
<path d="M134.095 89.2199L116.592 99.7333C115.844 100.177 115.251 99.6776 115.269 98.6353C115.286 98.0928 115.421 97.5619 115.662 97.0854C115.904 96.6089 116.245 96.2 116.659 95.8917L134.162 85.3837C134.91 84.9345 135.503 85.4339 135.484 86.4816C135.467 87.0232 135.332 87.553 135.09 88.0285C134.849 88.5041 134.508 88.9121 134.095 89.2199Z" fill="#E0E0E0"/>
<path d="M133.85 103.218L116.348 113.731C115.599 114.175 115.007 113.675 115.025 112.633C115.042 112.091 115.177 111.56 115.418 111.083C115.659 110.607 116.001 110.198 116.415 109.889L133.917 99.3815C134.666 98.9323 135.258 99.4317 135.24 100.479C135.222 101.021 135.087 101.551 134.846 102.026C134.604 102.502 134.264 102.91 133.85 103.218Z" fill="#E0E0E0"/>
<path d="M133.606 117.216L116.103 127.729C115.355 128.173 114.762 127.673 114.78 126.631C114.798 126.089 114.932 125.558 115.174 125.081C115.415 124.605 115.756 124.196 116.17 123.888L133.673 113.38C134.421 112.93 135.014 113.43 134.996 114.477C134.978 115.019 134.843 115.549 134.601 116.024C134.36 116.5 134.019 116.908 133.606 117.216Z" fill="#E0E0E0"/>
<path d="M133.362 131.214L115.859 141.727C115.111 142.171 114.518 141.671 114.536 140.629C114.553 140.086 114.688 139.556 114.93 139.079C115.171 138.603 115.512 138.194 115.926 137.885L133.429 127.377C134.177 126.928 134.77 127.428 134.752 128.475C134.734 129.017 134.599 129.547 134.357 130.022C134.116 130.498 133.775 130.906 133.362 131.214Z" fill="#E0E0E0"/>
<path d="M132.873 159.209L115.37 169.723C114.622 170.166 114.029 169.667 114.048 168.625C114.065 168.082 114.199 167.551 114.441 167.075C114.682 166.598 115.023 166.189 115.437 165.881L132.94 155.373C133.688 154.924 134.281 155.423 134.263 156.471C134.245 157.012 134.11 157.542 133.869 158.018C133.627 158.493 133.286 158.901 132.873 159.209Z" fill="#E0E0E0"/>
<path d="M132.629 173.207L115.126 183.721C114.378 184.164 113.785 183.665 113.803 182.623C113.82 182.08 113.955 181.549 114.196 181.073C114.438 180.596 114.779 180.187 115.193 179.879L132.696 169.371C133.444 168.922 134.037 169.421 134.018 170.469C134 171.01 133.865 171.54 133.624 172.016C133.383 172.491 133.042 172.899 132.629 173.207Z" fill="#E0E0E0"/>
<path d="M165.085 71.2143L147.582 81.7277C146.834 82.1714 146.241 81.672 146.259 80.6297C146.277 80.0872 146.411 79.5563 146.653 79.0798C146.894 78.6032 147.235 78.1943 147.649 77.886L165.152 67.378C165.9 66.9289 166.493 67.4283 166.475 68.476C166.457 69.0176 166.322 69.5474 166.08 70.0229C165.839 70.4984 165.498 70.9065 165.085 71.2143Z" fill="#E0E0E0"/>
<path d="M164.841 85.2123L147.338 95.7257C146.59 96.1695 145.997 95.67 146.015 94.6277C146.032 94.0853 146.167 93.5544 146.408 93.0778C146.65 92.6013 146.991 92.1924 147.405 91.8841L164.908 81.3761C165.656 80.9269 166.249 81.4264 166.23 82.4741C166.212 83.0156 166.077 83.5454 165.836 84.021C165.595 84.4965 165.254 84.9045 164.841 85.2123Z" fill="#E0E0E0"/>
<path d="M164.352 113.208L146.849 123.721C146.101 124.165 145.508 123.666 145.526 122.623C145.543 122.081 145.678 121.55 145.92 121.073C146.161 120.597 146.502 120.188 146.916 119.88L164.419 109.372C165.167 108.923 165.76 109.422 165.742 110.47C165.724 111.011 165.589 111.541 165.347 112.017C165.106 112.492 164.765 112.9 164.352 113.208Z" fill="#E0E0E0"/>
<path d="M163.885 99.6894L146.382 110.203C145.634 110.647 145.041 110.147 145.059 109.105C145.076 108.562 145.211 108.031 145.452 107.555C145.694 107.078 146.035 106.669 146.449 106.361L163.952 95.8531C164.7 95.404 165.293 95.9034 165.274 96.9511C165.257 97.4927 165.122 98.0225 164.88 98.498C164.639 98.9735 164.298 99.3816 163.885 99.6894Z" fill="#E0E0E0"/>
<path d="M164.108 127.206L146.605 137.719C145.857 138.163 145.264 137.663 145.282 136.621C145.299 136.079 145.434 135.548 145.675 135.071C145.917 134.595 146.258 134.186 146.672 133.877L164.175 123.369C164.923 122.92 165.516 123.42 165.497 124.467C165.479 125.009 165.344 125.539 165.103 126.014C164.862 126.49 164.521 126.898 164.108 127.206Z" fill="#E0E0E0"/>
<path d="M163.863 141.204L146.36 151.717C145.612 152.161 145.02 151.662 145.038 150.619C145.055 150.077 145.19 149.546 145.431 149.069C145.672 148.593 146.014 148.184 146.428 147.876L163.93 137.368C164.679 136.918 165.271 137.418 165.253 138.466C165.235 139.007 165.1 139.537 164.859 140.012C164.617 140.488 164.276 140.896 163.863 141.204Z" fill="#E0E0E0"/>
<path d="M73.0494 137.456L55.5465 147.969C54.7983 148.413 54.2056 147.914 54.2238 146.871C54.241 146.329 54.3756 145.798 54.617 145.321C54.8584 144.845 55.1997 144.436 55.6135 144.128L73.1164 133.62C73.8647 133.171 74.4573 133.67 74.439 134.718C74.4211 135.259 74.2861 135.789 74.0448 136.265C73.8034 136.74 73.4625 137.148 73.0494 137.456Z" fill="#E0E0E0"/>
<path d="M72.805 151.454L55.3021 161.967C54.5539 162.411 53.9613 161.912 53.9794 160.869C53.9966 160.327 54.1312 159.796 54.3726 159.319C54.614 158.843 54.9553 158.434 55.3692 158.126L72.872 147.618C73.6203 147.168 74.2129 147.668 74.1946 148.716C74.1768 149.257 74.0417 149.787 73.8004 150.262C73.5591 150.738 73.2181 151.146 72.805 151.454Z" fill="#E0E0E0"/>
<path d="M72.3165 179.45L54.8136 189.963C54.0653 190.407 53.4727 189.907 53.4909 188.865C53.508 188.323 53.6427 187.792 53.8841 187.315C54.1255 186.839 54.4668 186.43 54.8806 186.121L72.3835 175.613C73.1318 175.164 73.7244 175.664 73.7061 176.711C73.6882 177.253 73.5532 177.783 73.3119 178.258C73.0705 178.734 72.7296 179.142 72.3165 179.45Z" fill="#E0E0E0"/>
<path d="M72.0721 193.447L54.5692 203.961C53.821 204.405 53.2283 203.905 53.2465 202.863C53.2637 202.32 53.3983 201.789 53.6397 201.313C53.8811 200.836 54.2224 200.428 54.6362 200.119L72.1391 189.611C72.8874 189.162 73.48 189.661 73.4617 190.709C73.4438 191.251 73.3088 191.781 73.0675 192.256C72.8262 192.732 72.4852 193.14 72.0721 193.447Z" fill="#E0E0E0"/>
<path d="M103.156 120.337L85.6529 130.85C84.9047 131.294 84.3121 130.795 84.3303 129.752C84.3474 129.21 84.4821 128.679 84.7235 128.203C84.9648 127.726 85.3062 127.317 85.72 127.009L103.223 116.501C103.971 116.052 104.564 116.551 104.545 117.599C104.528 118.14 104.393 118.67 104.151 119.146C103.91 119.621 103.569 120.029 103.156 120.337Z" fill="#E0E0E0"/>
<path d="M102.667 148.333L85.1642 158.846C84.4159 159.29 83.8233 158.791 83.8415 157.748C83.8586 157.206 83.9933 156.675 84.2347 156.198C84.4761 155.722 84.8174 155.313 85.2312 155.005L102.734 144.497C103.482 144.048 104.075 144.547 104.057 145.595C104.039 146.136 103.904 146.666 103.662 147.142C103.421 147.617 103.08 148.025 102.667 148.333Z" fill="#E0E0E0"/>
<path d="M102.423 162.331L84.92 172.844C84.1718 173.288 83.5792 172.788 83.5974 171.746C83.6145 171.204 83.7492 170.673 83.9905 170.196C84.2319 169.72 84.5733 169.311 84.9871 169.002L102.49 158.494C103.238 158.045 103.831 158.545 103.813 159.592C103.795 160.134 103.66 160.664 103.418 161.139C103.177 161.615 102.836 162.023 102.423 162.331Z" fill="#E0E0E0"/>
<path d="M101.934 190.326L84.4312 200.84C83.683 201.283 83.0904 200.784 83.1086 199.742C83.1257 199.199 83.2604 198.668 83.5018 198.192C83.7432 197.715 84.0845 197.306 84.4983 196.998L102.001 186.49C102.749 186.041 103.342 186.54 103.324 187.588C103.306 188.13 103.171 188.659 102.93 189.135C102.688 189.611 102.347 190.019 101.934 190.326Z" fill="#E0E0E0"/>
<path d="M96.8621 128.728L98.6668 129.757L94.4852 136.996L98.6873 139.393L96.9029 142.485L92.6941 140.095L88.5193 147.328L86.7145 146.306L90.8961 139.067L86.6873 136.669L88.4784 133.57L92.6873 135.961L96.8621 128.728Z" fill="#F7921E"/>
<path d="M97.4102 170.37L99.2149 171.399L95.0333 178.638L99.2354 181.036L97.451 184.127L93.2422 181.737L89.0674 188.97L87.2626 187.948L91.4442 180.709L87.2354 178.311L89.0265 175.213L93.2354 177.603L97.4102 170.37Z" fill="#F7921E"/>
<path d="M159.835 148.97L161.64 149.998L157.458 157.238L161.66 159.635L159.876 162.727L155.667 160.337L151.492 167.569L149.687 166.548L153.869 159.308L149.66 156.911L151.451 153.812L155.66 156.203L159.835 148.97Z" fill="#F7921E"/>
<path d="M68.407 200.844L70.2117 201.873L66.0301 209.112L70.2322 211.51L68.4478 214.602L64.239 212.211L60.0642 219.444L58.2594 218.422L62.441 211.183L58.2322 208.785L60.0233 205.687L64.2322 208.077L68.407 200.844Z" fill="#F7921E"/>
<path d="M127.933 138.879L129.738 139.908L125.557 147.147L129.759 149.545L127.974 152.636L123.765 150.246L119.591 157.479L117.786 156.457L121.967 149.218L117.759 146.82L119.55 143.722L123.759 146.112L127.933 138.879Z" fill="#F7921E"/>
<path d="M67.7539 117.306L69.5587 118.334L65.3771 125.574L69.5791 127.971L67.7948 131.063L63.5859 128.673L59.4111 135.905L57.6063 134.884L61.788 127.644L57.5791 125.247L59.3703 122.148L63.5791 124.539L67.7539 117.306Z" fill="#F7921E"/>
<path d="M98.0857 99.9995L99.8905 101.028L95.7088 108.267L99.9109 110.665L98.1266 113.757L93.9177 111.366L89.7429 118.599L87.9381 117.577L92.1197 110.338L87.9109 107.94L89.702 104.842L93.9109 107.232L98.0857 99.9995Z" fill="#F7921E"/>
<path d="M67.6248 159.327L69.4295 160.356L65.2479 167.595L69.45 169.992L67.6656 173.084L63.4568 170.694L59.282 177.926L57.4772 176.905L61.6588 169.665L57.45 167.268L59.2411 164.169L63.45 166.56L67.6248 159.327Z" fill="#F7921E"/>
<path d="M182.963 154.993C182.88 154.994 182.798 154.973 182.726 154.932C182.654 154.891 182.594 154.831 182.554 154.759C182.49 154.65 182.471 154.52 182.502 154.398C182.534 154.276 182.612 154.171 182.721 154.107L184.793 152.912C184.904 152.849 185.036 152.832 185.159 152.866C185.282 152.899 185.386 152.981 185.45 153.091C185.513 153.202 185.529 153.334 185.496 153.457C185.462 153.58 185.381 153.684 185.27 153.747L183.197 154.951C183.122 154.987 183.038 155.001 182.955 154.993H182.963ZM188.487 151.8C188.384 151.798 188.284 151.763 188.202 151.699C188.121 151.635 188.062 151.546 188.036 151.446C188.01 151.345 188.017 151.239 188.056 151.144C188.095 151.048 188.164 150.967 188.253 150.914L190.326 149.719C190.38 149.687 190.44 149.665 190.502 149.657C190.565 149.648 190.628 149.652 190.689 149.668C190.75 149.685 190.807 149.713 190.857 149.752C190.906 149.791 190.948 149.84 190.978 149.895C191.039 150.005 191.055 150.135 191.022 150.256C190.989 150.378 190.911 150.482 190.802 150.547L188.73 151.742C188.653 151.783 188.566 151.803 188.479 151.8H188.487Z" fill="#455A64"/>
<path d="M194.012 148.616C193.927 148.615 193.844 148.592 193.771 148.549C193.698 148.507 193.637 148.446 193.594 148.374C193.563 148.319 193.542 148.259 193.534 148.197C193.526 148.135 193.53 148.072 193.546 148.011C193.563 147.951 193.591 147.894 193.629 147.844C193.667 147.795 193.715 147.753 193.77 147.722L194.605 147.245V146.301C194.607 146.175 194.658 146.055 194.747 145.967C194.836 145.878 194.956 145.827 195.082 145.825C195.208 145.825 195.329 145.875 195.418 145.964C195.508 146.054 195.558 146.175 195.558 146.301V147.521C195.559 147.605 195.537 147.688 195.496 147.761C195.455 147.834 195.396 147.896 195.324 147.939L194.263 148.549C194.186 148.593 194.1 148.616 194.012 148.616Z" fill="#455A64"/>
<path d="M195.065 142.509C194.938 142.509 194.817 142.459 194.728 142.369C194.639 142.28 194.588 142.159 194.588 142.032V139.525C194.588 139.399 194.639 139.278 194.728 139.188C194.817 139.099 194.938 139.049 195.065 139.049C195.128 139.048 195.19 139.059 195.248 139.083C195.307 139.106 195.36 139.141 195.404 139.186C195.449 139.23 195.484 139.283 195.507 139.342C195.531 139.4 195.542 139.462 195.541 139.525V142.032C195.542 142.095 195.531 142.158 195.507 142.216C195.484 142.274 195.449 142.327 195.404 142.372C195.36 142.416 195.307 142.451 195.248 142.475C195.19 142.498 195.128 142.51 195.065 142.509ZM195.065 135.731C194.939 135.729 194.819 135.678 194.73 135.589C194.641 135.5 194.591 135.38 194.588 135.255V132.748C194.588 132.621 194.639 132.5 194.728 132.411C194.817 132.321 194.938 132.271 195.065 132.271C195.128 132.27 195.19 132.282 195.248 132.305C195.307 132.329 195.36 132.364 195.404 132.408C195.449 132.453 195.484 132.506 195.507 132.564C195.531 132.622 195.542 132.685 195.541 132.748V135.255C195.546 135.32 195.537 135.386 195.515 135.447C195.493 135.509 195.459 135.566 195.414 135.613C195.369 135.661 195.315 135.699 195.255 135.725C195.195 135.751 195.13 135.765 195.065 135.764V135.731ZM195.065 128.953C194.939 128.951 194.819 128.9 194.73 128.812C194.641 128.723 194.591 128.603 194.588 128.477V125.97C194.588 125.843 194.638 125.721 194.727 125.63C194.816 125.539 194.938 125.487 195.065 125.485C195.128 125.485 195.191 125.498 195.249 125.522C195.307 125.547 195.36 125.583 195.405 125.628C195.449 125.673 195.484 125.726 195.507 125.785C195.531 125.844 195.542 125.907 195.541 125.97V128.477C195.546 128.542 195.537 128.608 195.515 128.67C195.493 128.731 195.459 128.788 195.414 128.836C195.369 128.884 195.315 128.922 195.255 128.948C195.195 128.974 195.13 128.987 195.065 128.987V128.953ZM195.065 122.176C194.939 122.174 194.819 122.123 194.73 122.034C194.641 121.945 194.591 121.825 194.588 121.699V119.192C194.591 119.067 194.641 118.947 194.73 118.858C194.819 118.769 194.939 118.718 195.065 118.716C195.191 118.716 195.312 118.766 195.402 118.855C195.491 118.945 195.541 119.066 195.541 119.192V121.699C195.546 121.765 195.537 121.83 195.515 121.892C195.493 121.954 195.459 122.01 195.414 122.058C195.369 122.106 195.315 122.144 195.255 122.17C195.195 122.196 195.13 122.209 195.065 122.209V122.176ZM195.065 115.39C194.938 115.39 194.817 115.34 194.728 115.25C194.639 115.161 194.588 115.04 194.588 114.913V112.406C194.591 112.281 194.641 112.161 194.73 112.072C194.819 111.983 194.939 111.932 195.065 111.93C195.191 111.93 195.312 111.98 195.402 112.069C195.491 112.159 195.541 112.28 195.541 112.406V114.913C195.547 114.979 195.539 115.045 195.518 115.107C195.496 115.17 195.462 115.227 195.417 115.275C195.372 115.323 195.317 115.361 195.257 115.387C195.196 115.412 195.131 115.425 195.065 115.423V115.39ZM195.065 108.612C194.938 108.612 194.817 108.562 194.728 108.473C194.639 108.383 194.588 108.262 194.588 108.136V105.629C194.588 105.502 194.639 105.381 194.728 105.292C194.817 105.202 194.938 105.152 195.065 105.152C195.128 105.151 195.19 105.163 195.248 105.186C195.307 105.21 195.36 105.245 195.404 105.289C195.449 105.334 195.484 105.387 195.507 105.445C195.531 105.503 195.542 105.566 195.541 105.629V108.136C195.547 108.201 195.539 108.267 195.518 108.33C195.496 108.392 195.462 108.449 195.417 108.497C195.372 108.545 195.317 108.583 195.257 108.609C195.196 108.635 195.131 108.647 195.065 108.646V108.612ZM195.065 101.834C194.939 101.832 194.819 101.781 194.73 101.693C194.641 101.604 194.591 101.484 194.588 101.358V98.8509C194.588 98.7246 194.639 98.6034 194.728 98.5141C194.817 98.4248 194.938 98.3746 195.065 98.3746C195.128 98.3735 195.19 98.385 195.248 98.4085C195.307 98.4321 195.36 98.4671 195.404 98.5116C195.449 98.556 195.484 98.609 195.507 98.6673C195.531 98.7256 195.542 98.7881 195.541 98.8509V101.358C195.546 101.423 195.537 101.489 195.515 101.551C195.493 101.612 195.459 101.669 195.414 101.717C195.369 101.765 195.315 101.803 195.255 101.829C195.195 101.855 195.13 101.868 195.065 101.868V101.834Z" fill="#455A64"/>
<path d="M195.065 95.0889C194.939 95.0868 194.819 95.0359 194.73 94.947C194.641 94.8582 194.591 94.7382 194.588 94.6126V93.3841C194.591 93.2584 194.641 93.1385 194.73 93.0496C194.819 92.9607 194.939 92.9099 195.065 92.9077C195.191 92.9077 195.312 92.9579 195.402 93.0472C195.491 93.1366 195.541 93.2577 195.541 93.3841V94.6126C195.541 94.7389 195.491 94.8601 195.402 94.9494C195.312 95.0387 195.191 95.0889 195.065 95.0889Z" fill="#455A64"/>
<path opacity="0.8" d="M225.224 56.7271L225.032 56.6185L224.915 56.5432L220.611 54.0361C220.611 53.9358 220.611 53.8355 220.611 53.7352C220.611 48.4619 218.831 44.7596 216.04 43.2052L207.774 38.4333C205.501 37.1212 202.543 37.2466 199.3 39.1186C197.797 40.0053 196.422 41.0935 195.213 42.3528C194.682 41.8051 194.081 41.3302 193.425 40.9404L185.452 36.3691C182.527 34.4302 178.616 34.472 174.303 36.9541C165.261 42.1773 157.923 56.1755 157.923 68.2516C157.919 69.5865 158.022 70.9196 158.232 72.238L157.096 72.8898C151.346 76.2327 146.682 85.1247 146.682 92.7966C146.682 97.0337 148.103 100.059 150.351 101.354L158.709 106.185C160.522 107.221 162.887 107.146 165.436 105.658L180.588 96.9167L220.954 73.6169C224.414 71.6195 227.214 66.271 227.214 61.6662C227.222 59.2593 226.445 57.5377 225.224 56.7271Z" fill="#F7921E"/>
<path opacity="0.2" d="M225.224 56.7271L225.032 56.6185L224.915 56.5432L220.611 54.0361C220.611 53.9358 220.611 53.8355 220.611 53.7352C220.611 48.4619 218.831 44.7596 216.04 43.2052L207.774 38.4333C205.501 37.1212 202.543 37.2466 199.3 39.1186C197.797 40.0053 196.422 41.0935 195.213 42.3528C194.682 41.8051 194.081 41.3302 193.425 40.9404L185.452 36.3691C182.527 34.4302 178.616 34.472 174.303 36.9541C165.261 42.1773 157.923 56.1755 157.923 68.2516C157.919 69.5865 158.022 70.9196 158.232 72.238L157.096 72.8898C151.346 76.2327 146.682 85.1247 146.682 92.7966C146.682 97.0337 148.103 100.059 150.351 101.354L158.709 106.185C160.522 107.221 162.887 107.146 165.436 105.658L180.588 96.9167L220.954 73.6169C224.414 71.6195 227.214 66.271 227.214 61.6662C227.222 59.2593 226.445 57.5377 225.224 56.7271Z" fill="white"/>
<path opacity="0.35" d="M216.049 43.2215C213.793 41.9596 210.859 42.1017 207.692 43.9569C206.107 44.8953 204.663 46.0547 203.405 47.4001L195.825 42.9959L195.081 42.5697L195.265 42.3774C196.477 41.1205 197.852 40.0301 199.351 39.1349C202.594 37.2712 205.553 37.1459 207.826 38.4579L216.049 43.2215Z" fill="white"/>
<path opacity="0.8" d="M195.23 42.3794C195.427 42.5754 195.614 42.7818 195.789 42.9978L195.046 42.5716L195.23 42.3794Z" fill="white"/>
<path opacity="0.35" d="M193.241 40.8493C190.391 39.2614 186.697 39.4453 182.661 41.7769C178.624 44.1086 174.805 48.3289 171.93 53.3098L163.573 48.5044C166.439 43.4901 170.191 39.3116 174.295 36.9632C178.599 34.456 182.519 34.456 185.444 36.3782L193.241 40.8493Z" fill="white"/>
<path opacity="0.35" d="M166.572 77.0686L165.444 77.7121C161.549 79.9685 158.139 84.7906 156.359 90.0556L148.002 85.2419C149.321 81.1681 151.653 77.496 154.78 74.5698L158.215 72.2549L166.572 77.0686Z" fill="white"/>
<path d="M220.962 56.9442L220.369 57.2869C220.53 56.1154 220.614 54.9344 220.619 53.7518C220.619 44.2079 214.811 39.8204 207.657 43.9572C204.314 45.871 201.306 49.2891 199.016 53.3507C198.69 41.8596 191.494 36.6364 182.652 41.776C173.609 46.9992 166.272 60.9975 166.272 73.0736C166.269 74.4109 166.37 75.7464 166.573 77.0683L165.444 77.7118C159.694 81.0546 155.023 89.955 155.023 97.6269C155.023 105.299 159.694 108.993 165.444 105.666L180.588 96.9165L220.954 73.6168C224.414 71.6194 227.213 66.2708 227.213 61.666C227.222 57.0696 224.422 54.9469 220.962 56.9442Z" fill="#F7921E"/>
<path opacity="0.7" d="M220.962 56.9442L220.369 57.2869C220.53 56.1154 220.614 54.9344 220.619 53.7518C220.619 44.2079 214.811 39.8204 207.657 43.9572C204.314 45.871 201.306 49.2891 199.016 53.3507C198.69 41.8596 191.494 36.6364 182.652 41.776C173.609 46.9992 166.272 60.9975 166.272 73.0736C166.269 74.4109 166.37 75.7464 166.573 77.0683L165.444 77.7118C159.694 81.0546 155.023 89.955 155.023 97.6269C155.023 105.299 159.694 108.993 165.444 105.666L180.588 96.9165L220.954 73.6168C224.414 71.6194 227.213 66.2708 227.213 61.666C227.222 57.0696 224.422 54.9469 220.962 56.9442Z" fill="white"/>
<path opacity="0.7" d="M161.367 104.756C158.801 104.756 157.188 101.956 157.188 97.627C157.188 90.7575 161.467 82.4922 166.54 79.5672L167.668 78.9154C168.042 78.6996 168.342 78.3758 168.528 77.9865C168.715 77.5972 168.779 77.1607 168.713 76.7341C168.525 75.5231 168.433 74.2992 168.437 73.0737C168.437 61.708 175.299 48.5037 183.748 43.6231C185.381 42.5993 187.254 42.0228 189.18 41.9517C193.743 41.9517 196.702 46.3392 196.902 53.4093C196.912 53.8776 197.077 54.3294 197.369 54.695C197.662 55.0606 198.067 55.3195 198.522 55.4318C198.977 55.544 199.456 55.5033 199.885 55.316C200.314 55.1287 200.67 54.8052 200.897 54.3955C203.095 50.5094 205.911 47.459 208.753 45.8043C209.977 45.0298 211.384 44.5916 212.831 44.534C216.283 44.534 218.506 48.1527 218.506 53.7269C218.503 54.8143 218.427 55.9004 218.28 56.9778C218.226 57.3736 218.284 57.7766 218.448 58.141C218.611 58.5054 218.874 58.8164 219.206 59.0386C219.538 59.2607 219.926 59.3851 220.325 59.3976C220.725 59.41 221.119 59.31 221.464 59.1089L222.058 58.7663C222.483 58.4977 222.968 58.3397 223.47 58.3066C224.607 58.3066 225.142 59.978 225.142 61.6495C225.142 65.5021 222.768 70.1236 219.96 71.7533L164.376 103.82C163.477 104.387 162.445 104.71 161.384 104.756H161.367Z" fill="white"/>
<path d="M189.811 54.1936L178.235 75.358L185.227 71.3157L185.277 86.9633L194.515 81.617L194.475 65.9795L201.466 61.9472L189.811 54.1936Z" fill="#F7921E"/>
<path d="M185.216 89.15L185.236 95.1281L194.484 89.7919L194.464 83.8137L185.216 89.15Z" fill="#F7921E"/>
<path d="M185.216 97.5355L185.236 100.525L194.484 95.1883L194.464 92.1892L185.216 97.5355Z" fill="#F7921E"/>
<path d="M185.216 102.531L185.236 104.337L194.484 98.9903L194.464 97.1848L185.216 102.531Z" fill="#F7921E"/>
</svg>
