<svg width="24" height="24" viewBox="0 0 24 24" fill="none" xmlns="http://www.w3.org/2000/svg">
<g clip-path="url(#clip0_1562_1452)">
<path d="M6.25483 11.2924C6.28805 11.2604 6.34599 11.2834 6.35911 11.3249C6.36567 11.3498 6.35323 11.373 6.33909 11.3923C6.39472 11.3987 6.45069 11.4122 6.49926 11.4419C6.51289 11.4495 6.52575 11.4607 6.54211 11.4614C6.59221 11.4672 6.64298 11.4818 6.68405 11.5127C6.72588 11.5438 6.74675 11.6039 6.72622 11.654C6.70322 11.7112 6.64588 11.7462 6.5888 11.7581C6.55591 11.7613 6.56563 11.803 6.56103 11.8267C6.43493 11.7985 6.30492 11.7951 6.17645 11.8034C6.12686 11.8071 6.0783 11.8207 6.02854 11.8216C6.02735 11.8034 6.02633 11.7854 6.02565 11.7674C5.99728 11.7545 5.96499 11.7525 5.93858 11.735C5.89589 11.7108 5.85585 11.6672 5.85764 11.6142C5.85483 11.5712 5.8797 11.5311 5.91344 11.5076C5.9534 11.4792 6.00222 11.4674 6.04984 11.4613C6.06399 11.4608 6.07515 11.4511 6.08682 11.4441C6.13649 11.4112 6.19604 11.4008 6.25346 11.3917C6.22501 11.3664 6.22083 11.3146 6.25483 11.2924ZM6.10573 11.5389C6.08546 11.5749 6.08733 11.6263 6.11689 11.6567C6.15106 11.6958 6.20183 11.7139 6.25159 11.7194C6.25432 11.6829 6.23344 11.6501 6.23378 11.6137C6.2279 11.5629 6.24162 11.5138 6.25432 11.4654C6.19766 11.4653 6.1399 11.492 6.10573 11.5389ZM6.33142 11.4669C6.36933 11.5465 6.36814 11.646 6.32375 11.7226C6.38748 11.7165 6.4599 11.6911 6.4915 11.6295C6.50386 11.5959 6.49994 11.5536 6.47464 11.5271C6.43902 11.4868 6.3845 11.4628 6.33142 11.4669ZM5.92571 11.585C5.91975 11.6164 5.91855 11.6547 5.94403 11.6778C5.97444 11.7115 6.0213 11.7164 6.06339 11.719C6.06382 11.7133 6.06467 11.7018 6.06509 11.696C6.03323 11.6757 6.0035 11.6443 6.00068 11.604C5.99719 11.5735 6.01304 11.5463 6.02301 11.5188C5.98424 11.5246 5.93909 11.5437 5.92571 11.585ZM6.56852 11.5187C6.58326 11.5535 6.59996 11.5922 6.58437 11.6301C6.56869 11.6731 6.52635 11.6933 6.49048 11.7152C6.5422 11.717 6.60158 11.7199 6.64213 11.6806C6.66999 11.6587 6.67331 11.6189 6.66565 11.5864C6.65167 11.5448 6.60822 11.5239 6.56852 11.5187Z" fill="white"/>
<path d="M6.79169 11.8516C6.92613 11.875 7.04523 11.9757 7.09524 12.1059C7.11262 12.1513 7.12796 12.1989 7.12864 12.2482C7.12992 12.2481 7.13248 12.2477 7.13375 12.2475C7.12063 12.1085 7.24851 11.9668 7.38662 11.9901C7.29801 12.0492 7.2463 12.15 7.21852 12.2521C7.15735 12.484 7.11518 12.7211 7.08621 12.9595C7.06517 13.1299 7.04396 13.309 7.10283 13.4743C7.1467 13.3893 7.2106 13.3138 7.29444 13.2687C7.30381 13.2635 7.31463 13.2628 7.32502 13.2607C7.25882 13.3606 7.21299 13.4732 7.18376 13.59C7.23735 13.5236 7.29563 13.4514 7.37887 13.4252C7.34589 13.4861 7.30875 13.5453 7.28532 13.6111C7.26854 13.6585 7.24741 13.7061 7.24425 13.757C7.29043 13.6758 7.35867 13.6013 7.44651 13.5695C7.38994 13.669 7.33652 13.7735 7.31326 13.8869C7.34896 13.9534 7.3925 14.0159 7.42308 14.0853C7.44549 14.1346 7.46483 14.1904 7.45162 14.2452C7.44949 14.298 7.42777 14.3477 7.39991 14.3914C7.35032 14.4655 7.25908 14.503 7.17303 14.494C7.02487 14.4807 6.88677 14.3744 6.83531 14.2308C6.80515 14.2252 6.78266 14.2525 6.76587 14.2743C6.68315 14.3893 6.66781 14.5403 6.68596 14.6784C6.69848 14.7474 6.7502 14.8219 6.82534 14.8186C6.8503 14.7846 6.86888 14.7465 6.89282 14.7117C6.91727 14.7741 6.91573 14.8437 6.91173 14.9098C6.90159 14.997 6.86589 15.0785 6.8198 15.1517C6.77584 15.2273 6.72114 15.3014 6.70998 15.3911C6.70044 15.4424 6.69976 15.4959 6.68034 15.5449C6.66176 15.5255 6.6414 15.4973 6.61081 15.5087C6.57384 15.5227 6.55322 15.5616 6.53857 15.5969C6.51071 15.6596 6.50159 15.7315 6.46002 15.7875C6.4503 15.7995 6.44025 15.8149 6.42347 15.8159C6.37899 15.824 6.33418 15.8296 6.28996 15.8389C6.28408 15.8662 6.27718 15.8933 6.27011 15.9204C6.25861 15.9124 6.24702 15.9047 6.23561 15.8969C6.21286 15.81 6.20511 15.7153 6.2316 15.6284C6.23228 15.6237 6.23365 15.6142 6.23433 15.6095C6.22308 15.6261 6.21081 15.643 6.20621 15.663C6.2034 15.6902 6.20553 15.7176 6.20553 15.745L6.19727 15.7438C6.21201 15.7589 6.19821 15.7844 6.19957 15.8037C6.17912 15.8052 6.15637 15.8013 6.13882 15.8145C6.11454 15.826 6.1119 15.8556 6.10065 15.8775C6.09205 15.8687 6.082 15.8602 6.08055 15.8471C6.05789 15.7593 6.07007 15.6666 6.09622 15.5813C6.09818 15.5702 6.09921 15.5592 6.09946 15.5483C6.0952 15.5506 6.08651 15.5553 6.08225 15.5576C6.0647 15.6193 6.06641 15.6859 6.04195 15.7455C6.01554 15.734 6.01188 15.685 5.97618 15.7013C5.96545 15.7174 5.95667 15.7348 5.94679 15.7515C5.93103 15.746 5.9352 15.7273 5.93222 15.7146C5.92958 15.6804 5.9208 15.6421 5.94117 15.6119C5.96843 15.5652 5.9928 15.5162 6.02832 15.4755C6.03616 15.4666 6.04238 15.4563 6.04707 15.4454C6.01835 15.4505 6.00592 15.482 5.98624 15.5008C5.97311 15.512 5.96562 15.5357 5.94807 15.5382C5.93946 15.5176 5.93691 15.495 5.9335 15.4732C5.91501 15.4651 5.89465 15.4654 5.87505 15.4649C5.86866 15.44 5.884 15.4142 5.90504 15.4025C5.92924 15.3953 5.95889 15.3996 5.97763 15.3788C5.99936 15.3601 6.01631 15.3271 6.04877 15.329C6.10551 15.33 6.14598 15.3756 6.1936 15.4006C6.23245 15.4234 6.28281 15.4216 6.322 15.4005C6.36766 15.377 6.40327 15.3379 6.43471 15.2974C6.49605 15.2198 6.54249 15.1315 6.589 15.0441C6.59505 15.0327 6.59906 15.0205 6.60264 15.0082C6.57835 15.0038 6.55373 15.0033 6.52928 15.002C6.51769 15.024 6.50619 15.0467 6.48779 15.0637C6.46726 15.0842 6.43778 15.0891 6.41171 15.0984C6.40847 15.0561 6.41699 15.0135 6.40966 14.9714C6.39927 14.8811 6.33767 14.8098 6.31365 14.7239C6.27761 14.6036 6.28255 14.4758 6.28579 14.3514C6.28494 14.2869 6.30138 14.2217 6.29167 14.1579C6.1712 14.0327 6.06658 13.8799 5.90411 13.8086C5.85222 13.7851 5.79292 13.7785 5.73763 13.7909C5.70364 13.7983 5.67612 13.8269 5.66879 13.8615C5.65627 13.9133 5.70364 13.955 5.74658 13.9704C5.73712 13.9984 5.71727 14.0295 5.68762 14.0391C5.64894 14.057 5.60472 14.0642 5.56332 14.0533C5.54398 14.0466 5.52634 14.0361 5.50768 14.028C5.47684 14.0624 5.44677 14.101 5.43893 14.1485C5.43203 14.2041 5.44038 14.26 5.44063 14.3157C5.44132 14.3604 5.42172 14.4037 5.39147 14.4352C5.38926 14.4348 5.38491 14.434 5.3827 14.4337C5.37955 14.4156 5.37742 14.3974 5.37426 14.3795C5.33959 14.3745 5.30534 14.3651 5.27646 14.344C5.24408 14.3959 5.2181 14.4663 5.15412 14.4831C5.13205 14.48 5.11527 14.4639 5.09516 14.4568C5.07011 14.4669 5.05469 14.4941 5.03288 14.5103C5.0172 14.4518 5.0339 14.3921 5.03373 14.3328C5.0322 14.3228 5.03978 14.3157 5.04532 14.3089C5.07216 14.2784 5.10163 14.2504 5.12753 14.219C5.12643 14.2087 5.12114 14.1904 5.1076 14.1976C5.07599 14.2261 5.04788 14.2588 5.01542 14.2865C5.00536 14.3001 4.99258 14.2849 4.98287 14.28C4.98074 14.2608 4.97512 14.2308 4.95075 14.232C4.93814 14.2399 4.92715 14.2508 4.91309 14.2564C4.90577 14.1934 4.9407 14.136 4.97341 14.086C4.98423 14.0662 5.00749 14.0656 5.02666 14.0618C5.05452 14.0686 5.08255 14.0755 5.11109 14.0795C5.11084 14.0738 5.11041 14.0625 5.11024 14.0568C5.07079 14.0425 5.02879 14.0409 4.98875 14.0305C4.99028 14.0033 4.99258 13.9762 4.99105 13.9492C4.97444 13.9398 4.95467 13.9385 4.93703 13.932C4.94266 13.9161 4.94896 13.9006 4.95629 13.8855C5.00459 13.8741 5.05239 13.8502 5.10283 13.8552C5.14057 13.8684 5.16051 13.9083 5.18445 13.9385C5.20753 13.9382 5.22704 13.9251 5.24366 13.9098C5.31241 13.8484 5.366 13.7719 5.41848 13.6962C5.43143 13.674 5.45077 13.654 5.45239 13.627C5.38994 13.5919 5.33346 13.5434 5.29478 13.4815C5.27936 13.4555 5.26274 13.4287 5.26027 13.3975C5.34785 13.3732 5.41482 13.3033 5.46875 13.2317C5.55045 13.1246 5.61333 13.0032 5.70296 12.9025C5.76251 12.8342 5.83808 12.7771 5.9254 12.7537C5.99203 12.7335 6.06428 12.7319 6.12681 12.6985C6.18841 12.6639 6.21695 12.5876 6.21661 12.5184C6.18261 12.5174 6.14462 12.5255 6.12366 12.5555C6.10125 12.5831 6.10151 12.6202 6.09665 12.6538C6.01733 12.5782 5.9997 12.449 6.03735 12.3479C6.04647 12.3702 6.0584 12.3932 6.08251 12.4011C6.10934 12.4108 6.1545 12.4093 6.16063 12.373C6.17486 12.3037 6.17248 12.222 6.12357 12.1667C6.11165 12.1529 6.09367 12.1312 6.07399 12.1445C6.03369 12.1622 6.02653 12.2106 6.00038 12.2412C5.95514 12.1825 5.93588 12.1067 5.93665 12.0328C5.93759 12.0217 5.94023 12.0074 5.9519 12.0033C5.97814 11.9919 6.00626 11.9856 6.03233 11.9737C5.9991 11.9581 5.95923 11.9703 5.92379 11.9614C5.92924 11.9451 5.92983 11.9206 5.95079 11.9176C6.09094 11.8815 6.23612 11.8496 6.38138 11.8668C6.48779 11.8788 6.59233 11.9313 6.65665 12.021C6.75165 12.1499 6.77473 12.3169 6.783 12.474C6.75735 12.475 6.73188 12.475 6.70641 12.4742C6.71467 12.548 6.73452 12.6221 6.72046 12.6968C6.7162 12.7878 6.70325 12.8785 6.70879 12.9698C6.70675 12.9818 6.7174 13.0055 6.69754 13.0046C6.69397 13.0013 6.68681 12.9948 6.68315 12.9915C6.68741 12.9906 6.69593 12.9889 6.70019 12.9881C6.70393 12.9359 6.70061 12.8831 6.70078 12.8307C6.69789 12.8812 6.70317 12.9322 6.69857 12.9825C6.67573 12.9945 6.66398 12.9659 6.65026 12.9538C6.63654 12.9678 6.64123 12.9887 6.63748 13.0064C6.61542 13.151 6.54615 13.2906 6.43599 13.3851C6.43164 13.3952 6.44178 13.4011 6.44741 13.4078C6.50926 13.4675 6.56958 13.5288 6.62964 13.5905C6.7329 13.6978 6.84545 13.8038 6.90508 13.9449C6.95467 14.0441 7.008 14.1427 7.07897 14.2277C7.1105 14.2618 7.14815 14.3041 7.19867 14.2979C7.23872 14.3024 7.26376 14.2623 7.27765 14.2296C7.29299 14.1718 7.26146 14.1178 7.2371 14.0681C7.164 13.9322 7.07096 13.8088 6.99778 13.673C6.91812 13.5329 6.8549 13.378 6.84851 13.2142C6.85201 13.0963 6.87433 12.9802 6.89409 12.8643C6.9159 12.7422 6.93729 12.6198 6.94964 12.4962C6.94947 12.4145 6.96464 12.333 6.95262 12.2515C6.9493 12.1046 6.89929 11.9525 6.79169 11.8516ZM6.18082 11.948C6.18117 11.979 6.18117 12.0101 6.18048 12.0412C6.19727 12.0391 6.21363 12.0344 6.22913 12.0273C6.27582 12.0065 6.3254 11.9926 6.37116 11.9696C6.37388 11.9552 6.3565 11.957 6.34832 11.953C6.2932 11.9418 6.23654 11.948 6.18082 11.948Z" fill="white"/>
<path d="M5.73732 12.2821C5.74831 12.2521 5.76381 12.2188 5.79516 12.207C5.78315 12.2419 5.76909 12.2795 5.78111 12.3167C5.79721 12.3399 5.82754 12.3371 5.85182 12.3345C5.9112 12.3234 5.96607 12.2969 6.02204 12.2746C6.05485 12.2612 6.09352 12.264 6.1253 12.2792C6.09276 12.285 6.0603 12.2937 6.03261 12.3129C5.97612 12.35 5.93344 12.4086 5.86886 12.4325C5.83095 12.4469 5.78221 12.4481 5.75214 12.4163C5.72036 12.38 5.72164 12.3255 5.73732 12.2821Z" fill="white"/>
<path d="M5.27963 12.3594C5.31354 12.371 5.33688 12.4042 5.35043 12.437C5.37437 12.5385 5.33143 12.6415 5.34821 12.7434C5.37488 12.8659 5.51068 12.92 5.53982 13.0411C5.53743 13.0569 5.52551 13.0692 5.51792 13.0827C5.47643 13.1452 5.44184 13.2151 5.38451 13.2642C5.31924 13.183 5.25961 13.0971 5.19332 13.0168C5.19026 13.0165 5.18404 13.0158 5.18097 13.0155C5.1572 13.0418 5.14391 13.076 5.12125 13.1032C5.10651 13.1141 5.0864 13.1109 5.06928 13.1113C5.03494 13.1081 4.9926 13.1091 4.97062 13.0766C5.01432 13.0394 5.05224 12.987 5.05011 12.926C5.05709 12.8313 5.00563 12.7479 4.95673 12.6726C4.93927 12.6425 4.91516 12.6177 4.89258 12.5918C4.93893 12.5766 4.99192 12.5548 5.03954 12.5766C5.06612 12.6062 5.09024 12.6382 5.11571 12.6689C5.12005 12.6687 5.12866 12.6685 5.13292 12.6683C5.13232 12.6548 5.13164 12.6413 5.13087 12.628C5.10898 12.6021 5.09611 12.57 5.07771 12.5417C5.04687 12.4955 5.06527 12.437 5.0553 12.3853C5.10932 12.3987 5.15984 12.429 5.19886 12.4696C5.2343 12.507 5.21743 12.5691 5.25415 12.6051C5.25586 12.5664 5.25151 12.5279 5.24683 12.4897C5.24725 12.4437 5.28218 12.4063 5.27963 12.3594Z" fill="white"/>
<path d="M5.96831 13.9756C6.03366 13.961 6.09381 14.0037 6.1422 14.0436C6.13717 14.0731 6.13555 14.103 6.13794 14.1329C6.14016 14.1062 6.1393 14.0792 6.14212 14.0526C6.15012 14.0821 6.13658 14.1144 6.14936 14.1435C6.17245 14.1955 6.22987 14.2193 6.25636 14.2682C6.25747 14.3155 6.25227 14.3628 6.24716 14.4099C6.21308 14.3879 6.16938 14.3612 6.12925 14.3833C6.09423 14.3973 6.08486 14.4388 6.07387 14.4716C6.06041 14.5498 6.09023 14.627 6.12303 14.6961C6.17091 14.7889 6.23319 14.8746 6.30774 14.9466C6.26795 15.0008 6.21112 15.0478 6.14263 15.0516C6.06885 15.0542 5.99098 15.0541 5.92401 15.0904C5.88542 15.1172 5.86139 15.1628 5.81598 15.1802C5.81061 15.1607 5.80865 15.1406 5.80542 15.1209C5.7992 15.1017 5.78522 15.0871 5.7733 15.0719C5.73036 15.0735 5.69466 15.1022 5.67234 15.1381C5.64823 15.1755 5.60588 15.2158 5.55869 15.2001C5.53952 15.1924 5.51898 15.1916 5.49888 15.1944C5.49164 15.2171 5.48491 15.2398 5.47792 15.2627C5.43651 15.2308 5.436 15.171 5.44725 15.1239C5.4533 15.0765 5.47204 15.032 5.47673 14.9845C5.47161 14.9845 5.46122 14.9845 5.45611 14.9845C5.44239 15.0267 5.43984 15.0742 5.41249 15.1103C5.3946 15.0923 5.37722 15.0737 5.36103 15.0541C5.34075 15.0656 5.32295 15.0822 5.29986 15.0876C5.295 15.0286 5.32712 14.9764 5.3595 14.9307C5.38309 14.8971 5.40601 14.8601 5.40729 14.8174C5.3704 14.8516 5.34177 14.8936 5.30676 14.9298C5.30233 14.8971 5.29151 14.8661 5.27549 14.8377C5.25649 14.8367 5.23766 14.8359 5.21875 14.835C5.22931 14.8019 5.24857 14.7698 5.27975 14.7535C5.32669 14.7268 5.38335 14.7323 5.4337 14.7442C5.43362 14.7342 5.43362 14.7243 5.4337 14.7145C5.39988 14.7058 5.36665 14.6954 5.33342 14.6852C5.33879 14.6624 5.35268 14.6405 5.34825 14.6163C5.3416 14.5991 5.33121 14.5839 5.32243 14.568C5.37577 14.5598 5.43046 14.5765 5.47127 14.6124C5.52827 14.6638 5.56175 14.7414 5.63161 14.7777C5.67046 14.7998 5.71604 14.7975 5.75898 14.7978C5.81317 14.7973 5.86787 14.7989 5.92163 14.7908C5.93475 14.7772 5.91336 14.7622 5.90637 14.7513C5.82493 14.6626 5.77824 14.5429 5.77219 14.4217C5.77108 14.4046 5.76887 14.3878 5.7658 14.3712C5.73649 14.3652 5.70727 14.3533 5.68725 14.3297C5.65922 14.2963 5.64644 14.2521 5.64201 14.209C5.71698 14.2127 5.78182 14.1631 5.8268 14.1061C5.86829 14.0574 5.90586 13.9975 5.96831 13.9756Z" fill="white"/>
<path d="M4.29233 6.16226C4.37659 6.14949 4.46545 6.1557 4.54306 6.1941C4.66736 6.25069 4.77147 6.36484 4.79669 6.5047C4.81416 6.61902 4.78093 6.74007 4.70928 6.8292C4.68934 6.85465 4.66421 6.87486 4.64197 6.89795C5.03022 6.93652 5.42502 7.02968 5.75507 7.25211C5.78856 7.27249 5.81659 7.3017 5.85135 7.31972C6.16819 7.35619 6.49177 7.42179 6.76773 7.59393C6.89305 7.67405 7.00577 7.7798 7.08023 7.91196C7.15086 8.0359 7.18638 8.18048 7.17982 8.3241C7.18493 8.43449 7.15537 8.54382 7.10749 8.64187C7.04027 8.78322 6.93377 8.90191 6.81194 8.99577C6.69607 9.08411 6.56538 9.15137 6.4283 9.1972C6.39311 9.21024 6.35605 9.21741 6.32189 9.23341C6.45318 9.24732 6.58651 9.26464 6.70979 9.31555C6.7195 9.3424 6.72214 9.37153 6.72751 9.3996C6.75784 9.56815 6.78817 9.73679 6.82063 9.9049C6.16564 9.81875 5.50706 9.75787 4.8467 9.74501C4.6936 9.73486 4.53982 9.7395 4.38638 9.73845C4.27256 9.73933 4.15848 9.73565 4.04491 9.74466C3.80057 9.74571 3.55699 9.76338 3.31307 9.77449C3.12836 9.79076 2.94332 9.80283 2.75886 9.82163C2.48581 9.8491 2.21292 9.88032 1.9414 9.92126C1.92828 9.92274 1.91516 9.92239 1.90212 9.92231C1.946 9.72262 1.9788 9.52057 2.01663 9.31966C2.06195 9.29683 2.11384 9.28939 2.16266 9.27662C2.2522 9.25537 2.34378 9.24662 2.43426 9.23184C2.24436 9.18618 2.0611 9.10248 1.90647 8.97915C1.75013 8.85398 1.62123 8.68281 1.57352 8.4826C1.55256 8.40562 1.56006 8.32507 1.55929 8.24617C1.56824 8.0638 1.64858 7.88799 1.77203 7.75758C1.93237 7.58562 2.15022 7.48424 2.36985 7.41873C2.53872 7.36844 2.71286 7.33922 2.88743 7.31989C2.90421 7.31211 2.91776 7.2989 2.93267 7.28823C3.15358 7.12397 3.41411 7.02565 3.67831 6.96364C3.81624 6.93337 3.95597 6.91168 4.09637 6.89839C4.0283 6.83908 3.97156 6.76264 3.95103 6.67202C3.92342 6.57371 3.93603 6.46403 3.98902 6.377C4.05573 6.26696 4.16845 6.18737 4.29233 6.16226ZM3.4418 7.51101C3.30353 7.61448 3.18315 7.75058 3.12121 7.91633C3.08849 7.9954 3.07546 8.08121 3.07171 8.16649C3.07196 8.36242 3.15563 8.55239 3.2864 8.69304C3.41403 8.83623 3.58195 8.93515 3.75771 9.0025C3.89079 9.05061 4.03 9.08122 4.17075 9.09119C4.04687 8.89772 4.00351 8.66435 3.97735 8.43816C3.96202 8.27556 3.95938 8.11156 3.97088 7.94852C3.98979 7.71 4.03086 7.46605 4.14459 7.25394C3.89497 7.27835 3.64738 7.36126 3.4418 7.51101ZM4.59392 7.25403C4.68883 7.42923 4.73118 7.62813 4.75563 7.82537C4.75963 7.88108 4.76994 7.93627 4.76875 7.99243C4.76798 8.12634 4.77198 8.26052 4.7656 8.39434C4.75247 8.50376 4.7408 8.6138 4.71414 8.72077C4.68338 8.8504 4.64078 8.97932 4.56734 9.09049C4.69411 9.08568 4.81884 9.05542 4.93948 9.01658C5.11456 8.95746 5.28078 8.86439 5.41437 8.73293C5.51967 8.62919 5.60274 8.49913 5.64133 8.35384C5.67132 8.24197 5.67448 8.12267 5.64628 8.01001C5.60538 7.83411 5.49744 7.68096 5.36427 7.5655C5.14856 7.38033 4.87132 7.28158 4.59392 7.25403ZM2.36883 7.73169C2.23073 7.79834 2.106 7.90549 2.04031 8.04928C1.98085 8.18022 1.965 8.3311 1.99414 8.47219C2.02251 8.61397 2.10378 8.74159 2.21326 8.83168C2.35827 8.95177 2.54025 9.01483 2.72249 9.04387C2.88087 9.06556 3.0424 9.07064 3.20061 9.04475C3.09957 9.0004 3.00023 8.95072 2.90915 8.88696C2.74932 8.77771 2.61088 8.62499 2.54706 8.43633C2.45497 8.16789 2.51972 7.85764 2.68892 7.63609C2.57799 7.64833 2.47005 7.68384 2.36883 7.73169ZM6.04977 7.63582C6.16615 7.79187 6.23507 7.98709 6.23286 8.18433C6.23533 8.34186 6.18336 8.49825 6.09518 8.62648C6.04986 8.6954 5.99047 8.75243 5.93228 8.80964C5.81429 8.90734 5.68044 8.98291 5.54114 9.04344C5.58655 9.05865 5.63495 9.05122 5.68155 9.05909C5.78651 9.06819 5.89173 9.05857 5.99601 9.04658C6.15115 9.02113 6.30672 8.97915 6.44099 8.89273C6.57186 8.81095 6.68125 8.68631 6.72811 8.53473C6.76474 8.41437 6.76883 8.28334 6.73654 8.16142C6.70408 8.0226 6.61914 7.89989 6.50719 7.81636C6.37352 7.71664 6.21309 7.65708 6.04977 7.63582Z" fill="#DAB42D"/>
<path d="M4.40261 10.1889C4.45084 10.1884 4.50613 10.187 4.55742 10.1877C4.72781 10.1915 4.89863 10.1856 5.06877 10.1974C5.43844 10.2036 5.80726 10.2287 6.17565 10.2581C6.69944 10.3023 7.22212 10.3652 7.74123 10.4512C7.91461 11.3958 8.06881 12.344 8.22728 13.2914C8.31546 13.8306 8.40449 14.3696 8.4919 14.9089C8.5103 15.0194 8.53799 15.1296 8.53552 15.2426C8.53475 15.3007 8.53714 15.3592 8.53271 15.4173C8.51141 15.5797 8.45936 15.7397 8.3693 15.8759C8.27252 16.0216 8.14583 16.1435 8.0096 16.2498C7.76364 16.4368 7.51086 16.6139 7.25995 16.7936C6.44078 17.3756 5.61744 17.9514 4.79367 18.5266C4.68146 18.6046 4.5696 18.6832 4.45663 18.7599C4.4315 18.7774 4.40696 18.752 4.3866 18.7391C3.80172 18.3442 3.21948 17.9453 2.63767 17.5459C2.09147 17.1686 1.54408 16.7931 1.00385 16.407C0.881846 16.3178 0.756436 16.2322 0.646532 16.127C0.548811 16.0362 0.460462 15.9333 0.393923 15.8161C0.303955 15.6531 0.25633 15.4645 0.264594 15.277C0.25846 15.1404 0.291516 15.0073 0.314434 14.8739C0.576926 13.4094 0.838907 11.9451 1.10532 10.4813C1.1359 10.4713 1.16794 10.4691 1.19946 10.4639C1.37693 10.4311 1.55541 10.4048 1.73382 10.3781L1.73731 10.3772C1.73637 10.3845 1.7345 10.3992 1.73348 10.4064C1.59495 11.1748 1.46502 11.9449 1.33552 12.7149C1.1975 13.5369 1.06255 14.3593 0.925808 15.1815C0.90485 15.3242 0.929301 15.48 1.01825 15.5952C1.12227 15.7354 1.26651 15.8349 1.40572 15.9344C1.56649 16.0491 1.72956 16.1605 1.89228 16.2722C2.44692 16.6514 3.00453 17.0259 3.56138 17.4017C3.84099 17.5888 4.11874 17.7789 4.39912 17.9648C4.40159 17.9495 4.4044 17.9343 4.40534 17.919C4.40491 15.4786 4.40525 13.0382 4.40517 10.5978C4.40355 10.4628 4.40841 10.3276 4.40253 10.1928L4.40261 10.1889ZM6.25446 11.2908C6.22046 11.313 6.22464 11.3648 6.25309 11.3901C6.19567 11.3993 6.13612 11.4096 6.08645 11.4426C6.07478 11.4495 6.06361 11.4593 6.04947 11.4597C6.00185 11.4658 5.95303 11.4776 5.91307 11.5061C5.87933 11.5295 5.85446 11.5696 5.85727 11.6126C5.85548 11.6656 5.89552 11.7092 5.9382 11.7334C5.96462 11.751 5.99691 11.7529 6.02528 11.7658C6.02596 11.7839 6.02698 11.8019 6.02817 11.8201C6.07793 11.8191 6.12649 11.8055 6.17607 11.8019C6.30455 11.7936 6.43456 11.7969 6.56065 11.8251C6.56525 11.8014 6.55554 11.7597 6.58843 11.7565C6.64551 11.7447 6.70285 11.7096 6.72585 11.6524C6.74638 11.6024 6.72551 11.5423 6.68368 11.5111C6.64261 11.4803 6.59184 11.4656 6.54174 11.4599C6.52538 11.4591 6.51252 11.4479 6.49889 11.4403C6.45032 11.4106 6.39435 11.3972 6.33872 11.3907C6.35286 11.3714 6.3653 11.3483 6.35874 11.3233C6.34562 11.2818 6.28768 11.2588 6.25446 11.2908ZM6.7912 11.8506C6.8988 11.9515 6.94881 12.1036 6.95213 12.2505C6.96415 12.332 6.94898 12.4135 6.94915 12.4952C6.9368 12.6188 6.91541 12.7412 6.8936 12.8634C6.87384 12.9793 6.85152 13.0953 6.84802 13.2132C6.85441 13.3771 6.91763 13.532 6.99729 13.672C7.07047 13.8078 7.16351 13.9313 7.23661 14.0671C7.26097 14.1168 7.2925 14.1708 7.27716 14.2286C7.26327 14.2614 7.23823 14.3014 7.19818 14.297C7.14766 14.3031 7.11 14.2608 7.07848 14.2267C7.00751 14.1417 6.95418 14.0431 6.90459 13.9439C6.84496 13.8029 6.73241 13.6968 6.62915 13.5895C6.56909 13.5279 6.50877 13.4665 6.44692 13.4068C6.44129 13.4002 6.43115 13.3942 6.4355 13.3842C6.54566 13.2896 6.61492 13.15 6.63699 13.0054C6.64074 12.9877 6.63605 12.9668 6.64977 12.9529C6.66349 12.9649 6.67524 12.9935 6.69808 12.9815C6.70268 12.9312 6.6974 12.8803 6.70029 12.8297C6.70012 12.8821 6.70344 12.9349 6.6997 12.9871C6.69544 12.9879 6.68692 12.9897 6.68266 12.9905C6.68632 12.9938 6.69348 13.0003 6.69705 13.0037C6.71691 13.0045 6.70626 12.9808 6.7083 12.9689C6.70276 12.8775 6.71571 12.7868 6.71997 12.6959C6.73403 12.6211 6.71418 12.547 6.70591 12.4732C6.73139 12.4741 6.75686 12.4741 6.78251 12.473C6.77424 12.3159 6.75115 12.1489 6.65616 12.02C6.59184 11.9304 6.4873 11.8778 6.38089 11.8658C6.23563 11.8487 6.09045 11.8805 5.9503 11.9166C5.92934 11.9196 5.92875 11.9441 5.9233 11.9604C5.95874 11.9693 5.99861 11.9571 6.03184 11.9727C6.00577 11.9846 5.97765 11.9909 5.95141 12.0023C5.93974 12.0065 5.9371 12.0207 5.93616 12.0318C5.93539 12.1057 5.95465 12.1815 5.99989 12.2403C6.02604 12.2096 6.0332 12.1613 6.0735 12.1435C6.09318 12.1302 6.11115 12.1519 6.12308 12.1657C6.17199 12.221 6.17437 12.3027 6.16014 12.3721C6.15401 12.4083 6.10885 12.4099 6.08202 12.4001C6.05791 12.3922 6.04598 12.3693 6.03686 12.347C5.99921 12.448 6.01684 12.5773 6.09616 12.6528C6.10102 12.6192 6.10076 12.5821 6.12317 12.5545C6.14413 12.5245 6.18212 12.5164 6.21612 12.5174C6.21646 12.5866 6.18792 12.6629 6.12632 12.6975C6.06379 12.7309 5.99154 12.7325 5.92491 12.7527C5.83759 12.7762 5.76202 12.8332 5.70246 12.9015C5.61284 13.0023 5.54996 13.1237 5.46826 13.2307C5.41433 13.3024 5.34736 13.3723 5.25978 13.3966C5.26225 13.4277 5.27886 13.4546 5.29429 13.4805C5.33296 13.5424 5.38945 13.5909 5.4519 13.626C5.45028 13.653 5.43094 13.6731 5.41799 13.6952C5.36551 13.7709 5.31192 13.8475 5.24317 13.9089C5.22655 13.9242 5.20704 13.9372 5.18396 13.9376C5.16002 13.9073 5.14008 13.8674 5.10234 13.8542C5.0519 13.8492 5.0041 13.8731 4.9558 13.8846C4.94847 13.8996 4.94217 13.9151 4.93654 13.931C4.95418 13.9376 4.97394 13.9388 4.99056 13.9482C4.99209 13.9753 4.98979 14.0024 4.98826 14.0295C5.0283 14.0399 5.0703 14.0416 5.10975 14.0558C5.10992 14.0615 5.11034 14.0729 5.1106 14.0786C5.08206 14.0745 5.05403 14.0676 5.02617 14.0608C5.007 14.0646 4.98374 14.0653 4.97292 14.085C4.94021 14.1351 4.90528 14.1924 4.9126 14.2554C4.92666 14.2498 4.93765 14.239 4.95026 14.231C4.97463 14.2298 4.98025 14.2599 4.98238 14.279C4.99209 14.2839 5.00487 14.2991 5.01492 14.2855C5.04738 14.2579 5.0755 14.2251 5.10711 14.1966C5.12065 14.1895 5.12594 14.2077 5.12704 14.2181C5.10114 14.2494 5.07167 14.2775 5.04483 14.3079C5.03929 14.3147 5.03171 14.3218 5.03324 14.3319C5.03341 14.3912 5.01671 14.4508 5.03239 14.5093C5.0542 14.4931 5.06962 14.4659 5.09467 14.4558C5.11478 14.463 5.13156 14.479 5.15363 14.4821C5.21761 14.4653 5.24359 14.3949 5.27597 14.3431C5.30485 14.3641 5.3391 14.3735 5.37377 14.3785C5.37693 14.3964 5.37906 14.4146 5.38221 14.4327C5.38442 14.4331 5.38877 14.4338 5.39098 14.4342C5.42123 14.4027 5.44082 14.3594 5.44014 14.3147C5.43989 14.259 5.43154 14.2031 5.43844 14.1475C5.44628 14.1001 5.47635 14.0614 5.50719 14.027C5.52585 14.0351 5.54349 14.0456 5.56283 14.0523C5.60423 14.0632 5.64845 14.056 5.68713 14.0381C5.71678 14.0285 5.73663 13.9975 5.74609 13.9694C5.70315 13.954 5.65578 13.9123 5.6683 13.8605C5.67563 13.8259 5.70315 13.7973 5.73714 13.7899C5.79243 13.7775 5.85173 13.7841 5.90361 13.8077C6.06609 13.879 6.17071 14.0318 6.29118 14.1569C6.30089 14.2207 6.28445 14.2859 6.2853 14.3504C6.28206 14.4749 6.27712 14.6027 6.31316 14.7229C6.33718 14.8088 6.39878 14.8801 6.40917 14.9705C6.4165 15.0125 6.40798 15.0551 6.41122 15.0975C6.43729 15.0881 6.46677 15.0832 6.4873 15.0627C6.5057 15.0458 6.5172 15.023 6.52879 15.0011C6.55324 15.0023 6.57786 15.0028 6.60214 15.0072C6.59857 15.0195 6.59456 15.0318 6.58851 15.0431C6.542 15.1305 6.49556 15.2189 6.43422 15.2964C6.40278 15.3369 6.36717 15.376 6.32151 15.3996C6.28232 15.4207 6.23196 15.4224 6.19311 15.3997C6.14549 15.3746 6.10502 15.3291 6.04828 15.328C6.01582 15.3261 5.99886 15.3591 5.97714 15.3778C5.9584 15.3986 5.92875 15.3943 5.90455 15.4015C5.88351 15.4132 5.86817 15.439 5.87456 15.4639C5.89416 15.4644 5.91452 15.4641 5.93301 15.4723C5.93642 15.494 5.93897 15.5166 5.94758 15.5372C5.96513 15.5347 5.97262 15.511 5.98574 15.4998C6.00543 15.481 6.01786 15.4495 6.04658 15.4444C6.04189 15.4553 6.03567 15.4656 6.02783 15.4745C5.9923 15.5152 5.96794 15.5643 5.94068 15.6109C5.92031 15.6412 5.92909 15.6795 5.93173 15.7136C5.93471 15.7264 5.93054 15.7451 5.9463 15.7505C5.95618 15.7338 5.96496 15.7164 5.97569 15.7003C6.01139 15.684 6.01505 15.733 6.04146 15.7445C6.06591 15.6849 6.06421 15.6183 6.08176 15.5567C6.08602 15.5543 6.09471 15.5496 6.09897 15.5473C6.09872 15.5582 6.09769 15.5693 6.09573 15.5804C6.06958 15.6656 6.0574 15.7583 6.08006 15.8461C6.08151 15.8592 6.09156 15.8677 6.10016 15.8765C6.11141 15.8547 6.11405 15.825 6.13833 15.8136C6.15588 15.8003 6.17863 15.8042 6.19908 15.8027C6.19771 15.7835 6.21152 15.7579 6.19678 15.7428L6.20504 15.744C6.20504 15.7166 6.20291 15.6892 6.20572 15.6621C6.21032 15.642 6.22259 15.6252 6.23384 15.6085C6.23316 15.6133 6.23179 15.6227 6.23111 15.6274C6.20462 15.7143 6.21237 15.809 6.23512 15.896C6.24653 15.9037 6.25812 15.9114 6.26962 15.9194C6.27669 15.8923 6.28359 15.8652 6.28947 15.838C6.33369 15.8286 6.3785 15.823 6.42298 15.815C6.43976 15.8139 6.44981 15.7985 6.45953 15.7865C6.5011 15.7305 6.51022 15.6587 6.53808 15.5959C6.55273 15.5606 6.57335 15.5218 6.61032 15.5077C6.64091 15.4963 6.66127 15.5245 6.67984 15.5439C6.69927 15.4949 6.69995 15.4415 6.70949 15.3901C6.72065 15.3004 6.77535 15.2263 6.81931 15.1507C6.8654 15.0775 6.9011 14.996 6.91124 14.9088C6.91524 14.8428 6.91678 14.7731 6.89233 14.7108C6.86839 14.7455 6.84981 14.7836 6.82485 14.8177C6.74971 14.8209 6.69799 14.7465 6.68547 14.6774C6.66732 14.5393 6.68266 14.3884 6.76538 14.2733C6.78217 14.2516 6.80466 14.2242 6.83482 14.2298C6.88628 14.3734 7.02438 14.4797 7.17254 14.4931C7.25859 14.5021 7.34983 14.4645 7.39942 14.3904C7.42728 14.3467 7.449 14.297 7.45113 14.2442C7.46434 14.1894 7.445 14.1337 7.42259 14.0843C7.39201 14.0149 7.34847 13.9524 7.31277 13.886C7.33603 13.7725 7.38945 13.668 7.44602 13.5685C7.35818 13.6004 7.28994 13.6748 7.24376 13.756C7.24692 13.7052 7.26804 13.6575 7.28483 13.6102C7.30826 13.5443 7.3454 13.4851 7.37838 13.4242C7.29514 13.4505 7.23686 13.5226 7.18327 13.589C7.2125 13.4722 7.25833 13.3597 7.32453 13.2598C7.31414 13.2618 7.30332 13.2626 7.29394 13.2677C7.21011 13.3128 7.14621 13.3884 7.10234 13.4733C7.04347 13.3081 7.06468 13.1289 7.08572 12.9585C7.11469 12.7201 7.15686 12.4831 7.21803 12.2511C7.24581 12.149 7.29752 12.0483 7.38613 11.9891C7.24802 11.9658 7.12014 12.1076 7.13326 12.2466C7.13199 12.2467 7.12943 12.2471 7.12815 12.2473C7.12747 12.1979 7.11213 12.1503 7.09475 12.1049C7.04474 11.9747 6.92564 11.874 6.7912 11.8506ZM5.7374 12.2816C5.72172 12.325 5.72044 12.3796 5.75222 12.4159C5.78229 12.4476 5.83103 12.4464 5.86894 12.4321C5.93352 12.4082 5.9762 12.3495 6.03269 12.3124C6.06038 12.2933 6.09284 12.2845 6.12538 12.2787C6.0936 12.2635 6.05492 12.2607 6.02212 12.2742C5.96615 12.2964 5.91128 12.3229 5.8519 12.334C5.82762 12.3366 5.79729 12.3394 5.78119 12.3163C5.76917 12.2791 5.78323 12.2415 5.79524 12.2066C5.76389 12.2183 5.74839 12.2516 5.7374 12.2816ZM5.2798 12.3571C5.28236 12.4041 5.24743 12.4414 5.247 12.4874C5.25169 12.5257 5.25603 12.5641 5.25433 12.6028C5.21761 12.5669 5.23448 12.5048 5.19904 12.4673C5.16001 12.4267 5.10949 12.3965 5.05548 12.383C5.06545 12.4347 5.04704 12.4932 5.07789 12.5395C5.09629 12.5677 5.10915 12.5998 5.13105 12.6257C5.13181 12.639 5.1325 12.6525 5.13309 12.666C5.12883 12.6662 5.12023 12.6665 5.11588 12.6667C5.09041 12.636 5.0663 12.6039 5.03972 12.5744C4.99209 12.5525 4.9391 12.5743 4.89275 12.5895C4.91533 12.6154 4.93944 12.6402 4.95691 12.6703C5.00581 12.7456 5.05727 12.8291 5.05028 12.9237C5.05241 12.9848 5.0145 13.0372 4.97079 13.0743C4.99277 13.1069 5.03512 13.1058 5.06945 13.1091C5.08658 13.1086 5.10668 13.1119 5.12142 13.1009C5.14408 13.0737 5.15737 13.0395 5.18114 13.0132C5.18421 13.0136 5.19043 13.0143 5.1935 13.0145C5.25978 13.0948 5.31942 13.1807 5.38468 13.262C5.44202 13.2128 5.47661 13.1429 5.5181 13.0805C5.52568 13.0669 5.53761 13.0547 5.53999 13.0388C5.51086 12.9177 5.37505 12.8636 5.34839 12.7412C5.3316 12.6392 5.37454 12.5362 5.3506 12.4348C5.33705 12.402 5.31371 12.3687 5.2798 12.3571ZM5.96811 13.9732C5.90566 13.9951 5.86809 14.055 5.8266 14.1037C5.78161 14.1608 5.71678 14.2104 5.6418 14.2067C5.64623 14.2497 5.65901 14.294 5.68704 14.3274C5.70707 14.3509 5.73629 14.3628 5.7656 14.3689C5.76866 14.3855 5.77088 14.4023 5.77199 14.4193C5.77803 14.5406 5.82472 14.6603 5.90617 14.749C5.91316 14.7598 5.93454 14.7749 5.92142 14.7884C5.86766 14.7966 5.81296 14.795 5.75878 14.7954C5.71584 14.7952 5.67026 14.7974 5.63141 14.7753C5.56155 14.7391 5.52807 14.6614 5.47107 14.6101C5.43026 14.5741 5.37556 14.5574 5.32223 14.5657C5.33101 14.5816 5.3414 14.5967 5.34805 14.6139C5.35248 14.6382 5.33859 14.66 5.33322 14.6829C5.36645 14.693 5.39967 14.7034 5.4335 14.7122C5.43341 14.722 5.43341 14.7318 5.4335 14.7419C5.38315 14.7299 5.32649 14.7244 5.27955 14.7512C5.24836 14.7674 5.22911 14.7995 5.21855 14.8327C5.23746 14.8336 5.25629 14.8344 5.27529 14.8353C5.2913 14.8637 5.30212 14.8948 5.30655 14.9274C5.34157 14.8913 5.3702 14.8492 5.40709 14.815C5.40581 14.8578 5.38289 14.8947 5.35929 14.9284C5.32692 14.974 5.2948 15.0263 5.29965 15.0853C5.32274 15.0799 5.34055 15.0633 5.36082 15.0518C5.37701 15.0714 5.39439 15.0899 5.41228 15.108C5.43963 15.0718 5.44219 15.0243 5.4559 14.9822C5.46102 14.9822 5.47141 14.9822 5.47652 14.9822C5.47184 15.0297 5.45309 15.0742 5.44704 15.1216C5.4358 15.1687 5.43631 15.2285 5.47771 15.2603C5.4847 15.2375 5.49143 15.2148 5.49867 15.1921C5.51878 15.1893 5.53931 15.1901 5.55848 15.1978C5.60568 15.2134 5.64802 15.1732 5.67213 15.1358C5.69446 15.0998 5.73015 15.0711 5.77309 15.0696C5.78502 15.0848 5.79899 15.0994 5.80521 15.1185C5.80845 15.1383 5.81041 15.1583 5.81578 15.1778C5.86119 15.1604 5.88521 15.1149 5.92381 15.088C5.99077 15.0518 6.06864 15.0519 6.14242 15.0493C6.21092 15.0455 6.26775 14.9984 6.30753 14.9443C6.23299 14.8722 6.17071 14.7866 6.12283 14.6937C6.09003 14.6246 6.06021 14.5475 6.07367 14.4693C6.08466 14.4365 6.09403 14.3949 6.12905 14.3809C6.16917 14.3589 6.21288 14.3856 6.24696 14.4075C6.25207 14.3605 6.25727 14.3131 6.25616 14.2658C6.22966 14.2169 6.17224 14.1931 6.14915 14.1412C6.13637 14.1121 6.14992 14.0798 6.14191 14.0503C6.1391 14.0769 6.13995 14.1038 6.13774 14.1306C6.13535 14.1007 6.13697 14.0708 6.142 14.0413C6.0936 14.0014 6.03345 13.9586 5.96811 13.9732Z" fill="#DAB42D"/>
<path d="M6.10523 11.5384C6.13939 11.4914 6.19716 11.4648 6.25381 11.4648C6.24112 11.5132 6.2274 11.5624 6.23328 11.6132C6.23294 11.6496 6.25381 11.6824 6.25108 11.7188C6.20133 11.7133 6.15055 11.6952 6.11639 11.6561C6.08683 11.6258 6.08495 11.5744 6.10523 11.5384Z" fill="#DAB42D"/>
<path d="M6.33189 11.4653C6.38496 11.4613 6.43949 11.4852 6.4751 11.5255C6.50041 11.552 6.50433 11.5943 6.49197 11.6279C6.46036 11.6895 6.38795 11.7149 6.32422 11.721C6.36861 11.6444 6.3698 11.5449 6.33189 11.4653Z" fill="#DAB42D"/>
<path d="M5.92544 11.5857C5.93882 11.5444 5.98398 11.5253 6.02274 11.5195C6.01277 11.547 5.99693 11.5742 6.00042 11.6047C6.00323 11.645 6.03296 11.6764 6.06483 11.6967C6.0644 11.7025 6.06355 11.714 6.06312 11.7197C6.02104 11.7171 5.97418 11.7122 5.94376 11.6785C5.91829 11.6554 5.91948 11.6171 5.92544 11.5857Z" fill="#DAB42D"/>
<path d="M6.56827 11.5195C6.60798 11.5247 6.65143 11.5456 6.6654 11.5871C6.67307 11.6197 6.66974 11.6595 6.64188 11.6813C6.60133 11.7207 6.54195 11.7178 6.49023 11.716C6.5261 11.6941 6.56844 11.6739 6.58412 11.6309C6.59971 11.593 6.58301 11.5543 6.56827 11.5195Z" fill="#DAB42D"/>
<path d="M2.77096 11.5742C2.86246 11.5752 2.95396 11.5745 3.04546 11.5746C3.04708 11.6583 3.0447 11.7421 3.04674 11.8259C3.11703 11.827 3.1874 11.8245 3.25769 11.827C3.26229 11.8175 3.26451 11.8075 3.26434 11.797C3.26425 11.7282 3.26348 11.6594 3.26485 11.5907C3.35158 11.5904 3.43822 11.5911 3.52495 11.5902C3.52666 11.7925 3.52623 11.9948 3.52521 12.1972C3.10868 12.1964 2.69224 12.1969 2.27579 12.1969C2.27562 11.9948 2.27477 11.7925 2.27622 11.5904C2.36295 11.5907 2.44968 11.5911 2.53641 11.5901C2.53812 11.6413 2.53709 11.6926 2.53726 11.7438C2.53786 11.7716 2.5342 11.8003 2.54314 11.8273C2.61624 11.8245 2.68951 11.8268 2.7627 11.8259C2.77718 11.7429 2.76457 11.658 2.77096 11.5742Z" fill="#DAB42D"/>
<path d="M6.18003 11.9471C6.23575 11.947 6.2924 11.9409 6.34753 11.952C6.3557 11.956 6.37308 11.9542 6.37036 11.9686C6.32461 11.9917 6.27502 12.0055 6.22834 12.0263C6.21283 12.0334 6.19647 12.0381 6.17969 12.0402C6.18037 12.0091 6.18037 11.978 6.18003 11.9471Z" fill="#DAB42D"/>
<path d="M2.48142 12.301C2.76086 12.3015 3.04031 12.3019 3.31967 12.3008C3.33552 12.3713 3.33705 12.4444 3.34881 12.5158C3.42974 13.1872 3.51111 13.8586 3.59264 14.53C3.5969 14.5866 3.61028 14.6423 3.61028 14.6993C3.13735 14.6978 2.66433 14.6992 2.19141 14.6986C2.19856 14.5872 2.21944 14.4771 2.22906 14.3659C2.31264 13.682 2.3946 12.9977 2.47801 12.3138C2.47886 12.3106 2.48056 12.3042 2.48142 12.301ZM2.70114 12.9983C2.69875 13.0451 2.69415 13.094 2.70651 13.1399C2.83618 13.1399 2.96585 13.139 3.09543 13.1404C3.10651 13.0936 3.10097 13.0448 3.1008 12.9972C3.09833 12.9949 3.09322 12.9903 3.09066 12.988C2.96363 12.9866 2.83635 12.9864 2.70932 12.9882C2.70727 12.9907 2.70318 12.9958 2.70114 12.9983ZM2.70574 13.4665C2.7071 13.5145 2.70591 13.5627 2.70693 13.6108C2.83788 13.6107 2.96891 13.6109 3.09986 13.6106C3.10404 13.5628 3.10012 13.5147 3.10267 13.4669C3.09143 13.4609 3.07899 13.4584 3.06655 13.4593C2.95869 13.4595 2.85092 13.4596 2.74306 13.4593C2.73011 13.4582 2.71758 13.4614 2.70574 13.4665ZM2.69884 13.9396C2.70216 13.9878 2.69262 14.0374 2.70634 14.0844C2.83592 14.0847 2.96542 14.084 3.09501 14.0849C3.1083 14.0377 3.09824 13.9882 3.10216 13.94C3.091 13.9339 3.07882 13.9306 3.06621 13.9318C2.95826 13.9318 2.85041 13.9319 2.74246 13.9318C2.72747 13.9314 2.71315 13.9358 2.69884 13.9396Z" fill="#DAB42D"/>
<path d="M2.02938 14.8087C2.60974 14.809 3.19011 14.808 3.77047 14.8092C3.77098 15.0114 3.77047 15.2135 3.77072 15.4156C3.61601 15.417 3.46129 15.4156 3.30657 15.4164C3.30367 15.3637 3.31075 15.3102 3.2995 15.2583C3.03334 15.2592 2.76719 15.258 2.50103 15.2589C2.49975 15.3111 2.50044 15.3633 2.50061 15.4156C2.3435 15.4169 2.1864 15.4158 2.0293 15.4162C2.02955 15.2137 2.02938 15.0112 2.02938 14.8087Z" fill="#DAB42D"/>
<path d="M10.2548 10.1957C10.9942 10.1956 11.7336 10.1957 12.473 10.1957C12.9153 10.1924 13.3597 10.2106 13.7961 10.2893C14.1222 10.35 14.4488 10.4435 14.7341 10.6213C14.8701 10.7067 14.9947 10.8132 15.0944 10.9414C15.1843 11.0555 15.2533 11.1865 15.2998 11.3251C15.3607 11.507 15.3825 11.7007 15.38 11.8924C15.3765 12.0526 15.3539 12.2134 15.3005 12.3646C15.2436 12.5296 15.1497 12.6804 15.0301 12.8051C14.8194 13.0223 14.5431 13.1577 14.261 13.2479C14.1932 13.271 14.1231 13.2858 14.0551 13.3073C14.3728 13.3689 14.6905 13.4661 14.9638 13.6482C15.0951 13.7367 15.2142 13.8462 15.3069 13.977C15.3921 14.0946 15.4546 14.2287 15.4959 14.3688C15.5479 14.5467 15.5658 14.7336 15.5622 14.9189C15.5584 15.1234 15.5291 15.3289 15.46 15.5215C15.37 15.7798 15.2012 16.007 14.9857 16.1687C14.7352 16.3578 14.4366 16.467 14.1349 16.5338C13.9018 16.5846 13.6641 16.6117 13.4261 16.6233C13.2505 16.6341 13.0746 16.6292 12.8988 16.6303C12.4246 16.6303 11.9502 16.6303 11.4759 16.6303C11.0686 16.6292 10.6611 16.6325 10.2539 16.6287C10.2558 14.4844 10.254 12.34 10.2548 10.1957ZM11.9368 11.3649C11.9362 11.844 11.9369 12.323 11.9365 12.802C12.0639 12.8023 12.1914 12.8021 12.3189 12.8022C12.5406 12.7996 12.7636 12.8129 12.9837 12.7785C13.1471 12.7531 13.3141 12.7097 13.4495 12.6079C13.5658 12.5222 13.6425 12.3865 13.6672 12.2427C13.6962 12.0787 13.6864 11.9008 13.6071 11.7524C13.537 11.6223 13.4148 11.5297 13.2825 11.4747C13.0939 11.3949 12.8882 11.3715 12.6859 11.3649C12.4362 11.3648 12.1865 11.3646 11.9368 11.3649ZM11.9365 13.914C11.9372 14.429 11.9355 14.9441 11.9373 15.4591C12.1441 15.4577 12.3509 15.4589 12.5576 15.4586C12.7863 15.4601 13.0174 15.4493 13.2399 15.3914C13.3902 15.3513 13.5416 15.2843 13.6443 15.1603C13.7474 15.0391 13.7898 14.876 13.7958 14.7179C13.8027 14.5642 13.7755 14.4035 13.6892 14.2749C13.6043 14.1466 13.4693 14.0626 13.3284 14.0136C13.1032 13.9338 12.8627 13.9186 12.6264 13.9138C12.3964 13.9141 12.1664 13.9137 11.9365 13.914Z" fill="#A42A25"/>
<path d="M16.1532 10.1962C17.0589 10.1954 17.9647 10.1961 18.8705 10.1959C19.1635 10.1926 19.4576 10.2024 19.7475 10.2491C19.9911 10.2881 20.2325 10.3516 20.4586 10.454C20.6621 10.5461 20.8527 10.6714 21.011 10.8324C21.1611 10.9834 21.2794 11.1667 21.3605 11.3654C21.4348 11.5472 21.4789 11.7409 21.5001 11.9365C21.5268 12.1837 21.5225 12.4345 21.4845 12.6802C21.4554 12.8624 21.4046 13.0415 21.3281 13.2088C21.1696 13.56 20.8903 13.8462 20.5604 14.0298C20.3807 14.1309 20.1865 14.2036 19.9874 14.2527C19.7199 14.32 19.4438 14.3439 19.1691 14.3476C18.7461 14.3479 18.3232 14.3477 17.9002 14.3477C17.8997 15.0836 17.9001 15.8194 17.9001 16.5552C17.8995 16.5803 17.8979 16.6055 17.8971 16.6308C17.316 16.6308 16.735 16.6297 16.154 16.6312C16.1507 16.2618 16.1535 15.8923 16.1526 15.5229C16.153 13.7473 16.1518 11.9718 16.1532 10.1962ZM17.9002 11.4C17.8996 11.9607 17.9003 12.5215 17.8999 13.0822C18.1412 13.0824 18.3825 13.0822 18.6237 13.0823C18.7773 13.0845 18.9318 13.0766 19.0829 13.0463C19.2085 13.0206 19.3332 12.9794 19.4417 12.9082C19.5237 12.8548 19.5944 12.7824 19.644 12.6965C19.7094 12.5864 19.7404 12.4582 19.7507 12.3307C19.7603 12.1773 19.7528 12.0191 19.6977 11.8745C19.6504 11.7448 19.5591 11.6329 19.4432 11.5624C19.3323 11.4939 19.2064 11.456 19.08 11.4322C18.9153 11.4013 18.7473 11.3978 18.5804 11.4C18.3537 11.4 18.1269 11.4 17.9002 11.4Z" fill="#A42A25"/>
<path d="M22.0938 10.197C22.673 10.1938 23.2525 10.1963 23.8319 10.1957C23.832 12.1756 23.8319 14.1555 23.8319 16.1355C23.8325 16.2999 23.8308 16.4642 23.8327 16.6286C23.2533 16.6322 22.6737 16.6294 22.0942 16.63C22.0937 14.4856 22.0947 12.3413 22.0938 10.197Z" fill="#A42A25"/>
</g>
<defs>
<clipPath id="clip0_1562_1452">
<rect width="24" height="13" fill="white" transform="translate(0 6)"/>
</clipPath>
</defs>
</svg>
