<svg width="24" height="24" viewBox="0 0 24 24" fill="none" xmlns="http://www.w3.org/2000/svg">
<path d="M12.1912 6.10827C13.5802 5.80623 15.0956 6.14404 16.2147 7.02276C15.5137 7.85656 14.8368 8.71063 14.133 9.54205C13.5675 10.1918 13.0492 10.881 12.4829 11.5304C12.3024 11.7466 12.1387 11.9759 11.9471 12.183C11.5104 12.7266 11.0585 13.258 10.6229 13.8025C10.4425 14.0127 10.2795 14.2373 10.09 14.44C9.31379 13.7778 8.78004 12.8487 8.54953 11.8587C8.32657 10.854 8.41083 9.77455 8.83488 8.83264C9.10315 8.21822 9.51091 7.67017 10.0009 7.21511C10.6257 6.6754 11.3804 6.27798 12.1912 6.10827Z" fill="#9FD067"/>
<path d="M12.4826 11.5274C13.0489 10.878 13.5672 10.1889 14.1327 9.53906C14.8986 10.235 15.4581 11.1622 15.6755 12.1772C15.9044 13.2228 15.7856 14.3487 15.3119 15.3121C14.8978 16.1805 14.2015 16.9058 13.3657 17.3787C12.6014 17.8056 11.7199 18.0186 10.8468 17.9975C9.8234 17.9514 8.80996 17.6037 8 16.9718C8.70265 16.132 9.39418 15.2827 10.0897 14.437C10.2793 14.2343 10.4422 14.0097 10.6226 13.7995C11.0582 13.255 11.5101 12.7237 11.9469 12.18C12.1384 11.9729 12.3022 11.7436 12.4826 11.5274Z" fill="#1AB7EA"/>
</svg>
