<svg xmlns="http://www.w3.org/2000/svg" width="256" height="256" fill="none"><path stroke="#D5D5D5" d="M219.772 179.512c0 12.085-10.094 23.168-26.744 31.26-16.617 8.075-39.607 13.084-65.028 13.084s-48.411-5.009-65.028-13.084c-16.65-8.092-26.744-19.175-26.744-31.26 0-12.084 10.094-23.168 26.744-31.26 16.617-8.075 39.607-13.084 65.028-13.084s48.411 5.009 65.028 13.084c16.65 8.092 26.744 19.176 26.744 31.26Z"/><path fill="#F7921E" d="m110.048 169.348-23.5-13.572v-1.024l21.6-12.472 23.5 13.568v1.028z"/><path fill="#F7921E" d="m86.548 154.752 23.5 13.568 21.6-12.472-23.5-13.568z"/><path fill="#000" d="m86.548 154.752 23.5 13.568 21.6-12.472-23.5-13.568z" opacity=".15"/><path fill="#37474F" d="M115.872 160.4a1.74 1.74 0 0 0 1.576 0 .478.478 0 0 0 .235-.733.48.48 0 0 0-.235-.175 1.74 1.74 0 0 0-1.576 0 .478.478 0 0 0-.235.733c.058.081.14.143.235.175"/><path fill="#000" d="M110.048 168.32v1.028l-23.5-13.572v-1.024z" opacity=".3"/><path fill="#F7921E" d="m79.336 74.36 26.184 15.116a1.94 1.94 0 0 1 .876 1.516v79.524a1.94 1.94 0 0 1-.876 1.52L77.2 188.4a1.93 1.93 0 0 1-1.752 0l-26.184-15.132a1.93 1.93 0 0 1-.864-1.516V92.228a1.94 1.94 0 0 1 .876-1.52L77.6 74.36a1.93 1.93 0 0 1 1.736 0"/><path fill="#F7921E" d="M48.4 92.224v79.528a1.95 1.95 0 0 0 .876 1.516L75.448 188.4c.268.146.57.219.876.212v-81.564a1.8 1.8 0 0 1-.876-.212L49.264 91.72l-.24-.2-.312-.256c-.192.284-.3.617-.312.96"/><path fill="#000" d="M48.4 92.224v79.528a1.95 1.95 0 0 0 .876 1.516L75.448 188.4c.268.146.57.219.876.212v-81.564a1.8 1.8 0 0 1-.876-.212L49.264 91.72l-.24-.2-.312-.256c-.192.284-.3.617-.312.96" opacity=".3"/><path fill="#F7921E" d="M49.264 90.708 77.6 74.36a1.92 1.92 0 0 1 1.748 0l26.184 15.116a.534.534 0 0 1 .26.816.53.53 0 0 1-.26.196L77.2 106.84a1.96 1.96 0 0 1-1.752 0L49.264 91.72a.538.538 0 0 1 0-1.012"/><path fill="#000" d="M49.264 90.708 77.6 74.36a1.92 1.92 0 0 1 1.748 0l26.184 15.116a.534.534 0 0 1 .26.816.53.53 0 0 1-.26.196L77.2 106.84a1.96 1.96 0 0 1-1.752 0L49.264 91.72a.538.538 0 0 1 0-1.012" opacity=".15"/><path fill="#455A64" d="m103.252 144.648-23.5 13.568v24.94l23.5-13.568z"/><path fill="#263238" d="M91.704 162.464a.26.26 0 0 0-.125-.02.24.24 0 0 0-.119.044L81.9 168a.7.7 0 0 0-.244.256l-.64-.372a.7.7 0 0 1 .24-.256l9.36-5.38a.74.74 0 0 1 .684 0z"/><path fill="#37474F" d="M81.556 168.584v10.708c0 .22.156.308.344.2L91.46 174a.76.76 0 0 0 .344-.592v-10.72c0-.22-.156-.308-.344-.2L81.9 168a.76.76 0 0 0-.344.584"/><path fill="#263238" d="m81.648 179.512-.4-.228a.76.76 0 0 1-.34-.592v-10.48a.7.7 0 0 1 .1-.34l.64.372a.7.7 0 0 0-.1.34v10.708a.26.26 0 0 0 .1.22"/><path fill="#F7921E" d="M82.32 178.528a.2.2 0 0 1-.08-.02.2.2 0 0 1-.088-.184V168.8a.53.53 0 0 1 .244-.4l8.524-4.9a.2.2 0 0 1 .204 0 .2.2 0 0 1 .088.184v9.516a.53.53 0 0 1-.24.42l-8.524 4.9a.3.3 0 0 1-.128.008m8.72-14.976a.2.2 0 0 0-.072.02l-8.528 4.904a.44.44 0 0 0-.192.332v9.516c0 .048 0 .084.036.096a.1.1 0 0 0 .104 0l8.524-4.9a.43.43 0 0 0 .192-.332v-9.532c0-.048 0-.084-.036-.096a.05.05 0 0 0-.028-.008"/><path fill="#F7921E" d="M82.992 177.276a.1.1 0 0 1-.048 0 .1.1 0 0 1-.052-.1v-8.088a.3.3 0 0 1 .037-.112.3.3 0 0 1 .079-.088l7.284-4.196a.1.1 0 0 1 .058-.016q.03 0 .058.016a.12.12 0 0 1 .052.104v8.088a.26.26 0 0 1-.116.204l-7.276 4.18a.13.13 0 0 1-.076.008m7.36-12.496-7.288 4.2a.2.2 0 0 0-.064.112v8.108l7.272-4.18a.16.16 0 0 0 .068-.116v-8.088q.007.001.016-.003a.03.03 0 0 0 .01-.013.02.02 0 0 0 0-.016.02.02 0 0 0-.01-.012zm-6.868 1.976a.1.1 0 0 1-.068-.031.1.1 0 0 1-.028-.069v-2.28a.095.095 0 0 1 .096-.096.096.096 0 0 1 .096.096v2.28q0 .04-.028.069a.1.1 0 0 1-.068.031m1.596-.916a.1.1 0 0 1-.037-.007.1.1 0 0 1-.059-.089v-2.284a.095.095 0 0 1 .096-.096.096.096 0 0 1 .096.096v2.284q0 .04-.028.068a.1.1 0 0 1-.068.028m1.596-.916a.1.1 0 0 1-.038-.006.1.1 0 0 1-.054-.052.1.1 0 0 1-.008-.038v-2.28a.1.1 0 0 1 .035-.058.1.1 0 0 1 .126 0q.027.023.035.058v2.28q0 .04-.028.068a.1.1 0 0 1-.068.028m1.592-.924a.096.096 0 0 1-.096-.096v-2.284a.1.1 0 0 1 .035-.058.1.1 0 0 1 .126 0q.027.023.035.058v2.284a.1.1 0 0 1-.1.096m1.596-.904a.1.1 0 0 1-.037-.007.1.1 0 0 1-.059-.089v-2.28a.096.096 0 0 1 .096-.096.1.1 0 0 1 .038.006.1.1 0 0 1 .031.021q.013.014.021.032a.1.1 0 0 1 .006.037V163a.1.1 0 0 1-.006.038.1.1 0 0 1-.02.031.1.1 0 0 1-.032.021.1.1 0 0 1-.038.006"/><path fill="#263238" d="M91.704 154.04a.25.25 0 0 0-.244.024l-9.56 5.5a.74.74 0 0 0-.244.252l-.64-.368a.7.7 0 0 1 .24-.256l9.36-5.384a.77.77 0 0 1 .684 0z"/><path fill="#37474F" d="M81.556 160.156v5.4c0 .22.156.308.344.2l9.56-5.5a.76.76 0 0 0 .344-.592v-5.404c0-.216-.156-.304-.344-.196l-9.56 5.5a.75.75 0 0 0-.344.592"/><path fill="#263238" d="m81.648 165.776-.4-.228a.76.76 0 0 1-.34-.592v-5.172a.7.7 0 0 1 .1-.336l.64.368a.74.74 0 0 0-.1.34v5.404a.26.26 0 0 0 .1.216"/><path fill="#F7921E" d="M82.32 164.8a.2.2 0 0 1-.08-.02.2.2 0 0 1-.088-.184V160.4a.53.53 0 0 1 .244-.4l8.524-4.904a.186.186 0 0 1 .275.067.2.2 0 0 1 .017.105v4.204a.53.53 0 0 1-.24.42l-8.524 4.9a.25.25 0 0 1-.128.008m8.72-9.668a.12.12 0 0 0-.072.024l-8.528 4.896a.44.44 0 0 0-.192.332v4.204c0 .048 0 .084.036.096a.1.1 0 0 0 .104 0l8.524-4.9a.43.43 0 0 0 .192-.332v-4.22a.1.1 0 0 0-.006-.054.1.1 0 0 0-.03-.046z"/><path fill="#F7921E" d="M82.992 163.544a.1.1 0 0 1-.048 0 .1.1 0 0 1-.052-.1v-2.764a.3.3 0 0 1 .116-.204l7.284-4.196a.12.12 0 0 1 .116 0q.025.016.04.043t.012.057v2.8a.26.26 0 0 1-.116.204l-7.276 4.18a.14.14 0 0 1-.076-.02m7.36-7.2-7.288 4.196a.22.22 0 0 0-.064.116v2.78l7.272-4.18a.16.16 0 0 0 .068-.116v-2.8s.016.008.016.004zm3.284-3.404a1.26 1.26 0 0 0-.568.98c0 .36.256.504.568.324a1.25 1.25 0 0 0 .564-.976c0-.36-.256-.508-.564-.328m0 9.6a1.26 1.26 0 0 0-.568.98c0 .36.256.504.568.324a1.25 1.25 0 0 0 .564-.976c0-.36-.256-.508-.564-.328m0 2.584a1.25 1.25 0 0 0-.568.976c0 .36.256.504.568.324a1.24 1.24 0 0 0 .564-.976c0-.36-.256-.504-.564-.324m0 2.58a1.26 1.26 0 0 0-.568.98c0 .356.256.504.568.324a1.25 1.25 0 0 0 .564-.976c0-.36-.256-.508-.564-.328m0 2.584a1.25 1.25 0 0 0-.568.976c0 .36.256.504.568.324a1.25 1.25 0 0 0 .564-.976c0-.36-.256-.504-.564-.324m0-15.016a1.26 1.26 0 0 0-.568.98c0 .36.256.504.568.324a1.25 1.25 0 0 0 .564-.976c0-.36-.256-.508-.564-.328m0 2.328a1.26 1.26 0 0 0-.568.98c0 .36.256.504.568.324a1.25 1.25 0 0 0 .564-.976c0-.356-.256-.504-.564-.328"/><path fill="#263238" d="m99.808 154.16-.056-.524a.1.1 0 0 0-.006-.025.1.1 0 0 0-.017-.019.1.1 0 0 0-.024-.01.1.1 0 0 0-.025.002 1.2 1.2 0 0 1-.26.028.13.13 0 0 0-.059.012.13.13 0 0 0-.045.04l-.116.172.616.352a.05.05 0 0 1-.008-.028m.444-3.672q.003.062 0 .124a2 2 0 0 1-.912 1.6l-.112.06c.056.488.44.668.904.4a2 2 0 0 0 .912-1.58c.008-.56-.34-.8-.792-.604m1.976-.464-.62-.36-.092.188a.13.13 0 0 0-.013.058q0 .03.013.058.067.114.108.24a.1.1 0 0 0 .011.022.1.1 0 0 0 .02.015.1.1 0 0 0 .025.005.1.1 0 0 0 .024-.006l.48-.212a.1.1 0 0 1 .02-.004q.01 0 .02.004zm-1.2-1.368-.348-.204h-.052l-.284.428-.36-.208-.26-.152h-.028l-.372.216-.168.096h-.02v.056l-.052.604v.02a.04.04 0 0 1 0 .02.2.2 0 0 1-.044.072 3 3 0 0 0-.322.335.1.1 0 0 1-.026.009.1.1 0 0 1-.06 0l-.348-.12h-.08l-.164.284-.172.3-.06.104a.1.1 0 0 0 0 .052q.005.03.028.052l.28.24.02.028a.1.1 0 0 1 0 .044.1.1 0 0 1 0 .032 3 3 0 0 0-.128.42.2.2 0 0 1-.032.068l-.036.04-.492.344s-.024.024-.036.04a.14.14 0 0 0 0 .068v.624a.048.048 0 0 0 0 .04l.628.36-.228.46a.072.072 0 0 0 .028.092l.76.44h.032a.2.2 0 0 1-.028-.028.08.08 0 0 1 0-.068l.32-.644a.1.1 0 0 0 0-.028.12.12 0 0 0 0-.088 1.3 1.3 0 0 1-.104-.24.1.1 0 0 0-.012-.022.1.1 0 0 0-.02-.015.1.1 0 0 0-.024-.005.1.1 0 0 0-.024.006l-.244.108-.24.108a.04.04 0 0 1-.02.006.04.04 0 0 1-.02-.006.04.04 0 0 1-.016-.017.04.04 0 0 1-.004-.023v-.624a.13.13 0 0 1 .02-.064s0-.032.036-.04l.492-.348a.1.1 0 0 0 .04-.04.15.15 0 0 0 .028-.064q.05-.214.128-.42a.1.1 0 0 0 0-.036.1.1 0 0 0-.032-.072l-.28-.24a.1.1 0 0 1-.017-.021.1.1 0 0 1-.007-.027.08.08 0 0 1 0-.052l.116-.196.136-.244.144-.248a.1.1 0 0 1 .064-.04h.036l.344.12q.031.012.064 0a.1.1 0 0 0 .044-.028 3 3 0 0 1 .3-.32.2.2 0 0 0 .044-.068.1.1 0 0 0 0-.044l.056-.6a.1.1 0 0 1 0-.032.14.14 0 0 1 .056-.068l.1-.06.216-.124.224-.128a.04.04 0 0 1 .018-.004.04.04 0 0 1 .018.004s.02.02.024.036l.028.276.024.248q0 .013.007.025a.1.1 0 0 0 .016.019.053.053 0 0 0 .049.008 1.2 1.2 0 0 1 .26-.028.1.1 0 0 0 .04-.004.1.1 0 0 0 .036-.02.06.06 0 0 0 .028-.028l.4-.6a.1.1 0 0 1 .018-.018.1.1 0 0 1 .024-.01.07.07 0 0 1 .05.008z"/><path fill="#000" d="M99.816 149.384a.1.1 0 0 0 0 .032l-.056.6a.1.1 0 0 1 0 .044l-.8-.46v-.04l.052-.604v-.032z" opacity=".1"/><path fill="#000" d="M99.352 150.476a.1.1 0 0 1-.064 0l-.344-.12h-.036l-.8-.452h.024l.348.12q.03.009.06 0zm-.576 1.016-.8-.456v-.04l-.02-.028-.28-.24a.1.1 0 0 1-.028-.052l.8.46q0 .013.007.027.006.012.017.021l.28.24a.1.1 0 0 1 .024.068m-.004 1.824a.1.1 0 0 1 0 .028l-.32.644a.08.08 0 0 0 0 .068l-.756-.44a.07.07 0 0 1-.028-.092l.228-.46.168.096a.04.04 0 0 0 .02.006.04.04 0 0 0 .02-.006l.24-.108zm1.036.844a.1.1 0 0 0 0 .028l-.616-.352.116-.172a.13.13 0 0 1 .045-.04.13.13 0 0 1 .059-.012q.132 0 .26-.028a.1.1 0 0 1 .025-.002.1.1 0 0 1 .024.01.1.1 0 0 1 .016.019.1.1 0 0 1 .007.025z" opacity=".15"/><path fill="#000" d="M101.456 148.912a.07.07 0 0 0-.05-.008.1.1 0 0 0-.024.01.1.1 0 0 0-.018.018l-.4.6a.06.06 0 0 1-.028.028l-.224-.128-.208-.12-.028-.276s0-.032-.024-.036l-.16-.096.284-.428a.1.1 0 0 1 .044 0l.348.204z" opacity=".1"/><path fill="#000" d="M98.616 152a.1.1 0 0 1-.04.04l-.492.348s-.024.024-.036.04l-.8-.46s.02-.032.036-.04l.492-.344.036-.04z" opacity=".15"/><path fill="#37474F" d="m102.192 150.028-.48.216a.1.1 0 0 1-.024.006.1.1 0 0 1-.025-.005.04.04 0 0 1-.019-.015.1.1 0 0 1-.012-.022 1.2 1.2 0 0 0-.108-.24.13.13 0 0 1-.013-.058q0-.03.013-.058l.32-.644a.08.08 0 0 0 .004-.053.08.08 0 0 0-.032-.043l-.348-.2a.07.07 0 0 0-.052-.009.07.07 0 0 0-.044.029l-.4.6a.12.12 0 0 1-.104.052q-.132 0-.26.028a.05.05 0 0 1-.049-.008.1.1 0 0 1-.016-.02.1.1 0 0 1-.007-.024l-.052-.524a.04.04 0 0 0-.006-.021.1.1 0 0 0-.016-.015.04.04 0 0 0-.022-.004.1.1 0 0 0-.02.008l-.54.312a.13.13 0 0 0-.064.1l-.056.6a.2.2 0 0 1-.056.112 3 3 0 0 0-.3.32.11.11 0 0 1-.108.028l-.344-.12a.1.1 0 0 0-.056.001.1.1 0 0 0-.044.035l-.4.688a.1.1 0 0 0-.016.05q0 .028.016.05l.28.24a.1.1 0 0 1 .03.05.1.1 0 0 1-.002.058 3 3 0 0 0-.128.42.16.16 0 0 1-.068.104l-.492.348a.14.14 0 0 0-.056.104v.624a.04.04 0 0 0 .003.022.04.04 0 0 0 .015.017.1.1 0 0 0 .02.007.04.04 0 0 0 .022-.006l.484-.216a.1.1 0 0 1 .024-.006q.013 0 .025.005a.1.1 0 0 1 .02.015q.008.01.011.022.04.125.104.24.015.028.015.058a.1.1 0 0 1-.015.058l-.32.644a.076.076 0 0 0 .028.096l.348.2a.07.07 0 0 0 .048.018.07.07 0 0 0 .048-.018l.4-.6a.13.13 0 0 1 .045-.04.13.13 0 0 1 .059-.012q.132 0 .26-.028a.1.1 0 0 1 .025-.002.1.1 0 0 1 .024.01.1.1 0 0 1 .017.019.1.1 0 0 1 .006.025l.056.524c0 .036.028.052.064.032l.54-.312a.154.154 0 0 0 .064-.1l.052-.6a.2.2 0 0 1 .056-.112q.162-.149.3-.32a.1.1 0 0 1 .05-.029.1.1 0 0 1 .058.001l.348.12a.1.1 0 0 0 .054-.002.1.1 0 0 0 .042-.034l.4-.688a.1.1 0 0 0 .018-.05.1.1 0 0 0-.018-.05l-.28-.24a.1.1 0 0 1-.029-.05.1.1 0 0 1 .001-.058q.078-.206.128-.42a.2.2 0 0 1 .068-.104l.492-.348a.14.14 0 0 0 .056-.104v-.624a.04.04 0 0 0 .012-.03l-.003-.016-.009-.014a.04.04 0 0 0-.03-.012l-.016.003zm-2.052 2.624c-.504.292-.912.056-.912-.528a2 2 0 0 1 .912-1.58c.504-.292.912-.056.912.528a2.005 2.005 0 0 1-.912 1.58"/><path fill="#263238" d="M98.476 155.448h-.024l-.128-.072-.364-.212h-.08l-.34.032h-.032l-.184.492a.1.1 0 0 1-.028.04l-.044.032-.112.056-.352-.204a.06.06 0 0 0-.036 0l-.264.28-.108.112a.1.1 0 0 0 0 .024v.024a.04.04 0 0 0 0 .02l.104.352v.044a.2.2 0 0 1 0 .04 2.5 2.5 0 0 0-.172.296.1.1 0 0 1-.04.04.1.1 0 0 1-.04.02l-.32.08h-.024a.03.03 0 0 0-.02 0l-.003.012.003.012-.12.4-.04.144v.04l.212.124h.028l.116.064v.144a.12.12 0 0 1-.028.084l-.324.4a.1.1 0 0 0 0 .044.048.048 0 0 0 0 .04l.152.336.644.376h.032v-.032l-.076-.164-.064-.144a.1.1 0 0 1 0-.044.06.06 0 0 1 .02-.036l.324-.4a.1.1 0 0 0 0-.04.1.1 0 0 0 0-.048 1.6 1.6 0 0 1 0-.28.05.05 0 0 0-.014-.034.05.05 0 0 0-.034-.014h-.316a.04.04 0 0 1-.005-.018q0-.01.005-.018l.072-.244.08-.28v-.024a.1.1 0 0 1 .06-.036l.32-.08a.07.07 0 0 0 .04-.02.08.08 0 0 0 .04-.04q.079-.153.172-.296a.1.1 0 0 0 0-.04.1.1 0 0 0 0-.044l-.104-.352a.1.1 0 0 1 0-.04.07.07 0 0 1 .024-.04l.252-.268.12-.128s.04-.024.052 0l.172.264h.072q.102-.07.212-.124a.1.1 0 0 0 .04-.024.1.1 0 0 0 .032-.044l.184-.496v-.024l.124-.032.272-.028h.028zm-1.44 3.6a.05.05 0 0 0-.005-.036.05.05 0 0 0-.027-.024.6.6 0 0 1-.148-.088.1.1 0 0 0-.04-.012.1.1 0 0 0-.04.012l-.344.316a.1.1 0 0 1-.04 0l.34.196.212.124-.004-.016q0-.009.004-.016zm1.52-3.568a.04.04 0 0 1 .004.018.04.04 0 0 1-.004.018l-.108.484a.05.05 0 0 0 .008.036q.01.017.028.024a.8.8 0 0 1 .148.088h.076l.344-.32c.02 0 .04-.02.052 0zm-.452 3.6-.172-.264c0-.02-.044-.02-.072 0l-.104.064.356.208zm.276-2.204a.34.34 0 0 0-.268-.212h-.04a.55.55 0 0 0-.24.052 1.496 1.496 0 0 1-.684 1.272l-.076.044q.006.092.044.176a.335.335 0 0 0 .32.216h.132a.97.97 0 0 0 .44-.288 1.29 1.29 0 0 0 .392-1.26zm.536 0v.136q0 .01.004.019a.04.04 0 0 0 .012.016q.007.007.016.011a.04.04 0 0 0 .02.002h.312z"/><path fill="#000" d="m98.104 159.08-.356-.208.104-.064c.028-.02.06-.02.072 0z" opacity=".15"/><path fill="#000" d="m96.928 159.552-.004.016q0 .009.004.016l-.212-.124-.34-.196a.1.1 0 0 0 .04 0l.344-.316a.1.1 0 0 1 .04-.012q.022 0 .04.012a.6.6 0 0 0 .148.088.06.06 0 0 1 .027.024.05.05 0 0 1 .005.036zm-.344-1.152a.1.1 0 0 1-.024.036l-.328.4a.1.1 0 0 0 0 .04l-.684-.4a.2.2 0 0 1 0-.048l.324-.4s0-.024.02-.032z" opacity=".1"/><path fill="#000" d="M96.588 158.068v.28a.1.1 0 0 1 0 .048l-.688-.4a.1.1 0 0 0 0-.052v-.144l.32.188h.316a.06.06 0 0 1 .034-.004.05.05 0 0 1 .028.021q.01.016.007.033a.05.05 0 0 1-.017.03" opacity=".05"/><path fill="#000" d="M96.8 157.26a.1.1 0 0 1-.044 0l-.32.08a.1.1 0 0 0-.034.014.1.1 0 0 0-.026.026l-.684-.4h.044l.32-.076a.1.1 0 0 0 .04-.024zm.236-.424a.1.1 0 0 1 0 .044l-.684-.4a.1.1 0 0 0 0-.048l-.104-.352v-.02l.688.4a.2.2 0 0 0 0 .04zm1.092-1.284v.024l-.18.492a.1.1 0 0 1-.036.048l-.688-.4.028-.036.188-.496z" opacity=".1"/><path fill="#37474F" d="M99.272 157.084h-.312q-.01 0-.02-.002l-.017-.011a.04.04 0 0 1-.011-.016.04.04 0 0 1-.004-.019v-.28q.001-.047.032-.084l.328-.4a.09.09 0 0 0 0-.08l-.152-.34h-.052l-.344.32c-.028.02-.06.028-.076 0a.8.8 0 0 0-.148-.088.05.05 0 0 1-.028-.024.05.05 0 0 1-.008-.036l.108-.484a.04.04 0 0 0 .004-.018.04.04 0 0 0-.004-.018.04.04 0 0 0-.032 0l-.272.028h-.068a.1.1 0 0 0-.056.028v.024l-.184.496a.1.1 0 0 1-.032.044.1.1 0 0 1-.04.024 2 2 0 0 0-.212.124H97.6l-.172-.264h-.052l-.12.128-.252.268a.1.1 0 0 0-.028.04.1.1 0 0 0 0 .04l.104.352a.1.1 0 0 1 0 .044.1.1 0 0 1 0 .04q-.094.144-.172.296a.08.08 0 0 1-.04.04.07.07 0 0 1-.04.02l-.32.08a.1.1 0 0 0-.06.036v.024l-.08.28-.072.244a.04.04 0 0 0-.005.018q0 .01.005.018h.316q.02 0 .034.014a.05.05 0 0 1 .014.034 1.6 1.6 0 0 0 0 .28.1.1 0 0 1 0 .048.1.1 0 0 1 0 .04l-.324.4a.093.093 0 0 0-.02.08l.064.144v.02l.02.044.028.056v.076a.1.1 0 0 0 .04 0l.344-.316a.1.1 0 0 1 .04-.012q.022 0 .04.012a.6.6 0 0 0 .148.088.052.052 0 0 1 .032.06l-.108.488a.03.03 0 0 0-.004.016q0 .009.004.016.016.006.032 0l.34-.032a.104.104 0 0 0 .076-.052l.184-.492a.126.126 0 0 1 .072-.072l.108-.06.104-.064c.028-.02.06-.02.072 0l.172.264a.05.05 0 0 0 .028.009q.015 0 .028-.009l.372-.4a.09.09 0 0 0 .028-.08l-.104-.352a.14.14 0 0 1 .02-.084q.094-.144.172-.296a.1.1 0 0 1 .033-.039.1.1 0 0 1 .047-.021l.32-.076a.12.12 0 0 0 .072-.06l.16-.544a.03.03 0 0 0-.011-.014.03.03 0 0 0-.017-.006m-1.7 1.32h-.132a.335.335 0 0 1-.32-.216.5.5 0 0 1-.044-.176 1 1 0 0 1 0-.1c.022-.361.17-.702.42-.964q.114-.123.26-.208l.084-.044a.55.55 0 0 1 .24-.052h.04q.091.012.163.07a.34.34 0 0 1 .105.142 1.29 1.29 0 0 1-.368 1.24.97.97 0 0 1-.448.304z"/><path fill="#F7921E" d="M98.136 164.68a2.56 2.56 0 0 0-1.448 1.2 2.38 2.38 0 0 0 .076 2.256 2.6 2.6 0 0 0-.4 1.396 3.1 3.1 0 0 0 2.04 2.756l.116.04.348-.2a3.3 3.3 0 0 1-1.872-1.72 2.34 2.34 0 0 1 .06-1.836c.187.243.411.455.664.628.696.456 2.052.8 2.688.068a1.13 1.13 0 0 0-.052-1.484 2.23 2.23 0 0 0-1.6-.748 2.25 2.25 0 0 0-1.664.7 2.2 2.2 0 0 1-.164-1.032 1.97 1.97 0 0 1 1.408-1.652c.576.896 1.848 1.712 2.828.948s-.584-1.456-1.24-1.516a4.3 4.3 0 0 0-1.356.076 1.47 1.47 0 0 1-.088-.8c.09-.416.327-.786.668-1.04a2.24 2.24 0 0 1 2.64-.16.146.146 0 0 0 .204-.02.146.146 0 0 0-.02-.204c-1.572-1.44-4.66.324-3.836 2.344m-.248 2.968a1.67 1.67 0 0 1 1.476-.068c.4.18.88.56.8 1.064-.112.876-1.292.632-1.844.4a2.3 2.3 0 0 1-1.036-.896c.165-.207.37-.377.604-.5m1.2-2.764a2.9 2.9 0 0 1 1.232.088c.188.06.724.24.696.512 0 .168-.26.296-.4.352-.205.08-.432.092-.644.032a2.2 2.2 0 0 1-1.112-.8l-.092-.132q.153-.034.308-.052z"/><path fill="#fff" d="M98.136 164.68a2.56 2.56 0 0 0-1.448 1.2 2.38 2.38 0 0 0 .076 2.256 2.6 2.6 0 0 0-.4 1.396 3.1 3.1 0 0 0 2.04 2.756l.116.04.348-.2a3.3 3.3 0 0 1-1.872-1.72 2.34 2.34 0 0 1 .06-1.836c.187.243.411.455.664.628.696.456 2.052.8 2.688.068a1.13 1.13 0 0 0-.052-1.484 2.23 2.23 0 0 0-1.6-.748 2.25 2.25 0 0 0-1.664.7 2.2 2.2 0 0 1-.164-1.032 1.97 1.97 0 0 1 1.408-1.652c.576.896 1.848 1.712 2.828.948s-.584-1.456-1.24-1.516a4.3 4.3 0 0 0-1.356.076 1.47 1.47 0 0 1-.088-.8c.09-.416.327-.786.668-1.04a2.24 2.24 0 0 1 2.64-.16.146.146 0 0 0 .204-.02.146.146 0 0 0-.02-.204c-1.572-1.44-4.66.324-3.836 2.344m-.248 2.968a1.67 1.67 0 0 1 1.476-.068c.4.18.88.56.8 1.064-.112.876-1.292.632-1.844.4a2.3 2.3 0 0 1-1.036-.896c.165-.207.37-.377.604-.5m1.2-2.764a2.9 2.9 0 0 1 1.232.088c.188.06.724.24.696.512 0 .168-.26.296-.4.352-.205.08-.432.092-.644.032a2.2 2.2 0 0 1-1.112-.8l-.092-.132q.153-.034.308-.052z" opacity=".7"/><path fill="#F7921E" d="M96.908 168.96q.05-.208.14-.4a1.5 1.5 0 0 1-.284-.436 3 3 0 0 0-.216.424q.164.22.36.412m.932-3.676q.233-.141.488-.236a2.3 2.3 0 0 1-.192-.368q-.286.098-.544.252.11.186.248.352m.672 7.04.348-.2a4 4 0 0 1-.432-.208l-.372.212q.166.09.34.156zm9.272-6.456a2.58 2.58 0 0 0-1.808-.516 2.4 2.4 0 0 0-1.816 1.344 2.55 2.55 0 0 0-1.38.456 3.03 3.03 0 0 0-1.172 2.88c0 .124.036.244.06.364l.024.088.308-.176v-.096a3.13 3.13 0 0 1 .432-2.044c.21-.313.495-.568.828-.744.224-.12.466-.204.716-.248-.095.294-.14.603-.132.912 0 .832.504 2.144 1.468 2.252a1.134 1.134 0 0 0 1.2-.888 2.18 2.18 0 0 0-.296-1.744 2.26 2.26 0 0 0-1.516-.976c.188-.298.446-.545.752-.72a1.97 1.97 0 0 1 2.16.224c-.4.984-.36 2.488.824 2.86s.864-1.304.548-1.876a4.5 4.5 0 0 0-.832-1.076c.151-.232.364-.417.616-.532.392-.163.83-.177 1.232-.04a2.25 2.25 0 0 1 1.632 2.084.146.146 0 0 0 .16.155.14.14 0 0 0 .077-.033.14.14 0 0 0 .051-.098c.268-2.08-2.94-3.636-4.136-1.812m-2.584 1.48a1.67 1.67 0 0 1 .892 1.176c.084.44.04 1.044-.4 1.276-.8.4-1.256-.708-1.38-1.296a2.35 2.35 0 0 1 .152-1.36c.256.018.507.088.736.204m2.948-.592c.282.307.496.669.628 1.064.056.188.216.736-.032.864-.144.08-.4-.044-.512-.124a1 1 0 0 1-.4-.512 2.18 2.18 0 0 1 .032-1.372 1 1 0 0 1 .052-.156c.084.08.164.156.232.236"/><path fill="#fff" d="M107.784 165.868a2.58 2.58 0 0 0-1.808-.516 2.4 2.4 0 0 0-1.816 1.344 2.55 2.55 0 0 0-1.38.456 3.03 3.03 0 0 0-1.172 2.88c0 .124.036.244.06.364l.024.088.308-.176v-.096a3.13 3.13 0 0 1 .432-2.044c.21-.313.495-.568.828-.744.224-.12.466-.204.716-.248-.095.294-.14.603-.132.912 0 .832.504 2.144 1.468 2.252a1.134 1.134 0 0 0 1.2-.888 2.18 2.18 0 0 0-.296-1.744 2.26 2.26 0 0 0-1.516-.976c.188-.298.446-.545.752-.72a1.97 1.97 0 0 1 2.16.224c-.4.984-.36 2.488.824 2.86s.864-1.304.548-1.876a4.5 4.5 0 0 0-.832-1.076c.151-.232.364-.417.616-.532.392-.163.83-.177 1.232-.04a2.25 2.25 0 0 1 1.632 2.084.146.146 0 0 0 .16.155.14.14 0 0 0 .077-.033.14.14 0 0 0 .051-.098c.268-2.08-2.94-3.636-4.136-1.812m-2.584 1.48a1.67 1.67 0 0 1 .892 1.176c.084.44.04 1.044-.4 1.276-.8.4-1.256-.708-1.38-1.296a2.35 2.35 0 0 1 .152-1.36c.256.018.507.088.736.204m2.948-.592c.282.307.496.669.628 1.064.056.188.216.736-.032.864-.144.08-.4-.044-.512-.124a1 1 0 0 1-.4-.512 2.18 2.18 0 0 1 .032-1.372 1 1 0 0 1 .052-.156c.084.08.164.156.232.236" opacity=".7"/><path fill="#F7921E" d="M103.564 167.284q.196-.072.4-.108.06-.255.196-.48a3 3 0 0 0-.472.068q-.083.255-.124.52m3.552-1.316q.251.107.472.268.084-.193.196-.372a3 3 0 0 0-.524-.292q-.09.191-.144.396m-5.424 4.516-.024-.088a5 5 0 0 1-.06-.364l.38.18v.096z"/><path fill="#455A64" d="m102.376 126-21.752 12.56a1.93 1.93 0 0 0-.872 1.516v7.464c0 .56.4.8.876.508l21.748-12.556a1.95 1.95 0 0 0 .876-1.516v-7.468c0-.556-.392-.784-.876-.508"/><path fill="#F7921E" d="M101.6 129.292a1.89 1.89 0 0 1-.876 1.456l-18.464 10.66c-.484.276-.876.08-.876-.444a1.89 1.89 0 0 1 .876-1.456l18.464-10.66c.476-.276.876-.08.876.444"/><path fill="#263238" d="M101.6 133.088a1.89 1.89 0 0 1-.876 1.456L82.268 145.2c-.484.28-.876.084-.876-.44a1.89 1.89 0 0 1 .876-1.456l18.464-10.66c.468-.28.868-.08.868.444"/><path fill="#F7921E" d="m100.732 132.644-7.836 4.524v1.896l7.836-4.52a1.88 1.88 0 0 0 .876-1.456c-.008-.524-.408-.724-.876-.444m-28.516-24.216c-.908-.524-1.644-.048-1.644 1.072v40.152a3.76 3.76 0 0 0 1.644 2.976c.908.528 1.644.048 1.644-1.068v-40.156a3.77 3.77 0 0 0-1.644-2.976"/><path fill="#000" d="M72.216 108.428c-.908-.524-1.644-.048-1.644 1.072v40.152a3.76 3.76 0 0 0 1.644 2.976c.908.528 1.644.048 1.644-1.068v-40.156a3.77 3.77 0 0 0-1.644-2.976" opacity=".5"/><path fill="#37474F" d="M72.216 151.668a1.89 1.89 0 0 1-.82-1.484v-40.276c0-.56.368-.8.82-.54a1.87 1.87 0 0 1 .8 1.488v40.276c.02.56-.348.8-.8.536"/><path fill="#F7921E" d="M72.216 151.668a1.89 1.89 0 0 1-.82-1.484v-19.68l1.64.948v19.68c0 .56-.368.8-.82.536M67.288 105.6c-.908-.528-1.644-.048-1.644 1.068V146.8a3.77 3.77 0 0 0 1.644 2.976c.904.524 1.64.044 1.64-1.072v-40.148a3.76 3.76 0 0 0-1.64-2.956"/><path fill="#000" d="M67.288 105.6c-.908-.528-1.644-.048-1.644 1.068V146.8a3.77 3.77 0 0 0 1.644 2.976c.904.524 1.64.044 1.64-1.072v-40.148a3.76 3.76 0 0 0-1.64-2.956" opacity=".5"/><path fill="#F7921E" d="M67.288 148.824a1.88 1.88 0 0 1-.824-1.488V107.06c0-.56.368-.8.824-.536a1.89 1.89 0 0 1 .8 1.484v40.276c.02.56-.348.8-.8.54m-4.932-46.088c-.908-.524-1.644-.048-1.644 1.072v40.152a3.76 3.76 0 0 0 1.644 2.976c.908.528 1.644.048 1.644-1.068v-40.156a3.77 3.77 0 0 0-1.644-2.976"/><path fill="#000" d="M62.356 102.736c-.908-.524-1.644-.048-1.644 1.072v40.152a3.76 3.76 0 0 0 1.644 2.976c.908.528 1.644.048 1.644-1.068v-40.156a3.77 3.77 0 0 0-1.644-2.976" opacity=".5"/><path fill="#37474F" d="M62.356 145.976a1.89 1.89 0 0 1-.8-1.484v-40.276c0-.56.368-.8.8-.54a1.88 1.88 0 0 1 .844 1.488v40.276c-.024.56-.4.8-.844.536"/><path fill="#F7921E" d="M62.356 145.976a1.89 1.89 0 0 1-.8-1.484v-29.248l1.644.952v29.244c-.024.56-.4.8-.844.536m-4.928-46.084c-.908-.528-1.644-.048-1.644 1.068v40.156a3.77 3.77 0 0 0 1.644 2.976c.904.524 1.64.044 1.64-1.072v-40.156a3.76 3.76 0 0 0-1.64-2.972"/><path fill="#000" d="M57.428 99.892c-.908-.528-1.644-.048-1.644 1.068v40.156a3.77 3.77 0 0 0 1.644 2.976c.904.524 1.64.044 1.64-1.072v-40.156a3.76 3.76 0 0 0-1.64-2.972" opacity=".5"/><path fill="#37474F" d="M57.428 143.132a1.89 1.89 0 0 1-.824-1.488v-40.276c0-.56.368-.8.824-.536a1.89 1.89 0 0 1 .82 1.484v40.276c0 .56-.368.8-.82.54"/><path fill="#F7921E" d="M57.428 143.132a1.89 1.89 0 0 1-.824-1.488V134.3l1.644.948v7.344c0 .56-.368.8-.82.54m-4.932-46.088c-.908-.528-1.644-.048-1.644 1.072v40.152a3.76 3.76 0 0 0 1.644 2.976c.908.528 1.644.048 1.644-1.068V100.02a3.77 3.77 0 0 0-1.644-2.976"/><path fill="#000" d="M52.496 97.044c-.908-.528-1.644-.048-1.644 1.072v40.152a3.76 3.76 0 0 0 1.644 2.976c.908.528 1.644.048 1.644-1.068V100.02a3.77 3.77 0 0 0-1.644-2.976" opacity=".5"/><path fill="#37474F" d="M52.496 140.284a1.88 1.88 0 0 1-.82-1.484V98.52c0-.556.368-.8.82-.536a1.88 1.88 0 0 1 .824 1.488v40.276c0 .556-.368.8-.824.536"/><path fill="#F7921E" d="M52.496 140.284a1.88 1.88 0 0 1-.82-1.484v-21.58l1.644.952v21.576c0 .556-.368.8-.824.536"/><path fill="#37474F" d="m102.376 95.728-21.752 12.556a1.93 1.93 0 0 0-.872 1.516v25c0 .556.4.8.876.504l21.748-12.556a1.95 1.95 0 0 0 .876-1.516v-25c0-.56-.392-.784-.876-.504"/><path fill="#263238" d="M80 108.972a1.7 1.7 0 0 0-.236.828v25c0 .556.4.8.876.504l21.748-12.556c.268-.17.487-.407.636-.688z"/><path fill="#455A64" d="M80.624 108.284a1.93 1.93 0 0 0-.872 1.516v25l21.748-12.556a1.95 1.95 0 0 0 .872-1.52V95.728z"/><path fill="#F7921E" d="M87.788 114.856a.44.44 0 0 1-.312-.124l-2.892-2.8a.452.452 0 0 1 .132-.737.445.445 0 0 1 .492.089l2.892 2.78a.46.46 0 0 1 .104.493.46.46 0 0 1-.416.283z"/><path fill="#F7921E" d="M84.896 116.524a.454.454 0 0 1-.408-.644l2.892-6.12a.4.4 0 0 1 .104-.141.45.45 0 0 1 .637.033.46.46 0 0 1 .075.496l-2.892 6.12a.46.46 0 0 1-.408.256m12.332-7.12a.45.45 0 0 1-.312-.124l-2.892-2.78a.44.44 0 0 1-.138-.318.451.451 0 0 1 .766-.334l2.888 2.78a.455.455 0 0 1-.312.776"/><path fill="#F7921E" d="M94.336 111.076a.457.457 0 0 1-.408-.644l2.892-6.12a.453.453 0 0 1 .788.085.45.45 0 0 1 .012.315l-2.876 6.088a.45.45 0 0 1-.408.276m-9.568 12.384a.46.46 0 0 1-.4-.228.45.45 0 0 1 .168-.616l12.588-7.268a.45.45 0 0 1 .616.164.456.456 0 0 1-.168.62l-12.588 7.264a.4.4 0 0 1-.216.064"/><path fill="#F7921E" d="M93.54 123.664a1.25 1.25 0 0 1-.632-.168 1.67 1.67 0 0 1-.724-1.516v-3.516a.454.454 0 0 1 .452-.452.454.454 0 0 1 .452.452V122a.83.83 0 0 0 .272.732.65.65 0 0 0 .624-.096 3.14 3.14 0 0 0 1.348-2.456v-3.512a.451.451 0 1 1 .9 0v3.512a4.04 4.04 0 0 1-1.796 3.236c-.272.16-.58.246-.896.248"/><path fill="#F7921E" d="M94.208 121.4a.455.455 0 0 1-.452-.452v-3.392a.453.453 0 0 1 .904 0v3.392a.45.45 0 0 1-.278.418.5.5 0 0 1-.174.034"/><path fill="#37474F" d="M54.464 173.36a.85.85 0 0 1 .4.668c0 .248-.172.348-.4.224a.86.86 0 0 1-.4-.668c.012-.248.188-.348.4-.224m3.232 1.868a.85.85 0 0 1 .4.668c0 .244-.172.344-.4.224a.85.85 0 0 1-.4-.672c.012-.248.184-.344.4-.22m3.172 1.832a.84.84 0 0 1 .4.664c0 .248-.172.348-.4.224a.86.86 0 0 1-.4-.668c.016-.244.188-.344.4-.22m3.204 1.848a.86.86 0 0 1 .4.664c0 .244-.172.344-.4.224a.85.85 0 0 1-.4-.664c.016-.248.188-.332.4-.224m-13.376-24.54L54 156.252a2.06 2.06 0 0 1 .928 1.6v1.884c0 .592-.4.836-.928.536l-3.304-1.872a2.07 2.07 0 0 1-.932-1.6v-1.884c0-.604.42-.844.932-.548"/><path fill="#F7921E" d="m51.6 156.492.428-.248a.56.56 0 0 1 .568.056 1.79 1.79 0 0 1 .8 1.404.56.56 0 0 1-.236.52l-.4.228-.072-.12a.7.7 0 0 1-.232-.088 1.78 1.78 0 0 1-.8-1.4q0-.106.024-.208z"/><path fill="#000" d="m51.6 156.492.428-.248a.56.56 0 0 1 .568.056 1.79 1.79 0 0 1 .8 1.404.56.56 0 0 1-.236.52l-.4.228-.072-.12a.7.7 0 0 1-.232-.088 1.78 1.78 0 0 1-.8-1.4q0-.106.024-.208z" opacity=".2"/><path fill="#F7921E" d="M52.168 156.536a1.8 1.8 0 0 1 .8 1.404c0 .512-.364.724-.8.464a1.79 1.79 0 0 1-.8-1.4c-.008-.516.356-.724.8-.468"/><path fill="#455A64" d="M50.696 145.3 54 147.2a2.06 2.06 0 0 1 .928 1.6v1.88c0 .596-.4.836-.928.54l-3.284-1.888a2.06 2.06 0 0 1-.932-1.6v-1.884c-.02-.604.4-.844.912-.548"/><path fill="#F7921E" d="m51.6 147.424.428-.248a.57.57 0 0 1 .568.06 1.78 1.78 0 0 1 .8 1.4.57.57 0 0 1-.236.524l-.4.228-.072-.12a.9.9 0 0 1-.232-.092 1.78 1.78 0 0 1-.8-1.4q0-.106.024-.208z"/><path fill="#000" d="m51.6 147.424.428-.248a.57.57 0 0 1 .568.06 1.78 1.78 0 0 1 .8 1.4.57.57 0 0 1-.236.524l-.4.228-.072-.12a.9.9 0 0 1-.232-.092 1.78 1.78 0 0 1-.8-1.4q0-.106.024-.208z" opacity=".2"/><path fill="#F7921E" d="M52.168 147.472a1.78 1.78 0 0 1 .8 1.4c0 .516-.364.724-.8.468a1.81 1.81 0 0 1-.8-1.404c-.008-.516.356-.736.8-.464"/><path fill="#455A64" d="m102.228 138.428-15.2 8.78a2.26 2.26 0 0 0-1.02 1.772v2.068c0 .648.456.912 1.02.588l15.2-8.78a2.26 2.26 0 0 0 1.024-1.772v-2.064c0-.652-.452-.916-1.024-.592"/><path fill="#F7921E" d="M102.172 140.18v1.02a.46.46 0 0 1-.204.356l-.228.132c-.116.064-.208 0-.208-.116v-1.004a.45.45 0 0 1 .208-.356l.228-.132c.112-.08.204-.032.204.1m-1.032.596v1a.45.45 0 0 1-.204.356l-.232.132c-.112.064-.204 0-.204-.116v-1.004a.47.47 0 0 1 .204-.356l.232-.132c.112-.064.204-.012.204.12m-1.032.592v1.004a.47.47 0 0 1-.204.356l-.232.132c-.112.064-.204 0-.204-.12v-1a.46.46 0 0 1 .204-.356l.232-.132c.096-.052.204-.012.204.116m-1.032.596v1.004a.44.44 0 0 1-.204.352l-.232.136c-.112.064-.204 0-.204-.12v-1.004a.45.45 0 0 1 .204-.352l.232-.132c.112-.068.204-.012.204.116"/><path fill="#37474F" d="M98.04 142.56v1.004a.44.44 0 0 1-.204.352l-.228.132c-.112.068-.204 0-.204-.116v-1.004a.46.46 0 0 1 .204-.352l.228-.132c.116-.068.204-.012.204.116m-1.032.596v1.004a.46.46 0 0 1-.204.352l-.228.132c-.116.068-.204 0-.204-.116v-1.004a.44.44 0 0 1 .204-.352l.228-.136c.112-.064.204-.012.204.12"/><path fill="#F7921E" d="M95.976 143.752v1a.45.45 0 0 1-.204.356l-.232.132c-.112.064-.204 0-.204-.116v-1.004a.46.46 0 0 1 .204-.356l.232-.132c.112-.064.204-.012.204.12m-1.032.596v1a.45.45 0 0 1-.204.356l-.232.132c-.112.064-.204 0-.204-.12v-1a.46.46 0 0 1 .204-.356l.232-.132c.112-.064.204-.012.204.12m-1.032.592v1.004a.46.46 0 0 1-.204.356l-.232.132c-.112.064-.204 0-.204-.12v-1a.46.46 0 0 1 .204-.356l.232-.132c.112-.064.204-.024.204.116"/><path fill="#37474F" d="M92.88 145.536v1.004a.45.45 0 0 1-.208.352l-.228.136c-.112.064-.204 0-.204-.12v-1.004a.46.46 0 0 1 .204-.352l.228-.132c.128-.068.208-.012.208.116"/><path fill="#F7921E" d="M91.844 146.132v1.004a.45.45 0 0 1-.204.352l-.228.132c-.112.068-.204 0-.204-.116V146.5a.45.45 0 0 1 .204-.352l.228-.132c.112-.068.204-.016.204.116m-1.044.596v1.004a.46.46 0 0 1-.204.352l-.228.132c-.116.068-.204 0-.204-.116v-1.004a.44.44 0 0 1 .204-.352l.228-.136c.124-.064.204-.012.204.12"/><path fill="#37474F" d="M89.78 147.324v1a.46.46 0 0 1-.204.356l-.232.132c-.112.064-.204 0-.204-.116v-1.004a.46.46 0 0 1 .204-.356l.232-.132c.112-.064.204-.004.204.12"/><path fill="#F7921E" d="M88.748 147.92v1a.45.45 0 0 1-.204.356l-.232.132c-.112.064-.204 0-.204-.12v-1a.46.46 0 0 1 .204-.356l.232-.132c.112-.064.204-.012.204.12"/><path fill="#37474F" d="M87.716 148.512v1.004a.46.46 0 0 1-.204.356l-.232.132c-.112.064-.204 0-.204-.12v-1a.46.46 0 0 1 .204-.356l.232-.132c.112-.064.204.004.204.116"/><path fill="#455A64" d="m84.46 150.524-.424-.248a.56.56 0 0 0-.568.056 1.8 1.8 0 0 0-.8 1.404.57.57 0 0 0 .236.52l.4.224.072-.12a.8.8 0 0 0 .232-.088 1.8 1.8 0 0 0 .8-1.4q-.002-.106-.024-.208z"/><path fill="#F7921E" d="M83.872 150.568a1.81 1.81 0 0 0-.8 1.404c0 .516.364.724.8.464a1.78 1.78 0 0 0 .8-1.4c.008-.516-.352-.724-.8-.468"/><path fill="#fff" d="M83.872 150.568a1.81 1.81 0 0 0-.8 1.404c0 .516.364.724.8.464a1.78 1.78 0 0 0 .8-1.4c.008-.516-.352-.724-.8-.468" opacity=".8"/><path fill="#455A64" d="m80.952 152.548-.428-.244a.57.57 0 0 0-.568.06 1.78 1.78 0 0 0-.8 1.4.56.56 0 0 0 .236.524l.4.228.072-.12a.8.8 0 0 0 .232-.092 1.78 1.78 0 0 0 .8-1.4.8.8 0 0 0-.024-.204z"/><path fill="#F7921E" d="M80.36 152.596a1.79 1.79 0 0 0-.8 1.4c0 .516.364.724.8.468a1.785 1.785 0 0 0 .8-1.4c.012-.516-.36-.728-.8-.468"/><path fill="#fff" d="M80.36 152.596a1.79 1.79 0 0 0-.8 1.4c0 .516.364.724.8.468a1.785 1.785 0 0 0 .8-1.4c.012-.516-.36-.728-.8-.468" opacity=".8"/><path fill="#455A64" d="m57.548 148.52 15.916 9.2a1.14 1.14 0 0 1 .516.892v4.4c0 .328-.232.46-.516.296l-15.916-9.2a1.14 1.14 0 0 1-.516-.908v-4.4c0-.312.228-.444.516-.28"/><path fill="#F7921E" d="M58 150.456a1.1 1.1 0 0 0 .516.856l13.98 8.068c.284.164.516.044.516-.264a1.11 1.11 0 0 0-.516-.856l-13.98-8.064c-.288-.164-.516-.048-.516.26"/><path fill="#263238" d="M58 152.692a1.1 1.1 0 0 0 .516.856l13.98 8.052c.284.164.516.048.516-.26a1.11 1.11 0 0 0-.516-.856l-13.98-8.052c-.288-.164-.516-.032-.516.26"/><path fill="#F7921E" d="m58.516 152.432 7.724 4.452V158l-7.724-4.452a1.1 1.1 0 0 1-.516-.856c0-.292.228-.424.516-.26"/><path fill="#37474F" d="M50.696 145.3 54 147.2a2.06 2.06 0 0 1 .928 1.6v1.88c0 .596-.4.836-.928.54l-3.284-1.888a2.06 2.06 0 0 1-.932-1.6v-1.884c-.02-.604.4-.844.912-.548"/><path fill="#F7921E" d="m51.6 147.424.428-.248a.57.57 0 0 1 .568.06 1.78 1.78 0 0 1 .8 1.4.57.57 0 0 1-.236.524l-.4.228-.072-.12a.9.9 0 0 1-.232-.092 1.78 1.78 0 0 1-.8-1.4q0-.106.024-.208z"/><path fill="#000" d="m51.6 147.424.428-.248a.57.57 0 0 1 .568.06 1.78 1.78 0 0 1 .8 1.4.57.57 0 0 1-.236.524l-.4.228-.072-.12a.9.9 0 0 1-.232-.092 1.78 1.78 0 0 1-.8-1.4q0-.106.024-.208z" opacity=".2"/><path fill="#F7921E" d="M52.168 147.472a1.78 1.78 0 0 1 .8 1.4c0 .516-.364.724-.8.468a1.81 1.81 0 0 1-.8-1.404c-.008-.516.356-.736.8-.464"/><path fill="#37474F" d="m57.548 148.52 15.916 9.2a1.14 1.14 0 0 1 .516.892v4.4c0 .328-.232.46-.516.296l-15.916-9.2a1.14 1.14 0 0 1-.516-.908v-4.4c0-.312.228-.444.516-.28"/><path fill="#F7921E" d="M58 150.456a1.1 1.1 0 0 0 .516.856l13.98 8.068c.284.164.516.044.516-.264a1.11 1.11 0 0 0-.516-.856l-13.98-8.064c-.288-.164-.516-.048-.516.26"/><path fill="#263238" d="M58 152.692a1.1 1.1 0 0 0 .516.856l13.98 8.052c.284.164.516.048.516-.26a1.11 1.11 0 0 0-.516-.856l-13.98-8.052c-.288-.164-.516-.032-.516.26"/><path fill="#F7921E" d="m58.516 152.432 7.724 4.452V158l-7.724-4.452a1.1 1.1 0 0 1-.516-.856c0-.292.228-.424.516-.26"/><path fill="#37474F" d="m57.548 157.6 15.916 9.2a1.15 1.15 0 0 1 .516.896v4.4c0 .328-.232.46-.516.296L57.548 163.2a1.14 1.14 0 0 1-.516-.896v-4.4c0-.304.228-.456.516-.304"/><path fill="#F7921E" d="M58 159.548a1.1 1.1 0 0 0 .516.852l13.98 8.064c.284.168.516.048.516-.26a1.1 1.1 0 0 0-.516-.856l-13.98-8.06c-.288-.164-.516-.048-.516.26"/><path fill="#263238" d="M58 161.784a1.1 1.1 0 0 0 .516.856l13.98 8.064c.284.164.516.048.516-.26a1.11 1.11 0 0 0-.516-.856l-13.98-8.064c-.288-.164-.516-.048-.516.26"/><path fill="#F7921E" d="m58.516 161.524 9.66 5.568v1.116l-9.66-5.568a1.09 1.09 0 0 1-.516-.856c0-.308.228-.424.516-.26"/><path fill="#455A64" d="M50.696 163.488 54 165.372a2.06 2.06 0 0 1 .928 1.6v1.884c0 .592-.4.832-.928.536l-3.284-1.884a2.07 2.07 0 0 1-.932-1.6v-1.884c-.02-.592.4-.824.912-.536"/><path fill="#F7921E" d="m51.6 165.6.428-.248a.56.56 0 0 1 .568.056 1.78 1.78 0 0 1 .8 1.4.56.56 0 0 1-.236.524l-.4.228-.072-.12a.8.8 0 0 1-.232-.088 1.8 1.8 0 0 1-.8-1.404q0-.103.024-.204z"/><path fill="#000" d="m51.6 165.6.428-.248a.56.56 0 0 1 .568.056 1.78 1.78 0 0 1 .8 1.4.56.56 0 0 1-.236.524l-.4.228-.072-.12a.8.8 0 0 1-.232-.088 1.8 1.8 0 0 1-.8-1.404q0-.103.024-.204z" opacity=".2"/><path fill="#F7921E" d="M52.168 165.656a1.78 1.78 0 0 1 .8 1.4c0 .516-.364.724-.8.468a1.79 1.79 0 0 1-.8-1.4c-.008-.524.356-.724.8-.468"/><path fill="#37474F" d="M50.696 163.488 54 165.372a2.06 2.06 0 0 1 .928 1.6v1.884c0 .592-.4.832-.928.536l-3.284-1.884a2.07 2.07 0 0 1-.932-1.6v-1.884c-.02-.592.4-.824.912-.536"/><path fill="#F7921E" d="m51.6 165.6.428-.248a.56.56 0 0 1 .568.056 1.78 1.78 0 0 1 .8 1.4.56.56 0 0 1-.236.524l-.4.228-.072-.12a.8.8 0 0 1-.232-.088 1.8 1.8 0 0 1-.8-1.404q0-.103.024-.204z"/><path fill="#000" d="m51.6 165.6.428-.248a.56.56 0 0 1 .568.056 1.78 1.78 0 0 1 .8 1.4.56.56 0 0 1-.236.524l-.4.228-.072-.12a.8.8 0 0 1-.232-.088 1.8 1.8 0 0 1-.8-1.404q0-.103.024-.204z" opacity=".2"/><path fill="#F7921E" d="M52.168 165.656a1.78 1.78 0 0 1 .8 1.4c0 .516-.364.724-.8.468a1.79 1.79 0 0 1-.8-1.4c-.008-.524.356-.724.8-.468"/><path fill="#37474F" d="m57.548 166.708 15.916 9.2a1.14 1.14 0 0 1 .536.892v4.4c0 .332-.232.464-.516.3l-15.916-9.2a1.13 1.13 0 0 1-.516-.892v-4.4c-.02-.332.208-.468.496-.3"/><path fill="#F7921E" d="M58 168.644a1.1 1.1 0 0 0 .516.856l13.98 8.064c.284.164.516.048.516-.26a1.11 1.11 0 0 0-.516-.856l-13.98-8.048c-.288-.184-.516-.064-.516.244"/><path fill="#263238" d="M58 170.876a1.1 1.1 0 0 0 .516.86l13.98 8.064c.284.164.516.048.516-.26a1.11 1.11 0 0 0-.516-.86l-13.98-8.064c-.288-.164-.516-.048-.516.26"/><path fill="#F7921E" d="m58.516 170.616 7.724 4.452v1.12l-7.724-4.452a1.11 1.11 0 0 1-.516-.86c0-.308.228-.424.516-.26"/><path fill="#000" d="M98.916 91.364 77.688 103.62a1.23 1.23 0 0 1-1.096 0L55.364 91.364a.34.34 0 0 1-.228-.318.34.34 0 0 1 .228-.318l21.228-11.832a1.23 1.23 0 0 1 1.096 0l21.228 11.832a.336.336 0 0 1 0 .636" opacity=".1"/><path fill="#F7921E" d="M77.664 102.948 97.976 91.22a1.17 1.17 0 0 0 .528-.908v-.684a1.16 1.16 0 0 0-.528-.912L77.664 76.988a1.15 1.15 0 0 0-1.048 0L56.304 88.716a1.16 1.16 0 0 0-.528.912v.684a1.16 1.16 0 0 0 .528.908l20.312 11.728a1.15 1.15 0 0 0 1.048 0"/><path fill="#fff" d="M77.664 102.948 97.976 91.22a1.17 1.17 0 0 0 .528-.908v-.684a1.16 1.16 0 0 0-.528-.912L77.664 76.988a1.15 1.15 0 0 0-1.048 0L56.304 88.716a1.16 1.16 0 0 0-.528.912v.684a1.16 1.16 0 0 0 .528.908l20.312 11.728a1.15 1.15 0 0 0 1.048 0" opacity=".5"/><path fill="#000" d="M77.664 102.948 97.976 91.22a1.17 1.17 0 0 0 .528-.908v-.684a1.16 1.16 0 0 0-.528-.912L77.664 76.988a1.15 1.15 0 0 0-1.048 0L56.304 88.716a1.16 1.16 0 0 0-.528.912v.684a1.16 1.16 0 0 0 .528.908l20.312 11.728a1.15 1.15 0 0 0 1.048 0" opacity=".05"/><path fill="#F7921E" d="m97.976 89.324-20.312 11.724a1.15 1.15 0 0 1-1.048 0L56.304 89.324a.32.32 0 0 1 0-.608l20.312-11.32a1.15 1.15 0 0 1 1.048 0l20.312 11.32a.32.32 0 0 1 0 .608"/><path fill="#fff" d="m97.976 89.324-20.312 11.724a1.15 1.15 0 0 1-1.048 0L56.304 89.324a.32.32 0 0 1 0-.608l20.312-11.32a1.15 1.15 0 0 1 1.048 0l20.312 11.32a.32.32 0 0 1 0 .608" opacity=".7"/><path fill="#F7921E" d="M77.14 101.176v1.896c.182.004.363-.039.524-.124L97.976 91.22a1.17 1.17 0 0 0 .528-.912v-.684a1.17 1.17 0 0 0-.428-.84c.188.164.156.4-.1.536l-20.312 11.728a1.03 1.03 0 0 1-.524.128"/><path fill="#fff" d="M77.14 101.176v1.896c.182.004.363-.039.524-.124L97.976 91.22a1.17 1.17 0 0 0 .528-.912v-.684a1.17 1.17 0 0 0-.428-.84c.188.164.156.4-.1.536l-20.312 11.728a1.03 1.03 0 0 1-.524.128" opacity=".6"/><path fill="#263238" d="m77.664 97.256 13.74-7.932a1.16 1.16 0 0 0 .524-.912v-.684a1.15 1.15 0 0 0-.524-.908l-8.8-5.088a3.5 3.5 0 0 1-.888-.8l-4.208-5.668a.696.696 0 0 0-.884-.184l-13.748 7.944a1.15 1.15 0 0 0-.524.908V88.4a1.17 1.17 0 0 0 .524.912l13.74 7.932a1.15 1.15 0 0 0 1.048.012"/><path fill="#455A64" d="m76.616 95.356-8.8-5.084a3 3 0 0 1-.46-.34 3 3 0 0 1-.428-.452l-4.216-5.668a.524.524 0 0 1 .164-.8l13.74-7.932a.696.696 0 0 1 .884.184l4.208 5.668c.219.31.49.581.8.8l8.88 5.056a.316.316 0 0 1 0 .604l-13.74 7.932a1.15 1.15 0 0 1-1.032.032"/><path fill="#37474F" d="m62.876 83.024 13.74-7.932a.696.696 0 0 1 .884.184l4.208 5.668q.195.245.432.448s-14.8 8.54-14.8 8.536a3 3 0 0 1-.428-.448l-4.2-5.668a.525.525 0 0 1 .164-.788"/><path fill="#F7921E" d="M88.072 86.956a1.36 1.36 0 0 0-1.232 0c-.344.2-.344.516 0 .712a1.36 1.36 0 0 0 1.232 0 .376.376 0 0 0 0-.712M85.6 88.4a1.36 1.36 0 0 0-1.232 0 .378.378 0 0 0-.185.575q.07.098.185.137a1.36 1.36 0 0 0 1.232 0 .376.376 0 0 0 0-.712"/><path fill="#263238" d="M83.14 89.804a1.36 1.36 0 0 0-1.232 0 .378.378 0 0 0-.185.575q.07.098.185.137a1.36 1.36 0 0 0 1.232 0 .377.377 0 0 0 0-.712m-2.464 1.424a1.36 1.36 0 0 0-1.232 0 .377.377 0 0 0 0 .712 1.36 1.36 0 0 0 1.232 0 .377.377 0 0 0 0-.712"/><path fill="#F7921E" d="M86.224 85.892a1.35 1.35 0 0 0-1.236 0 .372.372 0 0 0 0 .708 1.35 1.35 0 0 0 1.236 0 .372.372 0 0 0 0-.708"/><path fill="#263238" d="M83.756 87.312a1.36 1.36 0 0 0-1.232 0 .376.376 0 0 0 0 .712 1.36 1.36 0 0 0 1.232 0 .377.377 0 0 0 0-.712"/><path fill="#F7921E" d="M80.676 89.596c.482 0 .872-.226.872-.504s-.39-.504-.872-.504-.872.226-.872.504.39.504.872.504"/><path fill="#263238" d="M78.828 90.16a1.36 1.36 0 0 0-1.232 0 .376.376 0 0 0 0 .712 1.36 1.36 0 0 0 1.232 0 .377.377 0 0 0 0-.712m5.544-5.336a1.36 1.36 0 0 0-1.232 0 .376.376 0 0 0 0 .712 1.36 1.36 0 0 0 1.232 0 .377.377 0 0 0 0-.712"/><path fill="#F7921E" d="M81.908 86.248a1.34 1.34 0 0 0-1.232 0 .372.372 0 0 0 0 .708 1.34 1.34 0 0 0 1.232 0 .374.374 0 0 0 .187-.573.37.37 0 0 0-.187-.135"/><path fill="#263238" d="M79.444 87.668a1.36 1.36 0 0 0-1.232 0 .378.378 0 0 0-.185.575q.07.098.185.137a1.37 1.37 0 0 0 1.232 0 .377.377 0 0 0 0-.712"/><path fill="#F7921E" d="M78.196 92.62a1.36 1.36 0 0 0-1.232 0 .376.376 0 0 0 0 .712 1.36 1.36 0 0 0 1.232 0 .377.377 0 0 0 0-.712"/><path fill="#263238" d="M75.732 92.412c.482 0 .872-.226.872-.504s-.39-.504-.872-.504-.872.226-.872.504.39.504.872.504m1.248-3.32a1.36 1.36 0 0 0-1.232 0 .38.38 0 0 0-.25.298.38.38 0 0 0 .25.414 1.37 1.37 0 0 0 1.232 0 .377.377 0 0 0 0-.712"/><path fill="#F7921E" d="M82.524 83.756a1.36 1.36 0 0 0-1.232 0 .376.376 0 0 0 0 .712 1.36 1.36 0 0 0 1.232 0 .376.376 0 0 0 0-.712"/><path fill="#263238" d="M80.06 85.2a1.36 1.36 0 0 0-1.232 0 .378.378 0 0 0-.185.575q.07.098.185.137a1.36 1.36 0 0 0 1.232 0 .377.377 0 0 0 0-.712"/><path fill="#F7921E" d="M77.6 86.604a1.36 1.36 0 0 0-1.232 0 .378.378 0 0 0-.185.575q.07.098.185.137a1.36 1.36 0 0 0 1.232 0 .376.376 0 0 0 0-.712"/><path fill="#263238" d="M75.132 88.024a1.36 1.36 0 0 0-1.232 0c-.344.2-.344.516 0 .712a1.36 1.36 0 0 0 1.232 0 .376.376 0 0 0 0-.712"/><path fill="#F7921E" d="M74.5 90.488a1.36 1.36 0 0 0-1.232 0 .378.378 0 0 0-.185.575q.07.098.185.137a1.37 1.37 0 0 0 1.232 0 .376.376 0 0 0 0-.712"/><path fill="#263238" d="M72.652 89.42a1.36 1.36 0 0 0-1.232 0 .375.375 0 0 0 0 .712 1.36 1.36 0 0 0 1.232 0 .377.377 0 0 0 0-.712"/><path fill="#37474F" d="M77.112 95.484v1.892c.191.01.382-.032.552-.12l13.74-7.936a1.14 1.14 0 0 0 .524-.908v-.684a1.16 1.16 0 0 0-.428-.84c.192.164.16.4-.096.536l-13.74 7.932c-.169.093-.36.137-.552.128"/><path fill="#263238" d="M79.892 80.704a.47.47 0 0 0-.592-.124l-11.968 6.888a.354.354 0 0 0-.108.528.47.47 0 0 0 .592.124l11.952-6.904a.35.35 0 0 0 .124-.512"/><path fill="#F7921E" d="M79.892 80.704a.47.47 0 0 0-.592-.124l-8.9 5.116.496.668 8.884-5.132a.355.355 0 0 0 .112-.528"/><path fill="#263238" d="M78.904 79.38a.464.464 0 0 0-.592-.124l-11.968 6.888a.344.344 0 0 0-.174.388q.017.076.066.136a.464.464 0 0 0 .592.124L78.8 79.908a.36.36 0 0 0 .174-.24.36.36 0 0 0-.07-.288"/><path fill="#F7921E" d="M78.904 79.38a.464.464 0 0 0-.592-.124l-2.972 1.716.496.664 2.968-1.712a.353.353 0 0 0 .1-.544"/><path fill="#263238" d="M77.916 78.052a.464.464 0 0 0-.592-.124L65.356 84.8a.355.355 0 0 0-.108.528.465.465 0 0 0 .592.12l11.952-6.9a.36.36 0 0 0 .174-.363.4.4 0 0 0-.05-.133"/><path fill="#F7921E" d="M77.916 78.052a.46.46 0 0 0-.592-.124l-6.228 3.6.504.632 6.224-3.6a.35.35 0 0 0 .157-.234.35.35 0 0 0-.065-.274"/><path fill="#263238" d="M76.928 76.724a.465.465 0 0 0-.592-.12l-11.968 6.884a.35.35 0 0 0-.108.528.464.464 0 0 0 .592.124L76.8 77.252a.35.35 0 0 0 .128-.528"/><path fill="#F7921E" d="M76.928 76.724a.465.465 0 0 0-.592-.12l-10.864 6.248.496.664L76.8 77.252a.35.35 0 0 0 .128-.528m4.032 116.36v3.016a.223.223 0 0 0 .204.22l1.572.096v2.216q.003.037.022.067a.14.14 0 0 0 .054.045l1.66.956a.4.4 0 0 0 .208.044.34.34 0 0 0 .156-.032l1.68-.776a.63.63 0 0 1 .4-.024q.642.201 1.304.312a.31.31 0 0 1 .244.236l.208 1.104c.014.058.046.11.092.148.044.036.1.056.156.056h2.436a.22.22 0 0 0 .136-.052.1.1 0 0 0 .032-.028l.036-.032v-.024c0-.024.036-.04.04-.068l.212-1.104a.31.31 0 0 1 .24-.236 10 10 0 0 0 1.304-.312.63.63 0 0 1 .4.024l1.68.776q.052.009.104 0h.06a.4.4 0 0 0 .16-.04l1.656-.956a.16.16 0 0 0 .06-.056.1.1 0 0 0 0-.044V196.4l1.544-.1h.028l.04-.02a.2.2 0 0 0 .104-.052.16.16 0 0 0 .032-.076c0-.024.032-.044.032-.072v-4.044a.223.223 0 0 0-.208-.22l-1.572-.1v-2.212a.13.13 0 0 0-.076-.12l-1.656-.956a.45.45 0 0 0-.368 0l-1.68.776a.6.6 0 0 1-.4.024 9.6 9.6 0 0 0-1.304-.308.32.32 0 0 1-.24-.236L91.6 187.6a.26.26 0 0 0-.244-.204H88.92a.26.26 0 0 0-.248.204l-.208 1.108a.32.32 0 0 1-.244.236 10 10 0 0 0-1.304.308.6.6 0 0 1-.4-.024l-1.68-.776a.44.44 0 0 0-.364 0l-1.656.956a.141.141 0 0 0-.08.12v2.208l-1.572.1a.223.223 0 0 0-.204.22v.984a.2.2 0 0 0 0 .044m6.364.8a6.19 6.19 0 0 1 5.6 0q.175.1.324.204-.156.117-.324.216a6.2 6.2 0 0 1-5.6 0 3 3 0 0 1-.324-.212q.156-.122.324-.224z"/><path fill="#000" d="M80.956 193.084v3.016a.22.22 0 0 0 .204.216l1.572.1v2.216a.13.13 0 0 0 .022.067.14.14 0 0 0 .054.045l1.66.956a.4.4 0 0 0 .208.044.34.34 0 0 0 .156-.032l1.68-.776a.6.6 0 0 1 .16-.04.6.6 0 0 1 .224 0q.642.201 1.304.312a.314.314 0 0 1 .244.224l.208 1.104a.25.25 0 0 0 .092.144c.044.036.1.056.156.056h2.48a.28.28 0 0 0 .16-.108v-.024c0-.024.036-.04.04-.068l.212-1.104a.313.313 0 0 1 .24-.232 10 10 0 0 0 1.304-.312.7.7 0 0 1 .256 0 .5.5 0 0 1 .128.028l1.68.776q.052.009.104 0c.089.014.18 0 .26-.04l1.656-.956.036-.024.028-.036a.1.1 0 0 0 0-.048v-2.216l.288-.02 1.256-.08h.028a.22.22 0 0 0 .208-.216v-2.8a.22.22 0 0 1-.208.216l-2.208.14a.4.4 0 0 0-.296.2q-.196.355-.472.652a.18.18 0 0 0-.05.102.17.17 0 0 0 .078.166l1.312.944q.033.016.052.046a.13.13 0 0 1 0 .132.12.12 0 0 1-.052.046l-1.656.956a.43.43 0 0 1-.368 0l-1.68-.776a.62.62 0 0 0-.4-.024 9.4 9.4 0 0 1-1.304.312.317.317 0 0 0-.24.236l-.212 1.104a.26.26 0 0 1-.244.204H88.88a.26.26 0 0 1-.248-.204l-.208-1.104a.33.33 0 0 0-.244-.236 10 10 0 0 1-1.304-.312.63.63 0 0 0-.4.024l-1.68.776a.43.43 0 0 1-.364 0l-1.632-.924a.125.125 0 0 1-.052-.178.12.12 0 0 1 .052-.046l1.312-.944a.176.176 0 0 0 .074-.13.18.18 0 0 0-.05-.142 3.2 3.2 0 0 1-.468-.648.4.4 0 0 0-.126-.136.4.4 0 0 0-.174-.064l-2.208-.136a.223.223 0 0 1-.204-.22v-.248a.2.2 0 0 0 0 .044m1.784-3.556v2.208l.636-.04a.4.4 0 0 0 .3-.2 3.3 3.3 0 0 1 .468-.648.186.186 0 0 0 .05-.142.185.185 0 0 0-.074-.13l-1.32-.944a.14.14 0 0 1-.068-.104z" opacity=".3"/><path fill="#000" d="m87.004 194.076.14-.1.164-.1a6.19 6.19 0 0 1 5.6 0l.148.088c.06.04.12.076.176.12 1.2-.9 1.104-2.196-.324-3.02a6.17 6.17 0 0 0-5.6 0c-1.412.816-1.52 2.136-.304 3.012" opacity=".4"/><path fill="#000" d="M96.104 190.848q.276.296.472.648a.4.4 0 0 0 .296.2l.636.04v-2.212a.2.2 0 0 1-.022.061.2.2 0 0 1-.046.047l-1.312.944a.2.2 0 0 0-.053.056.18.18 0 0 0-.013.151q.013.038.042.065" opacity=".3"/><path fill="#F7921E" d="m95.408 188.436-1.68.776a.6.6 0 0 1-.4.024 9.6 9.6 0 0 0-1.304-.308.318.318 0 0 1-.24-.236L91.6 187.6a.26.26 0 0 0-.244-.204H88.92a.27.27 0 0 0-.158.06.27.27 0 0 0-.09.144l-.208 1.108a.32.32 0 0 1-.244.236 10 10 0 0 0-1.304.308.6.6 0 0 1-.4-.024l-1.68-.776a.44.44 0 0 0-.364 0l-1.656.956a.125.125 0 0 0-.052.178q.02.03.052.046l1.312.944a.176.176 0 0 1 .064.207.2.2 0 0 1-.04.065 3.3 3.3 0 0 0-.468.648.4.4 0 0 1-.3.2l-2.208.14a.223.223 0 0 0-.204.22v1.232a.223.223 0 0 0 .204.22l2.208.136q.094.013.174.064a.4.4 0 0 1 .126.136q.194.355.468.652a.18.18 0 0 1 .027.212.2.2 0 0 1-.051.056l-1.328.944a.125.125 0 0 0-.052.178q.02.03.052.046l1.656.956a.43.43 0 0 0 .364 0l1.68-.776a.63.63 0 0 1 .4-.024q.642.201 1.304.312a.31.31 0 0 1 .244.236l.208 1.104a.26.26 0 0 0 .248.204h2.436a.26.26 0 0 0 .157-.061.26.26 0 0 0 .087-.143l.212-1.104a.31.31 0 0 1 .24-.236 10 10 0 0 0 1.304-.312.62.62 0 0 1 .4.024l1.68.776a.45.45 0 0 0 .368 0l1.656-.956a.125.125 0 0 0 .052-.178.12.12 0 0 0-.052-.046l-1.312-.944a.17.17 0 0 1-.068-.204.2.2 0 0 1 .044-.064q.275-.297.468-.652a.4.4 0 0 1 .296-.2l2.208-.136a.23.23 0 0 0 .147-.069.23.23 0 0 0 .061-.151v-1.232a.223.223 0 0 0-.208-.22l-2.208-.14a.4.4 0 0 1-.296-.2 3.3 3.3 0 0 0-.468-.648.173.173 0 0 1 .024-.272l1.312-.944a.125.125 0 0 0 .052-.178.12.12 0 0 0-.052-.046l-1.656-.956a.46.46 0 0 0-.38-.016m-2.484 2.62c1.548.892 1.548 2.34 0 3.232a6.2 6.2 0 0 1-5.6 0c-1.548-.892-1.548-2.34 0-3.232a6.2 6.2 0 0 1 5.6 0"/><path fill="#F7921E" d="M97.508 195.82a.144.144 0 0 0-.064-.112l-.644-.476v-1.564a.3.3 0 0 1 .088-.024l2.208-.14a.22.22 0 0 0 .147-.067.22.22 0 0 0 .061-.149v2.8a.22.22 0 0 1-.208.216h-.028l-1.256.08-.288.02s-.012-.544-.016-.584"/><path fill="#000" d="M97.508 195.82a.144.144 0 0 0-.064-.112l-.644-.476v-1.564a.3.3 0 0 1 .088-.024l2.208-.14a.22.22 0 0 0 .147-.067.22.22 0 0 0 .061-.149v2.8a.22.22 0 0 1-.208.216h-.028l-1.256.08-.288.02s-.012-.544-.016-.584" opacity=".2"/><path fill="#F7921E" d="M93.6 196.092a.5.5 0 0 1 .124.036l1.68.776a.4.4 0 0 0 .216.028v2.8a.4.4 0 0 1-.112 0 .3.3 0 0 1-.104 0l-1.68-.776a.5.5 0 0 0-.124-.028z"/><path fill="#000" d="M93.6 196.092a.5.5 0 0 1 .124.036l1.68.776a.4.4 0 0 0 .216.028v2.8a.4.4 0 0 1-.112 0 .3.3 0 0 1-.104 0l-1.68-.776a.5.5 0 0 0-.124-.028z" opacity=".2"/><path fill="#F7921E" d="M91.556 197.836a.2.2 0 0 0 .032-.08l.212-1.104a.2.2 0 0 1 .032-.084v2.8a.2.2 0 0 0-.032.084l-.212 1.104c0 .024-.02.036-.032.056z"/><path fill="#000" d="M91.556 197.836a.2.2 0 0 0 .032-.08l.212-1.104a.2.2 0 0 1 .032-.084v2.8a.2.2 0 0 0-.032.084l-.212 1.104c0 .024-.02.036-.032.056z" opacity=".2"/><path fill="#000" d="M88.42 196.568a.3.3 0 0 1 .032.084l.208 1.104a.5.5 0 0 0 .032.08v2.8a.5.5 0 0 1-.032-.08l-.208-1.104a.3.3 0 0 0-.032-.076zm-3.796.364a.4.4 0 0 0 .216-.028l1.68-.776a.6.6 0 0 1 .128-.036v2.8a.4.4 0 0 0-.128.032l-1.68.776a.34.34 0 0 1-.156.032h-.06zm-3.456-3.424 2.208.136a.4.4 0 0 1 .092.024v1.564l-.668.476a.14.14 0 0 0-.047.048.14.14 0 0 0-.021.064v.58l-1.572-.1a.22.22 0 0 1-.204-.216v-3.016a.2.2 0 0 1 0-.044v.248a.223.223 0 0 0 .212.236" opacity=".15"/><path fill="#F7921E" d="M113.268 184.42v-2.04a.16.16 0 0 0-.036-.096l-.62-.864a.28.28 0 0 0-.252-.12l-1.624.272a.52.52 0 0 1-.308-.088 4 4 0 0 0-.32-.204V180c0-.052-.048-.1-.128-.12l-1.648-.4a.3.3 0 0 0-.137-.005.3.3 0 0 0-.127.053l-.8.828a.348.348 0 0 1-.256.08 9 9 0 0 0-1.072 0 .44.44 0 0 1-.292-.128l-.704-.708a.32.32 0 0 0-.272-.1l-1.712.4a.11.11 0 0 0-.088.112v1.284a4 4 0 0 0-.4.244.45.45 0 0 1-.28.048l-1.572-.264a.3.3 0 0 0-.133.005.3.3 0 0 0-.115.067l-.68.948a.06.06 0 0 0 0 .044v2.464a.1.1 0 0 0 0 .04v2q0 .059.036.104l.62.864a.3.3 0 0 0 .111.092.3.3 0 0 0 .141.028l1.6-.276a.5.5 0 0 1 .312.092q.151.103.32.2v1.284c0 .056.048.104.128.124l1.644.4a.3.3 0 0 0 .14.005.3.3 0 0 0 .128-.057l.8-.828a.36.36 0 0 1 .256-.08q.536.03 1.072 0 .082 0 .157.033a.4.4 0 0 1 .131.091l.708.74a.33.33 0 0 0 .272.104l1.712-.4a.1.1 0 0 0 .058-.033.1.1 0 0 0 .03-.059v-1.304q.206-.11.4-.24a.4.4 0 0 1 .28-.052l1.572.268q.067.015.134-.006a.26.26 0 0 0 .114-.07l.68-.948a.07.07 0 0 0 0-.044v-2.468zm-9.156.052q.113-.078.244-.156a4.72 4.72 0 0 1 4.256 0q.127.076.236.152a2 2 0 0 1-.256.168 4.73 4.73 0 0 1-3.264.368 3.7 3.7 0 0 1-.964-.368 3 3 0 0 1-.252-.164"/><path fill="#000" d="M113.268 184.42v-2.04a.16.16 0 0 0-.036-.096l-.62-.864a.28.28 0 0 0-.252-.12l-1.624.272a.52.52 0 0 1-.308-.088 4 4 0 0 0-.32-.204V180c0-.052-.048-.1-.128-.12l-1.648-.4a.3.3 0 0 0-.137-.005.3.3 0 0 0-.127.053l-.8.828a.348.348 0 0 1-.256.08 9 9 0 0 0-1.072 0 .44.44 0 0 1-.292-.128l-.704-.708a.32.32 0 0 0-.272-.1l-1.712.4a.11.11 0 0 0-.088.112v1.284a4 4 0 0 0-.4.244.45.45 0 0 1-.28.048l-1.572-.264a.3.3 0 0 0-.133.005.3.3 0 0 0-.115.067l-.68.948a.06.06 0 0 0 0 .044v2.464a.1.1 0 0 0 0 .04v2q0 .059.036.104l.62.864a.3.3 0 0 0 .111.092.3.3 0 0 0 .141.028l1.6-.276a.5.5 0 0 1 .312.092q.151.103.32.2v1.284c0 .056.048.104.128.124l1.644.4a.3.3 0 0 0 .14.005.3.3 0 0 0 .128-.057l.8-.828a.36.36 0 0 1 .256-.08q.536.03 1.072 0 .082 0 .157.033a.4.4 0 0 1 .131.091l.708.74a.33.33 0 0 0 .272.104l1.712-.4a.1.1 0 0 0 .058-.033.1.1 0 0 0 .03-.059v-1.304q.206-.11.4-.24a.4.4 0 0 1 .28-.052l1.572.268q.067.015.134-.006a.26.26 0 0 0 .114-.07l.68-.948a.07.07 0 0 0 0-.044v-2.468zm-9.156.052q.113-.078.244-.156a4.72 4.72 0 0 1 4.256 0q.127.076.236.152a2 2 0 0 1-.256.168 4.73 4.73 0 0 1-3.264.368 3.7 3.7 0 0 1-.964-.368 3 3 0 0 1-.252-.164" opacity=".3"/><path fill="#000" d="M103.248 181.096q-.197.09-.376.192V180a.1.1 0 0 0 0 .068l.4.8a.2.2 0 0 1 .033.055q.01.032.007.065a.15.15 0 0 1-.064.108" opacity=".3"/><path fill="#000" d="M101.364 183.124c-.03.177-.03.359 0 .536a.17.17 0 0 1-.108.188l-1.48.468a.104.104 0 0 0-.072.096v.48-2.492c0 .048.048.092.12.112l1.396.444a.2.2 0 0 1 .144.168m.924 2.076v2.472h-.06l-1.6.272a.2.2 0 0 1-.08 0v-2.472a.2.2 0 0 0 .084 0l1.62-.272z" opacity=".15"/><path fill="#000" d="M102.86 188a5 5 0 0 1-.32-.2.6.6 0 0 0-.252-.092V185.2q.14.015.256.092.313.214.656.376c.096.048.148.132.116.196l-.444.88a66.798 66.798 0 0 0-.012 1.256" opacity=".25"/><path fill="#000" d="M105.788 186.376v2.472a.2.2 0 0 0-.1.056l-.8.828a.21.21 0 0 1-.144.056v-2.472q.085-.001.148-.056l.8-.828a.3.3 0 0 1 .096-.056" opacity=".15"/><path fill="#000" d="M107.12 186.368v2.472a.2.2 0 0 0-.104 0q-.536.03-1.072 0a.4.4 0 0 0-.156.024v-2.472a.4.4 0 0 1 .16-.024q.536.033 1.072 0a.24.24 0 0 1 .1 0" opacity=".25"/><path fill="#000" d="M108.168 187.308v2.472a.35.35 0 0 1-.156-.092l-.704-.74a.4.4 0 0 0-.188-.108v-2.472q.107.032.188.108l.692.724q.068.08.168.108" opacity=".15"/><path fill="#F7921E" d="M110.084 186.82v2.484a.1.1 0 0 1-.03.059.1.1 0 0 1-.058.033l-1.712.4a.2.2 0 0 1-.116 0v-2.472a.2.2 0 0 0 .12 0l1.712-.4a.1.1 0 0 0 .062-.036.1.1 0 0 0 .022-.068"/><path fill="#000" d="M110.084 186.82v2.484a.1.1 0 0 1-.03.059.1.1 0 0 1-.058.033l-1.712.4a.2.2 0 0 1-.116 0v-2.472a.2.2 0 0 0 .12 0l1.712-.4a.1.1 0 0 0 .062-.036.1.1 0 0 0 .022-.068" opacity=".2"/><path fill="#000" d="M110.636 185.22v2.472a.36.36 0 0 0-.168.052 5 5 0 0 1-.4.24v-1.2a.2.2 0 0 0-.02-.068l-.4-.8a.142.142 0 0 1-.02-.112.14.14 0 0 1 .024-.053.2.2 0 0 1 .044-.039q.401-.182.76-.436a.35.35 0 0 1 .18-.056" opacity=".15"/><path fill="#F7921E" d="M113.268 184.424v2.468a.07.07 0 0 1 0 .044l-.68.948a.2.2 0 0 1-.116.068v-2.468a.27.27 0 0 0 .12-.068l.68-.952a.1.1 0 0 0-.004-.04"/><path fill="#F7921E" d="M113.268 184.424v2.468a.07.07 0 0 1 0 .044l-.68.948a.2.2 0 0 1-.116.068v-2.468a.27.27 0 0 0 .12-.068l.68-.952a.1.1 0 0 0-.004-.04"/><path fill="#000" d="M113.268 184.424v2.468a.07.07 0 0 1 0 .044l-.68.948a.2.2 0 0 1-.116.068v-2.468a.27.27 0 0 0 .12-.068l.68-.952a.1.1 0 0 0-.004-.04" opacity=".2"/><path fill="#F7921E" d="M102.872 180a.14.14 0 0 0 0 .064l.4.8a.14.14 0 0 1 .021.056.13.13 0 0 1-.002.059.15.15 0 0 1-.071.093q-.197.09-.376.192a4 4 0 0 0-.4.244.45.45 0 0 1-.28.048l-1.572-.264a.3.3 0 0 0-.133.005.3.3 0 0 0-.115.067l-.68.948a.06.06 0 0 0 0 .044c0 .044.048.084.12.108l1.396.444a.2.2 0 0 1 .109.065.2.2 0 0 1 .047.119c-.03.177-.03.359 0 .536a.17.17 0 0 1-.108.188l-1.48.468a.1.1 0 0 0-.05.037.1.1 0 0 0-.018.059.2.2 0 0 0 .032.096l.62.864q.046.06.113.092a.3.3 0 0 0 .143.028l1.62-.272a.48.48 0 0 1 .312.088q.313.214.656.376c.096.048.148.132.116.196l-.444.88c-.032.064.024.132.12.16l1.644.4a.3.3 0 0 0 .14.005.3.3 0 0 0 .128-.057l.8-.828a.4.4 0 0 1 .256-.08q.536.03 1.072 0 .081 0 .157.033a.4.4 0 0 1 .131.091l.704.748a.33.33 0 0 0 .272.104l1.712-.4a.116.116 0 0 0 .082-.072.12.12 0 0 0-.014-.108l-.4-.8a.13.13 0 0 1-.022-.055.13.13 0 0 1 .002-.059.2.2 0 0 1 .026-.053.2.2 0 0 1 .046-.037 5 5 0 0 0 .756-.436.4.4 0 0 1 .284-.048l1.568.264a.277.277 0 0 0 .252-.076l.68-.948a.06.06 0 0 0 0-.04v-.04a.2.2 0 0 0-.108-.076l-1.4-.44c-.096-.032-.164-.116-.152-.188a1.8 1.8 0 0 0 0-.532.174.174 0 0 1 .108-.192l1.48-.468a.09.09 0 0 0 .068-.088.16.16 0 0 0-.036-.096l-.62-.864a.28.28 0 0 0-.252-.12l-1.624.272a.52.52 0 0 1-.308-.088 4 4 0 0 0-.32-.204 7 7 0 0 0-.336-.176c-.116-.056-.152-.132-.12-.192l.448-.884a.1.1 0 0 0 0-.036c0-.052-.048-.1-.128-.12l-1.648-.4a.3.3 0 0 0-.137-.005.3.3 0 0 0-.127.053l-.8.828a.348.348 0 0 1-.256.08 9 9 0 0 0-1.072 0 .44.44 0 0 1-.292-.128l-.668-.732a.32.32 0 0 0-.272-.1l-1.712.4a.1.1 0 0 0-.061.035.1.1 0 0 0-.027.065m6.22 2.54q.023.02.044.044l.028.028.06.076c.024.028.044.06.064.088l.036.06v.024a1.06 1.06 0 0 1-.084 1.2 1.8 1.8 0 0 1-.4.4 2 2 0 0 1-.256.168 4.73 4.73 0 0 1-3.264.368 3.7 3.7 0 0 1-.964-.368 3 3 0 0 1-.252-.164 1.7 1.7 0 0 1-.512-.572.1.1 0 0 1 0-.032.1.1 0 0 1 0-.036.1.1 0 0 1 0-.036 1.06 1.06 0 0 1 .152-1.052c.636-.884 2.4-1.308 3.928-.94a3.04 3.04 0 0 1 1.42.748z"/><path fill="#37474F" d="M122.74 176.872c-.34.196-.976.188-1.176.42v.832l3.872-.564 1.464.856-.556 1.184-3.912-.26v.832q.126.093.264.168a6.59 6.59 0 0 0 5.968.028c.836-.476 1.256-1.104 1.256-1.732v-.832l-.232.036-.024-.044 14.652-8.46c1.487.324 3.04.13 4.4-.552.53-.262.948-.707 1.176-1.252v-.852l-3.872 1.396-1.464-.856.556-1.164 3.912-.572v-.836s-4.572-.304-6.232.64a2.76 2.76 0 0 0-1.036.956l-.22-.08v.828c0 .308.089.609.256.868l-14.644 8.46a6.64 6.64 0 0 0-4.408.552"/><path fill="#37474F" d="m144.316 169.316.004-.836-14.656 8.46v.836z"/><path fill="#455A64" d="m141.804 167.028-14.652 8.46a6.62 6.62 0 0 0-4.4.552 2.44 2.44 0 0 0-1.176 1.252l3.872-.568 1.464.86-.556 1.164-3.912.572c.084.056.168.112.264.168a6.6 6.6 0 0 0 5.968.024c1.2-.692 1.548-1.704 1-2.572l14.652-8.46a6.62 6.62 0 0 0 4.4-.552 2.45 2.45 0 0 0 1.176-1.248l-3.872.564-1.464-.844.556-1.16 3.912-.576-.264-.168a6.6 6.6 0 0 0-5.968-.024c-1.204.676-1.548 1.688-1 2.556"/><path fill="#263238" d="m144.88 166.568-.312-.184.556-1.16 3.912-.576v.836l-3.912.572zm-18.292 11.668.312-.652-1.464-.86-3.872.568v.832l3.872-.564z"/><path fill="#F7921E" d="m131.704 189.2 3.064 5.304 10.332-5.964c.424-.212.692-.708.692-1.432a4.799 4.799 0 0 0-2.168-3.752 1.53 1.53 0 0 0-1.536-.152z"/><path fill="#F7921E" d="M131.088 190.284c-.044.8-1.2.98-1.2.98l2.164 3.752s.724-.888 1.448-.536c1.068.464 1.896-.112 1.896-1.384a4.798 4.798 0 0 0-2.168-3.756c-1.096-.64-2.004-.212-2.14.944"/><path fill="#000" d="M131.088 190.284c-.044.8-1.2.98-1.2.98l2.164 3.752s.724-.888 1.448-.536c1.068.464 1.896-.112 1.896-1.384a4.798 4.798 0 0 0-2.168-3.756c-1.096-.64-2.004-.212-2.14.944" opacity=".05"/><path fill="#000" d="M130.4 191.104a2.3 2.3 0 0 1-.516.16l2.164 3.752q.179-.205.4-.364a4.83 4.83 0 0 0-2.048-3.548" opacity=".05"/><path fill="#F7921E" d="m127.644 191.528.18.316a2.3 2.3 0 0 0-.092.672 4.799 4.799 0 0 0 2.168 3.752c.194.118.406.204.628.256l.18.312.724-.4a1.53 1.53 0 0 0 .632-1.404 4.8 4.8 0 0 0-2.164-3.752 1.53 1.53 0 0 0-1.532-.152z"/><path fill="#F7921E" d="M131.344 195.436a4.8 4.8 0 0 0-2.168-3.756c-1.2-.692-2.168-.128-2.168 1.252a4.799 4.799 0 0 0 2.168 3.752c1.196.692 2.168.116 2.168-1.248"/><path fill="#000" d="M131.344 195.436a4.8 4.8 0 0 0-2.168-3.756c-1.2-.692-2.168-.128-2.168 1.252a4.799 4.799 0 0 0 2.168 3.752c1.196.692 2.168.116 2.168-1.248" opacity=".15"/><path fill="#000" d="M128.332 196q.248.263.536.48l.508-1.444-.612-.452z" opacity=".15"/><path fill="#000" d="M144.028 185.6a.595.595 0 0 1-.22.8l-7.38 4.26a.595.595 0 0 1-.8-.22.6.6 0 0 1 .22-.8l7.352-4.252a.595.595 0 0 1 .828.212m-1.332-1.58a.362.362 0 0 1 .16.222q.015.069.003.139a.3.3 0 0 1-.052.129.34.34 0 0 1-.139.122l-7.516 4.34a.82.82 0 0 1-.872-.092.35.35 0 0 1-.111-.493.36.36 0 0 1 .139-.123l7.52-4.34a.8.8 0 0 1 .868.096m2.04 3.536a.35.35 0 0 0-.368-.344.36.36 0 0 0-.176.06l-7.52 4.328a.82.82 0 0 0-.352.8.35.35 0 0 0 .368.343.36.36 0 0 0 .176-.059l7.536-4.328a.82.82 0 0 0 .336-.8" opacity=".2"/><path fill="#455A64" d="M110.172 204.188v1.444l3.6-1.172s.724-1.328 1.444-1.748l13.74-7.912.42-1.2-.42-.244-13.728 7.924a1.45 1.45 0 0 1-1.444-.076z"/><path fill="#37474F" d="M110.596 204.432v1.444l3.6-1.172s.724-1.328 1.444-1.744l13.724-7.924V193.6l-13.724 7.924a1.44 1.44 0 0 1-1.444-.076z"/><path fill="#263238" d="m110.596 205.876-.424-.244v-1.444l.424.244z"/><path fill="#455A64" d="m110.172 204.188.424.244 3.612-2.996-.424-.244z"/><path fill="#FFA8A7" d="M171.024 112c2.336-2.4 6.564-7.852 6.564-7.852l2.4-8.284c.06.024-1.22.028-1.6 0-2.584.172-3.344.4-4.952 2.152-1.276 1.396-6.144 8.048-7.84 10.284l-4.492-5.724c-1.076-1.628-.9-3.448-1.46-4.776s-1.46-1.916-2.184-3.12-.896-2-1.488-1.372.092 2.272.18 2.648.992 1.5-.52.916-3.848-3.348-4.452-3.916-.92.312-.8 1.004-.512 2.252-.276 3.396c.248 1.2.428 1.772 1.6 2.952 1.088 1.1 3.76 2.444 4.8 3.888s3.272 5.924 4.636 8.624c1.728 3.432 3.2 4.564 5.152 3.408s3.864-3.336 4.732-4.228"/><path fill="#E0E0E0" d="M179.22 95.784a8.6 8.6 0 0 0-3.896.532c-1.404.632-2.356 2-3.724 3.824s-4.8 6.26-4.8 6.26a10.32 10.32 0 0 1 4.168 5.86l8.36-9.24z"/><path fill="#F28F8F" d="M165.6 108.304a5.44 5.44 0 0 1 1.6 3.016s.504-1.66-1.244-3.528z"/><path fill="#F5F5F5" d="M187.264 95.756c.908.22 3.348.532 4.956.992 1.2.34 2.4 1.812 2.632 2.9.8 3.484.088 5.676-.208 8.728s-.316 18.28-.316 18.28c-1.692 3.304-14.512 3.976-20.716-.556 0 0 .76-20.272.76-23.428s1.752-6.944 6.592-7.228z"/><path fill="#263238" d="M181.784 85.772a.673.673 0 1 0 .668-.696.68.68 0 0 0-.668.696m.668-2.264 1.384.764a.825.825 0 0 0-.32-1.1.77.77 0 0 0-1.064.336"/><path fill="#F28F8F" d="m181.952 89.86-1.552.58a.8.8 0 0 0 .414.487.8.8 0 0 0 .638.029.87.87 0 0 0 .5-1.096"/><path fill="#263238" d="m176.44 84.064 1.26-.972a.76.76 0 0 0-1.096-.168.84.84 0 0 0-.164 1.14m.284 1.708a.65.65 0 0 0 .788.608.645.645 0 0 0 .456-.885.65.65 0 0 0-.596-.395.66.66 0 0 0-.648.672"/><path fill="#F28F8F" d="m180.232 84.656-.22 4.072-2.128-.724z"/><path fill="#F7921E" d="m181.792 84.836 9.524-.704c1.844 1.396 5.268 4.332 5.264 5.144v.564a.2.2 0 0 1-.02.072c-.336.64-1.552 1.036-3.444 1.068-2.244.036-5.728-.168-6.644-.956-1.376-1.2-4.68-4.652-4.68-4.652l.48-.036z"/><path fill="#000" d="m181.792 84.836 9.524-.704c1.844 1.396 5.268 4.332 5.264 5.144v.564a.2.2 0 0 1-.02.072c-.336.64-1.552 1.036-3.444 1.068-2.244.036-5.728-.168-6.644-.956-1.376-1.2-4.68-4.652-4.68-4.652l.48-.036z" opacity=".2"/><path fill="#F7921E" d="M191.316 84.668c1.924 1.46 5.6 4.6 5.244 5.244s-1.552 1.036-3.444 1.068c-2.244.036-5.728-.168-6.644-.956-1.376-1.2-4.68-4.652-4.68-4.652z"/><path fill="#000" d="M191.316 84.668c1.924 1.46 5.6 4.6 5.244 5.244s-1.552 1.036-3.444 1.068c-2.244.036-5.728-.168-6.644-.956-1.376-1.2-4.68-4.652-4.68-4.652z" opacity=".4"/><path fill="#F7921E" d="M191.316 84.668c.032.276-.94.852-.94.852l.272-1.672z"/><path fill="#000" d="M191.316 84.668c.032.276-.94.852-.94.852l.272-1.672z" opacity=".3"/><path fill="#263238" d="M188.8 79.104s1.488.208 2.036 1.328c.472.976.304 3.332-.332 5.9a23.6 23.6 0 0 1-1.6 4.8 1.96 1.96 0 0 1-1.136.912l.076-3.048.112-2.12s-1.364-1.86-1.512-3.384c-.196-1.964.22-2.764.22-2.764z"/><path fill="#263238" d="M186.4 82.052a5.686 5.686 0 0 1-5.704 5.668c-3.14 0-5.496-2.588-5.484-5.728s2.38-5.656 5.52-5.644a5.69 5.69 0 0 1 5.668 5.704"/><path fill="#FFA8A7" d="M187.884 86.556c.512.444.928-.704 1.36-1.152s1.836-1.056 2.528.42-.612 3.6-1.692 4.028a1.534 1.534 0 0 1-1.832-.56v6.748c-1.6 2.916-4.472 2.828-6 2.66s-1.86-1.748-.744-3.028v-2.088a12 12 0 0 1-2.564.124c-1.396-.22-2.128-1.276-2.544-2.8-.676-2.432-.944-6.52 0-11.244 1.564-1.2 6.992-1.012 10.276 1.072-.236 4.2.704 5.376 1.212 5.82"/><path fill="#263238" d="M176.984 77.6a6.7 6.7 0 0 1 2.308-1.6 5.85 5.85 0 0 1 2.22-.472c.992 0 2-.148 2.972-.116 1.72.056 3.8.756 4.576 2.428.356.768.4 1.576-.288 2.104-.627.426-1.345.7-2.096.8-1.276.22-2.54.5-3.824.672a11.4 11.4 0 0 1-4.14-.06 5.5 5.5 0 0 1-1.8-.768 4.8 4.8 0 0 1-.776-.648c-.092-.092-.336-.284-.364-.4s.136-.4.204-.504a6.4 6.4 0 0 1 1.008-1.436"/><path fill="#F28F8F" d="M181.516 93.6s3.124-.616 4.216-1.2a3.6 3.6 0 0 0 1.512-1.488 4.9 4.9 0 0 1-.86 1.756c-.8 1.016-4.872 1.756-4.872 1.756z"/><path fill="#263238" d="M182.36 85.504a.664.664 0 0 0 .708.634.659.659 0 0 0 .459-1.08.66.66 0 0 0-.507-.238.68.68 0 0 0-.472.205.68.68 0 0 0-.188.479"/><path fill="#F28F8F" d="M180.856 90.568a.67.67 0 0 0 .256.498.67.67 0 0 0 .547.122.66.66 0 1 0-.4-1.25.67.67 0 0 0-.403.63"/><path fill="#263238" d="m183.26 82.956 1.268.992a.845.845 0 0 0-.128-1.148.8.8 0 0 0-.603-.164.8.8 0 0 0-.537.32m-6.736 1.012 1.224-1.064a.8.8 0 0 0-1.128-.108.855.855 0 0 0-.096 1.172m.416 1.34a.664.664 0 0 0 .708.634.659.659 0 0 0 .459-1.08.66.66 0 0 0-.507-.238.68.68 0 0 0-.472.205.68.68 0 0 0-.188.479"/><path fill="#F28F8F" d="m180.556 84.18-.248 4.672-2.216-.584z"/><path fill="#F7921E" d="M191.724 82.352a8.3 8.3 0 0 1-.4 2.364 2.9 2.9 0 0 0-.584-.66 14 14 0 0 0-4.288-2.456c-3.6-1.392-7.8-1.6-11.156-.424a7.5 7.5 0 0 1 .448-2c1.224-3.2 3.7-4.86 7.652-4.448 4.628.472 8.452 3.04 8.328 7.624"/><path fill="#263238" d="M183.24 79.532c-1.076-.364-3.82-.576-4.62-.324a5 5 0 0 1-.964-1.064c-.376-.596-.248-1.344.104-1.5s.376.312 1.74.988a2.27 2.27 0 0 1-.112-1.38c.224-.552.692.44 1.708 1.084s2.016.964 2.144 2.196"/><path fill="#37474F" d="M197.28 93.088c.896-.736 6.328 5.7 4.056 7.552s-5.048-2.8-4.672-5.096.616-2.456.616-2.456"/><path fill="#FFA8A7" d="M201.648 89.472c-1.36-1.668-4.972-5.676-5.772-6.4s-1.28-.628-1.776-.8a4.1 4.1 0 0 1-1.484-.928 9 9 0 0 1-.716-.84A13 13 0 0 0 189.2 78c-1.072-.74-2.248-1.288-3.344-2-.656-.42-1.368-1.128-.624-1.852.226-.209.501-.356.8-.428 1.86-.488 3.524.088 5.38.48q1.214.253 2.372.692c.379.13.736.316 1.06.552q.944.807 1.74 1.76c1.276 1.564 2.356 2.048 3.6 3.132 1.468 1.268 8.048 5.92 9.436 7.304 1.152 1.148.8 2.096.648 2.424-.82 1.884-1.796 2.584-2.948 3.776q-.571.6-1.148 1.2c-1.496 1.516-3 2.944-4.56 4.4-1.664 1.552-2.344 2.296-3.828 3.792a11.8 11.8 0 0 0-2.24 3.308c-2.684.612-4.516-5.068-3.556-8.36a4.26 4.26 0 0 1 1.56-2.052c2.736-2.184 8.1-6.656 8.1-6.656"/><path fill="#F28F8F" d="M201.648 89.472a7.14 7.14 0 0 0 3.404 2.136s-1.708.512-4.16-1.508z"/><path fill="#E0E0E0" d="M192.22 96.748c.612-.48 2.1-1.504 5.06-3.66 0 0-.4 1.024.484 3.48s2.568 3.952 3.572 4.072c0 0-1.644 1.464-3.14 3.096s-2.74 2.8-3.552 4.64c0 0-2.308-.448-3.048-4.264-.524-2.68-.496-5.86.624-7.364"/><path fill="#263238" d="M187.048 194.312c-.144.152-.052 1.256.128 1.508s1.2 1.092 3.056 1.124c1.78.032 3.352-.292 4.36-1.012s1.468-1.472 1.512-2.488-.12-2 .32-2.8c.4-.74.96-1.472 1.096-1.872a5.1 5.1 0 0 0 0-2.172z"/><path fill="#F7921E" d="M191.368 185.744a4.7 4.7 0 0 1-.156 1.136 10.2 10.2 0 0 1-.968 2.28 9.4 9.4 0 0 1-.68 1.084c-.504.668-1.144 1.228-1.676 1.868-.575.61-.921 1.4-.98 2.236 0 1.396 1.536 1.788 2.708 1.932a8.5 8.5 0 0 0 3.768-.4 3.47 3.47 0 0 0 2.4-2.908c.044-.4 0-.8.024-1.176a5.5 5.5 0 0 1 .948-2.492c.302-.427.556-.886.76-1.368.316-.88-.024-1.836-.304-2.68-.24-.732-.432-1.6-.688-1.528v.476c-.08.168-.264.288-.308.476q-.063.3-.18.584a1.5 1.5 0 0 1-.58.716q-.07-.786-.14-1.572a.7.7 0 0 0-.144-.456.72.72 0 0 0-.456-.168 9.9 9.9 0 0 0-2.988-.088.53.53 0 0 0-.4.196.58.58 0 0 0-.044.36q.081.745.084 1.492"/><path fill="#000" d="M191.368 185.744a4.7 4.7 0 0 1-.156 1.136 10.2 10.2 0 0 1-.968 2.28 9.4 9.4 0 0 1-.68 1.084c-.504.668-1.144 1.228-1.676 1.868-.575.61-.921 1.4-.98 2.236 0 1.396 1.536 1.788 2.708 1.932a8.5 8.5 0 0 0 3.768-.4 3.47 3.47 0 0 0 2.4-2.908c.044-.4 0-.8.024-1.176a5.5 5.5 0 0 1 .948-2.492c.302-.427.556-.886.76-1.368.316-.88-.024-1.836-.304-2.68-.24-.732-.432-1.6-.688-1.528v.476c-.08.168-.264.288-.308.476q-.063.3-.18.584a1.5 1.5 0 0 1-.58.716q-.07-.786-.14-1.572a.7.7 0 0 0-.144-.456.72.72 0 0 0-.456-.168 9.9 9.9 0 0 0-2.988-.088.53.53 0 0 0-.4.196.58.58 0 0 0-.044.36q.081.745.084 1.492" opacity=".2"/><path fill="#455A64" d="M190.072 189.464c.5-.4 1.66-.484 2.296-.452a3.9 3.9 0 0 1 1.84.536.4.4 0 0 0 .616-.403.4.4 0 0 0-.16-.257 3.9 3.9 0 0 0-2.068-.644c-1.568-.024-2 .268-2 .268s-.7.496-.524.952m-1.112 1.488c.628-.42 1.908-.432 2.548-.4a3.65 3.65 0 0 1 1.792.572.4.4 0 0 0 .456-.66 4.1 4.1 0 0 0-2.116-.7c-1.568-.024-1.96.316-1.96.316a1.3 1.3 0 0 0-.72.872m4.176-4.236a3.86 3.86 0 0 0-1.952.272c-.268.168-.428.612-.244.716a3.6 3.6 0 0 1 1.728-.336 5.2 5.2 0 0 1 1.712.376q.227.087.444.196a.37.37 0 0 0 .509-.203.35.35 0 0 0-.165-.425 5 5 0 0 0-2.032-.596"/><path fill="#263238" d="M165.48 188.728c-.113.413-.064.853.136 1.232.192.352 2.144 1.32 4.684 1.008a10.6 10.6 0 0 0 5.18-2.128c.94-.696 1.944-.872 3.2-1.012s2.208-.58 2.452-1.2-.128-1.6-.128-1.6z"/><path fill="#F7921E" d="M175.388 180.64a5 5 0 0 1-.676-.192.56.56 0 0 0-.38-.024.56.56 0 0 0-.248.44q-.06.571-.22 1.124a2.8 2.8 0 0 1-.676.8 11.5 11.5 0 0 1-1.972 1.428c-.8.492-1.6.884-2.448 1.32s-2 .744-2.672 1.244c-.964.728-1.004 2.432.172 3.04 1.016.528 3.64 1.012 6.316.096 1.46-.496 3.016-2.168 4.952-2.424 1.228-.164 2.868-.356 3.6-1.336.268-.432.032-1.636-.188-3.064-.196-1.28-.376-3.28-.8-3.148 0 0-.152.472-.18.524a4 4 0 0 1-.34.456q-.165.174-.348.328a5 5 0 0 1-.436.448c-.2.172-.449.275-.712.296a.7.7 0 0 1-.356-.076c-.212-.12-.24-.4-.4-.568a2 2 0 0 0-.688-.448 3.8 3.8 0 0 0-1.116-.224z"/><path fill="#000" d="M175.388 180.64a5 5 0 0 1-.676-.192.56.56 0 0 0-.38-.024.56.56 0 0 0-.248.44q-.06.571-.22 1.124a2.8 2.8 0 0 1-.676.8 11.5 11.5 0 0 1-1.972 1.428c-.8.492-1.6.884-2.448 1.32s-2 .744-2.672 1.244c-.964.728-1.004 2.432.172 3.04 1.016.528 3.64 1.012 6.316.096 1.46-.496 3.016-2.168 4.952-2.424 1.228-.164 2.868-.356 3.6-1.336.268-.432.032-1.636-.188-3.064-.196-1.28-.376-3.28-.8-3.148 0 0-.152.472-.18.524a4 4 0 0 1-.34.456q-.165.174-.348.328a5 5 0 0 1-.436.448c-.2.172-.449.275-.712.296a.7.7 0 0 1-.356-.076c-.212-.12-.24-.4-.4-.568a2 2 0 0 0-.688-.448 3.8 3.8 0 0 0-1.116-.224z" opacity=".2"/><path fill="#455A64" d="M172.332 183.472a1.15 1.15 0 0 1 .868-.672c.556-.136 1.572.224 2.216.7a.458.458 0 0 1-.024.764.45.45 0 0 1-.528-.028 3.5 3.5 0 0 0-2.532-.764m-1.688 1.068a1.31 1.31 0 0 1 1.052-.616s1.468-.036 2.424.76a.455.455 0 0 1 .123.583.438.438 0 0 1-.406.224.44.44 0 0 1-.249-.099 3.57 3.57 0 0 0-2.944-.852m-1.876.984c.131-.167.297-.304.486-.402.19-.097.397-.152.61-.162a3.94 3.94 0 0 1 2.324.776.455.455 0 0 1 .123.583.45.45 0 0 1-.147.157.44.44 0 0 1-.508-.032 3.36 3.36 0 0 0-2.888-.92m4.1-60.104c-.068 5.844.308 25.556.436 28.496.112 2.576.56 27.928.56 27.928 2.952.916 6.992-.032 6.992-.032s2.056-15.812 2.188-18.612a48 48 0 0 0-.4-7.712l1.512-16.132s1.652 12.08 2.448 17.368c.912 6.06 4.324 29.268 4.324 29.268 2.716 1.056 6.52-.444 6.52-.444s-.196-18.056-.468-24.192c-.192-4.236-1.372-6.296-1.5-7.472 0 0-.588-22-.652-27.576-.04-3.736-.444-7.84-.444-7.84s-4.08.328-4.44-.86 0-12.608.152-14.828c0 0-8.576-1.908-16-.5.004-.016-1.156 17.296-1.228 23.14"/><path fill="#37474F" d="M190.124 120.8c-.044 3.884.64 6.296 1.672 7.136s3.064.776 3.064.776v-.58s-1.92.284-2.78-.616-1.644-2.196-1.956-6.716m-13.2-14.4s4.452 0 8.664.288c0 0 .028 3.252-.336 4.436s-3.168 2.956-4.332 2.952c-1.008 0-3.812-2-4.032-3.048s.036-4.628.036-4.628m7.224 32.94-.4-2.496c-1.2-.18-4.292-2.1-6.116-3.78a14.5 14.5 0 0 0 5.116 4.712l.128 15.92zm8.072-42.592c-.8-.204-1.252-.036-1.656.976s-.868 4.3-1.024 7.376c0 0-1.852.336-3.136-.208 0 0 .156-4.04.588-6.124a7.4 7.4 0 0 1 .6-1.776 1.86 1.86 0 0 1 2-1.012l2.928.536z"/><path fill="#F7921E" d="M188.716 103.74a.73.73 0 0 1-.213.514.72.72 0 0 1-.515.214.72.72 0 0 1-.514-.214.72.72 0 0 1-.213-.514.727.727 0 1 1 1.455 0"/><path fill="#37474F" d="M181.504 95.672a3.37 3.37 0 0 0-2.976 2.052c-.604 1.536-.608 4.944-.644 6.636a4.04 4.04 0 0 1-2.876 0s0-5.364.916-7.14 2.68-1.884 3.6-1.952a17 17 0 0 1 1.972 0z"/><path fill="#F7921E" d="M177.252 103.172a.727.727 0 1 1-1.455 0 .727.727 0 0 1 1.455 0m-61.028-25.924q.164.234.364.48c.129.166.293.303.48.4.213.101.449.147.684.132a2.1 2.1 0 0 0 .94-.324 4.3 4.3 0 0 0 .936-.744q.465-.478.8-1.056a5.7 5.7 0 0 0 .552-1.296c.136-.484.203-.985.2-1.488 0-.8-.208-1.368-.624-1.648s-.984-.208-1.7.208a2.7 2.7 0 0 0-.624.504c-.196.208-.376.4-.54.616l-.456.568a1.4 1.4 0 0 1-.356.348l-3.66 2.116a.366.366 0 0 1-.472 0 .74.74 0 0 1-.164-.592l.704-13.316c.018-.276.086-.548.2-.8.084-.226.236-.42.436-.556l10.048-5.804a.344.344 0 0 1 .448.032q.104.12.154.27.048.152.034.31v3.832a1.9 1.9 0 0 1-.188.8c-.09.223-.246.413-.448.544l-6.832 3.936-.164 3.312q.436-.624.976-1.16c.357-.362.76-.676 1.2-.932a6.1 6.1 0 0 1 2.524-.88 3.05 3.05 0 0 1 2 .496 3.82 3.82 0 0 1 1.34 1.904 10 10 0 0 1 .48 3.372 15.9 15.9 0 0 1-.528 4.136 16 16 0 0 1-1.456 3.644 14.3 14.3 0 0 1-2.172 2.972 12.2 12.2 0 0 1-2.676 2.124 6.9 6.9 0 0 1-2.856 1.012 3.3 3.3 0 0 1-2.124-.472 3.6 3.6 0 0 1-1.34-1.684 7 7 0 0 1-.492-2.588c.002-.225.054-.446.152-.648.075-.182.202-.337.364-.448l2.984-1.72q.372-.217.576-.116a.73.73 0 0 1 .296.204m18.268-28.696q1.764-1.016 3.028-.952c.795.02 1.55.35 2.104.92a5.3 5.3 0 0 1 1.244 2.4 15.5 15.5 0 0 1 .48 3.464q.048 1.532.048 3.228 0 1.695-.048 3.2a24 24 0 0 1-.48 4.02 17.4 17.4 0 0 1-1.244 3.844 15 15 0 0 1-2.104 3.348 11.2 11.2 0 0 1-3.028 2.544q-1.76 1.016-3.028.952a3 3 0 0 1-2.1-.92 5.3 5.3 0 0 1-1.248-2.4 16 16 0 0 1-.48-3.464 126 126 0 0 1 .012-6.42c.051-1.344.212-2.682.48-4a17.5 17.5 0 0 1 1.248-3.848 14.8 14.8 0 0 1 2.1-3.348 11.2 11.2 0 0 1 3.016-2.568m2.512 14.604a96 96 0 0 0 0-6.076 11 11 0 0 0-.176-1.56 2.7 2.7 0 0 0-.4-1.084 1.03 1.03 0 0 0-.76-.436 2.03 2.03 0 0 0-1.176.356c-.452.254-.85.594-1.172 1-.315.4-.568.845-.752 1.32a8 8 0 0 0-.424 1.564q-.132.875-.144 1.76-.12 3.068 0 6.072.015.793.152 1.576c.059.385.204.751.424 1.072a1.05 1.05 0 0 0 .764.448 2 2 0 0 0 1.172-.352 4.1 4.1 0 0 0 1.176-1.004c.317-.404.574-.851.764-1.328a7 7 0 0 0 .42-1.564q.125-.878.132-1.764m13.644-23.928c1.172-.68 2.184-.996 3.028-.956a3.07 3.07 0 0 1 2.104.92 5.4 5.4 0 0 1 1.244 2.4 15.8 15.8 0 0 1 .48 3.464q.048 1.532.048 3.228c0 1.132 0 2.204-.048 3.2a24.5 24.5 0 0 1-.48 4 18 18 0 0 1-1.244 3.844 15 15 0 0 1-2.104 3.348 11.2 11.2 0 0 1-3.028 2.544c-1.176.68-2.184.996-3.028.956a3.06 3.06 0 0 1-2.104-.92 5.4 5.4 0 0 1-1.244-2.4 15.8 15.8 0 0 1-.48-3.464 98 98 0 0 1-.048-3.156c0-1.132 0-2.228.048-3.28.049-1.351.209-2.696.48-4.02a17.8 17.8 0 0 1 1.244-3.848 15 15 0 0 1 2.104-3.344 11 11 0 0 1 3.028-2.516m2.512 14.6a96 96 0 0 0 0-6.076 12 12 0 0 0-.176-1.56 2.7 2.7 0 0 0-.4-1.08 1.02 1.02 0 0 0-.752-.452 2 2 0 0 0-1.172.352c-.456.25-.859.585-1.188.988a5.2 5.2 0 0 0-.752 1.32 8 8 0 0 0-.42 1.56q-.143.874-.164 1.76-.12 3.068 0 6.072.012.795.152 1.576c.057.386.202.755.424 1.076a1.07 1.07 0 0 0 .76.444 2 2 0 0 0 1.176-.352c.452-.256.85-.597 1.172-1.004a5.3 5.3 0 0 0 .764-1.324 7.2 7.2 0 0 0 .424-1.528 14 14 0 0 0 .152-1.772"/><path fill="#455A64" d="M125.304 99.728a.116.116 0 0 1 .156 0 .27.27 0 0 1 .068.204v1.36a.7.7 0 0 1-.068.28.42.42 0 0 1-.156.196l-3.948 2.276a.12.12 0 0 1-.156 0 .3.3 0 0 1-.055-.095.3.3 0 0 1-.013-.109v-8.28a.7.7 0 0 1 .068-.28.43.43 0 0 1 .156-.196l3.88-2.24a.13.13 0 0 1 .16 0 .27.27 0 0 1 .064.204v1.36a.65.65 0 0 1-.064.28.46.46 0 0 1-.16.196l-2.564 1.48v1.384l2.38-1.376a.13.13 0 0 1 .16 0 .3.3 0 0 1 .053.098q.017.053.011.11v1.356a.7.7 0 0 1-.064.284.4.4 0 0 1-.16.192l-2.38 1.376v1.436zm3.66-9.036c.302-.19.635-.326.984-.4.251-.051.513-.01.736.116.228.152.394.38.468.644.118.389.172.794.16 1.2a5.6 5.6 0 0 1-.256 1.744c-.163.502-.41.973-.732 1.392l1.032 2.452a.4.4 0 0 1 .024.128.5.5 0 0 1-.056.228.34.34 0 0 1-.128.16l-1.132.652c-.112.064-.188.072-.236.024a.6.6 0 0 1-.112-.168l-.916-2.188-.768.444v2.74a.6.6 0 0 1-.068.284.43.43 0 0 1-.156.192l-1.092.632a.12.12 0 0 1-.078.028.12.12 0 0 1-.078-.028.3.3 0 0 1-.055-.097.3.3 0 0 1-.013-.111v-8.288a.7.7 0 0 1 .068-.284.43.43 0 0 1 .156-.192zm-.94 4.428.94-.544c.231-.134.43-.319.58-.54.163-.262.242-.568.228-.876q0-.535-.228-.608a.73.73 0 0 0-.58.128l-.94.544zm6.728-7.768c.3-.19.632-.326.98-.4a1.06 1.06 0 0 1 .736.116c.228.152.394.38.468.644.12.388.175.794.164 1.2a5.6 5.6 0 0 1-.26 1.744 4.5 4.5 0 0 1-.732 1.392l1.032 2.452a.4.4 0 0 1 .024.128.5.5 0 0 1-.052.228.32.32 0 0 1-.132.16l-1.132.652q-.163.096-.236.024a.6.6 0 0 1-.112-.168l-.924-2.208-.768.444v2.74a.7.7 0 0 1-.064.284.4.4 0 0 1-.16.192l-1.088.628a.125.125 0 0 1-.16 0 .3.3 0 0 1-.055-.097.3.3 0 0 1-.013-.111v-8.264a.7.7 0 0 1 .068-.284.4.4 0 0 1 .16-.192zm-.944 4.428.944-.544c.23-.134.427-.319.576-.54.163-.262.242-.568.228-.876q0-.535-.228-.608a.72.72 0 0 0-.576.128l-.944.544zm4.056-2.88c.017-.495.085-.987.204-1.468.116-.483.286-.952.508-1.396.215-.432.484-.835.8-1.2a4.1 4.1 0 0 1 1.084-.904 2.17 2.17 0 0 1 1.084-.348c.291-.008.576.09.8.276.24.216.417.492.512.8.124.4.192.814.2 1.232 0 .364.02.744.02 1.144s0 .78-.02 1.14a7.5 7.5 0 0 1-.2 1.468 6.7 6.7 0 0 1-.512 1.4 5.4 5.4 0 0 1-.8 1.2c-.309.357-.675.66-1.084.896-.325.21-.698.333-1.084.356-.292.01-.578-.09-.8-.28a1.85 1.85 0 0 1-.508-.8 4.3 4.3 0 0 1-.204-1.236v-1.116c0-.4-.012-.792 0-1.164m3.656.108v-2.152a2.2 2.2 0 0 0-.092-.54.8.8 0 0 0-.196-.352.47.47 0 0 0-.32-.132.96.96 0 0 0-.452.144q-.256.151-.448.376-.195.228-.32.5a2.7 2.7 0 0 0-.2.584q-.072.315-.088.64c0 .152-.02.32-.02.504v1.148c0 .176 0 .352.02.5-.011.324.091.642.288.9q.252.276.768-.024c.342-.198.612-.5.768-.864.168-.39.267-.807.292-1.232m4.992-8.448c.301-.191.635-.326.984-.4.251-.051.513-.01.736.116.228.153.392.383.464.648.122.388.178.794.164 1.2a5.6 5.6 0 0 1-.256 1.744 4.6 4.6 0 0 1-.736 1.392l1.032 2.456q.025.06.028.124a.5.5 0 0 1-.056.232.35.35 0 0 1-.128.156l-1.144.672c-.112.064-.192.068-.24.02a.6.6 0 0 1-.108-.164l-.928-2.212-.764.444v2.74a.65.65 0 0 1-.068.284.4.4 0 0 1-.156.192l-1.092.632a.116.116 0 0 1-.156 0 .27.27 0 0 1-.068-.204v-8.28a.6.6 0 0 1 .068-.28.43.43 0 0 1 .156-.196zm-.94 4.428.94-.544c.233-.132.432-.317.58-.54.162-.261.242-.565.228-.872q0-.54-.228-.612a.74.74 0 0 0-.58.128l-.94.544zM112.252 96.8a.07.07 0 0 1-.046.018.07.07 0 0 1-.046-.018.16.16 0 0 1-.036-.116v-4.8a.4.4 0 0 1 .036-.16.3.3 0 0 1 .092-.116l.632-.36a.07.07 0 0 1 .044-.018q.025 0 .044.018a.2.2 0 0 1 .033.056q.01.03.007.064v4.8a.36.36 0 0 1-.04.164.24.24 0 0 1-.088.112zM116 94.64a.1.1 0 0 1-.066.02.1.1 0 0 1-.066-.02.2.2 0 0 1-.064-.068l-1.1-1.896V95.2a.4.4 0 0 1-.04.164.22.22 0 0 1-.092.112l-.628.364a.07.07 0 0 1-.046.016.07.07 0 0 1-.046-.016.2.2 0 0 1-.033-.056q-.01-.03-.007-.064v-4.8q0-.085.04-.16a.22.22 0 0 1 .092-.112l.5-.292a.13.13 0 0 1 .132 0q.04.026.064.068l1.1 1.896v-2.504a.36.36 0 0 1 .04-.164.23.23 0 0 1 .092-.112l.628-.364a.07.07 0 0 1 .092 0 .15.15 0 0 1 .04.12v4.78a.35.35 0 0 1-.04.164.23.23 0 0 1-.092.112zm3.888-7.44a.07.07 0 0 1 .092 0 .2.2 0 0 1 .03.056q.009.032.006.064v.8a.4.4 0 0 1-.036.164.26.26 0 0 1-.092.112l-.848.488v3.796a.4.4 0 0 1-.036.164.26.26 0 0 1-.092.112l-.632.364a.07.07 0 0 1-.092 0 .2.2 0 0 1-.03-.056q-.009-.032-.006-.064v-3.796l-.848.488a.07.07 0 0 1-.088 0 .2.2 0 0 1-.033-.056q-.01-.03-.007-.064v-.8a.36.36 0 0 1 .04-.164.24.24 0 0 1 .088-.112zm3.092 2.224a.07.07 0 0 1 .046-.018q.027 0 .046.018a.2.2 0 0 1 .03.056q.009.032.006.064v.8a.4.4 0 0 1-.036.164.26.26 0 0 1-.092.112l-2.28 1.316a.07.07 0 0 1-.092 0 .17.17 0 0 1-.036-.12v-4.8q0-.085.036-.164a.3.3 0 0 1 .092-.112l2.24-1.292a.07.07 0 0 1 .046-.016q.026 0 .046.016a.2.2 0 0 1 .033.056q.01.03.007.064v.8a.36.36 0 0 1-.04.164.23.23 0 0 1-.092.112l-1.48.856v.8l1.376-.8a.07.07 0 0 1 .046-.018q.027 0 .046.018c.027.032.04.074.036.116v.8a.4.4 0 0 1-.036.164.25.25 0 0 1-.092.112l-1.376.8v.828zm2.22-5.288a1.6 1.6 0 0 1 .568-.224.6.6 0 0 1 .424.064c.13.089.225.22.268.372.071.226.103.463.096.7.004.342-.048.682-.152 1.008-.092.29-.234.56-.42.8l.596 1.42a.2.2 0 0 1 0 .072q0 .069-.028.132a.23.23 0 0 1-.076.092l-.656.376c-.064.04-.108.044-.136 0a.4.4 0 0 1-.064-.1l-.504-1.248-.444.252v1.6a.34.34 0 0 1-.04.164.24.24 0 0 1-.088.112l-.632.364a.07.07 0 0 1-.046.016.07.07 0 0 1-.046-.016.17.17 0 0 1-.036-.12v-4.8a.4.4 0 0 1 .036-.16.22.22 0 0 1 .092-.112zm-.544 2.556.544-.316a1 1 0 0 0 .332-.312.88.88 0 0 0 .132-.504q0-.311-.132-.352a.43.43 0 0 0-.332.072l-.544.316zm4.776.188q-.084.048-.132 0a.17.17 0 0 1-.064-.068l-1.104-1.896v2.504a.4.4 0 0 1-.036.164.26.26 0 0 1-.092.108l-.632.364a.07.07 0 0 1-.088 0 .15.15 0 0 1-.04-.12v-4.8q0-.087.04-.164a.24.24 0 0 1 .088-.112l.5-.288a.13.13 0 0 1 .136 0q.037.03.064.068l1.1 1.896v-2.504q0-.084.04-.16a.24.24 0 0 1 .088-.112l.632-.364a.07.07 0 0 1 .092 0 .2.2 0 0 1 .03.056q.009.032.006.064v4.78a.4.4 0 0 1-.036.164.25.25 0 0 1-.092.112zm3.204-7.028c.06-.04.112-.04.144 0a.3.3 0 0 1 .072.124l1.048 4.056a.4.4 0 0 1 0 .1q0 .068-.028.132a.23.23 0 0 1-.076.092l-.608.352c-.064.036-.108.04-.136 0a.15.15 0 0 1-.048-.096l-.136-.536-1.28.74-.132.692a.6.6 0 0 1-.052.152.32.32 0 0 1-.136.14l-.608.352a.056.056 0 0 1-.072 0 .114.114 0 0 1-.032-.096.4.4 0 0 1 .02-.12l1.048-5.272q.023-.104.068-.2a.34.34 0 0 1 .148-.168zm-.78 3.684.78-.452-.4-1.548zm4.944-2.084a.07.07 0 0 1 .092 0c.027.032.04.074.036.116v.8a.4.4 0 0 1-.036.16.25.25 0 0 1-.092.112l-2.228 1.288a.07.07 0 0 1-.092 0 .2.2 0 0 1-.03-.056q-.009-.032-.006-.064v-4.8q0-.085.036-.164a.27.27 0 0 1 .092-.112l.632-.364a.07.07 0 0 1 .044-.016q.025 0 .044.016a.14.14 0 0 1 .04.116v3.8zm2.92-5.768c.171-.106.364-.17.564-.188a.8.8 0 0 1 .444.096c.127.07.23.175.296.304.07.133.107.282.108.432q0 .069-.028.132c-.024.044-.044.076-.072.088l-.628.364a.17.17 0 0 1-.108.032.17.17 0 0 1-.084-.04.3.3 0 0 1-.048-.048.3.3 0 0 0-.088-.056.4.4 0 0 0-.144 0 .6.6 0 0 0-.212.08q-.092.054-.176.12a1.3 1.3 0 0 0-.148.148.6.6 0 0 0-.104.176.5.5 0 0 0-.036.29.2.2 0 0 0 .04.074.22.22 0 0 0 .152.052q.146-.007.288-.044l.44-.116q.227-.067.464-.06c.121.004.236.05.328.128a.63.63 0 0 1 .196.328q.072.278.064.564c0 .25-.036.5-.108.74a3 3 0 0 1-.312.684 2.913 2.913 0 0 1-1.064 1.048c-.18.114-.384.186-.596.212a.8.8 0 0 1-.464-.084.73.73 0 0 1-.284-.34 1.06 1.06 0 0 1-.116-.488.27.27 0 0 1 .032-.132.2.2 0 0 1 .068-.088l.632-.364a.17.17 0 0 1 .104-.036.2.2 0 0 1 .076.032l.06.064a.3.3 0 0 0 .104.076.3.3 0 0 0 .164.028.6.6 0 0 0 .24-.088q.238-.132.428-.328a.6.6 0 0 0 .168-.4q.001-.113-.064-.148a.27.27 0 0 0-.184-.028 1.5 1.5 0 0 0-.32.06l-.46.12a.69.69 0 0 1-.724-.128 1.33 1.33 0 0 1-.228-.888q.003-.336.092-.66.1-.349.272-.668.18-.326.432-.6.238-.267.544-.452m4.52 1.464a.07.07 0 0 1 .046-.018q.027 0 .046.018c.027.032.04.074.036.116v.8a.4.4 0 0 1-.036.164.26.26 0 0 1-.092.112l-2.28 1.316a.07.07 0 0 1-.092 0 .16.16 0 0 1-.036-.116v-4.8q0-.085.036-.164a.3.3 0 0 1 .092-.112l2.24-1.292a.07.07 0 0 1 .046-.018q.027 0 .046.018a.14.14 0 0 1 .04.116v.8a.34.34 0 0 1-.04.164.22.22 0 0 1-.092.112l-1.48.836v.8l1.376-.8a.07.07 0 0 1 .046-.016q.026 0 .046.016a.2.2 0 0 1 .03.056q.009.032.006.064v.8a.4.4 0 0 1-.036.16.25.25 0 0 1-.092.112l-1.376.8v.828zm2.236-5.288c.174-.108.367-.184.568-.224a.62.62 0 0 1 .424.064c.131.09.227.223.272.376q.102.34.092.696c.004.342-.048.682-.152 1.008-.091.29-.234.56-.42.8l.596 1.416a.2.2 0 0 1 0 .072q0 .071-.028.136a.2.2 0 0 1-.076.088l-.652.4c-.064.036-.112.04-.14 0a.4.4 0 0 1-.064-.096l-.532-1.276-.444.256v1.6q0 .084-.04.16a.24.24 0 0 1-.088.112l-.632.364a.07.07 0 0 1-.092 0 .17.17 0 0 1-.036-.12v-4.8q0-.085.036-.164a.25.25 0 0 1 .092-.112zm-.544 2.54.544-.312c.132-.078.246-.184.332-.312a.86.86 0 0 0 .136-.508q.001-.311-.136-.352a.4.4 0 0 0-.332.076l-.544.312zm3.48.944q-.186.109-.252-.148l-.984-4.06a.3.3 0 0 0 0-.06v-.028a.26.26 0 0 1 .032-.132.2.2 0 0 1 .072-.092l.608-.352c.064-.036.108-.04.136 0q.04.04.052.096l.668 2.872.668-3.644a.5.5 0 0 1 .048-.152.34.34 0 0 1 .14-.144l.604-.348a.06.06 0 0 1 .076 0 .2.2 0 0 1 .026.045.2.2 0 0 1 .006.051v.032a.4.4 0 0 1 0 .072l-.98 5.2a.61.61 0 0 1-.256.444zm4.856-3.988a.07.07 0 0 1 .092 0 .14.14 0 0 1 .04.116v.8q0 .084-.04.16a.22.22 0 0 1-.092.112L152 73.856a.07.07 0 0 1-.046.016.07.07 0 0 1-.046-.016.2.2 0 0 1-.033-.056q-.01-.03-.007-.064v-4.8q0-.084.04-.16a.22.22 0 0 1 .092-.112l2.24-1.296a.07.07 0 0 1 .092 0c.027.034.04.077.036.12v.8a.4.4 0 0 1-.036.16.25.25 0 0 1-.092.112l-1.48.856v.8l1.372-.8a.07.07 0 0 1 .046-.018q.027 0 .046.018a.2.2 0 0 1 .033.056q.01.03.007.064v.8a.36.36 0 0 1-.04.164.23.23 0 0 1-.092.112l-1.372.8v.828zm2.236-5.288a1.8 1.8 0 0 1 .568-.224.63.63 0 0 1 .428.064c.13.09.224.224.268.376.069.225.1.46.092.696a3.2 3.2 0 0 1-.148 1.008c-.093.29-.236.56-.424.8l.596 1.416a.2.2 0 0 1 0 .076.3.3 0 0 1-.032.132.2.2 0 0 1-.076.092l-.652.376c-.064.036-.108.04-.136 0a.3.3 0 0 1-.064-.096l-.524-1.26-.44.256v1.6a.4.4 0 0 1-.04.164.26.26 0 0 1-.092.112L155.2 72a.07.07 0 0 1-.092 0 .2.2 0 0 1-.033-.056q-.01-.03-.007-.064v-4.8q0-.087.04-.164a.24.24 0 0 1 .092-.112zm-.54 2.556.54-.312c.134-.077.249-.184.336-.312a.88.88 0 0 0 .132-.504q0-.313-.132-.356a.44.44 0 0 0-.336.076l-.54.312zm-27.132 35.936a.58.58 0 0 0-.46-.142.58.58 0 0 0-.412.25c-.268.332-.292 1.356-.4 2.048a8.3 8.3 0 0 1-.676 2.136 11.1 11.1 0 0 1-2.284 3.144 14.5 14.5 0 0 1-4.372 2.916q-.827.356-1.696.592c-.572.156-1.34.172-1.832.496a.17.17 0 0 0 0 .248c.6.248 1.336.14 1.96.056a10.4 10.4 0 0 0 2.316-.64 14.1 14.1 0 0 0 4.176-2.54 12.4 12.4 0 0 0 2.976-3.712c.393-.763.671-1.58.824-2.424q.141-.661.176-1.336a1.285 1.285 0 0 0-.296-1.092"/></svg>